<?xml version="1.0" encoding="utf-8" standalone="no"?>
<!DOCTYPE svg PUBLIC "-//W3C//DTD SVG 1.1//EN"
  "http://www.w3.org/Graphics/SVG/1.1/DTD/svg11.dtd">
<!-- Created with matplotlib (https://matplotlib.org/) -->
<svg height="211.07625pt" version="1.1" viewBox="0 0 445.62794 211.07625" width="445.62794pt" xmlns="http://www.w3.org/2000/svg" xmlns:xlink="http://www.w3.org/1999/xlink">
 <defs>
  <style type="text/css">
*{stroke-linecap:butt;stroke-linejoin:round;}
  </style>
 </defs>
 <g id="figure_1">
  <g id="patch_1">
   <path d="M 0 211.07625 
L 445.62794 211.07625 
L 445.62794 0 
L 0 0 
z
" style="fill:#ffffff;"/>
  </g>
  <g id="axes_1">
   <g id="patch_2">
    <path d="M 43.78125 173.52 
L 434.38125 173.52 
L 434.38125 7.2 
L 43.78125 7.2 
z
" style="fill:#ffffff;"/>
   </g>
   <g id="matplotlib.axis_1">
    <g id="xtick_1">
     <g id="line2d_1">
      <defs>
       <path d="M 0 0 
L 0 3.5 
" id="m389980ed0c" style="stroke:#000000;stroke-width:0.8;"/>
      </defs>
      <g>
       <use style="stroke:#000000;stroke-width:0.8;" x="46.09706" xlink:href="#m389980ed0c" y="173.52"/>
      </g>
     </g>
     <g id="text_1">
      <!-- 0 -->
      <defs>
       <path d="M 31.78125 66.40625 
Q 24.171875 66.40625 20.328125 58.90625 
Q 16.5 51.421875 16.5 36.375 
Q 16.5 21.390625 20.328125 13.890625 
Q 24.171875 6.390625 31.78125 6.390625 
Q 39.453125 6.390625 43.28125 13.890625 
Q 47.125 21.390625 47.125 36.375 
Q 47.125 51.421875 43.28125 58.90625 
Q 39.453125 66.40625 31.78125 66.40625 
z
M 31.78125 74.21875 
Q 44.046875 74.21875 50.515625 64.515625 
Q 56.984375 54.828125 56.984375 36.375 
Q 56.984375 17.96875 50.515625 8.265625 
Q 44.046875 -1.421875 31.78125 -1.421875 
Q 19.53125 -1.421875 13.0625 8.265625 
Q 6.59375 17.96875 6.59375 36.375 
Q 6.59375 54.828125 13.0625 64.515625 
Q 19.53125 74.21875 31.78125 74.21875 
z
" id="DejaVuSans-48"/>
      </defs>
      <g transform="translate(42.91581 188.118438)scale(0.1 -0.1)">
       <use xlink:href="#DejaVuSans-48"/>
      </g>
     </g>
    </g>
    <g id="xtick_2">
     <g id="line2d_2">
      <g>
       <use style="stroke:#000000;stroke-width:0.8;" x="123.290736" xlink:href="#m389980ed0c" y="173.52"/>
      </g>
     </g>
     <g id="text_2">
      <!-- 5 -->
      <defs>
       <path d="M 10.796875 72.90625 
L 49.515625 72.90625 
L 49.515625 64.59375 
L 19.828125 64.59375 
L 19.828125 46.734375 
Q 21.96875 47.46875 24.109375 47.828125 
Q 26.265625 48.1875 28.421875 48.1875 
Q 40.625 48.1875 47.75 41.5 
Q 54.890625 34.8125 54.890625 23.390625 
Q 54.890625 11.625 47.5625 5.09375 
Q 40.234375 -1.421875 26.90625 -1.421875 
Q 22.3125 -1.421875 17.546875 -0.640625 
Q 12.796875 0.140625 7.71875 1.703125 
L 7.71875 11.625 
Q 12.109375 9.234375 16.796875 8.0625 
Q 21.484375 6.890625 26.703125 6.890625 
Q 35.15625 6.890625 40.078125 11.328125 
Q 45.015625 15.765625 45.015625 23.390625 
Q 45.015625 31 40.078125 35.4375 
Q 35.15625 39.890625 26.703125 39.890625 
Q 22.75 39.890625 18.8125 39.015625 
Q 14.890625 38.140625 10.796875 36.28125 
z
" id="DejaVuSans-53"/>
      </defs>
      <g transform="translate(120.109486 188.118438)scale(0.1 -0.1)">
       <use xlink:href="#DejaVuSans-53"/>
      </g>
     </g>
    </g>
    <g id="xtick_3">
     <g id="line2d_3">
      <g>
       <use style="stroke:#000000;stroke-width:0.8;" x="200.484412" xlink:href="#m389980ed0c" y="173.52"/>
      </g>
     </g>
     <g id="text_3">
      <!-- 10 -->
      <defs>
       <path d="M 12.40625 8.296875 
L 28.515625 8.296875 
L 28.515625 63.921875 
L 10.984375 60.40625 
L 10.984375 69.390625 
L 28.421875 72.90625 
L 38.28125 72.90625 
L 38.28125 8.296875 
L 54.390625 8.296875 
L 54.390625 0 
L 12.40625 0 
z
" id="DejaVuSans-49"/>
      </defs>
      <g transform="translate(194.121912 188.118438)scale(0.1 -0.1)">
       <use xlink:href="#DejaVuSans-49"/>
       <use x="63.623047" xlink:href="#DejaVuSans-48"/>
      </g>
     </g>
    </g>
    <g id="xtick_4">
     <g id="line2d_4">
      <g>
       <use style="stroke:#000000;stroke-width:0.8;" x="277.678088" xlink:href="#m389980ed0c" y="173.52"/>
      </g>
     </g>
     <g id="text_4">
      <!-- 15 -->
      <g transform="translate(271.315588 188.118438)scale(0.1 -0.1)">
       <use xlink:href="#DejaVuSans-49"/>
       <use x="63.623047" xlink:href="#DejaVuSans-53"/>
      </g>
     </g>
    </g>
    <g id="xtick_5">
     <g id="line2d_5">
      <g>
       <use style="stroke:#000000;stroke-width:0.8;" x="354.871764" xlink:href="#m389980ed0c" y="173.52"/>
      </g>
     </g>
     <g id="text_5">
      <!-- 20 -->
      <defs>
       <path d="M 19.1875 8.296875 
L 53.609375 8.296875 
L 53.609375 0 
L 7.328125 0 
L 7.328125 8.296875 
Q 12.9375 14.109375 22.625 23.890625 
Q 32.328125 33.6875 34.8125 36.53125 
Q 39.546875 41.84375 41.421875 45.53125 
Q 43.3125 49.21875 43.3125 52.78125 
Q 43.3125 58.59375 39.234375 62.25 
Q 35.15625 65.921875 28.609375 65.921875 
Q 23.96875 65.921875 18.8125 64.3125 
Q 13.671875 62.703125 7.8125 59.421875 
L 7.8125 69.390625 
Q 13.765625 71.78125 18.9375 73 
Q 24.125 74.21875 28.421875 74.21875 
Q 39.75 74.21875 46.484375 68.546875 
Q 53.21875 62.890625 53.21875 53.421875 
Q 53.21875 48.921875 51.53125 44.890625 
Q 49.859375 40.875 45.40625 35.40625 
Q 44.1875 33.984375 37.640625 27.21875 
Q 31.109375 20.453125 19.1875 8.296875 
z
" id="DejaVuSans-50"/>
      </defs>
      <g transform="translate(348.509264 188.118438)scale(0.1 -0.1)">
       <use xlink:href="#DejaVuSans-50"/>
       <use x="63.623047" xlink:href="#DejaVuSans-48"/>
      </g>
     </g>
    </g>
    <g id="xtick_6">
     <g id="line2d_6">
      <g>
       <use style="stroke:#000000;stroke-width:0.8;" x="432.06544" xlink:href="#m389980ed0c" y="173.52"/>
      </g>
     </g>
     <g id="text_6">
      <!-- 25 -->
      <g transform="translate(425.70294 188.118438)scale(0.1 -0.1)">
       <use xlink:href="#DejaVuSans-50"/>
       <use x="63.623047" xlink:href="#DejaVuSans-53"/>
      </g>
     </g>
    </g>
    <g id="text_7">
     <!-- hour -->
     <defs>
      <path d="M 54.890625 33.015625 
L 54.890625 0 
L 45.90625 0 
L 45.90625 32.71875 
Q 45.90625 40.484375 42.875 44.328125 
Q 39.84375 48.1875 33.796875 48.1875 
Q 26.515625 48.1875 22.3125 43.546875 
Q 18.109375 38.921875 18.109375 30.90625 
L 18.109375 0 
L 9.078125 0 
L 9.078125 75.984375 
L 18.109375 75.984375 
L 18.109375 46.1875 
Q 21.34375 51.125 25.703125 53.5625 
Q 30.078125 56 35.796875 56 
Q 45.21875 56 50.046875 50.171875 
Q 54.890625 44.34375 54.890625 33.015625 
z
" id="DejaVuSans-104"/>
      <path d="M 30.609375 48.390625 
Q 23.390625 48.390625 19.1875 42.75 
Q 14.984375 37.109375 14.984375 27.296875 
Q 14.984375 17.484375 19.15625 11.84375 
Q 23.34375 6.203125 30.609375 6.203125 
Q 37.796875 6.203125 41.984375 11.859375 
Q 46.1875 17.53125 46.1875 27.296875 
Q 46.1875 37.015625 41.984375 42.703125 
Q 37.796875 48.390625 30.609375 48.390625 
z
M 30.609375 56 
Q 42.328125 56 49.015625 48.375 
Q 55.71875 40.765625 55.71875 27.296875 
Q 55.71875 13.875 49.015625 6.21875 
Q 42.328125 -1.421875 30.609375 -1.421875 
Q 18.84375 -1.421875 12.171875 6.21875 
Q 5.515625 13.875 5.515625 27.296875 
Q 5.515625 40.765625 12.171875 48.375 
Q 18.84375 56 30.609375 56 
z
" id="DejaVuSans-111"/>
      <path d="M 8.5 21.578125 
L 8.5 54.6875 
L 17.484375 54.6875 
L 17.484375 21.921875 
Q 17.484375 14.15625 20.5 10.265625 
Q 23.53125 6.390625 29.59375 6.390625 
Q 36.859375 6.390625 41.078125 11.03125 
Q 45.3125 15.671875 45.3125 23.6875 
L 45.3125 54.6875 
L 54.296875 54.6875 
L 54.296875 0 
L 45.3125 0 
L 45.3125 8.40625 
Q 42.046875 3.421875 37.71875 1 
Q 33.40625 -1.421875 27.6875 -1.421875 
Q 18.265625 -1.421875 13.375 4.4375 
Q 8.5 10.296875 8.5 21.578125 
z
M 31.109375 56 
z
" id="DejaVuSans-117"/>
      <path d="M 41.109375 46.296875 
Q 39.59375 47.171875 37.8125 47.578125 
Q 36.03125 48 33.890625 48 
Q 26.265625 48 22.1875 43.046875 
Q 18.109375 38.09375 18.109375 28.8125 
L 18.109375 0 
L 9.078125 0 
L 9.078125 54.6875 
L 18.109375 54.6875 
L 18.109375 46.1875 
Q 20.953125 51.171875 25.484375 53.578125 
Q 30.03125 56 36.53125 56 
Q 37.453125 56 38.578125 55.875 
Q 39.703125 55.765625 41.0625 55.515625 
z
" id="DejaVuSans-114"/>
     </defs>
     <g transform="translate(227.628906 201.796563)scale(0.1 -0.1)">
      <use xlink:href="#DejaVuSans-104"/>
      <use x="63.378906" xlink:href="#DejaVuSans-111"/>
      <use x="124.560547" xlink:href="#DejaVuSans-117"/>
      <use x="187.939453" xlink:href="#DejaVuSans-114"/>
     </g>
    </g>
   </g>
   <g id="matplotlib.axis_2">
    <g id="ytick_1">
     <g id="line2d_7">
      <defs>
       <path d="M 0 0 
L -3.5 0 
" id="md104543dec" style="stroke:#000000;stroke-width:0.8;"/>
      </defs>
      <g>
       <use style="stroke:#000000;stroke-width:0.8;" x="43.78125" xlink:href="#md104543dec" y="165.961648"/>
      </g>
     </g>
     <g id="text_8">
      <!-- 0.0 -->
      <defs>
       <path d="M 10.6875 12.40625 
L 21 12.40625 
L 21 0 
L 10.6875 0 
z
" id="DejaVuSans-46"/>
      </defs>
      <g transform="translate(20.878125 169.760867)scale(0.1 -0.1)">
       <use xlink:href="#DejaVuSans-48"/>
       <use x="63.623047" xlink:href="#DejaVuSans-46"/>
       <use x="95.410156" xlink:href="#DejaVuSans-48"/>
      </g>
     </g>
    </g>
    <g id="ytick_2">
     <g id="line2d_8">
      <g>
       <use style="stroke:#000000;stroke-width:0.8;" x="43.78125" xlink:href="#md104543dec" y="137.038001"/>
      </g>
     </g>
     <g id="text_9">
      <!-- 0.5 -->
      <g transform="translate(20.878125 140.83722)scale(0.1 -0.1)">
       <use xlink:href="#DejaVuSans-48"/>
       <use x="63.623047" xlink:href="#DejaVuSans-46"/>
       <use x="95.410156" xlink:href="#DejaVuSans-53"/>
      </g>
     </g>
    </g>
    <g id="ytick_3">
     <g id="line2d_9">
      <g>
       <use style="stroke:#000000;stroke-width:0.8;" x="43.78125" xlink:href="#md104543dec" y="108.114354"/>
      </g>
     </g>
     <g id="text_10">
      <!-- 1.0 -->
      <g transform="translate(20.878125 111.913572)scale(0.1 -0.1)">
       <use xlink:href="#DejaVuSans-49"/>
       <use x="63.623047" xlink:href="#DejaVuSans-46"/>
       <use x="95.410156" xlink:href="#DejaVuSans-48"/>
      </g>
     </g>
    </g>
    <g id="ytick_4">
     <g id="line2d_10">
      <g>
       <use style="stroke:#000000;stroke-width:0.8;" x="43.78125" xlink:href="#md104543dec" y="79.190706"/>
      </g>
     </g>
     <g id="text_11">
      <!-- 1.5 -->
      <g transform="translate(20.878125 82.989925)scale(0.1 -0.1)">
       <use xlink:href="#DejaVuSans-49"/>
       <use x="63.623047" xlink:href="#DejaVuSans-46"/>
       <use x="95.410156" xlink:href="#DejaVuSans-53"/>
      </g>
     </g>
    </g>
    <g id="ytick_5">
     <g id="line2d_11">
      <g>
       <use style="stroke:#000000;stroke-width:0.8;" x="43.78125" xlink:href="#md104543dec" y="50.267059"/>
      </g>
     </g>
     <g id="text_12">
      <!-- 2.0 -->
      <g transform="translate(20.878125 54.066277)scale(0.1 -0.1)">
       <use xlink:href="#DejaVuSans-50"/>
       <use x="63.623047" xlink:href="#DejaVuSans-46"/>
       <use x="95.410156" xlink:href="#DejaVuSans-48"/>
      </g>
     </g>
    </g>
    <g id="ytick_6">
     <g id="line2d_12">
      <g>
       <use style="stroke:#000000;stroke-width:0.8;" x="43.78125" xlink:href="#md104543dec" y="21.343411"/>
      </g>
     </g>
     <g id="text_13">
      <!-- 2.5 -->
      <g transform="translate(20.878125 25.14263)scale(0.1 -0.1)">
       <use xlink:href="#DejaVuSans-50"/>
       <use x="63.623047" xlink:href="#DejaVuSans-46"/>
       <use x="95.410156" xlink:href="#DejaVuSans-53"/>
      </g>
     </g>
    </g>
    <g id="text_14">
     <!-- precipitation [mm/hour] -->
     <defs>
      <path d="M 18.109375 8.203125 
L 18.109375 -20.796875 
L 9.078125 -20.796875 
L 9.078125 54.6875 
L 18.109375 54.6875 
L 18.109375 46.390625 
Q 20.953125 51.265625 25.265625 53.625 
Q 29.59375 56 35.59375 56 
Q 45.5625 56 51.78125 48.09375 
Q 58.015625 40.1875 58.015625 27.296875 
Q 58.015625 14.40625 51.78125 6.484375 
Q 45.5625 -1.421875 35.59375 -1.421875 
Q 29.59375 -1.421875 25.265625 0.953125 
Q 20.953125 3.328125 18.109375 8.203125 
z
M 48.6875 27.296875 
Q 48.6875 37.203125 44.609375 42.84375 
Q 40.53125 48.484375 33.40625 48.484375 
Q 26.265625 48.484375 22.1875 42.84375 
Q 18.109375 37.203125 18.109375 27.296875 
Q 18.109375 17.390625 22.1875 11.75 
Q 26.265625 6.109375 33.40625 6.109375 
Q 40.53125 6.109375 44.609375 11.75 
Q 48.6875 17.390625 48.6875 27.296875 
z
" id="DejaVuSans-112"/>
      <path d="M 56.203125 29.59375 
L 56.203125 25.203125 
L 14.890625 25.203125 
Q 15.484375 15.921875 20.484375 11.0625 
Q 25.484375 6.203125 34.421875 6.203125 
Q 39.59375 6.203125 44.453125 7.46875 
Q 49.3125 8.734375 54.109375 11.28125 
L 54.109375 2.78125 
Q 49.265625 0.734375 44.1875 -0.34375 
Q 39.109375 -1.421875 33.890625 -1.421875 
Q 20.796875 -1.421875 13.15625 6.1875 
Q 5.515625 13.8125 5.515625 26.8125 
Q 5.515625 40.234375 12.765625 48.109375 
Q 20.015625 56 32.328125 56 
Q 43.359375 56 49.78125 48.890625 
Q 56.203125 41.796875 56.203125 29.59375 
z
M 47.21875 32.234375 
Q 47.125 39.59375 43.09375 43.984375 
Q 39.0625 48.390625 32.421875 48.390625 
Q 24.90625 48.390625 20.390625 44.140625 
Q 15.875 39.890625 15.1875 32.171875 
z
" id="DejaVuSans-101"/>
      <path d="M 48.78125 52.59375 
L 48.78125 44.1875 
Q 44.96875 46.296875 41.140625 47.34375 
Q 37.3125 48.390625 33.40625 48.390625 
Q 24.65625 48.390625 19.8125 42.84375 
Q 14.984375 37.3125 14.984375 27.296875 
Q 14.984375 17.28125 19.8125 11.734375 
Q 24.65625 6.203125 33.40625 6.203125 
Q 37.3125 6.203125 41.140625 7.25 
Q 44.96875 8.296875 48.78125 10.40625 
L 48.78125 2.09375 
Q 45.015625 0.34375 40.984375 -0.53125 
Q 36.96875 -1.421875 32.421875 -1.421875 
Q 20.0625 -1.421875 12.78125 6.34375 
Q 5.515625 14.109375 5.515625 27.296875 
Q 5.515625 40.671875 12.859375 48.328125 
Q 20.21875 56 33.015625 56 
Q 37.15625 56 41.109375 55.140625 
Q 45.0625 54.296875 48.78125 52.59375 
z
" id="DejaVuSans-99"/>
      <path d="M 9.421875 54.6875 
L 18.40625 54.6875 
L 18.40625 0 
L 9.421875 0 
z
M 9.421875 75.984375 
L 18.40625 75.984375 
L 18.40625 64.59375 
L 9.421875 64.59375 
z
" id="DejaVuSans-105"/>
      <path d="M 18.3125 70.21875 
L 18.3125 54.6875 
L 36.8125 54.6875 
L 36.8125 47.703125 
L 18.3125 47.703125 
L 18.3125 18.015625 
Q 18.3125 11.328125 20.140625 9.421875 
Q 21.96875 7.515625 27.59375 7.515625 
L 36.8125 7.515625 
L 36.8125 0 
L 27.59375 0 
Q 17.1875 0 13.234375 3.875 
Q 9.28125 7.765625 9.28125 18.015625 
L 9.28125 47.703125 
L 2.6875 47.703125 
L 2.6875 54.6875 
L 9.28125 54.6875 
L 9.28125 70.21875 
z
" id="DejaVuSans-116"/>
      <path d="M 34.28125 27.484375 
Q 23.390625 27.484375 19.1875 25 
Q 14.984375 22.515625 14.984375 16.5 
Q 14.984375 11.71875 18.140625 8.90625 
Q 21.296875 6.109375 26.703125 6.109375 
Q 34.1875 6.109375 38.703125 11.40625 
Q 43.21875 16.703125 43.21875 25.484375 
L 43.21875 27.484375 
z
M 52.203125 31.203125 
L 52.203125 0 
L 43.21875 0 
L 43.21875 8.296875 
Q 40.140625 3.328125 35.546875 0.953125 
Q 30.953125 -1.421875 24.3125 -1.421875 
Q 15.921875 -1.421875 10.953125 3.296875 
Q 6 8.015625 6 15.921875 
Q 6 25.140625 12.171875 29.828125 
Q 18.359375 34.515625 30.609375 34.515625 
L 43.21875 34.515625 
L 43.21875 35.40625 
Q 43.21875 41.609375 39.140625 45 
Q 35.0625 48.390625 27.6875 48.390625 
Q 23 48.390625 18.546875 47.265625 
Q 14.109375 46.140625 10.015625 43.890625 
L 10.015625 52.203125 
Q 14.9375 54.109375 19.578125 55.046875 
Q 24.21875 56 28.609375 56 
Q 40.484375 56 46.34375 49.84375 
Q 52.203125 43.703125 52.203125 31.203125 
z
" id="DejaVuSans-97"/>
      <path d="M 54.890625 33.015625 
L 54.890625 0 
L 45.90625 0 
L 45.90625 32.71875 
Q 45.90625 40.484375 42.875 44.328125 
Q 39.84375 48.1875 33.796875 48.1875 
Q 26.515625 48.1875 22.3125 43.546875 
Q 18.109375 38.921875 18.109375 30.90625 
L 18.109375 0 
L 9.078125 0 
L 9.078125 54.6875 
L 18.109375 54.6875 
L 18.109375 46.1875 
Q 21.34375 51.125 25.703125 53.5625 
Q 30.078125 56 35.796875 56 
Q 45.21875 56 50.046875 50.171875 
Q 54.890625 44.34375 54.890625 33.015625 
z
" id="DejaVuSans-110"/>
      <path id="DejaVuSans-32"/>
      <path d="M 8.59375 75.984375 
L 29.296875 75.984375 
L 29.296875 69 
L 17.578125 69 
L 17.578125 -6.203125 
L 29.296875 -6.203125 
L 29.296875 -13.1875 
L 8.59375 -13.1875 
z
" id="DejaVuSans-91"/>
      <path d="M 52 44.1875 
Q 55.375 50.25 60.0625 53.125 
Q 64.75 56 71.09375 56 
Q 79.640625 56 84.28125 50.015625 
Q 88.921875 44.046875 88.921875 33.015625 
L 88.921875 0 
L 79.890625 0 
L 79.890625 32.71875 
Q 79.890625 40.578125 77.09375 44.375 
Q 74.3125 48.1875 68.609375 48.1875 
Q 61.625 48.1875 57.5625 43.546875 
Q 53.515625 38.921875 53.515625 30.90625 
L 53.515625 0 
L 44.484375 0 
L 44.484375 32.71875 
Q 44.484375 40.625 41.703125 44.40625 
Q 38.921875 48.1875 33.109375 48.1875 
Q 26.21875 48.1875 22.15625 43.53125 
Q 18.109375 38.875 18.109375 30.90625 
L 18.109375 0 
L 9.078125 0 
L 9.078125 54.6875 
L 18.109375 54.6875 
L 18.109375 46.1875 
Q 21.1875 51.21875 25.484375 53.609375 
Q 29.78125 56 35.6875 56 
Q 41.65625 56 45.828125 52.96875 
Q 50 49.953125 52 44.1875 
z
" id="DejaVuSans-109"/>
      <path d="M 25.390625 72.90625 
L 33.6875 72.90625 
L 8.296875 -9.28125 
L 0 -9.28125 
z
" id="DejaVuSans-47"/>
      <path d="M 30.421875 75.984375 
L 30.421875 -13.1875 
L 9.71875 -13.1875 
L 9.71875 -6.203125 
L 21.390625 -6.203125 
L 21.390625 69 
L 9.71875 69 
L 9.71875 75.984375 
z
" id="DejaVuSans-93"/>
     </defs>
     <g transform="translate(14.798438 150.335781)rotate(-90)scale(0.1 -0.1)">
      <use xlink:href="#DejaVuSans-112"/>
      <use x="63.476562" xlink:href="#DejaVuSans-114"/>
      <use x="104.558594" xlink:href="#DejaVuSans-101"/>
      <use x="166.082031" xlink:href="#DejaVuSans-99"/>
      <use x="221.0625" xlink:href="#DejaVuSans-105"/>
      <use x="248.845703" xlink:href="#DejaVuSans-112"/>
      <use x="312.322266" xlink:href="#DejaVuSans-105"/>
      <use x="340.105469" xlink:href="#DejaVuSans-116"/>
      <use x="379.314453" xlink:href="#DejaVuSans-97"/>
      <use x="440.59375" xlink:href="#DejaVuSans-116"/>
      <use x="479.802734" xlink:href="#DejaVuSans-105"/>
      <use x="507.585938" xlink:href="#DejaVuSans-111"/>
      <use x="568.767578" xlink:href="#DejaVuSans-110"/>
      <use x="632.146484" xlink:href="#DejaVuSans-32"/>
      <use x="663.933594" xlink:href="#DejaVuSans-91"/>
      <use x="702.947266" xlink:href="#DejaVuSans-109"/>
      <use x="800.359375" xlink:href="#DejaVuSans-109"/>
      <use x="897.771484" xlink:href="#DejaVuSans-47"/>
      <use x="931.462891" xlink:href="#DejaVuSans-104"/>
      <use x="994.841797" xlink:href="#DejaVuSans-111"/>
      <use x="1056.023438" xlink:href="#DejaVuSans-117"/>
      <use x="1119.402344" xlink:href="#DejaVuSans-114"/>
      <use x="1160.515625" xlink:href="#DejaVuSans-93"/>
     </g>
    </g>
   </g>
   <g id="line2d_13">
    <path clip-path="url(#p30c052f779)" d="M 61.535795 165.883986 
L 76.974531 165.843826 
L 92.413266 165.832816 
L 107.852001 165.794547 
L 123.290736 165.607603 
L 138.729471 164.792166 
L 154.168207 115.779933 
L 169.606942 78.81905 
L 185.045677 144.08124 
L 200.484412 139.834823 
L 215.923147 151.866176 
L 231.361882 159.972791 
L 246.800618 161.671349 
L 262.239353 157.55914 
L 277.678088 162.138547 
L 293.116823 162.853125 
L 308.555558 161.365101 
L 323.994293 164.486171 
L 339.433029 164.973468 
L 354.871764 165.520928 
L 370.310499 165.480925 
L 385.749234 163.775212 
L 401.187969 164.339733 
L 416.626705 165.895897 
" style="fill:none;stroke:#1b9e77;stroke-linecap:square;stroke-opacity:0.5;stroke-width:1.5;"/>
   </g>
   <g id="line2d_14">
    <path clip-path="url(#p30c052f779)" d="M 61.535795 125.492313 
L 76.974531 94.236726 
L 92.413266 103.238134 
L 107.852001 120.455574 
L 123.290736 164.2521 
L 138.729471 165.415531 
L 154.168207 165.713131 
L 169.606942 165.805509 
L 185.045677 165.796047 
L 200.484412 165.830844 
L 215.923147 165.861974 
L 231.361882 165.890595 
L 246.800618 165.894769 
L 262.239353 165.931979 
L 277.678088 165.945941 
L 293.116823 165.503537 
L 308.555558 164.865156 
L 323.994293 164.960565 
L 339.433029 164.57883 
L 354.871764 162.291652 
L 370.310499 162.476787 
L 385.749234 163.232778 
L 401.187969 164.656194 
L 416.626705 165.841883 
" style="fill:none;stroke:#1b9e77;stroke-linecap:square;stroke-opacity:0.5;stroke-width:1.5;"/>
   </g>
   <g id="line2d_15">
    <path clip-path="url(#p30c052f779)" d="M 61.535795 114.099687 
L 76.974531 119.213013 
L 92.413266 135.692963 
L 107.852001 151.485081 
L 123.290736 153.397153 
L 138.729471 160.13704 
L 154.168207 163.812027 
L 169.606942 165.077735 
L 185.045677 165.181698 
L 200.484412 164.896259 
L 215.923147 164.131921 
L 231.361882 164.184616 
L 246.800618 164.362804 
L 262.239353 163.549097 
L 277.678088 162.261663 
L 293.116823 161.855392 
L 308.555558 157.844885 
L 323.994293 153.699319 
L 339.433029 157.567466 
L 354.871764 160.240863 
L 370.310499 160.127889 
L 385.749234 161.936583 
L 401.187969 162.832953 
L 416.626705 156.580448 
" style="fill:none;stroke:#1b9e77;stroke-linecap:square;stroke-opacity:0.5;stroke-width:1.5;"/>
   </g>
   <g id="line2d_16">
    <path clip-path="url(#p30c052f779)" d="M 61.535795 153.703052 
L 76.974531 90.346163 
L 92.413266 125.370255 
L 107.852001 147.141949 
L 123.290736 153.226252 
L 138.729471 158.891807 
L 154.168207 161.597576 
L 169.606942 163.139748 
L 185.045677 161.472481 
L 200.484412 160.0633 
L 215.923147 150.694507 
L 231.361882 152.532455 
L 246.800618 160.97817 
L 262.239353 161.529508 
L 277.678088 162.989055 
L 293.116823 162.190384 
L 308.555558 162.971664 
L 323.994293 163.482648 
L 339.433029 164.18124 
L 354.871764 164.861173 
L 370.310499 165.320554 
L 385.749234 165.738521 
L 401.187969 165.825778 
L 416.626705 165.92031 
" style="fill:none;stroke:#1b9e77;stroke-linecap:square;stroke-opacity:0.5;stroke-width:1.5;"/>
   </g>
   <g id="line2d_17">
    <path clip-path="url(#p30c052f779)" d="M 61.535795 165.672379 
L 76.974531 165.888259 
L 92.413266 165.874909 
L 107.852001 165.686892 
L 123.290736 151.089232 
L 138.729471 164.555662 
L 154.168207 165.870504 
L 169.606942 165.696728 
L 185.045677 161.799766 
L 200.484412 97.967275 
L 215.923147 119.53376 
L 231.361882 141.626254 
L 246.800618 155.938604 
L 262.239353 162.874034 
L 277.678088 164.122365 
L 293.116823 152.910305 
L 308.555558 159.167861 
L 323.994293 163.983205 
L 339.433029 157.132619 
L 354.871764 142.87816 
L 370.310499 161.213426 
L 385.749234 162.75671 
L 401.187969 164.48904 
L 416.626705 165.440601 
" style="fill:none;stroke:#1b9e77;stroke-linecap:square;stroke-opacity:0.5;stroke-width:1.5;"/>
   </g>
   <g id="line2d_18">
    <path clip-path="url(#p30c052f779)" d="M 61.535795 165.864693 
L 76.974531 165.714886 
L 92.413266 165.750082 
L 107.852001 165.863601 
L 123.290736 165.89994 
L 138.729471 165.938555 
L 154.168207 165.946185 
L 169.606942 165.947665 
L 185.045677 165.933582 
L 200.484412 165.750808 
L 215.923147 161.776223 
L 231.361882 144.801955 
L 246.800618 142.574059 
L 262.239353 152.77074 
L 277.678088 111.166615 
L 293.116823 146.257687 
L 308.555558 155.379141 
L 323.994293 141.83994 
L 339.433029 139.540206 
L 354.871764 154.486831 
L 370.310499 153.201048 
L 385.749234 155.287731 
L 401.187969 161.036275 
L 416.626705 165.440106 
" style="fill:none;stroke:#1b9e77;stroke-linecap:square;stroke-opacity:0.5;stroke-width:1.5;"/>
   </g>
   <g id="line2d_19">
    <path clip-path="url(#p30c052f779)" d="M 61.535795 163.426069 
L 76.974531 162.355585 
L 92.413266 151.400028 
L 107.852001 148.169788 
L 123.290736 123.681571 
L 138.729471 159.836738 
L 154.168207 163.427446 
L 169.606942 162.068856 
L 185.045677 138.037936 
L 200.484412 99.263352 
L 215.923147 158.965798 
L 231.361882 157.758498 
L 246.800618 152.289394 
L 262.239353 145.848718 
L 277.678088 165.299017 
L 293.116823 165.487308 
L 308.555558 165.60715 
L 323.994293 165.729045 
L 339.433029 165.836662 
L 354.871764 165.906402 
L 370.310499 165.933355 
L 385.749234 165.954388 
L 401.187969 165.95285 
L 416.626705 165.932596 
" style="fill:none;stroke:#1b9e77;stroke-linecap:square;stroke-opacity:0.5;stroke-width:1.5;"/>
   </g>
   <g id="line2d_20">
    <path clip-path="url(#p30c052f779)" d="M 61.535795 165.841388 
L 76.974531 165.768658 
L 92.413266 165.839138 
L 107.852001 165.917099 
L 123.290736 165.902731 
L 138.729471 165.863204 
L 154.168207 164.521981 
L 169.606942 139.853959 
L 185.045677 69.65889 
L 200.484412 124.583225 
L 215.923147 150.591054 
L 231.361882 131.904626 
L 246.800618 152.376697 
L 262.239353 161.196654 
L 277.678088 164.648954 
L 293.116823 164.813537 
L 308.555558 164.80675 
L 323.994293 165.231013 
L 339.433029 165.519804 
L 354.871764 165.740104 
L 370.310499 165.803301 
L 385.749234 165.909541 
L 401.187969 165.94345 
L 416.626705 165.932799 
" style="fill:none;stroke:#1b9e77;stroke-linecap:square;stroke-opacity:0.5;stroke-width:1.5;"/>
   </g>
   <g id="line2d_21">
    <path clip-path="url(#p30c052f779)" d="M 61.535795 96.561325 
L 76.974531 89.584583 
L 92.413266 159.570905 
L 107.852001 163.725437 
L 123.290736 164.502656 
L 138.729471 164.842618 
L 154.168207 165.483394 
L 169.606942 165.675742 
L 185.045677 165.709338 
L 200.484412 165.817712 
L 215.923147 165.877334 
L 231.361882 165.918954 
L 246.800618 165.930679 
L 262.239353 165.951666 
L 277.678088 165.953523 
L 293.116823 165.911022 
L 308.555558 165.592624 
L 323.994293 158.050366 
L 339.433029 147.359895 
L 354.871764 152.183847 
L 370.310499 140.064985 
L 385.749234 155.234556 
L 401.187969 163.886051 
L 416.626705 164.779326 
" style="fill:none;stroke:#1b9e77;stroke-linecap:square;stroke-opacity:0.5;stroke-width:1.5;"/>
   </g>
   <g id="line2d_22">
    <path clip-path="url(#p30c052f779)" d="M 61.535795 158.553188 
L 76.974531 148.474511 
L 92.413266 160.873701 
L 107.852001 163.001401 
L 123.290736 160.314306 
L 138.729471 144.43656 
L 154.168207 148.677329 
L 169.606942 159.558514 
L 185.045677 159.479903 
L 200.484412 138.447702 
L 215.923147 135.686163 
L 231.361882 146.477646 
L 246.800618 141.446827 
L 262.239353 143.519482 
L 277.678088 147.055536 
L 293.116823 162.017628 
L 308.555558 165.701169 
L 323.994293 165.674543 
L 339.433029 165.846976 
L 354.871764 165.932479 
L 370.310499 165.946076 
L 385.749234 165.907056 
L 401.187969 165.284668 
L 416.626705 165.855188 
" style="fill:none;stroke:#1b9e77;stroke-linecap:square;stroke-opacity:0.5;stroke-width:1.5;"/>
   </g>
   <g id="line2d_23">
    <path clip-path="url(#p30c052f779)" d="M 61.535795 165.948956 
L 76.974531 165.946778 
L 92.413266 165.882977 
L 107.852001 163.683175 
L 123.290736 119.532763 
L 138.729471 103.447847 
L 154.168207 156.215672 
L 169.606942 162.031073 
L 185.045677 160.157519 
L 200.484412 129.922251 
L 215.923147 160.302398 
L 231.361882 165.415608 
L 246.800618 165.473446 
L 262.239353 165.288635 
L 277.678088 165.598668 
L 293.116823 165.798046 
L 308.555558 165.841153 
L 323.994293 165.839957 
L 339.433029 165.199118 
L 354.871764 159.260065 
L 370.310499 147.751143 
L 385.749234 145.150686 
L 401.187969 152.044504 
L 416.626705 162.43611 
" style="fill:none;stroke:#1b9e77;stroke-linecap:square;stroke-opacity:0.5;stroke-width:1.5;"/>
   </g>
   <g id="line2d_24">
    <path clip-path="url(#p30c052f779)" d="M 61.535795 165.723752 
L 76.974531 164.35746 
L 92.413266 163.185988 
L 107.852001 159.524578 
L 123.290736 157.623981 
L 138.729471 165.569612 
L 154.168207 165.354935 
L 169.606942 159.247653 
L 185.045677 162.223978 
L 200.484412 158.680853 
L 215.923147 154.29016 
L 231.361882 142.563364 
L 246.800618 76.812629 
L 262.239353 130.439367 
L 277.678088 135.416336 
L 293.116823 159.03979 
L 308.555558 164.725884 
L 323.994293 164.791588 
L 339.433029 165.42419 
L 354.871764 165.690127 
L 370.310499 165.724204 
L 385.749234 165.872349 
L 401.187969 165.931155 
L 416.626705 165.954621 
" style="fill:none;stroke:#1b9e77;stroke-linecap:square;stroke-opacity:0.5;stroke-width:1.5;"/>
   </g>
   <g id="line2d_25">
    <path clip-path="url(#p30c052f779)" d="M 61.535795 165.504141 
L 76.974531 164.29184 
L 92.413266 164.553722 
L 107.852001 165.317614 
L 123.290736 165.653032 
L 138.729471 165.730351 
L 154.168207 165.717589 
L 169.606942 165.776596 
L 185.045677 165.797016 
L 200.484412 165.859127 
L 215.923147 165.881372 
L 231.361882 165.8932 
L 246.800618 165.839035 
L 262.239353 165.773453 
L 277.678088 151.291697 
L 293.116823 129.473298 
L 308.555558 155.768592 
L 323.994293 101.539686 
L 339.433029 83.681897 
L 354.871764 152.880043 
L 370.310499 164.664277 
L 385.749234 157.397679 
L 401.187969 164.256761 
L 416.626705 165.626534 
" style="fill:none;stroke:#1b9e77;stroke-linecap:square;stroke-opacity:0.5;stroke-width:1.5;"/>
   </g>
   <g id="line2d_26">
    <path clip-path="url(#p30c052f779)" d="M 61.535795 165.551468 
L 76.974531 163.939316 
L 92.413266 163.726923 
L 107.852001 164.308881 
L 123.290736 164.72837 
L 138.729471 165.332853 
L 154.168207 165.588573 
L 169.606942 165.813603 
L 185.045677 165.853497 
L 200.484412 165.911659 
L 215.923147 165.842612 
L 231.361882 148.581251 
L 246.800618 97.15132 
L 262.239353 91.315022 
L 277.678088 136.834192 
L 293.116823 157.020135 
L 308.555558 164.466393 
L 323.994293 163.855938 
L 339.433029 163.888321 
L 354.871764 164.438659 
L 370.310499 158.480956 
L 385.749234 156.921646 
L 401.187969 159.076563 
L 416.626705 165.5404 
" style="fill:none;stroke:#1b9e77;stroke-linecap:square;stroke-opacity:0.5;stroke-width:1.5;"/>
   </g>
   <g id="line2d_27">
    <path clip-path="url(#p30c052f779)" d="M 61.535795 165.902285 
L 76.974531 165.741041 
L 92.413266 165.777566 
L 107.852001 165.844835 
L 123.290736 165.859104 
L 138.729471 165.910172 
L 154.168207 165.938747 
L 169.606942 165.948572 
L 185.045677 165.945421 
L 200.484412 165.951309 
L 215.923147 165.941004 
L 231.361882 165.529449 
L 246.800618 163.116023 
L 262.239353 161.057172 
L 277.678088 144.997913 
L 293.116823 151.594737 
L 308.555558 155.359728 
L 323.994293 120.754244 
L 339.433029 141.034433 
L 354.871764 149.271538 
L 370.310499 145.538484 
L 385.749234 96.765789 
L 401.187969 158.889215 
L 416.626705 165.499773 
" style="fill:none;stroke:#1b9e77;stroke-linecap:square;stroke-opacity:0.5;stroke-width:1.5;"/>
   </g>
   <g id="line2d_28">
    <path clip-path="url(#p30c052f779)" d="M 61.535795 165.890819 
L 76.974531 165.770268 
L 92.413266 165.687554 
L 107.852001 165.536948 
L 123.290736 164.727613 
L 138.729471 164.862685 
L 154.168207 69.034042 
L 169.606942 98.192 
L 185.045677 165.203206 
L 200.484412 165.131037 
L 215.923147 156.569753 
L 231.361882 157.107952 
L 246.800618 150.716712 
L 262.239353 156.199785 
L 277.678088 146.898729 
L 293.116823 165.37382 
L 308.555558 164.723355 
L 323.994293 164.241486 
L 339.433029 164.664304 
L 354.871764 165.158045 
L 370.310499 165.335802 
L 385.749234 165.673292 
L 401.187969 165.818841 
L 416.626705 165.650502 
" style="fill:none;stroke:#1b9e77;stroke-linecap:square;stroke-opacity:0.5;stroke-width:1.5;"/>
   </g>
   <g id="line2d_29">
    <path clip-path="url(#p30c052f779)" d="M 61.535795 165.792149 
L 76.974531 164.582039 
L 92.413266 165.034037 
L 107.852001 165.274081 
L 123.290736 165.227027 
L 138.729471 165.71408 
L 154.168207 165.896253 
L 169.606942 165.450038 
L 185.045677 163.605133 
L 200.484412 165.825527 
L 215.923147 164.055618 
L 231.361882 131.211377 
L 246.800618 151.645717 
L 262.239353 145.115758 
L 277.678088 125.579053 
L 293.116823 130.638194 
L 308.555558 150.127254 
L 323.994293 164.223298 
L 339.433029 165.681777 
L 354.871764 162.160597 
L 370.310499 159.659721 
L 385.749234 152.563676 
L 401.187969 151.064222 
L 416.626705 138.041928 
" style="fill:none;stroke:#1b9e77;stroke-linecap:square;stroke-opacity:0.5;stroke-width:1.5;"/>
   </g>
   <g id="line2d_30">
    <path clip-path="url(#p30c052f779)" d="M 61.535795 165.945287 
L 76.974531 165.906509 
L 92.413266 165.414538 
L 107.852001 137.62839 
L 123.290736 140.635633 
L 138.729471 135.654328 
L 154.168207 76.3666 
L 169.606942 154.300441 
L 185.045677 165.470502 
L 200.484412 164.342811 
L 215.923147 164.000633 
L 231.361882 164.857978 
L 246.800618 164.009842 
L 262.239353 162.478972 
L 277.678088 164.085473 
L 293.116823 163.551274 
L 308.555558 140.280602 
L 323.994293 159.373744 
L 339.433029 162.190684 
L 354.871764 164.751386 
L 370.310499 165.661971 
L 385.749234 165.86468 
L 401.187969 165.94914 
L 416.626705 165.447129 
" style="fill:none;stroke:#1b9e77;stroke-linecap:square;stroke-opacity:0.5;stroke-width:1.5;"/>
   </g>
   <g id="line2d_31">
    <path clip-path="url(#p30c052f779)" d="M 61.535795 163.872965 
L 76.974531 159.351278 
L 92.413266 163.903943 
L 107.852001 164.643358 
L 123.290736 164.882587 
L 138.729471 165.386728 
L 154.168207 165.665296 
L 169.606942 165.796744 
L 185.045677 165.805431 
L 200.484412 165.869118 
L 215.923147 165.899889 
L 231.361882 165.920262 
L 246.800618 165.923111 
L 262.239353 165.934614 
L 277.678088 165.925383 
L 293.116823 165.727491 
L 308.555558 164.052717 
L 323.994293 161.951896 
L 339.433029 131.896292 
L 354.871764 109.573361 
L 370.310499 115.049188 
L 385.749234 113.233482 
L 401.187969 143.275178 
L 416.626705 164.628244 
" style="fill:none;stroke:#1b9e77;stroke-linecap:square;stroke-opacity:0.5;stroke-width:1.5;"/>
   </g>
   <g id="line2d_32">
    <path clip-path="url(#p30c052f779)" d="M 61.535795 165.89066 
L 76.974531 165.152238 
L 92.413266 160.066149 
L 107.852001 150.634345 
L 123.290736 149.010077 
L 138.729471 150.644181 
L 154.168207 142.447641 
L 169.606942 151.850777 
L 185.045677 157.67306 
L 200.484412 157.694303 
L 215.923147 153.184577 
L 231.361882 146.50142 
L 246.800618 128.672966 
L 262.239353 131.512861 
L 277.678088 152.659088 
L 293.116823 157.234083 
L 308.555558 165.25226 
L 323.994293 163.874025 
L 339.433029 165.440687 
L 354.871764 165.661375 
L 370.310499 165.675478 
L 385.749234 165.760045 
L 401.187969 165.74179 
L 416.626705 165.934469 
" style="fill:none;stroke:#1b9e77;stroke-linecap:square;stroke-opacity:0.5;stroke-width:1.5;"/>
   </g>
   <g id="line2d_33">
    <path clip-path="url(#p30c052f779)" d="M 61.535795 146.45559 
L 76.974531 22.457987 
L 92.413266 146.542089 
L 107.852001 164.247674 
L 123.290736 164.098176 
L 138.729471 162.764562 
L 154.168207 161.241335 
L 169.606942 160.612466 
L 185.045677 164.357369 
L 200.484412 165.10748 
L 215.923147 164.898571 
L 231.361882 132.720046 
L 246.800618 164.653273 
L 262.239353 165.6128 
L 277.678088 165.656848 
L 293.116823 165.730345 
L 308.555558 165.803883 
L 323.994293 165.867637 
L 339.433029 165.894418 
L 354.871764 165.926483 
L 370.310499 165.947966 
L 385.749234 165.958025 
L 401.187969 165.907038 
L 416.626705 165.706493 
" style="fill:none;stroke:#1b9e77;stroke-linecap:square;stroke-opacity:0.5;stroke-width:1.5;"/>
   </g>
   <g id="line2d_34">
    <path clip-path="url(#p30c052f779)" d="M 61.535795 138.397093 
L 76.974531 148.243902 
L 92.413266 142.077838 
L 107.852001 78.086957 
L 123.290736 104.383742 
L 138.729471 149.459624 
L 154.168207 165.014001 
L 169.606942 165.393457 
L 185.045677 165.329254 
L 200.484412 165.506143 
L 215.923147 165.684522 
L 231.361882 165.823587 
L 246.800618 165.861084 
L 262.239353 165.90433 
L 277.678088 165.912066 
L 293.116823 165.901991 
L 308.555558 165.894981 
L 323.994293 165.91591 
L 339.433029 165.917681 
L 354.871764 165.916742 
L 370.310499 165.884327 
L 385.749234 165.856618 
L 401.187969 165.870773 
L 416.626705 165.931936 
" style="fill:none;stroke:#1b9e77;stroke-linecap:square;stroke-opacity:0.5;stroke-width:1.5;"/>
   </g>
   <g id="line2d_35">
    <path clip-path="url(#p30c052f779)" d="M 61.535795 165.38486 
L 76.974531 145.58886 
L 92.413266 135.984292 
L 107.852001 158.243952 
L 123.290736 164.730375 
L 138.729471 165.488969 
L 154.168207 165.729304 
L 169.606942 165.887279 
L 185.045677 165.870252 
L 200.484412 165.906989 
L 215.923147 163.907443 
L 231.361882 149.771778 
L 246.800618 160.75804 
L 262.239353 154.930559 
L 277.678088 132.690314 
L 293.116823 155.745683 
L 308.555558 163.206122 
L 323.994293 162.991393 
L 339.433029 158.283258 
L 354.871764 160.226161 
L 370.310499 163.556273 
L 385.749234 140.86381 
L 401.187969 116.759249 
L 416.626705 161.663334 
" style="fill:none;stroke:#1b9e77;stroke-linecap:square;stroke-opacity:0.5;stroke-width:1.5;"/>
   </g>
   <g id="line2d_36">
    <path clip-path="url(#p30c052f779)" d="M 61.535795 95.138907 
L 76.974531 106.445579 
L 92.413266 131.620161 
L 107.852001 158.686627 
L 123.290736 163.317536 
L 138.729471 164.897661 
L 154.168207 165.10015 
L 169.606942 165.32484 
L 185.045677 165.393829 
L 200.484412 165.433167 
L 215.923147 165.164538 
L 231.361882 164.804021 
L 246.800618 164.691098 
L 262.239353 163.925918 
L 277.678088 163.802151 
L 293.116823 161.973716 
L 308.555558 159.603523 
L 323.994293 158.5851 
L 339.433029 159.523357 
L 354.871764 159.375149 
L 370.310499 158.065543 
L 385.749234 162.719504 
L 401.187969 164.853675 
L 416.626705 155.7228 
" style="fill:none;stroke:#1b9e77;stroke-linecap:square;stroke-opacity:0.5;stroke-width:1.5;"/>
   </g>
   <g id="line2d_37">
    <path clip-path="url(#p30c052f779)" d="M 61.535795 150.978242 
L 76.974531 153.840464 
L 92.413266 163.042133 
L 107.852001 165.094295 
L 123.290736 165.377835 
L 138.729471 152.865292 
L 154.168207 163.569884 
L 169.606942 165.44266 
L 185.045677 164.957488 
L 200.484412 157.739539 
L 215.923147 141.24704 
L 231.361882 112.845713 
L 246.800618 128.549336 
L 262.239353 142.858177 
L 277.678088 156.415163 
L 293.116823 159.316895 
L 308.555558 165.050281 
L 323.994293 164.492205 
L 339.433029 160.092511 
L 354.871764 165.44615 
L 370.310499 164.493892 
L 385.749234 158.29746 
L 401.187969 158.30339 
L 416.626705 163.852501 
" style="fill:none;stroke:#1b9e77;stroke-linecap:square;stroke-opacity:0.5;stroke-width:1.5;"/>
   </g>
   <g id="line2d_38">
    <path clip-path="url(#p30c052f779)" d="M 61.535795 165.840091 
L 76.974531 165.937041 
L 92.413266 165.931881 
L 107.852001 165.74891 
L 123.290736 164.105536 
L 138.729471 91.11375 
L 154.168207 153.347848 
L 169.606942 154.281639 
L 185.045677 163.107861 
L 200.484412 164.563991 
L 215.923147 164.035825 
L 231.361882 152.695037 
L 246.800618 141.854684 
L 262.239353 150.836822 
L 277.678088 149.869221 
L 293.116823 146.70304 
L 308.555558 124.169093 
L 323.994293 165.682012 
L 339.433029 165.89679 
L 354.871764 165.89372 
L 370.310499 165.81928 
L 385.749234 165.873204 
L 401.187969 165.642948 
L 416.626705 165.218327 
" style="fill:none;stroke:#1b9e77;stroke-linecap:square;stroke-opacity:0.5;stroke-width:1.5;"/>
   </g>
   <g id="line2d_39">
    <path clip-path="url(#p30c052f779)" d="M 61.535795 165.511374 
L 76.974531 165.340904 
L 92.413266 162.76676 
L 107.852001 161.280174 
L 123.290736 123.026544 
L 138.729471 153.985845 
L 154.168207 161.704574 
L 169.606942 151.788325 
L 185.045677 75.014252 
L 200.484412 125.245607 
L 215.923147 161.269938 
L 231.361882 155.232441 
L 246.800618 162.65774 
L 262.239353 160.626542 
L 277.678088 165.706102 
L 293.116823 165.764301 
L 308.555558 165.79755 
L 323.994293 165.846249 
L 339.433029 165.886021 
L 354.871764 165.92562 
L 370.310499 165.94099 
L 385.749234 165.95801 
L 401.187969 165.96 
L 416.626705 165.932689 
" style="fill:none;stroke:#1b9e77;stroke-linecap:square;stroke-opacity:0.5;stroke-width:1.5;"/>
   </g>
   <g id="line2d_40">
    <path clip-path="url(#p30c052f779)" d="M 61.535795 151.319258 
L 76.974531 154.951248 
L 92.413266 113.147434 
L 107.852001 150.309052 
L 123.290736 136.267084 
L 138.729471 161.260509 
L 154.168207 165.657852 
L 169.606942 165.848039 
L 185.045677 165.925735 
L 200.484412 165.93007 
L 215.923147 165.938257 
L 231.361882 165.910408 
L 246.800618 165.45883 
L 262.239353 158.207058 
L 277.678088 162.941744 
L 293.116823 164.481002 
L 308.555558 162.716701 
L 323.994293 161.162154 
L 339.433029 160.712185 
L 354.871764 159.082077 
L 370.310499 138.721226 
L 385.749234 159.488955 
L 401.187969 129.636115 
L 416.626705 159.095562 
" style="fill:none;stroke:#1b9e77;stroke-linecap:square;stroke-opacity:0.5;stroke-width:1.5;"/>
   </g>
   <g id="line2d_41">
    <path clip-path="url(#p30c052f779)" d="M 61.535795 163.561698 
L 76.974531 65.614417 
L 92.413266 151.460518 
L 107.852001 154.274118 
L 123.290736 150.911048 
L 138.729471 80.747532 
L 154.168207 163.677776 
L 169.606942 164.148985 
L 185.045677 163.957366 
L 200.484412 164.951825 
L 215.923147 165.59516 
L 231.361882 165.650651 
L 246.800618 165.44177 
L 262.239353 165.546071 
L 277.678088 165.777603 
L 293.116823 165.850262 
L 308.555558 165.845281 
L 323.994293 165.791209 
L 339.433029 165.793695 
L 354.871764 165.880803 
L 370.310499 165.919545 
L 385.749234 165.935357 
L 401.187969 165.926051 
L 416.626705 165.90981 
" style="fill:none;stroke:#1b9e77;stroke-linecap:square;stroke-opacity:0.5;stroke-width:1.5;"/>
   </g>
   <g id="line2d_42">
    <path clip-path="url(#p30c052f779)" d="M 61.535795 154.917783 
L 76.974531 143.190518 
L 92.413266 122.323021 
L 107.852001 116.219153 
L 123.290736 150.211214 
L 138.729471 137.69819 
L 154.168207 163.404398 
L 169.606942 161.983772 
L 185.045677 164.57021 
L 200.484412 165.060467 
L 215.923147 164.876282 
L 231.361882 165.139875 
L 246.800618 164.164402 
L 262.239353 127.668122 
L 277.678088 154.956958 
L 293.116823 163.293801 
L 308.555558 164.767026 
L 323.994293 165.00338 
L 339.433029 165.548847 
L 354.871764 165.712488 
L 370.310499 165.758094 
L 385.749234 165.858497 
L 401.187969 165.892165 
L 416.626705 165.949886 
" style="fill:none;stroke:#1b9e77;stroke-linecap:square;stroke-opacity:0.5;stroke-width:1.5;"/>
   </g>
   <g id="line2d_43">
    <path clip-path="url(#p30c052f779)" d="M 61.535795 155.532195 
L 76.974531 149.263635 
L 92.413266 145.925192 
L 107.852001 156.424446 
L 123.290736 160.460802 
L 138.729471 163.647553 
L 154.168207 164.289626 
L 169.606942 163.465709 
L 185.045677 160.634409 
L 200.484412 161.484631 
L 215.923147 163.740448 
L 231.361882 164.456576 
L 246.800618 164.401483 
L 262.239353 164.107975 
L 277.678088 164.084108 
L 293.116823 164.949354 
L 308.555558 165.339821 
L 323.994293 165.205971 
L 339.433029 164.749032 
L 354.871764 164.790861 
L 370.310499 165.092233 
L 385.749234 164.906452 
L 401.187969 145.988368 
L 416.626705 41.227674 
" style="fill:none;stroke:#1b9e77;stroke-linecap:square;stroke-opacity:0.5;stroke-width:1.5;"/>
   </g>
   <g id="line2d_44">
    <path clip-path="url(#p30c052f779)" d="M 61.535795 165.438916 
L 76.974531 164.140329 
L 92.413266 164.249473 
L 107.852001 161.260768 
L 123.290736 133.195186 
L 138.729471 112.235816 
L 154.168207 153.283924 
L 169.606942 163.778193 
L 185.045677 161.050117 
L 200.484412 48.264714 
L 215.923147 165.222816 
L 231.361882 164.655043 
L 246.800618 164.596708 
L 262.239353 165.348107 
L 277.678088 165.711306 
L 293.116823 165.686826 
L 308.555558 165.470433 
L 323.994293 165.500474 
L 339.433029 165.736495 
L 354.871764 165.8411 
L 370.310499 165.875256 
L 385.749234 165.91019 
L 401.187969 165.919678 
L 416.626705 165.796695 
" style="fill:none;stroke:#1b9e77;stroke-linecap:square;stroke-opacity:0.5;stroke-width:1.5;"/>
   </g>
   <g id="line2d_45">
    <path clip-path="url(#p30c052f779)" d="M 61.535795 165.767286 
L 76.974531 165.312137 
L 92.413266 164.545428 
L 107.852001 160.610983 
L 123.290736 131.718832 
L 138.729471 106.773804 
L 154.168207 62.724703 
L 169.606942 152.177411 
L 185.045677 164.740215 
L 200.484412 165.548737 
L 215.923147 165.918123 
L 231.361882 165.600607 
L 246.800618 162.287059 
L 262.239353 155.901973 
L 277.678088 164.903982 
L 293.116823 164.686078 
L 308.555558 164.708959 
L 323.994293 165.192672 
L 339.433029 165.587487 
L 354.871764 165.79742 
L 370.310499 165.852572 
L 385.749234 165.924267 
L 401.187969 165.947677 
L 416.626705 165.940139 
" style="fill:none;stroke:#1b9e77;stroke-linecap:square;stroke-opacity:0.5;stroke-width:1.5;"/>
   </g>
   <g id="line2d_46">
    <path clip-path="url(#p30c052f779)" d="M 61.535795 165.885583 
L 76.974531 165.813915 
L 92.413266 165.892051 
L 107.852001 165.931725 
L 123.290736 165.937958 
L 138.729471 165.942578 
L 154.168207 165.94277 
L 169.606942 165.944735 
L 185.045677 165.797736 
L 200.484412 165.624478 
L 215.923147 162.653995 
L 231.361882 157.334492 
L 246.800618 149.29701 
L 262.239353 115.476516 
L 277.678088 150.361813 
L 293.116823 138.367265 
L 308.555558 120.03928 
L 323.994293 131.305996 
L 339.433029 145.662516 
L 354.871764 161.308473 
L 370.310499 163.538965 
L 385.749234 163.324261 
L 401.187969 162.652397 
L 416.626705 164.132045 
" style="fill:none;stroke:#1b9e77;stroke-linecap:square;stroke-opacity:0.5;stroke-width:1.5;"/>
   </g>
   <g id="line2d_47">
    <path clip-path="url(#p30c052f779)" d="M 61.535795 163.875813 
L 76.974531 146.136708 
L 92.413266 141.609271 
L 107.852001 113.596946 
L 123.290736 149.13654 
L 138.729471 146.16565 
L 154.168207 157.053809 
L 169.606942 163.272365 
L 185.045677 162.217536 
L 200.484412 156.767596 
L 215.923147 101.732193 
L 231.361882 163.576305 
L 246.800618 164.802226 
L 262.239353 164.07592 
L 277.678088 164.877808 
L 293.116823 165.190702 
L 308.555558 165.21481 
L 323.994293 165.203984 
L 339.433029 165.244456 
L 354.871764 165.747393 
L 370.310499 165.882195 
L 385.749234 165.806975 
L 401.187969 164.451695 
L 416.626705 162.52965 
" style="fill:none;stroke:#1b9e77;stroke-linecap:square;stroke-opacity:0.5;stroke-width:1.5;"/>
   </g>
   <g id="line2d_48">
    <path clip-path="url(#p30c052f779)" d="M 61.535795 159.790403 
L 76.974531 157.140088 
L 92.413266 157.43363 
L 107.852001 161.045064 
L 123.290736 162.456334 
L 138.729471 163.695169 
L 154.168207 164.346824 
L 169.606942 165.354382 
L 185.045677 165.759318 
L 200.484412 165.770313 
L 215.923147 165.537402 
L 231.361882 165.216169 
L 246.800618 164.424441 
L 262.239353 164.389372 
L 277.678088 135.741917 
L 293.116823 37.585669 
L 308.555558 149.136564 
L 323.994293 158.039919 
L 339.433029 161.945474 
L 354.871764 162.415823 
L 370.310499 164.006894 
L 385.749234 164.349477 
L 401.187969 163.281222 
L 416.626705 165.306681 
" style="fill:none;stroke:#1b9e77;stroke-linecap:square;stroke-opacity:0.5;stroke-width:1.5;"/>
   </g>
   <g id="line2d_49">
    <path clip-path="url(#p30c052f779)" d="M 61.535795 130.658327 
L 76.974531 118.315579 
L 92.413266 164.433391 
L 107.852001 137.15107 
L 123.290736 140.812003 
L 138.729471 165.079082 
L 154.168207 164.893323 
L 169.606942 162.461002 
L 185.045677 143.579309 
L 200.484412 165.015163 
L 215.923147 165.123629 
L 231.361882 164.54526 
L 246.800618 139.603144 
L 262.239353 160.674323 
L 277.678088 158.677246 
L 293.116823 156.891817 
L 308.555558 156.062624 
L 323.994293 158.040329 
L 339.433029 163.596385 
L 354.871764 165.811774 
L 370.310499 165.831883 
L 385.749234 165.504622 
L 401.187969 165.739434 
L 416.626705 165.667832 
" style="fill:none;stroke:#1b9e77;stroke-linecap:square;stroke-opacity:0.5;stroke-width:1.5;"/>
   </g>
   <g id="line2d_50">
    <path clip-path="url(#p30c052f779)" d="M 61.535795 165.82124 
L 76.974531 165.505495 
L 92.413266 165.583527 
L 107.852001 165.73805 
L 123.290736 165.741941 
L 138.729471 165.862539 
L 154.168207 165.846038 
L 169.606942 153.364217 
L 185.045677 151.19288 
L 200.484412 146.768915 
L 215.923147 142.282722 
L 231.361882 137.274911 
L 246.800618 156.731377 
L 262.239353 163.301984 
L 277.678088 163.418172 
L 293.116823 155.58552 
L 308.555558 159.936329 
L 323.994293 93.581998 
L 339.433029 139.323445 
L 354.871764 161.968957 
L 370.310499 163.989135 
L 385.749234 165.076448 
L 401.187969 164.994783 
L 416.626705 165.277926 
" style="fill:none;stroke:#1b9e77;stroke-linecap:square;stroke-opacity:0.5;stroke-width:1.5;"/>
   </g>
   <g id="line2d_51">
    <path clip-path="url(#p30c052f779)" d="M 61.535795 163.403062 
L 76.974531 161.373089 
L 92.413266 164.019522 
L 107.852001 164.283891 
L 123.290736 162.4212 
L 138.729471 162.572097 
L 154.168207 135.581759 
L 169.606942 71.634568 
L 185.045677 126.57244 
L 200.484412 146.723412 
L 215.923147 154.679816 
L 231.361882 158.599453 
L 246.800618 165.640165 
L 262.239353 165.603173 
L 277.678088 165.557654 
L 293.116823 165.568 
L 308.555558 165.561592 
L 323.994293 165.707586 
L 339.433029 165.795871 
L 354.871764 165.875063 
L 370.310499 165.895477 
L 385.749234 165.923714 
L 401.187969 164.903679 
L 416.626705 150.272279 
" style="fill:none;stroke:#1b9e77;stroke-linecap:square;stroke-opacity:0.5;stroke-width:1.5;"/>
   </g>
   <g id="line2d_52">
    <path clip-path="url(#p30c052f779)" d="M 61.535795 141.289424 
L 76.974531 103.883773 
L 92.413266 118.342108 
L 107.852001 127.994175 
L 123.290736 164.226279 
L 138.729471 165.16677 
L 154.168207 165.552088 
L 169.606942 165.727084 
L 185.045677 165.702179 
L 200.484412 165.738759 
L 215.923147 165.777678 
L 231.361882 165.85505 
L 246.800618 165.867358 
L 262.239353 165.749013 
L 277.678088 163.945512 
L 293.116823 161.865219 
L 308.555558 163.525038 
L 323.994293 159.093687 
L 339.433029 154.683387 
L 354.871764 157.092193 
L 370.310499 154.912588 
L 385.749234 157.417773 
L 401.187969 159.922006 
L 416.626705 164.839408 
" style="fill:none;stroke:#1b9e77;stroke-linecap:square;stroke-opacity:0.5;stroke-width:1.5;"/>
   </g>
   <g id="line2d_53">
    <path clip-path="url(#p30c052f779)" d="M 61.535795 164.384719 
L 76.974531 159.62249 
L 92.413266 147.004161 
L 107.852001 149.95539 
L 123.290736 161.580283 
L 138.729471 159.253324 
L 154.168207 156.318326 
L 169.606942 113.084026 
L 185.045677 154.992336 
L 200.484412 165.763143 
L 215.923147 165.782623 
L 231.361882 165.748097 
L 246.800618 165.397987 
L 262.239353 165.5646 
L 277.678088 165.91978 
L 293.116823 165.923033 
L 308.555558 165.814731 
L 323.994293 156.770937 
L 339.433029 156.470755 
L 354.871764 130.783798 
L 370.310499 135.697721 
L 385.749234 147.971851 
L 401.187969 160.21098 
L 416.626705 164.153458 
" style="fill:none;stroke:#1b9e77;stroke-linecap:square;stroke-opacity:0.5;stroke-width:1.5;"/>
   </g>
   <g id="line2d_54">
    <path clip-path="url(#p30c052f779)" d="M 61.535795 165.911511 
L 76.974531 165.77909 
L 92.413266 165.694239 
L 107.852001 165.862314 
L 123.290736 165.719104 
L 138.729471 160.486545 
L 154.168207 161.204016 
L 169.606942 154.998894 
L 185.045677 152.529952 
L 200.484412 156.033143 
L 215.923147 159.999629 
L 231.361882 164.41836 
L 246.800618 163.329845 
L 262.239353 138.916278 
L 277.678088 155.78318 
L 293.116823 163.433916 
L 308.555558 156.463914 
L 323.994293 146.568757 
L 339.433029 155.631341 
L 354.871764 159.207655 
L 370.310499 95.158519 
L 385.749234 144.660904 
L 401.187969 161.27824 
L 416.626705 165.099205 
" style="fill:none;stroke:#1b9e77;stroke-linecap:square;stroke-opacity:0.5;stroke-width:1.5;"/>
   </g>
   <g id="line2d_55">
    <path clip-path="url(#p30c052f779)" d="M 61.535795 165.147672 
L 76.974531 163.866997 
L 92.413266 164.742168 
L 107.852001 162.8114 
L 123.290736 152.11455 
L 138.729471 98.17638 
L 154.168207 143.756128 
L 169.606942 162.132993 
L 185.045677 165.165219 
L 200.484412 164.831243 
L 215.923147 164.444453 
L 231.361882 164.392924 
L 246.800618 150.575119 
L 262.239353 141.543876 
L 277.678088 122.388946 
L 293.116823 151.064502 
L 308.555558 157.829291 
L 323.994293 158.510798 
L 339.433029 163.682781 
L 354.871764 164.817036 
L 370.310499 164.709453 
L 385.749234 165.736478 
L 401.187969 165.808644 
L 416.626705 165.91951 
" style="fill:none;stroke:#1b9e77;stroke-linecap:square;stroke-opacity:0.5;stroke-width:1.5;"/>
   </g>
   <g id="line2d_56">
    <path clip-path="url(#p30c052f779)" d="M 61.535795 151.086639 
L 76.974531 147.246124 
L 92.413266 153.175778 
L 107.852001 160.432452 
L 123.290736 161.103888 
L 138.729471 163.538045 
L 154.168207 164.603749 
L 169.606942 164.921725 
L 185.045677 164.684156 
L 200.484412 164.400957 
L 215.923147 164.635598 
L 231.361882 165.551954 
L 246.800618 165.806272 
L 262.239353 165.622341 
L 277.678088 164.162023 
L 293.116823 161.869021 
L 308.555558 162.924129 
L 323.994293 164.443093 
L 339.433029 164.830794 
L 354.871764 163.658917 
L 370.310499 160.537622 
L 385.749234 164.606423 
L 401.187969 165.56686 
L 416.626705 14.76 
" style="fill:none;stroke:#1b9e77;stroke-linecap:square;stroke-opacity:0.5;stroke-width:1.5;"/>
   </g>
   <g id="line2d_57">
    <path clip-path="url(#p30c052f779)" d="M 61.535795 165.191704 
L 76.974531 147.161077 
L 92.413266 134.222939 
L 107.852001 159.207896 
L 123.290736 164.079974 
L 138.729471 165.343146 
L 154.168207 165.741346 
L 169.606942 165.888039 
L 185.045677 165.893881 
L 200.484412 165.920279 
L 215.923147 165.912044 
L 231.361882 165.872064 
L 246.800618 140.121087 
L 262.239353 113.218704 
L 277.678088 136.439896 
L 293.116823 142.527558 
L 308.555558 154.679956 
L 323.994293 156.12739 
L 339.433029 155.783829 
L 354.871764 155.865895 
L 370.310499 164.906313 
L 385.749234 163.95774 
L 401.187969 164.465158 
L 416.626705 165.640633 
" style="fill:none;stroke:#1b9e77;stroke-linecap:square;stroke-opacity:0.5;stroke-width:1.5;"/>
   </g>
   <g id="line2d_58">
    <path clip-path="url(#p30c052f779)" d="M 61.535795 165.898785 
L 76.974531 165.951047 
L 92.413266 165.949826 
L 107.852001 165.948802 
L 123.290736 165.86318 
L 138.729471 165.566337 
L 154.168207 164.113463 
L 169.606942 165.571719 
L 185.045677 165.13435 
L 200.484412 92.697994 
L 215.923147 91.984444 
L 231.361882 140.349593 
L 246.800618 157.407603 
L 262.239353 164.740974 
L 277.678088 137.445354 
L 293.116823 164.626106 
L 308.555558 165.0527 
L 323.994293 150.38454 
L 339.433029 160.429173 
L 354.871764 165.84819 
L 370.310499 165.913948 
L 385.749234 165.937136 
L 401.187969 165.424786 
L 416.626705 165.928496 
" style="fill:none;stroke:#1b9e77;stroke-linecap:square;stroke-opacity:0.5;stroke-width:1.5;"/>
   </g>
   <g id="line2d_59">
    <path clip-path="url(#p30c052f779)" d="M 61.535795 164.643014 
L 76.974531 163.509216 
L 92.413266 151.651221 
L 107.852001 143.314852 
L 123.290736 136.813676 
L 138.729471 141.096331 
L 154.168207 132.922879 
L 169.606942 132.467765 
L 185.045677 161.616844 
L 200.484412 126.677817 
L 215.923147 149.199267 
L 231.361882 162.062189 
L 246.800618 162.404449 
L 262.239353 165.232958 
L 277.678088 165.55146 
L 293.116823 165.535936 
L 308.555558 164.476557 
L 323.994293 164.370396 
L 339.433029 165.045565 
L 354.871764 165.418769 
L 370.310499 165.46736 
L 385.749234 165.049663 
L 401.187969 164.407557 
L 416.626705 165.232813 
" style="fill:none;stroke:#1b9e77;stroke-linecap:square;stroke-opacity:0.5;stroke-width:1.5;"/>
   </g>
   <g id="line2d_60">
    <path clip-path="url(#p30c052f779)" d="M 61.535795 165.310495 
L 76.974531 163.730516 
L 92.413266 162.542576 
L 107.852001 159.80649 
L 123.290736 157.235729 
L 138.729471 156.942102 
L 154.168207 157.648811 
L 169.606942 155.154234 
L 185.045677 160.770941 
L 200.484412 163.059094 
L 215.923147 165.375246 
L 231.361882 165.825172 
L 246.800618 165.85546 
L 262.239353 165.718307 
L 277.678088 164.63502 
L 293.116823 165.248882 
L 308.555558 164.201411 
L 323.994293 162.778277 
L 339.433029 161.427897 
L 354.871764 156.109212 
L 370.310499 137.298443 
L 385.749234 102.487415 
L 401.187969 113.472747 
L 416.626705 151.534075 
" style="fill:none;stroke:#1b9e77;stroke-linecap:square;stroke-opacity:0.5;stroke-width:1.5;"/>
   </g>
   <g id="line2d_61">
    <path clip-path="url(#p30c052f779)" d="M 61.535795 165.883106 
L 76.974531 165.528292 
L 92.413266 165.031706 
L 107.852001 165.012726 
L 123.290736 164.231859 
L 138.729471 165.384174 
L 154.168207 137.018582 
L 169.606942 149.752398 
L 185.045677 144.943409 
L 200.484412 127.057225 
L 215.923147 144.469998 
L 231.361882 164.714754 
L 246.800618 165.913994 
L 262.239353 165.097461 
L 277.678088 152.329542 
L 293.116823 165.50034 
L 308.555558 162.764849 
L 323.994293 112.438984 
L 339.433029 152.886826 
L 354.871764 165.432608 
L 370.310499 164.29927 
L 385.749234 164.620543 
L 401.187969 152.212105 
L 416.626705 161.6438 
" style="fill:none;stroke:#1b9e77;stroke-linecap:square;stroke-opacity:0.5;stroke-width:1.5;"/>
   </g>
   <g id="line2d_62">
    <path clip-path="url(#p30c052f779)" d="M 61.535795 165.932206 
L 76.974531 165.943691 
L 92.413266 165.478116 
L 107.852001 165.832929 
L 123.290736 165.311372 
L 138.729471 151.007531 
L 154.168207 144.978573 
L 169.606942 133.304693 
L 185.045677 78.132152 
L 200.484412 115.952956 
L 215.923147 165.11172 
L 231.361882 165.703812 
L 246.800618 165.166796 
L 262.239353 164.906399 
L 277.678088 165.755363 
L 293.116823 164.075457 
L 308.555558 165.143103 
L 323.994293 165.148566 
L 339.433029 165.53567 
L 354.871764 163.771985 
L 370.310499 164.09793 
L 385.749234 152.386399 
L 401.187969 159.865207 
L 416.626705 165.625927 
" style="fill:none;stroke:#1b9e77;stroke-linecap:square;stroke-opacity:0.5;stroke-width:1.5;"/>
   </g>
   <g id="line2d_63">
    <path clip-path="url(#p30c052f779)" d="M 61.535795 162.33156 
L 76.974531 139.282962 
L 92.413266 163.771832 
L 107.852001 161.893531 
L 123.290736 163.318689 
L 138.729471 163.165427 
L 154.168207 165.27134 
L 169.606942 165.498759 
L 185.045677 165.289412 
L 200.484412 165.545371 
L 215.923147 165.802584 
L 231.361882 165.866479 
L 246.800618 165.834599 
L 262.239353 165.872446 
L 277.678088 165.84337 
L 293.116823 64.323512 
L 308.555558 150.093085 
L 323.994293 146.167667 
L 339.433029 140.067871 
L 354.871764 149.327693 
L 370.310499 162.877441 
L 385.749234 165.520595 
L 401.187969 165.813299 
L 416.626705 155.389034 
" style="fill:none;stroke:#1b9e77;stroke-linecap:square;stroke-opacity:0.5;stroke-width:1.5;"/>
   </g>
   <g id="line2d_64">
    <path clip-path="url(#p30c052f779)" d="M 61.535795 165.204629 
L 76.974531 164.84549 
L 92.413266 164.994077 
L 107.852001 165.184785 
L 123.290736 165.1779 
L 138.729471 165.533822 
L 154.168207 165.764419 
L 169.606942 165.76663 
L 185.045677 165.629986 
L 200.484412 165.734317 
L 215.923147 165.866917 
L 231.361882 165.898473 
L 246.800618 165.901285 
L 262.239353 165.905272 
L 277.678088 165.912702 
L 293.116823 165.914615 
L 308.555558 163.773368 
L 323.994293 160.051399 
L 339.433029 151.326626 
L 354.871764 146.576225 
L 370.310499 57.166379 
L 385.749234 110.23015 
L 401.187969 145.359751 
L 416.626705 160.449332 
" style="fill:none;stroke:#1b9e77;stroke-linecap:square;stroke-opacity:0.5;stroke-width:1.5;"/>
   </g>
   <g id="line2d_65">
    <path clip-path="url(#p30c052f779)" d="M 61.535795 165.836649 
L 76.974531 165.681873 
L 92.413266 165.769334 
L 107.852001 165.880039 
L 123.290736 165.905529 
L 138.729471 165.929856 
L 154.168207 165.904708 
L 169.606942 165.424589 
L 185.045677 157.05699 
L 200.484412 152.2035 
L 215.923147 135.32885 
L 231.361882 121.109526 
L 246.800618 76.423533 
L 262.239353 150.573597 
L 277.678088 154.549003 
L 293.116823 157.949818 
L 308.555558 164.583763 
L 323.994293 158.575299 
L 339.433029 162.92828 
L 354.871764 164.776587 
L 370.310499 165.115415 
L 385.749234 165.434497 
L 401.187969 165.339411 
L 416.626705 165.887906 
" style="fill:none;stroke:#1b9e77;stroke-linecap:square;stroke-opacity:0.5;stroke-width:1.5;"/>
   </g>
   <g id="line2d_66">
    <path clip-path="url(#p30c052f779)" d="M 61.535795 165.696951 
L 76.974531 165.411193 
L 92.413266 165.554916 
L 107.852001 165.812235 
L 123.290736 165.879417 
L 138.729471 165.895889 
L 154.168207 165.868189 
L 169.606942 165.830316 
L 185.045677 165.789743 
L 200.484412 165.824978 
L 215.923147 165.843998 
L 231.361882 165.858048 
L 246.800618 165.826689 
L 262.239353 165.892012 
L 277.678088 159.783138 
L 293.116823 120.335878 
L 308.555558 154.378118 
L 323.994293 141.314813 
L 339.433029 149.050695 
L 354.871764 158.047974 
L 370.310499 156.282356 
L 385.749234 127.017828 
L 401.187969 91.910051 
L 416.626705 165.063129 
" style="fill:none;stroke:#1b9e77;stroke-linecap:square;stroke-opacity:0.5;stroke-width:1.5;"/>
   </g>
   <g id="line2d_67">
    <path clip-path="url(#p30c052f779)" d="M 61.535795 165.128058 
L 76.974531 164.630963 
L 92.413266 162.713002 
L 107.852001 160.123523 
L 123.290736 135.103967 
L 138.729471 155.236337 
L 154.168207 161.089597 
L 169.606942 164.997235 
L 185.045677 164.565748 
L 200.484412 155.298192 
L 215.923147 162.566055 
L 231.361882 143.83821 
L 246.800618 165.714842 
L 262.239353 165.401195 
L 277.678088 132.25496 
L 293.116823 128.351895 
L 308.555558 97.21437 
L 323.994293 165.793877 
L 339.433029 165.914478 
L 354.871764 165.763091 
L 370.310499 165.175825 
L 385.749234 165.787394 
L 401.187969 165.94317 
L 416.626705 165.562571 
" style="fill:none;stroke:#1b9e77;stroke-linecap:square;stroke-opacity:0.5;stroke-width:1.5;"/>
   </g>
   <g id="line2d_68">
    <path clip-path="url(#p30c052f779)" d="M 61.535795 165.824883 
L 76.974531 165.100366 
L 92.413266 164.662406 
L 107.852001 164.509042 
L 123.290736 161.060189 
L 138.729471 165.199818 
L 154.168207 161.107144 
L 169.606942 148.945426 
L 185.045677 163.329768 
L 200.484412 163.188179 
L 215.923147 161.148377 
L 231.361882 160.066938 
L 246.800618 162.359705 
L 262.239353 165.559381 
L 277.678088 165.87039 
L 293.116823 163.953628 
L 308.555558 102.258781 
L 323.994293 51.515106 
L 339.433029 163.741626 
L 354.871764 163.172294 
L 370.310499 165.599394 
L 385.749234 165.046448 
L 401.187969 165.131918 
L 416.626705 165.81734 
" style="fill:none;stroke:#1b9e77;stroke-linecap:square;stroke-opacity:0.5;stroke-width:1.5;"/>
   </g>
   <g id="line2d_69">
    <path clip-path="url(#p30c052f779)" d="M 61.535795 165.912738 
L 76.974531 165.868864 
L 92.413266 165.896445 
L 107.852001 165.929557 
L 123.290736 165.93851 
L 138.729471 165.948911 
L 154.168207 165.952895 
L 169.606942 165.954293 
L 185.045677 165.953178 
L 200.484412 165.954988 
L 215.923147 165.955534 
L 231.361882 165.947615 
L 246.800618 165.933262 
L 262.239353 165.724699 
L 277.678088 164.238904 
L 293.116823 147.70042 
L 308.555558 164.730799 
L 323.994293 161.49058 
L 339.433029 130.66053 
L 354.871764 141.612864 
L 370.310499 63.016463 
L 385.749234 147.340931 
L 401.187969 145.192111 
L 416.626705 155.313461 
" style="fill:none;stroke:#1b9e77;stroke-linecap:square;stroke-opacity:0.5;stroke-width:1.5;"/>
   </g>
   <g id="line2d_70">
    <path clip-path="url(#p30c052f779)" d="M 61.535795 165.927529 
L 76.974531 165.886042 
L 92.413266 165.912122 
L 107.852001 165.9358 
L 123.290736 165.926387 
L 138.729471 165.93187 
L 154.168207 165.706119 
L 169.606942 164.783853 
L 185.045677 164.926835 
L 200.484412 165.25816 
L 215.923147 165.618964 
L 231.361882 165.059858 
L 246.800618 159.976984 
L 262.239353 157.797505 
L 277.678088 156.584737 
L 293.116823 147.564208 
L 308.555558 45.929819 
L 323.994293 139.956809 
L 339.433029 134.908912 
L 354.871764 154.111121 
L 370.310499 165.223956 
L 385.749234 164.758546 
L 401.187969 164.705233 
L 416.626705 165.77719 
" style="fill:none;stroke:#1b9e77;stroke-linecap:square;stroke-opacity:0.5;stroke-width:1.5;"/>
   </g>
   <g id="line2d_71">
    <path clip-path="url(#p30c052f779)" d="M 61.535795 138.698297 
L 76.974531 95.169815 
L 92.413266 143.182296 
L 107.852001 156.555307 
L 123.290736 162.38903 
L 138.729471 163.767701 
L 154.168207 164.747077 
L 169.606942 165.270553 
L 185.045677 165.321845 
L 200.484412 165.516707 
L 215.923147 165.661604 
L 231.361882 165.866871 
L 246.800618 165.923982 
L 262.239353 165.951364 
L 277.678088 165.785735 
L 293.116823 117.031252 
L 308.555558 154.599647 
L 323.994293 159.944406 
L 339.433029 165.461186 
L 354.871764 165.721052 
L 370.310499 160.761431 
L 385.749234 161.501365 
L 401.187969 158.905655 
L 416.626705 150.434375 
" style="fill:none;stroke:#1b9e77;stroke-linecap:square;stroke-opacity:0.5;stroke-width:1.5;"/>
   </g>
   <g id="line2d_72">
    <path clip-path="url(#p30c052f779)" d="M 61.535795 165.886928 
L 76.974531 165.812708 
L 92.413266 165.844535 
L 107.852001 165.915005 
L 123.290736 165.918819 
L 138.729471 165.826416 
L 154.168207 163.911159 
L 169.606942 157.759718 
L 185.045677 145.370659 
L 200.484412 136.432038 
L 215.923147 142.333469 
L 231.361882 88.964839 
L 246.800618 136.129082 
L 262.239353 156.708596 
L 277.678088 157.119407 
L 293.116823 143.475756 
L 308.555558 160.197367 
L 323.994293 165.490158 
L 339.433029 165.619559 
L 354.871764 165.846503 
L 370.310499 165.915457 
L 385.749234 165.921348 
L 401.187969 165.903813 
L 416.626705 165.865212 
" style="fill:none;stroke:#1b9e77;stroke-linecap:square;stroke-opacity:0.5;stroke-width:1.5;"/>
   </g>
   <g id="line2d_73">
    <path clip-path="url(#p30c052f779)" d="M 61.535795 165.521847 
L 76.974531 165.905332 
L 92.413266 165.654053 
L 107.852001 164.020225 
L 123.290736 130.573686 
L 138.729471 83.214091 
L 154.168207 163.935193 
L 169.606942 162.388637 
L 185.045677 146.051333 
L 200.484412 135.639102 
L 215.923147 146.184116 
L 231.361882 165.379011 
L 246.800618 165.784102 
L 262.239353 165.198503 
L 277.678088 165.053612 
L 293.116823 164.661521 
L 308.555558 163.718486 
L 323.994293 159.668409 
L 339.433029 160.200597 
L 354.871764 163.926873 
L 370.310499 161.89274 
L 385.749234 157.041036 
L 401.187969 159.578373 
L 416.626705 162.977679 
" style="fill:none;stroke:#1b9e77;stroke-linecap:square;stroke-opacity:0.5;stroke-width:1.5;"/>
   </g>
   <g id="line2d_74">
    <path clip-path="url(#p30c052f779)" d="M 61.535795 140.096005 
L 76.974531 64.713987 
L 92.413266 109.265995 
L 107.852001 144.516213 
L 123.290736 153.686011 
L 138.729471 160.957421 
L 154.168207 163.518852 
L 169.606942 164.351551 
L 185.045677 164.388005 
L 200.484412 165.345637 
L 215.923147 165.680437 
L 231.361882 165.640398 
L 246.800618 165.39422 
L 262.239353 165.392494 
L 277.678088 165.649606 
L 293.116823 165.645649 
L 308.555558 165.631267 
L 323.994293 165.390924 
L 339.433029 165.184111 
L 354.871764 165.53536 
L 370.310499 165.685481 
L 385.749234 165.783015 
L 401.187969 165.660231 
L 416.626705 161.055679 
" style="fill:none;stroke:#1b9e77;stroke-linecap:square;stroke-opacity:0.5;stroke-width:1.5;"/>
   </g>
   <g id="line2d_75">
    <path clip-path="url(#p30c052f779)" d="M 61.535795 145.056279 
L 76.974531 139.19365 
L 92.413266 146.174408 
L 107.852001 158.519214 
L 123.290736 161.797544 
L 138.729471 163.519419 
L 154.168207 163.946816 
L 169.606942 165.112059 
L 185.045677 165.599808 
L 200.484412 165.791421 
L 215.923147 164.528323 
L 231.361882 125.041143 
L 246.800618 135.217736 
L 262.239353 134.363033 
L 277.678088 154.296671 
L 293.116823 159.570517 
L 308.555558 162.093912 
L 323.994293 157.558278 
L 339.433029 157.660131 
L 354.871764 161.067638 
L 370.310499 163.095452 
L 385.749234 165.439853 
L 401.187969 165.716873 
L 416.626705 163.808375 
" style="fill:none;stroke:#1b9e77;stroke-linecap:square;stroke-opacity:0.5;stroke-width:1.5;"/>
   </g>
   <g id="line2d_76">
    <path clip-path="url(#p30c052f779)" d="M 61.535795 165.954751 
L 76.974531 165.945323 
L 92.413266 165.939777 
L 107.852001 165.913549 
L 123.290736 165.849012 
L 138.729471 165.879897 
L 154.168207 165.925131 
L 169.606942 165.890882 
L 185.045677 165.904601 
L 200.484412 165.888744 
L 215.923147 165.911585 
L 231.361882 165.829037 
L 246.800618 164.268585 
L 262.239353 163.740514 
L 277.678088 159.341513 
L 293.116823 137.63932 
L 308.555558 161.574497 
L 323.994293 164.18138 
L 339.433029 162.031115 
L 354.871764 162.281704 
L 370.310499 146.598485 
L 385.749234 32.384244 
L 401.187969 142.58246 
L 416.626705 156.712441 
" style="fill:none;stroke:#1b9e77;stroke-linecap:square;stroke-opacity:0.5;stroke-width:1.5;"/>
   </g>
   <g id="line2d_77">
    <path clip-path="url(#p30c052f779)" d="M 61.535795 165.295674 
L 76.974531 165.826884 
L 92.413266 165.909529 
L 107.852001 165.918052 
L 123.290736 165.166893 
L 138.729471 148.560063 
L 154.168207 163.217753 
L 169.606942 164.181263 
L 185.045677 162.768601 
L 200.484412 161.042512 
L 215.923147 162.955286 
L 231.361882 164.342677 
L 246.800618 164.787802 
L 262.239353 165.440088 
L 277.678088 165.144484 
L 293.116823 165.573588 
L 308.555558 115.584037 
L 323.994293 112.65431 
L 339.433029 112.791704 
L 354.871764 147.122206 
L 370.310499 157.708543 
L 385.749234 158.720388 
L 401.187969 160.59665 
L 416.626705 162.859563 
" style="fill:none;stroke:#1b9e77;stroke-linecap:square;stroke-opacity:0.5;stroke-width:1.5;"/>
   </g>
   <g id="line2d_78">
    <path clip-path="url(#p30c052f779)" d="M 61.535795 165.760862 
L 76.974531 163.769785 
L 92.413266 155.518815 
L 107.852001 147.520084 
L 123.290736 153.745537 
L 138.729471 158.270085 
L 154.168207 156.169774 
L 169.606942 158.343967 
L 185.045677 157.077887 
L 200.484412 138.53806 
L 215.923147 149.115245 
L 231.361882 157.447336 
L 246.800618 155.218883 
L 262.239353 124.470297 
L 277.678088 116.877346 
L 293.116823 161.950254 
L 308.555558 164.772483 
L 323.994293 164.890824 
L 339.433029 165.423171 
L 354.871764 165.742735 
L 370.310499 165.820504 
L 385.749234 165.893414 
L 401.187969 165.905513 
L 416.626705 165.925695 
" style="fill:none;stroke:#1b9e77;stroke-linecap:square;stroke-opacity:0.5;stroke-width:1.5;"/>
   </g>
   <g id="line2d_79">
    <path clip-path="url(#p30c052f779)" d="M 61.535795 165.884105 
L 76.974531 165.853478 
L 92.413266 165.887266 
L 107.852001 165.930946 
L 123.290736 165.938364 
L 138.729471 165.947363 
L 154.168207 163.779192 
L 169.606942 152.334614 
L 185.045677 158.214507 
L 200.484412 155.920147 
L 215.923147 150.921992 
L 231.361882 151.567785 
L 246.800618 154.256907 
L 262.239353 160.591422 
L 277.678088 164.121603 
L 293.116823 157.670986 
L 308.555558 162.520572 
L 323.994293 162.601925 
L 339.433029 157.943661 
L 354.871764 120.216271 
L 370.310499 132.642073 
L 385.749234 135.450626 
L 401.187969 145.96462 
L 416.626705 162.008128 
" style="fill:none;stroke:#1b9e77;stroke-linecap:square;stroke-opacity:0.5;stroke-width:1.5;"/>
   </g>
   <g id="line2d_80">
    <path clip-path="url(#p30c052f779)" d="M 61.535795 164.869687 
L 76.974531 160.016343 
L 92.413266 158.799405 
L 107.852001 159.688865 
L 123.290736 163.203661 
L 138.729471 164.469615 
L 154.168207 164.976491 
L 169.606942 165.384794 
L 185.045677 165.503106 
L 200.484412 165.5793 
L 215.923147 165.635058 
L 231.361882 165.739987 
L 246.800618 165.780576 
L 262.239353 165.921931 
L 277.678088 162.479992 
L 293.116823 137.026657 
L 308.555558 118.567874 
L 323.994293 150.208007 
L 339.433029 113.034176 
L 354.871764 105.590179 
L 370.310499 165.548748 
L 385.749234 165.177944 
L 401.187969 165.123939 
L 416.626705 165.842218 
" style="fill:none;stroke:#1b9e77;stroke-linecap:square;stroke-opacity:0.5;stroke-width:1.5;"/>
   </g>
   <g id="line2d_81">
    <path clip-path="url(#p30c052f779)" d="M 61.535795 165.604343 
L 76.974531 165.175272 
L 92.413266 165.384877 
L 107.852001 165.598706 
L 123.290736 165.653627 
L 138.729471 165.782867 
L 154.168207 165.854751 
L 169.606942 165.89649 
L 185.045677 165.900617 
L 200.484412 165.898473 
L 215.923147 165.897313 
L 231.361882 165.915261 
L 246.800618 165.925095 
L 262.239353 165.933745 
L 277.678088 165.934578 
L 293.116823 165.941102 
L 308.555558 165.925322 
L 323.994293 165.409727 
L 339.433029 146.886329 
L 354.871764 120.430369 
L 370.310499 108.265705 
L 385.749234 110.614264 
L 401.187969 119.771566 
L 416.626705 154.568154 
" style="fill:none;stroke:#1b9e77;stroke-linecap:square;stroke-opacity:0.5;stroke-width:1.5;"/>
   </g>
   <g id="line2d_82">
    <path clip-path="url(#p30c052f779)" d="M 61.535795 165.828859 
L 76.974531 165.702379 
L 92.413266 165.763149 
L 107.852001 165.76917 
L 123.290736 165.455816 
L 138.729471 164.757363 
L 154.168207 159.610678 
L 169.606942 142.545384 
L 185.045677 123.282104 
L 200.484412 94.933422 
L 215.923147 121.444458 
L 231.361882 142.803385 
L 246.800618 159.76119 
L 262.239353 150.476289 
L 277.678088 164.607059 
L 293.116823 165.375768 
L 308.555558 165.293733 
L 323.994293 165.522576 
L 339.433029 165.743575 
L 354.871764 165.856325 
L 370.310499 165.877524 
L 385.749234 165.925979 
L 401.187969 165.94043 
L 416.626705 165.891951 
" style="fill:none;stroke:#1b9e77;stroke-linecap:square;stroke-opacity:0.5;stroke-width:1.5;"/>
   </g>
   <g id="line2d_83">
    <path clip-path="url(#p30c052f779)" d="M 61.535795 165.860006 
L 76.974531 165.754062 
L 92.413266 165.805537 
L 107.852001 165.876989 
L 123.290736 165.892657 
L 138.729471 165.92963 
L 154.168207 165.94642 
L 169.606942 165.951437 
L 185.045677 165.950271 
L 200.484412 165.951857 
L 215.923147 165.94927 
L 231.361882 165.911996 
L 246.800618 165.711246 
L 262.239353 165.621566 
L 277.678088 165.214024 
L 293.116823 160.187937 
L 308.555558 138.559013 
L 323.994293 139.509173 
L 339.433029 135.709513 
L 354.871764 126.318905 
L 370.310499 103.559775 
L 385.749234 140.480914 
L 401.187969 156.155494 
L 416.626705 156.360863 
" style="fill:none;stroke:#1b9e77;stroke-linecap:square;stroke-opacity:0.5;stroke-width:1.5;"/>
   </g>
   <g id="line2d_84">
    <path clip-path="url(#p30c052f779)" d="M 61.535795 162.839009 
L 76.974531 119.855852 
L 92.413266 144.879313 
L 107.852001 77.484383 
L 123.290736 150.020114 
L 138.729471 165.609769 
L 154.168207 165.711208 
L 169.606942 165.753137 
L 185.045677 165.748347 
L 200.484412 165.793554 
L 215.923147 165.729867 
L 231.361882 165.852236 
L 246.800618 163.293279 
L 262.239353 156.171003 
L 277.678088 152.936324 
L 293.116823 155.498369 
L 308.555558 151.421152 
L 323.994293 156.154614 
L 339.433029 163.95641 
L 354.871764 165.777566 
L 370.310499 165.910015 
L 385.749234 165.906201 
L 401.187969 165.916875 
L 416.626705 165.949953 
" style="fill:none;stroke:#1b9e77;stroke-linecap:square;stroke-opacity:0.5;stroke-width:1.5;"/>
   </g>
   <g id="line2d_85">
    <path clip-path="url(#p30c052f779)" d="M 61.535795 165.92551 
L 76.974531 165.863518 
L 92.413266 162.980745 
L 107.852001 157.375595 
L 123.290736 159.893351 
L 138.729471 161.72683 
L 154.168207 163.78218 
L 169.606942 165.339786 
L 185.045677 165.877319 
L 200.484412 165.776312 
L 215.923147 165.735031 
L 231.361882 165.771007 
L 246.800618 161.773603 
L 262.239353 142.750914 
L 277.678088 136.83925 
L 293.116823 128.044019 
L 308.555558 100.973268 
L 323.994293 145.53452 
L 339.433029 157.552233 
L 354.871764 160.78225 
L 370.310499 162.019389 
L 385.749234 158.987779 
L 401.187969 159.458446 
L 416.626705 163.405688 
" style="fill:none;stroke:#1b9e77;stroke-linecap:square;stroke-opacity:0.5;stroke-width:1.5;"/>
   </g>
   <g id="line2d_86">
    <path clip-path="url(#p30c052f779)" d="M 61.535795 165.863253 
L 76.974531 165.661987 
L 92.413266 165.673475 
L 107.852001 165.835749 
L 123.290736 165.885452 
L 138.729471 165.918414 
L 154.168207 165.926634 
L 169.606942 165.919718 
L 185.045677 165.896033 
L 200.484412 165.910053 
L 215.923147 165.794593 
L 231.361882 164.995833 
L 246.800618 162.46942 
L 262.239353 163.652344 
L 277.678088 138.936452 
L 293.116823 130.714639 
L 308.555558 157.324917 
L 323.994293 143.38438 
L 339.433029 124.592373 
L 354.871764 135.400175 
L 370.310499 140.64573 
L 385.749234 147.499027 
L 401.187969 145.508135 
L 416.626705 164.759765 
" style="fill:none;stroke:#1b9e77;stroke-linecap:square;stroke-opacity:0.5;stroke-width:1.5;"/>
   </g>
   <g id="line2d_87">
    <path clip-path="url(#p30c052f779)" d="M 61.535795 165.692277 
L 76.974531 165.131988 
L 92.413266 160.775354 
L 107.852001 145.775392 
L 123.290736 58.141168 
L 138.729471 137.074086 
L 154.168207 162.079277 
L 169.606942 150.778615 
L 185.045677 144.134377 
L 200.484412 133.924042 
L 215.923147 164.622819 
L 231.361882 165.546754 
L 246.800618 165.729498 
L 262.239353 165.663347 
L 277.678088 165.800216 
L 293.116823 165.893182 
L 308.555558 165.917249 
L 323.994293 165.936527 
L 339.433029 165.943039 
L 354.871764 165.947561 
L 370.310499 165.94972 
L 385.749234 165.956255 
L 401.187969 165.953681 
L 416.626705 165.802135 
" style="fill:none;stroke:#1b9e77;stroke-linecap:square;stroke-opacity:0.5;stroke-width:1.5;"/>
   </g>
   <g id="line2d_88">
    <path clip-path="url(#p30c052f779)" d="M 61.535795 165.309766 
L 76.974531 164.197801 
L 92.413266 164.708197 
L 107.852001 165.081583 
L 123.290736 165.115584 
L 138.729471 165.344874 
L 154.168207 165.569339 
L 169.606942 165.796213 
L 185.045677 165.863395 
L 200.484412 165.864237 
L 215.923147 165.814944 
L 231.361882 165.900879 
L 246.800618 165.896594 
L 262.239353 165.506902 
L 277.678088 165.636093 
L 293.116823 165.72085 
L 308.555558 165.536524 
L 323.994293 160.877842 
L 339.433029 103.166368 
L 354.871764 87.273369 
L 370.310499 140.923628 
L 385.749234 147.749996 
L 401.187969 141.423969 
L 416.626705 149.889603 
" style="fill:none;stroke:#1b9e77;stroke-linecap:square;stroke-opacity:0.5;stroke-width:1.5;"/>
   </g>
   <g id="line2d_89">
    <path clip-path="url(#p30c052f779)" d="M 61.535795 165.85394 
L 76.974531 165.728659 
L 92.413266 165.753598 
L 107.852001 165.861571 
L 123.290736 165.89798 
L 138.729471 165.945614 
L 154.168207 165.942593 
L 169.606942 165.444257 
L 185.045677 159.081692 
L 200.484412 144.322012 
L 215.923147 144.001594 
L 231.361882 148.788078 
L 246.800618 118.450863 
L 262.239353 132.596402 
L 277.678088 111.281456 
L 293.116823 163.237569 
L 308.555558 165.838786 
L 323.994293 165.911171 
L 339.433029 165.669203 
L 354.871764 165.291767 
L 370.310499 151.214186 
L 385.749234 164.866082 
L 401.187969 156.422655 
L 416.626705 160.766823 
" style="fill:none;stroke:#1b9e77;stroke-linecap:square;stroke-opacity:0.5;stroke-width:1.5;"/>
   </g>
   <g id="line2d_90">
    <path clip-path="url(#p30c052f779)" d="M 61.535795 165.92843 
L 76.974531 165.889545 
L 92.413266 164.534053 
L 107.852001 154.355342 
L 123.290736 159.319302 
L 138.729471 165.1603 
L 154.168207 161.536403 
L 169.606942 155.852104 
L 185.045677 156.293263 
L 200.484412 146.464099 
L 215.923147 158.436711 
L 231.361882 151.774431 
L 246.800618 117.720829 
L 262.239353 136.713858 
L 277.678088 152.068049 
L 293.116823 148.321095 
L 308.555558 141.391536 
L 323.994293 161.893411 
L 339.433029 165.038747 
L 354.871764 163.297709 
L 370.310499 157.862781 
L 385.749234 164.244081 
L 401.187969 165.178124 
L 416.626705 164.894348 
" style="fill:none;stroke:#1b9e77;stroke-linecap:square;stroke-opacity:0.5;stroke-width:1.5;"/>
   </g>
   <g id="line2d_91">
    <path clip-path="url(#p30c052f779)" d="M 61.535795 165.936806 
L 76.974531 165.877586 
L 92.413266 163.30308 
L 107.852001 139.073481 
L 123.290736 114.127581 
L 138.729471 103.045593 
L 154.168207 117.208237 
L 169.606942 149.337616 
L 185.045677 159.443091 
L 200.484412 160.223511 
L 215.923147 164.842459 
L 231.361882 162.170284 
L 246.800618 164.786641 
L 262.239353 160.917662 
L 277.678088 163.792711 
L 293.116823 164.817127 
L 308.555558 164.980396 
L 323.994293 165.354927 
L 339.433029 165.622431 
L 354.871764 165.832564 
L 370.310499 165.899836 
L 385.749234 165.946247 
L 401.187969 165.952242 
L 416.626705 165.67644 
" style="fill:none;stroke:#1b9e77;stroke-linecap:square;stroke-opacity:0.5;stroke-width:1.5;"/>
   </g>
   <g id="line2d_92">
    <path clip-path="url(#p30c052f779)" d="M 61.535795 165.877009 
L 76.974531 165.814762 
L 92.413266 165.558676 
L 107.852001 163.806531 
L 123.290736 165.125443 
L 138.729471 165.107399 
L 154.168207 161.945628 
L 169.606942 156.958436 
L 185.045677 165.612255 
L 200.484412 165.76666 
L 215.923147 165.593803 
L 231.361882 165.729974 
L 246.800618 165.825685 
L 262.239353 165.859348 
L 277.678088 165.912082 
L 293.116823 165.886196 
L 308.555558 165.828872 
L 323.994293 163.222427 
L 339.433029 155.171282 
L 354.871764 119.276328 
L 370.310499 72.192008 
L 385.749234 124.092983 
L 401.187969 145.099066 
L 416.626705 162.905688 
" style="fill:none;stroke:#1b9e77;stroke-linecap:square;stroke-opacity:0.5;stroke-width:1.5;"/>
   </g>
   <g id="line2d_93">
    <path clip-path="url(#p30c052f779)" d="M 61.535795 163.191441 
L 76.974531 154.875352 
L 92.413266 160.504096 
L 107.852001 163.624486 
L 123.290736 164.847703 
L 138.729471 165.211505 
L 154.168207 165.42877 
L 169.606942 165.592499 
L 185.045677 165.578693 
L 200.484412 165.70553 
L 215.923147 165.789288 
L 231.361882 165.772948 
L 246.800618 165.681348 
L 262.239353 165.846402 
L 277.678088 165.911765 
L 293.116823 161.113723 
L 308.555558 157.915347 
L 323.994293 159.635686 
L 339.433029 147.102644 
L 354.871764 116.045065 
L 370.310499 126.692864 
L 385.749234 112.318895 
L 401.187969 136.418822 
L 416.626705 163.363685 
" style="fill:none;stroke:#1b9e77;stroke-linecap:square;stroke-opacity:0.5;stroke-width:1.5;"/>
   </g>
   <g id="line2d_94">
    <path clip-path="url(#p30c052f779)" d="M 61.535795 165.197674 
L 76.974531 165.787899 
L 92.413266 165.773232 
L 107.852001 165.879184 
L 123.290736 165.886068 
L 138.729471 165.898764 
L 154.168207 165.901535 
L 169.606942 165.886583 
L 185.045677 165.775644 
L 200.484412 162.758725 
L 215.923147 146.238809 
L 231.361882 110.249631 
L 246.800618 97.96813 
L 262.239353 162.856409 
L 277.678088 153.811595 
L 293.116823 158.669737 
L 308.555558 164.812249 
L 323.994293 163.439212 
L 339.433029 161.571276 
L 354.871764 164.517207 
L 370.310499 122.774084 
L 385.749234 156.988468 
L 401.187969 160.621222 
L 416.626705 164.905214 
" style="fill:none;stroke:#1b9e77;stroke-linecap:square;stroke-opacity:0.5;stroke-width:1.5;"/>
   </g>
   <g id="line2d_95">
    <path clip-path="url(#p30c052f779)" d="M 61.535795 164.935623 
L 76.974531 150.130108 
L 92.413266 144.621433 
L 107.852001 144.289004 
L 123.290736 159.719458 
L 138.729471 163.907021 
L 154.168207 164.284307 
L 169.606942 164.308341 
L 185.045677 158.92812 
L 200.484412 87.651301 
L 215.923147 144.749813 
L 231.361882 150.42429 
L 246.800618 144.673185 
L 262.239353 158.037972 
L 277.678088 160.23552 
L 293.116823 160.037193 
L 308.555558 163.035737 
L 323.994293 165.354853 
L 339.433029 165.615059 
L 354.871764 165.807694 
L 370.310499 165.858627 
L 385.749234 165.921326 
L 401.187969 165.859649 
L 416.626705 165.782917 
" style="fill:none;stroke:#1b9e77;stroke-linecap:square;stroke-opacity:0.5;stroke-width:1.5;"/>
   </g>
   <g id="line2d_96">
    <path clip-path="url(#p30c052f779)" d="M 61.535795 165.701622 
L 76.974531 165.237009 
L 92.413266 162.822038 
L 107.852001 147.793934 
L 123.290736 137.471424 
L 138.729471 142.100021 
L 154.168207 138.40387 
L 169.606942 150.464614 
L 185.045677 159.020233 
L 200.484412 161.635347 
L 215.923147 165.081069 
L 231.361882 164.292337 
L 246.800618 108.536643 
L 262.239353 162.334421 
L 277.678088 165.548463 
L 293.116823 161.972464 
L 308.555558 162.67382 
L 323.994293 144.080473 
L 339.433029 157.296068 
L 354.871764 163.055427 
L 370.310499 163.803742 
L 385.749234 164.522795 
L 401.187969 164.609359 
L 416.626705 165.711357 
" style="fill:none;stroke:#1b9e77;stroke-linecap:square;stroke-opacity:0.5;stroke-width:1.5;"/>
   </g>
   <g id="line2d_97">
    <path clip-path="url(#p30c052f779)" d="M 61.535795 165.903824 
L 76.974531 165.84035 
L 92.413266 165.874406 
L 107.852001 165.943837 
L 123.290736 165.950022 
L 138.729471 165.918707 
L 154.168207 165.871159 
L 169.606942 165.936409 
L 185.045677 165.929291 
L 200.484412 165.881428 
L 215.923147 165.046701 
L 231.361882 162.062243 
L 246.800618 163.926062 
L 262.239353 162.399552 
L 277.678088 127.201826 
L 293.116823 110.432498 
L 308.555558 155.00649 
L 323.994293 146.71448 
L 339.433029 143.927057 
L 354.871764 150.484193 
L 370.310499 153.153063 
L 385.749234 147.074055 
L 401.187969 132.789736 
L 416.626705 164.901159 
" style="fill:none;stroke:#1b9e77;stroke-linecap:square;stroke-opacity:0.5;stroke-width:1.5;"/>
   </g>
   <g id="line2d_98">
    <path clip-path="url(#p30c052f779)" d="M 61.535795 165.807092 
L 76.974531 165.795701 
L 92.413266 165.858747 
L 107.852001 165.866 
L 123.290736 164.749734 
L 138.729471 154.720063 
L 154.168207 40.043518 
L 169.606942 111.693461 
L 185.045677 148.976371 
L 200.484412 153.633041 
L 215.923147 159.203659 
L 231.361882 163.908165 
L 246.800618 165.078921 
L 262.239353 163.168239 
L 277.678088 164.63557 
L 293.116823 165.164775 
L 308.555558 165.279221 
L 323.994293 165.520794 
L 339.433029 165.682218 
L 354.871764 165.811582 
L 370.310499 165.871164 
L 385.749234 165.939431 
L 401.187969 165.951202 
L 416.626705 165.80989 
" style="fill:none;stroke:#1b9e77;stroke-linecap:square;stroke-opacity:0.5;stroke-width:1.5;"/>
   </g>
   <g id="line2d_99">
    <path clip-path="url(#p30c052f779)" d="M 61.535795 165.877759 
L 76.974531 165.815844 
L 92.413266 165.855366 
L 107.852001 165.920131 
L 123.290736 165.936659 
L 138.729471 165.949219 
L 154.168207 165.945125 
L 169.606942 165.929961 
L 185.045677 165.879428 
L 200.484412 164.81941 
L 215.923147 144.00855 
L 231.361882 131.913894 
L 246.800618 58.333323 
L 262.239353 157.316346 
L 277.678088 159.069152 
L 293.116823 123.579756 
L 308.555558 159.825112 
L 323.994293 159.680953 
L 339.433029 165.131747 
L 354.871764 165.164316 
L 370.310499 165.411124 
L 385.749234 165.876687 
L 401.187969 165.895296 
L 416.626705 165.033387 
" style="fill:none;stroke:#1b9e77;stroke-linecap:square;stroke-opacity:0.5;stroke-width:1.5;"/>
   </g>
   <g id="line2d_100">
    <path clip-path="url(#p30c052f779)" d="M 61.535795 165.871366 
L 76.974531 165.652795 
L 92.413266 165.617331 
L 107.852001 165.661314 
L 123.290736 165.458399 
L 138.729471 165.365169 
L 154.168207 151.767471 
L 169.606942 121.952099 
L 185.045677 111.066903 
L 200.484412 105.509876 
L 215.923147 146.281031 
L 231.361882 144.763546 
L 246.800618 148.719404 
L 262.239353 165.329325 
L 277.678088 164.917622 
L 293.116823 164.990423 
L 308.555558 164.983173 
L 323.994293 165.307185 
L 339.433029 165.568546 
L 354.871764 165.760462 
L 370.310499 165.832366 
L 385.749234 165.92738 
L 401.187969 165.949864 
L 416.626705 165.9155 
" style="fill:none;stroke:#1b9e77;stroke-linecap:square;stroke-opacity:0.5;stroke-width:1.5;"/>
   </g>
   <g id="line2d_101">
    <path clip-path="url(#p30c052f779)" d="M 61.535795 165.541029 
L 76.974531 164.583261 
L 92.413266 163.009967 
L 107.852001 165.455592 
L 123.290736 164.787156 
L 138.729471 158.546101 
L 154.168207 162.657875 
L 169.606942 164.803118 
L 185.045677 165.522583 
L 200.484412 165.650361 
L 215.923147 164.689555 
L 231.361882 136.925511 
L 246.800618 151.251645 
L 262.239353 164.565965 
L 277.678088 156.442858 
L 293.116823 94.043047 
L 308.555558 164.644167 
L 323.994293 162.613526 
L 339.433029 140.321326 
L 354.871764 162.096931 
L 370.310499 152.906099 
L 385.749234 133.001579 
L 401.187969 155.905451 
L 416.626705 164.203846 
" style="fill:none;stroke:#1b9e77;stroke-linecap:square;stroke-opacity:0.5;stroke-width:1.5;"/>
   </g>
   <g id="line2d_102">
    <path clip-path="url(#p30c052f779)" d="M 61.535795 139.011088 
L 76.974531 140.633743 
L 92.413266 151.173244 
L 107.852001 163.43297 
L 123.290736 161.326408 
L 138.729471 141.056392 
L 154.168207 149.702385 
L 169.606942 162.177325 
L 185.045677 161.938555 
L 200.484412 160.48847 
L 215.923147 139.288669 
L 231.361882 146.200175 
L 246.800618 162.076273 
L 262.239353 157.876828 
L 277.678088 159.747632 
L 293.116823 162.329586 
L 308.555558 163.392682 
L 323.994293 161.11732 
L 339.433029 156.691615 
L 354.871764 155.331382 
L 370.310499 157.113743 
L 385.749234 164.469711 
L 401.187969 165.599275 
L 416.626705 161.993085 
" style="fill:none;stroke:#1b9e77;stroke-linecap:square;stroke-opacity:0.5;stroke-width:1.5;"/>
   </g>
   <g id="line2d_103">
    <path clip-path="url(#p30c052f779)" d="M 61.535795 163.650618 
L 76.974531 165.315331 
L 92.413266 165.582898 
L 107.852001 165.54013 
L 123.290736 160.843486 
L 138.729471 163.474369 
L 154.168207 164.651239 
L 169.606942 165.806466 
L 185.045677 165.92365 
L 200.484412 165.848138 
L 215.923147 165.750414 
L 231.361882 165.759211 
L 246.800618 165.884338 
L 262.239353 165.431396 
L 277.678088 157.914216 
L 293.116823 163.479395 
L 308.555558 133.341304 
L 323.994293 82.001531 
L 339.433029 119.438503 
L 354.871764 157.282694 
L 370.310499 156.766213 
L 385.749234 152.611537 
L 401.187969 150.839979 
L 416.626705 161.031495 
" style="fill:none;stroke:#1b9e77;stroke-linecap:square;stroke-opacity:0.5;stroke-width:1.5;"/>
   </g>
   <g id="line2d_104">
    <path clip-path="url(#p30c052f779)" d="M 61.535795 165.877781 
L 76.974531 165.738771 
L 92.413266 165.809434 
L 107.852001 165.820666 
L 123.290736 165.728495 
L 138.729471 165.820793 
L 154.168207 165.891496 
L 169.606942 163.081554 
L 185.045677 131.571028 
L 200.484412 145.474329 
L 215.923147 127.546505 
L 231.361882 80.686655 
L 246.800618 157.80239 
L 262.239353 149.063722 
L 277.678088 144.002388 
L 293.116823 163.275869 
L 308.555558 163.996455 
L 323.994293 163.568977 
L 339.433029 165.245037 
L 354.871764 165.474061 
L 370.310499 165.418479 
L 385.749234 165.625776 
L 401.187969 165.712191 
L 416.626705 165.935698 
" style="fill:none;stroke:#1b9e77;stroke-linecap:square;stroke-opacity:0.5;stroke-width:1.5;"/>
   </g>
   <g id="line2d_105">
    <path clip-path="url(#p30c052f779)" d="M 61.535795 163.942857 
L 76.974531 162.981787 
L 92.413266 163.995671 
L 107.852001 71.947685 
L 123.290736 60.451644 
L 138.729471 161.03431 
L 154.168207 164.730962 
L 169.606942 164.787506 
L 185.045677 163.939133 
L 200.484412 151.775049 
L 215.923147 164.856489 
L 231.361882 165.213378 
L 246.800618 164.887106 
L 262.239353 165.006149 
L 277.678088 165.354876 
L 293.116823 165.400447 
L 308.555558 165.25204 
L 323.994293 165.259222 
L 339.433029 165.376473 
L 354.871764 165.567811 
L 370.310499 165.703067 
L 385.749234 165.889261 
L 401.187969 165.922566 
L 416.626705 164.893063 
" style="fill:none;stroke:#1b9e77;stroke-linecap:square;stroke-opacity:0.5;stroke-width:1.5;"/>
   </g>
   <g id="line2d_106">
    <path clip-path="url(#p30c052f779)" d="M 61.535795 139.560858 
L 76.974531 119.974203 
L 92.413266 126.214938 
L 107.852001 151.971906 
L 123.290736 161.703294 
L 138.729471 160.451134 
L 154.168207 163.353801 
L 169.606942 164.304756 
L 185.045677 164.845109 
L 200.484412 165.337909 
L 215.923147 165.590117 
L 231.361882 165.753117 
L 246.800618 165.735044 
L 262.239353 165.838603 
L 277.678088 165.81941 
L 293.116823 164.942298 
L 308.555558 160.677047 
L 323.994293 153.68761 
L 339.433029 136.418887 
L 354.871764 135.058368 
L 370.310499 150.700653 
L 385.749234 165.498991 
L 401.187969 164.939731 
L 416.626705 165.790763 
" style="fill:none;stroke:#1b9e77;stroke-linecap:square;stroke-opacity:0.5;stroke-width:1.5;"/>
   </g>
   <g id="line2d_107">
    <path clip-path="url(#p30c052f779)" d="M 61.535795 142.461081 
L 76.974531 150.361809 
L 92.413266 158.695928 
L 107.852001 164.374751 
L 123.290736 165.105133 
L 138.729471 165.55562 
L 154.168207 165.567886 
L 169.606942 165.541521 
L 185.045677 165.079824 
L 200.484412 162.500698 
L 215.923147 146.571955 
L 231.361882 160.649308 
L 246.800618 163.625341 
L 262.239353 155.79327 
L 277.678088 148.562367 
L 293.116823 139.608561 
L 308.555558 139.054676 
L 323.994293 140.070807 
L 339.433029 145.692723 
L 354.871764 151.860323 
L 370.310499 155.249939 
L 385.749234 163.386078 
L 401.187969 165.394404 
L 416.626705 163.404546 
" style="fill:none;stroke:#1b9e77;stroke-linecap:square;stroke-opacity:0.5;stroke-width:1.5;"/>
   </g>
   <g id="line2d_108">
    <path clip-path="url(#p30c052f779)" d="M 61.535795 165.740275 
L 76.974531 165.374494 
L 92.413266 165.459869 
L 107.852001 165.625144 
L 123.290736 165.013596 
L 138.729471 162.467361 
L 154.168207 159.834221 
L 169.606942 163.350497 
L 185.045677 139.618253 
L 200.484412 140.711471 
L 215.923147 156.478011 
L 231.361882 149.755298 
L 246.800618 136.027502 
L 262.239353 150.496801 
L 277.678088 117.685577 
L 293.116823 140.721534 
L 308.555558 151.997347 
L 323.994293 165.543045 
L 339.433029 165.45824 
L 354.871764 164.699494 
L 370.310499 160.893478 
L 385.749234 160.276023 
L 401.187969 165.063145 
L 416.626705 165.877878 
" style="fill:none;stroke:#1b9e77;stroke-linecap:square;stroke-opacity:0.5;stroke-width:1.5;"/>
   </g>
   <g id="line2d_109">
    <path clip-path="url(#p30c052f779)" d="M 61.535795 165.896748 
L 76.974531 165.84305 
L 92.413266 164.990465 
L 107.852001 165.456076 
L 123.290736 158.938586 
L 138.729471 161.796094 
L 154.168207 163.098925 
L 169.606942 162.871447 
L 185.045677 155.956667 
L 200.484412 158.903531 
L 215.923147 158.728681 
L 231.361882 145.130039 
L 246.800618 127.064717 
L 262.239353 148.352237 
L 277.678088 131.37477 
L 293.116823 163.118769 
L 308.555558 161.039751 
L 323.994293 137.563306 
L 339.433029 158.328805 
L 354.871764 156.314675 
L 370.310499 154.265602 
L 385.749234 150.142477 
L 401.187969 163.131114 
L 416.626705 165.862021 
" style="fill:none;stroke:#1b9e77;stroke-linecap:square;stroke-opacity:0.5;stroke-width:1.5;"/>
   </g>
   <g id="line2d_110">
    <path clip-path="url(#p30c052f779)" d="M 61.535795 165.877904 
L 76.974531 165.788454 
L 92.413266 163.995802 
L 107.852001 143.41056 
L 123.290736 135.62662 
L 138.729471 122.443886 
L 154.168207 63.637918 
L 169.606942 143.283303 
L 185.045677 163.862319 
L 200.484412 164.489807 
L 215.923147 163.133929 
L 231.361882 164.778823 
L 246.800618 164.204599 
L 262.239353 163.756226 
L 277.678088 165.040133 
L 293.116823 165.226456 
L 308.555558 165.292846 
L 323.994293 165.534707 
L 339.433029 165.701606 
L 354.871764 165.881043 
L 370.310499 165.936566 
L 385.749234 165.952609 
L 401.187969 165.894433 
L 416.626705 165.418007 
" style="fill:none;stroke:#1b9e77;stroke-linecap:square;stroke-opacity:0.5;stroke-width:1.5;"/>
   </g>
   <g id="line2d_111">
    <path clip-path="url(#p30c052f779)" d="M 61.535795 164.057364 
L 76.974531 161.511804 
L 92.413266 161.958881 
L 107.852001 163.786816 
L 123.290736 164.314608 
L 138.729471 165.425787 
L 154.168207 165.775066 
L 169.606942 165.781775 
L 185.045677 164.593714 
L 200.484412 164.345353 
L 215.923147 141.592261 
L 231.361882 56.67723 
L 246.800618 94.18493 
L 262.239353 162.145281 
L 277.678088 165.338603 
L 293.116823 165.077628 
L 308.555558 164.820893 
L 323.994293 165.154558 
L 339.433029 165.453513 
L 354.871764 165.632483 
L 370.310499 165.724132 
L 385.749234 165.884466 
L 401.187969 165.713867 
L 416.626705 159.217542 
" style="fill:none;stroke:#1b9e77;stroke-linecap:square;stroke-opacity:0.5;stroke-width:1.5;"/>
   </g>
   <g id="line2d_112">
    <path clip-path="url(#p30c052f779)" d="M 61.535795 163.748557 
L 76.974531 161.030202 
L 92.413266 164.176949 
L 107.852001 165.780668 
L 123.290736 165.607842 
L 138.729471 165.68741 
L 154.168207 165.652376 
L 169.606942 165.718787 
L 185.045677 165.142693 
L 200.484412 163.492066 
L 215.923147 148.427824 
L 231.361882 157.570021 
L 246.800618 145.245343 
L 262.239353 132.619562 
L 277.678088 104.400782 
L 293.116823 162.619316 
L 308.555558 165.459471 
L 323.994293 163.784613 
L 339.433029 147.954697 
L 354.871764 138.285134 
L 370.310499 139.16648 
L 385.749234 162.922684 
L 401.187969 164.340229 
L 416.626705 165.334844 
" style="fill:none;stroke:#1b9e77;stroke-linecap:square;stroke-opacity:0.5;stroke-width:1.5;"/>
   </g>
   <g id="line2d_113">
    <path clip-path="url(#p30c052f779)" d="M 61.535795 165.944734 
L 76.974531 165.944734 
L 92.413266 165.944734 
L 107.852001 165.66097 
L 123.290736 164.913585 
L 138.729471 144.247863 
L 154.168207 139.840295 
L 169.606942 134.116835 
L 185.045677 153.562536 
L 200.484412 164.252962 
L 215.923147 165.928499 
L 231.361882 165.942904 
L 246.800618 165.45287 
L 262.239353 162.745538 
L 277.678088 165.944734 
L 293.116823 158.500107 
L 308.555558 138.007618 
L 323.994293 136.17483 
L 339.433029 136.734318 
L 354.871764 154.371959 
L 370.310499 157.755338 
L 385.749234 156.757873 
L 401.187969 155.538076 
L 416.626705 159.884637 
" style="fill:none;stroke:#d95f02;stroke-linecap:square;stroke-width:1.5;"/>
   </g>
   <g id="patch_3">
    <path d="M 43.78125 173.52 
L 43.78125 7.2 
" style="fill:none;stroke:#000000;stroke-linecap:square;stroke-linejoin:miter;stroke-width:0.8;"/>
   </g>
   <g id="patch_4">
    <path d="M 43.78125 173.52 
L 434.38125 173.52 
" style="fill:none;stroke:#000000;stroke-linecap:square;stroke-linejoin:miter;stroke-width:0.8;"/>
   </g>
   <g id="legend_1">
    <g id="patch_5">
     <path d="M 213.497656 29.878125 
L 264.664844 29.878125 
Q 266.664844 29.878125 266.664844 27.878125 
L 266.664844 14.2 
Q 266.664844 12.2 264.664844 12.2 
L 213.497656 12.2 
Q 211.497656 12.2 211.497656 14.2 
L 211.497656 27.878125 
Q 211.497656 29.878125 213.497656 29.878125 
z
" style="fill:#ffffff;opacity:0.8;stroke:#cccccc;stroke-linejoin:miter;"/>
    </g>
    <g id="line2d_114">
     <path d="M 215.497656 20.298438 
L 235.497656 20.298438 
" style="fill:none;stroke:#d95f02;stroke-linecap:square;stroke-width:1.5;"/>
    </g>
    <g id="line2d_115"/>
    <g id="text_15">
     <!-- real -->
     <defs>
      <path d="M 9.421875 75.984375 
L 18.40625 75.984375 
L 18.40625 0 
L 9.421875 0 
z
" id="DejaVuSans-108"/>
     </defs>
     <g transform="translate(243.497656 23.798438)scale(0.1 -0.1)">
      <use xlink:href="#DejaVuSans-114"/>
      <use x="41.082031" xlink:href="#DejaVuSans-101"/>
      <use x="102.605469" xlink:href="#DejaVuSans-97"/>
      <use x="163.884766" xlink:href="#DejaVuSans-108"/>
     </g>
    </g>
   </g>
  </g>
 </g>
 <defs>
  <clipPath id="p30c052f779">
   <rect height="166.32" width="390.6" x="43.78125" y="7.2"/>
  </clipPath>
 </defs>
</svg>
