<?xml version="1.0" encoding="utf-8" standalone="no"?>
<!DOCTYPE svg PUBLIC "-//W3C//DTD SVG 1.1//EN"
  "http://www.w3.org/Graphics/SVG/1.1/DTD/svg11.dtd">
<!-- Created with matplotlib (https://matplotlib.org/) -->
<svg height="213.472816pt" version="1.1" viewBox="0 0 436.087315 213.472816" width="436.087315pt" xmlns="http://www.w3.org/2000/svg" xmlns:xlink="http://www.w3.org/1999/xlink">
 <defs>
  <style type="text/css">
*{stroke-linecap:butt;stroke-linejoin:round;}
  </style>
 </defs>
 <g id="figure_1">
  <g id="patch_1">
   <path d="M 0 213.472816 
L 436.087315 213.472816 
L 436.087315 0 
L 0 0 
z
" style="fill:#ffffff;"/>
  </g>
  <g id="axes_1">
   <g id="patch_2">
    <path d="M 34.240625 175.916566 
L 424.840625 175.916566 
L 424.840625 9.596566 
L 34.240625 9.596566 
z
" style="fill:#ffffff;"/>
   </g>
   <g id="matplotlib.axis_1">
    <g id="xtick_1">
     <g id="line2d_1">
      <defs>
       <path d="M 0 0 
L 0 3.5 
" id="md8a8d4b91d" style="stroke:#000000;stroke-width:0.8;"/>
      </defs>
      <g>
       <use style="stroke:#000000;stroke-width:0.8;" x="36.556435" xlink:href="#md8a8d4b91d" y="175.916566"/>
      </g>
     </g>
     <g id="text_1">
      <!-- 0 -->
      <defs>
       <path d="M 31.78125 66.40625 
Q 24.171875 66.40625 20.328125 58.90625 
Q 16.5 51.421875 16.5 36.375 
Q 16.5 21.390625 20.328125 13.890625 
Q 24.171875 6.390625 31.78125 6.390625 
Q 39.453125 6.390625 43.28125 13.890625 
Q 47.125 21.390625 47.125 36.375 
Q 47.125 51.421875 43.28125 58.90625 
Q 39.453125 66.40625 31.78125 66.40625 
z
M 31.78125 74.21875 
Q 44.046875 74.21875 50.515625 64.515625 
Q 56.984375 54.828125 56.984375 36.375 
Q 56.984375 17.96875 50.515625 8.265625 
Q 44.046875 -1.421875 31.78125 -1.421875 
Q 19.53125 -1.421875 13.0625 8.265625 
Q 6.59375 17.96875 6.59375 36.375 
Q 6.59375 54.828125 13.0625 64.515625 
Q 19.53125 74.21875 31.78125 74.21875 
z
" id="DejaVuSans-48"/>
      </defs>
      <g transform="translate(33.375185 190.515004)scale(0.1 -0.1)">
       <use xlink:href="#DejaVuSans-48"/>
      </g>
     </g>
    </g>
    <g id="xtick_2">
     <g id="line2d_2">
      <g>
       <use style="stroke:#000000;stroke-width:0.8;" x="113.750111" xlink:href="#md8a8d4b91d" y="175.916566"/>
      </g>
     </g>
     <g id="text_2">
      <!-- 5 -->
      <defs>
       <path d="M 10.796875 72.90625 
L 49.515625 72.90625 
L 49.515625 64.59375 
L 19.828125 64.59375 
L 19.828125 46.734375 
Q 21.96875 47.46875 24.109375 47.828125 
Q 26.265625 48.1875 28.421875 48.1875 
Q 40.625 48.1875 47.75 41.5 
Q 54.890625 34.8125 54.890625 23.390625 
Q 54.890625 11.625 47.5625 5.09375 
Q 40.234375 -1.421875 26.90625 -1.421875 
Q 22.3125 -1.421875 17.546875 -0.640625 
Q 12.796875 0.140625 7.71875 1.703125 
L 7.71875 11.625 
Q 12.109375 9.234375 16.796875 8.0625 
Q 21.484375 6.890625 26.703125 6.890625 
Q 35.15625 6.890625 40.078125 11.328125 
Q 45.015625 15.765625 45.015625 23.390625 
Q 45.015625 31 40.078125 35.4375 
Q 35.15625 39.890625 26.703125 39.890625 
Q 22.75 39.890625 18.8125 39.015625 
Q 14.890625 38.140625 10.796875 36.28125 
z
" id="DejaVuSans-53"/>
      </defs>
      <g transform="translate(110.568861 190.515004)scale(0.1 -0.1)">
       <use xlink:href="#DejaVuSans-53"/>
      </g>
     </g>
    </g>
    <g id="xtick_3">
     <g id="line2d_3">
      <g>
       <use style="stroke:#000000;stroke-width:0.8;" x="190.943787" xlink:href="#md8a8d4b91d" y="175.916566"/>
      </g>
     </g>
     <g id="text_3">
      <!-- 10 -->
      <defs>
       <path d="M 12.40625 8.296875 
L 28.515625 8.296875 
L 28.515625 63.921875 
L 10.984375 60.40625 
L 10.984375 69.390625 
L 28.421875 72.90625 
L 38.28125 72.90625 
L 38.28125 8.296875 
L 54.390625 8.296875 
L 54.390625 0 
L 12.40625 0 
z
" id="DejaVuSans-49"/>
      </defs>
      <g transform="translate(184.581287 190.515004)scale(0.1 -0.1)">
       <use xlink:href="#DejaVuSans-49"/>
       <use x="63.623047" xlink:href="#DejaVuSans-48"/>
      </g>
     </g>
    </g>
    <g id="xtick_4">
     <g id="line2d_4">
      <g>
       <use style="stroke:#000000;stroke-width:0.8;" x="268.137463" xlink:href="#md8a8d4b91d" y="175.916566"/>
      </g>
     </g>
     <g id="text_4">
      <!-- 15 -->
      <g transform="translate(261.774963 190.515004)scale(0.1 -0.1)">
       <use xlink:href="#DejaVuSans-49"/>
       <use x="63.623047" xlink:href="#DejaVuSans-53"/>
      </g>
     </g>
    </g>
    <g id="xtick_5">
     <g id="line2d_5">
      <g>
       <use style="stroke:#000000;stroke-width:0.8;" x="345.331139" xlink:href="#md8a8d4b91d" y="175.916566"/>
      </g>
     </g>
     <g id="text_5">
      <!-- 20 -->
      <defs>
       <path d="M 19.1875 8.296875 
L 53.609375 8.296875 
L 53.609375 0 
L 7.328125 0 
L 7.328125 8.296875 
Q 12.9375 14.109375 22.625 23.890625 
Q 32.328125 33.6875 34.8125 36.53125 
Q 39.546875 41.84375 41.421875 45.53125 
Q 43.3125 49.21875 43.3125 52.78125 
Q 43.3125 58.59375 39.234375 62.25 
Q 35.15625 65.921875 28.609375 65.921875 
Q 23.96875 65.921875 18.8125 64.3125 
Q 13.671875 62.703125 7.8125 59.421875 
L 7.8125 69.390625 
Q 13.765625 71.78125 18.9375 73 
Q 24.125 74.21875 28.421875 74.21875 
Q 39.75 74.21875 46.484375 68.546875 
Q 53.21875 62.890625 53.21875 53.421875 
Q 53.21875 48.921875 51.53125 44.890625 
Q 49.859375 40.875 45.40625 35.40625 
Q 44.1875 33.984375 37.640625 27.21875 
Q 31.109375 20.453125 19.1875 8.296875 
z
" id="DejaVuSans-50"/>
      </defs>
      <g transform="translate(338.968639 190.515004)scale(0.1 -0.1)">
       <use xlink:href="#DejaVuSans-50"/>
       <use x="63.623047" xlink:href="#DejaVuSans-48"/>
      </g>
     </g>
    </g>
    <g id="xtick_6">
     <g id="line2d_6">
      <g>
       <use style="stroke:#000000;stroke-width:0.8;" x="422.524815" xlink:href="#md8a8d4b91d" y="175.916566"/>
      </g>
     </g>
     <g id="text_6">
      <!-- 25 -->
      <g transform="translate(416.162315 190.515004)scale(0.1 -0.1)">
       <use xlink:href="#DejaVuSans-50"/>
       <use x="63.623047" xlink:href="#DejaVuSans-53"/>
      </g>
     </g>
    </g>
    <g id="text_7">
     <!-- hour -->
     <defs>
      <path d="M 54.890625 33.015625 
L 54.890625 0 
L 45.90625 0 
L 45.90625 32.71875 
Q 45.90625 40.484375 42.875 44.328125 
Q 39.84375 48.1875 33.796875 48.1875 
Q 26.515625 48.1875 22.3125 43.546875 
Q 18.109375 38.921875 18.109375 30.90625 
L 18.109375 0 
L 9.078125 0 
L 9.078125 75.984375 
L 18.109375 75.984375 
L 18.109375 46.1875 
Q 21.34375 51.125 25.703125 53.5625 
Q 30.078125 56 35.796875 56 
Q 45.21875 56 50.046875 50.171875 
Q 54.890625 44.34375 54.890625 33.015625 
z
" id="DejaVuSans-104"/>
      <path d="M 30.609375 48.390625 
Q 23.390625 48.390625 19.1875 42.75 
Q 14.984375 37.109375 14.984375 27.296875 
Q 14.984375 17.484375 19.15625 11.84375 
Q 23.34375 6.203125 30.609375 6.203125 
Q 37.796875 6.203125 41.984375 11.859375 
Q 46.1875 17.53125 46.1875 27.296875 
Q 46.1875 37.015625 41.984375 42.703125 
Q 37.796875 48.390625 30.609375 48.390625 
z
M 30.609375 56 
Q 42.328125 56 49.015625 48.375 
Q 55.71875 40.765625 55.71875 27.296875 
Q 55.71875 13.875 49.015625 6.21875 
Q 42.328125 -1.421875 30.609375 -1.421875 
Q 18.84375 -1.421875 12.171875 6.21875 
Q 5.515625 13.875 5.515625 27.296875 
Q 5.515625 40.765625 12.171875 48.375 
Q 18.84375 56 30.609375 56 
z
" id="DejaVuSans-111"/>
      <path d="M 8.5 21.578125 
L 8.5 54.6875 
L 17.484375 54.6875 
L 17.484375 21.921875 
Q 17.484375 14.15625 20.5 10.265625 
Q 23.53125 6.390625 29.59375 6.390625 
Q 36.859375 6.390625 41.078125 11.03125 
Q 45.3125 15.671875 45.3125 23.6875 
L 45.3125 54.6875 
L 54.296875 54.6875 
L 54.296875 0 
L 45.3125 0 
L 45.3125 8.40625 
Q 42.046875 3.421875 37.71875 1 
Q 33.40625 -1.421875 27.6875 -1.421875 
Q 18.265625 -1.421875 13.375 4.4375 
Q 8.5 10.296875 8.5 21.578125 
z
M 31.109375 56 
z
" id="DejaVuSans-117"/>
      <path d="M 41.109375 46.296875 
Q 39.59375 47.171875 37.8125 47.578125 
Q 36.03125 48 33.890625 48 
Q 26.265625 48 22.1875 43.046875 
Q 18.109375 38.09375 18.109375 28.8125 
L 18.109375 0 
L 9.078125 0 
L 9.078125 54.6875 
L 18.109375 54.6875 
L 18.109375 46.1875 
Q 20.953125 51.171875 25.484375 53.578125 
Q 30.03125 56 36.53125 56 
Q 37.453125 56 38.578125 55.875 
Q 39.703125 55.765625 41.0625 55.515625 
z
" id="DejaVuSans-114"/>
     </defs>
     <g transform="translate(218.088281 204.193129)scale(0.1 -0.1)">
      <use xlink:href="#DejaVuSans-104"/>
      <use x="63.378906" xlink:href="#DejaVuSans-111"/>
      <use x="124.560547" xlink:href="#DejaVuSans-117"/>
      <use x="187.939453" xlink:href="#DejaVuSans-114"/>
     </g>
    </g>
   </g>
   <g id="matplotlib.axis_2">
    <g id="ytick_1">
     <g id="line2d_7">
      <defs>
       <path d="M 0 0 
L -3.5 0 
" id="m95f33e01a5" style="stroke:#000000;stroke-width:0.8;"/>
      </defs>
      <g>
       <use style="stroke:#000000;stroke-width:0.8;" x="34.240625" xlink:href="#m95f33e01a5" y="168.357107"/>
      </g>
     </g>
     <g id="text_8">
      <!-- 0 -->
      <g transform="translate(20.878125 172.156326)scale(0.1 -0.1)">
       <use xlink:href="#DejaVuSans-48"/>
      </g>
     </g>
    </g>
    <g id="ytick_2">
     <g id="line2d_8">
      <g>
       <use style="stroke:#000000;stroke-width:0.8;" x="34.240625" xlink:href="#m95f33e01a5" y="142.130792"/>
      </g>
     </g>
     <g id="text_9">
      <!-- 1 -->
      <g transform="translate(20.878125 145.930011)scale(0.1 -0.1)">
       <use xlink:href="#DejaVuSans-49"/>
      </g>
     </g>
    </g>
    <g id="ytick_3">
     <g id="line2d_9">
      <g>
       <use style="stroke:#000000;stroke-width:0.8;" x="34.240625" xlink:href="#m95f33e01a5" y="115.904478"/>
      </g>
     </g>
     <g id="text_10">
      <!-- 2 -->
      <g transform="translate(20.878125 119.703696)scale(0.1 -0.1)">
       <use xlink:href="#DejaVuSans-50"/>
      </g>
     </g>
    </g>
    <g id="ytick_4">
     <g id="line2d_10">
      <g>
       <use style="stroke:#000000;stroke-width:0.8;" x="34.240625" xlink:href="#m95f33e01a5" y="89.678163"/>
      </g>
     </g>
     <g id="text_11">
      <!-- 3 -->
      <defs>
       <path d="M 40.578125 39.3125 
Q 47.65625 37.796875 51.625 33 
Q 55.609375 28.21875 55.609375 21.1875 
Q 55.609375 10.40625 48.1875 4.484375 
Q 40.765625 -1.421875 27.09375 -1.421875 
Q 22.515625 -1.421875 17.65625 -0.515625 
Q 12.796875 0.390625 7.625 2.203125 
L 7.625 11.71875 
Q 11.71875 9.328125 16.59375 8.109375 
Q 21.484375 6.890625 26.8125 6.890625 
Q 36.078125 6.890625 40.9375 10.546875 
Q 45.796875 14.203125 45.796875 21.1875 
Q 45.796875 27.640625 41.28125 31.265625 
Q 36.765625 34.90625 28.71875 34.90625 
L 20.21875 34.90625 
L 20.21875 43.015625 
L 29.109375 43.015625 
Q 36.375 43.015625 40.234375 45.921875 
Q 44.09375 48.828125 44.09375 54.296875 
Q 44.09375 59.90625 40.109375 62.90625 
Q 36.140625 65.921875 28.71875 65.921875 
Q 24.65625 65.921875 20.015625 65.03125 
Q 15.375 64.15625 9.8125 62.3125 
L 9.8125 71.09375 
Q 15.4375 72.65625 20.34375 73.4375 
Q 25.25 74.21875 29.59375 74.21875 
Q 40.828125 74.21875 47.359375 69.109375 
Q 53.90625 64.015625 53.90625 55.328125 
Q 53.90625 49.265625 50.4375 45.09375 
Q 46.96875 40.921875 40.578125 39.3125 
z
" id="DejaVuSans-51"/>
      </defs>
      <g transform="translate(20.878125 93.477382)scale(0.1 -0.1)">
       <use xlink:href="#DejaVuSans-51"/>
      </g>
     </g>
    </g>
    <g id="ytick_5">
     <g id="line2d_11">
      <g>
       <use style="stroke:#000000;stroke-width:0.8;" x="34.240625" xlink:href="#m95f33e01a5" y="63.451848"/>
      </g>
     </g>
     <g id="text_12">
      <!-- 4 -->
      <defs>
       <path d="M 37.796875 64.3125 
L 12.890625 25.390625 
L 37.796875 25.390625 
z
M 35.203125 72.90625 
L 47.609375 72.90625 
L 47.609375 25.390625 
L 58.015625 25.390625 
L 58.015625 17.1875 
L 47.609375 17.1875 
L 47.609375 0 
L 37.796875 0 
L 37.796875 17.1875 
L 4.890625 17.1875 
L 4.890625 26.703125 
z
" id="DejaVuSans-52"/>
      </defs>
      <g transform="translate(20.878125 67.251067)scale(0.1 -0.1)">
       <use xlink:href="#DejaVuSans-52"/>
      </g>
     </g>
    </g>
    <g id="ytick_6">
     <g id="line2d_12">
      <g>
       <use style="stroke:#000000;stroke-width:0.8;" x="34.240625" xlink:href="#m95f33e01a5" y="37.225533"/>
      </g>
     </g>
     <g id="text_13">
      <!-- 5 -->
      <g transform="translate(20.878125 41.024752)scale(0.1 -0.1)">
       <use xlink:href="#DejaVuSans-53"/>
      </g>
     </g>
    </g>
    <g id="ytick_7">
     <g id="line2d_13">
      <g>
       <use style="stroke:#000000;stroke-width:0.8;" x="34.240625" xlink:href="#m95f33e01a5" y="10.999219"/>
      </g>
     </g>
     <g id="text_14">
      <!-- 6 -->
      <defs>
       <path d="M 33.015625 40.375 
Q 26.375 40.375 22.484375 35.828125 
Q 18.609375 31.296875 18.609375 23.390625 
Q 18.609375 15.53125 22.484375 10.953125 
Q 26.375 6.390625 33.015625 6.390625 
Q 39.65625 6.390625 43.53125 10.953125 
Q 47.40625 15.53125 47.40625 23.390625 
Q 47.40625 31.296875 43.53125 35.828125 
Q 39.65625 40.375 33.015625 40.375 
z
M 52.59375 71.296875 
L 52.59375 62.3125 
Q 48.875 64.0625 45.09375 64.984375 
Q 41.3125 65.921875 37.59375 65.921875 
Q 27.828125 65.921875 22.671875 59.328125 
Q 17.53125 52.734375 16.796875 39.40625 
Q 19.671875 43.65625 24.015625 45.921875 
Q 28.375 48.1875 33.59375 48.1875 
Q 44.578125 48.1875 50.953125 41.515625 
Q 57.328125 34.859375 57.328125 23.390625 
Q 57.328125 12.15625 50.6875 5.359375 
Q 44.046875 -1.421875 33.015625 -1.421875 
Q 20.359375 -1.421875 13.671875 8.265625 
Q 6.984375 17.96875 6.984375 36.375 
Q 6.984375 53.65625 15.1875 63.9375 
Q 23.390625 74.21875 37.203125 74.21875 
Q 40.921875 74.21875 44.703125 73.484375 
Q 48.484375 72.75 52.59375 71.296875 
z
" id="DejaVuSans-54"/>
      </defs>
      <g transform="translate(20.878125 14.798438)scale(0.1 -0.1)">
       <use xlink:href="#DejaVuSans-54"/>
      </g>
     </g>
    </g>
    <g id="text_15">
     <!-- precipitation [mm/hour] -->
     <defs>
      <path d="M 18.109375 8.203125 
L 18.109375 -20.796875 
L 9.078125 -20.796875 
L 9.078125 54.6875 
L 18.109375 54.6875 
L 18.109375 46.390625 
Q 20.953125 51.265625 25.265625 53.625 
Q 29.59375 56 35.59375 56 
Q 45.5625 56 51.78125 48.09375 
Q 58.015625 40.1875 58.015625 27.296875 
Q 58.015625 14.40625 51.78125 6.484375 
Q 45.5625 -1.421875 35.59375 -1.421875 
Q 29.59375 -1.421875 25.265625 0.953125 
Q 20.953125 3.328125 18.109375 8.203125 
z
M 48.6875 27.296875 
Q 48.6875 37.203125 44.609375 42.84375 
Q 40.53125 48.484375 33.40625 48.484375 
Q 26.265625 48.484375 22.1875 42.84375 
Q 18.109375 37.203125 18.109375 27.296875 
Q 18.109375 17.390625 22.1875 11.75 
Q 26.265625 6.109375 33.40625 6.109375 
Q 40.53125 6.109375 44.609375 11.75 
Q 48.6875 17.390625 48.6875 27.296875 
z
" id="DejaVuSans-112"/>
      <path d="M 56.203125 29.59375 
L 56.203125 25.203125 
L 14.890625 25.203125 
Q 15.484375 15.921875 20.484375 11.0625 
Q 25.484375 6.203125 34.421875 6.203125 
Q 39.59375 6.203125 44.453125 7.46875 
Q 49.3125 8.734375 54.109375 11.28125 
L 54.109375 2.78125 
Q 49.265625 0.734375 44.1875 -0.34375 
Q 39.109375 -1.421875 33.890625 -1.421875 
Q 20.796875 -1.421875 13.15625 6.1875 
Q 5.515625 13.8125 5.515625 26.8125 
Q 5.515625 40.234375 12.765625 48.109375 
Q 20.015625 56 32.328125 56 
Q 43.359375 56 49.78125 48.890625 
Q 56.203125 41.796875 56.203125 29.59375 
z
M 47.21875 32.234375 
Q 47.125 39.59375 43.09375 43.984375 
Q 39.0625 48.390625 32.421875 48.390625 
Q 24.90625 48.390625 20.390625 44.140625 
Q 15.875 39.890625 15.1875 32.171875 
z
" id="DejaVuSans-101"/>
      <path d="M 48.78125 52.59375 
L 48.78125 44.1875 
Q 44.96875 46.296875 41.140625 47.34375 
Q 37.3125 48.390625 33.40625 48.390625 
Q 24.65625 48.390625 19.8125 42.84375 
Q 14.984375 37.3125 14.984375 27.296875 
Q 14.984375 17.28125 19.8125 11.734375 
Q 24.65625 6.203125 33.40625 6.203125 
Q 37.3125 6.203125 41.140625 7.25 
Q 44.96875 8.296875 48.78125 10.40625 
L 48.78125 2.09375 
Q 45.015625 0.34375 40.984375 -0.53125 
Q 36.96875 -1.421875 32.421875 -1.421875 
Q 20.0625 -1.421875 12.78125 6.34375 
Q 5.515625 14.109375 5.515625 27.296875 
Q 5.515625 40.671875 12.859375 48.328125 
Q 20.21875 56 33.015625 56 
Q 37.15625 56 41.109375 55.140625 
Q 45.0625 54.296875 48.78125 52.59375 
z
" id="DejaVuSans-99"/>
      <path d="M 9.421875 54.6875 
L 18.40625 54.6875 
L 18.40625 0 
L 9.421875 0 
z
M 9.421875 75.984375 
L 18.40625 75.984375 
L 18.40625 64.59375 
L 9.421875 64.59375 
z
" id="DejaVuSans-105"/>
      <path d="M 18.3125 70.21875 
L 18.3125 54.6875 
L 36.8125 54.6875 
L 36.8125 47.703125 
L 18.3125 47.703125 
L 18.3125 18.015625 
Q 18.3125 11.328125 20.140625 9.421875 
Q 21.96875 7.515625 27.59375 7.515625 
L 36.8125 7.515625 
L 36.8125 0 
L 27.59375 0 
Q 17.1875 0 13.234375 3.875 
Q 9.28125 7.765625 9.28125 18.015625 
L 9.28125 47.703125 
L 2.6875 47.703125 
L 2.6875 54.6875 
L 9.28125 54.6875 
L 9.28125 70.21875 
z
" id="DejaVuSans-116"/>
      <path d="M 34.28125 27.484375 
Q 23.390625 27.484375 19.1875 25 
Q 14.984375 22.515625 14.984375 16.5 
Q 14.984375 11.71875 18.140625 8.90625 
Q 21.296875 6.109375 26.703125 6.109375 
Q 34.1875 6.109375 38.703125 11.40625 
Q 43.21875 16.703125 43.21875 25.484375 
L 43.21875 27.484375 
z
M 52.203125 31.203125 
L 52.203125 0 
L 43.21875 0 
L 43.21875 8.296875 
Q 40.140625 3.328125 35.546875 0.953125 
Q 30.953125 -1.421875 24.3125 -1.421875 
Q 15.921875 -1.421875 10.953125 3.296875 
Q 6 8.015625 6 15.921875 
Q 6 25.140625 12.171875 29.828125 
Q 18.359375 34.515625 30.609375 34.515625 
L 43.21875 34.515625 
L 43.21875 35.40625 
Q 43.21875 41.609375 39.140625 45 
Q 35.0625 48.390625 27.6875 48.390625 
Q 23 48.390625 18.546875 47.265625 
Q 14.109375 46.140625 10.015625 43.890625 
L 10.015625 52.203125 
Q 14.9375 54.109375 19.578125 55.046875 
Q 24.21875 56 28.609375 56 
Q 40.484375 56 46.34375 49.84375 
Q 52.203125 43.703125 52.203125 31.203125 
z
" id="DejaVuSans-97"/>
      <path d="M 54.890625 33.015625 
L 54.890625 0 
L 45.90625 0 
L 45.90625 32.71875 
Q 45.90625 40.484375 42.875 44.328125 
Q 39.84375 48.1875 33.796875 48.1875 
Q 26.515625 48.1875 22.3125 43.546875 
Q 18.109375 38.921875 18.109375 30.90625 
L 18.109375 0 
L 9.078125 0 
L 9.078125 54.6875 
L 18.109375 54.6875 
L 18.109375 46.1875 
Q 21.34375 51.125 25.703125 53.5625 
Q 30.078125 56 35.796875 56 
Q 45.21875 56 50.046875 50.171875 
Q 54.890625 44.34375 54.890625 33.015625 
z
" id="DejaVuSans-110"/>
      <path id="DejaVuSans-32"/>
      <path d="M 8.59375 75.984375 
L 29.296875 75.984375 
L 29.296875 69 
L 17.578125 69 
L 17.578125 -6.203125 
L 29.296875 -6.203125 
L 29.296875 -13.1875 
L 8.59375 -13.1875 
z
" id="DejaVuSans-91"/>
      <path d="M 52 44.1875 
Q 55.375 50.25 60.0625 53.125 
Q 64.75 56 71.09375 56 
Q 79.640625 56 84.28125 50.015625 
Q 88.921875 44.046875 88.921875 33.015625 
L 88.921875 0 
L 79.890625 0 
L 79.890625 32.71875 
Q 79.890625 40.578125 77.09375 44.375 
Q 74.3125 48.1875 68.609375 48.1875 
Q 61.625 48.1875 57.5625 43.546875 
Q 53.515625 38.921875 53.515625 30.90625 
L 53.515625 0 
L 44.484375 0 
L 44.484375 32.71875 
Q 44.484375 40.625 41.703125 44.40625 
Q 38.921875 48.1875 33.109375 48.1875 
Q 26.21875 48.1875 22.15625 43.53125 
Q 18.109375 38.875 18.109375 30.90625 
L 18.109375 0 
L 9.078125 0 
L 9.078125 54.6875 
L 18.109375 54.6875 
L 18.109375 46.1875 
Q 21.1875 51.21875 25.484375 53.609375 
Q 29.78125 56 35.6875 56 
Q 41.65625 56 45.828125 52.96875 
Q 50 49.953125 52 44.1875 
z
" id="DejaVuSans-109"/>
      <path d="M 25.390625 72.90625 
L 33.6875 72.90625 
L 8.296875 -9.28125 
L 0 -9.28125 
z
" id="DejaVuSans-47"/>
      <path d="M 30.421875 75.984375 
L 30.421875 -13.1875 
L 9.71875 -13.1875 
L 9.71875 -6.203125 
L 21.390625 -6.203125 
L 21.390625 69 
L 9.71875 69 
L 9.71875 75.984375 
z
" id="DejaVuSans-93"/>
     </defs>
     <g transform="translate(14.798438 152.732347)rotate(-90)scale(0.1 -0.1)">
      <use xlink:href="#DejaVuSans-112"/>
      <use x="63.476562" xlink:href="#DejaVuSans-114"/>
      <use x="104.558594" xlink:href="#DejaVuSans-101"/>
      <use x="166.082031" xlink:href="#DejaVuSans-99"/>
      <use x="221.0625" xlink:href="#DejaVuSans-105"/>
      <use x="248.845703" xlink:href="#DejaVuSans-112"/>
      <use x="312.322266" xlink:href="#DejaVuSans-105"/>
      <use x="340.105469" xlink:href="#DejaVuSans-116"/>
      <use x="379.314453" xlink:href="#DejaVuSans-97"/>
      <use x="440.59375" xlink:href="#DejaVuSans-116"/>
      <use x="479.802734" xlink:href="#DejaVuSans-105"/>
      <use x="507.585938" xlink:href="#DejaVuSans-111"/>
      <use x="568.767578" xlink:href="#DejaVuSans-110"/>
      <use x="632.146484" xlink:href="#DejaVuSans-32"/>
      <use x="663.933594" xlink:href="#DejaVuSans-91"/>
      <use x="702.947266" xlink:href="#DejaVuSans-109"/>
      <use x="800.359375" xlink:href="#DejaVuSans-109"/>
      <use x="897.771484" xlink:href="#DejaVuSans-47"/>
      <use x="931.462891" xlink:href="#DejaVuSans-104"/>
      <use x="994.841797" xlink:href="#DejaVuSans-111"/>
      <use x="1056.023438" xlink:href="#DejaVuSans-117"/>
      <use x="1119.402344" xlink:href="#DejaVuSans-114"/>
      <use x="1160.515625" xlink:href="#DejaVuSans-93"/>
     </g>
    </g>
   </g>
   <g id="line2d_14">
    <path clip-path="url(#p0cbca2c081)" d="M 51.99517 159.054803 
L 67.433906 162.34017 
L 82.872641 167.524627 
L 98.311376 167.651597 
L 113.750111 167.88084 
L 129.188846 167.944196 
L 144.627582 167.994327 
L 160.066317 168.053263 
L 175.505052 168.134012 
L 190.943787 168.142613 
L 206.382522 168.141354 
L 221.821257 168.117088 
L 237.259993 168.177588 
L 252.698728 168.240034 
L 268.137463 168.204379 
L 283.576198 168.237419 
L 299.014933 167.58235 
L 314.453668 147.526556 
L 329.892404 119.413809 
L 345.331139 144.931591 
L 360.769874 122.474494 
L 376.208609 102.628834 
L 391.647344 130.687444 
L 407.08608 155.912409 
" style="fill:none;stroke:#1b9e77;stroke-linecap:square;stroke-opacity:0.5;stroke-width:1.5;"/>
   </g>
   <g id="line2d_15">
    <path clip-path="url(#p0cbca2c081)" d="M 51.99517 161.232746 
L 67.433906 120.197087 
L 82.872641 147.232582 
L 98.311376 166.242897 
L 113.750111 167.987096 
L 129.188846 167.621401 
L 144.627582 159.272912 
L 160.066317 153.662325 
L 175.505052 167.639025 
L 190.943787 168.13884 
L 206.382522 168.230916 
L 221.821257 168.26829 
L 237.259993 164.86743 
L 252.698728 164.968783 
L 268.137463 154.479556 
L 283.576198 164.905329 
L 299.014933 163.715721 
L 314.453668 150.593653 
L 329.892404 154.581602 
L 345.331139 127.869757 
L 360.769874 107.726981 
L 376.208609 158.984383 
L 391.647344 168.242327 
L 407.08608 168.334161 
" style="fill:none;stroke:#1b9e77;stroke-linecap:square;stroke-opacity:0.5;stroke-width:1.5;"/>
   </g>
   <g id="line2d_16">
    <path clip-path="url(#p0cbca2c081)" d="M 51.99517 167.889011 
L 67.433906 166.34014 
L 82.872641 162.168357 
L 98.311376 139.93356 
L 113.750111 116.854084 
L 129.188846 114.595983 
L 144.627582 127.764947 
L 160.066317 123.130908 
L 175.505052 147.04299 
L 190.943787 159.136071 
L 206.382522 165.721547 
L 221.821257 164.450863 
L 237.259993 166.271647 
L 252.698728 167.486782 
L 268.137463 167.906021 
L 283.576198 167.899249 
L 299.014933 167.997037 
L 314.453668 168.068075 
L 329.892404 168.147522 
L 345.331139 168.145946 
L 360.769874 168.124341 
L 376.208609 168.194352 
L 391.647344 167.701189 
L 407.08608 164.025177 
" style="fill:none;stroke:#1b9e77;stroke-linecap:square;stroke-opacity:0.5;stroke-width:1.5;"/>
   </g>
   <g id="line2d_17">
    <path clip-path="url(#p0cbca2c081)" d="M 51.99517 168.106167 
L 67.433906 167.680312 
L 82.872641 167.895283 
L 98.311376 168.017556 
L 113.750111 168.05948 
L 129.188846 168.067532 
L 144.627582 167.092096 
L 160.066317 160.669294 
L 175.505052 158.967874 
L 190.943787 167.097064 
L 206.382522 162.987443 
L 221.821257 135.932367 
L 237.259993 145.325902 
L 252.698728 158.916378 
L 268.137463 157.554276 
L 283.576198 156.506092 
L 299.014933 157.163434 
L 314.453668 150.918621 
L 329.892404 149.294666 
L 345.331139 156.972747 
L 360.769874 88.82969 
L 376.208609 148.164316 
L 391.647344 167.810947 
L 407.08608 166.966256 
" style="fill:none;stroke:#1b9e77;stroke-linecap:square;stroke-opacity:0.5;stroke-width:1.5;"/>
   </g>
   <g id="line2d_18">
    <path clip-path="url(#p0cbca2c081)" d="M 51.99517 164.627222 
L 67.433906 166.129167 
L 82.872641 167.570703 
L 98.311376 167.726937 
L 113.750111 167.809741 
L 129.188846 167.771544 
L 144.627582 165.844677 
L 160.066317 163.259791 
L 175.505052 153.433494 
L 190.943787 167.635358 
L 206.382522 164.894293 
L 221.821257 90.116875 
L 237.259993 132.322402 
L 252.698728 159.236478 
L 268.137463 154.156149 
L 283.576198 168.249691 
L 299.014933 165.070236 
L 314.453668 161.636948 
L 329.892404 157.020862 
L 345.331139 153.351302 
L 360.769874 147.322659 
L 376.208609 144.96536 
L 391.647344 155.134586 
L 407.08608 159.709319 
" style="fill:none;stroke:#1b9e77;stroke-linecap:square;stroke-opacity:0.5;stroke-width:1.5;"/>
   </g>
   <g id="line2d_19">
    <path clip-path="url(#p0cbca2c081)" d="M 51.99517 168.353199 
L 67.433906 168.328999 
L 82.872641 168.329686 
L 98.311376 168.348765 
L 113.750111 168.351006 
L 129.188846 166.206034 
L 144.627582 150.647946 
L 160.066317 155.291687 
L 175.505052 151.552299 
L 190.943787 152.781483 
L 206.382522 156.331131 
L 221.821257 156.265783 
L 237.259993 137.496274 
L 252.698728 81.905882 
L 268.137463 135.31906 
L 283.576198 151.326723 
L 299.014933 157.663985 
L 314.453668 161.918999 
L 329.892404 167.271818 
L 345.331139 167.940572 
L 360.769874 168.325919 
L 376.208609 168.338385 
L 391.647344 168.34556 
L 407.08608 168.354609 
" style="fill:none;stroke:#1b9e77;stroke-linecap:square;stroke-opacity:0.5;stroke-width:1.5;"/>
   </g>
   <g id="line2d_20">
    <path clip-path="url(#p0cbca2c081)" d="M 51.99517 168.188784 
L 67.433906 164.387053 
L 82.872641 158.723568 
L 98.311376 160.402334 
L 113.750111 145.51216 
L 129.188846 129.865839 
L 144.627582 133.485615 
L 160.066317 147.54216 
L 175.505052 124.567457 
L 190.943787 124.087179 
L 206.382522 152.777853 
L 221.821257 157.219358 
L 237.259993 162.751605 
L 252.698728 166.652007 
L 268.137463 167.591798 
L 283.576198 167.748027 
L 299.014933 167.856848 
L 314.453668 168.155843 
L 329.892404 168.085437 
L 345.331139 165.068186 
L 360.769874 163.206955 
L 376.208609 167.072262 
L 391.647344 166.473819 
L 407.08608 167.573653 
" style="fill:none;stroke:#1b9e77;stroke-linecap:square;stroke-opacity:0.5;stroke-width:1.5;"/>
   </g>
   <g id="line2d_21">
    <path clip-path="url(#p0cbca2c081)" d="M 51.99517 164.638775 
L 67.433906 116.666324 
L 82.872641 84.742508 
L 98.311376 135.059058 
L 113.750111 158.520213 
L 129.188846 157.481554 
L 144.627582 149.651991 
L 160.066317 149.85175 
L 175.505052 157.624262 
L 190.943787 158.779294 
L 206.382522 161.728676 
L 221.821257 157.849429 
L 237.259993 166.304294 
L 252.698728 167.635709 
L 268.137463 167.965012 
L 283.576198 167.962236 
L 299.014933 167.882036 
L 314.453668 167.75608 
L 329.892404 167.864938 
L 345.331139 168.092061 
L 360.769874 168.106878 
L 376.208609 167.989689 
L 391.647344 166.894618 
L 407.08608 167.948409 
" style="fill:none;stroke:#1b9e77;stroke-linecap:square;stroke-opacity:0.5;stroke-width:1.5;"/>
   </g>
   <g id="line2d_22">
    <path clip-path="url(#p0cbca2c081)" d="M 51.99517 166.965461 
L 67.433906 157.806517 
L 82.872641 107.852076 
L 98.311376 112.89895 
L 113.750111 146.762705 
L 129.188846 129.172143 
L 144.627582 126.766437 
L 160.066317 162.767698 
L 175.505052 167.564755 
L 190.943787 167.313229 
L 206.382522 167.286435 
L 221.821257 167.487721 
L 237.259993 167.607564 
L 252.698728 167.051504 
L 268.137463 165.876025 
L 283.576198 165.573061 
L 299.014933 164.812446 
L 314.453668 165.458752 
L 329.892404 165.294012 
L 345.331139 161.746792 
L 360.769874 161.585009 
L 376.208609 166.336984 
L 391.647344 166.05143 
L 407.08608 166.958095 
" style="fill:none;stroke:#1b9e77;stroke-linecap:square;stroke-opacity:0.5;stroke-width:1.5;"/>
   </g>
   <g id="line2d_23">
    <path clip-path="url(#p0cbca2c081)" d="M 51.99517 161.54421 
L 67.433906 165.176036 
L 82.872641 167.702066 
L 98.311376 167.829764 
L 113.750111 167.83537 
L 129.188846 166.987046 
L 144.627582 165.027872 
L 160.066317 166.801356 
L 175.505052 166.791328 
L 190.943787 165.489754 
L 206.382522 157.967854 
L 221.821257 153.965461 
L 237.259993 159.551269 
L 252.698728 162.769297 
L 268.137463 155.625358 
L 283.576198 130.843321 
L 299.014933 114.92412 
L 314.453668 137.860756 
L 329.892404 150.496066 
L 345.331139 146.647304 
L 360.769874 142.09199 
L 376.208609 157.340486 
L 391.647344 165.601681 
L 407.08608 168.126033 
" style="fill:none;stroke:#1b9e77;stroke-linecap:square;stroke-opacity:0.5;stroke-width:1.5;"/>
   </g>
   <g id="line2d_24">
    <path clip-path="url(#p0cbca2c081)" d="M 51.99517 168.350739 
L 67.433906 168.322985 
L 82.872641 168.33231 
L 98.311376 168.347149 
L 113.750111 168.349678 
L 129.188846 168.135829 
L 144.627582 167.602568 
L 160.066317 160.523456 
L 175.505052 165.899657 
L 190.943787 165.652954 
L 206.382522 152.649393 
L 221.821257 147.068311 
L 237.259993 160.274565 
L 252.698728 157.92789 
L 268.137463 158.761359 
L 283.576198 151.550103 
L 299.014933 133.686415 
L 314.453668 136.931749 
L 329.892404 147.495725 
L 345.331139 151.803743 
L 360.769874 151.586072 
L 376.208609 133.65704 
L 391.647344 148.516489 
L 407.08608 163.56962 
" style="fill:none;stroke:#1b9e77;stroke-linecap:square;stroke-opacity:0.5;stroke-width:1.5;"/>
   </g>
   <g id="line2d_25">
    <path clip-path="url(#p0cbca2c081)" d="M 51.99517 161.922369 
L 67.433906 141.987165 
L 82.872641 101.451193 
L 98.311376 91.30347 
L 113.750111 163.887579 
L 129.188846 167.941905 
L 144.627582 167.935074 
L 160.066317 151.716793 
L 175.505052 131.188015 
L 190.943787 152.574329 
L 206.382522 166.478686 
L 221.821257 167.695181 
L 237.259993 167.236829 
L 252.698728 155.959154 
L 268.137463 162.006944 
L 283.576198 168.109907 
L 299.014933 168.273844 
L 314.453668 168.282373 
L 329.892404 168.29639 
L 345.331139 167.856967 
L 360.769874 168.317606 
L 376.208609 168.338937 
L 391.647344 168.346908 
L 407.08608 167.88818 
" style="fill:none;stroke:#1b9e77;stroke-linecap:square;stroke-opacity:0.5;stroke-width:1.5;"/>
   </g>
   <g id="line2d_26">
    <path clip-path="url(#p0cbca2c081)" d="M 51.99517 156.249055 
L 67.433906 151.268731 
L 82.872641 159.098726 
L 98.311376 165.046508 
L 113.750111 165.384761 
L 129.188846 143.554783 
L 144.627582 165.431715 
L 160.066317 168.078337 
L 175.505052 168.298551 
L 190.943787 168.297358 
L 206.382522 168.217463 
L 221.821257 167.830556 
L 237.259993 167.180795 
L 252.698728 164.619116 
L 268.137463 164.346904 
L 283.576198 163.931732 
L 299.014933 162.679113 
L 314.453668 152.492286 
L 329.892404 128.524095 
L 345.331139 108.29901 
L 360.769874 124.568836 
L 376.208609 147.160262 
L 391.647344 166.185131 
L 407.08608 168.251976 
" style="fill:none;stroke:#1b9e77;stroke-linecap:square;stroke-opacity:0.5;stroke-width:1.5;"/>
   </g>
   <g id="line2d_27">
    <path clip-path="url(#p0cbca2c081)" d="M 51.99517 164.475328 
L 67.433906 166.500103 
L 82.872641 167.700744 
L 98.311376 167.67826 
L 113.750111 167.781994 
L 129.188846 167.830829 
L 144.627582 167.914031 
L 160.066317 168.098949 
L 175.505052 168.190674 
L 190.943787 168.220437 
L 206.382522 168.182623 
L 221.821257 168.262836 
L 237.259993 167.946367 
L 252.698728 164.677416 
L 268.137463 154.918346 
L 283.576198 153.326804 
L 299.014933 141.122159 
L 314.453668 123.643356 
L 329.892404 106.624405 
L 345.331139 132.234206 
L 360.769874 110.340206 
L 376.208609 162.965169 
L 391.647344 168.037186 
L 407.08608 168.323371 
" style="fill:none;stroke:#1b9e77;stroke-linecap:square;stroke-opacity:0.5;stroke-width:1.5;"/>
   </g>
   <g id="line2d_28">
    <path clip-path="url(#p0cbca2c081)" d="M 51.99517 163.492843 
L 67.433906 163.526899 
L 82.872641 167.285435 
L 98.311376 167.322601 
L 113.750111 167.15263 
L 129.188846 166.078371 
L 144.627582 166.923487 
L 160.066317 167.954711 
L 175.505052 168.147815 
L 190.943787 168.169053 
L 206.382522 168.05389 
L 221.821257 166.475709 
L 237.259993 166.400523 
L 252.698728 167.881439 
L 268.137463 166.704521 
L 283.576198 157.222563 
L 299.014933 163.054103 
L 314.453668 161.324787 
L 329.892404 148.210221 
L 345.331139 134.976855 
L 360.769874 141.752446 
L 376.208609 132.828047 
L 391.647344 97.848343 
L 407.08608 126.208503 
" style="fill:none;stroke:#1b9e77;stroke-linecap:square;stroke-opacity:0.5;stroke-width:1.5;"/>
   </g>
   <g id="line2d_29">
    <path clip-path="url(#p0cbca2c081)" d="M 51.99517 166.999535 
L 67.433906 167.172935 
L 82.872641 168.018877 
L 98.311376 168.095348 
L 113.750111 168.137184 
L 129.188846 167.976743 
L 144.627582 167.803123 
L 160.066317 167.960956 
L 175.505052 167.96662 
L 190.943787 167.909842 
L 206.382522 167.588615 
L 221.821257 167.251475 
L 237.259993 164.46792 
L 252.698728 161.675464 
L 268.137463 155.012587 
L 283.576198 155.650531 
L 299.014933 149.720994 
L 314.453668 141.636709 
L 329.892404 119.118228 
L 345.331139 111.289231 
L 360.769874 115.458262 
L 376.208609 148.331831 
L 391.647344 164.069476 
L 407.08608 165.683315 
" style="fill:none;stroke:#1b9e77;stroke-linecap:square;stroke-opacity:0.5;stroke-width:1.5;"/>
   </g>
   <g id="line2d_30">
    <path clip-path="url(#p0cbca2c081)" d="M 51.99517 163.902017 
L 67.433906 165.971363 
L 82.872641 168.047209 
L 98.311376 168.127339 
L 113.750111 168.260345 
L 129.188846 168.271391 
L 144.627582 168.293294 
L 160.066317 168.315344 
L 175.505052 168.330396 
L 190.943787 168.325357 
L 206.382522 168.286886 
L 221.821257 168.294796 
L 237.259993 168.272759 
L 252.698728 168.23273 
L 268.137463 167.810832 
L 283.576198 159.696738 
L 299.014933 154.941938 
L 314.453668 146.102312 
L 329.892404 109.170593 
L 345.331139 130.731013 
L 360.769874 130.633472 
L 376.208609 131.25619 
L 391.647344 131.107434 
L 407.08608 154.614054 
" style="fill:none;stroke:#1b9e77;stroke-linecap:square;stroke-opacity:0.5;stroke-width:1.5;"/>
   </g>
   <g id="line2d_31">
    <path clip-path="url(#p0cbca2c081)" d="M 51.99517 97.433636 
L 67.433906 133.779905 
L 82.872641 155.869554 
L 98.311376 154.608624 
L 113.750111 155.588259 
L 129.188846 158.310942 
L 144.627582 160.125714 
L 160.066317 156.914963 
L 175.505052 152.870748 
L 190.943787 156.798606 
L 206.382522 159.486046 
L 221.821257 158.601591 
L 237.259993 158.386716 
L 252.698728 159.442599 
L 268.137463 161.267955 
L 283.576198 163.708397 
L 299.014933 164.33939 
L 314.453668 164.186097 
L 329.892404 164.070303 
L 345.331139 165.434654 
L 360.769874 165.709443 
L 376.208609 165.195044 
L 391.647344 164.948395 
L 407.08608 167.918225 
" style="fill:none;stroke:#1b9e77;stroke-linecap:square;stroke-opacity:0.5;stroke-width:1.5;"/>
   </g>
   <g id="line2d_32">
    <path clip-path="url(#p0cbca2c081)" d="M 51.99517 164.330661 
L 67.433906 153.809257 
L 82.872641 164.844609 
L 98.311376 167.46575 
L 113.750111 167.578012 
L 129.188846 162.186872 
L 144.627582 157.031425 
L 160.066317 162.18736 
L 175.505052 165.306032 
L 190.943787 165.555034 
L 206.382522 165.1487 
L 221.821257 163.424416 
L 237.259993 164.798858 
L 252.698728 166.902674 
L 268.137463 166.810786 
L 283.576198 165.022356 
L 299.014933 162.321985 
L 314.453668 162.217609 
L 329.892404 155.323954 
L 345.331139 146.074867 
L 360.769874 137.033952 
L 376.208609 139.029799 
L 391.647344 95.18494 
L 407.08608 145.405896 
" style="fill:none;stroke:#1b9e77;stroke-linecap:square;stroke-opacity:0.5;stroke-width:1.5;"/>
   </g>
   <g id="line2d_33">
    <path clip-path="url(#p0cbca2c081)" d="M 51.99517 168.273397 
L 67.433906 168.064824 
L 82.872641 168.033518 
L 98.311376 168.065759 
L 113.750111 167.965803 
L 129.188846 168.258582 
L 144.627582 165.987509 
L 160.066317 156.866487 
L 175.505052 160.182709 
L 190.943787 157.550312 
L 206.382522 151.747475 
L 221.821257 157.148862 
L 237.259993 163.290785 
L 252.698728 162.390311 
L 268.137463 142.080019 
L 283.576198 142.728551 
L 299.014933 157.254845 
L 314.453668 139.163851 
L 329.892404 116.951628 
L 345.331139 132.305479 
L 360.769874 158.972126 
L 376.208609 159.211116 
L 391.647344 164.367907 
L 407.08608 168.133944 
" style="fill:none;stroke:#1b9e77;stroke-linecap:square;stroke-opacity:0.5;stroke-width:1.5;"/>
   </g>
   <g id="line2d_34">
    <path clip-path="url(#p0cbca2c081)" d="M 51.99517 167.624422 
L 67.433906 166.75626 
L 82.872641 167.039146 
L 98.311376 166.57392 
L 113.750111 156.789871 
L 129.188846 163.771963 
L 144.627582 157.932762 
L 160.066317 158.615946 
L 175.505052 163.509754 
L 190.943787 158.90927 
L 206.382522 139.188909 
L 221.821257 122.155286 
L 237.259993 146.840301 
L 252.698728 150.357833 
L 268.137463 137.245045 
L 283.576198 135.536947 
L 299.014933 147.574376 
L 314.453668 157.892919 
L 329.892404 164.513129 
L 345.331139 164.882158 
L 360.769874 166.776788 
L 376.208609 167.951216 
L 391.647344 168.220286 
L 407.08608 168.337298 
" style="fill:none;stroke:#1b9e77;stroke-linecap:square;stroke-opacity:0.5;stroke-width:1.5;"/>
   </g>
   <g id="line2d_35">
    <path clip-path="url(#p0cbca2c081)" d="M 51.99517 163.756824 
L 67.433906 140.610483 
L 82.872641 130.265983 
L 98.311376 156.395942 
L 113.750111 167.705594 
L 129.188846 168.071737 
L 144.627582 168.187556 
L 160.066317 168.115787 
L 175.505052 168.079663 
L 190.943787 167.83559 
L 206.382522 167.316609 
L 221.821257 168.023636 
L 237.259993 167.702649 
L 252.698728 155.989402 
L 268.137463 147.931553 
L 283.576198 140.618302 
L 299.014933 129.414481 
L 314.453668 156.244924 
L 329.892404 164.160868 
L 345.331139 159.453532 
L 360.769874 148.738097 
L 376.208609 149.048065 
L 391.647344 146.02959 
L 407.08608 165.29893 
" style="fill:none;stroke:#1b9e77;stroke-linecap:square;stroke-opacity:0.5;stroke-width:1.5;"/>
   </g>
   <g id="line2d_36">
    <path clip-path="url(#p0cbca2c081)" d="M 51.99517 168.330365 
L 67.433906 168.251585 
L 82.872641 168.255484 
L 98.311376 168.129212 
L 113.750111 168.036052 
L 129.188846 168.18323 
L 144.627582 168.239115 
L 160.066317 167.456823 
L 175.505052 167.761892 
L 190.943787 168.023858 
L 206.382522 168.182596 
L 221.821257 168.246188 
L 237.259993 168.27431 
L 252.698728 168.254948 
L 268.137463 168.136943 
L 283.576198 168.243655 
L 299.014933 166.167759 
L 314.453668 163.703797 
L 329.892404 155.789645 
L 345.331139 150.695189 
L 360.769874 125.055041 
L 376.208609 90.719611 
L 391.647344 72.688082 
L 407.08608 150.17042 
" style="fill:none;stroke:#1b9e77;stroke-linecap:square;stroke-opacity:0.5;stroke-width:1.5;"/>
   </g>
   <g id="line2d_37">
    <path clip-path="url(#p0cbca2c081)" d="M 51.99517 167.047256 
L 67.433906 167.553784 
L 82.872641 168.065834 
L 98.311376 168.032276 
L 113.750111 168.081746 
L 129.188846 168.131676 
L 144.627582 168.12683 
L 160.066317 168.251071 
L 175.505052 168.224281 
L 190.943787 166.705683 
L 206.382522 165.898925 
L 221.821257 160.945714 
L 237.259993 147.081821 
L 252.698728 126.320316 
L 268.137463 108.78318 
L 283.576198 113.321898 
L 299.014933 128.033472 
L 314.453668 139.40401 
L 329.892404 163.840773 
L 345.331139 166.294345 
L 360.769874 166.041063 
L 376.208609 165.656034 
L 391.647344 166.895253 
L 407.08608 168.258562 
" style="fill:none;stroke:#1b9e77;stroke-linecap:square;stroke-opacity:0.5;stroke-width:1.5;"/>
   </g>
   <g id="line2d_38">
    <path clip-path="url(#p0cbca2c081)" d="M 51.99517 164.445942 
L 67.433906 166.987261 
L 82.872641 168.061554 
L 98.311376 168.129683 
L 113.750111 168.157614 
L 129.188846 168.135649 
L 144.627582 167.070668 
L 160.066317 167.898087 
L 175.505052 167.926118 
L 190.943787 165.616921 
L 206.382522 166.0163 
L 221.821257 145.414034 
L 237.259993 114.937601 
L 252.698728 165.091936 
L 268.137463 165.082188 
L 283.576198 102.685635 
L 299.014933 121.701436 
L 314.453668 160.487291 
L 329.892404 167.161402 
L 345.331139 167.651927 
L 360.769874 167.283896 
L 376.208609 152.792333 
L 391.647344 130.252446 
L 407.08608 166.007881 
" style="fill:none;stroke:#1b9e77;stroke-linecap:square;stroke-opacity:0.5;stroke-width:1.5;"/>
   </g>
   <g id="line2d_39">
    <path clip-path="url(#p0cbca2c081)" d="M 51.99517 163.505892 
L 67.433906 150.420805 
L 82.872641 150.543364 
L 98.311376 152.773284 
L 113.750111 144.26792 
L 129.188846 151.553783 
L 144.627582 157.208413 
L 160.066317 161.921383 
L 175.505052 147.105849 
L 190.943787 146.809706 
L 206.382522 163.104153 
L 221.821257 154.53209 
L 237.259993 161.009249 
L 252.698728 149.698313 
L 268.137463 142.253786 
L 283.576198 156.804116 
L 299.014933 154.165149 
L 314.453668 154.584857 
L 329.892404 166.622231 
L 345.331139 167.906872 
L 360.769874 167.68482 
L 376.208609 165.956839 
L 391.647344 166.259925 
L 407.08608 168.303 
" style="fill:none;stroke:#1b9e77;stroke-linecap:square;stroke-opacity:0.5;stroke-width:1.5;"/>
   </g>
   <g id="line2d_40">
    <path clip-path="url(#p0cbca2c081)" d="M 51.99517 161.440155 
L 67.433906 107.010375 
L 82.872641 149.660022 
L 98.311376 166.63192 
L 113.750111 167.527153 
L 129.188846 166.424179 
L 144.627582 132.152634 
L 160.066317 111.241484 
L 175.505052 160.073719 
L 190.943787 167.459841 
L 206.382522 165.504967 
L 221.821257 154.30475 
L 237.259993 159.293433 
L 252.698728 167.443258 
L 268.137463 168.163882 
L 283.576198 168.129832 
L 299.014933 168.016289 
L 314.453668 167.821331 
L 329.892404 167.942109 
L 345.331139 168.229118 
L 360.769874 168.144853 
L 376.208609 163.765553 
L 391.647344 141.865309 
L 407.08608 146.749635 
" style="fill:none;stroke:#1b9e77;stroke-linecap:square;stroke-opacity:0.5;stroke-width:1.5;"/>
   </g>
   <g id="line2d_41">
    <path clip-path="url(#p0cbca2c081)" d="M 51.99517 166.475769 
L 67.433906 167.483407 
L 82.872641 165.40945 
L 98.311376 162.179969 
L 113.750111 160.213754 
L 129.188846 164.28482 
L 144.627582 161.642507 
L 160.066317 161.309752 
L 175.505052 163.504948 
L 190.943787 164.644325 
L 206.382522 159.579465 
L 221.821257 141.651343 
L 237.259993 153.572714 
L 252.698728 123.969489 
L 268.137463 80.547352 
L 283.576198 136.456311 
L 299.014933 160.830282 
L 314.453668 165.152163 
L 329.892404 167.093632 
L 345.331139 167.416809 
L 360.769874 167.718227 
L 376.208609 167.793614 
L 391.647344 167.80065 
L 407.08608 168.265049 
" style="fill:none;stroke:#1b9e77;stroke-linecap:square;stroke-opacity:0.5;stroke-width:1.5;"/>
   </g>
   <g id="line2d_42">
    <path clip-path="url(#p0cbca2c081)" d="M 51.99517 164.812451 
L 67.433906 155.472321 
L 82.872641 163.807188 
L 98.311376 167.589661 
L 113.750111 165.299975 
L 129.188846 157.407533 
L 144.627582 153.440809 
L 160.066317 143.631684 
L 175.505052 149.802473 
L 190.943787 154.563996 
L 206.382522 159.855334 
L 221.821257 164.14652 
L 237.259993 166.883587 
L 252.698728 167.544924 
L 268.137463 167.851005 
L 283.576198 167.636552 
L 299.014933 167.385193 
L 314.453668 167.733434 
L 329.892404 167.689597 
L 345.331139 167.879426 
L 360.769874 157.669001 
L 376.208609 138.068941 
L 391.647344 91.36466 
L 407.08608 137.459526 
" style="fill:none;stroke:#1b9e77;stroke-linecap:square;stroke-opacity:0.5;stroke-width:1.5;"/>
   </g>
   <g id="line2d_43">
    <path clip-path="url(#p0cbca2c081)" d="M 51.99517 161.256659 
L 67.433906 127.351109 
L 82.872641 154.852206 
L 98.311376 165.272502 
L 113.750111 167.092028 
L 129.188846 165.718413 
L 144.627582 163.826007 
L 160.066317 165.78508 
L 175.505052 167.001571 
L 190.943787 167.453122 
L 206.382522 167.57439 
L 221.821257 167.125892 
L 237.259993 165.822794 
L 252.698728 165.929409 
L 268.137463 160.615216 
L 283.576198 159.553555 
L 299.014933 145.22366 
L 314.453668 153.267352 
L 329.892404 156.359623 
L 345.331139 155.68538 
L 360.769874 151.14012 
L 376.208609 148.860556 
L 391.647344 128.647304 
L 407.08608 133.581849 
" style="fill:none;stroke:#1b9e77;stroke-linecap:square;stroke-opacity:0.5;stroke-width:1.5;"/>
   </g>
   <g id="line2d_44">
    <path clip-path="url(#p0cbca2c081)" d="M 51.99517 168.354866 
L 67.433906 168.353504 
L 82.872641 168.314802 
L 98.311376 168.093529 
L 113.750111 167.13485 
L 129.188846 163.179127 
L 144.627582 151.008097 
L 160.066317 156.25495 
L 175.505052 162.819343 
L 190.943787 107.687388 
L 206.382522 64.49888 
L 221.821257 140.940492 
L 237.259993 165.605175 
L 252.698728 162.010218 
L 268.137463 160.547872 
L 283.576198 165.117423 
L 299.014933 167.255635 
L 314.453668 167.571536 
L 329.892404 167.307207 
L 345.331139 161.03358 
L 360.769874 160.760206 
L 376.208609 167.114002 
L 391.647344 167.377269 
L 407.08608 166.65585 
" style="fill:none;stroke:#1b9e77;stroke-linecap:square;stroke-opacity:0.5;stroke-width:1.5;"/>
   </g>
   <g id="line2d_45">
    <path clip-path="url(#p0cbca2c081)" d="M 51.99517 133.070232 
L 67.433906 107.549007 
L 82.872641 135.513971 
L 98.311376 150.816699 
L 113.750111 111.006615 
L 129.188846 158.596751 
L 144.627582 168.206364 
L 160.066317 168.154425 
L 175.505052 168.243976 
L 190.943787 168.187104 
L 206.382522 168.187385 
L 221.821257 168.239223 
L 237.259993 168.200855 
L 252.698728 167.85986 
L 268.137463 166.274102 
L 283.576198 167.221156 
L 299.014933 166.485225 
L 314.453668 166.018007 
L 329.892404 167.081357 
L 345.331139 167.599247 
L 360.769874 167.4759 
L 376.208609 164.130436 
L 391.647344 139.917143 
L 407.08608 150.96076 
" style="fill:none;stroke:#1b9e77;stroke-linecap:square;stroke-opacity:0.5;stroke-width:1.5;"/>
   </g>
   <g id="line2d_46">
    <path clip-path="url(#p0cbca2c081)" d="M 51.99517 165.87971 
L 67.433906 151.947637 
L 82.872641 134.839877 
L 98.311376 126.998168 
L 113.750111 152.500263 
L 129.188846 157.17305 
L 144.627582 148.739554 
L 160.066317 134.495361 
L 175.505052 110.749523 
L 190.943787 160.509939 
L 206.382522 162.314487 
L 221.821257 152.741213 
L 237.259993 164.428989 
L 252.698728 168.275691 
L 268.137463 168.335927 
L 283.576198 168.345002 
L 299.014933 168.348919 
L 314.453668 168.240787 
L 329.892404 167.526916 
L 345.331139 168.356566 
L 360.769874 168.103591 
L 376.208609 164.289755 
L 391.647344 165.069448 
L 407.08608 166.785429 
" style="fill:none;stroke:#1b9e77;stroke-linecap:square;stroke-opacity:0.5;stroke-width:1.5;"/>
   </g>
   <g id="line2d_47">
    <path clip-path="url(#p0cbca2c081)" d="M 51.99517 163.409445 
L 67.433906 122.281403 
L 82.872641 104.33177 
L 98.311376 137.117115 
L 113.750111 148.726173 
L 129.188846 141.365157 
L 144.627582 148.823073 
L 160.066317 162.381222 
L 175.505052 167.599395 
L 190.943787 167.965892 
L 206.382522 168.08335 
L 221.821257 166.554305 
L 237.259993 167.279407 
L 252.698728 168.289673 
L 268.137463 168.207621 
L 283.576198 166.450462 
L 299.014933 167.326199 
L 314.453668 163.390894 
L 329.892404 154.779761 
L 345.331139 155.532159 
L 360.769874 158.368851 
L 376.208609 163.156251 
L 391.647344 167.036288 
L 407.08608 166.53993 
" style="fill:none;stroke:#1b9e77;stroke-linecap:square;stroke-opacity:0.5;stroke-width:1.5;"/>
   </g>
   <g id="line2d_48">
    <path clip-path="url(#p0cbca2c081)" d="M 51.99517 162.0614 
L 67.433906 166.045198 
L 82.872641 167.802455 
L 98.311376 167.70358 
L 113.750111 167.814792 
L 129.188846 167.771319 
L 144.627582 167.894583 
L 160.066317 168.144172 
L 175.505052 168.233 
L 190.943787 168.181765 
L 206.382522 167.890033 
L 221.821257 167.368495 
L 237.259993 167.546217 
L 252.698728 168.019125 
L 268.137463 167.531873 
L 283.576198 121.239911 
L 299.014933 82.089547 
L 314.453668 58.699214 
L 329.892404 162.086433 
L 345.331139 165.453007 
L 360.769874 164.587554 
L 376.208609 165.754095 
L 391.647344 166.817844 
L 407.08608 168.26019 
" style="fill:none;stroke:#1b9e77;stroke-linecap:square;stroke-opacity:0.5;stroke-width:1.5;"/>
   </g>
   <g id="line2d_49">
    <path clip-path="url(#p0cbca2c081)" d="M 51.99517 161.321405 
L 67.433906 160.489425 
L 82.872641 162.382725 
L 98.311376 164.882697 
L 113.750111 165.45309 
L 129.188846 161.662073 
L 144.627582 157.052436 
L 160.066317 158.659312 
L 175.505052 157.172048 
L 190.943787 153.420456 
L 206.382522 146.634754 
L 221.821257 135.250066 
L 237.259993 131.879679 
L 252.698728 165.794228 
L 268.137463 163.606263 
L 283.576198 161.214753 
L 299.014933 159.018796 
L 314.453668 161.962849 
L 329.892404 160.446092 
L 345.331139 157.842749 
L 360.769874 160.574588 
L 376.208609 156.189645 
L 391.647344 136.484965 
L 407.08608 165.600699 
" style="fill:none;stroke:#1b9e77;stroke-linecap:square;stroke-opacity:0.5;stroke-width:1.5;"/>
   </g>
   <g id="line2d_50">
    <path clip-path="url(#p0cbca2c081)" d="M 51.99517 106.691192 
L 67.433906 55.157843 
L 82.872641 149.638478 
L 98.311376 153.082238 
L 113.750111 156.712361 
L 129.188846 155.519362 
L 144.627582 159.24846 
L 160.066317 163.230868 
L 175.505052 165.013526 
L 190.943787 164.09421 
L 206.382522 164.463713 
L 221.821257 165.528034 
L 237.259993 166.240004 
L 252.698728 165.981622 
L 268.137463 166.082894 
L 283.576198 166.412397 
L 299.014933 166.960707 
L 314.453668 167.346394 
L 329.892404 167.684434 
L 345.331139 167.585104 
L 360.769874 167.747519 
L 376.208609 168.084132 
L 391.647344 168.184745 
L 407.08608 168.305562 
" style="fill:none;stroke:#1b9e77;stroke-linecap:square;stroke-opacity:0.5;stroke-width:1.5;"/>
   </g>
   <g id="line2d_51">
    <path clip-path="url(#p0cbca2c081)" d="M 51.99517 167.821264 
L 67.433906 167.377569 
L 82.872641 166.871322 
L 98.311376 168.012446 
L 113.750111 167.824733 
L 129.188846 162.853389 
L 144.627582 157.23425 
L 160.066317 147.759581 
L 175.505052 135.285808 
L 190.943787 132.227281 
L 206.382522 139.365536 
L 221.821257 139.922627 
L 237.259993 142.905632 
L 252.698728 153.832802 
L 268.137463 157.291241 
L 283.576198 159.759459 
L 299.014933 160.388152 
L 314.453668 162.921751 
L 329.892404 160.945122 
L 345.331139 147.501193 
L 360.769874 163.181567 
L 376.208609 167.200886 
L 391.647344 168.245839 
L 407.08608 168.266353 
" style="fill:none;stroke:#1b9e77;stroke-linecap:square;stroke-opacity:0.5;stroke-width:1.5;"/>
   </g>
   <g id="line2d_52">
    <path clip-path="url(#p0cbca2c081)" d="M 51.99517 110.299481 
L 67.433906 88.783669 
L 82.872641 138.964438 
L 98.311376 152.146433 
L 113.750111 161.754664 
L 129.188846 164.352557 
L 144.627582 165.5067 
L 160.066317 164.617479 
L 175.505052 164.971899 
L 190.943787 165.612968 
L 206.382522 166.475402 
L 221.821257 166.95184 
L 237.259993 166.96104 
L 252.698728 165.037117 
L 268.137463 161.532258 
L 283.576198 166.049333 
L 299.014933 167.437901 
L 314.453668 167.817946 
L 329.892404 167.813824 
L 345.331139 120.416387 
L 360.769874 166.546639 
L 376.208609 168.29566 
L 391.647344 168.331286 
L 407.08608 168.318879 
" style="fill:none;stroke:#1b9e77;stroke-linecap:square;stroke-opacity:0.5;stroke-width:1.5;"/>
   </g>
   <g id="line2d_53">
    <path clip-path="url(#p0cbca2c081)" d="M 51.99517 166.263214 
L 67.433906 159.530474 
L 82.872641 154.040334 
L 98.311376 146.609127 
L 113.750111 153.45016 
L 129.188846 160.181241 
L 144.627582 147.125938 
L 160.066317 122.430242 
L 175.505052 141.141712 
L 190.943787 135.608079 
L 206.382522 138.006663 
L 221.821257 156.257073 
L 237.259993 165.42141 
L 252.698728 165.999162 
L 268.137463 165.053842 
L 283.576198 162.61086 
L 299.014933 164.794316 
L 314.453668 166.987873 
L 329.892404 167.179818 
L 345.331139 165.084272 
L 360.769874 160.868657 
L 376.208609 164.252466 
L 391.647344 167.77821 
L 407.08608 168.320646 
" style="fill:none;stroke:#1b9e77;stroke-linecap:square;stroke-opacity:0.5;stroke-width:1.5;"/>
   </g>
   <g id="line2d_54">
    <path clip-path="url(#p0cbca2c081)" d="M 51.99517 138.381583 
L 67.433906 137.697753 
L 82.872641 159.807049 
L 98.311376 159.029252 
L 113.750111 158.822547 
L 129.188846 159.634313 
L 144.627582 134.654224 
L 160.066317 112.258803 
L 175.505052 122.973298 
L 190.943787 148.454912 
L 206.382522 160.854556 
L 221.821257 162.087257 
L 237.259993 164.270008 
L 252.698728 165.696707 
L 268.137463 167.142902 
L 283.576198 167.525685 
L 299.014933 167.926345 
L 314.453668 168.057664 
L 329.892404 168.191832 
L 345.331139 168.224753 
L 360.769874 168.277724 
L 376.208609 168.331134 
L 391.647344 168.341795 
L 407.08608 168.353695 
" style="fill:none;stroke:#1b9e77;stroke-linecap:square;stroke-opacity:0.5;stroke-width:1.5;"/>
   </g>
   <g id="line2d_55">
    <path clip-path="url(#p0cbca2c081)" d="M 51.99517 168.318753 
L 67.433906 168.252035 
L 82.872641 168.299957 
L 98.311376 168.338533 
L 113.750111 168.347532 
L 129.188846 168.156493 
L 144.627582 167.51145 
L 160.066317 166.45545 
L 175.505052 165.065026 
L 190.943787 164.644563 
L 206.382522 164.274568 
L 221.821257 162.956688 
L 237.259993 160.147515 
L 252.698728 142.719172 
L 268.137463 67.810753 
L 283.576198 92.279526 
L 299.014933 141.518164 
L 314.453668 154.710082 
L 329.892404 167.120838 
L 345.331139 167.694721 
L 360.769874 167.613915 
L 376.208609 167.067718 
L 391.647344 167.386124 
L 407.08608 168.306225 
" style="fill:none;stroke:#1b9e77;stroke-linecap:square;stroke-opacity:0.5;stroke-width:1.5;"/>
   </g>
   <g id="line2d_56">
    <path clip-path="url(#p0cbca2c081)" d="M 51.99517 167.701904 
L 67.433906 153.213602 
L 82.872641 97.953235 
L 98.311376 139.521047 
L 113.750111 166.979637 
L 129.188846 167.009572 
L 144.627582 167.274591 
L 160.066317 166.704914 
L 175.505052 167.439789 
L 190.943787 167.676136 
L 206.382522 167.86714 
L 221.821257 167.944505 
L 237.259993 167.635239 
L 252.698728 164.696242 
L 268.137463 155.329023 
L 283.576198 161.268001 
L 299.014933 147.63965 
L 314.453668 145.183314 
L 329.892404 151.014996 
L 345.331139 163.171396 
L 360.769874 153.645478 
L 376.208609 152.887614 
L 391.647344 152.095393 
L 407.08608 153.14338 
" style="fill:none;stroke:#1b9e77;stroke-linecap:square;stroke-opacity:0.5;stroke-width:1.5;"/>
   </g>
   <g id="line2d_57">
    <path clip-path="url(#p0cbca2c081)" d="M 51.99517 167.539394 
L 67.433906 167.689824 
L 82.872641 168.051998 
L 98.311376 168.135773 
L 113.750111 167.85854 
L 129.188846 167.199929 
L 144.627582 164.875201 
L 160.066317 165.426702 
L 175.505052 163.306931 
L 190.943787 166.56876 
L 206.382522 165.688724 
L 221.821257 162.927566 
L 237.259993 166.094354 
L 252.698728 165.360348 
L 268.137463 161.561171 
L 283.576198 159.310797 
L 299.014933 162.443102 
L 314.453668 158.520291 
L 329.892404 100.669519 
L 345.331139 75.679428 
L 360.769874 142.285131 
L 376.208609 150.069505 
L 391.647344 160.065117 
L 407.08608 167.6677 
" style="fill:none;stroke:#1b9e77;stroke-linecap:square;stroke-opacity:0.5;stroke-width:1.5;"/>
   </g>
   <g id="line2d_58">
    <path clip-path="url(#p0cbca2c081)" d="M 51.99517 154.205392 
L 67.433906 138.653147 
L 82.872641 151.399786 
L 98.311376 152.683333 
L 113.750111 164.701397 
L 129.188846 167.575281 
L 144.627582 168.044371 
L 160.066317 167.826619 
L 175.505052 167.861296 
L 190.943787 168.085395 
L 206.382522 168.196109 
L 221.821257 168.208565 
L 237.259993 168.165986 
L 252.698728 168.205463 
L 268.137463 167.390941 
L 283.576198 159.184347 
L 299.014933 155.746178 
L 314.453668 144.822489 
L 329.892404 124.119222 
L 345.331139 160.220697 
L 360.769874 166.581037 
L 376.208609 147.41811 
L 391.647344 97.386996 
L 407.08608 168.313637 
" style="fill:none;stroke:#1b9e77;stroke-linecap:square;stroke-opacity:0.5;stroke-width:1.5;"/>
   </g>
   <g id="line2d_59">
    <path clip-path="url(#p0cbca2c081)" d="M 51.99517 165.931906 
L 67.433906 167.229111 
L 82.872641 167.542733 
L 98.311376 158.012895 
L 113.750111 142.922677 
L 129.188846 155.88646 
L 144.627582 165.610216 
L 160.066317 167.375176 
L 175.505052 164.558258 
L 190.943787 157.632489 
L 206.382522 165.849189 
L 221.821257 167.592439 
L 237.259993 167.808438 
L 252.698728 167.291176 
L 268.137463 165.738798 
L 283.576198 166.47852 
L 299.014933 167.759792 
L 314.453668 168.318559 
L 329.892404 167.694917 
L 345.331139 82.797775 
L 360.769874 137.900214 
L 376.208609 132.283606 
L 391.647344 134.728248 
L 407.08608 160.05221 
" style="fill:none;stroke:#1b9e77;stroke-linecap:square;stroke-opacity:0.5;stroke-width:1.5;"/>
   </g>
   <g id="line2d_60">
    <path clip-path="url(#p0cbca2c081)" d="M 51.99517 148.642985 
L 67.433906 114.168164 
L 82.872641 142.699219 
L 98.311376 156.876047 
L 113.750111 159.961463 
L 129.188846 145.521536 
L 144.627582 145.727562 
L 160.066317 161.470575 
L 175.505052 166.545354 
L 190.943787 166.955189 
L 206.382522 167.245522 
L 221.821257 166.579951 
L 237.259993 167.488723 
L 252.698728 167.545114 
L 268.137463 167.744015 
L 283.576198 167.785699 
L 299.014933 167.767151 
L 314.453668 167.532929 
L 329.892404 167.499016 
L 345.331139 167.775234 
L 360.769874 167.648242 
L 376.208609 158.986913 
L 391.647344 147.61295 
L 407.08608 107.216243 
" style="fill:none;stroke:#1b9e77;stroke-linecap:square;stroke-opacity:0.5;stroke-width:1.5;"/>
   </g>
   <g id="line2d_61">
    <path clip-path="url(#p0cbca2c081)" d="M 51.99517 168.328423 
L 67.433906 168.295598 
L 82.872641 168.331722 
L 98.311376 168.329613 
L 113.750111 168.321133 
L 129.188846 168.336777 
L 144.627582 168.337047 
L 160.066317 168.355091 
L 175.505052 166.419831 
L 190.943787 166.253273 
L 206.382522 165.612621 
L 221.821257 162.030134 
L 237.259993 157.254282 
L 252.698728 146.163087 
L 268.137463 141.816203 
L 283.576198 144.238884 
L 299.014933 73.943533 
L 314.453668 105.816069 
L 329.892404 158.720478 
L 345.331139 163.3364 
L 360.769874 165.550078 
L 376.208609 166.047501 
L 391.647344 166.934367 
L 407.08608 168.223654 
" style="fill:none;stroke:#1b9e77;stroke-linecap:square;stroke-opacity:0.5;stroke-width:1.5;"/>
   </g>
   <g id="line2d_62">
    <path clip-path="url(#p0cbca2c081)" d="M 51.99517 98.57508 
L 67.433906 94.152708 
L 82.872641 161.976131 
L 98.311376 163.627286 
L 113.750111 164.105487 
L 129.188846 157.914977 
L 144.627582 144.27013 
L 160.066317 161.144033 
L 175.505052 165.057752 
L 190.943787 164.576049 
L 206.382522 162.870068 
L 221.821257 161.214953 
L 237.259993 161.828255 
L 252.698728 163.681068 
L 268.137463 165.059525 
L 283.576198 164.490208 
L 299.014933 163.100467 
L 314.453668 163.011203 
L 329.892404 164.832802 
L 345.331139 166.004202 
L 360.769874 165.249225 
L 376.208609 162.079268 
L 391.647344 158.541724 
L 407.08608 167.633197 
" style="fill:none;stroke:#1b9e77;stroke-linecap:square;stroke-opacity:0.5;stroke-width:1.5;"/>
   </g>
   <g id="line2d_63">
    <path clip-path="url(#p0cbca2c081)" d="M 51.99517 167.207714 
L 67.433906 167.196937 
L 82.872641 167.881811 
L 98.311376 168.035283 
L 113.750111 168.124309 
L 129.188846 167.631841 
L 144.627582 167.216561 
L 160.066317 166.219378 
L 175.505052 167.162472 
L 190.943787 167.643505 
L 206.382522 167.777039 
L 221.821257 167.972846 
L 237.259993 167.216478 
L 252.698728 159.547105 
L 268.137463 149.30687 
L 283.576198 143.730851 
L 299.014933 137.000655 
L 314.453668 124.217636 
L 329.892404 115.010978 
L 345.331139 133.606195 
L 360.769874 139.910412 
L 376.208609 149.34777 
L 391.647344 167.722618 
L 407.08608 168.308534 
" style="fill:none;stroke:#1b9e77;stroke-linecap:square;stroke-opacity:0.5;stroke-width:1.5;"/>
   </g>
   <g id="line2d_64">
    <path clip-path="url(#p0cbca2c081)" d="M 51.99517 168.353382 
L 67.433906 168.312355 
L 82.872641 168.244371 
L 98.311376 167.678453 
L 113.750111 167.270415 
L 129.188846 165.587257 
L 144.627582 166.39036 
L 160.066317 165.429787 
L 175.505052 164.781598 
L 190.943787 157.674735 
L 206.382522 143.181127 
L 221.821257 118.73613 
L 237.259993 149.224779 
L 252.698728 152.692437 
L 268.137463 154.275399 
L 283.576198 124.232567 
L 299.014933 113.454446 
L 314.453668 158.004465 
L 329.892404 164.114485 
L 345.331139 158.623135 
L 360.769874 164.09635 
L 376.208609 168.01059 
L 391.647344 168.283828 
L 407.08608 168.343347 
" style="fill:none;stroke:#1b9e77;stroke-linecap:square;stroke-opacity:0.5;stroke-width:1.5;"/>
   </g>
   <g id="line2d_65">
    <path clip-path="url(#p0cbca2c081)" d="M 51.99517 168.334389 
L 67.433906 168.298383 
L 82.872641 168.33169 
L 98.311376 168.321754 
L 113.750111 168.284988 
L 129.188846 167.992723 
L 144.627582 161.41888 
L 160.066317 168.094019 
L 175.505052 168.172489 
L 190.943787 167.150685 
L 206.382522 161.791441 
L 221.821257 167.534623 
L 237.259993 166.655587 
L 252.698728 152.024532 
L 268.137463 139.403278 
L 283.576198 128.22162 
L 299.014933 108.373663 
L 314.453668 123.185951 
L 329.892404 147.367024 
L 345.331139 144.770126 
L 360.769874 150.830595 
L 376.208609 164.292964 
L 391.647344 167.836836 
L 407.08608 168.307559 
" style="fill:none;stroke:#1b9e77;stroke-linecap:square;stroke-opacity:0.5;stroke-width:1.5;"/>
   </g>
   <g id="line2d_66">
    <path clip-path="url(#p0cbca2c081)" d="M 51.99517 167.536603 
L 67.433906 168.125142 
L 82.872641 168.293986 
L 98.311376 168.293717 
L 113.750111 168.301536 
L 129.188846 168.302415 
L 144.627582 168.260578 
L 160.066317 168.326983 
L 175.505052 168.290377 
L 190.943787 166.562983 
L 206.382522 165.416797 
L 221.821257 152.279662 
L 237.259993 114.936475 
L 252.698728 102.07986 
L 268.137463 129.690303 
L 283.576198 121.152603 
L 299.014933 138.039087 
L 314.453668 160.229438 
L 329.892404 167.189392 
L 345.331139 167.273956 
L 360.769874 167.24735 
L 376.208609 167.026669 
L 391.647344 165.153148 
L 407.08608 166.986736 
" style="fill:none;stroke:#1b9e77;stroke-linecap:square;stroke-opacity:0.5;stroke-width:1.5;"/>
   </g>
   <g id="line2d_67">
    <path clip-path="url(#p0cbca2c081)" d="M 51.99517 160.639512 
L 67.433906 153.399779 
L 82.872641 165.657462 
L 98.311376 165.854804 
L 113.750111 165.093992 
L 129.188846 160.158336 
L 144.627582 163.705829 
L 160.066317 166.537547 
L 175.505052 167.176108 
L 190.943787 167.009851 
L 206.382522 167.391465 
L 221.821257 167.701719 
L 237.259993 167.935048 
L 252.698728 167.94778 
L 268.137463 167.992614 
L 283.576198 168.103098 
L 299.014933 168.099049 
L 314.453668 168.124575 
L 329.892404 160.685076 
L 345.331139 146.897045 
L 360.769874 134.375041 
L 376.208609 147.278916 
L 391.647344 71.717728 
L 407.08608 125.513424 
" style="fill:none;stroke:#1b9e77;stroke-linecap:square;stroke-opacity:0.5;stroke-width:1.5;"/>
   </g>
   <g id="line2d_68">
    <path clip-path="url(#p0cbca2c081)" d="M 51.99517 166.812179 
L 67.433906 166.304561 
L 82.872641 159.428578 
L 98.311376 149.093237 
L 113.750111 136.059428 
L 129.188846 156.111602 
L 144.627582 158.585082 
L 160.066317 157.557123 
L 175.505052 154.773736 
L 190.943787 134.489702 
L 206.382522 101.253278 
L 221.821257 129.390382 
L 237.259993 153.367294 
L 252.698728 167.606488 
L 268.137463 168.264448 
L 283.576198 168.255395 
L 299.014933 168.273854 
L 314.453668 168.269502 
L 329.892404 168.285344 
L 345.331139 168.318357 
L 360.769874 168.331804 
L 376.208609 168.281042 
L 391.647344 162.399543 
L 407.08608 165.483841 
" style="fill:none;stroke:#1b9e77;stroke-linecap:square;stroke-opacity:0.5;stroke-width:1.5;"/>
   </g>
   <g id="line2d_69">
    <path clip-path="url(#p0cbca2c081)" d="M 51.99517 160.321258 
L 67.433906 126.696012 
L 82.872641 113.001434 
L 98.311376 129.835238 
L 113.750111 139.844057 
L 129.188846 146.142024 
L 144.627582 146.316008 
L 160.066317 137.52903 
L 175.505052 148.298176 
L 190.943787 164.749007 
L 206.382522 167.642015 
L 221.821257 166.315835 
L 237.259993 167.077618 
L 252.698728 168.176316 
L 268.137463 168.312509 
L 283.576198 168.324662 
L 299.014933 168.342234 
L 314.453668 168.348893 
L 329.892404 168.305017 
L 345.331139 168.337998 
L 360.769874 168.351055 
L 376.208609 168.352736 
L 391.647344 168.254374 
L 407.08608 168.122305 
" style="fill:none;stroke:#1b9e77;stroke-linecap:square;stroke-opacity:0.5;stroke-width:1.5;"/>
   </g>
   <g id="line2d_70">
    <path clip-path="url(#p0cbca2c081)" d="M 51.99517 125.483955 
L 67.433906 150.212567 
L 82.872641 163.77066 
L 98.311376 163.750824 
L 113.750111 163.869964 
L 129.188846 161.208754 
L 144.627582 157.015004 
L 160.066317 161.460222 
L 175.505052 161.79147 
L 190.943787 157.78699 
L 206.382522 151.339771 
L 221.821257 150.069189 
L 237.259993 150.818821 
L 252.698728 156.817441 
L 268.137463 160.409017 
L 283.576198 162.314589 
L 299.014933 164.009856 
L 314.453668 165.767339 
L 329.892404 166.838614 
L 345.331139 167.201553 
L 360.769874 167.580883 
L 376.208609 164.860381 
L 391.647344 149.319819 
L 407.08608 121.298116 
" style="fill:none;stroke:#1b9e77;stroke-linecap:square;stroke-opacity:0.5;stroke-width:1.5;"/>
   </g>
   <g id="line2d_71">
    <path clip-path="url(#p0cbca2c081)" d="M 51.99517 159.005772 
L 67.433906 84.6967 
L 82.872641 104.095125 
L 98.311376 145.681269 
L 113.750111 164.767672 
L 129.188846 166.321294 
L 144.627582 166.682453 
L 160.066317 165.746329 
L 175.505052 167.121187 
L 190.943787 167.863581 
L 206.382522 168.104418 
L 221.821257 168.154229 
L 237.259993 167.219743 
L 252.698728 162.233762 
L 268.137463 160.488571 
L 283.576198 167.535389 
L 299.014933 166.280848 
L 314.453668 165.669839 
L 329.892404 164.742876 
L 345.331139 164.017191 
L 360.769874 149.012719 
L 376.208609 149.411741 
L 391.647344 155.539954 
L 407.08608 164.603122 
" style="fill:none;stroke:#1b9e77;stroke-linecap:square;stroke-opacity:0.5;stroke-width:1.5;"/>
   </g>
   <g id="line2d_72">
    <path clip-path="url(#p0cbca2c081)" d="M 51.99517 164.911786 
L 67.433906 166.108198 
L 82.872641 167.417917 
L 98.311376 167.401252 
L 113.750111 167.640265 
L 129.188846 167.851182 
L 144.627582 168.037871 
L 160.066317 168.069372 
L 175.505052 168.147879 
L 190.943787 168.157394 
L 206.382522 168.174606 
L 221.821257 167.562625 
L 237.259993 166.828902 
L 252.698728 167.52556 
L 268.137463 166.846762 
L 283.576198 156.971392 
L 299.014933 140.451551 
L 314.453668 156.887525 
L 329.892404 155.825852 
L 345.331139 153.988392 
L 360.769874 151.603707 
L 376.208609 140.093367 
L 391.647344 76.990355 
L 407.08608 121.502086 
" style="fill:none;stroke:#1b9e77;stroke-linecap:square;stroke-opacity:0.5;stroke-width:1.5;"/>
   </g>
   <g id="line2d_73">
    <path clip-path="url(#p0cbca2c081)" d="M 51.99517 151.570489 
L 67.433906 125.476989 
L 82.872641 156.733594 
L 98.311376 160.234873 
L 113.750111 165.346537 
L 129.188846 167.211186 
L 144.627582 167.795063 
L 160.066317 167.69314 
L 175.505052 167.860392 
L 190.943787 167.977893 
L 206.382522 168.048219 
L 221.821257 168.073015 
L 237.259993 168.063808 
L 252.698728 168.140681 
L 268.137463 167.553565 
L 283.576198 165.848856 
L 299.014933 155.517043 
L 314.453668 160.478134 
L 329.892404 155.958623 
L 345.331139 149.09052 
L 360.769874 145.42953 
L 376.208609 134.354116 
L 391.647344 106.745961 
L 407.08608 153.793574 
" style="fill:none;stroke:#1b9e77;stroke-linecap:square;stroke-opacity:0.5;stroke-width:1.5;"/>
   </g>
   <g id="line2d_74">
    <path clip-path="url(#p0cbca2c081)" d="M 51.99517 168.309621 
L 67.433906 168.228515 
L 82.872641 168.289829 
L 98.311376 168.313635 
L 113.750111 168.317888 
L 129.188846 168.338738 
L 144.627582 167.67333 
L 160.066317 166.036701 
L 175.505052 165.904705 
L 190.943787 166.4793 
L 206.382522 166.18672 
L 221.821257 162.152785 
L 237.259993 157.829337 
L 252.698728 139.537724 
L 268.137463 119.456573 
L 283.576198 116.695074 
L 299.014933 138.519796 
L 314.453668 134.528564 
L 329.892404 141.703927 
L 345.331139 155.492525 
L 360.769874 159.471052 
L 376.208609 162.645358 
L 391.647344 166.581643 
L 407.08608 168.30246 
" style="fill:none;stroke:#1b9e77;stroke-linecap:square;stroke-opacity:0.5;stroke-width:1.5;"/>
   </g>
   <g id="line2d_75">
    <path clip-path="url(#p0cbca2c081)" d="M 51.99517 143.025474 
L 67.433906 159.259474 
L 82.872641 156.168008 
L 98.311376 155.425803 
L 113.750111 154.731342 
L 129.188846 144.292353 
L 144.627582 137.979653 
L 160.066317 130.383931 
L 175.505052 132.128189 
L 190.943787 153.677477 
L 206.382522 165.21119 
L 221.821257 165.564049 
L 237.259993 164.140289 
L 252.698728 160.750344 
L 268.137463 159.96692 
L 283.576198 163.173753 
L 299.014933 164.212184 
L 314.453668 167.636271 
L 329.892404 167.564502 
L 345.331139 153.316613 
L 360.769874 161.340032 
L 376.208609 168.341656 
L 391.647344 168.350434 
L 407.08608 168.355861 
" style="fill:none;stroke:#1b9e77;stroke-linecap:square;stroke-opacity:0.5;stroke-width:1.5;"/>
   </g>
   <g id="line2d_76">
    <path clip-path="url(#p0cbca2c081)" d="M 51.99517 160.406425 
L 67.433906 161.867163 
L 82.872641 166.830081 
L 98.311376 166.65291 
L 113.750111 166.831026 
L 129.188846 166.951752 
L 144.627582 167.165175 
L 160.066317 167.54485 
L 175.505052 167.571044 
L 190.943787 167.029824 
L 206.382522 166.627378 
L 221.821257 167.35606 
L 237.259993 167.339293 
L 252.698728 166.437008 
L 268.137463 157.929439 
L 283.576198 151.268106 
L 299.014933 146.642752 
L 314.453668 151.783822 
L 329.892404 142.70898 
L 345.331139 110.010412 
L 360.769874 98.883808 
L 376.208609 145.46195 
L 391.647344 165.479948 
L 407.08608 168.216591 
" style="fill:none;stroke:#1b9e77;stroke-linecap:square;stroke-opacity:0.5;stroke-width:1.5;"/>
   </g>
   <g id="line2d_77">
    <path clip-path="url(#p0cbca2c081)" d="M 51.99517 75.142203 
L 67.433906 162.004181 
L 82.872641 166.748085 
L 98.311376 161.011187 
L 113.750111 161.478588 
L 129.188846 162.839907 
L 144.627582 160.422055 
L 160.066317 160.439813 
L 175.505052 157.912729 
L 190.943787 139.163363 
L 206.382522 119.715112 
L 221.821257 135.822217 
L 237.259993 158.602928 
L 252.698728 168.073324 
L 268.137463 168.252132 
L 283.576198 168.24684 
L 299.014933 168.246498 
L 314.453668 168.249588 
L 329.892404 168.252016 
L 345.331139 168.29846 
L 360.769874 168.295253 
L 376.208609 168.325657 
L 391.647344 164.905736 
L 407.08608 164.54793 
" style="fill:none;stroke:#1b9e77;stroke-linecap:square;stroke-opacity:0.5;stroke-width:1.5;"/>
   </g>
   <g id="line2d_78">
    <path clip-path="url(#p0cbca2c081)" d="M 51.99517 166.699395 
L 67.433906 154.033259 
L 82.872641 117.725936 
L 98.311376 123.079394 
L 113.750111 150.399862 
L 129.188846 149.569836 
L 144.627582 153.913416 
L 160.066317 156.597451 
L 175.505052 165.252144 
L 190.943787 167.324599 
L 206.382522 167.73732 
L 221.821257 167.31812 
L 237.259993 167.134957 
L 252.698728 167.809322 
L 268.137463 167.926499 
L 283.576198 167.939672 
L 299.014933 167.389624 
L 314.453668 166.425039 
L 329.892404 163.325612 
L 345.331139 149.1016 
L 360.769874 147.057091 
L 376.208609 154.189114 
L 391.647344 145.980571 
L 407.08608 161.065965 
" style="fill:none;stroke:#1b9e77;stroke-linecap:square;stroke-opacity:0.5;stroke-width:1.5;"/>
   </g>
   <g id="line2d_79">
    <path clip-path="url(#p0cbca2c081)" d="M 51.99517 168.20096 
L 67.433906 167.560234 
L 82.872641 167.318903 
L 98.311376 167.965884 
L 113.750111 166.0151 
L 129.188846 161.198494 
L 144.627582 160.792716 
L 160.066317 156.464092 
L 175.505052 138.345279 
L 190.943787 129.469559 
L 206.382522 112.756554 
L 221.821257 140.956759 
L 237.259993 158.839967 
L 252.698728 115.227808 
L 268.137463 153.506449 
L 283.576198 164.52688 
L 299.014933 166.412496 
L 314.453668 164.664809 
L 329.892404 167.385693 
L 345.331139 167.897291 
L 360.769874 167.766591 
L 376.208609 167.092143 
L 391.647344 166.427268 
L 407.08608 168.203864 
" style="fill:none;stroke:#1b9e77;stroke-linecap:square;stroke-opacity:0.5;stroke-width:1.5;"/>
   </g>
   <g id="line2d_80">
    <path clip-path="url(#p0cbca2c081)" d="M 51.99517 161.775805 
L 67.433906 167.518705 
L 82.872641 168.146105 
L 98.311376 168.278063 
L 113.750111 166.643391 
L 129.188846 161.134805 
L 144.627582 152.590726 
L 160.066317 159.812628 
L 175.505052 159.708054 
L 190.943787 159.409028 
L 206.382522 160.383047 
L 221.821257 160.829562 
L 237.259993 153.861834 
L 252.698728 146.698952 
L 268.137463 154.526499 
L 283.576198 158.907397 
L 299.014933 165.07288 
L 314.453668 77.91445 
L 329.892404 136.115038 
L 345.331139 167.582449 
L 360.769874 167.923747 
L 376.208609 167.27897 
L 391.647344 158.37673 
L 407.08608 164.506937 
" style="fill:none;stroke:#1b9e77;stroke-linecap:square;stroke-opacity:0.5;stroke-width:1.5;"/>
   </g>
   <g id="line2d_81">
    <path clip-path="url(#p0cbca2c081)" d="M 51.99517 168.204703 
L 67.433906 166.568278 
L 82.872641 159.42812 
L 98.311376 160.144868 
L 113.750111 164.393368 
L 129.188846 167.557144 
L 144.627582 152.485742 
L 160.066317 153.096952 
L 175.505052 144.667695 
L 190.943787 126.211667 
L 206.382522 120.290286 
L 221.821257 153.611649 
L 237.259993 156.379201 
L 252.698728 165.945781 
L 268.137463 167.589297 
L 283.576198 167.151568 
L 299.014933 166.349823 
L 314.453668 162.924047 
L 329.892404 153.652733 
L 345.331139 157.719038 
L 360.769874 155.59054 
L 376.208609 156.1619 
L 391.647344 154.361849 
L 407.08608 164.509545 
" style="fill:none;stroke:#1b9e77;stroke-linecap:square;stroke-opacity:0.5;stroke-width:1.5;"/>
   </g>
   <g id="line2d_82">
    <path clip-path="url(#p0cbca2c081)" d="M 51.99517 149.927137 
L 67.433906 158.272816 
L 82.872641 163.369221 
L 98.311376 162.491445 
L 113.750111 163.226912 
L 129.188846 164.638608 
L 144.627582 163.362898 
L 160.066317 165.062442 
L 175.505052 165.560578 
L 190.943787 167.405454 
L 206.382522 166.279383 
L 221.821257 142.265274 
L 237.259993 146.79836 
L 252.698728 150.096511 
L 268.137463 162.801647 
L 283.576198 162.083246 
L 299.014933 160.232443 
L 314.453668 155.174557 
L 329.892404 147.954058 
L 345.331139 153.527625 
L 360.769874 155.351146 
L 376.208609 148.508768 
L 391.647344 138.355499 
L 407.08608 152.249768 
" style="fill:none;stroke:#1b9e77;stroke-linecap:square;stroke-opacity:0.5;stroke-width:1.5;"/>
   </g>
   <g id="line2d_83">
    <path clip-path="url(#p0cbca2c081)" d="M 51.99517 166.330765 
L 67.433906 167.504336 
L 82.872641 168.186573 
L 98.311376 168.239734 
L 113.750111 168.264475 
L 129.188846 168.043135 
L 144.627582 163.856486 
L 160.066317 168.155042 
L 175.505052 168.096119 
L 190.943787 154.712643 
L 206.382522 145.278788 
L 221.821257 133.057821 
L 237.259993 142.972994 
L 252.698728 142.010316 
L 268.137463 139.866692 
L 283.576198 120.453741 
L 299.014933 149.752913 
L 314.453668 164.33052 
L 329.892404 165.231941 
L 345.331139 149.134252 
L 360.769874 150.779154 
L 376.208609 165.993796 
L 391.647344 168.178797 
L 407.08608 166.564764 
" style="fill:none;stroke:#1b9e77;stroke-linecap:square;stroke-opacity:0.5;stroke-width:1.5;"/>
   </g>
   <g id="line2d_84">
    <path clip-path="url(#p0cbca2c081)" d="M 51.99517 158.011498 
L 67.433906 139.614193 
L 82.872641 137.642416 
L 98.311376 141.996169 
L 113.750111 146.849671 
L 129.188846 149.845325 
L 144.627582 144.93844 
L 160.066317 147.639564 
L 175.505052 151.661876 
L 190.943787 165.346519 
L 206.382522 167.949338 
L 221.821257 166.642676 
L 237.259993 167.81779 
L 252.698728 168.198075 
L 268.137463 168.302113 
L 283.576198 168.324069 
L 299.014933 168.312592 
L 314.453668 165.687102 
L 329.892404 164.143021 
L 345.331139 161.981434 
L 360.769874 156.13758 
L 376.208609 149.019566 
L 391.647344 146.096206 
L 407.08608 162.838571 
" style="fill:none;stroke:#1b9e77;stroke-linecap:square;stroke-opacity:0.5;stroke-width:1.5;"/>
   </g>
   <g id="line2d_85">
    <path clip-path="url(#p0cbca2c081)" d="M 51.99517 168.009938 
L 67.433906 167.413703 
L 82.872641 158.332848 
L 98.311376 160.491209 
L 113.750111 122.498539 
L 129.188846 157.824489 
L 144.627582 159.866155 
L 160.066317 162.344626 
L 175.505052 165.048841 
L 190.943787 162.703504 
L 206.382522 148.714913 
L 221.821257 149.024621 
L 237.259993 163.355149 
L 252.698728 141.070167 
L 268.137463 123.259553 
L 283.576198 154.385896 
L 299.014933 166.967762 
L 314.453668 166.82361 
L 329.892404 167.339397 
L 345.331139 167.748264 
L 360.769874 167.707178 
L 376.208609 167.593044 
L 391.647344 156.557235 
L 407.08608 139.915151 
" style="fill:none;stroke:#1b9e77;stroke-linecap:square;stroke-opacity:0.5;stroke-width:1.5;"/>
   </g>
   <g id="line2d_86">
    <path clip-path="url(#p0cbca2c081)" d="M 51.99517 167.884839 
L 67.433906 167.36985 
L 82.872641 167.686314 
L 98.311376 168.02092 
L 113.750111 167.89206 
L 129.188846 163.86316 
L 144.627582 143.41401 
L 160.066317 153.906036 
L 175.505052 147.491401 
L 190.943787 144.219119 
L 206.382522 146.004176 
L 221.821257 158.935773 
L 237.259993 101.595752 
L 252.698728 153.647609 
L 268.137463 166.770455 
L 283.576198 167.469952 
L 299.014933 167.599038 
L 314.453668 166.871126 
L 329.892404 164.131824 
L 345.331139 163.433408 
L 360.769874 160.963759 
L 376.208609 149.855639 
L 391.647344 146.483576 
L 407.08608 159.485996 
" style="fill:none;stroke:#1b9e77;stroke-linecap:square;stroke-opacity:0.5;stroke-width:1.5;"/>
   </g>
   <g id="line2d_87">
    <path clip-path="url(#p0cbca2c081)" d="M 51.99517 167.956954 
L 67.433906 167.976891 
L 82.872641 168.123567 
L 98.311376 167.971249 
L 113.750111 167.979834 
L 129.188846 168.196613 
L 144.627582 168.235871 
L 160.066317 168.26776 
L 175.505052 168.231583 
L 190.943787 167.770684 
L 206.382522 164.768677 
L 221.821257 167.115987 
L 237.259993 166.543079 
L 252.698728 166.065246 
L 268.137463 164.436 
L 283.576198 161.846565 
L 299.014933 159.760069 
L 314.453668 153.605315 
L 329.892404 139.523896 
L 345.331139 123.449287 
L 360.769874 119.938207 
L 376.208609 121.186543 
L 391.647344 126.577383 
L 407.08608 149.468535 
" style="fill:none;stroke:#1b9e77;stroke-linecap:square;stroke-opacity:0.5;stroke-width:1.5;"/>
   </g>
   <g id="line2d_88">
    <path clip-path="url(#p0cbca2c081)" d="M 51.99517 153.09271 
L 67.433906 162.395608 
L 82.872641 166.447675 
L 98.311376 166.464645 
L 113.750111 166.196298 
L 129.188846 161.1574 
L 144.627582 147.379089 
L 160.066317 161.547735 
L 175.505052 162.311081 
L 190.943787 157.390569 
L 206.382522 151.686124 
L 221.821257 138.401964 
L 237.259993 128.403356 
L 252.698728 156.319585 
L 268.137463 166.211699 
L 283.576198 167.68263 
L 299.014933 168.037221 
L 314.453668 168.062605 
L 329.892404 163.173501 
L 345.331139 150.054622 
L 360.769874 126.374315 
L 376.208609 162.268723 
L 391.647344 160.136327 
L 407.08608 153.80031 
" style="fill:none;stroke:#1b9e77;stroke-linecap:square;stroke-opacity:0.5;stroke-width:1.5;"/>
   </g>
   <g id="line2d_89">
    <path clip-path="url(#p0cbca2c081)" d="M 51.99517 165.260429 
L 67.433906 164.428171 
L 82.872641 165.018699 
L 98.311376 161.946257 
L 113.750111 145.734997 
L 129.188846 136.223384 
L 144.627582 142.788319 
L 160.066317 158.264305 
L 175.505052 163.021471 
L 190.943787 165.566424 
L 206.382522 167.079309 
L 221.821257 167.301638 
L 237.259993 167.912183 
L 252.698728 168.132966 
L 268.137463 168.251164 
L 283.576198 168.260156 
L 299.014933 168.27063 
L 314.453668 168.29641 
L 329.892404 168.256729 
L 345.331139 168.338288 
L 360.769874 153.802783 
L 376.208609 106.189051 
L 391.647344 110.995654 
L 407.08608 145.656375 
" style="fill:none;stroke:#1b9e77;stroke-linecap:square;stroke-opacity:0.5;stroke-width:1.5;"/>
   </g>
   <g id="line2d_90">
    <path clip-path="url(#p0cbca2c081)" d="M 51.99517 167.344042 
L 67.433906 167.772247 
L 82.872641 168.023967 
L 98.311376 167.873673 
L 113.750111 167.977268 
L 129.188846 168.206135 
L 144.627582 168.212565 
L 160.066317 168.140697 
L 175.505052 167.498013 
L 190.943787 162.674631 
L 206.382522 160.496417 
L 221.821257 167.2166 
L 237.259993 163.520691 
L 252.698728 161.707803 
L 268.137463 158.592235 
L 283.576198 130.346901 
L 299.014933 115.733588 
L 314.453668 108.691863 
L 329.892404 125.00081 
L 345.331139 138.096922 
L 360.769874 158.215907 
L 376.208609 167.181041 
L 391.647344 168.142365 
L 407.08608 168.329411 
" style="fill:none;stroke:#1b9e77;stroke-linecap:square;stroke-opacity:0.5;stroke-width:1.5;"/>
   </g>
   <g id="line2d_91">
    <path clip-path="url(#p0cbca2c081)" d="M 51.99517 164.414078 
L 67.433906 157.157074 
L 82.872641 157.169946 
L 98.311376 155.230273 
L 113.750111 156.95309 
L 129.188846 145.985986 
L 144.627582 151.6478 
L 160.066317 160.80973 
L 175.505052 166.991865 
L 190.943787 167.963511 
L 206.382522 168.112094 
L 221.821257 167.596904 
L 237.259993 166.086445 
L 252.698728 164.275423 
L 268.137463 156.939453 
L 283.576198 157.145468 
L 299.014933 158.737549 
L 314.453668 147.409365 
L 329.892404 108.56388 
L 345.331139 144.885903 
L 360.769874 153.029942 
L 376.208609 155.747963 
L 391.647344 164.075016 
L 407.08608 168.067039 
" style="fill:none;stroke:#1b9e77;stroke-linecap:square;stroke-opacity:0.5;stroke-width:1.5;"/>
   </g>
   <g id="line2d_92">
    <path clip-path="url(#p0cbca2c081)" d="M 51.99517 165.749769 
L 67.433906 126.266967 
L 82.872641 99.860289 
L 98.311376 132.912848 
L 113.750111 146.909166 
L 129.188846 138.092567 
L 144.627582 143.813465 
L 160.066317 153.703587 
L 175.505052 163.823287 
L 190.943787 165.580839 
L 206.382522 165.564891 
L 221.821257 161.600042 
L 237.259993 159.575838 
L 252.698728 162.314491 
L 268.137463 166.079355 
L 283.576198 167.359789 
L 299.014933 167.909498 
L 314.453668 168.083755 
L 329.892404 168.225376 
L 345.331139 168.239384 
L 360.769874 168.302827 
L 376.208609 168.32981 
L 391.647344 168.342953 
L 407.08608 168.355008 
" style="fill:none;stroke:#1b9e77;stroke-linecap:square;stroke-opacity:0.5;stroke-width:1.5;"/>
   </g>
   <g id="line2d_93">
    <path clip-path="url(#p0cbca2c081)" d="M 51.99517 168.26196 
L 67.433906 167.931499 
L 82.872641 166.722229 
L 98.311376 151.605791 
L 113.750111 151.359379 
L 129.188846 163.374641 
L 144.627582 161.739126 
L 160.066317 160.413184 
L 175.505052 158.964826 
L 190.943787 160.830863 
L 206.382522 156.055912 
L 221.821257 150.589432 
L 237.259993 153.435908 
L 252.698728 148.91434 
L 268.137463 148.015197 
L 283.576198 107.315963 
L 299.014933 139.715583 
L 314.453668 143.33919 
L 329.892404 165.555791 
L 345.331139 167.919049 
L 360.769874 168.150375 
L 376.208609 168.202765 
L 391.647344 168.248946 
L 407.08608 168.333842 
" style="fill:none;stroke:#1b9e77;stroke-linecap:square;stroke-opacity:0.5;stroke-width:1.5;"/>
   </g>
   <g id="line2d_94">
    <path clip-path="url(#p0cbca2c081)" d="M 51.99517 161.435418 
L 67.433906 165.701285 
L 82.872641 167.751309 
L 98.311376 167.553961 
L 113.750111 167.763474 
L 129.188846 168.109737 
L 144.627582 168.167467 
L 160.066317 168.254712 
L 175.505052 168.197135 
L 190.943787 162.648419 
L 206.382522 160.051073 
L 221.821257 158.325459 
L 237.259993 152.89644 
L 252.698728 129.593234 
L 268.137463 110.773934 
L 283.576198 75.698049 
L 299.014933 139.980575 
L 314.453668 165.283618 
L 329.892404 167.571821 
L 345.331139 167.679651 
L 360.769874 167.747672 
L 376.208609 167.745735 
L 391.647344 167.766062 
L 407.08608 168.299559 
" style="fill:none;stroke:#1b9e77;stroke-linecap:square;stroke-opacity:0.5;stroke-width:1.5;"/>
   </g>
   <g id="line2d_95">
    <path clip-path="url(#p0cbca2c081)" d="M 51.99517 139.204572 
L 67.433906 157.363789 
L 82.872641 165.104327 
L 98.311376 163.952983 
L 113.750111 164.299084 
L 129.188846 165.15579 
L 144.627582 165.54778 
L 160.066317 165.846562 
L 175.505052 164.188538 
L 190.943787 156.803023 
L 206.382522 153.602871 
L 221.821257 163.806323 
L 237.259993 164.081594 
L 252.698728 149.560105 
L 268.137463 116.181078 
L 283.576198 152.102923 
L 299.014933 161.321557 
L 314.453668 163.081409 
L 329.892404 156.308401 
L 345.331139 120.116826 
L 360.769874 155.448092 
L 376.208609 167.907459 
L 391.647344 168.260639 
L 407.08608 165.750075 
" style="fill:none;stroke:#1b9e77;stroke-linecap:square;stroke-opacity:0.5;stroke-width:1.5;"/>
   </g>
   <g id="line2d_96">
    <path clip-path="url(#p0cbca2c081)" d="M 51.99517 168.189683 
L 67.433906 168.009032 
L 82.872641 168.173017 
L 98.311376 168.215098 
L 113.750111 168.227131 
L 129.188846 168.317259 
L 144.627582 167.50757 
L 160.066317 151.344175 
L 175.505052 88.671356 
L 190.943787 136.55903 
L 206.382522 122.211283 
L 221.821257 133.293978 
L 237.259993 152.971355 
L 252.698728 160.165249 
L 268.137463 163.818642 
L 283.576198 167.592684 
L 299.014933 167.443406 
L 314.453668 166.146525 
L 329.892404 163.772094 
L 345.331139 165.160096 
L 360.769874 163.443519 
L 376.208609 160.619857 
L 391.647344 159.662958 
L 407.08608 165.480798 
" style="fill:none;stroke:#1b9e77;stroke-linecap:square;stroke-opacity:0.5;stroke-width:1.5;"/>
   </g>
   <g id="line2d_97">
    <path clip-path="url(#p0cbca2c081)" d="M 51.99517 157.251198 
L 67.433906 134.368666 
L 82.872641 161.306531 
L 98.311376 164.157273 
L 113.750111 164.006029 
L 129.188846 158.85791 
L 144.627582 147.782999 
L 160.066317 156.164323 
L 175.505052 162.579646 
L 190.943787 162.515562 
L 206.382522 157.429572 
L 221.821257 155.464453 
L 237.259993 147.210256 
L 252.698728 124.423023 
L 268.137463 128.440517 
L 283.576198 146.874938 
L 299.014933 162.74303 
L 314.453668 166.432707 
L 329.892404 167.439336 
L 345.331139 167.285003 
L 360.769874 167.689139 
L 376.208609 168.057929 
L 391.647344 168.19439 
L 407.08608 168.321369 
" style="fill:none;stroke:#1b9e77;stroke-linecap:square;stroke-opacity:0.5;stroke-width:1.5;"/>
   </g>
   <g id="line2d_98">
    <path clip-path="url(#p0cbca2c081)" d="M 51.99517 160.788845 
L 67.433906 165.649247 
L 82.872641 165.906792 
L 98.311376 163.217058 
L 113.750111 163.785217 
L 129.188846 157.248658 
L 144.627582 107.798558 
L 160.066317 76.828238 
L 175.505052 131.207964 
L 190.943787 138.133623 
L 206.382522 162.548841 
L 221.821257 166.524534 
L 237.259993 166.454499 
L 252.698728 163.053963 
L 268.137463 164.002107 
L 283.576198 167.134008 
L 299.014933 167.82334 
L 314.453668 167.850144 
L 329.892404 167.927779 
L 345.331139 167.963736 
L 360.769874 168.18714 
L 376.208609 168.29239 
L 391.647344 168.320787 
L 407.08608 168.34833 
" style="fill:none;stroke:#1b9e77;stroke-linecap:square;stroke-opacity:0.5;stroke-width:1.5;"/>
   </g>
   <g id="line2d_99">
    <path clip-path="url(#p0cbca2c081)" d="M 51.99517 165.463945 
L 67.433906 165.985433 
L 82.872641 167.329188 
L 98.311376 167.617754 
L 113.750111 167.525246 
L 129.188846 167.026327 
L 144.627582 164.160001 
L 160.066317 163.913517 
L 175.505052 163.469915 
L 190.943787 157.110982 
L 206.382522 156.501358 
L 221.821257 164.353564 
L 237.259993 166.825484 
L 252.698728 167.047291 
L 268.137463 166.797927 
L 283.576198 163.746355 
L 299.014933 155.201543 
L 314.453668 157.789894 
L 329.892404 157.517733 
L 345.331139 150.731275 
L 360.769874 107.782 
L 376.208609 78.947926 
L 391.647344 154.044621 
L 407.08608 168.106513 
" style="fill:none;stroke:#1b9e77;stroke-linecap:square;stroke-opacity:0.5;stroke-width:1.5;"/>
   </g>
   <g id="line2d_100">
    <path clip-path="url(#p0cbca2c081)" d="M 51.99517 166.701344 
L 67.433906 167.375106 
L 82.872641 167.986636 
L 98.311376 167.943978 
L 113.750111 167.956011 
L 129.188846 167.783657 
L 144.627582 167.954988 
L 160.066317 168.198761 
L 175.505052 168.234653 
L 190.943787 168.303833 
L 206.382522 166.787358 
L 221.821257 161.003673 
L 237.259993 163.287779 
L 252.698728 161.926963 
L 268.137463 160.902077 
L 283.576198 159.158258 
L 299.014933 141.903073 
L 314.453668 97.573881 
L 329.892404 81.814609 
L 345.331139 130.800958 
L 360.769874 156.641125 
L 376.208609 168.099387 
L 391.647344 168.309697 
L 407.08608 168.347996 
" style="fill:none;stroke:#1b9e77;stroke-linecap:square;stroke-opacity:0.5;stroke-width:1.5;"/>
   </g>
   <g id="line2d_101">
    <path clip-path="url(#p0cbca2c081)" d="M 51.99517 168.352264 
L 67.433906 168.328541 
L 82.872641 168.333664 
L 98.311376 168.338851 
L 113.750111 168.339371 
L 129.188846 168.350815 
L 144.627582 168.349064 
L 160.066317 166.409039 
L 175.505052 166.423056 
L 190.943787 165.501462 
L 206.382522 162.409833 
L 221.821257 159.569616 
L 237.259993 158.603665 
L 252.698728 156.112895 
L 268.137463 155.057259 
L 283.576198 150.445693 
L 299.014933 138.029692 
L 314.453668 131.565117 
L 329.892404 125.084454 
L 345.331139 139.40064 
L 360.769874 158.827595 
L 376.208609 157.967987 
L 391.647344 139.553937 
L 407.08608 155.641285 
" style="fill:none;stroke:#1b9e77;stroke-linecap:square;stroke-opacity:0.5;stroke-width:1.5;"/>
   </g>
   <g id="line2d_102">
    <path clip-path="url(#p0cbca2c081)" d="M 51.99517 161.71293 
L 67.433906 141.801718 
L 82.872641 147.918888 
L 98.311376 163.546297 
L 113.750111 167.599661 
L 129.188846 167.826765 
L 144.627582 167.71695 
L 160.066317 166.262046 
L 175.505052 166.622163 
L 190.943787 167.878792 
L 206.382522 166.910124 
L 221.821257 162.582243 
L 237.259993 153.363144 
L 252.698728 163.454647 
L 268.137463 164.224894 
L 283.576198 164.075535 
L 299.014933 155.406126 
L 314.453668 128.754222 
L 329.892404 92.262237 
L 345.331139 125.13837 
L 360.769874 165.218685 
L 376.208609 168.076028 
L 391.647344 168.297467 
L 407.08608 168.345871 
" style="fill:none;stroke:#1b9e77;stroke-linecap:square;stroke-opacity:0.5;stroke-width:1.5;"/>
   </g>
   <g id="line2d_103">
    <path clip-path="url(#p0cbca2c081)" d="M 51.99517 144.095643 
L 67.433906 127.241194 
L 82.872641 162.859683 
L 98.311376 165.117382 
L 113.750111 164.71919 
L 129.188846 159.203159 
L 144.627582 157.661478 
L 160.066317 164.16225 
L 175.505052 166.198573 
L 190.943787 166.69362 
L 206.382522 167.148098 
L 221.821257 166.443008 
L 237.259993 166.129692 
L 252.698728 168.03078 
L 268.137463 168.169962 
L 283.576198 168.270898 
L 299.014933 167.034389 
L 314.453668 149.662267 
L 329.892404 152.788944 
L 345.331139 149.074714 
L 360.769874 147.072425 
L 376.208609 136.554206 
L 391.647344 125.639832 
L 407.08608 155.024414 
" style="fill:none;stroke:#1b9e77;stroke-linecap:square;stroke-opacity:0.5;stroke-width:1.5;"/>
   </g>
   <g id="line2d_104">
    <path clip-path="url(#p0cbca2c081)" d="M 51.99517 162.835904 
L 67.433906 102.911312 
L 82.872641 114.351022 
L 98.311376 156.222321 
L 113.750111 166.34551 
L 129.188846 166.985342 
L 144.627582 164.355448 
L 160.066317 160.883058 
L 175.505052 164.952998 
L 190.943787 167.437016 
L 206.382522 167.362216 
L 221.821257 157.588373 
L 237.259993 157.229503 
L 252.698728 135.405606 
L 268.137463 155.782154 
L 283.576198 167.326121 
L 299.014933 166.854001 
L 314.453668 156.323233 
L 329.892404 164.132172 
L 345.331139 167.674073 
L 360.769874 167.676946 
L 376.208609 167.635317 
L 391.647344 157.679548 
L 407.08608 149.046605 
" style="fill:none;stroke:#1b9e77;stroke-linecap:square;stroke-opacity:0.5;stroke-width:1.5;"/>
   </g>
   <g id="line2d_105">
    <path clip-path="url(#p0cbca2c081)" d="M 51.99517 91.941291 
L 67.433906 118.846033 
L 82.872641 162.342169 
L 98.311376 164.020496 
L 113.750111 165.335321 
L 129.188846 163.77071 
L 144.627582 161.799287 
L 160.066317 164.144108 
L 175.505052 165.562181 
L 190.943787 165.117244 
L 206.382522 161.891514 
L 221.821257 154.347155 
L 237.259993 132.216007 
L 252.698728 140.894187 
L 268.137463 152.023813 
L 283.576198 160.647885 
L 299.014933 165.035483 
L 314.453668 166.648031 
L 329.892404 167.636843 
L 345.331139 167.810322 
L 360.769874 168.117037 
L 376.208609 168.220389 
L 391.647344 168.283784 
L 407.08608 168.344502 
" style="fill:none;stroke:#1b9e77;stroke-linecap:square;stroke-opacity:0.5;stroke-width:1.5;"/>
   </g>
   <g id="line2d_106">
    <path clip-path="url(#p0cbca2c081)" d="M 51.99517 136.735341 
L 67.433906 147.616897 
L 82.872641 163.335817 
L 98.311376 163.934625 
L 113.750111 163.767478 
L 129.188846 160.260174 
L 144.627582 151.504118 
L 160.066317 159.476548 
L 175.505052 163.904047 
L 190.943787 165.455386 
L 206.382522 166.266268 
L 221.821257 165.460591 
L 237.259993 166.744221 
L 252.698728 167.991565 
L 268.137463 168.116072 
L 283.576198 167.923756 
L 299.014933 166.06982 
L 314.453668 162.89481 
L 329.892404 160.223847 
L 345.331139 154.511742 
L 360.769874 147.499483 
L 376.208609 133.716982 
L 391.647344 108.413018 
L 407.08608 153.173187 
" style="fill:none;stroke:#1b9e77;stroke-linecap:square;stroke-opacity:0.5;stroke-width:1.5;"/>
   </g>
   <g id="line2d_107">
    <path clip-path="url(#p0cbca2c081)" d="M 51.99517 159.802447 
L 67.433906 120.793677 
L 82.872641 94.506481 
L 98.311376 135.952679 
L 113.750111 153.286276 
L 129.188846 135.985723 
L 144.627582 133.405416 
L 160.066317 152.140177 
L 175.505052 166.532338 
L 190.943787 167.894112 
L 206.382522 168.133225 
L 221.821257 167.943634 
L 237.259993 167.348572 
L 252.698728 168.167465 
L 268.137463 168.25798 
L 283.576198 168.271925 
L 299.014933 167.94338 
L 314.453668 167.508539 
L 329.892404 165.592432 
L 345.331139 167.285542 
L 360.769874 166.549683 
L 376.208609 167.635313 
L 391.647344 166.882365 
L 407.08608 167.176416 
" style="fill:none;stroke:#1b9e77;stroke-linecap:square;stroke-opacity:0.5;stroke-width:1.5;"/>
   </g>
   <g id="line2d_108">
    <path clip-path="url(#p0cbca2c081)" d="M 51.99517 166.51499 
L 67.433906 167.600874 
L 82.872641 167.979571 
L 98.311376 167.031277 
L 113.750111 165.502559 
L 129.188846 165.377568 
L 144.627582 160.530297 
L 160.066317 164.692211 
L 175.505052 163.69324 
L 190.943787 162.684296 
L 206.382522 164.528134 
L 221.821257 163.855813 
L 237.259993 157.711935 
L 252.698728 156.301795 
L 268.137463 156.195899 
L 283.576198 161.591948 
L 299.014933 162.61483 
L 314.453668 155.759166 
L 329.892404 128.449449 
L 345.331139 134.670153 
L 360.769874 158.405122 
L 376.208609 144.242005 
L 391.647344 135.313739 
L 407.08608 133.748931 
" style="fill:none;stroke:#1b9e77;stroke-linecap:square;stroke-opacity:0.5;stroke-width:1.5;"/>
   </g>
   <g id="line2d_109">
    <path clip-path="url(#p0cbca2c081)" d="M 51.99517 164.730607 
L 67.433906 166.93787 
L 82.872641 167.951507 
L 98.311376 167.885719 
L 113.750111 167.953682 
L 129.188846 168.13949 
L 144.627582 168.212794 
L 160.066317 168.221978 
L 175.505052 168.169668 
L 190.943787 166.933391 
L 206.382522 162.771214 
L 221.821257 167.874942 
L 237.259993 167.755628 
L 252.698728 161.848228 
L 268.137463 121.861562 
L 283.576198 70.060413 
L 299.014933 135.10899 
L 314.453668 166.503107 
L 329.892404 167.063873 
L 345.331139 138.374054 
L 360.769874 128.261385 
L 376.208609 166.128526 
L 391.647344 168.029419 
L 407.08608 168.217746 
" style="fill:none;stroke:#1b9e77;stroke-linecap:square;stroke-opacity:0.5;stroke-width:1.5;"/>
   </g>
   <g id="line2d_110">
    <path clip-path="url(#p0cbca2c081)" d="M 51.99517 166.154165 
L 67.433906 167.102457 
L 82.872641 168.011358 
L 98.311376 168.160719 
L 113.750111 168.123349 
L 129.188846 165.603767 
L 144.627582 139.790973 
L 160.066317 151.431982 
L 175.505052 150.410241 
L 190.943787 149.82101 
L 206.382522 131.932666 
L 221.821257 112.878259 
L 237.259993 115.49326 
L 252.698728 147.13146 
L 268.137463 162.213721 
L 283.576198 166.530363 
L 299.014933 166.171742 
L 314.453668 167.493246 
L 329.892404 167.122253 
L 345.331139 165.419039 
L 360.769874 167.309213 
L 376.208609 166.693477 
L 391.647344 166.921232 
L 407.08608 167.075849 
" style="fill:none;stroke:#1b9e77;stroke-linecap:square;stroke-opacity:0.5;stroke-width:1.5;"/>
   </g>
   <g id="line2d_111">
    <path clip-path="url(#p0cbca2c081)" d="M 51.99517 167.474489 
L 67.433906 167.403941 
L 82.872641 167.836907 
L 98.311376 167.987771 
L 113.750111 168.020052 
L 129.188846 168.022928 
L 144.627582 162.219498 
L 160.066317 159.968194 
L 175.505052 159.774897 
L 190.943787 166.333332 
L 206.382522 166.248792 
L 221.821257 165.667944 
L 237.259993 163.204415 
L 252.698728 148.873498 
L 268.137463 144.756779 
L 283.576198 126.653111 
L 299.014933 162.74069 
L 314.453668 141.670583 
L 329.892404 145.02401 
L 345.331139 167.82208 
L 360.769874 164.113169 
L 376.208609 132.38594 
L 391.647344 138.107627 
L 407.08608 142.68516 
" style="fill:none;stroke:#1b9e77;stroke-linecap:square;stroke-opacity:0.5;stroke-width:1.5;"/>
   </g>
   <g id="line2d_112">
    <path clip-path="url(#p0cbca2c081)" d="M 51.99517 167.719966 
L 67.433906 167.270251 
L 82.872641 167.110417 
L 98.311376 165.40544 
L 113.750111 158.360512 
L 129.188846 157.199552 
L 144.627582 160.26044 
L 160.066317 160.841409 
L 175.505052 154.685215 
L 190.943787 122.741412 
L 206.382522 80.203358 
L 221.821257 135.337969 
L 237.259993 165.849843 
L 252.698728 120.054938 
L 268.137463 167.715228 
L 283.576198 167.989355 
L 299.014933 168.180922 
L 314.453668 168.207585 
L 329.892404 168.255795 
L 345.331139 168.277478 
L 360.769874 168.306341 
L 376.208609 168.327745 
L 391.647344 168.339934 
L 407.08608 168.354693 
" style="fill:none;stroke:#1b9e77;stroke-linecap:square;stroke-opacity:0.5;stroke-width:1.5;"/>
   </g>
   <g id="line2d_113">
    <path clip-path="url(#p0cbca2c081)" d="M 51.99517 165.40116 
L 67.433906 148.351151 
L 82.872641 158.659614 
L 98.311376 167.585652 
L 113.750111 167.501212 
L 129.188846 147.172649 
L 144.627582 143.035225 
L 160.066317 133.548706 
L 175.505052 120.483292 
L 190.943787 149.30591 
L 206.382522 140.705751 
L 221.821257 148.10621 
L 237.259993 129.597145 
L 252.698728 167.049018 
L 268.137463 168.258336 
L 283.576198 168.251832 
L 299.014933 168.283526 
L 314.453668 168.2957 
L 329.892404 168.319069 
L 345.331139 168.345322 
L 360.769874 168.209455 
L 376.208609 167.639629 
L 391.647344 165.549907 
L 407.08608 167.340329 
" style="fill:none;stroke:#1b9e77;stroke-linecap:square;stroke-opacity:0.5;stroke-width:1.5;"/>
   </g>
   <g id="line2d_114">
    <path clip-path="url(#p0cbca2c081)" d="M 51.99517 168.347981 
L 67.433906 168.318973 
L 82.872641 168.349438 
L 98.311376 168.338238 
L 113.750111 167.688782 
L 129.188846 129.073936 
L 144.627582 17.156566 
L 160.066317 158.260964 
L 175.505052 146.270142 
L 190.943787 160.425064 
L 206.382522 168.349438 
L 221.821257 168.308341 
L 237.259993 168.349438 
L 252.698728 168.349438 
L 268.137463 168.349438 
L 283.576198 168.349438 
L 299.014933 159.793475 
L 314.453668 133.754837 
L 329.892404 168.349438 
L 345.331139 167.515779 
L 360.769874 168.24836 
L 376.208609 168.349438 
L 391.647344 168.349438 
L 407.08608 168.349438 
" style="fill:none;stroke:#d95f02;stroke-linecap:square;stroke-width:1.5;"/>
   </g>
   <g id="patch_3">
    <path d="M 34.240625 175.916566 
L 34.240625 9.596566 
" style="fill:none;stroke:#000000;stroke-linecap:square;stroke-linejoin:miter;stroke-width:0.8;"/>
   </g>
   <g id="patch_4">
    <path d="M 34.240625 175.916566 
L 424.840625 175.916566 
" style="fill:none;stroke:#000000;stroke-linecap:square;stroke-linejoin:miter;stroke-width:0.8;"/>
   </g>
   <g id="legend_1">
    <g id="patch_5">
     <path d="M 366.673438 32.274691 
L 417.840625 32.274691 
Q 419.840625 32.274691 419.840625 30.274691 
L 419.840625 16.596566 
Q 419.840625 14.596566 417.840625 14.596566 
L 366.673438 14.596566 
Q 364.673438 14.596566 364.673438 16.596566 
L 364.673438 30.274691 
Q 364.673438 32.274691 366.673438 32.274691 
z
" style="fill:#ffffff;opacity:0.8;stroke:#cccccc;stroke-linejoin:miter;"/>
    </g>
    <g id="line2d_115">
     <path d="M 368.673438 22.695004 
L 388.673438 22.695004 
" style="fill:none;stroke:#d95f02;stroke-linecap:square;stroke-width:1.5;"/>
    </g>
    <g id="line2d_116"/>
    <g id="text_16">
     <!-- real -->
     <defs>
      <path d="M 9.421875 75.984375 
L 18.40625 75.984375 
L 18.40625 0 
L 9.421875 0 
z
" id="DejaVuSans-108"/>
     </defs>
     <g transform="translate(396.673438 26.195004)scale(0.1 -0.1)">
      <use xlink:href="#DejaVuSans-114"/>
      <use x="41.082031" xlink:href="#DejaVuSans-101"/>
      <use x="102.605469" xlink:href="#DejaVuSans-97"/>
      <use x="163.884766" xlink:href="#DejaVuSans-108"/>
     </g>
    </g>
   </g>
  </g>
 </g>
 <defs>
  <clipPath id="p0cbca2c081">
   <rect height="166.32" width="390.6" x="34.240625" y="9.596566"/>
  </clipPath>
 </defs>
</svg>
