<?xml version="1.0" encoding="utf-8" standalone="no"?>
<!DOCTYPE svg PUBLIC "-//W3C//DTD SVG 1.1//EN"
  "http://www.w3.org/Graphics/SVG/1.1/DTD/svg11.dtd">
<!-- Created with matplotlib (https://matplotlib.org/) -->
<svg height="211.07625pt" version="1.1" viewBox="0 0 436.087315 211.07625" width="436.087315pt" xmlns="http://www.w3.org/2000/svg" xmlns:xlink="http://www.w3.org/1999/xlink">
 <defs>
  <style type="text/css">
*{stroke-linecap:butt;stroke-linejoin:round;}
  </style>
 </defs>
 <g id="figure_1">
  <g id="patch_1">
   <path d="M 0 211.07625 
L 436.087315 211.07625 
L 436.087315 0 
L 0 0 
z
" style="fill:#ffffff;"/>
  </g>
  <g id="axes_1">
   <g id="patch_2">
    <path d="M 34.240625 173.52 
L 424.840625 173.52 
L 424.840625 7.2 
L 34.240625 7.2 
z
" style="fill:#ffffff;"/>
   </g>
   <g id="matplotlib.axis_1">
    <g id="xtick_1">
     <g id="line2d_1">
      <defs>
       <path d="M 0 0 
L 0 3.5 
" id="ma1b00553a9" style="stroke:#000000;stroke-width:0.8;"/>
      </defs>
      <g>
       <use style="stroke:#000000;stroke-width:0.8;" x="36.556435" xlink:href="#ma1b00553a9" y="173.52"/>
      </g>
     </g>
     <g id="text_1">
      <!-- 0 -->
      <defs>
       <path d="M 31.78125 66.40625 
Q 24.171875 66.40625 20.328125 58.90625 
Q 16.5 51.421875 16.5 36.375 
Q 16.5 21.390625 20.328125 13.890625 
Q 24.171875 6.390625 31.78125 6.390625 
Q 39.453125 6.390625 43.28125 13.890625 
Q 47.125 21.390625 47.125 36.375 
Q 47.125 51.421875 43.28125 58.90625 
Q 39.453125 66.40625 31.78125 66.40625 
z
M 31.78125 74.21875 
Q 44.046875 74.21875 50.515625 64.515625 
Q 56.984375 54.828125 56.984375 36.375 
Q 56.984375 17.96875 50.515625 8.265625 
Q 44.046875 -1.421875 31.78125 -1.421875 
Q 19.53125 -1.421875 13.0625 8.265625 
Q 6.59375 17.96875 6.59375 36.375 
Q 6.59375 54.828125 13.0625 64.515625 
Q 19.53125 74.21875 31.78125 74.21875 
z
" id="DejaVuSans-48"/>
      </defs>
      <g transform="translate(33.375185 188.118438)scale(0.1 -0.1)">
       <use xlink:href="#DejaVuSans-48"/>
      </g>
     </g>
    </g>
    <g id="xtick_2">
     <g id="line2d_2">
      <g>
       <use style="stroke:#000000;stroke-width:0.8;" x="113.750111" xlink:href="#ma1b00553a9" y="173.52"/>
      </g>
     </g>
     <g id="text_2">
      <!-- 5 -->
      <defs>
       <path d="M 10.796875 72.90625 
L 49.515625 72.90625 
L 49.515625 64.59375 
L 19.828125 64.59375 
L 19.828125 46.734375 
Q 21.96875 47.46875 24.109375 47.828125 
Q 26.265625 48.1875 28.421875 48.1875 
Q 40.625 48.1875 47.75 41.5 
Q 54.890625 34.8125 54.890625 23.390625 
Q 54.890625 11.625 47.5625 5.09375 
Q 40.234375 -1.421875 26.90625 -1.421875 
Q 22.3125 -1.421875 17.546875 -0.640625 
Q 12.796875 0.140625 7.71875 1.703125 
L 7.71875 11.625 
Q 12.109375 9.234375 16.796875 8.0625 
Q 21.484375 6.890625 26.703125 6.890625 
Q 35.15625 6.890625 40.078125 11.328125 
Q 45.015625 15.765625 45.015625 23.390625 
Q 45.015625 31 40.078125 35.4375 
Q 35.15625 39.890625 26.703125 39.890625 
Q 22.75 39.890625 18.8125 39.015625 
Q 14.890625 38.140625 10.796875 36.28125 
z
" id="DejaVuSans-53"/>
      </defs>
      <g transform="translate(110.568861 188.118438)scale(0.1 -0.1)">
       <use xlink:href="#DejaVuSans-53"/>
      </g>
     </g>
    </g>
    <g id="xtick_3">
     <g id="line2d_3">
      <g>
       <use style="stroke:#000000;stroke-width:0.8;" x="190.943787" xlink:href="#ma1b00553a9" y="173.52"/>
      </g>
     </g>
     <g id="text_3">
      <!-- 10 -->
      <defs>
       <path d="M 12.40625 8.296875 
L 28.515625 8.296875 
L 28.515625 63.921875 
L 10.984375 60.40625 
L 10.984375 69.390625 
L 28.421875 72.90625 
L 38.28125 72.90625 
L 38.28125 8.296875 
L 54.390625 8.296875 
L 54.390625 0 
L 12.40625 0 
z
" id="DejaVuSans-49"/>
      </defs>
      <g transform="translate(184.581287 188.118438)scale(0.1 -0.1)">
       <use xlink:href="#DejaVuSans-49"/>
       <use x="63.623047" xlink:href="#DejaVuSans-48"/>
      </g>
     </g>
    </g>
    <g id="xtick_4">
     <g id="line2d_4">
      <g>
       <use style="stroke:#000000;stroke-width:0.8;" x="268.137463" xlink:href="#ma1b00553a9" y="173.52"/>
      </g>
     </g>
     <g id="text_4">
      <!-- 15 -->
      <g transform="translate(261.774963 188.118438)scale(0.1 -0.1)">
       <use xlink:href="#DejaVuSans-49"/>
       <use x="63.623047" xlink:href="#DejaVuSans-53"/>
      </g>
     </g>
    </g>
    <g id="xtick_5">
     <g id="line2d_5">
      <g>
       <use style="stroke:#000000;stroke-width:0.8;" x="345.331139" xlink:href="#ma1b00553a9" y="173.52"/>
      </g>
     </g>
     <g id="text_5">
      <!-- 20 -->
      <defs>
       <path d="M 19.1875 8.296875 
L 53.609375 8.296875 
L 53.609375 0 
L 7.328125 0 
L 7.328125 8.296875 
Q 12.9375 14.109375 22.625 23.890625 
Q 32.328125 33.6875 34.8125 36.53125 
Q 39.546875 41.84375 41.421875 45.53125 
Q 43.3125 49.21875 43.3125 52.78125 
Q 43.3125 58.59375 39.234375 62.25 
Q 35.15625 65.921875 28.609375 65.921875 
Q 23.96875 65.921875 18.8125 64.3125 
Q 13.671875 62.703125 7.8125 59.421875 
L 7.8125 69.390625 
Q 13.765625 71.78125 18.9375 73 
Q 24.125 74.21875 28.421875 74.21875 
Q 39.75 74.21875 46.484375 68.546875 
Q 53.21875 62.890625 53.21875 53.421875 
Q 53.21875 48.921875 51.53125 44.890625 
Q 49.859375 40.875 45.40625 35.40625 
Q 44.1875 33.984375 37.640625 27.21875 
Q 31.109375 20.453125 19.1875 8.296875 
z
" id="DejaVuSans-50"/>
      </defs>
      <g transform="translate(338.968639 188.118438)scale(0.1 -0.1)">
       <use xlink:href="#DejaVuSans-50"/>
       <use x="63.623047" xlink:href="#DejaVuSans-48"/>
      </g>
     </g>
    </g>
    <g id="xtick_6">
     <g id="line2d_6">
      <g>
       <use style="stroke:#000000;stroke-width:0.8;" x="422.524815" xlink:href="#ma1b00553a9" y="173.52"/>
      </g>
     </g>
     <g id="text_6">
      <!-- 25 -->
      <g transform="translate(416.162315 188.118438)scale(0.1 -0.1)">
       <use xlink:href="#DejaVuSans-50"/>
       <use x="63.623047" xlink:href="#DejaVuSans-53"/>
      </g>
     </g>
    </g>
    <g id="text_7">
     <!-- hour -->
     <defs>
      <path d="M 54.890625 33.015625 
L 54.890625 0 
L 45.90625 0 
L 45.90625 32.71875 
Q 45.90625 40.484375 42.875 44.328125 
Q 39.84375 48.1875 33.796875 48.1875 
Q 26.515625 48.1875 22.3125 43.546875 
Q 18.109375 38.921875 18.109375 30.90625 
L 18.109375 0 
L 9.078125 0 
L 9.078125 75.984375 
L 18.109375 75.984375 
L 18.109375 46.1875 
Q 21.34375 51.125 25.703125 53.5625 
Q 30.078125 56 35.796875 56 
Q 45.21875 56 50.046875 50.171875 
Q 54.890625 44.34375 54.890625 33.015625 
z
" id="DejaVuSans-104"/>
      <path d="M 30.609375 48.390625 
Q 23.390625 48.390625 19.1875 42.75 
Q 14.984375 37.109375 14.984375 27.296875 
Q 14.984375 17.484375 19.15625 11.84375 
Q 23.34375 6.203125 30.609375 6.203125 
Q 37.796875 6.203125 41.984375 11.859375 
Q 46.1875 17.53125 46.1875 27.296875 
Q 46.1875 37.015625 41.984375 42.703125 
Q 37.796875 48.390625 30.609375 48.390625 
z
M 30.609375 56 
Q 42.328125 56 49.015625 48.375 
Q 55.71875 40.765625 55.71875 27.296875 
Q 55.71875 13.875 49.015625 6.21875 
Q 42.328125 -1.421875 30.609375 -1.421875 
Q 18.84375 -1.421875 12.171875 6.21875 
Q 5.515625 13.875 5.515625 27.296875 
Q 5.515625 40.765625 12.171875 48.375 
Q 18.84375 56 30.609375 56 
z
" id="DejaVuSans-111"/>
      <path d="M 8.5 21.578125 
L 8.5 54.6875 
L 17.484375 54.6875 
L 17.484375 21.921875 
Q 17.484375 14.15625 20.5 10.265625 
Q 23.53125 6.390625 29.59375 6.390625 
Q 36.859375 6.390625 41.078125 11.03125 
Q 45.3125 15.671875 45.3125 23.6875 
L 45.3125 54.6875 
L 54.296875 54.6875 
L 54.296875 0 
L 45.3125 0 
L 45.3125 8.40625 
Q 42.046875 3.421875 37.71875 1 
Q 33.40625 -1.421875 27.6875 -1.421875 
Q 18.265625 -1.421875 13.375 4.4375 
Q 8.5 10.296875 8.5 21.578125 
z
M 31.109375 56 
z
" id="DejaVuSans-117"/>
      <path d="M 41.109375 46.296875 
Q 39.59375 47.171875 37.8125 47.578125 
Q 36.03125 48 33.890625 48 
Q 26.265625 48 22.1875 43.046875 
Q 18.109375 38.09375 18.109375 28.8125 
L 18.109375 0 
L 9.078125 0 
L 9.078125 54.6875 
L 18.109375 54.6875 
L 18.109375 46.1875 
Q 20.953125 51.171875 25.484375 53.578125 
Q 30.03125 56 36.53125 56 
Q 37.453125 56 38.578125 55.875 
Q 39.703125 55.765625 41.0625 55.515625 
z
" id="DejaVuSans-114"/>
     </defs>
     <g transform="translate(218.088281 201.796563)scale(0.1 -0.1)">
      <use xlink:href="#DejaVuSans-104"/>
      <use x="63.378906" xlink:href="#DejaVuSans-111"/>
      <use x="124.560547" xlink:href="#DejaVuSans-117"/>
      <use x="187.939453" xlink:href="#DejaVuSans-114"/>
     </g>
    </g>
   </g>
   <g id="matplotlib.axis_2">
    <g id="ytick_1">
     <g id="line2d_7">
      <defs>
       <path d="M 0 0 
L -3.5 0 
" id="mbf66b4c6ec" style="stroke:#000000;stroke-width:0.8;"/>
      </defs>
      <g>
       <use style="stroke:#000000;stroke-width:0.8;" x="34.240625" xlink:href="#mbf66b4c6ec" y="165.963144"/>
      </g>
     </g>
     <g id="text_8">
      <!-- 0 -->
      <g transform="translate(20.878125 169.762363)scale(0.1 -0.1)">
       <use xlink:href="#DejaVuSans-48"/>
      </g>
     </g>
    </g>
    <g id="ytick_2">
     <g id="line2d_8">
      <g>
       <use style="stroke:#000000;stroke-width:0.8;" x="34.240625" xlink:href="#mbf66b4c6ec" y="135.407293"/>
      </g>
     </g>
     <g id="text_9">
      <!-- 1 -->
      <g transform="translate(20.878125 139.206512)scale(0.1 -0.1)">
       <use xlink:href="#DejaVuSans-49"/>
      </g>
     </g>
    </g>
    <g id="ytick_3">
     <g id="line2d_9">
      <g>
       <use style="stroke:#000000;stroke-width:0.8;" x="34.240625" xlink:href="#mbf66b4c6ec" y="104.851441"/>
      </g>
     </g>
     <g id="text_10">
      <!-- 2 -->
      <g transform="translate(20.878125 108.65066)scale(0.1 -0.1)">
       <use xlink:href="#DejaVuSans-50"/>
      </g>
     </g>
    </g>
    <g id="ytick_4">
     <g id="line2d_10">
      <g>
       <use style="stroke:#000000;stroke-width:0.8;" x="34.240625" xlink:href="#mbf66b4c6ec" y="74.29559"/>
      </g>
     </g>
     <g id="text_11">
      <!-- 3 -->
      <defs>
       <path d="M 40.578125 39.3125 
Q 47.65625 37.796875 51.625 33 
Q 55.609375 28.21875 55.609375 21.1875 
Q 55.609375 10.40625 48.1875 4.484375 
Q 40.765625 -1.421875 27.09375 -1.421875 
Q 22.515625 -1.421875 17.65625 -0.515625 
Q 12.796875 0.390625 7.625 2.203125 
L 7.625 11.71875 
Q 11.71875 9.328125 16.59375 8.109375 
Q 21.484375 6.890625 26.8125 6.890625 
Q 36.078125 6.890625 40.9375 10.546875 
Q 45.796875 14.203125 45.796875 21.1875 
Q 45.796875 27.640625 41.28125 31.265625 
Q 36.765625 34.90625 28.71875 34.90625 
L 20.21875 34.90625 
L 20.21875 43.015625 
L 29.109375 43.015625 
Q 36.375 43.015625 40.234375 45.921875 
Q 44.09375 48.828125 44.09375 54.296875 
Q 44.09375 59.90625 40.109375 62.90625 
Q 36.140625 65.921875 28.71875 65.921875 
Q 24.65625 65.921875 20.015625 65.03125 
Q 15.375 64.15625 9.8125 62.3125 
L 9.8125 71.09375 
Q 15.4375 72.65625 20.34375 73.4375 
Q 25.25 74.21875 29.59375 74.21875 
Q 40.828125 74.21875 47.359375 69.109375 
Q 53.90625 64.015625 53.90625 55.328125 
Q 53.90625 49.265625 50.4375 45.09375 
Q 46.96875 40.921875 40.578125 39.3125 
z
" id="DejaVuSans-51"/>
      </defs>
      <g transform="translate(20.878125 78.094809)scale(0.1 -0.1)">
       <use xlink:href="#DejaVuSans-51"/>
      </g>
     </g>
    </g>
    <g id="ytick_5">
     <g id="line2d_11">
      <g>
       <use style="stroke:#000000;stroke-width:0.8;" x="34.240625" xlink:href="#mbf66b4c6ec" y="43.739738"/>
      </g>
     </g>
     <g id="text_12">
      <!-- 4 -->
      <defs>
       <path d="M 37.796875 64.3125 
L 12.890625 25.390625 
L 37.796875 25.390625 
z
M 35.203125 72.90625 
L 47.609375 72.90625 
L 47.609375 25.390625 
L 58.015625 25.390625 
L 58.015625 17.1875 
L 47.609375 17.1875 
L 47.609375 0 
L 37.796875 0 
L 37.796875 17.1875 
L 4.890625 17.1875 
L 4.890625 26.703125 
z
" id="DejaVuSans-52"/>
      </defs>
      <g transform="translate(20.878125 47.538957)scale(0.1 -0.1)">
       <use xlink:href="#DejaVuSans-52"/>
      </g>
     </g>
    </g>
    <g id="ytick_6">
     <g id="line2d_12">
      <g>
       <use style="stroke:#000000;stroke-width:0.8;" x="34.240625" xlink:href="#mbf66b4c6ec" y="13.183887"/>
      </g>
     </g>
     <g id="text_13">
      <!-- 5 -->
      <g transform="translate(20.878125 16.983106)scale(0.1 -0.1)">
       <use xlink:href="#DejaVuSans-53"/>
      </g>
     </g>
    </g>
    <g id="text_14">
     <!-- precipitation [mm/hour] -->
     <defs>
      <path d="M 18.109375 8.203125 
L 18.109375 -20.796875 
L 9.078125 -20.796875 
L 9.078125 54.6875 
L 18.109375 54.6875 
L 18.109375 46.390625 
Q 20.953125 51.265625 25.265625 53.625 
Q 29.59375 56 35.59375 56 
Q 45.5625 56 51.78125 48.09375 
Q 58.015625 40.1875 58.015625 27.296875 
Q 58.015625 14.40625 51.78125 6.484375 
Q 45.5625 -1.421875 35.59375 -1.421875 
Q 29.59375 -1.421875 25.265625 0.953125 
Q 20.953125 3.328125 18.109375 8.203125 
z
M 48.6875 27.296875 
Q 48.6875 37.203125 44.609375 42.84375 
Q 40.53125 48.484375 33.40625 48.484375 
Q 26.265625 48.484375 22.1875 42.84375 
Q 18.109375 37.203125 18.109375 27.296875 
Q 18.109375 17.390625 22.1875 11.75 
Q 26.265625 6.109375 33.40625 6.109375 
Q 40.53125 6.109375 44.609375 11.75 
Q 48.6875 17.390625 48.6875 27.296875 
z
" id="DejaVuSans-112"/>
      <path d="M 56.203125 29.59375 
L 56.203125 25.203125 
L 14.890625 25.203125 
Q 15.484375 15.921875 20.484375 11.0625 
Q 25.484375 6.203125 34.421875 6.203125 
Q 39.59375 6.203125 44.453125 7.46875 
Q 49.3125 8.734375 54.109375 11.28125 
L 54.109375 2.78125 
Q 49.265625 0.734375 44.1875 -0.34375 
Q 39.109375 -1.421875 33.890625 -1.421875 
Q 20.796875 -1.421875 13.15625 6.1875 
Q 5.515625 13.8125 5.515625 26.8125 
Q 5.515625 40.234375 12.765625 48.109375 
Q 20.015625 56 32.328125 56 
Q 43.359375 56 49.78125 48.890625 
Q 56.203125 41.796875 56.203125 29.59375 
z
M 47.21875 32.234375 
Q 47.125 39.59375 43.09375 43.984375 
Q 39.0625 48.390625 32.421875 48.390625 
Q 24.90625 48.390625 20.390625 44.140625 
Q 15.875 39.890625 15.1875 32.171875 
z
" id="DejaVuSans-101"/>
      <path d="M 48.78125 52.59375 
L 48.78125 44.1875 
Q 44.96875 46.296875 41.140625 47.34375 
Q 37.3125 48.390625 33.40625 48.390625 
Q 24.65625 48.390625 19.8125 42.84375 
Q 14.984375 37.3125 14.984375 27.296875 
Q 14.984375 17.28125 19.8125 11.734375 
Q 24.65625 6.203125 33.40625 6.203125 
Q 37.3125 6.203125 41.140625 7.25 
Q 44.96875 8.296875 48.78125 10.40625 
L 48.78125 2.09375 
Q 45.015625 0.34375 40.984375 -0.53125 
Q 36.96875 -1.421875 32.421875 -1.421875 
Q 20.0625 -1.421875 12.78125 6.34375 
Q 5.515625 14.109375 5.515625 27.296875 
Q 5.515625 40.671875 12.859375 48.328125 
Q 20.21875 56 33.015625 56 
Q 37.15625 56 41.109375 55.140625 
Q 45.0625 54.296875 48.78125 52.59375 
z
" id="DejaVuSans-99"/>
      <path d="M 9.421875 54.6875 
L 18.40625 54.6875 
L 18.40625 0 
L 9.421875 0 
z
M 9.421875 75.984375 
L 18.40625 75.984375 
L 18.40625 64.59375 
L 9.421875 64.59375 
z
" id="DejaVuSans-105"/>
      <path d="M 18.3125 70.21875 
L 18.3125 54.6875 
L 36.8125 54.6875 
L 36.8125 47.703125 
L 18.3125 47.703125 
L 18.3125 18.015625 
Q 18.3125 11.328125 20.140625 9.421875 
Q 21.96875 7.515625 27.59375 7.515625 
L 36.8125 7.515625 
L 36.8125 0 
L 27.59375 0 
Q 17.1875 0 13.234375 3.875 
Q 9.28125 7.765625 9.28125 18.015625 
L 9.28125 47.703125 
L 2.6875 47.703125 
L 2.6875 54.6875 
L 9.28125 54.6875 
L 9.28125 70.21875 
z
" id="DejaVuSans-116"/>
      <path d="M 34.28125 27.484375 
Q 23.390625 27.484375 19.1875 25 
Q 14.984375 22.515625 14.984375 16.5 
Q 14.984375 11.71875 18.140625 8.90625 
Q 21.296875 6.109375 26.703125 6.109375 
Q 34.1875 6.109375 38.703125 11.40625 
Q 43.21875 16.703125 43.21875 25.484375 
L 43.21875 27.484375 
z
M 52.203125 31.203125 
L 52.203125 0 
L 43.21875 0 
L 43.21875 8.296875 
Q 40.140625 3.328125 35.546875 0.953125 
Q 30.953125 -1.421875 24.3125 -1.421875 
Q 15.921875 -1.421875 10.953125 3.296875 
Q 6 8.015625 6 15.921875 
Q 6 25.140625 12.171875 29.828125 
Q 18.359375 34.515625 30.609375 34.515625 
L 43.21875 34.515625 
L 43.21875 35.40625 
Q 43.21875 41.609375 39.140625 45 
Q 35.0625 48.390625 27.6875 48.390625 
Q 23 48.390625 18.546875 47.265625 
Q 14.109375 46.140625 10.015625 43.890625 
L 10.015625 52.203125 
Q 14.9375 54.109375 19.578125 55.046875 
Q 24.21875 56 28.609375 56 
Q 40.484375 56 46.34375 49.84375 
Q 52.203125 43.703125 52.203125 31.203125 
z
" id="DejaVuSans-97"/>
      <path d="M 54.890625 33.015625 
L 54.890625 0 
L 45.90625 0 
L 45.90625 32.71875 
Q 45.90625 40.484375 42.875 44.328125 
Q 39.84375 48.1875 33.796875 48.1875 
Q 26.515625 48.1875 22.3125 43.546875 
Q 18.109375 38.921875 18.109375 30.90625 
L 18.109375 0 
L 9.078125 0 
L 9.078125 54.6875 
L 18.109375 54.6875 
L 18.109375 46.1875 
Q 21.34375 51.125 25.703125 53.5625 
Q 30.078125 56 35.796875 56 
Q 45.21875 56 50.046875 50.171875 
Q 54.890625 44.34375 54.890625 33.015625 
z
" id="DejaVuSans-110"/>
      <path id="DejaVuSans-32"/>
      <path d="M 8.59375 75.984375 
L 29.296875 75.984375 
L 29.296875 69 
L 17.578125 69 
L 17.578125 -6.203125 
L 29.296875 -6.203125 
L 29.296875 -13.1875 
L 8.59375 -13.1875 
z
" id="DejaVuSans-91"/>
      <path d="M 52 44.1875 
Q 55.375 50.25 60.0625 53.125 
Q 64.75 56 71.09375 56 
Q 79.640625 56 84.28125 50.015625 
Q 88.921875 44.046875 88.921875 33.015625 
L 88.921875 0 
L 79.890625 0 
L 79.890625 32.71875 
Q 79.890625 40.578125 77.09375 44.375 
Q 74.3125 48.1875 68.609375 48.1875 
Q 61.625 48.1875 57.5625 43.546875 
Q 53.515625 38.921875 53.515625 30.90625 
L 53.515625 0 
L 44.484375 0 
L 44.484375 32.71875 
Q 44.484375 40.625 41.703125 44.40625 
Q 38.921875 48.1875 33.109375 48.1875 
Q 26.21875 48.1875 22.15625 43.53125 
Q 18.109375 38.875 18.109375 30.90625 
L 18.109375 0 
L 9.078125 0 
L 9.078125 54.6875 
L 18.109375 54.6875 
L 18.109375 46.1875 
Q 21.1875 51.21875 25.484375 53.609375 
Q 29.78125 56 35.6875 56 
Q 41.65625 56 45.828125 52.96875 
Q 50 49.953125 52 44.1875 
z
" id="DejaVuSans-109"/>
      <path d="M 25.390625 72.90625 
L 33.6875 72.90625 
L 8.296875 -9.28125 
L 0 -9.28125 
z
" id="DejaVuSans-47"/>
      <path d="M 30.421875 75.984375 
L 30.421875 -13.1875 
L 9.71875 -13.1875 
L 9.71875 -6.203125 
L 21.390625 -6.203125 
L 21.390625 69 
L 9.71875 69 
L 9.71875 75.984375 
z
" id="DejaVuSans-93"/>
     </defs>
     <g transform="translate(14.798438 150.335781)rotate(-90)scale(0.1 -0.1)">
      <use xlink:href="#DejaVuSans-112"/>
      <use x="63.476562" xlink:href="#DejaVuSans-114"/>
      <use x="104.558594" xlink:href="#DejaVuSans-101"/>
      <use x="166.082031" xlink:href="#DejaVuSans-99"/>
      <use x="221.0625" xlink:href="#DejaVuSans-105"/>
      <use x="248.845703" xlink:href="#DejaVuSans-112"/>
      <use x="312.322266" xlink:href="#DejaVuSans-105"/>
      <use x="340.105469" xlink:href="#DejaVuSans-116"/>
      <use x="379.314453" xlink:href="#DejaVuSans-97"/>
      <use x="440.59375" xlink:href="#DejaVuSans-116"/>
      <use x="479.802734" xlink:href="#DejaVuSans-105"/>
      <use x="507.585938" xlink:href="#DejaVuSans-111"/>
      <use x="568.767578" xlink:href="#DejaVuSans-110"/>
      <use x="632.146484" xlink:href="#DejaVuSans-32"/>
      <use x="663.933594" xlink:href="#DejaVuSans-91"/>
      <use x="702.947266" xlink:href="#DejaVuSans-109"/>
      <use x="800.359375" xlink:href="#DejaVuSans-109"/>
      <use x="897.771484" xlink:href="#DejaVuSans-47"/>
      <use x="931.462891" xlink:href="#DejaVuSans-104"/>
      <use x="994.841797" xlink:href="#DejaVuSans-111"/>
      <use x="1056.023438" xlink:href="#DejaVuSans-117"/>
      <use x="1119.402344" xlink:href="#DejaVuSans-114"/>
      <use x="1160.515625" xlink:href="#DejaVuSans-93"/>
     </g>
    </g>
   </g>
   <g id="line2d_13">
    <path clip-path="url(#p9dcc982cbc)" d="M 51.99517 165.264287 
L 67.433906 164.32378 
L 82.872641 164.64906 
L 98.311376 165.543346 
L 113.750111 165.817341 
L 129.188846 165.905049 
L 144.627582 165.88184 
L 160.066317 165.910116 
L 175.505052 165.937091 
L 190.943787 165.945522 
L 206.382522 165.93747 
L 221.821257 165.920033 
L 237.259993 165.818207 
L 252.698728 153.387248 
L 268.137463 116.875183 
L 283.576198 63.523116 
L 299.014933 153.630405 
L 314.453668 164.202595 
L 329.892404 165.097059 
L 345.331139 165.698344 
L 360.769874 165.778317 
L 376.208609 165.782843 
L 391.647344 165.746987 
L 407.08608 165.930575 
" style="fill:none;stroke:#1b9e77;stroke-linecap:square;stroke-opacity:0.5;stroke-width:1.5;"/>
   </g>
   <g id="line2d_14">
    <path clip-path="url(#p9dcc982cbc)" d="M 51.99517 165.882745 
L 67.433906 165.889841 
L 82.872641 165.896957 
L 98.311376 165.905193 
L 113.750111 165.881165 
L 129.188846 165.838801 
L 144.627582 162.309363 
L 160.066317 157.993075 
L 175.505052 158.189726 
L 190.943787 158.181274 
L 206.382522 159.973413 
L 221.821257 162.686155 
L 237.259993 161.450034 
L 252.698728 157.808139 
L 268.137463 159.11934 
L 283.576198 153.409271 
L 299.014933 151.931785 
L 314.453668 156.828359 
L 329.892404 156.231609 
L 345.331139 148.201213 
L 360.769874 108.015192 
L 376.208609 160.318516 
L 391.647344 165.257385 
L 407.08608 165.307258 
" style="fill:none;stroke:#1b9e77;stroke-linecap:square;stroke-opacity:0.5;stroke-width:1.5;"/>
   </g>
   <g id="line2d_15">
    <path clip-path="url(#p9dcc982cbc)" d="M 51.99517 161.955336 
L 67.433906 159.128637 
L 82.872641 158.06269 
L 98.311376 162.920932 
L 113.750111 164.610376 
L 129.188846 165.61589 
L 144.627582 165.782486 
L 160.066317 165.527366 
L 175.505052 164.53875 
L 190.943787 164.333662 
L 206.382522 164.987042 
L 221.821257 165.099676 
L 237.259993 164.795762 
L 252.698728 164.721103 
L 268.137463 165.166203 
L 283.576198 165.574368 
L 299.014933 165.678559 
L 314.453668 165.819892 
L 329.892404 165.853395 
L 345.331139 165.776513 
L 360.769874 165.312963 
L 376.208609 164.868792 
L 391.647344 139.409739 
L 407.08608 42.965684 
" style="fill:none;stroke:#1b9e77;stroke-linecap:square;stroke-opacity:0.5;stroke-width:1.5;"/>
   </g>
   <g id="line2d_16">
    <path clip-path="url(#p9dcc982cbc)" d="M 51.99517 165.272239 
L 67.433906 165.805624 
L 82.872641 164.664178 
L 98.311376 164.676901 
L 113.750111 154.538519 
L 129.188846 164.489182 
L 144.627582 165.671221 
L 160.066317 165.389851 
L 175.505052 150.184739 
L 190.943787 161.34967 
L 206.382522 164.387665 
L 221.821257 159.214392 
L 237.259993 153.992937 
L 252.698728 125.599346 
L 268.137463 155.661483 
L 283.576198 157.434911 
L 299.014933 160.976512 
L 314.453668 162.861445 
L 329.892404 163.809719 
L 345.331139 158.182145 
L 360.769874 140.366817 
L 376.208609 158.876734 
L 391.647344 155.447979 
L 407.08608 159.651595 
" style="fill:none;stroke:#1b9e77;stroke-linecap:square;stroke-opacity:0.5;stroke-width:1.5;"/>
   </g>
   <g id="line2d_17">
    <path clip-path="url(#p9dcc982cbc)" d="M 51.99517 165.896515 
L 67.433906 165.83826 
L 82.872641 165.899087 
L 98.311376 165.938723 
L 113.750111 165.944303 
L 129.188846 165.953551 
L 144.627582 165.945192 
L 160.066317 165.88699 
L 175.505052 164.69111 
L 190.943787 162.407992 
L 206.382522 161.018072 
L 221.821257 159.7968 
L 237.259993 131.257324 
L 252.698728 147.750632 
L 268.137463 154.637075 
L 283.576198 141.795502 
L 299.014933 125.927652 
L 314.453668 142.606823 
L 329.892404 151.063966 
L 345.331139 165.358577 
L 360.769874 165.54869 
L 376.208609 165.621823 
L 391.647344 165.782904 
L 407.08608 165.938243 
" style="fill:none;stroke:#1b9e77;stroke-linecap:square;stroke-opacity:0.5;stroke-width:1.5;"/>
   </g>
   <g id="line2d_18">
    <path clip-path="url(#p9dcc982cbc)" d="M 51.99517 163.775397 
L 67.433906 161.736002 
L 82.872641 164.476152 
L 98.311376 164.887729 
L 113.750111 163.619709 
L 129.188846 164.273653 
L 144.627582 143.291115 
L 160.066317 150.741467 
L 175.505052 154.644366 
L 190.943787 136.180837 
L 206.382522 131.357475 
L 221.821257 163.831164 
L 237.259993 165.565928 
L 252.698728 164.045895 
L 268.137463 159.93879 
L 283.576198 164.98201 
L 299.014933 164.082801 
L 314.453668 138.705385 
L 329.892404 164.378477 
L 345.331139 165.368163 
L 360.769874 164.925821 
L 376.208609 162.514868 
L 391.647344 157.6418 
L 407.08608 163.540799 
" style="fill:none;stroke:#1b9e77;stroke-linecap:square;stroke-opacity:0.5;stroke-width:1.5;"/>
   </g>
   <g id="line2d_19">
    <path clip-path="url(#p9dcc982cbc)" d="M 51.99517 165.162574 
L 67.433906 164.893059 
L 82.872641 164.81181 
L 98.311376 158.693641 
L 113.750111 148.731789 
L 129.188846 162.920281 
L 144.627582 164.247711 
L 160.066317 159.011657 
L 175.505052 36.147925 
L 190.943787 160.270691 
L 206.382522 165.456748 
L 221.821257 163.190315 
L 237.259993 165.313252 
L 252.698728 164.868139 
L 268.137463 165.433001 
L 283.576198 165.475107 
L 299.014933 165.570557 
L 314.453668 165.713689 
L 329.892404 165.716808 
L 345.331139 165.765914 
L 360.769874 165.403731 
L 376.208609 165.468487 
L 391.647344 164.851345 
L 407.08608 165.387589 
" style="fill:none;stroke:#1b9e77;stroke-linecap:square;stroke-opacity:0.5;stroke-width:1.5;"/>
   </g>
   <g id="line2d_20">
    <path clip-path="url(#p9dcc982cbc)" d="M 51.99517 165.924341 
L 67.433906 165.824138 
L 82.872641 165.629873 
L 98.311376 159.73112 
L 113.750111 165.449523 
L 129.188846 165.924382 
L 144.627582 165.884859 
L 160.066317 165.715435 
L 175.505052 164.098278 
L 190.943787 164.199205 
L 206.382522 164.005897 
L 221.821257 159.013306 
L 237.259993 14.76 
L 252.698728 165.462827 
L 268.137463 165.934732 
L 283.576198 165.915107 
L 299.014933 165.298046 
L 314.453668 157.674016 
L 329.892404 163.24798 
L 345.331139 165.576713 
L 360.769874 165.765994 
L 376.208609 165.755899 
L 391.647344 165.774697 
L 407.08608 165.939448 
" style="fill:none;stroke:#1b9e77;stroke-linecap:square;stroke-opacity:0.5;stroke-width:1.5;"/>
   </g>
   <g id="line2d_21">
    <path clip-path="url(#p9dcc982cbc)" d="M 51.99517 165.457402 
L 67.433906 165.561531 
L 82.872641 164.536319 
L 98.311376 165.507192 
L 113.750111 160.323516 
L 129.188846 138.618113 
L 144.627582 157.491188 
L 160.066317 164.936281 
L 175.505052 164.445969 
L 190.943787 153.7052 
L 206.382522 136.694166 
L 221.821257 160.041872 
L 237.259993 158.75397 
L 252.698728 162.792563 
L 268.137463 146.454341 
L 283.576198 132.048892 
L 299.014933 144.170814 
L 314.453668 164.535066 
L 329.892404 165.462831 
L 345.331139 163.555896 
L 360.769874 165.722181 
L 376.208609 165.865967 
L 391.647344 165.891984 
L 407.08608 165.932553 
" style="fill:none;stroke:#1b9e77;stroke-linecap:square;stroke-opacity:0.5;stroke-width:1.5;"/>
   </g>
   <g id="line2d_22">
    <path clip-path="url(#p9dcc982cbc)" d="M 51.99517 165.948325 
L 67.433906 165.940044 
L 82.872641 165.952195 
L 98.311376 165.959792 
L 113.750111 165.920294 
L 129.188846 165.625974 
L 144.627582 164.319518 
L 160.066317 162.805444 
L 175.505052 159.892708 
L 190.943787 164.622482 
L 206.382522 165.261879 
L 221.821257 157.156235 
L 237.259993 127.764432 
L 252.698728 80.567172 
L 268.137463 162.977059 
L 283.576198 163.583306 
L 299.014933 152.564982 
L 314.453668 164.969208 
L 329.892404 165.512524 
L 345.331139 155.020145 
L 360.769874 160.661153 
L 376.208609 164.085313 
L 391.647344 165.566089 
L 407.08608 165.829529 
" style="fill:none;stroke:#1b9e77;stroke-linecap:square;stroke-opacity:0.5;stroke-width:1.5;"/>
   </g>
   <g id="line2d_23">
    <path clip-path="url(#p9dcc982cbc)" d="M 51.99517 165.681142 
L 67.433906 163.709779 
L 82.872641 158.080356 
L 98.311376 152.717434 
L 113.750111 163.905268 
L 129.188846 164.23003 
L 144.627582 164.722656 
L 160.066317 160.356973 
L 175.505052 163.5086 
L 190.943787 165.765989 
L 206.382522 165.814625 
L 221.821257 165.866386 
L 237.259993 165.889108 
L 252.698728 165.924795 
L 268.137463 165.915465 
L 283.576198 165.867905 
L 299.014933 165.418481 
L 314.453668 150.486197 
L 329.892404 133.863351 
L 345.331139 134.643073 
L 360.769874 145.111649 
L 376.208609 136.616932 
L 391.647344 150.768297 
L 407.08608 163.641319 
" style="fill:none;stroke:#1b9e77;stroke-linecap:square;stroke-opacity:0.5;stroke-width:1.5;"/>
   </g>
   <g id="line2d_24">
    <path clip-path="url(#p9dcc982cbc)" d="M 51.99517 164.679335 
L 67.433906 164.708029 
L 82.872641 165.100067 
L 98.311376 165.583011 
L 113.750111 165.690238 
L 129.188846 165.839904 
L 144.627582 165.888602 
L 160.066317 165.891765 
L 175.505052 165.879837 
L 190.943787 165.882633 
L 206.382522 165.883519 
L 221.821257 165.824384 
L 237.259993 165.869131 
L 252.698728 165.761817 
L 268.137463 165.656798 
L 283.576198 165.75009 
L 299.014933 165.838871 
L 314.453668 165.842064 
L 329.892404 165.775804 
L 345.331139 165.883742 
L 360.769874 165.774504 
L 376.208609 154.146392 
L 391.647344 56.543803 
L 407.08608 108.811474 
" style="fill:none;stroke:#1b9e77;stroke-linecap:square;stroke-opacity:0.5;stroke-width:1.5;"/>
   </g>
   <g id="line2d_25">
    <path clip-path="url(#p9dcc982cbc)" d="M 51.99517 165.790035 
L 67.433906 165.460347 
L 82.872641 165.574222 
L 98.311376 165.743734 
L 113.750111 165.810012 
L 129.188846 165.891151 
L 144.627582 165.914143 
L 160.066317 165.9451 
L 175.505052 165.641877 
L 190.943787 161.006011 
L 206.382522 144.697108 
L 221.821257 136.759601 
L 237.259993 128.513007 
L 252.698728 111.30703 
L 268.137463 133.076718 
L 283.576198 165.426303 
L 299.014933 165.411921 
L 314.453668 165.484657 
L 329.892404 165.679671 
L 345.331139 165.827624 
L 360.769874 165.866989 
L 376.208609 165.942769 
L 391.647344 165.954992 
L 407.08608 165.78079 
" style="fill:none;stroke:#1b9e77;stroke-linecap:square;stroke-opacity:0.5;stroke-width:1.5;"/>
   </g>
   <g id="line2d_26">
    <path clip-path="url(#p9dcc982cbc)" d="M 51.99517 165.795936 
L 67.433906 165.007934 
L 82.872641 165.319796 
L 98.311376 165.553435 
L 113.750111 165.671303 
L 129.188846 165.82384 
L 144.627582 165.886869 
L 160.066317 165.927658 
L 175.505052 165.935703 
L 190.943787 165.950283 
L 206.382522 165.951189 
L 221.821257 165.879321 
L 237.259993 165.668045 
L 252.698728 165.73065 
L 268.137463 161.537471 
L 283.576198 151.631691 
L 299.014933 150.198152 
L 314.453668 146.580794 
L 329.892404 139.06113 
L 345.331139 137.615004 
L 360.769874 137.191894 
L 376.208609 141.353457 
L 391.647344 149.724021 
L 407.08608 163.510231 
" style="fill:none;stroke:#1b9e77;stroke-linecap:square;stroke-opacity:0.5;stroke-width:1.5;"/>
   </g>
   <g id="line2d_27">
    <path clip-path="url(#p9dcc982cbc)" d="M 51.99517 164.896822 
L 67.433906 164.927323 
L 82.872641 164.965749 
L 98.311376 165.20182 
L 113.750111 165.634569 
L 129.188846 165.600455 
L 144.627582 165.733891 
L 160.066317 165.807883 
L 175.505052 163.594044 
L 190.943787 152.517305 
L 206.382522 146.101262 
L 221.821257 114.51502 
L 237.259993 106.246841 
L 252.698728 140.767983 
L 268.137463 163.34629 
L 283.576198 164.962302 
L 299.014933 165.85694 
L 314.453668 165.388525 
L 329.892404 165.743165 
L 345.331139 165.895272 
L 360.769874 165.417957 
L 376.208609 165.200246 
L 391.647344 164.612938 
L 407.08608 165.571204 
" style="fill:none;stroke:#1b9e77;stroke-linecap:square;stroke-opacity:0.5;stroke-width:1.5;"/>
   </g>
   <g id="line2d_28">
    <path clip-path="url(#p9dcc982cbc)" d="M 51.99517 164.929391 
L 67.433906 164.701261 
L 82.872641 161.574951 
L 98.311376 144.269935 
L 113.750111 143.413045 
L 129.188846 145.971635 
L 144.627582 140.913484 
L 160.066317 126.525247 
L 175.505052 135.261333 
L 190.943787 162.132096 
L 206.382522 165.580371 
L 221.821257 165.548829 
L 237.259993 165.59223 
L 252.698728 165.718174 
L 268.137463 165.794335 
L 283.576198 165.834089 
L 299.014933 165.85736 
L 314.453668 165.897119 
L 329.892404 165.909667 
L 345.331139 165.92007 
L 360.769874 165.926657 
L 376.208609 165.947186 
L 391.647344 165.855412 
L 407.08608 153.431928 
" style="fill:none;stroke:#1b9e77;stroke-linecap:square;stroke-opacity:0.5;stroke-width:1.5;"/>
   </g>
   <g id="line2d_29">
    <path clip-path="url(#p9dcc982cbc)" d="M 51.99517 165.890296 
L 67.433906 165.950013 
L 82.872641 165.939722 
L 98.311376 165.912711 
L 113.750111 165.711492 
L 129.188846 161.894295 
L 144.627582 160.716462 
L 160.066317 158.571737 
L 175.505052 135.605221 
L 190.943787 149.200646 
L 206.382522 101.063621 
L 221.821257 118.604723 
L 237.259993 164.177709 
L 252.698728 165.472384 
L 268.137463 165.80032 
L 283.576198 165.795491 
L 299.014933 165.520052 
L 314.453668 165.695813 
L 329.892404 165.942721 
L 345.331139 165.822426 
L 360.769874 163.65389 
L 376.208609 164.558189 
L 391.647344 165.236596 
L 407.08608 165.769272 
" style="fill:none;stroke:#1b9e77;stroke-linecap:square;stroke-opacity:0.5;stroke-width:1.5;"/>
   </g>
   <g id="line2d_30">
    <path clip-path="url(#p9dcc982cbc)" d="M 51.99517 150.574469 
L 67.433906 148.696611 
L 82.872641 158.908329 
L 98.311376 160.524287 
L 113.750111 163.799913 
L 129.188846 164.239977 
L 144.627582 165.176493 
L 160.066317 165.61936 
L 175.505052 165.649912 
L 190.943787 165.736722 
L 206.382522 165.824297 
L 221.821257 165.614166 
L 237.259993 164.484138 
L 252.698728 165.79704 
L 268.137463 165.882421 
L 283.576198 165.58871 
L 299.014933 160.72306 
L 314.453668 155.849591 
L 329.892404 153.565298 
L 345.331139 145.948964 
L 360.769874 132.10459 
L 376.208609 136.595364 
L 391.647344 149.055305 
L 407.08608 162.546792 
" style="fill:none;stroke:#1b9e77;stroke-linecap:square;stroke-opacity:0.5;stroke-width:1.5;"/>
   </g>
   <g id="line2d_31">
    <path clip-path="url(#p9dcc982cbc)" d="M 51.99517 164.030464 
L 67.433906 162.340956 
L 82.872641 164.562421 
L 98.311376 165.145406 
L 113.750111 165.434526 
L 129.188846 165.791475 
L 144.627582 165.905148 
L 160.066317 165.925647 
L 175.505052 165.904706 
L 190.943787 165.911823 
L 206.382522 165.915148 
L 221.821257 164.763937 
L 237.259993 150.638858 
L 252.698728 141.261303 
L 268.137463 83.959092 
L 283.576198 127.415572 
L 299.014933 158.662459 
L 314.453668 164.533833 
L 329.892404 165.861974 
L 345.331139 165.863587 
L 360.769874 165.512633 
L 376.208609 165.871376 
L 391.647344 165.125891 
L 407.08608 162.16757 
" style="fill:none;stroke:#1b9e77;stroke-linecap:square;stroke-opacity:0.5;stroke-width:1.5;"/>
   </g>
   <g id="line2d_32">
    <path clip-path="url(#p9dcc982cbc)" d="M 51.99517 165.057642 
L 67.433906 165.788826 
L 82.872641 165.341117 
L 98.311376 163.916459 
L 113.750111 162.899611 
L 129.188846 162.822949 
L 144.627582 155.41321 
L 160.066317 149.565866 
L 175.505052 94.946191 
L 190.943787 163.725091 
L 206.382522 165.677376 
L 221.821257 159.74328 
L 237.259993 150.98064 
L 252.698728 144.426307 
L 268.137463 155.725818 
L 283.576198 146.482201 
L 299.014933 164.686457 
L 314.453668 165.734111 
L 329.892404 165.84338 
L 345.331139 165.918286 
L 360.769874 165.94023 
L 376.208609 165.954765 
L 391.647344 165.95631 
L 407.08608 165.959671 
" style="fill:none;stroke:#1b9e77;stroke-linecap:square;stroke-opacity:0.5;stroke-width:1.5;"/>
   </g>
   <g id="line2d_33">
    <path clip-path="url(#p9dcc982cbc)" d="M 51.99517 165.715064 
L 67.433906 165.68931 
L 82.872641 164.524036 
L 98.311376 165.193709 
L 113.750111 164.32187 
L 129.188846 162.643361 
L 144.627582 165.262307 
L 160.066317 165.500226 
L 175.505052 165.5059 
L 190.943787 165.678492 
L 206.382522 165.826412 
L 221.821257 165.903892 
L 237.259993 165.921167 
L 252.698728 165.942539 
L 268.137463 165.94029 
L 283.576198 165.918371 
L 299.014933 163.421166 
L 314.453668 154.086733 
L 329.892404 136.556813 
L 345.331139 139.702647 
L 360.769874 106.205348 
L 376.208609 127.334664 
L 391.647344 162.216767 
L 407.08608 163.494719 
" style="fill:none;stroke:#1b9e77;stroke-linecap:square;stroke-opacity:0.5;stroke-width:1.5;"/>
   </g>
   <g id="line2d_34">
    <path clip-path="url(#p9dcc982cbc)" d="M 51.99517 161.244841 
L 67.433906 161.98214 
L 82.872641 163.788868 
L 98.311376 165.43238 
L 113.750111 165.713292 
L 129.188846 165.823003 
L 144.627582 165.825813 
L 160.066317 165.830229 
L 175.505052 165.812959 
L 190.943787 165.852645 
L 206.382522 165.849581 
L 221.821257 165.778238 
L 237.259993 165.545232 
L 252.698728 165.279782 
L 268.137463 160.97295 
L 283.576198 118.861479 
L 299.014933 104.05921 
L 314.453668 158.463528 
L 329.892404 163.001809 
L 345.331139 165.097689 
L 360.769874 165.634417 
L 376.208609 165.720982 
L 391.647344 165.113378 
L 407.08608 121.821364 
" style="fill:none;stroke:#1b9e77;stroke-linecap:square;stroke-opacity:0.5;stroke-width:1.5;"/>
   </g>
   <g id="line2d_35">
    <path clip-path="url(#p9dcc982cbc)" d="M 51.99517 165.932086 
L 67.433906 165.923495 
L 82.872641 165.921354 
L 98.311376 165.287157 
L 113.750111 159.48521 
L 129.188846 154.6619 
L 144.627582 137.678683 
L 160.066317 135.020455 
L 175.505052 110.650276 
L 190.943787 163.706602 
L 206.382522 165.789172 
L 221.821257 165.723446 
L 237.259993 160.599771 
L 252.698728 151.479191 
L 268.137463 160.050728 
L 283.576198 163.156172 
L 299.014933 165.433889 
L 314.453668 165.283621 
L 329.892404 163.643496 
L 345.331139 163.011016 
L 360.769874 156.830597 
L 376.208609 164.939779 
L 391.647344 165.873181 
L 407.08608 162.424534 
" style="fill:none;stroke:#1b9e77;stroke-linecap:square;stroke-opacity:0.5;stroke-width:1.5;"/>
   </g>
   <g id="line2d_36">
    <path clip-path="url(#p9dcc982cbc)" d="M 51.99517 165.947282 
L 67.433906 165.940119 
L 82.872641 165.948068 
L 98.311376 165.951602 
L 113.750111 165.929399 
L 129.188846 165.899946 
L 144.627582 164.575414 
L 160.066317 158.371266 
L 175.505052 162.095581 
L 190.943787 160.815839 
L 206.382522 159.870854 
L 221.821257 160.840708 
L 237.259993 163.343714 
L 252.698728 165.6811 
L 268.137463 165.873275 
L 283.576198 165.297142 
L 299.014933 161.796901 
L 314.453668 165.882544 
L 329.892404 165.745911 
L 345.331139 165.213075 
L 360.769874 164.597086 
L 376.208609 110.103206 
L 391.647344 88.020657 
L 407.08608 154.765113 
" style="fill:none;stroke:#1b9e77;stroke-linecap:square;stroke-opacity:0.5;stroke-width:1.5;"/>
   </g>
   <g id="line2d_37">
    <path clip-path="url(#p9dcc982cbc)" d="M 51.99517 165.16936 
L 67.433906 165.280915 
L 82.872641 165.600418 
L 98.311376 165.844212 
L 113.750111 165.887883 
L 129.188846 165.926526 
L 144.627582 165.93646 
L 160.066317 165.94028 
L 175.505052 165.940175 
L 190.943787 165.932322 
L 206.382522 165.912731 
L 221.821257 165.900078 
L 237.259993 165.836866 
L 252.698728 165.189931 
L 268.137463 163.210882 
L 283.576198 162.786465 
L 299.014933 162.424312 
L 314.453668 156.901023 
L 329.892404 120.949871 
L 345.331139 57.887646 
L 360.769874 163.752984 
L 376.208609 162.774076 
L 391.647344 162.005578 
L 407.08608 165.51481 
" style="fill:none;stroke:#1b9e77;stroke-linecap:square;stroke-opacity:0.5;stroke-width:1.5;"/>
   </g>
   <g id="line2d_38">
    <path clip-path="url(#p9dcc982cbc)" d="M 51.99517 165.942743 
L 67.433906 165.899413 
L 82.872641 165.862504 
L 98.311376 165.875089 
L 113.750111 165.860228 
L 129.188846 165.907948 
L 144.627582 165.9367 
L 160.066317 165.939703 
L 175.505052 165.918526 
L 190.943787 165.923194 
L 206.382522 165.910435 
L 221.821257 163.130096 
L 237.259993 158.801354 
L 252.698728 160.296192 
L 268.137463 105.138095 
L 283.576198 63.956681 
L 299.014933 164.828502 
L 314.453668 165.598387 
L 329.892404 165.791409 
L 345.331139 165.5886 
L 360.769874 165.345708 
L 376.208609 165.550196 
L 391.647344 164.591177 
L 407.08608 164.912923 
" style="fill:none;stroke:#1b9e77;stroke-linecap:square;stroke-opacity:0.5;stroke-width:1.5;"/>
   </g>
   <g id="line2d_39">
    <path clip-path="url(#p9dcc982cbc)" d="M 51.99517 165.792122 
L 67.433906 165.134557 
L 82.872641 164.705658 
L 98.311376 163.686392 
L 113.750111 163.308168 
L 129.188846 160.623433 
L 144.627582 164.984339 
L 160.066317 165.619255 
L 175.505052 164.657715 
L 190.943787 152.113731 
L 206.382522 162.268546 
L 221.821257 158.469348 
L 237.259993 143.133544 
L 252.698728 159.918488 
L 268.137463 164.910404 
L 283.576198 164.181035 
L 299.014933 146.059091 
L 314.453668 109.335461 
L 329.892404 153.428384 
L 345.331139 156.209411 
L 360.769874 157.491458 
L 376.208609 161.658116 
L 391.647344 164.996171 
L 407.08608 165.820979 
" style="fill:none;stroke:#1b9e77;stroke-linecap:square;stroke-opacity:0.5;stroke-width:1.5;"/>
   </g>
   <g id="line2d_40">
    <path clip-path="url(#p9dcc982cbc)" d="M 51.99517 164.532142 
L 67.433906 162.879715 
L 82.872641 154.29571 
L 98.311376 146.117574 
L 113.750111 139.128946 
L 129.188846 124.020137 
L 144.627582 147.183436 
L 160.066317 150.827755 
L 175.505052 153.710306 
L 190.943787 148.051286 
L 206.382522 163.36839 
L 221.821257 165.511194 
L 237.259993 165.676145 
L 252.698728 164.055685 
L 268.137463 165.911708 
L 283.576198 165.933026 
L 299.014933 165.89986 
L 314.453668 165.910841 
L 329.892404 164.622817 
L 345.331139 163.586169 
L 360.769874 164.825652 
L 376.208609 165.322412 
L 391.647344 162.549514 
L 407.08608 164.585386 
" style="fill:none;stroke:#1b9e77;stroke-linecap:square;stroke-opacity:0.5;stroke-width:1.5;"/>
   </g>
   <g id="line2d_41">
    <path clip-path="url(#p9dcc982cbc)" d="M 51.99517 165.955018 
L 67.433906 165.868573 
L 82.872641 162.946813 
L 98.311376 156.71126 
L 113.750111 155.340115 
L 129.188846 155.094867 
L 144.627582 158.55043 
L 160.066317 162.921319 
L 175.505052 164.201137 
L 190.943787 158.708796 
L 206.382522 155.854345 
L 221.821257 162.739937 
L 237.259993 163.579677 
L 252.698728 132.120854 
L 268.137463 157.204506 
L 283.576198 164.65352 
L 299.014933 162.609321 
L 314.453668 153.701118 
L 329.892404 149.680684 
L 345.331139 152.385586 
L 360.769874 150.059656 
L 376.208609 160.696557 
L 391.647344 162.602859 
L 407.08608 164.318865 
" style="fill:none;stroke:#1b9e77;stroke-linecap:square;stroke-opacity:0.5;stroke-width:1.5;"/>
   </g>
   <g id="line2d_42">
    <path clip-path="url(#p9dcc982cbc)" d="M 51.99517 165.546132 
L 67.433906 165.26979 
L 82.872641 164.8721 
L 98.311376 165.408211 
L 113.750111 163.778573 
L 129.188846 150.177222 
L 144.627582 158.925337 
L 160.066317 154.81422 
L 175.505052 138.644711 
L 190.943787 142.910924 
L 206.382522 158.175247 
L 221.821257 165.002794 
L 237.259993 165.709555 
L 252.698728 164.218949 
L 268.137463 156.089347 
L 283.576198 158.446133 
L 299.014933 165.118105 
L 314.453668 165.675673 
L 329.892404 165.793498 
L 345.331139 165.044056 
L 360.769874 102.326891 
L 376.208609 165.214889 
L 391.647344 165.900669 
L 407.08608 165.44278 
" style="fill:none;stroke:#1b9e77;stroke-linecap:square;stroke-opacity:0.5;stroke-width:1.5;"/>
   </g>
   <g id="line2d_43">
    <path clip-path="url(#p9dcc982cbc)" d="M 51.99517 165.892045 
L 67.433906 165.807182 
L 82.872641 165.887066 
L 98.311376 165.923901 
L 113.750111 165.935852 
L 129.188846 165.947219 
L 144.627582 165.946658 
L 160.066317 165.827283 
L 175.505052 164.820226 
L 190.943787 164.176348 
L 206.382522 162.992707 
L 221.821257 157.943139 
L 237.259993 139.374782 
L 252.698728 151.193089 
L 268.137463 148.352557 
L 283.576198 146.95487 
L 299.014933 153.695562 
L 314.453668 130.433315 
L 329.892404 122.601421 
L 345.331139 165.41746 
L 360.769874 165.765251 
L 376.208609 165.814482 
L 391.647344 165.8893 
L 407.08608 165.914089 
" style="fill:none;stroke:#1b9e77;stroke-linecap:square;stroke-opacity:0.5;stroke-width:1.5;"/>
   </g>
   <g id="line2d_44">
    <path clip-path="url(#p9dcc982cbc)" d="M 51.99517 142.015928 
L 67.433906 111.875583 
L 82.872641 122.501244 
L 98.311376 147.857809 
L 113.750111 156.344078 
L 129.188846 162.796512 
L 144.627582 164.530164 
L 160.066317 164.942701 
L 175.505052 164.768603 
L 190.943787 165.522879 
L 206.382522 165.777308 
L 221.821257 165.753423 
L 237.259993 165.652703 
L 252.698728 165.481921 
L 268.137463 165.419308 
L 283.576198 165.528658 
L 299.014933 165.527146 
L 314.453668 165.413101 
L 329.892404 165.373203 
L 345.331139 165.566659 
L 360.769874 165.695973 
L 376.208609 165.832353 
L 391.647344 165.772571 
L 407.08608 142.555981 
" style="fill:none;stroke:#1b9e77;stroke-linecap:square;stroke-opacity:0.5;stroke-width:1.5;"/>
   </g>
   <g id="line2d_45">
    <path clip-path="url(#p9dcc982cbc)" d="M 51.99517 165.424633 
L 67.433906 165.545028 
L 82.872641 162.222018 
L 98.311376 142.296921 
L 113.750111 116.949163 
L 129.188846 158.529511 
L 144.627582 155.750935 
L 160.066317 151.951202 
L 175.505052 144.513801 
L 190.943787 147.907775 
L 206.382522 134.726801 
L 221.821257 163.171992 
L 237.259993 165.34551 
L 252.698728 165.69737 
L 268.137463 165.859771 
L 283.576198 165.819082 
L 299.014933 165.863099 
L 314.453668 165.95284 
L 329.892404 165.958238 
L 345.331139 165.952277 
L 360.769874 165.915071 
L 376.208609 165.827072 
L 391.647344 165.492961 
L 407.08608 165.832735 
" style="fill:none;stroke:#1b9e77;stroke-linecap:square;stroke-opacity:0.5;stroke-width:1.5;"/>
   </g>
   <g id="line2d_46">
    <path clip-path="url(#p9dcc982cbc)" d="M 51.99517 160.768391 
L 67.433906 162.494784 
L 82.872641 162.079005 
L 98.311376 162.188117 
L 113.750111 158.527651 
L 129.188846 97.719943 
L 144.627582 157.459432 
L 160.066317 165.104462 
L 175.505052 165.150089 
L 190.943787 158.258438 
L 206.382522 160.11998 
L 221.821257 165.543621 
L 237.259993 165.793125 
L 252.698728 165.8009 
L 268.137463 165.881959 
L 283.576198 165.906926 
L 299.014933 165.904938 
L 314.453668 165.923323 
L 329.892404 165.896968 
L 345.331139 164.934212 
L 360.769874 154.55754 
L 376.208609 143.340919 
L 391.647344 139.497943 
L 407.08608 159.653143 
" style="fill:none;stroke:#1b9e77;stroke-linecap:square;stroke-opacity:0.5;stroke-width:1.5;"/>
   </g>
   <g id="line2d_47">
    <path clip-path="url(#p9dcc982cbc)" d="M 51.99517 154.263899 
L 67.433906 137.853414 
L 82.872641 151.234976 
L 98.311376 160.495828 
L 113.750111 162.663837 
L 129.188846 164.777198 
L 144.627582 165.392772 
L 160.066317 165.677056 
L 175.505052 165.751025 
L 190.943787 165.860819 
L 206.382522 165.889473 
L 221.821257 165.898607 
L 237.259993 165.891749 
L 252.698728 165.82262 
L 268.137463 165.453309 
L 283.576198 164.408084 
L 299.014933 164.504618 
L 314.453668 162.875922 
L 329.892404 158.317261 
L 345.331139 159.379425 
L 360.769874 164.348664 
L 376.208609 161.413846 
L 391.647344 120.491275 
L 407.08608 119.840127 
" style="fill:none;stroke:#1b9e77;stroke-linecap:square;stroke-opacity:0.5;stroke-width:1.5;"/>
   </g>
   <g id="line2d_48">
    <path clip-path="url(#p9dcc982cbc)" d="M 51.99517 164.917099 
L 67.433906 164.677769 
L 82.872641 165.089592 
L 98.311376 165.682967 
L 113.750111 165.800828 
L 129.188846 165.877252 
L 144.627582 165.868194 
L 160.066317 165.86156 
L 175.505052 165.82697 
L 190.943787 165.742346 
L 206.382522 165.407386 
L 221.821257 163.994593 
L 237.259993 164.542836 
L 252.698728 165.661711 
L 268.137463 164.866876 
L 283.576198 139.187231 
L 299.014933 113.125503 
L 314.453668 150.789488 
L 329.892404 135.130609 
L 345.331139 148.564764 
L 360.769874 157.801987 
L 376.208609 150.701761 
L 391.647344 158.233488 
L 407.08608 165.152997 
" style="fill:none;stroke:#1b9e77;stroke-linecap:square;stroke-opacity:0.5;stroke-width:1.5;"/>
   </g>
   <g id="line2d_49">
    <path clip-path="url(#p9dcc982cbc)" d="M 51.99517 160.64368 
L 67.433906 163.490098 
L 82.872641 162.100067 
L 98.311376 132.282648 
L 113.750111 154.479952 
L 129.188846 165.102779 
L 144.627582 165.307035 
L 160.066317 165.443624 
L 175.505052 162.880745 
L 190.943787 148.644448 
L 206.382522 151.922739 
L 221.821257 161.655006 
L 237.259993 134.677273 
L 252.698728 129.070065 
L 268.137463 151.964672 
L 283.576198 161.929042 
L 299.014933 165.80468 
L 314.453668 165.550477 
L 329.892404 165.852598 
L 345.331139 165.919202 
L 360.769874 165.925459 
L 376.208609 165.946614 
L 391.647344 165.954581 
L 407.08608 165.958325 
" style="fill:none;stroke:#1b9e77;stroke-linecap:square;stroke-opacity:0.5;stroke-width:1.5;"/>
   </g>
   <g id="line2d_50">
    <path clip-path="url(#p9dcc982cbc)" d="M 51.99517 165.728067 
L 67.433906 165.647303 
L 82.872641 165.759728 
L 98.311376 165.891472 
L 113.750111 165.922691 
L 129.188846 165.938828 
L 144.627582 165.940178 
L 160.066317 165.938407 
L 175.505052 165.931301 
L 190.943787 165.934516 
L 206.382522 165.926641 
L 221.821257 165.868219 
L 237.259993 165.620261 
L 252.698728 165.467605 
L 268.137463 139.750129 
L 283.576198 71.67634 
L 299.014933 143.393208 
L 314.453668 152.801131 
L 329.892404 163.15329 
L 345.331139 164.521111 
L 360.769874 153.373819 
L 376.208609 165.728108 
L 391.647344 165.295469 
L 407.08608 157.297988 
" style="fill:none;stroke:#1b9e77;stroke-linecap:square;stroke-opacity:0.5;stroke-width:1.5;"/>
   </g>
   <g id="line2d_51">
    <path clip-path="url(#p9dcc982cbc)" d="M 51.99517 160.765534 
L 67.433906 163.776124 
L 82.872641 159.619261 
L 98.311376 152.152813 
L 113.750111 156.987119 
L 129.188846 156.003098 
L 144.627582 154.530334 
L 160.066317 157.826395 
L 175.505052 158.714118 
L 190.943787 152.529403 
L 206.382522 155.33549 
L 221.821257 164.607526 
L 237.259993 152.579971 
L 252.698728 146.685173 
L 268.137463 150.108495 
L 283.576198 162.812822 
L 299.014933 163.936934 
L 314.453668 156.271961 
L 329.892404 146.473974 
L 345.331139 163.187898 
L 360.769874 165.875502 
L 376.208609 165.877281 
L 391.647344 165.895988 
L 407.08608 165.95259 
" style="fill:none;stroke:#1b9e77;stroke-linecap:square;stroke-opacity:0.5;stroke-width:1.5;"/>
   </g>
   <g id="line2d_52">
    <path clip-path="url(#p9dcc982cbc)" d="M 51.99517 165.947455 
L 67.433906 165.90908 
L 82.872641 165.812526 
L 98.311376 165.632836 
L 113.750111 165.693167 
L 129.188846 165.335465 
L 144.627582 162.901873 
L 160.066317 162.853721 
L 175.505052 165.104762 
L 190.943787 165.693855 
L 206.382522 165.783064 
L 221.821257 165.276685 
L 237.259993 163.929472 
L 252.698728 165.33103 
L 268.137463 165.742768 
L 283.576198 165.198554 
L 299.014933 154.819222 
L 314.453668 124.462556 
L 329.892404 127.624402 
L 345.331139 153.421075 
L 360.769874 140.354115 
L 376.208609 142.448791 
L 391.647344 151.249623 
L 407.08608 161.979704 
" style="fill:none;stroke:#1b9e77;stroke-linecap:square;stroke-opacity:0.5;stroke-width:1.5;"/>
   </g>
   <g id="line2d_53">
    <path clip-path="url(#p9dcc982cbc)" d="M 51.99517 164.516805 
L 67.433906 161.132624 
L 82.872641 161.561125 
L 98.311376 163.711985 
L 113.750111 164.405926 
L 129.188846 165.313774 
L 144.627582 165.70186 
L 160.066317 165.778222 
L 175.505052 165.719977 
L 190.943787 165.818437 
L 206.382522 165.886871 
L 221.821257 165.904845 
L 237.259993 165.824334 
L 252.698728 165.869204 
L 268.137463 165.680995 
L 283.576198 163.984433 
L 299.014933 133.56236 
L 314.453668 72.356301 
L 329.892404 129.764166 
L 345.331139 165.338261 
L 360.769874 165.035799 
L 376.208609 165.361501 
L 391.647344 165.660406 
L 407.08608 164.615587 
" style="fill:none;stroke:#1b9e77;stroke-linecap:square;stroke-opacity:0.5;stroke-width:1.5;"/>
   </g>
   <g id="line2d_54">
    <path clip-path="url(#p9dcc982cbc)" d="M 51.99517 165.93752 
L 67.433906 165.959562 
L 82.872641 165.947664 
L 98.311376 165.925283 
L 113.750111 164.618634 
L 129.188846 165.574454 
L 144.627582 165.874706 
L 160.066317 165.320542 
L 175.505052 164.976926 
L 190.943787 162.106703 
L 206.382522 100.239328 
L 221.821257 153.620146 
L 237.259993 165.052929 
L 252.698728 138.943221 
L 268.137463 129.897457 
L 283.576198 135.348007 
L 299.014933 163.548281 
L 314.453668 165.910415 
L 329.892404 165.739937 
L 345.331139 165.837699 
L 360.769874 165.480986 
L 376.208609 165.616244 
L 391.647344 165.579466 
L 407.08608 165.449696 
" style="fill:none;stroke:#1b9e77;stroke-linecap:square;stroke-opacity:0.5;stroke-width:1.5;"/>
   </g>
   <g id="line2d_55">
    <path clip-path="url(#p9dcc982cbc)" d="M 51.99517 165.351362 
L 67.433906 165.498044 
L 82.872641 165.53602 
L 98.311376 164.632609 
L 113.750111 163.6724 
L 129.188846 164.888462 
L 144.627582 165.624386 
L 160.066317 165.567797 
L 175.505052 165.487039 
L 190.943787 165.550675 
L 206.382522 165.598832 
L 221.821257 165.746367 
L 237.259993 165.684514 
L 252.698728 145.716623 
L 268.137463 55.489142 
L 283.576198 124.492687 
L 299.014933 165.267316 
L 314.453668 165.62225 
L 329.892404 165.911111 
L 345.331139 165.931694 
L 360.769874 165.61664 
L 376.208609 165.501473 
L 391.647344 165.239477 
L 407.08608 164.878884 
" style="fill:none;stroke:#1b9e77;stroke-linecap:square;stroke-opacity:0.5;stroke-width:1.5;"/>
   </g>
   <g id="line2d_56">
    <path clip-path="url(#p9dcc982cbc)" d="M 51.99517 165.870661 
L 67.433906 165.826315 
L 82.872641 165.830563 
L 98.311376 165.901982 
L 113.750111 165.924855 
L 129.188846 165.945989 
L 144.627582 165.950651 
L 160.066317 165.949941 
L 175.505052 165.90477 
L 190.943787 165.251148 
L 206.382522 160.453646 
L 221.821257 155.170884 
L 237.259993 143.725442 
L 252.698728 145.337143 
L 268.137463 101.383545 
L 283.576198 117.242005 
L 299.014933 161.682175 
L 314.453668 162.792864 
L 329.892404 164.712015 
L 345.331139 165.644288 
L 360.769874 165.857185 
L 376.208609 165.933496 
L 391.647344 165.749565 
L 407.08608 164.46468 
" style="fill:none;stroke:#1b9e77;stroke-linecap:square;stroke-opacity:0.5;stroke-width:1.5;"/>
   </g>
   <g id="line2d_57">
    <path clip-path="url(#p9dcc982cbc)" d="M 51.99517 165.90955 
L 67.433906 165.851842 
L 82.872641 165.873372 
L 98.311376 165.921985 
L 113.750111 165.89207 
L 129.188846 165.544565 
L 144.627582 153.095552 
L 160.066317 140.192059 
L 175.505052 144.225157 
L 190.943787 142.407161 
L 206.382522 143.644532 
L 221.821257 148.567833 
L 237.259993 144.49747 
L 252.698728 138.048328 
L 268.137463 158.024509 
L 283.576198 165.518745 
L 299.014933 165.534997 
L 314.453668 165.42616 
L 329.892404 165.686011 
L 345.331139 165.794708 
L 360.769874 165.815303 
L 376.208609 165.93547 
L 391.647344 165.953255 
L 407.08608 165.145169 
" style="fill:none;stroke:#1b9e77;stroke-linecap:square;stroke-opacity:0.5;stroke-width:1.5;"/>
   </g>
   <g id="line2d_58">
    <path clip-path="url(#p9dcc982cbc)" d="M 51.99517 165.891351 
L 67.433906 165.871941 
L 82.872641 165.927897 
L 98.311376 165.940611 
L 113.750111 165.948564 
L 129.188846 165.955964 
L 144.627582 165.941511 
L 160.066317 165.936312 
L 175.505052 165.913638 
L 190.943787 164.758542 
L 206.382522 165.449298 
L 221.821257 165.292841 
L 237.259993 153.877837 
L 252.698728 142.492491 
L 268.137463 137.868671 
L 283.576198 127.478617 
L 299.014933 145.12369 
L 314.453668 142.259139 
L 329.892404 148.371746 
L 345.331139 164.957625 
L 360.769874 165.032669 
L 376.208609 165.334111 
L 391.647344 155.296864 
L 407.08608 161.583878 
" style="fill:none;stroke:#1b9e77;stroke-linecap:square;stroke-opacity:0.5;stroke-width:1.5;"/>
   </g>
   <g id="line2d_59">
    <path clip-path="url(#p9dcc982cbc)" d="M 51.99517 149.075794 
L 67.433906 131.62852 
L 82.872641 124.169157 
L 98.311376 142.38469 
L 113.750111 148.694834 
L 129.188846 162.21036 
L 144.627582 164.920774 
L 160.066317 164.64115 
L 175.505052 164.056056 
L 190.943787 164.331012 
L 206.382522 165.036718 
L 221.821257 165.028334 
L 237.259993 164.598763 
L 252.698728 163.312091 
L 268.137463 161.777857 
L 283.576198 161.322374 
L 299.014933 161.512559 
L 314.453668 161.859723 
L 329.892404 162.500003 
L 345.331139 163.283475 
L 360.769874 163.85362 
L 376.208609 165.332572 
L 391.647344 165.734922 
L 407.08608 157.240449 
" style="fill:none;stroke:#1b9e77;stroke-linecap:square;stroke-opacity:0.5;stroke-width:1.5;"/>
   </g>
   <g id="line2d_60">
    <path clip-path="url(#p9dcc982cbc)" d="M 51.99517 165.322381 
L 67.433906 165.744536 
L 82.872641 165.126399 
L 98.311376 164.888462 
L 113.750111 141.860705 
L 129.188846 79.62717 
L 144.627582 154.92834 
L 160.066317 165.005161 
L 175.505052 164.821486 
L 190.943787 163.43553 
L 206.382522 164.864041 
L 221.821257 165.316202 
L 237.259993 165.449447 
L 252.698728 165.730186 
L 268.137463 165.843827 
L 283.576198 164.856913 
L 299.014933 165.048251 
L 314.453668 165.75762 
L 329.892404 164.800318 
L 345.331139 161.552007 
L 360.769874 156.58756 
L 376.208609 150.896598 
L 391.647344 148.801584 
L 407.08608 162.241086 
" style="fill:none;stroke:#1b9e77;stroke-linecap:square;stroke-opacity:0.5;stroke-width:1.5;"/>
   </g>
   <g id="line2d_61">
    <path clip-path="url(#p9dcc982cbc)" d="M 51.99517 164.600099 
L 67.433906 164.072143 
L 82.872641 164.833425 
L 98.311376 165.542545 
L 113.750111 165.723664 
L 129.188846 165.826795 
L 144.627582 165.86972 
L 160.066317 165.924935 
L 175.505052 165.928051 
L 190.943787 165.889967 
L 206.382522 165.209938 
L 221.821257 155.497209 
L 237.259993 138.425033 
L 252.698728 112.122435 
L 268.137463 124.018188 
L 283.576198 137.325874 
L 299.014933 156.741769 
L 314.453668 164.714676 
L 329.892404 165.435838 
L 345.331139 165.665586 
L 360.769874 165.75415 
L 376.208609 165.86956 
L 391.647344 165.773332 
L 407.08608 161.740883 
" style="fill:none;stroke:#1b9e77;stroke-linecap:square;stroke-opacity:0.5;stroke-width:1.5;"/>
   </g>
   <g id="line2d_62">
    <path clip-path="url(#p9dcc982cbc)" d="M 51.99517 165.807228 
L 67.433906 165.547814 
L 82.872641 165.536585 
L 98.311376 165.857144 
L 113.750111 165.853582 
L 129.188846 165.365174 
L 144.627582 164.761046 
L 160.066317 164.26187 
L 175.505052 148.853417 
L 190.943787 148.976491 
L 206.382522 156.199371 
L 221.821257 150.265709 
L 237.259993 108.020605 
L 252.698728 146.197812 
L 268.137463 161.771138 
L 283.576198 164.067486 
L 299.014933 159.674199 
L 314.453668 143.778159 
L 329.892404 163.918541 
L 345.331139 164.013842 
L 360.769874 164.634321 
L 376.208609 164.721304 
L 391.647344 164.854041 
L 407.08608 165.56893 
" style="fill:none;stroke:#1b9e77;stroke-linecap:square;stroke-opacity:0.5;stroke-width:1.5;"/>
   </g>
   <g id="line2d_63">
    <path clip-path="url(#p9dcc982cbc)" d="M 51.99517 153.64422 
L 67.433906 149.207115 
L 82.872641 153.183252 
L 98.311376 158.343673 
L 113.750111 160.130806 
L 129.188846 162.050421 
L 144.627582 163.53406 
L 160.066317 165.092121 
L 175.505052 165.471355 
L 190.943787 165.376679 
L 206.382522 164.967113 
L 221.821257 165.449734 
L 237.259993 165.797177 
L 252.698728 165.8226 
L 268.137463 165.764431 
L 283.576198 165.675414 
L 299.014933 165.332848 
L 314.453668 164.184081 
L 329.892404 109.300168 
L 345.331139 114.85614 
L 360.769874 163.601697 
L 376.208609 162.303741 
L 391.647344 163.925311 
L 407.08608 165.491652 
" style="fill:none;stroke:#1b9e77;stroke-linecap:square;stroke-opacity:0.5;stroke-width:1.5;"/>
   </g>
   <g id="line2d_64">
    <path clip-path="url(#p9dcc982cbc)" d="M 51.99517 165.812032 
L 67.433906 165.769729 
L 82.872641 165.768691 
L 98.311376 165.858947 
L 113.750111 165.883117 
L 129.188846 165.926387 
L 144.627582 165.928015 
L 160.066317 165.911184 
L 175.505052 165.845046 
L 190.943787 165.810126 
L 206.382522 165.752426 
L 221.821257 164.470625 
L 237.259993 165.630856 
L 252.698728 165.906489 
L 268.137463 165.622071 
L 283.576198 90.660333 
L 299.014933 120.314809 
L 314.453668 131.66068 
L 329.892404 157.759602 
L 345.331139 163.128294 
L 360.769874 163.660109 
L 376.208609 165.778686 
L 391.647344 161.197085 
L 407.08608 158.450465 
" style="fill:none;stroke:#1b9e77;stroke-linecap:square;stroke-opacity:0.5;stroke-width:1.5;"/>
   </g>
   <g id="line2d_65">
    <path clip-path="url(#p9dcc982cbc)" d="M 51.99517 165.456675 
L 67.433906 165.05955 
L 82.872641 165.273247 
L 98.311376 165.707021 
L 113.750111 165.811985 
L 129.188846 165.897493 
L 144.627582 165.921834 
L 160.066317 165.931015 
L 175.505052 165.816379 
L 190.943787 162.757002 
L 206.382522 141.017207 
L 221.821257 87.838777 
L 237.259993 133.598429 
L 252.698728 161.848984 
L 268.137463 163.068541 
L 283.576198 154.547507 
L 299.014933 148.840421 
L 314.453668 165.004801 
L 329.892404 165.210772 
L 345.331139 165.608945 
L 360.769874 165.756992 
L 376.208609 165.353367 
L 391.647344 164.461459 
L 407.08608 162.717403 
" style="fill:none;stroke:#1b9e77;stroke-linecap:square;stroke-opacity:0.5;stroke-width:1.5;"/>
   </g>
   <g id="line2d_66">
    <path clip-path="url(#p9dcc982cbc)" d="M 51.99517 165.929576 
L 67.433906 165.884239 
L 82.872641 165.905267 
L 98.311376 165.942463 
L 113.750111 165.953058 
L 129.188846 165.96 
L 144.627582 165.958972 
L 160.066317 165.895643 
L 175.505052 164.61662 
L 190.943787 162.453458 
L 206.382522 157.004952 
L 221.821257 158.644026 
L 237.259993 159.025575 
L 252.698728 158.22596 
L 268.137463 152.135981 
L 283.576198 156.177533 
L 299.014933 156.155546 
L 314.453668 121.098516 
L 329.892404 129.532955 
L 345.331139 145.566412 
L 360.769874 157.113484 
L 376.208609 163.062418 
L 391.647344 165.157332 
L 407.08608 165.105822 
" style="fill:none;stroke:#1b9e77;stroke-linecap:square;stroke-opacity:0.5;stroke-width:1.5;"/>
   </g>
   <g id="line2d_67">
    <path clip-path="url(#p9dcc982cbc)" d="M 51.99517 164.727497 
L 67.433906 165.596573 
L 82.872641 146.258489 
L 98.311376 134.424167 
L 113.750111 150.552521 
L 129.188846 164.11129 
L 144.627582 165.605962 
L 160.066317 165.526694 
L 175.505052 165.022057 
L 190.943787 165.5961 
L 206.382522 165.924163 
L 221.821257 165.933753 
L 237.259993 165.770664 
L 252.698728 165.610616 
L 268.137463 165.046824 
L 283.576198 165.548517 
L 299.014933 164.092189 
L 314.453668 164.282845 
L 329.892404 164.927104 
L 345.331139 164.317676 
L 360.769874 163.463922 
L 376.208609 108.046686 
L 391.647344 128.468812 
L 407.08608 159.650683 
" style="fill:none;stroke:#1b9e77;stroke-linecap:square;stroke-opacity:0.5;stroke-width:1.5;"/>
   </g>
   <g id="line2d_68">
    <path clip-path="url(#p9dcc982cbc)" d="M 51.99517 159.868226 
L 67.433906 156.181928 
L 82.872641 78.093784 
L 98.311376 120.197184 
L 113.750111 139.933314 
L 129.188846 162.722634 
L 144.627582 165.618966 
L 160.066317 165.762888 
L 175.505052 165.903845 
L 190.943787 165.917365 
L 206.382522 165.948125 
L 221.821257 165.953213 
L 237.259993 165.938742 
L 252.698728 165.880713 
L 268.137463 165.464108 
L 283.576198 165.769859 
L 299.014933 165.364295 
L 314.453668 164.465667 
L 329.892404 165.417886 
L 345.331139 165.624728 
L 360.769874 165.68635 
L 376.208609 165.887353 
L 391.647344 165.942004 
L 407.08608 164.96263 
" style="fill:none;stroke:#1b9e77;stroke-linecap:square;stroke-opacity:0.5;stroke-width:1.5;"/>
   </g>
   <g id="line2d_69">
    <path clip-path="url(#p9dcc982cbc)" d="M 51.99517 165.517281 
L 67.433906 165.102789 
L 82.872641 164.951119 
L 98.311376 165.443162 
L 113.750111 163.676475 
L 129.188846 160.302783 
L 144.627582 155.14931 
L 160.066317 155.453746 
L 175.505052 123.534735 
L 190.943787 144.809978 
L 206.382522 157.947778 
L 221.821257 151.752102 
L 237.259993 142.731276 
L 252.698728 154.410883 
L 268.137463 155.638195 
L 283.576198 153.558052 
L 299.014933 159.964225 
L 314.453668 163.964644 
L 329.892404 165.298247 
L 345.331139 165.683351 
L 360.769874 165.891755 
L 376.208609 165.937223 
L 391.647344 165.944366 
L 407.08608 165.842331 
" style="fill:none;stroke:#1b9e77;stroke-linecap:square;stroke-opacity:0.5;stroke-width:1.5;"/>
   </g>
   <g id="line2d_70">
    <path clip-path="url(#p9dcc982cbc)" d="M 51.99517 156.343108 
L 67.433906 153.344617 
L 82.872641 143.965919 
L 98.311376 115.869451 
L 113.750111 135.982667 
L 129.188846 138.92338 
L 144.627582 150.520996 
L 160.066317 162.460743 
L 175.505052 164.0338 
L 190.943787 156.623139 
L 206.382522 164.312147 
L 221.821257 165.618495 
L 237.259993 165.75368 
L 252.698728 165.808862 
L 268.137463 165.87542 
L 283.576198 165.894791 
L 299.014933 165.876084 
L 314.453668 165.883881 
L 329.892404 165.896611 
L 345.331139 165.917547 
L 360.769874 165.922085 
L 376.208609 165.943398 
L 391.647344 165.948322 
L 407.08608 165.786666 
" style="fill:none;stroke:#1b9e77;stroke-linecap:square;stroke-opacity:0.5;stroke-width:1.5;"/>
   </g>
   <g id="line2d_71">
    <path clip-path="url(#p9dcc982cbc)" d="M 51.99517 163.864959 
L 67.433906 159.372284 
L 82.872641 161.324126 
L 98.311376 162.966642 
L 113.750111 164.273325 
L 129.188846 165.267578 
L 144.627582 165.433591 
L 160.066317 165.584996 
L 175.505052 148.544645 
L 190.943787 151.35462 
L 206.382522 157.224383 
L 221.821257 159.746042 
L 237.259993 128.683362 
L 252.698728 104.94908 
L 268.137463 151.353446 
L 283.576198 165.282479 
L 299.014933 165.369205 
L 314.453668 165.517451 
L 329.892404 165.791834 
L 345.331139 165.873262 
L 360.769874 165.876028 
L 376.208609 165.904742 
L 391.647344 165.136323 
L 407.08608 163.811407 
" style="fill:none;stroke:#1b9e77;stroke-linecap:square;stroke-opacity:0.5;stroke-width:1.5;"/>
   </g>
   <g id="line2d_72">
    <path clip-path="url(#p9dcc982cbc)" d="M 51.99517 136.891153 
L 67.433906 122.1161 
L 82.872641 91.475228 
L 98.311376 146.485113 
L 113.750111 161.295487 
L 129.188846 159.573762 
L 144.627582 164.108179 
L 160.066317 165.114237 
L 175.505052 165.061266 
L 190.943787 165.42789 
L 206.382522 165.707251 
L 221.821257 165.85353 
L 237.259993 165.894853 
L 252.698728 165.929253 
L 268.137463 165.933384 
L 283.576198 165.942919 
L 299.014933 165.898087 
L 314.453668 165.709115 
L 329.892404 165.910675 
L 345.331139 165.853073 
L 360.769874 165.815325 
L 376.208609 165.906263 
L 391.647344 165.937865 
L 407.08608 164.665797 
" style="fill:none;stroke:#1b9e77;stroke-linecap:square;stroke-opacity:0.5;stroke-width:1.5;"/>
   </g>
   <g id="line2d_73">
    <path clip-path="url(#p9dcc982cbc)" d="M 51.99517 165.900631 
L 67.433906 165.873472 
L 82.872641 165.9088 
L 98.311376 165.938014 
L 113.750111 165.944127 
L 129.188846 165.951841 
L 144.627582 165.954626 
L 160.066317 165.954465 
L 175.505052 165.943855 
L 190.943787 165.931201 
L 206.382522 165.949077 
L 221.821257 165.953313 
L 237.259993 165.942575 
L 252.698728 163.822663 
L 268.137463 159.467653 
L 283.576198 152.049655 
L 299.014933 148.062175 
L 314.453668 156.630437 
L 329.892404 122.005287 
L 345.331139 113.124195 
L 360.769874 133.848373 
L 376.208609 163.25848 
L 391.647344 164.552187 
L 407.08608 164.538699 
" style="fill:none;stroke:#1b9e77;stroke-linecap:square;stroke-opacity:0.5;stroke-width:1.5;"/>
   </g>
   <g id="line2d_74">
    <path clip-path="url(#p9dcc982cbc)" d="M 51.99517 165.747231 
L 67.433906 165.669321 
L 82.872641 165.788506 
L 98.311376 165.908283 
L 113.750111 165.598623 
L 129.188846 162.626218 
L 144.627582 160.531765 
L 160.066317 165.032896 
L 175.505052 165.708892 
L 190.943787 165.663273 
L 206.382522 165.745102 
L 221.821257 165.720444 
L 237.259993 165.700503 
L 252.698728 165.748064 
L 268.137463 165.832832 
L 283.576198 165.902599 
L 299.014933 165.92849 
L 314.453668 165.935897 
L 329.892404 165.918239 
L 345.331139 165.815793 
L 360.769874 160.955886 
L 376.208609 88.728286 
L 391.647344 98.475333 
L 407.08608 143.823332 
" style="fill:none;stroke:#1b9e77;stroke-linecap:square;stroke-opacity:0.5;stroke-width:1.5;"/>
   </g>
   <g id="line2d_75">
    <path clip-path="url(#p9dcc982cbc)" d="M 51.99517 165.923011 
L 67.433906 165.959337 
L 82.872641 165.923064 
L 98.311376 165.870392 
L 113.750111 165.52611 
L 129.188846 156.95057 
L 144.627582 163.563188 
L 160.066317 161.593176 
L 175.505052 120.113853 
L 190.943787 119.49618 
L 206.382522 105.320047 
L 221.821257 165.346715 
L 237.259993 165.956379 
L 252.698728 165.934859 
L 268.137463 165.883336 
L 283.576198 165.926196 
L 299.014933 165.931121 
L 314.453668 165.954332 
L 329.892404 165.884826 
L 345.331139 165.82271 
L 360.769874 165.471314 
L 376.208609 162.159953 
L 391.647344 158.778684 
L 407.08608 163.21645 
" style="fill:none;stroke:#1b9e77;stroke-linecap:square;stroke-opacity:0.5;stroke-width:1.5;"/>
   </g>
   <g id="line2d_76">
    <path clip-path="url(#p9dcc982cbc)" d="M 51.99517 165.324893 
L 67.433906 164.673045 
L 82.872641 164.98055 
L 98.311376 165.557814 
L 113.750111 165.738954 
L 129.188846 165.806107 
L 144.627582 165.811956 
L 160.066317 165.856049 
L 175.505052 165.878432 
L 190.943787 165.907864 
L 206.382522 165.885566 
L 221.821257 153.286834 
L 237.259993 127.080407 
L 252.698728 108.562608 
L 268.137463 117.163457 
L 283.576198 152.483518 
L 299.014933 164.689789 
L 314.453668 165.475717 
L 329.892404 165.824249 
L 345.331139 165.845472 
L 360.769874 165.660516 
L 376.208609 165.891647 
L 391.647344 165.622098 
L 407.08608 159.498269 
" style="fill:none;stroke:#1b9e77;stroke-linecap:square;stroke-opacity:0.5;stroke-width:1.5;"/>
   </g>
   <g id="line2d_77">
    <path clip-path="url(#p9dcc982cbc)" d="M 51.99517 165.879854 
L 67.433906 165.947962 
L 82.872641 165.935252 
L 98.311376 165.878464 
L 113.750111 162.077982 
L 129.188846 158.403905 
L 144.627582 159.460789 
L 160.066317 161.138477 
L 175.505052 155.414428 
L 190.943787 125.83775 
L 206.382522 132.510795 
L 221.821257 137.42511 
L 237.259993 150.322693 
L 252.698728 158.643239 
L 268.137463 160.873995 
L 283.576198 163.615525 
L 299.014933 163.800056 
L 314.453668 161.317247 
L 329.892404 162.93211 
L 345.331139 163.449508 
L 360.769874 163.441797 
L 376.208609 163.7991 
L 391.647344 164.702282 
L 407.08608 165.69749 
" style="fill:none;stroke:#1b9e77;stroke-linecap:square;stroke-opacity:0.5;stroke-width:1.5;"/>
   </g>
   <g id="line2d_78">
    <path clip-path="url(#p9dcc982cbc)" d="M 51.99517 165.913587 
L 67.433906 165.883975 
L 82.872641 165.90762 
L 98.311376 165.915084 
L 113.750111 165.891244 
L 129.188846 165.923701 
L 144.627582 165.925922 
L 160.066317 165.631488 
L 175.505052 165.876517 
L 190.943787 165.89771 
L 206.382522 165.87867 
L 221.821257 165.607514 
L 237.259993 158.524874 
L 252.698728 159.089601 
L 268.137463 143.429429 
L 283.576198 105.512053 
L 299.014933 127.102539 
L 314.453668 157.514098 
L 329.892404 165.44761 
L 345.331139 164.68262 
L 360.769874 142.171033 
L 376.208609 162.381372 
L 391.647344 163.512522 
L 407.08608 158.885027 
" style="fill:none;stroke:#1b9e77;stroke-linecap:square;stroke-opacity:0.5;stroke-width:1.5;"/>
   </g>
   <g id="line2d_79">
    <path clip-path="url(#p9dcc982cbc)" d="M 51.99517 163.960967 
L 67.433906 162.961794 
L 82.872641 162.324501 
L 98.311376 151.316153 
L 113.750111 113.492733 
L 129.188846 132.394033 
L 144.627582 148.334982 
L 160.066317 150.067749 
L 175.505052 160.063443 
L 190.943787 161.657071 
L 206.382522 164.527495 
L 221.821257 165.301373 
L 237.259993 164.3397 
L 252.698728 157.500158 
L 268.137463 157.53945 
L 283.576198 157.656344 
L 299.014933 164.777837 
L 314.453668 165.000049 
L 329.892404 165.775948 
L 345.331139 165.903626 
L 360.769874 165.937808 
L 376.208609 165.956055 
L 391.647344 165.951039 
L 407.08608 165.765492 
" style="fill:none;stroke:#1b9e77;stroke-linecap:square;stroke-opacity:0.5;stroke-width:1.5;"/>
   </g>
   <g id="line2d_80">
    <path clip-path="url(#p9dcc982cbc)" d="M 51.99517 165.865795 
L 67.433906 165.790912 
L 82.872641 165.837948 
L 98.311376 165.90557 
L 113.750111 165.917383 
L 129.188846 165.947819 
L 144.627582 165.945635 
L 160.066317 164.319982 
L 175.505052 146.207344 
L 190.943787 129.965464 
L 206.382522 101.012042 
L 221.821257 139.024724 
L 237.259993 159.811712 
L 252.698728 163.032561 
L 268.137463 159.154572 
L 283.576198 161.616856 
L 299.014933 164.50654 
L 314.453668 165.83596 
L 329.892404 165.912751 
L 345.331139 165.643902 
L 360.769874 164.896888 
L 376.208609 164.478817 
L 391.647344 161.18268 
L 407.08608 160.691952 
" style="fill:none;stroke:#1b9e77;stroke-linecap:square;stroke-opacity:0.5;stroke-width:1.5;"/>
   </g>
   <g id="line2d_81">
    <path clip-path="url(#p9dcc982cbc)" d="M 51.99517 165.882471 
L 67.433906 165.83411 
L 82.872641 165.880529 
L 98.311376 165.933368 
L 113.750111 165.94468 
L 129.188846 165.95463 
L 144.627582 165.952903 
L 160.066317 165.898025 
L 175.505052 160.961853 
L 190.943787 152.185019 
L 206.382522 150.216617 
L 221.821257 152.467922 
L 237.259993 154.942331 
L 252.698728 160.482175 
L 268.137463 160.254191 
L 283.576198 156.749935 
L 299.014933 147.50479 
L 314.453668 155.326508 
L 329.892404 157.991282 
L 345.331139 163.223351 
L 360.769874 157.214605 
L 376.208609 124.849904 
L 391.647344 155.60303 
L 407.08608 161.251576 
" style="fill:none;stroke:#1b9e77;stroke-linecap:square;stroke-opacity:0.5;stroke-width:1.5;"/>
   </g>
   <g id="line2d_82">
    <path clip-path="url(#p9dcc982cbc)" d="M 51.99517 164.14502 
L 67.433906 164.824185 
L 82.872641 165.090139 
L 98.311376 165.5425 
L 113.750111 140.031004 
L 129.188846 34.75152 
L 144.627582 158.690109 
L 160.066317 157.264617 
L 175.505052 163.260009 
L 190.943787 164.009776 
L 206.382522 165.134014 
L 221.821257 165.634709 
L 237.259993 165.766339 
L 252.698728 165.855052 
L 268.137463 165.891961 
L 283.576198 165.923726 
L 299.014933 165.941347 
L 314.453668 165.947087 
L 329.892404 165.942395 
L 345.331139 165.940258 
L 360.769874 165.942674 
L 376.208609 165.955461 
L 391.647344 165.887175 
L 407.08608 165.134732 
" style="fill:none;stroke:#1b9e77;stroke-linecap:square;stroke-opacity:0.5;stroke-width:1.5;"/>
   </g>
   <g id="line2d_83">
    <path clip-path="url(#p9dcc982cbc)" d="M 51.99517 150.338188 
L 67.433906 140.733912 
L 82.872641 145.472301 
L 98.311376 157.775133 
L 113.750111 161.993678 
L 129.188846 162.468485 
L 144.627582 161.957461 
L 160.066317 162.696612 
L 175.505052 163.220663 
L 190.943787 164.27517 
L 206.382522 164.787466 
L 221.821257 164.970918 
L 237.259993 164.980049 
L 252.698728 165.715966 
L 268.137463 165.411824 
L 283.576198 138.372868 
L 299.014933 129.523259 
L 314.453668 162.704917 
L 329.892404 160.034373 
L 345.331139 153.948129 
L 360.769874 164.907126 
L 376.208609 164.885071 
L 391.647344 162.238452 
L 407.08608 165.093788 
" style="fill:none;stroke:#1b9e77;stroke-linecap:square;stroke-opacity:0.5;stroke-width:1.5;"/>
   </g>
   <g id="line2d_84">
    <path clip-path="url(#p9dcc982cbc)" d="M 51.99517 165.896952 
L 67.433906 165.882323 
L 82.872641 165.823656 
L 98.311376 164.602137 
L 113.750111 165.284592 
L 129.188846 165.376146 
L 144.627582 165.346621 
L 160.066317 163.946456 
L 175.505052 165.679941 
L 190.943787 165.750961 
L 206.382522 165.715142 
L 221.821257 162.995772 
L 237.259993 161.201649 
L 252.698728 160.096264 
L 268.137463 160.590983 
L 283.576198 157.427259 
L 299.014933 138.440466 
L 314.453668 137.696129 
L 329.892404 155.428784 
L 345.331139 163.693672 
L 360.769874 163.13701 
L 376.208609 155.694249 
L 391.647344 129.477789 
L 407.08608 133.320852 
" style="fill:none;stroke:#1b9e77;stroke-linecap:square;stroke-opacity:0.5;stroke-width:1.5;"/>
   </g>
   <g id="line2d_85">
    <path clip-path="url(#p9dcc982cbc)" d="M 51.99517 165.902614 
L 67.433906 165.873632 
L 82.872641 165.918094 
L 98.311376 165.939397 
L 113.750111 165.941445 
L 129.188846 165.948805 
L 144.627582 165.953685 
L 160.066317 165.953567 
L 175.505052 165.952047 
L 190.943787 165.952461 
L 206.382522 165.950481 
L 221.821257 165.884624 
L 237.259993 165.108361 
L 252.698728 165.809804 
L 268.137463 163.086844 
L 283.576198 148.539729 
L 299.014933 161.342829 
L 314.453668 160.34284 
L 329.892404 148.604222 
L 345.331139 161.228404 
L 360.769874 134.131423 
L 376.208609 83.445603 
L 391.647344 152.82776 
L 407.08608 162.867141 
" style="fill:none;stroke:#1b9e77;stroke-linecap:square;stroke-opacity:0.5;stroke-width:1.5;"/>
   </g>
   <g id="line2d_86">
    <path clip-path="url(#p9dcc982cbc)" d="M 51.99517 162.573606 
L 67.433906 162.537524 
L 82.872641 162.196598 
L 98.311376 163.648545 
L 113.750111 163.493723 
L 129.188846 164.721821 
L 144.627582 164.56007 
L 160.066317 164.347603 
L 175.505052 163.862693 
L 190.943787 163.638939 
L 206.382522 161.741768 
L 221.821257 156.633972 
L 237.259993 160.879305 
L 252.698728 162.702713 
L 268.137463 163.373066 
L 283.576198 163.239354 
L 299.014933 163.470561 
L 314.453668 163.424282 
L 329.892404 163.639805 
L 345.331139 164.286696 
L 360.769874 163.997924 
L 376.208609 164.385457 
L 391.647344 158.519523 
L 407.08608 52.630249 
" style="fill:none;stroke:#1b9e77;stroke-linecap:square;stroke-opacity:0.5;stroke-width:1.5;"/>
   </g>
   <g id="line2d_87">
    <path clip-path="url(#p9dcc982cbc)" d="M 51.99517 165.914873 
L 67.433906 165.953924 
L 82.872641 165.95011 
L 98.311376 165.954191 
L 113.750111 165.935542 
L 129.188846 165.951078 
L 144.627582 165.938919 
L 160.066317 165.865113 
L 175.505052 165.691116 
L 190.943787 161.129567 
L 206.382522 165.145395 
L 221.821257 159.607079 
L 237.259993 162.435247 
L 252.698728 162.381658 
L 268.137463 154.238345 
L 283.576198 119.892875 
L 299.014933 157.503179 
L 314.453668 158.048902 
L 329.892404 141.873257 
L 345.331139 120.363553 
L 360.769874 146.253896 
L 376.208609 165.323765 
L 391.647344 165.757759 
L 407.08608 165.396472 
" style="fill:none;stroke:#1b9e77;stroke-linecap:square;stroke-opacity:0.5;stroke-width:1.5;"/>
   </g>
   <g id="line2d_88">
    <path clip-path="url(#p9dcc982cbc)" d="M 51.99517 165.392616 
L 67.433906 165.306974 
L 82.872641 165.633402 
L 98.311376 160.510932 
L 113.750111 165.324362 
L 129.188846 165.827829 
L 144.627582 165.646201 
L 160.066317 165.735237 
L 175.505052 165.521639 
L 190.943787 164.364424 
L 206.382522 164.015694 
L 221.821257 163.130381 
L 237.259993 141.89805 
L 252.698728 91.317477 
L 268.137463 131.844071 
L 283.576198 141.505475 
L 299.014933 159.796988 
L 314.453668 163.007234 
L 329.892404 165.097018 
L 345.331139 165.681548 
L 360.769874 165.683177 
L 376.208609 165.842075 
L 391.647344 165.750523 
L 407.08608 164.672472 
" style="fill:none;stroke:#1b9e77;stroke-linecap:square;stroke-opacity:0.5;stroke-width:1.5;"/>
   </g>
   <g id="line2d_89">
    <path clip-path="url(#p9dcc982cbc)" d="M 51.99517 160.816029 
L 67.433906 161.002242 
L 82.872641 150.811186 
L 98.311376 153.51716 
L 113.750111 156.665241 
L 129.188846 148.8859 
L 144.627582 162.583661 
L 160.066317 164.873571 
L 175.505052 164.091762 
L 190.943787 157.214267 
L 206.382522 153.325095 
L 221.821257 139.97133 
L 237.259993 140.141959 
L 252.698728 149.126204 
L 268.137463 144.441163 
L 283.576198 163.895068 
L 299.014933 165.911299 
L 314.453668 165.885005 
L 329.892404 165.885604 
L 345.331139 165.946778 
L 360.769874 165.946257 
L 376.208609 165.952646 
L 391.647344 165.743567 
L 407.08608 165.872816 
" style="fill:none;stroke:#1b9e77;stroke-linecap:square;stroke-opacity:0.5;stroke-width:1.5;"/>
   </g>
   <g id="line2d_90">
    <path clip-path="url(#p9dcc982cbc)" d="M 51.99517 164.687172 
L 67.433906 164.128853 
L 82.872641 156.550908 
L 98.311376 148.230277 
L 113.750111 146.016952 
L 129.188846 125.964023 
L 144.627582 137.777735 
L 160.066317 151.798775 
L 175.505052 155.333692 
L 190.943787 153.941902 
L 206.382522 158.533251 
L 221.821257 155.034589 
L 237.259993 161.429348 
L 252.698728 165.217681 
L 268.137463 165.554072 
L 283.576198 161.183618 
L 299.014933 165.550065 
L 314.453668 165.925872 
L 329.892404 165.903859 
L 345.331139 165.930186 
L 360.769874 165.941078 
L 376.208609 165.955873 
L 391.647344 165.959605 
L 407.08608 165.956422 
" style="fill:none;stroke:#1b9e77;stroke-linecap:square;stroke-opacity:0.5;stroke-width:1.5;"/>
   </g>
   <g id="line2d_91">
    <path clip-path="url(#p9dcc982cbc)" d="M 51.99517 160.979294 
L 67.433906 157.286889 
L 82.872641 146.496278 
L 98.311376 135.696259 
L 113.750111 130.778515 
L 129.188846 145.528509 
L 144.627582 153.563785 
L 160.066317 151.621173 
L 175.505052 146.102494 
L 190.943787 148.224292 
L 206.382522 165.537077 
L 221.821257 165.813685 
L 237.259993 165.799839 
L 252.698728 165.838844 
L 268.137463 165.886135 
L 283.576198 165.896859 
L 299.014933 165.887459 
L 314.453668 165.910384 
L 329.892404 165.92896 
L 345.331139 165.935752 
L 360.769874 165.942057 
L 376.208609 165.948014 
L 391.647344 165.95207 
L 407.08608 165.951182 
" style="fill:none;stroke:#1b9e77;stroke-linecap:square;stroke-opacity:0.5;stroke-width:1.5;"/>
   </g>
   <g id="line2d_92">
    <path clip-path="url(#p9dcc982cbc)" d="M 51.99517 159.552359 
L 67.433906 161.653088 
L 82.872641 163.721658 
L 98.311376 165.015949 
L 113.750111 165.373079 
L 129.188846 165.572022 
L 144.627582 165.668946 
L 160.066317 165.731849 
L 175.505052 165.743018 
L 190.943787 165.818726 
L 206.382522 165.850592 
L 221.821257 165.889021 
L 237.259993 165.899132 
L 252.698728 165.929024 
L 268.137463 165.910357 
L 283.576198 165.730141 
L 299.014933 164.32999 
L 314.453668 163.02018 
L 329.892404 146.098549 
L 345.331139 98.134333 
L 360.769874 133.418666 
L 376.208609 155.288323 
L 391.647344 156.184981 
L 407.08608 142.971822 
" style="fill:none;stroke:#1b9e77;stroke-linecap:square;stroke-opacity:0.5;stroke-width:1.5;"/>
   </g>
   <g id="line2d_93">
    <path clip-path="url(#p9dcc982cbc)" d="M 51.99517 165.808775 
L 67.433906 165.84089 
L 82.872641 164.641551 
L 98.311376 164.659034 
L 113.750111 151.820646 
L 129.188846 162.217859 
L 144.627582 161.35925 
L 160.066317 165.656978 
L 175.505052 165.189652 
L 190.943787 159.876663 
L 206.382522 148.639828 
L 221.821257 164.264828 
L 237.259993 165.18794 
L 252.698728 165.34946 
L 268.137463 165.053038 
L 283.576198 147.640615 
L 299.014933 154.157508 
L 314.453668 154.786628 
L 329.892404 146.306645 
L 345.331139 139.902415 
L 360.769874 141.238255 
L 376.208609 153.419672 
L 391.647344 160.97891 
L 407.08608 164.508759 
" style="fill:none;stroke:#1b9e77;stroke-linecap:square;stroke-opacity:0.5;stroke-width:1.5;"/>
   </g>
   <g id="line2d_94">
    <path clip-path="url(#p9dcc982cbc)" d="M 51.99517 160.727519 
L 67.433906 157.161807 
L 82.872641 136.59274 
L 98.311376 150.507228 
L 113.750111 152.263255 
L 129.188846 149.338476 
L 144.627582 149.336238 
L 160.066317 156.813583 
L 175.505052 162.34238 
L 190.943787 163.885344 
L 206.382522 164.795751 
L 221.821257 160.841119 
L 237.259993 143.898955 
L 252.698728 134.145287 
L 268.137463 163.609782 
L 283.576198 165.600258 
L 299.014933 165.586331 
L 314.453668 165.647334 
L 329.892404 165.79026 
L 345.331139 165.894167 
L 360.769874 165.927774 
L 376.208609 165.954667 
L 391.647344 165.958693 
L 407.08608 165.886857 
" style="fill:none;stroke:#1b9e77;stroke-linecap:square;stroke-opacity:0.5;stroke-width:1.5;"/>
   </g>
   <g id="line2d_95">
    <path clip-path="url(#p9dcc982cbc)" d="M 51.99517 165.923497 
L 67.433906 165.818776 
L 82.872641 139.573189 
L 98.311376 110.267773 
L 113.750111 142.519755 
L 129.188846 153.23008 
L 144.627582 159.028683 
L 160.066317 163.545775 
L 175.505052 165.452798 
L 190.943787 165.705338 
L 206.382522 165.903675 
L 221.821257 165.749345 
L 237.259993 155.60015 
L 252.698728 128.287319 
L 268.137463 162.447502 
L 283.576198 164.878214 
L 299.014933 164.749061 
L 314.453668 164.918458 
L 329.892404 165.471421 
L 345.331139 165.772655 
L 360.769874 165.838581 
L 376.208609 165.931458 
L 391.647344 165.953405 
L 407.08608 165.938893 
" style="fill:none;stroke:#1b9e77;stroke-linecap:square;stroke-opacity:0.5;stroke-width:1.5;"/>
   </g>
   <g id="line2d_96">
    <path clip-path="url(#p9dcc982cbc)" d="M 51.99517 165.937089 
L 67.433906 165.891585 
L 82.872641 165.833376 
L 98.311376 164.881067 
L 113.750111 156.158411 
L 129.188846 132.509622 
L 144.627582 113.460052 
L 160.066317 137.117298 
L 175.505052 149.577254 
L 190.943787 141.64603 
L 206.382522 157.907848 
L 221.821257 163.561934 
L 237.259993 164.465308 
L 252.698728 161.373205 
L 268.137463 165.807962 
L 283.576198 165.704169 
L 299.014933 165.596583 
L 314.453668 165.750216 
L 329.892404 165.892835 
L 345.331139 165.893305 
L 360.769874 165.859985 
L 376.208609 165.858488 
L 391.647344 165.901091 
L 407.08608 165.921099 
" style="fill:none;stroke:#1b9e77;stroke-linecap:square;stroke-opacity:0.5;stroke-width:1.5;"/>
   </g>
   <g id="line2d_97">
    <path clip-path="url(#p9dcc982cbc)" d="M 51.99517 165.906629 
L 67.433906 165.700525 
L 82.872641 165.57949 
L 98.311376 165.039749 
L 113.750111 164.950411 
L 129.188846 164.239198 
L 144.627582 165.763439 
L 160.066317 165.824692 
L 175.505052 165.797107 
L 190.943787 165.712419 
L 206.382522 165.477422 
L 221.821257 159.378253 
L 237.259993 125.548988 
L 252.698728 120.855606 
L 268.137463 149.569244 
L 283.576198 157.533669 
L 299.014933 156.148801 
L 314.453668 119.245752 
L 329.892404 162.14209 
L 345.331139 165.644532 
L 360.769874 165.523451 
L 376.208609 165.509806 
L 391.647344 165.499713 
L 407.08608 165.914815 
" style="fill:none;stroke:#1b9e77;stroke-linecap:square;stroke-opacity:0.5;stroke-width:1.5;"/>
   </g>
   <g id="line2d_98">
    <path clip-path="url(#p9dcc982cbc)" d="M 51.99517 165.808687 
L 67.433906 165.782122 
L 82.872641 165.851632 
L 98.311376 165.929859 
L 113.750111 165.939858 
L 129.188846 165.953197 
L 144.627582 165.427956 
L 160.066317 130.554167 
L 175.505052 138.218834 
L 190.943787 130.548776 
L 206.382522 149.237155 
L 221.821257 156.841303 
L 237.259993 155.1337 
L 252.698728 151.269884 
L 268.137463 141.594845 
L 283.576198 164.694556 
L 299.014933 164.178372 
L 314.453668 162.4344 
L 329.892404 164.531115 
L 345.331139 165.372634 
L 360.769874 165.531817 
L 376.208609 165.82519 
L 391.647344 165.902871 
L 407.08608 165.942873 
" style="fill:none;stroke:#1b9e77;stroke-linecap:square;stroke-opacity:0.5;stroke-width:1.5;"/>
   </g>
   <g id="line2d_99">
    <path clip-path="url(#p9dcc982cbc)" d="M 51.99517 164.221917 
L 67.433906 163.499517 
L 82.872641 136.486842 
L 98.311376 139.544881 
L 113.750111 156.030706 
L 129.188846 161.038265 
L 144.627582 163.411783 
L 160.066317 159.429803 
L 175.505052 129.968731 
L 190.943787 164.678429 
L 206.382522 165.77571 
L 221.821257 165.132235 
L 237.259993 137.374425 
L 252.698728 153.435162 
L 268.137463 165.553858 
L 283.576198 163.648499 
L 299.014933 155.628281 
L 314.453668 159.919143 
L 329.892404 165.435523 
L 345.331139 165.366167 
L 360.769874 165.452521 
L 376.208609 165.718291 
L 391.647344 165.805825 
L 407.08608 165.949291 
" style="fill:none;stroke:#1b9e77;stroke-linecap:square;stroke-opacity:0.5;stroke-width:1.5;"/>
   </g>
   <g id="line2d_100">
    <path clip-path="url(#p9dcc982cbc)" d="M 51.99517 165.845172 
L 67.433906 165.417865 
L 82.872641 162.440361 
L 98.311376 165.682069 
L 113.750111 165.574268 
L 129.188846 163.114094 
L 144.627582 161.550353 
L 160.066317 165.641662 
L 175.505052 165.367769 
L 190.943787 165.034892 
L 206.382522 152.274398 
L 221.821257 153.380244 
L 237.259993 106.371973 
L 252.698728 163.840827 
L 268.137463 160.103958 
L 283.576198 156.695445 
L 299.014933 165.868147 
L 314.453668 163.666256 
L 329.892404 165.065147 
L 345.331139 163.257396 
L 360.769874 139.503125 
L 376.208609 145.255422 
L 391.647344 152.134985 
L 407.08608 165.419979 
" style="fill:none;stroke:#1b9e77;stroke-linecap:square;stroke-opacity:0.5;stroke-width:1.5;"/>
   </g>
   <g id="line2d_101">
    <path clip-path="url(#p9dcc982cbc)" d="M 51.99517 163.873045 
L 67.433906 163.739103 
L 82.872641 158.23681 
L 98.311376 157.42018 
L 113.750111 161.133313 
L 129.188846 159.946321 
L 144.627582 155.547549 
L 160.066317 160.391933 
L 175.505052 161.184364 
L 190.943787 163.321591 
L 206.382522 164.492902 
L 221.821257 165.084006 
L 237.259993 163.855946 
L 252.698728 138.305896 
L 268.137463 163.597257 
L 283.576198 162.371313 
L 299.014933 156.929059 
L 314.453668 138.155363 
L 329.892404 120.963975 
L 345.331139 162.057743 
L 360.769874 164.960842 
L 376.208609 163.30525 
L 391.647344 164.227501 
L 407.08608 165.404543 
" style="fill:none;stroke:#1b9e77;stroke-linecap:square;stroke-opacity:0.5;stroke-width:1.5;"/>
   </g>
   <g id="line2d_102">
    <path clip-path="url(#p9dcc982cbc)" d="M 51.99517 165.862251 
L 67.433906 165.697181 
L 82.872641 165.77818 
L 98.311376 165.860621 
L 113.750111 165.883615 
L 129.188846 165.913599 
L 144.627582 165.930859 
L 160.066317 165.944228 
L 175.505052 165.947587 
L 190.943787 165.947549 
L 206.382522 165.943836 
L 221.821257 165.947603 
L 237.259993 165.947754 
L 252.698728 165.949668 
L 268.137463 165.914354 
L 283.576198 165.665008 
L 299.014933 164.693301 
L 314.453668 157.914985 
L 329.892404 120.882473 
L 345.331139 133.511842 
L 360.769874 116.528482 
L 376.208609 137.464901 
L 391.647344 152.741824 
L 407.08608 160.634108 
" style="fill:none;stroke:#1b9e77;stroke-linecap:square;stroke-opacity:0.5;stroke-width:1.5;"/>
   </g>
   <g id="line2d_103">
    <path clip-path="url(#p9dcc982cbc)" d="M 51.99517 163.138881 
L 67.433906 151.819874 
L 82.872641 132.310105 
L 98.311376 111.843365 
L 113.750111 111.759878 
L 129.188846 144.676919 
L 144.627582 164.235164 
L 160.066317 165.331222 
L 175.505052 165.3281 
L 190.943787 165.419801 
L 206.382522 165.641324 
L 221.821257 165.821319 
L 237.259993 165.880405 
L 252.698728 165.931293 
L 268.137463 165.944234 
L 283.576198 165.942907 
L 299.014933 165.944018 
L 314.453668 165.94989 
L 329.892404 165.949673 
L 345.331139 165.947925 
L 360.769874 165.944998 
L 376.208609 165.94931 
L 391.647344 165.945644 
L 407.08608 165.849561 
" style="fill:none;stroke:#1b9e77;stroke-linecap:square;stroke-opacity:0.5;stroke-width:1.5;"/>
   </g>
   <g id="line2d_104">
    <path clip-path="url(#p9dcc982cbc)" d="M 51.99517 165.918866 
L 67.433906 165.827464 
L 82.872641 165.668334 
L 98.311376 165.189928 
L 113.750111 164.58494 
L 129.188846 163.894734 
L 144.627582 140.160144 
L 160.066317 130.94349 
L 175.505052 133.01847 
L 190.943787 151.815841 
L 206.382522 147.425324 
L 221.821257 140.570173 
L 237.259993 151.834249 
L 252.698728 165.468561 
L 268.137463 165.686869 
L 283.576198 165.580662 
L 299.014933 164.414423 
L 314.453668 165.515972 
L 329.892404 165.859143 
L 345.331139 165.896501 
L 360.769874 165.88201 
L 376.208609 162.269844 
L 391.647344 161.013252 
L 407.08608 164.066615 
" style="fill:none;stroke:#1b9e77;stroke-linecap:square;stroke-opacity:0.5;stroke-width:1.5;"/>
   </g>
   <g id="line2d_105">
    <path clip-path="url(#p9dcc982cbc)" d="M 51.99517 165.917575 
L 67.433906 165.833238 
L 82.872641 165.384662 
L 98.311376 142.869651 
L 113.750111 141.946164 
L 129.188846 139.099486 
L 144.627582 123.1257 
L 160.066317 146.45641 
L 175.505052 158.585983 
L 190.943787 156.216611 
L 206.382522 149.973632 
L 221.821257 163.768972 
L 237.259993 164.823662 
L 252.698728 155.780027 
L 268.137463 165.839005 
L 283.576198 165.806457 
L 299.014933 165.714699 
L 314.453668 165.799446 
L 329.892404 165.896336 
L 345.331139 165.927021 
L 360.769874 165.931287 
L 376.208609 165.947491 
L 391.647344 165.955534 
L 407.08608 165.906755 
" style="fill:none;stroke:#1b9e77;stroke-linecap:square;stroke-opacity:0.5;stroke-width:1.5;"/>
   </g>
   <g id="line2d_106">
    <path clip-path="url(#p9dcc982cbc)" d="M 51.99517 156.152348 
L 67.433906 157.301648 
L 82.872641 158.927349 
L 98.311376 161.534942 
L 113.750111 161.564701 
L 129.188846 163.702191 
L 144.627582 165.038475 
L 160.066317 165.576084 
L 175.505052 165.588495 
L 190.943787 165.634623 
L 206.382522 165.504223 
L 221.821257 163.513764 
L 237.259993 144.794657 
L 252.698728 116.941582 
L 268.137463 143.827827 
L 283.576198 148.800192 
L 299.014933 157.427405 
L 314.453668 163.153317 
L 329.892404 165.003292 
L 345.331139 165.092391 
L 360.769874 165.08382 
L 376.208609 165.622732 
L 391.647344 165.690803 
L 407.08608 147.028945 
" style="fill:none;stroke:#1b9e77;stroke-linecap:square;stroke-opacity:0.5;stroke-width:1.5;"/>
   </g>
   <g id="line2d_107">
    <path clip-path="url(#p9dcc982cbc)" d="M 51.99517 164.696757 
L 67.433906 162.700527 
L 82.872641 165.590088 
L 98.311376 165.636199 
L 113.750111 165.530103 
L 129.188846 165.73549 
L 144.627582 164.81722 
L 160.066317 159.710848 
L 175.505052 163.903296 
L 190.943787 163.360557 
L 206.382522 136.195675 
L 221.821257 145.959695 
L 237.259993 151.981694 
L 252.698728 138.016066 
L 268.137463 150.016572 
L 283.576198 140.895058 
L 299.014933 157.901847 
L 314.453668 160.710604 
L 329.892404 159.920126 
L 345.331139 165.633095 
L 360.769874 165.795727 
L 376.208609 158.516491 
L 391.647344 161.48317 
L 407.08608 163.798898 
" style="fill:none;stroke:#1b9e77;stroke-linecap:square;stroke-opacity:0.5;stroke-width:1.5;"/>
   </g>
   <g id="line2d_108">
    <path clip-path="url(#p9dcc982cbc)" d="M 51.99517 165.947239 
L 67.433906 165.939176 
L 82.872641 165.865483 
L 98.311376 165.329332 
L 113.750111 162.164474 
L 129.188846 154.604997 
L 144.627582 136.289709 
L 160.066317 143.059354 
L 175.505052 145.666099 
L 190.943787 140.867182 
L 206.382522 144.39434 
L 221.821257 148.666152 
L 237.259993 146.747954 
L 252.698728 155.016785 
L 268.137463 165.132096 
L 283.576198 165.8172 
L 299.014933 165.724168 
L 314.453668 165.774009 
L 329.892404 165.848542 
L 345.331139 165.896742 
L 360.769874 165.909877 
L 376.208609 165.941585 
L 391.647344 165.953369 
L 407.08608 165.949936 
" style="fill:none;stroke:#1b9e77;stroke-linecap:square;stroke-opacity:0.5;stroke-width:1.5;"/>
   </g>
   <g id="line2d_109">
    <path clip-path="url(#p9dcc982cbc)" d="M 51.99517 115.259191 
L 67.433906 115.306635 
L 82.872641 136.269043 
L 98.311376 154.610902 
L 113.750111 158.33508 
L 129.188846 160.31484 
L 144.627582 161.527984 
L 160.066317 163.713282 
L 175.505052 164.615624 
L 190.943787 164.431103 
L 206.382522 163.577996 
L 221.821257 163.967358 
L 237.259993 164.876496 
L 252.698728 165.543659 
L 268.137463 165.661004 
L 283.576198 165.568886 
L 299.014933 165.327159 
L 314.453668 165.279198 
L 329.892404 165.312119 
L 345.331139 164.854862 
L 360.769874 164.005428 
L 376.208609 163.778949 
L 391.647344 164.684157 
L 407.08608 161.684842 
" style="fill:none;stroke:#1b9e77;stroke-linecap:square;stroke-opacity:0.5;stroke-width:1.5;"/>
   </g>
   <g id="line2d_110">
    <path clip-path="url(#p9dcc982cbc)" d="M 51.99517 165.842551 
L 67.433906 165.770357 
L 82.872641 165.820804 
L 98.311376 163.764334 
L 113.750111 158.619101 
L 129.188846 152.39732 
L 144.627582 129.975754 
L 160.066317 129.98993 
L 175.505052 125.768815 
L 190.943787 139.538927 
L 206.382522 155.517882 
L 221.821257 164.702104 
L 237.259993 165.434354 
L 252.698728 163.016798 
L 268.137463 161.726035 
L 283.576198 165.349227 
L 299.014933 165.792193 
L 314.453668 165.833235 
L 329.892404 165.863149 
L 345.331139 165.909163 
L 360.769874 165.916177 
L 376.208609 165.938522 
L 391.647344 165.857565 
L 407.08608 164.161512 
" style="fill:none;stroke:#1b9e77;stroke-linecap:square;stroke-opacity:0.5;stroke-width:1.5;"/>
   </g>
   <g id="line2d_111">
    <path clip-path="url(#p9dcc982cbc)" d="M 51.99517 165.821649 
L 67.433906 165.935248 
L 82.872641 165.91277 
L 98.311376 165.914737 
L 113.750111 165.823895 
L 129.188846 165.924202 
L 144.627582 165.447207 
L 160.066317 164.982475 
L 175.505052 165.072689 
L 190.943787 19.854706 
L 206.382522 144.042877 
L 221.821257 164.148664 
L 237.259993 164.764613 
L 252.698728 165.116865 
L 268.137463 164.799172 
L 283.576198 158.916933 
L 299.014933 165.850778 
L 314.453668 165.901367 
L 329.892404 165.93071 
L 345.331139 165.941554 
L 360.769874 165.938802 
L 376.208609 165.940947 
L 391.647344 165.89145 
L 407.08608 164.63149 
" style="fill:none;stroke:#1b9e77;stroke-linecap:square;stroke-opacity:0.5;stroke-width:1.5;"/>
   </g>
   <g id="line2d_112">
    <path clip-path="url(#p9dcc982cbc)" d="M 51.99517 158.746677 
L 67.433906 138.521254 
L 82.872641 148.132946 
L 98.311376 147.376545 
L 113.750111 152.294096 
L 129.188846 160.313841 
L 144.627582 160.899488 
L 160.066317 152.173198 
L 175.505052 163.69026 
L 190.943787 164.278841 
L 206.382522 165.238204 
L 221.821257 164.759653 
L 237.259993 165.104237 
L 252.698728 165.43142 
L 268.137463 164.569664 
L 283.576198 164.955387 
L 299.014933 165.480984 
L 314.453668 164.792283 
L 329.892404 164.817791 
L 345.331139 164.719679 
L 360.769874 164.979311 
L 376.208609 165.904379 
L 391.647344 163.105615 
L 407.08608 108.220049 
" style="fill:none;stroke:#1b9e77;stroke-linecap:square;stroke-opacity:0.5;stroke-width:1.5;"/>
   </g>
   <g id="line2d_113">
    <path clip-path="url(#p9dcc982cbc)" d="M 51.99517 94.461085 
L 67.433906 123.319505 
L 82.872641 159.45883 
L 98.311376 163.997334 
L 113.750111 161.959563 
L 129.188846 157.888677 
L 144.627582 143.873087 
L 160.066317 143.92747 
L 175.505052 164.413762 
L 190.943787 165.86197 
L 206.382522 165.729012 
L 221.821257 163.340826 
L 237.259993 165.896242 
L 252.698728 165.450093 
L 268.137463 165.54629 
L 283.576198 165.95421 
L 299.014933 165.95421 
L 314.453668 165.833643 
L 329.892404 165.95421 
L 345.331139 165.95421 
L 360.769874 165.871473 
L 376.208609 165.951693 
L 391.647344 165.95421 
L 407.08608 165.95421 
" style="fill:none;stroke:#d95f02;stroke-linecap:square;stroke-width:1.5;"/>
   </g>
   <g id="patch_3">
    <path d="M 34.240625 173.52 
L 34.240625 7.2 
" style="fill:none;stroke:#000000;stroke-linecap:square;stroke-linejoin:miter;stroke-width:0.8;"/>
   </g>
   <g id="patch_4">
    <path d="M 34.240625 173.52 
L 424.840625 173.52 
" style="fill:none;stroke:#000000;stroke-linecap:square;stroke-linejoin:miter;stroke-width:0.8;"/>
   </g>
   <g id="legend_1">
    <g id="patch_5">
     <path d="M 366.673438 29.878125 
L 417.840625 29.878125 
Q 419.840625 29.878125 419.840625 27.878125 
L 419.840625 14.2 
Q 419.840625 12.2 417.840625 12.2 
L 366.673438 12.2 
Q 364.673438 12.2 364.673438 14.2 
L 364.673438 27.878125 
Q 364.673438 29.878125 366.673438 29.878125 
z
" style="fill:#ffffff;opacity:0.8;stroke:#cccccc;stroke-linejoin:miter;"/>
    </g>
    <g id="line2d_114">
     <path d="M 368.673438 20.298438 
L 388.673438 20.298438 
" style="fill:none;stroke:#d95f02;stroke-linecap:square;stroke-width:1.5;"/>
    </g>
    <g id="line2d_115"/>
    <g id="text_15">
     <!-- real -->
     <defs>
      <path d="M 9.421875 75.984375 
L 18.40625 75.984375 
L 18.40625 0 
L 9.421875 0 
z
" id="DejaVuSans-108"/>
     </defs>
     <g transform="translate(396.673438 23.798438)scale(0.1 -0.1)">
      <use xlink:href="#DejaVuSans-114"/>
      <use x="41.082031" xlink:href="#DejaVuSans-101"/>
      <use x="102.605469" xlink:href="#DejaVuSans-97"/>
      <use x="163.884766" xlink:href="#DejaVuSans-108"/>
     </g>
    </g>
   </g>
  </g>
 </g>
 <defs>
  <clipPath id="p9dcc982cbc">
   <rect height="166.32" width="390.6" x="34.240625" y="7.2"/>
  </clipPath>
 </defs>
</svg>
