<?xml version="1.0" encoding="utf-8" standalone="no"?>
<!DOCTYPE svg PUBLIC "-//W3C//DTD SVG 1.1//EN"
  "http://www.w3.org/Graphics/SVG/1.1/DTD/svg11.dtd">
<!-- Created with matplotlib (https://matplotlib.org/) -->
<svg height="211.07625pt" version="1.1" viewBox="0 0 436.087315 211.07625" width="436.087315pt" xmlns="http://www.w3.org/2000/svg" xmlns:xlink="http://www.w3.org/1999/xlink">
 <defs>
  <style type="text/css">
*{stroke-linecap:butt;stroke-linejoin:round;}
  </style>
 </defs>
 <g id="figure_1">
  <g id="patch_1">
   <path d="M 0 211.07625 
L 436.087315 211.07625 
L 436.087315 0 
L 0 0 
z
" style="fill:#ffffff;"/>
  </g>
  <g id="axes_1">
   <g id="patch_2">
    <path d="M 34.240625 173.52 
L 424.840625 173.52 
L 424.840625 7.2 
L 34.240625 7.2 
z
" style="fill:#ffffff;"/>
   </g>
   <g id="matplotlib.axis_1">
    <g id="xtick_1">
     <g id="line2d_1">
      <defs>
       <path d="M 0 0 
L 0 3.5 
" id="m470e703f22" style="stroke:#000000;stroke-width:0.8;"/>
      </defs>
      <g>
       <use style="stroke:#000000;stroke-width:0.8;" x="36.556435" xlink:href="#m470e703f22" y="173.52"/>
      </g>
     </g>
     <g id="text_1">
      <!-- 0 -->
      <defs>
       <path d="M 31.78125 66.40625 
Q 24.171875 66.40625 20.328125 58.90625 
Q 16.5 51.421875 16.5 36.375 
Q 16.5 21.390625 20.328125 13.890625 
Q 24.171875 6.390625 31.78125 6.390625 
Q 39.453125 6.390625 43.28125 13.890625 
Q 47.125 21.390625 47.125 36.375 
Q 47.125 51.421875 43.28125 58.90625 
Q 39.453125 66.40625 31.78125 66.40625 
z
M 31.78125 74.21875 
Q 44.046875 74.21875 50.515625 64.515625 
Q 56.984375 54.828125 56.984375 36.375 
Q 56.984375 17.96875 50.515625 8.265625 
Q 44.046875 -1.421875 31.78125 -1.421875 
Q 19.53125 -1.421875 13.0625 8.265625 
Q 6.59375 17.96875 6.59375 36.375 
Q 6.59375 54.828125 13.0625 64.515625 
Q 19.53125 74.21875 31.78125 74.21875 
z
" id="DejaVuSans-48"/>
      </defs>
      <g transform="translate(33.375185 188.118438)scale(0.1 -0.1)">
       <use xlink:href="#DejaVuSans-48"/>
      </g>
     </g>
    </g>
    <g id="xtick_2">
     <g id="line2d_2">
      <g>
       <use style="stroke:#000000;stroke-width:0.8;" x="113.750111" xlink:href="#m470e703f22" y="173.52"/>
      </g>
     </g>
     <g id="text_2">
      <!-- 5 -->
      <defs>
       <path d="M 10.796875 72.90625 
L 49.515625 72.90625 
L 49.515625 64.59375 
L 19.828125 64.59375 
L 19.828125 46.734375 
Q 21.96875 47.46875 24.109375 47.828125 
Q 26.265625 48.1875 28.421875 48.1875 
Q 40.625 48.1875 47.75 41.5 
Q 54.890625 34.8125 54.890625 23.390625 
Q 54.890625 11.625 47.5625 5.09375 
Q 40.234375 -1.421875 26.90625 -1.421875 
Q 22.3125 -1.421875 17.546875 -0.640625 
Q 12.796875 0.140625 7.71875 1.703125 
L 7.71875 11.625 
Q 12.109375 9.234375 16.796875 8.0625 
Q 21.484375 6.890625 26.703125 6.890625 
Q 35.15625 6.890625 40.078125 11.328125 
Q 45.015625 15.765625 45.015625 23.390625 
Q 45.015625 31 40.078125 35.4375 
Q 35.15625 39.890625 26.703125 39.890625 
Q 22.75 39.890625 18.8125 39.015625 
Q 14.890625 38.140625 10.796875 36.28125 
z
" id="DejaVuSans-53"/>
      </defs>
      <g transform="translate(110.568861 188.118438)scale(0.1 -0.1)">
       <use xlink:href="#DejaVuSans-53"/>
      </g>
     </g>
    </g>
    <g id="xtick_3">
     <g id="line2d_3">
      <g>
       <use style="stroke:#000000;stroke-width:0.8;" x="190.943787" xlink:href="#m470e703f22" y="173.52"/>
      </g>
     </g>
     <g id="text_3">
      <!-- 10 -->
      <defs>
       <path d="M 12.40625 8.296875 
L 28.515625 8.296875 
L 28.515625 63.921875 
L 10.984375 60.40625 
L 10.984375 69.390625 
L 28.421875 72.90625 
L 38.28125 72.90625 
L 38.28125 8.296875 
L 54.390625 8.296875 
L 54.390625 0 
L 12.40625 0 
z
" id="DejaVuSans-49"/>
      </defs>
      <g transform="translate(184.581287 188.118438)scale(0.1 -0.1)">
       <use xlink:href="#DejaVuSans-49"/>
       <use x="63.623047" xlink:href="#DejaVuSans-48"/>
      </g>
     </g>
    </g>
    <g id="xtick_4">
     <g id="line2d_4">
      <g>
       <use style="stroke:#000000;stroke-width:0.8;" x="268.137463" xlink:href="#m470e703f22" y="173.52"/>
      </g>
     </g>
     <g id="text_4">
      <!-- 15 -->
      <g transform="translate(261.774963 188.118438)scale(0.1 -0.1)">
       <use xlink:href="#DejaVuSans-49"/>
       <use x="63.623047" xlink:href="#DejaVuSans-53"/>
      </g>
     </g>
    </g>
    <g id="xtick_5">
     <g id="line2d_5">
      <g>
       <use style="stroke:#000000;stroke-width:0.8;" x="345.331139" xlink:href="#m470e703f22" y="173.52"/>
      </g>
     </g>
     <g id="text_5">
      <!-- 20 -->
      <defs>
       <path d="M 19.1875 8.296875 
L 53.609375 8.296875 
L 53.609375 0 
L 7.328125 0 
L 7.328125 8.296875 
Q 12.9375 14.109375 22.625 23.890625 
Q 32.328125 33.6875 34.8125 36.53125 
Q 39.546875 41.84375 41.421875 45.53125 
Q 43.3125 49.21875 43.3125 52.78125 
Q 43.3125 58.59375 39.234375 62.25 
Q 35.15625 65.921875 28.609375 65.921875 
Q 23.96875 65.921875 18.8125 64.3125 
Q 13.671875 62.703125 7.8125 59.421875 
L 7.8125 69.390625 
Q 13.765625 71.78125 18.9375 73 
Q 24.125 74.21875 28.421875 74.21875 
Q 39.75 74.21875 46.484375 68.546875 
Q 53.21875 62.890625 53.21875 53.421875 
Q 53.21875 48.921875 51.53125 44.890625 
Q 49.859375 40.875 45.40625 35.40625 
Q 44.1875 33.984375 37.640625 27.21875 
Q 31.109375 20.453125 19.1875 8.296875 
z
" id="DejaVuSans-50"/>
      </defs>
      <g transform="translate(338.968639 188.118438)scale(0.1 -0.1)">
       <use xlink:href="#DejaVuSans-50"/>
       <use x="63.623047" xlink:href="#DejaVuSans-48"/>
      </g>
     </g>
    </g>
    <g id="xtick_6">
     <g id="line2d_6">
      <g>
       <use style="stroke:#000000;stroke-width:0.8;" x="422.524815" xlink:href="#m470e703f22" y="173.52"/>
      </g>
     </g>
     <g id="text_6">
      <!-- 25 -->
      <g transform="translate(416.162315 188.118438)scale(0.1 -0.1)">
       <use xlink:href="#DejaVuSans-50"/>
       <use x="63.623047" xlink:href="#DejaVuSans-53"/>
      </g>
     </g>
    </g>
    <g id="text_7">
     <!-- hour -->
     <defs>
      <path d="M 54.890625 33.015625 
L 54.890625 0 
L 45.90625 0 
L 45.90625 32.71875 
Q 45.90625 40.484375 42.875 44.328125 
Q 39.84375 48.1875 33.796875 48.1875 
Q 26.515625 48.1875 22.3125 43.546875 
Q 18.109375 38.921875 18.109375 30.90625 
L 18.109375 0 
L 9.078125 0 
L 9.078125 75.984375 
L 18.109375 75.984375 
L 18.109375 46.1875 
Q 21.34375 51.125 25.703125 53.5625 
Q 30.078125 56 35.796875 56 
Q 45.21875 56 50.046875 50.171875 
Q 54.890625 44.34375 54.890625 33.015625 
z
" id="DejaVuSans-104"/>
      <path d="M 30.609375 48.390625 
Q 23.390625 48.390625 19.1875 42.75 
Q 14.984375 37.109375 14.984375 27.296875 
Q 14.984375 17.484375 19.15625 11.84375 
Q 23.34375 6.203125 30.609375 6.203125 
Q 37.796875 6.203125 41.984375 11.859375 
Q 46.1875 17.53125 46.1875 27.296875 
Q 46.1875 37.015625 41.984375 42.703125 
Q 37.796875 48.390625 30.609375 48.390625 
z
M 30.609375 56 
Q 42.328125 56 49.015625 48.375 
Q 55.71875 40.765625 55.71875 27.296875 
Q 55.71875 13.875 49.015625 6.21875 
Q 42.328125 -1.421875 30.609375 -1.421875 
Q 18.84375 -1.421875 12.171875 6.21875 
Q 5.515625 13.875 5.515625 27.296875 
Q 5.515625 40.765625 12.171875 48.375 
Q 18.84375 56 30.609375 56 
z
" id="DejaVuSans-111"/>
      <path d="M 8.5 21.578125 
L 8.5 54.6875 
L 17.484375 54.6875 
L 17.484375 21.921875 
Q 17.484375 14.15625 20.5 10.265625 
Q 23.53125 6.390625 29.59375 6.390625 
Q 36.859375 6.390625 41.078125 11.03125 
Q 45.3125 15.671875 45.3125 23.6875 
L 45.3125 54.6875 
L 54.296875 54.6875 
L 54.296875 0 
L 45.3125 0 
L 45.3125 8.40625 
Q 42.046875 3.421875 37.71875 1 
Q 33.40625 -1.421875 27.6875 -1.421875 
Q 18.265625 -1.421875 13.375 4.4375 
Q 8.5 10.296875 8.5 21.578125 
z
M 31.109375 56 
z
" id="DejaVuSans-117"/>
      <path d="M 41.109375 46.296875 
Q 39.59375 47.171875 37.8125 47.578125 
Q 36.03125 48 33.890625 48 
Q 26.265625 48 22.1875 43.046875 
Q 18.109375 38.09375 18.109375 28.8125 
L 18.109375 0 
L 9.078125 0 
L 9.078125 54.6875 
L 18.109375 54.6875 
L 18.109375 46.1875 
Q 20.953125 51.171875 25.484375 53.578125 
Q 30.03125 56 36.53125 56 
Q 37.453125 56 38.578125 55.875 
Q 39.703125 55.765625 41.0625 55.515625 
z
" id="DejaVuSans-114"/>
     </defs>
     <g transform="translate(218.088281 201.796563)scale(0.1 -0.1)">
      <use xlink:href="#DejaVuSans-104"/>
      <use x="63.378906" xlink:href="#DejaVuSans-111"/>
      <use x="124.560547" xlink:href="#DejaVuSans-117"/>
      <use x="187.939453" xlink:href="#DejaVuSans-114"/>
     </g>
    </g>
   </g>
   <g id="matplotlib.axis_2">
    <g id="ytick_1">
     <g id="line2d_7">
      <defs>
       <path d="M 0 0 
L -3.5 0 
" id="m1b9ae196fa" style="stroke:#000000;stroke-width:0.8;"/>
      </defs>
      <g>
       <use style="stroke:#000000;stroke-width:0.8;" x="34.240625" xlink:href="#m1b9ae196fa" y="165.961135"/>
      </g>
     </g>
     <g id="text_8">
      <!-- 0 -->
      <g transform="translate(20.878125 169.760354)scale(0.1 -0.1)">
       <use xlink:href="#DejaVuSans-48"/>
      </g>
     </g>
    </g>
    <g id="ytick_2">
     <g id="line2d_8">
      <g>
       <use style="stroke:#000000;stroke-width:0.8;" x="34.240625" xlink:href="#m1b9ae196fa" y="128.288412"/>
      </g>
     </g>
     <g id="text_9">
      <!-- 1 -->
      <g transform="translate(20.878125 132.087631)scale(0.1 -0.1)">
       <use xlink:href="#DejaVuSans-49"/>
      </g>
     </g>
    </g>
    <g id="ytick_3">
     <g id="line2d_9">
      <g>
       <use style="stroke:#000000;stroke-width:0.8;" x="34.240625" xlink:href="#m1b9ae196fa" y="90.615689"/>
      </g>
     </g>
     <g id="text_10">
      <!-- 2 -->
      <g transform="translate(20.878125 94.414907)scale(0.1 -0.1)">
       <use xlink:href="#DejaVuSans-50"/>
      </g>
     </g>
    </g>
    <g id="ytick_4">
     <g id="line2d_10">
      <g>
       <use style="stroke:#000000;stroke-width:0.8;" x="34.240625" xlink:href="#m1b9ae196fa" y="52.942966"/>
      </g>
     </g>
     <g id="text_11">
      <!-- 3 -->
      <defs>
       <path d="M 40.578125 39.3125 
Q 47.65625 37.796875 51.625 33 
Q 55.609375 28.21875 55.609375 21.1875 
Q 55.609375 10.40625 48.1875 4.484375 
Q 40.765625 -1.421875 27.09375 -1.421875 
Q 22.515625 -1.421875 17.65625 -0.515625 
Q 12.796875 0.390625 7.625 2.203125 
L 7.625 11.71875 
Q 11.71875 9.328125 16.59375 8.109375 
Q 21.484375 6.890625 26.8125 6.890625 
Q 36.078125 6.890625 40.9375 10.546875 
Q 45.796875 14.203125 45.796875 21.1875 
Q 45.796875 27.640625 41.28125 31.265625 
Q 36.765625 34.90625 28.71875 34.90625 
L 20.21875 34.90625 
L 20.21875 43.015625 
L 29.109375 43.015625 
Q 36.375 43.015625 40.234375 45.921875 
Q 44.09375 48.828125 44.09375 54.296875 
Q 44.09375 59.90625 40.109375 62.90625 
Q 36.140625 65.921875 28.71875 65.921875 
Q 24.65625 65.921875 20.015625 65.03125 
Q 15.375 64.15625 9.8125 62.3125 
L 9.8125 71.09375 
Q 15.4375 72.65625 20.34375 73.4375 
Q 25.25 74.21875 29.59375 74.21875 
Q 40.828125 74.21875 47.359375 69.109375 
Q 53.90625 64.015625 53.90625 55.328125 
Q 53.90625 49.265625 50.4375 45.09375 
Q 46.96875 40.921875 40.578125 39.3125 
z
" id="DejaVuSans-51"/>
      </defs>
      <g transform="translate(20.878125 56.742184)scale(0.1 -0.1)">
       <use xlink:href="#DejaVuSans-51"/>
      </g>
     </g>
    </g>
    <g id="ytick_5">
     <g id="line2d_11">
      <g>
       <use style="stroke:#000000;stroke-width:0.8;" x="34.240625" xlink:href="#m1b9ae196fa" y="15.270242"/>
      </g>
     </g>
     <g id="text_12">
      <!-- 4 -->
      <defs>
       <path d="M 37.796875 64.3125 
L 12.890625 25.390625 
L 37.796875 25.390625 
z
M 35.203125 72.90625 
L 47.609375 72.90625 
L 47.609375 25.390625 
L 58.015625 25.390625 
L 58.015625 17.1875 
L 47.609375 17.1875 
L 47.609375 0 
L 37.796875 0 
L 37.796875 17.1875 
L 4.890625 17.1875 
L 4.890625 26.703125 
z
" id="DejaVuSans-52"/>
      </defs>
      <g transform="translate(20.878125 19.069461)scale(0.1 -0.1)">
       <use xlink:href="#DejaVuSans-52"/>
      </g>
     </g>
    </g>
    <g id="text_13">
     <!-- precipitation [mm/hour] -->
     <defs>
      <path d="M 18.109375 8.203125 
L 18.109375 -20.796875 
L 9.078125 -20.796875 
L 9.078125 54.6875 
L 18.109375 54.6875 
L 18.109375 46.390625 
Q 20.953125 51.265625 25.265625 53.625 
Q 29.59375 56 35.59375 56 
Q 45.5625 56 51.78125 48.09375 
Q 58.015625 40.1875 58.015625 27.296875 
Q 58.015625 14.40625 51.78125 6.484375 
Q 45.5625 -1.421875 35.59375 -1.421875 
Q 29.59375 -1.421875 25.265625 0.953125 
Q 20.953125 3.328125 18.109375 8.203125 
z
M 48.6875 27.296875 
Q 48.6875 37.203125 44.609375 42.84375 
Q 40.53125 48.484375 33.40625 48.484375 
Q 26.265625 48.484375 22.1875 42.84375 
Q 18.109375 37.203125 18.109375 27.296875 
Q 18.109375 17.390625 22.1875 11.75 
Q 26.265625 6.109375 33.40625 6.109375 
Q 40.53125 6.109375 44.609375 11.75 
Q 48.6875 17.390625 48.6875 27.296875 
z
" id="DejaVuSans-112"/>
      <path d="M 56.203125 29.59375 
L 56.203125 25.203125 
L 14.890625 25.203125 
Q 15.484375 15.921875 20.484375 11.0625 
Q 25.484375 6.203125 34.421875 6.203125 
Q 39.59375 6.203125 44.453125 7.46875 
Q 49.3125 8.734375 54.109375 11.28125 
L 54.109375 2.78125 
Q 49.265625 0.734375 44.1875 -0.34375 
Q 39.109375 -1.421875 33.890625 -1.421875 
Q 20.796875 -1.421875 13.15625 6.1875 
Q 5.515625 13.8125 5.515625 26.8125 
Q 5.515625 40.234375 12.765625 48.109375 
Q 20.015625 56 32.328125 56 
Q 43.359375 56 49.78125 48.890625 
Q 56.203125 41.796875 56.203125 29.59375 
z
M 47.21875 32.234375 
Q 47.125 39.59375 43.09375 43.984375 
Q 39.0625 48.390625 32.421875 48.390625 
Q 24.90625 48.390625 20.390625 44.140625 
Q 15.875 39.890625 15.1875 32.171875 
z
" id="DejaVuSans-101"/>
      <path d="M 48.78125 52.59375 
L 48.78125 44.1875 
Q 44.96875 46.296875 41.140625 47.34375 
Q 37.3125 48.390625 33.40625 48.390625 
Q 24.65625 48.390625 19.8125 42.84375 
Q 14.984375 37.3125 14.984375 27.296875 
Q 14.984375 17.28125 19.8125 11.734375 
Q 24.65625 6.203125 33.40625 6.203125 
Q 37.3125 6.203125 41.140625 7.25 
Q 44.96875 8.296875 48.78125 10.40625 
L 48.78125 2.09375 
Q 45.015625 0.34375 40.984375 -0.53125 
Q 36.96875 -1.421875 32.421875 -1.421875 
Q 20.0625 -1.421875 12.78125 6.34375 
Q 5.515625 14.109375 5.515625 27.296875 
Q 5.515625 40.671875 12.859375 48.328125 
Q 20.21875 56 33.015625 56 
Q 37.15625 56 41.109375 55.140625 
Q 45.0625 54.296875 48.78125 52.59375 
z
" id="DejaVuSans-99"/>
      <path d="M 9.421875 54.6875 
L 18.40625 54.6875 
L 18.40625 0 
L 9.421875 0 
z
M 9.421875 75.984375 
L 18.40625 75.984375 
L 18.40625 64.59375 
L 9.421875 64.59375 
z
" id="DejaVuSans-105"/>
      <path d="M 18.3125 70.21875 
L 18.3125 54.6875 
L 36.8125 54.6875 
L 36.8125 47.703125 
L 18.3125 47.703125 
L 18.3125 18.015625 
Q 18.3125 11.328125 20.140625 9.421875 
Q 21.96875 7.515625 27.59375 7.515625 
L 36.8125 7.515625 
L 36.8125 0 
L 27.59375 0 
Q 17.1875 0 13.234375 3.875 
Q 9.28125 7.765625 9.28125 18.015625 
L 9.28125 47.703125 
L 2.6875 47.703125 
L 2.6875 54.6875 
L 9.28125 54.6875 
L 9.28125 70.21875 
z
" id="DejaVuSans-116"/>
      <path d="M 34.28125 27.484375 
Q 23.390625 27.484375 19.1875 25 
Q 14.984375 22.515625 14.984375 16.5 
Q 14.984375 11.71875 18.140625 8.90625 
Q 21.296875 6.109375 26.703125 6.109375 
Q 34.1875 6.109375 38.703125 11.40625 
Q 43.21875 16.703125 43.21875 25.484375 
L 43.21875 27.484375 
z
M 52.203125 31.203125 
L 52.203125 0 
L 43.21875 0 
L 43.21875 8.296875 
Q 40.140625 3.328125 35.546875 0.953125 
Q 30.953125 -1.421875 24.3125 -1.421875 
Q 15.921875 -1.421875 10.953125 3.296875 
Q 6 8.015625 6 15.921875 
Q 6 25.140625 12.171875 29.828125 
Q 18.359375 34.515625 30.609375 34.515625 
L 43.21875 34.515625 
L 43.21875 35.40625 
Q 43.21875 41.609375 39.140625 45 
Q 35.0625 48.390625 27.6875 48.390625 
Q 23 48.390625 18.546875 47.265625 
Q 14.109375 46.140625 10.015625 43.890625 
L 10.015625 52.203125 
Q 14.9375 54.109375 19.578125 55.046875 
Q 24.21875 56 28.609375 56 
Q 40.484375 56 46.34375 49.84375 
Q 52.203125 43.703125 52.203125 31.203125 
z
" id="DejaVuSans-97"/>
      <path d="M 54.890625 33.015625 
L 54.890625 0 
L 45.90625 0 
L 45.90625 32.71875 
Q 45.90625 40.484375 42.875 44.328125 
Q 39.84375 48.1875 33.796875 48.1875 
Q 26.515625 48.1875 22.3125 43.546875 
Q 18.109375 38.921875 18.109375 30.90625 
L 18.109375 0 
L 9.078125 0 
L 9.078125 54.6875 
L 18.109375 54.6875 
L 18.109375 46.1875 
Q 21.34375 51.125 25.703125 53.5625 
Q 30.078125 56 35.796875 56 
Q 45.21875 56 50.046875 50.171875 
Q 54.890625 44.34375 54.890625 33.015625 
z
" id="DejaVuSans-110"/>
      <path id="DejaVuSans-32"/>
      <path d="M 8.59375 75.984375 
L 29.296875 75.984375 
L 29.296875 69 
L 17.578125 69 
L 17.578125 -6.203125 
L 29.296875 -6.203125 
L 29.296875 -13.1875 
L 8.59375 -13.1875 
z
" id="DejaVuSans-91"/>
      <path d="M 52 44.1875 
Q 55.375 50.25 60.0625 53.125 
Q 64.75 56 71.09375 56 
Q 79.640625 56 84.28125 50.015625 
Q 88.921875 44.046875 88.921875 33.015625 
L 88.921875 0 
L 79.890625 0 
L 79.890625 32.71875 
Q 79.890625 40.578125 77.09375 44.375 
Q 74.3125 48.1875 68.609375 48.1875 
Q 61.625 48.1875 57.5625 43.546875 
Q 53.515625 38.921875 53.515625 30.90625 
L 53.515625 0 
L 44.484375 0 
L 44.484375 32.71875 
Q 44.484375 40.625 41.703125 44.40625 
Q 38.921875 48.1875 33.109375 48.1875 
Q 26.21875 48.1875 22.15625 43.53125 
Q 18.109375 38.875 18.109375 30.90625 
L 18.109375 0 
L 9.078125 0 
L 9.078125 54.6875 
L 18.109375 54.6875 
L 18.109375 46.1875 
Q 21.1875 51.21875 25.484375 53.609375 
Q 29.78125 56 35.6875 56 
Q 41.65625 56 45.828125 52.96875 
Q 50 49.953125 52 44.1875 
z
" id="DejaVuSans-109"/>
      <path d="M 25.390625 72.90625 
L 33.6875 72.90625 
L 8.296875 -9.28125 
L 0 -9.28125 
z
" id="DejaVuSans-47"/>
      <path d="M 30.421875 75.984375 
L 30.421875 -13.1875 
L 9.71875 -13.1875 
L 9.71875 -6.203125 
L 21.390625 -6.203125 
L 21.390625 69 
L 9.71875 69 
L 9.71875 75.984375 
z
" id="DejaVuSans-93"/>
     </defs>
     <g transform="translate(14.798438 150.335781)rotate(-90)scale(0.1 -0.1)">
      <use xlink:href="#DejaVuSans-112"/>
      <use x="63.476562" xlink:href="#DejaVuSans-114"/>
      <use x="104.558594" xlink:href="#DejaVuSans-101"/>
      <use x="166.082031" xlink:href="#DejaVuSans-99"/>
      <use x="221.0625" xlink:href="#DejaVuSans-105"/>
      <use x="248.845703" xlink:href="#DejaVuSans-112"/>
      <use x="312.322266" xlink:href="#DejaVuSans-105"/>
      <use x="340.105469" xlink:href="#DejaVuSans-116"/>
      <use x="379.314453" xlink:href="#DejaVuSans-97"/>
      <use x="440.59375" xlink:href="#DejaVuSans-116"/>
      <use x="479.802734" xlink:href="#DejaVuSans-105"/>
      <use x="507.585938" xlink:href="#DejaVuSans-111"/>
      <use x="568.767578" xlink:href="#DejaVuSans-110"/>
      <use x="632.146484" xlink:href="#DejaVuSans-32"/>
      <use x="663.933594" xlink:href="#DejaVuSans-91"/>
      <use x="702.947266" xlink:href="#DejaVuSans-109"/>
      <use x="800.359375" xlink:href="#DejaVuSans-109"/>
      <use x="897.771484" xlink:href="#DejaVuSans-47"/>
      <use x="931.462891" xlink:href="#DejaVuSans-104"/>
      <use x="994.841797" xlink:href="#DejaVuSans-111"/>
      <use x="1056.023438" xlink:href="#DejaVuSans-117"/>
      <use x="1119.402344" xlink:href="#DejaVuSans-114"/>
      <use x="1160.515625" xlink:href="#DejaVuSans-93"/>
     </g>
    </g>
   </g>
   <g id="line2d_12">
    <path clip-path="url(#p4ea742aa06)" d="M 51.99517 165.952304 
L 67.433906 165.927915 
L 82.872641 165.933844 
L 98.311376 165.931882 
L 113.750111 165.93008 
L 129.188846 165.936678 
L 144.627582 165.93801 
L 160.066317 165.828078 
L 175.505052 165.194796 
L 190.943787 164.583825 
L 206.382522 164.267013 
L 221.821257 164.28679 
L 237.259993 163.610334 
L 252.698728 163.256479 
L 268.137463 162.083885 
L 283.576198 162.530055 
L 299.014933 162.69004 
L 314.453668 162.370435 
L 329.892404 113.772836 
L 345.331139 133.281716 
L 360.769874 139.691857 
L 376.208609 120.372895 
L 391.647344 139.599339 
L 407.08608 131.289776 
" style="fill:none;stroke:#1b9e77;stroke-linecap:square;stroke-opacity:0.5;stroke-width:1.5;"/>
   </g>
   <g id="line2d_13">
    <path clip-path="url(#p4ea742aa06)" d="M 51.99517 76.243051 
L 67.433906 125.225098 
L 82.872641 143.635256 
L 98.311376 126.735867 
L 113.750111 135.484972 
L 129.188846 158.282231 
L 144.627582 163.298896 
L 160.066317 163.075706 
L 175.505052 163.758207 
L 190.943787 164.466806 
L 206.382522 165.140262 
L 221.821257 165.344365 
L 237.259993 165.593837 
L 252.698728 165.75255 
L 268.137463 165.785885 
L 283.576198 165.839193 
L 299.014933 165.863094 
L 314.453668 165.878447 
L 329.892404 165.794148 
L 345.331139 165.722265 
L 360.769874 165.765593 
L 376.208609 165.774744 
L 391.647344 165.853743 
L 407.08608 165.946635 
" style="fill:none;stroke:#1b9e77;stroke-linecap:square;stroke-opacity:0.5;stroke-width:1.5;"/>
   </g>
   <g id="line2d_14">
    <path clip-path="url(#p4ea742aa06)" d="M 51.99517 164.344343 
L 67.433906 164.345264 
L 82.872641 165.478244 
L 98.311376 165.542029 
L 113.750111 165.636507 
L 129.188846 165.676929 
L 144.627582 165.699149 
L 160.066317 165.716023 
L 175.505052 165.704848 
L 190.943787 165.710195 
L 206.382522 165.115039 
L 221.821257 159.038934 
L 237.259993 158.498859 
L 252.698728 161.519882 
L 268.137463 159.590868 
L 283.576198 158.931111 
L 299.014933 161.713899 
L 314.453668 149.016525 
L 329.892404 53.026542 
L 345.331139 162.950588 
L 360.769874 154.103348 
L 376.208609 146.434182 
L 391.647344 149.563559 
L 407.08608 146.90399 
" style="fill:none;stroke:#1b9e77;stroke-linecap:square;stroke-opacity:0.5;stroke-width:1.5;"/>
   </g>
   <g id="line2d_15">
    <path clip-path="url(#p4ea742aa06)" d="M 51.99517 165.196732 
L 67.433906 165.376432 
L 82.872641 165.714848 
L 98.311376 165.724595 
L 113.750111 165.783609 
L 129.188846 165.84915 
L 144.627582 165.833906 
L 160.066317 165.782352 
L 175.505052 165.621818 
L 190.943787 165.329252 
L 206.382522 164.041597 
L 221.821257 162.469778 
L 237.259993 162.203817 
L 252.698728 163.154364 
L 268.137463 151.226952 
L 283.576198 148.049194 
L 299.014933 144.965871 
L 314.453668 112.292192 
L 329.892404 112.069163 
L 345.331139 140.851651 
L 360.769874 156.355624 
L 376.208609 159.362733 
L 391.647344 150.891205 
L 407.08608 156.114021 
" style="fill:none;stroke:#1b9e77;stroke-linecap:square;stroke-opacity:0.5;stroke-width:1.5;"/>
   </g>
   <g id="line2d_16">
    <path clip-path="url(#p4ea742aa06)" d="M 51.99517 165.955958 
L 67.433906 165.952029 
L 82.872641 165.952498 
L 98.311376 165.935167 
L 113.750111 165.757725 
L 129.188846 164.561119 
L 144.627582 133.018053 
L 160.066317 132.206423 
L 175.505052 159.09419 
L 190.943787 160.340688 
L 206.382522 165.084363 
L 221.821257 165.639005 
L 237.259993 163.973097 
L 252.698728 146.654357 
L 268.137463 138.428884 
L 283.576198 145.628994 
L 299.014933 124.177708 
L 314.453668 151.855059 
L 329.892404 160.250379 
L 345.331139 154.171725 
L 360.769874 148.178675 
L 376.208609 165.572881 
L 391.647344 165.918981 
L 407.08608 165.952896 
" style="fill:none;stroke:#1b9e77;stroke-linecap:square;stroke-opacity:0.5;stroke-width:1.5;"/>
   </g>
   <g id="line2d_17">
    <path clip-path="url(#p4ea742aa06)" d="M 51.99517 165.356594 
L 67.433906 165.444762 
L 82.872641 165.793469 
L 98.311376 165.803356 
L 113.750111 165.867086 
L 129.188846 165.918706 
L 144.627582 165.926166 
L 160.066317 165.920061 
L 175.505052 165.143938 
L 190.943787 161.260784 
L 206.382522 156.562232 
L 221.821257 165.20922 
L 237.259993 163.018608 
L 252.698728 164.544858 
L 268.137463 163.095472 
L 283.576198 135.101089 
L 299.014933 100.756057 
L 314.453668 116.134284 
L 329.892404 145.625413 
L 345.331139 147.628003 
L 360.769874 145.344287 
L 376.208609 157.031232 
L 391.647344 164.023965 
L 407.08608 163.751205 
" style="fill:none;stroke:#1b9e77;stroke-linecap:square;stroke-opacity:0.5;stroke-width:1.5;"/>
   </g>
   <g id="line2d_18">
    <path clip-path="url(#p4ea742aa06)" d="M 51.99517 164.085187 
L 67.433906 164.936681 
L 82.872641 165.578445 
L 98.311376 165.551413 
L 113.750111 165.597493 
L 129.188846 165.675643 
L 144.627582 165.77016 
L 160.066317 165.840884 
L 175.505052 165.862263 
L 190.943787 165.829799 
L 206.382522 164.734522 
L 221.821257 161.735468 
L 237.259993 159.194878 
L 252.698728 165.707531 
L 268.137463 160.131049 
L 283.576198 151.74559 
L 299.014933 155.706921 
L 314.453668 151.656912 
L 329.892404 106.015894 
L 345.331139 111.193802 
L 360.769874 152.430567 
L 376.208609 155.078061 
L 391.647344 145.119114 
L 407.08608 145.082573 
" style="fill:none;stroke:#1b9e77;stroke-linecap:square;stroke-opacity:0.5;stroke-width:1.5;"/>
   </g>
   <g id="line2d_19">
    <path clip-path="url(#p4ea742aa06)" d="M 51.99517 165.911018 
L 67.433906 165.830751 
L 82.872641 165.901579 
L 98.311376 165.909059 
L 113.750111 165.915908 
L 129.188846 165.940102 
L 144.627582 165.93077 
L 160.066317 165.857274 
L 175.505052 164.967504 
L 190.943787 162.469932 
L 206.382522 164.019849 
L 221.821257 162.009902 
L 237.259993 158.123546 
L 252.698728 152.025277 
L 268.137463 142.22372 
L 283.576198 149.510617 
L 299.014933 158.729353 
L 314.453668 66.210222 
L 329.892404 136.09676 
L 345.331139 161.120476 
L 360.769874 160.586962 
L 376.208609 151.021464 
L 391.647344 158.189354 
L 407.08608 165.759464 
" style="fill:none;stroke:#1b9e77;stroke-linecap:square;stroke-opacity:0.5;stroke-width:1.5;"/>
   </g>
   <g id="line2d_20">
    <path clip-path="url(#p4ea742aa06)" d="M 51.99517 154.136545 
L 67.433906 155.118741 
L 82.872641 161.927967 
L 98.311376 163.211348 
L 113.750111 164.207783 
L 129.188846 164.732669 
L 144.627582 164.739695 
L 160.066317 164.931927 
L 175.505052 164.536915 
L 190.943787 165.639382 
L 206.382522 158.394128 
L 221.821257 115.109151 
L 237.259993 59.106105 
L 252.698728 137.472898 
L 268.137463 165.270729 
L 283.576198 165.102604 
L 299.014933 156.986488 
L 314.453668 164.493785 
L 329.892404 165.805133 
L 345.331139 165.759492 
L 360.769874 165.85129 
L 376.208609 165.867561 
L 391.647344 165.907887 
L 407.08608 165.950625 
" style="fill:none;stroke:#1b9e77;stroke-linecap:square;stroke-opacity:0.5;stroke-width:1.5;"/>
   </g>
   <g id="line2d_21">
    <path clip-path="url(#p4ea742aa06)" d="M 51.99517 161.585533 
L 67.433906 165.649573 
L 82.872641 165.670023 
L 98.311376 165.175384 
L 113.750111 164.620091 
L 129.188846 164.893711 
L 144.627582 165.482086 
L 160.066317 165.205343 
L 175.505052 164.388093 
L 190.943787 163.400362 
L 206.382522 163.4357 
L 221.821257 163.289217 
L 237.259993 162.794008 
L 252.698728 161.592199 
L 268.137463 157.405832 
L 283.576198 158.552696 
L 299.014933 156.987679 
L 314.453668 14.76 
L 329.892404 132.764077 
L 345.331139 162.730201 
L 360.769874 164.845487 
L 376.208609 165.053201 
L 391.647344 165.053315 
L 407.08608 164.927041 
" style="fill:none;stroke:#1b9e77;stroke-linecap:square;stroke-opacity:0.5;stroke-width:1.5;"/>
   </g>
   <g id="line2d_22">
    <path clip-path="url(#p4ea742aa06)" d="M 51.99517 165.833923 
L 67.433906 165.603125 
L 82.872641 165.714805 
L 98.311376 165.650367 
L 113.750111 165.651687 
L 129.188846 165.794024 
L 144.627582 165.861551 
L 160.066317 165.832935 
L 175.505052 165.766728 
L 190.943787 165.726945 
L 206.382522 165.602597 
L 221.821257 165.852657 
L 237.259993 165.85901 
L 252.698728 162.873129 
L 268.137463 161.530762 
L 283.576198 159.811645 
L 299.014933 146.293429 
L 314.453668 130.610896 
L 329.892404 131.70592 
L 345.331139 150.238188 
L 360.769874 155.050519 
L 376.208609 70.106542 
L 391.647344 152.651599 
L 407.08608 164.637873 
" style="fill:none;stroke:#1b9e77;stroke-linecap:square;stroke-opacity:0.5;stroke-width:1.5;"/>
   </g>
   <g id="line2d_23">
    <path clip-path="url(#p4ea742aa06)" d="M 51.99517 165.780568 
L 67.433906 165.899688 
L 82.872641 165.943736 
L 98.311376 165.497637 
L 113.750111 163.37667 
L 129.188846 160.79964 
L 144.627582 164.028112 
L 160.066317 165.957316 
L 175.505052 164.378074 
L 190.943787 164.458338 
L 206.382522 161.444576 
L 221.821257 90.31449 
L 237.259993 135.370429 
L 252.698728 138.38198 
L 268.137463 136.09056 
L 283.576198 130.66135 
L 299.014933 153.550841 
L 314.453668 163.708799 
L 329.892404 164.831404 
L 345.331139 160.487656 
L 360.769874 162.140255 
L 376.208609 165.440847 
L 391.647344 165.788838 
L 407.08608 165.929046 
" style="fill:none;stroke:#1b9e77;stroke-linecap:square;stroke-opacity:0.5;stroke-width:1.5;"/>
   </g>
   <g id="line2d_24">
    <path clip-path="url(#p4ea742aa06)" d="M 51.99517 165.20231 
L 67.433906 162.010743 
L 82.872641 159.36757 
L 98.311376 153.380734 
L 113.750111 138.466356 
L 129.188846 135.848193 
L 144.627582 151.801794 
L 160.066317 152.486536 
L 175.505052 112.843661 
L 190.943787 151.224735 
L 206.382522 162.181843 
L 221.821257 159.338937 
L 237.259993 164.408934 
L 252.698728 165.267208 
L 268.137463 165.590683 
L 283.576198 165.483821 
L 299.014933 165.135157 
L 314.453668 164.667794 
L 329.892404 164.566493 
L 345.331139 165.161685 
L 360.769874 163.860352 
L 376.208609 155.914527 
L 391.647344 136.906604 
L 407.08608 159.144183 
" style="fill:none;stroke:#1b9e77;stroke-linecap:square;stroke-opacity:0.5;stroke-width:1.5;"/>
   </g>
   <g id="line2d_25">
    <path clip-path="url(#p4ea742aa06)" d="M 51.99517 160.899373 
L 67.433906 160.271552 
L 82.872641 160.378463 
L 98.311376 154.178163 
L 113.750111 135.670794 
L 129.188846 122.930538 
L 144.627582 131.560528 
L 160.066317 120.182771 
L 175.505052 129.490971 
L 190.943787 153.31182 
L 206.382522 163.60454 
L 221.821257 160.531434 
L 237.259993 163.722836 
L 252.698728 165.269331 
L 268.137463 165.676895 
L 283.576198 165.692625 
L 299.014933 165.764508 
L 314.453668 165.789927 
L 329.892404 165.834938 
L 345.331139 165.850296 
L 360.769874 165.878217 
L 376.208609 165.901208 
L 391.647344 165.915943 
L 407.08608 165.953177 
" style="fill:none;stroke:#1b9e77;stroke-linecap:square;stroke-opacity:0.5;stroke-width:1.5;"/>
   </g>
   <g id="line2d_26">
    <path clip-path="url(#p4ea742aa06)" d="M 51.99517 165.464583 
L 67.433906 165.624915 
L 82.872641 165.855676 
L 98.311376 165.856082 
L 113.750111 165.880458 
L 129.188846 165.904493 
L 144.627582 165.913641 
L 160.066317 165.934199 
L 175.505052 165.940464 
L 190.943787 165.85461 
L 206.382522 66.095047 
L 221.821257 162.430842 
L 237.259993 165.378752 
L 252.698728 162.416005 
L 268.137463 159.911229 
L 283.576198 109.26741 
L 299.014933 130.95836 
L 314.453668 164.936674 
L 329.892404 165.548416 
L 345.331139 153.771754 
L 360.769874 157.491586 
L 376.208609 163.179792 
L 391.647344 160.202542 
L 407.08608 160.443321 
" style="fill:none;stroke:#1b9e77;stroke-linecap:square;stroke-opacity:0.5;stroke-width:1.5;"/>
   </g>
   <g id="line2d_27">
    <path clip-path="url(#p4ea742aa06)" d="M 51.99517 162.975111 
L 67.433906 164.211289 
L 82.872641 158.414456 
L 98.311376 136.736379 
L 113.750111 139.505609 
L 129.188846 160.234358 
L 144.627582 165.524553 
L 160.066317 165.400248 
L 175.505052 160.325153 
L 190.943787 152.82117 
L 206.382522 154.894049 
L 221.821257 165.812467 
L 237.259993 165.345449 
L 252.698728 139.066229 
L 268.137463 127.061303 
L 283.576198 110.926767 
L 299.014933 161.515477 
L 314.453668 164.610845 
L 329.892404 164.810221 
L 345.331139 158.302353 
L 360.769874 164.359102 
L 376.208609 165.656603 
L 391.647344 165.819392 
L 407.08608 165.932267 
" style="fill:none;stroke:#1b9e77;stroke-linecap:square;stroke-opacity:0.5;stroke-width:1.5;"/>
   </g>
   <g id="line2d_28">
    <path clip-path="url(#p4ea742aa06)" d="M 51.99517 162.95936 
L 67.433906 144.866532 
L 82.872641 102.198996 
L 98.311376 137.201335 
L 113.750111 160.807428 
L 129.188846 165.012098 
L 144.627582 159.819926 
L 160.066317 155.921838 
L 175.505052 165.124921 
L 190.943787 165.714364 
L 206.382522 165.845696 
L 221.821257 165.646525 
L 237.259993 165.376433 
L 252.698728 165.856157 
L 268.137463 165.915601 
L 283.576198 165.937919 
L 299.014933 165.932909 
L 314.453668 158.765488 
L 329.892404 95.133923 
L 345.331139 165.311347 
L 360.769874 163.193306 
L 376.208609 157.967992 
L 391.647344 159.630174 
L 407.08608 160.120582 
" style="fill:none;stroke:#1b9e77;stroke-linecap:square;stroke-opacity:0.5;stroke-width:1.5;"/>
   </g>
   <g id="line2d_29">
    <path clip-path="url(#p4ea742aa06)" d="M 51.99517 163.859079 
L 67.433906 150.725954 
L 82.872641 129.599431 
L 98.311376 130.065445 
L 113.750111 126.096308 
L 129.188846 110.021151 
L 144.627582 142.230039 
L 160.066317 155.330481 
L 175.505052 164.240347 
L 190.943787 165.294192 
L 206.382522 165.640326 
L 221.821257 165.372813 
L 237.259993 165.240349 
L 252.698728 165.826603 
L 268.137463 165.874413 
L 283.576198 165.605791 
L 299.014933 164.374059 
L 314.453668 163.940265 
L 329.892404 163.147515 
L 345.331139 163.905497 
L 360.769874 163.471458 
L 376.208609 163.266583 
L 391.647344 162.337218 
L 407.08608 164.795538 
" style="fill:none;stroke:#1b9e77;stroke-linecap:square;stroke-opacity:0.5;stroke-width:1.5;"/>
   </g>
   <g id="line2d_30">
    <path clip-path="url(#p4ea742aa06)" d="M 51.99517 164.36255 
L 67.433906 159.537915 
L 82.872641 152.614701 
L 98.311376 141.289966 
L 113.750111 145.634258 
L 129.188846 157.205169 
L 144.627582 140.574674 
L 160.066317 110.108158 
L 175.505052 144.366028 
L 190.943787 165.32157 
L 206.382522 165.191228 
L 221.821257 163.462795 
L 237.259993 162.335485 
L 252.698728 165.913094 
L 268.137463 165.933422 
L 283.576198 165.94599 
L 299.014933 165.850525 
L 314.453668 165.554463 
L 329.892404 165.52044 
L 345.331139 165.946759 
L 360.769874 165.617547 
L 376.208609 131.588293 
L 391.647344 146.498808 
L 407.08608 163.88701 
" style="fill:none;stroke:#1b9e77;stroke-linecap:square;stroke-opacity:0.5;stroke-width:1.5;"/>
   </g>
   <g id="line2d_31">
    <path clip-path="url(#p4ea742aa06)" d="M 51.99517 165.941379 
L 67.433906 165.873877 
L 82.872641 165.890945 
L 98.311376 165.891997 
L 113.750111 165.884649 
L 129.188846 165.910658 
L 144.627582 165.913427 
L 160.066317 165.924655 
L 175.505052 156.313382 
L 190.943787 156.012591 
L 206.382522 158.578314 
L 221.821257 159.693172 
L 237.259993 158.636454 
L 252.698728 158.090162 
L 268.137463 156.206284 
L 283.576198 155.111406 
L 299.014933 155.538908 
L 314.453668 153.151875 
L 329.892404 144.587779 
L 345.331139 138.958381 
L 360.769874 136.622763 
L 376.208609 133.214778 
L 391.647344 134.090886 
L 407.08608 158.222133 
" style="fill:none;stroke:#1b9e77;stroke-linecap:square;stroke-opacity:0.5;stroke-width:1.5;"/>
   </g>
   <g id="line2d_32">
    <path clip-path="url(#p4ea742aa06)" d="M 51.99517 162.446026 
L 67.433906 165.252891 
L 82.872641 165.131171 
L 98.311376 98.046517 
L 113.750111 125.793727 
L 129.188846 120.67919 
L 144.627582 165.08739 
L 160.066317 165.637402 
L 175.505052 165.740815 
L 190.943787 165.621799 
L 206.382522 165.514044 
L 221.821257 165.662422 
L 237.259993 165.789514 
L 252.698728 165.844809 
L 268.137463 165.827561 
L 283.576198 165.437758 
L 299.014933 152.887404 
L 314.453668 161.827381 
L 329.892404 161.744177 
L 345.331139 155.950394 
L 360.769874 149.119435 
L 376.208609 154.503261 
L 391.647344 149.087616 
L 407.08608 161.628155 
" style="fill:none;stroke:#1b9e77;stroke-linecap:square;stroke-opacity:0.5;stroke-width:1.5;"/>
   </g>
   <g id="line2d_33">
    <path clip-path="url(#p4ea742aa06)" d="M 51.99517 164.089485 
L 67.433906 154.618178 
L 82.872641 105.932596 
L 98.311376 161.314956 
L 113.750111 162.784286 
L 129.188846 163.135952 
L 144.627582 164.395079 
L 160.066317 151.406706 
L 175.505052 63.174006 
L 190.943787 164.033992 
L 206.382522 155.928567 
L 221.821257 160.297798 
L 237.259993 145.662032 
L 252.698728 165.518275 
L 268.137463 165.898971 
L 283.576198 165.890521 
L 299.014933 165.903256 
L 314.453668 165.874821 
L 329.892404 165.883162 
L 345.331139 165.899794 
L 360.769874 165.910154 
L 376.208609 165.919743 
L 391.647344 165.668872 
L 407.08608 165.119643 
" style="fill:none;stroke:#1b9e77;stroke-linecap:square;stroke-opacity:0.5;stroke-width:1.5;"/>
   </g>
   <g id="line2d_34">
    <path clip-path="url(#p4ea742aa06)" d="M 51.99517 164.181896 
L 67.433906 164.599867 
L 82.872641 165.415467 
L 98.311376 165.385298 
L 113.750111 165.409727 
L 129.188846 165.437921 
L 144.627582 165.214665 
L 160.066317 165.76902 
L 175.505052 165.566803 
L 190.943787 161.81258 
L 206.382522 160.478747 
L 221.821257 159.450278 
L 237.259993 154.379658 
L 252.698728 155.152832 
L 268.137463 153.109944 
L 283.576198 148.312522 
L 299.014933 123.402289 
L 314.453668 135.379545 
L 329.892404 151.071864 
L 345.331139 151.870441 
L 360.769874 101.403547 
L 376.208609 165.627551 
L 391.647344 165.888253 
L 407.08608 165.94014 
" style="fill:none;stroke:#1b9e77;stroke-linecap:square;stroke-opacity:0.5;stroke-width:1.5;"/>
   </g>
   <g id="line2d_35">
    <path clip-path="url(#p4ea742aa06)" d="M 51.99517 165.905973 
L 67.433906 165.798356 
L 82.872641 165.802303 
L 98.311376 165.733528 
L 113.750111 165.766469 
L 129.188846 165.902084 
L 144.627582 165.912305 
L 160.066317 165.783555 
L 175.505052 152.791398 
L 190.943787 165.775878 
L 206.382522 165.911577 
L 221.821257 165.309382 
L 237.259993 162.105187 
L 252.698728 161.719329 
L 268.137463 157.109304 
L 283.576198 159.542322 
L 299.014933 160.603351 
L 314.453668 154.410313 
L 329.892404 146.820185 
L 345.331139 144.797416 
L 360.769874 134.989894 
L 376.208609 126.925174 
L 391.647344 115.88748 
L 407.08608 138.958087 
" style="fill:none;stroke:#1b9e77;stroke-linecap:square;stroke-opacity:0.5;stroke-width:1.5;"/>
   </g>
   <g id="line2d_36">
    <path clip-path="url(#p4ea742aa06)" d="M 51.99517 152.573443 
L 67.433906 157.098644 
L 82.872641 160.527088 
L 98.311376 165.34729 
L 113.750111 129.851108 
L 129.188846 155.12707 
L 144.627582 165.563799 
L 160.066317 165.277911 
L 175.505052 165.38497 
L 190.943787 165.045176 
L 206.382522 165.496385 
L 221.821257 165.755141 
L 237.259993 165.81627 
L 252.698728 165.67734 
L 268.137463 162.803167 
L 283.576198 139.326762 
L 299.014933 130.719049 
L 314.453668 164.421516 
L 329.892404 160.453452 
L 345.331139 160.687122 
L 360.769874 160.592439 
L 376.208609 158.940596 
L 391.647344 134.100266 
L 407.08608 123.674853 
" style="fill:none;stroke:#1b9e77;stroke-linecap:square;stroke-opacity:0.5;stroke-width:1.5;"/>
   </g>
   <g id="line2d_37">
    <path clip-path="url(#p4ea742aa06)" d="M 51.99517 162.928194 
L 67.433906 162.878556 
L 82.872641 164.817812 
L 98.311376 165.339327 
L 113.750111 164.629608 
L 129.188846 147.959495 
L 144.627582 116.120313 
L 160.066317 129.63396 
L 175.505052 141.580487 
L 190.943787 162.822259 
L 206.382522 131.502433 
L 221.821257 145.710902 
L 237.259993 151.045354 
L 252.698728 161.702967 
L 268.137463 165.459132 
L 283.576198 165.425977 
L 299.014933 165.481832 
L 314.453668 163.912498 
L 329.892404 159.496377 
L 345.331139 162.417227 
L 360.769874 163.926643 
L 376.208609 160.331285 
L 391.647344 162.840605 
L 407.08608 162.29762 
" style="fill:none;stroke:#1b9e77;stroke-linecap:square;stroke-opacity:0.5;stroke-width:1.5;"/>
   </g>
   <g id="line2d_38">
    <path clip-path="url(#p4ea742aa06)" d="M 51.99517 157.98479 
L 67.433906 162.40067 
L 82.872641 161.986777 
L 98.311376 159.033708 
L 113.750111 155.859112 
L 129.188846 155.39921 
L 144.627582 158.650153 
L 160.066317 120.64276 
L 175.505052 105.775449 
L 190.943787 124.206939 
L 206.382522 150.299148 
L 221.821257 150.077601 
L 237.259993 157.825237 
L 252.698728 162.609661 
L 268.137463 165.354747 
L 283.576198 165.397088 
L 299.014933 165.593953 
L 314.453668 165.738923 
L 329.892404 165.838562 
L 345.331139 165.861441 
L 360.769874 165.901227 
L 376.208609 165.92553 
L 391.647344 165.939736 
L 407.08608 165.95843 
" style="fill:none;stroke:#1b9e77;stroke-linecap:square;stroke-opacity:0.5;stroke-width:1.5;"/>
   </g>
   <g id="line2d_39">
    <path clip-path="url(#p4ea742aa06)" d="M 51.99517 163.340676 
L 67.433906 164.235911 
L 82.872641 165.082232 
L 98.311376 164.348628 
L 113.750111 164.797047 
L 129.188846 165.207043 
L 144.627582 165.400143 
L 160.066317 165.534669 
L 175.505052 165.581755 
L 190.943787 165.384875 
L 206.382522 165.207511 
L 221.821257 165.689279 
L 237.259993 165.666924 
L 252.698728 159.34239 
L 268.137463 157.456688 
L 283.576198 156.791616 
L 299.014933 134.500197 
L 314.453668 153.123221 
L 329.892404 154.439768 
L 345.331139 159.334521 
L 360.769874 161.157335 
L 376.208609 137.339202 
L 391.647344 121.348852 
L 407.08608 99.950374 
" style="fill:none;stroke:#1b9e77;stroke-linecap:square;stroke-opacity:0.5;stroke-width:1.5;"/>
   </g>
   <g id="line2d_40">
    <path clip-path="url(#p4ea742aa06)" d="M 51.99517 165.486098 
L 67.433906 165.201417 
L 82.872641 165.472221 
L 98.311376 164.014156 
L 113.750111 151.072864 
L 129.188846 160.65478 
L 144.627582 145.871999 
L 160.066317 148.505715 
L 175.505052 147.080702 
L 190.943787 141.573778 
L 206.382522 140.275472 
L 221.821257 151.401679 
L 237.259993 160.922969 
L 252.698728 165.031272 
L 268.137463 165.81585 
L 283.576198 165.831752 
L 299.014933 164.627817 
L 314.453668 161.720209 
L 329.892404 150.746033 
L 345.331139 165.801221 
L 360.769874 165.307969 
L 376.208609 123.801623 
L 391.647344 148.314206 
L 407.08608 155.72905 
" style="fill:none;stroke:#1b9e77;stroke-linecap:square;stroke-opacity:0.5;stroke-width:1.5;"/>
   </g>
   <g id="line2d_41">
    <path clip-path="url(#p4ea742aa06)" d="M 51.99517 165.816587 
L 67.433906 165.815349 
L 82.872641 165.868975 
L 98.311376 165.434351 
L 113.750111 164.118656 
L 129.188846 165.882669 
L 144.627582 165.922529 
L 160.066317 165.932873 
L 175.505052 165.6361 
L 190.943787 164.926995 
L 206.382522 165.153107 
L 221.821257 164.014789 
L 237.259993 162.11692 
L 252.698728 151.315611 
L 268.137463 152.380375 
L 283.576198 154.610576 
L 299.014933 153.821262 
L 314.453668 129.607225 
L 329.892404 105.973836 
L 345.331139 140.671156 
L 360.769874 143.973998 
L 376.208609 150.609871 
L 391.647344 150.518655 
L 407.08608 160.138383 
" style="fill:none;stroke:#1b9e77;stroke-linecap:square;stroke-opacity:0.5;stroke-width:1.5;"/>
   </g>
   <g id="line2d_42">
    <path clip-path="url(#p4ea742aa06)" d="M 51.99517 165.708147 
L 67.433906 165.698514 
L 82.872641 165.858181 
L 98.311376 165.882416 
L 113.750111 165.900436 
L 129.188846 165.89527 
L 144.627582 165.828818 
L 160.066317 165.851522 
L 175.505052 165.387808 
L 190.943787 165.223943 
L 206.382522 160.092819 
L 221.821257 164.378527 
L 237.259993 163.925573 
L 252.698728 162.864267 
L 268.137463 160.050901 
L 283.576198 160.403627 
L 299.014933 158.939906 
L 314.453668 156.610831 
L 329.892404 152.248737 
L 345.331139 148.720643 
L 360.769874 144.783562 
L 376.208609 122.101502 
L 391.647344 94.433921 
L 407.08608 133.470986 
" style="fill:none;stroke:#1b9e77;stroke-linecap:square;stroke-opacity:0.5;stroke-width:1.5;"/>
   </g>
   <g id="line2d_43">
    <path clip-path="url(#p4ea742aa06)" d="M 51.99517 165.899925 
L 67.433906 165.716681 
L 82.872641 165.703593 
L 98.311376 165.864236 
L 113.750111 163.993889 
L 129.188846 161.224986 
L 144.627582 163.486826 
L 160.066317 162.592442 
L 175.505052 162.215847 
L 190.943787 161.959125 
L 206.382522 161.303661 
L 221.821257 159.559115 
L 237.259993 149.206813 
L 252.698728 148.819496 
L 268.137463 154.218051 
L 283.576198 159.572667 
L 299.014933 156.683257 
L 314.453668 133.918284 
L 329.892404 136.150447 
L 345.331139 148.417391 
L 360.769874 158.097619 
L 376.208609 146.374178 
L 391.647344 127.87556 
L 407.08608 161.406762 
" style="fill:none;stroke:#1b9e77;stroke-linecap:square;stroke-opacity:0.5;stroke-width:1.5;"/>
   </g>
   <g id="line2d_44">
    <path clip-path="url(#p4ea742aa06)" d="M 51.99517 164.114569 
L 67.433906 140.105122 
L 82.872641 140.252636 
L 98.311376 158.371653 
L 113.750111 164.246939 
L 129.188846 164.107617 
L 144.627582 164.027193 
L 160.066317 164.407548 
L 175.505052 165.38445 
L 190.943787 165.628717 
L 206.382522 165.709294 
L 221.821257 165.513595 
L 237.259993 165.547978 
L 252.698728 165.535719 
L 268.137463 165.768803 
L 283.576198 165.801258 
L 299.014933 165.529669 
L 314.453668 161.63483 
L 329.892404 159.352983 
L 345.331139 155.71403 
L 360.769874 137.964449 
L 376.208609 129.122175 
L 391.647344 103.813978 
L 407.08608 142.60565 
" style="fill:none;stroke:#1b9e77;stroke-linecap:square;stroke-opacity:0.5;stroke-width:1.5;"/>
   </g>
   <g id="line2d_45">
    <path clip-path="url(#p4ea742aa06)" d="M 51.99517 149.051302 
L 67.433906 162.735999 
L 82.872641 165.29761 
L 98.311376 165.670426 
L 113.750111 164.739496 
L 129.188846 163.198462 
L 144.627582 155.809743 
L 160.066317 162.770191 
L 175.505052 161.088299 
L 190.943787 161.026596 
L 206.382522 160.878891 
L 221.821257 156.765628 
L 237.259993 151.959094 
L 252.698728 147.357013 
L 268.137463 140.350785 
L 283.576198 150.668237 
L 299.014933 158.992101 
L 314.453668 158.047035 
L 329.892404 121.870973 
L 345.331139 121.272973 
L 360.769874 163.069074 
L 376.208609 165.803142 
L 391.647344 165.920829 
L 407.08608 165.916957 
" style="fill:none;stroke:#1b9e77;stroke-linecap:square;stroke-opacity:0.5;stroke-width:1.5;"/>
   </g>
   <g id="line2d_46">
    <path clip-path="url(#p4ea742aa06)" d="M 51.99517 165.895055 
L 67.433906 165.839541 
L 82.872641 165.899481 
L 98.311376 165.91393 
L 113.750111 165.904543 
L 129.188846 165.715515 
L 144.627582 163.615805 
L 160.066317 162.784262 
L 175.505052 162.847724 
L 190.943787 163.152565 
L 206.382522 162.884818 
L 221.821257 162.628434 
L 237.259993 137.758454 
L 252.698728 84.191742 
L 268.137463 128.105976 
L 283.576198 130.478274 
L 299.014933 150.036061 
L 314.453668 160.907088 
L 329.892404 163.621101 
L 345.331139 158.790037 
L 360.769874 158.544427 
L 376.208609 163.426399 
L 391.647344 165.422048 
L 407.08608 165.89758 
" style="fill:none;stroke:#1b9e77;stroke-linecap:square;stroke-opacity:0.5;stroke-width:1.5;"/>
   </g>
   <g id="line2d_47">
    <path clip-path="url(#p4ea742aa06)" d="M 51.99517 165.306471 
L 67.433906 165.462896 
L 82.872641 165.804233 
L 98.311376 165.809558 
L 113.750111 165.832117 
L 129.188846 165.795598 
L 144.627582 165.734882 
L 160.066317 165.91073 
L 175.505052 165.91109 
L 190.943787 165.795924 
L 206.382522 164.338886 
L 221.821257 162.577074 
L 237.259993 148.021552 
L 252.698728 163.424954 
L 268.137463 153.284534 
L 283.576198 128.769769 
L 299.014933 159.187628 
L 314.453668 149.208262 
L 329.892404 106.652 
L 345.331139 135.527147 
L 360.769874 152.696761 
L 376.208609 151.704146 
L 391.647344 148.217028 
L 407.08608 159.287618 
" style="fill:none;stroke:#1b9e77;stroke-linecap:square;stroke-opacity:0.5;stroke-width:1.5;"/>
   </g>
   <g id="line2d_48">
    <path clip-path="url(#p4ea742aa06)" d="M 51.99517 165.015061 
L 67.433906 164.43094 
L 82.872641 164.473095 
L 98.311376 163.6636 
L 113.750111 162.416809 
L 129.188846 161.956585 
L 144.627582 161.486579 
L 160.066317 159.557098 
L 175.505052 155.147159 
L 190.943787 146.001001 
L 206.382522 123.741862 
L 221.821257 142.880848 
L 237.259993 163.364753 
L 252.698728 96.078502 
L 268.137463 120.925294 
L 283.576198 163.829455 
L 299.014933 165.40894 
L 314.453668 165.348626 
L 329.892404 165.55267 
L 345.331139 165.593123 
L 360.769874 165.750839 
L 376.208609 165.821812 
L 391.647344 165.871998 
L 407.08608 165.944206 
" style="fill:none;stroke:#1b9e77;stroke-linecap:square;stroke-opacity:0.5;stroke-width:1.5;"/>
   </g>
   <g id="line2d_49">
    <path clip-path="url(#p4ea742aa06)" d="M 51.99517 164.530688 
L 67.433906 165.169909 
L 82.872641 165.732548 
L 98.311376 165.711237 
L 113.750111 165.714661 
L 129.188846 165.758167 
L 144.627582 165.834066 
L 160.066317 165.910403 
L 175.505052 165.936324 
L 190.943787 165.952183 
L 206.382522 165.848427 
L 221.821257 165.611572 
L 237.259993 162.352899 
L 252.698728 159.950883 
L 268.137463 164.023659 
L 283.576198 163.864297 
L 299.014933 164.052718 
L 314.453668 162.320462 
L 329.892404 155.105739 
L 345.331139 116.626558 
L 360.769874 97.977945 
L 376.208609 109.00037 
L 391.647344 137.357146 
L 407.08608 159.917994 
" style="fill:none;stroke:#1b9e77;stroke-linecap:square;stroke-opacity:0.5;stroke-width:1.5;"/>
   </g>
   <g id="line2d_50">
    <path clip-path="url(#p4ea742aa06)" d="M 51.99517 158.622718 
L 67.433906 156.502536 
L 82.872641 164.98587 
L 98.311376 165.607595 
L 113.750111 165.491015 
L 129.188846 136.921538 
L 144.627582 148.193882 
L 160.066317 149.43642 
L 175.505052 125.653587 
L 190.943787 160.903091 
L 206.382522 162.44182 
L 221.821257 161.310398 
L 237.259993 162.712427 
L 252.698728 159.969468 
L 268.137463 161.16592 
L 283.576198 162.580683 
L 299.014933 162.655672 
L 314.453668 161.526045 
L 329.892404 137.837807 
L 345.331139 154.523287 
L 360.769874 155.947826 
L 376.208609 151.806891 
L 391.647344 154.895961 
L 407.08608 158.568397 
" style="fill:none;stroke:#1b9e77;stroke-linecap:square;stroke-opacity:0.5;stroke-width:1.5;"/>
   </g>
   <g id="line2d_51">
    <path clip-path="url(#p4ea742aa06)" d="M 51.99517 165.158169 
L 67.433906 155.452026 
L 82.872641 130.698303 
L 98.311376 119.448386 
L 113.750111 138.211626 
L 129.188846 145.895357 
L 144.627582 158.844589 
L 160.066317 165.003206 
L 175.505052 165.647762 
L 190.943787 165.730593 
L 206.382522 165.738215 
L 221.821257 165.429258 
L 237.259993 165.316448 
L 252.698728 165.935219 
L 268.137463 165.928206 
L 283.576198 159.267341 
L 299.014933 164.357766 
L 314.453668 163.046403 
L 329.892404 150.813479 
L 345.331139 148.647917 
L 360.769874 156.735498 
L 376.208609 157.515372 
L 391.647344 142.799566 
L 407.08608 158.640151 
" style="fill:none;stroke:#1b9e77;stroke-linecap:square;stroke-opacity:0.5;stroke-width:1.5;"/>
   </g>
   <g id="line2d_52">
    <path clip-path="url(#p4ea742aa06)" d="M 51.99517 156.973303 
L 67.433906 163.19344 
L 82.872641 165.412695 
L 98.311376 165.510083 
L 113.750111 165.545391 
L 129.188846 160.139756 
L 144.627582 140.765079 
L 160.066317 165.651823 
L 175.505052 165.749173 
L 190.943787 164.459541 
L 206.382522 161.400946 
L 221.821257 154.846425 
L 237.259993 109.201959 
L 252.698728 159.374591 
L 268.137463 158.810434 
L 283.576198 146.061503 
L 299.014933 160.959829 
L 314.453668 144.753266 
L 329.892404 133.598064 
L 345.331139 154.381589 
L 360.769874 161.091879 
L 376.208609 150.546043 
L 391.647344 165.883723 
L 407.08608 165.950322 
" style="fill:none;stroke:#1b9e77;stroke-linecap:square;stroke-opacity:0.5;stroke-width:1.5;"/>
   </g>
   <g id="line2d_53">
    <path clip-path="url(#p4ea742aa06)" d="M 51.99517 142.123251 
L 67.433906 65.218937 
L 82.872641 137.933937 
L 98.311376 161.462419 
L 113.750111 163.656765 
L 129.188846 158.490983 
L 144.627582 161.765914 
L 160.066317 164.872306 
L 175.505052 165.502281 
L 190.943787 165.426268 
L 206.382522 165.1427 
L 221.821257 164.932988 
L 237.259993 165.221601 
L 252.698728 165.245901 
L 268.137463 165.190664 
L 283.576198 164.937569 
L 299.014933 158.224545 
L 314.453668 145.265038 
L 329.892404 156.296897 
L 345.331139 163.448561 
L 360.769874 164.053537 
L 376.208609 164.205487 
L 391.647344 161.60468 
L 407.08608 150.037622 
" style="fill:none;stroke:#1b9e77;stroke-linecap:square;stroke-opacity:0.5;stroke-width:1.5;"/>
   </g>
   <g id="line2d_54">
    <path clip-path="url(#p4ea742aa06)" d="M 51.99517 164.149281 
L 67.433906 157.954168 
L 82.872641 156.560151 
L 98.311376 160.108721 
L 113.750111 155.779728 
L 129.188846 146.198883 
L 144.627582 156.973539 
L 160.066317 154.65215 
L 175.505052 160.378778 
L 190.943787 165.255179 
L 206.382522 165.781251 
L 221.821257 165.626844 
L 237.259993 165.587852 
L 252.698728 165.50453 
L 268.137463 165.29345 
L 283.576198 165.815337 
L 299.014933 165.730111 
L 314.453668 163.283942 
L 329.892404 162.195672 
L 345.331139 148.210828 
L 360.769874 97.006757 
L 376.208609 120.013741 
L 391.647344 149.211204 
L 407.08608 162.988757 
" style="fill:none;stroke:#1b9e77;stroke-linecap:square;stroke-opacity:0.5;stroke-width:1.5;"/>
   </g>
   <g id="line2d_55">
    <path clip-path="url(#p4ea742aa06)" d="M 51.99517 145.576347 
L 67.433906 128.323839 
L 82.872641 138.983825 
L 98.311376 156.489109 
L 113.750111 164.627229 
L 129.188846 164.968424 
L 144.627582 163.472583 
L 160.066317 163.49956 
L 175.505052 162.026909 
L 190.943787 160.76587 
L 206.382522 161.449428 
L 221.821257 159.516223 
L 237.259993 143.00645 
L 252.698728 163.109578 
L 268.137463 162.862558 
L 283.576198 162.140564 
L 299.014933 164.529625 
L 314.453668 163.487652 
L 329.892404 148.485613 
L 345.331139 146.824071 
L 360.769874 152.471106 
L 376.208609 154.439207 
L 391.647344 152.098843 
L 407.08608 157.106247 
" style="fill:none;stroke:#1b9e77;stroke-linecap:square;stroke-opacity:0.5;stroke-width:1.5;"/>
   </g>
   <g id="line2d_56">
    <path clip-path="url(#p4ea742aa06)" d="M 51.99517 163.25554 
L 67.433906 162.158519 
L 82.872641 162.85175 
L 98.311376 161.377681 
L 113.750111 160.704319 
L 129.188846 157.249807 
L 144.627582 152.780215 
L 160.066317 160.696116 
L 175.505052 139.937145 
L 190.943787 103.221821 
L 206.382522 161.984275 
L 221.821257 164.176602 
L 237.259993 165.520574 
L 252.698728 165.823395 
L 268.137463 165.849634 
L 283.576198 164.306268 
L 299.014933 163.217328 
L 314.453668 162.283597 
L 329.892404 160.883991 
L 345.331139 158.417938 
L 360.769874 160.68566 
L 376.208609 159.454134 
L 391.647344 114.560475 
L 407.08608 148.864075 
" style="fill:none;stroke:#1b9e77;stroke-linecap:square;stroke-opacity:0.5;stroke-width:1.5;"/>
   </g>
   <g id="line2d_57">
    <path clip-path="url(#p4ea742aa06)" d="M 51.99517 159.597396 
L 67.433906 163.882199 
L 82.872641 164.241513 
L 98.311376 163.821557 
L 113.750111 163.925311 
L 129.188846 163.592798 
L 144.627582 161.247918 
L 160.066317 158.917916 
L 175.505052 158.726818 
L 190.943787 154.903391 
L 206.382522 149.671996 
L 221.821257 149.136276 
L 237.259993 130.720626 
L 252.698728 71.762244 
L 268.137463 138.206079 
L 283.576198 161.594652 
L 299.014933 165.380962 
L 314.453668 165.609894 
L 329.892404 165.815893 
L 345.331139 165.824445 
L 360.769874 165.880175 
L 376.208609 165.912206 
L 391.647344 165.931659 
L 407.08608 165.956925 
" style="fill:none;stroke:#1b9e77;stroke-linecap:square;stroke-opacity:0.5;stroke-width:1.5;"/>
   </g>
   <g id="line2d_58">
    <path clip-path="url(#p4ea742aa06)" d="M 51.99517 163.856653 
L 67.433906 160.622558 
L 82.872641 156.391955 
L 98.311376 50.386598 
L 113.750111 120.338481 
L 129.188846 149.72479 
L 144.627582 160.964438 
L 160.066317 161.668943 
L 175.505052 164.430196 
L 190.943787 164.830173 
L 206.382522 165.290929 
L 221.821257 165.221844 
L 237.259993 165.442944 
L 252.698728 165.557431 
L 268.137463 165.658708 
L 283.576198 165.652711 
L 299.014933 165.674734 
L 314.453668 165.862417 
L 329.892404 165.789109 
L 345.331139 163.458085 
L 360.769874 157.432669 
L 376.208609 158.307631 
L 391.647344 154.841564 
L 407.08608 162.855295 
" style="fill:none;stroke:#1b9e77;stroke-linecap:square;stroke-opacity:0.5;stroke-width:1.5;"/>
   </g>
   <g id="line2d_59">
    <path clip-path="url(#p4ea742aa06)" d="M 51.99517 165.13118 
L 67.433906 165.403565 
L 82.872641 165.027652 
L 98.311376 162.366237 
L 113.750111 164.408122 
L 129.188846 165.836964 
L 144.627582 165.831362 
L 160.066317 165.640682 
L 175.505052 165.227916 
L 190.943787 165.567868 
L 206.382522 165.198255 
L 221.821257 163.873661 
L 237.259993 162.568052 
L 252.698728 159.427316 
L 268.137463 152.15161 
L 283.576198 157.297532 
L 299.014933 159.334527 
L 314.453668 152.105408 
L 329.892404 120.263141 
L 345.331139 124.867377 
L 360.769874 143.218212 
L 376.208609 138.329948 
L 391.647344 143.407482 
L 407.08608 147.776788 
" style="fill:none;stroke:#1b9e77;stroke-linecap:square;stroke-opacity:0.5;stroke-width:1.5;"/>
   </g>
   <g id="line2d_60">
    <path clip-path="url(#p4ea742aa06)" d="M 51.99517 160.560012 
L 67.433906 165.291367 
L 82.872641 165.662805 
L 98.311376 141.759755 
L 113.750111 140.235258 
L 129.188846 165.62236 
L 144.627582 165.887528 
L 160.066317 165.879075 
L 175.505052 165.901181 
L 190.943787 165.057151 
L 206.382522 165.499421 
L 221.821257 165.906994 
L 237.259993 165.849593 
L 252.698728 152.512728 
L 268.137463 125.968514 
L 283.576198 134.324819 
L 299.014933 135.013884 
L 314.453668 136.630883 
L 329.892404 149.980956 
L 345.331139 156.83963 
L 360.769874 159.584864 
L 376.208609 162.34949 
L 391.647344 162.796039 
L 407.08608 165.14655 
" style="fill:none;stroke:#1b9e77;stroke-linecap:square;stroke-opacity:0.5;stroke-width:1.5;"/>
   </g>
   <g id="line2d_61">
    <path clip-path="url(#p4ea742aa06)" d="M 51.99517 163.986325 
L 67.433906 164.754417 
L 82.872641 165.445374 
L 98.311376 165.460248 
L 113.750111 165.585824 
L 129.188846 165.661452 
L 144.627582 165.709093 
L 160.066317 165.735421 
L 175.505052 165.70814 
L 190.943787 165.61316 
L 206.382522 165.173836 
L 221.821257 165.684873 
L 237.259993 165.165281 
L 252.698728 156.549423 
L 268.137463 160.988573 
L 283.576198 156.902363 
L 299.014933 148.351361 
L 314.453668 148.113658 
L 329.892404 150.452231 
L 345.331139 154.02098 
L 360.769874 156.148907 
L 376.208609 143.238308 
L 391.647344 116.618564 
L 407.08608 99.19304 
" style="fill:none;stroke:#1b9e77;stroke-linecap:square;stroke-opacity:0.5;stroke-width:1.5;"/>
   </g>
   <g id="line2d_62">
    <path clip-path="url(#p4ea742aa06)" d="M 51.99517 109.792445 
L 67.433906 143.672508 
L 82.872641 160.189448 
L 98.311376 160.978551 
L 113.750111 162.822582 
L 129.188846 164.458437 
L 144.627582 164.60608 
L 160.066317 165.312156 
L 175.505052 165.68481 
L 190.943787 165.699404 
L 206.382522 165.724591 
L 221.821257 165.050251 
L 237.259993 165.659338 
L 252.698728 165.732603 
L 268.137463 165.798908 
L 283.576198 165.752472 
L 299.014933 165.639537 
L 314.453668 165.658782 
L 329.892404 165.715649 
L 345.331139 165.905529 
L 360.769874 163.983112 
L 376.208609 108.435055 
L 391.647344 104.775631 
L 407.08608 143.212968 
" style="fill:none;stroke:#1b9e77;stroke-linecap:square;stroke-opacity:0.5;stroke-width:1.5;"/>
   </g>
   <g id="line2d_63">
    <path clip-path="url(#p4ea742aa06)" d="M 51.99517 165.895865 
L 67.433906 165.825732 
L 82.872641 165.866952 
L 98.311376 165.828539 
L 113.750111 165.601183 
L 129.188846 165.811056 
L 144.627582 165.790023 
L 160.066317 165.943262 
L 175.505052 164.786264 
L 190.943787 163.77684 
L 206.382522 162.542761 
L 221.821257 154.858843 
L 237.259993 142.503687 
L 252.698728 130.527048 
L 268.137463 125.112829 
L 283.576198 65.03268 
L 299.014933 144.891652 
L 314.453668 164.840261 
L 329.892404 165.652892 
L 345.331139 165.59875 
L 360.769874 165.798702 
L 376.208609 165.890839 
L 391.647344 165.927581 
L 407.08608 165.95661 
" style="fill:none;stroke:#1b9e77;stroke-linecap:square;stroke-opacity:0.5;stroke-width:1.5;"/>
   </g>
   <g id="line2d_64">
    <path clip-path="url(#p4ea742aa06)" d="M 51.99517 159.591124 
L 67.433906 162.000714 
L 82.872641 165.13731 
L 98.311376 164.976128 
L 113.750111 165.409583 
L 129.188846 165.75975 
L 144.627582 165.878004 
L 160.066317 165.885776 
L 175.505052 165.909017 
L 190.943787 165.935827 
L 206.382522 165.936008 
L 221.821257 165.949885 
L 237.259993 164.009157 
L 252.698728 145.528166 
L 268.137463 141.827024 
L 283.576198 154.564486 
L 299.014933 142.054533 
L 314.453668 128.29037 
L 329.892404 163.051478 
L 345.331139 165.015793 
L 360.769874 164.405221 
L 376.208609 133.864276 
L 391.647344 104.043851 
L 407.08608 155.23737 
" style="fill:none;stroke:#1b9e77;stroke-linecap:square;stroke-opacity:0.5;stroke-width:1.5;"/>
   </g>
   <g id="line2d_65">
    <path clip-path="url(#p4ea742aa06)" d="M 51.99517 143.050545 
L 67.433906 165.262256 
L 82.872641 165.770083 
L 98.311376 161.895788 
L 113.750111 164.502848 
L 129.188846 164.694866 
L 144.627582 164.017344 
L 160.066317 163.399917 
L 175.505052 163.415553 
L 190.943787 162.399383 
L 206.382522 160.525016 
L 221.821257 160.542842 
L 237.259993 163.290508 
L 252.698728 99.383016 
L 268.137463 99.255428 
L 283.576198 137.251786 
L 299.014933 154.833546 
L 314.453668 156.465537 
L 329.892404 163.909467 
L 345.331139 165.10157 
L 360.769874 165.358674 
L 376.208609 165.170304 
L 391.647344 164.933992 
L 407.08608 165.830587 
" style="fill:none;stroke:#1b9e77;stroke-linecap:square;stroke-opacity:0.5;stroke-width:1.5;"/>
   </g>
   <g id="line2d_66">
    <path clip-path="url(#p4ea742aa06)" d="M 51.99517 165.2852 
L 67.433906 165.207605 
L 82.872641 165.642154 
L 98.311376 165.75879 
L 113.750111 165.623133 
L 129.188846 164.630462 
L 144.627582 163.738707 
L 160.066317 163.316114 
L 175.505052 156.24558 
L 190.943787 144.860229 
L 206.382522 84.452684 
L 221.821257 87.123858 
L 237.259993 160.441821 
L 252.698728 149.60192 
L 268.137463 151.674895 
L 283.576198 164.390438 
L 299.014933 165.188094 
L 314.453668 164.386717 
L 329.892404 164.466966 
L 345.331139 165.268005 
L 360.769874 165.605245 
L 376.208609 165.669979 
L 391.647344 165.763188 
L 407.08608 165.919059 
" style="fill:none;stroke:#1b9e77;stroke-linecap:square;stroke-opacity:0.5;stroke-width:1.5;"/>
   </g>
   <g id="line2d_67">
    <path clip-path="url(#p4ea742aa06)" d="M 51.99517 163.782173 
L 67.433906 164.519654 
L 82.872641 164.949385 
L 98.311376 165.007227 
L 113.750111 141.795511 
L 129.188846 147.99792 
L 144.627582 143.796368 
L 160.066317 158.916736 
L 175.505052 162.025853 
L 190.943787 140.720223 
L 206.382522 159.972101 
L 221.821257 165.719567 
L 237.259993 165.546493 
L 252.698728 144.084911 
L 268.137463 141.532028 
L 283.576198 147.787479 
L 299.014933 148.841886 
L 314.453668 149.325677 
L 329.892404 155.473784 
L 345.331139 157.739348 
L 360.769874 159.083552 
L 376.208609 162.001103 
L 391.647344 163.821791 
L 407.08608 165.820089 
" style="fill:none;stroke:#1b9e77;stroke-linecap:square;stroke-opacity:0.5;stroke-width:1.5;"/>
   </g>
   <g id="line2d_68">
    <path clip-path="url(#p4ea742aa06)" d="M 51.99517 162.807315 
L 67.433906 165.653495 
L 82.872641 165.86038 
L 98.311376 165.294576 
L 113.750111 165.451691 
L 129.188846 165.79027 
L 144.627582 165.900182 
L 160.066317 165.912298 
L 175.505052 165.921206 
L 190.943787 165.892955 
L 206.382522 165.829992 
L 221.821257 165.892958 
L 237.259993 165.890986 
L 252.698728 165.911143 
L 268.137463 162.551122 
L 283.576198 149.915928 
L 299.014933 136.970936 
L 314.453668 134.703091 
L 329.892404 119.395069 
L 345.331139 142.512692 
L 360.769874 158.835701 
L 376.208609 148.468685 
L 391.647344 112.887874 
L 407.08608 156.010314 
" style="fill:none;stroke:#1b9e77;stroke-linecap:square;stroke-opacity:0.5;stroke-width:1.5;"/>
   </g>
   <g id="line2d_69">
    <path clip-path="url(#p4ea742aa06)" d="M 51.99517 135.579835 
L 67.433906 114.157153 
L 82.872641 113.910798 
L 98.311376 140.676944 
L 113.750111 149.879705 
L 129.188846 163.461823 
L 144.627582 165.617263 
L 160.066317 165.607064 
L 175.505052 165.686252 
L 190.943787 165.592187 
L 206.382522 165.653206 
L 221.821257 165.827771 
L 237.259993 165.805312 
L 252.698728 164.417899 
L 268.137463 135.810947 
L 283.576198 147.282009 
L 299.014933 161.206568 
L 314.453668 165.30317 
L 329.892404 165.564497 
L 345.331139 162.688229 
L 360.769874 162.828765 
L 376.208609 165.822784 
L 391.647344 165.924958 
L 407.08608 165.955713 
" style="fill:none;stroke:#1b9e77;stroke-linecap:square;stroke-opacity:0.5;stroke-width:1.5;"/>
   </g>
   <g id="line2d_70">
    <path clip-path="url(#p4ea742aa06)" d="M 51.99517 165.665555 
L 67.433906 164.868065 
L 82.872641 164.956055 
L 98.311376 156.283293 
L 113.750111 150.138718 
L 129.188846 165.689137 
L 144.627582 164.851598 
L 160.066317 150.692269 
L 175.505052 156.264552 
L 190.943787 153.549414 
L 206.382522 150.491602 
L 221.821257 149.060607 
L 237.259993 162.283349 
L 252.698728 163.537152 
L 268.137463 162.672899 
L 283.576198 161.615764 
L 299.014933 161.023518 
L 314.453668 160.234567 
L 329.892404 159.226035 
L 345.331139 160.305653 
L 360.769874 160.759601 
L 376.208609 135.209251 
L 391.647344 124.357655 
L 407.08608 136.524546 
" style="fill:none;stroke:#1b9e77;stroke-linecap:square;stroke-opacity:0.5;stroke-width:1.5;"/>
   </g>
   <g id="line2d_71">
    <path clip-path="url(#p4ea742aa06)" d="M 51.99517 165.676246 
L 67.433906 165.620119 
L 82.872641 165.688078 
L 98.311376 164.832929 
L 113.750111 163.807398 
L 129.188846 165.36271 
L 144.627582 165.10893 
L 160.066317 165.218462 
L 175.505052 164.72494 
L 190.943787 161.984222 
L 206.382522 160.453542 
L 221.821257 152.650409 
L 237.259993 141.954414 
L 252.698728 124.325733 
L 268.137463 120.064147 
L 283.576198 107.250943 
L 299.014933 137.981312 
L 314.453668 158.206208 
L 329.892404 164.752029 
L 345.331139 164.409849 
L 360.769874 164.764926 
L 376.208609 164.749388 
L 391.647344 164.853382 
L 407.08608 165.820544 
" style="fill:none;stroke:#1b9e77;stroke-linecap:square;stroke-opacity:0.5;stroke-width:1.5;"/>
   </g>
   <g id="line2d_72">
    <path clip-path="url(#p4ea742aa06)" d="M 51.99517 137.069385 
L 67.433906 164.282732 
L 82.872641 164.852275 
L 98.311376 165.153169 
L 113.750111 165.242123 
L 129.188846 165.202466 
L 144.627582 164.782301 
L 160.066317 164.588426 
L 175.505052 164.836624 
L 190.943787 164.867986 
L 206.382522 164.988363 
L 221.821257 165.065527 
L 237.259993 162.299353 
L 252.698728 110.331704 
L 268.137463 103.421923 
L 283.576198 86.021405 
L 299.014933 165.856109 
L 314.453668 165.866196 
L 329.892404 165.891066 
L 345.331139 165.900733 
L 360.769874 165.919222 
L 376.208609 165.926055 
L 391.647344 165.937929 
L 407.08608 165.957792 
" style="fill:none;stroke:#1b9e77;stroke-linecap:square;stroke-opacity:0.5;stroke-width:1.5;"/>
   </g>
   <g id="line2d_73">
    <path clip-path="url(#p4ea742aa06)" d="M 51.99517 161.002986 
L 67.433906 162.80827 
L 82.872641 164.810126 
L 98.311376 164.731162 
L 113.750111 165.08703 
L 129.188846 165.432974 
L 144.627582 165.652893 
L 160.066317 165.669668 
L 175.505052 165.757732 
L 190.943787 165.834129 
L 206.382522 165.864427 
L 221.821257 165.915829 
L 237.259993 164.452837 
L 252.698728 159.834168 
L 268.137463 160.392959 
L 283.576198 161.840257 
L 299.014933 161.373761 
L 314.453668 158.244475 
L 329.892404 162.371755 
L 345.331139 146.296213 
L 360.769874 82.748903 
L 376.208609 165.576168 
L 391.647344 157.028852 
L 407.08608 81.533286 
" style="fill:none;stroke:#1b9e77;stroke-linecap:square;stroke-opacity:0.5;stroke-width:1.5;"/>
   </g>
   <g id="line2d_74">
    <path clip-path="url(#p4ea742aa06)" d="M 51.99517 165.936643 
L 67.433906 165.896842 
L 82.872641 165.928831 
L 98.311376 165.926655 
L 113.750111 165.926163 
L 129.188846 165.919432 
L 144.627582 165.919873 
L 160.066317 165.93055 
L 175.505052 165.86796 
L 190.943787 164.240321 
L 206.382522 154.640617 
L 221.821257 162.499596 
L 237.259993 157.426046 
L 252.698728 141.197601 
L 268.137463 134.985937 
L 283.576198 134.474698 
L 299.014933 63.294229 
L 314.453668 163.777841 
L 329.892404 165.610985 
L 345.331139 158.591256 
L 360.769874 151.392408 
L 376.208609 163.16595 
L 391.647344 165.774599 
L 407.08608 165.935824 
" style="fill:none;stroke:#1b9e77;stroke-linecap:square;stroke-opacity:0.5;stroke-width:1.5;"/>
   </g>
   <g id="line2d_75">
    <path clip-path="url(#p4ea742aa06)" d="M 51.99517 131.142846 
L 67.433906 144.449036 
L 82.872641 127.933116 
L 98.311376 163.318479 
L 113.750111 163.988016 
L 129.188846 142.603496 
L 144.627582 164.743866 
L 160.066317 165.633739 
L 175.505052 165.680673 
L 190.943787 165.408928 
L 206.382522 165.409742 
L 221.821257 165.755435 
L 237.259993 165.704947 
L 252.698728 164.240156 
L 268.137463 140.670114 
L 283.576198 133.440111 
L 299.014933 123.977106 
L 314.453668 164.972243 
L 329.892404 157.232461 
L 345.331139 164.251841 
L 360.769874 163.419203 
L 376.208609 164.382997 
L 391.647344 165.94521 
L 407.08608 165.957096 
" style="fill:none;stroke:#1b9e77;stroke-linecap:square;stroke-opacity:0.5;stroke-width:1.5;"/>
   </g>
   <g id="line2d_76">
    <path clip-path="url(#p4ea742aa06)" d="M 51.99517 164.776492 
L 67.433906 165.010735 
L 82.872641 165.604109 
L 98.311376 165.62328 
L 113.750111 165.675202 
L 129.188846 165.559855 
L 144.627582 165.261749 
L 160.066317 165.839944 
L 175.505052 165.880526 
L 190.943787 165.695631 
L 206.382522 164.951507 
L 221.821257 164.268514 
L 237.259993 152.837872 
L 252.698728 159.588303 
L 268.137463 148.380792 
L 283.576198 159.549757 
L 299.014933 161.402641 
L 314.453668 157.454252 
L 329.892404 139.59818 
L 345.331139 138.070011 
L 360.769874 155.701399 
L 376.208609 150.523679 
L 391.647344 82.382262 
L 407.08608 150.624163 
" style="fill:none;stroke:#1b9e77;stroke-linecap:square;stroke-opacity:0.5;stroke-width:1.5;"/>
   </g>
   <g id="line2d_77">
    <path clip-path="url(#p4ea742aa06)" d="M 51.99517 161.96313 
L 67.433906 162.549 
L 82.872641 163.56276 
L 98.311376 162.703387 
L 113.750111 163.814382 
L 129.188846 165.212691 
L 144.627582 165.523422 
L 160.066317 165.315943 
L 175.505052 165.164531 
L 190.943787 165.279049 
L 206.382522 165.385332 
L 221.821257 165.565563 
L 237.259993 165.555497 
L 252.698728 165.455689 
L 268.137463 163.212319 
L 283.576198 161.988361 
L 299.014933 147.216605 
L 314.453668 144.925657 
L 329.892404 139.451924 
L 345.331139 130.165119 
L 360.769874 138.709985 
L 376.208609 137.728423 
L 391.647344 116.862404 
L 407.08608 156.949685 
" style="fill:none;stroke:#1b9e77;stroke-linecap:square;stroke-opacity:0.5;stroke-width:1.5;"/>
   </g>
   <g id="line2d_78">
    <path clip-path="url(#p4ea742aa06)" d="M 51.99517 145.940621 
L 67.433906 165.810649 
L 82.872641 164.999243 
L 98.311376 163.787445 
L 113.750111 163.849999 
L 129.188846 164.491889 
L 144.627582 164.936489 
L 160.066317 164.697528 
L 175.505052 164.902565 
L 190.943787 164.373794 
L 206.382522 164.487156 
L 221.821257 164.846919 
L 237.259993 164.446305 
L 252.698728 162.596332 
L 268.137463 160.315979 
L 283.576198 158.755615 
L 299.014933 154.649878 
L 314.453668 111.358696 
L 329.892404 81.158042 
L 345.331139 137.656191 
L 360.769874 156.993208 
L 376.208609 163.89076 
L 391.647344 165.441008 
L 407.08608 165.874541 
" style="fill:none;stroke:#1b9e77;stroke-linecap:square;stroke-opacity:0.5;stroke-width:1.5;"/>
   </g>
   <g id="line2d_79">
    <path clip-path="url(#p4ea742aa06)" d="M 51.99517 159.471812 
L 67.433906 150.182447 
L 82.872641 132.730035 
L 98.311376 137.646556 
L 113.750111 145.732057 
L 129.188846 157.546655 
L 144.627582 158.58202 
L 160.066317 127.456775 
L 175.505052 108.605481 
L 190.943787 153.327862 
L 206.382522 162.443124 
L 221.821257 162.698304 
L 237.259993 163.116341 
L 252.698728 163.667353 
L 268.137463 165.033554 
L 283.576198 165.361112 
L 299.014933 165.622074 
L 314.453668 165.740098 
L 329.892404 165.819298 
L 345.331139 165.827896 
L 360.769874 165.867656 
L 376.208609 165.902343 
L 391.647344 165.923054 
L 407.08608 165.956944 
" style="fill:none;stroke:#1b9e77;stroke-linecap:square;stroke-opacity:0.5;stroke-width:1.5;"/>
   </g>
   <g id="line2d_80">
    <path clip-path="url(#p4ea742aa06)" d="M 51.99517 116.848815 
L 67.433906 83.777139 
L 82.872641 136.710709 
L 98.311376 117.116457 
L 113.750111 139.926071 
L 129.188846 164.873991 
L 144.627582 165.665228 
L 160.066317 165.623002 
L 175.505052 165.684948 
L 190.943787 165.737606 
L 206.382522 165.807039 
L 221.821257 165.835962 
L 237.259993 165.861065 
L 252.698728 165.888556 
L 268.137463 165.868319 
L 283.576198 165.835992 
L 299.014933 165.645359 
L 314.453668 165.052492 
L 329.892404 164.734157 
L 345.331139 165.563684 
L 360.769874 165.836342 
L 376.208609 165.544376 
L 391.647344 165.481578 
L 407.08608 165.341971 
" style="fill:none;stroke:#1b9e77;stroke-linecap:square;stroke-opacity:0.5;stroke-width:1.5;"/>
   </g>
   <g id="line2d_81">
    <path clip-path="url(#p4ea742aa06)" d="M 51.99517 126.037715 
L 67.433906 95.675077 
L 82.872641 159.124092 
L 98.311376 162.426406 
L 113.750111 163.469265 
L 129.188846 162.515169 
L 144.627582 125.624387 
L 160.066317 135.776075 
L 175.505052 159.224505 
L 190.943787 160.485918 
L 206.382522 160.628717 
L 221.821257 161.909784 
L 237.259993 163.535847 
L 252.698728 163.258381 
L 268.137463 164.001643 
L 283.576198 163.785711 
L 299.014933 163.727403 
L 314.453668 164.222767 
L 329.892404 164.839188 
L 345.331139 164.974757 
L 360.769874 164.843192 
L 376.208609 164.964682 
L 391.647344 164.408675 
L 407.08608 160.801491 
" style="fill:none;stroke:#1b9e77;stroke-linecap:square;stroke-opacity:0.5;stroke-width:1.5;"/>
   </g>
   <g id="line2d_82">
    <path clip-path="url(#p4ea742aa06)" d="M 51.99517 165.588154 
L 67.433906 164.877619 
L 82.872641 164.035707 
L 98.311376 163.723643 
L 113.750111 164.057148 
L 129.188846 164.665521 
L 144.627582 162.313209 
L 160.066317 134.956061 
L 175.505052 151.949999 
L 190.943787 165.051082 
L 206.382522 163.525871 
L 221.821257 154.978878 
L 237.259993 162.789131 
L 252.698728 165.904585 
L 268.137463 165.737024 
L 283.576198 151.467121 
L 299.014933 163.978793 
L 314.453668 161.084549 
L 329.892404 97.446334 
L 345.331139 139.024009 
L 360.769874 152.415626 
L 376.208609 162.145508 
L 391.647344 142.282197 
L 407.08608 156.263083 
" style="fill:none;stroke:#1b9e77;stroke-linecap:square;stroke-opacity:0.5;stroke-width:1.5;"/>
   </g>
   <g id="line2d_83">
    <path clip-path="url(#p4ea742aa06)" d="M 51.99517 161.67952 
L 67.433906 148.736089 
L 82.872641 160.257262 
L 98.311376 163.277684 
L 113.750111 164.810811 
L 129.188846 165.258438 
L 144.627582 165.571765 
L 160.066317 165.576492 
L 175.505052 165.683701 
L 190.943787 165.759632 
L 206.382522 165.777497 
L 221.821257 165.456389 
L 237.259993 165.14234 
L 252.698728 164.368731 
L 268.137463 162.821833 
L 283.576198 160.348282 
L 299.014933 162.561642 
L 314.453668 160.445597 
L 329.892404 150.911954 
L 345.331139 142.977136 
L 360.769874 143.581041 
L 376.208609 135.283457 
L 391.647344 124.688062 
L 407.08608 109.285499 
" style="fill:none;stroke:#1b9e77;stroke-linecap:square;stroke-opacity:0.5;stroke-width:1.5;"/>
   </g>
   <g id="line2d_84">
    <path clip-path="url(#p4ea742aa06)" d="M 51.99517 163.257835 
L 67.433906 162.103068 
L 82.872641 163.955811 
L 98.311376 163.846811 
L 113.750111 163.426374 
L 129.188846 165.629313 
L 144.627582 165.09867 
L 160.066317 164.481215 
L 175.505052 164.981039 
L 190.943787 165.369465 
L 206.382522 165.147003 
L 221.821257 164.482876 
L 237.259993 164.353569 
L 252.698728 161.50187 
L 268.137463 140.697194 
L 283.576198 157.733607 
L 299.014933 156.644477 
L 314.453668 152.712312 
L 329.892404 75.464519 
L 345.331139 145.328856 
L 360.769874 162.803639 
L 376.208609 152.779422 
L 391.647344 145.082137 
L 407.08608 153.379775 
" style="fill:none;stroke:#1b9e77;stroke-linecap:square;stroke-opacity:0.5;stroke-width:1.5;"/>
   </g>
   <g id="line2d_85">
    <path clip-path="url(#p4ea742aa06)" d="M 51.99517 165.014054 
L 67.433906 163.637896 
L 82.872641 163.042839 
L 98.311376 158.318409 
L 113.750111 137.577263 
L 129.188846 144.158196 
L 144.627582 158.071588 
L 160.066317 157.059047 
L 175.505052 157.338453 
L 190.943787 165.833884 
L 206.382522 165.859719 
L 221.821257 165.522651 
L 237.259993 165.742488 
L 252.698728 165.734087 
L 268.137463 163.256608 
L 283.576198 159.531153 
L 299.014933 160.189502 
L 314.453668 144.92237 
L 329.892404 99.91097 
L 345.331139 145.986159 
L 360.769874 149.545491 
L 376.208609 155.442889 
L 391.647344 163.150778 
L 407.08608 165.414354 
" style="fill:none;stroke:#1b9e77;stroke-linecap:square;stroke-opacity:0.5;stroke-width:1.5;"/>
   </g>
   <g id="line2d_86">
    <path clip-path="url(#p4ea742aa06)" d="M 51.99517 164.731367 
L 67.433906 164.886149 
L 82.872641 163.098127 
L 98.311376 164.387564 
L 113.750111 151.405354 
L 129.188846 164.686468 
L 144.627582 163.53939 
L 160.066317 160.469202 
L 175.505052 159.974891 
L 190.943787 118.986178 
L 206.382522 54.222066 
L 221.821257 137.821848 
L 237.259993 157.853933 
L 252.698728 155.527052 
L 268.137463 165.596276 
L 283.576198 165.772694 
L 299.014933 165.87403 
L 314.453668 165.892208 
L 329.892404 165.898311 
L 345.331139 165.903456 
L 360.769874 165.910356 
L 376.208609 165.926396 
L 391.647344 165.939202 
L 407.08608 165.958342 
" style="fill:none;stroke:#1b9e77;stroke-linecap:square;stroke-opacity:0.5;stroke-width:1.5;"/>
   </g>
   <g id="line2d_87">
    <path clip-path="url(#p4ea742aa06)" d="M 51.99517 150.893367 
L 67.433906 162.931164 
L 82.872641 165.159713 
L 98.311376 165.145173 
L 113.750111 165.201313 
L 129.188846 165.324782 
L 144.627582 165.525582 
L 160.066317 165.39975 
L 175.505052 165.032116 
L 190.943787 162.105711 
L 206.382522 157.233699 
L 221.821257 156.778767 
L 237.259993 153.467452 
L 252.698728 157.716264 
L 268.137463 158.589054 
L 283.576198 155.024893 
L 299.014933 146.825187 
L 314.453668 137.056177 
L 329.892404 134.553017 
L 345.331139 160.298763 
L 360.769874 136.78392 
L 376.208609 122.131407 
L 391.647344 165.208957 
L 407.08608 165.874623 
" style="fill:none;stroke:#1b9e77;stroke-linecap:square;stroke-opacity:0.5;stroke-width:1.5;"/>
   </g>
   <g id="line2d_88">
    <path clip-path="url(#p4ea742aa06)" d="M 51.99517 165.96 
L 67.433906 164.939124 
L 82.872641 164.826238 
L 98.311376 162.984222 
L 113.750111 157.755194 
L 129.188846 158.625843 
L 144.627582 160.672495 
L 160.066317 160.653287 
L 175.505052 155.210318 
L 190.943787 153.493108 
L 206.382522 150.769913 
L 221.821257 157.596736 
L 237.259993 162.057722 
L 252.698728 160.245558 
L 268.137463 151.466618 
L 283.576198 144.294737 
L 299.014933 147.095699 
L 314.453668 105.089234 
L 329.892404 140.633616 
L 345.331139 159.458593 
L 360.769874 162.997014 
L 376.208609 162.794142 
L 391.647344 164.766995 
L 407.08608 165.874447 
" style="fill:none;stroke:#1b9e77;stroke-linecap:square;stroke-opacity:0.5;stroke-width:1.5;"/>
   </g>
   <g id="line2d_89">
    <path clip-path="url(#p4ea742aa06)" d="M 51.99517 163.981098 
L 67.433906 160.34414 
L 82.872641 163.185168 
L 98.311376 164.506709 
L 113.750111 162.417888 
L 129.188846 147.561324 
L 144.627582 136.130444 
L 160.066317 139.422234 
L 175.505052 149.968634 
L 190.943787 155.128151 
L 206.382522 154.280801 
L 221.821257 150.085082 
L 237.259993 141.239127 
L 252.698728 138.189041 
L 268.137463 147.345643 
L 283.576198 157.081616 
L 299.014933 159.950264 
L 314.453668 160.191323 
L 329.892404 162.357876 
L 345.331139 164.155444 
L 360.769874 165.285407 
L 376.208609 165.660883 
L 391.647344 165.848012 
L 407.08608 165.944537 
" style="fill:none;stroke:#1b9e77;stroke-linecap:square;stroke-opacity:0.5;stroke-width:1.5;"/>
   </g>
   <g id="line2d_90">
    <path clip-path="url(#p4ea742aa06)" d="M 51.99517 164.441568 
L 67.433906 165.274157 
L 82.872641 164.448526 
L 98.311376 161.213393 
L 113.750111 162.722643 
L 129.188846 164.225503 
L 144.627582 164.112649 
L 160.066317 163.53226 
L 175.505052 162.439071 
L 190.943787 161.875471 
L 206.382522 156.943499 
L 221.821257 139.44876 
L 237.259993 149.004327 
L 252.698728 96.956849 
L 268.137463 115.839153 
L 283.576198 131.018644 
L 299.014933 157.417301 
L 314.453668 164.893542 
L 329.892404 165.578541 
L 345.331139 165.538428 
L 360.769874 165.700798 
L 376.208609 165.810066 
L 391.647344 165.876753 
L 407.08608 165.94895 
" style="fill:none;stroke:#1b9e77;stroke-linecap:square;stroke-opacity:0.5;stroke-width:1.5;"/>
   </g>
   <g id="line2d_91">
    <path clip-path="url(#p4ea742aa06)" d="M 51.99517 163.196762 
L 67.433906 135.633744 
L 82.872641 113.378981 
L 98.311376 165.840093 
L 113.750111 165.536731 
L 129.188846 159.435498 
L 144.627582 158.529162 
L 160.066317 150.402574 
L 175.505052 100.579563 
L 190.943787 160.581323 
L 206.382522 161.182526 
L 221.821257 147.808833 
L 237.259993 160.127823 
L 252.698728 165.267019 
L 268.137463 165.754806 
L 283.576198 165.767319 
L 299.014933 161.514035 
L 314.453668 162.893844 
L 329.892404 162.259061 
L 345.331139 164.323183 
L 360.769874 163.431724 
L 376.208609 161.632485 
L 391.647344 161.190575 
L 407.08608 163.993184 
" style="fill:none;stroke:#1b9e77;stroke-linecap:square;stroke-opacity:0.5;stroke-width:1.5;"/>
   </g>
   <g id="line2d_92">
    <path clip-path="url(#p4ea742aa06)" d="M 51.99517 165.88995 
L 67.433906 165.659649 
L 82.872641 164.655012 
L 98.311376 162.754811 
L 113.750111 161.66346 
L 129.188846 162.531901 
L 144.627582 160.79729 
L 160.066317 158.280243 
L 175.505052 154.450519 
L 190.943787 142.32584 
L 206.382522 110.586973 
L 221.821257 119.374577 
L 237.259993 129.839124 
L 252.698728 136.668427 
L 268.137463 163.734867 
L 283.576198 165.115023 
L 299.014933 165.48551 
L 314.453668 165.547382 
L 329.892404 165.6362 
L 345.331139 165.569737 
L 360.769874 165.378079 
L 376.208609 165.006194 
L 391.647344 162.991263 
L 407.08608 160.318831 
" style="fill:none;stroke:#1b9e77;stroke-linecap:square;stroke-opacity:0.5;stroke-width:1.5;"/>
   </g>
   <g id="line2d_93">
    <path clip-path="url(#p4ea742aa06)" d="M 51.99517 165.013093 
L 67.433906 158.455176 
L 82.872641 132.928351 
L 98.311376 107.188303 
L 113.750111 146.45358 
L 129.188846 142.549349 
L 144.627582 143.464973 
L 160.066317 146.988792 
L 175.505052 162.454441 
L 190.943787 165.458986 
L 206.382522 165.73772 
L 221.821257 165.381737 
L 237.259993 164.438341 
L 252.698728 165.656674 
L 268.137463 165.816818 
L 283.576198 165.948039 
L 299.014933 165.642893 
L 314.453668 164.635841 
L 329.892404 164.069372 
L 345.331139 161.087612 
L 360.769874 154.398748 
L 376.208609 150.27082 
L 391.647344 152.786488 
L 407.08608 163.43471 
" style="fill:none;stroke:#1b9e77;stroke-linecap:square;stroke-opacity:0.5;stroke-width:1.5;"/>
   </g>
   <g id="line2d_94">
    <path clip-path="url(#p4ea742aa06)" d="M 51.99517 153.969205 
L 67.433906 165.17052 
L 82.872641 165.07696 
L 98.311376 165.486493 
L 113.750111 165.270979 
L 129.188846 164.658645 
L 144.627582 163.750728 
L 160.066317 162.140893 
L 175.505052 130.427291 
L 190.943787 133.530442 
L 206.382522 145.042662 
L 221.821257 163.559305 
L 237.259993 137.867445 
L 252.698728 153.928597 
L 268.137463 160.045954 
L 283.576198 142.687841 
L 299.014933 146.434128 
L 314.453668 141.740327 
L 329.892404 157.562036 
L 345.331139 162.487839 
L 360.769874 164.223214 
L 376.208609 163.783016 
L 391.647344 165.473114 
L 407.08608 165.943224 
" style="fill:none;stroke:#1b9e77;stroke-linecap:square;stroke-opacity:0.5;stroke-width:1.5;"/>
   </g>
   <g id="line2d_95">
    <path clip-path="url(#p4ea742aa06)" d="M 51.99517 164.443842 
L 67.433906 158.917743 
L 82.872641 153.02381 
L 98.311376 151.754483 
L 113.750111 157.436676 
L 129.188846 154.834592 
L 144.627582 85.562763 
L 160.066317 88.726531 
L 175.505052 157.836732 
L 190.943787 161.039161 
L 206.382522 164.463615 
L 221.821257 164.905946 
L 237.259993 165.401567 
L 252.698728 165.505479 
L 268.137463 165.598527 
L 283.576198 165.479756 
L 299.014933 165.537262 
L 314.453668 165.750628 
L 329.892404 165.842176 
L 345.331139 165.817551 
L 360.769874 165.575735 
L 376.208609 165.825407 
L 391.647344 163.173093 
L 407.08608 157.807779 
" style="fill:none;stroke:#1b9e77;stroke-linecap:square;stroke-opacity:0.5;stroke-width:1.5;"/>
   </g>
   <g id="line2d_96">
    <path clip-path="url(#p4ea742aa06)" d="M 51.99517 163.204172 
L 67.433906 149.396095 
L 82.872641 145.741742 
L 98.311376 148.693517 
L 113.750111 132.803781 
L 129.188846 119.734705 
L 144.627582 112.98941 
L 160.066317 146.470475 
L 175.505052 161.377111 
L 190.943787 165.238057 
L 206.382522 165.485617 
L 221.821257 163.169315 
L 237.259993 165.657963 
L 252.698728 165.684755 
L 268.137463 165.746449 
L 283.576198 165.764545 
L 299.014933 165.779664 
L 314.453668 165.68313 
L 329.892404 165.502293 
L 345.331139 165.626491 
L 360.769874 165.156255 
L 376.208609 165.052823 
L 391.647344 152.944751 
L 407.08608 157.357736 
" style="fill:none;stroke:#1b9e77;stroke-linecap:square;stroke-opacity:0.5;stroke-width:1.5;"/>
   </g>
   <g id="line2d_97">
    <path clip-path="url(#p4ea742aa06)" d="M 51.99517 133.56625 
L 67.433906 83.894047 
L 82.872641 137.416123 
L 98.311376 146.440482 
L 113.750111 152.591464 
L 129.188846 152.076986 
L 144.627582 154.523727 
L 160.066317 159.741343 
L 175.505052 163.246836 
L 190.943787 164.104776 
L 206.382522 164.614387 
L 221.821257 163.518244 
L 237.259993 158.07239 
L 252.698728 157.826655 
L 268.137463 160.096517 
L 283.576198 162.973179 
L 299.014933 164.97614 
L 314.453668 165.455721 
L 329.892404 165.710289 
L 345.331139 165.768178 
L 360.769874 165.871806 
L 376.208609 165.898998 
L 391.647344 165.922669 
L 407.08608 165.95365 
" style="fill:none;stroke:#1b9e77;stroke-linecap:square;stroke-opacity:0.5;stroke-width:1.5;"/>
   </g>
   <g id="line2d_98">
    <path clip-path="url(#p4ea742aa06)" d="M 51.99517 165.710296 
L 67.433906 164.767639 
L 82.872641 164.817105 
L 98.311376 156.300929 
L 113.750111 136.151964 
L 129.188846 147.205332 
L 144.627582 158.354099 
L 160.066317 158.473754 
L 175.505052 160.838101 
L 190.943787 165.582515 
L 206.382522 164.856433 
L 221.821257 162.169671 
L 237.259993 159.237643 
L 252.698728 162.99866 
L 268.137463 162.528651 
L 283.576198 161.529971 
L 299.014933 161.658606 
L 314.453668 158.797475 
L 329.892404 139.64357 
L 345.331139 133.241917 
L 360.769874 152.760055 
L 376.208609 148.217988 
L 391.647344 130.601142 
L 407.08608 163.817332 
" style="fill:none;stroke:#1b9e77;stroke-linecap:square;stroke-opacity:0.5;stroke-width:1.5;"/>
   </g>
   <g id="line2d_99">
    <path clip-path="url(#p4ea742aa06)" d="M 51.99517 165.040993 
L 67.433906 157.752708 
L 82.872641 135.589102 
L 98.311376 140.711161 
L 113.750111 157.570927 
L 129.188846 162.464481 
L 144.627582 136.379008 
L 160.066317 113.60144 
L 175.505052 134.310298 
L 190.943787 151.609692 
L 206.382522 150.727366 
L 221.821257 148.377972 
L 237.259993 161.903429 
L 252.698728 165.235765 
L 268.137463 165.777358 
L 283.576198 165.802554 
L 299.014933 165.879237 
L 314.453668 165.897105 
L 329.892404 165.917238 
L 345.331139 165.923621 
L 360.769874 165.933298 
L 376.208609 165.944843 
L 391.647344 165.951262 
L 407.08608 165.959992 
" style="fill:none;stroke:#1b9e77;stroke-linecap:square;stroke-opacity:0.5;stroke-width:1.5;"/>
   </g>
   <g id="line2d_100">
    <path clip-path="url(#p4ea742aa06)" d="M 51.99517 162.436668 
L 67.433906 153.33344 
L 82.872641 161.540896 
L 98.311376 164.484867 
L 113.750111 165.21185 
L 129.188846 165.406974 
L 144.627582 165.572113 
L 160.066317 165.534487 
L 175.505052 165.655438 
L 190.943787 165.753538 
L 206.382522 165.798052 
L 221.821257 165.750906 
L 237.259993 165.753737 
L 252.698728 165.892828 
L 268.137463 165.880296 
L 283.576198 165.352045 
L 299.014933 159.172091 
L 314.453668 151.609267 
L 329.892404 102.562228 
L 345.331139 159.431994 
L 360.769874 148.68844 
L 376.208609 116.335765 
L 391.647344 108.947134 
L 407.08608 164.1558 
" style="fill:none;stroke:#1b9e77;stroke-linecap:square;stroke-opacity:0.5;stroke-width:1.5;"/>
   </g>
   <g id="line2d_101">
    <path clip-path="url(#p4ea742aa06)" d="M 51.99517 164.794917 
L 67.433906 155.561109 
L 82.872641 147.233148 
L 98.311376 152.658002 
L 113.750111 152.738721 
L 129.188846 142.214651 
L 144.627582 148.719085 
L 160.066317 163.577246 
L 175.505052 165.598105 
L 190.943787 165.459385 
L 206.382522 164.501556 
L 221.821257 164.419193 
L 237.259993 165.048518 
L 252.698728 164.046695 
L 268.137463 162.23692 
L 283.576198 160.567127 
L 299.014933 160.548032 
L 314.453668 158.898135 
L 329.892404 150.373319 
L 345.331139 146.640356 
L 360.769874 152.531479 
L 376.208609 148.673033 
L 391.647344 125.39724 
L 407.08608 157.824886 
" style="fill:none;stroke:#1b9e77;stroke-linecap:square;stroke-opacity:0.5;stroke-width:1.5;"/>
   </g>
   <g id="line2d_102">
    <path clip-path="url(#p4ea742aa06)" d="M 51.99517 163.566377 
L 67.433906 148.438152 
L 82.872641 158.118948 
L 98.311376 163.530983 
L 113.750111 164.666806 
L 129.188846 164.182185 
L 144.627582 160.11255 
L 160.066317 156.355718 
L 175.505052 163.410665 
L 190.943787 165.436097 
L 206.382522 165.592985 
L 221.821257 163.482649 
L 237.259993 160.018621 
L 252.698728 165.695324 
L 268.137463 165.440548 
L 283.576198 165.610159 
L 299.014933 159.468462 
L 314.453668 162.311897 
L 329.892404 154.691534 
L 345.331139 133.152309 
L 360.769874 132.05154 
L 376.208609 95.181428 
L 391.647344 146.289091 
L 407.08608 163.455826 
" style="fill:none;stroke:#1b9e77;stroke-linecap:square;stroke-opacity:0.5;stroke-width:1.5;"/>
   </g>
   <g id="line2d_103">
    <path clip-path="url(#p4ea742aa06)" d="M 51.99517 159.934188 
L 67.433906 159.057834 
L 82.872641 158.606626 
L 98.311376 136.355024 
L 113.750111 156.225449 
L 129.188846 159.414258 
L 144.627582 164.947838 
L 160.066317 165.335684 
L 175.505052 165.611524 
L 190.943787 165.614638 
L 206.382522 165.654859 
L 221.821257 165.673316 
L 237.259993 165.343012 
L 252.698728 165.683725 
L 268.137463 164.306038 
L 283.576198 142.924758 
L 299.014933 156.222775 
L 314.453668 154.583755 
L 329.892404 144.92383 
L 345.331139 148.118074 
L 360.769874 154.725658 
L 376.208609 153.023861 
L 391.647344 110.444876 
L 407.08608 157.52926 
" style="fill:none;stroke:#1b9e77;stroke-linecap:square;stroke-opacity:0.5;stroke-width:1.5;"/>
   </g>
   <g id="line2d_104">
    <path clip-path="url(#p4ea742aa06)" d="M 51.99517 165.365246 
L 67.433906 164.515658 
L 82.872641 163.295228 
L 98.311376 160.663526 
L 113.750111 160.206866 
L 129.188846 163.268874 
L 144.627582 159.718042 
L 160.066317 143.487201 
L 175.505052 136.391291 
L 190.943787 151.407658 
L 206.382522 136.812586 
L 221.821257 73.24181 
L 237.259993 159.175879 
L 252.698728 150.397998 
L 268.137463 165.794928 
L 283.576198 165.851694 
L 299.014933 165.892385 
L 314.453668 165.591912 
L 329.892404 165.22592 
L 345.331139 165.861573 
L 360.769874 165.885286 
L 376.208609 165.865736 
L 391.647344 165.545829 
L 407.08608 160.797741 
" style="fill:none;stroke:#1b9e77;stroke-linecap:square;stroke-opacity:0.5;stroke-width:1.5;"/>
   </g>
   <g id="line2d_105">
    <path clip-path="url(#p4ea742aa06)" d="M 51.99517 164.743205 
L 67.433906 160.095672 
L 82.872641 146.552459 
L 98.311376 106.960145 
L 113.750111 147.653849 
L 129.188846 152.236816 
L 144.627582 148.956479 
L 160.066317 142.174268 
L 175.505052 153.684775 
L 190.943787 161.301964 
L 206.382522 163.946411 
L 221.821257 164.218634 
L 237.259993 161.294595 
L 252.698728 153.023282 
L 268.137463 152.028815 
L 283.576198 155.967438 
L 299.014933 158.556296 
L 314.453668 160.347759 
L 329.892404 162.000455 
L 345.331139 162.751319 
L 360.769874 164.579367 
L 376.208609 165.484587 
L 391.647344 165.770402 
L 407.08608 165.931858 
" style="fill:none;stroke:#1b9e77;stroke-linecap:square;stroke-opacity:0.5;stroke-width:1.5;"/>
   </g>
   <g id="line2d_106">
    <path clip-path="url(#p4ea742aa06)" d="M 51.99517 156.896937 
L 67.433906 141.33334 
L 82.872641 162.471725 
L 98.311376 164.055732 
L 113.750111 164.404096 
L 129.188846 162.644183 
L 144.627582 157.500172 
L 160.066317 158.077859 
L 175.505052 157.96783 
L 190.943787 165.178367 
L 206.382522 163.81927 
L 221.821257 98.413301 
L 237.259993 127.958687 
L 252.698728 140.714547 
L 268.137463 137.320246 
L 283.576198 161.887551 
L 299.014933 164.567481 
L 314.453668 164.442806 
L 329.892404 165.222833 
L 345.331139 161.59168 
L 360.769874 165.933478 
L 376.208609 165.94642 
L 391.647344 165.953751 
L 407.08608 165.958554 
" style="fill:none;stroke:#1b9e77;stroke-linecap:square;stroke-opacity:0.5;stroke-width:1.5;"/>
   </g>
   <g id="line2d_107">
    <path clip-path="url(#p4ea742aa06)" d="M 51.99517 161.547654 
L 67.433906 165.049165 
L 82.872641 165.672052 
L 98.311376 165.567046 
L 113.750111 165.592997 
L 129.188846 165.456604 
L 144.627582 165.802359 
L 160.066317 165.882848 
L 175.505052 165.903818 
L 190.943787 165.931584 
L 206.382522 165.721755 
L 221.821257 165.440792 
L 237.259993 165.539434 
L 252.698728 159.207841 
L 268.137463 160.729034 
L 283.576198 159.109127 
L 299.014933 156.985942 
L 314.453668 154.815389 
L 329.892404 149.648084 
L 345.331139 147.21418 
L 360.769874 145.679643 
L 376.208609 134.435285 
L 391.647344 97.36521 
L 407.08608 125.963013 
" style="fill:none;stroke:#1b9e77;stroke-linecap:square;stroke-opacity:0.5;stroke-width:1.5;"/>
   </g>
   <g id="line2d_108">
    <path clip-path="url(#p4ea742aa06)" d="M 51.99517 162.46544 
L 67.433906 149.293308 
L 82.872641 158.98405 
L 98.311376 165.271552 
L 113.750111 165.021034 
L 129.188846 156.276819 
L 144.627582 147.211899 
L 160.066317 155.205201 
L 175.505052 164.403891 
L 190.943787 165.642634 
L 206.382522 164.40781 
L 221.821257 141.088081 
L 237.259993 135.534126 
L 252.698728 165.112008 
L 268.137463 164.098571 
L 283.576198 126.395791 
L 299.014933 161.549509 
L 314.453668 158.774166 
L 329.892404 153.824196 
L 345.331139 164.114413 
L 360.769874 160.012754 
L 376.208609 148.111237 
L 391.647344 145.462915 
L 407.08608 161.999442 
" style="fill:none;stroke:#1b9e77;stroke-linecap:square;stroke-opacity:0.5;stroke-width:1.5;"/>
   </g>
   <g id="line2d_109">
    <path clip-path="url(#p4ea742aa06)" d="M 51.99517 107.280035 
L 67.433906 155.301925 
L 82.872641 164.361776 
L 98.311376 164.315356 
L 113.750111 164.341836 
L 129.188846 164.759045 
L 144.627582 164.844569 
L 160.066317 165.495288 
L 175.505052 165.684801 
L 190.943787 164.506488 
L 206.382522 93.841745 
L 221.821257 159.878223 
L 237.259993 164.806825 
L 252.698728 164.586323 
L 268.137463 164.827253 
L 283.576198 164.403347 
L 299.014933 164.100571 
L 314.453668 164.685471 
L 329.892404 165.220622 
L 345.331139 165.371041 
L 360.769874 165.197601 
L 376.208609 158.096192 
L 391.647344 137.217172 
L 407.08608 127.137348 
" style="fill:none;stroke:#1b9e77;stroke-linecap:square;stroke-opacity:0.5;stroke-width:1.5;"/>
   </g>
   <g id="line2d_110">
    <path clip-path="url(#p4ea742aa06)" d="M 51.99517 156.109167 
L 67.433906 146.856752 
L 82.872641 161.790719 
L 98.311376 163.142652 
L 113.750111 165.245315 
L 129.188846 165.616155 
L 144.627582 165.788406 
L 160.066317 165.767452 
L 175.505052 165.822966 
L 190.943787 165.832906 
L 206.382522 165.792993 
L 221.821257 165.87353 
L 237.259993 165.465736 
L 252.698728 155.225183 
L 268.137463 150.738214 
L 283.576198 140.672078 
L 299.014933 118.634057 
L 314.453668 69.484691 
L 329.892404 160.017334 
L 345.331139 164.139089 
L 360.769874 165.271405 
L 376.208609 165.42788 
L 391.647344 165.616886 
L 407.08608 165.929297 
" style="fill:none;stroke:#1b9e77;stroke-linecap:square;stroke-opacity:0.5;stroke-width:1.5;"/>
   </g>
   <g id="line2d_111">
    <path clip-path="url(#p4ea742aa06)" d="M 51.99517 162.275914 
L 67.433906 162.500792 
L 82.872641 163.209024 
L 98.311376 162.727589 
L 113.750111 164.387737 
L 129.188846 165.253246 
L 144.627582 165.675695 
L 160.066317 165.65379 
L 175.505052 165.667494 
L 190.943787 165.653856 
L 206.382522 165.637865 
L 221.821257 165.840926 
L 237.259993 165.81079 
L 252.698728 156.406262 
L 268.137463 162.960955 
L 283.576198 155.236284 
L 299.014933 125.737487 
L 314.453668 108.058808 
L 329.892404 126.142138 
L 345.331139 161.511515 
L 360.769874 143.359667 
L 376.208609 129.16719 
L 391.647344 165.515138 
L 407.08608 165.870696 
" style="fill:none;stroke:#1b9e77;stroke-linecap:square;stroke-opacity:0.5;stroke-width:1.5;"/>
   </g>
   <g id="line2d_112">
    <path clip-path="url(#p4ea742aa06)" d="M 51.99517 165.950119 
L 67.433906 156.881844 
L 82.872641 119.796505 
L 98.311376 111.163758 
L 113.750111 133.984503 
L 129.188846 82.423965 
L 144.627582 151.60395 
L 160.066317 164.037732 
L 175.505052 165.437605 
L 190.943787 165.950119 
L 206.382522 165.950119 
L 221.821257 165.950119 
L 237.259993 165.950119 
L 252.698728 165.950119 
L 268.137463 165.950119 
L 283.576198 165.950119 
L 299.014933 165.950119 
L 314.453668 165.950119 
L 329.892404 165.950119 
L 345.331139 165.950119 
L 360.769874 165.950119 
L 376.208609 165.950119 
L 391.647344 165.950119 
L 407.08608 165.679214 
" style="fill:none;stroke:#d95f02;stroke-linecap:square;stroke-width:1.5;"/>
   </g>
   <g id="patch_3">
    <path d="M 34.240625 173.52 
L 34.240625 7.2 
" style="fill:none;stroke:#000000;stroke-linecap:square;stroke-linejoin:miter;stroke-width:0.8;"/>
   </g>
   <g id="patch_4">
    <path d="M 34.240625 173.52 
L 424.840625 173.52 
" style="fill:none;stroke:#000000;stroke-linecap:square;stroke-linejoin:miter;stroke-width:0.8;"/>
   </g>
   <g id="legend_1">
    <g id="patch_5">
     <path d="M 366.673438 29.878125 
L 417.840625 29.878125 
Q 419.840625 29.878125 419.840625 27.878125 
L 419.840625 14.2 
Q 419.840625 12.2 417.840625 12.2 
L 366.673438 12.2 
Q 364.673438 12.2 364.673438 14.2 
L 364.673438 27.878125 
Q 364.673438 29.878125 366.673438 29.878125 
z
" style="fill:#ffffff;opacity:0.8;stroke:#cccccc;stroke-linejoin:miter;"/>
    </g>
    <g id="line2d_113">
     <path d="M 368.673438 20.298438 
L 388.673438 20.298438 
" style="fill:none;stroke:#d95f02;stroke-linecap:square;stroke-width:1.5;"/>
    </g>
    <g id="line2d_114"/>
    <g id="text_14">
     <!-- real -->
     <defs>
      <path d="M 9.421875 75.984375 
L 18.40625 75.984375 
L 18.40625 0 
L 9.421875 0 
z
" id="DejaVuSans-108"/>
     </defs>
     <g transform="translate(396.673438 23.798438)scale(0.1 -0.1)">
      <use xlink:href="#DejaVuSans-114"/>
      <use x="41.082031" xlink:href="#DejaVuSans-101"/>
      <use x="102.605469" xlink:href="#DejaVuSans-97"/>
      <use x="163.884766" xlink:href="#DejaVuSans-108"/>
     </g>
    </g>
   </g>
  </g>
 </g>
 <defs>
  <clipPath id="p4ea742aa06">
   <rect height="166.32" width="390.6" x="34.240625" y="7.2"/>
  </clipPath>
 </defs>
</svg>
