<?xml version="1.0" encoding="utf-8" standalone="no"?>
<!DOCTYPE svg PUBLIC "-//W3C//DTD SVG 1.1//EN"
  "http://www.w3.org/Graphics/SVG/1.1/DTD/svg11.dtd">
<!-- Created with matplotlib (https://matplotlib.org/) -->
<svg height="211.07625pt" version="1.1" viewBox="0 0 436.087315 211.07625" width="436.087315pt" xmlns="http://www.w3.org/2000/svg" xmlns:xlink="http://www.w3.org/1999/xlink">
 <defs>
  <style type="text/css">
*{stroke-linecap:butt;stroke-linejoin:round;}
  </style>
 </defs>
 <g id="figure_1">
  <g id="patch_1">
   <path d="M 0 211.07625 
L 436.087315 211.07625 
L 436.087315 0 
L 0 0 
z
" style="fill:#ffffff;"/>
  </g>
  <g id="axes_1">
   <g id="patch_2">
    <path d="M 34.240625 173.52 
L 424.840625 173.52 
L 424.840625 7.2 
L 34.240625 7.2 
z
" style="fill:#ffffff;"/>
   </g>
   <g id="matplotlib.axis_1">
    <g id="xtick_1">
     <g id="line2d_1">
      <defs>
       <path d="M 0 0 
L 0 3.5 
" id="m44e032e1b3" style="stroke:#000000;stroke-width:0.8;"/>
      </defs>
      <g>
       <use style="stroke:#000000;stroke-width:0.8;" x="36.556435" xlink:href="#m44e032e1b3" y="173.52"/>
      </g>
     </g>
     <g id="text_1">
      <!-- 0 -->
      <defs>
       <path d="M 31.78125 66.40625 
Q 24.171875 66.40625 20.328125 58.90625 
Q 16.5 51.421875 16.5 36.375 
Q 16.5 21.390625 20.328125 13.890625 
Q 24.171875 6.390625 31.78125 6.390625 
Q 39.453125 6.390625 43.28125 13.890625 
Q 47.125 21.390625 47.125 36.375 
Q 47.125 51.421875 43.28125 58.90625 
Q 39.453125 66.40625 31.78125 66.40625 
z
M 31.78125 74.21875 
Q 44.046875 74.21875 50.515625 64.515625 
Q 56.984375 54.828125 56.984375 36.375 
Q 56.984375 17.96875 50.515625 8.265625 
Q 44.046875 -1.421875 31.78125 -1.421875 
Q 19.53125 -1.421875 13.0625 8.265625 
Q 6.59375 17.96875 6.59375 36.375 
Q 6.59375 54.828125 13.0625 64.515625 
Q 19.53125 74.21875 31.78125 74.21875 
z
" id="DejaVuSans-48"/>
      </defs>
      <g transform="translate(33.375185 188.118438)scale(0.1 -0.1)">
       <use xlink:href="#DejaVuSans-48"/>
      </g>
     </g>
    </g>
    <g id="xtick_2">
     <g id="line2d_2">
      <g>
       <use style="stroke:#000000;stroke-width:0.8;" x="113.750111" xlink:href="#m44e032e1b3" y="173.52"/>
      </g>
     </g>
     <g id="text_2">
      <!-- 5 -->
      <defs>
       <path d="M 10.796875 72.90625 
L 49.515625 72.90625 
L 49.515625 64.59375 
L 19.828125 64.59375 
L 19.828125 46.734375 
Q 21.96875 47.46875 24.109375 47.828125 
Q 26.265625 48.1875 28.421875 48.1875 
Q 40.625 48.1875 47.75 41.5 
Q 54.890625 34.8125 54.890625 23.390625 
Q 54.890625 11.625 47.5625 5.09375 
Q 40.234375 -1.421875 26.90625 -1.421875 
Q 22.3125 -1.421875 17.546875 -0.640625 
Q 12.796875 0.140625 7.71875 1.703125 
L 7.71875 11.625 
Q 12.109375 9.234375 16.796875 8.0625 
Q 21.484375 6.890625 26.703125 6.890625 
Q 35.15625 6.890625 40.078125 11.328125 
Q 45.015625 15.765625 45.015625 23.390625 
Q 45.015625 31 40.078125 35.4375 
Q 35.15625 39.890625 26.703125 39.890625 
Q 22.75 39.890625 18.8125 39.015625 
Q 14.890625 38.140625 10.796875 36.28125 
z
" id="DejaVuSans-53"/>
      </defs>
      <g transform="translate(110.568861 188.118438)scale(0.1 -0.1)">
       <use xlink:href="#DejaVuSans-53"/>
      </g>
     </g>
    </g>
    <g id="xtick_3">
     <g id="line2d_3">
      <g>
       <use style="stroke:#000000;stroke-width:0.8;" x="190.943787" xlink:href="#m44e032e1b3" y="173.52"/>
      </g>
     </g>
     <g id="text_3">
      <!-- 10 -->
      <defs>
       <path d="M 12.40625 8.296875 
L 28.515625 8.296875 
L 28.515625 63.921875 
L 10.984375 60.40625 
L 10.984375 69.390625 
L 28.421875 72.90625 
L 38.28125 72.90625 
L 38.28125 8.296875 
L 54.390625 8.296875 
L 54.390625 0 
L 12.40625 0 
z
" id="DejaVuSans-49"/>
      </defs>
      <g transform="translate(184.581287 188.118438)scale(0.1 -0.1)">
       <use xlink:href="#DejaVuSans-49"/>
       <use x="63.623047" xlink:href="#DejaVuSans-48"/>
      </g>
     </g>
    </g>
    <g id="xtick_4">
     <g id="line2d_4">
      <g>
       <use style="stroke:#000000;stroke-width:0.8;" x="268.137463" xlink:href="#m44e032e1b3" y="173.52"/>
      </g>
     </g>
     <g id="text_4">
      <!-- 15 -->
      <g transform="translate(261.774963 188.118438)scale(0.1 -0.1)">
       <use xlink:href="#DejaVuSans-49"/>
       <use x="63.623047" xlink:href="#DejaVuSans-53"/>
      </g>
     </g>
    </g>
    <g id="xtick_5">
     <g id="line2d_5">
      <g>
       <use style="stroke:#000000;stroke-width:0.8;" x="345.331139" xlink:href="#m44e032e1b3" y="173.52"/>
      </g>
     </g>
     <g id="text_5">
      <!-- 20 -->
      <defs>
       <path d="M 19.1875 8.296875 
L 53.609375 8.296875 
L 53.609375 0 
L 7.328125 0 
L 7.328125 8.296875 
Q 12.9375 14.109375 22.625 23.890625 
Q 32.328125 33.6875 34.8125 36.53125 
Q 39.546875 41.84375 41.421875 45.53125 
Q 43.3125 49.21875 43.3125 52.78125 
Q 43.3125 58.59375 39.234375 62.25 
Q 35.15625 65.921875 28.609375 65.921875 
Q 23.96875 65.921875 18.8125 64.3125 
Q 13.671875 62.703125 7.8125 59.421875 
L 7.8125 69.390625 
Q 13.765625 71.78125 18.9375 73 
Q 24.125 74.21875 28.421875 74.21875 
Q 39.75 74.21875 46.484375 68.546875 
Q 53.21875 62.890625 53.21875 53.421875 
Q 53.21875 48.921875 51.53125 44.890625 
Q 49.859375 40.875 45.40625 35.40625 
Q 44.1875 33.984375 37.640625 27.21875 
Q 31.109375 20.453125 19.1875 8.296875 
z
" id="DejaVuSans-50"/>
      </defs>
      <g transform="translate(338.968639 188.118438)scale(0.1 -0.1)">
       <use xlink:href="#DejaVuSans-50"/>
       <use x="63.623047" xlink:href="#DejaVuSans-48"/>
      </g>
     </g>
    </g>
    <g id="xtick_6">
     <g id="line2d_6">
      <g>
       <use style="stroke:#000000;stroke-width:0.8;" x="422.524815" xlink:href="#m44e032e1b3" y="173.52"/>
      </g>
     </g>
     <g id="text_6">
      <!-- 25 -->
      <g transform="translate(416.162315 188.118438)scale(0.1 -0.1)">
       <use xlink:href="#DejaVuSans-50"/>
       <use x="63.623047" xlink:href="#DejaVuSans-53"/>
      </g>
     </g>
    </g>
    <g id="text_7">
     <!-- hour -->
     <defs>
      <path d="M 54.890625 33.015625 
L 54.890625 0 
L 45.90625 0 
L 45.90625 32.71875 
Q 45.90625 40.484375 42.875 44.328125 
Q 39.84375 48.1875 33.796875 48.1875 
Q 26.515625 48.1875 22.3125 43.546875 
Q 18.109375 38.921875 18.109375 30.90625 
L 18.109375 0 
L 9.078125 0 
L 9.078125 75.984375 
L 18.109375 75.984375 
L 18.109375 46.1875 
Q 21.34375 51.125 25.703125 53.5625 
Q 30.078125 56 35.796875 56 
Q 45.21875 56 50.046875 50.171875 
Q 54.890625 44.34375 54.890625 33.015625 
z
" id="DejaVuSans-104"/>
      <path d="M 30.609375 48.390625 
Q 23.390625 48.390625 19.1875 42.75 
Q 14.984375 37.109375 14.984375 27.296875 
Q 14.984375 17.484375 19.15625 11.84375 
Q 23.34375 6.203125 30.609375 6.203125 
Q 37.796875 6.203125 41.984375 11.859375 
Q 46.1875 17.53125 46.1875 27.296875 
Q 46.1875 37.015625 41.984375 42.703125 
Q 37.796875 48.390625 30.609375 48.390625 
z
M 30.609375 56 
Q 42.328125 56 49.015625 48.375 
Q 55.71875 40.765625 55.71875 27.296875 
Q 55.71875 13.875 49.015625 6.21875 
Q 42.328125 -1.421875 30.609375 -1.421875 
Q 18.84375 -1.421875 12.171875 6.21875 
Q 5.515625 13.875 5.515625 27.296875 
Q 5.515625 40.765625 12.171875 48.375 
Q 18.84375 56 30.609375 56 
z
" id="DejaVuSans-111"/>
      <path d="M 8.5 21.578125 
L 8.5 54.6875 
L 17.484375 54.6875 
L 17.484375 21.921875 
Q 17.484375 14.15625 20.5 10.265625 
Q 23.53125 6.390625 29.59375 6.390625 
Q 36.859375 6.390625 41.078125 11.03125 
Q 45.3125 15.671875 45.3125 23.6875 
L 45.3125 54.6875 
L 54.296875 54.6875 
L 54.296875 0 
L 45.3125 0 
L 45.3125 8.40625 
Q 42.046875 3.421875 37.71875 1 
Q 33.40625 -1.421875 27.6875 -1.421875 
Q 18.265625 -1.421875 13.375 4.4375 
Q 8.5 10.296875 8.5 21.578125 
z
M 31.109375 56 
z
" id="DejaVuSans-117"/>
      <path d="M 41.109375 46.296875 
Q 39.59375 47.171875 37.8125 47.578125 
Q 36.03125 48 33.890625 48 
Q 26.265625 48 22.1875 43.046875 
Q 18.109375 38.09375 18.109375 28.8125 
L 18.109375 0 
L 9.078125 0 
L 9.078125 54.6875 
L 18.109375 54.6875 
L 18.109375 46.1875 
Q 20.953125 51.171875 25.484375 53.578125 
Q 30.03125 56 36.53125 56 
Q 37.453125 56 38.578125 55.875 
Q 39.703125 55.765625 41.0625 55.515625 
z
" id="DejaVuSans-114"/>
     </defs>
     <g transform="translate(218.088281 201.796563)scale(0.1 -0.1)">
      <use xlink:href="#DejaVuSans-104"/>
      <use x="63.378906" xlink:href="#DejaVuSans-111"/>
      <use x="124.560547" xlink:href="#DejaVuSans-117"/>
      <use x="187.939453" xlink:href="#DejaVuSans-114"/>
     </g>
    </g>
   </g>
   <g id="matplotlib.axis_2">
    <g id="ytick_1">
     <g id="line2d_7">
      <defs>
       <path d="M 0 0 
L -3.5 0 
" id="m0af9adf28a" style="stroke:#000000;stroke-width:0.8;"/>
      </defs>
      <g>
       <use style="stroke:#000000;stroke-width:0.8;" x="34.240625" xlink:href="#m0af9adf28a" y="165.961742"/>
      </g>
     </g>
     <g id="text_8">
      <!-- 0 -->
      <g transform="translate(20.878125 169.760961)scale(0.1 -0.1)">
       <use xlink:href="#DejaVuSans-48"/>
      </g>
     </g>
    </g>
    <g id="ytick_2">
     <g id="line2d_8">
      <g>
       <use style="stroke:#000000;stroke-width:0.8;" x="34.240625" xlink:href="#m0af9adf28a" y="131.505493"/>
      </g>
     </g>
     <g id="text_9">
      <!-- 1 -->
      <g transform="translate(20.878125 135.304712)scale(0.1 -0.1)">
       <use xlink:href="#DejaVuSans-49"/>
      </g>
     </g>
    </g>
    <g id="ytick_3">
     <g id="line2d_9">
      <g>
       <use style="stroke:#000000;stroke-width:0.8;" x="34.240625" xlink:href="#m0af9adf28a" y="97.049244"/>
      </g>
     </g>
     <g id="text_10">
      <!-- 2 -->
      <g transform="translate(20.878125 100.848463)scale(0.1 -0.1)">
       <use xlink:href="#DejaVuSans-50"/>
      </g>
     </g>
    </g>
    <g id="ytick_4">
     <g id="line2d_10">
      <g>
       <use style="stroke:#000000;stroke-width:0.8;" x="34.240625" xlink:href="#m0af9adf28a" y="62.592996"/>
      </g>
     </g>
     <g id="text_11">
      <!-- 3 -->
      <defs>
       <path d="M 40.578125 39.3125 
Q 47.65625 37.796875 51.625 33 
Q 55.609375 28.21875 55.609375 21.1875 
Q 55.609375 10.40625 48.1875 4.484375 
Q 40.765625 -1.421875 27.09375 -1.421875 
Q 22.515625 -1.421875 17.65625 -0.515625 
Q 12.796875 0.390625 7.625 2.203125 
L 7.625 11.71875 
Q 11.71875 9.328125 16.59375 8.109375 
Q 21.484375 6.890625 26.8125 6.890625 
Q 36.078125 6.890625 40.9375 10.546875 
Q 45.796875 14.203125 45.796875 21.1875 
Q 45.796875 27.640625 41.28125 31.265625 
Q 36.765625 34.90625 28.71875 34.90625 
L 20.21875 34.90625 
L 20.21875 43.015625 
L 29.109375 43.015625 
Q 36.375 43.015625 40.234375 45.921875 
Q 44.09375 48.828125 44.09375 54.296875 
Q 44.09375 59.90625 40.109375 62.90625 
Q 36.140625 65.921875 28.71875 65.921875 
Q 24.65625 65.921875 20.015625 65.03125 
Q 15.375 64.15625 9.8125 62.3125 
L 9.8125 71.09375 
Q 15.4375 72.65625 20.34375 73.4375 
Q 25.25 74.21875 29.59375 74.21875 
Q 40.828125 74.21875 47.359375 69.109375 
Q 53.90625 64.015625 53.90625 55.328125 
Q 53.90625 49.265625 50.4375 45.09375 
Q 46.96875 40.921875 40.578125 39.3125 
z
" id="DejaVuSans-51"/>
      </defs>
      <g transform="translate(20.878125 66.392215)scale(0.1 -0.1)">
       <use xlink:href="#DejaVuSans-51"/>
      </g>
     </g>
    </g>
    <g id="ytick_5">
     <g id="line2d_11">
      <g>
       <use style="stroke:#000000;stroke-width:0.8;" x="34.240625" xlink:href="#m0af9adf28a" y="28.136747"/>
      </g>
     </g>
     <g id="text_12">
      <!-- 4 -->
      <defs>
       <path d="M 37.796875 64.3125 
L 12.890625 25.390625 
L 37.796875 25.390625 
z
M 35.203125 72.90625 
L 47.609375 72.90625 
L 47.609375 25.390625 
L 58.015625 25.390625 
L 58.015625 17.1875 
L 47.609375 17.1875 
L 47.609375 0 
L 37.796875 0 
L 37.796875 17.1875 
L 4.890625 17.1875 
L 4.890625 26.703125 
z
" id="DejaVuSans-52"/>
      </defs>
      <g transform="translate(20.878125 31.935966)scale(0.1 -0.1)">
       <use xlink:href="#DejaVuSans-52"/>
      </g>
     </g>
    </g>
    <g id="text_13">
     <!-- precipitation [mm/hour] -->
     <defs>
      <path d="M 18.109375 8.203125 
L 18.109375 -20.796875 
L 9.078125 -20.796875 
L 9.078125 54.6875 
L 18.109375 54.6875 
L 18.109375 46.390625 
Q 20.953125 51.265625 25.265625 53.625 
Q 29.59375 56 35.59375 56 
Q 45.5625 56 51.78125 48.09375 
Q 58.015625 40.1875 58.015625 27.296875 
Q 58.015625 14.40625 51.78125 6.484375 
Q 45.5625 -1.421875 35.59375 -1.421875 
Q 29.59375 -1.421875 25.265625 0.953125 
Q 20.953125 3.328125 18.109375 8.203125 
z
M 48.6875 27.296875 
Q 48.6875 37.203125 44.609375 42.84375 
Q 40.53125 48.484375 33.40625 48.484375 
Q 26.265625 48.484375 22.1875 42.84375 
Q 18.109375 37.203125 18.109375 27.296875 
Q 18.109375 17.390625 22.1875 11.75 
Q 26.265625 6.109375 33.40625 6.109375 
Q 40.53125 6.109375 44.609375 11.75 
Q 48.6875 17.390625 48.6875 27.296875 
z
" id="DejaVuSans-112"/>
      <path d="M 56.203125 29.59375 
L 56.203125 25.203125 
L 14.890625 25.203125 
Q 15.484375 15.921875 20.484375 11.0625 
Q 25.484375 6.203125 34.421875 6.203125 
Q 39.59375 6.203125 44.453125 7.46875 
Q 49.3125 8.734375 54.109375 11.28125 
L 54.109375 2.78125 
Q 49.265625 0.734375 44.1875 -0.34375 
Q 39.109375 -1.421875 33.890625 -1.421875 
Q 20.796875 -1.421875 13.15625 6.1875 
Q 5.515625 13.8125 5.515625 26.8125 
Q 5.515625 40.234375 12.765625 48.109375 
Q 20.015625 56 32.328125 56 
Q 43.359375 56 49.78125 48.890625 
Q 56.203125 41.796875 56.203125 29.59375 
z
M 47.21875 32.234375 
Q 47.125 39.59375 43.09375 43.984375 
Q 39.0625 48.390625 32.421875 48.390625 
Q 24.90625 48.390625 20.390625 44.140625 
Q 15.875 39.890625 15.1875 32.171875 
z
" id="DejaVuSans-101"/>
      <path d="M 48.78125 52.59375 
L 48.78125 44.1875 
Q 44.96875 46.296875 41.140625 47.34375 
Q 37.3125 48.390625 33.40625 48.390625 
Q 24.65625 48.390625 19.8125 42.84375 
Q 14.984375 37.3125 14.984375 27.296875 
Q 14.984375 17.28125 19.8125 11.734375 
Q 24.65625 6.203125 33.40625 6.203125 
Q 37.3125 6.203125 41.140625 7.25 
Q 44.96875 8.296875 48.78125 10.40625 
L 48.78125 2.09375 
Q 45.015625 0.34375 40.984375 -0.53125 
Q 36.96875 -1.421875 32.421875 -1.421875 
Q 20.0625 -1.421875 12.78125 6.34375 
Q 5.515625 14.109375 5.515625 27.296875 
Q 5.515625 40.671875 12.859375 48.328125 
Q 20.21875 56 33.015625 56 
Q 37.15625 56 41.109375 55.140625 
Q 45.0625 54.296875 48.78125 52.59375 
z
" id="DejaVuSans-99"/>
      <path d="M 9.421875 54.6875 
L 18.40625 54.6875 
L 18.40625 0 
L 9.421875 0 
z
M 9.421875 75.984375 
L 18.40625 75.984375 
L 18.40625 64.59375 
L 9.421875 64.59375 
z
" id="DejaVuSans-105"/>
      <path d="M 18.3125 70.21875 
L 18.3125 54.6875 
L 36.8125 54.6875 
L 36.8125 47.703125 
L 18.3125 47.703125 
L 18.3125 18.015625 
Q 18.3125 11.328125 20.140625 9.421875 
Q 21.96875 7.515625 27.59375 7.515625 
L 36.8125 7.515625 
L 36.8125 0 
L 27.59375 0 
Q 17.1875 0 13.234375 3.875 
Q 9.28125 7.765625 9.28125 18.015625 
L 9.28125 47.703125 
L 2.6875 47.703125 
L 2.6875 54.6875 
L 9.28125 54.6875 
L 9.28125 70.21875 
z
" id="DejaVuSans-116"/>
      <path d="M 34.28125 27.484375 
Q 23.390625 27.484375 19.1875 25 
Q 14.984375 22.515625 14.984375 16.5 
Q 14.984375 11.71875 18.140625 8.90625 
Q 21.296875 6.109375 26.703125 6.109375 
Q 34.1875 6.109375 38.703125 11.40625 
Q 43.21875 16.703125 43.21875 25.484375 
L 43.21875 27.484375 
z
M 52.203125 31.203125 
L 52.203125 0 
L 43.21875 0 
L 43.21875 8.296875 
Q 40.140625 3.328125 35.546875 0.953125 
Q 30.953125 -1.421875 24.3125 -1.421875 
Q 15.921875 -1.421875 10.953125 3.296875 
Q 6 8.015625 6 15.921875 
Q 6 25.140625 12.171875 29.828125 
Q 18.359375 34.515625 30.609375 34.515625 
L 43.21875 34.515625 
L 43.21875 35.40625 
Q 43.21875 41.609375 39.140625 45 
Q 35.0625 48.390625 27.6875 48.390625 
Q 23 48.390625 18.546875 47.265625 
Q 14.109375 46.140625 10.015625 43.890625 
L 10.015625 52.203125 
Q 14.9375 54.109375 19.578125 55.046875 
Q 24.21875 56 28.609375 56 
Q 40.484375 56 46.34375 49.84375 
Q 52.203125 43.703125 52.203125 31.203125 
z
" id="DejaVuSans-97"/>
      <path d="M 54.890625 33.015625 
L 54.890625 0 
L 45.90625 0 
L 45.90625 32.71875 
Q 45.90625 40.484375 42.875 44.328125 
Q 39.84375 48.1875 33.796875 48.1875 
Q 26.515625 48.1875 22.3125 43.546875 
Q 18.109375 38.921875 18.109375 30.90625 
L 18.109375 0 
L 9.078125 0 
L 9.078125 54.6875 
L 18.109375 54.6875 
L 18.109375 46.1875 
Q 21.34375 51.125 25.703125 53.5625 
Q 30.078125 56 35.796875 56 
Q 45.21875 56 50.046875 50.171875 
Q 54.890625 44.34375 54.890625 33.015625 
z
" id="DejaVuSans-110"/>
      <path id="DejaVuSans-32"/>
      <path d="M 8.59375 75.984375 
L 29.296875 75.984375 
L 29.296875 69 
L 17.578125 69 
L 17.578125 -6.203125 
L 29.296875 -6.203125 
L 29.296875 -13.1875 
L 8.59375 -13.1875 
z
" id="DejaVuSans-91"/>
      <path d="M 52 44.1875 
Q 55.375 50.25 60.0625 53.125 
Q 64.75 56 71.09375 56 
Q 79.640625 56 84.28125 50.015625 
Q 88.921875 44.046875 88.921875 33.015625 
L 88.921875 0 
L 79.890625 0 
L 79.890625 32.71875 
Q 79.890625 40.578125 77.09375 44.375 
Q 74.3125 48.1875 68.609375 48.1875 
Q 61.625 48.1875 57.5625 43.546875 
Q 53.515625 38.921875 53.515625 30.90625 
L 53.515625 0 
L 44.484375 0 
L 44.484375 32.71875 
Q 44.484375 40.625 41.703125 44.40625 
Q 38.921875 48.1875 33.109375 48.1875 
Q 26.21875 48.1875 22.15625 43.53125 
Q 18.109375 38.875 18.109375 30.90625 
L 18.109375 0 
L 9.078125 0 
L 9.078125 54.6875 
L 18.109375 54.6875 
L 18.109375 46.1875 
Q 21.1875 51.21875 25.484375 53.609375 
Q 29.78125 56 35.6875 56 
Q 41.65625 56 45.828125 52.96875 
Q 50 49.953125 52 44.1875 
z
" id="DejaVuSans-109"/>
      <path d="M 25.390625 72.90625 
L 33.6875 72.90625 
L 8.296875 -9.28125 
L 0 -9.28125 
z
" id="DejaVuSans-47"/>
      <path d="M 30.421875 75.984375 
L 30.421875 -13.1875 
L 9.71875 -13.1875 
L 9.71875 -6.203125 
L 21.390625 -6.203125 
L 21.390625 69 
L 9.71875 69 
L 9.71875 75.984375 
z
" id="DejaVuSans-93"/>
     </defs>
     <g transform="translate(14.798438 150.335781)rotate(-90)scale(0.1 -0.1)">
      <use xlink:href="#DejaVuSans-112"/>
      <use x="63.476562" xlink:href="#DejaVuSans-114"/>
      <use x="104.558594" xlink:href="#DejaVuSans-101"/>
      <use x="166.082031" xlink:href="#DejaVuSans-99"/>
      <use x="221.0625" xlink:href="#DejaVuSans-105"/>
      <use x="248.845703" xlink:href="#DejaVuSans-112"/>
      <use x="312.322266" xlink:href="#DejaVuSans-105"/>
      <use x="340.105469" xlink:href="#DejaVuSans-116"/>
      <use x="379.314453" xlink:href="#DejaVuSans-97"/>
      <use x="440.59375" xlink:href="#DejaVuSans-116"/>
      <use x="479.802734" xlink:href="#DejaVuSans-105"/>
      <use x="507.585938" xlink:href="#DejaVuSans-111"/>
      <use x="568.767578" xlink:href="#DejaVuSans-110"/>
      <use x="632.146484" xlink:href="#DejaVuSans-32"/>
      <use x="663.933594" xlink:href="#DejaVuSans-91"/>
      <use x="702.947266" xlink:href="#DejaVuSans-109"/>
      <use x="800.359375" xlink:href="#DejaVuSans-109"/>
      <use x="897.771484" xlink:href="#DejaVuSans-47"/>
      <use x="931.462891" xlink:href="#DejaVuSans-104"/>
      <use x="994.841797" xlink:href="#DejaVuSans-111"/>
      <use x="1056.023438" xlink:href="#DejaVuSans-117"/>
      <use x="1119.402344" xlink:href="#DejaVuSans-114"/>
      <use x="1160.515625" xlink:href="#DejaVuSans-93"/>
     </g>
    </g>
   </g>
   <g id="line2d_12">
    <path clip-path="url(#p61f634f9ce)" d="M 51.99517 131.401015 
L 67.433906 165.172431 
L 82.872641 165.499338 
L 98.311376 165.711305 
L 113.750111 162.949365 
L 129.188846 162.943495 
L 144.627582 165.640402 
L 160.066317 157.722042 
L 175.505052 162.481244 
L 190.943787 158.425128 
L 206.382522 165.679098 
L 221.821257 165.912986 
L 237.259993 165.051539 
L 252.698728 164.003913 
L 268.137463 162.327259 
L 283.576198 158.498476 
L 299.014933 155.1736 
L 314.453668 153.852971 
L 329.892404 154.381071 
L 345.331139 156.861778 
L 360.769874 62.821217 
L 376.208609 112.423397 
L 391.647344 155.560864 
L 407.08608 163.018604 
" style="fill:none;stroke:#1b9e77;stroke-linecap:square;stroke-opacity:0.5;stroke-width:1.5;"/>
   </g>
   <g id="line2d_13">
    <path clip-path="url(#p61f634f9ce)" d="M 51.99517 151.662065 
L 67.433906 155.116427 
L 82.872641 160.598294 
L 98.311376 158.004205 
L 113.750111 128.325939 
L 129.188846 87.578053 
L 144.627582 120.393049 
L 160.066317 159.646046 
L 175.505052 164.502599 
L 190.943787 165.444058 
L 206.382522 165.748816 
L 221.821257 165.737002 
L 237.259993 165.845021 
L 252.698728 165.91705 
L 268.137463 165.934458 
L 283.576198 165.942613 
L 299.014933 165.941618 
L 314.453668 165.95365 
L 329.892404 165.769278 
L 345.331139 165.442199 
L 360.769874 151.408445 
L 376.208609 144.805247 
L 391.647344 132.780939 
L 407.08608 155.015473 
" style="fill:none;stroke:#1b9e77;stroke-linecap:square;stroke-opacity:0.5;stroke-width:1.5;"/>
   </g>
   <g id="line2d_14">
    <path clip-path="url(#p61f634f9ce)" d="M 51.99517 162.066591 
L 67.433906 158.557196 
L 82.872641 165.019637 
L 98.311376 165.282908 
L 113.750111 165.137547 
L 129.188846 162.828346 
L 144.627582 159.881845 
L 160.066317 158.262147 
L 175.505052 165.273893 
L 190.943787 165.537153 
L 206.382522 164.619357 
L 221.821257 161.230954 
L 237.259993 157.013464 
L 252.698728 154.349146 
L 268.137463 146.179058 
L 283.576198 137.002571 
L 299.014933 158.571809 
L 314.453668 139.698694 
L 329.892404 79.883267 
L 345.331139 133.357078 
L 360.769874 154.613868 
L 376.208609 153.262011 
L 391.647344 160.174678 
L 407.08608 165.70932 
" style="fill:none;stroke:#1b9e77;stroke-linecap:square;stroke-opacity:0.5;stroke-width:1.5;"/>
   </g>
   <g id="line2d_15">
    <path clip-path="url(#p61f634f9ce)" d="M 51.99517 152.231667 
L 67.433906 143.3167 
L 82.872641 136.447335 
L 98.311376 119.354919 
L 113.750111 132.319428 
L 129.188846 156.443999 
L 144.627582 164.450302 
L 160.066317 164.947018 
L 175.505052 165.230032 
L 190.943787 165.25153 
L 206.382522 165.424267 
L 221.821257 165.646894 
L 237.259993 165.810239 
L 252.698728 165.906849 
L 268.137463 165.90609 
L 283.576198 164.504326 
L 299.014933 124.251566 
L 314.453668 159.296434 
L 329.892404 156.135639 
L 345.331139 149.977854 
L 360.769874 156.017509 
L 376.208609 152.65841 
L 391.647344 142.167251 
L 407.08608 159.816283 
" style="fill:none;stroke:#1b9e77;stroke-linecap:square;stroke-opacity:0.5;stroke-width:1.5;"/>
   </g>
   <g id="line2d_16">
    <path clip-path="url(#p61f634f9ce)" d="M 51.99517 152.946087 
L 67.433906 152.721561 
L 82.872641 154.732185 
L 98.311376 163.502861 
L 113.750111 143.988661 
L 129.188846 164.761806 
L 144.627582 165.845309 
L 160.066317 165.697358 
L 175.505052 163.790817 
L 190.943787 160.018001 
L 206.382522 165.365233 
L 221.821257 165.905117 
L 237.259993 165.910685 
L 252.698728 162.736605 
L 268.137463 156.388542 
L 283.576198 158.217225 
L 299.014933 150.714731 
L 314.453668 145.966256 
L 329.892404 145.583827 
L 345.331139 142.704071 
L 360.769874 107.124683 
L 376.208609 128.833964 
L 391.647344 149.168659 
L 407.08608 160.888293 
" style="fill:none;stroke:#1b9e77;stroke-linecap:square;stroke-opacity:0.5;stroke-width:1.5;"/>
   </g>
   <g id="line2d_17">
    <path clip-path="url(#p61f634f9ce)" d="M 51.99517 165.939747 
L 67.433906 165.703506 
L 82.872641 165.389925 
L 98.311376 165.592892 
L 113.750111 165.236757 
L 129.188846 165.570555 
L 144.627582 165.217381 
L 160.066317 162.823365 
L 175.505052 161.508109 
L 190.943787 161.071887 
L 206.382522 159.259653 
L 221.821257 157.801403 
L 237.259993 158.84235 
L 252.698728 153.569628 
L 268.137463 139.135463 
L 283.576198 152.096371 
L 299.014933 69.203959 
L 314.453668 76.396365 
L 329.892404 154.69079 
L 345.331139 165.299685 
L 360.769874 165.727408 
L 376.208609 165.722471 
L 391.647344 165.786156 
L 407.08608 165.926713 
" style="fill:none;stroke:#1b9e77;stroke-linecap:square;stroke-opacity:0.5;stroke-width:1.5;"/>
   </g>
   <g id="line2d_18">
    <path clip-path="url(#p61f634f9ce)" d="M 51.99517 162.519049 
L 67.433906 129.269778 
L 82.872641 88.849884 
L 98.311376 130.675868 
L 113.750111 154.563395 
L 129.188846 137.755547 
L 144.627582 139.457543 
L 160.066317 155.585279 
L 175.505052 164.215187 
L 190.943787 164.749618 
L 206.382522 164.536221 
L 221.821257 161.092246 
L 237.259993 162.189104 
L 252.698728 164.678919 
L 268.137463 164.78478 
L 283.576198 163.433766 
L 299.014933 161.140348 
L 314.453668 161.804861 
L 329.892404 164.243494 
L 345.331139 165.173747 
L 360.769874 158.481649 
L 376.208609 150.773626 
L 391.647344 160.361933 
L 407.08608 163.176709 
" style="fill:none;stroke:#1b9e77;stroke-linecap:square;stroke-opacity:0.5;stroke-width:1.5;"/>
   </g>
   <g id="line2d_19">
    <path clip-path="url(#p61f634f9ce)" d="M 51.99517 131.173192 
L 67.433906 144.776661 
L 82.872641 156.493454 
L 98.311376 146.513189 
L 113.750111 150.691308 
L 129.188846 163.146625 
L 144.627582 164.608472 
L 160.066317 162.79196 
L 175.505052 163.989677 
L 190.943787 164.74789 
L 206.382522 165.380453 
L 221.821257 165.474524 
L 237.259993 165.456964 
L 252.698728 165.066259 
L 268.137463 165.52525 
L 283.576198 165.679605 
L 299.014933 164.937311 
L 314.453668 163.310229 
L 329.892404 163.09005 
L 345.331139 164.32189 
L 360.769874 163.077749 
L 376.208609 137.487791 
L 391.647344 97.44039 
L 407.08608 98.331649 
" style="fill:none;stroke:#1b9e77;stroke-linecap:square;stroke-opacity:0.5;stroke-width:1.5;"/>
   </g>
   <g id="line2d_20">
    <path clip-path="url(#p61f634f9ce)" d="M 51.99517 156.688071 
L 67.433906 164.359095 
L 82.872641 164.518064 
L 98.311376 163.155199 
L 113.750111 159.844894 
L 129.188846 156.615133 
L 144.627582 152.817731 
L 160.066317 155.386407 
L 175.505052 158.777947 
L 190.943787 150.895716 
L 206.382522 104.518931 
L 221.821257 34.305768 
L 237.259993 150.86232 
L 252.698728 162.609059 
L 268.137463 165.504149 
L 283.576198 165.627802 
L 299.014933 165.777353 
L 314.453668 165.82022 
L 329.892404 165.852804 
L 345.331139 165.869684 
L 360.769874 165.889643 
L 376.208609 165.920285 
L 391.647344 165.937367 
L 407.08608 165.958896 
" style="fill:none;stroke:#1b9e77;stroke-linecap:square;stroke-opacity:0.5;stroke-width:1.5;"/>
   </g>
   <g id="line2d_21">
    <path clip-path="url(#p61f634f9ce)" d="M 51.99517 150.676048 
L 67.433906 160.142203 
L 82.872641 164.70543 
L 98.311376 164.808855 
L 113.750111 165.177132 
L 129.188846 165.056976 
L 144.627582 165.218443 
L 160.066317 165.596154 
L 175.505052 165.752173 
L 190.943787 165.76569 
L 206.382522 165.740824 
L 221.821257 164.25674 
L 237.259993 165.447708 
L 252.698728 165.912325 
L 268.137463 165.809411 
L 283.576198 157.172785 
L 299.014933 157.124988 
L 314.453668 155.187305 
L 329.892404 144.3662 
L 345.331139 147.88934 
L 360.769874 151.780895 
L 376.208609 131.793631 
L 391.647344 92.472449 
L 407.08608 95.658838 
" style="fill:none;stroke:#1b9e77;stroke-linecap:square;stroke-opacity:0.5;stroke-width:1.5;"/>
   </g>
   <g id="line2d_22">
    <path clip-path="url(#p61f634f9ce)" d="M 51.99517 163.383843 
L 67.433906 165.682213 
L 82.872641 165.76064 
L 98.311376 160.713684 
L 113.750111 165.322934 
L 129.188846 165.405763 
L 144.627582 165.450715 
L 160.066317 165.673917 
L 175.505052 165.589265 
L 190.943787 164.926228 
L 206.382522 164.25806 
L 221.821257 163.774776 
L 237.259993 162.865403 
L 252.698728 161.874646 
L 268.137463 160.016569 
L 283.576198 158.423929 
L 299.014933 157.370743 
L 314.453668 152.425235 
L 329.892404 142.453121 
L 345.331139 152.752551 
L 360.769874 123.373644 
L 376.208609 48.881536 
L 391.647344 142.838198 
L 407.08608 154.294928 
" style="fill:none;stroke:#1b9e77;stroke-linecap:square;stroke-opacity:0.5;stroke-width:1.5;"/>
   </g>
   <g id="line2d_23">
    <path clip-path="url(#p61f634f9ce)" d="M 51.99517 145.033131 
L 67.433906 146.663104 
L 82.872641 158.739776 
L 98.311376 160.660831 
L 113.750111 152.916824 
L 129.188846 156.021915 
L 144.627582 161.447227 
L 160.066317 163.353746 
L 175.505052 155.783571 
L 190.943787 147.159464 
L 206.382522 144.669414 
L 221.821257 74.839645 
L 237.259993 162.226004 
L 252.698728 122.828857 
L 268.137463 154.432738 
L 283.576198 164.738121 
L 299.014933 165.101849 
L 314.453668 164.577334 
L 329.892404 164.797183 
L 345.331139 165.08556 
L 360.769874 165.367757 
L 376.208609 165.490065 
L 391.647344 165.663879 
L 407.08608 165.914543 
" style="fill:none;stroke:#1b9e77;stroke-linecap:square;stroke-opacity:0.5;stroke-width:1.5;"/>
   </g>
   <g id="line2d_24">
    <path clip-path="url(#p61f634f9ce)" d="M 51.99517 157.782177 
L 67.433906 125.894843 
L 82.872641 127.806061 
L 98.311376 147.456539 
L 113.750111 153.344914 
L 129.188846 152.618966 
L 144.627582 151.019545 
L 160.066317 160.376752 
L 175.505052 156.866477 
L 190.943787 144.151495 
L 206.382522 162.140875 
L 221.821257 156.006808 
L 237.259993 163.016286 
L 252.698728 153.165374 
L 268.137463 126.839548 
L 283.576198 164.449866 
L 299.014933 164.961963 
L 314.453668 159.210642 
L 329.892404 142.562321 
L 345.331139 161.320026 
L 360.769874 165.130155 
L 376.208609 165.66919 
L 391.647344 165.797522 
L 407.08608 165.924202 
" style="fill:none;stroke:#1b9e77;stroke-linecap:square;stroke-opacity:0.5;stroke-width:1.5;"/>
   </g>
   <g id="line2d_25">
    <path clip-path="url(#p61f634f9ce)" d="M 51.99517 157.291226 
L 67.433906 162.93093 
L 82.872641 165.541789 
L 98.311376 165.682349 
L 113.750111 165.723972 
L 129.188846 164.990055 
L 144.627582 122.630826 
L 160.066317 165.561164 
L 175.505052 165.006743 
L 190.943787 154.409212 
L 206.382522 159.524778 
L 221.821257 59.089409 
L 237.259993 91.967505 
L 252.698728 150.919272 
L 268.137463 163.190188 
L 283.576198 161.279028 
L 299.014933 163.098624 
L 314.453668 164.416746 
L 329.892404 164.960755 
L 345.331139 164.393197 
L 360.769874 164.219336 
L 376.208609 165.148667 
L 391.647344 165.624519 
L 407.08608 165.912248 
" style="fill:none;stroke:#1b9e77;stroke-linecap:square;stroke-opacity:0.5;stroke-width:1.5;"/>
   </g>
   <g id="line2d_26">
    <path clip-path="url(#p61f634f9ce)" d="M 51.99517 165.093556 
L 67.433906 163.857998 
L 82.872641 162.31204 
L 98.311376 154.606316 
L 113.750111 138.440442 
L 129.188846 124.825754 
L 144.627582 118.244656 
L 160.066317 78.156891 
L 175.505052 131.065756 
L 190.943787 157.63639 
L 206.382522 164.083438 
L 221.821257 162.401298 
L 237.259993 163.833096 
L 252.698728 165.280725 
L 268.137463 165.685593 
L 283.576198 165.664978 
L 299.014933 165.688871 
L 314.453668 165.739854 
L 329.892404 165.524601 
L 345.331139 165.654882 
L 360.769874 164.947466 
L 376.208609 159.290971 
L 391.647344 161.233512 
L 407.08608 164.243459 
" style="fill:none;stroke:#1b9e77;stroke-linecap:square;stroke-opacity:0.5;stroke-width:1.5;"/>
   </g>
   <g id="line2d_27">
    <path clip-path="url(#p61f634f9ce)" d="M 51.99517 165.21512 
L 67.433906 152.249381 
L 82.872641 139.619795 
L 98.311376 150.882931 
L 113.750111 157.852399 
L 129.188846 146.824186 
L 144.627582 158.567639 
L 160.066317 162.488603 
L 175.505052 94.345956 
L 190.943787 151.389804 
L 206.382522 143.556991 
L 221.821257 157.11307 
L 237.259993 164.6788 
L 252.698728 163.917303 
L 268.137463 165.735316 
L 283.576198 165.291135 
L 299.014933 164.760871 
L 314.453668 164.318728 
L 329.892404 161.836473 
L 345.331139 157.931353 
L 360.769874 156.106557 
L 376.208609 150.699225 
L 391.647344 139.454053 
L 407.08608 158.676848 
" style="fill:none;stroke:#1b9e77;stroke-linecap:square;stroke-opacity:0.5;stroke-width:1.5;"/>
   </g>
   <g id="line2d_28">
    <path clip-path="url(#p61f634f9ce)" d="M 51.99517 164.854607 
L 67.433906 164.840268 
L 82.872641 165.597651 
L 98.311376 165.719535 
L 113.750111 165.784622 
L 129.188846 165.18276 
L 144.627582 162.105936 
L 160.066317 162.026333 
L 175.505052 160.718203 
L 190.943787 163.921956 
L 206.382522 164.052969 
L 221.821257 158.80496 
L 237.259993 125.273086 
L 252.698728 160.033361 
L 268.137463 157.731453 
L 283.576198 153.966535 
L 299.014933 164.182346 
L 314.453668 126.891668 
L 329.892404 107.001519 
L 345.331139 111.533687 
L 360.769874 160.248655 
L 376.208609 159.848189 
L 391.647344 137.28505 
L 407.08608 165.907195 
" style="fill:none;stroke:#1b9e77;stroke-linecap:square;stroke-opacity:0.5;stroke-width:1.5;"/>
   </g>
   <g id="line2d_29">
    <path clip-path="url(#p61f634f9ce)" d="M 51.99517 149.892613 
L 67.433906 140.039825 
L 82.872641 137.399911 
L 98.311376 147.674699 
L 113.750111 157.75078 
L 129.188846 160.307539 
L 144.627582 157.835841 
L 160.066317 151.997153 
L 175.505052 122.587624 
L 190.943787 137.303692 
L 206.382522 154.484769 
L 221.821257 156.59903 
L 237.259993 155.652301 
L 252.698728 144.884953 
L 268.137463 155.576766 
L 283.576198 156.026035 
L 299.014933 160.719608 
L 314.453668 162.20857 
L 329.892404 162.936969 
L 345.331139 163.673149 
L 360.769874 164.435653 
L 376.208609 164.254735 
L 391.647344 164.316423 
L 407.08608 164.9539 
" style="fill:none;stroke:#1b9e77;stroke-linecap:square;stroke-opacity:0.5;stroke-width:1.5;"/>
   </g>
   <g id="line2d_30">
    <path clip-path="url(#p61f634f9ce)" d="M 51.99517 112.813199 
L 67.433906 160.925195 
L 82.872641 164.582544 
L 98.311376 164.252488 
L 113.750111 165.363485 
L 129.188846 158.493518 
L 144.627582 149.232281 
L 160.066317 145.008289 
L 175.505052 159.839369 
L 190.943787 159.84105 
L 206.382522 165.413246 
L 221.821257 165.82397 
L 237.259993 165.320483 
L 252.698728 156.382841 
L 268.137463 161.310269 
L 283.576198 132.425486 
L 299.014933 93.860539 
L 314.453668 143.476993 
L 329.892404 152.828899 
L 345.331139 159.636045 
L 360.769874 159.074161 
L 376.208609 165.761456 
L 391.647344 165.897324 
L 407.08608 165.949415 
" style="fill:none;stroke:#1b9e77;stroke-linecap:square;stroke-opacity:0.5;stroke-width:1.5;"/>
   </g>
   <g id="line2d_31">
    <path clip-path="url(#p61f634f9ce)" d="M 51.99517 164.782021 
L 67.433906 165.41053 
L 82.872641 164.949343 
L 98.311376 161.475801 
L 113.750111 144.046381 
L 129.188846 160.226729 
L 144.627582 158.966035 
L 160.066317 158.462526 
L 175.505052 159.469507 
L 190.943787 138.360796 
L 206.382522 118.314122 
L 221.821257 121.433078 
L 237.259993 162.792093 
L 252.698728 58.976781 
L 268.137463 165.655855 
L 283.576198 165.831531 
L 299.014933 165.880262 
L 314.453668 165.816389 
L 329.892404 165.748433 
L 345.331139 165.8508 
L 360.769874 165.892786 
L 376.208609 165.924846 
L 391.647344 165.840624 
L 407.08608 163.405274 
" style="fill:none;stroke:#1b9e77;stroke-linecap:square;stroke-opacity:0.5;stroke-width:1.5;"/>
   </g>
   <g id="line2d_32">
    <path clip-path="url(#p61f634f9ce)" d="M 51.99517 165.926566 
L 67.433906 165.864787 
L 82.872641 165.891995 
L 98.311376 164.660986 
L 113.750111 162.974354 
L 129.188846 161.695653 
L 144.627582 159.86069 
L 160.066317 160.050348 
L 175.505052 160.81696 
L 190.943787 159.528472 
L 206.382522 155.43392 
L 221.821257 151.387542 
L 237.259993 152.663921 
L 252.698728 140.881522 
L 268.137463 134.610159 
L 283.576198 80.848851 
L 299.014933 106.480918 
L 314.453668 154.870571 
L 329.892404 163.044508 
L 345.331139 164.15903 
L 360.769874 165.032943 
L 376.208609 165.325723 
L 391.647344 165.597488 
L 407.08608 165.904633 
" style="fill:none;stroke:#1b9e77;stroke-linecap:square;stroke-opacity:0.5;stroke-width:1.5;"/>
   </g>
   <g id="line2d_33">
    <path clip-path="url(#p61f634f9ce)" d="M 51.99517 162.313341 
L 67.433906 157.178046 
L 82.872641 164.444628 
L 98.311376 165.331922 
L 113.750111 165.547046 
L 129.188846 165.549513 
L 144.627582 158.733346 
L 160.066317 140.984859 
L 175.505052 134.314729 
L 190.943787 135.56204 
L 206.382522 139.676056 
L 221.821257 138.415701 
L 237.259993 141.192881 
L 252.698728 139.195851 
L 268.137463 159.904671 
L 283.576198 162.344631 
L 299.014933 163.976983 
L 314.453668 165.383803 
L 329.892404 165.57825 
L 345.331139 165.117724 
L 360.769874 139.712105 
L 376.208609 156.31633 
L 391.647344 145.784569 
L 407.08608 160.953513 
" style="fill:none;stroke:#1b9e77;stroke-linecap:square;stroke-opacity:0.5;stroke-width:1.5;"/>
   </g>
   <g id="line2d_34">
    <path clip-path="url(#p61f634f9ce)" d="M 51.99517 164.814266 
L 67.433906 151.266864 
L 82.872641 90.215326 
L 98.311376 107.31164 
L 113.750111 142.127924 
L 129.188846 153.22624 
L 144.627582 138.401493 
L 160.066317 133.328749 
L 175.505052 154.939706 
L 190.943787 156.891022 
L 206.382522 159.134805 
L 221.821257 160.821413 
L 237.259993 164.909713 
L 252.698728 165.402617 
L 268.137463 165.688885 
L 283.576198 165.580493 
L 299.014933 165.656586 
L 314.453668 165.841191 
L 329.892404 165.839453 
L 345.331139 165.474545 
L 360.769874 163.479838 
L 376.208609 164.372607 
L 391.647344 163.639411 
L 407.08608 165.14775 
" style="fill:none;stroke:#1b9e77;stroke-linecap:square;stroke-opacity:0.5;stroke-width:1.5;"/>
   </g>
   <g id="line2d_35">
    <path clip-path="url(#p61f634f9ce)" d="M 51.99517 161.71403 
L 67.433906 140.756083 
L 82.872641 139.435584 
L 98.311376 110.629506 
L 113.750111 67.522495 
L 129.188846 134.805245 
L 144.627582 163.245031 
L 160.066317 163.993973 
L 175.505052 165.139086 
L 190.943787 165.24197 
L 206.382522 165.341335 
L 221.821257 165.311669 
L 237.259993 165.03785 
L 252.698728 164.30337 
L 268.137463 161.236115 
L 283.576198 162.262193 
L 299.014933 161.298871 
L 314.453668 157.989233 
L 329.892404 160.304519 
L 345.331139 161.862045 
L 360.769874 164.473688 
L 376.208609 165.454517 
L 391.647344 164.981414 
L 407.08608 161.172723 
" style="fill:none;stroke:#1b9e77;stroke-linecap:square;stroke-opacity:0.5;stroke-width:1.5;"/>
   </g>
   <g id="line2d_36">
    <path clip-path="url(#p61f634f9ce)" d="M 51.99517 165.955046 
L 67.433906 165.941646 
L 82.872641 165.948991 
L 98.311376 165.921491 
L 113.750111 165.894475 
L 129.188846 165.892818 
L 144.627582 165.907578 
L 160.066317 165.955918 
L 175.505052 165.957684 
L 190.943787 164.119981 
L 206.382522 165.093753 
L 221.821257 162.448213 
L 237.259993 153.369906 
L 252.698728 148.830226 
L 268.137463 158.430609 
L 283.576198 159.777104 
L 299.014933 147.390654 
L 314.453668 100.372861 
L 329.892404 91.979754 
L 345.331139 134.301928 
L 360.769874 139.503674 
L 376.208609 147.656235 
L 391.647344 161.279332 
L 407.08608 165.58267 
" style="fill:none;stroke:#1b9e77;stroke-linecap:square;stroke-opacity:0.5;stroke-width:1.5;"/>
   </g>
   <g id="line2d_37">
    <path clip-path="url(#p61f634f9ce)" d="M 51.99517 165.959015 
L 67.433906 165.949095 
L 82.872641 165.949394 
L 98.311376 165.959 
L 113.750111 164.870961 
L 129.188846 162.883959 
L 144.627582 162.091249 
L 160.066317 161.324499 
L 175.505052 160.760593 
L 190.943787 157.951876 
L 206.382522 155.989494 
L 221.821257 153.48445 
L 237.259993 65.838138 
L 252.698728 101.074365 
L 268.137463 134.044621 
L 283.576198 137.220897 
L 299.014933 157.119482 
L 314.453668 164.224211 
L 329.892404 165.196895 
L 345.331139 164.404993 
L 360.769874 164.326679 
L 376.208609 165.303407 
L 391.647344 165.661271 
L 407.08608 165.923992 
" style="fill:none;stroke:#1b9e77;stroke-linecap:square;stroke-opacity:0.5;stroke-width:1.5;"/>
   </g>
   <g id="line2d_38">
    <path clip-path="url(#p61f634f9ce)" d="M 51.99517 162.624669 
L 67.433906 159.803907 
L 82.872641 162.591916 
L 98.311376 162.961225 
L 113.750111 164.176101 
L 129.188846 164.638227 
L 144.627582 164.54948 
L 160.066317 163.374063 
L 175.505052 163.232933 
L 190.943787 164.566369 
L 206.382522 165.090017 
L 221.821257 164.789891 
L 237.259993 162.281475 
L 252.698728 162.742136 
L 268.137463 159.948731 
L 283.576198 156.483579 
L 299.014933 136.954624 
L 314.453668 146.464336 
L 329.892404 151.301426 
L 345.331139 150.459018 
L 360.769874 130.349806 
L 376.208609 122.785708 
L 391.647344 93.949343 
L 407.08608 157.393543 
" style="fill:none;stroke:#1b9e77;stroke-linecap:square;stroke-opacity:0.5;stroke-width:1.5;"/>
   </g>
   <g id="line2d_39">
    <path clip-path="url(#p61f634f9ce)" d="M 51.99517 154.846984 
L 67.433906 162.496702 
L 82.872641 165.435571 
L 98.311376 163.788647 
L 113.750111 160.01705 
L 129.188846 162.86438 
L 144.627582 156.657596 
L 160.066317 135.469268 
L 175.505052 136.397856 
L 190.943787 139.86533 
L 206.382522 133.327864 
L 221.821257 104.660361 
L 237.259993 151.488776 
L 252.698728 163.664287 
L 268.137463 164.98292 
L 283.576198 162.922052 
L 299.014933 163.395334 
L 314.453668 165.691843 
L 329.892404 164.533614 
L 345.331139 156.079202 
L 360.769874 155.558175 
L 376.208609 160.047429 
L 391.647344 146.165037 
L 407.08608 163.156264 
" style="fill:none;stroke:#1b9e77;stroke-linecap:square;stroke-opacity:0.5;stroke-width:1.5;"/>
   </g>
   <g id="line2d_40">
    <path clip-path="url(#p61f634f9ce)" d="M 51.99517 47.502171 
L 67.433906 127.092825 
L 82.872641 156.093558 
L 98.311376 153.937308 
L 113.750111 157.364583 
L 129.188846 162.344975 
L 144.627582 164.320548 
L 160.066317 164.69228 
L 175.505052 165.234957 
L 190.943787 165.206059 
L 206.382522 164.962559 
L 221.821257 165.218274 
L 237.259993 165.094443 
L 252.698728 162.780592 
L 268.137463 154.440306 
L 283.576198 158.269368 
L 299.014933 156.218921 
L 314.453668 152.753826 
L 329.892404 155.053433 
L 345.331139 157.263935 
L 360.769874 158.638176 
L 376.208609 159.250318 
L 391.647344 157.117516 
L 407.08608 162.661614 
" style="fill:none;stroke:#1b9e77;stroke-linecap:square;stroke-opacity:0.5;stroke-width:1.5;"/>
   </g>
   <g id="line2d_41">
    <path clip-path="url(#p61f634f9ce)" d="M 51.99517 163.370111 
L 67.433906 134.521952 
L 82.872641 89.751662 
L 98.311376 134.386653 
L 113.750111 152.990285 
L 129.188846 152.706572 
L 144.627582 149.124897 
L 160.066317 134.689015 
L 175.505052 158.38032 
L 190.943787 162.560871 
L 206.382522 160.441876 
L 221.821257 155.499118 
L 237.259993 158.265945 
L 252.698728 164.712996 
L 268.137463 164.189726 
L 283.576198 153.353607 
L 299.014933 164.891413 
L 314.453668 165.01247 
L 329.892404 164.650603 
L 345.331139 164.249723 
L 360.769874 164.180352 
L 376.208609 163.231818 
L 391.647344 160.646699 
L 407.08608 157.703858 
" style="fill:none;stroke:#1b9e77;stroke-linecap:square;stroke-opacity:0.5;stroke-width:1.5;"/>
   </g>
   <g id="line2d_42">
    <path clip-path="url(#p61f634f9ce)" d="M 51.99517 138.859163 
L 67.433906 63.009727 
L 82.872641 126.831202 
L 98.311376 135.134995 
L 113.750111 139.361637 
L 129.188846 151.104413 
L 144.627582 155.166101 
L 160.066317 157.791606 
L 175.505052 162.822866 
L 190.943787 164.906691 
L 206.382522 164.976695 
L 221.821257 161.369997 
L 237.259993 164.819461 
L 252.698728 165.196514 
L 268.137463 165.595907 
L 283.576198 165.511133 
L 299.014933 165.40111 
L 314.453668 165.362692 
L 329.892404 165.496604 
L 345.331139 165.655248 
L 360.769874 165.698861 
L 376.208609 165.663529 
L 391.647344 163.064959 
L 407.08608 154.711431 
" style="fill:none;stroke:#1b9e77;stroke-linecap:square;stroke-opacity:0.5;stroke-width:1.5;"/>
   </g>
   <g id="line2d_43">
    <path clip-path="url(#p61f634f9ce)" d="M 51.99517 165.836193 
L 67.433906 165.742458 
L 82.872641 165.824929 
L 98.311376 165.893732 
L 113.750111 165.907423 
L 129.188846 165.626201 
L 144.627582 165.259243 
L 160.066317 165.2544 
L 175.505052 164.268191 
L 190.943787 163.935262 
L 206.382522 163.301272 
L 221.821257 163.557625 
L 237.259993 161.801658 
L 252.698728 158.631355 
L 268.137463 134.357408 
L 283.576198 115.116614 
L 299.014933 156.213137 
L 314.453668 149.312618 
L 329.892404 119.70885 
L 345.331139 139.718987 
L 360.769874 145.552716 
L 376.208609 139.631181 
L 391.647344 135.623583 
L 407.08608 157.437509 
" style="fill:none;stroke:#1b9e77;stroke-linecap:square;stroke-opacity:0.5;stroke-width:1.5;"/>
   </g>
   <g id="line2d_44">
    <path clip-path="url(#p61f634f9ce)" d="M 51.99517 164.014496 
L 67.433906 139.327253 
L 82.872641 75.792331 
L 98.311376 86.158097 
L 113.750111 146.267806 
L 129.188846 146.668056 
L 144.627582 160.149905 
L 160.066317 164.51813 
L 175.505052 165.43091 
L 190.943787 165.382375 
L 206.382522 165.496928 
L 221.821257 165.501003 
L 237.259993 165.610636 
L 252.698728 165.655614 
L 268.137463 165.690771 
L 283.576198 165.58488 
L 299.014933 165.484828 
L 314.453668 165.757418 
L 329.892404 165.799441 
L 345.331139 164.157157 
L 360.769874 150.255342 
L 376.208609 152.156699 
L 391.647344 160.174559 
L 407.08608 162.477897 
" style="fill:none;stroke:#1b9e77;stroke-linecap:square;stroke-opacity:0.5;stroke-width:1.5;"/>
   </g>
   <g id="line2d_45">
    <path clip-path="url(#p61f634f9ce)" d="M 51.99517 165.879704 
L 67.433906 165.899454 
L 82.872641 163.852664 
L 98.311376 164.694874 
L 113.750111 160.347173 
L 129.188846 158.669643 
L 144.627582 158.798036 
L 160.066317 156.051304 
L 175.505052 154.987546 
L 190.943787 146.732228 
L 206.382522 132.755483 
L 221.821257 143.651012 
L 237.259993 148.56124 
L 252.698728 76.673367 
L 268.137463 128.845658 
L 283.576198 145.231855 
L 299.014933 161.781423 
L 314.453668 165.496108 
L 329.892404 165.520476 
L 345.331139 165.640171 
L 360.769874 165.766071 
L 376.208609 165.835968 
L 391.647344 165.888599 
L 407.08608 165.952483 
" style="fill:none;stroke:#1b9e77;stroke-linecap:square;stroke-opacity:0.5;stroke-width:1.5;"/>
   </g>
   <g id="line2d_46">
    <path clip-path="url(#p61f634f9ce)" d="M 51.99517 159.920961 
L 67.433906 160.872268 
L 82.872641 164.192968 
L 98.311376 164.272359 
L 113.750111 164.864678 
L 129.188846 165.586897 
L 144.627582 165.720665 
L 160.066317 165.773794 
L 175.505052 165.751999 
L 190.943787 164.6259 
L 206.382522 162.157287 
L 221.821257 160.043532 
L 237.259993 158.576255 
L 252.698728 158.962846 
L 268.137463 157.901562 
L 283.576198 154.901206 
L 299.014933 154.404966 
L 314.453668 150.49414 
L 329.892404 143.449017 
L 345.331139 135.755066 
L 360.769874 126.920602 
L 376.208609 117.992303 
L 391.647344 115.969008 
L 407.08608 154.402261 
" style="fill:none;stroke:#1b9e77;stroke-linecap:square;stroke-opacity:0.5;stroke-width:1.5;"/>
   </g>
   <g id="line2d_47">
    <path clip-path="url(#p61f634f9ce)" d="M 51.99517 158.08212 
L 67.433906 162.482066 
L 82.872641 165.143086 
L 98.311376 165.493057 
L 113.750111 165.518289 
L 129.188846 160.225209 
L 144.627582 120.276565 
L 160.066317 159.713555 
L 175.505052 161.135503 
L 190.943787 160.424197 
L 206.382522 151.489741 
L 221.821257 157.755701 
L 237.259993 51.004681 
L 252.698728 165.282405 
L 268.137463 165.851219 
L 283.576198 164.231035 
L 299.014933 162.236508 
L 314.453668 163.267261 
L 329.892404 164.373597 
L 345.331139 164.586686 
L 360.769874 156.498424 
L 376.208609 142.304649 
L 391.647344 147.840233 
L 407.08608 158.296745 
" style="fill:none;stroke:#1b9e77;stroke-linecap:square;stroke-opacity:0.5;stroke-width:1.5;"/>
   </g>
   <g id="line2d_48">
    <path clip-path="url(#p61f634f9ce)" d="M 51.99517 155.448394 
L 67.433906 158.07631 
L 82.872641 164.506051 
L 98.311376 164.81871 
L 113.750111 164.716102 
L 129.188846 163.118351 
L 144.627582 153.435192 
L 160.066317 158.664792 
L 175.505052 154.680297 
L 190.943787 141.623077 
L 206.382522 104.085528 
L 221.821257 111.571312 
L 237.259993 157.052498 
L 252.698728 164.220843 
L 268.137463 165.29846 
L 283.576198 164.779422 
L 299.014933 164.657702 
L 314.453668 165.517593 
L 329.892404 165.752347 
L 345.331139 165.894081 
L 360.769874 163.653051 
L 376.208609 131.306111 
L 391.647344 134.395766 
L 407.08608 156.240552 
" style="fill:none;stroke:#1b9e77;stroke-linecap:square;stroke-opacity:0.5;stroke-width:1.5;"/>
   </g>
   <g id="line2d_49">
    <path clip-path="url(#p61f634f9ce)" d="M 51.99517 164.308175 
L 67.433906 162.183651 
L 82.872641 158.778558 
L 98.311376 32.36217 
L 113.750111 131.719484 
L 129.188846 153.838769 
L 144.627582 158.247506 
L 160.066317 158.463111 
L 175.505052 164.202502 
L 190.943787 164.856824 
L 206.382522 164.588751 
L 221.821257 164.214861 
L 237.259993 164.608498 
L 252.698728 164.977867 
L 268.137463 164.757467 
L 283.576198 163.456255 
L 299.014933 161.378896 
L 314.453668 164.819344 
L 329.892404 164.110075 
L 345.331139 153.033938 
L 360.769874 149.393766 
L 376.208609 154.646463 
L 391.647344 148.271957 
L 407.08608 162.293654 
" style="fill:none;stroke:#1b9e77;stroke-linecap:square;stroke-opacity:0.5;stroke-width:1.5;"/>
   </g>
   <g id="line2d_50">
    <path clip-path="url(#p61f634f9ce)" d="M 51.99517 165.41145 
L 67.433906 165.341853 
L 82.872641 165.482893 
L 98.311376 164.403236 
L 113.750111 164.112536 
L 129.188846 165.736427 
L 144.627582 165.832258 
L 160.066317 165.70647 
L 175.505052 160.523528 
L 190.943787 122.22581 
L 206.382522 120.703462 
L 221.821257 164.482694 
L 237.259993 164.242713 
L 252.698728 131.97464 
L 268.137463 87.924422 
L 283.576198 131.092496 
L 299.014933 153.456254 
L 314.453668 159.748124 
L 329.892404 161.646508 
L 345.331139 160.081306 
L 360.769874 160.487209 
L 376.208609 162.893551 
L 391.647344 164.317427 
L 407.08608 165.685269 
" style="fill:none;stroke:#1b9e77;stroke-linecap:square;stroke-opacity:0.5;stroke-width:1.5;"/>
   </g>
   <g id="line2d_51">
    <path clip-path="url(#p61f634f9ce)" d="M 51.99517 165.945228 
L 67.433906 165.887482 
L 82.872641 165.88903 
L 98.311376 165.895329 
L 113.750111 165.002822 
L 129.188846 165.491885 
L 144.627582 165.358522 
L 160.066317 162.715831 
L 175.505052 162.153616 
L 190.943787 162.367207 
L 206.382522 158.791606 
L 221.821257 153.091166 
L 237.259993 152.300719 
L 252.698728 135.165455 
L 268.137463 132.432029 
L 283.576198 116.835005 
L 299.014933 124.604109 
L 314.453668 149.294366 
L 329.892404 160.505654 
L 345.331139 155.661693 
L 360.769874 153.282109 
L 376.208609 150.23863 
L 391.647344 143.555091 
L 407.08608 161.047953 
" style="fill:none;stroke:#1b9e77;stroke-linecap:square;stroke-opacity:0.5;stroke-width:1.5;"/>
   </g>
   <g id="line2d_52">
    <path clip-path="url(#p61f634f9ce)" d="M 51.99517 160.781562 
L 67.433906 141.495709 
L 82.872641 148.298446 
L 98.311376 156.297316 
L 113.750111 161.605031 
L 129.188846 155.446313 
L 144.627582 153.952218 
L 160.066317 164.724495 
L 175.505052 165.763722 
L 190.943787 165.742322 
L 206.382522 165.700895 
L 221.821257 165.708834 
L 237.259993 165.750754 
L 252.698728 165.836065 
L 268.137463 162.288462 
L 283.576198 150.62307 
L 299.014933 156.021729 
L 314.453668 149.724581 
L 329.892404 129.000322 
L 345.331139 124.124796 
L 360.769874 134.480949 
L 376.208609 138.638896 
L 391.647344 150.611878 
L 407.08608 160.89418 
" style="fill:none;stroke:#1b9e77;stroke-linecap:square;stroke-opacity:0.5;stroke-width:1.5;"/>
   </g>
   <g id="line2d_53">
    <path clip-path="url(#p61f634f9ce)" d="M 51.99517 162.056832 
L 67.433906 153.049356 
L 82.872641 131.352608 
L 98.311376 151.977872 
L 113.750111 160.562573 
L 129.188846 137.697434 
L 144.627582 130.881871 
L 160.066317 157.94647 
L 175.505052 163.360178 
L 190.943787 163.426424 
L 206.382522 161.4946 
L 221.821257 159.958146 
L 237.259993 162.666731 
L 252.698728 164.807936 
L 268.137463 164.866801 
L 283.576198 156.738364 
L 299.014933 153.715627 
L 314.453668 155.048276 
L 329.892404 152.208296 
L 345.331139 154.402221 
L 360.769874 154.951259 
L 376.208609 151.253915 
L 391.647344 132.705959 
L 407.08608 156.382801 
" style="fill:none;stroke:#1b9e77;stroke-linecap:square;stroke-opacity:0.5;stroke-width:1.5;"/>
   </g>
   <g id="line2d_54">
    <path clip-path="url(#p61f634f9ce)" d="M 51.99517 148.941033 
L 67.433906 153.759498 
L 82.872641 161.167844 
L 98.311376 160.111661 
L 113.750111 152.668451 
L 129.188846 125.355343 
L 144.627582 150.214675 
L 160.066317 164.35111 
L 175.505052 164.563599 
L 190.943787 165.501547 
L 206.382522 163.375073 
L 221.821257 154.103158 
L 237.259993 157.47197 
L 252.698728 165.314511 
L 268.137463 165.097559 
L 283.576198 161.899815 
L 299.014933 129.691459 
L 314.453668 142.090564 
L 329.892404 164.238572 
L 345.331139 164.077709 
L 360.769874 156.609524 
L 376.208609 135.277473 
L 391.647344 133.511693 
L 407.08608 154.118709 
" style="fill:none;stroke:#1b9e77;stroke-linecap:square;stroke-opacity:0.5;stroke-width:1.5;"/>
   </g>
   <g id="line2d_55">
    <path clip-path="url(#p61f634f9ce)" d="M 51.99517 165.123822 
L 67.433906 153.460364 
L 82.872641 146.827735 
L 98.311376 131.481251 
L 113.750111 123.826114 
L 129.188846 141.389411 
L 144.627582 120.495983 
L 160.066317 96.598462 
L 175.505052 143.598468 
L 190.943787 164.154836 
L 206.382522 165.477529 
L 221.821257 164.989339 
L 237.259993 165.063037 
L 252.698728 165.657171 
L 268.137463 165.848173 
L 283.576198 165.85616 
L 299.014933 165.870175 
L 314.453668 165.867709 
L 329.892404 165.759878 
L 345.331139 165.912288 
L 360.769874 165.651941 
L 376.208609 160.444676 
L 391.647344 160.074272 
L 407.08608 164.083752 
" style="fill:none;stroke:#1b9e77;stroke-linecap:square;stroke-opacity:0.5;stroke-width:1.5;"/>
   </g>
   <g id="line2d_56">
    <path clip-path="url(#p61f634f9ce)" d="M 51.99517 162.259421 
L 67.433906 164.167177 
L 82.872641 165.273011 
L 98.311376 163.242817 
L 113.750111 161.025562 
L 129.188846 162.862671 
L 144.627582 165.613339 
L 160.066317 165.835466 
L 175.505052 165.849656 
L 190.943787 163.411922 
L 206.382522 154.165542 
L 221.821257 160.197871 
L 237.259993 156.365085 
L 252.698728 145.252653 
L 268.137463 134.358726 
L 283.576198 123.560667 
L 299.014933 117.842461 
L 314.453668 114.745846 
L 329.892404 132.894109 
L 345.331139 153.663381 
L 360.769874 163.518968 
L 376.208609 165.597591 
L 391.647344 165.864743 
L 407.08608 165.943857 
" style="fill:none;stroke:#1b9e77;stroke-linecap:square;stroke-opacity:0.5;stroke-width:1.5;"/>
   </g>
   <g id="line2d_57">
    <path clip-path="url(#p61f634f9ce)" d="M 51.99517 165.880401 
L 67.433906 163.04835 
L 82.872641 164.695514 
L 98.311376 163.996125 
L 113.750111 132.186684 
L 129.188846 165.218824 
L 144.627582 160.498115 
L 160.066317 158.730255 
L 175.505052 159.937683 
L 190.943787 158.554459 
L 206.382522 165.540934 
L 221.821257 152.631721 
L 237.259993 164.624048 
L 252.698728 161.605736 
L 268.137463 153.277442 
L 283.576198 165.271652 
L 299.014933 160.524773 
L 314.453668 119.108969 
L 329.892404 84.112132 
L 345.331139 154.41179 
L 360.769874 154.950003 
L 376.208609 147.14337 
L 391.647344 153.742155 
L 407.08608 163.821405 
" style="fill:none;stroke:#1b9e77;stroke-linecap:square;stroke-opacity:0.5;stroke-width:1.5;"/>
   </g>
   <g id="line2d_58">
    <path clip-path="url(#p61f634f9ce)" d="M 51.99517 156.442086 
L 67.433906 133.049907 
L 82.872641 158.237296 
L 98.311376 161.720779 
L 113.750111 162.953207 
L 129.188846 160.926043 
L 144.627582 157.845261 
L 160.066317 164.384916 
L 175.505052 163.910631 
L 190.943787 165.614958 
L 206.382522 161.262406 
L 221.821257 159.478608 
L 237.259993 158.756187 
L 252.698728 157.082738 
L 268.137463 152.807307 
L 283.576198 153.117471 
L 299.014933 156.14569 
L 314.453668 152.209169 
L 329.892404 134.854551 
L 345.331139 138.025247 
L 360.769874 144.68867 
L 376.208609 141.22017 
L 391.647344 141.131562 
L 407.08608 157.647678 
" style="fill:none;stroke:#1b9e77;stroke-linecap:square;stroke-opacity:0.5;stroke-width:1.5;"/>
   </g>
   <g id="line2d_59">
    <path clip-path="url(#p61f634f9ce)" d="M 51.99517 165.900772 
L 67.433906 165.706299 
L 82.872641 165.788985 
L 98.311376 162.889557 
L 113.750111 160.087107 
L 129.188846 155.519776 
L 144.627582 155.216684 
L 160.066317 150.009099 
L 175.505052 139.370839 
L 190.943787 152.698761 
L 206.382522 160.700867 
L 221.821257 132.617313 
L 237.259993 140.888008 
L 252.698728 165.872301 
L 268.137463 165.919498 
L 283.576198 165.852954 
L 299.014933 162.242684 
L 314.453668 140.502077 
L 329.892404 164.669302 
L 345.331139 165.780745 
L 360.769874 162.428872 
L 376.208609 131.247645 
L 391.647344 117.10141 
L 407.08608 144.500982 
" style="fill:none;stroke:#1b9e77;stroke-linecap:square;stroke-opacity:0.5;stroke-width:1.5;"/>
   </g>
   <g id="line2d_60">
    <path clip-path="url(#p61f634f9ce)" d="M 51.99517 161.758844 
L 67.433906 159.259265 
L 82.872641 165.048967 
L 98.311376 165.17396 
L 113.750111 165.292694 
L 129.188846 164.432317 
L 144.627582 164.593412 
L 160.066317 165.542821 
L 175.505052 165.695964 
L 190.943787 165.58989 
L 206.382522 165.489074 
L 221.821257 165.601729 
L 237.259993 165.605411 
L 252.698728 165.344422 
L 268.137463 162.109165 
L 283.576198 155.943388 
L 299.014933 146.522696 
L 314.453668 127.815898 
L 329.892404 82.559807 
L 345.331139 112.959928 
L 360.769874 126.84953 
L 376.208609 144.927283 
L 391.647344 163.580519 
L 407.08608 165.815545 
" style="fill:none;stroke:#1b9e77;stroke-linecap:square;stroke-opacity:0.5;stroke-width:1.5;"/>
   </g>
   <g id="line2d_61">
    <path clip-path="url(#p61f634f9ce)" d="M 51.99517 152.998711 
L 67.433906 114.428201 
L 82.872641 97.735551 
L 98.311376 107.664233 
L 113.750111 129.694774 
L 129.188846 132.916549 
L 144.627582 153.578686 
L 160.066317 160.3073 
L 175.505052 163.235547 
L 190.943787 163.861446 
L 206.382522 164.865433 
L 221.821257 164.913035 
L 237.259993 165.073788 
L 252.698728 165.016004 
L 268.137463 165.043719 
L 283.576198 165.387568 
L 299.014933 165.715179 
L 314.453668 165.832345 
L 329.892404 165.811139 
L 345.331139 165.716503 
L 360.769874 165.881441 
L 376.208609 165.931065 
L 391.647344 165.945066 
L 407.08608 165.959258 
" style="fill:none;stroke:#1b9e77;stroke-linecap:square;stroke-opacity:0.5;stroke-width:1.5;"/>
   </g>
   <g id="line2d_62">
    <path clip-path="url(#p61f634f9ce)" d="M 51.99517 165.912162 
L 67.433906 165.764606 
L 82.872641 165.593581 
L 98.311376 165.039042 
L 113.750111 159.409496 
L 129.188846 160.429229 
L 144.627582 157.342153 
L 160.066317 154.385864 
L 175.505052 149.805533 
L 190.943787 141.402555 
L 206.382522 132.962548 
L 221.821257 137.126862 
L 237.259993 147.570352 
L 252.698728 165.362584 
L 268.137463 164.171492 
L 283.576198 141.40388 
L 299.014933 150.608817 
L 314.453668 157.921945 
L 329.892404 154.583883 
L 345.331139 160.507671 
L 360.769874 151.679137 
L 376.208609 154.630221 
L 391.647344 142.678687 
L 407.08608 147.220234 
" style="fill:none;stroke:#1b9e77;stroke-linecap:square;stroke-opacity:0.5;stroke-width:1.5;"/>
   </g>
   <g id="line2d_63">
    <path clip-path="url(#p61f634f9ce)" d="M 51.99517 160.114312 
L 67.433906 147.88014 
L 82.872641 154.342761 
L 98.311376 154.266969 
L 113.750111 157.68396 
L 129.188846 162.418574 
L 144.627582 157.549551 
L 160.066317 139.923638 
L 175.505052 137.888745 
L 190.943787 132.149914 
L 206.382522 131.021941 
L 221.821257 151.480695 
L 237.259993 152.853123 
L 252.698728 127.896516 
L 268.137463 146.875181 
L 283.576198 160.579387 
L 299.014933 162.770125 
L 314.453668 164.147086 
L 329.892404 165.115518 
L 345.331139 165.18031 
L 360.769874 165.210411 
L 376.208609 165.204928 
L 391.647344 165.116752 
L 407.08608 165.842008 
" style="fill:none;stroke:#1b9e77;stroke-linecap:square;stroke-opacity:0.5;stroke-width:1.5;"/>
   </g>
   <g id="line2d_64">
    <path clip-path="url(#p61f634f9ce)" d="M 51.99517 162.914876 
L 67.433906 161.401812 
L 82.872641 163.957778 
L 98.311376 164.485906 
L 113.750111 164.606326 
L 129.188846 163.181826 
L 144.627582 154.014698 
L 160.066317 160.379702 
L 175.505052 164.55421 
L 190.943787 165.80418 
L 206.382522 165.883981 
L 221.821257 142.071801 
L 237.259993 125.21172 
L 252.698728 162.676133 
L 268.137463 165.593423 
L 283.576198 162.928545 
L 299.014933 161.142538 
L 314.453668 160.168635 
L 329.892404 149.852317 
L 345.331139 141.682083 
L 360.769874 141.116841 
L 376.208609 133.267989 
L 391.647344 121.237421 
L 407.08608 135.377796 
" style="fill:none;stroke:#1b9e77;stroke-linecap:square;stroke-opacity:0.5;stroke-width:1.5;"/>
   </g>
   <g id="line2d_65">
    <path clip-path="url(#p61f634f9ce)" d="M 51.99517 165.93393 
L 67.433906 165.790083 
L 82.872641 164.03599 
L 98.311376 161.319098 
L 113.750111 134.889911 
L 129.188846 140.428713 
L 144.627582 107.158426 
L 160.066317 155.220476 
L 175.505052 163.3747 
L 190.943787 73.714509 
L 206.382522 119.684977 
L 221.821257 159.228401 
L 237.259993 163.922029 
L 252.698728 163.452757 
L 268.137463 164.489527 
L 283.576198 164.918915 
L 299.014933 165.364906 
L 314.453668 165.554025 
L 329.892404 165.714411 
L 345.331139 165.705117 
L 360.769874 165.814544 
L 376.208609 165.903972 
L 391.647344 165.935031 
L 407.08608 165.958094 
" style="fill:none;stroke:#1b9e77;stroke-linecap:square;stroke-opacity:0.5;stroke-width:1.5;"/>
   </g>
   <g id="line2d_66">
    <path clip-path="url(#p61f634f9ce)" d="M 51.99517 161.914256 
L 67.433906 130.837625 
L 82.872641 150.885642 
L 98.311376 150.898026 
L 113.750111 148.512691 
L 129.188846 153.907049 
L 144.627582 151.469397 
L 160.066317 151.981443 
L 175.505052 151.589464 
L 190.943787 153.083345 
L 206.382522 151.001841 
L 221.821257 138.948769 
L 237.259993 135.519762 
L 252.698728 126.426218 
L 268.137463 157.834342 
L 283.576198 164.217666 
L 299.014933 164.138014 
L 314.453668 162.275443 
L 329.892404 162.582778 
L 345.331139 164.674661 
L 360.769874 165.137379 
L 376.208609 165.09286 
L 391.647344 164.777493 
L 407.08608 165.806372 
" style="fill:none;stroke:#1b9e77;stroke-linecap:square;stroke-opacity:0.5;stroke-width:1.5;"/>
   </g>
   <g id="line2d_67">
    <path clip-path="url(#p61f634f9ce)" d="M 51.99517 150.022338 
L 67.433906 158.915341 
L 82.872641 160.635614 
L 98.311376 143.665417 
L 113.750111 141.70849 
L 129.188846 160.014181 
L 144.627582 160.006664 
L 160.066317 160.442885 
L 175.505052 161.634454 
L 190.943787 162.091365 
L 206.382522 165.005585 
L 221.821257 162.899657 
L 237.259993 165.9327 
L 252.698728 165.94388 
L 268.137463 164.574236 
L 283.576198 165.894147 
L 299.014933 163.642549 
L 314.453668 150.94344 
L 329.892404 133.075891 
L 345.331139 142.040783 
L 360.769874 136.611253 
L 376.208609 125.784675 
L 391.647344 137.752131 
L 407.08608 154.274866 
" style="fill:none;stroke:#1b9e77;stroke-linecap:square;stroke-opacity:0.5;stroke-width:1.5;"/>
   </g>
   <g id="line2d_68">
    <path clip-path="url(#p61f634f9ce)" d="M 51.99517 140.999642 
L 67.433906 164.374698 
L 82.872641 164.196216 
L 98.311376 163.741335 
L 113.750111 138.954437 
L 129.188846 147.444305 
L 144.627582 133.081609 
L 160.066317 148.524829 
L 175.505052 163.305926 
L 190.943787 162.801659 
L 206.382522 144.727254 
L 221.821257 101.137744 
L 237.259993 153.574877 
L 252.698728 135.614175 
L 268.137463 145.238761 
L 283.576198 160.117289 
L 299.014933 165.226343 
L 314.453668 165.64527 
L 329.892404 165.787776 
L 345.331139 165.491243 
L 360.769874 165.7112 
L 376.208609 165.914235 
L 391.647344 165.942223 
L 407.08608 165.959497 
" style="fill:none;stroke:#1b9e77;stroke-linecap:square;stroke-opacity:0.5;stroke-width:1.5;"/>
   </g>
   <g id="line2d_69">
    <path clip-path="url(#p61f634f9ce)" d="M 51.99517 140.642564 
L 67.433906 164.634247 
L 82.872641 164.285757 
L 98.311376 161.793444 
L 113.750111 158.347589 
L 129.188846 148.68601 
L 144.627582 134.774492 
L 160.066317 148.910638 
L 175.505052 93.104495 
L 190.943787 84.593014 
L 206.382522 154.566131 
L 221.821257 161.460166 
L 237.259993 163.839664 
L 252.698728 162.978286 
L 268.137463 162.751706 
L 283.576198 163.008264 
L 299.014933 165.105666 
L 314.453668 165.497383 
L 329.892404 165.668486 
L 345.331139 165.567532 
L 360.769874 165.641531 
L 376.208609 165.818068 
L 391.647344 165.886317 
L 407.08608 165.951089 
" style="fill:none;stroke:#1b9e77;stroke-linecap:square;stroke-opacity:0.5;stroke-width:1.5;"/>
   </g>
   <g id="line2d_70">
    <path clip-path="url(#p61f634f9ce)" d="M 51.99517 165.136427 
L 67.433906 162.040493 
L 82.872641 158.275253 
L 98.311376 154.354049 
L 113.750111 149.663998 
L 129.188846 150.514157 
L 144.627582 142.557614 
L 160.066317 138.956275 
L 175.505052 140.734502 
L 190.943787 148.640365 
L 206.382522 149.327816 
L 221.821257 149.836909 
L 237.259993 148.021697 
L 252.698728 132.520864 
L 268.137463 135.427097 
L 283.576198 150.209341 
L 299.014933 156.50837 
L 314.453668 165.648723 
L 329.892404 165.899538 
L 345.331139 165.898689 
L 360.769874 165.93277 
L 376.208609 165.94935 
L 391.647344 165.926675 
L 407.08608 165.531566 
" style="fill:none;stroke:#1b9e77;stroke-linecap:square;stroke-opacity:0.5;stroke-width:1.5;"/>
   </g>
   <g id="line2d_71">
    <path clip-path="url(#p61f634f9ce)" d="M 51.99517 163.151361 
L 67.433906 140.597646 
L 82.872641 157.825304 
L 98.311376 164.474438 
L 113.750111 165.106796 
L 129.188846 162.941594 
L 144.627582 156.489304 
L 160.066317 158.446101 
L 175.505052 160.942301 
L 190.943787 161.211637 
L 206.382522 162.741361 
L 221.821257 164.208596 
L 237.259993 164.681504 
L 252.698728 165.604133 
L 268.137463 157.729764 
L 283.576198 159.058985 
L 299.014933 160.591052 
L 314.453668 158.329148 
L 329.892404 146.145236 
L 345.331139 147.299055 
L 360.769874 160.609071 
L 376.208609 151.301685 
L 391.647344 41.853226 
L 407.08608 162.173245 
" style="fill:none;stroke:#1b9e77;stroke-linecap:square;stroke-opacity:0.5;stroke-width:1.5;"/>
   </g>
   <g id="line2d_72">
    <path clip-path="url(#p61f634f9ce)" d="M 51.99517 165.864681 
L 67.433906 165.260097 
L 82.872641 162.42314 
L 98.311376 137.64372 
L 113.750111 145.757414 
L 129.188846 164.751932 
L 144.627582 151.236275 
L 160.066317 155.993768 
L 175.505052 153.628196 
L 190.943787 92.801887 
L 206.382522 133.12065 
L 221.821257 142.8619 
L 237.259993 149.175974 
L 252.698728 150.310006 
L 268.137463 154.068197 
L 283.576198 157.883955 
L 299.014933 157.497361 
L 314.453668 163.010165 
L 329.892404 164.25505 
L 345.331139 163.564003 
L 360.769874 165.109744 
L 376.208609 165.785305 
L 391.647344 165.804428 
L 407.08608 165.704689 
" style="fill:none;stroke:#1b9e77;stroke-linecap:square;stroke-opacity:0.5;stroke-width:1.5;"/>
   </g>
   <g id="line2d_73">
    <path clip-path="url(#p61f634f9ce)" d="M 51.99517 149.078613 
L 67.433906 158.013067 
L 82.872641 163.059658 
L 98.311376 162.836669 
L 113.750111 162.278706 
L 129.188846 159.487706 
L 144.627582 149.809682 
L 160.066317 157.13031 
L 175.505052 124.03931 
L 190.943787 154.538879 
L 206.382522 153.595461 
L 221.821257 61.49041 
L 237.259993 121.16602 
L 252.698728 158.629169 
L 268.137463 165.520065 
L 283.576198 165.680178 
L 299.014933 165.841011 
L 314.453668 165.853205 
L 329.892404 165.857307 
L 345.331139 165.880804 
L 360.769874 165.900434 
L 376.208609 165.924014 
L 391.647344 165.941854 
L 407.08608 165.96 
" style="fill:none;stroke:#1b9e77;stroke-linecap:square;stroke-opacity:0.5;stroke-width:1.5;"/>
   </g>
   <g id="line2d_74">
    <path clip-path="url(#p61f634f9ce)" d="M 51.99517 164.953084 
L 67.433906 165.713437 
L 82.872641 165.89259 
L 98.311376 165.92297 
L 113.750111 165.549159 
L 129.188846 163.66175 
L 144.627582 137.803929 
L 160.066317 159.333585 
L 175.505052 157.012706 
L 190.943787 113.02877 
L 206.382522 107.779588 
L 221.821257 112.841278 
L 237.259993 156.487391 
L 252.698728 163.427467 
L 268.137463 160.843904 
L 283.576198 135.000697 
L 299.014933 147.913068 
L 314.453668 165.552402 
L 329.892404 165.88337 
L 345.331139 165.731816 
L 360.769874 161.415794 
L 376.208609 159.856084 
L 391.647344 165.94786 
L 407.08608 165.959843 
" style="fill:none;stroke:#1b9e77;stroke-linecap:square;stroke-opacity:0.5;stroke-width:1.5;"/>
   </g>
   <g id="line2d_75">
    <path clip-path="url(#p61f634f9ce)" d="M 51.99517 165.94643 
L 67.433906 165.92354 
L 82.872641 165.928708 
L 98.311376 165.92672 
L 113.750111 165.923994 
L 129.188846 165.928915 
L 144.627582 165.92817 
L 160.066317 165.930971 
L 175.505052 162.58678 
L 190.943787 141.619399 
L 206.382522 125.349666 
L 221.821257 145.538578 
L 237.259993 128.942225 
L 252.698728 63.726347 
L 268.137463 134.271992 
L 283.576198 142.923965 
L 299.014933 161.057104 
L 314.453668 165.210478 
L 329.892404 165.716053 
L 345.331139 165.75503 
L 360.769874 165.782337 
L 376.208609 165.825567 
L 391.647344 165.82891 
L 407.08608 165.940669 
" style="fill:none;stroke:#1b9e77;stroke-linecap:square;stroke-opacity:0.5;stroke-width:1.5;"/>
   </g>
   <g id="line2d_76">
    <path clip-path="url(#p61f634f9ce)" d="M 51.99517 159.999538 
L 67.433906 164.975604 
L 82.872641 165.502953 
L 98.311376 161.755948 
L 113.750111 144.811 
L 129.188846 165.414172 
L 144.627582 151.630953 
L 160.066317 148.263366 
L 175.505052 162.422923 
L 190.943787 147.848023 
L 206.382522 144.844798 
L 221.821257 165.216275 
L 237.259993 161.860435 
L 252.698728 99.268916 
L 268.137463 111.151426 
L 283.576198 154.936952 
L 299.014933 162.232347 
L 314.453668 160.153773 
L 329.892404 153.46236 
L 345.331139 150.825291 
L 360.769874 160.031229 
L 376.208609 165.247338 
L 391.647344 165.731189 
L 407.08608 165.925731 
" style="fill:none;stroke:#1b9e77;stroke-linecap:square;stroke-opacity:0.5;stroke-width:1.5;"/>
   </g>
   <g id="line2d_77">
    <path clip-path="url(#p61f634f9ce)" d="M 51.99517 165.45424 
L 67.433906 164.3722 
L 82.872641 163.213772 
L 98.311376 160.27982 
L 113.750111 143.1236 
L 129.188846 136.075101 
L 144.627582 157.421175 
L 160.066317 125.537457 
L 175.505052 135.594486 
L 190.943787 164.925295 
L 206.382522 164.970501 
L 221.821257 148.132488 
L 237.259993 139.857135 
L 252.698728 156.210137 
L 268.137463 159.34266 
L 283.576198 160.793824 
L 299.014933 163.748835 
L 314.453668 163.060197 
L 329.892404 158.692798 
L 345.331139 157.475391 
L 360.769874 159.02858 
L 376.208609 153.109053 
L 391.647344 150.018597 
L 407.08608 143.075205 
" style="fill:none;stroke:#1b9e77;stroke-linecap:square;stroke-opacity:0.5;stroke-width:1.5;"/>
   </g>
   <g id="line2d_78">
    <path clip-path="url(#p61f634f9ce)" d="M 51.99517 164.24185 
L 67.433906 146.191265 
L 82.872641 140.043435 
L 98.311376 146.198114 
L 113.750111 159.882997 
L 129.188846 161.737012 
L 144.627582 164.710566 
L 160.066317 165.389222 
L 175.505052 165.634483 
L 190.943787 165.606076 
L 206.382522 165.128584 
L 221.821257 164.28587 
L 237.259993 163.101927 
L 252.698728 163.272867 
L 268.137463 157.245326 
L 283.576198 157.989597 
L 299.014933 160.284692 
L 314.453668 157.115135 
L 329.892404 121.102095 
L 345.331139 127.461293 
L 360.769874 145.928229 
L 376.208609 126.423926 
L 391.647344 141.326338 
L 407.08608 163.211648 
" style="fill:none;stroke:#1b9e77;stroke-linecap:square;stroke-opacity:0.5;stroke-width:1.5;"/>
   </g>
   <g id="line2d_79">
    <path clip-path="url(#p61f634f9ce)" d="M 51.99517 165.112795 
L 67.433906 165.552095 
L 82.872641 165.789529 
L 98.311376 165.734178 
L 113.750111 165.752817 
L 129.188846 165.805418 
L 144.627582 165.836085 
L 160.066317 165.84076 
L 175.505052 165.797834 
L 190.943787 165.593954 
L 206.382522 164.8199 
L 221.821257 165.792881 
L 237.259993 165.704397 
L 252.698728 155.201424 
L 268.137463 155.513714 
L 283.576198 143.605318 
L 299.014933 98.938598 
L 314.453668 117.743454 
L 329.892404 122.515594 
L 345.331139 134.815031 
L 360.769874 146.38113 
L 376.208609 155.946575 
L 391.647344 156.876942 
L 407.08608 152.842114 
" style="fill:none;stroke:#1b9e77;stroke-linecap:square;stroke-opacity:0.5;stroke-width:1.5;"/>
   </g>
   <g id="line2d_80">
    <path clip-path="url(#p61f634f9ce)" d="M 51.99517 153.441833 
L 67.433906 144.836869 
L 82.872641 150.903717 
L 98.311376 160.821139 
L 113.750111 164.229738 
L 129.188846 164.333267 
L 144.627582 164.877774 
L 160.066317 165.589777 
L 175.505052 165.804421 
L 190.943787 165.867478 
L 206.382522 165.596397 
L 221.821257 164.916292 
L 237.259993 163.613136 
L 252.698728 163.056542 
L 268.137463 163.759481 
L 283.576198 162.269117 
L 299.014933 161.357678 
L 314.453668 159.163882 
L 329.892404 154.763277 
L 345.331139 153.515228 
L 360.769874 159.476328 
L 376.208609 146.585366 
L 391.647344 62.856583 
L 407.08608 111.877226 
" style="fill:none;stroke:#1b9e77;stroke-linecap:square;stroke-opacity:0.5;stroke-width:1.5;"/>
   </g>
   <g id="line2d_81">
    <path clip-path="url(#p61f634f9ce)" d="M 51.99517 164.934948 
L 67.433906 165.063946 
L 82.872641 165.580735 
L 98.311376 165.502539 
L 113.750111 165.601219 
L 129.188846 165.719227 
L 144.627582 165.802817 
L 160.066317 165.880663 
L 175.505052 165.900221 
L 190.943787 165.747711 
L 206.382522 164.637593 
L 221.821257 163.471913 
L 237.259993 161.487472 
L 252.698728 160.576962 
L 268.137463 160.46118 
L 283.576198 159.765327 
L 299.014933 145.789264 
L 314.453668 88.240355 
L 329.892404 66.147861 
L 345.331139 124.110399 
L 360.769874 148.443558 
L 376.208609 163.143725 
L 391.647344 165.610037 
L 407.08608 165.892868 
" style="fill:none;stroke:#1b9e77;stroke-linecap:square;stroke-opacity:0.5;stroke-width:1.5;"/>
   </g>
   <g id="line2d_82">
    <path clip-path="url(#p61f634f9ce)" d="M 51.99517 163.732764 
L 67.433906 164.599255 
L 82.872641 165.57209 
L 98.311376 165.59482 
L 113.750111 165.705113 
L 129.188846 165.696297 
L 144.627582 165.701276 
L 160.066317 165.79188 
L 175.505052 165.842628 
L 190.943787 165.904075 
L 206.382522 165.831745 
L 221.821257 163.20972 
L 237.259993 159.986699 
L 252.698728 160.327792 
L 268.137463 152.408139 
L 283.576198 146.882846 
L 299.014933 159.056122 
L 314.453668 147.259097 
L 329.892404 99.331452 
L 345.331139 89.613732 
L 360.769874 125.035992 
L 376.208609 145.072734 
L 391.647344 159.678644 
L 407.08608 165.677629 
" style="fill:none;stroke:#1b9e77;stroke-linecap:square;stroke-opacity:0.5;stroke-width:1.5;"/>
   </g>
   <g id="line2d_83">
    <path clip-path="url(#p61f634f9ce)" d="M 51.99517 165.930079 
L 67.433906 165.855042 
L 82.872641 165.909333 
L 98.311376 165.916195 
L 113.750111 165.917202 
L 129.188846 165.946045 
L 144.627582 165.922489 
L 160.066317 164.42251 
L 175.505052 162.728536 
L 190.943787 161.972118 
L 206.382522 150.946426 
L 221.821257 134.030257 
L 237.259993 141.254987 
L 252.698728 127.895502 
L 268.137463 81.804897 
L 283.576198 86.885059 
L 299.014933 161.924278 
L 314.453668 164.6724 
L 329.892404 165.316858 
L 345.331139 165.098873 
L 360.769874 165.528776 
L 376.208609 165.797448 
L 391.647344 165.889121 
L 407.08608 165.948104 
" style="fill:none;stroke:#1b9e77;stroke-linecap:square;stroke-opacity:0.5;stroke-width:1.5;"/>
   </g>
   <g id="line2d_84">
    <path clip-path="url(#p61f634f9ce)" d="M 51.99517 148.813215 
L 67.433906 124.361261 
L 82.872641 139.422421 
L 98.311376 150.058718 
L 113.750111 156.817616 
L 129.188846 159.666562 
L 144.627582 156.807904 
L 160.066317 161.288749 
L 175.505052 164.010813 
L 190.943787 165.020056 
L 206.382522 165.427273 
L 221.821257 158.191289 
L 237.259993 140.493805 
L 252.698728 165.301102 
L 268.137463 165.914613 
L 283.576198 163.507026 
L 299.014933 157.283989 
L 314.453668 156.497385 
L 329.892404 155.173901 
L 345.331139 156.345527 
L 360.769874 155.159938 
L 376.208609 140.397958 
L 391.647344 136.097199 
L 407.08608 151.454219 
" style="fill:none;stroke:#1b9e77;stroke-linecap:square;stroke-opacity:0.5;stroke-width:1.5;"/>
   </g>
   <g id="line2d_85">
    <path clip-path="url(#p61f634f9ce)" d="M 51.99517 165.260174 
L 67.433906 165.586159 
L 82.872641 165.718341 
L 98.311376 162.950565 
L 113.750111 163.260415 
L 129.188846 162.242957 
L 144.627582 161.448446 
L 160.066317 160.749477 
L 175.505052 160.427203 
L 190.943787 158.573875 
L 206.382522 155.502835 
L 221.821257 159.371284 
L 237.259993 157.043057 
L 252.698728 124.83387 
L 268.137463 155.772749 
L 283.576198 158.451067 
L 299.014933 160.859026 
L 314.453668 154.217016 
L 329.892404 156.837242 
L 345.331139 165.190442 
L 360.769874 161.687955 
L 376.208609 103.548221 
L 391.647344 104.661548 
L 407.08608 149.318611 
" style="fill:none;stroke:#1b9e77;stroke-linecap:square;stroke-opacity:0.5;stroke-width:1.5;"/>
   </g>
   <g id="line2d_86">
    <path clip-path="url(#p61f634f9ce)" d="M 51.99517 165.611616 
L 67.433906 165.227424 
L 82.872641 165.219277 
L 98.311376 165.151181 
L 113.750111 164.747395 
L 129.188846 164.669724 
L 144.627582 154.54052 
L 160.066317 144.501848 
L 175.505052 118.104003 
L 190.943787 93.858255 
L 206.382522 102.586555 
L 221.821257 121.871735 
L 237.259993 150.738346 
L 252.698728 163.029595 
L 268.137463 165.410603 
L 283.576198 165.505984 
L 299.014933 165.763062 
L 314.453668 165.823215 
L 329.892404 165.879006 
L 345.331139 165.902724 
L 360.769874 165.924715 
L 376.208609 165.944177 
L 391.647344 163.504916 
L 407.08608 163.996671 
" style="fill:none;stroke:#1b9e77;stroke-linecap:square;stroke-opacity:0.5;stroke-width:1.5;"/>
   </g>
   <g id="line2d_87">
    <path clip-path="url(#p61f634f9ce)" d="M 51.99517 163.488639 
L 67.433906 162.799925 
L 82.872641 163.684128 
L 98.311376 156.76468 
L 113.750111 156.302822 
L 129.188846 152.037265 
L 144.627582 160.526314 
L 160.066317 165.094314 
L 175.505052 165.532581 
L 190.943787 165.556613 
L 206.382522 164.9006 
L 221.821257 163.833889 
L 237.259993 162.24801 
L 252.698728 164.841039 
L 268.137463 160.386991 
L 283.576198 153.939225 
L 299.014933 157.262786 
L 314.453668 155.192644 
L 329.892404 116.872757 
L 345.331139 107.276135 
L 360.769874 136.932742 
L 376.208609 129.941602 
L 391.647344 142.731904 
L 407.08608 165.364936 
" style="fill:none;stroke:#1b9e77;stroke-linecap:square;stroke-opacity:0.5;stroke-width:1.5;"/>
   </g>
   <g id="line2d_88">
    <path clip-path="url(#p61f634f9ce)" d="M 51.99517 128.906864 
L 67.433906 155.205565 
L 82.872641 159.414938 
L 98.311376 92.321326 
L 113.750111 108.593202 
L 129.188846 146.022494 
L 144.627582 163.864125 
L 160.066317 164.35187 
L 175.505052 163.451598 
L 190.943787 146.481736 
L 206.382522 143.740118 
L 221.821257 162.152538 
L 237.259993 163.034876 
L 252.698728 160.047093 
L 268.137463 156.996213 
L 283.576198 157.325234 
L 299.014933 162.347808 
L 314.453668 164.856733 
L 329.892404 165.562722 
L 345.331139 165.53204 
L 360.769874 165.682831 
L 376.208609 165.81631 
L 391.647344 165.854112 
L 407.08608 165.950194 
" style="fill:none;stroke:#1b9e77;stroke-linecap:square;stroke-opacity:0.5;stroke-width:1.5;"/>
   </g>
   <g id="line2d_89">
    <path clip-path="url(#p61f634f9ce)" d="M 51.99517 165.949744 
L 67.433906 165.90709 
L 82.872641 165.913634 
L 98.311376 165.929337 
L 113.750111 165.903263 
L 129.188846 165.957542 
L 144.627582 163.572059 
L 160.066317 162.196992 
L 175.505052 164.202795 
L 190.943787 163.240545 
L 206.382522 161.368357 
L 221.821257 160.456179 
L 237.259993 118.894627 
L 252.698728 39.978651 
L 268.137463 132.382392 
L 283.576198 133.9606 
L 299.014933 150.048602 
L 314.453668 160.740844 
L 329.892404 164.377655 
L 345.331139 164.306249 
L 360.769874 164.294566 
L 376.208609 164.291097 
L 391.647344 163.956816 
L 407.08608 165.682902 
" style="fill:none;stroke:#1b9e77;stroke-linecap:square;stroke-opacity:0.5;stroke-width:1.5;"/>
   </g>
   <g id="line2d_90">
    <path clip-path="url(#p61f634f9ce)" d="M 51.99517 165.105462 
L 67.433906 158.631909 
L 82.872641 147.235031 
L 98.311376 140.185087 
L 113.750111 144.717006 
L 129.188846 143.803305 
L 144.627582 146.689555 
L 160.066317 149.491682 
L 175.505052 162.317711 
L 190.943787 165.115168 
L 206.382522 165.069073 
L 221.821257 157.110258 
L 237.259993 157.230916 
L 252.698728 165.617489 
L 268.137463 165.856831 
L 283.576198 165.806015 
L 299.014933 151.661868 
L 314.453668 153.092533 
L 329.892404 99.125391 
L 345.331139 157.375999 
L 360.769874 146.881503 
L 376.208609 161.21834 
L 391.647344 159.576484 
L 407.08608 164.597917 
" style="fill:none;stroke:#1b9e77;stroke-linecap:square;stroke-opacity:0.5;stroke-width:1.5;"/>
   </g>
   <g id="line2d_91">
    <path clip-path="url(#p61f634f9ce)" d="M 51.99517 165.737732 
L 67.433906 165.062634 
L 82.872641 165.218464 
L 98.311376 165.652682 
L 113.750111 164.157085 
L 129.188846 159.946823 
L 144.627582 158.760467 
L 160.066317 151.003645 
L 175.505052 140.51084 
L 190.943787 133.613572 
L 206.382522 132.503596 
L 221.821257 159.712424 
L 237.259993 32.695207 
L 252.698728 142.426749 
L 268.137463 165.328282 
L 283.576198 165.11773 
L 299.014933 165.427981 
L 314.453668 165.567352 
L 329.892404 165.712175 
L 345.331139 165.776708 
L 360.769874 165.839527 
L 376.208609 165.877491 
L 391.647344 165.907526 
L 407.08608 165.955846 
" style="fill:none;stroke:#1b9e77;stroke-linecap:square;stroke-opacity:0.5;stroke-width:1.5;"/>
   </g>
   <g id="line2d_92">
    <path clip-path="url(#p61f634f9ce)" d="M 51.99517 164.943779 
L 67.433906 165.507524 
L 82.872641 165.797644 
L 98.311376 165.789246 
L 113.750111 165.831288 
L 129.188846 165.869281 
L 144.627582 165.8918 
L 160.066317 165.90069 
L 175.505052 165.866607 
L 190.943787 163.876251 
L 206.382522 163.451319 
L 221.821257 162.509486 
L 237.259993 161.426774 
L 252.698728 160.448332 
L 268.137463 158.638305 
L 283.576198 156.138974 
L 299.014933 152.719336 
L 314.453668 147.942058 
L 329.892404 143.121059 
L 345.331139 157.557712 
L 360.769874 160.089142 
L 376.208609 14.76 
L 391.647344 136.263709 
L 407.08608 163.172226 
" style="fill:none;stroke:#1b9e77;stroke-linecap:square;stroke-opacity:0.5;stroke-width:1.5;"/>
   </g>
   <g id="line2d_93">
    <path clip-path="url(#p61f634f9ce)" d="M 51.99517 165.943053 
L 67.433906 165.900729 
L 82.872641 165.899222 
L 98.311376 165.846075 
L 113.750111 164.159622 
L 129.188846 163.191187 
L 144.627582 119.635999 
L 160.066317 152.441273 
L 175.505052 142.123389 
L 190.943787 114.55953 
L 206.382522 154.60196 
L 221.821257 165.178365 
L 237.259993 165.527085 
L 252.698728 165.21635 
L 268.137463 160.803735 
L 283.576198 156.507441 
L 299.014933 147.254885 
L 314.453668 150.303921 
L 329.892404 152.306122 
L 345.331139 161.424146 
L 360.769874 155.274828 
L 376.208609 142.760739 
L 391.647344 148.65509 
L 407.08608 147.997795 
" style="fill:none;stroke:#1b9e77;stroke-linecap:square;stroke-opacity:0.5;stroke-width:1.5;"/>
   </g>
   <g id="line2d_94">
    <path clip-path="url(#p61f634f9ce)" d="M 51.99517 161.943623 
L 67.433906 163.813568 
L 82.872641 165.1058 
L 98.311376 164.587231 
L 113.750111 161.609774 
L 129.188846 139.327881 
L 144.627582 145.913072 
L 160.066317 163.668138 
L 175.505052 164.475484 
L 190.943787 150.743664 
L 206.382522 135.108371 
L 221.821257 162.406309 
L 237.259993 164.642824 
L 252.698728 163.089429 
L 268.137463 159.170721 
L 283.576198 154.817744 
L 299.014933 150.772775 
L 314.453668 154.694833 
L 329.892404 149.825542 
L 345.331139 142.767064 
L 360.769874 131.763586 
L 376.208609 147.247851 
L 391.647344 144.131041 
L 407.08608 151.886211 
" style="fill:none;stroke:#1b9e77;stroke-linecap:square;stroke-opacity:0.5;stroke-width:1.5;"/>
   </g>
   <g id="line2d_95">
    <path clip-path="url(#p61f634f9ce)" d="M 51.99517 163.141824 
L 67.433906 161.692326 
L 82.872641 164.162359 
L 98.311376 162.724915 
L 113.750111 163.744766 
L 129.188846 164.795572 
L 144.627582 165.175336 
L 160.066317 165.203928 
L 175.505052 165.222487 
L 190.943787 165.407828 
L 206.382522 165.223119 
L 221.821257 165.488822 
L 237.259993 161.690657 
L 252.698728 158.700513 
L 268.137463 156.385219 
L 283.576198 148.662428 
L 299.014933 150.101092 
L 314.453668 155.723503 
L 329.892404 157.015803 
L 345.331139 152.257749 
L 360.769874 127.501863 
L 376.208609 95.970622 
L 391.647344 106.608041 
L 407.08608 150.911767 
" style="fill:none;stroke:#1b9e77;stroke-linecap:square;stroke-opacity:0.5;stroke-width:1.5;"/>
   </g>
   <g id="line2d_96">
    <path clip-path="url(#p61f634f9ce)" d="M 51.99517 165.218588 
L 67.433906 165.484213 
L 82.872641 165.816761 
L 98.311376 165.856958 
L 113.750111 165.883342 
L 129.188846 165.944327 
L 144.627582 165.526435 
L 160.066317 165.517692 
L 175.505052 163.926092 
L 190.943787 163.388992 
L 206.382522 162.353905 
L 221.821257 157.413322 
L 237.259993 154.347286 
L 252.698728 149.317276 
L 268.137463 125.96672 
L 283.576198 16.281535 
L 299.014933 128.274012 
L 314.453668 157.21241 
L 329.892404 164.082644 
L 345.331139 164.392598 
L 360.769874 164.968063 
L 376.208609 165.175699 
L 391.647344 165.308282 
L 407.08608 165.855393 
" style="fill:none;stroke:#1b9e77;stroke-linecap:square;stroke-opacity:0.5;stroke-width:1.5;"/>
   </g>
   <g id="line2d_97">
    <path clip-path="url(#p61f634f9ce)" d="M 51.99517 165.923725 
L 67.433906 165.69964 
L 82.872641 165.754112 
L 98.311376 165.811247 
L 113.750111 165.791608 
L 129.188846 165.916403 
L 144.627582 157.955282 
L 160.066317 145.365554 
L 175.505052 149.686401 
L 190.943787 155.67483 
L 206.382522 153.196329 
L 221.821257 152.505125 
L 237.259993 148.101887 
L 252.698728 142.674288 
L 268.137463 131.12359 
L 283.576198 145.909057 
L 299.014933 161.982622 
L 314.453668 87.131928 
L 329.892404 142.902047 
L 345.331139 161.461706 
L 360.769874 165.557766 
L 376.208609 165.670716 
L 391.647344 165.793928 
L 407.08608 165.922746 
" style="fill:none;stroke:#1b9e77;stroke-linecap:square;stroke-opacity:0.5;stroke-width:1.5;"/>
   </g>
   <g id="line2d_98">
    <path clip-path="url(#p61f634f9ce)" d="M 51.99517 164.854788 
L 67.433906 164.932053 
L 82.872641 165.589401 
L 98.311376 165.664003 
L 113.750111 165.72989 
L 129.188846 165.721143 
L 144.627582 165.704264 
L 160.066317 165.662998 
L 175.505052 165.467729 
L 190.943787 165.775574 
L 206.382522 164.913524 
L 221.821257 162.841573 
L 237.259993 163.649084 
L 252.698728 162.054646 
L 268.137463 157.262044 
L 283.576198 154.378975 
L 299.014933 155.561249 
L 314.453668 130.485945 
L 329.892404 55.317093 
L 345.331139 91.434778 
L 360.769874 150.114421 
L 376.208609 160.085112 
L 391.647344 164.469712 
L 407.08608 165.842539 
" style="fill:none;stroke:#1b9e77;stroke-linecap:square;stroke-opacity:0.5;stroke-width:1.5;"/>
   </g>
   <g id="line2d_99">
    <path clip-path="url(#p61f634f9ce)" d="M 51.99517 165.676578 
L 67.433906 164.662902 
L 82.872641 164.842376 
L 98.311376 165.095092 
L 113.750111 164.779728 
L 129.188846 159.754856 
L 144.627582 158.78858 
L 160.066317 157.95758 
L 175.505052 157.140441 
L 190.943787 153.130233 
L 206.382522 141.5208 
L 221.821257 122.692299 
L 237.259993 106.995346 
L 252.698728 148.901218 
L 268.137463 144.821661 
L 283.576198 128.739393 
L 299.014933 133.831064 
L 314.453668 162.79439 
L 329.892404 164.577056 
L 345.331139 165.223736 
L 360.769874 165.384816 
L 376.208609 164.653546 
L 391.647344 165.612995 
L 407.08608 165.935854 
" style="fill:none;stroke:#1b9e77;stroke-linecap:square;stroke-opacity:0.5;stroke-width:1.5;"/>
   </g>
   <g id="line2d_100">
    <path clip-path="url(#p61f634f9ce)" d="M 51.99517 142.680203 
L 67.433906 164.724775 
L 82.872641 164.034121 
L 98.311376 162.272957 
L 113.750111 161.542563 
L 129.188846 163.133591 
L 144.627582 162.764624 
L 160.066317 162.598059 
L 175.505052 162.820874 
L 190.943787 161.933092 
L 206.382522 160.251636 
L 221.821257 162.012374 
L 237.259993 163.857243 
L 252.698728 163.367838 
L 268.137463 145.166747 
L 283.576198 144.632886 
L 299.014933 162.184243 
L 314.453668 156.768509 
L 329.892404 143.455277 
L 345.331139 127.595066 
L 360.769874 146.717157 
L 376.208609 140.949239 
L 391.647344 145.292153 
L 407.08608 122.757321 
" style="fill:none;stroke:#1b9e77;stroke-linecap:square;stroke-opacity:0.5;stroke-width:1.5;"/>
   </g>
   <g id="line2d_101">
    <path clip-path="url(#p61f634f9ce)" d="M 51.99517 165.525795 
L 67.433906 165.121722 
L 82.872641 165.404898 
L 98.311376 165.506132 
L 113.750111 165.498628 
L 129.188846 165.834787 
L 144.627582 162.067123 
L 160.066317 151.421166 
L 175.505052 149.639704 
L 190.943787 147.920356 
L 206.382522 118.042891 
L 221.821257 137.292771 
L 237.259993 155.036955 
L 252.698728 141.674045 
L 268.137463 165.531467 
L 283.576198 165.735514 
L 299.014933 165.629295 
L 314.453668 155.733334 
L 329.892404 145.450002 
L 345.331139 165.672987 
L 360.769874 165.42123 
L 376.208609 94.732143 
L 391.647344 153.773441 
L 407.08608 159.846152 
" style="fill:none;stroke:#1b9e77;stroke-linecap:square;stroke-opacity:0.5;stroke-width:1.5;"/>
   </g>
   <g id="line2d_102">
    <path clip-path="url(#p61f634f9ce)" d="M 51.99517 164.753862 
L 67.433906 165.140244 
L 82.872641 165.294986 
L 98.311376 163.547292 
L 113.750111 153.250378 
L 129.188846 160.345846 
L 144.627582 160.344379 
L 160.066317 165.774416 
L 175.505052 159.449765 
L 190.943787 161.986923 
L 206.382522 162.267471 
L 221.821257 157.743329 
L 237.259993 145.860225 
L 252.698728 130.405368 
L 268.137463 124.997661 
L 283.576198 145.574568 
L 299.014933 157.994519 
L 314.453668 66.313902 
L 329.892404 162.465676 
L 345.331139 162.909326 
L 360.769874 164.058383 
L 376.208609 161.810662 
L 391.647344 165.289187 
L 407.08608 165.934181 
" style="fill:none;stroke:#1b9e77;stroke-linecap:square;stroke-opacity:0.5;stroke-width:1.5;"/>
   </g>
   <g id="line2d_103">
    <path clip-path="url(#p61f634f9ce)" d="M 51.99517 163.758159 
L 67.433906 164.689061 
L 82.872641 165.50375 
L 98.311376 165.602974 
L 113.750111 165.649864 
L 129.188846 165.537526 
L 144.627582 159.575656 
L 160.066317 154.562287 
L 175.505052 155.872033 
L 190.943787 161.722492 
L 206.382522 154.457345 
L 221.821257 132.962025 
L 237.259993 119.235965 
L 252.698728 100.732001 
L 268.137463 134.508603 
L 283.576198 147.174676 
L 299.014933 149.409739 
L 314.453668 147.596488 
L 329.892404 161.557176 
L 345.331139 164.221188 
L 360.769874 164.724537 
L 376.208609 164.50137 
L 391.647344 164.214751 
L 407.08608 165.742879 
" style="fill:none;stroke:#1b9e77;stroke-linecap:square;stroke-opacity:0.5;stroke-width:1.5;"/>
   </g>
   <g id="line2d_104">
    <path clip-path="url(#p61f634f9ce)" d="M 51.99517 164.828475 
L 67.433906 164.162704 
L 82.872641 164.91652 
L 98.311376 165.48713 
L 113.750111 164.143002 
L 129.188846 151.085445 
L 144.627582 145.702373 
L 160.066317 148.538228 
L 175.505052 122.857585 
L 190.943787 141.297159 
L 206.382522 151.277661 
L 221.821257 158.115359 
L 237.259993 148.448836 
L 252.698728 108.268845 
L 268.137463 150.990503 
L 283.576198 133.811588 
L 299.014933 160.237024 
L 314.453668 160.830144 
L 329.892404 164.732871 
L 345.331139 165.175068 
L 360.769874 165.269183 
L 376.208609 164.610021 
L 391.647344 163.849728 
L 407.08608 164.877093 
" style="fill:none;stroke:#1b9e77;stroke-linecap:square;stroke-opacity:0.5;stroke-width:1.5;"/>
   </g>
   <g id="line2d_105">
    <path clip-path="url(#p61f634f9ce)" d="M 51.99517 163.866397 
L 67.433906 163.2933 
L 82.872641 165.096045 
L 98.311376 165.022064 
L 113.750111 165.364305 
L 129.188846 165.607452 
L 144.627582 165.729672 
L 160.066317 165.713943 
L 175.505052 165.723406 
L 190.943787 165.702918 
L 206.382522 165.674458 
L 221.821257 165.884382 
L 237.259993 165.873552 
L 252.698728 159.685019 
L 268.137463 161.942248 
L 283.576198 155.888265 
L 299.014933 133.400474 
L 314.453668 116.113428 
L 329.892404 110.657375 
L 345.331139 105.05699 
L 360.769874 121.915233 
L 376.208609 150.201055 
L 391.647344 164.304546 
L 407.08608 165.796021 
" style="fill:none;stroke:#1b9e77;stroke-linecap:square;stroke-opacity:0.5;stroke-width:1.5;"/>
   </g>
   <g id="line2d_106">
    <path clip-path="url(#p61f634f9ce)" d="M 51.99517 165.729482 
L 67.433906 165.635888 
L 82.872641 165.792596 
L 98.311376 165.724548 
L 113.750111 165.72347 
L 129.188846 165.88282 
L 144.627582 165.894922 
L 160.066317 165.940687 
L 175.505052 162.861851 
L 190.943787 163.332597 
L 206.382522 160.742396 
L 221.821257 154.64742 
L 237.259993 153.408611 
L 252.698728 151.988419 
L 268.137463 141.256402 
L 283.576198 39.993816 
L 299.014933 114.7612 
L 314.453668 147.478491 
L 329.892404 160.409125 
L 345.331139 159.357377 
L 360.769874 161.926371 
L 376.208609 164.140417 
L 391.647344 165.044225 
L 407.08608 165.83941 
" style="fill:none;stroke:#1b9e77;stroke-linecap:square;stroke-opacity:0.5;stroke-width:1.5;"/>
   </g>
   <g id="line2d_107">
    <path clip-path="url(#p61f634f9ce)" d="M 51.99517 165.399712 
L 67.433906 165.352228 
L 82.872641 165.724308 
L 98.311376 164.776403 
L 113.750111 164.76817 
L 129.188846 165.489325 
L 144.627582 161.556308 
L 160.066317 164.310756 
L 175.505052 163.672909 
L 190.943787 160.771261 
L 206.382522 160.581239 
L 221.821257 161.92212 
L 237.259993 106.729689 
L 252.698728 58.525399 
L 268.137463 140.506756 
L 283.576198 138.192671 
L 299.014933 160.72565 
L 314.453668 164.767793 
L 329.892404 165.51711 
L 345.331139 165.522695 
L 360.769874 165.454414 
L 376.208609 165.31668 
L 391.647344 163.378626 
L 407.08608 134.550315 
" style="fill:none;stroke:#1b9e77;stroke-linecap:square;stroke-opacity:0.5;stroke-width:1.5;"/>
   </g>
   <g id="line2d_108">
    <path clip-path="url(#p61f634f9ce)" d="M 51.99517 154.386491 
L 67.433906 136.938934 
L 82.872641 154.190137 
L 98.311376 161.343995 
L 113.750111 165.085996 
L 129.188846 165.553336 
L 144.627582 165.772146 
L 160.066317 165.734976 
L 175.505052 165.754741 
L 190.943787 165.717283 
L 206.382522 165.703194 
L 221.821257 165.790636 
L 237.259993 165.775639 
L 252.698728 165.590305 
L 268.137463 163.693886 
L 283.576198 158.775629 
L 299.014933 147.134685 
L 314.453668 151.012713 
L 329.892404 144.581131 
L 345.331139 137.314195 
L 360.769874 117.962458 
L 376.208609 124.099793 
L 391.647344 124.960517 
L 407.08608 160.639725 
" style="fill:none;stroke:#1b9e77;stroke-linecap:square;stroke-opacity:0.5;stroke-width:1.5;"/>
   </g>
   <g id="line2d_109">
    <path clip-path="url(#p61f634f9ce)" d="M 51.99517 165.919861 
L 67.433906 165.880851 
L 82.872641 165.692003 
L 98.311376 165.648934 
L 113.750111 164.950456 
L 129.188846 163.590653 
L 144.627582 157.543449 
L 160.066317 162.841514 
L 175.505052 161.458901 
L 190.943787 160.848921 
L 206.382522 160.78739 
L 221.821257 158.80119 
L 237.259993 151.872435 
L 252.698728 161.051523 
L 268.137463 152.182731 
L 283.576198 159.809635 
L 299.014933 163.454827 
L 314.453668 158.161724 
L 329.892404 100.61879 
L 345.331139 93.548196 
L 360.769874 144.239101 
L 376.208609 134.573052 
L 391.647344 154.556655 
L 407.08608 165.479745 
" style="fill:none;stroke:#1b9e77;stroke-linecap:square;stroke-opacity:0.5;stroke-width:1.5;"/>
   </g>
   <g id="line2d_110">
    <path clip-path="url(#p61f634f9ce)" d="M 51.99517 164.959985 
L 67.433906 165.097364 
L 82.872641 165.654769 
L 98.311376 165.747346 
L 113.750111 165.687763 
L 129.188846 164.42768 
L 144.627582 161.37765 
L 160.066317 161.289032 
L 175.505052 159.874275 
L 190.943787 161.065981 
L 206.382522 158.991246 
L 221.821257 153.445428 
L 237.259993 150.335345 
L 252.698728 143.316825 
L 268.137463 113.136148 
L 283.576198 41.895936 
L 299.014933 145.381807 
L 314.453668 162.671176 
L 329.892404 164.347664 
L 345.331139 162.087432 
L 360.769874 164.958853 
L 376.208609 165.865172 
L 391.647344 165.938847 
L 407.08608 165.958818 
" style="fill:none;stroke:#1b9e77;stroke-linecap:square;stroke-opacity:0.5;stroke-width:1.5;"/>
   </g>
   <g id="line2d_111">
    <path clip-path="url(#p61f634f9ce)" d="M 51.99517 163.712483 
L 67.433906 164.050089 
L 82.872641 165.195858 
L 98.311376 164.918779 
L 113.750111 165.170185 
L 129.188846 165.582035 
L 144.627582 165.686671 
L 160.066317 165.579031 
L 175.505052 165.55337 
L 190.943787 165.739621 
L 206.382522 165.779002 
L 221.821257 163.446446 
L 237.259993 165.054307 
L 252.698728 165.445696 
L 268.137463 165.467419 
L 283.576198 165.611627 
L 299.014933 164.447453 
L 314.453668 148.506399 
L 329.892404 129.739209 
L 345.331139 158.618729 
L 360.769874 151.164932 
L 376.208609 108.398634 
L 391.647344 97.825994 
L 407.08608 92.818572 
" style="fill:none;stroke:#1b9e77;stroke-linecap:square;stroke-opacity:0.5;stroke-width:1.5;"/>
   </g>
   <g id="line2d_112">
    <path clip-path="url(#p61f634f9ce)" d="M 51.99517 165.586057 
L 67.433906 165.951667 
L 82.872641 165.951667 
L 98.311376 165.951667 
L 113.750111 165.951667 
L 129.188846 165.942753 
L 144.627582 165.473504 
L 160.066317 161.122965 
L 175.505052 165.505585 
L 190.943787 165.951667 
L 206.382522 164.459398 
L 221.821257 165.726823 
L 237.259993 165.795179 
L 252.698728 145.457521 
L 268.137463 132.927834 
L 283.576198 111.190727 
L 299.014933 122.447611 
L 314.453668 135.009819 
L 329.892404 140.459495 
L 345.331139 149.081144 
L 360.769874 152.372282 
L 376.208609 154.217661 
L 391.647344 152.669914 
L 407.08608 148.307934 
" style="fill:none;stroke:#d95f02;stroke-linecap:square;stroke-width:1.5;"/>
   </g>
   <g id="patch_3">
    <path d="M 34.240625 173.52 
L 34.240625 7.2 
" style="fill:none;stroke:#000000;stroke-linecap:square;stroke-linejoin:miter;stroke-width:0.8;"/>
   </g>
   <g id="patch_4">
    <path d="M 34.240625 173.52 
L 424.840625 173.52 
" style="fill:none;stroke:#000000;stroke-linecap:square;stroke-linejoin:miter;stroke-width:0.8;"/>
   </g>
   <g id="legend_1">
    <g id="patch_5">
     <path d="M 41.240625 29.878125 
L 92.407813 29.878125 
Q 94.407813 29.878125 94.407813 27.878125 
L 94.407813 14.2 
Q 94.407813 12.2 92.407813 12.2 
L 41.240625 12.2 
Q 39.240625 12.2 39.240625 14.2 
L 39.240625 27.878125 
Q 39.240625 29.878125 41.240625 29.878125 
z
" style="fill:#ffffff;opacity:0.8;stroke:#cccccc;stroke-linejoin:miter;"/>
    </g>
    <g id="line2d_113">
     <path d="M 43.240625 20.298438 
L 63.240625 20.298438 
" style="fill:none;stroke:#d95f02;stroke-linecap:square;stroke-width:1.5;"/>
    </g>
    <g id="line2d_114"/>
    <g id="text_14">
     <!-- real -->
     <defs>
      <path d="M 9.421875 75.984375 
L 18.40625 75.984375 
L 18.40625 0 
L 9.421875 0 
z
" id="DejaVuSans-108"/>
     </defs>
     <g transform="translate(71.240625 23.798438)scale(0.1 -0.1)">
      <use xlink:href="#DejaVuSans-114"/>
      <use x="41.082031" xlink:href="#DejaVuSans-101"/>
      <use x="102.605469" xlink:href="#DejaVuSans-97"/>
      <use x="163.884766" xlink:href="#DejaVuSans-108"/>
     </g>
    </g>
   </g>
  </g>
 </g>
 <defs>
  <clipPath id="p61f634f9ce">
   <rect height="166.32" width="390.6" x="34.240625" y="7.2"/>
  </clipPath>
 </defs>
</svg>
