<?xml version="1.0" encoding="utf-8" standalone="no"?>
<!DOCTYPE svg PUBLIC "-//W3C//DTD SVG 1.1//EN"
  "http://www.w3.org/Graphics/SVG/1.1/DTD/svg11.dtd">
<!-- Created with matplotlib (https://matplotlib.org/) -->
<svg height="211.07625pt" version="1.1" viewBox="0 0 445.62794 211.07625" width="445.62794pt" xmlns="http://www.w3.org/2000/svg" xmlns:xlink="http://www.w3.org/1999/xlink">
 <defs>
  <style type="text/css">
*{stroke-linecap:butt;stroke-linejoin:round;}
  </style>
 </defs>
 <g id="figure_1">
  <g id="patch_1">
   <path d="M 0 211.07625 
L 445.62794 211.07625 
L 445.62794 0 
L 0 0 
z
" style="fill:#ffffff;"/>
  </g>
  <g id="axes_1">
   <g id="patch_2">
    <path d="M 43.78125 173.52 
L 434.38125 173.52 
L 434.38125 7.2 
L 43.78125 7.2 
z
" style="fill:#ffffff;"/>
   </g>
   <g id="matplotlib.axis_1">
    <g id="xtick_1">
     <g id="line2d_1">
      <defs>
       <path d="M 0 0 
L 0 3.5 
" id="m0f705c67fc" style="stroke:#000000;stroke-width:0.8;"/>
      </defs>
      <g>
       <use style="stroke:#000000;stroke-width:0.8;" x="46.09706" xlink:href="#m0f705c67fc" y="173.52"/>
      </g>
     </g>
     <g id="text_1">
      <!-- 0 -->
      <defs>
       <path d="M 31.78125 66.40625 
Q 24.171875 66.40625 20.328125 58.90625 
Q 16.5 51.421875 16.5 36.375 
Q 16.5 21.390625 20.328125 13.890625 
Q 24.171875 6.390625 31.78125 6.390625 
Q 39.453125 6.390625 43.28125 13.890625 
Q 47.125 21.390625 47.125 36.375 
Q 47.125 51.421875 43.28125 58.90625 
Q 39.453125 66.40625 31.78125 66.40625 
z
M 31.78125 74.21875 
Q 44.046875 74.21875 50.515625 64.515625 
Q 56.984375 54.828125 56.984375 36.375 
Q 56.984375 17.96875 50.515625 8.265625 
Q 44.046875 -1.421875 31.78125 -1.421875 
Q 19.53125 -1.421875 13.0625 8.265625 
Q 6.59375 17.96875 6.59375 36.375 
Q 6.59375 54.828125 13.0625 64.515625 
Q 19.53125 74.21875 31.78125 74.21875 
z
" id="DejaVuSans-48"/>
      </defs>
      <g transform="translate(42.91581 188.118438)scale(0.1 -0.1)">
       <use xlink:href="#DejaVuSans-48"/>
      </g>
     </g>
    </g>
    <g id="xtick_2">
     <g id="line2d_2">
      <g>
       <use style="stroke:#000000;stroke-width:0.8;" x="123.290736" xlink:href="#m0f705c67fc" y="173.52"/>
      </g>
     </g>
     <g id="text_2">
      <!-- 5 -->
      <defs>
       <path d="M 10.796875 72.90625 
L 49.515625 72.90625 
L 49.515625 64.59375 
L 19.828125 64.59375 
L 19.828125 46.734375 
Q 21.96875 47.46875 24.109375 47.828125 
Q 26.265625 48.1875 28.421875 48.1875 
Q 40.625 48.1875 47.75 41.5 
Q 54.890625 34.8125 54.890625 23.390625 
Q 54.890625 11.625 47.5625 5.09375 
Q 40.234375 -1.421875 26.90625 -1.421875 
Q 22.3125 -1.421875 17.546875 -0.640625 
Q 12.796875 0.140625 7.71875 1.703125 
L 7.71875 11.625 
Q 12.109375 9.234375 16.796875 8.0625 
Q 21.484375 6.890625 26.703125 6.890625 
Q 35.15625 6.890625 40.078125 11.328125 
Q 45.015625 15.765625 45.015625 23.390625 
Q 45.015625 31 40.078125 35.4375 
Q 35.15625 39.890625 26.703125 39.890625 
Q 22.75 39.890625 18.8125 39.015625 
Q 14.890625 38.140625 10.796875 36.28125 
z
" id="DejaVuSans-53"/>
      </defs>
      <g transform="translate(120.109486 188.118438)scale(0.1 -0.1)">
       <use xlink:href="#DejaVuSans-53"/>
      </g>
     </g>
    </g>
    <g id="xtick_3">
     <g id="line2d_3">
      <g>
       <use style="stroke:#000000;stroke-width:0.8;" x="200.484412" xlink:href="#m0f705c67fc" y="173.52"/>
      </g>
     </g>
     <g id="text_3">
      <!-- 10 -->
      <defs>
       <path d="M 12.40625 8.296875 
L 28.515625 8.296875 
L 28.515625 63.921875 
L 10.984375 60.40625 
L 10.984375 69.390625 
L 28.421875 72.90625 
L 38.28125 72.90625 
L 38.28125 8.296875 
L 54.390625 8.296875 
L 54.390625 0 
L 12.40625 0 
z
" id="DejaVuSans-49"/>
      </defs>
      <g transform="translate(194.121912 188.118438)scale(0.1 -0.1)">
       <use xlink:href="#DejaVuSans-49"/>
       <use x="63.623047" xlink:href="#DejaVuSans-48"/>
      </g>
     </g>
    </g>
    <g id="xtick_4">
     <g id="line2d_4">
      <g>
       <use style="stroke:#000000;stroke-width:0.8;" x="277.678088" xlink:href="#m0f705c67fc" y="173.52"/>
      </g>
     </g>
     <g id="text_4">
      <!-- 15 -->
      <g transform="translate(271.315588 188.118438)scale(0.1 -0.1)">
       <use xlink:href="#DejaVuSans-49"/>
       <use x="63.623047" xlink:href="#DejaVuSans-53"/>
      </g>
     </g>
    </g>
    <g id="xtick_5">
     <g id="line2d_5">
      <g>
       <use style="stroke:#000000;stroke-width:0.8;" x="354.871764" xlink:href="#m0f705c67fc" y="173.52"/>
      </g>
     </g>
     <g id="text_5">
      <!-- 20 -->
      <defs>
       <path d="M 19.1875 8.296875 
L 53.609375 8.296875 
L 53.609375 0 
L 7.328125 0 
L 7.328125 8.296875 
Q 12.9375 14.109375 22.625 23.890625 
Q 32.328125 33.6875 34.8125 36.53125 
Q 39.546875 41.84375 41.421875 45.53125 
Q 43.3125 49.21875 43.3125 52.78125 
Q 43.3125 58.59375 39.234375 62.25 
Q 35.15625 65.921875 28.609375 65.921875 
Q 23.96875 65.921875 18.8125 64.3125 
Q 13.671875 62.703125 7.8125 59.421875 
L 7.8125 69.390625 
Q 13.765625 71.78125 18.9375 73 
Q 24.125 74.21875 28.421875 74.21875 
Q 39.75 74.21875 46.484375 68.546875 
Q 53.21875 62.890625 53.21875 53.421875 
Q 53.21875 48.921875 51.53125 44.890625 
Q 49.859375 40.875 45.40625 35.40625 
Q 44.1875 33.984375 37.640625 27.21875 
Q 31.109375 20.453125 19.1875 8.296875 
z
" id="DejaVuSans-50"/>
      </defs>
      <g transform="translate(348.509264 188.118438)scale(0.1 -0.1)">
       <use xlink:href="#DejaVuSans-50"/>
       <use x="63.623047" xlink:href="#DejaVuSans-48"/>
      </g>
     </g>
    </g>
    <g id="xtick_6">
     <g id="line2d_6">
      <g>
       <use style="stroke:#000000;stroke-width:0.8;" x="432.06544" xlink:href="#m0f705c67fc" y="173.52"/>
      </g>
     </g>
     <g id="text_6">
      <!-- 25 -->
      <g transform="translate(425.70294 188.118438)scale(0.1 -0.1)">
       <use xlink:href="#DejaVuSans-50"/>
       <use x="63.623047" xlink:href="#DejaVuSans-53"/>
      </g>
     </g>
    </g>
    <g id="text_7">
     <!-- hour -->
     <defs>
      <path d="M 54.890625 33.015625 
L 54.890625 0 
L 45.90625 0 
L 45.90625 32.71875 
Q 45.90625 40.484375 42.875 44.328125 
Q 39.84375 48.1875 33.796875 48.1875 
Q 26.515625 48.1875 22.3125 43.546875 
Q 18.109375 38.921875 18.109375 30.90625 
L 18.109375 0 
L 9.078125 0 
L 9.078125 75.984375 
L 18.109375 75.984375 
L 18.109375 46.1875 
Q 21.34375 51.125 25.703125 53.5625 
Q 30.078125 56 35.796875 56 
Q 45.21875 56 50.046875 50.171875 
Q 54.890625 44.34375 54.890625 33.015625 
z
" id="DejaVuSans-104"/>
      <path d="M 30.609375 48.390625 
Q 23.390625 48.390625 19.1875 42.75 
Q 14.984375 37.109375 14.984375 27.296875 
Q 14.984375 17.484375 19.15625 11.84375 
Q 23.34375 6.203125 30.609375 6.203125 
Q 37.796875 6.203125 41.984375 11.859375 
Q 46.1875 17.53125 46.1875 27.296875 
Q 46.1875 37.015625 41.984375 42.703125 
Q 37.796875 48.390625 30.609375 48.390625 
z
M 30.609375 56 
Q 42.328125 56 49.015625 48.375 
Q 55.71875 40.765625 55.71875 27.296875 
Q 55.71875 13.875 49.015625 6.21875 
Q 42.328125 -1.421875 30.609375 -1.421875 
Q 18.84375 -1.421875 12.171875 6.21875 
Q 5.515625 13.875 5.515625 27.296875 
Q 5.515625 40.765625 12.171875 48.375 
Q 18.84375 56 30.609375 56 
z
" id="DejaVuSans-111"/>
      <path d="M 8.5 21.578125 
L 8.5 54.6875 
L 17.484375 54.6875 
L 17.484375 21.921875 
Q 17.484375 14.15625 20.5 10.265625 
Q 23.53125 6.390625 29.59375 6.390625 
Q 36.859375 6.390625 41.078125 11.03125 
Q 45.3125 15.671875 45.3125 23.6875 
L 45.3125 54.6875 
L 54.296875 54.6875 
L 54.296875 0 
L 45.3125 0 
L 45.3125 8.40625 
Q 42.046875 3.421875 37.71875 1 
Q 33.40625 -1.421875 27.6875 -1.421875 
Q 18.265625 -1.421875 13.375 4.4375 
Q 8.5 10.296875 8.5 21.578125 
z
M 31.109375 56 
z
" id="DejaVuSans-117"/>
      <path d="M 41.109375 46.296875 
Q 39.59375 47.171875 37.8125 47.578125 
Q 36.03125 48 33.890625 48 
Q 26.265625 48 22.1875 43.046875 
Q 18.109375 38.09375 18.109375 28.8125 
L 18.109375 0 
L 9.078125 0 
L 9.078125 54.6875 
L 18.109375 54.6875 
L 18.109375 46.1875 
Q 20.953125 51.171875 25.484375 53.578125 
Q 30.03125 56 36.53125 56 
Q 37.453125 56 38.578125 55.875 
Q 39.703125 55.765625 41.0625 55.515625 
z
" id="DejaVuSans-114"/>
     </defs>
     <g transform="translate(227.628906 201.796563)scale(0.1 -0.1)">
      <use xlink:href="#DejaVuSans-104"/>
      <use x="63.378906" xlink:href="#DejaVuSans-111"/>
      <use x="124.560547" xlink:href="#DejaVuSans-117"/>
      <use x="187.939453" xlink:href="#DejaVuSans-114"/>
     </g>
    </g>
   </g>
   <g id="matplotlib.axis_2">
    <g id="ytick_1">
     <g id="line2d_7">
      <defs>
       <path d="M 0 0 
L -3.5 0 
" id="me24bda2ff4" style="stroke:#000000;stroke-width:0.8;"/>
      </defs>
      <g>
       <use style="stroke:#000000;stroke-width:0.8;" x="43.78125" xlink:href="#me24bda2ff4" y="165.960861"/>
      </g>
     </g>
     <g id="text_8">
      <!-- 0.0 -->
      <defs>
       <path d="M 10.6875 12.40625 
L 21 12.40625 
L 21 0 
L 10.6875 0 
z
" id="DejaVuSans-46"/>
      </defs>
      <g transform="translate(20.878125 169.76008)scale(0.1 -0.1)">
       <use xlink:href="#DejaVuSans-48"/>
       <use x="63.623047" xlink:href="#DejaVuSans-46"/>
       <use x="95.410156" xlink:href="#DejaVuSans-48"/>
      </g>
     </g>
    </g>
    <g id="ytick_2">
     <g id="line2d_8">
      <g>
       <use style="stroke:#000000;stroke-width:0.8;" x="43.78125" xlink:href="#me24bda2ff4" y="142.768138"/>
      </g>
     </g>
     <g id="text_9">
      <!-- 0.5 -->
      <g transform="translate(20.878125 146.567357)scale(0.1 -0.1)">
       <use xlink:href="#DejaVuSans-48"/>
       <use x="63.623047" xlink:href="#DejaVuSans-46"/>
       <use x="95.410156" xlink:href="#DejaVuSans-53"/>
      </g>
     </g>
    </g>
    <g id="ytick_3">
     <g id="line2d_9">
      <g>
       <use style="stroke:#000000;stroke-width:0.8;" x="43.78125" xlink:href="#me24bda2ff4" y="119.575415"/>
      </g>
     </g>
     <g id="text_10">
      <!-- 1.0 -->
      <g transform="translate(20.878125 123.374634)scale(0.1 -0.1)">
       <use xlink:href="#DejaVuSans-49"/>
       <use x="63.623047" xlink:href="#DejaVuSans-46"/>
       <use x="95.410156" xlink:href="#DejaVuSans-48"/>
      </g>
     </g>
    </g>
    <g id="ytick_4">
     <g id="line2d_10">
      <g>
       <use style="stroke:#000000;stroke-width:0.8;" x="43.78125" xlink:href="#me24bda2ff4" y="96.382692"/>
      </g>
     </g>
     <g id="text_11">
      <!-- 1.5 -->
      <g transform="translate(20.878125 100.181911)scale(0.1 -0.1)">
       <use xlink:href="#DejaVuSans-49"/>
       <use x="63.623047" xlink:href="#DejaVuSans-46"/>
       <use x="95.410156" xlink:href="#DejaVuSans-53"/>
      </g>
     </g>
    </g>
    <g id="ytick_5">
     <g id="line2d_11">
      <g>
       <use style="stroke:#000000;stroke-width:0.8;" x="43.78125" xlink:href="#me24bda2ff4" y="73.189969"/>
      </g>
     </g>
     <g id="text_12">
      <!-- 2.0 -->
      <g transform="translate(20.878125 76.989187)scale(0.1 -0.1)">
       <use xlink:href="#DejaVuSans-50"/>
       <use x="63.623047" xlink:href="#DejaVuSans-46"/>
       <use x="95.410156" xlink:href="#DejaVuSans-48"/>
      </g>
     </g>
    </g>
    <g id="ytick_6">
     <g id="line2d_12">
      <g>
       <use style="stroke:#000000;stroke-width:0.8;" x="43.78125" xlink:href="#me24bda2ff4" y="49.997246"/>
      </g>
     </g>
     <g id="text_13">
      <!-- 2.5 -->
      <g transform="translate(20.878125 53.796464)scale(0.1 -0.1)">
       <use xlink:href="#DejaVuSans-50"/>
       <use x="63.623047" xlink:href="#DejaVuSans-46"/>
       <use x="95.410156" xlink:href="#DejaVuSans-53"/>
      </g>
     </g>
    </g>
    <g id="ytick_7">
     <g id="line2d_13">
      <g>
       <use style="stroke:#000000;stroke-width:0.8;" x="43.78125" xlink:href="#me24bda2ff4" y="26.804523"/>
      </g>
     </g>
     <g id="text_14">
      <!-- 3.0 -->
      <defs>
       <path d="M 40.578125 39.3125 
Q 47.65625 37.796875 51.625 33 
Q 55.609375 28.21875 55.609375 21.1875 
Q 55.609375 10.40625 48.1875 4.484375 
Q 40.765625 -1.421875 27.09375 -1.421875 
Q 22.515625 -1.421875 17.65625 -0.515625 
Q 12.796875 0.390625 7.625 2.203125 
L 7.625 11.71875 
Q 11.71875 9.328125 16.59375 8.109375 
Q 21.484375 6.890625 26.8125 6.890625 
Q 36.078125 6.890625 40.9375 10.546875 
Q 45.796875 14.203125 45.796875 21.1875 
Q 45.796875 27.640625 41.28125 31.265625 
Q 36.765625 34.90625 28.71875 34.90625 
L 20.21875 34.90625 
L 20.21875 43.015625 
L 29.109375 43.015625 
Q 36.375 43.015625 40.234375 45.921875 
Q 44.09375 48.828125 44.09375 54.296875 
Q 44.09375 59.90625 40.109375 62.90625 
Q 36.140625 65.921875 28.71875 65.921875 
Q 24.65625 65.921875 20.015625 65.03125 
Q 15.375 64.15625 9.8125 62.3125 
L 9.8125 71.09375 
Q 15.4375 72.65625 20.34375 73.4375 
Q 25.25 74.21875 29.59375 74.21875 
Q 40.828125 74.21875 47.359375 69.109375 
Q 53.90625 64.015625 53.90625 55.328125 
Q 53.90625 49.265625 50.4375 45.09375 
Q 46.96875 40.921875 40.578125 39.3125 
z
" id="DejaVuSans-51"/>
      </defs>
      <g transform="translate(20.878125 30.603741)scale(0.1 -0.1)">
       <use xlink:href="#DejaVuSans-51"/>
       <use x="63.623047" xlink:href="#DejaVuSans-46"/>
       <use x="95.410156" xlink:href="#DejaVuSans-48"/>
      </g>
     </g>
    </g>
    <g id="text_15">
     <!-- precipitation [mm/hour] -->
     <defs>
      <path d="M 18.109375 8.203125 
L 18.109375 -20.796875 
L 9.078125 -20.796875 
L 9.078125 54.6875 
L 18.109375 54.6875 
L 18.109375 46.390625 
Q 20.953125 51.265625 25.265625 53.625 
Q 29.59375 56 35.59375 56 
Q 45.5625 56 51.78125 48.09375 
Q 58.015625 40.1875 58.015625 27.296875 
Q 58.015625 14.40625 51.78125 6.484375 
Q 45.5625 -1.421875 35.59375 -1.421875 
Q 29.59375 -1.421875 25.265625 0.953125 
Q 20.953125 3.328125 18.109375 8.203125 
z
M 48.6875 27.296875 
Q 48.6875 37.203125 44.609375 42.84375 
Q 40.53125 48.484375 33.40625 48.484375 
Q 26.265625 48.484375 22.1875 42.84375 
Q 18.109375 37.203125 18.109375 27.296875 
Q 18.109375 17.390625 22.1875 11.75 
Q 26.265625 6.109375 33.40625 6.109375 
Q 40.53125 6.109375 44.609375 11.75 
Q 48.6875 17.390625 48.6875 27.296875 
z
" id="DejaVuSans-112"/>
      <path d="M 56.203125 29.59375 
L 56.203125 25.203125 
L 14.890625 25.203125 
Q 15.484375 15.921875 20.484375 11.0625 
Q 25.484375 6.203125 34.421875 6.203125 
Q 39.59375 6.203125 44.453125 7.46875 
Q 49.3125 8.734375 54.109375 11.28125 
L 54.109375 2.78125 
Q 49.265625 0.734375 44.1875 -0.34375 
Q 39.109375 -1.421875 33.890625 -1.421875 
Q 20.796875 -1.421875 13.15625 6.1875 
Q 5.515625 13.8125 5.515625 26.8125 
Q 5.515625 40.234375 12.765625 48.109375 
Q 20.015625 56 32.328125 56 
Q 43.359375 56 49.78125 48.890625 
Q 56.203125 41.796875 56.203125 29.59375 
z
M 47.21875 32.234375 
Q 47.125 39.59375 43.09375 43.984375 
Q 39.0625 48.390625 32.421875 48.390625 
Q 24.90625 48.390625 20.390625 44.140625 
Q 15.875 39.890625 15.1875 32.171875 
z
" id="DejaVuSans-101"/>
      <path d="M 48.78125 52.59375 
L 48.78125 44.1875 
Q 44.96875 46.296875 41.140625 47.34375 
Q 37.3125 48.390625 33.40625 48.390625 
Q 24.65625 48.390625 19.8125 42.84375 
Q 14.984375 37.3125 14.984375 27.296875 
Q 14.984375 17.28125 19.8125 11.734375 
Q 24.65625 6.203125 33.40625 6.203125 
Q 37.3125 6.203125 41.140625 7.25 
Q 44.96875 8.296875 48.78125 10.40625 
L 48.78125 2.09375 
Q 45.015625 0.34375 40.984375 -0.53125 
Q 36.96875 -1.421875 32.421875 -1.421875 
Q 20.0625 -1.421875 12.78125 6.34375 
Q 5.515625 14.109375 5.515625 27.296875 
Q 5.515625 40.671875 12.859375 48.328125 
Q 20.21875 56 33.015625 56 
Q 37.15625 56 41.109375 55.140625 
Q 45.0625 54.296875 48.78125 52.59375 
z
" id="DejaVuSans-99"/>
      <path d="M 9.421875 54.6875 
L 18.40625 54.6875 
L 18.40625 0 
L 9.421875 0 
z
M 9.421875 75.984375 
L 18.40625 75.984375 
L 18.40625 64.59375 
L 9.421875 64.59375 
z
" id="DejaVuSans-105"/>
      <path d="M 18.3125 70.21875 
L 18.3125 54.6875 
L 36.8125 54.6875 
L 36.8125 47.703125 
L 18.3125 47.703125 
L 18.3125 18.015625 
Q 18.3125 11.328125 20.140625 9.421875 
Q 21.96875 7.515625 27.59375 7.515625 
L 36.8125 7.515625 
L 36.8125 0 
L 27.59375 0 
Q 17.1875 0 13.234375 3.875 
Q 9.28125 7.765625 9.28125 18.015625 
L 9.28125 47.703125 
L 2.6875 47.703125 
L 2.6875 54.6875 
L 9.28125 54.6875 
L 9.28125 70.21875 
z
" id="DejaVuSans-116"/>
      <path d="M 34.28125 27.484375 
Q 23.390625 27.484375 19.1875 25 
Q 14.984375 22.515625 14.984375 16.5 
Q 14.984375 11.71875 18.140625 8.90625 
Q 21.296875 6.109375 26.703125 6.109375 
Q 34.1875 6.109375 38.703125 11.40625 
Q 43.21875 16.703125 43.21875 25.484375 
L 43.21875 27.484375 
z
M 52.203125 31.203125 
L 52.203125 0 
L 43.21875 0 
L 43.21875 8.296875 
Q 40.140625 3.328125 35.546875 0.953125 
Q 30.953125 -1.421875 24.3125 -1.421875 
Q 15.921875 -1.421875 10.953125 3.296875 
Q 6 8.015625 6 15.921875 
Q 6 25.140625 12.171875 29.828125 
Q 18.359375 34.515625 30.609375 34.515625 
L 43.21875 34.515625 
L 43.21875 35.40625 
Q 43.21875 41.609375 39.140625 45 
Q 35.0625 48.390625 27.6875 48.390625 
Q 23 48.390625 18.546875 47.265625 
Q 14.109375 46.140625 10.015625 43.890625 
L 10.015625 52.203125 
Q 14.9375 54.109375 19.578125 55.046875 
Q 24.21875 56 28.609375 56 
Q 40.484375 56 46.34375 49.84375 
Q 52.203125 43.703125 52.203125 31.203125 
z
" id="DejaVuSans-97"/>
      <path d="M 54.890625 33.015625 
L 54.890625 0 
L 45.90625 0 
L 45.90625 32.71875 
Q 45.90625 40.484375 42.875 44.328125 
Q 39.84375 48.1875 33.796875 48.1875 
Q 26.515625 48.1875 22.3125 43.546875 
Q 18.109375 38.921875 18.109375 30.90625 
L 18.109375 0 
L 9.078125 0 
L 9.078125 54.6875 
L 18.109375 54.6875 
L 18.109375 46.1875 
Q 21.34375 51.125 25.703125 53.5625 
Q 30.078125 56 35.796875 56 
Q 45.21875 56 50.046875 50.171875 
Q 54.890625 44.34375 54.890625 33.015625 
z
" id="DejaVuSans-110"/>
      <path id="DejaVuSans-32"/>
      <path d="M 8.59375 75.984375 
L 29.296875 75.984375 
L 29.296875 69 
L 17.578125 69 
L 17.578125 -6.203125 
L 29.296875 -6.203125 
L 29.296875 -13.1875 
L 8.59375 -13.1875 
z
" id="DejaVuSans-91"/>
      <path d="M 52 44.1875 
Q 55.375 50.25 60.0625 53.125 
Q 64.75 56 71.09375 56 
Q 79.640625 56 84.28125 50.015625 
Q 88.921875 44.046875 88.921875 33.015625 
L 88.921875 0 
L 79.890625 0 
L 79.890625 32.71875 
Q 79.890625 40.578125 77.09375 44.375 
Q 74.3125 48.1875 68.609375 48.1875 
Q 61.625 48.1875 57.5625 43.546875 
Q 53.515625 38.921875 53.515625 30.90625 
L 53.515625 0 
L 44.484375 0 
L 44.484375 32.71875 
Q 44.484375 40.625 41.703125 44.40625 
Q 38.921875 48.1875 33.109375 48.1875 
Q 26.21875 48.1875 22.15625 43.53125 
Q 18.109375 38.875 18.109375 30.90625 
L 18.109375 0 
L 9.078125 0 
L 9.078125 54.6875 
L 18.109375 54.6875 
L 18.109375 46.1875 
Q 21.1875 51.21875 25.484375 53.609375 
Q 29.78125 56 35.6875 56 
Q 41.65625 56 45.828125 52.96875 
Q 50 49.953125 52 44.1875 
z
" id="DejaVuSans-109"/>
      <path d="M 25.390625 72.90625 
L 33.6875 72.90625 
L 8.296875 -9.28125 
L 0 -9.28125 
z
" id="DejaVuSans-47"/>
      <path d="M 30.421875 75.984375 
L 30.421875 -13.1875 
L 9.71875 -13.1875 
L 9.71875 -6.203125 
L 21.390625 -6.203125 
L 21.390625 69 
L 9.71875 69 
L 9.71875 75.984375 
z
" id="DejaVuSans-93"/>
     </defs>
     <g transform="translate(14.798438 150.335781)rotate(-90)scale(0.1 -0.1)">
      <use xlink:href="#DejaVuSans-112"/>
      <use x="63.476562" xlink:href="#DejaVuSans-114"/>
      <use x="104.558594" xlink:href="#DejaVuSans-101"/>
      <use x="166.082031" xlink:href="#DejaVuSans-99"/>
      <use x="221.0625" xlink:href="#DejaVuSans-105"/>
      <use x="248.845703" xlink:href="#DejaVuSans-112"/>
      <use x="312.322266" xlink:href="#DejaVuSans-105"/>
      <use x="340.105469" xlink:href="#DejaVuSans-116"/>
      <use x="379.314453" xlink:href="#DejaVuSans-97"/>
      <use x="440.59375" xlink:href="#DejaVuSans-116"/>
      <use x="479.802734" xlink:href="#DejaVuSans-105"/>
      <use x="507.585938" xlink:href="#DejaVuSans-111"/>
      <use x="568.767578" xlink:href="#DejaVuSans-110"/>
      <use x="632.146484" xlink:href="#DejaVuSans-32"/>
      <use x="663.933594" xlink:href="#DejaVuSans-91"/>
      <use x="702.947266" xlink:href="#DejaVuSans-109"/>
      <use x="800.359375" xlink:href="#DejaVuSans-109"/>
      <use x="897.771484" xlink:href="#DejaVuSans-47"/>
      <use x="931.462891" xlink:href="#DejaVuSans-104"/>
      <use x="994.841797" xlink:href="#DejaVuSans-111"/>
      <use x="1056.023438" xlink:href="#DejaVuSans-117"/>
      <use x="1119.402344" xlink:href="#DejaVuSans-114"/>
      <use x="1160.515625" xlink:href="#DejaVuSans-93"/>
     </g>
    </g>
   </g>
   <g id="line2d_14">
    <path clip-path="url(#p4cbd39ad61)" d="M 61.535795 155.828117 
L 76.974531 165.190856 
L 92.413266 165.749321 
L 107.852001 164.878541 
L 123.290736 165.239945 
L 138.729471 165.800601 
L 154.168207 165.602 
L 169.606942 163.559945 
L 185.045677 160.323456 
L 200.484412 158.776458 
L 215.923147 105.827528 
L 231.361882 97.047557 
L 246.800618 148.203443 
L 262.239353 134.816464 
L 277.678088 157.738575 
L 293.116823 163.513085 
L 308.555558 165.099357 
L 323.994293 165.38905 
L 339.433029 165.62877 
L 354.871764 165.683078 
L 370.310499 165.581866 
L 385.749234 165.800977 
L 401.187969 162.566365 
L 416.626705 156.658949 
" style="fill:none;stroke:#1b9e77;stroke-linecap:square;stroke-opacity:0.5;stroke-width:1.5;"/>
   </g>
   <g id="line2d_15">
    <path clip-path="url(#p4cbd39ad61)" d="M 61.535795 62.320636 
L 76.974531 157.816529 
L 92.413266 155.08442 
L 107.852001 147.271577 
L 123.290736 155.868475 
L 138.729471 155.323406 
L 154.168207 165.840101 
L 169.606942 165.812956 
L 185.045677 165.85189 
L 200.484412 165.837302 
L 215.923147 165.845203 
L 231.361882 165.874308 
L 246.800618 165.876228 
L 262.239353 165.937104 
L 277.678088 165.370671 
L 293.116823 156.229583 
L 308.555558 163.060048 
L 323.994293 162.377402 
L 339.433029 158.038542 
L 354.871764 158.742583 
L 370.310499 161.702391 
L 385.749234 146.419264 
L 401.187969 157.810606 
L 416.626705 160.193087 
" style="fill:none;stroke:#1b9e77;stroke-linecap:square;stroke-opacity:0.5;stroke-width:1.5;"/>
   </g>
   <g id="line2d_16">
    <path clip-path="url(#p4cbd39ad61)" d="M 61.535795 165.894435 
L 76.974531 165.58327 
L 92.413266 164.931777 
L 107.852001 164.677209 
L 123.290736 164.59086 
L 138.729471 165.699747 
L 154.168207 160.926237 
L 169.606942 152.750809 
L 185.045677 152.088092 
L 200.484412 133.053096 
L 215.923147 104.389606 
L 231.361882 119.386137 
L 246.800618 156.552486 
L 262.239353 163.388301 
L 277.678088 123.524102 
L 293.116823 165.575804 
L 308.555558 165.917164 
L 323.994293 165.924751 
L 339.433029 165.93181 
L 354.871764 165.929742 
L 370.310499 165.93666 
L 385.749234 165.942141 
L 401.187969 165.950216 
L 416.626705 165.959852 
" style="fill:none;stroke:#1b9e77;stroke-linecap:square;stroke-opacity:0.5;stroke-width:1.5;"/>
   </g>
   <g id="line2d_17">
    <path clip-path="url(#p4cbd39ad61)" d="M 61.535795 163.838307 
L 76.974531 164.433239 
L 92.413266 165.018194 
L 107.852001 163.744577 
L 123.290736 164.950719 
L 138.729471 165.589811 
L 154.168207 165.723622 
L 169.606942 165.746356 
L 185.045677 165.48456 
L 200.484412 163.983067 
L 215.923147 156.989377 
L 231.361882 156.53505 
L 246.800618 160.58995 
L 262.239353 158.841527 
L 277.678088 161.949447 
L 293.116823 132.848101 
L 308.555558 121.42604 
L 323.994293 135.346109 
L 339.433029 138.801253 
L 354.871764 134.137471 
L 370.310499 149.322375 
L 385.749234 163.742731 
L 401.187969 165.556742 
L 416.626705 165.905677 
" style="fill:none;stroke:#1b9e77;stroke-linecap:square;stroke-opacity:0.5;stroke-width:1.5;"/>
   </g>
   <g id="line2d_18">
    <path clip-path="url(#p4cbd39ad61)" d="M 61.535795 159.445429 
L 76.974531 157.522451 
L 92.413266 165.174181 
L 107.852001 165.402514 
L 123.290736 165.695986 
L 138.729471 165.141488 
L 154.168207 161.749911 
L 169.606942 161.9171 
L 185.045677 164.980871 
L 200.484412 165.836397 
L 215.923147 165.806223 
L 231.361882 165.795585 
L 246.800618 165.756282 
L 262.239353 165.826901 
L 277.678088 165.819368 
L 293.116823 165.848249 
L 308.555558 163.416509 
L 323.994293 82.128473 
L 339.433029 159.432192 
L 354.871764 165.300778 
L 370.310499 164.942641 
L 385.749234 154.354369 
L 401.187969 84.93152 
L 416.626705 148.278884 
" style="fill:none;stroke:#1b9e77;stroke-linecap:square;stroke-opacity:0.5;stroke-width:1.5;"/>
   </g>
   <g id="line2d_19">
    <path clip-path="url(#p4cbd39ad61)" d="M 61.535795 165.955857 
L 76.974531 165.942224 
L 92.413266 165.912339 
L 107.852001 165.882607 
L 123.290736 165.891697 
L 138.729471 165.924755 
L 154.168207 165.932375 
L 169.606942 165.919989 
L 185.045677 165.843099 
L 200.484412 165.949147 
L 215.923147 164.062606 
L 231.361882 157.337999 
L 246.800618 153.104616 
L 262.239353 157.369604 
L 277.678088 148.90478 
L 293.116823 138.028484 
L 308.555558 145.39714 
L 323.994293 130.71954 
L 339.433029 150.331158 
L 354.871764 162.13933 
L 370.310499 151.343962 
L 385.749234 145.686666 
L 401.187969 136.5729 
L 416.626705 150.351432 
" style="fill:none;stroke:#1b9e77;stroke-linecap:square;stroke-opacity:0.5;stroke-width:1.5;"/>
   </g>
   <g id="line2d_20">
    <path clip-path="url(#p4cbd39ad61)" d="M 61.535795 160.749286 
L 76.974531 99.105781 
L 92.413266 134.029788 
L 107.852001 149.568976 
L 123.290736 158.487754 
L 138.729471 155.843953 
L 154.168207 163.866187 
L 169.606942 165.182457 
L 185.045677 165.536947 
L 200.484412 165.388109 
L 215.923147 165.40503 
L 231.361882 165.555628 
L 246.800618 165.598115 
L 262.239353 165.629524 
L 277.678088 164.759914 
L 293.116823 157.148205 
L 308.555558 140.757277 
L 323.994293 165.18601 
L 339.433029 162.74246 
L 354.871764 140.423642 
L 370.310499 164.434273 
L 385.749234 145.003575 
L 401.187969 165.386914 
L 416.626705 164.714495 
" style="fill:none;stroke:#1b9e77;stroke-linecap:square;stroke-opacity:0.5;stroke-width:1.5;"/>
   </g>
   <g id="line2d_21">
    <path clip-path="url(#p4cbd39ad61)" d="M 61.535795 162.953044 
L 76.974531 160.477609 
L 92.413266 156.300935 
L 107.852001 149.201117 
L 123.290736 145.448037 
L 138.729471 146.505378 
L 154.168207 158.834515 
L 169.606942 162.931296 
L 185.045677 155.46278 
L 200.484412 137.498018 
L 215.923147 155.53967 
L 231.361882 164.23359 
L 246.800618 164.875707 
L 262.239353 159.809136 
L 277.678088 147.012085 
L 293.116823 157.178579 
L 308.555558 164.708077 
L 323.994293 165.68864 
L 339.433029 165.632608 
L 354.871764 147.194236 
L 370.310499 128.135475 
L 385.749234 165.751621 
L 401.187969 165.945584 
L 416.626705 163.18657 
" style="fill:none;stroke:#1b9e77;stroke-linecap:square;stroke-opacity:0.5;stroke-width:1.5;"/>
   </g>
   <g id="line2d_22">
    <path clip-path="url(#p4cbd39ad61)" d="M 61.535795 165.275334 
L 76.974531 165.281119 
L 92.413266 165.530583 
L 107.852001 165.551763 
L 123.290736 165.669643 
L 138.729471 165.707547 
L 154.168207 165.612898 
L 169.606942 165.693642 
L 185.045677 165.677553 
L 200.484412 165.451774 
L 215.923147 163.242051 
L 231.361882 162.557831 
L 246.800618 157.761714 
L 262.239353 155.276498 
L 277.678088 141.924667 
L 293.116823 121.679673 
L 308.555558 129.049954 
L 323.994293 162.077229 
L 339.433029 154.432643 
L 354.871764 135.436971 
L 370.310499 154.822787 
L 385.749234 160.976121 
L 401.187969 164.766795 
L 416.626705 131.047516 
" style="fill:none;stroke:#1b9e77;stroke-linecap:square;stroke-opacity:0.5;stroke-width:1.5;"/>
   </g>
   <g id="line2d_23">
    <path clip-path="url(#p4cbd39ad61)" d="M 61.535795 165.823766 
L 76.974531 165.742426 
L 92.413266 165.817022 
L 107.852001 165.844587 
L 123.290736 165.847861 
L 138.729471 165.858973 
L 154.168207 165.815276 
L 169.606942 165.844675 
L 185.045677 154.399171 
L 200.484412 135.100584 
L 215.923147 125.432569 
L 231.361882 152.831527 
L 246.800618 139.884342 
L 262.239353 152.594351 
L 277.678088 148.509931 
L 293.116823 147.978283 
L 308.555558 140.197991 
L 323.994293 160.109607 
L 339.433029 160.923494 
L 354.871764 158.90303 
L 370.310499 163.904545 
L 385.749234 163.367165 
L 401.187969 158.918991 
L 416.626705 160.854141 
" style="fill:none;stroke:#1b9e77;stroke-linecap:square;stroke-opacity:0.5;stroke-width:1.5;"/>
   </g>
   <g id="line2d_24">
    <path clip-path="url(#p4cbd39ad61)" d="M 61.535795 161.862921 
L 76.974531 144.235805 
L 92.413266 147.310728 
L 107.852001 146.874476 
L 123.290736 140.951197 
L 138.729471 142.618284 
L 154.168207 135.706972 
L 169.606942 130.929841 
L 185.045677 138.503795 
L 200.484412 149.946234 
L 215.923147 161.666664 
L 231.361882 162.381284 
L 246.800618 164.796407 
L 262.239353 165.195068 
L 277.678088 165.62034 
L 293.116823 165.705406 
L 308.555558 165.772115 
L 323.994293 165.742791 
L 339.433029 165.764969 
L 354.871764 165.79829 
L 370.310499 165.785361 
L 385.749234 165.766174 
L 401.187969 165.670819 
L 416.626705 165.898364 
" style="fill:none;stroke:#1b9e77;stroke-linecap:square;stroke-opacity:0.5;stroke-width:1.5;"/>
   </g>
   <g id="line2d_25">
    <path clip-path="url(#p4cbd39ad61)" d="M 61.535795 164.892665 
L 76.974531 164.953801 
L 92.413266 165.505864 
L 107.852001 165.394413 
L 123.290736 165.504008 
L 138.729471 165.697251 
L 154.168207 165.81935 
L 169.606942 165.845714 
L 185.045677 165.88385 
L 200.484412 165.918061 
L 215.923147 165.921875 
L 231.361882 165.951086 
L 246.800618 165.786397 
L 262.239353 160.111181 
L 277.678088 161.596668 
L 293.116823 162.411274 
L 308.555558 162.554749 
L 323.994293 160.200191 
L 339.433029 152.266488 
L 354.871764 152.068838 
L 370.310499 153.27827 
L 385.749234 62.500668 
L 401.187969 109.058067 
L 416.626705 161.38358 
" style="fill:none;stroke:#1b9e77;stroke-linecap:square;stroke-opacity:0.5;stroke-width:1.5;"/>
   </g>
   <g id="line2d_26">
    <path clip-path="url(#p4cbd39ad61)" d="M 61.535795 164.473872 
L 76.974531 165.011371 
L 92.413266 165.614768 
L 107.852001 165.871003 
L 123.290736 165.237476 
L 138.729471 158.637152 
L 154.168207 159.263314 
L 169.606942 160.745195 
L 185.045677 160.25875 
L 200.484412 161.369605 
L 215.923147 162.900886 
L 231.361882 164.774587 
L 246.800618 130.318425 
L 262.239353 92.458108 
L 277.678088 144.346226 
L 293.116823 129.619602 
L 308.555558 156.448576 
L 323.994293 159.199989 
L 339.433029 164.049863 
L 354.871764 164.477274 
L 370.310499 163.704845 
L 385.749234 162.56326 
L 401.187969 163.398134 
L 416.626705 165.762028 
" style="fill:none;stroke:#1b9e77;stroke-linecap:square;stroke-opacity:0.5;stroke-width:1.5;"/>
   </g>
   <g id="line2d_27">
    <path clip-path="url(#p4cbd39ad61)" d="M 61.535795 155.210422 
L 76.974531 133.608691 
L 92.413266 152.470893 
L 107.852001 160.452107 
L 123.290736 159.347614 
L 138.729471 134.067596 
L 154.168207 125.097579 
L 169.606942 152.806106 
L 185.045677 154.556913 
L 200.484412 156.125326 
L 215.923147 149.504389 
L 231.361882 144.923134 
L 246.800618 155.268388 
L 262.239353 161.77635 
L 277.678088 163.173407 
L 293.116823 165.276243 
L 308.555558 165.689909 
L 323.994293 165.771743 
L 339.433029 165.85203 
L 354.871764 165.838876 
L 370.310499 165.87679 
L 385.749234 165.916154 
L 401.187969 165.935368 
L 416.626705 165.958273 
" style="fill:none;stroke:#1b9e77;stroke-linecap:square;stroke-opacity:0.5;stroke-width:1.5;"/>
   </g>
   <g id="line2d_28">
    <path clip-path="url(#p4cbd39ad61)" d="M 61.535795 161.300222 
L 76.974531 163.810323 
L 92.413266 165.329892 
L 107.852001 165.168451 
L 123.290736 165.152856 
L 138.729471 165.051482 
L 154.168207 165.087669 
L 169.606942 165.548757 
L 185.045677 165.617284 
L 200.484412 165.1989 
L 215.923147 162.363163 
L 231.361882 163.272958 
L 246.800618 165.139012 
L 262.239353 165.56863 
L 277.678088 164.45558 
L 293.116823 117.03724 
L 308.555558 58.802122 
L 323.994293 155.390236 
L 339.433029 165.26522 
L 354.871764 164.936289 
L 370.310499 156.601572 
L 385.749234 134.926038 
L 401.187969 163.643535 
L 416.626705 165.836876 
" style="fill:none;stroke:#1b9e77;stroke-linecap:square;stroke-opacity:0.5;stroke-width:1.5;"/>
   </g>
   <g id="line2d_29">
    <path clip-path="url(#p4cbd39ad61)" d="M 61.535795 165.842698 
L 76.974531 165.948171 
L 92.413266 165.014754 
L 107.852001 163.831947 
L 123.290736 159.65204 
L 138.729471 163.924961 
L 154.168207 165.899503 
L 169.606942 162.119387 
L 185.045677 139.074295 
L 200.484412 97.480534 
L 215.923147 159.689861 
L 231.361882 165.647985 
L 246.800618 162.532303 
L 262.239353 127.989945 
L 277.678088 93.755673 
L 293.116823 165.073417 
L 308.555558 165.777975 
L 323.994293 165.794021 
L 339.433029 165.86082 
L 354.871764 165.863246 
L 370.310499 165.900855 
L 385.749234 165.928149 
L 401.187969 165.942675 
L 416.626705 165.95908 
" style="fill:none;stroke:#1b9e77;stroke-linecap:square;stroke-opacity:0.5;stroke-width:1.5;"/>
   </g>
   <g id="line2d_30">
    <path clip-path="url(#p4cbd39ad61)" d="M 61.535795 117.65444 
L 76.974531 147.5446 
L 92.413266 154.934297 
L 107.852001 159.664988 
L 123.290736 164.281429 
L 138.729471 132.404225 
L 154.168207 98.86316 
L 169.606942 156.833801 
L 185.045677 162.332918 
L 200.484412 157.830044 
L 215.923147 160.39244 
L 231.361882 164.444012 
L 246.800618 165.097886 
L 262.239353 164.464728 
L 277.678088 162.442398 
L 293.116823 161.151465 
L 308.555558 163.774615 
L 323.994293 165.090033 
L 339.433029 165.396501 
L 354.871764 164.348772 
L 370.310499 164.321655 
L 385.749234 165.521445 
L 401.187969 165.781841 
L 416.626705 165.932621 
" style="fill:none;stroke:#1b9e77;stroke-linecap:square;stroke-opacity:0.5;stroke-width:1.5;"/>
   </g>
   <g id="line2d_31">
    <path clip-path="url(#p4cbd39ad61)" d="M 61.535795 141.019382 
L 76.974531 107.533259 
L 92.413266 155.075252 
L 107.852001 161.458838 
L 123.290736 163.121599 
L 138.729471 162.17258 
L 154.168207 155.225775 
L 169.606942 158.07299 
L 185.045677 164.290241 
L 200.484412 165.861632 
L 215.923147 165.925742 
L 231.361882 140.576211 
L 246.800618 147.437353 
L 262.239353 165.613835 
L 277.678088 165.895908 
L 293.116823 165.888692 
L 308.555558 165.869643 
L 323.994293 165.842943 
L 339.433029 165.824516 
L 354.871764 165.933183 
L 370.310499 165.782798 
L 385.749234 149.300252 
L 401.187969 135.392325 
L 416.626705 151.389355 
" style="fill:none;stroke:#1b9e77;stroke-linecap:square;stroke-opacity:0.5;stroke-width:1.5;"/>
   </g>
   <g id="line2d_32">
    <path clip-path="url(#p4cbd39ad61)" d="M 61.535795 163.55344 
L 76.974531 147.309974 
L 92.413266 137.989669 
L 107.852001 139.525434 
L 123.290736 145.176199 
L 138.729471 162.626803 
L 154.168207 165.59963 
L 169.606942 165.660097 
L 185.045677 165.777266 
L 200.484412 165.792508 
L 215.923147 165.790461 
L 231.361882 165.8906 
L 246.800618 165.843551 
L 262.239353 164.525136 
L 277.678088 164.869672 
L 293.116823 163.13863 
L 308.555558 156.439769 
L 323.994293 136.573694 
L 339.433029 131.84143 
L 354.871764 156.80645 
L 370.310499 159.509579 
L 385.749234 155.733161 
L 401.187969 147.041389 
L 416.626705 157.489762 
" style="fill:none;stroke:#1b9e77;stroke-linecap:square;stroke-opacity:0.5;stroke-width:1.5;"/>
   </g>
   <g id="line2d_33">
    <path clip-path="url(#p4cbd39ad61)" d="M 61.535795 165.951903 
L 76.974531 165.889618 
L 92.413266 164.955246 
L 107.852001 164.957295 
L 123.290736 160.141754 
L 138.729471 160.19742 
L 154.168207 159.020477 
L 169.606942 161.857231 
L 185.045677 163.591947 
L 200.484412 146.838998 
L 215.923147 100.805556 
L 231.361882 108.159096 
L 246.800618 162.979113 
L 262.239353 150.793181 
L 277.678088 158.154952 
L 293.116823 165.786948 
L 308.555558 165.858613 
L 323.994293 164.382953 
L 339.433029 158.981805 
L 354.871764 160.298046 
L 370.310499 156.893317 
L 385.749234 159.841933 
L 401.187969 160.07956 
L 416.626705 164.087349 
" style="fill:none;stroke:#1b9e77;stroke-linecap:square;stroke-opacity:0.5;stroke-width:1.5;"/>
   </g>
   <g id="line2d_34">
    <path clip-path="url(#p4cbd39ad61)" d="M 61.535795 165.913336 
L 76.974531 165.663082 
L 92.413266 165.383138 
L 107.852001 165.712594 
L 123.290736 164.581876 
L 138.729471 160.340504 
L 154.168207 163.213469 
L 169.606942 160.854862 
L 185.045677 153.714624 
L 200.484412 150.626301 
L 215.923147 144.485427 
L 231.361882 156.57289 
L 246.800618 165.24844 
L 262.239353 14.76 
L 277.678088 162.775834 
L 293.116823 165.006141 
L 308.555558 165.45883 
L 323.994293 165.361685 
L 339.433029 165.557862 
L 354.871764 165.698589 
L 370.310499 165.827451 
L 385.749234 165.88121 
L 401.187969 165.912732 
L 416.626705 165.953423 
" style="fill:none;stroke:#1b9e77;stroke-linecap:square;stroke-opacity:0.5;stroke-width:1.5;"/>
   </g>
   <g id="line2d_35">
    <path clip-path="url(#p4cbd39ad61)" d="M 61.535795 165.951956 
L 76.974531 165.920767 
L 92.413266 165.912252 
L 107.852001 165.906782 
L 123.290736 165.893269 
L 138.729471 165.471168 
L 154.168207 163.133173 
L 169.606942 162.212025 
L 185.045677 158.512678 
L 200.484412 153.460602 
L 215.923147 159.032774 
L 231.361882 156.288088 
L 246.800618 152.978182 
L 262.239353 164.700179 
L 277.678088 164.501922 
L 293.116823 164.075166 
L 308.555558 163.169449 
L 323.994293 161.149626 
L 339.433029 142.391035 
L 354.871764 151.49373 
L 370.310499 141.252307 
L 385.749234 128.264734 
L 401.187969 117.752164 
L 416.626705 151.080278 
" style="fill:none;stroke:#1b9e77;stroke-linecap:square;stroke-opacity:0.5;stroke-width:1.5;"/>
   </g>
   <g id="line2d_36">
    <path clip-path="url(#p4cbd39ad61)" d="M 61.535795 165.061337 
L 76.974531 165.022303 
L 92.413266 165.03932 
L 107.852001 164.319773 
L 123.290736 150.377338 
L 138.729471 154.139621 
L 154.168207 148.958259 
L 169.606942 153.366852 
L 185.045677 158.026508 
L 200.484412 164.00566 
L 215.923147 162.262379 
L 231.361882 158.475128 
L 246.800618 163.362323 
L 262.239353 163.45675 
L 277.678088 161.961012 
L 293.116823 160.989973 
L 308.555558 162.584218 
L 323.994293 160.560432 
L 339.433029 119.43785 
L 354.871764 114.223537 
L 370.310499 151.402364 
L 385.749234 154.796274 
L 401.187969 162.849191 
L 416.626705 165.825897 
" style="fill:none;stroke:#1b9e77;stroke-linecap:square;stroke-opacity:0.5;stroke-width:1.5;"/>
   </g>
   <g id="line2d_37">
    <path clip-path="url(#p4cbd39ad61)" d="M 61.535795 158.417839 
L 76.974531 157.752645 
L 92.413266 163.979503 
L 107.852001 164.441164 
L 123.290736 165.049291 
L 138.729471 165.436566 
L 154.168207 165.211814 
L 169.606942 161.186535 
L 185.045677 155.662858 
L 200.484412 161.625978 
L 215.923147 158.944941 
L 231.361882 156.706934 
L 246.800618 146.510161 
L 262.239353 116.780391 
L 277.678088 109.61849 
L 293.116823 130.226512 
L 308.555558 163.450195 
L 323.994293 163.788242 
L 339.433029 163.861073 
L 354.871764 161.828817 
L 370.310499 163.159212 
L 385.749234 165.286352 
L 401.187969 165.68301 
L 416.626705 165.895778 
" style="fill:none;stroke:#1b9e77;stroke-linecap:square;stroke-opacity:0.5;stroke-width:1.5;"/>
   </g>
   <g id="line2d_38">
    <path clip-path="url(#p4cbd39ad61)" d="M 61.535795 163.881831 
L 76.974531 157.864298 
L 92.413266 164.847834 
L 107.852001 165.537946 
L 123.290736 165.497638 
L 138.729471 164.564132 
L 154.168207 163.908802 
L 169.606942 164.163573 
L 185.045677 164.116923 
L 200.484412 165.367563 
L 215.923147 164.233647 
L 231.361882 151.314738 
L 246.800618 139.791291 
L 262.239353 154.239644 
L 277.678088 126.074074 
L 293.116823 134.485895 
L 308.555558 158.424123 
L 323.994293 157.747005 
L 339.433029 140.514485 
L 354.871764 142.048165 
L 370.310499 159.670504 
L 385.749234 163.175834 
L 401.187969 159.555564 
L 416.626705 159.478795 
" style="fill:none;stroke:#1b9e77;stroke-linecap:square;stroke-opacity:0.5;stroke-width:1.5;"/>
   </g>
   <g id="line2d_39">
    <path clip-path="url(#p4cbd39ad61)" d="M 61.535795 165.564106 
L 76.974531 165.562602 
L 92.413266 165.790816 
L 107.852001 165.805999 
L 123.290736 165.831315 
L 138.729471 165.847256 
L 154.168207 165.773321 
L 169.606942 165.836519 
L 185.045677 165.319845 
L 200.484412 160.877769 
L 215.923147 160.798598 
L 231.361882 153.734158 
L 246.800618 151.185818 
L 262.239353 149.006791 
L 277.678088 121.771315 
L 293.116823 80.940654 
L 308.555558 138.35114 
L 323.994293 154.212489 
L 339.433029 163.129533 
L 354.871764 163.729326 
L 370.310499 164.608506 
L 385.749234 165.290928 
L 401.187969 165.629393 
L 416.626705 165.906107 
" style="fill:none;stroke:#1b9e77;stroke-linecap:square;stroke-opacity:0.5;stroke-width:1.5;"/>
   </g>
   <g id="line2d_40">
    <path clip-path="url(#p4cbd39ad61)" d="M 61.535795 165.053905 
L 76.974531 161.221875 
L 92.413266 116.923121 
L 107.852001 129.109117 
L 123.290736 147.163626 
L 138.729471 140.300092 
L 154.168207 141.959222 
L 169.606942 129.562999 
L 185.045677 156.550944 
L 200.484412 165.138221 
L 215.923147 165.37014 
L 231.361882 157.663692 
L 246.800618 158.48896 
L 262.239353 164.888505 
L 277.678088 165.580797 
L 293.116823 165.589971 
L 308.555558 165.582203 
L 323.994293 165.652984 
L 339.433029 165.735557 
L 354.871764 165.678707 
L 370.310499 165.496252 
L 385.749234 165.716574 
L 401.187969 165.544877 
L 416.626705 160.531958 
" style="fill:none;stroke:#1b9e77;stroke-linecap:square;stroke-opacity:0.5;stroke-width:1.5;"/>
   </g>
   <g id="line2d_41">
    <path clip-path="url(#p4cbd39ad61)" d="M 61.535795 163.185387 
L 76.974531 161.36142 
L 92.413266 159.898031 
L 107.852001 158.040002 
L 123.290736 159.753895 
L 138.729471 139.735127 
L 154.168207 127.04387 
L 169.606942 89.882056 
L 185.045677 123.488624 
L 200.484412 153.528693 
L 215.923147 165.160443 
L 231.361882 165.174644 
L 246.800618 165.683213 
L 262.239353 165.782028 
L 277.678088 165.857423 
L 293.116823 165.861107 
L 308.555558 165.874764 
L 323.994293 165.910678 
L 339.433029 165.814367 
L 354.871764 165.573607 
L 370.310499 165.164216 
L 385.749234 164.497907 
L 401.187969 163.216535 
L 416.626705 165.016264 
" style="fill:none;stroke:#1b9e77;stroke-linecap:square;stroke-opacity:0.5;stroke-width:1.5;"/>
   </g>
   <g id="line2d_42">
    <path clip-path="url(#p4cbd39ad61)" d="M 61.535795 161.389775 
L 76.974531 130.908143 
L 92.413266 91.032097 
L 107.852001 137.869498 
L 123.290736 157.171889 
L 138.729471 159.418529 
L 154.168207 162.598565 
L 169.606942 159.77439 
L 185.045677 162.275731 
L 200.484412 163.915431 
L 215.923147 165.394309 
L 231.361882 165.446986 
L 246.800618 165.412327 
L 262.239353 165.158649 
L 277.678088 164.915168 
L 293.116823 165.30394 
L 308.555558 165.302548 
L 323.994293 165.827154 
L 339.433029 165.315224 
L 354.871764 156.871038 
L 370.310499 151.195522 
L 385.749234 151.020244 
L 401.187969 162.818547 
L 416.626705 154.168593 
" style="fill:none;stroke:#1b9e77;stroke-linecap:square;stroke-opacity:0.5;stroke-width:1.5;"/>
   </g>
   <g id="line2d_43">
    <path clip-path="url(#p4cbd39ad61)" d="M 61.535795 165.497791 
L 76.974531 164.283445 
L 92.413266 162.423113 
L 107.852001 156.39424 
L 123.290736 143.413159 
L 138.729471 143.720397 
L 154.168207 156.307671 
L 169.606942 139.685598 
L 185.045677 94.738782 
L 200.484412 153.723974 
L 215.923147 161.704688 
L 231.361882 145.78294 
L 246.800618 161.875647 
L 262.239353 165.587377 
L 277.678088 165.824027 
L 293.116823 165.804728 
L 308.555558 165.66118 
L 323.994293 165.629938 
L 339.433029 157.96 
L 354.871764 164.006889 
L 370.310499 162.079722 
L 385.749234 162.588807 
L 401.187969 161.364604 
L 416.626705 164.445582 
" style="fill:none;stroke:#1b9e77;stroke-linecap:square;stroke-opacity:0.5;stroke-width:1.5;"/>
   </g>
   <g id="line2d_44">
    <path clip-path="url(#p4cbd39ad61)" d="M 61.535795 161.735766 
L 76.974531 163.748846 
L 92.413266 165.090237 
L 107.852001 165.443145 
L 123.290736 164.853749 
L 138.729471 124.819936 
L 154.168207 90.52707 
L 169.606942 137.561146 
L 185.045677 158.861697 
L 200.484412 161.893878 
L 215.923147 159.056262 
L 231.361882 119.223148 
L 246.800618 160.35766 
L 262.239353 165.576018 
L 277.678088 165.864715 
L 293.116823 165.859572 
L 308.555558 165.898717 
L 323.994293 165.916633 
L 339.433029 165.923966 
L 354.871764 165.944599 
L 370.310499 165.951311 
L 385.749234 164.81588 
L 401.187969 161.788184 
L 416.626705 163.792164 
" style="fill:none;stroke:#1b9e77;stroke-linecap:square;stroke-opacity:0.5;stroke-width:1.5;"/>
   </g>
   <g id="line2d_45">
    <path clip-path="url(#p4cbd39ad61)" d="M 61.535795 164.280227 
L 76.974531 165.103216 
L 92.413266 165.285133 
L 107.852001 154.521966 
L 123.290736 160.537563 
L 138.729471 165.160948 
L 154.168207 164.986914 
L 169.606942 165.348886 
L 185.045677 161.655674 
L 200.484412 158.39208 
L 215.923147 148.728411 
L 231.361882 139.682391 
L 246.800618 133.181711 
L 262.239353 75.45715 
L 277.678088 140.004412 
L 293.116823 162.533121 
L 308.555558 165.213293 
L 323.994293 165.483519 
L 339.433029 165.726669 
L 354.871764 165.70269 
L 370.310499 165.806573 
L 385.749234 165.860741 
L 401.187969 165.897136 
L 416.626705 165.95388 
" style="fill:none;stroke:#1b9e77;stroke-linecap:square;stroke-opacity:0.5;stroke-width:1.5;"/>
   </g>
   <g id="line2d_46">
    <path clip-path="url(#p4cbd39ad61)" d="M 61.535795 165.573406 
L 76.974531 163.902965 
L 92.413266 162.600471 
L 107.852001 160.038019 
L 123.290736 148.636185 
L 138.729471 157.737254 
L 154.168207 159.259751 
L 169.606942 159.363981 
L 185.045677 156.786716 
L 200.484412 150.385314 
L 215.923147 138.159438 
L 231.361882 146.881385 
L 246.800618 153.491598 
L 262.239353 79.936964 
L 277.678088 156.337554 
L 293.116823 164.573562 
L 308.555558 165.642748 
L 323.994293 165.750713 
L 339.433029 165.843115 
L 354.871764 165.864431 
L 370.310499 165.905247 
L 385.749234 165.929954 
L 401.187969 165.944098 
L 416.626705 165.959436 
" style="fill:none;stroke:#1b9e77;stroke-linecap:square;stroke-opacity:0.5;stroke-width:1.5;"/>
   </g>
   <g id="line2d_47">
    <path clip-path="url(#p4cbd39ad61)" d="M 61.535795 162.823519 
L 76.974531 160.434334 
L 92.413266 164.619683 
L 107.852001 165.484246 
L 123.290736 165.131313 
L 138.729471 133.51531 
L 154.168207 101.91688 
L 169.606942 114.751512 
L 185.045677 126.004957 
L 200.484412 150.586895 
L 215.923147 161.296404 
L 231.361882 160.401775 
L 246.800618 162.988417 
L 262.239353 165.156508 
L 277.678088 165.547554 
L 293.116823 165.619203 
L 308.555558 165.837497 
L 323.994293 165.932576 
L 339.433029 164.975974 
L 354.871764 164.32347 
L 370.310499 165.323034 
L 385.749234 165.951525 
L 401.187969 165.956027 
L 416.626705 165.925692 
" style="fill:none;stroke:#1b9e77;stroke-linecap:square;stroke-opacity:0.5;stroke-width:1.5;"/>
   </g>
   <g id="line2d_48">
    <path clip-path="url(#p4cbd39ad61)" d="M 61.535795 148.740043 
L 76.974531 139.696832 
L 92.413266 126.053001 
L 107.852001 152.665269 
L 123.290736 161.143792 
L 138.729471 155.389193 
L 154.168207 165.760575 
L 169.606942 165.789017 
L 185.045677 165.845668 
L 200.484412 165.84714 
L 215.923147 165.860825 
L 231.361882 165.897276 
L 246.800618 165.902824 
L 262.239353 165.945744 
L 277.678088 165.927792 
L 293.116823 149.014373 
L 308.555558 161.20901 
L 323.994293 157.637605 
L 339.433029 108.575335 
L 354.871764 156.834319 
L 370.310499 155.323848 
L 385.749234 160.702355 
L 401.187969 160.698216 
L 416.626705 164.044259 
" style="fill:none;stroke:#1b9e77;stroke-linecap:square;stroke-opacity:0.5;stroke-width:1.5;"/>
   </g>
   <g id="line2d_49">
    <path clip-path="url(#p4cbd39ad61)" d="M 61.535795 154.011522 
L 76.974531 161.463619 
L 92.413266 165.291093 
L 107.852001 165.242394 
L 123.290736 165.249298 
L 138.729471 160.625326 
L 154.168207 160.006534 
L 169.606942 165.696919 
L 185.045677 165.714514 
L 200.484412 148.739997 
L 215.923147 103.212006 
L 231.361882 115.423367 
L 246.800618 158.470318 
L 262.239353 164.11148 
L 277.678088 158.125348 
L 293.116823 118.947598 
L 308.555558 159.313064 
L 323.994293 165.613086 
L 339.433029 165.864318 
L 354.871764 165.795181 
L 370.310499 165.821993 
L 385.749234 165.885163 
L 401.187969 165.923981 
L 416.626705 165.956186 
" style="fill:none;stroke:#1b9e77;stroke-linecap:square;stroke-opacity:0.5;stroke-width:1.5;"/>
   </g>
   <g id="line2d_50">
    <path clip-path="url(#p4cbd39ad61)" d="M 61.535795 160.610845 
L 76.974531 158.139679 
L 92.413266 157.704824 
L 107.852001 155.958853 
L 123.290736 131.444832 
L 138.729471 87.182296 
L 154.168207 127.409527 
L 169.606942 161.803949 
L 185.045677 164.702861 
L 200.484412 164.251157 
L 215.923147 160.81924 
L 231.361882 160.416284 
L 246.800618 164.485914 
L 262.239353 165.861067 
L 277.678088 163.206541 
L 293.116823 158.987294 
L 308.555558 163.79105 
L 323.994293 164.00861 
L 339.433029 164.511971 
L 354.871764 164.597027 
L 370.310499 164.763186 
L 385.749234 163.955216 
L 401.187969 164.109962 
L 416.626705 157.782126 
" style="fill:none;stroke:#1b9e77;stroke-linecap:square;stroke-opacity:0.5;stroke-width:1.5;"/>
   </g>
   <g id="line2d_51">
    <path clip-path="url(#p4cbd39ad61)" d="M 61.535795 164.792533 
L 76.974531 164.234611 
L 92.413266 163.264065 
L 107.852001 156.746871 
L 123.290736 153.876017 
L 138.729471 148.876896 
L 154.168207 154.821782 
L 169.606942 140.111799 
L 185.045677 86.762208 
L 200.484412 118.851311 
L 215.923147 154.808988 
L 231.361882 157.954914 
L 246.800618 164.416033 
L 262.239353 165.298683 
L 277.678088 165.688404 
L 293.116823 165.696614 
L 308.555558 165.800278 
L 323.994293 165.861916 
L 339.433029 165.897044 
L 354.871764 165.915688 
L 370.310499 165.909915 
L 385.749234 165.953939 
L 401.187969 164.319254 
L 416.626705 164.64454 
" style="fill:none;stroke:#1b9e77;stroke-linecap:square;stroke-opacity:0.5;stroke-width:1.5;"/>
   </g>
   <g id="line2d_52">
    <path clip-path="url(#p4cbd39ad61)" d="M 61.535795 164.875967 
L 76.974531 165.071577 
L 92.413266 165.604573 
L 107.852001 165.627881 
L 123.290736 165.710635 
L 138.729471 165.768688 
L 154.168207 165.683475 
L 169.606942 165.768227 
L 185.045677 165.454638 
L 200.484412 164.214078 
L 215.923147 161.272966 
L 231.361882 160.850913 
L 246.800618 159.603594 
L 262.239353 159.939661 
L 277.678088 158.886492 
L 293.116823 156.33718 
L 308.555558 148.070896 
L 323.994293 142.800129 
L 339.433029 145.533895 
L 354.871764 152.710692 
L 370.310499 154.532318 
L 385.749234 122.733754 
L 401.187969 126.237714 
L 416.626705 147.214362 
" style="fill:none;stroke:#1b9e77;stroke-linecap:square;stroke-opacity:0.5;stroke-width:1.5;"/>
   </g>
   <g id="line2d_53">
    <path clip-path="url(#p4cbd39ad61)" d="M 61.535795 156.479259 
L 76.974531 162.415386 
L 92.413266 162.853287 
L 107.852001 155.877956 
L 123.290736 152.962286 
L 138.729471 165.723555 
L 154.168207 165.874204 
L 169.606942 165.872809 
L 185.045677 165.882951 
L 200.484412 165.880484 
L 215.923147 165.878871 
L 231.361882 165.904278 
L 246.800618 165.900738 
L 262.239353 163.442748 
L 277.678088 150.090841 
L 293.116823 105.230976 
L 308.555558 112.882405 
L 323.994293 145.660585 
L 339.433029 144.048797 
L 354.871764 150.743589 
L 370.310499 164.343268 
L 385.749234 165.06001 
L 401.187969 165.577803 
L 416.626705 165.91722 
" style="fill:none;stroke:#1b9e77;stroke-linecap:square;stroke-opacity:0.5;stroke-width:1.5;"/>
   </g>
   <g id="line2d_54">
    <path clip-path="url(#p4cbd39ad61)" d="M 61.535795 144.953874 
L 76.974531 136.87492 
L 92.413266 119.646633 
L 107.852001 147.519086 
L 123.290736 163.467125 
L 138.729471 164.126093 
L 154.168207 165.003247 
L 169.606942 165.129102 
L 185.045677 165.521184 
L 200.484412 165.669364 
L 215.923147 165.807562 
L 231.361882 165.872524 
L 246.800618 165.875717 
L 262.239353 164.786231 
L 277.678088 159.379533 
L 293.116823 163.648429 
L 308.555558 155.531828 
L 323.994293 130.679467 
L 339.433029 152.319888 
L 354.871764 135.448732 
L 370.310499 156.223012 
L 385.749234 165.241903 
L 401.187969 165.838825 
L 416.626705 165.940028 
" style="fill:none;stroke:#1b9e77;stroke-linecap:square;stroke-opacity:0.5;stroke-width:1.5;"/>
   </g>
   <g id="line2d_55">
    <path clip-path="url(#p4cbd39ad61)" d="M 61.535795 103.242933 
L 76.974531 153.188578 
L 92.413266 161.736409 
L 107.852001 162.624852 
L 123.290736 163.722692 
L 138.729471 159.701866 
L 154.168207 134.071171 
L 169.606942 156.99278 
L 185.045677 163.247545 
L 200.484412 129.358391 
L 215.923147 132.289669 
L 231.361882 163.811309 
L 246.800618 164.377934 
L 262.239353 153.936415 
L 277.678088 156.783473 
L 293.116823 164.56432 
L 308.555558 165.60684 
L 323.994293 165.760233 
L 339.433029 165.869989 
L 354.871764 165.864364 
L 370.310499 165.903948 
L 385.749234 165.93843 
L 401.187969 165.950184 
L 416.626705 165.959969 
" style="fill:none;stroke:#1b9e77;stroke-linecap:square;stroke-opacity:0.5;stroke-width:1.5;"/>
   </g>
   <g id="line2d_56">
    <path clip-path="url(#p4cbd39ad61)" d="M 61.535795 165.625456 
L 76.974531 163.52506 
L 92.413266 159.341855 
L 107.852001 143.818558 
L 123.290736 130.217084 
L 138.729471 129.888851 
L 154.168207 146.786748 
L 169.606942 153.924864 
L 185.045677 163.554969 
L 200.484412 165.094997 
L 215.923147 165.45675 
L 231.361882 165.322965 
L 246.800618 164.962605 
L 262.239353 165.186139 
L 277.678088 163.702893 
L 293.116823 160.805948 
L 308.555558 155.011512 
L 323.994293 150.891751 
L 339.433029 144.425156 
L 354.871764 146.272786 
L 370.310499 153.86646 
L 385.749234 162.10244 
L 401.187969 164.942644 
L 416.626705 165.775814 
" style="fill:none;stroke:#1b9e77;stroke-linecap:square;stroke-opacity:0.5;stroke-width:1.5;"/>
   </g>
   <g id="line2d_57">
    <path clip-path="url(#p4cbd39ad61)" d="M 61.535795 164.612057 
L 76.974531 159.455671 
L 92.413266 161.094809 
L 107.852001 164.784132 
L 123.290736 164.914116 
L 138.729471 165.31041 
L 154.168207 154.589041 
L 169.606942 147.471038 
L 185.045677 115.096016 
L 200.484412 144.594051 
L 215.923147 95.182088 
L 231.361882 143.478791 
L 246.800618 164.353832 
L 262.239353 146.805586 
L 277.678088 165.733894 
L 293.116823 165.796669 
L 308.555558 165.853234 
L 323.994293 165.860573 
L 339.433029 165.881856 
L 354.871764 165.894301 
L 370.310499 165.914713 
L 385.749234 165.928128 
L 401.187969 165.940128 
L 416.626705 165.959177 
" style="fill:none;stroke:#1b9e77;stroke-linecap:square;stroke-opacity:0.5;stroke-width:1.5;"/>
   </g>
   <g id="line2d_58">
    <path clip-path="url(#p4cbd39ad61)" d="M 61.535795 164.889446 
L 76.974531 160.885311 
L 92.413266 148.933217 
L 107.852001 129.102874 
L 123.290736 148.961985 
L 138.729471 151.258618 
L 154.168207 143.173808 
L 169.606942 120.467009 
L 185.045677 130.48508 
L 200.484412 158.422148 
L 215.923147 162.905946 
L 231.361882 158.167214 
L 246.800618 163.040148 
L 262.239353 165.599803 
L 277.678088 165.74823 
L 293.116823 165.724491 
L 308.555558 165.333296 
L 323.994293 165.72953 
L 339.433029 165.427006 
L 354.871764 164.572858 
L 370.310499 163.906233 
L 385.749234 156.11737 
L 401.187969 165.724011 
L 416.626705 165.928669 
" style="fill:none;stroke:#1b9e77;stroke-linecap:square;stroke-opacity:0.5;stroke-width:1.5;"/>
   </g>
   <g id="line2d_59">
    <path clip-path="url(#p4cbd39ad61)" d="M 61.535795 164.269729 
L 76.974531 164.546175 
L 92.413266 164.895606 
L 107.852001 162.885407 
L 123.290736 155.901245 
L 138.729471 160.499855 
L 154.168207 154.242838 
L 169.606942 161.106679 
L 185.045677 157.960556 
L 200.484412 163.059253 
L 215.923147 160.869171 
L 231.361882 161.412372 
L 246.800618 160.059294 
L 262.239353 131.055216 
L 277.678088 153.59147 
L 293.116823 151.841811 
L 308.555558 160.115462 
L 323.994293 146.362719 
L 339.433029 134.645185 
L 354.871764 148.995258 
L 370.310499 162.856373 
L 385.749234 159.752918 
L 401.187969 150.087169 
L 416.626705 159.492544 
" style="fill:none;stroke:#1b9e77;stroke-linecap:square;stroke-opacity:0.5;stroke-width:1.5;"/>
   </g>
   <g id="line2d_60">
    <path clip-path="url(#p4cbd39ad61)" d="M 61.535795 164.168151 
L 76.974531 162.598488 
L 92.413266 165.295044 
L 107.852001 165.667583 
L 123.290736 165.728243 
L 138.729471 163.914446 
L 154.168207 161.790897 
L 169.606942 164.538831 
L 185.045677 147.785583 
L 200.484412 164.455315 
L 215.923147 165.090831 
L 231.361882 164.847786 
L 246.800618 163.72414 
L 262.239353 165.233165 
L 277.678088 165.601519 
L 293.116823 164.329632 
L 308.555558 162.275128 
L 323.994293 160.231115 
L 339.433029 128.871047 
L 354.871764 139.842959 
L 370.310499 136.519468 
L 385.749234 141.359169 
L 401.187969 123.2678 
L 416.626705 143.367971 
" style="fill:none;stroke:#1b9e77;stroke-linecap:square;stroke-opacity:0.5;stroke-width:1.5;"/>
   </g>
   <g id="line2d_61">
    <path clip-path="url(#p4cbd39ad61)" d="M 61.535795 164.607876 
L 76.974531 164.764222 
L 92.413266 165.488507 
L 107.852001 165.486593 
L 123.290736 165.594589 
L 138.729471 165.706242 
L 154.168207 165.776133 
L 169.606942 165.769301 
L 185.045677 165.817254 
L 200.484412 165.85303 
L 215.923147 165.825697 
L 231.361882 165.769841 
L 246.800618 165.341416 
L 262.239353 163.48129 
L 277.678088 153.81639 
L 293.116823 159.861348 
L 308.555558 162.945953 
L 323.994293 153.810616 
L 339.433029 94.770975 
L 354.871764 66.858958 
L 370.310499 151.353186 
L 385.749234 161.124325 
L 401.187969 164.868117 
L 416.626705 165.812448 
" style="fill:none;stroke:#1b9e77;stroke-linecap:square;stroke-opacity:0.5;stroke-width:1.5;"/>
   </g>
   <g id="line2d_62">
    <path clip-path="url(#p4cbd39ad61)" d="M 61.535795 165.57625 
L 76.974531 164.483333 
L 92.413266 164.903756 
L 107.852001 160.674658 
L 123.290736 156.36649 
L 138.729471 164.673581 
L 154.168207 164.868162 
L 169.606942 165.151343 
L 185.045677 164.540128 
L 200.484412 165.542299 
L 215.923147 165.603161 
L 231.361882 160.278185 
L 246.800618 145.761313 
L 262.239353 164.362839 
L 277.678088 150.514499 
L 293.116823 158.89846 
L 308.555558 137.66471 
L 323.994293 120.069964 
L 339.433029 118.532459 
L 354.871764 131.733855 
L 370.310499 163.822471 
L 385.749234 165.029175 
L 401.187969 165.524125 
L 416.626705 165.929087 
" style="fill:none;stroke:#1b9e77;stroke-linecap:square;stroke-opacity:0.5;stroke-width:1.5;"/>
   </g>
   <g id="line2d_63">
    <path clip-path="url(#p4cbd39ad61)" d="M 61.535795 165.673198 
L 76.974531 165.170854 
L 92.413266 164.755211 
L 107.852001 161.124316 
L 123.290736 110.374604 
L 138.729471 125.85124 
L 154.168207 159.478893 
L 169.606942 162.656583 
L 185.045677 118.592715 
L 200.484412 152.587804 
L 215.923147 144.449371 
L 231.361882 155.081527 
L 246.800618 148.51694 
L 262.239353 165.348939 
L 277.678088 165.882543 
L 293.116823 165.883716 
L 308.555558 165.400083 
L 323.994293 164.759939 
L 339.433029 165.294445 
L 354.871764 165.389367 
L 370.310499 164.930672 
L 385.749234 164.540836 
L 401.187969 163.605144 
L 416.626705 165.155369 
" style="fill:none;stroke:#1b9e77;stroke-linecap:square;stroke-opacity:0.5;stroke-width:1.5;"/>
   </g>
   <g id="line2d_64">
    <path clip-path="url(#p4cbd39ad61)" d="M 61.535795 164.314231 
L 76.974531 163.491607 
L 92.413266 163.262332 
L 107.852001 160.896999 
L 123.290736 157.75989 
L 138.729471 152.429001 
L 154.168207 152.839503 
L 169.606942 153.051615 
L 185.045677 106.250486 
L 200.484412 96.255373 
L 215.923147 151.358394 
L 231.361882 156.966244 
L 246.800618 159.411252 
L 262.239353 158.709404 
L 277.678088 162.675883 
L 293.116823 164.63659 
L 308.555558 165.422746 
L 323.994293 165.621412 
L 339.433029 165.741888 
L 354.871764 165.699953 
L 370.310499 165.862425 
L 385.749234 165.936288 
L 401.187969 165.950952 
L 416.626705 165.959832 
" style="fill:none;stroke:#1b9e77;stroke-linecap:square;stroke-opacity:0.5;stroke-width:1.5;"/>
   </g>
   <g id="line2d_65">
    <path clip-path="url(#p4cbd39ad61)" d="M 61.535795 147.448685 
L 76.974531 123.945198 
L 92.413266 151.873848 
L 107.852001 165.872284 
L 123.290736 165.915714 
L 138.729471 145.167097 
L 154.168207 99.072886 
L 169.606942 158.83467 
L 185.045677 165.384254 
L 200.484412 165.503696 
L 215.923147 164.525105 
L 231.361882 161.623061 
L 246.800618 152.830695 
L 262.239353 164.457196 
L 277.678088 163.897943 
L 293.116823 163.577159 
L 308.555558 163.729703 
L 323.994293 161.22722 
L 339.433029 147.580658 
L 354.871764 163.137146 
L 370.310499 163.870257 
L 385.749234 164.734555 
L 401.187969 165.216333 
L 416.626705 161.078945 
" style="fill:none;stroke:#1b9e77;stroke-linecap:square;stroke-opacity:0.5;stroke-width:1.5;"/>
   </g>
   <g id="line2d_66">
    <path clip-path="url(#p4cbd39ad61)" d="M 61.535795 90.290813 
L 76.974531 121.113536 
L 92.413266 151.233309 
L 107.852001 153.87275 
L 123.290736 161.006037 
L 138.729471 164.487782 
L 154.168207 165.332934 
L 169.606942 165.012584 
L 185.045677 165.202659 
L 200.484412 165.574881 
L 215.923147 165.727136 
L 231.361882 165.697363 
L 246.800618 165.684743 
L 262.239353 165.644624 
L 277.678088 165.646538 
L 293.116823 165.66253 
L 308.555558 165.093986 
L 323.994293 164.205485 
L 339.433029 155.580487 
L 354.871764 157.162249 
L 370.310499 161.07667 
L 385.749234 156.139565 
L 401.187969 141.900014 
L 416.626705 152.155629 
" style="fill:none;stroke:#1b9e77;stroke-linecap:square;stroke-opacity:0.5;stroke-width:1.5;"/>
   </g>
   <g id="line2d_67">
    <path clip-path="url(#p4cbd39ad61)" d="M 61.535795 164.952236 
L 76.974531 158.72149 
L 92.413266 162.150963 
L 107.852001 165.655776 
L 123.290736 165.000243 
L 138.729471 153.08163 
L 154.168207 162.378859 
L 169.606942 158.223891 
L 185.045677 152.044353 
L 200.484412 139.639429 
L 215.923147 126.305918 
L 231.361882 85.918616 
L 246.800618 143.497103 
L 262.239353 162.753458 
L 277.678088 165.358203 
L 293.116823 165.220311 
L 308.555558 165.422854 
L 323.994293 165.632031 
L 339.433029 165.755894 
L 354.871764 165.859504 
L 370.310499 165.662481 
L 385.749234 163.601299 
L 401.187969 162.920964 
L 416.626705 164.7468 
" style="fill:none;stroke:#1b9e77;stroke-linecap:square;stroke-opacity:0.5;stroke-width:1.5;"/>
   </g>
   <g id="line2d_68">
    <path clip-path="url(#p4cbd39ad61)" d="M 61.535795 164.787977 
L 76.974531 162.23249 
L 92.413266 160.777646 
L 107.852001 156.493664 
L 123.290736 148.332824 
L 138.729471 131.885324 
L 154.168207 124.749315 
L 169.606942 108.840915 
L 185.045677 118.967217 
L 200.484412 155.033855 
L 215.923147 164.875601 
L 231.361882 164.482784 
L 246.800618 164.753367 
L 262.239353 165.389041 
L 277.678088 165.721652 
L 293.116823 165.767507 
L 308.555558 165.869283 
L 323.994293 165.910024 
L 339.433029 165.923071 
L 354.871764 165.923322 
L 370.310499 165.937333 
L 385.749234 165.942275 
L 401.187969 165.947902 
L 416.626705 165.959915 
" style="fill:none;stroke:#1b9e77;stroke-linecap:square;stroke-opacity:0.5;stroke-width:1.5;"/>
   </g>
   <g id="line2d_69">
    <path clip-path="url(#p4cbd39ad61)" d="M 61.535795 165.2947 
L 76.974531 165.201595 
L 92.413266 165.553106 
L 107.852001 165.499557 
L 123.290736 165.509443 
L 138.729471 165.494643 
L 154.168207 165.480221 
L 169.606942 165.797117 
L 185.045677 165.72056 
L 200.484412 160.856017 
L 215.923147 162.220019 
L 231.361882 160.302927 
L 246.800618 128.616463 
L 262.239353 154.859061 
L 277.678088 140.039914 
L 293.116823 144.475071 
L 308.555558 161.488341 
L 323.994293 159.545093 
L 339.433029 145.826023 
L 354.871764 140.102462 
L 370.310499 150.939743 
L 385.749234 152.696692 
L 401.187969 142.696737 
L 416.626705 156.288794 
" style="fill:none;stroke:#1b9e77;stroke-linecap:square;stroke-opacity:0.5;stroke-width:1.5;"/>
   </g>
   <g id="line2d_70">
    <path clip-path="url(#p4cbd39ad61)" d="M 61.535795 165.638323 
L 76.974531 165.496925 
L 92.413266 165.469876 
L 107.852001 165.297042 
L 123.290736 146.363548 
L 138.729471 144.059387 
L 154.168207 158.875288 
L 169.606942 161.134775 
L 185.045677 158.571709 
L 200.484412 163.908862 
L 215.923147 164.291531 
L 231.361882 164.353119 
L 246.800618 164.345966 
L 262.239353 164.142279 
L 277.678088 162.651525 
L 293.116823 160.999293 
L 308.555558 160.737608 
L 323.994293 162.625438 
L 339.433029 152.637693 
L 354.871764 137.20944 
L 370.310499 135.573164 
L 385.749234 139.153625 
L 401.187969 135.370027 
L 416.626705 151.597865 
" style="fill:none;stroke:#1b9e77;stroke-linecap:square;stroke-opacity:0.5;stroke-width:1.5;"/>
   </g>
   <g id="line2d_71">
    <path clip-path="url(#p4cbd39ad61)" d="M 61.535795 134.252176 
L 76.974531 149.335296 
L 92.413266 153.661943 
L 107.852001 153.473491 
L 123.290736 164.257304 
L 138.729471 159.860014 
L 154.168207 165.660513 
L 169.606942 165.363735 
L 185.045677 163.908136 
L 200.484412 165.667369 
L 215.923147 160.947827 
L 231.361882 159.91059 
L 246.800618 162.532495 
L 262.239353 150.765119 
L 277.678088 134.51054 
L 293.116823 140.227842 
L 308.555558 157.052745 
L 323.994293 121.408196 
L 339.433029 161.113586 
L 354.871764 164.621419 
L 370.310499 165.310937 
L 385.749234 165.405241 
L 401.187969 165.470284 
L 416.626705 165.787502 
" style="fill:none;stroke:#1b9e77;stroke-linecap:square;stroke-opacity:0.5;stroke-width:1.5;"/>
   </g>
   <g id="line2d_72">
    <path clip-path="url(#p4cbd39ad61)" d="M 61.535795 164.729914 
L 76.974531 164.569504 
L 92.413266 164.22935 
L 107.852001 161.776882 
L 123.290736 161.993358 
L 138.729471 163.392433 
L 154.168207 164.3474 
L 169.606942 163.719121 
L 185.045677 156.757829 
L 200.484412 144.056684 
L 215.923147 146.000727 
L 231.361882 164.158225 
L 246.800618 155.16763 
L 262.239353 140.726317 
L 277.678088 157.339414 
L 293.116823 138.140422 
L 308.555558 113.23872 
L 323.994293 155.841565 
L 339.433029 148.430398 
L 354.871764 164.512558 
L 370.310499 160.698425 
L 385.749234 164.807725 
L 401.187969 165.916205 
L 416.626705 165.953499 
" style="fill:none;stroke:#1b9e77;stroke-linecap:square;stroke-opacity:0.5;stroke-width:1.5;"/>
   </g>
   <g id="line2d_73">
    <path clip-path="url(#p4cbd39ad61)" d="M 61.535795 145.669831 
L 76.974531 149.782436 
L 92.413266 160.162374 
L 107.852001 160.980879 
L 123.290736 162.872325 
L 138.729471 161.832642 
L 154.168207 162.038316 
L 169.606942 164.463149 
L 185.045677 165.289844 
L 200.484412 165.551107 
L 215.923147 165.553654 
L 231.361882 164.579032 
L 246.800618 151.867122 
L 262.239353 154.863489 
L 277.678088 134.724902 
L 293.116823 137.57236 
L 308.555558 143.455153 
L 323.994293 121.404582 
L 339.433029 150.735024 
L 354.871764 164.766597 
L 370.310499 165.362198 
L 385.749234 165.378743 
L 401.187969 165.674161 
L 416.626705 165.924386 
" style="fill:none;stroke:#1b9e77;stroke-linecap:square;stroke-opacity:0.5;stroke-width:1.5;"/>
   </g>
   <g id="line2d_74">
    <path clip-path="url(#p4cbd39ad61)" d="M 61.535795 165.918972 
L 76.974531 165.855884 
L 92.413266 165.884075 
L 107.852001 165.895532 
L 123.290736 165.242965 
L 138.729471 163.063272 
L 154.168207 156.897812 
L 169.606942 162.594027 
L 185.045677 164.031722 
L 200.484412 148.990145 
L 215.923147 119.44479 
L 231.361882 141.685043 
L 246.800618 165.204823 
L 262.239353 165.681701 
L 277.678088 165.49567 
L 293.116823 164.867866 
L 308.555558 164.66726 
L 323.994293 165.368168 
L 339.433029 164.538845 
L 354.871764 137.034247 
L 370.310499 139.462237 
L 385.749234 142.370401 
L 401.187969 136.164414 
L 416.626705 154.144433 
" style="fill:none;stroke:#1b9e77;stroke-linecap:square;stroke-opacity:0.5;stroke-width:1.5;"/>
   </g>
   <g id="line2d_75">
    <path clip-path="url(#p4cbd39ad61)" d="M 61.535795 164.299593 
L 76.974531 164.980037 
L 92.413266 165.594856 
L 107.852001 165.492488 
L 123.290736 165.579563 
L 138.729471 165.731204 
L 154.168207 165.836986 
L 169.606942 165.875497 
L 185.045677 165.912281 
L 200.484412 165.935834 
L 215.923147 165.886371 
L 231.361882 165.916854 
L 246.800618 165.88531 
L 262.239353 165.941558 
L 277.678088 165.939326 
L 293.116823 142.796684 
L 308.555558 156.327673 
L 323.994293 140.475664 
L 339.433029 78.149302 
L 354.871764 159.655848 
L 370.310499 140.997111 
L 385.749234 138.550797 
L 401.187969 150.22601 
L 416.626705 158.517461 
" style="fill:none;stroke:#1b9e77;stroke-linecap:square;stroke-opacity:0.5;stroke-width:1.5;"/>
   </g>
   <g id="line2d_76">
    <path clip-path="url(#p4cbd39ad61)" d="M 61.535795 162.254376 
L 76.974531 99.979139 
L 92.413266 103.083957 
L 107.852001 153.844545 
L 123.290736 162.409699 
L 138.729471 160.534661 
L 154.168207 163.995345 
L 169.606942 165.377073 
L 185.045677 165.716767 
L 200.484412 165.793339 
L 215.923147 165.813143 
L 231.361882 163.606368 
L 246.800618 143.489091 
L 262.239353 165.937912 
L 277.678088 165.763555 
L 293.116823 158.827434 
L 308.555558 161.653708 
L 323.994293 163.197725 
L 339.433029 161.636267 
L 354.871764 160.437878 
L 370.310499 160.507309 
L 385.749234 158.379381 
L 401.187969 155.195451 
L 416.626705 163.070181 
" style="fill:none;stroke:#1b9e77;stroke-linecap:square;stroke-opacity:0.5;stroke-width:1.5;"/>
   </g>
   <g id="line2d_77">
    <path clip-path="url(#p4cbd39ad61)" d="M 61.535795 162.827954 
L 76.974531 162.848875 
L 92.413266 164.000505 
L 107.852001 164.235126 
L 123.290736 164.687593 
L 138.729471 165.388323 
L 154.168207 165.361057 
L 169.606942 165.356542 
L 185.045677 152.834101 
L 200.484412 158.023101 
L 215.923147 163.292006 
L 231.361882 159.15572 
L 246.800618 159.940628 
L 262.239353 159.934154 
L 277.678088 157.725645 
L 293.116823 158.657725 
L 308.555558 159.709504 
L 323.994293 157.126161 
L 339.433029 148.960577 
L 354.871764 145.385701 
L 370.310499 145.402461 
L 385.749234 134.987344 
L 401.187969 120.152761 
L 416.626705 154.510742 
" style="fill:none;stroke:#1b9e77;stroke-linecap:square;stroke-opacity:0.5;stroke-width:1.5;"/>
   </g>
   <g id="line2d_78">
    <path clip-path="url(#p4cbd39ad61)" d="M 61.535795 161.49992 
L 76.974531 137.78192 
L 92.413266 126.188263 
L 107.852001 139.204697 
L 123.290736 154.245514 
L 138.729471 150.798595 
L 154.168207 117.623187 
L 169.606942 126.196441 
L 185.045677 156.509474 
L 200.484412 163.465999 
L 215.923147 165.254409 
L 231.361882 165.307071 
L 246.800618 165.601623 
L 262.239353 165.704025 
L 277.678088 165.821452 
L 293.116823 165.829983 
L 308.555558 165.875546 
L 323.994293 165.913885 
L 339.433029 165.819895 
L 354.871764 165.639617 
L 370.310499 165.462898 
L 385.749234 164.769555 
L 401.187969 164.628509 
L 416.626705 165.361833 
" style="fill:none;stroke:#1b9e77;stroke-linecap:square;stroke-opacity:0.5;stroke-width:1.5;"/>
   </g>
   <g id="line2d_79">
    <path clip-path="url(#p4cbd39ad61)" d="M 61.535795 162.09918 
L 76.974531 164.411782 
L 92.413266 164.814718 
L 107.852001 164.074718 
L 123.290736 129.945551 
L 138.729471 154.97 
L 154.168207 158.50844 
L 169.606942 159.354311 
L 185.045677 149.416531 
L 200.484412 135.517183 
L 215.923147 152.611497 
L 231.361882 129.21531 
L 246.800618 142.499727 
L 262.239353 136.557865 
L 277.678088 155.89182 
L 293.116823 163.533796 
L 308.555558 165.660901 
L 323.994293 165.828878 
L 339.433029 165.904168 
L 354.871764 165.912133 
L 370.310499 165.924382 
L 385.749234 165.940974 
L 401.187969 165.950439 
L 416.626705 165.96 
" style="fill:none;stroke:#1b9e77;stroke-linecap:square;stroke-opacity:0.5;stroke-width:1.5;"/>
   </g>
   <g id="line2d_80">
    <path clip-path="url(#p4cbd39ad61)" d="M 61.535795 165.686732 
L 76.974531 165.713746 
L 92.413266 165.741562 
L 107.852001 165.500184 
L 123.290736 164.297018 
L 138.729471 164.459275 
L 154.168207 164.240846 
L 169.606942 164.176238 
L 185.045677 164.469025 
L 200.484412 163.668223 
L 215.923147 161.526037 
L 231.361882 158.312321 
L 246.800618 157.069647 
L 262.239353 128.063192 
L 277.678088 36.985766 
L 293.116823 134.369928 
L 308.555558 165.237222 
L 323.994293 165.595599 
L 339.433029 165.832598 
L 354.871764 165.842527 
L 370.310499 165.895648 
L 385.749234 165.923407 
L 401.187969 165.938813 
L 416.626705 165.958753 
" style="fill:none;stroke:#1b9e77;stroke-linecap:square;stroke-opacity:0.5;stroke-width:1.5;"/>
   </g>
   <g id="line2d_81">
    <path clip-path="url(#p4cbd39ad61)" d="M 61.535795 159.91654 
L 76.974531 164.629891 
L 92.413266 164.966732 
L 107.852001 159.575376 
L 123.290736 146.312114 
L 138.729471 140.254039 
L 154.168207 115.943573 
L 169.606942 139.639559 
L 185.045677 152.782029 
L 200.484412 143.172158 
L 215.923147 139.708422 
L 231.361882 153.761133 
L 246.800618 162.595985 
L 262.239353 161.844565 
L 277.678088 164.254826 
L 293.116823 165.030137 
L 308.555558 165.134426 
L 323.994293 164.704969 
L 339.433029 164.508864 
L 354.871764 165.043782 
L 370.310499 165.029084 
L 385.749234 164.651944 
L 401.187969 162.714621 
L 416.626705 164.329534 
" style="fill:none;stroke:#1b9e77;stroke-linecap:square;stroke-opacity:0.5;stroke-width:1.5;"/>
   </g>
   <g id="line2d_82">
    <path clip-path="url(#p4cbd39ad61)" d="M 61.535795 164.941339 
L 76.974531 165.074712 
L 92.413266 164.956732 
L 107.852001 163.976716 
L 123.290736 161.190312 
L 138.729471 159.131445 
L 154.168207 157.877747 
L 169.606942 158.070355 
L 185.045677 157.350936 
L 200.484412 147.696444 
L 215.923147 130.793282 
L 231.361882 120.12166 
L 246.800618 131.431821 
L 262.239353 138.146275 
L 277.678088 163.671902 
L 293.116823 164.191772 
L 308.555558 165.12967 
L 323.994293 165.322075 
L 339.433029 165.597009 
L 354.871764 165.720718 
L 370.310499 165.734018 
L 385.749234 165.737544 
L 401.187969 163.704339 
L 416.626705 144.935479 
" style="fill:none;stroke:#1b9e77;stroke-linecap:square;stroke-opacity:0.5;stroke-width:1.5;"/>
   </g>
   <g id="line2d_83">
    <path clip-path="url(#p4cbd39ad61)" d="M 61.535795 160.425439 
L 76.974531 162.200762 
L 92.413266 164.791557 
L 107.852001 164.966877 
L 123.290736 165.282982 
L 138.729471 165.27653 
L 154.168207 165.314337 
L 169.606942 165.363448 
L 185.045677 165.434447 
L 200.484412 165.37645 
L 215.923147 165.311422 
L 231.361882 165.330241 
L 246.800618 165.153967 
L 262.239353 165.109336 
L 277.678088 161.559565 
L 293.116823 142.283797 
L 308.555558 118.334025 
L 323.994293 130.824055 
L 339.433029 130.31665 
L 354.871764 127.694367 
L 370.310499 152.525376 
L 385.749234 150.58658 
L 401.187969 165.127434 
L 416.626705 165.914658 
" style="fill:none;stroke:#1b9e77;stroke-linecap:square;stroke-opacity:0.5;stroke-width:1.5;"/>
   </g>
   <g id="line2d_84">
    <path clip-path="url(#p4cbd39ad61)" d="M 61.535795 163.847163 
L 76.974531 152.669946 
L 92.413266 138.801344 
L 107.852001 143.853876 
L 123.290736 150.757305 
L 138.729471 139.201053 
L 154.168207 114.179317 
L 169.606942 119.373298 
L 185.045677 163.537872 
L 200.484412 164.772412 
L 215.923147 165.269012 
L 231.361882 165.166802 
L 246.800618 165.402903 
L 262.239353 165.55898 
L 277.678088 165.586408 
L 293.116823 165.430727 
L 308.555558 165.157742 
L 323.994293 165.498841 
L 339.433029 165.578704 
L 354.871764 165.105688 
L 370.310499 162.934467 
L 385.749234 165.087596 
L 401.187969 160.77533 
L 416.626705 156.957522 
" style="fill:none;stroke:#1b9e77;stroke-linecap:square;stroke-opacity:0.5;stroke-width:1.5;"/>
   </g>
   <g id="line2d_85">
    <path clip-path="url(#p4cbd39ad61)" d="M 61.535795 165.813916 
L 76.974531 165.299449 
L 92.413266 163.698355 
L 107.852001 162.917462 
L 123.290736 162.78369 
L 138.729471 165.376254 
L 154.168207 162.211184 
L 169.606942 149.134519 
L 185.045677 136.899004 
L 200.484412 164.080566 
L 215.923147 165.806074 
L 231.361882 155.61333 
L 246.800618 162.271624 
L 262.239353 163.982114 
L 277.678088 163.33476 
L 293.116823 163.584524 
L 308.555558 162.619638 
L 323.994293 163.530931 
L 339.433029 161.830433 
L 354.871764 150.290012 
L 370.310499 130.25959 
L 385.749234 123.57305 
L 401.187969 130.937035 
L 416.626705 154.656795 
" style="fill:none;stroke:#1b9e77;stroke-linecap:square;stroke-opacity:0.5;stroke-width:1.5;"/>
   </g>
   <g id="line2d_86">
    <path clip-path="url(#p4cbd39ad61)" d="M 61.535795 164.307758 
L 76.974531 164.18693 
L 92.413266 164.305442 
L 107.852001 162.368251 
L 123.290736 146.315852 
L 138.729471 159.12552 
L 154.168207 156.66411 
L 169.606942 150.937766 
L 185.045677 159.961576 
L 200.484412 156.195544 
L 215.923147 126.424259 
L 231.361882 140.688113 
L 246.800618 157.230088 
L 262.239353 162.685843 
L 277.678088 160.189925 
L 293.116823 145.25013 
L 308.555558 152.731873 
L 323.994293 143.267804 
L 339.433029 154.497916 
L 354.871764 161.687442 
L 370.310499 164.668762 
L 385.749234 165.296119 
L 401.187969 165.605203 
L 416.626705 165.912077 
" style="fill:none;stroke:#1b9e77;stroke-linecap:square;stroke-opacity:0.5;stroke-width:1.5;"/>
   </g>
   <g id="line2d_87">
    <path clip-path="url(#p4cbd39ad61)" d="M 61.535795 135.726015 
L 76.974531 118.527859 
L 92.413266 159.856058 
L 107.852001 163.612818 
L 123.290736 162.081188 
L 138.729471 161.049802 
L 154.168207 154.920617 
L 169.606942 165.351262 
L 185.045677 165.835667 
L 200.484412 164.140779 
L 215.923147 154.353259 
L 231.361882 161.750629 
L 246.800618 165.506254 
L 262.239353 165.772351 
L 277.678088 165.501168 
L 293.116823 140.912166 
L 308.555558 149.88701 
L 323.994293 156.259905 
L 339.433029 149.984181 
L 354.871764 154.598395 
L 370.310499 160.037032 
L 385.749234 158.780923 
L 401.187969 156.238104 
L 416.626705 159.820865 
" style="fill:none;stroke:#1b9e77;stroke-linecap:square;stroke-opacity:0.5;stroke-width:1.5;"/>
   </g>
   <g id="line2d_88">
    <path clip-path="url(#p4cbd39ad61)" d="M 61.535795 165.5529 
L 76.974531 165.447308 
L 92.413266 165.625234 
L 107.852001 165.343116 
L 123.290736 165.357042 
L 138.729471 165.8728 
L 154.168207 165.889177 
L 169.606942 165.144303 
L 185.045677 136.021853 
L 200.484412 158.326408 
L 215.923147 155.614522 
L 231.361882 154.421161 
L 246.800618 159.264957 
L 262.239353 153.526495 
L 277.678088 133.965683 
L 293.116823 141.140576 
L 308.555558 142.899476 
L 323.994293 122.209392 
L 339.433029 146.63414 
L 354.871764 161.82443 
L 370.310499 164.823787 
L 385.749234 164.674608 
L 401.187969 165.054972 
L 416.626705 165.869958 
" style="fill:none;stroke:#1b9e77;stroke-linecap:square;stroke-opacity:0.5;stroke-width:1.5;"/>
   </g>
   <g id="line2d_89">
    <path clip-path="url(#p4cbd39ad61)" d="M 61.535795 165.434085 
L 76.974531 165.628876 
L 92.413266 163.196068 
L 107.852001 157.431777 
L 123.290736 150.654624 
L 138.729471 158.544005 
L 154.168207 152.888722 
L 169.606942 149.240982 
L 185.045677 151.421669 
L 200.484412 139.267037 
L 215.923147 126.13266 
L 231.361882 99.687659 
L 246.800618 161.525382 
L 262.239353 165.400065 
L 277.678088 165.72909 
L 293.116823 165.7111 
L 308.555558 165.643296 
L 323.994293 165.616677 
L 339.433029 165.675897 
L 354.871764 165.820516 
L 370.310499 165.798036 
L 385.749234 162.600249 
L 401.187969 155.906763 
L 416.626705 165.549072 
" style="fill:none;stroke:#1b9e77;stroke-linecap:square;stroke-opacity:0.5;stroke-width:1.5;"/>
   </g>
   <g id="line2d_90">
    <path clip-path="url(#p4cbd39ad61)" d="M 61.535795 147.484663 
L 76.974531 138.651568 
L 92.413266 162.600975 
L 107.852001 164.381958 
L 123.290736 164.755305 
L 138.729471 162.685571 
L 154.168207 144.753623 
L 169.606942 143.493104 
L 185.045677 158.053434 
L 200.484412 161.634286 
L 215.923147 160.949288 
L 231.361882 148.20641 
L 246.800618 143.304124 
L 262.239353 157.597726 
L 277.678088 160.49756 
L 293.116823 160.204189 
L 308.555558 160.69964 
L 323.994293 162.72548 
L 339.433029 162.123874 
L 354.871764 155.135966 
L 370.310499 144.103233 
L 385.749234 161.351441 
L 401.187969 159.941806 
L 416.626705 165.169079 
" style="fill:none;stroke:#1b9e77;stroke-linecap:square;stroke-opacity:0.5;stroke-width:1.5;"/>
   </g>
   <g id="line2d_91">
    <path clip-path="url(#p4cbd39ad61)" d="M 61.535795 155.212957 
L 76.974531 128.587739 
L 92.413266 159.974275 
L 107.852001 164.010686 
L 123.290736 163.963389 
L 138.729471 154.668083 
L 154.168207 119.612336 
L 169.606942 150.314859 
L 185.045677 160.989618 
L 200.484412 163.47887 
L 215.923147 162.037958 
L 231.361882 142.995546 
L 246.800618 157.131727 
L 262.239353 165.655076 
L 277.678088 165.848182 
L 293.116823 165.807332 
L 308.555558 159.625304 
L 323.994293 162.228085 
L 339.433029 162.509181 
L 354.871764 162.038973 
L 370.310499 160.509083 
L 385.749234 156.644467 
L 401.187969 146.053392 
L 416.626705 160.607178 
" style="fill:none;stroke:#1b9e77;stroke-linecap:square;stroke-opacity:0.5;stroke-width:1.5;"/>
   </g>
   <g id="line2d_92">
    <path clip-path="url(#p4cbd39ad61)" d="M 61.535795 163.99117 
L 76.974531 163.965169 
L 92.413266 162.576403 
L 107.852001 153.979658 
L 123.290736 154.504832 
L 138.729471 165.657499 
L 154.168207 165.879936 
L 169.606942 165.866936 
L 185.045677 165.860974 
L 200.484412 165.765912 
L 215.923147 165.868047 
L 231.361882 165.945168 
L 246.800618 165.947078 
L 262.239353 159.164158 
L 277.678088 150.173661 
L 293.116823 109.603068 
L 308.555558 137.596212 
L 323.994293 136.081457 
L 339.433029 130.325641 
L 354.871764 144.30259 
L 370.310499 161.921023 
L 385.749234 164.639306 
L 401.187969 165.157037 
L 416.626705 165.731377 
" style="fill:none;stroke:#1b9e77;stroke-linecap:square;stroke-opacity:0.5;stroke-width:1.5;"/>
   </g>
   <g id="line2d_93">
    <path clip-path="url(#p4cbd39ad61)" d="M 61.535795 145.88815 
L 76.974531 165.254913 
L 92.413266 165.854099 
L 107.852001 150.357756 
L 123.290736 161.704242 
L 138.729471 138.092113 
L 154.168207 164.644434 
L 169.606942 165.937011 
L 185.045677 165.938853 
L 200.484412 158.623937 
L 215.923147 101.890797 
L 231.361882 164.617415 
L 246.800618 165.644805 
L 262.239353 164.358046 
L 277.678088 162.648492 
L 293.116823 160.570679 
L 308.555558 163.634913 
L 323.994293 165.419132 
L 339.433029 165.715165 
L 354.871764 165.687119 
L 370.310499 161.641429 
L 385.749234 150.662437 
L 401.187969 143.058977 
L 416.626705 132.65939 
" style="fill:none;stroke:#1b9e77;stroke-linecap:square;stroke-opacity:0.5;stroke-width:1.5;"/>
   </g>
   <g id="line2d_94">
    <path clip-path="url(#p4cbd39ad61)" d="M 61.535795 159.895346 
L 76.974531 133.51056 
L 92.413266 105.671169 
L 107.852001 128.254585 
L 123.290736 145.655096 
L 138.729471 161.652471 
L 154.168207 164.654191 
L 169.606942 164.367849 
L 185.045677 165.337957 
L 200.484412 165.717254 
L 215.923147 165.860999 
L 231.361882 165.895096 
L 246.800618 165.900403 
L 262.239353 153.575932 
L 277.678088 153.307938 
L 293.116823 165.905351 
L 308.555558 165.928296 
L 323.994293 165.718323 
L 339.433029 150.688241 
L 354.871764 147.354307 
L 370.310499 164.645008 
L 385.749234 165.882292 
L 401.187969 164.787462 
L 416.626705 160.338177 
" style="fill:none;stroke:#1b9e77;stroke-linecap:square;stroke-opacity:0.5;stroke-width:1.5;"/>
   </g>
   <g id="line2d_95">
    <path clip-path="url(#p4cbd39ad61)" d="M 61.535795 145.435846 
L 76.974531 159.59463 
L 92.413266 163.817932 
L 107.852001 161.980242 
L 123.290736 159.105504 
L 138.729471 163.353528 
L 154.168207 164.644101 
L 169.606942 165.089706 
L 185.045677 165.104137 
L 200.484412 164.066581 
L 215.923147 162.869473 
L 231.361882 164.130378 
L 246.800618 165.022962 
L 262.239353 165.105003 
L 277.678088 165.177298 
L 293.116823 164.748697 
L 308.555558 164.576643 
L 323.994293 165.085812 
L 339.433029 165.03296 
L 354.871764 165.133812 
L 370.310499 143.496357 
L 385.749234 102.202913 
L 401.187969 109.429727 
L 416.626705 136.300063 
" style="fill:none;stroke:#1b9e77;stroke-linecap:square;stroke-opacity:0.5;stroke-width:1.5;"/>
   </g>
   <g id="line2d_96">
    <path clip-path="url(#p4cbd39ad61)" d="M 61.535795 163.742232 
L 76.974531 152.828015 
L 92.413266 123.95534 
L 107.852001 118.377504 
L 123.290736 146.448016 
L 138.729471 160.888668 
L 154.168207 157.249795 
L 169.606942 128.921958 
L 185.045677 149.558338 
L 200.484412 164.831531 
L 215.923147 165.677947 
L 231.361882 164.595581 
L 246.800618 159.642693 
L 262.239353 165.111576 
L 277.678088 165.522878 
L 293.116823 165.924997 
L 308.555558 165.272664 
L 323.994293 164.960907 
L 339.433029 164.396489 
L 354.871764 162.899117 
L 370.310499 160.285887 
L 385.749234 158.112565 
L 401.187969 157.44178 
L 416.626705 163.857827 
" style="fill:none;stroke:#1b9e77;stroke-linecap:square;stroke-opacity:0.5;stroke-width:1.5;"/>
   </g>
   <g id="line2d_97">
    <path clip-path="url(#p4cbd39ad61)" d="M 61.535795 156.705618 
L 76.974531 149.358204 
L 92.413266 155.551254 
L 107.852001 145.298595 
L 123.290736 125.260842 
L 138.729471 149.483209 
L 154.168207 159.368742 
L 169.606942 157.848114 
L 185.045677 153.594169 
L 200.484412 148.694749 
L 215.923147 151.718536 
L 231.361882 158.918228 
L 246.800618 161.684658 
L 262.239353 160.561936 
L 277.678088 155.820993 
L 293.116823 160.390108 
L 308.555558 162.392307 
L 323.994293 163.726397 
L 339.433029 162.982561 
L 354.871764 161.995919 
L 370.310499 161.959121 
L 385.749234 164.560177 
L 401.187969 165.481256 
L 416.626705 157.148607 
" style="fill:none;stroke:#1b9e77;stroke-linecap:square;stroke-opacity:0.5;stroke-width:1.5;"/>
   </g>
   <g id="line2d_98">
    <path clip-path="url(#p4cbd39ad61)" d="M 61.535795 165.794296 
L 76.974531 165.599778 
L 92.413266 165.706001 
L 107.852001 165.702895 
L 123.290736 165.714633 
L 138.729471 165.825202 
L 154.168207 165.826883 
L 169.606942 165.521025 
L 185.045677 163.660082 
L 200.484412 165.258938 
L 215.923147 165.473537 
L 231.361882 165.392593 
L 246.800618 164.805295 
L 262.239353 164.987337 
L 277.678088 164.524052 
L 293.116823 164.294792 
L 308.555558 164.311364 
L 323.994293 163.286826 
L 339.433029 158.414773 
L 354.871764 156.060035 
L 370.310499 133.837693 
L 385.749234 87.789841 
L 401.187969 97.44029 
L 416.626705 145.276142 
" style="fill:none;stroke:#1b9e77;stroke-linecap:square;stroke-opacity:0.5;stroke-width:1.5;"/>
   </g>
   <g id="line2d_99">
    <path clip-path="url(#p4cbd39ad61)" d="M 61.535795 159.469475 
L 76.974531 154.562866 
L 92.413266 163.60487 
L 107.852001 162.458398 
L 123.290736 164.049434 
L 138.729471 164.596019 
L 154.168207 165.569243 
L 169.606942 165.703285 
L 185.045677 165.815448 
L 200.484412 165.905134 
L 215.923147 165.907381 
L 231.361882 164.810662 
L 246.800618 159.993492 
L 262.239353 164.813019 
L 277.678088 165.597063 
L 293.116823 153.399141 
L 308.555558 160.303173 
L 323.994293 151.071841 
L 339.433029 112.322856 
L 354.871764 165.215004 
L 370.310499 164.294264 
L 385.749234 131.665454 
L 401.187969 122.757271 
L 416.626705 136.619504 
" style="fill:none;stroke:#1b9e77;stroke-linecap:square;stroke-opacity:0.5;stroke-width:1.5;"/>
   </g>
   <g id="line2d_100">
    <path clip-path="url(#p4cbd39ad61)" d="M 61.535795 162.723463 
L 76.974531 158.960494 
L 92.413266 159.493556 
L 107.852001 159.273296 
L 123.290736 157.658809 
L 138.729471 152.778292 
L 154.168207 144.919772 
L 169.606942 155.423869 
L 185.045677 146.195413 
L 200.484412 61.793645 
L 215.923147 148.360728 
L 231.361882 162.539789 
L 246.800618 164.960661 
L 262.239353 164.760538 
L 277.678088 165.221593 
L 293.116823 165.345037 
L 308.555558 165.519263 
L 323.994293 165.582203 
L 339.433029 165.632897 
L 354.871764 165.741893 
L 370.310499 165.532789 
L 385.749234 163.969011 
L 401.187969 163.405423 
L 416.626705 164.711866 
" style="fill:none;stroke:#1b9e77;stroke-linecap:square;stroke-opacity:0.5;stroke-width:1.5;"/>
   </g>
   <g id="line2d_101">
    <path clip-path="url(#p4cbd39ad61)" d="M 61.535795 165.262577 
L 76.974531 163.494385 
L 92.413266 164.893785 
L 107.852001 135.819648 
L 123.290736 134.935916 
L 138.729471 163.330745 
L 154.168207 165.011494 
L 169.606942 161.628075 
L 185.045677 162.853129 
L 200.484412 164.895884 
L 215.923147 165.466862 
L 231.361882 165.740692 
L 246.800618 165.656285 
L 262.239353 161.588368 
L 277.678088 153.959696 
L 293.116823 154.311056 
L 308.555558 144.522113 
L 323.994293 149.983068 
L 339.433029 152.937852 
L 354.871764 161.150689 
L 370.310499 152.738329 
L 385.749234 111.549136 
L 401.187969 163.018673 
L 416.626705 165.755841 
" style="fill:none;stroke:#1b9e77;stroke-linecap:square;stroke-opacity:0.5;stroke-width:1.5;"/>
   </g>
   <g id="line2d_102">
    <path clip-path="url(#p4cbd39ad61)" d="M 61.535795 140.315934 
L 76.974531 126.026893 
L 92.413266 114.619256 
L 107.852001 118.080146 
L 123.290736 112.060876 
L 138.729471 157.058115 
L 154.168207 165.584595 
L 169.606942 165.594859 
L 185.045677 165.784889 
L 200.484412 165.82669 
L 215.923147 165.871509 
L 231.361882 165.889487 
L 246.800618 165.911734 
L 262.239353 165.92206 
L 277.678088 165.920891 
L 293.116823 165.910973 
L 308.555558 165.878609 
L 323.994293 165.801818 
L 339.433029 165.479273 
L 354.871764 165.165366 
L 370.310499 165.067009 
L 385.749234 165.295382 
L 401.187969 165.561709 
L 416.626705 165.876231 
" style="fill:none;stroke:#1b9e77;stroke-linecap:square;stroke-opacity:0.5;stroke-width:1.5;"/>
   </g>
   <g id="line2d_103">
    <path clip-path="url(#p4cbd39ad61)" d="M 61.535795 164.847689 
L 76.974531 159.744375 
L 92.413266 144.025942 
L 107.852001 160.2039 
L 123.290736 164.784948 
L 138.729471 164.196863 
L 154.168207 151.205659 
L 169.606942 155.110658 
L 185.045677 126.910633 
L 200.484412 133.753447 
L 215.923147 141.169861 
L 231.361882 155.354488 
L 246.800618 162.795338 
L 262.239353 163.953033 
L 277.678088 152.645588 
L 293.116823 156.711596 
L 308.555558 165.287764 
L 323.994293 164.715165 
L 339.433029 163.409213 
L 354.871764 162.598158 
L 370.310499 163.031751 
L 385.749234 165.312658 
L 401.187969 164.612698 
L 416.626705 144.122881 
" style="fill:none;stroke:#1b9e77;stroke-linecap:square;stroke-opacity:0.5;stroke-width:1.5;"/>
   </g>
   <g id="line2d_104">
    <path clip-path="url(#p4cbd39ad61)" d="M 61.535795 165.8064 
L 76.974531 165.800882 
L 92.413266 165.814443 
L 107.852001 165.113232 
L 123.290736 165.088553 
L 138.729471 165.840088 
L 154.168207 165.911913 
L 169.606942 165.939499 
L 185.045677 165.9307 
L 200.484412 165.55244 
L 215.923147 164.241918 
L 231.361882 164.33825 
L 246.800618 162.759214 
L 262.239353 140.55928 
L 277.678088 138.259957 
L 293.116823 155.577688 
L 308.555558 156.259561 
L 323.994293 156.091426 
L 339.433029 154.842947 
L 354.871764 148.045929 
L 370.310499 140.933596 
L 385.749234 130.839178 
L 401.187969 125.988601 
L 416.626705 154.96861 
" style="fill:none;stroke:#1b9e77;stroke-linecap:square;stroke-opacity:0.5;stroke-width:1.5;"/>
   </g>
   <g id="line2d_105">
    <path clip-path="url(#p4cbd39ad61)" d="M 61.535795 165.233961 
L 76.974531 165.489945 
L 92.413266 165.146304 
L 107.852001 165.376259 
L 123.290736 165.839856 
L 138.729471 165.92537 
L 154.168207 165.881053 
L 169.606942 156.546223 
L 185.045677 162.989406 
L 200.484412 161.298585 
L 215.923147 124.514996 
L 231.361882 150.476165 
L 246.800618 157.439984 
L 262.239353 163.018923 
L 277.678088 162.472236 
L 293.116823 155.07023 
L 308.555558 135.78999 
L 323.994293 134.111636 
L 339.433029 142.778847 
L 354.871764 149.237626 
L 370.310499 143.164933 
L 385.749234 161.276444 
L 401.187969 165.523152 
L 416.626705 165.902176 
" style="fill:none;stroke:#1b9e77;stroke-linecap:square;stroke-opacity:0.5;stroke-width:1.5;"/>
   </g>
   <g id="line2d_106">
    <path clip-path="url(#p4cbd39ad61)" d="M 61.535795 120.051556 
L 76.974531 94.850944 
L 92.413266 141.12028 
L 107.852001 164.26734 
L 123.290736 164.482995 
L 138.729471 156.054186 
L 154.168207 131.393358 
L 169.606942 163.258773 
L 185.045677 164.515144 
L 200.484412 163.620643 
L 215.923147 162.242944 
L 231.361882 162.615555 
L 246.800618 162.774404 
L 262.239353 162.494029 
L 277.678088 160.603346 
L 293.116823 156.301876 
L 308.555558 160.643878 
L 323.994293 164.798926 
L 339.433029 165.572631 
L 354.871764 165.548645 
L 370.310499 165.671734 
L 385.749234 165.809439 
L 401.187969 165.860316 
L 416.626705 165.951367 
" style="fill:none;stroke:#1b9e77;stroke-linecap:square;stroke-opacity:0.5;stroke-width:1.5;"/>
   </g>
   <g id="line2d_107">
    <path clip-path="url(#p4cbd39ad61)" d="M 61.535795 164.740994 
L 76.974531 160.710777 
L 92.413266 159.552647 
L 107.852001 153.637255 
L 123.290736 131.106826 
L 138.729471 129.517004 
L 154.168207 145.823497 
L 169.606942 147.823278 
L 185.045677 161.079317 
L 200.484412 164.614772 
L 215.923147 165.487659 
L 231.361882 165.617123 
L 246.800618 165.547605 
L 262.239353 164.602935 
L 277.678088 157.120241 
L 293.116823 158.517159 
L 308.555558 156.733431 
L 323.994293 163.381643 
L 339.433029 154.407491 
L 354.871764 143.350939 
L 370.310499 140.048864 
L 385.749234 165.228016 
L 401.187969 165.904356 
L 416.626705 165.950482 
" style="fill:none;stroke:#1b9e77;stroke-linecap:square;stroke-opacity:0.5;stroke-width:1.5;"/>
   </g>
   <g id="line2d_108">
    <path clip-path="url(#p4cbd39ad61)" d="M 61.535795 162.203276 
L 76.974531 164.98672 
L 92.413266 165.619227 
L 107.852001 165.447453 
L 123.290736 165.556876 
L 138.729471 165.705058 
L 154.168207 165.777618 
L 169.606942 165.761799 
L 185.045677 165.713126 
L 200.484412 165.535762 
L 215.923147 165.318464 
L 231.361882 165.782165 
L 246.800618 165.71284 
L 262.239353 154.752327 
L 277.678088 109.277752 
L 293.116823 137.467235 
L 308.555558 145.388988 
L 323.994293 153.212501 
L 339.433029 146.735451 
L 354.871764 123.788471 
L 370.310499 143.18164 
L 385.749234 161.277097 
L 401.187969 162.796403 
L 416.626705 163.506056 
" style="fill:none;stroke:#1b9e77;stroke-linecap:square;stroke-opacity:0.5;stroke-width:1.5;"/>
   </g>
   <g id="line2d_109">
    <path clip-path="url(#p4cbd39ad61)" d="M 61.535795 158.886702 
L 76.974531 161.915906 
L 92.413266 164.68258 
L 107.852001 165.335888 
L 123.290736 165.486153 
L 138.729471 164.73617 
L 154.168207 164.710763 
L 169.606942 164.537932 
L 185.045677 164.24709 
L 200.484412 163.885262 
L 215.923147 162.558162 
L 231.361882 148.619419 
L 246.800618 142.0012 
L 262.239353 100.167924 
L 277.678088 115.99257 
L 293.116823 125.810698 
L 308.555558 160.792739 
L 323.994293 163.999097 
L 339.433029 165.078985 
L 354.871764 165.026865 
L 370.310499 165.208513 
L 385.749234 165.372728 
L 401.187969 165.546018 
L 416.626705 165.904936 
" style="fill:none;stroke:#1b9e77;stroke-linecap:square;stroke-opacity:0.5;stroke-width:1.5;"/>
   </g>
   <g id="line2d_110">
    <path clip-path="url(#p4cbd39ad61)" d="M 61.535795 165.491474 
L 76.974531 165.545011 
L 92.413266 165.700904 
L 107.852001 165.724725 
L 123.290736 165.369091 
L 138.729471 165.157222 
L 154.168207 164.595325 
L 169.606942 164.08294 
L 185.045677 164.195545 
L 200.484412 162.386994 
L 215.923147 155.552786 
L 231.361882 137.254415 
L 246.800618 138.592268 
L 262.239353 137.305976 
L 277.678088 141.295012 
L 293.116823 124.758414 
L 308.555558 132.724163 
L 323.994293 154.213671 
L 339.433029 161.452557 
L 354.871764 158.421775 
L 370.310499 163.191102 
L 385.749234 165.65965 
L 401.187969 165.885418 
L 416.626705 165.94787 
" style="fill:none;stroke:#1b9e77;stroke-linecap:square;stroke-opacity:0.5;stroke-width:1.5;"/>
   </g>
   <g id="line2d_111">
    <path clip-path="url(#p4cbd39ad61)" d="M 61.535795 161.049281 
L 76.974531 138.970008 
L 92.413266 131.23441 
L 107.852001 139.62675 
L 123.290736 115.159219 
L 138.729471 127.862889 
L 154.168207 162.192564 
L 169.606942 163.542252 
L 185.045677 165.669867 
L 200.484412 165.83206 
L 215.923147 165.904519 
L 231.361882 165.901843 
L 246.800618 165.827493 
L 262.239353 165.923925 
L 277.678088 165.924103 
L 293.116823 165.94374 
L 308.555558 165.762538 
L 323.994293 162.340008 
L 339.433029 160.802561 
L 354.871764 163.524966 
L 370.310499 149.83529 
L 385.749234 160.599226 
L 401.187969 158.309411 
L 416.626705 162.765384 
" style="fill:none;stroke:#1b9e77;stroke-linecap:square;stroke-opacity:0.5;stroke-width:1.5;"/>
   </g>
   <g id="line2d_112">
    <path clip-path="url(#p4cbd39ad61)" d="M 61.535795 112.007626 
L 76.974531 142.566723 
L 92.413266 161.098242 
L 107.852001 159.488466 
L 123.290736 159.273412 
L 138.729471 158.682494 
L 154.168207 161.190469 
L 169.606942 163.047678 
L 185.045677 163.167726 
L 200.484412 161.54435 
L 215.923147 160.05869 
L 231.361882 161.655673 
L 246.800618 162.467421 
L 262.239353 163.827169 
L 277.678088 162.758626 
L 293.116823 156.707732 
L 308.555558 139.738635 
L 323.994293 163.618267 
L 339.433029 164.991005 
L 354.871764 160.857035 
L 370.310499 133.775264 
L 385.749234 155.169296 
L 401.187969 158.83069 
L 416.626705 163.981611 
" style="fill:none;stroke:#1b9e77;stroke-linecap:square;stroke-opacity:0.5;stroke-width:1.5;"/>
   </g>
   <g id="line2d_113">
    <path clip-path="url(#p4cbd39ad61)" d="M 61.535795 153.289965 
L 76.974531 164.864344 
L 92.413266 165.761921 
L 107.852001 165.525689 
L 123.290736 164.914532 
L 138.729471 162.814114 
L 154.168207 165.75237 
L 169.606942 165.929739 
L 185.045677 165.94455 
L 200.484412 165.153128 
L 215.923147 145.222055 
L 231.361882 144.318396 
L 246.800618 156.073697 
L 262.239353 150.720759 
L 277.678088 152.044936 
L 293.116823 135.732001 
L 308.555558 134.159509 
L 323.994293 151.252686 
L 339.433029 163.275711 
L 354.871764 165.09297 
L 370.310499 160.630677 
L 385.749234 141.440901 
L 401.187969 151.018303 
L 416.626705 159.571354 
" style="fill:none;stroke:#1b9e77;stroke-linecap:square;stroke-opacity:0.5;stroke-width:1.5;"/>
   </g>
   <g id="line2d_114">
    <path clip-path="url(#p4cbd39ad61)" d="M 61.535795 165.357535 
L 76.974531 165.250432 
L 92.413266 163.10957 
L 107.852001 160.368899 
L 123.290736 163.660035 
L 138.729471 162.084086 
L 154.168207 159.645555 
L 169.606942 160.917887 
L 185.045677 160.593566 
L 200.484412 155.446115 
L 215.923147 133.943479 
L 231.361882 132.487075 
L 246.800618 127.493585 
L 262.239353 128.150397 
L 277.678088 141.961904 
L 293.116823 162.939801 
L 308.555558 163.547025 
L 323.994293 163.677324 
L 339.433029 163.909607 
L 354.871764 163.922937 
L 370.310499 163.728835 
L 385.749234 163.053599 
L 401.187969 163.35812 
L 416.626705 161.896937 
" style="fill:none;stroke:#d95f02;stroke-linecap:square;stroke-width:1.5;"/>
   </g>
   <g id="patch_3">
    <path d="M 43.78125 173.52 
L 43.78125 7.2 
" style="fill:none;stroke:#000000;stroke-linecap:square;stroke-linejoin:miter;stroke-width:0.8;"/>
   </g>
   <g id="patch_4">
    <path d="M 43.78125 173.52 
L 434.38125 173.52 
" style="fill:none;stroke:#000000;stroke-linecap:square;stroke-linejoin:miter;stroke-width:0.8;"/>
   </g>
   <g id="legend_1">
    <g id="patch_5">
     <path d="M 376.214063 29.878125 
L 427.38125 29.878125 
Q 429.38125 29.878125 429.38125 27.878125 
L 429.38125 14.2 
Q 429.38125 12.2 427.38125 12.2 
L 376.214063 12.2 
Q 374.214063 12.2 374.214063 14.2 
L 374.214063 27.878125 
Q 374.214063 29.878125 376.214063 29.878125 
z
" style="fill:#ffffff;opacity:0.8;stroke:#cccccc;stroke-linejoin:miter;"/>
    </g>
    <g id="line2d_115">
     <path d="M 378.214063 20.298438 
L 398.214063 20.298438 
" style="fill:none;stroke:#d95f02;stroke-linecap:square;stroke-width:1.5;"/>
    </g>
    <g id="line2d_116"/>
    <g id="text_16">
     <!-- real -->
     <defs>
      <path d="M 9.421875 75.984375 
L 18.40625 75.984375 
L 18.40625 0 
L 9.421875 0 
z
" id="DejaVuSans-108"/>
     </defs>
     <g transform="translate(406.214063 23.798438)scale(0.1 -0.1)">
      <use xlink:href="#DejaVuSans-114"/>
      <use x="41.082031" xlink:href="#DejaVuSans-101"/>
      <use x="102.605469" xlink:href="#DejaVuSans-97"/>
      <use x="163.884766" xlink:href="#DejaVuSans-108"/>
     </g>
    </g>
   </g>
  </g>
 </g>
 <defs>
  <clipPath id="p4cbd39ad61">
   <rect height="166.32" width="390.6" x="43.78125" y="7.2"/>
  </clipPath>
 </defs>
</svg>
