<?xml version="1.0" encoding="utf-8" standalone="no"?>
<!DOCTYPE svg PUBLIC "-//W3C//DTD SVG 1.1//EN"
  "http://www.w3.org/Graphics/SVG/1.1/DTD/svg11.dtd">
<!-- Created with matplotlib (https://matplotlib.org/) -->
<svg height="211.07625pt" version="1.1" viewBox="0 0 436.087315 211.07625" width="436.087315pt" xmlns="http://www.w3.org/2000/svg" xmlns:xlink="http://www.w3.org/1999/xlink">
 <defs>
  <style type="text/css">
*{stroke-linecap:butt;stroke-linejoin:round;}
  </style>
 </defs>
 <g id="figure_1">
  <g id="patch_1">
   <path d="M 0 211.07625 
L 436.087315 211.07625 
L 436.087315 0 
L 0 0 
z
" style="fill:#ffffff;"/>
  </g>
  <g id="axes_1">
   <g id="patch_2">
    <path d="M 34.240625 173.52 
L 424.840625 173.52 
L 424.840625 7.2 
L 34.240625 7.2 
z
" style="fill:#ffffff;"/>
   </g>
   <g id="matplotlib.axis_1">
    <g id="xtick_1">
     <g id="line2d_1">
      <defs>
       <path d="M 0 0 
L 0 3.5 
" id="mcdcd602f79" style="stroke:#000000;stroke-width:0.8;"/>
      </defs>
      <g>
       <use style="stroke:#000000;stroke-width:0.8;" x="36.556435" xlink:href="#mcdcd602f79" y="173.52"/>
      </g>
     </g>
     <g id="text_1">
      <!-- 0 -->
      <defs>
       <path d="M 31.78125 66.40625 
Q 24.171875 66.40625 20.328125 58.90625 
Q 16.5 51.421875 16.5 36.375 
Q 16.5 21.390625 20.328125 13.890625 
Q 24.171875 6.390625 31.78125 6.390625 
Q 39.453125 6.390625 43.28125 13.890625 
Q 47.125 21.390625 47.125 36.375 
Q 47.125 51.421875 43.28125 58.90625 
Q 39.453125 66.40625 31.78125 66.40625 
z
M 31.78125 74.21875 
Q 44.046875 74.21875 50.515625 64.515625 
Q 56.984375 54.828125 56.984375 36.375 
Q 56.984375 17.96875 50.515625 8.265625 
Q 44.046875 -1.421875 31.78125 -1.421875 
Q 19.53125 -1.421875 13.0625 8.265625 
Q 6.59375 17.96875 6.59375 36.375 
Q 6.59375 54.828125 13.0625 64.515625 
Q 19.53125 74.21875 31.78125 74.21875 
z
" id="DejaVuSans-48"/>
      </defs>
      <g transform="translate(33.375185 188.118438)scale(0.1 -0.1)">
       <use xlink:href="#DejaVuSans-48"/>
      </g>
     </g>
    </g>
    <g id="xtick_2">
     <g id="line2d_2">
      <g>
       <use style="stroke:#000000;stroke-width:0.8;" x="113.750111" xlink:href="#mcdcd602f79" y="173.52"/>
      </g>
     </g>
     <g id="text_2">
      <!-- 5 -->
      <defs>
       <path d="M 10.796875 72.90625 
L 49.515625 72.90625 
L 49.515625 64.59375 
L 19.828125 64.59375 
L 19.828125 46.734375 
Q 21.96875 47.46875 24.109375 47.828125 
Q 26.265625 48.1875 28.421875 48.1875 
Q 40.625 48.1875 47.75 41.5 
Q 54.890625 34.8125 54.890625 23.390625 
Q 54.890625 11.625 47.5625 5.09375 
Q 40.234375 -1.421875 26.90625 -1.421875 
Q 22.3125 -1.421875 17.546875 -0.640625 
Q 12.796875 0.140625 7.71875 1.703125 
L 7.71875 11.625 
Q 12.109375 9.234375 16.796875 8.0625 
Q 21.484375 6.890625 26.703125 6.890625 
Q 35.15625 6.890625 40.078125 11.328125 
Q 45.015625 15.765625 45.015625 23.390625 
Q 45.015625 31 40.078125 35.4375 
Q 35.15625 39.890625 26.703125 39.890625 
Q 22.75 39.890625 18.8125 39.015625 
Q 14.890625 38.140625 10.796875 36.28125 
z
" id="DejaVuSans-53"/>
      </defs>
      <g transform="translate(110.568861 188.118438)scale(0.1 -0.1)">
       <use xlink:href="#DejaVuSans-53"/>
      </g>
     </g>
    </g>
    <g id="xtick_3">
     <g id="line2d_3">
      <g>
       <use style="stroke:#000000;stroke-width:0.8;" x="190.943787" xlink:href="#mcdcd602f79" y="173.52"/>
      </g>
     </g>
     <g id="text_3">
      <!-- 10 -->
      <defs>
       <path d="M 12.40625 8.296875 
L 28.515625 8.296875 
L 28.515625 63.921875 
L 10.984375 60.40625 
L 10.984375 69.390625 
L 28.421875 72.90625 
L 38.28125 72.90625 
L 38.28125 8.296875 
L 54.390625 8.296875 
L 54.390625 0 
L 12.40625 0 
z
" id="DejaVuSans-49"/>
      </defs>
      <g transform="translate(184.581287 188.118438)scale(0.1 -0.1)">
       <use xlink:href="#DejaVuSans-49"/>
       <use x="63.623047" xlink:href="#DejaVuSans-48"/>
      </g>
     </g>
    </g>
    <g id="xtick_4">
     <g id="line2d_4">
      <g>
       <use style="stroke:#000000;stroke-width:0.8;" x="268.137463" xlink:href="#mcdcd602f79" y="173.52"/>
      </g>
     </g>
     <g id="text_4">
      <!-- 15 -->
      <g transform="translate(261.774963 188.118438)scale(0.1 -0.1)">
       <use xlink:href="#DejaVuSans-49"/>
       <use x="63.623047" xlink:href="#DejaVuSans-53"/>
      </g>
     </g>
    </g>
    <g id="xtick_5">
     <g id="line2d_5">
      <g>
       <use style="stroke:#000000;stroke-width:0.8;" x="345.331139" xlink:href="#mcdcd602f79" y="173.52"/>
      </g>
     </g>
     <g id="text_5">
      <!-- 20 -->
      <defs>
       <path d="M 19.1875 8.296875 
L 53.609375 8.296875 
L 53.609375 0 
L 7.328125 0 
L 7.328125 8.296875 
Q 12.9375 14.109375 22.625 23.890625 
Q 32.328125 33.6875 34.8125 36.53125 
Q 39.546875 41.84375 41.421875 45.53125 
Q 43.3125 49.21875 43.3125 52.78125 
Q 43.3125 58.59375 39.234375 62.25 
Q 35.15625 65.921875 28.609375 65.921875 
Q 23.96875 65.921875 18.8125 64.3125 
Q 13.671875 62.703125 7.8125 59.421875 
L 7.8125 69.390625 
Q 13.765625 71.78125 18.9375 73 
Q 24.125 74.21875 28.421875 74.21875 
Q 39.75 74.21875 46.484375 68.546875 
Q 53.21875 62.890625 53.21875 53.421875 
Q 53.21875 48.921875 51.53125 44.890625 
Q 49.859375 40.875 45.40625 35.40625 
Q 44.1875 33.984375 37.640625 27.21875 
Q 31.109375 20.453125 19.1875 8.296875 
z
" id="DejaVuSans-50"/>
      </defs>
      <g transform="translate(338.968639 188.118438)scale(0.1 -0.1)">
       <use xlink:href="#DejaVuSans-50"/>
       <use x="63.623047" xlink:href="#DejaVuSans-48"/>
      </g>
     </g>
    </g>
    <g id="xtick_6">
     <g id="line2d_6">
      <g>
       <use style="stroke:#000000;stroke-width:0.8;" x="422.524815" xlink:href="#mcdcd602f79" y="173.52"/>
      </g>
     </g>
     <g id="text_6">
      <!-- 25 -->
      <g transform="translate(416.162315 188.118438)scale(0.1 -0.1)">
       <use xlink:href="#DejaVuSans-50"/>
       <use x="63.623047" xlink:href="#DejaVuSans-53"/>
      </g>
     </g>
    </g>
    <g id="text_7">
     <!-- hour -->
     <defs>
      <path d="M 54.890625 33.015625 
L 54.890625 0 
L 45.90625 0 
L 45.90625 32.71875 
Q 45.90625 40.484375 42.875 44.328125 
Q 39.84375 48.1875 33.796875 48.1875 
Q 26.515625 48.1875 22.3125 43.546875 
Q 18.109375 38.921875 18.109375 30.90625 
L 18.109375 0 
L 9.078125 0 
L 9.078125 75.984375 
L 18.109375 75.984375 
L 18.109375 46.1875 
Q 21.34375 51.125 25.703125 53.5625 
Q 30.078125 56 35.796875 56 
Q 45.21875 56 50.046875 50.171875 
Q 54.890625 44.34375 54.890625 33.015625 
z
" id="DejaVuSans-104"/>
      <path d="M 30.609375 48.390625 
Q 23.390625 48.390625 19.1875 42.75 
Q 14.984375 37.109375 14.984375 27.296875 
Q 14.984375 17.484375 19.15625 11.84375 
Q 23.34375 6.203125 30.609375 6.203125 
Q 37.796875 6.203125 41.984375 11.859375 
Q 46.1875 17.53125 46.1875 27.296875 
Q 46.1875 37.015625 41.984375 42.703125 
Q 37.796875 48.390625 30.609375 48.390625 
z
M 30.609375 56 
Q 42.328125 56 49.015625 48.375 
Q 55.71875 40.765625 55.71875 27.296875 
Q 55.71875 13.875 49.015625 6.21875 
Q 42.328125 -1.421875 30.609375 -1.421875 
Q 18.84375 -1.421875 12.171875 6.21875 
Q 5.515625 13.875 5.515625 27.296875 
Q 5.515625 40.765625 12.171875 48.375 
Q 18.84375 56 30.609375 56 
z
" id="DejaVuSans-111"/>
      <path d="M 8.5 21.578125 
L 8.5 54.6875 
L 17.484375 54.6875 
L 17.484375 21.921875 
Q 17.484375 14.15625 20.5 10.265625 
Q 23.53125 6.390625 29.59375 6.390625 
Q 36.859375 6.390625 41.078125 11.03125 
Q 45.3125 15.671875 45.3125 23.6875 
L 45.3125 54.6875 
L 54.296875 54.6875 
L 54.296875 0 
L 45.3125 0 
L 45.3125 8.40625 
Q 42.046875 3.421875 37.71875 1 
Q 33.40625 -1.421875 27.6875 -1.421875 
Q 18.265625 -1.421875 13.375 4.4375 
Q 8.5 10.296875 8.5 21.578125 
z
M 31.109375 56 
z
" id="DejaVuSans-117"/>
      <path d="M 41.109375 46.296875 
Q 39.59375 47.171875 37.8125 47.578125 
Q 36.03125 48 33.890625 48 
Q 26.265625 48 22.1875 43.046875 
Q 18.109375 38.09375 18.109375 28.8125 
L 18.109375 0 
L 9.078125 0 
L 9.078125 54.6875 
L 18.109375 54.6875 
L 18.109375 46.1875 
Q 20.953125 51.171875 25.484375 53.578125 
Q 30.03125 56 36.53125 56 
Q 37.453125 56 38.578125 55.875 
Q 39.703125 55.765625 41.0625 55.515625 
z
" id="DejaVuSans-114"/>
     </defs>
     <g transform="translate(218.088281 201.796563)scale(0.1 -0.1)">
      <use xlink:href="#DejaVuSans-104"/>
      <use x="63.378906" xlink:href="#DejaVuSans-111"/>
      <use x="124.560547" xlink:href="#DejaVuSans-117"/>
      <use x="187.939453" xlink:href="#DejaVuSans-114"/>
     </g>
    </g>
   </g>
   <g id="matplotlib.axis_2">
    <g id="ytick_1">
     <g id="line2d_7">
      <defs>
       <path d="M 0 0 
L -3.5 0 
" id="mda403dd99b" style="stroke:#000000;stroke-width:0.8;"/>
      </defs>
      <g>
       <use style="stroke:#000000;stroke-width:0.8;" x="34.240625" xlink:href="#mda403dd99b" y="165.960934"/>
      </g>
     </g>
     <g id="text_8">
      <!-- 0 -->
      <g transform="translate(20.878125 169.760153)scale(0.1 -0.1)">
       <use xlink:href="#DejaVuSans-48"/>
      </g>
     </g>
    </g>
    <g id="ytick_2">
     <g id="line2d_8">
      <g>
       <use style="stroke:#000000;stroke-width:0.8;" x="34.240625" xlink:href="#mda403dd99b" y="131.435697"/>
      </g>
     </g>
     <g id="text_9">
      <!-- 1 -->
      <g transform="translate(20.878125 135.234916)scale(0.1 -0.1)">
       <use xlink:href="#DejaVuSans-49"/>
      </g>
     </g>
    </g>
    <g id="ytick_3">
     <g id="line2d_9">
      <g>
       <use style="stroke:#000000;stroke-width:0.8;" x="34.240625" xlink:href="#mda403dd99b" y="96.910461"/>
      </g>
     </g>
     <g id="text_10">
      <!-- 2 -->
      <g transform="translate(20.878125 100.709679)scale(0.1 -0.1)">
       <use xlink:href="#DejaVuSans-50"/>
      </g>
     </g>
    </g>
    <g id="ytick_4">
     <g id="line2d_10">
      <g>
       <use style="stroke:#000000;stroke-width:0.8;" x="34.240625" xlink:href="#mda403dd99b" y="62.385224"/>
      </g>
     </g>
     <g id="text_11">
      <!-- 3 -->
      <defs>
       <path d="M 40.578125 39.3125 
Q 47.65625 37.796875 51.625 33 
Q 55.609375 28.21875 55.609375 21.1875 
Q 55.609375 10.40625 48.1875 4.484375 
Q 40.765625 -1.421875 27.09375 -1.421875 
Q 22.515625 -1.421875 17.65625 -0.515625 
Q 12.796875 0.390625 7.625 2.203125 
L 7.625 11.71875 
Q 11.71875 9.328125 16.59375 8.109375 
Q 21.484375 6.890625 26.8125 6.890625 
Q 36.078125 6.890625 40.9375 10.546875 
Q 45.796875 14.203125 45.796875 21.1875 
Q 45.796875 27.640625 41.28125 31.265625 
Q 36.765625 34.90625 28.71875 34.90625 
L 20.21875 34.90625 
L 20.21875 43.015625 
L 29.109375 43.015625 
Q 36.375 43.015625 40.234375 45.921875 
Q 44.09375 48.828125 44.09375 54.296875 
Q 44.09375 59.90625 40.109375 62.90625 
Q 36.140625 65.921875 28.71875 65.921875 
Q 24.65625 65.921875 20.015625 65.03125 
Q 15.375 64.15625 9.8125 62.3125 
L 9.8125 71.09375 
Q 15.4375 72.65625 20.34375 73.4375 
Q 25.25 74.21875 29.59375 74.21875 
Q 40.828125 74.21875 47.359375 69.109375 
Q 53.90625 64.015625 53.90625 55.328125 
Q 53.90625 49.265625 50.4375 45.09375 
Q 46.96875 40.921875 40.578125 39.3125 
z
" id="DejaVuSans-51"/>
      </defs>
      <g transform="translate(20.878125 66.184442)scale(0.1 -0.1)">
       <use xlink:href="#DejaVuSans-51"/>
      </g>
     </g>
    </g>
    <g id="ytick_5">
     <g id="line2d_11">
      <g>
       <use style="stroke:#000000;stroke-width:0.8;" x="34.240625" xlink:href="#mda403dd99b" y="27.859987"/>
      </g>
     </g>
     <g id="text_12">
      <!-- 4 -->
      <defs>
       <path d="M 37.796875 64.3125 
L 12.890625 25.390625 
L 37.796875 25.390625 
z
M 35.203125 72.90625 
L 47.609375 72.90625 
L 47.609375 25.390625 
L 58.015625 25.390625 
L 58.015625 17.1875 
L 47.609375 17.1875 
L 47.609375 0 
L 37.796875 0 
L 37.796875 17.1875 
L 4.890625 17.1875 
L 4.890625 26.703125 
z
" id="DejaVuSans-52"/>
      </defs>
      <g transform="translate(20.878125 31.659205)scale(0.1 -0.1)">
       <use xlink:href="#DejaVuSans-52"/>
      </g>
     </g>
    </g>
    <g id="text_13">
     <!-- precipitation [mm/hour] -->
     <defs>
      <path d="M 18.109375 8.203125 
L 18.109375 -20.796875 
L 9.078125 -20.796875 
L 9.078125 54.6875 
L 18.109375 54.6875 
L 18.109375 46.390625 
Q 20.953125 51.265625 25.265625 53.625 
Q 29.59375 56 35.59375 56 
Q 45.5625 56 51.78125 48.09375 
Q 58.015625 40.1875 58.015625 27.296875 
Q 58.015625 14.40625 51.78125 6.484375 
Q 45.5625 -1.421875 35.59375 -1.421875 
Q 29.59375 -1.421875 25.265625 0.953125 
Q 20.953125 3.328125 18.109375 8.203125 
z
M 48.6875 27.296875 
Q 48.6875 37.203125 44.609375 42.84375 
Q 40.53125 48.484375 33.40625 48.484375 
Q 26.265625 48.484375 22.1875 42.84375 
Q 18.109375 37.203125 18.109375 27.296875 
Q 18.109375 17.390625 22.1875 11.75 
Q 26.265625 6.109375 33.40625 6.109375 
Q 40.53125 6.109375 44.609375 11.75 
Q 48.6875 17.390625 48.6875 27.296875 
z
" id="DejaVuSans-112"/>
      <path d="M 56.203125 29.59375 
L 56.203125 25.203125 
L 14.890625 25.203125 
Q 15.484375 15.921875 20.484375 11.0625 
Q 25.484375 6.203125 34.421875 6.203125 
Q 39.59375 6.203125 44.453125 7.46875 
Q 49.3125 8.734375 54.109375 11.28125 
L 54.109375 2.78125 
Q 49.265625 0.734375 44.1875 -0.34375 
Q 39.109375 -1.421875 33.890625 -1.421875 
Q 20.796875 -1.421875 13.15625 6.1875 
Q 5.515625 13.8125 5.515625 26.8125 
Q 5.515625 40.234375 12.765625 48.109375 
Q 20.015625 56 32.328125 56 
Q 43.359375 56 49.78125 48.890625 
Q 56.203125 41.796875 56.203125 29.59375 
z
M 47.21875 32.234375 
Q 47.125 39.59375 43.09375 43.984375 
Q 39.0625 48.390625 32.421875 48.390625 
Q 24.90625 48.390625 20.390625 44.140625 
Q 15.875 39.890625 15.1875 32.171875 
z
" id="DejaVuSans-101"/>
      <path d="M 48.78125 52.59375 
L 48.78125 44.1875 
Q 44.96875 46.296875 41.140625 47.34375 
Q 37.3125 48.390625 33.40625 48.390625 
Q 24.65625 48.390625 19.8125 42.84375 
Q 14.984375 37.3125 14.984375 27.296875 
Q 14.984375 17.28125 19.8125 11.734375 
Q 24.65625 6.203125 33.40625 6.203125 
Q 37.3125 6.203125 41.140625 7.25 
Q 44.96875 8.296875 48.78125 10.40625 
L 48.78125 2.09375 
Q 45.015625 0.34375 40.984375 -0.53125 
Q 36.96875 -1.421875 32.421875 -1.421875 
Q 20.0625 -1.421875 12.78125 6.34375 
Q 5.515625 14.109375 5.515625 27.296875 
Q 5.515625 40.671875 12.859375 48.328125 
Q 20.21875 56 33.015625 56 
Q 37.15625 56 41.109375 55.140625 
Q 45.0625 54.296875 48.78125 52.59375 
z
" id="DejaVuSans-99"/>
      <path d="M 9.421875 54.6875 
L 18.40625 54.6875 
L 18.40625 0 
L 9.421875 0 
z
M 9.421875 75.984375 
L 18.40625 75.984375 
L 18.40625 64.59375 
L 9.421875 64.59375 
z
" id="DejaVuSans-105"/>
      <path d="M 18.3125 70.21875 
L 18.3125 54.6875 
L 36.8125 54.6875 
L 36.8125 47.703125 
L 18.3125 47.703125 
L 18.3125 18.015625 
Q 18.3125 11.328125 20.140625 9.421875 
Q 21.96875 7.515625 27.59375 7.515625 
L 36.8125 7.515625 
L 36.8125 0 
L 27.59375 0 
Q 17.1875 0 13.234375 3.875 
Q 9.28125 7.765625 9.28125 18.015625 
L 9.28125 47.703125 
L 2.6875 47.703125 
L 2.6875 54.6875 
L 9.28125 54.6875 
L 9.28125 70.21875 
z
" id="DejaVuSans-116"/>
      <path d="M 34.28125 27.484375 
Q 23.390625 27.484375 19.1875 25 
Q 14.984375 22.515625 14.984375 16.5 
Q 14.984375 11.71875 18.140625 8.90625 
Q 21.296875 6.109375 26.703125 6.109375 
Q 34.1875 6.109375 38.703125 11.40625 
Q 43.21875 16.703125 43.21875 25.484375 
L 43.21875 27.484375 
z
M 52.203125 31.203125 
L 52.203125 0 
L 43.21875 0 
L 43.21875 8.296875 
Q 40.140625 3.328125 35.546875 0.953125 
Q 30.953125 -1.421875 24.3125 -1.421875 
Q 15.921875 -1.421875 10.953125 3.296875 
Q 6 8.015625 6 15.921875 
Q 6 25.140625 12.171875 29.828125 
Q 18.359375 34.515625 30.609375 34.515625 
L 43.21875 34.515625 
L 43.21875 35.40625 
Q 43.21875 41.609375 39.140625 45 
Q 35.0625 48.390625 27.6875 48.390625 
Q 23 48.390625 18.546875 47.265625 
Q 14.109375 46.140625 10.015625 43.890625 
L 10.015625 52.203125 
Q 14.9375 54.109375 19.578125 55.046875 
Q 24.21875 56 28.609375 56 
Q 40.484375 56 46.34375 49.84375 
Q 52.203125 43.703125 52.203125 31.203125 
z
" id="DejaVuSans-97"/>
      <path d="M 54.890625 33.015625 
L 54.890625 0 
L 45.90625 0 
L 45.90625 32.71875 
Q 45.90625 40.484375 42.875 44.328125 
Q 39.84375 48.1875 33.796875 48.1875 
Q 26.515625 48.1875 22.3125 43.546875 
Q 18.109375 38.921875 18.109375 30.90625 
L 18.109375 0 
L 9.078125 0 
L 9.078125 54.6875 
L 18.109375 54.6875 
L 18.109375 46.1875 
Q 21.34375 51.125 25.703125 53.5625 
Q 30.078125 56 35.796875 56 
Q 45.21875 56 50.046875 50.171875 
Q 54.890625 44.34375 54.890625 33.015625 
z
" id="DejaVuSans-110"/>
      <path id="DejaVuSans-32"/>
      <path d="M 8.59375 75.984375 
L 29.296875 75.984375 
L 29.296875 69 
L 17.578125 69 
L 17.578125 -6.203125 
L 29.296875 -6.203125 
L 29.296875 -13.1875 
L 8.59375 -13.1875 
z
" id="DejaVuSans-91"/>
      <path d="M 52 44.1875 
Q 55.375 50.25 60.0625 53.125 
Q 64.75 56 71.09375 56 
Q 79.640625 56 84.28125 50.015625 
Q 88.921875 44.046875 88.921875 33.015625 
L 88.921875 0 
L 79.890625 0 
L 79.890625 32.71875 
Q 79.890625 40.578125 77.09375 44.375 
Q 74.3125 48.1875 68.609375 48.1875 
Q 61.625 48.1875 57.5625 43.546875 
Q 53.515625 38.921875 53.515625 30.90625 
L 53.515625 0 
L 44.484375 0 
L 44.484375 32.71875 
Q 44.484375 40.625 41.703125 44.40625 
Q 38.921875 48.1875 33.109375 48.1875 
Q 26.21875 48.1875 22.15625 43.53125 
Q 18.109375 38.875 18.109375 30.90625 
L 18.109375 0 
L 9.078125 0 
L 9.078125 54.6875 
L 18.109375 54.6875 
L 18.109375 46.1875 
Q 21.1875 51.21875 25.484375 53.609375 
Q 29.78125 56 35.6875 56 
Q 41.65625 56 45.828125 52.96875 
Q 50 49.953125 52 44.1875 
z
" id="DejaVuSans-109"/>
      <path d="M 25.390625 72.90625 
L 33.6875 72.90625 
L 8.296875 -9.28125 
L 0 -9.28125 
z
" id="DejaVuSans-47"/>
      <path d="M 30.421875 75.984375 
L 30.421875 -13.1875 
L 9.71875 -13.1875 
L 9.71875 -6.203125 
L 21.390625 -6.203125 
L 21.390625 69 
L 9.71875 69 
L 9.71875 75.984375 
z
" id="DejaVuSans-93"/>
     </defs>
     <g transform="translate(14.798438 150.335781)rotate(-90)scale(0.1 -0.1)">
      <use xlink:href="#DejaVuSans-112"/>
      <use x="63.476562" xlink:href="#DejaVuSans-114"/>
      <use x="104.558594" xlink:href="#DejaVuSans-101"/>
      <use x="166.082031" xlink:href="#DejaVuSans-99"/>
      <use x="221.0625" xlink:href="#DejaVuSans-105"/>
      <use x="248.845703" xlink:href="#DejaVuSans-112"/>
      <use x="312.322266" xlink:href="#DejaVuSans-105"/>
      <use x="340.105469" xlink:href="#DejaVuSans-116"/>
      <use x="379.314453" xlink:href="#DejaVuSans-97"/>
      <use x="440.59375" xlink:href="#DejaVuSans-116"/>
      <use x="479.802734" xlink:href="#DejaVuSans-105"/>
      <use x="507.585938" xlink:href="#DejaVuSans-111"/>
      <use x="568.767578" xlink:href="#DejaVuSans-110"/>
      <use x="632.146484" xlink:href="#DejaVuSans-32"/>
      <use x="663.933594" xlink:href="#DejaVuSans-91"/>
      <use x="702.947266" xlink:href="#DejaVuSans-109"/>
      <use x="800.359375" xlink:href="#DejaVuSans-109"/>
      <use x="897.771484" xlink:href="#DejaVuSans-47"/>
      <use x="931.462891" xlink:href="#DejaVuSans-104"/>
      <use x="994.841797" xlink:href="#DejaVuSans-111"/>
      <use x="1056.023438" xlink:href="#DejaVuSans-117"/>
      <use x="1119.402344" xlink:href="#DejaVuSans-114"/>
      <use x="1160.515625" xlink:href="#DejaVuSans-93"/>
     </g>
    </g>
   </g>
   <g id="line2d_12">
    <path clip-path="url(#p526df1e80d)" d="M 51.99517 164.677073 
L 67.433906 160.987442 
L 82.872641 150.648756 
L 98.311376 138.221485 
L 113.750111 145.933172 
L 129.188846 154.545983 
L 144.627582 155.773951 
L 160.066317 156.376212 
L 175.505052 142.933816 
L 190.943787 160.556867 
L 206.382522 159.154247 
L 221.821257 156.862259 
L 237.259993 160.850758 
L 252.698728 162.299061 
L 268.137463 159.991943 
L 283.576198 161.303299 
L 299.014933 163.560667 
L 314.453668 156.338544 
L 329.892404 142.958646 
L 345.331139 140.946771 
L 360.769874 151.112766 
L 376.208609 149.246847 
L 391.647344 159.497615 
L 407.08608 165.836227 
" style="fill:none;stroke:#1b9e77;stroke-linecap:square;stroke-opacity:0.5;stroke-width:1.5;"/>
   </g>
   <g id="line2d_13">
    <path clip-path="url(#p526df1e80d)" d="M 51.99517 165.586196 
L 67.433906 165.698686 
L 82.872641 165.856206 
L 98.311376 165.896479 
L 113.750111 165.91036 
L 129.188846 165.561259 
L 144.627582 165.029776 
L 160.066317 165.047591 
L 175.505052 164.520209 
L 190.943787 163.938058 
L 206.382522 163.098576 
L 221.821257 162.977319 
L 237.259993 154.222669 
L 252.698728 115.370793 
L 268.137463 130.008997 
L 283.576198 134.11947 
L 299.014933 143.340205 
L 314.453668 146.334492 
L 329.892404 160.577346 
L 345.331139 162.886676 
L 360.769874 152.877314 
L 376.208609 140.296866 
L 391.647344 143.948925 
L 407.08608 157.509942 
" style="fill:none;stroke:#1b9e77;stroke-linecap:square;stroke-opacity:0.5;stroke-width:1.5;"/>
   </g>
   <g id="line2d_14">
    <path clip-path="url(#p526df1e80d)" d="M 51.99517 165.538442 
L 67.433906 163.832173 
L 82.872641 162.08201 
L 98.311376 154.70122 
L 113.750111 107.705149 
L 129.188846 92.162317 
L 144.627582 127.251042 
L 160.066317 138.363548 
L 175.505052 138.72802 
L 190.943787 156.773431 
L 206.382522 164.349592 
L 221.821257 162.632303 
L 237.259993 164.450669 
L 252.698728 165.613721 
L 268.137463 165.861616 
L 283.576198 165.885591 
L 299.014933 165.92351 
L 314.453668 165.940592 
L 329.892404 165.731948 
L 345.331139 165.677624 
L 360.769874 165.588081 
L 376.208609 165.398322 
L 391.647344 165.11605 
L 407.08608 165.307439 
" style="fill:none;stroke:#1b9e77;stroke-linecap:square;stroke-opacity:0.5;stroke-width:1.5;"/>
   </g>
   <g id="line2d_15">
    <path clip-path="url(#p526df1e80d)" d="M 51.99517 161.132245 
L 67.433906 158.459872 
L 82.872641 164.323186 
L 98.311376 164.619162 
L 113.750111 164.534768 
L 129.188846 164.0531 
L 144.627582 163.545058 
L 160.066317 164.668318 
L 175.505052 164.906062 
L 190.943787 164.299491 
L 206.382522 164.179711 
L 221.821257 165.155624 
L 237.259993 165.429269 
L 252.698728 164.993183 
L 268.137463 151.461957 
L 283.576198 119.992028 
L 299.014933 131.982845 
L 314.453668 161.432893 
L 329.892404 161.361775 
L 345.331139 121.230035 
L 360.769874 97.151893 
L 376.208609 150.172325 
L 391.647344 165.606755 
L 407.08608 165.922858 
" style="fill:none;stroke:#1b9e77;stroke-linecap:square;stroke-opacity:0.5;stroke-width:1.5;"/>
   </g>
   <g id="line2d_16">
    <path clip-path="url(#p526df1e80d)" d="M 51.99517 159.610658 
L 67.433906 157.141066 
L 82.872641 158.587559 
L 98.311376 156.421451 
L 113.750111 154.232632 
L 129.188846 96.046339 
L 144.627582 93.893228 
L 160.066317 114.289332 
L 175.505052 156.242884 
L 190.943787 163.693082 
L 206.382522 165.274253 
L 221.821257 165.288239 
L 237.259993 165.39799 
L 252.698728 165.118984 
L 268.137463 164.427751 
L 283.576198 164.601814 
L 299.014933 164.575885 
L 314.453668 164.908674 
L 329.892404 164.903699 
L 345.331139 164.517811 
L 360.769874 164.432381 
L 376.208609 165.373815 
L 391.647344 165.71224 
L 407.08608 165.922643 
" style="fill:none;stroke:#1b9e77;stroke-linecap:square;stroke-opacity:0.5;stroke-width:1.5;"/>
   </g>
   <g id="line2d_17">
    <path clip-path="url(#p526df1e80d)" d="M 51.99517 86.23663 
L 67.433906 136.62515 
L 82.872641 139.039737 
L 98.311376 139.99122 
L 113.750111 140.675093 
L 129.188846 128.446678 
L 144.627582 157.952393 
L 160.066317 164.598408 
L 175.505052 165.654617 
L 190.943787 165.693512 
L 206.382522 165.714442 
L 221.821257 165.781473 
L 237.259993 165.764053 
L 252.698728 165.882928 
L 268.137463 163.911243 
L 283.576198 163.389921 
L 299.014933 163.772933 
L 314.453668 162.812104 
L 329.892404 160.939443 
L 345.331139 162.526462 
L 360.769874 164.678942 
L 376.208609 162.122396 
L 391.647344 165.955096 
L 407.08608 162.449532 
" style="fill:none;stroke:#1b9e77;stroke-linecap:square;stroke-opacity:0.5;stroke-width:1.5;"/>
   </g>
   <g id="line2d_18">
    <path clip-path="url(#p526df1e80d)" d="M 51.99517 165.361964 
L 67.433906 161.808762 
L 82.872641 154.606599 
L 98.311376 148.279001 
L 113.750111 152.127068 
L 129.188846 158.000604 
L 144.627582 156.899778 
L 160.066317 104.030038 
L 175.505052 101.938367 
L 190.943787 144.9443 
L 206.382522 159.974881 
L 221.821257 158.114187 
L 237.259993 154.535508 
L 252.698728 165.350401 
L 268.137463 165.848116 
L 283.576198 164.149065 
L 299.014933 164.193108 
L 314.453668 163.067966 
L 329.892404 160.148038 
L 345.331139 163.630433 
L 360.769874 163.646494 
L 376.208609 162.882732 
L 391.647344 162.480984 
L 407.08608 164.596014 
" style="fill:none;stroke:#1b9e77;stroke-linecap:square;stroke-opacity:0.5;stroke-width:1.5;"/>
   </g>
   <g id="line2d_19">
    <path clip-path="url(#p526df1e80d)" d="M 51.99517 158.457435 
L 67.433906 128.250477 
L 82.872641 147.546679 
L 98.311376 156.750213 
L 113.750111 160.194716 
L 129.188846 114.966781 
L 144.627582 117.74547 
L 160.066317 155.622759 
L 175.505052 161.462394 
L 190.943787 159.466196 
L 206.382522 153.320924 
L 221.821257 157.538869 
L 237.259993 164.372945 
L 252.698728 165.318677 
L 268.137463 165.288978 
L 283.576198 160.341017 
L 299.014933 158.113296 
L 314.453668 165.809862 
L 329.892404 165.932544 
L 345.331139 161.964295 
L 360.769874 154.51711 
L 376.208609 163.147453 
L 391.647344 160.095234 
L 407.08608 164.390089 
" style="fill:none;stroke:#1b9e77;stroke-linecap:square;stroke-opacity:0.5;stroke-width:1.5;"/>
   </g>
   <g id="line2d_20">
    <path clip-path="url(#p526df1e80d)" d="M 51.99517 165.571397 
L 67.433906 165.579749 
L 82.872641 165.793558 
L 98.311376 165.776388 
L 113.750111 165.795121 
L 129.188846 165.783217 
L 144.627582 165.775908 
L 160.066317 165.900727 
L 175.505052 165.915105 
L 190.943787 165.07398 
L 206.382522 159.817544 
L 221.821257 154.303356 
L 237.259993 129.8562 
L 252.698728 152.734056 
L 268.137463 156.22634 
L 283.576198 156.213259 
L 299.014933 146.443222 
L 314.453668 123.080936 
L 329.892404 108.391566 
L 345.331139 147.790032 
L 360.769874 158.280652 
L 376.208609 143.282704 
L 391.647344 161.35416 
L 407.08608 165.875218 
" style="fill:none;stroke:#1b9e77;stroke-linecap:square;stroke-opacity:0.5;stroke-width:1.5;"/>
   </g>
   <g id="line2d_21">
    <path clip-path="url(#p526df1e80d)" d="M 51.99517 162.41708 
L 67.433906 164.177864 
L 82.872641 165.275233 
L 98.311376 165.238298 
L 113.750111 164.465636 
L 129.188846 158.454009 
L 144.627582 151.724128 
L 160.066317 163.041558 
L 175.505052 159.398194 
L 190.943787 108.584606 
L 206.382522 87.381206 
L 221.821257 130.459134 
L 237.259993 157.989899 
L 252.698728 160.701215 
L 268.137463 157.264949 
L 283.576198 146.621324 
L 299.014933 159.790446 
L 314.453668 164.886759 
L 329.892404 165.512222 
L 345.331139 165.006863 
L 360.769874 164.798159 
L 376.208609 165.635797 
L 391.647344 165.845179 
L 407.08608 165.944655 
" style="fill:none;stroke:#1b9e77;stroke-linecap:square;stroke-opacity:0.5;stroke-width:1.5;"/>
   </g>
   <g id="line2d_22">
    <path clip-path="url(#p526df1e80d)" d="M 51.99517 146.189452 
L 67.433906 165.481402 
L 82.872641 165.499213 
L 98.311376 164.700279 
L 113.750111 164.875442 
L 129.188846 159.553336 
L 144.627582 155.415798 
L 160.066317 165.483311 
L 175.505052 165.830911 
L 190.943787 161.874479 
L 206.382522 146.190932 
L 221.821257 138.562383 
L 237.259993 162.955593 
L 252.698728 146.908505 
L 268.137463 161.158316 
L 283.576198 161.442619 
L 299.014933 142.231421 
L 314.453668 138.271331 
L 329.892404 146.888902 
L 345.331139 160.028272 
L 360.769874 163.683626 
L 376.208609 162.336585 
L 391.647344 130.727125 
L 407.08608 144.325177 
" style="fill:none;stroke:#1b9e77;stroke-linecap:square;stroke-opacity:0.5;stroke-width:1.5;"/>
   </g>
   <g id="line2d_23">
    <path clip-path="url(#p526df1e80d)" d="M 51.99517 163.149979 
L 67.433906 164.014104 
L 82.872641 165.200909 
L 98.311376 165.064785 
L 113.750111 157.443168 
L 129.188846 162.672997 
L 144.627582 162.438885 
L 160.066317 157.430021 
L 175.505052 159.045126 
L 190.943787 162.793904 
L 206.382522 164.794158 
L 221.821257 162.197664 
L 237.259993 162.936944 
L 252.698728 163.680174 
L 268.137463 164.052713 
L 283.576198 163.583743 
L 299.014933 163.202001 
L 314.453668 160.988653 
L 329.892404 147.065417 
L 345.331139 126.494822 
L 360.769874 127.031723 
L 376.208609 128.326849 
L 391.647344 125.203097 
L 407.08608 141.802573 
" style="fill:none;stroke:#1b9e77;stroke-linecap:square;stroke-opacity:0.5;stroke-width:1.5;"/>
   </g>
   <g id="line2d_24">
    <path clip-path="url(#p526df1e80d)" d="M 51.99517 132.593664 
L 67.433906 148.815251 
L 82.872641 160.005571 
L 98.311376 158.62687 
L 113.750111 156.293615 
L 129.188846 155.806421 
L 144.627582 153.204747 
L 160.066317 153.621745 
L 175.505052 159.382164 
L 190.943787 164.005064 
L 206.382522 165.048101 
L 221.821257 163.155393 
L 237.259993 165.185666 
L 252.698728 165.669228 
L 268.137463 165.830078 
L 283.576198 165.891044 
L 299.014933 165.820235 
L 314.453668 165.510107 
L 329.892404 154.622704 
L 345.331139 151.490991 
L 360.769874 159.801379 
L 376.208609 148.39746 
L 391.647344 123.808634 
L 407.08608 118.028274 
" style="fill:none;stroke:#1b9e77;stroke-linecap:square;stroke-opacity:0.5;stroke-width:1.5;"/>
   </g>
   <g id="line2d_25">
    <path clip-path="url(#p526df1e80d)" d="M 51.99517 160.913236 
L 67.433906 156.187074 
L 82.872641 163.938436 
L 98.311376 165.101909 
L 113.750111 165.185533 
L 129.188846 164.378006 
L 144.627582 147.690888 
L 160.066317 124.608773 
L 175.505052 130.778823 
L 190.943787 157.216498 
L 206.382522 163.752405 
L 221.821257 150.445665 
L 237.259993 142.358196 
L 252.698728 157.127333 
L 268.137463 163.691874 
L 283.576198 164.727611 
L 299.014933 164.221191 
L 314.453668 162.966059 
L 329.892404 160.407913 
L 345.331139 159.713133 
L 360.769874 155.36684 
L 376.208609 144.40069 
L 391.647344 145.789907 
L 407.08608 149.646417 
" style="fill:none;stroke:#1b9e77;stroke-linecap:square;stroke-opacity:0.5;stroke-width:1.5;"/>
   </g>
   <g id="line2d_26">
    <path clip-path="url(#p526df1e80d)" d="M 51.99517 130.540761 
L 67.433906 71.106355 
L 82.872641 140.699652 
L 98.311376 145.567164 
L 113.750111 148.221457 
L 129.188846 143.349377 
L 144.627582 148.936365 
L 160.066317 159.675227 
L 175.505052 163.974517 
L 190.943787 164.598084 
L 206.382522 165.105753 
L 221.821257 164.823202 
L 237.259993 165.267247 
L 252.698728 165.480993 
L 268.137463 165.54072 
L 283.576198 165.538893 
L 299.014933 165.117229 
L 314.453668 163.436314 
L 329.892404 162.227063 
L 345.331139 164.234244 
L 360.769874 163.733665 
L 376.208609 163.69721 
L 391.647344 164.070951 
L 407.08608 165.671966 
" style="fill:none;stroke:#1b9e77;stroke-linecap:square;stroke-opacity:0.5;stroke-width:1.5;"/>
   </g>
   <g id="line2d_27">
    <path clip-path="url(#p526df1e80d)" d="M 51.99517 149.027722 
L 67.433906 148.17204 
L 82.872641 157.146979 
L 98.311376 156.546345 
L 113.750111 155.200155 
L 129.188846 155.981084 
L 144.627582 153.820151 
L 160.066317 154.880915 
L 175.505052 150.903221 
L 190.943787 151.763118 
L 206.382522 157.688687 
L 221.821257 161.014037 
L 237.259993 162.897699 
L 252.698728 163.382918 
L 268.137463 161.09354 
L 283.576198 161.270262 
L 299.014933 165.074067 
L 314.453668 165.779383 
L 329.892404 156.036892 
L 345.331139 124.678555 
L 360.769874 148.751357 
L 376.208609 160.905727 
L 391.647344 164.96633 
L 407.08608 133.633217 
" style="fill:none;stroke:#1b9e77;stroke-linecap:square;stroke-opacity:0.5;stroke-width:1.5;"/>
   </g>
   <g id="line2d_28">
    <path clip-path="url(#p526df1e80d)" d="M 51.99517 163.287428 
L 67.433906 156.357526 
L 82.872641 151.329861 
L 98.311376 151.059687 
L 113.750111 146.831434 
L 129.188846 133.166016 
L 144.627582 135.179945 
L 160.066317 125.571862 
L 175.505052 133.918787 
L 190.943787 141.169141 
L 206.382522 153.704624 
L 221.821257 154.331981 
L 237.259993 160.043014 
L 252.698728 159.655933 
L 268.137463 164.087842 
L 283.576198 165.296121 
L 299.014933 165.562632 
L 314.453668 165.538828 
L 329.892404 165.629075 
L 345.331139 165.701399 
L 360.769874 165.766581 
L 376.208609 165.820203 
L 391.647344 165.76101 
L 407.08608 165.843475 
" style="fill:none;stroke:#1b9e77;stroke-linecap:square;stroke-opacity:0.5;stroke-width:1.5;"/>
   </g>
   <g id="line2d_29">
    <path clip-path="url(#p526df1e80d)" d="M 51.99517 165.775062 
L 67.433906 165.696999 
L 82.872641 165.823781 
L 98.311376 165.776782 
L 113.750111 165.58934 
L 129.188846 165.829337 
L 144.627582 165.844453 
L 160.066317 165.952379 
L 175.505052 165.279133 
L 190.943787 163.078044 
L 206.382522 163.513084 
L 221.821257 160.546893 
L 237.259993 156.052445 
L 252.698728 150.085919 
L 268.137463 150.620058 
L 283.576198 157.227724 
L 299.014933 119.843763 
L 314.453668 84.944588 
L 329.892404 126.688122 
L 345.331139 145.269737 
L 360.769874 158.716385 
L 376.208609 161.520972 
L 391.647344 165.045877 
L 407.08608 165.893534 
" style="fill:none;stroke:#1b9e77;stroke-linecap:square;stroke-opacity:0.5;stroke-width:1.5;"/>
   </g>
   <g id="line2d_30">
    <path clip-path="url(#p526df1e80d)" d="M 51.99517 164.269895 
L 67.433906 164.688215 
L 82.872641 164.980385 
L 98.311376 165.235711 
L 113.750111 102.310717 
L 129.188846 129.837008 
L 144.627582 117.118254 
L 160.066317 125.770553 
L 175.505052 147.793518 
L 190.943787 158.317794 
L 206.382522 165.538797 
L 221.821257 165.531213 
L 237.259993 165.496473 
L 252.698728 164.975105 
L 268.137463 164.927862 
L 283.576198 164.957482 
L 299.014933 163.978707 
L 314.453668 163.98476 
L 329.892404 159.947639 
L 345.331139 161.797848 
L 360.769874 161.782116 
L 376.208609 161.590747 
L 391.647344 153.80615 
L 407.08608 161.97746 
" style="fill:none;stroke:#1b9e77;stroke-linecap:square;stroke-opacity:0.5;stroke-width:1.5;"/>
   </g>
   <g id="line2d_31">
    <path clip-path="url(#p526df1e80d)" d="M 51.99517 153.196396 
L 67.433906 156.395639 
L 82.872641 165.300242 
L 98.311376 165.591114 
L 113.750111 165.186208 
L 129.188846 148.413742 
L 144.627582 114.68224 
L 160.066317 163.925878 
L 175.505052 165.685258 
L 190.943787 160.900551 
L 206.382522 135.646401 
L 221.821257 132.515751 
L 237.259993 161.665259 
L 252.698728 164.583657 
L 268.137463 164.623244 
L 283.576198 157.424532 
L 299.014933 157.307675 
L 314.453668 163.102095 
L 329.892404 163.75572 
L 345.331139 162.410413 
L 360.769874 137.663141 
L 376.208609 139.618948 
L 391.647344 158.617173 
L 407.08608 162.403127 
" style="fill:none;stroke:#1b9e77;stroke-linecap:square;stroke-opacity:0.5;stroke-width:1.5;"/>
   </g>
   <g id="line2d_32">
    <path clip-path="url(#p526df1e80d)" d="M 51.99517 165.62514 
L 67.433906 165.109141 
L 82.872641 165.249825 
L 98.311376 165.795394 
L 113.750111 164.670313 
L 129.188846 162.619827 
L 144.627582 162.809512 
L 160.066317 159.003798 
L 175.505052 115.486136 
L 190.943787 69.013366 
L 206.382522 111.38308 
L 221.821257 135.071261 
L 237.259993 154.356357 
L 252.698728 165.45652 
L 268.137463 165.839451 
L 283.576198 165.817707 
L 299.014933 165.879954 
L 314.453668 165.902821 
L 329.892404 165.916741 
L 345.331139 165.925494 
L 360.769874 165.933575 
L 376.208609 165.945226 
L 391.647344 165.905609 
L 407.08608 165.898154 
" style="fill:none;stroke:#1b9e77;stroke-linecap:square;stroke-opacity:0.5;stroke-width:1.5;"/>
   </g>
   <g id="line2d_33">
    <path clip-path="url(#p526df1e80d)" d="M 51.99517 165.12016 
L 67.433906 163.336618 
L 82.872641 162.048978 
L 98.311376 156.963628 
L 113.750111 126.27515 
L 129.188846 105.076174 
L 144.627582 137.20078 
L 160.066317 148.139246 
L 175.505052 132.314758 
L 190.943787 123.710499 
L 206.382522 156.199009 
L 221.821257 157.727388 
L 237.259993 162.835609 
L 252.698728 164.944344 
L 268.137463 165.666772 
L 283.576198 165.703379 
L 299.014933 165.853615 
L 314.453668 165.89125 
L 329.892404 165.915991 
L 345.331139 165.913921 
L 360.769874 165.924662 
L 376.208609 165.94209 
L 391.647344 165.950652 
L 407.08608 165.959728 
" style="fill:none;stroke:#1b9e77;stroke-linecap:square;stroke-opacity:0.5;stroke-width:1.5;"/>
   </g>
   <g id="line2d_34">
    <path clip-path="url(#p526df1e80d)" d="M 51.99517 158.690877 
L 67.433906 128.183984 
L 82.872641 155.489883 
L 98.311376 163.457044 
L 113.750111 164.007265 
L 129.188846 157.157838 
L 144.627582 141.720069 
L 160.066317 158.050553 
L 175.505052 162.755874 
L 190.943787 161.944503 
L 206.382522 143.988535 
L 221.821257 129.656229 
L 237.259993 152.78117 
L 252.698728 163.825549 
L 268.137463 164.751829 
L 283.576198 162.044963 
L 299.014933 162.425317 
L 314.453668 165.233616 
L 329.892404 165.595006 
L 345.331139 165.263927 
L 360.769874 152.428514 
L 376.208609 146.693732 
L 391.647344 139.392776 
L 407.08608 155.075358 
" style="fill:none;stroke:#1b9e77;stroke-linecap:square;stroke-opacity:0.5;stroke-width:1.5;"/>
   </g>
   <g id="line2d_35">
    <path clip-path="url(#p526df1e80d)" d="M 51.99517 164.066879 
L 67.433906 161.950959 
L 82.872641 157.393532 
L 98.311376 134.122256 
L 113.750111 132.770039 
L 129.188846 151.338745 
L 144.627582 152.235364 
L 160.066317 140.672498 
L 175.505052 142.19275 
L 190.943787 149.885574 
L 206.382522 161.395682 
L 221.821257 163.727224 
L 237.259993 159.748076 
L 252.698728 141.722246 
L 268.137463 140.58322 
L 283.576198 157.501908 
L 299.014933 163.52477 
L 314.453668 163.322012 
L 329.892404 159.987253 
L 345.331139 159.889515 
L 360.769874 164.854265 
L 376.208609 165.849255 
L 391.647344 165.925686 
L 407.08608 165.954701 
" style="fill:none;stroke:#1b9e77;stroke-linecap:square;stroke-opacity:0.5;stroke-width:1.5;"/>
   </g>
   <g id="line2d_36">
    <path clip-path="url(#p526df1e80d)" d="M 51.99517 157.781072 
L 67.433906 160.850541 
L 82.872641 164.536743 
L 98.311376 164.413811 
L 113.750111 164.446117 
L 129.188846 164.403948 
L 144.627582 164.859498 
L 160.066317 165.46301 
L 175.505052 165.611377 
L 190.943787 165.314939 
L 206.382522 154.531713 
L 221.821257 152.803108 
L 237.259993 158.085262 
L 252.698728 165.353558 
L 268.137463 164.298852 
L 283.576198 144.605172 
L 299.014933 98.983948 
L 314.453668 157.922013 
L 329.892404 162.027508 
L 345.331139 156.053458 
L 360.769874 145.758887 
L 376.208609 150.142864 
L 391.647344 123.117035 
L 407.08608 149.249975 
" style="fill:none;stroke:#1b9e77;stroke-linecap:square;stroke-opacity:0.5;stroke-width:1.5;"/>
   </g>
   <g id="line2d_37">
    <path clip-path="url(#p526df1e80d)" d="M 51.99517 163.254888 
L 67.433906 153.425881 
L 82.872641 150.739954 
L 98.311376 103.111111 
L 113.750111 159.343822 
L 129.188846 165.497661 
L 144.627582 165.838182 
L 160.066317 165.754122 
L 175.505052 165.780742 
L 190.943787 165.782348 
L 206.382522 165.804044 
L 221.821257 165.895335 
L 237.259993 165.79558 
L 252.698728 155.84431 
L 268.137463 154.597384 
L 283.576198 145.313084 
L 299.014933 134.172744 
L 314.453668 125.175476 
L 329.892404 131.31951 
L 345.331139 156.236861 
L 360.769874 164.610039 
L 376.208609 165.584045 
L 391.647344 165.806168 
L 407.08608 165.931115 
" style="fill:none;stroke:#1b9e77;stroke-linecap:square;stroke-opacity:0.5;stroke-width:1.5;"/>
   </g>
   <g id="line2d_38">
    <path clip-path="url(#p526df1e80d)" d="M 51.99517 165.72191 
L 67.433906 165.539251 
L 82.872641 165.712941 
L 98.311376 165.732097 
L 113.750111 165.759877 
L 129.188846 165.858453 
L 144.627582 165.242951 
L 160.066317 162.020186 
L 175.505052 159.063259 
L 190.943787 161.692252 
L 206.382522 158.507387 
L 221.821257 151.707406 
L 237.259993 155.439619 
L 252.698728 110.532157 
L 268.137463 72.292195 
L 283.576198 121.912292 
L 299.014933 153.821996 
L 314.453668 162.62883 
L 329.892404 164.882964 
L 345.331139 164.64476 
L 360.769874 164.874636 
L 376.208609 165.401693 
L 391.647344 165.698234 
L 407.08608 165.927058 
" style="fill:none;stroke:#1b9e77;stroke-linecap:square;stroke-opacity:0.5;stroke-width:1.5;"/>
   </g>
   <g id="line2d_39">
    <path clip-path="url(#p526df1e80d)" d="M 51.99517 165.059473 
L 67.433906 164.853117 
L 82.872641 165.550765 
L 98.311376 165.600704 
L 113.750111 165.688907 
L 129.188846 165.788952 
L 144.627582 165.823171 
L 160.066317 165.897651 
L 175.505052 165.923878 
L 190.943787 165.111228 
L 206.382522 160.74486 
L 221.821257 155.576489 
L 237.259993 154.977772 
L 252.698728 156.623025 
L 268.137463 155.293539 
L 283.576198 152.293502 
L 299.014933 153.29313 
L 314.453668 150.698418 
L 329.892404 144.991627 
L 345.331139 144.891691 
L 360.769874 145.933828 
L 376.208609 142.747383 
L 391.647344 126.563094 
L 407.08608 120.688204 
" style="fill:none;stroke:#1b9e77;stroke-linecap:square;stroke-opacity:0.5;stroke-width:1.5;"/>
   </g>
   <g id="line2d_40">
    <path clip-path="url(#p526df1e80d)" d="M 51.99517 155.959656 
L 67.433906 114.920742 
L 82.872641 104.592032 
L 98.311376 88.341422 
L 113.750111 134.802461 
L 129.188846 153.482078 
L 144.627582 161.725802 
L 160.066317 162.812912 
L 175.505052 163.973523 
L 190.943787 163.785779 
L 206.382522 164.280261 
L 221.821257 164.78537 
L 237.259993 165.008153 
L 252.698728 164.851933 
L 268.137463 165.14726 
L 283.576198 165.386447 
L 299.014933 165.669105 
L 314.453668 165.782758 
L 329.892404 165.846506 
L 345.331139 165.848783 
L 360.769874 165.852458 
L 376.208609 165.890035 
L 391.647344 165.9138 
L 407.08608 165.955133 
" style="fill:none;stroke:#1b9e77;stroke-linecap:square;stroke-opacity:0.5;stroke-width:1.5;"/>
   </g>
   <g id="line2d_41">
    <path clip-path="url(#p526df1e80d)" d="M 51.99517 164.486463 
L 67.433906 164.58415 
L 82.872641 165.585064 
L 98.311376 165.674273 
L 113.750111 165.735614 
L 129.188846 165.598784 
L 144.627582 162.421986 
L 160.066317 165.66642 
L 175.505052 165.581543 
L 190.943787 165.114007 
L 206.382522 165.112956 
L 221.821257 164.104308 
L 237.259993 162.773964 
L 252.698728 160.185796 
L 268.137463 154.641063 
L 283.576198 154.587521 
L 299.014933 156.851423 
L 314.453668 110.48509 
L 329.892404 78.159068 
L 345.331139 117.312306 
L 360.769874 152.211004 
L 376.208609 162.377827 
L 391.647344 165.463716 
L 407.08608 165.900066 
" style="fill:none;stroke:#1b9e77;stroke-linecap:square;stroke-opacity:0.5;stroke-width:1.5;"/>
   </g>
   <g id="line2d_42">
    <path clip-path="url(#p526df1e80d)" d="M 51.99517 164.362423 
L 67.433906 156.805665 
L 82.872641 160.436235 
L 98.311376 164.42989 
L 113.750111 164.89229 
L 129.188846 161.938603 
L 144.627582 155.118598 
L 160.066317 158.52119 
L 175.505052 162.103276 
L 190.943787 164.231385 
L 206.382522 163.550002 
L 221.821257 163.509719 
L 237.259993 163.833609 
L 252.698728 162.368548 
L 268.137463 146.349447 
L 283.576198 134.997861 
L 299.014933 158.249268 
L 314.453668 150.151352 
L 329.892404 120.353282 
L 345.331139 150.248847 
L 360.769874 154.612629 
L 376.208609 151.081425 
L 391.647344 136.905863 
L 407.08608 151.563002 
" style="fill:none;stroke:#1b9e77;stroke-linecap:square;stroke-opacity:0.5;stroke-width:1.5;"/>
   </g>
   <g id="line2d_43">
    <path clip-path="url(#p526df1e80d)" d="M 51.99517 160.795135 
L 67.433906 157.106756 
L 82.872641 107.071076 
L 98.311376 121.12978 
L 113.750111 140.681504 
L 129.188846 154.962332 
L 144.627582 162.24375 
L 160.066317 162.439624 
L 175.505052 163.748997 
L 190.943787 164.554134 
L 206.382522 165.226063 
L 221.821257 165.30404 
L 237.259993 165.531469 
L 252.698728 165.67755 
L 268.137463 165.721344 
L 283.576198 165.732144 
L 299.014933 165.688356 
L 314.453668 165.793479 
L 329.892404 165.471885 
L 345.331139 163.998922 
L 360.769874 161.12727 
L 376.208609 163.838489 
L 391.647344 157.882478 
L 407.08608 88.887826 
" style="fill:none;stroke:#1b9e77;stroke-linecap:square;stroke-opacity:0.5;stroke-width:1.5;"/>
   </g>
   <g id="line2d_44">
    <path clip-path="url(#p526df1e80d)" d="M 51.99517 165.775709 
L 67.433906 165.619239 
L 82.872641 165.377805 
L 98.311376 155.088178 
L 113.750111 153.834429 
L 129.188846 151.96275 
L 144.627582 138.555627 
L 160.066317 164.439175 
L 175.505052 163.635485 
L 190.943787 156.655652 
L 206.382522 160.142512 
L 221.821257 147.973378 
L 237.259993 135.343887 
L 252.698728 146.256069 
L 268.137463 154.170655 
L 283.576198 155.897958 
L 299.014933 157.079499 
L 314.453668 143.088065 
L 329.892404 145.831546 
L 345.331139 153.489886 
L 360.769874 162.013188 
L 376.208609 161.813582 
L 391.647344 159.084495 
L 407.08608 157.485638 
" style="fill:none;stroke:#1b9e77;stroke-linecap:square;stroke-opacity:0.5;stroke-width:1.5;"/>
   </g>
   <g id="line2d_45">
    <path clip-path="url(#p526df1e80d)" d="M 51.99517 165.465848 
L 67.433906 165.29783 
L 82.872641 165.666898 
L 98.311376 165.68709 
L 113.750111 165.735258 
L 129.188846 165.794411 
L 144.627582 165.645256 
L 160.066317 165.825581 
L 175.505052 164.96253 
L 190.943787 164.101011 
L 206.382522 164.079356 
L 221.821257 162.030855 
L 237.259993 157.092875 
L 252.698728 147.054516 
L 268.137463 134.350504 
L 283.576198 143.555902 
L 299.014933 143.459952 
L 314.453668 141.519192 
L 329.892404 126.501144 
L 345.331139 137.589383 
L 360.769874 150.842544 
L 376.208609 152.359397 
L 391.647344 149.764895 
L 407.08608 156.23218 
" style="fill:none;stroke:#1b9e77;stroke-linecap:square;stroke-opacity:0.5;stroke-width:1.5;"/>
   </g>
   <g id="line2d_46">
    <path clip-path="url(#p526df1e80d)" d="M 51.99517 163.542292 
L 67.433906 162.588581 
L 82.872641 163.760989 
L 98.311376 162.687486 
L 113.750111 164.922609 
L 129.188846 165.429665 
L 144.627582 165.514676 
L 160.066317 165.543901 
L 175.505052 165.58291 
L 190.943787 165.523545 
L 206.382522 165.452806 
L 221.821257 165.676626 
L 237.259993 165.551379 
L 252.698728 164.741846 
L 268.137463 157.703593 
L 283.576198 143.957 
L 299.014933 146.727989 
L 314.453668 140.695769 
L 329.892404 106.843369 
L 345.331139 121.564056 
L 360.769874 138.953873 
L 376.208609 135.94979 
L 391.647344 155.96673 
L 407.08608 165.732928 
" style="fill:none;stroke:#1b9e77;stroke-linecap:square;stroke-opacity:0.5;stroke-width:1.5;"/>
   </g>
   <g id="line2d_47">
    <path clip-path="url(#p526df1e80d)" d="M 51.99517 165.217389 
L 67.433906 165.215844 
L 82.872641 165.592983 
L 98.311376 165.552245 
L 113.750111 165.605579 
L 129.188846 165.803775 
L 144.627582 164.894259 
L 160.066317 161.517036 
L 175.505052 161.923668 
L 190.943787 161.548363 
L 206.382522 160.419171 
L 221.821257 158.978937 
L 237.259993 158.576216 
L 252.698728 158.581274 
L 268.137463 152.968428 
L 283.576198 153.760622 
L 299.014933 152.098571 
L 314.453668 143.869607 
L 329.892404 142.995731 
L 345.331139 64.343603 
L 360.769874 134.786654 
L 376.208609 164.79163 
L 391.647344 165.695344 
L 407.08608 165.877485 
" style="fill:none;stroke:#1b9e77;stroke-linecap:square;stroke-opacity:0.5;stroke-width:1.5;"/>
   </g>
   <g id="line2d_48">
    <path clip-path="url(#p526df1e80d)" d="M 51.99517 165.77061 
L 67.433906 165.710458 
L 82.872641 165.871622 
L 98.311376 165.894156 
L 113.750111 165.90702 
L 129.188846 165.95042 
L 144.627582 165.439501 
L 160.066317 165.225181 
L 175.505052 164.238507 
L 190.943787 164.455528 
L 206.382522 164.180868 
L 221.821257 163.299317 
L 237.259993 161.098837 
L 252.698728 144.810137 
L 268.137463 98.214447 
L 283.576198 136.288527 
L 299.014933 142.323459 
L 314.453668 108.448619 
L 329.892404 143.832191 
L 345.331139 154.499813 
L 360.769874 158.334216 
L 376.208609 160.421384 
L 391.647344 164.534416 
L 407.08608 165.865175 
" style="fill:none;stroke:#1b9e77;stroke-linecap:square;stroke-opacity:0.5;stroke-width:1.5;"/>
   </g>
   <g id="line2d_49">
    <path clip-path="url(#p526df1e80d)" d="M 51.99517 143.223582 
L 67.433906 105.156974 
L 82.872641 99.220648 
L 98.311376 120.024427 
L 113.750111 153.212746 
L 129.188846 155.687227 
L 144.627582 164.583658 
L 160.066317 165.266139 
L 175.505052 165.560792 
L 190.943787 165.603705 
L 206.382522 165.726765 
L 221.821257 165.762812 
L 237.259993 165.808796 
L 252.698728 165.904109 
L 268.137463 164.529959 
L 283.576198 164.793021 
L 299.014933 161.614481 
L 314.453668 162.997645 
L 329.892404 162.588118 
L 345.331139 161.789363 
L 360.769874 161.109223 
L 376.208609 157.67086 
L 391.647344 159.144938 
L 407.08608 163.634426 
" style="fill:none;stroke:#1b9e77;stroke-linecap:square;stroke-opacity:0.5;stroke-width:1.5;"/>
   </g>
   <g id="line2d_50">
    <path clip-path="url(#p526df1e80d)" d="M 51.99517 164.22687 
L 67.433906 150.946478 
L 82.872641 107.803565 
L 98.311376 122.508278 
L 113.750111 151.166103 
L 129.188846 151.7962 
L 144.627582 140.956671 
L 160.066317 137.26371 
L 175.505052 157.762755 
L 190.943787 164.710229 
L 206.382522 165.592567 
L 221.821257 165.45231 
L 237.259993 165.665303 
L 252.698728 165.794326 
L 268.137463 165.860644 
L 283.576198 165.851589 
L 299.014933 165.843357 
L 314.453668 165.848083 
L 329.892404 165.709496 
L 345.331139 165.260517 
L 360.769874 163.523554 
L 376.208609 159.522549 
L 391.647344 149.684879 
L 407.08608 141.864374 
" style="fill:none;stroke:#1b9e77;stroke-linecap:square;stroke-opacity:0.5;stroke-width:1.5;"/>
   </g>
   <g id="line2d_51">
    <path clip-path="url(#p526df1e80d)" d="M 51.99517 163.821708 
L 67.433906 159.9402 
L 82.872641 150.491908 
L 98.311376 126.507557 
L 113.750111 117.750779 
L 129.188846 150.897179 
L 144.627582 149.438974 
L 160.066317 146.867191 
L 175.505052 148.907066 
L 190.943787 141.400143 
L 206.382522 158.547524 
L 221.821257 164.380706 
L 237.259993 165.267152 
L 252.698728 162.974254 
L 268.137463 164.730927 
L 283.576198 165.643352 
L 299.014933 165.766951 
L 314.453668 165.676179 
L 329.892404 165.489367 
L 345.331139 165.459626 
L 360.769874 165.116857 
L 376.208609 165.584652 
L 391.647344 154.953084 
L 407.08608 135.001063 
" style="fill:none;stroke:#1b9e77;stroke-linecap:square;stroke-opacity:0.5;stroke-width:1.5;"/>
   </g>
   <g id="line2d_52">
    <path clip-path="url(#p526df1e80d)" d="M 51.99517 165.21244 
L 67.433906 162.467711 
L 82.872641 151.649689 
L 98.311376 153.017845 
L 113.750111 165.496316 
L 129.188846 165.565826 
L 144.627582 155.942786 
L 160.066317 151.371506 
L 175.505052 96.767192 
L 190.943787 122.301249 
L 206.382522 119.23573 
L 221.821257 150.069378 
L 237.259993 156.797128 
L 252.698728 160.083564 
L 268.137463 162.781062 
L 283.576198 164.793103 
L 299.014933 165.150457 
L 314.453668 165.171696 
L 329.892404 165.303466 
L 345.331139 165.338382 
L 360.769874 164.56318 
L 376.208609 163.721522 
L 391.647344 163.674177 
L 407.08608 164.139002 
" style="fill:none;stroke:#1b9e77;stroke-linecap:square;stroke-opacity:0.5;stroke-width:1.5;"/>
   </g>
   <g id="line2d_53">
    <path clip-path="url(#p526df1e80d)" d="M 51.99517 151.87031 
L 67.433906 165.854843 
L 82.872641 165.655803 
L 98.311376 165.851099 
L 113.750111 165.824554 
L 129.188846 165.890321 
L 144.627582 165.670613 
L 160.066317 165.342025 
L 175.505052 165.01795 
L 190.943787 163.239745 
L 206.382522 157.029869 
L 221.821257 153.805048 
L 237.259993 163.935108 
L 252.698728 164.306345 
L 268.137463 157.127758 
L 283.576198 117.467539 
L 299.014933 121.312445 
L 314.453668 133.934937 
L 329.892404 156.822456 
L 345.331139 152.936193 
L 360.769874 117.026028 
L 376.208609 163.570005 
L 391.647344 161.018023 
L 407.08608 160.105386 
" style="fill:none;stroke:#1b9e77;stroke-linecap:square;stroke-opacity:0.5;stroke-width:1.5;"/>
   </g>
   <g id="line2d_54">
    <path clip-path="url(#p526df1e80d)" d="M 51.99517 165.426555 
L 67.433906 165.557625 
L 82.872641 165.830189 
L 98.311376 165.825286 
L 113.750111 165.83479 
L 129.188846 165.869616 
L 144.627582 165.826368 
L 160.066317 165.876793 
L 175.505052 165.725177 
L 190.943787 146.620867 
L 206.382522 106.116795 
L 221.821257 144.032594 
L 237.259993 157.471413 
L 252.698728 143.884794 
L 268.137463 130.977176 
L 283.576198 119.83396 
L 299.014933 137.322023 
L 314.453668 159.858241 
L 329.892404 164.185664 
L 345.331139 163.163112 
L 360.769874 161.91387 
L 376.208609 163.087156 
L 391.647344 164.529988 
L 407.08608 165.844357 
" style="fill:none;stroke:#1b9e77;stroke-linecap:square;stroke-opacity:0.5;stroke-width:1.5;"/>
   </g>
   <g id="line2d_55">
    <path clip-path="url(#p526df1e80d)" d="M 51.99517 165.952271 
L 67.433906 165.91869 
L 82.872641 165.918575 
L 98.311376 165.914827 
L 113.750111 165.875294 
L 129.188846 165.949661 
L 144.627582 165.958182 
L 160.066317 156.459472 
L 175.505052 163.216306 
L 190.943787 162.551138 
L 206.382522 161.614345 
L 221.821257 161.100221 
L 237.259993 162.343999 
L 252.698728 160.753766 
L 268.137463 155.097597 
L 283.576198 151.662468 
L 299.014933 142.769923 
L 314.453668 112.793055 
L 329.892404 88.934581 
L 345.331139 124.486478 
L 360.769874 158.631252 
L 376.208609 165.048408 
L 391.647344 165.739621 
L 407.08608 165.924274 
" style="fill:none;stroke:#1b9e77;stroke-linecap:square;stroke-opacity:0.5;stroke-width:1.5;"/>
   </g>
   <g id="line2d_56">
    <path clip-path="url(#p526df1e80d)" d="M 51.99517 160.43056 
L 67.433906 144.798591 
L 82.872641 122.718937 
L 98.311376 124.577518 
L 113.750111 126.656711 
L 129.188846 137.51635 
L 144.627582 145.108141 
L 160.066317 150.234006 
L 175.505052 156.470913 
L 190.943787 163.813002 
L 206.382522 165.486153 
L 221.821257 165.101804 
L 237.259993 164.662552 
L 252.698728 165.539171 
L 268.137463 165.861899 
L 283.576198 165.9166 
L 299.014933 165.901798 
L 314.453668 165.486577 
L 329.892404 162.773927 
L 345.331139 160.925414 
L 360.769874 159.268194 
L 376.208609 158.36214 
L 391.647344 159.01635 
L 407.08608 163.987102 
" style="fill:none;stroke:#1b9e77;stroke-linecap:square;stroke-opacity:0.5;stroke-width:1.5;"/>
   </g>
   <g id="line2d_57">
    <path clip-path="url(#p526df1e80d)" d="M 51.99517 152.598666 
L 67.433906 159.044188 
L 82.872641 165.323079 
L 98.311376 165.656672 
L 113.750111 165.729674 
L 129.188846 162.859062 
L 144.627582 132.344592 
L 160.066317 142.351199 
L 175.505052 148.354093 
L 190.943787 145.411079 
L 206.382522 159.033274 
L 221.821257 161.00153 
L 237.259993 163.195225 
L 252.698728 164.656319 
L 268.137463 165.298606 
L 283.576198 165.243741 
L 299.014933 165.279082 
L 314.453668 165.650265 
L 329.892404 164.841195 
L 345.331139 154.051738 
L 360.769874 128.902425 
L 376.208609 141.854233 
L 391.647344 127.566007 
L 407.08608 154.368459 
" style="fill:none;stroke:#1b9e77;stroke-linecap:square;stroke-opacity:0.5;stroke-width:1.5;"/>
   </g>
   <g id="line2d_58">
    <path clip-path="url(#p526df1e80d)" d="M 51.99517 165.833051 
L 67.433906 142.409087 
L 82.872641 111.756138 
L 98.311376 153.208015 
L 113.750111 164.730623 
L 129.188846 164.627237 
L 144.627582 163.467306 
L 160.066317 163.543805 
L 175.505052 164.942154 
L 190.943787 165.189552 
L 206.382522 165.419484 
L 221.821257 165.4928 
L 237.259993 165.59991 
L 252.698728 165.646119 
L 268.137463 165.299463 
L 283.576198 163.730663 
L 299.014933 158.978693 
L 314.453668 159.844049 
L 329.892404 156.228943 
L 345.331139 149.54488 
L 360.769874 152.013332 
L 376.208609 143.94157 
L 391.647344 95.950598 
L 407.08608 153.21694 
" style="fill:none;stroke:#1b9e77;stroke-linecap:square;stroke-opacity:0.5;stroke-width:1.5;"/>
   </g>
   <g id="line2d_59">
    <path clip-path="url(#p526df1e80d)" d="M 51.99517 164.649191 
L 67.433906 163.884687 
L 82.872641 149.805332 
L 98.311376 142.127693 
L 113.750111 127.259661 
L 129.188846 158.238142 
L 144.627582 161.241559 
L 160.066317 148.067578 
L 175.505052 147.639897 
L 190.943787 155.11498 
L 206.382522 164.236505 
L 221.821257 163.177998 
L 237.259993 161.021417 
L 252.698728 162.607559 
L 268.137463 163.140897 
L 283.576198 162.395324 
L 299.014933 162.32624 
L 314.453668 161.661431 
L 329.892404 159.626584 
L 345.331139 158.830246 
L 360.769874 160.117268 
L 376.208609 157.904338 
L 391.647344 146.372622 
L 407.08608 119.167261 
" style="fill:none;stroke:#1b9e77;stroke-linecap:square;stroke-opacity:0.5;stroke-width:1.5;"/>
   </g>
   <g id="line2d_60">
    <path clip-path="url(#p526df1e80d)" d="M 51.99517 146.977921 
L 67.433906 100.237583 
L 82.872641 131.586062 
L 98.311376 148.279448 
L 113.750111 158.174634 
L 129.188846 158.102134 
L 144.627582 158.393509 
L 160.066317 159.302783 
L 175.505052 163.476057 
L 190.943787 164.919666 
L 206.382522 165.322886 
L 221.821257 164.783715 
L 237.259993 162.598787 
L 252.698728 158.562926 
L 268.137463 157.350616 
L 283.576198 164.273364 
L 299.014933 163.526672 
L 314.453668 144.287084 
L 329.892404 131.104846 
L 345.331139 157.202823 
L 360.769874 164.843006 
L 376.208609 165.579036 
L 391.647344 165.808058 
L 407.08608 165.920792 
" style="fill:none;stroke:#1b9e77;stroke-linecap:square;stroke-opacity:0.5;stroke-width:1.5;"/>
   </g>
   <g id="line2d_61">
    <path clip-path="url(#p526df1e80d)" d="M 51.99517 149.414251 
L 67.433906 154.221237 
L 82.872641 164.122202 
L 98.311376 164.970848 
L 113.750111 165.271834 
L 129.188846 164.51634 
L 144.627582 154.853972 
L 160.066317 156.694983 
L 175.505052 162.668596 
L 190.943787 164.013908 
L 206.382522 158.815428 
L 221.821257 80.71361 
L 237.259993 83.040619 
L 252.698728 143.908297 
L 268.137463 162.999606 
L 283.576198 164.498036 
L 299.014933 165.225783 
L 314.453668 165.514946 
L 329.892404 165.72607 
L 345.331139 165.769488 
L 360.769874 165.844772 
L 376.208609 165.912237 
L 391.647344 165.939008 
L 407.08608 165.958342 
" style="fill:none;stroke:#1b9e77;stroke-linecap:square;stroke-opacity:0.5;stroke-width:1.5;"/>
   </g>
   <g id="line2d_62">
    <path clip-path="url(#p526df1e80d)" d="M 51.99517 164.61435 
L 67.433906 164.872837 
L 82.872641 164.807628 
L 98.311376 165.757896 
L 113.750111 165.423587 
L 129.188846 152.786231 
L 144.627582 141.874579 
L 160.066317 147.842399 
L 175.505052 149.859275 
L 190.943787 140.715794 
L 206.382522 124.33739 
L 221.821257 141.178822 
L 237.259993 146.738433 
L 252.698728 100.051132 
L 268.137463 157.558764 
L 283.576198 165.408805 
L 299.014933 165.710018 
L 314.453668 165.734451 
L 329.892404 165.79678 
L 345.331139 165.842832 
L 360.769874 165.886843 
L 376.208609 165.919363 
L 391.647344 165.938177 
L 407.08608 165.958019 
" style="fill:none;stroke:#1b9e77;stroke-linecap:square;stroke-opacity:0.5;stroke-width:1.5;"/>
   </g>
   <g id="line2d_63">
    <path clip-path="url(#p526df1e80d)" d="M 51.99517 165.586332 
L 67.433906 165.160239 
L 82.872641 163.224802 
L 98.311376 161.968161 
L 113.750111 163.192928 
L 129.188846 162.841927 
L 144.627582 159.868348 
L 160.066317 156.637359 
L 175.505052 152.079824 
L 190.943787 154.774209 
L 206.382522 153.1987 
L 221.821257 155.790288 
L 237.259993 161.04749 
L 252.698728 161.013369 
L 268.137463 158.35455 
L 283.576198 151.907036 
L 299.014933 141.605627 
L 314.453668 118.110906 
L 329.892404 130.070057 
L 345.331139 132.156251 
L 360.769874 157.323857 
L 376.208609 163.93231 
L 391.647344 165.388788 
L 407.08608 165.381052 
" style="fill:none;stroke:#1b9e77;stroke-linecap:square;stroke-opacity:0.5;stroke-width:1.5;"/>
   </g>
   <g id="line2d_64">
    <path clip-path="url(#p526df1e80d)" d="M 51.99517 154.84401 
L 67.433906 139.662161 
L 82.872641 111.002161 
L 98.311376 98.227132 
L 113.750111 115.584206 
L 129.188846 146.158257 
L 144.627582 153.815553 
L 160.066317 152.050414 
L 175.505052 161.693512 
L 190.943787 165.151476 
L 206.382522 165.74008 
L 221.821257 165.728095 
L 237.259993 165.805512 
L 252.698728 165.839421 
L 268.137463 165.885101 
L 283.576198 165.910762 
L 299.014933 165.929832 
L 314.453668 165.934605 
L 329.892404 165.929791 
L 345.331139 165.930704 
L 360.769874 165.936466 
L 376.208609 165.943973 
L 391.647344 165.95118 
L 407.08608 165.96 
" style="fill:none;stroke:#1b9e77;stroke-linecap:square;stroke-opacity:0.5;stroke-width:1.5;"/>
   </g>
   <g id="line2d_65">
    <path clip-path="url(#p526df1e80d)" d="M 51.99517 165.79701 
L 67.433906 165.876247 
L 82.872641 165.916312 
L 98.311376 162.03303 
L 113.750111 156.164262 
L 129.188846 165.557463 
L 144.627582 165.873159 
L 160.066317 165.919289 
L 175.505052 165.919632 
L 190.943787 165.560576 
L 206.382522 163.950294 
L 221.821257 165.877545 
L 237.259993 165.78062 
L 252.698728 157.071791 
L 268.137463 162.850974 
L 283.576198 163.028197 
L 299.014933 70.481891 
L 314.453668 126.369466 
L 329.892404 138.83479 
L 345.331139 113.691489 
L 360.769874 150.566519 
L 376.208609 165.641927 
L 391.647344 165.900722 
L 407.08608 165.951201 
" style="fill:none;stroke:#1b9e77;stroke-linecap:square;stroke-opacity:0.5;stroke-width:1.5;"/>
   </g>
   <g id="line2d_66">
    <path clip-path="url(#p526df1e80d)" d="M 51.99517 165.952612 
L 67.433906 165.923871 
L 82.872641 165.928456 
L 98.311376 165.958466 
L 113.750111 165.309254 
L 129.188846 134.941241 
L 144.627582 156.086564 
L 160.066317 148.486276 
L 175.505052 119.754682 
L 190.943787 103.087997 
L 206.382522 133.332349 
L 221.821257 142.787417 
L 237.259993 135.62198 
L 252.698728 165.580807 
L 268.137463 165.892097 
L 283.576198 165.885785 
L 299.014933 165.878945 
L 314.453668 165.879148 
L 329.892404 165.892029 
L 345.331139 165.92883 
L 360.769874 165.942766 
L 376.208609 164.001021 
L 391.647344 161.611514 
L 407.08608 164.950297 
" style="fill:none;stroke:#1b9e77;stroke-linecap:square;stroke-opacity:0.5;stroke-width:1.5;"/>
   </g>
   <g id="line2d_67">
    <path clip-path="url(#p526df1e80d)" d="M 51.99517 163.77424 
L 67.433906 165.855017 
L 82.872641 165.810197 
L 98.311376 165.812719 
L 113.750111 164.331525 
L 129.188846 160.748038 
L 144.627582 155.299075 
L 160.066317 156.253431 
L 175.505052 153.615405 
L 190.943787 122.351502 
L 206.382522 82.20371 
L 221.821257 96.495011 
L 237.259993 161.62974 
L 252.698728 165.28184 
L 268.137463 165.718714 
L 283.576198 164.474767 
L 299.014933 163.244932 
L 314.453668 165.833798 
L 329.892404 165.807486 
L 345.331139 164.523859 
L 360.769874 164.673299 
L 376.208609 161.326687 
L 391.647344 161.270228 
L 407.08608 164.279193 
" style="fill:none;stroke:#1b9e77;stroke-linecap:square;stroke-opacity:0.5;stroke-width:1.5;"/>
   </g>
   <g id="line2d_68">
    <path clip-path="url(#p526df1e80d)" d="M 51.99517 165.318886 
L 67.433906 165.052184 
L 82.872641 165.404381 
L 98.311376 165.37277 
L 113.750111 165.43369 
L 129.188846 165.883794 
L 144.627582 165.891231 
L 160.066317 141.369935 
L 175.505052 155.353978 
L 190.943787 155.279059 
L 206.382522 120.098321 
L 221.821257 116.156535 
L 237.259993 158.369809 
L 252.698728 125.159771 
L 268.137463 100.253819 
L 283.576198 164.33732 
L 299.014933 165.438136 
L 314.453668 165.414747 
L 329.892404 165.640935 
L 345.331139 165.743983 
L 360.769874 165.847048 
L 376.208609 165.903126 
L 391.647344 165.933289 
L 407.08608 165.957657 
" style="fill:none;stroke:#1b9e77;stroke-linecap:square;stroke-opacity:0.5;stroke-width:1.5;"/>
   </g>
   <g id="line2d_69">
    <path clip-path="url(#p526df1e80d)" d="M 51.99517 165.509818 
L 67.433906 165.456161 
L 82.872641 165.70592 
L 98.311376 165.627255 
L 113.750111 165.663072 
L 129.188846 165.843389 
L 144.627582 165.89676 
L 160.066317 165.916488 
L 175.505052 165.905992 
L 190.943787 165.419364 
L 206.382522 159.596256 
L 221.821257 161.971923 
L 237.259993 158.569742 
L 252.698728 155.408803 
L 268.137463 156.795634 
L 283.576198 149.504484 
L 299.014933 101.746129 
L 314.453668 110.005751 
L 329.892404 132.353058 
L 345.331139 143.013799 
L 360.769874 150.97132 
L 376.208609 152.626755 
L 391.647344 165.286183 
L 407.08608 165.820354 
" style="fill:none;stroke:#1b9e77;stroke-linecap:square;stroke-opacity:0.5;stroke-width:1.5;"/>
   </g>
   <g id="line2d_70">
    <path clip-path="url(#p526df1e80d)" d="M 51.99517 165.307582 
L 67.433906 165.150123 
L 82.872641 165.626567 
L 98.311376 165.607266 
L 113.750111 165.620142 
L 129.188846 165.650911 
L 144.627582 165.659377 
L 160.066317 165.759286 
L 175.505052 165.7067 
L 190.943787 165.817831 
L 206.382522 164.343238 
L 221.821257 148.371391 
L 237.259993 138.512922 
L 252.698728 156.230285 
L 268.137463 145.157902 
L 283.576198 148.394421 
L 299.014933 157.832607 
L 314.453668 150.405024 
L 329.892404 144.422827 
L 345.331139 144.878389 
L 360.769874 146.762919 
L 376.208609 137.673533 
L 391.647344 126.029 
L 407.08608 155.694163 
" style="fill:none;stroke:#1b9e77;stroke-linecap:square;stroke-opacity:0.5;stroke-width:1.5;"/>
   </g>
   <g id="line2d_71">
    <path clip-path="url(#p526df1e80d)" d="M 51.99517 129.785656 
L 67.433906 156.169042 
L 82.872641 163.753842 
L 98.311376 113.540175 
L 113.750111 110.658691 
L 129.188846 124.984733 
L 144.627582 141.781128 
L 160.066317 144.106305 
L 175.505052 163.637102 
L 190.943787 165.132087 
L 206.382522 165.603443 
L 221.821257 165.061822 
L 237.259993 161.275029 
L 252.698728 161.767364 
L 268.137463 164.76559 
L 283.576198 165.567963 
L 299.014933 165.468788 
L 314.453668 164.915322 
L 329.892404 163.510472 
L 345.331139 165.395983 
L 360.769874 165.906873 
L 376.208609 165.926601 
L 391.647344 165.941712 
L 407.08608 165.958683 
" style="fill:none;stroke:#1b9e77;stroke-linecap:square;stroke-opacity:0.5;stroke-width:1.5;"/>
   </g>
   <g id="line2d_72">
    <path clip-path="url(#p526df1e80d)" d="M 51.99517 163.365028 
L 67.433906 164.047662 
L 82.872641 165.414151 
L 98.311376 165.547558 
L 113.750111 165.720719 
L 129.188846 165.76905 
L 144.627582 165.67708 
L 160.066317 165.771497 
L 175.505052 165.772826 
L 190.943787 165.794876 
L 206.382522 164.324804 
L 221.821257 161.86139 
L 237.259993 159.38123 
L 252.698728 158.28466 
L 268.137463 158.578944 
L 283.576198 154.590839 
L 299.014933 150.847522 
L 314.453668 145.616989 
L 329.892404 131.683182 
L 345.331139 136.640537 
L 360.769874 151.790782 
L 376.208609 149.747362 
L 391.647344 107.317839 
L 407.08608 137.067875 
" style="fill:none;stroke:#1b9e77;stroke-linecap:square;stroke-opacity:0.5;stroke-width:1.5;"/>
   </g>
   <g id="line2d_73">
    <path clip-path="url(#p526df1e80d)" d="M 51.99517 164.479591 
L 67.433906 164.765467 
L 82.872641 165.414067 
L 98.311376 165.37113 
L 113.750111 165.469947 
L 129.188846 165.512764 
L 144.627582 165.603195 
L 160.066317 165.738944 
L 175.505052 165.77307 
L 190.943787 165.68063 
L 206.382522 165.280637 
L 221.821257 165.324223 
L 237.259993 164.94081 
L 252.698728 165.762956 
L 268.137463 159.021474 
L 283.576198 139.403936 
L 299.014933 130.016549 
L 314.453668 139.007108 
L 329.892404 95.681002 
L 345.331139 139.271864 
L 360.769874 158.767385 
L 376.208609 146.828898 
L 391.647344 136.666715 
L 407.08608 160.832042 
" style="fill:none;stroke:#1b9e77;stroke-linecap:square;stroke-opacity:0.5;stroke-width:1.5;"/>
   </g>
   <g id="line2d_74">
    <path clip-path="url(#p526df1e80d)" d="M 51.99517 165.95343 
L 67.433906 165.888002 
L 82.872641 165.74006 
L 98.311376 164.93311 
L 113.750111 145.334459 
L 129.188846 158.967822 
L 144.627582 134.690303 
L 160.066317 148.594095 
L 175.505052 143.085277 
L 190.943787 140.059909 
L 206.382522 148.521813 
L 221.821257 163.509748 
L 237.259993 116.959621 
L 252.698728 116.148234 
L 268.137463 164.403114 
L 283.576198 164.95732 
L 299.014933 164.590558 
L 314.453668 164.003988 
L 329.892404 164.28227 
L 345.331139 164.723738 
L 360.769874 164.531323 
L 376.208609 164.125182 
L 391.647344 161.846014 
L 407.08608 164.765014 
" style="fill:none;stroke:#1b9e77;stroke-linecap:square;stroke-opacity:0.5;stroke-width:1.5;"/>
   </g>
   <g id="line2d_75">
    <path clip-path="url(#p526df1e80d)" d="M 51.99517 154.582939 
L 67.433906 130.010742 
L 82.872641 115.62205 
L 98.311376 100.549666 
L 113.750111 120.826163 
L 129.188846 136.55159 
L 144.627582 160.637172 
L 160.066317 163.029677 
L 175.505052 164.530452 
L 190.943787 164.974161 
L 206.382522 165.410893 
L 221.821257 165.35489 
L 237.259993 165.353191 
L 252.698728 165.490294 
L 268.137463 165.489113 
L 283.576198 165.561352 
L 299.014933 164.988792 
L 314.453668 164.224003 
L 329.892404 164.459772 
L 345.331139 163.046712 
L 360.769874 163.778684 
L 376.208609 165.257771 
L 391.647344 165.457292 
L 407.08608 165.427032 
" style="fill:none;stroke:#1b9e77;stroke-linecap:square;stroke-opacity:0.5;stroke-width:1.5;"/>
   </g>
   <g id="line2d_76">
    <path clip-path="url(#p526df1e80d)" d="M 51.99517 165.920903 
L 67.433906 165.812255 
L 82.872641 165.879868 
L 98.311376 165.898856 
L 113.750111 165.912723 
L 129.188846 165.939911 
L 144.627582 165.604562 
L 160.066317 165.462449 
L 175.505052 164.876011 
L 190.943787 163.019899 
L 206.382522 162.684274 
L 221.821257 161.761105 
L 237.259993 150.390181 
L 252.698728 147.098281 
L 268.137463 126.37829 
L 283.576198 143.075156 
L 299.014933 159.492056 
L 314.453668 108.377845 
L 329.892404 151.498356 
L 345.331139 164.994881 
L 360.769874 156.040558 
L 376.208609 149.652631 
L 391.647344 136.341589 
L 407.08608 148.501765 
" style="fill:none;stroke:#1b9e77;stroke-linecap:square;stroke-opacity:0.5;stroke-width:1.5;"/>
   </g>
   <g id="line2d_77">
    <path clip-path="url(#p526df1e80d)" d="M 51.99517 164.692523 
L 67.433906 158.026283 
L 82.872641 151.830685 
L 98.311376 154.710305 
L 113.750111 159.098803 
L 129.188846 65.537971 
L 144.627582 113.829947 
L 160.066317 145.688415 
L 175.505052 161.397293 
L 190.943787 162.93111 
L 206.382522 164.714944 
L 221.821257 165.262456 
L 237.259993 165.325963 
L 252.698728 164.24746 
L 268.137463 160.502961 
L 283.576198 160.371575 
L 299.014933 161.516301 
L 314.453668 163.349376 
L 329.892404 163.235619 
L 345.331139 159.494262 
L 360.769874 159.17529 
L 376.208609 164.407047 
L 391.647344 165.386676 
L 407.08608 165.881142 
" style="fill:none;stroke:#1b9e77;stroke-linecap:square;stroke-opacity:0.5;stroke-width:1.5;"/>
   </g>
   <g id="line2d_78">
    <path clip-path="url(#p526df1e80d)" d="M 51.99517 165.935908 
L 67.433906 165.116431 
L 82.872641 164.197909 
L 98.311376 163.496491 
L 113.750111 139.714182 
L 129.188846 159.661447 
L 144.627582 160.268824 
L 160.066317 161.067112 
L 175.505052 159.100738 
L 190.943787 151.498434 
L 206.382522 144.563858 
L 221.821257 151.009582 
L 237.259993 164.417488 
L 252.698728 14.76 
L 268.137463 164.293819 
L 283.576198 165.284897 
L 299.014933 165.680307 
L 314.453668 165.666692 
L 329.892404 165.772211 
L 345.331139 165.831205 
L 360.769874 165.878922 
L 376.208609 165.928151 
L 391.647344 165.945429 
L 407.08608 165.524361 
" style="fill:none;stroke:#1b9e77;stroke-linecap:square;stroke-opacity:0.5;stroke-width:1.5;"/>
   </g>
   <g id="line2d_79">
    <path clip-path="url(#p526df1e80d)" d="M 51.99517 165.913716 
L 67.433906 165.734646 
L 82.872641 165.800111 
L 98.311376 165.817083 
L 113.750111 165.796917 
L 129.188846 165.909239 
L 144.627582 165.904456 
L 160.066317 156.952848 
L 175.505052 157.306612 
L 190.943787 159.061351 
L 206.382522 157.162337 
L 221.821257 154.758591 
L 237.259993 154.421746 
L 252.698728 147.958082 
L 268.137463 142.947552 
L 283.576198 149.315809 
L 299.014933 153.490317 
L 314.453668 139.048981 
L 329.892404 113.350962 
L 345.331139 147.676113 
L 360.769874 158.19024 
L 376.208609 156.848412 
L 391.647344 152.672916 
L 407.08608 158.57537 
" style="fill:none;stroke:#1b9e77;stroke-linecap:square;stroke-opacity:0.5;stroke-width:1.5;"/>
   </g>
   <g id="line2d_80">
    <path clip-path="url(#p526df1e80d)" d="M 51.99517 163.400426 
L 67.433906 160.124567 
L 82.872641 159.378767 
L 98.311376 155.882575 
L 113.750111 153.615519 
L 129.188846 124.714556 
L 144.627582 100.26892 
L 160.066317 102.214417 
L 175.505052 134.195689 
L 190.943787 151.30314 
L 206.382522 162.775771 
L 221.821257 164.214958 
L 237.259993 165.133919 
L 252.698728 165.284059 
L 268.137463 165.570363 
L 283.576198 165.641329 
L 299.014933 165.752626 
L 314.453668 165.792553 
L 329.892404 165.847133 
L 345.331139 165.842329 
L 360.769874 165.872092 
L 376.208609 165.911753 
L 391.647344 165.927691 
L 407.08608 165.949252 
" style="fill:none;stroke:#1b9e77;stroke-linecap:square;stroke-opacity:0.5;stroke-width:1.5;"/>
   </g>
   <g id="line2d_81">
    <path clip-path="url(#p526df1e80d)" d="M 51.99517 151.694542 
L 67.433906 154.63992 
L 82.872641 120.293415 
L 98.311376 88.934902 
L 113.750111 137.05168 
L 129.188846 152.934606 
L 144.627582 164.881724 
L 160.066317 164.811646 
L 175.505052 164.776361 
L 190.943787 165.044925 
L 206.382522 165.449199 
L 221.821257 165.511855 
L 237.259993 165.268062 
L 252.698728 163.733199 
L 268.137463 152.862967 
L 283.576198 163.136268 
L 299.014933 160.039844 
L 314.453668 154.577092 
L 329.892404 158.955398 
L 345.331139 155.418414 
L 360.769874 163.442784 
L 376.208609 161.09626 
L 391.647344 165.888329 
L 407.08608 160.171024 
" style="fill:none;stroke:#1b9e77;stroke-linecap:square;stroke-opacity:0.5;stroke-width:1.5;"/>
   </g>
   <g id="line2d_82">
    <path clip-path="url(#p526df1e80d)" d="M 51.99517 150.274713 
L 67.433906 163.539336 
L 82.872641 157.419775 
L 98.311376 84.912683 
L 113.750111 135.428004 
L 129.188846 143.115791 
L 144.627582 163.721606 
L 160.066317 165.45023 
L 175.505052 163.501979 
L 190.943787 144.067429 
L 206.382522 154.711627 
L 221.821257 157.964894 
L 237.259993 162.322463 
L 252.698728 164.137747 
L 268.137463 165.80346 
L 283.576198 165.869542 
L 299.014933 165.893557 
L 314.453668 165.885931 
L 329.892404 165.81482 
L 345.331139 165.933985 
L 360.769874 164.776296 
L 376.208609 149.080045 
L 391.647344 146.976027 
L 407.08608 154.012469 
" style="fill:none;stroke:#1b9e77;stroke-linecap:square;stroke-opacity:0.5;stroke-width:1.5;"/>
   </g>
   <g id="line2d_83">
    <path clip-path="url(#p526df1e80d)" d="M 51.99517 165.229943 
L 67.433906 165.360417 
L 82.872641 165.662032 
L 98.311376 165.603779 
L 113.750111 165.601742 
L 129.188846 165.600544 
L 144.627582 165.419956 
L 160.066317 165.54041 
L 175.505052 165.107447 
L 190.943787 163.403116 
L 206.382522 156.919379 
L 221.821257 160.450282 
L 237.259993 154.755926 
L 252.698728 149.918648 
L 268.137463 150.959946 
L 283.576198 121.894911 
L 299.014933 120.028568 
L 314.453668 134.207308 
L 329.892404 136.192756 
L 345.331139 128.563388 
L 360.769874 157.256169 
L 376.208609 165.21949 
L 391.647344 165.789607 
L 407.08608 165.928639 
" style="fill:none;stroke:#1b9e77;stroke-linecap:square;stroke-opacity:0.5;stroke-width:1.5;"/>
   </g>
   <g id="line2d_84">
    <path clip-path="url(#p526df1e80d)" d="M 51.99517 165.043403 
L 67.433906 164.999108 
L 82.872641 165.294789 
L 98.311376 165.102909 
L 113.750111 165.335061 
L 129.188846 165.667375 
L 144.627582 165.813679 
L 160.066317 165.814974 
L 175.505052 165.83204 
L 190.943787 165.915936 
L 206.382522 165.895766 
L 221.821257 165.185366 
L 237.259993 161.066982 
L 252.698728 163.484596 
L 268.137463 162.212782 
L 283.576198 160.833879 
L 299.014933 160.158163 
L 314.453668 157.563419 
L 329.892404 152.213272 
L 345.331139 153.026384 
L 360.769874 157.837367 
L 376.208609 120.099391 
L 391.647344 93.68093 
L 407.08608 92.536856 
" style="fill:none;stroke:#1b9e77;stroke-linecap:square;stroke-opacity:0.5;stroke-width:1.5;"/>
   </g>
   <g id="line2d_85">
    <path clip-path="url(#p526df1e80d)" d="M 51.99517 165.476625 
L 67.433906 165.158122 
L 82.872641 165.491657 
L 98.311376 165.466529 
L 113.750111 165.329842 
L 129.188846 165.86092 
L 144.627582 162.500087 
L 160.066317 156.272548 
L 175.505052 161.986912 
L 190.943787 159.938586 
L 206.382522 151.806863 
L 221.821257 153.457367 
L 237.259993 152.25794 
L 252.698728 20.866968 
L 268.137463 118.399472 
L 283.576198 164.576556 
L 299.014933 165.463942 
L 314.453668 165.482614 
L 329.892404 165.629422 
L 345.331139 165.678718 
L 360.769874 165.795039 
L 376.208609 165.862684 
L 391.647344 165.901757 
L 407.08608 165.953227 
" style="fill:none;stroke:#1b9e77;stroke-linecap:square;stroke-opacity:0.5;stroke-width:1.5;"/>
   </g>
   <g id="line2d_86">
    <path clip-path="url(#p526df1e80d)" d="M 51.99517 155.814296 
L 67.433906 124.152273 
L 82.872641 117.799065 
L 98.311376 126.156312 
L 113.750111 158.903284 
L 129.188846 164.993803 
L 144.627582 165.532592 
L 160.066317 165.214229 
L 175.505052 165.410321 
L 190.943787 165.34716 
L 206.382522 165.347608 
L 221.821257 165.72964 
L 237.259993 165.458447 
L 252.698728 137.013358 
L 268.137463 122.613427 
L 283.576198 139.689436 
L 299.014933 160.135324 
L 314.453668 165.004758 
L 329.892404 165.466309 
L 345.331139 163.258746 
L 360.769874 163.816562 
L 376.208609 165.893996 
L 391.647344 165.939793 
L 407.08608 165.923673 
" style="fill:none;stroke:#1b9e77;stroke-linecap:square;stroke-opacity:0.5;stroke-width:1.5;"/>
   </g>
   <g id="line2d_87">
    <path clip-path="url(#p526df1e80d)" d="M 51.99517 155.619842 
L 67.433906 156.783541 
L 82.872641 154.207973 
L 98.311376 151.939054 
L 113.750111 153.685007 
L 129.188846 143.758147 
L 144.627582 137.728717 
L 160.066317 145.112775 
L 175.505052 156.061268 
L 190.943787 152.420531 
L 206.382522 160.68064 
L 221.821257 164.330316 
L 237.259993 163.141764 
L 252.698728 154.50853 
L 268.137463 139.032376 
L 283.576198 140.858525 
L 299.014933 151.089848 
L 314.453668 160.277062 
L 329.892404 160.040628 
L 345.331139 157.580993 
L 360.769874 164.020462 
L 376.208609 165.84623 
L 391.647344 165.933693 
L 407.08608 165.956486 
" style="fill:none;stroke:#1b9e77;stroke-linecap:square;stroke-opacity:0.5;stroke-width:1.5;"/>
   </g>
   <g id="line2d_88">
    <path clip-path="url(#p526df1e80d)" d="M 51.99517 162.2968 
L 67.433906 159.706629 
L 82.872641 164.917074 
L 98.311376 165.514702 
L 113.750111 165.55632 
L 129.188846 165.421695 
L 144.627582 159.542796 
L 160.066317 144.474076 
L 175.505052 126.390555 
L 190.943787 131.737773 
L 206.382522 99.874757 
L 221.821257 141.182163 
L 237.259993 161.822393 
L 252.698728 142.818302 
L 268.137463 148.008094 
L 283.576198 165.079106 
L 299.014933 165.125884 
L 314.453668 160.718464 
L 329.892404 162.882705 
L 345.331139 165.078781 
L 360.769874 165.434267 
L 376.208609 165.486616 
L 391.647344 165.630743 
L 407.08608 165.91371 
" style="fill:none;stroke:#1b9e77;stroke-linecap:square;stroke-opacity:0.5;stroke-width:1.5;"/>
   </g>
   <g id="line2d_89">
    <path clip-path="url(#p526df1e80d)" d="M 51.99517 156.592222 
L 67.433906 110.489954 
L 82.872641 90.121022 
L 98.311376 134.35952 
L 113.750111 157.939553 
L 129.188846 160.394504 
L 144.627582 160.144147 
L 160.066317 154.563035 
L 175.505052 159.241842 
L 190.943787 162.988613 
L 206.382522 164.562431 
L 221.821257 163.98683 
L 237.259993 164.329809 
L 252.698728 164.709035 
L 268.137463 165.433233 
L 283.576198 165.673595 
L 299.014933 165.755262 
L 314.453668 165.779226 
L 329.892404 165.694435 
L 345.331139 160.997724 
L 360.769874 149.691783 
L 376.208609 160.735269 
L 391.647344 153.926205 
L 407.08608 162.505155 
" style="fill:none;stroke:#1b9e77;stroke-linecap:square;stroke-opacity:0.5;stroke-width:1.5;"/>
   </g>
   <g id="line2d_90">
    <path clip-path="url(#p526df1e80d)" d="M 51.99517 164.975924 
L 67.433906 165.415338 
L 82.872641 165.789385 
L 98.311376 165.803219 
L 113.750111 165.817746 
L 129.188846 165.774386 
L 144.627582 164.575051 
L 160.066317 165.166521 
L 175.505052 164.91055 
L 190.943787 160.474208 
L 206.382522 156.593737 
L 221.821257 150.341868 
L 237.259993 151.940761 
L 252.698728 162.641737 
L 268.137463 153.704643 
L 283.576198 143.808945 
L 299.014933 136.968871 
L 314.453668 144.633126 
L 329.892404 128.122865 
L 345.331139 145.029008 
L 360.769874 156.436524 
L 376.208609 148.211779 
L 391.647344 135.344702 
L 407.08608 158.133512 
" style="fill:none;stroke:#1b9e77;stroke-linecap:square;stroke-opacity:0.5;stroke-width:1.5;"/>
   </g>
   <g id="line2d_91">
    <path clip-path="url(#p526df1e80d)" d="M 51.99517 145.053667 
L 67.433906 95.357341 
L 82.872641 144.42772 
L 98.311376 153.458387 
L 113.750111 155.360712 
L 129.188846 149.374717 
L 144.627582 156.868048 
L 160.066317 163.750983 
L 175.505052 165.231098 
L 190.943787 165.508044 
L 206.382522 165.722222 
L 221.821257 165.700432 
L 237.259993 165.780439 
L 252.698728 165.887307 
L 268.137463 165.902849 
L 283.576198 165.74741 
L 299.014933 163.65661 
L 314.453668 155.125425 
L 329.892404 159.791649 
L 345.331139 158.010515 
L 360.769874 155.88914 
L 376.208609 147.826329 
L 391.647344 136.022922 
L 407.08608 155.160442 
" style="fill:none;stroke:#1b9e77;stroke-linecap:square;stroke-opacity:0.5;stroke-width:1.5;"/>
   </g>
   <g id="line2d_92">
    <path clip-path="url(#p526df1e80d)" d="M 51.99517 156.042392 
L 67.433906 109.536109 
L 82.872641 142.09517 
L 98.311376 159.317831 
L 113.750111 164.156287 
L 129.188846 164.855476 
L 144.627582 164.742963 
L 160.066317 164.198058 
L 175.505052 165.166863 
L 190.943787 165.692993 
L 206.382522 165.80155 
L 221.821257 165.086306 
L 237.259993 161.393677 
L 252.698728 159.772881 
L 268.137463 160.566217 
L 283.576198 163.452218 
L 299.014933 163.219166 
L 314.453668 162.429374 
L 329.892404 162.430874 
L 345.331139 161.473713 
L 360.769874 142.796009 
L 376.208609 132.134032 
L 391.647344 120.638008 
L 407.08608 143.616249 
" style="fill:none;stroke:#1b9e77;stroke-linecap:square;stroke-opacity:0.5;stroke-width:1.5;"/>
   </g>
   <g id="line2d_93">
    <path clip-path="url(#p526df1e80d)" d="M 51.99517 37.216891 
L 67.433906 127.994125 
L 82.872641 158.063655 
L 98.311376 156.526328 
L 113.750111 155.985278 
L 129.188846 159.978813 
L 144.627582 162.38411 
L 160.066317 164.463671 
L 175.505052 165.255492 
L 190.943787 165.075034 
L 206.382522 163.971605 
L 221.821257 162.050505 
L 237.259993 162.166114 
L 252.698728 162.193701 
L 268.137463 160.785425 
L 283.576198 158.7469 
L 299.014933 156.426064 
L 314.453668 159.064497 
L 329.892404 160.854019 
L 345.331139 162.200023 
L 360.769874 163.567364 
L 376.208609 164.556073 
L 391.647344 165.276452 
L 407.08608 165.812273 
" style="fill:none;stroke:#1b9e77;stroke-linecap:square;stroke-opacity:0.5;stroke-width:1.5;"/>
   </g>
   <g id="line2d_94">
    <path clip-path="url(#p526df1e80d)" d="M 51.99517 165.677556 
L 67.433906 165.72495 
L 82.872641 165.876189 
L 98.311376 165.925077 
L 113.750111 165.934252 
L 129.188846 163.751655 
L 144.627582 162.10743 
L 160.066317 158.689179 
L 175.505052 144.431684 
L 190.943787 158.720236 
L 206.382522 152.211148 
L 221.821257 150.382042 
L 237.259993 147.041165 
L 252.698728 159.090526 
L 268.137463 158.226754 
L 283.576198 149.673541 
L 299.014933 142.086552 
L 314.453668 137.745505 
L 329.892404 140.242139 
L 345.331139 143.484869 
L 360.769874 152.303711 
L 376.208609 150.589059 
L 391.647344 157.696405 
L 407.08608 163.002788 
" style="fill:none;stroke:#1b9e77;stroke-linecap:square;stroke-opacity:0.5;stroke-width:1.5;"/>
   </g>
   <g id="line2d_95">
    <path clip-path="url(#p526df1e80d)" d="M 51.99517 155.098419 
L 67.433906 118.569484 
L 82.872641 132.710594 
L 98.311376 156.006881 
L 113.750111 163.03044 
L 129.188846 158.326438 
L 144.627582 162.699257 
L 160.066317 165.223753 
L 175.505052 165.677942 
L 190.943787 165.78186 
L 206.382522 165.72384 
L 221.821257 162.1768 
L 237.259993 150.344503 
L 252.698728 160.421399 
L 268.137463 150.812718 
L 283.576198 148.534312 
L 299.014933 157.02723 
L 314.453668 113.385361 
L 329.892404 142.324031 
L 345.331139 164.738984 
L 360.769874 165.41412 
L 376.208609 165.265815 
L 391.647344 165.433383 
L 407.08608 165.886841 
" style="fill:none;stroke:#1b9e77;stroke-linecap:square;stroke-opacity:0.5;stroke-width:1.5;"/>
   </g>
   <g id="line2d_96">
    <path clip-path="url(#p526df1e80d)" d="M 51.99517 149.102128 
L 67.433906 101.041973 
L 82.872641 141.131746 
L 98.311376 158.812068 
L 113.750111 163.828395 
L 129.188846 164.442999 
L 144.627582 165.168231 
L 160.066317 165.27494 
L 175.505052 165.509131 
L 190.943787 165.566567 
L 206.382522 165.672127 
L 221.821257 165.694739 
L 237.259993 165.757121 
L 252.698728 165.771585 
L 268.137463 165.644424 
L 283.576198 164.613206 
L 299.014933 160.383865 
L 314.453668 135.776709 
L 329.892404 123.680471 
L 345.331139 152.898293 
L 360.769874 148.975704 
L 376.208609 146.511436 
L 391.647344 154.252099 
L 407.08608 165.104449 
" style="fill:none;stroke:#1b9e77;stroke-linecap:square;stroke-opacity:0.5;stroke-width:1.5;"/>
   </g>
   <g id="line2d_97">
    <path clip-path="url(#p526df1e80d)" d="M 51.99517 163.458373 
L 67.433906 165.290172 
L 82.872641 165.514879 
L 98.311376 165.499658 
L 113.750111 160.976812 
L 129.188846 146.53038 
L 144.627582 143.49253 
L 160.066317 127.273979 
L 175.505052 101.49451 
L 190.943787 116.228005 
L 206.382522 156.290677 
L 221.821257 160.350729 
L 237.259993 160.316682 
L 252.698728 162.438054 
L 268.137463 163.489884 
L 283.576198 164.72379 
L 299.014933 165.533909 
L 314.453668 163.73076 
L 329.892404 155.266618 
L 345.331139 158.076943 
L 360.769874 161.251178 
L 376.208609 163.062745 
L 391.647344 165.291596 
L 407.08608 165.03154 
" style="fill:none;stroke:#1b9e77;stroke-linecap:square;stroke-opacity:0.5;stroke-width:1.5;"/>
   </g>
   <g id="line2d_98">
    <path clip-path="url(#p526df1e80d)" d="M 51.99517 157.21199 
L 67.433906 156.76921 
L 82.872641 163.957174 
L 98.311376 164.639755 
L 113.750111 164.2188 
L 129.188846 156.824425 
L 144.627582 84.733475 
L 160.066317 111.862023 
L 175.505052 151.361236 
L 190.943787 159.678953 
L 206.382522 158.182519 
L 221.821257 133.370261 
L 237.259993 146.305234 
L 252.698728 162.831471 
L 268.137463 164.963255 
L 283.576198 164.764461 
L 299.014933 164.477451 
L 314.453668 164.308237 
L 329.892404 164.328884 
L 345.331139 164.837239 
L 360.769874 164.861308 
L 376.208609 164.956007 
L 391.647344 165.295935 
L 407.08608 165.875099 
" style="fill:none;stroke:#1b9e77;stroke-linecap:square;stroke-opacity:0.5;stroke-width:1.5;"/>
   </g>
   <g id="line2d_99">
    <path clip-path="url(#p526df1e80d)" d="M 51.99517 152.20419 
L 67.433906 64.242833 
L 82.872641 100.907335 
L 98.311376 139.575189 
L 113.750111 157.319177 
L 129.188846 157.786581 
L 144.627582 161.774742 
L 160.066317 163.396929 
L 175.505052 164.739018 
L 190.943787 164.937822 
L 206.382522 165.28119 
L 221.821257 165.307224 
L 237.259993 165.317203 
L 252.698728 165.470089 
L 268.137463 159.108012 
L 283.576198 157.774861 
L 299.014933 157.269193 
L 314.453668 164.758187 
L 329.892404 165.271013 
L 345.331139 165.481861 
L 360.769874 164.994797 
L 376.208609 165.939401 
L 391.647344 165.956607 
L 407.08608 165.800954 
" style="fill:none;stroke:#1b9e77;stroke-linecap:square;stroke-opacity:0.5;stroke-width:1.5;"/>
   </g>
   <g id="line2d_100">
    <path clip-path="url(#p526df1e80d)" d="M 51.99517 165.027027 
L 67.433906 162.430486 
L 82.872641 157.672023 
L 98.311376 126.945725 
L 113.750111 116.898457 
L 129.188846 116.194034 
L 144.627582 113.371224 
L 160.066317 132.082213 
L 175.505052 152.23268 
L 190.943787 163.217336 
L 206.382522 164.811343 
L 221.821257 161.87573 
L 237.259993 163.496853 
L 252.698728 165.628683 
L 268.137463 165.825222 
L 283.576198 165.775551 
L 299.014933 165.794732 
L 314.453668 165.84778 
L 329.892404 165.891078 
L 345.331139 165.890416 
L 360.769874 165.900163 
L 376.208609 165.918272 
L 391.647344 165.930956 
L 407.08608 165.956414 
" style="fill:none;stroke:#1b9e77;stroke-linecap:square;stroke-opacity:0.5;stroke-width:1.5;"/>
   </g>
   <g id="line2d_101">
    <path clip-path="url(#p526df1e80d)" d="M 51.99517 165.950059 
L 67.433906 165.932439 
L 82.872641 165.940882 
L 98.311376 165.615593 
L 113.750111 154.902084 
L 129.188846 161.23528 
L 144.627582 158.617444 
L 160.066317 156.261143 
L 175.505052 156.184276 
L 190.943787 147.573314 
L 206.382522 98.170298 
L 221.821257 61.531663 
L 237.259993 147.369578 
L 252.698728 161.454906 
L 268.137463 164.462351 
L 283.576198 164.752863 
L 299.014933 165.248213 
L 314.453668 165.421739 
L 329.892404 165.574202 
L 345.331139 165.479921 
L 360.769874 165.543623 
L 376.208609 165.704705 
L 391.647344 165.76755 
L 407.08608 165.920287 
" style="fill:none;stroke:#1b9e77;stroke-linecap:square;stroke-opacity:0.5;stroke-width:1.5;"/>
   </g>
   <g id="line2d_102">
    <path clip-path="url(#p526df1e80d)" d="M 51.99517 164.021488 
L 67.433906 164.421879 
L 82.872641 164.051252 
L 98.311376 162.810675 
L 113.750111 161.670501 
L 129.188846 160.862828 
L 144.627582 158.457862 
L 160.066317 157.35255 
L 175.505052 157.400406 
L 190.943787 152.639602 
L 206.382522 154.339024 
L 221.821257 93.80623 
L 237.259993 91.338834 
L 252.698728 138.690192 
L 268.137463 159.113578 
L 283.576198 157.728195 
L 299.014933 162.942726 
L 314.453668 165.035348 
L 329.892404 165.603684 
L 345.331139 165.460897 
L 360.769874 165.506125 
L 376.208609 165.686568 
L 391.647344 165.759263 
L 407.08608 165.914695 
" style="fill:none;stroke:#1b9e77;stroke-linecap:square;stroke-opacity:0.5;stroke-width:1.5;"/>
   </g>
   <g id="line2d_103">
    <path clip-path="url(#p526df1e80d)" d="M 51.99517 164.539494 
L 67.433906 164.992021 
L 82.872641 165.564164 
L 98.311376 165.594507 
L 113.750111 165.560548 
L 129.188846 165.378113 
L 144.627582 162.546587 
L 160.066317 164.650499 
L 175.505052 152.915138 
L 190.943787 150.921927 
L 206.382522 161.632417 
L 221.821257 161.425272 
L 237.259993 118.301929 
L 252.698728 116.365252 
L 268.137463 145.519697 
L 283.576198 135.395591 
L 299.014933 144.38481 
L 314.453668 162.138859 
L 329.892404 165.587594 
L 345.331139 165.510514 
L 360.769874 162.815086 
L 376.208609 148.981801 
L 391.647344 146.402634 
L 407.08608 163.489956 
" style="fill:none;stroke:#1b9e77;stroke-linecap:square;stroke-opacity:0.5;stroke-width:1.5;"/>
   </g>
   <g id="line2d_104">
    <path clip-path="url(#p526df1e80d)" d="M 51.99517 152.976422 
L 67.433906 92.734675 
L 82.872641 120.960719 
L 98.311376 152.076454 
L 113.750111 163.263403 
L 129.188846 162.916853 
L 144.627582 163.669214 
L 160.066317 164.069144 
L 175.505052 164.997627 
L 190.943787 165.478549 
L 206.382522 165.663524 
L 221.821257 165.180893 
L 237.259993 165.025408 
L 252.698728 165.795646 
L 268.137463 165.771597 
L 283.576198 165.744471 
L 299.014933 162.093092 
L 314.453668 158.192845 
L 329.892404 150.31823 
L 345.331139 153.484301 
L 360.769874 150.909357 
L 376.208609 148.716502 
L 391.647344 142.061353 
L 407.08608 158.514138 
" style="fill:none;stroke:#1b9e77;stroke-linecap:square;stroke-opacity:0.5;stroke-width:1.5;"/>
   </g>
   <g id="line2d_105">
    <path clip-path="url(#p526df1e80d)" d="M 51.99517 153.06193 
L 67.433906 109.163842 
L 82.872641 118.507217 
L 98.311376 129.164066 
L 113.750111 152.609652 
L 129.188846 160.600706 
L 144.627582 164.378126 
L 160.066317 164.864058 
L 175.505052 165.435629 
L 190.943787 165.493831 
L 206.382522 165.543574 
L 221.821257 165.40538 
L 237.259993 165.178868 
L 252.698728 164.525201 
L 268.137463 164.533609 
L 283.576198 164.708195 
L 299.014933 164.404928 
L 314.453668 164.413154 
L 329.892404 165.052609 
L 345.331139 165.532694 
L 360.769874 165.511461 
L 376.208609 165.62226 
L 391.647344 154.222928 
L 407.08608 102.68049 
" style="fill:none;stroke:#1b9e77;stroke-linecap:square;stroke-opacity:0.5;stroke-width:1.5;"/>
   </g>
   <g id="line2d_106">
    <path clip-path="url(#p526df1e80d)" d="M 51.99517 163.258708 
L 67.433906 164.449595 
L 82.872641 164.790327 
L 98.311376 164.015779 
L 113.750111 159.907408 
L 129.188846 158.212181 
L 144.627582 156.697733 
L 160.066317 158.264487 
L 175.505052 160.757049 
L 190.943787 148.760573 
L 206.382522 95.430626 
L 221.821257 91.657119 
L 237.259993 149.81389 
L 252.698728 155.843652 
L 268.137463 164.778946 
L 283.576198 165.160627 
L 299.014933 165.445025 
L 314.453668 165.506033 
L 329.892404 165.692271 
L 345.331139 165.778693 
L 360.769874 165.793879 
L 376.208609 165.875945 
L 391.647344 163.192761 
L 407.08608 141.531095 
" style="fill:none;stroke:#1b9e77;stroke-linecap:square;stroke-opacity:0.5;stroke-width:1.5;"/>
   </g>
   <g id="line2d_107">
    <path clip-path="url(#p526df1e80d)" d="M 51.99517 150.388911 
L 67.433906 119.508405 
L 82.872641 145.583569 
L 98.311376 153.430842 
L 113.750111 160.284045 
L 129.188846 163.249436 
L 144.627582 164.403686 
L 160.066317 164.321102 
L 175.505052 164.786235 
L 190.943787 165.015704 
L 206.382522 165.300475 
L 221.821257 165.425773 
L 237.259993 165.524274 
L 252.698728 165.378027 
L 268.137463 164.552991 
L 283.576198 164.267409 
L 299.014933 161.380746 
L 314.453668 157.252962 
L 329.892404 150.77293 
L 345.331139 146.825756 
L 360.769874 131.778256 
L 376.208609 132.346611 
L 391.647344 135.530432 
L 407.08608 163.305826 
" style="fill:none;stroke:#1b9e77;stroke-linecap:square;stroke-opacity:0.5;stroke-width:1.5;"/>
   </g>
   <g id="line2d_108">
    <path clip-path="url(#p526df1e80d)" d="M 51.99517 165.029277 
L 67.433906 163.304888 
L 82.872641 145.011818 
L 98.311376 103.576386 
L 113.750111 128.163833 
L 129.188846 160.13094 
L 144.627582 161.46478 
L 160.066317 157.296397 
L 175.505052 154.639019 
L 190.943787 158.33001 
L 206.382522 162.176782 
L 221.821257 162.821099 
L 237.259993 163.559504 
L 252.698728 163.993933 
L 268.137463 164.758583 
L 283.576198 165.06079 
L 299.014933 165.385359 
L 314.453668 165.46828 
L 329.892404 165.539881 
L 345.331139 165.701572 
L 360.769874 165.763828 
L 376.208609 162.538725 
L 391.647344 143.411658 
L 407.08608 107.487069 
" style="fill:none;stroke:#1b9e77;stroke-linecap:square;stroke-opacity:0.5;stroke-width:1.5;"/>
   </g>
   <g id="line2d_109">
    <path clip-path="url(#p526df1e80d)" d="M 51.99517 165.692164 
L 67.433906 165.61751 
L 82.872641 163.287227 
L 98.311376 164.992831 
L 113.750111 164.130439 
L 129.188846 162.614599 
L 144.627582 161.25813 
L 160.066317 160.512337 
L 175.505052 161.014577 
L 190.943787 159.506966 
L 206.382522 157.943115 
L 221.821257 152.800323 
L 237.259993 135.530012 
L 252.698728 136.383528 
L 268.137463 148.469918 
L 283.576198 156.863354 
L 299.014933 133.236251 
L 314.453668 126.687266 
L 329.892404 152.278939 
L 345.331139 144.568371 
L 360.769874 162.158347 
L 376.208609 154.269883 
L 391.647344 164.843475 
L 407.08608 165.954848 
" style="fill:none;stroke:#1b9e77;stroke-linecap:square;stroke-opacity:0.5;stroke-width:1.5;"/>
   </g>
   <g id="line2d_110">
    <path clip-path="url(#p526df1e80d)" d="M 51.99517 164.902602 
L 67.433906 163.86798 
L 82.872641 157.264835 
L 98.311376 145.95637 
L 113.750111 134.480802 
L 129.188846 104.279208 
L 144.627582 132.847109 
L 160.066317 117.341054 
L 175.505052 145.844165 
L 190.943787 160.789488 
L 206.382522 163.421968 
L 221.821257 160.868245 
L 237.259993 164.02301 
L 252.698728 165.511718 
L 268.137463 165.698581 
L 283.576198 165.366097 
L 299.014933 164.933283 
L 314.453668 165.685205 
L 329.892404 165.841342 
L 345.331139 165.920972 
L 360.769874 165.674885 
L 376.208609 160.125158 
L 391.647344 157.209837 
L 407.08608 162.760492 
" style="fill:none;stroke:#1b9e77;stroke-linecap:square;stroke-opacity:0.5;stroke-width:1.5;"/>
   </g>
   <g id="line2d_111">
    <path clip-path="url(#p526df1e80d)" d="M 51.99517 154.129533 
L 67.433906 146.765981 
L 82.872641 163.72819 
L 98.311376 164.380632 
L 113.750111 163.705981 
L 129.188846 154.846404 
L 144.627582 134.932608 
L 160.066317 155.396063 
L 175.505052 159.128546 
L 190.943787 158.530466 
L 206.382522 158.065512 
L 221.821257 160.508355 
L 237.259993 163.666698 
L 252.698728 164.335041 
L 268.137463 164.949745 
L 283.576198 165.120695 
L 299.014933 165.336414 
L 314.453668 165.380993 
L 329.892404 164.820712 
L 345.331139 164.292674 
L 360.769874 101.832156 
L 376.208609 133.031742 
L 391.647344 136.14895 
L 407.08608 157.580314 
" style="fill:none;stroke:#1b9e77;stroke-linecap:square;stroke-opacity:0.5;stroke-width:1.5;"/>
   </g>
   <g id="line2d_112">
    <path clip-path="url(#p526df1e80d)" d="M 51.99517 165.950839 
L 67.433906 165.950839 
L 82.872641 165.950839 
L 98.311376 165.950839 
L 113.750111 165.950839 
L 129.188846 165.950839 
L 144.627582 162.219674 
L 160.066317 135.909005 
L 175.505052 134.946616 
L 190.943787 124.009037 
L 206.382522 153.4986 
L 221.821257 128.674183 
L 237.259993 127.511716 
L 252.698728 138.113859 
L 268.137463 165.243737 
L 283.576198 165.950839 
L 299.014933 165.726745 
L 314.453668 161.17085 
L 329.892404 150.309299 
L 345.331139 153.451316 
L 360.769874 163.655977 
L 376.208609 163.66923 
L 391.647344 165.642909 
L 407.08608 165.205783 
" style="fill:none;stroke:#d95f02;stroke-linecap:square;stroke-width:1.5;"/>
   </g>
   <g id="patch_3">
    <path d="M 34.240625 173.52 
L 34.240625 7.2 
" style="fill:none;stroke:#000000;stroke-linecap:square;stroke-linejoin:miter;stroke-width:0.8;"/>
   </g>
   <g id="patch_4">
    <path d="M 34.240625 173.52 
L 424.840625 173.52 
" style="fill:none;stroke:#000000;stroke-linecap:square;stroke-linejoin:miter;stroke-width:0.8;"/>
   </g>
   <g id="legend_1">
    <g id="patch_5">
     <path d="M 366.673438 29.878125 
L 417.840625 29.878125 
Q 419.840625 29.878125 419.840625 27.878125 
L 419.840625 14.2 
Q 419.840625 12.2 417.840625 12.2 
L 366.673438 12.2 
Q 364.673438 12.2 364.673438 14.2 
L 364.673438 27.878125 
Q 364.673438 29.878125 366.673438 29.878125 
z
" style="fill:#ffffff;opacity:0.8;stroke:#cccccc;stroke-linejoin:miter;"/>
    </g>
    <g id="line2d_113">
     <path d="M 368.673438 20.298438 
L 388.673438 20.298438 
" style="fill:none;stroke:#d95f02;stroke-linecap:square;stroke-width:1.5;"/>
    </g>
    <g id="line2d_114"/>
    <g id="text_14">
     <!-- real -->
     <defs>
      <path d="M 9.421875 75.984375 
L 18.40625 75.984375 
L 18.40625 0 
L 9.421875 0 
z
" id="DejaVuSans-108"/>
     </defs>
     <g transform="translate(396.673438 23.798438)scale(0.1 -0.1)">
      <use xlink:href="#DejaVuSans-114"/>
      <use x="41.082031" xlink:href="#DejaVuSans-101"/>
      <use x="102.605469" xlink:href="#DejaVuSans-97"/>
      <use x="163.884766" xlink:href="#DejaVuSans-108"/>
     </g>
    </g>
   </g>
  </g>
 </g>
 <defs>
  <clipPath id="p526df1e80d">
   <rect height="166.32" width="390.6" x="34.240625" y="7.2"/>
  </clipPath>
 </defs>
</svg>
