<?xml version="1.0" encoding="utf-8" standalone="no"?>
<!DOCTYPE svg PUBLIC "-//W3C//DTD SVG 1.1//EN"
  "http://www.w3.org/Graphics/SVG/1.1/DTD/svg11.dtd">
<!-- Created with matplotlib (https://matplotlib.org/) -->
<svg height="211.07625pt" version="1.1" viewBox="0 0 436.087315 211.07625" width="436.087315pt" xmlns="http://www.w3.org/2000/svg" xmlns:xlink="http://www.w3.org/1999/xlink">
 <defs>
  <style type="text/css">
*{stroke-linecap:butt;stroke-linejoin:round;}
  </style>
 </defs>
 <g id="figure_1">
  <g id="patch_1">
   <path d="M 0 211.07625 
L 436.087315 211.07625 
L 436.087315 0 
L 0 0 
z
" style="fill:#ffffff;"/>
  </g>
  <g id="axes_1">
   <g id="patch_2">
    <path d="M 34.240625 173.52 
L 424.840625 173.52 
L 424.840625 7.2 
L 34.240625 7.2 
z
" style="fill:#ffffff;"/>
   </g>
   <g id="matplotlib.axis_1">
    <g id="xtick_1">
     <g id="line2d_1">
      <defs>
       <path d="M 0 0 
L 0 3.5 
" id="m3a7813a5ce" style="stroke:#000000;stroke-width:0.8;"/>
      </defs>
      <g>
       <use style="stroke:#000000;stroke-width:0.8;" x="36.556435" xlink:href="#m3a7813a5ce" y="173.52"/>
      </g>
     </g>
     <g id="text_1">
      <!-- 0 -->
      <defs>
       <path d="M 31.78125 66.40625 
Q 24.171875 66.40625 20.328125 58.90625 
Q 16.5 51.421875 16.5 36.375 
Q 16.5 21.390625 20.328125 13.890625 
Q 24.171875 6.390625 31.78125 6.390625 
Q 39.453125 6.390625 43.28125 13.890625 
Q 47.125 21.390625 47.125 36.375 
Q 47.125 51.421875 43.28125 58.90625 
Q 39.453125 66.40625 31.78125 66.40625 
z
M 31.78125 74.21875 
Q 44.046875 74.21875 50.515625 64.515625 
Q 56.984375 54.828125 56.984375 36.375 
Q 56.984375 17.96875 50.515625 8.265625 
Q 44.046875 -1.421875 31.78125 -1.421875 
Q 19.53125 -1.421875 13.0625 8.265625 
Q 6.59375 17.96875 6.59375 36.375 
Q 6.59375 54.828125 13.0625 64.515625 
Q 19.53125 74.21875 31.78125 74.21875 
z
" id="DejaVuSans-48"/>
      </defs>
      <g transform="translate(33.375185 188.118438)scale(0.1 -0.1)">
       <use xlink:href="#DejaVuSans-48"/>
      </g>
     </g>
    </g>
    <g id="xtick_2">
     <g id="line2d_2">
      <g>
       <use style="stroke:#000000;stroke-width:0.8;" x="113.750111" xlink:href="#m3a7813a5ce" y="173.52"/>
      </g>
     </g>
     <g id="text_2">
      <!-- 5 -->
      <defs>
       <path d="M 10.796875 72.90625 
L 49.515625 72.90625 
L 49.515625 64.59375 
L 19.828125 64.59375 
L 19.828125 46.734375 
Q 21.96875 47.46875 24.109375 47.828125 
Q 26.265625 48.1875 28.421875 48.1875 
Q 40.625 48.1875 47.75 41.5 
Q 54.890625 34.8125 54.890625 23.390625 
Q 54.890625 11.625 47.5625 5.09375 
Q 40.234375 -1.421875 26.90625 -1.421875 
Q 22.3125 -1.421875 17.546875 -0.640625 
Q 12.796875 0.140625 7.71875 1.703125 
L 7.71875 11.625 
Q 12.109375 9.234375 16.796875 8.0625 
Q 21.484375 6.890625 26.703125 6.890625 
Q 35.15625 6.890625 40.078125 11.328125 
Q 45.015625 15.765625 45.015625 23.390625 
Q 45.015625 31 40.078125 35.4375 
Q 35.15625 39.890625 26.703125 39.890625 
Q 22.75 39.890625 18.8125 39.015625 
Q 14.890625 38.140625 10.796875 36.28125 
z
" id="DejaVuSans-53"/>
      </defs>
      <g transform="translate(110.568861 188.118438)scale(0.1 -0.1)">
       <use xlink:href="#DejaVuSans-53"/>
      </g>
     </g>
    </g>
    <g id="xtick_3">
     <g id="line2d_3">
      <g>
       <use style="stroke:#000000;stroke-width:0.8;" x="190.943787" xlink:href="#m3a7813a5ce" y="173.52"/>
      </g>
     </g>
     <g id="text_3">
      <!-- 10 -->
      <defs>
       <path d="M 12.40625 8.296875 
L 28.515625 8.296875 
L 28.515625 63.921875 
L 10.984375 60.40625 
L 10.984375 69.390625 
L 28.421875 72.90625 
L 38.28125 72.90625 
L 38.28125 8.296875 
L 54.390625 8.296875 
L 54.390625 0 
L 12.40625 0 
z
" id="DejaVuSans-49"/>
      </defs>
      <g transform="translate(184.581287 188.118438)scale(0.1 -0.1)">
       <use xlink:href="#DejaVuSans-49"/>
       <use x="63.623047" xlink:href="#DejaVuSans-48"/>
      </g>
     </g>
    </g>
    <g id="xtick_4">
     <g id="line2d_4">
      <g>
       <use style="stroke:#000000;stroke-width:0.8;" x="268.137463" xlink:href="#m3a7813a5ce" y="173.52"/>
      </g>
     </g>
     <g id="text_4">
      <!-- 15 -->
      <g transform="translate(261.774963 188.118438)scale(0.1 -0.1)">
       <use xlink:href="#DejaVuSans-49"/>
       <use x="63.623047" xlink:href="#DejaVuSans-53"/>
      </g>
     </g>
    </g>
    <g id="xtick_5">
     <g id="line2d_5">
      <g>
       <use style="stroke:#000000;stroke-width:0.8;" x="345.331139" xlink:href="#m3a7813a5ce" y="173.52"/>
      </g>
     </g>
     <g id="text_5">
      <!-- 20 -->
      <defs>
       <path d="M 19.1875 8.296875 
L 53.609375 8.296875 
L 53.609375 0 
L 7.328125 0 
L 7.328125 8.296875 
Q 12.9375 14.109375 22.625 23.890625 
Q 32.328125 33.6875 34.8125 36.53125 
Q 39.546875 41.84375 41.421875 45.53125 
Q 43.3125 49.21875 43.3125 52.78125 
Q 43.3125 58.59375 39.234375 62.25 
Q 35.15625 65.921875 28.609375 65.921875 
Q 23.96875 65.921875 18.8125 64.3125 
Q 13.671875 62.703125 7.8125 59.421875 
L 7.8125 69.390625 
Q 13.765625 71.78125 18.9375 73 
Q 24.125 74.21875 28.421875 74.21875 
Q 39.75 74.21875 46.484375 68.546875 
Q 53.21875 62.890625 53.21875 53.421875 
Q 53.21875 48.921875 51.53125 44.890625 
Q 49.859375 40.875 45.40625 35.40625 
Q 44.1875 33.984375 37.640625 27.21875 
Q 31.109375 20.453125 19.1875 8.296875 
z
" id="DejaVuSans-50"/>
      </defs>
      <g transform="translate(338.968639 188.118438)scale(0.1 -0.1)">
       <use xlink:href="#DejaVuSans-50"/>
       <use x="63.623047" xlink:href="#DejaVuSans-48"/>
      </g>
     </g>
    </g>
    <g id="xtick_6">
     <g id="line2d_6">
      <g>
       <use style="stroke:#000000;stroke-width:0.8;" x="422.524815" xlink:href="#m3a7813a5ce" y="173.52"/>
      </g>
     </g>
     <g id="text_6">
      <!-- 25 -->
      <g transform="translate(416.162315 188.118438)scale(0.1 -0.1)">
       <use xlink:href="#DejaVuSans-50"/>
       <use x="63.623047" xlink:href="#DejaVuSans-53"/>
      </g>
     </g>
    </g>
    <g id="text_7">
     <!-- hour -->
     <defs>
      <path d="M 54.890625 33.015625 
L 54.890625 0 
L 45.90625 0 
L 45.90625 32.71875 
Q 45.90625 40.484375 42.875 44.328125 
Q 39.84375 48.1875 33.796875 48.1875 
Q 26.515625 48.1875 22.3125 43.546875 
Q 18.109375 38.921875 18.109375 30.90625 
L 18.109375 0 
L 9.078125 0 
L 9.078125 75.984375 
L 18.109375 75.984375 
L 18.109375 46.1875 
Q 21.34375 51.125 25.703125 53.5625 
Q 30.078125 56 35.796875 56 
Q 45.21875 56 50.046875 50.171875 
Q 54.890625 44.34375 54.890625 33.015625 
z
" id="DejaVuSans-104"/>
      <path d="M 30.609375 48.390625 
Q 23.390625 48.390625 19.1875 42.75 
Q 14.984375 37.109375 14.984375 27.296875 
Q 14.984375 17.484375 19.15625 11.84375 
Q 23.34375 6.203125 30.609375 6.203125 
Q 37.796875 6.203125 41.984375 11.859375 
Q 46.1875 17.53125 46.1875 27.296875 
Q 46.1875 37.015625 41.984375 42.703125 
Q 37.796875 48.390625 30.609375 48.390625 
z
M 30.609375 56 
Q 42.328125 56 49.015625 48.375 
Q 55.71875 40.765625 55.71875 27.296875 
Q 55.71875 13.875 49.015625 6.21875 
Q 42.328125 -1.421875 30.609375 -1.421875 
Q 18.84375 -1.421875 12.171875 6.21875 
Q 5.515625 13.875 5.515625 27.296875 
Q 5.515625 40.765625 12.171875 48.375 
Q 18.84375 56 30.609375 56 
z
" id="DejaVuSans-111"/>
      <path d="M 8.5 21.578125 
L 8.5 54.6875 
L 17.484375 54.6875 
L 17.484375 21.921875 
Q 17.484375 14.15625 20.5 10.265625 
Q 23.53125 6.390625 29.59375 6.390625 
Q 36.859375 6.390625 41.078125 11.03125 
Q 45.3125 15.671875 45.3125 23.6875 
L 45.3125 54.6875 
L 54.296875 54.6875 
L 54.296875 0 
L 45.3125 0 
L 45.3125 8.40625 
Q 42.046875 3.421875 37.71875 1 
Q 33.40625 -1.421875 27.6875 -1.421875 
Q 18.265625 -1.421875 13.375 4.4375 
Q 8.5 10.296875 8.5 21.578125 
z
M 31.109375 56 
z
" id="DejaVuSans-117"/>
      <path d="M 41.109375 46.296875 
Q 39.59375 47.171875 37.8125 47.578125 
Q 36.03125 48 33.890625 48 
Q 26.265625 48 22.1875 43.046875 
Q 18.109375 38.09375 18.109375 28.8125 
L 18.109375 0 
L 9.078125 0 
L 9.078125 54.6875 
L 18.109375 54.6875 
L 18.109375 46.1875 
Q 20.953125 51.171875 25.484375 53.578125 
Q 30.03125 56 36.53125 56 
Q 37.453125 56 38.578125 55.875 
Q 39.703125 55.765625 41.0625 55.515625 
z
" id="DejaVuSans-114"/>
     </defs>
     <g transform="translate(218.088281 201.796563)scale(0.1 -0.1)">
      <use xlink:href="#DejaVuSans-104"/>
      <use x="63.378906" xlink:href="#DejaVuSans-111"/>
      <use x="124.560547" xlink:href="#DejaVuSans-117"/>
      <use x="187.939453" xlink:href="#DejaVuSans-114"/>
     </g>
    </g>
   </g>
   <g id="matplotlib.axis_2">
    <g id="ytick_1">
     <g id="line2d_7">
      <defs>
       <path d="M 0 0 
L -3.5 0 
" id="m64abedc01a" style="stroke:#000000;stroke-width:0.8;"/>
      </defs>
      <g>
       <use style="stroke:#000000;stroke-width:0.8;" x="34.240625" xlink:href="#m64abedc01a" y="165.961377"/>
      </g>
     </g>
     <g id="text_8">
      <!-- 0 -->
      <g transform="translate(20.878125 169.760596)scale(0.1 -0.1)">
       <use xlink:href="#DejaVuSans-48"/>
      </g>
     </g>
    </g>
    <g id="ytick_2">
     <g id="line2d_8">
      <g>
       <use style="stroke:#000000;stroke-width:0.8;" x="34.240625" xlink:href="#m64abedc01a" y="135.573774"/>
      </g>
     </g>
     <g id="text_9">
      <!-- 1 -->
      <g transform="translate(20.878125 139.372993)scale(0.1 -0.1)">
       <use xlink:href="#DejaVuSans-49"/>
      </g>
     </g>
    </g>
    <g id="ytick_3">
     <g id="line2d_9">
      <g>
       <use style="stroke:#000000;stroke-width:0.8;" x="34.240625" xlink:href="#m64abedc01a" y="105.186171"/>
      </g>
     </g>
     <g id="text_10">
      <!-- 2 -->
      <g transform="translate(20.878125 108.985389)scale(0.1 -0.1)">
       <use xlink:href="#DejaVuSans-50"/>
      </g>
     </g>
    </g>
    <g id="ytick_4">
     <g id="line2d_10">
      <g>
       <use style="stroke:#000000;stroke-width:0.8;" x="34.240625" xlink:href="#m64abedc01a" y="74.798567"/>
      </g>
     </g>
     <g id="text_11">
      <!-- 3 -->
      <defs>
       <path d="M 40.578125 39.3125 
Q 47.65625 37.796875 51.625 33 
Q 55.609375 28.21875 55.609375 21.1875 
Q 55.609375 10.40625 48.1875 4.484375 
Q 40.765625 -1.421875 27.09375 -1.421875 
Q 22.515625 -1.421875 17.65625 -0.515625 
Q 12.796875 0.390625 7.625 2.203125 
L 7.625 11.71875 
Q 11.71875 9.328125 16.59375 8.109375 
Q 21.484375 6.890625 26.8125 6.890625 
Q 36.078125 6.890625 40.9375 10.546875 
Q 45.796875 14.203125 45.796875 21.1875 
Q 45.796875 27.640625 41.28125 31.265625 
Q 36.765625 34.90625 28.71875 34.90625 
L 20.21875 34.90625 
L 20.21875 43.015625 
L 29.109375 43.015625 
Q 36.375 43.015625 40.234375 45.921875 
Q 44.09375 48.828125 44.09375 54.296875 
Q 44.09375 59.90625 40.109375 62.90625 
Q 36.140625 65.921875 28.71875 65.921875 
Q 24.65625 65.921875 20.015625 65.03125 
Q 15.375 64.15625 9.8125 62.3125 
L 9.8125 71.09375 
Q 15.4375 72.65625 20.34375 73.4375 
Q 25.25 74.21875 29.59375 74.21875 
Q 40.828125 74.21875 47.359375 69.109375 
Q 53.90625 64.015625 53.90625 55.328125 
Q 53.90625 49.265625 50.4375 45.09375 
Q 46.96875 40.921875 40.578125 39.3125 
z
" id="DejaVuSans-51"/>
      </defs>
      <g transform="translate(20.878125 78.597786)scale(0.1 -0.1)">
       <use xlink:href="#DejaVuSans-51"/>
      </g>
     </g>
    </g>
    <g id="ytick_5">
     <g id="line2d_11">
      <g>
       <use style="stroke:#000000;stroke-width:0.8;" x="34.240625" xlink:href="#m64abedc01a" y="44.410964"/>
      </g>
     </g>
     <g id="text_12">
      <!-- 4 -->
      <defs>
       <path d="M 37.796875 64.3125 
L 12.890625 25.390625 
L 37.796875 25.390625 
z
M 35.203125 72.90625 
L 47.609375 72.90625 
L 47.609375 25.390625 
L 58.015625 25.390625 
L 58.015625 17.1875 
L 47.609375 17.1875 
L 47.609375 0 
L 37.796875 0 
L 37.796875 17.1875 
L 4.890625 17.1875 
L 4.890625 26.703125 
z
" id="DejaVuSans-52"/>
      </defs>
      <g transform="translate(20.878125 48.210183)scale(0.1 -0.1)">
       <use xlink:href="#DejaVuSans-52"/>
      </g>
     </g>
    </g>
    <g id="ytick_6">
     <g id="line2d_12">
      <g>
       <use style="stroke:#000000;stroke-width:0.8;" x="34.240625" xlink:href="#m64abedc01a" y="14.023361"/>
      </g>
     </g>
     <g id="text_13">
      <!-- 5 -->
      <g transform="translate(20.878125 17.822579)scale(0.1 -0.1)">
       <use xlink:href="#DejaVuSans-53"/>
      </g>
     </g>
    </g>
    <g id="text_14">
     <!-- precipitation [mm/hour] -->
     <defs>
      <path d="M 18.109375 8.203125 
L 18.109375 -20.796875 
L 9.078125 -20.796875 
L 9.078125 54.6875 
L 18.109375 54.6875 
L 18.109375 46.390625 
Q 20.953125 51.265625 25.265625 53.625 
Q 29.59375 56 35.59375 56 
Q 45.5625 56 51.78125 48.09375 
Q 58.015625 40.1875 58.015625 27.296875 
Q 58.015625 14.40625 51.78125 6.484375 
Q 45.5625 -1.421875 35.59375 -1.421875 
Q 29.59375 -1.421875 25.265625 0.953125 
Q 20.953125 3.328125 18.109375 8.203125 
z
M 48.6875 27.296875 
Q 48.6875 37.203125 44.609375 42.84375 
Q 40.53125 48.484375 33.40625 48.484375 
Q 26.265625 48.484375 22.1875 42.84375 
Q 18.109375 37.203125 18.109375 27.296875 
Q 18.109375 17.390625 22.1875 11.75 
Q 26.265625 6.109375 33.40625 6.109375 
Q 40.53125 6.109375 44.609375 11.75 
Q 48.6875 17.390625 48.6875 27.296875 
z
" id="DejaVuSans-112"/>
      <path d="M 56.203125 29.59375 
L 56.203125 25.203125 
L 14.890625 25.203125 
Q 15.484375 15.921875 20.484375 11.0625 
Q 25.484375 6.203125 34.421875 6.203125 
Q 39.59375 6.203125 44.453125 7.46875 
Q 49.3125 8.734375 54.109375 11.28125 
L 54.109375 2.78125 
Q 49.265625 0.734375 44.1875 -0.34375 
Q 39.109375 -1.421875 33.890625 -1.421875 
Q 20.796875 -1.421875 13.15625 6.1875 
Q 5.515625 13.8125 5.515625 26.8125 
Q 5.515625 40.234375 12.765625 48.109375 
Q 20.015625 56 32.328125 56 
Q 43.359375 56 49.78125 48.890625 
Q 56.203125 41.796875 56.203125 29.59375 
z
M 47.21875 32.234375 
Q 47.125 39.59375 43.09375 43.984375 
Q 39.0625 48.390625 32.421875 48.390625 
Q 24.90625 48.390625 20.390625 44.140625 
Q 15.875 39.890625 15.1875 32.171875 
z
" id="DejaVuSans-101"/>
      <path d="M 48.78125 52.59375 
L 48.78125 44.1875 
Q 44.96875 46.296875 41.140625 47.34375 
Q 37.3125 48.390625 33.40625 48.390625 
Q 24.65625 48.390625 19.8125 42.84375 
Q 14.984375 37.3125 14.984375 27.296875 
Q 14.984375 17.28125 19.8125 11.734375 
Q 24.65625 6.203125 33.40625 6.203125 
Q 37.3125 6.203125 41.140625 7.25 
Q 44.96875 8.296875 48.78125 10.40625 
L 48.78125 2.09375 
Q 45.015625 0.34375 40.984375 -0.53125 
Q 36.96875 -1.421875 32.421875 -1.421875 
Q 20.0625 -1.421875 12.78125 6.34375 
Q 5.515625 14.109375 5.515625 27.296875 
Q 5.515625 40.671875 12.859375 48.328125 
Q 20.21875 56 33.015625 56 
Q 37.15625 56 41.109375 55.140625 
Q 45.0625 54.296875 48.78125 52.59375 
z
" id="DejaVuSans-99"/>
      <path d="M 9.421875 54.6875 
L 18.40625 54.6875 
L 18.40625 0 
L 9.421875 0 
z
M 9.421875 75.984375 
L 18.40625 75.984375 
L 18.40625 64.59375 
L 9.421875 64.59375 
z
" id="DejaVuSans-105"/>
      <path d="M 18.3125 70.21875 
L 18.3125 54.6875 
L 36.8125 54.6875 
L 36.8125 47.703125 
L 18.3125 47.703125 
L 18.3125 18.015625 
Q 18.3125 11.328125 20.140625 9.421875 
Q 21.96875 7.515625 27.59375 7.515625 
L 36.8125 7.515625 
L 36.8125 0 
L 27.59375 0 
Q 17.1875 0 13.234375 3.875 
Q 9.28125 7.765625 9.28125 18.015625 
L 9.28125 47.703125 
L 2.6875 47.703125 
L 2.6875 54.6875 
L 9.28125 54.6875 
L 9.28125 70.21875 
z
" id="DejaVuSans-116"/>
      <path d="M 34.28125 27.484375 
Q 23.390625 27.484375 19.1875 25 
Q 14.984375 22.515625 14.984375 16.5 
Q 14.984375 11.71875 18.140625 8.90625 
Q 21.296875 6.109375 26.703125 6.109375 
Q 34.1875 6.109375 38.703125 11.40625 
Q 43.21875 16.703125 43.21875 25.484375 
L 43.21875 27.484375 
z
M 52.203125 31.203125 
L 52.203125 0 
L 43.21875 0 
L 43.21875 8.296875 
Q 40.140625 3.328125 35.546875 0.953125 
Q 30.953125 -1.421875 24.3125 -1.421875 
Q 15.921875 -1.421875 10.953125 3.296875 
Q 6 8.015625 6 15.921875 
Q 6 25.140625 12.171875 29.828125 
Q 18.359375 34.515625 30.609375 34.515625 
L 43.21875 34.515625 
L 43.21875 35.40625 
Q 43.21875 41.609375 39.140625 45 
Q 35.0625 48.390625 27.6875 48.390625 
Q 23 48.390625 18.546875 47.265625 
Q 14.109375 46.140625 10.015625 43.890625 
L 10.015625 52.203125 
Q 14.9375 54.109375 19.578125 55.046875 
Q 24.21875 56 28.609375 56 
Q 40.484375 56 46.34375 49.84375 
Q 52.203125 43.703125 52.203125 31.203125 
z
" id="DejaVuSans-97"/>
      <path d="M 54.890625 33.015625 
L 54.890625 0 
L 45.90625 0 
L 45.90625 32.71875 
Q 45.90625 40.484375 42.875 44.328125 
Q 39.84375 48.1875 33.796875 48.1875 
Q 26.515625 48.1875 22.3125 43.546875 
Q 18.109375 38.921875 18.109375 30.90625 
L 18.109375 0 
L 9.078125 0 
L 9.078125 54.6875 
L 18.109375 54.6875 
L 18.109375 46.1875 
Q 21.34375 51.125 25.703125 53.5625 
Q 30.078125 56 35.796875 56 
Q 45.21875 56 50.046875 50.171875 
Q 54.890625 44.34375 54.890625 33.015625 
z
" id="DejaVuSans-110"/>
      <path id="DejaVuSans-32"/>
      <path d="M 8.59375 75.984375 
L 29.296875 75.984375 
L 29.296875 69 
L 17.578125 69 
L 17.578125 -6.203125 
L 29.296875 -6.203125 
L 29.296875 -13.1875 
L 8.59375 -13.1875 
z
" id="DejaVuSans-91"/>
      <path d="M 52 44.1875 
Q 55.375 50.25 60.0625 53.125 
Q 64.75 56 71.09375 56 
Q 79.640625 56 84.28125 50.015625 
Q 88.921875 44.046875 88.921875 33.015625 
L 88.921875 0 
L 79.890625 0 
L 79.890625 32.71875 
Q 79.890625 40.578125 77.09375 44.375 
Q 74.3125 48.1875 68.609375 48.1875 
Q 61.625 48.1875 57.5625 43.546875 
Q 53.515625 38.921875 53.515625 30.90625 
L 53.515625 0 
L 44.484375 0 
L 44.484375 32.71875 
Q 44.484375 40.625 41.703125 44.40625 
Q 38.921875 48.1875 33.109375 48.1875 
Q 26.21875 48.1875 22.15625 43.53125 
Q 18.109375 38.875 18.109375 30.90625 
L 18.109375 0 
L 9.078125 0 
L 9.078125 54.6875 
L 18.109375 54.6875 
L 18.109375 46.1875 
Q 21.1875 51.21875 25.484375 53.609375 
Q 29.78125 56 35.6875 56 
Q 41.65625 56 45.828125 52.96875 
Q 50 49.953125 52 44.1875 
z
" id="DejaVuSans-109"/>
      <path d="M 25.390625 72.90625 
L 33.6875 72.90625 
L 8.296875 -9.28125 
L 0 -9.28125 
z
" id="DejaVuSans-47"/>
      <path d="M 30.421875 75.984375 
L 30.421875 -13.1875 
L 9.71875 -13.1875 
L 9.71875 -6.203125 
L 21.390625 -6.203125 
L 21.390625 69 
L 9.71875 69 
L 9.71875 75.984375 
z
" id="DejaVuSans-93"/>
     </defs>
     <g transform="translate(14.798438 150.335781)rotate(-90)scale(0.1 -0.1)">
      <use xlink:href="#DejaVuSans-112"/>
      <use x="63.476562" xlink:href="#DejaVuSans-114"/>
      <use x="104.558594" xlink:href="#DejaVuSans-101"/>
      <use x="166.082031" xlink:href="#DejaVuSans-99"/>
      <use x="221.0625" xlink:href="#DejaVuSans-105"/>
      <use x="248.845703" xlink:href="#DejaVuSans-112"/>
      <use x="312.322266" xlink:href="#DejaVuSans-105"/>
      <use x="340.105469" xlink:href="#DejaVuSans-116"/>
      <use x="379.314453" xlink:href="#DejaVuSans-97"/>
      <use x="440.59375" xlink:href="#DejaVuSans-116"/>
      <use x="479.802734" xlink:href="#DejaVuSans-105"/>
      <use x="507.585938" xlink:href="#DejaVuSans-111"/>
      <use x="568.767578" xlink:href="#DejaVuSans-110"/>
      <use x="632.146484" xlink:href="#DejaVuSans-32"/>
      <use x="663.933594" xlink:href="#DejaVuSans-91"/>
      <use x="702.947266" xlink:href="#DejaVuSans-109"/>
      <use x="800.359375" xlink:href="#DejaVuSans-109"/>
      <use x="897.771484" xlink:href="#DejaVuSans-47"/>
      <use x="931.462891" xlink:href="#DejaVuSans-104"/>
      <use x="994.841797" xlink:href="#DejaVuSans-111"/>
      <use x="1056.023438" xlink:href="#DejaVuSans-117"/>
      <use x="1119.402344" xlink:href="#DejaVuSans-114"/>
      <use x="1160.515625" xlink:href="#DejaVuSans-93"/>
     </g>
    </g>
   </g>
   <g id="line2d_13">
    <path clip-path="url(#p813fbea300)" d="M 51.99517 140.24282 
L 67.433906 149.522415 
L 82.872641 163.615682 
L 98.311376 163.096165 
L 113.750111 163.095415 
L 129.188846 161.281321 
L 144.627582 161.409396 
L 160.066317 164.283413 
L 175.505052 164.527564 
L 190.943787 162.928998 
L 206.382522 156.955625 
L 221.821257 157.55246 
L 237.259993 153.717091 
L 252.698728 146.365759 
L 268.137463 127.010967 
L 283.576198 131.830885 
L 299.014933 149.415903 
L 314.453668 161.874446 
L 329.892404 163.04359 
L 345.331139 160.506481 
L 360.769874 163.977654 
L 376.208609 165.233319 
L 391.647344 165.550963 
L 407.08608 165.893204 
" style="fill:none;stroke:#1b9e77;stroke-linecap:square;stroke-opacity:0.5;stroke-width:1.5;"/>
   </g>
   <g id="line2d_14">
    <path clip-path="url(#p813fbea300)" d="M 51.99517 165.738749 
L 67.433906 162.334953 
L 82.872641 154.076008 
L 98.311376 143.898425 
L 113.750111 162.626977 
L 129.188846 165.368101 
L 144.627582 164.564823 
L 160.066317 163.824254 
L 175.505052 165.67368 
L 190.943787 165.867486 
L 206.382522 165.828947 
L 221.821257 165.508269 
L 237.259993 165.812484 
L 252.698728 165.895746 
L 268.137463 165.929556 
L 283.576198 164.30488 
L 299.014933 156.277133 
L 314.453668 154.381841 
L 329.892404 120.969336 
L 345.331139 139.566188 
L 360.769874 150.101622 
L 376.208609 152.774104 
L 391.647344 127.130563 
L 407.08608 154.477415 
" style="fill:none;stroke:#1b9e77;stroke-linecap:square;stroke-opacity:0.5;stroke-width:1.5;"/>
   </g>
   <g id="line2d_15">
    <path clip-path="url(#p813fbea300)" d="M 51.99517 149.068898 
L 67.433906 112.137744 
L 82.872641 150.023936 
L 98.311376 162.801182 
L 113.750111 164.872286 
L 129.188846 164.962983 
L 144.627582 164.296277 
L 160.066317 160.7364 
L 175.505052 159.325325 
L 190.943787 161.320942 
L 206.382522 161.327286 
L 221.821257 161.17124 
L 237.259993 157.012159 
L 252.698728 148.715797 
L 268.137463 137.688503 
L 283.576198 147.182176 
L 299.014933 157.305071 
L 314.453668 163.303231 
L 329.892404 164.281051 
L 345.331139 160.034926 
L 360.769874 158.717884 
L 376.208609 164.989269 
L 391.647344 165.731433 
L 407.08608 165.925538 
" style="fill:none;stroke:#1b9e77;stroke-linecap:square;stroke-opacity:0.5;stroke-width:1.5;"/>
   </g>
   <g id="line2d_16">
    <path clip-path="url(#p813fbea300)" d="M 51.99517 165.005283 
L 67.433906 160.935574 
L 82.872641 161.01219 
L 98.311376 145.834433 
L 113.750111 110.690076 
L 129.188846 111.255104 
L 144.627582 151.252778 
L 160.066317 157.939589 
L 175.505052 164.747896 
L 190.943787 165.21538 
L 206.382522 165.611357 
L 221.821257 165.6865 
L 237.259993 165.798579 
L 252.698728 165.809805 
L 268.137463 165.689025 
L 283.576198 165.758725 
L 299.014933 164.201335 
L 314.453668 165.380347 
L 329.892404 164.467012 
L 345.331139 158.821503 
L 360.769874 153.336412 
L 376.208609 159.803051 
L 391.647344 153.926826 
L 407.08608 154.752762 
" style="fill:none;stroke:#1b9e77;stroke-linecap:square;stroke-opacity:0.5;stroke-width:1.5;"/>
   </g>
   <g id="line2d_17">
    <path clip-path="url(#p813fbea300)" d="M 51.99517 154.506181 
L 67.433906 138.141902 
L 82.872641 159.34175 
L 98.311376 162.542754 
L 113.750111 163.867811 
L 129.188846 163.957628 
L 144.627582 164.385294 
L 160.066317 164.579951 
L 175.505052 164.913643 
L 190.943787 164.961414 
L 206.382522 165.152786 
L 221.821257 165.278762 
L 237.259993 165.481654 
L 252.698728 165.551708 
L 268.137463 165.47592 
L 283.576198 165.188146 
L 299.014933 165.005155 
L 314.453668 165.774678 
L 329.892404 163.504367 
L 345.331139 133.598252 
L 360.769874 146.505096 
L 376.208609 159.150648 
L 391.647344 103.717847 
L 407.08608 132.34819 
" style="fill:none;stroke:#1b9e77;stroke-linecap:square;stroke-opacity:0.5;stroke-width:1.5;"/>
   </g>
   <g id="line2d_18">
    <path clip-path="url(#p813fbea300)" d="M 51.99517 165.72267 
L 67.433906 165.232614 
L 82.872641 165.163596 
L 98.311376 165.428713 
L 113.750111 164.939145 
L 129.188846 163.366471 
L 144.627582 149.518141 
L 160.066317 151.090061 
L 175.505052 99.283361 
L 190.943787 128.831446 
L 206.382522 145.163954 
L 221.821257 142.95655 
L 237.259993 152.527977 
L 252.698728 163.458674 
L 268.137463 165.460668 
L 283.576198 165.543022 
L 299.014933 165.607567 
L 314.453668 165.641757 
L 329.892404 165.707167 
L 345.331139 165.698351 
L 360.769874 165.627881 
L 376.208609 165.780808 
L 391.647344 165.601892 
L 407.08608 149.579058 
" style="fill:none;stroke:#1b9e77;stroke-linecap:square;stroke-opacity:0.5;stroke-width:1.5;"/>
   </g>
   <g id="line2d_19">
    <path clip-path="url(#p813fbea300)" d="M 51.99517 165.209306 
L 67.433906 165.005615 
L 82.872641 165.514741 
L 98.311376 165.580425 
L 113.750111 165.715862 
L 129.188846 165.784859 
L 144.627582 165.825624 
L 160.066317 165.824778 
L 175.505052 165.845972 
L 190.943787 165.896081 
L 206.382522 165.853168 
L 221.821257 165.798348 
L 237.259993 165.193137 
L 252.698728 164.91261 
L 268.137463 163.736518 
L 283.576198 161.94725 
L 299.014933 163.354578 
L 314.453668 161.125382 
L 329.892404 145.562681 
L 345.331139 131.422693 
L 360.769874 147.653753 
L 376.208609 135.260632 
L 391.647344 75.129909 
L 407.08608 159.77761 
" style="fill:none;stroke:#1b9e77;stroke-linecap:square;stroke-opacity:0.5;stroke-width:1.5;"/>
   </g>
   <g id="line2d_20">
    <path clip-path="url(#p813fbea300)" d="M 51.99517 164.539643 
L 67.433906 163.35224 
L 82.872641 161.250502 
L 98.311376 159.592914 
L 113.750111 159.052789 
L 129.188846 163.134451 
L 144.627582 163.071808 
L 160.066317 163.163127 
L 175.505052 160.607326 
L 190.943787 159.302765 
L 206.382522 160.486412 
L 221.821257 148.929704 
L 237.259993 144.284111 
L 252.698728 138.705586 
L 268.137463 132.027637 
L 283.576198 120.84544 
L 299.014933 143.948379 
L 314.453668 162.94476 
L 329.892404 165.471342 
L 345.331139 165.365037 
L 360.769874 165.470663 
L 376.208609 165.643088 
L 391.647344 165.80193 
L 407.08608 165.939884 
" style="fill:none;stroke:#1b9e77;stroke-linecap:square;stroke-opacity:0.5;stroke-width:1.5;"/>
   </g>
   <g id="line2d_21">
    <path clip-path="url(#p813fbea300)" d="M 51.99517 164.922425 
L 67.433906 163.729489 
L 82.872641 163.235012 
L 98.311376 161.546564 
L 113.750111 156.218482 
L 129.188846 155.004756 
L 144.627582 160.485857 
L 160.066317 162.680864 
L 175.505052 149.717245 
L 190.943787 152.354253 
L 206.382522 149.357067 
L 221.821257 153.167269 
L 237.259993 159.121608 
L 252.698728 128.319571 
L 268.137463 145.8946 
L 283.576198 151.049133 
L 299.014933 160.066203 
L 314.453668 153.845939 
L 329.892404 165.357613 
L 345.331139 165.817159 
L 360.769874 165.823083 
L 376.208609 164.937209 
L 391.647344 157.673735 
L 407.08608 152.6064 
" style="fill:none;stroke:#1b9e77;stroke-linecap:square;stroke-opacity:0.5;stroke-width:1.5;"/>
   </g>
   <g id="line2d_22">
    <path clip-path="url(#p813fbea300)" d="M 51.99517 165.621316 
L 67.433906 165.563074 
L 82.872641 165.78802 
L 98.311376 165.842088 
L 113.750111 165.837158 
L 129.188846 164.578984 
L 144.627582 160.719604 
L 160.066317 155.553638 
L 175.505052 158.862898 
L 190.943787 159.148318 
L 206.382522 152.483983 
L 221.821257 52.233053 
L 237.259993 136.514153 
L 252.698728 154.428709 
L 268.137463 163.423446 
L 283.576198 163.583024 
L 299.014933 164.638137 
L 314.453668 165.100602 
L 329.892404 165.467267 
L 345.331139 165.427884 
L 360.769874 165.390907 
L 376.208609 165.487289 
L 391.647344 162.79737 
L 407.08608 158.440611 
" style="fill:none;stroke:#1b9e77;stroke-linecap:square;stroke-opacity:0.5;stroke-width:1.5;"/>
   </g>
   <g id="line2d_23">
    <path clip-path="url(#p813fbea300)" d="M 51.99517 165.95677 
L 67.433906 165.836936 
L 82.872641 165.652781 
L 98.311376 164.620509 
L 113.750111 136.920753 
L 129.188846 160.84211 
L 144.627582 157.179084 
L 160.066317 162.002978 
L 175.505052 160.354517 
L 190.943787 148.342022 
L 206.382522 151.078361 
L 221.821257 141.671796 
L 237.259993 164.145976 
L 252.698728 161.972775 
L 268.137463 160.66613 
L 283.576198 165.665787 
L 299.014933 165.686972 
L 314.453668 155.279668 
L 329.892404 130.127629 
L 345.331139 159.788256 
L 360.769874 161.067969 
L 376.208609 159.615091 
L 391.647344 150.562219 
L 407.08608 147.894444 
" style="fill:none;stroke:#1b9e77;stroke-linecap:square;stroke-opacity:0.5;stroke-width:1.5;"/>
   </g>
   <g id="line2d_24">
    <path clip-path="url(#p813fbea300)" d="M 51.99517 147.54906 
L 67.433906 161.364688 
L 82.872641 165.604244 
L 98.311376 164.836808 
L 113.750111 165.561966 
L 129.188846 164.51813 
L 144.627582 145.702295 
L 160.066317 160.811713 
L 175.505052 159.616079 
L 190.943787 154.4561 
L 206.382522 154.741407 
L 221.821257 147.873029 
L 237.259993 90.734058 
L 252.698728 136.082976 
L 268.137463 158.101377 
L 283.576198 158.376723 
L 299.014933 165.652706 
L 314.453668 165.864184 
L 329.892404 165.886003 
L 345.331139 165.896139 
L 360.769874 165.905494 
L 376.208609 165.911866 
L 391.647344 165.926542 
L 407.08608 165.95794 
" style="fill:none;stroke:#1b9e77;stroke-linecap:square;stroke-opacity:0.5;stroke-width:1.5;"/>
   </g>
   <g id="line2d_25">
    <path clip-path="url(#p813fbea300)" d="M 51.99517 164.447664 
L 67.433906 163.718319 
L 82.872641 165.18582 
L 98.311376 164.826693 
L 113.750111 159.29804 
L 129.188846 159.640628 
L 144.627582 138.77185 
L 160.066317 126.861861 
L 175.505052 126.056203 
L 190.943787 115.044487 
L 206.382522 143.913319 
L 221.821257 153.98467 
L 237.259993 161.013007 
L 252.698728 163.71712 
L 268.137463 165.264937 
L 283.576198 165.425386 
L 299.014933 165.61707 
L 314.453668 165.610773 
L 329.892404 165.663483 
L 345.331139 165.70458 
L 360.769874 165.752824 
L 376.208609 165.810871 
L 391.647344 165.765229 
L 407.08608 165.836708 
" style="fill:none;stroke:#1b9e77;stroke-linecap:square;stroke-opacity:0.5;stroke-width:1.5;"/>
   </g>
   <g id="line2d_26">
    <path clip-path="url(#p813fbea300)" d="M 51.99517 150.549129 
L 67.433906 153.930928 
L 82.872641 155.968442 
L 98.311376 150.617565 
L 113.750111 152.048472 
L 129.188846 161.120609 
L 144.627582 162.231513 
L 160.066317 154.471902 
L 175.505052 135.851187 
L 190.943787 150.527086 
L 206.382522 159.334928 
L 221.821257 159.307683 
L 237.259993 155.214907 
L 252.698728 143.00641 
L 268.137463 132.825221 
L 283.576198 161.203367 
L 299.014933 165.031951 
L 314.453668 165.511153 
L 329.892404 164.756389 
L 345.331139 165.661845 
L 360.769874 165.927587 
L 376.208609 165.934323 
L 391.647344 165.94438 
L 407.08608 165.954558 
" style="fill:none;stroke:#1b9e77;stroke-linecap:square;stroke-opacity:0.5;stroke-width:1.5;"/>
   </g>
   <g id="line2d_27">
    <path clip-path="url(#p813fbea300)" d="M 51.99517 162.13917 
L 67.433906 163.874555 
L 82.872641 165.372936 
L 98.311376 165.497615 
L 113.750111 165.584977 
L 129.188846 165.411788 
L 144.627582 165.091474 
L 160.066317 165.394939 
L 175.505052 165.163178 
L 190.943787 164.639171 
L 206.382522 146.972273 
L 221.821257 112.390126 
L 237.259993 136.657067 
L 252.698728 160.850685 
L 268.137463 165.486794 
L 283.576198 165.54437 
L 299.014933 165.569542 
L 314.453668 165.291855 
L 329.892404 159.260261 
L 345.331139 165.68778 
L 360.769874 162.498558 
L 376.208609 121.737292 
L 391.647344 134.245844 
L 407.08608 152.569288 
" style="fill:none;stroke:#1b9e77;stroke-linecap:square;stroke-opacity:0.5;stroke-width:1.5;"/>
   </g>
   <g id="line2d_28">
    <path clip-path="url(#p813fbea300)" d="M 51.99517 157.743074 
L 67.433906 161.912578 
L 82.872641 163.943655 
L 98.311376 161.55928 
L 113.750111 159.065972 
L 129.188846 162.707079 
L 144.627582 164.384164 
L 160.066317 165.240524 
L 175.505052 165.14524 
L 190.943787 165.168179 
L 206.382522 141.690564 
L 221.821257 128.023379 
L 237.259993 128.540677 
L 252.698728 149.290705 
L 268.137463 160.929369 
L 283.576198 132.473775 
L 299.014933 157.811383 
L 314.453668 163.296492 
L 329.892404 165.361638 
L 345.331139 165.488592 
L 360.769874 165.233802 
L 376.208609 161.443654 
L 391.647344 158.438265 
L 407.08608 158.039499 
" style="fill:none;stroke:#1b9e77;stroke-linecap:square;stroke-opacity:0.5;stroke-width:1.5;"/>
   </g>
   <g id="line2d_29">
    <path clip-path="url(#p813fbea300)" d="M 51.99517 163.628638 
L 67.433906 165.600754 
L 82.872641 165.797835 
L 98.311376 165.837685 
L 113.750111 165.897124 
L 129.188846 165.938175 
L 144.627582 165.753585 
L 160.066317 164.296027 
L 175.505052 164.568863 
L 190.943787 164.368634 
L 206.382522 163.333453 
L 221.821257 161.919233 
L 237.259993 162.998451 
L 252.698728 162.194669 
L 268.137463 153.772764 
L 283.576198 147.26084 
L 299.014933 147.390801 
L 314.453668 129.772383 
L 329.892404 118.31036 
L 345.331139 140.367897 
L 360.769874 150.432514 
L 376.208609 145.617775 
L 391.647344 161.961092 
L 407.08608 165.911979 
" style="fill:none;stroke:#1b9e77;stroke-linecap:square;stroke-opacity:0.5;stroke-width:1.5;"/>
   </g>
   <g id="line2d_30">
    <path clip-path="url(#p813fbea300)" d="M 51.99517 165.122965 
L 67.433906 165.713634 
L 82.872641 165.700435 
L 98.311376 165.870518 
L 113.750111 165.801652 
L 129.188846 165.591055 
L 144.627582 165.041711 
L 160.066317 163.981592 
L 175.505052 161.888613 
L 190.943787 163.213754 
L 206.382522 160.722885 
L 221.821257 161.61463 
L 237.259993 164.035606 
L 252.698728 161.935547 
L 268.137463 152.48488 
L 283.576198 159.014203 
L 299.014933 160.871956 
L 314.453668 146.157546 
L 329.892404 127.887057 
L 345.331139 142.072633 
L 360.769874 149.475044 
L 376.208609 139.963115 
L 391.647344 131.790053 
L 407.08608 156.980456 
" style="fill:none;stroke:#1b9e77;stroke-linecap:square;stroke-opacity:0.5;stroke-width:1.5;"/>
   </g>
   <g id="line2d_31">
    <path clip-path="url(#p813fbea300)" d="M 51.99517 165.534716 
L 67.433906 165.529911 
L 82.872641 165.691158 
L 98.311376 165.70848 
L 113.750111 165.754413 
L 129.188846 165.886017 
L 144.627582 165.862054 
L 160.066317 163.433022 
L 175.505052 155.579414 
L 190.943787 163.538468 
L 206.382522 162.77986 
L 221.821257 162.251506 
L 237.259993 164.462914 
L 252.698728 164.899807 
L 268.137463 155.619949 
L 283.576198 104.442858 
L 299.014933 134.825014 
L 314.453668 117.41352 
L 329.892404 136.901364 
L 345.331139 155.518598 
L 360.769874 164.435429 
L 376.208609 165.266506 
L 391.647344 165.683048 
L 407.08608 165.913512 
" style="fill:none;stroke:#1b9e77;stroke-linecap:square;stroke-opacity:0.5;stroke-width:1.5;"/>
   </g>
   <g id="line2d_32">
    <path clip-path="url(#p813fbea300)" d="M 51.99517 156.494199 
L 67.433906 157.354991 
L 82.872641 155.56775 
L 98.311376 151.681236 
L 113.750111 149.244576 
L 129.188846 138.815825 
L 144.627582 140.270541 
L 160.066317 130.126854 
L 175.505052 142.265595 
L 190.943787 146.309905 
L 206.382522 161.83247 
L 221.821257 162.700972 
L 237.259993 163.592047 
L 252.698728 163.245428 
L 268.137463 163.241788 
L 283.576198 163.793555 
L 299.014933 164.547521 
L 314.453668 165.304199 
L 329.892404 165.538215 
L 345.331139 165.3519 
L 360.769874 165.090685 
L 376.208609 161.954692 
L 391.647344 163.511596 
L 407.08608 165.094993 
" style="fill:none;stroke:#1b9e77;stroke-linecap:square;stroke-opacity:0.5;stroke-width:1.5;"/>
   </g>
   <g id="line2d_33">
    <path clip-path="url(#p813fbea300)" d="M 51.99517 150.896849 
L 67.433906 157.750104 
L 82.872641 165.910905 
L 98.311376 158.79349 
L 113.750111 165.183068 
L 129.188846 154.622303 
L 144.627582 135.648937 
L 160.066317 165.720258 
L 175.505052 165.846249 
L 190.943787 160.053822 
L 206.382522 128.966322 
L 221.821257 146.748244 
L 237.259993 165.546505 
L 252.698728 165.365329 
L 268.137463 164.027059 
L 283.576198 156.316262 
L 299.014933 156.383914 
L 314.453668 163.867882 
L 329.892404 164.289184 
L 345.331139 161.698372 
L 360.769874 143.392748 
L 376.208609 152.265971 
L 391.647344 153.057136 
L 407.08608 160.58063 
" style="fill:none;stroke:#1b9e77;stroke-linecap:square;stroke-opacity:0.5;stroke-width:1.5;"/>
   </g>
   <g id="line2d_34">
    <path clip-path="url(#p813fbea300)" d="M 51.99517 165.95422 
L 67.433906 165.918062 
L 82.872641 165.924638 
L 98.311376 165.920638 
L 113.750111 165.919238 
L 129.188846 165.934321 
L 144.627582 165.944306 
L 160.066317 165.958963 
L 175.505052 165.576532 
L 190.943787 162.493634 
L 206.382522 164.356449 
L 221.821257 163.79743 
L 237.259993 163.5372 
L 252.698728 164.049682 
L 268.137463 164.106529 
L 283.576198 163.102536 
L 299.014933 162.46339 
L 314.453668 161.41336 
L 329.892404 159.356987 
L 345.331139 159.620983 
L 360.769874 161.744932 
L 376.208609 162.517626 
L 391.647344 142.559877 
L 407.08608 14.76 
" style="fill:none;stroke:#1b9e77;stroke-linecap:square;stroke-opacity:0.5;stroke-width:1.5;"/>
   </g>
   <g id="line2d_35">
    <path clip-path="url(#p813fbea300)" d="M 51.99517 165.678623 
L 67.433906 164.957586 
L 82.872641 164.316086 
L 98.311376 162.648295 
L 113.750111 140.33012 
L 129.188846 132.673468 
L 144.627582 160.062543 
L 160.066317 163.822166 
L 175.505052 127.001396 
L 190.943787 140.438733 
L 206.382522 146.192582 
L 221.821257 155.699529 
L 237.259993 164.323347 
L 252.698728 164.374271 
L 268.137463 160.448549 
L 283.576198 158.63821 
L 299.014933 163.506191 
L 314.453668 161.020124 
L 329.892404 149.406192 
L 345.331139 156.391631 
L 360.769874 164.245767 
L 376.208609 165.137901 
L 391.647344 165.687609 
L 407.08608 165.930613 
" style="fill:none;stroke:#1b9e77;stroke-linecap:square;stroke-opacity:0.5;stroke-width:1.5;"/>
   </g>
   <g id="line2d_36">
    <path clip-path="url(#p813fbea300)" d="M 51.99517 164.792691 
L 67.433906 161.875272 
L 82.872641 160.656823 
L 98.311376 135.425716 
L 113.750111 135.73742 
L 129.188846 137.966077 
L 144.627582 154.05362 
L 160.066317 156.002548 
L 175.505052 162.075232 
L 190.943787 165.10293 
L 206.382522 164.341292 
L 221.821257 155.111858 
L 237.259993 134.409819 
L 252.698728 160.068085 
L 268.137463 163.433739 
L 283.576198 163.410586 
L 299.014933 164.240042 
L 314.453668 163.666956 
L 329.892404 161.858287 
L 345.331139 160.450812 
L 360.769874 159.97927 
L 376.208609 157.937791 
L 391.647344 156.500973 
L 407.08608 163.833694 
" style="fill:none;stroke:#1b9e77;stroke-linecap:square;stroke-opacity:0.5;stroke-width:1.5;"/>
   </g>
   <g id="line2d_37">
    <path clip-path="url(#p813fbea300)" d="M 51.99517 164.626184 
L 67.433906 159.598204 
L 82.872641 159.415649 
L 98.311376 151.865475 
L 113.750111 141.28181 
L 129.188846 142.536472 
L 144.627582 137.504393 
L 160.066317 143.172598 
L 175.505052 143.858413 
L 190.943787 144.289316 
L 206.382522 142.995251 
L 221.821257 152.212835 
L 237.259993 164.137158 
L 252.698728 165.593953 
L 268.137463 165.688451 
L 283.576198 165.70087 
L 299.014933 165.613076 
L 314.453668 165.473578 
L 329.892404 165.489306 
L 345.331139 165.686965 
L 360.769874 165.479559 
L 376.208609 164.052752 
L 391.647344 161.101621 
L 407.08608 165.557646 
" style="fill:none;stroke:#1b9e77;stroke-linecap:square;stroke-opacity:0.5;stroke-width:1.5;"/>
   </g>
   <g id="line2d_38">
    <path clip-path="url(#p813fbea300)" d="M 51.99517 165.932363 
L 67.433906 165.812273 
L 82.872641 165.88455 
L 98.311376 165.888402 
L 113.750111 165.886617 
L 129.188846 165.880606 
L 144.627582 165.868097 
L 160.066317 165.872926 
L 175.505052 165.569424 
L 190.943787 164.653419 
L 206.382522 161.126643 
L 221.821257 162.943159 
L 237.259993 159.255702 
L 252.698728 153.49946 
L 268.137463 156.167684 
L 283.576198 153.240253 
L 299.014933 121.816954 
L 314.453668 132.820381 
L 329.892404 152.325447 
L 345.331139 138.310208 
L 360.769874 143.854497 
L 376.208609 153.608564 
L 391.647344 162.836367 
L 407.08608 153.877542 
" style="fill:none;stroke:#1b9e77;stroke-linecap:square;stroke-opacity:0.5;stroke-width:1.5;"/>
   </g>
   <g id="line2d_39">
    <path clip-path="url(#p813fbea300)" d="M 51.99517 165.523354 
L 67.433906 165.459447 
L 82.872641 165.721587 
L 98.311376 165.732869 
L 113.750111 165.754639 
L 129.188846 165.896041 
L 144.627582 162.344996 
L 160.066317 144.859551 
L 175.505052 148.385169 
L 190.943787 126.031838 
L 206.382522 99.373314 
L 221.821257 119.269695 
L 237.259993 156.563204 
L 252.698728 157.95529 
L 268.137463 164.469208 
L 283.576198 165.197933 
L 299.014933 165.417928 
L 314.453668 165.382625 
L 329.892404 165.440524 
L 345.331139 165.477685 
L 360.769874 165.541518 
L 376.208609 165.617565 
L 391.647344 165.623776 
L 407.08608 165.891782 
" style="fill:none;stroke:#1b9e77;stroke-linecap:square;stroke-opacity:0.5;stroke-width:1.5;"/>
   </g>
   <g id="line2d_40">
    <path clip-path="url(#p813fbea300)" d="M 51.99517 160.061192 
L 67.433906 145.137615 
L 82.872641 145.262946 
L 98.311376 157.287128 
L 113.750111 165.322923 
L 129.188846 165.553633 
L 144.627582 165.508849 
L 160.066317 164.144945 
L 175.505052 164.267444 
L 190.943787 164.712382 
L 206.382522 165.283636 
L 221.821257 165.518772 
L 237.259993 165.365246 
L 252.698728 162.363368 
L 268.137463 156.757275 
L 283.576198 164.369924 
L 299.014933 164.524315 
L 314.453668 164.977202 
L 329.892404 143.318179 
L 345.331139 137.351686 
L 360.769874 128.364153 
L 376.208609 146.282889 
L 391.647344 139.281445 
L 407.08608 161.914394 
" style="fill:none;stroke:#1b9e77;stroke-linecap:square;stroke-opacity:0.5;stroke-width:1.5;"/>
   </g>
   <g id="line2d_41">
    <path clip-path="url(#p813fbea300)" d="M 51.99517 165.147411 
L 67.433906 165.470514 
L 82.872641 165.727568 
L 98.311376 165.6168 
L 113.750111 165.689777 
L 129.188846 165.813375 
L 144.627582 165.853627 
L 160.066317 165.833181 
L 175.505052 165.801171 
L 190.943787 165.708547 
L 206.382522 165.640114 
L 221.821257 165.783014 
L 237.259993 165.502844 
L 252.698728 163.338551 
L 268.137463 161.680551 
L 283.576198 158.585064 
L 299.014933 146.252214 
L 314.453668 115.989782 
L 329.892404 109.323037 
L 345.331139 128.209263 
L 360.769874 142.672945 
L 376.208609 153.344787 
L 391.647344 164.072747 
L 407.08608 165.874653 
" style="fill:none;stroke:#1b9e77;stroke-linecap:square;stroke-opacity:0.5;stroke-width:1.5;"/>
   </g>
   <g id="line2d_42">
    <path clip-path="url(#p813fbea300)" d="M 51.99517 165.619631 
L 67.433906 165.347371 
L 82.872641 165.096719 
L 98.311376 163.007066 
L 113.750111 161.616998 
L 129.188846 165.759263 
L 144.627582 165.871776 
L 160.066317 165.631043 
L 175.505052 151.348533 
L 190.943787 150.88786 
L 206.382522 150.430145 
L 221.821257 143.472627 
L 237.259993 159.105146 
L 252.698728 164.883629 
L 268.137463 158.011375 
L 283.576198 150.458138 
L 299.014933 135.732461 
L 314.453668 153.343707 
L 329.892404 154.591633 
L 345.331139 153.912513 
L 360.769874 157.128543 
L 376.208609 155.101991 
L 391.647344 145.235598 
L 407.08608 161.33777 
" style="fill:none;stroke:#1b9e77;stroke-linecap:square;stroke-opacity:0.5;stroke-width:1.5;"/>
   </g>
   <g id="line2d_43">
    <path clip-path="url(#p813fbea300)" d="M 51.99517 165.483948 
L 67.433906 165.552811 
L 82.872641 165.777095 
L 98.311376 165.788006 
L 113.750111 165.816953 
L 129.188846 165.81615 
L 144.627582 165.742385 
L 160.066317 165.894734 
L 175.505052 165.917577 
L 190.943787 165.734976 
L 206.382522 165.447225 
L 221.821257 164.480942 
L 237.259993 163.466068 
L 252.698728 162.107307 
L 268.137463 160.677969 
L 283.576198 159.341504 
L 299.014933 152.114877 
L 314.453668 109.203079 
L 329.892404 94.379444 
L 345.331139 126.769945 
L 360.769874 150.85914 
L 376.208609 164.826433 
L 391.647344 165.80129 
L 407.08608 165.93168 
" style="fill:none;stroke:#1b9e77;stroke-linecap:square;stroke-opacity:0.5;stroke-width:1.5;"/>
   </g>
   <g id="line2d_44">
    <path clip-path="url(#p813fbea300)" d="M 51.99517 159.653972 
L 67.433906 161.512783 
L 82.872641 164.993922 
L 98.311376 165.063364 
L 113.750111 165.19645 
L 129.188846 164.95342 
L 144.627582 164.838662 
L 160.066317 165.133591 
L 175.505052 165.215902 
L 190.943787 165.047184 
L 206.382522 164.917516 
L 221.821257 165.280679 
L 237.259993 165.378395 
L 252.698728 165.357369 
L 268.137463 163.304854 
L 283.576198 163.532703 
L 299.014933 157.745452 
L 314.453668 155.651991 
L 329.892404 142.031603 
L 345.331139 143.774847 
L 360.769874 147.927075 
L 376.208609 93.524378 
L 391.647344 127.261153 
L 407.08608 165.634271 
" style="fill:none;stroke:#1b9e77;stroke-linecap:square;stroke-opacity:0.5;stroke-width:1.5;"/>
   </g>
   <g id="line2d_45">
    <path clip-path="url(#p813fbea300)" d="M 51.99517 165.755281 
L 67.433906 165.543662 
L 82.872641 165.73829 
L 98.311376 165.692961 
L 113.750111 165.715953 
L 129.188846 165.830975 
L 144.627582 165.877541 
L 160.066317 165.894106 
L 175.505052 165.878495 
L 190.943787 165.94106 
L 206.382522 165.116363 
L 221.821257 164.080412 
L 237.259993 163.305344 
L 252.698728 162.404941 
L 268.137463 159.949755 
L 283.576198 157.134509 
L 299.014933 154.070937 
L 314.453668 139.971818 
L 329.892404 130.685763 
L 345.331139 142.449469 
L 360.769874 84.668454 
L 376.208609 150.497168 
L 391.647344 164.89076 
L 407.08608 165.837519 
" style="fill:none;stroke:#1b9e77;stroke-linecap:square;stroke-opacity:0.5;stroke-width:1.5;"/>
   </g>
   <g id="line2d_46">
    <path clip-path="url(#p813fbea300)" d="M 51.99517 165.600058 
L 67.433906 165.184222 
L 82.872641 165.072679 
L 98.311376 164.240818 
L 113.750111 160.326046 
L 129.188846 156.06964 
L 144.627582 157.133046 
L 160.066317 159.776443 
L 175.505052 159.895492 
L 190.943787 154.417266 
L 206.382522 128.67556 
L 221.821257 119.647488 
L 237.259993 133.788309 
L 252.698728 133.603544 
L 268.137463 151.376469 
L 283.576198 162.825686 
L 299.014933 165.309683 
L 314.453668 165.458165 
L 329.892404 165.651509 
L 345.331139 165.609287 
L 360.769874 165.696308 
L 376.208609 165.810574 
L 391.647344 165.840096 
L 407.08608 165.923151 
" style="fill:none;stroke:#1b9e77;stroke-linecap:square;stroke-opacity:0.5;stroke-width:1.5;"/>
   </g>
   <g id="line2d_47">
    <path clip-path="url(#p813fbea300)" d="M 51.99517 164.972164 
L 67.433906 165.615299 
L 82.872641 165.807741 
L 98.311376 165.863637 
L 113.750111 156.293261 
L 129.188846 122.568178 
L 144.627582 144.48246 
L 160.066317 123.805669 
L 175.505052 130.95324 
L 190.943787 162.70692 
L 206.382522 161.662575 
L 221.821257 159.832922 
L 237.259993 161.965757 
L 252.698728 165.023651 
L 268.137463 165.085232 
L 283.576198 165.657547 
L 299.014933 160.903906 
L 314.453668 161.488554 
L 329.892404 161.698289 
L 345.331139 160.528403 
L 360.769874 159.055156 
L 376.208609 157.884473 
L 391.647344 157.371352 
L 407.08608 161.705146 
" style="fill:none;stroke:#1b9e77;stroke-linecap:square;stroke-opacity:0.5;stroke-width:1.5;"/>
   </g>
   <g id="line2d_48">
    <path clip-path="url(#p813fbea300)" d="M 51.99517 165.427123 
L 67.433906 164.993695 
L 82.872641 164.927412 
L 98.311376 164.498663 
L 113.750111 163.630977 
L 129.188846 163.627395 
L 144.627582 163.856154 
L 160.066317 163.822059 
L 175.505052 158.206892 
L 190.943787 153.03511 
L 206.382522 152.794529 
L 221.821257 146.983119 
L 237.259993 155.070243 
L 252.698728 150.970717 
L 268.137463 152.561147 
L 283.576198 153.398751 
L 299.014933 145.130946 
L 314.453668 154.962527 
L 329.892404 148.557429 
L 345.331139 149.235777 
L 360.769874 156.289289 
L 376.208609 156.81425 
L 391.647344 152.499903 
L 407.08608 161.637429 
" style="fill:none;stroke:#1b9e77;stroke-linecap:square;stroke-opacity:0.5;stroke-width:1.5;"/>
   </g>
   <g id="line2d_49">
    <path clip-path="url(#p813fbea300)" d="M 51.99517 147.569769 
L 67.433906 156.99636 
L 82.872641 163.949224 
L 98.311376 165.904253 
L 113.750111 164.883152 
L 129.188846 161.32109 
L 144.627582 160.960459 
L 160.066317 157.11673 
L 175.505052 149.934919 
L 190.943787 144.324818 
L 206.382522 158.99128 
L 221.821257 156.902286 
L 237.259993 62.291287 
L 252.698728 156.25029 
L 268.137463 164.901973 
L 283.576198 164.894332 
L 299.014933 165.339192 
L 314.453668 165.517205 
L 329.892404 165.689981 
L 345.331139 165.704545 
L 360.769874 165.767517 
L 376.208609 165.869876 
L 391.647344 165.903874 
L 407.08608 165.947132 
" style="fill:none;stroke:#1b9e77;stroke-linecap:square;stroke-opacity:0.5;stroke-width:1.5;"/>
   </g>
   <g id="line2d_50">
    <path clip-path="url(#p813fbea300)" d="M 51.99517 165.63685 
L 67.433906 163.434335 
L 82.872641 164.335102 
L 98.311376 165.700907 
L 113.750111 165.748056 
L 129.188846 165.740653 
L 144.627582 157.772984 
L 160.066317 135.429349 
L 175.505052 134.060793 
L 190.943787 148.583301 
L 206.382522 146.190733 
L 221.821257 140.215028 
L 237.259993 145.293043 
L 252.698728 138.095922 
L 268.137463 138.99201 
L 283.576198 161.403398 
L 299.014933 165.348495 
L 314.453668 165.634307 
L 329.892404 165.802769 
L 345.331139 165.793939 
L 360.769874 165.89358 
L 376.208609 165.926514 
L 391.647344 165.942451 
L 407.08608 165.957019 
" style="fill:none;stroke:#1b9e77;stroke-linecap:square;stroke-opacity:0.5;stroke-width:1.5;"/>
   </g>
   <g id="line2d_51">
    <path clip-path="url(#p813fbea300)" d="M 51.99517 99.947493 
L 67.433906 149.296611 
L 82.872641 163.337958 
L 98.311376 162.17533 
L 113.750111 162.210961 
L 129.188846 161.37965 
L 144.627582 158.579144 
L 160.066317 157.15232 
L 175.505052 154.220131 
L 190.943787 151.594053 
L 206.382522 152.795426 
L 221.821257 107.777406 
L 237.259993 163.039255 
L 252.698728 165.106587 
L 268.137463 165.674972 
L 283.576198 165.682987 
L 299.014933 165.747638 
L 314.453668 165.779142 
L 329.892404 165.821602 
L 345.331139 165.847492 
L 360.769874 165.874072 
L 376.208609 165.937024 
L 391.647344 165.954148 
L 407.08608 162.000125 
" style="fill:none;stroke:#1b9e77;stroke-linecap:square;stroke-opacity:0.5;stroke-width:1.5;"/>
   </g>
   <g id="line2d_52">
    <path clip-path="url(#p813fbea300)" d="M 51.99517 155.575094 
L 67.433906 130.72518 
L 82.872641 143.37586 
L 98.311376 148.93564 
L 113.750111 150.582503 
L 129.188846 147.561957 
L 144.627582 137.03123 
L 160.066317 130.261436 
L 175.505052 151.259809 
L 190.943787 162.088564 
L 206.382522 163.678407 
L 221.821257 159.216659 
L 237.259993 159.041405 
L 252.698728 165.018045 
L 268.137463 165.698243 
L 283.576198 165.70028 
L 299.014933 165.782924 
L 314.453668 165.838867 
L 329.892404 165.894847 
L 345.331139 165.908622 
L 360.769874 165.927029 
L 376.208609 165.932312 
L 391.647344 165.938094 
L 407.08608 165.958532 
" style="fill:none;stroke:#1b9e77;stroke-linecap:square;stroke-opacity:0.5;stroke-width:1.5;"/>
   </g>
   <g id="line2d_53">
    <path clip-path="url(#p813fbea300)" d="M 51.99517 163.152141 
L 67.433906 164.118721 
L 82.872641 165.391874 
L 98.311376 163.983324 
L 113.750111 159.093822 
L 129.188846 158.601684 
L 144.627582 158.638557 
L 160.066317 165.787465 
L 175.505052 165.235238 
L 190.943787 162.08002 
L 206.382522 163.721726 
L 221.821257 142.489264 
L 237.259993 142.628499 
L 252.698728 149.134219 
L 268.137463 153.080126 
L 283.576198 138.528843 
L 299.014933 152.944415 
L 314.453668 163.228824 
L 329.892404 165.193544 
L 345.331139 165.298114 
L 360.769874 163.124063 
L 376.208609 151.577569 
L 391.647344 132.600402 
L 407.08608 153.299082 
" style="fill:none;stroke:#1b9e77;stroke-linecap:square;stroke-opacity:0.5;stroke-width:1.5;"/>
   </g>
   <g id="line2d_54">
    <path clip-path="url(#p813fbea300)" d="M 51.99517 165.732079 
L 67.433906 165.356201 
L 82.872641 165.453356 
L 98.311376 165.63632 
L 113.750111 164.810948 
L 129.188846 144.957887 
L 144.627582 116.976134 
L 160.066317 134.415818 
L 175.505052 132.772293 
L 190.943787 130.567942 
L 206.382522 144.717008 
L 221.821257 156.177062 
L 237.259993 162.118088 
L 252.698728 163.357851 
L 268.137463 163.143906 
L 283.576198 164.311962 
L 299.014933 165.659485 
L 314.453668 165.873669 
L 329.892404 165.838 
L 345.331139 164.081772 
L 360.769874 163.122255 
L 376.208609 165.940491 
L 391.647344 165.951079 
L 407.08608 165.959934 
" style="fill:none;stroke:#1b9e77;stroke-linecap:square;stroke-opacity:0.5;stroke-width:1.5;"/>
   </g>
   <g id="line2d_55">
    <path clip-path="url(#p813fbea300)" d="M 51.99517 161.829214 
L 67.433906 151.938129 
L 82.872641 145.383817 
L 98.311376 139.345465 
L 113.750111 141.700734 
L 129.188846 142.150065 
L 144.627582 135.248055 
L 160.066317 141.482992 
L 175.505052 151.468023 
L 190.943787 149.318524 
L 206.382522 156.403644 
L 221.821257 161.839135 
L 237.259993 164.655418 
L 252.698728 164.947766 
L 268.137463 165.260443 
L 283.576198 165.354491 
L 299.014933 165.545869 
L 314.453668 165.674307 
L 329.892404 165.780375 
L 345.331139 165.744604 
L 360.769874 165.752726 
L 376.208609 165.830887 
L 391.647344 165.764179 
L 407.08608 164.512675 
" style="fill:none;stroke:#1b9e77;stroke-linecap:square;stroke-opacity:0.5;stroke-width:1.5;"/>
   </g>
   <g id="line2d_56">
    <path clip-path="url(#p813fbea300)" d="M 51.99517 165.917276 
L 67.433906 165.778045 
L 82.872641 165.82977 
L 98.311376 164.532061 
L 113.750111 164.213624 
L 129.188846 161.436554 
L 144.627582 151.397106 
L 160.066317 156.736344 
L 175.505052 158.761465 
L 190.943787 150.923016 
L 206.382522 85.162336 
L 221.821257 84.927607 
L 237.259993 163.311171 
L 252.698728 165.3252 
L 268.137463 165.736692 
L 283.576198 165.76438 
L 299.014933 165.837349 
L 314.453668 165.855183 
L 329.892404 165.876623 
L 345.331139 165.884927 
L 360.769874 165.903287 
L 376.208609 165.924421 
L 391.647344 165.938419 
L 407.08608 165.95868 
" style="fill:none;stroke:#1b9e77;stroke-linecap:square;stroke-opacity:0.5;stroke-width:1.5;"/>
   </g>
   <g id="line2d_57">
    <path clip-path="url(#p813fbea300)" d="M 51.99517 162.753855 
L 67.433906 157.57211 
L 82.872641 154.322261 
L 98.311376 149.626442 
L 113.750111 149.401941 
L 129.188846 158.853189 
L 144.627582 165.158909 
L 160.066317 165.311472 
L 175.505052 165.466184 
L 190.943787 165.522322 
L 206.382522 165.383151 
L 221.821257 165.744915 
L 237.259993 162.877154 
L 252.698728 158.34819 
L 268.137463 163.32555 
L 283.576198 160.464575 
L 299.014933 151.918342 
L 314.453668 129.717988 
L 329.892404 131.773367 
L 345.331139 155.513773 
L 360.769874 129.897558 
L 376.208609 162.308089 
L 391.647344 165.737337 
L 407.08608 165.932859 
" style="fill:none;stroke:#1b9e77;stroke-linecap:square;stroke-opacity:0.5;stroke-width:1.5;"/>
   </g>
   <g id="line2d_58">
    <path clip-path="url(#p813fbea300)" d="M 51.99517 165.354262 
L 67.433906 161.4478 
L 82.872641 142.195103 
L 98.311376 114.982557 
L 113.750111 134.961465 
L 129.188846 140.31018 
L 144.627582 139.552396 
L 160.066317 127.98201 
L 175.505052 155.793197 
L 190.943787 164.442669 
L 206.382522 165.329868 
L 221.821257 164.383131 
L 237.259993 165.327809 
L 252.698728 165.793732 
L 268.137463 165.898995 
L 283.576198 165.896959 
L 299.014933 165.914994 
L 314.453668 165.928668 
L 329.892404 165.936959 
L 345.331139 165.949991 
L 360.769874 165.917439 
L 376.208609 164.257715 
L 391.647344 164.139516 
L 407.08608 165.23413 
" style="fill:none;stroke:#1b9e77;stroke-linecap:square;stroke-opacity:0.5;stroke-width:1.5;"/>
   </g>
   <g id="line2d_59">
    <path clip-path="url(#p813fbea300)" d="M 51.99517 159.672669 
L 67.433906 147.141858 
L 82.872641 149.30161 
L 98.311376 150.656286 
L 113.750111 149.994356 
L 129.188846 159.771612 
L 144.627582 143.031412 
L 160.066317 110.921803 
L 175.505052 140.211612 
L 190.943787 158.937047 
L 206.382522 164.80348 
L 221.821257 164.981906 
L 237.259993 165.171795 
L 252.698728 165.240504 
L 268.137463 165.538743 
L 283.576198 165.582856 
L 299.014933 165.567241 
L 314.453668 165.57599 
L 329.892404 165.654983 
L 345.331139 165.71639 
L 360.769874 165.699422 
L 376.208609 165.689369 
L 391.647344 159.118207 
L 407.08608 148.950385 
" style="fill:none;stroke:#1b9e77;stroke-linecap:square;stroke-opacity:0.5;stroke-width:1.5;"/>
   </g>
   <g id="line2d_60">
    <path clip-path="url(#p813fbea300)" d="M 51.99517 161.400193 
L 67.433906 155.92391 
L 82.872641 139.996933 
L 98.311376 156.071868 
L 113.750111 161.424817 
L 129.188846 160.977967 
L 144.627582 162.352111 
L 160.066317 157.42141 
L 175.505052 100.36389 
L 190.943787 152.834998 
L 206.382522 159.313029 
L 221.821257 158.229812 
L 237.259993 160.664605 
L 252.698728 165.764612 
L 268.137463 165.872669 
L 283.576198 165.903693 
L 299.014933 163.580262 
L 314.453668 159.116852 
L 329.892404 142.362926 
L 345.331139 163.329993 
L 360.769874 163.182772 
L 376.208609 162.047841 
L 391.647344 161.711439 
L 407.08608 163.08294 
" style="fill:none;stroke:#1b9e77;stroke-linecap:square;stroke-opacity:0.5;stroke-width:1.5;"/>
   </g>
   <g id="line2d_61">
    <path clip-path="url(#p813fbea300)" d="M 51.99517 149.999127 
L 67.433906 165.597554 
L 82.872641 160.890858 
L 98.311376 161.030277 
L 113.750111 160.692316 
L 129.188846 165.51091 
L 144.627582 165.851191 
L 160.066317 165.873327 
L 175.505052 165.838077 
L 190.943787 164.263281 
L 206.382522 164.639244 
L 221.821257 165.930925 
L 237.259993 161.402703 
L 252.698728 147.665117 
L 268.137463 157.876002 
L 283.576198 151.234599 
L 299.014933 66.535658 
L 314.453668 151.372742 
L 329.892404 162.430385 
L 345.331139 155.258544 
L 360.769874 155.687285 
L 376.208609 165.872036 
L 391.647344 165.92029 
L 407.08608 165.559082 
" style="fill:none;stroke:#1b9e77;stroke-linecap:square;stroke-opacity:0.5;stroke-width:1.5;"/>
   </g>
   <g id="line2d_62">
    <path clip-path="url(#p813fbea300)" d="M 51.99517 162.641492 
L 67.433906 162.635225 
L 82.872641 165.122484 
L 98.311376 164.932232 
L 113.750111 165.298329 
L 129.188846 165.152615 
L 144.627582 165.34924 
L 160.066317 165.677521 
L 175.505052 165.766717 
L 190.943787 165.805804 
L 206.382522 165.478135 
L 221.821257 161.131505 
L 237.259993 157.633291 
L 252.698728 160.685991 
L 268.137463 159.093199 
L 283.576198 159.425671 
L 299.014933 160.508074 
L 314.453668 157.293273 
L 329.892404 146.538256 
L 345.331139 150.41704 
L 360.769874 155.271771 
L 376.208609 58.024377 
L 391.647344 157.212266 
L 407.08608 165.837031 
" style="fill:none;stroke:#1b9e77;stroke-linecap:square;stroke-opacity:0.5;stroke-width:1.5;"/>
   </g>
   <g id="line2d_63">
    <path clip-path="url(#p813fbea300)" d="M 51.99517 163.45809 
L 67.433906 164.215996 
L 82.872641 164.542045 
L 98.311376 165.148944 
L 113.750111 152.044262 
L 129.188846 148.918169 
L 144.627582 158.918122 
L 160.066317 148.625887 
L 175.505052 158.447774 
L 190.943787 151.412508 
L 206.382522 165.29609 
L 221.821257 165.883315 
L 237.259993 165.698747 
L 252.698728 160.646342 
L 268.137463 158.303448 
L 283.576198 155.802424 
L 299.014933 119.918873 
L 314.453668 143.106019 
L 329.892404 157.969613 
L 345.331139 162.556674 
L 360.769874 143.714765 
L 376.208609 162.000157 
L 391.647344 165.863664 
L 407.08608 160.439611 
" style="fill:none;stroke:#1b9e77;stroke-linecap:square;stroke-opacity:0.5;stroke-width:1.5;"/>
   </g>
   <g id="line2d_64">
    <path clip-path="url(#p813fbea300)" d="M 51.99517 164.141456 
L 67.433906 159.197044 
L 82.872641 157.164346 
L 98.311376 161.536753 
L 113.750111 164.767394 
L 129.188846 163.87171 
L 144.627582 162.723344 
L 160.066317 165.817116 
L 175.505052 165.211836 
L 190.943787 159.435986 
L 206.382522 162.499391 
L 221.821257 130.419 
L 237.259993 117.444702 
L 252.698728 134.029089 
L 268.137463 144.433621 
L 283.576198 141.33514 
L 299.014933 153.522673 
L 314.453668 165.369469 
L 329.892404 165.71782 
L 345.331139 162.3023 
L 360.769874 164.201299 
L 376.208609 165.891239 
L 391.647344 165.940826 
L 407.08608 165.95798 
" style="fill:none;stroke:#1b9e77;stroke-linecap:square;stroke-opacity:0.5;stroke-width:1.5;"/>
   </g>
   <g id="line2d_65">
    <path clip-path="url(#p813fbea300)" d="M 51.99517 165.424107 
L 67.433906 163.989171 
L 82.872641 162.118153 
L 98.311376 156.94534 
L 113.750111 145.795741 
L 129.188846 145.434076 
L 144.627582 160.344029 
L 160.066317 153.385806 
L 175.505052 89.307958 
L 190.943787 165.243225 
L 206.382522 165.309235 
L 221.821257 141.035477 
L 237.259993 149.242111 
L 252.698728 165.729232 
L 268.137463 165.927713 
L 283.576198 165.883881 
L 299.014933 164.046349 
L 314.453668 163.681115 
L 329.892404 161.624834 
L 345.331139 162.55562 
L 360.769874 163.019746 
L 376.208609 162.066191 
L 391.647344 160.895817 
L 407.08608 163.926609 
" style="fill:none;stroke:#1b9e77;stroke-linecap:square;stroke-opacity:0.5;stroke-width:1.5;"/>
   </g>
   <g id="line2d_66">
    <path clip-path="url(#p813fbea300)" d="M 51.99517 164.672393 
L 67.433906 165.037196 
L 82.872641 165.65149 
L 98.311376 165.648213 
L 113.750111 165.705583 
L 129.188846 165.748316 
L 144.627582 165.737835 
L 160.066317 164.984852 
L 175.505052 164.63777 
L 190.943787 161.365789 
L 206.382522 149.002348 
L 221.821257 161.542663 
L 237.259993 161.371887 
L 252.698728 153.172725 
L 268.137463 131.920658 
L 283.576198 114.526479 
L 299.014933 135.315737 
L 314.453668 161.55686 
L 329.892404 163.124829 
L 345.331139 142.60389 
L 360.769874 144.185742 
L 376.208609 163.748665 
L 391.647344 165.740645 
L 407.08608 165.928966 
" style="fill:none;stroke:#1b9e77;stroke-linecap:square;stroke-opacity:0.5;stroke-width:1.5;"/>
   </g>
   <g id="line2d_67">
    <path clip-path="url(#p813fbea300)" d="M 51.99517 165.748686 
L 67.433906 165.658884 
L 82.872641 165.798549 
L 98.311376 165.755918 
L 113.750111 165.778543 
L 129.188846 165.869831 
L 144.627582 165.902789 
L 160.066317 165.928796 
L 175.505052 165.930641 
L 190.943787 165.581322 
L 206.382522 161.826939 
L 221.821257 163.704707 
L 237.259993 159.814475 
L 252.698728 159.416993 
L 268.137463 160.604215 
L 283.576198 160.505593 
L 299.014933 106.523335 
L 314.453668 128.986438 
L 329.892404 145.875856 
L 345.331139 107.575572 
L 360.769874 152.964991 
L 376.208609 165.370884 
L 391.647344 165.865424 
L 407.08608 165.942151 
" style="fill:none;stroke:#1b9e77;stroke-linecap:square;stroke-opacity:0.5;stroke-width:1.5;"/>
   </g>
   <g id="line2d_68">
    <path clip-path="url(#p813fbea300)" d="M 51.99517 164.711733 
L 67.433906 165.185273 
L 82.872641 165.308071 
L 98.311376 164.719526 
L 113.750111 165.322313 
L 129.188846 165.868914 
L 144.627582 165.861413 
L 160.066317 165.429122 
L 175.505052 152.979268 
L 190.943787 132.339228 
L 206.382522 159.324267 
L 221.821257 165.201845 
L 237.259993 165.262168 
L 252.698728 152.80476 
L 268.137463 152.585241 
L 283.576198 160.163852 
L 299.014933 157.741355 
L 314.453668 158.11608 
L 329.892404 159.520153 
L 345.331139 158.463802 
L 360.769874 147.441981 
L 376.208609 133.457 
L 391.647344 127.0721 
L 407.08608 158.05207 
" style="fill:none;stroke:#1b9e77;stroke-linecap:square;stroke-opacity:0.5;stroke-width:1.5;"/>
   </g>
   <g id="line2d_69">
    <path clip-path="url(#p813fbea300)" d="M 51.99517 165.249054 
L 67.433906 165.276647 
L 82.872641 165.785068 
L 98.311376 165.895401 
L 113.750111 165.802922 
L 129.188846 159.424085 
L 144.627582 158.505733 
L 160.066317 149.967843 
L 175.505052 146.397736 
L 190.943787 139.116397 
L 206.382522 140.603934 
L 221.821257 149.346837 
L 237.259993 159.149373 
L 252.698728 163.584466 
L 268.137463 162.307795 
L 283.576198 157.215645 
L 299.014933 150.700686 
L 314.453668 156.181286 
L 329.892404 156.116714 
L 345.331139 159.299092 
L 360.769874 163.208155 
L 376.208609 162.678471 
L 391.647344 140.779163 
L 407.08608 160.339029 
" style="fill:none;stroke:#1b9e77;stroke-linecap:square;stroke-opacity:0.5;stroke-width:1.5;"/>
   </g>
   <g id="line2d_70">
    <path clip-path="url(#p813fbea300)" d="M 51.99517 161.547766 
L 67.433906 103.88254 
L 82.872641 157.90428 
L 98.311376 165.122505 
L 113.750111 165.431912 
L 129.188846 153.840424 
L 144.627582 148.075197 
L 160.066317 165.252267 
L 175.505052 165.697355 
L 190.943787 165.52614 
L 206.382522 161.031754 
L 221.821257 156.19774 
L 237.259993 151.287428 
L 252.698728 160.457237 
L 268.137463 163.832489 
L 283.576198 160.583454 
L 299.014933 143.379526 
L 314.453668 139.440276 
L 329.892404 156.772567 
L 345.331139 162.437117 
L 360.769874 163.286532 
L 376.208609 163.016022 
L 391.647344 163.213322 
L 407.08608 165.715686 
" style="fill:none;stroke:#1b9e77;stroke-linecap:square;stroke-opacity:0.5;stroke-width:1.5;"/>
   </g>
   <g id="line2d_71">
    <path clip-path="url(#p813fbea300)" d="M 51.99517 154.793993 
L 67.433906 135.388368 
L 82.872641 112.897937 
L 98.311376 125.17913 
L 113.750111 162.048518 
L 129.188846 160.692199 
L 144.627582 162.972612 
L 160.066317 164.819668 
L 175.505052 165.55199 
L 190.943787 165.677892 
L 206.382522 165.732141 
L 221.821257 165.220544 
L 237.259993 165.114827 
L 252.698728 165.849981 
L 268.137463 165.860223 
L 283.576198 163.528776 
L 299.014933 112.901212 
L 314.453668 158.464458 
L 329.892404 165.613934 
L 345.331139 165.127014 
L 360.769874 165.35448 
L 376.208609 164.061961 
L 391.647344 164.722073 
L 407.08608 165.35761 
" style="fill:none;stroke:#1b9e77;stroke-linecap:square;stroke-opacity:0.5;stroke-width:1.5;"/>
   </g>
   <g id="line2d_72">
    <path clip-path="url(#p813fbea300)" d="M 51.99517 164.884319 
L 67.433906 164.374744 
L 82.872641 164.227843 
L 98.311376 163.277091 
L 113.750111 162.005659 
L 129.188846 160.534179 
L 144.627582 159.697088 
L 160.066317 159.86226 
L 175.505052 155.994591 
L 190.943787 125.907826 
L 206.382522 122.811507 
L 221.821257 119.908865 
L 237.259993 158.780278 
L 252.698728 164.749914 
L 268.137463 165.600028 
L 283.576198 165.494539 
L 299.014933 165.462967 
L 314.453668 165.443109 
L 329.892404 165.346437 
L 345.331139 165.538318 
L 360.769874 164.577057 
L 376.208609 153.95732 
L 391.647344 144.989747 
L 407.08608 159.505849 
" style="fill:none;stroke:#1b9e77;stroke-linecap:square;stroke-opacity:0.5;stroke-width:1.5;"/>
   </g>
   <g id="line2d_73">
    <path clip-path="url(#p813fbea300)" d="M 51.99517 165.825053 
L 67.433906 165.64179 
L 82.872641 165.749373 
L 98.311376 165.734678 
L 113.750111 165.72377 
L 129.188846 165.198867 
L 144.627582 165.083953 
L 160.066317 164.942304 
L 175.505052 162.27875 
L 190.943787 165.717594 
L 206.382522 165.056579 
L 221.821257 164.621947 
L 237.259993 146.98645 
L 252.698728 157.272868 
L 268.137463 146.658925 
L 283.576198 139.764378 
L 299.014933 164.346821 
L 314.453668 94.208825 
L 329.892404 111.233329 
L 345.331139 162.492654 
L 360.769874 164.420745 
L 376.208609 163.467881 
L 391.647344 164.663504 
L 407.08608 165.840495 
" style="fill:none;stroke:#1b9e77;stroke-linecap:square;stroke-opacity:0.5;stroke-width:1.5;"/>
   </g>
   <g id="line2d_74">
    <path clip-path="url(#p813fbea300)" d="M 51.99517 106.137613 
L 67.433906 130.375364 
L 82.872641 147.835602 
L 98.311376 159.959427 
L 113.750111 161.459301 
L 129.188846 157.54379 
L 144.627582 152.663918 
L 160.066317 157.058632 
L 175.505052 158.83506 
L 190.943787 159.878148 
L 206.382522 159.852154 
L 221.821257 157.899835 
L 237.259993 159.262293 
L 252.698728 162.418212 
L 268.137463 163.394982 
L 283.576198 161.275814 
L 299.014933 163.878357 
L 314.453668 165.093821 
L 329.892404 165.35618 
L 345.331139 160.783526 
L 360.769874 155.798201 
L 376.208609 164.32263 
L 391.647344 165.89602 
L 407.08608 165.952657 
" style="fill:none;stroke:#1b9e77;stroke-linecap:square;stroke-opacity:0.5;stroke-width:1.5;"/>
   </g>
   <g id="line2d_75">
    <path clip-path="url(#p813fbea300)" d="M 51.99517 160.935934 
L 67.433906 161.824916 
L 82.872641 165.285006 
L 98.311376 165.423285 
L 113.750111 165.510991 
L 129.188846 163.260448 
L 144.627582 160.391651 
L 160.066317 165.383358 
L 175.505052 165.229894 
L 190.943787 161.054346 
L 206.382522 148.167526 
L 221.821257 140.155724 
L 237.259993 128.192237 
L 252.698728 130.256452 
L 268.137463 147.075713 
L 283.576198 152.153943 
L 299.014933 153.009776 
L 314.453668 152.759721 
L 329.892404 161.785648 
L 345.331139 164.586328 
L 360.769874 164.844619 
L 376.208609 164.51152 
L 391.647344 158.917687 
L 407.08608 162.214815 
" style="fill:none;stroke:#1b9e77;stroke-linecap:square;stroke-opacity:0.5;stroke-width:1.5;"/>
   </g>
   <g id="line2d_76">
    <path clip-path="url(#p813fbea300)" d="M 51.99517 164.124415 
L 67.433906 165.310988 
L 82.872641 165.783049 
L 98.311376 165.704917 
L 113.750111 165.754293 
L 129.188846 165.853608 
L 144.627582 165.82094 
L 160.066317 165.043096 
L 175.505052 163.789785 
L 190.943787 152.684695 
L 206.382522 100.515064 
L 221.821257 156.125114 
L 237.259993 156.813517 
L 252.698728 108.966722 
L 268.137463 120.776011 
L 283.576198 154.97963 
L 299.014933 164.839211 
L 314.453668 165.589667 
L 329.892404 165.77916 
L 345.331139 165.369397 
L 360.769874 165.517198 
L 376.208609 165.893412 
L 391.647344 165.939218 
L 407.08608 165.958427 
" style="fill:none;stroke:#1b9e77;stroke-linecap:square;stroke-opacity:0.5;stroke-width:1.5;"/>
   </g>
   <g id="line2d_77">
    <path clip-path="url(#p813fbea300)" d="M 51.99517 145.503769 
L 67.433906 164.895342 
L 82.872641 164.138385 
L 98.311376 163.199443 
L 113.750111 160.942574 
L 129.188846 153.650503 
L 144.627582 146.678298 
L 160.066317 144.048848 
L 175.505052 143.803613 
L 190.943787 162.836304 
L 206.382522 159.296102 
L 221.821257 127.219748 
L 237.259993 130.573332 
L 252.698728 156.861547 
L 268.137463 160.540831 
L 283.576198 162.339126 
L 299.014933 163.221126 
L 314.453668 163.69501 
L 329.892404 164.235758 
L 345.331139 163.866304 
L 360.769874 165.110748 
L 376.208609 165.30208 
L 391.647344 165.324405 
L 407.08608 165.648344 
" style="fill:none;stroke:#1b9e77;stroke-linecap:square;stroke-opacity:0.5;stroke-width:1.5;"/>
   </g>
   <g id="line2d_78">
    <path clip-path="url(#p813fbea300)" d="M 51.99517 165.578871 
L 67.433906 165.578467 
L 82.872641 165.083462 
L 98.311376 147.812206 
L 113.750111 141.317549 
L 129.188846 165.447255 
L 144.627582 165.848684 
L 160.066317 165.885066 
L 175.505052 165.205359 
L 190.943787 158.124545 
L 206.382522 149.358366 
L 221.821257 164.223443 
L 237.259993 161.948654 
L 252.698728 161.184349 
L 268.137463 159.798112 
L 283.576198 157.834662 
L 299.014933 154.575007 
L 314.453668 151.681682 
L 329.892404 145.258526 
L 345.331139 148.178707 
L 360.769874 152.516515 
L 376.208609 150.881307 
L 391.647344 143.95541 
L 407.08608 155.655336 
" style="fill:none;stroke:#1b9e77;stroke-linecap:square;stroke-opacity:0.5;stroke-width:1.5;"/>
   </g>
   <g id="line2d_79">
    <path clip-path="url(#p813fbea300)" d="M 51.99517 163.966441 
L 67.433906 164.821696 
L 82.872641 165.23618 
L 98.311376 165.473095 
L 113.750111 165.737883 
L 129.188846 165.808332 
L 144.627582 165.49499 
L 160.066317 163.910743 
L 175.505052 161.962291 
L 190.943787 162.339175 
L 206.382522 160.956047 
L 221.821257 161.120206 
L 237.259993 163.572963 
L 252.698728 163.620711 
L 268.137463 162.0079 
L 283.576198 151.780498 
L 299.014933 139.220919 
L 314.453668 111.482918 
L 329.892404 112.859846 
L 345.331139 139.480866 
L 360.769874 156.63593 
L 376.208609 163.888588 
L 391.647344 165.638865 
L 407.08608 165.914457 
" style="fill:none;stroke:#1b9e77;stroke-linecap:square;stroke-opacity:0.5;stroke-width:1.5;"/>
   </g>
   <g id="line2d_80">
    <path clip-path="url(#p813fbea300)" d="M 51.99517 162.633813 
L 67.433906 164.747927 
L 82.872641 165.644471 
L 98.311376 165.691352 
L 113.750111 165.748297 
L 129.188846 165.738016 
L 144.627582 165.568652 
L 160.066317 165.020463 
L 175.505052 158.538391 
L 190.943787 127.2077 
L 206.382522 138.500035 
L 221.821257 162.635121 
L 237.259993 163.087828 
L 252.698728 154.345975 
L 268.137463 156.576778 
L 283.576198 163.558319 
L 299.014933 164.732968 
L 314.453668 163.780582 
L 329.892404 156.530873 
L 345.331139 153.130503 
L 360.769874 151.252365 
L 376.208609 156.176021 
L 391.647344 147.060651 
L 407.08608 125.024432 
" style="fill:none;stroke:#1b9e77;stroke-linecap:square;stroke-opacity:0.5;stroke-width:1.5;"/>
   </g>
   <g id="line2d_81">
    <path clip-path="url(#p813fbea300)" d="M 51.99517 162.521457 
L 67.433906 163.112254 
L 82.872641 164.712034 
L 98.311376 164.924328 
L 113.750111 164.945157 
L 129.188846 164.413119 
L 144.627582 163.751798 
L 160.066317 164.676441 
L 175.505052 165.120365 
L 190.943787 165.381261 
L 206.382522 165.433792 
L 221.821257 165.126534 
L 237.259993 163.062134 
L 252.698728 165.674039 
L 268.137463 164.815405 
L 283.576198 156.960666 
L 299.014933 157.178384 
L 314.453668 157.789086 
L 329.892404 150.234313 
L 345.331139 144.377779 
L 360.769874 143.856603 
L 376.208609 131.659672 
L 391.647344 99.855895 
L 407.08608 153.349022 
" style="fill:none;stroke:#1b9e77;stroke-linecap:square;stroke-opacity:0.5;stroke-width:1.5;"/>
   </g>
   <g id="line2d_82">
    <path clip-path="url(#p813fbea300)" d="M 51.99517 164.434213 
L 67.433906 163.654158 
L 82.872641 165.367163 
L 98.311376 165.636404 
L 113.750111 165.617059 
L 129.188846 165.734508 
L 144.627582 161.006782 
L 160.066317 153.680129 
L 175.505052 147.596866 
L 190.943787 143.560644 
L 206.382522 127.011716 
L 221.821257 135.696482 
L 237.259993 151.339305 
L 252.698728 103.554009 
L 268.137463 163.525915 
L 283.576198 165.13004 
L 299.014933 165.574628 
L 314.453668 165.534423 
L 329.892404 165.644661 
L 345.331139 165.784577 
L 360.769874 165.766379 
L 376.208609 165.637463 
L 391.647344 162.512566 
L 407.08608 163.93145 
" style="fill:none;stroke:#1b9e77;stroke-linecap:square;stroke-opacity:0.5;stroke-width:1.5;"/>
   </g>
   <g id="line2d_83">
    <path clip-path="url(#p813fbea300)" d="M 51.99517 165.523778 
L 67.433906 165.360001 
L 82.872641 165.684695 
L 98.311376 165.669899 
L 113.750111 165.718077 
L 129.188846 165.804731 
L 144.627582 165.852069 
L 160.066317 165.874952 
L 175.505052 165.882446 
L 190.943787 165.944727 
L 206.382522 165.626929 
L 221.821257 165.093399 
L 237.259993 161.704389 
L 252.698728 163.42079 
L 268.137463 163.093677 
L 283.576198 162.224034 
L 299.014933 159.221598 
L 314.453668 135.147132 
L 329.892404 38.281372 
L 345.331139 130.484422 
L 360.769874 163.696976 
L 376.208609 165.771354 
L 391.647344 165.897193 
L 407.08608 165.952897 
" style="fill:none;stroke:#1b9e77;stroke-linecap:square;stroke-opacity:0.5;stroke-width:1.5;"/>
   </g>
   <g id="line2d_84">
    <path clip-path="url(#p813fbea300)" d="M 51.99517 165.093506 
L 67.433906 165.352323 
L 82.872641 165.37288 
L 98.311376 163.500679 
L 113.750111 163.289835 
L 129.188846 165.599226 
L 144.627582 165.814794 
L 160.066317 165.857889 
L 175.505052 165.504244 
L 190.943787 152.711747 
L 206.382522 140.84548 
L 221.821257 165.308988 
L 237.259993 162.17351 
L 252.698728 154.129973 
L 268.137463 160.933395 
L 283.576198 64.07452 
L 299.014933 160.852477 
L 314.453668 165.68999 
L 329.892404 165.06054 
L 345.331139 128.641537 
L 360.769874 159.282086 
L 376.208609 165.932321 
L 391.647344 165.94959 
L 407.08608 165.96 
" style="fill:none;stroke:#1b9e77;stroke-linecap:square;stroke-opacity:0.5;stroke-width:1.5;"/>
   </g>
   <g id="line2d_85">
    <path clip-path="url(#p813fbea300)" d="M 51.99517 165.786399 
L 67.433906 165.128264 
L 82.872641 164.529046 
L 98.311376 159.564093 
L 113.750111 112.409796 
L 129.188846 144.088413 
L 144.627582 139.879023 
L 160.066317 159.518565 
L 175.505052 156.04301 
L 190.943787 159.690193 
L 206.382522 163.187002 
L 221.821257 161.301675 
L 237.259993 164.117273 
L 252.698728 164.711833 
L 268.137463 165.150098 
L 283.576198 165.449178 
L 299.014933 165.323738 
L 314.453668 162.81905 
L 329.892404 155.756358 
L 345.331139 155.474219 
L 360.769874 149.557255 
L 376.208609 144.318055 
L 391.647344 158.473242 
L 407.08608 160.655759 
" style="fill:none;stroke:#1b9e77;stroke-linecap:square;stroke-opacity:0.5;stroke-width:1.5;"/>
   </g>
   <g id="line2d_86">
    <path clip-path="url(#p813fbea300)" d="M 51.99517 165.452373 
L 67.433906 165.192141 
L 82.872641 165.507667 
L 98.311376 165.503031 
L 113.750111 120.01037 
L 129.188846 161.363033 
L 144.627582 149.584747 
L 160.066317 156.669607 
L 175.505052 161.659744 
L 190.943787 149.5275 
L 206.382522 163.180659 
L 221.821257 165.482023 
L 237.259993 165.468155 
L 252.698728 164.389961 
L 268.137463 164.098488 
L 283.576198 162.534458 
L 299.014933 157.82774 
L 314.453668 150.838939 
L 329.892404 149.680225 
L 345.331139 157.347765 
L 360.769874 155.580325 
L 376.208609 147.204685 
L 391.647344 138.292702 
L 407.08608 160.535204 
" style="fill:none;stroke:#1b9e77;stroke-linecap:square;stroke-opacity:0.5;stroke-width:1.5;"/>
   </g>
   <g id="line2d_87">
    <path clip-path="url(#p813fbea300)" d="M 51.99517 165.586645 
L 67.433906 165.680482 
L 82.872641 165.812488 
L 98.311376 165.65517 
L 113.750111 164.371818 
L 129.188846 165.537473 
L 144.627582 165.893774 
L 160.066317 165.937655 
L 175.505052 165.925999 
L 190.943787 165.613175 
L 206.382522 165.105099 
L 221.821257 165.405362 
L 237.259993 164.708335 
L 252.698728 164.407927 
L 268.137463 163.913481 
L 283.576198 162.968661 
L 299.014933 162.611134 
L 314.453668 159.693412 
L 329.892404 128.731918 
L 345.331139 109.789182 
L 360.769874 130.052665 
L 376.208609 128.073003 
L 391.647344 142.72163 
L 407.08608 158.735048 
" style="fill:none;stroke:#1b9e77;stroke-linecap:square;stroke-opacity:0.5;stroke-width:1.5;"/>
   </g>
   <g id="line2d_88">
    <path clip-path="url(#p813fbea300)" d="M 51.99517 164.044769 
L 67.433906 163.968076 
L 82.872641 165.249218 
L 98.311376 165.405541 
L 113.750111 165.491299 
L 129.188846 165.499266 
L 144.627582 165.556577 
L 160.066317 165.440865 
L 175.505052 165.134671 
L 190.943787 165.430138 
L 206.382522 165.580309 
L 221.821257 165.565618 
L 237.259993 163.484405 
L 252.698728 155.119661 
L 268.137463 152.638553 
L 283.576198 148.304862 
L 299.014933 142.015883 
L 314.453668 141.378994 
L 329.892404 137.624361 
L 345.331139 144.559311 
L 360.769874 145.360063 
L 376.208609 135.163575 
L 391.647344 162.467375 
L 407.08608 152.448149 
" style="fill:none;stroke:#1b9e77;stroke-linecap:square;stroke-opacity:0.5;stroke-width:1.5;"/>
   </g>
   <g id="line2d_89">
    <path clip-path="url(#p813fbea300)" d="M 51.99517 165.892086 
L 67.433906 165.805936 
L 82.872641 165.840287 
L 98.311376 165.806769 
L 113.750111 165.752602 
L 129.188846 165.889036 
L 144.627582 165.876 
L 160.066317 165.736697 
L 175.505052 160.459298 
L 190.943787 160.573462 
L 206.382522 152.115863 
L 221.821257 124.284659 
L 237.259993 147.2126 
L 252.698728 137.892465 
L 268.137463 99.281919 
L 283.576198 138.533476 
L 299.014933 159.439215 
L 314.453668 163.606678 
L 329.892404 164.911844 
L 345.331139 165.05521 
L 360.769874 165.506111 
L 376.208609 165.698708 
L 391.647344 165.821548 
L 407.08608 165.939062 
" style="fill:none;stroke:#1b9e77;stroke-linecap:square;stroke-opacity:0.5;stroke-width:1.5;"/>
   </g>
   <g id="line2d_90">
    <path clip-path="url(#p813fbea300)" d="M 51.99517 149.594432 
L 67.433906 156.816215 
L 82.872641 162.409884 
L 98.311376 161.398929 
L 113.750111 162.502107 
L 129.188846 164.51612 
L 144.627582 165.314231 
L 160.066317 165.285126 
L 175.505052 165.508502 
L 190.943787 165.686674 
L 206.382522 165.786099 
L 221.821257 165.876623 
L 237.259993 165.203044 
L 252.698728 163.629404 
L 268.137463 156.967794 
L 283.576198 157.754231 
L 299.014933 152.29996 
L 314.453668 133.864972 
L 329.892404 88.132281 
L 345.331139 146.677537 
L 360.769874 159.160686 
L 376.208609 158.234479 
L 391.647344 164.424645 
L 407.08608 165.887562 
" style="fill:none;stroke:#1b9e77;stroke-linecap:square;stroke-opacity:0.5;stroke-width:1.5;"/>
   </g>
   <g id="line2d_91">
    <path clip-path="url(#p813fbea300)" d="M 51.99517 165.252804 
L 67.433906 165.516998 
L 82.872641 163.747119 
L 98.311376 161.703813 
L 113.750111 160.840864 
L 129.188846 163.824098 
L 144.627582 162.848019 
L 160.066317 159.97312 
L 175.505052 159.599845 
L 190.943787 160.067043 
L 206.382522 154.33422 
L 221.821257 160.038042 
L 237.259993 155.910567 
L 252.698728 158.150755 
L 268.137463 155.876438 
L 283.576198 146.877143 
L 299.014933 126.152112 
L 314.453668 109.363381 
L 329.892404 147.492994 
L 345.331139 163.045431 
L 360.769874 165.214267 
L 376.208609 165.566373 
L 391.647344 165.709485 
L 407.08608 165.826603 
" style="fill:none;stroke:#1b9e77;stroke-linecap:square;stroke-opacity:0.5;stroke-width:1.5;"/>
   </g>
   <g id="line2d_92">
    <path clip-path="url(#p813fbea300)" d="M 51.99517 164.531257 
L 67.433906 159.327943 
L 82.872641 144.802923 
L 98.311376 142.083774 
L 113.750111 150.477617 
L 129.188846 149.920709 
L 144.627582 146.572854 
L 160.066317 137.313012 
L 175.505052 131.661643 
L 190.943787 165.2846 
L 206.382522 165.466187 
L 221.821257 142.772305 
L 237.259993 139.906496 
L 252.698728 164.775005 
L 268.137463 165.902163 
L 283.576198 165.89399 
L 299.014933 165.909811 
L 314.453668 165.908249 
L 329.892404 165.926329 
L 345.331139 165.941462 
L 360.769874 165.948994 
L 376.208609 165.955346 
L 391.647344 165.925084 
L 407.08608 164.723785 
" style="fill:none;stroke:#1b9e77;stroke-linecap:square;stroke-opacity:0.5;stroke-width:1.5;"/>
   </g>
   <g id="line2d_93">
    <path clip-path="url(#p813fbea300)" d="M 51.99517 163.369347 
L 67.433906 164.121515 
L 82.872641 165.130173 
L 98.311376 164.819019 
L 113.750111 164.872818 
L 129.188846 164.343614 
L 144.627582 164.53986 
L 160.066317 165.283904 
L 175.505052 165.148647 
L 190.943787 162.728859 
L 206.382522 164.239348 
L 221.821257 165.505464 
L 237.259993 165.595111 
L 252.698728 162.312865 
L 268.137463 159.202246 
L 283.576198 155.803352 
L 299.014933 145.263993 
L 314.453668 154.528484 
L 329.892404 158.585224 
L 345.331139 157.156618 
L 360.769874 155.144357 
L 376.208609 146.148835 
L 391.647344 98.266508 
L 407.08608 130.821375 
" style="fill:none;stroke:#1b9e77;stroke-linecap:square;stroke-opacity:0.5;stroke-width:1.5;"/>
   </g>
   <g id="line2d_94">
    <path clip-path="url(#p813fbea300)" d="M 51.99517 163.329175 
L 67.433906 164.970615 
L 82.872641 165.589355 
L 98.311376 165.442196 
L 113.750111 165.661272 
L 129.188846 165.827892 
L 144.627582 165.869568 
L 160.066317 165.816659 
L 175.505052 165.727411 
L 190.943787 165.634928 
L 206.382522 163.70045 
L 221.821257 165.437468 
L 237.259993 161.513748 
L 252.698728 147.638861 
L 268.137463 117.256463 
L 283.576198 113.575417 
L 299.014933 125.51483 
L 314.453668 137.104122 
L 329.892404 160.754273 
L 345.331139 163.276667 
L 360.769874 163.335557 
L 376.208609 162.878228 
L 391.647344 161.535176 
L 407.08608 165.541204 
" style="fill:none;stroke:#1b9e77;stroke-linecap:square;stroke-opacity:0.5;stroke-width:1.5;"/>
   </g>
   <g id="line2d_95">
    <path clip-path="url(#p813fbea300)" d="M 51.99517 160.975866 
L 67.433906 152.572182 
L 82.872641 152.716269 
L 98.311376 150.409942 
L 113.750111 134.173647 
L 129.188846 131.014457 
L 144.627582 135.776633 
L 160.066317 147.359928 
L 175.505052 153.052708 
L 190.943787 156.500334 
L 206.382522 160.688396 
L 221.821257 162.300831 
L 237.259993 164.002694 
L 252.698728 164.647472 
L 268.137463 164.887446 
L 283.576198 164.772278 
L 299.014933 165.092169 
L 314.453668 165.592804 
L 329.892404 165.347985 
L 345.331139 163.245377 
L 360.769874 160.774677 
L 376.208609 159.199237 
L 391.647344 163.075022 
L 407.08608 164.753182 
" style="fill:none;stroke:#1b9e77;stroke-linecap:square;stroke-opacity:0.5;stroke-width:1.5;"/>
   </g>
   <g id="line2d_96">
    <path clip-path="url(#p813fbea300)" d="M 51.99517 165.656702 
L 67.433906 165.824952 
L 82.872641 163.658588 
L 98.311376 161.086197 
L 113.750111 157.924269 
L 129.188846 159.24789 
L 144.627582 150.01048 
L 160.066317 145.417856 
L 175.505052 161.155752 
L 190.943787 140.227622 
L 206.382522 152.46041 
L 221.821257 162.936997 
L 237.259993 162.46746 
L 252.698728 150.135019 
L 268.137463 152.570379 
L 283.576198 150.201745 
L 299.014933 143.658402 
L 314.453668 150.780138 
L 329.892404 152.899511 
L 345.331139 154.06166 
L 360.769874 163.237104 
L 376.208609 165.56303 
L 391.647344 165.807518 
L 407.08608 165.941853 
" style="fill:none;stroke:#1b9e77;stroke-linecap:square;stroke-opacity:0.5;stroke-width:1.5;"/>
   </g>
   <g id="line2d_97">
    <path clip-path="url(#p813fbea300)" d="M 51.99517 161.618038 
L 67.433906 163.380378 
L 82.872641 164.382811 
L 98.311376 163.473049 
L 113.750111 163.160517 
L 129.188846 165.479151 
L 144.627582 165.057089 
L 160.066317 107.136868 
L 175.505052 104.606298 
L 190.943787 110.16308 
L 206.382522 160.697389 
L 221.821257 164.724203 
L 237.259993 163.298224 
L 252.698728 148.82005 
L 268.137463 163.82073 
L 283.576198 165.779321 
L 299.014933 165.884082 
L 314.453668 165.882194 
L 329.892404 165.894571 
L 345.331139 165.903132 
L 360.769874 165.922387 
L 376.208609 165.939803 
L 391.647344 165.948585 
L 407.08608 165.959581 
" style="fill:none;stroke:#1b9e77;stroke-linecap:square;stroke-opacity:0.5;stroke-width:1.5;"/>
   </g>
   <g id="line2d_98">
    <path clip-path="url(#p813fbea300)" d="M 51.99517 156.378358 
L 67.433906 149.850172 
L 82.872641 163.345638 
L 98.311376 164.415016 
L 113.750111 165.029271 
L 129.188846 165.033623 
L 144.627582 164.727623 
L 160.066317 164.53386 
L 175.505052 164.810482 
L 190.943787 165.027257 
L 206.382522 164.912928 
L 221.821257 164.559679 
L 237.259993 163.912697 
L 252.698728 164.1272 
L 268.137463 163.629121 
L 283.576198 164.215192 
L 299.014933 163.537746 
L 314.453668 164.95017 
L 329.892404 163.530083 
L 345.331139 112.290555 
L 360.769874 117.43532 
L 376.208609 146.250015 
L 391.647344 120.536616 
L 407.08608 165.892903 
" style="fill:none;stroke:#1b9e77;stroke-linecap:square;stroke-opacity:0.5;stroke-width:1.5;"/>
   </g>
   <g id="line2d_99">
    <path clip-path="url(#p813fbea300)" d="M 51.99517 164.996735 
L 67.433906 159.567878 
L 82.872641 156.508384 
L 98.311376 155.842624 
L 113.750111 155.567815 
L 129.188846 154.353913 
L 144.627582 151.946738 
L 160.066317 147.100929 
L 175.505052 143.78992 
L 190.943787 146.545932 
L 206.382522 146.370549 
L 221.821257 145.529267 
L 237.259993 154.222908 
L 252.698728 160.303976 
L 268.137463 165.494266 
L 283.576198 165.580167 
L 299.014933 165.381696 
L 314.453668 162.57817 
L 329.892404 158.461332 
L 345.331139 162.006743 
L 360.769874 160.146753 
L 376.208609 156.596334 
L 391.647344 159.598843 
L 407.08608 164.439665 
" style="fill:none;stroke:#1b9e77;stroke-linecap:square;stroke-opacity:0.5;stroke-width:1.5;"/>
   </g>
   <g id="line2d_100">
    <path clip-path="url(#p813fbea300)" d="M 51.99517 158.29327 
L 67.433906 161.907504 
L 82.872641 164.416928 
L 98.311376 164.34596 
L 113.750111 164.610417 
L 129.188846 164.732448 
L 144.627582 164.692176 
L 160.066317 165.217875 
L 175.505052 165.195051 
L 190.943787 163.911104 
L 206.382522 163.272695 
L 221.821257 139.896842 
L 237.259993 114.168143 
L 252.698728 139.396629 
L 268.137463 161.863544 
L 283.576198 164.934193 
L 299.014933 164.714937 
L 314.453668 161.294961 
L 329.892404 156.510532 
L 345.331139 152.434883 
L 360.769874 148.146027 
L 376.208609 146.893381 
L 391.647344 156.217982 
L 407.08608 155.864049 
" style="fill:none;stroke:#1b9e77;stroke-linecap:square;stroke-opacity:0.5;stroke-width:1.5;"/>
   </g>
   <g id="line2d_101">
    <path clip-path="url(#p813fbea300)" d="M 51.99517 165.841627 
L 67.433906 165.779544 
L 82.872641 165.85959 
L 98.311376 165.71491 
L 113.750111 165.46074 
L 129.188846 165.821436 
L 144.627582 165.90017 
L 160.066317 165.901936 
L 175.505052 165.857462 
L 190.943787 165.460338 
L 206.382522 161.680118 
L 221.821257 161.232297 
L 237.259993 158.584408 
L 252.698728 144.764287 
L 268.137463 103.345818 
L 283.576198 93.195631 
L 299.014933 128.825484 
L 314.453668 160.963859 
L 329.892404 165.151429 
L 345.331139 164.895396 
L 360.769874 165.460706 
L 376.208609 165.494617 
L 391.647344 165.80274 
L 407.08608 165.936996 
" style="fill:none;stroke:#1b9e77;stroke-linecap:square;stroke-opacity:0.5;stroke-width:1.5;"/>
   </g>
   <g id="line2d_102">
    <path clip-path="url(#p813fbea300)" d="M 51.99517 164.981583 
L 67.433906 161.301169 
L 82.872641 156.977219 
L 98.311376 145.542017 
L 113.750111 154.497231 
L 129.188846 162.115713 
L 144.627582 165.32708 
L 160.066317 165.386288 
L 175.505052 165.608147 
L 190.943787 165.598951 
L 206.382522 165.660044 
L 221.821257 165.745114 
L 237.259993 165.663069 
L 252.698728 165.400003 
L 268.137463 162.733959 
L 283.576198 161.305475 
L 299.014933 157.050289 
L 314.453668 146.677026 
L 329.892404 116.576646 
L 345.331139 145.308015 
L 360.769874 163.690562 
L 376.208609 108.288369 
L 391.647344 165.560021 
L 407.08608 165.937546 
" style="fill:none;stroke:#1b9e77;stroke-linecap:square;stroke-opacity:0.5;stroke-width:1.5;"/>
   </g>
   <g id="line2d_103">
    <path clip-path="url(#p813fbea300)" d="M 51.99517 163.648512 
L 67.433906 165.103071 
L 82.872641 165.626794 
L 98.311376 165.463242 
L 113.750111 165.562072 
L 129.188846 165.76277 
L 144.627582 165.817313 
L 160.066317 165.863704 
L 175.505052 165.854795 
L 190.943787 163.866137 
L 206.382522 160.795687 
L 221.821257 165.197397 
L 237.259993 161.882242 
L 252.698728 161.785796 
L 268.137463 144.791411 
L 283.576198 120.505701 
L 299.014933 137.385183 
L 314.453668 120.145177 
L 329.892404 147.47454 
L 345.331139 149.768572 
L 360.769874 161.861178 
L 376.208609 165.082499 
L 391.647344 163.008279 
L 407.08608 150.679464 
" style="fill:none;stroke:#1b9e77;stroke-linecap:square;stroke-opacity:0.5;stroke-width:1.5;"/>
   </g>
   <g id="line2d_104">
    <path clip-path="url(#p813fbea300)" d="M 51.99517 161.275082 
L 67.433906 161.673129 
L 82.872641 164.233085 
L 98.311376 164.548035 
L 113.750111 164.62708 
L 129.188846 164.093075 
L 144.627582 152.27174 
L 160.066317 147.515745 
L 175.505052 158.072213 
L 190.943787 165.154502 
L 206.382522 165.533726 
L 221.821257 64.086677 
L 237.259993 122.289388 
L 252.698728 149.54273 
L 268.137463 165.644531 
L 283.576198 165.906296 
L 299.014933 165.885536 
L 314.453668 165.709366 
L 329.892404 165.314873 
L 345.331139 165.84852 
L 360.769874 165.947209 
L 376.208609 165.945702 
L 391.647344 165.93773 
L 407.08608 165.875562 
" style="fill:none;stroke:#1b9e77;stroke-linecap:square;stroke-opacity:0.5;stroke-width:1.5;"/>
   </g>
   <g id="line2d_105">
    <path clip-path="url(#p813fbea300)" d="M 51.99517 161.110627 
L 67.433906 165.758778 
L 82.872641 165.415015 
L 98.311376 164.454985 
L 113.750111 155.907692 
L 129.188846 161.379234 
L 144.627582 154.205929 
L 160.066317 126.215067 
L 175.505052 152.173359 
L 190.943787 115.793787 
L 206.382522 162.994898 
L 221.821257 165.63649 
L 237.259993 165.029287 
L 252.698728 157.647339 
L 268.137463 162.770565 
L 283.576198 161.992721 
L 299.014933 161.205574 
L 314.453668 161.267659 
L 329.892404 161.054096 
L 345.331139 159.914114 
L 360.769874 158.147468 
L 376.208609 156.071549 
L 391.647344 150.012798 
L 407.08608 156.772506 
" style="fill:none;stroke:#1b9e77;stroke-linecap:square;stroke-opacity:0.5;stroke-width:1.5;"/>
   </g>
   <g id="line2d_106">
    <path clip-path="url(#p813fbea300)" d="M 51.99517 163.415962 
L 67.433906 164.619228 
L 82.872641 165.587358 
L 98.311376 165.692137 
L 113.750111 165.394655 
L 129.188846 165.286485 
L 144.627582 162.648827 
L 160.066317 165.013908 
L 175.505052 164.873947 
L 190.943787 164.889525 
L 206.382522 164.300812 
L 221.821257 163.733021 
L 237.259993 160.140189 
L 252.698728 160.54862 
L 268.137463 158.625211 
L 283.576198 159.312166 
L 299.014933 160.66465 
L 314.453668 156.916002 
L 329.892404 145.671385 
L 345.331139 146.962116 
L 360.769874 152.830111 
L 376.208609 146.485683 
L 391.647344 106.646934 
L 407.08608 132.672602 
" style="fill:none;stroke:#1b9e77;stroke-linecap:square;stroke-opacity:0.5;stroke-width:1.5;"/>
   </g>
   <g id="line2d_107">
    <path clip-path="url(#p813fbea300)" d="M 51.99517 163.420288 
L 67.433906 165.590158 
L 82.872641 165.868377 
L 98.311376 165.722338 
L 113.750111 164.958724 
L 129.188846 165.572992 
L 144.627582 162.525311 
L 160.066317 165.322165 
L 175.505052 165.390036 
L 190.943787 159.802886 
L 206.382522 142.751743 
L 221.821257 134.87028 
L 237.259993 164.63866 
L 252.698728 160.051862 
L 268.137463 143.030191 
L 283.576198 112.673212 
L 299.014933 128.524296 
L 314.453668 148.64102 
L 329.892404 162.005162 
L 345.331139 162.131397 
L 360.769874 162.909357 
L 376.208609 164.916238 
L 391.647344 165.686456 
L 407.08608 165.928386 
" style="fill:none;stroke:#1b9e77;stroke-linecap:square;stroke-opacity:0.5;stroke-width:1.5;"/>
   </g>
   <g id="line2d_108">
    <path clip-path="url(#p813fbea300)" d="M 51.99517 164.096184 
L 67.433906 164.888103 
L 82.872641 165.589793 
L 98.311376 165.585 
L 113.750111 165.652395 
L 129.188846 165.702667 
L 144.627582 165.639268 
L 160.066317 165.862884 
L 175.505052 165.866844 
L 190.943787 160.860798 
L 206.382522 159.759663 
L 221.821257 151.218551 
L 237.259993 90.646025 
L 252.698728 110.974314 
L 268.137463 163.924788 
L 283.576198 164.562099 
L 299.014933 165.256893 
L 314.453668 165.393427 
L 329.892404 165.644136 
L 345.331139 165.735436 
L 360.769874 165.797359 
L 376.208609 165.897374 
L 391.647344 165.829492 
L 407.08608 112.548041 
" style="fill:none;stroke:#1b9e77;stroke-linecap:square;stroke-opacity:0.5;stroke-width:1.5;"/>
   </g>
   <g id="line2d_109">
    <path clip-path="url(#p813fbea300)" d="M 51.99517 160.071803 
L 67.433906 151.061375 
L 82.872641 162.556116 
L 98.311376 164.131831 
L 113.750111 164.552034 
L 129.188846 150.849941 
L 144.627582 158.340991 
L 160.066317 165.664105 
L 175.505052 165.807772 
L 190.943787 165.87578 
L 206.382522 165.30661 
L 221.821257 157.316442 
L 237.259993 155.486405 
L 252.698728 156.868629 
L 268.137463 149.986137 
L 283.576198 162.268412 
L 299.014933 161.562903 
L 314.453668 151.308988 
L 329.892404 137.154217 
L 345.331139 134.105494 
L 360.769874 154.20955 
L 376.208609 162.499874 
L 391.647344 163.814785 
L 407.08608 142.13134 
" style="fill:none;stroke:#1b9e77;stroke-linecap:square;stroke-opacity:0.5;stroke-width:1.5;"/>
   </g>
   <g id="line2d_110">
    <path clip-path="url(#p813fbea300)" d="M 51.99517 165.268152 
L 67.433906 165.500631 
L 82.872641 165.746775 
L 98.311376 165.644576 
L 113.750111 165.7202 
L 129.188846 165.84212 
L 144.627582 165.887479 
L 160.066317 165.861944 
L 175.505052 165.830204 
L 190.943787 165.747259 
L 206.382522 165.514655 
L 221.821257 165.305263 
L 237.259993 164.633446 
L 252.698728 163.913713 
L 268.137463 161.867086 
L 283.576198 158.071073 
L 299.014933 155.212574 
L 314.453668 140.182947 
L 329.892404 78.446047 
L 345.331139 106.458159 
L 360.769874 153.368477 
L 376.208609 162.215168 
L 391.647344 164.880454 
L 407.08608 165.813139 
" style="fill:none;stroke:#1b9e77;stroke-linecap:square;stroke-opacity:0.5;stroke-width:1.5;"/>
   </g>
   <g id="line2d_111">
    <path clip-path="url(#p813fbea300)" d="M 51.99517 101.68643 
L 67.433906 124.380724 
L 82.872641 146.410069 
L 98.311376 116.081572 
L 113.750111 153.684709 
L 129.188846 162.470399 
L 144.627582 164.805116 
L 160.066317 164.820927 
L 175.505052 164.51848 
L 190.943787 163.31928 
L 206.382522 163.293502 
L 221.821257 164.507544 
L 237.259993 164.601175 
L 252.698728 163.450117 
L 268.137463 162.643672 
L 283.576198 163.3303 
L 299.014933 163.708867 
L 314.453668 164.345118 
L 329.892404 164.796232 
L 345.331139 164.469099 
L 360.769874 164.522698 
L 376.208609 165.428735 
L 391.647344 165.73253 
L 407.08608 165.924239 
" style="fill:none;stroke:#1b9e77;stroke-linecap:square;stroke-opacity:0.5;stroke-width:1.5;"/>
   </g>
   <g id="line2d_112">
    <path clip-path="url(#p813fbea300)" d="M 51.99517 147.448507 
L 67.433906 130.532224 
L 82.872641 147.801286 
L 98.311376 150.99723 
L 113.750111 161.22533 
L 129.188846 164.532623 
L 144.627582 165.435857 
L 160.066317 165.385369 
L 175.505052 165.520469 
L 190.943787 165.575318 
L 206.382522 165.689411 
L 221.821257 165.784643 
L 237.259993 165.825355 
L 252.698728 165.892522 
L 268.137463 164.996544 
L 283.576198 156.365586 
L 299.014933 158.889929 
L 314.453668 158.289699 
L 329.892404 156.21688 
L 345.331139 152.787922 
L 360.769874 148.787828 
L 376.208609 143.674798 
L 391.647344 136.185275 
L 407.08608 159.090932 
" style="fill:none;stroke:#1b9e77;stroke-linecap:square;stroke-opacity:0.5;stroke-width:1.5;"/>
   </g>
   <g id="line2d_113">
    <path clip-path="url(#p813fbea300)" d="M 51.99517 165.891938 
L 67.433906 165.771858 
L 82.872641 165.869575 
L 98.311376 165.767503 
L 113.750111 165.88481 
L 129.188846 165.945591 
L 144.627582 165.734192 
L 160.066317 165.733853 
L 175.505052 165.753181 
L 190.943787 165.271042 
L 206.382522 163.266361 
L 221.821257 165.952492 
L 237.259993 165.952492 
L 252.698728 165.952492 
L 268.137463 165.934106 
L 283.576198 165.94787 
L 299.014933 164.527671 
L 314.453668 153.440264 
L 329.892404 136.612674 
L 345.331139 115.412503 
L 360.769874 128.475841 
L 376.208609 120.084566 
L 391.647344 142.973824 
L 407.08608 150.774838 
" style="fill:none;stroke:#d95f02;stroke-linecap:square;stroke-width:1.5;"/>
   </g>
   <g id="patch_3">
    <path d="M 34.240625 173.52 
L 34.240625 7.2 
" style="fill:none;stroke:#000000;stroke-linecap:square;stroke-linejoin:miter;stroke-width:0.8;"/>
   </g>
   <g id="patch_4">
    <path d="M 34.240625 173.52 
L 424.840625 173.52 
" style="fill:none;stroke:#000000;stroke-linecap:square;stroke-linejoin:miter;stroke-width:0.8;"/>
   </g>
   <g id="legend_1">
    <g id="patch_5">
     <path d="M 41.240625 29.878125 
L 92.407813 29.878125 
Q 94.407813 29.878125 94.407813 27.878125 
L 94.407813 14.2 
Q 94.407813 12.2 92.407813 12.2 
L 41.240625 12.2 
Q 39.240625 12.2 39.240625 14.2 
L 39.240625 27.878125 
Q 39.240625 29.878125 41.240625 29.878125 
z
" style="fill:#ffffff;opacity:0.8;stroke:#cccccc;stroke-linejoin:miter;"/>
    </g>
    <g id="line2d_114">
     <path d="M 43.240625 20.298438 
L 63.240625 20.298438 
" style="fill:none;stroke:#d95f02;stroke-linecap:square;stroke-width:1.5;"/>
    </g>
    <g id="line2d_115"/>
    <g id="text_15">
     <!-- real -->
     <defs>
      <path d="M 9.421875 75.984375 
L 18.40625 75.984375 
L 18.40625 0 
L 9.421875 0 
z
" id="DejaVuSans-108"/>
     </defs>
     <g transform="translate(71.240625 23.798438)scale(0.1 -0.1)">
      <use xlink:href="#DejaVuSans-114"/>
      <use x="41.082031" xlink:href="#DejaVuSans-101"/>
      <use x="102.605469" xlink:href="#DejaVuSans-97"/>
      <use x="163.884766" xlink:href="#DejaVuSans-108"/>
     </g>
    </g>
   </g>
  </g>
 </g>
 <defs>
  <clipPath id="p813fbea300">
   <rect height="166.32" width="390.6" x="34.240625" y="7.2"/>
  </clipPath>
 </defs>
</svg>
