<?xml version="1.0" encoding="utf-8" standalone="no"?>
<!DOCTYPE svg PUBLIC "-//W3C//DTD SVG 1.1//EN"
  "http://www.w3.org/Graphics/SVG/1.1/DTD/svg11.dtd">
<!-- Created with matplotlib (https://matplotlib.org/) -->
<svg height="211.07625pt" version="1.1" viewBox="0 0 436.087315 211.07625" width="436.087315pt" xmlns="http://www.w3.org/2000/svg" xmlns:xlink="http://www.w3.org/1999/xlink">
 <defs>
  <style type="text/css">
*{stroke-linecap:butt;stroke-linejoin:round;}
  </style>
 </defs>
 <g id="figure_1">
  <g id="patch_1">
   <path d="M 0 211.07625 
L 436.087315 211.07625 
L 436.087315 0 
L 0 0 
z
" style="fill:#ffffff;"/>
  </g>
  <g id="axes_1">
   <g id="patch_2">
    <path d="M 34.240625 173.52 
L 424.840625 173.52 
L 424.840625 7.2 
L 34.240625 7.2 
z
" style="fill:#ffffff;"/>
   </g>
   <g id="matplotlib.axis_1">
    <g id="xtick_1">
     <g id="line2d_1">
      <defs>
       <path d="M 0 0 
L 0 3.5 
" id="mec1149feb0" style="stroke:#000000;stroke-width:0.8;"/>
      </defs>
      <g>
       <use style="stroke:#000000;stroke-width:0.8;" x="36.556435" xlink:href="#mec1149feb0" y="173.52"/>
      </g>
     </g>
     <g id="text_1">
      <!-- 0 -->
      <defs>
       <path d="M 31.78125 66.40625 
Q 24.171875 66.40625 20.328125 58.90625 
Q 16.5 51.421875 16.5 36.375 
Q 16.5 21.390625 20.328125 13.890625 
Q 24.171875 6.390625 31.78125 6.390625 
Q 39.453125 6.390625 43.28125 13.890625 
Q 47.125 21.390625 47.125 36.375 
Q 47.125 51.421875 43.28125 58.90625 
Q 39.453125 66.40625 31.78125 66.40625 
z
M 31.78125 74.21875 
Q 44.046875 74.21875 50.515625 64.515625 
Q 56.984375 54.828125 56.984375 36.375 
Q 56.984375 17.96875 50.515625 8.265625 
Q 44.046875 -1.421875 31.78125 -1.421875 
Q 19.53125 -1.421875 13.0625 8.265625 
Q 6.59375 17.96875 6.59375 36.375 
Q 6.59375 54.828125 13.0625 64.515625 
Q 19.53125 74.21875 31.78125 74.21875 
z
" id="DejaVuSans-48"/>
      </defs>
      <g transform="translate(33.375185 188.118438)scale(0.1 -0.1)">
       <use xlink:href="#DejaVuSans-48"/>
      </g>
     </g>
    </g>
    <g id="xtick_2">
     <g id="line2d_2">
      <g>
       <use style="stroke:#000000;stroke-width:0.8;" x="113.750111" xlink:href="#mec1149feb0" y="173.52"/>
      </g>
     </g>
     <g id="text_2">
      <!-- 5 -->
      <defs>
       <path d="M 10.796875 72.90625 
L 49.515625 72.90625 
L 49.515625 64.59375 
L 19.828125 64.59375 
L 19.828125 46.734375 
Q 21.96875 47.46875 24.109375 47.828125 
Q 26.265625 48.1875 28.421875 48.1875 
Q 40.625 48.1875 47.75 41.5 
Q 54.890625 34.8125 54.890625 23.390625 
Q 54.890625 11.625 47.5625 5.09375 
Q 40.234375 -1.421875 26.90625 -1.421875 
Q 22.3125 -1.421875 17.546875 -0.640625 
Q 12.796875 0.140625 7.71875 1.703125 
L 7.71875 11.625 
Q 12.109375 9.234375 16.796875 8.0625 
Q 21.484375 6.890625 26.703125 6.890625 
Q 35.15625 6.890625 40.078125 11.328125 
Q 45.015625 15.765625 45.015625 23.390625 
Q 45.015625 31 40.078125 35.4375 
Q 35.15625 39.890625 26.703125 39.890625 
Q 22.75 39.890625 18.8125 39.015625 
Q 14.890625 38.140625 10.796875 36.28125 
z
" id="DejaVuSans-53"/>
      </defs>
      <g transform="translate(110.568861 188.118438)scale(0.1 -0.1)">
       <use xlink:href="#DejaVuSans-53"/>
      </g>
     </g>
    </g>
    <g id="xtick_3">
     <g id="line2d_3">
      <g>
       <use style="stroke:#000000;stroke-width:0.8;" x="190.943787" xlink:href="#mec1149feb0" y="173.52"/>
      </g>
     </g>
     <g id="text_3">
      <!-- 10 -->
      <defs>
       <path d="M 12.40625 8.296875 
L 28.515625 8.296875 
L 28.515625 63.921875 
L 10.984375 60.40625 
L 10.984375 69.390625 
L 28.421875 72.90625 
L 38.28125 72.90625 
L 38.28125 8.296875 
L 54.390625 8.296875 
L 54.390625 0 
L 12.40625 0 
z
" id="DejaVuSans-49"/>
      </defs>
      <g transform="translate(184.581287 188.118438)scale(0.1 -0.1)">
       <use xlink:href="#DejaVuSans-49"/>
       <use x="63.623047" xlink:href="#DejaVuSans-48"/>
      </g>
     </g>
    </g>
    <g id="xtick_4">
     <g id="line2d_4">
      <g>
       <use style="stroke:#000000;stroke-width:0.8;" x="268.137463" xlink:href="#mec1149feb0" y="173.52"/>
      </g>
     </g>
     <g id="text_4">
      <!-- 15 -->
      <g transform="translate(261.774963 188.118438)scale(0.1 -0.1)">
       <use xlink:href="#DejaVuSans-49"/>
       <use x="63.623047" xlink:href="#DejaVuSans-53"/>
      </g>
     </g>
    </g>
    <g id="xtick_5">
     <g id="line2d_5">
      <g>
       <use style="stroke:#000000;stroke-width:0.8;" x="345.331139" xlink:href="#mec1149feb0" y="173.52"/>
      </g>
     </g>
     <g id="text_5">
      <!-- 20 -->
      <defs>
       <path d="M 19.1875 8.296875 
L 53.609375 8.296875 
L 53.609375 0 
L 7.328125 0 
L 7.328125 8.296875 
Q 12.9375 14.109375 22.625 23.890625 
Q 32.328125 33.6875 34.8125 36.53125 
Q 39.546875 41.84375 41.421875 45.53125 
Q 43.3125 49.21875 43.3125 52.78125 
Q 43.3125 58.59375 39.234375 62.25 
Q 35.15625 65.921875 28.609375 65.921875 
Q 23.96875 65.921875 18.8125 64.3125 
Q 13.671875 62.703125 7.8125 59.421875 
L 7.8125 69.390625 
Q 13.765625 71.78125 18.9375 73 
Q 24.125 74.21875 28.421875 74.21875 
Q 39.75 74.21875 46.484375 68.546875 
Q 53.21875 62.890625 53.21875 53.421875 
Q 53.21875 48.921875 51.53125 44.890625 
Q 49.859375 40.875 45.40625 35.40625 
Q 44.1875 33.984375 37.640625 27.21875 
Q 31.109375 20.453125 19.1875 8.296875 
z
" id="DejaVuSans-50"/>
      </defs>
      <g transform="translate(338.968639 188.118438)scale(0.1 -0.1)">
       <use xlink:href="#DejaVuSans-50"/>
       <use x="63.623047" xlink:href="#DejaVuSans-48"/>
      </g>
     </g>
    </g>
    <g id="xtick_6">
     <g id="line2d_6">
      <g>
       <use style="stroke:#000000;stroke-width:0.8;" x="422.524815" xlink:href="#mec1149feb0" y="173.52"/>
      </g>
     </g>
     <g id="text_6">
      <!-- 25 -->
      <g transform="translate(416.162315 188.118438)scale(0.1 -0.1)">
       <use xlink:href="#DejaVuSans-50"/>
       <use x="63.623047" xlink:href="#DejaVuSans-53"/>
      </g>
     </g>
    </g>
    <g id="text_7">
     <!-- hour -->
     <defs>
      <path d="M 54.890625 33.015625 
L 54.890625 0 
L 45.90625 0 
L 45.90625 32.71875 
Q 45.90625 40.484375 42.875 44.328125 
Q 39.84375 48.1875 33.796875 48.1875 
Q 26.515625 48.1875 22.3125 43.546875 
Q 18.109375 38.921875 18.109375 30.90625 
L 18.109375 0 
L 9.078125 0 
L 9.078125 75.984375 
L 18.109375 75.984375 
L 18.109375 46.1875 
Q 21.34375 51.125 25.703125 53.5625 
Q 30.078125 56 35.796875 56 
Q 45.21875 56 50.046875 50.171875 
Q 54.890625 44.34375 54.890625 33.015625 
z
" id="DejaVuSans-104"/>
      <path d="M 30.609375 48.390625 
Q 23.390625 48.390625 19.1875 42.75 
Q 14.984375 37.109375 14.984375 27.296875 
Q 14.984375 17.484375 19.15625 11.84375 
Q 23.34375 6.203125 30.609375 6.203125 
Q 37.796875 6.203125 41.984375 11.859375 
Q 46.1875 17.53125 46.1875 27.296875 
Q 46.1875 37.015625 41.984375 42.703125 
Q 37.796875 48.390625 30.609375 48.390625 
z
M 30.609375 56 
Q 42.328125 56 49.015625 48.375 
Q 55.71875 40.765625 55.71875 27.296875 
Q 55.71875 13.875 49.015625 6.21875 
Q 42.328125 -1.421875 30.609375 -1.421875 
Q 18.84375 -1.421875 12.171875 6.21875 
Q 5.515625 13.875 5.515625 27.296875 
Q 5.515625 40.765625 12.171875 48.375 
Q 18.84375 56 30.609375 56 
z
" id="DejaVuSans-111"/>
      <path d="M 8.5 21.578125 
L 8.5 54.6875 
L 17.484375 54.6875 
L 17.484375 21.921875 
Q 17.484375 14.15625 20.5 10.265625 
Q 23.53125 6.390625 29.59375 6.390625 
Q 36.859375 6.390625 41.078125 11.03125 
Q 45.3125 15.671875 45.3125 23.6875 
L 45.3125 54.6875 
L 54.296875 54.6875 
L 54.296875 0 
L 45.3125 0 
L 45.3125 8.40625 
Q 42.046875 3.421875 37.71875 1 
Q 33.40625 -1.421875 27.6875 -1.421875 
Q 18.265625 -1.421875 13.375 4.4375 
Q 8.5 10.296875 8.5 21.578125 
z
M 31.109375 56 
z
" id="DejaVuSans-117"/>
      <path d="M 41.109375 46.296875 
Q 39.59375 47.171875 37.8125 47.578125 
Q 36.03125 48 33.890625 48 
Q 26.265625 48 22.1875 43.046875 
Q 18.109375 38.09375 18.109375 28.8125 
L 18.109375 0 
L 9.078125 0 
L 9.078125 54.6875 
L 18.109375 54.6875 
L 18.109375 46.1875 
Q 20.953125 51.171875 25.484375 53.578125 
Q 30.03125 56 36.53125 56 
Q 37.453125 56 38.578125 55.875 
Q 39.703125 55.765625 41.0625 55.515625 
z
" id="DejaVuSans-114"/>
     </defs>
     <g transform="translate(218.088281 201.796563)scale(0.1 -0.1)">
      <use xlink:href="#DejaVuSans-104"/>
      <use x="63.378906" xlink:href="#DejaVuSans-111"/>
      <use x="124.560547" xlink:href="#DejaVuSans-117"/>
      <use x="187.939453" xlink:href="#DejaVuSans-114"/>
     </g>
    </g>
   </g>
   <g id="matplotlib.axis_2">
    <g id="ytick_1">
     <g id="line2d_7">
      <defs>
       <path d="M 0 0 
L -3.5 0 
" id="m2e98bd2e5c" style="stroke:#000000;stroke-width:0.8;"/>
      </defs>
      <g>
       <use style="stroke:#000000;stroke-width:0.8;" x="34.240625" xlink:href="#m2e98bd2e5c" y="165.961612"/>
      </g>
     </g>
     <g id="text_8">
      <!-- 0 -->
      <g transform="translate(20.878125 169.760831)scale(0.1 -0.1)">
       <use xlink:href="#DejaVuSans-48"/>
      </g>
     </g>
    </g>
    <g id="ytick_2">
     <g id="line2d_8">
      <g>
       <use style="stroke:#000000;stroke-width:0.8;" x="34.240625" xlink:href="#m2e98bd2e5c" y="131.701917"/>
      </g>
     </g>
     <g id="text_9">
      <!-- 1 -->
      <g transform="translate(20.878125 135.501136)scale(0.1 -0.1)">
       <use xlink:href="#DejaVuSans-49"/>
      </g>
     </g>
    </g>
    <g id="ytick_3">
     <g id="line2d_9">
      <g>
       <use style="stroke:#000000;stroke-width:0.8;" x="34.240625" xlink:href="#m2e98bd2e5c" y="97.442223"/>
      </g>
     </g>
     <g id="text_10">
      <!-- 2 -->
      <g transform="translate(20.878125 101.241441)scale(0.1 -0.1)">
       <use xlink:href="#DejaVuSans-50"/>
      </g>
     </g>
    </g>
    <g id="ytick_4">
     <g id="line2d_10">
      <g>
       <use style="stroke:#000000;stroke-width:0.8;" x="34.240625" xlink:href="#m2e98bd2e5c" y="63.182528"/>
      </g>
     </g>
     <g id="text_11">
      <!-- 3 -->
      <defs>
       <path d="M 40.578125 39.3125 
Q 47.65625 37.796875 51.625 33 
Q 55.609375 28.21875 55.609375 21.1875 
Q 55.609375 10.40625 48.1875 4.484375 
Q 40.765625 -1.421875 27.09375 -1.421875 
Q 22.515625 -1.421875 17.65625 -0.515625 
Q 12.796875 0.390625 7.625 2.203125 
L 7.625 11.71875 
Q 11.71875 9.328125 16.59375 8.109375 
Q 21.484375 6.890625 26.8125 6.890625 
Q 36.078125 6.890625 40.9375 10.546875 
Q 45.796875 14.203125 45.796875 21.1875 
Q 45.796875 27.640625 41.28125 31.265625 
Q 36.765625 34.90625 28.71875 34.90625 
L 20.21875 34.90625 
L 20.21875 43.015625 
L 29.109375 43.015625 
Q 36.375 43.015625 40.234375 45.921875 
Q 44.09375 48.828125 44.09375 54.296875 
Q 44.09375 59.90625 40.109375 62.90625 
Q 36.140625 65.921875 28.71875 65.921875 
Q 24.65625 65.921875 20.015625 65.03125 
Q 15.375 64.15625 9.8125 62.3125 
L 9.8125 71.09375 
Q 15.4375 72.65625 20.34375 73.4375 
Q 25.25 74.21875 29.59375 74.21875 
Q 40.828125 74.21875 47.359375 69.109375 
Q 53.90625 64.015625 53.90625 55.328125 
Q 53.90625 49.265625 50.4375 45.09375 
Q 46.96875 40.921875 40.578125 39.3125 
z
" id="DejaVuSans-51"/>
      </defs>
      <g transform="translate(20.878125 66.981747)scale(0.1 -0.1)">
       <use xlink:href="#DejaVuSans-51"/>
      </g>
     </g>
    </g>
    <g id="ytick_5">
     <g id="line2d_11">
      <g>
       <use style="stroke:#000000;stroke-width:0.8;" x="34.240625" xlink:href="#m2e98bd2e5c" y="28.922833"/>
      </g>
     </g>
     <g id="text_12">
      <!-- 4 -->
      <defs>
       <path d="M 37.796875 64.3125 
L 12.890625 25.390625 
L 37.796875 25.390625 
z
M 35.203125 72.90625 
L 47.609375 72.90625 
L 47.609375 25.390625 
L 58.015625 25.390625 
L 58.015625 17.1875 
L 47.609375 17.1875 
L 47.609375 0 
L 37.796875 0 
L 37.796875 17.1875 
L 4.890625 17.1875 
L 4.890625 26.703125 
z
" id="DejaVuSans-52"/>
      </defs>
      <g transform="translate(20.878125 32.722052)scale(0.1 -0.1)">
       <use xlink:href="#DejaVuSans-52"/>
      </g>
     </g>
    </g>
    <g id="text_13">
     <!-- precipitation [mm/hour] -->
     <defs>
      <path d="M 18.109375 8.203125 
L 18.109375 -20.796875 
L 9.078125 -20.796875 
L 9.078125 54.6875 
L 18.109375 54.6875 
L 18.109375 46.390625 
Q 20.953125 51.265625 25.265625 53.625 
Q 29.59375 56 35.59375 56 
Q 45.5625 56 51.78125 48.09375 
Q 58.015625 40.1875 58.015625 27.296875 
Q 58.015625 14.40625 51.78125 6.484375 
Q 45.5625 -1.421875 35.59375 -1.421875 
Q 29.59375 -1.421875 25.265625 0.953125 
Q 20.953125 3.328125 18.109375 8.203125 
z
M 48.6875 27.296875 
Q 48.6875 37.203125 44.609375 42.84375 
Q 40.53125 48.484375 33.40625 48.484375 
Q 26.265625 48.484375 22.1875 42.84375 
Q 18.109375 37.203125 18.109375 27.296875 
Q 18.109375 17.390625 22.1875 11.75 
Q 26.265625 6.109375 33.40625 6.109375 
Q 40.53125 6.109375 44.609375 11.75 
Q 48.6875 17.390625 48.6875 27.296875 
z
" id="DejaVuSans-112"/>
      <path d="M 56.203125 29.59375 
L 56.203125 25.203125 
L 14.890625 25.203125 
Q 15.484375 15.921875 20.484375 11.0625 
Q 25.484375 6.203125 34.421875 6.203125 
Q 39.59375 6.203125 44.453125 7.46875 
Q 49.3125 8.734375 54.109375 11.28125 
L 54.109375 2.78125 
Q 49.265625 0.734375 44.1875 -0.34375 
Q 39.109375 -1.421875 33.890625 -1.421875 
Q 20.796875 -1.421875 13.15625 6.1875 
Q 5.515625 13.8125 5.515625 26.8125 
Q 5.515625 40.234375 12.765625 48.109375 
Q 20.015625 56 32.328125 56 
Q 43.359375 56 49.78125 48.890625 
Q 56.203125 41.796875 56.203125 29.59375 
z
M 47.21875 32.234375 
Q 47.125 39.59375 43.09375 43.984375 
Q 39.0625 48.390625 32.421875 48.390625 
Q 24.90625 48.390625 20.390625 44.140625 
Q 15.875 39.890625 15.1875 32.171875 
z
" id="DejaVuSans-101"/>
      <path d="M 48.78125 52.59375 
L 48.78125 44.1875 
Q 44.96875 46.296875 41.140625 47.34375 
Q 37.3125 48.390625 33.40625 48.390625 
Q 24.65625 48.390625 19.8125 42.84375 
Q 14.984375 37.3125 14.984375 27.296875 
Q 14.984375 17.28125 19.8125 11.734375 
Q 24.65625 6.203125 33.40625 6.203125 
Q 37.3125 6.203125 41.140625 7.25 
Q 44.96875 8.296875 48.78125 10.40625 
L 48.78125 2.09375 
Q 45.015625 0.34375 40.984375 -0.53125 
Q 36.96875 -1.421875 32.421875 -1.421875 
Q 20.0625 -1.421875 12.78125 6.34375 
Q 5.515625 14.109375 5.515625 27.296875 
Q 5.515625 40.671875 12.859375 48.328125 
Q 20.21875 56 33.015625 56 
Q 37.15625 56 41.109375 55.140625 
Q 45.0625 54.296875 48.78125 52.59375 
z
" id="DejaVuSans-99"/>
      <path d="M 9.421875 54.6875 
L 18.40625 54.6875 
L 18.40625 0 
L 9.421875 0 
z
M 9.421875 75.984375 
L 18.40625 75.984375 
L 18.40625 64.59375 
L 9.421875 64.59375 
z
" id="DejaVuSans-105"/>
      <path d="M 18.3125 70.21875 
L 18.3125 54.6875 
L 36.8125 54.6875 
L 36.8125 47.703125 
L 18.3125 47.703125 
L 18.3125 18.015625 
Q 18.3125 11.328125 20.140625 9.421875 
Q 21.96875 7.515625 27.59375 7.515625 
L 36.8125 7.515625 
L 36.8125 0 
L 27.59375 0 
Q 17.1875 0 13.234375 3.875 
Q 9.28125 7.765625 9.28125 18.015625 
L 9.28125 47.703125 
L 2.6875 47.703125 
L 2.6875 54.6875 
L 9.28125 54.6875 
L 9.28125 70.21875 
z
" id="DejaVuSans-116"/>
      <path d="M 34.28125 27.484375 
Q 23.390625 27.484375 19.1875 25 
Q 14.984375 22.515625 14.984375 16.5 
Q 14.984375 11.71875 18.140625 8.90625 
Q 21.296875 6.109375 26.703125 6.109375 
Q 34.1875 6.109375 38.703125 11.40625 
Q 43.21875 16.703125 43.21875 25.484375 
L 43.21875 27.484375 
z
M 52.203125 31.203125 
L 52.203125 0 
L 43.21875 0 
L 43.21875 8.296875 
Q 40.140625 3.328125 35.546875 0.953125 
Q 30.953125 -1.421875 24.3125 -1.421875 
Q 15.921875 -1.421875 10.953125 3.296875 
Q 6 8.015625 6 15.921875 
Q 6 25.140625 12.171875 29.828125 
Q 18.359375 34.515625 30.609375 34.515625 
L 43.21875 34.515625 
L 43.21875 35.40625 
Q 43.21875 41.609375 39.140625 45 
Q 35.0625 48.390625 27.6875 48.390625 
Q 23 48.390625 18.546875 47.265625 
Q 14.109375 46.140625 10.015625 43.890625 
L 10.015625 52.203125 
Q 14.9375 54.109375 19.578125 55.046875 
Q 24.21875 56 28.609375 56 
Q 40.484375 56 46.34375 49.84375 
Q 52.203125 43.703125 52.203125 31.203125 
z
" id="DejaVuSans-97"/>
      <path d="M 54.890625 33.015625 
L 54.890625 0 
L 45.90625 0 
L 45.90625 32.71875 
Q 45.90625 40.484375 42.875 44.328125 
Q 39.84375 48.1875 33.796875 48.1875 
Q 26.515625 48.1875 22.3125 43.546875 
Q 18.109375 38.921875 18.109375 30.90625 
L 18.109375 0 
L 9.078125 0 
L 9.078125 54.6875 
L 18.109375 54.6875 
L 18.109375 46.1875 
Q 21.34375 51.125 25.703125 53.5625 
Q 30.078125 56 35.796875 56 
Q 45.21875 56 50.046875 50.171875 
Q 54.890625 44.34375 54.890625 33.015625 
z
" id="DejaVuSans-110"/>
      <path id="DejaVuSans-32"/>
      <path d="M 8.59375 75.984375 
L 29.296875 75.984375 
L 29.296875 69 
L 17.578125 69 
L 17.578125 -6.203125 
L 29.296875 -6.203125 
L 29.296875 -13.1875 
L 8.59375 -13.1875 
z
" id="DejaVuSans-91"/>
      <path d="M 52 44.1875 
Q 55.375 50.25 60.0625 53.125 
Q 64.75 56 71.09375 56 
Q 79.640625 56 84.28125 50.015625 
Q 88.921875 44.046875 88.921875 33.015625 
L 88.921875 0 
L 79.890625 0 
L 79.890625 32.71875 
Q 79.890625 40.578125 77.09375 44.375 
Q 74.3125 48.1875 68.609375 48.1875 
Q 61.625 48.1875 57.5625 43.546875 
Q 53.515625 38.921875 53.515625 30.90625 
L 53.515625 0 
L 44.484375 0 
L 44.484375 32.71875 
Q 44.484375 40.625 41.703125 44.40625 
Q 38.921875 48.1875 33.109375 48.1875 
Q 26.21875 48.1875 22.15625 43.53125 
Q 18.109375 38.875 18.109375 30.90625 
L 18.109375 0 
L 9.078125 0 
L 9.078125 54.6875 
L 18.109375 54.6875 
L 18.109375 46.1875 
Q 21.1875 51.21875 25.484375 53.609375 
Q 29.78125 56 35.6875 56 
Q 41.65625 56 45.828125 52.96875 
Q 50 49.953125 52 44.1875 
z
" id="DejaVuSans-109"/>
      <path d="M 25.390625 72.90625 
L 33.6875 72.90625 
L 8.296875 -9.28125 
L 0 -9.28125 
z
" id="DejaVuSans-47"/>
      <path d="M 30.421875 75.984375 
L 30.421875 -13.1875 
L 9.71875 -13.1875 
L 9.71875 -6.203125 
L 21.390625 -6.203125 
L 21.390625 69 
L 9.71875 69 
L 9.71875 75.984375 
z
" id="DejaVuSans-93"/>
     </defs>
     <g transform="translate(14.798438 150.335781)rotate(-90)scale(0.1 -0.1)">
      <use xlink:href="#DejaVuSans-112"/>
      <use x="63.476562" xlink:href="#DejaVuSans-114"/>
      <use x="104.558594" xlink:href="#DejaVuSans-101"/>
      <use x="166.082031" xlink:href="#DejaVuSans-99"/>
      <use x="221.0625" xlink:href="#DejaVuSans-105"/>
      <use x="248.845703" xlink:href="#DejaVuSans-112"/>
      <use x="312.322266" xlink:href="#DejaVuSans-105"/>
      <use x="340.105469" xlink:href="#DejaVuSans-116"/>
      <use x="379.314453" xlink:href="#DejaVuSans-97"/>
      <use x="440.59375" xlink:href="#DejaVuSans-116"/>
      <use x="479.802734" xlink:href="#DejaVuSans-105"/>
      <use x="507.585938" xlink:href="#DejaVuSans-111"/>
      <use x="568.767578" xlink:href="#DejaVuSans-110"/>
      <use x="632.146484" xlink:href="#DejaVuSans-32"/>
      <use x="663.933594" xlink:href="#DejaVuSans-91"/>
      <use x="702.947266" xlink:href="#DejaVuSans-109"/>
      <use x="800.359375" xlink:href="#DejaVuSans-109"/>
      <use x="897.771484" xlink:href="#DejaVuSans-47"/>
      <use x="931.462891" xlink:href="#DejaVuSans-104"/>
      <use x="994.841797" xlink:href="#DejaVuSans-111"/>
      <use x="1056.023438" xlink:href="#DejaVuSans-117"/>
      <use x="1119.402344" xlink:href="#DejaVuSans-114"/>
      <use x="1160.515625" xlink:href="#DejaVuSans-93"/>
     </g>
    </g>
   </g>
   <g id="line2d_12">
    <path clip-path="url(#p8d1877d430)" d="M 51.99517 161.86555 
L 67.433906 159.671182 
L 82.872641 162.171883 
L 98.311376 164.233724 
L 113.750111 164.220471 
L 129.188846 132.311668 
L 144.627582 137.160529 
L 160.066317 143.870252 
L 175.505052 159.402231 
L 190.943787 151.940441 
L 206.382522 151.222127 
L 221.821257 139.92317 
L 237.259993 163.440285 
L 252.698728 165.691478 
L 268.137463 165.752543 
L 283.576198 165.790297 
L 299.014933 165.79638 
L 314.453668 165.841424 
L 329.892404 165.875966 
L 345.331139 165.913889 
L 360.769874 165.931353 
L 376.208609 165.952425 
L 391.647344 165.944678 
L 407.08608 165.642964 
" style="fill:none;stroke:#1b9e77;stroke-linecap:square;stroke-opacity:0.5;stroke-width:1.5;"/>
   </g>
   <g id="line2d_13">
    <path clip-path="url(#p8d1877d430)" d="M 51.99517 164.941332 
L 67.433906 163.955103 
L 82.872641 156.417942 
L 98.311376 138.806299 
L 113.750111 136.951688 
L 129.188846 140.646584 
L 144.627582 134.996121 
L 160.066317 150.511291 
L 175.505052 162.561053 
L 190.943787 163.337712 
L 206.382522 160.339802 
L 221.821257 157.889241 
L 237.259993 164.661259 
L 252.698728 165.815696 
L 268.137463 165.877974 
L 283.576198 165.894112 
L 299.014933 165.894356 
L 314.453668 165.824449 
L 329.892404 165.913644 
L 345.331139 165.943847 
L 360.769874 165.793586 
L 376.208609 164.831687 
L 391.647344 162.042226 
L 407.08608 165.719901 
" style="fill:none;stroke:#1b9e77;stroke-linecap:square;stroke-opacity:0.5;stroke-width:1.5;"/>
   </g>
   <g id="line2d_14">
    <path clip-path="url(#p8d1877d430)" d="M 51.99517 165.90451 
L 67.433906 165.803066 
L 82.872641 165.829697 
L 98.311376 165.89417 
L 113.750111 165.916584 
L 129.188846 165.938599 
L 144.627582 165.944497 
L 160.066317 165.950131 
L 175.505052 165.949765 
L 190.943787 165.949233 
L 206.382522 165.93752 
L 221.821257 165.891191 
L 237.259993 165.44968 
L 252.698728 163.046676 
L 268.137463 147.711499 
L 283.576198 148.816831 
L 299.014933 151.276328 
L 314.453668 147.927163 
L 329.892404 135.857924 
L 345.331139 145.994712 
L 360.769874 152.367631 
L 376.208609 150.360081 
L 391.647344 150.958475 
L 407.08608 164.89095 
" style="fill:none;stroke:#1b9e77;stroke-linecap:square;stroke-opacity:0.5;stroke-width:1.5;"/>
   </g>
   <g id="line2d_15">
    <path clip-path="url(#p8d1877d430)" d="M 51.99517 165.880533 
L 67.433906 165.781738 
L 82.872641 165.797472 
L 98.311376 165.849105 
L 113.750111 165.852312 
L 129.188846 165.92472 
L 144.627582 165.941397 
L 160.066317 165.899849 
L 175.505052 165.865753 
L 190.943787 165.896678 
L 206.382522 162.326485 
L 221.821257 128.294219 
L 237.259993 145.499943 
L 252.698728 153.650876 
L 268.137463 104.032889 
L 283.576198 139.436739 
L 299.014933 164.770981 
L 314.453668 165.799238 
L 329.892404 165.910175 
L 345.331139 165.846055 
L 360.769874 165.518791 
L 376.208609 165.877232 
L 391.647344 165.817863 
L 407.08608 164.095876 
" style="fill:none;stroke:#1b9e77;stroke-linecap:square;stroke-opacity:0.5;stroke-width:1.5;"/>
   </g>
   <g id="line2d_16">
    <path clip-path="url(#p8d1877d430)" d="M 51.99517 165.215029 
L 67.433906 161.356594 
L 82.872641 162.897335 
L 98.311376 164.313613 
L 113.750111 164.487994 
L 129.188846 165.226605 
L 144.627582 165.657486 
L 160.066317 165.776527 
L 175.505052 165.61757 
L 190.943787 165.657664 
L 206.382522 164.250934 
L 221.821257 92.041051 
L 237.259993 157.967497 
L 252.698728 151.759876 
L 268.137463 128.393867 
L 283.576198 156.633548 
L 299.014933 164.674102 
L 314.453668 165.803295 
L 329.892404 165.913241 
L 345.331139 165.838548 
L 360.769874 164.677123 
L 376.208609 165.862691 
L 391.647344 165.942502 
L 407.08608 159.602214 
" style="fill:none;stroke:#1b9e77;stroke-linecap:square;stroke-opacity:0.5;stroke-width:1.5;"/>
   </g>
   <g id="line2d_17">
    <path clip-path="url(#p8d1877d430)" d="M 51.99517 165.812836 
L 67.433906 165.551002 
L 82.872641 165.614558 
L 98.311376 165.786295 
L 113.750111 165.850962 
L 129.188846 165.911136 
L 144.627582 165.92277 
L 160.066317 165.905711 
L 175.505052 165.666119 
L 190.943787 164.868595 
L 206.382522 163.041445 
L 221.821257 160.792111 
L 237.259993 155.978859 
L 252.698728 146.18622 
L 268.137463 144.624732 
L 283.576198 140.166598 
L 299.014933 153.631726 
L 314.453668 149.42254 
L 329.892404 144.051228 
L 345.331139 153.607864 
L 360.769874 163.257183 
L 376.208609 162.007959 
L 391.647344 160.19159 
L 407.08608 161.716871 
" style="fill:none;stroke:#1b9e77;stroke-linecap:square;stroke-opacity:0.5;stroke-width:1.5;"/>
   </g>
   <g id="line2d_18">
    <path clip-path="url(#p8d1877d430)" d="M 51.99517 155.590666 
L 67.433906 134.460231 
L 82.872641 135.187546 
L 98.311376 147.266239 
L 113.750111 151.625337 
L 129.188846 158.06873 
L 144.627582 161.224338 
L 160.066317 163.109532 
L 175.505052 163.784701 
L 190.943787 164.420424 
L 206.382522 164.898472 
L 221.821257 165.214928 
L 237.259993 165.35694 
L 252.698728 165.728026 
L 268.137463 165.852882 
L 283.576198 165.845547 
L 299.014933 165.826018 
L 314.453668 165.872845 
L 329.892404 165.88228 
L 345.331139 165.821291 
L 360.769874 165.750102 
L 376.208609 165.69509 
L 391.647344 162.82269 
L 407.08608 130.262057 
" style="fill:none;stroke:#1b9e77;stroke-linecap:square;stroke-opacity:0.5;stroke-width:1.5;"/>
   </g>
   <g id="line2d_19">
    <path clip-path="url(#p8d1877d430)" d="M 51.99517 165.568744 
L 67.433906 165.856097 
L 82.872641 165.856493 
L 98.311376 165.858756 
L 113.750111 164.897343 
L 129.188846 155.389348 
L 144.627582 149.9243 
L 160.066317 150.044126 
L 175.505052 109.460415 
L 190.943787 114.808865 
L 206.382522 161.842637 
L 221.821257 164.481184 
L 237.259993 164.871843 
L 252.698728 165.503092 
L 268.137463 165.646555 
L 283.576198 165.870478 
L 299.014933 165.600028 
L 314.453668 165.681058 
L 329.892404 165.636372 
L 345.331139 163.843939 
L 360.769874 165.366582 
L 376.208609 165.805192 
L 391.647344 165.792785 
L 407.08608 161.960684 
" style="fill:none;stroke:#1b9e77;stroke-linecap:square;stroke-opacity:0.5;stroke-width:1.5;"/>
   </g>
   <g id="line2d_20">
    <path clip-path="url(#p8d1877d430)" d="M 51.99517 165.928943 
L 67.433906 165.877242 
L 82.872641 165.810037 
L 98.311376 160.000401 
L 113.750111 123.353638 
L 129.188846 144.11526 
L 144.627582 74.150349 
L 160.066317 163.919913 
L 175.505052 165.784061 
L 190.943787 165.862607 
L 206.382522 165.932841 
L 221.821257 165.940696 
L 237.259993 165.853486 
L 252.698728 165.853324 
L 268.137463 165.229835 
L 283.576198 165.821698 
L 299.014933 165.630568 
L 314.453668 165.321059 
L 329.892404 165.691822 
L 345.331139 165.811238 
L 360.769874 165.851728 
L 376.208609 165.930986 
L 391.647344 165.951221 
L 407.08608 165.943956 
" style="fill:none;stroke:#1b9e77;stroke-linecap:square;stroke-opacity:0.5;stroke-width:1.5;"/>
   </g>
   <g id="line2d_21">
    <path clip-path="url(#p8d1877d430)" d="M 51.99517 162.013053 
L 67.433906 159.031176 
L 82.872641 145.554177 
L 98.311376 141.463256 
L 113.750111 142.510325 
L 129.188846 144.112107 
L 144.627582 123.606254 
L 160.066317 148.857701 
L 175.505052 163.890869 
L 190.943787 164.342212 
L 206.382522 165.330645 
L 221.821257 165.632978 
L 237.259993 165.835708 
L 252.698728 165.909803 
L 268.137463 165.937136 
L 283.576198 165.930445 
L 299.014933 165.87796 
L 314.453668 165.598336 
L 329.892404 165.37022 
L 345.331139 165.790777 
L 360.769874 165.659444 
L 376.208609 165.692431 
L 391.647344 165.735998 
L 407.08608 165.8839 
" style="fill:none;stroke:#1b9e77;stroke-linecap:square;stroke-opacity:0.5;stroke-width:1.5;"/>
   </g>
   <g id="line2d_22">
    <path clip-path="url(#p8d1877d430)" d="M 51.99517 162.791603 
L 67.433906 158.649828 
L 82.872641 147.267773 
L 98.311376 149.702802 
L 113.750111 148.330647 
L 129.188846 153.316825 
L 144.627582 162.239054 
L 160.066317 157.593648 
L 175.505052 119.030792 
L 190.943787 135.891746 
L 206.382522 165.323041 
L 221.821257 165.699893 
L 237.259993 165.6573 
L 252.698728 165.699978 
L 268.137463 165.821637 
L 283.576198 165.872693 
L 299.014933 165.883588 
L 314.453668 165.911828 
L 329.892404 165.929093 
L 345.331139 165.934667 
L 360.769874 165.923708 
L 376.208609 165.933801 
L 391.647344 165.645858 
L 407.08608 165.515107 
" style="fill:none;stroke:#1b9e77;stroke-linecap:square;stroke-opacity:0.5;stroke-width:1.5;"/>
   </g>
   <g id="line2d_23">
    <path clip-path="url(#p8d1877d430)" d="M 51.99517 165.438375 
L 67.433906 164.626003 
L 82.872641 164.717879 
L 98.311376 165.245626 
L 113.750111 165.441538 
L 129.188846 165.747423 
L 144.627582 165.862752 
L 160.066317 165.911237 
L 175.505052 165.915809 
L 190.943787 165.933275 
L 206.382522 165.935005 
L 221.821257 165.659845 
L 237.259993 164.289899 
L 252.698728 165.120152 
L 268.137463 128.61524 
L 283.576198 80.867973 
L 299.014933 155.410875 
L 314.453668 164.181121 
L 329.892404 164.876425 
L 345.331139 164.150275 
L 360.769874 162.380737 
L 376.208609 163.530211 
L 391.647344 163.580459 
L 407.08608 152.128774 
" style="fill:none;stroke:#1b9e77;stroke-linecap:square;stroke-opacity:0.5;stroke-width:1.5;"/>
   </g>
   <g id="line2d_24">
    <path clip-path="url(#p8d1877d430)" d="M 51.99517 165.839016 
L 67.433906 165.935887 
L 82.872641 165.74019 
L 98.311376 165.59757 
L 113.750111 165.320682 
L 129.188846 152.89246 
L 144.627582 163.256539 
L 160.066317 165.447808 
L 175.505052 165.509547 
L 190.943787 165.537609 
L 206.382522 165.645767 
L 221.821257 165.754404 
L 237.259993 163.874547 
L 252.698728 158.032799 
L 268.137463 145.873321 
L 283.576198 117.577875 
L 299.014933 121.059703 
L 314.453668 154.839454 
L 329.892404 164.393793 
L 345.331139 165.202748 
L 360.769874 165.478672 
L 376.208609 163.67593 
L 391.647344 158.579739 
L 407.08608 164.500857 
" style="fill:none;stroke:#1b9e77;stroke-linecap:square;stroke-opacity:0.5;stroke-width:1.5;"/>
   </g>
   <g id="line2d_25">
    <path clip-path="url(#p8d1877d430)" d="M 51.99517 165.878933 
L 67.433906 165.950794 
L 82.872641 165.950858 
L 98.311376 165.909714 
L 113.750111 165.561855 
L 129.188846 162.400726 
L 144.627582 165.816713 
L 160.066317 163.35991 
L 175.505052 160.453954 
L 190.943787 151.492555 
L 206.382522 84.690037 
L 221.821257 113.85538 
L 237.259993 165.838858 
L 252.698728 165.519642 
L 268.137463 161.04353 
L 283.576198 165.166315 
L 299.014933 165.728164 
L 314.453668 165.953129 
L 329.892404 165.944984 
L 345.331139 165.910981 
L 360.769874 165.891732 
L 376.208609 165.851046 
L 391.647344 165.943289 
L 407.08608 165.453818 
" style="fill:none;stroke:#1b9e77;stroke-linecap:square;stroke-opacity:0.5;stroke-width:1.5;"/>
   </g>
   <g id="line2d_26">
    <path clip-path="url(#p8d1877d430)" d="M 51.99517 165.865402 
L 67.433906 165.688269 
L 82.872641 165.769284 
L 98.311376 165.867711 
L 113.750111 165.904499 
L 129.188846 165.918649 
L 144.627582 165.922981 
L 160.066317 165.940275 
L 175.505052 165.948665 
L 190.943787 165.952745 
L 206.382522 165.951168 
L 221.821257 165.953884 
L 237.259993 164.90674 
L 252.698728 163.079812 
L 268.137463 159.163827 
L 283.576198 151.135382 
L 299.014933 159.037127 
L 314.453668 161.724466 
L 329.892404 161.276723 
L 345.331139 155.648118 
L 360.769874 134.507068 
L 376.208609 111.436535 
L 391.647344 141.590445 
L 407.08608 161.377138 
" style="fill:none;stroke:#1b9e77;stroke-linecap:square;stroke-opacity:0.5;stroke-width:1.5;"/>
   </g>
   <g id="line2d_27">
    <path clip-path="url(#p8d1877d430)" d="M 51.99517 165.886137 
L 67.433906 165.657785 
L 82.872641 165.469924 
L 98.311376 165.089199 
L 113.750111 156.585185 
L 129.188846 148.966611 
L 144.627582 102.298129 
L 160.066317 153.139164 
L 175.505052 165.301707 
L 190.943787 165.690552 
L 206.382522 165.891158 
L 221.821257 165.85622 
L 237.259993 165.233163 
L 252.698728 165.697217 
L 268.137463 165.937341 
L 283.576198 165.491593 
L 299.014933 159.491945 
L 314.453668 163.548519 
L 329.892404 163.51037 
L 345.331139 153.962487 
L 360.769874 147.875322 
L 376.208609 152.489888 
L 391.647344 161.054767 
L 407.08608 165.442533 
" style="fill:none;stroke:#1b9e77;stroke-linecap:square;stroke-opacity:0.5;stroke-width:1.5;"/>
   </g>
   <g id="line2d_28">
    <path clip-path="url(#p8d1877d430)" d="M 51.99517 165.935437 
L 67.433906 165.893853 
L 82.872641 165.894306 
L 98.311376 165.928688 
L 113.750111 165.92669 
L 129.188846 165.915547 
L 144.627582 161.67462 
L 160.066317 157.815507 
L 175.505052 160.056834 
L 190.943787 155.318445 
L 206.382522 153.950491 
L 221.821257 153.293434 
L 237.259993 156.933915 
L 252.698728 152.846589 
L 268.137463 165.683645 
L 283.576198 165.533612 
L 299.014933 165.429016 
L 314.453668 165.544198 
L 329.892404 160.366324 
L 345.331139 132.211908 
L 360.769874 150.016398 
L 376.208609 143.234199 
L 391.647344 156.416047 
L 407.08608 163.747204 
" style="fill:none;stroke:#1b9e77;stroke-linecap:square;stroke-opacity:0.5;stroke-width:1.5;"/>
   </g>
   <g id="line2d_29">
    <path clip-path="url(#p8d1877d430)" d="M 51.99517 161.856899 
L 67.433906 160.168628 
L 82.872641 153.883295 
L 98.311376 150.643931 
L 113.750111 153.032194 
L 129.188846 152.16623 
L 144.627582 151.102294 
L 160.066317 153.561617 
L 175.505052 143.411202 
L 190.943787 144.166037 
L 206.382522 154.815235 
L 221.821257 155.171649 
L 237.259993 162.490559 
L 252.698728 163.594256 
L 268.137463 163.979329 
L 283.576198 165.489355 
L 299.014933 165.585386 
L 314.453668 165.382463 
L 329.892404 165.669791 
L 345.331139 165.790076 
L 360.769874 165.815951 
L 376.208609 165.896001 
L 391.647344 165.938191 
L 407.08608 165.956336 
" style="fill:none;stroke:#1b9e77;stroke-linecap:square;stroke-opacity:0.5;stroke-width:1.5;"/>
   </g>
   <g id="line2d_30">
    <path clip-path="url(#p8d1877d430)" d="M 51.99517 165.69496 
L 67.433906 165.892459 
L 82.872641 165.848382 
L 98.311376 165.932651 
L 113.750111 165.910419 
L 129.188846 165.915571 
L 144.627582 165.889697 
L 160.066317 165.822433 
L 175.505052 165.566646 
L 190.943787 163.356674 
L 206.382522 161.77988 
L 221.821257 164.668306 
L 237.259993 162.831779 
L 252.698728 84.783685 
L 268.137463 104.774107 
L 283.576198 157.651379 
L 299.014933 163.653889 
L 314.453668 164.877319 
L 329.892404 165.418818 
L 345.331139 165.72596 
L 360.769874 165.820206 
L 376.208609 165.900801 
L 391.647344 165.905192 
L 407.08608 165.945691 
" style="fill:none;stroke:#1b9e77;stroke-linecap:square;stroke-opacity:0.5;stroke-width:1.5;"/>
   </g>
   <g id="line2d_31">
    <path clip-path="url(#p8d1877d430)" d="M 51.99517 165.757167 
L 67.433906 165.537426 
L 82.872641 165.634329 
L 98.311376 165.802876 
L 113.750111 165.835894 
L 129.188846 165.902328 
L 144.627582 165.901414 
L 160.066317 165.682439 
L 175.505052 162.21466 
L 190.943787 158.621241 
L 206.382522 147.677695 
L 221.821257 142.260584 
L 237.259993 139.193669 
L 252.698728 106.639508 
L 268.137463 144.771846 
L 283.576198 164.19203 
L 299.014933 164.928331 
L 314.453668 164.883109 
L 329.892404 165.261517 
L 345.331139 165.578549 
L 360.769874 165.673952 
L 376.208609 165.810428 
L 391.647344 165.866558 
L 407.08608 165.939364 
" style="fill:none;stroke:#1b9e77;stroke-linecap:square;stroke-opacity:0.5;stroke-width:1.5;"/>
   </g>
   <g id="line2d_32">
    <path clip-path="url(#p8d1877d430)" d="M 51.99517 165.901946 
L 67.433906 165.785859 
L 82.872641 165.804313 
L 98.311376 165.853386 
L 113.750111 165.849837 
L 129.188846 165.903381 
L 144.627582 165.4691 
L 160.066317 162.985139 
L 175.505052 161.790773 
L 190.943787 161.733747 
L 206.382522 153.294155 
L 221.821257 143.645265 
L 237.259993 133.616678 
L 252.698728 142.30906 
L 268.137463 157.358638 
L 283.576198 155.492397 
L 299.014933 153.407755 
L 314.453668 157.044102 
L 329.892404 164.436135 
L 345.331139 165.409744 
L 360.769874 165.691712 
L 376.208609 156.885522 
L 391.647344 156.240132 
L 407.08608 163.658134 
" style="fill:none;stroke:#1b9e77;stroke-linecap:square;stroke-opacity:0.5;stroke-width:1.5;"/>
   </g>
   <g id="line2d_33">
    <path clip-path="url(#p8d1877d430)" d="M 51.99517 165.916852 
L 67.433906 165.954671 
L 82.872641 165.907043 
L 98.311376 165.866152 
L 113.750111 162.83614 
L 129.188846 140.068992 
L 144.627582 161.201526 
L 160.066317 165.414794 
L 175.505052 165.324704 
L 190.943787 160.107 
L 206.382522 126.973601 
L 221.821257 122.451425 
L 237.259993 154.154202 
L 252.698728 153.559274 
L 268.137463 157.165757 
L 283.576198 163.864803 
L 299.014933 165.831845 
L 314.453668 165.704534 
L 329.892404 164.653325 
L 345.331139 163.372944 
L 360.769874 164.306074 
L 376.208609 165.54014 
L 391.647344 165.191145 
L 407.08608 164.199967 
" style="fill:none;stroke:#1b9e77;stroke-linecap:square;stroke-opacity:0.5;stroke-width:1.5;"/>
   </g>
   <g id="line2d_34">
    <path clip-path="url(#p8d1877d430)" d="M 51.99517 161.830058 
L 67.433906 159.863653 
L 82.872641 158.619436 
L 98.311376 157.024678 
L 113.750111 154.526506 
L 129.188846 152.477135 
L 144.627582 161.723056 
L 160.066317 163.299187 
L 175.505052 165.144643 
L 190.943787 153.273824 
L 206.382522 149.620664 
L 221.821257 160.219229 
L 237.259993 158.857751 
L 252.698728 151.693727 
L 268.137463 157.849561 
L 283.576198 153.28695 
L 299.014933 152.754401 
L 314.453668 155.650222 
L 329.892404 164.484306 
L 345.331139 164.451119 
L 360.769874 163.605125 
L 376.208609 164.561734 
L 391.647344 164.905462 
L 407.08608 165.844484 
" style="fill:none;stroke:#1b9e77;stroke-linecap:square;stroke-opacity:0.5;stroke-width:1.5;"/>
   </g>
   <g id="line2d_35">
    <path clip-path="url(#p8d1877d430)" d="M 51.99517 165.939212 
L 67.433906 165.888109 
L 82.872641 165.632451 
L 98.311376 164.828803 
L 113.750111 164.639977 
L 129.188846 163.938655 
L 144.627582 163.599053 
L 160.066317 164.312566 
L 175.505052 165.63569 
L 190.943787 165.322805 
L 206.382522 162.032814 
L 221.821257 157.307788 
L 237.259993 151.779024 
L 252.698728 141.781261 
L 268.137463 147.898936 
L 283.576198 155.746278 
L 299.014933 146.528686 
L 314.453668 154.019134 
L 329.892404 148.019937 
L 345.331139 144.757868 
L 360.769874 160.422601 
L 376.208609 164.5651 
L 391.647344 165.149049 
L 407.08608 165.821116 
" style="fill:none;stroke:#1b9e77;stroke-linecap:square;stroke-opacity:0.5;stroke-width:1.5;"/>
   </g>
   <g id="line2d_36">
    <path clip-path="url(#p8d1877d430)" d="M 51.99517 165.344748 
L 67.433906 163.463953 
L 82.872641 163.137054 
L 98.311376 163.130136 
L 113.750111 148.321668 
L 129.188846 161.456915 
L 144.627582 147.138101 
L 160.066317 107.296382 
L 175.505052 148.674369 
L 190.943787 157.275359 
L 206.382522 163.027882 
L 221.821257 163.964606 
L 237.259993 165.050469 
L 252.698728 165.866934 
L 268.137463 165.847561 
L 283.576198 165.137626 
L 299.014933 162.624255 
L 314.453668 164.932726 
L 329.892404 165.922908 
L 345.331139 165.469407 
L 360.769874 156.268935 
L 376.208609 163.186194 
L 391.647344 163.065614 
L 407.08608 159.963111 
" style="fill:none;stroke:#1b9e77;stroke-linecap:square;stroke-opacity:0.5;stroke-width:1.5;"/>
   </g>
   <g id="line2d_37">
    <path clip-path="url(#p8d1877d430)" d="M 51.99517 165.700418 
L 67.433906 165.736835 
L 82.872641 164.263768 
L 98.311376 158.884311 
L 113.750111 122.135142 
L 129.188846 142.717357 
L 144.627582 144.32231 
L 160.066317 149.523441 
L 175.505052 157.657791 
L 190.943787 150.168495 
L 206.382522 157.599213 
L 221.821257 161.392509 
L 237.259993 150.416015 
L 252.698728 165.846169 
L 268.137463 165.891358 
L 283.576198 165.919497 
L 299.014933 165.953484 
L 314.453668 165.956121 
L 329.892404 165.953874 
L 345.331139 165.952899 
L 360.769874 165.918419 
L 376.208609 165.904398 
L 391.647344 165.88337 
L 407.08608 165.869721 
" style="fill:none;stroke:#1b9e77;stroke-linecap:square;stroke-opacity:0.5;stroke-width:1.5;"/>
   </g>
   <g id="line2d_38">
    <path clip-path="url(#p8d1877d430)" d="M 51.99517 165.627972 
L 67.433906 165.209364 
L 82.872641 165.491462 
L 98.311376 165.771534 
L 113.750111 165.839592 
L 129.188846 165.870801 
L 144.627582 165.864053 
L 160.066317 165.917673 
L 175.505052 165.762883 
L 190.943787 163.105142 
L 206.382522 163.425605 
L 221.821257 164.776025 
L 237.259993 128.288971 
L 252.698728 86.069278 
L 268.137463 132.978679 
L 283.576198 161.726177 
L 299.014933 164.663002 
L 314.453668 164.8337 
L 329.892404 165.492902 
L 345.331139 165.663845 
L 360.769874 165.639893 
L 376.208609 165.78303 
L 391.647344 165.847992 
L 407.08608 165.917338 
" style="fill:none;stroke:#1b9e77;stroke-linecap:square;stroke-opacity:0.5;stroke-width:1.5;"/>
   </g>
   <g id="line2d_39">
    <path clip-path="url(#p8d1877d430)" d="M 51.99517 165.877601 
L 67.433906 164.544023 
L 82.872641 159.626212 
L 98.311376 141.960225 
L 113.750111 165.529672 
L 129.188846 165.715531 
L 144.627582 165.768837 
L 160.066317 165.860094 
L 175.505052 165.87003 
L 190.943787 165.915927 
L 206.382522 165.859065 
L 221.821257 165.905394 
L 237.259993 164.946481 
L 252.698728 163.812988 
L 268.137463 162.858526 
L 283.576198 158.18009 
L 299.014933 76.717361 
L 314.453668 154.839249 
L 329.892404 164.127083 
L 345.331139 152.063443 
L 360.769874 163.704585 
L 376.208609 165.080121 
L 391.647344 165.617905 
L 407.08608 165.186463 
" style="fill:none;stroke:#1b9e77;stroke-linecap:square;stroke-opacity:0.5;stroke-width:1.5;"/>
   </g>
   <g id="line2d_40">
    <path clip-path="url(#p8d1877d430)" d="M 51.99517 165.880337 
L 67.433906 165.693621 
L 82.872641 165.745498 
L 98.311376 165.82322 
L 113.750111 165.833588 
L 129.188846 165.893889 
L 144.627582 165.923835 
L 160.066317 165.937656 
L 175.505052 165.93438 
L 190.943787 165.93509 
L 206.382522 165.896433 
L 221.821257 159.608995 
L 237.259993 141.863222 
L 252.698728 138.577642 
L 268.137463 115.894575 
L 283.576198 126.931744 
L 299.014933 156.21434 
L 314.453668 162.668599 
L 329.892404 165.226626 
L 345.331139 165.533892 
L 360.769874 165.026135 
L 376.208609 165.731381 
L 391.647344 165.925797 
L 407.08608 161.866421 
" style="fill:none;stroke:#1b9e77;stroke-linecap:square;stroke-opacity:0.5;stroke-width:1.5;"/>
   </g>
   <g id="line2d_41">
    <path clip-path="url(#p8d1877d430)" d="M 51.99517 151.696605 
L 67.433906 157.209358 
L 82.872641 154.315265 
L 98.311376 164.007049 
L 113.750111 163.634489 
L 129.188846 165.612325 
L 144.627582 165.858313 
L 160.066317 164.96702 
L 175.505052 159.575318 
L 190.943787 108.435916 
L 206.382522 123.067711 
L 221.821257 160.67323 
L 237.259993 160.569256 
L 252.698728 160.247622 
L 268.137463 164.496009 
L 283.576198 165.075368 
L 299.014933 165.246344 
L 314.453668 165.561997 
L 329.892404 165.749045 
L 345.331139 165.896826 
L 360.769874 165.932608 
L 376.208609 165.953915 
L 391.647344 165.952786 
L 407.08608 165.832537 
" style="fill:none;stroke:#1b9e77;stroke-linecap:square;stroke-opacity:0.5;stroke-width:1.5;"/>
   </g>
   <g id="line2d_42">
    <path clip-path="url(#p8d1877d430)" d="M 51.99517 163.155213 
L 67.433906 164.521119 
L 82.872641 164.887277 
L 98.311376 165.509946 
L 113.750111 165.680471 
L 129.188846 165.365179 
L 144.627582 165.859608 
L 160.066317 165.870002 
L 175.505052 165.834294 
L 190.943787 165.903889 
L 206.382522 162.193425 
L 221.821257 161.603489 
L 237.259993 165.892187 
L 252.698728 165.726338 
L 268.137463 165.8114 
L 283.576198 165.195085 
L 299.014933 155.662141 
L 314.453668 165.567858 
L 329.892404 165.707258 
L 345.331139 159.722227 
L 360.769874 114.072 
L 376.208609 114.532062 
L 391.647344 141.896799 
L 407.08608 159.397643 
" style="fill:none;stroke:#1b9e77;stroke-linecap:square;stroke-opacity:0.5;stroke-width:1.5;"/>
   </g>
   <g id="line2d_43">
    <path clip-path="url(#p8d1877d430)" d="M 51.99517 150.529408 
L 67.433906 120.647187 
L 82.872641 130.89597 
L 98.311376 151.25293 
L 113.750111 164.945283 
L 129.188846 165.433639 
L 144.627582 165.73518 
L 160.066317 165.848672 
L 175.505052 165.863393 
L 190.943787 165.900335 
L 206.382522 165.921959 
L 221.821257 165.946607 
L 237.259993 165.955368 
L 252.698728 165.959296 
L 268.137463 165.952922 
L 283.576198 164.943556 
L 299.014933 162.968063 
L 314.453668 160.072035 
L 329.892404 155.509169 
L 345.331139 156.581298 
L 360.769874 155.506468 
L 376.208609 157.92134 
L 391.647344 160.630396 
L 407.08608 164.646433 
" style="fill:none;stroke:#1b9e77;stroke-linecap:square;stroke-opacity:0.5;stroke-width:1.5;"/>
   </g>
   <g id="line2d_44">
    <path clip-path="url(#p8d1877d430)" d="M 51.99517 108.460445 
L 67.433906 125.474407 
L 82.872641 151.179268 
L 98.311376 164.185391 
L 113.750111 165.390806 
L 129.188846 165.504626 
L 144.627582 165.082561 
L 160.066317 165.523494 
L 175.505052 165.751632 
L 190.943787 165.476745 
L 206.382522 165.482581 
L 221.821257 164.718064 
L 237.259993 161.733811 
L 252.698728 162.533782 
L 268.137463 164.170823 
L 283.576198 163.132372 
L 299.014933 161.421832 
L 314.453668 157.00185 
L 329.892404 157.161266 
L 345.331139 161.365352 
L 360.769874 163.278368 
L 376.208609 165.306794 
L 391.647344 165.689638 
L 407.08608 160.541003 
" style="fill:none;stroke:#1b9e77;stroke-linecap:square;stroke-opacity:0.5;stroke-width:1.5;"/>
   </g>
   <g id="line2d_45">
    <path clip-path="url(#p8d1877d430)" d="M 51.99517 165.958606 
L 67.433906 165.936544 
L 82.872641 165.83107 
L 98.311376 165.438405 
L 113.750111 165.803329 
L 129.188846 165.822033 
L 144.627582 164.200338 
L 160.066317 164.072508 
L 175.505052 164.064513 
L 190.943787 165.551458 
L 206.382522 165.667149 
L 221.821257 164.42396 
L 237.259993 165.184703 
L 252.698728 165.284412 
L 268.137463 163.699736 
L 283.576198 162.760249 
L 299.014933 14.76 
L 314.453668 165.823348 
L 329.892404 165.954843 
L 345.331139 165.927865 
L 360.769874 165.8651 
L 376.208609 165.915191 
L 391.647344 165.942651 
L 407.08608 165.678897 
" style="fill:none;stroke:#1b9e77;stroke-linecap:square;stroke-opacity:0.5;stroke-width:1.5;"/>
   </g>
   <g id="line2d_46">
    <path clip-path="url(#p8d1877d430)" d="M 51.99517 164.440195 
L 67.433906 165.124345 
L 82.872641 165.583861 
L 98.311376 162.412071 
L 113.750111 95.043662 
L 129.188846 122.713933 
L 144.627582 138.583512 
L 160.066317 154.359949 
L 175.505052 160.470807 
L 190.943787 165.563108 
L 206.382522 165.666243 
L 221.821257 165.399227 
L 237.259993 165.415067 
L 252.698728 165.774502 
L 268.137463 165.937772 
L 283.576198 165.920612 
L 299.014933 165.915944 
L 314.453668 165.915328 
L 329.892404 165.936327 
L 345.331139 165.918893 
L 360.769874 165.905381 
L 376.208609 165.939788 
L 391.647344 165.941418 
L 407.08608 165.68497 
" style="fill:none;stroke:#1b9e77;stroke-linecap:square;stroke-opacity:0.5;stroke-width:1.5;"/>
   </g>
   <g id="line2d_47">
    <path clip-path="url(#p8d1877d430)" d="M 51.99517 164.421758 
L 67.433906 165.773401 
L 82.872641 165.678188 
L 98.311376 165.604911 
L 113.750111 164.376003 
L 129.188846 165.196194 
L 144.627582 165.644965 
L 160.066317 165.608316 
L 175.505052 165.598706 
L 190.943787 165.600447 
L 206.382522 165.745735 
L 221.821257 165.720505 
L 237.259993 165.462351 
L 252.698728 165.394068 
L 268.137463 165.854127 
L 283.576198 165.652281 
L 299.014933 161.658288 
L 314.453668 136.849006 
L 329.892404 119.783977 
L 345.331139 155.560013 
L 360.769874 152.091044 
L 376.208609 140.964056 
L 391.647344 139.932131 
L 407.08608 161.396442 
" style="fill:none;stroke:#1b9e77;stroke-linecap:square;stroke-opacity:0.5;stroke-width:1.5;"/>
   </g>
   <g id="line2d_48">
    <path clip-path="url(#p8d1877d430)" d="M 51.99517 164.267827 
L 67.433906 163.056598 
L 82.872641 153.087616 
L 98.311376 152.963373 
L 113.750111 158.041856 
L 129.188846 158.119183 
L 144.627582 158.848747 
L 160.066317 161.630753 
L 175.505052 164.568692 
L 190.943787 165.13075 
L 206.382522 165.547775 
L 221.821257 165.002114 
L 237.259993 144.789563 
L 252.698728 161.06482 
L 268.137463 157.697825 
L 283.576198 160.971286 
L 299.014933 155.395095 
L 314.453668 149.586564 
L 329.892404 157.001164 
L 345.331139 152.426744 
L 360.769874 155.448882 
L 376.208609 163.604572 
L 391.647344 163.406883 
L 407.08608 163.908232 
" style="fill:none;stroke:#1b9e77;stroke-linecap:square;stroke-opacity:0.5;stroke-width:1.5;"/>
   </g>
   <g id="line2d_49">
    <path clip-path="url(#p8d1877d430)" d="M 51.99517 149.230557 
L 67.433906 159.699342 
L 82.872641 163.753138 
L 98.311376 164.405106 
L 113.750111 164.34065 
L 129.188846 164.553463 
L 144.627582 163.441912 
L 160.066317 163.918304 
L 175.505052 157.08233 
L 190.943787 143.948717 
L 206.382522 151.106184 
L 221.821257 158.269343 
L 237.259993 158.91351 
L 252.698728 154.324181 
L 268.137463 159.396816 
L 283.576198 159.366069 
L 299.014933 156.807275 
L 314.453668 158.170132 
L 329.892404 157.128892 
L 345.331139 157.001879 
L 360.769874 161.082498 
L 376.208609 161.473607 
L 391.647344 163.085727 
L 407.08608 165.06728 
" style="fill:none;stroke:#1b9e77;stroke-linecap:square;stroke-opacity:0.5;stroke-width:1.5;"/>
   </g>
   <g id="line2d_50">
    <path clip-path="url(#p8d1877d430)" d="M 51.99517 165.830603 
L 67.433906 165.814125 
L 82.872641 165.841828 
L 98.311376 165.919791 
L 113.750111 165.940381 
L 129.188846 165.953383 
L 144.627582 165.956288 
L 160.066317 165.957933 
L 175.505052 165.955835 
L 190.943787 165.942721 
L 206.382522 165.53568 
L 221.821257 164.421363 
L 237.259993 163.025215 
L 252.698728 124.222728 
L 268.137463 109.558281 
L 283.576198 125.238838 
L 299.014933 158.489482 
L 314.453668 154.38358 
L 329.892404 163.323642 
L 345.331139 165.176661 
L 360.769874 165.554024 
L 376.208609 165.768413 
L 391.647344 165.812288 
L 407.08608 165.943827 
" style="fill:none;stroke:#1b9e77;stroke-linecap:square;stroke-opacity:0.5;stroke-width:1.5;"/>
   </g>
   <g id="line2d_51">
    <path clip-path="url(#p8d1877d430)" d="M 51.99517 165.919541 
L 67.433906 165.844655 
L 82.872641 165.864621 
L 98.311376 165.937593 
L 113.750111 165.954632 
L 129.188846 164.794379 
L 144.627582 156.657285 
L 160.066317 164.819023 
L 175.505052 145.861232 
L 190.943787 148.527166 
L 206.382522 162.176273 
L 221.821257 157.821349 
L 237.259993 126.727691 
L 252.698728 125.500133 
L 268.137463 152.02655 
L 283.576198 159.657556 
L 299.014933 162.9745 
L 314.453668 163.77461 
L 329.892404 165.710057 
L 345.331139 165.801996 
L 360.769874 165.858137 
L 376.208609 165.819936 
L 391.647344 165.711339 
L 407.08608 165.826649 
" style="fill:none;stroke:#1b9e77;stroke-linecap:square;stroke-opacity:0.5;stroke-width:1.5;"/>
   </g>
   <g id="line2d_52">
    <path clip-path="url(#p8d1877d430)" d="M 51.99517 159.637182 
L 67.433906 162.391506 
L 82.872641 164.015734 
L 98.311376 165.06448 
L 113.750111 164.629827 
L 129.188846 161.293085 
L 144.627582 156.763815 
L 160.066317 162.472783 
L 175.505052 160.917426 
L 190.943787 146.581734 
L 206.382522 150.453588 
L 221.821257 159.867924 
L 237.259993 161.538423 
L 252.698728 155.289758 
L 268.137463 127.556542 
L 283.576198 147.92954 
L 299.014933 164.939664 
L 314.453668 162.833268 
L 329.892404 163.306572 
L 345.331139 165.549638 
L 360.769874 165.357613 
L 376.208609 160.332453 
L 391.647344 161.935966 
L 407.08608 164.90839 
" style="fill:none;stroke:#1b9e77;stroke-linecap:square;stroke-opacity:0.5;stroke-width:1.5;"/>
   </g>
   <g id="line2d_53">
    <path clip-path="url(#p8d1877d430)" d="M 51.99517 160.305752 
L 67.433906 162.581497 
L 82.872641 164.15853 
L 98.311376 165.084805 
L 113.750111 165.162996 
L 129.188846 165.4142 
L 144.627582 165.637308 
L 160.066317 165.769363 
L 175.505052 165.802997 
L 190.943787 165.780563 
L 206.382522 165.789836 
L 221.821257 165.894823 
L 237.259993 165.925632 
L 252.698728 165.926368 
L 268.137463 165.919287 
L 283.576198 165.912874 
L 299.014933 165.874234 
L 314.453668 165.706323 
L 329.892404 165.057756 
L 345.331139 164.129216 
L 360.769874 162.838695 
L 376.208609 152.177908 
L 391.647344 117.145388 
L 407.08608 81.570556 
" style="fill:none;stroke:#1b9e77;stroke-linecap:square;stroke-opacity:0.5;stroke-width:1.5;"/>
   </g>
   <g id="line2d_54">
    <path clip-path="url(#p8d1877d430)" d="M 51.99517 165.834392 
L 67.433906 165.021782 
L 82.872641 164.811357 
L 98.311376 164.678147 
L 113.750111 163.869645 
L 129.188846 165.332287 
L 144.627582 150.70211 
L 160.066317 148.545406 
L 175.505052 162.746982 
L 190.943787 157.232486 
L 206.382522 160.054072 
L 221.821257 162.487861 
L 237.259993 161.273927 
L 252.698728 160.381253 
L 268.137463 159.457761 
L 283.576198 160.255066 
L 299.014933 160.792121 
L 314.453668 149.521468 
L 329.892404 154.012825 
L 345.331139 151.919081 
L 360.769874 147.589549 
L 376.208609 155.34346 
L 391.647344 159.346679 
L 407.08608 164.357192 
" style="fill:none;stroke:#1b9e77;stroke-linecap:square;stroke-opacity:0.5;stroke-width:1.5;"/>
   </g>
   <g id="line2d_55">
    <path clip-path="url(#p8d1877d430)" d="M 51.99517 165.750356 
L 67.433906 165.341248 
L 82.872641 165.430355 
L 98.311376 165.647495 
L 113.750111 165.712732 
L 129.188846 165.818127 
L 144.627582 165.874125 
L 160.066317 165.90323 
L 175.505052 165.906506 
L 190.943787 165.921243 
L 206.382522 165.931625 
L 221.821257 165.943721 
L 237.259993 165.948649 
L 252.698728 165.954196 
L 268.137463 165.950785 
L 283.576198 165.879006 
L 299.014933 164.389763 
L 314.453668 158.630545 
L 329.892404 143.44269 
L 345.331139 126.211497 
L 360.769874 112.038727 
L 376.208609 143.492896 
L 391.647344 156.3562 
L 407.08608 158.091195 
" style="fill:none;stroke:#1b9e77;stroke-linecap:square;stroke-opacity:0.5;stroke-width:1.5;"/>
   </g>
   <g id="line2d_56">
    <path clip-path="url(#p8d1877d430)" d="M 51.99517 165.609521 
L 67.433906 165.892638 
L 82.872641 165.233627 
L 98.311376 165.431899 
L 113.750111 164.828238 
L 129.188846 149.634322 
L 144.627582 164.560792 
L 160.066317 165.100496 
L 175.505052 164.925874 
L 190.943787 165.342214 
L 206.382522 165.695138 
L 221.821257 165.838717 
L 237.259993 165.865917 
L 252.698728 165.919929 
L 268.137463 165.928581 
L 283.576198 163.392327 
L 299.014933 157.155374 
L 314.453668 151.654642 
L 329.892404 133.584526 
L 345.331139 133.581982 
L 360.769874 140.867792 
L 376.208609 156.257561 
L 391.647344 159.036223 
L 407.08608 154.228584 
" style="fill:none;stroke:#1b9e77;stroke-linecap:square;stroke-opacity:0.5;stroke-width:1.5;"/>
   </g>
   <g id="line2d_57">
    <path clip-path="url(#p8d1877d430)" d="M 51.99517 165.888502 
L 67.433906 165.83042 
L 82.872641 165.89756 
L 98.311376 165.94135 
L 113.750111 165.948904 
L 129.188846 165.95433 
L 144.627582 165.950058 
L 160.066317 165.89052 
L 175.505052 165.259739 
L 190.943787 164.214035 
L 206.382522 160.050446 
L 221.821257 152.24274 
L 237.259993 105.752071 
L 252.698728 140.271221 
L 268.137463 152.979946 
L 283.576198 135.211466 
L 299.014933 153.995635 
L 314.453668 163.526141 
L 329.892404 165.504856 
L 345.331139 165.812458 
L 360.769874 165.793024 
L 376.208609 165.847094 
L 391.647344 165.859924 
L 407.08608 165.944473 
" style="fill:none;stroke:#1b9e77;stroke-linecap:square;stroke-opacity:0.5;stroke-width:1.5;"/>
   </g>
   <g id="line2d_58">
    <path clip-path="url(#p8d1877d430)" d="M 51.99517 165.894066 
L 67.433906 165.794367 
L 82.872641 165.827778 
L 98.311376 165.876348 
L 113.750111 165.889483 
L 129.188846 165.910454 
L 144.627582 165.922181 
L 160.066317 165.936764 
L 175.505052 165.93967 
L 190.943787 165.943275 
L 206.382522 165.944798 
L 221.821257 165.954702 
L 237.259993 165.952786 
L 252.698728 165.910978 
L 268.137463 162.037483 
L 283.576198 145.652955 
L 299.014933 158.005278 
L 314.453668 161.133856 
L 329.892404 164.981127 
L 345.331139 155.135095 
L 360.769874 108.545602 
L 376.208609 126.243422 
L 391.647344 153.690265 
L 407.08608 157.444174 
" style="fill:none;stroke:#1b9e77;stroke-linecap:square;stroke-opacity:0.5;stroke-width:1.5;"/>
   </g>
   <g id="line2d_59">
    <path clip-path="url(#p8d1877d430)" d="M 51.99517 165.454034 
L 67.433906 164.8839 
L 82.872641 164.981285 
L 98.311376 165.437137 
L 113.750111 165.584436 
L 129.188846 165.842088 
L 144.627582 165.914335 
L 160.066317 165.914816 
L 175.505052 165.849406 
L 190.943787 165.667771 
L 206.382522 154.106992 
L 221.821257 57.780907 
L 237.259993 130.539149 
L 252.698728 160.742671 
L 268.137463 165.408521 
L 283.576198 165.590854 
L 299.014933 165.537948 
L 314.453668 165.520994 
L 329.892404 165.587174 
L 345.331139 165.7366 
L 360.769874 165.81223 
L 376.208609 165.908485 
L 391.647344 165.934996 
L 407.08608 165.830183 
" style="fill:none;stroke:#1b9e77;stroke-linecap:square;stroke-opacity:0.5;stroke-width:1.5;"/>
   </g>
   <g id="line2d_60">
    <path clip-path="url(#p8d1877d430)" d="M 51.99517 128.530601 
L 67.433906 118.33164 
L 82.872641 130.321835 
L 98.311376 154.966971 
L 113.750111 161.249482 
L 129.188846 163.754094 
L 144.627582 164.212286 
L 160.066317 164.668234 
L 175.505052 165.002458 
L 190.943787 165.354085 
L 206.382522 165.411531 
L 221.821257 165.112281 
L 237.259993 164.611972 
L 252.698728 165.163 
L 268.137463 165.531786 
L 283.576198 165.420601 
L 299.014933 165.195181 
L 314.453668 164.851699 
L 329.892404 165.027068 
L 345.331139 165.385697 
L 360.769874 165.462755 
L 376.208609 165.66081 
L 391.647344 165.605044 
L 407.08608 150.735797 
" style="fill:none;stroke:#1b9e77;stroke-linecap:square;stroke-opacity:0.5;stroke-width:1.5;"/>
   </g>
   <g id="line2d_61">
    <path clip-path="url(#p8d1877d430)" d="M 51.99517 165.813364 
L 67.433906 165.56607 
L 82.872641 165.553953 
L 98.311376 165.767238 
L 113.750111 165.798379 
L 129.188846 165.906034 
L 144.627582 163.103519 
L 160.066317 92.952829 
L 175.505052 128.585524 
L 190.943787 132.261615 
L 206.382522 155.061909 
L 221.821257 162.781188 
L 237.259993 165.324544 
L 252.698728 165.538746 
L 268.137463 165.642928 
L 283.576198 165.829103 
L 299.014933 165.906656 
L 314.453668 165.884581 
L 329.892404 165.763761 
L 345.331139 165.820449 
L 360.769874 165.616557 
L 376.208609 165.526189 
L 391.647344 164.533531 
L 407.08608 165.028241 
" style="fill:none;stroke:#1b9e77;stroke-linecap:square;stroke-opacity:0.5;stroke-width:1.5;"/>
   </g>
   <g id="line2d_62">
    <path clip-path="url(#p8d1877d430)" d="M 51.99517 163.877289 
L 67.433906 147.059093 
L 82.872641 128.95713 
L 98.311376 75.413716 
L 113.750111 154.823997 
L 129.188846 162.377686 
L 144.627582 164.284315 
L 160.066317 165.304803 
L 175.505052 165.591353 
L 190.943787 165.66668 
L 206.382522 165.668512 
L 221.821257 165.729869 
L 237.259993 165.812981 
L 252.698728 165.90014 
L 268.137463 165.927026 
L 283.576198 165.917847 
L 299.014933 165.879915 
L 314.453668 165.864989 
L 329.892404 165.889999 
L 345.331139 165.922571 
L 360.769874 165.932735 
L 376.208609 165.948077 
L 391.647344 165.951042 
L 407.08608 165.865149 
" style="fill:none;stroke:#1b9e77;stroke-linecap:square;stroke-opacity:0.5;stroke-width:1.5;"/>
   </g>
   <g id="line2d_63">
    <path clip-path="url(#p8d1877d430)" d="M 51.99517 165.470556 
L 67.433906 165.413405 
L 82.872641 165.368483 
L 98.311376 165.38085 
L 113.750111 164.993419 
L 129.188846 165.69352 
L 144.627582 163.536126 
L 160.066317 156.994054 
L 175.505052 165.025462 
L 190.943787 164.81551 
L 206.382522 161.825539 
L 221.821257 41.992654 
L 237.259993 156.642815 
L 252.698728 164.459658 
L 268.137463 163.982545 
L 283.576198 163.866534 
L 299.014933 164.267207 
L 314.453668 164.466215 
L 329.892404 164.629649 
L 345.331139 164.965547 
L 360.769874 165.189197 
L 376.208609 165.793436 
L 391.647344 165.896905 
L 407.08608 164.897636 
" style="fill:none;stroke:#1b9e77;stroke-linecap:square;stroke-opacity:0.5;stroke-width:1.5;"/>
   </g>
   <g id="line2d_64">
    <path clip-path="url(#p8d1877d430)" d="M 51.99517 165.831784 
L 67.433906 165.940341 
L 82.872641 165.93619 
L 98.311376 165.91095 
L 113.750111 165.72102 
L 129.188846 164.450687 
L 144.627582 163.012282 
L 160.066317 165.192708 
L 175.505052 164.870978 
L 190.943787 160.805724 
L 206.382522 162.110083 
L 221.821257 163.997326 
L 237.259993 161.9597 
L 252.698728 162.070317 
L 268.137463 139.596496 
L 283.576198 151.613999 
L 299.014933 143.318714 
L 314.453668 108.968051 
L 329.892404 150.661798 
L 345.331139 164.778408 
L 360.769874 165.786042 
L 376.208609 163.365789 
L 391.647344 163.895864 
L 407.08608 165.771658 
" style="fill:none;stroke:#1b9e77;stroke-linecap:square;stroke-opacity:0.5;stroke-width:1.5;"/>
   </g>
   <g id="line2d_65">
    <path clip-path="url(#p8d1877d430)" d="M 51.99517 165.16996 
L 67.433906 164.921949 
L 82.872641 162.742899 
L 98.311376 163.497675 
L 113.750111 161.624664 
L 129.188846 162.406116 
L 144.627582 165.062174 
L 160.066317 165.346197 
L 175.505052 164.305718 
L 190.943787 118.897047 
L 206.382522 138.580415 
L 221.821257 143.344844 
L 237.259993 159.835336 
L 252.698728 154.834959 
L 268.137463 155.63498 
L 283.576198 142.401315 
L 299.014933 165.703876 
L 314.453668 165.744573 
L 329.892404 165.856456 
L 345.331139 165.912549 
L 360.769874 165.920419 
L 376.208609 165.94263 
L 391.647344 165.946114 
L 407.08608 165.934039 
" style="fill:none;stroke:#1b9e77;stroke-linecap:square;stroke-opacity:0.5;stroke-width:1.5;"/>
   </g>
   <g id="line2d_66">
    <path clip-path="url(#p8d1877d430)" d="M 51.99517 163.404597 
L 67.433906 164.274434 
L 82.872641 158.928315 
L 98.311376 153.122944 
L 113.750111 43.145432 
L 129.188846 162.074122 
L 144.627582 165.68676 
L 160.066317 165.645369 
L 175.505052 164.951405 
L 190.943787 165.006064 
L 206.382522 165.882523 
L 221.821257 165.932602 
L 237.259993 165.682932 
L 252.698728 162.688536 
L 268.137463 163.854288 
L 283.576198 164.635955 
L 299.014933 164.118737 
L 314.453668 163.282221 
L 329.892404 164.702817 
L 345.331139 165.398889 
L 360.769874 165.582241 
L 376.208609 165.881287 
L 391.647344 165.941072 
L 407.08608 165.743369 
" style="fill:none;stroke:#1b9e77;stroke-linecap:square;stroke-opacity:0.5;stroke-width:1.5;"/>
   </g>
   <g id="line2d_67">
    <path clip-path="url(#p8d1877d430)" d="M 51.99517 154.767532 
L 67.433906 155.418789 
L 82.872641 158.510509 
L 98.311376 163.314877 
L 113.750111 164.518609 
L 129.188846 165.267626 
L 144.627582 165.512615 
L 160.066317 165.714517 
L 175.505052 165.801578 
L 190.943787 165.848912 
L 206.382522 165.854602 
L 221.821257 165.858888 
L 237.259993 165.855104 
L 252.698728 165.883445 
L 268.137463 165.773474 
L 283.576198 164.184086 
L 299.014933 157.68131 
L 314.453668 158.569667 
L 329.892404 145.252552 
L 345.331139 126.358119 
L 360.769874 140.584745 
L 376.208609 156.161648 
L 391.647344 155.877872 
L 407.08608 156.995833 
" style="fill:none;stroke:#1b9e77;stroke-linecap:square;stroke-opacity:0.5;stroke-width:1.5;"/>
   </g>
   <g id="line2d_68">
    <path clip-path="url(#p8d1877d430)" d="M 51.99517 145.163742 
L 67.433906 154.22327 
L 82.872641 146.691792 
L 98.311376 138.738103 
L 113.750111 150.610805 
L 129.188846 138.978226 
L 144.627582 141.113345 
L 160.066317 159.946109 
L 175.505052 158.207964 
L 190.943787 161.490188 
L 206.382522 165.267546 
L 221.821257 165.570109 
L 237.259993 165.805457 
L 252.698728 164.673234 
L 268.137463 165.684479 
L 283.576198 165.917817 
L 299.014933 165.895141 
L 314.453668 165.91006 
L 329.892404 165.934248 
L 345.331139 165.943899 
L 360.769874 165.946701 
L 376.208609 165.949233 
L 391.647344 165.94997 
L 407.08608 165.955468 
" style="fill:none;stroke:#1b9e77;stroke-linecap:square;stroke-opacity:0.5;stroke-width:1.5;"/>
   </g>
   <g id="line2d_69">
    <path clip-path="url(#p8d1877d430)" d="M 51.99517 165.867816 
L 67.433906 165.625614 
L 82.872641 165.504254 
L 98.311376 165.676444 
L 113.750111 164.973257 
L 129.188846 163.535269 
L 144.627582 157.48347 
L 160.066317 157.351276 
L 175.505052 152.848992 
L 190.943787 160.326479 
L 206.382522 163.063763 
L 221.821257 159.348806 
L 237.259993 105.010796 
L 252.698728 146.816499 
L 268.137463 158.8535 
L 283.576198 150.34763 
L 299.014933 153.857605 
L 314.453668 164.404111 
L 329.892404 165.498345 
L 345.331139 165.733308 
L 360.769874 165.766188 
L 376.208609 165.895067 
L 391.647344 165.934138 
L 407.08608 165.844288 
" style="fill:none;stroke:#1b9e77;stroke-linecap:square;stroke-opacity:0.5;stroke-width:1.5;"/>
   </g>
   <g id="line2d_70">
    <path clip-path="url(#p8d1877d430)" d="M 51.99517 165.699817 
L 67.433906 165.486448 
L 82.872641 165.900694 
L 98.311376 165.81422 
L 113.750111 165.776456 
L 129.188846 165.861572 
L 144.627582 164.609213 
L 160.066317 162.108913 
L 175.505052 162.590826 
L 190.943787 160.307515 
L 206.382522 154.625028 
L 221.821257 155.828212 
L 237.259993 128.215719 
L 252.698728 106.293628 
L 268.137463 135.358029 
L 283.576198 165.385427 
L 299.014933 165.933192 
L 314.453668 165.879659 
L 329.892404 165.465445 
L 345.331139 165.841692 
L 360.769874 165.777424 
L 376.208609 165.927986 
L 391.647344 164.960949 
L 407.08608 165.918848 
" style="fill:none;stroke:#1b9e77;stroke-linecap:square;stroke-opacity:0.5;stroke-width:1.5;"/>
   </g>
   <g id="line2d_71">
    <path clip-path="url(#p8d1877d430)" d="M 51.99517 165.893115 
L 67.433906 165.817339 
L 82.872641 165.876733 
L 98.311376 165.860633 
L 113.750111 164.677371 
L 129.188846 165.307628 
L 144.627582 137.408663 
L 160.066317 149.765056 
L 175.505052 162.814309 
L 190.943787 164.304774 
L 206.382522 165.267643 
L 221.821257 162.411642 
L 237.259993 76.478835 
L 252.698728 153.59509 
L 268.137463 158.916154 
L 283.576198 165.399376 
L 299.014933 165.432384 
L 314.453668 165.19646 
L 329.892404 165.687156 
L 345.331139 165.857705 
L 360.769874 165.863399 
L 376.208609 165.925354 
L 391.647344 165.944698 
L 407.08608 165.865393 
" style="fill:none;stroke:#1b9e77;stroke-linecap:square;stroke-opacity:0.5;stroke-width:1.5;"/>
   </g>
   <g id="line2d_72">
    <path clip-path="url(#p8d1877d430)" d="M 51.99517 160.219251 
L 67.433906 157.313057 
L 82.872641 163.835931 
L 98.311376 162.359725 
L 113.750111 164.440163 
L 129.188846 164.896412 
L 144.627582 165.584557 
L 160.066317 165.771265 
L 175.505052 165.781636 
L 190.943787 165.859191 
L 206.382522 165.894409 
L 221.821257 165.940877 
L 237.259993 165.90904 
L 252.698728 164.789024 
L 268.137463 127.766765 
L 283.576198 127.673665 
L 299.014933 142.81183 
L 314.453668 148.456763 
L 329.892404 160.493638 
L 345.331139 161.299315 
L 360.769874 152.439972 
L 376.208609 165.212663 
L 391.647344 165.145742 
L 407.08608 165.672026 
" style="fill:none;stroke:#1b9e77;stroke-linecap:square;stroke-opacity:0.5;stroke-width:1.5;"/>
   </g>
   <g id="line2d_73">
    <path clip-path="url(#p8d1877d430)" d="M 51.99517 156.569118 
L 67.433906 96.369859 
L 82.872641 136.429372 
L 98.311376 151.134615 
L 113.750111 155.562707 
L 129.188846 162.473509 
L 144.627582 164.824934 
L 160.066317 165.37728 
L 175.505052 165.264075 
L 190.943787 165.576273 
L 206.382522 165.78928 
L 221.821257 165.837133 
L 237.259993 165.860566 
L 252.698728 165.770582 
L 268.137463 165.436809 
L 283.576198 165.444393 
L 299.014933 165.680955 
L 314.453668 165.752972 
L 329.892404 165.693966 
L 345.331139 165.595653 
L 360.769874 165.613375 
L 376.208609 165.883517 
L 391.647344 165.865593 
L 407.08608 141.760375 
" style="fill:none;stroke:#1b9e77;stroke-linecap:square;stroke-opacity:0.5;stroke-width:1.5;"/>
   </g>
   <g id="line2d_74">
    <path clip-path="url(#p8d1877d430)" d="M 51.99517 164.40253 
L 67.433906 163.247254 
L 82.872641 150.976751 
L 98.311376 157.874552 
L 113.750111 153.188224 
L 129.188846 158.419283 
L 144.627582 163.903773 
L 160.066317 164.244479 
L 175.505052 163.862893 
L 190.943787 110.57542 
L 206.382522 128.23984 
L 221.821257 150.459129 
L 237.259993 163.592423 
L 252.698728 163.989078 
L 268.137463 165.800027 
L 283.576198 165.827579 
L 299.014933 165.732039 
L 314.453668 165.75926 
L 329.892404 165.836749 
L 345.331139 165.899479 
L 360.769874 165.914143 
L 376.208609 165.94374 
L 391.647344 165.952995 
L 407.08608 165.925265 
" style="fill:none;stroke:#1b9e77;stroke-linecap:square;stroke-opacity:0.5;stroke-width:1.5;"/>
   </g>
   <g id="line2d_75">
    <path clip-path="url(#p8d1877d430)" d="M 51.99517 165.912558 
L 67.433906 165.850396 
L 82.872641 165.890328 
L 98.311376 165.929192 
L 113.750111 165.940765 
L 129.188846 165.948316 
L 144.627582 165.9506 
L 160.066317 165.957669 
L 175.505052 165.957731 
L 190.943787 165.882252 
L 206.382522 165.316813 
L 221.821257 164.884118 
L 237.259993 160.746916 
L 252.698728 150.70147 
L 268.137463 161.073674 
L 283.576198 159.920511 
L 299.014933 148.464643 
L 314.453668 132.267157 
L 329.892404 116.968164 
L 345.331139 157.665108 
L 360.769874 159.239927 
L 376.208609 155.255052 
L 391.647344 159.020482 
L 407.08608 164.823068 
" style="fill:none;stroke:#1b9e77;stroke-linecap:square;stroke-opacity:0.5;stroke-width:1.5;"/>
   </g>
   <g id="line2d_76">
    <path clip-path="url(#p8d1877d430)" d="M 51.99517 165.938406 
L 67.433906 165.894107 
L 82.872641 165.866458 
L 98.311376 165.928409 
L 113.750111 165.859413 
L 129.188846 164.677192 
L 144.627582 161.377388 
L 160.066317 155.291686 
L 175.505052 145.295335 
L 190.943787 149.416167 
L 206.382522 154.972042 
L 221.821257 158.693078 
L 237.259993 149.519673 
L 252.698728 144.228938 
L 268.137463 150.146614 
L 283.576198 162.596559 
L 299.014933 161.503624 
L 314.453668 141.137805 
L 329.892404 159.588483 
L 345.331139 165.431437 
L 360.769874 165.626352 
L 376.208609 165.850191 
L 391.647344 165.871766 
L 407.08608 164.855785 
" style="fill:none;stroke:#1b9e77;stroke-linecap:square;stroke-opacity:0.5;stroke-width:1.5;"/>
   </g>
   <g id="line2d_77">
    <path clip-path="url(#p8d1877d430)" d="M 51.99517 152.122667 
L 67.433906 143.938732 
L 82.872641 149.283311 
L 98.311376 159.18144 
L 113.750111 162.635988 
L 129.188846 164.992197 
L 144.627582 165.491316 
L 160.066317 165.640274 
L 175.505052 165.570488 
L 190.943787 165.798937 
L 206.382522 165.891229 
L 221.821257 165.886376 
L 237.259993 165.864717 
L 252.698728 165.885384 
L 268.137463 165.854988 
L 283.576198 161.081325 
L 299.014933 153.190688 
L 314.453668 161.858998 
L 329.892404 165.493508 
L 345.331139 165.147095 
L 360.769874 163.135833 
L 376.208609 141.901663 
L 391.647344 131.406039 
L 407.08608 148.31372 
" style="fill:none;stroke:#1b9e77;stroke-linecap:square;stroke-opacity:0.5;stroke-width:1.5;"/>
   </g>
   <g id="line2d_78">
    <path clip-path="url(#p8d1877d430)" d="M 51.99517 151.405047 
L 67.433906 146.052579 
L 82.872641 150.590912 
L 98.311376 150.470271 
L 113.750111 164.897428 
L 129.188846 165.480486 
L 144.627582 165.816177 
L 160.066317 165.904949 
L 175.505052 165.886105 
L 190.943787 165.919838 
L 206.382522 165.68247 
L 221.821257 152.666349 
L 237.259993 157.779363 
L 252.698728 161.371182 
L 268.137463 155.331052 
L 283.576198 158.089183 
L 299.014933 159.861501 
L 314.453668 157.737488 
L 329.892404 161.069055 
L 345.331139 160.797734 
L 360.769874 157.994834 
L 376.208609 151.830956 
L 391.647344 158.476902 
L 407.08608 164.45505 
" style="fill:none;stroke:#1b9e77;stroke-linecap:square;stroke-opacity:0.5;stroke-width:1.5;"/>
   </g>
   <g id="line2d_79">
    <path clip-path="url(#p8d1877d430)" d="M 51.99517 165.879279 
L 67.433906 165.928982 
L 82.872641 165.793136 
L 98.311376 165.375656 
L 113.750111 156.039526 
L 129.188846 143.881753 
L 144.627582 153.706692 
L 160.066317 152.462367 
L 175.505052 155.450021 
L 190.943787 160.559044 
L 206.382522 149.635954 
L 221.821257 136.985594 
L 237.259993 155.749844 
L 252.698728 157.375562 
L 268.137463 156.761932 
L 283.576198 161.723872 
L 299.014933 164.553451 
L 314.453668 165.139423 
L 329.892404 164.648179 
L 345.331139 165.344807 
L 360.769874 165.518171 
L 376.208609 158.435277 
L 391.647344 163.194824 
L 407.08608 165.423566 
" style="fill:none;stroke:#1b9e77;stroke-linecap:square;stroke-opacity:0.5;stroke-width:1.5;"/>
   </g>
   <g id="line2d_80">
    <path clip-path="url(#p8d1877d430)" d="M 51.99517 165.894466 
L 67.433906 165.871716 
L 82.872641 165.87777 
L 98.311376 165.89669 
L 113.750111 164.367531 
L 129.188846 144.527551 
L 144.627582 124.346067 
L 160.066317 116.882275 
L 175.505052 133.914824 
L 190.943787 151.936687 
L 206.382522 163.383556 
L 221.821257 165.184825 
L 237.259993 165.445417 
L 252.698728 165.097212 
L 268.137463 165.412819 
L 283.576198 165.835483 
L 299.014933 165.938521 
L 314.453668 165.926835 
L 329.892404 165.907841 
L 345.331139 165.919326 
L 360.769874 165.887086 
L 376.208609 165.918682 
L 391.647344 164.70108 
L 407.08608 165.492653 
" style="fill:none;stroke:#1b9e77;stroke-linecap:square;stroke-opacity:0.5;stroke-width:1.5;"/>
   </g>
   <g id="line2d_81">
    <path clip-path="url(#p8d1877d430)" d="M 51.99517 165.674101 
L 67.433906 165.017652 
L 82.872641 164.018301 
L 98.311376 160.83216 
L 113.750111 163.399486 
L 129.188846 162.522378 
L 144.627582 155.67595 
L 160.066317 148.789033 
L 175.505052 143.63736 
L 190.943787 157.130881 
L 206.382522 141.376498 
L 221.821257 145.671143 
L 237.259993 160.54993 
L 252.698728 159.945232 
L 268.137463 158.688161 
L 283.576198 161.449555 
L 299.014933 163.632712 
L 314.453668 165.188136 
L 329.892404 165.544532 
L 345.331139 164.449003 
L 360.769874 160.273765 
L 376.208609 152.842402 
L 391.647344 163.543155 
L 407.08608 165.715385 
" style="fill:none;stroke:#1b9e77;stroke-linecap:square;stroke-opacity:0.5;stroke-width:1.5;"/>
   </g>
   <g id="line2d_82">
    <path clip-path="url(#p8d1877d430)" d="M 51.99517 164.764151 
L 67.433906 164.374522 
L 82.872641 165.039899 
L 98.311376 165.654647 
L 113.750111 165.756078 
L 129.188846 165.770196 
L 144.627582 165.715814 
L 160.066317 165.684413 
L 175.505052 165.650245 
L 190.943787 165.752407 
L 206.382522 165.728988 
L 221.821257 165.656497 
L 237.259993 165.723656 
L 252.698728 165.545338 
L 268.137463 165.547604 
L 283.576198 165.752548 
L 299.014933 165.829737 
L 314.453668 165.802317 
L 329.892404 165.665456 
L 345.331139 165.755185 
L 360.769874 165.633991 
L 376.208609 159.063021 
L 391.647344 79.513196 
L 407.08608 100.18701 
" style="fill:none;stroke:#1b9e77;stroke-linecap:square;stroke-opacity:0.5;stroke-width:1.5;"/>
   </g>
   <g id="line2d_83">
    <path clip-path="url(#p8d1877d430)" d="M 51.99517 165.9294 
L 67.433906 165.891822 
L 82.872641 165.696972 
L 98.311376 154.752098 
L 113.750111 152.342332 
L 129.188846 140.141387 
L 144.627582 116.044779 
L 160.066317 142.096972 
L 175.505052 154.440002 
L 190.943787 150.714571 
L 206.382522 154.101781 
L 221.821257 165.584566 
L 237.259993 165.405168 
L 252.698728 164.962328 
L 268.137463 164.601948 
L 283.576198 165.769784 
L 299.014933 165.870309 
L 314.453668 165.879699 
L 329.892404 165.877325 
L 345.331139 165.921242 
L 360.769874 165.942614 
L 376.208609 165.955661 
L 391.647344 165.948448 
L 407.08608 165.695708 
" style="fill:none;stroke:#1b9e77;stroke-linecap:square;stroke-opacity:0.5;stroke-width:1.5;"/>
   </g>
   <g id="line2d_84">
    <path clip-path="url(#p8d1877d430)" d="M 51.99517 165.923162 
L 67.433906 165.847752 
L 82.872641 165.834479 
L 98.311376 163.615306 
L 113.750111 151.032982 
L 129.188846 147.60387 
L 144.627582 97.565206 
L 160.066317 132.245481 
L 175.505052 159.696339 
L 190.943787 163.77235 
L 206.382522 165.458638 
L 221.821257 165.467006 
L 237.259993 158.765338 
L 252.698728 164.860361 
L 268.137463 165.840356 
L 283.576198 165.896519 
L 299.014933 165.719196 
L 314.453668 164.840876 
L 329.892404 164.689785 
L 345.331139 165.324393 
L 360.769874 162.265103 
L 376.208609 162.878632 
L 391.647344 164.748954 
L 407.08608 165.674829 
" style="fill:none;stroke:#1b9e77;stroke-linecap:square;stroke-opacity:0.5;stroke-width:1.5;"/>
   </g>
   <g id="line2d_85">
    <path clip-path="url(#p8d1877d430)" d="M 51.99517 164.537589 
L 67.433906 160.551373 
L 82.872641 157.042001 
L 98.311376 156.680808 
L 113.750111 147.005563 
L 129.188846 153.013389 
L 144.627582 161.698557 
L 160.066317 164.694798 
L 175.505052 164.644405 
L 190.943787 165.416683 
L 206.382522 161.203272 
L 221.821257 136.551069 
L 237.259993 165.419111 
L 252.698728 132.691868 
L 268.137463 161.714698 
L 283.576198 163.439717 
L 299.014933 164.3483 
L 314.453668 161.132728 
L 329.892404 164.502569 
L 345.331139 165.802053 
L 360.769874 165.447412 
L 376.208609 164.852686 
L 391.647344 152.39692 
L 407.08608 160.779333 
" style="fill:none;stroke:#1b9e77;stroke-linecap:square;stroke-opacity:0.5;stroke-width:1.5;"/>
   </g>
   <g id="line2d_86">
    <path clip-path="url(#p8d1877d430)" d="M 51.99517 165.293844 
L 67.433906 164.184457 
L 82.872641 164.593039 
L 98.311376 165.388445 
L 113.750111 165.682317 
L 129.188846 165.806196 
L 144.627582 165.830878 
L 160.066317 165.86529 
L 175.505052 165.88707 
L 190.943787 165.915704 
L 206.382522 165.926062 
L 221.821257 165.926091 
L 237.259993 165.916591 
L 252.698728 165.921004 
L 268.137463 165.925038 
L 283.576198 165.92104 
L 299.014933 165.87083 
L 314.453668 165.355453 
L 329.892404 137.546889 
L 345.331139 112.224724 
L 360.769874 124.18888 
L 376.208609 148.039561 
L 391.647344 153.437118 
L 407.08608 158.920399 
" style="fill:none;stroke:#1b9e77;stroke-linecap:square;stroke-opacity:0.5;stroke-width:1.5;"/>
   </g>
   <g id="line2d_87">
    <path clip-path="url(#p8d1877d430)" d="M 51.99517 165.928362 
L 67.433906 165.313347 
L 82.872641 160.619643 
L 98.311376 157.153543 
L 113.750111 159.817792 
L 129.188846 122.392737 
L 144.627582 164.999807 
L 160.066317 165.434997 
L 175.505052 165.638895 
L 190.943787 165.420222 
L 206.382522 165.790132 
L 221.821257 165.875199 
L 237.259993 165.915503 
L 252.698728 165.936288 
L 268.137463 164.60018 
L 283.576198 140.455832 
L 299.014933 142.022254 
L 314.453668 149.333326 
L 329.892404 159.895426 
L 345.331139 163.475838 
L 360.769874 159.202562 
L 376.208609 154.514829 
L 391.647344 162.08146 
L 407.08608 163.748733 
" style="fill:none;stroke:#1b9e77;stroke-linecap:square;stroke-opacity:0.5;stroke-width:1.5;"/>
   </g>
   <g id="line2d_88">
    <path clip-path="url(#p8d1877d430)" d="M 51.99517 165.918408 
L 67.433906 165.907508 
L 82.872641 165.92529 
L 98.311376 165.926173 
L 113.750111 165.886349 
L 129.188846 165.79544 
L 144.627582 161.237414 
L 160.066317 142.928183 
L 175.505052 143.459386 
L 190.943787 135.922003 
L 206.382522 129.613016 
L 221.821257 134.706959 
L 237.259993 151.056222 
L 252.698728 163.129552 
L 268.137463 165.743488 
L 283.576198 165.762024 
L 299.014933 165.807888 
L 314.453668 165.862533 
L 329.892404 165.889319 
L 345.331139 165.905969 
L 360.769874 165.920587 
L 376.208609 165.952124 
L 391.647344 165.949232 
L 407.08608 165.36184 
" style="fill:none;stroke:#1b9e77;stroke-linecap:square;stroke-opacity:0.5;stroke-width:1.5;"/>
   </g>
   <g id="line2d_89">
    <path clip-path="url(#p8d1877d430)" d="M 51.99517 165.925793 
L 67.433906 165.830291 
L 82.872641 165.874559 
L 98.311376 163.446394 
L 113.750111 163.951857 
L 129.188846 164.637291 
L 144.627582 161.176807 
L 160.066317 157.186718 
L 175.505052 159.594341 
L 190.943787 163.364633 
L 206.382522 164.797411 
L 221.821257 159.412069 
L 237.259993 83.240566 
L 252.698728 128.963538 
L 268.137463 161.415426 
L 283.576198 163.227527 
L 299.014933 164.074731 
L 314.453668 164.768129 
L 329.892404 165.553546 
L 345.331139 165.672377 
L 360.769874 165.717997 
L 376.208609 165.866761 
L 391.647344 165.916438 
L 407.08608 165.951707 
" style="fill:none;stroke:#1b9e77;stroke-linecap:square;stroke-opacity:0.5;stroke-width:1.5;"/>
   </g>
   <g id="line2d_90">
    <path clip-path="url(#p8d1877d430)" d="M 51.99517 165.694933 
L 67.433906 159.077237 
L 82.872641 161.173634 
L 98.311376 119.452571 
L 113.750111 138.624502 
L 129.188846 130.185068 
L 144.627582 150.862542 
L 160.066317 162.477238 
L 175.505052 163.754103 
L 190.943787 161.021039 
L 206.382522 161.413879 
L 221.821257 165.843418 
L 237.259993 165.081698 
L 252.698728 151.928348 
L 268.137463 165.54041 
L 283.576198 165.923114 
L 299.014933 165.90432 
L 314.453668 165.918748 
L 329.892404 165.938282 
L 345.331139 165.946505 
L 360.769874 165.946197 
L 376.208609 165.952898 
L 391.647344 165.957584 
L 407.08608 165.948644 
" style="fill:none;stroke:#1b9e77;stroke-linecap:square;stroke-opacity:0.5;stroke-width:1.5;"/>
   </g>
   <g id="line2d_91">
    <path clip-path="url(#p8d1877d430)" d="M 51.99517 164.442888 
L 67.433906 163.486195 
L 82.872641 159.579836 
L 98.311376 158.170018 
L 113.750111 138.224318 
L 129.188846 150.554011 
L 144.627582 160.98333 
L 160.066317 153.751638 
L 175.505052 132.712321 
L 190.943787 152.38076 
L 206.382522 131.952849 
L 221.821257 163.583647 
L 237.259993 165.490833 
L 252.698728 163.357355 
L 268.137463 163.523085 
L 283.576198 165.892723 
L 299.014933 165.957346 
L 314.453668 165.959529 
L 329.892404 165.958586 
L 345.331139 165.957282 
L 360.769874 165.932907 
L 376.208609 165.892594 
L 391.647344 165.879251 
L 407.08608 165.943611 
" style="fill:none;stroke:#1b9e77;stroke-linecap:square;stroke-opacity:0.5;stroke-width:1.5;"/>
   </g>
   <g id="line2d_92">
    <path clip-path="url(#p8d1877d430)" d="M 51.99517 165.91376 
L 67.433906 165.95401 
L 82.872641 165.936826 
L 98.311376 165.92819 
L 113.750111 165.543633 
L 129.188846 165.743681 
L 144.627582 165.743555 
L 160.066317 162.866014 
L 175.505052 150.271813 
L 190.943787 86.808144 
L 206.382522 161.959692 
L 221.821257 161.706402 
L 237.259993 152.412486 
L 252.698728 154.135518 
L 268.137463 133.283785 
L 283.576198 165.368879 
L 299.014933 165.946232 
L 314.453668 165.90403 
L 329.892404 165.41435 
L 345.331139 165.489488 
L 360.769874 165.807142 
L 376.208609 165.927013 
L 391.647344 165.951317 
L 407.08608 165.550947 
" style="fill:none;stroke:#1b9e77;stroke-linecap:square;stroke-opacity:0.5;stroke-width:1.5;"/>
   </g>
   <g id="line2d_93">
    <path clip-path="url(#p8d1877d430)" d="M 51.99517 165.009258 
L 67.433906 164.102019 
L 82.872641 163.381242 
L 98.311376 164.829648 
L 113.750111 164.180883 
L 129.188846 152.494713 
L 144.627582 139.004674 
L 160.066317 116.511911 
L 175.505052 138.708728 
L 190.943787 159.188389 
L 206.382522 147.70374 
L 221.821257 151.476148 
L 237.259993 163.952117 
L 252.698728 165.621585 
L 268.137463 165.907602 
L 283.576198 165.93197 
L 299.014933 165.942758 
L 314.453668 165.947769 
L 329.892404 165.94796 
L 345.331139 165.953286 
L 360.769874 165.95697 
L 376.208609 165.96 
L 391.647344 165.957551 
L 407.08608 165.895988 
" style="fill:none;stroke:#1b9e77;stroke-linecap:square;stroke-opacity:0.5;stroke-width:1.5;"/>
   </g>
   <g id="line2d_94">
    <path clip-path="url(#p8d1877d430)" d="M 51.99517 165.826036 
L 67.433906 165.670396 
L 82.872641 165.685246 
L 98.311376 165.829152 
L 113.750111 165.868397 
L 129.188846 165.933148 
L 144.627582 165.913413 
L 160.066317 158.402852 
L 175.505052 150.283469 
L 190.943787 145.479245 
L 206.382522 150.844191 
L 221.821257 149.767412 
L 237.259993 122.04296 
L 252.698728 125.71656 
L 268.137463 161.206873 
L 283.576198 165.56333 
L 299.014933 165.294419 
L 314.453668 165.264104 
L 329.892404 165.570268 
L 345.331139 165.775988 
L 360.769874 165.826177 
L 376.208609 165.917959 
L 391.647344 165.948675 
L 407.08608 165.936638 
" style="fill:none;stroke:#1b9e77;stroke-linecap:square;stroke-opacity:0.5;stroke-width:1.5;"/>
   </g>
   <g id="line2d_95">
    <path clip-path="url(#p8d1877d430)" d="M 51.99517 165.223259 
L 67.433906 165.744407 
L 82.872641 165.681854 
L 98.311376 165.852964 
L 113.750111 165.896199 
L 129.188846 161.630376 
L 144.627582 160.50121 
L 160.066317 155.851465 
L 175.505052 158.502526 
L 190.943787 163.772863 
L 206.382522 165.545193 
L 221.821257 165.251659 
L 237.259993 152.662434 
L 252.698728 133.529377 
L 268.137463 164.111677 
L 283.576198 163.783847 
L 299.014933 149.439681 
L 314.453668 147.295491 
L 329.892404 145.772818 
L 345.331139 155.270865 
L 360.769874 162.3225 
L 376.208609 157.551379 
L 391.647344 159.126619 
L 407.08608 165.246247 
" style="fill:none;stroke:#1b9e77;stroke-linecap:square;stroke-opacity:0.5;stroke-width:1.5;"/>
   </g>
   <g id="line2d_96">
    <path clip-path="url(#p8d1877d430)" d="M 51.99517 161.186056 
L 67.433906 145.144785 
L 82.872641 160.06443 
L 98.311376 162.048952 
L 113.750111 162.642498 
L 129.188846 164.572759 
L 144.627582 165.481815 
L 160.066317 165.62335 
L 175.505052 165.463305 
L 190.943787 165.574744 
L 206.382522 165.733886 
L 221.821257 165.86871 
L 237.259993 165.90281 
L 252.698728 165.899671 
L 268.137463 165.874391 
L 283.576198 165.90015 
L 299.014933 165.884664 
L 314.453668 163.357771 
L 329.892404 135.926702 
L 345.331139 160.527666 
L 360.769874 164.071183 
L 376.208609 161.529832 
L 391.647344 142.618788 
L 407.08608 108.667994 
" style="fill:none;stroke:#1b9e77;stroke-linecap:square;stroke-opacity:0.5;stroke-width:1.5;"/>
   </g>
   <g id="line2d_97">
    <path clip-path="url(#p8d1877d430)" d="M 51.99517 165.866798 
L 67.433906 165.792105 
L 82.872641 165.865364 
L 98.311376 165.93548 
L 113.750111 165.944764 
L 129.188846 165.954764 
L 144.627582 165.92566 
L 160.066317 159.937707 
L 175.505052 151.158812 
L 190.943787 139.379948 
L 206.382522 102.81938 
L 221.821257 137.912948 
L 237.259993 160.875125 
L 252.698728 164.087752 
L 268.137463 165.439757 
L 283.576198 164.927777 
L 299.014933 156.03457 
L 314.453668 162.871982 
L 329.892404 164.988821 
L 345.331139 164.978741 
L 360.769874 165.298062 
L 376.208609 163.995516 
L 391.647344 163.930812 
L 407.08608 165.644262 
" style="fill:none;stroke:#1b9e77;stroke-linecap:square;stroke-opacity:0.5;stroke-width:1.5;"/>
   </g>
   <g id="line2d_98">
    <path clip-path="url(#p8d1877d430)" d="M 51.99517 163.29023 
L 67.433906 155.726267 
L 82.872641 133.548278 
L 98.311376 145.754538 
L 113.750111 133.684523 
L 129.188846 133.016844 
L 144.627582 163.489348 
L 160.066317 164.604031 
L 175.505052 164.517347 
L 190.943787 164.902535 
L 206.382522 164.358668 
L 221.821257 164.300334 
L 237.259993 158.557715 
L 252.698728 157.949866 
L 268.137463 164.272212 
L 283.576198 158.41295 
L 299.014933 165.249503 
L 314.453668 165.378099 
L 329.892404 165.594294 
L 345.331139 165.731533 
L 360.769874 165.736816 
L 376.208609 165.793538 
L 391.647344 165.772438 
L 407.08608 165.925005 
" style="fill:none;stroke:#1b9e77;stroke-linecap:square;stroke-opacity:0.5;stroke-width:1.5;"/>
   </g>
   <g id="line2d_99">
    <path clip-path="url(#p8d1877d430)" d="M 51.99517 154.692693 
L 67.433906 159.820255 
L 82.872641 162.683457 
L 98.311376 165.184656 
L 113.750111 165.538785 
L 129.188846 165.669559 
L 144.627582 165.52258 
L 160.066317 165.295743 
L 175.505052 165.032945 
L 190.943787 164.77764 
L 206.382522 164.721248 
L 221.821257 163.874908 
L 237.259993 162.228782 
L 252.698728 159.448313 
L 268.137463 161.003383 
L 283.576198 163.783306 
L 299.014933 164.858311 
L 314.453668 165.040618 
L 329.892404 164.834601 
L 345.331139 165.228004 
L 360.769874 165.133083 
L 376.208609 164.524417 
L 391.647344 160.843348 
L 407.08608 55.826278 
" style="fill:none;stroke:#1b9e77;stroke-linecap:square;stroke-opacity:0.5;stroke-width:1.5;"/>
   </g>
   <g id="line2d_100">
    <path clip-path="url(#p8d1877d430)" d="M 51.99517 165.895097 
L 67.433906 165.470481 
L 82.872641 164.078532 
L 98.311376 164.726629 
L 113.750111 164.360044 
L 129.188846 165.271359 
L 144.627582 157.836089 
L 160.066317 157.473543 
L 175.505052 163.970629 
L 190.943787 165.398536 
L 206.382522 165.656709 
L 221.821257 163.259423 
L 237.259993 161.276139 
L 252.698728 164.378274 
L 268.137463 164.89387 
L 283.576198 163.410734 
L 299.014933 147.127685 
L 314.453668 124.252428 
L 329.892404 154.25674 
L 345.331139 164.875328 
L 360.769874 162.892481 
L 376.208609 156.046381 
L 391.647344 152.694577 
L 407.08608 136.065207 
" style="fill:none;stroke:#1b9e77;stroke-linecap:square;stroke-opacity:0.5;stroke-width:1.5;"/>
   </g>
   <g id="line2d_101">
    <path clip-path="url(#p8d1877d430)" d="M 51.99517 165.895854 
L 67.433906 165.764716 
L 82.872641 165.787882 
L 98.311376 165.884325 
L 113.750111 165.919317 
L 129.188846 165.937491 
L 144.627582 165.936012 
L 160.066317 165.948517 
L 175.505052 165.944506 
L 190.943787 164.255994 
L 206.382522 156.574652 
L 221.821257 148.396672 
L 237.259993 128.363416 
L 252.698728 137.976795 
L 268.137463 155.235282 
L 283.576198 162.372061 
L 299.014933 163.606556 
L 314.453668 158.883486 
L 329.892404 161.948393 
L 345.331139 162.978684 
L 360.769874 148.664497 
L 376.208609 151.037537 
L 391.647344 156.613009 
L 407.08608 165.641261 
" style="fill:none;stroke:#1b9e77;stroke-linecap:square;stroke-opacity:0.5;stroke-width:1.5;"/>
   </g>
   <g id="line2d_102">
    <path clip-path="url(#p8d1877d430)" d="M 51.99517 165.665151 
L 67.433906 165.118397 
L 82.872641 165.344836 
L 98.311376 165.677676 
L 113.750111 165.802115 
L 129.188846 165.880392 
L 144.627582 165.90445 
L 160.066317 165.932544 
L 175.505052 165.940371 
L 190.943787 165.947226 
L 206.382522 165.891965 
L 221.821257 164.061452 
L 237.259993 145.726545 
L 252.698728 135.757807 
L 268.137463 128.273003 
L 283.576198 129.43756 
L 299.014933 134.170154 
L 314.453668 160.001037 
L 329.892404 165.798686 
L 345.331139 165.758437 
L 360.769874 165.731052 
L 376.208609 165.878338 
L 391.647344 165.935418 
L 407.08608 165.932302 
" style="fill:none;stroke:#1b9e77;stroke-linecap:square;stroke-opacity:0.5;stroke-width:1.5;"/>
   </g>
   <g id="line2d_103">
    <path clip-path="url(#p8d1877d430)" d="M 51.99517 165.809346 
L 67.433906 165.714333 
L 82.872641 165.801349 
L 98.311376 165.895661 
L 113.750111 165.923867 
L 129.188846 165.938428 
L 144.627582 165.941749 
L 160.066317 165.953297 
L 175.505052 165.957158 
L 190.943787 165.957122 
L 206.382522 165.953788 
L 221.821257 165.939145 
L 237.259993 165.205224 
L 252.698728 144.438143 
L 268.137463 126.597581 
L 283.576198 136.158675 
L 299.014933 145.151022 
L 314.453668 141.441952 
L 329.892404 158.340408 
L 345.331139 157.905727 
L 360.769874 158.836504 
L 376.208609 161.804517 
L 391.647344 163.22368 
L 407.08608 165.678233 
" style="fill:none;stroke:#1b9e77;stroke-linecap:square;stroke-opacity:0.5;stroke-width:1.5;"/>
   </g>
   <g id="line2d_104">
    <path clip-path="url(#p8d1877d430)" d="M 51.99517 165.701626 
L 67.433906 165.304635 
L 82.872641 165.453393 
L 98.311376 165.670438 
L 113.750111 165.740254 
L 129.188846 165.826538 
L 144.627582 165.865736 
L 160.066317 165.894195 
L 175.505052 165.899241 
L 190.943787 165.910925 
L 206.382522 165.913812 
L 221.821257 165.924415 
L 237.259993 165.930658 
L 252.698728 165.946488 
L 268.137463 165.949664 
L 283.576198 165.940945 
L 299.014933 165.892474 
L 314.453668 165.027017 
L 329.892404 127.094159 
L 345.331139 131.237587 
L 360.769874 123.381875 
L 376.208609 123.038396 
L 391.647344 162.860466 
L 407.08608 164.161977 
" style="fill:none;stroke:#1b9e77;stroke-linecap:square;stroke-opacity:0.5;stroke-width:1.5;"/>
   </g>
   <g id="line2d_105">
    <path clip-path="url(#p8d1877d430)" d="M 51.99517 165.400141 
L 67.433906 164.984609 
L 82.872641 161.368291 
L 98.311376 157.176169 
L 113.750111 75.049262 
L 129.188846 135.305814 
L 144.627582 163.61462 
L 160.066317 150.422125 
L 175.505052 161.517244 
L 190.943787 164.453115 
L 206.382522 164.7501 
L 221.821257 160.761433 
L 237.259993 165.5952 
L 252.698728 165.914169 
L 268.137463 165.896225 
L 283.576198 165.906678 
L 299.014933 165.91696 
L 314.453668 165.929418 
L 329.892404 165.933177 
L 345.331139 165.930475 
L 360.769874 165.923677 
L 376.208609 165.947263 
L 391.647344 165.955502 
L 407.08608 165.915239 
" style="fill:none;stroke:#1b9e77;stroke-linecap:square;stroke-opacity:0.5;stroke-width:1.5;"/>
   </g>
   <g id="line2d_106">
    <path clip-path="url(#p8d1877d430)" d="M 51.99517 163.609203 
L 67.433906 164.116353 
L 82.872641 165.02701 
L 98.311376 165.740423 
L 113.750111 165.768558 
L 129.188846 165.551213 
L 144.627582 154.533673 
L 160.066317 105.014602 
L 175.505052 145.027589 
L 190.943787 163.977542 
L 206.382522 164.943279 
L 221.821257 165.244674 
L 237.259993 165.517855 
L 252.698728 162.935969 
L 268.137463 159.851498 
L 283.576198 159.563205 
L 299.014933 161.307682 
L 314.453668 161.953521 
L 329.892404 161.682825 
L 345.331139 161.556616 
L 360.769874 162.194259 
L 376.208609 165.293883 
L 391.647344 165.766677 
L 407.08608 139.388818 
" style="fill:none;stroke:#1b9e77;stroke-linecap:square;stroke-opacity:0.5;stroke-width:1.5;"/>
   </g>
   <g id="line2d_107">
    <path clip-path="url(#p8d1877d430)" d="M 51.99517 124.528409 
L 67.433906 132.242859 
L 82.872641 145.283427 
L 98.311376 161.807378 
L 113.750111 164.541812 
L 129.188846 165.327901 
L 144.627582 165.329352 
L 160.066317 165.591457 
L 175.505052 165.695198 
L 190.943787 165.553916 
L 206.382522 165.420208 
L 221.821257 165.222582 
L 237.259993 164.312346 
L 252.698728 164.114527 
L 268.137463 165.108489 
L 283.576198 165.117232 
L 299.014933 164.987253 
L 314.453668 164.564359 
L 329.892404 164.351877 
L 345.331139 165.274995 
L 360.769874 165.428412 
L 376.208609 165.390986 
L 391.647344 164.050746 
L 407.08608 116.321189 
" style="fill:none;stroke:#1b9e77;stroke-linecap:square;stroke-opacity:0.5;stroke-width:1.5;"/>
   </g>
   <g id="line2d_108">
    <path clip-path="url(#p8d1877d430)" d="M 51.99517 162.339586 
L 67.433906 156.287834 
L 82.872641 97.396775 
L 98.311376 161.019765 
L 113.750111 162.583598 
L 129.188846 152.88398 
L 144.627582 151.856222 
L 160.066317 155.395921 
L 175.505052 147.733798 
L 190.943787 165.517027 
L 206.382522 165.681089 
L 221.821257 164.515586 
L 237.259993 164.104855 
L 252.698728 152.465369 
L 268.137463 165.276062 
L 283.576198 165.387018 
L 299.014933 165.455302 
L 314.453668 165.662339 
L 329.892404 165.760952 
L 345.331139 165.833225 
L 360.769874 165.856603 
L 376.208609 165.831538 
L 391.647344 165.489127 
L 407.08608 165.233342 
" style="fill:none;stroke:#1b9e77;stroke-linecap:square;stroke-opacity:0.5;stroke-width:1.5;"/>
   </g>
   <g id="line2d_109">
    <path clip-path="url(#p8d1877d430)" d="M 51.99517 151.058467 
L 67.433906 160.545863 
L 82.872641 138.826701 
L 98.311376 160.836231 
L 113.750111 162.334687 
L 129.188846 164.074844 
L 144.627582 165.326193 
L 160.066317 164.754529 
L 175.505052 159.338191 
L 190.943787 163.057626 
L 206.382522 165.66833 
L 221.821257 165.739137 
L 237.259993 165.558974 
L 252.698728 164.430225 
L 268.137463 160.813377 
L 283.576198 158.564398 
L 299.014933 148.726328 
L 314.453668 126.027697 
L 329.892404 155.809489 
L 345.331139 158.826985 
L 360.769874 160.702055 
L 376.208609 165.156385 
L 391.647344 165.861731 
L 407.08608 163.528469 
" style="fill:none;stroke:#1b9e77;stroke-linecap:square;stroke-opacity:0.5;stroke-width:1.5;"/>
   </g>
   <g id="line2d_110">
    <path clip-path="url(#p8d1877d430)" d="M 51.99517 165.891291 
L 67.433906 165.784718 
L 82.872641 165.828418 
L 98.311376 165.89732 
L 113.750111 165.921477 
L 129.188846 165.944282 
L 144.627582 165.950776 
L 160.066317 165.955112 
L 175.505052 165.939479 
L 190.943787 165.890709 
L 206.382522 163.364933 
L 221.821257 159.462092 
L 237.259993 160.561825 
L 252.698728 157.495681 
L 268.137463 146.341464 
L 283.576198 140.484735 
L 299.014933 151.387216 
L 314.453668 154.908284 
L 329.892404 158.127256 
L 345.331139 164.412827 
L 360.769874 162.893748 
L 376.208609 129.689976 
L 391.647344 156.462655 
L 407.08608 150.970635 
" style="fill:none;stroke:#1b9e77;stroke-linecap:square;stroke-opacity:0.5;stroke-width:1.5;"/>
   </g>
   <g id="line2d_111">
    <path clip-path="url(#p8d1877d430)" d="M 51.99517 165.539864 
L 67.433906 165.363484 
L 82.872641 165.435621 
L 98.311376 165.312115 
L 113.750111 165.375046 
L 129.188846 165.483107 
L 144.627582 165.656903 
L 160.066317 165.690648 
L 175.505052 165.598952 
L 190.943787 165.642079 
L 206.382522 165.70978 
L 221.821257 165.779114 
L 237.259993 165.714613 
L 252.698728 165.860353 
L 268.137463 164.665943 
L 283.576198 119.124636 
L 299.014933 152.429756 
L 314.453668 137.81974 
L 329.892404 119.917984 
L 345.331139 154.049581 
L 360.769874 162.14542 
L 376.208609 162.52599 
L 391.647344 159.484984 
L 407.08608 165.241198 
" style="fill:none;stroke:#1b9e77;stroke-linecap:square;stroke-opacity:0.5;stroke-width:1.5;"/>
   </g>
   <g id="line2d_112">
    <path clip-path="url(#p8d1877d430)" d="M 51.99517 165.951595 
L 67.433906 165.951595 
L 82.872641 165.951595 
L 98.311376 165.951595 
L 113.750111 165.951595 
L 129.188846 165.951595 
L 144.627582 165.799539 
L 160.066317 157.606916 
L 175.505052 117.08469 
L 190.943787 148.657734 
L 206.382522 156.338197 
L 221.821257 147.683603 
L 237.259993 165.951595 
L 252.698728 165.951595 
L 268.137463 165.951595 
L 283.576198 165.951595 
L 299.014933 165.951595 
L 314.453668 165.951595 
L 329.892404 165.951595 
L 345.331139 165.951595 
L 360.769874 165.951595 
L 376.208609 155.155432 
L 391.647344 142.967778 
L 407.08608 134.999092 
" style="fill:none;stroke:#d95f02;stroke-linecap:square;stroke-width:1.5;"/>
   </g>
   <g id="patch_3">
    <path d="M 34.240625 173.52 
L 34.240625 7.2 
" style="fill:none;stroke:#000000;stroke-linecap:square;stroke-linejoin:miter;stroke-width:0.8;"/>
   </g>
   <g id="patch_4">
    <path d="M 34.240625 173.52 
L 424.840625 173.52 
" style="fill:none;stroke:#000000;stroke-linecap:square;stroke-linejoin:miter;stroke-width:0.8;"/>
   </g>
   <g id="legend_1">
    <g id="patch_5">
     <path d="M 366.673438 29.878125 
L 417.840625 29.878125 
Q 419.840625 29.878125 419.840625 27.878125 
L 419.840625 14.2 
Q 419.840625 12.2 417.840625 12.2 
L 366.673438 12.2 
Q 364.673438 12.2 364.673438 14.2 
L 364.673438 27.878125 
Q 364.673438 29.878125 366.673438 29.878125 
z
" style="fill:#ffffff;opacity:0.8;stroke:#cccccc;stroke-linejoin:miter;"/>
    </g>
    <g id="line2d_113">
     <path d="M 368.673438 20.298438 
L 388.673438 20.298438 
" style="fill:none;stroke:#d95f02;stroke-linecap:square;stroke-width:1.5;"/>
    </g>
    <g id="line2d_114"/>
    <g id="text_14">
     <!-- real -->
     <defs>
      <path d="M 9.421875 75.984375 
L 18.40625 75.984375 
L 18.40625 0 
L 9.421875 0 
z
" id="DejaVuSans-108"/>
     </defs>
     <g transform="translate(396.673438 23.798438)scale(0.1 -0.1)">
      <use xlink:href="#DejaVuSans-114"/>
      <use x="41.082031" xlink:href="#DejaVuSans-101"/>
      <use x="102.605469" xlink:href="#DejaVuSans-97"/>
      <use x="163.884766" xlink:href="#DejaVuSans-108"/>
     </g>
    </g>
   </g>
  </g>
 </g>
 <defs>
  <clipPath id="p8d1877d430">
   <rect height="166.32" width="390.6" x="34.240625" y="7.2"/>
  </clipPath>
 </defs>
</svg>
