<?xml version="1.0" encoding="utf-8" standalone="no"?>
<!DOCTYPE svg PUBLIC "-//W3C//DTD SVG 1.1//EN"
  "http://www.w3.org/Graphics/SVG/1.1/DTD/svg11.dtd">
<!-- Created with matplotlib (https://matplotlib.org/) -->
<svg height="211.07625pt" version="1.1" viewBox="0 0 445.62794 211.07625" width="445.62794pt" xmlns="http://www.w3.org/2000/svg" xmlns:xlink="http://www.w3.org/1999/xlink">
 <defs>
  <style type="text/css">
*{stroke-linecap:butt;stroke-linejoin:round;}
  </style>
 </defs>
 <g id="figure_1">
  <g id="patch_1">
   <path d="M 0 211.07625 
L 445.62794 211.07625 
L 445.62794 0 
L 0 0 
z
" style="fill:#ffffff;"/>
  </g>
  <g id="axes_1">
   <g id="patch_2">
    <path d="M 43.78125 173.52 
L 434.38125 173.52 
L 434.38125 7.2 
L 43.78125 7.2 
z
" style="fill:#ffffff;"/>
   </g>
   <g id="matplotlib.axis_1">
    <g id="xtick_1">
     <g id="line2d_1">
      <defs>
       <path d="M 0 0 
L 0 3.5 
" id="mff4e1549c4" style="stroke:#000000;stroke-width:0.8;"/>
      </defs>
      <g>
       <use style="stroke:#000000;stroke-width:0.8;" x="46.09706" xlink:href="#mff4e1549c4" y="173.52"/>
      </g>
     </g>
     <g id="text_1">
      <!-- 0 -->
      <defs>
       <path d="M 31.78125 66.40625 
Q 24.171875 66.40625 20.328125 58.90625 
Q 16.5 51.421875 16.5 36.375 
Q 16.5 21.390625 20.328125 13.890625 
Q 24.171875 6.390625 31.78125 6.390625 
Q 39.453125 6.390625 43.28125 13.890625 
Q 47.125 21.390625 47.125 36.375 
Q 47.125 51.421875 43.28125 58.90625 
Q 39.453125 66.40625 31.78125 66.40625 
z
M 31.78125 74.21875 
Q 44.046875 74.21875 50.515625 64.515625 
Q 56.984375 54.828125 56.984375 36.375 
Q 56.984375 17.96875 50.515625 8.265625 
Q 44.046875 -1.421875 31.78125 -1.421875 
Q 19.53125 -1.421875 13.0625 8.265625 
Q 6.59375 17.96875 6.59375 36.375 
Q 6.59375 54.828125 13.0625 64.515625 
Q 19.53125 74.21875 31.78125 74.21875 
z
" id="DejaVuSans-48"/>
      </defs>
      <g transform="translate(42.91581 188.118438)scale(0.1 -0.1)">
       <use xlink:href="#DejaVuSans-48"/>
      </g>
     </g>
    </g>
    <g id="xtick_2">
     <g id="line2d_2">
      <g>
       <use style="stroke:#000000;stroke-width:0.8;" x="123.290736" xlink:href="#mff4e1549c4" y="173.52"/>
      </g>
     </g>
     <g id="text_2">
      <!-- 5 -->
      <defs>
       <path d="M 10.796875 72.90625 
L 49.515625 72.90625 
L 49.515625 64.59375 
L 19.828125 64.59375 
L 19.828125 46.734375 
Q 21.96875 47.46875 24.109375 47.828125 
Q 26.265625 48.1875 28.421875 48.1875 
Q 40.625 48.1875 47.75 41.5 
Q 54.890625 34.8125 54.890625 23.390625 
Q 54.890625 11.625 47.5625 5.09375 
Q 40.234375 -1.421875 26.90625 -1.421875 
Q 22.3125 -1.421875 17.546875 -0.640625 
Q 12.796875 0.140625 7.71875 1.703125 
L 7.71875 11.625 
Q 12.109375 9.234375 16.796875 8.0625 
Q 21.484375 6.890625 26.703125 6.890625 
Q 35.15625 6.890625 40.078125 11.328125 
Q 45.015625 15.765625 45.015625 23.390625 
Q 45.015625 31 40.078125 35.4375 
Q 35.15625 39.890625 26.703125 39.890625 
Q 22.75 39.890625 18.8125 39.015625 
Q 14.890625 38.140625 10.796875 36.28125 
z
" id="DejaVuSans-53"/>
      </defs>
      <g transform="translate(120.109486 188.118438)scale(0.1 -0.1)">
       <use xlink:href="#DejaVuSans-53"/>
      </g>
     </g>
    </g>
    <g id="xtick_3">
     <g id="line2d_3">
      <g>
       <use style="stroke:#000000;stroke-width:0.8;" x="200.484412" xlink:href="#mff4e1549c4" y="173.52"/>
      </g>
     </g>
     <g id="text_3">
      <!-- 10 -->
      <defs>
       <path d="M 12.40625 8.296875 
L 28.515625 8.296875 
L 28.515625 63.921875 
L 10.984375 60.40625 
L 10.984375 69.390625 
L 28.421875 72.90625 
L 38.28125 72.90625 
L 38.28125 8.296875 
L 54.390625 8.296875 
L 54.390625 0 
L 12.40625 0 
z
" id="DejaVuSans-49"/>
      </defs>
      <g transform="translate(194.121912 188.118438)scale(0.1 -0.1)">
       <use xlink:href="#DejaVuSans-49"/>
       <use x="63.623047" xlink:href="#DejaVuSans-48"/>
      </g>
     </g>
    </g>
    <g id="xtick_4">
     <g id="line2d_4">
      <g>
       <use style="stroke:#000000;stroke-width:0.8;" x="277.678088" xlink:href="#mff4e1549c4" y="173.52"/>
      </g>
     </g>
     <g id="text_4">
      <!-- 15 -->
      <g transform="translate(271.315588 188.118438)scale(0.1 -0.1)">
       <use xlink:href="#DejaVuSans-49"/>
       <use x="63.623047" xlink:href="#DejaVuSans-53"/>
      </g>
     </g>
    </g>
    <g id="xtick_5">
     <g id="line2d_5">
      <g>
       <use style="stroke:#000000;stroke-width:0.8;" x="354.871764" xlink:href="#mff4e1549c4" y="173.52"/>
      </g>
     </g>
     <g id="text_5">
      <!-- 20 -->
      <defs>
       <path d="M 19.1875 8.296875 
L 53.609375 8.296875 
L 53.609375 0 
L 7.328125 0 
L 7.328125 8.296875 
Q 12.9375 14.109375 22.625 23.890625 
Q 32.328125 33.6875 34.8125 36.53125 
Q 39.546875 41.84375 41.421875 45.53125 
Q 43.3125 49.21875 43.3125 52.78125 
Q 43.3125 58.59375 39.234375 62.25 
Q 35.15625 65.921875 28.609375 65.921875 
Q 23.96875 65.921875 18.8125 64.3125 
Q 13.671875 62.703125 7.8125 59.421875 
L 7.8125 69.390625 
Q 13.765625 71.78125 18.9375 73 
Q 24.125 74.21875 28.421875 74.21875 
Q 39.75 74.21875 46.484375 68.546875 
Q 53.21875 62.890625 53.21875 53.421875 
Q 53.21875 48.921875 51.53125 44.890625 
Q 49.859375 40.875 45.40625 35.40625 
Q 44.1875 33.984375 37.640625 27.21875 
Q 31.109375 20.453125 19.1875 8.296875 
z
" id="DejaVuSans-50"/>
      </defs>
      <g transform="translate(348.509264 188.118438)scale(0.1 -0.1)">
       <use xlink:href="#DejaVuSans-50"/>
       <use x="63.623047" xlink:href="#DejaVuSans-48"/>
      </g>
     </g>
    </g>
    <g id="xtick_6">
     <g id="line2d_6">
      <g>
       <use style="stroke:#000000;stroke-width:0.8;" x="432.06544" xlink:href="#mff4e1549c4" y="173.52"/>
      </g>
     </g>
     <g id="text_6">
      <!-- 25 -->
      <g transform="translate(425.70294 188.118438)scale(0.1 -0.1)">
       <use xlink:href="#DejaVuSans-50"/>
       <use x="63.623047" xlink:href="#DejaVuSans-53"/>
      </g>
     </g>
    </g>
    <g id="text_7">
     <!-- hour -->
     <defs>
      <path d="M 54.890625 33.015625 
L 54.890625 0 
L 45.90625 0 
L 45.90625 32.71875 
Q 45.90625 40.484375 42.875 44.328125 
Q 39.84375 48.1875 33.796875 48.1875 
Q 26.515625 48.1875 22.3125 43.546875 
Q 18.109375 38.921875 18.109375 30.90625 
L 18.109375 0 
L 9.078125 0 
L 9.078125 75.984375 
L 18.109375 75.984375 
L 18.109375 46.1875 
Q 21.34375 51.125 25.703125 53.5625 
Q 30.078125 56 35.796875 56 
Q 45.21875 56 50.046875 50.171875 
Q 54.890625 44.34375 54.890625 33.015625 
z
" id="DejaVuSans-104"/>
      <path d="M 30.609375 48.390625 
Q 23.390625 48.390625 19.1875 42.75 
Q 14.984375 37.109375 14.984375 27.296875 
Q 14.984375 17.484375 19.15625 11.84375 
Q 23.34375 6.203125 30.609375 6.203125 
Q 37.796875 6.203125 41.984375 11.859375 
Q 46.1875 17.53125 46.1875 27.296875 
Q 46.1875 37.015625 41.984375 42.703125 
Q 37.796875 48.390625 30.609375 48.390625 
z
M 30.609375 56 
Q 42.328125 56 49.015625 48.375 
Q 55.71875 40.765625 55.71875 27.296875 
Q 55.71875 13.875 49.015625 6.21875 
Q 42.328125 -1.421875 30.609375 -1.421875 
Q 18.84375 -1.421875 12.171875 6.21875 
Q 5.515625 13.875 5.515625 27.296875 
Q 5.515625 40.765625 12.171875 48.375 
Q 18.84375 56 30.609375 56 
z
" id="DejaVuSans-111"/>
      <path d="M 8.5 21.578125 
L 8.5 54.6875 
L 17.484375 54.6875 
L 17.484375 21.921875 
Q 17.484375 14.15625 20.5 10.265625 
Q 23.53125 6.390625 29.59375 6.390625 
Q 36.859375 6.390625 41.078125 11.03125 
Q 45.3125 15.671875 45.3125 23.6875 
L 45.3125 54.6875 
L 54.296875 54.6875 
L 54.296875 0 
L 45.3125 0 
L 45.3125 8.40625 
Q 42.046875 3.421875 37.71875 1 
Q 33.40625 -1.421875 27.6875 -1.421875 
Q 18.265625 -1.421875 13.375 4.4375 
Q 8.5 10.296875 8.5 21.578125 
z
M 31.109375 56 
z
" id="DejaVuSans-117"/>
      <path d="M 41.109375 46.296875 
Q 39.59375 47.171875 37.8125 47.578125 
Q 36.03125 48 33.890625 48 
Q 26.265625 48 22.1875 43.046875 
Q 18.109375 38.09375 18.109375 28.8125 
L 18.109375 0 
L 9.078125 0 
L 9.078125 54.6875 
L 18.109375 54.6875 
L 18.109375 46.1875 
Q 20.953125 51.171875 25.484375 53.578125 
Q 30.03125 56 36.53125 56 
Q 37.453125 56 38.578125 55.875 
Q 39.703125 55.765625 41.0625 55.515625 
z
" id="DejaVuSans-114"/>
     </defs>
     <g transform="translate(227.628906 201.796563)scale(0.1 -0.1)">
      <use xlink:href="#DejaVuSans-104"/>
      <use x="63.378906" xlink:href="#DejaVuSans-111"/>
      <use x="124.560547" xlink:href="#DejaVuSans-117"/>
      <use x="187.939453" xlink:href="#DejaVuSans-114"/>
     </g>
    </g>
   </g>
   <g id="matplotlib.axis_2">
    <g id="ytick_1">
     <g id="line2d_7">
      <defs>
       <path d="M 0 0 
L -3.5 0 
" id="mc5e8ee411a" style="stroke:#000000;stroke-width:0.8;"/>
      </defs>
      <g>
       <use style="stroke:#000000;stroke-width:0.8;" x="43.78125" xlink:href="#mc5e8ee411a" y="165.961172"/>
      </g>
     </g>
     <g id="text_8">
      <!-- 0.0 -->
      <defs>
       <path d="M 10.6875 12.40625 
L 21 12.40625 
L 21 0 
L 10.6875 0 
z
" id="DejaVuSans-46"/>
      </defs>
      <g transform="translate(20.878125 169.760391)scale(0.1 -0.1)">
       <use xlink:href="#DejaVuSans-48"/>
       <use x="63.623047" xlink:href="#DejaVuSans-46"/>
       <use x="95.410156" xlink:href="#DejaVuSans-48"/>
      </g>
     </g>
    </g>
    <g id="ytick_2">
     <g id="line2d_8">
      <g>
       <use style="stroke:#000000;stroke-width:0.8;" x="43.78125" xlink:href="#mc5e8ee411a" y="144.664505"/>
      </g>
     </g>
     <g id="text_9">
      <!-- 0.5 -->
      <g transform="translate(20.878125 148.463724)scale(0.1 -0.1)">
       <use xlink:href="#DejaVuSans-48"/>
       <use x="63.623047" xlink:href="#DejaVuSans-46"/>
       <use x="95.410156" xlink:href="#DejaVuSans-53"/>
      </g>
     </g>
    </g>
    <g id="ytick_3">
     <g id="line2d_9">
      <g>
       <use style="stroke:#000000;stroke-width:0.8;" x="43.78125" xlink:href="#mc5e8ee411a" y="123.367839"/>
      </g>
     </g>
     <g id="text_10">
      <!-- 1.0 -->
      <g transform="translate(20.878125 127.167058)scale(0.1 -0.1)">
       <use xlink:href="#DejaVuSans-49"/>
       <use x="63.623047" xlink:href="#DejaVuSans-46"/>
       <use x="95.410156" xlink:href="#DejaVuSans-48"/>
      </g>
     </g>
    </g>
    <g id="ytick_4">
     <g id="line2d_10">
      <g>
       <use style="stroke:#000000;stroke-width:0.8;" x="43.78125" xlink:href="#mc5e8ee411a" y="102.071172"/>
      </g>
     </g>
     <g id="text_11">
      <!-- 1.5 -->
      <g transform="translate(20.878125 105.870391)scale(0.1 -0.1)">
       <use xlink:href="#DejaVuSans-49"/>
       <use x="63.623047" xlink:href="#DejaVuSans-46"/>
       <use x="95.410156" xlink:href="#DejaVuSans-53"/>
      </g>
     </g>
    </g>
    <g id="ytick_5">
     <g id="line2d_11">
      <g>
       <use style="stroke:#000000;stroke-width:0.8;" x="43.78125" xlink:href="#mc5e8ee411a" y="80.774506"/>
      </g>
     </g>
     <g id="text_12">
      <!-- 2.0 -->
      <g transform="translate(20.878125 84.573724)scale(0.1 -0.1)">
       <use xlink:href="#DejaVuSans-50"/>
       <use x="63.623047" xlink:href="#DejaVuSans-46"/>
       <use x="95.410156" xlink:href="#DejaVuSans-48"/>
      </g>
     </g>
    </g>
    <g id="ytick_6">
     <g id="line2d_12">
      <g>
       <use style="stroke:#000000;stroke-width:0.8;" x="43.78125" xlink:href="#mc5e8ee411a" y="59.477839"/>
      </g>
     </g>
     <g id="text_13">
      <!-- 2.5 -->
      <g transform="translate(20.878125 63.277058)scale(0.1 -0.1)">
       <use xlink:href="#DejaVuSans-50"/>
       <use x="63.623047" xlink:href="#DejaVuSans-46"/>
       <use x="95.410156" xlink:href="#DejaVuSans-53"/>
      </g>
     </g>
    </g>
    <g id="ytick_7">
     <g id="line2d_13">
      <g>
       <use style="stroke:#000000;stroke-width:0.8;" x="43.78125" xlink:href="#mc5e8ee411a" y="38.181172"/>
      </g>
     </g>
     <g id="text_14">
      <!-- 3.0 -->
      <defs>
       <path d="M 40.578125 39.3125 
Q 47.65625 37.796875 51.625 33 
Q 55.609375 28.21875 55.609375 21.1875 
Q 55.609375 10.40625 48.1875 4.484375 
Q 40.765625 -1.421875 27.09375 -1.421875 
Q 22.515625 -1.421875 17.65625 -0.515625 
Q 12.796875 0.390625 7.625 2.203125 
L 7.625 11.71875 
Q 11.71875 9.328125 16.59375 8.109375 
Q 21.484375 6.890625 26.8125 6.890625 
Q 36.078125 6.890625 40.9375 10.546875 
Q 45.796875 14.203125 45.796875 21.1875 
Q 45.796875 27.640625 41.28125 31.265625 
Q 36.765625 34.90625 28.71875 34.90625 
L 20.21875 34.90625 
L 20.21875 43.015625 
L 29.109375 43.015625 
Q 36.375 43.015625 40.234375 45.921875 
Q 44.09375 48.828125 44.09375 54.296875 
Q 44.09375 59.90625 40.109375 62.90625 
Q 36.140625 65.921875 28.71875 65.921875 
Q 24.65625 65.921875 20.015625 65.03125 
Q 15.375 64.15625 9.8125 62.3125 
L 9.8125 71.09375 
Q 15.4375 72.65625 20.34375 73.4375 
Q 25.25 74.21875 29.59375 74.21875 
Q 40.828125 74.21875 47.359375 69.109375 
Q 53.90625 64.015625 53.90625 55.328125 
Q 53.90625 49.265625 50.4375 45.09375 
Q 46.96875 40.921875 40.578125 39.3125 
z
" id="DejaVuSans-51"/>
      </defs>
      <g transform="translate(20.878125 41.980391)scale(0.1 -0.1)">
       <use xlink:href="#DejaVuSans-51"/>
       <use x="63.623047" xlink:href="#DejaVuSans-46"/>
       <use x="95.410156" xlink:href="#DejaVuSans-48"/>
      </g>
     </g>
    </g>
    <g id="ytick_8">
     <g id="line2d_14">
      <g>
       <use style="stroke:#000000;stroke-width:0.8;" x="43.78125" xlink:href="#mc5e8ee411a" y="16.884506"/>
      </g>
     </g>
     <g id="text_15">
      <!-- 3.5 -->
      <g transform="translate(20.878125 20.683725)scale(0.1 -0.1)">
       <use xlink:href="#DejaVuSans-51"/>
       <use x="63.623047" xlink:href="#DejaVuSans-46"/>
       <use x="95.410156" xlink:href="#DejaVuSans-53"/>
      </g>
     </g>
    </g>
    <g id="text_16">
     <!-- precipitation [mm/hour] -->
     <defs>
      <path d="M 18.109375 8.203125 
L 18.109375 -20.796875 
L 9.078125 -20.796875 
L 9.078125 54.6875 
L 18.109375 54.6875 
L 18.109375 46.390625 
Q 20.953125 51.265625 25.265625 53.625 
Q 29.59375 56 35.59375 56 
Q 45.5625 56 51.78125 48.09375 
Q 58.015625 40.1875 58.015625 27.296875 
Q 58.015625 14.40625 51.78125 6.484375 
Q 45.5625 -1.421875 35.59375 -1.421875 
Q 29.59375 -1.421875 25.265625 0.953125 
Q 20.953125 3.328125 18.109375 8.203125 
z
M 48.6875 27.296875 
Q 48.6875 37.203125 44.609375 42.84375 
Q 40.53125 48.484375 33.40625 48.484375 
Q 26.265625 48.484375 22.1875 42.84375 
Q 18.109375 37.203125 18.109375 27.296875 
Q 18.109375 17.390625 22.1875 11.75 
Q 26.265625 6.109375 33.40625 6.109375 
Q 40.53125 6.109375 44.609375 11.75 
Q 48.6875 17.390625 48.6875 27.296875 
z
" id="DejaVuSans-112"/>
      <path d="M 56.203125 29.59375 
L 56.203125 25.203125 
L 14.890625 25.203125 
Q 15.484375 15.921875 20.484375 11.0625 
Q 25.484375 6.203125 34.421875 6.203125 
Q 39.59375 6.203125 44.453125 7.46875 
Q 49.3125 8.734375 54.109375 11.28125 
L 54.109375 2.78125 
Q 49.265625 0.734375 44.1875 -0.34375 
Q 39.109375 -1.421875 33.890625 -1.421875 
Q 20.796875 -1.421875 13.15625 6.1875 
Q 5.515625 13.8125 5.515625 26.8125 
Q 5.515625 40.234375 12.765625 48.109375 
Q 20.015625 56 32.328125 56 
Q 43.359375 56 49.78125 48.890625 
Q 56.203125 41.796875 56.203125 29.59375 
z
M 47.21875 32.234375 
Q 47.125 39.59375 43.09375 43.984375 
Q 39.0625 48.390625 32.421875 48.390625 
Q 24.90625 48.390625 20.390625 44.140625 
Q 15.875 39.890625 15.1875 32.171875 
z
" id="DejaVuSans-101"/>
      <path d="M 48.78125 52.59375 
L 48.78125 44.1875 
Q 44.96875 46.296875 41.140625 47.34375 
Q 37.3125 48.390625 33.40625 48.390625 
Q 24.65625 48.390625 19.8125 42.84375 
Q 14.984375 37.3125 14.984375 27.296875 
Q 14.984375 17.28125 19.8125 11.734375 
Q 24.65625 6.203125 33.40625 6.203125 
Q 37.3125 6.203125 41.140625 7.25 
Q 44.96875 8.296875 48.78125 10.40625 
L 48.78125 2.09375 
Q 45.015625 0.34375 40.984375 -0.53125 
Q 36.96875 -1.421875 32.421875 -1.421875 
Q 20.0625 -1.421875 12.78125 6.34375 
Q 5.515625 14.109375 5.515625 27.296875 
Q 5.515625 40.671875 12.859375 48.328125 
Q 20.21875 56 33.015625 56 
Q 37.15625 56 41.109375 55.140625 
Q 45.0625 54.296875 48.78125 52.59375 
z
" id="DejaVuSans-99"/>
      <path d="M 9.421875 54.6875 
L 18.40625 54.6875 
L 18.40625 0 
L 9.421875 0 
z
M 9.421875 75.984375 
L 18.40625 75.984375 
L 18.40625 64.59375 
L 9.421875 64.59375 
z
" id="DejaVuSans-105"/>
      <path d="M 18.3125 70.21875 
L 18.3125 54.6875 
L 36.8125 54.6875 
L 36.8125 47.703125 
L 18.3125 47.703125 
L 18.3125 18.015625 
Q 18.3125 11.328125 20.140625 9.421875 
Q 21.96875 7.515625 27.59375 7.515625 
L 36.8125 7.515625 
L 36.8125 0 
L 27.59375 0 
Q 17.1875 0 13.234375 3.875 
Q 9.28125 7.765625 9.28125 18.015625 
L 9.28125 47.703125 
L 2.6875 47.703125 
L 2.6875 54.6875 
L 9.28125 54.6875 
L 9.28125 70.21875 
z
" id="DejaVuSans-116"/>
      <path d="M 34.28125 27.484375 
Q 23.390625 27.484375 19.1875 25 
Q 14.984375 22.515625 14.984375 16.5 
Q 14.984375 11.71875 18.140625 8.90625 
Q 21.296875 6.109375 26.703125 6.109375 
Q 34.1875 6.109375 38.703125 11.40625 
Q 43.21875 16.703125 43.21875 25.484375 
L 43.21875 27.484375 
z
M 52.203125 31.203125 
L 52.203125 0 
L 43.21875 0 
L 43.21875 8.296875 
Q 40.140625 3.328125 35.546875 0.953125 
Q 30.953125 -1.421875 24.3125 -1.421875 
Q 15.921875 -1.421875 10.953125 3.296875 
Q 6 8.015625 6 15.921875 
Q 6 25.140625 12.171875 29.828125 
Q 18.359375 34.515625 30.609375 34.515625 
L 43.21875 34.515625 
L 43.21875 35.40625 
Q 43.21875 41.609375 39.140625 45 
Q 35.0625 48.390625 27.6875 48.390625 
Q 23 48.390625 18.546875 47.265625 
Q 14.109375 46.140625 10.015625 43.890625 
L 10.015625 52.203125 
Q 14.9375 54.109375 19.578125 55.046875 
Q 24.21875 56 28.609375 56 
Q 40.484375 56 46.34375 49.84375 
Q 52.203125 43.703125 52.203125 31.203125 
z
" id="DejaVuSans-97"/>
      <path d="M 54.890625 33.015625 
L 54.890625 0 
L 45.90625 0 
L 45.90625 32.71875 
Q 45.90625 40.484375 42.875 44.328125 
Q 39.84375 48.1875 33.796875 48.1875 
Q 26.515625 48.1875 22.3125 43.546875 
Q 18.109375 38.921875 18.109375 30.90625 
L 18.109375 0 
L 9.078125 0 
L 9.078125 54.6875 
L 18.109375 54.6875 
L 18.109375 46.1875 
Q 21.34375 51.125 25.703125 53.5625 
Q 30.078125 56 35.796875 56 
Q 45.21875 56 50.046875 50.171875 
Q 54.890625 44.34375 54.890625 33.015625 
z
" id="DejaVuSans-110"/>
      <path id="DejaVuSans-32"/>
      <path d="M 8.59375 75.984375 
L 29.296875 75.984375 
L 29.296875 69 
L 17.578125 69 
L 17.578125 -6.203125 
L 29.296875 -6.203125 
L 29.296875 -13.1875 
L 8.59375 -13.1875 
z
" id="DejaVuSans-91"/>
      <path d="M 52 44.1875 
Q 55.375 50.25 60.0625 53.125 
Q 64.75 56 71.09375 56 
Q 79.640625 56 84.28125 50.015625 
Q 88.921875 44.046875 88.921875 33.015625 
L 88.921875 0 
L 79.890625 0 
L 79.890625 32.71875 
Q 79.890625 40.578125 77.09375 44.375 
Q 74.3125 48.1875 68.609375 48.1875 
Q 61.625 48.1875 57.5625 43.546875 
Q 53.515625 38.921875 53.515625 30.90625 
L 53.515625 0 
L 44.484375 0 
L 44.484375 32.71875 
Q 44.484375 40.625 41.703125 44.40625 
Q 38.921875 48.1875 33.109375 48.1875 
Q 26.21875 48.1875 22.15625 43.53125 
Q 18.109375 38.875 18.109375 30.90625 
L 18.109375 0 
L 9.078125 0 
L 9.078125 54.6875 
L 18.109375 54.6875 
L 18.109375 46.1875 
Q 21.1875 51.21875 25.484375 53.609375 
Q 29.78125 56 35.6875 56 
Q 41.65625 56 45.828125 52.96875 
Q 50 49.953125 52 44.1875 
z
" id="DejaVuSans-109"/>
      <path d="M 25.390625 72.90625 
L 33.6875 72.90625 
L 8.296875 -9.28125 
L 0 -9.28125 
z
" id="DejaVuSans-47"/>
      <path d="M 30.421875 75.984375 
L 30.421875 -13.1875 
L 9.71875 -13.1875 
L 9.71875 -6.203125 
L 21.390625 -6.203125 
L 21.390625 69 
L 9.71875 69 
L 9.71875 75.984375 
z
" id="DejaVuSans-93"/>
     </defs>
     <g transform="translate(14.798438 150.335781)rotate(-90)scale(0.1 -0.1)">
      <use xlink:href="#DejaVuSans-112"/>
      <use x="63.476562" xlink:href="#DejaVuSans-114"/>
      <use x="104.558594" xlink:href="#DejaVuSans-101"/>
      <use x="166.082031" xlink:href="#DejaVuSans-99"/>
      <use x="221.0625" xlink:href="#DejaVuSans-105"/>
      <use x="248.845703" xlink:href="#DejaVuSans-112"/>
      <use x="312.322266" xlink:href="#DejaVuSans-105"/>
      <use x="340.105469" xlink:href="#DejaVuSans-116"/>
      <use x="379.314453" xlink:href="#DejaVuSans-97"/>
      <use x="440.59375" xlink:href="#DejaVuSans-116"/>
      <use x="479.802734" xlink:href="#DejaVuSans-105"/>
      <use x="507.585938" xlink:href="#DejaVuSans-111"/>
      <use x="568.767578" xlink:href="#DejaVuSans-110"/>
      <use x="632.146484" xlink:href="#DejaVuSans-32"/>
      <use x="663.933594" xlink:href="#DejaVuSans-91"/>
      <use x="702.947266" xlink:href="#DejaVuSans-109"/>
      <use x="800.359375" xlink:href="#DejaVuSans-109"/>
      <use x="897.771484" xlink:href="#DejaVuSans-47"/>
      <use x="931.462891" xlink:href="#DejaVuSans-104"/>
      <use x="994.841797" xlink:href="#DejaVuSans-111"/>
      <use x="1056.023438" xlink:href="#DejaVuSans-117"/>
      <use x="1119.402344" xlink:href="#DejaVuSans-114"/>
      <use x="1160.515625" xlink:href="#DejaVuSans-93"/>
     </g>
    </g>
   </g>
   <g id="line2d_15">
    <path clip-path="url(#p51c3cb4f1f)" d="M 61.535795 164.749906 
L 76.974531 159.565544 
L 92.413266 155.891424 
L 107.852001 113.245049 
L 123.290736 115.911631 
L 138.729471 124.506803 
L 154.168207 146.742222 
L 169.606942 156.303044 
L 185.045677 164.858358 
L 200.484412 165.245395 
L 215.923147 165.529178 
L 231.361882 165.561811 
L 246.800618 165.23662 
L 262.239353 163.585994 
L 277.678088 156.336114 
L 293.116823 158.253702 
L 308.555558 152.707902 
L 323.994293 163.358707 
L 339.433029 160.087686 
L 354.871764 163.922867 
L 370.310499 165.209316 
L 385.749234 146.825489 
L 401.187969 165.94777 
L 416.626705 165.568835 
" style="fill:none;stroke:#1b9e77;stroke-linecap:square;stroke-opacity:0.5;stroke-width:1.5;"/>
   </g>
   <g id="line2d_16">
    <path clip-path="url(#p51c3cb4f1f)" d="M 61.535795 165.62933 
L 76.974531 165.643883 
L 92.413266 164.72867 
L 107.852001 163.716472 
L 123.290736 158.934575 
L 138.729471 129.218108 
L 154.168207 76.302042 
L 169.606942 130.333812 
L 185.045677 157.637566 
L 200.484412 135.092698 
L 215.923147 165.866512 
L 231.361882 165.928773 
L 246.800618 165.948993 
L 262.239353 162.73147 
L 277.678088 156.671678 
L 293.116823 165.925474 
L 308.555558 165.933102 
L 323.994293 162.56492 
L 339.433029 149.875725 
L 354.871764 165.602255 
L 370.310499 165.883711 
L 385.749234 165.925004 
L 401.187969 165.935383 
L 416.626705 153.121214 
" style="fill:none;stroke:#1b9e77;stroke-linecap:square;stroke-opacity:0.5;stroke-width:1.5;"/>
   </g>
   <g id="line2d_17">
    <path clip-path="url(#p51c3cb4f1f)" d="M 61.535795 163.836714 
L 76.974531 163.418055 
L 92.413266 165.35397 
L 107.852001 164.728911 
L 123.290736 164.741672 
L 138.729471 165.120099 
L 154.168207 165.295335 
L 169.606942 165.491132 
L 185.045677 165.501836 
L 200.484412 165.350785 
L 215.923147 165.290813 
L 231.361882 165.615275 
L 246.800618 165.545077 
L 262.239353 165.068047 
L 277.678088 156.969776 
L 293.116823 148.321143 
L 308.555558 137.509496 
L 323.994293 127.646211 
L 339.433029 118.294502 
L 354.871764 131.221098 
L 370.310499 144.303367 
L 385.749234 143.201326 
L 401.187969 143.476363 
L 416.626705 163.850361 
" style="fill:none;stroke:#1b9e77;stroke-linecap:square;stroke-opacity:0.5;stroke-width:1.5;"/>
   </g>
   <g id="line2d_18">
    <path clip-path="url(#p51c3cb4f1f)" d="M 61.535795 164.837216 
L 76.974531 165.146814 
L 92.413266 165.699905 
L 107.852001 165.671605 
L 123.290736 165.774744 
L 138.729471 165.847097 
L 154.168207 165.892691 
L 169.606942 165.90935 
L 185.045677 165.918932 
L 200.484412 165.92526 
L 215.923147 164.92488 
L 231.361882 165.883141 
L 246.800618 164.778056 
L 262.239353 154.067927 
L 277.678088 156.280331 
L 293.116823 155.276606 
L 308.555558 154.523882 
L 323.994293 74.431819 
L 339.433029 97.034063 
L 354.871764 137.39152 
L 370.310499 150.789703 
L 385.749234 161.861151 
L 401.187969 165.376337 
L 416.626705 165.908333 
" style="fill:none;stroke:#1b9e77;stroke-linecap:square;stroke-opacity:0.5;stroke-width:1.5;"/>
   </g>
   <g id="line2d_19">
    <path clip-path="url(#p51c3cb4f1f)" d="M 61.535795 165.611592 
L 76.974531 165.318656 
L 92.413266 163.504053 
L 107.852001 155.314291 
L 123.290736 157.699945 
L 138.729471 161.310707 
L 154.168207 144.012432 
L 169.606942 151.329947 
L 185.045677 118.695291 
L 200.484412 137.974519 
L 215.923147 128.354279 
L 231.361882 119.958151 
L 246.800618 156.531089 
L 262.239353 149.899681 
L 277.678088 162.780018 
L 293.116823 164.448527 
L 308.555558 165.921771 
L 323.994293 163.928424 
L 339.433029 164.596407 
L 354.871764 164.804072 
L 370.310499 165.630128 
L 385.749234 165.751975 
L 401.187969 165.848893 
L 416.626705 165.926514 
" style="fill:none;stroke:#1b9e77;stroke-linecap:square;stroke-opacity:0.5;stroke-width:1.5;"/>
   </g>
   <g id="line2d_20">
    <path clip-path="url(#p51c3cb4f1f)" d="M 61.535795 164.396327 
L 76.974531 165.277455 
L 92.413266 165.779067 
L 107.852001 165.763206 
L 123.290736 165.790838 
L 138.729471 165.75679 
L 154.168207 165.780335 
L 169.606942 165.904918 
L 185.045677 165.921139 
L 200.484412 165.554498 
L 215.923147 164.672261 
L 231.361882 160.789832 
L 246.800618 131.763421 
L 262.239353 132.849089 
L 277.678088 76.095692 
L 293.116823 131.279937 
L 308.555558 120.518364 
L 323.994293 159.398384 
L 339.433029 165.775042 
L 354.871764 165.845521 
L 370.310499 165.715305 
L 385.749234 164.843272 
L 401.187969 164.57797 
L 416.626705 165.102718 
" style="fill:none;stroke:#1b9e77;stroke-linecap:square;stroke-opacity:0.5;stroke-width:1.5;"/>
   </g>
   <g id="line2d_21">
    <path clip-path="url(#p51c3cb4f1f)" d="M 61.535795 165.175601 
L 76.974531 163.068405 
L 92.413266 160.991859 
L 107.852001 154.624211 
L 123.290736 113.61749 
L 138.729471 122.815663 
L 154.168207 160.138474 
L 169.606942 162.984852 
L 185.045677 81.337247 
L 200.484412 165.684883 
L 215.923147 165.771222 
L 231.361882 164.429338 
L 246.800618 158.065812 
L 262.239353 164.120759 
L 277.678088 165.538106 
L 293.116823 165.613978 
L 308.555558 165.343313 
L 323.994293 163.744185 
L 339.433029 162.934374 
L 354.871764 162.077086 
L 370.310499 160.449064 
L 385.749234 157.523834 
L 401.187969 156.080598 
L 416.626705 163.021015 
" style="fill:none;stroke:#1b9e77;stroke-linecap:square;stroke-opacity:0.5;stroke-width:1.5;"/>
   </g>
   <g id="line2d_22">
    <path clip-path="url(#p51c3cb4f1f)" d="M 61.535795 164.911158 
L 76.974531 165.451792 
L 92.413266 165.508233 
L 107.852001 158.842639 
L 123.290736 158.765528 
L 138.729471 164.638777 
L 154.168207 165.145222 
L 169.606942 165.44725 
L 185.045677 162.435868 
L 200.484412 156.139903 
L 215.923147 156.802382 
L 231.361882 160.32531 
L 246.800618 158.68426 
L 262.239353 160.282768 
L 277.678088 157.608107 
L 293.116823 154.607717 
L 308.555558 151.424486 
L 323.994293 150.983218 
L 339.433029 147.475538 
L 354.871764 145.692802 
L 370.310499 143.961045 
L 385.749234 141.187584 
L 401.187969 138.112762 
L 416.626705 130.71702 
" style="fill:none;stroke:#1b9e77;stroke-linecap:square;stroke-opacity:0.5;stroke-width:1.5;"/>
   </g>
   <g id="line2d_23">
    <path clip-path="url(#p51c3cb4f1f)" d="M 61.535795 165.071603 
L 76.974531 162.153679 
L 92.413266 161.750899 
L 107.852001 155.59778 
L 123.290736 102.622246 
L 138.729471 75.172528 
L 154.168207 135.66102 
L 169.606942 130.886614 
L 185.045677 156.118252 
L 200.484412 165.447088 
L 215.923147 165.79671 
L 231.361882 165.133637 
L 246.800618 165.221022 
L 262.239353 165.784706 
L 277.678088 165.898397 
L 293.116823 165.921303 
L 308.555558 165.930941 
L 323.994293 165.919927 
L 339.433029 165.743184 
L 354.871764 165.927748 
L 370.310499 165.852992 
L 385.749234 164.252209 
L 401.187969 162.645146 
L 416.626705 164.641732 
" style="fill:none;stroke:#1b9e77;stroke-linecap:square;stroke-opacity:0.5;stroke-width:1.5;"/>
   </g>
   <g id="line2d_24">
    <path clip-path="url(#p51c3cb4f1f)" d="M 61.535795 111.808761 
L 76.974531 153.828392 
L 92.413266 164.715322 
L 107.852001 147.369015 
L 123.290736 158.896701 
L 138.729471 161.234412 
L 154.168207 161.189245 
L 169.606942 160.841733 
L 185.045677 162.422637 
L 200.484412 157.294025 
L 215.923147 156.276904 
L 231.361882 165.585287 
L 246.800618 164.683588 
L 262.239353 136.834983 
L 277.678088 111.334317 
L 293.116823 150.513768 
L 308.555558 163.193753 
L 323.994293 163.665146 
L 339.433029 155.298695 
L 354.871764 159.092483 
L 370.310499 162.859987 
L 385.749234 164.874404 
L 401.187969 165.469821 
L 416.626705 165.867979 
" style="fill:none;stroke:#1b9e77;stroke-linecap:square;stroke-opacity:0.5;stroke-width:1.5;"/>
   </g>
   <g id="line2d_25">
    <path clip-path="url(#p51c3cb4f1f)" d="M 61.535795 164.143082 
L 76.974531 164.134573 
L 92.413266 165.131889 
L 107.852001 165.131039 
L 123.290736 165.277238 
L 138.729471 165.373023 
L 154.168207 165.011004 
L 169.606942 163.118509 
L 185.045677 157.638292 
L 200.484412 144.520197 
L 215.923147 101.357019 
L 231.361882 119.339151 
L 246.800618 139.440493 
L 262.239353 158.220336 
L 277.678088 164.766275 
L 293.116823 165.144712 
L 308.555558 165.501944 
L 323.994293 165.581918 
L 339.433029 165.679549 
L 354.871764 165.726145 
L 370.310499 164.342273 
L 385.749234 158.978904 
L 401.187969 146.983793 
L 416.626705 124.609998 
" style="fill:none;stroke:#1b9e77;stroke-linecap:square;stroke-opacity:0.5;stroke-width:1.5;"/>
   </g>
   <g id="line2d_26">
    <path clip-path="url(#p51c3cb4f1f)" d="M 61.535795 159.970978 
L 76.974531 132.767087 
L 92.413266 147.365909 
L 107.852001 155.493142 
L 123.290736 156.171116 
L 138.729471 163.519742 
L 154.168207 165.71156 
L 169.606942 165.679482 
L 185.045677 165.513967 
L 200.484412 164.612636 
L 215.923147 165.068596 
L 231.361882 165.776107 
L 246.800618 165.664748 
L 262.239353 156.094593 
L 277.678088 150.567459 
L 293.116823 145.377999 
L 308.555558 123.754187 
L 323.994293 141.283151 
L 339.433029 145.438543 
L 354.871764 142.768102 
L 370.310499 151.824258 
L 385.749234 162.861606 
L 401.187969 165.916345 
L 416.626705 165.950057 
" style="fill:none;stroke:#1b9e77;stroke-linecap:square;stroke-opacity:0.5;stroke-width:1.5;"/>
   </g>
   <g id="line2d_27">
    <path clip-path="url(#p51c3cb4f1f)" d="M 61.535795 153.540817 
L 76.974531 127.129586 
L 92.413266 144.680368 
L 107.852001 153.544059 
L 123.290736 155.940985 
L 138.729471 136.579033 
L 154.168207 144.055127 
L 169.606942 162.68131 
L 185.045677 165.168615 
L 200.484412 165.476358 
L 215.923147 165.540664 
L 231.361882 164.215338 
L 246.800618 148.867171 
L 262.239353 165.237694 
L 277.678088 164.90967 
L 293.116823 162.423841 
L 308.555558 150.168167 
L 323.994293 159.610342 
L 339.433029 157.460142 
L 354.871764 158.162354 
L 370.310499 153.194192 
L 385.749234 152.212299 
L 401.187969 157.689354 
L 416.626705 156.663879 
" style="fill:none;stroke:#1b9e77;stroke-linecap:square;stroke-opacity:0.5;stroke-width:1.5;"/>
   </g>
   <g id="line2d_28">
    <path clip-path="url(#p51c3cb4f1f)" d="M 61.535795 165.139461 
L 76.974531 160.523679 
L 92.413266 148.208791 
L 107.852001 157.72071 
L 123.290736 164.253023 
L 138.729471 160.929848 
L 154.168207 159.771511 
L 169.606942 158.222527 
L 185.045677 163.850948 
L 200.484412 165.62701 
L 215.923147 165.702625 
L 231.361882 164.999115 
L 246.800618 161.202206 
L 262.239353 159.328003 
L 277.678088 152.260766 
L 293.116823 162.570233 
L 308.555558 158.318162 
L 323.994293 159.036887 
L 339.433029 164.684338 
L 354.871764 164.53985 
L 370.310499 118.314599 
L 385.749234 135.013237 
L 401.187969 108.069857 
L 416.626705 146.863978 
" style="fill:none;stroke:#1b9e77;stroke-linecap:square;stroke-opacity:0.5;stroke-width:1.5;"/>
   </g>
   <g id="line2d_29">
    <path clip-path="url(#p51c3cb4f1f)" d="M 61.535795 146.965459 
L 76.974531 121.735162 
L 92.413266 136.917331 
L 107.852001 149.371433 
L 123.290736 154.567066 
L 138.729471 153.47009 
L 154.168207 158.161127 
L 169.606942 159.539606 
L 185.045677 161.595524 
L 200.484412 163.576681 
L 215.923147 164.601993 
L 231.361882 164.540629 
L 246.800618 164.988207 
L 262.239353 165.322381 
L 277.678088 165.522195 
L 293.116823 165.586237 
L 308.555558 165.636144 
L 323.994293 165.815213 
L 339.433029 165.165754 
L 354.871764 163.135703 
L 370.310499 142.973361 
L 385.749234 143.959514 
L 401.187969 126.96577 
L 416.626705 155.038777 
" style="fill:none;stroke:#1b9e77;stroke-linecap:square;stroke-opacity:0.5;stroke-width:1.5;"/>
   </g>
   <g id="line2d_30">
    <path clip-path="url(#p51c3cb4f1f)" d="M 61.535795 163.070685 
L 76.974531 164.176365 
L 92.413266 165.258713 
L 107.852001 165.321829 
L 123.290736 165.362084 
L 138.729471 165.650343 
L 154.168207 159.72433 
L 169.606942 152.486338 
L 185.045677 155.317209 
L 200.484412 159.038096 
L 215.923147 156.707599 
L 231.361882 157.802175 
L 246.800618 153.082175 
L 262.239353 30.878022 
L 277.678088 133.362391 
L 293.116823 151.732756 
L 308.555558 165.390808 
L 323.994293 165.58645 
L 339.433029 165.792849 
L 354.871764 165.830133 
L 370.310499 165.876004 
L 385.749234 165.883224 
L 401.187969 165.871634 
L 416.626705 165.94916 
" style="fill:none;stroke:#1b9e77;stroke-linecap:square;stroke-opacity:0.5;stroke-width:1.5;"/>
   </g>
   <g id="line2d_31">
    <path clip-path="url(#p51c3cb4f1f)" d="M 61.535795 164.283404 
L 76.974531 165.513397 
L 92.413266 165.766602 
L 107.852001 165.508466 
L 123.290736 162.994756 
L 138.729471 165.374534 
L 154.168207 165.86652 
L 169.606942 165.932501 
L 185.045677 163.276913 
L 200.484412 158.974939 
L 215.923147 151.503022 
L 231.361882 97.812996 
L 246.800618 143.348976 
L 262.239353 109.598435 
L 277.678088 116.003077 
L 293.116823 144.066064 
L 308.555558 162.454105 
L 323.994293 164.47901 
L 339.433029 165.208165 
L 354.871764 164.790799 
L 370.310499 165.09454 
L 385.749234 165.571339 
L 401.187969 165.796234 
L 416.626705 165.93257 
" style="fill:none;stroke:#1b9e77;stroke-linecap:square;stroke-opacity:0.5;stroke-width:1.5;"/>
   </g>
   <g id="line2d_32">
    <path clip-path="url(#p51c3cb4f1f)" d="M 61.535795 164.790335 
L 76.974531 144.929123 
L 92.413266 139.403518 
L 107.852001 162.664269 
L 123.290736 165.4288 
L 138.729471 165.773643 
L 154.168207 164.465456 
L 169.606942 152.387377 
L 185.045677 146.744056 
L 200.484412 165.539207 
L 215.923147 165.226073 
L 231.361882 162.732671 
L 246.800618 164.490449 
L 262.239353 163.827496 
L 277.678088 161.869374 
L 293.116823 161.270154 
L 308.555558 162.475305 
L 323.994293 159.964235 
L 339.433029 128.234153 
L 354.871764 122.504366 
L 370.310499 137.97429 
L 385.749234 138.520177 
L 401.187969 158.116329 
L 416.626705 165.820511 
" style="fill:none;stroke:#1b9e77;stroke-linecap:square;stroke-opacity:0.5;stroke-width:1.5;"/>
   </g>
   <g id="line2d_33">
    <path clip-path="url(#p51c3cb4f1f)" d="M 61.535795 165.676424 
L 76.974531 165.454235 
L 92.413266 165.76383 
L 107.852001 165.764078 
L 123.290736 165.795442 
L 138.729471 165.869092 
L 154.168207 165.879092 
L 169.606942 165.934318 
L 185.045677 165.954137 
L 200.484412 162.946421 
L 215.923147 160.325616 
L 231.361882 158.843374 
L 246.800618 152.098814 
L 262.239353 151.457764 
L 277.678088 151.820624 
L 293.116823 149.762951 
L 308.555558 143.864501 
L 323.994293 134.513807 
L 339.433029 118.578203 
L 354.871764 137.082761 
L 370.310499 152.132625 
L 385.749234 151.006192 
L 401.187969 149.093419 
L 416.626705 159.533641 
" style="fill:none;stroke:#1b9e77;stroke-linecap:square;stroke-opacity:0.5;stroke-width:1.5;"/>
   </g>
   <g id="line2d_34">
    <path clip-path="url(#p51c3cb4f1f)" d="M 61.535795 159.918483 
L 76.974531 162.305552 
L 92.413266 164.194025 
L 107.852001 163.346981 
L 123.290736 163.426752 
L 138.729471 164.796102 
L 154.168207 165.288651 
L 169.606942 165.428779 
L 185.045677 165.595593 
L 200.484412 165.639297 
L 215.923147 165.701811 
L 231.361882 165.725219 
L 246.800618 165.799274 
L 262.239353 165.808486 
L 277.678088 165.807263 
L 293.116823 165.59813 
L 308.555558 165.2409 
L 323.994293 155.326651 
L 339.433029 155.343733 
L 354.871764 163.74484 
L 370.310499 143.199295 
L 385.749234 123.138731 
L 401.187969 62.014386 
L 416.626705 122.762421 
" style="fill:none;stroke:#1b9e77;stroke-linecap:square;stroke-opacity:0.5;stroke-width:1.5;"/>
   </g>
   <g id="line2d_35">
    <path clip-path="url(#p51c3cb4f1f)" d="M 61.535795 148.400271 
L 76.974531 98.069547 
L 92.413266 113.429571 
L 107.852001 128.103181 
L 123.290736 158.016561 
L 138.729471 162.432877 
L 154.168207 163.496483 
L 169.606942 164.245065 
L 185.045677 165.518427 
L 200.484412 165.156191 
L 215.923147 161.782726 
L 231.361882 164.737597 
L 246.800618 164.415279 
L 262.239353 157.549103 
L 277.678088 147.328527 
L 293.116823 148.228551 
L 308.555558 156.247723 
L 323.994293 164.287789 
L 339.433029 165.512366 
L 354.871764 165.376978 
L 370.310499 165.430305 
L 385.749234 165.65332 
L 401.187969 165.795954 
L 416.626705 165.93696 
" style="fill:none;stroke:#1b9e77;stroke-linecap:square;stroke-opacity:0.5;stroke-width:1.5;"/>
   </g>
   <g id="line2d_36">
    <path clip-path="url(#p51c3cb4f1f)" d="M 61.535795 162.068695 
L 76.974531 164.318607 
L 92.413266 165.440281 
L 107.852001 165.49985 
L 123.290736 165.611475 
L 138.729471 165.563946 
L 154.168207 165.232982 
L 169.606942 165.069207 
L 185.045677 164.372224 
L 200.484412 163.145372 
L 215.923147 160.821587 
L 231.361882 158.44893 
L 246.800618 159.393682 
L 262.239353 162.818738 
L 277.678088 163.971092 
L 293.116823 164.710112 
L 308.555558 161.353948 
L 323.994293 156.731405 
L 339.433029 144.706208 
L 354.871764 156.152942 
L 370.310499 137.038574 
L 385.749234 106.402932 
L 401.187969 105.701493 
L 416.626705 140.577083 
" style="fill:none;stroke:#1b9e77;stroke-linecap:square;stroke-opacity:0.5;stroke-width:1.5;"/>
   </g>
   <g id="line2d_37">
    <path clip-path="url(#p51c3cb4f1f)" d="M 61.535795 123.96856 
L 76.974531 114.504376 
L 92.413266 143.901935 
L 107.852001 105.029407 
L 123.290736 131.71506 
L 138.729471 157.022704 
L 154.168207 162.388718 
L 169.606942 162.274854 
L 185.045677 163.736164 
L 200.484412 165.010666 
L 215.923147 165.642088 
L 231.361882 164.586711 
L 246.800618 164.891993 
L 262.239353 160.710589 
L 277.678088 149.024028 
L 293.116823 163.523486 
L 308.555558 165.872399 
L 323.994293 165.869012 
L 339.433029 165.873191 
L 354.871764 165.875394 
L 370.310499 165.904327 
L 385.749234 165.925759 
L 401.187969 165.941424 
L 416.626705 165.958524 
" style="fill:none;stroke:#1b9e77;stroke-linecap:square;stroke-opacity:0.5;stroke-width:1.5;"/>
   </g>
   <g id="line2d_38">
    <path clip-path="url(#p51c3cb4f1f)" d="M 61.535795 164.705858 
L 76.974531 165.023985 
L 92.413266 165.623994 
L 107.852001 165.818141 
L 123.290736 165.770312 
L 138.729471 152.922401 
L 154.168207 144.381398 
L 169.606942 153.451549 
L 185.045677 148.226388 
L 200.484412 141.579327 
L 215.923147 134.720757 
L 231.361882 154.045134 
L 246.800618 88.965268 
L 262.239353 121.857154 
L 277.678088 165.632259 
L 293.116823 165.675106 
L 308.555558 165.755891 
L 323.994293 165.74301 
L 339.433029 165.772465 
L 354.871764 165.829053 
L 370.310499 165.874719 
L 385.749234 165.899436 
L 401.187969 165.921574 
L 416.626705 165.956177 
" style="fill:none;stroke:#1b9e77;stroke-linecap:square;stroke-opacity:0.5;stroke-width:1.5;"/>
   </g>
   <g id="line2d_39">
    <path clip-path="url(#p51c3cb4f1f)" d="M 61.535795 165.606456 
L 76.974531 164.521832 
L 92.413266 163.229064 
L 107.852001 159.643399 
L 123.290736 147.10594 
L 138.729471 135.643807 
L 154.168207 149.64812 
L 169.606942 152.37106 
L 185.045677 150.738735 
L 200.484412 108.25214 
L 215.923147 123.078055 
L 231.361882 140.677085 
L 246.800618 153.976341 
L 262.239353 158.356096 
L 277.678088 164.734296 
L 293.116823 165.354043 
L 308.555558 165.698095 
L 323.994293 165.818434 
L 339.433029 165.881068 
L 354.871764 165.851565 
L 370.310499 163.430847 
L 385.749234 165.931226 
L 401.187969 165.948878 
L 416.626705 163.654777 
" style="fill:none;stroke:#1b9e77;stroke-linecap:square;stroke-opacity:0.5;stroke-width:1.5;"/>
   </g>
   <g id="line2d_40">
    <path clip-path="url(#p51c3cb4f1f)" d="M 61.535795 148.830511 
L 76.974531 165.303514 
L 92.413266 165.410264 
L 107.852001 158.270637 
L 123.290736 163.801781 
L 138.729471 165.144634 
L 154.168207 164.544653 
L 169.606942 165.688905 
L 185.045677 165.685202 
L 200.484412 153.489903 
L 215.923147 161.853178 
L 231.361882 159.780961 
L 246.800618 79.216214 
L 262.239353 158.577567 
L 277.678088 154.306479 
L 293.116823 133.314667 
L 308.555558 139.246752 
L 323.994293 137.405402 
L 339.433029 162.241243 
L 354.871764 162.823468 
L 370.310499 163.9455 
L 385.749234 164.689381 
L 401.187969 165.646247 
L 416.626705 165.934303 
" style="fill:none;stroke:#1b9e77;stroke-linecap:square;stroke-opacity:0.5;stroke-width:1.5;"/>
   </g>
   <g id="line2d_41">
    <path clip-path="url(#p51c3cb4f1f)" d="M 61.535795 165.219524 
L 76.974531 163.863902 
L 92.413266 162.969179 
L 107.852001 161.27129 
L 123.290736 161.343416 
L 138.729471 117.486272 
L 154.168207 68.117403 
L 169.606942 131.325853 
L 185.045677 162.221645 
L 200.484412 164.046248 
L 215.923147 165.35355 
L 231.361882 165.620679 
L 246.800618 165.662686 
L 262.239353 165.211958 
L 277.678088 163.072921 
L 293.116823 164.30358 
L 308.555558 165.023399 
L 323.994293 165.85273 
L 339.433029 165.198914 
L 354.871764 158.452886 
L 370.310499 157.591642 
L 385.749234 162.154974 
L 401.187969 160.328055 
L 416.626705 143.458658 
" style="fill:none;stroke:#1b9e77;stroke-linecap:square;stroke-opacity:0.5;stroke-width:1.5;"/>
   </g>
   <g id="line2d_42">
    <path clip-path="url(#p51c3cb4f1f)" d="M 61.535795 162.520224 
L 76.974531 164.505392 
L 92.413266 165.379655 
L 107.852001 165.10648 
L 123.290736 165.191376 
L 138.729471 165.524061 
L 154.168207 165.730289 
L 169.606942 165.757694 
L 185.045677 165.774129 
L 200.484412 165.692151 
L 215.923147 165.552916 
L 231.361882 165.803722 
L 246.800618 165.823688 
L 262.239353 165.885848 
L 277.678088 156.578373 
L 293.116823 154.236171 
L 308.555558 121.897175 
L 323.994293 144.661847 
L 339.433029 144.60043 
L 354.871764 149.964084 
L 370.310499 152.475319 
L 385.749234 146.727861 
L 401.187969 110.999617 
L 416.626705 128.762865 
" style="fill:none;stroke:#1b9e77;stroke-linecap:square;stroke-opacity:0.5;stroke-width:1.5;"/>
   </g>
   <g id="line2d_43">
    <path clip-path="url(#p51c3cb4f1f)" d="M 61.535795 165.558679 
L 76.974531 165.537634 
L 92.413266 165.853346 
L 107.852001 165.89962 
L 123.290736 165.916485 
L 138.729471 165.925822 
L 154.168207 165.401027 
L 169.606942 163.11774 
L 185.045677 150.616412 
L 200.484412 155.295766 
L 215.923147 157.761288 
L 231.361882 161.600575 
L 246.800618 149.07842 
L 262.239353 124.957865 
L 277.678088 130.961084 
L 293.116823 153.585537 
L 308.555558 156.890708 
L 323.994293 151.602648 
L 339.433029 143.717205 
L 354.871764 152.724533 
L 370.310499 152.963091 
L 385.749234 148.595636 
L 401.187969 149.497143 
L 416.626705 162.093102 
" style="fill:none;stroke:#1b9e77;stroke-linecap:square;stroke-opacity:0.5;stroke-width:1.5;"/>
   </g>
   <g id="line2d_44">
    <path clip-path="url(#p51c3cb4f1f)" d="M 61.535795 159.48133 
L 76.974531 164.90073 
L 92.413266 165.804355 
L 107.852001 165.670512 
L 123.290736 165.697473 
L 138.729471 165.807209 
L 154.168207 165.828818 
L 169.606942 165.856747 
L 185.045677 164.96112 
L 200.484412 115.86046 
L 215.923147 109.960833 
L 231.361882 162.536215 
L 246.800618 163.130309 
L 262.239353 136.526763 
L 277.678088 105.21952 
L 293.116823 143.753999 
L 308.555558 157.289535 
L 323.994293 162.183634 
L 339.433029 163.907801 
L 354.871764 162.219291 
L 370.310499 162.580468 
L 385.749234 164.77029 
L 401.187969 165.342905 
L 416.626705 165.861043 
" style="fill:none;stroke:#1b9e77;stroke-linecap:square;stroke-opacity:0.5;stroke-width:1.5;"/>
   </g>
   <g id="line2d_45">
    <path clip-path="url(#p51c3cb4f1f)" d="M 61.535795 165.302512 
L 76.974531 165.688315 
L 92.413266 165.901782 
L 107.852001 165.927008 
L 123.290736 165.939062 
L 138.729471 165.940799 
L 154.168207 165.176419 
L 169.606942 165.935454 
L 185.045677 165.525363 
L 200.484412 163.415485 
L 215.923147 164.459712 
L 231.361882 163.330922 
L 246.800618 113.91712 
L 262.239353 124.906927 
L 277.678088 120.888404 
L 293.116823 120.280716 
L 308.555558 127.328343 
L 323.994293 148.37267 
L 339.433029 164.337641 
L 354.871764 165.164377 
L 370.310499 164.673903 
L 385.749234 162.768964 
L 401.187969 164.108538 
L 416.626705 165.860923 
" style="fill:none;stroke:#1b9e77;stroke-linecap:square;stroke-opacity:0.5;stroke-width:1.5;"/>
   </g>
   <g id="line2d_46">
    <path clip-path="url(#p51c3cb4f1f)" d="M 61.535795 164.448826 
L 76.974531 164.692686 
L 92.413266 165.256749 
L 107.852001 165.35773 
L 123.290736 165.027519 
L 138.729471 164.108072 
L 154.168207 156.106345 
L 169.606942 150.320336 
L 185.045677 149.330191 
L 200.484412 158.555238 
L 215.923147 160.581224 
L 231.361882 157.423322 
L 246.800618 158.255675 
L 262.239353 160.443872 
L 277.678088 164.573016 
L 293.116823 165.295527 
L 308.555558 163.413553 
L 323.994293 138.470481 
L 339.433029 141.273861 
L 354.871764 159.295931 
L 370.310499 153.291997 
L 385.749234 138.331042 
L 401.187969 113.492629 
L 416.626705 147.805545 
" style="fill:none;stroke:#1b9e77;stroke-linecap:square;stroke-opacity:0.5;stroke-width:1.5;"/>
   </g>
   <g id="line2d_47">
    <path clip-path="url(#p51c3cb4f1f)" d="M 61.535795 131.726134 
L 76.974531 152.034809 
L 92.413266 162.894288 
L 107.852001 163.212391 
L 123.290736 164.201119 
L 138.729471 164.735762 
L 154.168207 164.862346 
L 169.606942 165.442585 
L 185.045677 165.626113 
L 200.484412 165.675227 
L 215.923147 78.317869 
L 231.361882 72.73879 
L 246.800618 157.389191 
L 262.239353 163.164883 
L 277.678088 165.063463 
L 293.116823 164.676907 
L 308.555558 164.366268 
L 323.994293 165.08374 
L 339.433029 165.437175 
L 354.871764 165.633947 
L 370.310499 165.667814 
L 385.749234 165.810792 
L 401.187969 165.480068 
L 416.626705 165.909688 
" style="fill:none;stroke:#1b9e77;stroke-linecap:square;stroke-opacity:0.5;stroke-width:1.5;"/>
   </g>
   <g id="line2d_48">
    <path clip-path="url(#p51c3cb4f1f)" d="M 61.535795 164.045138 
L 76.974531 153.890357 
L 92.413266 163.812692 
L 107.852001 165.658961 
L 123.290736 163.151539 
L 138.729471 137.843128 
L 154.168207 125.444162 
L 169.606942 142.78337 
L 185.045677 145.251944 
L 200.484412 140.206366 
L 215.923147 143.007045 
L 231.361882 132.868373 
L 246.800618 160.111775 
L 262.239353 165.314018 
L 277.678088 165.655521 
L 293.116823 162.998004 
L 308.555558 165.59029 
L 323.994293 165.857338 
L 339.433029 165.915463 
L 354.871764 165.387536 
L 370.310499 159.432597 
L 385.749234 160.701926 
L 401.187969 156.519526 
L 416.626705 153.704295 
" style="fill:none;stroke:#1b9e77;stroke-linecap:square;stroke-opacity:0.5;stroke-width:1.5;"/>
   </g>
   <g id="line2d_49">
    <path clip-path="url(#p51c3cb4f1f)" d="M 61.535795 158.39209 
L 76.974531 109.891377 
L 92.413266 116.480588 
L 107.852001 134.397903 
L 123.290736 141.202296 
L 138.729471 123.304101 
L 154.168207 137.474873 
L 169.606942 157.003547 
L 185.045677 163.461703 
L 200.484412 164.266635 
L 215.923147 165.33292 
L 231.361882 165.346553 
L 246.800618 165.511431 
L 262.239353 165.670209 
L 277.678088 165.811422 
L 293.116823 165.854657 
L 308.555558 165.909695 
L 323.994293 165.931077 
L 339.433029 165.940439 
L 354.871764 165.942543 
L 370.310499 165.944815 
L 385.749234 165.957059 
L 401.187969 165.955028 
L 416.626705 164.168414 
" style="fill:none;stroke:#1b9e77;stroke-linecap:square;stroke-opacity:0.5;stroke-width:1.5;"/>
   </g>
   <g id="line2d_50">
    <path clip-path="url(#p51c3cb4f1f)" d="M 61.535795 164.53393 
L 76.974531 164.372432 
L 92.413266 165.227202 
L 107.852001 165.277495 
L 123.290736 165.329595 
L 138.729471 165.492151 
L 154.168207 165.438444 
L 169.606942 164.90848 
L 185.045677 162.521061 
L 200.484412 163.739373 
L 215.923147 165.386651 
L 231.361882 165.524199 
L 246.800618 165.512151 
L 262.239353 164.797299 
L 277.678088 159.292067 
L 293.116823 165.409444 
L 308.555558 165.213203 
L 323.994293 161.392207 
L 339.433029 158.528911 
L 354.871764 152.335408 
L 370.310499 115.141371 
L 385.749234 103.153299 
L 401.187969 88.475998 
L 416.626705 148.148995 
" style="fill:none;stroke:#1b9e77;stroke-linecap:square;stroke-opacity:0.5;stroke-width:1.5;"/>
   </g>
   <g id="line2d_51">
    <path clip-path="url(#p51c3cb4f1f)" d="M 61.535795 159.474143 
L 76.974531 163.884628 
L 92.413266 165.402116 
L 107.852001 165.362571 
L 123.290736 163.937185 
L 138.729471 141.410815 
L 154.168207 153.986902 
L 169.606942 165.061379 
L 185.045677 165.311972 
L 200.484412 157.591271 
L 215.923147 140.08809 
L 231.361882 126.572077 
L 246.800618 115.333586 
L 262.239353 159.500405 
L 277.678088 146.614813 
L 293.116823 142.282557 
L 308.555558 162.731654 
L 323.994293 162.970598 
L 339.433029 162.395889 
L 354.871764 161.909484 
L 370.310499 162.02544 
L 385.749234 159.905974 
L 401.187969 158.799642 
L 416.626705 162.598179 
" style="fill:none;stroke:#1b9e77;stroke-linecap:square;stroke-opacity:0.5;stroke-width:1.5;"/>
   </g>
   <g id="line2d_52">
    <path clip-path="url(#p51c3cb4f1f)" d="M 61.535795 164.620346 
L 76.974531 165.369124 
L 92.413266 165.818049 
L 107.852001 165.882015 
L 123.290736 165.887811 
L 138.729471 165.25538 
L 154.168207 106.414484 
L 169.606942 161.161458 
L 185.045677 163.406255 
L 200.484412 153.80394 
L 215.923147 157.037403 
L 231.361882 163.238481 
L 246.800618 33.306255 
L 262.239353 160.676315 
L 277.678088 165.127458 
L 293.116823 152.975285 
L 308.555558 155.445433 
L 323.994293 164.850048 
L 339.433029 165.745413 
L 354.871764 165.847914 
L 370.310499 165.879166 
L 385.749234 165.802493 
L 401.187969 165.655132 
L 416.626705 165.945707 
" style="fill:none;stroke:#1b9e77;stroke-linecap:square;stroke-opacity:0.5;stroke-width:1.5;"/>
   </g>
   <g id="line2d_53">
    <path clip-path="url(#p51c3cb4f1f)" d="M 61.535795 165.906954 
L 76.974531 165.429184 
L 92.413266 163.832685 
L 107.852001 162.66695 
L 123.290736 129.246131 
L 138.729471 152.559789 
L 154.168207 148.109931 
L 169.606942 160.892501 
L 185.045677 160.525268 
L 200.484412 100.188092 
L 215.923147 86.327425 
L 231.361882 150.138714 
L 246.800618 159.295213 
L 262.239353 161.118071 
L 277.678088 165.787761 
L 293.116823 165.829281 
L 308.555558 165.875543 
L 323.994293 165.873106 
L 339.433029 165.878428 
L 354.871764 165.903773 
L 370.310499 165.923332 
L 385.749234 165.937453 
L 401.187969 165.946756 
L 416.626705 165.959027 
" style="fill:none;stroke:#1b9e77;stroke-linecap:square;stroke-opacity:0.5;stroke-width:1.5;"/>
   </g>
   <g id="line2d_54">
    <path clip-path="url(#p51c3cb4f1f)" d="M 61.535795 165.956902 
L 76.974531 165.947305 
L 92.413266 165.951885 
L 107.852001 165.958244 
L 123.290736 165.748353 
L 138.729471 164.514216 
L 154.168207 156.11778 
L 169.606942 161.126867 
L 185.045677 160.075614 
L 200.484412 125.564831 
L 215.923147 99.717005 
L 231.361882 97.090419 
L 246.800618 153.228113 
L 262.239353 143.405615 
L 277.678088 149.012343 
L 293.116823 160.121304 
L 308.555558 165.203465 
L 323.994293 165.710146 
L 339.433029 165.828389 
L 354.871764 165.672796 
L 370.310499 165.357102 
L 385.749234 165.932249 
L 401.187969 165.950879 
L 416.626705 165.959539 
" style="fill:none;stroke:#1b9e77;stroke-linecap:square;stroke-opacity:0.5;stroke-width:1.5;"/>
   </g>
   <g id="line2d_55">
    <path clip-path="url(#p51c3cb4f1f)" d="M 61.535795 163.401617 
L 76.974531 165.157342 
L 92.413266 165.732194 
L 107.852001 165.737225 
L 123.290736 165.823222 
L 138.729471 165.856793 
L 154.168207 165.87666 
L 169.606942 165.923747 
L 185.045677 165.938359 
L 200.484412 165.95766 
L 215.923147 165.564105 
L 231.361882 164.312004 
L 246.800618 162.531947 
L 262.239353 162.359301 
L 277.678088 160.129302 
L 293.116823 156.735356 
L 308.555558 154.746251 
L 323.994293 146.65121 
L 339.433029 136.08155 
L 354.871764 150.168393 
L 370.310499 134.67067 
L 385.749234 64.782325 
L 401.187969 148.34273 
L 416.626705 162.671398 
" style="fill:none;stroke:#1b9e77;stroke-linecap:square;stroke-opacity:0.5;stroke-width:1.5;"/>
   </g>
   <g id="line2d_56">
    <path clip-path="url(#p51c3cb4f1f)" d="M 61.535795 165.375989 
L 76.974531 164.166215 
L 92.413266 163.550239 
L 107.852001 159.961209 
L 123.290736 141.175322 
L 138.729471 146.352696 
L 154.168207 156.405708 
L 169.606942 156.215866 
L 185.045677 148.187815 
L 200.484412 135.525856 
L 215.923147 131.121546 
L 231.361882 148.632368 
L 246.800618 158.277352 
L 262.239353 153.746436 
L 277.678088 130.686136 
L 293.116823 145.623395 
L 308.555558 163.674072 
L 323.994293 165.695898 
L 339.433029 165.703189 
L 354.871764 165.577487 
L 370.310499 164.825022 
L 385.749234 164.795192 
L 401.187969 164.194229 
L 416.626705 165.682119 
" style="fill:none;stroke:#1b9e77;stroke-linecap:square;stroke-opacity:0.5;stroke-width:1.5;"/>
   </g>
   <g id="line2d_57">
    <path clip-path="url(#p51c3cb4f1f)" d="M 61.535795 143.168335 
L 76.974531 128.026726 
L 92.413266 139.07645 
L 107.852001 132.350197 
L 123.290736 130.53316 
L 138.729471 150.285633 
L 154.168207 163.518899 
L 169.606942 162.862998 
L 185.045677 163.719213 
L 200.484412 164.583641 
L 215.923147 165.162011 
L 231.361882 165.140063 
L 246.800618 165.429161 
L 262.239353 165.641156 
L 277.678088 165.731933 
L 293.116823 165.678364 
L 308.555558 165.564092 
L 323.994293 165.630666 
L 339.433029 165.283261 
L 354.871764 165.064396 
L 370.310499 156.553212 
L 385.749234 150.655714 
L 401.187969 135.885517 
L 416.626705 149.606573 
" style="fill:none;stroke:#1b9e77;stroke-linecap:square;stroke-opacity:0.5;stroke-width:1.5;"/>
   </g>
   <g id="line2d_58">
    <path clip-path="url(#p51c3cb4f1f)" d="M 61.535795 138.997939 
L 76.974531 162.387602 
L 92.413266 162.477531 
L 107.852001 144.896901 
L 123.290736 163.536984 
L 138.729471 163.582577 
L 154.168207 162.49521 
L 169.606942 162.033436 
L 185.045677 161.797836 
L 200.484412 161.860308 
L 215.923147 162.892989 
L 231.361882 164.898672 
L 246.800618 158.715225 
L 262.239353 152.687449 
L 277.678088 149.211941 
L 293.116823 148.442185 
L 308.555558 156.482649 
L 323.994293 143.264656 
L 339.433029 142.742415 
L 354.871764 151.40579 
L 370.310499 158.611457 
L 385.749234 151.904604 
L 401.187969 146.283927 
L 416.626705 153.541086 
" style="fill:none;stroke:#1b9e77;stroke-linecap:square;stroke-opacity:0.5;stroke-width:1.5;"/>
   </g>
   <g id="line2d_59">
    <path clip-path="url(#p51c3cb4f1f)" d="M 61.535795 159.223936 
L 76.974531 165.923027 
L 92.413266 165.782266 
L 107.852001 164.81615 
L 123.290736 163.950609 
L 138.729471 162.724226 
L 154.168207 158.412791 
L 169.606942 162.482918 
L 185.045677 163.844884 
L 200.484412 160.033829 
L 215.923147 108.726893 
L 231.361882 157.48083 
L 246.800618 157.831669 
L 262.239353 104.890247 
L 277.678088 88.276269 
L 293.116823 154.581221 
L 308.555558 165.001714 
L 323.994293 165.738352 
L 339.433029 165.865729 
L 354.871764 165.818682 
L 370.310499 165.894496 
L 385.749234 165.939524 
L 401.187969 165.951584 
L 416.626705 165.959511 
" style="fill:none;stroke:#1b9e77;stroke-linecap:square;stroke-opacity:0.5;stroke-width:1.5;"/>
   </g>
   <g id="line2d_60">
    <path clip-path="url(#p51c3cb4f1f)" d="M 61.535795 165.77526 
L 76.974531 165.839136 
L 92.413266 165.917762 
L 107.852001 165.933715 
L 123.290736 165.941414 
L 138.729471 165.939003 
L 154.168207 165.685511 
L 169.606942 165.527696 
L 185.045677 164.606381 
L 200.484412 163.75137 
L 215.923147 152.69066 
L 231.361882 141.783774 
L 246.800618 145.205218 
L 262.239353 154.953401 
L 277.678088 159.122355 
L 293.116823 153.300447 
L 308.555558 149.211409 
L 323.994293 139.468701 
L 339.433029 134.811771 
L 354.871764 143.734174 
L 370.310499 152.884067 
L 385.749234 149.26128 
L 401.187969 135.371271 
L 416.626705 158.435581 
" style="fill:none;stroke:#1b9e77;stroke-linecap:square;stroke-opacity:0.5;stroke-width:1.5;"/>
   </g>
   <g id="line2d_61">
    <path clip-path="url(#p51c3cb4f1f)" d="M 61.535795 148.436789 
L 76.974531 103.855408 
L 92.413266 98.512094 
L 107.852001 141.216374 
L 123.290736 154.990756 
L 138.729471 145.871558 
L 154.168207 145.558642 
L 169.606942 154.986146 
L 185.045677 163.998416 
L 200.484412 165.113044 
L 215.923147 165.628883 
L 231.361882 165.559763 
L 246.800618 165.57927 
L 262.239353 165.314289 
L 277.678088 164.927309 
L 293.116823 165.548741 
L 308.555558 165.680328 
L 323.994293 165.705821 
L 339.433029 164.042055 
L 354.871764 160.031201 
L 370.310499 158.080378 
L 385.749234 164.707245 
L 401.187969 165.86231 
L 416.626705 165.944549 
" style="fill:none;stroke:#1b9e77;stroke-linecap:square;stroke-opacity:0.5;stroke-width:1.5;"/>
   </g>
   <g id="line2d_62">
    <path clip-path="url(#p51c3cb4f1f)" d="M 61.535795 14.76 
L 76.974531 160.684789 
L 92.413266 162.924342 
L 107.852001 159.015145 
L 123.290736 162.223971 
L 138.729471 162.697522 
L 154.168207 162.898153 
L 169.606942 161.190444 
L 185.045677 162.887172 
L 200.484412 157.431936 
L 215.923147 156.725552 
L 231.361882 164.7626 
L 246.800618 165.069635 
L 262.239353 159.222476 
L 277.678088 160.817924 
L 293.116823 165.297525 
L 308.555558 165.679446 
L 323.994293 165.642036 
L 339.433029 165.659826 
L 354.871764 165.663726 
L 370.310499 165.697501 
L 385.749234 165.888562 
L 401.187969 165.779624 
L 416.626705 126.531459 
" style="fill:none;stroke:#1b9e77;stroke-linecap:square;stroke-opacity:0.5;stroke-width:1.5;"/>
   </g>
   <g id="line2d_63">
    <path clip-path="url(#p51c3cb4f1f)" d="M 61.535795 165.763723 
L 76.974531 165.702409 
L 92.413266 165.851123 
L 107.852001 165.858753 
L 123.290736 165.87609 
L 138.729471 165.897693 
L 154.168207 165.909378 
L 169.606942 165.925092 
L 185.045677 165.903817 
L 200.484412 165.219105 
L 215.923147 164.689375 
L 231.361882 163.499036 
L 246.800618 160.793543 
L 262.239353 158.765518 
L 277.678088 154.944817 
L 293.116823 153.965234 
L 308.555558 138.286573 
L 323.994293 127.466838 
L 339.433029 141.421394 
L 354.871764 158.441752 
L 370.310499 137.905855 
L 385.749234 142.10547 
L 401.187969 149.900417 
L 416.626705 115.058359 
" style="fill:none;stroke:#1b9e77;stroke-linecap:square;stroke-opacity:0.5;stroke-width:1.5;"/>
   </g>
   <g id="line2d_64">
    <path clip-path="url(#p51c3cb4f1f)" d="M 61.535795 165.733379 
L 76.974531 165.764237 
L 92.413266 165.893792 
L 107.852001 165.910965 
L 123.290736 165.926064 
L 138.729471 165.954324 
L 154.168207 165.942549 
L 169.606942 158.829148 
L 185.045677 162.856547 
L 200.484412 162.987643 
L 215.923147 161.509395 
L 231.361882 158.338956 
L 246.800618 158.667498 
L 262.239353 156.30965 
L 277.678088 118.643602 
L 293.116823 78.069365 
L 308.555558 152.180484 
L 323.994293 158.533283 
L 339.433029 160.617948 
L 354.871764 163.082479 
L 370.310499 162.755538 
L 385.749234 164.100841 
L 401.187969 133.698896 
L 416.626705 152.844788 
" style="fill:none;stroke:#1b9e77;stroke-linecap:square;stroke-opacity:0.5;stroke-width:1.5;"/>
   </g>
   <g id="line2d_65">
    <path clip-path="url(#p51c3cb4f1f)" d="M 61.535795 151.253686 
L 76.974531 160.060243 
L 92.413266 160.404218 
L 107.852001 150.477392 
L 123.290736 149.730222 
L 138.729471 160.978835 
L 154.168207 163.448385 
L 169.606942 161.204703 
L 185.045677 146.069761 
L 200.484412 137.658242 
L 215.923147 155.982887 
L 231.361882 162.20828 
L 246.800618 162.35793 
L 262.239353 146.225396 
L 277.678088 88.255035 
L 293.116823 156.406796 
L 308.555558 163.69158 
L 323.994293 164.165341 
L 339.433029 163.500416 
L 354.871764 159.94439 
L 370.310499 163.953858 
L 385.749234 165.508315 
L 401.187969 165.781753 
L 416.626705 165.883703 
" style="fill:none;stroke:#1b9e77;stroke-linecap:square;stroke-opacity:0.5;stroke-width:1.5;"/>
   </g>
   <g id="line2d_66">
    <path clip-path="url(#p51c3cb4f1f)" d="M 61.535795 159.532507 
L 76.974531 117.970723 
L 92.413266 109.43506 
L 107.852001 139.177998 
L 123.290736 157.137961 
L 138.729471 161.519209 
L 154.168207 164.084011 
L 169.606942 164.404063 
L 185.045677 165.14273 
L 200.484412 165.424908 
L 215.923147 165.659527 
L 231.361882 165.630467 
L 246.800618 165.655406 
L 262.239353 165.805719 
L 277.678088 165.697032 
L 293.116823 164.853766 
L 308.555558 139.761367 
L 323.994293 157.410034 
L 339.433029 157.021016 
L 354.871764 160.707687 
L 370.310499 158.559373 
L 385.749234 155.599783 
L 401.187969 140.468254 
L 416.626705 158.492757 
" style="fill:none;stroke:#1b9e77;stroke-linecap:square;stroke-opacity:0.5;stroke-width:1.5;"/>
   </g>
   <g id="line2d_67">
    <path clip-path="url(#p51c3cb4f1f)" d="M 61.535795 164.591808 
L 76.974531 165.460878 
L 92.413266 165.777309 
L 107.852001 165.760256 
L 123.290736 165.316469 
L 138.729471 160.431864 
L 154.168207 141.265603 
L 169.606942 147.880455 
L 185.045677 153.642715 
L 200.484412 135.810731 
L 215.923147 148.736535 
L 231.361882 162.907769 
L 246.800618 162.545644 
L 262.239353 133.072083 
L 277.678088 102.134489 
L 293.116823 150.95991 
L 308.555558 162.626822 
L 323.994293 163.574851 
L 339.433029 160.969448 
L 354.871764 154.045223 
L 370.310499 160.669681 
L 385.749234 165.269343 
L 401.187969 165.791663 
L 416.626705 165.909821 
" style="fill:none;stroke:#1b9e77;stroke-linecap:square;stroke-opacity:0.5;stroke-width:1.5;"/>
   </g>
   <g id="line2d_68">
    <path clip-path="url(#p51c3cb4f1f)" d="M 61.535795 164.150423 
L 76.974531 164.44429 
L 92.413266 165.374309 
L 107.852001 165.504518 
L 123.290736 165.479386 
L 138.729471 162.193123 
L 154.168207 153.302922 
L 169.606942 161.255478 
L 185.045677 156.479574 
L 200.484412 148.367635 
L 215.923147 148.002229 
L 231.361882 142.392685 
L 246.800618 135.226082 
L 262.239353 135.507389 
L 277.678088 131.872689 
L 293.116823 129.279368 
L 308.555558 142.674645 
L 323.994293 158.065435 
L 339.433029 165.916551 
L 354.871764 165.908726 
L 370.310499 165.925522 
L 385.749234 165.928492 
L 401.187969 165.940919 
L 416.626705 165.958975 
" style="fill:none;stroke:#1b9e77;stroke-linecap:square;stroke-opacity:0.5;stroke-width:1.5;"/>
   </g>
   <g id="line2d_69">
    <path clip-path="url(#p51c3cb4f1f)" d="M 61.535795 164.947063 
L 76.974531 161.783216 
L 92.413266 148.346358 
L 107.852001 135.731445 
L 123.290736 160.646873 
L 138.729471 165.721302 
L 154.168207 165.806217 
L 169.606942 164.272053 
L 185.045677 159.740756 
L 200.484412 164.746725 
L 215.923147 165.644314 
L 231.361882 165.855384 
L 246.800618 165.803529 
L 262.239353 145.493757 
L 277.678088 106.755236 
L 293.116823 149.651068 
L 308.555558 158.054748 
L 323.994293 161.55062 
L 339.433029 163.54439 
L 354.871764 162.301796 
L 370.310499 160.626091 
L 385.749234 159.422873 
L 401.187969 141.020427 
L 416.626705 127.685125 
" style="fill:none;stroke:#1b9e77;stroke-linecap:square;stroke-opacity:0.5;stroke-width:1.5;"/>
   </g>
   <g id="line2d_70">
    <path clip-path="url(#p51c3cb4f1f)" d="M 61.535795 165.94521 
L 76.974531 165.87482 
L 92.413266 165.855004 
L 107.852001 165.855267 
L 123.290736 165.830288 
L 138.729471 165.901307 
L 154.168207 164.306509 
L 169.606942 163.492699 
L 185.045677 155.723468 
L 200.484412 160.860165 
L 215.923147 163.305954 
L 231.361882 161.652618 
L 246.800618 162.555655 
L 262.239353 160.613903 
L 277.678088 155.903863 
L 293.116823 151.664922 
L 308.555558 141.067874 
L 323.994293 89.802307 
L 339.433029 105.659578 
L 354.871764 139.15228 
L 370.310499 159.12267 
L 385.749234 163.625327 
L 401.187969 165.484906 
L 416.626705 165.894765 
" style="fill:none;stroke:#1b9e77;stroke-linecap:square;stroke-opacity:0.5;stroke-width:1.5;"/>
   </g>
   <g id="line2d_71">
    <path clip-path="url(#p51c3cb4f1f)" d="M 61.535795 165.81022 
L 76.974531 165.743057 
L 92.413266 165.870113 
L 107.852001 165.874096 
L 123.290736 165.875465 
L 138.729471 165.886888 
L 154.168207 165.884068 
L 169.606942 165.931111 
L 185.045677 165.608626 
L 200.484412 164.51938 
L 215.923147 164.58592 
L 231.361882 164.405619 
L 246.800618 110.27146 
L 262.239353 114.94315 
L 277.678088 123.32599 
L 293.116823 121.527278 
L 308.555558 120.915 
L 323.994293 159.282691 
L 339.433029 165.760491 
L 354.871764 165.908951 
L 370.310499 164.932994 
L 385.749234 163.180553 
L 401.187969 164.233519 
L 416.626705 164.874724 
" style="fill:none;stroke:#1b9e77;stroke-linecap:square;stroke-opacity:0.5;stroke-width:1.5;"/>
   </g>
   <g id="line2d_72">
    <path clip-path="url(#p51c3cb4f1f)" d="M 61.535795 154.381204 
L 76.974531 152.800368 
L 92.413266 163.89443 
L 107.852001 164.317721 
L 123.290736 164.996829 
L 138.729471 164.974583 
L 154.168207 165.18171 
L 169.606942 165.371626 
L 185.045677 165.478506 
L 200.484412 165.357702 
L 215.923147 165.313755 
L 231.361882 165.468298 
L 246.800618 165.499957 
L 262.239353 165.580354 
L 277.678088 164.265417 
L 293.116823 151.758088 
L 308.555558 142.880211 
L 323.994293 147.754311 
L 339.433029 132.219969 
L 354.871764 132.320874 
L 370.310499 147.645198 
L 385.749234 106.563864 
L 401.187969 151.47418 
L 416.626705 159.652214 
" style="fill:none;stroke:#1b9e77;stroke-linecap:square;stroke-opacity:0.5;stroke-width:1.5;"/>
   </g>
   <g id="line2d_73">
    <path clip-path="url(#p51c3cb4f1f)" d="M 61.535795 165.80933 
L 76.974531 165.652332 
L 92.413266 165.761212 
L 107.852001 165.135469 
L 123.290736 164.838127 
L 138.729471 165.376973 
L 154.168207 164.736751 
L 169.606942 158.780207 
L 185.045677 158.520195 
L 200.484412 156.744927 
L 215.923147 155.395069 
L 231.361882 156.291026 
L 246.800618 154.108099 
L 262.239353 156.073875 
L 277.678088 36.26583 
L 293.116823 114.819269 
L 308.555558 165.756542 
L 323.994293 165.325288 
L 339.433029 160.79709 
L 354.871764 165.376441 
L 370.310499 165.84781 
L 385.749234 165.875656 
L 401.187969 165.912675 
L 416.626705 165.951179 
" style="fill:none;stroke:#1b9e77;stroke-linecap:square;stroke-opacity:0.5;stroke-width:1.5;"/>
   </g>
   <g id="line2d_74">
    <path clip-path="url(#p51c3cb4f1f)" d="M 61.535795 157.645796 
L 76.974531 159.514789 
L 92.413266 161.508072 
L 107.852001 159.562208 
L 123.290736 159.330297 
L 138.729471 158.567346 
L 154.168207 157.844227 
L 169.606942 159.086584 
L 185.045677 146.190646 
L 200.484412 112.287175 
L 215.923147 130.322364 
L 231.361882 138.377136 
L 246.800618 137.185695 
L 262.239353 146.731676 
L 277.678088 152.712777 
L 293.116823 162.766757 
L 308.555558 165.686176 
L 323.994293 164.769137 
L 339.433029 165.514717 
L 354.871764 165.777489 
L 370.310499 165.920529 
L 385.749234 165.939209 
L 401.187969 165.951002 
L 416.626705 165.959568 
" style="fill:none;stroke:#1b9e77;stroke-linecap:square;stroke-opacity:0.5;stroke-width:1.5;"/>
   </g>
   <g id="line2d_75">
    <path clip-path="url(#p51c3cb4f1f)" d="M 61.535795 163.490177 
L 76.974531 165.41989 
L 92.413266 165.353216 
L 107.852001 164.997325 
L 123.290736 150.544518 
L 138.729471 134.855055 
L 154.168207 162.911362 
L 169.606942 164.951873 
L 185.045677 164.183125 
L 200.484412 148.864815 
L 215.923147 122.439846 
L 231.361882 145.960981 
L 246.800618 154.144688 
L 262.239353 152.025903 
L 277.678088 155.560436 
L 293.116823 156.890504 
L 308.555558 126.133318 
L 323.994293 152.959966 
L 339.433029 159.306433 
L 354.871764 161.424457 
L 370.310499 163.808182 
L 385.749234 157.020494 
L 401.187969 165.949012 
L 416.626705 165.955784 
" style="fill:none;stroke:#1b9e77;stroke-linecap:square;stroke-opacity:0.5;stroke-width:1.5;"/>
   </g>
   <g id="line2d_76">
    <path clip-path="url(#p51c3cb4f1f)" d="M 61.535795 162.732952 
L 76.974531 164.677524 
L 92.413266 165.579299 
L 107.852001 165.318924 
L 123.290736 165.427294 
L 138.729471 165.636446 
L 154.168207 165.787515 
L 169.606942 165.827819 
L 185.045677 165.848669 
L 200.484412 165.826223 
L 215.923147 165.004185 
L 231.361882 164.658434 
L 246.800618 165.118012 
L 262.239353 165.042157 
L 277.678088 157.560201 
L 293.116823 142.751717 
L 308.555558 150.780395 
L 323.994293 138.526531 
L 339.433029 105.811924 
L 354.871764 142.771796 
L 370.310499 146.148576 
L 385.749234 130.648501 
L 401.187969 140.408583 
L 416.626705 157.257684 
" style="fill:none;stroke:#1b9e77;stroke-linecap:square;stroke-opacity:0.5;stroke-width:1.5;"/>
   </g>
   <g id="line2d_77">
    <path clip-path="url(#p51c3cb4f1f)" d="M 61.535795 165.938851 
L 76.974531 165.811846 
L 92.413266 165.809743 
L 107.852001 165.839621 
L 123.290736 165.833359 
L 138.729471 165.937837 
L 154.168207 165.099251 
L 169.606942 115.920304 
L 185.045677 150.410083 
L 200.484412 147.708908 
L 215.923147 139.807562 
L 231.361882 149.300257 
L 246.800618 160.551918 
L 262.239353 110.593187 
L 277.678088 153.74822 
L 293.116823 161.198823 
L 308.555558 163.81102 
L 323.994293 150.877516 
L 339.433029 165.579361 
L 354.871764 165.874957 
L 370.310499 165.895289 
L 385.749234 165.9504 
L 401.187969 158.597828 
L 416.626705 139.055223 
" style="fill:none;stroke:#1b9e77;stroke-linecap:square;stroke-opacity:0.5;stroke-width:1.5;"/>
   </g>
   <g id="line2d_78">
    <path clip-path="url(#p51c3cb4f1f)" d="M 61.535795 165.958627 
L 76.974531 165.862217 
L 92.413266 165.544911 
L 107.852001 165.786047 
L 123.290736 165.25779 
L 138.729471 163.437068 
L 154.168207 160.728832 
L 169.606942 160.194827 
L 185.045677 158.511683 
L 200.484412 152.476108 
L 215.923147 136.44915 
L 231.361882 123.781306 
L 246.800618 112.149594 
L 262.239353 111.213025 
L 277.678088 155.643203 
L 293.116823 157.787563 
L 308.555558 159.747564 
L 323.994293 162.274755 
L 339.433029 164.311594 
L 354.871764 164.238662 
L 370.310499 163.296008 
L 385.749234 161.947454 
L 401.187969 162.775486 
L 416.626705 165.777895 
" style="fill:none;stroke:#1b9e77;stroke-linecap:square;stroke-opacity:0.5;stroke-width:1.5;"/>
   </g>
   <g id="line2d_79">
    <path clip-path="url(#p51c3cb4f1f)" d="M 61.535795 165.881152 
L 76.974531 165.827478 
L 92.413266 165.89408 
L 107.852001 165.859423 
L 123.290736 165.835734 
L 138.729471 165.896878 
L 154.168207 165.919369 
L 169.606942 165.944993 
L 185.045677 165.950161 
L 200.484412 165.3209 
L 215.923147 150.577456 
L 231.361882 158.74505 
L 246.800618 144.322148 
L 262.239353 150.112308 
L 277.678088 159.988604 
L 293.116823 152.727172 
L 308.555558 53.016186 
L 323.994293 163.72425 
L 339.433029 158.984412 
L 354.871764 132.556085 
L 370.310499 144.37956 
L 385.749234 165.798416 
L 401.187969 165.934766 
L 416.626705 165.954778 
" style="fill:none;stroke:#1b9e77;stroke-linecap:square;stroke-opacity:0.5;stroke-width:1.5;"/>
   </g>
   <g id="line2d_80">
    <path clip-path="url(#p51c3cb4f1f)" d="M 61.535795 130.750917 
L 76.974531 134.188739 
L 92.413266 146.929857 
L 107.852001 151.018516 
L 123.290736 141.391243 
L 138.729471 92.062251 
L 154.168207 149.932154 
L 169.606942 160.402478 
L 185.045677 164.223907 
L 200.484412 165.155045 
L 215.923147 165.635885 
L 231.361882 165.627869 
L 246.800618 165.739501 
L 262.239353 165.812572 
L 277.678088 165.872434 
L 293.116823 165.867824 
L 308.555558 165.893995 
L 323.994293 165.931777 
L 339.433029 165.940449 
L 354.871764 165.028148 
L 370.310499 163.824572 
L 385.749234 162.992992 
L 401.187969 141.162163 
L 416.626705 163.766075 
" style="fill:none;stroke:#1b9e77;stroke-linecap:square;stroke-opacity:0.5;stroke-width:1.5;"/>
   </g>
   <g id="line2d_81">
    <path clip-path="url(#p51c3cb4f1f)" d="M 61.535795 156.598992 
L 76.974531 162.715253 
L 92.413266 163.656903 
L 107.852001 162.700352 
L 123.290736 161.66305 
L 138.729471 162.014198 
L 154.168207 162.743302 
L 169.606942 163.758349 
L 185.045677 145.000074 
L 200.484412 134.861046 
L 215.923147 144.413615 
L 231.361882 102.192413 
L 246.800618 123.377786 
L 262.239353 162.828226 
L 277.678088 163.783271 
L 293.116823 162.394525 
L 308.555558 162.341974 
L 323.994293 162.721068 
L 339.433029 158.180395 
L 354.871764 159.615753 
L 370.310499 160.050233 
L 385.749234 162.770365 
L 401.187969 162.118704 
L 416.626705 162.651512 
" style="fill:none;stroke:#1b9e77;stroke-linecap:square;stroke-opacity:0.5;stroke-width:1.5;"/>
   </g>
   <g id="line2d_82">
    <path clip-path="url(#p51c3cb4f1f)" d="M 61.535795 124.258695 
L 76.974531 122.040859 
L 92.413266 93.825964 
L 107.852001 129.945823 
L 123.290736 137.588553 
L 138.729471 139.311742 
L 154.168207 163.180257 
L 169.606942 164.504953 
L 185.045677 164.815986 
L 200.484412 164.881056 
L 215.923147 165.265439 
L 231.361882 165.272527 
L 246.800618 165.529174 
L 262.239353 165.679445 
L 277.678088 165.806182 
L 293.116823 165.817257 
L 308.555558 165.872888 
L 323.994293 165.901752 
L 339.433029 165.91814 
L 354.871764 165.929288 
L 370.310499 165.936885 
L 385.749234 165.952429 
L 401.187969 165.956065 
L 416.626705 165.96 
" style="fill:none;stroke:#1b9e77;stroke-linecap:square;stroke-opacity:0.5;stroke-width:1.5;"/>
   </g>
   <g id="line2d_83">
    <path clip-path="url(#p51c3cb4f1f)" d="M 61.535795 161.00293 
L 76.974531 150.468721 
L 92.413266 163.02213 
L 107.852001 164.744824 
L 123.290736 165.228967 
L 138.729471 164.224021 
L 154.168207 164.762923 
L 169.606942 165.571377 
L 185.045677 165.762106 
L 200.484412 165.889156 
L 215.923147 165.901235 
L 231.361882 165.882417 
L 246.800618 159.872554 
L 262.239353 165.008326 
L 277.678088 163.970967 
L 293.116823 163.407709 
L 308.555558 164.218674 
L 323.994293 163.032185 
L 339.433029 160.498633 
L 354.871764 156.030146 
L 370.310499 128.692945 
L 385.749234 93.401935 
L 401.187969 97.870042 
L 416.626705 146.68644 
" style="fill:none;stroke:#1b9e77;stroke-linecap:square;stroke-opacity:0.5;stroke-width:1.5;"/>
   </g>
   <g id="line2d_84">
    <path clip-path="url(#p51c3cb4f1f)" d="M 61.535795 165.038293 
L 76.974531 163.867296 
L 92.413266 163.198663 
L 107.852001 164.213654 
L 123.290736 163.220636 
L 138.729471 155.093577 
L 154.168207 148.089943 
L 169.606942 147.724651 
L 185.045677 145.766626 
L 200.484412 117.122381 
L 215.923147 107.059573 
L 231.361882 122.345815 
L 246.800618 150.202846 
L 262.239353 163.576475 
L 277.678088 165.727287 
L 293.116823 165.766018 
L 308.555558 165.835685 
L 323.994293 165.865653 
L 339.433029 165.898102 
L 354.871764 165.935934 
L 370.310499 165.255459 
L 385.749234 161.401081 
L 401.187969 162.425121 
L 416.626705 164.52059 
" style="fill:none;stroke:#1b9e77;stroke-linecap:square;stroke-opacity:0.5;stroke-width:1.5;"/>
   </g>
   <g id="line2d_85">
    <path clip-path="url(#p51c3cb4f1f)" d="M 61.535795 165.422809 
L 76.974531 163.042605 
L 92.413266 134.675869 
L 107.852001 159.394386 
L 123.290736 159.032808 
L 138.729471 133.300039 
L 154.168207 157.646399 
L 169.606942 151.403483 
L 185.045677 130.861554 
L 200.484412 129.466162 
L 215.923147 130.115671 
L 231.361882 135.473705 
L 246.800618 156.774958 
L 262.239353 164.798053 
L 277.678088 165.74091 
L 293.116823 165.749332 
L 308.555558 165.815495 
L 323.994293 165.847176 
L 339.433029 165.885399 
L 354.871764 165.903212 
L 370.310499 165.919853 
L 385.749234 165.942825 
L 401.187969 165.304116 
L 416.626705 161.634546 
" style="fill:none;stroke:#1b9e77;stroke-linecap:square;stroke-opacity:0.5;stroke-width:1.5;"/>
   </g>
   <g id="line2d_86">
    <path clip-path="url(#p51c3cb4f1f)" d="M 61.535795 161.160519 
L 76.974531 112.127192 
L 92.413266 44.688645 
L 107.852001 110.144314 
L 123.290736 161.107489 
L 138.729471 163.099438 
L 154.168207 163.005607 
L 169.606942 162.095878 
L 185.045677 164.735191 
L 200.484412 165.132599 
L 215.923147 165.256343 
L 231.361882 164.713681 
L 246.800618 164.503586 
L 262.239353 165.168723 
L 277.678088 165.552257 
L 293.116823 165.634313 
L 308.555558 165.743743 
L 323.994293 165.80273 
L 339.433029 165.863055 
L 354.871764 165.879076 
L 370.310499 165.911096 
L 385.749234 165.928066 
L 401.187969 165.939435 
L 416.626705 165.958382 
" style="fill:none;stroke:#1b9e77;stroke-linecap:square;stroke-opacity:0.5;stroke-width:1.5;"/>
   </g>
   <g id="line2d_87">
    <path clip-path="url(#p51c3cb4f1f)" d="M 61.535795 111.37968 
L 76.974531 146.047401 
L 92.413266 161.852898 
L 107.852001 159.78094 
L 123.290736 161.189197 
L 138.729471 163.762017 
L 154.168207 165.050874 
L 169.606942 165.425724 
L 185.045677 165.327686 
L 200.484412 146.147977 
L 215.923147 105.635886 
L 231.361882 161.887023 
L 246.800618 161.459149 
L 262.239353 131.265176 
L 277.678088 132.93071 
L 293.116823 160.934562 
L 308.555558 164.691346 
L 323.994293 165.360104 
L 339.433029 165.711937 
L 354.871764 165.707349 
L 370.310499 165.817105 
L 385.749234 165.900013 
L 401.187969 165.930221 
L 416.626705 165.95639 
" style="fill:none;stroke:#1b9e77;stroke-linecap:square;stroke-opacity:0.5;stroke-width:1.5;"/>
   </g>
   <g id="line2d_88">
    <path clip-path="url(#p51c3cb4f1f)" d="M 61.535795 163.71445 
L 76.974531 160.116203 
L 92.413266 163.923942 
L 107.852001 95.413638 
L 123.290736 126.651715 
L 138.729471 165.41035 
L 154.168207 158.188035 
L 169.606942 118.14863 
L 185.045677 150.224557 
L 200.484412 163.069568 
L 215.923147 165.517674 
L 231.361882 165.569261 
L 246.800618 165.695344 
L 262.239353 165.722412 
L 277.678088 165.766262 
L 293.116823 165.865584 
L 308.555558 165.883607 
L 323.994293 165.883824 
L 339.433029 163.705758 
L 354.871764 157.88565 
L 370.310499 153.817301 
L 385.749234 152.066155 
L 401.187969 147.513871 
L 416.626705 159.397574 
" style="fill:none;stroke:#1b9e77;stroke-linecap:square;stroke-opacity:0.5;stroke-width:1.5;"/>
   </g>
   <g id="line2d_89">
    <path clip-path="url(#p51c3cb4f1f)" d="M 61.535795 160.67287 
L 76.974531 163.244762 
L 92.413266 165.582822 
L 107.852001 165.654004 
L 123.290736 165.759753 
L 138.729471 165.720799 
L 154.168207 165.6921 
L 169.606942 165.726074 
L 185.045677 165.719726 
L 200.484412 165.638562 
L 215.923147 165.188312 
L 231.361882 164.934907 
L 246.800618 160.016494 
L 262.239353 145.308372 
L 277.678088 120.606297 
L 293.116823 98.487448 
L 308.555558 102.326744 
L 323.994293 151.61607 
L 339.433029 160.817226 
L 354.871764 149.46965 
L 370.310499 159.977597 
L 385.749234 165.239012 
L 401.187969 165.816169 
L 416.626705 165.935585 
" style="fill:none;stroke:#1b9e77;stroke-linecap:square;stroke-opacity:0.5;stroke-width:1.5;"/>
   </g>
   <g id="line2d_90">
    <path clip-path="url(#p51c3cb4f1f)" d="M 61.535795 146.155248 
L 76.974531 85.188379 
L 92.413266 123.569932 
L 107.852001 146.017815 
L 123.290736 159.411333 
L 138.729471 161.618297 
L 154.168207 163.500526 
L 169.606942 163.613374 
L 185.045677 164.108643 
L 200.484412 163.722552 
L 215.923147 163.995164 
L 231.361882 164.571874 
L 246.800618 163.86003 
L 262.239353 149.197814 
L 277.678088 131.105902 
L 293.116823 157.452934 
L 308.555558 163.584183 
L 323.994293 164.278513 
L 339.433029 164.492405 
L 354.871764 163.927406 
L 370.310499 164.663544 
L 385.749234 165.506283 
L 401.187969 165.725078 
L 416.626705 165.884136 
" style="fill:none;stroke:#1b9e77;stroke-linecap:square;stroke-opacity:0.5;stroke-width:1.5;"/>
   </g>
   <g id="line2d_91">
    <path clip-path="url(#p51c3cb4f1f)" d="M 61.535795 154.625859 
L 76.974531 116.098286 
L 92.413266 154.960555 
L 107.852001 164.05591 
L 123.290736 164.760062 
L 138.729471 161.237679 
L 154.168207 133.191938 
L 169.606942 124.768156 
L 185.045677 153.72218 
L 200.484412 164.475021 
L 215.923147 164.159488 
L 231.361882 138.337523 
L 246.800618 139.747383 
L 262.239353 163.373358 
L 277.678088 165.27844 
L 293.116823 165.044184 
L 308.555558 163.841761 
L 323.994293 156.200127 
L 339.433029 161.101083 
L 354.871764 165.018651 
L 370.310499 164.576714 
L 385.749234 160.039596 
L 401.187969 160.742166 
L 416.626705 165.795243 
" style="fill:none;stroke:#1b9e77;stroke-linecap:square;stroke-opacity:0.5;stroke-width:1.5;"/>
   </g>
   <g id="line2d_92">
    <path clip-path="url(#p51c3cb4f1f)" d="M 61.535795 165.851564 
L 76.974531 165.759216 
L 92.413266 164.847464 
L 107.852001 162.78504 
L 123.290736 141.665531 
L 138.729471 165.808495 
L 154.168207 165.710532 
L 169.606942 150.56125 
L 185.045677 150.943108 
L 200.484412 159.873734 
L 215.923147 117.622558 
L 231.361882 150.142619 
L 246.800618 151.158688 
L 262.239353 157.121543 
L 277.678088 142.31064 
L 293.116823 91.795366 
L 308.555558 165.63867 
L 323.994293 165.675267 
L 339.433029 165.209291 
L 354.871764 162.723943 
L 370.310499 164.993515 
L 385.749234 165.755985 
L 401.187969 165.868367 
L 416.626705 165.328978 
" style="fill:none;stroke:#1b9e77;stroke-linecap:square;stroke-opacity:0.5;stroke-width:1.5;"/>
   </g>
   <g id="line2d_93">
    <path clip-path="url(#p51c3cb4f1f)" d="M 61.535795 143.032791 
L 76.974531 153.296093 
L 92.413266 161.949856 
L 107.852001 160.76918 
L 123.290736 160.278355 
L 138.729471 160.343247 
L 154.168207 162.616405 
L 169.606942 164.339383 
L 185.045677 165.122332 
L 200.484412 165.327781 
L 215.923147 165.530666 
L 231.361882 165.375095 
L 246.800618 165.588527 
L 262.239353 165.879062 
L 277.678088 165.921162 
L 293.116823 165.932089 
L 308.555558 160.534224 
L 323.994293 145.67646 
L 339.433029 149.353558 
L 354.871764 150.055177 
L 370.310499 144.30261 
L 385.749234 123.129023 
L 401.187969 108.365511 
L 416.626705 152.432776 
" style="fill:none;stroke:#1b9e77;stroke-linecap:square;stroke-opacity:0.5;stroke-width:1.5;"/>
   </g>
   <g id="line2d_94">
    <path clip-path="url(#p51c3cb4f1f)" d="M 61.535795 112.996317 
L 76.974531 155.171826 
L 92.413266 161.372127 
L 107.852001 126.988416 
L 123.290736 136.385724 
L 138.729471 127.176076 
L 154.168207 140.755759 
L 169.606942 165.557566 
L 185.045677 165.887931 
L 200.484412 165.871075 
L 215.923147 165.876378 
L 231.361882 165.896322 
L 246.800618 165.914811 
L 262.239353 165.926339 
L 277.678088 165.935584 
L 293.116823 165.935147 
L 308.555558 165.916998 
L 323.994293 165.89538 
L 339.433029 165.801744 
L 354.871764 165.941347 
L 370.310499 165.569583 
L 385.749234 143.656882 
L 401.187969 146.051046 
L 416.626705 152.670992 
" style="fill:none;stroke:#1b9e77;stroke-linecap:square;stroke-opacity:0.5;stroke-width:1.5;"/>
   </g>
   <g id="line2d_95">
    <path clip-path="url(#p51c3cb4f1f)" d="M 61.535795 165.76804 
L 76.974531 165.869454 
L 92.413266 165.919638 
L 107.852001 165.949842 
L 123.290736 163.426723 
L 138.729471 165.279185 
L 154.168207 164.9647 
L 169.606942 164.854857 
L 185.045677 165.032835 
L 200.484412 164.616549 
L 215.923147 164.032799 
L 231.361882 163.326718 
L 246.800618 114.838411 
L 262.239353 46.392072 
L 277.678088 128.807077 
L 293.116823 142.674196 
L 308.555558 157.02875 
L 323.994293 165.750451 
L 339.433029 165.927385 
L 354.871764 163.436695 
L 370.310499 164.466087 
L 385.749234 165.380101 
L 401.187969 165.450811 
L 416.626705 165.957976 
" style="fill:none;stroke:#1b9e77;stroke-linecap:square;stroke-opacity:0.5;stroke-width:1.5;"/>
   </g>
   <g id="line2d_96">
    <path clip-path="url(#p51c3cb4f1f)" d="M 61.535795 165.21694 
L 76.974531 165.400519 
L 92.413266 165.659838 
L 107.852001 165.60991 
L 123.290736 165.721989 
L 138.729471 165.888908 
L 154.168207 165.90194 
L 169.606942 164.390129 
L 185.045677 162.389255 
L 200.484412 161.452087 
L 215.923147 159.902355 
L 231.361882 154.599663 
L 246.800618 155.844719 
L 262.239353 148.807624 
L 277.678088 146.762655 
L 293.116823 51.213625 
L 308.555558 109.365183 
L 323.994293 157.827701 
L 339.433029 164.880803 
L 354.871764 165.199477 
L 370.310499 165.64456 
L 385.749234 165.731837 
L 401.187969 165.807771 
L 416.626705 165.931881 
" style="fill:none;stroke:#1b9e77;stroke-linecap:square;stroke-opacity:0.5;stroke-width:1.5;"/>
   </g>
   <g id="line2d_97">
    <path clip-path="url(#p51c3cb4f1f)" d="M 61.535795 157.685607 
L 76.974531 161.839154 
L 92.413266 164.905734 
L 107.852001 165.187861 
L 123.290736 165.505093 
L 138.729471 165.50087 
L 154.168207 164.691233 
L 169.606942 162.608318 
L 185.045677 156.970871 
L 200.484412 146.990886 
L 215.923147 131.908732 
L 231.361882 143.002694 
L 246.800618 131.988751 
L 262.239353 128.963993 
L 277.678088 135.55425 
L 293.116823 145.078708 
L 308.555558 160.163894 
L 323.994293 165.719413 
L 339.433029 165.848885 
L 354.871764 163.173797 
L 370.310499 162.59643 
L 385.749234 154.342153 
L 401.187969 163.792599 
L 416.626705 161.131438 
" style="fill:none;stroke:#1b9e77;stroke-linecap:square;stroke-opacity:0.5;stroke-width:1.5;"/>
   </g>
   <g id="line2d_98">
    <path clip-path="url(#p51c3cb4f1f)" d="M 61.535795 165.118143 
L 76.974531 164.407121 
L 92.413266 165.548638 
L 107.852001 165.820733 
L 123.290736 165.800491 
L 138.729471 159.885956 
L 154.168207 156.132523 
L 169.606942 151.519773 
L 185.045677 122.739663 
L 200.484412 111.791578 
L 215.923147 115.390505 
L 231.361882 138.365386 
L 246.800618 126.494533 
L 262.239353 158.508852 
L 277.678088 165.080741 
L 293.116823 165.388687 
L 308.555558 165.72056 
L 323.994293 165.838538 
L 339.433029 165.90861 
L 354.871764 165.912275 
L 370.310499 165.931795 
L 385.749234 165.948802 
L 401.187969 165.950748 
L 416.626705 165.946711 
" style="fill:none;stroke:#1b9e77;stroke-linecap:square;stroke-opacity:0.5;stroke-width:1.5;"/>
   </g>
   <g id="line2d_99">
    <path clip-path="url(#p51c3cb4f1f)" d="M 61.535795 161.754559 
L 76.974531 163.730932 
L 92.413266 165.372316 
L 107.852001 165.343242 
L 123.290736 163.756304 
L 138.729471 132.751103 
L 154.168207 147.372656 
L 169.606942 165.092504 
L 185.045677 165.55366 
L 200.484412 165.303699 
L 215.923147 165.276944 
L 231.361882 165.517724 
L 246.800618 165.752738 
L 262.239353 165.87519 
L 277.678088 165.879987 
L 293.116823 165.89873 
L 308.555558 164.252011 
L 323.994293 159.648738 
L 339.433029 143.306581 
L 354.871764 150.463302 
L 370.310499 146.685389 
L 385.749234 133.540094 
L 401.187969 93.580374 
L 416.626705 143.442585 
" style="fill:none;stroke:#1b9e77;stroke-linecap:square;stroke-opacity:0.5;stroke-width:1.5;"/>
   </g>
   <g id="line2d_100">
    <path clip-path="url(#p51c3cb4f1f)" d="M 61.535795 137.010945 
L 76.974531 163.065664 
L 92.413266 165.606578 
L 107.852001 165.622717 
L 123.290736 165.715856 
L 138.729471 165.516067 
L 154.168207 164.85936 
L 169.606942 165.610898 
L 185.045677 165.810753 
L 200.484412 165.643928 
L 215.923147 164.767849 
L 231.361882 165.252149 
L 246.800618 165.304812 
L 262.239353 140.981724 
L 277.678088 89.802033 
L 293.116823 153.571865 
L 308.555558 148.68105 
L 323.994293 136.743375 
L 339.433029 141.94399 
L 354.871764 151.904267 
L 370.310499 156.459224 
L 385.749234 160.233683 
L 401.187969 160.635666 
L 416.626705 164.406909 
" style="fill:none;stroke:#1b9e77;stroke-linecap:square;stroke-opacity:0.5;stroke-width:1.5;"/>
   </g>
   <g id="line2d_101">
    <path clip-path="url(#p51c3cb4f1f)" d="M 61.535795 148.172009 
L 76.974531 122.344302 
L 92.413266 140.2199 
L 107.852001 155.717767 
L 123.290736 163.262341 
L 138.729471 164.177278 
L 154.168207 164.910769 
L 169.606942 164.784637 
L 185.045677 164.938171 
L 200.484412 165.016851 
L 215.923147 165.232449 
L 231.361882 165.283402 
L 246.800618 165.431778 
L 262.239353 165.483813 
L 277.678088 165.548003 
L 293.116823 165.599746 
L 308.555558 165.685765 
L 323.994293 165.829195 
L 339.433029 165.781229 
L 354.871764 158.5438 
L 370.310499 104.09232 
L 385.749234 134.713567 
L 401.187969 126.847614 
L 416.626705 157.534654 
" style="fill:none;stroke:#1b9e77;stroke-linecap:square;stroke-opacity:0.5;stroke-width:1.5;"/>
   </g>
   <g id="line2d_102">
    <path clip-path="url(#p51c3cb4f1f)" d="M 61.535795 164.986469 
L 76.974531 162.690061 
L 92.413266 162.304011 
L 107.852001 164.315387 
L 123.290736 164.765907 
L 138.729471 164.818398 
L 154.168207 161.194986 
L 169.606942 149.821519 
L 185.045677 102.737434 
L 200.484412 152.777041 
L 215.923147 160.117486 
L 231.361882 152.618258 
L 246.800618 161.639595 
L 262.239353 159.233643 
L 277.678088 146.125485 
L 293.116823 157.880622 
L 308.555558 159.339661 
L 323.994293 126.424024 
L 339.433029 144.632106 
L 354.871764 165.864121 
L 370.310499 165.891389 
L 385.749234 161.543739 
L 401.187969 159.853449 
L 416.626705 153.576575 
" style="fill:none;stroke:#1b9e77;stroke-linecap:square;stroke-opacity:0.5;stroke-width:1.5;"/>
   </g>
   <g id="line2d_103">
    <path clip-path="url(#p51c3cb4f1f)" d="M 61.535795 142.592966 
L 76.974531 120.181633 
L 92.413266 158.073658 
L 107.852001 158.634027 
L 123.290736 156.981372 
L 138.729471 139.00983 
L 154.168207 147.232337 
L 169.606942 163.15297 
L 185.045677 164.632623 
L 200.484412 160.982948 
L 215.923147 151.419245 
L 231.361882 151.843311 
L 246.800618 150.962866 
L 262.239353 147.864181 
L 277.678088 142.459323 
L 293.116823 146.494768 
L 308.555558 162.456216 
L 323.994293 165.175736 
L 339.433029 165.751501 
L 354.871764 165.675063 
L 370.310499 165.78914 
L 385.749234 165.895894 
L 401.187969 165.934179 
L 416.626705 165.95558 
" style="fill:none;stroke:#1b9e77;stroke-linecap:square;stroke-opacity:0.5;stroke-width:1.5;"/>
   </g>
   <g id="line2d_104">
    <path clip-path="url(#p51c3cb4f1f)" d="M 61.535795 163.935521 
L 76.974531 165.163037 
L 92.413266 165.746312 
L 107.852001 165.779808 
L 123.290736 165.779889 
L 138.729471 165.644828 
L 154.168207 161.311169 
L 169.606942 165.252461 
L 185.045677 165.489121 
L 200.484412 164.296171 
L 215.923147 151.456567 
L 231.361882 165.428355 
L 246.800618 165.672725 
L 262.239353 165.638376 
L 277.678088 165.560658 
L 293.116823 165.225369 
L 308.555558 164.975016 
L 323.994293 165.280936 
L 339.433029 165.244675 
L 354.871764 164.379525 
L 370.310499 146.368301 
L 385.749234 125.274712 
L 401.187969 45.896262 
L 416.626705 120.351563 
" style="fill:none;stroke:#1b9e77;stroke-linecap:square;stroke-opacity:0.5;stroke-width:1.5;"/>
   </g>
   <g id="line2d_105">
    <path clip-path="url(#p51c3cb4f1f)" d="M 61.535795 164.848693 
L 76.974531 163.12581 
L 92.413266 140.625835 
L 107.852001 143.008634 
L 123.290736 159.099548 
L 138.729471 153.585281 
L 154.168207 150.299922 
L 169.606942 151.114523 
L 185.045677 164.22452 
L 200.484412 165.314664 
L 215.923147 165.037384 
L 231.361882 161.014705 
L 246.800618 151.552474 
L 262.239353 153.971551 
L 277.678088 144.852006 
L 293.116823 145.15081 
L 308.555558 148.807608 
L 323.994293 139.960568 
L 339.433029 137.159579 
L 354.871764 160.600359 
L 370.310499 164.785826 
L 385.749234 165.372101 
L 401.187969 165.714925 
L 416.626705 165.924039 
" style="fill:none;stroke:#1b9e77;stroke-linecap:square;stroke-opacity:0.5;stroke-width:1.5;"/>
   </g>
   <g id="line2d_106">
    <path clip-path="url(#p51c3cb4f1f)" d="M 61.535795 165.916743 
L 76.974531 165.850326 
L 92.413266 165.903519 
L 107.852001 165.908419 
L 123.290736 165.906574 
L 138.729471 165.94045 
L 154.168207 165.933095 
L 169.606942 164.548608 
L 185.045677 157.137212 
L 200.484412 148.199013 
L 215.923147 156.677374 
L 231.361882 156.053035 
L 246.800618 130.03046 
L 262.239353 98.518933 
L 277.678088 126.094589 
L 293.116823 140.210509 
L 308.555558 143.26854 
L 323.994293 164.977367 
L 339.433029 165.691103 
L 354.871764 165.754996 
L 370.310499 165.76325 
L 385.749234 165.732594 
L 401.187969 157.484544 
L 416.626705 157.650108 
" style="fill:none;stroke:#1b9e77;stroke-linecap:square;stroke-opacity:0.5;stroke-width:1.5;"/>
   </g>
   <g id="line2d_107">
    <path clip-path="url(#p51c3cb4f1f)" d="M 61.535795 163.209484 
L 76.974531 162.438427 
L 92.413266 165.258402 
L 107.852001 165.536113 
L 123.290736 165.513756 
L 138.729471 164.441345 
L 154.168207 157.920888 
L 169.606942 163.944731 
L 185.045677 165.248885 
L 200.484412 165.834897 
L 215.923147 164.700196 
L 231.361882 142.005154 
L 246.800618 117.153045 
L 262.239353 165.892636 
L 277.678088 165.942064 
L 293.116823 165.949964 
L 308.555558 164.903232 
L 323.994293 154.367206 
L 339.433029 145.210222 
L 354.871764 162.201578 
L 370.310499 152.550157 
L 385.749234 125.778849 
L 401.187969 117.017617 
L 416.626705 142.132503 
" style="fill:none;stroke:#1b9e77;stroke-linecap:square;stroke-opacity:0.5;stroke-width:1.5;"/>
   </g>
   <g id="line2d_108">
    <path clip-path="url(#p51c3cb4f1f)" d="M 61.535795 136.962221 
L 76.974531 151.038208 
L 92.413266 143.342872 
L 107.852001 108.434941 
L 123.290736 144.795495 
L 138.729471 163.997352 
L 154.168207 165.617852 
L 169.606942 165.707053 
L 185.045677 165.702432 
L 200.484412 165.694477 
L 215.923147 165.769364 
L 231.361882 165.827304 
L 246.800618 165.866117 
L 262.239353 165.884 
L 277.678088 165.864506 
L 293.116823 165.941411 
L 308.555558 165.584832 
L 323.994293 157.671214 
L 339.433029 153.393863 
L 354.871764 152.139198 
L 370.310499 148.031538 
L 385.749234 142.66412 
L 401.187969 141.349481 
L 416.626705 157.871514 
" style="fill:none;stroke:#1b9e77;stroke-linecap:square;stroke-opacity:0.5;stroke-width:1.5;"/>
   </g>
   <g id="line2d_109">
    <path clip-path="url(#p51c3cb4f1f)" d="M 61.535795 165.044663 
L 76.974531 163.173994 
L 92.413266 163.021813 
L 107.852001 159.09104 
L 123.290736 147.322296 
L 138.729471 156.97175 
L 154.168207 148.737469 
L 169.606942 137.277179 
L 185.045677 111.950825 
L 200.484412 120.584078 
L 215.923147 148.245427 
L 231.361882 149.890008 
L 246.800618 155.347403 
L 262.239353 146.682767 
L 277.678088 162.514945 
L 293.116823 164.649957 
L 308.555558 165.159669 
L 323.994293 165.282774 
L 339.433029 165.321571 
L 354.871764 165.529623 
L 370.310499 165.669368 
L 385.749234 165.815077 
L 401.187969 165.913975 
L 416.626705 165.953703 
" style="fill:none;stroke:#1b9e77;stroke-linecap:square;stroke-opacity:0.5;stroke-width:1.5;"/>
   </g>
   <g id="line2d_110">
    <path clip-path="url(#p51c3cb4f1f)" d="M 61.535795 162.389205 
L 76.974531 165.620574 
L 92.413266 165.543409 
L 107.852001 164.767545 
L 123.290736 162.958749 
L 138.729471 162.59217 
L 154.168207 147.167967 
L 169.606942 145.022639 
L 185.045677 157.741351 
L 200.484412 148.920854 
L 215.923147 143.702242 
L 231.361882 162.181575 
L 246.800618 161.886714 
L 262.239353 143.451128 
L 277.678088 137.685339 
L 293.116823 122.836126 
L 308.555558 128.772713 
L 323.994293 159.64195 
L 339.433029 164.487195 
L 354.871764 159.684102 
L 370.310499 160.920735 
L 385.749234 165.412391 
L 401.187969 165.822778 
L 416.626705 165.941913 
" style="fill:none;stroke:#1b9e77;stroke-linecap:square;stroke-opacity:0.5;stroke-width:1.5;"/>
   </g>
   <g id="line2d_111">
    <path clip-path="url(#p51c3cb4f1f)" d="M 61.535795 165.951372 
L 76.974531 165.92009 
L 92.413266 165.825252 
L 107.852001 165.851672 
L 123.290736 165.665657 
L 138.729471 165.268826 
L 154.168207 164.936105 
L 169.606942 164.808144 
L 185.045677 164.495243 
L 200.484412 164.535198 
L 215.923147 164.055917 
L 231.361882 162.686653 
L 246.800618 151.921999 
L 262.239353 149.284339 
L 277.678088 155.325661 
L 293.116823 158.245956 
L 308.555558 155.9642 
L 323.994293 121.996543 
L 339.433029 81.602974 
L 354.871764 139.234579 
L 370.310499 149.643874 
L 385.749234 151.458837 
L 401.187969 164.727394 
L 416.626705 165.744884 
" style="fill:none;stroke:#1b9e77;stroke-linecap:square;stroke-opacity:0.5;stroke-width:1.5;"/>
   </g>
   <g id="line2d_112">
    <path clip-path="url(#p51c3cb4f1f)" d="M 61.535795 153.390077 
L 76.974531 131.98757 
L 92.413266 130.26102 
L 107.852001 134.359567 
L 123.290736 143.412122 
L 138.729471 131.039877 
L 154.168207 147.903506 
L 169.606942 156.9373 
L 185.045677 162.248147 
L 200.484412 163.407755 
L 215.923147 164.789787 
L 231.361882 165.00663 
L 246.800618 164.874834 
L 262.239353 162.563822 
L 277.678088 159.821286 
L 293.116823 163.216495 
L 308.555558 164.277706 
L 323.994293 163.996732 
L 339.433029 155.704497 
L 354.871764 148.70028 
L 370.310499 159.940626 
L 385.749234 165.498251 
L 401.187969 165.875253 
L 416.626705 165.938222 
" style="fill:none;stroke:#1b9e77;stroke-linecap:square;stroke-opacity:0.5;stroke-width:1.5;"/>
   </g>
   <g id="line2d_113">
    <path clip-path="url(#p51c3cb4f1f)" d="M 61.535795 163.532255 
L 76.974531 165.388699 
L 92.413266 165.745754 
L 107.852001 165.430661 
L 123.290736 165.086632 
L 138.729471 165.696632 
L 154.168207 165.86951 
L 169.606942 165.888457 
L 185.045677 165.900064 
L 200.484412 165.856071 
L 215.923147 165.780496 
L 231.361882 165.883754 
L 246.800618 165.896211 
L 262.239353 165.919958 
L 277.678088 164.506279 
L 293.116823 107.118451 
L 308.555558 76.354676 
L 323.994293 127.728947 
L 339.433029 142.509265 
L 354.871764 156.646893 
L 370.310499 156.271605 
L 385.749234 148.140155 
L 401.187969 162.125645 
L 416.626705 165.874286 
" style="fill:none;stroke:#1b9e77;stroke-linecap:square;stroke-opacity:0.5;stroke-width:1.5;"/>
   </g>
   <g id="line2d_114">
    <path clip-path="url(#p51c3cb4f1f)" d="M 61.535795 103.406702 
L 76.974531 147.647936 
L 92.413266 161.796921 
L 107.852001 160.165307 
L 123.290736 160.448996 
L 138.729471 162.252529 
L 154.168207 163.834614 
L 169.606942 164.769877 
L 185.045677 165.164934 
L 200.484412 164.945441 
L 215.923147 162.419499 
L 231.361882 161.303211 
L 246.800618 164.0933 
L 262.239353 165.028618 
L 277.678088 165.117875 
L 293.116823 165.185663 
L 308.555558 165.370937 
L 323.994293 165.456419 
L 339.433029 165.577251 
L 354.871764 165.718633 
L 370.310499 165.737755 
L 385.749234 165.883477 
L 401.187969 157.245334 
L 416.626705 36.580129 
" style="fill:none;stroke:#1b9e77;stroke-linecap:square;stroke-opacity:0.5;stroke-width:1.5;"/>
   </g>
   <g id="line2d_115">
    <path clip-path="url(#p51c3cb4f1f)" d="M 61.535795 158.817347 
L 76.974531 130.96688 
L 92.413266 96.254547 
L 107.852001 78.491104 
L 123.290736 134.87015 
L 138.729471 159.430654 
L 154.168207 161.738571 
L 169.606942 165.192798 
L 185.045677 165.345255 
L 200.484412 165.948718 
L 215.923147 165.948718 
L 231.361882 165.948718 
L 246.800618 165.878268 
L 262.239353 165.746101 
L 277.678088 157.993705 
L 293.116823 162.599795 
L 308.555558 165.948718 
L 323.994293 165.948718 
L 339.433029 165.948718 
L 354.871764 164.507916 
L 370.310499 164.362824 
L 385.749234 165.365709 
L 401.187969 165.948718 
L 416.626705 165.948718 
" style="fill:none;stroke:#d95f02;stroke-linecap:square;stroke-width:1.5;"/>
   </g>
   <g id="patch_3">
    <path d="M 43.78125 173.52 
L 43.78125 7.2 
" style="fill:none;stroke:#000000;stroke-linecap:square;stroke-linejoin:miter;stroke-width:0.8;"/>
   </g>
   <g id="patch_4">
    <path d="M 43.78125 173.52 
L 434.38125 173.52 
" style="fill:none;stroke:#000000;stroke-linecap:square;stroke-linejoin:miter;stroke-width:0.8;"/>
   </g>
   <g id="legend_1">
    <g id="patch_5">
     <path d="M 376.214063 29.878125 
L 427.38125 29.878125 
Q 429.38125 29.878125 429.38125 27.878125 
L 429.38125 14.2 
Q 429.38125 12.2 427.38125 12.2 
L 376.214063 12.2 
Q 374.214063 12.2 374.214063 14.2 
L 374.214063 27.878125 
Q 374.214063 29.878125 376.214063 29.878125 
z
" style="fill:#ffffff;opacity:0.8;stroke:#cccccc;stroke-linejoin:miter;"/>
    </g>
    <g id="line2d_116">
     <path d="M 378.214063 20.298438 
L 398.214063 20.298438 
" style="fill:none;stroke:#d95f02;stroke-linecap:square;stroke-width:1.5;"/>
    </g>
    <g id="line2d_117"/>
    <g id="text_17">
     <!-- real -->
     <defs>
      <path d="M 9.421875 75.984375 
L 18.40625 75.984375 
L 18.40625 0 
L 9.421875 0 
z
" id="DejaVuSans-108"/>
     </defs>
     <g transform="translate(406.214063 23.798438)scale(0.1 -0.1)">
      <use xlink:href="#DejaVuSans-114"/>
      <use x="41.082031" xlink:href="#DejaVuSans-101"/>
      <use x="102.605469" xlink:href="#DejaVuSans-97"/>
      <use x="163.884766" xlink:href="#DejaVuSans-108"/>
     </g>
    </g>
   </g>
  </g>
 </g>
 <defs>
  <clipPath id="p51c3cb4f1f">
   <rect height="166.32" width="390.6" x="43.78125" y="7.2"/>
  </clipPath>
 </defs>
</svg>
