<?xml version="1.0" encoding="utf-8" standalone="no"?>
<!DOCTYPE svg PUBLIC "-//W3C//DTD SVG 1.1//EN"
  "http://www.w3.org/Graphics/SVG/1.1/DTD/svg11.dtd">
<!-- Created with matplotlib (https://matplotlib.org/) -->
<svg height="211.07625pt" version="1.1" viewBox="0 0 436.087315 211.07625" width="436.087315pt" xmlns="http://www.w3.org/2000/svg" xmlns:xlink="http://www.w3.org/1999/xlink">
 <defs>
  <style type="text/css">
*{stroke-linecap:butt;stroke-linejoin:round;}
  </style>
 </defs>
 <g id="figure_1">
  <g id="patch_1">
   <path d="M 0 211.07625 
L 436.087315 211.07625 
L 436.087315 0 
L 0 0 
z
" style="fill:#ffffff;"/>
  </g>
  <g id="axes_1">
   <g id="patch_2">
    <path d="M 34.240625 173.52 
L 424.840625 173.52 
L 424.840625 7.2 
L 34.240625 7.2 
z
" style="fill:#ffffff;"/>
   </g>
   <g id="matplotlib.axis_1">
    <g id="xtick_1">
     <g id="line2d_1">
      <defs>
       <path d="M 0 0 
L 0 3.5 
" id="m4f17200afe" style="stroke:#000000;stroke-width:0.8;"/>
      </defs>
      <g>
       <use style="stroke:#000000;stroke-width:0.8;" x="36.556435" xlink:href="#m4f17200afe" y="173.52"/>
      </g>
     </g>
     <g id="text_1">
      <!-- 0 -->
      <defs>
       <path d="M 31.78125 66.40625 
Q 24.171875 66.40625 20.328125 58.90625 
Q 16.5 51.421875 16.5 36.375 
Q 16.5 21.390625 20.328125 13.890625 
Q 24.171875 6.390625 31.78125 6.390625 
Q 39.453125 6.390625 43.28125 13.890625 
Q 47.125 21.390625 47.125 36.375 
Q 47.125 51.421875 43.28125 58.90625 
Q 39.453125 66.40625 31.78125 66.40625 
z
M 31.78125 74.21875 
Q 44.046875 74.21875 50.515625 64.515625 
Q 56.984375 54.828125 56.984375 36.375 
Q 56.984375 17.96875 50.515625 8.265625 
Q 44.046875 -1.421875 31.78125 -1.421875 
Q 19.53125 -1.421875 13.0625 8.265625 
Q 6.59375 17.96875 6.59375 36.375 
Q 6.59375 54.828125 13.0625 64.515625 
Q 19.53125 74.21875 31.78125 74.21875 
z
" id="DejaVuSans-48"/>
      </defs>
      <g transform="translate(33.375185 188.118438)scale(0.1 -0.1)">
       <use xlink:href="#DejaVuSans-48"/>
      </g>
     </g>
    </g>
    <g id="xtick_2">
     <g id="line2d_2">
      <g>
       <use style="stroke:#000000;stroke-width:0.8;" x="113.750111" xlink:href="#m4f17200afe" y="173.52"/>
      </g>
     </g>
     <g id="text_2">
      <!-- 5 -->
      <defs>
       <path d="M 10.796875 72.90625 
L 49.515625 72.90625 
L 49.515625 64.59375 
L 19.828125 64.59375 
L 19.828125 46.734375 
Q 21.96875 47.46875 24.109375 47.828125 
Q 26.265625 48.1875 28.421875 48.1875 
Q 40.625 48.1875 47.75 41.5 
Q 54.890625 34.8125 54.890625 23.390625 
Q 54.890625 11.625 47.5625 5.09375 
Q 40.234375 -1.421875 26.90625 -1.421875 
Q 22.3125 -1.421875 17.546875 -0.640625 
Q 12.796875 0.140625 7.71875 1.703125 
L 7.71875 11.625 
Q 12.109375 9.234375 16.796875 8.0625 
Q 21.484375 6.890625 26.703125 6.890625 
Q 35.15625 6.890625 40.078125 11.328125 
Q 45.015625 15.765625 45.015625 23.390625 
Q 45.015625 31 40.078125 35.4375 
Q 35.15625 39.890625 26.703125 39.890625 
Q 22.75 39.890625 18.8125 39.015625 
Q 14.890625 38.140625 10.796875 36.28125 
z
" id="DejaVuSans-53"/>
      </defs>
      <g transform="translate(110.568861 188.118438)scale(0.1 -0.1)">
       <use xlink:href="#DejaVuSans-53"/>
      </g>
     </g>
    </g>
    <g id="xtick_3">
     <g id="line2d_3">
      <g>
       <use style="stroke:#000000;stroke-width:0.8;" x="190.943787" xlink:href="#m4f17200afe" y="173.52"/>
      </g>
     </g>
     <g id="text_3">
      <!-- 10 -->
      <defs>
       <path d="M 12.40625 8.296875 
L 28.515625 8.296875 
L 28.515625 63.921875 
L 10.984375 60.40625 
L 10.984375 69.390625 
L 28.421875 72.90625 
L 38.28125 72.90625 
L 38.28125 8.296875 
L 54.390625 8.296875 
L 54.390625 0 
L 12.40625 0 
z
" id="DejaVuSans-49"/>
      </defs>
      <g transform="translate(184.581287 188.118438)scale(0.1 -0.1)">
       <use xlink:href="#DejaVuSans-49"/>
       <use x="63.623047" xlink:href="#DejaVuSans-48"/>
      </g>
     </g>
    </g>
    <g id="xtick_4">
     <g id="line2d_4">
      <g>
       <use style="stroke:#000000;stroke-width:0.8;" x="268.137463" xlink:href="#m4f17200afe" y="173.52"/>
      </g>
     </g>
     <g id="text_4">
      <!-- 15 -->
      <g transform="translate(261.774963 188.118438)scale(0.1 -0.1)">
       <use xlink:href="#DejaVuSans-49"/>
       <use x="63.623047" xlink:href="#DejaVuSans-53"/>
      </g>
     </g>
    </g>
    <g id="xtick_5">
     <g id="line2d_5">
      <g>
       <use style="stroke:#000000;stroke-width:0.8;" x="345.331139" xlink:href="#m4f17200afe" y="173.52"/>
      </g>
     </g>
     <g id="text_5">
      <!-- 20 -->
      <defs>
       <path d="M 19.1875 8.296875 
L 53.609375 8.296875 
L 53.609375 0 
L 7.328125 0 
L 7.328125 8.296875 
Q 12.9375 14.109375 22.625 23.890625 
Q 32.328125 33.6875 34.8125 36.53125 
Q 39.546875 41.84375 41.421875 45.53125 
Q 43.3125 49.21875 43.3125 52.78125 
Q 43.3125 58.59375 39.234375 62.25 
Q 35.15625 65.921875 28.609375 65.921875 
Q 23.96875 65.921875 18.8125 64.3125 
Q 13.671875 62.703125 7.8125 59.421875 
L 7.8125 69.390625 
Q 13.765625 71.78125 18.9375 73 
Q 24.125 74.21875 28.421875 74.21875 
Q 39.75 74.21875 46.484375 68.546875 
Q 53.21875 62.890625 53.21875 53.421875 
Q 53.21875 48.921875 51.53125 44.890625 
Q 49.859375 40.875 45.40625 35.40625 
Q 44.1875 33.984375 37.640625 27.21875 
Q 31.109375 20.453125 19.1875 8.296875 
z
" id="DejaVuSans-50"/>
      </defs>
      <g transform="translate(338.968639 188.118438)scale(0.1 -0.1)">
       <use xlink:href="#DejaVuSans-50"/>
       <use x="63.623047" xlink:href="#DejaVuSans-48"/>
      </g>
     </g>
    </g>
    <g id="xtick_6">
     <g id="line2d_6">
      <g>
       <use style="stroke:#000000;stroke-width:0.8;" x="422.524815" xlink:href="#m4f17200afe" y="173.52"/>
      </g>
     </g>
     <g id="text_6">
      <!-- 25 -->
      <g transform="translate(416.162315 188.118438)scale(0.1 -0.1)">
       <use xlink:href="#DejaVuSans-50"/>
       <use x="63.623047" xlink:href="#DejaVuSans-53"/>
      </g>
     </g>
    </g>
    <g id="text_7">
     <!-- hour -->
     <defs>
      <path d="M 54.890625 33.015625 
L 54.890625 0 
L 45.90625 0 
L 45.90625 32.71875 
Q 45.90625 40.484375 42.875 44.328125 
Q 39.84375 48.1875 33.796875 48.1875 
Q 26.515625 48.1875 22.3125 43.546875 
Q 18.109375 38.921875 18.109375 30.90625 
L 18.109375 0 
L 9.078125 0 
L 9.078125 75.984375 
L 18.109375 75.984375 
L 18.109375 46.1875 
Q 21.34375 51.125 25.703125 53.5625 
Q 30.078125 56 35.796875 56 
Q 45.21875 56 50.046875 50.171875 
Q 54.890625 44.34375 54.890625 33.015625 
z
" id="DejaVuSans-104"/>
      <path d="M 30.609375 48.390625 
Q 23.390625 48.390625 19.1875 42.75 
Q 14.984375 37.109375 14.984375 27.296875 
Q 14.984375 17.484375 19.15625 11.84375 
Q 23.34375 6.203125 30.609375 6.203125 
Q 37.796875 6.203125 41.984375 11.859375 
Q 46.1875 17.53125 46.1875 27.296875 
Q 46.1875 37.015625 41.984375 42.703125 
Q 37.796875 48.390625 30.609375 48.390625 
z
M 30.609375 56 
Q 42.328125 56 49.015625 48.375 
Q 55.71875 40.765625 55.71875 27.296875 
Q 55.71875 13.875 49.015625 6.21875 
Q 42.328125 -1.421875 30.609375 -1.421875 
Q 18.84375 -1.421875 12.171875 6.21875 
Q 5.515625 13.875 5.515625 27.296875 
Q 5.515625 40.765625 12.171875 48.375 
Q 18.84375 56 30.609375 56 
z
" id="DejaVuSans-111"/>
      <path d="M 8.5 21.578125 
L 8.5 54.6875 
L 17.484375 54.6875 
L 17.484375 21.921875 
Q 17.484375 14.15625 20.5 10.265625 
Q 23.53125 6.390625 29.59375 6.390625 
Q 36.859375 6.390625 41.078125 11.03125 
Q 45.3125 15.671875 45.3125 23.6875 
L 45.3125 54.6875 
L 54.296875 54.6875 
L 54.296875 0 
L 45.3125 0 
L 45.3125 8.40625 
Q 42.046875 3.421875 37.71875 1 
Q 33.40625 -1.421875 27.6875 -1.421875 
Q 18.265625 -1.421875 13.375 4.4375 
Q 8.5 10.296875 8.5 21.578125 
z
M 31.109375 56 
z
" id="DejaVuSans-117"/>
      <path d="M 41.109375 46.296875 
Q 39.59375 47.171875 37.8125 47.578125 
Q 36.03125 48 33.890625 48 
Q 26.265625 48 22.1875 43.046875 
Q 18.109375 38.09375 18.109375 28.8125 
L 18.109375 0 
L 9.078125 0 
L 9.078125 54.6875 
L 18.109375 54.6875 
L 18.109375 46.1875 
Q 20.953125 51.171875 25.484375 53.578125 
Q 30.03125 56 36.53125 56 
Q 37.453125 56 38.578125 55.875 
Q 39.703125 55.765625 41.0625 55.515625 
z
" id="DejaVuSans-114"/>
     </defs>
     <g transform="translate(218.088281 201.796563)scale(0.1 -0.1)">
      <use xlink:href="#DejaVuSans-104"/>
      <use x="63.378906" xlink:href="#DejaVuSans-111"/>
      <use x="124.560547" xlink:href="#DejaVuSans-117"/>
      <use x="187.939453" xlink:href="#DejaVuSans-114"/>
     </g>
    </g>
   </g>
   <g id="matplotlib.axis_2">
    <g id="ytick_1">
     <g id="line2d_7">
      <defs>
       <path d="M 0 0 
L -3.5 0 
" id="m5e44b401b1" style="stroke:#000000;stroke-width:0.8;"/>
      </defs>
      <g>
       <use style="stroke:#000000;stroke-width:0.8;" x="34.240625" xlink:href="#m5e44b401b1" y="165.961297"/>
      </g>
     </g>
     <g id="text_8">
      <!-- 0 -->
      <g transform="translate(20.878125 169.760515)scale(0.1 -0.1)">
       <use xlink:href="#DejaVuSans-48"/>
      </g>
     </g>
    </g>
    <g id="ytick_2">
     <g id="line2d_8">
      <g>
       <use style="stroke:#000000;stroke-width:0.8;" x="34.240625" xlink:href="#m5e44b401b1" y="127.302822"/>
      </g>
     </g>
     <g id="text_9">
      <!-- 1 -->
      <g transform="translate(20.878125 131.10204)scale(0.1 -0.1)">
       <use xlink:href="#DejaVuSans-49"/>
      </g>
     </g>
    </g>
    <g id="ytick_3">
     <g id="line2d_9">
      <g>
       <use style="stroke:#000000;stroke-width:0.8;" x="34.240625" xlink:href="#m5e44b401b1" y="88.644347"/>
      </g>
     </g>
     <g id="text_10">
      <!-- 2 -->
      <g transform="translate(20.878125 92.443565)scale(0.1 -0.1)">
       <use xlink:href="#DejaVuSans-50"/>
      </g>
     </g>
    </g>
    <g id="ytick_4">
     <g id="line2d_10">
      <g>
       <use style="stroke:#000000;stroke-width:0.8;" x="34.240625" xlink:href="#m5e44b401b1" y="49.985872"/>
      </g>
     </g>
     <g id="text_11">
      <!-- 3 -->
      <defs>
       <path d="M 40.578125 39.3125 
Q 47.65625 37.796875 51.625 33 
Q 55.609375 28.21875 55.609375 21.1875 
Q 55.609375 10.40625 48.1875 4.484375 
Q 40.765625 -1.421875 27.09375 -1.421875 
Q 22.515625 -1.421875 17.65625 -0.515625 
Q 12.796875 0.390625 7.625 2.203125 
L 7.625 11.71875 
Q 11.71875 9.328125 16.59375 8.109375 
Q 21.484375 6.890625 26.8125 6.890625 
Q 36.078125 6.890625 40.9375 10.546875 
Q 45.796875 14.203125 45.796875 21.1875 
Q 45.796875 27.640625 41.28125 31.265625 
Q 36.765625 34.90625 28.71875 34.90625 
L 20.21875 34.90625 
L 20.21875 43.015625 
L 29.109375 43.015625 
Q 36.375 43.015625 40.234375 45.921875 
Q 44.09375 48.828125 44.09375 54.296875 
Q 44.09375 59.90625 40.109375 62.90625 
Q 36.140625 65.921875 28.71875 65.921875 
Q 24.65625 65.921875 20.015625 65.03125 
Q 15.375 64.15625 9.8125 62.3125 
L 9.8125 71.09375 
Q 15.4375 72.65625 20.34375 73.4375 
Q 25.25 74.21875 29.59375 74.21875 
Q 40.828125 74.21875 47.359375 69.109375 
Q 53.90625 64.015625 53.90625 55.328125 
Q 53.90625 49.265625 50.4375 45.09375 
Q 46.96875 40.921875 40.578125 39.3125 
z
" id="DejaVuSans-51"/>
      </defs>
      <g transform="translate(20.878125 53.78509)scale(0.1 -0.1)">
       <use xlink:href="#DejaVuSans-51"/>
      </g>
     </g>
    </g>
    <g id="ytick_5">
     <g id="line2d_11">
      <g>
       <use style="stroke:#000000;stroke-width:0.8;" x="34.240625" xlink:href="#m5e44b401b1" y="11.327397"/>
      </g>
     </g>
     <g id="text_12">
      <!-- 4 -->
      <defs>
       <path d="M 37.796875 64.3125 
L 12.890625 25.390625 
L 37.796875 25.390625 
z
M 35.203125 72.90625 
L 47.609375 72.90625 
L 47.609375 25.390625 
L 58.015625 25.390625 
L 58.015625 17.1875 
L 47.609375 17.1875 
L 47.609375 0 
L 37.796875 0 
L 37.796875 17.1875 
L 4.890625 17.1875 
L 4.890625 26.703125 
z
" id="DejaVuSans-52"/>
      </defs>
      <g transform="translate(20.878125 15.126615)scale(0.1 -0.1)">
       <use xlink:href="#DejaVuSans-52"/>
      </g>
     </g>
    </g>
    <g id="text_13">
     <!-- precipitation [mm/hour] -->
     <defs>
      <path d="M 18.109375 8.203125 
L 18.109375 -20.796875 
L 9.078125 -20.796875 
L 9.078125 54.6875 
L 18.109375 54.6875 
L 18.109375 46.390625 
Q 20.953125 51.265625 25.265625 53.625 
Q 29.59375 56 35.59375 56 
Q 45.5625 56 51.78125 48.09375 
Q 58.015625 40.1875 58.015625 27.296875 
Q 58.015625 14.40625 51.78125 6.484375 
Q 45.5625 -1.421875 35.59375 -1.421875 
Q 29.59375 -1.421875 25.265625 0.953125 
Q 20.953125 3.328125 18.109375 8.203125 
z
M 48.6875 27.296875 
Q 48.6875 37.203125 44.609375 42.84375 
Q 40.53125 48.484375 33.40625 48.484375 
Q 26.265625 48.484375 22.1875 42.84375 
Q 18.109375 37.203125 18.109375 27.296875 
Q 18.109375 17.390625 22.1875 11.75 
Q 26.265625 6.109375 33.40625 6.109375 
Q 40.53125 6.109375 44.609375 11.75 
Q 48.6875 17.390625 48.6875 27.296875 
z
" id="DejaVuSans-112"/>
      <path d="M 56.203125 29.59375 
L 56.203125 25.203125 
L 14.890625 25.203125 
Q 15.484375 15.921875 20.484375 11.0625 
Q 25.484375 6.203125 34.421875 6.203125 
Q 39.59375 6.203125 44.453125 7.46875 
Q 49.3125 8.734375 54.109375 11.28125 
L 54.109375 2.78125 
Q 49.265625 0.734375 44.1875 -0.34375 
Q 39.109375 -1.421875 33.890625 -1.421875 
Q 20.796875 -1.421875 13.15625 6.1875 
Q 5.515625 13.8125 5.515625 26.8125 
Q 5.515625 40.234375 12.765625 48.109375 
Q 20.015625 56 32.328125 56 
Q 43.359375 56 49.78125 48.890625 
Q 56.203125 41.796875 56.203125 29.59375 
z
M 47.21875 32.234375 
Q 47.125 39.59375 43.09375 43.984375 
Q 39.0625 48.390625 32.421875 48.390625 
Q 24.90625 48.390625 20.390625 44.140625 
Q 15.875 39.890625 15.1875 32.171875 
z
" id="DejaVuSans-101"/>
      <path d="M 48.78125 52.59375 
L 48.78125 44.1875 
Q 44.96875 46.296875 41.140625 47.34375 
Q 37.3125 48.390625 33.40625 48.390625 
Q 24.65625 48.390625 19.8125 42.84375 
Q 14.984375 37.3125 14.984375 27.296875 
Q 14.984375 17.28125 19.8125 11.734375 
Q 24.65625 6.203125 33.40625 6.203125 
Q 37.3125 6.203125 41.140625 7.25 
Q 44.96875 8.296875 48.78125 10.40625 
L 48.78125 2.09375 
Q 45.015625 0.34375 40.984375 -0.53125 
Q 36.96875 -1.421875 32.421875 -1.421875 
Q 20.0625 -1.421875 12.78125 6.34375 
Q 5.515625 14.109375 5.515625 27.296875 
Q 5.515625 40.671875 12.859375 48.328125 
Q 20.21875 56 33.015625 56 
Q 37.15625 56 41.109375 55.140625 
Q 45.0625 54.296875 48.78125 52.59375 
z
" id="DejaVuSans-99"/>
      <path d="M 9.421875 54.6875 
L 18.40625 54.6875 
L 18.40625 0 
L 9.421875 0 
z
M 9.421875 75.984375 
L 18.40625 75.984375 
L 18.40625 64.59375 
L 9.421875 64.59375 
z
" id="DejaVuSans-105"/>
      <path d="M 18.3125 70.21875 
L 18.3125 54.6875 
L 36.8125 54.6875 
L 36.8125 47.703125 
L 18.3125 47.703125 
L 18.3125 18.015625 
Q 18.3125 11.328125 20.140625 9.421875 
Q 21.96875 7.515625 27.59375 7.515625 
L 36.8125 7.515625 
L 36.8125 0 
L 27.59375 0 
Q 17.1875 0 13.234375 3.875 
Q 9.28125 7.765625 9.28125 18.015625 
L 9.28125 47.703125 
L 2.6875 47.703125 
L 2.6875 54.6875 
L 9.28125 54.6875 
L 9.28125 70.21875 
z
" id="DejaVuSans-116"/>
      <path d="M 34.28125 27.484375 
Q 23.390625 27.484375 19.1875 25 
Q 14.984375 22.515625 14.984375 16.5 
Q 14.984375 11.71875 18.140625 8.90625 
Q 21.296875 6.109375 26.703125 6.109375 
Q 34.1875 6.109375 38.703125 11.40625 
Q 43.21875 16.703125 43.21875 25.484375 
L 43.21875 27.484375 
z
M 52.203125 31.203125 
L 52.203125 0 
L 43.21875 0 
L 43.21875 8.296875 
Q 40.140625 3.328125 35.546875 0.953125 
Q 30.953125 -1.421875 24.3125 -1.421875 
Q 15.921875 -1.421875 10.953125 3.296875 
Q 6 8.015625 6 15.921875 
Q 6 25.140625 12.171875 29.828125 
Q 18.359375 34.515625 30.609375 34.515625 
L 43.21875 34.515625 
L 43.21875 35.40625 
Q 43.21875 41.609375 39.140625 45 
Q 35.0625 48.390625 27.6875 48.390625 
Q 23 48.390625 18.546875 47.265625 
Q 14.109375 46.140625 10.015625 43.890625 
L 10.015625 52.203125 
Q 14.9375 54.109375 19.578125 55.046875 
Q 24.21875 56 28.609375 56 
Q 40.484375 56 46.34375 49.84375 
Q 52.203125 43.703125 52.203125 31.203125 
z
" id="DejaVuSans-97"/>
      <path d="M 54.890625 33.015625 
L 54.890625 0 
L 45.90625 0 
L 45.90625 32.71875 
Q 45.90625 40.484375 42.875 44.328125 
Q 39.84375 48.1875 33.796875 48.1875 
Q 26.515625 48.1875 22.3125 43.546875 
Q 18.109375 38.921875 18.109375 30.90625 
L 18.109375 0 
L 9.078125 0 
L 9.078125 54.6875 
L 18.109375 54.6875 
L 18.109375 46.1875 
Q 21.34375 51.125 25.703125 53.5625 
Q 30.078125 56 35.796875 56 
Q 45.21875 56 50.046875 50.171875 
Q 54.890625 44.34375 54.890625 33.015625 
z
" id="DejaVuSans-110"/>
      <path id="DejaVuSans-32"/>
      <path d="M 8.59375 75.984375 
L 29.296875 75.984375 
L 29.296875 69 
L 17.578125 69 
L 17.578125 -6.203125 
L 29.296875 -6.203125 
L 29.296875 -13.1875 
L 8.59375 -13.1875 
z
" id="DejaVuSans-91"/>
      <path d="M 52 44.1875 
Q 55.375 50.25 60.0625 53.125 
Q 64.75 56 71.09375 56 
Q 79.640625 56 84.28125 50.015625 
Q 88.921875 44.046875 88.921875 33.015625 
L 88.921875 0 
L 79.890625 0 
L 79.890625 32.71875 
Q 79.890625 40.578125 77.09375 44.375 
Q 74.3125 48.1875 68.609375 48.1875 
Q 61.625 48.1875 57.5625 43.546875 
Q 53.515625 38.921875 53.515625 30.90625 
L 53.515625 0 
L 44.484375 0 
L 44.484375 32.71875 
Q 44.484375 40.625 41.703125 44.40625 
Q 38.921875 48.1875 33.109375 48.1875 
Q 26.21875 48.1875 22.15625 43.53125 
Q 18.109375 38.875 18.109375 30.90625 
L 18.109375 0 
L 9.078125 0 
L 9.078125 54.6875 
L 18.109375 54.6875 
L 18.109375 46.1875 
Q 21.1875 51.21875 25.484375 53.609375 
Q 29.78125 56 35.6875 56 
Q 41.65625 56 45.828125 52.96875 
Q 50 49.953125 52 44.1875 
z
" id="DejaVuSans-109"/>
      <path d="M 25.390625 72.90625 
L 33.6875 72.90625 
L 8.296875 -9.28125 
L 0 -9.28125 
z
" id="DejaVuSans-47"/>
      <path d="M 30.421875 75.984375 
L 30.421875 -13.1875 
L 9.71875 -13.1875 
L 9.71875 -6.203125 
L 21.390625 -6.203125 
L 21.390625 69 
L 9.71875 69 
L 9.71875 75.984375 
z
" id="DejaVuSans-93"/>
     </defs>
     <g transform="translate(14.798438 150.335781)rotate(-90)scale(0.1 -0.1)">
      <use xlink:href="#DejaVuSans-112"/>
      <use x="63.476562" xlink:href="#DejaVuSans-114"/>
      <use x="104.558594" xlink:href="#DejaVuSans-101"/>
      <use x="166.082031" xlink:href="#DejaVuSans-99"/>
      <use x="221.0625" xlink:href="#DejaVuSans-105"/>
      <use x="248.845703" xlink:href="#DejaVuSans-112"/>
      <use x="312.322266" xlink:href="#DejaVuSans-105"/>
      <use x="340.105469" xlink:href="#DejaVuSans-116"/>
      <use x="379.314453" xlink:href="#DejaVuSans-97"/>
      <use x="440.59375" xlink:href="#DejaVuSans-116"/>
      <use x="479.802734" xlink:href="#DejaVuSans-105"/>
      <use x="507.585938" xlink:href="#DejaVuSans-111"/>
      <use x="568.767578" xlink:href="#DejaVuSans-110"/>
      <use x="632.146484" xlink:href="#DejaVuSans-32"/>
      <use x="663.933594" xlink:href="#DejaVuSans-91"/>
      <use x="702.947266" xlink:href="#DejaVuSans-109"/>
      <use x="800.359375" xlink:href="#DejaVuSans-109"/>
      <use x="897.771484" xlink:href="#DejaVuSans-47"/>
      <use x="931.462891" xlink:href="#DejaVuSans-104"/>
      <use x="994.841797" xlink:href="#DejaVuSans-111"/>
      <use x="1056.023438" xlink:href="#DejaVuSans-117"/>
      <use x="1119.402344" xlink:href="#DejaVuSans-114"/>
      <use x="1160.515625" xlink:href="#DejaVuSans-93"/>
     </g>
    </g>
   </g>
   <g id="line2d_12">
    <path clip-path="url(#p76ecf1e4eb)" d="M 51.99517 160.905123 
L 67.433906 152.071277 
L 82.872641 126.815469 
L 98.311376 133.498817 
L 113.750111 144.965628 
L 129.188846 135.858546 
L 144.627582 142.081308 
L 160.066317 152.185623 
L 175.505052 155.585966 
L 190.943787 160.429982 
L 206.382522 160.185327 
L 221.821257 156.456914 
L 237.259993 164.664782 
L 252.698728 164.065186 
L 268.137463 165.169255 
L 283.576198 165.811511 
L 299.014933 165.881394 
L 314.453668 165.896145 
L 329.892404 165.924358 
L 345.331139 165.943423 
L 360.769874 165.94964 
L 376.208609 165.95629 
L 391.647344 165.957801 
L 407.08608 165.94759 
" style="fill:none;stroke:#1b9e77;stroke-linecap:square;stroke-opacity:0.5;stroke-width:1.5;"/>
   </g>
   <g id="line2d_13">
    <path clip-path="url(#p76ecf1e4eb)" d="M 51.99517 165.242424 
L 67.433906 164.601098 
L 82.872641 155.728744 
L 98.311376 154.805926 
L 113.750111 33.607885 
L 129.188846 129.065401 
L 144.627582 164.267382 
L 160.066317 164.654579 
L 175.505052 160.776659 
L 190.943787 164.199395 
L 206.382522 165.839873 
L 221.821257 165.900107 
L 237.259993 165.874353 
L 252.698728 165.841959 
L 268.137463 165.810057 
L 283.576198 165.832338 
L 299.014933 165.761285 
L 314.453668 165.620128 
L 329.892404 165.449678 
L 345.331139 165.830495 
L 360.769874 165.519488 
L 376.208609 164.399566 
L 391.647344 158.343772 
L 407.08608 165.234754 
" style="fill:none;stroke:#1b9e77;stroke-linecap:square;stroke-opacity:0.5;stroke-width:1.5;"/>
   </g>
   <g id="line2d_14">
    <path clip-path="url(#p76ecf1e4eb)" d="M 51.99517 165.311522 
L 67.433906 160.000289 
L 82.872641 158.721015 
L 98.311376 161.563321 
L 113.750111 163.400762 
L 129.188846 165.084853 
L 144.627582 164.847007 
L 160.066317 164.929454 
L 175.505052 147.049453 
L 190.943787 153.853674 
L 206.382522 153.8613 
L 221.821257 153.161037 
L 237.259993 61.657249 
L 252.698728 144.122655 
L 268.137463 158.606053 
L 283.576198 165.649132 
L 299.014933 165.466181 
L 314.453668 165.533166 
L 329.892404 165.803694 
L 345.331139 165.884502 
L 360.769874 165.886191 
L 376.208609 165.919318 
L 391.647344 165.940501 
L 407.08608 165.955025 
" style="fill:none;stroke:#1b9e77;stroke-linecap:square;stroke-opacity:0.5;stroke-width:1.5;"/>
   </g>
   <g id="line2d_15">
    <path clip-path="url(#p76ecf1e4eb)" d="M 51.99517 165.731342 
L 67.433906 165.907349 
L 82.872641 158.251876 
L 98.311376 157.129968 
L 113.750111 94.874961 
L 129.188846 111.707359 
L 144.627582 157.184704 
L 160.066317 157.86862 
L 175.505052 150.881665 
L 190.943787 150.824135 
L 206.382522 157.184028 
L 221.821257 154.80746 
L 237.259993 163.252233 
L 252.698728 164.364465 
L 268.137463 165.758252 
L 283.576198 165.801342 
L 299.014933 165.789085 
L 314.453668 165.859433 
L 329.892404 165.912183 
L 345.331139 165.948919 
L 360.769874 165.95162 
L 376.208609 165.944041 
L 391.647344 165.804036 
L 407.08608 165.468281 
" style="fill:none;stroke:#1b9e77;stroke-linecap:square;stroke-opacity:0.5;stroke-width:1.5;"/>
   </g>
   <g id="line2d_16">
    <path clip-path="url(#p76ecf1e4eb)" d="M 51.99517 98.684397 
L 67.433906 108.522699 
L 82.872641 139.035699 
L 98.311376 158.270878 
L 113.750111 162.727406 
L 129.188846 162.727027 
L 144.627582 161.206515 
L 160.066317 164.131913 
L 175.505052 165.389638 
L 190.943787 165.253974 
L 206.382522 164.356612 
L 221.821257 163.992325 
L 237.259993 164.895046 
L 252.698728 165.643485 
L 268.137463 165.713154 
L 283.576198 165.371175 
L 299.014933 163.946511 
L 314.453668 161.225753 
L 329.892404 161.957761 
L 345.331139 161.928824 
L 360.769874 160.111556 
L 376.208609 161.29024 
L 391.647344 163.747475 
L 407.08608 158.077292 
" style="fill:none;stroke:#1b9e77;stroke-linecap:square;stroke-opacity:0.5;stroke-width:1.5;"/>
   </g>
   <g id="line2d_17">
    <path clip-path="url(#p76ecf1e4eb)" d="M 51.99517 165.958449 
L 67.433906 165.95492 
L 82.872641 165.89467 
L 98.311376 165.624701 
L 113.750111 158.635983 
L 129.188846 136.562024 
L 144.627582 141.078829 
L 160.066317 136.828026 
L 175.505052 140.880839 
L 190.943787 148.295518 
L 206.382522 163.636749 
L 221.821257 145.204518 
L 237.259993 138.563489 
L 252.698728 139.86775 
L 268.137463 164.852016 
L 283.576198 165.093279 
L 299.014933 165.160139 
L 314.453668 165.35873 
L 329.892404 165.606372 
L 345.331139 165.77843 
L 360.769874 165.828913 
L 376.208609 165.931604 
L 391.647344 165.953468 
L 407.08608 165.657941 
" style="fill:none;stroke:#1b9e77;stroke-linecap:square;stroke-opacity:0.5;stroke-width:1.5;"/>
   </g>
   <g id="line2d_18">
    <path clip-path="url(#p76ecf1e4eb)" d="M 51.99517 165.852145 
L 67.433906 165.938518 
L 82.872641 165.941165 
L 98.311376 165.95103 
L 113.750111 165.940649 
L 129.188846 165.933726 
L 144.627582 165.884066 
L 160.066317 165.802641 
L 175.505052 161.91471 
L 190.943787 165.682219 
L 206.382522 165.465032 
L 221.821257 163.294133 
L 237.259993 131.363859 
L 252.698728 110.489475 
L 268.137463 164.96413 
L 283.576198 160.805167 
L 299.014933 134.157328 
L 314.453668 162.10782 
L 329.892404 161.728049 
L 345.331139 135.870095 
L 360.769874 152.312109 
L 376.208609 142.111802 
L 391.647344 163.028881 
L 407.08608 165.668608 
" style="fill:none;stroke:#1b9e77;stroke-linecap:square;stroke-opacity:0.5;stroke-width:1.5;"/>
   </g>
   <g id="line2d_19">
    <path clip-path="url(#p76ecf1e4eb)" d="M 51.99517 165.945894 
L 67.433906 165.944258 
L 82.872641 165.951929 
L 98.311376 165.951738 
L 113.750111 165.945295 
L 129.188846 165.938953 
L 144.627582 165.948887 
L 160.066317 165.955576 
L 175.505052 165.956636 
L 190.943787 165.957349 
L 206.382522 165.954902 
L 221.821257 165.954212 
L 237.259993 165.741028 
L 252.698728 162.939965 
L 268.137463 157.128209 
L 283.576198 146.914377 
L 299.014933 131.648096 
L 314.453668 131.622123 
L 329.892404 128.914707 
L 345.331139 127.800474 
L 360.769874 132.456785 
L 376.208609 163.423713 
L 391.647344 162.651532 
L 407.08608 165.560717 
" style="fill:none;stroke:#1b9e77;stroke-linecap:square;stroke-opacity:0.5;stroke-width:1.5;"/>
   </g>
   <g id="line2d_20">
    <path clip-path="url(#p76ecf1e4eb)" d="M 51.99517 151.311234 
L 67.433906 143.010392 
L 82.872641 141.346472 
L 98.311376 153.605949 
L 113.750111 156.691624 
L 129.188846 161.067712 
L 144.627582 161.565644 
L 160.066317 163.938053 
L 175.505052 164.511738 
L 190.943787 162.634701 
L 206.382522 136.514941 
L 221.821257 155.635656 
L 237.259993 154.169247 
L 252.698728 143.393985 
L 268.137463 162.108682 
L 283.576198 161.270954 
L 299.014933 157.491539 
L 314.453668 160.948761 
L 329.892404 163.941544 
L 345.331139 164.392203 
L 360.769874 163.678946 
L 376.208609 164.614711 
L 391.647344 165.094169 
L 407.08608 155.268494 
" style="fill:none;stroke:#1b9e77;stroke-linecap:square;stroke-opacity:0.5;stroke-width:1.5;"/>
   </g>
   <g id="line2d_21">
    <path clip-path="url(#p76ecf1e4eb)" d="M 51.99517 165.30673 
L 67.433906 156.462453 
L 82.872641 129.200673 
L 98.311376 157.846411 
L 113.750111 163.664872 
L 129.188846 163.832197 
L 144.627582 165.160518 
L 160.066317 126.45648 
L 175.505052 95.588446 
L 190.943787 157.894087 
L 206.382522 162.918041 
L 221.821257 161.186979 
L 237.259993 151.493199 
L 252.698728 152.958318 
L 268.137463 165.61098 
L 283.576198 165.626959 
L 299.014933 165.669483 
L 314.453668 165.801172 
L 329.892404 165.881307 
L 345.331139 165.915646 
L 360.769874 165.924106 
L 376.208609 165.94599 
L 391.647344 165.954102 
L 407.08608 165.908208 
" style="fill:none;stroke:#1b9e77;stroke-linecap:square;stroke-opacity:0.5;stroke-width:1.5;"/>
   </g>
   <g id="line2d_22">
    <path clip-path="url(#p76ecf1e4eb)" d="M 51.99517 165.656167 
L 67.433906 165.374022 
L 82.872641 165.49106 
L 98.311376 165.762114 
L 113.750111 165.847157 
L 129.188846 165.875944 
L 144.627582 165.874307 
L 160.066317 165.892013 
L 175.505052 165.9044 
L 190.943787 165.92829 
L 206.382522 165.936805 
L 221.821257 165.941867 
L 237.259993 165.936014 
L 252.698728 165.948151 
L 268.137463 165.51113 
L 283.576198 121.607451 
L 299.014933 143.737932 
L 314.453668 133.89825 
L 329.892404 133.620819 
L 345.331139 145.747315 
L 360.769874 142.562068 
L 376.208609 148.706687 
L 391.647344 151.087593 
L 407.08608 160.359799 
" style="fill:none;stroke:#1b9e77;stroke-linecap:square;stroke-opacity:0.5;stroke-width:1.5;"/>
   </g>
   <g id="line2d_23">
    <path clip-path="url(#p76ecf1e4eb)" d="M 51.99517 165.89876 
L 67.433906 165.87551 
L 82.872641 165.89647 
L 98.311376 165.898017 
L 113.750111 165.468082 
L 129.188846 165.090898 
L 144.627582 87.391954 
L 160.066317 111.756448 
L 175.505052 149.999354 
L 190.943787 153.855822 
L 206.382522 162.946799 
L 221.821257 165.089637 
L 237.259993 156.411373 
L 252.698728 130.229364 
L 268.137463 165.363295 
L 283.576198 165.377512 
L 299.014933 165.160469 
L 314.453668 165.27735 
L 329.892404 165.673335 
L 345.331139 165.839935 
L 360.769874 165.889818 
L 376.208609 165.942188 
L 391.647344 165.955006 
L 407.08608 165.919953 
" style="fill:none;stroke:#1b9e77;stroke-linecap:square;stroke-opacity:0.5;stroke-width:1.5;"/>
   </g>
   <g id="line2d_24">
    <path clip-path="url(#p76ecf1e4eb)" d="M 51.99517 165.858073 
L 67.433906 165.707075 
L 82.872641 165.745412 
L 98.311376 165.792479 
L 113.750111 165.804296 
L 129.188846 165.881957 
L 144.627582 165.908095 
L 160.066317 165.782844 
L 175.505052 163.960349 
L 190.943787 164.921722 
L 206.382522 164.591001 
L 221.821257 154.34885 
L 237.259993 139.033109 
L 252.698728 133.494225 
L 268.137463 162.795174 
L 283.576198 165.644154 
L 299.014933 165.648973 
L 314.453668 144.180041 
L 329.892404 140.344961 
L 345.331139 138.211166 
L 360.769874 142.9337 
L 376.208609 143.53826 
L 391.647344 156.491717 
L 407.08608 161.589722 
" style="fill:none;stroke:#1b9e77;stroke-linecap:square;stroke-opacity:0.5;stroke-width:1.5;"/>
   </g>
   <g id="line2d_25">
    <path clip-path="url(#p76ecf1e4eb)" d="M 51.99517 150.451043 
L 67.433906 127.537521 
L 82.872641 129.665938 
L 98.311376 151.77356 
L 113.750111 158.617336 
L 129.188846 163.22407 
L 144.627582 164.870103 
L 160.066317 165.245183 
L 175.505052 165.247726 
L 190.943787 165.771534 
L 206.382522 165.87724 
L 221.821257 165.828764 
L 237.259993 165.588751 
L 252.698728 163.605933 
L 268.137463 147.763914 
L 283.576198 105.425946 
L 299.014933 158.552769 
L 314.453668 165.377841 
L 329.892404 164.986125 
L 345.331139 164.825559 
L 360.769874 165.399934 
L 376.208609 164.708051 
L 391.647344 162.722158 
L 407.08608 165.14035 
" style="fill:none;stroke:#1b9e77;stroke-linecap:square;stroke-opacity:0.5;stroke-width:1.5;"/>
   </g>
   <g id="line2d_26">
    <path clip-path="url(#p76ecf1e4eb)" d="M 51.99517 161.604978 
L 67.433906 164.801386 
L 82.872641 165.662269 
L 98.311376 165.302869 
L 113.750111 165.382983 
L 129.188846 165.370133 
L 144.627582 164.754287 
L 160.066317 164.60566 
L 175.505052 162.164329 
L 190.943787 145.486942 
L 206.382522 159.449195 
L 221.821257 156.160809 
L 237.259993 148.642954 
L 252.698728 157.410993 
L 268.137463 155.163471 
L 283.576198 142.905363 
L 299.014933 123.224058 
L 314.453668 160.022512 
L 329.892404 160.651619 
L 345.331139 154.272857 
L 360.769874 140.64081 
L 376.208609 155.712719 
L 391.647344 163.783189 
L 407.08608 165.030976 
" style="fill:none;stroke:#1b9e77;stroke-linecap:square;stroke-opacity:0.5;stroke-width:1.5;"/>
   </g>
   <g id="line2d_27">
    <path clip-path="url(#p76ecf1e4eb)" d="M 51.99517 164.447556 
L 67.433906 159.350047 
L 82.872641 149.164626 
L 98.311376 144.141863 
L 113.750111 124.374839 
L 129.188846 117.472902 
L 144.627582 156.9171 
L 160.066317 164.408714 
L 175.505052 165.80402 
L 190.943787 165.813022 
L 206.382522 165.835766 
L 221.821257 165.882048 
L 237.259993 165.851585 
L 252.698728 165.922035 
L 268.137463 165.63261 
L 283.576198 165.452234 
L 299.014933 159.931267 
L 314.453668 122.046931 
L 329.892404 154.509111 
L 345.331139 162.918394 
L 360.769874 164.98803 
L 376.208609 165.841908 
L 391.647344 165.900859 
L 407.08608 165.599893 
" style="fill:none;stroke:#1b9e77;stroke-linecap:square;stroke-opacity:0.5;stroke-width:1.5;"/>
   </g>
   <g id="line2d_28">
    <path clip-path="url(#p76ecf1e4eb)" d="M 51.99517 165.956804 
L 67.433906 165.954967 
L 82.872641 165.319743 
L 98.311376 161.186561 
L 113.750111 159.575323 
L 129.188846 163.27429 
L 144.627582 157.451188 
L 160.066317 159.689627 
L 175.505052 165.403227 
L 190.943787 165.214116 
L 206.382522 159.996161 
L 221.821257 152.341352 
L 237.259993 133.480052 
L 252.698728 144.903351 
L 268.137463 165.53115 
L 283.576198 144.347487 
L 299.014933 144.188374 
L 314.453668 151.232328 
L 329.892404 152.033722 
L 345.331139 147.260564 
L 360.769874 151.33223 
L 376.208609 161.8424 
L 391.647344 164.846194 
L 407.08608 165.846146 
" style="fill:none;stroke:#1b9e77;stroke-linecap:square;stroke-opacity:0.5;stroke-width:1.5;"/>
   </g>
   <g id="line2d_29">
    <path clip-path="url(#p76ecf1e4eb)" d="M 51.99517 165.452786 
L 67.433906 162.185313 
L 82.872641 120.921207 
L 98.311376 107.71646 
L 113.750111 165.155028 
L 129.188846 165.164013 
L 144.627582 165.586973 
L 160.066317 165.765323 
L 175.505052 165.80518 
L 190.943787 165.843112 
L 206.382522 165.872238 
L 221.821257 165.91307 
L 237.259993 165.935114 
L 252.698728 165.953574 
L 268.137463 165.955249 
L 283.576198 165.931538 
L 299.014933 164.391734 
L 314.453668 160.262504 
L 329.892404 126.230357 
L 345.331139 141.215511 
L 360.769874 153.075222 
L 376.208609 155.619352 
L 391.647344 159.832235 
L 407.08608 162.424251 
" style="fill:none;stroke:#1b9e77;stroke-linecap:square;stroke-opacity:0.5;stroke-width:1.5;"/>
   </g>
   <g id="line2d_30">
    <path clip-path="url(#p76ecf1e4eb)" d="M 51.99517 165.795472 
L 67.433906 165.659316 
L 82.872641 165.738939 
L 98.311376 164.933509 
L 113.750111 164.181961 
L 129.188846 165.715526 
L 144.627582 165.503002 
L 160.066317 160.798521 
L 175.505052 145.115248 
L 190.943787 85.988847 
L 206.382522 131.142902 
L 221.821257 165.138618 
L 237.259993 164.962713 
L 252.698728 157.513259 
L 268.137463 145.953041 
L 283.576198 142.38859 
L 299.014933 162.286096 
L 314.453668 165.287559 
L 329.892404 164.663142 
L 345.331139 159.665627 
L 360.769874 162.524389 
L 376.208609 165.844313 
L 391.647344 165.872764 
L 407.08608 165.534004 
" style="fill:none;stroke:#1b9e77;stroke-linecap:square;stroke-opacity:0.5;stroke-width:1.5;"/>
   </g>
   <g id="line2d_31">
    <path clip-path="url(#p76ecf1e4eb)" d="M 51.99517 165.951205 
L 67.433906 165.942487 
L 82.872641 165.942215 
L 98.311376 165.949769 
L 113.750111 165.947811 
L 129.188846 165.927688 
L 144.627582 165.797128 
L 160.066317 165.873064 
L 175.505052 165.903281 
L 190.943787 165.767847 
L 206.382522 160.069044 
L 221.821257 150.095725 
L 237.259993 145.609684 
L 252.698728 162.981343 
L 268.137463 163.947073 
L 283.576198 149.193009 
L 299.014933 135.084156 
L 314.453668 126.716811 
L 329.892404 148.951462 
L 345.331139 164.436902 
L 360.769874 164.76804 
L 376.208609 135.542204 
L 391.647344 143.187464 
L 407.08608 158.621944 
" style="fill:none;stroke:#1b9e77;stroke-linecap:square;stroke-opacity:0.5;stroke-width:1.5;"/>
   </g>
   <g id="line2d_32">
    <path clip-path="url(#p76ecf1e4eb)" d="M 51.99517 165.716084 
L 67.433906 165.564419 
L 82.872641 165.682742 
L 98.311376 165.771016 
L 113.750111 165.765077 
L 129.188846 165.865928 
L 144.627582 165.92228 
L 160.066317 165.89385 
L 175.505052 165.395013 
L 190.943787 165.649874 
L 206.382522 157.736569 
L 221.821257 57.961365 
L 237.259993 118.310783 
L 252.698728 150.319888 
L 268.137463 162.007558 
L 283.576198 161.671061 
L 299.014933 162.245252 
L 314.453668 165.344401 
L 329.892404 165.903188 
L 345.331139 165.873864 
L 360.769874 163.414688 
L 376.208609 160.929499 
L 391.647344 157.100491 
L 407.08608 162.162474 
" style="fill:none;stroke:#1b9e77;stroke-linecap:square;stroke-opacity:0.5;stroke-width:1.5;"/>
   </g>
   <g id="line2d_33">
    <path clip-path="url(#p76ecf1e4eb)" d="M 51.99517 165.921858 
L 67.433906 165.737296 
L 82.872641 165.843572 
L 98.311376 165.868138 
L 113.750111 165.543007 
L 129.188846 153.781429 
L 144.627582 158.022911 
L 160.066317 145.466693 
L 175.505052 65.936351 
L 190.943787 116.454804 
L 206.382522 163.996076 
L 221.821257 165.495705 
L 237.259993 165.873544 
L 252.698728 163.42907 
L 268.137463 163.758527 
L 283.576198 163.820098 
L 299.014933 165.931726 
L 314.453668 165.93198 
L 329.892404 165.722535 
L 345.331139 165.722533 
L 360.769874 161.520371 
L 376.208609 163.672079 
L 391.647344 160.967877 
L 407.08608 163.789179 
" style="fill:none;stroke:#1b9e77;stroke-linecap:square;stroke-opacity:0.5;stroke-width:1.5;"/>
   </g>
   <g id="line2d_34">
    <path clip-path="url(#p76ecf1e4eb)" d="M 51.99517 165.573052 
L 67.433906 165.583678 
L 82.872641 164.62393 
L 98.311376 165.779493 
L 113.750111 165.862845 
L 129.188846 165.689678 
L 144.627582 164.807209 
L 160.066317 165.270615 
L 175.505052 159.333459 
L 190.943787 160.509751 
L 206.382522 161.092553 
L 221.821257 157.789268 
L 237.259993 161.039352 
L 252.698728 137.584793 
L 268.137463 152.888739 
L 283.576198 159.140702 
L 299.014933 155.883892 
L 314.453668 136.929891 
L 329.892404 99.124071 
L 345.331139 159.378627 
L 360.769874 162.8326 
L 376.208609 160.906596 
L 391.647344 157.361568 
L 407.08608 163.220987 
" style="fill:none;stroke:#1b9e77;stroke-linecap:square;stroke-opacity:0.5;stroke-width:1.5;"/>
   </g>
   <g id="line2d_35">
    <path clip-path="url(#p76ecf1e4eb)" d="M 51.99517 165.94788 
L 67.433906 165.947089 
L 82.872641 165.937296 
L 98.311376 165.560613 
L 113.750111 165.137393 
L 129.188846 164.99764 
L 144.627582 159.899694 
L 160.066317 158.744505 
L 175.505052 156.374892 
L 190.943787 152.330863 
L 206.382522 157.678375 
L 221.821257 157.745496 
L 237.259993 145.981242 
L 252.698728 145.98978 
L 268.137463 153.629652 
L 283.576198 149.418112 
L 299.014933 142.598666 
L 314.453668 140.255892 
L 329.892404 143.178105 
L 345.331139 154.458566 
L 360.769874 159.261844 
L 376.208609 165.631443 
L 391.647344 165.782624 
L 407.08608 165.719696 
" style="fill:none;stroke:#1b9e77;stroke-linecap:square;stroke-opacity:0.5;stroke-width:1.5;"/>
   </g>
   <g id="line2d_36">
    <path clip-path="url(#p76ecf1e4eb)" d="M 51.99517 159.511466 
L 67.433906 157.597837 
L 82.872641 157.863217 
L 98.311376 161.009036 
L 113.750111 161.840036 
L 129.188846 162.002661 
L 144.627582 162.525993 
L 160.066317 163.764793 
L 175.505052 164.48236 
L 190.943787 164.855609 
L 206.382522 165.015288 
L 221.821257 165.208231 
L 237.259993 165.476583 
L 252.698728 165.818772 
L 268.137463 165.854791 
L 283.576198 165.714373 
L 299.014933 165.183676 
L 314.453668 165.157221 
L 329.892404 163.578954 
L 345.331139 101.883343 
L 360.769874 112.109898 
L 376.208609 158.634634 
L 391.647344 158.470057 
L 407.08608 134.648533 
" style="fill:none;stroke:#1b9e77;stroke-linecap:square;stroke-opacity:0.5;stroke-width:1.5;"/>
   </g>
   <g id="line2d_37">
    <path clip-path="url(#p76ecf1e4eb)" d="M 51.99517 162.494236 
L 67.433906 158.546878 
L 82.872641 146.455825 
L 98.311376 103.885631 
L 113.750111 145.290102 
L 129.188846 163.694202 
L 144.627582 164.957038 
L 160.066317 165.242158 
L 175.505052 165.468026 
L 190.943787 165.557421 
L 206.382522 165.754365 
L 221.821257 165.847413 
L 237.259993 165.881987 
L 252.698728 165.924537 
L 268.137463 165.930583 
L 283.576198 165.906245 
L 299.014933 165.650394 
L 314.453668 165.356987 
L 329.892404 143.952923 
L 345.331139 96.335296 
L 360.769874 163.674895 
L 376.208609 165.445274 
L 391.647344 165.334661 
L 407.08608 165.62027 
" style="fill:none;stroke:#1b9e77;stroke-linecap:square;stroke-opacity:0.5;stroke-width:1.5;"/>
   </g>
   <g id="line2d_38">
    <path clip-path="url(#p76ecf1e4eb)" d="M 51.99517 165.911731 
L 67.433906 165.883546 
L 82.872641 165.907563 
L 98.311376 165.93824 
L 113.750111 165.937226 
L 129.188846 165.944854 
L 144.627582 163.254217 
L 160.066317 146.713594 
L 175.505052 153.576849 
L 190.943787 144.174827 
L 206.382522 137.756183 
L 221.821257 147.382667 
L 237.259993 138.131857 
L 252.698728 111.246201 
L 268.137463 139.340997 
L 283.576198 165.504284 
L 299.014933 165.262485 
L 314.453668 165.274175 
L 329.892404 165.632093 
L 345.331139 165.815388 
L 360.769874 165.885338 
L 376.208609 165.897613 
L 391.647344 165.893546 
L 407.08608 165.941878 
" style="fill:none;stroke:#1b9e77;stroke-linecap:square;stroke-opacity:0.5;stroke-width:1.5;"/>
   </g>
   <g id="line2d_39">
    <path clip-path="url(#p76ecf1e4eb)" d="M 51.99517 165.879083 
L 67.433906 165.940728 
L 82.872641 165.954002 
L 98.311376 165.952907 
L 113.750111 165.804248 
L 129.188846 165.675291 
L 144.627582 165.290185 
L 160.066317 148.53579 
L 175.505052 136.482761 
L 190.943787 138.217588 
L 206.382522 106.298284 
L 221.821257 88.904913 
L 237.259993 165.703442 
L 252.698728 165.862445 
L 268.137463 165.911596 
L 283.576198 165.915415 
L 299.014933 165.934172 
L 314.453668 165.951895 
L 329.892404 165.953217 
L 345.331139 165.947492 
L 360.769874 165.897725 
L 376.208609 165.818908 
L 391.647344 165.538069 
L 407.08608 164.837203 
" style="fill:none;stroke:#1b9e77;stroke-linecap:square;stroke-opacity:0.5;stroke-width:1.5;"/>
   </g>
   <g id="line2d_40">
    <path clip-path="url(#p76ecf1e4eb)" d="M 51.99517 165.893049 
L 67.433906 165.83819 
L 82.872641 165.891808 
L 98.311376 165.935174 
L 113.750111 165.945182 
L 129.188846 165.949938 
L 144.627582 165.95141 
L 160.066317 165.94365 
L 175.505052 163.944622 
L 190.943787 162.145821 
L 206.382522 155.861265 
L 221.821257 151.99078 
L 237.259993 154.610648 
L 252.698728 164.558847 
L 268.137463 165.823034 
L 283.576198 163.907034 
L 299.014933 17.164643 
L 314.453668 156.428244 
L 329.892404 162.990491 
L 345.331139 161.880468 
L 360.769874 165.586098 
L 376.208609 164.742973 
L 391.647344 164.741746 
L 407.08608 164.482236 
" style="fill:none;stroke:#1b9e77;stroke-linecap:square;stroke-opacity:0.5;stroke-width:1.5;"/>
   </g>
   <g id="line2d_41">
    <path clip-path="url(#p76ecf1e4eb)" d="M 51.99517 165.942124 
L 67.433906 165.914403 
L 82.872641 165.81972 
L 98.311376 160.665112 
L 113.750111 161.154759 
L 129.188846 160.270249 
L 144.627582 145.656379 
L 160.066317 156.392724 
L 175.505052 164.498042 
L 190.943787 165.450713 
L 206.382522 164.080679 
L 221.821257 165.763667 
L 237.259993 165.180543 
L 252.698728 128.345387 
L 268.137463 156.181679 
L 283.576198 131.017402 
L 299.014933 141.324586 
L 314.453668 159.876394 
L 329.892404 145.581987 
L 345.331139 149.625724 
L 360.769874 153.885095 
L 376.208609 164.287925 
L 391.647344 165.480779 
L 407.08608 165.811281 
" style="fill:none;stroke:#1b9e77;stroke-linecap:square;stroke-opacity:0.5;stroke-width:1.5;"/>
   </g>
   <g id="line2d_42">
    <path clip-path="url(#p76ecf1e4eb)" d="M 51.99517 165.936628 
L 67.433906 165.92637 
L 82.872641 165.940542 
L 98.311376 165.953095 
L 113.750111 165.952759 
L 129.188846 165.954461 
L 144.627582 164.167013 
L 160.066317 150.747195 
L 175.505052 159.859247 
L 190.943787 160.154398 
L 206.382522 162.552233 
L 221.821257 164.544723 
L 237.259993 165.488088 
L 252.698728 165.681936 
L 268.137463 165.528915 
L 283.576198 163.342695 
L 299.014933 137.997005 
L 314.453668 84.591824 
L 329.892404 126.196444 
L 345.331139 149.727089 
L 360.769874 159.247736 
L 376.208609 163.26829 
L 391.647344 164.22641 
L 407.08608 165.222256 
" style="fill:none;stroke:#1b9e77;stroke-linecap:square;stroke-opacity:0.5;stroke-width:1.5;"/>
   </g>
   <g id="line2d_43">
    <path clip-path="url(#p76ecf1e4eb)" d="M 51.99517 165.867319 
L 67.433906 165.831823 
L 82.872641 165.789648 
L 98.311376 165.873984 
L 113.750111 165.647562 
L 129.188846 164.584166 
L 144.627582 147.900486 
L 160.066317 156.323652 
L 175.505052 164.505322 
L 190.943787 165.464144 
L 206.382522 165.689121 
L 221.821257 165.191459 
L 237.259993 141.509284 
L 252.698728 35.846043 
L 268.137463 153.959874 
L 283.576198 163.472965 
L 299.014933 163.299001 
L 314.453668 162.175903 
L 329.892404 161.903059 
L 345.331139 164.342482 
L 360.769874 165.656534 
L 376.208609 165.830904 
L 391.647344 165.847005 
L 407.08608 165.695623 
" style="fill:none;stroke:#1b9e77;stroke-linecap:square;stroke-opacity:0.5;stroke-width:1.5;"/>
   </g>
   <g id="line2d_44">
    <path clip-path="url(#p76ecf1e4eb)" d="M 51.99517 31.869375 
L 67.433906 119.267331 
L 82.872641 155.688413 
L 98.311376 156.412064 
L 113.750111 161.246578 
L 129.188846 163.390027 
L 144.627582 165.199509 
L 160.066317 165.706925 
L 175.505052 165.740654 
L 190.943787 165.79714 
L 206.382522 165.850966 
L 221.821257 165.922191 
L 237.259993 165.946969 
L 252.698728 165.945184 
L 268.137463 165.937941 
L 283.576198 165.890851 
L 299.014933 165.84184 
L 314.453668 165.888797 
L 329.892404 165.922795 
L 345.331139 165.927861 
L 360.769874 165.910332 
L 376.208609 165.94081 
L 391.647344 165.920252 
L 407.08608 161.042554 
" style="fill:none;stroke:#1b9e77;stroke-linecap:square;stroke-opacity:0.5;stroke-width:1.5;"/>
   </g>
   <g id="line2d_45">
    <path clip-path="url(#p76ecf1e4eb)" d="M 51.99517 165.653849 
L 67.433906 165.626503 
L 82.872641 165.271361 
L 98.311376 165.580932 
L 113.750111 165.709205 
L 129.188846 164.734043 
L 144.627582 165.202011 
L 160.066317 165.73841 
L 175.505052 164.936608 
L 190.943787 165.205552 
L 206.382522 165.177235 
L 221.821257 164.83809 
L 237.259993 164.707459 
L 252.698728 163.079139 
L 268.137463 162.613972 
L 283.576198 164.950176 
L 299.014933 165.060603 
L 314.453668 163.397724 
L 329.892404 162.384207 
L 345.331139 162.619932 
L 360.769874 164.369392 
L 376.208609 144.234677 
L 391.647344 117.610045 
L 407.08608 49.506224 
" style="fill:none;stroke:#1b9e77;stroke-linecap:square;stroke-opacity:0.5;stroke-width:1.5;"/>
   </g>
   <g id="line2d_46">
    <path clip-path="url(#p76ecf1e4eb)" d="M 51.99517 165.816392 
L 67.433906 165.744562 
L 82.872641 165.830424 
L 98.311376 165.921988 
L 113.750111 165.942982 
L 129.188846 165.950954 
L 144.627582 165.952481 
L 160.066317 165.955922 
L 175.505052 165.957367 
L 190.943787 165.957583 
L 206.382522 165.95622 
L 221.821257 165.953542 
L 237.259993 165.912384 
L 252.698728 158.430736 
L 268.137463 119.118842 
L 283.576198 130.106678 
L 299.014933 141.858586 
L 314.453668 141.743167 
L 329.892404 137.004502 
L 345.331139 127.97987 
L 360.769874 160.737316 
L 376.208609 164.012308 
L 391.647344 164.689919 
L 407.08608 165.672631 
" style="fill:none;stroke:#1b9e77;stroke-linecap:square;stroke-opacity:0.5;stroke-width:1.5;"/>
   </g>
   <g id="line2d_47">
    <path clip-path="url(#p76ecf1e4eb)" d="M 51.99517 165.934197 
L 67.433906 165.740666 
L 82.872641 163.948867 
L 98.311376 157.126724 
L 113.750111 165.438292 
L 129.188846 165.757078 
L 144.627582 165.162003 
L 160.066317 151.055842 
L 175.505052 163.217874 
L 190.943787 153.386673 
L 206.382522 106.222401 
L 221.821257 139.353884 
L 237.259993 102.469317 
L 252.698728 148.319623 
L 268.137463 162.086506 
L 283.576198 165.899198 
L 299.014933 165.700642 
L 314.453668 165.792393 
L 329.892404 165.905224 
L 345.331139 165.928725 
L 360.769874 165.92555 
L 376.208609 165.934323 
L 391.647344 165.944581 
L 407.08608 165.956771 
" style="fill:none;stroke:#1b9e77;stroke-linecap:square;stroke-opacity:0.5;stroke-width:1.5;"/>
   </g>
   <g id="line2d_48">
    <path clip-path="url(#p76ecf1e4eb)" d="M 51.99517 165.357589 
L 67.433906 165.781553 
L 82.872641 158.885197 
L 98.311376 161.455767 
L 113.750111 136.481834 
L 129.188846 78.293097 
L 144.627582 150.055563 
L 160.066317 141.655319 
L 175.505052 165.149286 
L 190.943787 164.534893 
L 206.382522 164.832255 
L 221.821257 157.478472 
L 237.259993 165.348012 
L 252.698728 165.936892 
L 268.137463 165.930337 
L 283.576198 165.94502 
L 299.014933 164.366396 
L 314.453668 163.255927 
L 329.892404 161.767736 
L 345.331139 165.485777 
L 360.769874 162.637308 
L 376.208609 149.717902 
L 391.647344 163.095795 
L 407.08608 164.75943 
" style="fill:none;stroke:#1b9e77;stroke-linecap:square;stroke-opacity:0.5;stroke-width:1.5;"/>
   </g>
   <g id="line2d_49">
    <path clip-path="url(#p76ecf1e4eb)" d="M 51.99517 165.346361 
L 67.433906 164.944858 
L 82.872641 165.413084 
L 98.311376 165.80588 
L 113.750111 165.892865 
L 129.188846 165.925681 
L 144.627582 165.927688 
L 160.066317 165.939187 
L 175.505052 165.868408 
L 190.943787 163.291305 
L 206.382522 139.443279 
L 221.821257 157.482781 
L 237.259993 163.162004 
L 252.698728 146.215785 
L 268.137463 89.116584 
L 283.576198 96.525887 
L 299.014933 164.12816 
L 314.453668 164.008085 
L 329.892404 165.006894 
L 345.331139 165.561937 
L 360.769874 165.686249 
L 376.208609 165.831194 
L 391.647344 165.872042 
L 407.08608 165.811157 
" style="fill:none;stroke:#1b9e77;stroke-linecap:square;stroke-opacity:0.5;stroke-width:1.5;"/>
   </g>
   <g id="line2d_50">
    <path clip-path="url(#p76ecf1e4eb)" d="M 51.99517 150.010184 
L 67.433906 149.44046 
L 82.872641 153.652149 
L 98.311376 161.978905 
L 113.750111 164.27828 
L 129.188846 165.336476 
L 144.627582 165.519011 
L 160.066317 165.62801 
L 175.505052 165.660963 
L 190.943787 165.812068 
L 206.382522 165.832272 
L 221.821257 165.792712 
L 237.259993 165.652714 
L 252.698728 165.46696 
L 268.137463 162.615592 
L 283.576198 133.697204 
L 299.014933 119.72472 
L 314.453668 135.19763 
L 329.892404 157.300783 
L 345.331139 153.796043 
L 360.769874 154.155979 
L 376.208609 162.329029 
L 391.647344 165.158812 
L 407.08608 154.170398 
" style="fill:none;stroke:#1b9e77;stroke-linecap:square;stroke-opacity:0.5;stroke-width:1.5;"/>
   </g>
   <g id="line2d_51">
    <path clip-path="url(#p76ecf1e4eb)" d="M 51.99517 165.928632 
L 67.433906 165.921062 
L 82.872641 165.94037 
L 98.311376 165.952746 
L 113.750111 165.952955 
L 129.188846 165.955163 
L 144.627582 165.890734 
L 160.066317 163.463958 
L 175.505052 155.442859 
L 190.943787 149.089729 
L 206.382522 143.401204 
L 221.821257 145.499042 
L 237.259993 148.128874 
L 252.698728 162.52527 
L 268.137463 165.507133 
L 283.576198 165.510045 
L 299.014933 165.682443 
L 314.453668 158.03435 
L 329.892404 157.247038 
L 345.331139 154.590203 
L 360.769874 129.966107 
L 376.208609 122.718152 
L 391.647344 157.440632 
L 407.08608 162.418653 
" style="fill:none;stroke:#1b9e77;stroke-linecap:square;stroke-opacity:0.5;stroke-width:1.5;"/>
   </g>
   <g id="line2d_52">
    <path clip-path="url(#p76ecf1e4eb)" d="M 51.99517 163.448557 
L 67.433906 162.617179 
L 82.872641 163.593152 
L 98.311376 154.676458 
L 113.750111 149.422452 
L 129.188846 132.779726 
L 144.627582 161.05313 
L 160.066317 165.362824 
L 175.505052 165.19352 
L 190.943787 146.111728 
L 206.382522 138.616685 
L 221.821257 148.026138 
L 237.259993 163.189619 
L 252.698728 164.201908 
L 268.137463 161.661962 
L 283.576198 128.890792 
L 299.014933 155.361908 
L 314.453668 165.568068 
L 329.892404 165.414865 
L 345.331139 163.80092 
L 360.769874 159.366513 
L 376.208609 160.763377 
L 391.647344 163.767281 
L 407.08608 165.318591 
" style="fill:none;stroke:#1b9e77;stroke-linecap:square;stroke-opacity:0.5;stroke-width:1.5;"/>
   </g>
   <g id="line2d_53">
    <path clip-path="url(#p76ecf1e4eb)" d="M 51.99517 108.064933 
L 67.433906 112.32432 
L 82.872641 137.821575 
L 98.311376 153.39516 
L 113.750111 159.141963 
L 129.188846 162.305999 
L 144.627582 164.423745 
L 160.066317 165.276664 
L 175.505052 165.491937 
L 190.943787 165.800045 
L 206.382522 165.89499 
L 221.821257 165.909245 
L 237.259993 165.899816 
L 252.698728 165.913184 
L 268.137463 165.924987 
L 283.576198 165.809225 
L 299.014933 165.064455 
L 314.453668 165.735906 
L 329.892404 165.577506 
L 345.331139 165.574242 
L 360.769874 160.539547 
L 376.208609 155.547108 
L 391.647344 151.115108 
L 407.08608 149.655695 
" style="fill:none;stroke:#1b9e77;stroke-linecap:square;stroke-opacity:0.5;stroke-width:1.5;"/>
   </g>
   <g id="line2d_54">
    <path clip-path="url(#p76ecf1e4eb)" d="M 51.99517 159.070448 
L 67.433906 161.522665 
L 82.872641 158.97529 
L 98.311376 157.068477 
L 113.750111 140.876037 
L 129.188846 141.890287 
L 144.627582 135.072031 
L 160.066317 119.562945 
L 175.505052 133.053812 
L 190.943787 156.451443 
L 206.382522 155.747586 
L 221.821257 159.298888 
L 237.259993 164.526251 
L 252.698728 165.749122 
L 268.137463 165.924971 
L 283.576198 165.932304 
L 299.014933 165.922116 
L 314.453668 165.931529 
L 329.892404 165.945075 
L 345.331139 165.956216 
L 360.769874 165.958568 
L 376.208609 165.95976 
L 391.647344 165.955571 
L 407.08608 165.855966 
" style="fill:none;stroke:#1b9e77;stroke-linecap:square;stroke-opacity:0.5;stroke-width:1.5;"/>
   </g>
   <g id="line2d_55">
    <path clip-path="url(#p76ecf1e4eb)" d="M 51.99517 146.829971 
L 67.433906 149.731714 
L 82.872641 149.779811 
L 98.311376 161.240125 
L 113.750111 164.404812 
L 129.188846 165.667286 
L 144.627582 165.80646 
L 160.066317 165.804027 
L 175.505052 165.745036 
L 190.943787 165.523234 
L 206.382522 164.742838 
L 221.821257 165.15609 
L 237.259993 165.378922 
L 252.698728 165.385983 
L 268.137463 165.497965 
L 283.576198 165.267793 
L 299.014933 165.372155 
L 314.453668 165.462194 
L 329.892404 165.311595 
L 345.331139 163.451794 
L 360.769874 153.958976 
L 376.208609 157.516666 
L 391.647344 156.327749 
L 407.08608 48.844156 
" style="fill:none;stroke:#1b9e77;stroke-linecap:square;stroke-opacity:0.5;stroke-width:1.5;"/>
   </g>
   <g id="line2d_56">
    <path clip-path="url(#p76ecf1e4eb)" d="M 51.99517 153.444672 
L 67.433906 124.713435 
L 82.872641 142.014946 
L 98.311376 163.720378 
L 113.750111 164.413016 
L 129.188846 163.557669 
L 144.627582 164.346031 
L 160.066317 165.145864 
L 175.505052 164.657713 
L 190.943787 165.188947 
L 206.382522 165.320125 
L 221.821257 144.052053 
L 237.259993 148.909983 
L 252.698728 163.075728 
L 268.137463 164.397624 
L 283.576198 162.263024 
L 299.014933 156.065304 
L 314.453668 153.363648 
L 329.892404 156.417266 
L 345.331139 163.38936 
L 360.769874 158.815531 
L 376.208609 139.514844 
L 391.647344 158.074017 
L 407.08608 163.346174 
" style="fill:none;stroke:#1b9e77;stroke-linecap:square;stroke-opacity:0.5;stroke-width:1.5;"/>
   </g>
   <g id="line2d_57">
    <path clip-path="url(#p76ecf1e4eb)" d="M 51.99517 134.567593 
L 67.433906 156.480648 
L 82.872641 153.086545 
L 98.311376 116.381488 
L 113.750111 155.230552 
L 129.188846 110.971906 
L 144.627582 146.75289 
L 160.066317 155.207556 
L 175.505052 157.966897 
L 190.943787 162.010282 
L 206.382522 164.144031 
L 221.821257 165.324798 
L 237.259993 165.654892 
L 252.698728 165.807995 
L 268.137463 165.831773 
L 283.576198 165.834894 
L 299.014933 165.817788 
L 314.453668 165.84991 
L 329.892404 165.880309 
L 345.331139 165.906838 
L 360.769874 165.915215 
L 376.208609 165.944975 
L 391.647344 165.951427 
L 407.08608 165.686151 
" style="fill:none;stroke:#1b9e77;stroke-linecap:square;stroke-opacity:0.5;stroke-width:1.5;"/>
   </g>
   <g id="line2d_58">
    <path clip-path="url(#p76ecf1e4eb)" d="M 51.99517 142.033873 
L 67.433906 145.254488 
L 82.872641 155.744341 
L 98.311376 163.622605 
L 113.750111 164.920954 
L 129.188846 164.882586 
L 144.627582 164.198732 
L 160.066317 164.556083 
L 175.505052 164.999399 
L 190.943787 165.43747 
L 206.382522 165.544856 
L 221.821257 165.474088 
L 237.259993 165.37445 
L 252.698728 165.500432 
L 268.137463 165.458228 
L 283.576198 151.50968 
L 299.014933 130.569899 
L 314.453668 164.874867 
L 329.892404 164.866844 
L 345.331139 164.290273 
L 360.769874 163.314736 
L 376.208609 164.264874 
L 391.647344 164.306534 
L 407.08608 77.207069 
" style="fill:none;stroke:#1b9e77;stroke-linecap:square;stroke-opacity:0.5;stroke-width:1.5;"/>
   </g>
   <g id="line2d_59">
    <path clip-path="url(#p76ecf1e4eb)" d="M 51.99517 165.934477 
L 67.433906 165.929853 
L 82.872641 165.43642 
L 98.311376 163.238507 
L 113.750111 164.312737 
L 129.188846 165.869828 
L 144.627582 165.87236 
L 160.066317 165.780843 
L 175.505052 163.09736 
L 190.943787 157.410572 
L 206.382522 160.152455 
L 221.821257 165.520779 
L 237.259993 164.74985 
L 252.698728 135.122162 
L 268.137463 153.51022 
L 283.576198 149.449927 
L 299.014933 123.175771 
L 314.453668 155.635005 
L 329.892404 157.828402 
L 345.331139 136.080143 
L 360.769874 145.467495 
L 376.208609 157.218957 
L 391.647344 158.397131 
L 407.08608 163.016102 
" style="fill:none;stroke:#1b9e77;stroke-linecap:square;stroke-opacity:0.5;stroke-width:1.5;"/>
   </g>
   <g id="line2d_60">
    <path clip-path="url(#p76ecf1e4eb)" d="M 51.99517 165.783219 
L 67.433906 165.070213 
L 82.872641 165.193073 
L 98.311376 165.47615 
L 113.750111 165.617636 
L 129.188846 165.809675 
L 144.627582 165.762311 
L 160.066317 164.864589 
L 175.505052 145.696661 
L 190.943787 142.790654 
L 206.382522 146.858856 
L 221.821257 143.714971 
L 237.259993 90.993656 
L 252.698728 142.767144 
L 268.137463 160.126646 
L 283.576198 153.472935 
L 299.014933 160.809082 
L 314.453668 163.356292 
L 329.892404 165.260867 
L 345.331139 165.489991 
L 360.769874 165.594936 
L 376.208609 165.846924 
L 391.647344 165.924363 
L 407.08608 165.926518 
" style="fill:none;stroke:#1b9e77;stroke-linecap:square;stroke-opacity:0.5;stroke-width:1.5;"/>
   </g>
   <g id="line2d_61">
    <path clip-path="url(#p76ecf1e4eb)" d="M 51.99517 156.660021 
L 67.433906 159.707324 
L 82.872641 164.625498 
L 98.311376 165.296784 
L 113.750111 165.643739 
L 129.188846 165.644028 
L 144.627582 165.776995 
L 160.066317 165.622856 
L 175.505052 165.44924 
L 190.943787 165.630429 
L 206.382522 165.810882 
L 221.821257 165.827262 
L 237.259993 165.796972 
L 252.698728 165.864277 
L 268.137463 165.924123 
L 283.576198 165.945618 
L 299.014933 165.835104 
L 314.453668 165.905858 
L 329.892404 165.905625 
L 345.331139 162.555276 
L 360.769874 94.939968 
L 376.208609 99.924393 
L 391.647344 121.897092 
L 407.08608 156.017989 
" style="fill:none;stroke:#1b9e77;stroke-linecap:square;stroke-opacity:0.5;stroke-width:1.5;"/>
   </g>
   <g id="line2d_62">
    <path clip-path="url(#p76ecf1e4eb)" d="M 51.99517 165.934663 
L 67.433906 165.932603 
L 82.872641 165.948059 
L 98.311376 165.954343 
L 113.750111 165.951911 
L 129.188846 165.948215 
L 144.627582 165.902999 
L 160.066317 165.766863 
L 175.505052 165.606962 
L 190.943787 164.560913 
L 206.382522 161.76115 
L 221.821257 149.593717 
L 237.259993 115.116823 
L 252.698728 110.975104 
L 268.137463 132.567272 
L 283.576198 152.242592 
L 299.014933 161.922746 
L 314.453668 160.190398 
L 329.892404 163.849324 
L 345.331139 165.065209 
L 360.769874 152.593939 
L 376.208609 160.580869 
L 391.647344 159.095031 
L 407.08608 165.145648 
" style="fill:none;stroke:#1b9e77;stroke-linecap:square;stroke-opacity:0.5;stroke-width:1.5;"/>
   </g>
   <g id="line2d_63">
    <path clip-path="url(#p76ecf1e4eb)" d="M 51.99517 165.823079 
L 67.433906 165.61524 
L 82.872641 165.573807 
L 98.311376 165.612638 
L 113.750111 165.506838 
L 129.188846 165.812447 
L 144.627582 164.911974 
L 160.066317 118.904706 
L 175.505052 112.314813 
L 190.943787 155.596212 
L 206.382522 165.63589 
L 221.821257 151.897328 
L 237.259993 145.179861 
L 252.698728 157.456755 
L 268.137463 165.862526 
L 283.576198 165.820655 
L 299.014933 165.77039 
L 314.453668 165.045144 
L 329.892404 156.99494 
L 345.331139 153.632458 
L 360.769874 163.477423 
L 376.208609 161.614375 
L 391.647344 150.104146 
L 407.08608 154.043701 
" style="fill:none;stroke:#1b9e77;stroke-linecap:square;stroke-opacity:0.5;stroke-width:1.5;"/>
   </g>
   <g id="line2d_64">
    <path clip-path="url(#p76ecf1e4eb)" d="M 51.99517 165.006111 
L 67.433906 163.912693 
L 82.872641 163.705092 
L 98.311376 164.955903 
L 113.750111 165.353404 
L 129.188846 165.826937 
L 144.627582 165.902762 
L 160.066317 165.899 
L 175.505052 165.868119 
L 190.943787 165.892863 
L 206.382522 165.90956 
L 221.821257 165.876781 
L 237.259993 165.919361 
L 252.698728 165.931332 
L 268.137463 165.916235 
L 283.576198 165.934755 
L 299.014933 165.885592 
L 314.453668 164.888543 
L 329.892404 165.801296 
L 345.331139 165.749518 
L 360.769874 165.382493 
L 376.208609 162.092691 
L 391.647344 53.332564 
L 407.08608 77.263753 
" style="fill:none;stroke:#1b9e77;stroke-linecap:square;stroke-opacity:0.5;stroke-width:1.5;"/>
   </g>
   <g id="line2d_65">
    <path clip-path="url(#p76ecf1e4eb)" d="M 51.99517 165.768391 
L 67.433906 165.920133 
L 82.872641 165.909102 
L 98.311376 165.942633 
L 113.750111 165.942959 
L 129.188846 165.794289 
L 144.627582 165.817841 
L 160.066317 165.939329 
L 175.505052 165.898063 
L 190.943787 165.908511 
L 206.382522 165.921988 
L 221.821257 165.924155 
L 237.259993 165.928986 
L 252.698728 165.928676 
L 268.137463 165.929509 
L 283.576198 164.425414 
L 299.014933 154.533222 
L 314.453668 154.137331 
L 329.892404 129.884433 
L 345.331139 121.933361 
L 360.769874 131.432008 
L 376.208609 129.263749 
L 391.647344 133.260653 
L 407.08608 160.862619 
" style="fill:none;stroke:#1b9e77;stroke-linecap:square;stroke-opacity:0.5;stroke-width:1.5;"/>
   </g>
   <g id="line2d_66">
    <path clip-path="url(#p76ecf1e4eb)" d="M 51.99517 150.684617 
L 67.433906 155.997379 
L 82.872641 164.845505 
L 98.311376 165.424372 
L 113.750111 165.486006 
L 129.188846 160.883466 
L 144.627582 165.683625 
L 160.066317 165.879257 
L 175.505052 165.829107 
L 190.943787 165.855934 
L 206.382522 165.905159 
L 221.821257 165.922693 
L 237.259993 165.920977 
L 252.698728 165.944021 
L 268.137463 165.950475 
L 283.576198 165.870789 
L 299.014933 159.774879 
L 314.453668 150.98991 
L 329.892404 122.96499 
L 345.331139 137.013486 
L 360.769874 138.414208 
L 376.208609 120.043251 
L 391.647344 154.373821 
L 407.08608 162.549432 
" style="fill:none;stroke:#1b9e77;stroke-linecap:square;stroke-opacity:0.5;stroke-width:1.5;"/>
   </g>
   <g id="line2d_67">
    <path clip-path="url(#p76ecf1e4eb)" d="M 51.99517 155.412808 
L 67.433906 143.55185 
L 82.872641 126.718466 
L 98.311376 122.184364 
L 113.750111 129.511246 
L 129.188846 160.79806 
L 144.627582 164.585779 
L 160.066317 165.627896 
L 175.505052 165.829733 
L 190.943787 165.862572 
L 206.382522 165.911797 
L 221.821257 165.939812 
L 237.259993 165.94858 
L 252.698728 165.955346 
L 268.137463 165.956292 
L 283.576198 165.947382 
L 299.014933 165.727866 
L 314.453668 164.505832 
L 329.892404 160.167802 
L 345.331139 155.958755 
L 360.769874 153.321488 
L 376.208609 154.590515 
L 391.647344 155.19477 
L 407.08608 162.998338 
" style="fill:none;stroke:#1b9e77;stroke-linecap:square;stroke-opacity:0.5;stroke-width:1.5;"/>
   </g>
   <g id="line2d_68">
    <path clip-path="url(#p76ecf1e4eb)" d="M 51.99517 161.369937 
L 67.433906 161.231219 
L 82.872641 162.797835 
L 98.311376 165.376437 
L 113.750111 165.756538 
L 129.188846 165.84786 
L 144.627582 165.635096 
L 160.066317 164.707575 
L 175.505052 160.148136 
L 190.943787 148.147451 
L 206.382522 150.638826 
L 221.821257 160.563999 
L 237.259993 164.649883 
L 252.698728 164.942918 
L 268.137463 164.534882 
L 283.576198 161.336887 
L 299.014933 163.900314 
L 314.453668 163.425697 
L 329.892404 148.795371 
L 345.331139 119.191112 
L 360.769874 122.450009 
L 376.208609 139.419322 
L 391.647344 161.921929 
L 407.08608 161.418123 
" style="fill:none;stroke:#1b9e77;stroke-linecap:square;stroke-opacity:0.5;stroke-width:1.5;"/>
   </g>
   <g id="line2d_69">
    <path clip-path="url(#p76ecf1e4eb)" d="M 51.99517 162.798241 
L 67.433906 159.571025 
L 82.872641 142.175043 
L 98.311376 140.654209 
L 113.750111 143.968988 
L 129.188846 80.037865 
L 144.627582 144.340151 
L 160.066317 151.167068 
L 175.505052 163.531664 
L 190.943787 163.692702 
L 206.382522 165.534872 
L 221.821257 165.792151 
L 237.259993 164.7016 
L 252.698728 163.822845 
L 268.137463 165.510847 
L 283.576198 165.368482 
L 299.014933 165.33888 
L 314.453668 165.452594 
L 329.892404 165.727171 
L 345.331139 165.859171 
L 360.769874 165.890226 
L 376.208609 165.95261 
L 391.647344 165.952918 
L 407.08608 165.366041 
" style="fill:none;stroke:#1b9e77;stroke-linecap:square;stroke-opacity:0.5;stroke-width:1.5;"/>
   </g>
   <g id="line2d_70">
    <path clip-path="url(#p76ecf1e4eb)" d="M 51.99517 156.830266 
L 67.433906 140.687911 
L 82.872641 145.057421 
L 98.311376 163.744865 
L 113.750111 165.527752 
L 129.188846 164.848819 
L 144.627582 165.514398 
L 160.066317 165.702002 
L 175.505052 165.692668 
L 190.943787 165.877811 
L 206.382522 165.916208 
L 221.821257 162.599561 
L 237.259993 159.468702 
L 252.698728 154.413072 
L 268.137463 144.071282 
L 283.576198 143.372014 
L 299.014933 135.134683 
L 314.453668 141.530888 
L 329.892404 139.808807 
L 345.331139 164.900594 
L 360.769874 164.677411 
L 376.208609 164.730886 
L 391.647344 165.611194 
L 407.08608 162.488141 
" style="fill:none;stroke:#1b9e77;stroke-linecap:square;stroke-opacity:0.5;stroke-width:1.5;"/>
   </g>
   <g id="line2d_71">
    <path clip-path="url(#p76ecf1e4eb)" d="M 51.99517 165.870659 
L 67.433906 165.779081 
L 82.872641 165.856749 
L 98.311376 165.922249 
L 113.750111 165.940071 
L 129.188846 165.950029 
L 144.627582 165.945403 
L 160.066317 165.950566 
L 175.505052 165.942539 
L 190.943787 164.576263 
L 206.382522 160.99644 
L 221.821257 158.351331 
L 237.259993 152.878291 
L 252.698728 121.499254 
L 268.137463 135.479335 
L 283.576198 114.787794 
L 299.014933 109.898321 
L 314.453668 164.78909 
L 329.892404 164.757843 
L 345.331139 163.620096 
L 360.769874 165.787139 
L 376.208609 165.889086 
L 391.647344 165.848894 
L 407.08608 165.890823 
" style="fill:none;stroke:#1b9e77;stroke-linecap:square;stroke-opacity:0.5;stroke-width:1.5;"/>
   </g>
   <g id="line2d_72">
    <path clip-path="url(#p76ecf1e4eb)" d="M 51.99517 165.875905 
L 67.433906 165.462531 
L 82.872641 164.971502 
L 98.311376 161.335774 
L 113.750111 159.611284 
L 129.188846 162.720705 
L 144.627582 161.531467 
L 160.066317 161.237183 
L 175.505052 161.411282 
L 190.943787 160.326267 
L 206.382522 159.314872 
L 221.821257 159.212148 
L 237.259993 154.255144 
L 252.698728 157.302217 
L 268.137463 153.828669 
L 283.576198 137.723848 
L 299.014933 149.750311 
L 314.453668 165.218998 
L 329.892404 162.409034 
L 345.331139 161.052335 
L 360.769874 152.623684 
L 376.208609 114.836588 
L 391.647344 153.159701 
L 407.08608 163.035905 
" style="fill:none;stroke:#1b9e77;stroke-linecap:square;stroke-opacity:0.5;stroke-width:1.5;"/>
   </g>
   <g id="line2d_73">
    <path clip-path="url(#p76ecf1e4eb)" d="M 51.99517 165.882137 
L 67.433906 165.349515 
L 82.872641 158.980619 
L 98.311376 148.962396 
L 113.750111 159.679297 
L 129.188846 155.295245 
L 144.627582 155.135672 
L 160.066317 150.157645 
L 175.505052 164.918109 
L 190.943787 165.705304 
L 206.382522 165.825585 
L 221.821257 165.92363 
L 237.259993 165.90964 
L 252.698728 165.075692 
L 268.137463 165.182368 
L 283.576198 164.504436 
L 299.014933 148.989802 
L 314.453668 151.042635 
L 329.892404 152.908728 
L 345.331139 144.427976 
L 360.769874 128.184271 
L 376.208609 140.23013 
L 391.647344 156.692044 
L 407.08608 163.244484 
" style="fill:none;stroke:#1b9e77;stroke-linecap:square;stroke-opacity:0.5;stroke-width:1.5;"/>
   </g>
   <g id="line2d_74">
    <path clip-path="url(#p76ecf1e4eb)" d="M 51.99517 165.808517 
L 67.433906 165.938552 
L 82.872641 165.870775 
L 98.311376 165.751649 
L 113.750111 160.136596 
L 129.188846 78.534911 
L 144.627582 159.908881 
L 160.066317 164.51608 
L 175.505052 165.126827 
L 190.943787 163.60133 
L 206.382522 164.929 
L 221.821257 165.525721 
L 237.259993 165.687032 
L 252.698728 165.852364 
L 268.137463 165.883813 
L 283.576198 165.679002 
L 299.014933 163.761448 
L 314.453668 163.541293 
L 329.892404 143.496005 
L 345.331139 137.143651 
L 360.769874 136.683712 
L 376.208609 150.7698 
L 391.647344 161.265688 
L 407.08608 162.794713 
" style="fill:none;stroke:#1b9e77;stroke-linecap:square;stroke-opacity:0.5;stroke-width:1.5;"/>
   </g>
   <g id="line2d_75">
    <path clip-path="url(#p76ecf1e4eb)" d="M 51.99517 165.784131 
L 67.433906 165.787439 
L 82.872641 165.873804 
L 98.311376 165.933848 
L 113.750111 165.941474 
L 129.188846 165.955092 
L 144.627582 165.922538 
L 160.066317 149.712914 
L 175.505052 141.804803 
L 190.943787 125.787324 
L 206.382522 108.676451 
L 221.821257 140.93879 
L 237.259993 154.939783 
L 252.698728 165.099854 
L 268.137463 165.724345 
L 283.576198 165.106495 
L 299.014933 163.904134 
L 314.453668 165.324182 
L 329.892404 165.660803 
L 345.331139 163.637339 
L 360.769874 158.262853 
L 376.208609 159.898543 
L 391.647344 158.984086 
L 407.08608 153.546332 
" style="fill:none;stroke:#1b9e77;stroke-linecap:square;stroke-opacity:0.5;stroke-width:1.5;"/>
   </g>
   <g id="line2d_76">
    <path clip-path="url(#p76ecf1e4eb)" d="M 51.99517 165.888569 
L 67.433906 165.871393 
L 82.872641 165.898155 
L 98.311376 165.935472 
L 113.750111 165.942242 
L 129.188846 165.949364 
L 144.627582 165.853934 
L 160.066317 164.124336 
L 175.505052 160.129142 
L 190.943787 160.678004 
L 206.382522 119.042665 
L 221.821257 115.15982 
L 237.259993 106.543504 
L 252.698728 132.645678 
L 268.137463 164.46247 
L 283.576198 165.111642 
L 299.014933 165.531129 
L 314.453668 165.1327 
L 329.892404 165.297192 
L 345.331139 165.545194 
L 360.769874 165.657139 
L 376.208609 165.848216 
L 391.647344 164.482339 
L 407.08608 161.477051 
" style="fill:none;stroke:#1b9e77;stroke-linecap:square;stroke-opacity:0.5;stroke-width:1.5;"/>
   </g>
   <g id="line2d_77">
    <path clip-path="url(#p76ecf1e4eb)" d="M 51.99517 148.867643 
L 67.433906 158.664464 
L 82.872641 151.015405 
L 98.311376 134.316858 
L 113.750111 105.534226 
L 129.188846 126.736687 
L 144.627582 157.652726 
L 160.066317 159.059383 
L 175.505052 156.768213 
L 190.943787 155.472719 
L 206.382522 162.220032 
L 221.821257 164.511839 
L 237.259993 165.3478 
L 252.698728 165.625093 
L 268.137463 165.705417 
L 283.576198 165.733805 
L 299.014933 165.737485 
L 314.453668 165.823382 
L 329.892404 165.872502 
L 345.331139 165.895929 
L 360.769874 165.891177 
L 376.208609 165.947728 
L 391.647344 165.948051 
L 407.08608 163.858782 
" style="fill:none;stroke:#1b9e77;stroke-linecap:square;stroke-opacity:0.5;stroke-width:1.5;"/>
   </g>
   <g id="line2d_78">
    <path clip-path="url(#p76ecf1e4eb)" d="M 51.99517 165.950788 
L 67.433906 165.927355 
L 82.872641 164.472041 
L 98.311376 162.908806 
L 113.750111 163.206808 
L 129.188846 165.928488 
L 144.627582 165.830598 
L 160.066317 163.865985 
L 175.505052 165.610956 
L 190.943787 165.706184 
L 206.382522 164.225825 
L 221.821257 164.365631 
L 237.259993 83.924668 
L 252.698728 164.752024 
L 268.137463 165.913557 
L 283.576198 164.72429 
L 299.014933 103.465475 
L 314.453668 144.526097 
L 329.892404 143.300636 
L 345.331139 156.183881 
L 360.769874 165.821583 
L 376.208609 165.799264 
L 391.647344 165.851479 
L 407.08608 165.94494 
" style="fill:none;stroke:#1b9e77;stroke-linecap:square;stroke-opacity:0.5;stroke-width:1.5;"/>
   </g>
   <g id="line2d_79">
    <path clip-path="url(#p76ecf1e4eb)" d="M 51.99517 165.235641 
L 67.433906 158.258768 
L 82.872641 123.113018 
L 98.311376 123.138184 
L 113.750111 153.527155 
L 129.188846 157.20464 
L 144.627582 164.70852 
L 160.066317 165.445034 
L 175.505052 165.430751 
L 190.943787 165.465029 
L 206.382522 164.704075 
L 221.821257 164.541475 
L 237.259993 154.173206 
L 252.698728 152.42385 
L 268.137463 153.449186 
L 283.576198 154.352751 
L 299.014933 151.280134 
L 314.453668 146.929257 
L 329.892404 156.240676 
L 345.331139 165.546721 
L 360.769874 165.779583 
L 376.208609 165.698151 
L 391.647344 165.686019 
L 407.08608 165.875532 
" style="fill:none;stroke:#1b9e77;stroke-linecap:square;stroke-opacity:0.5;stroke-width:1.5;"/>
   </g>
   <g id="line2d_80">
    <path clip-path="url(#p76ecf1e4eb)" d="M 51.99517 165.84043 
L 67.433906 165.759963 
L 82.872641 165.850982 
L 98.311376 165.925065 
L 113.750111 165.942939 
L 129.188846 165.946856 
L 144.627582 165.936734 
L 160.066317 165.936422 
L 175.505052 165.936799 
L 190.943787 165.945976 
L 206.382522 165.942197 
L 221.821257 165.927182 
L 237.259993 165.891083 
L 252.698728 165.721382 
L 268.137463 132.391146 
L 283.576198 135.324383 
L 299.014933 150.594422 
L 314.453668 133.338577 
L 329.892404 92.693791 
L 345.331139 158.031427 
L 360.769874 160.126603 
L 376.208609 162.512079 
L 391.647344 161.945936 
L 407.08608 158.744978 
" style="fill:none;stroke:#1b9e77;stroke-linecap:square;stroke-opacity:0.5;stroke-width:1.5;"/>
   </g>
   <g id="line2d_81">
    <path clip-path="url(#p76ecf1e4eb)" d="M 51.99517 165.904473 
L 67.433906 165.871042 
L 82.872641 165.906246 
L 98.311376 165.93896 
L 113.750111 165.943846 
L 129.188846 165.953667 
L 144.627582 165.921925 
L 160.066317 164.607758 
L 175.505052 160.296543 
L 190.943787 156.468418 
L 206.382522 140.666302 
L 221.821257 137.253302 
L 237.259993 143.137454 
L 252.698728 84.651955 
L 268.137463 150.470355 
L 283.576198 150.304022 
L 299.014933 158.458734 
L 314.453668 165.493886 
L 329.892404 165.695822 
L 345.331139 165.782983 
L 360.769874 165.77879 
L 376.208609 165.869503 
L 391.647344 165.892082 
L 407.08608 165.939288 
" style="fill:none;stroke:#1b9e77;stroke-linecap:square;stroke-opacity:0.5;stroke-width:1.5;"/>
   </g>
   <g id="line2d_82">
    <path clip-path="url(#p76ecf1e4eb)" d="M 51.99517 165.902568 
L 67.433906 165.845542 
L 82.872641 165.894286 
L 98.311376 165.939026 
L 113.750111 165.948621 
L 129.188846 165.952949 
L 144.627582 165.952451 
L 160.066317 165.954581 
L 175.505052 165.923188 
L 190.943787 163.371329 
L 206.382522 145.210182 
L 221.821257 118.396643 
L 237.259993 148.40639 
L 252.698728 159.223809 
L 268.137463 125.024155 
L 283.576198 145.173642 
L 299.014933 134.169047 
L 314.453668 160.332841 
L 329.892404 165.537406 
L 345.331139 164.545245 
L 360.769874 154.961058 
L 376.208609 159.183774 
L 391.647344 165.57663 
L 407.08608 165.781996 
" style="fill:none;stroke:#1b9e77;stroke-linecap:square;stroke-opacity:0.5;stroke-width:1.5;"/>
   </g>
   <g id="line2d_83">
    <path clip-path="url(#p76ecf1e4eb)" d="M 51.99517 165.930994 
L 67.433906 165.894181 
L 82.872641 165.897237 
L 98.311376 165.91952 
L 113.750111 165.928196 
L 129.188846 165.952392 
L 144.627582 165.958573 
L 160.066317 165.957839 
L 175.505052 165.957115 
L 190.943787 165.956781 
L 206.382522 165.956141 
L 221.821257 165.900775 
L 237.259993 165.919537 
L 252.698728 165.956306 
L 268.137463 165.93087 
L 283.576198 165.536649 
L 299.014933 154.989571 
L 314.453668 158.743064 
L 329.892404 139.858996 
L 345.331139 148.750844 
L 360.769874 78.633762 
L 376.208609 108.97182 
L 391.647344 161.082582 
L 407.08608 162.6236 
" style="fill:none;stroke:#1b9e77;stroke-linecap:square;stroke-opacity:0.5;stroke-width:1.5;"/>
   </g>
   <g id="line2d_84">
    <path clip-path="url(#p76ecf1e4eb)" d="M 51.99517 162.644565 
L 67.433906 163.754791 
L 82.872641 160.847409 
L 98.311376 164.779733 
L 113.750111 165.132615 
L 129.188846 165.6792 
L 144.627582 165.904347 
L 160.066317 165.913687 
L 175.505052 165.683023 
L 190.943787 163.450031 
L 206.382522 165.091604 
L 221.821257 165.483358 
L 237.259993 165.100506 
L 252.698728 156.811505 
L 268.137463 157.998564 
L 283.576198 162.263158 
L 299.014933 160.007024 
L 314.453668 161.98744 
L 329.892404 128.560308 
L 345.331139 120.766105 
L 360.769874 157.398307 
L 376.208609 128.267379 
L 391.647344 133.292568 
L 407.08608 161.390131 
" style="fill:none;stroke:#1b9e77;stroke-linecap:square;stroke-opacity:0.5;stroke-width:1.5;"/>
   </g>
   <g id="line2d_85">
    <path clip-path="url(#p76ecf1e4eb)" d="M 51.99517 164.599803 
L 67.433906 67.565355 
L 82.872641 122.446668 
L 98.311376 145.828286 
L 113.750111 148.474344 
L 129.188846 146.567135 
L 144.627582 164.912271 
L 160.066317 165.317522 
L 175.505052 165.518178 
L 190.943787 165.581738 
L 206.382522 165.807998 
L 221.821257 165.894239 
L 237.259993 165.917766 
L 252.698728 165.954493 
L 268.137463 165.957439 
L 283.576198 165.943869 
L 299.014933 165.918911 
L 314.453668 165.897033 
L 329.892404 165.27079 
L 345.331139 163.219009 
L 360.769874 163.466073 
L 376.208609 164.013845 
L 391.647344 163.491088 
L 407.08608 164.643495 
" style="fill:none;stroke:#1b9e77;stroke-linecap:square;stroke-opacity:0.5;stroke-width:1.5;"/>
   </g>
   <g id="line2d_86">
    <path clip-path="url(#p76ecf1e4eb)" d="M 51.99517 143.815585 
L 67.433906 139.660291 
L 82.872641 140.651446 
L 98.311376 154.937237 
L 113.750111 159.346708 
L 129.188846 163.756031 
L 144.627582 165.145263 
L 160.066317 165.388446 
L 175.505052 165.237704 
L 190.943787 165.439275 
L 206.382522 165.660583 
L 221.821257 165.647769 
L 237.259993 165.546898 
L 252.698728 165.0194 
L 268.137463 164.385799 
L 283.576198 164.635712 
L 299.014933 165.062172 
L 314.453668 165.436436 
L 329.892404 165.492447 
L 345.331139 165.527929 
L 360.769874 165.523832 
L 376.208609 165.767209 
L 391.647344 165.463512 
L 407.08608 55.659675 
" style="fill:none;stroke:#1b9e77;stroke-linecap:square;stroke-opacity:0.5;stroke-width:1.5;"/>
   </g>
   <g id="line2d_87">
    <path clip-path="url(#p76ecf1e4eb)" d="M 51.99517 113.490792 
L 67.433906 135.888595 
L 82.872641 153.077 
L 98.311376 163.815498 
L 113.750111 165.186824 
L 129.188846 165.193086 
L 144.627582 164.418907 
L 160.066317 163.817751 
L 175.505052 163.996048 
L 190.943787 164.187559 
L 206.382522 163.949105 
L 221.821257 162.063818 
L 237.259993 159.559048 
L 252.698728 159.132768 
L 268.137463 160.462444 
L 283.576198 160.909096 
L 299.014933 160.335802 
L 314.453668 159.870784 
L 329.892404 160.017212 
L 345.331139 160.824705 
L 360.769874 161.123023 
L 376.208609 164.378418 
L 391.647344 165.293641 
L 407.08608 117.215433 
" style="fill:none;stroke:#1b9e77;stroke-linecap:square;stroke-opacity:0.5;stroke-width:1.5;"/>
   </g>
   <g id="line2d_88">
    <path clip-path="url(#p76ecf1e4eb)" d="M 51.99517 165.912988 
L 67.433906 165.953913 
L 82.872641 165.950504 
L 98.311376 165.940471 
L 113.750111 165.766639 
L 129.188846 158.958079 
L 144.627582 162.749371 
L 160.066317 162.073563 
L 175.505052 158.660955 
L 190.943787 154.420449 
L 206.382522 151.032891 
L 221.821257 131.024582 
L 237.259993 108.870476 
L 252.698728 137.613006 
L 268.137463 153.674809 
L 283.576198 157.804382 
L 299.014933 156.576386 
L 314.453668 154.675308 
L 329.892404 163.356518 
L 345.331139 165.367433 
L 360.769874 165.801461 
L 376.208609 165.709345 
L 391.647344 164.509877 
L 407.08608 165.80395 
" style="fill:none;stroke:#1b9e77;stroke-linecap:square;stroke-opacity:0.5;stroke-width:1.5;"/>
   </g>
   <g id="line2d_89">
    <path clip-path="url(#p76ecf1e4eb)" d="M 51.99517 165.866574 
L 67.433906 165.659227 
L 82.872641 165.675827 
L 98.311376 165.782171 
L 113.750111 165.823012 
L 129.188846 165.919173 
L 144.627582 165.947692 
L 160.066317 165.951544 
L 175.505052 165.951173 
L 190.943787 165.953648 
L 206.382522 165.940043 
L 221.821257 165.679601 
L 237.259993 164.690586 
L 252.698728 165.001661 
L 268.137463 148.209589 
L 283.576198 134.717669 
L 299.014933 146.541323 
L 314.453668 147.815656 
L 329.892404 140.170469 
L 345.331139 145.403979 
L 360.769874 127.774907 
L 376.208609 140.912927 
L 391.647344 156.102602 
L 407.08608 160.716299 
" style="fill:none;stroke:#1b9e77;stroke-linecap:square;stroke-opacity:0.5;stroke-width:1.5;"/>
   </g>
   <g id="line2d_90">
    <path clip-path="url(#p76ecf1e4eb)" d="M 51.99517 156.063937 
L 67.433906 155.736334 
L 82.872641 159.496159 
L 98.311376 163.228398 
L 113.750111 163.904424 
L 129.188846 165.09051 
L 144.627582 165.605306 
L 160.066317 165.766453 
L 175.505052 165.767835 
L 190.943787 165.783885 
L 206.382522 165.775468 
L 221.821257 165.769462 
L 237.259993 165.731804 
L 252.698728 165.56272 
L 268.137463 165.501922 
L 283.576198 165.36181 
L 299.014933 164.540404 
L 314.453668 159.710992 
L 329.892404 144.096748 
L 345.331139 112.735264 
L 360.769874 152.897706 
L 376.208609 160.612424 
L 391.647344 162.865696 
L 407.08608 90.601693 
" style="fill:none;stroke:#1b9e77;stroke-linecap:square;stroke-opacity:0.5;stroke-width:1.5;"/>
   </g>
   <g id="line2d_91">
    <path clip-path="url(#p76ecf1e4eb)" d="M 51.99517 165.959152 
L 67.433906 165.955682 
L 82.872641 165.913603 
L 98.311376 164.954341 
L 113.750111 158.793689 
L 129.188846 145.818493 
L 144.627582 157.222248 
L 160.066317 151.396662 
L 175.505052 130.484709 
L 190.943787 123.86031 
L 206.382522 148.023031 
L 221.821257 153.308013 
L 237.259993 143.411811 
L 252.698728 157.098788 
L 268.137463 161.826917 
L 283.576198 157.664649 
L 299.014933 160.459743 
L 314.453668 163.24836 
L 329.892404 165.728116 
L 345.331139 165.930771 
L 360.769874 165.938281 
L 376.208609 165.75831 
L 391.647344 164.369139 
L 407.08608 165.082542 
" style="fill:none;stroke:#1b9e77;stroke-linecap:square;stroke-opacity:0.5;stroke-width:1.5;"/>
   </g>
   <g id="line2d_92">
    <path clip-path="url(#p76ecf1e4eb)" d="M 51.99517 158.514611 
L 67.433906 156.359469 
L 82.872641 149.461033 
L 98.311376 148.206365 
L 113.750111 138.508792 
L 129.188846 136.253527 
L 144.627582 144.579599 
L 160.066317 152.077815 
L 175.505052 148.16918 
L 190.943787 149.678818 
L 206.382522 156.887422 
L 221.821257 160.203879 
L 237.259993 159.108564 
L 252.698728 157.115009 
L 268.137463 160.71289 
L 283.576198 164.836885 
L 299.014933 165.928233 
L 314.453668 165.890555 
L 329.892404 165.94113 
L 345.331139 165.951818 
L 360.769874 165.952361 
L 376.208609 165.956896 
L 391.647344 165.958858 
L 407.08608 165.953644 
" style="fill:none;stroke:#1b9e77;stroke-linecap:square;stroke-opacity:0.5;stroke-width:1.5;"/>
   </g>
   <g id="line2d_93">
    <path clip-path="url(#p76ecf1e4eb)" d="M 51.99517 150.292383 
L 67.433906 156.101788 
L 82.872641 162.866626 
L 98.311376 164.598208 
L 113.750111 164.504103 
L 129.188846 165.027358 
L 144.627582 165.203043 
L 160.066317 163.927314 
L 175.505052 154.820426 
L 190.943787 164.202758 
L 206.382522 162.226946 
L 221.821257 159.600736 
L 237.259993 160.386987 
L 252.698728 162.933153 
L 268.137463 164.107776 
L 283.576198 164.558276 
L 299.014933 164.449858 
L 314.453668 165.191083 
L 329.892404 165.123722 
L 345.331139 164.068594 
L 360.769874 164.190387 
L 376.208609 160.603997 
L 391.647344 130.183112 
L 407.08608 69.038713 
" style="fill:none;stroke:#1b9e77;stroke-linecap:square;stroke-opacity:0.5;stroke-width:1.5;"/>
   </g>
   <g id="line2d_94">
    <path clip-path="url(#p76ecf1e4eb)" d="M 51.99517 165.84361 
L 67.433906 165.542745 
L 82.872641 165.274565 
L 98.311376 165.443747 
L 113.750111 147.104347 
L 129.188846 143.34102 
L 144.627582 146.545994 
L 160.066317 137.57344 
L 175.505052 131.475867 
L 190.943787 138.334638 
L 206.382522 154.173747 
L 221.821257 159.693439 
L 237.259993 160.630487 
L 252.698728 144.172811 
L 268.137463 154.409417 
L 283.576198 162.999472 
L 299.014933 165.372429 
L 314.453668 165.496412 
L 329.892404 165.784063 
L 345.331139 165.281844 
L 360.769874 165.912628 
L 376.208609 165.930926 
L 391.647344 165.937618 
L 407.08608 165.932082 
" style="fill:none;stroke:#1b9e77;stroke-linecap:square;stroke-opacity:0.5;stroke-width:1.5;"/>
   </g>
   <g id="line2d_95">
    <path clip-path="url(#p76ecf1e4eb)" d="M 51.99517 165.903355 
L 67.433906 165.842666 
L 82.872641 165.88796 
L 98.311376 165.947092 
L 113.750111 165.957147 
L 129.188846 165.959305 
L 144.627582 165.958816 
L 160.066317 165.958386 
L 175.505052 165.95306 
L 190.943787 165.89324 
L 206.382522 163.697443 
L 221.821257 160.549115 
L 237.259993 154.634021 
L 252.698728 147.856123 
L 268.137463 142.993458 
L 283.576198 140.706331 
L 299.014933 147.697247 
L 314.453668 137.127213 
L 329.892404 137.997046 
L 345.331139 141.115372 
L 360.769874 150.767458 
L 376.208609 158.759196 
L 391.647344 162.238171 
L 407.08608 162.808136 
" style="fill:none;stroke:#1b9e77;stroke-linecap:square;stroke-opacity:0.5;stroke-width:1.5;"/>
   </g>
   <g id="line2d_96">
    <path clip-path="url(#p76ecf1e4eb)" d="M 51.99517 165.138134 
L 67.433906 163.886887 
L 82.872641 162.748182 
L 98.311376 162.883954 
L 113.750111 159.622617 
L 129.188846 148.926446 
L 144.627582 161.109043 
L 160.066317 158.572243 
L 175.505052 154.7828 
L 190.943787 155.175444 
L 206.382522 156.609033 
L 221.821257 158.319736 
L 237.259993 155.328344 
L 252.698728 152.877038 
L 268.137463 138.688353 
L 283.576198 124.816881 
L 299.014933 159.403639 
L 314.453668 152.817336 
L 329.892404 157.356586 
L 345.331139 164.12255 
L 360.769874 160.273082 
L 376.208609 163.922152 
L 391.647344 165.122691 
L 407.08608 165.704185 
" style="fill:none;stroke:#1b9e77;stroke-linecap:square;stroke-opacity:0.5;stroke-width:1.5;"/>
   </g>
   <g id="line2d_97">
    <path clip-path="url(#p76ecf1e4eb)" d="M 51.99517 158.875606 
L 67.433906 159.880848 
L 82.872641 157.183669 
L 98.311376 164.558198 
L 113.750111 165.613486 
L 129.188846 165.453626 
L 144.627582 165.614358 
L 160.066317 165.219621 
L 175.505052 158.306674 
L 190.943787 151.841161 
L 206.382522 150.293313 
L 221.821257 133.554692 
L 237.259993 143.937957 
L 252.698728 155.468411 
L 268.137463 150.009709 
L 283.576198 150.602285 
L 299.014933 144.517703 
L 314.453668 137.97614 
L 329.892404 161.157838 
L 345.331139 165.111951 
L 360.769874 165.681637 
L 376.208609 165.783994 
L 391.647344 165.854537 
L 407.08608 165.709938 
" style="fill:none;stroke:#1b9e77;stroke-linecap:square;stroke-opacity:0.5;stroke-width:1.5;"/>
   </g>
   <g id="line2d_98">
    <path clip-path="url(#p76ecf1e4eb)" d="M 51.99517 165.509683 
L 67.433906 165.435687 
L 82.872641 165.708454 
L 98.311376 165.882524 
L 113.750111 165.914366 
L 129.188846 165.941329 
L 144.627582 165.914361 
L 160.066317 165.228125 
L 175.505052 159.511676 
L 190.943787 160.490966 
L 206.382522 158.019032 
L 221.821257 145.092402 
L 237.259993 105.609689 
L 252.698728 79.012503 
L 268.137463 146.434642 
L 283.576198 165.651045 
L 299.014933 165.549866 
L 314.453668 165.687255 
L 329.892404 163.202301 
L 345.331139 165.146592 
L 360.769874 165.816283 
L 376.208609 165.811858 
L 391.647344 165.858966 
L 407.08608 165.777754 
" style="fill:none;stroke:#1b9e77;stroke-linecap:square;stroke-opacity:0.5;stroke-width:1.5;"/>
   </g>
   <g id="line2d_99">
    <path clip-path="url(#p76ecf1e4eb)" d="M 51.99517 165.556395 
L 67.433906 165.346788 
L 82.872641 165.843291 
L 98.311376 165.807883 
L 113.750111 165.789395 
L 129.188846 164.019916 
L 144.627582 151.692821 
L 160.066317 147.777266 
L 175.505052 147.844876 
L 190.943787 145.672032 
L 206.382522 148.880853 
L 221.821257 157.164325 
L 237.259993 162.230558 
L 252.698728 159.282998 
L 268.137463 142.374608 
L 283.576198 136.930199 
L 299.014933 152.32101 
L 314.453668 130.137115 
L 329.892404 164.835071 
L 345.331139 165.477129 
L 360.769874 165.618513 
L 376.208609 165.835538 
L 391.647344 165.897468 
L 407.08608 165.87131 
" style="fill:none;stroke:#1b9e77;stroke-linecap:square;stroke-opacity:0.5;stroke-width:1.5;"/>
   </g>
   <g id="line2d_100">
    <path clip-path="url(#p76ecf1e4eb)" d="M 51.99517 165.896596 
L 67.433906 165.798554 
L 82.872641 165.841811 
L 98.311376 165.915206 
L 113.750111 165.938666 
L 129.188846 165.954168 
L 144.627582 165.956796 
L 160.066317 165.955449 
L 175.505052 165.892917 
L 190.943787 164.268205 
L 206.382522 158.329221 
L 221.821257 149.054597 
L 237.259993 133.266846 
L 252.698728 138.75845 
L 268.137463 146.734625 
L 283.576198 148.301958 
L 299.014933 134.289673 
L 314.453668 117.944738 
L 329.892404 157.218977 
L 345.331139 164.129243 
L 360.769874 165.591703 
L 376.208609 165.570847 
L 391.647344 165.689535 
L 407.08608 165.908571 
" style="fill:none;stroke:#1b9e77;stroke-linecap:square;stroke-opacity:0.5;stroke-width:1.5;"/>
   </g>
   <g id="line2d_101">
    <path clip-path="url(#p76ecf1e4eb)" d="M 51.99517 165.875695 
L 67.433906 165.860783 
L 82.872641 165.927194 
L 98.311376 165.948413 
L 113.750111 165.95347 
L 129.188846 165.951535 
L 144.627582 165.949456 
L 160.066317 165.957779 
L 175.505052 165.958355 
L 190.943787 165.950613 
L 206.382522 165.938213 
L 221.821257 165.917285 
L 237.259993 165.858947 
L 252.698728 135.742538 
L 268.137463 132.442098 
L 283.576198 112.262806 
L 299.014933 158.532555 
L 314.453668 151.541678 
L 329.892404 133.756038 
L 345.331139 123.878117 
L 360.769874 165.794058 
L 376.208609 165.661804 
L 391.647344 165.633064 
L 407.08608 165.91487 
" style="fill:none;stroke:#1b9e77;stroke-linecap:square;stroke-opacity:0.5;stroke-width:1.5;"/>
   </g>
   <g id="line2d_102">
    <path clip-path="url(#p76ecf1e4eb)" d="M 51.99517 147.516406 
L 67.433906 122.327945 
L 82.872641 122.058286 
L 98.311376 129.297877 
L 113.750111 147.950593 
L 129.188846 154.824511 
L 144.627582 153.530429 
L 160.066317 162.870114 
L 175.505052 165.523128 
L 190.943787 161.625818 
L 206.382522 165.332257 
L 221.821257 163.2639 
L 237.259993 160.565531 
L 252.698728 161.86384 
L 268.137463 164.465592 
L 283.576198 164.618319 
L 299.014933 163.828924 
L 314.453668 163.779035 
L 329.892404 164.573784 
L 345.331139 165.469127 
L 360.769874 165.740958 
L 376.208609 165.894088 
L 391.647344 165.919761 
L 407.08608 165.367133 
" style="fill:none;stroke:#1b9e77;stroke-linecap:square;stroke-opacity:0.5;stroke-width:1.5;"/>
   </g>
   <g id="line2d_103">
    <path clip-path="url(#p76ecf1e4eb)" d="M 51.99517 156.282236 
L 67.433906 149.801868 
L 82.872641 131.992725 
L 98.311376 112.51522 
L 113.750111 96.486056 
L 129.188846 150.099289 
L 144.627582 162.855137 
L 160.066317 163.832138 
L 175.505052 163.402614 
L 190.943787 162.348706 
L 206.382522 164.052403 
L 221.821257 165.399565 
L 237.259993 165.542888 
L 252.698728 165.792751 
L 268.137463 165.842094 
L 283.576198 165.704387 
L 299.014933 165.595396 
L 314.453668 165.699381 
L 329.892404 165.825159 
L 345.331139 165.89356 
L 360.769874 165.909012 
L 376.208609 165.949991 
L 391.647344 165.954276 
L 407.08608 165.430492 
" style="fill:none;stroke:#1b9e77;stroke-linecap:square;stroke-opacity:0.5;stroke-width:1.5;"/>
   </g>
   <g id="line2d_104">
    <path clip-path="url(#p76ecf1e4eb)" d="M 51.99517 150.974413 
L 67.433906 147.772267 
L 82.872641 107.309479 
L 98.311376 114.897217 
L 113.750111 155.258489 
L 129.188846 147.497892 
L 144.627582 140.134261 
L 160.066317 161.422013 
L 175.505052 164.315142 
L 190.943787 165.237468 
L 206.382522 165.835893 
L 221.821257 165.572905 
L 237.259993 160.951639 
L 252.698728 162.000291 
L 268.137463 165.857348 
L 283.576198 165.847431 
L 299.014933 165.821903 
L 314.453668 165.855136 
L 329.892404 165.912732 
L 345.331139 165.943863 
L 360.769874 165.951669 
L 376.208609 165.958931 
L 391.647344 165.96 
L 407.08608 165.918965 
" style="fill:none;stroke:#1b9e77;stroke-linecap:square;stroke-opacity:0.5;stroke-width:1.5;"/>
   </g>
   <g id="line2d_105">
    <path clip-path="url(#p76ecf1e4eb)" d="M 51.99517 165.673567 
L 67.433906 165.375784 
L 82.872641 165.008393 
L 98.311376 165.144638 
L 113.750111 165.145985 
L 129.188846 165.618399 
L 144.627582 165.863215 
L 160.066317 165.900668 
L 175.505052 165.850206 
L 190.943787 165.885845 
L 206.382522 165.826926 
L 221.821257 160.096399 
L 237.259993 156.704955 
L 252.698728 149.797841 
L 268.137463 124.001167 
L 283.576198 102.859334 
L 299.014933 102.155615 
L 314.453668 160.286229 
L 329.892404 164.30657 
L 345.331139 165.178051 
L 360.769874 165.245956 
L 376.208609 165.603748 
L 391.647344 165.771642 
L 407.08608 164.906218 
" style="fill:none;stroke:#1b9e77;stroke-linecap:square;stroke-opacity:0.5;stroke-width:1.5;"/>
   </g>
   <g id="line2d_106">
    <path clip-path="url(#p76ecf1e4eb)" d="M 51.99517 153.310327 
L 67.433906 158.29897 
L 82.872641 163.160944 
L 98.311376 155.249848 
L 113.750111 83.712329 
L 129.188846 151.58158 
L 144.627582 160.240364 
L 160.066317 143.807135 
L 175.505052 155.241322 
L 190.943787 165.327947 
L 206.382522 165.4999 
L 221.821257 165.748938 
L 237.259993 159.679397 
L 252.698728 161.132326 
L 268.137463 160.660864 
L 283.576198 164.323251 
L 299.014933 161.885795 
L 314.453668 155.523084 
L 329.892404 157.554965 
L 345.331139 164.370942 
L 360.769874 165.902172 
L 376.208609 165.852355 
L 391.647344 165.604435 
L 407.08608 164.538163 
" style="fill:none;stroke:#1b9e77;stroke-linecap:square;stroke-opacity:0.5;stroke-width:1.5;"/>
   </g>
   <g id="line2d_107">
    <path clip-path="url(#p76ecf1e4eb)" d="M 51.99517 165.095818 
L 67.433906 165.149233 
L 82.872641 165.218757 
L 98.311376 165.736596 
L 113.750111 165.868747 
L 129.188846 165.923706 
L 144.627582 165.927058 
L 160.066317 165.919995 
L 175.505052 165.873715 
L 190.943787 165.868548 
L 206.382522 161.541325 
L 221.821257 122.751743 
L 237.259993 165.327253 
L 252.698728 165.01578 
L 268.137463 165.100362 
L 283.576198 164.479303 
L 299.014933 151.064682 
L 314.453668 164.306892 
L 329.892404 164.916663 
L 345.331139 165.394668 
L 360.769874 165.12271 
L 376.208609 148.835522 
L 391.647344 98.923309 
L 407.08608 108.844968 
" style="fill:none;stroke:#1b9e77;stroke-linecap:square;stroke-opacity:0.5;stroke-width:1.5;"/>
   </g>
   <g id="line2d_108">
    <path clip-path="url(#p76ecf1e4eb)" d="M 51.99517 158.614448 
L 67.433906 152.84459 
L 82.872641 145.213984 
L 98.311376 153.72579 
L 113.750111 160.097172 
L 129.188846 158.963976 
L 144.627582 162.278742 
L 160.066317 163.683925 
L 175.505052 163.366336 
L 190.943787 165.589979 
L 206.382522 165.707002 
L 221.821257 165.182238 
L 237.259993 152.863444 
L 252.698728 145.700551 
L 268.137463 151.061736 
L 283.576198 147.733631 
L 299.014933 155.157167 
L 314.453668 164.886234 
L 329.892404 164.127205 
L 345.331139 142.990244 
L 360.769874 144.143692 
L 376.208609 156.694996 
L 391.647344 163.034102 
L 407.08608 164.546174 
" style="fill:none;stroke:#1b9e77;stroke-linecap:square;stroke-opacity:0.5;stroke-width:1.5;"/>
   </g>
   <g id="line2d_109">
    <path clip-path="url(#p76ecf1e4eb)" d="M 51.99517 162.055765 
L 67.433906 162.3626 
L 82.872641 165.654483 
L 98.311376 165.898014 
L 113.750111 165.850619 
L 129.188846 165.894156 
L 144.627582 165.938363 
L 160.066317 165.945703 
L 175.505052 165.937003 
L 190.943787 165.94631 
L 206.382522 165.954658 
L 221.821257 165.958191 
L 237.259993 165.955374 
L 252.698728 165.950627 
L 268.137463 165.927556 
L 283.576198 165.500422 
L 299.014933 159.947131 
L 314.453668 158.74864 
L 329.892404 157.046053 
L 345.331139 152.145895 
L 360.769874 14.76 
L 376.208609 153.78827 
L 391.647344 161.292754 
L 407.08608 163.748777 
" style="fill:none;stroke:#1b9e77;stroke-linecap:square;stroke-opacity:0.5;stroke-width:1.5;"/>
   </g>
   <g id="line2d_110">
    <path clip-path="url(#p76ecf1e4eb)" d="M 51.99517 150.847401 
L 67.433906 156.31034 
L 82.872641 153.050258 
L 98.311376 144.099536 
L 113.750111 151.663023 
L 129.188846 161.308907 
L 144.627582 165.504078 
L 160.066317 165.692164 
L 175.505052 165.553175 
L 190.943787 160.537917 
L 206.382522 128.447572 
L 221.821257 152.597256 
L 237.259993 164.224925 
L 252.698728 159.34728 
L 268.137463 150.567408 
L 283.576198 135.559764 
L 299.014933 143.152549 
L 314.453668 164.735719 
L 329.892404 165.745077 
L 345.331139 165.792471 
L 360.769874 165.812114 
L 376.208609 165.89569 
L 391.647344 165.930306 
L 407.08608 165.832425 
" style="fill:none;stroke:#1b9e77;stroke-linecap:square;stroke-opacity:0.5;stroke-width:1.5;"/>
   </g>
   <g id="line2d_111">
    <path clip-path="url(#p76ecf1e4eb)" d="M 51.99517 163.999837 
L 67.433906 162.892242 
L 82.872641 156.564652 
L 98.311376 152.003442 
L 113.750111 132.83523 
L 129.188846 156.312153 
L 144.627582 162.954067 
L 160.066317 157.55583 
L 175.505052 118.667694 
L 190.943787 106.616271 
L 206.382522 147.537624 
L 221.821257 160.960665 
L 237.259993 165.467391 
L 252.698728 165.402392 
L 268.137463 165.70141 
L 283.576198 165.799579 
L 299.014933 165.805309 
L 314.453668 165.873698 
L 329.892404 165.908916 
L 345.331139 165.927207 
L 360.769874 165.933783 
L 376.208609 165.945514 
L 391.647344 165.926322 
L 407.08608 165.616128 
" style="fill:none;stroke:#1b9e77;stroke-linecap:square;stroke-opacity:0.5;stroke-width:1.5;"/>
   </g>
   <g id="line2d_112">
    <path clip-path="url(#p76ecf1e4eb)" d="M 51.99517 165.949993 
L 67.433906 165.949993 
L 82.872641 165.819883 
L 98.311376 165.39237 
L 113.750111 165.296432 
L 129.188846 165.846294 
L 144.627582 165.734435 
L 160.066317 165.936497 
L 175.505052 165.949993 
L 190.943787 165.068619 
L 206.382522 165.292049 
L 221.821257 155.170839 
L 237.259993 134.824267 
L 252.698728 138.016001 
L 268.137463 131.283729 
L 283.576198 113.598938 
L 299.014933 124.449804 
L 314.453668 154.309983 
L 329.892404 165.834332 
L 345.331139 165.873677 
L 360.769874 165.930108 
L 376.208609 164.779132 
L 391.647344 165.949993 
L 407.08608 165.949993 
" style="fill:none;stroke:#d95f02;stroke-linecap:square;stroke-width:1.5;"/>
   </g>
   <g id="patch_3">
    <path d="M 34.240625 173.52 
L 34.240625 7.2 
" style="fill:none;stroke:#000000;stroke-linecap:square;stroke-linejoin:miter;stroke-width:0.8;"/>
   </g>
   <g id="patch_4">
    <path d="M 34.240625 173.52 
L 424.840625 173.52 
" style="fill:none;stroke:#000000;stroke-linecap:square;stroke-linejoin:miter;stroke-width:0.8;"/>
   </g>
   <g id="legend_1">
    <g id="patch_5">
     <path d="M 366.673438 29.878125 
L 417.840625 29.878125 
Q 419.840625 29.878125 419.840625 27.878125 
L 419.840625 14.2 
Q 419.840625 12.2 417.840625 12.2 
L 366.673438 12.2 
Q 364.673438 12.2 364.673438 14.2 
L 364.673438 27.878125 
Q 364.673438 29.878125 366.673438 29.878125 
z
" style="fill:#ffffff;opacity:0.8;stroke:#cccccc;stroke-linejoin:miter;"/>
    </g>
    <g id="line2d_113">
     <path d="M 368.673438 20.298438 
L 388.673438 20.298438 
" style="fill:none;stroke:#d95f02;stroke-linecap:square;stroke-width:1.5;"/>
    </g>
    <g id="line2d_114"/>
    <g id="text_14">
     <!-- real -->
     <defs>
      <path d="M 9.421875 75.984375 
L 18.40625 75.984375 
L 18.40625 0 
L 9.421875 0 
z
" id="DejaVuSans-108"/>
     </defs>
     <g transform="translate(396.673438 23.798438)scale(0.1 -0.1)">
      <use xlink:href="#DejaVuSans-114"/>
      <use x="41.082031" xlink:href="#DejaVuSans-101"/>
      <use x="102.605469" xlink:href="#DejaVuSans-97"/>
      <use x="163.884766" xlink:href="#DejaVuSans-108"/>
     </g>
    </g>
   </g>
  </g>
 </g>
 <defs>
  <clipPath id="p76ecf1e4eb">
   <rect height="166.32" width="390.6" x="34.240625" y="7.2"/>
  </clipPath>
 </defs>
</svg>
