<?xml version="1.0" encoding="utf-8" standalone="no"?>
<!DOCTYPE svg PUBLIC "-//W3C//DTD SVG 1.1//EN"
  "http://www.w3.org/Graphics/SVG/1.1/DTD/svg11.dtd">
<!-- Created with matplotlib (https://matplotlib.org/) -->
<svg height="211.07625pt" version="1.1" viewBox="0 0 436.087315 211.07625" width="436.087315pt" xmlns="http://www.w3.org/2000/svg" xmlns:xlink="http://www.w3.org/1999/xlink">
 <defs>
  <style type="text/css">
*{stroke-linecap:butt;stroke-linejoin:round;}
  </style>
 </defs>
 <g id="figure_1">
  <g id="patch_1">
   <path d="M 0 211.07625 
L 436.087315 211.07625 
L 436.087315 0 
L 0 0 
z
" style="fill:#ffffff;"/>
  </g>
  <g id="axes_1">
   <g id="patch_2">
    <path d="M 34.240625 173.52 
L 424.840625 173.52 
L 424.840625 7.2 
L 34.240625 7.2 
z
" style="fill:#ffffff;"/>
   </g>
   <g id="matplotlib.axis_1">
    <g id="xtick_1">
     <g id="line2d_1">
      <defs>
       <path d="M 0 0 
L 0 3.5 
" id="m9706a587d1" style="stroke:#000000;stroke-width:0.8;"/>
      </defs>
      <g>
       <use style="stroke:#000000;stroke-width:0.8;" x="36.556435" xlink:href="#m9706a587d1" y="173.52"/>
      </g>
     </g>
     <g id="text_1">
      <!-- 0 -->
      <defs>
       <path d="M 31.78125 66.40625 
Q 24.171875 66.40625 20.328125 58.90625 
Q 16.5 51.421875 16.5 36.375 
Q 16.5 21.390625 20.328125 13.890625 
Q 24.171875 6.390625 31.78125 6.390625 
Q 39.453125 6.390625 43.28125 13.890625 
Q 47.125 21.390625 47.125 36.375 
Q 47.125 51.421875 43.28125 58.90625 
Q 39.453125 66.40625 31.78125 66.40625 
z
M 31.78125 74.21875 
Q 44.046875 74.21875 50.515625 64.515625 
Q 56.984375 54.828125 56.984375 36.375 
Q 56.984375 17.96875 50.515625 8.265625 
Q 44.046875 -1.421875 31.78125 -1.421875 
Q 19.53125 -1.421875 13.0625 8.265625 
Q 6.59375 17.96875 6.59375 36.375 
Q 6.59375 54.828125 13.0625 64.515625 
Q 19.53125 74.21875 31.78125 74.21875 
z
" id="DejaVuSans-48"/>
      </defs>
      <g transform="translate(33.375185 188.118438)scale(0.1 -0.1)">
       <use xlink:href="#DejaVuSans-48"/>
      </g>
     </g>
    </g>
    <g id="xtick_2">
     <g id="line2d_2">
      <g>
       <use style="stroke:#000000;stroke-width:0.8;" x="113.750111" xlink:href="#m9706a587d1" y="173.52"/>
      </g>
     </g>
     <g id="text_2">
      <!-- 5 -->
      <defs>
       <path d="M 10.796875 72.90625 
L 49.515625 72.90625 
L 49.515625 64.59375 
L 19.828125 64.59375 
L 19.828125 46.734375 
Q 21.96875 47.46875 24.109375 47.828125 
Q 26.265625 48.1875 28.421875 48.1875 
Q 40.625 48.1875 47.75 41.5 
Q 54.890625 34.8125 54.890625 23.390625 
Q 54.890625 11.625 47.5625 5.09375 
Q 40.234375 -1.421875 26.90625 -1.421875 
Q 22.3125 -1.421875 17.546875 -0.640625 
Q 12.796875 0.140625 7.71875 1.703125 
L 7.71875 11.625 
Q 12.109375 9.234375 16.796875 8.0625 
Q 21.484375 6.890625 26.703125 6.890625 
Q 35.15625 6.890625 40.078125 11.328125 
Q 45.015625 15.765625 45.015625 23.390625 
Q 45.015625 31 40.078125 35.4375 
Q 35.15625 39.890625 26.703125 39.890625 
Q 22.75 39.890625 18.8125 39.015625 
Q 14.890625 38.140625 10.796875 36.28125 
z
" id="DejaVuSans-53"/>
      </defs>
      <g transform="translate(110.568861 188.118438)scale(0.1 -0.1)">
       <use xlink:href="#DejaVuSans-53"/>
      </g>
     </g>
    </g>
    <g id="xtick_3">
     <g id="line2d_3">
      <g>
       <use style="stroke:#000000;stroke-width:0.8;" x="190.943787" xlink:href="#m9706a587d1" y="173.52"/>
      </g>
     </g>
     <g id="text_3">
      <!-- 10 -->
      <defs>
       <path d="M 12.40625 8.296875 
L 28.515625 8.296875 
L 28.515625 63.921875 
L 10.984375 60.40625 
L 10.984375 69.390625 
L 28.421875 72.90625 
L 38.28125 72.90625 
L 38.28125 8.296875 
L 54.390625 8.296875 
L 54.390625 0 
L 12.40625 0 
z
" id="DejaVuSans-49"/>
      </defs>
      <g transform="translate(184.581287 188.118438)scale(0.1 -0.1)">
       <use xlink:href="#DejaVuSans-49"/>
       <use x="63.623047" xlink:href="#DejaVuSans-48"/>
      </g>
     </g>
    </g>
    <g id="xtick_4">
     <g id="line2d_4">
      <g>
       <use style="stroke:#000000;stroke-width:0.8;" x="268.137463" xlink:href="#m9706a587d1" y="173.52"/>
      </g>
     </g>
     <g id="text_4">
      <!-- 15 -->
      <g transform="translate(261.774963 188.118438)scale(0.1 -0.1)">
       <use xlink:href="#DejaVuSans-49"/>
       <use x="63.623047" xlink:href="#DejaVuSans-53"/>
      </g>
     </g>
    </g>
    <g id="xtick_5">
     <g id="line2d_5">
      <g>
       <use style="stroke:#000000;stroke-width:0.8;" x="345.331139" xlink:href="#m9706a587d1" y="173.52"/>
      </g>
     </g>
     <g id="text_5">
      <!-- 20 -->
      <defs>
       <path d="M 19.1875 8.296875 
L 53.609375 8.296875 
L 53.609375 0 
L 7.328125 0 
L 7.328125 8.296875 
Q 12.9375 14.109375 22.625 23.890625 
Q 32.328125 33.6875 34.8125 36.53125 
Q 39.546875 41.84375 41.421875 45.53125 
Q 43.3125 49.21875 43.3125 52.78125 
Q 43.3125 58.59375 39.234375 62.25 
Q 35.15625 65.921875 28.609375 65.921875 
Q 23.96875 65.921875 18.8125 64.3125 
Q 13.671875 62.703125 7.8125 59.421875 
L 7.8125 69.390625 
Q 13.765625 71.78125 18.9375 73 
Q 24.125 74.21875 28.421875 74.21875 
Q 39.75 74.21875 46.484375 68.546875 
Q 53.21875 62.890625 53.21875 53.421875 
Q 53.21875 48.921875 51.53125 44.890625 
Q 49.859375 40.875 45.40625 35.40625 
Q 44.1875 33.984375 37.640625 27.21875 
Q 31.109375 20.453125 19.1875 8.296875 
z
" id="DejaVuSans-50"/>
      </defs>
      <g transform="translate(338.968639 188.118438)scale(0.1 -0.1)">
       <use xlink:href="#DejaVuSans-50"/>
       <use x="63.623047" xlink:href="#DejaVuSans-48"/>
      </g>
     </g>
    </g>
    <g id="xtick_6">
     <g id="line2d_6">
      <g>
       <use style="stroke:#000000;stroke-width:0.8;" x="422.524815" xlink:href="#m9706a587d1" y="173.52"/>
      </g>
     </g>
     <g id="text_6">
      <!-- 25 -->
      <g transform="translate(416.162315 188.118438)scale(0.1 -0.1)">
       <use xlink:href="#DejaVuSans-50"/>
       <use x="63.623047" xlink:href="#DejaVuSans-53"/>
      </g>
     </g>
    </g>
    <g id="text_7">
     <!-- hour -->
     <defs>
      <path d="M 54.890625 33.015625 
L 54.890625 0 
L 45.90625 0 
L 45.90625 32.71875 
Q 45.90625 40.484375 42.875 44.328125 
Q 39.84375 48.1875 33.796875 48.1875 
Q 26.515625 48.1875 22.3125 43.546875 
Q 18.109375 38.921875 18.109375 30.90625 
L 18.109375 0 
L 9.078125 0 
L 9.078125 75.984375 
L 18.109375 75.984375 
L 18.109375 46.1875 
Q 21.34375 51.125 25.703125 53.5625 
Q 30.078125 56 35.796875 56 
Q 45.21875 56 50.046875 50.171875 
Q 54.890625 44.34375 54.890625 33.015625 
z
" id="DejaVuSans-104"/>
      <path d="M 30.609375 48.390625 
Q 23.390625 48.390625 19.1875 42.75 
Q 14.984375 37.109375 14.984375 27.296875 
Q 14.984375 17.484375 19.15625 11.84375 
Q 23.34375 6.203125 30.609375 6.203125 
Q 37.796875 6.203125 41.984375 11.859375 
Q 46.1875 17.53125 46.1875 27.296875 
Q 46.1875 37.015625 41.984375 42.703125 
Q 37.796875 48.390625 30.609375 48.390625 
z
M 30.609375 56 
Q 42.328125 56 49.015625 48.375 
Q 55.71875 40.765625 55.71875 27.296875 
Q 55.71875 13.875 49.015625 6.21875 
Q 42.328125 -1.421875 30.609375 -1.421875 
Q 18.84375 -1.421875 12.171875 6.21875 
Q 5.515625 13.875 5.515625 27.296875 
Q 5.515625 40.765625 12.171875 48.375 
Q 18.84375 56 30.609375 56 
z
" id="DejaVuSans-111"/>
      <path d="M 8.5 21.578125 
L 8.5 54.6875 
L 17.484375 54.6875 
L 17.484375 21.921875 
Q 17.484375 14.15625 20.5 10.265625 
Q 23.53125 6.390625 29.59375 6.390625 
Q 36.859375 6.390625 41.078125 11.03125 
Q 45.3125 15.671875 45.3125 23.6875 
L 45.3125 54.6875 
L 54.296875 54.6875 
L 54.296875 0 
L 45.3125 0 
L 45.3125 8.40625 
Q 42.046875 3.421875 37.71875 1 
Q 33.40625 -1.421875 27.6875 -1.421875 
Q 18.265625 -1.421875 13.375 4.4375 
Q 8.5 10.296875 8.5 21.578125 
z
M 31.109375 56 
z
" id="DejaVuSans-117"/>
      <path d="M 41.109375 46.296875 
Q 39.59375 47.171875 37.8125 47.578125 
Q 36.03125 48 33.890625 48 
Q 26.265625 48 22.1875 43.046875 
Q 18.109375 38.09375 18.109375 28.8125 
L 18.109375 0 
L 9.078125 0 
L 9.078125 54.6875 
L 18.109375 54.6875 
L 18.109375 46.1875 
Q 20.953125 51.171875 25.484375 53.578125 
Q 30.03125 56 36.53125 56 
Q 37.453125 56 38.578125 55.875 
Q 39.703125 55.765625 41.0625 55.515625 
z
" id="DejaVuSans-114"/>
     </defs>
     <g transform="translate(218.088281 201.796563)scale(0.1 -0.1)">
      <use xlink:href="#DejaVuSans-104"/>
      <use x="63.378906" xlink:href="#DejaVuSans-111"/>
      <use x="124.560547" xlink:href="#DejaVuSans-117"/>
      <use x="187.939453" xlink:href="#DejaVuSans-114"/>
     </g>
    </g>
   </g>
   <g id="matplotlib.axis_2">
    <g id="ytick_1">
     <g id="line2d_7">
      <defs>
       <path d="M 0 0 
L -3.5 0 
" id="m5ecfad783d" style="stroke:#000000;stroke-width:0.8;"/>
      </defs>
      <g>
       <use style="stroke:#000000;stroke-width:0.8;" x="34.240625" xlink:href="#m5ecfad783d" y="165.963982"/>
      </g>
     </g>
     <g id="text_8">
      <!-- 0 -->
      <g transform="translate(20.878125 169.763201)scale(0.1 -0.1)">
       <use xlink:href="#DejaVuSans-48"/>
      </g>
     </g>
    </g>
    <g id="ytick_2">
     <g id="line2d_8">
      <g>
       <use style="stroke:#000000;stroke-width:0.8;" x="34.240625" xlink:href="#m5ecfad783d" y="135.318807"/>
      </g>
     </g>
     <g id="text_9">
      <!-- 1 -->
      <g transform="translate(20.878125 139.118025)scale(0.1 -0.1)">
       <use xlink:href="#DejaVuSans-49"/>
      </g>
     </g>
    </g>
    <g id="ytick_3">
     <g id="line2d_9">
      <g>
       <use style="stroke:#000000;stroke-width:0.8;" x="34.240625" xlink:href="#m5ecfad783d" y="104.673631"/>
      </g>
     </g>
     <g id="text_10">
      <!-- 2 -->
      <g transform="translate(20.878125 108.47285)scale(0.1 -0.1)">
       <use xlink:href="#DejaVuSans-50"/>
      </g>
     </g>
    </g>
    <g id="ytick_4">
     <g id="line2d_10">
      <g>
       <use style="stroke:#000000;stroke-width:0.8;" x="34.240625" xlink:href="#m5ecfad783d" y="74.028456"/>
      </g>
     </g>
     <g id="text_11">
      <!-- 3 -->
      <defs>
       <path d="M 40.578125 39.3125 
Q 47.65625 37.796875 51.625 33 
Q 55.609375 28.21875 55.609375 21.1875 
Q 55.609375 10.40625 48.1875 4.484375 
Q 40.765625 -1.421875 27.09375 -1.421875 
Q 22.515625 -1.421875 17.65625 -0.515625 
Q 12.796875 0.390625 7.625 2.203125 
L 7.625 11.71875 
Q 11.71875 9.328125 16.59375 8.109375 
Q 21.484375 6.890625 26.8125 6.890625 
Q 36.078125 6.890625 40.9375 10.546875 
Q 45.796875 14.203125 45.796875 21.1875 
Q 45.796875 27.640625 41.28125 31.265625 
Q 36.765625 34.90625 28.71875 34.90625 
L 20.21875 34.90625 
L 20.21875 43.015625 
L 29.109375 43.015625 
Q 36.375 43.015625 40.234375 45.921875 
Q 44.09375 48.828125 44.09375 54.296875 
Q 44.09375 59.90625 40.109375 62.90625 
Q 36.140625 65.921875 28.71875 65.921875 
Q 24.65625 65.921875 20.015625 65.03125 
Q 15.375 64.15625 9.8125 62.3125 
L 9.8125 71.09375 
Q 15.4375 72.65625 20.34375 73.4375 
Q 25.25 74.21875 29.59375 74.21875 
Q 40.828125 74.21875 47.359375 69.109375 
Q 53.90625 64.015625 53.90625 55.328125 
Q 53.90625 49.265625 50.4375 45.09375 
Q 46.96875 40.921875 40.578125 39.3125 
z
" id="DejaVuSans-51"/>
      </defs>
      <g transform="translate(20.878125 77.827675)scale(0.1 -0.1)">
       <use xlink:href="#DejaVuSans-51"/>
      </g>
     </g>
    </g>
    <g id="ytick_5">
     <g id="line2d_11">
      <g>
       <use style="stroke:#000000;stroke-width:0.8;" x="34.240625" xlink:href="#m5ecfad783d" y="43.383281"/>
      </g>
     </g>
     <g id="text_12">
      <!-- 4 -->
      <defs>
       <path d="M 37.796875 64.3125 
L 12.890625 25.390625 
L 37.796875 25.390625 
z
M 35.203125 72.90625 
L 47.609375 72.90625 
L 47.609375 25.390625 
L 58.015625 25.390625 
L 58.015625 17.1875 
L 47.609375 17.1875 
L 47.609375 0 
L 37.796875 0 
L 37.796875 17.1875 
L 4.890625 17.1875 
L 4.890625 26.703125 
z
" id="DejaVuSans-52"/>
      </defs>
      <g transform="translate(20.878125 47.1825)scale(0.1 -0.1)">
       <use xlink:href="#DejaVuSans-52"/>
      </g>
     </g>
    </g>
    <g id="ytick_6">
     <g id="line2d_12">
      <g>
       <use style="stroke:#000000;stroke-width:0.8;" x="34.240625" xlink:href="#m5ecfad783d" y="12.738106"/>
      </g>
     </g>
     <g id="text_13">
      <!-- 5 -->
      <g transform="translate(20.878125 16.537324)scale(0.1 -0.1)">
       <use xlink:href="#DejaVuSans-53"/>
      </g>
     </g>
    </g>
    <g id="text_14">
     <!-- precipitation [mm/hour] -->
     <defs>
      <path d="M 18.109375 8.203125 
L 18.109375 -20.796875 
L 9.078125 -20.796875 
L 9.078125 54.6875 
L 18.109375 54.6875 
L 18.109375 46.390625 
Q 20.953125 51.265625 25.265625 53.625 
Q 29.59375 56 35.59375 56 
Q 45.5625 56 51.78125 48.09375 
Q 58.015625 40.1875 58.015625 27.296875 
Q 58.015625 14.40625 51.78125 6.484375 
Q 45.5625 -1.421875 35.59375 -1.421875 
Q 29.59375 -1.421875 25.265625 0.953125 
Q 20.953125 3.328125 18.109375 8.203125 
z
M 48.6875 27.296875 
Q 48.6875 37.203125 44.609375 42.84375 
Q 40.53125 48.484375 33.40625 48.484375 
Q 26.265625 48.484375 22.1875 42.84375 
Q 18.109375 37.203125 18.109375 27.296875 
Q 18.109375 17.390625 22.1875 11.75 
Q 26.265625 6.109375 33.40625 6.109375 
Q 40.53125 6.109375 44.609375 11.75 
Q 48.6875 17.390625 48.6875 27.296875 
z
" id="DejaVuSans-112"/>
      <path d="M 56.203125 29.59375 
L 56.203125 25.203125 
L 14.890625 25.203125 
Q 15.484375 15.921875 20.484375 11.0625 
Q 25.484375 6.203125 34.421875 6.203125 
Q 39.59375 6.203125 44.453125 7.46875 
Q 49.3125 8.734375 54.109375 11.28125 
L 54.109375 2.78125 
Q 49.265625 0.734375 44.1875 -0.34375 
Q 39.109375 -1.421875 33.890625 -1.421875 
Q 20.796875 -1.421875 13.15625 6.1875 
Q 5.515625 13.8125 5.515625 26.8125 
Q 5.515625 40.234375 12.765625 48.109375 
Q 20.015625 56 32.328125 56 
Q 43.359375 56 49.78125 48.890625 
Q 56.203125 41.796875 56.203125 29.59375 
z
M 47.21875 32.234375 
Q 47.125 39.59375 43.09375 43.984375 
Q 39.0625 48.390625 32.421875 48.390625 
Q 24.90625 48.390625 20.390625 44.140625 
Q 15.875 39.890625 15.1875 32.171875 
z
" id="DejaVuSans-101"/>
      <path d="M 48.78125 52.59375 
L 48.78125 44.1875 
Q 44.96875 46.296875 41.140625 47.34375 
Q 37.3125 48.390625 33.40625 48.390625 
Q 24.65625 48.390625 19.8125 42.84375 
Q 14.984375 37.3125 14.984375 27.296875 
Q 14.984375 17.28125 19.8125 11.734375 
Q 24.65625 6.203125 33.40625 6.203125 
Q 37.3125 6.203125 41.140625 7.25 
Q 44.96875 8.296875 48.78125 10.40625 
L 48.78125 2.09375 
Q 45.015625 0.34375 40.984375 -0.53125 
Q 36.96875 -1.421875 32.421875 -1.421875 
Q 20.0625 -1.421875 12.78125 6.34375 
Q 5.515625 14.109375 5.515625 27.296875 
Q 5.515625 40.671875 12.859375 48.328125 
Q 20.21875 56 33.015625 56 
Q 37.15625 56 41.109375 55.140625 
Q 45.0625 54.296875 48.78125 52.59375 
z
" id="DejaVuSans-99"/>
      <path d="M 9.421875 54.6875 
L 18.40625 54.6875 
L 18.40625 0 
L 9.421875 0 
z
M 9.421875 75.984375 
L 18.40625 75.984375 
L 18.40625 64.59375 
L 9.421875 64.59375 
z
" id="DejaVuSans-105"/>
      <path d="M 18.3125 70.21875 
L 18.3125 54.6875 
L 36.8125 54.6875 
L 36.8125 47.703125 
L 18.3125 47.703125 
L 18.3125 18.015625 
Q 18.3125 11.328125 20.140625 9.421875 
Q 21.96875 7.515625 27.59375 7.515625 
L 36.8125 7.515625 
L 36.8125 0 
L 27.59375 0 
Q 17.1875 0 13.234375 3.875 
Q 9.28125 7.765625 9.28125 18.015625 
L 9.28125 47.703125 
L 2.6875 47.703125 
L 2.6875 54.6875 
L 9.28125 54.6875 
L 9.28125 70.21875 
z
" id="DejaVuSans-116"/>
      <path d="M 34.28125 27.484375 
Q 23.390625 27.484375 19.1875 25 
Q 14.984375 22.515625 14.984375 16.5 
Q 14.984375 11.71875 18.140625 8.90625 
Q 21.296875 6.109375 26.703125 6.109375 
Q 34.1875 6.109375 38.703125 11.40625 
Q 43.21875 16.703125 43.21875 25.484375 
L 43.21875 27.484375 
z
M 52.203125 31.203125 
L 52.203125 0 
L 43.21875 0 
L 43.21875 8.296875 
Q 40.140625 3.328125 35.546875 0.953125 
Q 30.953125 -1.421875 24.3125 -1.421875 
Q 15.921875 -1.421875 10.953125 3.296875 
Q 6 8.015625 6 15.921875 
Q 6 25.140625 12.171875 29.828125 
Q 18.359375 34.515625 30.609375 34.515625 
L 43.21875 34.515625 
L 43.21875 35.40625 
Q 43.21875 41.609375 39.140625 45 
Q 35.0625 48.390625 27.6875 48.390625 
Q 23 48.390625 18.546875 47.265625 
Q 14.109375 46.140625 10.015625 43.890625 
L 10.015625 52.203125 
Q 14.9375 54.109375 19.578125 55.046875 
Q 24.21875 56 28.609375 56 
Q 40.484375 56 46.34375 49.84375 
Q 52.203125 43.703125 52.203125 31.203125 
z
" id="DejaVuSans-97"/>
      <path d="M 54.890625 33.015625 
L 54.890625 0 
L 45.90625 0 
L 45.90625 32.71875 
Q 45.90625 40.484375 42.875 44.328125 
Q 39.84375 48.1875 33.796875 48.1875 
Q 26.515625 48.1875 22.3125 43.546875 
Q 18.109375 38.921875 18.109375 30.90625 
L 18.109375 0 
L 9.078125 0 
L 9.078125 54.6875 
L 18.109375 54.6875 
L 18.109375 46.1875 
Q 21.34375 51.125 25.703125 53.5625 
Q 30.078125 56 35.796875 56 
Q 45.21875 56 50.046875 50.171875 
Q 54.890625 44.34375 54.890625 33.015625 
z
" id="DejaVuSans-110"/>
      <path id="DejaVuSans-32"/>
      <path d="M 8.59375 75.984375 
L 29.296875 75.984375 
L 29.296875 69 
L 17.578125 69 
L 17.578125 -6.203125 
L 29.296875 -6.203125 
L 29.296875 -13.1875 
L 8.59375 -13.1875 
z
" id="DejaVuSans-91"/>
      <path d="M 52 44.1875 
Q 55.375 50.25 60.0625 53.125 
Q 64.75 56 71.09375 56 
Q 79.640625 56 84.28125 50.015625 
Q 88.921875 44.046875 88.921875 33.015625 
L 88.921875 0 
L 79.890625 0 
L 79.890625 32.71875 
Q 79.890625 40.578125 77.09375 44.375 
Q 74.3125 48.1875 68.609375 48.1875 
Q 61.625 48.1875 57.5625 43.546875 
Q 53.515625 38.921875 53.515625 30.90625 
L 53.515625 0 
L 44.484375 0 
L 44.484375 32.71875 
Q 44.484375 40.625 41.703125 44.40625 
Q 38.921875 48.1875 33.109375 48.1875 
Q 26.21875 48.1875 22.15625 43.53125 
Q 18.109375 38.875 18.109375 30.90625 
L 18.109375 0 
L 9.078125 0 
L 9.078125 54.6875 
L 18.109375 54.6875 
L 18.109375 46.1875 
Q 21.1875 51.21875 25.484375 53.609375 
Q 29.78125 56 35.6875 56 
Q 41.65625 56 45.828125 52.96875 
Q 50 49.953125 52 44.1875 
z
" id="DejaVuSans-109"/>
      <path d="M 25.390625 72.90625 
L 33.6875 72.90625 
L 8.296875 -9.28125 
L 0 -9.28125 
z
" id="DejaVuSans-47"/>
      <path d="M 30.421875 75.984375 
L 30.421875 -13.1875 
L 9.71875 -13.1875 
L 9.71875 -6.203125 
L 21.390625 -6.203125 
L 21.390625 69 
L 9.71875 69 
L 9.71875 75.984375 
z
" id="DejaVuSans-93"/>
     </defs>
     <g transform="translate(14.798438 150.335781)rotate(-90)scale(0.1 -0.1)">
      <use xlink:href="#DejaVuSans-112"/>
      <use x="63.476562" xlink:href="#DejaVuSans-114"/>
      <use x="104.558594" xlink:href="#DejaVuSans-101"/>
      <use x="166.082031" xlink:href="#DejaVuSans-99"/>
      <use x="221.0625" xlink:href="#DejaVuSans-105"/>
      <use x="248.845703" xlink:href="#DejaVuSans-112"/>
      <use x="312.322266" xlink:href="#DejaVuSans-105"/>
      <use x="340.105469" xlink:href="#DejaVuSans-116"/>
      <use x="379.314453" xlink:href="#DejaVuSans-97"/>
      <use x="440.59375" xlink:href="#DejaVuSans-116"/>
      <use x="479.802734" xlink:href="#DejaVuSans-105"/>
      <use x="507.585938" xlink:href="#DejaVuSans-111"/>
      <use x="568.767578" xlink:href="#DejaVuSans-110"/>
      <use x="632.146484" xlink:href="#DejaVuSans-32"/>
      <use x="663.933594" xlink:href="#DejaVuSans-91"/>
      <use x="702.947266" xlink:href="#DejaVuSans-109"/>
      <use x="800.359375" xlink:href="#DejaVuSans-109"/>
      <use x="897.771484" xlink:href="#DejaVuSans-47"/>
      <use x="931.462891" xlink:href="#DejaVuSans-104"/>
      <use x="994.841797" xlink:href="#DejaVuSans-111"/>
      <use x="1056.023438" xlink:href="#DejaVuSans-117"/>
      <use x="1119.402344" xlink:href="#DejaVuSans-114"/>
      <use x="1160.515625" xlink:href="#DejaVuSans-93"/>
     </g>
    </g>
   </g>
   <g id="line2d_13">
    <path clip-path="url(#p1698913a7c)" d="M 51.99517 161.684698 
L 67.433906 163.243121 
L 82.872641 164.394042 
L 98.311376 165.108186 
L 113.750111 165.336201 
L 129.188846 165.597321 
L 144.627582 165.748657 
L 160.066317 165.828196 
L 175.505052 165.841153 
L 190.943787 165.877668 
L 206.382522 165.901794 
L 221.821257 165.928216 
L 237.259993 165.938151 
L 252.698728 165.950569 
L 268.137463 165.941156 
L 283.576198 165.07666 
L 299.014933 153.987317 
L 314.453668 135.122594 
L 329.892404 132.99441 
L 345.331139 144.518484 
L 360.769874 129.135867 
L 376.208609 143.4084 
L 391.647344 153.625794 
L 407.08608 163.146769 
" style="fill:none;stroke:#1b9e77;stroke-linecap:square;stroke-opacity:0.5;stroke-width:1.5;"/>
   </g>
   <g id="line2d_14">
    <path clip-path="url(#p1698913a7c)" d="M 51.99517 163.16069 
L 67.433906 159.197619 
L 82.872641 97.034651 
L 98.311376 133.149254 
L 113.750111 163.661824 
L 129.188846 164.112101 
L 144.627582 163.656809 
L 160.066317 165.115448 
L 175.505052 165.790716 
L 190.943787 165.93517 
L 206.382522 165.927799 
L 221.821257 165.843412 
L 237.259993 165.320339 
L 252.698728 165.015933 
L 268.137463 165.907332 
L 283.576198 164.644842 
L 299.014933 164.096507 
L 314.453668 153.185554 
L 329.892404 154.75943 
L 345.331139 134.322359 
L 360.769874 162.361298 
L 376.208609 165.800369 
L 391.647344 165.460655 
L 407.08608 165.875312 
" style="fill:none;stroke:#1b9e77;stroke-linecap:square;stroke-opacity:0.5;stroke-width:1.5;"/>
   </g>
   <g id="line2d_15">
    <path clip-path="url(#p1698913a7c)" d="M 51.99517 165.939385 
L 67.433906 165.868354 
L 82.872641 165.758087 
L 98.311376 164.46326 
L 113.750111 162.320029 
L 129.188846 161.762223 
L 144.627582 160.217319 
L 160.066317 158.185604 
L 175.505052 156.388474 
L 190.943787 152.900323 
L 206.382522 129.242314 
L 221.821257 99.69296 
L 237.259993 140.624623 
L 252.698728 161.152796 
L 268.137463 164.700292 
L 283.576198 165.172355 
L 299.014933 165.683797 
L 314.453668 165.772173 
L 329.892404 165.931152 
L 345.331139 165.94913 
L 360.769874 165.581981 
L 376.208609 165.624124 
L 391.647344 164.839736 
L 407.08608 165.564934 
" style="fill:none;stroke:#1b9e77;stroke-linecap:square;stroke-opacity:0.5;stroke-width:1.5;"/>
   </g>
   <g id="line2d_16">
    <path clip-path="url(#p1698913a7c)" d="M 51.99517 163.906091 
L 67.433906 160.521716 
L 82.872641 160.703991 
L 98.311376 163.528922 
L 113.750111 164.40477 
L 129.188846 165.088049 
L 144.627582 165.333233 
L 160.066317 165.354061 
L 175.505052 165.251302 
L 190.943787 165.45542 
L 206.382522 165.664097 
L 221.821257 165.607437 
L 237.259993 165.352675 
L 252.698728 165.295759 
L 268.137463 165.626676 
L 283.576198 165.847045 
L 299.014933 165.890175 
L 314.453668 165.911824 
L 329.892404 165.857439 
L 345.331139 165.878915 
L 360.769874 163.638811 
L 376.208609 130.986778 
L 391.647344 82.196754 
L 407.08608 126.033495 
" style="fill:none;stroke:#1b9e77;stroke-linecap:square;stroke-opacity:0.5;stroke-width:1.5;"/>
   </g>
   <g id="line2d_17">
    <path clip-path="url(#p1698913a7c)" d="M 51.99517 165.824915 
L 67.433906 165.57102 
L 82.872641 165.733851 
L 98.311376 165.782207 
L 113.750111 165.271006 
L 129.188846 165.595887 
L 144.627582 165.885589 
L 160.066317 165.841638 
L 175.505052 165.814414 
L 190.943787 165.863137 
L 206.382522 165.898787 
L 221.821257 165.906856 
L 237.259993 165.90774 
L 252.698728 165.935033 
L 268.137463 165.912124 
L 283.576198 164.238333 
L 299.014933 161.414712 
L 314.453668 161.429517 
L 329.892404 145.599085 
L 345.331139 116.431791 
L 360.769874 122.618661 
L 376.208609 137.619902 
L 391.647344 143.443393 
L 407.08608 159.795828 
" style="fill:none;stroke:#1b9e77;stroke-linecap:square;stroke-opacity:0.5;stroke-width:1.5;"/>
   </g>
   <g id="line2d_18">
    <path clip-path="url(#p1698913a7c)" d="M 51.99517 165.841229 
L 67.433906 165.650066 
L 82.872641 165.734356 
L 98.311376 165.816807 
L 113.750111 165.835101 
L 129.188846 165.899993 
L 144.627582 165.915361 
L 160.066317 165.901264 
L 175.505052 165.88267 
L 190.943787 165.907842 
L 206.382522 165.908611 
L 221.821257 165.894732 
L 237.259993 164.664947 
L 252.698728 148.483512 
L 268.137463 143.679321 
L 283.576198 139.927364 
L 299.014933 144.180338 
L 314.453668 134.547301 
L 329.892404 120.818227 
L 345.331139 153.351559 
L 360.769874 165.474995 
L 376.208609 165.18583 
L 391.647344 165.393929 
L 407.08608 163.440072 
" style="fill:none;stroke:#1b9e77;stroke-linecap:square;stroke-opacity:0.5;stroke-width:1.5;"/>
   </g>
   <g id="line2d_19">
    <path clip-path="url(#p1698913a7c)" d="M 51.99517 165.83146 
L 67.433906 164.929531 
L 82.872641 157.040884 
L 98.311376 140.709789 
L 113.750111 153.260119 
L 129.188846 148.53243 
L 144.627582 121.471538 
L 160.066317 151.12178 
L 175.505052 163.157352 
L 190.943787 164.040002 
L 206.382522 162.249513 
L 221.821257 157.32665 
L 237.259993 154.602636 
L 252.698728 138.822391 
L 268.137463 164.467721 
L 283.576198 165.68919 
L 299.014933 165.556891 
L 314.453668 165.739169 
L 329.892404 165.528507 
L 345.331139 165.794773 
L 360.769874 165.929682 
L 376.208609 165.943081 
L 391.647344 165.94412 
L 407.08608 165.646224 
" style="fill:none;stroke:#1b9e77;stroke-linecap:square;stroke-opacity:0.5;stroke-width:1.5;"/>
   </g>
   <g id="line2d_20">
    <path clip-path="url(#p1698913a7c)" d="M 51.99517 164.513991 
L 67.433906 165.346558 
L 82.872641 164.519585 
L 98.311376 163.550094 
L 113.750111 126.56286 
L 129.188846 124.262458 
L 144.627582 162.948077 
L 160.066317 164.715664 
L 175.505052 164.84224 
L 190.943787 163.624481 
L 206.382522 164.804291 
L 221.821257 165.409862 
L 237.259993 165.727897 
L 252.698728 165.807827 
L 268.137463 165.826114 
L 283.576198 165.843109 
L 299.014933 163.781616 
L 314.453668 150.09232 
L 329.892404 149.534644 
L 345.331139 160.452577 
L 360.769874 158.038395 
L 376.208609 150.335323 
L 391.647344 150.120256 
L 407.08608 158.675192 
" style="fill:none;stroke:#1b9e77;stroke-linecap:square;stroke-opacity:0.5;stroke-width:1.5;"/>
   </g>
   <g id="line2d_21">
    <path clip-path="url(#p1698913a7c)" d="M 51.99517 146.716798 
L 67.433906 97.706488 
L 82.872641 134.590448 
L 98.311376 151.221356 
L 113.750111 156.229442 
L 129.188846 159.85129 
L 144.627582 161.825318 
L 160.066317 163.176464 
L 175.505052 163.627207 
L 190.943787 164.448093 
L 206.382522 164.818717 
L 221.821257 165.475069 
L 237.259993 165.750892 
L 252.698728 165.853206 
L 268.137463 165.839776 
L 283.576198 165.746653 
L 299.014933 165.41545 
L 314.453668 165.240276 
L 329.892404 164.479638 
L 345.331139 160.301425 
L 360.769874 164.217583 
L 376.208609 162.372624 
L 391.647344 160.301596 
L 407.08608 164.12962 
" style="fill:none;stroke:#1b9e77;stroke-linecap:square;stroke-opacity:0.5;stroke-width:1.5;"/>
   </g>
   <g id="line2d_22">
    <path clip-path="url(#p1698913a7c)" d="M 51.99517 165.815516 
L 67.433906 165.647791 
L 82.872641 165.57205 
L 98.311376 154.450431 
L 113.750111 156.632706 
L 129.188846 143.448107 
L 144.627582 100.785629 
L 160.066317 141.685006 
L 175.505052 159.714186 
L 190.943787 164.930112 
L 206.382522 165.889325 
L 221.821257 165.569038 
L 237.259993 148.193056 
L 252.698728 152.6814 
L 268.137463 165.7073 
L 283.576198 162.723605 
L 299.014933 161.816745 
L 314.453668 164.279265 
L 329.892404 165.140767 
L 345.331139 165.435349 
L 360.769874 165.59438 
L 376.208609 165.822196 
L 391.647344 165.868751 
L 407.08608 165.932727 
" style="fill:none;stroke:#1b9e77;stroke-linecap:square;stroke-opacity:0.5;stroke-width:1.5;"/>
   </g>
   <g id="line2d_23">
    <path clip-path="url(#p1698913a7c)" d="M 51.99517 165.838029 
L 67.433906 165.751093 
L 82.872641 165.812631 
L 98.311376 165.86976 
L 113.750111 165.84466 
L 129.188846 165.887938 
L 144.627582 165.785604 
L 160.066317 164.936466 
L 175.505052 165.768182 
L 190.943787 165.820401 
L 206.382522 165.794086 
L 221.821257 165.761725 
L 237.259993 165.884458 
L 252.698728 165.870166 
L 268.137463 165.749003 
L 283.576198 165.790597 
L 299.014933 165.851852 
L 314.453668 165.8196 
L 329.892404 165.465356 
L 345.331139 163.837726 
L 360.769874 146.306472 
L 376.208609 75.734423 
L 391.647344 117.252506 
L 407.08608 146.902702 
" style="fill:none;stroke:#1b9e77;stroke-linecap:square;stroke-opacity:0.5;stroke-width:1.5;"/>
   </g>
   <g id="line2d_24">
    <path clip-path="url(#p1698913a7c)" d="M 51.99517 163.848207 
L 67.433906 158.708363 
L 82.872641 151.087836 
L 98.311376 162.743187 
L 113.750111 161.539354 
L 129.188846 135.181096 
L 144.627582 163.394628 
L 160.066317 165.715026 
L 175.505052 165.659602 
L 190.943787 165.82307 
L 206.382522 165.898773 
L 221.821257 165.912098 
L 237.259993 165.894946 
L 252.698728 165.89823 
L 268.137463 165.872885 
L 283.576198 165.514757 
L 299.014933 165.7418 
L 314.453668 165.667432 
L 329.892404 164.780918 
L 345.331139 129.973935 
L 360.769874 108.608142 
L 376.208609 153.010146 
L 391.647344 163.612396 
L 407.08608 159.248605 
" style="fill:none;stroke:#1b9e77;stroke-linecap:square;stroke-opacity:0.5;stroke-width:1.5;"/>
   </g>
   <g id="line2d_25">
    <path clip-path="url(#p1698913a7c)" d="M 51.99517 163.05652 
L 67.433906 164.070931 
L 82.872641 156.003657 
L 98.311376 157.253691 
L 113.750111 120.413585 
L 129.188846 64.537017 
L 144.627582 157.258756 
L 160.066317 164.084304 
L 175.505052 165.248691 
L 190.943787 165.236119 
L 206.382522 165.673469 
L 221.821257 165.805328 
L 237.259993 165.882721 
L 252.698728 165.890884 
L 268.137463 165.873202 
L 283.576198 165.886751 
L 299.014933 165.898962 
L 314.453668 165.910373 
L 329.892404 165.912642 
L 345.331139 165.926321 
L 360.769874 165.93732 
L 376.208609 165.955862 
L 391.647344 165.953328 
L 407.08608 165.664994 
" style="fill:none;stroke:#1b9e77;stroke-linecap:square;stroke-opacity:0.5;stroke-width:1.5;"/>
   </g>
   <g id="line2d_26">
    <path clip-path="url(#p1698913a7c)" d="M 51.99517 143.378936 
L 67.433906 93.824886 
L 82.872641 160.688992 
L 98.311376 157.824175 
L 113.750111 161.02692 
L 129.188846 159.245174 
L 144.627582 164.691665 
L 160.066317 165.295395 
L 175.505052 165.046796 
L 190.943787 165.485988 
L 206.382522 165.769313 
L 221.821257 165.880828 
L 237.259993 165.895998 
L 252.698728 165.917819 
L 268.137463 165.865225 
L 283.576198 165.642183 
L 299.014933 164.97011 
L 314.453668 160.784982 
L 329.892404 148.049427 
L 345.331139 148.272619 
L 360.769874 165.057309 
L 376.208609 164.326869 
L 391.647344 164.153586 
L 407.08608 152.240235 
" style="fill:none;stroke:#1b9e77;stroke-linecap:square;stroke-opacity:0.5;stroke-width:1.5;"/>
   </g>
   <g id="line2d_27">
    <path clip-path="url(#p1698913a7c)" d="M 51.99517 165.930665 
L 67.433906 165.881993 
L 82.872641 165.812793 
L 98.311376 164.421584 
L 113.750111 165.794497 
L 129.188846 165.909884 
L 144.627582 165.486231 
L 160.066317 159.170392 
L 175.505052 162.370244 
L 190.943787 160.427507 
L 206.382522 155.490358 
L 221.821257 154.347411 
L 237.259993 113.496475 
L 252.698728 152.499335 
L 268.137463 160.586181 
L 283.576198 150.651793 
L 299.014933 155.964942 
L 314.453668 138.919171 
L 329.892404 153.224651 
L 345.331139 160.296465 
L 360.769874 165.173856 
L 376.208609 165.764474 
L 391.647344 165.861609 
L 407.08608 165.852914 
" style="fill:none;stroke:#1b9e77;stroke-linecap:square;stroke-opacity:0.5;stroke-width:1.5;"/>
   </g>
   <g id="line2d_28">
    <path clip-path="url(#p1698913a7c)" d="M 51.99517 165.84199 
L 67.433906 164.801979 
L 82.872641 161.825725 
L 98.311376 84.058931 
L 113.750111 142.800908 
L 129.188846 161.807955 
L 144.627582 162.181364 
L 160.066317 144.480458 
L 175.505052 158.875521 
L 190.943787 160.30662 
L 206.382522 161.459481 
L 221.821257 161.221653 
L 237.259993 156.371577 
L 252.698728 164.338381 
L 268.137463 165.777163 
L 283.576198 165.520862 
L 299.014933 161.540773 
L 314.453668 161.518809 
L 329.892404 165.690323 
L 345.331139 165.668466 
L 360.769874 165.661516 
L 376.208609 165.789773 
L 391.647344 165.848637 
L 407.08608 165.94657 
" style="fill:none;stroke:#1b9e77;stroke-linecap:square;stroke-opacity:0.5;stroke-width:1.5;"/>
   </g>
   <g id="line2d_29">
    <path clip-path="url(#p1698913a7c)" d="M 51.99517 165.715888 
L 67.433906 165.260698 
L 82.872641 165.331231 
L 98.311376 165.682215 
L 113.750111 165.760551 
L 129.188846 165.847284 
L 144.627582 165.833739 
L 160.066317 165.829812 
L 175.505052 165.497449 
L 190.943787 158.091757 
L 206.382522 137.901849 
L 221.821257 139.997549 
L 237.259993 160.892311 
L 252.698728 161.964808 
L 268.137463 160.723786 
L 283.576198 144.965326 
L 299.014933 157.020526 
L 314.453668 162.668702 
L 329.892404 164.858994 
L 345.331139 165.302321 
L 360.769874 157.8729 
L 376.208609 158.51603 
L 391.647344 134.572084 
L 407.08608 143.227619 
" style="fill:none;stroke:#1b9e77;stroke-linecap:square;stroke-opacity:0.5;stroke-width:1.5;"/>
   </g>
   <g id="line2d_30">
    <path clip-path="url(#p1698913a7c)" d="M 51.99517 160.397038 
L 67.433906 156.790478 
L 82.872641 158.22407 
L 98.311376 164.593904 
L 113.750111 165.672004 
L 129.188846 164.213901 
L 144.627582 159.693756 
L 160.066317 164.720136 
L 175.505052 165.634532 
L 190.943787 165.106494 
L 206.382522 165.385591 
L 221.821257 165.489585 
L 237.259993 165.25364 
L 252.698728 148.02705 
L 268.137463 133.943264 
L 283.576198 154.213405 
L 299.014933 159.996455 
L 314.453668 160.637798 
L 329.892404 137.507803 
L 345.331139 145.945157 
L 360.769874 141.879217 
L 376.208609 165.640448 
L 391.647344 165.621574 
L 407.08608 164.748133 
" style="fill:none;stroke:#1b9e77;stroke-linecap:square;stroke-opacity:0.5;stroke-width:1.5;"/>
   </g>
   <g id="line2d_31">
    <path clip-path="url(#p1698913a7c)" d="M 51.99517 165.911951 
L 67.433906 165.873137 
L 82.872641 165.886262 
L 98.311376 165.393372 
L 113.750111 158.043098 
L 129.188846 145.221831 
L 144.627582 135.000482 
L 160.066317 139.798081 
L 175.505052 163.911213 
L 190.943787 160.191933 
L 206.382522 161.284697 
L 221.821257 165.130157 
L 237.259993 165.313594 
L 252.698728 165.268743 
L 268.137463 165.213594 
L 283.576198 154.812444 
L 299.014933 148.241987 
L 314.453668 160.750388 
L 329.892404 163.949024 
L 345.331139 156.358598 
L 360.769874 152.395397 
L 376.208609 154.894145 
L 391.647344 157.793676 
L 407.08608 162.697623 
" style="fill:none;stroke:#1b9e77;stroke-linecap:square;stroke-opacity:0.5;stroke-width:1.5;"/>
   </g>
   <g id="line2d_32">
    <path clip-path="url(#p1698913a7c)" d="M 51.99517 158.865934 
L 67.433906 150.137188 
L 82.872641 146.361783 
L 98.311376 151.031261 
L 113.750111 143.466212 
L 129.188846 122.659358 
L 144.627582 114.285575 
L 160.066317 164.056139 
L 175.505052 165.728351 
L 190.943787 165.73996 
L 206.382522 165.853277 
L 221.821257 165.888247 
L 237.259993 165.773783 
L 252.698728 165.031495 
L 268.137463 165.643362 
L 283.576198 165.558625 
L 299.014933 165.315526 
L 314.453668 165.338672 
L 329.892404 165.647148 
L 345.331139 165.808392 
L 360.769874 165.83624 
L 376.208609 165.929948 
L 391.647344 165.15857 
L 407.08608 164.220375 
" style="fill:none;stroke:#1b9e77;stroke-linecap:square;stroke-opacity:0.5;stroke-width:1.5;"/>
   </g>
   <g id="line2d_33">
    <path clip-path="url(#p1698913a7c)" d="M 51.99517 164.901917 
L 67.433906 164.27245 
L 82.872641 164.541854 
L 98.311376 164.757454 
L 113.750111 157.871487 
L 129.188846 155.578892 
L 144.627582 161.611276 
L 160.066317 159.514939 
L 175.505052 153.434413 
L 190.943787 149.853688 
L 206.382522 160.396763 
L 221.821257 163.361654 
L 237.259993 159.943622 
L 252.698728 139.954156 
L 268.137463 139.843428 
L 283.576198 158.933792 
L 299.014933 164.807095 
L 314.453668 163.274856 
L 329.892404 162.024947 
L 345.331139 164.459128 
L 360.769874 132.090381 
L 376.208609 163.512847 
L 391.647344 164.930737 
L 407.08608 165.463658 
" style="fill:none;stroke:#1b9e77;stroke-linecap:square;stroke-opacity:0.5;stroke-width:1.5;"/>
   </g>
   <g id="line2d_34">
    <path clip-path="url(#p1698913a7c)" d="M 51.99517 165.117123 
L 67.433906 165.324354 
L 82.872641 164.487691 
L 98.311376 157.282372 
L 113.750111 101.019521 
L 129.188846 150.24 
L 144.627582 165.029162 
L 160.066317 164.098709 
L 175.505052 158.766835 
L 190.943787 165.596535 
L 206.382522 165.363672 
L 221.821257 162.35968 
L 237.259993 164.889259 
L 252.698728 154.69005 
L 268.137463 165.14139 
L 283.576198 165.671511 
L 299.014933 164.909293 
L 314.453668 159.880002 
L 329.892404 163.27959 
L 345.331139 151.47067 
L 360.769874 136.385217 
L 376.208609 159.143708 
L 391.647344 164.359781 
L 407.08608 164.8293 
" style="fill:none;stroke:#1b9e77;stroke-linecap:square;stroke-opacity:0.5;stroke-width:1.5;"/>
   </g>
   <g id="line2d_35">
    <path clip-path="url(#p1698913a7c)" d="M 51.99517 165.867151 
L 67.433906 165.476821 
L 82.872641 165.628844 
L 98.311376 165.815061 
L 113.750111 165.870032 
L 129.188846 165.929412 
L 144.627582 165.936788 
L 160.066317 165.935306 
L 175.505052 165.638187 
L 190.943787 165.010739 
L 206.382522 159.759408 
L 221.821257 158.425746 
L 237.259993 161.043515 
L 252.698728 163.268043 
L 268.137463 163.230719 
L 283.576198 156.318325 
L 299.014933 43.497334 
L 314.453668 148.552939 
L 329.892404 160.487361 
L 345.331139 165.338899 
L 360.769874 165.47951 
L 376.208609 165.378895 
L 391.647344 165.566638 
L 407.08608 165.879758 
" style="fill:none;stroke:#1b9e77;stroke-linecap:square;stroke-opacity:0.5;stroke-width:1.5;"/>
   </g>
   <g id="line2d_36">
    <path clip-path="url(#p1698913a7c)" d="M 51.99517 154.607394 
L 67.433906 145.304134 
L 82.872641 141.174886 
L 98.311376 147.337906 
L 113.750111 160.287381 
L 129.188846 150.125663 
L 144.627582 163.449567 
L 160.066317 165.082016 
L 175.505052 165.116548 
L 190.943787 164.940745 
L 206.382522 164.727213 
L 221.821257 165.391237 
L 237.259993 160.337103 
L 252.698728 147.195059 
L 268.137463 145.299069 
L 283.576198 140.872775 
L 299.014933 161.225836 
L 314.453668 164.944902 
L 329.892404 165.879989 
L 345.331139 165.934696 
L 360.769874 165.828999 
L 376.208609 165.26783 
L 391.647344 163.682304 
L 407.08608 165.322171 
" style="fill:none;stroke:#1b9e77;stroke-linecap:square;stroke-opacity:0.5;stroke-width:1.5;"/>
   </g>
   <g id="line2d_37">
    <path clip-path="url(#p1698913a7c)" d="M 51.99517 165.861788 
L 67.433906 165.53065 
L 82.872641 165.499473 
L 98.311376 165.708382 
L 113.750111 165.778068 
L 129.188846 165.890647 
L 144.627582 165.607255 
L 160.066317 165.738609 
L 175.505052 165.868644 
L 190.943787 165.861987 
L 206.382522 165.267784 
L 221.821257 145.186364 
L 237.259993 137.557081 
L 252.698728 155.696855 
L 268.137463 106.847593 
L 283.576198 112.771452 
L 299.014933 163.194049 
L 314.453668 165.511803 
L 329.892404 165.844777 
L 345.331139 165.580045 
L 360.769874 165.142484 
L 376.208609 165.788588 
L 391.647344 165.75004 
L 407.08608 161.851003 
" style="fill:none;stroke:#1b9e77;stroke-linecap:square;stroke-opacity:0.5;stroke-width:1.5;"/>
   </g>
   <g id="line2d_38">
    <path clip-path="url(#p1698913a7c)" d="M 51.99517 164.723041 
L 67.433906 150.381258 
L 82.872641 158.200403 
L 98.311376 162.093564 
L 113.750111 164.061059 
L 129.188846 164.900555 
L 144.627582 165.381418 
L 160.066317 165.681681 
L 175.505052 165.744675 
L 190.943787 165.813465 
L 206.382522 165.847452 
L 221.821257 165.93018 
L 237.259993 165.946959 
L 252.698728 165.943268 
L 268.137463 157.821706 
L 283.576198 120.20185 
L 299.014933 131.226876 
L 314.453668 147.142994 
L 329.892404 163.729638 
L 345.331139 163.296775 
L 360.769874 141.824957 
L 376.208609 160.565971 
L 391.647344 157.897621 
L 407.08608 164.978066 
" style="fill:none;stroke:#1b9e77;stroke-linecap:square;stroke-opacity:0.5;stroke-width:1.5;"/>
   </g>
   <g id="line2d_39">
    <path clip-path="url(#p1698913a7c)" d="M 51.99517 164.934895 
L 67.433906 164.65918 
L 82.872641 165.054812 
L 98.311376 165.297198 
L 113.750111 165.026381 
L 129.188846 162.055766 
L 144.627582 164.550416 
L 160.066317 165.126378 
L 175.505052 154.052921 
L 190.943787 148.285118 
L 206.382522 153.072069 
L 221.821257 145.095314 
L 237.259993 142.034286 
L 252.698728 129.650613 
L 268.137463 149.689234 
L 283.576198 139.445417 
L 299.014933 164.895441 
L 314.453668 165.240351 
L 329.892404 165.606185 
L 345.331139 165.462172 
L 360.769874 163.477151 
L 376.208609 165.449768 
L 391.647344 165.596132 
L 407.08608 165.578233 
" style="fill:none;stroke:#1b9e77;stroke-linecap:square;stroke-opacity:0.5;stroke-width:1.5;"/>
   </g>
   <g id="line2d_40">
    <path clip-path="url(#p1698913a7c)" d="M 51.99517 155.230644 
L 67.433906 149.671748 
L 82.872641 126.774515 
L 98.311376 132.313466 
L 113.750111 122.29942 
L 129.188846 135.657929 
L 144.627582 161.798781 
L 160.066317 165.764868 
L 175.505052 165.558019 
L 190.943787 165.623875 
L 206.382522 165.791189 
L 221.821257 165.879865 
L 237.259993 165.896884 
L 252.698728 165.930385 
L 268.137463 165.940658 
L 283.576198 165.941127 
L 299.014933 165.923599 
L 314.453668 165.878569 
L 329.892404 165.352529 
L 345.331139 163.269542 
L 360.769874 165.346777 
L 376.208609 165.8757 
L 391.647344 165.817437 
L 407.08608 165.797905 
" style="fill:none;stroke:#1b9e77;stroke-linecap:square;stroke-opacity:0.5;stroke-width:1.5;"/>
   </g>
   <g id="line2d_41">
    <path clip-path="url(#p1698913a7c)" d="M 51.99517 134.648205 
L 67.433906 141.481277 
L 82.872641 154.282074 
L 98.311376 162.941634 
L 113.750111 164.378753 
L 129.188846 164.941149 
L 144.627582 165.112842 
L 160.066317 165.67675 
L 175.505052 165.253754 
L 190.943787 164.144679 
L 206.382522 164.498468 
L 221.821257 164.119604 
L 237.259993 163.513778 
L 252.698728 138.765655 
L 268.137463 133.394997 
L 283.576198 160.417848 
L 299.014933 161.047593 
L 314.453668 158.505644 
L 329.892404 161.85783 
L 345.331139 162.494258 
L 360.769874 162.327843 
L 376.208609 162.069995 
L 391.647344 161.305861 
L 407.08608 162.154933 
" style="fill:none;stroke:#1b9e77;stroke-linecap:square;stroke-opacity:0.5;stroke-width:1.5;"/>
   </g>
   <g id="line2d_42">
    <path clip-path="url(#p1698913a7c)" d="M 51.99517 165.112341 
L 67.433906 164.757228 
L 82.872641 158.40774 
L 98.311376 136.252135 
L 113.750111 146.793808 
L 129.188846 153.29833 
L 144.627582 142.221249 
L 160.066317 159.722454 
L 175.505052 165.396534 
L 190.943787 165.739628 
L 206.382522 165.926287 
L 221.821257 165.907092 
L 237.259993 164.258236 
L 252.698728 164.127892 
L 268.137463 164.373007 
L 283.576198 163.213975 
L 299.014933 163.927562 
L 314.453668 159.958208 
L 329.892404 161.829982 
L 345.331139 137.089391 
L 360.769874 154.309286 
L 376.208609 153.93104 
L 391.647344 158.189296 
L 407.08608 164.592727 
" style="fill:none;stroke:#1b9e77;stroke-linecap:square;stroke-opacity:0.5;stroke-width:1.5;"/>
   </g>
   <g id="line2d_43">
    <path clip-path="url(#p1698913a7c)" d="M 51.99517 165.642391 
L 67.433906 165.86629 
L 82.872641 165.049338 
L 98.311376 164.254392 
L 113.750111 157.902429 
L 129.188846 105.982624 
L 144.627582 136.110632 
L 160.066317 147.72464 
L 175.505052 136.188072 
L 190.943787 152.064404 
L 206.382522 159.685777 
L 221.821257 159.909659 
L 237.259993 162.692189 
L 252.698728 165.749954 
L 268.137463 165.811922 
L 283.576198 165.845395 
L 299.014933 165.855382 
L 314.453668 165.884691 
L 329.892404 165.883571 
L 345.331139 165.900017 
L 360.769874 165.798159 
L 376.208609 164.981486 
L 391.647344 164.026651 
L 407.08608 164.525362 
" style="fill:none;stroke:#1b9e77;stroke-linecap:square;stroke-opacity:0.5;stroke-width:1.5;"/>
   </g>
   <g id="line2d_44">
    <path clip-path="url(#p1698913a7c)" d="M 51.99517 165.822328 
L 67.433906 165.640859 
L 82.872641 165.750135 
L 98.311376 165.876461 
L 113.750111 165.913035 
L 129.188846 165.938932 
L 144.627582 165.945665 
L 160.066317 165.953196 
L 175.505052 165.950894 
L 190.943787 165.919021 
L 206.382522 164.94288 
L 221.821257 160.526854 
L 237.259993 137.303616 
L 252.698728 112.885739 
L 268.137463 137.887985 
L 283.576198 148.628224 
L 299.014933 157.865126 
L 314.453668 149.945708 
L 329.892404 158.40829 
L 345.331139 164.672223 
L 360.769874 165.292881 
L 376.208609 159.003711 
L 391.647344 158.159624 
L 407.08608 165.102045 
" style="fill:none;stroke:#1b9e77;stroke-linecap:square;stroke-opacity:0.5;stroke-width:1.5;"/>
   </g>
   <g id="line2d_45">
    <path clip-path="url(#p1698913a7c)" d="M 51.99517 165.90832 
L 67.433906 165.84759 
L 82.872641 165.898947 
L 98.311376 165.628102 
L 113.750111 165.048351 
L 129.188846 165.715091 
L 144.627582 163.92762 
L 160.066317 154.621727 
L 175.505052 159.261831 
L 190.943787 155.420357 
L 206.382522 155.927497 
L 221.821257 162.362452 
L 237.259993 159.398654 
L 252.698728 156.979774 
L 268.137463 160.825509 
L 283.576198 159.688845 
L 299.014933 135.759767 
L 314.453668 149.638088 
L 329.892404 151.108901 
L 345.331139 142.933416 
L 360.769874 154.182634 
L 376.208609 159.077321 
L 391.647344 161.243911 
L 407.08608 162.930721 
" style="fill:none;stroke:#1b9e77;stroke-linecap:square;stroke-opacity:0.5;stroke-width:1.5;"/>
   </g>
   <g id="line2d_46">
    <path clip-path="url(#p1698913a7c)" d="M 51.99517 165.426632 
L 67.433906 165.089156 
L 82.872641 154.727536 
L 98.311376 152.00738 
L 113.750111 164.355409 
L 129.188846 161.10952 
L 144.627582 141.830913 
L 160.066317 159.426643 
L 175.505052 161.108052 
L 190.943787 165.839518 
L 206.382522 165.695475 
L 221.821257 165.061354 
L 237.259993 156.973829 
L 252.698728 70.2178 
L 268.137463 164.388768 
L 283.576198 161.208765 
L 299.014933 165.346977 
L 314.453668 164.890857 
L 329.892404 165.41751 
L 345.331139 165.665046 
L 360.769874 165.777897 
L 376.208609 165.898178 
L 391.647344 165.917875 
L 407.08608 165.954339 
" style="fill:none;stroke:#1b9e77;stroke-linecap:square;stroke-opacity:0.5;stroke-width:1.5;"/>
   </g>
   <g id="line2d_47">
    <path clip-path="url(#p1698913a7c)" d="M 51.99517 165.831298 
L 67.433906 165.631399 
L 82.872641 161.990817 
L 98.311376 137.784867 
L 113.750111 165.492588 
L 129.188846 165.516745 
L 144.627582 165.710188 
L 160.066317 165.873335 
L 175.505052 165.909938 
L 190.943787 165.905062 
L 206.382522 165.889009 
L 221.821257 165.931625 
L 237.259993 165.947322 
L 252.698728 165.935928 
L 268.137463 165.823291 
L 283.576198 164.979919 
L 299.014933 155.368485 
L 314.453668 139.30608 
L 329.892404 147.434477 
L 345.331139 109.34049 
L 360.769874 143.89422 
L 376.208609 161.007572 
L 391.647344 157.913092 
L 407.08608 164.917685 
" style="fill:none;stroke:#1b9e77;stroke-linecap:square;stroke-opacity:0.5;stroke-width:1.5;"/>
   </g>
   <g id="line2d_48">
    <path clip-path="url(#p1698913a7c)" d="M 51.99517 163.422451 
L 67.433906 161.341625 
L 82.872641 163.170088 
L 98.311376 165.063199 
L 113.750111 164.499448 
L 129.188846 164.466889 
L 144.627582 161.862763 
L 160.066317 155.233023 
L 175.505052 164.059032 
L 190.943787 165.7841 
L 206.382522 165.508965 
L 221.821257 162.468749 
L 237.259993 158.109792 
L 252.698728 156.229449 
L 268.137463 152.247656 
L 283.576198 144.236874 
L 299.014933 125.58348 
L 314.453668 151.661675 
L 329.892404 160.660919 
L 345.331139 158.566419 
L 360.769874 142.817203 
L 376.208609 162.326976 
L 391.647344 164.66904 
L 407.08608 165.345615 
" style="fill:none;stroke:#1b9e77;stroke-linecap:square;stroke-opacity:0.5;stroke-width:1.5;"/>
   </g>
   <g id="line2d_49">
    <path clip-path="url(#p1698913a7c)" d="M 51.99517 154.116994 
L 67.433906 157.155304 
L 82.872641 100.857678 
L 98.311376 144.403522 
L 113.750111 151.659522 
L 129.188846 132.710115 
L 144.627582 155.112438 
L 160.066317 160.463541 
L 175.505052 161.321965 
L 190.943787 163.885211 
L 206.382522 165.092568 
L 221.821257 165.728365 
L 237.259993 165.868076 
L 252.698728 165.899322 
L 268.137463 165.858436 
L 283.576198 165.787039 
L 299.014933 165.727338 
L 314.453668 165.581625 
L 329.892404 165.471688 
L 345.331139 165.151481 
L 360.769874 164.782393 
L 376.208609 165.483552 
L 391.647344 165.842801 
L 407.08608 165.374451 
" style="fill:none;stroke:#1b9e77;stroke-linecap:square;stroke-opacity:0.5;stroke-width:1.5;"/>
   </g>
   <g id="line2d_50">
    <path clip-path="url(#p1698913a7c)" d="M 51.99517 154.071434 
L 67.433906 149.597298 
L 82.872641 129.935434 
L 98.311376 116.772235 
L 113.750111 119.895143 
L 129.188846 155.869404 
L 144.627582 163.794483 
L 160.066317 164.463931 
L 175.505052 164.475735 
L 190.943787 165.339157 
L 206.382522 165.685021 
L 221.821257 165.796749 
L 237.259993 165.752375 
L 252.698728 165.731569 
L 268.137463 163.620389 
L 283.576198 161.69142 
L 299.014933 165.838987 
L 314.453668 165.85118 
L 329.892404 165.843865 
L 345.331139 165.869385 
L 360.769874 165.876981 
L 376.208609 165.915823 
L 391.647344 165.928013 
L 407.08608 165.719423 
" style="fill:none;stroke:#1b9e77;stroke-linecap:square;stroke-opacity:0.5;stroke-width:1.5;"/>
   </g>
   <g id="line2d_51">
    <path clip-path="url(#p1698913a7c)" d="M 51.99517 165.947275 
L 67.433906 165.91905 
L 82.872641 165.046234 
L 98.311376 161.82708 
L 113.750111 163.385048 
L 129.188846 157.890955 
L 144.627582 142.876094 
L 160.066317 145.945884 
L 175.505052 143.450821 
L 190.943787 154.684615 
L 206.382522 164.402083 
L 221.821257 162.96275 
L 237.259993 157.678027 
L 252.698728 160.313111 
L 268.137463 163.270513 
L 283.576198 163.143853 
L 299.014933 161.595014 
L 314.453668 153.287222 
L 329.892404 150.83319 
L 345.331139 146.855064 
L 360.769874 158.030186 
L 376.208609 162.790616 
L 391.647344 162.953045 
L 407.08608 164.247697 
" style="fill:none;stroke:#1b9e77;stroke-linecap:square;stroke-opacity:0.5;stroke-width:1.5;"/>
   </g>
   <g id="line2d_52">
    <path clip-path="url(#p1698913a7c)" d="M 51.99517 156.163519 
L 67.433906 160.469832 
L 82.872641 140.282085 
L 98.311376 143.726254 
L 113.750111 159.429177 
L 129.188846 153.099659 
L 144.627582 143.876195 
L 160.066317 161.859165 
L 175.505052 165.241662 
L 190.943787 165.56056 
L 206.382522 165.825853 
L 221.821257 165.25233 
L 237.259993 105.703904 
L 252.698728 155.035715 
L 268.137463 165.243804 
L 283.576198 165.820049 
L 299.014933 165.590941 
L 314.453668 165.660249 
L 329.892404 165.825704 
L 345.331139 165.904456 
L 360.769874 165.922791 
L 376.208609 165.945467 
L 391.647344 165.95291 
L 407.08608 165.943148 
" style="fill:none;stroke:#1b9e77;stroke-linecap:square;stroke-opacity:0.5;stroke-width:1.5;"/>
   </g>
   <g id="line2d_53">
    <path clip-path="url(#p1698913a7c)" d="M 51.99517 165.588123 
L 67.433906 165.357075 
L 82.872641 165.591327 
L 98.311376 165.834165 
L 113.750111 165.884731 
L 129.188846 165.909932 
L 144.627582 165.914916 
L 160.066317 165.880355 
L 175.505052 165.797458 
L 190.943787 165.753843 
L 206.382522 165.779544 
L 221.821257 165.800619 
L 237.259993 165.808764 
L 252.698728 165.851423 
L 268.137463 165.885261 
L 283.576198 165.906067 
L 299.014933 165.896388 
L 314.453668 165.885209 
L 329.892404 165.467618 
L 345.331139 151.750811 
L 360.769874 129.978987 
L 376.208609 118.291889 
L 391.647344 104.981172 
L 407.08608 144.539757 
" style="fill:none;stroke:#1b9e77;stroke-linecap:square;stroke-opacity:0.5;stroke-width:1.5;"/>
   </g>
   <g id="line2d_54">
    <path clip-path="url(#p1698913a7c)" d="M 51.99517 165.897965 
L 67.433906 165.662689 
L 82.872641 165.73515 
L 98.311376 165.796001 
L 113.750111 165.789799 
L 129.188846 165.835297 
L 144.627582 165.839156 
L 160.066317 156.887955 
L 175.505052 155.14361 
L 190.943787 153.37772 
L 206.382522 152.396504 
L 221.821257 150.173417 
L 237.259993 152.326981 
L 252.698728 149.683292 
L 268.137463 149.079122 
L 283.576198 150.700201 
L 299.014933 144.257778 
L 314.453668 155.344717 
L 329.892404 163.513277 
L 345.331139 162.686474 
L 360.769874 161.448342 
L 376.208609 155.900841 
L 391.647344 161.048992 
L 407.08608 164.810148 
" style="fill:none;stroke:#1b9e77;stroke-linecap:square;stroke-opacity:0.5;stroke-width:1.5;"/>
   </g>
   <g id="line2d_55">
    <path clip-path="url(#p1698913a7c)" d="M 51.99517 161.453105 
L 67.433906 159.868551 
L 82.872641 157.407725 
L 98.311376 160.164955 
L 113.750111 143.856402 
L 129.188846 158.197622 
L 144.627582 164.114672 
L 160.066317 159.841611 
L 175.505052 155.612458 
L 190.943787 143.055148 
L 206.382522 152.703735 
L 221.821257 159.53271 
L 237.259993 158.891064 
L 252.698728 132.588957 
L 268.137463 147.897694 
L 283.576198 158.545465 
L 299.014933 165.564 
L 314.453668 165.076571 
L 329.892404 165.62371 
L 345.331139 165.791197 
L 360.769874 165.825967 
L 376.208609 165.892188 
L 391.647344 165.903977 
L 407.08608 165.925942 
" style="fill:none;stroke:#1b9e77;stroke-linecap:square;stroke-opacity:0.5;stroke-width:1.5;"/>
   </g>
   <g id="line2d_56">
    <path clip-path="url(#p1698913a7c)" d="M 51.99517 165.851795 
L 67.433906 165.751134 
L 82.872641 165.875192 
L 98.311376 165.934078 
L 113.750111 165.949296 
L 129.188846 165.951389 
L 144.627582 165.943833 
L 160.066317 165.942342 
L 175.505052 165.942831 
L 190.943787 165.94474 
L 206.382522 165.945356 
L 221.821257 165.9399 
L 237.259993 165.915032 
L 252.698728 165.901019 
L 268.137463 162.482502 
L 283.576198 146.336426 
L 299.014933 147.46153 
L 314.453668 137.534992 
L 329.892404 127.968907 
L 345.331139 134.381311 
L 360.769874 129.504646 
L 376.208609 160.161924 
L 391.647344 165.020405 
L 407.08608 165.694848 
" style="fill:none;stroke:#1b9e77;stroke-linecap:square;stroke-opacity:0.5;stroke-width:1.5;"/>
   </g>
   <g id="line2d_57">
    <path clip-path="url(#p1698913a7c)" d="M 51.99517 121.635091 
L 67.433906 129.28575 
L 82.872641 143.88524 
L 98.311376 161.197719 
L 113.750111 164.310611 
L 129.188846 165.24401 
L 144.627582 165.30272 
L 160.066317 165.323039 
L 175.505052 165.321903 
L 190.943787 165.513926 
L 206.382522 165.478102 
L 221.821257 164.810879 
L 237.259993 162.8113 
L 252.698728 160.31334 
L 268.137463 161.975918 
L 283.576198 161.505268 
L 299.014933 161.970312 
L 314.453668 158.652229 
L 329.892404 156.111529 
L 345.331139 161.442932 
L 360.769874 164.066269 
L 376.208609 165.535439 
L 391.647344 165.487693 
L 407.08608 142.154208 
" style="fill:none;stroke:#1b9e77;stroke-linecap:square;stroke-opacity:0.5;stroke-width:1.5;"/>
   </g>
   <g id="line2d_58">
    <path clip-path="url(#p1698913a7c)" d="M 51.99517 165.928235 
L 67.433906 165.843883 
L 82.872641 165.887154 
L 98.311376 165.918032 
L 113.750111 165.915584 
L 129.188846 165.932109 
L 144.627582 165.940833 
L 160.066317 165.897859 
L 175.505052 165.593504 
L 190.943787 165.852742 
L 206.382522 163.324137 
L 221.821257 151.831759 
L 237.259993 159.050962 
L 252.698728 156.000577 
L 268.137463 147.039974 
L 283.576198 138.056268 
L 299.014933 146.805806 
L 314.453668 163.218903 
L 329.892404 156.644203 
L 345.331139 161.39591 
L 360.769874 155.991914 
L 376.208609 119.796938 
L 391.647344 157.871267 
L 407.08608 163.596876 
" style="fill:none;stroke:#1b9e77;stroke-linecap:square;stroke-opacity:0.5;stroke-width:1.5;"/>
   </g>
   <g id="line2d_59">
    <path clip-path="url(#p1698913a7c)" d="M 51.99517 165.916819 
L 67.433906 165.741484 
L 82.872641 165.779696 
L 98.311376 165.673283 
L 113.750111 165.3 
L 129.188846 165.09664 
L 144.627582 162.136814 
L 160.066317 163.354597 
L 175.505052 163.894119 
L 190.943787 162.778813 
L 206.382522 159.894944 
L 221.821257 157.434115 
L 237.259993 162.849094 
L 252.698728 160.920678 
L 268.137463 145.208285 
L 283.576198 145.789615 
L 299.014933 125.313955 
L 314.453668 127.096394 
L 329.892404 145.633452 
L 345.331139 165.09469 
L 360.769874 165.139665 
L 376.208609 165.612215 
L 391.647344 165.517815 
L 407.08608 162.158254 
" style="fill:none;stroke:#1b9e77;stroke-linecap:square;stroke-opacity:0.5;stroke-width:1.5;"/>
   </g>
   <g id="line2d_60">
    <path clip-path="url(#p1698913a7c)" d="M 51.99517 155.083189 
L 67.433906 155.503751 
L 82.872641 158.62443 
L 98.311376 162.87305 
L 113.750111 163.836591 
L 129.188846 165.029565 
L 144.627582 165.533793 
L 160.066317 165.720518 
L 175.505052 165.722142 
L 190.943787 165.730089 
L 206.382522 165.444396 
L 221.821257 160.962671 
L 237.259993 144.557349 
L 252.698728 130.563516 
L 268.137463 142.287861 
L 283.576198 152.562103 
L 299.014933 155.433703 
L 314.453668 152.835127 
L 329.892404 155.06645 
L 345.331139 159.378294 
L 360.769874 161.510592 
L 376.208609 164.807944 
L 391.647344 165.662899 
L 407.08608 164.605405 
" style="fill:none;stroke:#1b9e77;stroke-linecap:square;stroke-opacity:0.5;stroke-width:1.5;"/>
   </g>
   <g id="line2d_61">
    <path clip-path="url(#p1698913a7c)" d="M 51.99517 165.937426 
L 67.433906 165.927563 
L 82.872641 165.903433 
L 98.311376 165.680485 
L 113.750111 165.769079 
L 129.188846 165.862138 
L 144.627582 165.913939 
L 160.066317 165.918883 
L 175.505052 165.88898 
L 190.943787 165.885125 
L 206.382522 165.884066 
L 221.821257 165.886017 
L 237.259993 165.676303 
L 252.698728 163.801868 
L 268.137463 149.255648 
L 283.576198 117.625708 
L 299.014933 130.786002 
L 314.453668 138.81342 
L 329.892404 129.761341 
L 345.331139 157.62422 
L 360.769874 164.906911 
L 376.208609 163.650964 
L 391.647344 164.430612 
L 407.08608 162.545296 
" style="fill:none;stroke:#1b9e77;stroke-linecap:square;stroke-opacity:0.5;stroke-width:1.5;"/>
   </g>
   <g id="line2d_62">
    <path clip-path="url(#p1698913a7c)" d="M 51.99517 163.752578 
L 67.433906 165.595463 
L 82.872641 165.716616 
L 98.311376 165.505704 
L 113.750111 165.396178 
L 129.188846 165.642981 
L 144.627582 165.824216 
L 160.066317 165.855411 
L 175.505052 165.719586 
L 190.943787 165.755978 
L 206.382522 165.789949 
L 221.821257 153.28912 
L 237.259993 148.374846 
L 252.698728 153.337942 
L 268.137463 90.825025 
L 283.576198 139.002186 
L 299.014933 161.466968 
L 314.453668 156.35443 
L 329.892404 161.436378 
L 345.331139 165.287188 
L 360.769874 164.607817 
L 376.208609 155.955116 
L 391.647344 164.718346 
L 407.08608 164.12541 
" style="fill:none;stroke:#1b9e77;stroke-linecap:square;stroke-opacity:0.5;stroke-width:1.5;"/>
   </g>
   <g id="line2d_63">
    <path clip-path="url(#p1698913a7c)" d="M 51.99517 165.918352 
L 67.433906 165.886292 
L 82.872641 165.801757 
L 98.311376 161.800578 
L 113.750111 159.148847 
L 129.188846 155.205182 
L 144.627582 135.853813 
L 160.066317 149.992449 
L 175.505052 163.530704 
L 190.943787 165.154075 
L 206.382522 165.163478 
L 221.821257 163.558574 
L 237.259993 161.055045 
L 252.698728 78.839502 
L 268.137463 151.434939 
L 283.576198 165.182669 
L 299.014933 165.214763 
L 314.453668 165.328579 
L 329.892404 165.719318 
L 345.331139 165.893499 
L 360.769874 165.923126 
L 376.208609 165.946233 
L 391.647344 165.945657 
L 407.08608 165.838 
" style="fill:none;stroke:#1b9e77;stroke-linecap:square;stroke-opacity:0.5;stroke-width:1.5;"/>
   </g>
   <g id="line2d_64">
    <path clip-path="url(#p1698913a7c)" d="M 51.99517 165.287556 
L 67.433906 161.380109 
L 82.872641 146.425336 
L 98.311376 149.51392 
L 113.750111 157.678086 
L 129.188846 162.148183 
L 144.627582 158.862965 
L 160.066317 161.506104 
L 175.505052 150.478628 
L 190.943787 159.915539 
L 206.382522 158.790278 
L 221.821257 134.139627 
L 237.259993 125.27738 
L 252.698728 154.85106 
L 268.137463 161.932397 
L 283.576198 164.397284 
L 299.014933 165.634398 
L 314.453668 165.641463 
L 329.892404 165.826369 
L 345.331139 165.901567 
L 360.769874 165.909916 
L 376.208609 165.943697 
L 391.647344 165.95314 
L 407.08608 165.940424 
" style="fill:none;stroke:#1b9e77;stroke-linecap:square;stroke-opacity:0.5;stroke-width:1.5;"/>
   </g>
   <g id="line2d_65">
    <path clip-path="url(#p1698913a7c)" d="M 51.99517 165.487694 
L 67.433906 164.338443 
L 82.872641 164.550726 
L 98.311376 165.107863 
L 113.750111 165.276929 
L 129.188846 165.624863 
L 144.627582 165.799466 
L 160.066317 165.872221 
L 175.505052 165.884384 
L 190.943787 165.908639 
L 206.382522 165.926131 
L 221.821257 165.938177 
L 237.259993 165.941905 
L 252.698728 165.944661 
L 268.137463 165.935934 
L 283.576198 165.869278 
L 299.014933 161.390116 
L 314.453668 152.78414 
L 329.892404 140.908837 
L 345.331139 127.293107 
L 360.769874 119.678896 
L 376.208609 137.771723 
L 391.647344 155.326443 
L 407.08608 154.77485 
" style="fill:none;stroke:#1b9e77;stroke-linecap:square;stroke-opacity:0.5;stroke-width:1.5;"/>
   </g>
   <g id="line2d_66">
    <path clip-path="url(#p1698913a7c)" d="M 51.99517 163.009282 
L 67.433906 162.504774 
L 82.872641 160.294933 
L 98.311376 163.077977 
L 113.750111 161.260694 
L 129.188846 158.070064 
L 144.627582 163.637456 
L 160.066317 164.010864 
L 175.505052 158.054184 
L 190.943787 155.414606 
L 206.382522 138.613317 
L 221.821257 80.306273 
L 237.259993 151.654643 
L 252.698728 165.343216 
L 268.137463 165.840961 
L 283.576198 165.292129 
L 299.014933 164.735978 
L 314.453668 165.904131 
L 329.892404 165.952202 
L 345.331139 165.902332 
L 360.769874 165.453689 
L 376.208609 165.588543 
L 391.647344 165.059695 
L 407.08608 164.353481 
" style="fill:none;stroke:#1b9e77;stroke-linecap:square;stroke-opacity:0.5;stroke-width:1.5;"/>
   </g>
   <g id="line2d_67">
    <path clip-path="url(#p1698913a7c)" d="M 51.99517 165.912707 
L 67.433906 165.720153 
L 82.872641 165.55108 
L 98.311376 164.773148 
L 113.750111 163.686239 
L 129.188846 159.710312 
L 144.627582 150.881803 
L 160.066317 142.228786 
L 175.505052 149.011199 
L 190.943787 155.397048 
L 206.382522 159.515827 
L 221.821257 156.664482 
L 237.259993 149.786559 
L 252.698728 138.706669 
L 268.137463 144.268694 
L 283.576198 150.040277 
L 299.014933 161.549533 
L 314.453668 163.464294 
L 329.892404 165.474106 
L 345.331139 165.678707 
L 360.769874 165.715053 
L 376.208609 165.680718 
L 391.647344 164.50099 
L 407.08608 165.417046 
" style="fill:none;stroke:#1b9e77;stroke-linecap:square;stroke-opacity:0.5;stroke-width:1.5;"/>
   </g>
   <g id="line2d_68">
    <path clip-path="url(#p1698913a7c)" d="M 51.99517 165.26408 
L 67.433906 165.042425 
L 82.872641 163.707598 
L 98.311376 163.357223 
L 113.750111 159.642038 
L 129.188846 160.4928 
L 144.627582 163.657789 
L 160.066317 162.755527 
L 175.505052 159.998496 
L 190.943787 158.472706 
L 206.382522 152.147381 
L 221.821257 149.640861 
L 237.259993 160.547609 
L 252.698728 157.426341 
L 268.137463 137.841462 
L 283.576198 111.250918 
L 299.014933 165.240883 
L 314.453668 165.147424 
L 329.892404 164.63452 
L 345.331139 164.489532 
L 360.769874 155.376846 
L 376.208609 163.010977 
L 391.647344 164.699323 
L 407.08608 165.490666 
" style="fill:none;stroke:#1b9e77;stroke-linecap:square;stroke-opacity:0.5;stroke-width:1.5;"/>
   </g>
   <g id="line2d_69">
    <path clip-path="url(#p1698913a7c)" d="M 51.99517 165.750058 
L 67.433906 165.888657 
L 82.872641 165.617921 
L 98.311376 165.069241 
L 113.750111 92.005729 
L 129.188846 164.904695 
L 144.627582 165.685955 
L 160.066317 163.35129 
L 175.505052 118.026741 
L 190.943787 127.123095 
L 206.382522 158.868616 
L 221.821257 158.089841 
L 237.259993 164.270602 
L 252.698728 165.61725 
L 268.137463 165.787862 
L 283.576198 165.877014 
L 299.014933 165.889572 
L 314.453668 165.89907 
L 329.892404 165.900852 
L 345.331139 165.924054 
L 360.769874 165.941091 
L 376.208609 165.957798 
L 391.647344 165.959791 
L 407.08608 165.928632 
" style="fill:none;stroke:#1b9e77;stroke-linecap:square;stroke-opacity:0.5;stroke-width:1.5;"/>
   </g>
   <g id="line2d_70">
    <path clip-path="url(#p1698913a7c)" d="M 51.99517 158.393987 
L 67.433906 154.608938 
L 82.872641 152.540125 
L 98.311376 159.142787 
L 113.750111 160.826349 
L 129.188846 164.741804 
L 144.627582 165.445485 
L 160.066317 165.152029 
L 175.505052 163.369207 
L 190.943787 163.070226 
L 206.382522 164.555167 
L 221.821257 164.734217 
L 237.259993 164.489141 
L 252.698728 163.998461 
L 268.137463 164.192107 
L 283.576198 165.010401 
L 299.014933 165.415338 
L 314.453668 165.439974 
L 329.892404 165.12947 
L 345.331139 164.613954 
L 360.769874 163.947016 
L 376.208609 164.932137 
L 391.647344 161.561327 
L 407.08608 54.025775 
" style="fill:none;stroke:#1b9e77;stroke-linecap:square;stroke-opacity:0.5;stroke-width:1.5;"/>
   </g>
   <g id="line2d_71">
    <path clip-path="url(#p1698913a7c)" d="M 51.99517 157.380395 
L 67.433906 159.382362 
L 82.872641 163.390983 
L 98.311376 164.10564 
L 113.750111 165.191485 
L 129.188846 165.084287 
L 144.627582 164.558889 
L 160.066317 164.851441 
L 175.505052 165.13369 
L 190.943787 165.283101 
L 206.382522 165.300779 
L 221.821257 165.43024 
L 237.259993 165.571517 
L 252.698728 165.67265 
L 268.137463 165.704156 
L 283.576198 165.696113 
L 299.014933 165.697206 
L 314.453668 165.6466 
L 329.892404 165.536853 
L 345.331139 165.399747 
L 360.769874 165.231783 
L 376.208609 165.630973 
L 391.647344 163.694538 
L 407.08608 14.76 
" style="fill:none;stroke:#1b9e77;stroke-linecap:square;stroke-opacity:0.5;stroke-width:1.5;"/>
   </g>
   <g id="line2d_72">
    <path clip-path="url(#p1698913a7c)" d="M 51.99517 158.812681 
L 67.433906 162.311949 
L 82.872641 164.940009 
L 98.311376 165.044737 
L 113.750111 164.81428 
L 129.188846 164.889374 
L 144.627582 161.784615 
L 160.066317 164.856601 
L 175.505052 165.469645 
L 190.943787 165.508209 
L 206.382522 165.67075 
L 221.821257 164.044623 
L 237.259993 163.370095 
L 252.698728 165.870006 
L 268.137463 165.446698 
L 283.576198 149.67175 
L 299.014933 151.149242 
L 314.453668 149.860295 
L 329.892404 144.205961 
L 345.331139 143.7001 
L 360.769874 136.277985 
L 376.208609 149.896184 
L 391.647344 153.801392 
L 407.08608 157.938242 
" style="fill:none;stroke:#1b9e77;stroke-linecap:square;stroke-opacity:0.5;stroke-width:1.5;"/>
   </g>
   <g id="line2d_73">
    <path clip-path="url(#p1698913a7c)" d="M 51.99517 154.059222 
L 67.433906 143.820396 
L 82.872641 104.087411 
L 98.311376 158.679315 
L 113.750111 164.886986 
L 129.188846 165.453646 
L 144.627582 165.596715 
L 160.066317 165.288062 
L 175.505052 163.809988 
L 190.943787 165.824669 
L 206.382522 165.929869 
L 221.821257 165.717423 
L 237.259993 163.861642 
L 252.698728 129.346006 
L 268.137463 158.181263 
L 283.576198 154.778131 
L 299.014933 160.314376 
L 314.453668 161.392076 
L 329.892404 164.217457 
L 345.331139 165.032043 
L 360.769874 164.872739 
L 376.208609 165.603113 
L 391.647344 164.666014 
L 407.08608 163.916858 
" style="fill:none;stroke:#1b9e77;stroke-linecap:square;stroke-opacity:0.5;stroke-width:1.5;"/>
   </g>
   <g id="line2d_74">
    <path clip-path="url(#p1698913a7c)" d="M 51.99517 165.734465 
L 67.433906 165.433248 
L 82.872641 165.700106 
L 98.311376 164.979294 
L 113.750111 165.890841 
L 129.188846 165.809392 
L 144.627582 165.707388 
L 160.066317 165.746197 
L 175.505052 165.761903 
L 190.943787 165.790294 
L 206.382522 165.794511 
L 221.821257 165.834911 
L 237.259993 165.862563 
L 252.698728 165.925119 
L 268.137463 165.933707 
L 283.576198 165.909081 
L 299.014933 165.760613 
L 314.453668 164.323597 
L 329.892404 123.707794 
L 345.331139 59.982132 
L 360.769874 139.286174 
L 376.208609 164.668078 
L 391.647344 164.301844 
L 407.08608 165.492176 
" style="fill:none;stroke:#1b9e77;stroke-linecap:square;stroke-opacity:0.5;stroke-width:1.5;"/>
   </g>
   <g id="line2d_75">
    <path clip-path="url(#p1698913a7c)" d="M 51.99517 122.577862 
L 67.433906 81.671784 
L 82.872641 148.422856 
L 98.311376 156.81513 
L 113.750111 159.511643 
L 129.188846 157.464219 
L 144.627582 161.719476 
L 160.066317 163.623419 
L 175.505052 163.966199 
L 190.943787 164.829475 
L 206.382522 165.420582 
L 221.821257 165.654382 
L 237.259993 165.732463 
L 252.698728 165.885074 
L 268.137463 165.92444 
L 283.576198 165.884696 
L 299.014933 165.766439 
L 314.453668 165.899688 
L 329.892404 165.886483 
L 345.331139 165.830679 
L 360.769874 165.739798 
L 376.208609 165.629649 
L 391.647344 165.48067 
L 407.08608 163.99833 
" style="fill:none;stroke:#1b9e77;stroke-linecap:square;stroke-opacity:0.5;stroke-width:1.5;"/>
   </g>
   <g id="line2d_76">
    <path clip-path="url(#p1698913a7c)" d="M 51.99517 160.293296 
L 67.433906 144.918656 
L 82.872641 138.133029 
L 98.311376 105.756963 
L 113.750111 126.274602 
L 129.188846 151.378787 
L 144.627582 160.056697 
L 160.066317 162.178225 
L 175.505052 163.273231 
L 190.943787 165.197638 
L 206.382522 165.716069 
L 221.821257 165.863329 
L 237.259993 165.879124 
L 252.698728 165.819597 
L 268.137463 165.864502 
L 283.576198 165.90917 
L 299.014933 165.850338 
L 314.453668 165.84666 
L 329.892404 165.884842 
L 345.331139 165.879152 
L 360.769874 165.863778 
L 376.208609 165.870684 
L 391.647344 165.890602 
L 407.08608 165.736455 
" style="fill:none;stroke:#1b9e77;stroke-linecap:square;stroke-opacity:0.5;stroke-width:1.5;"/>
   </g>
   <g id="line2d_77">
    <path clip-path="url(#p1698913a7c)" d="M 51.99517 119.773828 
L 67.433906 115.059262 
L 82.872641 130.743417 
L 98.311376 146.230256 
L 113.750111 157.999388 
L 129.188846 160.466504 
L 144.627582 163.325272 
L 160.066317 163.913927 
L 175.505052 163.440479 
L 190.943787 163.514437 
L 206.382522 163.87478 
L 221.821257 164.652736 
L 237.259993 165.075152 
L 252.698728 165.567493 
L 268.137463 165.696724 
L 283.576198 165.639059 
L 299.014933 165.477712 
L 314.453668 165.406042 
L 329.892404 165.507499 
L 345.331139 165.512838 
L 360.769874 165.478309 
L 376.208609 165.620115 
L 391.647344 165.751793 
L 407.08608 165.608406 
" style="fill:none;stroke:#1b9e77;stroke-linecap:square;stroke-opacity:0.5;stroke-width:1.5;"/>
   </g>
   <g id="line2d_78">
    <path clip-path="url(#p1698913a7c)" d="M 51.99517 164.062773 
L 67.433906 164.470383 
L 82.872641 165.224845 
L 98.311376 165.44742 
L 113.750111 165.427255 
L 129.188846 165.610717 
L 144.627582 165.579342 
L 160.066317 165.238657 
L 175.505052 160.167406 
L 190.943787 157.086049 
L 206.382522 154.344002 
L 221.821257 152.474722 
L 237.259993 153.21164 
L 252.698728 155.712637 
L 268.137463 145.938998 
L 283.576198 144.546453 
L 299.014933 152.107313 
L 314.453668 162.420367 
L 329.892404 150.474617 
L 345.331139 147.967892 
L 360.769874 157.754064 
L 376.208609 156.929422 
L 391.647344 162.094019 
L 407.08608 165.044434 
" style="fill:none;stroke:#1b9e77;stroke-linecap:square;stroke-opacity:0.5;stroke-width:1.5;"/>
   </g>
   <g id="line2d_79">
    <path clip-path="url(#p1698913a7c)" d="M 51.99517 165.878602 
L 67.433906 165.760989 
L 82.872641 165.842045 
L 98.311376 165.931299 
L 113.750111 165.947618 
L 129.188846 165.947689 
L 144.627582 165.933965 
L 160.066317 165.923913 
L 175.505052 165.922135 
L 190.943787 165.920079 
L 206.382522 165.921351 
L 221.821257 165.876865 
L 237.259993 165.737718 
L 252.698728 165.397825 
L 268.137463 148.383131 
L 283.576198 144.676682 
L 299.014933 107.56721 
L 314.453668 160.701906 
L 329.892404 151.591783 
L 345.331139 121.044911 
L 360.769874 149.025749 
L 376.208609 164.320434 
L 391.647344 164.435716 
L 407.08608 165.645818 
" style="fill:none;stroke:#1b9e77;stroke-linecap:square;stroke-opacity:0.5;stroke-width:1.5;"/>
   </g>
   <g id="line2d_80">
    <path clip-path="url(#p1698913a7c)" d="M 51.99517 161.281905 
L 67.433906 163.12572 
L 82.872641 162.299572 
L 98.311376 164.470915 
L 113.750111 153.230456 
L 129.188846 92.014847 
L 144.627582 158.182522 
L 160.066317 164.761174 
L 175.505052 164.499205 
L 190.943787 164.351477 
L 206.382522 165.173707 
L 221.821257 165.663868 
L 237.259993 165.76341 
L 252.698728 165.920655 
L 268.137463 165.93147 
L 283.576198 158.763642 
L 299.014933 144.542237 
L 314.453668 142.954011 
L 329.892404 158.433738 
L 345.331139 163.297463 
L 360.769874 165.175653 
L 376.208609 165.209078 
L 391.647344 158.792457 
L 407.08608 165.496247 
" style="fill:none;stroke:#1b9e77;stroke-linecap:square;stroke-opacity:0.5;stroke-width:1.5;"/>
   </g>
   <g id="line2d_81">
    <path clip-path="url(#p1698913a7c)" d="M 51.99517 129.890956 
L 67.433906 144.701626 
L 82.872641 151.871271 
L 98.311376 107.326421 
L 113.750111 134.223668 
L 129.188846 151.485962 
L 144.627582 164.441835 
L 160.066317 165.116287 
L 175.505052 165.00211 
L 190.943787 165.363673 
L 206.382522 165.665612 
L 221.821257 165.828774 
L 237.259993 165.876149 
L 252.698728 165.924704 
L 268.137463 165.93987 
L 283.576198 165.93815 
L 299.014933 165.935714 
L 314.453668 165.950039 
L 329.892404 165.946373 
L 345.331139 165.928638 
L 360.769874 165.831316 
L 376.208609 165.420255 
L 391.647344 164.890273 
L 407.08608 164.835756 
" style="fill:none;stroke:#1b9e77;stroke-linecap:square;stroke-opacity:0.5;stroke-width:1.5;"/>
   </g>
   <g id="line2d_82">
    <path clip-path="url(#p1698913a7c)" d="M 51.99517 165.911044 
L 67.433906 165.722091 
L 82.872641 165.771653 
L 98.311376 165.803855 
L 113.750111 165.74859 
L 129.188846 165.822947 
L 144.627582 165.895339 
L 160.066317 165.918747 
L 175.505052 165.926905 
L 190.943787 165.921509 
L 206.382522 165.90507 
L 221.821257 165.931451 
L 237.259993 165.906916 
L 252.698728 165.622043 
L 268.137463 165.393586 
L 283.576198 165.477649 
L 299.014933 163.948476 
L 314.453668 131.968386 
L 329.892404 135.716849 
L 345.331139 123.967539 
L 360.769874 109.35694 
L 376.208609 160.445493 
L 391.647344 162.098515 
L 407.08608 159.153836 
" style="fill:none;stroke:#1b9e77;stroke-linecap:square;stroke-opacity:0.5;stroke-width:1.5;"/>
   </g>
   <g id="line2d_83">
    <path clip-path="url(#p1698913a7c)" d="M 51.99517 164.16715 
L 67.433906 162.338573 
L 82.872641 155.458004 
L 98.311376 151.014714 
L 113.750111 142.929098 
L 129.188846 127.071483 
L 144.627582 146.247765 
L 160.066317 142.554239 
L 175.505052 161.553262 
L 190.943787 159.345607 
L 206.382522 148.174553 
L 221.821257 150.678054 
L 237.259993 163.947387 
L 252.698728 165.608312 
L 268.137463 165.805955 
L 283.576198 165.655198 
L 299.014933 165.540171 
L 314.453668 165.887874 
L 329.892404 165.894331 
L 345.331139 165.914525 
L 360.769874 165.925205 
L 376.208609 165.939615 
L 391.647344 165.917508 
L 407.08608 165.766845 
" style="fill:none;stroke:#1b9e77;stroke-linecap:square;stroke-opacity:0.5;stroke-width:1.5;"/>
   </g>
   <g id="line2d_84">
    <path clip-path="url(#p1698913a7c)" d="M 51.99517 158.064391 
L 67.433906 159.272334 
L 82.872641 163.055271 
L 98.311376 164.960238 
L 113.750111 165.199994 
L 129.188846 165.474879 
L 144.627582 165.642557 
L 160.066317 165.782602 
L 175.505052 165.821999 
L 190.943787 165.826891 
L 206.382522 165.805384 
L 221.821257 165.799653 
L 237.259993 165.758304 
L 252.698728 165.548186 
L 268.137463 165.381669 
L 283.576198 165.125795 
L 299.014933 163.027249 
L 314.453668 160.99706 
L 329.892404 156.634748 
L 345.331139 114.225677 
L 360.769874 146.193086 
L 376.208609 136.428606 
L 391.647344 133.618773 
L 407.08608 155.690082 
" style="fill:none;stroke:#1b9e77;stroke-linecap:square;stroke-opacity:0.5;stroke-width:1.5;"/>
   </g>
   <g id="line2d_85">
    <path clip-path="url(#p1698913a7c)" d="M 51.99517 165.900538 
L 67.433906 165.74055 
L 82.872641 165.541637 
L 98.311376 156.101833 
L 113.750111 161.268597 
L 129.188846 157.681776 
L 144.627582 152.468364 
L 160.066317 153.679728 
L 175.505052 146.616122 
L 190.943787 155.897425 
L 206.382522 149.787721 
L 221.821257 165.452941 
L 237.259993 161.893504 
L 252.698728 159.03728 
L 268.137463 151.116455 
L 283.576198 149.809256 
L 299.014933 135.644448 
L 314.453668 165.288593 
L 329.892404 165.088537 
L 345.331139 158.090593 
L 360.769874 159.988839 
L 376.208609 165.452059 
L 391.647344 165.875968 
L 407.08608 165.912663 
" style="fill:none;stroke:#1b9e77;stroke-linecap:square;stroke-opacity:0.5;stroke-width:1.5;"/>
   </g>
   <g id="line2d_86">
    <path clip-path="url(#p1698913a7c)" d="M 51.99517 165.930756 
L 67.433906 165.882846 
L 82.872641 165.899776 
L 98.311376 165.937129 
L 113.750111 165.939409 
L 129.188846 165.94136 
L 144.627582 165.399252 
L 160.066317 159.062538 
L 175.505052 153.75527 
L 190.943787 149.564672 
L 206.382522 149.471897 
L 221.821257 157.338516 
L 237.259993 162.323183 
L 252.698728 158.909136 
L 268.137463 150.914587 
L 283.576198 151.214271 
L 299.014933 161.748065 
L 314.453668 164.925015 
L 329.892404 154.946289 
L 345.331139 161.040373 
L 360.769874 141.856332 
L 376.208609 134.539249 
L 391.647344 162.737324 
L 407.08608 164.058182 
" style="fill:none;stroke:#1b9e77;stroke-linecap:square;stroke-opacity:0.5;stroke-width:1.5;"/>
   </g>
   <g id="line2d_87">
    <path clip-path="url(#p1698913a7c)" d="M 51.99517 150.471063 
L 67.433906 135.557501 
L 82.872641 148.092794 
L 98.311376 138.565385 
L 113.750111 152.789477 
L 129.188846 163.51602 
L 144.627582 165.019462 
L 160.066317 155.17374 
L 175.505052 153.922585 
L 190.943787 164.158267 
L 206.382522 163.908065 
L 221.821257 155.401162 
L 237.259993 135.205799 
L 252.698728 161.834268 
L 268.137463 165.508034 
L 283.576198 164.687227 
L 299.014933 165.575825 
L 314.453668 165.763002 
L 329.892404 165.358209 
L 345.331139 165.709291 
L 360.769874 165.746056 
L 376.208609 165.75229 
L 391.647344 165.743697 
L 407.08608 165.876211 
" style="fill:none;stroke:#1b9e77;stroke-linecap:square;stroke-opacity:0.5;stroke-width:1.5;"/>
   </g>
   <g id="line2d_88">
    <path clip-path="url(#p1698913a7c)" d="M 51.99517 118.375869 
L 67.433906 122.83021 
L 82.872641 137.427152 
L 98.311376 157.955192 
L 113.750111 162.602467 
L 129.188846 164.182206 
L 144.627582 164.229914 
L 160.066317 164.679548 
L 175.505052 165.048749 
L 190.943787 165.456923 
L 206.382522 165.526327 
L 221.821257 164.804906 
L 237.259993 162.317955 
L 252.698728 161.943227 
L 268.137463 164.455308 
L 283.576198 164.587003 
L 299.014933 164.472248 
L 314.453668 163.879896 
L 329.892404 162.884276 
L 345.331139 164.8239 
L 360.769874 165.067951 
L 376.208609 164.86338 
L 391.647344 163.707051 
L 407.08608 143.213769 
" style="fill:none;stroke:#1b9e77;stroke-linecap:square;stroke-opacity:0.5;stroke-width:1.5;"/>
   </g>
   <g id="line2d_89">
    <path clip-path="url(#p1698913a7c)" d="M 51.99517 163.056822 
L 67.433906 163.032695 
L 82.872641 157.712046 
L 98.311376 150.798479 
L 113.750111 158.189332 
L 129.188846 162.110306 
L 144.627582 165.22058 
L 160.066317 165.053096 
L 175.505052 165.653577 
L 190.943787 165.811439 
L 206.382522 165.846232 
L 221.821257 165.614131 
L 237.259993 159.509962 
L 252.698728 158.127226 
L 268.137463 148.659053 
L 283.576198 137.677072 
L 299.014933 145.941387 
L 314.453668 162.855346 
L 329.892404 165.454976 
L 345.331139 163.384446 
L 360.769874 125.255329 
L 376.208609 159.594393 
L 391.647344 163.407595 
L 407.08608 161.369907 
" style="fill:none;stroke:#1b9e77;stroke-linecap:square;stroke-opacity:0.5;stroke-width:1.5;"/>
   </g>
   <g id="line2d_90">
    <path clip-path="url(#p1698913a7c)" d="M 51.99517 163.580967 
L 67.433906 165.543322 
L 82.872641 165.404094 
L 98.311376 165.570242 
L 113.750111 165.528922 
L 129.188846 165.619087 
L 144.627582 164.834883 
L 160.066317 165.544324 
L 175.505052 165.718334 
L 190.943787 165.75308 
L 206.382522 165.552565 
L 221.821257 164.189857 
L 237.259993 165.011507 
L 252.698728 165.907885 
L 268.137463 165.817868 
L 283.576198 161.101913 
L 299.014933 127.507093 
L 314.453668 156.049099 
L 329.892404 164.687353 
L 345.331139 162.685148 
L 360.769874 65.189959 
L 376.208609 165.321094 
L 391.647344 165.857717 
L 407.08608 151.359117 
" style="fill:none;stroke:#1b9e77;stroke-linecap:square;stroke-opacity:0.5;stroke-width:1.5;"/>
   </g>
   <g id="line2d_91">
    <path clip-path="url(#p1698913a7c)" d="M 51.99517 165.941406 
L 67.433906 165.94604 
L 82.872641 165.916964 
L 98.311376 165.726457 
L 113.750111 161.316461 
L 129.188846 154.952461 
L 144.627582 154.24157 
L 160.066317 143.648813 
L 175.505052 84.373135 
L 190.943787 141.474824 
L 206.382522 160.639028 
L 221.821257 148.496554 
L 237.259993 164.040757 
L 252.698728 164.748267 
L 268.137463 165.436101 
L 283.576198 165.608755 
L 299.014933 165.652678 
L 314.453668 165.750045 
L 329.892404 165.817587 
L 345.331139 165.890669 
L 360.769874 165.922535 
L 376.208609 165.95299 
L 391.647344 165.95656 
L 407.08608 165.88477 
" style="fill:none;stroke:#1b9e77;stroke-linecap:square;stroke-opacity:0.5;stroke-width:1.5;"/>
   </g>
   <g id="line2d_92">
    <path clip-path="url(#p1698913a7c)" d="M 51.99517 149.735889 
L 67.433906 128.928005 
L 82.872641 133.876038 
L 98.311376 151.060953 
L 113.750111 156.210377 
L 129.188846 159.001984 
L 144.627582 158.961021 
L 160.066317 157.477692 
L 175.505052 153.775533 
L 190.943787 157.287509 
L 206.382522 161.004277 
L 221.821257 162.479807 
L 237.259993 162.780804 
L 252.698728 164.091698 
L 268.137463 164.805634 
L 283.576198 165.150952 
L 299.014933 165.263833 
L 314.453668 164.83701 
L 329.892404 164.187331 
L 345.331139 163.206445 
L 360.769874 162.195062 
L 376.208609 163.394507 
L 391.647344 164.671784 
L 407.08608 164.951286 
" style="fill:none;stroke:#1b9e77;stroke-linecap:square;stroke-opacity:0.5;stroke-width:1.5;"/>
   </g>
   <g id="line2d_93">
    <path clip-path="url(#p1698913a7c)" d="M 51.99517 160.613586 
L 67.433906 157.245473 
L 82.872641 159.589622 
L 98.311376 164.79239 
L 113.750111 164.6497 
L 129.188846 164.967765 
L 144.627582 165.637927 
L 160.066317 165.810329 
L 175.505052 165.781124 
L 190.943787 165.878424 
L 206.382522 165.900104 
L 221.821257 162.072721 
L 237.259993 162.32792 
L 252.698728 159.355766 
L 268.137463 151.807456 
L 283.576198 152.17428 
L 299.014933 156.476555 
L 314.453668 161.433815 
L 329.892404 162.295199 
L 345.331139 154.999075 
L 360.769874 93.013936 
L 376.208609 153.861213 
L 391.647344 164.62184 
L 407.08608 164.029208 
" style="fill:none;stroke:#1b9e77;stroke-linecap:square;stroke-opacity:0.5;stroke-width:1.5;"/>
   </g>
   <g id="line2d_94">
    <path clip-path="url(#p1698913a7c)" d="M 51.99517 163.160157 
L 67.433906 138.026085 
L 82.872641 146.110751 
L 98.311376 162.298618 
L 113.750111 153.368151 
L 129.188846 74.777784 
L 144.627582 143.52185 
L 160.066317 164.419858 
L 175.505052 165.233757 
L 190.943787 165.522716 
L 206.382522 165.810154 
L 221.821257 165.883115 
L 237.259993 165.887727 
L 252.698728 165.907769 
L 268.137463 165.92031 
L 283.576198 165.943752 
L 299.014933 165.950228 
L 314.453668 165.946381 
L 329.892404 165.937509 
L 345.331139 165.940545 
L 360.769874 165.949041 
L 376.208609 165.959161 
L 391.647344 165.96 
L 407.08608 165.900012 
" style="fill:none;stroke:#1b9e77;stroke-linecap:square;stroke-opacity:0.5;stroke-width:1.5;"/>
   </g>
   <g id="line2d_95">
    <path clip-path="url(#p1698913a7c)" d="M 51.99517 161.193822 
L 67.433906 154.499047 
L 82.872641 148.005808 
L 98.311376 155.199558 
L 113.750111 157.236947 
L 129.188846 137.928435 
L 144.627582 163.095481 
L 160.066317 165.634112 
L 175.505052 165.6034 
L 190.943787 165.703279 
L 206.382522 165.814108 
L 221.821257 165.670102 
L 237.259993 165.61932 
L 252.698728 165.904814 
L 268.137463 165.802857 
L 283.576198 161.010682 
L 299.014933 157.457147 
L 314.453668 156.249101 
L 329.892404 149.635235 
L 345.331139 161.185468 
L 360.769874 151.99595 
L 376.208609 135.857068 
L 391.647344 158.846916 
L 407.08608 164.186768 
" style="fill:none;stroke:#1b9e77;stroke-linecap:square;stroke-opacity:0.5;stroke-width:1.5;"/>
   </g>
   <g id="line2d_96">
    <path clip-path="url(#p1698913a7c)" d="M 51.99517 165.771024 
L 67.433906 165.444015 
L 82.872641 165.619408 
L 98.311376 165.816418 
L 113.750111 165.860254 
L 129.188846 165.897762 
L 144.627582 165.915376 
L 160.066317 165.93094 
L 175.505052 165.936942 
L 190.943787 165.93947 
L 206.382522 165.937367 
L 221.821257 165.944695 
L 237.259993 165.934296 
L 252.698728 165.836959 
L 268.137463 157.475307 
L 283.576198 101.324117 
L 299.014933 120.839368 
L 314.453668 136.112964 
L 329.892404 155.739061 
L 345.331139 160.727285 
L 360.769874 163.646557 
L 376.208609 164.399849 
L 391.647344 161.429483 
L 407.08608 155.856513 
" style="fill:none;stroke:#1b9e77;stroke-linecap:square;stroke-opacity:0.5;stroke-width:1.5;"/>
   </g>
   <g id="line2d_97">
    <path clip-path="url(#p1698913a7c)" d="M 51.99517 139.638696 
L 67.433906 95.51339 
L 82.872641 114.718463 
L 98.311376 153.119972 
L 113.750111 161.285799 
L 129.188846 156.684613 
L 144.627582 163.495128 
L 160.066317 164.365818 
L 175.505052 164.146354 
L 190.943787 164.826997 
L 206.382522 165.452653 
L 221.821257 165.743899 
L 237.259993 165.831903 
L 252.698728 165.910003 
L 268.137463 165.933227 
L 283.576198 165.937042 
L 299.014933 165.934722 
L 314.453668 165.935211 
L 329.892404 165.918074 
L 345.331139 165.878502 
L 360.769874 165.904721 
L 376.208609 165.91774 
L 391.647344 165.89347 
L 407.08608 165.349038 
" style="fill:none;stroke:#1b9e77;stroke-linecap:square;stroke-opacity:0.5;stroke-width:1.5;"/>
   </g>
   <g id="line2d_98">
    <path clip-path="url(#p1698913a7c)" d="M 51.99517 165.495312 
L 67.433906 164.393922 
L 82.872641 164.395187 
L 98.311376 164.119025 
L 113.750111 165.094459 
L 129.188846 165.372385 
L 144.627582 165.599577 
L 160.066317 165.79868 
L 175.505052 165.824537 
L 190.943787 165.84527 
L 206.382522 165.578773 
L 221.821257 160.30973 
L 237.259993 152.328825 
L 252.698728 139.593243 
L 268.137463 126.526084 
L 283.576198 121.381216 
L 299.014933 145.958983 
L 314.453668 155.156031 
L 329.892404 158.46672 
L 345.331139 163.49715 
L 360.769874 164.370357 
L 376.208609 164.236702 
L 391.647344 164.511608 
L 407.08608 165.481653 
" style="fill:none;stroke:#1b9e77;stroke-linecap:square;stroke-opacity:0.5;stroke-width:1.5;"/>
   </g>
   <g id="line2d_99">
    <path clip-path="url(#p1698913a7c)" d="M 51.99517 164.630906 
L 67.433906 159.569275 
L 82.872641 158.565949 
L 98.311376 152.556331 
L 113.750111 163.662362 
L 129.188846 165.44498 
L 144.627582 165.644678 
L 160.066317 165.83794 
L 175.505052 165.684009 
L 190.943787 165.56136 
L 206.382522 145.191263 
L 221.821257 111.406248 
L 237.259993 143.24273 
L 252.698728 144.388975 
L 268.137463 155.686108 
L 283.576198 161.538522 
L 299.014933 163.619147 
L 314.453668 158.995033 
L 329.892404 163.178426 
L 345.331139 165.781443 
L 360.769874 165.109578 
L 376.208609 164.189461 
L 391.647344 164.569382 
L 407.08608 165.281322 
" style="fill:none;stroke:#1b9e77;stroke-linecap:square;stroke-opacity:0.5;stroke-width:1.5;"/>
   </g>
   <g id="line2d_100">
    <path clip-path="url(#p1698913a7c)" d="M 51.99517 165.667913 
L 67.433906 164.855704 
L 82.872641 162.768632 
L 98.311376 158.357687 
L 113.750111 164.242162 
L 129.188846 164.917627 
L 144.627582 163.701258 
L 160.066317 129.470806 
L 175.505052 103.627877 
L 190.943787 148.994326 
L 206.382522 153.423647 
L 221.821257 155.635133 
L 237.259993 153.948585 
L 252.698728 153.119883 
L 268.137463 165.174337 
L 283.576198 165.381039 
L 299.014933 165.304214 
L 314.453668 165.533482 
L 329.892404 165.74631 
L 345.331139 165.851922 
L 360.769874 165.87992 
L 376.208609 165.930055 
L 391.647344 165.944193 
L 407.08608 165.858718 
" style="fill:none;stroke:#1b9e77;stroke-linecap:square;stroke-opacity:0.5;stroke-width:1.5;"/>
   </g>
   <g id="line2d_101">
    <path clip-path="url(#p1698913a7c)" d="M 51.99517 165.750757 
L 67.433906 165.506905 
L 82.872641 165.688084 
L 98.311376 165.849404 
L 113.750111 165.89441 
L 129.188846 165.929408 
L 144.627582 165.936064 
L 160.066317 165.921626 
L 175.505052 165.738417 
L 190.943787 165.863769 
L 206.382522 165.944307 
L 221.821257 165.945578 
L 237.259993 165.941294 
L 252.698728 165.935998 
L 268.137463 165.936141 
L 283.576198 165.931142 
L 299.014933 165.871341 
L 314.453668 165.388616 
L 329.892404 153.201422 
L 345.331139 127.386088 
L 360.769874 121.39249 
L 376.208609 121.907798 
L 391.647344 131.862838 
L 407.08608 158.611532 
" style="fill:none;stroke:#1b9e77;stroke-linecap:square;stroke-opacity:0.5;stroke-width:1.5;"/>
   </g>
   <g id="line2d_102">
    <path clip-path="url(#p1698913a7c)" d="M 51.99517 163.552308 
L 67.433906 162.287932 
L 82.872641 163.96015 
L 98.311376 165.399914 
L 113.750111 165.686021 
L 129.188846 165.78705 
L 144.627582 165.76428 
L 160.066317 165.858101 
L 175.505052 165.812739 
L 190.943787 163.783307 
L 206.382522 150.086731 
L 221.821257 159.975141 
L 237.259993 147.091979 
L 252.698728 69.75345 
L 268.137463 156.757681 
L 283.576198 157.403393 
L 299.014933 160.574497 
L 314.453668 161.352522 
L 329.892404 162.9953 
L 345.331139 164.089773 
L 360.769874 164.372252 
L 376.208609 165.43142 
L 391.647344 165.800788 
L 407.08608 165.758696 
" style="fill:none;stroke:#1b9e77;stroke-linecap:square;stroke-opacity:0.5;stroke-width:1.5;"/>
   </g>
   <g id="line2d_103">
    <path clip-path="url(#p1698913a7c)" d="M 51.99517 145.05391 
L 67.433906 152.791865 
L 82.872641 160.938083 
L 98.311376 162.680828 
L 113.750111 162.196804 
L 129.188846 164.330992 
L 144.627582 164.416239 
L 160.066317 162.672729 
L 175.505052 151.636112 
L 190.943787 145.624444 
L 206.382522 130.128355 
L 221.821257 130.613338 
L 237.259993 150.774045 
L 252.698728 164.263045 
L 268.137463 165.728763 
L 283.576198 165.822258 
L 299.014933 165.672465 
L 314.453668 161.67551 
L 329.892404 165.353128 
L 345.331139 165.741022 
L 360.769874 165.506948 
L 376.208609 164.951093 
L 391.647344 164.998207 
L 407.08608 165.765246 
" style="fill:none;stroke:#1b9e77;stroke-linecap:square;stroke-opacity:0.5;stroke-width:1.5;"/>
   </g>
   <g id="line2d_104">
    <path clip-path="url(#p1698913a7c)" d="M 51.99517 138.244005 
L 67.433906 101.41202 
L 82.872641 124.969832 
L 98.311376 155.079355 
L 113.750111 161.695174 
L 129.188846 163.699917 
L 144.627582 163.762232 
L 160.066317 164.479078 
L 175.505052 165.175844 
L 190.943787 165.442892 
L 206.382522 165.46205 
L 221.821257 165.357445 
L 237.259993 165.310064 
L 252.698728 165.454889 
L 268.137463 164.780689 
L 283.576198 160.611011 
L 299.014933 164.510052 
L 314.453668 164.873199 
L 329.892404 165.159533 
L 345.331139 165.069394 
L 360.769874 164.952112 
L 376.208609 164.868068 
L 391.647344 164.733411 
L 407.08608 154.233163 
" style="fill:none;stroke:#1b9e77;stroke-linecap:square;stroke-opacity:0.5;stroke-width:1.5;"/>
   </g>
   <g id="line2d_105">
    <path clip-path="url(#p1698913a7c)" d="M 51.99517 165.658608 
L 67.433906 164.982251 
L 82.872641 159.825292 
L 98.311376 159.365111 
L 113.750111 155.764023 
L 129.188846 157.583824 
L 144.627582 163.602533 
L 160.066317 164.618451 
L 175.505052 164.105168 
L 190.943787 161.977122 
L 206.382522 159.764507 
L 221.821257 159.654205 
L 237.259993 158.56634 
L 252.698728 157.174754 
L 268.137463 155.711421 
L 283.576198 146.676416 
L 299.014933 159.704441 
L 314.453668 165.313857 
L 329.892404 165.415873 
L 345.331139 161.841248 
L 360.769874 136.223125 
L 376.208609 142.704562 
L 391.647344 150.854103 
L 407.08608 162.248191 
" style="fill:none;stroke:#1b9e77;stroke-linecap:square;stroke-opacity:0.5;stroke-width:1.5;"/>
   </g>
   <g id="line2d_106">
    <path clip-path="url(#p1698913a7c)" d="M 51.99517 165.893469 
L 67.433906 165.722435 
L 82.872641 165.675529 
L 98.311376 155.881778 
L 113.750111 158.378282 
L 129.188846 165.652062 
L 144.627582 165.197493 
L 160.066317 155.093054 
L 175.505052 148.635583 
L 190.943787 156.47455 
L 206.382522 160.866669 
L 221.821257 152.554509 
L 237.259993 108.233044 
L 252.698728 159.779358 
L 268.137463 165.024215 
L 283.576198 165.400462 
L 299.014933 164.751162 
L 314.453668 153.749212 
L 329.892404 162.617897 
L 345.331139 161.879445 
L 360.769874 161.978342 
L 376.208609 159.788698 
L 391.647344 156.195603 
L 407.08608 163.912571 
" style="fill:none;stroke:#1b9e77;stroke-linecap:square;stroke-opacity:0.5;stroke-width:1.5;"/>
   </g>
   <g id="line2d_107">
    <path clip-path="url(#p1698913a7c)" d="M 51.99517 159.573285 
L 67.433906 151.221777 
L 82.872641 147.723707 
L 98.311376 159.059399 
L 113.750111 162.302536 
L 129.188846 164.732171 
L 144.627582 164.86791 
L 160.066317 164.497717 
L 175.505052 162.762829 
L 190.943787 163.770071 
L 206.382522 163.577391 
L 221.821257 152.717896 
L 237.259993 163.394291 
L 252.698728 163.110882 
L 268.137463 163.502737 
L 283.576198 164.847219 
L 299.014933 165.307244 
L 314.453668 164.849047 
L 329.892404 163.692633 
L 345.331139 164.080312 
L 360.769874 165.020006 
L 376.208609 165.716636 
L 391.647344 165.385645 
L 407.08608 73.622097 
" style="fill:none;stroke:#1b9e77;stroke-linecap:square;stroke-opacity:0.5;stroke-width:1.5;"/>
   </g>
   <g id="line2d_108">
    <path clip-path="url(#p1698913a7c)" d="M 51.99517 165.605192 
L 67.433906 165.427373 
L 82.872641 165.515398 
L 98.311376 165.776017 
L 113.750111 165.848036 
L 129.188846 165.918767 
L 144.627582 165.901167 
L 160.066317 165.865012 
L 175.505052 164.842761 
L 190.943787 148.381897 
L 206.382522 134.969781 
L 221.821257 131.923657 
L 237.259993 128.562437 
L 252.698728 132.143513 
L 268.137463 148.476562 
L 283.576198 164.369922 
L 299.014933 165.779456 
L 314.453668 165.774369 
L 329.892404 165.84385 
L 345.331139 165.839044 
L 360.769874 163.635565 
L 376.208609 163.821092 
L 391.647344 163.523241 
L 407.08608 165.591321 
" style="fill:none;stroke:#1b9e77;stroke-linecap:square;stroke-opacity:0.5;stroke-width:1.5;"/>
   </g>
   <g id="line2d_109">
    <path clip-path="url(#p1698913a7c)" d="M 51.99517 141.619649 
L 67.433906 120.785169 
L 82.872641 129.669302 
L 98.311376 150.119326 
L 113.750111 156.515036 
L 129.188846 161.435616 
L 144.627582 163.307129 
L 160.066317 164.714216 
L 175.505052 165.231392 
L 190.943787 165.642 
L 206.382522 165.743287 
L 221.821257 165.688838 
L 237.259993 165.528006 
L 252.698728 165.212154 
L 268.137463 161.336263 
L 283.576198 149.065454 
L 299.014933 164.620276 
L 314.453668 165.50936 
L 329.892404 165.067916 
L 345.331139 165.288693 
L 360.769874 165.539807 
L 376.208609 165.820176 
L 391.647344 165.682821 
L 407.08608 150.193543 
" style="fill:none;stroke:#1b9e77;stroke-linecap:square;stroke-opacity:0.5;stroke-width:1.5;"/>
   </g>
   <g id="line2d_110">
    <path clip-path="url(#p1698913a7c)" d="M 51.99517 165.090881 
L 67.433906 151.051057 
L 82.872641 128.390043 
L 98.311376 118.808954 
L 113.750111 127.634417 
L 129.188846 128.148319 
L 144.627582 162.455841 
L 160.066317 165.18534 
L 175.505052 165.28101 
L 190.943787 165.486221 
L 206.382522 165.695195 
L 221.821257 165.740285 
L 237.259993 165.699267 
L 252.698728 165.839978 
L 268.137463 165.905447 
L 283.576198 165.793126 
L 299.014933 165.90921 
L 314.453668 165.866495 
L 329.892404 165.836636 
L 345.331139 165.867277 
L 360.769874 165.874577 
L 376.208609 165.912345 
L 391.647344 165.926327 
L 407.08608 165.937186 
" style="fill:none;stroke:#1b9e77;stroke-linecap:square;stroke-opacity:0.5;stroke-width:1.5;"/>
   </g>
   <g id="line2d_111">
    <path clip-path="url(#p1698913a7c)" d="M 51.99517 163.612693 
L 67.433906 165.467262 
L 82.872641 165.465651 
L 98.311376 165.555205 
L 113.750111 165.581971 
L 129.188846 165.74588 
L 144.627582 164.807786 
L 160.066317 163.182318 
L 175.505052 162.863261 
L 190.943787 157.757453 
L 206.382522 142.256532 
L 221.821257 139.291824 
L 237.259993 145.173255 
L 252.698728 138.826709 
L 268.137463 142.190535 
L 283.576198 149.889952 
L 299.014933 156.98231 
L 314.453668 153.576787 
L 329.892404 162.458303 
L 345.331139 165.730665 
L 360.769874 165.619522 
L 376.208609 165.672325 
L 391.647344 165.711409 
L 407.08608 165.915823 
" style="fill:none;stroke:#1b9e77;stroke-linecap:square;stroke-opacity:0.5;stroke-width:1.5;"/>
   </g>
   <g id="line2d_112">
    <path clip-path="url(#p1698913a7c)" d="M 51.99517 165.875882 
L 67.433906 165.776169 
L 82.872641 165.836729 
L 98.311376 165.90395 
L 113.750111 165.91478 
L 129.188846 165.93301 
L 144.627582 165.929364 
L 160.066317 165.919156 
L 175.505052 165.737205 
L 190.943787 161.939545 
L 206.382522 150.600444 
L 221.821257 139.72743 
L 237.259993 140.284677 
L 252.698728 141.74274 
L 268.137463 156.042248 
L 283.576198 149.145298 
L 299.014933 149.332352 
L 314.453668 156.486304 
L 329.892404 164.356419 
L 345.331139 165.173089 
L 360.769874 161.950806 
L 376.208609 152.024658 
L 391.647344 155.296877 
L 407.08608 162.406296 
" style="fill:none;stroke:#1b9e77;stroke-linecap:square;stroke-opacity:0.5;stroke-width:1.5;"/>
   </g>
   <g id="line2d_113">
    <path clip-path="url(#p1698913a7c)" d="M 51.99517 163.325771 
L 67.433906 158.403503 
L 82.872641 157.718797 
L 98.311376 158.831701 
L 113.750111 152.507957 
L 129.188846 152.474139 
L 144.627582 145.902563 
L 160.066317 150.786187 
L 175.505052 163.817648 
L 190.943787 163.672988 
L 206.382522 159.402781 
L 221.821257 164.735656 
L 237.259993 161.92695 
L 252.698728 150.775297 
L 268.137463 155.543382 
L 283.576198 151.258361 
L 299.014933 165.536642 
L 314.453668 165.955021 
L 329.892404 165.943783 
L 345.331139 154.757638 
L 360.769874 141.971323 
L 376.208609 162.277796 
L 391.647344 165.875248 
L 407.08608 165.934293 
" style="fill:none;stroke:#d95f02;stroke-linecap:square;stroke-width:1.5;"/>
   </g>
   <g id="patch_3">
    <path d="M 34.240625 173.52 
L 34.240625 7.2 
" style="fill:none;stroke:#000000;stroke-linecap:square;stroke-linejoin:miter;stroke-width:0.8;"/>
   </g>
   <g id="patch_4">
    <path d="M 34.240625 173.52 
L 424.840625 173.52 
" style="fill:none;stroke:#000000;stroke-linecap:square;stroke-linejoin:miter;stroke-width:0.8;"/>
   </g>
   <g id="legend_1">
    <g id="patch_5">
     <path d="M 41.240625 29.878125 
L 92.407813 29.878125 
Q 94.407813 29.878125 94.407813 27.878125 
L 94.407813 14.2 
Q 94.407813 12.2 92.407813 12.2 
L 41.240625 12.2 
Q 39.240625 12.2 39.240625 14.2 
L 39.240625 27.878125 
Q 39.240625 29.878125 41.240625 29.878125 
z
" style="fill:#ffffff;opacity:0.8;stroke:#cccccc;stroke-linejoin:miter;"/>
    </g>
    <g id="line2d_114">
     <path d="M 43.240625 20.298438 
L 63.240625 20.298438 
" style="fill:none;stroke:#d95f02;stroke-linecap:square;stroke-width:1.5;"/>
    </g>
    <g id="line2d_115"/>
    <g id="text_15">
     <!-- real -->
     <defs>
      <path d="M 9.421875 75.984375 
L 18.40625 75.984375 
L 18.40625 0 
L 9.421875 0 
z
" id="DejaVuSans-108"/>
     </defs>
     <g transform="translate(71.240625 23.798438)scale(0.1 -0.1)">
      <use xlink:href="#DejaVuSans-114"/>
      <use x="41.082031" xlink:href="#DejaVuSans-101"/>
      <use x="102.605469" xlink:href="#DejaVuSans-97"/>
      <use x="163.884766" xlink:href="#DejaVuSans-108"/>
     </g>
    </g>
   </g>
  </g>
 </g>
 <defs>
  <clipPath id="p1698913a7c">
   <rect height="166.32" width="390.6" x="34.240625" y="7.2"/>
  </clipPath>
 </defs>
</svg>
