<?xml version="1.0" encoding="utf-8" standalone="no"?>
<!DOCTYPE svg PUBLIC "-//W3C//DTD SVG 1.1//EN"
  "http://www.w3.org/Graphics/SVG/1.1/DTD/svg11.dtd">
<!-- Created with matplotlib (https://matplotlib.org/) -->
<svg height="211.07625pt" version="1.1" viewBox="0 0 436.087315 211.07625" width="436.087315pt" xmlns="http://www.w3.org/2000/svg" xmlns:xlink="http://www.w3.org/1999/xlink">
 <defs>
  <style type="text/css">
*{stroke-linecap:butt;stroke-linejoin:round;}
  </style>
 </defs>
 <g id="figure_1">
  <g id="patch_1">
   <path d="M 0 211.07625 
L 436.087315 211.07625 
L 436.087315 0 
L 0 0 
z
" style="fill:#ffffff;"/>
  </g>
  <g id="axes_1">
   <g id="patch_2">
    <path d="M 34.240625 173.52 
L 424.840625 173.52 
L 424.840625 7.2 
L 34.240625 7.2 
z
" style="fill:#ffffff;"/>
   </g>
   <g id="matplotlib.axis_1">
    <g id="xtick_1">
     <g id="line2d_1">
      <defs>
       <path d="M 0 0 
L 0 3.5 
" id="m25e1b5f688" style="stroke:#000000;stroke-width:0.8;"/>
      </defs>
      <g>
       <use style="stroke:#000000;stroke-width:0.8;" x="36.556435" xlink:href="#m25e1b5f688" y="173.52"/>
      </g>
     </g>
     <g id="text_1">
      <!-- 0 -->
      <defs>
       <path d="M 31.78125 66.40625 
Q 24.171875 66.40625 20.328125 58.90625 
Q 16.5 51.421875 16.5 36.375 
Q 16.5 21.390625 20.328125 13.890625 
Q 24.171875 6.390625 31.78125 6.390625 
Q 39.453125 6.390625 43.28125 13.890625 
Q 47.125 21.390625 47.125 36.375 
Q 47.125 51.421875 43.28125 58.90625 
Q 39.453125 66.40625 31.78125 66.40625 
z
M 31.78125 74.21875 
Q 44.046875 74.21875 50.515625 64.515625 
Q 56.984375 54.828125 56.984375 36.375 
Q 56.984375 17.96875 50.515625 8.265625 
Q 44.046875 -1.421875 31.78125 -1.421875 
Q 19.53125 -1.421875 13.0625 8.265625 
Q 6.59375 17.96875 6.59375 36.375 
Q 6.59375 54.828125 13.0625 64.515625 
Q 19.53125 74.21875 31.78125 74.21875 
z
" id="DejaVuSans-48"/>
      </defs>
      <g transform="translate(33.375185 188.118438)scale(0.1 -0.1)">
       <use xlink:href="#DejaVuSans-48"/>
      </g>
     </g>
    </g>
    <g id="xtick_2">
     <g id="line2d_2">
      <g>
       <use style="stroke:#000000;stroke-width:0.8;" x="113.750111" xlink:href="#m25e1b5f688" y="173.52"/>
      </g>
     </g>
     <g id="text_2">
      <!-- 5 -->
      <defs>
       <path d="M 10.796875 72.90625 
L 49.515625 72.90625 
L 49.515625 64.59375 
L 19.828125 64.59375 
L 19.828125 46.734375 
Q 21.96875 47.46875 24.109375 47.828125 
Q 26.265625 48.1875 28.421875 48.1875 
Q 40.625 48.1875 47.75 41.5 
Q 54.890625 34.8125 54.890625 23.390625 
Q 54.890625 11.625 47.5625 5.09375 
Q 40.234375 -1.421875 26.90625 -1.421875 
Q 22.3125 -1.421875 17.546875 -0.640625 
Q 12.796875 0.140625 7.71875 1.703125 
L 7.71875 11.625 
Q 12.109375 9.234375 16.796875 8.0625 
Q 21.484375 6.890625 26.703125 6.890625 
Q 35.15625 6.890625 40.078125 11.328125 
Q 45.015625 15.765625 45.015625 23.390625 
Q 45.015625 31 40.078125 35.4375 
Q 35.15625 39.890625 26.703125 39.890625 
Q 22.75 39.890625 18.8125 39.015625 
Q 14.890625 38.140625 10.796875 36.28125 
z
" id="DejaVuSans-53"/>
      </defs>
      <g transform="translate(110.568861 188.118438)scale(0.1 -0.1)">
       <use xlink:href="#DejaVuSans-53"/>
      </g>
     </g>
    </g>
    <g id="xtick_3">
     <g id="line2d_3">
      <g>
       <use style="stroke:#000000;stroke-width:0.8;" x="190.943787" xlink:href="#m25e1b5f688" y="173.52"/>
      </g>
     </g>
     <g id="text_3">
      <!-- 10 -->
      <defs>
       <path d="M 12.40625 8.296875 
L 28.515625 8.296875 
L 28.515625 63.921875 
L 10.984375 60.40625 
L 10.984375 69.390625 
L 28.421875 72.90625 
L 38.28125 72.90625 
L 38.28125 8.296875 
L 54.390625 8.296875 
L 54.390625 0 
L 12.40625 0 
z
" id="DejaVuSans-49"/>
      </defs>
      <g transform="translate(184.581287 188.118438)scale(0.1 -0.1)">
       <use xlink:href="#DejaVuSans-49"/>
       <use x="63.623047" xlink:href="#DejaVuSans-48"/>
      </g>
     </g>
    </g>
    <g id="xtick_4">
     <g id="line2d_4">
      <g>
       <use style="stroke:#000000;stroke-width:0.8;" x="268.137463" xlink:href="#m25e1b5f688" y="173.52"/>
      </g>
     </g>
     <g id="text_4">
      <!-- 15 -->
      <g transform="translate(261.774963 188.118438)scale(0.1 -0.1)">
       <use xlink:href="#DejaVuSans-49"/>
       <use x="63.623047" xlink:href="#DejaVuSans-53"/>
      </g>
     </g>
    </g>
    <g id="xtick_5">
     <g id="line2d_5">
      <g>
       <use style="stroke:#000000;stroke-width:0.8;" x="345.331139" xlink:href="#m25e1b5f688" y="173.52"/>
      </g>
     </g>
     <g id="text_5">
      <!-- 20 -->
      <defs>
       <path d="M 19.1875 8.296875 
L 53.609375 8.296875 
L 53.609375 0 
L 7.328125 0 
L 7.328125 8.296875 
Q 12.9375 14.109375 22.625 23.890625 
Q 32.328125 33.6875 34.8125 36.53125 
Q 39.546875 41.84375 41.421875 45.53125 
Q 43.3125 49.21875 43.3125 52.78125 
Q 43.3125 58.59375 39.234375 62.25 
Q 35.15625 65.921875 28.609375 65.921875 
Q 23.96875 65.921875 18.8125 64.3125 
Q 13.671875 62.703125 7.8125 59.421875 
L 7.8125 69.390625 
Q 13.765625 71.78125 18.9375 73 
Q 24.125 74.21875 28.421875 74.21875 
Q 39.75 74.21875 46.484375 68.546875 
Q 53.21875 62.890625 53.21875 53.421875 
Q 53.21875 48.921875 51.53125 44.890625 
Q 49.859375 40.875 45.40625 35.40625 
Q 44.1875 33.984375 37.640625 27.21875 
Q 31.109375 20.453125 19.1875 8.296875 
z
" id="DejaVuSans-50"/>
      </defs>
      <g transform="translate(338.968639 188.118438)scale(0.1 -0.1)">
       <use xlink:href="#DejaVuSans-50"/>
       <use x="63.623047" xlink:href="#DejaVuSans-48"/>
      </g>
     </g>
    </g>
    <g id="xtick_6">
     <g id="line2d_6">
      <g>
       <use style="stroke:#000000;stroke-width:0.8;" x="422.524815" xlink:href="#m25e1b5f688" y="173.52"/>
      </g>
     </g>
     <g id="text_6">
      <!-- 25 -->
      <g transform="translate(416.162315 188.118438)scale(0.1 -0.1)">
       <use xlink:href="#DejaVuSans-50"/>
       <use x="63.623047" xlink:href="#DejaVuSans-53"/>
      </g>
     </g>
    </g>
    <g id="text_7">
     <!-- hour -->
     <defs>
      <path d="M 54.890625 33.015625 
L 54.890625 0 
L 45.90625 0 
L 45.90625 32.71875 
Q 45.90625 40.484375 42.875 44.328125 
Q 39.84375 48.1875 33.796875 48.1875 
Q 26.515625 48.1875 22.3125 43.546875 
Q 18.109375 38.921875 18.109375 30.90625 
L 18.109375 0 
L 9.078125 0 
L 9.078125 75.984375 
L 18.109375 75.984375 
L 18.109375 46.1875 
Q 21.34375 51.125 25.703125 53.5625 
Q 30.078125 56 35.796875 56 
Q 45.21875 56 50.046875 50.171875 
Q 54.890625 44.34375 54.890625 33.015625 
z
" id="DejaVuSans-104"/>
      <path d="M 30.609375 48.390625 
Q 23.390625 48.390625 19.1875 42.75 
Q 14.984375 37.109375 14.984375 27.296875 
Q 14.984375 17.484375 19.15625 11.84375 
Q 23.34375 6.203125 30.609375 6.203125 
Q 37.796875 6.203125 41.984375 11.859375 
Q 46.1875 17.53125 46.1875 27.296875 
Q 46.1875 37.015625 41.984375 42.703125 
Q 37.796875 48.390625 30.609375 48.390625 
z
M 30.609375 56 
Q 42.328125 56 49.015625 48.375 
Q 55.71875 40.765625 55.71875 27.296875 
Q 55.71875 13.875 49.015625 6.21875 
Q 42.328125 -1.421875 30.609375 -1.421875 
Q 18.84375 -1.421875 12.171875 6.21875 
Q 5.515625 13.875 5.515625 27.296875 
Q 5.515625 40.765625 12.171875 48.375 
Q 18.84375 56 30.609375 56 
z
" id="DejaVuSans-111"/>
      <path d="M 8.5 21.578125 
L 8.5 54.6875 
L 17.484375 54.6875 
L 17.484375 21.921875 
Q 17.484375 14.15625 20.5 10.265625 
Q 23.53125 6.390625 29.59375 6.390625 
Q 36.859375 6.390625 41.078125 11.03125 
Q 45.3125 15.671875 45.3125 23.6875 
L 45.3125 54.6875 
L 54.296875 54.6875 
L 54.296875 0 
L 45.3125 0 
L 45.3125 8.40625 
Q 42.046875 3.421875 37.71875 1 
Q 33.40625 -1.421875 27.6875 -1.421875 
Q 18.265625 -1.421875 13.375 4.4375 
Q 8.5 10.296875 8.5 21.578125 
z
M 31.109375 56 
z
" id="DejaVuSans-117"/>
      <path d="M 41.109375 46.296875 
Q 39.59375 47.171875 37.8125 47.578125 
Q 36.03125 48 33.890625 48 
Q 26.265625 48 22.1875 43.046875 
Q 18.109375 38.09375 18.109375 28.8125 
L 18.109375 0 
L 9.078125 0 
L 9.078125 54.6875 
L 18.109375 54.6875 
L 18.109375 46.1875 
Q 20.953125 51.171875 25.484375 53.578125 
Q 30.03125 56 36.53125 56 
Q 37.453125 56 38.578125 55.875 
Q 39.703125 55.765625 41.0625 55.515625 
z
" id="DejaVuSans-114"/>
     </defs>
     <g transform="translate(218.088281 201.796563)scale(0.1 -0.1)">
      <use xlink:href="#DejaVuSans-104"/>
      <use x="63.378906" xlink:href="#DejaVuSans-111"/>
      <use x="124.560547" xlink:href="#DejaVuSans-117"/>
      <use x="187.939453" xlink:href="#DejaVuSans-114"/>
     </g>
    </g>
   </g>
   <g id="matplotlib.axis_2">
    <g id="ytick_1">
     <g id="line2d_7">
      <defs>
       <path d="M 0 0 
L -3.5 0 
" id="mc914c59b20" style="stroke:#000000;stroke-width:0.8;"/>
      </defs>
      <g>
       <use style="stroke:#000000;stroke-width:0.8;" x="34.240625" xlink:href="#mc914c59b20" y="165.963476"/>
      </g>
     </g>
     <g id="text_8">
      <!-- 0 -->
      <g transform="translate(20.878125 169.762695)scale(0.1 -0.1)">
       <use xlink:href="#DejaVuSans-48"/>
      </g>
     </g>
    </g>
    <g id="ytick_2">
     <g id="line2d_8">
      <g>
       <use style="stroke:#000000;stroke-width:0.8;" x="34.240625" xlink:href="#mc914c59b20" y="135.579161"/>
      </g>
     </g>
     <g id="text_9">
      <!-- 1 -->
      <g transform="translate(20.878125 139.37838)scale(0.1 -0.1)">
       <use xlink:href="#DejaVuSans-49"/>
      </g>
     </g>
    </g>
    <g id="ytick_3">
     <g id="line2d_9">
      <g>
       <use style="stroke:#000000;stroke-width:0.8;" x="34.240625" xlink:href="#mc914c59b20" y="105.194845"/>
      </g>
     </g>
     <g id="text_10">
      <!-- 2 -->
      <g transform="translate(20.878125 108.994064)scale(0.1 -0.1)">
       <use xlink:href="#DejaVuSans-50"/>
      </g>
     </g>
    </g>
    <g id="ytick_4">
     <g id="line2d_10">
      <g>
       <use style="stroke:#000000;stroke-width:0.8;" x="34.240625" xlink:href="#mc914c59b20" y="74.81053"/>
      </g>
     </g>
     <g id="text_11">
      <!-- 3 -->
      <defs>
       <path d="M 40.578125 39.3125 
Q 47.65625 37.796875 51.625 33 
Q 55.609375 28.21875 55.609375 21.1875 
Q 55.609375 10.40625 48.1875 4.484375 
Q 40.765625 -1.421875 27.09375 -1.421875 
Q 22.515625 -1.421875 17.65625 -0.515625 
Q 12.796875 0.390625 7.625 2.203125 
L 7.625 11.71875 
Q 11.71875 9.328125 16.59375 8.109375 
Q 21.484375 6.890625 26.8125 6.890625 
Q 36.078125 6.890625 40.9375 10.546875 
Q 45.796875 14.203125 45.796875 21.1875 
Q 45.796875 27.640625 41.28125 31.265625 
Q 36.765625 34.90625 28.71875 34.90625 
L 20.21875 34.90625 
L 20.21875 43.015625 
L 29.109375 43.015625 
Q 36.375 43.015625 40.234375 45.921875 
Q 44.09375 48.828125 44.09375 54.296875 
Q 44.09375 59.90625 40.109375 62.90625 
Q 36.140625 65.921875 28.71875 65.921875 
Q 24.65625 65.921875 20.015625 65.03125 
Q 15.375 64.15625 9.8125 62.3125 
L 9.8125 71.09375 
Q 15.4375 72.65625 20.34375 73.4375 
Q 25.25 74.21875 29.59375 74.21875 
Q 40.828125 74.21875 47.359375 69.109375 
Q 53.90625 64.015625 53.90625 55.328125 
Q 53.90625 49.265625 50.4375 45.09375 
Q 46.96875 40.921875 40.578125 39.3125 
z
" id="DejaVuSans-51"/>
      </defs>
      <g transform="translate(20.878125 78.609748)scale(0.1 -0.1)">
       <use xlink:href="#DejaVuSans-51"/>
      </g>
     </g>
    </g>
    <g id="ytick_5">
     <g id="line2d_11">
      <g>
       <use style="stroke:#000000;stroke-width:0.8;" x="34.240625" xlink:href="#mc914c59b20" y="44.426214"/>
      </g>
     </g>
     <g id="text_12">
      <!-- 4 -->
      <defs>
       <path d="M 37.796875 64.3125 
L 12.890625 25.390625 
L 37.796875 25.390625 
z
M 35.203125 72.90625 
L 47.609375 72.90625 
L 47.609375 25.390625 
L 58.015625 25.390625 
L 58.015625 17.1875 
L 47.609375 17.1875 
L 47.609375 0 
L 37.796875 0 
L 37.796875 17.1875 
L 4.890625 17.1875 
L 4.890625 26.703125 
z
" id="DejaVuSans-52"/>
      </defs>
      <g transform="translate(20.878125 48.225433)scale(0.1 -0.1)">
       <use xlink:href="#DejaVuSans-52"/>
      </g>
     </g>
    </g>
    <g id="ytick_6">
     <g id="line2d_12">
      <g>
       <use style="stroke:#000000;stroke-width:0.8;" x="34.240625" xlink:href="#mc914c59b20" y="14.041898"/>
      </g>
     </g>
     <g id="text_13">
      <!-- 5 -->
      <g transform="translate(20.878125 17.841117)scale(0.1 -0.1)">
       <use xlink:href="#DejaVuSans-53"/>
      </g>
     </g>
    </g>
    <g id="text_14">
     <!-- precipitation [mm/hour] -->
     <defs>
      <path d="M 18.109375 8.203125 
L 18.109375 -20.796875 
L 9.078125 -20.796875 
L 9.078125 54.6875 
L 18.109375 54.6875 
L 18.109375 46.390625 
Q 20.953125 51.265625 25.265625 53.625 
Q 29.59375 56 35.59375 56 
Q 45.5625 56 51.78125 48.09375 
Q 58.015625 40.1875 58.015625 27.296875 
Q 58.015625 14.40625 51.78125 6.484375 
Q 45.5625 -1.421875 35.59375 -1.421875 
Q 29.59375 -1.421875 25.265625 0.953125 
Q 20.953125 3.328125 18.109375 8.203125 
z
M 48.6875 27.296875 
Q 48.6875 37.203125 44.609375 42.84375 
Q 40.53125 48.484375 33.40625 48.484375 
Q 26.265625 48.484375 22.1875 42.84375 
Q 18.109375 37.203125 18.109375 27.296875 
Q 18.109375 17.390625 22.1875 11.75 
Q 26.265625 6.109375 33.40625 6.109375 
Q 40.53125 6.109375 44.609375 11.75 
Q 48.6875 17.390625 48.6875 27.296875 
z
" id="DejaVuSans-112"/>
      <path d="M 56.203125 29.59375 
L 56.203125 25.203125 
L 14.890625 25.203125 
Q 15.484375 15.921875 20.484375 11.0625 
Q 25.484375 6.203125 34.421875 6.203125 
Q 39.59375 6.203125 44.453125 7.46875 
Q 49.3125 8.734375 54.109375 11.28125 
L 54.109375 2.78125 
Q 49.265625 0.734375 44.1875 -0.34375 
Q 39.109375 -1.421875 33.890625 -1.421875 
Q 20.796875 -1.421875 13.15625 6.1875 
Q 5.515625 13.8125 5.515625 26.8125 
Q 5.515625 40.234375 12.765625 48.109375 
Q 20.015625 56 32.328125 56 
Q 43.359375 56 49.78125 48.890625 
Q 56.203125 41.796875 56.203125 29.59375 
z
M 47.21875 32.234375 
Q 47.125 39.59375 43.09375 43.984375 
Q 39.0625 48.390625 32.421875 48.390625 
Q 24.90625 48.390625 20.390625 44.140625 
Q 15.875 39.890625 15.1875 32.171875 
z
" id="DejaVuSans-101"/>
      <path d="M 48.78125 52.59375 
L 48.78125 44.1875 
Q 44.96875 46.296875 41.140625 47.34375 
Q 37.3125 48.390625 33.40625 48.390625 
Q 24.65625 48.390625 19.8125 42.84375 
Q 14.984375 37.3125 14.984375 27.296875 
Q 14.984375 17.28125 19.8125 11.734375 
Q 24.65625 6.203125 33.40625 6.203125 
Q 37.3125 6.203125 41.140625 7.25 
Q 44.96875 8.296875 48.78125 10.40625 
L 48.78125 2.09375 
Q 45.015625 0.34375 40.984375 -0.53125 
Q 36.96875 -1.421875 32.421875 -1.421875 
Q 20.0625 -1.421875 12.78125 6.34375 
Q 5.515625 14.109375 5.515625 27.296875 
Q 5.515625 40.671875 12.859375 48.328125 
Q 20.21875 56 33.015625 56 
Q 37.15625 56 41.109375 55.140625 
Q 45.0625 54.296875 48.78125 52.59375 
z
" id="DejaVuSans-99"/>
      <path d="M 9.421875 54.6875 
L 18.40625 54.6875 
L 18.40625 0 
L 9.421875 0 
z
M 9.421875 75.984375 
L 18.40625 75.984375 
L 18.40625 64.59375 
L 9.421875 64.59375 
z
" id="DejaVuSans-105"/>
      <path d="M 18.3125 70.21875 
L 18.3125 54.6875 
L 36.8125 54.6875 
L 36.8125 47.703125 
L 18.3125 47.703125 
L 18.3125 18.015625 
Q 18.3125 11.328125 20.140625 9.421875 
Q 21.96875 7.515625 27.59375 7.515625 
L 36.8125 7.515625 
L 36.8125 0 
L 27.59375 0 
Q 17.1875 0 13.234375 3.875 
Q 9.28125 7.765625 9.28125 18.015625 
L 9.28125 47.703125 
L 2.6875 47.703125 
L 2.6875 54.6875 
L 9.28125 54.6875 
L 9.28125 70.21875 
z
" id="DejaVuSans-116"/>
      <path d="M 34.28125 27.484375 
Q 23.390625 27.484375 19.1875 25 
Q 14.984375 22.515625 14.984375 16.5 
Q 14.984375 11.71875 18.140625 8.90625 
Q 21.296875 6.109375 26.703125 6.109375 
Q 34.1875 6.109375 38.703125 11.40625 
Q 43.21875 16.703125 43.21875 25.484375 
L 43.21875 27.484375 
z
M 52.203125 31.203125 
L 52.203125 0 
L 43.21875 0 
L 43.21875 8.296875 
Q 40.140625 3.328125 35.546875 0.953125 
Q 30.953125 -1.421875 24.3125 -1.421875 
Q 15.921875 -1.421875 10.953125 3.296875 
Q 6 8.015625 6 15.921875 
Q 6 25.140625 12.171875 29.828125 
Q 18.359375 34.515625 30.609375 34.515625 
L 43.21875 34.515625 
L 43.21875 35.40625 
Q 43.21875 41.609375 39.140625 45 
Q 35.0625 48.390625 27.6875 48.390625 
Q 23 48.390625 18.546875 47.265625 
Q 14.109375 46.140625 10.015625 43.890625 
L 10.015625 52.203125 
Q 14.9375 54.109375 19.578125 55.046875 
Q 24.21875 56 28.609375 56 
Q 40.484375 56 46.34375 49.84375 
Q 52.203125 43.703125 52.203125 31.203125 
z
" id="DejaVuSans-97"/>
      <path d="M 54.890625 33.015625 
L 54.890625 0 
L 45.90625 0 
L 45.90625 32.71875 
Q 45.90625 40.484375 42.875 44.328125 
Q 39.84375 48.1875 33.796875 48.1875 
Q 26.515625 48.1875 22.3125 43.546875 
Q 18.109375 38.921875 18.109375 30.90625 
L 18.109375 0 
L 9.078125 0 
L 9.078125 54.6875 
L 18.109375 54.6875 
L 18.109375 46.1875 
Q 21.34375 51.125 25.703125 53.5625 
Q 30.078125 56 35.796875 56 
Q 45.21875 56 50.046875 50.171875 
Q 54.890625 44.34375 54.890625 33.015625 
z
" id="DejaVuSans-110"/>
      <path id="DejaVuSans-32"/>
      <path d="M 8.59375 75.984375 
L 29.296875 75.984375 
L 29.296875 69 
L 17.578125 69 
L 17.578125 -6.203125 
L 29.296875 -6.203125 
L 29.296875 -13.1875 
L 8.59375 -13.1875 
z
" id="DejaVuSans-91"/>
      <path d="M 52 44.1875 
Q 55.375 50.25 60.0625 53.125 
Q 64.75 56 71.09375 56 
Q 79.640625 56 84.28125 50.015625 
Q 88.921875 44.046875 88.921875 33.015625 
L 88.921875 0 
L 79.890625 0 
L 79.890625 32.71875 
Q 79.890625 40.578125 77.09375 44.375 
Q 74.3125 48.1875 68.609375 48.1875 
Q 61.625 48.1875 57.5625 43.546875 
Q 53.515625 38.921875 53.515625 30.90625 
L 53.515625 0 
L 44.484375 0 
L 44.484375 32.71875 
Q 44.484375 40.625 41.703125 44.40625 
Q 38.921875 48.1875 33.109375 48.1875 
Q 26.21875 48.1875 22.15625 43.53125 
Q 18.109375 38.875 18.109375 30.90625 
L 18.109375 0 
L 9.078125 0 
L 9.078125 54.6875 
L 18.109375 54.6875 
L 18.109375 46.1875 
Q 21.1875 51.21875 25.484375 53.609375 
Q 29.78125 56 35.6875 56 
Q 41.65625 56 45.828125 52.96875 
Q 50 49.953125 52 44.1875 
z
" id="DejaVuSans-109"/>
      <path d="M 25.390625 72.90625 
L 33.6875 72.90625 
L 8.296875 -9.28125 
L 0 -9.28125 
z
" id="DejaVuSans-47"/>
      <path d="M 30.421875 75.984375 
L 30.421875 -13.1875 
L 9.71875 -13.1875 
L 9.71875 -6.203125 
L 21.390625 -6.203125 
L 21.390625 69 
L 9.71875 69 
L 9.71875 75.984375 
z
" id="DejaVuSans-93"/>
     </defs>
     <g transform="translate(14.798438 150.335781)rotate(-90)scale(0.1 -0.1)">
      <use xlink:href="#DejaVuSans-112"/>
      <use x="63.476562" xlink:href="#DejaVuSans-114"/>
      <use x="104.558594" xlink:href="#DejaVuSans-101"/>
      <use x="166.082031" xlink:href="#DejaVuSans-99"/>
      <use x="221.0625" xlink:href="#DejaVuSans-105"/>
      <use x="248.845703" xlink:href="#DejaVuSans-112"/>
      <use x="312.322266" xlink:href="#DejaVuSans-105"/>
      <use x="340.105469" xlink:href="#DejaVuSans-116"/>
      <use x="379.314453" xlink:href="#DejaVuSans-97"/>
      <use x="440.59375" xlink:href="#DejaVuSans-116"/>
      <use x="479.802734" xlink:href="#DejaVuSans-105"/>
      <use x="507.585938" xlink:href="#DejaVuSans-111"/>
      <use x="568.767578" xlink:href="#DejaVuSans-110"/>
      <use x="632.146484" xlink:href="#DejaVuSans-32"/>
      <use x="663.933594" xlink:href="#DejaVuSans-91"/>
      <use x="702.947266" xlink:href="#DejaVuSans-109"/>
      <use x="800.359375" xlink:href="#DejaVuSans-109"/>
      <use x="897.771484" xlink:href="#DejaVuSans-47"/>
      <use x="931.462891" xlink:href="#DejaVuSans-104"/>
      <use x="994.841797" xlink:href="#DejaVuSans-111"/>
      <use x="1056.023438" xlink:href="#DejaVuSans-117"/>
      <use x="1119.402344" xlink:href="#DejaVuSans-114"/>
      <use x="1160.515625" xlink:href="#DejaVuSans-93"/>
     </g>
    </g>
   </g>
   <g id="line2d_13">
    <path clip-path="url(#pbac50a00f4)" d="M 51.99517 165.294656 
L 67.433906 165.276106 
L 82.872641 158.48723 
L 98.311376 165.526685 
L 113.750111 164.712371 
L 129.188846 164.171761 
L 144.627582 165.339614 
L 160.066317 165.511803 
L 175.505052 165.365665 
L 190.943787 165.572982 
L 206.382522 165.775351 
L 221.821257 165.891494 
L 237.259993 165.904363 
L 252.698728 165.92929 
L 268.137463 162.221775 
L 283.576198 129.78583 
L 299.014933 151.656306 
L 314.453668 148.393429 
L 329.892404 139.471806 
L 345.331139 138.426312 
L 360.769874 133.886115 
L 376.208609 159.778658 
L 391.647344 160.689979 
L 407.08608 150.954466 
" style="fill:none;stroke:#1b9e77;stroke-linecap:square;stroke-opacity:0.5;stroke-width:1.5;"/>
   </g>
   <g id="line2d_14">
    <path clip-path="url(#pbac50a00f4)" d="M 51.99517 155.877134 
L 67.433906 158.432391 
L 82.872641 161.621222 
L 98.311376 156.689136 
L 113.750111 146.849737 
L 129.188846 108.199632 
L 144.627582 140.719542 
L 160.066317 162.883951 
L 175.505052 165.645863 
L 190.943787 165.32332 
L 206.382522 165.394998 
L 221.821257 165.865926 
L 237.259993 165.883745 
L 252.698728 165.86641 
L 268.137463 165.86508 
L 283.576198 165.851888 
L 299.014933 165.831773 
L 314.453668 165.343974 
L 329.892404 153.506823 
L 345.331139 136.186633 
L 360.769874 160.923192 
L 376.208609 162.863231 
L 391.647344 162.004006 
L 407.08608 160.394435 
" style="fill:none;stroke:#1b9e77;stroke-linecap:square;stroke-opacity:0.5;stroke-width:1.5;"/>
   </g>
   <g id="line2d_15">
    <path clip-path="url(#pbac50a00f4)" d="M 51.99517 165.890118 
L 67.433906 165.854571 
L 82.872641 165.880735 
L 98.311376 163.706087 
L 113.750111 154.369223 
L 129.188846 144.667989 
L 144.627582 101.283767 
L 160.066317 114.090328 
L 175.505052 147.425809 
L 190.943787 161.42438 
L 206.382522 165.724517 
L 221.821257 160.601566 
L 237.259993 162.768859 
L 252.698728 157.304945 
L 268.137463 164.199422 
L 283.576198 164.049724 
L 299.014933 164.648906 
L 314.453668 165.083803 
L 329.892404 165.47915 
L 345.331139 165.823073 
L 360.769874 165.915439 
L 376.208609 165.952496 
L 391.647344 165.954145 
L 407.08608 165.92499 
" style="fill:none;stroke:#1b9e77;stroke-linecap:square;stroke-opacity:0.5;stroke-width:1.5;"/>
   </g>
   <g id="line2d_16">
    <path clip-path="url(#pbac50a00f4)" d="M 51.99517 165.872958 
L 67.433906 164.601439 
L 82.872641 160.457882 
L 98.311376 160.406703 
L 113.750111 155.532398 
L 129.188846 161.402291 
L 144.627582 103.012447 
L 160.066317 128.725118 
L 175.505052 149.330673 
L 190.943787 141.389986 
L 206.382522 146.202108 
L 221.821257 162.753603 
L 237.259993 165.504345 
L 252.698728 165.8422 
L 268.137463 165.882972 
L 283.576198 165.826265 
L 299.014933 165.787638 
L 314.453668 165.814333 
L 329.892404 165.920618 
L 345.331139 165.927516 
L 360.769874 165.125049 
L 376.208609 164.547401 
L 391.647344 163.771131 
L 407.08608 164.386973 
" style="fill:none;stroke:#1b9e77;stroke-linecap:square;stroke-opacity:0.5;stroke-width:1.5;"/>
   </g>
   <g id="line2d_17">
    <path clip-path="url(#pbac50a00f4)" d="M 51.99517 165.643518 
L 67.433906 165.366078 
L 82.872641 165.608123 
L 98.311376 165.85176 
L 113.750111 165.785199 
L 129.188846 165.650205 
L 144.627582 165.30326 
L 160.066317 164.20964 
L 175.505052 161.088625 
L 190.943787 145.21956 
L 206.382522 137.259654 
L 221.821257 164.317256 
L 237.259993 165.385244 
L 252.698728 165.113317 
L 268.137463 162.887633 
L 283.576198 146.851144 
L 299.014933 144.647941 
L 314.453668 161.353771 
L 329.892404 162.557106 
L 345.331139 153.846386 
L 360.769874 146.255239 
L 376.208609 138.917013 
L 391.647344 143.71934 
L 407.08608 161.187035 
" style="fill:none;stroke:#1b9e77;stroke-linecap:square;stroke-opacity:0.5;stroke-width:1.5;"/>
   </g>
   <g id="line2d_18">
    <path clip-path="url(#pbac50a00f4)" d="M 51.99517 165.88027 
L 67.433906 165.653132 
L 82.872641 165.662984 
L 98.311376 165.73337 
L 113.750111 165.737759 
L 129.188846 165.856299 
L 144.627582 165.88498 
L 160.066317 163.244067 
L 175.505052 153.337023 
L 190.943787 154.443225 
L 206.382522 153.971201 
L 221.821257 152.43416 
L 237.259993 148.716545 
L 252.698728 158.129104 
L 268.137463 162.181757 
L 283.576198 160.873656 
L 299.014933 149.749285 
L 314.453668 144.473066 
L 329.892404 142.891996 
L 345.331139 152.961535 
L 360.769874 151.187454 
L 376.208609 152.001662 
L 391.647344 158.883678 
L 407.08608 164.135835 
" style="fill:none;stroke:#1b9e77;stroke-linecap:square;stroke-opacity:0.5;stroke-width:1.5;"/>
   </g>
   <g id="line2d_19">
    <path clip-path="url(#pbac50a00f4)" d="M 51.99517 164.620268 
L 67.433906 165.1963 
L 82.872641 165.556113 
L 98.311376 165.865069 
L 113.750111 165.616808 
L 129.188846 162.14456 
L 144.627582 164.450209 
L 160.066317 154.490349 
L 175.505052 161.899297 
L 190.943787 164.949618 
L 206.382522 161.540491 
L 221.821257 157.714796 
L 237.259993 14.76 
L 252.698728 163.702046 
L 268.137463 165.884014 
L 283.576198 165.751061 
L 299.014933 163.254271 
L 314.453668 162.383878 
L 329.892404 165.566933 
L 345.331139 165.92626 
L 360.769874 165.699471 
L 376.208609 165.721422 
L 391.647344 165.431658 
L 407.08608 165.899145 
" style="fill:none;stroke:#1b9e77;stroke-linecap:square;stroke-opacity:0.5;stroke-width:1.5;"/>
   </g>
   <g id="line2d_20">
    <path clip-path="url(#pbac50a00f4)" d="M 51.99517 163.574813 
L 67.433906 159.142548 
L 82.872641 151.645638 
L 98.311376 148.53957 
L 113.750111 164.380068 
L 129.188846 164.516599 
L 144.627582 164.290216 
L 160.066317 161.891982 
L 175.505052 165.545156 
L 190.943787 165.783087 
L 206.382522 165.704522 
L 221.821257 160.049526 
L 237.259993 149.10909 
L 252.698728 147.743289 
L 268.137463 131.3315 
L 283.576198 125.92009 
L 299.014933 145.46385 
L 314.453668 160.884162 
L 329.892404 163.141404 
L 345.331139 163.347415 
L 360.769874 165.371904 
L 376.208609 165.165314 
L 391.647344 165.604857 
L 407.08608 165.877445 
" style="fill:none;stroke:#1b9e77;stroke-linecap:square;stroke-opacity:0.5;stroke-width:1.5;"/>
   </g>
   <g id="line2d_21">
    <path clip-path="url(#pbac50a00f4)" d="M 51.99517 165.926828 
L 67.433906 165.874793 
L 82.872641 165.868268 
L 98.311376 165.916827 
L 113.750111 165.90625 
L 129.188846 164.08163 
L 144.627582 149.793392 
L 160.066317 140.905682 
L 175.505052 140.492347 
L 190.943787 146.257756 
L 206.382522 123.196265 
L 221.821257 125.473203 
L 237.259993 143.566795 
L 252.698728 164.450671 
L 268.137463 165.458028 
L 283.576198 165.356479 
L 299.014933 165.337842 
L 314.453668 165.70561 
L 329.892404 165.879079 
L 345.331139 165.901062 
L 360.769874 165.875678 
L 376.208609 165.808363 
L 391.647344 165.715065 
L 407.08608 165.276132 
" style="fill:none;stroke:#1b9e77;stroke-linecap:square;stroke-opacity:0.5;stroke-width:1.5;"/>
   </g>
   <g id="line2d_22">
    <path clip-path="url(#pbac50a00f4)" d="M 51.99517 165.315478 
L 67.433906 164.951474 
L 82.872641 164.753797 
L 98.311376 162.968855 
L 113.750111 163.900314 
L 129.188846 163.532065 
L 144.627582 158.534543 
L 160.066317 154.089423 
L 175.505052 154.942261 
L 190.943787 156.229416 
L 206.382522 158.430605 
L 221.821257 155.650942 
L 237.259993 152.441706 
L 252.698728 149.989731 
L 268.137463 153.949756 
L 283.576198 153.847365 
L 299.014933 150.27528 
L 314.453668 157.033055 
L 329.892404 156.362189 
L 345.331139 151.562213 
L 360.769874 156.508302 
L 376.208609 156.1202 
L 391.647344 157.756609 
L 407.08608 164.878463 
" style="fill:none;stroke:#1b9e77;stroke-linecap:square;stroke-opacity:0.5;stroke-width:1.5;"/>
   </g>
   <g id="line2d_23">
    <path clip-path="url(#pbac50a00f4)" d="M 51.99517 165.458514 
L 67.433906 165.004439 
L 82.872641 165.120208 
L 98.311376 165.539835 
L 113.750111 165.61157 
L 129.188846 165.78114 
L 144.627582 165.864365 
L 160.066317 165.878931 
L 175.505052 165.856748 
L 190.943787 165.89118 
L 206.382522 165.920658 
L 221.821257 165.932601 
L 237.259993 165.924873 
L 252.698728 165.935671 
L 268.137463 165.206056 
L 283.576198 144.206736 
L 299.014933 157.317351 
L 314.453668 156.883012 
L 329.892404 160.647287 
L 345.331139 156.252128 
L 360.769874 97.534771 
L 376.208609 132.105951 
L 391.647344 131.295717 
L 407.08608 162.854301 
" style="fill:none;stroke:#1b9e77;stroke-linecap:square;stroke-opacity:0.5;stroke-width:1.5;"/>
   </g>
   <g id="line2d_24">
    <path clip-path="url(#pbac50a00f4)" d="M 51.99517 165.185185 
L 67.433906 159.355462 
L 82.872641 145.925933 
L 98.311376 149.265475 
L 113.750111 151.082584 
L 129.188846 155.883684 
L 144.627582 163.715401 
L 160.066317 165.045109 
L 175.505052 165.425337 
L 190.943787 160.464282 
L 206.382522 160.901041 
L 221.821257 161.461328 
L 237.259993 156.343522 
L 252.698728 142.945164 
L 268.137463 153.306474 
L 283.576198 154.15247 
L 299.014933 150.66998 
L 314.453668 147.333576 
L 329.892404 157.453228 
L 345.331139 164.093776 
L 360.769874 163.936917 
L 376.208609 163.052364 
L 391.647344 162.167823 
L 407.08608 164.857929 
" style="fill:none;stroke:#1b9e77;stroke-linecap:square;stroke-opacity:0.5;stroke-width:1.5;"/>
   </g>
   <g id="line2d_25">
    <path clip-path="url(#pbac50a00f4)" d="M 51.99517 165.919381 
L 67.433906 165.861036 
L 82.872641 165.881711 
L 98.311376 165.903366 
L 113.750111 165.897113 
L 129.188846 165.931067 
L 144.627582 165.828305 
L 160.066317 164.450505 
L 175.505052 163.889791 
L 190.943787 164.193255 
L 206.382522 160.705069 
L 221.821257 156.693768 
L 237.259993 148.586978 
L 252.698728 151.968483 
L 268.137463 150.741641 
L 283.576198 143.649583 
L 299.014933 114.567057 
L 314.453668 138.667013 
L 329.892404 163.036576 
L 345.331139 165.001669 
L 360.769874 160.3698 
L 376.208609 157.908781 
L 391.647344 153.036281 
L 407.08608 165.335813 
" style="fill:none;stroke:#1b9e77;stroke-linecap:square;stroke-opacity:0.5;stroke-width:1.5;"/>
   </g>
   <g id="line2d_26">
    <path clip-path="url(#pbac50a00f4)" d="M 51.99517 165.254302 
L 67.433906 165.461593 
L 82.872641 165.750842 
L 98.311376 165.67715 
L 113.750111 140.168079 
L 129.188846 106.75625 
L 144.627582 162.045533 
L 160.066317 165.371415 
L 175.505052 165.520358 
L 190.943787 165.390311 
L 206.382522 165.256583 
L 221.821257 165.54184 
L 237.259993 160.802404 
L 252.698728 160.895617 
L 268.137463 151.715118 
L 283.576198 119.655007 
L 299.014933 134.082816 
L 314.453668 164.81282 
L 329.892404 165.92229 
L 345.331139 165.886417 
L 360.769874 165.359206 
L 376.208609 165.510083 
L 391.647344 165.552646 
L 407.08608 165.635362 
" style="fill:none;stroke:#1b9e77;stroke-linecap:square;stroke-opacity:0.5;stroke-width:1.5;"/>
   </g>
   <g id="line2d_27">
    <path clip-path="url(#pbac50a00f4)" d="M 51.99517 165.815305 
L 67.433906 165.698458 
L 82.872641 165.826025 
L 98.311376 165.919905 
L 113.750111 165.941237 
L 129.188846 165.945762 
L 144.627582 165.936019 
L 160.066317 165.932384 
L 175.505052 165.933557 
L 190.943787 165.940229 
L 206.382522 165.941817 
L 221.821257 165.934175 
L 237.259993 165.906557 
L 252.698728 165.915891 
L 268.137463 165.340602 
L 283.576198 141.820622 
L 299.014933 137.183675 
L 314.453668 150.230272 
L 329.892404 144.818909 
L 345.331139 122.14416 
L 360.769874 135.06586 
L 376.208609 143.778947 
L 391.647344 156.336294 
L 407.08608 164.717382 
" style="fill:none;stroke:#1b9e77;stroke-linecap:square;stroke-opacity:0.5;stroke-width:1.5;"/>
   </g>
   <g id="line2d_28">
    <path clip-path="url(#pbac50a00f4)" d="M 51.99517 165.844988 
L 67.433906 165.728115 
L 82.872641 165.735112 
L 98.311376 165.840023 
L 113.750111 165.862376 
L 129.188846 165.913686 
L 144.627582 165.928234 
L 160.066317 165.920276 
L 175.505052 165.896231 
L 190.943787 165.890648 
L 206.382522 165.911891 
L 221.821257 165.926169 
L 237.259993 165.932842 
L 252.698728 165.928254 
L 268.137463 165.924734 
L 283.576198 165.936633 
L 299.014933 165.931673 
L 314.453668 165.879549 
L 329.892404 164.199365 
L 345.331139 144.28297 
L 360.769874 97.270779 
L 376.208609 99.619401 
L 391.647344 136.116172 
L 407.08608 156.603917 
" style="fill:none;stroke:#1b9e77;stroke-linecap:square;stroke-opacity:0.5;stroke-width:1.5;"/>
   </g>
   <g id="line2d_29">
    <path clip-path="url(#pbac50a00f4)" d="M 51.99517 141.778492 
L 67.433906 135.095162 
L 82.872641 146.558524 
L 98.311376 154.015424 
L 113.750111 153.757207 
L 129.188846 158.017885 
L 144.627582 161.099677 
L 160.066317 160.41288 
L 175.505052 155.849732 
L 190.943787 157.050044 
L 206.382522 161.040723 
L 221.821257 163.095939 
L 237.259993 163.785331 
L 252.698728 163.738339 
L 268.137463 163.557884 
L 283.576198 163.484035 
L 299.014933 163.425221 
L 314.453668 163.493233 
L 329.892404 163.495753 
L 345.331139 163.484723 
L 360.769874 163.169399 
L 376.208609 164.819581 
L 391.647344 165.378533 
L 407.08608 134.420323 
" style="fill:none;stroke:#1b9e77;stroke-linecap:square;stroke-opacity:0.5;stroke-width:1.5;"/>
   </g>
   <g id="line2d_30">
    <path clip-path="url(#pbac50a00f4)" d="M 51.99517 165.765937 
L 67.433906 165.622209 
L 82.872641 165.758929 
L 98.311376 165.894198 
L 113.750111 165.926878 
L 129.188846 165.942282 
L 144.627582 165.94594 
L 160.066317 165.951308 
L 175.505052 165.949636 
L 190.943787 165.945995 
L 206.382522 165.800287 
L 221.821257 159.334344 
L 237.259993 125.06232 
L 252.698728 110.709554 
L 268.137463 119.898412 
L 283.576198 150.478845 
L 299.014933 162.073085 
L 314.453668 157.31443 
L 329.892404 160.031331 
L 345.331139 163.088127 
L 360.769874 164.806359 
L 376.208609 161.265727 
L 391.647344 162.050498 
L 407.08608 163.407407 
" style="fill:none;stroke:#1b9e77;stroke-linecap:square;stroke-opacity:0.5;stroke-width:1.5;"/>
   </g>
   <g id="line2d_31">
    <path clip-path="url(#pbac50a00f4)" d="M 51.99517 165.525041 
L 67.433906 159.157294 
L 82.872641 151.208727 
L 98.311376 158.431634 
L 113.750111 165.258713 
L 129.188846 165.387133 
L 144.627582 165.567266 
L 160.066317 165.711089 
L 175.505052 165.722266 
L 190.943787 165.767756 
L 206.382522 165.804635 
L 221.821257 165.889806 
L 237.259993 165.930088 
L 252.698728 165.943118 
L 268.137463 165.939404 
L 283.576198 165.945419 
L 299.014933 165.934713 
L 314.453668 165.674472 
L 329.892404 161.527809 
L 345.331139 151.533114 
L 360.769874 131.203343 
L 376.208609 103.803744 
L 391.647344 125.636889 
L 407.08608 155.520568 
" style="fill:none;stroke:#1b9e77;stroke-linecap:square;stroke-opacity:0.5;stroke-width:1.5;"/>
   </g>
   <g id="line2d_32">
    <path clip-path="url(#pbac50a00f4)" d="M 51.99517 163.427852 
L 67.433906 160.098275 
L 82.872641 153.522145 
L 98.311376 141.17447 
L 113.750111 155.090185 
L 129.188846 151.411868 
L 144.627582 155.190426 
L 160.066317 147.700505 
L 175.505052 158.83321 
L 190.943787 165.573837 
L 206.382522 165.149159 
L 221.821257 157.708883 
L 237.259993 161.30818 
L 252.698728 158.988464 
L 268.137463 143.488036 
L 283.576198 139.581675 
L 299.014933 157.311798 
L 314.453668 161.071392 
L 329.892404 164.272604 
L 345.331139 165.142326 
L 360.769874 165.650457 
L 376.208609 163.768262 
L 391.647344 163.796515 
L 407.08608 164.763521 
" style="fill:none;stroke:#1b9e77;stroke-linecap:square;stroke-opacity:0.5;stroke-width:1.5;"/>
   </g>
   <g id="line2d_33">
    <path clip-path="url(#pbac50a00f4)" d="M 51.99517 162.460065 
L 67.433906 155.782055 
L 82.872641 126.241123 
L 98.311376 138.231956 
L 113.750111 120.741135 
L 129.188846 134.407747 
L 144.627582 160.031757 
L 160.066317 165.006137 
L 175.505052 165.886912 
L 190.943787 165.909479 
L 206.382522 165.923392 
L 221.821257 165.923787 
L 237.259993 165.80329 
L 252.698728 165.567715 
L 268.137463 164.57045 
L 283.576198 165.417968 
L 299.014933 163.482842 
L 314.453668 160.676157 
L 329.892404 152.16205 
L 345.331139 157.06725 
L 360.769874 165.31771 
L 376.208609 165.738787 
L 391.647344 165.854584 
L 407.08608 165.819702 
" style="fill:none;stroke:#1b9e77;stroke-linecap:square;stroke-opacity:0.5;stroke-width:1.5;"/>
   </g>
   <g id="line2d_34">
    <path clip-path="url(#pbac50a00f4)" d="M 51.99517 164.521318 
L 67.433906 162.932301 
L 82.872641 163.06043 
L 98.311376 164.513149 
L 113.750111 165.137845 
L 129.188846 165.306855 
L 144.627582 165.379838 
L 160.066317 165.514173 
L 175.505052 165.611896 
L 190.943787 165.743093 
L 206.382522 165.794863 
L 221.821257 165.758203 
L 237.259993 165.587694 
L 252.698728 165.754491 
L 268.137463 164.922346 
L 283.576198 155.280929 
L 299.014933 150.752154 
L 314.453668 156.740049 
L 329.892404 141.579552 
L 345.331139 54.001028 
L 360.769874 158.998022 
L 376.208609 163.054993 
L 391.647344 162.870071 
L 407.08608 165.208752 
" style="fill:none;stroke:#1b9e77;stroke-linecap:square;stroke-opacity:0.5;stroke-width:1.5;"/>
   </g>
   <g id="line2d_35">
    <path clip-path="url(#pbac50a00f4)" d="M 51.99517 165.813605 
L 67.433906 165.677089 
L 82.872641 165.763093 
L 98.311376 165.877516 
L 113.750111 165.898865 
L 129.188846 165.929858 
L 144.627582 165.929582 
L 160.066317 165.894883 
L 175.505052 165.712543 
L 190.943787 165.390762 
L 206.382522 129.320771 
L 221.821257 71.642423 
L 237.259993 133.50544 
L 252.698728 149.688601 
L 268.137463 161.015157 
L 283.576198 163.489788 
L 299.014933 165.46146 
L 314.453668 165.724869 
L 329.892404 165.917928 
L 345.331139 165.462571 
L 360.769874 162.778972 
L 376.208609 163.605135 
L 391.647344 163.311298 
L 407.08608 165.211831 
" style="fill:none;stroke:#1b9e77;stroke-linecap:square;stroke-opacity:0.5;stroke-width:1.5;"/>
   </g>
   <g id="line2d_36">
    <path clip-path="url(#pbac50a00f4)" d="M 51.99517 162.578372 
L 67.433906 159.960444 
L 82.872641 159.651709 
L 98.311376 164.657642 
L 113.750111 164.012064 
L 129.188846 156.719978 
L 144.627582 145.327206 
L 160.066317 142.517435 
L 175.505052 138.78349 
L 190.943787 139.70868 
L 206.382522 145.674409 
L 221.821257 142.554087 
L 237.259993 142.413742 
L 252.698728 160.821092 
L 268.137463 165.532869 
L 283.576198 165.847285 
L 299.014933 165.821419 
L 314.453668 165.850946 
L 329.892404 165.897851 
L 345.331139 165.933398 
L 360.769874 165.944157 
L 376.208609 165.95436 
L 391.647344 165.95459 
L 407.08608 165.906819 
" style="fill:none;stroke:#1b9e77;stroke-linecap:square;stroke-opacity:0.5;stroke-width:1.5;"/>
   </g>
   <g id="line2d_37">
    <path clip-path="url(#pbac50a00f4)" d="M 51.99517 165.90647 
L 67.433906 165.88858 
L 82.872641 165.917164 
L 98.311376 165.935842 
L 113.750111 165.885343 
L 129.188846 164.663049 
L 144.627582 130.27486 
L 160.066317 140.272676 
L 175.505052 151.879163 
L 190.943787 138.606473 
L 206.382522 141.550048 
L 221.821257 138.302808 
L 237.259993 146.881794 
L 252.698728 149.890442 
L 268.137463 165.108053 
L 283.576198 165.432778 
L 299.014933 165.558215 
L 314.453668 165.710068 
L 329.892404 165.818419 
L 345.331139 165.885228 
L 360.769874 165.888551 
L 376.208609 165.907576 
L 391.647344 165.137108 
L 407.08608 161.723333 
" style="fill:none;stroke:#1b9e77;stroke-linecap:square;stroke-opacity:0.5;stroke-width:1.5;"/>
   </g>
   <g id="line2d_38">
    <path clip-path="url(#pbac50a00f4)" d="M 51.99517 165.745245 
L 67.433906 165.45499 
L 82.872641 165.403529 
L 98.311376 165.609258 
L 113.750111 165.662639 
L 129.188846 165.87796 
L 144.627582 165.927684 
L 160.066317 165.776851 
L 175.505052 163.879319 
L 190.943787 161.771847 
L 206.382522 49.28402 
L 221.821257 132.006227 
L 237.259993 161.392003 
L 252.698728 163.204681 
L 268.137463 151.955894 
L 283.576198 163.62752 
L 299.014933 165.706514 
L 314.453668 165.904865 
L 329.892404 165.857134 
L 345.331139 165.780961 
L 360.769874 164.216611 
L 376.208609 164.812435 
L 391.647344 161.138808 
L 407.08608 158.027057 
" style="fill:none;stroke:#1b9e77;stroke-linecap:square;stroke-opacity:0.5;stroke-width:1.5;"/>
   </g>
   <g id="line2d_39">
    <path clip-path="url(#pbac50a00f4)" d="M 51.99517 156.533316 
L 67.433906 151.718323 
L 82.872641 155.027448 
L 98.311376 161.724434 
L 113.750111 163.129747 
L 129.188846 164.02285 
L 144.627582 164.489468 
L 160.066317 164.525252 
L 175.505052 164.19971 
L 190.943787 164.5389 
L 206.382522 165.078445 
L 221.821257 165.297511 
L 237.259993 165.30053 
L 252.698728 165.469328 
L 268.137463 165.538717 
L 283.576198 165.510258 
L 299.014933 165.49577 
L 314.453668 165.541855 
L 329.892404 165.396234 
L 345.331139 165.113669 
L 360.769874 164.561137 
L 376.208609 164.824357 
L 391.647344 163.15297 
L 407.08608 27.833813 
" style="fill:none;stroke:#1b9e77;stroke-linecap:square;stroke-opacity:0.5;stroke-width:1.5;"/>
   </g>
   <g id="line2d_40">
    <path clip-path="url(#pbac50a00f4)" d="M 51.99517 165.851518 
L 67.433906 165.021596 
L 82.872641 147.434665 
L 98.311376 58.630497 
L 113.750111 111.601114 
L 129.188846 156.038206 
L 144.627582 163.343619 
L 160.066317 165.265952 
L 175.505052 165.34999 
L 190.943787 165.028523 
L 206.382522 165.069861 
L 221.821257 165.497977 
L 237.259993 165.686265 
L 252.698728 165.829975 
L 268.137463 165.873871 
L 283.576198 165.888433 
L 299.014933 165.89128 
L 314.453668 165.916824 
L 329.892404 165.926595 
L 345.331139 165.921144 
L 360.769874 165.911782 
L 376.208609 165.924905 
L 391.647344 165.924385 
L 407.08608 165.195066 
" style="fill:none;stroke:#1b9e77;stroke-linecap:square;stroke-opacity:0.5;stroke-width:1.5;"/>
   </g>
   <g id="line2d_41">
    <path clip-path="url(#pbac50a00f4)" d="M 51.99517 165.705153 
L 67.433906 165.428101 
L 82.872641 165.56226 
L 98.311376 165.790645 
L 113.750111 165.863132 
L 129.188846 165.908632 
L 144.627582 165.921308 
L 160.066317 165.937157 
L 175.505052 165.943512 
L 190.943787 165.948362 
L 206.382522 165.943695 
L 221.821257 165.910934 
L 237.259993 165.841444 
L 252.698728 165.373644 
L 268.137463 156.369024 
L 283.576198 107.294456 
L 299.014933 103.044539 
L 314.453668 135.501286 
L 329.892404 151.729128 
L 345.331139 149.667529 
L 360.769874 164.385492 
L 376.208609 164.136677 
L 391.647344 165.128966 
L 407.08608 165.688955 
" style="fill:none;stroke:#1b9e77;stroke-linecap:square;stroke-opacity:0.5;stroke-width:1.5;"/>
   </g>
   <g id="line2d_42">
    <path clip-path="url(#pbac50a00f4)" d="M 51.99517 154.741035 
L 67.433906 144.316842 
L 82.872641 149.157216 
L 98.311376 160.442718 
L 113.750111 162.488912 
L 129.188846 164.126677 
L 144.627582 163.98277 
L 160.066317 164.191287 
L 175.505052 163.178807 
L 190.943787 152.278191 
L 206.382522 136.541518 
L 221.821257 154.266853 
L 237.259993 153.342064 
L 252.698728 147.610329 
L 268.137463 154.152904 
L 283.576198 157.127512 
L 299.014933 157.371998 
L 314.453668 159.389595 
L 329.892404 161.633689 
L 345.331139 164.24037 
L 360.769874 165.10557 
L 376.208609 165.683416 
L 391.647344 165.79192 
L 407.08608 162.861848 
" style="fill:none;stroke:#1b9e77;stroke-linecap:square;stroke-opacity:0.5;stroke-width:1.5;"/>
   </g>
   <g id="line2d_43">
    <path clip-path="url(#pbac50a00f4)" d="M 51.99517 148.80753 
L 67.433906 162.38545 
L 82.872641 164.106196 
L 98.311376 164.815953 
L 113.750111 164.30045 
L 129.188846 163.933779 
L 144.627582 156.143054 
L 160.066317 154.170743 
L 175.505052 147.074739 
L 190.943787 137.160675 
L 206.382522 147.91898 
L 221.821257 149.053347 
L 237.259993 149.942928 
L 252.698728 146.362931 
L 268.137463 152.343221 
L 283.576198 156.073322 
L 299.014933 159.2166 
L 314.453668 165.073863 
L 329.892404 165.828825 
L 345.331139 165.788697 
L 360.769874 165.822472 
L 376.208609 165.929527 
L 391.647344 165.95135 
L 407.08608 165.819413 
" style="fill:none;stroke:#1b9e77;stroke-linecap:square;stroke-opacity:0.5;stroke-width:1.5;"/>
   </g>
   <g id="line2d_44">
    <path clip-path="url(#pbac50a00f4)" d="M 51.99517 165.930963 
L 67.433906 165.867861 
L 82.872641 165.876183 
L 98.311376 165.091166 
L 113.750111 162.196361 
L 129.188846 158.412881 
L 144.627582 135.180126 
L 160.066317 152.790244 
L 175.505052 162.21361 
L 190.943787 159.91762 
L 206.382522 157.835413 
L 221.821257 161.250154 
L 237.259993 150.32332 
L 252.698728 111.463717 
L 268.137463 154.576091 
L 283.576198 158.909298 
L 299.014933 157.481067 
L 314.453668 164.603213 
L 329.892404 162.605879 
L 345.331139 155.503642 
L 360.769874 160.387355 
L 376.208609 164.797609 
L 391.647344 165.273113 
L 407.08608 165.537157 
" style="fill:none;stroke:#1b9e77;stroke-linecap:square;stroke-opacity:0.5;stroke-width:1.5;"/>
   </g>
   <g id="line2d_45">
    <path clip-path="url(#pbac50a00f4)" d="M 51.99517 160.683204 
L 67.433906 156.63824 
L 82.872641 157.050202 
L 98.311376 162.504048 
L 113.750111 163.749914 
L 129.188846 165.327919 
L 144.627582 165.451868 
L 160.066317 164.824378 
L 175.505052 164.983903 
L 190.943787 165.146479 
L 206.382522 165.022049 
L 221.821257 162.505176 
L 237.259993 160.156465 
L 252.698728 164.593719 
L 268.137463 164.358621 
L 283.576198 164.706794 
L 299.014933 165.193846 
L 314.453668 153.539643 
L 329.892404 149.036025 
L 345.331139 164.50546 
L 360.769874 162.431107 
L 376.208609 164.718448 
L 391.647344 165.212669 
L 407.08608 51.683874 
" style="fill:none;stroke:#1b9e77;stroke-linecap:square;stroke-opacity:0.5;stroke-width:1.5;"/>
   </g>
   <g id="line2d_46">
    <path clip-path="url(#pbac50a00f4)" d="M 51.99517 161.032055 
L 67.433906 154.896989 
L 82.872641 154.58061 
L 98.311376 164.042349 
L 113.750111 163.978106 
L 129.188846 161.368831 
L 144.627582 136.293993 
L 160.066317 154.844177 
L 175.505052 163.455422 
L 190.943787 164.862083 
L 206.382522 154.797366 
L 221.821257 100.674401 
L 237.259993 154.091031 
L 252.698728 156.653794 
L 268.137463 160.008371 
L 283.576198 163.830691 
L 299.014933 165.558616 
L 314.453668 165.734198 
L 329.892404 165.921533 
L 345.331139 165.41247 
L 360.769874 160.433343 
L 376.208609 163.110966 
L 391.647344 163.890628 
L 407.08608 164.552025 
" style="fill:none;stroke:#1b9e77;stroke-linecap:square;stroke-opacity:0.5;stroke-width:1.5;"/>
   </g>
   <g id="line2d_47">
    <path clip-path="url(#pbac50a00f4)" d="M 51.99517 165.858245 
L 67.433906 165.505032 
L 82.872641 155.642133 
L 98.311376 119.678851 
L 113.750111 144.40557 
L 129.188846 154.211445 
L 144.627582 127.679905 
L 160.066317 142.235252 
L 175.505052 160.601841 
L 190.943787 142.23907 
L 206.382522 155.639866 
L 221.821257 160.694269 
L 237.259993 165.566409 
L 252.698728 165.628474 
L 268.137463 165.708472 
L 283.576198 165.742206 
L 299.014933 165.725371 
L 314.453668 165.801158 
L 329.892404 165.873051 
L 345.331139 165.9074 
L 360.769874 165.921878 
L 376.208609 165.949901 
L 391.647344 165.95613 
L 407.08608 165.852117 
" style="fill:none;stroke:#1b9e77;stroke-linecap:square;stroke-opacity:0.5;stroke-width:1.5;"/>
   </g>
   <g id="line2d_48">
    <path clip-path="url(#pbac50a00f4)" d="M 51.99517 164.367961 
L 67.433906 163.747613 
L 82.872641 159.364431 
L 98.311376 158.443851 
L 113.750111 147.855864 
L 129.188846 127.045032 
L 144.627582 163.525162 
L 160.066317 165.829682 
L 175.505052 165.628937 
L 190.943787 165.713906 
L 206.382522 165.845338 
L 221.821257 165.891178 
L 237.259993 165.877325 
L 252.698728 165.916355 
L 268.137463 165.517739 
L 283.576198 156.714308 
L 299.014933 153.195245 
L 314.453668 152.370904 
L 329.892404 146.584639 
L 345.331139 146.039362 
L 360.769874 148.064319 
L 376.208609 149.714243 
L 391.647344 155.046741 
L 407.08608 165.723907 
" style="fill:none;stroke:#1b9e77;stroke-linecap:square;stroke-opacity:0.5;stroke-width:1.5;"/>
   </g>
   <g id="line2d_49">
    <path clip-path="url(#pbac50a00f4)" d="M 51.99517 165.912886 
L 67.433906 165.863438 
L 82.872641 165.894955 
L 98.311376 165.945832 
L 113.750111 165.954593 
L 129.188846 165.951327 
L 144.627582 165.880669 
L 160.066317 165.646245 
L 175.505052 159.587924 
L 190.943787 152.514729 
L 206.382522 153.083998 
L 221.821257 142.806924 
L 237.259993 127.689149 
L 252.698728 144.879119 
L 268.137463 140.628963 
L 283.576198 150.826142 
L 299.014933 148.291717 
L 314.453668 160.715457 
L 329.892404 165.523218 
L 345.331139 165.308634 
L 360.769874 164.31618 
L 376.208609 154.843305 
L 391.647344 160.721462 
L 407.08608 165.237176 
" style="fill:none;stroke:#1b9e77;stroke-linecap:square;stroke-opacity:0.5;stroke-width:1.5;"/>
   </g>
   <g id="line2d_50">
    <path clip-path="url(#pbac50a00f4)" d="M 51.99517 165.84477 
L 67.433906 165.947118 
L 82.872641 165.938757 
L 98.311376 165.87726 
L 113.750111 165.556178 
L 129.188846 148.367267 
L 144.627582 164.894755 
L 160.066317 165.571344 
L 175.505052 165.352047 
L 190.943787 165.178903 
L 206.382522 165.263507 
L 221.821257 165.237815 
L 237.259993 164.830795 
L 252.698728 165.115669 
L 268.137463 162.658325 
L 283.576198 120.369367 
L 299.014933 163.208622 
L 314.453668 139.359532 
L 329.892404 132.07024 
L 345.331139 149.420133 
L 360.769874 138.207485 
L 376.208609 157.196482 
L 391.647344 157.664833 
L 407.08608 164.892839 
" style="fill:none;stroke:#1b9e77;stroke-linecap:square;stroke-opacity:0.5;stroke-width:1.5;"/>
   </g>
   <g id="line2d_51">
    <path clip-path="url(#pbac50a00f4)" d="M 51.99517 159.337101 
L 67.433906 157.622831 
L 82.872641 160.822074 
L 98.311376 164.079169 
L 113.750111 165.002308 
L 129.188846 164.535438 
L 144.627582 165.8585 
L 160.066317 165.896516 
L 175.505052 165.866928 
L 190.943787 165.894262 
L 206.382522 165.223985 
L 221.821257 160.900104 
L 237.259993 160.086293 
L 252.698728 154.77318 
L 268.137463 143.608389 
L 283.576198 147.379261 
L 299.014933 159.163834 
L 314.453668 154.065824 
L 329.892404 156.46303 
L 345.331139 161.650329 
L 360.769874 155.195722 
L 376.208609 136.396718 
L 391.647344 138.196974 
L 407.08608 156.005273 
" style="fill:none;stroke:#1b9e77;stroke-linecap:square;stroke-opacity:0.5;stroke-width:1.5;"/>
   </g>
   <g id="line2d_52">
    <path clip-path="url(#pbac50a00f4)" d="M 51.99517 152.250507 
L 67.433906 144.25617 
L 82.872641 132.532162 
L 98.311376 149.510895 
L 113.750111 140.768859 
L 129.188846 136.763485 
L 144.627582 156.161816 
L 160.066317 146.472427 
L 175.505052 152.227117 
L 190.943787 155.228467 
L 206.382522 161.912644 
L 221.821257 165.550343 
L 237.259993 165.724953 
L 252.698728 165.665194 
L 268.137463 165.830601 
L 283.576198 165.862597 
L 299.014933 165.8234 
L 314.453668 165.860391 
L 329.892404 165.908291 
L 345.331139 165.936236 
L 360.769874 165.944217 
L 376.208609 165.954361 
L 391.647344 165.956336 
L 407.08608 165.922577 
" style="fill:none;stroke:#1b9e77;stroke-linecap:square;stroke-opacity:0.5;stroke-width:1.5;"/>
   </g>
   <g id="line2d_53">
    <path clip-path="url(#pbac50a00f4)" d="M 51.99517 165.849661 
L 67.433906 165.677967 
L 82.872641 165.762362 
L 98.311376 165.853142 
L 113.750111 165.87935 
L 129.188846 165.903554 
L 144.627582 165.917599 
L 160.066317 165.935288 
L 175.505052 165.942607 
L 190.943787 165.943175 
L 206.382522 165.9385 
L 221.821257 165.941727 
L 237.259993 165.940939 
L 252.698728 165.944569 
L 268.137463 165.619852 
L 283.576198 150.511321 
L 299.014933 143.036227 
L 314.453668 130.287685 
L 329.892404 125.549333 
L 345.331139 145.581041 
L 360.769874 149.421256 
L 376.208609 143.85314 
L 391.647344 145.593876 
L 407.08608 162.13987 
" style="fill:none;stroke:#1b9e77;stroke-linecap:square;stroke-opacity:0.5;stroke-width:1.5;"/>
   </g>
   <g id="line2d_54">
    <path clip-path="url(#pbac50a00f4)" d="M 51.99517 165.951797 
L 67.433906 165.948811 
L 82.872641 165.930161 
L 98.311376 165.890309 
L 113.750111 165.513096 
L 129.188846 153.000008 
L 144.627582 144.674045 
L 160.066317 110.192507 
L 175.505052 123.442325 
L 190.943787 143.632237 
L 206.382522 145.861009 
L 221.821257 146.458851 
L 237.259993 164.631336 
L 252.698728 165.669021 
L 268.137463 165.706901 
L 283.576198 165.811373 
L 299.014933 165.855095 
L 314.453668 165.883516 
L 329.892404 165.88352 
L 345.331139 165.917488 
L 360.769874 165.937397 
L 376.208609 165.930357 
L 391.647344 165.127596 
L 407.08608 165.175285 
" style="fill:none;stroke:#1b9e77;stroke-linecap:square;stroke-opacity:0.5;stroke-width:1.5;"/>
   </g>
   <g id="line2d_55">
    <path clip-path="url(#pbac50a00f4)" d="M 51.99517 158.440309 
L 67.433906 162.680542 
L 82.872641 164.429713 
L 98.311376 164.963322 
L 113.750111 165.110657 
L 129.188846 165.340598 
L 144.627582 165.675151 
L 160.066317 165.795753 
L 175.505052 165.79556 
L 190.943787 165.865429 
L 206.382522 165.914207 
L 221.821257 165.940727 
L 237.259993 165.947731 
L 252.698728 165.953863 
L 268.137463 165.941769 
L 283.576198 165.64786 
L 299.014933 162.622511 
L 314.453668 157.795351 
L 329.892404 147.255668 
L 345.331139 121.542208 
L 360.769874 66.988548 
L 376.208609 160.198973 
L 391.647344 165.160361 
L 407.08608 163.017229 
" style="fill:none;stroke:#1b9e77;stroke-linecap:square;stroke-opacity:0.5;stroke-width:1.5;"/>
   </g>
   <g id="line2d_56">
    <path clip-path="url(#pbac50a00f4)" d="M 51.99517 160.884015 
L 67.433906 111.236239 
L 82.872641 93.886165 
L 98.311376 130.162075 
L 113.750111 163.702033 
L 129.188846 164.06246 
L 144.627582 164.919633 
L 160.066317 162.936837 
L 175.505052 164.678658 
L 190.943787 165.845394 
L 206.382522 165.861281 
L 221.821257 165.855425 
L 237.259993 165.906455 
L 252.698728 165.93623 
L 268.137463 165.930737 
L 283.576198 165.94002 
L 299.014933 165.942121 
L 314.453668 165.912494 
L 329.892404 165.887064 
L 345.331139 165.902715 
L 360.769874 165.698516 
L 376.208609 157.759634 
L 391.647344 156.493416 
L 407.08608 162.684434 
" style="fill:none;stroke:#1b9e77;stroke-linecap:square;stroke-opacity:0.5;stroke-width:1.5;"/>
   </g>
   <g id="line2d_57">
    <path clip-path="url(#pbac50a00f4)" d="M 51.99517 165.848742 
L 67.433906 165.645268 
L 82.872641 165.71265 
L 98.311376 165.854488 
L 113.750111 165.895554 
L 129.188846 165.928292 
L 144.627582 165.939123 
L 160.066317 165.941737 
L 175.505052 165.937407 
L 190.943787 165.944904 
L 206.382522 165.939763 
L 221.821257 165.746217 
L 237.259993 165.703965 
L 252.698728 165.891614 
L 268.137463 164.591406 
L 283.576198 154.767293 
L 299.014933 159.39148 
L 314.453668 158.476333 
L 329.892404 145.209432 
L 345.331139 143.649786 
L 360.769874 78.022674 
L 376.208609 134.051597 
L 391.647344 160.127815 
L 407.08608 163.806502 
" style="fill:none;stroke:#1b9e77;stroke-linecap:square;stroke-opacity:0.5;stroke-width:1.5;"/>
   </g>
   <g id="line2d_58">
    <path clip-path="url(#pbac50a00f4)" d="M 51.99517 159.440063 
L 67.433906 159.325772 
L 82.872641 161.270422 
L 98.311376 164.640669 
L 113.750111 165.411597 
L 129.188846 165.776809 
L 144.627582 165.810313 
L 160.066317 165.771634 
L 175.505052 165.711188 
L 190.943787 165.677557 
L 206.382522 165.583566 
L 221.821257 165.468645 
L 237.259993 165.617786 
L 252.698728 165.315645 
L 268.137463 165.289711 
L 283.576198 165.574081 
L 299.014933 165.720566 
L 314.453668 165.776236 
L 329.892404 165.739156 
L 345.331139 165.732118 
L 360.769874 165.611586 
L 376.208609 165.256952 
L 391.647344 143.42722 
L 407.08608 15.074745 
" style="fill:none;stroke:#1b9e77;stroke-linecap:square;stroke-opacity:0.5;stroke-width:1.5;"/>
   </g>
   <g id="line2d_59">
    <path clip-path="url(#pbac50a00f4)" d="M 51.99517 165.904752 
L 67.433906 165.810883 
L 82.872641 165.889119 
L 98.311376 164.111008 
L 113.750111 164.834226 
L 129.188846 165.058978 
L 144.627582 165.506219 
L 160.066317 162.562451 
L 175.505052 162.389007 
L 190.943787 164.277232 
L 206.382522 163.322705 
L 221.821257 152.625499 
L 237.259993 35.412723 
L 252.698728 157.172657 
L 268.137463 164.812412 
L 283.576198 164.510811 
L 299.014933 162.946493 
L 314.453668 157.403847 
L 329.892404 160.646583 
L 345.331139 163.609179 
L 360.769874 163.527278 
L 376.208609 163.077859 
L 391.647344 162.984482 
L 407.08608 165.627645 
" style="fill:none;stroke:#1b9e77;stroke-linecap:square;stroke-opacity:0.5;stroke-width:1.5;"/>
   </g>
   <g id="line2d_60">
    <path clip-path="url(#pbac50a00f4)" d="M 51.99517 163.631003 
L 67.433906 125.998986 
L 82.872641 125.219121 
L 98.311376 155.381946 
L 113.750111 162.382109 
L 129.188846 158.628633 
L 144.627582 160.762714 
L 160.066317 161.225259 
L 175.505052 163.54385 
L 190.943787 165.597419 
L 206.382522 163.67909 
L 221.821257 157.524442 
L 237.259993 152.965673 
L 252.698728 161.439263 
L 268.137463 157.321742 
L 283.576198 147.09434 
L 299.014933 151.471543 
L 314.453668 159.74584 
L 329.892404 165.880123 
L 345.331139 165.856 
L 360.769874 165.864385 
L 376.208609 165.88044 
L 391.647344 164.646632 
L 407.08608 162.283489 
" style="fill:none;stroke:#1b9e77;stroke-linecap:square;stroke-opacity:0.5;stroke-width:1.5;"/>
   </g>
   <g id="line2d_61">
    <path clip-path="url(#pbac50a00f4)" d="M 51.99517 165.136699 
L 67.433906 164.214036 
L 82.872641 160.263646 
L 98.311376 160.756065 
L 113.750111 160.149197 
L 129.188846 158.498326 
L 144.627582 160.931827 
L 160.066317 164.121722 
L 175.505052 160.379477 
L 190.943787 131.529447 
L 206.382522 147.682391 
L 221.821257 148.917894 
L 237.259993 162.155325 
L 252.698728 164.379415 
L 268.137463 157.9059 
L 283.576198 149.682959 
L 299.014933 159.314182 
L 314.453668 161.620939 
L 329.892404 162.213099 
L 345.331139 149.540175 
L 360.769874 153.406054 
L 376.208609 157.781171 
L 391.647344 158.644082 
L 407.08608 164.800017 
" style="fill:none;stroke:#1b9e77;stroke-linecap:square;stroke-opacity:0.5;stroke-width:1.5;"/>
   </g>
   <g id="line2d_62">
    <path clip-path="url(#pbac50a00f4)" d="M 51.99517 165.673984 
L 67.433906 165.11566 
L 82.872641 165.369836 
L 98.311376 165.726347 
L 113.750111 165.837555 
L 129.188846 165.886533 
L 144.627582 165.88887 
L 160.066317 165.906669 
L 175.505052 165.919953 
L 190.943787 165.934614 
L 206.382522 165.939031 
L 221.821257 165.941845 
L 237.259993 165.942073 
L 252.698728 165.947316 
L 268.137463 165.935218 
L 283.576198 165.817766 
L 299.014933 164.798211 
L 314.453668 159.780581 
L 329.892404 129.802289 
L 345.331139 131.597036 
L 360.769874 127.460562 
L 376.208609 123.241614 
L 391.647344 134.95979 
L 407.08608 159.600698 
" style="fill:none;stroke:#1b9e77;stroke-linecap:square;stroke-opacity:0.5;stroke-width:1.5;"/>
   </g>
   <g id="line2d_63">
    <path clip-path="url(#pbac50a00f4)" d="M 51.99517 165.863267 
L 67.433906 165.73276 
L 82.872641 165.800395 
L 98.311376 165.898232 
L 113.750111 165.926077 
L 129.188846 165.94898 
L 144.627582 165.949802 
L 160.066317 165.922847 
L 175.505052 165.81598 
L 190.943787 165.752539 
L 206.382522 158.288305 
L 221.821257 150.157843 
L 237.259993 148.82935 
L 252.698728 141.947296 
L 268.137463 133.680116 
L 283.576198 135.271913 
L 299.014933 139.570359 
L 314.453668 131.423541 
L 329.892404 157.909492 
L 345.331139 165.529878 
L 360.769874 165.383288 
L 376.208609 165.679767 
L 391.647344 165.814988 
L 407.08608 165.927024 
" style="fill:none;stroke:#1b9e77;stroke-linecap:square;stroke-opacity:0.5;stroke-width:1.5;"/>
   </g>
   <g id="line2d_64">
    <path clip-path="url(#pbac50a00f4)" d="M 51.99517 161.455274 
L 67.433906 165.139755 
L 82.872641 165.447435 
L 98.311376 165.569112 
L 113.750111 165.542738 
L 129.188846 165.100313 
L 144.627582 161.455319 
L 160.066317 164.831248 
L 175.505052 165.469889 
L 190.943787 165.402922 
L 206.382522 147.321661 
L 221.821257 119.886618 
L 237.259993 140.320672 
L 252.698728 160.504924 
L 268.137463 128.233767 
L 283.576198 127.994419 
L 299.014933 163.743081 
L 314.453668 165.276078 
L 329.892404 165.263388 
L 345.331139 163.671703 
L 360.769874 161.81151 
L 376.208609 165.921704 
L 391.647344 165.949251 
L 407.08608 162.711262 
" style="fill:none;stroke:#1b9e77;stroke-linecap:square;stroke-opacity:0.5;stroke-width:1.5;"/>
   </g>
   <g id="line2d_65">
    <path clip-path="url(#pbac50a00f4)" d="M 51.99517 146.731934 
L 67.433906 154.212723 
L 82.872641 160.033893 
L 98.311376 162.623252 
L 113.750111 164.015168 
L 129.188846 164.691495 
L 144.627582 165.463171 
L 160.066317 165.708306 
L 175.505052 165.694384 
L 190.943787 165.798912 
L 206.382522 165.883606 
L 221.821257 165.925805 
L 237.259993 165.91058 
L 252.698728 165.924063 
L 268.137463 165.918276 
L 283.576198 164.513833 
L 299.014933 154.439481 
L 314.453668 152.678667 
L 329.892404 144.761928 
L 345.331139 136.297639 
L 360.769874 121.663247 
L 376.208609 145.297141 
L 391.647344 156.80095 
L 407.08608 163.03559 
" style="fill:none;stroke:#1b9e77;stroke-linecap:square;stroke-opacity:0.5;stroke-width:1.5;"/>
   </g>
   <g id="line2d_66">
    <path clip-path="url(#pbac50a00f4)" d="M 51.99517 158.877512 
L 67.433906 120.89787 
L 82.872641 125.333775 
L 98.311376 141.544503 
L 113.750111 142.969505 
L 129.188846 159.362352 
L 144.627582 164.602177 
L 160.066317 165.315849 
L 175.505052 165.013031 
L 190.943787 165.32722 
L 206.382522 165.43341 
L 221.821257 164.113488 
L 237.259993 164.343278 
L 252.698728 165.249652 
L 268.137463 164.944353 
L 283.576198 165.034558 
L 299.014933 165.295943 
L 314.453668 165.352966 
L 329.892404 165.304002 
L 345.331139 165.336677 
L 360.769874 165.409683 
L 376.208609 165.753959 
L 391.647344 165.638052 
L 407.08608 127.570232 
" style="fill:none;stroke:#1b9e77;stroke-linecap:square;stroke-opacity:0.5;stroke-width:1.5;"/>
   </g>
   <g id="line2d_67">
    <path clip-path="url(#pbac50a00f4)" d="M 51.99517 165.854558 
L 67.433906 165.612226 
L 82.872641 165.577902 
L 98.311376 165.777678 
L 113.750111 165.846124 
L 129.188846 165.91977 
L 144.627582 165.933456 
L 160.066317 165.932708 
L 175.505052 165.898893 
L 190.943787 165.889729 
L 206.382522 160.026935 
L 221.821257 128.654404 
L 237.259993 129.398233 
L 252.698728 135.262938 
L 268.137463 90.145948 
L 283.576198 157.976869 
L 299.014933 165.670469 
L 314.453668 165.82467 
L 329.892404 165.864992 
L 345.331139 165.875071 
L 360.769874 165.411305 
L 376.208609 165.88845 
L 391.647344 164.546343 
L 407.08608 165.234367 
" style="fill:none;stroke:#1b9e77;stroke-linecap:square;stroke-opacity:0.5;stroke-width:1.5;"/>
   </g>
   <g id="line2d_68">
    <path clip-path="url(#pbac50a00f4)" d="M 51.99517 165.790456 
L 67.433906 165.606952 
L 82.872641 165.681904 
L 98.311376 165.812103 
L 113.750111 165.849711 
L 129.188846 165.925239 
L 144.627582 165.931052 
L 160.066317 165.789654 
L 175.505052 165.784946 
L 190.943787 165.927563 
L 206.382522 165.929659 
L 221.821257 165.923241 
L 237.259993 165.771549 
L 252.698728 165.144125 
L 268.137463 163.747024 
L 283.576198 159.709132 
L 299.014933 120.274772 
L 314.453668 133.233048 
L 329.892404 160.782009 
L 345.331139 161.941797 
L 360.769874 129.959183 
L 376.208609 146.057342 
L 391.647344 149.280538 
L 407.08608 138.171051 
" style="fill:none;stroke:#1b9e77;stroke-linecap:square;stroke-opacity:0.5;stroke-width:1.5;"/>
   </g>
   <g id="line2d_69">
    <path clip-path="url(#pbac50a00f4)" d="M 51.99517 164.027681 
L 67.433906 160.070016 
L 82.872641 162.7472 
L 98.311376 164.808452 
L 113.750111 165.350527 
L 129.188846 165.623117 
L 144.627582 165.726971 
L 160.066317 165.786566 
L 175.505052 165.795781 
L 190.943787 165.883549 
L 206.382522 165.921741 
L 221.821257 165.893032 
L 237.259993 165.724661 
L 252.698728 165.602301 
L 268.137463 135.747488 
L 283.576198 133.965739 
L 299.014933 163.169104 
L 314.453668 164.585264 
L 329.892404 165.526664 
L 345.331139 163.213691 
L 360.769874 91.8021 
L 376.208609 158.431782 
L 391.647344 152.449796 
L 407.08608 146.170819 
" style="fill:none;stroke:#1b9e77;stroke-linecap:square;stroke-opacity:0.5;stroke-width:1.5;"/>
   </g>
   <g id="line2d_70">
    <path clip-path="url(#pbac50a00f4)" d="M 51.99517 151.143123 
L 67.433906 64.445795 
L 82.872641 130.268948 
L 98.311376 148.668835 
L 113.750111 153.867031 
L 129.188846 159.83873 
L 144.627582 163.868475 
L 160.066317 164.670904 
L 175.505052 164.138285 
L 190.943787 165.096682 
L 206.382522 165.644138 
L 221.821257 165.836818 
L 237.259993 165.878091 
L 252.698728 165.883325 
L 268.137463 165.81153 
L 283.576198 165.854152 
L 299.014933 165.895791 
L 314.453668 165.865364 
L 329.892404 165.864164 
L 345.331139 165.783816 
L 360.769874 165.718364 
L 376.208609 165.879439 
L 391.647344 165.901775 
L 407.08608 162.200468 
" style="fill:none;stroke:#1b9e77;stroke-linecap:square;stroke-opacity:0.5;stroke-width:1.5;"/>
   </g>
   <g id="line2d_71">
    <path clip-path="url(#pbac50a00f4)" d="M 51.99517 165.17971 
L 67.433906 165.863811 
L 82.872641 165.823742 
L 98.311376 165.529465 
L 113.750111 149.869834 
L 129.188846 151.255284 
L 144.627582 165.471389 
L 160.066317 155.547446 
L 175.505052 144.44303 
L 190.943787 121.353855 
L 206.382522 130.20103 
L 221.821257 125.997219 
L 237.259993 153.657897 
L 252.698728 165.088266 
L 268.137463 165.664255 
L 283.576198 165.817838 
L 299.014933 165.830796 
L 314.453668 165.867401 
L 329.892404 165.885319 
L 345.331139 165.910062 
L 360.769874 165.922207 
L 376.208609 165.947522 
L 391.647344 165.954544 
L 407.08608 165.942123 
" style="fill:none;stroke:#1b9e77;stroke-linecap:square;stroke-opacity:0.5;stroke-width:1.5;"/>
   </g>
   <g id="line2d_72">
    <path clip-path="url(#pbac50a00f4)" d="M 51.99517 165.885558 
L 67.433906 165.820416 
L 82.872641 165.879876 
L 98.311376 165.935792 
L 113.750111 165.94827 
L 129.188846 165.952775 
L 144.627582 165.943329 
L 160.066317 165.926444 
L 175.505052 164.073626 
L 190.943787 151.084745 
L 206.382522 152.785366 
L 221.821257 113.469483 
L 237.259993 159.506882 
L 252.698728 126.332773 
L 268.137463 150.033219 
L 283.576198 120.528786 
L 299.014933 158.882706 
L 314.453668 165.333365 
L 329.892404 165.415668 
L 345.331139 165.751294 
L 360.769874 165.856329 
L 376.208609 165.892373 
L 391.647344 165.87643 
L 407.08608 165.90854 
" style="fill:none;stroke:#1b9e77;stroke-linecap:square;stroke-opacity:0.5;stroke-width:1.5;"/>
   </g>
   <g id="line2d_73">
    <path clip-path="url(#pbac50a00f4)" d="M 51.99517 165.615069 
L 67.433906 165.809246 
L 82.872641 164.433663 
L 98.311376 165.727511 
L 113.750111 165.275583 
L 129.188846 164.883881 
L 144.627582 165.704175 
L 160.066317 165.775749 
L 175.505052 165.636078 
L 190.943787 165.752108 
L 206.382522 165.874251 
L 221.821257 165.938594 
L 237.259993 165.933389 
L 252.698728 165.948663 
L 268.137463 165.898322 
L 283.576198 163.082229 
L 299.014933 151.378724 
L 314.453668 149.970901 
L 329.892404 149.657686 
L 345.331139 141.273525 
L 360.769874 90.154583 
L 376.208609 138.598251 
L 391.647344 153.720598 
L 407.08608 161.981267 
" style="fill:none;stroke:#1b9e77;stroke-linecap:square;stroke-opacity:0.5;stroke-width:1.5;"/>
   </g>
   <g id="line2d_74">
    <path clip-path="url(#pbac50a00f4)" d="M 51.99517 165.856891 
L 67.433906 165.608116 
L 82.872641 165.332185 
L 98.311376 163.679406 
L 113.750111 155.131516 
L 129.188846 149.161932 
L 144.627582 101.92114 
L 160.066317 126.124452 
L 175.505052 161.032198 
L 190.943787 163.95595 
L 206.382522 165.500871 
L 221.821257 164.725226 
L 237.259993 122.359573 
L 252.698728 164.7357 
L 268.137463 165.905176 
L 283.576198 165.846556 
L 299.014933 165.399509 
L 314.453668 163.064182 
L 329.892404 165.608981 
L 345.331139 165.252939 
L 360.769874 163.203187 
L 376.208609 164.535447 
L 391.647344 164.596641 
L 407.08608 165.486271 
" style="fill:none;stroke:#1b9e77;stroke-linecap:square;stroke-opacity:0.5;stroke-width:1.5;"/>
   </g>
   <g id="line2d_75">
    <path clip-path="url(#pbac50a00f4)" d="M 51.99517 164.814752 
L 67.433906 148.489243 
L 82.872641 118.360924 
L 98.311376 56.855331 
L 113.750111 153.426322 
L 129.188846 162.473519 
L 144.627582 164.697548 
L 160.066317 165.516704 
L 175.505052 165.644374 
L 190.943787 165.78741 
L 206.382522 165.827562 
L 221.821257 165.893621 
L 237.259993 165.907575 
L 252.698728 165.913498 
L 268.137463 165.928719 
L 283.576198 165.936071 
L 299.014933 165.932274 
L 314.453668 165.829828 
L 329.892404 165.338699 
L 345.331139 165.752714 
L 360.769874 165.80618 
L 376.208609 165.874718 
L 391.647344 165.831532 
L 407.08608 162.184932 
" style="fill:none;stroke:#1b9e77;stroke-linecap:square;stroke-opacity:0.5;stroke-width:1.5;"/>
   </g>
   <g id="line2d_76">
    <path clip-path="url(#pbac50a00f4)" d="M 51.99517 164.152097 
L 67.433906 149.351179 
L 82.872641 131.040124 
L 98.311376 159.659837 
L 113.750111 163.720558 
L 129.188846 164.952525 
L 144.627582 165.157793 
L 160.066317 155.570887 
L 175.505052 133.974219 
L 190.943787 154.82279 
L 206.382522 161.035072 
L 221.821257 164.098326 
L 237.259993 159.561273 
L 252.698728 122.498741 
L 268.137463 142.92943 
L 283.576198 165.624376 
L 299.014933 165.498508 
L 314.453668 165.579614 
L 329.892404 165.690264 
L 345.331139 165.731248 
L 360.769874 165.825495 
L 376.208609 165.926069 
L 391.647344 165.915588 
L 407.08608 165.708029 
" style="fill:none;stroke:#1b9e77;stroke-linecap:square;stroke-opacity:0.5;stroke-width:1.5;"/>
   </g>
   <g id="line2d_77">
    <path clip-path="url(#pbac50a00f4)" d="M 51.99517 165.66318 
L 67.433906 157.816857 
L 82.872641 120.371848 
L 98.311376 149.699413 
L 113.750111 135.756687 
L 129.188846 164.908842 
L 144.627582 165.339187 
L 160.066317 164.092457 
L 175.505052 159.321527 
L 190.943787 164.404141 
L 206.382522 164.63969 
L 221.821257 164.226978 
L 237.259993 165.206787 
L 252.698728 156.684092 
L 268.137463 160.436542 
L 283.576198 141.899053 
L 299.014933 151.200084 
L 314.453668 151.800074 
L 329.892404 155.165912 
L 345.331139 163.600279 
L 360.769874 165.511489 
L 376.208609 165.799711 
L 391.647344 165.957489 
L 407.08608 164.521729 
" style="fill:none;stroke:#1b9e77;stroke-linecap:square;stroke-opacity:0.5;stroke-width:1.5;"/>
   </g>
   <g id="line2d_78">
    <path clip-path="url(#pbac50a00f4)" d="M 51.99517 163.456938 
L 67.433906 165.230222 
L 82.872641 165.527193 
L 98.311376 165.735782 
L 113.750111 165.762652 
L 129.188846 165.81229 
L 144.627582 165.85172 
L 160.066317 165.863545 
L 175.505052 165.841642 
L 190.943787 165.871472 
L 206.382522 165.900017 
L 221.821257 165.911907 
L 237.259993 165.91193 
L 252.698728 165.936031 
L 268.137463 165.820347 
L 283.576198 157.7323 
L 299.014933 160.030483 
L 314.453668 146.330691 
L 329.892404 135.089707 
L 345.331139 134.07538 
L 360.769874 110.994536 
L 376.208609 141.671571 
L 391.647344 150.470259 
L 407.08608 163.19543 
" style="fill:none;stroke:#1b9e77;stroke-linecap:square;stroke-opacity:0.5;stroke-width:1.5;"/>
   </g>
   <g id="line2d_79">
    <path clip-path="url(#pbac50a00f4)" d="M 51.99517 165.96 
L 67.433906 165.940145 
L 82.872641 165.366986 
L 98.311376 163.563246 
L 113.750111 164.837814 
L 129.188846 164.185404 
L 144.627582 156.518435 
L 160.066317 160.785364 
L 175.505052 159.205847 
L 190.943787 157.492542 
L 206.382522 142.566822 
L 221.821257 158.79764 
L 237.259993 164.948288 
L 252.698728 165.073854 
L 268.137463 159.199128 
L 283.576198 140.555402 
L 299.014933 86.215239 
L 314.453668 165.822168 
L 329.892404 165.911577 
L 345.331139 165.066836 
L 360.769874 157.445629 
L 376.208609 161.096062 
L 391.647344 163.12802 
L 407.08608 164.341595 
" style="fill:none;stroke:#1b9e77;stroke-linecap:square;stroke-opacity:0.5;stroke-width:1.5;"/>
   </g>
   <g id="line2d_80">
    <path clip-path="url(#pbac50a00f4)" d="M 51.99517 156.441962 
L 67.433906 160.208843 
L 82.872641 162.493491 
L 98.311376 164.800131 
L 113.750111 165.093477 
L 129.188846 165.208728 
L 144.627582 163.831236 
L 160.066317 163.460829 
L 175.505052 163.525905 
L 190.943787 163.035473 
L 206.382522 163.586829 
L 221.821257 162.649127 
L 237.259993 161.896053 
L 252.698728 157.871672 
L 268.137463 158.127787 
L 283.576198 160.460248 
L 299.014933 162.01986 
L 314.453668 162.391761 
L 329.892404 162.430586 
L 345.331139 164.537281 
L 360.769874 165.466515 
L 376.208609 165.796649 
L 391.647344 164.938737 
L 407.08608 43.750868 
" style="fill:none;stroke:#1b9e77;stroke-linecap:square;stroke-opacity:0.5;stroke-width:1.5;"/>
   </g>
   <g id="line2d_81">
    <path clip-path="url(#pbac50a00f4)" d="M 51.99517 165.840795 
L 67.433906 165.590724 
L 82.872641 164.448984 
L 98.311376 161.259308 
L 113.750111 145.892557 
L 129.188846 155.180499 
L 144.627582 164.879341 
L 160.066317 165.206677 
L 175.505052 165.166382 
L 190.943787 161.595866 
L 206.382522 164.386337 
L 221.821257 165.614426 
L 237.259993 165.76556 
L 252.698728 157.673944 
L 268.137463 152.220598 
L 283.576198 154.11693 
L 299.014933 101.729278 
L 314.453668 154.862031 
L 329.892404 160.042939 
L 345.331139 160.387005 
L 360.769874 141.38792 
L 376.208609 161.213152 
L 391.647344 165.136233 
L 407.08608 164.426555 
" style="fill:none;stroke:#1b9e77;stroke-linecap:square;stroke-opacity:0.5;stroke-width:1.5;"/>
   </g>
   <g id="line2d_82">
    <path clip-path="url(#pbac50a00f4)" d="M 51.99517 165.845184 
L 67.433906 165.813705 
L 82.872641 165.528928 
L 98.311376 165.575936 
L 113.750111 163.507582 
L 129.188846 147.917647 
L 144.627582 140.566547 
L 160.066317 163.442366 
L 175.505052 161.323388 
L 190.943787 106.944146 
L 206.382522 93.456259 
L 221.821257 160.202969 
L 237.259993 163.632195 
L 252.698728 164.432991 
L 268.137463 164.915384 
L 283.576198 165.218459 
L 299.014933 165.42332 
L 314.453668 165.692721 
L 329.892404 165.791397 
L 345.331139 165.921885 
L 360.769874 165.755003 
L 376.208609 165.857487 
L 391.647344 165.861354 
L 407.08608 165.397195 
" style="fill:none;stroke:#1b9e77;stroke-linecap:square;stroke-opacity:0.5;stroke-width:1.5;"/>
   </g>
   <g id="line2d_83">
    <path clip-path="url(#pbac50a00f4)" d="M 51.99517 165.718343 
L 67.433906 165.507286 
L 82.872641 165.490564 
L 98.311376 165.73155 
L 113.750111 165.728969 
L 129.188846 165.842901 
L 144.627582 136.496927 
L 160.066317 84.571874 
L 175.505052 147.498135 
L 190.943787 141.046083 
L 206.382522 157.30364 
L 221.821257 164.328649 
L 237.259993 165.176937 
L 252.698728 159.306126 
L 268.137463 159.558308 
L 283.576198 164.222469 
L 299.014933 163.149885 
L 314.453668 159.46806 
L 329.892404 163.723668 
L 345.331139 164.90419 
L 360.769874 165.105777 
L 376.208609 165.819476 
L 391.647344 165.916096 
L 407.08608 162.408135 
" style="fill:none;stroke:#1b9e77;stroke-linecap:square;stroke-opacity:0.5;stroke-width:1.5;"/>
   </g>
   <g id="line2d_84">
    <path clip-path="url(#pbac50a00f4)" d="M 51.99517 155.494422 
L 67.433906 123.875875 
L 82.872641 106.558846 
L 98.311376 116.222426 
L 113.750111 149.435179 
L 129.188846 157.738552 
L 144.627582 161.886533 
L 160.066317 164.572496 
L 175.505052 165.147452 
L 190.943787 165.195728 
L 206.382522 165.184311 
L 221.821257 165.598034 
L 237.259993 165.818396 
L 252.698728 165.87212 
L 268.137463 165.877391 
L 283.576198 165.82064 
L 299.014933 165.627847 
L 314.453668 165.718231 
L 329.892404 165.802862 
L 345.331139 165.755848 
L 360.769874 165.680599 
L 376.208609 165.713668 
L 391.647344 165.801787 
L 407.08608 163.6248 
" style="fill:none;stroke:#1b9e77;stroke-linecap:square;stroke-opacity:0.5;stroke-width:1.5;"/>
   </g>
   <g id="line2d_85">
    <path clip-path="url(#pbac50a00f4)" d="M 51.99517 165.866969 
L 67.433906 165.704284 
L 82.872641 165.766338 
L 98.311376 165.876846 
L 113.750111 165.909741 
L 129.188846 165.940822 
L 144.627582 165.946664 
L 160.066317 165.94677 
L 175.505052 165.934848 
L 190.943787 165.895552 
L 206.382522 165.618049 
L 221.821257 164.852831 
L 237.259993 165.009131 
L 252.698728 164.322317 
L 268.137463 159.621131 
L 283.576198 144.572411 
L 299.014933 145.923048 
L 314.453668 145.906777 
L 329.892404 134.434286 
L 345.331139 137.950009 
L 360.769874 142.325229 
L 376.208609 139.42248 
L 391.647344 152.005082 
L 407.08608 163.272431 
" style="fill:none;stroke:#1b9e77;stroke-linecap:square;stroke-opacity:0.5;stroke-width:1.5;"/>
   </g>
   <g id="line2d_86">
    <path clip-path="url(#pbac50a00f4)" d="M 51.99517 165.888477 
L 67.433906 165.773203 
L 82.872641 165.7831 
L 98.311376 165.896388 
L 113.750111 165.917143 
L 129.188846 165.895853 
L 144.627582 160.425654 
L 160.066317 143.644935 
L 175.505052 122.981957 
L 190.943787 124.736709 
L 206.382522 154.316889 
L 221.821257 160.672337 
L 237.259993 137.451473 
L 252.698728 137.9662 
L 268.137463 160.769605 
L 283.576198 161.438738 
L 299.014933 164.791306 
L 314.453668 164.900184 
L 329.892404 165.457353 
L 345.331139 165.747906 
L 360.769874 165.836536 
L 376.208609 165.931958 
L 391.647344 165.948221 
L 407.08608 165.85192 
" style="fill:none;stroke:#1b9e77;stroke-linecap:square;stroke-opacity:0.5;stroke-width:1.5;"/>
   </g>
   <g id="line2d_87">
    <path clip-path="url(#pbac50a00f4)" d="M 51.99517 165.771419 
L 67.433906 165.596461 
L 82.872641 165.73478 
L 98.311376 165.860205 
L 113.750111 165.893628 
L 129.188846 165.910159 
L 144.627582 165.91039 
L 160.066317 165.919512 
L 175.505052 165.925393 
L 190.943787 165.929832 
L 206.382522 165.929087 
L 221.821257 165.936235 
L 237.259993 165.939373 
L 252.698728 165.95027 
L 268.137463 165.929028 
L 283.576198 162.226109 
L 299.014933 139.955139 
L 314.453668 121.004106 
L 329.892404 143.419499 
L 345.331139 141.322579 
L 360.769874 122.62726 
L 376.208609 151.838318 
L 391.647344 148.729724 
L 407.08608 164.765538 
" style="fill:none;stroke:#1b9e77;stroke-linecap:square;stroke-opacity:0.5;stroke-width:1.5;"/>
   </g>
   <g id="line2d_88">
    <path clip-path="url(#pbac50a00f4)" d="M 51.99517 165.856053 
L 67.433906 165.743366 
L 82.872641 165.838266 
L 98.311376 165.913094 
L 113.750111 165.926961 
L 129.188846 165.937333 
L 144.627582 165.918825 
L 160.066317 165.848765 
L 175.505052 165.146417 
L 190.943787 162.635089 
L 206.382522 162.149377 
L 221.821257 164.47716 
L 237.259993 163.760296 
L 252.698728 133.067359 
L 268.137463 126.363246 
L 283.576198 112.897642 
L 299.014933 124.41264 
L 314.453668 163.955207 
L 329.892404 163.234839 
L 345.331139 151.980055 
L 360.769874 165.575835 
L 376.208609 165.808147 
L 391.647344 165.731661 
L 407.08608 165.846407 
" style="fill:none;stroke:#1b9e77;stroke-linecap:square;stroke-opacity:0.5;stroke-width:1.5;"/>
   </g>
   <g id="line2d_89">
    <path clip-path="url(#pbac50a00f4)" d="M 51.99517 165.952564 
L 67.433906 165.776799 
L 82.872641 159.508216 
L 98.311376 158.621935 
L 113.750111 158.710277 
L 129.188846 157.987982 
L 144.627582 157.748891 
L 160.066317 158.416091 
L 175.505052 160.91291 
L 190.943787 162.62917 
L 206.382522 165.496808 
L 221.821257 165.542216 
L 237.259993 165.656028 
L 252.698728 159.347918 
L 268.137463 154.276081 
L 283.576198 132.934548 
L 299.014933 100.758028 
L 314.453668 143.55252 
L 329.892404 163.324185 
L 345.331139 165.26111 
L 360.769874 165.885415 
L 376.208609 165.442874 
L 391.647344 164.47742 
L 407.08608 165.804058 
" style="fill:none;stroke:#1b9e77;stroke-linecap:square;stroke-opacity:0.5;stroke-width:1.5;"/>
   </g>
   <g id="line2d_90">
    <path clip-path="url(#pbac50a00f4)" d="M 51.99517 165.908757 
L 67.433906 165.941451 
L 82.872641 165.905708 
L 98.311376 164.718197 
L 113.750111 156.897297 
L 129.188846 158.172476 
L 144.627582 154.249569 
L 160.066317 143.923633 
L 175.505052 122.205728 
L 190.943787 100.800102 
L 206.382522 137.591407 
L 221.821257 158.96614 
L 237.259993 165.24893 
L 252.698728 164.772409 
L 268.137463 165.616159 
L 283.576198 165.820954 
L 299.014933 165.87245 
L 314.453668 165.864353 
L 329.892404 165.856787 
L 345.331139 165.925891 
L 360.769874 165.947445 
L 376.208609 165.954581 
L 391.647344 165.95167 
L 407.08608 165.911948 
" style="fill:none;stroke:#1b9e77;stroke-linecap:square;stroke-opacity:0.5;stroke-width:1.5;"/>
   </g>
   <g id="line2d_91">
    <path clip-path="url(#pbac50a00f4)" d="M 51.99517 115.008999 
L 67.433906 86.534461 
L 82.872641 144.637996 
L 98.311376 156.476147 
L 113.750111 159.81997 
L 129.188846 162.829656 
L 144.627582 164.804603 
L 160.066317 164.894548 
L 175.505052 164.231097 
L 190.943787 164.923036 
L 206.382522 165.502672 
L 221.821257 165.612914 
L 237.259993 165.54805 
L 252.698728 165.698426 
L 268.137463 165.79414 
L 283.576198 165.85589 
L 299.014933 165.87305 
L 314.453668 165.873563 
L 329.892404 165.869386 
L 345.331139 165.887385 
L 360.769874 165.887116 
L 376.208609 165.903055 
L 391.647344 165.772613 
L 407.08608 144.785274 
" style="fill:none;stroke:#1b9e77;stroke-linecap:square;stroke-opacity:0.5;stroke-width:1.5;"/>
   </g>
   <g id="line2d_92">
    <path clip-path="url(#pbac50a00f4)" d="M 51.99517 165.685628 
L 67.433906 165.442569 
L 82.872641 165.582176 
L 98.311376 165.7755 
L 113.750111 165.822598 
L 129.188846 165.89538 
L 144.627582 165.924574 
L 160.066317 165.936505 
L 175.505052 165.912935 
L 190.943787 165.913892 
L 206.382522 164.696263 
L 221.821257 153.390792 
L 237.259993 157.387501 
L 252.698728 154.210381 
L 268.137463 135.200145 
L 283.576198 128.490457 
L 299.014933 146.517614 
L 314.453668 142.264617 
L 329.892404 144.603295 
L 345.331139 162.931126 
L 360.769874 160.723121 
L 376.208609 163.250663 
L 391.647344 165.318362 
L 407.08608 147.147951 
" style="fill:none;stroke:#1b9e77;stroke-linecap:square;stroke-opacity:0.5;stroke-width:1.5;"/>
   </g>
   <g id="line2d_93">
    <path clip-path="url(#pbac50a00f4)" d="M 51.99517 165.923316 
L 67.433906 165.844507 
L 82.872641 164.609108 
L 98.311376 160.211452 
L 113.750111 162.64816 
L 129.188846 164.69955 
L 144.627582 157.893618 
L 160.066317 146.882531 
L 175.505052 152.394884 
L 190.943787 158.485065 
L 206.382522 159.448694 
L 221.821257 159.102527 
L 237.259993 136.482101 
L 252.698728 149.652125 
L 268.137463 151.14641 
L 283.576198 143.389537 
L 299.014933 144.914474 
L 314.453668 158.185992 
L 329.892404 164.27655 
L 345.331139 165.473775 
L 360.769874 164.680158 
L 376.208609 164.340343 
L 391.647344 162.911074 
L 407.08608 160.428092 
" style="fill:none;stroke:#1b9e77;stroke-linecap:square;stroke-opacity:0.5;stroke-width:1.5;"/>
   </g>
   <g id="line2d_94">
    <path clip-path="url(#pbac50a00f4)" d="M 51.99517 162.407321 
L 67.433906 80.260301 
L 82.872641 93.168961 
L 98.311376 146.591679 
L 113.750111 158.78058 
L 129.188846 162.042788 
L 144.627582 164.037829 
L 160.066317 164.861366 
L 175.505052 164.943508 
L 190.943787 165.436056 
L 206.382522 165.692176 
L 221.821257 165.780988 
L 237.259993 165.804417 
L 252.698728 165.839348 
L 268.137463 165.874947 
L 283.576198 165.912099 
L 299.014933 165.925703 
L 314.453668 165.922556 
L 329.892404 165.91122 
L 345.331139 165.92734 
L 360.769874 165.941044 
L 376.208609 165.9541 
L 391.647344 165.908492 
L 407.08608 165.099233 
" style="fill:none;stroke:#1b9e77;stroke-linecap:square;stroke-opacity:0.5;stroke-width:1.5;"/>
   </g>
   <g id="line2d_95">
    <path clip-path="url(#pbac50a00f4)" d="M 51.99517 165.884554 
L 67.433906 165.801 
L 82.872641 165.85312 
L 98.311376 165.927998 
L 113.750111 165.943683 
L 129.188846 165.952911 
L 144.627582 165.933183 
L 160.066317 165.450503 
L 175.505052 157.560229 
L 190.943787 143.279377 
L 206.382522 146.40703 
L 221.821257 152.051098 
L 237.259993 146.664708 
L 252.698728 128.299428 
L 268.137463 148.085053 
L 283.576198 142.1885 
L 299.014933 144.988329 
L 314.453668 157.262043 
L 329.892404 165.263693 
L 345.331139 165.527768 
L 360.769874 165.556196 
L 376.208609 165.575735 
L 391.647344 164.110853 
L 407.08608 164.45705 
" style="fill:none;stroke:#1b9e77;stroke-linecap:square;stroke-opacity:0.5;stroke-width:1.5;"/>
   </g>
   <g id="line2d_96">
    <path clip-path="url(#pbac50a00f4)" d="M 51.99517 165.912371 
L 67.433906 165.756666 
L 82.872641 165.287845 
L 98.311376 157.480428 
L 113.750111 157.27531 
L 129.188846 161.046837 
L 144.627582 159.169008 
L 160.066317 158.918204 
L 175.505052 159.698295 
L 190.943787 159.513806 
L 206.382522 164.241148 
L 221.821257 165.843029 
L 237.259993 165.745571 
L 252.698728 162.22325 
L 268.137463 162.485774 
L 283.576198 165.189232 
L 299.014933 163.672483 
L 314.453668 149.755401 
L 329.892404 132.549106 
L 345.331139 140.529363 
L 360.769874 135.588203 
L 376.208609 149.960452 
L 391.647344 154.007448 
L 407.08608 162.174813 
" style="fill:none;stroke:#1b9e77;stroke-linecap:square;stroke-opacity:0.5;stroke-width:1.5;"/>
   </g>
   <g id="line2d_97">
    <path clip-path="url(#pbac50a00f4)" d="M 51.99517 159.018417 
L 67.433906 153.715135 
L 82.872641 129.185986 
L 98.311376 158.464043 
L 113.750111 164.584993 
L 129.188846 165.456068 
L 144.627582 165.817436 
L 160.066317 165.69575 
L 175.505052 165.388337 
L 190.943787 165.912196 
L 206.382522 165.770064 
L 221.821257 165.361728 
L 237.259993 153.930274 
L 252.698728 75.003689 
L 268.137463 154.932906 
L 283.576198 157.236215 
L 299.014933 163.287511 
L 314.453668 162.542414 
L 329.892404 164.455088 
L 345.331139 165.362249 
L 360.769874 165.636635 
L 376.208609 165.714384 
L 391.647344 165.63398 
L 407.08608 165.918545 
" style="fill:none;stroke:#1b9e77;stroke-linecap:square;stroke-opacity:0.5;stroke-width:1.5;"/>
   </g>
   <g id="line2d_98">
    <path clip-path="url(#pbac50a00f4)" d="M 51.99517 124.447068 
L 67.433906 129.111769 
L 82.872641 139.060937 
L 98.311376 156.784442 
L 113.750111 161.308086 
L 129.188846 163.734322 
L 144.627582 164.421353 
L 160.066317 164.711506 
L 175.505052 164.821859 
L 190.943787 165.324872 
L 206.382522 165.525852 
L 221.821257 165.386044 
L 237.259993 165.114948 
L 252.698728 165.223867 
L 268.137463 165.512521 
L 283.576198 165.382511 
L 299.014933 165.002771 
L 314.453668 165.245195 
L 329.892404 164.798627 
L 345.331139 164.868226 
L 360.769874 164.894408 
L 376.208609 163.112339 
L 391.647344 152.59637 
L 407.08608 117.634151 
" style="fill:none;stroke:#1b9e77;stroke-linecap:square;stroke-opacity:0.5;stroke-width:1.5;"/>
   </g>
   <g id="line2d_99">
    <path clip-path="url(#pbac50a00f4)" d="M 51.99517 150.838479 
L 67.433906 117.573332 
L 82.872641 123.053776 
L 98.311376 139.631114 
L 113.750111 152.371356 
L 129.188846 160.137142 
L 144.627582 162.882817 
L 160.066317 164.737891 
L 175.505052 165.133381 
L 190.943787 165.55896 
L 206.382522 165.709628 
L 221.821257 165.80332 
L 237.259993 165.816842 
L 252.698728 165.809134 
L 268.137463 165.806416 
L 283.576198 165.762275 
L 299.014933 165.717795 
L 314.453668 165.743239 
L 329.892404 165.762153 
L 345.331139 165.797826 
L 360.769874 165.778933 
L 376.208609 165.834392 
L 391.647344 165.332146 
L 407.08608 127.431691 
" style="fill:none;stroke:#1b9e77;stroke-linecap:square;stroke-opacity:0.5;stroke-width:1.5;"/>
   </g>
   <g id="line2d_100">
    <path clip-path="url(#pbac50a00f4)" d="M 51.99517 157.783717 
L 67.433906 154.824726 
L 82.872641 155.189798 
L 98.311376 163.32836 
L 113.750111 165.099617 
L 129.188846 165.357575 
L 144.627582 164.948001 
L 160.066317 165.06361 
L 175.505052 164.883889 
L 190.943787 165.059329 
L 206.382522 165.27545 
L 221.821257 165.014227 
L 237.259993 165.031986 
L 252.698728 164.60469 
L 268.137463 164.856142 
L 283.576198 165.317269 
L 299.014933 165.438803 
L 314.453668 165.384279 
L 329.892404 165.258833 
L 345.331139 165.463448 
L 360.769874 165.538029 
L 376.208609 165.607758 
L 391.647344 162.704328 
L 407.08608 16.99018 
" style="fill:none;stroke:#1b9e77;stroke-linecap:square;stroke-opacity:0.5;stroke-width:1.5;"/>
   </g>
   <g id="line2d_101">
    <path clip-path="url(#pbac50a00f4)" d="M 51.99517 165.285437 
L 67.433906 165.494724 
L 82.872641 165.478997 
L 98.311376 165.467797 
L 113.750111 163.42221 
L 129.188846 161.860123 
L 144.627582 147.011478 
L 160.066317 135.788507 
L 175.505052 144.586315 
L 190.943787 154.729395 
L 206.382522 150.517033 
L 221.821257 159.211761 
L 237.259993 139.297456 
L 252.698728 115.83229 
L 268.137463 160.64502 
L 283.576198 165.03573 
L 299.014933 164.513171 
L 314.453668 164.97542 
L 329.892404 165.525225 
L 345.331139 165.788008 
L 360.769874 165.866027 
L 376.208609 165.905246 
L 391.647344 165.863094 
L 407.08608 165.923584 
" style="fill:none;stroke:#1b9e77;stroke-linecap:square;stroke-opacity:0.5;stroke-width:1.5;"/>
   </g>
   <g id="line2d_102">
    <path clip-path="url(#pbac50a00f4)" d="M 51.99517 165.794684 
L 67.433906 165.589779 
L 82.872641 165.658574 
L 98.311376 165.82814 
L 113.750111 165.885006 
L 129.188846 165.89902 
L 144.627582 165.874394 
L 160.066317 165.871172 
L 175.505052 165.868887 
L 190.943787 165.884966 
L 206.382522 165.88845 
L 221.821257 165.907531 
L 237.259993 165.905329 
L 252.698728 165.762077 
L 268.137463 154.651337 
L 283.576198 137.650927 
L 299.014933 141.308196 
L 314.453668 129.620094 
L 329.892404 141.571031 
L 345.331139 152.98365 
L 360.769874 143.781245 
L 376.208609 146.966709 
L 391.647344 152.919265 
L 407.08608 160.953582 
" style="fill:none;stroke:#1b9e77;stroke-linecap:square;stroke-opacity:0.5;stroke-width:1.5;"/>
   </g>
   <g id="line2d_103">
    <path clip-path="url(#pbac50a00f4)" d="M 51.99517 165.930555 
L 67.433906 165.907577 
L 82.872641 165.912455 
L 98.311376 165.430994 
L 113.750111 157.394531 
L 129.188846 151.659601 
L 144.627582 143.014444 
L 160.066317 158.790819 
L 175.505052 164.367961 
L 190.943787 165.417245 
L 206.382522 165.88165 
L 221.821257 165.700888 
L 237.259993 161.1155 
L 252.698728 163.670828 
L 268.137463 165.199052 
L 283.576198 163.123882 
L 299.014933 158.284495 
L 314.453668 157.754133 
L 329.892404 154.850644 
L 345.331139 159.983387 
L 360.769874 140.135916 
L 376.208609 133.746548 
L 391.647344 131.497138 
L 407.08608 159.2538 
" style="fill:none;stroke:#1b9e77;stroke-linecap:square;stroke-opacity:0.5;stroke-width:1.5;"/>
   </g>
   <g id="line2d_104">
    <path clip-path="url(#pbac50a00f4)" d="M 51.99517 161.027313 
L 67.433906 155.04 
L 82.872641 154.084688 
L 98.311376 160.9952 
L 113.750111 162.77213 
L 129.188846 164.95354 
L 144.627582 165.519801 
L 160.066317 165.502565 
L 175.505052 165.056327 
L 190.943787 165.186654 
L 206.382522 163.843708 
L 221.821257 47.840674 
L 237.259993 153.110985 
L 252.698728 162.955595 
L 268.137463 161.842654 
L 283.576198 164.119501 
L 299.014933 165.165466 
L 314.453668 164.728084 
L 329.892404 163.266669 
L 345.331139 163.786484 
L 360.769874 165.173928 
L 376.208609 165.84925 
L 391.647344 165.685102 
L 407.08608 156.517723 
" style="fill:none;stroke:#1b9e77;stroke-linecap:square;stroke-opacity:0.5;stroke-width:1.5;"/>
   </g>
   <g id="line2d_105">
    <path clip-path="url(#pbac50a00f4)" d="M 51.99517 131.435117 
L 67.433906 141.377653 
L 82.872641 151.785285 
L 98.311376 163.952322 
L 113.750111 165.431409 
L 129.188846 165.718731 
L 144.627582 165.652005 
L 160.066317 165.617907 
L 175.505052 165.392465 
L 190.943787 162.852327 
L 206.382522 155.641106 
L 221.821257 163.370973 
L 237.259993 161.175101 
L 252.698728 153.303906 
L 268.137463 154.829524 
L 283.576198 153.342571 
L 299.014933 152.44413 
L 314.453668 150.311047 
L 329.892404 151.762138 
L 345.331139 156.58767 
L 360.769874 159.124402 
L 376.208609 163.147491 
L 391.647344 164.905583 
L 407.08608 164.86318 
" style="fill:none;stroke:#1b9e77;stroke-linecap:square;stroke-opacity:0.5;stroke-width:1.5;"/>
   </g>
   <g id="line2d_106">
    <path clip-path="url(#pbac50a00f4)" d="M 51.99517 165.911408 
L 67.433906 165.770939 
L 82.872641 165.710422 
L 98.311376 164.210663 
L 113.750111 164.766831 
L 129.188846 165.35735 
L 144.627582 159.805842 
L 160.066317 149.338882 
L 175.505052 158.602402 
L 190.943787 147.68355 
L 206.382522 141.521707 
L 221.821257 144.573324 
L 237.259993 150.684464 
L 252.698728 149.10052 
L 268.137463 151.735415 
L 283.576198 155.397865 
L 299.014933 153.225086 
L 314.453668 151.742611 
L 329.892404 158.614972 
L 345.331139 158.974135 
L 360.769874 164.785326 
L 376.208609 165.52136 
L 391.647344 165.593533 
L 407.08608 165.395439 
" style="fill:none;stroke:#1b9e77;stroke-linecap:square;stroke-opacity:0.5;stroke-width:1.5;"/>
   </g>
   <g id="line2d_107">
    <path clip-path="url(#pbac50a00f4)" d="M 51.99517 162.873931 
L 67.433906 156.990622 
L 82.872641 132.498125 
L 98.311376 131.623111 
L 113.750111 138.771403 
L 129.188846 141.224123 
L 144.627582 145.667714 
L 160.066317 155.221904 
L 175.505052 163.169385 
L 190.943787 163.516097 
L 206.382522 163.246819 
L 221.821257 163.672611 
L 237.259993 162.158885 
L 252.698728 159.953989 
L 268.137463 156.661473 
L 283.576198 162.797045 
L 299.014933 165.273516 
L 314.453668 164.425172 
L 329.892404 165.624983 
L 345.331139 165.836069 
L 360.769874 165.85368 
L 376.208609 165.919887 
L 391.647344 165.903853 
L 407.08608 165.139645 
" style="fill:none;stroke:#1b9e77;stroke-linecap:square;stroke-opacity:0.5;stroke-width:1.5;"/>
   </g>
   <g id="line2d_108">
    <path clip-path="url(#pbac50a00f4)" d="M 51.99517 165.893914 
L 67.433906 165.670672 
L 82.872641 165.115195 
L 98.311376 165.452722 
L 113.750111 164.389383 
L 129.188846 163.720876 
L 144.627582 152.780702 
L 160.066317 129.14828 
L 175.505052 119.109983 
L 190.943787 121.886933 
L 206.382522 137.785088 
L 221.821257 164.22812 
L 237.259993 164.903417 
L 252.698728 162.950553 
L 268.137463 154.6746 
L 283.576198 163.889848 
L 299.014933 163.566809 
L 314.453668 165.125841 
L 329.892404 165.40677 
L 345.331139 165.885653 
L 360.769874 165.798813 
L 376.208609 165.384586 
L 391.647344 165.653778 
L 407.08608 165.601511 
" style="fill:none;stroke:#1b9e77;stroke-linecap:square;stroke-opacity:0.5;stroke-width:1.5;"/>
   </g>
   <g id="line2d_109">
    <path clip-path="url(#pbac50a00f4)" d="M 51.99517 109.746244 
L 67.433906 99.934118 
L 82.872641 139.298047 
L 98.311376 145.154498 
L 113.750111 163.838064 
L 129.188846 163.907608 
L 144.627582 165.298802 
L 160.066317 165.695258 
L 175.505052 165.755948 
L 190.943787 165.818013 
L 206.382522 165.827676 
L 221.821257 165.857145 
L 237.259993 165.67751 
L 252.698728 164.943967 
L 268.137463 162.417235 
L 283.576198 160.121191 
L 299.014933 162.818027 
L 314.453668 164.402824 
L 329.892404 163.161356 
L 345.331139 162.118678 
L 360.769874 165.450495 
L 376.208609 165.800965 
L 391.647344 165.811342 
L 407.08608 165.169027 
" style="fill:none;stroke:#1b9e77;stroke-linecap:square;stroke-opacity:0.5;stroke-width:1.5;"/>
   </g>
   <g id="line2d_110">
    <path clip-path="url(#pbac50a00f4)" d="M 51.99517 165.751053 
L 67.433906 165.71124 
L 82.872641 165.801221 
L 98.311376 165.91102 
L 113.750111 165.898737 
L 129.188846 165.70034 
L 144.627582 143.276637 
L 160.066317 95.06985 
L 175.505052 142.104306 
L 190.943787 150.760679 
L 206.382522 164.092893 
L 221.821257 165.53225 
L 237.259993 165.093175 
L 252.698728 165.655071 
L 268.137463 164.548498 
L 283.576198 159.27159 
L 299.014933 150.481941 
L 314.453668 151.916306 
L 329.892404 161.040354 
L 345.331139 162.667621 
L 360.769874 162.948424 
L 376.208609 164.279461 
L 391.647344 162.401283 
L 407.08608 158.110093 
" style="fill:none;stroke:#1b9e77;stroke-linecap:square;stroke-opacity:0.5;stroke-width:1.5;"/>
   </g>
   <g id="line2d_111">
    <path clip-path="url(#pbac50a00f4)" d="M 51.99517 164.716459 
L 67.433906 163.197925 
L 82.872641 155.696532 
L 98.311376 151.67047 
L 113.750111 129.819983 
L 129.188846 151.947924 
L 144.627582 163.445791 
L 160.066317 144.456432 
L 175.505052 144.101507 
L 190.943787 140.134841 
L 206.382522 158.246827 
L 221.821257 164.691022 
L 237.259993 160.821314 
L 252.698728 136.071974 
L 268.137463 163.696778 
L 283.576198 165.412352 
L 299.014933 165.296559 
L 314.453668 165.500411 
L 329.892404 165.739771 
L 345.331139 165.813014 
L 360.769874 165.824439 
L 376.208609 165.8942 
L 391.647344 165.928081 
L 407.08608 165.899432 
" style="fill:none;stroke:#1b9e77;stroke-linecap:square;stroke-opacity:0.5;stroke-width:1.5;"/>
   </g>
   <g id="line2d_112">
    <path clip-path="url(#pbac50a00f4)" d="M 51.99517 165.934633 
L 67.433906 165.357717 
L 82.872641 158.432089 
L 98.311376 146.483876 
L 113.750111 147.127705 
L 129.188846 151.987654 
L 144.627582 146.731684 
L 160.066317 149.509742 
L 175.505052 164.624971 
L 190.943787 165.439725 
L 206.382522 165.76597 
L 221.821257 165.847567 
L 237.259993 165.711094 
L 252.698728 165.720592 
L 268.137463 165.693452 
L 283.576198 165.449816 
L 299.014933 158.472042 
L 314.453668 131.04617 
L 329.892404 132.38646 
L 345.331139 164.341205 
L 360.769874 161.545371 
L 376.208609 163.402819 
L 391.647344 162.976999 
L 407.08608 154.034699 
" style="fill:none;stroke:#1b9e77;stroke-linecap:square;stroke-opacity:0.5;stroke-width:1.5;"/>
   </g>
   <g id="line2d_113">
    <path clip-path="url(#pbac50a00f4)" d="M 51.99517 165.954592 
L 67.433906 165.954592 
L 82.872641 165.954592 
L 98.311376 165.954592 
L 113.750111 165.954592 
L 129.188846 165.954592 
L 144.627582 165.954592 
L 160.066317 165.953868 
L 175.505052 165.954592 
L 190.943787 165.950083 
L 206.382522 165.883637 
L 221.821257 165.100771 
L 237.259993 163.005345 
L 252.698728 160.873984 
L 268.137463 159.029958 
L 283.576198 138.35521 
L 299.014933 138.490157 
L 314.453668 106.325912 
L 329.892404 123.439072 
L 345.331139 143.38972 
L 360.769874 162.940813 
L 376.208609 165.73959 
L 391.647344 165.954592 
L 407.08608 165.954592 
" style="fill:none;stroke:#d95f02;stroke-linecap:square;stroke-width:1.5;"/>
   </g>
   <g id="patch_3">
    <path d="M 34.240625 173.52 
L 34.240625 7.2 
" style="fill:none;stroke:#000000;stroke-linecap:square;stroke-linejoin:miter;stroke-width:0.8;"/>
   </g>
   <g id="patch_4">
    <path d="M 34.240625 173.52 
L 424.840625 173.52 
" style="fill:none;stroke:#000000;stroke-linecap:square;stroke-linejoin:miter;stroke-width:0.8;"/>
   </g>
   <g id="legend_1">
    <g id="patch_5">
     <path d="M 41.240625 29.878125 
L 92.407813 29.878125 
Q 94.407813 29.878125 94.407813 27.878125 
L 94.407813 14.2 
Q 94.407813 12.2 92.407813 12.2 
L 41.240625 12.2 
Q 39.240625 12.2 39.240625 14.2 
L 39.240625 27.878125 
Q 39.240625 29.878125 41.240625 29.878125 
z
" style="fill:#ffffff;opacity:0.8;stroke:#cccccc;stroke-linejoin:miter;"/>
    </g>
    <g id="line2d_114">
     <path d="M 43.240625 20.298438 
L 63.240625 20.298438 
" style="fill:none;stroke:#d95f02;stroke-linecap:square;stroke-width:1.5;"/>
    </g>
    <g id="line2d_115"/>
    <g id="text_15">
     <!-- real -->
     <defs>
      <path d="M 9.421875 75.984375 
L 18.40625 75.984375 
L 18.40625 0 
L 9.421875 0 
z
" id="DejaVuSans-108"/>
     </defs>
     <g transform="translate(71.240625 23.798438)scale(0.1 -0.1)">
      <use xlink:href="#DejaVuSans-114"/>
      <use x="41.082031" xlink:href="#DejaVuSans-101"/>
      <use x="102.605469" xlink:href="#DejaVuSans-97"/>
      <use x="163.884766" xlink:href="#DejaVuSans-108"/>
     </g>
    </g>
   </g>
  </g>
 </g>
 <defs>
  <clipPath id="pbac50a00f4">
   <rect height="166.32" width="390.6" x="34.240625" y="7.2"/>
  </clipPath>
 </defs>
</svg>
