<?xml version="1.0" encoding="utf-8" standalone="no"?>
<!DOCTYPE svg PUBLIC "-//W3C//DTD SVG 1.1//EN"
  "http://www.w3.org/Graphics/SVG/1.1/DTD/svg11.dtd">
<!-- Created with matplotlib (https://matplotlib.org/) -->
<svg height="211.07625pt" version="1.1" viewBox="0 0 445.62794 211.07625" width="445.62794pt" xmlns="http://www.w3.org/2000/svg" xmlns:xlink="http://www.w3.org/1999/xlink">
 <defs>
  <style type="text/css">
*{stroke-linecap:butt;stroke-linejoin:round;}
  </style>
 </defs>
 <g id="figure_1">
  <g id="patch_1">
   <path d="M 0 211.07625 
L 445.62794 211.07625 
L 445.62794 0 
L 0 0 
z
" style="fill:#ffffff;"/>
  </g>
  <g id="axes_1">
   <g id="patch_2">
    <path d="M 43.78125 173.52 
L 434.38125 173.52 
L 434.38125 7.2 
L 43.78125 7.2 
z
" style="fill:#ffffff;"/>
   </g>
   <g id="matplotlib.axis_1">
    <g id="xtick_1">
     <g id="line2d_1">
      <defs>
       <path d="M 0 0 
L 0 3.5 
" id="m9834e10579" style="stroke:#000000;stroke-width:0.8;"/>
      </defs>
      <g>
       <use style="stroke:#000000;stroke-width:0.8;" x="46.09706" xlink:href="#m9834e10579" y="173.52"/>
      </g>
     </g>
     <g id="text_1">
      <!-- 0 -->
      <defs>
       <path d="M 31.78125 66.40625 
Q 24.171875 66.40625 20.328125 58.90625 
Q 16.5 51.421875 16.5 36.375 
Q 16.5 21.390625 20.328125 13.890625 
Q 24.171875 6.390625 31.78125 6.390625 
Q 39.453125 6.390625 43.28125 13.890625 
Q 47.125 21.390625 47.125 36.375 
Q 47.125 51.421875 43.28125 58.90625 
Q 39.453125 66.40625 31.78125 66.40625 
z
M 31.78125 74.21875 
Q 44.046875 74.21875 50.515625 64.515625 
Q 56.984375 54.828125 56.984375 36.375 
Q 56.984375 17.96875 50.515625 8.265625 
Q 44.046875 -1.421875 31.78125 -1.421875 
Q 19.53125 -1.421875 13.0625 8.265625 
Q 6.59375 17.96875 6.59375 36.375 
Q 6.59375 54.828125 13.0625 64.515625 
Q 19.53125 74.21875 31.78125 74.21875 
z
" id="DejaVuSans-48"/>
      </defs>
      <g transform="translate(42.91581 188.118438)scale(0.1 -0.1)">
       <use xlink:href="#DejaVuSans-48"/>
      </g>
     </g>
    </g>
    <g id="xtick_2">
     <g id="line2d_2">
      <g>
       <use style="stroke:#000000;stroke-width:0.8;" x="123.290736" xlink:href="#m9834e10579" y="173.52"/>
      </g>
     </g>
     <g id="text_2">
      <!-- 5 -->
      <defs>
       <path d="M 10.796875 72.90625 
L 49.515625 72.90625 
L 49.515625 64.59375 
L 19.828125 64.59375 
L 19.828125 46.734375 
Q 21.96875 47.46875 24.109375 47.828125 
Q 26.265625 48.1875 28.421875 48.1875 
Q 40.625 48.1875 47.75 41.5 
Q 54.890625 34.8125 54.890625 23.390625 
Q 54.890625 11.625 47.5625 5.09375 
Q 40.234375 -1.421875 26.90625 -1.421875 
Q 22.3125 -1.421875 17.546875 -0.640625 
Q 12.796875 0.140625 7.71875 1.703125 
L 7.71875 11.625 
Q 12.109375 9.234375 16.796875 8.0625 
Q 21.484375 6.890625 26.703125 6.890625 
Q 35.15625 6.890625 40.078125 11.328125 
Q 45.015625 15.765625 45.015625 23.390625 
Q 45.015625 31 40.078125 35.4375 
Q 35.15625 39.890625 26.703125 39.890625 
Q 22.75 39.890625 18.8125 39.015625 
Q 14.890625 38.140625 10.796875 36.28125 
z
" id="DejaVuSans-53"/>
      </defs>
      <g transform="translate(120.109486 188.118438)scale(0.1 -0.1)">
       <use xlink:href="#DejaVuSans-53"/>
      </g>
     </g>
    </g>
    <g id="xtick_3">
     <g id="line2d_3">
      <g>
       <use style="stroke:#000000;stroke-width:0.8;" x="200.484412" xlink:href="#m9834e10579" y="173.52"/>
      </g>
     </g>
     <g id="text_3">
      <!-- 10 -->
      <defs>
       <path d="M 12.40625 8.296875 
L 28.515625 8.296875 
L 28.515625 63.921875 
L 10.984375 60.40625 
L 10.984375 69.390625 
L 28.421875 72.90625 
L 38.28125 72.90625 
L 38.28125 8.296875 
L 54.390625 8.296875 
L 54.390625 0 
L 12.40625 0 
z
" id="DejaVuSans-49"/>
      </defs>
      <g transform="translate(194.121912 188.118438)scale(0.1 -0.1)">
       <use xlink:href="#DejaVuSans-49"/>
       <use x="63.623047" xlink:href="#DejaVuSans-48"/>
      </g>
     </g>
    </g>
    <g id="xtick_4">
     <g id="line2d_4">
      <g>
       <use style="stroke:#000000;stroke-width:0.8;" x="277.678088" xlink:href="#m9834e10579" y="173.52"/>
      </g>
     </g>
     <g id="text_4">
      <!-- 15 -->
      <g transform="translate(271.315588 188.118438)scale(0.1 -0.1)">
       <use xlink:href="#DejaVuSans-49"/>
       <use x="63.623047" xlink:href="#DejaVuSans-53"/>
      </g>
     </g>
    </g>
    <g id="xtick_5">
     <g id="line2d_5">
      <g>
       <use style="stroke:#000000;stroke-width:0.8;" x="354.871764" xlink:href="#m9834e10579" y="173.52"/>
      </g>
     </g>
     <g id="text_5">
      <!-- 20 -->
      <defs>
       <path d="M 19.1875 8.296875 
L 53.609375 8.296875 
L 53.609375 0 
L 7.328125 0 
L 7.328125 8.296875 
Q 12.9375 14.109375 22.625 23.890625 
Q 32.328125 33.6875 34.8125 36.53125 
Q 39.546875 41.84375 41.421875 45.53125 
Q 43.3125 49.21875 43.3125 52.78125 
Q 43.3125 58.59375 39.234375 62.25 
Q 35.15625 65.921875 28.609375 65.921875 
Q 23.96875 65.921875 18.8125 64.3125 
Q 13.671875 62.703125 7.8125 59.421875 
L 7.8125 69.390625 
Q 13.765625 71.78125 18.9375 73 
Q 24.125 74.21875 28.421875 74.21875 
Q 39.75 74.21875 46.484375 68.546875 
Q 53.21875 62.890625 53.21875 53.421875 
Q 53.21875 48.921875 51.53125 44.890625 
Q 49.859375 40.875 45.40625 35.40625 
Q 44.1875 33.984375 37.640625 27.21875 
Q 31.109375 20.453125 19.1875 8.296875 
z
" id="DejaVuSans-50"/>
      </defs>
      <g transform="translate(348.509264 188.118438)scale(0.1 -0.1)">
       <use xlink:href="#DejaVuSans-50"/>
       <use x="63.623047" xlink:href="#DejaVuSans-48"/>
      </g>
     </g>
    </g>
    <g id="xtick_6">
     <g id="line2d_6">
      <g>
       <use style="stroke:#000000;stroke-width:0.8;" x="432.06544" xlink:href="#m9834e10579" y="173.52"/>
      </g>
     </g>
     <g id="text_6">
      <!-- 25 -->
      <g transform="translate(425.70294 188.118438)scale(0.1 -0.1)">
       <use xlink:href="#DejaVuSans-50"/>
       <use x="63.623047" xlink:href="#DejaVuSans-53"/>
      </g>
     </g>
    </g>
    <g id="text_7">
     <!-- hour -->
     <defs>
      <path d="M 54.890625 33.015625 
L 54.890625 0 
L 45.90625 0 
L 45.90625 32.71875 
Q 45.90625 40.484375 42.875 44.328125 
Q 39.84375 48.1875 33.796875 48.1875 
Q 26.515625 48.1875 22.3125 43.546875 
Q 18.109375 38.921875 18.109375 30.90625 
L 18.109375 0 
L 9.078125 0 
L 9.078125 75.984375 
L 18.109375 75.984375 
L 18.109375 46.1875 
Q 21.34375 51.125 25.703125 53.5625 
Q 30.078125 56 35.796875 56 
Q 45.21875 56 50.046875 50.171875 
Q 54.890625 44.34375 54.890625 33.015625 
z
" id="DejaVuSans-104"/>
      <path d="M 30.609375 48.390625 
Q 23.390625 48.390625 19.1875 42.75 
Q 14.984375 37.109375 14.984375 27.296875 
Q 14.984375 17.484375 19.15625 11.84375 
Q 23.34375 6.203125 30.609375 6.203125 
Q 37.796875 6.203125 41.984375 11.859375 
Q 46.1875 17.53125 46.1875 27.296875 
Q 46.1875 37.015625 41.984375 42.703125 
Q 37.796875 48.390625 30.609375 48.390625 
z
M 30.609375 56 
Q 42.328125 56 49.015625 48.375 
Q 55.71875 40.765625 55.71875 27.296875 
Q 55.71875 13.875 49.015625 6.21875 
Q 42.328125 -1.421875 30.609375 -1.421875 
Q 18.84375 -1.421875 12.171875 6.21875 
Q 5.515625 13.875 5.515625 27.296875 
Q 5.515625 40.765625 12.171875 48.375 
Q 18.84375 56 30.609375 56 
z
" id="DejaVuSans-111"/>
      <path d="M 8.5 21.578125 
L 8.5 54.6875 
L 17.484375 54.6875 
L 17.484375 21.921875 
Q 17.484375 14.15625 20.5 10.265625 
Q 23.53125 6.390625 29.59375 6.390625 
Q 36.859375 6.390625 41.078125 11.03125 
Q 45.3125 15.671875 45.3125 23.6875 
L 45.3125 54.6875 
L 54.296875 54.6875 
L 54.296875 0 
L 45.3125 0 
L 45.3125 8.40625 
Q 42.046875 3.421875 37.71875 1 
Q 33.40625 -1.421875 27.6875 -1.421875 
Q 18.265625 -1.421875 13.375 4.4375 
Q 8.5 10.296875 8.5 21.578125 
z
M 31.109375 56 
z
" id="DejaVuSans-117"/>
      <path d="M 41.109375 46.296875 
Q 39.59375 47.171875 37.8125 47.578125 
Q 36.03125 48 33.890625 48 
Q 26.265625 48 22.1875 43.046875 
Q 18.109375 38.09375 18.109375 28.8125 
L 18.109375 0 
L 9.078125 0 
L 9.078125 54.6875 
L 18.109375 54.6875 
L 18.109375 46.1875 
Q 20.953125 51.171875 25.484375 53.578125 
Q 30.03125 56 36.53125 56 
Q 37.453125 56 38.578125 55.875 
Q 39.703125 55.765625 41.0625 55.515625 
z
" id="DejaVuSans-114"/>
     </defs>
     <g transform="translate(227.628906 201.796563)scale(0.1 -0.1)">
      <use xlink:href="#DejaVuSans-104"/>
      <use x="63.378906" xlink:href="#DejaVuSans-111"/>
      <use x="124.560547" xlink:href="#DejaVuSans-117"/>
      <use x="187.939453" xlink:href="#DejaVuSans-114"/>
     </g>
    </g>
   </g>
   <g id="matplotlib.axis_2">
    <g id="ytick_1">
     <g id="line2d_7">
      <defs>
       <path d="M 0 0 
L -3.5 0 
" id="m4b42d89ed6" style="stroke:#000000;stroke-width:0.8;"/>
      </defs>
      <g>
       <use style="stroke:#000000;stroke-width:0.8;" x="43.78125" xlink:href="#m4b42d89ed6" y="165.96013"/>
      </g>
     </g>
     <g id="text_8">
      <!-- 0.0 -->
      <defs>
       <path d="M 10.6875 12.40625 
L 21 12.40625 
L 21 0 
L 10.6875 0 
z
" id="DejaVuSans-46"/>
      </defs>
      <g transform="translate(20.878125 169.759349)scale(0.1 -0.1)">
       <use xlink:href="#DejaVuSans-48"/>
       <use x="63.623047" xlink:href="#DejaVuSans-46"/>
       <use x="95.410156" xlink:href="#DejaVuSans-48"/>
      </g>
     </g>
    </g>
    <g id="ytick_2">
     <g id="line2d_8">
      <g>
       <use style="stroke:#000000;stroke-width:0.8;" x="43.78125" xlink:href="#m4b42d89ed6" y="144.890267"/>
      </g>
     </g>
     <g id="text_9">
      <!-- 0.5 -->
      <g transform="translate(20.878125 148.689486)scale(0.1 -0.1)">
       <use xlink:href="#DejaVuSans-48"/>
       <use x="63.623047" xlink:href="#DejaVuSans-46"/>
       <use x="95.410156" xlink:href="#DejaVuSans-53"/>
      </g>
     </g>
    </g>
    <g id="ytick_3">
     <g id="line2d_9">
      <g>
       <use style="stroke:#000000;stroke-width:0.8;" x="43.78125" xlink:href="#m4b42d89ed6" y="123.820405"/>
      </g>
     </g>
     <g id="text_10">
      <!-- 1.0 -->
      <g transform="translate(20.878125 127.619623)scale(0.1 -0.1)">
       <use xlink:href="#DejaVuSans-49"/>
       <use x="63.623047" xlink:href="#DejaVuSans-46"/>
       <use x="95.410156" xlink:href="#DejaVuSans-48"/>
      </g>
     </g>
    </g>
    <g id="ytick_4">
     <g id="line2d_10">
      <g>
       <use style="stroke:#000000;stroke-width:0.8;" x="43.78125" xlink:href="#m4b42d89ed6" y="102.750542"/>
      </g>
     </g>
     <g id="text_11">
      <!-- 1.5 -->
      <g transform="translate(20.878125 106.549761)scale(0.1 -0.1)">
       <use xlink:href="#DejaVuSans-49"/>
       <use x="63.623047" xlink:href="#DejaVuSans-46"/>
       <use x="95.410156" xlink:href="#DejaVuSans-53"/>
      </g>
     </g>
    </g>
    <g id="ytick_5">
     <g id="line2d_11">
      <g>
       <use style="stroke:#000000;stroke-width:0.8;" x="43.78125" xlink:href="#m4b42d89ed6" y="81.680679"/>
      </g>
     </g>
     <g id="text_12">
      <!-- 2.0 -->
      <g transform="translate(20.878125 85.479898)scale(0.1 -0.1)">
       <use xlink:href="#DejaVuSans-50"/>
       <use x="63.623047" xlink:href="#DejaVuSans-46"/>
       <use x="95.410156" xlink:href="#DejaVuSans-48"/>
      </g>
     </g>
    </g>
    <g id="ytick_6">
     <g id="line2d_12">
      <g>
       <use style="stroke:#000000;stroke-width:0.8;" x="43.78125" xlink:href="#m4b42d89ed6" y="60.610817"/>
      </g>
     </g>
     <g id="text_13">
      <!-- 2.5 -->
      <g transform="translate(20.878125 64.410035)scale(0.1 -0.1)">
       <use xlink:href="#DejaVuSans-50"/>
       <use x="63.623047" xlink:href="#DejaVuSans-46"/>
       <use x="95.410156" xlink:href="#DejaVuSans-53"/>
      </g>
     </g>
    </g>
    <g id="ytick_7">
     <g id="line2d_13">
      <g>
       <use style="stroke:#000000;stroke-width:0.8;" x="43.78125" xlink:href="#m4b42d89ed6" y="39.540954"/>
      </g>
     </g>
     <g id="text_14">
      <!-- 3.0 -->
      <defs>
       <path d="M 40.578125 39.3125 
Q 47.65625 37.796875 51.625 33 
Q 55.609375 28.21875 55.609375 21.1875 
Q 55.609375 10.40625 48.1875 4.484375 
Q 40.765625 -1.421875 27.09375 -1.421875 
Q 22.515625 -1.421875 17.65625 -0.515625 
Q 12.796875 0.390625 7.625 2.203125 
L 7.625 11.71875 
Q 11.71875 9.328125 16.59375 8.109375 
Q 21.484375 6.890625 26.8125 6.890625 
Q 36.078125 6.890625 40.9375 10.546875 
Q 45.796875 14.203125 45.796875 21.1875 
Q 45.796875 27.640625 41.28125 31.265625 
Q 36.765625 34.90625 28.71875 34.90625 
L 20.21875 34.90625 
L 20.21875 43.015625 
L 29.109375 43.015625 
Q 36.375 43.015625 40.234375 45.921875 
Q 44.09375 48.828125 44.09375 54.296875 
Q 44.09375 59.90625 40.109375 62.90625 
Q 36.140625 65.921875 28.71875 65.921875 
Q 24.65625 65.921875 20.015625 65.03125 
Q 15.375 64.15625 9.8125 62.3125 
L 9.8125 71.09375 
Q 15.4375 72.65625 20.34375 73.4375 
Q 25.25 74.21875 29.59375 74.21875 
Q 40.828125 74.21875 47.359375 69.109375 
Q 53.90625 64.015625 53.90625 55.328125 
Q 53.90625 49.265625 50.4375 45.09375 
Q 46.96875 40.921875 40.578125 39.3125 
z
" id="DejaVuSans-51"/>
      </defs>
      <g transform="translate(20.878125 43.340173)scale(0.1 -0.1)">
       <use xlink:href="#DejaVuSans-51"/>
       <use x="63.623047" xlink:href="#DejaVuSans-46"/>
       <use x="95.410156" xlink:href="#DejaVuSans-48"/>
      </g>
     </g>
    </g>
    <g id="ytick_8">
     <g id="line2d_14">
      <g>
       <use style="stroke:#000000;stroke-width:0.8;" x="43.78125" xlink:href="#m4b42d89ed6" y="18.471091"/>
      </g>
     </g>
     <g id="text_15">
      <!-- 3.5 -->
      <g transform="translate(20.878125 22.27031)scale(0.1 -0.1)">
       <use xlink:href="#DejaVuSans-51"/>
       <use x="63.623047" xlink:href="#DejaVuSans-46"/>
       <use x="95.410156" xlink:href="#DejaVuSans-53"/>
      </g>
     </g>
    </g>
    <g id="text_16">
     <!-- precipitation [mm/hour] -->
     <defs>
      <path d="M 18.109375 8.203125 
L 18.109375 -20.796875 
L 9.078125 -20.796875 
L 9.078125 54.6875 
L 18.109375 54.6875 
L 18.109375 46.390625 
Q 20.953125 51.265625 25.265625 53.625 
Q 29.59375 56 35.59375 56 
Q 45.5625 56 51.78125 48.09375 
Q 58.015625 40.1875 58.015625 27.296875 
Q 58.015625 14.40625 51.78125 6.484375 
Q 45.5625 -1.421875 35.59375 -1.421875 
Q 29.59375 -1.421875 25.265625 0.953125 
Q 20.953125 3.328125 18.109375 8.203125 
z
M 48.6875 27.296875 
Q 48.6875 37.203125 44.609375 42.84375 
Q 40.53125 48.484375 33.40625 48.484375 
Q 26.265625 48.484375 22.1875 42.84375 
Q 18.109375 37.203125 18.109375 27.296875 
Q 18.109375 17.390625 22.1875 11.75 
Q 26.265625 6.109375 33.40625 6.109375 
Q 40.53125 6.109375 44.609375 11.75 
Q 48.6875 17.390625 48.6875 27.296875 
z
" id="DejaVuSans-112"/>
      <path d="M 56.203125 29.59375 
L 56.203125 25.203125 
L 14.890625 25.203125 
Q 15.484375 15.921875 20.484375 11.0625 
Q 25.484375 6.203125 34.421875 6.203125 
Q 39.59375 6.203125 44.453125 7.46875 
Q 49.3125 8.734375 54.109375 11.28125 
L 54.109375 2.78125 
Q 49.265625 0.734375 44.1875 -0.34375 
Q 39.109375 -1.421875 33.890625 -1.421875 
Q 20.796875 -1.421875 13.15625 6.1875 
Q 5.515625 13.8125 5.515625 26.8125 
Q 5.515625 40.234375 12.765625 48.109375 
Q 20.015625 56 32.328125 56 
Q 43.359375 56 49.78125 48.890625 
Q 56.203125 41.796875 56.203125 29.59375 
z
M 47.21875 32.234375 
Q 47.125 39.59375 43.09375 43.984375 
Q 39.0625 48.390625 32.421875 48.390625 
Q 24.90625 48.390625 20.390625 44.140625 
Q 15.875 39.890625 15.1875 32.171875 
z
" id="DejaVuSans-101"/>
      <path d="M 48.78125 52.59375 
L 48.78125 44.1875 
Q 44.96875 46.296875 41.140625 47.34375 
Q 37.3125 48.390625 33.40625 48.390625 
Q 24.65625 48.390625 19.8125 42.84375 
Q 14.984375 37.3125 14.984375 27.296875 
Q 14.984375 17.28125 19.8125 11.734375 
Q 24.65625 6.203125 33.40625 6.203125 
Q 37.3125 6.203125 41.140625 7.25 
Q 44.96875 8.296875 48.78125 10.40625 
L 48.78125 2.09375 
Q 45.015625 0.34375 40.984375 -0.53125 
Q 36.96875 -1.421875 32.421875 -1.421875 
Q 20.0625 -1.421875 12.78125 6.34375 
Q 5.515625 14.109375 5.515625 27.296875 
Q 5.515625 40.671875 12.859375 48.328125 
Q 20.21875 56 33.015625 56 
Q 37.15625 56 41.109375 55.140625 
Q 45.0625 54.296875 48.78125 52.59375 
z
" id="DejaVuSans-99"/>
      <path d="M 9.421875 54.6875 
L 18.40625 54.6875 
L 18.40625 0 
L 9.421875 0 
z
M 9.421875 75.984375 
L 18.40625 75.984375 
L 18.40625 64.59375 
L 9.421875 64.59375 
z
" id="DejaVuSans-105"/>
      <path d="M 18.3125 70.21875 
L 18.3125 54.6875 
L 36.8125 54.6875 
L 36.8125 47.703125 
L 18.3125 47.703125 
L 18.3125 18.015625 
Q 18.3125 11.328125 20.140625 9.421875 
Q 21.96875 7.515625 27.59375 7.515625 
L 36.8125 7.515625 
L 36.8125 0 
L 27.59375 0 
Q 17.1875 0 13.234375 3.875 
Q 9.28125 7.765625 9.28125 18.015625 
L 9.28125 47.703125 
L 2.6875 47.703125 
L 2.6875 54.6875 
L 9.28125 54.6875 
L 9.28125 70.21875 
z
" id="DejaVuSans-116"/>
      <path d="M 34.28125 27.484375 
Q 23.390625 27.484375 19.1875 25 
Q 14.984375 22.515625 14.984375 16.5 
Q 14.984375 11.71875 18.140625 8.90625 
Q 21.296875 6.109375 26.703125 6.109375 
Q 34.1875 6.109375 38.703125 11.40625 
Q 43.21875 16.703125 43.21875 25.484375 
L 43.21875 27.484375 
z
M 52.203125 31.203125 
L 52.203125 0 
L 43.21875 0 
L 43.21875 8.296875 
Q 40.140625 3.328125 35.546875 0.953125 
Q 30.953125 -1.421875 24.3125 -1.421875 
Q 15.921875 -1.421875 10.953125 3.296875 
Q 6 8.015625 6 15.921875 
Q 6 25.140625 12.171875 29.828125 
Q 18.359375 34.515625 30.609375 34.515625 
L 43.21875 34.515625 
L 43.21875 35.40625 
Q 43.21875 41.609375 39.140625 45 
Q 35.0625 48.390625 27.6875 48.390625 
Q 23 48.390625 18.546875 47.265625 
Q 14.109375 46.140625 10.015625 43.890625 
L 10.015625 52.203125 
Q 14.9375 54.109375 19.578125 55.046875 
Q 24.21875 56 28.609375 56 
Q 40.484375 56 46.34375 49.84375 
Q 52.203125 43.703125 52.203125 31.203125 
z
" id="DejaVuSans-97"/>
      <path d="M 54.890625 33.015625 
L 54.890625 0 
L 45.90625 0 
L 45.90625 32.71875 
Q 45.90625 40.484375 42.875 44.328125 
Q 39.84375 48.1875 33.796875 48.1875 
Q 26.515625 48.1875 22.3125 43.546875 
Q 18.109375 38.921875 18.109375 30.90625 
L 18.109375 0 
L 9.078125 0 
L 9.078125 54.6875 
L 18.109375 54.6875 
L 18.109375 46.1875 
Q 21.34375 51.125 25.703125 53.5625 
Q 30.078125 56 35.796875 56 
Q 45.21875 56 50.046875 50.171875 
Q 54.890625 44.34375 54.890625 33.015625 
z
" id="DejaVuSans-110"/>
      <path id="DejaVuSans-32"/>
      <path d="M 8.59375 75.984375 
L 29.296875 75.984375 
L 29.296875 69 
L 17.578125 69 
L 17.578125 -6.203125 
L 29.296875 -6.203125 
L 29.296875 -13.1875 
L 8.59375 -13.1875 
z
" id="DejaVuSans-91"/>
      <path d="M 52 44.1875 
Q 55.375 50.25 60.0625 53.125 
Q 64.75 56 71.09375 56 
Q 79.640625 56 84.28125 50.015625 
Q 88.921875 44.046875 88.921875 33.015625 
L 88.921875 0 
L 79.890625 0 
L 79.890625 32.71875 
Q 79.890625 40.578125 77.09375 44.375 
Q 74.3125 48.1875 68.609375 48.1875 
Q 61.625 48.1875 57.5625 43.546875 
Q 53.515625 38.921875 53.515625 30.90625 
L 53.515625 0 
L 44.484375 0 
L 44.484375 32.71875 
Q 44.484375 40.625 41.703125 44.40625 
Q 38.921875 48.1875 33.109375 48.1875 
Q 26.21875 48.1875 22.15625 43.53125 
Q 18.109375 38.875 18.109375 30.90625 
L 18.109375 0 
L 9.078125 0 
L 9.078125 54.6875 
L 18.109375 54.6875 
L 18.109375 46.1875 
Q 21.1875 51.21875 25.484375 53.609375 
Q 29.78125 56 35.6875 56 
Q 41.65625 56 45.828125 52.96875 
Q 50 49.953125 52 44.1875 
z
" id="DejaVuSans-109"/>
      <path d="M 25.390625 72.90625 
L 33.6875 72.90625 
L 8.296875 -9.28125 
L 0 -9.28125 
z
" id="DejaVuSans-47"/>
      <path d="M 30.421875 75.984375 
L 30.421875 -13.1875 
L 9.71875 -13.1875 
L 9.71875 -6.203125 
L 21.390625 -6.203125 
L 21.390625 69 
L 9.71875 69 
L 9.71875 75.984375 
z
" id="DejaVuSans-93"/>
     </defs>
     <g transform="translate(14.798438 150.335781)rotate(-90)scale(0.1 -0.1)">
      <use xlink:href="#DejaVuSans-112"/>
      <use x="63.476562" xlink:href="#DejaVuSans-114"/>
      <use x="104.558594" xlink:href="#DejaVuSans-101"/>
      <use x="166.082031" xlink:href="#DejaVuSans-99"/>
      <use x="221.0625" xlink:href="#DejaVuSans-105"/>
      <use x="248.845703" xlink:href="#DejaVuSans-112"/>
      <use x="312.322266" xlink:href="#DejaVuSans-105"/>
      <use x="340.105469" xlink:href="#DejaVuSans-116"/>
      <use x="379.314453" xlink:href="#DejaVuSans-97"/>
      <use x="440.59375" xlink:href="#DejaVuSans-116"/>
      <use x="479.802734" xlink:href="#DejaVuSans-105"/>
      <use x="507.585938" xlink:href="#DejaVuSans-111"/>
      <use x="568.767578" xlink:href="#DejaVuSans-110"/>
      <use x="632.146484" xlink:href="#DejaVuSans-32"/>
      <use x="663.933594" xlink:href="#DejaVuSans-91"/>
      <use x="702.947266" xlink:href="#DejaVuSans-109"/>
      <use x="800.359375" xlink:href="#DejaVuSans-109"/>
      <use x="897.771484" xlink:href="#DejaVuSans-47"/>
      <use x="931.462891" xlink:href="#DejaVuSans-104"/>
      <use x="994.841797" xlink:href="#DejaVuSans-111"/>
      <use x="1056.023438" xlink:href="#DejaVuSans-117"/>
      <use x="1119.402344" xlink:href="#DejaVuSans-114"/>
      <use x="1160.515625" xlink:href="#DejaVuSans-93"/>
     </g>
    </g>
   </g>
   <g id="line2d_15">
    <path clip-path="url(#p51cfb5034e)" d="M 61.535795 165.882895 
L 76.974531 165.761656 
L 92.413266 165.872563 
L 107.852001 165.898308 
L 123.290736 165.909512 
L 138.729471 165.952647 
L 154.168207 164.21061 
L 169.606942 164.58155 
L 185.045677 164.900739 
L 200.484412 164.469623 
L 215.923147 163.373211 
L 231.361882 160.375113 
L 246.800618 136.751801 
L 262.239353 51.506422 
L 277.678088 97.125859 
L 293.116823 126.991917 
L 308.555558 155.918232 
L 323.994293 164.623815 
L 339.433029 165.541531 
L 354.871764 165.415036 
L 370.310499 165.565638 
L 385.749234 165.743772 
L 401.187969 165.84457 
L 416.626705 165.942098 
" style="fill:none;stroke:#1b9e77;stroke-linecap:square;stroke-opacity:0.5;stroke-width:1.5;"/>
   </g>
   <g id="line2d_16">
    <path clip-path="url(#p51cfb5034e)" d="M 61.535795 89.333303 
L 76.974531 164.949214 
L 92.413266 165.657686 
L 107.852001 158.108165 
L 123.290736 164.900177 
L 138.729471 164.704558 
L 154.168207 165.888235 
L 169.606942 165.95287 
L 185.045677 165.83137 
L 200.484412 164.979233 
L 215.923147 164.327993 
L 231.361882 164.669633 
L 246.800618 149.554953 
L 262.239353 156.046081 
L 277.678088 130.0128 
L 293.116823 152.862988 
L 308.555558 147.221968 
L 323.994293 121.569283 
L 339.433029 162.453974 
L 354.871764 163.925915 
L 370.310499 164.6904 
L 385.749234 155.627096 
L 401.187969 152.155733 
L 416.626705 148.735482 
" style="fill:none;stroke:#1b9e77;stroke-linecap:square;stroke-opacity:0.5;stroke-width:1.5;"/>
   </g>
   <g id="line2d_17">
    <path clip-path="url(#p51cfb5034e)" d="M 61.535795 165.41134 
L 76.974531 165.359922 
L 92.413266 165.68998 
L 107.852001 165.652381 
L 123.290736 165.657888 
L 138.729471 165.753421 
L 154.168207 165.704062 
L 169.606942 165.922647 
L 185.045677 165.675694 
L 200.484412 160.176047 
L 215.923147 162.665723 
L 231.361882 159.664237 
L 246.800618 153.375369 
L 262.239353 148.68102 
L 277.678088 143.533721 
L 293.116823 149.41304 
L 308.555558 155.744353 
L 323.994293 88.900086 
L 339.433029 91.06069 
L 354.871764 163.15868 
L 370.310499 162.84157 
L 385.749234 148.458926 
L 401.187969 160.990886 
L 416.626705 164.667432 
" style="fill:none;stroke:#1b9e77;stroke-linecap:square;stroke-opacity:0.5;stroke-width:1.5;"/>
   </g>
   <g id="line2d_18">
    <path clip-path="url(#p51cfb5034e)" d="M 61.535795 160.350012 
L 76.974531 161.921232 
L 92.413266 131.24217 
L 107.852001 64.409999 
L 123.290736 134.746276 
L 138.729471 135.910982 
L 154.168207 134.3445 
L 169.606942 147.709837 
L 185.045677 163.773332 
L 200.484412 165.089948 
L 215.923147 165.419018 
L 231.361882 165.094445 
L 246.800618 165.473521 
L 262.239353 165.812656 
L 277.678088 165.868758 
L 293.116823 165.714301 
L 308.555558 165.28557 
L 323.994293 165.366478 
L 339.433029 165.801831 
L 354.871764 165.755211 
L 370.310499 164.480436 
L 385.749234 163.216398 
L 401.187969 158.556523 
L 416.626705 162.815676 
" style="fill:none;stroke:#1b9e77;stroke-linecap:square;stroke-opacity:0.5;stroke-width:1.5;"/>
   </g>
   <g id="line2d_19">
    <path clip-path="url(#p51cfb5034e)" d="M 61.535795 165.957568 
L 76.974531 165.097 
L 92.413266 165.142902 
L 107.852001 163.59477 
L 123.290736 113.820581 
L 138.729471 129.772061 
L 154.168207 143.534341 
L 169.606942 157.818908 
L 185.045677 159.050699 
L 200.484412 139.112696 
L 215.923147 93.487266 
L 231.361882 136.628039 
L 246.800618 157.16626 
L 262.239353 159.273182 
L 277.678088 165.644115 
L 293.116823 165.7837 
L 308.555558 165.859471 
L 323.994293 165.8191 
L 339.433029 165.781973 
L 354.871764 165.907042 
L 370.310499 165.893363 
L 385.749234 164.677056 
L 401.187969 164.88047 
L 416.626705 164.456542 
" style="fill:none;stroke:#1b9e77;stroke-linecap:square;stroke-opacity:0.5;stroke-width:1.5;"/>
   </g>
   <g id="line2d_20">
    <path clip-path="url(#p51cfb5034e)" d="M 61.535795 162.710126 
L 76.974531 164.584759 
L 92.413266 165.557598 
L 107.852001 165.722796 
L 123.290736 159.628786 
L 138.729471 152.117239 
L 154.168207 141.270015 
L 169.606942 138.557861 
L 185.045677 132.347444 
L 200.484412 97.96371 
L 215.923147 111.668466 
L 231.361882 136.608864 
L 246.800618 156.693715 
L 262.239353 162.087512 
L 277.678088 164.400235 
L 293.116823 165.22532 
L 308.555558 165.690411 
L 323.994293 165.824487 
L 339.433029 165.88414 
L 354.871764 165.850209 
L 370.310499 165.903396 
L 385.749234 165.947308 
L 401.187969 165.955279 
L 416.626705 165.959435 
" style="fill:none;stroke:#1b9e77;stroke-linecap:square;stroke-opacity:0.5;stroke-width:1.5;"/>
   </g>
   <g id="line2d_21">
    <path clip-path="url(#p51cfb5034e)" d="M 61.535795 162.886403 
L 76.974531 164.283009 
L 92.413266 165.154585 
L 107.852001 165.309779 
L 123.290736 165.036693 
L 138.729471 161.964467 
L 154.168207 159.668064 
L 169.606942 165.335453 
L 185.045677 165.31716 
L 200.484412 162.686841 
L 215.923147 158.699724 
L 231.361882 131.49331 
L 246.800618 40.253942 
L 262.239353 122.693872 
L 277.678088 145.670667 
L 293.116823 150.225043 
L 308.555558 160.84805 
L 323.994293 164.675124 
L 339.433029 164.961617 
L 354.871764 164.721371 
L 370.310499 165.183665 
L 385.749234 165.912079 
L 401.187969 165.939804 
L 416.626705 165.238386 
" style="fill:none;stroke:#1b9e77;stroke-linecap:square;stroke-opacity:0.5;stroke-width:1.5;"/>
   </g>
   <g id="line2d_22">
    <path clip-path="url(#p51cfb5034e)" d="M 61.535795 165.390306 
L 76.974531 165.404421 
L 92.413266 165.652346 
L 107.852001 165.560326 
L 123.290736 165.633263 
L 138.729471 165.789847 
L 154.168207 165.839621 
L 169.606942 165.818124 
L 185.045677 165.783406 
L 200.484412 165.839281 
L 215.923147 165.844628 
L 231.361882 165.947029 
L 246.800618 163.085423 
L 262.239353 163.484365 
L 277.678088 162.986371 
L 293.116823 161.658092 
L 308.555558 160.686051 
L 323.994293 159.670326 
L 339.433029 158.740567 
L 354.871764 160.383696 
L 370.310499 154.764237 
L 385.749234 102.729363 
L 401.187969 112.695675 
L 416.626705 54.772346 
" style="fill:none;stroke:#1b9e77;stroke-linecap:square;stroke-opacity:0.5;stroke-width:1.5;"/>
   </g>
   <g id="line2d_23">
    <path clip-path="url(#p51cfb5034e)" d="M 61.535795 165.544746 
L 76.974531 165.580701 
L 92.413266 165.824927 
L 107.852001 165.82054 
L 123.290736 165.813253 
L 138.729471 165.570524 
L 154.168207 165.183037 
L 169.606942 165.926305 
L 185.045677 165.933381 
L 200.484412 161.710031 
L 215.923147 163.722236 
L 231.361882 158.473077 
L 246.800618 135.803902 
L 262.239353 143.152494 
L 277.678088 154.204059 
L 293.116823 154.906091 
L 308.555558 149.71957 
L 323.994293 138.20362 
L 339.433029 125.587324 
L 354.871764 147.102844 
L 370.310499 158.183169 
L 385.749234 152.394922 
L 401.187969 127.712662 
L 416.626705 142.085694 
" style="fill:none;stroke:#1b9e77;stroke-linecap:square;stroke-opacity:0.5;stroke-width:1.5;"/>
   </g>
   <g id="line2d_24">
    <path clip-path="url(#p51cfb5034e)" d="M 61.535795 163.276786 
L 76.974531 165.799377 
L 92.413266 165.378935 
L 107.852001 165.422279 
L 123.290736 165.815368 
L 138.729471 165.845868 
L 154.168207 165.561645 
L 169.606942 164.86758 
L 185.045677 163.830245 
L 200.484412 163.41441 
L 215.923147 160.071288 
L 231.361882 153.420652 
L 246.800618 144.581971 
L 262.239353 137.337148 
L 277.678088 146.377047 
L 293.116823 125.491374 
L 308.555558 98.07947 
L 323.994293 142.659267 
L 339.433029 145.490666 
L 354.871764 141.084464 
L 370.310499 164.107433 
L 385.749234 165.319396 
L 401.187969 165.048271 
L 416.626705 165.878172 
" style="fill:none;stroke:#1b9e77;stroke-linecap:square;stroke-opacity:0.5;stroke-width:1.5;"/>
   </g>
   <g id="line2d_25">
    <path clip-path="url(#p51cfb5034e)" d="M 61.535795 154.760623 
L 76.974531 104.49312 
L 92.413266 77.839672 
L 107.852001 121.182879 
L 123.290736 148.765251 
L 138.729471 150.607927 
L 154.168207 154.042949 
L 169.606942 155.877247 
L 185.045677 162.083606 
L 200.484412 164.203352 
L 215.923147 165.172932 
L 231.361882 165.061336 
L 246.800618 165.155059 
L 262.239353 165.183044 
L 277.678088 165.319401 
L 293.116823 165.554066 
L 308.555558 165.741804 
L 323.994293 165.804187 
L 339.433029 165.840633 
L 354.871764 157.826138 
L 370.310499 165.831194 
L 385.749234 165.917078 
L 401.187969 165.938474 
L 416.626705 165.95714 
" style="fill:none;stroke:#1b9e77;stroke-linecap:square;stroke-opacity:0.5;stroke-width:1.5;"/>
   </g>
   <g id="line2d_26">
    <path clip-path="url(#p51cfb5034e)" d="M 61.535795 160.268682 
L 76.974531 146.555649 
L 92.413266 144.128266 
L 107.852001 124.904168 
L 123.290736 114.409334 
L 138.729471 144.123692 
L 154.168207 149.966367 
L 169.606942 156.461391 
L 185.045677 154.299773 
L 200.484412 155.922693 
L 215.923147 159.548145 
L 231.361882 158.573999 
L 246.800618 155.204448 
L 262.239353 165.477304 
L 277.678088 165.799272 
L 293.116823 165.581301 
L 308.555558 164.976056 
L 323.994293 165.20412 
L 339.433029 165.56603 
L 354.871764 165.757773 
L 370.310499 165.553616 
L 385.749234 159.828339 
L 401.187969 130.297468 
L 416.626705 165.751223 
" style="fill:none;stroke:#1b9e77;stroke-linecap:square;stroke-opacity:0.5;stroke-width:1.5;"/>
   </g>
   <g id="line2d_27">
    <path clip-path="url(#p51cfb5034e)" d="M 61.535795 164.931721 
L 76.974531 165.354701 
L 92.413266 165.716813 
L 107.852001 165.686616 
L 123.290736 165.774067 
L 138.729471 165.860318 
L 154.168207 165.901878 
L 169.606942 165.904568 
L 185.045677 165.906032 
L 200.484412 165.889009 
L 215.923147 165.743984 
L 231.361882 165.905396 
L 246.800618 165.820166 
L 262.239353 144.500797 
L 277.678088 150.68748 
L 293.116823 99.722901 
L 308.555558 91.468293 
L 323.994293 107.330232 
L 339.433029 144.062308 
L 354.871764 154.66149 
L 370.310499 161.822784 
L 385.749234 164.489354 
L 401.187969 165.175088 
L 416.626705 165.843114 
" style="fill:none;stroke:#1b9e77;stroke-linecap:square;stroke-opacity:0.5;stroke-width:1.5;"/>
   </g>
   <g id="line2d_28">
    <path clip-path="url(#p51cfb5034e)" d="M 61.535795 161.021798 
L 76.974531 154.3941 
L 92.413266 157.618463 
L 107.852001 156.57224 
L 123.290736 142.532957 
L 138.729471 147.377109 
L 154.168207 155.927601 
L 169.606942 160.568775 
L 185.045677 157.617591 
L 200.484412 144.30654 
L 215.923147 142.558986 
L 231.361882 90.38783 
L 246.800618 153.368936 
L 262.239353 145.871674 
L 277.678088 161.760002 
L 293.116823 165.48963 
L 308.555558 165.690088 
L 323.994293 163.081918 
L 339.433029 165.663008 
L 354.871764 165.871046 
L 370.310499 165.873462 
L 385.749234 165.927665 
L 401.187969 159.491596 
L 416.626705 155.186094 
" style="fill:none;stroke:#1b9e77;stroke-linecap:square;stroke-opacity:0.5;stroke-width:1.5;"/>
   </g>
   <g id="line2d_29">
    <path clip-path="url(#p51cfb5034e)" d="M 61.535795 162.318292 
L 76.974531 144.987488 
L 92.413266 145.756966 
L 107.852001 158.93821 
L 123.290736 159.013777 
L 138.729471 160.268842 
L 154.168207 160.432826 
L 169.606942 159.04479 
L 185.045677 156.351945 
L 200.484412 155.488333 
L 215.923147 159.27742 
L 231.361882 143.194168 
L 246.800618 132.219216 
L 262.239353 157.734841 
L 277.678088 164.046692 
L 293.116823 159.381243 
L 308.555558 156.716543 
L 323.994293 158.222441 
L 339.433029 162.331307 
L 354.871764 163.496759 
L 370.310499 155.911703 
L 385.749234 135.612938 
L 401.187969 133.980064 
L 416.626705 159.4323 
" style="fill:none;stroke:#1b9e77;stroke-linecap:square;stroke-opacity:0.5;stroke-width:1.5;"/>
   </g>
   <g id="line2d_30">
    <path clip-path="url(#p51cfb5034e)" d="M 61.535795 158.299684 
L 76.974531 145.336518 
L 92.413266 132.044098 
L 107.852001 118.881623 
L 123.290736 138.265225 
L 138.729471 165.01564 
L 154.168207 165.721585 
L 169.606942 164.99302 
L 185.045677 164.105003 
L 200.484412 165.487867 
L 215.923147 165.833449 
L 231.361882 165.880352 
L 246.800618 165.905417 
L 262.239353 165.642996 
L 277.678088 164.928224 
L 293.116823 165.934914 
L 308.555558 165.945453 
L 323.994293 162.817243 
L 339.433029 110.48875 
L 354.871764 164.998129 
L 370.310499 165.506367 
L 385.749234 164.463246 
L 401.187969 143.946771 
L 416.626705 113.71753 
" style="fill:none;stroke:#1b9e77;stroke-linecap:square;stroke-opacity:0.5;stroke-width:1.5;"/>
   </g>
   <g id="line2d_31">
    <path clip-path="url(#p51cfb5034e)" d="M 61.535795 165.901443 
L 76.974531 165.842165 
L 92.413266 165.854384 
L 107.852001 165.89278 
L 123.290736 165.564469 
L 138.729471 165.682473 
L 154.168207 164.271222 
L 169.606942 163.621964 
L 185.045677 164.028629 
L 200.484412 162.644185 
L 215.923147 158.932873 
L 231.361882 158.455289 
L 246.800618 156.556771 
L 262.239353 155.612447 
L 277.678088 151.106589 
L 293.116823 145.452054 
L 308.555558 149.840542 
L 323.994293 138.735462 
L 339.433029 119.516798 
L 354.871764 132.268488 
L 370.310499 139.392803 
L 385.749234 143.666822 
L 401.187969 150.550813 
L 416.626705 154.767647 
" style="fill:none;stroke:#1b9e77;stroke-linecap:square;stroke-opacity:0.5;stroke-width:1.5;"/>
   </g>
   <g id="line2d_32">
    <path clip-path="url(#p51cfb5034e)" d="M 61.535795 132.313154 
L 76.974531 149.538249 
L 92.413266 161.794962 
L 107.852001 161.594498 
L 123.290736 161.185334 
L 138.729471 158.591789 
L 154.168207 157.987097 
L 169.606942 163.16594 
L 185.045677 164.432797 
L 200.484412 164.113855 
L 215.923147 157.011899 
L 231.361882 104.862037 
L 246.800618 121.566419 
L 262.239353 165.005831 
L 277.678088 165.511069 
L 293.116823 151.969689 
L 308.555558 139.162543 
L 323.994293 160.693795 
L 339.433029 162.813902 
L 354.871764 163.769977 
L 370.310499 162.342417 
L 385.749234 158.168843 
L 401.187969 156.76183 
L 416.626705 159.801186 
" style="fill:none;stroke:#1b9e77;stroke-linecap:square;stroke-opacity:0.5;stroke-width:1.5;"/>
   </g>
   <g id="line2d_33">
    <path clip-path="url(#p51cfb5034e)" d="M 61.535795 142.36707 
L 76.974531 164.866006 
L 92.413266 163.419341 
L 107.852001 163.606281 
L 123.290736 163.311108 
L 138.729471 160.91332 
L 154.168207 157.82401 
L 169.606942 161.282758 
L 185.045677 164.630014 
L 200.484412 130.043272 
L 215.923147 143.704274 
L 231.361882 162.370846 
L 246.800618 165.529717 
L 262.239353 165.005178 
L 277.678088 159.078107 
L 293.116823 145.118307 
L 308.555558 137.493116 
L 323.994293 156.109549 
L 339.433029 155.68896 
L 354.871764 139.535459 
L 370.310499 158.580419 
L 385.749234 161.210911 
L 401.187969 138.241399 
L 416.626705 144.229686 
" style="fill:none;stroke:#1b9e77;stroke-linecap:square;stroke-opacity:0.5;stroke-width:1.5;"/>
   </g>
   <g id="line2d_34">
    <path clip-path="url(#p51cfb5034e)" d="M 61.535795 150.989164 
L 76.974531 164.385627 
L 92.413266 163.754257 
L 107.852001 113.50234 
L 123.290736 164.960758 
L 138.729471 164.875078 
L 154.168207 151.90282 
L 169.606942 165.910967 
L 185.045677 165.947874 
L 200.484412 164.977701 
L 215.923147 143.77354 
L 231.361882 160.194433 
L 246.800618 162.35847 
L 262.239353 141.675058 
L 277.678088 94.855055 
L 293.116823 126.26181 
L 308.555558 145.508387 
L 323.994293 164.179574 
L 339.433029 165.499986 
L 354.871764 165.262991 
L 370.310499 165.642716 
L 385.749234 165.861665 
L 401.187969 165.924216 
L 416.626705 165.954617 
" style="fill:none;stroke:#1b9e77;stroke-linecap:square;stroke-opacity:0.5;stroke-width:1.5;"/>
   </g>
   <g id="line2d_35">
    <path clip-path="url(#p51cfb5034e)" d="M 61.535795 159.40292 
L 76.974531 157.546025 
L 92.413266 160.987843 
L 107.852001 160.669226 
L 123.290736 158.830479 
L 138.729471 147.01238 
L 154.168207 137.458603 
L 169.606942 156.163307 
L 185.045677 157.377558 
L 200.484412 149.011561 
L 215.923147 153.733175 
L 231.361882 157.784716 
L 246.800618 159.413381 
L 262.239353 152.556312 
L 277.678088 125.872171 
L 293.116823 163.114308 
L 308.555558 165.283025 
L 323.994293 165.837651 
L 339.433029 163.426105 
L 354.871764 144.263861 
L 370.310499 124.974014 
L 385.749234 165.938765 
L 401.187969 165.277725 
L 416.626705 152.223988 
" style="fill:none;stroke:#1b9e77;stroke-linecap:square;stroke-opacity:0.5;stroke-width:1.5;"/>
   </g>
   <g id="line2d_36">
    <path clip-path="url(#p51cfb5034e)" d="M 61.535795 165.943074 
L 76.974531 165.907064 
L 92.413266 165.929213 
L 107.852001 165.933254 
L 123.290736 165.931991 
L 138.729471 165.945784 
L 154.168207 165.937834 
L 169.606942 165.252014 
L 185.045677 163.220602 
L 200.484412 163.00586 
L 215.923147 161.84108 
L 231.361882 157.099832 
L 246.800618 151.137614 
L 262.239353 138.051719 
L 277.678088 135.272527 
L 293.116823 143.709044 
L 308.555558 67.979158 
L 323.994293 108.76189 
L 339.433029 162.709451 
L 354.871764 163.536083 
L 370.310499 164.737095 
L 385.749234 165.054269 
L 401.187969 165.40316 
L 416.626705 165.859499 
" style="fill:none;stroke:#1b9e77;stroke-linecap:square;stroke-opacity:0.5;stroke-width:1.5;"/>
   </g>
   <g id="line2d_37">
    <path clip-path="url(#p51cfb5034e)" d="M 61.535795 154.697083 
L 76.974531 125.79688 
L 92.413266 132.48802 
L 107.852001 137.111457 
L 123.290736 129.043041 
L 138.729471 104.681826 
L 154.168207 143.758151 
L 169.606942 150.988627 
L 185.045677 162.394935 
L 200.484412 165.277302 
L 215.923147 165.756944 
L 231.361882 165.526997 
L 246.800618 165.667956 
L 262.239353 165.877471 
L 277.678088 165.927647 
L 293.116823 165.946869 
L 308.555558 165.639771 
L 323.994293 163.310699 
L 339.433029 162.825912 
L 354.871764 163.39653 
L 370.310499 162.873062 
L 385.749234 161.464367 
L 401.187969 160.05088 
L 416.626705 163.656681 
" style="fill:none;stroke:#1b9e77;stroke-linecap:square;stroke-opacity:0.5;stroke-width:1.5;"/>
   </g>
   <g id="line2d_38">
    <path clip-path="url(#p51cfb5034e)" d="M 61.535795 165.533128 
L 76.974531 165.289669 
L 92.413266 165.545841 
L 107.852001 165.149028 
L 123.290736 164.87155 
L 138.729471 165.192789 
L 154.168207 165.433617 
L 169.606942 165.538424 
L 185.045677 165.584976 
L 200.484412 165.543624 
L 215.923147 165.296641 
L 231.361882 165.447342 
L 246.800618 163.235542 
L 262.239353 162.35657 
L 277.678088 159.088262 
L 293.116823 152.978647 
L 308.555558 147.039609 
L 323.994293 134.613204 
L 339.433029 135.885674 
L 354.871764 75.411558 
L 370.310499 98.341443 
L 385.749234 159.521026 
L 401.187969 165.385513 
L 416.626705 165.875429 
" style="fill:none;stroke:#1b9e77;stroke-linecap:square;stroke-opacity:0.5;stroke-width:1.5;"/>
   </g>
   <g id="line2d_39">
    <path clip-path="url(#p51cfb5034e)" d="M 61.535795 164.688926 
L 76.974531 165.084323 
L 92.413266 165.543711 
L 107.852001 165.566974 
L 123.290736 165.550519 
L 138.729471 165.77614 
L 154.168207 159.118468 
L 169.606942 154.878641 
L 185.045677 157.074071 
L 200.484412 160.294493 
L 215.923147 160.834892 
L 231.361882 156.363225 
L 246.800618 131.849359 
L 262.239353 104.977803 
L 277.678088 153.846808 
L 293.116823 142.054838 
L 308.555558 150.636873 
L 323.994293 157.587519 
L 339.433029 165.116643 
L 354.871764 165.409883 
L 370.310499 165.080094 
L 385.749234 150.706926 
L 401.187969 118.679977 
L 416.626705 157.438001 
" style="fill:none;stroke:#1b9e77;stroke-linecap:square;stroke-opacity:0.5;stroke-width:1.5;"/>
   </g>
   <g id="line2d_40">
    <path clip-path="url(#p51cfb5034e)" d="M 61.535795 165.853063 
L 76.974531 165.665581 
L 92.413266 162.888957 
L 107.852001 160.470653 
L 123.290736 158.339516 
L 138.729471 165.812409 
L 154.168207 159.914812 
L 169.606942 152.008328 
L 185.045677 158.874267 
L 200.484412 163.008572 
L 215.923147 151.337895 
L 231.361882 131.228893 
L 246.800618 144.330354 
L 262.239353 137.137926 
L 277.678088 138.511153 
L 293.116823 121.208207 
L 308.555558 145.637448 
L 323.994293 157.801009 
L 339.433029 157.366266 
L 354.871764 150.771226 
L 370.310499 158.900681 
L 385.749234 165.315553 
L 401.187969 165.838126 
L 416.626705 165.938216 
" style="fill:none;stroke:#1b9e77;stroke-linecap:square;stroke-opacity:0.5;stroke-width:1.5;"/>
   </g>
   <g id="line2d_41">
    <path clip-path="url(#p51cfb5034e)" d="M 61.535795 124.338651 
L 76.974531 162.829944 
L 92.413266 165.138902 
L 107.852001 163.867326 
L 123.290736 162.713167 
L 138.729471 162.620047 
L 154.168207 153.597743 
L 169.606942 150.881956 
L 185.045677 154.646886 
L 200.484412 125.707729 
L 215.923147 89.449535 
L 231.361882 148.844074 
L 246.800618 160.949439 
L 262.239353 145.104577 
L 277.678088 147.395744 
L 293.116823 159.951299 
L 308.555558 165.120015 
L 323.994293 165.720138 
L 339.433029 165.857432 
L 354.871764 165.761339 
L 370.310499 165.848522 
L 385.749234 165.918853 
L 401.187969 165.938434 
L 416.626705 165.957356 
" style="fill:none;stroke:#1b9e77;stroke-linecap:square;stroke-opacity:0.5;stroke-width:1.5;"/>
   </g>
   <g id="line2d_42">
    <path clip-path="url(#p51cfb5034e)" d="M 61.535795 161.266194 
L 76.974531 152.856243 
L 92.413266 162.75629 
L 107.852001 164.180739 
L 123.290736 165.115717 
L 138.729471 165.014073 
L 154.168207 165.426456 
L 169.606942 165.634953 
L 185.045677 165.727394 
L 200.484412 165.658304 
L 215.923147 165.61735 
L 231.361882 165.719257 
L 246.800618 165.697159 
L 262.239353 165.819489 
L 277.678088 162.086638 
L 293.116823 141.571246 
L 308.555558 137.502972 
L 323.994293 130.098088 
L 339.433029 94.63443 
L 354.871764 134.410149 
L 370.310499 155.247062 
L 385.749234 140.923965 
L 401.187969 145.3675 
L 416.626705 165.827439 
" style="fill:none;stroke:#1b9e77;stroke-linecap:square;stroke-opacity:0.5;stroke-width:1.5;"/>
   </g>
   <g id="line2d_43">
    <path clip-path="url(#p51cfb5034e)" d="M 61.535795 155.0141 
L 76.974531 165.192185 
L 92.413266 165.67086 
L 107.852001 165.199783 
L 123.290736 160.295924 
L 138.729471 152.316421 
L 154.168207 150.887137 
L 169.606942 158.915483 
L 185.045677 159.134883 
L 200.484412 141.048817 
L 215.923147 142.192061 
L 231.361882 162.052188 
L 246.800618 165.028489 
L 262.239353 163.901232 
L 277.678088 138.213182 
L 293.116823 147.393777 
L 308.555558 88.844752 
L 323.994293 160.710313 
L 339.433029 162.424718 
L 354.871764 163.246968 
L 370.310499 164.747023 
L 385.749234 164.988522 
L 401.187969 161.247433 
L 416.626705 145.492854 
" style="fill:none;stroke:#1b9e77;stroke-linecap:square;stroke-opacity:0.5;stroke-width:1.5;"/>
   </g>
   <g id="line2d_44">
    <path clip-path="url(#p51cfb5034e)" d="M 61.535795 159.737615 
L 76.974531 149.323562 
L 92.413266 148.798588 
L 107.852001 155.389293 
L 123.290736 164.489171 
L 138.729471 165.494548 
L 154.168207 165.767076 
L 169.606942 165.764415 
L 185.045677 165.821205 
L 200.484412 165.867635 
L 215.923147 165.859991 
L 231.361882 165.927112 
L 246.800618 164.434991 
L 262.239353 154.981489 
L 277.678088 146.957016 
L 293.116823 151.702212 
L 308.555558 154.287458 
L 323.994293 122.397353 
L 339.433029 99.302333 
L 354.871764 108.807171 
L 370.310499 165.527305 
L 385.749234 165.717502 
L 401.187969 165.864195 
L 416.626705 165.939873 
" style="fill:none;stroke:#1b9e77;stroke-linecap:square;stroke-opacity:0.5;stroke-width:1.5;"/>
   </g>
   <g id="line2d_45">
    <path clip-path="url(#p51cfb5034e)" d="M 61.535795 165.868704 
L 76.974531 165.774885 
L 92.413266 165.890807 
L 107.852001 165.89827 
L 123.290736 165.909895 
L 138.729471 165.924449 
L 154.168207 165.929883 
L 169.606942 165.939789 
L 185.045677 165.943628 
L 200.484412 165.944244 
L 215.923147 164.918728 
L 231.361882 164.206662 
L 246.800618 163.133602 
L 262.239353 163.308681 
L 277.678088 162.767079 
L 293.116823 162.104077 
L 308.555558 162.182129 
L 323.994293 153.322379 
L 339.433029 114.93668 
L 354.871764 101.588478 
L 370.310499 144.146913 
L 385.749234 133.155898 
L 401.187969 121.938873 
L 416.626705 133.424376 
" style="fill:none;stroke:#1b9e77;stroke-linecap:square;stroke-opacity:0.5;stroke-width:1.5;"/>
   </g>
   <g id="line2d_46">
    <path clip-path="url(#p51cfb5034e)" d="M 61.535795 161.075446 
L 76.974531 165.467541 
L 92.413266 165.856054 
L 107.852001 162.812637 
L 123.290736 164.655577 
L 138.729471 165.775737 
L 154.168207 165.887488 
L 169.606942 165.892506 
L 185.045677 165.90056 
L 200.484412 165.652873 
L 215.923147 165.473894 
L 231.361882 165.090709 
L 246.800618 164.610203 
L 262.239353 163.285992 
L 277.678088 158.875116 
L 293.116823 156.648222 
L 308.555558 147.614271 
L 323.994293 105.047222 
L 339.433029 41.431498 
L 354.871764 158.566921 
L 370.310499 152.698205 
L 385.749234 154.136808 
L 401.187969 159.469882 
L 416.626705 162.233745 
" style="fill:none;stroke:#1b9e77;stroke-linecap:square;stroke-opacity:0.5;stroke-width:1.5;"/>
   </g>
   <g id="line2d_47">
    <path clip-path="url(#p51cfb5034e)" d="M 61.535795 147.900379 
L 76.974531 143.221744 
L 92.413266 161.783709 
L 107.852001 161.248905 
L 123.290736 162.934872 
L 138.729471 164.433218 
L 154.168207 165.182521 
L 169.606942 165.322367 
L 185.045677 165.526615 
L 200.484412 165.322281 
L 215.923147 161.239577 
L 231.361882 160.110254 
L 246.800618 155.446676 
L 262.239353 127.304411 
L 277.678088 86.362868 
L 293.116823 101.188059 
L 308.555558 154.879831 
L 323.994293 162.751862 
L 339.433029 164.737032 
L 354.871764 164.708674 
L 370.310499 165.232395 
L 385.749234 165.587434 
L 401.187969 165.799734 
L 416.626705 165.933685 
" style="fill:none;stroke:#1b9e77;stroke-linecap:square;stroke-opacity:0.5;stroke-width:1.5;"/>
   </g>
   <g id="line2d_48">
    <path clip-path="url(#p51cfb5034e)" d="M 61.535795 162.516652 
L 76.974531 161.083662 
L 92.413266 162.506424 
L 107.852001 158.998281 
L 123.290736 164.222175 
L 138.729471 165.840001 
L 154.168207 165.465041 
L 169.606942 89.357038 
L 185.045677 126.129407 
L 200.484412 149.044796 
L 215.923147 145.278537 
L 231.361882 155.737771 
L 246.800618 162.80423 
L 262.239353 153.443932 
L 277.678088 139.810282 
L 293.116823 146.098312 
L 308.555558 156.347247 
L 323.994293 156.559542 
L 339.433029 163.787786 
L 354.871764 165.281093 
L 370.310499 165.413854 
L 385.749234 164.825218 
L 401.187969 159.254743 
L 416.626705 164.353081 
" style="fill:none;stroke:#1b9e77;stroke-linecap:square;stroke-opacity:0.5;stroke-width:1.5;"/>
   </g>
   <g id="line2d_49">
    <path clip-path="url(#p51cfb5034e)" d="M 61.535795 163.941252 
L 76.974531 164.025934 
L 92.413266 161.777413 
L 107.852001 158.491164 
L 123.290736 157.595008 
L 138.729471 159.942981 
L 154.168207 163.437029 
L 169.606942 165.337463 
L 185.045677 160.692567 
L 200.484412 146.608429 
L 215.923147 152.540749 
L 231.361882 163.279881 
L 246.800618 165.259902 
L 262.239353 161.751982 
L 277.678088 155.696369 
L 293.116823 159.695797 
L 308.555558 163.920363 
L 323.994293 165.15454 
L 339.433029 151.040388 
L 354.871764 125.814628 
L 370.310499 110.815218 
L 385.749234 143.387654 
L 401.187969 127.129138 
L 416.626705 156.823259 
" style="fill:none;stroke:#1b9e77;stroke-linecap:square;stroke-opacity:0.5;stroke-width:1.5;"/>
   </g>
   <g id="line2d_50">
    <path clip-path="url(#p51cfb5034e)" d="M 61.535795 165.374439 
L 76.974531 165.112459 
L 92.413266 165.074185 
L 107.852001 163.760307 
L 123.290736 162.070766 
L 138.729471 165.598528 
L 154.168207 162.22621 
L 169.606942 126.024251 
L 185.045677 110.481114 
L 200.484412 125.111084 
L 215.923147 163.508344 
L 231.361882 164.924639 
L 246.800618 165.295825 
L 262.239353 164.861965 
L 277.678088 164.73764 
L 293.116823 164.839606 
L 308.555558 164.299723 
L 323.994293 164.748822 
L 339.433029 164.444923 
L 354.871764 161.063673 
L 370.310499 153.117008 
L 385.749234 126.891225 
L 401.187969 120.039512 
L 416.626705 150.552862 
" style="fill:none;stroke:#1b9e77;stroke-linecap:square;stroke-opacity:0.5;stroke-width:1.5;"/>
   </g>
   <g id="line2d_51">
    <path clip-path="url(#p51cfb5034e)" d="M 61.535795 165.690693 
L 76.974531 165.498597 
L 92.413266 165.455689 
L 107.852001 165.087138 
L 123.290736 162.276452 
L 138.729471 160.682603 
L 154.168207 150.002511 
L 169.606942 149.016774 
L 185.045677 135.373094 
L 200.484412 141.714155 
L 215.923147 137.905747 
L 231.361882 146.998015 
L 246.800618 147.925839 
L 262.239353 148.004538 
L 277.678088 144.879314 
L 293.116823 148.875285 
L 308.555558 153.781582 
L 323.994293 148.975067 
L 339.433029 154.502786 
L 354.871764 156.861013 
L 370.310499 159.407006 
L 385.749234 163.763353 
L 401.187969 165.556607 
L 416.626705 165.925256 
" style="fill:none;stroke:#1b9e77;stroke-linecap:square;stroke-opacity:0.5;stroke-width:1.5;"/>
   </g>
   <g id="line2d_52">
    <path clip-path="url(#p51cfb5034e)" d="M 61.535795 143.31617 
L 76.974531 72.211573 
L 92.413266 108.403648 
L 107.852001 149.026665 
L 123.290736 160.755347 
L 138.729471 161.216571 
L 154.168207 162.204059 
L 169.606942 161.745746 
L 185.045677 163.420059 
L 200.484412 164.601284 
L 215.923147 165.204141 
L 231.361882 164.92489 
L 246.800618 164.700902 
L 262.239353 163.519568 
L 277.678088 159.579222 
L 293.116823 164.783311 
L 308.555558 165.254046 
L 323.994293 164.599854 
L 339.433029 163.965379 
L 354.871764 160.994663 
L 370.310499 157.054785 
L 385.749234 152.60571 
L 401.187969 149.050867 
L 416.626705 161.020645 
" style="fill:none;stroke:#1b9e77;stroke-linecap:square;stroke-opacity:0.5;stroke-width:1.5;"/>
   </g>
   <g id="line2d_53">
    <path clip-path="url(#p51cfb5034e)" d="M 61.535795 158.284038 
L 76.974531 158.12028 
L 92.413266 157.91222 
L 107.852001 158.383427 
L 123.290736 107.042725 
L 138.729471 71.843103 
L 154.168207 136.420899 
L 169.606942 133.254289 
L 185.045677 151.500009 
L 200.484412 162.823337 
L 215.923147 165.184684 
L 231.361882 165.20031 
L 246.800618 165.385875 
L 262.239353 165.405523 
L 277.678088 165.626917 
L 293.116823 165.749943 
L 308.555558 165.828487 
L 323.994293 165.840863 
L 339.433029 165.854131 
L 354.871764 165.848612 
L 370.310499 165.829256 
L 385.749234 165.949756 
L 401.187969 164.961838 
L 416.626705 155.908573 
" style="fill:none;stroke:#1b9e77;stroke-linecap:square;stroke-opacity:0.5;stroke-width:1.5;"/>
   </g>
   <g id="line2d_54">
    <path clip-path="url(#p51cfb5034e)" d="M 61.535795 165.773879 
L 76.974531 165.77249 
L 92.413266 165.90278 
L 107.852001 165.914746 
L 123.290736 165.929028 
L 138.729471 165.945088 
L 154.168207 165.943034 
L 169.606942 165.956853 
L 185.045677 164.871417 
L 200.484412 163.134966 
L 215.923147 143.826522 
L 231.361882 152.36386 
L 246.800618 149.362988 
L 262.239353 146.295752 
L 277.678088 147.186146 
L 293.116823 126.406161 
L 308.555558 139.229325 
L 323.994293 163.46371 
L 339.433029 165.011189 
L 354.871764 162.275824 
L 370.310499 134.906428 
L 385.749234 141.181085 
L 401.187969 119.32554 
L 416.626705 158.180294 
" style="fill:none;stroke:#1b9e77;stroke-linecap:square;stroke-opacity:0.5;stroke-width:1.5;"/>
   </g>
   <g id="line2d_55">
    <path clip-path="url(#p51cfb5034e)" d="M 61.535795 160.681609 
L 76.974531 163.214357 
L 92.413266 164.99013 
L 107.852001 164.992967 
L 123.290736 164.963717 
L 138.729471 164.404759 
L 154.168207 164.157504 
L 169.606942 165.013653 
L 185.045677 165.115598 
L 200.484412 165.248227 
L 215.923147 165.170477 
L 231.361882 161.723027 
L 246.800618 160.516494 
L 262.239353 165.831861 
L 277.678088 165.607931 
L 293.116823 150.015828 
L 308.555558 147.58221 
L 323.994293 153.743025 
L 339.433029 152.775268 
L 354.871764 147.031253 
L 370.310499 143.45709 
L 385.749234 130.941504 
L 401.187969 66.175188 
L 416.626705 150.805426 
" style="fill:none;stroke:#1b9e77;stroke-linecap:square;stroke-opacity:0.5;stroke-width:1.5;"/>
   </g>
   <g id="line2d_56">
    <path clip-path="url(#p51cfb5034e)" d="M 61.535795 165.814128 
L 76.974531 165.724129 
L 92.413266 165.401739 
L 107.852001 164.502348 
L 123.290736 163.846941 
L 138.729471 162.38157 
L 154.168207 160.57976 
L 169.606942 156.396474 
L 185.045677 151.995513 
L 200.484412 141.570939 
L 215.923147 137.542479 
L 231.361882 155.768865 
L 246.800618 61.274514 
L 262.239353 113.71318 
L 277.678088 161.587343 
L 293.116823 162.057402 
L 308.555558 164.531679 
L 323.994293 165.708194 
L 339.433029 165.875994 
L 354.871764 165.861499 
L 370.310499 160.159073 
L 385.749234 162.20727 
L 401.187969 164.721049 
L 416.626705 164.93702 
" style="fill:none;stroke:#1b9e77;stroke-linecap:square;stroke-opacity:0.5;stroke-width:1.5;"/>
   </g>
   <g id="line2d_57">
    <path clip-path="url(#p51cfb5034e)" d="M 61.535795 165.605421 
L 76.974531 165.409158 
L 92.413266 165.678594 
L 107.852001 165.65897 
L 123.290736 165.565722 
L 138.729471 165.512398 
L 154.168207 165.532401 
L 169.606942 165.666555 
L 185.045677 165.645154 
L 200.484412 165.576092 
L 215.923147 165.631903 
L 231.361882 165.664041 
L 246.800618 165.60605 
L 262.239353 164.271477 
L 277.678088 163.065539 
L 293.116823 157.139415 
L 308.555558 155.954528 
L 323.994293 155.978224 
L 339.433029 149.142113 
L 354.871764 146.899754 
L 370.310499 153.837641 
L 385.749234 99.95836 
L 401.187969 49.688849 
L 416.626705 155.47075 
" style="fill:none;stroke:#1b9e77;stroke-linecap:square;stroke-opacity:0.5;stroke-width:1.5;"/>
   </g>
   <g id="line2d_58">
    <path clip-path="url(#p51cfb5034e)" d="M 61.535795 164.380164 
L 76.974531 157.278055 
L 92.413266 155.885364 
L 107.852001 156.701812 
L 123.290736 120.350851 
L 138.729471 144.376914 
L 154.168207 151.90963 
L 169.606942 158.42651 
L 185.045677 157.120065 
L 200.484412 151.055067 
L 215.923147 144.346183 
L 231.361882 156.027115 
L 246.800618 164.668521 
L 262.239353 133.995564 
L 277.678088 164.027487 
L 293.116823 165.487686 
L 308.555558 165.403209 
L 323.994293 163.2614 
L 339.433029 158.052809 
L 354.871764 164.786259 
L 370.310499 163.726324 
L 385.749234 152.275196 
L 401.187969 139.241786 
L 416.626705 151.375138 
" style="fill:none;stroke:#1b9e77;stroke-linecap:square;stroke-opacity:0.5;stroke-width:1.5;"/>
   </g>
   <g id="line2d_59">
    <path clip-path="url(#p51cfb5034e)" d="M 61.535795 159.641812 
L 76.974531 158.385978 
L 92.413266 162.255819 
L 107.852001 135.695674 
L 123.290736 88.076351 
L 138.729471 154.960255 
L 154.168207 151.28089 
L 169.606942 133.691852 
L 185.045677 156.333891 
L 200.484412 160.957314 
L 215.923147 164.898423 
L 231.361882 165.016451 
L 246.800618 164.792617 
L 262.239353 163.206109 
L 277.678088 156.838347 
L 293.116823 157.163706 
L 308.555558 158.69124 
L 323.994293 159.461341 
L 339.433029 154.990253 
L 354.871764 146.778017 
L 370.310499 155.24607 
L 385.749234 164.304598 
L 401.187969 165.589966 
L 416.626705 165.902148 
" style="fill:none;stroke:#1b9e77;stroke-linecap:square;stroke-opacity:0.5;stroke-width:1.5;"/>
   </g>
   <g id="line2d_60">
    <path clip-path="url(#p51cfb5034e)" d="M 61.535795 162.288182 
L 76.974531 157.784174 
L 92.413266 163.738852 
L 107.852001 164.725049 
L 123.290736 163.318808 
L 138.729471 146.731064 
L 154.168207 137.837639 
L 169.606942 131.786581 
L 185.045677 127.930885 
L 200.484412 137.235029 
L 215.923147 154.952672 
L 231.361882 156.332917 
L 246.800618 161.292339 
L 262.239353 163.413632 
L 277.678088 164.910823 
L 293.116823 165.434138 
L 308.555558 165.556708 
L 323.994293 165.522516 
L 339.433029 164.520965 
L 354.871764 163.070175 
L 370.310499 159.047896 
L 385.749234 164.384162 
L 401.187969 141.798291 
L 416.626705 120.545605 
" style="fill:none;stroke:#1b9e77;stroke-linecap:square;stroke-opacity:0.5;stroke-width:1.5;"/>
   </g>
   <g id="line2d_61">
    <path clip-path="url(#p51cfb5034e)" d="M 61.535795 165.537805 
L 76.974531 165.615881 
L 92.413266 165.7439 
L 107.852001 165.586325 
L 123.290736 165.57957 
L 138.729471 165.780261 
L 154.168207 165.800122 
L 169.606942 165.896668 
L 185.045677 165.636978 
L 200.484412 146.93007 
L 215.923147 141.405648 
L 231.361882 145.505427 
L 246.800618 140.711616 
L 262.239353 114.67624 
L 277.678088 111.881867 
L 293.116823 111.260085 
L 308.555558 145.544664 
L 323.994293 163.955898 
L 339.433029 165.363773 
L 354.871764 162.386982 
L 370.310499 165.525098 
L 385.749234 165.926123 
L 401.187969 165.949789 
L 416.626705 165.95831 
" style="fill:none;stroke:#1b9e77;stroke-linecap:square;stroke-opacity:0.5;stroke-width:1.5;"/>
   </g>
   <g id="line2d_62">
    <path clip-path="url(#p51cfb5034e)" d="M 61.535795 165.070029 
L 76.974531 165.09651 
L 92.413266 165.575613 
L 107.852001 165.45344 
L 123.290736 165.510874 
L 138.729471 165.741144 
L 154.168207 165.848264 
L 169.606942 165.886223 
L 185.045677 165.896178 
L 200.484412 165.882121 
L 215.923147 165.088783 
L 231.361882 165.323422 
L 246.800618 165.090192 
L 262.239353 165.264758 
L 277.678088 154.310532 
L 293.116823 126.950308 
L 308.555558 140.296267 
L 323.994293 109.422257 
L 339.433029 160.662765 
L 354.871764 165.455136 
L 370.310499 159.43661 
L 385.749234 131.7842 
L 401.187969 94.99958 
L 416.626705 144.113901 
" style="fill:none;stroke:#1b9e77;stroke-linecap:square;stroke-opacity:0.5;stroke-width:1.5;"/>
   </g>
   <g id="line2d_63">
    <path clip-path="url(#p51cfb5034e)" d="M 61.535795 165.913365 
L 76.974531 165.74498 
L 92.413266 165.768709 
L 107.852001 165.723523 
L 123.290736 165.581932 
L 138.729471 165.749207 
L 154.168207 165.700857 
L 169.606942 163.161075 
L 185.045677 80.962829 
L 200.484412 115.691493 
L 215.923147 140.83407 
L 231.361882 149.543961 
L 246.800618 153.432711 
L 262.239353 138.33279 
L 277.678088 140.772523 
L 293.116823 153.148698 
L 308.555558 161.730004 
L 323.994293 165.550666 
L 339.433029 165.664135 
L 354.871764 165.795177 
L 370.310499 165.856936 
L 385.749234 165.931155 
L 401.187969 165.856931 
L 416.626705 151.711383 
" style="fill:none;stroke:#1b9e77;stroke-linecap:square;stroke-opacity:0.5;stroke-width:1.5;"/>
   </g>
   <g id="line2d_64">
    <path clip-path="url(#p51cfb5034e)" d="M 61.535795 165.248271 
L 76.974531 165.251493 
L 92.413266 165.713421 
L 107.852001 165.842213 
L 123.290736 165.848224 
L 138.729471 165.835695 
L 154.168207 159.867284 
L 169.606942 157.644807 
L 185.045677 153.703947 
L 200.484412 150.216766 
L 215.923147 145.786518 
L 231.361882 155.558039 
L 246.800618 135.590152 
L 262.239353 14.76 
L 277.678088 153.482041 
L 293.116823 159.202278 
L 308.555558 164.435697 
L 323.994293 165.319174 
L 339.433029 165.722699 
L 354.871764 165.747835 
L 370.310499 165.821699 
L 385.749234 165.87552 
L 401.187969 165.793395 
L 416.626705 165.891942 
" style="fill:none;stroke:#1b9e77;stroke-linecap:square;stroke-opacity:0.5;stroke-width:1.5;"/>
   </g>
   <g id="line2d_65">
    <path clip-path="url(#p51cfb5034e)" d="M 61.535795 161.795842 
L 76.974531 165.324933 
L 92.413266 165.848626 
L 107.852001 165.876191 
L 123.290736 165.89805 
L 138.729471 165.357091 
L 154.168207 163.155243 
L 169.606942 165.95249 
L 185.045677 165.007775 
L 200.484412 160.815921 
L 215.923147 162.562479 
L 231.361882 99.263421 
L 246.800618 59.323558 
L 262.239353 153.322931 
L 277.678088 160.190557 
L 293.116823 139.448176 
L 308.555558 152.17102 
L 323.994293 164.283082 
L 339.433029 165.473144 
L 354.871764 165.537438 
L 370.310499 165.206529 
L 385.749234 163.718582 
L 401.187969 151.91445 
L 416.626705 156.711576 
" style="fill:none;stroke:#1b9e77;stroke-linecap:square;stroke-opacity:0.5;stroke-width:1.5;"/>
   </g>
   <g id="line2d_66">
    <path clip-path="url(#p51cfb5034e)" d="M 61.535795 164.94422 
L 76.974531 164.479846 
L 92.413266 164.270546 
L 107.852001 163.072703 
L 123.290736 161.579606 
L 138.729471 159.00664 
L 154.168207 155.243547 
L 169.606942 158.161003 
L 185.045677 158.166143 
L 200.484412 133.030578 
L 215.923147 130.863629 
L 231.361882 123.198874 
L 246.800618 129.750438 
L 262.239353 140.749947 
L 277.678088 156.570164 
L 293.116823 156.596219 
L 308.555558 159.615014 
L 323.994293 160.251563 
L 339.433029 159.182276 
L 354.871764 163.862136 
L 370.310499 159.89909 
L 385.749234 157.494607 
L 401.187969 160.329008 
L 416.626705 163.841312 
" style="fill:none;stroke:#1b9e77;stroke-linecap:square;stroke-opacity:0.5;stroke-width:1.5;"/>
   </g>
   <g id="line2d_67">
    <path clip-path="url(#p51cfb5034e)" d="M 61.535795 161.094812 
L 76.974531 163.207953 
L 92.413266 165.255675 
L 107.852001 165.332111 
L 123.290736 165.303205 
L 138.729471 165.237034 
L 154.168207 136.462293 
L 169.606942 156.109428 
L 185.045677 149.818585 
L 200.484412 154.105959 
L 215.923147 154.925319 
L 231.361882 158.574628 
L 246.800618 109.964407 
L 262.239353 101.939763 
L 277.678088 162.523011 
L 293.116823 157.835293 
L 308.555558 161.293191 
L 323.994293 141.710702 
L 339.433029 165.706623 
L 354.871764 165.891306 
L 370.310499 165.900959 
L 385.749234 165.759768 
L 401.187969 144.692878 
L 416.626705 165.51421 
" style="fill:none;stroke:#1b9e77;stroke-linecap:square;stroke-opacity:0.5;stroke-width:1.5;"/>
   </g>
   <g id="line2d_68">
    <path clip-path="url(#p51cfb5034e)" d="M 61.535795 164.235617 
L 76.974531 164.21287 
L 92.413266 163.712891 
L 107.852001 138.021251 
L 123.290736 107.627917 
L 138.729471 162.769372 
L 154.168207 165.141422 
L 169.606942 164.589671 
L 185.045677 161.337672 
L 200.484412 158.393283 
L 215.923147 163.337367 
L 231.361882 165.202145 
L 246.800618 165.499802 
L 262.239353 165.089678 
L 277.678088 162.833704 
L 293.116823 164.638921 
L 308.555558 165.486831 
L 323.994293 165.842988 
L 339.433029 164.677842 
L 354.871764 70.699596 
L 370.310499 108.37417 
L 385.749234 160.569556 
L 401.187969 165.916204 
L 416.626705 165.948343 
" style="fill:none;stroke:#1b9e77;stroke-linecap:square;stroke-opacity:0.5;stroke-width:1.5;"/>
   </g>
   <g id="line2d_69">
    <path clip-path="url(#p51cfb5034e)" d="M 61.535795 164.447059 
L 76.974531 165.250656 
L 92.413266 165.776896 
L 107.852001 165.815179 
L 123.290736 165.845366 
L 138.729471 165.808925 
L 154.168207 165.348952 
L 169.606942 165.910481 
L 185.045677 165.93341 
L 200.484412 164.412158 
L 215.923147 165.121697 
L 231.361882 164.168579 
L 246.800618 131.643428 
L 262.239353 100.304626 
L 277.678088 113.312228 
L 293.116823 112.229344 
L 308.555558 129.504691 
L 323.994293 149.306603 
L 339.433029 163.066655 
L 354.871764 163.710661 
L 370.310499 163.363875 
L 385.749234 163.275093 
L 401.187969 164.721316 
L 416.626705 165.881227 
" style="fill:none;stroke:#1b9e77;stroke-linecap:square;stroke-opacity:0.5;stroke-width:1.5;"/>
   </g>
   <g id="line2d_70">
    <path clip-path="url(#p51cfb5034e)" d="M 61.535795 165.89359 
L 76.974531 165.8487 
L 92.413266 165.911542 
L 107.852001 165.930046 
L 123.290736 165.933313 
L 138.729471 165.940513 
L 154.168207 164.699596 
L 169.606942 165.906981 
L 185.045677 165.35654 
L 200.484412 163.942862 
L 215.923147 164.976906 
L 231.361882 162.963463 
L 246.800618 125.504806 
L 262.239353 149.482445 
L 277.678088 141.386674 
L 293.116823 149.66457 
L 308.555558 156.744622 
L 323.994293 79.39041 
L 339.433029 151.248642 
L 354.871764 159.021728 
L 370.310499 152.314113 
L 385.749234 140.525216 
L 401.187969 150.237159 
L 416.626705 165.334668 
" style="fill:none;stroke:#1b9e77;stroke-linecap:square;stroke-opacity:0.5;stroke-width:1.5;"/>
   </g>
   <g id="line2d_71">
    <path clip-path="url(#p51cfb5034e)" d="M 61.535795 165.544573 
L 76.974531 165.483142 
L 92.413266 165.734179 
L 107.852001 165.774694 
L 123.290736 165.737388 
L 138.729471 165.602958 
L 154.168207 165.319523 
L 169.606942 164.5183 
L 185.045677 165.479787 
L 200.484412 165.256182 
L 215.923147 164.894915 
L 231.361882 165.298081 
L 246.800618 165.216195 
L 262.239353 165.275537 
L 277.678088 147.441734 
L 293.116823 150.178771 
L 308.555558 144.357119 
L 323.994293 132.046535 
L 339.433029 105.766835 
L 354.871764 136.152745 
L 370.310499 152.613451 
L 385.749234 105.72395 
L 401.187969 149.04003 
L 416.626705 165.702486 
" style="fill:none;stroke:#1b9e77;stroke-linecap:square;stroke-opacity:0.5;stroke-width:1.5;"/>
   </g>
   <g id="line2d_72">
    <path clip-path="url(#p51cfb5034e)" d="M 61.535795 165.222303 
L 76.974531 165.505713 
L 92.413266 165.83191 
L 107.852001 165.853919 
L 123.290736 165.892973 
L 138.729471 165.911084 
L 154.168207 165.904892 
L 169.606942 165.908898 
L 185.045677 165.907352 
L 200.484412 165.924438 
L 215.923147 164.28189 
L 231.361882 161.580415 
L 246.800618 164.344776 
L 262.239353 163.21943 
L 277.678088 159.45109 
L 293.116823 155.596869 
L 308.555558 155.202636 
L 323.994293 144.973903 
L 339.433029 132.304644 
L 354.871764 122.48783 
L 370.310499 141.156505 
L 385.749234 147.820476 
L 401.187969 108.356076 
L 416.626705 125.519083 
" style="fill:none;stroke:#1b9e77;stroke-linecap:square;stroke-opacity:0.5;stroke-width:1.5;"/>
   </g>
   <g id="line2d_73">
    <path clip-path="url(#p51cfb5034e)" d="M 61.535795 165.745961 
L 76.974531 165.6763 
L 92.413266 165.848005 
L 107.852001 165.842974 
L 123.290736 165.862279 
L 138.729471 165.924174 
L 154.168207 165.925945 
L 169.606942 165.943951 
L 185.045677 163.769822 
L 200.484412 160.42912 
L 215.923147 161.700454 
L 231.361882 157.927752 
L 246.800618 156.1904 
L 262.239353 148.057623 
L 277.678088 140.163503 
L 293.116823 153.637665 
L 308.555558 52.018492 
L 323.994293 99.030519 
L 339.433029 160.249666 
L 354.871764 162.954212 
L 370.310499 164.668681 
L 385.749234 165.126288 
L 401.187969 165.558109 
L 416.626705 165.907215 
" style="fill:none;stroke:#1b9e77;stroke-linecap:square;stroke-opacity:0.5;stroke-width:1.5;"/>
   </g>
   <g id="line2d_74">
    <path clip-path="url(#p51cfb5034e)" d="M 61.535795 163.645959 
L 76.974531 120.911799 
L 92.413266 76.79156 
L 107.852001 104.187946 
L 123.290736 156.22795 
L 138.729471 162.137197 
L 154.168207 164.80096 
L 169.606942 165.352205 
L 185.045677 165.701719 
L 200.484412 165.678603 
L 215.923147 165.651575 
L 231.361882 165.598861 
L 246.800618 165.16597 
L 262.239353 164.318166 
L 277.678088 156.459582 
L 293.116823 154.0252 
L 308.555558 156.191793 
L 323.994293 144.650028 
L 339.433029 158.611453 
L 354.871764 165.041264 
L 370.310499 165.568986 
L 385.749234 165.683032 
L 401.187969 165.818153 
L 416.626705 165.939147 
" style="fill:none;stroke:#1b9e77;stroke-linecap:square;stroke-opacity:0.5;stroke-width:1.5;"/>
   </g>
   <g id="line2d_75">
    <path clip-path="url(#p51cfb5034e)" d="M 61.535795 165.424536 
L 76.974531 165.430665 
L 92.413266 165.609799 
L 107.852001 165.451434 
L 123.290736 165.389723 
L 138.729471 165.470534 
L 154.168207 165.395902 
L 169.606942 164.844206 
L 185.045677 162.545101 
L 200.484412 156.898547 
L 215.923147 158.952658 
L 231.361882 164.860533 
L 246.800618 161.949905 
L 262.239353 130.996401 
L 277.678088 107.369536 
L 293.116823 117.891095 
L 308.555558 129.342381 
L 323.994293 145.117903 
L 339.433029 149.445453 
L 354.871764 145.557018 
L 370.310499 154.466062 
L 385.749234 164.233588 
L 401.187969 165.610687 
L 416.626705 165.905441 
" style="fill:none;stroke:#1b9e77;stroke-linecap:square;stroke-opacity:0.5;stroke-width:1.5;"/>
   </g>
   <g id="line2d_76">
    <path clip-path="url(#p51cfb5034e)" d="M 61.535795 163.57186 
L 76.974531 163.945466 
L 92.413266 163.425089 
L 107.852001 161.366196 
L 123.290736 154.942815 
L 138.729471 150.597548 
L 154.168207 145.988197 
L 169.606942 143.759098 
L 185.045677 120.412066 
L 200.484412 121.946764 
L 215.923147 140.163327 
L 231.361882 152.855947 
L 246.800618 154.180714 
L 262.239353 157.666605 
L 277.678088 163.128723 
L 293.116823 163.51032 
L 308.555558 155.514743 
L 323.994293 160.396339 
L 339.433029 155.345819 
L 354.871764 161.866836 
L 370.310499 164.006813 
L 385.749234 162.859849 
L 401.187969 158.919563 
L 416.626705 163.78841 
" style="fill:none;stroke:#1b9e77;stroke-linecap:square;stroke-opacity:0.5;stroke-width:1.5;"/>
   </g>
   <g id="line2d_77">
    <path clip-path="url(#p51cfb5034e)" d="M 61.535795 161.242572 
L 76.974531 131.475487 
L 92.413266 118.5231 
L 107.852001 137.084477 
L 123.290736 140.809772 
L 138.729471 132.060623 
L 154.168207 139.862287 
L 169.606942 139.060505 
L 185.045677 151.250832 
L 200.484412 146.577013 
L 215.923147 160.564966 
L 231.361882 164.106791 
L 246.800618 164.934758 
L 262.239353 164.551974 
L 277.678088 164.923751 
L 293.116823 165.213655 
L 308.555558 165.604592 
L 323.994293 165.78786 
L 339.433029 165.867597 
L 354.871764 165.803915 
L 370.310499 163.270342 
L 385.749234 165.880362 
L 401.187969 165.820424 
L 416.626705 163.881457 
" style="fill:none;stroke:#1b9e77;stroke-linecap:square;stroke-opacity:0.5;stroke-width:1.5;"/>
   </g>
   <g id="line2d_78">
    <path clip-path="url(#p51cfb5034e)" d="M 61.535795 161.287221 
L 76.974531 116.25743 
L 92.413266 117.548581 
L 107.852001 131.132519 
L 123.290736 151.913724 
L 138.729471 151.211412 
L 154.168207 156.816899 
L 169.606942 157.717366 
L 185.045677 162.161109 
L 200.484412 164.050191 
L 215.923147 165.065902 
L 231.361882 165.314331 
L 246.800618 162.979273 
L 262.239353 140.072661 
L 277.678088 147.185494 
L 293.116823 162.837987 
L 308.555558 162.771221 
L 323.994293 157.08067 
L 339.433029 145.343743 
L 354.871764 162.194505 
L 370.310499 165.551154 
L 385.749234 165.826426 
L 401.187969 165.900879 
L 416.626705 165.938415 
" style="fill:none;stroke:#1b9e77;stroke-linecap:square;stroke-opacity:0.5;stroke-width:1.5;"/>
   </g>
   <g id="line2d_79">
    <path clip-path="url(#p51cfb5034e)" d="M 61.535795 141.230219 
L 76.974531 127.78944 
L 92.413266 125.224448 
L 107.852001 119.512769 
L 123.290736 128.256163 
L 138.729471 164.806621 
L 154.168207 165.760973 
L 169.606942 165.724642 
L 185.045677 165.815121 
L 200.484412 165.851322 
L 215.923147 165.882877 
L 231.361882 165.904193 
L 246.800618 165.917794 
L 262.239353 165.945094 
L 277.678088 165.927977 
L 293.116823 164.000858 
L 308.555558 161.544367 
L 323.994293 159.103263 
L 339.433029 141.9985 
L 354.871764 149.403641 
L 370.310499 156.370037 
L 385.749234 156.47959 
L 401.187969 153.638043 
L 416.626705 162.071159 
" style="fill:none;stroke:#1b9e77;stroke-linecap:square;stroke-opacity:0.5;stroke-width:1.5;"/>
   </g>
   <g id="line2d_80">
    <path clip-path="url(#p51cfb5034e)" d="M 61.535795 164.13058 
L 76.974531 165.742405 
L 92.413266 164.688019 
L 107.852001 163.701312 
L 123.290736 163.557971 
L 138.729471 162.849014 
L 154.168207 160.805444 
L 169.606942 160.950117 
L 185.045677 161.898473 
L 200.484412 160.367832 
L 215.923147 154.616239 
L 231.361882 152.750972 
L 246.800618 141.039765 
L 262.239353 146.748124 
L 277.678088 147.39756 
L 293.116823 128.536537 
L 308.555558 153.492685 
L 323.994293 134.078263 
L 339.433029 149.745319 
L 354.871764 165.066359 
L 370.310499 161.074078 
L 385.749234 143.526964 
L 401.187969 146.985741 
L 416.626705 150.409338 
" style="fill:none;stroke:#1b9e77;stroke-linecap:square;stroke-opacity:0.5;stroke-width:1.5;"/>
   </g>
   <g id="line2d_81">
    <path clip-path="url(#p51cfb5034e)" d="M 61.535795 160.040908 
L 76.974531 141.088538 
L 92.413266 125.507228 
L 107.852001 62.33193 
L 123.290736 130.855611 
L 138.729471 146.817903 
L 154.168207 156.818678 
L 169.606942 159.249935 
L 185.045677 165.251156 
L 200.484412 165.782973 
L 215.923147 165.877589 
L 231.361882 165.792719 
L 246.800618 163.879256 
L 262.239353 163.808702 
L 277.678088 165.211131 
L 293.116823 165.957471 
L 308.555558 163.315449 
L 323.994293 164.037786 
L 339.433029 163.485624 
L 354.871764 162.640766 
L 370.310499 161.334382 
L 385.749234 160.657863 
L 401.187969 160.617162 
L 416.626705 163.798345 
" style="fill:none;stroke:#1b9e77;stroke-linecap:square;stroke-opacity:0.5;stroke-width:1.5;"/>
   </g>
   <g id="line2d_82">
    <path clip-path="url(#p51cfb5034e)" d="M 61.535795 151.021391 
L 76.974531 118.489051 
L 92.413266 156.726961 
L 107.852001 160.900312 
L 123.290736 162.704149 
L 138.729471 162.175686 
L 154.168207 163.578232 
L 169.606942 164.725786 
L 185.045677 165.380418 
L 200.484412 165.571422 
L 215.923147 165.700869 
L 231.361882 165.655437 
L 246.800618 149.074133 
L 262.239353 160.639009 
L 277.678088 161.38733 
L 293.116823 157.90833 
L 308.555558 151.272968 
L 323.994293 149.236023 
L 339.433029 149.780606 
L 354.871764 139.772857 
L 370.310499 88.447433 
L 385.749234 162.258354 
L 401.187969 165.822515 
L 416.626705 165.929836 
" style="fill:none;stroke:#1b9e77;stroke-linecap:square;stroke-opacity:0.5;stroke-width:1.5;"/>
   </g>
   <g id="line2d_83">
    <path clip-path="url(#p51cfb5034e)" d="M 61.535795 165.835745 
L 76.974531 165.528411 
L 92.413266 165.647217 
L 107.852001 165.698269 
L 123.290736 165.544858 
L 138.729471 165.8884 
L 154.168207 159.931937 
L 169.606942 78.708808 
L 185.045677 137.36327 
L 200.484412 86.743409 
L 215.923147 135.001497 
L 231.361882 155.358727 
L 246.800618 154.45302 
L 262.239353 165.626963 
L 277.678088 165.814785 
L 293.116823 165.816371 
L 308.555558 165.86019 
L 323.994293 165.892789 
L 339.433029 165.9091 
L 354.871764 165.775791 
L 370.310499 163.40211 
L 385.749234 157.351278 
L 401.187969 158.076398 
L 416.626705 162.92977 
" style="fill:none;stroke:#1b9e77;stroke-linecap:square;stroke-opacity:0.5;stroke-width:1.5;"/>
   </g>
   <g id="line2d_84">
    <path clip-path="url(#p51cfb5034e)" d="M 61.535795 156.758887 
L 76.974531 147.136465 
L 92.413266 163.746622 
L 107.852001 164.60199 
L 123.290736 163.722837 
L 138.729471 145.140093 
L 154.168207 124.715128 
L 169.606942 146.291225 
L 185.045677 150.327789 
L 200.484412 135.138059 
L 215.923147 119.151181 
L 231.361882 125.436663 
L 246.800618 151.503031 
L 262.239353 161.372251 
L 277.678088 163.477258 
L 293.116823 162.282398 
L 308.555558 164.023295 
L 323.994293 165.276948 
L 339.433029 165.678902 
L 354.871764 165.571903 
L 370.310499 165.58938 
L 385.749234 165.63963 
L 401.187969 165.658421 
L 416.626705 165.918756 
" style="fill:none;stroke:#1b9e77;stroke-linecap:square;stroke-opacity:0.5;stroke-width:1.5;"/>
   </g>
   <g id="line2d_85">
    <path clip-path="url(#p51cfb5034e)" d="M 61.535795 164.530841 
L 76.974531 165.393865 
L 92.413266 165.461823 
L 107.852001 159.141917 
L 123.290736 164.926518 
L 138.729471 141.424817 
L 154.168207 100.451135 
L 169.606942 133.13981 
L 185.045677 146.748744 
L 200.484412 150.213041 
L 215.923147 157.805261 
L 231.361882 157.425234 
L 246.800618 160.280321 
L 262.239353 161.821045 
L 277.678088 162.86904 
L 293.116823 163.054258 
L 308.555558 163.823043 
L 323.994293 163.38001 
L 339.433029 161.272143 
L 354.871764 154.88392 
L 370.310499 148.80606 
L 385.749234 156.281661 
L 401.187969 146.62817 
L 416.626705 154.396432 
" style="fill:none;stroke:#1b9e77;stroke-linecap:square;stroke-opacity:0.5;stroke-width:1.5;"/>
   </g>
   <g id="line2d_86">
    <path clip-path="url(#p51cfb5034e)" d="M 61.535795 161.852579 
L 76.974531 163.569286 
L 92.413266 165.371994 
L 107.852001 165.840998 
L 123.290736 165.895386 
L 138.729471 145.33014 
L 154.168207 149.746457 
L 169.606942 145.275716 
L 185.045677 124.748738 
L 200.484412 124.826144 
L 215.923147 137.36422 
L 231.361882 152.95248 
L 246.800618 78.468487 
L 262.239353 164.503053 
L 277.678088 165.783869 
L 293.116823 165.737259 
L 308.555558 165.756558 
L 323.994293 165.776549 
L 339.433029 165.829335 
L 354.871764 165.869859 
L 370.310499 165.894358 
L 385.749234 165.902665 
L 401.187969 165.908781 
L 416.626705 165.954205 
" style="fill:none;stroke:#1b9e77;stroke-linecap:square;stroke-opacity:0.5;stroke-width:1.5;"/>
   </g>
   <g id="line2d_87">
    <path clip-path="url(#p51cfb5034e)" d="M 61.535795 142.449746 
L 76.974531 157.92415 
L 92.413266 164.248824 
L 107.852001 154.85798 
L 123.290736 74.424311 
L 138.729471 165.61597 
L 154.168207 165.762341 
L 169.606942 162.147737 
L 185.045677 141.468712 
L 200.484412 131.284387 
L 215.923147 147.578975 
L 231.361882 164.644158 
L 246.800618 165.043856 
L 262.239353 159.581939 
L 277.678088 151.204813 
L 293.116823 154.403907 
L 308.555558 160.109839 
L 323.994293 164.273558 
L 339.433029 165.289855 
L 354.871764 165.056406 
L 370.310499 164.568756 
L 385.749234 162.90581 
L 401.187969 155.912036 
L 416.626705 163.401051 
" style="fill:none;stroke:#1b9e77;stroke-linecap:square;stroke-opacity:0.5;stroke-width:1.5;"/>
   </g>
   <g id="line2d_88">
    <path clip-path="url(#p51cfb5034e)" d="M 61.535795 144.571218 
L 76.974531 159.448294 
L 92.413266 165.177589 
L 107.852001 165.160793 
L 123.290736 165.186794 
L 138.729471 163.953313 
L 154.168207 163.977531 
L 169.606942 165.458807 
L 185.045677 165.645185 
L 200.484412 165.480316 
L 215.923147 165.238615 
L 231.361882 165.307391 
L 246.800618 165.458981 
L 262.239353 165.826905 
L 277.678088 165.636925 
L 293.116823 99.857931 
L 308.555558 114.224195 
L 323.994293 142.959762 
L 339.433029 157.132062 
L 354.871764 120.214092 
L 370.310499 151.22177 
L 385.749234 154.380626 
L 401.187969 157.984803 
L 416.626705 154.65521 
" style="fill:none;stroke:#1b9e77;stroke-linecap:square;stroke-opacity:0.5;stroke-width:1.5;"/>
   </g>
   <g id="line2d_89">
    <path clip-path="url(#p51cfb5034e)" d="M 61.535795 146.891394 
L 76.974531 154.911164 
L 92.413266 161.809086 
L 107.852001 160.196343 
L 123.290736 159.597106 
L 138.729471 154.795052 
L 154.168207 152.103927 
L 169.606942 158.304503 
L 185.045677 158.416445 
L 200.484412 155.002091 
L 215.923147 155.930047 
L 231.361882 158.688854 
L 246.800618 154.195165 
L 262.239353 132.271517 
L 277.678088 131.76117 
L 293.116823 156.646868 
L 308.555558 160.616715 
L 323.994293 157.76947 
L 339.433029 143.573185 
L 354.871764 139.932557 
L 370.310499 155.582487 
L 385.749234 164.208923 
L 401.187969 165.271911 
L 416.626705 165.683129 
" style="fill:none;stroke:#1b9e77;stroke-linecap:square;stroke-opacity:0.5;stroke-width:1.5;"/>
   </g>
   <g id="line2d_90">
    <path clip-path="url(#p51cfb5034e)" d="M 61.535795 162.011669 
L 76.974531 147.42728 
L 92.413266 158.410636 
L 107.852001 164.751937 
L 123.290736 165.342634 
L 138.729471 157.09565 
L 154.168207 152.930555 
L 169.606942 164.193196 
L 185.045677 164.907557 
L 200.484412 164.170588 
L 215.923147 151.153912 
L 231.361882 142.221365 
L 246.800618 130.918816 
L 262.239353 151.808033 
L 277.678088 153.398829 
L 293.116823 149.651087 
L 308.555558 134.423559 
L 323.994293 139.822991 
L 339.433029 143.776303 
L 354.871764 155.516275 
L 370.310499 155.467196 
L 385.749234 162.931548 
L 401.187969 165.911753 
L 416.626705 165.915741 
" style="fill:none;stroke:#1b9e77;stroke-linecap:square;stroke-opacity:0.5;stroke-width:1.5;"/>
   </g>
   <g id="line2d_91">
    <path clip-path="url(#p51cfb5034e)" d="M 61.535795 147.06008 
L 76.974531 142.656428 
L 92.413266 141.889125 
L 107.852001 147.884565 
L 123.290736 151.630876 
L 138.729471 143.583757 
L 154.168207 146.819645 
L 169.606942 149.030421 
L 185.045677 150.646114 
L 200.484412 146.268277 
L 215.923147 158.500118 
L 231.361882 163.547118 
L 246.800618 163.172167 
L 262.239353 148.531108 
L 277.678088 147.686501 
L 293.116823 158.687558 
L 308.555558 161.580107 
L 323.994293 160.714587 
L 339.433029 160.460251 
L 354.871764 161.449982 
L 370.310499 164.04772 
L 385.749234 164.959119 
L 401.187969 163.413042 
L 416.626705 159.940438 
" style="fill:none;stroke:#1b9e77;stroke-linecap:square;stroke-opacity:0.5;stroke-width:1.5;"/>
   </g>
   <g id="line2d_92">
    <path clip-path="url(#p51cfb5034e)" d="M 61.535795 134.565183 
L 76.974531 99.231718 
L 92.413266 100.316541 
L 107.852001 156.158553 
L 123.290736 163.446488 
L 138.729471 160.88785 
L 154.168207 146.812366 
L 169.606942 163.858343 
L 185.045677 165.681726 
L 200.484412 165.629123 
L 215.923147 165.685608 
L 231.361882 165.693806 
L 246.800618 165.764473 
L 262.239353 165.756437 
L 277.678088 165.692648 
L 293.116823 165.573143 
L 308.555558 165.063168 
L 323.994293 164.232584 
L 339.433029 160.980304 
L 354.871764 164.018068 
L 370.310499 161.646402 
L 385.749234 157.506401 
L 401.187969 131.770557 
L 416.626705 148.187616 
" style="fill:none;stroke:#1b9e77;stroke-linecap:square;stroke-opacity:0.5;stroke-width:1.5;"/>
   </g>
   <g id="line2d_93">
    <path clip-path="url(#p51cfb5034e)" d="M 61.535795 158.68982 
L 76.974531 149.240454 
L 92.413266 164.715413 
L 107.852001 165.297618 
L 123.290736 165.407449 
L 138.729471 164.771121 
L 154.168207 163.769386 
L 169.606942 164.98348 
L 185.045677 165.297226 
L 200.484412 164.903583 
L 215.923147 163.282776 
L 231.361882 161.430028 
L 246.800618 164.220999 
L 262.239353 165.628533 
L 277.678088 165.151861 
L 293.116823 138.659887 
L 308.555558 75.417727 
L 323.994293 148.749892 
L 339.433029 156.667376 
L 354.871764 136.704485 
L 370.310499 154.159413 
L 385.749234 156.53232 
L 401.187969 124.533503 
L 416.626705 165.944761 
" style="fill:none;stroke:#1b9e77;stroke-linecap:square;stroke-opacity:0.5;stroke-width:1.5;"/>
   </g>
   <g id="line2d_94">
    <path clip-path="url(#p51cfb5034e)" d="M 61.535795 162.614249 
L 76.974531 153.665154 
L 92.413266 152.694774 
L 107.852001 153.650273 
L 123.290736 147.473861 
L 138.729471 135.737695 
L 154.168207 135.743751 
L 169.606942 140.34017 
L 185.045677 157.037411 
L 200.484412 162.823545 
L 215.923147 163.332408 
L 231.361882 162.991803 
L 246.800618 158.001594 
L 262.239353 146.208907 
L 277.678088 144.992376 
L 293.116823 147.53142 
L 308.555558 148.206586 
L 323.994293 146.230473 
L 339.433029 159.412323 
L 354.871764 162.77253 
L 370.310499 165.217768 
L 385.749234 165.671967 
L 401.187969 165.864273 
L 416.626705 165.943792 
" style="fill:none;stroke:#1b9e77;stroke-linecap:square;stroke-opacity:0.5;stroke-width:1.5;"/>
   </g>
   <g id="line2d_95">
    <path clip-path="url(#p51cfb5034e)" d="M 61.535795 164.68646 
L 76.974531 148.606702 
L 92.413266 93.593838 
L 107.852001 119.558367 
L 123.290736 143.932432 
L 138.729471 139.4339 
L 154.168207 137.471922 
L 169.606942 149.119142 
L 185.045677 161.679671 
L 200.484412 164.935232 
L 215.923147 165.443307 
L 231.361882 165.270226 
L 246.800618 165.336929 
L 262.239353 165.563161 
L 277.678088 165.715437 
L 293.116823 165.76346 
L 308.555558 165.689661 
L 323.994293 165.546904 
L 339.433029 164.37393 
L 354.871764 163.071698 
L 370.310499 159.410658 
L 385.749234 158.527812 
L 401.187969 150.273807 
L 416.626705 161.154458 
" style="fill:none;stroke:#1b9e77;stroke-linecap:square;stroke-opacity:0.5;stroke-width:1.5;"/>
   </g>
   <g id="line2d_96">
    <path clip-path="url(#p51cfb5034e)" d="M 61.535795 165.832224 
L 76.974531 165.460672 
L 92.413266 165.309528 
L 107.852001 165.572072 
L 123.290736 164.038254 
L 138.729471 161.876506 
L 154.168207 160.71036 
L 169.606942 156.867818 
L 185.045677 149.281129 
L 200.484412 142.094219 
L 215.923147 130.62501 
L 231.361882 141.646452 
L 246.800618 162.831296 
L 262.239353 86.39746 
L 277.678088 99.138448 
L 293.116823 160.876802 
L 308.555558 165.265202 
L 323.994293 165.336157 
L 339.433029 165.66575 
L 354.871764 165.742238 
L 370.310499 165.843909 
L 385.749234 165.880862 
L 401.187969 165.912512 
L 416.626705 165.954226 
" style="fill:none;stroke:#1b9e77;stroke-linecap:square;stroke-opacity:0.5;stroke-width:1.5;"/>
   </g>
   <g id="line2d_97">
    <path clip-path="url(#p51cfb5034e)" d="M 61.535795 160.302881 
L 76.974531 135.06582 
L 92.413266 141.721419 
L 107.852001 165.577892 
L 123.290736 165.810966 
L 138.729471 165.433154 
L 154.168207 112.754907 
L 169.606942 114.975406 
L 185.045677 155.264761 
L 200.484412 162.346781 
L 215.923147 163.324938 
L 231.361882 163.940126 
L 246.800618 165.303457 
L 262.239353 165.505211 
L 277.678088 165.384695 
L 293.116823 164.662347 
L 308.555558 163.641853 
L 323.994293 165.484803 
L 339.433029 162.500753 
L 354.871764 134.260659 
L 370.310499 152.043996 
L 385.749234 152.9102 
L 401.187969 145.054415 
L 416.626705 160.887669 
" style="fill:none;stroke:#1b9e77;stroke-linecap:square;stroke-opacity:0.5;stroke-width:1.5;"/>
   </g>
   <g id="line2d_98">
    <path clip-path="url(#p51cfb5034e)" d="M 61.535795 26.870907 
L 76.974531 128.569659 
L 92.413266 164.239358 
L 107.852001 99.877884 
L 123.290736 139.053678 
L 138.729471 165.157245 
L 154.168207 165.661347 
L 169.606942 165.107948 
L 185.045677 165.346702 
L 200.484412 165.570873 
L 215.923147 165.754319 
L 231.361882 165.762366 
L 246.800618 165.809926 
L 262.239353 165.789797 
L 277.678088 165.773312 
L 293.116823 165.782281 
L 308.555558 165.682913 
L 323.994293 165.520013 
L 339.433029 165.041793 
L 354.871764 165.351216 
L 370.310499 165.417471 
L 385.749234 165.594463 
L 401.187969 165.566521 
L 416.626705 165.857105 
" style="fill:none;stroke:#1b9e77;stroke-linecap:square;stroke-opacity:0.5;stroke-width:1.5;"/>
   </g>
   <g id="line2d_99">
    <path clip-path="url(#p51cfb5034e)" d="M 61.535795 164.94999 
L 76.974531 165.234161 
L 92.413266 165.661318 
L 107.852001 165.605987 
L 123.290736 165.653783 
L 138.729471 165.773228 
L 154.168207 165.859163 
L 169.606942 165.877466 
L 185.045677 165.898443 
L 200.484412 165.911984 
L 215.923147 165.332973 
L 231.361882 164.711192 
L 246.800618 155.011209 
L 262.239353 159.976907 
L 277.678088 143.047609 
L 293.116823 150.133398 
L 308.555558 160.991313 
L 323.994293 155.677603 
L 339.433029 84.431926 
L 354.871764 141.598802 
L 370.310499 150.555763 
L 385.749234 131.265652 
L 401.187969 127.232076 
L 416.626705 157.767163 
" style="fill:none;stroke:#1b9e77;stroke-linecap:square;stroke-opacity:0.5;stroke-width:1.5;"/>
   </g>
   <g id="line2d_100">
    <path clip-path="url(#p51cfb5034e)" d="M 61.535795 157.970885 
L 76.974531 88.475529 
L 92.413266 110.424781 
L 107.852001 148.238485 
L 123.290736 162.339141 
L 138.729471 163.72493 
L 154.168207 164.641611 
L 169.606942 164.812613 
L 185.045677 165.346475 
L 200.484412 165.552051 
L 215.923147 165.670606 
L 231.361882 165.545307 
L 246.800618 165.540381 
L 262.239353 165.784777 
L 277.678088 165.768239 
L 293.116823 165.856975 
L 308.555558 164.620485 
L 323.994293 161.414664 
L 339.433029 152.118782 
L 354.871764 151.457619 
L 370.310499 136.781646 
L 385.749234 141.313649 
L 401.187969 148.738315 
L 416.626705 162.021168 
" style="fill:none;stroke:#1b9e77;stroke-linecap:square;stroke-opacity:0.5;stroke-width:1.5;"/>
   </g>
   <g id="line2d_101">
    <path clip-path="url(#p51cfb5034e)" d="M 61.535795 165.845138 
L 76.974531 165.761673 
L 92.413266 165.775732 
L 107.852001 163.277894 
L 123.290736 142.673664 
L 138.729471 154.4795 
L 154.168207 152.56412 
L 169.606942 141.771523 
L 185.045677 139.540663 
L 200.484412 152.736155 
L 215.923147 77.022658 
L 231.361882 112.384749 
L 246.800618 153.998055 
L 262.239353 158.861802 
L 277.678088 164.729684 
L 293.116823 165.465262 
L 308.555558 165.809204 
L 323.994293 165.858335 
L 339.433029 165.900202 
L 354.871764 165.911914 
L 370.310499 165.928328 
L 385.749234 165.948211 
L 401.187969 165.954986 
L 416.626705 165.959651 
" style="fill:none;stroke:#1b9e77;stroke-linecap:square;stroke-opacity:0.5;stroke-width:1.5;"/>
   </g>
   <g id="line2d_102">
    <path clip-path="url(#p51cfb5034e)" d="M 61.535795 165.393163 
L 76.974531 165.4829 
L 92.413266 165.673325 
L 107.852001 165.475637 
L 123.290736 165.319956 
L 138.729471 165.470923 
L 154.168207 165.656039 
L 169.606942 165.841582 
L 185.045677 165.85942 
L 200.484412 165.649177 
L 215.923147 165.45749 
L 231.361882 165.030234 
L 246.800618 163.58444 
L 262.239353 164.901742 
L 277.678088 163.464902 
L 293.116823 162.651968 
L 308.555558 163.269668 
L 323.994293 160.033455 
L 339.433029 107.408091 
L 354.871764 92.288209 
L 370.310499 121.65769 
L 385.749234 113.676739 
L 401.187969 141.155649 
L 416.626705 163.756715 
" style="fill:none;stroke:#1b9e77;stroke-linecap:square;stroke-opacity:0.5;stroke-width:1.5;"/>
   </g>
   <g id="line2d_103">
    <path clip-path="url(#p51cfb5034e)" d="M 61.535795 159.907441 
L 76.974531 163.128679 
L 92.413266 165.223579 
L 107.852001 165.343426 
L 123.290736 165.323704 
L 138.729471 164.044299 
L 154.168207 162.963449 
L 169.606942 165.362832 
L 185.045677 165.470145 
L 200.484412 164.597858 
L 215.923147 130.805274 
L 231.361882 110.331616 
L 246.800618 140.794581 
L 262.239353 161.189678 
L 277.678088 160.674758 
L 293.116823 140.991008 
L 308.555558 145.484842 
L 323.994293 162.007198 
L 339.433029 157.028744 
L 354.871764 137.463621 
L 370.310499 128.366624 
L 385.749234 156.117987 
L 401.187969 165.694311 
L 416.626705 165.843447 
" style="fill:none;stroke:#1b9e77;stroke-linecap:square;stroke-opacity:0.5;stroke-width:1.5;"/>
   </g>
   <g id="line2d_104">
    <path clip-path="url(#p51cfb5034e)" d="M 61.535795 165.784896 
L 76.974531 165.244172 
L 92.413266 165.34139 
L 107.852001 165.519377 
L 123.290736 165.571704 
L 138.729471 165.840739 
L 154.168207 164.774085 
L 169.606942 126.519457 
L 185.045677 142.936151 
L 200.484412 149.347853 
L 215.923147 148.543823 
L 231.361882 152.218793 
L 246.800618 157.631854 
L 262.239353 155.997237 
L 277.678088 138.8802 
L 293.116823 128.853238 
L 308.555558 156.536399 
L 323.994293 149.403501 
L 339.433029 164.460622 
L 354.871764 165.231526 
L 370.310499 165.430818 
L 385.749234 165.333795 
L 401.187969 156.434462 
L 416.626705 122.323011 
" style="fill:none;stroke:#1b9e77;stroke-linecap:square;stroke-opacity:0.5;stroke-width:1.5;"/>
   </g>
   <g id="line2d_105">
    <path clip-path="url(#p51cfb5034e)" d="M 61.535795 164.426476 
L 76.974531 159.798879 
L 92.413266 160.980729 
L 107.852001 165.03571 
L 123.290736 164.233186 
L 138.729471 139.873178 
L 154.168207 121.339626 
L 169.606942 103.321557 
L 185.045677 130.52174 
L 200.484412 164.401807 
L 215.923147 159.2636 
L 231.361882 115.245044 
L 246.800618 133.321676 
L 262.239353 163.080614 
L 277.678088 165.927498 
L 293.116823 165.936809 
L 308.555558 165.948635 
L 323.994293 165.928684 
L 339.433029 165.859424 
L 354.871764 165.926282 
L 370.310499 165.939831 
L 385.749234 165.94281 
L 401.187969 165.947768 
L 416.626705 165.957547 
" style="fill:none;stroke:#1b9e77;stroke-linecap:square;stroke-opacity:0.5;stroke-width:1.5;"/>
   </g>
   <g id="line2d_106">
    <path clip-path="url(#p51cfb5034e)" d="M 61.535795 165.96 
L 76.974531 165.662305 
L 92.413266 165.664656 
L 107.852001 164.520782 
L 123.290736 153.106402 
L 138.729471 161.354364 
L 154.168207 161.455467 
L 169.606942 162.639364 
L 185.045677 159.378662 
L 200.484412 135.844085 
L 215.923147 124.935419 
L 231.361882 133.812286 
L 246.800618 159.299548 
L 262.239353 156.669958 
L 277.678088 165.485823 
L 293.116823 165.785812 
L 308.555558 165.668721 
L 323.994293 158.824457 
L 339.433029 153.515354 
L 354.871764 164.842406 
L 370.310499 162.750973 
L 385.749234 139.477539 
L 401.187969 115.210227 
L 416.626705 142.294494 
" style="fill:none;stroke:#1b9e77;stroke-linecap:square;stroke-opacity:0.5;stroke-width:1.5;"/>
   </g>
   <g id="line2d_107">
    <path clip-path="url(#p51cfb5034e)" d="M 61.535795 163.007453 
L 76.974531 158.216344 
L 92.413266 155.302256 
L 107.852001 158.036733 
L 123.290736 143.16825 
L 138.729471 119.280128 
L 154.168207 105.526735 
L 169.606942 123.186441 
L 185.045677 142.128246 
L 200.484412 164.25193 
L 215.923147 165.696265 
L 231.361882 164.582148 
L 246.800618 164.113374 
L 262.239353 165.800883 
L 277.678088 165.864335 
L 293.116823 165.931921 
L 308.555558 165.805644 
L 323.994293 162.472433 
L 339.433029 157.029556 
L 354.871764 162.47156 
L 370.310499 159.711911 
L 385.749234 156.028271 
L 401.187969 154.457698 
L 416.626705 162.088591 
" style="fill:none;stroke:#1b9e77;stroke-linecap:square;stroke-opacity:0.5;stroke-width:1.5;"/>
   </g>
   <g id="line2d_108">
    <path clip-path="url(#p51cfb5034e)" d="M 61.535795 158.691433 
L 76.974531 152.509786 
L 92.413266 150.640825 
L 107.852001 148.940233 
L 123.290736 127.310766 
L 138.729471 148.951435 
L 154.168207 158.335349 
L 169.606942 162.80413 
L 185.045677 142.932497 
L 200.484412 146.510427 
L 215.923147 140.773623 
L 231.361882 143.338155 
L 246.800618 158.205067 
L 262.239353 155.571719 
L 277.678088 165.565416 
L 293.116823 165.724724 
L 308.555558 165.723535 
L 323.994293 164.961639 
L 339.433029 163.364254 
L 354.871764 165.686237 
L 370.310499 165.606984 
L 385.749234 162.733354 
L 401.187969 147.024343 
L 416.626705 142.253176 
" style="fill:none;stroke:#1b9e77;stroke-linecap:square;stroke-opacity:0.5;stroke-width:1.5;"/>
   </g>
   <g id="line2d_109">
    <path clip-path="url(#p51cfb5034e)" d="M 61.535795 165.482514 
L 76.974531 162.834294 
L 92.413266 157.337235 
L 107.852001 146.216501 
L 123.290736 116.75452 
L 138.729471 116.45149 
L 154.168207 106.000908 
L 169.606942 122.094981 
L 185.045677 158.632178 
L 200.484412 163.132638 
L 215.923147 162.794191 
L 231.361882 154.039336 
L 246.800618 158.472446 
L 262.239353 165.488256 
L 277.678088 165.729101 
L 293.116823 165.022969 
L 308.555558 161.203061 
L 323.994293 165.155797 
L 339.433029 165.395894 
L 354.871764 165.272003 
L 370.310499 165.171193 
L 385.749234 165.175893 
L 401.187969 164.942397 
L 416.626705 165.359309 
" style="fill:none;stroke:#1b9e77;stroke-linecap:square;stroke-opacity:0.5;stroke-width:1.5;"/>
   </g>
   <g id="line2d_110">
    <path clip-path="url(#p51cfb5034e)" d="M 61.535795 124.417009 
L 76.974531 129.522702 
L 92.413266 128.629646 
L 107.852001 142.396892 
L 123.290736 151.898523 
L 138.729471 149.953466 
L 154.168207 147.107414 
L 169.606942 132.254063 
L 185.045677 146.507205 
L 200.484412 161.06124 
L 215.923147 163.614497 
L 231.361882 161.999844 
L 246.800618 165.095666 
L 262.239353 165.47316 
L 277.678088 165.801221 
L 293.116823 165.009246 
L 308.555558 165.236504 
L 323.994293 165.21696 
L 339.433029 165.935289 
L 354.871764 165.759641 
L 370.310499 163.715994 
L 385.749234 157.950696 
L 401.187969 158.005558 
L 416.626705 161.596672 
" style="fill:none;stroke:#1b9e77;stroke-linecap:square;stroke-opacity:0.5;stroke-width:1.5;"/>
   </g>
   <g id="line2d_111">
    <path clip-path="url(#p51cfb5034e)" d="M 61.535795 165.726134 
L 76.974531 164.987567 
L 92.413266 161.064187 
L 107.852001 156.536847 
L 123.290736 162.889532 
L 138.729471 165.382645 
L 154.168207 165.117889 
L 169.606942 157.026167 
L 185.045677 145.056965 
L 200.484412 154.919729 
L 215.923147 164.215117 
L 231.361882 165.624891 
L 246.800618 158.564273 
L 262.239353 141.298 
L 277.678088 108.656689 
L 293.116823 139.496256 
L 308.555558 120.072019 
L 323.994293 142.023394 
L 339.433029 161.975685 
L 354.871764 152.010119 
L 370.310499 153.663982 
L 385.749234 165.941131 
L 401.187969 165.951102 
L 416.626705 165.958792 
" style="fill:none;stroke:#1b9e77;stroke-linecap:square;stroke-opacity:0.5;stroke-width:1.5;"/>
   </g>
   <g id="line2d_112">
    <path clip-path="url(#p51cfb5034e)" d="M 61.535795 155.362267 
L 76.974531 113.86547 
L 92.413266 93.001991 
L 107.852001 126.957057 
L 123.290736 160.303792 
L 138.729471 164.593423 
L 154.168207 165.306771 
L 169.606942 165.01496 
L 185.045677 165.293401 
L 200.484412 165.56287 
L 215.923147 165.695557 
L 231.361882 165.768648 
L 246.800618 165.438158 
L 262.239353 160.770185 
L 277.678088 154.821613 
L 293.116823 154.389546 
L 308.555558 148.869628 
L 323.994293 154.75164 
L 339.433029 155.50663 
L 354.871764 159.368857 
L 370.310499 155.325732 
L 385.749234 159.565925 
L 401.187969 165.947473 
L 416.626705 162.677522 
" style="fill:none;stroke:#1b9e77;stroke-linecap:square;stroke-opacity:0.5;stroke-width:1.5;"/>
   </g>
   <g id="line2d_113">
    <path clip-path="url(#p51cfb5034e)" d="M 61.535795 152.467087 
L 76.974531 160.157069 
L 92.413266 164.892412 
L 107.852001 165.046216 
L 123.290736 165.468599 
L 138.729471 165.564449 
L 154.168207 165.678954 
L 169.606942 165.755907 
L 185.045677 165.789609 
L 200.484412 165.741653 
L 215.923147 165.228525 
L 231.361882 165.586688 
L 246.800618 165.731736 
L 262.239353 165.87443 
L 277.678088 163.693575 
L 293.116823 142.304114 
L 308.555558 126.506102 
L 323.994293 142.384487 
L 339.433029 134.983131 
L 354.871764 133.367626 
L 370.310499 141.262964 
L 385.749234 137.220288 
L 401.187969 126.479832 
L 416.626705 156.973647 
" style="fill:none;stroke:#1b9e77;stroke-linecap:square;stroke-opacity:0.5;stroke-width:1.5;"/>
   </g>
   <g id="line2d_114">
    <path clip-path="url(#p51cfb5034e)" d="M 61.535795 165.582146 
L 76.974531 165.723667 
L 92.413266 165.759882 
L 107.852001 165.18923 
L 123.290736 165.488582 
L 138.729471 165.869254 
L 154.168207 165.886166 
L 169.606942 165.083632 
L 185.045677 164.290198 
L 200.484412 163.035059 
L 215.923147 161.455597 
L 231.361882 163.193282 
L 246.800618 161.607656 
L 262.239353 159.067434 
L 277.678088 157.451351 
L 293.116823 154.246192 
L 308.555558 123.805395 
L 323.994293 83.950529 
L 339.433029 91.218085 
L 354.871764 147.502652 
L 370.310499 152.381958 
L 385.749234 164.641487 
L 401.187969 165.795182 
L 416.626705 165.93449 
" style="fill:none;stroke:#1b9e77;stroke-linecap:square;stroke-opacity:0.5;stroke-width:1.5;"/>
   </g>
   <g id="line2d_115">
    <path clip-path="url(#p51cfb5034e)" d="M 61.535795 165.208474 
L 76.974531 165.929409 
L 92.413266 165.947808 
L 107.852001 165.947808 
L 123.290736 165.935309 
L 138.729471 165.917641 
L 154.168207 165.863614 
L 169.606942 165.788599 
L 185.045677 165.798231 
L 200.484412 165.800462 
L 215.923147 165.784918 
L 231.361882 163.881966 
L 246.800618 105.967828 
L 262.239353 152.37677 
L 277.678088 150.871362 
L 293.116823 97.825886 
L 308.555558 129.59239 
L 323.994293 160.799985 
L 339.433029 165.846654 
L 354.871764 165.615542 
L 370.310499 161.889898 
L 385.749234 158.119365 
L 401.187969 151.252842 
L 416.626705 116.196345 
" style="fill:none;stroke:#d95f02;stroke-linecap:square;stroke-width:1.5;"/>
   </g>
   <g id="patch_3">
    <path d="M 43.78125 173.52 
L 43.78125 7.2 
" style="fill:none;stroke:#000000;stroke-linecap:square;stroke-linejoin:miter;stroke-width:0.8;"/>
   </g>
   <g id="patch_4">
    <path d="M 43.78125 173.52 
L 434.38125 173.52 
" style="fill:none;stroke:#000000;stroke-linecap:square;stroke-linejoin:miter;stroke-width:0.8;"/>
   </g>
   <g id="legend_1">
    <g id="patch_5">
     <path d="M 376.214063 29.878125 
L 427.38125 29.878125 
Q 429.38125 29.878125 429.38125 27.878125 
L 429.38125 14.2 
Q 429.38125 12.2 427.38125 12.2 
L 376.214063 12.2 
Q 374.214063 12.2 374.214063 14.2 
L 374.214063 27.878125 
Q 374.214063 29.878125 376.214063 29.878125 
z
" style="fill:#ffffff;opacity:0.8;stroke:#cccccc;stroke-linejoin:miter;"/>
    </g>
    <g id="line2d_116">
     <path d="M 378.214063 20.298438 
L 398.214063 20.298438 
" style="fill:none;stroke:#d95f02;stroke-linecap:square;stroke-width:1.5;"/>
    </g>
    <g id="line2d_117"/>
    <g id="text_17">
     <!-- real -->
     <defs>
      <path d="M 9.421875 75.984375 
L 18.40625 75.984375 
L 18.40625 0 
L 9.421875 0 
z
" id="DejaVuSans-108"/>
     </defs>
     <g transform="translate(406.214063 23.798438)scale(0.1 -0.1)">
      <use xlink:href="#DejaVuSans-114"/>
      <use x="41.082031" xlink:href="#DejaVuSans-101"/>
      <use x="102.605469" xlink:href="#DejaVuSans-97"/>
      <use x="163.884766" xlink:href="#DejaVuSans-108"/>
     </g>
    </g>
   </g>
  </g>
 </g>
 <defs>
  <clipPath id="p51cfb5034e">
   <rect height="166.32" width="390.6" x="43.78125" y="7.2"/>
  </clipPath>
 </defs>
</svg>
