<?xml version="1.0" encoding="utf-8" standalone="no"?>
<!DOCTYPE svg PUBLIC "-//W3C//DTD SVG 1.1//EN"
  "http://www.w3.org/Graphics/SVG/1.1/DTD/svg11.dtd">
<!-- Created with matplotlib (https://matplotlib.org/) -->
<svg height="211.07625pt" version="1.1" viewBox="0 0 436.087315 211.07625" width="436.087315pt" xmlns="http://www.w3.org/2000/svg" xmlns:xlink="http://www.w3.org/1999/xlink">
 <defs>
  <style type="text/css">
*{stroke-linecap:butt;stroke-linejoin:round;}
  </style>
 </defs>
 <g id="figure_1">
  <g id="patch_1">
   <path d="M 0 211.07625 
L 436.087315 211.07625 
L 436.087315 0 
L 0 0 
z
" style="fill:#ffffff;"/>
  </g>
  <g id="axes_1">
   <g id="patch_2">
    <path d="M 34.240625 173.52 
L 424.840625 173.52 
L 424.840625 7.2 
L 34.240625 7.2 
z
" style="fill:#ffffff;"/>
   </g>
   <g id="matplotlib.axis_1">
    <g id="xtick_1">
     <g id="line2d_1">
      <defs>
       <path d="M 0 0 
L 0 3.5 
" id="m03ceaa56bf" style="stroke:#000000;stroke-width:0.8;"/>
      </defs>
      <g>
       <use style="stroke:#000000;stroke-width:0.8;" x="36.556435" xlink:href="#m03ceaa56bf" y="173.52"/>
      </g>
     </g>
     <g id="text_1">
      <!-- 0 -->
      <defs>
       <path d="M 31.78125 66.40625 
Q 24.171875 66.40625 20.328125 58.90625 
Q 16.5 51.421875 16.5 36.375 
Q 16.5 21.390625 20.328125 13.890625 
Q 24.171875 6.390625 31.78125 6.390625 
Q 39.453125 6.390625 43.28125 13.890625 
Q 47.125 21.390625 47.125 36.375 
Q 47.125 51.421875 43.28125 58.90625 
Q 39.453125 66.40625 31.78125 66.40625 
z
M 31.78125 74.21875 
Q 44.046875 74.21875 50.515625 64.515625 
Q 56.984375 54.828125 56.984375 36.375 
Q 56.984375 17.96875 50.515625 8.265625 
Q 44.046875 -1.421875 31.78125 -1.421875 
Q 19.53125 -1.421875 13.0625 8.265625 
Q 6.59375 17.96875 6.59375 36.375 
Q 6.59375 54.828125 13.0625 64.515625 
Q 19.53125 74.21875 31.78125 74.21875 
z
" id="DejaVuSans-48"/>
      </defs>
      <g transform="translate(33.375185 188.118438)scale(0.1 -0.1)">
       <use xlink:href="#DejaVuSans-48"/>
      </g>
     </g>
    </g>
    <g id="xtick_2">
     <g id="line2d_2">
      <g>
       <use style="stroke:#000000;stroke-width:0.8;" x="113.750111" xlink:href="#m03ceaa56bf" y="173.52"/>
      </g>
     </g>
     <g id="text_2">
      <!-- 5 -->
      <defs>
       <path d="M 10.796875 72.90625 
L 49.515625 72.90625 
L 49.515625 64.59375 
L 19.828125 64.59375 
L 19.828125 46.734375 
Q 21.96875 47.46875 24.109375 47.828125 
Q 26.265625 48.1875 28.421875 48.1875 
Q 40.625 48.1875 47.75 41.5 
Q 54.890625 34.8125 54.890625 23.390625 
Q 54.890625 11.625 47.5625 5.09375 
Q 40.234375 -1.421875 26.90625 -1.421875 
Q 22.3125 -1.421875 17.546875 -0.640625 
Q 12.796875 0.140625 7.71875 1.703125 
L 7.71875 11.625 
Q 12.109375 9.234375 16.796875 8.0625 
Q 21.484375 6.890625 26.703125 6.890625 
Q 35.15625 6.890625 40.078125 11.328125 
Q 45.015625 15.765625 45.015625 23.390625 
Q 45.015625 31 40.078125 35.4375 
Q 35.15625 39.890625 26.703125 39.890625 
Q 22.75 39.890625 18.8125 39.015625 
Q 14.890625 38.140625 10.796875 36.28125 
z
" id="DejaVuSans-53"/>
      </defs>
      <g transform="translate(110.568861 188.118438)scale(0.1 -0.1)">
       <use xlink:href="#DejaVuSans-53"/>
      </g>
     </g>
    </g>
    <g id="xtick_3">
     <g id="line2d_3">
      <g>
       <use style="stroke:#000000;stroke-width:0.8;" x="190.943787" xlink:href="#m03ceaa56bf" y="173.52"/>
      </g>
     </g>
     <g id="text_3">
      <!-- 10 -->
      <defs>
       <path d="M 12.40625 8.296875 
L 28.515625 8.296875 
L 28.515625 63.921875 
L 10.984375 60.40625 
L 10.984375 69.390625 
L 28.421875 72.90625 
L 38.28125 72.90625 
L 38.28125 8.296875 
L 54.390625 8.296875 
L 54.390625 0 
L 12.40625 0 
z
" id="DejaVuSans-49"/>
      </defs>
      <g transform="translate(184.581287 188.118438)scale(0.1 -0.1)">
       <use xlink:href="#DejaVuSans-49"/>
       <use x="63.623047" xlink:href="#DejaVuSans-48"/>
      </g>
     </g>
    </g>
    <g id="xtick_4">
     <g id="line2d_4">
      <g>
       <use style="stroke:#000000;stroke-width:0.8;" x="268.137463" xlink:href="#m03ceaa56bf" y="173.52"/>
      </g>
     </g>
     <g id="text_4">
      <!-- 15 -->
      <g transform="translate(261.774963 188.118438)scale(0.1 -0.1)">
       <use xlink:href="#DejaVuSans-49"/>
       <use x="63.623047" xlink:href="#DejaVuSans-53"/>
      </g>
     </g>
    </g>
    <g id="xtick_5">
     <g id="line2d_5">
      <g>
       <use style="stroke:#000000;stroke-width:0.8;" x="345.331139" xlink:href="#m03ceaa56bf" y="173.52"/>
      </g>
     </g>
     <g id="text_5">
      <!-- 20 -->
      <defs>
       <path d="M 19.1875 8.296875 
L 53.609375 8.296875 
L 53.609375 0 
L 7.328125 0 
L 7.328125 8.296875 
Q 12.9375 14.109375 22.625 23.890625 
Q 32.328125 33.6875 34.8125 36.53125 
Q 39.546875 41.84375 41.421875 45.53125 
Q 43.3125 49.21875 43.3125 52.78125 
Q 43.3125 58.59375 39.234375 62.25 
Q 35.15625 65.921875 28.609375 65.921875 
Q 23.96875 65.921875 18.8125 64.3125 
Q 13.671875 62.703125 7.8125 59.421875 
L 7.8125 69.390625 
Q 13.765625 71.78125 18.9375 73 
Q 24.125 74.21875 28.421875 74.21875 
Q 39.75 74.21875 46.484375 68.546875 
Q 53.21875 62.890625 53.21875 53.421875 
Q 53.21875 48.921875 51.53125 44.890625 
Q 49.859375 40.875 45.40625 35.40625 
Q 44.1875 33.984375 37.640625 27.21875 
Q 31.109375 20.453125 19.1875 8.296875 
z
" id="DejaVuSans-50"/>
      </defs>
      <g transform="translate(338.968639 188.118438)scale(0.1 -0.1)">
       <use xlink:href="#DejaVuSans-50"/>
       <use x="63.623047" xlink:href="#DejaVuSans-48"/>
      </g>
     </g>
    </g>
    <g id="xtick_6">
     <g id="line2d_6">
      <g>
       <use style="stroke:#000000;stroke-width:0.8;" x="422.524815" xlink:href="#m03ceaa56bf" y="173.52"/>
      </g>
     </g>
     <g id="text_6">
      <!-- 25 -->
      <g transform="translate(416.162315 188.118438)scale(0.1 -0.1)">
       <use xlink:href="#DejaVuSans-50"/>
       <use x="63.623047" xlink:href="#DejaVuSans-53"/>
      </g>
     </g>
    </g>
    <g id="text_7">
     <!-- hour -->
     <defs>
      <path d="M 54.890625 33.015625 
L 54.890625 0 
L 45.90625 0 
L 45.90625 32.71875 
Q 45.90625 40.484375 42.875 44.328125 
Q 39.84375 48.1875 33.796875 48.1875 
Q 26.515625 48.1875 22.3125 43.546875 
Q 18.109375 38.921875 18.109375 30.90625 
L 18.109375 0 
L 9.078125 0 
L 9.078125 75.984375 
L 18.109375 75.984375 
L 18.109375 46.1875 
Q 21.34375 51.125 25.703125 53.5625 
Q 30.078125 56 35.796875 56 
Q 45.21875 56 50.046875 50.171875 
Q 54.890625 44.34375 54.890625 33.015625 
z
" id="DejaVuSans-104"/>
      <path d="M 30.609375 48.390625 
Q 23.390625 48.390625 19.1875 42.75 
Q 14.984375 37.109375 14.984375 27.296875 
Q 14.984375 17.484375 19.15625 11.84375 
Q 23.34375 6.203125 30.609375 6.203125 
Q 37.796875 6.203125 41.984375 11.859375 
Q 46.1875 17.53125 46.1875 27.296875 
Q 46.1875 37.015625 41.984375 42.703125 
Q 37.796875 48.390625 30.609375 48.390625 
z
M 30.609375 56 
Q 42.328125 56 49.015625 48.375 
Q 55.71875 40.765625 55.71875 27.296875 
Q 55.71875 13.875 49.015625 6.21875 
Q 42.328125 -1.421875 30.609375 -1.421875 
Q 18.84375 -1.421875 12.171875 6.21875 
Q 5.515625 13.875 5.515625 27.296875 
Q 5.515625 40.765625 12.171875 48.375 
Q 18.84375 56 30.609375 56 
z
" id="DejaVuSans-111"/>
      <path d="M 8.5 21.578125 
L 8.5 54.6875 
L 17.484375 54.6875 
L 17.484375 21.921875 
Q 17.484375 14.15625 20.5 10.265625 
Q 23.53125 6.390625 29.59375 6.390625 
Q 36.859375 6.390625 41.078125 11.03125 
Q 45.3125 15.671875 45.3125 23.6875 
L 45.3125 54.6875 
L 54.296875 54.6875 
L 54.296875 0 
L 45.3125 0 
L 45.3125 8.40625 
Q 42.046875 3.421875 37.71875 1 
Q 33.40625 -1.421875 27.6875 -1.421875 
Q 18.265625 -1.421875 13.375 4.4375 
Q 8.5 10.296875 8.5 21.578125 
z
M 31.109375 56 
z
" id="DejaVuSans-117"/>
      <path d="M 41.109375 46.296875 
Q 39.59375 47.171875 37.8125 47.578125 
Q 36.03125 48 33.890625 48 
Q 26.265625 48 22.1875 43.046875 
Q 18.109375 38.09375 18.109375 28.8125 
L 18.109375 0 
L 9.078125 0 
L 9.078125 54.6875 
L 18.109375 54.6875 
L 18.109375 46.1875 
Q 20.953125 51.171875 25.484375 53.578125 
Q 30.03125 56 36.53125 56 
Q 37.453125 56 38.578125 55.875 
Q 39.703125 55.765625 41.0625 55.515625 
z
" id="DejaVuSans-114"/>
     </defs>
     <g transform="translate(218.088281 201.796563)scale(0.1 -0.1)">
      <use xlink:href="#DejaVuSans-104"/>
      <use x="63.378906" xlink:href="#DejaVuSans-111"/>
      <use x="124.560547" xlink:href="#DejaVuSans-117"/>
      <use x="187.939453" xlink:href="#DejaVuSans-114"/>
     </g>
    </g>
   </g>
   <g id="matplotlib.axis_2">
    <g id="ytick_1">
     <g id="line2d_7">
      <defs>
       <path d="M 0 0 
L -3.5 0 
" id="m23350afb6e" style="stroke:#000000;stroke-width:0.8;"/>
      </defs>
      <g>
       <use style="stroke:#000000;stroke-width:0.8;" x="34.240625" xlink:href="#m23350afb6e" y="165.96532"/>
      </g>
     </g>
     <g id="text_8">
      <!-- 0 -->
      <g transform="translate(20.878125 169.764539)scale(0.1 -0.1)">
       <use xlink:href="#DejaVuSans-48"/>
      </g>
     </g>
    </g>
    <g id="ytick_2">
     <g id="line2d_8">
      <g>
       <use style="stroke:#000000;stroke-width:0.8;" x="34.240625" xlink:href="#m23350afb6e" y="129.577069"/>
      </g>
     </g>
     <g id="text_9">
      <!-- 2 -->
      <g transform="translate(20.878125 133.376288)scale(0.1 -0.1)">
       <use xlink:href="#DejaVuSans-50"/>
      </g>
     </g>
    </g>
    <g id="ytick_3">
     <g id="line2d_9">
      <g>
       <use style="stroke:#000000;stroke-width:0.8;" x="34.240625" xlink:href="#m23350afb6e" y="93.188818"/>
      </g>
     </g>
     <g id="text_10">
      <!-- 4 -->
      <defs>
       <path d="M 37.796875 64.3125 
L 12.890625 25.390625 
L 37.796875 25.390625 
z
M 35.203125 72.90625 
L 47.609375 72.90625 
L 47.609375 25.390625 
L 58.015625 25.390625 
L 58.015625 17.1875 
L 47.609375 17.1875 
L 47.609375 0 
L 37.796875 0 
L 37.796875 17.1875 
L 4.890625 17.1875 
L 4.890625 26.703125 
z
" id="DejaVuSans-52"/>
      </defs>
      <g transform="translate(20.878125 96.988036)scale(0.1 -0.1)">
       <use xlink:href="#DejaVuSans-52"/>
      </g>
     </g>
    </g>
    <g id="ytick_4">
     <g id="line2d_10">
      <g>
       <use style="stroke:#000000;stroke-width:0.8;" x="34.240625" xlink:href="#m23350afb6e" y="56.800566"/>
      </g>
     </g>
     <g id="text_11">
      <!-- 6 -->
      <defs>
       <path d="M 33.015625 40.375 
Q 26.375 40.375 22.484375 35.828125 
Q 18.609375 31.296875 18.609375 23.390625 
Q 18.609375 15.53125 22.484375 10.953125 
Q 26.375 6.390625 33.015625 6.390625 
Q 39.65625 6.390625 43.53125 10.953125 
Q 47.40625 15.53125 47.40625 23.390625 
Q 47.40625 31.296875 43.53125 35.828125 
Q 39.65625 40.375 33.015625 40.375 
z
M 52.59375 71.296875 
L 52.59375 62.3125 
Q 48.875 64.0625 45.09375 64.984375 
Q 41.3125 65.921875 37.59375 65.921875 
Q 27.828125 65.921875 22.671875 59.328125 
Q 17.53125 52.734375 16.796875 39.40625 
Q 19.671875 43.65625 24.015625 45.921875 
Q 28.375 48.1875 33.59375 48.1875 
Q 44.578125 48.1875 50.953125 41.515625 
Q 57.328125 34.859375 57.328125 23.390625 
Q 57.328125 12.15625 50.6875 5.359375 
Q 44.046875 -1.421875 33.015625 -1.421875 
Q 20.359375 -1.421875 13.671875 8.265625 
Q 6.984375 17.96875 6.984375 36.375 
Q 6.984375 53.65625 15.1875 63.9375 
Q 23.390625 74.21875 37.203125 74.21875 
Q 40.921875 74.21875 44.703125 73.484375 
Q 48.484375 72.75 52.59375 71.296875 
z
" id="DejaVuSans-54"/>
      </defs>
      <g transform="translate(20.878125 60.599785)scale(0.1 -0.1)">
       <use xlink:href="#DejaVuSans-54"/>
      </g>
     </g>
    </g>
    <g id="ytick_5">
     <g id="line2d_11">
      <g>
       <use style="stroke:#000000;stroke-width:0.8;" x="34.240625" xlink:href="#m23350afb6e" y="20.412315"/>
      </g>
     </g>
     <g id="text_12">
      <!-- 8 -->
      <defs>
       <path d="M 31.78125 34.625 
Q 24.75 34.625 20.71875 30.859375 
Q 16.703125 27.09375 16.703125 20.515625 
Q 16.703125 13.921875 20.71875 10.15625 
Q 24.75 6.390625 31.78125 6.390625 
Q 38.8125 6.390625 42.859375 10.171875 
Q 46.921875 13.96875 46.921875 20.515625 
Q 46.921875 27.09375 42.890625 30.859375 
Q 38.875 34.625 31.78125 34.625 
z
M 21.921875 38.8125 
Q 15.578125 40.375 12.03125 44.71875 
Q 8.5 49.078125 8.5 55.328125 
Q 8.5 64.0625 14.71875 69.140625 
Q 20.953125 74.21875 31.78125 74.21875 
Q 42.671875 74.21875 48.875 69.140625 
Q 55.078125 64.0625 55.078125 55.328125 
Q 55.078125 49.078125 51.53125 44.71875 
Q 48 40.375 41.703125 38.8125 
Q 48.828125 37.15625 52.796875 32.3125 
Q 56.78125 27.484375 56.78125 20.515625 
Q 56.78125 9.90625 50.3125 4.234375 
Q 43.84375 -1.421875 31.78125 -1.421875 
Q 19.734375 -1.421875 13.25 4.234375 
Q 6.78125 9.90625 6.78125 20.515625 
Q 6.78125 27.484375 10.78125 32.3125 
Q 14.796875 37.15625 21.921875 38.8125 
z
M 18.3125 54.390625 
Q 18.3125 48.734375 21.84375 45.5625 
Q 25.390625 42.390625 31.78125 42.390625 
Q 38.140625 42.390625 41.71875 45.5625 
Q 45.3125 48.734375 45.3125 54.390625 
Q 45.3125 60.0625 41.71875 63.234375 
Q 38.140625 66.40625 31.78125 66.40625 
Q 25.390625 66.40625 21.84375 63.234375 
Q 18.3125 60.0625 18.3125 54.390625 
z
" id="DejaVuSans-56"/>
      </defs>
      <g transform="translate(20.878125 24.211534)scale(0.1 -0.1)">
       <use xlink:href="#DejaVuSans-56"/>
      </g>
     </g>
    </g>
    <g id="text_13">
     <!-- precipitation [mm/hour] -->
     <defs>
      <path d="M 18.109375 8.203125 
L 18.109375 -20.796875 
L 9.078125 -20.796875 
L 9.078125 54.6875 
L 18.109375 54.6875 
L 18.109375 46.390625 
Q 20.953125 51.265625 25.265625 53.625 
Q 29.59375 56 35.59375 56 
Q 45.5625 56 51.78125 48.09375 
Q 58.015625 40.1875 58.015625 27.296875 
Q 58.015625 14.40625 51.78125 6.484375 
Q 45.5625 -1.421875 35.59375 -1.421875 
Q 29.59375 -1.421875 25.265625 0.953125 
Q 20.953125 3.328125 18.109375 8.203125 
z
M 48.6875 27.296875 
Q 48.6875 37.203125 44.609375 42.84375 
Q 40.53125 48.484375 33.40625 48.484375 
Q 26.265625 48.484375 22.1875 42.84375 
Q 18.109375 37.203125 18.109375 27.296875 
Q 18.109375 17.390625 22.1875 11.75 
Q 26.265625 6.109375 33.40625 6.109375 
Q 40.53125 6.109375 44.609375 11.75 
Q 48.6875 17.390625 48.6875 27.296875 
z
" id="DejaVuSans-112"/>
      <path d="M 56.203125 29.59375 
L 56.203125 25.203125 
L 14.890625 25.203125 
Q 15.484375 15.921875 20.484375 11.0625 
Q 25.484375 6.203125 34.421875 6.203125 
Q 39.59375 6.203125 44.453125 7.46875 
Q 49.3125 8.734375 54.109375 11.28125 
L 54.109375 2.78125 
Q 49.265625 0.734375 44.1875 -0.34375 
Q 39.109375 -1.421875 33.890625 -1.421875 
Q 20.796875 -1.421875 13.15625 6.1875 
Q 5.515625 13.8125 5.515625 26.8125 
Q 5.515625 40.234375 12.765625 48.109375 
Q 20.015625 56 32.328125 56 
Q 43.359375 56 49.78125 48.890625 
Q 56.203125 41.796875 56.203125 29.59375 
z
M 47.21875 32.234375 
Q 47.125 39.59375 43.09375 43.984375 
Q 39.0625 48.390625 32.421875 48.390625 
Q 24.90625 48.390625 20.390625 44.140625 
Q 15.875 39.890625 15.1875 32.171875 
z
" id="DejaVuSans-101"/>
      <path d="M 48.78125 52.59375 
L 48.78125 44.1875 
Q 44.96875 46.296875 41.140625 47.34375 
Q 37.3125 48.390625 33.40625 48.390625 
Q 24.65625 48.390625 19.8125 42.84375 
Q 14.984375 37.3125 14.984375 27.296875 
Q 14.984375 17.28125 19.8125 11.734375 
Q 24.65625 6.203125 33.40625 6.203125 
Q 37.3125 6.203125 41.140625 7.25 
Q 44.96875 8.296875 48.78125 10.40625 
L 48.78125 2.09375 
Q 45.015625 0.34375 40.984375 -0.53125 
Q 36.96875 -1.421875 32.421875 -1.421875 
Q 20.0625 -1.421875 12.78125 6.34375 
Q 5.515625 14.109375 5.515625 27.296875 
Q 5.515625 40.671875 12.859375 48.328125 
Q 20.21875 56 33.015625 56 
Q 37.15625 56 41.109375 55.140625 
Q 45.0625 54.296875 48.78125 52.59375 
z
" id="DejaVuSans-99"/>
      <path d="M 9.421875 54.6875 
L 18.40625 54.6875 
L 18.40625 0 
L 9.421875 0 
z
M 9.421875 75.984375 
L 18.40625 75.984375 
L 18.40625 64.59375 
L 9.421875 64.59375 
z
" id="DejaVuSans-105"/>
      <path d="M 18.3125 70.21875 
L 18.3125 54.6875 
L 36.8125 54.6875 
L 36.8125 47.703125 
L 18.3125 47.703125 
L 18.3125 18.015625 
Q 18.3125 11.328125 20.140625 9.421875 
Q 21.96875 7.515625 27.59375 7.515625 
L 36.8125 7.515625 
L 36.8125 0 
L 27.59375 0 
Q 17.1875 0 13.234375 3.875 
Q 9.28125 7.765625 9.28125 18.015625 
L 9.28125 47.703125 
L 2.6875 47.703125 
L 2.6875 54.6875 
L 9.28125 54.6875 
L 9.28125 70.21875 
z
" id="DejaVuSans-116"/>
      <path d="M 34.28125 27.484375 
Q 23.390625 27.484375 19.1875 25 
Q 14.984375 22.515625 14.984375 16.5 
Q 14.984375 11.71875 18.140625 8.90625 
Q 21.296875 6.109375 26.703125 6.109375 
Q 34.1875 6.109375 38.703125 11.40625 
Q 43.21875 16.703125 43.21875 25.484375 
L 43.21875 27.484375 
z
M 52.203125 31.203125 
L 52.203125 0 
L 43.21875 0 
L 43.21875 8.296875 
Q 40.140625 3.328125 35.546875 0.953125 
Q 30.953125 -1.421875 24.3125 -1.421875 
Q 15.921875 -1.421875 10.953125 3.296875 
Q 6 8.015625 6 15.921875 
Q 6 25.140625 12.171875 29.828125 
Q 18.359375 34.515625 30.609375 34.515625 
L 43.21875 34.515625 
L 43.21875 35.40625 
Q 43.21875 41.609375 39.140625 45 
Q 35.0625 48.390625 27.6875 48.390625 
Q 23 48.390625 18.546875 47.265625 
Q 14.109375 46.140625 10.015625 43.890625 
L 10.015625 52.203125 
Q 14.9375 54.109375 19.578125 55.046875 
Q 24.21875 56 28.609375 56 
Q 40.484375 56 46.34375 49.84375 
Q 52.203125 43.703125 52.203125 31.203125 
z
" id="DejaVuSans-97"/>
      <path d="M 54.890625 33.015625 
L 54.890625 0 
L 45.90625 0 
L 45.90625 32.71875 
Q 45.90625 40.484375 42.875 44.328125 
Q 39.84375 48.1875 33.796875 48.1875 
Q 26.515625 48.1875 22.3125 43.546875 
Q 18.109375 38.921875 18.109375 30.90625 
L 18.109375 0 
L 9.078125 0 
L 9.078125 54.6875 
L 18.109375 54.6875 
L 18.109375 46.1875 
Q 21.34375 51.125 25.703125 53.5625 
Q 30.078125 56 35.796875 56 
Q 45.21875 56 50.046875 50.171875 
Q 54.890625 44.34375 54.890625 33.015625 
z
" id="DejaVuSans-110"/>
      <path id="DejaVuSans-32"/>
      <path d="M 8.59375 75.984375 
L 29.296875 75.984375 
L 29.296875 69 
L 17.578125 69 
L 17.578125 -6.203125 
L 29.296875 -6.203125 
L 29.296875 -13.1875 
L 8.59375 -13.1875 
z
" id="DejaVuSans-91"/>
      <path d="M 52 44.1875 
Q 55.375 50.25 60.0625 53.125 
Q 64.75 56 71.09375 56 
Q 79.640625 56 84.28125 50.015625 
Q 88.921875 44.046875 88.921875 33.015625 
L 88.921875 0 
L 79.890625 0 
L 79.890625 32.71875 
Q 79.890625 40.578125 77.09375 44.375 
Q 74.3125 48.1875 68.609375 48.1875 
Q 61.625 48.1875 57.5625 43.546875 
Q 53.515625 38.921875 53.515625 30.90625 
L 53.515625 0 
L 44.484375 0 
L 44.484375 32.71875 
Q 44.484375 40.625 41.703125 44.40625 
Q 38.921875 48.1875 33.109375 48.1875 
Q 26.21875 48.1875 22.15625 43.53125 
Q 18.109375 38.875 18.109375 30.90625 
L 18.109375 0 
L 9.078125 0 
L 9.078125 54.6875 
L 18.109375 54.6875 
L 18.109375 46.1875 
Q 21.1875 51.21875 25.484375 53.609375 
Q 29.78125 56 35.6875 56 
Q 41.65625 56 45.828125 52.96875 
Q 50 49.953125 52 44.1875 
z
" id="DejaVuSans-109"/>
      <path d="M 25.390625 72.90625 
L 33.6875 72.90625 
L 8.296875 -9.28125 
L 0 -9.28125 
z
" id="DejaVuSans-47"/>
      <path d="M 30.421875 75.984375 
L 30.421875 -13.1875 
L 9.71875 -13.1875 
L 9.71875 -6.203125 
L 21.390625 -6.203125 
L 21.390625 69 
L 9.71875 69 
L 9.71875 75.984375 
z
" id="DejaVuSans-93"/>
     </defs>
     <g transform="translate(14.798438 150.335781)rotate(-90)scale(0.1 -0.1)">
      <use xlink:href="#DejaVuSans-112"/>
      <use x="63.476562" xlink:href="#DejaVuSans-114"/>
      <use x="104.558594" xlink:href="#DejaVuSans-101"/>
      <use x="166.082031" xlink:href="#DejaVuSans-99"/>
      <use x="221.0625" xlink:href="#DejaVuSans-105"/>
      <use x="248.845703" xlink:href="#DejaVuSans-112"/>
      <use x="312.322266" xlink:href="#DejaVuSans-105"/>
      <use x="340.105469" xlink:href="#DejaVuSans-116"/>
      <use x="379.314453" xlink:href="#DejaVuSans-97"/>
      <use x="440.59375" xlink:href="#DejaVuSans-116"/>
      <use x="479.802734" xlink:href="#DejaVuSans-105"/>
      <use x="507.585938" xlink:href="#DejaVuSans-111"/>
      <use x="568.767578" xlink:href="#DejaVuSans-110"/>
      <use x="632.146484" xlink:href="#DejaVuSans-32"/>
      <use x="663.933594" xlink:href="#DejaVuSans-91"/>
      <use x="702.947266" xlink:href="#DejaVuSans-109"/>
      <use x="800.359375" xlink:href="#DejaVuSans-109"/>
      <use x="897.771484" xlink:href="#DejaVuSans-47"/>
      <use x="931.462891" xlink:href="#DejaVuSans-104"/>
      <use x="994.841797" xlink:href="#DejaVuSans-111"/>
      <use x="1056.023438" xlink:href="#DejaVuSans-117"/>
      <use x="1119.402344" xlink:href="#DejaVuSans-114"/>
      <use x="1160.515625" xlink:href="#DejaVuSans-93"/>
     </g>
    </g>
   </g>
   <g id="line2d_12">
    <path clip-path="url(#pb3c5cda5be)" d="M 51.99517 99.866562 
L 67.433906 162.765448 
L 82.872641 164.492154 
L 98.311376 165.089577 
L 113.750111 165.091459 
L 129.188846 159.023243 
L 144.627582 164.926832 
L 160.066317 165.508731 
L 175.505052 164.78339 
L 190.943787 165.345512 
L 206.382522 165.465718 
L 221.821257 165.168884 
L 237.259993 165.134415 
L 252.698728 165.394925 
L 268.137463 164.180175 
L 283.576198 119.638157 
L 299.014933 94.890483 
L 314.453668 156.457075 
L 329.892404 164.989074 
L 345.331139 164.996675 
L 360.769874 164.922991 
L 376.208609 163.458972 
L 391.647344 163.579782 
L 407.08608 162.815256 
" style="fill:none;stroke:#1b9e77;stroke-linecap:square;stroke-opacity:0.5;stroke-width:1.5;"/>
   </g>
   <g id="line2d_13">
    <path clip-path="url(#pb3c5cda5be)" d="M 51.99517 165.939753 
L 67.433906 165.894837 
L 82.872641 165.843111 
L 98.311376 165.739643 
L 113.750111 165.71306 
L 129.188846 165.653961 
L 144.627582 165.898092 
L 160.066317 165.929211 
L 175.505052 165.880359 
L 190.943787 165.887766 
L 206.382522 165.87079 
L 221.821257 165.826334 
L 237.259993 165.632311 
L 252.698728 165.427449 
L 268.137463 155.658802 
L 283.576198 138.668636 
L 299.014933 140.329269 
L 314.453668 127.812909 
L 329.892404 116.003738 
L 345.331139 106.979082 
L 360.769874 158.141509 
L 376.208609 163.653744 
L 391.647344 163.955771 
L 407.08608 165.64536 
" style="fill:none;stroke:#1b9e77;stroke-linecap:square;stroke-opacity:0.5;stroke-width:1.5;"/>
   </g>
   <g id="line2d_14">
    <path clip-path="url(#pb3c5cda5be)" d="M 51.99517 165.921651 
L 67.433906 165.877013 
L 82.872641 165.878112 
L 98.311376 165.902647 
L 113.750111 165.903338 
L 129.188846 165.903241 
L 144.627582 165.888843 
L 160.066317 165.893893 
L 175.505052 165.765935 
L 190.943787 162.501347 
L 206.382522 151.732008 
L 221.821257 130.806725 
L 237.259993 140.196254 
L 252.698728 139.979719 
L 268.137463 142.613154 
L 283.576198 154.677627 
L 299.014933 163.118795 
L 314.453668 160.463469 
L 329.892404 152.236538 
L 345.331139 158.188794 
L 360.769874 141.805893 
L 376.208609 144.873181 
L 391.647344 157.633547 
L 407.08608 164.223772 
" style="fill:none;stroke:#1b9e77;stroke-linecap:square;stroke-opacity:0.5;stroke-width:1.5;"/>
   </g>
   <g id="line2d_15">
    <path clip-path="url(#pb3c5cda5be)" d="M 51.99517 165.908523 
L 67.433906 165.849869 
L 82.872641 165.846622 
L 98.311376 165.893106 
L 113.750111 165.881543 
L 129.188846 165.844713 
L 144.627582 159.695091 
L 160.066317 132.686369 
L 175.505052 137.410417 
L 190.943787 129.620239 
L 206.382522 146.760012 
L 221.821257 148.361822 
L 237.259993 90.098799 
L 252.698728 161.751486 
L 268.137463 165.098226 
L 283.576198 165.349948 
L 299.014933 165.29464 
L 314.453668 165.487842 
L 329.892404 165.702594 
L 345.331139 165.824306 
L 360.769874 165.879654 
L 376.208609 165.931058 
L 391.647344 165.942754 
L 407.08608 165.865864 
" style="fill:none;stroke:#1b9e77;stroke-linecap:square;stroke-opacity:0.5;stroke-width:1.5;"/>
   </g>
   <g id="line2d_16">
    <path clip-path="url(#pb3c5cda5be)" d="M 51.99517 165.9355 
L 67.433906 165.899025 
L 82.872641 165.905999 
L 98.311376 165.928034 
L 113.750111 165.919212 
L 129.188846 165.924331 
L 144.627582 165.769053 
L 160.066317 164.264572 
L 175.505052 161.368673 
L 190.943787 159.544356 
L 206.382522 151.864559 
L 221.821257 151.287572 
L 237.259993 153.798987 
L 252.698728 146.367106 
L 268.137463 146.139438 
L 283.576198 155.446236 
L 299.014933 148.241201 
L 314.453668 126.841259 
L 329.892404 120.169952 
L 345.331139 157.457294 
L 360.769874 163.295278 
L 376.208609 163.515786 
L 391.647344 165.147051 
L 407.08608 161.955024 
" style="fill:none;stroke:#1b9e77;stroke-linecap:square;stroke-opacity:0.5;stroke-width:1.5;"/>
   </g>
   <g id="line2d_17">
    <path clip-path="url(#pb3c5cda5be)" d="M 51.99517 162.177505 
L 67.433906 155.085204 
L 82.872641 144.32813 
L 98.311376 148.437589 
L 113.750111 131.676134 
L 129.188846 144.702444 
L 144.627582 152.59991 
L 160.066317 149.929897 
L 175.505052 155.973847 
L 190.943787 153.682027 
L 206.382522 149.782983 
L 221.821257 157.640684 
L 237.259993 151.571869 
L 252.698728 143.607909 
L 268.137463 163.956934 
L 283.576198 165.830507 
L 299.014933 165.665639 
L 314.453668 165.781724 
L 329.892404 165.886171 
L 345.331139 165.919778 
L 360.769874 165.928139 
L 376.208609 165.941692 
L 391.647344 165.946391 
L 407.08608 165.932382 
" style="fill:none;stroke:#1b9e77;stroke-linecap:square;stroke-opacity:0.5;stroke-width:1.5;"/>
   </g>
   <g id="line2d_18">
    <path clip-path="url(#pb3c5cda5be)" d="M 51.99517 165.941758 
L 67.433906 165.930322 
L 82.872641 165.935324 
L 98.311376 165.943954 
L 113.750111 165.919479 
L 129.188846 165.179484 
L 144.627582 147.099735 
L 160.066317 142.325283 
L 175.505052 137.646824 
L 190.943787 124.636533 
L 206.382522 145.661334 
L 221.821257 152.418207 
L 237.259993 117.263696 
L 252.698728 163.305775 
L 268.137463 164.675699 
L 283.576198 160.125632 
L 299.014933 159.831611 
L 314.453668 163.854095 
L 329.892404 165.51195 
L 345.331139 165.685619 
L 360.769874 165.666151 
L 376.208609 161.390523 
L 391.647344 161.375375 
L 407.08608 164.661135 
" style="fill:none;stroke:#1b9e77;stroke-linecap:square;stroke-opacity:0.5;stroke-width:1.5;"/>
   </g>
   <g id="line2d_19">
    <path clip-path="url(#pb3c5cda5be)" d="M 51.99517 165.896371 
L 67.433906 165.82558 
L 82.872641 165.861335 
L 98.311376 165.895571 
L 113.750111 165.734894 
L 129.188846 165.347911 
L 144.627582 164.144901 
L 160.066317 162.998186 
L 175.505052 145.833968 
L 190.943787 130.632681 
L 206.382522 137.037714 
L 221.821257 98.70594 
L 237.259993 114.388808 
L 252.698728 162.499761 
L 268.137463 164.422597 
L 283.576198 157.418788 
L 299.014933 165.282262 
L 314.453668 165.827295 
L 329.892404 165.779252 
L 345.331139 165.881223 
L 360.769874 165.911345 
L 376.208609 165.890726 
L 391.647344 165.605884 
L 407.08608 165.162511 
" style="fill:none;stroke:#1b9e77;stroke-linecap:square;stroke-opacity:0.5;stroke-width:1.5;"/>
   </g>
   <g id="line2d_20">
    <path clip-path="url(#pb3c5cda5be)" d="M 51.99517 165.92306 
L 67.433906 165.86937 
L 82.872641 165.809622 
L 98.311376 165.416881 
L 113.750111 162.646146 
L 129.188846 152.073034 
L 144.627582 124.744193 
L 160.066317 141.943449 
L 175.505052 156.499196 
L 190.943787 149.413082 
L 206.382522 140.640534 
L 221.821257 141.753344 
L 237.259993 130.353122 
L 252.698728 137.587239 
L 268.137463 165.619983 
L 283.576198 165.513156 
L 299.014933 165.435574 
L 314.453668 165.69637 
L 329.892404 165.863684 
L 345.331139 165.888641 
L 360.769874 165.877105 
L 376.208609 165.916386 
L 391.647344 165.939345 
L 407.08608 165.562976 
" style="fill:none;stroke:#1b9e77;stroke-linecap:square;stroke-opacity:0.5;stroke-width:1.5;"/>
   </g>
   <g id="line2d_21">
    <path clip-path="url(#pb3c5cda5be)" d="M 51.99517 161.287266 
L 67.433906 157.466793 
L 82.872641 158.498212 
L 98.311376 153.422172 
L 113.750111 141.763905 
L 129.188846 151.056038 
L 144.627582 161.805649 
L 160.066317 151.472498 
L 175.505052 158.49341 
L 190.943787 163.393036 
L 206.382522 165.46749 
L 221.821257 165.381134 
L 237.259993 160.465855 
L 252.698728 153.433469 
L 268.137463 149.717569 
L 283.576198 162.657407 
L 299.014933 162.884043 
L 314.453668 142.919319 
L 329.892404 147.097262 
L 345.331139 140.664665 
L 360.769874 153.748126 
L 376.208609 165.419081 
L 391.647344 165.551416 
L 407.08608 163.919682 
" style="fill:none;stroke:#1b9e77;stroke-linecap:square;stroke-opacity:0.5;stroke-width:1.5;"/>
   </g>
   <g id="line2d_22">
    <path clip-path="url(#pb3c5cda5be)" d="M 51.99517 165.945282 
L 67.433906 165.890645 
L 82.872641 165.862277 
L 98.311376 165.872727 
L 113.750111 165.773764 
L 129.188846 165.366051 
L 144.627582 158.430341 
L 160.066317 148.59624 
L 175.505052 145.863448 
L 190.943787 146.582261 
L 206.382522 144.930388 
L 221.821257 145.743482 
L 237.259993 122.838018 
L 252.698728 115.762135 
L 268.137463 143.243432 
L 283.576198 165.35339 
L 299.014933 165.346124 
L 314.453668 165.473801 
L 329.892404 165.718201 
L 345.331139 165.80428 
L 360.769874 165.827597 
L 376.208609 165.893741 
L 391.647344 165.927004 
L 407.08608 165.940867 
" style="fill:none;stroke:#1b9e77;stroke-linecap:square;stroke-opacity:0.5;stroke-width:1.5;"/>
   </g>
   <g id="line2d_23">
    <path clip-path="url(#pb3c5cda5be)" d="M 51.99517 157.469992 
L 67.433906 159.27092 
L 82.872641 161.364016 
L 98.311376 155.150334 
L 113.750111 164.081234 
L 129.188846 163.047574 
L 144.627582 165.400036 
L 160.066317 165.870916 
L 175.505052 165.74962 
L 190.943787 165.812609 
L 206.382522 165.847703 
L 221.821257 165.816487 
L 237.259993 165.678026 
L 252.698728 165.358639 
L 268.137463 155.496379 
L 283.576198 131.433659 
L 299.014933 149.246365 
L 314.453668 147.334133 
L 329.892404 137.16956 
L 345.331139 127.359065 
L 360.769874 142.463697 
L 376.208609 153.174285 
L 391.647344 162.970163 
L 407.08608 165.42009 
" style="fill:none;stroke:#1b9e77;stroke-linecap:square;stroke-opacity:0.5;stroke-width:1.5;"/>
   </g>
   <g id="line2d_24">
    <path clip-path="url(#pb3c5cda5be)" d="M 51.99517 165.936302 
L 67.433906 165.902659 
L 82.872641 165.883492 
L 98.311376 165.876121 
L 113.750111 165.780423 
L 129.188846 165.27882 
L 144.627582 162.721964 
L 160.066317 158.66319 
L 175.505052 158.813652 
L 190.943787 155.507426 
L 206.382522 138.049043 
L 221.821257 137.336078 
L 237.259993 137.494887 
L 252.698728 155.874393 
L 268.137463 146.298683 
L 283.576198 132.829981 
L 299.014933 123.067857 
L 314.453668 162.769863 
L 329.892404 165.487019 
L 345.331139 165.123083 
L 360.769874 165.754856 
L 376.208609 165.822025 
L 391.647344 165.880705 
L 407.08608 165.832976 
" style="fill:none;stroke:#1b9e77;stroke-linecap:square;stroke-opacity:0.5;stroke-width:1.5;"/>
   </g>
   <g id="line2d_25">
    <path clip-path="url(#pb3c5cda5be)" d="M 51.99517 163.663946 
L 67.433906 162.211498 
L 82.872641 162.282689 
L 98.311376 164.531467 
L 113.750111 165.204743 
L 129.188846 165.776047 
L 144.627582 165.842335 
L 160.066317 165.711965 
L 175.505052 165.60427 
L 190.943787 165.671705 
L 206.382522 165.305011 
L 221.821257 164.527586 
L 237.259993 164.725371 
L 252.698728 164.981773 
L 268.137463 165.196278 
L 283.576198 165.283388 
L 299.014933 164.668696 
L 314.453668 155.418901 
L 329.892404 134.233321 
L 345.331139 138.926731 
L 360.769874 161.080738 
L 376.208609 161.978612 
L 391.647344 163.42677 
L 407.08608 41.731656 
" style="fill:none;stroke:#1b9e77;stroke-linecap:square;stroke-opacity:0.5;stroke-width:1.5;"/>
   </g>
   <g id="line2d_26">
    <path clip-path="url(#pb3c5cda5be)" d="M 51.99517 153.401948 
L 67.433906 150.377012 
L 82.872641 154.979685 
L 98.311376 162.380808 
L 113.750111 163.745862 
L 129.188846 165.141833 
L 144.627582 165.375542 
L 160.066317 165.422601 
L 175.505052 165.2957 
L 190.943787 165.305365 
L 206.382522 165.041215 
L 221.821257 164.67224 
L 237.259993 162.645969 
L 252.698728 154.012959 
L 268.137463 138.97217 
L 283.576198 102.02562 
L 299.014933 147.117062 
L 314.453668 156.710798 
L 329.892404 157.204125 
L 345.331139 158.289088 
L 360.769874 158.045367 
L 376.208609 160.675219 
L 391.647344 162.782555 
L 407.08608 158.364756 
" style="fill:none;stroke:#1b9e77;stroke-linecap:square;stroke-opacity:0.5;stroke-width:1.5;"/>
   </g>
   <g id="line2d_27">
    <path clip-path="url(#pb3c5cda5be)" d="M 51.99517 165.815841 
L 67.433906 165.568867 
L 82.872641 165.695502 
L 98.311376 165.845974 
L 113.750111 165.873935 
L 129.188846 165.905737 
L 144.627582 165.917429 
L 160.066317 165.92547 
L 175.505052 165.921196 
L 190.943787 165.927957 
L 206.382522 165.916476 
L 221.821257 165.851388 
L 237.259993 164.409765 
L 252.698728 155.951102 
L 268.137463 100.967908 
L 283.576198 120.845051 
L 299.014933 151.472067 
L 314.453668 153.240153 
L 329.892404 161.943306 
L 345.331139 161.443886 
L 360.769874 138.78708 
L 376.208609 149.692783 
L 391.647344 144.035496 
L 407.08608 165.03113 
" style="fill:none;stroke:#1b9e77;stroke-linecap:square;stroke-opacity:0.5;stroke-width:1.5;"/>
   </g>
   <g id="line2d_28">
    <path clip-path="url(#pb3c5cda5be)" d="M 51.99517 157.625023 
L 67.433906 150.899944 
L 82.872641 128.325778 
L 98.311376 117.596403 
L 113.750111 131.420077 
L 129.188846 140.342194 
L 144.627582 152.133488 
L 160.066317 154.492532 
L 175.505052 161.255788 
L 190.943787 162.873038 
L 206.382522 164.935413 
L 221.821257 165.512111 
L 237.259993 165.777967 
L 252.698728 165.79028 
L 268.137463 165.853941 
L 283.576198 165.825516 
L 299.014933 164.252987 
L 314.453668 157.483593 
L 329.892404 160.227543 
L 345.331139 165.34747 
L 360.769874 164.621395 
L 376.208609 165.221156 
L 391.647344 165.660378 
L 407.08608 164.511486 
" style="fill:none;stroke:#1b9e77;stroke-linecap:square;stroke-opacity:0.5;stroke-width:1.5;"/>
   </g>
   <g id="line2d_29">
    <path clip-path="url(#pb3c5cda5be)" d="M 51.99517 165.916869 
L 67.433906 165.852376 
L 82.872641 165.892679 
L 98.311376 165.93306 
L 113.750111 165.93989 
L 129.188846 165.947062 
L 144.627582 165.872902 
L 160.066317 165.132691 
L 175.505052 164.091597 
L 190.943787 164.480419 
L 206.382522 159.552358 
L 221.821257 155.535222 
L 237.259993 153.44124 
L 252.698728 151.423776 
L 268.137463 155.719497 
L 283.576198 152.982371 
L 299.014933 122.71753 
L 314.453668 135.075986 
L 329.892404 131.584105 
L 345.331139 139.753676 
L 360.769874 150.582158 
L 376.208609 164.252274 
L 391.647344 164.650184 
L 407.08608 165.65558 
" style="fill:none;stroke:#1b9e77;stroke-linecap:square;stroke-opacity:0.5;stroke-width:1.5;"/>
   </g>
   <g id="line2d_30">
    <path clip-path="url(#pb3c5cda5be)" d="M 51.99517 162.234346 
L 67.433906 162.634088 
L 82.872641 165.176538 
L 98.311376 164.543575 
L 113.750111 161.996814 
L 129.188846 151.490375 
L 144.627582 150.660732 
L 160.066317 142.756185 
L 175.505052 125.089835 
L 190.943787 127.745122 
L 206.382522 139.677933 
L 221.821257 147.014952 
L 237.259993 155.788878 
L 252.698728 158.554924 
L 268.137463 154.269463 
L 283.576198 163.592515 
L 299.014933 165.73344 
L 314.453668 165.880515 
L 329.892404 165.877664 
L 345.331139 165.813618 
L 360.769874 165.542566 
L 376.208609 165.628254 
L 391.647344 165.3734 
L 407.08608 164.909769 
" style="fill:none;stroke:#1b9e77;stroke-linecap:square;stroke-opacity:0.5;stroke-width:1.5;"/>
   </g>
   <g id="line2d_31">
    <path clip-path="url(#pb3c5cda5be)" d="M 51.99517 165.83002 
L 67.433906 165.941119 
L 82.872641 165.82137 
L 98.311376 165.370143 
L 113.750111 161.359968 
L 129.188846 46.851695 
L 144.627582 160.572533 
L 160.066317 161.867845 
L 175.505052 164.165227 
L 190.943787 164.768132 
L 206.382522 165.375025 
L 221.821257 165.626809 
L 237.259993 165.594556 
L 252.698728 165.880024 
L 268.137463 165.660161 
L 283.576198 165.368261 
L 299.014933 147.014165 
L 314.453668 146.42471 
L 329.892404 157.919606 
L 345.331139 158.188886 
L 360.769874 146.524688 
L 376.208609 159.224641 
L 391.647344 163.731797 
L 407.08608 162.904119 
" style="fill:none;stroke:#1b9e77;stroke-linecap:square;stroke-opacity:0.5;stroke-width:1.5;"/>
   </g>
   <g id="line2d_32">
    <path clip-path="url(#pb3c5cda5be)" d="M 51.99517 160.691894 
L 67.433906 153.703973 
L 82.872641 138.960577 
L 98.311376 149.512266 
L 113.750111 156.286874 
L 129.188846 162.761794 
L 144.627582 157.963785 
L 160.066317 143.536669 
L 175.505052 151.998406 
L 190.943787 158.288741 
L 206.382522 151.319707 
L 221.821257 147.568427 
L 237.259993 155.040451 
L 252.698728 150.870823 
L 268.137463 146.62325 
L 283.576198 157.207277 
L 299.014933 159.81159 
L 314.453668 161.251538 
L 329.892404 165.617307 
L 345.331139 165.802338 
L 360.769874 165.804355 
L 376.208609 165.900416 
L 391.647344 165.926521 
L 407.08608 165.536516 
" style="fill:none;stroke:#1b9e77;stroke-linecap:square;stroke-opacity:0.5;stroke-width:1.5;"/>
   </g>
   <g id="line2d_33">
    <path clip-path="url(#pb3c5cda5be)" d="M 51.99517 165.878736 
L 67.433906 165.812226 
L 82.872641 165.844705 
L 98.311376 165.680774 
L 113.750111 162.299033 
L 129.188846 150.081679 
L 144.627582 97.835037 
L 160.066317 101.509554 
L 175.505052 141.924755 
L 190.943787 152.997993 
L 206.382522 162.445489 
L 221.821257 164.251097 
L 237.259993 163.410875 
L 252.698728 160.727557 
L 268.137463 160.62199 
L 283.576198 156.448129 
L 299.014933 162.731756 
L 314.453668 163.58566 
L 329.892404 165.060447 
L 345.331139 165.510805 
L 360.769874 165.621559 
L 376.208609 165.861244 
L 391.647344 165.929697 
L 407.08608 165.914704 
" style="fill:none;stroke:#1b9e77;stroke-linecap:square;stroke-opacity:0.5;stroke-width:1.5;"/>
   </g>
   <g id="line2d_34">
    <path clip-path="url(#pb3c5cda5be)" d="M 51.99517 165.82228 
L 67.433906 165.656745 
L 82.872641 165.743877 
L 98.311376 165.876673 
L 113.750111 165.892051 
L 129.188846 165.90237 
L 144.627582 165.687022 
L 160.066317 162.405886 
L 175.505052 135.326503 
L 190.943787 119.024764 
L 206.382522 117.235084 
L 221.821257 102.627692 
L 237.259993 140.918809 
L 252.698728 161.986839 
L 268.137463 165.659713 
L 283.576198 165.76699 
L 299.014933 165.723041 
L 314.453668 165.762432 
L 329.892404 165.822161 
L 345.331139 165.870626 
L 360.769874 165.892005 
L 376.208609 165.935207 
L 391.647344 165.938909 
L 407.08608 165.507827 
" style="fill:none;stroke:#1b9e77;stroke-linecap:square;stroke-opacity:0.5;stroke-width:1.5;"/>
   </g>
   <g id="line2d_35">
    <path clip-path="url(#pb3c5cda5be)" d="M 51.99517 139.463066 
L 67.433906 152.901271 
L 82.872641 161.814085 
L 98.311376 162.873488 
L 113.750111 163.259905 
L 129.188846 86.042957 
L 144.627582 153.057659 
L 160.066317 165.404203 
L 175.505052 164.351242 
L 190.943787 164.58044 
L 206.382522 147.952165 
L 221.821257 162.701422 
L 237.259993 165.080021 
L 252.698728 165.130941 
L 268.137463 165.554004 
L 283.576198 154.985598 
L 299.014933 143.135013 
L 314.453668 165.77819 
L 329.892404 165.67762 
L 345.331139 165.763576 
L 360.769874 165.397354 
L 376.208609 162.051938 
L 391.647344 159.250523 
L 407.08608 155.778821 
" style="fill:none;stroke:#1b9e77;stroke-linecap:square;stroke-opacity:0.5;stroke-width:1.5;"/>
   </g>
   <g id="line2d_36">
    <path clip-path="url(#pb3c5cda5be)" d="M 51.99517 165.930658 
L 67.433906 165.886161 
L 82.872641 165.893659 
L 98.311376 165.118133 
L 113.750111 164.4595 
L 129.188846 164.155964 
L 144.627582 153.076215 
L 160.066317 152.535691 
L 175.505052 159.529073 
L 190.943787 161.058897 
L 206.382522 162.297463 
L 221.821257 154.343745 
L 237.259993 31.657361 
L 252.698728 162.889331 
L 268.137463 165.51277 
L 283.576198 165.501292 
L 299.014933 163.656685 
L 314.453668 160.733693 
L 329.892404 163.093891 
L 345.331139 158.064187 
L 360.769874 160.03136 
L 376.208609 162.671611 
L 391.647344 164.340843 
L 407.08608 165.547315 
" style="fill:none;stroke:#1b9e77;stroke-linecap:square;stroke-opacity:0.5;stroke-width:1.5;"/>
   </g>
   <g id="line2d_37">
    <path clip-path="url(#pb3c5cda5be)" d="M 51.99517 164.776598 
L 67.433906 165.648861 
L 82.872641 164.804077 
L 98.311376 165.146232 
L 113.750111 159.882376 
L 129.188846 162.240996 
L 144.627582 165.384298 
L 160.066317 165.511106 
L 175.505052 164.495205 
L 190.943787 163.843984 
L 206.382522 165.609618 
L 221.821257 165.778384 
L 237.259993 165.009562 
L 252.698728 156.904429 
L 268.137463 160.091036 
L 283.576198 150.289807 
L 299.014933 125.036801 
L 314.453668 108.063749 
L 329.892404 157.418829 
L 345.331139 162.21509 
L 360.769874 161.928624 
L 376.208609 157.903901 
L 391.647344 132.023446 
L 407.08608 147.978488 
" style="fill:none;stroke:#1b9e77;stroke-linecap:square;stroke-opacity:0.5;stroke-width:1.5;"/>
   </g>
   <g id="line2d_38">
    <path clip-path="url(#pb3c5cda5be)" d="M 51.99517 165.899797 
L 67.433906 165.884212 
L 82.872641 165.879971 
L 98.311376 165.849928 
L 113.750111 164.176591 
L 129.188846 152.360419 
L 144.627582 95.383675 
L 160.066317 90.823544 
L 175.505052 144.768982 
L 190.943787 161.375717 
L 206.382522 165.687991 
L 221.821257 165.565747 
L 237.259993 164.543658 
L 252.698728 162.048569 
L 268.137463 158.219802 
L 283.576198 159.59422 
L 299.014933 155.419116 
L 314.453668 162.162216 
L 329.892404 164.38603 
L 345.331139 165.201592 
L 360.769874 165.447288 
L 376.208609 165.776965 
L 391.647344 165.877364 
L 407.08608 165.652107 
" style="fill:none;stroke:#1b9e77;stroke-linecap:square;stroke-opacity:0.5;stroke-width:1.5;"/>
   </g>
   <g id="line2d_39">
    <path clip-path="url(#pb3c5cda5be)" d="M 51.99517 165.84555 
L 67.433906 165.742744 
L 82.872641 165.722108 
L 98.311376 164.552164 
L 113.750111 130.619503 
L 129.188846 108.945944 
L 144.627582 97.597428 
L 160.066317 138.932353 
L 175.505052 163.57968 
L 190.943787 164.771896 
L 206.382522 165.732377 
L 221.821257 165.843099 
L 237.259993 165.429102 
L 252.698728 157.218733 
L 268.137463 151.745634 
L 283.576198 164.93118 
L 299.014933 163.96428 
L 314.453668 164.006359 
L 329.892404 165.242421 
L 345.331139 165.723596 
L 360.769874 165.841193 
L 376.208609 165.916643 
L 391.647344 165.751217 
L 407.08608 164.330298 
" style="fill:none;stroke:#1b9e77;stroke-linecap:square;stroke-opacity:0.5;stroke-width:1.5;"/>
   </g>
   <g id="line2d_40">
    <path clip-path="url(#pb3c5cda5be)" d="M 51.99517 165.652077 
L 67.433906 165.335515 
L 82.872641 162.473469 
L 98.311376 158.200236 
L 113.750111 135.897139 
L 129.188846 142.023126 
L 144.627582 153.587008 
L 160.066317 137.774262 
L 175.505052 139.807662 
L 190.943787 160.86168 
L 206.382522 163.412488 
L 221.821257 154.228068 
L 237.259993 156.982019 
L 252.698728 160.40666 
L 268.137463 150.817294 
L 283.576198 144.329403 
L 299.014933 160.884569 
L 314.453668 162.162234 
L 329.892404 162.721928 
L 345.331139 165.340448 
L 360.769874 165.73522 
L 376.208609 165.224001 
L 391.647344 158.313217 
L 407.08608 165.815773 
" style="fill:none;stroke:#1b9e77;stroke-linecap:square;stroke-opacity:0.5;stroke-width:1.5;"/>
   </g>
   <g id="line2d_41">
    <path clip-path="url(#pb3c5cda5be)" d="M 51.99517 165.92997 
L 67.433906 165.727644 
L 82.872641 165.657681 
L 98.311376 165.683227 
L 113.750111 165.632875 
L 129.188846 165.740544 
L 144.627582 164.75338 
L 160.066317 158.270137 
L 175.505052 150.673752 
L 190.943787 155.069119 
L 206.382522 147.028317 
L 221.821257 149.274019 
L 237.259993 151.244147 
L 252.698728 154.252175 
L 268.137463 158.439198 
L 283.576198 160.990877 
L 299.014933 157.761637 
L 314.453668 141.040992 
L 329.892404 133.175147 
L 345.331139 159.749412 
L 360.769874 152.390721 
L 376.208609 150.684824 
L 391.647344 153.330079 
L 407.08608 165.485624 
" style="fill:none;stroke:#1b9e77;stroke-linecap:square;stroke-opacity:0.5;stroke-width:1.5;"/>
   </g>
   <g id="line2d_42">
    <path clip-path="url(#pb3c5cda5be)" d="M 51.99517 165.853379 
L 67.433906 165.741984 
L 82.872641 165.820094 
L 98.311376 165.889963 
L 113.750111 165.904227 
L 129.188846 165.917801 
L 144.627582 165.923135 
L 160.066317 165.92503 
L 175.505052 165.917424 
L 190.943787 165.920874 
L 206.382522 165.919138 
L 221.821257 165.912442 
L 237.259993 165.782046 
L 252.698728 164.843299 
L 268.137463 139.833804 
L 283.576198 125.619765 
L 299.014933 142.039107 
L 314.453668 149.746936 
L 329.892404 162.086788 
L 345.331139 151.258501 
L 360.769874 114.207422 
L 376.208609 140.973481 
L 391.647344 146.763042 
L 407.08608 164.185816 
" style="fill:none;stroke:#1b9e77;stroke-linecap:square;stroke-opacity:0.5;stroke-width:1.5;"/>
   </g>
   <g id="line2d_43">
    <path clip-path="url(#pb3c5cda5be)" d="M 51.99517 164.725276 
L 67.433906 165.645907 
L 82.872641 165.716397 
L 98.311376 165.810839 
L 113.750111 162.537111 
L 129.188846 27.654709 
L 144.627582 137.917067 
L 160.066317 159.305174 
L 175.505052 155.070665 
L 190.943787 147.570466 
L 206.382522 158.705559 
L 221.821257 163.710033 
L 237.259993 164.063947 
L 252.698728 164.864462 
L 268.137463 164.113243 
L 283.576198 164.431067 
L 299.014933 165.693287 
L 314.453668 165.735787 
L 329.892404 165.762073 
L 345.331139 165.831872 
L 360.769874 165.856344 
L 376.208609 165.905558 
L 391.647344 165.911552 
L 407.08608 165.447107 
" style="fill:none;stroke:#1b9e77;stroke-linecap:square;stroke-opacity:0.5;stroke-width:1.5;"/>
   </g>
   <g id="line2d_44">
    <path clip-path="url(#pb3c5cda5be)" d="M 51.99517 156.103739 
L 67.433906 140.648307 
L 82.872641 109.922127 
L 98.311376 151.478226 
L 113.750111 163.758188 
L 129.188846 163.817089 
L 144.627582 164.656549 
L 160.066317 165.554707 
L 175.505052 165.836696 
L 190.943787 165.896699 
L 206.382522 165.369314 
L 221.821257 164.275921 
L 237.259993 104.469191 
L 252.698728 164.95444 
L 268.137463 165.741928 
L 283.576198 159.710125 
L 299.014933 137.673495 
L 314.453668 157.470195 
L 329.892404 165.763664 
L 345.331139 165.851541 
L 360.769874 164.679355 
L 376.208609 164.98821 
L 391.647344 164.354291 
L 407.08608 165.011506 
" style="fill:none;stroke:#1b9e77;stroke-linecap:square;stroke-opacity:0.5;stroke-width:1.5;"/>
   </g>
   <g id="line2d_45">
    <path clip-path="url(#pb3c5cda5be)" d="M 51.99517 165.734518 
L 67.433906 165.905896 
L 82.872641 165.800848 
L 98.311376 164.544664 
L 113.750111 153.904448 
L 129.188846 106.995128 
L 144.627582 151.649863 
L 160.066317 151.882919 
L 175.505052 162.611949 
L 190.943787 163.966689 
L 206.382522 163.731455 
L 221.821257 154.710597 
L 237.259993 162.034565 
L 252.698728 161.235318 
L 268.137463 155.629309 
L 283.576198 156.377654 
L 299.014933 158.009692 
L 314.453668 163.215535 
L 329.892404 163.945058 
L 345.331139 149.729723 
L 360.769874 137.02708 
L 376.208609 151.838034 
L 391.647344 163.728885 
L 407.08608 163.775671 
" style="fill:none;stroke:#1b9e77;stroke-linecap:square;stroke-opacity:0.5;stroke-width:1.5;"/>
   </g>
   <g id="line2d_46">
    <path clip-path="url(#pb3c5cda5be)" d="M 51.99517 165.898765 
L 67.433906 165.789488 
L 82.872641 165.798593 
L 98.311376 165.878598 
L 113.750111 165.866139 
L 129.188846 165.854303 
L 144.627582 164.929616 
L 160.066317 148.517634 
L 175.505052 141.899496 
L 190.943787 141.092452 
L 206.382522 126.089863 
L 221.821257 132.53789 
L 237.259993 141.475446 
L 252.698728 131.614641 
L 268.137463 152.592904 
L 283.576198 165.532136 
L 299.014933 165.564806 
L 314.453668 160.889599 
L 329.892404 163.155974 
L 345.331139 165.819359 
L 360.769874 165.605112 
L 376.208609 165.802249 
L 391.647344 165.849563 
L 407.08608 163.930874 
" style="fill:none;stroke:#1b9e77;stroke-linecap:square;stroke-opacity:0.5;stroke-width:1.5;"/>
   </g>
   <g id="line2d_47">
    <path clip-path="url(#pb3c5cda5be)" d="M 51.99517 163.981447 
L 67.433906 164.977179 
L 82.872641 156.8461 
L 98.311376 159.802943 
L 113.750111 141.874101 
L 129.188846 164.26595 
L 144.627582 165.548092 
L 160.066317 164.66661 
L 175.505052 147.353797 
L 190.943787 160.772643 
L 206.382522 165.607899 
L 221.821257 165.458554 
L 237.259993 131.727926 
L 252.698728 118.545929 
L 268.137463 150.938217 
L 283.576198 156.990411 
L 299.014933 158.306856 
L 314.453668 151.010056 
L 329.892404 159.766315 
L 345.331139 163.92133 
L 360.769874 165.112516 
L 376.208609 165.853739 
L 391.647344 164.046372 
L 407.08608 150.610516 
" style="fill:none;stroke:#1b9e77;stroke-linecap:square;stroke-opacity:0.5;stroke-width:1.5;"/>
   </g>
   <g id="line2d_48">
    <path clip-path="url(#pb3c5cda5be)" d="M 51.99517 115.402981 
L 67.433906 45.74831 
L 82.872641 149.599554 
L 98.311376 156.972358 
L 113.750111 163.295063 
L 129.188846 165.130719 
L 144.627582 165.675718 
L 160.066317 165.857195 
L 175.505052 165.865676 
L 190.943787 165.900843 
L 206.382522 165.890813 
L 221.821257 165.835645 
L 237.259993 165.406197 
L 252.698728 164.810056 
L 268.137463 162.577314 
L 283.576198 159.183959 
L 299.014933 161.642522 
L 314.453668 164.875874 
L 329.892404 165.391225 
L 345.331139 165.571204 
L 360.769874 165.678245 
L 376.208609 165.714179 
L 391.647344 165.314393 
L 407.08608 160.645453 
" style="fill:none;stroke:#1b9e77;stroke-linecap:square;stroke-opacity:0.5;stroke-width:1.5;"/>
   </g>
   <g id="line2d_49">
    <path clip-path="url(#pb3c5cda5be)" d="M 51.99517 165.893715 
L 67.433906 165.820757 
L 82.872641 165.890634 
L 98.311376 165.934244 
L 113.750111 165.93012 
L 129.188846 165.928211 
L 144.627582 165.840294 
L 160.066317 165.273374 
L 175.505052 158.508144 
L 190.943787 148.898275 
L 206.382522 144.48872 
L 221.821257 137.132736 
L 237.259993 128.996278 
L 252.698728 134.195686 
L 268.137463 142.930784 
L 283.576198 127.478866 
L 299.014933 149.352684 
L 314.453668 164.615577 
L 329.892404 165.56168 
L 345.331139 165.79362 
L 360.769874 165.813572 
L 376.208609 165.87982 
L 391.647344 165.899218 
L 407.08608 165.928492 
" style="fill:none;stroke:#1b9e77;stroke-linecap:square;stroke-opacity:0.5;stroke-width:1.5;"/>
   </g>
   <g id="line2d_50">
    <path clip-path="url(#pb3c5cda5be)" d="M 51.99517 163.598492 
L 67.433906 161.001201 
L 82.872641 160.66867 
L 98.311376 154.628562 
L 113.750111 156.51258 
L 129.188846 146.225916 
L 144.627582 155.165542 
L 160.066317 153.458288 
L 175.505052 151.845119 
L 190.943787 152.905516 
L 206.382522 156.446644 
L 221.821257 161.051537 
L 237.259993 163.880198 
L 252.698728 162.235214 
L 268.137463 158.796218 
L 283.576198 158.479008 
L 299.014933 155.098098 
L 314.453668 155.485626 
L 329.892404 148.928235 
L 345.331139 151.108237 
L 360.769874 155.081092 
L 376.208609 150.562995 
L 391.647344 160.033868 
L 407.08608 164.788645 
" style="fill:none;stroke:#1b9e77;stroke-linecap:square;stroke-opacity:0.5;stroke-width:1.5;"/>
   </g>
   <g id="line2d_51">
    <path clip-path="url(#pb3c5cda5be)" d="M 51.99517 165.846555 
L 67.433906 165.656439 
L 82.872641 165.79118 
L 98.311376 165.907838 
L 113.750111 165.932072 
L 129.188846 165.937501 
L 144.627582 165.926547 
L 160.066317 165.934349 
L 175.505052 165.943326 
L 190.943787 165.94308 
L 206.382522 165.936618 
L 221.821257 165.924854 
L 237.259993 165.765119 
L 252.698728 160.952664 
L 268.137463 142.12457 
L 283.576198 132.330494 
L 299.014933 113.406578 
L 314.453668 104.181802 
L 329.892404 156.79741 
L 345.331139 160.352464 
L 360.769874 138.985491 
L 376.208609 165.013587 
L 391.647344 162.052971 
L 407.08608 165.341996 
" style="fill:none;stroke:#1b9e77;stroke-linecap:square;stroke-opacity:0.5;stroke-width:1.5;"/>
   </g>
   <g id="line2d_52">
    <path clip-path="url(#pb3c5cda5be)" d="M 51.99517 152.410978 
L 67.433906 153.416374 
L 82.872641 159.858679 
L 98.311376 165.087214 
L 113.750111 165.41215 
L 129.188846 165.481015 
L 144.627582 165.312496 
L 160.066317 164.981726 
L 175.505052 163.330849 
L 190.943787 150.617344 
L 206.382522 127.3041 
L 221.821257 149.443525 
L 237.259993 163.311454 
L 252.698728 157.114734 
L 268.137463 163.977106 
L 283.576198 164.931606 
L 299.014933 164.836765 
L 314.453668 164.640944 
L 329.892404 164.726828 
L 345.331139 165.225814 
L 360.769874 165.344038 
L 376.208609 165.659548 
L 391.647344 165.077418 
L 407.08608 70.482789 
" style="fill:none;stroke:#1b9e77;stroke-linecap:square;stroke-opacity:0.5;stroke-width:1.5;"/>
   </g>
   <g id="line2d_53">
    <path clip-path="url(#pb3c5cda5be)" d="M 51.99517 165.718298 
L 67.433906 165.05229 
L 82.872641 165.158879 
L 98.311376 165.654137 
L 113.750111 165.752274 
L 129.188846 165.839521 
L 144.627582 165.590405 
L 160.066317 148.088664 
L 175.505052 101.372392 
L 190.943787 121.590817 
L 206.382522 149.715631 
L 221.821257 157.48125 
L 237.259993 158.077299 
L 252.698728 162.074256 
L 268.137463 165.582785 
L 283.576198 165.702664 
L 299.014933 141.531179 
L 314.453668 142.229604 
L 329.892404 163.135411 
L 345.331139 164.108546 
L 360.769874 164.106227 
L 376.208609 164.239344 
L 391.647344 164.423957 
L 407.08608 165.759662 
" style="fill:none;stroke:#1b9e77;stroke-linecap:square;stroke-opacity:0.5;stroke-width:1.5;"/>
   </g>
   <g id="line2d_54">
    <path clip-path="url(#pb3c5cda5be)" d="M 51.99517 163.438261 
L 67.433906 163.192437 
L 82.872641 164.289718 
L 98.311376 165.639416 
L 113.750111 165.82929 
L 129.188846 165.873074 
L 144.627582 165.851727 
L 160.066317 165.840698 
L 175.505052 165.744729 
L 190.943787 165.275922 
L 206.382522 164.154691 
L 221.821257 164.531007 
L 237.259993 165.099117 
L 252.698728 164.879723 
L 268.137463 163.642675 
L 283.576198 137.811509 
L 299.014933 140.005189 
L 314.453668 156.859072 
L 329.892404 143.363668 
L 345.331139 108.243686 
L 360.769874 138.720164 
L 376.208609 148.680991 
L 391.647344 160.231452 
L 407.08608 150.787285 
" style="fill:none;stroke:#1b9e77;stroke-linecap:square;stroke-opacity:0.5;stroke-width:1.5;"/>
   </g>
   <g id="line2d_55">
    <path clip-path="url(#pb3c5cda5be)" d="M 51.99517 164.626497 
L 67.433906 164.526178 
L 82.872641 159.783611 
L 98.311376 155.360315 
L 113.750111 152.649378 
L 129.188846 128.250221 
L 144.627582 159.802581 
L 160.066317 160.010942 
L 175.505052 160.225209 
L 190.943787 161.332093 
L 206.382522 155.396713 
L 221.821257 68.72226 
L 237.259993 156.599689 
L 252.698728 160.321927 
L 268.137463 162.919798 
L 283.576198 163.441593 
L 299.014933 165.560336 
L 314.453668 165.862846 
L 329.892404 165.940706 
L 345.331139 165.9277 
L 360.769874 165.720447 
L 376.208609 165.4548 
L 391.647344 164.655998 
L 407.08608 164.893658 
" style="fill:none;stroke:#1b9e77;stroke-linecap:square;stroke-opacity:0.5;stroke-width:1.5;"/>
   </g>
   <g id="line2d_56">
    <path clip-path="url(#pb3c5cda5be)" d="M 51.99517 165.412993 
L 67.433906 165.579044 
L 82.872641 163.625713 
L 98.311376 161.77493 
L 113.750111 14.76 
L 129.188846 150.111957 
L 144.627582 164.04333 
L 160.066317 164.7878 
L 175.505052 164.676809 
L 190.943787 164.227243 
L 206.382522 165.110621 
L 221.821257 165.400054 
L 237.259993 165.140688 
L 252.698728 165.363273 
L 268.137463 161.387275 
L 283.576198 165.10991 
L 299.014933 161.976098 
L 314.453668 143.345501 
L 329.892404 160.048401 
L 345.331139 164.987097 
L 360.769874 165.297495 
L 376.208609 165.629223 
L 391.647344 165.75673 
L 407.08608 164.433313 
" style="fill:none;stroke:#1b9e77;stroke-linecap:square;stroke-opacity:0.5;stroke-width:1.5;"/>
   </g>
   <g id="line2d_57">
    <path clip-path="url(#pb3c5cda5be)" d="M 51.99517 157.880256 
L 67.433906 165.637011 
L 82.872641 165.535402 
L 98.311376 165.699791 
L 113.750111 165.69005 
L 129.188846 165.835603 
L 144.627582 165.902378 
L 160.066317 165.915253 
L 175.505052 165.888588 
L 190.943787 165.899093 
L 206.382522 165.648184 
L 221.821257 157.167206 
L 237.259993 141.850759 
L 252.698728 147.589561 
L 268.137463 44.120666 
L 283.576198 132.691843 
L 299.014933 163.716624 
L 314.453668 165.072749 
L 329.892404 165.521516 
L 345.331139 165.422541 
L 360.769874 165.167429 
L 376.208609 165.88921 
L 391.647344 165.917909 
L 407.08608 162.32588 
" style="fill:none;stroke:#1b9e77;stroke-linecap:square;stroke-opacity:0.5;stroke-width:1.5;"/>
   </g>
   <g id="line2d_58">
    <path clip-path="url(#pb3c5cda5be)" d="M 51.99517 165.948497 
L 67.433906 165.923316 
L 82.872641 165.873286 
L 98.311376 165.742998 
L 113.750111 165.301056 
L 129.188846 161.791297 
L 144.627582 162.493953 
L 160.066317 165.658095 
L 175.505052 165.766947 
L 190.943787 165.776747 
L 206.382522 165.52333 
L 221.821257 160.921834 
L 237.259993 151.665524 
L 252.698728 145.615171 
L 268.137463 113.966903 
L 283.576198 136.933138 
L 299.014933 156.224594 
L 314.453668 158.049006 
L 329.892404 163.61157 
L 345.331139 155.452041 
L 360.769874 121.083782 
L 376.208609 157.179123 
L 391.647344 156.491221 
L 407.08608 164.992068 
" style="fill:none;stroke:#1b9e77;stroke-linecap:square;stroke-opacity:0.5;stroke-width:1.5;"/>
   </g>
   <g id="line2d_59">
    <path clip-path="url(#pb3c5cda5be)" d="M 51.99517 165.315193 
L 67.433906 165.372598 
L 82.872641 165.401615 
L 98.311376 165.71268 
L 113.750111 165.761158 
L 129.188846 165.860552 
L 144.627582 165.9052 
L 160.066317 165.912366 
L 175.505052 165.891749 
L 190.943787 165.90415 
L 206.382522 165.699556 
L 221.821257 159.057844 
L 237.259993 130.656149 
L 252.698728 119.706165 
L 268.137463 67.776156 
L 283.576198 140.807416 
L 299.014933 163.951776 
L 314.453668 164.82783 
L 329.892404 165.553749 
L 345.331139 165.714423 
L 360.769874 165.168632 
L 376.208609 165.832144 
L 391.647344 160.886596 
L 407.08608 165.309803 
" style="fill:none;stroke:#1b9e77;stroke-linecap:square;stroke-opacity:0.5;stroke-width:1.5;"/>
   </g>
   <g id="line2d_60">
    <path clip-path="url(#pb3c5cda5be)" d="M 51.99517 165.915886 
L 67.433906 165.89265 
L 82.872641 165.866478 
L 98.311376 164.636882 
L 113.750111 131.865419 
L 129.188846 118.990191 
L 144.627582 126.601647 
L 160.066317 153.106136 
L 175.505052 163.930259 
L 190.943787 164.209126 
L 206.382522 165.52215 
L 221.821257 165.793882 
L 237.259993 163.425784 
L 252.698728 140.060307 
L 268.137463 151.229728 
L 283.576198 133.744033 
L 299.014933 162.377551 
L 314.453668 162.00577 
L 329.892404 165.192509 
L 345.331139 165.641175 
L 360.769874 165.702487 
L 376.208609 165.867896 
L 391.647344 165.8349 
L 407.08608 164.57265 
" style="fill:none;stroke:#1b9e77;stroke-linecap:square;stroke-opacity:0.5;stroke-width:1.5;"/>
   </g>
   <g id="line2d_61">
    <path clip-path="url(#pb3c5cda5be)" d="M 51.99517 165.850786 
L 67.433906 165.941174 
L 82.872641 165.940304 
L 98.311376 165.92811 
L 113.750111 165.087042 
L 129.188846 165.733384 
L 144.627582 164.774772 
L 160.066317 163.650566 
L 175.505052 146.677179 
L 190.943787 85.562093 
L 206.382522 115.086624 
L 221.821257 145.18111 
L 237.259993 159.537579 
L 252.698728 149.69814 
L 268.137463 155.97785 
L 283.576198 164.181271 
L 299.014933 164.71907 
L 314.453668 158.790885 
L 329.892404 161.99622 
L 345.331139 165.282924 
L 360.769874 165.577426 
L 376.208609 165.419457 
L 391.647344 165.493174 
L 407.08608 165.898363 
" style="fill:none;stroke:#1b9e77;stroke-linecap:square;stroke-opacity:0.5;stroke-width:1.5;"/>
   </g>
   <g id="line2d_62">
    <path clip-path="url(#pb3c5cda5be)" d="M 51.99517 165.869796 
L 67.433906 165.278882 
L 82.872641 162.521782 
L 98.311376 162.16986 
L 113.750111 165.438884 
L 129.188846 165.708275 
L 144.627582 165.579787 
L 160.066317 163.444736 
L 175.505052 163.010182 
L 190.943787 165.04176 
L 206.382522 165.670636 
L 221.821257 164.940569 
L 237.259993 163.21982 
L 252.698728 159.202473 
L 268.137463 151.198701 
L 283.576198 148.888588 
L 299.014933 122.974399 
L 314.453668 146.85326 
L 329.892404 130.99424 
L 345.331139 119.989564 
L 360.769874 149.258543 
L 376.208609 160.697383 
L 391.647344 165.106741 
L 407.08608 164.926643 
" style="fill:none;stroke:#1b9e77;stroke-linecap:square;stroke-opacity:0.5;stroke-width:1.5;"/>
   </g>
   <g id="line2d_63">
    <path clip-path="url(#pb3c5cda5be)" d="M 51.99517 165.954343 
L 67.433906 165.888918 
L 82.872641 162.766118 
L 98.311376 157.749723 
L 113.750111 154.757398 
L 129.188846 153.008545 
L 144.627582 160.685652 
L 160.066317 160.140336 
L 175.505052 153.213275 
L 190.943787 154.961789 
L 206.382522 160.640377 
L 221.821257 161.471857 
L 237.259993 162.382881 
L 252.698728 150.077591 
L 268.137463 151.708343 
L 283.576198 147.904849 
L 299.014933 147.549246 
L 314.453668 150.391963 
L 329.892404 155.5295 
L 345.331139 153.780126 
L 360.769874 148.440247 
L 376.208609 155.042019 
L 391.647344 160.340844 
L 407.08608 163.599558 
" style="fill:none;stroke:#1b9e77;stroke-linecap:square;stroke-opacity:0.5;stroke-width:1.5;"/>
   </g>
   <g id="line2d_64">
    <path clip-path="url(#pb3c5cda5be)" d="M 51.99517 165.761844 
L 67.433906 165.860719 
L 82.872641 164.803586 
L 98.311376 160.96553 
L 113.750111 108.181326 
L 129.188846 101.311424 
L 144.627582 154.759866 
L 160.066317 150.644537 
L 175.505052 155.486656 
L 190.943787 158.040729 
L 206.382522 155.949762 
L 221.821257 157.700056 
L 237.259993 160.406868 
L 252.698728 158.887902 
L 268.137463 157.693395 
L 283.576198 161.660705 
L 299.014933 162.798184 
L 314.453668 162.45781 
L 329.892404 165.799975 
L 345.331139 165.859463 
L 360.769874 165.866283 
L 376.208609 165.928553 
L 391.647344 165.918699 
L 407.08608 165.241628 
" style="fill:none;stroke:#1b9e77;stroke-linecap:square;stroke-opacity:0.5;stroke-width:1.5;"/>
   </g>
   <g id="line2d_65">
    <path clip-path="url(#pb3c5cda5be)" d="M 51.99517 165.814578 
L 67.433906 165.901438 
L 82.872641 165.795703 
L 98.311376 165.238619 
L 113.750111 157.862249 
L 129.188846 136.317604 
L 144.627582 147.575585 
L 160.066317 141.535042 
L 175.505052 126.399722 
L 190.943787 126.11549 
L 206.382522 144.172964 
L 221.821257 148.270136 
L 237.259993 148.647371 
L 252.698728 163.585998 
L 268.137463 165.74724 
L 283.576198 165.857964 
L 299.014933 165.903042 
L 314.453668 165.744993 
L 329.892404 165.8787 
L 345.331139 165.897087 
L 360.769874 165.882142 
L 376.208609 165.932629 
L 391.647344 164.208507 
L 407.08608 163.700701 
" style="fill:none;stroke:#1b9e77;stroke-linecap:square;stroke-opacity:0.5;stroke-width:1.5;"/>
   </g>
   <g id="line2d_66">
    <path clip-path="url(#pb3c5cda5be)" d="M 51.99517 165.91242 
L 67.433906 165.831646 
L 82.872641 165.874034 
L 98.311376 165.928383 
L 113.750111 165.943148 
L 129.188846 165.955399 
L 144.627582 165.955512 
L 160.066317 165.941481 
L 175.505052 165.808293 
L 190.943787 165.449474 
L 206.382522 158.496078 
L 221.821257 158.121276 
L 237.259993 160.425264 
L 252.698728 160.821925 
L 268.137463 159.926445 
L 283.576198 161.584926 
L 299.014933 162.093317 
L 314.453668 164.534986 
L 329.892404 165.483661 
L 345.331139 156.571518 
L 360.769874 63.017717 
L 376.208609 113.889499 
L 391.647344 153.834101 
L 407.08608 160.585004 
" style="fill:none;stroke:#1b9e77;stroke-linecap:square;stroke-opacity:0.5;stroke-width:1.5;"/>
   </g>
   <g id="line2d_67">
    <path clip-path="url(#pb3c5cda5be)" d="M 51.99517 158.212264 
L 67.433906 164.514999 
L 82.872641 165.041806 
L 98.311376 165.453935 
L 113.750111 165.662827 
L 129.188846 165.777325 
L 144.627582 165.700895 
L 160.066317 165.762092 
L 175.505052 165.057348 
L 190.943787 154.51322 
L 206.382522 128.736391 
L 221.821257 128.037963 
L 237.259993 128.154022 
L 252.698728 127.731163 
L 268.137463 143.322702 
L 283.576198 160.338507 
L 299.014933 165.421822 
L 314.453668 165.328033 
L 329.892404 165.388275 
L 345.331139 165.50665 
L 360.769874 160.482729 
L 376.208609 162.413786 
L 391.647344 155.994115 
L 407.08608 165.432623 
" style="fill:none;stroke:#1b9e77;stroke-linecap:square;stroke-opacity:0.5;stroke-width:1.5;"/>
   </g>
   <g id="line2d_68">
    <path clip-path="url(#pb3c5cda5be)" d="M 51.99517 165.947297 
L 67.433906 165.822726 
L 82.872641 164.833815 
L 98.311376 164.641531 
L 113.750111 160.351631 
L 129.188846 125.970672 
L 144.627582 149.253436 
L 160.066317 147.698228 
L 175.505052 111.974318 
L 190.943787 154.254475 
L 206.382522 147.40885 
L 221.821257 132.459798 
L 237.259993 155.049192 
L 252.698728 165.456984 
L 268.137463 165.780628 
L 283.576198 165.847318 
L 299.014933 165.847506 
L 314.453668 164.950698 
L 329.892404 165.121147 
L 345.331139 165.824654 
L 360.769874 165.326576 
L 376.208609 163.568557 
L 391.647344 161.04012 
L 407.08608 163.555341 
" style="fill:none;stroke:#1b9e77;stroke-linecap:square;stroke-opacity:0.5;stroke-width:1.5;"/>
   </g>
   <g id="line2d_69">
    <path clip-path="url(#pb3c5cda5be)" d="M 51.99517 162.566988 
L 67.433906 160.614079 
L 82.872641 162.44389 
L 98.311376 165.023761 
L 113.750111 164.980904 
L 129.188846 165.004494 
L 144.627582 162.669848 
L 160.066317 162.021032 
L 175.505052 165.47806 
L 190.943787 165.803038 
L 206.382522 165.670507 
L 221.821257 151.453777 
L 237.259993 159.31473 
L 252.698728 158.254138 
L 268.137463 148.606284 
L 283.576198 130.908944 
L 299.014933 150.219083 
L 314.453668 165.325108 
L 329.892404 164.951658 
L 345.331139 160.722622 
L 360.769874 127.12654 
L 376.208609 116.821612 
L 391.647344 159.243859 
L 407.08608 162.760539 
" style="fill:none;stroke:#1b9e77;stroke-linecap:square;stroke-opacity:0.5;stroke-width:1.5;"/>
   </g>
   <g id="line2d_70">
    <path clip-path="url(#pb3c5cda5be)" d="M 51.99517 165.921676 
L 67.433906 165.875708 
L 82.872641 165.876301 
L 98.311376 165.846715 
L 113.750111 165.802914 
L 129.188846 165.793781 
L 144.627582 163.244433 
L 160.066317 157.461159 
L 175.505052 157.394586 
L 190.943787 158.186291 
L 206.382522 142.949684 
L 221.821257 130.454152 
L 237.259993 135.258321 
L 252.698728 126.621597 
L 268.137463 138.306484 
L 283.576198 145.820573 
L 299.014933 155.287776 
L 314.453668 159.224003 
L 329.892404 165.198063 
L 345.331139 165.445317 
L 360.769874 165.291641 
L 376.208609 165.643145 
L 391.647344 165.798156 
L 407.08608 165.283027 
" style="fill:none;stroke:#1b9e77;stroke-linecap:square;stroke-opacity:0.5;stroke-width:1.5;"/>
   </g>
   <g id="line2d_71">
    <path clip-path="url(#pb3c5cda5be)" d="M 51.99517 164.891023 
L 67.433906 164.208558 
L 82.872641 151.7713 
L 98.311376 156.525591 
L 113.750111 91.588519 
L 129.188846 162.600255 
L 144.627582 165.242417 
L 160.066317 161.54494 
L 175.505052 101.705871 
L 190.943787 151.340715 
L 206.382522 158.146093 
L 221.821257 149.093795 
L 237.259993 160.492814 
L 252.698728 162.497635 
L 268.137463 164.83123 
L 283.576198 164.711534 
L 299.014933 165.557167 
L 314.453668 165.872337 
L 329.892404 165.877124 
L 345.331139 165.923802 
L 360.769874 165.940214 
L 376.208609 165.939178 
L 391.647344 165.914911 
L 407.08608 165.768475 
" style="fill:none;stroke:#1b9e77;stroke-linecap:square;stroke-opacity:0.5;stroke-width:1.5;"/>
   </g>
   <g id="line2d_72">
    <path clip-path="url(#pb3c5cda5be)" d="M 51.99517 165.847085 
L 67.433906 165.668801 
L 82.872641 165.789527 
L 98.311376 165.883268 
L 113.750111 165.905639 
L 129.188846 165.915331 
L 144.627582 165.914202 
L 160.066317 165.931706 
L 175.505052 165.940788 
L 190.943787 165.944625 
L 206.382522 165.940948 
L 221.821257 165.947142 
L 237.259993 165.940968 
L 252.698728 165.875193 
L 268.137463 163.408058 
L 283.576198 153.791114 
L 299.014933 150.25001 
L 314.453668 150.568252 
L 329.892404 162.571219 
L 345.331139 160.413803 
L 360.769874 70.473602 
L 376.208609 138.692951 
L 391.647344 143.797684 
L 407.08608 141.573577 
" style="fill:none;stroke:#1b9e77;stroke-linecap:square;stroke-opacity:0.5;stroke-width:1.5;"/>
   </g>
   <g id="line2d_73">
    <path clip-path="url(#pb3c5cda5be)" d="M 51.99517 160.904131 
L 67.433906 156.139481 
L 82.872641 163.065059 
L 98.311376 165.274043 
L 113.750111 164.958327 
L 129.188846 165.486962 
L 144.627582 165.770085 
L 160.066317 165.824876 
L 175.505052 165.769162 
L 190.943787 165.79827 
L 206.382522 165.870884 
L 221.821257 165.897246 
L 237.259993 165.890308 
L 252.698728 165.926682 
L 268.137463 165.716607 
L 283.576198 147.006979 
L 299.014933 146.214562 
L 314.453668 141.38853 
L 329.892404 113.370123 
L 345.331139 116.08116 
L 360.769874 140.600441 
L 376.208609 160.882751 
L 391.647344 165.27165 
L 407.08608 158.877179 
" style="fill:none;stroke:#1b9e77;stroke-linecap:square;stroke-opacity:0.5;stroke-width:1.5;"/>
   </g>
   <g id="line2d_74">
    <path clip-path="url(#pb3c5cda5be)" d="M 51.99517 165.810503 
L 67.433906 165.441091 
L 82.872641 165.566628 
L 98.311376 165.801576 
L 113.750111 165.850589 
L 129.188846 165.907947 
L 144.627582 165.923589 
L 160.066317 165.936627 
L 175.505052 165.92696 
L 190.943787 165.905846 
L 206.382522 163.504737 
L 221.821257 144.850585 
L 237.259993 132.532417 
L 252.698728 121.004097 
L 268.137463 114.336802 
L 283.576198 147.606286 
L 299.014933 163.327433 
L 314.453668 164.282108 
L 329.892404 165.473115 
L 345.331139 162.143819 
L 360.769874 142.217341 
L 376.208609 153.978722 
L 391.647344 159.873319 
L 407.08608 164.783363 
" style="fill:none;stroke:#1b9e77;stroke-linecap:square;stroke-opacity:0.5;stroke-width:1.5;"/>
   </g>
   <g id="line2d_75">
    <path clip-path="url(#pb3c5cda5be)" d="M 51.99517 165.480663 
L 67.433906 165.126464 
L 82.872641 155.867923 
L 98.311376 151.218199 
L 113.750111 145.863279 
L 129.188846 145.65938 
L 144.627582 165.375499 
L 160.066317 165.763398 
L 175.505052 165.65488 
L 190.943787 165.733584 
L 206.382522 163.677396 
L 221.821257 160.446112 
L 237.259993 157.861231 
L 252.698728 159.967231 
L 268.137463 143.803406 
L 283.576198 155.592906 
L 299.014933 160.948156 
L 314.453668 155.225751 
L 329.892404 146.183649 
L 345.331139 143.5327 
L 360.769874 144.021774 
L 376.208609 152.987637 
L 391.647344 157.48327 
L 407.08608 164.511013 
" style="fill:none;stroke:#1b9e77;stroke-linecap:square;stroke-opacity:0.5;stroke-width:1.5;"/>
   </g>
   <g id="line2d_76">
    <path clip-path="url(#pb3c5cda5be)" d="M 51.99517 165.804276 
L 67.433906 165.810256 
L 82.872641 164.999154 
L 98.311376 165.186804 
L 113.750111 158.877738 
L 129.188846 163.606722 
L 144.627582 159.394434 
L 160.066317 162.234338 
L 175.505052 139.32537 
L 190.943787 50.84483 
L 206.382522 164.629085 
L 221.821257 160.40965 
L 237.259993 152.280247 
L 252.698728 162.767135 
L 268.137463 161.365964 
L 283.576198 159.321493 
L 299.014933 161.351766 
L 314.453668 163.782542 
L 329.892404 163.872786 
L 345.331139 164.895908 
L 360.769874 162.307026 
L 376.208609 157.238586 
L 391.647344 162.463663 
L 407.08608 165.215714 
" style="fill:none;stroke:#1b9e77;stroke-linecap:square;stroke-opacity:0.5;stroke-width:1.5;"/>
   </g>
   <g id="line2d_77">
    <path clip-path="url(#pb3c5cda5be)" d="M 51.99517 165.913593 
L 67.433906 165.876365 
L 82.872641 165.889407 
L 98.311376 165.916366 
L 113.750111 165.905258 
L 129.188846 165.683162 
L 144.627582 164.891263 
L 160.066317 165.697844 
L 175.505052 164.836165 
L 190.943787 149.929408 
L 206.382522 159.615218 
L 221.821257 137.885456 
L 237.259993 139.438247 
L 252.698728 84.807616 
L 268.137463 156.69769 
L 283.576198 160.236455 
L 299.014933 143.568374 
L 314.453668 164.44331 
L 329.892404 164.654809 
L 345.331139 153.563496 
L 360.769874 157.600896 
L 376.208609 163.768378 
L 391.647344 165.457109 
L 407.08608 165.709616 
" style="fill:none;stroke:#1b9e77;stroke-linecap:square;stroke-opacity:0.5;stroke-width:1.5;"/>
   </g>
   <g id="line2d_78">
    <path clip-path="url(#pb3c5cda5be)" d="M 51.99517 165.826112 
L 67.433906 165.607541 
L 82.872641 165.699203 
L 98.311376 165.845928 
L 113.750111 165.888524 
L 129.188846 165.907621 
L 144.627582 165.905912 
L 160.066317 165.915891 
L 175.505052 165.909806 
L 190.943787 165.903506 
L 206.382522 165.841298 
L 221.821257 165.4397 
L 237.259993 160.773708 
L 252.698728 152.398839 
L 268.137463 122.278023 
L 283.576198 103.592696 
L 299.014933 108.64192 
L 314.453668 136.172501 
L 329.892404 156.165642 
L 345.331139 165.750655 
L 360.769874 165.56896 
L 376.208609 165.808921 
L 391.647344 165.831902 
L 407.08608 165.310692 
" style="fill:none;stroke:#1b9e77;stroke-linecap:square;stroke-opacity:0.5;stroke-width:1.5;"/>
   </g>
   <g id="line2d_79">
    <path clip-path="url(#pb3c5cda5be)" d="M 51.99517 165.684338 
L 67.433906 165.888419 
L 82.872641 165.860948 
L 98.311376 165.77741 
L 113.750111 153.94159 
L 129.188846 133.264715 
L 144.627582 158.877978 
L 160.066317 164.197858 
L 175.505052 162.216514 
L 190.943787 160.88722 
L 206.382522 157.039 
L 221.821257 134.110771 
L 237.259993 134.720558 
L 252.698728 152.625 
L 268.137463 98.881943 
L 283.576198 159.2464 
L 299.014933 165.535858 
L 314.453668 165.824294 
L 329.892404 165.909636 
L 345.331139 165.849579 
L 360.769874 165.385783 
L 376.208609 165.841069 
L 391.647344 164.948438 
L 407.08608 165.470179 
" style="fill:none;stroke:#1b9e77;stroke-linecap:square;stroke-opacity:0.5;stroke-width:1.5;"/>
   </g>
   <g id="line2d_80">
    <path clip-path="url(#pb3c5cda5be)" d="M 51.99517 161.301538 
L 67.433906 155.61085 
L 82.872641 152.170277 
L 98.311376 144.77453 
L 113.750111 162.029481 
L 129.188846 155.808871 
L 144.627582 163.166668 
L 160.066317 165.802874 
L 175.505052 165.751429 
L 190.943787 165.83178 
L 206.382522 165.828721 
L 221.821257 165.052904 
L 237.259993 164.834318 
L 252.698728 165.476216 
L 268.137463 164.292721 
L 283.576198 152.284191 
L 299.014933 158.270932 
L 314.453668 156.130874 
L 329.892404 147.48656 
L 345.331139 161.440419 
L 360.769874 114.239687 
L 376.208609 136.851598 
L 391.647344 151.677539 
L 407.08608 161.870517 
" style="fill:none;stroke:#1b9e77;stroke-linecap:square;stroke-opacity:0.5;stroke-width:1.5;"/>
   </g>
   <g id="line2d_81">
    <path clip-path="url(#pb3c5cda5be)" d="M 51.99517 159.9153 
L 67.433906 158.503536 
L 82.872641 158.527707 
L 98.311376 164.406319 
L 113.750111 165.08055 
L 129.188846 163.679299 
L 144.627582 164.436936 
L 160.066317 164.842524 
L 175.505052 164.050534 
L 190.943787 163.699588 
L 206.382522 160.100771 
L 221.821257 161.346019 
L 237.259993 156.441886 
L 252.698728 155.565749 
L 268.137463 161.003159 
L 283.576198 151.922821 
L 299.014933 150.38825 
L 314.453668 161.218351 
L 329.892404 160.861851 
L 345.331139 160.117349 
L 360.769874 143.163977 
L 376.208609 151.360545 
L 391.647344 153.921314 
L 407.08608 103.431168 
" style="fill:none;stroke:#1b9e77;stroke-linecap:square;stroke-opacity:0.5;stroke-width:1.5;"/>
   </g>
   <g id="line2d_82">
    <path clip-path="url(#pb3c5cda5be)" d="M 51.99517 151.581525 
L 67.433906 140.591911 
L 82.872641 132.07643 
L 98.311376 107.891252 
L 113.750111 127.7035 
L 129.188846 139.130123 
L 144.627582 161.415095 
L 160.066317 165.779802 
L 175.505052 165.661398 
L 190.943787 165.747882 
L 206.382522 165.854239 
L 221.821257 165.889877 
L 237.259993 165.880924 
L 252.698728 165.926584 
L 268.137463 165.914837 
L 283.576198 165.805531 
L 299.014933 165.803314 
L 314.453668 165.792712 
L 329.892404 164.218678 
L 345.331139 154.237428 
L 360.769874 158.558952 
L 376.208609 165.374616 
L 391.647344 165.72451 
L 407.08608 165.424384 
" style="fill:none;stroke:#1b9e77;stroke-linecap:square;stroke-opacity:0.5;stroke-width:1.5;"/>
   </g>
   <g id="line2d_83">
    <path clip-path="url(#pb3c5cda5be)" d="M 51.99517 160.221211 
L 67.433906 155.614675 
L 82.872641 153.792412 
L 98.311376 135.004828 
L 113.750111 151.019034 
L 129.188846 155.296257 
L 144.627582 160.117125 
L 160.066317 161.717367 
L 175.505052 162.98356 
L 190.943787 163.439573 
L 206.382522 159.808902 
L 221.821257 157.310505 
L 237.259993 146.063101 
L 252.698728 139.806408 
L 268.137463 157.525415 
L 283.576198 158.239434 
L 299.014933 157.485097 
L 314.453668 154.282433 
L 329.892404 162.663744 
L 345.331139 151.026905 
L 360.769874 160.419777 
L 376.208609 163.895357 
L 391.647344 164.690909 
L 407.08608 165.561476 
" style="fill:none;stroke:#1b9e77;stroke-linecap:square;stroke-opacity:0.5;stroke-width:1.5;"/>
   </g>
   <g id="line2d_84">
    <path clip-path="url(#pb3c5cda5be)" d="M 51.99517 165.902563 
L 67.433906 165.740114 
L 82.872641 165.777101 
L 98.311376 165.817492 
L 113.750111 165.784775 
L 129.188846 165.868143 
L 144.627582 165.200126 
L 160.066317 144.60583 
L 175.505052 145.561146 
L 190.943787 143.220054 
L 206.382522 121.632269 
L 221.821257 136.732945 
L 237.259993 153.240493 
L 252.698728 154.758297 
L 268.137463 154.826857 
L 283.576198 152.604173 
L 299.014933 149.291563 
L 314.453668 161.815782 
L 329.892404 165.12505 
L 345.331139 165.449318 
L 360.769874 164.185191 
L 376.208609 164.235878 
L 391.647344 161.661102 
L 407.08608 158.949239 
" style="fill:none;stroke:#1b9e77;stroke-linecap:square;stroke-opacity:0.5;stroke-width:1.5;"/>
   </g>
   <g id="line2d_85">
    <path clip-path="url(#pb3c5cda5be)" d="M 51.99517 159.731608 
L 67.433906 154.652258 
L 82.872641 148.125016 
L 98.311376 128.975322 
L 113.750111 161.843947 
L 129.188846 164.973014 
L 144.627582 165.565898 
L 160.066317 165.686809 
L 175.505052 165.327339 
L 190.943787 165.612357 
L 206.382522 165.668117 
L 221.821257 163.766792 
L 237.259993 158.391142 
L 252.698728 158.620902 
L 268.137463 154.698371 
L 283.576198 153.753126 
L 299.014933 160.698519 
L 314.453668 164.363386 
L 329.892404 164.204184 
L 345.331139 161.549349 
L 360.769874 123.65207 
L 376.208609 139.755818 
L 391.647344 151.551288 
L 407.08608 156.818866 
" style="fill:none;stroke:#1b9e77;stroke-linecap:square;stroke-opacity:0.5;stroke-width:1.5;"/>
   </g>
   <g id="line2d_86">
    <path clip-path="url(#pb3c5cda5be)" d="M 51.99517 165.947117 
L 67.433906 165.875948 
L 82.872641 165.583711 
L 98.311376 162.861645 
L 113.750111 159.619493 
L 129.188846 152.955622 
L 144.627582 132.925341 
L 160.066317 131.084931 
L 175.505052 136.764 
L 190.943787 150.817881 
L 206.382522 147.074181 
L 221.821257 144.587692 
L 237.259993 147.764677 
L 252.698728 148.88365 
L 268.137463 161.703974 
L 283.576198 165.135593 
L 299.014933 164.793449 
L 314.453668 162.44104 
L 329.892404 165.828778 
L 345.331139 165.862412 
L 360.769874 165.79914 
L 376.208609 165.904499 
L 391.647344 165.530562 
L 407.08608 162.240158 
" style="fill:none;stroke:#1b9e77;stroke-linecap:square;stroke-opacity:0.5;stroke-width:1.5;"/>
   </g>
   <g id="line2d_87">
    <path clip-path="url(#pb3c5cda5be)" d="M 51.99517 165.892864 
L 67.433906 165.821048 
L 82.872641 165.855988 
L 98.311376 165.907616 
L 113.750111 165.814866 
L 129.188846 165.086503 
L 144.627582 158.5475 
L 160.066317 154.494246 
L 175.505052 148.71013 
L 190.943787 136.370293 
L 206.382522 120.544587 
L 221.821257 120.231449 
L 237.259993 165.416107 
L 252.698728 165.402113 
L 268.137463 165.648991 
L 283.576198 162.960229 
L 299.014933 154.048119 
L 314.453668 160.452248 
L 329.892404 164.911542 
L 345.331139 163.675545 
L 360.769874 156.891159 
L 376.208609 152.036044 
L 391.647344 152.100019 
L 407.08608 161.166289 
" style="fill:none;stroke:#1b9e77;stroke-linecap:square;stroke-opacity:0.5;stroke-width:1.5;"/>
   </g>
   <g id="line2d_88">
    <path clip-path="url(#pb3c5cda5be)" d="M 51.99517 159.24536 
L 67.433906 158.67496 
L 82.872641 145.644744 
L 98.311376 155.868597 
L 113.750111 124.421729 
L 129.188846 137.934102 
L 144.627582 162.921666 
L 160.066317 159.348854 
L 175.505052 115.171086 
L 190.943787 122.794947 
L 206.382522 163.902636 
L 221.821257 165.146694 
L 237.259993 165.199184 
L 252.698728 165.334932 
L 268.137463 165.688376 
L 283.576198 165.785148 
L 299.014933 165.783684 
L 314.453668 165.842996 
L 329.892404 165.885597 
L 345.331139 165.897691 
L 360.769874 165.897133 
L 376.208609 165.921732 
L 391.647344 165.893786 
L 407.08608 163.779857 
" style="fill:none;stroke:#1b9e77;stroke-linecap:square;stroke-opacity:0.5;stroke-width:1.5;"/>
   </g>
   <g id="line2d_89">
    <path clip-path="url(#pb3c5cda5be)" d="M 51.99517 154.522747 
L 67.433906 155.064699 
L 82.872641 156.551971 
L 98.311376 128.827156 
L 113.750111 152.975122 
L 129.188846 157.126329 
L 144.627582 160.557999 
L 160.066317 160.597573 
L 175.505052 147.545188 
L 190.943787 139.554893 
L 206.382522 156.906658 
L 221.821257 156.817249 
L 237.259993 158.727666 
L 252.698728 160.746983 
L 268.137463 164.32249 
L 283.576198 164.943084 
L 299.014933 163.28655 
L 314.453668 160.442972 
L 329.892404 164.560391 
L 345.331139 165.105499 
L 360.769874 165.122339 
L 376.208609 149.137448 
L 391.647344 150.911696 
L 407.08608 163.630795 
" style="fill:none;stroke:#1b9e77;stroke-linecap:square;stroke-opacity:0.5;stroke-width:1.5;"/>
   </g>
   <g id="line2d_90">
    <path clip-path="url(#pb3c5cda5be)" d="M 51.99517 165.694652 
L 67.433906 165.8192 
L 82.872641 162.480732 
L 98.311376 161.460112 
L 113.750111 103.522783 
L 129.188846 144.219671 
L 144.627582 162.720594 
L 160.066317 155.850761 
L 175.505052 120.486916 
L 190.943787 123.494937 
L 206.382522 152.545158 
L 221.821257 163.761757 
L 237.259993 165.375808 
L 252.698728 164.740117 
L 268.137463 162.294706 
L 283.576198 164.527154 
L 299.014933 165.568785 
L 314.453668 165.154535 
L 329.892404 164.61278 
L 345.331139 165.841969 
L 360.769874 165.510262 
L 376.208609 164.154322 
L 391.647344 163.204777 
L 407.08608 164.943006 
" style="fill:none;stroke:#1b9e77;stroke-linecap:square;stroke-opacity:0.5;stroke-width:1.5;"/>
   </g>
   <g id="line2d_91">
    <path clip-path="url(#pb3c5cda5be)" d="M 51.99517 159.252667 
L 67.433906 153.918721 
L 82.872641 154.434212 
L 98.311376 140.250683 
L 113.750111 153.054426 
L 129.188846 164.31423 
L 144.627582 165.217286 
L 160.066317 165.498949 
L 175.505052 161.311711 
L 190.943787 141.783212 
L 206.382522 142.722478 
L 221.821257 141.110493 
L 237.259993 144.970448 
L 252.698728 144.109595 
L 268.137463 157.107686 
L 283.576198 163.682343 
L 299.014933 164.615632 
L 314.453668 163.593514 
L 329.892404 165.364627 
L 345.331139 165.74302 
L 360.769874 165.599824 
L 376.208609 164.735913 
L 391.647344 156.805296 
L 407.08608 158.788533 
" style="fill:none;stroke:#1b9e77;stroke-linecap:square;stroke-opacity:0.5;stroke-width:1.5;"/>
   </g>
   <g id="line2d_92">
    <path clip-path="url(#pb3c5cda5be)" d="M 51.99517 155.249874 
L 67.433906 152.697773 
L 82.872641 156.56626 
L 98.311376 157.771589 
L 113.750111 162.945116 
L 129.188846 150.414455 
L 144.627582 153.482803 
L 160.066317 156.622282 
L 175.505052 154.930274 
L 190.943787 156.389922 
L 206.382522 151.127394 
L 221.821257 147.245325 
L 237.259993 148.400009 
L 252.698728 141.206829 
L 268.137463 129.257103 
L 283.576198 162.451109 
L 299.014933 163.686547 
L 314.453668 163.073396 
L 329.892404 165.360424 
L 345.331139 165.651532 
L 360.769874 165.758417 
L 376.208609 165.855637 
L 391.647344 165.905188 
L 407.08608 165.93624 
" style="fill:none;stroke:#1b9e77;stroke-linecap:square;stroke-opacity:0.5;stroke-width:1.5;"/>
   </g>
   <g id="line2d_93">
    <path clip-path="url(#pb3c5cda5be)" d="M 51.99517 165.034697 
L 67.433906 162.299797 
L 82.872641 152.761149 
L 98.311376 151.377588 
L 113.750111 154.263306 
L 129.188846 153.393043 
L 144.627582 151.246819 
L 160.066317 154.734435 
L 175.505052 160.409596 
L 190.943787 160.894193 
L 206.382522 155.778696 
L 221.821257 148.47099 
L 237.259993 136.915337 
L 252.698728 160.948811 
L 268.137463 164.904625 
L 283.576198 165.00793 
L 299.014933 147.985968 
L 314.453668 140.945391 
L 329.892404 152.230692 
L 345.331139 156.521006 
L 360.769874 165.509648 
L 376.208609 165.023908 
L 391.647344 165.443746 
L 407.08608 165.884121 
" style="fill:none;stroke:#1b9e77;stroke-linecap:square;stroke-opacity:0.5;stroke-width:1.5;"/>
   </g>
   <g id="line2d_94">
    <path clip-path="url(#pb3c5cda5be)" d="M 51.99517 165.927779 
L 67.433906 165.774159 
L 82.872641 165.232041 
L 98.311376 157.849041 
L 113.750111 155.52193 
L 129.188846 153.159384 
L 144.627582 144.141658 
L 160.066317 145.407721 
L 175.505052 146.396089 
L 190.943787 148.415802 
L 206.382522 143.271693 
L 221.821257 142.462656 
L 237.259993 159.557238 
L 252.698728 148.521866 
L 268.137463 149.526939 
L 283.576198 145.456917 
L 299.014933 160.765124 
L 314.453668 165.477576 
L 329.892404 165.582373 
L 345.331139 165.833054 
L 360.769874 165.909244 
L 376.208609 165.936544 
L 391.647344 165.931208 
L 407.08608 165.927469 
" style="fill:none;stroke:#1b9e77;stroke-linecap:square;stroke-opacity:0.5;stroke-width:1.5;"/>
   </g>
   <g id="line2d_95">
    <path clip-path="url(#pb3c5cda5be)" d="M 51.99517 146.971578 
L 67.433906 157.727363 
L 82.872641 159.829101 
L 98.311376 145.000704 
L 113.750111 135.69871 
L 129.188846 135.035002 
L 144.627582 152.361899 
L 160.066317 165.61495 
L 175.505052 165.125413 
L 190.943787 143.012515 
L 206.382522 138.123287 
L 221.821257 125.587899 
L 237.259993 164.219908 
L 252.698728 165.327266 
L 268.137463 165.699309 
L 283.576198 165.860252 
L 299.014933 165.89773 
L 314.453668 165.895746 
L 329.892404 165.869151 
L 345.331139 165.911023 
L 360.769874 165.93729 
L 376.208609 165.954551 
L 391.647344 165.938004 
L 407.08608 165.386847 
" style="fill:none;stroke:#1b9e77;stroke-linecap:square;stroke-opacity:0.5;stroke-width:1.5;"/>
   </g>
   <g id="line2d_96">
    <path clip-path="url(#pb3c5cda5be)" d="M 51.99517 151.919414 
L 67.433906 144.33052 
L 82.872641 158.634121 
L 98.311376 161.443822 
L 113.750111 164.310562 
L 129.188846 165.352383 
L 144.627582 165.661899 
L 160.066317 165.85229 
L 175.505052 165.882673 
L 190.943787 165.923092 
L 206.382522 165.935077 
L 221.821257 165.948779 
L 237.259993 165.731486 
L 252.698728 155.335783 
L 268.137463 156.67035 
L 283.576198 146.544585 
L 299.014933 131.15321 
L 314.453668 156.389667 
L 329.892404 125.243342 
L 345.331139 117.460295 
L 360.769874 165.054036 
L 376.208609 165.644995 
L 391.647344 165.66508 
L 407.08608 165.898032 
" style="fill:none;stroke:#1b9e77;stroke-linecap:square;stroke-opacity:0.5;stroke-width:1.5;"/>
   </g>
   <g id="line2d_97">
    <path clip-path="url(#pb3c5cda5be)" d="M 51.99517 165.353993 
L 67.433906 165.186789 
L 82.872641 165.542384 
L 98.311376 165.849345 
L 113.750111 165.89578 
L 129.188846 165.917887 
L 144.627582 165.895868 
L 160.066317 165.840332 
L 175.505052 165.727698 
L 190.943787 165.426311 
L 206.382522 162.797299 
L 221.821257 157.52493 
L 237.259993 165.117605 
L 252.698728 160.130167 
L 268.137463 157.335666 
L 283.576198 146.670031 
L 299.014933 122.713839 
L 314.453668 137.240826 
L 329.892404 138.343373 
L 345.331139 131.412673 
L 360.769874 151.427351 
L 376.208609 155.677007 
L 391.647344 159.693964 
L 407.08608 155.264385 
" style="fill:none;stroke:#1b9e77;stroke-linecap:square;stroke-opacity:0.5;stroke-width:1.5;"/>
   </g>
   <g id="line2d_98">
    <path clip-path="url(#pb3c5cda5be)" d="M 51.99517 165.313758 
L 67.433906 165.37555 
L 82.872641 160.096433 
L 98.311376 148.740335 
L 113.750111 156.783925 
L 129.188846 155.869941 
L 144.627582 149.713834 
L 160.066317 149.567049 
L 175.505052 142.769155 
L 190.943787 149.860412 
L 206.382522 146.475245 
L 221.821257 160.413402 
L 237.259993 160.521621 
L 252.698728 146.542568 
L 268.137463 151.785287 
L 283.576198 155.080419 
L 299.014933 157.823582 
L 314.453668 158.914813 
L 329.892404 159.23883 
L 345.331139 159.054162 
L 360.769874 163.739053 
L 376.208609 163.782918 
L 391.647344 165.204301 
L 407.08608 165.318911 
" style="fill:none;stroke:#1b9e77;stroke-linecap:square;stroke-opacity:0.5;stroke-width:1.5;"/>
   </g>
   <g id="line2d_99">
    <path clip-path="url(#pb3c5cda5be)" d="M 51.99517 165.846746 
L 67.433906 165.750531 
L 82.872641 165.835695 
L 98.311376 165.91593 
L 113.750111 165.933184 
L 129.188846 165.94401 
L 144.627582 165.943022 
L 160.066317 165.944134 
L 175.505052 165.937781 
L 190.943787 165.921158 
L 206.382522 165.823784 
L 221.821257 165.568289 
L 237.259993 165.783055 
L 252.698728 165.779693 
L 268.137463 165.311372 
L 283.576198 152.936335 
L 299.014933 151.919872 
L 314.453668 139.772402 
L 329.892404 134.047775 
L 345.331139 136.737222 
L 360.769874 130.795265 
L 376.208609 128.205538 
L 391.647344 136.878279 
L 407.08608 159.454422 
" style="fill:none;stroke:#1b9e77;stroke-linecap:square;stroke-opacity:0.5;stroke-width:1.5;"/>
   </g>
   <g id="line2d_100">
    <path clip-path="url(#pb3c5cda5be)" d="M 51.99517 164.824947 
L 67.433906 161.405959 
L 82.872641 159.364472 
L 98.311376 165.53015 
L 113.750111 164.832844 
L 129.188846 165.051398 
L 144.627582 165.707929 
L 160.066317 165.819577 
L 175.505052 165.795008 
L 190.943787 165.849141 
L 206.382522 165.90068 
L 221.821257 165.931336 
L 237.259993 165.923584 
L 252.698728 165.948614 
L 268.137463 165.931103 
L 283.576198 165.776526 
L 299.014933 164.142958 
L 314.453668 158.857141 
L 329.892404 154.904672 
L 345.331139 145.93666 
L 360.769874 55.214738 
L 376.208609 124.61261 
L 391.647344 152.843606 
L 407.08608 161.879848 
" style="fill:none;stroke:#1b9e77;stroke-linecap:square;stroke-opacity:0.5;stroke-width:1.5;"/>
   </g>
   <g id="line2d_101">
    <path clip-path="url(#pb3c5cda5be)" d="M 51.99517 165.541162 
L 67.433906 164.669966 
L 82.872641 153.205726 
L 98.311376 163.278385 
L 113.750111 137.498694 
L 129.188846 145.14046 
L 144.627582 160.477718 
L 160.066317 165.5745 
L 175.505052 164.914188 
L 190.943787 164.779354 
L 206.382522 160.547982 
L 221.821257 165.224758 
L 237.259993 163.662231 
L 252.698728 161.546153 
L 268.137463 128.968044 
L 283.576198 139.944991 
L 299.014933 110.895017 
L 314.453668 160.04662 
L 329.892404 163.20745 
L 345.331139 157.847801 
L 360.769874 163.921054 
L 376.208609 165.633092 
L 391.647344 165.597009 
L 407.08608 165.863142 
" style="fill:none;stroke:#1b9e77;stroke-linecap:square;stroke-opacity:0.5;stroke-width:1.5;"/>
   </g>
   <g id="line2d_102">
    <path clip-path="url(#pb3c5cda5be)" d="M 51.99517 165.474069 
L 67.433906 165.462038 
L 82.872641 162.863316 
L 98.311376 159.809453 
L 113.750111 15.482732 
L 129.188846 139.432467 
L 144.627582 162.535504 
L 160.066317 159.699855 
L 175.505052 163.35168 
L 190.943787 161.867923 
L 206.382522 164.408605 
L 221.821257 149.501874 
L 237.259993 164.588714 
L 252.698728 165.862142 
L 268.137463 165.80757 
L 283.576198 165.873377 
L 299.014933 165.858069 
L 314.453668 165.403602 
L 329.892404 165.726097 
L 345.331139 165.90446 
L 360.769874 165.88741 
L 376.208609 165.921878 
L 391.647344 165.891355 
L 407.08608 165.371316 
" style="fill:none;stroke:#1b9e77;stroke-linecap:square;stroke-opacity:0.5;stroke-width:1.5;"/>
   </g>
   <g id="line2d_103">
    <path clip-path="url(#pb3c5cda5be)" d="M 51.99517 163.859053 
L 67.433906 162.708896 
L 82.872641 163.720157 
L 98.311376 165.224155 
L 113.750111 165.600283 
L 129.188846 165.834881 
L 144.627582 165.816157 
L 160.066317 165.351899 
L 175.505052 163.004307 
L 190.943787 163.130354 
L 206.382522 164.969344 
L 221.821257 165.26283 
L 237.259993 164.756182 
L 252.698728 156.542504 
L 268.137463 125.918094 
L 283.576198 145.510575 
L 299.014933 160.659518 
L 314.453668 158.184539 
L 329.892404 142.132691 
L 345.331139 82.633337 
L 360.769874 155.308507 
L 376.208609 164.515332 
L 391.647344 164.782454 
L 407.08608 162.559452 
" style="fill:none;stroke:#1b9e77;stroke-linecap:square;stroke-opacity:0.5;stroke-width:1.5;"/>
   </g>
   <g id="line2d_104">
    <path clip-path="url(#pb3c5cda5be)" d="M 51.99517 152.135737 
L 67.433906 137.418064 
L 82.872641 133.983927 
L 98.311376 132.321252 
L 113.750111 164.086161 
L 129.188846 163.609917 
L 144.627582 165.609401 
L 160.066317 165.805774 
L 175.505052 165.677542 
L 190.943787 165.782076 
L 206.382522 165.845275 
L 221.821257 165.803611 
L 237.259993 164.094447 
L 252.698728 160.976251 
L 268.137463 106.718128 
L 283.576198 150.035465 
L 299.014933 164.797564 
L 314.453668 165.176621 
L 329.892404 165.782396 
L 345.331139 165.888447 
L 360.769874 158.885504 
L 376.208609 157.712022 
L 391.647344 154.516026 
L 407.08608 165.323889 
" style="fill:none;stroke:#1b9e77;stroke-linecap:square;stroke-opacity:0.5;stroke-width:1.5;"/>
   </g>
   <g id="line2d_105">
    <path clip-path="url(#pb3c5cda5be)" d="M 51.99517 136.100322 
L 67.433906 95.397521 
L 82.872641 115.421018 
L 98.311376 139.35238 
L 113.750111 156.381812 
L 129.188846 157.110818 
L 144.627582 157.891205 
L 160.066317 162.021885 
L 175.505052 163.645374 
L 190.943787 164.654221 
L 206.382522 164.913517 
L 221.821257 165.23776 
L 237.259993 165.488047 
L 252.698728 165.718543 
L 268.137463 165.7026 
L 283.576198 165.554092 
L 299.014933 165.452104 
L 314.453668 165.419368 
L 329.892404 165.150372 
L 345.331139 164.767075 
L 360.769874 164.934236 
L 376.208609 164.566065 
L 391.647344 164.463275 
L 407.08608 162.641891 
" style="fill:none;stroke:#1b9e77;stroke-linecap:square;stroke-opacity:0.5;stroke-width:1.5;"/>
   </g>
   <g id="line2d_106">
    <path clip-path="url(#pb3c5cda5be)" d="M 51.99517 139.967085 
L 67.433906 156.971573 
L 82.872641 164.171031 
L 98.311376 164.310082 
L 113.750111 164.647673 
L 129.188846 161.509836 
L 144.627582 160.56795 
L 160.066317 162.542065 
L 175.505052 163.421547 
L 190.943787 162.423581 
L 206.382522 154.238438 
L 221.821257 135.274326 
L 237.259993 138.788051 
L 252.698728 138.233904 
L 268.137463 148.73264 
L 283.576198 158.927687 
L 299.014933 159.904295 
L 314.453668 146.126086 
L 329.892404 155.453201 
L 345.331139 164.437412 
L 360.769874 165.086922 
L 376.208609 165.412889 
L 391.647344 164.851165 
L 407.08608 161.98606 
" style="fill:none;stroke:#1b9e77;stroke-linecap:square;stroke-opacity:0.5;stroke-width:1.5;"/>
   </g>
   <g id="line2d_107">
    <path clip-path="url(#pb3c5cda5be)" d="M 51.99517 165.900941 
L 67.433906 165.783227 
L 82.872641 165.849052 
L 98.311376 165.912331 
L 113.750111 165.9194 
L 129.188846 165.921078 
L 144.627582 165.914635 
L 160.066317 165.92052 
L 175.505052 165.883313 
L 190.943787 165.160681 
L 206.382522 162.873363 
L 221.821257 163.897058 
L 237.259993 163.059513 
L 252.698728 148.441411 
L 268.137463 145.373817 
L 283.576198 143.420658 
L 299.014933 135.35425 
L 314.453668 150.664736 
L 329.892404 144.002542 
L 345.331139 120.651584 
L 360.769874 147.583237 
L 376.208609 152.628537 
L 391.647344 157.738016 
L 407.08608 164.131599 
" style="fill:none;stroke:#1b9e77;stroke-linecap:square;stroke-opacity:0.5;stroke-width:1.5;"/>
   </g>
   <g id="line2d_108">
    <path clip-path="url(#pb3c5cda5be)" d="M 51.99517 158.887183 
L 67.433906 158.189422 
L 82.872641 161.077037 
L 98.311376 161.178493 
L 113.750111 164.454614 
L 129.188846 159.350896 
L 144.627582 162.771285 
L 160.066317 165.842159 
L 175.505052 165.808269 
L 190.943787 165.41609 
L 206.382522 160.824588 
L 221.821257 155.762834 
L 237.259993 148.758182 
L 252.698728 153.020573 
L 268.137463 131.522565 
L 283.576198 149.278949 
L 299.014933 157.042734 
L 314.453668 151.222883 
L 329.892404 142.68198 
L 345.331139 142.980814 
L 360.769874 156.232622 
L 376.208609 156.030299 
L 391.647344 164.220173 
L 407.08608 165.43086 
" style="fill:none;stroke:#1b9e77;stroke-linecap:square;stroke-opacity:0.5;stroke-width:1.5;"/>
   </g>
   <g id="line2d_109">
    <path clip-path="url(#pb3c5cda5be)" d="M 51.99517 165.864949 
L 67.433906 165.765818 
L 82.872641 165.840497 
L 98.311376 165.91828 
L 113.750111 165.934363 
L 129.188846 165.947915 
L 144.627582 165.946625 
L 160.066317 165.926072 
L 175.505052 165.870347 
L 190.943787 165.881407 
L 206.382522 165.858025 
L 221.821257 165.749508 
L 237.259993 164.46336 
L 252.698728 155.918414 
L 268.137463 154.735064 
L 283.576198 157.344742 
L 299.014933 155.406014 
L 314.453668 108.084146 
L 329.892404 90.546705 
L 345.331139 121.081175 
L 360.769874 164.867473 
L 376.208609 164.562944 
L 391.647344 164.981211 
L 407.08608 165.490451 
" style="fill:none;stroke:#1b9e77;stroke-linecap:square;stroke-opacity:0.5;stroke-width:1.5;"/>
   </g>
   <g id="line2d_110">
    <path clip-path="url(#pb3c5cda5be)" d="M 51.99517 165.276191 
L 67.433906 152.134607 
L 82.872641 124.789042 
L 98.311376 129.413221 
L 113.750111 129.368133 
L 129.188846 147.733442 
L 144.627582 152.478483 
L 160.066317 151.642727 
L 175.505052 152.69478 
L 190.943787 149.932271 
L 206.382522 165.509606 
L 221.821257 165.659408 
L 237.259993 165.280007 
L 252.698728 156.308297 
L 268.137463 157.367137 
L 283.576198 165.777259 
L 299.014933 165.660672 
L 314.453668 165.692462 
L 329.892404 165.817644 
L 345.331139 165.868235 
L 360.769874 165.88328 
L 376.208609 165.905561 
L 391.647344 165.917319 
L 407.08608 165.875712 
" style="fill:none;stroke:#1b9e77;stroke-linecap:square;stroke-opacity:0.5;stroke-width:1.5;"/>
   </g>
   <g id="line2d_111">
    <path clip-path="url(#pb3c5cda5be)" d="M 51.99517 165.918252 
L 67.433906 165.945493 
L 82.872641 165.662222 
L 98.311376 165.291643 
L 113.750111 136.657456 
L 129.188846 164.703619 
L 144.627582 164.099944 
L 160.066317 157.708144 
L 175.505052 32.938961 
L 190.943787 146.142034 
L 206.382522 165.474602 
L 221.821257 165.096175 
L 237.259993 150.639737 
L 252.698728 162.595319 
L 268.137463 163.524441 
L 283.576198 161.09364 
L 299.014933 163.462812 
L 314.453668 165.749359 
L 329.892404 165.78692 
L 345.331139 165.866196 
L 360.769874 165.907575 
L 376.208609 165.923309 
L 391.647344 165.912321 
L 407.08608 165.885324 
" style="fill:none;stroke:#1b9e77;stroke-linecap:square;stroke-opacity:0.5;stroke-width:1.5;"/>
   </g>
   <g id="line2d_112">
    <path clip-path="url(#pb3c5cda5be)" d="M 51.99517 165.96 
L 67.433906 165.96 
L 82.872641 165.96 
L 98.311376 165.96 
L 113.750111 165.96 
L 129.188846 165.96 
L 144.627582 165.96 
L 160.066317 165.96 
L 175.505052 165.96 
L 190.943787 165.96 
L 206.382522 165.96 
L 221.821257 165.96 
L 237.259993 165.96 
L 252.698728 165.753165 
L 268.137463 164.839974 
L 283.576198 164.485983 
L 299.014933 113.418807 
L 314.453668 58.674547 
L 329.892404 107.318209 
L 345.331139 162.174851 
L 360.769874 165.96 
L 376.208609 165.96 
L 391.647344 165.96 
L 407.08608 165.96 
" style="fill:none;stroke:#d95f02;stroke-linecap:square;stroke-width:1.5;"/>
   </g>
   <g id="patch_3">
    <path d="M 34.240625 173.52 
L 34.240625 7.2 
" style="fill:none;stroke:#000000;stroke-linecap:square;stroke-linejoin:miter;stroke-width:0.8;"/>
   </g>
   <g id="patch_4">
    <path d="M 34.240625 173.52 
L 424.840625 173.52 
" style="fill:none;stroke:#000000;stroke-linecap:square;stroke-linejoin:miter;stroke-width:0.8;"/>
   </g>
   <g id="legend_1">
    <g id="patch_5">
     <path d="M 366.673438 29.878125 
L 417.840625 29.878125 
Q 419.840625 29.878125 419.840625 27.878125 
L 419.840625 14.2 
Q 419.840625 12.2 417.840625 12.2 
L 366.673438 12.2 
Q 364.673438 12.2 364.673438 14.2 
L 364.673438 27.878125 
Q 364.673438 29.878125 366.673438 29.878125 
z
" style="fill:#ffffff;opacity:0.8;stroke:#cccccc;stroke-linejoin:miter;"/>
    </g>
    <g id="line2d_113">
     <path d="M 368.673438 20.298438 
L 388.673438 20.298438 
" style="fill:none;stroke:#d95f02;stroke-linecap:square;stroke-width:1.5;"/>
    </g>
    <g id="line2d_114"/>
    <g id="text_14">
     <!-- real -->
     <defs>
      <path d="M 9.421875 75.984375 
L 18.40625 75.984375 
L 18.40625 0 
L 9.421875 0 
z
" id="DejaVuSans-108"/>
     </defs>
     <g transform="translate(396.673438 23.798438)scale(0.1 -0.1)">
      <use xlink:href="#DejaVuSans-114"/>
      <use x="41.082031" xlink:href="#DejaVuSans-101"/>
      <use x="102.605469" xlink:href="#DejaVuSans-97"/>
      <use x="163.884766" xlink:href="#DejaVuSans-108"/>
     </g>
    </g>
   </g>
  </g>
 </g>
 <defs>
  <clipPath id="pb3c5cda5be">
   <rect height="166.32" width="390.6" x="34.240625" y="7.2"/>
  </clipPath>
 </defs>
</svg>
