<?xml version="1.0" encoding="utf-8" standalone="no"?>
<!DOCTYPE svg PUBLIC "-//W3C//DTD SVG 1.1//EN"
  "http://www.w3.org/Graphics/SVG/1.1/DTD/svg11.dtd">
<!-- Created with matplotlib (https://matplotlib.org/) -->
<svg height="211.07625pt" version="1.1" viewBox="0 0 445.62794 211.07625" width="445.62794pt" xmlns="http://www.w3.org/2000/svg" xmlns:xlink="http://www.w3.org/1999/xlink">
 <defs>
  <style type="text/css">
*{stroke-linecap:butt;stroke-linejoin:round;}
  </style>
 </defs>
 <g id="figure_1">
  <g id="patch_1">
   <path d="M 0 211.07625 
L 445.62794 211.07625 
L 445.62794 0 
L 0 0 
z
" style="fill:#ffffff;"/>
  </g>
  <g id="axes_1">
   <g id="patch_2">
    <path d="M 43.78125 173.52 
L 434.38125 173.52 
L 434.38125 7.2 
L 43.78125 7.2 
z
" style="fill:#ffffff;"/>
   </g>
   <g id="matplotlib.axis_1">
    <g id="xtick_1">
     <g id="line2d_1">
      <defs>
       <path d="M 0 0 
L 0 3.5 
" id="m7c03cfe453" style="stroke:#000000;stroke-width:0.8;"/>
      </defs>
      <g>
       <use style="stroke:#000000;stroke-width:0.8;" x="46.09706" xlink:href="#m7c03cfe453" y="173.52"/>
      </g>
     </g>
     <g id="text_1">
      <!-- 0 -->
      <defs>
       <path d="M 31.78125 66.40625 
Q 24.171875 66.40625 20.328125 58.90625 
Q 16.5 51.421875 16.5 36.375 
Q 16.5 21.390625 20.328125 13.890625 
Q 24.171875 6.390625 31.78125 6.390625 
Q 39.453125 6.390625 43.28125 13.890625 
Q 47.125 21.390625 47.125 36.375 
Q 47.125 51.421875 43.28125 58.90625 
Q 39.453125 66.40625 31.78125 66.40625 
z
M 31.78125 74.21875 
Q 44.046875 74.21875 50.515625 64.515625 
Q 56.984375 54.828125 56.984375 36.375 
Q 56.984375 17.96875 50.515625 8.265625 
Q 44.046875 -1.421875 31.78125 -1.421875 
Q 19.53125 -1.421875 13.0625 8.265625 
Q 6.59375 17.96875 6.59375 36.375 
Q 6.59375 54.828125 13.0625 64.515625 
Q 19.53125 74.21875 31.78125 74.21875 
z
" id="DejaVuSans-48"/>
      </defs>
      <g transform="translate(42.91581 188.118438)scale(0.1 -0.1)">
       <use xlink:href="#DejaVuSans-48"/>
      </g>
     </g>
    </g>
    <g id="xtick_2">
     <g id="line2d_2">
      <g>
       <use style="stroke:#000000;stroke-width:0.8;" x="123.290736" xlink:href="#m7c03cfe453" y="173.52"/>
      </g>
     </g>
     <g id="text_2">
      <!-- 5 -->
      <defs>
       <path d="M 10.796875 72.90625 
L 49.515625 72.90625 
L 49.515625 64.59375 
L 19.828125 64.59375 
L 19.828125 46.734375 
Q 21.96875 47.46875 24.109375 47.828125 
Q 26.265625 48.1875 28.421875 48.1875 
Q 40.625 48.1875 47.75 41.5 
Q 54.890625 34.8125 54.890625 23.390625 
Q 54.890625 11.625 47.5625 5.09375 
Q 40.234375 -1.421875 26.90625 -1.421875 
Q 22.3125 -1.421875 17.546875 -0.640625 
Q 12.796875 0.140625 7.71875 1.703125 
L 7.71875 11.625 
Q 12.109375 9.234375 16.796875 8.0625 
Q 21.484375 6.890625 26.703125 6.890625 
Q 35.15625 6.890625 40.078125 11.328125 
Q 45.015625 15.765625 45.015625 23.390625 
Q 45.015625 31 40.078125 35.4375 
Q 35.15625 39.890625 26.703125 39.890625 
Q 22.75 39.890625 18.8125 39.015625 
Q 14.890625 38.140625 10.796875 36.28125 
z
" id="DejaVuSans-53"/>
      </defs>
      <g transform="translate(120.109486 188.118438)scale(0.1 -0.1)">
       <use xlink:href="#DejaVuSans-53"/>
      </g>
     </g>
    </g>
    <g id="xtick_3">
     <g id="line2d_3">
      <g>
       <use style="stroke:#000000;stroke-width:0.8;" x="200.484412" xlink:href="#m7c03cfe453" y="173.52"/>
      </g>
     </g>
     <g id="text_3">
      <!-- 10 -->
      <defs>
       <path d="M 12.40625 8.296875 
L 28.515625 8.296875 
L 28.515625 63.921875 
L 10.984375 60.40625 
L 10.984375 69.390625 
L 28.421875 72.90625 
L 38.28125 72.90625 
L 38.28125 8.296875 
L 54.390625 8.296875 
L 54.390625 0 
L 12.40625 0 
z
" id="DejaVuSans-49"/>
      </defs>
      <g transform="translate(194.121912 188.118438)scale(0.1 -0.1)">
       <use xlink:href="#DejaVuSans-49"/>
       <use x="63.623047" xlink:href="#DejaVuSans-48"/>
      </g>
     </g>
    </g>
    <g id="xtick_4">
     <g id="line2d_4">
      <g>
       <use style="stroke:#000000;stroke-width:0.8;" x="277.678088" xlink:href="#m7c03cfe453" y="173.52"/>
      </g>
     </g>
     <g id="text_4">
      <!-- 15 -->
      <g transform="translate(271.315588 188.118438)scale(0.1 -0.1)">
       <use xlink:href="#DejaVuSans-49"/>
       <use x="63.623047" xlink:href="#DejaVuSans-53"/>
      </g>
     </g>
    </g>
    <g id="xtick_5">
     <g id="line2d_5">
      <g>
       <use style="stroke:#000000;stroke-width:0.8;" x="354.871764" xlink:href="#m7c03cfe453" y="173.52"/>
      </g>
     </g>
     <g id="text_5">
      <!-- 20 -->
      <defs>
       <path d="M 19.1875 8.296875 
L 53.609375 8.296875 
L 53.609375 0 
L 7.328125 0 
L 7.328125 8.296875 
Q 12.9375 14.109375 22.625 23.890625 
Q 32.328125 33.6875 34.8125 36.53125 
Q 39.546875 41.84375 41.421875 45.53125 
Q 43.3125 49.21875 43.3125 52.78125 
Q 43.3125 58.59375 39.234375 62.25 
Q 35.15625 65.921875 28.609375 65.921875 
Q 23.96875 65.921875 18.8125 64.3125 
Q 13.671875 62.703125 7.8125 59.421875 
L 7.8125 69.390625 
Q 13.765625 71.78125 18.9375 73 
Q 24.125 74.21875 28.421875 74.21875 
Q 39.75 74.21875 46.484375 68.546875 
Q 53.21875 62.890625 53.21875 53.421875 
Q 53.21875 48.921875 51.53125 44.890625 
Q 49.859375 40.875 45.40625 35.40625 
Q 44.1875 33.984375 37.640625 27.21875 
Q 31.109375 20.453125 19.1875 8.296875 
z
" id="DejaVuSans-50"/>
      </defs>
      <g transform="translate(348.509264 188.118438)scale(0.1 -0.1)">
       <use xlink:href="#DejaVuSans-50"/>
       <use x="63.623047" xlink:href="#DejaVuSans-48"/>
      </g>
     </g>
    </g>
    <g id="xtick_6">
     <g id="line2d_6">
      <g>
       <use style="stroke:#000000;stroke-width:0.8;" x="432.06544" xlink:href="#m7c03cfe453" y="173.52"/>
      </g>
     </g>
     <g id="text_6">
      <!-- 25 -->
      <g transform="translate(425.70294 188.118438)scale(0.1 -0.1)">
       <use xlink:href="#DejaVuSans-50"/>
       <use x="63.623047" xlink:href="#DejaVuSans-53"/>
      </g>
     </g>
    </g>
    <g id="text_7">
     <!-- hour -->
     <defs>
      <path d="M 54.890625 33.015625 
L 54.890625 0 
L 45.90625 0 
L 45.90625 32.71875 
Q 45.90625 40.484375 42.875 44.328125 
Q 39.84375 48.1875 33.796875 48.1875 
Q 26.515625 48.1875 22.3125 43.546875 
Q 18.109375 38.921875 18.109375 30.90625 
L 18.109375 0 
L 9.078125 0 
L 9.078125 75.984375 
L 18.109375 75.984375 
L 18.109375 46.1875 
Q 21.34375 51.125 25.703125 53.5625 
Q 30.078125 56 35.796875 56 
Q 45.21875 56 50.046875 50.171875 
Q 54.890625 44.34375 54.890625 33.015625 
z
" id="DejaVuSans-104"/>
      <path d="M 30.609375 48.390625 
Q 23.390625 48.390625 19.1875 42.75 
Q 14.984375 37.109375 14.984375 27.296875 
Q 14.984375 17.484375 19.15625 11.84375 
Q 23.34375 6.203125 30.609375 6.203125 
Q 37.796875 6.203125 41.984375 11.859375 
Q 46.1875 17.53125 46.1875 27.296875 
Q 46.1875 37.015625 41.984375 42.703125 
Q 37.796875 48.390625 30.609375 48.390625 
z
M 30.609375 56 
Q 42.328125 56 49.015625 48.375 
Q 55.71875 40.765625 55.71875 27.296875 
Q 55.71875 13.875 49.015625 6.21875 
Q 42.328125 -1.421875 30.609375 -1.421875 
Q 18.84375 -1.421875 12.171875 6.21875 
Q 5.515625 13.875 5.515625 27.296875 
Q 5.515625 40.765625 12.171875 48.375 
Q 18.84375 56 30.609375 56 
z
" id="DejaVuSans-111"/>
      <path d="M 8.5 21.578125 
L 8.5 54.6875 
L 17.484375 54.6875 
L 17.484375 21.921875 
Q 17.484375 14.15625 20.5 10.265625 
Q 23.53125 6.390625 29.59375 6.390625 
Q 36.859375 6.390625 41.078125 11.03125 
Q 45.3125 15.671875 45.3125 23.6875 
L 45.3125 54.6875 
L 54.296875 54.6875 
L 54.296875 0 
L 45.3125 0 
L 45.3125 8.40625 
Q 42.046875 3.421875 37.71875 1 
Q 33.40625 -1.421875 27.6875 -1.421875 
Q 18.265625 -1.421875 13.375 4.4375 
Q 8.5 10.296875 8.5 21.578125 
z
M 31.109375 56 
z
" id="DejaVuSans-117"/>
      <path d="M 41.109375 46.296875 
Q 39.59375 47.171875 37.8125 47.578125 
Q 36.03125 48 33.890625 48 
Q 26.265625 48 22.1875 43.046875 
Q 18.109375 38.09375 18.109375 28.8125 
L 18.109375 0 
L 9.078125 0 
L 9.078125 54.6875 
L 18.109375 54.6875 
L 18.109375 46.1875 
Q 20.953125 51.171875 25.484375 53.578125 
Q 30.03125 56 36.53125 56 
Q 37.453125 56 38.578125 55.875 
Q 39.703125 55.765625 41.0625 55.515625 
z
" id="DejaVuSans-114"/>
     </defs>
     <g transform="translate(227.628906 201.796563)scale(0.1 -0.1)">
      <use xlink:href="#DejaVuSans-104"/>
      <use x="63.378906" xlink:href="#DejaVuSans-111"/>
      <use x="124.560547" xlink:href="#DejaVuSans-117"/>
      <use x="187.939453" xlink:href="#DejaVuSans-114"/>
     </g>
    </g>
   </g>
   <g id="matplotlib.axis_2">
    <g id="ytick_1">
     <g id="line2d_7">
      <defs>
       <path d="M 0 0 
L -3.5 0 
" id="m6d12ca7a98" style="stroke:#000000;stroke-width:0.8;"/>
      </defs>
      <g>
       <use style="stroke:#000000;stroke-width:0.8;" x="43.78125" xlink:href="#m6d12ca7a98" y="165.964423"/>
      </g>
     </g>
     <g id="text_8">
      <!-- 0.0 -->
      <defs>
       <path d="M 10.6875 12.40625 
L 21 12.40625 
L 21 0 
L 10.6875 0 
z
" id="DejaVuSans-46"/>
      </defs>
      <g transform="translate(20.878125 169.763642)scale(0.1 -0.1)">
       <use xlink:href="#DejaVuSans-48"/>
       <use x="63.623047" xlink:href="#DejaVuSans-46"/>
       <use x="95.410156" xlink:href="#DejaVuSans-48"/>
      </g>
     </g>
    </g>
    <g id="ytick_2">
     <g id="line2d_8">
      <g>
       <use style="stroke:#000000;stroke-width:0.8;" x="43.78125" xlink:href="#m6d12ca7a98" y="142.121257"/>
      </g>
     </g>
     <g id="text_9">
      <!-- 0.5 -->
      <g transform="translate(20.878125 145.920476)scale(0.1 -0.1)">
       <use xlink:href="#DejaVuSans-48"/>
       <use x="63.623047" xlink:href="#DejaVuSans-46"/>
       <use x="95.410156" xlink:href="#DejaVuSans-53"/>
      </g>
     </g>
    </g>
    <g id="ytick_3">
     <g id="line2d_9">
      <g>
       <use style="stroke:#000000;stroke-width:0.8;" x="43.78125" xlink:href="#m6d12ca7a98" y="118.278091"/>
      </g>
     </g>
     <g id="text_10">
      <!-- 1.0 -->
      <g transform="translate(20.878125 122.07731)scale(0.1 -0.1)">
       <use xlink:href="#DejaVuSans-49"/>
       <use x="63.623047" xlink:href="#DejaVuSans-46"/>
       <use x="95.410156" xlink:href="#DejaVuSans-48"/>
      </g>
     </g>
    </g>
    <g id="ytick_4">
     <g id="line2d_10">
      <g>
       <use style="stroke:#000000;stroke-width:0.8;" x="43.78125" xlink:href="#m6d12ca7a98" y="94.434925"/>
      </g>
     </g>
     <g id="text_11">
      <!-- 1.5 -->
      <g transform="translate(20.878125 98.234144)scale(0.1 -0.1)">
       <use xlink:href="#DejaVuSans-49"/>
       <use x="63.623047" xlink:href="#DejaVuSans-46"/>
       <use x="95.410156" xlink:href="#DejaVuSans-53"/>
      </g>
     </g>
    </g>
    <g id="ytick_5">
     <g id="line2d_11">
      <g>
       <use style="stroke:#000000;stroke-width:0.8;" x="43.78125" xlink:href="#m6d12ca7a98" y="70.591759"/>
      </g>
     </g>
     <g id="text_12">
      <!-- 2.0 -->
      <g transform="translate(20.878125 74.390977)scale(0.1 -0.1)">
       <use xlink:href="#DejaVuSans-50"/>
       <use x="63.623047" xlink:href="#DejaVuSans-46"/>
       <use x="95.410156" xlink:href="#DejaVuSans-48"/>
      </g>
     </g>
    </g>
    <g id="ytick_6">
     <g id="line2d_12">
      <g>
       <use style="stroke:#000000;stroke-width:0.8;" x="43.78125" xlink:href="#m6d12ca7a98" y="46.748593"/>
      </g>
     </g>
     <g id="text_13">
      <!-- 2.5 -->
      <g transform="translate(20.878125 50.547811)scale(0.1 -0.1)">
       <use xlink:href="#DejaVuSans-50"/>
       <use x="63.623047" xlink:href="#DejaVuSans-46"/>
       <use x="95.410156" xlink:href="#DejaVuSans-53"/>
      </g>
     </g>
    </g>
    <g id="ytick_7">
     <g id="line2d_13">
      <g>
       <use style="stroke:#000000;stroke-width:0.8;" x="43.78125" xlink:href="#m6d12ca7a98" y="22.905427"/>
      </g>
     </g>
     <g id="text_14">
      <!-- 3.0 -->
      <defs>
       <path d="M 40.578125 39.3125 
Q 47.65625 37.796875 51.625 33 
Q 55.609375 28.21875 55.609375 21.1875 
Q 55.609375 10.40625 48.1875 4.484375 
Q 40.765625 -1.421875 27.09375 -1.421875 
Q 22.515625 -1.421875 17.65625 -0.515625 
Q 12.796875 0.390625 7.625 2.203125 
L 7.625 11.71875 
Q 11.71875 9.328125 16.59375 8.109375 
Q 21.484375 6.890625 26.8125 6.890625 
Q 36.078125 6.890625 40.9375 10.546875 
Q 45.796875 14.203125 45.796875 21.1875 
Q 45.796875 27.640625 41.28125 31.265625 
Q 36.765625 34.90625 28.71875 34.90625 
L 20.21875 34.90625 
L 20.21875 43.015625 
L 29.109375 43.015625 
Q 36.375 43.015625 40.234375 45.921875 
Q 44.09375 48.828125 44.09375 54.296875 
Q 44.09375 59.90625 40.109375 62.90625 
Q 36.140625 65.921875 28.71875 65.921875 
Q 24.65625 65.921875 20.015625 65.03125 
Q 15.375 64.15625 9.8125 62.3125 
L 9.8125 71.09375 
Q 15.4375 72.65625 20.34375 73.4375 
Q 25.25 74.21875 29.59375 74.21875 
Q 40.828125 74.21875 47.359375 69.109375 
Q 53.90625 64.015625 53.90625 55.328125 
Q 53.90625 49.265625 50.4375 45.09375 
Q 46.96875 40.921875 40.578125 39.3125 
z
" id="DejaVuSans-51"/>
      </defs>
      <g transform="translate(20.878125 26.704645)scale(0.1 -0.1)">
       <use xlink:href="#DejaVuSans-51"/>
       <use x="63.623047" xlink:href="#DejaVuSans-46"/>
       <use x="95.410156" xlink:href="#DejaVuSans-48"/>
      </g>
     </g>
    </g>
    <g id="text_15">
     <!-- precipitation [mm/hour] -->
     <defs>
      <path d="M 18.109375 8.203125 
L 18.109375 -20.796875 
L 9.078125 -20.796875 
L 9.078125 54.6875 
L 18.109375 54.6875 
L 18.109375 46.390625 
Q 20.953125 51.265625 25.265625 53.625 
Q 29.59375 56 35.59375 56 
Q 45.5625 56 51.78125 48.09375 
Q 58.015625 40.1875 58.015625 27.296875 
Q 58.015625 14.40625 51.78125 6.484375 
Q 45.5625 -1.421875 35.59375 -1.421875 
Q 29.59375 -1.421875 25.265625 0.953125 
Q 20.953125 3.328125 18.109375 8.203125 
z
M 48.6875 27.296875 
Q 48.6875 37.203125 44.609375 42.84375 
Q 40.53125 48.484375 33.40625 48.484375 
Q 26.265625 48.484375 22.1875 42.84375 
Q 18.109375 37.203125 18.109375 27.296875 
Q 18.109375 17.390625 22.1875 11.75 
Q 26.265625 6.109375 33.40625 6.109375 
Q 40.53125 6.109375 44.609375 11.75 
Q 48.6875 17.390625 48.6875 27.296875 
z
" id="DejaVuSans-112"/>
      <path d="M 56.203125 29.59375 
L 56.203125 25.203125 
L 14.890625 25.203125 
Q 15.484375 15.921875 20.484375 11.0625 
Q 25.484375 6.203125 34.421875 6.203125 
Q 39.59375 6.203125 44.453125 7.46875 
Q 49.3125 8.734375 54.109375 11.28125 
L 54.109375 2.78125 
Q 49.265625 0.734375 44.1875 -0.34375 
Q 39.109375 -1.421875 33.890625 -1.421875 
Q 20.796875 -1.421875 13.15625 6.1875 
Q 5.515625 13.8125 5.515625 26.8125 
Q 5.515625 40.234375 12.765625 48.109375 
Q 20.015625 56 32.328125 56 
Q 43.359375 56 49.78125 48.890625 
Q 56.203125 41.796875 56.203125 29.59375 
z
M 47.21875 32.234375 
Q 47.125 39.59375 43.09375 43.984375 
Q 39.0625 48.390625 32.421875 48.390625 
Q 24.90625 48.390625 20.390625 44.140625 
Q 15.875 39.890625 15.1875 32.171875 
z
" id="DejaVuSans-101"/>
      <path d="M 48.78125 52.59375 
L 48.78125 44.1875 
Q 44.96875 46.296875 41.140625 47.34375 
Q 37.3125 48.390625 33.40625 48.390625 
Q 24.65625 48.390625 19.8125 42.84375 
Q 14.984375 37.3125 14.984375 27.296875 
Q 14.984375 17.28125 19.8125 11.734375 
Q 24.65625 6.203125 33.40625 6.203125 
Q 37.3125 6.203125 41.140625 7.25 
Q 44.96875 8.296875 48.78125 10.40625 
L 48.78125 2.09375 
Q 45.015625 0.34375 40.984375 -0.53125 
Q 36.96875 -1.421875 32.421875 -1.421875 
Q 20.0625 -1.421875 12.78125 6.34375 
Q 5.515625 14.109375 5.515625 27.296875 
Q 5.515625 40.671875 12.859375 48.328125 
Q 20.21875 56 33.015625 56 
Q 37.15625 56 41.109375 55.140625 
Q 45.0625 54.296875 48.78125 52.59375 
z
" id="DejaVuSans-99"/>
      <path d="M 9.421875 54.6875 
L 18.40625 54.6875 
L 18.40625 0 
L 9.421875 0 
z
M 9.421875 75.984375 
L 18.40625 75.984375 
L 18.40625 64.59375 
L 9.421875 64.59375 
z
" id="DejaVuSans-105"/>
      <path d="M 18.3125 70.21875 
L 18.3125 54.6875 
L 36.8125 54.6875 
L 36.8125 47.703125 
L 18.3125 47.703125 
L 18.3125 18.015625 
Q 18.3125 11.328125 20.140625 9.421875 
Q 21.96875 7.515625 27.59375 7.515625 
L 36.8125 7.515625 
L 36.8125 0 
L 27.59375 0 
Q 17.1875 0 13.234375 3.875 
Q 9.28125 7.765625 9.28125 18.015625 
L 9.28125 47.703125 
L 2.6875 47.703125 
L 2.6875 54.6875 
L 9.28125 54.6875 
L 9.28125 70.21875 
z
" id="DejaVuSans-116"/>
      <path d="M 34.28125 27.484375 
Q 23.390625 27.484375 19.1875 25 
Q 14.984375 22.515625 14.984375 16.5 
Q 14.984375 11.71875 18.140625 8.90625 
Q 21.296875 6.109375 26.703125 6.109375 
Q 34.1875 6.109375 38.703125 11.40625 
Q 43.21875 16.703125 43.21875 25.484375 
L 43.21875 27.484375 
z
M 52.203125 31.203125 
L 52.203125 0 
L 43.21875 0 
L 43.21875 8.296875 
Q 40.140625 3.328125 35.546875 0.953125 
Q 30.953125 -1.421875 24.3125 -1.421875 
Q 15.921875 -1.421875 10.953125 3.296875 
Q 6 8.015625 6 15.921875 
Q 6 25.140625 12.171875 29.828125 
Q 18.359375 34.515625 30.609375 34.515625 
L 43.21875 34.515625 
L 43.21875 35.40625 
Q 43.21875 41.609375 39.140625 45 
Q 35.0625 48.390625 27.6875 48.390625 
Q 23 48.390625 18.546875 47.265625 
Q 14.109375 46.140625 10.015625 43.890625 
L 10.015625 52.203125 
Q 14.9375 54.109375 19.578125 55.046875 
Q 24.21875 56 28.609375 56 
Q 40.484375 56 46.34375 49.84375 
Q 52.203125 43.703125 52.203125 31.203125 
z
" id="DejaVuSans-97"/>
      <path d="M 54.890625 33.015625 
L 54.890625 0 
L 45.90625 0 
L 45.90625 32.71875 
Q 45.90625 40.484375 42.875 44.328125 
Q 39.84375 48.1875 33.796875 48.1875 
Q 26.515625 48.1875 22.3125 43.546875 
Q 18.109375 38.921875 18.109375 30.90625 
L 18.109375 0 
L 9.078125 0 
L 9.078125 54.6875 
L 18.109375 54.6875 
L 18.109375 46.1875 
Q 21.34375 51.125 25.703125 53.5625 
Q 30.078125 56 35.796875 56 
Q 45.21875 56 50.046875 50.171875 
Q 54.890625 44.34375 54.890625 33.015625 
z
" id="DejaVuSans-110"/>
      <path id="DejaVuSans-32"/>
      <path d="M 8.59375 75.984375 
L 29.296875 75.984375 
L 29.296875 69 
L 17.578125 69 
L 17.578125 -6.203125 
L 29.296875 -6.203125 
L 29.296875 -13.1875 
L 8.59375 -13.1875 
z
" id="DejaVuSans-91"/>
      <path d="M 52 44.1875 
Q 55.375 50.25 60.0625 53.125 
Q 64.75 56 71.09375 56 
Q 79.640625 56 84.28125 50.015625 
Q 88.921875 44.046875 88.921875 33.015625 
L 88.921875 0 
L 79.890625 0 
L 79.890625 32.71875 
Q 79.890625 40.578125 77.09375 44.375 
Q 74.3125 48.1875 68.609375 48.1875 
Q 61.625 48.1875 57.5625 43.546875 
Q 53.515625 38.921875 53.515625 30.90625 
L 53.515625 0 
L 44.484375 0 
L 44.484375 32.71875 
Q 44.484375 40.625 41.703125 44.40625 
Q 38.921875 48.1875 33.109375 48.1875 
Q 26.21875 48.1875 22.15625 43.53125 
Q 18.109375 38.875 18.109375 30.90625 
L 18.109375 0 
L 9.078125 0 
L 9.078125 54.6875 
L 18.109375 54.6875 
L 18.109375 46.1875 
Q 21.1875 51.21875 25.484375 53.609375 
Q 29.78125 56 35.6875 56 
Q 41.65625 56 45.828125 52.96875 
Q 50 49.953125 52 44.1875 
z
" id="DejaVuSans-109"/>
      <path d="M 25.390625 72.90625 
L 33.6875 72.90625 
L 8.296875 -9.28125 
L 0 -9.28125 
z
" id="DejaVuSans-47"/>
      <path d="M 30.421875 75.984375 
L 30.421875 -13.1875 
L 9.71875 -13.1875 
L 9.71875 -6.203125 
L 21.390625 -6.203125 
L 21.390625 69 
L 9.71875 69 
L 9.71875 75.984375 
z
" id="DejaVuSans-93"/>
     </defs>
     <g transform="translate(14.798438 150.335781)rotate(-90)scale(0.1 -0.1)">
      <use xlink:href="#DejaVuSans-112"/>
      <use x="63.476562" xlink:href="#DejaVuSans-114"/>
      <use x="104.558594" xlink:href="#DejaVuSans-101"/>
      <use x="166.082031" xlink:href="#DejaVuSans-99"/>
      <use x="221.0625" xlink:href="#DejaVuSans-105"/>
      <use x="248.845703" xlink:href="#DejaVuSans-112"/>
      <use x="312.322266" xlink:href="#DejaVuSans-105"/>
      <use x="340.105469" xlink:href="#DejaVuSans-116"/>
      <use x="379.314453" xlink:href="#DejaVuSans-97"/>
      <use x="440.59375" xlink:href="#DejaVuSans-116"/>
      <use x="479.802734" xlink:href="#DejaVuSans-105"/>
      <use x="507.585938" xlink:href="#DejaVuSans-111"/>
      <use x="568.767578" xlink:href="#DejaVuSans-110"/>
      <use x="632.146484" xlink:href="#DejaVuSans-32"/>
      <use x="663.933594" xlink:href="#DejaVuSans-91"/>
      <use x="702.947266" xlink:href="#DejaVuSans-109"/>
      <use x="800.359375" xlink:href="#DejaVuSans-109"/>
      <use x="897.771484" xlink:href="#DejaVuSans-47"/>
      <use x="931.462891" xlink:href="#DejaVuSans-104"/>
      <use x="994.841797" xlink:href="#DejaVuSans-111"/>
      <use x="1056.023438" xlink:href="#DejaVuSans-117"/>
      <use x="1119.402344" xlink:href="#DejaVuSans-114"/>
      <use x="1160.515625" xlink:href="#DejaVuSans-93"/>
     </g>
    </g>
   </g>
   <g id="line2d_14">
    <path clip-path="url(#pda61a09c83)" d="M 61.535795 165.902584 
L 76.974531 165.952145 
L 92.413266 165.881633 
L 107.852001 165.834783 
L 123.290736 164.201865 
L 138.729471 158.166817 
L 154.168207 163.535617 
L 169.606942 162.574844 
L 185.045677 129.338557 
L 200.484412 120.157704 
L 215.923147 157.357132 
L 231.361882 153.669401 
L 246.800618 154.002881 
L 262.239353 160.302549 
L 277.678088 160.663221 
L 293.116823 155.526307 
L 308.555558 152.601087 
L 323.994293 157.359174 
L 339.433029 152.886672 
L 354.871764 160.682983 
L 370.310499 163.40844 
L 385.749234 162.329528 
L 401.187969 162.652597 
L 416.626705 163.775697 
" style="fill:none;stroke:#1b9e77;stroke-linecap:square;stroke-opacity:0.5;stroke-width:1.5;"/>
   </g>
   <g id="line2d_15">
    <path clip-path="url(#pda61a09c83)" d="M 61.535795 154.074466 
L 76.974531 143.57899 
L 92.413266 136.419663 
L 107.852001 137.071801 
L 123.290736 130.897397 
L 138.729471 151.387784 
L 154.168207 161.914778 
L 169.606942 163.179128 
L 185.045677 161.477612 
L 200.484412 161.257051 
L 215.923147 163.590121 
L 231.361882 165.162029 
L 246.800618 165.529001 
L 262.239353 165.671013 
L 277.678088 165.629746 
L 293.116823 165.766399 
L 308.555558 165.831637 
L 323.994293 165.810566 
L 339.433029 165.794738 
L 354.871764 165.674999 
L 370.310499 165.419706 
L 385.749234 165.645455 
L 401.187969 165.584681 
L 416.626705 126.395458 
" style="fill:none;stroke:#1b9e77;stroke-linecap:square;stroke-opacity:0.5;stroke-width:1.5;"/>
   </g>
   <g id="line2d_16">
    <path clip-path="url(#pda61a09c83)" d="M 61.535795 165.822259 
L 76.974531 165.523053 
L 92.413266 165.627692 
L 107.852001 165.821469 
L 123.290736 165.876887 
L 138.729471 165.915017 
L 154.168207 165.924473 
L 169.606942 165.934269 
L 185.045677 165.9375 
L 200.484412 165.948124 
L 215.923147 165.94005 
L 231.361882 165.345592 
L 246.800618 164.117233 
L 262.239353 163.357954 
L 277.678088 163.2825 
L 293.116823 161.457144 
L 308.555558 156.585026 
L 323.994293 140.837901 
L 339.433029 107.952975 
L 354.871764 159.667331 
L 370.310499 156.34597 
L 385.749234 149.918032 
L 401.187969 108.961853 
L 416.626705 156.663916 
" style="fill:none;stroke:#1b9e77;stroke-linecap:square;stroke-opacity:0.5;stroke-width:1.5;"/>
   </g>
   <g id="line2d_17">
    <path clip-path="url(#pda61a09c83)" d="M 61.535795 165.465843 
L 76.974531 165.06327 
L 92.413266 165.138659 
L 107.852001 165.335686 
L 123.290736 165.614568 
L 138.729471 165.709981 
L 154.168207 165.740012 
L 169.606942 165.811861 
L 185.045677 165.811082 
L 200.484412 165.829219 
L 215.923147 165.80371 
L 231.361882 165.731899 
L 246.800618 163.786822 
L 262.239353 157.504717 
L 277.678088 138.567629 
L 293.116823 97.86874 
L 308.555558 112.033482 
L 323.994293 128.857177 
L 339.433029 164.972963 
L 354.871764 165.625149 
L 370.310499 165.428246 
L 385.749234 165.640057 
L 401.187969 165.705289 
L 416.626705 165.718157 
" style="fill:none;stroke:#1b9e77;stroke-linecap:square;stroke-opacity:0.5;stroke-width:1.5;"/>
   </g>
   <g id="line2d_18">
    <path clip-path="url(#pda61a09c83)" d="M 61.535795 165.741502 
L 76.974531 165.053891 
L 92.413266 165.061533 
L 107.852001 165.210985 
L 123.290736 165.053146 
L 138.729471 165.331345 
L 154.168207 161.464201 
L 169.606942 148.51116 
L 185.045677 137.786344 
L 200.484412 131.559011 
L 215.923147 133.753708 
L 231.361882 96.289532 
L 246.800618 157.066751 
L 262.239353 165.269137 
L 277.678088 165.357732 
L 293.116823 165.169254 
L 308.555558 165.094768 
L 323.994293 165.341594 
L 339.433029 165.524955 
L 354.871764 165.674714 
L 370.310499 165.717183 
L 385.749234 165.874605 
L 401.187969 165.927941 
L 416.626705 165.929228 
" style="fill:none;stroke:#1b9e77;stroke-linecap:square;stroke-opacity:0.5;stroke-width:1.5;"/>
   </g>
   <g id="line2d_19">
    <path clip-path="url(#pda61a09c83)" d="M 61.535795 153.118121 
L 76.974531 131.775949 
L 92.413266 125.398188 
L 107.852001 144.512521 
L 123.290736 151.095866 
L 138.729471 155.987561 
L 154.168207 158.151479 
L 169.606942 157.655563 
L 185.045677 155.645648 
L 200.484412 157.219905 
L 215.923147 160.304528 
L 231.361882 160.801971 
L 246.800618 159.77613 
L 262.239353 161.493512 
L 277.678088 163.431955 
L 293.116823 163.82425 
L 308.555558 163.475904 
L 323.994293 163.736967 
L 339.433029 164.35521 
L 354.871764 165.062153 
L 370.310499 165.374311 
L 385.749234 165.747277 
L 401.187969 165.839363 
L 416.626705 164.979888 
" style="fill:none;stroke:#1b9e77;stroke-linecap:square;stroke-opacity:0.5;stroke-width:1.5;"/>
   </g>
   <g id="line2d_20">
    <path clip-path="url(#pda61a09c83)" d="M 61.535795 165.293183 
L 76.974531 165.18619 
L 92.413266 165.861411 
L 107.852001 165.881066 
L 123.290736 165.876273 
L 138.729471 165.813075 
L 154.168207 165.862412 
L 169.606942 165.928431 
L 185.045677 165.853548 
L 200.484412 165.866695 
L 215.923147 165.904195 
L 231.361882 165.907576 
L 246.800618 165.894749 
L 262.239353 165.907212 
L 277.678088 165.545051 
L 293.116823 146.532268 
L 308.555558 144.263772 
L 323.994293 137.929831 
L 339.433029 138.519526 
L 354.871764 136.56268 
L 370.310499 136.205144 
L 385.749234 148.276896 
L 401.187969 142.57525 
L 416.626705 161.317777 
" style="fill:none;stroke:#1b9e77;stroke-linecap:square;stroke-opacity:0.5;stroke-width:1.5;"/>
   </g>
   <g id="line2d_21">
    <path clip-path="url(#pda61a09c83)" d="M 61.535795 102.844313 
L 76.974531 83.57013 
L 92.413266 156.839838 
L 107.852001 162.766273 
L 123.290736 162.838007 
L 138.729471 164.82367 
L 154.168207 155.648359 
L 169.606942 158.204295 
L 185.045677 165.215752 
L 200.484412 165.465805 
L 215.923147 165.403753 
L 231.361882 153.464325 
L 246.800618 164.5931 
L 262.239353 165.638358 
L 277.678088 165.365997 
L 293.116823 165.337773 
L 308.555558 165.433296 
L 323.994293 165.502416 
L 339.433029 165.572071 
L 354.871764 165.711583 
L 370.310499 165.821948 
L 385.749234 165.935016 
L 401.187969 165.790241 
L 416.626705 160.977904 
" style="fill:none;stroke:#1b9e77;stroke-linecap:square;stroke-opacity:0.5;stroke-width:1.5;"/>
   </g>
   <g id="line2d_22">
    <path clip-path="url(#pda61a09c83)" d="M 61.535795 164.452002 
L 76.974531 148.069345 
L 92.413266 146.21675 
L 107.852001 154.92592 
L 123.290736 135.579306 
L 138.729471 153.663776 
L 154.168207 145.691978 
L 169.606942 150.694515 
L 185.045677 147.983992 
L 200.484412 156.904004 
L 215.923147 161.38322 
L 231.361882 162.908083 
L 246.800618 157.030815 
L 262.239353 142.366169 
L 277.678088 160.436501 
L 293.116823 164.713092 
L 308.555558 165.265523 
L 323.994293 165.373924 
L 339.433029 165.64213 
L 354.871764 165.801911 
L 370.310499 165.869154 
L 385.749234 165.922836 
L 401.187969 165.925139 
L 416.626705 165.94413 
" style="fill:none;stroke:#1b9e77;stroke-linecap:square;stroke-opacity:0.5;stroke-width:1.5;"/>
   </g>
   <g id="line2d_23">
    <path clip-path="url(#pda61a09c83)" d="M 61.535795 161.892205 
L 76.974531 158.9754 
L 92.413266 162.327697 
L 107.852001 163.873335 
L 123.290736 164.852445 
L 138.729471 165.357128 
L 154.168207 165.60279 
L 169.606942 165.786064 
L 185.045677 165.794497 
L 200.484412 165.840934 
L 215.923147 165.778789 
L 231.361882 164.533031 
L 246.800618 155.787946 
L 262.239353 153.69834 
L 277.678088 140.009058 
L 293.116823 133.522416 
L 308.555558 152.514211 
L 323.994293 150.646627 
L 339.433029 149.389902 
L 354.871764 151.939177 
L 370.310499 140.934267 
L 385.749234 160.967581 
L 401.187969 163.461697 
L 416.626705 155.278678 
" style="fill:none;stroke:#1b9e77;stroke-linecap:square;stroke-opacity:0.5;stroke-width:1.5;"/>
   </g>
   <g id="line2d_24">
    <path clip-path="url(#pda61a09c83)" d="M 61.535795 165.650748 
L 76.974531 163.943457 
L 92.413266 158.723648 
L 107.852001 128.104947 
L 123.290736 165.120248 
L 138.729471 165.751257 
L 154.168207 165.809223 
L 169.606942 165.895222 
L 185.045677 165.915621 
L 200.484412 165.925328 
L 215.923147 165.922923 
L 231.361882 165.94275 
L 246.800618 165.937257 
L 262.239353 165.876951 
L 277.678088 165.572273 
L 293.116823 163.195508 
L 308.555558 152.968487 
L 323.994293 153.001417 
L 339.433029 155.965218 
L 354.871764 148.705234 
L 370.310499 108.842475 
L 385.749234 137.445098 
L 401.187969 156.032237 
L 416.626705 162.51669 
" style="fill:none;stroke:#1b9e77;stroke-linecap:square;stroke-opacity:0.5;stroke-width:1.5;"/>
   </g>
   <g id="line2d_25">
    <path clip-path="url(#pda61a09c83)" d="M 61.535795 165.918767 
L 76.974531 165.869061 
L 92.413266 165.908087 
L 107.852001 165.943741 
L 123.290736 165.930343 
L 138.729471 165.89231 
L 154.168207 165.490797 
L 169.606942 162.721587 
L 185.045677 160.468069 
L 200.484412 154.410994 
L 215.923147 151.132669 
L 231.361882 148.109013 
L 246.800618 137.870955 
L 262.239353 141.138949 
L 277.678088 152.044759 
L 293.116823 152.694792 
L 308.555558 146.583773 
L 323.994293 132.650487 
L 339.433029 159.713042 
L 354.871764 160.228874 
L 370.310499 162.435873 
L 385.749234 164.787745 
L 401.187969 165.025378 
L 416.626705 165.794155 
" style="fill:none;stroke:#1b9e77;stroke-linecap:square;stroke-opacity:0.5;stroke-width:1.5;"/>
   </g>
   <g id="line2d_26">
    <path clip-path="url(#pda61a09c83)" d="M 61.535795 113.307907 
L 76.974531 124.788219 
L 92.413266 145.644335 
L 107.852001 161.068641 
L 123.290736 163.494455 
L 138.729471 164.381368 
L 154.168207 164.400736 
L 169.606942 165.091865 
L 185.045677 165.419679 
L 200.484412 165.515275 
L 215.923147 165.474777 
L 231.361882 165.262586 
L 246.800618 164.983004 
L 262.239353 164.979352 
L 277.678088 162.779101 
L 293.116823 125.483543 
L 308.555558 158.18131 
L 323.994293 164.509057 
L 339.433029 163.721619 
L 354.871764 162.663787 
L 370.310499 161.178457 
L 385.749234 161.848879 
L 401.187969 160.378023 
L 416.626705 164.208236 
" style="fill:none;stroke:#1b9e77;stroke-linecap:square;stroke-opacity:0.5;stroke-width:1.5;"/>
   </g>
   <g id="line2d_27">
    <path clip-path="url(#pda61a09c83)" d="M 61.535795 165.556872 
L 76.974531 164.026506 
L 92.413266 156.464369 
L 107.852001 53.302692 
L 123.290736 142.019877 
L 138.729471 145.69354 
L 154.168207 155.141703 
L 169.606942 162.211638 
L 185.045677 163.856364 
L 200.484412 164.006335 
L 215.923147 165.861757 
L 231.361882 162.209422 
L 246.800618 165.053046 
L 262.239353 159.120449 
L 277.678088 164.135625 
L 293.116823 164.689855 
L 308.555558 164.980775 
L 323.994293 165.338197 
L 339.433029 165.610142 
L 354.871764 165.806377 
L 370.310499 165.868699 
L 385.749234 165.938328 
L 401.187969 165.952238 
L 416.626705 165.919405 
" style="fill:none;stroke:#1b9e77;stroke-linecap:square;stroke-opacity:0.5;stroke-width:1.5;"/>
   </g>
   <g id="line2d_28">
    <path clip-path="url(#pda61a09c83)" d="M 61.535795 165.907708 
L 76.974531 165.82902 
L 92.413266 165.867254 
L 107.852001 165.905392 
L 123.290736 165.905452 
L 138.729471 165.941896 
L 154.168207 165.79397 
L 169.606942 162.40874 
L 185.045677 158.679093 
L 200.484412 161.675476 
L 215.923147 153.80549 
L 231.361882 159.625087 
L 246.800618 161.136812 
L 262.239353 156.758908 
L 277.678088 155.630093 
L 293.116823 107.605222 
L 308.555558 141.999241 
L 323.994293 161.130956 
L 339.433029 164.530798 
L 354.871764 164.233856 
L 370.310499 153.356884 
L 385.749234 147.365518 
L 401.187969 155.283074 
L 416.626705 152.388277 
" style="fill:none;stroke:#1b9e77;stroke-linecap:square;stroke-opacity:0.5;stroke-width:1.5;"/>
   </g>
   <g id="line2d_29">
    <path clip-path="url(#pda61a09c83)" d="M 61.535795 164.960481 
L 76.974531 165.213045 
L 92.413266 154.272475 
L 107.852001 165.179385 
L 123.290736 162.426959 
L 138.729471 92.043266 
L 154.168207 89.038824 
L 169.606942 152.530546 
L 185.045677 164.559219 
L 200.484412 163.836544 
L 215.923147 162.638249 
L 231.361882 157.09227 
L 246.800618 165.711334 
L 262.239353 165.843345 
L 277.678088 165.817679 
L 293.116823 165.886649 
L 308.555558 165.913913 
L 323.994293 165.925409 
L 339.433029 165.920351 
L 354.871764 165.938009 
L 370.310499 165.929806 
L 385.749234 165.663802 
L 401.187969 162.741561 
L 416.626705 163.681096 
" style="fill:none;stroke:#1b9e77;stroke-linecap:square;stroke-opacity:0.5;stroke-width:1.5;"/>
   </g>
   <g id="line2d_30">
    <path clip-path="url(#pda61a09c83)" d="M 61.535795 147.274738 
L 76.974531 155.679254 
L 92.413266 160.904033 
L 107.852001 164.245585 
L 123.290736 164.743003 
L 138.729471 165.34371 
L 154.168207 164.61472 
L 169.606942 154.65606 
L 185.045677 138.248177 
L 200.484412 149.272814 
L 215.923147 145.47489 
L 231.361882 132.379764 
L 246.800618 142.069748 
L 262.239353 158.516073 
L 277.678088 163.520936 
L 293.116823 163.890368 
L 308.555558 164.126109 
L 323.994293 164.125272 
L 339.433029 163.763345 
L 354.871764 162.447791 
L 370.310499 161.029548 
L 385.749234 163.708229 
L 401.187969 165.185015 
L 416.626705 163.545034 
" style="fill:none;stroke:#1b9e77;stroke-linecap:square;stroke-opacity:0.5;stroke-width:1.5;"/>
   </g>
   <g id="line2d_31">
    <path clip-path="url(#pda61a09c83)" d="M 61.535795 165.743757 
L 76.974531 165.523201 
L 92.413266 165.603876 
L 107.852001 165.768137 
L 123.290736 165.820415 
L 138.729471 165.903399 
L 154.168207 165.933532 
L 169.606942 165.939454 
L 185.045677 165.9347 
L 200.484412 165.941121 
L 215.923147 165.938792 
L 231.361882 165.805952 
L 246.800618 165.014444 
L 262.239353 165.641634 
L 277.678088 149.734923 
L 293.116823 117.399312 
L 308.555558 159.46013 
L 323.994293 164.46009 
L 339.433029 163.623986 
L 354.871764 160.38627 
L 370.310499 114.578649 
L 385.749234 115.128019 
L 401.187969 156.226855 
L 416.626705 157.253572 
" style="fill:none;stroke:#1b9e77;stroke-linecap:square;stroke-opacity:0.5;stroke-width:1.5;"/>
   </g>
   <g id="line2d_32">
    <path clip-path="url(#pda61a09c83)" d="M 61.535795 165.254907 
L 76.974531 165.032346 
L 92.413266 165.288471 
L 107.852001 165.688867 
L 123.290736 165.797198 
L 138.729471 165.905511 
L 154.168207 165.918372 
L 169.606942 165.77593 
L 185.045677 164.377121 
L 200.484412 162.983727 
L 215.923147 116.127438 
L 231.361882 68.431113 
L 246.800618 127.870583 
L 262.239353 165.2425 
L 277.678088 163.266883 
L 293.116823 164.201554 
L 308.555558 164.271147 
L 323.994293 164.558442 
L 339.433029 165.022453 
L 354.871764 165.194101 
L 370.310499 165.304134 
L 385.749234 165.709618 
L 401.187969 165.874284 
L 416.626705 165.667524 
" style="fill:none;stroke:#1b9e77;stroke-linecap:square;stroke-opacity:0.5;stroke-width:1.5;"/>
   </g>
   <g id="line2d_33">
    <path clip-path="url(#pda61a09c83)" d="M 61.535795 165.717278 
L 76.974531 165.217722 
L 92.413266 165.189687 
L 107.852001 165.40027 
L 123.290736 165.463549 
L 138.729471 165.691966 
L 154.168207 165.827547 
L 169.606942 165.874857 
L 185.045677 165.868818 
L 200.484412 165.888765 
L 215.923147 165.913799 
L 231.361882 165.933256 
L 246.800618 165.939629 
L 262.239353 165.943157 
L 277.678088 165.93328 
L 293.116823 165.859274 
L 308.555558 164.431009 
L 323.994293 155.360592 
L 339.433029 129.047463 
L 354.871764 110.188561 
L 370.310499 129.522325 
L 385.749234 135.274449 
L 401.187969 141.174353 
L 416.626705 162.102611 
" style="fill:none;stroke:#1b9e77;stroke-linecap:square;stroke-opacity:0.5;stroke-width:1.5;"/>
   </g>
   <g id="line2d_34">
    <path clip-path="url(#pda61a09c83)" d="M 61.535795 165.866287 
L 76.974531 165.687446 
L 92.413266 165.716488 
L 107.852001 165.851698 
L 123.290736 165.900057 
L 138.729471 165.929978 
L 154.168207 165.903219 
L 169.606942 165.817601 
L 185.045677 163.187039 
L 200.484412 157.218026 
L 215.923147 144.204447 
L 231.361882 133.823072 
L 246.800618 142.328588 
L 262.239353 146.233022 
L 277.678088 138.428855 
L 293.116823 156.444919 
L 308.555558 164.262239 
L 323.994293 157.356448 
L 339.433029 144.548044 
L 354.871764 160.964392 
L 370.310499 158.358544 
L 385.749234 156.565282 
L 401.187969 162.907274 
L 416.626705 165.261252 
" style="fill:none;stroke:#1b9e77;stroke-linecap:square;stroke-opacity:0.5;stroke-width:1.5;"/>
   </g>
   <g id="line2d_35">
    <path clip-path="url(#pda61a09c83)" d="M 61.535795 158.136939 
L 76.974531 151.805887 
L 92.413266 108.088917 
L 107.852001 141.115357 
L 123.290736 134.44719 
L 138.729471 121.358656 
L 154.168207 153.724697 
L 169.606942 163.887315 
L 185.045677 164.490329 
L 200.484412 164.936629 
L 215.923147 165.434622 
L 231.361882 165.45629 
L 246.800618 165.525563 
L 262.239353 165.349354 
L 277.678088 163.047114 
L 293.116823 165.858781 
L 308.555558 165.562007 
L 323.994293 165.451644 
L 339.433029 165.672028 
L 354.871764 165.791063 
L 370.310499 165.825167 
L 385.749234 165.907376 
L 401.187969 165.937962 
L 416.626705 165.95333 
" style="fill:none;stroke:#1b9e77;stroke-linecap:square;stroke-opacity:0.5;stroke-width:1.5;"/>
   </g>
   <g id="line2d_36">
    <path clip-path="url(#pda61a09c83)" d="M 61.535795 165.072248 
L 76.974531 160.535213 
L 92.413266 163.658911 
L 107.852001 164.420466 
L 123.290736 164.609951 
L 138.729471 165.352955 
L 154.168207 165.511445 
L 169.606942 165.279388 
L 185.045677 164.067365 
L 200.484412 155.47075 
L 215.923147 155.168209 
L 231.361882 155.725672 
L 246.800618 138.571736 
L 262.239353 134.021387 
L 277.678088 141.725389 
L 293.116823 122.526034 
L 308.555558 147.484438 
L 323.994293 159.703042 
L 339.433029 163.709134 
L 354.871764 164.591278 
L 370.310499 165.335912 
L 385.749234 165.806403 
L 401.187969 165.762229 
L 416.626705 164.654664 
" style="fill:none;stroke:#1b9e77;stroke-linecap:square;stroke-opacity:0.5;stroke-width:1.5;"/>
   </g>
   <g id="line2d_37">
    <path clip-path="url(#pda61a09c83)" d="M 61.535795 165.661945 
L 76.974531 163.673626 
L 92.413266 163.35159 
L 107.852001 149.021886 
L 123.290736 158.575406 
L 138.729471 165.402671 
L 154.168207 165.623153 
L 169.606942 165.688543 
L 185.045677 163.137256 
L 200.484412 158.974172 
L 215.923147 160.946513 
L 231.361882 162.438971 
L 246.800618 134.582232 
L 262.239353 118.701134 
L 277.678088 130.638904 
L 293.116823 131.829652 
L 308.555558 161.145455 
L 323.994293 164.980079 
L 339.433029 165.157541 
L 354.871764 165.711093 
L 370.310499 165.87578 
L 385.749234 165.881133 
L 401.187969 165.8784 
L 416.626705 165.887085 
" style="fill:none;stroke:#1b9e77;stroke-linecap:square;stroke-opacity:0.5;stroke-width:1.5;"/>
   </g>
   <g id="line2d_38">
    <path clip-path="url(#pda61a09c83)" d="M 61.535795 159.285822 
L 76.974531 143.712207 
L 92.413266 122.964221 
L 107.852001 165.369001 
L 123.290736 165.931942 
L 138.729471 163.911533 
L 154.168207 165.025402 
L 169.606942 165.569788 
L 185.045677 165.855261 
L 200.484412 165.945419 
L 215.923147 165.734592 
L 231.361882 165.759723 
L 246.800618 165.309509 
L 262.239353 140.023534 
L 277.678088 164.56523 
L 293.116823 148.875912 
L 308.555558 159.136231 
L 323.994293 162.326759 
L 339.433029 130.078369 
L 354.871764 133.264953 
L 370.310499 163.544465 
L 385.749234 164.985993 
L 401.187969 165.672752 
L 416.626705 165.9156 
" style="fill:none;stroke:#1b9e77;stroke-linecap:square;stroke-opacity:0.5;stroke-width:1.5;"/>
   </g>
   <g id="line2d_39">
    <path clip-path="url(#pda61a09c83)" d="M 61.535795 165.782986 
L 76.974531 164.938988 
L 92.413266 165.100792 
L 107.852001 165.416311 
L 123.290736 165.570773 
L 138.729471 165.727 
L 154.168207 165.769835 
L 169.606942 165.853255 
L 185.045677 165.855411 
L 200.484412 165.807575 
L 215.923147 165.665413 
L 231.361882 165.470522 
L 246.800618 164.783756 
L 262.239353 161.74329 
L 277.678088 118.673186 
L 293.116823 127.232592 
L 308.555558 128.364616 
L 323.994293 134.795841 
L 339.433029 146.934511 
L 354.871764 150.864489 
L 370.310499 164.272692 
L 385.749234 163.208296 
L 401.187969 165.123012 
L 416.626705 165.809075 
" style="fill:none;stroke:#1b9e77;stroke-linecap:square;stroke-opacity:0.5;stroke-width:1.5;"/>
   </g>
   <g id="line2d_40">
    <path clip-path="url(#pda61a09c83)" d="M 61.535795 164.958717 
L 76.974531 161.813145 
L 92.413266 160.785249 
L 107.852001 162.521011 
L 123.290736 163.113012 
L 138.729471 165.196356 
L 154.168207 165.595587 
L 169.606942 165.764969 
L 185.045677 165.784975 
L 200.484412 165.827993 
L 215.923147 165.724082 
L 231.361882 165.506648 
L 246.800618 165.846669 
L 262.239353 165.833716 
L 277.678088 165.798114 
L 293.116823 150.956003 
L 308.555558 154.193696 
L 323.994293 151.10407 
L 339.433029 142.8639 
L 354.871764 144.174632 
L 370.310499 132.488045 
L 385.749234 133.813027 
L 401.187969 136.436501 
L 416.626705 162.664101 
" style="fill:none;stroke:#1b9e77;stroke-linecap:square;stroke-opacity:0.5;stroke-width:1.5;"/>
   </g>
   <g id="line2d_41">
    <path clip-path="url(#pda61a09c83)" d="M 61.535795 158.866229 
L 76.974531 155.227153 
L 92.413266 141.211974 
L 107.852001 90.472317 
L 123.290736 118.128169 
L 138.729471 141.570289 
L 154.168207 161.67934 
L 169.606942 164.201055 
L 185.045677 165.349268 
L 200.484412 165.627432 
L 215.923147 165.871584 
L 231.361882 165.909635 
L 246.800618 165.87638 
L 262.239353 165.602565 
L 277.678088 164.479718 
L 293.116823 165.755466 
L 308.555558 165.112786 
L 323.994293 164.620641 
L 339.433029 165.071228 
L 354.871764 165.548626 
L 370.310499 165.651155 
L 385.749234 165.879637 
L 401.187969 165.926558 
L 416.626705 165.125009 
" style="fill:none;stroke:#1b9e77;stroke-linecap:square;stroke-opacity:0.5;stroke-width:1.5;"/>
   </g>
   <g id="line2d_42">
    <path clip-path="url(#pda61a09c83)" d="M 61.535795 165.119371 
L 76.974531 163.425955 
L 92.413266 156.488187 
L 107.852001 145.529738 
L 123.290736 160.445853 
L 138.729471 165.292938 
L 154.168207 165.719141 
L 169.606942 165.799989 
L 185.045677 163.963489 
L 200.484412 148.410664 
L 215.923147 138.250465 
L 231.361882 161.257254 
L 246.800618 149.087811 
L 262.239353 124.83074 
L 277.678088 152.960806 
L 293.116823 155.935153 
L 308.555558 162.034556 
L 323.994293 153.788656 
L 339.433029 157.674163 
L 354.871764 164.932923 
L 370.310499 165.579058 
L 385.749234 165.695723 
L 401.187969 162.708736 
L 416.626705 163.832853 
" style="fill:none;stroke:#1b9e77;stroke-linecap:square;stroke-opacity:0.5;stroke-width:1.5;"/>
   </g>
   <g id="line2d_43">
    <path clip-path="url(#pda61a09c83)" d="M 61.535795 161.934951 
L 76.974531 158.117838 
L 92.413266 158.380869 
L 107.852001 164.839428 
L 123.290736 165.576774 
L 138.729471 165.613255 
L 154.168207 165.812177 
L 169.606942 165.867128 
L 185.045677 165.832965 
L 200.484412 165.821002 
L 215.923147 165.840764 
L 231.361882 165.917982 
L 246.800618 165.943684 
L 262.239353 165.953907 
L 277.678088 165.94716 
L 293.116823 164.753839 
L 308.555558 156.112884 
L 323.994293 141.773308 
L 339.433029 147.626787 
L 354.871764 138.368828 
L 370.310499 106.386523 
L 385.749234 141.668883 
L 401.187969 151.33482 
L 416.626705 163.338469 
" style="fill:none;stroke:#1b9e77;stroke-linecap:square;stroke-opacity:0.5;stroke-width:1.5;"/>
   </g>
   <g id="line2d_44">
    <path clip-path="url(#pda61a09c83)" d="M 61.535795 165.907252 
L 76.974531 165.719663 
L 92.413266 164.351031 
L 107.852001 137.828854 
L 123.290736 164.449595 
L 138.729471 165.574289 
L 154.168207 165.128488 
L 169.606942 161.002819 
L 185.045677 159.779119 
L 200.484412 149.295989 
L 215.923147 151.711748 
L 231.361882 162.441073 
L 246.800618 155.530255 
L 262.239353 141.435426 
L 277.678088 154.479171 
L 293.116823 109.100456 
L 308.555558 150.405074 
L 323.994293 161.719388 
L 339.433029 164.297444 
L 354.871764 165.364106 
L 370.310499 165.678691 
L 385.749234 165.801451 
L 401.187969 165.818419 
L 416.626705 165.944413 
" style="fill:none;stroke:#1b9e77;stroke-linecap:square;stroke-opacity:0.5;stroke-width:1.5;"/>
   </g>
   <g id="line2d_45">
    <path clip-path="url(#pda61a09c83)" d="M 61.535795 163.972885 
L 76.974531 163.00588 
L 92.413266 164.204649 
L 107.852001 165.249015 
L 123.290736 165.439548 
L 138.729471 165.519183 
L 154.168207 165.43797 
L 169.606942 165.490115 
L 185.045677 165.510895 
L 200.484412 165.536181 
L 215.923147 165.516961 
L 231.361882 165.59617 
L 246.800618 165.593688 
L 262.239353 155.315041 
L 277.678088 147.28554 
L 293.116823 159.504824 
L 308.555558 158.198165 
L 323.994293 81.302459 
L 339.433029 135.384999 
L 354.871764 151.736661 
L 370.310499 158.613347 
L 385.749234 160.382543 
L 401.187969 159.877085 
L 416.626705 165.09041 
" style="fill:none;stroke:#1b9e77;stroke-linecap:square;stroke-opacity:0.5;stroke-width:1.5;"/>
   </g>
   <g id="line2d_46">
    <path clip-path="url(#pda61a09c83)" d="M 61.535795 129.003151 
L 76.974531 115.484487 
L 92.413266 121.812942 
L 107.852001 154.811965 
L 123.290736 162.396503 
L 138.729471 164.384071 
L 154.168207 164.406619 
L 169.606942 163.483784 
L 185.045677 161.5718 
L 200.484412 162.898176 
L 215.923147 163.955224 
L 231.361882 163.216066 
L 246.800618 160.408806 
L 262.239353 161.912263 
L 277.678088 164.063455 
L 293.116823 164.080581 
L 308.555558 163.806956 
L 323.994293 163.366107 
L 339.433029 163.209983 
L 354.871764 163.75002 
L 370.310499 164.240592 
L 385.749234 164.738497 
L 401.187969 164.32576 
L 416.626705 153.436408 
" style="fill:none;stroke:#1b9e77;stroke-linecap:square;stroke-opacity:0.5;stroke-width:1.5;"/>
   </g>
   <g id="line2d_47">
    <path clip-path="url(#pda61a09c83)" d="M 61.535795 153.793131 
L 76.974531 144.792945 
L 92.413266 139.72984 
L 107.852001 143.851123 
L 123.290736 138.797181 
L 138.729471 92.201112 
L 154.168207 154.724546 
L 169.606942 163.667068 
L 185.045677 164.056554 
L 200.484412 162.29605 
L 215.923147 165.007087 
L 231.361882 165.713086 
L 246.800618 165.686727 
L 262.239353 165.699843 
L 277.678088 165.768106 
L 293.116823 165.820433 
L 308.555558 165.836517 
L 323.994293 165.846375 
L 339.433029 165.851278 
L 354.871764 165.886414 
L 370.310499 165.914205 
L 385.749234 165.946002 
L 401.187969 165.953483 
L 416.626705 165.925114 
" style="fill:none;stroke:#1b9e77;stroke-linecap:square;stroke-opacity:0.5;stroke-width:1.5;"/>
   </g>
   <g id="line2d_48">
    <path clip-path="url(#pda61a09c83)" d="M 61.535795 165.852264 
L 76.974531 163.308307 
L 92.413266 144.474973 
L 107.852001 141.081087 
L 123.290736 129.877871 
L 138.729471 145.402453 
L 154.168207 132.340824 
L 169.606942 155.297029 
L 185.045677 164.616027 
L 200.484412 165.359466 
L 215.923147 165.780789 
L 231.361882 165.637227 
L 246.800618 164.905808 
L 262.239353 129.815738 
L 277.678088 159.059325 
L 293.116823 164.915572 
L 308.555558 164.412764 
L 323.994293 164.169347 
L 339.433029 164.697316 
L 354.871764 165.111056 
L 370.310499 165.321602 
L 385.749234 165.665749 
L 401.187969 165.737038 
L 416.626705 165.92458 
" style="fill:none;stroke:#1b9e77;stroke-linecap:square;stroke-opacity:0.5;stroke-width:1.5;"/>
   </g>
   <g id="line2d_49">
    <path clip-path="url(#pda61a09c83)" d="M 61.535795 165.632773 
L 76.974531 164.85265 
L 92.413266 164.956675 
L 107.852001 165.410069 
L 123.290736 165.564423 
L 138.729471 165.746832 
L 154.168207 165.75848 
L 169.606942 165.816192 
L 185.045677 164.624495 
L 200.484412 154.20905 
L 215.923147 153.587849 
L 231.361882 141.808192 
L 246.800618 141.552325 
L 262.239353 154.243096 
L 277.678088 155.402063 
L 293.116823 146.211701 
L 308.555558 147.210673 
L 323.994293 154.836681 
L 339.433029 158.831493 
L 354.871764 158.4706 
L 370.310499 151.614501 
L 385.749234 150.744084 
L 401.187969 156.832089 
L 416.626705 164.847233 
" style="fill:none;stroke:#1b9e77;stroke-linecap:square;stroke-opacity:0.5;stroke-width:1.5;"/>
   </g>
   <g id="line2d_50">
    <path clip-path="url(#pda61a09c83)" d="M 61.535795 161.142844 
L 76.974531 163.134109 
L 92.413266 163.826351 
L 107.852001 162.254011 
L 123.290736 81.560719 
L 138.729471 132.278637 
L 154.168207 164.647159 
L 169.606942 165.333438 
L 185.045677 164.917937 
L 200.484412 149.655569 
L 215.923147 130.759857 
L 231.361882 157.025517 
L 246.800618 162.070045 
L 262.239353 163.241937 
L 277.678088 164.936976 
L 293.116823 165.4329 
L 308.555558 165.493904 
L 323.994293 165.644809 
L 339.433029 165.767131 
L 354.871764 165.88956 
L 370.310499 165.934164 
L 385.749234 165.956373 
L 401.187969 165.958687 
L 416.626705 165.901582 
" style="fill:none;stroke:#1b9e77;stroke-linecap:square;stroke-opacity:0.5;stroke-width:1.5;"/>
   </g>
   <g id="line2d_51">
    <path clip-path="url(#pda61a09c83)" d="M 61.535795 165.592133 
L 76.974531 165.832531 
L 92.413266 165.684251 
L 107.852001 165.902417 
L 123.290736 165.918037 
L 138.729471 165.919643 
L 154.168207 165.935378 
L 169.606942 165.934111 
L 185.045677 165.911096 
L 200.484412 165.902534 
L 215.923147 165.357135 
L 231.361882 165.284764 
L 246.800618 161.304866 
L 262.239353 159.225533 
L 277.678088 163.890481 
L 293.116823 159.902177 
L 308.555558 132.754198 
L 323.994293 147.384132 
L 339.433029 163.822285 
L 354.871764 163.141521 
L 370.310499 143.528399 
L 385.749234 115.71077 
L 401.187969 114.68456 
L 416.626705 164.241264 
" style="fill:none;stroke:#1b9e77;stroke-linecap:square;stroke-opacity:0.5;stroke-width:1.5;"/>
   </g>
   <g id="line2d_52">
    <path clip-path="url(#pda61a09c83)" d="M 61.535795 165.760049 
L 76.974531 163.692358 
L 92.413266 160.532162 
L 107.852001 148.733885 
L 123.290736 148.796822 
L 138.729471 150.950169 
L 154.168207 139.640355 
L 169.606942 139.164651 
L 185.045677 138.341482 
L 200.484412 129.135546 
L 215.923147 158.474179 
L 231.361882 162.923941 
L 246.800618 156.473105 
L 262.239353 157.311449 
L 277.678088 165.730234 
L 293.116823 165.803912 
L 308.555558 165.830079 
L 323.994293 165.89467 
L 339.433029 165.927282 
L 354.871764 165.929977 
L 370.310499 165.91171 
L 385.749234 165.928584 
L 401.187969 165.944237 
L 416.626705 165.93338 
" style="fill:none;stroke:#1b9e77;stroke-linecap:square;stroke-opacity:0.5;stroke-width:1.5;"/>
   </g>
   <g id="line2d_53">
    <path clip-path="url(#pda61a09c83)" d="M 61.535795 158.301684 
L 76.974531 162.484101 
L 92.413266 165.057505 
L 107.852001 165.709406 
L 123.290736 165.701281 
L 138.729471 165.328062 
L 154.168207 159.636172 
L 169.606942 161.838094 
L 185.045677 159.944565 
L 200.484412 131.327253 
L 215.923147 129.435491 
L 231.361882 140.481803 
L 246.800618 154.620767 
L 262.239353 150.553004 
L 277.678088 158.901147 
L 293.116823 157.878132 
L 308.555558 154.961947 
L 323.994293 156.089707 
L 339.433029 160.003818 
L 354.871764 163.167829 
L 370.310499 164.007531 
L 385.749234 165.133162 
L 401.187969 165.261835 
L 416.626705 162.939915 
" style="fill:none;stroke:#1b9e77;stroke-linecap:square;stroke-opacity:0.5;stroke-width:1.5;"/>
   </g>
   <g id="line2d_54">
    <path clip-path="url(#pda61a09c83)" d="M 61.535795 165.896638 
L 76.974531 165.842216 
L 92.413266 165.901796 
L 107.852001 165.940905 
L 123.290736 165.948875 
L 138.729471 165.951319 
L 154.168207 165.949773 
L 169.606942 165.948649 
L 185.045677 165.942468 
L 200.484412 165.938539 
L 215.923147 165.712247 
L 231.361882 154.404789 
L 246.800618 144.097962 
L 262.239353 158.315952 
L 277.678088 103.880432 
L 293.116823 157.980665 
L 308.555558 165.666109 
L 323.994293 164.551257 
L 339.433029 163.308264 
L 354.871764 164.838392 
L 370.310499 91.687668 
L 385.749234 157.44099 
L 401.187969 163.243576 
L 416.626705 164.374733 
" style="fill:none;stroke:#1b9e77;stroke-linecap:square;stroke-opacity:0.5;stroke-width:1.5;"/>
   </g>
   <g id="line2d_55">
    <path clip-path="url(#pda61a09c83)" d="M 61.535795 165.541915 
L 76.974531 165.911875 
L 92.413266 165.875488 
L 107.852001 164.812 
L 123.290736 158.932427 
L 138.729471 144.044101 
L 154.168207 97.015206 
L 169.606942 109.043689 
L 185.045677 155.553349 
L 200.484412 159.210408 
L 215.923147 164.122807 
L 231.361882 164.937903 
L 246.800618 163.213692 
L 262.239353 147.788554 
L 277.678088 159.940726 
L 293.116823 165.812057 
L 308.555558 165.682939 
L 323.994293 165.795164 
L 339.433029 165.898142 
L 354.871764 165.922844 
L 370.310499 165.917514 
L 385.749234 165.916623 
L 401.187969 165.92034 
L 416.626705 165.954459 
" style="fill:none;stroke:#1b9e77;stroke-linecap:square;stroke-opacity:0.5;stroke-width:1.5;"/>
   </g>
   <g id="line2d_56">
    <path clip-path="url(#pda61a09c83)" d="M 61.535795 163.123582 
L 76.974531 156.144923 
L 92.413266 146.511708 
L 107.852001 92.671693 
L 123.290736 156.106531 
L 138.729471 165.202535 
L 154.168207 165.550588 
L 169.606942 165.688399 
L 185.045677 165.715124 
L 200.484412 165.814905 
L 215.923147 165.872842 
L 231.361882 165.872731 
L 246.800618 165.826107 
L 262.239353 165.903204 
L 277.678088 165.895444 
L 293.116823 158.909402 
L 308.555558 157.240922 
L 323.994293 151.981573 
L 339.433029 123.669016 
L 354.871764 155.621902 
L 370.310499 164.546734 
L 385.749234 165.43109 
L 401.187969 165.923235 
L 416.626705 163.540025 
" style="fill:none;stroke:#1b9e77;stroke-linecap:square;stroke-opacity:0.5;stroke-width:1.5;"/>
   </g>
   <g id="line2d_57">
    <path clip-path="url(#pda61a09c83)" d="M 61.535795 165.875487 
L 76.974531 165.698468 
L 92.413266 165.764933 
L 107.852001 165.855327 
L 123.290736 165.879199 
L 138.729471 165.917352 
L 154.168207 165.93619 
L 169.606942 165.947479 
L 185.045677 165.937718 
L 200.484412 165.689386 
L 215.923147 163.07619 
L 231.361882 155.5017 
L 246.800618 153.968831 
L 262.239353 160.402247 
L 277.678088 160.462624 
L 293.116823 139.89974 
L 308.555558 130.099874 
L 323.994293 154.357367 
L 339.433029 129.969886 
L 354.871764 138.665041 
L 370.310499 160.90832 
L 385.749234 150.860198 
L 401.187969 157.318153 
L 416.626705 164.77251 
" style="fill:none;stroke:#1b9e77;stroke-linecap:square;stroke-opacity:0.5;stroke-width:1.5;"/>
   </g>
   <g id="line2d_58">
    <path clip-path="url(#pda61a09c83)" d="M 61.535795 165.821015 
L 76.974531 165.669634 
L 92.413266 165.764113 
L 107.852001 165.903055 
L 123.290736 165.923298 
L 138.729471 165.926711 
L 154.168207 165.392603 
L 169.606942 157.235093 
L 185.045677 153.038958 
L 200.484412 143.601116 
L 215.923147 110.193382 
L 231.361882 124.77972 
L 246.800618 138.73546 
L 262.239353 152.440194 
L 277.678088 155.177055 
L 293.116823 160.461008 
L 308.555558 165.643462 
L 323.994293 165.906717 
L 339.433029 165.789129 
L 354.871764 165.657554 
L 370.310499 165.615537 
L 385.749234 165.438663 
L 401.187969 165.397098 
L 416.626705 163.253647 
" style="fill:none;stroke:#1b9e77;stroke-linecap:square;stroke-opacity:0.5;stroke-width:1.5;"/>
   </g>
   <g id="line2d_59">
    <path clip-path="url(#pda61a09c83)" d="M 61.535795 165.95124 
L 76.974531 165.928782 
L 92.413266 165.923555 
L 107.852001 165.944086 
L 123.290736 165.932032 
L 138.729471 165.374999 
L 154.168207 162.943561 
L 169.606942 158.09357 
L 185.045677 151.144 
L 200.484412 142.633484 
L 215.923147 141.133005 
L 231.361882 156.345185 
L 246.800618 149.468632 
L 262.239353 147.401888 
L 277.678088 134.163259 
L 293.116823 134.877712 
L 308.555558 165.557481 
L 323.994293 165.634524 
L 339.433029 162.961956 
L 354.871764 163.89515 
L 370.310499 159.402159 
L 385.749234 158.270952 
L 401.187969 164.095783 
L 416.626705 165.68722 
" style="fill:none;stroke:#1b9e77;stroke-linecap:square;stroke-opacity:0.5;stroke-width:1.5;"/>
   </g>
   <g id="line2d_60">
    <path clip-path="url(#pda61a09c83)" d="M 61.535795 162.470223 
L 76.974531 161.379068 
L 92.413266 162.240048 
L 107.852001 164.806373 
L 123.290736 165.476097 
L 138.729471 165.547322 
L 154.168207 165.316341 
L 169.606942 165.042436 
L 185.045677 164.884501 
L 200.484412 164.995648 
L 215.923147 165.128383 
L 231.361882 165.086025 
L 246.800618 165.050321 
L 262.239353 165.43276 
L 277.678088 165.677584 
L 293.116823 165.77002 
L 308.555558 165.537229 
L 323.994293 165.315004 
L 339.433029 153.265955 
L 354.871764 81.364314 
L 370.310499 135.694179 
L 385.749234 146.416942 
L 401.187969 140.756548 
L 416.626705 156.110896 
" style="fill:none;stroke:#1b9e77;stroke-linecap:square;stroke-opacity:0.5;stroke-width:1.5;"/>
   </g>
   <g id="line2d_61">
    <path clip-path="url(#pda61a09c83)" d="M 61.535795 165.86136 
L 76.974531 165.928798 
L 92.413266 164.669173 
L 107.852001 165.568589 
L 123.290736 163.790455 
L 138.729471 77.74776 
L 154.168207 142.188337 
L 169.606942 157.997346 
L 185.045677 147.757142 
L 200.484412 139.00242 
L 215.923147 149.745311 
L 231.361882 152.242781 
L 246.800618 163.730405 
L 262.239353 165.024226 
L 277.678088 165.370821 
L 293.116823 165.541153 
L 308.555558 165.603061 
L 323.994293 165.679394 
L 339.433029 165.742811 
L 354.871764 165.838858 
L 370.310499 165.892818 
L 385.749234 165.951596 
L 401.187969 165.959781 
L 416.626705 165.92982 
" style="fill:none;stroke:#1b9e77;stroke-linecap:square;stroke-opacity:0.5;stroke-width:1.5;"/>
   </g>
   <g id="line2d_62">
    <path clip-path="url(#pda61a09c83)" d="M 61.535795 164.880098 
L 76.974531 165.245127 
L 92.413266 162.610616 
L 107.852001 159.324855 
L 123.290736 49.189992 
L 138.729471 149.846563 
L 154.168207 159.05949 
L 169.606942 165.207983 
L 185.045677 164.705295 
L 200.484412 162.908403 
L 215.923147 156.407605 
L 231.361882 141.658489 
L 246.800618 155.641414 
L 262.239353 164.029687 
L 277.678088 165.602307 
L 293.116823 165.753023 
L 308.555558 165.795844 
L 323.994293 165.783312 
L 339.433029 165.753762 
L 354.871764 165.775933 
L 370.310499 165.803823 
L 385.749234 165.900971 
L 401.187969 165.93717 
L 416.626705 165.942447 
" style="fill:none;stroke:#1b9e77;stroke-linecap:square;stroke-opacity:0.5;stroke-width:1.5;"/>
   </g>
   <g id="line2d_63">
    <path clip-path="url(#pda61a09c83)" d="M 61.535795 158.678628 
L 76.974531 146.541293 
L 92.413266 134.040209 
L 107.852001 115.563356 
L 123.290736 151.054102 
L 138.729471 133.63979 
L 154.168207 150.18287 
L 169.606942 159.940449 
L 185.045677 162.45238 
L 200.484412 145.85508 
L 215.923147 165.118437 
L 231.361882 165.647645 
L 246.800618 165.612711 
L 262.239353 165.745047 
L 277.678088 165.650136 
L 293.116823 165.641205 
L 308.555558 165.877627 
L 323.994293 165.887228 
L 339.433029 165.913391 
L 354.871764 165.936404 
L 370.310499 165.940833 
L 385.749234 165.949442 
L 401.187969 165.951331 
L 416.626705 165.944628 
" style="fill:none;stroke:#1b9e77;stroke-linecap:square;stroke-opacity:0.5;stroke-width:1.5;"/>
   </g>
   <g id="line2d_64">
    <path clip-path="url(#pda61a09c83)" d="M 61.535795 162.788834 
L 76.974531 162.071877 
L 92.413266 154.785582 
L 107.852001 116.653991 
L 123.290736 89.66525 
L 138.729471 161.432959 
L 154.168207 165.068595 
L 169.606942 163.509063 
L 185.045677 154.952069 
L 200.484412 164.44617 
L 215.923147 165.83674 
L 231.361882 165.827226 
L 246.800618 158.748144 
L 262.239353 153.455797 
L 277.678088 162.423734 
L 293.116823 159.926978 
L 308.555558 163.034096 
L 323.994293 163.772809 
L 339.433029 163.994555 
L 354.871764 164.466763 
L 370.310499 164.832502 
L 385.749234 165.553109 
L 401.187969 165.640673 
L 416.626705 165.8767 
" style="fill:none;stroke:#1b9e77;stroke-linecap:square;stroke-opacity:0.5;stroke-width:1.5;"/>
   </g>
   <g id="line2d_65">
    <path clip-path="url(#pda61a09c83)" d="M 61.535795 165.829939 
L 76.974531 165.628409 
L 92.413266 165.748086 
L 107.852001 165.870347 
L 123.290736 165.904604 
L 138.729471 165.933771 
L 154.168207 165.942681 
L 169.606942 165.948052 
L 185.045677 165.934875 
L 200.484412 165.866107 
L 215.923147 163.068246 
L 231.361882 161.782275 
L 246.800618 156.857337 
L 262.239353 148.313729 
L 277.678088 143.999699 
L 293.116823 140.312261 
L 308.555558 138.086773 
L 323.994293 102.428128 
L 339.433029 160.947879 
L 354.871764 164.522604 
L 370.310499 161.565522 
L 385.749234 156.346839 
L 401.187969 157.465486 
L 416.626705 164.460562 
" style="fill:none;stroke:#1b9e77;stroke-linecap:square;stroke-opacity:0.5;stroke-width:1.5;"/>
   </g>
   <g id="line2d_66">
    <path clip-path="url(#pda61a09c83)" d="M 61.535795 147.873072 
L 76.974531 69.550876 
L 92.413266 123.409571 
L 107.852001 147.612598 
L 123.290736 155.230145 
L 138.729471 160.881849 
L 154.168207 163.173631 
L 169.606942 164.0749 
L 185.045677 164.068395 
L 200.484412 164.769139 
L 215.923147 165.267943 
L 231.361882 165.488413 
L 246.800618 165.541489 
L 262.239353 165.664987 
L 277.678088 165.720569 
L 293.116823 165.730779 
L 308.555558 165.714013 
L 323.994293 165.716049 
L 339.433029 165.67804 
L 354.871764 165.599156 
L 370.310499 165.540506 
L 385.749234 165.54948 
L 401.187969 165.548497 
L 416.626705 165.360129 
" style="fill:none;stroke:#1b9e77;stroke-linecap:square;stroke-opacity:0.5;stroke-width:1.5;"/>
   </g>
   <g id="line2d_67">
    <path clip-path="url(#pda61a09c83)" d="M 61.535795 159.683757 
L 76.974531 151.340426 
L 92.413266 148.589867 
L 107.852001 158.049443 
L 123.290736 161.220287 
L 138.729471 163.997657 
L 154.168207 165.014055 
L 169.606942 165.172534 
L 185.045677 164.734049 
L 200.484412 165.147771 
L 215.923147 165.606177 
L 231.361882 165.441585 
L 246.800618 165.431806 
L 262.239353 164.192346 
L 277.678088 163.691816 
L 293.116823 164.560062 
L 308.555558 165.060045 
L 323.994293 165.164996 
L 339.433029 165.085904 
L 354.871764 165.707234 
L 370.310499 165.790455 
L 385.749234 164.918541 
L 401.187969 128.630311 
L 416.626705 66.533098 
" style="fill:none;stroke:#1b9e77;stroke-linecap:square;stroke-opacity:0.5;stroke-width:1.5;"/>
   </g>
   <g id="line2d_68">
    <path clip-path="url(#pda61a09c83)" d="M 61.535795 164.554877 
L 76.974531 164.438578 
L 92.413266 160.719409 
L 107.852001 163.191624 
L 123.290736 160.372841 
L 138.729471 111.931908 
L 154.168207 146.174006 
L 169.606942 155.540055 
L 185.045677 163.610865 
L 200.484412 162.617548 
L 215.923147 155.232413 
L 231.361882 147.62136 
L 246.800618 165.671338 
L 262.239353 165.825242 
L 277.678088 165.787397 
L 293.116823 165.169603 
L 308.555558 162.729029 
L 323.994293 161.324269 
L 339.433029 152.905254 
L 354.871764 138.428551 
L 370.310499 150.444205 
L 385.749234 164.080567 
L 401.187969 165.522429 
L 416.626705 164.870847 
" style="fill:none;stroke:#1b9e77;stroke-linecap:square;stroke-opacity:0.5;stroke-width:1.5;"/>
   </g>
   <g id="line2d_69">
    <path clip-path="url(#pda61a09c83)" d="M 61.535795 165.19214 
L 76.974531 163.207055 
L 92.413266 158.236764 
L 107.852001 144.642814 
L 123.290736 141.649561 
L 138.729471 141.188684 
L 154.168207 136.529991 
L 169.606942 133.131051 
L 185.045677 136.450934 
L 200.484412 143.170283 
L 215.923147 165.476973 
L 231.361882 165.545631 
L 246.800618 165.643393 
L 262.239353 165.755695 
L 277.678088 165.870211 
L 293.116823 165.913014 
L 308.555558 165.91605 
L 323.994293 165.788743 
L 339.433029 165.272912 
L 354.871764 163.555467 
L 370.310499 165.484239 
L 385.749234 165.500564 
L 401.187969 164.95085 
L 416.626705 164.691194 
" style="fill:none;stroke:#1b9e77;stroke-linecap:square;stroke-opacity:0.5;stroke-width:1.5;"/>
   </g>
   <g id="line2d_70">
    <path clip-path="url(#pda61a09c83)" d="M 61.535795 160.465607 
L 76.974531 131.186695 
L 92.413266 111.339186 
L 107.852001 118.374304 
L 123.290736 144.169908 
L 138.729471 153.053049 
L 154.168207 157.436435 
L 169.606942 161.080155 
L 185.045677 162.437359 
L 200.484412 163.270961 
L 215.923147 163.726137 
L 231.361882 164.679857 
L 246.800618 165.252153 
L 262.239353 165.757244 
L 277.678088 165.865826 
L 293.116823 165.8221 
L 308.555558 165.605904 
L 323.994293 165.647853 
L 339.433029 165.786558 
L 354.871764 165.495673 
L 370.310499 165.737724 
L 385.749234 165.593436 
L 401.187969 165.218785 
L 416.626705 165.761314 
" style="fill:none;stroke:#1b9e77;stroke-linecap:square;stroke-opacity:0.5;stroke-width:1.5;"/>
   </g>
   <g id="line2d_71">
    <path clip-path="url(#pda61a09c83)" d="M 61.535795 165.941614 
L 76.974531 165.911338 
L 92.413266 165.915792 
L 107.852001 165.93465 
L 123.290736 165.933686 
L 138.729471 165.950375 
L 154.168207 165.896024 
L 169.606942 164.999927 
L 185.045677 162.667057 
L 200.484412 153.547863 
L 215.923147 157.520386 
L 231.361882 161.585603 
L 246.800618 159.227403 
L 262.239353 142.354166 
L 277.678088 148.707546 
L 293.116823 151.548493 
L 308.555558 163.42891 
L 323.994293 161.321844 
L 339.433029 160.991162 
L 354.871764 160.759372 
L 370.310499 143.079878 
L 385.749234 128.90127 
L 401.187969 131.210553 
L 416.626705 165.429307 
" style="fill:none;stroke:#1b9e77;stroke-linecap:square;stroke-opacity:0.5;stroke-width:1.5;"/>
   </g>
   <g id="line2d_72">
    <path clip-path="url(#pda61a09c83)" d="M 61.535795 165.703587 
L 76.974531 165.45724 
L 92.413266 165.70465 
L 107.852001 165.876203 
L 123.290736 165.914153 
L 138.729471 165.942183 
L 154.168207 165.928637 
L 169.606942 165.719887 
L 185.045677 163.667991 
L 200.484412 163.562626 
L 215.923147 164.714388 
L 231.361882 164.101958 
L 246.800618 153.955231 
L 262.239353 132.401218 
L 277.678088 139.382774 
L 293.116823 142.726047 
L 308.555558 154.477841 
L 323.994293 150.743958 
L 339.433029 125.046299 
L 354.871764 140.361856 
L 370.310499 161.037917 
L 385.749234 165.340268 
L 401.187969 165.550898 
L 416.626705 165.446405 
" style="fill:none;stroke:#1b9e77;stroke-linecap:square;stroke-opacity:0.5;stroke-width:1.5;"/>
   </g>
   <g id="line2d_73">
    <path clip-path="url(#pda61a09c83)" d="M 61.535795 165.851736 
L 76.974531 165.419624 
L 92.413266 165.372165 
L 107.852001 165.292053 
L 123.290736 165.643503 
L 138.729471 165.802824 
L 154.168207 165.743137 
L 169.606942 165.400557 
L 185.045677 163.00095 
L 200.484412 153.672939 
L 215.923147 154.154118 
L 231.361882 156.960707 
L 246.800618 100.377429 
L 262.239353 151.77929 
L 277.678088 163.697701 
L 293.116823 144.211784 
L 308.555558 134.597538 
L 323.994293 156.437536 
L 339.433029 160.835039 
L 354.871764 154.861964 
L 370.310499 163.493242 
L 385.749234 165.209595 
L 401.187969 165.314732 
L 416.626705 165.63406 
" style="fill:none;stroke:#1b9e77;stroke-linecap:square;stroke-opacity:0.5;stroke-width:1.5;"/>
   </g>
   <g id="line2d_74">
    <path clip-path="url(#pda61a09c83)" d="M 61.535795 165.826334 
L 76.974531 165.556141 
L 92.413266 165.728542 
L 107.852001 165.85094 
L 123.290736 165.888963 
L 138.729471 165.901184 
L 154.168207 165.908574 
L 169.606942 165.92714 
L 185.045677 165.935008 
L 200.484412 165.942383 
L 215.923147 165.941142 
L 231.361882 165.940486 
L 246.800618 165.905741 
L 262.239353 165.79529 
L 277.678088 150.279771 
L 293.116823 149.669423 
L 308.555558 157.227671 
L 323.994293 148.822234 
L 339.433029 139.916691 
L 354.871764 146.737955 
L 370.310499 123.748152 
L 385.749234 124.009842 
L 401.187969 152.151222 
L 416.626705 164.153388 
" style="fill:none;stroke:#1b9e77;stroke-linecap:square;stroke-opacity:0.5;stroke-width:1.5;"/>
   </g>
   <g id="line2d_75">
    <path clip-path="url(#pda61a09c83)" d="M 61.535795 165.863448 
L 76.974531 164.596111 
L 92.413266 161.197634 
L 107.852001 100.216365 
L 123.290736 155.560218 
L 138.729471 138.808306 
L 154.168207 146.356872 
L 169.606942 160.023951 
L 185.045677 164.006438 
L 200.484412 164.393334 
L 215.923147 158.362942 
L 231.361882 158.838801 
L 246.800618 147.648655 
L 262.239353 162.302365 
L 277.678088 164.901977 
L 293.116823 162.778899 
L 308.555558 157.493703 
L 323.994293 156.468012 
L 339.433029 160.92083 
L 354.871764 165.160174 
L 370.310499 165.571564 
L 385.749234 165.709714 
L 401.187969 165.670561 
L 416.626705 165.913342 
" style="fill:none;stroke:#1b9e77;stroke-linecap:square;stroke-opacity:0.5;stroke-width:1.5;"/>
   </g>
   <g id="line2d_76">
    <path clip-path="url(#pda61a09c83)" d="M 61.535795 159.150297 
L 76.974531 126.884475 
L 92.413266 96.603649 
L 107.852001 98.19683 
L 123.290736 151.079825 
L 138.729471 163.762918 
L 154.168207 165.161523 
L 169.606942 165.454429 
L 185.045677 165.365025 
L 200.484412 165.539663 
L 215.923147 165.668523 
L 231.361882 165.664324 
L 246.800618 165.565835 
L 262.239353 165.776678 
L 277.678088 165.893489 
L 293.116823 165.904945 
L 308.555558 165.880863 
L 323.994293 165.828177 
L 339.433029 165.835718 
L 354.871764 165.888166 
L 370.310499 165.912169 
L 385.749234 165.911881 
L 401.187969 165.889632 
L 416.626705 165.945181 
" style="fill:none;stroke:#1b9e77;stroke-linecap:square;stroke-opacity:0.5;stroke-width:1.5;"/>
   </g>
   <g id="line2d_77">
    <path clip-path="url(#pda61a09c83)" d="M 61.535795 149.325086 
L 76.974531 131.424006 
L 92.413266 156.378658 
L 107.852001 161.535478 
L 123.290736 163.015998 
L 138.729471 164.452333 
L 154.168207 165.148489 
L 169.606942 165.441855 
L 185.045677 165.192197 
L 200.484412 165.635117 
L 215.923147 165.477469 
L 231.361882 115.54151 
L 246.800618 163.584807 
L 262.239353 163.282198 
L 277.678088 154.044056 
L 293.116823 143.232727 
L 308.555558 136.865681 
L 323.994293 160.369057 
L 339.433029 164.865264 
L 354.871764 165.136815 
L 370.310499 165.447045 
L 385.749234 165.698517 
L 401.187969 165.053844 
L 416.626705 162.61601 
" style="fill:none;stroke:#1b9e77;stroke-linecap:square;stroke-opacity:0.5;stroke-width:1.5;"/>
   </g>
   <g id="line2d_78">
    <path clip-path="url(#pda61a09c83)" d="M 61.535795 121.473059 
L 76.974531 107.5446 
L 92.413266 134.725986 
L 107.852001 157.045227 
L 123.290736 160.691338 
L 138.729471 162.142063 
L 154.168207 161.310903 
L 169.606942 162.207448 
L 185.045677 162.959419 
L 200.484412 163.388806 
L 215.923147 163.328605 
L 231.361882 163.770209 
L 246.800618 164.33647 
L 262.239353 164.934313 
L 277.678088 164.844223 
L 293.116823 163.881984 
L 308.555558 162.411077 
L 323.994293 162.543851 
L 339.433029 163.164869 
L 354.871764 162.173383 
L 370.310499 160.323492 
L 385.749234 161.893714 
L 401.187969 164.044518 
L 416.626705 163.624662 
" style="fill:none;stroke:#1b9e77;stroke-linecap:square;stroke-opacity:0.5;stroke-width:1.5;"/>
   </g>
   <g id="line2d_79">
    <path clip-path="url(#pda61a09c83)" d="M 61.535795 165.712622 
L 76.974531 165.861444 
L 92.413266 165.731037 
L 107.852001 163.298899 
L 123.290736 144.460924 
L 138.729471 154.253936 
L 154.168207 149.098666 
L 169.606942 154.513915 
L 185.045677 162.534258 
L 200.484412 154.472438 
L 215.923147 161.954187 
L 231.361882 163.998506 
L 246.800618 160.322648 
L 262.239353 134.588647 
L 277.678088 145.212149 
L 293.116823 157.027184 
L 308.555558 164.679 
L 323.994293 164.730181 
L 339.433029 152.363137 
L 354.871764 154.151222 
L 370.310499 163.477663 
L 385.749234 157.721047 
L 401.187969 153.368189 
L 416.626705 165.232314 
" style="fill:none;stroke:#1b9e77;stroke-linecap:square;stroke-opacity:0.5;stroke-width:1.5;"/>
   </g>
   <g id="line2d_80">
    <path clip-path="url(#pda61a09c83)" d="M 61.535795 87.808915 
L 76.974531 94.839308 
L 92.413266 148.133574 
L 107.852001 157.629595 
L 123.290736 159.731175 
L 138.729471 163.468209 
L 154.168207 164.602194 
L 169.606942 163.123123 
L 185.045677 165.323637 
L 200.484412 165.598169 
L 215.923147 165.661238 
L 231.361882 165.53988 
L 246.800618 165.146828 
L 262.239353 165.812733 
L 277.678088 165.803549 
L 293.116823 165.744549 
L 308.555558 165.817623 
L 323.994293 165.86189 
L 339.433029 165.865729 
L 354.871764 165.82335 
L 370.310499 165.719323 
L 385.749234 165.86506 
L 401.187969 165.751601 
L 416.626705 154.092967 
" style="fill:none;stroke:#1b9e77;stroke-linecap:square;stroke-opacity:0.5;stroke-width:1.5;"/>
   </g>
   <g id="line2d_81">
    <path clip-path="url(#pda61a09c83)" d="M 61.535795 163.080421 
L 76.974531 151.769818 
L 92.413266 138.984212 
L 107.852001 126.952375 
L 123.290736 114.028198 
L 138.729471 137.959266 
L 154.168207 149.972464 
L 169.606942 162.533284 
L 185.045677 164.967462 
L 200.484412 164.751347 
L 215.923147 165.579023 
L 231.361882 165.761223 
L 246.800618 164.48767 
L 262.239353 164.442404 
L 277.678088 164.764089 
L 293.116823 164.701987 
L 308.555558 163.852714 
L 323.994293 159.4434 
L 339.433029 163.822807 
L 354.871764 164.872409 
L 370.310499 165.213023 
L 385.749234 165.535172 
L 401.187969 165.437186 
L 416.626705 165.852267 
" style="fill:none;stroke:#1b9e77;stroke-linecap:square;stroke-opacity:0.5;stroke-width:1.5;"/>
   </g>
   <g id="line2d_82">
    <path clip-path="url(#pda61a09c83)" d="M 61.535795 160.816543 
L 76.974531 155.699065 
L 92.413266 153.609659 
L 107.852001 145.499733 
L 123.290736 116.662342 
L 138.729471 90.200608 
L 154.168207 160.821888 
L 169.606942 164.739282 
L 185.045677 165.058482 
L 200.484412 165.296386 
L 215.923147 165.627878 
L 231.361882 165.855126 
L 246.800618 165.919532 
L 262.239353 165.950835 
L 277.678088 165.955548 
L 293.116823 165.956626 
L 308.555558 165.943247 
L 323.994293 165.366208 
L 339.433029 161.815813 
L 354.871764 150.85212 
L 370.310499 165.377279 
L 385.749234 165.170378 
L 401.187969 165.266699 
L 416.626705 165.302923 
" style="fill:none;stroke:#1b9e77;stroke-linecap:square;stroke-opacity:0.5;stroke-width:1.5;"/>
   </g>
   <g id="line2d_83">
    <path clip-path="url(#pda61a09c83)" d="M 61.535795 165.900504 
L 76.974531 165.835678 
L 92.413266 165.852733 
L 107.852001 165.925659 
L 123.290736 165.928377 
L 138.729471 165.818946 
L 154.168207 161.640722 
L 169.606942 149.483452 
L 185.045677 137.056515 
L 200.484412 125.501188 
L 215.923147 140.188284 
L 231.361882 88.988435 
L 246.800618 159.009238 
L 262.239353 164.229842 
L 277.678088 165.206129 
L 293.116823 165.521527 
L 308.555558 165.615922 
L 323.994293 165.725173 
L 339.433029 165.79171 
L 354.871764 165.85861 
L 370.310499 165.892661 
L 385.749234 165.94263 
L 401.187969 165.950953 
L 416.626705 165.899335 
" style="fill:none;stroke:#1b9e77;stroke-linecap:square;stroke-opacity:0.5;stroke-width:1.5;"/>
   </g>
   <g id="line2d_84">
    <path clip-path="url(#pda61a09c83)" d="M 61.535795 162.884533 
L 76.974531 160.632747 
L 92.413266 153.542647 
L 107.852001 154.45779 
L 123.290736 150.671013 
L 138.729471 155.373933 
L 154.168207 160.237861 
L 169.606942 155.900092 
L 185.045677 129.29238 
L 200.484412 137.054346 
L 215.923147 150.656988 
L 231.361882 153.819775 
L 246.800618 163.603266 
L 262.239353 162.817035 
L 277.678088 164.08458 
L 293.116823 164.52024 
L 308.555558 165.732408 
L 323.994293 165.844346 
L 339.433029 165.818424 
L 354.871764 165.673089 
L 370.310499 163.626041 
L 385.749234 160.962773 
L 401.187969 146.997045 
L 416.626705 164.560859 
" style="fill:none;stroke:#1b9e77;stroke-linecap:square;stroke-opacity:0.5;stroke-width:1.5;"/>
   </g>
   <g id="line2d_85">
    <path clip-path="url(#pda61a09c83)" d="M 61.535795 152.924185 
L 76.974531 108.139897 
L 92.413266 113.13394 
L 107.852001 134.702005 
L 123.290736 147.581489 
L 138.729471 155.610731 
L 154.168207 159.046289 
L 169.606942 162.210748 
L 185.045677 162.919786 
L 200.484412 164.408676 
L 215.923147 165.090029 
L 231.361882 165.412494 
L 246.800618 165.489189 
L 262.239353 165.780382 
L 277.678088 165.830437 
L 293.116823 165.459453 
L 308.555558 165.28676 
L 323.994293 165.777424 
L 339.433029 165.682873 
L 354.871764 165.679756 
L 370.310499 165.738979 
L 385.749234 165.85412 
L 401.187969 165.830463 
L 416.626705 165.174122 
" style="fill:none;stroke:#1b9e77;stroke-linecap:square;stroke-opacity:0.5;stroke-width:1.5;"/>
   </g>
   <g id="line2d_86">
    <path clip-path="url(#pda61a09c83)" d="M 61.535795 165.850691 
L 76.974531 165.655106 
L 92.413266 165.495705 
L 107.852001 164.927856 
L 123.290736 163.367453 
L 138.729471 162.934421 
L 154.168207 104.91372 
L 169.606942 36.943565 
L 185.045677 164.73128 
L 200.484412 164.144002 
L 215.923147 164.762947 
L 231.361882 165.595954 
L 246.800618 165.787933 
L 262.239353 165.843032 
L 277.678088 165.771586 
L 293.116823 165.665727 
L 308.555558 165.589291 
L 323.994293 165.77664 
L 339.433029 165.872449 
L 354.871764 165.859586 
L 370.310499 165.799639 
L 385.749234 165.791412 
L 401.187969 165.843382 
L 416.626705 165.84085 
" style="fill:none;stroke:#1b9e77;stroke-linecap:square;stroke-opacity:0.5;stroke-width:1.5;"/>
   </g>
   <g id="line2d_87">
    <path clip-path="url(#pda61a09c83)" d="M 61.535795 165.88187 
L 76.974531 165.607762 
L 92.413266 158.548026 
L 107.852001 123.708834 
L 123.290736 122.408992 
L 138.729471 110.040436 
L 154.168207 119.388173 
L 169.606942 161.671251 
L 185.045677 165.609902 
L 200.484412 165.519192 
L 215.923147 165.743305 
L 231.361882 165.847068 
L 246.800618 165.867474 
L 262.239353 165.831563 
L 277.678088 165.783218 
L 293.116823 165.793557 
L 308.555558 165.854668 
L 323.994293 165.874479 
L 339.433029 165.861265 
L 354.871764 165.846254 
L 370.310499 165.853816 
L 385.749234 165.931283 
L 401.187969 165.925528 
L 416.626705 164.366295 
" style="fill:none;stroke:#1b9e77;stroke-linecap:square;stroke-opacity:0.5;stroke-width:1.5;"/>
   </g>
   <g id="line2d_88">
    <path clip-path="url(#pda61a09c83)" d="M 61.535795 165.847587 
L 76.974531 165.707853 
L 92.413266 165.806609 
L 107.852001 165.870629 
L 123.290736 165.883412 
L 138.729471 165.905503 
L 154.168207 165.922911 
L 169.606942 165.937058 
L 185.045677 165.939141 
L 200.484412 165.941968 
L 215.923147 165.934829 
L 231.361882 165.865011 
L 246.800618 164.49827 
L 262.239353 162.551709 
L 277.678088 153.563794 
L 293.116823 153.035737 
L 308.555558 160.34228 
L 323.994293 161.083606 
L 339.433029 159.114865 
L 354.871764 155.910276 
L 370.310499 42.223904 
L 385.749234 151.005997 
L 401.187969 161.494726 
L 416.626705 163.376541 
" style="fill:none;stroke:#1b9e77;stroke-linecap:square;stroke-opacity:0.5;stroke-width:1.5;"/>
   </g>
   <g id="line2d_89">
    <path clip-path="url(#pda61a09c83)" d="M 61.535795 165.87426 
L 76.974531 165.704959 
L 92.413266 165.77886 
L 107.852001 165.874189 
L 123.290736 165.905321 
L 138.729471 165.931155 
L 154.168207 165.94018 
L 169.606942 165.952936 
L 185.045677 165.952394 
L 200.484412 165.94688 
L 215.923147 165.726818 
L 231.361882 160.315598 
L 246.800618 155.451533 
L 262.239353 149.061361 
L 277.678088 148.702668 
L 293.116823 159.773628 
L 308.555558 162.392218 
L 323.994293 156.114906 
L 339.433029 155.726481 
L 354.871764 154.448774 
L 370.310499 105.946167 
L 385.749234 131.325866 
L 401.187969 150.709208 
L 416.626705 164.207859 
" style="fill:none;stroke:#1b9e77;stroke-linecap:square;stroke-opacity:0.5;stroke-width:1.5;"/>
   </g>
   <g id="line2d_90">
    <path clip-path="url(#pda61a09c83)" d="M 61.535795 153.239254 
L 76.974531 83.198638 
L 92.413266 109.737132 
L 107.852001 140.370671 
L 123.290736 153.302814 
L 138.729471 160.615243 
L 154.168207 163.800218 
L 169.606942 165.084172 
L 185.045677 165.361471 
L 200.484412 165.671424 
L 215.923147 165.800083 
L 231.361882 165.843708 
L 246.800618 165.841813 
L 262.239353 165.881266 
L 277.678088 165.906091 
L 293.116823 165.900851 
L 308.555558 165.873635 
L 323.994293 165.822098 
L 339.433029 165.749116 
L 354.871764 165.587528 
L 370.310499 165.516016 
L 385.749234 165.54363 
L 401.187969 164.764015 
L 416.626705 164.353323 
" style="fill:none;stroke:#1b9e77;stroke-linecap:square;stroke-opacity:0.5;stroke-width:1.5;"/>
   </g>
   <g id="line2d_91">
    <path clip-path="url(#pda61a09c83)" d="M 61.535795 165.903616 
L 76.974531 165.729417 
L 92.413266 165.580422 
L 107.852001 164.754735 
L 123.290736 159.301207 
L 138.729471 162.905842 
L 154.168207 163.411557 
L 169.606942 164.907041 
L 185.045677 165.307183 
L 200.484412 162.048251 
L 215.923147 161.354022 
L 231.361882 157.59082 
L 246.800618 161.455585 
L 262.239353 162.40097 
L 277.678088 149.236341 
L 293.116823 126.426928 
L 308.555558 157.448716 
L 323.994293 162.251832 
L 339.433029 154.080128 
L 354.871764 124.668221 
L 370.310499 133.937663 
L 385.749234 160.483614 
L 401.187969 162.377061 
L 416.626705 165.20304 
" style="fill:none;stroke:#1b9e77;stroke-linecap:square;stroke-opacity:0.5;stroke-width:1.5;"/>
   </g>
   <g id="line2d_92">
    <path clip-path="url(#pda61a09c83)" d="M 61.535795 161.706368 
L 76.974531 141.056544 
L 92.413266 122.822278 
L 107.852001 117.375999 
L 123.290736 163.951964 
L 138.729471 165.156249 
L 154.168207 165.609801 
L 169.606942 165.742093 
L 185.045677 165.624871 
L 200.484412 165.136692 
L 215.923147 165.535547 
L 231.361882 165.609031 
L 246.800618 163.592401 
L 262.239353 162.482025 
L 277.678088 145.13229 
L 293.116823 157.516934 
L 308.555558 160.728347 
L 323.994293 161.912824 
L 339.433029 161.814024 
L 354.871764 158.489828 
L 370.310499 154.245643 
L 385.749234 160.394868 
L 401.187969 161.747427 
L 416.626705 165.380169 
" style="fill:none;stroke:#1b9e77;stroke-linecap:square;stroke-opacity:0.5;stroke-width:1.5;"/>
   </g>
   <g id="line2d_93">
    <path clip-path="url(#pda61a09c83)" d="M 61.535795 156.428034 
L 76.974531 157.66578 
L 92.413266 159.954821 
L 107.852001 151.45902 
L 123.290736 68.460332 
L 138.729471 100.599159 
L 154.168207 165.049834 
L 169.606942 165.459215 
L 185.045677 165.428623 
L 200.484412 165.534618 
L 215.923147 165.725398 
L 231.361882 165.869199 
L 246.800618 165.906579 
L 262.239353 165.943675 
L 277.678088 165.95324 
L 293.116823 165.955319 
L 308.555558 165.954598 
L 323.994293 165.9531 
L 339.433029 165.950223 
L 354.871764 165.932998 
L 370.310499 165.937804 
L 385.749234 165.935081 
L 401.187969 165.91024 
L 416.626705 165.797323 
" style="fill:none;stroke:#1b9e77;stroke-linecap:square;stroke-opacity:0.5;stroke-width:1.5;"/>
   </g>
   <g id="line2d_94">
    <path clip-path="url(#pda61a09c83)" d="M 61.535795 165.802991 
L 76.974531 165.659829 
L 92.413266 165.735306 
L 107.852001 165.879463 
L 123.290736 165.912468 
L 138.729471 165.884922 
L 154.168207 165.769598 
L 169.606942 165.821769 
L 185.045677 165.689418 
L 200.484412 164.717685 
L 215.923147 156.291827 
L 231.361882 153.687282 
L 246.800618 164.35115 
L 262.239353 165.573774 
L 277.678088 165.716892 
L 293.116823 163.61988 
L 308.555558 155.337803 
L 323.994293 162.734564 
L 339.433029 162.13113 
L 354.871764 128.833822 
L 370.310499 131.330084 
L 385.749234 125.488474 
L 401.187969 127.781269 
L 416.626705 159.012822 
" style="fill:none;stroke:#1b9e77;stroke-linecap:square;stroke-opacity:0.5;stroke-width:1.5;"/>
   </g>
   <g id="line2d_95">
    <path clip-path="url(#pda61a09c83)" d="M 61.535795 165.548041 
L 76.974531 165.889963 
L 92.413266 165.179717 
L 107.852001 162.757172 
L 123.290736 110.010063 
L 138.729471 53.570154 
L 154.168207 154.745858 
L 169.606942 155.652931 
L 185.045677 165.501957 
L 200.484412 165.380921 
L 215.923147 165.776218 
L 231.361882 165.866468 
L 246.800618 165.910955 
L 262.239353 165.932075 
L 277.678088 165.927637 
L 293.116823 165.950773 
L 308.555558 165.948378 
L 323.994293 165.904757 
L 339.433029 165.926786 
L 354.871764 165.908119 
L 370.310499 164.391469 
L 385.749234 161.132588 
L 401.187969 164.587623 
L 416.626705 165.363584 
" style="fill:none;stroke:#1b9e77;stroke-linecap:square;stroke-opacity:0.5;stroke-width:1.5;"/>
   </g>
   <g id="line2d_96">
    <path clip-path="url(#pda61a09c83)" d="M 61.535795 165.89379 
L 76.974531 165.823639 
L 92.413266 165.877973 
L 107.852001 165.92775 
L 123.290736 165.933635 
L 138.729471 165.948994 
L 154.168207 165.823805 
L 169.606942 155.044659 
L 185.045677 154.797739 
L 200.484412 143.872656 
L 215.923147 141.012428 
L 231.361882 160.318997 
L 246.800618 164.332662 
L 262.239353 164.853324 
L 277.678088 165.562779 
L 293.116823 165.214147 
L 308.555558 154.529472 
L 323.994293 164.273023 
L 339.433029 158.596877 
L 354.871764 162.865011 
L 370.310499 163.86778 
L 385.749234 119.777833 
L 401.187969 121.625948 
L 416.626705 156.989293 
" style="fill:none;stroke:#1b9e77;stroke-linecap:square;stroke-opacity:0.5;stroke-width:1.5;"/>
   </g>
   <g id="line2d_97">
    <path clip-path="url(#pda61a09c83)" d="M 61.535795 165.889009 
L 76.974531 165.758319 
L 92.413266 165.851117 
L 107.852001 165.914951 
L 123.290736 165.932296 
L 138.729471 165.943199 
L 154.168207 165.941432 
L 169.606942 165.929631 
L 185.045677 165.115067 
L 200.484412 163.428701 
L 215.923147 157.721446 
L 231.361882 150.855362 
L 246.800618 121.032743 
L 262.239353 131.045624 
L 277.678088 160.820972 
L 293.116823 146.266714 
L 308.555558 126.470024 
L 323.994293 141.484507 
L 339.433029 161.784679 
L 354.871764 164.098475 
L 370.310499 164.722347 
L 385.749234 165.183918 
L 401.187969 165.706585 
L 416.626705 165.867105 
" style="fill:none;stroke:#1b9e77;stroke-linecap:square;stroke-opacity:0.5;stroke-width:1.5;"/>
   </g>
   <g id="line2d_98">
    <path clip-path="url(#pda61a09c83)" d="M 61.535795 132.91521 
L 76.974531 134.099528 
L 92.413266 157.818896 
L 107.852001 162.201473 
L 123.290736 162.603668 
L 138.729471 162.137286 
L 154.168207 164.075467 
L 169.606942 165.130232 
L 185.045677 165.015745 
L 200.484412 164.747476 
L 215.923147 163.698546 
L 231.361882 160.432682 
L 246.800618 163.819756 
L 262.239353 164.82888 
L 277.678088 159.874311 
L 293.116823 153.596555 
L 308.555558 160.309666 
L 323.994293 150.986048 
L 339.433029 149.797492 
L 354.871764 164.521472 
L 370.310499 131.605406 
L 385.749234 158.190908 
L 401.187969 162.986865 
L 416.626705 163.370645 
" style="fill:none;stroke:#1b9e77;stroke-linecap:square;stroke-opacity:0.5;stroke-width:1.5;"/>
   </g>
   <g id="line2d_99">
    <path clip-path="url(#pda61a09c83)" d="M 61.535795 165.76878 
L 76.974531 165.535804 
L 92.413266 165.671958 
L 107.852001 165.711827 
L 123.290736 165.573223 
L 138.729471 165.603837 
L 154.168207 165.706695 
L 169.606942 165.739053 
L 185.045677 165.681833 
L 200.484412 165.559672 
L 215.923147 165.518231 
L 231.361882 165.853917 
L 246.800618 165.695033 
L 262.239353 162.931603 
L 277.678088 122.400664 
L 293.116823 82.639155 
L 308.555558 139.674792 
L 323.994293 156.21591 
L 339.433029 164.68872 
L 354.871764 165.637413 
L 370.310499 163.414275 
L 385.749234 162.866913 
L 401.187969 151.847731 
L 416.626705 152.827179 
" style="fill:none;stroke:#1b9e77;stroke-linecap:square;stroke-opacity:0.5;stroke-width:1.5;"/>
   </g>
   <g id="line2d_100">
    <path clip-path="url(#pda61a09c83)" d="M 61.535795 165.109185 
L 76.974531 157.792791 
L 92.413266 143.284445 
L 107.852001 144.049466 
L 123.290736 123.161169 
L 138.729471 126.129865 
L 154.168207 136.000931 
L 169.606942 152.729467 
L 185.045677 161.783225 
L 200.484412 155.892584 
L 215.923147 161.550846 
L 231.361882 163.123939 
L 246.800618 165.115758 
L 262.239353 165.040571 
L 277.678088 165.506139 
L 293.116823 165.673468 
L 308.555558 165.702285 
L 323.994293 165.753574 
L 339.433029 165.798282 
L 354.871764 165.887797 
L 370.310499 165.916252 
L 385.749234 165.932587 
L 401.187969 165.90522 
L 416.626705 165.924373 
" style="fill:none;stroke:#1b9e77;stroke-linecap:square;stroke-opacity:0.5;stroke-width:1.5;"/>
   </g>
   <g id="line2d_101">
    <path clip-path="url(#pda61a09c83)" d="M 61.535795 147.92323 
L 76.974531 134.650479 
L 92.413266 109.308202 
L 107.852001 94.15686 
L 123.290736 151.58335 
L 138.729471 161.498311 
L 154.168207 164.616477 
L 169.606942 165.069133 
L 185.045677 165.002671 
L 200.484412 165.205774 
L 215.923147 165.436428 
L 231.361882 165.716749 
L 246.800618 165.830814 
L 262.239353 165.893701 
L 277.678088 165.911112 
L 293.116823 165.930363 
L 308.555558 165.941017 
L 323.994293 165.940168 
L 339.433029 165.936271 
L 354.871764 165.929748 
L 370.310499 165.915452 
L 385.749234 165.936573 
L 401.187969 165.775755 
L 416.626705 163.655581 
" style="fill:none;stroke:#1b9e77;stroke-linecap:square;stroke-opacity:0.5;stroke-width:1.5;"/>
   </g>
   <g id="line2d_102">
    <path clip-path="url(#pda61a09c83)" d="M 61.535795 163.384629 
L 76.974531 161.707541 
L 92.413266 163.173255 
L 107.852001 161.904635 
L 123.290736 119.616207 
L 138.729471 85.977621 
L 154.168207 149.379909 
L 169.606942 151.189831 
L 185.045677 151.039914 
L 200.484412 151.299818 
L 215.923147 164.889769 
L 231.361882 165.53048 
L 246.800618 165.508418 
L 262.239353 164.922004 
L 277.678088 165.888998 
L 293.116823 165.904508 
L 308.555558 165.907033 
L 323.994293 165.923331 
L 339.433029 165.938437 
L 354.871764 165.943438 
L 370.310499 165.938577 
L 385.749234 165.953288 
L 401.187969 165.954858 
L 416.626705 165.887721 
" style="fill:none;stroke:#1b9e77;stroke-linecap:square;stroke-opacity:0.5;stroke-width:1.5;"/>
   </g>
   <g id="line2d_103">
    <path clip-path="url(#pda61a09c83)" d="M 61.535795 155.830463 
L 76.974531 157.497796 
L 92.413266 164.845846 
L 107.852001 164.755051 
L 123.290736 164.831433 
L 138.729471 165.207029 
L 154.168207 165.562471 
L 169.606942 165.728207 
L 185.045677 165.704116 
L 200.484412 165.761571 
L 215.923147 165.814826 
L 231.361882 165.893239 
L 246.800618 165.921033 
L 262.239353 165.94367 
L 277.678088 165.916039 
L 293.116823 165.453413 
L 308.555558 163.122476 
L 323.994293 160.391422 
L 339.433029 139.3138 
L 354.871764 136.186001 
L 370.310499 129.504114 
L 385.749234 125.479953 
L 401.187969 132.991652 
L 416.626705 161.108605 
" style="fill:none;stroke:#1b9e77;stroke-linecap:square;stroke-opacity:0.5;stroke-width:1.5;"/>
   </g>
   <g id="line2d_104">
    <path clip-path="url(#pda61a09c83)" d="M 61.535795 156.589847 
L 76.974531 141.394713 
L 92.413266 152.949522 
L 107.852001 149.241672 
L 123.290736 143.509414 
L 138.729471 160.285672 
L 154.168207 159.886164 
L 169.606942 132.015943 
L 185.045677 163.98926 
L 200.484412 164.853363 
L 215.923147 153.139541 
L 231.361882 140.761093 
L 246.800618 146.357637 
L 262.239353 164.107552 
L 277.678088 165.770713 
L 293.116823 165.502506 
L 308.555558 164.186421 
L 323.994293 163.801455 
L 339.433029 165.486563 
L 354.871764 165.758878 
L 370.310499 165.50697 
L 385.749234 165.431337 
L 401.187969 163.568638 
L 416.626705 164.669341 
" style="fill:none;stroke:#1b9e77;stroke-linecap:square;stroke-opacity:0.5;stroke-width:1.5;"/>
   </g>
   <g id="line2d_105">
    <path clip-path="url(#pda61a09c83)" d="M 61.535795 165.712899 
L 76.974531 165.854858 
L 92.413266 165.817937 
L 107.852001 165.133369 
L 123.290736 155.36416 
L 138.729471 118.03763 
L 154.168207 157.241167 
L 169.606942 160.276956 
L 185.045677 162.904239 
L 200.484412 158.108319 
L 215.923147 81.863506 
L 231.361882 135.391639 
L 246.800618 164.414668 
L 262.239353 164.097752 
L 277.678088 165.184416 
L 293.116823 165.887459 
L 308.555558 165.952011 
L 323.994293 165.954191 
L 339.433029 165.958211 
L 354.871764 165.96 
L 370.310499 165.9552 
L 385.749234 165.947911 
L 401.187969 165.816111 
L 416.626705 165.9296 
" style="fill:none;stroke:#1b9e77;stroke-linecap:square;stroke-opacity:0.5;stroke-width:1.5;"/>
   </g>
   <g id="line2d_106">
    <path clip-path="url(#pda61a09c83)" d="M 61.535795 165.833888 
L 76.974531 165.371205 
L 92.413266 165.26104 
L 107.852001 165.441785 
L 123.290736 165.415772 
L 138.729471 165.729101 
L 154.168207 165.864726 
L 169.606942 165.883592 
L 185.045677 165.837399 
L 200.484412 165.860315 
L 215.923147 165.896302 
L 231.361882 165.887139 
L 246.800618 165.504755 
L 262.239353 165.541003 
L 277.678088 155.218701 
L 293.116823 14.76 
L 308.555558 148.251889 
L 323.994293 156.328037 
L 339.433029 164.257678 
L 354.871764 165.033083 
L 370.310499 163.700691 
L 385.749234 165.785181 
L 401.187969 165.087536 
L 416.626705 161.013385 
" style="fill:none;stroke:#1b9e77;stroke-linecap:square;stroke-opacity:0.5;stroke-width:1.5;"/>
   </g>
   <g id="line2d_107">
    <path clip-path="url(#pda61a09c83)" d="M 61.535795 152.74918 
L 76.974531 153.715587 
L 92.413266 163.06718 
L 107.852001 165.579251 
L 123.290736 165.83252 
L 138.729471 164.884921 
L 154.168207 164.656728 
L 169.606942 165.511452 
L 185.045677 165.675675 
L 200.484412 165.89669 
L 215.923147 165.651123 
L 231.361882 165.213255 
L 246.800618 163.397825 
L 262.239353 147.024245 
L 277.678088 165.104394 
L 293.116823 165.502918 
L 308.555558 163.414596 
L 323.994293 160.006037 
L 339.433029 155.690338 
L 354.871764 128.967593 
L 370.310499 132.14245 
L 385.749234 119.034889 
L 401.187969 154.450382 
L 416.626705 165.594983 
" style="fill:none;stroke:#1b9e77;stroke-linecap:square;stroke-opacity:0.5;stroke-width:1.5;"/>
   </g>
   <g id="line2d_108">
    <path clip-path="url(#pda61a09c83)" d="M 61.535795 165.778091 
L 76.974531 165.391811 
L 92.413266 165.21327 
L 107.852001 165.434107 
L 123.290736 164.260702 
L 138.729471 160.571907 
L 154.168207 148.444337 
L 169.606942 150.85139 
L 185.045677 156.594988 
L 200.484412 140.324548 
L 215.923147 123.055582 
L 231.361882 131.492529 
L 246.800618 159.758428 
L 262.239353 158.188668 
L 277.678088 161.869821 
L 293.116823 157.0473 
L 308.555558 156.123127 
L 323.994293 164.488991 
L 339.433029 164.7942 
L 354.871764 165.229635 
L 370.310499 165.37888 
L 385.749234 165.588931 
L 401.187969 165.120832 
L 416.626705 157.762147 
" style="fill:none;stroke:#1b9e77;stroke-linecap:square;stroke-opacity:0.5;stroke-width:1.5;"/>
   </g>
   <g id="line2d_109">
    <path clip-path="url(#pda61a09c83)" d="M 61.535795 165.951041 
L 76.974531 165.9347 
L 92.413266 165.942561 
L 107.852001 165.950324 
L 123.290736 165.845189 
L 138.729471 164.865155 
L 154.168207 161.805949 
L 169.606942 160.474112 
L 185.045677 160.321036 
L 200.484412 159.428438 
L 215.923147 157.129881 
L 231.361882 151.120817 
L 246.800618 161.697043 
L 262.239353 134.800995 
L 277.678088 144.300317 
L 293.116823 145.417599 
L 308.555558 149.374096 
L 323.994293 152.785454 
L 339.433029 150.415152 
L 354.871764 156.882792 
L 370.310499 161.390877 
L 385.749234 159.491091 
L 401.187969 154.312608 
L 416.626705 163.12699 
" style="fill:none;stroke:#1b9e77;stroke-linecap:square;stroke-opacity:0.5;stroke-width:1.5;"/>
   </g>
   <g id="line2d_110">
    <path clip-path="url(#pda61a09c83)" d="M 61.535795 165.71754 
L 76.974531 165.415591 
L 92.413266 165.637901 
L 107.852001 165.831991 
L 123.290736 165.886157 
L 138.729471 165.924548 
L 154.168207 165.934906 
L 169.606942 165.942672 
L 185.045677 165.94086 
L 200.484412 165.94156 
L 215.923147 165.901387 
L 231.361882 165.55906 
L 246.800618 163.659886 
L 262.239353 158.053917 
L 277.678088 123.087413 
L 293.116823 117.734001 
L 308.555558 129.833309 
L 323.994293 106.705608 
L 339.433029 163.904559 
L 354.871764 164.631924 
L 370.310499 164.800585 
L 385.749234 165.275437 
L 401.187969 165.613933 
L 416.626705 165.829469 
" style="fill:none;stroke:#1b9e77;stroke-linecap:square;stroke-opacity:0.5;stroke-width:1.5;"/>
   </g>
   <g id="line2d_111">
    <path clip-path="url(#pda61a09c83)" d="M 61.535795 165.903241 
L 76.974531 165.663876 
L 92.413266 165.44103 
L 107.852001 165.471019 
L 123.290736 163.563065 
L 138.729471 161.001858 
L 154.168207 153.097752 
L 169.606942 126.950854 
L 185.045677 82.312662 
L 200.484412 139.725681 
L 215.923147 162.819135 
L 231.361882 160.907937 
L 246.800618 150.342142 
L 262.239353 161.115288 
L 277.678088 164.611513 
L 293.116823 164.721193 
L 308.555558 165.131657 
L 323.994293 165.234371 
L 339.433029 165.535439 
L 354.871764 165.785567 
L 370.310499 165.879764 
L 385.749234 165.949932 
L 401.187969 165.951784 
L 416.626705 165.647462 
" style="fill:none;stroke:#1b9e77;stroke-linecap:square;stroke-opacity:0.5;stroke-width:1.5;"/>
   </g>
   <g id="line2d_112">
    <path clip-path="url(#pda61a09c83)" d="M 61.535795 108.55424 
L 76.974531 112.333239 
L 92.413266 130.142952 
L 107.852001 156.728997 
L 123.290736 162.590065 
L 138.729471 164.687556 
L 154.168207 165.063178 
L 169.606942 165.259459 
L 185.045677 165.322066 
L 200.484412 165.434182 
L 215.923147 165.37808 
L 231.361882 164.843188 
L 246.800618 161.790756 
L 262.239353 159.950427 
L 277.678088 163.080364 
L 293.116823 163.525198 
L 308.555558 163.121418 
L 323.994293 160.949284 
L 339.433029 160.028793 
L 354.871764 162.25579 
L 370.310499 163.562587 
L 385.749234 165.003656 
L 401.187969 165.373579 
L 416.626705 163.785167 
" style="fill:none;stroke:#1b9e77;stroke-linecap:square;stroke-opacity:0.5;stroke-width:1.5;"/>
   </g>
   <g id="line2d_113">
    <path clip-path="url(#pda61a09c83)" d="M 61.535795 165.935467 
L 76.974531 165.795838 
L 92.413266 164.460325 
L 107.852001 158.34999 
L 123.290736 156.505403 
L 138.729471 152.318966 
L 154.168207 152.24601 
L 169.606942 146.467162 
L 185.045677 165.494235 
L 200.484412 165.744332 
L 215.923147 165.83288 
L 231.361882 165.893657 
L 246.800618 165.89244 
L 262.239353 165.877166 
L 277.678088 165.754379 
L 293.116823 164.124294 
L 308.555558 155.98725 
L 323.994293 146.57419 
L 339.433029 153.633259 
L 354.871764 142.239239 
L 370.310499 130.413681 
L 385.749234 143.751311 
L 401.187969 156.278589 
L 416.626705 163.194152 
" style="fill:none;stroke:#1b9e77;stroke-linecap:square;stroke-opacity:0.5;stroke-width:1.5;"/>
   </g>
   <g id="line2d_114">
    <path clip-path="url(#pda61a09c83)" d="M 61.535795 165.950479 
L 76.974531 165.950479 
L 92.413266 165.950479 
L 107.852001 165.950479 
L 123.290736 165.950479 
L 138.729471 165.045929 
L 154.168207 161.563658 
L 169.606942 156.523699 
L 185.045677 153.961055 
L 200.484412 153.005291 
L 215.923147 144.821084 
L 231.361882 125.544551 
L 246.800618 139.604547 
L 262.239353 155.862684 
L 277.678088 163.166167 
L 293.116823 161.74232 
L 308.555558 147.308997 
L 323.994293 161.363541 
L 339.433029 159.700896 
L 354.871764 136.582721 
L 370.310499 165.363239 
L 385.749234 165.950479 
L 401.187969 165.950479 
L 416.626705 165.950479 
" style="fill:none;stroke:#d95f02;stroke-linecap:square;stroke-width:1.5;"/>
   </g>
   <g id="patch_3">
    <path d="M 43.78125 173.52 
L 43.78125 7.2 
" style="fill:none;stroke:#000000;stroke-linecap:square;stroke-linejoin:miter;stroke-width:0.8;"/>
   </g>
   <g id="patch_4">
    <path d="M 43.78125 173.52 
L 434.38125 173.52 
" style="fill:none;stroke:#000000;stroke-linecap:square;stroke-linejoin:miter;stroke-width:0.8;"/>
   </g>
   <g id="legend_1">
    <g id="patch_5">
     <path d="M 376.214063 29.878125 
L 427.38125 29.878125 
Q 429.38125 29.878125 429.38125 27.878125 
L 429.38125 14.2 
Q 429.38125 12.2 427.38125 12.2 
L 376.214063 12.2 
Q 374.214063 12.2 374.214063 14.2 
L 374.214063 27.878125 
Q 374.214063 29.878125 376.214063 29.878125 
z
" style="fill:#ffffff;opacity:0.8;stroke:#cccccc;stroke-linejoin:miter;"/>
    </g>
    <g id="line2d_115">
     <path d="M 378.214063 20.298438 
L 398.214063 20.298438 
" style="fill:none;stroke:#d95f02;stroke-linecap:square;stroke-width:1.5;"/>
    </g>
    <g id="line2d_116"/>
    <g id="text_16">
     <!-- real -->
     <defs>
      <path d="M 9.421875 75.984375 
L 18.40625 75.984375 
L 18.40625 0 
L 9.421875 0 
z
" id="DejaVuSans-108"/>
     </defs>
     <g transform="translate(406.214063 23.798438)scale(0.1 -0.1)">
      <use xlink:href="#DejaVuSans-114"/>
      <use x="41.082031" xlink:href="#DejaVuSans-101"/>
      <use x="102.605469" xlink:href="#DejaVuSans-97"/>
      <use x="163.884766" xlink:href="#DejaVuSans-108"/>
     </g>
    </g>
   </g>
  </g>
 </g>
 <defs>
  <clipPath id="pda61a09c83">
   <rect height="166.32" width="390.6" x="43.78125" y="7.2"/>
  </clipPath>
 </defs>
</svg>
