<?xml version="1.0" encoding="utf-8" standalone="no"?>
<!DOCTYPE svg PUBLIC "-//W3C//DTD SVG 1.1//EN"
  "http://www.w3.org/Graphics/SVG/1.1/DTD/svg11.dtd">
<!-- Created with matplotlib (https://matplotlib.org/) -->
<svg height="212.442211pt" version="1.1" viewBox="0 0 445.62794 212.442211" width="445.62794pt" xmlns="http://www.w3.org/2000/svg" xmlns:xlink="http://www.w3.org/1999/xlink">
 <defs>
  <style type="text/css">
*{stroke-linecap:butt;stroke-linejoin:round;}
  </style>
 </defs>
 <g id="figure_1">
  <g id="patch_1">
   <path d="M 0 212.442211 
L 445.62794 212.442211 
L 445.62794 0 
L 0 0 
z
" style="fill:#ffffff;"/>
  </g>
  <g id="axes_1">
   <g id="patch_2">
    <path d="M 43.78125 174.885961 
L 434.38125 174.885961 
L 434.38125 8.565961 
L 43.78125 8.565961 
z
" style="fill:#ffffff;"/>
   </g>
   <g id="matplotlib.axis_1">
    <g id="xtick_1">
     <g id="line2d_1">
      <defs>
       <path d="M 0 0 
L 0 3.5 
" id="m7f65b101f5" style="stroke:#000000;stroke-width:0.8;"/>
      </defs>
      <g>
       <use style="stroke:#000000;stroke-width:0.8;" x="46.09706" xlink:href="#m7f65b101f5" y="174.885961"/>
      </g>
     </g>
     <g id="text_1">
      <!-- 0 -->
      <defs>
       <path d="M 31.78125 66.40625 
Q 24.171875 66.40625 20.328125 58.90625 
Q 16.5 51.421875 16.5 36.375 
Q 16.5 21.390625 20.328125 13.890625 
Q 24.171875 6.390625 31.78125 6.390625 
Q 39.453125 6.390625 43.28125 13.890625 
Q 47.125 21.390625 47.125 36.375 
Q 47.125 51.421875 43.28125 58.90625 
Q 39.453125 66.40625 31.78125 66.40625 
z
M 31.78125 74.21875 
Q 44.046875 74.21875 50.515625 64.515625 
Q 56.984375 54.828125 56.984375 36.375 
Q 56.984375 17.96875 50.515625 8.265625 
Q 44.046875 -1.421875 31.78125 -1.421875 
Q 19.53125 -1.421875 13.0625 8.265625 
Q 6.59375 17.96875 6.59375 36.375 
Q 6.59375 54.828125 13.0625 64.515625 
Q 19.53125 74.21875 31.78125 74.21875 
z
" id="DejaVuSans-48"/>
      </defs>
      <g transform="translate(42.91581 189.484399)scale(0.1 -0.1)">
       <use xlink:href="#DejaVuSans-48"/>
      </g>
     </g>
    </g>
    <g id="xtick_2">
     <g id="line2d_2">
      <g>
       <use style="stroke:#000000;stroke-width:0.8;" x="123.290736" xlink:href="#m7f65b101f5" y="174.885961"/>
      </g>
     </g>
     <g id="text_2">
      <!-- 5 -->
      <defs>
       <path d="M 10.796875 72.90625 
L 49.515625 72.90625 
L 49.515625 64.59375 
L 19.828125 64.59375 
L 19.828125 46.734375 
Q 21.96875 47.46875 24.109375 47.828125 
Q 26.265625 48.1875 28.421875 48.1875 
Q 40.625 48.1875 47.75 41.5 
Q 54.890625 34.8125 54.890625 23.390625 
Q 54.890625 11.625 47.5625 5.09375 
Q 40.234375 -1.421875 26.90625 -1.421875 
Q 22.3125 -1.421875 17.546875 -0.640625 
Q 12.796875 0.140625 7.71875 1.703125 
L 7.71875 11.625 
Q 12.109375 9.234375 16.796875 8.0625 
Q 21.484375 6.890625 26.703125 6.890625 
Q 35.15625 6.890625 40.078125 11.328125 
Q 45.015625 15.765625 45.015625 23.390625 
Q 45.015625 31 40.078125 35.4375 
Q 35.15625 39.890625 26.703125 39.890625 
Q 22.75 39.890625 18.8125 39.015625 
Q 14.890625 38.140625 10.796875 36.28125 
z
" id="DejaVuSans-53"/>
      </defs>
      <g transform="translate(120.109486 189.484399)scale(0.1 -0.1)">
       <use xlink:href="#DejaVuSans-53"/>
      </g>
     </g>
    </g>
    <g id="xtick_3">
     <g id="line2d_3">
      <g>
       <use style="stroke:#000000;stroke-width:0.8;" x="200.484412" xlink:href="#m7f65b101f5" y="174.885961"/>
      </g>
     </g>
     <g id="text_3">
      <!-- 10 -->
      <defs>
       <path d="M 12.40625 8.296875 
L 28.515625 8.296875 
L 28.515625 63.921875 
L 10.984375 60.40625 
L 10.984375 69.390625 
L 28.421875 72.90625 
L 38.28125 72.90625 
L 38.28125 8.296875 
L 54.390625 8.296875 
L 54.390625 0 
L 12.40625 0 
z
" id="DejaVuSans-49"/>
      </defs>
      <g transform="translate(194.121912 189.484399)scale(0.1 -0.1)">
       <use xlink:href="#DejaVuSans-49"/>
       <use x="63.623047" xlink:href="#DejaVuSans-48"/>
      </g>
     </g>
    </g>
    <g id="xtick_4">
     <g id="line2d_4">
      <g>
       <use style="stroke:#000000;stroke-width:0.8;" x="277.678088" xlink:href="#m7f65b101f5" y="174.885961"/>
      </g>
     </g>
     <g id="text_4">
      <!-- 15 -->
      <g transform="translate(271.315588 189.484399)scale(0.1 -0.1)">
       <use xlink:href="#DejaVuSans-49"/>
       <use x="63.623047" xlink:href="#DejaVuSans-53"/>
      </g>
     </g>
    </g>
    <g id="xtick_5">
     <g id="line2d_5">
      <g>
       <use style="stroke:#000000;stroke-width:0.8;" x="354.871764" xlink:href="#m7f65b101f5" y="174.885961"/>
      </g>
     </g>
     <g id="text_5">
      <!-- 20 -->
      <defs>
       <path d="M 19.1875 8.296875 
L 53.609375 8.296875 
L 53.609375 0 
L 7.328125 0 
L 7.328125 8.296875 
Q 12.9375 14.109375 22.625 23.890625 
Q 32.328125 33.6875 34.8125 36.53125 
Q 39.546875 41.84375 41.421875 45.53125 
Q 43.3125 49.21875 43.3125 52.78125 
Q 43.3125 58.59375 39.234375 62.25 
Q 35.15625 65.921875 28.609375 65.921875 
Q 23.96875 65.921875 18.8125 64.3125 
Q 13.671875 62.703125 7.8125 59.421875 
L 7.8125 69.390625 
Q 13.765625 71.78125 18.9375 73 
Q 24.125 74.21875 28.421875 74.21875 
Q 39.75 74.21875 46.484375 68.546875 
Q 53.21875 62.890625 53.21875 53.421875 
Q 53.21875 48.921875 51.53125 44.890625 
Q 49.859375 40.875 45.40625 35.40625 
Q 44.1875 33.984375 37.640625 27.21875 
Q 31.109375 20.453125 19.1875 8.296875 
z
" id="DejaVuSans-50"/>
      </defs>
      <g transform="translate(348.509264 189.484399)scale(0.1 -0.1)">
       <use xlink:href="#DejaVuSans-50"/>
       <use x="63.623047" xlink:href="#DejaVuSans-48"/>
      </g>
     </g>
    </g>
    <g id="xtick_6">
     <g id="line2d_6">
      <g>
       <use style="stroke:#000000;stroke-width:0.8;" x="432.06544" xlink:href="#m7f65b101f5" y="174.885961"/>
      </g>
     </g>
     <g id="text_6">
      <!-- 25 -->
      <g transform="translate(425.70294 189.484399)scale(0.1 -0.1)">
       <use xlink:href="#DejaVuSans-50"/>
       <use x="63.623047" xlink:href="#DejaVuSans-53"/>
      </g>
     </g>
    </g>
    <g id="text_7">
     <!-- hour -->
     <defs>
      <path d="M 54.890625 33.015625 
L 54.890625 0 
L 45.90625 0 
L 45.90625 32.71875 
Q 45.90625 40.484375 42.875 44.328125 
Q 39.84375 48.1875 33.796875 48.1875 
Q 26.515625 48.1875 22.3125 43.546875 
Q 18.109375 38.921875 18.109375 30.90625 
L 18.109375 0 
L 9.078125 0 
L 9.078125 75.984375 
L 18.109375 75.984375 
L 18.109375 46.1875 
Q 21.34375 51.125 25.703125 53.5625 
Q 30.078125 56 35.796875 56 
Q 45.21875 56 50.046875 50.171875 
Q 54.890625 44.34375 54.890625 33.015625 
z
" id="DejaVuSans-104"/>
      <path d="M 30.609375 48.390625 
Q 23.390625 48.390625 19.1875 42.75 
Q 14.984375 37.109375 14.984375 27.296875 
Q 14.984375 17.484375 19.15625 11.84375 
Q 23.34375 6.203125 30.609375 6.203125 
Q 37.796875 6.203125 41.984375 11.859375 
Q 46.1875 17.53125 46.1875 27.296875 
Q 46.1875 37.015625 41.984375 42.703125 
Q 37.796875 48.390625 30.609375 48.390625 
z
M 30.609375 56 
Q 42.328125 56 49.015625 48.375 
Q 55.71875 40.765625 55.71875 27.296875 
Q 55.71875 13.875 49.015625 6.21875 
Q 42.328125 -1.421875 30.609375 -1.421875 
Q 18.84375 -1.421875 12.171875 6.21875 
Q 5.515625 13.875 5.515625 27.296875 
Q 5.515625 40.765625 12.171875 48.375 
Q 18.84375 56 30.609375 56 
z
" id="DejaVuSans-111"/>
      <path d="M 8.5 21.578125 
L 8.5 54.6875 
L 17.484375 54.6875 
L 17.484375 21.921875 
Q 17.484375 14.15625 20.5 10.265625 
Q 23.53125 6.390625 29.59375 6.390625 
Q 36.859375 6.390625 41.078125 11.03125 
Q 45.3125 15.671875 45.3125 23.6875 
L 45.3125 54.6875 
L 54.296875 54.6875 
L 54.296875 0 
L 45.3125 0 
L 45.3125 8.40625 
Q 42.046875 3.421875 37.71875 1 
Q 33.40625 -1.421875 27.6875 -1.421875 
Q 18.265625 -1.421875 13.375 4.4375 
Q 8.5 10.296875 8.5 21.578125 
z
M 31.109375 56 
z
" id="DejaVuSans-117"/>
      <path d="M 41.109375 46.296875 
Q 39.59375 47.171875 37.8125 47.578125 
Q 36.03125 48 33.890625 48 
Q 26.265625 48 22.1875 43.046875 
Q 18.109375 38.09375 18.109375 28.8125 
L 18.109375 0 
L 9.078125 0 
L 9.078125 54.6875 
L 18.109375 54.6875 
L 18.109375 46.1875 
Q 20.953125 51.171875 25.484375 53.578125 
Q 30.03125 56 36.53125 56 
Q 37.453125 56 38.578125 55.875 
Q 39.703125 55.765625 41.0625 55.515625 
z
" id="DejaVuSans-114"/>
     </defs>
     <g transform="translate(227.628906 203.162524)scale(0.1 -0.1)">
      <use xlink:href="#DejaVuSans-104"/>
      <use x="63.378906" xlink:href="#DejaVuSans-111"/>
      <use x="124.560547" xlink:href="#DejaVuSans-117"/>
      <use x="187.939453" xlink:href="#DejaVuSans-114"/>
     </g>
    </g>
   </g>
   <g id="matplotlib.axis_2">
    <g id="ytick_1">
     <g id="line2d_7">
      <defs>
       <path d="M 0 0 
L -3.5 0 
" id="m2b69553af0" style="stroke:#000000;stroke-width:0.8;"/>
      </defs>
      <g>
       <use style="stroke:#000000;stroke-width:0.8;" x="43.78125" xlink:href="#m2b69553af0" y="167.326783"/>
      </g>
     </g>
     <g id="text_8">
      <!-- 0.0 -->
      <defs>
       <path d="M 10.6875 12.40625 
L 21 12.40625 
L 21 0 
L 10.6875 0 
z
" id="DejaVuSans-46"/>
      </defs>
      <g transform="translate(20.878125 171.126002)scale(0.1 -0.1)">
       <use xlink:href="#DejaVuSans-48"/>
       <use x="63.623047" xlink:href="#DejaVuSans-46"/>
       <use x="95.410156" xlink:href="#DejaVuSans-48"/>
      </g>
     </g>
    </g>
    <g id="ytick_2">
     <g id="line2d_8">
      <g>
       <use style="stroke:#000000;stroke-width:0.8;" x="43.78125" xlink:href="#m2b69553af0" y="141.272189"/>
      </g>
     </g>
     <g id="text_9">
      <!-- 0.5 -->
      <g transform="translate(20.878125 145.071408)scale(0.1 -0.1)">
       <use xlink:href="#DejaVuSans-48"/>
       <use x="63.623047" xlink:href="#DejaVuSans-46"/>
       <use x="95.410156" xlink:href="#DejaVuSans-53"/>
      </g>
     </g>
    </g>
    <g id="ytick_3">
     <g id="line2d_9">
      <g>
       <use style="stroke:#000000;stroke-width:0.8;" x="43.78125" xlink:href="#m2b69553af0" y="115.217595"/>
      </g>
     </g>
     <g id="text_10">
      <!-- 1.0 -->
      <g transform="translate(20.878125 119.016814)scale(0.1 -0.1)">
       <use xlink:href="#DejaVuSans-49"/>
       <use x="63.623047" xlink:href="#DejaVuSans-46"/>
       <use x="95.410156" xlink:href="#DejaVuSans-48"/>
      </g>
     </g>
    </g>
    <g id="ytick_4">
     <g id="line2d_10">
      <g>
       <use style="stroke:#000000;stroke-width:0.8;" x="43.78125" xlink:href="#m2b69553af0" y="89.163001"/>
      </g>
     </g>
     <g id="text_11">
      <!-- 1.5 -->
      <g transform="translate(20.878125 92.96222)scale(0.1 -0.1)">
       <use xlink:href="#DejaVuSans-49"/>
       <use x="63.623047" xlink:href="#DejaVuSans-46"/>
       <use x="95.410156" xlink:href="#DejaVuSans-53"/>
      </g>
     </g>
    </g>
    <g id="ytick_5">
     <g id="line2d_11">
      <g>
       <use style="stroke:#000000;stroke-width:0.8;" x="43.78125" xlink:href="#m2b69553af0" y="63.108407"/>
      </g>
     </g>
     <g id="text_12">
      <!-- 2.0 -->
      <g transform="translate(20.878125 66.907626)scale(0.1 -0.1)">
       <use xlink:href="#DejaVuSans-50"/>
       <use x="63.623047" xlink:href="#DejaVuSans-46"/>
       <use x="95.410156" xlink:href="#DejaVuSans-48"/>
      </g>
     </g>
    </g>
    <g id="ytick_6">
     <g id="line2d_12">
      <g>
       <use style="stroke:#000000;stroke-width:0.8;" x="43.78125" xlink:href="#m2b69553af0" y="37.053813"/>
      </g>
     </g>
     <g id="text_13">
      <!-- 2.5 -->
      <g transform="translate(20.878125 40.853032)scale(0.1 -0.1)">
       <use xlink:href="#DejaVuSans-50"/>
       <use x="63.623047" xlink:href="#DejaVuSans-46"/>
       <use x="95.410156" xlink:href="#DejaVuSans-53"/>
      </g>
     </g>
    </g>
    <g id="ytick_7">
     <g id="line2d_13">
      <g>
       <use style="stroke:#000000;stroke-width:0.8;" x="43.78125" xlink:href="#m2b69553af0" y="10.999219"/>
      </g>
     </g>
     <g id="text_14">
      <!-- 3.0 -->
      <defs>
       <path d="M 40.578125 39.3125 
Q 47.65625 37.796875 51.625 33 
Q 55.609375 28.21875 55.609375 21.1875 
Q 55.609375 10.40625 48.1875 4.484375 
Q 40.765625 -1.421875 27.09375 -1.421875 
Q 22.515625 -1.421875 17.65625 -0.515625 
Q 12.796875 0.390625 7.625 2.203125 
L 7.625 11.71875 
Q 11.71875 9.328125 16.59375 8.109375 
Q 21.484375 6.890625 26.8125 6.890625 
Q 36.078125 6.890625 40.9375 10.546875 
Q 45.796875 14.203125 45.796875 21.1875 
Q 45.796875 27.640625 41.28125 31.265625 
Q 36.765625 34.90625 28.71875 34.90625 
L 20.21875 34.90625 
L 20.21875 43.015625 
L 29.109375 43.015625 
Q 36.375 43.015625 40.234375 45.921875 
Q 44.09375 48.828125 44.09375 54.296875 
Q 44.09375 59.90625 40.109375 62.90625 
Q 36.140625 65.921875 28.71875 65.921875 
Q 24.65625 65.921875 20.015625 65.03125 
Q 15.375 64.15625 9.8125 62.3125 
L 9.8125 71.09375 
Q 15.4375 72.65625 20.34375 73.4375 
Q 25.25 74.21875 29.59375 74.21875 
Q 40.828125 74.21875 47.359375 69.109375 
Q 53.90625 64.015625 53.90625 55.328125 
Q 53.90625 49.265625 50.4375 45.09375 
Q 46.96875 40.921875 40.578125 39.3125 
z
" id="DejaVuSans-51"/>
      </defs>
      <g transform="translate(20.878125 14.798438)scale(0.1 -0.1)">
       <use xlink:href="#DejaVuSans-51"/>
       <use x="63.623047" xlink:href="#DejaVuSans-46"/>
       <use x="95.410156" xlink:href="#DejaVuSans-48"/>
      </g>
     </g>
    </g>
    <g id="text_15">
     <!-- precipitation [mm/hour] -->
     <defs>
      <path d="M 18.109375 8.203125 
L 18.109375 -20.796875 
L 9.078125 -20.796875 
L 9.078125 54.6875 
L 18.109375 54.6875 
L 18.109375 46.390625 
Q 20.953125 51.265625 25.265625 53.625 
Q 29.59375 56 35.59375 56 
Q 45.5625 56 51.78125 48.09375 
Q 58.015625 40.1875 58.015625 27.296875 
Q 58.015625 14.40625 51.78125 6.484375 
Q 45.5625 -1.421875 35.59375 -1.421875 
Q 29.59375 -1.421875 25.265625 0.953125 
Q 20.953125 3.328125 18.109375 8.203125 
z
M 48.6875 27.296875 
Q 48.6875 37.203125 44.609375 42.84375 
Q 40.53125 48.484375 33.40625 48.484375 
Q 26.265625 48.484375 22.1875 42.84375 
Q 18.109375 37.203125 18.109375 27.296875 
Q 18.109375 17.390625 22.1875 11.75 
Q 26.265625 6.109375 33.40625 6.109375 
Q 40.53125 6.109375 44.609375 11.75 
Q 48.6875 17.390625 48.6875 27.296875 
z
" id="DejaVuSans-112"/>
      <path d="M 56.203125 29.59375 
L 56.203125 25.203125 
L 14.890625 25.203125 
Q 15.484375 15.921875 20.484375 11.0625 
Q 25.484375 6.203125 34.421875 6.203125 
Q 39.59375 6.203125 44.453125 7.46875 
Q 49.3125 8.734375 54.109375 11.28125 
L 54.109375 2.78125 
Q 49.265625 0.734375 44.1875 -0.34375 
Q 39.109375 -1.421875 33.890625 -1.421875 
Q 20.796875 -1.421875 13.15625 6.1875 
Q 5.515625 13.8125 5.515625 26.8125 
Q 5.515625 40.234375 12.765625 48.109375 
Q 20.015625 56 32.328125 56 
Q 43.359375 56 49.78125 48.890625 
Q 56.203125 41.796875 56.203125 29.59375 
z
M 47.21875 32.234375 
Q 47.125 39.59375 43.09375 43.984375 
Q 39.0625 48.390625 32.421875 48.390625 
Q 24.90625 48.390625 20.390625 44.140625 
Q 15.875 39.890625 15.1875 32.171875 
z
" id="DejaVuSans-101"/>
      <path d="M 48.78125 52.59375 
L 48.78125 44.1875 
Q 44.96875 46.296875 41.140625 47.34375 
Q 37.3125 48.390625 33.40625 48.390625 
Q 24.65625 48.390625 19.8125 42.84375 
Q 14.984375 37.3125 14.984375 27.296875 
Q 14.984375 17.28125 19.8125 11.734375 
Q 24.65625 6.203125 33.40625 6.203125 
Q 37.3125 6.203125 41.140625 7.25 
Q 44.96875 8.296875 48.78125 10.40625 
L 48.78125 2.09375 
Q 45.015625 0.34375 40.984375 -0.53125 
Q 36.96875 -1.421875 32.421875 -1.421875 
Q 20.0625 -1.421875 12.78125 6.34375 
Q 5.515625 14.109375 5.515625 27.296875 
Q 5.515625 40.671875 12.859375 48.328125 
Q 20.21875 56 33.015625 56 
Q 37.15625 56 41.109375 55.140625 
Q 45.0625 54.296875 48.78125 52.59375 
z
" id="DejaVuSans-99"/>
      <path d="M 9.421875 54.6875 
L 18.40625 54.6875 
L 18.40625 0 
L 9.421875 0 
z
M 9.421875 75.984375 
L 18.40625 75.984375 
L 18.40625 64.59375 
L 9.421875 64.59375 
z
" id="DejaVuSans-105"/>
      <path d="M 18.3125 70.21875 
L 18.3125 54.6875 
L 36.8125 54.6875 
L 36.8125 47.703125 
L 18.3125 47.703125 
L 18.3125 18.015625 
Q 18.3125 11.328125 20.140625 9.421875 
Q 21.96875 7.515625 27.59375 7.515625 
L 36.8125 7.515625 
L 36.8125 0 
L 27.59375 0 
Q 17.1875 0 13.234375 3.875 
Q 9.28125 7.765625 9.28125 18.015625 
L 9.28125 47.703125 
L 2.6875 47.703125 
L 2.6875 54.6875 
L 9.28125 54.6875 
L 9.28125 70.21875 
z
" id="DejaVuSans-116"/>
      <path d="M 34.28125 27.484375 
Q 23.390625 27.484375 19.1875 25 
Q 14.984375 22.515625 14.984375 16.5 
Q 14.984375 11.71875 18.140625 8.90625 
Q 21.296875 6.109375 26.703125 6.109375 
Q 34.1875 6.109375 38.703125 11.40625 
Q 43.21875 16.703125 43.21875 25.484375 
L 43.21875 27.484375 
z
M 52.203125 31.203125 
L 52.203125 0 
L 43.21875 0 
L 43.21875 8.296875 
Q 40.140625 3.328125 35.546875 0.953125 
Q 30.953125 -1.421875 24.3125 -1.421875 
Q 15.921875 -1.421875 10.953125 3.296875 
Q 6 8.015625 6 15.921875 
Q 6 25.140625 12.171875 29.828125 
Q 18.359375 34.515625 30.609375 34.515625 
L 43.21875 34.515625 
L 43.21875 35.40625 
Q 43.21875 41.609375 39.140625 45 
Q 35.0625 48.390625 27.6875 48.390625 
Q 23 48.390625 18.546875 47.265625 
Q 14.109375 46.140625 10.015625 43.890625 
L 10.015625 52.203125 
Q 14.9375 54.109375 19.578125 55.046875 
Q 24.21875 56 28.609375 56 
Q 40.484375 56 46.34375 49.84375 
Q 52.203125 43.703125 52.203125 31.203125 
z
" id="DejaVuSans-97"/>
      <path d="M 54.890625 33.015625 
L 54.890625 0 
L 45.90625 0 
L 45.90625 32.71875 
Q 45.90625 40.484375 42.875 44.328125 
Q 39.84375 48.1875 33.796875 48.1875 
Q 26.515625 48.1875 22.3125 43.546875 
Q 18.109375 38.921875 18.109375 30.90625 
L 18.109375 0 
L 9.078125 0 
L 9.078125 54.6875 
L 18.109375 54.6875 
L 18.109375 46.1875 
Q 21.34375 51.125 25.703125 53.5625 
Q 30.078125 56 35.796875 56 
Q 45.21875 56 50.046875 50.171875 
Q 54.890625 44.34375 54.890625 33.015625 
z
" id="DejaVuSans-110"/>
      <path id="DejaVuSans-32"/>
      <path d="M 8.59375 75.984375 
L 29.296875 75.984375 
L 29.296875 69 
L 17.578125 69 
L 17.578125 -6.203125 
L 29.296875 -6.203125 
L 29.296875 -13.1875 
L 8.59375 -13.1875 
z
" id="DejaVuSans-91"/>
      <path d="M 52 44.1875 
Q 55.375 50.25 60.0625 53.125 
Q 64.75 56 71.09375 56 
Q 79.640625 56 84.28125 50.015625 
Q 88.921875 44.046875 88.921875 33.015625 
L 88.921875 0 
L 79.890625 0 
L 79.890625 32.71875 
Q 79.890625 40.578125 77.09375 44.375 
Q 74.3125 48.1875 68.609375 48.1875 
Q 61.625 48.1875 57.5625 43.546875 
Q 53.515625 38.921875 53.515625 30.90625 
L 53.515625 0 
L 44.484375 0 
L 44.484375 32.71875 
Q 44.484375 40.625 41.703125 44.40625 
Q 38.921875 48.1875 33.109375 48.1875 
Q 26.21875 48.1875 22.15625 43.53125 
Q 18.109375 38.875 18.109375 30.90625 
L 18.109375 0 
L 9.078125 0 
L 9.078125 54.6875 
L 18.109375 54.6875 
L 18.109375 46.1875 
Q 21.1875 51.21875 25.484375 53.609375 
Q 29.78125 56 35.6875 56 
Q 41.65625 56 45.828125 52.96875 
Q 50 49.953125 52 44.1875 
z
" id="DejaVuSans-109"/>
      <path d="M 25.390625 72.90625 
L 33.6875 72.90625 
L 8.296875 -9.28125 
L 0 -9.28125 
z
" id="DejaVuSans-47"/>
      <path d="M 30.421875 75.984375 
L 30.421875 -13.1875 
L 9.71875 -13.1875 
L 9.71875 -6.203125 
L 21.390625 -6.203125 
L 21.390625 69 
L 9.71875 69 
L 9.71875 75.984375 
z
" id="DejaVuSans-93"/>
     </defs>
     <g transform="translate(14.798438 151.701743)rotate(-90)scale(0.1 -0.1)">
      <use xlink:href="#DejaVuSans-112"/>
      <use x="63.476562" xlink:href="#DejaVuSans-114"/>
      <use x="104.558594" xlink:href="#DejaVuSans-101"/>
      <use x="166.082031" xlink:href="#DejaVuSans-99"/>
      <use x="221.0625" xlink:href="#DejaVuSans-105"/>
      <use x="248.845703" xlink:href="#DejaVuSans-112"/>
      <use x="312.322266" xlink:href="#DejaVuSans-105"/>
      <use x="340.105469" xlink:href="#DejaVuSans-116"/>
      <use x="379.314453" xlink:href="#DejaVuSans-97"/>
      <use x="440.59375" xlink:href="#DejaVuSans-116"/>
      <use x="479.802734" xlink:href="#DejaVuSans-105"/>
      <use x="507.585938" xlink:href="#DejaVuSans-111"/>
      <use x="568.767578" xlink:href="#DejaVuSans-110"/>
      <use x="632.146484" xlink:href="#DejaVuSans-32"/>
      <use x="663.933594" xlink:href="#DejaVuSans-91"/>
      <use x="702.947266" xlink:href="#DejaVuSans-109"/>
      <use x="800.359375" xlink:href="#DejaVuSans-109"/>
      <use x="897.771484" xlink:href="#DejaVuSans-47"/>
      <use x="931.462891" xlink:href="#DejaVuSans-104"/>
      <use x="994.841797" xlink:href="#DejaVuSans-111"/>
      <use x="1056.023438" xlink:href="#DejaVuSans-117"/>
      <use x="1119.402344" xlink:href="#DejaVuSans-114"/>
      <use x="1160.515625" xlink:href="#DejaVuSans-93"/>
     </g>
    </g>
   </g>
   <g id="line2d_14">
    <path clip-path="url(#pbff8146db9)" d="M 61.535795 167.183287 
L 76.974531 166.901889 
L 92.413266 166.530059 
L 107.852001 165.146897 
L 123.290736 155.751005 
L 138.729471 159.17859 
L 154.168207 162.694098 
L 169.606942 160.55061 
L 185.045677 157.82268 
L 200.484412 151.868301 
L 215.923147 143.65967 
L 231.361882 152.805599 
L 246.800618 154.81595 
L 262.239353 91.67108 
L 277.678088 136.392689 
L 293.116823 152.410882 
L 308.555558 162.850756 
L 323.994293 164.992913 
L 339.433029 166.441548 
L 354.871764 166.896429 
L 370.310499 166.549626 
L 385.749234 166.319975 
L 401.187969 163.337593 
L 416.626705 155.75586 
" style="fill:none;stroke:#1b9e77;stroke-linecap:square;stroke-opacity:0.5;stroke-width:1.5;"/>
   </g>
   <g id="line2d_15">
    <path clip-path="url(#pbff8146db9)" d="M 61.535795 167.323318 
L 76.974531 167.30786 
L 92.413266 167.296017 
L 107.852001 167.310435 
L 123.290736 167.30098 
L 138.729471 165.420074 
L 154.168207 164.971862 
L 169.606942 161.307086 
L 185.045677 161.073692 
L 200.484412 157.580378 
L 215.923147 137.210011 
L 231.361882 108.676807 
L 246.800618 134.566723 
L 262.239353 150.971382 
L 277.678088 155.614854 
L 293.116823 136.780396 
L 308.555558 149.64254 
L 323.994293 165.046699 
L 339.433029 155.853994 
L 354.871764 160.818055 
L 370.310499 156.121719 
L 385.749234 165.80712 
L 401.187969 167.218823 
L 416.626705 167.307159 
" style="fill:none;stroke:#1b9e77;stroke-linecap:square;stroke-opacity:0.5;stroke-width:1.5;"/>
   </g>
   <g id="line2d_16">
    <path clip-path="url(#pbff8146db9)" d="M 61.535795 167.257531 
L 76.974531 167.080757 
L 92.413266 167.184621 
L 107.852001 167.214987 
L 123.290736 167.227129 
L 138.729471 167.283681 
L 154.168207 166.78622 
L 169.606942 153.229376 
L 185.045677 92.767157 
L 200.484412 163.91285 
L 215.923147 148.123628 
L 231.361882 162.770301 
L 246.800618 166.040209 
L 262.239353 151.20687 
L 277.678088 167.018465 
L 293.116823 165.03025 
L 308.555558 162.794169 
L 323.994293 140.560647 
L 339.433029 147.082709 
L 354.871764 166.619005 
L 370.310499 166.043808 
L 385.749234 144.69861 
L 401.187969 124.721372 
L 416.626705 165.873631 
" style="fill:none;stroke:#1b9e77;stroke-linecap:square;stroke-opacity:0.5;stroke-width:1.5;"/>
   </g>
   <g id="line2d_17">
    <path clip-path="url(#pbff8146db9)" d="M 61.535795 167.176811 
L 76.974531 167.052769 
L 92.413266 167.176925 
L 107.852001 167.204143 
L 123.290736 167.176022 
L 138.729471 166.384264 
L 154.168207 164.522183 
L 169.606942 166.505779 
L 185.045677 166.341358 
L 200.484412 165.93979 
L 215.923147 165.910568 
L 231.361882 165.1891 
L 246.800618 163.47138 
L 262.239353 158.748162 
L 277.678088 147.084005 
L 293.116823 155.0929 
L 308.555558 162.102455 
L 323.994293 136.840266 
L 339.433029 88.253486 
L 354.871764 141.351835 
L 370.310499 159.452779 
L 385.749234 141.314222 
L 401.187969 147.802847 
L 416.626705 160.433948 
" style="fill:none;stroke:#1b9e77;stroke-linecap:square;stroke-opacity:0.5;stroke-width:1.5;"/>
   </g>
   <g id="line2d_18">
    <path clip-path="url(#pbff8146db9)" d="M 61.535795 151.560767 
L 76.974531 131.0489 
L 92.413266 163.729187 
L 107.852001 165.684152 
L 123.290736 164.82637 
L 138.729471 134.686256 
L 154.168207 98.826039 
L 169.606942 157.287818 
L 185.045677 164.866905 
L 200.484412 166.569062 
L 215.923147 164.726771 
L 231.361882 149.40029 
L 246.800618 139.083681 
L 262.239353 166.890282 
L 277.678088 167.270644 
L 293.116823 167.291905 
L 308.555558 166.904239 
L 323.994293 166.306426 
L 339.433029 165.588503 
L 354.871764 164.701762 
L 370.310499 163.172059 
L 385.749234 159.343853 
L 401.187969 155.811894 
L 416.626705 162.950226 
" style="fill:none;stroke:#1b9e77;stroke-linecap:square;stroke-opacity:0.5;stroke-width:1.5;"/>
   </g>
   <g id="line2d_19">
    <path clip-path="url(#pbff8146db9)" d="M 61.535795 160.582622 
L 76.974531 152.910432 
L 92.413266 166.507497 
L 107.852001 167.231701 
L 123.290736 167.287855 
L 138.729471 165.86953 
L 154.168207 163.832639 
L 169.606942 161.293363 
L 185.045677 157.993817 
L 200.484412 150.879323 
L 215.923147 141.223988 
L 231.361882 156.645597 
L 246.800618 106.352755 
L 262.239353 81.595889 
L 277.678088 162.387432 
L 293.116823 165.2664 
L 308.555558 166.271476 
L 323.994293 166.611151 
L 339.433029 166.955294 
L 354.871764 166.931435 
L 370.310499 166.996363 
L 385.749234 167.10649 
L 401.187969 166.967317 
L 416.626705 162.827624 
" style="fill:none;stroke:#1b9e77;stroke-linecap:square;stroke-opacity:0.5;stroke-width:1.5;"/>
   </g>
   <g id="line2d_20">
    <path clip-path="url(#pbff8146db9)" d="M 61.535795 92.761244 
L 76.974531 166.924863 
L 92.413266 166.821684 
L 107.852001 166.245339 
L 123.290736 166.004969 
L 138.729471 165.808729 
L 154.168207 165.417695 
L 169.606942 164.974368 
L 185.045677 164.864819 
L 200.484412 163.905869 
L 215.923147 161.472595 
L 231.361882 162.800761 
L 246.800618 166.181845 
L 262.239353 85.61833 
L 277.678088 106.334765 
L 293.116823 164.259933 
L 308.555558 166.534651 
L 323.994293 165.939492 
L 339.433029 166.139432 
L 354.871764 166.625684 
L 370.310499 166.698275 
L 385.749234 166.563309 
L 401.187969 164.900396 
L 416.626705 164.728928 
" style="fill:none;stroke:#1b9e77;stroke-linecap:square;stroke-opacity:0.5;stroke-width:1.5;"/>
   </g>
   <g id="line2d_21">
    <path clip-path="url(#pbff8146db9)" d="M 61.535795 161.180554 
L 76.974531 144.256308 
L 92.413266 147.504864 
L 107.852001 156.661146 
L 123.290736 164.666261 
L 138.729471 165.528748 
L 154.168207 166.182765 
L 169.606942 166.445355 
L 185.045677 166.860535 
L 200.484412 166.885029 
L 215.923147 166.910603 
L 231.361882 166.880613 
L 246.800618 166.742392 
L 262.239353 166.620936 
L 277.678088 165.170188 
L 293.116823 161.899547 
L 308.555558 149.948796 
L 323.994293 141.565321 
L 339.433029 140.993952 
L 354.871764 140.259898 
L 370.310499 122.385214 
L 385.749234 142.706223 
L 401.187969 157.282626 
L 416.626705 162.990116 
" style="fill:none;stroke:#1b9e77;stroke-linecap:square;stroke-opacity:0.5;stroke-width:1.5;"/>
   </g>
   <g id="line2d_22">
    <path clip-path="url(#pbff8146db9)" d="M 61.535795 151.23979 
L 76.974531 158.628441 
L 92.413266 162.538376 
L 107.852001 156.477808 
L 123.290736 161.244043 
L 138.729471 166.025573 
L 154.168207 166.806337 
L 169.606942 166.742711 
L 185.045677 166.720453 
L 200.484412 166.593827 
L 215.923147 165.856842 
L 231.361882 166.290034 
L 246.800618 165.804601 
L 262.239353 161.487665 
L 277.678088 155.824082 
L 293.116823 142.316763 
L 308.555558 133.317914 
L 323.994293 163.677117 
L 339.433029 166.916881 
L 354.871764 166.951922 
L 370.310499 154.978427 
L 385.749234 123.74152 
L 401.187969 128.908689 
L 416.626705 139.438175 
" style="fill:none;stroke:#1b9e77;stroke-linecap:square;stroke-opacity:0.5;stroke-width:1.5;"/>
   </g>
   <g id="line2d_23">
    <path clip-path="url(#pbff8146db9)" d="M 61.535795 165.03807 
L 76.974531 156.132783 
L 92.413266 159.869836 
L 107.852001 167.301515 
L 123.290736 167.071674 
L 138.729471 162.363749 
L 154.168207 163.03961 
L 169.606942 160.791963 
L 185.045677 158.135928 
L 200.484412 155.551564 
L 215.923147 154.18774 
L 231.361882 157.417484 
L 246.800618 127.91458 
L 262.239353 62.427993 
L 277.678088 160.991768 
L 293.116823 158.370516 
L 308.555558 162.149112 
L 323.994293 164.867287 
L 339.433029 166.352959 
L 354.871764 166.652686 
L 370.310499 166.440244 
L 385.749234 165.412715 
L 401.187969 162.871773 
L 416.626705 167.174438 
" style="fill:none;stroke:#1b9e77;stroke-linecap:square;stroke-opacity:0.5;stroke-width:1.5;"/>
   </g>
   <g id="line2d_24">
    <path clip-path="url(#pbff8146db9)" d="M 61.535795 164.974524 
L 76.974531 155.103615 
L 92.413266 150.398792 
L 107.852001 151.404752 
L 123.290736 132.794021 
L 138.729471 146.13658 
L 154.168207 157.223955 
L 169.606942 158.999724 
L 185.045677 166.597634 
L 200.484412 167.23365 
L 215.923147 167.212286 
L 231.361882 163.013994 
L 246.800618 166.23578 
L 262.239353 165.292683 
L 277.678088 152.386317 
L 293.116823 163.438586 
L 308.555558 163.257978 
L 323.994293 143.843892 
L 339.433029 151.471025 
L 354.871764 137.426197 
L 370.310499 147.709975 
L 385.749234 162.966018 
L 401.187969 166.949392 
L 416.626705 156.456622 
" style="fill:none;stroke:#1b9e77;stroke-linecap:square;stroke-opacity:0.5;stroke-width:1.5;"/>
   </g>
   <g id="line2d_25">
    <path clip-path="url(#pbff8146db9)" d="M 61.535795 167.287407 
L 76.974531 167.273758 
L 92.413266 167.275232 
L 107.852001 167.203761 
L 123.290736 167.196859 
L 138.729471 167.275435 
L 154.168207 167.29492 
L 169.606942 166.449137 
L 185.045677 163.602283 
L 200.484412 159.815205 
L 215.923147 163.080637 
L 231.361882 167.223237 
L 246.800618 167.021643 
L 262.239353 159.147555 
L 277.678088 146.982998 
L 293.116823 133.673259 
L 308.555558 157.379833 
L 323.994293 158.078816 
L 339.433029 153.329518 
L 354.871764 146.810249 
L 370.310499 139.053752 
L 385.749234 147.120551 
L 401.187969 118.746084 
L 416.626705 140.205864 
" style="fill:none;stroke:#1b9e77;stroke-linecap:square;stroke-opacity:0.5;stroke-width:1.5;"/>
   </g>
   <g id="line2d_26">
    <path clip-path="url(#pbff8146db9)" d="M 61.535795 161.420435 
L 76.974531 147.700309 
L 92.413266 151.549189 
L 107.852001 152.991676 
L 123.290736 155.428747 
L 138.729471 155.626092 
L 154.168207 155.095811 
L 169.606942 155.912477 
L 185.045677 140.130349 
L 200.484412 133.067282 
L 215.923147 135.776845 
L 231.361882 131.958959 
L 246.800618 147.831759 
L 262.239353 162.458368 
L 277.678088 167.068248 
L 293.116823 167.04509 
L 308.555558 167.02438 
L 323.994293 167.079408 
L 339.433029 167.157238 
L 354.871764 167.201573 
L 370.310499 167.231405 
L 385.749234 167.255276 
L 401.187969 167.252282 
L 416.626705 167.264789 
" style="fill:none;stroke:#1b9e77;stroke-linecap:square;stroke-opacity:0.5;stroke-width:1.5;"/>
   </g>
   <g id="line2d_27">
    <path clip-path="url(#pbff8146db9)" d="M 61.535795 166.594397 
L 76.974531 166.28477 
L 92.413266 166.833187 
L 107.852001 167.011242 
L 123.290736 126.466677 
L 138.729471 166.605523 
L 154.168207 165.148053 
L 169.606942 166.459286 
L 185.045677 165.77414 
L 200.484412 165.442228 
L 215.923147 165.599265 
L 231.361882 164.853739 
L 246.800618 165.796182 
L 262.239353 164.95637 
L 277.678088 156.773484 
L 293.116823 152.315946 
L 308.555558 158.3909 
L 323.994293 144.854717 
L 339.433029 130.214027 
L 354.871764 146.213947 
L 370.310499 154.735888 
L 385.749234 142.712961 
L 401.187969 137.122143 
L 416.626705 151.36892 
" style="fill:none;stroke:#1b9e77;stroke-linecap:square;stroke-opacity:0.5;stroke-width:1.5;"/>
   </g>
   <g id="line2d_28">
    <path clip-path="url(#pbff8146db9)" d="M 61.535795 166.381623 
L 76.974531 166.243386 
L 92.413266 166.73332 
L 107.852001 166.60569 
L 123.290736 166.71355 
L 138.729471 166.879473 
L 154.168207 167.031673 
L 169.606942 167.13965 
L 185.045677 167.143323 
L 200.484412 167.183509 
L 215.923147 166.756089 
L 231.361882 165.192984 
L 246.800618 165.613682 
L 262.239353 164.002002 
L 277.678088 163.743514 
L 293.116823 161.828887 
L 308.555558 160.563658 
L 323.994293 159.298815 
L 339.433029 157.666762 
L 354.871764 158.174961 
L 370.310499 144.746206 
L 385.749234 69.516813 
L 401.187969 105.955026 
L 416.626705 147.413391 
" style="fill:none;stroke:#1b9e77;stroke-linecap:square;stroke-opacity:0.5;stroke-width:1.5;"/>
   </g>
   <g id="line2d_29">
    <path clip-path="url(#pbff8146db9)" d="M 61.535795 165.735837 
L 76.974531 166.174298 
L 92.413266 166.512804 
L 107.852001 165.131304 
L 123.290736 166.150976 
L 138.729471 166.975552 
L 154.168207 167.135605 
L 169.606942 167.140983 
L 185.045677 167.189769 
L 200.484412 167.1987 
L 215.923147 167.164174 
L 231.361882 167.191658 
L 246.800618 167.151889 
L 262.239353 167.143529 
L 277.678088 166.359439 
L 293.116823 155.004532 
L 308.555558 154.229043 
L 323.994293 121.379759 
L 339.433029 110.36348 
L 354.871764 143.462295 
L 370.310499 138.028484 
L 385.749234 139.36207 
L 401.187969 141.303559 
L 416.626705 155.038254 
" style="fill:none;stroke:#1b9e77;stroke-linecap:square;stroke-opacity:0.5;stroke-width:1.5;"/>
   </g>
   <g id="line2d_30">
    <path clip-path="url(#pbff8146db9)" d="M 61.535795 167.113107 
L 76.974531 167.112553 
L 92.413266 167.18916 
L 107.852001 166.282529 
L 123.290736 158.718749 
L 138.729471 165.52898 
L 154.168207 167.161686 
L 169.606942 167.298764 
L 185.045677 167.307236 
L 200.484412 165.029303 
L 215.923147 147.925596 
L 231.361882 141.68249 
L 246.800618 134.916565 
L 262.239353 130.653171 
L 277.678088 162.757883 
L 293.116823 160.267835 
L 308.555558 76.367271 
L 323.994293 165.411522 
L 339.433029 166.023881 
L 354.871764 153.469778 
L 370.310499 158.556726 
L 385.749234 167.1383 
L 401.187969 167.294106 
L 416.626705 167.3208 
" style="fill:none;stroke:#1b9e77;stroke-linecap:square;stroke-opacity:0.5;stroke-width:1.5;"/>
   </g>
   <g id="line2d_31">
    <path clip-path="url(#pbff8146db9)" d="M 61.535795 166.105287 
L 76.974531 163.513292 
L 92.413266 158.025576 
L 107.852001 121.842151 
L 123.290736 112.614834 
L 138.729471 90.814037 
L 154.168207 130.655245 
L 169.606942 148.482516 
L 185.045677 163.132618 
L 200.484412 165.13398 
L 215.923147 166.031477 
L 231.361882 165.753756 
L 246.800618 166.631197 
L 262.239353 167.061761 
L 277.678088 167.196517 
L 293.116823 167.153808 
L 308.555558 167.222787 
L 323.994293 167.28631 
L 339.433029 167.305219 
L 354.871764 167.306015 
L 370.310499 167.305459 
L 385.749234 167.311405 
L 401.187969 167.317153 
L 416.626705 167.325584 
" style="fill:none;stroke:#1b9e77;stroke-linecap:square;stroke-opacity:0.5;stroke-width:1.5;"/>
   </g>
   <g id="line2d_32">
    <path clip-path="url(#pbff8146db9)" d="M 61.535795 164.62649 
L 76.974531 165.889964 
L 92.413266 166.757061 
L 107.852001 166.699125 
L 123.290736 166.838664 
L 138.729471 166.948297 
L 154.168207 167.098125 
L 169.606942 167.17367 
L 185.045677 167.213246 
L 200.484412 167.179902 
L 215.923147 167.045184 
L 231.361882 166.309557 
L 246.800618 165.041412 
L 262.239353 164.96526 
L 277.678088 162.918597 
L 293.116823 155.586627 
L 308.555558 151.046901 
L 323.994293 145.079853 
L 339.433029 108.553544 
L 354.871764 117.601529 
L 370.310499 137.465649 
L 385.749234 143.375762 
L 401.187969 145.209449 
L 416.626705 161.904115 
" style="fill:none;stroke:#1b9e77;stroke-linecap:square;stroke-opacity:0.5;stroke-width:1.5;"/>
   </g>
   <g id="line2d_33">
    <path clip-path="url(#pbff8146db9)" d="M 61.535795 129.014764 
L 76.974531 74.157444 
L 92.413266 143.746721 
L 107.852001 142.308809 
L 123.290736 149.633079 
L 138.729471 145.233267 
L 154.168207 161.817835 
L 169.606942 165.280953 
L 185.045677 165.974511 
L 200.484412 165.53401 
L 215.923147 165.599453 
L 231.361882 165.775908 
L 246.800618 166.258147 
L 262.239353 166.823515 
L 277.678088 166.722211 
L 293.116823 163.259217 
L 308.555558 150.631595 
L 323.994293 167.142749 
L 339.433029 167.31088 
L 354.871764 167.303361 
L 370.310499 167.315498 
L 385.749234 167.318269 
L 401.187969 167.319693 
L 416.626705 167.046103 
" style="fill:none;stroke:#1b9e77;stroke-linecap:square;stroke-opacity:0.5;stroke-width:1.5;"/>
   </g>
   <g id="line2d_34">
    <path clip-path="url(#pbff8146db9)" d="M 61.535795 165.923859 
L 76.974531 166.065118 
L 92.413266 166.758672 
L 107.852001 166.634428 
L 123.290736 166.706705 
L 138.729471 166.920733 
L 154.168207 166.983123 
L 169.606942 166.864785 
L 185.045677 166.651762 
L 200.484412 166.775704 
L 215.923147 166.678871 
L 231.361882 167.158142 
L 246.800618 164.831442 
L 262.239353 158.055711 
L 277.678088 157.311391 
L 293.116823 144.348255 
L 308.555558 127.181151 
L 323.994293 75.816605 
L 339.433029 117.21628 
L 354.871764 149.721689 
L 370.310499 163.280558 
L 385.749234 166.312122 
L 401.187969 167.04013 
L 416.626705 167.290755 
" style="fill:none;stroke:#1b9e77;stroke-linecap:square;stroke-opacity:0.5;stroke-width:1.5;"/>
   </g>
   <g id="line2d_35">
    <path clip-path="url(#pbff8146db9)" d="M 61.535795 164.687857 
L 76.974531 165.68646 
L 92.413266 166.654143 
L 107.852001 166.603702 
L 123.290736 166.599077 
L 138.729471 166.346812 
L 154.168207 166.394836 
L 169.606942 166.869761 
L 185.045677 166.903318 
L 200.484412 167.144382 
L 215.923147 166.055418 
L 231.361882 159.512089 
L 246.800618 156.766425 
L 262.239353 167.264429 
L 277.678088 166.328624 
L 293.116823 155.783442 
L 308.555558 153.59863 
L 323.994293 160.173963 
L 339.433029 152.885015 
L 354.871764 148.443774 
L 370.310499 154.662687 
L 385.749234 149.309315 
L 401.187969 97.397463 
L 416.626705 106.456369 
" style="fill:none;stroke:#1b9e77;stroke-linecap:square;stroke-opacity:0.5;stroke-width:1.5;"/>
   </g>
   <g id="line2d_36">
    <path clip-path="url(#pbff8146db9)" d="M 61.535795 165.56777 
L 76.974531 166.078843 
L 92.413266 166.762201 
L 107.852001 164.965144 
L 123.290736 162.228128 
L 138.729471 167.058269 
L 154.168207 167.164571 
L 169.606942 167.187391 
L 185.045677 167.206516 
L 200.484412 167.215139 
L 215.923147 166.995503 
L 231.361882 167.09045 
L 246.800618 161.365275 
L 262.239353 158.801363 
L 277.678088 162.432872 
L 293.116823 160.798373 
L 308.555558 156.988173 
L 323.994293 154.507458 
L 339.433029 151.566598 
L 354.871764 158.750549 
L 370.310499 163.157093 
L 385.749234 16.125961 
L 401.187969 153.421544 
L 416.626705 165.092798 
" style="fill:none;stroke:#1b9e77;stroke-linecap:square;stroke-opacity:0.5;stroke-width:1.5;"/>
   </g>
   <g id="line2d_37">
    <path clip-path="url(#pbff8146db9)" d="M 61.535795 133.289113 
L 76.974531 165.846581 
L 92.413266 166.014173 
L 107.852001 165.268768 
L 123.290736 154.61501 
L 138.729471 120.016765 
L 154.168207 111.331555 
L 169.606942 149.993469 
L 185.045677 150.954574 
L 200.484412 120.272894 
L 215.923147 161.178622 
L 231.361882 163.237749 
L 246.800618 164.177699 
L 262.239353 161.834155 
L 277.678088 166.409162 
L 293.116823 166.855352 
L 308.555558 166.993719 
L 323.994293 166.998265 
L 339.433029 167.095977 
L 354.871764 167.124536 
L 370.310499 167.198893 
L 385.749234 167.239572 
L 401.187969 167.264666 
L 416.626705 167.316726 
" style="fill:none;stroke:#1b9e77;stroke-linecap:square;stroke-opacity:0.5;stroke-width:1.5;"/>
   </g>
   <g id="line2d_38">
    <path clip-path="url(#pbff8146db9)" d="M 61.535795 166.934562 
L 76.974531 165.658146 
L 92.413266 165.075553 
L 107.852001 163.514298 
L 123.290736 147.304275 
L 138.729471 137.982786 
L 154.168207 154.059589 
L 169.606942 160.478422 
L 185.045677 159.630448 
L 200.484412 150.616584 
L 215.923147 142.944811 
L 231.361882 150.019295 
L 246.800618 152.042642 
L 262.239353 151.725053 
L 277.678088 144.441135 
L 293.116823 154.002292 
L 308.555558 156.824985 
L 323.994293 154.666236 
L 339.433029 158.648865 
L 354.871764 160.177283 
L 370.310499 164.637301 
L 385.749234 166.526123 
L 401.187969 165.673834 
L 416.626705 164.943469 
" style="fill:none;stroke:#1b9e77;stroke-linecap:square;stroke-opacity:0.5;stroke-width:1.5;"/>
   </g>
   <g id="line2d_39">
    <path clip-path="url(#pbff8146db9)" d="M 61.535795 165.337539 
L 76.974531 161.515858 
L 92.413266 160.381357 
L 107.852001 156.594953 
L 123.290736 138.76196 
L 138.729471 156.523504 
L 154.168207 150.356138 
L 169.606942 144.395563 
L 185.045677 145.577242 
L 200.484412 131.192544 
L 215.923147 152.060963 
L 231.361882 162.409494 
L 246.800618 157.183076 
L 262.239353 135.69909 
L 277.678088 146.141439 
L 293.116823 161.277094 
L 308.555558 165.434369 
L 323.994293 166.722229 
L 339.433029 166.87816 
L 354.871764 165.546211 
L 370.310499 166.672627 
L 385.749234 167.243294 
L 401.187969 167.303012 
L 416.626705 167.320273 
" style="fill:none;stroke:#1b9e77;stroke-linecap:square;stroke-opacity:0.5;stroke-width:1.5;"/>
   </g>
   <g id="line2d_40">
    <path clip-path="url(#pbff8146db9)" d="M 61.535795 166.877459 
L 76.974531 166.833929 
L 92.413266 166.513814 
L 107.852001 165.750338 
L 123.290736 165.415263 
L 138.729471 164.192757 
L 154.168207 160.045788 
L 169.606942 155.7852 
L 185.045677 154.50559 
L 200.484412 155.686838 
L 215.923147 141.236902 
L 231.361882 35.546247 
L 246.800618 151.691246 
L 262.239353 159.975254 
L 277.678088 160.373267 
L 293.116823 156.374756 
L 308.555558 163.257915 
L 323.994293 166.497148 
L 339.433029 167.003812 
L 354.871764 166.678908 
L 370.310499 166.66001 
L 385.749234 167.081398 
L 401.187969 167.231575 
L 416.626705 167.312576 
" style="fill:none;stroke:#1b9e77;stroke-linecap:square;stroke-opacity:0.5;stroke-width:1.5;"/>
   </g>
   <g id="line2d_41">
    <path clip-path="url(#pbff8146db9)" d="M 61.535795 166.171743 
L 76.974531 166.873359 
L 92.413266 166.374676 
L 107.852001 165.400185 
L 123.290736 162.72395 
L 138.729471 162.870154 
L 154.168207 159.585079 
L 169.606942 163.540331 
L 185.045677 163.098853 
L 200.484412 162.895487 
L 215.923147 163.324479 
L 231.361882 162.331474 
L 246.800618 145.139457 
L 262.239353 154.372088 
L 277.678088 159.957473 
L 293.116823 159.453871 
L 308.555558 158.400534 
L 323.994293 155.972736 
L 339.433029 149.848794 
L 354.871764 145.85007 
L 370.310499 148.63998 
L 385.749234 142.090458 
L 401.187969 138.604523 
L 416.626705 135.008234 
" style="fill:none;stroke:#1b9e77;stroke-linecap:square;stroke-opacity:0.5;stroke-width:1.5;"/>
   </g>
   <g id="line2d_42">
    <path clip-path="url(#pbff8146db9)" d="M 61.535795 166.79749 
L 76.974531 166.665101 
L 92.413266 166.69793 
L 107.852001 166.241316 
L 123.290736 164.468044 
L 138.729471 161.788734 
L 154.168207 155.329817 
L 169.606942 151.425063 
L 185.045677 148.91125 
L 200.484412 145.730972 
L 215.923147 159.82604 
L 231.361882 160.004427 
L 246.800618 154.084225 
L 262.239353 153.301237 
L 277.678088 152.374602 
L 293.116823 155.870478 
L 308.555558 136.389906 
L 323.994293 152.838109 
L 339.433029 154.876734 
L 354.871764 158.876267 
L 370.310499 135.239686 
L 385.749234 156.362215 
L 401.187969 167.119679 
L 416.626705 167.308666 
" style="fill:none;stroke:#1b9e77;stroke-linecap:square;stroke-opacity:0.5;stroke-width:1.5;"/>
   </g>
   <g id="line2d_43">
    <path clip-path="url(#pbff8146db9)" d="M 61.535795 167.028279 
L 76.974531 166.805433 
L 92.413266 166.596009 
L 107.852001 165.184329 
L 123.290736 162.935712 
L 138.729471 158.697831 
L 154.168207 147.81726 
L 169.606942 145.613181 
L 185.045677 140.917903 
L 200.484412 158.703592 
L 215.923147 165.959141 
L 231.361882 165.457786 
L 246.800618 163.398462 
L 262.239353 163.491455 
L 277.678088 155.537003 
L 293.116823 156.060075 
L 308.555558 77.715104 
L 323.994293 165.420006 
L 339.433029 160.670416 
L 354.871764 144.799408 
L 370.310499 165.390934 
L 385.749234 161.823724 
L 401.187969 166.491798 
L 416.626705 166.013149 
" style="fill:none;stroke:#1b9e77;stroke-linecap:square;stroke-opacity:0.5;stroke-width:1.5;"/>
   </g>
   <g id="line2d_44">
    <path clip-path="url(#pbff8146db9)" d="M 61.535795 160.85185 
L 76.974531 141.477783 
L 92.413266 158.208086 
L 107.852001 156.869259 
L 123.290736 164.320896 
L 138.729471 164.320834 
L 154.168207 162.451371 
L 169.606942 163.935685 
L 185.045677 165.940698 
L 200.484412 165.734403 
L 215.923147 141.160313 
L 231.361882 163.079915 
L 246.800618 165.971934 
L 262.239353 163.567967 
L 277.678088 164.143183 
L 293.116823 164.755126 
L 308.555558 134.372288 
L 323.994293 99.759787 
L 339.433029 150.152048 
L 354.871764 156.484756 
L 370.310499 162.042699 
L 385.749234 161.656535 
L 401.187969 163.586533 
L 416.626705 163.684037 
" style="fill:none;stroke:#1b9e77;stroke-linecap:square;stroke-opacity:0.5;stroke-width:1.5;"/>
   </g>
   <g id="line2d_45">
    <path clip-path="url(#pbff8146db9)" d="M 61.535795 162.933197 
L 76.974531 153.868327 
L 92.413266 162.561539 
L 107.852001 164.255357 
L 123.290736 165.712921 
L 138.729471 166.171283 
L 154.168207 166.56065 
L 169.606942 166.59932 
L 185.045677 166.790146 
L 200.484412 166.850292 
L 215.923147 166.990665 
L 231.361882 167.049172 
L 246.800618 167.060172 
L 262.239353 167.108189 
L 277.678088 167.01535 
L 293.116823 167.259775 
L 308.555558 166.289573 
L 323.994293 164.705444 
L 339.433029 166.030831 
L 354.871764 165.363058 
L 370.310499 164.341482 
L 385.749234 149.0456 
L 401.187969 97.499568 
L 416.626705 40.466071 
" style="fill:none;stroke:#1b9e77;stroke-linecap:square;stroke-opacity:0.5;stroke-width:1.5;"/>
   </g>
   <g id="line2d_46">
    <path clip-path="url(#pbff8146db9)" d="M 61.535795 161.553017 
L 76.974531 155.442322 
L 92.413266 162.116525 
L 107.852001 162.229967 
L 123.290736 162.803204 
L 138.729471 164.162785 
L 154.168207 164.646619 
L 169.606942 163.404214 
L 185.045677 156.081619 
L 200.484412 157.085279 
L 215.923147 157.828651 
L 231.361882 160.439649 
L 246.800618 158.074369 
L 262.239353 163.202773 
L 277.678088 154.108003 
L 293.116823 102.124452 
L 308.555558 150.2844 
L 323.994293 158.818562 
L 339.433029 156.111407 
L 354.871764 153.296746 
L 370.310499 156.658486 
L 385.749234 158.472033 
L 401.187969 159.89676 
L 416.626705 159.686148 
" style="fill:none;stroke:#1b9e77;stroke-linecap:square;stroke-opacity:0.5;stroke-width:1.5;"/>
   </g>
   <g id="line2d_47">
    <path clip-path="url(#pbff8146db9)" d="M 61.535795 166.345589 
L 76.974531 166.042005 
L 92.413266 165.042642 
L 107.852001 144.798426 
L 123.290736 153.77969 
L 138.729471 166.577732 
L 154.168207 167.123454 
L 169.606942 167.061602 
L 185.045677 166.870171 
L 200.484412 166.584399 
L 215.923147 167.103589 
L 231.361882 167.250274 
L 246.800618 166.103717 
L 262.239353 135.790675 
L 277.678088 56.697242 
L 293.116823 152.284892 
L 308.555558 162.16891 
L 323.994293 159.953252 
L 339.433029 159.035303 
L 354.871764 158.621579 
L 370.310499 158.538997 
L 385.749234 160.44618 
L 401.187969 160.850622 
L 416.626705 163.457047 
" style="fill:none;stroke:#1b9e77;stroke-linecap:square;stroke-opacity:0.5;stroke-width:1.5;"/>
   </g>
   <g id="line2d_48">
    <path clip-path="url(#pbff8146db9)" d="M 61.535795 162.894629 
L 76.974531 163.550042 
L 92.413266 166.100412 
L 107.852001 166.384541 
L 123.290736 166.667921 
L 138.729471 166.582191 
L 154.168207 166.452337 
L 169.606942 166.572421 
L 185.045677 166.680412 
L 200.484412 166.884491 
L 215.923147 166.844532 
L 231.361882 162.340259 
L 246.800618 162.345214 
L 262.239353 164.624444 
L 277.678088 164.049635 
L 293.116823 166.631437 
L 308.555558 165.064448 
L 323.994293 157.909543 
L 339.433029 148.409105 
L 354.871764 135.172424 
L 370.310499 105.652779 
L 385.749234 112.020691 
L 401.187969 129.793581 
L 416.626705 158.9005 
" style="fill:none;stroke:#1b9e77;stroke-linecap:square;stroke-opacity:0.5;stroke-width:1.5;"/>
   </g>
   <g id="line2d_49">
    <path clip-path="url(#pbff8146db9)" d="M 61.535795 151.259948 
L 76.974531 114.442915 
L 92.413266 160.738818 
L 107.852001 164.051111 
L 123.290736 165.152004 
L 138.729471 162.873635 
L 154.168207 160.773234 
L 169.606942 163.854959 
L 185.045677 165.66373 
L 200.484412 166.136303 
L 215.923147 166.491707 
L 231.361882 166.534618 
L 246.800618 166.693836 
L 262.239353 166.779849 
L 277.678088 166.72251 
L 293.116823 166.605755 
L 308.555558 165.854875 
L 323.994293 166.011647 
L 339.433029 163.426556 
L 354.871764 148.813483 
L 370.310499 105.175525 
L 385.749234 118.429867 
L 401.187969 149.220469 
L 416.626705 166.820628 
" style="fill:none;stroke:#1b9e77;stroke-linecap:square;stroke-opacity:0.5;stroke-width:1.5;"/>
   </g>
   <g id="line2d_50">
    <path clip-path="url(#pbff8146db9)" d="M 61.535795 166.840646 
L 76.974531 167.234585 
L 92.413266 167.289093 
L 107.852001 167.245158 
L 123.290736 167.267355 
L 138.729471 167.279944 
L 154.168207 167.296581 
L 169.606942 167.294579 
L 185.045677 167.286179 
L 200.484412 167.285345 
L 215.923147 167.266856 
L 231.361882 167.306401 
L 246.800618 167.31058 
L 262.239353 166.828714 
L 277.678088 165.556128 
L 293.116823 160.305997 
L 308.555558 162.112709 
L 323.994293 136.81695 
L 339.433029 113.295441 
L 354.871764 126.908483 
L 370.310499 134.471967 
L 385.749234 125.760902 
L 401.187969 130.556287 
L 416.626705 161.711116 
" style="fill:none;stroke:#1b9e77;stroke-linecap:square;stroke-opacity:0.5;stroke-width:1.5;"/>
   </g>
   <g id="line2d_51">
    <path clip-path="url(#pbff8146db9)" d="M 61.535795 162.236371 
L 76.974531 137.88835 
L 92.413266 161.885618 
L 107.852001 165.27299 
L 123.290736 166.486281 
L 138.729471 166.418267 
L 154.168207 165.41525 
L 169.606942 164.23223 
L 185.045677 166.30665 
L 200.484412 166.765419 
L 215.923147 166.56892 
L 231.361882 155.652014 
L 246.800618 132.176437 
L 262.239353 156.793764 
L 277.678088 133.041087 
L 293.116823 135.128885 
L 308.555558 143.804359 
L 323.994293 150.928518 
L 339.433029 156.64087 
L 354.871764 156.278627 
L 370.310499 162.98257 
L 385.749234 162.286975 
L 401.187969 158.143641 
L 416.626705 165.193897 
" style="fill:none;stroke:#1b9e77;stroke-linecap:square;stroke-opacity:0.5;stroke-width:1.5;"/>
   </g>
   <g id="line2d_52">
    <path clip-path="url(#pbff8146db9)" d="M 61.535795 165.346138 
L 76.974531 165.087623 
L 92.413266 166.022044 
L 107.852001 165.752942 
L 123.290736 165.638739 
L 138.729471 165.907274 
L 154.168207 166.468695 
L 169.606942 166.915743 
L 185.045677 167.160935 
L 200.484412 167.268786 
L 215.923147 167.299835 
L 231.361882 167.266291 
L 246.800618 167.18778 
L 262.239353 167.308462 
L 277.678088 167.313066 
L 293.116823 165.398499 
L 308.555558 162.491678 
L 323.994293 162.483823 
L 339.433029 151.41063 
L 354.871764 142.376396 
L 370.310499 142.291315 
L 385.749234 126.953969 
L 401.187969 96.201909 
L 416.626705 110.975414 
" style="fill:none;stroke:#1b9e77;stroke-linecap:square;stroke-opacity:0.5;stroke-width:1.5;"/>
   </g>
   <g id="line2d_53">
    <path clip-path="url(#pbff8146db9)" d="M 61.535795 165.170748 
L 76.974531 157.799532 
L 92.413266 147.808312 
L 107.852001 119.732773 
L 123.290736 152.942163 
L 138.729471 161.920666 
L 154.168207 164.498119 
L 169.606942 160.837199 
L 185.045677 162.695722 
L 200.484412 166.934356 
L 215.923147 166.885884 
L 231.361882 164.711483 
L 246.800618 164.089699 
L 262.239353 164.80021 
L 277.678088 160.755226 
L 293.116823 159.257617 
L 308.555558 162.058272 
L 323.994293 164.345822 
L 339.433029 164.79099 
L 354.871764 110.293888 
L 370.310499 139.580273 
L 385.749234 160.873874 
L 401.187969 162.614586 
L 416.626705 153.130579 
" style="fill:none;stroke:#1b9e77;stroke-linecap:square;stroke-opacity:0.5;stroke-width:1.5;"/>
   </g>
   <g id="line2d_54">
    <path clip-path="url(#pbff8146db9)" d="M 61.535795 143.287278 
L 76.974531 162.543873 
L 92.413266 165.526267 
L 107.852001 164.561562 
L 123.290736 165.110979 
L 138.729471 166.021467 
L 154.168207 166.375142 
L 169.606942 166.03177 
L 185.045677 164.774641 
L 200.484412 158.998038 
L 215.923147 156.696041 
L 231.361882 163.074694 
L 246.800618 161.602831 
L 262.239353 143.226713 
L 277.678088 86.330213 
L 293.116823 139.470278 
L 308.555558 161.364006 
L 323.994293 165.730199 
L 339.433029 166.505041 
L 354.871764 155.205353 
L 370.310499 134.594851 
L 385.749234 166.902975 
L 401.187969 167.273829 
L 416.626705 167.319944 
" style="fill:none;stroke:#1b9e77;stroke-linecap:square;stroke-opacity:0.5;stroke-width:1.5;"/>
   </g>
   <g id="line2d_55">
    <path clip-path="url(#pbff8146db9)" d="M 61.535795 166.492246 
L 76.974531 166.27848 
L 92.413266 166.298208 
L 107.852001 165.663244 
L 123.290736 156.869287 
L 138.729471 159.204369 
L 154.168207 157.734942 
L 169.606942 159.614108 
L 185.045677 162.118925 
L 200.484412 153.512917 
L 215.923147 101.276614 
L 231.361882 126.587967 
L 246.800618 157.561134 
L 262.239353 150.298529 
L 277.678088 135.09644 
L 293.116823 156.903204 
L 308.555558 166.103321 
L 323.994293 165.39314 
L 339.433029 166.005529 
L 354.871764 166.655677 
L 370.310499 166.603185 
L 385.749234 166.203353 
L 401.187969 158.813896 
L 416.626705 161.23927 
" style="fill:none;stroke:#1b9e77;stroke-linecap:square;stroke-opacity:0.5;stroke-width:1.5;"/>
   </g>
   <g id="line2d_56">
    <path clip-path="url(#pbff8146db9)" d="M 61.535795 166.546479 
L 76.974531 161.377944 
L 92.413266 162.923826 
L 107.852001 165.921727 
L 123.290736 166.171377 
L 138.729471 165.134428 
L 154.168207 159.238185 
L 169.606942 155.709741 
L 185.045677 153.650377 
L 200.484412 164.614012 
L 215.923147 163.230721 
L 231.361882 149.920931 
L 246.800618 126.299487 
L 262.239353 166.901443 
L 277.678088 158.2004 
L 293.116823 132.546607 
L 308.555558 155.737019 
L 323.994293 153.852002 
L 339.433029 152.577009 
L 354.871764 158.910211 
L 370.310499 160.264696 
L 385.749234 161.111948 
L 401.187969 134.867131 
L 416.626705 162.820291 
" style="fill:none;stroke:#1b9e77;stroke-linecap:square;stroke-opacity:0.5;stroke-width:1.5;"/>
   </g>
   <g id="line2d_57">
    <path clip-path="url(#pbff8146db9)" d="M 61.535795 160.275995 
L 76.974531 162.255742 
L 92.413266 165.677491 
L 107.852001 166.071224 
L 123.290736 166.446329 
L 138.729471 166.521637 
L 154.168207 165.200569 
L 169.606942 158.454407 
L 185.045677 143.27415 
L 200.484412 153.136319 
L 215.923147 154.770885 
L 231.361882 145.89934 
L 246.800618 156.235234 
L 262.239353 164.627931 
L 277.678088 166.566349 
L 293.116823 166.686766 
L 308.555558 166.541376 
L 323.994293 161.972906 
L 339.433029 154.061073 
L 354.871764 166.787593 
L 370.310499 155.083485 
L 385.749234 107.770546 
L 401.187969 129.538725 
L 416.626705 154.671916 
" style="fill:none;stroke:#1b9e77;stroke-linecap:square;stroke-opacity:0.5;stroke-width:1.5;"/>
   </g>
   <g id="line2d_58">
    <path clip-path="url(#pbff8146db9)" d="M 61.535795 167.205847 
L 76.974531 167.179213 
L 92.413266 167.270692 
L 107.852001 167.285739 
L 123.290736 167.290978 
L 138.729471 167.270227 
L 154.168207 165.660689 
L 169.606942 167.323163 
L 185.045677 167.16083 
L 200.484412 166.076175 
L 215.923147 166.667724 
L 231.361882 164.884863 
L 246.800618 118.568337 
L 262.239353 129.855075 
L 277.678088 156.604782 
L 293.116823 159.468371 
L 308.555558 158.02582 
L 323.994293 139.185876 
L 339.433029 122.596148 
L 354.871764 145.282007 
L 370.310499 159.994708 
L 385.749234 158.597443 
L 401.187969 148.007545 
L 416.626705 161.065739 
" style="fill:none;stroke:#1b9e77;stroke-linecap:square;stroke-opacity:0.5;stroke-width:1.5;"/>
   </g>
   <g id="line2d_59">
    <path clip-path="url(#pbff8146db9)" d="M 61.535795 146.057341 
L 76.974531 164.531653 
L 92.413266 165.669591 
L 107.852001 166.297241 
L 123.290736 139.920312 
L 138.729471 162.255867 
L 154.168207 166.586149 
L 169.606942 166.209534 
L 185.045677 166.480055 
L 200.484412 167.016235 
L 215.923147 167.216263 
L 231.361882 167.290171 
L 246.800618 165.190233 
L 262.239353 165.772341 
L 277.678088 164.417294 
L 293.116823 163.332684 
L 308.555558 162.726605 
L 323.994293 161.76135 
L 339.433029 161.540338 
L 354.871764 161.248584 
L 370.310499 107.179994 
L 385.749234 122.981463 
L 401.187969 138.830142 
L 416.626705 138.016551 
" style="fill:none;stroke:#1b9e77;stroke-linecap:square;stroke-opacity:0.5;stroke-width:1.5;"/>
   </g>
   <g id="line2d_60">
    <path clip-path="url(#pbff8146db9)" d="M 61.535795 165.74363 
L 76.974531 149.835857 
L 92.413266 113.68748 
L 107.852001 121.980859 
L 123.290736 138.78163 
L 138.729471 127.548609 
L 154.168207 153.885615 
L 169.606942 163.566231 
L 185.045677 166.194164 
L 200.484412 166.252306 
L 215.923147 166.552461 
L 231.361882 166.75279 
L 246.800618 166.94195 
L 262.239353 166.884747 
L 277.678088 166.733929 
L 293.116823 166.900452 
L 308.555558 166.901902 
L 323.994293 167.188897 
L 339.433029 165.740917 
L 354.871764 156.948151 
L 370.310499 148.876759 
L 385.749234 162.608244 
L 401.187969 160.761759 
L 416.626705 161.258643 
" style="fill:none;stroke:#1b9e77;stroke-linecap:square;stroke-opacity:0.5;stroke-width:1.5;"/>
   </g>
   <g id="line2d_61">
    <path clip-path="url(#pbff8146db9)" d="M 61.535795 165.098944 
L 76.974531 165.24233 
L 92.413266 166.359556 
L 107.852001 166.058058 
L 123.290736 166.228987 
L 138.729471 166.635771 
L 154.168207 166.952311 
L 169.606942 167.045586 
L 185.045677 167.10644 
L 200.484412 167.096651 
L 215.923147 166.976131 
L 231.361882 167.009124 
L 246.800618 166.928024 
L 262.239353 166.899203 
L 277.678088 165.042762 
L 293.116823 154.101165 
L 308.555558 160.42176 
L 323.994293 157.837222 
L 339.433029 126.959283 
L 354.871764 116.420622 
L 370.310499 146.370667 
L 385.749234 149.147417 
L 401.187969 125.307546 
L 416.626705 125.282422 
" style="fill:none;stroke:#1b9e77;stroke-linecap:square;stroke-opacity:0.5;stroke-width:1.5;"/>
   </g>
   <g id="line2d_62">
    <path clip-path="url(#pbff8146db9)" d="M 61.535795 157.417572 
L 76.974531 163.533918 
L 92.413266 165.924101 
L 107.852001 166.231462 
L 123.290736 166.038337 
L 138.729471 162.473591 
L 154.168207 133.579944 
L 169.606942 150.663936 
L 185.045677 164.32418 
L 200.484412 166.248753 
L 215.923147 130.762655 
L 231.361882 135.377715 
L 246.800618 140.627745 
L 262.239353 146.693152 
L 277.678088 159.195628 
L 293.116823 165.90878 
L 308.555558 166.412788 
L 323.994293 154.241866 
L 339.433029 130.112782 
L 354.871764 164.716171 
L 370.310499 166.719801 
L 385.749234 166.903861 
L 401.187969 167.138847 
L 416.626705 167.280404 
" style="fill:none;stroke:#1b9e77;stroke-linecap:square;stroke-opacity:0.5;stroke-width:1.5;"/>
   </g>
   <g id="line2d_63">
    <path clip-path="url(#pbff8146db9)" d="M 61.535795 164.510754 
L 76.974531 143.150021 
L 92.413266 142.096151 
L 107.852001 166.126602 
L 123.290736 167.006126 
L 138.729471 167.159237 
L 154.168207 160.5238 
L 169.606942 144.323235 
L 185.045677 105.036721 
L 200.484412 167.2122 
L 215.923147 167.289477 
L 231.361882 136.718469 
L 246.800618 158.047406 
L 262.239353 163.762692 
L 277.678088 167.289703 
L 293.116823 167.320754 
L 308.555558 166.152272 
L 323.994293 157.686029 
L 339.433029 150.727684 
L 354.871764 163.512865 
L 370.310499 161.828221 
L 385.749234 154.023793 
L 401.187969 157.714268 
L 416.626705 159.309509 
" style="fill:none;stroke:#1b9e77;stroke-linecap:square;stroke-opacity:0.5;stroke-width:1.5;"/>
   </g>
   <g id="line2d_64">
    <path clip-path="url(#pbff8146db9)" d="M 61.535795 163.287895 
L 76.974531 165.596183 
L 92.413266 166.756223 
L 107.852001 166.988127 
L 123.290736 164.315529 
L 138.729471 163.129515 
L 154.168207 160.860896 
L 169.606942 159.867857 
L 185.045677 158.4173 
L 200.484412 147.370786 
L 215.923147 155.223678 
L 231.361882 101.705962 
L 246.800618 51.183063 
L 262.239353 163.376896 
L 277.678088 166.672955 
L 293.116823 166.785741 
L 308.555558 166.904606 
L 323.994293 166.956421 
L 339.433029 167.012832 
L 354.871764 167.100405 
L 370.310499 167.163109 
L 385.749234 167.244729 
L 401.187969 167.284138 
L 416.626705 167.323146 
" style="fill:none;stroke:#1b9e77;stroke-linecap:square;stroke-opacity:0.5;stroke-width:1.5;"/>
   </g>
   <g id="line2d_65">
    <path clip-path="url(#pbff8146db9)" d="M 61.535795 164.930359 
L 76.974531 165.605931 
L 92.413266 166.788764 
L 107.852001 167.028041 
L 123.290736 165.27514 
L 138.729471 146.918473 
L 154.168207 132.879211 
L 169.606942 139.188398 
L 185.045677 122.672803 
L 200.484412 139.143713 
L 215.923147 125.618874 
L 231.361882 123.826834 
L 246.800618 161.483225 
L 262.239353 166.247428 
L 277.678088 166.895929 
L 293.116823 166.649291 
L 308.555558 166.89017 
L 323.994293 167.112028 
L 339.433029 167.216226 
L 354.871764 167.190977 
L 370.310499 167.175359 
L 385.749234 167.230265 
L 401.187969 167.246946 
L 416.626705 167.313608 
" style="fill:none;stroke:#1b9e77;stroke-linecap:square;stroke-opacity:0.5;stroke-width:1.5;"/>
   </g>
   <g id="line2d_66">
    <path clip-path="url(#pbff8146db9)" d="M 61.535795 166.097445 
L 76.974531 159.194646 
L 92.413266 151.388995 
L 107.852001 150.333123 
L 123.290736 139.864281 
L 138.729471 148.282367 
L 154.168207 150.701861 
L 169.606942 154.426115 
L 185.045677 121.066045 
L 200.484412 154.476246 
L 215.923147 136.37438 
L 231.361882 140.699284 
L 246.800618 160.194541 
L 262.239353 157.672151 
L 277.678088 167.28726 
L 293.116823 167.294099 
L 308.555558 167.292744 
L 323.994293 166.946126 
L 339.433029 167.22335 
L 354.871764 167.293094 
L 370.310499 167.304484 
L 385.749234 166.570479 
L 401.187969 166.335351 
L 416.626705 164.209525 
" style="fill:none;stroke:#1b9e77;stroke-linecap:square;stroke-opacity:0.5;stroke-width:1.5;"/>
   </g>
   <g id="line2d_67">
    <path clip-path="url(#pbff8146db9)" d="M 61.535795 167.032354 
L 76.974531 167.237755 
L 92.413266 167.163684 
L 107.852001 167.091228 
L 123.290736 166.761821 
L 138.729471 166.198958 
L 154.168207 165.941665 
L 169.606942 165.897156 
L 185.045677 162.387952 
L 200.484412 164.19701 
L 215.923147 162.477685 
L 231.361882 162.112295 
L 246.800618 160.04806 
L 262.239353 158.576696 
L 277.678088 158.907928 
L 293.116823 154.066037 
L 308.555558 155.921049 
L 323.994293 145.637819 
L 339.433029 136.602356 
L 354.871764 84.146116 
L 370.310499 128.394592 
L 385.749234 158.45042 
L 401.187969 166.126541 
L 416.626705 167.150813 
" style="fill:none;stroke:#1b9e77;stroke-linecap:square;stroke-opacity:0.5;stroke-width:1.5;"/>
   </g>
   <g id="line2d_68">
    <path clip-path="url(#pbff8146db9)" d="M 61.535795 166.304119 
L 76.974531 166.540274 
L 92.413266 167.005373 
L 107.852001 166.947532 
L 123.290736 167.031106 
L 138.729471 167.146536 
L 154.168207 167.219719 
L 169.606942 167.253705 
L 185.045677 167.278942 
L 200.484412 167.314722 
L 215.923147 167.158217 
L 231.361882 166.152077 
L 246.800618 165.52358 
L 262.239353 165.763558 
L 277.678088 164.619628 
L 293.116823 163.425645 
L 308.555558 163.071961 
L 323.994293 157.799848 
L 339.433029 127.583794 
L 354.871764 126.57186 
L 370.310499 138.671093 
L 385.749234 97.630379 
L 401.187969 131.571507 
L 416.626705 152.942813 
" style="fill:none;stroke:#1b9e77;stroke-linecap:square;stroke-opacity:0.5;stroke-width:1.5;"/>
   </g>
   <g id="line2d_69">
    <path clip-path="url(#pbff8146db9)" d="M 61.535795 166.598751 
L 76.974531 166.743932 
L 92.413266 167.09085 
L 107.852001 153.145557 
L 123.290736 154.343424 
L 138.729471 165.888918 
L 154.168207 167.241077 
L 169.606942 167.264968 
L 185.045677 161.901005 
L 200.484412 151.816203 
L 215.923147 52.024266 
L 231.361882 140.940641 
L 246.800618 160.519467 
L 262.239353 135.760023 
L 277.678088 154.035465 
L 293.116823 164.070308 
L 308.555558 164.987869 
L 323.994293 164.730574 
L 339.433029 165.768751 
L 354.871764 166.079993 
L 370.310499 166.591668 
L 385.749234 166.785781 
L 401.187969 166.921599 
L 416.626705 167.276903 
" style="fill:none;stroke:#1b9e77;stroke-linecap:square;stroke-opacity:0.5;stroke-width:1.5;"/>
   </g>
   <g id="line2d_70">
    <path clip-path="url(#pbff8146db9)" d="M 61.535795 162.912971 
L 76.974531 126.368936 
L 92.413266 155.698347 
L 107.852001 165.492457 
L 123.290736 166.213337 
L 138.729471 158.257356 
L 154.168207 154.829563 
L 169.606942 162.779672 
L 185.045677 166.801876 
L 200.484412 167.251155 
L 215.923147 166.761516 
L 231.361882 162.767502 
L 246.800618 163.69635 
L 262.239353 163.724084 
L 277.678088 159.566294 
L 293.116823 146.463299 
L 308.555558 164.108669 
L 323.994293 150.398514 
L 339.433029 136.027346 
L 354.871764 114.52795 
L 370.310499 153.554126 
L 385.749234 160.04423 
L 401.187969 164.348843 
L 416.626705 165.933598 
" style="fill:none;stroke:#1b9e77;stroke-linecap:square;stroke-opacity:0.5;stroke-width:1.5;"/>
   </g>
   <g id="line2d_71">
    <path clip-path="url(#pbff8146db9)" d="M 61.535795 45.459034 
L 76.974531 102.677764 
L 92.413266 157.882419 
L 107.852001 146.273361 
L 123.290736 157.381222 
L 138.729471 162.397915 
L 154.168207 164.404612 
L 169.606942 164.556274 
L 185.045677 165.398431 
L 200.484412 165.508906 
L 215.923147 166.05887 
L 231.361882 166.260514 
L 246.800618 166.240374 
L 262.239353 165.109769 
L 277.678088 159.638124 
L 293.116823 166.142135 
L 308.555558 166.818608 
L 323.994293 167.035119 
L 339.433029 167.1437 
L 354.871764 167.11944 
L 370.310499 167.181533 
L 385.749234 167.243588 
L 401.187969 167.275661 
L 416.626705 167.320621 
" style="fill:none;stroke:#1b9e77;stroke-linecap:square;stroke-opacity:0.5;stroke-width:1.5;"/>
   </g>
   <g id="line2d_72">
    <path clip-path="url(#pbff8146db9)" d="M 61.535795 166.448948 
L 76.974531 166.280258 
L 92.413266 166.414227 
L 107.852001 165.664919 
L 123.290736 152.221665 
L 138.729471 152.087028 
L 154.168207 153.186966 
L 169.606942 158.310841 
L 185.045677 161.167929 
L 200.484412 161.393643 
L 215.923147 160.936056 
L 231.361882 158.154333 
L 246.800618 156.307879 
L 262.239353 154.50105 
L 277.678088 150.738844 
L 293.116823 153.836001 
L 308.555558 156.034528 
L 323.994293 155.946191 
L 339.433029 152.235531 
L 354.871764 148.446374 
L 370.310499 146.389704 
L 385.749234 133.744373 
L 401.187969 164.442179 
L 416.626705 163.638526 
" style="fill:none;stroke:#1b9e77;stroke-linecap:square;stroke-opacity:0.5;stroke-width:1.5;"/>
   </g>
   <g id="line2d_73">
    <path clip-path="url(#pbff8146db9)" d="M 61.535795 166.913518 
L 76.974531 165.423829 
L 92.413266 161.190882 
L 107.852001 143.254077 
L 123.290736 123.720421 
L 138.729471 130.880458 
L 154.168207 151.373461 
L 169.606942 125.776522 
L 185.045677 146.574654 
L 200.484412 162.792816 
L 215.923147 165.337668 
L 231.361882 159.930328 
L 246.800618 163.046963 
L 262.239353 166.635454 
L 277.678088 167.080971 
L 293.116823 167.113351 
L 308.555558 167.044861 
L 323.994293 165.869067 
L 339.433029 164.091698 
L 354.871764 166.728715 
L 370.310499 163.413131 
L 385.749234 148.000869 
L 401.187969 155.230845 
L 416.626705 161.103429 
" style="fill:none;stroke:#1b9e77;stroke-linecap:square;stroke-opacity:0.5;stroke-width:1.5;"/>
   </g>
   <g id="line2d_74">
    <path clip-path="url(#pbff8146db9)" d="M 61.535795 164.907113 
L 76.974531 166.517674 
L 92.413266 167.009975 
L 107.852001 166.614442 
L 123.290736 166.676499 
L 138.729471 166.687187 
L 154.168207 166.465552 
L 169.606942 166.134374 
L 185.045677 164.621088 
L 200.484412 162.057461 
L 215.923147 149.991857 
L 231.361882 154.300756 
L 246.800618 153.914312 
L 262.239353 159.195922 
L 277.678088 141.086257 
L 293.116823 133.645905 
L 308.555558 133.86904 
L 323.994293 86.126072 
L 339.433029 156.878468 
L 354.871764 164.592241 
L 370.310499 166.371682 
L 385.749234 166.64366 
L 401.187969 166.947417 
L 416.626705 167.273028 
" style="fill:none;stroke:#1b9e77;stroke-linecap:square;stroke-opacity:0.5;stroke-width:1.5;"/>
   </g>
   <g id="line2d_75">
    <path clip-path="url(#pbff8146db9)" d="M 61.535795 166.828455 
L 76.974531 166.57358 
L 92.413266 166.119614 
L 107.852001 165.738091 
L 123.290736 163.245958 
L 138.729471 155.100026 
L 154.168207 135.816327 
L 169.606942 138.15193 
L 185.045677 143.828143 
L 200.484412 148.411705 
L 215.923147 158.862394 
L 231.361882 164.231498 
L 246.800618 164.763415 
L 262.239353 161.495991 
L 277.678088 159.134561 
L 293.116823 161.369144 
L 308.555558 160.055693 
L 323.994293 150.025218 
L 339.433029 150.108254 
L 354.871764 154.81836 
L 370.310499 155.547764 
L 385.749234 156.199009 
L 401.187969 150.539985 
L 416.626705 161.562877 
" style="fill:none;stroke:#1b9e77;stroke-linecap:square;stroke-opacity:0.5;stroke-width:1.5;"/>
   </g>
   <g id="line2d_76">
    <path clip-path="url(#pbff8146db9)" d="M 61.535795 165.263099 
L 76.974531 165.153401 
L 92.413266 162.752474 
L 107.852001 62.40527 
L 123.290736 146.733098 
L 138.729471 164.685692 
L 154.168207 164.649471 
L 169.606942 128.174437 
L 185.045677 132.936982 
L 200.484412 166.072363 
L 215.923147 167.017555 
L 231.361882 165.800333 
L 246.800618 138.183819 
L 262.239353 159.003329 
L 277.678088 166.489878 
L 293.116823 167.284249 
L 308.555558 167.309395 
L 323.994293 167.185843 
L 339.433029 164.899573 
L 354.871764 167.258432 
L 370.310499 167.309083 
L 385.749234 167.313983 
L 401.187969 167.320259 
L 416.626705 167.325961 
" style="fill:none;stroke:#1b9e77;stroke-linecap:square;stroke-opacity:0.5;stroke-width:1.5;"/>
   </g>
   <g id="line2d_77">
    <path clip-path="url(#pbff8146db9)" d="M 61.535795 126.264358 
L 76.974531 162.120355 
L 92.413266 163.36696 
L 107.852001 159.738904 
L 123.290736 145.407649 
L 138.729471 106.080873 
L 154.168207 133.80771 
L 169.606942 148.28813 
L 185.045677 153.026093 
L 200.484412 141.4033 
L 215.923147 155.521373 
L 231.361882 161.904181 
L 246.800618 165.522029 
L 262.239353 166.253787 
L 277.678088 166.558965 
L 293.116823 165.879575 
L 308.555558 166.555693 
L 323.994293 167.156055 
L 339.433029 167.244273 
L 354.871764 167.249145 
L 370.310499 167.267154 
L 385.749234 167.28731 
L 401.187969 167.299959 
L 416.626705 167.324153 
" style="fill:none;stroke:#1b9e77;stroke-linecap:square;stroke-opacity:0.5;stroke-width:1.5;"/>
   </g>
   <g id="line2d_78">
    <path clip-path="url(#pbff8146db9)" d="M 61.535795 165.072996 
L 76.974531 165.406228 
L 92.413266 164.63372 
L 107.852001 161.29161 
L 123.290736 165.299352 
L 138.729471 167.197779 
L 154.168207 166.790913 
L 169.606942 159.305469 
L 185.045677 161.231919 
L 200.484412 162.712368 
L 215.923147 156.023305 
L 231.361882 153.655315 
L 246.800618 158.288376 
L 262.239353 157.502576 
L 277.678088 144.5383 
L 293.116823 43.588731 
L 308.555558 145.432219 
L 323.994293 158.936803 
L 339.433029 166.032853 
L 354.871764 166.886919 
L 370.310499 167.107795 
L 385.749234 167.1354 
L 401.187969 167.165884 
L 416.626705 167.291165 
" style="fill:none;stroke:#1b9e77;stroke-linecap:square;stroke-opacity:0.5;stroke-width:1.5;"/>
   </g>
   <g id="line2d_79">
    <path clip-path="url(#pbff8146db9)" d="M 61.535795 158.197089 
L 76.974531 163.561003 
L 92.413266 166.338535 
L 107.852001 166.202095 
L 123.290736 166.204184 
L 138.729471 166.055684 
L 154.168207 166.02555 
L 169.606942 166.682573 
L 185.045677 165.962798 
L 200.484412 159.776597 
L 215.923147 140.838893 
L 231.361882 126.480629 
L 246.800618 137.273179 
L 262.239353 134.010907 
L 277.678088 158.946866 
L 293.116823 125.352181 
L 308.555558 149.196383 
L 323.994293 147.725388 
L 339.433029 164.632887 
L 354.871764 166.05982 
L 370.310499 165.608696 
L 385.749234 164.889888 
L 401.187969 165.512011 
L 416.626705 166.994156 
" style="fill:none;stroke:#1b9e77;stroke-linecap:square;stroke-opacity:0.5;stroke-width:1.5;"/>
   </g>
   <g id="line2d_80">
    <path clip-path="url(#pbff8146db9)" d="M 61.535795 148.399651 
L 76.974531 137.309295 
L 92.413266 164.215731 
L 107.852001 165.657347 
L 123.290736 165.977143 
L 138.729471 162.958149 
L 154.168207 158.961704 
L 169.606942 165.287016 
L 185.045677 166.182541 
L 200.484412 165.618534 
L 215.923147 164.433148 
L 231.361882 164.412964 
L 246.800618 165.471175 
L 262.239353 166.274176 
L 277.678088 166.182944 
L 293.116823 163.828705 
L 308.555558 148.974733 
L 323.994293 163.453238 
L 339.433029 165.479139 
L 354.871764 99.835808 
L 370.310499 118.006489 
L 385.749234 149.682764 
L 401.187969 157.041134 
L 416.626705 164.884461 
" style="fill:none;stroke:#1b9e77;stroke-linecap:square;stroke-opacity:0.5;stroke-width:1.5;"/>
   </g>
   <g id="line2d_81">
    <path clip-path="url(#pbff8146db9)" d="M 61.535795 148.520713 
L 76.974531 166.234061 
L 92.413266 166.811746 
L 107.852001 166.35057 
L 123.290736 165.172035 
L 138.729471 165.340901 
L 154.168207 165.464657 
L 169.606942 164.689439 
L 185.045677 163.606261 
L 200.484412 162.051163 
L 215.923147 158.608764 
L 231.361882 159.115888 
L 246.800618 162.811489 
L 262.239353 161.659119 
L 277.678088 148.977232 
L 293.116823 145.799983 
L 308.555558 148.680814 
L 323.994293 136.706272 
L 339.433029 150.955726 
L 354.871764 124.151977 
L 370.310499 128.562 
L 385.749234 164.026953 
L 401.187969 166.953383 
L 416.626705 167.27684 
" style="fill:none;stroke:#1b9e77;stroke-linecap:square;stroke-opacity:0.5;stroke-width:1.5;"/>
   </g>
   <g id="line2d_82">
    <path clip-path="url(#pbff8146db9)" d="M 61.535795 166.659287 
L 76.974531 165.917326 
L 92.413266 166.854334 
L 107.852001 167.103166 
L 123.290736 167.176367 
L 138.729471 166.184114 
L 154.168207 122.857281 
L 169.606942 114.896607 
L 185.045677 134.59322 
L 200.484412 167.111557 
L 215.923147 158.50813 
L 231.361882 153.043583 
L 246.800618 156.916163 
L 262.239353 166.784551 
L 277.678088 167.048847 
L 293.116823 166.99681 
L 308.555558 166.826513 
L 323.994293 166.73553 
L 339.433029 166.61817 
L 354.871764 166.717634 
L 370.310499 166.239824 
L 385.749234 161.03085 
L 401.187969 132.866675 
L 416.626705 122.841453 
" style="fill:none;stroke:#1b9e77;stroke-linecap:square;stroke-opacity:0.5;stroke-width:1.5;"/>
   </g>
   <g id="line2d_83">
    <path clip-path="url(#pbff8146db9)" d="M 61.535795 63.42404 
L 76.974531 127.286004 
L 92.413266 156.369149 
L 107.852001 127.210372 
L 123.290736 125.641628 
L 138.729471 158.403734 
L 154.168207 164.947058 
L 169.606942 164.966637 
L 185.045677 165.480207 
L 200.484412 165.881694 
L 215.923147 166.443808 
L 231.361882 166.637854 
L 246.800618 166.928535 
L 262.239353 167.027938 
L 277.678088 167.043266 
L 293.116823 167.167449 
L 308.555558 167.236495 
L 323.994293 167.243902 
L 339.433029 167.224073 
L 354.871764 167.25081 
L 370.310499 167.266755 
L 385.749234 167.289487 
L 401.187969 167.179354 
L 416.626705 166.97774 
" style="fill:none;stroke:#1b9e77;stroke-linecap:square;stroke-opacity:0.5;stroke-width:1.5;"/>
   </g>
   <g id="line2d_84">
    <path clip-path="url(#pbff8146db9)" d="M 61.535795 154.881453 
L 76.974531 161.019123 
L 92.413266 165.28139 
L 107.852001 165.304949 
L 123.290736 165.75455 
L 138.729471 166.139667 
L 154.168207 166.128193 
L 169.606942 165.613804 
L 185.045677 165.614186 
L 200.484412 166.683206 
L 215.923147 166.985269 
L 231.361882 167.085523 
L 246.800618 166.943104 
L 262.239353 162.719813 
L 277.678088 161.186788 
L 293.116823 160.532455 
L 308.555558 152.626898 
L 323.994293 146.959097 
L 339.433029 158.471641 
L 354.871764 161.886836 
L 370.310499 61.460626 
L 385.749234 130.708919 
L 401.187969 151.337388 
L 416.626705 167.203113 
" style="fill:none;stroke:#1b9e77;stroke-linecap:square;stroke-opacity:0.5;stroke-width:1.5;"/>
   </g>
   <g id="line2d_85">
    <path clip-path="url(#pbff8146db9)" d="M 61.535795 163.498014 
L 76.974531 165.466565 
L 92.413266 158.202515 
L 107.852001 137.840975 
L 123.290736 146.236858 
L 138.729471 149.370602 
L 154.168207 161.229483 
L 169.606942 166.07013 
L 185.045677 165.224136 
L 200.484412 161.558783 
L 215.923147 162.564348 
L 231.361882 166.249213 
L 246.800618 166.969026 
L 262.239353 167.23389 
L 277.678088 167.047569 
L 293.116823 138.99382 
L 308.555558 148.372672 
L 323.994293 155.010731 
L 339.433029 155.947674 
L 354.871764 155.100748 
L 370.310499 157.287408 
L 385.749234 154.588592 
L 401.187969 135.542942 
L 416.626705 152.921292 
" style="fill:none;stroke:#1b9e77;stroke-linecap:square;stroke-opacity:0.5;stroke-width:1.5;"/>
   </g>
   <g id="line2d_86">
    <path clip-path="url(#pbff8146db9)" d="M 61.535795 130.104275 
L 76.974531 166.397374 
L 92.413266 166.096712 
L 107.852001 167.092688 
L 123.290736 165.950073 
L 138.729471 159.685106 
L 154.168207 154.81984 
L 169.606942 156.387857 
L 185.045677 152.729958 
L 200.484412 153.547821 
L 215.923147 164.973421 
L 231.361882 136.544856 
L 246.800618 89.079774 
L 262.239353 166.113795 
L 277.678088 166.861115 
L 293.116823 166.438667 
L 308.555558 166.330593 
L 323.994293 166.863422 
L 339.433029 166.964452 
L 354.871764 167.097365 
L 370.310499 155.654902 
L 385.749234 160.755357 
L 401.187969 158.169276 
L 416.626705 153.869284 
" style="fill:none;stroke:#1b9e77;stroke-linecap:square;stroke-opacity:0.5;stroke-width:1.5;"/>
   </g>
   <g id="line2d_87">
    <path clip-path="url(#pbff8146db9)" d="M 61.535795 167.016356 
L 76.974531 167.156195 
L 92.413266 167.217528 
L 107.852001 162.760321 
L 123.290736 155.444883 
L 138.729471 165.291562 
L 154.168207 165.623495 
L 169.606942 164.526754 
L 185.045677 162.830661 
L 200.484412 163.077651 
L 215.923147 160.197788 
L 231.361882 153.950908 
L 246.800618 146.916982 
L 262.239353 135.489532 
L 277.678088 137.263818 
L 293.116823 118.592222 
L 308.555558 124.938155 
L 323.994293 148.077794 
L 339.433029 165.882742 
L 354.871764 165.230186 
L 370.310499 165.469527 
L 385.749234 164.371773 
L 401.187969 164.079312 
L 416.626705 167.121844 
" style="fill:none;stroke:#1b9e77;stroke-linecap:square;stroke-opacity:0.5;stroke-width:1.5;"/>
   </g>
   <g id="line2d_88">
    <path clip-path="url(#pbff8146db9)" d="M 61.535795 160.170299 
L 76.974531 110.635804 
L 92.413266 130.732919 
L 107.852001 126.701974 
L 123.290736 145.893118 
L 138.729471 137.1159 
L 154.168207 130.930054 
L 169.606942 156.588871 
L 185.045677 164.988499 
L 200.484412 165.966951 
L 215.923147 166.710184 
L 231.361882 166.836852 
L 246.800618 167.075654 
L 262.239353 167.071565 
L 277.678088 167.108675 
L 293.116823 167.082444 
L 308.555558 167.0885 
L 323.994293 167.094498 
L 339.433029 167.079725 
L 354.871764 167.117087 
L 370.310499 167.121658 
L 385.749234 167.243554 
L 401.187969 167.128793 
L 416.626705 157.044411 
" style="fill:none;stroke:#1b9e77;stroke-linecap:square;stroke-opacity:0.5;stroke-width:1.5;"/>
   </g>
   <g id="line2d_89">
    <path clip-path="url(#pbff8146db9)" d="M 61.535795 166.494841 
L 76.974531 166.613911 
L 92.413266 166.997934 
L 107.852001 167.000802 
L 123.290736 167.0787 
L 138.729471 167.143546 
L 154.168207 167.162632 
L 169.606942 167.184409 
L 185.045677 167.182717 
L 200.484412 167.301546 
L 215.923147 167.266469 
L 231.361882 165.910217 
L 246.800618 165.936579 
L 262.239353 165.575876 
L 277.678088 162.530169 
L 293.116823 160.818415 
L 308.555558 164.336404 
L 323.994293 162.975389 
L 339.433029 133.883017 
L 354.871764 84.358159 
L 370.310499 125.30899 
L 385.749234 135.015713 
L 401.187969 136.241178 
L 416.626705 158.210377 
" style="fill:none;stroke:#1b9e77;stroke-linecap:square;stroke-opacity:0.5;stroke-width:1.5;"/>
   </g>
   <g id="line2d_90">
    <path clip-path="url(#pbff8146db9)" d="M 61.535795 129.103358 
L 76.974531 160.401751 
L 92.413266 165.150465 
L 107.852001 165.238953 
L 123.290736 164.903905 
L 138.729471 164.893141 
L 154.168207 163.803311 
L 169.606942 162.930413 
L 185.045677 162.397243 
L 200.484412 159.77828 
L 215.923147 156.45843 
L 231.361882 128.180232 
L 246.800618 124.538186 
L 262.239353 140.380809 
L 277.678088 163.498781 
L 293.116823 165.671469 
L 308.555558 157.617132 
L 323.994293 158.382622 
L 339.433029 163.393151 
L 354.871764 162.441654 
L 370.310499 164.604485 
L 385.749234 163.928022 
L 401.187969 156.488271 
L 416.626705 154.343929 
" style="fill:none;stroke:#1b9e77;stroke-linecap:square;stroke-opacity:0.5;stroke-width:1.5;"/>
   </g>
   <g id="line2d_91">
    <path clip-path="url(#pbff8146db9)" d="M 61.535795 126.558119 
L 76.974531 166.109625 
L 92.413266 166.393394 
L 107.852001 165.969288 
L 123.290736 165.431528 
L 138.729471 165.238555 
L 154.168207 164.650087 
L 169.606942 164.176495 
L 185.045677 164.159691 
L 200.484412 163.08255 
L 215.923147 160.171506 
L 231.361882 159.773231 
L 246.800618 161.774333 
L 262.239353 159.026292 
L 277.678088 147.597297 
L 293.116823 145.116808 
L 308.555558 145.930178 
L 323.994293 133.353229 
L 339.433029 137.312914 
L 354.871764 154.109545 
L 370.310499 155.790089 
L 385.749234 162.52047 
L 401.187969 163.023605 
L 416.626705 161.259159 
" style="fill:none;stroke:#1b9e77;stroke-linecap:square;stroke-opacity:0.5;stroke-width:1.5;"/>
   </g>
   <g id="line2d_92">
    <path clip-path="url(#pbff8146db9)" d="M 61.535795 150.619265 
L 76.974531 160.986598 
L 92.413266 166.030069 
L 107.852001 166.454873 
L 123.290736 166.50944 
L 138.729471 161.605548 
L 154.168207 113.318406 
L 169.606942 164.286662 
L 185.045677 165.696976 
L 200.484412 163.994926 
L 215.923147 150.10674 
L 231.361882 139.414213 
L 246.800618 162.265563 
L 262.239353 165.895092 
L 277.678088 166.015225 
L 293.116823 157.139107 
L 308.555558 154.987418 
L 323.994293 166.94665 
L 339.433029 167.227208 
L 354.871764 158.668501 
L 370.310499 147.591761 
L 385.749234 158.87687 
L 401.187969 139.473266 
L 416.626705 144.41762 
" style="fill:none;stroke:#1b9e77;stroke-linecap:square;stroke-opacity:0.5;stroke-width:1.5;"/>
   </g>
   <g id="line2d_93">
    <path clip-path="url(#pbff8146db9)" d="M 61.535795 166.763013 
L 76.974531 166.230958 
L 92.413266 165.562933 
L 107.852001 163.844042 
L 123.290736 162.115555 
L 138.729471 160.63838 
L 154.168207 159.039549 
L 169.606942 156.287398 
L 185.045677 148.000556 
L 200.484412 140.309829 
L 215.923147 136.974654 
L 231.361882 150.73551 
L 246.800618 161.362963 
L 262.239353 121.924067 
L 277.678088 97.026358 
L 293.116823 164.024726 
L 308.555558 167.165202 
L 323.994293 167.081671 
L 339.433029 167.148443 
L 354.871764 167.188211 
L 370.310499 167.237777 
L 385.749234 167.261399 
L 401.187969 167.284378 
L 416.626705 167.32042 
" style="fill:none;stroke:#1b9e77;stroke-linecap:square;stroke-opacity:0.5;stroke-width:1.5;"/>
   </g>
   <g id="line2d_94">
    <path clip-path="url(#pbff8146db9)" d="M 61.535795 167.261143 
L 76.974531 167.074189 
L 92.413266 167.04478 
L 107.852001 166.700579 
L 123.290736 163.416585 
L 138.729471 166.719575 
L 154.168207 160.256563 
L 169.606942 140.775777 
L 185.045677 150.334527 
L 200.484412 106.800807 
L 215.923147 114.373174 
L 231.361882 119.445656 
L 246.800618 149.594666 
L 262.239353 150.111548 
L 277.678088 164.792001 
L 293.116823 166.385999 
L 308.555558 166.918637 
L 323.994293 167.033794 
L 339.433029 167.165354 
L 354.871764 167.185028 
L 370.310499 167.241989 
L 385.749234 167.276734 
L 401.187969 167.295988 
L 416.626705 167.322897 
" style="fill:none;stroke:#1b9e77;stroke-linecap:square;stroke-opacity:0.5;stroke-width:1.5;"/>
   </g>
   <g id="line2d_95">
    <path clip-path="url(#pbff8146db9)" d="M 61.535795 166.305643 
L 76.974531 164.537995 
L 92.413266 162.854427 
L 107.852001 156.789746 
L 123.290736 142.788565 
L 138.729471 120.551299 
L 154.168207 135.190653 
L 169.606942 124.724301 
L 185.045677 102.222034 
L 200.484412 155.873501 
L 215.923147 165.896709 
L 231.361882 165.665249 
L 246.800618 166.350781 
L 262.239353 166.610676 
L 277.678088 166.884848 
L 293.116823 166.920899 
L 308.555558 166.993641 
L 323.994293 167.10486 
L 339.433029 167.162892 
L 354.871764 167.231563 
L 370.310499 167.198991 
L 385.749234 163.632415 
L 401.187969 163.570475 
L 416.626705 165.465831 
" style="fill:none;stroke:#1b9e77;stroke-linecap:square;stroke-opacity:0.5;stroke-width:1.5;"/>
   </g>
   <g id="line2d_96">
    <path clip-path="url(#pbff8146db9)" d="M 61.535795 166.317433 
L 76.974531 166.706893 
L 92.413266 167.056512 
L 107.852001 167.032196 
L 123.290736 167.050759 
L 138.729471 167.076409 
L 154.168207 167.01902 
L 169.606942 167.18373 
L 185.045677 167.113728 
L 200.484412 165.20827 
L 215.923147 165.335548 
L 231.361882 162.26695 
L 246.800618 152.786777 
L 262.239353 138.3332 
L 277.678088 120.844961 
L 293.116823 140.777045 
L 308.555558 149.010841 
L 323.994293 139.407967 
L 339.433029 154.497266 
L 354.871764 167.110318 
L 370.310499 160.990088 
L 385.749234 136.113704 
L 401.187969 143.483049 
L 416.626705 159.805319 
" style="fill:none;stroke:#1b9e77;stroke-linecap:square;stroke-opacity:0.5;stroke-width:1.5;"/>
   </g>
   <g id="line2d_97">
    <path clip-path="url(#pbff8146db9)" d="M 61.535795 163.131018 
L 76.974531 166.452853 
L 92.413266 166.810912 
L 107.852001 165.855631 
L 123.290736 165.883395 
L 138.729471 167.13056 
L 154.168207 166.729824 
L 169.606942 154.629373 
L 185.045677 142.164289 
L 200.484412 134.282016 
L 215.923147 166.093417 
L 231.361882 167.249856 
L 246.800618 167.086366 
L 262.239353 158.601382 
L 277.678088 163.171217 
L 293.116823 156.379637 
L 308.555558 131.351472 
L 323.994293 145.00133 
L 339.433029 156.22052 
L 354.871764 164.015324 
L 370.310499 162.464506 
L 385.749234 96.045885 
L 401.187969 167.026165 
L 416.626705 164.751037 
" style="fill:none;stroke:#1b9e77;stroke-linecap:square;stroke-opacity:0.5;stroke-width:1.5;"/>
   </g>
   <g id="line2d_98">
    <path clip-path="url(#pbff8146db9)" d="M 61.535795 167.262164 
L 76.974531 167.095734 
L 92.413266 167.21154 
L 107.852001 167.208533 
L 123.290736 167.211823 
L 138.729471 167.229084 
L 154.168207 167.2439 
L 169.606942 167.300207 
L 185.045677 166.213041 
L 200.484412 159.903245 
L 215.923147 162.996073 
L 231.361882 161.095173 
L 246.800618 53.655375 
L 262.239353 126.502951 
L 277.678088 151.549003 
L 293.116823 161.846868 
L 308.555558 132.835756 
L 323.994293 158.588001 
L 339.433029 161.598534 
L 354.871764 159.765456 
L 370.310499 166.787797 
L 385.749234 162.936305 
L 401.187969 167.199568 
L 416.626705 167.291861 
" style="fill:none;stroke:#1b9e77;stroke-linecap:square;stroke-opacity:0.5;stroke-width:1.5;"/>
   </g>
   <g id="line2d_99">
    <path clip-path="url(#pbff8146db9)" d="M 61.535795 166.236603 
L 76.974531 164.793287 
L 92.413266 158.695192 
L 107.852001 148.601842 
L 123.290736 153.360624 
L 138.729471 163.132293 
L 154.168207 162.556867 
L 169.606942 160.360233 
L 185.045677 149.143804 
L 200.484412 161.775407 
L 215.923147 160.995939 
L 231.361882 161.586873 
L 246.800618 163.807856 
L 262.239353 163.581645 
L 277.678088 159.481702 
L 293.116823 159.63106 
L 308.555558 159.31311 
L 323.994293 158.38606 
L 339.433029 163.22833 
L 354.871764 74.97993 
L 370.310499 148.78254 
L 385.749234 166.353306 
L 401.187969 166.643095 
L 416.626705 163.100395 
" style="fill:none;stroke:#1b9e77;stroke-linecap:square;stroke-opacity:0.5;stroke-width:1.5;"/>
   </g>
   <g id="line2d_100">
    <path clip-path="url(#pbff8146db9)" d="M 61.535795 166.05287 
L 76.974531 165.879422 
L 92.413266 166.111587 
L 107.852001 165.934678 
L 123.290736 149.004879 
L 138.729471 149.888876 
L 154.168207 141.285916 
L 169.606942 163.112575 
L 185.045677 161.732791 
L 200.484412 150.12017 
L 215.923147 143.720101 
L 231.361882 119.940191 
L 246.800618 164.07404 
L 262.239353 164.856204 
L 277.678088 164.266894 
L 293.116823 158.958306 
L 308.555558 160.527131 
L 323.994293 162.795871 
L 339.433029 164.250056 
L 354.871764 165.330638 
L 370.310499 156.909987 
L 385.749234 155.349826 
L 401.187969 138.280308 
L 416.626705 160.144672 
" style="fill:none;stroke:#1b9e77;stroke-linecap:square;stroke-opacity:0.5;stroke-width:1.5;"/>
   </g>
   <g id="line2d_101">
    <path clip-path="url(#pbff8146db9)" d="M 61.535795 165.442664 
L 76.974531 165.603201 
L 92.413266 166.461365 
L 107.852001 166.555698 
L 123.290736 166.009935 
L 138.729471 161.960752 
L 154.168207 139.917287 
L 169.606942 130.557256 
L 185.045677 111.623079 
L 200.484412 116.392315 
L 215.923147 143.658661 
L 231.361882 153.657719 
L 246.800618 159.010718 
L 262.239353 155.55971 
L 277.678088 163.490338 
L 293.116823 166.382875 
L 308.555558 166.788708 
L 323.994293 166.691958 
L 339.433029 166.110161 
L 354.871764 165.109739 
L 370.310499 166.005218 
L 385.749234 166.918222 
L 401.187969 166.956867 
L 416.626705 161.663546 
" style="fill:none;stroke:#1b9e77;stroke-linecap:square;stroke-opacity:0.5;stroke-width:1.5;"/>
   </g>
   <g id="line2d_102">
    <path clip-path="url(#pbff8146db9)" d="M 61.535795 167.188961 
L 76.974531 166.57551 
L 92.413266 167.165372 
L 107.852001 160.360739 
L 123.290736 136.432088 
L 138.729471 165.389124 
L 154.168207 164.718222 
L 169.606942 163.358888 
L 185.045677 162.228414 
L 200.484412 149.209903 
L 215.923147 141.066715 
L 231.361882 144.073338 
L 246.800618 163.821759 
L 262.239353 165.278193 
L 277.678088 150.881975 
L 293.116823 133.111443 
L 308.555558 145.570553 
L 323.994293 143.020174 
L 339.433029 150.305253 
L 354.871764 150.313976 
L 370.310499 166.71297 
L 385.749234 167.16633 
L 401.187969 167.263931 
L 416.626705 167.314159 
" style="fill:none;stroke:#1b9e77;stroke-linecap:square;stroke-opacity:0.5;stroke-width:1.5;"/>
   </g>
   <g id="line2d_103">
    <path clip-path="url(#pbff8146db9)" d="M 61.535795 166.69239 
L 76.974531 165.268452 
L 92.413266 165.708429 
L 107.852001 131.411855 
L 123.290736 99.256101 
L 138.729471 148.649875 
L 154.168207 149.017994 
L 169.606942 104.413829 
L 185.045677 139.780771 
L 200.484412 164.808808 
L 215.923147 166.738211 
L 231.361882 166.636373 
L 246.800618 166.740358 
L 262.239353 166.85694 
L 277.678088 166.923367 
L 293.116823 166.953764 
L 308.555558 166.847244 
L 323.994293 167.198495 
L 339.433029 166.368899 
L 354.871764 160.955507 
L 370.310499 165.44366 
L 385.749234 165.68832 
L 401.187969 164.065878 
L 416.626705 166.102475 
" style="fill:none;stroke:#1b9e77;stroke-linecap:square;stroke-opacity:0.5;stroke-width:1.5;"/>
   </g>
   <g id="line2d_104">
    <path clip-path="url(#pbff8146db9)" d="M 61.535795 166.948139 
L 76.974531 165.864797 
L 92.413266 148.941563 
L 107.852001 129.575372 
L 123.290736 121.386036 
L 138.729471 136.553059 
L 154.168207 140.057436 
L 169.606942 135.259257 
L 185.045677 139.044077 
L 200.484412 156.966545 
L 215.923147 165.747951 
L 231.361882 165.914361 
L 246.800618 166.459626 
L 262.239353 167.086208 
L 277.678088 165.965132 
L 293.116823 164.756561 
L 308.555558 166.518833 
L 323.994293 166.885846 
L 339.433029 165.867597 
L 354.871764 164.921781 
L 370.310499 163.621437 
L 385.749234 163.429687 
L 401.187969 164.619483 
L 416.626705 166.137204 
" style="fill:none;stroke:#1b9e77;stroke-linecap:square;stroke-opacity:0.5;stroke-width:1.5;"/>
   </g>
   <g id="line2d_105">
    <path clip-path="url(#pbff8146db9)" d="M 61.535795 163.358796 
L 76.974531 163.20808 
L 92.413266 166.386631 
L 107.852001 166.49115 
L 123.290736 166.4647 
L 138.729471 166.432239 
L 154.168207 161.923965 
L 169.606942 157.847813 
L 185.045677 138.803599 
L 200.484412 116.095594 
L 215.923147 117.831618 
L 231.361882 139.815194 
L 246.800618 159.6197 
L 262.239353 163.941356 
L 277.678088 166.249116 
L 293.116823 166.305086 
L 308.555558 166.631079 
L 323.994293 166.729391 
L 339.433029 166.866471 
L 354.871764 166.927034 
L 370.310499 166.643402 
L 385.749234 164.765 
L 401.187969 138.58558 
L 416.626705 140.605394 
" style="fill:none;stroke:#1b9e77;stroke-linecap:square;stroke-opacity:0.5;stroke-width:1.5;"/>
   </g>
   <g id="line2d_106">
    <path clip-path="url(#pbff8146db9)" d="M 61.535795 162.459068 
L 76.974531 100.266336 
L 92.413266 130.713165 
L 107.852001 159.306406 
L 123.290736 164.684021 
L 138.729471 163.484718 
L 154.168207 163.919702 
L 169.606942 164.858435 
L 185.045677 166.053447 
L 200.484412 166.179295 
L 215.923147 166.383977 
L 231.361882 166.371448 
L 246.800618 166.66084 
L 262.239353 166.784978 
L 277.678088 166.860532 
L 293.116823 166.837127 
L 308.555558 166.925225 
L 323.994293 167.182501 
L 339.433029 167.180296 
L 354.871764 161.738836 
L 370.310499 143.991289 
L 385.749234 156.50574 
L 401.187969 108.705462 
L 416.626705 144.475148 
" style="fill:none;stroke:#1b9e77;stroke-linecap:square;stroke-opacity:0.5;stroke-width:1.5;"/>
   </g>
   <g id="line2d_107">
    <path clip-path="url(#pbff8146db9)" d="M 61.535795 162.012806 
L 76.974531 166.772281 
L 92.413266 164.640994 
L 107.852001 160.295057 
L 123.290736 164.174445 
L 138.729471 163.947686 
L 154.168207 158.315266 
L 169.606942 156.146861 
L 185.045677 152.717971 
L 200.484412 156.7743 
L 215.923147 160.854841 
L 231.361882 160.838407 
L 246.800618 149.916128 
L 262.239353 155.184416 
L 277.678088 160.864324 
L 293.116823 162.666755 
L 308.555558 163.444695 
L 323.994293 162.317255 
L 339.433029 160.372052 
L 354.871764 161.246746 
L 370.310499 163.768692 
L 385.749234 164.5484 
L 401.187969 128.258092 
L 416.626705 98.449529 
" style="fill:none;stroke:#1b9e77;stroke-linecap:square;stroke-opacity:0.5;stroke-width:1.5;"/>
   </g>
   <g id="line2d_108">
    <path clip-path="url(#pbff8146db9)" d="M 61.535795 167.308996 
L 76.974531 167.212941 
L 92.413266 167.04764 
L 107.852001 159.429753 
L 123.290736 161.420969 
L 138.729471 167.208991 
L 154.168207 167.138673 
L 169.606942 154.028852 
L 185.045677 93.07533 
L 200.484412 160.727752 
L 215.923147 166.48576 
L 231.361882 165.18504 
L 246.800618 158.075925 
L 262.239353 124.583934 
L 277.678088 158.404949 
L 293.116823 166.236134 
L 308.555558 166.306047 
L 323.994293 165.004297 
L 339.433029 165.850509 
L 354.871764 166.92441 
L 370.310499 166.915308 
L 385.749234 162.325541 
L 401.187969 118.483734 
L 416.626705 143.146507 
" style="fill:none;stroke:#1b9e77;stroke-linecap:square;stroke-opacity:0.5;stroke-width:1.5;"/>
   </g>
   <g id="line2d_109">
    <path clip-path="url(#pbff8146db9)" d="M 61.535795 142.093787 
L 76.974531 164.661252 
L 92.413266 166.036608 
L 107.852001 166.062228 
L 123.290736 147.043478 
L 138.729471 127.338806 
L 154.168207 132.213656 
L 169.606942 122.657922 
L 185.045677 155.938275 
L 200.484412 157.745119 
L 215.923147 166.770567 
L 231.361882 167.001921 
L 246.800618 167.076383 
L 262.239353 165.155897 
L 277.678088 157.355677 
L 293.116823 160.108399 
L 308.555558 166.424207 
L 323.994293 167.303621 
L 339.433029 167.32108 
L 354.871764 140.636913 
L 370.310499 158.700067 
L 385.749234 158.234146 
L 401.187969 167.322765 
L 416.626705 167.325215 
" style="fill:none;stroke:#1b9e77;stroke-linecap:square;stroke-opacity:0.5;stroke-width:1.5;"/>
   </g>
   <g id="line2d_110">
    <path clip-path="url(#pbff8146db9)" d="M 61.535795 167.116238 
L 76.974531 166.489217 
L 92.413266 165.458301 
L 107.852001 166.50085 
L 123.290736 167.071962 
L 138.729471 166.150306 
L 154.168207 163.876823 
L 169.606942 127.43837 
L 185.045677 150.788023 
L 200.484412 148.749124 
L 215.923147 115.254736 
L 231.361882 93.032567 
L 246.800618 143.01048 
L 262.239353 156.430705 
L 277.678088 161.713902 
L 293.116823 161.867085 
L 308.555558 166.771596 
L 323.994293 167.129608 
L 339.433029 167.232543 
L 354.871764 167.232572 
L 370.310499 167.271703 
L 385.749234 167.302993 
L 401.187969 167.312931 
L 416.626705 167.32535 
" style="fill:none;stroke:#1b9e77;stroke-linecap:square;stroke-opacity:0.5;stroke-width:1.5;"/>
   </g>
   <g id="line2d_111">
    <path clip-path="url(#pbff8146db9)" d="M 61.535795 114.300122 
L 76.974531 167.07111 
L 92.413266 164.896601 
L 107.852001 165.22367 
L 123.290736 164.857771 
L 138.729471 142.551981 
L 154.168207 102.054965 
L 169.606942 124.529133 
L 185.045677 153.734315 
L 200.484412 132.534597 
L 215.923147 163.990255 
L 231.361882 166.351508 
L 246.800618 166.501553 
L 262.239353 165.239834 
L 277.678088 165.298327 
L 293.116823 166.476852 
L 308.555558 166.888817 
L 323.994293 167.040505 
L 339.433029 167.093691 
L 354.871764 166.709927 
L 370.310499 165.898782 
L 385.749234 167.003804 
L 401.187969 166.497115 
L 416.626705 165.78276 
" style="fill:none;stroke:#1b9e77;stroke-linecap:square;stroke-opacity:0.5;stroke-width:1.5;"/>
   </g>
   <g id="line2d_112">
    <path clip-path="url(#pbff8146db9)" d="M 61.535795 163.335433 
L 76.974531 156.860951 
L 92.413266 158.845468 
L 107.852001 164.823715 
L 123.290736 143.646613 
L 138.729471 68.283459 
L 154.168207 142.604537 
L 169.606942 151.756752 
L 185.045677 166.763825 
L 200.484412 167.01014 
L 215.923147 167.128936 
L 231.361882 167.054105 
L 246.800618 166.928737 
L 262.239353 166.854534 
L 277.678088 166.425072 
L 293.116823 165.792995 
L 308.555558 161.770189 
L 323.994293 122.095857 
L 339.433029 158.593127 
L 354.871764 166.317079 
L 370.310499 166.514161 
L 385.749234 166.067739 
L 401.187969 165.928524 
L 416.626705 167.126037 
" style="fill:none;stroke:#1b9e77;stroke-linecap:square;stroke-opacity:0.5;stroke-width:1.5;"/>
   </g>
   <g id="line2d_113">
    <path clip-path="url(#pbff8146db9)" d="M 61.535795 167.309177 
L 76.974531 167.211438 
L 92.413266 167.214206 
L 107.852001 167.201888 
L 123.290736 167.177438 
L 138.729471 167.284272 
L 154.168207 167.285407 
L 169.606942 144.451591 
L 185.045677 99.846424 
L 200.484412 151.319215 
L 215.923147 154.235103 
L 231.361882 154.949054 
L 246.800618 159.452792 
L 262.239353 159.103527 
L 277.678088 158.786988 
L 293.116823 158.570206 
L 308.555558 112.600224 
L 323.994293 147.542764 
L 339.433029 161.48062 
L 354.871764 160.791477 
L 370.310499 166.257894 
L 385.749234 166.665578 
L 401.187969 166.477154 
L 416.626705 165.313549 
" style="fill:none;stroke:#1b9e77;stroke-linecap:square;stroke-opacity:0.5;stroke-width:1.5;"/>
   </g>
   <g id="line2d_114">
    <path clip-path="url(#pbff8146db9)" d="M 61.535795 140.038288 
L 76.974531 134.25852 
L 92.413266 139.785029 
L 107.852001 158.796044 
L 123.290736 166.911104 
L 138.729471 93.616162 
L 154.168207 93.440074 
L 169.606942 156.457459 
L 185.045677 166.335139 
L 200.484412 167.224817 
L 215.923147 166.61517 
L 231.361882 167.311546 
L 246.800618 167.311546 
L 262.239353 167.311546 
L 277.678088 167.311546 
L 293.116823 167.311546 
L 308.555558 167.311546 
L 323.994293 167.311546 
L 339.433029 167.311546 
L 354.871764 167.311546 
L 370.310499 167.311546 
L 385.749234 167.311546 
L 401.187969 167.311546 
L 416.626705 167.311546 
" style="fill:none;stroke:#d95f02;stroke-linecap:square;stroke-width:1.5;"/>
   </g>
   <g id="patch_3">
    <path d="M 43.78125 174.885961 
L 43.78125 8.565961 
" style="fill:none;stroke:#000000;stroke-linecap:square;stroke-linejoin:miter;stroke-width:0.8;"/>
   </g>
   <g id="patch_4">
    <path d="M 43.78125 174.885961 
L 434.38125 174.885961 
" style="fill:none;stroke:#000000;stroke-linecap:square;stroke-linejoin:miter;stroke-width:0.8;"/>
   </g>
   <g id="legend_1">
    <g id="patch_5">
     <path d="M 50.78125 31.244086 
L 101.948438 31.244086 
Q 103.948438 31.244086 103.948438 29.244086 
L 103.948438 15.565961 
Q 103.948438 13.565961 101.948438 13.565961 
L 50.78125 13.565961 
Q 48.78125 13.565961 48.78125 15.565961 
L 48.78125 29.244086 
Q 48.78125 31.244086 50.78125 31.244086 
z
" style="fill:#ffffff;opacity:0.8;stroke:#cccccc;stroke-linejoin:miter;"/>
    </g>
    <g id="line2d_115">
     <path d="M 52.78125 21.664399 
L 72.78125 21.664399 
" style="fill:none;stroke:#d95f02;stroke-linecap:square;stroke-width:1.5;"/>
    </g>
    <g id="line2d_116"/>
    <g id="text_16">
     <!-- real -->
     <defs>
      <path d="M 9.421875 75.984375 
L 18.40625 75.984375 
L 18.40625 0 
L 9.421875 0 
z
" id="DejaVuSans-108"/>
     </defs>
     <g transform="translate(80.78125 25.164399)scale(0.1 -0.1)">
      <use xlink:href="#DejaVuSans-114"/>
      <use x="41.082031" xlink:href="#DejaVuSans-101"/>
      <use x="102.605469" xlink:href="#DejaVuSans-97"/>
      <use x="163.884766" xlink:href="#DejaVuSans-108"/>
     </g>
    </g>
   </g>
  </g>
 </g>
 <defs>
  <clipPath id="pbff8146db9">
   <rect height="166.32" width="390.6" x="43.78125" y="8.565961"/>
  </clipPath>
 </defs>
</svg>
