<?xml version="1.0" encoding="utf-8" standalone="no"?>
<!DOCTYPE svg PUBLIC "-//W3C//DTD SVG 1.1//EN"
  "http://www.w3.org/Graphics/SVG/1.1/DTD/svg11.dtd">
<!-- Created with matplotlib (https://matplotlib.org/) -->
<svg height="211.07625pt" version="1.1" viewBox="0 0 436.087315 211.07625" width="436.087315pt" xmlns="http://www.w3.org/2000/svg" xmlns:xlink="http://www.w3.org/1999/xlink">
 <defs>
  <style type="text/css">
*{stroke-linecap:butt;stroke-linejoin:round;}
  </style>
 </defs>
 <g id="figure_1">
  <g id="patch_1">
   <path d="M 0 211.07625 
L 436.087315 211.07625 
L 436.087315 0 
L 0 0 
z
" style="fill:#ffffff;"/>
  </g>
  <g id="axes_1">
   <g id="patch_2">
    <path d="M 34.240625 173.52 
L 424.840625 173.52 
L 424.840625 7.2 
L 34.240625 7.2 
z
" style="fill:#ffffff;"/>
   </g>
   <g id="matplotlib.axis_1">
    <g id="xtick_1">
     <g id="line2d_1">
      <defs>
       <path d="M 0 0 
L 0 3.5 
" id="mea6de4d241" style="stroke:#000000;stroke-width:0.8;"/>
      </defs>
      <g>
       <use style="stroke:#000000;stroke-width:0.8;" x="36.556435" xlink:href="#mea6de4d241" y="173.52"/>
      </g>
     </g>
     <g id="text_1">
      <!-- 0 -->
      <defs>
       <path d="M 31.78125 66.40625 
Q 24.171875 66.40625 20.328125 58.90625 
Q 16.5 51.421875 16.5 36.375 
Q 16.5 21.390625 20.328125 13.890625 
Q 24.171875 6.390625 31.78125 6.390625 
Q 39.453125 6.390625 43.28125 13.890625 
Q 47.125 21.390625 47.125 36.375 
Q 47.125 51.421875 43.28125 58.90625 
Q 39.453125 66.40625 31.78125 66.40625 
z
M 31.78125 74.21875 
Q 44.046875 74.21875 50.515625 64.515625 
Q 56.984375 54.828125 56.984375 36.375 
Q 56.984375 17.96875 50.515625 8.265625 
Q 44.046875 -1.421875 31.78125 -1.421875 
Q 19.53125 -1.421875 13.0625 8.265625 
Q 6.59375 17.96875 6.59375 36.375 
Q 6.59375 54.828125 13.0625 64.515625 
Q 19.53125 74.21875 31.78125 74.21875 
z
" id="DejaVuSans-48"/>
      </defs>
      <g transform="translate(33.375185 188.118438)scale(0.1 -0.1)">
       <use xlink:href="#DejaVuSans-48"/>
      </g>
     </g>
    </g>
    <g id="xtick_2">
     <g id="line2d_2">
      <g>
       <use style="stroke:#000000;stroke-width:0.8;" x="113.750111" xlink:href="#mea6de4d241" y="173.52"/>
      </g>
     </g>
     <g id="text_2">
      <!-- 5 -->
      <defs>
       <path d="M 10.796875 72.90625 
L 49.515625 72.90625 
L 49.515625 64.59375 
L 19.828125 64.59375 
L 19.828125 46.734375 
Q 21.96875 47.46875 24.109375 47.828125 
Q 26.265625 48.1875 28.421875 48.1875 
Q 40.625 48.1875 47.75 41.5 
Q 54.890625 34.8125 54.890625 23.390625 
Q 54.890625 11.625 47.5625 5.09375 
Q 40.234375 -1.421875 26.90625 -1.421875 
Q 22.3125 -1.421875 17.546875 -0.640625 
Q 12.796875 0.140625 7.71875 1.703125 
L 7.71875 11.625 
Q 12.109375 9.234375 16.796875 8.0625 
Q 21.484375 6.890625 26.703125 6.890625 
Q 35.15625 6.890625 40.078125 11.328125 
Q 45.015625 15.765625 45.015625 23.390625 
Q 45.015625 31 40.078125 35.4375 
Q 35.15625 39.890625 26.703125 39.890625 
Q 22.75 39.890625 18.8125 39.015625 
Q 14.890625 38.140625 10.796875 36.28125 
z
" id="DejaVuSans-53"/>
      </defs>
      <g transform="translate(110.568861 188.118438)scale(0.1 -0.1)">
       <use xlink:href="#DejaVuSans-53"/>
      </g>
     </g>
    </g>
    <g id="xtick_3">
     <g id="line2d_3">
      <g>
       <use style="stroke:#000000;stroke-width:0.8;" x="190.943787" xlink:href="#mea6de4d241" y="173.52"/>
      </g>
     </g>
     <g id="text_3">
      <!-- 10 -->
      <defs>
       <path d="M 12.40625 8.296875 
L 28.515625 8.296875 
L 28.515625 63.921875 
L 10.984375 60.40625 
L 10.984375 69.390625 
L 28.421875 72.90625 
L 38.28125 72.90625 
L 38.28125 8.296875 
L 54.390625 8.296875 
L 54.390625 0 
L 12.40625 0 
z
" id="DejaVuSans-49"/>
      </defs>
      <g transform="translate(184.581287 188.118438)scale(0.1 -0.1)">
       <use xlink:href="#DejaVuSans-49"/>
       <use x="63.623047" xlink:href="#DejaVuSans-48"/>
      </g>
     </g>
    </g>
    <g id="xtick_4">
     <g id="line2d_4">
      <g>
       <use style="stroke:#000000;stroke-width:0.8;" x="268.137463" xlink:href="#mea6de4d241" y="173.52"/>
      </g>
     </g>
     <g id="text_4">
      <!-- 15 -->
      <g transform="translate(261.774963 188.118438)scale(0.1 -0.1)">
       <use xlink:href="#DejaVuSans-49"/>
       <use x="63.623047" xlink:href="#DejaVuSans-53"/>
      </g>
     </g>
    </g>
    <g id="xtick_5">
     <g id="line2d_5">
      <g>
       <use style="stroke:#000000;stroke-width:0.8;" x="345.331139" xlink:href="#mea6de4d241" y="173.52"/>
      </g>
     </g>
     <g id="text_5">
      <!-- 20 -->
      <defs>
       <path d="M 19.1875 8.296875 
L 53.609375 8.296875 
L 53.609375 0 
L 7.328125 0 
L 7.328125 8.296875 
Q 12.9375 14.109375 22.625 23.890625 
Q 32.328125 33.6875 34.8125 36.53125 
Q 39.546875 41.84375 41.421875 45.53125 
Q 43.3125 49.21875 43.3125 52.78125 
Q 43.3125 58.59375 39.234375 62.25 
Q 35.15625 65.921875 28.609375 65.921875 
Q 23.96875 65.921875 18.8125 64.3125 
Q 13.671875 62.703125 7.8125 59.421875 
L 7.8125 69.390625 
Q 13.765625 71.78125 18.9375 73 
Q 24.125 74.21875 28.421875 74.21875 
Q 39.75 74.21875 46.484375 68.546875 
Q 53.21875 62.890625 53.21875 53.421875 
Q 53.21875 48.921875 51.53125 44.890625 
Q 49.859375 40.875 45.40625 35.40625 
Q 44.1875 33.984375 37.640625 27.21875 
Q 31.109375 20.453125 19.1875 8.296875 
z
" id="DejaVuSans-50"/>
      </defs>
      <g transform="translate(338.968639 188.118438)scale(0.1 -0.1)">
       <use xlink:href="#DejaVuSans-50"/>
       <use x="63.623047" xlink:href="#DejaVuSans-48"/>
      </g>
     </g>
    </g>
    <g id="xtick_6">
     <g id="line2d_6">
      <g>
       <use style="stroke:#000000;stroke-width:0.8;" x="422.524815" xlink:href="#mea6de4d241" y="173.52"/>
      </g>
     </g>
     <g id="text_6">
      <!-- 25 -->
      <g transform="translate(416.162315 188.118438)scale(0.1 -0.1)">
       <use xlink:href="#DejaVuSans-50"/>
       <use x="63.623047" xlink:href="#DejaVuSans-53"/>
      </g>
     </g>
    </g>
    <g id="text_7">
     <!-- hour -->
     <defs>
      <path d="M 54.890625 33.015625 
L 54.890625 0 
L 45.90625 0 
L 45.90625 32.71875 
Q 45.90625 40.484375 42.875 44.328125 
Q 39.84375 48.1875 33.796875 48.1875 
Q 26.515625 48.1875 22.3125 43.546875 
Q 18.109375 38.921875 18.109375 30.90625 
L 18.109375 0 
L 9.078125 0 
L 9.078125 75.984375 
L 18.109375 75.984375 
L 18.109375 46.1875 
Q 21.34375 51.125 25.703125 53.5625 
Q 30.078125 56 35.796875 56 
Q 45.21875 56 50.046875 50.171875 
Q 54.890625 44.34375 54.890625 33.015625 
z
" id="DejaVuSans-104"/>
      <path d="M 30.609375 48.390625 
Q 23.390625 48.390625 19.1875 42.75 
Q 14.984375 37.109375 14.984375 27.296875 
Q 14.984375 17.484375 19.15625 11.84375 
Q 23.34375 6.203125 30.609375 6.203125 
Q 37.796875 6.203125 41.984375 11.859375 
Q 46.1875 17.53125 46.1875 27.296875 
Q 46.1875 37.015625 41.984375 42.703125 
Q 37.796875 48.390625 30.609375 48.390625 
z
M 30.609375 56 
Q 42.328125 56 49.015625 48.375 
Q 55.71875 40.765625 55.71875 27.296875 
Q 55.71875 13.875 49.015625 6.21875 
Q 42.328125 -1.421875 30.609375 -1.421875 
Q 18.84375 -1.421875 12.171875 6.21875 
Q 5.515625 13.875 5.515625 27.296875 
Q 5.515625 40.765625 12.171875 48.375 
Q 18.84375 56 30.609375 56 
z
" id="DejaVuSans-111"/>
      <path d="M 8.5 21.578125 
L 8.5 54.6875 
L 17.484375 54.6875 
L 17.484375 21.921875 
Q 17.484375 14.15625 20.5 10.265625 
Q 23.53125 6.390625 29.59375 6.390625 
Q 36.859375 6.390625 41.078125 11.03125 
Q 45.3125 15.671875 45.3125 23.6875 
L 45.3125 54.6875 
L 54.296875 54.6875 
L 54.296875 0 
L 45.3125 0 
L 45.3125 8.40625 
Q 42.046875 3.421875 37.71875 1 
Q 33.40625 -1.421875 27.6875 -1.421875 
Q 18.265625 -1.421875 13.375 4.4375 
Q 8.5 10.296875 8.5 21.578125 
z
M 31.109375 56 
z
" id="DejaVuSans-117"/>
      <path d="M 41.109375 46.296875 
Q 39.59375 47.171875 37.8125 47.578125 
Q 36.03125 48 33.890625 48 
Q 26.265625 48 22.1875 43.046875 
Q 18.109375 38.09375 18.109375 28.8125 
L 18.109375 0 
L 9.078125 0 
L 9.078125 54.6875 
L 18.109375 54.6875 
L 18.109375 46.1875 
Q 20.953125 51.171875 25.484375 53.578125 
Q 30.03125 56 36.53125 56 
Q 37.453125 56 38.578125 55.875 
Q 39.703125 55.765625 41.0625 55.515625 
z
" id="DejaVuSans-114"/>
     </defs>
     <g transform="translate(218.088281 201.796563)scale(0.1 -0.1)">
      <use xlink:href="#DejaVuSans-104"/>
      <use x="63.378906" xlink:href="#DejaVuSans-111"/>
      <use x="124.560547" xlink:href="#DejaVuSans-117"/>
      <use x="187.939453" xlink:href="#DejaVuSans-114"/>
     </g>
    </g>
   </g>
   <g id="matplotlib.axis_2">
    <g id="ytick_1">
     <g id="line2d_7">
      <defs>
       <path d="M 0 0 
L -3.5 0 
" id="m7dc1853c94" style="stroke:#000000;stroke-width:0.8;"/>
      </defs>
      <g>
       <use style="stroke:#000000;stroke-width:0.8;" x="34.240625" xlink:href="#m7dc1853c94" y="165.962487"/>
      </g>
     </g>
     <g id="text_8">
      <!-- 0 -->
      <g transform="translate(20.878125 169.761706)scale(0.1 -0.1)">
       <use xlink:href="#DejaVuSans-48"/>
      </g>
     </g>
    </g>
    <g id="ytick_2">
     <g id="line2d_8">
      <g>
       <use style="stroke:#000000;stroke-width:0.8;" x="34.240625" xlink:href="#m7dc1853c94" y="125.072072"/>
      </g>
     </g>
     <g id="text_9">
      <!-- 1 -->
      <g transform="translate(20.878125 128.871291)scale(0.1 -0.1)">
       <use xlink:href="#DejaVuSans-49"/>
      </g>
     </g>
    </g>
    <g id="ytick_3">
     <g id="line2d_9">
      <g>
       <use style="stroke:#000000;stroke-width:0.8;" x="34.240625" xlink:href="#m7dc1853c94" y="84.181657"/>
      </g>
     </g>
     <g id="text_10">
      <!-- 2 -->
      <g transform="translate(20.878125 87.980876)scale(0.1 -0.1)">
       <use xlink:href="#DejaVuSans-50"/>
      </g>
     </g>
    </g>
    <g id="ytick_4">
     <g id="line2d_10">
      <g>
       <use style="stroke:#000000;stroke-width:0.8;" x="34.240625" xlink:href="#m7dc1853c94" y="43.291242"/>
      </g>
     </g>
     <g id="text_11">
      <!-- 3 -->
      <defs>
       <path d="M 40.578125 39.3125 
Q 47.65625 37.796875 51.625 33 
Q 55.609375 28.21875 55.609375 21.1875 
Q 55.609375 10.40625 48.1875 4.484375 
Q 40.765625 -1.421875 27.09375 -1.421875 
Q 22.515625 -1.421875 17.65625 -0.515625 
Q 12.796875 0.390625 7.625 2.203125 
L 7.625 11.71875 
Q 11.71875 9.328125 16.59375 8.109375 
Q 21.484375 6.890625 26.8125 6.890625 
Q 36.078125 6.890625 40.9375 10.546875 
Q 45.796875 14.203125 45.796875 21.1875 
Q 45.796875 27.640625 41.28125 31.265625 
Q 36.765625 34.90625 28.71875 34.90625 
L 20.21875 34.90625 
L 20.21875 43.015625 
L 29.109375 43.015625 
Q 36.375 43.015625 40.234375 45.921875 
Q 44.09375 48.828125 44.09375 54.296875 
Q 44.09375 59.90625 40.109375 62.90625 
Q 36.140625 65.921875 28.71875 65.921875 
Q 24.65625 65.921875 20.015625 65.03125 
Q 15.375 64.15625 9.8125 62.3125 
L 9.8125 71.09375 
Q 15.4375 72.65625 20.34375 73.4375 
Q 25.25 74.21875 29.59375 74.21875 
Q 40.828125 74.21875 47.359375 69.109375 
Q 53.90625 64.015625 53.90625 55.328125 
Q 53.90625 49.265625 50.4375 45.09375 
Q 46.96875 40.921875 40.578125 39.3125 
z
" id="DejaVuSans-51"/>
      </defs>
      <g transform="translate(20.878125 47.090461)scale(0.1 -0.1)">
       <use xlink:href="#DejaVuSans-51"/>
      </g>
     </g>
    </g>
    <g id="text_12">
     <!-- precipitation [mm/hour] -->
     <defs>
      <path d="M 18.109375 8.203125 
L 18.109375 -20.796875 
L 9.078125 -20.796875 
L 9.078125 54.6875 
L 18.109375 54.6875 
L 18.109375 46.390625 
Q 20.953125 51.265625 25.265625 53.625 
Q 29.59375 56 35.59375 56 
Q 45.5625 56 51.78125 48.09375 
Q 58.015625 40.1875 58.015625 27.296875 
Q 58.015625 14.40625 51.78125 6.484375 
Q 45.5625 -1.421875 35.59375 -1.421875 
Q 29.59375 -1.421875 25.265625 0.953125 
Q 20.953125 3.328125 18.109375 8.203125 
z
M 48.6875 27.296875 
Q 48.6875 37.203125 44.609375 42.84375 
Q 40.53125 48.484375 33.40625 48.484375 
Q 26.265625 48.484375 22.1875 42.84375 
Q 18.109375 37.203125 18.109375 27.296875 
Q 18.109375 17.390625 22.1875 11.75 
Q 26.265625 6.109375 33.40625 6.109375 
Q 40.53125 6.109375 44.609375 11.75 
Q 48.6875 17.390625 48.6875 27.296875 
z
" id="DejaVuSans-112"/>
      <path d="M 56.203125 29.59375 
L 56.203125 25.203125 
L 14.890625 25.203125 
Q 15.484375 15.921875 20.484375 11.0625 
Q 25.484375 6.203125 34.421875 6.203125 
Q 39.59375 6.203125 44.453125 7.46875 
Q 49.3125 8.734375 54.109375 11.28125 
L 54.109375 2.78125 
Q 49.265625 0.734375 44.1875 -0.34375 
Q 39.109375 -1.421875 33.890625 -1.421875 
Q 20.796875 -1.421875 13.15625 6.1875 
Q 5.515625 13.8125 5.515625 26.8125 
Q 5.515625 40.234375 12.765625 48.109375 
Q 20.015625 56 32.328125 56 
Q 43.359375 56 49.78125 48.890625 
Q 56.203125 41.796875 56.203125 29.59375 
z
M 47.21875 32.234375 
Q 47.125 39.59375 43.09375 43.984375 
Q 39.0625 48.390625 32.421875 48.390625 
Q 24.90625 48.390625 20.390625 44.140625 
Q 15.875 39.890625 15.1875 32.171875 
z
" id="DejaVuSans-101"/>
      <path d="M 48.78125 52.59375 
L 48.78125 44.1875 
Q 44.96875 46.296875 41.140625 47.34375 
Q 37.3125 48.390625 33.40625 48.390625 
Q 24.65625 48.390625 19.8125 42.84375 
Q 14.984375 37.3125 14.984375 27.296875 
Q 14.984375 17.28125 19.8125 11.734375 
Q 24.65625 6.203125 33.40625 6.203125 
Q 37.3125 6.203125 41.140625 7.25 
Q 44.96875 8.296875 48.78125 10.40625 
L 48.78125 2.09375 
Q 45.015625 0.34375 40.984375 -0.53125 
Q 36.96875 -1.421875 32.421875 -1.421875 
Q 20.0625 -1.421875 12.78125 6.34375 
Q 5.515625 14.109375 5.515625 27.296875 
Q 5.515625 40.671875 12.859375 48.328125 
Q 20.21875 56 33.015625 56 
Q 37.15625 56 41.109375 55.140625 
Q 45.0625 54.296875 48.78125 52.59375 
z
" id="DejaVuSans-99"/>
      <path d="M 9.421875 54.6875 
L 18.40625 54.6875 
L 18.40625 0 
L 9.421875 0 
z
M 9.421875 75.984375 
L 18.40625 75.984375 
L 18.40625 64.59375 
L 9.421875 64.59375 
z
" id="DejaVuSans-105"/>
      <path d="M 18.3125 70.21875 
L 18.3125 54.6875 
L 36.8125 54.6875 
L 36.8125 47.703125 
L 18.3125 47.703125 
L 18.3125 18.015625 
Q 18.3125 11.328125 20.140625 9.421875 
Q 21.96875 7.515625 27.59375 7.515625 
L 36.8125 7.515625 
L 36.8125 0 
L 27.59375 0 
Q 17.1875 0 13.234375 3.875 
Q 9.28125 7.765625 9.28125 18.015625 
L 9.28125 47.703125 
L 2.6875 47.703125 
L 2.6875 54.6875 
L 9.28125 54.6875 
L 9.28125 70.21875 
z
" id="DejaVuSans-116"/>
      <path d="M 34.28125 27.484375 
Q 23.390625 27.484375 19.1875 25 
Q 14.984375 22.515625 14.984375 16.5 
Q 14.984375 11.71875 18.140625 8.90625 
Q 21.296875 6.109375 26.703125 6.109375 
Q 34.1875 6.109375 38.703125 11.40625 
Q 43.21875 16.703125 43.21875 25.484375 
L 43.21875 27.484375 
z
M 52.203125 31.203125 
L 52.203125 0 
L 43.21875 0 
L 43.21875 8.296875 
Q 40.140625 3.328125 35.546875 0.953125 
Q 30.953125 -1.421875 24.3125 -1.421875 
Q 15.921875 -1.421875 10.953125 3.296875 
Q 6 8.015625 6 15.921875 
Q 6 25.140625 12.171875 29.828125 
Q 18.359375 34.515625 30.609375 34.515625 
L 43.21875 34.515625 
L 43.21875 35.40625 
Q 43.21875 41.609375 39.140625 45 
Q 35.0625 48.390625 27.6875 48.390625 
Q 23 48.390625 18.546875 47.265625 
Q 14.109375 46.140625 10.015625 43.890625 
L 10.015625 52.203125 
Q 14.9375 54.109375 19.578125 55.046875 
Q 24.21875 56 28.609375 56 
Q 40.484375 56 46.34375 49.84375 
Q 52.203125 43.703125 52.203125 31.203125 
z
" id="DejaVuSans-97"/>
      <path d="M 54.890625 33.015625 
L 54.890625 0 
L 45.90625 0 
L 45.90625 32.71875 
Q 45.90625 40.484375 42.875 44.328125 
Q 39.84375 48.1875 33.796875 48.1875 
Q 26.515625 48.1875 22.3125 43.546875 
Q 18.109375 38.921875 18.109375 30.90625 
L 18.109375 0 
L 9.078125 0 
L 9.078125 54.6875 
L 18.109375 54.6875 
L 18.109375 46.1875 
Q 21.34375 51.125 25.703125 53.5625 
Q 30.078125 56 35.796875 56 
Q 45.21875 56 50.046875 50.171875 
Q 54.890625 44.34375 54.890625 33.015625 
z
" id="DejaVuSans-110"/>
      <path id="DejaVuSans-32"/>
      <path d="M 8.59375 75.984375 
L 29.296875 75.984375 
L 29.296875 69 
L 17.578125 69 
L 17.578125 -6.203125 
L 29.296875 -6.203125 
L 29.296875 -13.1875 
L 8.59375 -13.1875 
z
" id="DejaVuSans-91"/>
      <path d="M 52 44.1875 
Q 55.375 50.25 60.0625 53.125 
Q 64.75 56 71.09375 56 
Q 79.640625 56 84.28125 50.015625 
Q 88.921875 44.046875 88.921875 33.015625 
L 88.921875 0 
L 79.890625 0 
L 79.890625 32.71875 
Q 79.890625 40.578125 77.09375 44.375 
Q 74.3125 48.1875 68.609375 48.1875 
Q 61.625 48.1875 57.5625 43.546875 
Q 53.515625 38.921875 53.515625 30.90625 
L 53.515625 0 
L 44.484375 0 
L 44.484375 32.71875 
Q 44.484375 40.625 41.703125 44.40625 
Q 38.921875 48.1875 33.109375 48.1875 
Q 26.21875 48.1875 22.15625 43.53125 
Q 18.109375 38.875 18.109375 30.90625 
L 18.109375 0 
L 9.078125 0 
L 9.078125 54.6875 
L 18.109375 54.6875 
L 18.109375 46.1875 
Q 21.1875 51.21875 25.484375 53.609375 
Q 29.78125 56 35.6875 56 
Q 41.65625 56 45.828125 52.96875 
Q 50 49.953125 52 44.1875 
z
" id="DejaVuSans-109"/>
      <path d="M 25.390625 72.90625 
L 33.6875 72.90625 
L 8.296875 -9.28125 
L 0 -9.28125 
z
" id="DejaVuSans-47"/>
      <path d="M 30.421875 75.984375 
L 30.421875 -13.1875 
L 9.71875 -13.1875 
L 9.71875 -6.203125 
L 21.390625 -6.203125 
L 21.390625 69 
L 9.71875 69 
L 9.71875 75.984375 
z
" id="DejaVuSans-93"/>
     </defs>
     <g transform="translate(14.798438 150.335781)rotate(-90)scale(0.1 -0.1)">
      <use xlink:href="#DejaVuSans-112"/>
      <use x="63.476562" xlink:href="#DejaVuSans-114"/>
      <use x="104.558594" xlink:href="#DejaVuSans-101"/>
      <use x="166.082031" xlink:href="#DejaVuSans-99"/>
      <use x="221.0625" xlink:href="#DejaVuSans-105"/>
      <use x="248.845703" xlink:href="#DejaVuSans-112"/>
      <use x="312.322266" xlink:href="#DejaVuSans-105"/>
      <use x="340.105469" xlink:href="#DejaVuSans-116"/>
      <use x="379.314453" xlink:href="#DejaVuSans-97"/>
      <use x="440.59375" xlink:href="#DejaVuSans-116"/>
      <use x="479.802734" xlink:href="#DejaVuSans-105"/>
      <use x="507.585938" xlink:href="#DejaVuSans-111"/>
      <use x="568.767578" xlink:href="#DejaVuSans-110"/>
      <use x="632.146484" xlink:href="#DejaVuSans-32"/>
      <use x="663.933594" xlink:href="#DejaVuSans-91"/>
      <use x="702.947266" xlink:href="#DejaVuSans-109"/>
      <use x="800.359375" xlink:href="#DejaVuSans-109"/>
      <use x="897.771484" xlink:href="#DejaVuSans-47"/>
      <use x="931.462891" xlink:href="#DejaVuSans-104"/>
      <use x="994.841797" xlink:href="#DejaVuSans-111"/>
      <use x="1056.023438" xlink:href="#DejaVuSans-117"/>
      <use x="1119.402344" xlink:href="#DejaVuSans-114"/>
      <use x="1160.515625" xlink:href="#DejaVuSans-93"/>
     </g>
    </g>
   </g>
   <g id="line2d_11">
    <path clip-path="url(#p028a9cd5a9)" d="M 51.99517 165.716593 
L 67.433906 164.708715 
L 82.872641 164.990829 
L 98.311376 165.372024 
L 113.750111 165.516299 
L 129.188846 165.756985 
L 144.627582 165.857841 
L 160.066317 165.922881 
L 175.505052 165.93352 
L 190.943787 165.946202 
L 206.382522 165.940684 
L 221.821257 165.839695 
L 237.259993 164.513303 
L 252.698728 158.710284 
L 268.137463 140.781852 
L 283.576198 141.142853 
L 299.014933 147.515833 
L 314.453668 136.38657 
L 329.892404 114.006991 
L 345.331139 131.530318 
L 360.769874 160.736369 
L 376.208609 159.474771 
L 391.647344 164.018064 
L 407.08608 165.720357 
" style="fill:none;stroke:#1b9e77;stroke-linecap:square;stroke-opacity:0.5;stroke-width:1.5;"/>
   </g>
   <g id="line2d_12">
    <path clip-path="url(#p028a9cd5a9)" d="M 51.99517 164.647968 
L 67.433906 161.477172 
L 82.872641 162.406718 
L 98.311376 163.916422 
L 113.750111 164.664966 
L 129.188846 165.099492 
L 144.627582 165.286648 
L 160.066317 165.504053 
L 175.505052 165.581626 
L 190.943787 165.682779 
L 206.382522 165.739507 
L 221.821257 165.79147 
L 237.259993 165.822807 
L 252.698728 165.878561 
L 268.137463 165.870337 
L 283.576198 162.254084 
L 299.014933 152.516884 
L 314.453668 146.404917 
L 329.892404 122.589227 
L 345.331139 121.031248 
L 360.769874 138.984944 
L 376.208609 146.448756 
L 391.647344 146.274478 
L 407.08608 162.164757 
" style="fill:none;stroke:#1b9e77;stroke-linecap:square;stroke-opacity:0.5;stroke-width:1.5;"/>
   </g>
   <g id="line2d_13">
    <path clip-path="url(#p028a9cd5a9)" d="M 51.99517 165.940482 
L 67.433906 165.88477 
L 82.872641 165.919492 
L 98.311376 165.934704 
L 113.750111 165.937301 
L 129.188846 164.917439 
L 144.627582 164.352317 
L 160.066317 162.418621 
L 175.505052 163.933996 
L 190.943787 157.492663 
L 206.382522 154.974751 
L 221.821257 154.459294 
L 237.259993 124.334051 
L 252.698728 153.447735 
L 268.137463 119.329803 
L 283.576198 109.511804 
L 299.014933 164.20078 
L 314.453668 155.939434 
L 329.892404 165.754176 
L 345.331139 165.748419 
L 360.769874 165.756071 
L 376.208609 165.040198 
L 391.647344 165.321886 
L 407.08608 165.489642 
" style="fill:none;stroke:#1b9e77;stroke-linecap:square;stroke-opacity:0.5;stroke-width:1.5;"/>
   </g>
   <g id="line2d_14">
    <path clip-path="url(#p028a9cd5a9)" d="M 51.99517 165.929851 
L 67.433906 165.901337 
L 82.872641 165.917545 
L 98.311376 165.9352 
L 113.750111 165.929234 
L 129.188846 165.929962 
L 144.627582 165.470095 
L 160.066317 162.554615 
L 175.505052 164.083948 
L 190.943787 164.924362 
L 206.382522 139.861121 
L 221.821257 149.349371 
L 237.259993 150.757305 
L 252.698728 146.06447 
L 268.137463 135.682924 
L 283.576198 136.620179 
L 299.014933 164.461063 
L 314.453668 165.284521 
L 329.892404 156.581061 
L 345.331139 164.705902 
L 360.769874 136.499235 
L 376.208609 146.095289 
L 391.647344 163.134982 
L 407.08608 164.366254 
" style="fill:none;stroke:#1b9e77;stroke-linecap:square;stroke-opacity:0.5;stroke-width:1.5;"/>
   </g>
   <g id="line2d_15">
    <path clip-path="url(#p028a9cd5a9)" d="M 51.99517 165.285797 
L 67.433906 163.921965 
L 82.872641 164.19927 
L 98.311376 165.006736 
L 113.750111 165.230448 
L 129.188846 165.597646 
L 144.627582 165.773957 
L 160.066317 165.836621 
L 175.505052 165.828231 
L 190.943787 165.85837 
L 206.382522 165.88598 
L 221.821257 165.912302 
L 237.259993 165.916952 
L 252.698728 165.929428 
L 268.137463 165.830257 
L 283.576198 161.790152 
L 299.014933 120.498122 
L 314.453668 103.978271 
L 329.892404 137.781208 
L 345.331139 150.160353 
L 360.769874 142.09668 
L 376.208609 158.680847 
L 391.647344 151.455141 
L 407.08608 163.585091 
" style="fill:none;stroke:#1b9e77;stroke-linecap:square;stroke-opacity:0.5;stroke-width:1.5;"/>
   </g>
   <g id="line2d_16">
    <path clip-path="url(#p028a9cd5a9)" d="M 51.99517 107.566895 
L 67.433906 107.641568 
L 82.872641 126.568344 
L 98.311376 151.482492 
L 113.750111 157.979041 
L 129.188846 160.905623 
L 144.627582 161.764451 
L 160.066317 163.754052 
L 175.505052 164.775893 
L 190.943787 165.106821 
L 206.382522 164.993488 
L 221.821257 164.714825 
L 237.259993 164.433272 
L 252.698728 164.949084 
L 268.137463 165.298975 
L 283.576198 165.054235 
L 299.014933 164.42115 
L 314.453668 164.312162 
L 329.892404 164.728266 
L 345.331139 164.921083 
L 360.769874 164.926836 
L 376.208609 165.015741 
L 391.647344 165.200115 
L 407.08608 161.525412 
" style="fill:none;stroke:#1b9e77;stroke-linecap:square;stroke-opacity:0.5;stroke-width:1.5;"/>
   </g>
   <g id="line2d_17">
    <path clip-path="url(#p028a9cd5a9)" d="M 51.99517 165.906569 
L 67.433906 165.822454 
L 82.872641 165.681997 
L 98.311376 160.716912 
L 113.750111 133.112471 
L 129.188846 123.615342 
L 144.627582 127.89511 
L 160.066317 149.199005 
L 175.505052 161.237168 
L 190.943787 148.4563 
L 206.382522 158.323203 
L 221.821257 162.791559 
L 237.259993 165.250651 
L 252.698728 162.802565 
L 268.137463 165.567126 
L 283.576198 165.692845 
L 299.014933 165.680814 
L 314.453668 165.830442 
L 329.892404 165.745486 
L 345.331139 164.071849 
L 360.769874 160.299183 
L 376.208609 160.664327 
L 391.647344 146.324487 
L 407.08608 161.351965 
" style="fill:none;stroke:#1b9e77;stroke-linecap:square;stroke-opacity:0.5;stroke-width:1.5;"/>
   </g>
   <g id="line2d_18">
    <path clip-path="url(#p028a9cd5a9)" d="M 51.99517 165.647141 
L 67.433906 164.458584 
L 82.872641 164.887694 
L 98.311376 165.406153 
L 113.750111 165.49095 
L 129.188846 165.710913 
L 144.627582 165.833969 
L 160.066317 165.863416 
L 175.505052 165.831602 
L 190.943787 165.86883 
L 206.382522 165.907513 
L 221.821257 165.913981 
L 237.259993 165.854872 
L 252.698728 165.901961 
L 268.137463 164.676818 
L 283.576198 102.29647 
L 299.014933 152.569046 
L 314.453668 156.510878 
L 329.892404 161.764872 
L 345.331139 153.033432 
L 360.769874 72.504878 
L 376.208609 164.779659 
L 391.647344 165.581255 
L 407.08608 159.744938 
" style="fill:none;stroke:#1b9e77;stroke-linecap:square;stroke-opacity:0.5;stroke-width:1.5;"/>
   </g>
   <g id="line2d_19">
    <path clip-path="url(#p028a9cd5a9)" d="M 51.99517 165.627979 
L 67.433906 164.650531 
L 82.872641 165.060303 
L 98.311376 165.391363 
L 113.750111 165.460593 
L 129.188846 165.609834 
L 144.627582 165.703178 
L 160.066317 165.781457 
L 175.505052 165.773678 
L 190.943787 165.831932 
L 206.382522 165.877803 
L 221.821257 165.915721 
L 237.259993 165.926407 
L 252.698728 165.944931 
L 268.137463 165.845558 
L 283.576198 155.619836 
L 299.014933 157.333908 
L 314.453668 147.336048 
L 329.892404 135.04822 
L 345.331139 137.759085 
L 360.769874 118.751987 
L 376.208609 130.056254 
L 391.647344 142.781915 
L 407.08608 162.951303 
" style="fill:none;stroke:#1b9e77;stroke-linecap:square;stroke-opacity:0.5;stroke-width:1.5;"/>
   </g>
   <g id="line2d_20">
    <path clip-path="url(#p028a9cd5a9)" d="M 51.99517 160.068916 
L 67.433906 132.677633 
L 82.872641 95.840337 
L 98.311376 113.279591 
L 113.750111 156.889344 
L 129.188846 161.077283 
L 144.627582 163.55082 
L 160.066317 164.776077 
L 175.505052 164.628558 
L 190.943787 165.100041 
L 206.382522 165.39696 
L 221.821257 165.656837 
L 237.259993 165.697804 
L 252.698728 165.653818 
L 268.137463 159.44975 
L 283.576198 154.796322 
L 299.014933 161.680762 
L 314.453668 165.740618 
L 329.892404 165.849027 
L 345.331139 165.872391 
L 360.769874 165.849502 
L 376.208609 165.782559 
L 391.647344 165.421365 
L 407.08608 161.30351 
" style="fill:none;stroke:#1b9e77;stroke-linecap:square;stroke-opacity:0.5;stroke-width:1.5;"/>
   </g>
   <g id="line2d_21">
    <path clip-path="url(#p028a9cd5a9)" d="M 51.99517 155.89768 
L 67.433906 144.278496 
L 82.872641 90.486319 
L 98.311376 150.510446 
L 113.750111 161.932572 
L 129.188846 162.954921 
L 144.627582 161.16286 
L 160.066317 157.716251 
L 175.505052 128.431545 
L 190.943787 138.890132 
L 206.382522 164.673409 
L 221.821257 165.325893 
L 237.259993 165.340467 
L 252.698728 165.480522 
L 268.137463 165.762242 
L 283.576198 165.851265 
L 299.014933 165.849075 
L 314.453668 165.895067 
L 329.892404 165.927331 
L 345.331139 165.946117 
L 360.769874 165.95086 
L 376.208609 165.955719 
L 391.647344 165.953892 
L 407.08608 165.866741 
" style="fill:none;stroke:#1b9e77;stroke-linecap:square;stroke-opacity:0.5;stroke-width:1.5;"/>
   </g>
   <g id="line2d_22">
    <path clip-path="url(#p028a9cd5a9)" d="M 51.99517 165.088252 
L 67.433906 137.952594 
L 82.872641 114.995752 
L 98.311376 138.283201 
L 113.750111 148.790218 
L 129.188846 158.243464 
L 144.627582 161.723537 
L 160.066317 122.733971 
L 175.505052 148.211053 
L 190.943787 163.441195 
L 206.382522 164.916234 
L 221.821257 165.589384 
L 237.259993 165.832754 
L 252.698728 165.904071 
L 268.137463 165.907514 
L 283.576198 165.885531 
L 299.014933 165.858396 
L 314.453668 165.910674 
L 329.892404 165.923769 
L 345.331139 165.886227 
L 360.769874 165.861084 
L 376.208609 165.871002 
L 391.647344 165.303795 
L 407.08608 157.926158 
" style="fill:none;stroke:#1b9e77;stroke-linecap:square;stroke-opacity:0.5;stroke-width:1.5;"/>
   </g>
   <g id="line2d_23">
    <path clip-path="url(#p028a9cd5a9)" d="M 51.99517 165.747354 
L 67.433906 165.190591 
L 82.872641 165.269532 
L 98.311376 165.387825 
L 113.750111 165.466078 
L 129.188846 165.641681 
L 144.627582 165.72528 
L 160.066317 165.858638 
L 175.505052 165.844501 
L 190.943787 165.763653 
L 206.382522 165.887903 
L 221.821257 165.921443 
L 237.259993 165.806626 
L 252.698728 163.80049 
L 268.137463 163.918216 
L 283.576198 163.272862 
L 299.014933 162.117664 
L 314.453668 144.388141 
L 329.892404 101.042417 
L 345.331139 134.324598 
L 360.769874 136.746775 
L 376.208609 135.776612 
L 391.647344 155.17354 
L 407.08608 157.967405 
" style="fill:none;stroke:#1b9e77;stroke-linecap:square;stroke-opacity:0.5;stroke-width:1.5;"/>
   </g>
   <g id="line2d_24">
    <path clip-path="url(#p028a9cd5a9)" d="M 51.99517 164.480074 
L 67.433906 164.205641 
L 82.872641 165.313367 
L 98.311376 165.755993 
L 113.750111 165.827806 
L 129.188846 165.875993 
L 144.627582 165.855471 
L 160.066317 165.531552 
L 175.505052 159.531965 
L 190.943787 160.518217 
L 206.382522 165.502911 
L 221.821257 165.757965 
L 237.259993 165.609927 
L 252.698728 163.031297 
L 268.137463 164.140689 
L 283.576198 165.619425 
L 299.014933 165.513069 
L 314.453668 165.303222 
L 329.892404 154.956599 
L 345.331139 106.584412 
L 360.769874 118.639405 
L 376.208609 161.740561 
L 391.647344 156.896705 
L 407.08608 109.847555 
" style="fill:none;stroke:#1b9e77;stroke-linecap:square;stroke-opacity:0.5;stroke-width:1.5;"/>
   </g>
   <g id="line2d_25">
    <path clip-path="url(#p028a9cd5a9)" d="M 51.99517 163.705944 
L 67.433906 133.472352 
L 82.872641 139.357983 
L 98.311376 148.180908 
L 113.750111 160.385967 
L 129.188846 163.719495 
L 144.627582 164.898128 
L 160.066317 165.464461 
L 175.505052 165.531865 
L 190.943787 165.701991 
L 206.382522 165.54482 
L 221.821257 165.580527 
L 237.259993 127.218561 
L 252.698728 105.695095 
L 268.137463 152.139648 
L 283.576198 160.68153 
L 299.014933 165.506138 
L 314.453668 165.654264 
L 329.892404 165.86119 
L 345.331139 165.927488 
L 360.769874 165.908382 
L 376.208609 165.886845 
L 391.647344 164.540404 
L 407.08608 165.475842 
" style="fill:none;stroke:#1b9e77;stroke-linecap:square;stroke-opacity:0.5;stroke-width:1.5;"/>
   </g>
   <g id="line2d_26">
    <path clip-path="url(#p028a9cd5a9)" d="M 51.99517 164.418232 
L 67.433906 162.816667 
L 82.872641 163.152973 
L 98.311376 164.445666 
L 113.750111 164.770507 
L 129.188846 165.727013 
L 144.627582 165.816979 
L 160.066317 157.285113 
L 175.505052 147.943879 
L 190.943787 164.246878 
L 206.382522 157.867058 
L 221.821257 48.34985 
L 237.259993 129.59813 
L 252.698728 161.791012 
L 268.137463 165.285029 
L 283.576198 164.986151 
L 299.014933 164.879971 
L 314.453668 165.377599 
L 329.892404 165.637626 
L 345.331139 165.665611 
L 360.769874 165.63188 
L 376.208609 165.810315 
L 391.647344 165.889784 
L 407.08608 164.645894 
" style="fill:none;stroke:#1b9e77;stroke-linecap:square;stroke-opacity:0.5;stroke-width:1.5;"/>
   </g>
   <g id="line2d_27">
    <path clip-path="url(#p028a9cd5a9)" d="M 51.99517 165.828704 
L 67.433906 165.68258 
L 82.872641 165.771354 
L 98.311376 165.903383 
L 113.750111 165.939015 
L 129.188846 165.952538 
L 144.627582 165.951273 
L 160.066317 165.945601 
L 175.505052 165.847495 
L 190.943787 161.437836 
L 206.382522 153.874344 
L 221.821257 138.945431 
L 237.259993 139.844107 
L 252.698728 134.478682 
L 268.137463 128.949521 
L 283.576198 126.016744 
L 299.014933 143.673108 
L 314.453668 158.107045 
L 329.892404 164.991193 
L 345.331139 165.68547 
L 360.769874 165.733569 
L 376.208609 165.831377 
L 391.647344 165.867824 
L 407.08608 165.781628 
" style="fill:none;stroke:#1b9e77;stroke-linecap:square;stroke-opacity:0.5;stroke-width:1.5;"/>
   </g>
   <g id="line2d_28">
    <path clip-path="url(#p028a9cd5a9)" d="M 51.99517 165.841709 
L 67.433906 165.400386 
L 82.872641 165.343745 
L 98.311376 165.517452 
L 113.750111 165.506005 
L 129.188846 165.74489 
L 144.627582 165.869354 
L 160.066317 165.899588 
L 175.505052 165.877814 
L 190.943787 165.897045 
L 206.382522 165.89354 
L 221.821257 164.216549 
L 237.259993 150.003538 
L 252.698728 158.159423 
L 268.137463 26.243554 
L 283.576198 130.866225 
L 299.014933 162.710107 
L 314.453668 165.106795 
L 329.892404 165.845866 
L 345.331139 165.791205 
L 360.769874 165.175374 
L 376.208609 165.903691 
L 391.647344 164.895451 
L 407.08608 164.330517 
" style="fill:none;stroke:#1b9e77;stroke-linecap:square;stroke-opacity:0.5;stroke-width:1.5;"/>
   </g>
   <g id="line2d_29">
    <path clip-path="url(#p028a9cd5a9)" d="M 51.99517 165.87313 
L 67.433906 165.838285 
L 82.872641 165.798535 
L 98.311376 165.685078 
L 113.750111 152.58737 
L 129.188846 148.55813 
L 144.627582 146.318092 
L 160.066317 137.348578 
L 175.505052 122.169024 
L 190.943787 151.875571 
L 206.382522 162.935601 
L 221.821257 160.068071 
L 237.259993 126.669442 
L 252.698728 158.964531 
L 268.137463 162.342931 
L 283.576198 153.239062 
L 299.014933 165.197529 
L 314.453668 165.425468 
L 329.892404 165.61671 
L 345.331139 165.825691 
L 360.769874 165.899408 
L 376.208609 165.947325 
L 391.647344 165.952712 
L 407.08608 165.903557 
" style="fill:none;stroke:#1b9e77;stroke-linecap:square;stroke-opacity:0.5;stroke-width:1.5;"/>
   </g>
   <g id="line2d_30">
    <path clip-path="url(#p028a9cd5a9)" d="M 51.99517 165.725366 
L 67.433906 165.453205 
L 82.872641 165.558419 
L 98.311376 165.72114 
L 113.750111 165.762402 
L 129.188846 165.904155 
L 144.627582 165.941061 
L 160.066317 165.926708 
L 175.505052 165.890499 
L 190.943787 165.941126 
L 206.382522 165.848454 
L 221.821257 158.276895 
L 237.259993 152.607974 
L 252.698728 143.137577 
L 268.137463 161.62749 
L 283.576198 165.528103 
L 299.014933 157.94573 
L 314.453668 103.923598 
L 329.892404 113.088744 
L 345.331139 164.668497 
L 360.769874 164.196027 
L 376.208609 164.567044 
L 391.647344 150.216537 
L 407.08608 148.583079 
" style="fill:none;stroke:#1b9e77;stroke-linecap:square;stroke-opacity:0.5;stroke-width:1.5;"/>
   </g>
   <g id="line2d_31">
    <path clip-path="url(#p028a9cd5a9)" d="M 51.99517 165.692408 
L 67.433906 165.047889 
L 82.872641 165.282392 
L 98.311376 165.656976 
L 113.750111 165.789328 
L 129.188846 165.850272 
L 144.627582 165.858928 
L 160.066317 165.884955 
L 175.505052 165.900926 
L 190.943787 165.921586 
L 206.382522 165.925012 
L 221.821257 165.930325 
L 237.259993 165.921883 
L 252.698728 165.932293 
L 268.137463 163.155076 
L 283.576198 133.019831 
L 299.014933 121.798668 
L 314.453668 113.304938 
L 329.892404 140.722049 
L 345.331139 155.502202 
L 360.769874 153.887485 
L 376.208609 152.201803 
L 391.647344 154.448865 
L 407.08608 163.403744 
" style="fill:none;stroke:#1b9e77;stroke-linecap:square;stroke-opacity:0.5;stroke-width:1.5;"/>
   </g>
   <g id="line2d_32">
    <path clip-path="url(#p028a9cd5a9)" d="M 51.99517 165.886579 
L 67.433906 165.800875 
L 82.872641 165.856645 
L 98.311376 165.943568 
L 113.750111 165.953732 
L 129.188846 165.954012 
L 144.627582 165.84288 
L 160.066317 164.082611 
L 175.505052 163.246911 
L 190.943787 162.266223 
L 206.382522 158.819202 
L 221.821257 152.935249 
L 237.259993 14.76 
L 252.698728 141.181703 
L 268.137463 165.289543 
L 283.576198 164.719027 
L 299.014933 165.189221 
L 314.453668 164.463272 
L 329.892404 165.779966 
L 345.331139 165.931565 
L 360.769874 165.877909 
L 376.208609 165.5329 
L 391.647344 164.983459 
L 407.08608 165.742766 
" style="fill:none;stroke:#1b9e77;stroke-linecap:square;stroke-opacity:0.5;stroke-width:1.5;"/>
   </g>
   <g id="line2d_33">
    <path clip-path="url(#p028a9cd5a9)" d="M 51.99517 165.871661 
L 67.433906 165.71855 
L 82.872641 165.772699 
L 98.311376 165.865046 
L 113.750111 165.900724 
L 129.188846 165.935268 
L 144.627582 165.949734 
L 160.066317 165.957606 
L 175.505052 165.953968 
L 190.943787 165.927312 
L 206.382522 165.587652 
L 221.821257 161.382942 
L 237.259993 145.967104 
L 252.698728 147.164915 
L 268.137463 154.753155 
L 283.576198 148.386203 
L 299.014933 134.625168 
L 314.453668 125.483284 
L 329.892404 138.614826 
L 345.331139 151.93455 
L 360.769874 151.971486 
L 376.208609 158.188498 
L 391.647344 164.712231 
L 407.08608 164.415241 
" style="fill:none;stroke:#1b9e77;stroke-linecap:square;stroke-opacity:0.5;stroke-width:1.5;"/>
   </g>
   <g id="line2d_34">
    <path clip-path="url(#p028a9cd5a9)" d="M 51.99517 165.907431 
L 67.433906 165.267336 
L 82.872641 160.047486 
L 98.311376 156.462273 
L 113.750111 162.091178 
L 129.188846 164.752651 
L 144.627582 164.842008 
L 160.066317 164.327867 
L 175.505052 164.174336 
L 190.943787 164.926639 
L 206.382522 164.314577 
L 221.821257 162.935602 
L 237.259993 154.507574 
L 252.698728 144.581421 
L 268.137463 144.699438 
L 283.576198 143.834201 
L 299.014933 150.157406 
L 314.453668 138.503807 
L 329.892404 149.92087 
L 345.331139 154.864809 
L 360.769874 160.248827 
L 376.208609 145.20641 
L 391.647344 161.032035 
L 407.08608 164.433642 
" style="fill:none;stroke:#1b9e77;stroke-linecap:square;stroke-opacity:0.5;stroke-width:1.5;"/>
   </g>
   <g id="line2d_35">
    <path clip-path="url(#p028a9cd5a9)" d="M 51.99517 152.14855 
L 67.433906 154.539078 
L 82.872641 160.191771 
L 98.311376 164.756493 
L 113.750111 165.440515 
L 129.188846 165.740953 
L 144.627582 165.753388 
L 160.066317 165.525669 
L 175.505052 158.525198 
L 190.943787 99.156389 
L 206.382522 118.468856 
L 221.821257 162.054063 
L 237.259993 159.302106 
L 252.698728 156.086688 
L 268.137463 156.752364 
L 283.576198 160.086658 
L 299.014933 161.052855 
L 314.453668 160.261449 
L 329.892404 162.459502 
L 345.331139 164.696401 
L 360.769874 165.250845 
L 376.208609 165.59156 
L 391.647344 165.593219 
L 407.08608 162.605248 
" style="fill:none;stroke:#1b9e77;stroke-linecap:square;stroke-opacity:0.5;stroke-width:1.5;"/>
   </g>
   <g id="line2d_36">
    <path clip-path="url(#p028a9cd5a9)" d="M 51.99517 159.046912 
L 67.433906 161.046255 
L 82.872641 164.268586 
L 98.311376 165.262431 
L 113.750111 165.461426 
L 129.188846 165.741154 
L 144.627582 165.854612 
L 160.066317 165.876896 
L 175.505052 165.8466 
L 190.943787 165.891144 
L 206.382522 165.887708 
L 221.821257 165.32058 
L 237.259993 165.006409 
L 252.698728 165.889668 
L 268.137463 165.848715 
L 283.576198 165.175247 
L 299.014933 160.28444 
L 314.453668 160.74738 
L 329.892404 153.604839 
L 345.331139 143.639925 
L 360.769874 131.177953 
L 376.208609 101.084972 
L 391.647344 128.801789 
L 407.08608 155.274184 
" style="fill:none;stroke:#1b9e77;stroke-linecap:square;stroke-opacity:0.5;stroke-width:1.5;"/>
   </g>
   <g id="line2d_37">
    <path clip-path="url(#p028a9cd5a9)" d="M 51.99517 165.818408 
L 67.433906 165.776874 
L 82.872641 165.837665 
L 98.311376 165.929178 
L 113.750111 165.931731 
L 129.188846 165.868747 
L 144.627582 146.990696 
L 160.066317 93.531747 
L 175.505052 122.362196 
L 190.943787 145.73384 
L 206.382522 164.266785 
L 221.821257 165.288556 
L 237.259993 158.720238 
L 252.698728 164.248089 
L 268.137463 163.057395 
L 283.576198 153.22375 
L 299.014933 156.801108 
L 314.453668 156.449024 
L 329.892404 162.680387 
L 345.331139 163.457102 
L 360.769874 164.222496 
L 376.208609 164.96958 
L 391.647344 165.02401 
L 407.08608 165.850226 
" style="fill:none;stroke:#1b9e77;stroke-linecap:square;stroke-opacity:0.5;stroke-width:1.5;"/>
   </g>
   <g id="line2d_38">
    <path clip-path="url(#p028a9cd5a9)" d="M 51.99517 165.847677 
L 67.433906 165.943152 
L 82.872641 165.927758 
L 98.311376 165.899329 
L 113.750111 164.285555 
L 129.188846 164.85703 
L 144.627582 165.872113 
L 160.066317 164.678867 
L 175.505052 153.719293 
L 190.943787 153.332447 
L 206.382522 133.880783 
L 221.821257 86.757742 
L 237.259993 159.3896 
L 252.698728 161.36242 
L 268.137463 165.0836 
L 283.576198 165.333823 
L 299.014933 151.205172 
L 314.453668 164.35447 
L 329.892404 164.812273 
L 345.331139 162.764329 
L 360.769874 130.332388 
L 376.208609 165.026013 
L 391.647344 165.771321 
L 407.08608 165.60267 
" style="fill:none;stroke:#1b9e77;stroke-linecap:square;stroke-opacity:0.5;stroke-width:1.5;"/>
   </g>
   <g id="line2d_39">
    <path clip-path="url(#p028a9cd5a9)" d="M 51.99517 163.363825 
L 67.433906 161.714777 
L 82.872641 163.073441 
L 98.311376 164.620932 
L 113.750111 165.063841 
L 129.188846 165.422565 
L 144.627582 165.563571 
L 160.066317 165.732177 
L 175.505052 165.800662 
L 190.943787 165.845488 
L 206.382522 165.854192 
L 221.821257 165.821113 
L 237.259993 165.848149 
L 252.698728 165.834457 
L 268.137463 165.786381 
L 283.576198 165.779926 
L 299.014933 165.809154 
L 314.453668 165.779242 
L 329.892404 165.575196 
L 345.331139 165.218352 
L 360.769874 146.994417 
L 376.208609 113.931684 
L 391.647344 111.047842 
L 407.08608 96.558442 
" style="fill:none;stroke:#1b9e77;stroke-linecap:square;stroke-opacity:0.5;stroke-width:1.5;"/>
   </g>
   <g id="line2d_40">
    <path clip-path="url(#p028a9cd5a9)" d="M 51.99517 165.740004 
L 67.433906 163.860114 
L 82.872641 159.016277 
L 98.311376 149.650211 
L 113.750111 146.315627 
L 129.188846 156.248437 
L 144.627582 140.663386 
L 160.066317 101.518638 
L 175.505052 104.518631 
L 190.943787 163.27835 
L 206.382522 165.423598 
L 221.821257 165.80089 
L 237.259993 165.869142 
L 252.698728 165.686331 
L 268.137463 165.916124 
L 283.576198 165.880861 
L 299.014933 165.861756 
L 314.453668 165.907603 
L 329.892404 165.929367 
L 345.331139 165.903296 
L 360.769874 165.847487 
L 376.208609 165.889478 
L 391.647344 165.934498 
L 407.08608 165.379719 
" style="fill:none;stroke:#1b9e77;stroke-linecap:square;stroke-opacity:0.5;stroke-width:1.5;"/>
   </g>
   <g id="line2d_41">
    <path clip-path="url(#p028a9cd5a9)" d="M 51.99517 165.77039 
L 67.433906 165.345068 
L 82.872641 165.514004 
L 98.311376 165.781448 
L 113.750111 165.851959 
L 129.188846 165.894878 
L 144.627582 165.901862 
L 160.066317 165.937306 
L 175.505052 165.936036 
L 190.943787 165.854637 
L 206.382522 162.756825 
L 221.821257 151.8589 
L 237.259993 128.394294 
L 252.698728 134.032385 
L 268.137463 144.60729 
L 283.576198 145.796937 
L 299.014933 157.182033 
L 314.453668 162.013159 
L 329.892404 163.653084 
L 345.331139 158.460515 
L 360.769874 149.544999 
L 376.208609 146.055316 
L 391.647344 148.515127 
L 407.08608 161.381373 
" style="fill:none;stroke:#1b9e77;stroke-linecap:square;stroke-opacity:0.5;stroke-width:1.5;"/>
   </g>
   <g id="line2d_42">
    <path clip-path="url(#p028a9cd5a9)" d="M 51.99517 164.70279 
L 67.433906 165.30894 
L 82.872641 164.141842 
L 98.311376 163.489321 
L 113.750111 149.756957 
L 129.188846 160.226885 
L 144.627582 160.823751 
L 160.066317 160.44064 
L 175.505052 148.284556 
L 190.943787 147.246588 
L 206.382522 143.966603 
L 221.821257 142.336664 
L 237.259993 139.574597 
L 252.698728 159.931175 
L 268.137463 139.434693 
L 283.576198 160.385345 
L 299.014933 161.166977 
L 314.453668 157.068395 
L 329.892404 157.911264 
L 345.331139 164.88729 
L 360.769874 165.499491 
L 376.208609 164.917441 
L 391.647344 164.681627 
L 407.08608 165.855988 
" style="fill:none;stroke:#1b9e77;stroke-linecap:square;stroke-opacity:0.5;stroke-width:1.5;"/>
   </g>
   <g id="line2d_43">
    <path clip-path="url(#p028a9cd5a9)" d="M 51.99517 164.177112 
L 67.433906 148.189032 
L 82.872641 138.879864 
L 98.311376 128.671881 
L 113.750111 164.173809 
L 129.188846 165.295615 
L 144.627582 165.616151 
L 160.066317 165.781541 
L 175.505052 165.829597 
L 190.943787 165.859348 
L 206.382522 165.862762 
L 221.821257 165.920166 
L 237.259993 165.933164 
L 252.698728 165.492829 
L 268.137463 157.898904 
L 283.576198 136.479361 
L 299.014933 145.596869 
L 314.453668 151.35465 
L 329.892404 155.640514 
L 345.331139 140.749127 
L 360.769874 155.621721 
L 376.208609 163.581893 
L 391.647344 164.860197 
L 407.08608 164.573716 
" style="fill:none;stroke:#1b9e77;stroke-linecap:square;stroke-opacity:0.5;stroke-width:1.5;"/>
   </g>
   <g id="line2d_44">
    <path clip-path="url(#p028a9cd5a9)" d="M 51.99517 163.369863 
L 67.433906 164.916382 
L 82.872641 165.48758 
L 98.311376 165.536436 
L 113.750111 165.640141 
L 129.188846 165.869217 
L 144.627582 165.934701 
L 160.066317 165.940863 
L 175.505052 165.91754 
L 190.943787 165.926148 
L 206.382522 165.905755 
L 221.821257 165.617796 
L 237.259993 165.893021 
L 252.698728 165.897222 
L 268.137463 165.650196 
L 283.576198 157.459511 
L 299.014933 139.828001 
L 314.453668 139.159325 
L 329.892404 145.298847 
L 345.331139 140.83514 
L 360.769874 131.956187 
L 376.208609 133.490846 
L 391.647344 137.431576 
L 407.08608 163.07753 
" style="fill:none;stroke:#1b9e77;stroke-linecap:square;stroke-opacity:0.5;stroke-width:1.5;"/>
   </g>
   <g id="line2d_45">
    <path clip-path="url(#p028a9cd5a9)" d="M 51.99517 165.829072 
L 67.433906 165.706973 
L 82.872641 165.778662 
L 98.311376 165.910261 
L 113.750111 165.941338 
L 129.188846 165.943431 
L 144.627582 165.505795 
L 160.066317 163.006312 
L 175.505052 138.506732 
L 190.943787 130.543993 
L 206.382522 149.063399 
L 221.821257 91.266534 
L 237.259993 155.152877 
L 252.698728 146.450427 
L 268.137463 159.780583 
L 283.576198 156.878684 
L 299.014933 162.620671 
L 314.453668 164.311405 
L 329.892404 164.940695 
L 345.331139 165.608319 
L 360.769874 165.817663 
L 376.208609 165.857056 
L 391.647344 165.844613 
L 407.08608 165.774326 
" style="fill:none;stroke:#1b9e77;stroke-linecap:square;stroke-opacity:0.5;stroke-width:1.5;"/>
   </g>
   <g id="line2d_46">
    <path clip-path="url(#p028a9cd5a9)" d="M 51.99517 163.785981 
L 67.433906 163.51852 
L 82.872641 160.822196 
L 98.311376 162.482138 
L 113.750111 158.81414 
L 129.188846 152.844767 
L 144.627582 163.948466 
L 160.066317 165.774434 
L 175.505052 165.493267 
L 190.943787 165.317654 
L 206.382522 165.503395 
L 221.821257 165.527072 
L 237.259993 165.392665 
L 252.698728 165.459685 
L 268.137463 163.404808 
L 283.576198 143.914394 
L 299.014933 162.727406 
L 314.453668 152.317062 
L 329.892404 126.174997 
L 345.331139 154.823808 
L 360.769874 160.685352 
L 376.208609 149.658594 
L 391.647344 108.829488 
L 407.08608 164.819538 
" style="fill:none;stroke:#1b9e77;stroke-linecap:square;stroke-opacity:0.5;stroke-width:1.5;"/>
   </g>
   <g id="line2d_47">
    <path clip-path="url(#p028a9cd5a9)" d="M 51.99517 165.649854 
L 67.433906 165.544791 
L 82.872641 165.695282 
L 98.311376 165.881916 
L 113.750111 165.643983 
L 129.188846 164.761335 
L 144.627582 162.607421 
L 160.066317 163.537505 
L 175.505052 163.746017 
L 190.943787 116.089667 
L 206.382522 55.870012 
L 221.821257 136.410143 
L 237.259993 164.408083 
L 252.698728 162.810665 
L 268.137463 164.242998 
L 283.576198 164.913296 
L 299.014933 165.299444 
L 314.453668 165.2438 
L 329.892404 165.230323 
L 345.331139 165.526048 
L 360.769874 165.755393 
L 376.208609 165.912217 
L 391.647344 165.935546 
L 407.08608 165.324086 
" style="fill:none;stroke:#1b9e77;stroke-linecap:square;stroke-opacity:0.5;stroke-width:1.5;"/>
   </g>
   <g id="line2d_48">
    <path clip-path="url(#p028a9cd5a9)" d="M 51.99517 165.879017 
L 67.433906 165.712107 
L 82.872641 165.766673 
L 98.311376 165.884637 
L 113.750111 165.907597 
L 129.188846 165.938634 
L 144.627582 165.795782 
L 160.066317 152.771769 
L 175.505052 148.444887 
L 190.943787 141.67751 
L 206.382522 147.23222 
L 221.821257 158.483218 
L 237.259993 160.71954 
L 252.698728 161.184644 
L 268.137463 157.197323 
L 283.576198 157.865791 
L 299.014933 129.772413 
L 314.453668 143.399168 
L 329.892404 140.26614 
L 345.331139 155.989951 
L 360.769874 161.87163 
L 376.208609 163.60477 
L 391.647344 165.155708 
L 407.08608 165.518699 
" style="fill:none;stroke:#1b9e77;stroke-linecap:square;stroke-opacity:0.5;stroke-width:1.5;"/>
   </g>
   <g id="line2d_49">
    <path clip-path="url(#p028a9cd5a9)" d="M 51.99517 129.163023 
L 67.433906 111.323408 
L 82.872641 116.259296 
L 98.311376 147.782066 
L 113.750111 156.972369 
L 129.188846 161.867961 
L 144.627582 163.228455 
L 160.066317 164.74801 
L 175.505052 165.341895 
L 190.943787 165.529715 
L 206.382522 164.973869 
L 221.821257 163.895187 
L 237.259993 163.494842 
L 252.698728 161.156702 
L 268.137463 162.806157 
L 283.576198 163.418523 
L 299.014933 162.504344 
L 314.453668 161.263574 
L 329.892404 161.639615 
L 345.331139 163.663177 
L 360.769874 164.632984 
L 376.208609 165.475631 
L 391.647344 165.731802 
L 407.08608 165.16722 
" style="fill:none;stroke:#1b9e77;stroke-linecap:square;stroke-opacity:0.5;stroke-width:1.5;"/>
   </g>
   <g id="line2d_50">
    <path clip-path="url(#p028a9cd5a9)" d="M 51.99517 164.947934 
L 67.433906 163.930846 
L 82.872641 164.428735 
L 98.311376 165.435371 
L 113.750111 165.788629 
L 129.188846 165.848944 
L 144.627582 165.777479 
L 160.066317 165.849741 
L 175.505052 165.922478 
L 190.943787 165.919767 
L 206.382522 165.912842 
L 221.821257 165.790165 
L 237.259993 165.526952 
L 252.698728 165.683561 
L 268.137463 145.689791 
L 283.576198 17.435642 
L 299.014933 153.085213 
L 314.453668 164.24888 
L 329.892404 163.963001 
L 345.331139 148.646899 
L 360.769874 165.360363 
L 376.208609 165.752089 
L 391.647344 165.281248 
L 407.08608 165.81326 
" style="fill:none;stroke:#1b9e77;stroke-linecap:square;stroke-opacity:0.5;stroke-width:1.5;"/>
   </g>
   <g id="line2d_51">
    <path clip-path="url(#p028a9cd5a9)" d="M 51.99517 154.553278 
L 67.433906 140.605784 
L 82.872641 121.912264 
L 98.311376 143.613593 
L 113.750111 163.074943 
L 129.188846 164.04009 
L 144.627582 165.317013 
L 160.066317 165.647159 
L 175.505052 165.697975 
L 190.943787 165.783982 
L 206.382522 165.848859 
L 221.821257 165.867734 
L 237.259993 165.8616 
L 252.698728 165.916666 
L 268.137463 165.88856 
L 283.576198 160.58512 
L 299.014933 148.584696 
L 314.453668 153.29898 
L 329.892404 132.888902 
L 345.331139 151.277398 
L 360.769874 160.981629 
L 376.208609 158.783112 
L 391.647344 161.28812 
L 407.08608 164.722366 
" style="fill:none;stroke:#1b9e77;stroke-linecap:square;stroke-opacity:0.5;stroke-width:1.5;"/>
   </g>
   <g id="line2d_52">
    <path clip-path="url(#p028a9cd5a9)" d="M 51.99517 164.239335 
L 67.433906 160.207449 
L 82.872641 159.056788 
L 98.311376 148.868722 
L 113.750111 160.477791 
L 129.188846 158.006044 
L 144.627582 161.923127 
L 160.066317 152.276279 
L 175.505052 152.040461 
L 190.943787 163.193338 
L 206.382522 162.714461 
L 221.821257 153.508553 
L 237.259993 163.121562 
L 252.698728 162.109465 
L 268.137463 159.456832 
L 283.576198 160.447877 
L 299.014933 163.045623 
L 314.453668 164.90477 
L 329.892404 163.446946 
L 345.331139 162.742067 
L 360.769874 81.474194 
L 376.208609 163.524378 
L 391.647344 165.797452 
L 407.08608 165.456318 
" style="fill:none;stroke:#1b9e77;stroke-linecap:square;stroke-opacity:0.5;stroke-width:1.5;"/>
   </g>
   <g id="line2d_53">
    <path clip-path="url(#p028a9cd5a9)" d="M 51.99517 165.816793 
L 67.433906 165.465426 
L 82.872641 165.423412 
L 98.311376 165.55361 
L 113.750111 165.623243 
L 129.188846 165.816678 
L 144.627582 165.827233 
L 160.066317 164.382101 
L 175.505052 159.734612 
L 190.943787 157.124793 
L 206.382522 159.94012 
L 221.821257 165.796567 
L 237.259993 165.603527 
L 252.698728 165.543534 
L 268.137463 165.658598 
L 283.576198 165.632247 
L 299.014933 165.348625 
L 314.453668 165.45196 
L 329.892404 151.071854 
L 345.331139 105.512964 
L 360.769874 143.621212 
L 376.208609 127.495777 
L 391.647344 123.254706 
L 407.08608 161.340234 
" style="fill:none;stroke:#1b9e77;stroke-linecap:square;stroke-opacity:0.5;stroke-width:1.5;"/>
   </g>
   <g id="line2d_54">
    <path clip-path="url(#p028a9cd5a9)" d="M 51.99517 165.811734 
L 67.433906 165.603832 
L 82.872641 165.639951 
L 98.311376 165.773505 
L 113.750111 165.812859 
L 129.188846 165.91333 
L 144.627582 165.942168 
L 160.066317 165.904198 
L 175.505052 165.485414 
L 190.943787 165.69933 
L 206.382522 131.496798 
L 221.821257 131.032766 
L 237.259993 152.29068 
L 252.698728 138.521399 
L 268.137463 128.614089 
L 283.576198 162.275427 
L 299.014933 153.916646 
L 314.453668 136.911339 
L 329.892404 160.999366 
L 345.331139 164.243172 
L 360.769874 164.460264 
L 376.208609 165.336453 
L 391.647344 165.607658 
L 407.08608 158.747449 
" style="fill:none;stroke:#1b9e77;stroke-linecap:square;stroke-opacity:0.5;stroke-width:1.5;"/>
   </g>
   <g id="line2d_55">
    <path clip-path="url(#p028a9cd5a9)" d="M 51.99517 165.923527 
L 67.433906 165.564456 
L 82.872641 165.333916 
L 98.311376 165.299109 
L 113.750111 164.35456 
L 129.188846 159.258821 
L 144.627582 154.678672 
L 160.066317 134.941276 
L 175.505052 125.926599 
L 190.943787 128.058523 
L 206.382522 137.742661 
L 221.821257 144.646569 
L 237.259993 151.93687 
L 252.698728 157.170405 
L 268.137463 164.932878 
L 283.576198 164.700684 
L 299.014933 164.205952 
L 314.453668 163.724406 
L 329.892404 165.281816 
L 345.331139 165.721723 
L 360.769874 165.721556 
L 376.208609 165.859893 
L 391.647344 165.819115 
L 407.08608 165.235841 
" style="fill:none;stroke:#1b9e77;stroke-linecap:square;stroke-opacity:0.5;stroke-width:1.5;"/>
   </g>
   <g id="line2d_56">
    <path clip-path="url(#p028a9cd5a9)" d="M 51.99517 165.43857 
L 67.433906 161.195986 
L 82.872641 162.300692 
L 98.311376 162.868992 
L 113.750111 161.074532 
L 129.188846 164.574066 
L 144.627582 165.158481 
L 160.066317 164.426691 
L 175.505052 155.97557 
L 190.943787 149.830235 
L 206.382522 145.579901 
L 221.821257 148.460753 
L 237.259993 155.865257 
L 252.698728 158.708473 
L 268.137463 157.897345 
L 283.576198 153.325835 
L 299.014933 152.480933 
L 314.453668 151.28299 
L 329.892404 151.522331 
L 345.331139 155.476862 
L 360.769874 152.611054 
L 376.208609 153.811198 
L 391.647344 158.797608 
L 407.08608 163.375469 
" style="fill:none;stroke:#1b9e77;stroke-linecap:square;stroke-opacity:0.5;stroke-width:1.5;"/>
   </g>
   <g id="line2d_57">
    <path clip-path="url(#p028a9cd5a9)" d="M 51.99517 165.908313 
L 67.433906 165.835196 
L 82.872641 165.885145 
L 98.311376 165.934071 
L 113.750111 165.94671 
L 129.188846 165.95497 
L 144.627582 165.95575 
L 160.066317 165.956724 
L 175.505052 165.944861 
L 190.943787 165.916557 
L 206.382522 165.813773 
L 221.821257 165.404556 
L 237.259993 163.276518 
L 252.698728 152.736352 
L 268.137463 153.474966 
L 283.576198 139.128722 
L 299.014933 125.385399 
L 314.453668 125.120417 
L 329.892404 145.925786 
L 345.331139 148.192536 
L 360.769874 144.634373 
L 376.208609 156.58143 
L 391.647344 161.921175 
L 407.08608 165.205531 
" style="fill:none;stroke:#1b9e77;stroke-linecap:square;stroke-opacity:0.5;stroke-width:1.5;"/>
   </g>
   <g id="line2d_58">
    <path clip-path="url(#p028a9cd5a9)" d="M 51.99517 165.466327 
L 67.433906 164.560826 
L 82.872641 164.886206 
L 98.311376 165.471974 
L 113.750111 165.662835 
L 129.188846 165.714811 
L 144.627582 165.689642 
L 160.066317 165.740204 
L 175.505052 165.769269 
L 190.943787 165.817403 
L 206.382522 165.835428 
L 221.821257 165.867408 
L 237.259993 165.882842 
L 252.698728 165.932488 
L 268.137463 165.647955 
L 283.576198 125.200879 
L 299.014933 134.857166 
L 314.453668 120.47356 
L 329.892404 129.525007 
L 345.331139 156.089325 
L 360.769874 161.308803 
L 376.208609 149.763432 
L 391.647344 148.997863 
L 407.08608 161.878173 
" style="fill:none;stroke:#1b9e77;stroke-linecap:square;stroke-opacity:0.5;stroke-width:1.5;"/>
   </g>
   <g id="line2d_59">
    <path clip-path="url(#p028a9cd5a9)" d="M 51.99517 162.07684 
L 67.433906 164.617197 
L 82.872641 162.73414 
L 98.311376 165.448256 
L 113.750111 164.769477 
L 129.188846 165.056295 
L 144.627582 165.670724 
L 160.066317 165.791237 
L 175.505052 165.8082 
L 190.943787 165.83939 
L 206.382522 165.593964 
L 221.821257 165.298083 
L 237.259993 164.334355 
L 252.698728 165.846898 
L 268.137463 165.840234 
L 283.576198 165.118393 
L 299.014933 157.324795 
L 314.453668 137.399032 
L 329.892404 163.940181 
L 345.331139 156.863717 
L 360.769874 89.835824 
L 376.208609 136.69978 
L 391.647344 144.079982 
L 407.08608 146.052838 
" style="fill:none;stroke:#1b9e77;stroke-linecap:square;stroke-opacity:0.5;stroke-width:1.5;"/>
   </g>
   <g id="line2d_60">
    <path clip-path="url(#p028a9cd5a9)" d="M 51.99517 140.224204 
L 67.433906 94.580167 
L 82.872641 111.497428 
L 98.311376 141.960841 
L 113.750111 152.959142 
L 129.188846 161.152722 
L 144.627582 163.704887 
L 160.066317 165.234794 
L 175.505052 165.637221 
L 190.943787 165.76197 
L 206.382522 165.760377 
L 221.821257 165.724541 
L 237.259993 165.63719 
L 252.698728 165.605104 
L 268.137463 165.546797 
L 283.576198 164.877979 
L 299.014933 163.214909 
L 314.453668 162.784327 
L 329.892404 164.141361 
L 345.331139 164.714115 
L 360.769874 164.74001 
L 376.208609 165.250762 
L 391.647344 165.63799 
L 407.08608 165.690988 
" style="fill:none;stroke:#1b9e77;stroke-linecap:square;stroke-opacity:0.5;stroke-width:1.5;"/>
   </g>
   <g id="line2d_61">
    <path clip-path="url(#p028a9cd5a9)" d="M 51.99517 147.302072 
L 67.433906 137.593688 
L 82.872641 147.714995 
L 98.311376 162.558541 
L 113.750111 165.055037 
L 129.188846 165.51629 
L 144.627582 165.416587 
L 160.066317 165.182698 
L 175.505052 165.075496 
L 190.943787 165.512434 
L 206.382522 165.614227 
L 221.821257 165.363023 
L 237.259993 164.500133 
L 252.698728 164.988166 
L 268.137463 165.110489 
L 283.576198 139.269542 
L 299.014933 95.409893 
L 314.453668 144.977668 
L 329.892404 162.237447 
L 345.331139 160.855572 
L 360.769874 162.308682 
L 376.208609 164.643854 
L 391.647344 164.69142 
L 407.08608 165.141867 
" style="fill:none;stroke:#1b9e77;stroke-linecap:square;stroke-opacity:0.5;stroke-width:1.5;"/>
   </g>
   <g id="line2d_62">
    <path clip-path="url(#p028a9cd5a9)" d="M 51.99517 165.672021 
L 67.433906 165.461721 
L 82.872641 165.535018 
L 98.311376 165.712019 
L 113.750111 165.767523 
L 129.188846 165.840564 
L 144.627582 165.872234 
L 160.066317 165.893349 
L 175.505052 165.889095 
L 190.943787 165.917563 
L 206.382522 165.939535 
L 221.821257 165.938376 
L 237.259993 165.937717 
L 252.698728 165.94072 
L 268.137463 165.930655 
L 283.576198 165.472997 
L 299.014933 159.233212 
L 314.453668 155.996693 
L 329.892404 160.047028 
L 345.331139 162.852004 
L 360.769874 143.444313 
L 376.208609 54.693693 
L 391.647344 128.87481 
L 407.08608 154.176964 
" style="fill:none;stroke:#1b9e77;stroke-linecap:square;stroke-opacity:0.5;stroke-width:1.5;"/>
   </g>
   <g id="line2d_63">
    <path clip-path="url(#p028a9cd5a9)" d="M 51.99517 165.917759 
L 67.433906 165.889414 
L 82.872641 165.918768 
L 98.311376 165.940011 
L 113.750111 165.928031 
L 129.188846 165.914704 
L 144.627582 163.06265 
L 160.066317 146.48157 
L 175.505052 145.288448 
L 190.943787 135.126451 
L 206.382522 123.029966 
L 221.821257 145.834032 
L 237.259993 161.066287 
L 252.698728 163.05754 
L 268.137463 164.369708 
L 283.576198 156.574948 
L 299.014933 127.470291 
L 314.453668 164.775211 
L 329.892404 163.964706 
L 345.331139 164.334478 
L 360.769874 164.058546 
L 376.208609 162.905771 
L 391.647344 163.391111 
L 407.08608 161.73942 
" style="fill:none;stroke:#1b9e77;stroke-linecap:square;stroke-opacity:0.5;stroke-width:1.5;"/>
   </g>
   <g id="line2d_64">
    <path clip-path="url(#p028a9cd5a9)" d="M 51.99517 165.932204 
L 67.433906 165.719659 
L 82.872641 163.360393 
L 98.311376 133.248002 
L 113.750111 155.955544 
L 129.188846 159.879591 
L 144.627582 163.960678 
L 160.066317 148.107425 
L 175.505052 144.429977 
L 190.943787 124.484156 
L 206.382522 165.460732 
L 221.821257 165.584069 
L 237.259993 165.559955 
L 252.698728 165.707483 
L 268.137463 165.812293 
L 283.576198 165.897196 
L 299.014933 165.846792 
L 314.453668 165.855688 
L 329.892404 141.92798 
L 345.331139 149.757277 
L 360.769874 159.971092 
L 376.208609 148.183943 
L 391.647344 157.434135 
L 407.08608 163.963566 
" style="fill:none;stroke:#1b9e77;stroke-linecap:square;stroke-opacity:0.5;stroke-width:1.5;"/>
   </g>
   <g id="line2d_65">
    <path clip-path="url(#p028a9cd5a9)" d="M 51.99517 161.656432 
L 67.433906 164.948851 
L 82.872641 163.495349 
L 98.311376 154.62093 
L 113.750111 151.593962 
L 129.188846 160.62459 
L 144.627582 154.813658 
L 160.066317 155.205634 
L 175.505052 63.765365 
L 190.943787 130.911534 
L 206.382522 155.899752 
L 221.821257 164.976838 
L 237.259993 165.215616 
L 252.698728 165.348415 
L 268.137463 165.777335 
L 283.576198 165.823436 
L 299.014933 165.901163 
L 314.453668 165.914539 
L 329.892404 165.921941 
L 345.331139 165.940944 
L 360.769874 165.902879 
L 376.208609 165.936608 
L 391.647344 165.938707 
L 407.08608 165.905354 
" style="fill:none;stroke:#1b9e77;stroke-linecap:square;stroke-opacity:0.5;stroke-width:1.5;"/>
   </g>
   <g id="line2d_66">
    <path clip-path="url(#p028a9cd5a9)" d="M 51.99517 165.714642 
L 67.433906 165.459636 
L 82.872641 165.525346 
L 98.311376 165.695061 
L 113.750111 165.729772 
L 129.188846 165.851655 
L 144.627582 165.916616 
L 160.066317 165.94239 
L 175.505052 165.940111 
L 190.943787 165.943925 
L 206.382522 165.720246 
L 221.821257 122.549032 
L 237.259993 131.517078 
L 252.698728 128.610206 
L 268.137463 139.315777 
L 283.576198 151.999637 
L 299.014933 159.247098 
L 314.453668 163.234472 
L 329.892404 163.062923 
L 345.331139 161.430254 
L 360.769874 163.727345 
L 376.208609 147.399339 
L 391.647344 152.870132 
L 407.08608 163.637133 
" style="fill:none;stroke:#1b9e77;stroke-linecap:square;stroke-opacity:0.5;stroke-width:1.5;"/>
   </g>
   <g id="line2d_67">
    <path clip-path="url(#p028a9cd5a9)" d="M 51.99517 165.200747 
L 67.433906 162.78015 
L 82.872641 162.387638 
L 98.311376 162.400118 
L 113.750111 158.299537 
L 129.188846 162.848508 
L 144.627582 156.112312 
L 160.066317 65.291079 
L 175.505052 103.94548 
L 190.943787 162.075877 
L 206.382522 164.389124 
L 221.821257 165.613854 
L 237.259993 165.821702 
L 252.698728 165.747713 
L 268.137463 165.896974 
L 283.576198 165.913526 
L 299.014933 165.81563 
L 314.453668 165.453887 
L 329.892404 165.492174 
L 345.331139 165.393012 
L 360.769874 164.439692 
L 376.208609 164.508253 
L 391.647344 162.854947 
L 407.08608 163.357886 
" style="fill:none;stroke:#1b9e77;stroke-linecap:square;stroke-opacity:0.5;stroke-width:1.5;"/>
   </g>
   <g id="line2d_68">
    <path clip-path="url(#p028a9cd5a9)" d="M 51.99517 165.062093 
L 67.433906 165.669594 
L 82.872641 162.47296 
L 98.311376 160.677729 
L 113.750111 101.494661 
L 129.188846 96.004716 
L 144.627582 153.499928 
L 160.066317 163.913079 
L 175.505052 164.688521 
L 190.943787 164.848695 
L 206.382522 165.842189 
L 221.821257 165.876463 
L 237.259993 163.942646 
L 252.698728 136.927768 
L 268.137463 159.326059 
L 283.576198 164.405224 
L 299.014933 163.39803 
L 314.453668 162.031103 
L 329.892404 163.964661 
L 345.331139 165.038129 
L 360.769874 165.318746 
L 376.208609 165.797184 
L 391.647344 165.919235 
L 407.08608 165.920417 
" style="fill:none;stroke:#1b9e77;stroke-linecap:square;stroke-opacity:0.5;stroke-width:1.5;"/>
   </g>
   <g id="line2d_69">
    <path clip-path="url(#p028a9cd5a9)" d="M 51.99517 165.697612 
L 67.433906 165.485683 
L 82.872641 165.818764 
L 98.311376 165.818733 
L 113.750111 165.784552 
L 129.188846 165.739374 
L 144.627582 163.893949 
L 160.066317 165.392398 
L 175.505052 165.746998 
L 190.943787 165.252662 
L 206.382522 147.92824 
L 221.821257 120.576948 
L 237.259993 127.979858 
L 252.698728 159.042507 
L 268.137463 144.883076 
L 283.576198 108.43961 
L 299.014933 165.034413 
L 314.453668 164.773849 
L 329.892404 158.59392 
L 345.331139 159.680913 
L 360.769874 164.919987 
L 376.208609 165.705061 
L 391.647344 165.60785 
L 407.08608 164.242871 
" style="fill:none;stroke:#1b9e77;stroke-linecap:square;stroke-opacity:0.5;stroke-width:1.5;"/>
   </g>
   <g id="line2d_70">
    <path clip-path="url(#p028a9cd5a9)" d="M 51.99517 135.547015 
L 67.433906 108.918263 
L 82.872641 117.935481 
L 98.311376 142.824189 
L 113.750111 153.18874 
L 129.188846 157.773899 
L 144.627582 158.879171 
L 160.066317 162.014804 
L 175.505052 163.483775 
L 190.943787 164.297196 
L 206.382522 164.485618 
L 221.821257 163.666564 
L 237.259993 162.357871 
L 252.698728 164.085469 
L 268.137463 165.373514 
L 283.576198 165.496807 
L 299.014933 165.26383 
L 314.453668 165.160986 
L 329.892404 165.444778 
L 345.331139 165.694798 
L 360.769874 165.744863 
L 376.208609 165.784939 
L 391.647344 165.709787 
L 407.08608 162.907465 
" style="fill:none;stroke:#1b9e77;stroke-linecap:square;stroke-opacity:0.5;stroke-width:1.5;"/>
   </g>
   <g id="line2d_71">
    <path clip-path="url(#p028a9cd5a9)" d="M 51.99517 165.868237 
L 67.433906 165.837833 
L 82.872641 165.871663 
L 98.311376 165.651607 
L 113.750111 158.5151 
L 129.188846 147.420737 
L 144.627582 136.86019 
L 160.066317 146.549122 
L 175.505052 153.994746 
L 190.943787 139.721215 
L 206.382522 133.46485 
L 221.821257 140.563322 
L 237.259993 144.615723 
L 252.698728 149.55968 
L 268.137463 165.726566 
L 283.576198 165.539539 
L 299.014933 165.412439 
L 314.453668 165.606148 
L 329.892404 165.799797 
L 345.331139 165.854427 
L 360.769874 165.866012 
L 376.208609 165.900015 
L 391.647344 165.919643 
L 407.08608 165.921217 
" style="fill:none;stroke:#1b9e77;stroke-linecap:square;stroke-opacity:0.5;stroke-width:1.5;"/>
   </g>
   <g id="line2d_72">
    <path clip-path="url(#p028a9cd5a9)" d="M 51.99517 161.333347 
L 67.433906 158.685797 
L 82.872641 158.961598 
L 98.311376 163.233469 
L 113.750111 164.329299 
L 129.188846 165.351708 
L 144.627582 165.643995 
L 160.066317 165.731327 
L 175.505052 165.714014 
L 190.943787 165.83045 
L 206.382522 165.818738 
L 221.821257 163.743624 
L 237.259993 153.233755 
L 252.698728 163.465622 
L 268.137463 164.056089 
L 283.576198 161.266239 
L 299.014933 152.121563 
L 314.453668 150.645227 
L 329.892404 160.984453 
L 345.331139 159.019744 
L 360.769874 160.445273 
L 376.208609 165.492647 
L 391.647344 163.894528 
L 407.08608 53.037313 
" style="fill:none;stroke:#1b9e77;stroke-linecap:square;stroke-opacity:0.5;stroke-width:1.5;"/>
   </g>
   <g id="line2d_73">
    <path clip-path="url(#p028a9cd5a9)" d="M 51.99517 165.26988 
L 67.433906 161.603132 
L 82.872641 144.77335 
L 98.311376 98.138799 
L 113.750111 157.638923 
L 129.188846 165.29156 
L 144.627582 165.464633 
L 160.066317 165.73502 
L 175.505052 165.780424 
L 190.943787 165.768799 
L 206.382522 165.735134 
L 221.821257 165.839521 
L 237.259993 165.655066 
L 252.698728 165.068329 
L 268.137463 163.362705 
L 283.576198 155.275896 
L 299.014933 149.405851 
L 314.453668 152.866458 
L 329.892404 146.856314 
L 345.331139 144.185422 
L 360.769874 162.835448 
L 376.208609 162.494693 
L 391.647344 160.376606 
L 407.08608 156.617862 
" style="fill:none;stroke:#1b9e77;stroke-linecap:square;stroke-opacity:0.5;stroke-width:1.5;"/>
   </g>
   <g id="line2d_74">
    <path clip-path="url(#p028a9cd5a9)" d="M 51.99517 165.089329 
L 67.433906 165.045908 
L 82.872641 165.418813 
L 98.311376 165.827718 
L 113.750111 165.899921 
L 129.188846 165.903299 
L 144.627582 165.882422 
L 160.066317 165.911628 
L 175.505052 165.933561 
L 190.943787 165.944325 
L 206.382522 165.943062 
L 221.821257 165.920133 
L 237.259993 165.818932 
L 252.698728 165.714311 
L 268.137463 164.126794 
L 283.576198 150.259485 
L 299.014933 143.500682 
L 314.453668 131.471404 
L 329.892404 142.942016 
L 345.331139 163.21083 
L 360.769874 163.10167 
L 376.208609 104.026597 
L 391.647344 143.270446 
L 407.08608 145.876539 
" style="fill:none;stroke:#1b9e77;stroke-linecap:square;stroke-opacity:0.5;stroke-width:1.5;"/>
   </g>
   <g id="line2d_75">
    <path clip-path="url(#p028a9cd5a9)" d="M 51.99517 164.434588 
L 67.433906 164.69468 
L 82.872641 158.618003 
L 98.311376 164.032086 
L 113.750111 152.549889 
L 129.188846 156.501459 
L 144.627582 157.210183 
L 160.066317 165.169574 
L 175.505052 165.819426 
L 190.943787 165.884937 
L 206.382522 165.90018 
L 221.821257 165.874052 
L 237.259993 165.778686 
L 252.698728 165.888682 
L 268.137463 165.912481 
L 283.576198 165.718244 
L 299.014933 163.10222 
L 314.453668 90.824376 
L 329.892404 101.156686 
L 345.331139 152.050014 
L 360.769874 162.084155 
L 376.208609 163.50095 
L 391.647344 163.714647 
L 407.08608 165.619628 
" style="fill:none;stroke:#1b9e77;stroke-linecap:square;stroke-opacity:0.5;stroke-width:1.5;"/>
   </g>
   <g id="line2d_76">
    <path clip-path="url(#p028a9cd5a9)" d="M 51.99517 165.933149 
L 67.433906 165.952257 
L 82.872641 165.761385 
L 98.311376 165.825931 
L 113.750111 159.425324 
L 129.188846 153.916663 
L 144.627582 162.544678 
L 160.066317 161.800494 
L 175.505052 150.699364 
L 190.943787 119.82947 
L 206.382522 163.645821 
L 221.821257 163.075113 
L 237.259993 125.662647 
L 252.698728 138.34228 
L 268.137463 142.801735 
L 283.576198 165.401751 
L 299.014933 165.887961 
L 314.453668 164.339215 
L 329.892404 164.34783 
L 345.331139 163.129732 
L 360.769874 163.945646 
L 376.208609 150.153421 
L 391.647344 163.814164 
L 407.08608 165.803794 
" style="fill:none;stroke:#1b9e77;stroke-linecap:square;stroke-opacity:0.5;stroke-width:1.5;"/>
   </g>
   <g id="line2d_77">
    <path clip-path="url(#p028a9cd5a9)" d="M 51.99517 165.782496 
L 67.433906 165.176137 
L 82.872641 165.391182 
L 98.311376 165.675602 
L 113.750111 165.762947 
L 129.188846 165.865024 
L 144.627582 165.880648 
L 160.066317 165.93142 
L 175.505052 165.716188 
L 190.943787 162.692389 
L 206.382522 158.78175 
L 221.821257 160.433656 
L 237.259993 163.911193 
L 252.698728 136.866678 
L 268.137463 155.599982 
L 283.576198 154.829712 
L 299.014933 136.878026 
L 314.453668 151.422102 
L 329.892404 134.17874 
L 345.331139 143.69753 
L 360.769874 156.985655 
L 376.208609 150.726284 
L 391.647344 149.626465 
L 407.08608 164.228024 
" style="fill:none;stroke:#1b9e77;stroke-linecap:square;stroke-opacity:0.5;stroke-width:1.5;"/>
   </g>
   <g id="line2d_78">
    <path clip-path="url(#p028a9cd5a9)" d="M 51.99517 165.627529 
L 67.433906 165.745174 
L 82.872641 165.828555 
L 98.311376 165.200934 
L 113.750111 149.516324 
L 129.188846 109.185289 
L 144.627582 162.997703 
L 160.066317 158.029521 
L 175.505052 157.13765 
L 190.943787 163.460693 
L 206.382522 161.836426 
L 221.821257 125.337887 
L 237.259993 151.670583 
L 252.698728 143.74413 
L 268.137463 148.132807 
L 283.576198 160.875982 
L 299.014933 162.824501 
L 314.453668 162.772636 
L 329.892404 163.817979 
L 345.331139 165.859162 
L 360.769874 165.789703 
L 376.208609 165.276878 
L 391.647344 165.539663 
L 407.08608 165.832114 
" style="fill:none;stroke:#1b9e77;stroke-linecap:square;stroke-opacity:0.5;stroke-width:1.5;"/>
   </g>
   <g id="line2d_79">
    <path clip-path="url(#p028a9cd5a9)" d="M 51.99517 158.345006 
L 67.433906 143.8392 
L 82.872641 130.956282 
L 98.311376 126.941347 
L 113.750111 134.634491 
L 129.188846 129.233438 
L 144.627582 132.246777 
L 160.066317 165.426795 
L 175.505052 165.139421 
L 190.943787 165.062724 
L 206.382522 164.50007 
L 221.821257 165.347885 
L 237.259993 165.784717 
L 252.698728 165.808033 
L 268.137463 165.809209 
L 283.576198 165.833443 
L 299.014933 165.848484 
L 314.453668 165.861168 
L 329.892404 165.866106 
L 345.331139 165.890399 
L 360.769874 165.906606 
L 376.208609 165.948284 
L 391.647344 165.955359 
L 407.08608 165.854579 
" style="fill:none;stroke:#1b9e77;stroke-linecap:square;stroke-opacity:0.5;stroke-width:1.5;"/>
   </g>
   <g id="line2d_80">
    <path clip-path="url(#p028a9cd5a9)" d="M 51.99517 165.952687 
L 67.433906 165.938854 
L 82.872641 165.903952 
L 98.311376 165.806469 
L 113.750111 162.283494 
L 129.188846 152.275135 
L 144.627582 160.895543 
L 160.066317 157.982012 
L 175.505052 139.809264 
L 190.943787 124.083559 
L 206.382522 143.953793 
L 221.821257 121.539051 
L 237.259993 164.942374 
L 252.698728 165.012118 
L 268.137463 165.353305 
L 283.576198 165.423081 
L 299.014933 164.08281 
L 314.453668 163.214081 
L 329.892404 159.707392 
L 345.331139 156.760717 
L 360.769874 157.851953 
L 376.208609 158.925715 
L 391.647344 159.335529 
L 407.08608 165.006938 
" style="fill:none;stroke:#1b9e77;stroke-linecap:square;stroke-opacity:0.5;stroke-width:1.5;"/>
   </g>
   <g id="line2d_81">
    <path clip-path="url(#p028a9cd5a9)" d="M 51.99517 133.946063 
L 67.433906 129.800022 
L 82.872641 135.186079 
L 98.311376 153.405111 
L 113.750111 157.302625 
L 129.188846 164.350049 
L 144.627582 165.376208 
L 160.066317 163.278928 
L 175.505052 154.63547 
L 190.943787 163.670689 
L 206.382522 163.893409 
L 221.821257 163.434007 
L 237.259993 164.733633 
L 252.698728 162.058037 
L 268.137463 156.26648 
L 283.576198 154.921369 
L 299.014933 157.043525 
L 314.453668 159.931219 
L 329.892404 161.274824 
L 345.331139 162.477564 
L 360.769874 163.458602 
L 376.208609 165.505643 
L 391.647344 165.782255 
L 407.08608 150.308016 
" style="fill:none;stroke:#1b9e77;stroke-linecap:square;stroke-opacity:0.5;stroke-width:1.5;"/>
   </g>
   <g id="line2d_82">
    <path clip-path="url(#p028a9cd5a9)" d="M 51.99517 165.890786 
L 67.433906 165.524163 
L 82.872641 165.437959 
L 98.311376 165.554393 
L 113.750111 165.486491 
L 129.188846 165.786632 
L 144.627582 165.884085 
L 160.066317 165.417648 
L 175.505052 161.905073 
L 190.943787 151.318401 
L 206.382522 90.627105 
L 221.821257 115.696123 
L 237.259993 121.988072 
L 252.698728 150.492506 
L 268.137463 165.356536 
L 283.576198 164.979732 
L 299.014933 165.05317 
L 314.453668 165.176737 
L 329.892404 165.434309 
L 345.331139 165.641853 
L 360.769874 165.701347 
L 376.208609 165.862444 
L 391.647344 165.919653 
L 407.08608 165.90461 
" style="fill:none;stroke:#1b9e77;stroke-linecap:square;stroke-opacity:0.5;stroke-width:1.5;"/>
   </g>
   <g id="line2d_83">
    <path clip-path="url(#p028a9cd5a9)" d="M 51.99517 129.736471 
L 67.433906 76.870768 
L 82.872641 121.481035 
L 98.311376 145.543078 
L 113.750111 156.427659 
L 129.188846 161.378229 
L 144.627582 163.748887 
L 160.066317 164.769909 
L 175.505052 165.025224 
L 190.943787 165.438095 
L 206.382522 165.641707 
L 221.821257 165.777424 
L 237.259993 165.820266 
L 252.698728 165.894969 
L 268.137463 165.920115 
L 283.576198 165.920875 
L 299.014933 165.90659 
L 314.453668 165.901078 
L 329.892404 165.904848 
L 345.331139 165.88699 
L 360.769874 165.840526 
L 376.208609 165.878269 
L 391.647344 165.916997 
L 407.08608 165.409822 
" style="fill:none;stroke:#1b9e77;stroke-linecap:square;stroke-opacity:0.5;stroke-width:1.5;"/>
   </g>
   <g id="line2d_84">
    <path clip-path="url(#p028a9cd5a9)" d="M 51.99517 162.503373 
L 67.433906 165.055032 
L 82.872641 165.18302 
L 98.311376 165.407902 
L 113.750111 165.482523 
L 129.188846 165.611154 
L 144.627582 165.7235 
L 160.066317 165.764533 
L 175.505052 163.619083 
L 190.943787 142.220331 
L 206.382522 151.974499 
L 221.821257 140.941005 
L 237.259993 126.267786 
L 252.698728 127.73049 
L 268.137463 126.882487 
L 283.576198 147.174214 
L 299.014933 164.663488 
L 314.453668 165.033008 
L 329.892404 165.541891 
L 345.331139 165.768651 
L 360.769874 165.826443 
L 376.208609 165.902014 
L 391.647344 165.90416 
L 407.08608 165.859243 
" style="fill:none;stroke:#1b9e77;stroke-linecap:square;stroke-opacity:0.5;stroke-width:1.5;"/>
   </g>
   <g id="line2d_85">
    <path clip-path="url(#p028a9cd5a9)" d="M 51.99517 165.684377 
L 67.433906 165.413645 
L 82.872641 165.679708 
L 98.311376 165.883053 
L 113.750111 165.922039 
L 129.188846 165.933766 
L 144.627582 165.929417 
L 160.066317 165.925288 
L 175.505052 165.921566 
L 190.943787 165.924271 
L 206.382522 165.923281 
L 221.821257 165.915828 
L 237.259993 165.90342 
L 252.698728 165.91895 
L 268.137463 165.900841 
L 283.576198 161.8567 
L 299.014933 132.489235 
L 314.453668 115.329715 
L 329.892404 127.584203 
L 345.331139 151.840412 
L 360.769874 161.145885 
L 376.208609 152.048506 
L 391.647344 117.212878 
L 407.08608 164.752838 
" style="fill:none;stroke:#1b9e77;stroke-linecap:square;stroke-opacity:0.5;stroke-width:1.5;"/>
   </g>
   <g id="line2d_86">
    <path clip-path="url(#p028a9cd5a9)" d="M 51.99517 147.161822 
L 67.433906 88.720964 
L 82.872641 129.358021 
L 98.311376 143.515637 
L 113.750111 151.1212 
L 129.188846 157.547922 
L 144.627582 161.34938 
L 160.066317 163.301284 
L 175.505052 163.589981 
L 190.943787 164.508419 
L 206.382522 165.019846 
L 221.821257 165.30672 
L 237.259993 165.424314 
L 252.698728 165.748872 
L 268.137463 165.855321 
L 283.576198 165.804508 
L 299.014933 164.347583 
L 314.453668 162.672313 
L 329.892404 160.694408 
L 345.331139 165.17024 
L 360.769874 164.805727 
L 376.208609 163.495739 
L 391.647344 162.234719 
L 407.08608 165.28489 
" style="fill:none;stroke:#1b9e77;stroke-linecap:square;stroke-opacity:0.5;stroke-width:1.5;"/>
   </g>
   <g id="line2d_87">
    <path clip-path="url(#p028a9cd5a9)" d="M 51.99517 154.567968 
L 67.433906 144.522507 
L 82.872641 138.25974 
L 98.311376 147.380125 
L 113.750111 150.328814 
L 129.188846 158.80185 
L 144.627582 163.10966 
L 160.066317 163.945603 
L 175.505052 163.123692 
L 190.943787 163.754598 
L 206.382522 164.808511 
L 221.821257 165.191193 
L 237.259993 165.218139 
L 252.698728 165.122525 
L 268.137463 165.054036 
L 283.576198 165.319405 
L 299.014933 165.513905 
L 314.453668 165.606625 
L 329.892404 165.586474 
L 345.331139 165.719149 
L 360.769874 165.749262 
L 376.208609 165.807908 
L 391.647344 164.729381 
L 407.08608 74.818762 
" style="fill:none;stroke:#1b9e77;stroke-linecap:square;stroke-opacity:0.5;stroke-width:1.5;"/>
   </g>
   <g id="line2d_88">
    <path clip-path="url(#p028a9cd5a9)" d="M 51.99517 165.2374 
L 67.433906 164.297879 
L 82.872641 159.919666 
L 98.311376 155.199938 
L 113.750111 161.877815 
L 129.188846 160.905686 
L 144.627582 149.479355 
L 160.066317 149.834431 
L 175.505052 146.042233 
L 190.943787 153.759641 
L 206.382522 130.067248 
L 221.821257 144.271777 
L 237.259993 162.57257 
L 252.698728 160.634593 
L 268.137463 156.729248 
L 283.576198 163.121462 
L 299.014933 161.058769 
L 314.453668 137.588565 
L 329.892404 160.756355 
L 345.331139 165.732861 
L 360.769874 165.566255 
L 376.208609 165.708006 
L 391.647344 165.79404 
L 407.08608 165.884029 
" style="fill:none;stroke:#1b9e77;stroke-linecap:square;stroke-opacity:0.5;stroke-width:1.5;"/>
   </g>
   <g id="line2d_89">
    <path clip-path="url(#p028a9cd5a9)" d="M 51.99517 164.258402 
L 67.433906 163.786517 
L 82.872641 158.630582 
L 98.311376 161.306077 
L 113.750111 163.609257 
L 129.188846 162.62955 
L 144.627582 158.443697 
L 160.066317 155.041262 
L 175.505052 79.882411 
L 190.943787 158.816764 
L 206.382522 163.556361 
L 221.821257 153.721662 
L 237.259993 154.060237 
L 252.698728 146.577252 
L 268.137463 156.10073 
L 283.576198 160.322268 
L 299.014933 159.659826 
L 314.453668 158.111676 
L 329.892404 164.708951 
L 345.331139 165.702418 
L 360.769874 165.667369 
L 376.208609 165.725997 
L 391.647344 165.772107 
L 407.08608 165.948452 
" style="fill:none;stroke:#1b9e77;stroke-linecap:square;stroke-opacity:0.5;stroke-width:1.5;"/>
   </g>
   <g id="line2d_90">
    <path clip-path="url(#p028a9cd5a9)" d="M 51.99517 165.781716 
L 67.433906 165.433418 
L 82.872641 165.676533 
L 98.311376 165.866069 
L 113.750111 165.925447 
L 129.188846 165.91568 
L 144.627582 165.856333 
L 160.066317 165.881087 
L 175.505052 165.915044 
L 190.943787 165.923578 
L 206.382522 165.91179 
L 221.821257 165.89843 
L 237.259993 165.835522 
L 252.698728 163.470378 
L 268.137463 154.642856 
L 283.576198 150.681277 
L 299.014933 98.910377 
L 314.453668 142.253615 
L 329.892404 125.263967 
L 345.331139 131.063171 
L 360.769874 153.44509 
L 376.208609 165.254038 
L 391.647344 165.367254 
L 407.08608 165.867159 
" style="fill:none;stroke:#1b9e77;stroke-linecap:square;stroke-opacity:0.5;stroke-width:1.5;"/>
   </g>
   <g id="line2d_91">
    <path clip-path="url(#p028a9cd5a9)" d="M 51.99517 165.755241 
L 67.433906 165.602851 
L 82.872641 165.708231 
L 98.311376 165.830379 
L 113.750111 165.850321 
L 129.188846 165.905296 
L 144.627582 165.88537 
L 160.066317 165.276036 
L 175.505052 164.80313 
L 190.943787 165.37386 
L 206.382522 160.543535 
L 221.821257 147.962614 
L 237.259993 156.202749 
L 252.698728 163.629062 
L 268.137463 165.78654 
L 283.576198 165.74651 
L 299.014933 165.853273 
L 314.453668 163.081399 
L 329.892404 147.445764 
L 345.331139 162.807298 
L 360.769874 151.340297 
L 376.208609 152.284511 
L 391.647344 77.768547 
L 407.08608 135.597013 
" style="fill:none;stroke:#1b9e77;stroke-linecap:square;stroke-opacity:0.5;stroke-width:1.5;"/>
   </g>
   <g id="line2d_92">
    <path clip-path="url(#p028a9cd5a9)" d="M 51.99517 165.239523 
L 67.433906 163.400427 
L 82.872641 162.607246 
L 98.311376 164.526334 
L 113.750111 165.115725 
L 129.188846 164.316598 
L 144.627582 163.924042 
L 160.066317 165.645807 
L 175.505052 164.39522 
L 190.943787 164.750654 
L 206.382522 164.605927 
L 221.821257 161.915485 
L 237.259993 164.345759 
L 252.698728 163.406636 
L 268.137463 163.645201 
L 283.576198 165.017454 
L 299.014933 164.938794 
L 314.453668 164.391963 
L 329.892404 163.675066 
L 345.331139 164.797455 
L 360.769874 165.133887 
L 376.208609 123.535098 
L 391.647344 65.777615 
L 407.08608 132.931912 
" style="fill:none;stroke:#1b9e77;stroke-linecap:square;stroke-opacity:0.5;stroke-width:1.5;"/>
   </g>
   <g id="line2d_93">
    <path clip-path="url(#p028a9cd5a9)" d="M 51.99517 165.864625 
L 67.433906 165.877183 
L 82.872641 165.217634 
L 98.311376 164.914305 
L 113.750111 156.24786 
L 129.188846 149.17179 
L 144.627582 165.356624 
L 160.066317 164.928193 
L 175.505052 158.629437 
L 190.943787 148.376044 
L 206.382522 146.832858 
L 221.821257 165.031423 
L 237.259993 165.824561 
L 252.698728 164.976998 
L 268.137463 154.46779 
L 283.576198 154.924111 
L 299.014933 106.444972 
L 314.453668 159.804128 
L 329.892404 165.449597 
L 345.331139 161.097395 
L 360.769874 148.630548 
L 376.208609 153.294544 
L 391.647344 157.365548 
L 407.08608 163.31166 
" style="fill:none;stroke:#1b9e77;stroke-linecap:square;stroke-opacity:0.5;stroke-width:1.5;"/>
   </g>
   <g id="line2d_94">
    <path clip-path="url(#p028a9cd5a9)" d="M 51.99517 165.951703 
L 67.433906 165.897009 
L 82.872641 165.866505 
L 98.311376 165.851548 
L 113.750111 165.670865 
L 129.188846 163.830098 
L 144.627582 162.85427 
L 160.066317 154.209433 
L 175.505052 161.722419 
L 190.943787 163.020802 
L 206.382522 150.782664 
L 221.821257 158.774972 
L 237.259993 161.676892 
L 252.698728 145.68936 
L 268.137463 94.099486 
L 283.576198 134.966031 
L 299.014933 165.646719 
L 314.453668 165.820756 
L 329.892404 163.557095 
L 345.331139 165.619775 
L 360.769874 164.546034 
L 376.208609 145.431217 
L 391.647344 158.761161 
L 407.08608 161.793009 
" style="fill:none;stroke:#1b9e77;stroke-linecap:square;stroke-opacity:0.5;stroke-width:1.5;"/>
   </g>
   <g id="line2d_95">
    <path clip-path="url(#p028a9cd5a9)" d="M 51.99517 165.833617 
L 67.433906 165.758782 
L 82.872641 165.611148 
L 98.311376 149.772745 
L 113.750111 146.077008 
L 129.188846 130.244271 
L 144.627582 99.534963 
L 160.066317 139.45669 
L 175.505052 157.3954 
L 190.943787 161.655683 
L 206.382522 164.560685 
L 221.821257 158.893119 
L 237.259993 163.425031 
L 252.698728 149.599582 
L 268.137463 164.080301 
L 283.576198 164.842859 
L 299.014933 165.07136 
L 314.453668 165.356208 
L 329.892404 165.59002 
L 345.331139 165.794944 
L 360.769874 165.871966 
L 376.208609 165.939289 
L 391.647344 165.949358 
L 407.08608 165.724797 
" style="fill:none;stroke:#1b9e77;stroke-linecap:square;stroke-opacity:0.5;stroke-width:1.5;"/>
   </g>
   <g id="line2d_96">
    <path clip-path="url(#p028a9cd5a9)" d="M 51.99517 165.428398 
L 67.433906 165.886648 
L 82.872641 165.942098 
L 98.311376 165.883662 
L 113.750111 164.542151 
L 129.188846 158.015177 
L 144.627582 163.851637 
L 160.066317 164.933157 
L 175.505052 164.497319 
L 190.943787 163.860587 
L 206.382522 163.074114 
L 221.821257 162.49742 
L 237.259993 129.800566 
L 252.698728 141.720625 
L 268.137463 52.86417 
L 283.576198 159.800634 
L 299.014933 165.121098 
L 314.453668 165.091892 
L 329.892404 165.666564 
L 345.331139 165.925313 
L 360.769874 165.703069 
L 376.208609 164.34657 
L 391.647344 161.898674 
L 407.08608 165.688276 
" style="fill:none;stroke:#1b9e77;stroke-linecap:square;stroke-opacity:0.5;stroke-width:1.5;"/>
   </g>
   <g id="line2d_97">
    <path clip-path="url(#p028a9cd5a9)" d="M 51.99517 165.126049 
L 67.433906 161.77293 
L 82.872641 138.897717 
L 98.311376 152.912429 
L 113.750111 138.303433 
L 129.188846 161.956244 
L 144.627582 164.009804 
L 160.066317 163.948788 
L 175.505052 140.041512 
L 190.943787 95.258764 
L 206.382522 155.814546 
L 221.821257 164.017309 
L 237.259993 163.345627 
L 252.698728 158.140498 
L 268.137463 157.6097 
L 283.576198 163.955669 
L 299.014933 165.671733 
L 314.453668 165.687624 
L 329.892404 165.874784 
L 345.331139 165.929161 
L 360.769874 165.939646 
L 376.208609 165.952618 
L 391.647344 165.952607 
L 407.08608 165.920633 
" style="fill:none;stroke:#1b9e77;stroke-linecap:square;stroke-opacity:0.5;stroke-width:1.5;"/>
   </g>
   <g id="line2d_98">
    <path clip-path="url(#p028a9cd5a9)" d="M 51.99517 150.894657 
L 67.433906 129.339176 
L 82.872641 137.641049 
L 98.311376 150.452832 
L 113.750111 156.656496 
L 129.188846 158.770461 
L 144.627582 160.389807 
L 160.066317 163.872641 
L 175.505052 165.236829 
L 190.943787 165.444962 
L 206.382522 165.293312 
L 221.821257 165.447849 
L 237.259993 165.712408 
L 252.698728 165.857186 
L 268.137463 165.887236 
L 283.576198 165.83005 
L 299.014933 165.608791 
L 314.453668 165.659465 
L 329.892404 165.654081 
L 345.331139 165.005671 
L 360.769874 165.179007 
L 376.208609 164.645585 
L 391.647344 163.510561 
L 407.08608 84.049714 
" style="fill:none;stroke:#1b9e77;stroke-linecap:square;stroke-opacity:0.5;stroke-width:1.5;"/>
   </g>
   <g id="line2d_99">
    <path clip-path="url(#p028a9cd5a9)" d="M 51.99517 165.847387 
L 67.433906 165.838438 
L 82.872641 165.821852 
L 98.311376 165.921295 
L 113.750111 165.937249 
L 129.188846 165.918239 
L 144.627582 165.610964 
L 160.066317 163.907111 
L 175.505052 160.087135 
L 190.943787 160.315593 
L 206.382522 163.633454 
L 221.821257 163.229942 
L 237.259993 158.494965 
L 252.698728 153.593497 
L 268.137463 158.38445 
L 283.576198 137.362246 
L 299.014933 145.662463 
L 314.453668 150.895271 
L 329.892404 151.210262 
L 345.331139 141.796068 
L 360.769874 114.729263 
L 376.208609 158.922217 
L 391.647344 163.966874 
L 407.08608 164.953591 
" style="fill:none;stroke:#1b9e77;stroke-linecap:square;stroke-opacity:0.5;stroke-width:1.5;"/>
   </g>
   <g id="line2d_100">
    <path clip-path="url(#p028a9cd5a9)" d="M 51.99517 165.705404 
L 67.433906 165.888472 
L 82.872641 165.925581 
L 98.311376 165.775381 
L 113.750111 157.781974 
L 129.188846 156.667364 
L 144.627582 163.848341 
L 160.066317 162.83883 
L 175.505052 144.546921 
L 190.943787 132.270901 
L 206.382522 125.917927 
L 221.821257 144.590278 
L 237.259993 160.016707 
L 252.698728 144.026508 
L 268.137463 148.341887 
L 283.576198 150.501544 
L 299.014933 161.652996 
L 314.453668 164.169937 
L 329.892404 165.259745 
L 345.331139 165.735101 
L 360.769874 165.232586 
L 376.208609 164.478149 
L 391.647344 165.138926 
L 407.08608 165.728365 
" style="fill:none;stroke:#1b9e77;stroke-linecap:square;stroke-opacity:0.5;stroke-width:1.5;"/>
   </g>
   <g id="line2d_101">
    <path clip-path="url(#p028a9cd5a9)" d="M 51.99517 161.720103 
L 67.433906 159.631643 
L 82.872641 154.150968 
L 98.311376 154.79517 
L 113.750111 150.607455 
L 129.188846 157.235843 
L 144.627582 155.476842 
L 160.066317 157.545141 
L 175.505052 164.981943 
L 190.943787 163.072807 
L 206.382522 164.70476 
L 221.821257 164.232903 
L 237.259993 140.191292 
L 252.698728 164.420285 
L 268.137463 165.896536 
L 283.576198 165.291431 
L 299.014933 124.064412 
L 314.453668 127.611249 
L 329.892404 150.932209 
L 345.331139 163.225311 
L 360.769874 164.951734 
L 376.208609 165.687638 
L 391.647344 165.693635 
L 407.08608 165.918515 
" style="fill:none;stroke:#1b9e77;stroke-linecap:square;stroke-opacity:0.5;stroke-width:1.5;"/>
   </g>
   <g id="line2d_102">
    <path clip-path="url(#p028a9cd5a9)" d="M 51.99517 161.766524 
L 67.433906 162.49791 
L 82.872641 160.409896 
L 98.311376 159.9413 
L 113.750111 155.65291 
L 129.188846 149.748614 
L 144.627582 150.681246 
L 160.066317 138.426863 
L 175.505052 145.396233 
L 190.943787 155.760256 
L 206.382522 163.568923 
L 221.821257 164.877867 
L 237.259993 165.832366 
L 252.698728 165.813117 
L 268.137463 165.495468 
L 283.576198 165.051755 
L 299.014933 158.211442 
L 314.453668 151.626891 
L 329.892404 147.655976 
L 345.331139 154.170367 
L 360.769874 156.641436 
L 376.208609 157.128669 
L 391.647344 154.137052 
L 407.08608 161.546747 
" style="fill:none;stroke:#1b9e77;stroke-linecap:square;stroke-opacity:0.5;stroke-width:1.5;"/>
   </g>
   <g id="line2d_103">
    <path clip-path="url(#p028a9cd5a9)" d="M 51.99517 165.46636 
L 67.433906 165.705215 
L 82.872641 164.771366 
L 98.311376 165.783262 
L 113.750111 165.847829 
L 129.188846 165.919548 
L 144.627582 165.826391 
L 160.066317 165.740098 
L 175.505052 165.255624 
L 190.943787 165.703134 
L 206.382522 165.495113 
L 221.821257 159.616141 
L 237.259993 157.802486 
L 252.698728 83.674795 
L 268.137463 122.752314 
L 283.576198 147.28805 
L 299.014933 163.039447 
L 314.453668 161.36082 
L 329.892404 158.887581 
L 345.331139 157.177659 
L 360.769874 165.798571 
L 376.208609 163.585654 
L 391.647344 144.023025 
L 407.08608 165.519338 
" style="fill:none;stroke:#1b9e77;stroke-linecap:square;stroke-opacity:0.5;stroke-width:1.5;"/>
   </g>
   <g id="line2d_104">
    <path clip-path="url(#p028a9cd5a9)" d="M 51.99517 165.838802 
L 67.433906 165.633701 
L 82.872641 165.780109 
L 98.311376 165.864171 
L 113.750111 165.885393 
L 129.188846 165.909032 
L 144.627582 165.907881 
L 160.066317 165.120982 
L 175.505052 148.782365 
L 190.943787 145.84339 
L 206.382522 138.145805 
L 221.821257 147.325362 
L 237.259993 158.540477 
L 252.698728 156.536472 
L 268.137463 146.395214 
L 283.576198 132.569006 
L 299.014933 130.632346 
L 314.453668 150.767854 
L 329.892404 164.342752 
L 345.331139 165.580984 
L 360.769874 165.531193 
L 376.208609 165.868211 
L 391.647344 165.664166 
L 407.08608 163.57416 
" style="fill:none;stroke:#1b9e77;stroke-linecap:square;stroke-opacity:0.5;stroke-width:1.5;"/>
   </g>
   <g id="line2d_105">
    <path clip-path="url(#p028a9cd5a9)" d="M 51.99517 165.72319 
L 67.433906 165.742149 
L 82.872641 165.848224 
L 98.311376 165.772086 
L 113.750111 164.401161 
L 129.188846 148.595715 
L 144.627582 45.438506 
L 160.066317 125.920976 
L 175.505052 159.228904 
L 190.943787 161.756652 
L 206.382522 157.742213 
L 221.821257 164.688146 
L 237.259993 164.605466 
L 252.698728 161.901134 
L 268.137463 164.693549 
L 283.576198 165.027537 
L 299.014933 164.936256 
L 314.453668 165.480355 
L 329.892404 165.782467 
L 345.331139 165.879632 
L 360.769874 165.901318 
L 376.208609 165.926173 
L 391.647344 165.918693 
L 407.08608 165.129317 
" style="fill:none;stroke:#1b9e77;stroke-linecap:square;stroke-opacity:0.5;stroke-width:1.5;"/>
   </g>
   <g id="line2d_106">
    <path clip-path="url(#p028a9cd5a9)" d="M 51.99517 151.420324 
L 67.433906 141.766526 
L 82.872641 119.039993 
L 98.311376 130.62464 
L 113.750111 162.786873 
L 129.188846 155.021511 
L 144.627582 112.696555 
L 160.066317 149.081683 
L 175.505052 164.053502 
L 190.943787 165.72342 
L 206.382522 165.193358 
L 221.821257 165.680556 
L 237.259993 165.555433 
L 252.698728 164.186851 
L 268.137463 165.846159 
L 283.576198 165.892786 
L 299.014933 165.859212 
L 314.453668 165.900851 
L 329.892404 165.935432 
L 345.331139 165.953708 
L 360.769874 165.957182 
L 376.208609 165.96 
L 391.647344 165.959791 
L 407.08608 165.943478 
" style="fill:none;stroke:#1b9e77;stroke-linecap:square;stroke-opacity:0.5;stroke-width:1.5;"/>
   </g>
   <g id="line2d_107">
    <path clip-path="url(#p028a9cd5a9)" d="M 51.99517 165.920878 
L 67.433906 164.562509 
L 82.872641 158.503544 
L 98.311376 164.063617 
L 113.750111 164.901913 
L 129.188846 165.17872 
L 144.627582 165.491527 
L 160.066317 161.372385 
L 175.505052 149.53314 
L 190.943787 164.089863 
L 206.382522 143.1259 
L 221.821257 82.92799 
L 237.259993 133.098396 
L 252.698728 132.150924 
L 268.137463 165.362699 
L 283.576198 165.854628 
L 299.014933 165.869104 
L 314.453668 165.881192 
L 329.892404 165.870333 
L 345.331139 165.857312 
L 360.769874 165.854661 
L 376.208609 165.937073 
L 391.647344 165.931153 
L 407.08608 164.700361 
" style="fill:none;stroke:#1b9e77;stroke-linecap:square;stroke-opacity:0.5;stroke-width:1.5;"/>
   </g>
   <g id="line2d_108">
    <path clip-path="url(#p028a9cd5a9)" d="M 51.99517 148.735778 
L 67.433906 145.442573 
L 82.872641 147.081127 
L 98.311376 157.022356 
L 113.750111 160.2782 
L 129.188846 163.749048 
L 144.627582 164.963946 
L 160.066317 165.375955 
L 175.505052 165.413307 
L 190.943787 165.525958 
L 206.382522 165.612726 
L 221.821257 165.58025 
L 237.259993 165.456667 
L 252.698728 165.57379 
L 268.137463 165.65918 
L 283.576198 165.48203 
L 299.014933 165.350977 
L 314.453668 165.002262 
L 329.892404 159.766434 
L 345.331139 149.163598 
L 360.769874 161.647135 
L 376.208609 150.523036 
L 391.647344 89.531157 
L 407.08608 154.102339 
" style="fill:none;stroke:#1b9e77;stroke-linecap:square;stroke-opacity:0.5;stroke-width:1.5;"/>
   </g>
   <g id="line2d_109">
    <path clip-path="url(#p028a9cd5a9)" d="M 51.99517 165.917251 
L 67.433906 165.831309 
L 82.872641 165.850692 
L 98.311376 165.923104 
L 113.750111 165.94129 
L 129.188846 165.942386 
L 144.627582 165.855257 
L 160.066317 165.602891 
L 175.505052 163.013397 
L 190.943787 146.730721 
L 206.382522 146.491449 
L 221.821257 146.452792 
L 237.259993 130.884071 
L 252.698728 119.835251 
L 268.137463 139.032039 
L 283.576198 136.733589 
L 299.014933 156.695561 
L 314.453668 164.451052 
L 329.892404 165.525755 
L 345.331139 165.734201 
L 360.769874 165.80596 
L 376.208609 165.928891 
L 391.647344 165.949051 
L 407.08608 165.911868 
" style="fill:none;stroke:#1b9e77;stroke-linecap:square;stroke-opacity:0.5;stroke-width:1.5;"/>
   </g>
   <g id="line2d_110">
    <path clip-path="url(#p028a9cd5a9)" d="M 51.99517 165.65035 
L 67.433906 165.255267 
L 82.872641 165.402989 
L 98.311376 165.57271 
L 113.750111 165.603131 
L 129.188846 165.683646 
L 144.627582 165.742987 
L 160.066317 165.779858 
L 175.505052 165.768045 
L 190.943787 165.776677 
L 206.382522 165.797138 
L 221.821257 165.849379 
L 237.259993 165.880887 
L 252.698728 165.925726 
L 268.137463 165.936016 
L 283.576198 165.915449 
L 299.014933 165.595518 
L 314.453668 164.947883 
L 329.892404 115.525496 
L 345.331139 108.930849 
L 360.769874 130.278364 
L 376.208609 133.010977 
L 391.647344 145.472802 
L 407.08608 156.737685 
" style="fill:none;stroke:#1b9e77;stroke-linecap:square;stroke-opacity:0.5;stroke-width:1.5;"/>
   </g>
   <g id="line2d_111">
    <path clip-path="url(#p028a9cd5a9)" d="M 51.99517 165.950531 
L 67.433906 165.950531 
L 82.872641 165.950531 
L 98.311376 165.950531 
L 113.750111 165.950531 
L 129.188846 165.950531 
L 144.627582 165.950531 
L 160.066317 165.950531 
L 175.505052 165.950531 
L 190.943787 165.950531 
L 206.382522 165.950531 
L 221.821257 165.950531 
L 237.259993 165.950531 
L 252.698728 165.950531 
L 268.137463 165.950531 
L 283.576198 165.950531 
L 299.014933 165.950531 
L 314.453668 165.950531 
L 329.892404 165.950531 
L 345.331139 165.950531 
L 360.769874 165.399707 
L 376.208609 119.991411 
L 391.647344 71.378503 
L 407.08608 96.2596 
" style="fill:none;stroke:#d95f02;stroke-linecap:square;stroke-width:1.5;"/>
   </g>
   <g id="patch_3">
    <path d="M 34.240625 173.52 
L 34.240625 7.2 
" style="fill:none;stroke:#000000;stroke-linecap:square;stroke-linejoin:miter;stroke-width:0.8;"/>
   </g>
   <g id="patch_4">
    <path d="M 34.240625 173.52 
L 424.840625 173.52 
" style="fill:none;stroke:#000000;stroke-linecap:square;stroke-linejoin:miter;stroke-width:0.8;"/>
   </g>
   <g id="legend_1">
    <g id="patch_5">
     <path d="M 366.673438 29.878125 
L 417.840625 29.878125 
Q 419.840625 29.878125 419.840625 27.878125 
L 419.840625 14.2 
Q 419.840625 12.2 417.840625 12.2 
L 366.673438 12.2 
Q 364.673438 12.2 364.673438 14.2 
L 364.673438 27.878125 
Q 364.673438 29.878125 366.673438 29.878125 
z
" style="fill:#ffffff;opacity:0.8;stroke:#cccccc;stroke-linejoin:miter;"/>
    </g>
    <g id="line2d_112">
     <path d="M 368.673438 20.298438 
L 388.673438 20.298438 
" style="fill:none;stroke:#d95f02;stroke-linecap:square;stroke-width:1.5;"/>
    </g>
    <g id="line2d_113"/>
    <g id="text_13">
     <!-- real -->
     <defs>
      <path d="M 9.421875 75.984375 
L 18.40625 75.984375 
L 18.40625 0 
L 9.421875 0 
z
" id="DejaVuSans-108"/>
     </defs>
     <g transform="translate(396.673438 23.798438)scale(0.1 -0.1)">
      <use xlink:href="#DejaVuSans-114"/>
      <use x="41.082031" xlink:href="#DejaVuSans-101"/>
      <use x="102.605469" xlink:href="#DejaVuSans-97"/>
      <use x="163.884766" xlink:href="#DejaVuSans-108"/>
     </g>
    </g>
   </g>
  </g>
 </g>
 <defs>
  <clipPath id="p028a9cd5a9">
   <rect height="166.32" width="390.6" x="34.240625" y="7.2"/>
  </clipPath>
 </defs>
</svg>
