<?xml version="1.0" encoding="utf-8" standalone="no"?>
<!DOCTYPE svg PUBLIC "-//W3C//DTD SVG 1.1//EN"
  "http://www.w3.org/Graphics/SVG/1.1/DTD/svg11.dtd">
<!-- Created with matplotlib (https://matplotlib.org/) -->
<svg height="212.4821pt" version="1.1" viewBox="0 0 445.62794 212.4821" width="445.62794pt" xmlns="http://www.w3.org/2000/svg" xmlns:xlink="http://www.w3.org/1999/xlink">
 <defs>
  <style type="text/css">
*{stroke-linecap:butt;stroke-linejoin:round;}
  </style>
 </defs>
 <g id="figure_1">
  <g id="patch_1">
   <path d="M 0 212.4821 
L 445.62794 212.4821 
L 445.62794 0 
L 0 0 
z
" style="fill:#ffffff;"/>
  </g>
  <g id="axes_1">
   <g id="patch_2">
    <path d="M 43.78125 174.92585 
L 434.38125 174.92585 
L 434.38125 8.60585 
L 43.78125 8.60585 
z
" style="fill:#ffffff;"/>
   </g>
   <g id="matplotlib.axis_1">
    <g id="xtick_1">
     <g id="line2d_1">
      <defs>
       <path d="M 0 0 
L 0 3.5 
" id="m10d01959aa" style="stroke:#000000;stroke-width:0.8;"/>
      </defs>
      <g>
       <use style="stroke:#000000;stroke-width:0.8;" x="46.09706" xlink:href="#m10d01959aa" y="174.92585"/>
      </g>
     </g>
     <g id="text_1">
      <!-- 0 -->
      <defs>
       <path d="M 31.78125 66.40625 
Q 24.171875 66.40625 20.328125 58.90625 
Q 16.5 51.421875 16.5 36.375 
Q 16.5 21.390625 20.328125 13.890625 
Q 24.171875 6.390625 31.78125 6.390625 
Q 39.453125 6.390625 43.28125 13.890625 
Q 47.125 21.390625 47.125 36.375 
Q 47.125 51.421875 43.28125 58.90625 
Q 39.453125 66.40625 31.78125 66.40625 
z
M 31.78125 74.21875 
Q 44.046875 74.21875 50.515625 64.515625 
Q 56.984375 54.828125 56.984375 36.375 
Q 56.984375 17.96875 50.515625 8.265625 
Q 44.046875 -1.421875 31.78125 -1.421875 
Q 19.53125 -1.421875 13.0625 8.265625 
Q 6.59375 17.96875 6.59375 36.375 
Q 6.59375 54.828125 13.0625 64.515625 
Q 19.53125 74.21875 31.78125 74.21875 
z
" id="DejaVuSans-48"/>
      </defs>
      <g transform="translate(42.91581 189.524288)scale(0.1 -0.1)">
       <use xlink:href="#DejaVuSans-48"/>
      </g>
     </g>
    </g>
    <g id="xtick_2">
     <g id="line2d_2">
      <g>
       <use style="stroke:#000000;stroke-width:0.8;" x="123.290736" xlink:href="#m10d01959aa" y="174.92585"/>
      </g>
     </g>
     <g id="text_2">
      <!-- 5 -->
      <defs>
       <path d="M 10.796875 72.90625 
L 49.515625 72.90625 
L 49.515625 64.59375 
L 19.828125 64.59375 
L 19.828125 46.734375 
Q 21.96875 47.46875 24.109375 47.828125 
Q 26.265625 48.1875 28.421875 48.1875 
Q 40.625 48.1875 47.75 41.5 
Q 54.890625 34.8125 54.890625 23.390625 
Q 54.890625 11.625 47.5625 5.09375 
Q 40.234375 -1.421875 26.90625 -1.421875 
Q 22.3125 -1.421875 17.546875 -0.640625 
Q 12.796875 0.140625 7.71875 1.703125 
L 7.71875 11.625 
Q 12.109375 9.234375 16.796875 8.0625 
Q 21.484375 6.890625 26.703125 6.890625 
Q 35.15625 6.890625 40.078125 11.328125 
Q 45.015625 15.765625 45.015625 23.390625 
Q 45.015625 31 40.078125 35.4375 
Q 35.15625 39.890625 26.703125 39.890625 
Q 22.75 39.890625 18.8125 39.015625 
Q 14.890625 38.140625 10.796875 36.28125 
z
" id="DejaVuSans-53"/>
      </defs>
      <g transform="translate(120.109486 189.524288)scale(0.1 -0.1)">
       <use xlink:href="#DejaVuSans-53"/>
      </g>
     </g>
    </g>
    <g id="xtick_3">
     <g id="line2d_3">
      <g>
       <use style="stroke:#000000;stroke-width:0.8;" x="200.484412" xlink:href="#m10d01959aa" y="174.92585"/>
      </g>
     </g>
     <g id="text_3">
      <!-- 10 -->
      <defs>
       <path d="M 12.40625 8.296875 
L 28.515625 8.296875 
L 28.515625 63.921875 
L 10.984375 60.40625 
L 10.984375 69.390625 
L 28.421875 72.90625 
L 38.28125 72.90625 
L 38.28125 8.296875 
L 54.390625 8.296875 
L 54.390625 0 
L 12.40625 0 
z
" id="DejaVuSans-49"/>
      </defs>
      <g transform="translate(194.121912 189.524288)scale(0.1 -0.1)">
       <use xlink:href="#DejaVuSans-49"/>
       <use x="63.623047" xlink:href="#DejaVuSans-48"/>
      </g>
     </g>
    </g>
    <g id="xtick_4">
     <g id="line2d_4">
      <g>
       <use style="stroke:#000000;stroke-width:0.8;" x="277.678088" xlink:href="#m10d01959aa" y="174.92585"/>
      </g>
     </g>
     <g id="text_4">
      <!-- 15 -->
      <g transform="translate(271.315588 189.524288)scale(0.1 -0.1)">
       <use xlink:href="#DejaVuSans-49"/>
       <use x="63.623047" xlink:href="#DejaVuSans-53"/>
      </g>
     </g>
    </g>
    <g id="xtick_5">
     <g id="line2d_5">
      <g>
       <use style="stroke:#000000;stroke-width:0.8;" x="354.871764" xlink:href="#m10d01959aa" y="174.92585"/>
      </g>
     </g>
     <g id="text_5">
      <!-- 20 -->
      <defs>
       <path d="M 19.1875 8.296875 
L 53.609375 8.296875 
L 53.609375 0 
L 7.328125 0 
L 7.328125 8.296875 
Q 12.9375 14.109375 22.625 23.890625 
Q 32.328125 33.6875 34.8125 36.53125 
Q 39.546875 41.84375 41.421875 45.53125 
Q 43.3125 49.21875 43.3125 52.78125 
Q 43.3125 58.59375 39.234375 62.25 
Q 35.15625 65.921875 28.609375 65.921875 
Q 23.96875 65.921875 18.8125 64.3125 
Q 13.671875 62.703125 7.8125 59.421875 
L 7.8125 69.390625 
Q 13.765625 71.78125 18.9375 73 
Q 24.125 74.21875 28.421875 74.21875 
Q 39.75 74.21875 46.484375 68.546875 
Q 53.21875 62.890625 53.21875 53.421875 
Q 53.21875 48.921875 51.53125 44.890625 
Q 49.859375 40.875 45.40625 35.40625 
Q 44.1875 33.984375 37.640625 27.21875 
Q 31.109375 20.453125 19.1875 8.296875 
z
" id="DejaVuSans-50"/>
      </defs>
      <g transform="translate(348.509264 189.524288)scale(0.1 -0.1)">
       <use xlink:href="#DejaVuSans-50"/>
       <use x="63.623047" xlink:href="#DejaVuSans-48"/>
      </g>
     </g>
    </g>
    <g id="xtick_6">
     <g id="line2d_6">
      <g>
       <use style="stroke:#000000;stroke-width:0.8;" x="432.06544" xlink:href="#m10d01959aa" y="174.92585"/>
      </g>
     </g>
     <g id="text_6">
      <!-- 25 -->
      <g transform="translate(425.70294 189.524288)scale(0.1 -0.1)">
       <use xlink:href="#DejaVuSans-50"/>
       <use x="63.623047" xlink:href="#DejaVuSans-53"/>
      </g>
     </g>
    </g>
    <g id="text_7">
     <!-- hour -->
     <defs>
      <path d="M 54.890625 33.015625 
L 54.890625 0 
L 45.90625 0 
L 45.90625 32.71875 
Q 45.90625 40.484375 42.875 44.328125 
Q 39.84375 48.1875 33.796875 48.1875 
Q 26.515625 48.1875 22.3125 43.546875 
Q 18.109375 38.921875 18.109375 30.90625 
L 18.109375 0 
L 9.078125 0 
L 9.078125 75.984375 
L 18.109375 75.984375 
L 18.109375 46.1875 
Q 21.34375 51.125 25.703125 53.5625 
Q 30.078125 56 35.796875 56 
Q 45.21875 56 50.046875 50.171875 
Q 54.890625 44.34375 54.890625 33.015625 
z
" id="DejaVuSans-104"/>
      <path d="M 30.609375 48.390625 
Q 23.390625 48.390625 19.1875 42.75 
Q 14.984375 37.109375 14.984375 27.296875 
Q 14.984375 17.484375 19.15625 11.84375 
Q 23.34375 6.203125 30.609375 6.203125 
Q 37.796875 6.203125 41.984375 11.859375 
Q 46.1875 17.53125 46.1875 27.296875 
Q 46.1875 37.015625 41.984375 42.703125 
Q 37.796875 48.390625 30.609375 48.390625 
z
M 30.609375 56 
Q 42.328125 56 49.015625 48.375 
Q 55.71875 40.765625 55.71875 27.296875 
Q 55.71875 13.875 49.015625 6.21875 
Q 42.328125 -1.421875 30.609375 -1.421875 
Q 18.84375 -1.421875 12.171875 6.21875 
Q 5.515625 13.875 5.515625 27.296875 
Q 5.515625 40.765625 12.171875 48.375 
Q 18.84375 56 30.609375 56 
z
" id="DejaVuSans-111"/>
      <path d="M 8.5 21.578125 
L 8.5 54.6875 
L 17.484375 54.6875 
L 17.484375 21.921875 
Q 17.484375 14.15625 20.5 10.265625 
Q 23.53125 6.390625 29.59375 6.390625 
Q 36.859375 6.390625 41.078125 11.03125 
Q 45.3125 15.671875 45.3125 23.6875 
L 45.3125 54.6875 
L 54.296875 54.6875 
L 54.296875 0 
L 45.3125 0 
L 45.3125 8.40625 
Q 42.046875 3.421875 37.71875 1 
Q 33.40625 -1.421875 27.6875 -1.421875 
Q 18.265625 -1.421875 13.375 4.4375 
Q 8.5 10.296875 8.5 21.578125 
z
M 31.109375 56 
z
" id="DejaVuSans-117"/>
      <path d="M 41.109375 46.296875 
Q 39.59375 47.171875 37.8125 47.578125 
Q 36.03125 48 33.890625 48 
Q 26.265625 48 22.1875 43.046875 
Q 18.109375 38.09375 18.109375 28.8125 
L 18.109375 0 
L 9.078125 0 
L 9.078125 54.6875 
L 18.109375 54.6875 
L 18.109375 46.1875 
Q 20.953125 51.171875 25.484375 53.578125 
Q 30.03125 56 36.53125 56 
Q 37.453125 56 38.578125 55.875 
Q 39.703125 55.765625 41.0625 55.515625 
z
" id="DejaVuSans-114"/>
     </defs>
     <g transform="translate(227.628906 203.202413)scale(0.1 -0.1)">
      <use xlink:href="#DejaVuSans-104"/>
      <use x="63.378906" xlink:href="#DejaVuSans-111"/>
      <use x="124.560547" xlink:href="#DejaVuSans-117"/>
      <use x="187.939453" xlink:href="#DejaVuSans-114"/>
     </g>
    </g>
   </g>
   <g id="matplotlib.axis_2">
    <g id="ytick_1">
     <g id="line2d_7">
      <defs>
       <path d="M 0 0 
L -3.5 0 
" id="mf71daa6ca8" style="stroke:#000000;stroke-width:0.8;"/>
      </defs>
      <g>
       <use style="stroke:#000000;stroke-width:0.8;" x="43.78125" xlink:href="#mf71daa6ca8" y="167.366899"/>
      </g>
     </g>
     <g id="text_8">
      <!-- 0.0 -->
      <defs>
       <path d="M 10.6875 12.40625 
L 21 12.40625 
L 21 0 
L 10.6875 0 
z
" id="DejaVuSans-46"/>
      </defs>
      <g transform="translate(20.878125 171.166118)scale(0.1 -0.1)">
       <use xlink:href="#DejaVuSans-48"/>
       <use x="63.623047" xlink:href="#DejaVuSans-46"/>
       <use x="95.410156" xlink:href="#DejaVuSans-48"/>
      </g>
     </g>
    </g>
    <g id="ytick_2">
     <g id="line2d_8">
      <g>
       <use style="stroke:#000000;stroke-width:0.8;" x="43.78125" xlink:href="#mf71daa6ca8" y="141.305619"/>
      </g>
     </g>
     <g id="text_9">
      <!-- 0.5 -->
      <g transform="translate(20.878125 145.104838)scale(0.1 -0.1)">
       <use xlink:href="#DejaVuSans-48"/>
       <use x="63.623047" xlink:href="#DejaVuSans-46"/>
       <use x="95.410156" xlink:href="#DejaVuSans-53"/>
      </g>
     </g>
    </g>
    <g id="ytick_3">
     <g id="line2d_9">
      <g>
       <use style="stroke:#000000;stroke-width:0.8;" x="43.78125" xlink:href="#mf71daa6ca8" y="115.244339"/>
      </g>
     </g>
     <g id="text_10">
      <!-- 1.0 -->
      <g transform="translate(20.878125 119.043558)scale(0.1 -0.1)">
       <use xlink:href="#DejaVuSans-49"/>
       <use x="63.623047" xlink:href="#DejaVuSans-46"/>
       <use x="95.410156" xlink:href="#DejaVuSans-48"/>
      </g>
     </g>
    </g>
    <g id="ytick_4">
     <g id="line2d_10">
      <g>
       <use style="stroke:#000000;stroke-width:0.8;" x="43.78125" xlink:href="#mf71daa6ca8" y="89.183059"/>
      </g>
     </g>
     <g id="text_11">
      <!-- 1.5 -->
      <g transform="translate(20.878125 92.982278)scale(0.1 -0.1)">
       <use xlink:href="#DejaVuSans-49"/>
       <use x="63.623047" xlink:href="#DejaVuSans-46"/>
       <use x="95.410156" xlink:href="#DejaVuSans-53"/>
      </g>
     </g>
    </g>
    <g id="ytick_5">
     <g id="line2d_11">
      <g>
       <use style="stroke:#000000;stroke-width:0.8;" x="43.78125" xlink:href="#mf71daa6ca8" y="63.121779"/>
      </g>
     </g>
     <g id="text_12">
      <!-- 2.0 -->
      <g transform="translate(20.878125 66.920998)scale(0.1 -0.1)">
       <use xlink:href="#DejaVuSans-50"/>
       <use x="63.623047" xlink:href="#DejaVuSans-46"/>
       <use x="95.410156" xlink:href="#DejaVuSans-48"/>
      </g>
     </g>
    </g>
    <g id="ytick_6">
     <g id="line2d_12">
      <g>
       <use style="stroke:#000000;stroke-width:0.8;" x="43.78125" xlink:href="#mf71daa6ca8" y="37.060499"/>
      </g>
     </g>
     <g id="text_13">
      <!-- 2.5 -->
      <g transform="translate(20.878125 40.859718)scale(0.1 -0.1)">
       <use xlink:href="#DejaVuSans-50"/>
       <use x="63.623047" xlink:href="#DejaVuSans-46"/>
       <use x="95.410156" xlink:href="#DejaVuSans-53"/>
      </g>
     </g>
    </g>
    <g id="ytick_7">
     <g id="line2d_13">
      <g>
       <use style="stroke:#000000;stroke-width:0.8;" x="43.78125" xlink:href="#mf71daa6ca8" y="10.999219"/>
      </g>
     </g>
     <g id="text_14">
      <!-- 3.0 -->
      <defs>
       <path d="M 40.578125 39.3125 
Q 47.65625 37.796875 51.625 33 
Q 55.609375 28.21875 55.609375 21.1875 
Q 55.609375 10.40625 48.1875 4.484375 
Q 40.765625 -1.421875 27.09375 -1.421875 
Q 22.515625 -1.421875 17.65625 -0.515625 
Q 12.796875 0.390625 7.625 2.203125 
L 7.625 11.71875 
Q 11.71875 9.328125 16.59375 8.109375 
Q 21.484375 6.890625 26.8125 6.890625 
Q 36.078125 6.890625 40.9375 10.546875 
Q 45.796875 14.203125 45.796875 21.1875 
Q 45.796875 27.640625 41.28125 31.265625 
Q 36.765625 34.90625 28.71875 34.90625 
L 20.21875 34.90625 
L 20.21875 43.015625 
L 29.109375 43.015625 
Q 36.375 43.015625 40.234375 45.921875 
Q 44.09375 48.828125 44.09375 54.296875 
Q 44.09375 59.90625 40.109375 62.90625 
Q 36.140625 65.921875 28.71875 65.921875 
Q 24.65625 65.921875 20.015625 65.03125 
Q 15.375 64.15625 9.8125 62.3125 
L 9.8125 71.09375 
Q 15.4375 72.65625 20.34375 73.4375 
Q 25.25 74.21875 29.59375 74.21875 
Q 40.828125 74.21875 47.359375 69.109375 
Q 53.90625 64.015625 53.90625 55.328125 
Q 53.90625 49.265625 50.4375 45.09375 
Q 46.96875 40.921875 40.578125 39.3125 
z
" id="DejaVuSans-51"/>
      </defs>
      <g transform="translate(20.878125 14.798438)scale(0.1 -0.1)">
       <use xlink:href="#DejaVuSans-51"/>
       <use x="63.623047" xlink:href="#DejaVuSans-46"/>
       <use x="95.410156" xlink:href="#DejaVuSans-48"/>
      </g>
     </g>
    </g>
    <g id="text_15">
     <!-- precipitation [mm/hour] -->
     <defs>
      <path d="M 18.109375 8.203125 
L 18.109375 -20.796875 
L 9.078125 -20.796875 
L 9.078125 54.6875 
L 18.109375 54.6875 
L 18.109375 46.390625 
Q 20.953125 51.265625 25.265625 53.625 
Q 29.59375 56 35.59375 56 
Q 45.5625 56 51.78125 48.09375 
Q 58.015625 40.1875 58.015625 27.296875 
Q 58.015625 14.40625 51.78125 6.484375 
Q 45.5625 -1.421875 35.59375 -1.421875 
Q 29.59375 -1.421875 25.265625 0.953125 
Q 20.953125 3.328125 18.109375 8.203125 
z
M 48.6875 27.296875 
Q 48.6875 37.203125 44.609375 42.84375 
Q 40.53125 48.484375 33.40625 48.484375 
Q 26.265625 48.484375 22.1875 42.84375 
Q 18.109375 37.203125 18.109375 27.296875 
Q 18.109375 17.390625 22.1875 11.75 
Q 26.265625 6.109375 33.40625 6.109375 
Q 40.53125 6.109375 44.609375 11.75 
Q 48.6875 17.390625 48.6875 27.296875 
z
" id="DejaVuSans-112"/>
      <path d="M 56.203125 29.59375 
L 56.203125 25.203125 
L 14.890625 25.203125 
Q 15.484375 15.921875 20.484375 11.0625 
Q 25.484375 6.203125 34.421875 6.203125 
Q 39.59375 6.203125 44.453125 7.46875 
Q 49.3125 8.734375 54.109375 11.28125 
L 54.109375 2.78125 
Q 49.265625 0.734375 44.1875 -0.34375 
Q 39.109375 -1.421875 33.890625 -1.421875 
Q 20.796875 -1.421875 13.15625 6.1875 
Q 5.515625 13.8125 5.515625 26.8125 
Q 5.515625 40.234375 12.765625 48.109375 
Q 20.015625 56 32.328125 56 
Q 43.359375 56 49.78125 48.890625 
Q 56.203125 41.796875 56.203125 29.59375 
z
M 47.21875 32.234375 
Q 47.125 39.59375 43.09375 43.984375 
Q 39.0625 48.390625 32.421875 48.390625 
Q 24.90625 48.390625 20.390625 44.140625 
Q 15.875 39.890625 15.1875 32.171875 
z
" id="DejaVuSans-101"/>
      <path d="M 48.78125 52.59375 
L 48.78125 44.1875 
Q 44.96875 46.296875 41.140625 47.34375 
Q 37.3125 48.390625 33.40625 48.390625 
Q 24.65625 48.390625 19.8125 42.84375 
Q 14.984375 37.3125 14.984375 27.296875 
Q 14.984375 17.28125 19.8125 11.734375 
Q 24.65625 6.203125 33.40625 6.203125 
Q 37.3125 6.203125 41.140625 7.25 
Q 44.96875 8.296875 48.78125 10.40625 
L 48.78125 2.09375 
Q 45.015625 0.34375 40.984375 -0.53125 
Q 36.96875 -1.421875 32.421875 -1.421875 
Q 20.0625 -1.421875 12.78125 6.34375 
Q 5.515625 14.109375 5.515625 27.296875 
Q 5.515625 40.671875 12.859375 48.328125 
Q 20.21875 56 33.015625 56 
Q 37.15625 56 41.109375 55.140625 
Q 45.0625 54.296875 48.78125 52.59375 
z
" id="DejaVuSans-99"/>
      <path d="M 9.421875 54.6875 
L 18.40625 54.6875 
L 18.40625 0 
L 9.421875 0 
z
M 9.421875 75.984375 
L 18.40625 75.984375 
L 18.40625 64.59375 
L 9.421875 64.59375 
z
" id="DejaVuSans-105"/>
      <path d="M 18.3125 70.21875 
L 18.3125 54.6875 
L 36.8125 54.6875 
L 36.8125 47.703125 
L 18.3125 47.703125 
L 18.3125 18.015625 
Q 18.3125 11.328125 20.140625 9.421875 
Q 21.96875 7.515625 27.59375 7.515625 
L 36.8125 7.515625 
L 36.8125 0 
L 27.59375 0 
Q 17.1875 0 13.234375 3.875 
Q 9.28125 7.765625 9.28125 18.015625 
L 9.28125 47.703125 
L 2.6875 47.703125 
L 2.6875 54.6875 
L 9.28125 54.6875 
L 9.28125 70.21875 
z
" id="DejaVuSans-116"/>
      <path d="M 34.28125 27.484375 
Q 23.390625 27.484375 19.1875 25 
Q 14.984375 22.515625 14.984375 16.5 
Q 14.984375 11.71875 18.140625 8.90625 
Q 21.296875 6.109375 26.703125 6.109375 
Q 34.1875 6.109375 38.703125 11.40625 
Q 43.21875 16.703125 43.21875 25.484375 
L 43.21875 27.484375 
z
M 52.203125 31.203125 
L 52.203125 0 
L 43.21875 0 
L 43.21875 8.296875 
Q 40.140625 3.328125 35.546875 0.953125 
Q 30.953125 -1.421875 24.3125 -1.421875 
Q 15.921875 -1.421875 10.953125 3.296875 
Q 6 8.015625 6 15.921875 
Q 6 25.140625 12.171875 29.828125 
Q 18.359375 34.515625 30.609375 34.515625 
L 43.21875 34.515625 
L 43.21875 35.40625 
Q 43.21875 41.609375 39.140625 45 
Q 35.0625 48.390625 27.6875 48.390625 
Q 23 48.390625 18.546875 47.265625 
Q 14.109375 46.140625 10.015625 43.890625 
L 10.015625 52.203125 
Q 14.9375 54.109375 19.578125 55.046875 
Q 24.21875 56 28.609375 56 
Q 40.484375 56 46.34375 49.84375 
Q 52.203125 43.703125 52.203125 31.203125 
z
" id="DejaVuSans-97"/>
      <path d="M 54.890625 33.015625 
L 54.890625 0 
L 45.90625 0 
L 45.90625 32.71875 
Q 45.90625 40.484375 42.875 44.328125 
Q 39.84375 48.1875 33.796875 48.1875 
Q 26.515625 48.1875 22.3125 43.546875 
Q 18.109375 38.921875 18.109375 30.90625 
L 18.109375 0 
L 9.078125 0 
L 9.078125 54.6875 
L 18.109375 54.6875 
L 18.109375 46.1875 
Q 21.34375 51.125 25.703125 53.5625 
Q 30.078125 56 35.796875 56 
Q 45.21875 56 50.046875 50.171875 
Q 54.890625 44.34375 54.890625 33.015625 
z
" id="DejaVuSans-110"/>
      <path id="DejaVuSans-32"/>
      <path d="M 8.59375 75.984375 
L 29.296875 75.984375 
L 29.296875 69 
L 17.578125 69 
L 17.578125 -6.203125 
L 29.296875 -6.203125 
L 29.296875 -13.1875 
L 8.59375 -13.1875 
z
" id="DejaVuSans-91"/>
      <path d="M 52 44.1875 
Q 55.375 50.25 60.0625 53.125 
Q 64.75 56 71.09375 56 
Q 79.640625 56 84.28125 50.015625 
Q 88.921875 44.046875 88.921875 33.015625 
L 88.921875 0 
L 79.890625 0 
L 79.890625 32.71875 
Q 79.890625 40.578125 77.09375 44.375 
Q 74.3125 48.1875 68.609375 48.1875 
Q 61.625 48.1875 57.5625 43.546875 
Q 53.515625 38.921875 53.515625 30.90625 
L 53.515625 0 
L 44.484375 0 
L 44.484375 32.71875 
Q 44.484375 40.625 41.703125 44.40625 
Q 38.921875 48.1875 33.109375 48.1875 
Q 26.21875 48.1875 22.15625 43.53125 
Q 18.109375 38.875 18.109375 30.90625 
L 18.109375 0 
L 9.078125 0 
L 9.078125 54.6875 
L 18.109375 54.6875 
L 18.109375 46.1875 
Q 21.1875 51.21875 25.484375 53.609375 
Q 29.78125 56 35.6875 56 
Q 41.65625 56 45.828125 52.96875 
Q 50 49.953125 52 44.1875 
z
" id="DejaVuSans-109"/>
      <path d="M 25.390625 72.90625 
L 33.6875 72.90625 
L 8.296875 -9.28125 
L 0 -9.28125 
z
" id="DejaVuSans-47"/>
      <path d="M 30.421875 75.984375 
L 30.421875 -13.1875 
L 9.71875 -13.1875 
L 9.71875 -6.203125 
L 21.390625 -6.203125 
L 21.390625 69 
L 9.71875 69 
L 9.71875 75.984375 
z
" id="DejaVuSans-93"/>
     </defs>
     <g transform="translate(14.798438 151.741632)rotate(-90)scale(0.1 -0.1)">
      <use xlink:href="#DejaVuSans-112"/>
      <use x="63.476562" xlink:href="#DejaVuSans-114"/>
      <use x="104.558594" xlink:href="#DejaVuSans-101"/>
      <use x="166.082031" xlink:href="#DejaVuSans-99"/>
      <use x="221.0625" xlink:href="#DejaVuSans-105"/>
      <use x="248.845703" xlink:href="#DejaVuSans-112"/>
      <use x="312.322266" xlink:href="#DejaVuSans-105"/>
      <use x="340.105469" xlink:href="#DejaVuSans-116"/>
      <use x="379.314453" xlink:href="#DejaVuSans-97"/>
      <use x="440.59375" xlink:href="#DejaVuSans-116"/>
      <use x="479.802734" xlink:href="#DejaVuSans-105"/>
      <use x="507.585938" xlink:href="#DejaVuSans-111"/>
      <use x="568.767578" xlink:href="#DejaVuSans-110"/>
      <use x="632.146484" xlink:href="#DejaVuSans-32"/>
      <use x="663.933594" xlink:href="#DejaVuSans-91"/>
      <use x="702.947266" xlink:href="#DejaVuSans-109"/>
      <use x="800.359375" xlink:href="#DejaVuSans-109"/>
      <use x="897.771484" xlink:href="#DejaVuSans-47"/>
      <use x="931.462891" xlink:href="#DejaVuSans-104"/>
      <use x="994.841797" xlink:href="#DejaVuSans-111"/>
      <use x="1056.023438" xlink:href="#DejaVuSans-117"/>
      <use x="1119.402344" xlink:href="#DejaVuSans-114"/>
      <use x="1160.515625" xlink:href="#DejaVuSans-93"/>
     </g>
    </g>
   </g>
   <g id="line2d_14">
    <path clip-path="url(#p872913ec26)" d="M 61.535795 167.239024 
L 76.974531 167.186982 
L 92.413266 167.301824 
L 107.852001 167.34503 
L 123.290736 167.280395 
L 138.729471 167.30731 
L 154.168207 152.755944 
L 169.606942 118.321463 
L 185.045677 160.860659 
L 200.484412 166.103377 
L 215.923147 167.341193 
L 231.361882 166.861097 
L 246.800618 159.2742 
L 262.239353 71.258908 
L 277.678088 162.090296 
L 293.116823 165.184039 
L 308.555558 166.2251 
L 323.994293 165.542692 
L 339.433029 166.481267 
L 354.871764 167.006665 
L 370.310499 167.115408 
L 385.749234 167.26106 
L 401.187969 167.303349 
L 416.626705 167.357074 
" style="fill:none;stroke:#1b9e77;stroke-linecap:square;stroke-opacity:0.5;stroke-width:1.5;"/>
   </g>
   <g id="line2d_15">
    <path clip-path="url(#p872913ec26)" d="M 61.535795 167.141517 
L 76.974531 166.840562 
L 92.413266 166.923255 
L 107.852001 167.162615 
L 123.290736 167.273015 
L 138.729471 167.295636 
L 154.168207 167.279749 
L 169.606942 167.34099 
L 185.045677 167.36086 
L 200.484412 167.29558 
L 215.923147 167.262114 
L 231.361882 167.128797 
L 246.800618 165.756364 
L 262.239353 149.961158 
L 277.678088 131.857052 
L 293.116823 63.925326 
L 308.555558 155.582496 
L 323.994293 165.18455 
L 339.433029 165.795051 
L 354.871764 161.054552 
L 370.310499 160.897132 
L 385.749234 167.206435 
L 401.187969 167.255264 
L 416.626705 167.224292 
" style="fill:none;stroke:#1b9e77;stroke-linecap:square;stroke-opacity:0.5;stroke-width:1.5;"/>
   </g>
   <g id="line2d_16">
    <path clip-path="url(#p872913ec26)" d="M 61.535795 167.242025 
L 76.974531 167.097934 
L 92.413266 167.072362 
L 107.852001 167.28485 
L 123.290736 167.343274 
L 138.729471 167.297646 
L 154.168207 166.919178 
L 169.606942 166.332545 
L 185.045677 151.971901 
L 200.484412 124.636901 
L 215.923147 123.572306 
L 231.361882 88.117929 
L 246.800618 166.316624 
L 262.239353 165.228085 
L 277.678088 166.714226 
L 293.116823 167.02669 
L 308.555558 167.027707 
L 323.994293 167.069758 
L 339.433029 167.133198 
L 354.871764 167.247825 
L 370.310499 167.310821 
L 385.749234 167.341397 
L 401.187969 167.338334 
L 416.626705 167.360843 
" style="fill:none;stroke:#1b9e77;stroke-linecap:square;stroke-opacity:0.5;stroke-width:1.5;"/>
   </g>
   <g id="line2d_17">
    <path clip-path="url(#p872913ec26)" d="M 61.535795 166.878695 
L 76.974531 166.970685 
L 92.413266 164.633862 
L 107.852001 165.66509 
L 123.290736 164.928244 
L 138.729471 164.714617 
L 154.168207 160.916885 
L 169.606942 158.965847 
L 185.045677 158.921373 
L 200.484412 166.784742 
L 215.923147 167.027798 
L 231.361882 164.244673 
L 246.800618 135.474119 
L 262.239353 144.315709 
L 277.678088 167.086721 
L 293.116823 167.271364 
L 308.555558 166.920544 
L 323.994293 165.772675 
L 339.433029 164.974617 
L 354.871764 150.925587 
L 370.310499 137.358159 
L 385.749234 127.972904 
L 401.187969 163.234397 
L 416.626705 166.045051 
" style="fill:none;stroke:#1b9e77;stroke-linecap:square;stroke-opacity:0.5;stroke-width:1.5;"/>
   </g>
   <g id="line2d_18">
    <path clip-path="url(#p872913ec26)" d="M 61.535795 167.355172 
L 76.974531 167.347087 
L 92.413266 167.339427 
L 107.852001 167.35344 
L 123.290736 167.359266 
L 138.729471 167.313403 
L 154.168207 165.826519 
L 169.606942 163.365901 
L 185.045677 142.582293 
L 200.484412 159.015762 
L 215.923147 165.987184 
L 231.361882 166.7779 
L 246.800618 162.738607 
L 262.239353 148.282157 
L 277.678088 153.801103 
L 293.116823 151.014659 
L 308.555558 166.209143 
L 323.994293 164.949739 
L 339.433029 130.016223 
L 354.871764 132.708061 
L 370.310499 150.942766 
L 385.749234 166.35924 
L 401.187969 166.769032 
L 416.626705 166.590271 
" style="fill:none;stroke:#1b9e77;stroke-linecap:square;stroke-opacity:0.5;stroke-width:1.5;"/>
   </g>
   <g id="line2d_19">
    <path clip-path="url(#p872913ec26)" d="M 61.535795 166.764263 
L 76.974531 166.768088 
L 92.413266 166.852363 
L 107.852001 167.07797 
L 123.290736 167.119091 
L 138.729471 167.280367 
L 154.168207 167.326711 
L 169.606942 167.275096 
L 185.045677 167.158727 
L 200.484412 167.043861 
L 215.923147 163.30314 
L 231.361882 114.881421 
L 246.800618 115.860531 
L 262.239353 161.687177 
L 277.678088 165.721475 
L 293.116823 161.528008 
L 308.555558 153.781201 
L 323.994293 162.528289 
L 339.433029 162.388998 
L 354.871764 158.205519 
L 370.310499 164.136302 
L 385.749234 166.237543 
L 401.187969 160.035589 
L 416.626705 147.042624 
" style="fill:none;stroke:#1b9e77;stroke-linecap:square;stroke-opacity:0.5;stroke-width:1.5;"/>
   </g>
   <g id="line2d_20">
    <path clip-path="url(#p872913ec26)" d="M 61.535795 167.294003 
L 76.974531 167.190201 
L 92.413266 167.201553 
L 107.852001 167.268268 
L 123.290736 167.281873 
L 138.729471 167.304809 
L 154.168207 167.314376 
L 169.606942 167.30905 
L 185.045677 167.295961 
L 200.484412 167.27599 
L 215.923147 167.263386 
L 231.361882 167.287986 
L 246.800618 167.305322 
L 262.239353 167.276136 
L 277.678088 167.121618 
L 293.116823 167.165688 
L 308.555558 154.305426 
L 323.994293 135.812037 
L 339.433029 140.961261 
L 354.871764 106.508111 
L 370.310499 165.784158 
L 385.749234 165.030082 
L 401.187969 161.556253 
L 416.626705 121.890801 
" style="fill:none;stroke:#1b9e77;stroke-linecap:square;stroke-opacity:0.5;stroke-width:1.5;"/>
   </g>
   <g id="line2d_21">
    <path clip-path="url(#p872913ec26)" d="M 61.535795 165.945028 
L 76.974531 162.174098 
L 92.413266 144.417967 
L 107.852001 151.012887 
L 123.290736 157.370503 
L 138.729471 153.535152 
L 154.168207 151.850792 
L 169.606942 166.762173 
L 185.045677 167.344408 
L 200.484412 167.360262 
L 215.923147 167.363062 
L 231.361882 167.361864 
L 246.800618 167.353463 
L 262.239353 167.365263 
L 277.678088 167.363441 
L 293.116823 167.333689 
L 308.555558 166.996682 
L 323.994293 162.418266 
L 339.433029 164.797102 
L 354.871764 162.883081 
L 370.310499 142.777756 
L 385.749234 124.29446 
L 401.187969 145.439894 
L 416.626705 166.483066 
" style="fill:none;stroke:#1b9e77;stroke-linecap:square;stroke-opacity:0.5;stroke-width:1.5;"/>
   </g>
   <g id="line2d_22">
    <path clip-path="url(#p872913ec26)" d="M 61.535795 166.909769 
L 76.974531 167.210863 
L 92.413266 166.506264 
L 107.852001 163.943527 
L 123.290736 150.482334 
L 138.729471 144.259685 
L 154.168207 129.486001 
L 169.606942 149.909145 
L 185.045677 136.097922 
L 200.484412 161.64389 
L 215.923147 151.69033 
L 231.361882 158.553489 
L 246.800618 166.045743 
L 262.239353 166.320918 
L 277.678088 166.053567 
L 293.116823 165.221214 
L 308.555558 149.777394 
L 323.994293 165.744376 
L 339.433029 165.729882 
L 354.871764 167.279272 
L 370.310499 167.300953 
L 385.749234 167.287696 
L 401.187969 167.294499 
L 416.626705 167.255624 
" style="fill:none;stroke:#1b9e77;stroke-linecap:square;stroke-opacity:0.5;stroke-width:1.5;"/>
   </g>
   <g id="line2d_23">
    <path clip-path="url(#p872913ec26)" d="M 61.535795 166.726598 
L 76.974531 167.177393 
L 92.413266 167.238469 
L 107.852001 167.237043 
L 123.290736 165.355227 
L 138.729471 167.154639 
L 154.168207 167.355999 
L 169.606942 167.336836 
L 185.045677 167.222289 
L 200.484412 166.872826 
L 215.923147 165.530585 
L 231.361882 158.779658 
L 246.800618 163.415266 
L 262.239353 132.012824 
L 277.678088 153.884613 
L 293.116823 164.379277 
L 308.555558 163.476246 
L 323.994293 143.897385 
L 339.433029 143.742338 
L 354.871764 163.543114 
L 370.310499 164.384389 
L 385.749234 165.779541 
L 401.187969 164.015747 
L 416.626705 111.486045 
" style="fill:none;stroke:#1b9e77;stroke-linecap:square;stroke-opacity:0.5;stroke-width:1.5;"/>
   </g>
   <g id="line2d_24">
    <path clip-path="url(#p872913ec26)" d="M 61.535795 167.124655 
L 76.974531 166.564109 
L 92.413266 166.275603 
L 107.852001 166.57256 
L 123.290736 166.382003 
L 138.729471 166.841818 
L 154.168207 165.605964 
L 169.606942 149.625282 
L 185.045677 156.73566 
L 200.484412 155.105586 
L 215.923147 148.132322 
L 231.361882 158.211512 
L 246.800618 162.744898 
L 262.239353 113.054331 
L 277.678088 146.753386 
L 293.116823 147.044661 
L 308.555558 158.878765 
L 323.994293 166.471249 
L 339.433029 166.857294 
L 354.871764 164.723108 
L 370.310499 166.429804 
L 385.749234 167.313671 
L 401.187969 167.327166 
L 416.626705 167.22895 
" style="fill:none;stroke:#1b9e77;stroke-linecap:square;stroke-opacity:0.5;stroke-width:1.5;"/>
   </g>
   <g id="line2d_25">
    <path clip-path="url(#p872913ec26)" d="M 61.535795 166.742563 
L 76.974531 166.44229 
L 92.413266 163.084906 
L 107.852001 162.477482 
L 123.290736 143.482883 
L 138.729471 165.974441 
L 154.168207 166.762192 
L 169.606942 167.10009 
L 185.045677 166.535431 
L 200.484412 153.311593 
L 215.923147 156.439923 
L 231.361882 154.65284 
L 246.800618 161.353077 
L 262.239353 166.397933 
L 277.678088 166.465079 
L 293.116823 147.547586 
L 308.555558 166.716915 
L 323.994293 161.891257 
L 339.433029 105.25114 
L 354.871764 151.990241 
L 370.310499 166.628912 
L 385.749234 167.087083 
L 401.187969 167.041167 
L 416.626705 166.627333 
" style="fill:none;stroke:#1b9e77;stroke-linecap:square;stroke-opacity:0.5;stroke-width:1.5;"/>
   </g>
   <g id="line2d_26">
    <path clip-path="url(#p872913ec26)" d="M 61.535795 167.306696 
L 76.974531 167.362374 
L 92.413266 167.254668 
L 107.852001 166.707686 
L 123.290736 165.288766 
L 138.729471 133.075918 
L 154.168207 165.379864 
L 169.606942 158.566533 
L 185.045677 105.181015 
L 200.484412 158.601364 
L 215.923147 113.705791 
L 231.361882 158.468499 
L 246.800618 162.516604 
L 262.239353 166.547156 
L 277.678088 167.202543 
L 293.116823 167.11377 
L 308.555558 167.084395 
L 323.994293 167.092231 
L 339.433029 167.192798 
L 354.871764 167.248719 
L 370.310499 167.244081 
L 385.749234 167.29015 
L 401.187969 167.268092 
L 416.626705 167.304641 
" style="fill:none;stroke:#1b9e77;stroke-linecap:square;stroke-opacity:0.5;stroke-width:1.5;"/>
   </g>
   <g id="line2d_27">
    <path clip-path="url(#p872913ec26)" d="M 61.535795 166.868416 
L 76.974531 166.918436 
L 92.413266 166.480924 
L 107.852001 166.633656 
L 123.290736 160.701142 
L 138.729471 113.948092 
L 154.168207 130.179682 
L 169.606942 122.988154 
L 185.045677 141.365763 
L 200.484412 162.406855 
L 215.923147 164.869735 
L 231.361882 164.995284 
L 246.800618 166.551434 
L 262.239353 167.104168 
L 277.678088 167.220446 
L 293.116823 167.251386 
L 308.555558 166.644741 
L 323.994293 165.153644 
L 339.433029 166.800419 
L 354.871764 167.289858 
L 370.310499 166.577807 
L 385.749234 165.003054 
L 401.187969 166.723574 
L 416.626705 167.327689 
" style="fill:none;stroke:#1b9e77;stroke-linecap:square;stroke-opacity:0.5;stroke-width:1.5;"/>
   </g>
   <g id="line2d_28">
    <path clip-path="url(#p872913ec26)" d="M 61.535795 140.603954 
L 76.974531 140.931523 
L 92.413266 148.17798 
L 107.852001 147.511473 
L 123.290736 136.848363 
L 138.729471 153.6849 
L 154.168207 164.758242 
L 169.606942 166.250181 
L 185.045677 166.034569 
L 200.484412 165.954809 
L 215.923147 163.647505 
L 231.361882 165.585918 
L 246.800618 166.91108 
L 262.239353 166.884033 
L 277.678088 166.134215 
L 293.116823 163.305571 
L 308.555558 160.621866 
L 323.994293 164.343462 
L 339.433029 165.974467 
L 354.871764 164.794629 
L 370.310499 161.145688 
L 385.749234 162.449304 
L 401.187969 166.103298 
L 416.626705 159.34733 
" style="fill:none;stroke:#1b9e77;stroke-linecap:square;stroke-opacity:0.5;stroke-width:1.5;"/>
   </g>
   <g id="line2d_29">
    <path clip-path="url(#p872913ec26)" d="M 61.535795 167.252821 
L 76.974531 167.185201 
L 92.413266 167.284691 
L 107.852001 167.341196 
L 123.290736 166.728681 
L 138.729471 165.62119 
L 154.168207 149.249267 
L 169.606942 130.656244 
L 185.045677 146.408551 
L 200.484412 136.237546 
L 215.923147 129.357643 
L 231.361882 165.071746 
L 246.800618 166.814767 
L 262.239353 150.277159 
L 277.678088 159.25095 
L 293.116823 166.069852 
L 308.555558 167.10024 
L 323.994293 167.023705 
L 339.433029 165.161022 
L 354.871764 159.76291 
L 370.310499 166.874128 
L 385.749234 167.237404 
L 401.187969 167.25064 
L 416.626705 166.786807 
" style="fill:none;stroke:#1b9e77;stroke-linecap:square;stroke-opacity:0.5;stroke-width:1.5;"/>
   </g>
   <g id="line2d_30">
    <path clip-path="url(#p872913ec26)" d="M 61.535795 167.351679 
L 76.974531 167.30168 
L 92.413266 167.266919 
L 107.852001 167.245142 
L 123.290736 166.972378 
L 138.729471 164.68923 
L 154.168207 162.641873 
L 169.606942 160.219513 
L 185.045677 163.914739 
L 200.484412 158.563765 
L 215.923147 159.122069 
L 231.361882 164.170746 
L 246.800618 162.377039 
L 262.239353 139.513433 
L 277.678088 159.326 
L 293.116823 165.069903 
L 308.555558 160.065586 
L 323.994293 160.97916 
L 339.433029 152.089758 
L 354.871764 150.686448 
L 370.310499 119.514674 
L 385.749234 156.537958 
L 401.187969 166.065411 
L 416.626705 166.319257 
" style="fill:none;stroke:#1b9e77;stroke-linecap:square;stroke-opacity:0.5;stroke-width:1.5;"/>
   </g>
   <g id="line2d_31">
    <path clip-path="url(#p872913ec26)" d="M 61.535795 146.062348 
L 76.974531 152.206385 
L 92.413266 158.736105 
L 107.852001 164.262054 
L 123.290736 165.311799 
L 138.729471 166.27655 
L 154.168207 166.677623 
L 169.606942 166.766575 
L 185.045677 166.64225 
L 200.484412 166.374619 
L 215.923147 166.162241 
L 231.361882 166.489877 
L 246.800618 166.788089 
L 262.239353 166.955094 
L 277.678088 167.019566 
L 293.116823 167.179807 
L 308.555558 167.031706 
L 323.994293 165.480586 
L 339.433029 146.742409 
L 354.871764 121.547145 
L 370.310499 161.713224 
L 385.749234 147.502421 
L 401.187969 136.019514 
L 416.626705 162.05637 
" style="fill:none;stroke:#1b9e77;stroke-linecap:square;stroke-opacity:0.5;stroke-width:1.5;"/>
   </g>
   <g id="line2d_32">
    <path clip-path="url(#p872913ec26)" d="M 61.535795 167.325021 
L 76.974531 167.182229 
L 92.413266 167.016462 
L 107.852001 167.102841 
L 123.290736 166.543833 
L 138.729471 158.285344 
L 154.168207 163.79005 
L 169.606942 166.405926 
L 185.045677 161.4297 
L 200.484412 155.983458 
L 215.923147 166.325602 
L 231.361882 154.072829 
L 246.800618 132.74121 
L 262.239353 162.727859 
L 277.678088 155.376932 
L 293.116823 94.207078 
L 308.555558 151.182833 
L 323.994293 166.866164 
L 339.433029 167.185928 
L 354.871764 167.173216 
L 370.310499 167.177438 
L 385.749234 167.275726 
L 401.187969 167.267653 
L 416.626705 167.35902 
" style="fill:none;stroke:#1b9e77;stroke-linecap:square;stroke-opacity:0.5;stroke-width:1.5;"/>
   </g>
   <g id="line2d_33">
    <path clip-path="url(#p872913ec26)" d="M 61.535795 167.173575 
L 76.974531 167.281067 
L 92.413266 163.888554 
L 107.852001 165.25814 
L 123.290736 161.798827 
L 138.729471 122.107643 
L 154.168207 149.66241 
L 169.606942 144.50682 
L 185.045677 121.34817 
L 200.484412 145.68241 
L 215.923147 155.536381 
L 231.361882 157.442394 
L 246.800618 165.872589 
L 262.239353 167.155773 
L 277.678088 167.291681 
L 293.116823 167.306999 
L 308.555558 167.309526 
L 323.994293 167.322096 
L 339.433029 167.332137 
L 354.871764 167.338233 
L 370.310499 167.33831 
L 385.749234 167.359766 
L 401.187969 167.365617 
L 416.626705 167.325244 
" style="fill:none;stroke:#1b9e77;stroke-linecap:square;stroke-opacity:0.5;stroke-width:1.5;"/>
   </g>
   <g id="line2d_34">
    <path clip-path="url(#p872913ec26)" d="M 61.535795 132.039909 
L 76.974531 128.151955 
L 92.413266 144.105624 
L 107.852001 156.25433 
L 123.290736 159.697388 
L 138.729471 160.543528 
L 154.168207 160.882649 
L 169.606942 163.996993 
L 185.045677 165.494575 
L 200.484412 165.64182 
L 215.923147 164.963495 
L 231.361882 165.400802 
L 246.800618 166.123045 
L 262.239353 166.990552 
L 277.678088 167.129491 
L 293.116823 167.053762 
L 308.555558 166.813675 
L 323.994293 166.711638 
L 339.433029 164.766204 
L 354.871764 134.955727 
L 370.310499 163.983819 
L 385.749234 165.664692 
L 401.187969 164.655067 
L 416.626705 165.983616 
" style="fill:none;stroke:#1b9e77;stroke-linecap:square;stroke-opacity:0.5;stroke-width:1.5;"/>
   </g>
   <g id="line2d_35">
    <path clip-path="url(#p872913ec26)" d="M 61.535795 167.286862 
L 76.974531 167.232398 
L 92.413266 167.29927 
L 107.852001 167.317167 
L 123.290736 167.324123 
L 138.729471 167.336749 
L 154.168207 167.322522 
L 169.606942 166.751182 
L 185.045677 160.598536 
L 200.484412 162.837881 
L 215.923147 139.943245 
L 231.361882 111.197857 
L 246.800618 139.930616 
L 262.239353 145.97553 
L 277.678088 153.61315 
L 293.116823 154.35379 
L 308.555558 163.81577 
L 323.994293 167.137425 
L 339.433029 167.295819 
L 354.871764 166.974169 
L 370.310499 165.823306 
L 385.749234 161.175258 
L 401.187969 163.522526 
L 416.626705 165.93921 
" style="fill:none;stroke:#1b9e77;stroke-linecap:square;stroke-opacity:0.5;stroke-width:1.5;"/>
   </g>
   <g id="line2d_36">
    <path clip-path="url(#p872913ec26)" d="M 61.535795 167.206367 
L 76.974531 167.339813 
L 92.413266 166.605728 
L 107.852001 164.141008 
L 123.290736 119.556162 
L 138.729471 118.030016 
L 154.168207 164.231254 
L 169.606942 166.70771 
L 185.045677 166.949057 
L 200.484412 166.641367 
L 215.923147 167.217001 
L 231.361882 167.321304 
L 246.800618 167.183069 
L 262.239353 166.735805 
L 277.678088 166.278869 
L 293.116823 166.536713 
L 308.555558 165.48982 
L 323.994293 158.727388 
L 339.433029 164.152207 
L 354.871764 165.282091 
L 370.310499 162.653042 
L 385.749234 153.594264 
L 401.187969 125.660226 
L 416.626705 163.764072 
" style="fill:none;stroke:#1b9e77;stroke-linecap:square;stroke-opacity:0.5;stroke-width:1.5;"/>
   </g>
   <g id="line2d_37">
    <path clip-path="url(#p872913ec26)" d="M 61.535795 167.349154 
L 76.974531 167.363553 
L 92.413266 167.343316 
L 107.852001 167.345984 
L 123.290736 167.160429 
L 138.729471 167.322576 
L 154.168207 167.330822 
L 169.606942 166.695027 
L 185.045677 146.62797 
L 200.484412 151.471217 
L 215.923147 167.074626 
L 231.361882 160.975322 
L 246.800618 156.643704 
L 262.239353 159.686156 
L 277.678088 142.378408 
L 293.116823 90.104066 
L 308.555558 158.118887 
L 323.994293 165.83724 
L 339.433029 166.733204 
L 354.871764 165.595765 
L 370.310499 158.204005 
L 385.749234 166.197289 
L 401.187969 167.130514 
L 416.626705 167.315122 
" style="fill:none;stroke:#1b9e77;stroke-linecap:square;stroke-opacity:0.5;stroke-width:1.5;"/>
   </g>
   <g id="line2d_38">
    <path clip-path="url(#p872913ec26)" d="M 61.535795 165.974157 
L 76.974531 161.012839 
L 92.413266 150.801841 
L 107.852001 146.038002 
L 123.290736 159.051977 
L 138.729471 160.302247 
L 154.168207 160.678126 
L 169.606942 165.493264 
L 185.045677 138.583655 
L 200.484412 159.05677 
L 215.923147 165.168809 
L 231.361882 155.217071 
L 246.800618 154.280147 
L 262.239353 140.954358 
L 277.678088 143.924712 
L 293.116823 163.350756 
L 308.555558 167.005927 
L 323.994293 167.107813 
L 339.433029 167.259471 
L 354.871764 167.322492 
L 370.310499 167.337967 
L 385.749234 167.356922 
L 401.187969 167.360445 
L 416.626705 167.364587 
" style="fill:none;stroke:#1b9e77;stroke-linecap:square;stroke-opacity:0.5;stroke-width:1.5;"/>
   </g>
   <g id="line2d_39">
    <path clip-path="url(#p872913ec26)" d="M 61.535795 163.425697 
L 76.974531 157.453659 
L 92.413266 167.004551 
L 107.852001 166.988912 
L 123.290736 166.9499 
L 138.729471 167.007058 
L 154.168207 167.060865 
L 169.606942 167.054719 
L 185.045677 167.028265 
L 200.484412 167.039578 
L 215.923147 166.554395 
L 231.361882 143.999071 
L 246.800618 150.515392 
L 262.239353 143.94122 
L 277.678088 117.359782 
L 293.116823 151.048568 
L 308.555558 160.078063 
L 323.994293 160.147474 
L 339.433029 163.734129 
L 354.871764 167.07311 
L 370.310499 166.672256 
L 385.749234 149.481593 
L 401.187969 164.337236 
L 416.626705 166.048869 
" style="fill:none;stroke:#1b9e77;stroke-linecap:square;stroke-opacity:0.5;stroke-width:1.5;"/>
   </g>
   <g id="line2d_40">
    <path clip-path="url(#p872913ec26)" d="M 61.535795 166.217494 
L 76.974531 164.882123 
L 92.413266 127.193959 
L 107.852001 163.108246 
L 123.290736 166.822502 
L 138.729471 167.251432 
L 154.168207 165.768232 
L 169.606942 159.519621 
L 185.045677 109.471047 
L 200.484412 167.138866 
L 215.923147 167.277449 
L 231.361882 163.468657 
L 246.800618 117.890256 
L 262.239353 153.396813 
L 277.678088 166.278511 
L 293.116823 167.33533 
L 308.555558 167.334902 
L 323.994293 166.884763 
L 339.433029 166.928934 
L 354.871764 167.217446 
L 370.310499 165.973032 
L 385.749234 166.663351 
L 401.187969 166.662085 
L 416.626705 167.31931 
" style="fill:none;stroke:#1b9e77;stroke-linecap:square;stroke-opacity:0.5;stroke-width:1.5;"/>
   </g>
   <g id="line2d_41">
    <path clip-path="url(#p872913ec26)" d="M 61.535795 167.168057 
L 76.974531 166.883474 
L 92.413266 166.896741 
L 107.852001 167.072636 
L 123.290736 167.147009 
L 138.729471 167.266309 
L 154.168207 167.319672 
L 169.606942 167.349069 
L 185.045677 167.355742 
L 200.484412 167.361624 
L 215.923147 167.353447 
L 231.361882 166.452413 
L 246.800618 162.78531 
L 262.239353 156.211189 
L 277.678088 130.55288 
L 293.116823 133.146588 
L 308.555558 160.034882 
L 323.994293 143.807729 
L 339.433029 146.937713 
L 354.871764 164.83828 
L 370.310499 165.07431 
L 385.749234 157.327641 
L 401.187969 146.720358 
L 416.626705 154.941279 
" style="fill:none;stroke:#1b9e77;stroke-linecap:square;stroke-opacity:0.5;stroke-width:1.5;"/>
   </g>
   <g id="line2d_42">
    <path clip-path="url(#p872913ec26)" d="M 61.535795 166.800799 
L 76.974531 163.987771 
L 92.413266 164.222536 
L 107.852001 165.823625 
L 123.290736 166.52207 
L 138.729471 166.400324 
L 154.168207 166.968287 
L 169.606942 166.979287 
L 185.045677 165.918049 
L 200.484412 160.479267 
L 215.923147 155.029194 
L 231.361882 111.067275 
L 246.800618 124.19026 
L 262.239353 118.665172 
L 277.678088 161.187882 
L 293.116823 166.47795 
L 308.555558 166.966125 
L 323.994293 167.040971 
L 339.433029 167.156684 
L 354.871764 167.207462 
L 370.310499 167.203559 
L 385.749234 167.298328 
L 401.187969 167.341022 
L 416.626705 167.07046 
" style="fill:none;stroke:#1b9e77;stroke-linecap:square;stroke-opacity:0.5;stroke-width:1.5;"/>
   </g>
   <g id="line2d_43">
    <path clip-path="url(#p872913ec26)" d="M 61.535795 167.287547 
L 76.974531 167.149038 
L 92.413266 167.1875 
L 107.852001 167.306238 
L 123.290736 167.337033 
L 138.729471 167.350534 
L 154.168207 167.348748 
L 169.606942 167.350427 
L 185.045677 167.351618 
L 200.484412 167.355616 
L 215.923147 167.336439 
L 231.361882 167.231669 
L 246.800618 167.153073 
L 262.239353 166.611723 
L 277.678088 157.131442 
L 293.116823 128.812546 
L 308.555558 161.239131 
L 323.994293 147.503482 
L 339.433029 96.838567 
L 354.871764 149.174157 
L 370.310499 160.141934 
L 385.749234 161.11586 
L 401.187969 158.102973 
L 416.626705 166.587065 
" style="fill:none;stroke:#1b9e77;stroke-linecap:square;stroke-opacity:0.5;stroke-width:1.5;"/>
   </g>
   <g id="line2d_44">
    <path clip-path="url(#p872913ec26)" d="M 61.535795 167.068355 
L 76.974531 167.330756 
L 92.413266 167.294665 
L 107.852001 167.045276 
L 123.290736 164.316559 
L 138.729471 164.195527 
L 154.168207 167.216453 
L 169.606942 161.342374 
L 185.045677 148.544959 
L 200.484412 95.964105 
L 215.923147 109.621724 
L 231.361882 151.541293 
L 246.800618 163.824175 
L 262.239353 164.783356 
L 277.678088 165.736762 
L 293.116823 166.109244 
L 308.555558 166.323934 
L 323.994293 166.577231 
L 339.433029 166.841833 
L 354.871764 167.111666 
L 370.310499 167.229513 
L 385.749234 167.321334 
L 401.187969 167.323634 
L 416.626705 167.339636 
" style="fill:none;stroke:#1b9e77;stroke-linecap:square;stroke-opacity:0.5;stroke-width:1.5;"/>
   </g>
   <g id="line2d_45">
    <path clip-path="url(#p872913ec26)" d="M 61.535795 163.855695 
L 76.974531 163.358327 
L 92.413266 163.546704 
L 107.852001 166.094965 
L 123.290736 166.848934 
L 138.729471 167.230041 
L 154.168207 167.299048 
L 169.606942 167.307258 
L 185.045677 167.263768 
L 200.484412 167.233263 
L 215.923147 164.857277 
L 231.361882 56.598456 
L 246.800618 140.896286 
L 262.239353 163.661524 
L 277.678088 162.765165 
L 293.116823 157.530652 
L 308.555558 160.697376 
L 323.994293 164.42451 
L 339.433029 165.657532 
L 354.871764 165.345912 
L 370.310499 165.608237 
L 385.749234 167.081896 
L 401.187969 167.128035 
L 416.626705 165.713502 
" style="fill:none;stroke:#1b9e77;stroke-linecap:square;stroke-opacity:0.5;stroke-width:1.5;"/>
   </g>
   <g id="line2d_46">
    <path clip-path="url(#p872913ec26)" d="M 61.535795 155.940182 
L 76.974531 149.988799 
L 92.413266 148.751997 
L 107.852001 149.588406 
L 123.290736 160.246366 
L 138.729471 166.277178 
L 154.168207 165.253013 
L 169.606942 157.908166 
L 185.045677 130.439906 
L 200.484412 153.198087 
L 215.923147 157.045466 
L 231.361882 162.853266 
L 246.800618 166.820634 
L 262.239353 167.069531 
L 277.678088 167.170157 
L 293.116823 163.01887 
L 308.555558 154.104816 
L 323.994293 148.907278 
L 339.433029 167.132365 
L 354.871764 167.164626 
L 370.310499 167.198124 
L 385.749234 167.275155 
L 401.187969 167.293235 
L 416.626705 167.358733 
" style="fill:none;stroke:#1b9e77;stroke-linecap:square;stroke-opacity:0.5;stroke-width:1.5;"/>
   </g>
   <g id="line2d_47">
    <path clip-path="url(#p872913ec26)" d="M 61.535795 167.265971 
L 76.974531 167.139337 
L 92.413266 167.155635 
L 107.852001 167.244234 
L 123.290736 167.260086 
L 138.729471 167.267839 
L 154.168207 167.219164 
L 169.606942 167.264536 
L 185.045677 167.086655 
L 200.484412 164.858545 
L 215.923147 157.293838 
L 231.361882 160.476728 
L 246.800618 148.840429 
L 262.239353 113.218914 
L 277.678088 91.851605 
L 293.116823 155.890737 
L 308.555558 166.549728 
L 323.994293 166.152925 
L 339.433029 164.440199 
L 354.871764 166.581078 
L 370.310499 166.977913 
L 385.749234 167.198654 
L 401.187969 167.27412 
L 416.626705 165.495493 
" style="fill:none;stroke:#1b9e77;stroke-linecap:square;stroke-opacity:0.5;stroke-width:1.5;"/>
   </g>
   <g id="line2d_48">
    <path clip-path="url(#p872913ec26)" d="M 61.535795 165.431384 
L 76.974531 163.796174 
L 92.413266 164.358675 
L 107.852001 165.668529 
L 123.290736 166.044885 
L 138.729471 166.612305 
L 154.168207 166.886487 
L 169.606942 167.07497 
L 185.045677 167.135983 
L 200.484412 167.19281 
L 215.923147 167.224244 
L 231.361882 167.249373 
L 246.800618 167.268909 
L 262.239353 167.286839 
L 277.678088 167.289949 
L 293.116823 167.306676 
L 308.555558 167.290472 
L 323.994293 167.273989 
L 339.433029 167.151206 
L 354.871764 166.615218 
L 370.310499 164.679012 
L 385.749234 143.19838 
L 401.187969 74.825975 
L 416.626705 113.141916 
" style="fill:none;stroke:#1b9e77;stroke-linecap:square;stroke-opacity:0.5;stroke-width:1.5;"/>
   </g>
   <g id="line2d_49">
    <path clip-path="url(#p872913ec26)" d="M 61.535795 166.917428 
L 76.974531 166.564676 
L 92.413266 166.801981 
L 107.852001 167.062255 
L 123.290736 167.137826 
L 138.729471 167.278554 
L 154.168207 167.328149 
L 169.606942 167.33355 
L 185.045677 167.18698 
L 200.484412 167.168554 
L 215.923147 165.304662 
L 231.361882 152.264612 
L 246.800618 124.093842 
L 262.239353 64.729203 
L 277.678088 147.841944 
L 293.116823 166.866725 
L 308.555558 166.797586 
L 323.994293 166.869166 
L 339.433029 167.014951 
L 354.871764 167.042989 
L 370.310499 166.981552 
L 385.749234 167.197815 
L 401.187969 167.309178 
L 416.626705 166.910183 
" style="fill:none;stroke:#1b9e77;stroke-linecap:square;stroke-opacity:0.5;stroke-width:1.5;"/>
   </g>
   <g id="line2d_50">
    <path clip-path="url(#p872913ec26)" d="M 61.535795 166.007612 
L 76.974531 163.11865 
L 92.413266 125.355526 
L 107.852001 159.439549 
L 123.290736 148.003027 
L 138.729471 161.521954 
L 154.168207 164.919254 
L 169.606942 160.543168 
L 185.045677 161.87867 
L 200.484412 164.312686 
L 215.923147 165.266133 
L 231.361882 163.038208 
L 246.800618 154.473224 
L 262.239353 145.145334 
L 277.678088 121.022937 
L 293.116823 166.354856 
L 308.555558 167.003283 
L 323.994293 166.917872 
L 339.433029 167.123362 
L 354.871764 167.236206 
L 370.310499 167.272986 
L 385.749234 167.332979 
L 401.187969 167.351297 
L 416.626705 167.365586 
" style="fill:none;stroke:#1b9e77;stroke-linecap:square;stroke-opacity:0.5;stroke-width:1.5;"/>
   </g>
   <g id="line2d_51">
    <path clip-path="url(#p872913ec26)" d="M 61.535795 166.297137 
L 76.974531 141.5724 
L 92.413266 124.053824 
L 107.852001 158.48476 
L 123.290736 161.250939 
L 138.729471 137.436356 
L 154.168207 151.595173 
L 169.606942 162.756112 
L 185.045677 163.726692 
L 200.484412 163.021819 
L 215.923147 162.944261 
L 231.361882 162.771089 
L 246.800618 145.888897 
L 262.239353 159.016649 
L 277.678088 166.059158 
L 293.116823 165.371129 
L 308.555558 165.254425 
L 323.994293 167.180754 
L 339.433029 167.23491 
L 354.871764 167.206081 
L 370.310499 167.20925 
L 385.749234 167.249293 
L 401.187969 167.167365 
L 416.626705 167.255885 
" style="fill:none;stroke:#1b9e77;stroke-linecap:square;stroke-opacity:0.5;stroke-width:1.5;"/>
   </g>
   <g id="line2d_52">
    <path clip-path="url(#p872913ec26)" d="M 61.535795 167.267243 
L 76.974531 167.119016 
L 92.413266 167.232353 
L 107.852001 167.31044 
L 123.290736 167.328802 
L 138.729471 167.346235 
L 154.168207 167.34513 
L 169.606942 167.164572 
L 185.045677 165.268099 
L 200.484412 165.142954 
L 215.923147 160.134581 
L 231.361882 146.394871 
L 246.800618 16.16585 
L 262.239353 166.884025 
L 277.678088 167.33756 
L 293.116823 167.308056 
L 308.555558 167.279149 
L 323.994293 167.18183 
L 339.433029 167.350747 
L 354.871764 166.996007 
L 370.310499 166.470994 
L 385.749234 166.476639 
L 401.187969 166.329625 
L 416.626705 167.169584 
" style="fill:none;stroke:#1b9e77;stroke-linecap:square;stroke-opacity:0.5;stroke-width:1.5;"/>
   </g>
   <g id="line2d_53">
    <path clip-path="url(#p872913ec26)" d="M 61.535795 163.536298 
L 76.974531 164.177708 
L 92.413266 165.008135 
L 107.852001 166.816217 
L 123.290736 167.139593 
L 138.729471 166.894468 
L 154.168207 165.988945 
L 169.606942 165.661587 
L 185.045677 165.791048 
L 200.484412 165.883159 
L 215.923147 165.529582 
L 231.361882 163.964069 
L 246.800618 161.319293 
L 262.239353 161.651146 
L 277.678088 163.374608 
L 293.116823 147.881814 
L 308.555558 152.506396 
L 323.994293 163.081696 
L 339.433029 161.726007 
L 354.871764 165.985265 
L 370.310499 164.050477 
L 385.749234 150.451011 
L 401.187969 126.034275 
L 416.626705 123.551565 
" style="fill:none;stroke:#1b9e77;stroke-linecap:square;stroke-opacity:0.5;stroke-width:1.5;"/>
   </g>
   <g id="line2d_54">
    <path clip-path="url(#p872913ec26)" d="M 61.535795 161.669756 
L 76.974531 155.481822 
L 92.413266 157.520749 
L 107.852001 161.036507 
L 123.290736 155.257051 
L 138.729471 140.298809 
L 154.168207 153.202616 
L 169.606942 151.848808 
L 185.045677 150.385939 
L 200.484412 147.675879 
L 215.923147 153.446207 
L 231.361882 156.553041 
L 246.800618 154.389822 
L 262.239353 156.583469 
L 277.678088 167.144945 
L 293.116823 167.163191 
L 308.555558 167.179241 
L 323.994293 167.200421 
L 339.433029 167.263706 
L 354.871764 167.310767 
L 370.310499 167.325419 
L 385.749234 167.357763 
L 401.187969 167.364018 
L 416.626705 167.344405 
" style="fill:none;stroke:#1b9e77;stroke-linecap:square;stroke-opacity:0.5;stroke-width:1.5;"/>
   </g>
   <g id="line2d_55">
    <path clip-path="url(#p872913ec26)" d="M 61.535795 165.357842 
L 76.974531 159.809632 
L 92.413266 160.945718 
L 107.852001 163.611773 
L 123.290736 165.778894 
L 138.729471 166.370762 
L 154.168207 166.677207 
L 169.606942 166.916855 
L 185.045677 166.992 
L 200.484412 167.059344 
L 215.923147 167.112809 
L 231.361882 167.193821 
L 246.800618 167.247075 
L 262.239353 167.329091 
L 277.678088 167.35057 
L 293.116823 167.346185 
L 308.555558 167.31811 
L 323.994293 167.297866 
L 339.433029 164.496332 
L 354.871764 81.313204 
L 370.310499 117.651036 
L 385.749234 147.559185 
L 401.187969 163.43528 
L 416.626705 165.833763 
" style="fill:none;stroke:#1b9e77;stroke-linecap:square;stroke-opacity:0.5;stroke-width:1.5;"/>
   </g>
   <g id="line2d_56">
    <path clip-path="url(#p872913ec26)" d="M 61.535795 152.259644 
L 76.974531 112.640065 
L 92.413266 86.29056 
L 107.852001 158.157096 
L 123.290736 160.914174 
L 138.729471 156.968102 
L 154.168207 163.527043 
L 169.606942 165.721065 
L 185.045677 165.937065 
L 200.484412 166.537791 
L 215.923147 166.838107 
L 231.361882 165.413761 
L 246.800618 167.28098 
L 262.239353 167.2798 
L 277.678088 167.255048 
L 293.116823 167.300909 
L 308.555558 167.337286 
L 323.994293 167.337036 
L 339.433029 167.324686 
L 354.871764 167.312482 
L 370.310499 167.324798 
L 385.749234 167.359207 
L 401.187969 167.343828 
L 416.626705 166.343825 
" style="fill:none;stroke:#1b9e77;stroke-linecap:square;stroke-opacity:0.5;stroke-width:1.5;"/>
   </g>
   <g id="line2d_57">
    <path clip-path="url(#p872913ec26)" d="M 61.535795 167.327561 
L 76.974531 167.272284 
L 92.413266 167.30716 
L 107.852001 167.341034 
L 123.290736 167.347288 
L 138.729471 167.355295 
L 154.168207 167.347956 
L 169.606942 165.832928 
L 185.045677 166.664549 
L 200.484412 157.02211 
L 215.923147 123.321243 
L 231.361882 148.100571 
L 246.800618 82.600907 
L 262.239353 159.10721 
L 277.678088 161.861601 
L 293.116823 157.989746 
L 308.555558 165.452453 
L 323.994293 165.689088 
L 339.433029 166.813329 
L 354.871764 167.135295 
L 370.310499 167.193463 
L 385.749234 167.262134 
L 401.187969 167.298729 
L 416.626705 167.360423 
" style="fill:none;stroke:#1b9e77;stroke-linecap:square;stroke-opacity:0.5;stroke-width:1.5;"/>
   </g>
   <g id="line2d_58">
    <path clip-path="url(#p872913ec26)" d="M 61.535795 165.379554 
L 76.974531 164.706257 
L 92.413266 162.15049 
L 107.852001 156.081996 
L 123.290736 116.016403 
L 138.729471 128.407302 
L 154.168207 159.971928 
L 169.606942 157.76603 
L 185.045677 147.807693 
L 200.484412 140.685537 
L 215.923147 163.651471 
L 231.361882 163.575149 
L 246.800618 162.435941 
L 262.239353 166.898259 
L 277.678088 167.043049 
L 293.116823 167.149383 
L 308.555558 167.145229 
L 323.994293 167.192535 
L 339.433029 167.249992 
L 354.871764 167.298476 
L 370.310499 167.322264 
L 385.749234 167.35564 
L 401.187969 167.363597 
L 416.626705 167.350183 
" style="fill:none;stroke:#1b9e77;stroke-linecap:square;stroke-opacity:0.5;stroke-width:1.5;"/>
   </g>
   <g id="line2d_59">
    <path clip-path="url(#p872913ec26)" d="M 61.535795 163.012128 
L 76.974531 158.645779 
L 92.413266 157.08468 
L 107.852001 159.328493 
L 123.290736 161.81202 
L 138.729471 159.327238 
L 154.168207 166.833316 
L 169.606942 167.007058 
L 185.045677 166.937626 
L 200.484412 167.030967 
L 215.923147 167.115433 
L 231.361882 167.204209 
L 246.800618 167.135623 
L 262.239353 167.208024 
L 277.678088 155.421228 
L 293.116823 125.692956 
L 308.555558 150.652555 
L 323.994293 142.068956 
L 339.433029 148.189671 
L 354.871764 162.670234 
L 370.310499 166.121551 
L 385.749234 166.071756 
L 401.187969 148.563622 
L 416.626705 166.869232 
" style="fill:none;stroke:#1b9e77;stroke-linecap:square;stroke-opacity:0.5;stroke-width:1.5;"/>
   </g>
   <g id="line2d_60">
    <path clip-path="url(#p872913ec26)" d="M 61.535795 166.300876 
L 76.974531 166.858174 
L 92.413266 166.56216 
L 107.852001 167.037194 
L 123.290736 165.285044 
L 138.729471 166.220124 
L 154.168207 165.730773 
L 169.606942 163.421268 
L 185.045677 161.3819 
L 200.484412 165.264916 
L 215.923147 166.776953 
L 231.361882 166.167959 
L 246.800618 163.429869 
L 262.239353 162.017272 
L 277.678088 165.710417 
L 293.116823 158.754641 
L 308.555558 109.929733 
L 323.994293 94.453791 
L 339.433029 162.576728 
L 354.871764 163.631532 
L 370.310499 163.630357 
L 385.749234 164.786382 
L 401.187969 164.911514 
L 416.626705 167.164776 
" style="fill:none;stroke:#1b9e77;stroke-linecap:square;stroke-opacity:0.5;stroke-width:1.5;"/>
   </g>
   <g id="line2d_61">
    <path clip-path="url(#p872913ec26)" d="M 61.535795 155.456714 
L 76.974531 150.616626 
L 92.413266 144.700796 
L 107.852001 154.108764 
L 123.290736 156.940285 
L 138.729471 162.919847 
L 154.168207 165.742202 
L 169.606942 166.35685 
L 185.045677 166.192 
L 200.484412 166.742623 
L 215.923147 166.97874 
L 231.361882 155.1183 
L 246.800618 143.144313 
L 262.239353 160.847437 
L 277.678088 162.381442 
L 293.116823 162.574842 
L 308.555558 165.08785 
L 323.994293 164.941047 
L 339.433029 162.962331 
L 354.871764 161.403051 
L 370.310499 161.197732 
L 385.749234 166.394603 
L 401.187969 167.18451 
L 416.626705 138.011449 
" style="fill:none;stroke:#1b9e77;stroke-linecap:square;stroke-opacity:0.5;stroke-width:1.5;"/>
   </g>
   <g id="line2d_62">
    <path clip-path="url(#p872913ec26)" d="M 61.535795 167.285965 
L 76.974531 167.130052 
L 92.413266 166.750451 
L 107.852001 165.522757 
L 123.290736 165.697174 
L 138.729471 166.425957 
L 154.168207 165.928988 
L 169.606942 166.27903 
L 185.045677 165.116239 
L 200.484412 165.725915 
L 215.923147 166.760623 
L 231.361882 166.972635 
L 246.800618 166.064425 
L 262.239353 139.11919 
L 277.678088 160.367275 
L 293.116823 153.469526 
L 308.555558 68.757455 
L 323.994293 143.749697 
L 339.433029 166.606279 
L 354.871764 167.188743 
L 370.310499 167.16179 
L 385.749234 166.088092 
L 401.187969 166.858813 
L 416.626705 166.977283 
" style="fill:none;stroke:#1b9e77;stroke-linecap:square;stroke-opacity:0.5;stroke-width:1.5;"/>
   </g>
   <g id="line2d_63">
    <path clip-path="url(#p872913ec26)" d="M 61.535795 163.697016 
L 76.974531 160.581773 
L 92.413266 161.085457 
L 107.852001 165.291187 
L 123.290736 166.616181 
L 138.729471 166.925521 
L 154.168207 166.929675 
L 169.606942 166.82934 
L 185.045677 166.706352 
L 200.484412 166.888256 
L 215.923147 167.012921 
L 231.361882 167.113866 
L 246.800618 167.145157 
L 262.239353 167.245069 
L 277.678088 167.2793 
L 293.116823 167.320912 
L 308.555558 167.286621 
L 323.994293 159.760399 
L 339.433029 157.598603 
L 354.871764 164.900921 
L 370.310499 164.41144 
L 385.749234 164.046476 
L 401.187969 108.67242 
L 416.626705 86.659492 
" style="fill:none;stroke:#1b9e77;stroke-linecap:square;stroke-opacity:0.5;stroke-width:1.5;"/>
   </g>
   <g id="line2d_64">
    <path clip-path="url(#p872913ec26)" d="M 61.535795 167.319486 
L 76.974531 167.18886 
L 92.413266 167.224946 
L 107.852001 167.268182 
L 123.290736 167.283295 
L 138.729471 167.318741 
L 154.168207 167.326306 
L 169.606942 167.349204 
L 185.045677 167.236459 
L 200.484412 166.803784 
L 215.923147 164.182705 
L 231.361882 163.338548 
L 246.800618 161.31765 
L 262.239353 161.83709 
L 277.678088 166.683555 
L 293.116823 166.386902 
L 308.555558 154.186543 
L 323.994293 110.246888 
L 339.433029 129.579626 
L 354.871764 162.983036 
L 370.310499 161.701623 
L 385.749234 142.458809 
L 401.187969 143.759435 
L 416.626705 167.022683 
" style="fill:none;stroke:#1b9e77;stroke-linecap:square;stroke-opacity:0.5;stroke-width:1.5;"/>
   </g>
   <g id="line2d_65">
    <path clip-path="url(#p872913ec26)" d="M 61.535795 146.308505 
L 76.974531 160.727035 
L 92.413266 166.294261 
L 107.852001 166.170456 
L 123.290736 166.162985 
L 138.729471 166.769405 
L 154.168207 167.231546 
L 169.606942 167.255592 
L 185.045677 167.137119 
L 200.484412 167.15535 
L 215.923147 167.272806 
L 231.361882 167.317807 
L 246.800618 167.305103 
L 262.239353 167.328271 
L 277.678088 167.250574 
L 293.116823 164.756621 
L 308.555558 101.845326 
L 323.994293 129.744414 
L 339.433029 150.300836 
L 354.871764 154.595099 
L 370.310499 163.550236 
L 385.749234 166.599951 
L 401.187969 167.320952 
L 416.626705 151.604108 
" style="fill:none;stroke:#1b9e77;stroke-linecap:square;stroke-opacity:0.5;stroke-width:1.5;"/>
   </g>
   <g id="line2d_66">
    <path clip-path="url(#p872913ec26)" d="M 61.535795 167.314706 
L 76.974531 167.270552 
L 92.413266 167.306709 
L 107.852001 167.344607 
L 123.290736 167.351602 
L 138.729471 167.3581 
L 154.168207 167.348898 
L 169.606942 167.070458 
L 185.045677 165.442478 
L 200.484412 159.552409 
L 215.923147 144.694898 
L 231.361882 140.817878 
L 246.800618 126.60903 
L 262.239353 144.736266 
L 277.678088 145.706681 
L 293.116823 148.803266 
L 308.555558 151.743819 
L 323.994293 162.929277 
L 339.433029 166.035956 
L 354.871764 166.499333 
L 370.310499 166.285848 
L 385.749234 166.238649 
L 401.187969 166.291913 
L 416.626705 167.251027 
" style="fill:none;stroke:#1b9e77;stroke-linecap:square;stroke-opacity:0.5;stroke-width:1.5;"/>
   </g>
   <g id="line2d_67">
    <path clip-path="url(#p872913ec26)" d="M 61.535795 153.253875 
L 76.974531 117.093537 
L 92.413266 141.34351 
L 107.852001 157.590315 
L 123.290736 162.64891 
L 138.729471 165.798037 
L 154.168207 166.689432 
L 169.606942 166.844601 
L 185.045677 166.6956 
L 200.484412 166.962098 
L 215.923147 167.152245 
L 231.361882 167.216521 
L 246.800618 167.20943 
L 262.239353 167.150245 
L 277.678088 166.998977 
L 293.116823 166.968197 
L 308.555558 166.97507 
L 323.994293 167.082929 
L 339.433029 167.105494 
L 354.871764 166.93471 
L 370.310499 166.472988 
L 385.749234 166.77442 
L 401.187969 166.915802 
L 416.626705 92.12741 
" style="fill:none;stroke:#1b9e77;stroke-linecap:square;stroke-opacity:0.5;stroke-width:1.5;"/>
   </g>
   <g id="line2d_68">
    <path clip-path="url(#p872913ec26)" d="M 61.535795 167.292618 
L 76.974531 167.26615 
L 92.413266 167.296479 
L 107.852001 167.321247 
L 123.290736 167.314421 
L 138.729471 167.345241 
L 154.168207 167.349542 
L 169.606942 166.838615 
L 185.045677 166.109576 
L 200.484412 167.248081 
L 215.923147 162.002488 
L 231.361882 154.253498 
L 246.800618 163.762194 
L 262.239353 162.464464 
L 277.678088 78.917871 
L 293.116823 101.579711 
L 308.555558 166.235426 
L 323.994293 167.229769 
L 339.433029 167.336617 
L 354.871764 167.270407 
L 370.310499 166.480588 
L 385.749234 167.267272 
L 401.187969 167.36068 
L 416.626705 164.461397 
" style="fill:none;stroke:#1b9e77;stroke-linecap:square;stroke-opacity:0.5;stroke-width:1.5;"/>
   </g>
   <g id="line2d_69">
    <path clip-path="url(#p872913ec26)" d="M 61.535795 165.976566 
L 76.974531 164.886156 
L 92.413266 165.231839 
L 107.852001 166.41744 
L 123.290736 166.816723 
L 138.729471 166.949387 
L 154.168207 167.010037 
L 169.606942 167.050002 
L 185.045677 167.026364 
L 200.484412 167.109629 
L 215.923147 167.187294 
L 231.361882 167.252093 
L 246.800618 167.286457 
L 262.239353 167.322853 
L 277.678088 167.331536 
L 293.116823 167.338476 
L 308.555558 167.170336 
L 323.994293 163.482115 
L 339.433029 161.415583 
L 354.871764 162.752047 
L 370.310499 161.870356 
L 385.749234 105.888228 
L 401.187969 95.821984 
L 416.626705 141.410858 
" style="fill:none;stroke:#1b9e77;stroke-linecap:square;stroke-opacity:0.5;stroke-width:1.5;"/>
   </g>
   <g id="line2d_70">
    <path clip-path="url(#p872913ec26)" d="M 61.535795 107.821936 
L 76.974531 123.199593 
L 92.413266 139.501655 
L 107.852001 161.401408 
L 123.290736 165.416038 
L 138.729471 166.221583 
L 154.168207 165.842334 
L 169.606942 165.976781 
L 185.045677 166.484181 
L 200.484412 166.795855 
L 215.923147 166.651466 
L 231.361882 165.10037 
L 246.800618 160.928437 
L 262.239353 163.155119 
L 277.678088 165.703051 
L 293.116823 162.310812 
L 308.555558 164.137661 
L 323.994293 161.475458 
L 339.433029 161.368411 
L 354.871764 164.758797 
L 370.310499 165.849197 
L 385.749234 166.418866 
L 401.187969 166.317727 
L 416.626705 165.167624 
" style="fill:none;stroke:#1b9e77;stroke-linecap:square;stroke-opacity:0.5;stroke-width:1.5;"/>
   </g>
   <g id="line2d_71">
    <path clip-path="url(#p872913ec26)" d="M 61.535795 151.96146 
L 76.974531 161.941216 
L 92.413266 157.112393 
L 107.852001 117.22256 
L 123.290736 116.032688 
L 138.729471 150.386646 
L 154.168207 155.519607 
L 169.606942 153.98049 
L 185.045677 162.959806 
L 200.484412 165.028332 
L 215.923147 166.256725 
L 231.361882 166.832812 
L 246.800618 167.106217 
L 262.239353 167.149282 
L 277.678088 167.155509 
L 293.116823 167.180961 
L 308.555558 167.134876 
L 323.994293 167.201383 
L 339.433029 167.267681 
L 354.871764 166.944506 
L 370.310499 166.844596 
L 385.749234 167.021156 
L 401.187969 167.318491 
L 416.626705 164.444962 
" style="fill:none;stroke:#1b9e77;stroke-linecap:square;stroke-opacity:0.5;stroke-width:1.5;"/>
   </g>
   <g id="line2d_72">
    <path clip-path="url(#p872913ec26)" d="M 61.535795 167.281344 
L 76.974531 167.211497 
L 92.413266 167.293855 
L 107.852001 167.347422 
L 123.290736 167.353096 
L 138.729471 167.356322 
L 154.168207 167.342654 
L 169.606942 167.308015 
L 185.045677 164.839146 
L 200.484412 155.869078 
L 215.923147 153.642945 
L 231.361882 137.452436 
L 246.800618 98.810941 
L 262.239353 135.696006 
L 277.678088 149.923054 
L 293.116823 163.556242 
L 308.555558 167.266503 
L 323.994293 167.188614 
L 339.433029 166.397565 
L 354.871764 167.120506 
L 370.310499 164.568724 
L 385.749234 165.055545 
L 401.187969 165.092836 
L 416.626705 167.030006 
" style="fill:none;stroke:#1b9e77;stroke-linecap:square;stroke-opacity:0.5;stroke-width:1.5;"/>
   </g>
   <g id="line2d_73">
    <path clip-path="url(#p872913ec26)" d="M 61.535795 166.772353 
L 76.974531 166.72241 
L 92.413266 167.138492 
L 107.852001 167.229816 
L 123.290736 167.237761 
L 138.729471 167.270029 
L 154.168207 167.245253 
L 169.606942 164.321507 
L 185.045677 152.328819 
L 200.484412 164.056645 
L 215.923147 167.252451 
L 231.361882 167.260873 
L 246.800618 166.557283 
L 262.239353 164.484634 
L 277.678088 167.29784 
L 293.116823 167.282718 
L 308.555558 167.113142 
L 323.994293 167.139598 
L 339.433029 152.613893 
L 354.871764 112.134715 
L 370.310499 145.120559 
L 385.749234 155.927627 
L 401.187969 148.739411 
L 416.626705 128.756528 
" style="fill:none;stroke:#1b9e77;stroke-linecap:square;stroke-opacity:0.5;stroke-width:1.5;"/>
   </g>
   <g id="line2d_74">
    <path clip-path="url(#p872913ec26)" d="M 61.535795 165.119683 
L 76.974531 161.959592 
L 92.413266 160.951137 
L 107.852001 162.544589 
L 123.290736 163.103472 
L 138.729471 165.647087 
L 154.168207 166.734321 
L 169.606942 166.895556 
L 185.045677 166.609037 
L 200.484412 166.795972 
L 215.923147 167.087575 
L 231.361882 167.120441 
L 246.800618 166.97869 
L 262.239353 166.232079 
L 277.678088 164.15693 
L 293.116823 163.591455 
L 308.555558 161.647964 
L 323.994293 129.676718 
L 339.433029 159.046548 
L 354.871764 158.400001 
L 370.310499 159.070849 
L 385.749234 164.278825 
L 401.187969 153.396748 
L 416.626705 100.959095 
" style="fill:none;stroke:#1b9e77;stroke-linecap:square;stroke-opacity:0.5;stroke-width:1.5;"/>
   </g>
   <g id="line2d_75">
    <path clip-path="url(#p872913ec26)" d="M 61.535795 138.189832 
L 76.974531 129.222245 
L 92.413266 133.395388 
L 107.852001 155.348317 
L 123.290736 161.660863 
L 138.729471 164.462435 
L 154.168207 165.011709 
L 169.606942 164.888843 
L 185.045677 164.59484 
L 200.484412 165.594095 
L 215.923147 166.262237 
L 231.361882 166.389645 
L 246.800618 166.358457 
L 262.239353 166.893463 
L 277.678088 167.161644 
L 293.116823 167.193018 
L 308.555558 167.137557 
L 323.994293 167.134449 
L 339.433029 166.847087 
L 354.871764 160.815187 
L 370.310499 151.720725 
L 385.749234 159.48773 
L 401.187969 152.519375 
L 416.626705 159.715217 
" style="fill:none;stroke:#1b9e77;stroke-linecap:square;stroke-opacity:0.5;stroke-width:1.5;"/>
   </g>
   <g id="line2d_76">
    <path clip-path="url(#p872913ec26)" d="M 61.535795 167.090695 
L 76.974531 167.069712 
L 92.413266 163.989246 
L 107.852001 160.874682 
L 123.290736 156.074033 
L 138.729471 92.082312 
L 154.168207 151.173572 
L 169.606942 166.254566 
L 185.045677 166.591044 
L 200.484412 166.326671 
L 215.923147 166.691734 
L 231.361882 167.081255 
L 246.800618 167.07459 
L 262.239353 167.260688 
L 277.678088 146.738715 
L 293.116823 120.04499 
L 308.555558 165.905901 
L 323.994293 166.403676 
L 339.433029 167.116517 
L 354.871764 167.316464 
L 370.310499 167.354397 
L 385.749234 167.355321 
L 401.187969 167.035006 
L 416.626705 167.098566 
" style="fill:none;stroke:#1b9e77;stroke-linecap:square;stroke-opacity:0.5;stroke-width:1.5;"/>
   </g>
   <g id="line2d_77">
    <path clip-path="url(#p872913ec26)" d="M 61.535795 167.35162 
L 76.974531 167.343978 
L 92.413266 167.343682 
L 107.852001 167.292375 
L 123.290736 163.925073 
L 138.729471 161.726132 
L 154.168207 157.668552 
L 169.606942 161.269189 
L 185.045677 165.993009 
L 200.484412 166.78177 
L 215.923147 167.274045 
L 231.361882 167.329265 
L 246.800618 167.333041 
L 262.239353 167.339004 
L 277.678088 167.345314 
L 293.116823 167.27474 
L 308.555558 166.547795 
L 323.994293 165.440155 
L 339.433029 162.775511 
L 354.871764 147.842416 
L 370.310499 140.060068 
L 385.749234 110.390563 
L 401.187969 118.295027 
L 416.626705 166.062029 
" style="fill:none;stroke:#1b9e77;stroke-linecap:square;stroke-opacity:0.5;stroke-width:1.5;"/>
   </g>
   <g id="line2d_78">
    <path clip-path="url(#p872913ec26)" d="M 61.535795 167.354887 
L 76.974531 167.340621 
L 92.413266 167.345956 
L 107.852001 167.352947 
L 123.290736 167.347595 
L 138.729471 167.354913 
L 154.168207 167.325588 
L 169.606942 166.801239 
L 185.045677 165.881737 
L 200.484412 162.927427 
L 215.923147 156.765229 
L 231.361882 155.526765 
L 246.800618 144.186052 
L 262.239353 135.676129 
L 277.678088 123.346685 
L 293.116823 160.608054 
L 308.555558 163.953623 
L 323.994293 144.505425 
L 339.433029 160.450042 
L 354.871764 167.029363 
L 370.310499 166.71297 
L 385.749234 166.357118 
L 401.187969 160.229352 
L 416.626705 155.624628 
" style="fill:none;stroke:#1b9e77;stroke-linecap:square;stroke-opacity:0.5;stroke-width:1.5;"/>
   </g>
   <g id="line2d_79">
    <path clip-path="url(#p872913ec26)" d="M 61.535795 167.311782 
L 76.974531 167.22806 
L 92.413266 167.171297 
L 107.852001 163.705065 
L 123.290736 157.062904 
L 138.729471 146.35627 
L 154.168207 133.730948 
L 169.606942 132.979519 
L 185.045677 135.74513 
L 200.484412 116.970652 
L 215.923147 165.997209 
L 231.361882 167.051158 
L 246.800618 166.964598 
L 262.239353 166.994517 
L 277.678088 167.148912 
L 293.116823 167.226761 
L 308.555558 167.235815 
L 323.994293 167.26634 
L 339.433029 167.284096 
L 354.871764 167.323614 
L 370.310499 167.34128 
L 385.749234 167.35759 
L 401.187969 167.357814 
L 416.626705 167.193026 
" style="fill:none;stroke:#1b9e77;stroke-linecap:square;stroke-opacity:0.5;stroke-width:1.5;"/>
   </g>
   <g id="line2d_80">
    <path clip-path="url(#p872913ec26)" d="M 61.535795 167.330888 
L 76.974531 167.234836 
L 92.413266 167.229373 
L 107.852001 167.26895 
L 123.290736 167.278283 
L 138.729471 167.328459 
L 154.168207 167.352318 
L 169.606942 167.345876 
L 185.045677 167.33787 
L 200.484412 167.356926 
L 215.923147 167.100832 
L 231.361882 165.857079 
L 246.800618 166.12675 
L 262.239353 160.342261 
L 277.678088 84.410972 
L 293.116823 116.320932 
L 308.555558 162.20785 
L 323.994293 167.256228 
L 339.433029 166.010945 
L 354.871764 164.130715 
L 370.310499 153.008465 
L 385.749234 156.565179 
L 401.187969 162.092595 
L 416.626705 163.509773 
" style="fill:none;stroke:#1b9e77;stroke-linecap:square;stroke-opacity:0.5;stroke-width:1.5;"/>
   </g>
   <g id="line2d_81">
    <path clip-path="url(#p872913ec26)" d="M 61.535795 167.341285 
L 76.974531 167.038001 
L 92.413266 163.913929 
L 107.852001 160.376976 
L 123.290736 166.508222 
L 138.729471 164.506891 
L 154.168207 159.600262 
L 169.606942 158.864796 
L 185.045677 158.502399 
L 200.484412 150.484921 
L 215.923147 158.330353 
L 231.361882 155.175737 
L 246.800618 166.875842 
L 262.239353 162.510754 
L 277.678088 161.534809 
L 293.116823 132.301369 
L 308.555558 158.203276 
L 323.994293 166.968039 
L 339.433029 167.022197 
L 354.871764 160.701859 
L 370.310499 156.353032 
L 385.749234 148.630389 
L 401.187969 148.941468 
L 416.626705 167.317547 
" style="fill:none;stroke:#1b9e77;stroke-linecap:square;stroke-opacity:0.5;stroke-width:1.5;"/>
   </g>
   <g id="line2d_82">
    <path clip-path="url(#p872913ec26)" d="M 61.535795 160.017949 
L 76.974531 149.5352 
L 92.413266 103.03347 
L 107.852001 150.242806 
L 123.290736 163.555884 
L 138.729471 164.132495 
L 154.168207 163.216736 
L 169.606942 166.293984 
L 185.045677 167.241412 
L 200.484412 167.350757 
L 215.923147 167.354952 
L 231.361882 167.325181 
L 246.800618 164.693444 
L 262.239353 166.849456 
L 277.678088 165.944324 
L 293.116823 167.037944 
L 308.555558 166.188279 
L 323.994293 162.49978 
L 339.433029 151.188621 
L 354.871764 133.927723 
L 370.310499 162.027269 
L 385.749234 166.797345 
L 401.187969 166.758765 
L 416.626705 164.790578 
" style="fill:none;stroke:#1b9e77;stroke-linecap:square;stroke-opacity:0.5;stroke-width:1.5;"/>
   </g>
   <g id="line2d_83">
    <path clip-path="url(#p872913ec26)" d="M 61.535795 141.8434 
L 76.974531 139.34927 
L 92.413266 141.109503 
L 107.852001 160.677014 
L 123.290736 165.596974 
L 138.729471 167.047938 
L 154.168207 167.184848 
L 169.606942 167.040366 
L 185.045677 166.406914 
L 200.484412 163.842704 
L 215.923147 155.340071 
L 231.361882 162.87684 
L 246.800618 165.085425 
L 262.239353 159.807815 
L 277.678088 156.912797 
L 293.116823 155.468608 
L 308.555558 153.198174 
L 323.994293 154.856212 
L 339.433029 159.338318 
L 354.871764 162.50598 
L 370.310499 163.893102 
L 385.749234 165.494766 
L 401.187969 166.373262 
L 416.626705 166.754065 
" style="fill:none;stroke:#1b9e77;stroke-linecap:square;stroke-opacity:0.5;stroke-width:1.5;"/>
   </g>
   <g id="line2d_84">
    <path clip-path="url(#p872913ec26)" d="M 61.535795 156.204661 
L 76.974531 157.555346 
L 92.413266 161.154929 
L 107.852001 165.132944 
L 123.290736 166.008494 
L 138.729471 166.734466 
L 154.168207 167.035101 
L 169.606942 167.21734 
L 185.045677 167.230626 
L 200.484412 167.263372 
L 215.923147 167.227184 
L 231.361882 166.342583 
L 246.800618 157.119433 
L 262.239353 147.552614 
L 277.678088 162.520256 
L 293.116823 157.836702 
L 308.555558 161.371433 
L 323.994293 163.171843 
L 339.433029 162.589445 
L 354.871764 156.99064 
L 370.310499 151.616702 
L 385.749234 163.654713 
L 401.187969 167.077221 
L 416.626705 101.396308 
" style="fill:none;stroke:#1b9e77;stroke-linecap:square;stroke-opacity:0.5;stroke-width:1.5;"/>
   </g>
   <g id="line2d_85">
    <path clip-path="url(#p872913ec26)" d="M 61.535795 165.52698 
L 76.974531 161.028447 
L 92.413266 156.188793 
L 107.852001 154.504459 
L 123.290736 160.183505 
L 138.729471 144.495662 
L 154.168207 144.331488 
L 169.606942 147.320481 
L 185.045677 149.992556 
L 200.484412 160.958719 
L 215.923147 159.732567 
L 231.361882 156.345448 
L 246.800618 148.602241 
L 262.239353 158.901947 
L 277.678088 162.377794 
L 293.116823 163.90317 
L 308.555558 162.921907 
L 323.994293 166.64015 
L 339.433029 167.339746 
L 354.871764 167.32723 
L 370.310499 167.32313 
L 385.749234 167.342374 
L 401.187969 167.350458 
L 416.626705 167.365103 
" style="fill:none;stroke:#1b9e77;stroke-linecap:square;stroke-opacity:0.5;stroke-width:1.5;"/>
   </g>
   <g id="line2d_86">
    <path clip-path="url(#p872913ec26)" d="M 61.535795 164.108911 
L 76.974531 161.581055 
L 92.413266 151.598362 
L 107.852001 149.037112 
L 123.290736 109.236276 
L 138.729471 156.846782 
L 154.168207 116.226083 
L 169.606942 162.667712 
L 185.045677 165.376548 
L 200.484412 163.040985 
L 215.923147 164.646506 
L 231.361882 165.037518 
L 246.800618 164.180721 
L 262.239353 163.740885 
L 277.678088 166.380636 
L 293.116823 166.905717 
L 308.555558 166.903479 
L 323.994293 166.99607 
L 339.433029 167.156935 
L 354.871764 167.268987 
L 370.310499 167.30739 
L 385.749234 167.344509 
L 401.187969 167.354001 
L 416.626705 167.061176 
" style="fill:none;stroke:#1b9e77;stroke-linecap:square;stroke-opacity:0.5;stroke-width:1.5;"/>
   </g>
   <g id="line2d_87">
    <path clip-path="url(#p872913ec26)" d="M 61.535795 166.217636 
L 76.974531 159.91571 
L 92.413266 86.84115 
L 107.852001 138.79117 
L 123.290736 160.337127 
L 138.729471 141.226211 
L 154.168207 147.091893 
L 169.606942 167.063808 
L 185.045677 167.344041 
L 200.484412 167.324032 
L 215.923147 166.645701 
L 231.361882 167.094798 
L 246.800618 163.670604 
L 262.239353 157.137325 
L 277.678088 165.399675 
L 293.116823 167.248363 
L 308.555558 167.302862 
L 323.994293 167.267937 
L 339.433029 167.313056 
L 354.871764 167.340835 
L 370.310499 167.345981 
L 385.749234 167.356855 
L 401.187969 167.361735 
L 416.626705 167.36585 
" style="fill:none;stroke:#1b9e77;stroke-linecap:square;stroke-opacity:0.5;stroke-width:1.5;"/>
   </g>
   <g id="line2d_88">
    <path clip-path="url(#p872913ec26)" d="M 61.535795 167.346932 
L 76.974531 167.309737 
L 92.413266 167.306233 
L 107.852001 167.341868 
L 123.290736 167.351366 
L 138.729471 167.3606 
L 154.168207 167.3552 
L 169.606942 167.306241 
L 185.045677 167.174357 
L 200.484412 165.932137 
L 215.923147 162.170844 
L 231.361882 161.168239 
L 246.800618 164.896822 
L 262.239353 161.9083 
L 277.678088 82.417876 
L 293.116823 117.022945 
L 308.555558 159.157563 
L 323.994293 161.298629 
L 339.433029 163.503482 
L 354.871764 165.783258 
L 370.310499 165.056943 
L 385.749234 163.395998 
L 401.187969 164.708775 
L 416.626705 163.730012 
" style="fill:none;stroke:#1b9e77;stroke-linecap:square;stroke-opacity:0.5;stroke-width:1.5;"/>
   </g>
   <g id="line2d_89">
    <path clip-path="url(#p872913ec26)" d="M 61.535795 167.350342 
L 76.974531 167.350053 
L 92.413266 167.349399 
L 107.852001 167.355511 
L 123.290736 167.346865 
L 138.729471 166.403221 
L 154.168207 149.260396 
L 169.606942 140.333928 
L 185.045677 162.098327 
L 200.484412 165.701519 
L 215.923147 161.317645 
L 231.361882 156.429785 
L 246.800618 166.784671 
L 262.239353 167.243572 
L 277.678088 167.136448 
L 293.116823 167.252683 
L 308.555558 159.890273 
L 323.994293 147.492206 
L 339.433029 139.394553 
L 354.871764 140.469466 
L 370.310499 145.974161 
L 385.749234 161.350067 
L 401.187969 163.205733 
L 416.626705 163.513532 
" style="fill:none;stroke:#1b9e77;stroke-linecap:square;stroke-opacity:0.5;stroke-width:1.5;"/>
   </g>
   <g id="line2d_90">
    <path clip-path="url(#p872913ec26)" d="M 61.535795 167.18316 
L 76.974531 167.143443 
L 92.413266 167.206729 
L 107.852001 167.32124 
L 123.290736 167.305091 
L 138.729471 166.974411 
L 154.168207 144.056656 
L 169.606942 92.254681 
L 185.045677 123.993118 
L 200.484412 145.359751 
L 215.923147 166.040611 
L 231.361882 151.036221 
L 246.800618 166.896387 
L 262.239353 164.924286 
L 277.678088 166.462846 
L 293.116823 166.745627 
L 308.555558 166.784563 
L 323.994293 166.928511 
L 339.433029 167.062349 
L 354.871764 167.214628 
L 370.310499 167.291421 
L 385.749234 167.354731 
L 401.187969 167.360521 
L 416.626705 167.103374 
" style="fill:none;stroke:#1b9e77;stroke-linecap:square;stroke-opacity:0.5;stroke-width:1.5;"/>
   </g>
   <g id="line2d_91">
    <path clip-path="url(#p872913ec26)" d="M 61.535795 165.125511 
L 76.974531 161.599011 
L 92.413266 156.157577 
L 107.852001 138.466801 
L 123.290736 105.892304 
L 138.729471 146.76448 
L 154.168207 166.713117 
L 169.606942 167.000894 
L 185.045677 166.930907 
L 200.484412 167.132587 
L 215.923147 167.277593 
L 231.361882 167.336764 
L 246.800618 167.320763 
L 262.239353 167.344781 
L 277.678088 162.636931 
L 293.116823 145.780288 
L 308.555558 164.180412 
L 323.994293 163.296651 
L 339.433029 163.793664 
L 354.871764 163.4684 
L 370.310499 156.905281 
L 385.749234 165.716836 
L 401.187969 164.869203 
L 416.626705 166.293596 
" style="fill:none;stroke:#1b9e77;stroke-linecap:square;stroke-opacity:0.5;stroke-width:1.5;"/>
   </g>
   <g id="line2d_92">
    <path clip-path="url(#p872913ec26)" d="M 61.535795 144.022104 
L 76.974531 153.072458 
L 92.413266 159.857935 
L 107.852001 165.105627 
L 123.290736 165.878856 
L 138.729471 166.477784 
L 154.168207 166.726982 
L 169.606942 166.753149 
L 185.045677 166.549351 
L 200.484412 166.274838 
L 215.923147 165.906339 
L 231.361882 166.59379 
L 246.800618 166.808948 
L 262.239353 165.329206 
L 277.678088 159.072335 
L 293.116823 159.118306 
L 308.555558 154.749997 
L 323.994293 136.77647 
L 339.433029 155.964051 
L 354.871764 155.240394 
L 370.310499 141.197414 
L 385.749234 155.291752 
L 401.187969 165.119487 
L 416.626705 160.116787 
" style="fill:none;stroke:#1b9e77;stroke-linecap:square;stroke-opacity:0.5;stroke-width:1.5;"/>
   </g>
   <g id="line2d_93">
    <path clip-path="url(#p872913ec26)" d="M 61.535795 167.302113 
L 76.974531 167.343622 
L 92.413266 167.003752 
L 107.852001 167.162804 
L 123.290736 166.373471 
L 138.729471 167.286915 
L 154.168207 167.342239 
L 169.606942 166.719039 
L 185.045677 160.271674 
L 200.484412 89.931369 
L 215.923147 166.261603 
L 231.361882 152.028094 
L 246.800618 157.232806 
L 262.239353 166.221466 
L 277.678088 161.639734 
L 293.116823 117.111553 
L 308.555558 166.01386 
L 323.994293 165.069553 
L 339.433029 165.492991 
L 354.871764 155.833132 
L 370.310499 166.936074 
L 385.749234 167.222515 
L 401.187969 166.994591 
L 416.626705 167.209388 
" style="fill:none;stroke:#1b9e77;stroke-linecap:square;stroke-opacity:0.5;stroke-width:1.5;"/>
   </g>
   <g id="line2d_94">
    <path clip-path="url(#p872913ec26)" d="M 61.535795 162.998862 
L 76.974531 162.605956 
L 92.413266 158.057132 
L 107.852001 154.051973 
L 123.290736 154.561146 
L 138.729471 157.137579 
L 154.168207 165.720722 
L 169.606942 167.157116 
L 185.045677 167.071313 
L 200.484412 161.349871 
L 215.923147 138.488558 
L 231.361882 153.96258 
L 246.800618 107.333903 
L 262.239353 158.575495 
L 277.678088 165.858186 
L 293.116823 166.1293 
L 308.555558 163.231335 
L 323.994293 163.789035 
L 339.433029 165.778406 
L 354.871764 166.830187 
L 370.310499 166.252418 
L 385.749234 166.687078 
L 401.187969 167.093064 
L 416.626705 167.28315 
" style="fill:none;stroke:#1b9e77;stroke-linecap:square;stroke-opacity:0.5;stroke-width:1.5;"/>
   </g>
   <g id="line2d_95">
    <path clip-path="url(#p872913ec26)" d="M 61.535795 166.959966 
L 76.974531 167.05523 
L 92.413266 167.089193 
L 107.852001 167.024374 
L 123.290736 158.544935 
L 138.729471 147.84592 
L 154.168207 147.825307 
L 169.606942 144.122127 
L 185.045677 143.325949 
L 200.484412 119.489155 
L 215.923147 151.498348 
L 231.361882 147.536464 
L 246.800618 164.733266 
L 262.239353 162.770324 
L 277.678088 167.002374 
L 293.116823 167.060989 
L 308.555558 167.081891 
L 323.994293 167.138085 
L 339.433029 167.219015 
L 354.871764 167.293614 
L 370.310499 167.31609 
L 385.749234 167.35061 
L 401.187969 167.361206 
L 416.626705 167.359924 
" style="fill:none;stroke:#1b9e77;stroke-linecap:square;stroke-opacity:0.5;stroke-width:1.5;"/>
   </g>
   <g id="line2d_96">
    <path clip-path="url(#p872913ec26)" d="M 61.535795 167.20025 
L 76.974531 166.977485 
L 92.413266 167.062268 
L 107.852001 167.196446 
L 123.290736 167.219731 
L 138.729471 167.299665 
L 154.168207 167.295206 
L 169.606942 160.256531 
L 185.045677 160.253425 
L 200.484412 152.005017 
L 215.923147 118.533883 
L 231.361882 100.913109 
L 246.800618 138.186949 
L 262.239353 162.087352 
L 277.678088 165.972155 
L 293.116823 166.166054 
L 308.555558 167.011412 
L 323.994293 167.095057 
L 339.433029 167.314957 
L 354.871764 167.349155 
L 370.310499 167.040249 
L 385.749234 166.396378 
L 401.187969 164.335042 
L 416.626705 166.83658 
" style="fill:none;stroke:#1b9e77;stroke-linecap:square;stroke-opacity:0.5;stroke-width:1.5;"/>
   </g>
   <g id="line2d_97">
    <path clip-path="url(#p872913ec26)" d="M 61.535795 160.115197 
L 76.974531 147.533916 
L 92.413266 155.479568 
L 107.852001 166.20874 
L 123.290736 166.844769 
L 138.729471 166.995151 
L 154.168207 167.179504 
L 169.606942 167.184611 
L 185.045677 167.100299 
L 200.484412 167.171347 
L 215.923147 167.220495 
L 231.361882 167.098711 
L 246.800618 166.743679 
L 262.239353 167.02687 
L 277.678088 165.701763 
L 293.116823 134.817113 
L 308.555558 152.225197 
L 323.994293 139.361311 
L 339.433029 143.78628 
L 354.871764 156.813416 
L 370.310499 162.41746 
L 385.749234 143.932536 
L 401.187969 162.215778 
L 416.626705 166.83064 
" style="fill:none;stroke:#1b9e77;stroke-linecap:square;stroke-opacity:0.5;stroke-width:1.5;"/>
   </g>
   <g id="line2d_98">
    <path clip-path="url(#p872913ec26)" d="M 61.535795 166.459357 
L 76.974531 161.634407 
L 92.413266 156.458023 
L 107.852001 162.770201 
L 123.290736 150.988767 
L 138.729471 142.625646 
L 154.168207 137.019135 
L 169.606942 128.015196 
L 185.045677 159.15065 
L 200.484412 159.719603 
L 215.923147 155.322576 
L 231.361882 159.892915 
L 246.800618 166.455314 
L 262.239353 166.217555 
L 277.678088 166.174012 
L 293.116823 166.744666 
L 308.555558 166.90017 
L 323.994293 166.43502 
L 339.433029 165.854038 
L 354.871764 165.460724 
L 370.310499 163.245536 
L 385.749234 163.612443 
L 401.187969 163.69701 
L 416.626705 167.151395 
" style="fill:none;stroke:#1b9e77;stroke-linecap:square;stroke-opacity:0.5;stroke-width:1.5;"/>
   </g>
   <g id="line2d_99">
    <path clip-path="url(#p872913ec26)" d="M 61.535795 130.010836 
L 76.974531 136.067843 
L 92.413266 166.947846 
L 107.852001 158.858576 
L 123.290736 112.620145 
L 138.729471 165.997005 
L 154.168207 161.072259 
L 169.606942 160.794068 
L 185.045677 167.284699 
L 200.484412 166.700241 
L 215.923147 164.951218 
L 231.361882 166.329783 
L 246.800618 164.137858 
L 262.239353 159.391915 
L 277.678088 164.164262 
L 293.116823 165.338687 
L 308.555558 164.51673 
L 323.994293 164.460232 
L 339.433029 163.221474 
L 354.871764 164.003464 
L 370.310499 165.071928 
L 385.749234 163.242722 
L 401.187969 165.593271 
L 416.626705 167.227297 
" style="fill:none;stroke:#1b9e77;stroke-linecap:square;stroke-opacity:0.5;stroke-width:1.5;"/>
   </g>
   <g id="line2d_100">
    <path clip-path="url(#p872913ec26)" d="M 61.535795 167.05652 
L 76.974531 167.081082 
L 92.413266 167.150953 
L 107.852001 167.339298 
L 123.290736 167.360985 
L 138.729471 167.359459 
L 154.168207 167.352071 
L 169.606942 167.298415 
L 185.045677 167.185353 
L 200.484412 167.233758 
L 215.923147 167.161665 
L 231.361882 166.771618 
L 246.800618 166.477725 
L 262.239353 165.853462 
L 277.678088 164.32408 
L 293.116823 156.986959 
L 308.555558 130.091481 
L 323.994293 120.384103 
L 339.433029 157.08717 
L 354.871764 156.3542 
L 370.310499 156.270631 
L 385.749234 161.50017 
L 401.187969 160.167521 
L 416.626705 126.155678 
" style="fill:none;stroke:#1b9e77;stroke-linecap:square;stroke-opacity:0.5;stroke-width:1.5;"/>
   </g>
   <g id="line2d_101">
    <path clip-path="url(#p872913ec26)" d="M 61.535795 167.201308 
L 76.974531 166.925284 
L 92.413266 165.737562 
L 107.852001 162.369883 
L 123.290736 164.659133 
L 138.729471 166.929096 
L 154.168207 167.10898 
L 169.606942 167.19211 
L 185.045677 167.129101 
L 200.484412 167.040772 
L 215.923147 166.684816 
L 231.361882 165.077728 
L 246.800618 157.30937 
L 262.239353 146.964953 
L 277.678088 81.315266 
L 293.116823 144.246916 
L 308.555558 158.788202 
L 323.994293 153.722809 
L 339.433029 163.678351 
L 354.871764 161.765497 
L 370.310499 165.508826 
L 385.749234 166.751271 
L 401.187969 166.572175 
L 416.626705 167.324947 
" style="fill:none;stroke:#1b9e77;stroke-linecap:square;stroke-opacity:0.5;stroke-width:1.5;"/>
   </g>
   <g id="line2d_102">
    <path clip-path="url(#p872913ec26)" d="M 61.535795 152.817257 
L 76.974531 135.700312 
L 92.413266 116.068385 
L 107.852001 136.274939 
L 123.290736 143.043117 
L 138.729471 160.263781 
L 154.168207 164.823162 
L 169.606942 164.66212 
L 185.045677 164.954336 
L 200.484412 165.540439 
L 215.923147 166.417213 
L 231.361882 166.195409 
L 246.800618 164.969947 
L 262.239353 165.267324 
L 277.678088 166.19024 
L 293.116823 166.24935 
L 308.555558 165.620883 
L 323.994293 164.71178 
L 339.433029 164.804553 
L 354.871764 165.765929 
L 370.310499 166.392427 
L 385.749234 166.961096 
L 401.187969 167.190869 
L 416.626705 167.119486 
" style="fill:none;stroke:#1b9e77;stroke-linecap:square;stroke-opacity:0.5;stroke-width:1.5;"/>
   </g>
   <g id="line2d_103">
    <path clip-path="url(#p872913ec26)" d="M 61.535795 146.326616 
L 76.974531 159.925319 
L 92.413266 163.708501 
L 107.852001 164.36809 
L 123.290736 143.779138 
L 138.729471 142.815453 
L 154.168207 137.210775 
L 169.606942 134.954317 
L 185.045677 149.608555 
L 200.484412 154.395818 
L 215.923147 163.120033 
L 231.361882 165.693052 
L 246.800618 167.041397 
L 262.239353 167.062282 
L 277.678088 167.249776 
L 293.116823 167.314203 
L 308.555558 167.329761 
L 323.994293 166.905593 
L 339.433029 166.218754 
L 354.871764 167.038023 
L 370.310499 166.634992 
L 385.749234 166.186218 
L 401.187969 165.973901 
L 416.626705 167.143795 
" style="fill:none;stroke:#1b9e77;stroke-linecap:square;stroke-opacity:0.5;stroke-width:1.5;"/>
   </g>
   <g id="line2d_104">
    <path clip-path="url(#p872913ec26)" d="M 61.535795 158.894759 
L 76.974531 157.898395 
L 92.413266 159.738176 
L 107.852001 164.411686 
L 123.290736 165.821068 
L 138.729471 166.135201 
L 154.168207 165.836305 
L 169.606942 166.643827 
L 185.045677 167.105466 
L 200.484412 167.112054 
L 215.923147 166.73604 
L 231.361882 165.662676 
L 246.800618 161.426438 
L 262.239353 149.789372 
L 277.678088 139.543081 
L 293.116823 115.31813 
L 308.555558 159.388228 
L 323.994293 152.771161 
L 339.433029 157.253411 
L 354.871764 161.304891 
L 370.310499 162.48735 
L 385.749234 164.947117 
L 401.187969 165.125119 
L 416.626705 166.6544 
" style="fill:none;stroke:#1b9e77;stroke-linecap:square;stroke-opacity:0.5;stroke-width:1.5;"/>
   </g>
   <g id="line2d_105">
    <path clip-path="url(#p872913ec26)" d="M 61.535795 167.194551 
L 76.974531 167.112427 
L 92.413266 167.164943 
L 107.852001 167.278645 
L 123.290736 167.302633 
L 138.729471 167.343878 
L 154.168207 167.335579 
L 169.606942 164.747125 
L 185.045677 134.950654 
L 200.484412 109.92685 
L 215.923147 145.185456 
L 231.361882 155.383258 
L 246.800618 154.827461 
L 262.239353 159.220716 
L 277.678088 158.461821 
L 293.116823 163.773233 
L 308.555558 163.055966 
L 323.994293 161.125287 
L 339.433029 164.698434 
L 354.871764 166.1263 
L 370.310499 166.111798 
L 385.749234 167.162565 
L 401.187969 163.546988 
L 416.626705 158.967793 
" style="fill:none;stroke:#1b9e77;stroke-linecap:square;stroke-opacity:0.5;stroke-width:1.5;"/>
   </g>
   <g id="line2d_106">
    <path clip-path="url(#p872913ec26)" d="M 61.535795 167.302294 
L 76.974531 167.122033 
L 92.413266 167.137906 
L 107.852001 167.124642 
L 123.290736 161.986848 
L 138.729471 161.474015 
L 154.168207 156.877915 
L 169.606942 145.266297 
L 185.045677 129.060427 
L 200.484412 154.657887 
L 215.923147 165.111329 
L 231.361882 166.530379 
L 246.800618 167.095023 
L 262.239353 166.345854 
L 277.678088 167.191464 
L 293.116823 167.330988 
L 308.555558 167.361694 
L 323.994293 167.305926 
L 339.433029 166.612892 
L 354.871764 167.20295 
L 370.310499 159.614382 
L 385.749234 106.011336 
L 401.187969 149.045153 
L 416.626705 167.234725 
" style="fill:none;stroke:#1b9e77;stroke-linecap:square;stroke-opacity:0.5;stroke-width:1.5;"/>
   </g>
   <g id="line2d_107">
    <path clip-path="url(#p872913ec26)" d="M 61.535795 167.331171 
L 76.974531 167.310529 
L 92.413266 167.320785 
L 107.852001 167.349023 
L 123.290736 167.35238 
L 138.729471 167.346547 
L 154.168207 167.260037 
L 169.606942 167.164168 
L 185.045677 167.342497 
L 200.484412 167.328976 
L 215.923147 167.261166 
L 231.361882 167.3078 
L 246.800618 167.300626 
L 262.239353 167.176767 
L 277.678088 166.841993 
L 293.116823 165.253873 
L 308.555558 162.678365 
L 323.994293 152.184153 
L 339.433029 140.081555 
L 354.871764 145.128648 
L 370.310499 121.614077 
L 385.749234 113.712328 
L 401.187969 154.051606 
L 416.626705 164.305283 
" style="fill:none;stroke:#1b9e77;stroke-linecap:square;stroke-opacity:0.5;stroke-width:1.5;"/>
   </g>
   <g id="line2d_108">
    <path clip-path="url(#p872913ec26)" d="M 61.535795 134.071662 
L 76.974531 129.262129 
L 92.413266 153.209232 
L 107.852001 158.128694 
L 123.290736 155.059457 
L 138.729471 163.891677 
L 154.168207 165.471714 
L 169.606942 166.128245 
L 185.045677 166.311552 
L 200.484412 166.383749 
L 215.923147 166.509797 
L 231.361882 166.389303 
L 246.800618 165.152468 
L 262.239353 139.317599 
L 277.678088 140.190915 
L 293.116823 161.299886 
L 308.555558 164.601043 
L 323.994293 164.849357 
L 339.433029 166.468582 
L 354.871764 166.701132 
L 370.310499 167.082639 
L 385.749234 167.116957 
L 401.187969 167.075926 
L 416.626705 167.330643 
" style="fill:none;stroke:#1b9e77;stroke-linecap:square;stroke-opacity:0.5;stroke-width:1.5;"/>
   </g>
   <g id="line2d_109">
    <path clip-path="url(#p872913ec26)" d="M 61.535795 159.960574 
L 76.974531 116.639737 
L 92.413266 98.642382 
L 107.852001 123.936932 
L 123.290736 160.18272 
L 138.729471 164.878049 
L 154.168207 166.034179 
L 169.606942 166.810614 
L 185.045677 167.022733 
L 200.484412 167.174236 
L 215.923147 167.19131 
L 231.361882 167.122176 
L 246.800618 165.038426 
L 262.239353 166.079447 
L 277.678088 167.152779 
L 293.116823 167.071869 
L 308.555558 166.9827 
L 323.994293 166.898538 
L 339.433029 166.954568 
L 354.871764 167.087138 
L 370.310499 167.150052 
L 385.749234 167.308198 
L 401.187969 167.350116 
L 416.626705 167.334881 
" style="fill:none;stroke:#1b9e77;stroke-linecap:square;stroke-opacity:0.5;stroke-width:1.5;"/>
   </g>
   <g id="line2d_110">
    <path clip-path="url(#p872913ec26)" d="M 61.535795 167.330875 
L 76.974531 167.300206 
L 92.413266 167.31516 
L 107.852001 167.348959 
L 123.290736 167.359845 
L 138.729471 167.363711 
L 154.168207 167.363753 
L 169.606942 167.36538 
L 185.045677 167.363363 
L 200.484412 166.366847 
L 215.923147 164.125349 
L 231.361882 152.707182 
L 246.800618 150.478995 
L 262.239353 145.037274 
L 277.678088 150.807535 
L 293.116823 147.742239 
L 308.555558 154.352068 
L 323.994293 150.274022 
L 339.433029 137.406969 
L 354.871764 156.069681 
L 370.310499 157.207892 
L 385.749234 157.098463 
L 401.187969 164.997459 
L 416.626705 167.22113 
" style="fill:none;stroke:#1b9e77;stroke-linecap:square;stroke-opacity:0.5;stroke-width:1.5;"/>
   </g>
   <g id="line2d_111">
    <path clip-path="url(#p872913ec26)" d="M 61.535795 165.310312 
L 76.974531 161.685205 
L 92.413266 156.591223 
L 107.852001 164.279701 
L 123.290736 166.411415 
L 138.729471 153.876167 
L 154.168207 166.467072 
L 169.606942 165.864594 
L 185.045677 161.603349 
L 200.484412 162.715025 
L 215.923147 165.256017 
L 231.361882 164.591604 
L 246.800618 162.520443 
L 262.239353 162.96231 
L 277.678088 164.365211 
L 293.116823 166.117963 
L 308.555558 165.626097 
L 323.994293 163.516863 
L 339.433029 160.378066 
L 354.871764 163.30502 
L 370.310499 158.388171 
L 385.749234 118.926887 
L 401.187969 131.730747 
L 416.626705 155.514897 
" style="fill:none;stroke:#1b9e77;stroke-linecap:square;stroke-opacity:0.5;stroke-width:1.5;"/>
   </g>
   <g id="line2d_112">
    <path clip-path="url(#p872913ec26)" d="M 61.535795 151.998761 
L 76.974531 159.264226 
L 92.413266 157.563857 
L 107.852001 165.537046 
L 123.290736 156.724308 
L 138.729471 147.350551 
L 154.168207 162.227039 
L 169.606942 166.251236 
L 185.045677 163.282941 
L 200.484412 134.726872 
L 215.923147 159.97575 
L 231.361882 157.761295 
L 246.800618 164.322272 
L 262.239353 147.808113 
L 277.678088 161.747752 
L 293.116823 163.489094 
L 308.555558 163.880638 
L 323.994293 165.303 
L 339.433029 166.157689 
L 354.871764 166.948129 
L 370.310499 167.172294 
L 385.749234 167.229337 
L 401.187969 163.937642 
L 416.626705 147.344518 
" style="fill:none;stroke:#1b9e77;stroke-linecap:square;stroke-opacity:0.5;stroke-width:1.5;"/>
   </g>
   <g id="line2d_113">
    <path clip-path="url(#p872913ec26)" d="M 61.535795 167.188541 
L 76.974531 166.96999 
L 92.413266 167.039226 
L 107.852001 167.171483 
L 123.290736 167.213349 
L 138.729471 167.291363 
L 154.168207 167.331245 
L 169.606942 167.354632 
L 185.045677 167.35721 
L 200.484412 167.352065 
L 215.923147 167.335902 
L 231.361882 167.211572 
L 246.800618 160.054577 
L 262.239353 86.133029 
L 277.678088 83.913768 
L 293.116823 157.305802 
L 308.555558 165.246576 
L 323.994293 165.598982 
L 339.433029 166.716599 
L 354.871764 167.131625 
L 370.310499 167.239835 
L 385.749234 167.270223 
L 401.187969 167.233973 
L 416.626705 167.342786 
" style="fill:none;stroke:#1b9e77;stroke-linecap:square;stroke-opacity:0.5;stroke-width:1.5;"/>
   </g>
   <g id="line2d_114">
    <path clip-path="url(#p872913ec26)" d="M 61.535795 120.826961 
L 76.974531 117.40578 
L 92.413266 141.752276 
L 107.852001 154.57002 
L 123.290736 165.111859 
L 138.729471 167.121436 
L 154.168207 167.351658 
L 169.606942 167.351658 
L 185.045677 167.351658 
L 200.484412 167.221605 
L 215.923147 167.351658 
L 231.361882 167.351658 
L 246.800618 167.351658 
L 262.239353 167.351658 
L 277.678088 164.479466 
L 293.116823 151.053337 
L 308.555558 157.275753 
L 323.994293 160.42091 
L 339.433029 160.151493 
L 354.871764 163.457399 
L 370.310499 165.089094 
L 385.749234 165.902024 
L 401.187969 167.351658 
L 416.626705 167.351658 
" style="fill:none;stroke:#d95f02;stroke-linecap:square;stroke-width:1.5;"/>
   </g>
   <g id="patch_3">
    <path d="M 43.78125 174.92585 
L 43.78125 8.60585 
" style="fill:none;stroke:#000000;stroke-linecap:square;stroke-linejoin:miter;stroke-width:0.8;"/>
   </g>
   <g id="patch_4">
    <path d="M 43.78125 174.92585 
L 434.38125 174.92585 
" style="fill:none;stroke:#000000;stroke-linecap:square;stroke-linejoin:miter;stroke-width:0.8;"/>
   </g>
   <g id="legend_1">
    <g id="patch_5">
     <path d="M 376.214063 31.283975 
L 427.38125 31.283975 
Q 429.38125 31.283975 429.38125 29.283975 
L 429.38125 15.60585 
Q 429.38125 13.60585 427.38125 13.60585 
L 376.214063 13.60585 
Q 374.214063 13.60585 374.214063 15.60585 
L 374.214063 29.283975 
Q 374.214063 31.283975 376.214063 31.283975 
z
" style="fill:#ffffff;opacity:0.8;stroke:#cccccc;stroke-linejoin:miter;"/>
    </g>
    <g id="line2d_115">
     <path d="M 378.214063 21.704288 
L 398.214063 21.704288 
" style="fill:none;stroke:#d95f02;stroke-linecap:square;stroke-width:1.5;"/>
    </g>
    <g id="line2d_116"/>
    <g id="text_16">
     <!-- real -->
     <defs>
      <path d="M 9.421875 75.984375 
L 18.40625 75.984375 
L 18.40625 0 
L 9.421875 0 
z
" id="DejaVuSans-108"/>
     </defs>
     <g transform="translate(406.214063 25.204288)scale(0.1 -0.1)">
      <use xlink:href="#DejaVuSans-114"/>
      <use x="41.082031" xlink:href="#DejaVuSans-101"/>
      <use x="102.605469" xlink:href="#DejaVuSans-97"/>
      <use x="163.884766" xlink:href="#DejaVuSans-108"/>
     </g>
    </g>
   </g>
  </g>
 </g>
 <defs>
  <clipPath id="p872913ec26">
   <rect height="166.32" width="390.6" x="43.78125" y="8.60585"/>
  </clipPath>
 </defs>
</svg>
