<?xml version="1.0" encoding="utf-8" standalone="no"?>
<!DOCTYPE svg PUBLIC "-//W3C//DTD SVG 1.1//EN"
  "http://www.w3.org/Graphics/SVG/1.1/DTD/svg11.dtd">
<!-- Created with matplotlib (https://matplotlib.org/) -->
<svg height="211.07625pt" version="1.1" viewBox="0 0 436.087315 211.07625" width="436.087315pt" xmlns="http://www.w3.org/2000/svg" xmlns:xlink="http://www.w3.org/1999/xlink">
 <defs>
  <style type="text/css">
*{stroke-linecap:butt;stroke-linejoin:round;}
  </style>
 </defs>
 <g id="figure_1">
  <g id="patch_1">
   <path d="M 0 211.07625 
L 436.087315 211.07625 
L 436.087315 0 
L 0 0 
z
" style="fill:#ffffff;"/>
  </g>
  <g id="axes_1">
   <g id="patch_2">
    <path d="M 34.240625 173.52 
L 424.840625 173.52 
L 424.840625 7.2 
L 34.240625 7.2 
z
" style="fill:#ffffff;"/>
   </g>
   <g id="matplotlib.axis_1">
    <g id="xtick_1">
     <g id="line2d_1">
      <defs>
       <path d="M 0 0 
L 0 3.5 
" id="maac1c0d3b4" style="stroke:#000000;stroke-width:0.8;"/>
      </defs>
      <g>
       <use style="stroke:#000000;stroke-width:0.8;" x="36.556435" xlink:href="#maac1c0d3b4" y="173.52"/>
      </g>
     </g>
     <g id="text_1">
      <!-- 0 -->
      <defs>
       <path d="M 31.78125 66.40625 
Q 24.171875 66.40625 20.328125 58.90625 
Q 16.5 51.421875 16.5 36.375 
Q 16.5 21.390625 20.328125 13.890625 
Q 24.171875 6.390625 31.78125 6.390625 
Q 39.453125 6.390625 43.28125 13.890625 
Q 47.125 21.390625 47.125 36.375 
Q 47.125 51.421875 43.28125 58.90625 
Q 39.453125 66.40625 31.78125 66.40625 
z
M 31.78125 74.21875 
Q 44.046875 74.21875 50.515625 64.515625 
Q 56.984375 54.828125 56.984375 36.375 
Q 56.984375 17.96875 50.515625 8.265625 
Q 44.046875 -1.421875 31.78125 -1.421875 
Q 19.53125 -1.421875 13.0625 8.265625 
Q 6.59375 17.96875 6.59375 36.375 
Q 6.59375 54.828125 13.0625 64.515625 
Q 19.53125 74.21875 31.78125 74.21875 
z
" id="DejaVuSans-48"/>
      </defs>
      <g transform="translate(33.375185 188.118438)scale(0.1 -0.1)">
       <use xlink:href="#DejaVuSans-48"/>
      </g>
     </g>
    </g>
    <g id="xtick_2">
     <g id="line2d_2">
      <g>
       <use style="stroke:#000000;stroke-width:0.8;" x="113.750111" xlink:href="#maac1c0d3b4" y="173.52"/>
      </g>
     </g>
     <g id="text_2">
      <!-- 5 -->
      <defs>
       <path d="M 10.796875 72.90625 
L 49.515625 72.90625 
L 49.515625 64.59375 
L 19.828125 64.59375 
L 19.828125 46.734375 
Q 21.96875 47.46875 24.109375 47.828125 
Q 26.265625 48.1875 28.421875 48.1875 
Q 40.625 48.1875 47.75 41.5 
Q 54.890625 34.8125 54.890625 23.390625 
Q 54.890625 11.625 47.5625 5.09375 
Q 40.234375 -1.421875 26.90625 -1.421875 
Q 22.3125 -1.421875 17.546875 -0.640625 
Q 12.796875 0.140625 7.71875 1.703125 
L 7.71875 11.625 
Q 12.109375 9.234375 16.796875 8.0625 
Q 21.484375 6.890625 26.703125 6.890625 
Q 35.15625 6.890625 40.078125 11.328125 
Q 45.015625 15.765625 45.015625 23.390625 
Q 45.015625 31 40.078125 35.4375 
Q 35.15625 39.890625 26.703125 39.890625 
Q 22.75 39.890625 18.8125 39.015625 
Q 14.890625 38.140625 10.796875 36.28125 
z
" id="DejaVuSans-53"/>
      </defs>
      <g transform="translate(110.568861 188.118438)scale(0.1 -0.1)">
       <use xlink:href="#DejaVuSans-53"/>
      </g>
     </g>
    </g>
    <g id="xtick_3">
     <g id="line2d_3">
      <g>
       <use style="stroke:#000000;stroke-width:0.8;" x="190.943787" xlink:href="#maac1c0d3b4" y="173.52"/>
      </g>
     </g>
     <g id="text_3">
      <!-- 10 -->
      <defs>
       <path d="M 12.40625 8.296875 
L 28.515625 8.296875 
L 28.515625 63.921875 
L 10.984375 60.40625 
L 10.984375 69.390625 
L 28.421875 72.90625 
L 38.28125 72.90625 
L 38.28125 8.296875 
L 54.390625 8.296875 
L 54.390625 0 
L 12.40625 0 
z
" id="DejaVuSans-49"/>
      </defs>
      <g transform="translate(184.581287 188.118438)scale(0.1 -0.1)">
       <use xlink:href="#DejaVuSans-49"/>
       <use x="63.623047" xlink:href="#DejaVuSans-48"/>
      </g>
     </g>
    </g>
    <g id="xtick_4">
     <g id="line2d_4">
      <g>
       <use style="stroke:#000000;stroke-width:0.8;" x="268.137463" xlink:href="#maac1c0d3b4" y="173.52"/>
      </g>
     </g>
     <g id="text_4">
      <!-- 15 -->
      <g transform="translate(261.774963 188.118438)scale(0.1 -0.1)">
       <use xlink:href="#DejaVuSans-49"/>
       <use x="63.623047" xlink:href="#DejaVuSans-53"/>
      </g>
     </g>
    </g>
    <g id="xtick_5">
     <g id="line2d_5">
      <g>
       <use style="stroke:#000000;stroke-width:0.8;" x="345.331139" xlink:href="#maac1c0d3b4" y="173.52"/>
      </g>
     </g>
     <g id="text_5">
      <!-- 20 -->
      <defs>
       <path d="M 19.1875 8.296875 
L 53.609375 8.296875 
L 53.609375 0 
L 7.328125 0 
L 7.328125 8.296875 
Q 12.9375 14.109375 22.625 23.890625 
Q 32.328125 33.6875 34.8125 36.53125 
Q 39.546875 41.84375 41.421875 45.53125 
Q 43.3125 49.21875 43.3125 52.78125 
Q 43.3125 58.59375 39.234375 62.25 
Q 35.15625 65.921875 28.609375 65.921875 
Q 23.96875 65.921875 18.8125 64.3125 
Q 13.671875 62.703125 7.8125 59.421875 
L 7.8125 69.390625 
Q 13.765625 71.78125 18.9375 73 
Q 24.125 74.21875 28.421875 74.21875 
Q 39.75 74.21875 46.484375 68.546875 
Q 53.21875 62.890625 53.21875 53.421875 
Q 53.21875 48.921875 51.53125 44.890625 
Q 49.859375 40.875 45.40625 35.40625 
Q 44.1875 33.984375 37.640625 27.21875 
Q 31.109375 20.453125 19.1875 8.296875 
z
" id="DejaVuSans-50"/>
      </defs>
      <g transform="translate(338.968639 188.118438)scale(0.1 -0.1)">
       <use xlink:href="#DejaVuSans-50"/>
       <use x="63.623047" xlink:href="#DejaVuSans-48"/>
      </g>
     </g>
    </g>
    <g id="xtick_6">
     <g id="line2d_6">
      <g>
       <use style="stroke:#000000;stroke-width:0.8;" x="422.524815" xlink:href="#maac1c0d3b4" y="173.52"/>
      </g>
     </g>
     <g id="text_6">
      <!-- 25 -->
      <g transform="translate(416.162315 188.118438)scale(0.1 -0.1)">
       <use xlink:href="#DejaVuSans-50"/>
       <use x="63.623047" xlink:href="#DejaVuSans-53"/>
      </g>
     </g>
    </g>
    <g id="text_7">
     <!-- hour -->
     <defs>
      <path d="M 54.890625 33.015625 
L 54.890625 0 
L 45.90625 0 
L 45.90625 32.71875 
Q 45.90625 40.484375 42.875 44.328125 
Q 39.84375 48.1875 33.796875 48.1875 
Q 26.515625 48.1875 22.3125 43.546875 
Q 18.109375 38.921875 18.109375 30.90625 
L 18.109375 0 
L 9.078125 0 
L 9.078125 75.984375 
L 18.109375 75.984375 
L 18.109375 46.1875 
Q 21.34375 51.125 25.703125 53.5625 
Q 30.078125 56 35.796875 56 
Q 45.21875 56 50.046875 50.171875 
Q 54.890625 44.34375 54.890625 33.015625 
z
" id="DejaVuSans-104"/>
      <path d="M 30.609375 48.390625 
Q 23.390625 48.390625 19.1875 42.75 
Q 14.984375 37.109375 14.984375 27.296875 
Q 14.984375 17.484375 19.15625 11.84375 
Q 23.34375 6.203125 30.609375 6.203125 
Q 37.796875 6.203125 41.984375 11.859375 
Q 46.1875 17.53125 46.1875 27.296875 
Q 46.1875 37.015625 41.984375 42.703125 
Q 37.796875 48.390625 30.609375 48.390625 
z
M 30.609375 56 
Q 42.328125 56 49.015625 48.375 
Q 55.71875 40.765625 55.71875 27.296875 
Q 55.71875 13.875 49.015625 6.21875 
Q 42.328125 -1.421875 30.609375 -1.421875 
Q 18.84375 -1.421875 12.171875 6.21875 
Q 5.515625 13.875 5.515625 27.296875 
Q 5.515625 40.765625 12.171875 48.375 
Q 18.84375 56 30.609375 56 
z
" id="DejaVuSans-111"/>
      <path d="M 8.5 21.578125 
L 8.5 54.6875 
L 17.484375 54.6875 
L 17.484375 21.921875 
Q 17.484375 14.15625 20.5 10.265625 
Q 23.53125 6.390625 29.59375 6.390625 
Q 36.859375 6.390625 41.078125 11.03125 
Q 45.3125 15.671875 45.3125 23.6875 
L 45.3125 54.6875 
L 54.296875 54.6875 
L 54.296875 0 
L 45.3125 0 
L 45.3125 8.40625 
Q 42.046875 3.421875 37.71875 1 
Q 33.40625 -1.421875 27.6875 -1.421875 
Q 18.265625 -1.421875 13.375 4.4375 
Q 8.5 10.296875 8.5 21.578125 
z
M 31.109375 56 
z
" id="DejaVuSans-117"/>
      <path d="M 41.109375 46.296875 
Q 39.59375 47.171875 37.8125 47.578125 
Q 36.03125 48 33.890625 48 
Q 26.265625 48 22.1875 43.046875 
Q 18.109375 38.09375 18.109375 28.8125 
L 18.109375 0 
L 9.078125 0 
L 9.078125 54.6875 
L 18.109375 54.6875 
L 18.109375 46.1875 
Q 20.953125 51.171875 25.484375 53.578125 
Q 30.03125 56 36.53125 56 
Q 37.453125 56 38.578125 55.875 
Q 39.703125 55.765625 41.0625 55.515625 
z
" id="DejaVuSans-114"/>
     </defs>
     <g transform="translate(218.088281 201.796563)scale(0.1 -0.1)">
      <use xlink:href="#DejaVuSans-104"/>
      <use x="63.378906" xlink:href="#DejaVuSans-111"/>
      <use x="124.560547" xlink:href="#DejaVuSans-117"/>
      <use x="187.939453" xlink:href="#DejaVuSans-114"/>
     </g>
    </g>
   </g>
   <g id="matplotlib.axis_2">
    <g id="ytick_1">
     <g id="line2d_7">
      <defs>
       <path d="M 0 0 
L -3.5 0 
" id="m38609fa494" style="stroke:#000000;stroke-width:0.8;"/>
      </defs>
      <g>
       <use style="stroke:#000000;stroke-width:0.8;" x="34.240625" xlink:href="#m38609fa494" y="165.960363"/>
      </g>
     </g>
     <g id="text_8">
      <!-- 0 -->
      <g transform="translate(20.878125 169.759582)scale(0.1 -0.1)">
       <use xlink:href="#DejaVuSans-48"/>
      </g>
     </g>
    </g>
    <g id="ytick_2">
     <g id="line2d_8">
      <g>
       <use style="stroke:#000000;stroke-width:0.8;" x="34.240625" xlink:href="#m38609fa494" y="125.594993"/>
      </g>
     </g>
     <g id="text_9">
      <!-- 2 -->
      <g transform="translate(20.878125 129.394212)scale(0.1 -0.1)">
       <use xlink:href="#DejaVuSans-50"/>
      </g>
     </g>
    </g>
    <g id="ytick_3">
     <g id="line2d_9">
      <g>
       <use style="stroke:#000000;stroke-width:0.8;" x="34.240625" xlink:href="#m38609fa494" y="85.229623"/>
      </g>
     </g>
     <g id="text_10">
      <!-- 4 -->
      <defs>
       <path d="M 37.796875 64.3125 
L 12.890625 25.390625 
L 37.796875 25.390625 
z
M 35.203125 72.90625 
L 47.609375 72.90625 
L 47.609375 25.390625 
L 58.015625 25.390625 
L 58.015625 17.1875 
L 47.609375 17.1875 
L 47.609375 0 
L 37.796875 0 
L 37.796875 17.1875 
L 4.890625 17.1875 
L 4.890625 26.703125 
z
" id="DejaVuSans-52"/>
      </defs>
      <g transform="translate(20.878125 89.028842)scale(0.1 -0.1)">
       <use xlink:href="#DejaVuSans-52"/>
      </g>
     </g>
    </g>
    <g id="ytick_4">
     <g id="line2d_10">
      <g>
       <use style="stroke:#000000;stroke-width:0.8;" x="34.240625" xlink:href="#m38609fa494" y="44.864253"/>
      </g>
     </g>
     <g id="text_11">
      <!-- 6 -->
      <defs>
       <path d="M 33.015625 40.375 
Q 26.375 40.375 22.484375 35.828125 
Q 18.609375 31.296875 18.609375 23.390625 
Q 18.609375 15.53125 22.484375 10.953125 
Q 26.375 6.390625 33.015625 6.390625 
Q 39.65625 6.390625 43.53125 10.953125 
Q 47.40625 15.53125 47.40625 23.390625 
Q 47.40625 31.296875 43.53125 35.828125 
Q 39.65625 40.375 33.015625 40.375 
z
M 52.59375 71.296875 
L 52.59375 62.3125 
Q 48.875 64.0625 45.09375 64.984375 
Q 41.3125 65.921875 37.59375 65.921875 
Q 27.828125 65.921875 22.671875 59.328125 
Q 17.53125 52.734375 16.796875 39.40625 
Q 19.671875 43.65625 24.015625 45.921875 
Q 28.375 48.1875 33.59375 48.1875 
Q 44.578125 48.1875 50.953125 41.515625 
Q 57.328125 34.859375 57.328125 23.390625 
Q 57.328125 12.15625 50.6875 5.359375 
Q 44.046875 -1.421875 33.015625 -1.421875 
Q 20.359375 -1.421875 13.671875 8.265625 
Q 6.984375 17.96875 6.984375 36.375 
Q 6.984375 53.65625 15.1875 63.9375 
Q 23.390625 74.21875 37.203125 74.21875 
Q 40.921875 74.21875 44.703125 73.484375 
Q 48.484375 72.75 52.59375 71.296875 
z
" id="DejaVuSans-54"/>
      </defs>
      <g transform="translate(20.878125 48.663472)scale(0.1 -0.1)">
       <use xlink:href="#DejaVuSans-54"/>
      </g>
     </g>
    </g>
    <g id="text_12">
     <!-- precipitation [mm/hour] -->
     <defs>
      <path d="M 18.109375 8.203125 
L 18.109375 -20.796875 
L 9.078125 -20.796875 
L 9.078125 54.6875 
L 18.109375 54.6875 
L 18.109375 46.390625 
Q 20.953125 51.265625 25.265625 53.625 
Q 29.59375 56 35.59375 56 
Q 45.5625 56 51.78125 48.09375 
Q 58.015625 40.1875 58.015625 27.296875 
Q 58.015625 14.40625 51.78125 6.484375 
Q 45.5625 -1.421875 35.59375 -1.421875 
Q 29.59375 -1.421875 25.265625 0.953125 
Q 20.953125 3.328125 18.109375 8.203125 
z
M 48.6875 27.296875 
Q 48.6875 37.203125 44.609375 42.84375 
Q 40.53125 48.484375 33.40625 48.484375 
Q 26.265625 48.484375 22.1875 42.84375 
Q 18.109375 37.203125 18.109375 27.296875 
Q 18.109375 17.390625 22.1875 11.75 
Q 26.265625 6.109375 33.40625 6.109375 
Q 40.53125 6.109375 44.609375 11.75 
Q 48.6875 17.390625 48.6875 27.296875 
z
" id="DejaVuSans-112"/>
      <path d="M 56.203125 29.59375 
L 56.203125 25.203125 
L 14.890625 25.203125 
Q 15.484375 15.921875 20.484375 11.0625 
Q 25.484375 6.203125 34.421875 6.203125 
Q 39.59375 6.203125 44.453125 7.46875 
Q 49.3125 8.734375 54.109375 11.28125 
L 54.109375 2.78125 
Q 49.265625 0.734375 44.1875 -0.34375 
Q 39.109375 -1.421875 33.890625 -1.421875 
Q 20.796875 -1.421875 13.15625 6.1875 
Q 5.515625 13.8125 5.515625 26.8125 
Q 5.515625 40.234375 12.765625 48.109375 
Q 20.015625 56 32.328125 56 
Q 43.359375 56 49.78125 48.890625 
Q 56.203125 41.796875 56.203125 29.59375 
z
M 47.21875 32.234375 
Q 47.125 39.59375 43.09375 43.984375 
Q 39.0625 48.390625 32.421875 48.390625 
Q 24.90625 48.390625 20.390625 44.140625 
Q 15.875 39.890625 15.1875 32.171875 
z
" id="DejaVuSans-101"/>
      <path d="M 48.78125 52.59375 
L 48.78125 44.1875 
Q 44.96875 46.296875 41.140625 47.34375 
Q 37.3125 48.390625 33.40625 48.390625 
Q 24.65625 48.390625 19.8125 42.84375 
Q 14.984375 37.3125 14.984375 27.296875 
Q 14.984375 17.28125 19.8125 11.734375 
Q 24.65625 6.203125 33.40625 6.203125 
Q 37.3125 6.203125 41.140625 7.25 
Q 44.96875 8.296875 48.78125 10.40625 
L 48.78125 2.09375 
Q 45.015625 0.34375 40.984375 -0.53125 
Q 36.96875 -1.421875 32.421875 -1.421875 
Q 20.0625 -1.421875 12.78125 6.34375 
Q 5.515625 14.109375 5.515625 27.296875 
Q 5.515625 40.671875 12.859375 48.328125 
Q 20.21875 56 33.015625 56 
Q 37.15625 56 41.109375 55.140625 
Q 45.0625 54.296875 48.78125 52.59375 
z
" id="DejaVuSans-99"/>
      <path d="M 9.421875 54.6875 
L 18.40625 54.6875 
L 18.40625 0 
L 9.421875 0 
z
M 9.421875 75.984375 
L 18.40625 75.984375 
L 18.40625 64.59375 
L 9.421875 64.59375 
z
" id="DejaVuSans-105"/>
      <path d="M 18.3125 70.21875 
L 18.3125 54.6875 
L 36.8125 54.6875 
L 36.8125 47.703125 
L 18.3125 47.703125 
L 18.3125 18.015625 
Q 18.3125 11.328125 20.140625 9.421875 
Q 21.96875 7.515625 27.59375 7.515625 
L 36.8125 7.515625 
L 36.8125 0 
L 27.59375 0 
Q 17.1875 0 13.234375 3.875 
Q 9.28125 7.765625 9.28125 18.015625 
L 9.28125 47.703125 
L 2.6875 47.703125 
L 2.6875 54.6875 
L 9.28125 54.6875 
L 9.28125 70.21875 
z
" id="DejaVuSans-116"/>
      <path d="M 34.28125 27.484375 
Q 23.390625 27.484375 19.1875 25 
Q 14.984375 22.515625 14.984375 16.5 
Q 14.984375 11.71875 18.140625 8.90625 
Q 21.296875 6.109375 26.703125 6.109375 
Q 34.1875 6.109375 38.703125 11.40625 
Q 43.21875 16.703125 43.21875 25.484375 
L 43.21875 27.484375 
z
M 52.203125 31.203125 
L 52.203125 0 
L 43.21875 0 
L 43.21875 8.296875 
Q 40.140625 3.328125 35.546875 0.953125 
Q 30.953125 -1.421875 24.3125 -1.421875 
Q 15.921875 -1.421875 10.953125 3.296875 
Q 6 8.015625 6 15.921875 
Q 6 25.140625 12.171875 29.828125 
Q 18.359375 34.515625 30.609375 34.515625 
L 43.21875 34.515625 
L 43.21875 35.40625 
Q 43.21875 41.609375 39.140625 45 
Q 35.0625 48.390625 27.6875 48.390625 
Q 23 48.390625 18.546875 47.265625 
Q 14.109375 46.140625 10.015625 43.890625 
L 10.015625 52.203125 
Q 14.9375 54.109375 19.578125 55.046875 
Q 24.21875 56 28.609375 56 
Q 40.484375 56 46.34375 49.84375 
Q 52.203125 43.703125 52.203125 31.203125 
z
" id="DejaVuSans-97"/>
      <path d="M 54.890625 33.015625 
L 54.890625 0 
L 45.90625 0 
L 45.90625 32.71875 
Q 45.90625 40.484375 42.875 44.328125 
Q 39.84375 48.1875 33.796875 48.1875 
Q 26.515625 48.1875 22.3125 43.546875 
Q 18.109375 38.921875 18.109375 30.90625 
L 18.109375 0 
L 9.078125 0 
L 9.078125 54.6875 
L 18.109375 54.6875 
L 18.109375 46.1875 
Q 21.34375 51.125 25.703125 53.5625 
Q 30.078125 56 35.796875 56 
Q 45.21875 56 50.046875 50.171875 
Q 54.890625 44.34375 54.890625 33.015625 
z
" id="DejaVuSans-110"/>
      <path id="DejaVuSans-32"/>
      <path d="M 8.59375 75.984375 
L 29.296875 75.984375 
L 29.296875 69 
L 17.578125 69 
L 17.578125 -6.203125 
L 29.296875 -6.203125 
L 29.296875 -13.1875 
L 8.59375 -13.1875 
z
" id="DejaVuSans-91"/>
      <path d="M 52 44.1875 
Q 55.375 50.25 60.0625 53.125 
Q 64.75 56 71.09375 56 
Q 79.640625 56 84.28125 50.015625 
Q 88.921875 44.046875 88.921875 33.015625 
L 88.921875 0 
L 79.890625 0 
L 79.890625 32.71875 
Q 79.890625 40.578125 77.09375 44.375 
Q 74.3125 48.1875 68.609375 48.1875 
Q 61.625 48.1875 57.5625 43.546875 
Q 53.515625 38.921875 53.515625 30.90625 
L 53.515625 0 
L 44.484375 0 
L 44.484375 32.71875 
Q 44.484375 40.625 41.703125 44.40625 
Q 38.921875 48.1875 33.109375 48.1875 
Q 26.21875 48.1875 22.15625 43.53125 
Q 18.109375 38.875 18.109375 30.90625 
L 18.109375 0 
L 9.078125 0 
L 9.078125 54.6875 
L 18.109375 54.6875 
L 18.109375 46.1875 
Q 21.1875 51.21875 25.484375 53.609375 
Q 29.78125 56 35.6875 56 
Q 41.65625 56 45.828125 52.96875 
Q 50 49.953125 52 44.1875 
z
" id="DejaVuSans-109"/>
      <path d="M 25.390625 72.90625 
L 33.6875 72.90625 
L 8.296875 -9.28125 
L 0 -9.28125 
z
" id="DejaVuSans-47"/>
      <path d="M 30.421875 75.984375 
L 30.421875 -13.1875 
L 9.71875 -13.1875 
L 9.71875 -6.203125 
L 21.390625 -6.203125 
L 21.390625 69 
L 9.71875 69 
L 9.71875 75.984375 
z
" id="DejaVuSans-93"/>
     </defs>
     <g transform="translate(14.798438 150.335781)rotate(-90)scale(0.1 -0.1)">
      <use xlink:href="#DejaVuSans-112"/>
      <use x="63.476562" xlink:href="#DejaVuSans-114"/>
      <use x="104.558594" xlink:href="#DejaVuSans-101"/>
      <use x="166.082031" xlink:href="#DejaVuSans-99"/>
      <use x="221.0625" xlink:href="#DejaVuSans-105"/>
      <use x="248.845703" xlink:href="#DejaVuSans-112"/>
      <use x="312.322266" xlink:href="#DejaVuSans-105"/>
      <use x="340.105469" xlink:href="#DejaVuSans-116"/>
      <use x="379.314453" xlink:href="#DejaVuSans-97"/>
      <use x="440.59375" xlink:href="#DejaVuSans-116"/>
      <use x="479.802734" xlink:href="#DejaVuSans-105"/>
      <use x="507.585938" xlink:href="#DejaVuSans-111"/>
      <use x="568.767578" xlink:href="#DejaVuSans-110"/>
      <use x="632.146484" xlink:href="#DejaVuSans-32"/>
      <use x="663.933594" xlink:href="#DejaVuSans-91"/>
      <use x="702.947266" xlink:href="#DejaVuSans-109"/>
      <use x="800.359375" xlink:href="#DejaVuSans-109"/>
      <use x="897.771484" xlink:href="#DejaVuSans-47"/>
      <use x="931.462891" xlink:href="#DejaVuSans-104"/>
      <use x="994.841797" xlink:href="#DejaVuSans-111"/>
      <use x="1056.023438" xlink:href="#DejaVuSans-117"/>
      <use x="1119.402344" xlink:href="#DejaVuSans-114"/>
      <use x="1160.515625" xlink:href="#DejaVuSans-93"/>
     </g>
    </g>
   </g>
   <g id="line2d_11">
    <path clip-path="url(#p6378ca34dc)" d="M 51.99517 163.588716 
L 67.433906 164.649099 
L 82.872641 165.715838 
L 98.311376 165.83326 
L 113.750111 165.743989 
L 129.188846 154.064426 
L 144.627582 132.5229 
L 160.066317 158.13286 
L 175.505052 154.107742 
L 190.943787 132.01663 
L 206.382522 119.543042 
L 221.821257 125.241129 
L 237.259993 152.111568 
L 252.698728 164.042402 
L 268.137463 164.40405 
L 283.576198 161.012004 
L 299.014933 161.969197 
L 314.453668 165.091176 
L 329.892404 162.869087 
L 345.331139 158.468156 
L 360.769874 161.512514 
L 376.208609 161.264264 
L 391.647344 159.066386 
L 407.08608 163.939078 
" style="fill:none;stroke:#1b9e77;stroke-linecap:square;stroke-opacity:0.5;stroke-width:1.5;"/>
   </g>
   <g id="line2d_12">
    <path clip-path="url(#p6378ca34dc)" d="M 51.99517 165.192763 
L 67.433906 151.695778 
L 82.872641 81.973334 
L 98.311376 126.484047 
L 113.750111 150.384906 
L 129.188846 143.076553 
L 144.627582 145.588935 
L 160.066317 153.469935 
L 175.505052 163.431174 
L 190.943787 164.455437 
L 206.382522 165.094019 
L 221.821257 165.21819 
L 237.259993 165.38784 
L 252.698728 165.376134 
L 268.137463 165.559279 
L 283.576198 165.699421 
L 299.014933 165.783062 
L 314.453668 165.841571 
L 329.892404 165.876134 
L 345.331139 165.828902 
L 360.769874 165.548397 
L 376.208609 165.94759 
L 391.647344 165.667617 
L 407.08608 138.328483 
" style="fill:none;stroke:#1b9e77;stroke-linecap:square;stroke-opacity:0.5;stroke-width:1.5;"/>
   </g>
   <g id="line2d_13">
    <path clip-path="url(#p6378ca34dc)" d="M 51.99517 160.807812 
L 67.433906 143.386234 
L 82.872641 154.514927 
L 98.311376 163.363424 
L 113.750111 164.795757 
L 129.188846 164.829864 
L 144.627582 162.447417 
L 160.066317 154.490359 
L 175.505052 159.085363 
L 190.943787 163.883615 
L 206.382522 164.985983 
L 221.821257 164.821941 
L 237.259993 162.957864 
L 252.698728 152.966015 
L 268.137463 153.476316 
L 283.576198 163.181072 
L 299.014933 161.060653 
L 314.453668 155.580267 
L 329.892404 144.680467 
L 345.331139 126.972672 
L 360.769874 127.594844 
L 376.208609 155.935684 
L 391.647344 159.549514 
L 407.08608 151.541445 
" style="fill:none;stroke:#1b9e77;stroke-linecap:square;stroke-opacity:0.5;stroke-width:1.5;"/>
   </g>
   <g id="line2d_14">
    <path clip-path="url(#p6378ca34dc)" d="M 51.99517 165.009876 
L 67.433906 165.216779 
L 82.872641 165.64923 
L 98.311376 165.635694 
L 113.750111 164.517035 
L 129.188846 151.540744 
L 144.627582 156.771752 
L 160.066317 165.023664 
L 175.505052 165.238554 
L 190.943787 163.498909 
L 206.382522 162.460862 
L 221.821257 163.768898 
L 237.259993 165.686735 
L 252.698728 165.893787 
L 268.137463 165.913671 
L 283.576198 165.802394 
L 299.014933 157.294176 
L 314.453668 145.090655 
L 329.892404 104.642313 
L 345.331139 152.632694 
L 360.769874 138.158011 
L 376.208609 144.559118 
L 391.647344 132.778495 
L 407.08608 144.125459 
" style="fill:none;stroke:#1b9e77;stroke-linecap:square;stroke-opacity:0.5;stroke-width:1.5;"/>
   </g>
   <g id="line2d_15">
    <path clip-path="url(#p6378ca34dc)" d="M 51.99517 157.484619 
L 67.433906 144.528913 
L 82.872641 137.015332 
L 98.311376 148.828141 
L 113.750111 148.462151 
L 129.188846 130.706203 
L 144.627582 100.881099 
L 160.066317 149.10498 
L 175.505052 161.521368 
L 190.943787 161.833488 
L 206.382522 163.638428 
L 221.821257 164.859988 
L 237.259993 165.434474 
L 252.698728 165.35241 
L 268.137463 164.807267 
L 283.576198 163.884305 
L 299.014933 163.310737 
L 314.453668 164.077802 
L 329.892404 164.381149 
L 345.331139 163.081239 
L 360.769874 160.650846 
L 376.208609 162.865389 
L 391.647344 164.4067 
L 407.08608 165.79248 
" style="fill:none;stroke:#1b9e77;stroke-linecap:square;stroke-opacity:0.5;stroke-width:1.5;"/>
   </g>
   <g id="line2d_16">
    <path clip-path="url(#p6378ca34dc)" d="M 51.99517 164.917476 
L 67.433906 165.426977 
L 82.872641 165.764736 
L 98.311376 165.672711 
L 113.750111 165.696201 
L 129.188846 165.794251 
L 144.627582 165.849556 
L 160.066317 165.894423 
L 175.505052 165.87653 
L 190.943787 165.1668 
L 206.382522 152.257284 
L 221.821257 161.928553 
L 237.259993 158.270132 
L 252.698728 156.559588 
L 268.137463 159.699893 
L 283.576198 156.987516 
L 299.014933 116.006747 
L 314.453668 104.542148 
L 329.892404 124.853764 
L 345.331139 136.825494 
L 360.769874 158.828955 
L 376.208609 164.489418 
L 391.647344 165.435224 
L 407.08608 164.165127 
" style="fill:none;stroke:#1b9e77;stroke-linecap:square;stroke-opacity:0.5;stroke-width:1.5;"/>
   </g>
   <g id="line2d_17">
    <path clip-path="url(#p6378ca34dc)" d="M 51.99517 159.826567 
L 67.433906 153.075926 
L 82.872641 157.697379 
L 98.311376 158.07586 
L 113.750111 149.709925 
L 129.188846 125.838667 
L 144.627582 128.346438 
L 160.066317 146.248115 
L 175.505052 157.002767 
L 190.943787 162.074713 
L 206.382522 164.341585 
L 221.821257 164.59507 
L 237.259993 165.247222 
L 252.698728 165.557695 
L 268.137463 165.736721 
L 283.576198 165.784694 
L 299.014933 165.765078 
L 314.453668 165.832851 
L 329.892404 165.46216 
L 345.331139 163.468307 
L 360.769874 145.253029 
L 376.208609 142.952215 
L 391.647344 139.990919 
L 407.08608 159.025601 
" style="fill:none;stroke:#1b9e77;stroke-linecap:square;stroke-opacity:0.5;stroke-width:1.5;"/>
   </g>
   <g id="line2d_18">
    <path clip-path="url(#p6378ca34dc)" d="M 51.99517 161.247516 
L 67.433906 160.057377 
L 82.872641 165.004064 
L 98.311376 165.399919 
L 113.750111 165.504206 
L 129.188846 165.28328 
L 144.627582 162.121936 
L 160.066317 157.170211 
L 175.505052 156.154788 
L 190.943787 156.80503 
L 206.382522 145.0547 
L 221.821257 115.312997 
L 237.259993 113.884933 
L 252.698728 146.38698 
L 268.137463 158.802583 
L 283.576198 161.429952 
L 299.014933 159.752346 
L 314.453668 165.307546 
L 329.892404 165.855741 
L 345.331139 165.098546 
L 360.769874 162.775471 
L 376.208609 141.616528 
L 391.647344 158.781596 
L 407.08608 162.101264 
" style="fill:none;stroke:#1b9e77;stroke-linecap:square;stroke-opacity:0.5;stroke-width:1.5;"/>
   </g>
   <g id="line2d_19">
    <path clip-path="url(#p6378ca34dc)" d="M 51.99517 149.215716 
L 67.433906 160.013661 
L 82.872641 164.543224 
L 98.311376 164.392916 
L 113.750111 164.306532 
L 129.188846 163.619879 
L 144.627582 163.161151 
L 160.066317 164.508337 
L 175.505052 164.77625 
L 190.943787 164.101773 
L 206.382522 163.297293 
L 221.821257 163.672375 
L 237.259993 164.447617 
L 252.698728 165.000603 
L 268.137463 164.857778 
L 283.576198 157.566067 
L 299.014933 146.894489 
L 314.453668 155.668404 
L 329.892404 163.858103 
L 345.331139 162.590497 
L 360.769874 155.705814 
L 376.208609 113.456907 
L 391.647344 80.66629 
L 407.08608 156.587837 
" style="fill:none;stroke:#1b9e77;stroke-linecap:square;stroke-opacity:0.5;stroke-width:1.5;"/>
   </g>
   <g id="line2d_20">
    <path clip-path="url(#p6378ca34dc)" d="M 51.99517 162.899669 
L 67.433906 160.60976 
L 82.872641 163.590029 
L 98.311376 164.833575 
L 113.750111 164.064599 
L 129.188846 153.451637 
L 144.627582 105.504177 
L 160.066317 101.18862 
L 175.505052 136.132062 
L 190.943787 161.963086 
L 206.382522 161.477985 
L 221.821257 135.655828 
L 237.259993 143.490754 
L 252.698728 163.972593 
L 268.137463 165.762396 
L 283.576198 165.765146 
L 299.014933 165.777358 
L 314.453668 165.694078 
L 329.892404 165.695128 
L 345.331139 165.837266 
L 360.769874 165.883697 
L 376.208609 165.880214 
L 391.647344 165.842175 
L 407.08608 165.937671 
" style="fill:none;stroke:#1b9e77;stroke-linecap:square;stroke-opacity:0.5;stroke-width:1.5;"/>
   </g>
   <g id="line2d_21">
    <path clip-path="url(#p6378ca34dc)" d="M 51.99517 160.595786 
L 67.433906 140.816235 
L 82.872641 137.068956 
L 98.311376 137.074312 
L 113.750111 151.410573 
L 129.188846 148.606255 
L 144.627582 143.252925 
L 160.066317 128.459466 
L 175.505052 135.316253 
L 190.943787 154.108448 
L 206.382522 161.672685 
L 221.821257 160.709596 
L 237.259993 160.161992 
L 252.698728 160.421374 
L 268.137463 164.418432 
L 283.576198 165.506884 
L 299.014933 165.791619 
L 314.453668 165.873541 
L 329.892404 165.9216 
L 345.331139 165.916573 
L 360.769874 165.939659 
L 376.208609 165.951258 
L 391.647344 165.955352 
L 407.08608 165.959736 
" style="fill:none;stroke:#1b9e77;stroke-linecap:square;stroke-opacity:0.5;stroke-width:1.5;"/>
   </g>
   <g id="line2d_22">
    <path clip-path="url(#p6378ca34dc)" d="M 51.99517 157.284349 
L 67.433906 162.51457 
L 82.872641 164.990748 
L 98.311376 165.219095 
L 113.750111 164.603501 
L 129.188846 133.547294 
L 144.627582 87.195594 
L 160.066317 158.715328 
L 175.505052 163.816226 
L 190.943787 162.773093 
L 206.382522 144.362444 
L 221.821257 100.636523 
L 237.259993 151.41735 
L 252.698728 165.251591 
L 268.137463 165.715372 
L 283.576198 165.553623 
L 299.014933 165.435241 
L 314.453668 165.416036 
L 329.892404 165.483503 
L 345.331139 165.616538 
L 360.769874 165.619257 
L 376.208609 165.50595 
L 391.647344 164.80904 
L 407.08608 165.427246 
" style="fill:none;stroke:#1b9e77;stroke-linecap:square;stroke-opacity:0.5;stroke-width:1.5;"/>
   </g>
   <g id="line2d_23">
    <path clip-path="url(#p6378ca34dc)" d="M 51.99517 164.190644 
L 67.433906 165.331334 
L 82.872641 165.692528 
L 98.311376 165.3551 
L 113.750111 165.310374 
L 129.188846 165.882249 
L 144.627582 165.898862 
L 160.066317 165.457913 
L 175.505052 158.373885 
L 190.943787 161.945671 
L 206.382522 152.622156 
L 221.821257 133.074936 
L 237.259993 144.91769 
L 252.698728 98.617944 
L 268.137463 113.40539 
L 283.576198 142.569778 
L 299.014933 159.436386 
L 314.453668 162.798197 
L 329.892404 164.452124 
L 345.331139 164.702755 
L 360.769874 164.504011 
L 376.208609 163.984317 
L 391.647344 162.629131 
L 407.08608 165.75614 
" style="fill:none;stroke:#1b9e77;stroke-linecap:square;stroke-opacity:0.5;stroke-width:1.5;"/>
   </g>
   <g id="line2d_24">
    <path clip-path="url(#p6378ca34dc)" d="M 51.99517 165.940204 
L 67.433906 165.887198 
L 82.872641 165.880742 
L 98.311376 165.930482 
L 113.750111 165.931505 
L 129.188846 165.474967 
L 144.627582 162.139435 
L 160.066317 156.817368 
L 175.505052 149.044031 
L 190.943787 155.451867 
L 206.382522 153.698802 
L 221.821257 156.141624 
L 237.259993 156.684475 
L 252.698728 150.774905 
L 268.137463 161.895172 
L 283.576198 158.819098 
L 299.014933 159.043072 
L 314.453668 137.476834 
L 329.892404 145.457774 
L 345.331139 153.943908 
L 360.769874 147.39412 
L 376.208609 137.468363 
L 391.647344 139.270117 
L 407.08608 160.343446 
" style="fill:none;stroke:#1b9e77;stroke-linecap:square;stroke-opacity:0.5;stroke-width:1.5;"/>
   </g>
   <g id="line2d_25">
    <path clip-path="url(#p6378ca34dc)" d="M 51.99517 153.148372 
L 67.433906 158.499819 
L 82.872641 160.875435 
L 98.311376 158.469191 
L 113.750111 161.312301 
L 129.188846 165.007372 
L 144.627582 164.968476 
L 160.066317 161.913913 
L 175.505052 131.077529 
L 190.943787 122.678311 
L 206.382522 155.888765 
L 221.821257 162.254954 
L 237.259993 164.101519 
L 252.698728 163.061573 
L 268.137463 162.976079 
L 283.576198 162.843999 
L 299.014933 163.7776 
L 314.453668 164.987423 
L 329.892404 165.424471 
L 345.331139 165.646524 
L 360.769874 164.695772 
L 376.208609 155.146095 
L 391.647344 116.492391 
L 407.08608 131.661625 
" style="fill:none;stroke:#1b9e77;stroke-linecap:square;stroke-opacity:0.5;stroke-width:1.5;"/>
   </g>
   <g id="line2d_26">
    <path clip-path="url(#p6378ca34dc)" d="M 51.99517 162.627622 
L 67.433906 163.80667 
L 82.872641 165.177931 
L 98.311376 165.232073 
L 113.750111 165.343233 
L 129.188846 165.523465 
L 144.627582 165.004936 
L 160.066317 161.078745 
L 175.505052 152.734223 
L 190.943787 157.141844 
L 206.382522 150.096611 
L 221.821257 142.505873 
L 237.259993 156.158289 
L 252.698728 155.654873 
L 268.137463 142.010656 
L 283.576198 152.39392 
L 299.014933 153.523121 
L 314.453668 157.408517 
L 329.892404 155.735628 
L 345.331139 150.944679 
L 360.769874 140.336895 
L 376.208609 143.311755 
L 391.647344 151.372336 
L 407.08608 161.785616 
" style="fill:none;stroke:#1b9e77;stroke-linecap:square;stroke-opacity:0.5;stroke-width:1.5;"/>
   </g>
   <g id="line2d_27">
    <path clip-path="url(#p6378ca34dc)" d="M 51.99517 164.2685 
L 67.433906 164.966144 
L 82.872641 165.571774 
L 98.311376 165.574196 
L 113.750111 165.417597 
L 129.188846 163.672169 
L 144.627582 158.694333 
L 160.066317 165.432282 
L 175.505052 162.309962 
L 190.943787 124.733571 
L 206.382522 114.245745 
L 221.821257 82.883481 
L 237.259993 122.319736 
L 252.698728 160.110542 
L 268.137463 164.944115 
L 283.576198 164.768858 
L 299.014933 165.540834 
L 314.453668 165.826794 
L 329.892404 165.914465 
L 345.331139 165.914167 
L 360.769874 165.936009 
L 376.208609 165.950018 
L 391.647344 165.954256 
L 407.08608 165.959966 
" style="fill:none;stroke:#1b9e77;stroke-linecap:square;stroke-opacity:0.5;stroke-width:1.5;"/>
   </g>
   <g id="line2d_28">
    <path clip-path="url(#p6378ca34dc)" d="M 51.99517 163.524133 
L 67.433906 154.979213 
L 82.872641 159.883147 
L 98.311376 162.327595 
L 113.750111 164.74584 
L 129.188846 165.398802 
L 144.627582 165.443183 
L 160.066317 165.073778 
L 175.505052 165.519372 
L 190.943787 165.726945 
L 206.382522 165.821853 
L 221.821257 165.826303 
L 237.259993 165.831349 
L 252.698728 165.81475 
L 268.137463 165.685587 
L 283.576198 165.773342 
L 299.014933 163.036715 
L 314.453668 157.195668 
L 329.892404 141.408381 
L 345.331139 132.487054 
L 360.769874 120.480761 
L 376.208609 128.926981 
L 391.647344 112.12703 
L 407.08608 153.871729 
" style="fill:none;stroke:#1b9e77;stroke-linecap:square;stroke-opacity:0.5;stroke-width:1.5;"/>
   </g>
   <g id="line2d_29">
    <path clip-path="url(#p6378ca34dc)" d="M 51.99517 163.679399 
L 67.433906 161.194714 
L 82.872641 155.268853 
L 98.311376 158.268116 
L 113.750111 163.189712 
L 129.188846 165.322544 
L 144.627582 165.443102 
L 160.066317 160.394619 
L 175.505052 140.294756 
L 190.943787 162.015721 
L 206.382522 165.131495 
L 221.821257 165.403857 
L 237.259993 164.924345 
L 252.698728 120.66118 
L 268.137463 159.22781 
L 283.576198 165.685983 
L 299.014933 165.806373 
L 314.453668 165.705968 
L 329.892404 164.045303 
L 345.331139 165.844838 
L 360.769874 165.873973 
L 376.208609 165.953912 
L 391.647344 141.633011 
L 407.08608 65.939926 
" style="fill:none;stroke:#1b9e77;stroke-linecap:square;stroke-opacity:0.5;stroke-width:1.5;"/>
   </g>
   <g id="line2d_30">
    <path clip-path="url(#p6378ca34dc)" d="M 51.99517 165.389128 
L 67.433906 165.671834 
L 82.872641 165.863231 
L 98.311376 165.846008 
L 113.750111 165.850582 
L 129.188846 165.910737 
L 144.627582 165.564242 
L 160.066317 165.884519 
L 175.505052 163.440207 
L 190.943787 163.130174 
L 206.382522 159.719856 
L 221.821257 145.191061 
L 237.259993 130.275189 
L 252.698728 99.683069 
L 268.137463 110.793727 
L 283.576198 134.308657 
L 299.014933 155.512152 
L 314.453668 161.493367 
L 329.892404 163.934819 
L 345.331139 163.724989 
L 360.769874 164.173367 
L 376.208609 164.787244 
L 391.647344 164.985285 
L 407.08608 165.776063 
" style="fill:none;stroke:#1b9e77;stroke-linecap:square;stroke-opacity:0.5;stroke-width:1.5;"/>
   </g>
   <g id="line2d_31">
    <path clip-path="url(#p6378ca34dc)" d="M 51.99517 162.349526 
L 67.433906 164.128484 
L 82.872641 165.450636 
L 98.311376 165.459311 
L 113.750111 165.404123 
L 129.188846 164.705388 
L 144.627582 164.14421 
L 160.066317 165.438066 
L 175.505052 165.635942 
L 190.943787 165.577025 
L 206.382522 165.015142 
L 221.821257 151.136377 
L 237.259993 165.42506 
L 252.698728 165.895511 
L 268.137463 165.92623 
L 283.576198 165.082237 
L 299.014933 152.359757 
L 314.453668 142.981977 
L 329.892404 89.034111 
L 345.331139 129.244921 
L 360.769874 152.802536 
L 376.208609 150.904885 
L 391.647344 135.785798 
L 407.08608 157.022255 
" style="fill:none;stroke:#1b9e77;stroke-linecap:square;stroke-opacity:0.5;stroke-width:1.5;"/>
   </g>
   <g id="line2d_32">
    <path clip-path="url(#p6378ca34dc)" d="M 51.99517 148.697644 
L 67.433906 154.947433 
L 82.872641 161.184193 
L 98.311376 161.891494 
L 113.750111 163.188084 
L 129.188846 163.6406 
L 144.627582 162.037614 
L 160.066317 153.966372 
L 175.505052 143.828693 
L 190.943787 157.150008 
L 206.382522 162.292215 
L 221.821257 161.216701 
L 237.259993 155.675487 
L 252.698728 139.66801 
L 268.137463 148.66223 
L 283.576198 159.672092 
L 299.014933 159.622649 
L 314.453668 149.031279 
L 329.892404 129.068112 
L 345.331139 157.913942 
L 360.769874 159.461095 
L 376.208609 158.059766 
L 391.647344 160.478861 
L 407.08608 165.55494 
" style="fill:none;stroke:#1b9e77;stroke-linecap:square;stroke-opacity:0.5;stroke-width:1.5;"/>
   </g>
   <g id="line2d_33">
    <path clip-path="url(#p6378ca34dc)" d="M 51.99517 145.019232 
L 67.433906 150.467692 
L 82.872641 158.902077 
L 98.311376 158.043023 
L 113.750111 155.79113 
L 129.188846 146.248561 
L 144.627582 120.788542 
L 160.066317 141.228131 
L 175.505052 151.056725 
L 190.943787 158.047062 
L 206.382522 160.644426 
L 221.821257 148.13129 
L 237.259993 124.031011 
L 252.698728 160.881491 
L 268.137463 165.084546 
L 283.576198 165.448019 
L 299.014933 165.74327 
L 314.453668 165.844405 
L 329.892404 165.853891 
L 345.331139 165.889594 
L 360.769874 165.912769 
L 376.208609 165.940243 
L 391.647344 165.953311 
L 407.08608 165.959064 
" style="fill:none;stroke:#1b9e77;stroke-linecap:square;stroke-opacity:0.5;stroke-width:1.5;"/>
   </g>
   <g id="line2d_34">
    <path clip-path="url(#p6378ca34dc)" d="M 51.99517 157.079256 
L 67.433906 160.937358 
L 82.872641 164.021035 
L 98.311376 163.814337 
L 113.750111 164.353099 
L 129.188846 165.024697 
L 144.627582 165.444326 
L 160.066317 165.465509 
L 175.505052 165.584256 
L 190.943787 165.699031 
L 206.382522 165.808169 
L 221.821257 165.827654 
L 237.259993 165.843869 
L 252.698728 165.494194 
L 268.137463 165.071753 
L 283.576198 162.935198 
L 299.014933 159.109059 
L 314.453668 151.184997 
L 329.892404 145.490314 
L 345.331139 144.333404 
L 360.769874 138.603124 
L 376.208609 124.031896 
L 391.647344 97.420332 
L 407.08608 148.332638 
" style="fill:none;stroke:#1b9e77;stroke-linecap:square;stroke-opacity:0.5;stroke-width:1.5;"/>
   </g>
   <g id="line2d_35">
    <path clip-path="url(#p6378ca34dc)" d="M 51.99517 143.352394 
L 67.433906 152.548099 
L 82.872641 163.197668 
L 98.311376 162.519852 
L 113.750111 162.291424 
L 129.188846 161.747809 
L 144.627582 163.06394 
L 160.066317 164.107177 
L 175.505052 163.861069 
L 190.943787 162.441239 
L 206.382522 162.320794 
L 221.821257 164.172626 
L 237.259993 164.846253 
L 252.698728 164.554683 
L 268.137463 164.268356 
L 283.576198 164.614863 
L 299.014933 165.129336 
L 314.453668 165.594043 
L 329.892404 165.656375 
L 345.331139 165.254645 
L 360.769874 108.766832 
L 376.208609 134.286235 
L 391.647344 103.815662 
L 407.08608 144.498129 
" style="fill:none;stroke:#1b9e77;stroke-linecap:square;stroke-opacity:0.5;stroke-width:1.5;"/>
   </g>
   <g id="line2d_36">
    <path clip-path="url(#p6378ca34dc)" d="M 51.99517 165.560713 
L 67.433906 162.835072 
L 82.872641 158.599849 
L 98.311376 158.927077 
L 113.750111 157.50768 
L 129.188846 158.277009 
L 144.627582 158.385382 
L 160.066317 153.231094 
L 175.505052 130.661981 
L 190.943787 114.117349 
L 206.382522 130.148787 
L 221.821257 147.126329 
L 237.259993 157.780371 
L 252.698728 158.019215 
L 268.137463 161.308482 
L 283.576198 163.603894 
L 299.014933 164.902805 
L 314.453668 165.410946 
L 329.892404 165.546717 
L 345.331139 165.486636 
L 360.769874 162.676057 
L 376.208609 159.821218 
L 391.647344 155.080552 
L 407.08608 161.894292 
" style="fill:none;stroke:#1b9e77;stroke-linecap:square;stroke-opacity:0.5;stroke-width:1.5;"/>
   </g>
   <g id="line2d_37">
    <path clip-path="url(#p6378ca34dc)" d="M 51.99517 163.530058 
L 67.433906 163.978211 
L 82.872641 165.093053 
L 98.311376 165.032912 
L 113.750111 164.568016 
L 129.188846 162.607852 
L 144.627582 163.529794 
L 160.066317 164.813787 
L 175.505052 164.94866 
L 190.943787 164.863833 
L 206.382522 165.131653 
L 221.821257 165.498466 
L 237.259993 165.413926 
L 252.698728 164.90187 
L 268.137463 155.402997 
L 283.576198 147.491063 
L 299.014933 141.934353 
L 314.453668 145.246961 
L 329.892404 117.639371 
L 345.331139 113.538763 
L 360.769874 122.598274 
L 376.208609 157.579906 
L 391.647344 165.642654 
L 407.08608 165.923079 
" style="fill:none;stroke:#1b9e77;stroke-linecap:square;stroke-opacity:0.5;stroke-width:1.5;"/>
   </g>
   <g id="line2d_38">
    <path clip-path="url(#p6378ca34dc)" d="M 51.99517 162.897898 
L 67.433906 136.087294 
L 82.872641 105.478294 
L 98.311376 109.489973 
L 113.750111 118.250467 
L 129.188846 144.388364 
L 144.627582 161.313373 
L 160.066317 162.940368 
L 175.505052 164.98968 
L 190.943787 165.785462 
L 206.382522 165.907264 
L 221.821257 165.893506 
L 237.259993 165.906151 
L 252.698728 165.93696 
L 268.137463 165.950474 
L 283.576198 165.956057 
L 299.014933 165.525639 
L 314.453668 164.041625 
L 329.892404 162.000568 
L 345.331139 164.117206 
L 360.769874 163.815177 
L 376.208609 163.209296 
L 391.647344 162.497966 
L 407.08608 164.530441 
" style="fill:none;stroke:#1b9e77;stroke-linecap:square;stroke-opacity:0.5;stroke-width:1.5;"/>
   </g>
   <g id="line2d_39">
    <path clip-path="url(#p6378ca34dc)" d="M 51.99517 164.590114 
L 67.433906 164.714876 
L 82.872641 165.516524 
L 98.311376 165.858461 
L 113.750111 165.744802 
L 129.188846 149.023484 
L 144.627582 161.683229 
L 160.066317 154.931508 
L 175.505052 140.740538 
L 190.943787 147.872174 
L 206.382522 155.476792 
L 221.821257 158.925738 
L 237.259993 151.480261 
L 252.698728 97.409736 
L 268.137463 136.866307 
L 283.576198 143.095065 
L 299.014933 158.475209 
L 314.453668 164.130065 
L 329.892404 165.615405 
L 345.331139 165.734385 
L 360.769874 165.796819 
L 376.208609 165.444615 
L 391.647344 165.05911 
L 407.08608 162.724292 
" style="fill:none;stroke:#1b9e77;stroke-linecap:square;stroke-opacity:0.5;stroke-width:1.5;"/>
   </g>
   <g id="line2d_40">
    <path clip-path="url(#p6378ca34dc)" d="M 51.99517 156.013274 
L 67.433906 157.820258 
L 82.872641 165.114544 
L 98.311376 165.652756 
L 113.750111 165.507528 
L 129.188846 145.030925 
L 144.627582 43.816745 
L 160.066317 143.876327 
L 175.505052 160.570194 
L 190.943787 160.85402 
L 206.382522 159.977277 
L 221.821257 159.684972 
L 237.259993 164.073732 
L 252.698728 165.163943 
L 268.137463 165.512968 
L 283.576198 165.312368 
L 299.014933 165.527596 
L 314.453668 165.79154 
L 329.892404 165.764043 
L 345.331139 164.778355 
L 360.769874 158.088545 
L 376.208609 156.884437 
L 391.647344 153.90634 
L 407.08608 162.186823 
" style="fill:none;stroke:#1b9e77;stroke-linecap:square;stroke-opacity:0.5;stroke-width:1.5;"/>
   </g>
   <g id="line2d_41">
    <path clip-path="url(#p6378ca34dc)" d="M 51.99517 164.03464 
L 67.433906 162.573476 
L 82.872641 164.058777 
L 98.311376 163.521463 
L 113.750111 162.877975 
L 129.188846 160.925407 
L 144.627582 163.689103 
L 160.066317 165.026 
L 175.505052 165.002161 
L 190.943787 164.222847 
L 206.382522 164.440371 
L 221.821257 165.419503 
L 237.259993 163.959861 
L 252.698728 152.752407 
L 268.137463 149.119708 
L 283.576198 147.039392 
L 299.014933 136.034733 
L 314.453668 126.593598 
L 329.892404 108.836292 
L 345.331139 145.106876 
L 360.769874 144.318401 
L 376.208609 165.487557 
L 391.647344 165.915246 
L 407.08608 165.953721 
" style="fill:none;stroke:#1b9e77;stroke-linecap:square;stroke-opacity:0.5;stroke-width:1.5;"/>
   </g>
   <g id="line2d_42">
    <path clip-path="url(#p6378ca34dc)" d="M 51.99517 156.909328 
L 67.433906 162.001726 
L 82.872641 164.445007 
L 98.311376 164.21044 
L 113.750111 164.548073 
L 129.188846 165.083872 
L 144.627582 165.439899 
L 160.066317 165.429454 
L 175.505052 165.488202 
L 190.943787 165.546408 
L 206.382522 165.637261 
L 221.821257 165.717611 
L 237.259993 165.760896 
L 252.698728 165.804005 
L 268.137463 164.513903 
L 283.576198 155.079479 
L 299.014933 140.614882 
L 314.453668 152.074522 
L 329.892404 113.510276 
L 345.331139 138.490948 
L 360.769874 129.329871 
L 376.208609 113.271484 
L 391.647344 162.420677 
L 407.08608 165.581284 
" style="fill:none;stroke:#1b9e77;stroke-linecap:square;stroke-opacity:0.5;stroke-width:1.5;"/>
   </g>
   <g id="line2d_43">
    <path clip-path="url(#p6378ca34dc)" d="M 51.99517 160.906588 
L 67.433906 156.840844 
L 82.872641 159.970336 
L 98.311376 157.194797 
L 113.750111 144.601595 
L 129.188846 124.962966 
L 144.627582 116.830193 
L 160.066317 137.115244 
L 175.505052 147.481546 
L 190.943787 140.362585 
L 206.382522 149.711217 
L 221.821257 161.680134 
L 237.259993 163.820307 
L 252.698728 162.911397 
L 268.137463 164.069057 
L 283.576198 165.030509 
L 299.014933 165.261495 
L 314.453668 165.185758 
L 329.892404 165.177352 
L 345.331139 165.270387 
L 360.769874 165.396734 
L 376.208609 165.574863 
L 391.647344 165.647297 
L 407.08608 165.90631 
" style="fill:none;stroke:#1b9e77;stroke-linecap:square;stroke-opacity:0.5;stroke-width:1.5;"/>
   </g>
   <g id="line2d_44">
    <path clip-path="url(#p6378ca34dc)" d="M 51.99517 161.629502 
L 67.433906 154.780049 
L 82.872641 165.259797 
L 98.311376 165.768771 
L 113.750111 165.783186 
L 129.188846 163.141848 
L 144.627582 142.897215 
L 160.066317 143.563852 
L 175.505052 155.709774 
L 190.943787 161.831134 
L 206.382522 159.608548 
L 221.821257 152.199272 
L 237.259993 152.423124 
L 252.698728 155.301396 
L 268.137463 159.855775 
L 283.576198 161.563481 
L 299.014933 158.162003 
L 314.453668 143.083167 
L 329.892404 147.350796 
L 345.331139 159.095639 
L 360.769874 158.475037 
L 376.208609 158.410078 
L 391.647344 139.38204 
L 407.08608 151.634019 
" style="fill:none;stroke:#1b9e77;stroke-linecap:square;stroke-opacity:0.5;stroke-width:1.5;"/>
   </g>
   <g id="line2d_45">
    <path clip-path="url(#p6378ca34dc)" d="M 51.99517 143.98965 
L 67.433906 154.577029 
L 82.872641 164.132073 
L 98.311376 164.382239 
L 113.750111 164.425118 
L 129.188846 161.933694 
L 144.627582 160.372525 
L 160.066317 164.516941 
L 175.505052 164.963871 
L 190.943787 163.424905 
L 206.382522 138.232595 
L 221.821257 118.487045 
L 237.259993 153.245127 
L 252.698728 162.514333 
L 268.137463 162.923163 
L 283.576198 158.426304 
L 299.014933 155.988673 
L 314.453668 160.658514 
L 329.892404 162.387164 
L 345.331139 161.51541 
L 360.769874 157.448828 
L 376.208609 147.9259 
L 391.647344 128.480999 
L 407.08608 161.957405 
" style="fill:none;stroke:#1b9e77;stroke-linecap:square;stroke-opacity:0.5;stroke-width:1.5;"/>
   </g>
   <g id="line2d_46">
    <path clip-path="url(#p6378ca34dc)" d="M 51.99517 161.723928 
L 67.433906 142.202553 
L 82.872641 140.869341 
L 98.311376 134.495586 
L 113.750111 142.8229 
L 129.188846 143.256546 
L 144.627582 151.715578 
L 160.066317 153.089991 
L 175.505052 151.766575 
L 190.943787 147.868008 
L 206.382522 146.585754 
L 221.821257 161.253865 
L 237.259993 165.551997 
L 252.698728 165.490217 
L 268.137463 165.615589 
L 283.576198 165.654847 
L 299.014933 165.664281 
L 314.453668 165.752863 
L 329.892404 165.801824 
L 345.331139 165.865231 
L 360.769874 165.74432 
L 376.208609 160.129827 
L 391.647344 149.429725 
L 407.08608 158.558171 
" style="fill:none;stroke:#1b9e77;stroke-linecap:square;stroke-opacity:0.5;stroke-width:1.5;"/>
   </g>
   <g id="line2d_47">
    <path clip-path="url(#p6378ca34dc)" d="M 51.99517 163.70318 
L 67.433906 155.441727 
L 82.872641 148.136338 
L 98.311376 148.229299 
L 113.750111 153.614376 
L 129.188846 153.231981 
L 144.627582 154.696304 
L 160.066317 152.936478 
L 175.505052 109.733572 
L 190.943787 133.270026 
L 206.382522 148.326856 
L 221.821257 141.880796 
L 237.259993 158.396925 
L 252.698728 164.974082 
L 268.137463 165.686055 
L 283.576198 165.647085 
L 299.014933 165.668682 
L 314.453668 165.684268 
L 329.892404 165.776174 
L 345.331139 165.846603 
L 360.769874 165.845889 
L 376.208609 165.756843 
L 391.647344 164.10726 
L 407.08608 160.318707 
" style="fill:none;stroke:#1b9e77;stroke-linecap:square;stroke-opacity:0.5;stroke-width:1.5;"/>
   </g>
   <g id="line2d_48">
    <path clip-path="url(#p6378ca34dc)" d="M 51.99517 133.888645 
L 67.433906 116.824669 
L 82.872641 152.60721 
L 98.311376 153.466707 
L 113.750111 152.993201 
L 129.188846 150.967045 
L 144.627582 156.83306 
L 160.066317 161.647889 
L 175.505052 163.457446 
L 190.943787 163.623521 
L 206.382522 164.103869 
L 221.821257 164.226064 
L 237.259993 164.985006 
L 252.698728 165.563496 
L 268.137463 165.671502 
L 283.576198 165.501613 
L 299.014933 165.230428 
L 314.453668 165.884908 
L 329.892404 164.592337 
L 345.331139 153.683336 
L 360.769874 151.418493 
L 376.208609 147.754473 
L 391.647344 132.849849 
L 407.08608 159.134743 
" style="fill:none;stroke:#1b9e77;stroke-linecap:square;stroke-opacity:0.5;stroke-width:1.5;"/>
   </g>
   <g id="line2d_49">
    <path clip-path="url(#p6378ca34dc)" d="M 51.99517 162.343066 
L 67.433906 151.32077 
L 82.872641 164.656043 
L 98.311376 165.684765 
L 113.750111 165.53933 
L 129.188846 147.599822 
L 144.627582 141.649338 
L 160.066317 137.128484 
L 175.505052 147.386873 
L 190.943787 148.428523 
L 206.382522 136.460899 
L 221.821257 123.863363 
L 237.259993 143.930726 
L 252.698728 160.14466 
L 268.137463 164.21971 
L 283.576198 161.379187 
L 299.014933 160.393259 
L 314.453668 163.884865 
L 329.892404 165.477771 
L 345.331139 165.558941 
L 360.769874 165.349559 
L 376.208609 164.544066 
L 391.647344 164.087438 
L 407.08608 165.878047 
" style="fill:none;stroke:#1b9e77;stroke-linecap:square;stroke-opacity:0.5;stroke-width:1.5;"/>
   </g>
   <g id="line2d_50">
    <path clip-path="url(#p6378ca34dc)" d="M 51.99517 165.100435 
L 67.433906 165.161666 
L 82.872641 165.688444 
L 98.311376 165.783099 
L 113.750111 165.817882 
L 129.188846 165.802045 
L 144.627582 164.281403 
L 160.066317 165.727032 
L 175.505052 165.852268 
L 190.943787 165.876447 
L 206.382522 162.875977 
L 221.821257 162.745296 
L 237.259993 106.611007 
L 252.698728 164.898135 
L 268.137463 164.522598 
L 283.576198 147.438122 
L 299.014933 152.163436 
L 314.453668 146.886887 
L 329.892404 119.891397 
L 345.331139 147.481052 
L 360.769874 153.651084 
L 376.208609 149.996643 
L 391.647344 144.437012 
L 407.08608 158.220136 
" style="fill:none;stroke:#1b9e77;stroke-linecap:square;stroke-opacity:0.5;stroke-width:1.5;"/>
   </g>
   <g id="line2d_51">
    <path clip-path="url(#p6378ca34dc)" d="M 51.99517 162.594842 
L 67.433906 165.457337 
L 82.872641 165.35233 
L 98.311376 163.887628 
L 113.750111 161.68714 
L 129.188846 161.329823 
L 144.627582 157.788728 
L 160.066317 154.059077 
L 175.505052 151.009739 
L 190.943787 136.157312 
L 206.382522 132.382149 
L 221.821257 129.372514 
L 237.259993 91.373405 
L 252.698728 147.574139 
L 268.137463 165.028837 
L 283.576198 165.310779 
L 299.014933 165.703989 
L 314.453668 165.803363 
L 329.892404 165.885187 
L 345.331139 165.906621 
L 360.769874 165.928885 
L 376.208609 165.946082 
L 391.647344 165.648762 
L 407.08608 165.720837 
" style="fill:none;stroke:#1b9e77;stroke-linecap:square;stroke-opacity:0.5;stroke-width:1.5;"/>
   </g>
   <g id="line2d_52">
    <path clip-path="url(#p6378ca34dc)" d="M 51.99517 132.482564 
L 67.433906 132.535563 
L 82.872641 160.571157 
L 98.311376 162.251007 
L 113.750111 161.24915 
L 129.188846 143.346113 
L 144.627582 103.935143 
L 160.066317 147.356608 
L 175.505052 156.773556 
L 190.943787 157.285921 
L 206.382522 158.920494 
L 221.821257 159.48894 
L 237.259993 161.788261 
L 252.698728 162.637354 
L 268.137463 163.64886 
L 283.576198 164.010966 
L 299.014933 164.553275 
L 314.453668 164.866998 
L 329.892404 164.724655 
L 345.331139 162.98224 
L 360.769874 160.140216 
L 376.208609 164.901858 
L 391.647344 165.302162 
L 407.08608 161.156446 
" style="fill:none;stroke:#1b9e77;stroke-linecap:square;stroke-opacity:0.5;stroke-width:1.5;"/>
   </g>
   <g id="line2d_53">
    <path clip-path="url(#p6378ca34dc)" d="M 51.99517 141.874697 
L 67.433906 95.161527 
L 82.872641 159.43006 
L 98.311376 163.820082 
L 113.750111 164.671693 
L 129.188846 161.91716 
L 144.627582 150.033631 
L 160.066317 154.516282 
L 175.505052 157.393898 
L 190.943787 156.146588 
L 206.382522 151.00632 
L 221.821257 148.80451 
L 237.259993 145.205636 
L 252.698728 148.838853 
L 268.137463 156.989606 
L 283.576198 159.44011 
L 299.014933 163.250421 
L 314.453668 164.682131 
L 329.892404 165.344324 
L 345.331139 165.28677 
L 360.769874 165.542159 
L 376.208609 165.767995 
L 391.647344 165.849755 
L 407.08608 165.935299 
" style="fill:none;stroke:#1b9e77;stroke-linecap:square;stroke-opacity:0.5;stroke-width:1.5;"/>
   </g>
   <g id="line2d_54">
    <path clip-path="url(#p6378ca34dc)" d="M 51.99517 162.032651 
L 67.433906 153.326461 
L 82.872641 156.099926 
L 98.311376 156.015796 
L 113.750111 158.693605 
L 129.188846 162.244317 
L 144.627582 152.862969 
L 160.066317 140.794747 
L 175.505052 134.291396 
L 190.943787 153.957096 
L 206.382522 162.927453 
L 221.821257 162.907455 
L 237.259993 144.270823 
L 252.698728 128.690255 
L 268.137463 128.898949 
L 283.576198 164.923721 
L 299.014933 165.58814 
L 314.453668 165.205838 
L 329.892404 162.457361 
L 345.331139 157.016267 
L 360.769874 165.900653 
L 376.208609 165.931766 
L 391.647344 165.943426 
L 407.08608 165.928439 
" style="fill:none;stroke:#1b9e77;stroke-linecap:square;stroke-opacity:0.5;stroke-width:1.5;"/>
   </g>
   <g id="line2d_55">
    <path clip-path="url(#p6378ca34dc)" d="M 51.99517 163.319826 
L 67.433906 152.456855 
L 82.872641 152.544507 
L 98.311376 160.007116 
L 113.750111 158.711533 
L 129.188846 159.46935 
L 144.627582 161.765955 
L 160.066317 162.134679 
L 175.505052 151.618571 
L 190.943787 149.509147 
L 206.382522 152.276324 
L 221.821257 159.985193 
L 237.259993 162.913063 
L 252.698728 162.840553 
L 268.137463 159.828504 
L 283.576198 159.579496 
L 299.014933 162.651592 
L 314.453668 161.964724 
L 329.892404 158.530973 
L 345.331139 155.985852 
L 360.769874 154.534017 
L 376.208609 122.781382 
L 391.647344 135.812372 
L 407.08608 155.687928 
" style="fill:none;stroke:#1b9e77;stroke-linecap:square;stroke-opacity:0.5;stroke-width:1.5;"/>
   </g>
   <g id="line2d_56">
    <path clip-path="url(#p6378ca34dc)" d="M 51.99517 142.348347 
L 67.433906 125.979163 
L 82.872641 162.63323 
L 98.311376 163.108611 
L 113.750111 159.608446 
L 129.188846 119.673397 
L 144.627582 99.224439 
L 160.066317 148.654919 
L 175.505052 158.905613 
L 190.943787 155.866143 
L 206.382522 157.425038 
L 221.821257 160.284295 
L 237.259993 163.672515 
L 252.698728 164.498512 
L 268.137463 165.028188 
L 283.576198 164.939171 
L 299.014933 165.111889 
L 314.453668 165.424467 
L 329.892404 165.679815 
L 345.331139 165.6951 
L 360.769874 165.725476 
L 376.208609 165.747528 
L 391.647344 165.745669 
L 407.08608 165.929546 
" style="fill:none;stroke:#1b9e77;stroke-linecap:square;stroke-opacity:0.5;stroke-width:1.5;"/>
   </g>
   <g id="line2d_57">
    <path clip-path="url(#p6378ca34dc)" d="M 51.99517 161.320997 
L 67.433906 163.774444 
L 82.872641 165.472827 
L 98.311376 165.426538 
L 113.750111 165.139889 
L 129.188846 162.314153 
L 144.627582 162.100968 
L 160.066317 165.166371 
L 175.505052 165.375188 
L 190.943787 164.783474 
L 206.382522 163.241745 
L 221.821257 163.264019 
L 237.259993 164.36962 
L 252.698728 164.972416 
L 268.137463 163.128998 
L 283.576198 151.769518 
L 299.014933 129.097287 
L 314.453668 126.9383 
L 329.892404 134.989997 
L 345.331139 143.130006 
L 360.769874 132.026391 
L 376.208609 135.268889 
L 391.647344 158.087173 
L 407.08608 165.750303 
" style="fill:none;stroke:#1b9e77;stroke-linecap:square;stroke-opacity:0.5;stroke-width:1.5;"/>
   </g>
   <g id="line2d_58">
    <path clip-path="url(#p6378ca34dc)" d="M 51.99517 165.184725 
L 67.433906 165.658787 
L 82.872641 165.85589 
L 98.311376 165.854397 
L 113.750111 165.870702 
L 129.188846 165.848676 
L 144.627582 165.810607 
L 160.066317 165.864519 
L 175.505052 165.856423 
L 190.943787 165.72396 
L 206.382522 165.551686 
L 221.821257 165.785162 
L 237.259993 165.527604 
L 252.698728 161.327837 
L 268.137463 146.743759 
L 283.576198 145.721879 
L 299.014933 135.728004 
L 314.453668 127.200439 
L 329.892404 118.219079 
L 345.331139 121.499836 
L 360.769874 135.877561 
L 376.208609 159.079127 
L 391.647344 165.249988 
L 407.08608 165.868863 
" style="fill:none;stroke:#1b9e77;stroke-linecap:square;stroke-opacity:0.5;stroke-width:1.5;"/>
   </g>
   <g id="line2d_59">
    <path clip-path="url(#p6378ca34dc)" d="M 51.99517 150.959829 
L 67.433906 165.086575 
L 82.872641 159.420614 
L 98.311376 145.575567 
L 113.750111 145.988611 
L 129.188846 162.679843 
L 144.627582 165.164153 
L 160.066317 160.317374 
L 175.505052 163.655783 
L 190.943787 161.321197 
L 206.382522 148.815724 
L 221.821257 163.164497 
L 237.259993 160.327809 
L 252.698728 145.202244 
L 268.137463 118.910196 
L 283.576198 98.949837 
L 299.014933 164.129973 
L 314.453668 165.32611 
L 329.892404 165.561288 
L 345.331139 162.823149 
L 360.769874 165.693638 
L 376.208609 165.928253 
L 391.647344 165.948757 
L 407.08608 165.958482 
" style="fill:none;stroke:#1b9e77;stroke-linecap:square;stroke-opacity:0.5;stroke-width:1.5;"/>
   </g>
   <g id="line2d_60">
    <path clip-path="url(#p6378ca34dc)" d="M 51.99517 162.180955 
L 67.433906 164.802926 
L 82.872641 165.540083 
L 98.311376 165.575455 
L 113.750111 163.471059 
L 129.188846 148.648203 
L 144.627582 113.193507 
L 160.066317 165.853886 
L 175.505052 165.508213 
L 190.943787 163.631708 
L 206.382522 162.056846 
L 221.821257 145.11656 
L 237.259993 107.198986 
L 252.698728 165.925717 
L 268.137463 165.610907 
L 283.576198 157.155128 
L 299.014933 156.885471 
L 314.453668 149.198859 
L 329.892404 160.857907 
L 345.331139 164.710455 
L 360.769874 163.313536 
L 376.208609 152.741057 
L 391.647344 148.08446 
L 407.08608 159.647623 
" style="fill:none;stroke:#1b9e77;stroke-linecap:square;stroke-opacity:0.5;stroke-width:1.5;"/>
   </g>
   <g id="line2d_61">
    <path clip-path="url(#p6378ca34dc)" d="M 51.99517 153.935636 
L 67.433906 152.627631 
L 82.872641 144.594153 
L 98.311376 133.325869 
L 113.750111 138.675702 
L 129.188846 157.443738 
L 144.627582 162.617047 
L 160.066317 161.063759 
L 175.505052 158.44779 
L 190.943787 162.16381 
L 206.382522 164.928609 
L 221.821257 165.823213 
L 237.259993 164.940849 
L 252.698728 159.077984 
L 268.137463 161.811708 
L 283.576198 159.492101 
L 299.014933 156.076103 
L 314.453668 157.826208 
L 329.892404 162.184076 
L 345.331139 155.2087 
L 360.769874 107.869105 
L 376.208609 164.907389 
L 391.647344 165.91729 
L 407.08608 165.951032 
" style="fill:none;stroke:#1b9e77;stroke-linecap:square;stroke-opacity:0.5;stroke-width:1.5;"/>
   </g>
   <g id="line2d_62">
    <path clip-path="url(#p6378ca34dc)" d="M 51.99517 163.711446 
L 67.433906 164.86131 
L 82.872641 165.656278 
L 98.311376 165.557138 
L 113.750111 165.636119 
L 129.188846 165.761431 
L 144.627582 165.81346 
L 160.066317 165.855743 
L 175.505052 165.883235 
L 190.943787 165.906668 
L 206.382522 165.829641 
L 221.821257 165.315083 
L 237.259993 164.495057 
L 252.698728 164.912879 
L 268.137463 160.840909 
L 283.576198 150.543131 
L 299.014933 150.986781 
L 314.453668 139.256776 
L 329.892404 121.793946 
L 345.331139 144.145446 
L 360.769874 147.541748 
L 376.208609 133.522785 
L 391.647344 117.655766 
L 407.08608 155.426732 
" style="fill:none;stroke:#1b9e77;stroke-linecap:square;stroke-opacity:0.5;stroke-width:1.5;"/>
   </g>
   <g id="line2d_63">
    <path clip-path="url(#p6378ca34dc)" d="M 51.99517 158.024733 
L 67.433906 138.68968 
L 82.872641 150.587695 
L 98.311376 157.976522 
L 113.750111 163.99965 
L 129.188846 165.217448 
L 144.627582 165.68121 
L 160.066317 165.688358 
L 175.505052 165.787334 
L 190.943787 165.813537 
L 206.382522 165.858057 
L 221.821257 165.891064 
L 237.259993 165.904803 
L 252.698728 165.87927 
L 268.137463 165.142739 
L 283.576198 163.725646 
L 299.014933 162.659686 
L 314.453668 158.505645 
L 329.892404 151.953234 
L 345.331139 148.836423 
L 360.769874 127.849499 
L 376.208609 141.237021 
L 391.647344 105.454229 
L 407.08608 150.546021 
" style="fill:none;stroke:#1b9e77;stroke-linecap:square;stroke-opacity:0.5;stroke-width:1.5;"/>
   </g>
   <g id="line2d_64">
    <path clip-path="url(#p6378ca34dc)" d="M 51.99517 155.078062 
L 67.433906 150.076516 
L 82.872641 165.175255 
L 98.311376 165.348192 
L 113.750111 165.414349 
L 129.188846 163.95099 
L 144.627582 163.14293 
L 160.066317 165.176153 
L 175.505052 165.279634 
L 190.943787 164.116753 
L 206.382522 162.704988 
L 221.821257 164.322444 
L 237.259993 164.999763 
L 252.698728 164.971457 
L 268.137463 164.980495 
L 283.576198 164.951055 
L 299.014933 165.0486 
L 314.453668 165.278218 
L 329.892404 165.331167 
L 345.331139 165.513116 
L 360.769874 162.879242 
L 376.208609 122.140265 
L 391.647344 50.596923 
L 407.08608 130.432938 
" style="fill:none;stroke:#1b9e77;stroke-linecap:square;stroke-opacity:0.5;stroke-width:1.5;"/>
   </g>
   <g id="line2d_65">
    <path clip-path="url(#p6378ca34dc)" d="M 51.99517 164.332217 
L 67.433906 149.092886 
L 82.872641 130.23959 
L 98.311376 141.433343 
L 113.750111 157.371294 
L 129.188846 159.391939 
L 144.627582 159.755936 
L 160.066317 156.222394 
L 175.505052 136.385966 
L 190.943787 117.251434 
L 206.382522 143.385722 
L 221.821257 150.948152 
L 237.259993 158.654515 
L 252.698728 160.384486 
L 268.137463 163.468054 
L 283.576198 164.852905 
L 299.014933 165.511675 
L 314.453668 165.687517 
L 329.892404 165.790785 
L 345.331139 165.374499 
L 360.769874 163.622636 
L 376.208609 165.874548 
L 391.647344 165.923704 
L 407.08608 165.953306 
" style="fill:none;stroke:#1b9e77;stroke-linecap:square;stroke-opacity:0.5;stroke-width:1.5;"/>
   </g>
   <g id="line2d_66">
    <path clip-path="url(#p6378ca34dc)" d="M 51.99517 164.117961 
L 67.433906 162.877561 
L 82.872641 164.48019 
L 98.311376 165.151181 
L 113.750111 165.691889 
L 129.188846 165.823489 
L 144.627582 165.861062 
L 160.066317 165.783235 
L 175.505052 165.758381 
L 190.943787 165.823511 
L 206.382522 165.879811 
L 221.821257 165.915764 
L 237.259993 165.729789 
L 252.698728 163.554469 
L 268.137463 156.058196 
L 283.576198 154.439423 
L 299.014933 145.905076 
L 314.453668 122.708087 
L 329.892404 77.507288 
L 345.331139 127.264294 
L 360.769874 149.726737 
L 376.208609 159.918999 
L 391.647344 165.034776 
L 407.08608 165.898336 
" style="fill:none;stroke:#1b9e77;stroke-linecap:square;stroke-opacity:0.5;stroke-width:1.5;"/>
   </g>
   <g id="line2d_67">
    <path clip-path="url(#p6378ca34dc)" d="M 51.99517 162.991164 
L 67.433906 159.140629 
L 82.872641 164.681043 
L 98.311376 165.42345 
L 113.750111 165.409651 
L 129.188846 161.716473 
L 144.627582 146.791553 
L 160.066317 136.699111 
L 175.505052 132.250338 
L 190.943787 129.537968 
L 206.382522 136.063338 
L 221.821257 138.163386 
L 237.259993 144.09641 
L 252.698728 148.136531 
L 268.137463 160.336553 
L 283.576198 163.452295 
L 299.014933 164.46629 
L 314.453668 164.842111 
L 329.892404 165.204327 
L 345.331139 165.16839 
L 360.769874 165.235414 
L 376.208609 165.505216 
L 391.647344 165.678825 
L 407.08608 165.919045 
" style="fill:none;stroke:#1b9e77;stroke-linecap:square;stroke-opacity:0.5;stroke-width:1.5;"/>
   </g>
   <g id="line2d_68">
    <path clip-path="url(#p6378ca34dc)" d="M 51.99517 148.312872 
L 67.433906 116.305813 
L 82.872641 132.599648 
L 98.311376 146.175451 
L 113.750111 157.960118 
L 129.188846 163.556775 
L 144.627582 165.069375 
L 160.066317 164.976814 
L 175.505052 164.367966 
L 190.943787 157.428182 
L 206.382522 153.99088 
L 221.821257 162.30141 
L 237.259993 163.680304 
L 252.698728 158.123952 
L 268.137463 132.359918 
L 283.576198 138.118048 
L 299.014933 157.339278 
L 314.453668 163.76739 
L 329.892404 164.946319 
L 345.331139 164.079861 
L 360.769874 164.417151 
L 376.208609 165.391646 
L 391.647344 165.724469 
L 407.08608 165.915876 
" style="fill:none;stroke:#1b9e77;stroke-linecap:square;stroke-opacity:0.5;stroke-width:1.5;"/>
   </g>
   <g id="line2d_69">
    <path clip-path="url(#p6378ca34dc)" d="M 51.99517 141.532721 
L 67.433906 143.486286 
L 82.872641 161.913979 
L 98.311376 160.141512 
L 113.750111 158.117413 
L 129.188846 158.265384 
L 144.627582 160.067406 
L 160.066317 163.415055 
L 175.505052 164.159332 
L 190.943787 162.81456 
L 206.382522 162.794609 
L 221.821257 164.824751 
L 237.259993 165.333326 
L 252.698728 164.876966 
L 268.137463 163.79659 
L 283.576198 163.349405 
L 299.014933 163.279792 
L 314.453668 163.986744 
L 329.892404 163.428214 
L 345.331139 155.717859 
L 360.769874 121.162794 
L 376.208609 134.387324 
L 391.647344 130.638071 
L 407.08608 145.419415 
" style="fill:none;stroke:#1b9e77;stroke-linecap:square;stroke-opacity:0.5;stroke-width:1.5;"/>
   </g>
   <g id="line2d_70">
    <path clip-path="url(#p6378ca34dc)" d="M 51.99517 164.238678 
L 67.433906 164.739199 
L 82.872641 165.647599 
L 98.311376 165.753301 
L 113.750111 165.809361 
L 129.188846 165.769599 
L 144.627582 165.359388 
L 160.066317 164.820126 
L 175.505052 164.024859 
L 190.943787 164.209872 
L 206.382522 164.003814 
L 221.821257 165.076068 
L 237.259993 160.447202 
L 252.698728 147.717397 
L 268.137463 142.544073 
L 283.576198 132.64341 
L 299.014933 113.696531 
L 314.453668 142.226699 
L 329.892404 153.369164 
L 345.331139 160.348958 
L 360.769874 161.430326 
L 376.208609 126.987355 
L 391.647344 159.339774 
L 407.08608 156.706758 
" style="fill:none;stroke:#1b9e77;stroke-linecap:square;stroke-opacity:0.5;stroke-width:1.5;"/>
   </g>
   <g id="line2d_71">
    <path clip-path="url(#p6378ca34dc)" d="M 51.99517 164.815109 
L 67.433906 165.25047 
L 82.872641 165.700756 
L 98.311376 165.682934 
L 113.750111 165.683937 
L 129.188846 165.598279 
L 144.627582 165.573998 
L 160.066317 165.740431 
L 175.505052 165.743098 
L 190.943787 165.566149 
L 206.382522 163.820354 
L 221.821257 162.254353 
L 237.259993 162.026233 
L 252.698728 163.829954 
L 268.137463 154.23974 
L 283.576198 146.283278 
L 299.014933 146.567318 
L 314.453668 139.211837 
L 329.892404 106.12507 
L 345.331139 130.655519 
L 360.769874 154.816979 
L 376.208609 129.104076 
L 391.647344 157.37444 
L 407.08608 165.245201 
" style="fill:none;stroke:#1b9e77;stroke-linecap:square;stroke-opacity:0.5;stroke-width:1.5;"/>
   </g>
   <g id="line2d_72">
    <path clip-path="url(#p6378ca34dc)" d="M 51.99517 165.019254 
L 67.433906 165.019481 
L 82.872641 165.674109 
L 98.311376 165.739148 
L 113.750111 165.776693 
L 129.188846 165.765965 
L 144.627582 165.530454 
L 160.066317 164.833637 
L 175.505052 165.000876 
L 190.943787 165.523205 
L 206.382522 165.47474 
L 221.821257 164.116828 
L 237.259993 160.109452 
L 252.698728 158.280755 
L 268.137463 154.746665 
L 283.576198 152.035247 
L 299.014933 154.461927 
L 314.453668 140.297735 
L 329.892404 91.519269 
L 345.331139 123.777778 
L 360.769874 146.179301 
L 376.208609 148.986514 
L 391.647344 159.085275 
L 407.08608 163.955207 
" style="fill:none;stroke:#1b9e77;stroke-linecap:square;stroke-opacity:0.5;stroke-width:1.5;"/>
   </g>
   <g id="line2d_73">
    <path clip-path="url(#p6378ca34dc)" d="M 51.99517 158.554458 
L 67.433906 163.781889 
L 82.872641 164.704133 
L 98.311376 164.949297 
L 113.750111 157.274849 
L 129.188846 155.996327 
L 144.627582 158.04273 
L 160.066317 161.66532 
L 175.505052 163.672281 
L 190.943787 162.920544 
L 206.382522 159.644472 
L 221.821257 162.382498 
L 237.259993 163.343468 
L 252.698728 159.39994 
L 268.137463 160.984665 
L 283.576198 160.098417 
L 299.014933 154.946424 
L 314.453668 136.89513 
L 329.892404 107.966065 
L 345.331139 155.566073 
L 360.769874 152.915807 
L 376.208609 139.169069 
L 391.647344 146.743843 
L 407.08608 165.29181 
" style="fill:none;stroke:#1b9e77;stroke-linecap:square;stroke-opacity:0.5;stroke-width:1.5;"/>
   </g>
   <g id="line2d_74">
    <path clip-path="url(#p6378ca34dc)" d="M 51.99517 149.703724 
L 67.433906 105.866963 
L 82.872641 161.782536 
L 98.311376 164.858356 
L 113.750111 164.693835 
L 129.188846 155.709551 
L 144.627582 110.696218 
L 160.066317 146.795861 
L 175.505052 160.438242 
L 190.943787 161.874414 
L 206.382522 163.176763 
L 221.821257 163.376452 
L 237.259993 164.589093 
L 252.698728 164.950119 
L 268.137463 165.043125 
L 283.576198 164.917358 
L 299.014933 165.251792 
L 314.453668 165.847052 
L 329.892404 165.455623 
L 345.331139 147.4738 
L 360.769874 155.884102 
L 376.208609 159.332635 
L 391.647344 149.653351 
L 407.08608 159.53855 
" style="fill:none;stroke:#1b9e77;stroke-linecap:square;stroke-opacity:0.5;stroke-width:1.5;"/>
   </g>
   <g id="line2d_75">
    <path clip-path="url(#p6378ca34dc)" d="M 51.99517 154.245515 
L 67.433906 116.182474 
L 82.872641 66.406538 
L 98.311376 101.301777 
L 113.750111 153.228961 
L 129.188846 164.037326 
L 144.627582 165.186834 
L 160.066317 164.362148 
L 175.505052 164.65169 
L 190.943787 165.320312 
L 206.382522 165.683482 
L 221.821257 165.716723 
L 237.259993 165.758483 
L 252.698728 165.708477 
L 268.137463 165.78324 
L 283.576198 165.867715 
L 299.014933 165.909368 
L 314.453668 165.916386 
L 329.892404 165.921049 
L 345.331139 165.92713 
L 360.769874 165.934144 
L 376.208609 165.94693 
L 391.647344 165.953143 
L 407.08608 165.959644 
" style="fill:none;stroke:#1b9e77;stroke-linecap:square;stroke-opacity:0.5;stroke-width:1.5;"/>
   </g>
   <g id="line2d_76">
    <path clip-path="url(#p6378ca34dc)" d="M 51.99517 164.858699 
L 67.433906 162.135642 
L 82.872641 163.538962 
L 98.311376 164.619896 
L 113.750111 158.802525 
L 129.188846 140.432878 
L 144.627582 147.52262 
L 160.066317 146.131077 
L 175.505052 127.019983 
L 190.943787 139.856481 
L 206.382522 131.544849 
L 221.821257 115.948956 
L 237.259993 152.198307 
L 252.698728 165.616915 
L 268.137463 165.919904 
L 283.576198 165.931281 
L 299.014933 165.944192 
L 314.453668 165.945294 
L 329.892404 165.94308 
L 345.331139 165.951607 
L 360.769874 165.954197 
L 376.208609 165.915344 
L 391.647344 164.091746 
L 407.08608 165.085075 
" style="fill:none;stroke:#1b9e77;stroke-linecap:square;stroke-opacity:0.5;stroke-width:1.5;"/>
   </g>
   <g id="line2d_77">
    <path clip-path="url(#p6378ca34dc)" d="M 51.99517 151.55759 
L 67.433906 165.848172 
L 82.872641 165.833835 
L 98.311376 164.63231 
L 113.750111 164.331898 
L 129.188846 164.57844 
L 144.627582 136.419971 
L 160.066317 156.406357 
L 175.505052 162.811477 
L 190.943787 156.360876 
L 206.382522 146.194581 
L 221.821257 136.88746 
L 237.259993 135.865801 
L 252.698728 165.393465 
L 268.137463 147.988713 
L 283.576198 143.298953 
L 299.014933 142.25912 
L 314.453668 140.700267 
L 329.892404 164.556274 
L 345.331139 163.786925 
L 360.769874 164.063682 
L 376.208609 165.347407 
L 391.647344 165.836912 
L 407.08608 165.949029 
" style="fill:none;stroke:#1b9e77;stroke-linecap:square;stroke-opacity:0.5;stroke-width:1.5;"/>
   </g>
   <g id="line2d_78">
    <path clip-path="url(#p6378ca34dc)" d="M 51.99517 160.517128 
L 67.433906 162.319559 
L 82.872641 163.571789 
L 98.311376 161.185936 
L 113.750111 141.626549 
L 129.188846 147.423393 
L 144.627582 147.388596 
L 160.066317 157.564809 
L 175.505052 158.570233 
L 190.943787 153.729004 
L 206.382522 132.618876 
L 221.821257 124.665141 
L 237.259993 147.695463 
L 252.698728 144.374806 
L 268.137463 152.634248 
L 283.576198 159.008747 
L 299.014933 163.691096 
L 314.453668 164.533526 
L 329.892404 165.428527 
L 345.331139 165.505832 
L 360.769874 165.559145 
L 376.208609 165.607805 
L 391.647344 165.750591 
L 407.08608 165.938707 
" style="fill:none;stroke:#1b9e77;stroke-linecap:square;stroke-opacity:0.5;stroke-width:1.5;"/>
   </g>
   <g id="line2d_79">
    <path clip-path="url(#p6378ca34dc)" d="M 51.99517 158.633421 
L 67.433906 147.45018 
L 82.872641 133.334865 
L 98.311376 113.33414 
L 113.750111 142.058465 
L 129.188846 157.116583 
L 144.627582 146.430409 
L 160.066317 130.444001 
L 175.505052 143.293164 
L 190.943787 148.445962 
L 206.382522 163.093543 
L 221.821257 164.458113 
L 237.259993 165.05286 
L 252.698728 165.099499 
L 268.137463 165.55704 
L 283.576198 165.71101 
L 299.014933 165.851793 
L 314.453668 165.895134 
L 329.892404 165.926321 
L 345.331139 165.922338 
L 360.769874 165.93468 
L 376.208609 165.950381 
L 391.647344 165.955608 
L 407.08608 165.96 
" style="fill:none;stroke:#1b9e77;stroke-linecap:square;stroke-opacity:0.5;stroke-width:1.5;"/>
   </g>
   <g id="line2d_80">
    <path clip-path="url(#p6378ca34dc)" d="M 51.99517 162.829964 
L 67.433906 162.161534 
L 82.872641 164.90383 
L 98.311376 165.323543 
L 113.750111 165.277106 
L 129.188846 164.606899 
L 144.627582 155.23477 
L 160.066317 141.715204 
L 175.505052 148.399581 
L 190.943787 158.069056 
L 206.382522 161.098043 
L 221.821257 160.266712 
L 237.259993 159.681858 
L 252.698728 157.1762 
L 268.137463 157.429536 
L 283.576198 161.789584 
L 299.014933 157.269848 
L 314.453668 147.442032 
L 329.892404 127.986458 
L 345.331139 127.3469 
L 360.769874 141.043115 
L 376.208609 158.910799 
L 391.647344 165.085731 
L 407.08608 165.861207 
" style="fill:none;stroke:#1b9e77;stroke-linecap:square;stroke-opacity:0.5;stroke-width:1.5;"/>
   </g>
   <g id="line2d_81">
    <path clip-path="url(#p6378ca34dc)" d="M 51.99517 164.343006 
L 67.433906 162.037031 
L 82.872641 161.392731 
L 98.311376 158.467913 
L 113.750111 149.771669 
L 129.188846 135.307055 
L 144.627582 132.782778 
L 160.066317 155.078943 
L 175.505052 117.542705 
L 190.943787 104.309924 
L 206.382522 153.980463 
L 221.821257 159.267263 
L 237.259993 162.325725 
L 252.698728 162.904489 
L 268.137463 164.902349 
L 283.576198 165.463651 
L 299.014933 165.73729 
L 314.453668 165.788819 
L 329.892404 165.867776 
L 345.331139 165.87684 
L 360.769874 165.912825 
L 376.208609 165.938808 
L 391.647344 165.949701 
L 407.08608 165.959758 
" style="fill:none;stroke:#1b9e77;stroke-linecap:square;stroke-opacity:0.5;stroke-width:1.5;"/>
   </g>
   <g id="line2d_82">
    <path clip-path="url(#p6378ca34dc)" d="M 51.99517 161.723048 
L 67.433906 143.661277 
L 82.872641 140.191218 
L 98.311376 149.434591 
L 113.750111 148.516054 
L 129.188846 131.692556 
L 144.627582 148.964066 
L 160.066317 164.32941 
L 175.505052 165.579412 
L 190.943787 165.656319 
L 206.382522 165.743499 
L 221.821257 165.727903 
L 237.259993 165.852749 
L 252.698728 165.918148 
L 268.137463 165.915158 
L 283.576198 165.72697 
L 299.014933 161.359517 
L 314.453668 163.15062 
L 329.892404 159.995944 
L 345.331139 150.05704 
L 360.769874 158.019572 
L 376.208609 158.573119 
L 391.647344 126.604073 
L 407.08608 144.517244 
" style="fill:none;stroke:#1b9e77;stroke-linecap:square;stroke-opacity:0.5;stroke-width:1.5;"/>
   </g>
   <g id="line2d_83">
    <path clip-path="url(#p6378ca34dc)" d="M 51.99517 164.083928 
L 67.433906 165.187549 
L 82.872641 165.669923 
L 98.311376 165.547823 
L 113.750111 165.501985 
L 129.188846 165.728539 
L 144.627582 165.246653 
L 160.066317 165.490309 
L 175.505052 157.430994 
L 190.943787 154.341018 
L 206.382522 146.398456 
L 221.821257 73.946713 
L 237.259993 108.043455 
L 252.698728 122.593784 
L 268.137463 160.58247 
L 283.576198 164.962585 
L 299.014933 165.564922 
L 314.453668 165.61245 
L 329.892404 165.730683 
L 345.331139 165.764677 
L 360.769874 165.83364 
L 376.208609 165.885121 
L 391.647344 165.873199 
L 407.08608 165.888631 
" style="fill:none;stroke:#1b9e77;stroke-linecap:square;stroke-opacity:0.5;stroke-width:1.5;"/>
   </g>
   <g id="line2d_84">
    <path clip-path="url(#p6378ca34dc)" d="M 51.99517 163.749971 
L 67.433906 149.744669 
L 82.872641 150.210512 
L 98.311376 157.878676 
L 113.750111 163.162333 
L 129.188846 163.937199 
L 144.627582 150.169338 
L 160.066317 140.777855 
L 175.505052 140.088712 
L 190.943787 135.642378 
L 206.382522 135.943206 
L 221.821257 139.112346 
L 237.259993 150.398342 
L 252.698728 151.362941 
L 268.137463 156.887286 
L 283.576198 161.868312 
L 299.014933 165.268705 
L 314.453668 165.636782 
L 329.892404 165.7971 
L 345.331139 165.731716 
L 360.769874 165.807173 
L 376.208609 165.878797 
L 391.647344 165.903878 
L 407.08608 165.951291 
" style="fill:none;stroke:#1b9e77;stroke-linecap:square;stroke-opacity:0.5;stroke-width:1.5;"/>
   </g>
   <g id="line2d_85">
    <path clip-path="url(#p6378ca34dc)" d="M 51.99517 163.641514 
L 67.433906 150.454965 
L 82.872641 123.756423 
L 98.311376 144.595399 
L 113.750111 156.388372 
L 129.188846 155.167742 
L 144.627582 165.070464 
L 160.066317 165.725502 
L 175.505052 165.765536 
L 190.943787 164.391607 
L 206.382522 163.920117 
L 221.821257 165.629007 
L 237.259993 165.647634 
L 252.698728 163.550801 
L 268.137463 159.042255 
L 283.576198 155.994761 
L 299.014933 108.342517 
L 314.453668 151.325616 
L 329.892404 148.587494 
L 345.331139 156.384381 
L 360.769874 160.754881 
L 376.208609 160.43541 
L 391.647344 158.142887 
L 407.08608 164.194229 
" style="fill:none;stroke:#1b9e77;stroke-linecap:square;stroke-opacity:0.5;stroke-width:1.5;"/>
   </g>
   <g id="line2d_86">
    <path clip-path="url(#p6378ca34dc)" d="M 51.99517 165.959655 
L 67.433906 165.901756 
L 82.872641 164.22156 
L 98.311376 164.895643 
L 113.750111 162.708761 
L 129.188846 160.190432 
L 144.627582 162.559096 
L 160.066317 161.662406 
L 175.505052 156.16327 
L 190.943787 155.041078 
L 206.382522 155.937365 
L 221.821257 162.115983 
L 237.259993 164.218623 
L 252.698728 99.872163 
L 268.137463 119.855755 
L 283.576198 138.369572 
L 299.014933 157.890788 
L 314.453668 139.426557 
L 329.892404 156.107483 
L 345.331139 163.478416 
L 360.769874 164.887845 
L 376.208609 164.82251 
L 391.647344 164.850994 
L 407.08608 165.77179 
" style="fill:none;stroke:#1b9e77;stroke-linecap:square;stroke-opacity:0.5;stroke-width:1.5;"/>
   </g>
   <g id="line2d_87">
    <path clip-path="url(#p6378ca34dc)" d="M 51.99517 152.372293 
L 67.433906 138.297292 
L 82.872641 162.064348 
L 98.311376 164.058968 
L 113.750111 163.955108 
L 129.188846 155.777158 
L 144.627582 120.987573 
L 160.066317 128.153244 
L 175.505052 154.750329 
L 190.943787 162.256336 
L 206.382522 163.334382 
L 221.821257 155.368114 
L 237.259993 155.277206 
L 252.698728 164.291142 
L 268.137463 164.713659 
L 283.576198 164.62645 
L 299.014933 153.700932 
L 314.453668 161.633608 
L 329.892404 162.981516 
L 345.331139 161.199863 
L 360.769874 158.841638 
L 376.208609 155.834241 
L 391.647344 151.951415 
L 407.08608 160.482694 
" style="fill:none;stroke:#1b9e77;stroke-linecap:square;stroke-opacity:0.5;stroke-width:1.5;"/>
   </g>
   <g id="line2d_88">
    <path clip-path="url(#p6378ca34dc)" d="M 51.99517 160.65097 
L 67.433906 150.656872 
L 82.872641 127.487764 
L 98.311376 109.353883 
L 113.750111 124.457174 
L 129.188846 136.505027 
L 144.627582 149.648132 
L 160.066317 149.276464 
L 175.505052 160.095219 
L 190.943787 165.004417 
L 206.382522 165.685972 
L 221.821257 165.621544 
L 237.259993 165.734923 
L 252.698728 165.840083 
L 268.137463 165.907759 
L 283.576198 165.9286 
L 299.014933 165.93835 
L 314.453668 165.945565 
L 329.892404 165.902764 
L 345.331139 165.954966 
L 360.769874 164.41637 
L 376.208609 157.405147 
L 391.647344 159.542276 
L 407.08608 163.949268 
" style="fill:none;stroke:#1b9e77;stroke-linecap:square;stroke-opacity:0.5;stroke-width:1.5;"/>
   </g>
   <g id="line2d_89">
    <path clip-path="url(#p6378ca34dc)" d="M 51.99517 161.948862 
L 67.433906 162.911785 
L 82.872641 165.626319 
L 98.311376 165.34555 
L 113.750111 163.033227 
L 129.188846 148.98024 
L 144.627582 142.638295 
L 160.066317 164.063843 
L 175.505052 162.10886 
L 190.943787 149.747698 
L 206.382522 141.510179 
L 221.821257 152.594716 
L 237.259993 160.929505 
L 252.698728 161.282963 
L 268.137463 155.918851 
L 283.576198 145.866351 
L 299.014933 150.334977 
L 314.453668 161.523794 
L 329.892404 163.347969 
L 345.331139 156.355151 
L 360.769874 132.866002 
L 376.208609 150.864421 
L 391.647344 155.983281 
L 407.08608 161.126665 
" style="fill:none;stroke:#1b9e77;stroke-linecap:square;stroke-opacity:0.5;stroke-width:1.5;"/>
   </g>
   <g id="line2d_90">
    <path clip-path="url(#p6378ca34dc)" d="M 51.99517 164.871252 
L 67.433906 159.575052 
L 82.872641 154.207373 
L 98.311376 163.759587 
L 113.750111 161.512815 
L 129.188846 143.814202 
L 144.627582 133.571207 
L 160.066317 118.976895 
L 175.505052 120.131473 
L 190.943787 137.59488 
L 206.382522 155.960507 
L 221.821257 157.943548 
L 237.259993 159.162954 
L 252.698728 159.180411 
L 268.137463 160.099301 
L 283.576198 162.215577 
L 299.014933 164.493459 
L 314.453668 165.404427 
L 329.892404 165.65878 
L 345.331139 165.440745 
L 360.769874 165.602985 
L 376.208609 165.853592 
L 391.647344 165.923195 
L 407.08608 165.955291 
" style="fill:none;stroke:#1b9e77;stroke-linecap:square;stroke-opacity:0.5;stroke-width:1.5;"/>
   </g>
   <g id="line2d_91">
    <path clip-path="url(#p6378ca34dc)" d="M 51.99517 157.379139 
L 67.433906 139.732237 
L 82.872641 161.400539 
L 98.311376 163.879504 
L 113.750111 164.597826 
L 129.188846 163.884353 
L 144.627582 164.292231 
L 160.066317 165.315516 
L 175.505052 165.639902 
L 190.943787 165.616147 
L 206.382522 165.111385 
L 221.821257 164.094301 
L 237.259993 158.886949 
L 252.698728 159.812919 
L 268.137463 155.853325 
L 283.576198 161.004639 
L 299.014933 154.958102 
L 314.453668 140.403424 
L 329.892404 88.348358 
L 345.331139 136.05408 
L 360.769874 152.843873 
L 376.208609 155.975553 
L 391.647344 165.873971 
L 407.08608 165.951234 
" style="fill:none;stroke:#1b9e77;stroke-linecap:square;stroke-opacity:0.5;stroke-width:1.5;"/>
   </g>
   <g id="line2d_92">
    <path clip-path="url(#p6378ca34dc)" d="M 51.99517 161.511363 
L 67.433906 160.254762 
L 82.872641 163.365985 
L 98.311376 163.40807 
L 113.750111 162.334344 
L 129.188846 159.083186 
L 144.627582 160.653304 
L 160.066317 163.857818 
L 175.505052 164.954256 
L 190.943787 165.188156 
L 206.382522 165.500268 
L 221.821257 165.531696 
L 237.259993 165.653584 
L 252.698728 165.805568 
L 268.137463 165.830851 
L 283.576198 165.921077 
L 299.014933 161.038457 
L 314.453668 157.652097 
L 329.892404 159.279344 
L 345.331139 162.220441 
L 360.769874 88.68783 
L 376.208609 60.071049 
L 391.647344 163.219001 
L 407.08608 165.887002 
" style="fill:none;stroke:#1b9e77;stroke-linecap:square;stroke-opacity:0.5;stroke-width:1.5;"/>
   </g>
   <g id="line2d_93">
    <path clip-path="url(#p6378ca34dc)" d="M 51.99517 151.735441 
L 67.433906 149.925438 
L 82.872641 126.926287 
L 98.311376 113.583942 
L 113.750111 101.550178 
L 129.188846 124.570505 
L 144.627582 162.167735 
L 160.066317 164.372804 
L 175.505052 164.798441 
L 190.943787 164.261321 
L 206.382522 164.469479 
L 221.821257 165.149208 
L 237.259993 165.5112 
L 252.698728 165.466073 
L 268.137463 165.514117 
L 283.576198 165.497983 
L 299.014933 165.647864 
L 314.453668 165.789113 
L 329.892404 165.868298 
L 345.331139 165.859365 
L 360.769874 165.853614 
L 376.208609 165.933367 
L 391.647344 165.942443 
L 407.08608 160.515294 
" style="fill:none;stroke:#1b9e77;stroke-linecap:square;stroke-opacity:0.5;stroke-width:1.5;"/>
   </g>
   <g id="line2d_94">
    <path clip-path="url(#p6378ca34dc)" d="M 51.99517 164.623777 
L 67.433906 165.339011 
L 82.872641 165.716814 
L 98.311376 165.453325 
L 113.750111 164.942677 
L 129.188846 163.23844 
L 144.627582 164.159205 
L 160.066317 165.534593 
L 175.505052 165.074898 
L 190.943787 164.202617 
L 206.382522 159.748319 
L 221.821257 164.867692 
L 237.259993 160.011557 
L 252.698728 158.50685 
L 268.137463 160.918263 
L 283.576198 158.623217 
L 299.014933 155.529502 
L 314.453668 150.157979 
L 329.892404 138.532201 
L 345.331139 139.879136 
L 360.769874 147.549964 
L 376.208609 130.950658 
L 391.647344 114.847612 
L 407.08608 148.501205 
" style="fill:none;stroke:#1b9e77;stroke-linecap:square;stroke-opacity:0.5;stroke-width:1.5;"/>
   </g>
   <g id="line2d_95">
    <path clip-path="url(#p6378ca34dc)" d="M 51.99517 157.553198 
L 67.433906 131.72521 
L 82.872641 139.145144 
L 98.311376 143.244309 
L 113.750111 145.778455 
L 129.188846 141.654362 
L 144.627582 159.105091 
L 160.066317 164.028904 
L 175.505052 165.261553 
L 190.943787 165.454913 
L 206.382522 165.656078 
L 221.821257 165.615218 
L 237.259993 165.722522 
L 252.698728 165.822356 
L 268.137463 165.877273 
L 283.576198 165.889554 
L 299.014933 165.834034 
L 314.453668 164.786648 
L 329.892404 163.085613 
L 345.331139 159.275707 
L 360.769874 154.186718 
L 376.208609 147.100394 
L 391.647344 120.937716 
L 407.08608 154.168541 
" style="fill:none;stroke:#1b9e77;stroke-linecap:square;stroke-opacity:0.5;stroke-width:1.5;"/>
   </g>
   <g id="line2d_96">
    <path clip-path="url(#p6378ca34dc)" d="M 51.99517 165.937402 
L 67.433906 165.935521 
L 82.872641 162.892481 
L 98.311376 164.097941 
L 113.750111 159.307607 
L 129.188846 152.772857 
L 144.627582 153.583391 
L 160.066317 155.797652 
L 175.505052 156.975292 
L 190.943787 149.620512 
L 206.382522 112.89164 
L 221.821257 101.143575 
L 237.259993 148.411973 
L 252.698728 152.438477 
L 268.137463 162.890239 
L 283.576198 164.672 
L 299.014933 165.594814 
L 314.453668 165.888916 
L 329.892404 165.767124 
L 345.331139 158.033911 
L 360.769874 160.526119 
L 376.208609 163.764646 
L 391.647344 163.074147 
L 407.08608 164.89127 
" style="fill:none;stroke:#1b9e77;stroke-linecap:square;stroke-opacity:0.5;stroke-width:1.5;"/>
   </g>
   <g id="line2d_97">
    <path clip-path="url(#p6378ca34dc)" d="M 51.99517 165.414798 
L 67.433906 164.681059 
L 82.872641 164.206343 
L 98.311376 165.41138 
L 113.750111 165.185528 
L 129.188846 163.082518 
L 144.627582 154.391371 
L 160.066317 134.099001 
L 175.505052 117.00552 
L 190.943787 133.743041 
L 206.382522 131.189479 
L 221.821257 146.994352 
L 237.259993 159.76277 
L 252.698728 139.343631 
L 268.137463 159.687856 
L 283.576198 157.852185 
L 299.014933 163.283358 
L 314.453668 162.521535 
L 329.892404 164.147855 
L 345.331139 165.889743 
L 360.769874 165.881914 
L 376.208609 164.658965 
L 391.647344 164.171122 
L 407.08608 164.304189 
" style="fill:none;stroke:#1b9e77;stroke-linecap:square;stroke-opacity:0.5;stroke-width:1.5;"/>
   </g>
   <g id="line2d_98">
    <path clip-path="url(#p6378ca34dc)" d="M 51.99517 159.567635 
L 67.433906 115.219169 
L 82.872641 111.376403 
L 98.311376 130.8205 
L 113.750111 145.033128 
L 129.188846 148.066491 
L 144.627582 157.958242 
L 160.066317 162.074132 
L 175.505052 164.562551 
L 190.943787 164.921061 
L 206.382522 165.200227 
L 221.821257 165.059168 
L 237.259993 165.325417 
L 252.698728 165.47411 
L 268.137463 165.59762 
L 283.576198 165.528998 
L 299.014933 165.471656 
L 314.453668 165.544525 
L 329.892404 165.513389 
L 345.331139 165.596119 
L 360.769874 164.208739 
L 376.208609 154.199122 
L 391.647344 148.857345 
L 407.08608 155.733767 
" style="fill:none;stroke:#1b9e77;stroke-linecap:square;stroke-opacity:0.5;stroke-width:1.5;"/>
   </g>
   <g id="line2d_99">
    <path clip-path="url(#p6378ca34dc)" d="M 51.99517 165.481585 
L 67.433906 162.871346 
L 82.872641 157.938512 
L 98.311376 134.452384 
L 113.750111 114.988736 
L 129.188846 110.17384 
L 144.627582 134.779071 
L 160.066317 138.052639 
L 175.505052 147.946772 
L 190.943787 160.054154 
L 206.382522 164.992729 
L 221.821257 164.771218 
L 237.259993 163.834085 
L 252.698728 162.892615 
L 268.137463 164.59598 
L 283.576198 165.699769 
L 299.014933 165.786093 
L 314.453668 165.703271 
L 329.892404 164.54584 
L 345.331139 164.392375 
L 360.769874 165.431959 
L 376.208609 165.850291 
L 391.647344 165.780652 
L 407.08608 165.893598 
" style="fill:none;stroke:#1b9e77;stroke-linecap:square;stroke-opacity:0.5;stroke-width:1.5;"/>
   </g>
   <g id="line2d_100">
    <path clip-path="url(#p6378ca34dc)" d="M 51.99517 152.301003 
L 67.433906 161.888467 
L 82.872641 165.036829 
L 98.311376 164.935245 
L 113.750111 165.229796 
L 129.188846 165.474662 
L 144.627582 165.607046 
L 160.066317 165.680358 
L 175.505052 165.732209 
L 190.943787 165.669011 
L 206.382522 163.532394 
L 221.821257 160.483172 
L 237.259993 162.332914 
L 252.698728 159.704884 
L 268.137463 136.283611 
L 283.576198 118.160099 
L 299.014933 103.968537 
L 314.453668 125.072726 
L 329.892404 158.514125 
L 345.331139 161.685781 
L 360.769874 161.706036 
L 376.208609 160.771249 
L 391.647344 161.54015 
L 407.08608 165.599201 
" style="fill:none;stroke:#1b9e77;stroke-linecap:square;stroke-opacity:0.5;stroke-width:1.5;"/>
   </g>
   <g id="line2d_101">
    <path clip-path="url(#p6378ca34dc)" d="M 51.99517 143.650157 
L 67.433906 96.097745 
L 82.872641 158.816418 
L 98.311376 163.345302 
L 113.750111 164.413294 
L 129.188846 162.79888 
L 144.627582 154.024393 
L 160.066317 147.542362 
L 175.505052 154.700224 
L 190.943787 158.98216 
L 206.382522 161.545581 
L 221.821257 161.84303 
L 237.259993 162.531366 
L 252.698728 161.275562 
L 268.137463 162.045004 
L 283.576198 164.12878 
L 299.014933 164.80627 
L 314.453668 164.884203 
L 329.892404 162.809076 
L 345.331139 147.475094 
L 360.769874 135.735766 
L 376.208609 160.395097 
L 391.647344 162.82666 
L 407.08608 160.23708 
" style="fill:none;stroke:#1b9e77;stroke-linecap:square;stroke-opacity:0.5;stroke-width:1.5;"/>
   </g>
   <g id="line2d_102">
    <path clip-path="url(#p6378ca34dc)" d="M 51.99517 134.657444 
L 67.433906 141.167558 
L 82.872641 162.597717 
L 98.311376 162.138866 
L 113.750111 156.541983 
L 129.188846 125.477813 
L 144.627582 127.169018 
L 160.066317 150.845604 
L 175.505052 157.371069 
L 190.943787 153.291864 
L 206.382522 159.895202 
L 221.821257 163.501819 
L 237.259993 163.888466 
L 252.698728 160.14233 
L 268.137463 156.105269 
L 283.576198 160.124677 
L 299.014933 161.908078 
L 314.453668 162.018987 
L 329.892404 161.58221 
L 345.331139 160.394152 
L 360.769874 161.57095 
L 376.208609 163.908163 
L 391.647344 164.856297 
L 407.08608 165.753971 
" style="fill:none;stroke:#1b9e77;stroke-linecap:square;stroke-opacity:0.5;stroke-width:1.5;"/>
   </g>
   <g id="line2d_103">
    <path clip-path="url(#p6378ca34dc)" d="M 51.99517 163.914571 
L 67.433906 164.72249 
L 82.872641 165.704421 
L 98.311376 165.712686 
L 113.750111 165.749679 
L 129.188846 163.244878 
L 144.627582 161.053483 
L 160.066317 163.670399 
L 175.505052 165.431959 
L 190.943787 163.215684 
L 206.382522 161.725404 
L 221.821257 160.417959 
L 237.259993 154.604924 
L 252.698728 143.25412 
L 268.137463 126.101804 
L 283.576198 134.869992 
L 299.014933 147.412043 
L 314.453668 104.849438 
L 329.892404 142.421027 
L 345.331139 158.438906 
L 360.769874 163.422311 
L 376.208609 165.244594 
L 391.647344 165.786498 
L 407.08608 165.940241 
" style="fill:none;stroke:#1b9e77;stroke-linecap:square;stroke-opacity:0.5;stroke-width:1.5;"/>
   </g>
   <g id="line2d_104">
    <path clip-path="url(#p6378ca34dc)" d="M 51.99517 165.948215 
L 67.433906 165.939381 
L 82.872641 165.778635 
L 98.311376 165.054785 
L 113.750111 163.333468 
L 129.188846 161.595107 
L 144.627582 156.062627 
L 160.066317 156.095206 
L 175.505052 157.54722 
L 190.943787 151.685817 
L 206.382522 14.76 
L 221.821257 127.13289 
L 237.259993 163.30307 
L 252.698728 164.503288 
L 268.137463 165.509079 
L 283.576198 165.607986 
L 299.014933 165.77958 
L 314.453668 165.819246 
L 329.892404 165.851352 
L 345.331139 165.864265 
L 360.769874 165.893048 
L 376.208609 165.934926 
L 391.647344 165.950718 
L 407.08608 165.959595 
" style="fill:none;stroke:#1b9e77;stroke-linecap:square;stroke-opacity:0.5;stroke-width:1.5;"/>
   </g>
   <g id="line2d_105">
    <path clip-path="url(#p6378ca34dc)" d="M 51.99517 162.720446 
L 67.433906 149.682878 
L 82.872641 132.521353 
L 98.311376 143.264404 
L 113.750111 139.829121 
L 129.188846 109.395063 
L 144.627582 158.835725 
L 160.066317 164.043994 
L 175.505052 165.389676 
L 190.943787 165.509918 
L 206.382522 165.715254 
L 221.821257 165.742993 
L 237.259993 165.819594 
L 252.698728 165.834968 
L 268.137463 165.824661 
L 283.576198 164.860761 
L 299.014933 162.213248 
L 314.453668 163.623825 
L 329.892404 152.435304 
L 345.331139 155.251894 
L 360.769874 159.228527 
L 376.208609 162.241723 
L 391.647344 148.695538 
L 407.08608 148.228638 
" style="fill:none;stroke:#1b9e77;stroke-linecap:square;stroke-opacity:0.5;stroke-width:1.5;"/>
   </g>
   <g id="line2d_106">
    <path clip-path="url(#p6378ca34dc)" d="M 51.99517 157.181076 
L 67.433906 133.922269 
L 82.872641 146.677911 
L 98.311376 152.57803 
L 113.750111 158.088138 
L 129.188846 157.782196 
L 144.627582 162.505686 
L 160.066317 164.517282 
L 175.505052 165.292789 
L 190.943787 165.422422 
L 206.382522 165.547666 
L 221.821257 165.435821 
L 237.259993 165.549799 
L 252.698728 165.841079 
L 268.137463 165.854358 
L 283.576198 161.035041 
L 299.014933 148.232608 
L 314.453668 138.077567 
L 329.892404 100.372988 
L 345.331139 146.170592 
L 360.769874 162.685494 
L 376.208609 159.052153 
L 391.647344 163.567798 
L 407.08608 165.518745 
" style="fill:none;stroke:#1b9e77;stroke-linecap:square;stroke-opacity:0.5;stroke-width:1.5;"/>
   </g>
   <g id="line2d_107">
    <path clip-path="url(#p6378ca34dc)" d="M 51.99517 164.725281 
L 67.433906 165.08869 
L 82.872641 165.572969 
L 98.311376 165.616537 
L 113.750111 165.618012 
L 129.188846 165.792429 
L 144.627582 159.960918 
L 160.066317 136.744632 
L 175.505052 145.628571 
L 190.943787 128.604002 
L 206.382522 116.077348 
L 221.821257 125.885311 
L 237.259993 143.579705 
L 252.698728 142.312628 
L 268.137463 160.334348 
L 283.576198 163.872707 
L 299.014933 164.874486 
L 314.453668 165.3816 
L 329.892404 165.550419 
L 345.331139 165.018559 
L 360.769874 164.47144 
L 376.208609 165.267485 
L 391.647344 165.09787 
L 407.08608 165.833567 
" style="fill:none;stroke:#1b9e77;stroke-linecap:square;stroke-opacity:0.5;stroke-width:1.5;"/>
   </g>
   <g id="line2d_108">
    <path clip-path="url(#p6378ca34dc)" d="M 51.99517 164.848641 
L 67.433906 164.715492 
L 82.872641 165.601132 
L 98.311376 165.753072 
L 113.750111 165.745248 
L 129.188846 165.856953 
L 144.627582 157.628222 
L 160.066317 137.771432 
L 175.505052 118.551395 
L 190.943787 143.342078 
L 206.382522 149.089785 
L 221.821257 88.22192 
L 237.259993 165.052239 
L 252.698728 165.600799 
L 268.137463 165.841733 
L 283.576198 165.789648 
L 299.014933 165.695115 
L 314.453668 165.707907 
L 329.892404 165.757502 
L 345.331139 165.898 
L 360.769874 165.895521 
L 376.208609 163.121833 
L 391.647344 143.253632 
L 407.08608 152.170215 
" style="fill:none;stroke:#1b9e77;stroke-linecap:square;stroke-opacity:0.5;stroke-width:1.5;"/>
   </g>
   <g id="line2d_109">
    <path clip-path="url(#p6378ca34dc)" d="M 51.99517 137.365939 
L 67.433906 136.287975 
L 82.872641 158.390883 
L 98.311376 160.607813 
L 113.750111 162.691914 
L 129.188846 162.873664 
L 144.627582 160.821082 
L 160.066317 156.563508 
L 175.505052 151.786634 
L 190.943787 153.440681 
L 206.382522 156.673756 
L 221.821257 158.25142 
L 237.259993 152.699337 
L 252.698728 106.253457 
L 268.137463 136.29111 
L 283.576198 162.434326 
L 299.014933 164.852301 
L 314.453668 165.091455 
L 329.892404 165.337042 
L 345.331139 165.007302 
L 360.769874 165.452551 
L 376.208609 165.85576 
L 391.647344 165.925848 
L 407.08608 165.953744 
" style="fill:none;stroke:#1b9e77;stroke-linecap:square;stroke-opacity:0.5;stroke-width:1.5;"/>
   </g>
   <g id="line2d_110">
    <path clip-path="url(#p6378ca34dc)" d="M 51.99517 164.979301 
L 67.433906 165.514981 
L 82.872641 165.679485 
L 98.311376 165.518816 
L 113.750111 165.610613 
L 129.188846 165.839534 
L 144.627582 165.884266 
L 160.066317 165.812478 
L 175.505052 165.629196 
L 190.943787 165.561864 
L 206.382522 165.690289 
L 221.821257 165.883383 
L 237.259993 165.847845 
L 252.698728 152.548933 
L 268.137463 131.852019 
L 283.576198 147.400719 
L 299.014933 144.379106 
L 314.453668 138.842045 
L 329.892404 129.331117 
L 345.331139 133.742947 
L 360.769874 138.029652 
L 376.208609 156.225217 
L 391.647344 153.06001 
L 407.08608 158.045694 
" style="fill:none;stroke:#1b9e77;stroke-linecap:square;stroke-opacity:0.5;stroke-width:1.5;"/>
   </g>
   <g id="line2d_111">
    <path clip-path="url(#p6378ca34dc)" d="M 51.99517 165.953929 
L 67.433906 165.954449 
L 82.872641 165.954453 
L 98.311376 165.954087 
L 113.750111 165.954444 
L 129.188846 165.954152 
L 144.627582 165.954433 
L 160.066317 165.954442 
L 175.505052 165.954449 
L 190.943787 165.954437 
L 206.382522 165.954434 
L 221.821257 165.953426 
L 237.259993 165.826741 
L 252.698728 161.163494 
L 268.137463 148.506037 
L 283.576198 124.743397 
L 299.014933 93.762883 
L 314.453668 144.351767 
L 329.892404 149.765935 
L 345.331139 157.188362 
L 360.769874 164.579505 
L 376.208609 158.889364 
L 391.647344 138.812784 
L 407.08608 137.868097 
" style="fill:none;stroke:#d95f02;stroke-linecap:square;stroke-width:1.5;"/>
   </g>
   <g id="patch_3">
    <path d="M 34.240625 173.52 
L 34.240625 7.2 
" style="fill:none;stroke:#000000;stroke-linecap:square;stroke-linejoin:miter;stroke-width:0.8;"/>
   </g>
   <g id="patch_4">
    <path d="M 34.240625 173.52 
L 424.840625 173.52 
" style="fill:none;stroke:#000000;stroke-linecap:square;stroke-linejoin:miter;stroke-width:0.8;"/>
   </g>
   <g id="legend_1">
    <g id="patch_5">
     <path d="M 366.673438 29.878125 
L 417.840625 29.878125 
Q 419.840625 29.878125 419.840625 27.878125 
L 419.840625 14.2 
Q 419.840625 12.2 417.840625 12.2 
L 366.673438 12.2 
Q 364.673438 12.2 364.673438 14.2 
L 364.673438 27.878125 
Q 364.673438 29.878125 366.673438 29.878125 
z
" style="fill:#ffffff;opacity:0.8;stroke:#cccccc;stroke-linejoin:miter;"/>
    </g>
    <g id="line2d_112">
     <path d="M 368.673438 20.298438 
L 388.673438 20.298438 
" style="fill:none;stroke:#d95f02;stroke-linecap:square;stroke-width:1.5;"/>
    </g>
    <g id="line2d_113"/>
    <g id="text_13">
     <!-- real -->
     <defs>
      <path d="M 9.421875 75.984375 
L 18.40625 75.984375 
L 18.40625 0 
L 9.421875 0 
z
" id="DejaVuSans-108"/>
     </defs>
     <g transform="translate(396.673438 23.798438)scale(0.1 -0.1)">
      <use xlink:href="#DejaVuSans-114"/>
      <use x="41.082031" xlink:href="#DejaVuSans-101"/>
      <use x="102.605469" xlink:href="#DejaVuSans-97"/>
      <use x="163.884766" xlink:href="#DejaVuSans-108"/>
     </g>
    </g>
   </g>
  </g>
 </g>
 <defs>
  <clipPath id="p6378ca34dc">
   <rect height="166.32" width="390.6" x="34.240625" y="7.2"/>
  </clipPath>
 </defs>
</svg>
