<?xml version="1.0" encoding="utf-8" standalone="no"?>
<!DOCTYPE svg PUBLIC "-//W3C//DTD SVG 1.1//EN"
  "http://www.w3.org/Graphics/SVG/1.1/DTD/svg11.dtd">
<!-- Created with matplotlib (https://matplotlib.org/) -->
<svg height="211.07625pt" version="1.1" viewBox="0 0 436.087315 211.07625" width="436.087315pt" xmlns="http://www.w3.org/2000/svg" xmlns:xlink="http://www.w3.org/1999/xlink">
 <defs>
  <style type="text/css">
*{stroke-linecap:butt;stroke-linejoin:round;}
  </style>
 </defs>
 <g id="figure_1">
  <g id="patch_1">
   <path d="M 0 211.07625 
L 436.087315 211.07625 
L 436.087315 0 
L 0 0 
z
" style="fill:#ffffff;"/>
  </g>
  <g id="axes_1">
   <g id="patch_2">
    <path d="M 34.240625 173.52 
L 424.840625 173.52 
L 424.840625 7.2 
L 34.240625 7.2 
z
" style="fill:#ffffff;"/>
   </g>
   <g id="matplotlib.axis_1">
    <g id="xtick_1">
     <g id="line2d_1">
      <defs>
       <path d="M 0 0 
L 0 3.5 
" id="m61898d8205" style="stroke:#000000;stroke-width:0.8;"/>
      </defs>
      <g>
       <use style="stroke:#000000;stroke-width:0.8;" x="36.556435" xlink:href="#m61898d8205" y="173.52"/>
      </g>
     </g>
     <g id="text_1">
      <!-- 0 -->
      <defs>
       <path d="M 31.78125 66.40625 
Q 24.171875 66.40625 20.328125 58.90625 
Q 16.5 51.421875 16.5 36.375 
Q 16.5 21.390625 20.328125 13.890625 
Q 24.171875 6.390625 31.78125 6.390625 
Q 39.453125 6.390625 43.28125 13.890625 
Q 47.125 21.390625 47.125 36.375 
Q 47.125 51.421875 43.28125 58.90625 
Q 39.453125 66.40625 31.78125 66.40625 
z
M 31.78125 74.21875 
Q 44.046875 74.21875 50.515625 64.515625 
Q 56.984375 54.828125 56.984375 36.375 
Q 56.984375 17.96875 50.515625 8.265625 
Q 44.046875 -1.421875 31.78125 -1.421875 
Q 19.53125 -1.421875 13.0625 8.265625 
Q 6.59375 17.96875 6.59375 36.375 
Q 6.59375 54.828125 13.0625 64.515625 
Q 19.53125 74.21875 31.78125 74.21875 
z
" id="DejaVuSans-48"/>
      </defs>
      <g transform="translate(33.375185 188.118438)scale(0.1 -0.1)">
       <use xlink:href="#DejaVuSans-48"/>
      </g>
     </g>
    </g>
    <g id="xtick_2">
     <g id="line2d_2">
      <g>
       <use style="stroke:#000000;stroke-width:0.8;" x="113.750111" xlink:href="#m61898d8205" y="173.52"/>
      </g>
     </g>
     <g id="text_2">
      <!-- 5 -->
      <defs>
       <path d="M 10.796875 72.90625 
L 49.515625 72.90625 
L 49.515625 64.59375 
L 19.828125 64.59375 
L 19.828125 46.734375 
Q 21.96875 47.46875 24.109375 47.828125 
Q 26.265625 48.1875 28.421875 48.1875 
Q 40.625 48.1875 47.75 41.5 
Q 54.890625 34.8125 54.890625 23.390625 
Q 54.890625 11.625 47.5625 5.09375 
Q 40.234375 -1.421875 26.90625 -1.421875 
Q 22.3125 -1.421875 17.546875 -0.640625 
Q 12.796875 0.140625 7.71875 1.703125 
L 7.71875 11.625 
Q 12.109375 9.234375 16.796875 8.0625 
Q 21.484375 6.890625 26.703125 6.890625 
Q 35.15625 6.890625 40.078125 11.328125 
Q 45.015625 15.765625 45.015625 23.390625 
Q 45.015625 31 40.078125 35.4375 
Q 35.15625 39.890625 26.703125 39.890625 
Q 22.75 39.890625 18.8125 39.015625 
Q 14.890625 38.140625 10.796875 36.28125 
z
" id="DejaVuSans-53"/>
      </defs>
      <g transform="translate(110.568861 188.118438)scale(0.1 -0.1)">
       <use xlink:href="#DejaVuSans-53"/>
      </g>
     </g>
    </g>
    <g id="xtick_3">
     <g id="line2d_3">
      <g>
       <use style="stroke:#000000;stroke-width:0.8;" x="190.943787" xlink:href="#m61898d8205" y="173.52"/>
      </g>
     </g>
     <g id="text_3">
      <!-- 10 -->
      <defs>
       <path d="M 12.40625 8.296875 
L 28.515625 8.296875 
L 28.515625 63.921875 
L 10.984375 60.40625 
L 10.984375 69.390625 
L 28.421875 72.90625 
L 38.28125 72.90625 
L 38.28125 8.296875 
L 54.390625 8.296875 
L 54.390625 0 
L 12.40625 0 
z
" id="DejaVuSans-49"/>
      </defs>
      <g transform="translate(184.581287 188.118438)scale(0.1 -0.1)">
       <use xlink:href="#DejaVuSans-49"/>
       <use x="63.623047" xlink:href="#DejaVuSans-48"/>
      </g>
     </g>
    </g>
    <g id="xtick_4">
     <g id="line2d_4">
      <g>
       <use style="stroke:#000000;stroke-width:0.8;" x="268.137463" xlink:href="#m61898d8205" y="173.52"/>
      </g>
     </g>
     <g id="text_4">
      <!-- 15 -->
      <g transform="translate(261.774963 188.118438)scale(0.1 -0.1)">
       <use xlink:href="#DejaVuSans-49"/>
       <use x="63.623047" xlink:href="#DejaVuSans-53"/>
      </g>
     </g>
    </g>
    <g id="xtick_5">
     <g id="line2d_5">
      <g>
       <use style="stroke:#000000;stroke-width:0.8;" x="345.331139" xlink:href="#m61898d8205" y="173.52"/>
      </g>
     </g>
     <g id="text_5">
      <!-- 20 -->
      <defs>
       <path d="M 19.1875 8.296875 
L 53.609375 8.296875 
L 53.609375 0 
L 7.328125 0 
L 7.328125 8.296875 
Q 12.9375 14.109375 22.625 23.890625 
Q 32.328125 33.6875 34.8125 36.53125 
Q 39.546875 41.84375 41.421875 45.53125 
Q 43.3125 49.21875 43.3125 52.78125 
Q 43.3125 58.59375 39.234375 62.25 
Q 35.15625 65.921875 28.609375 65.921875 
Q 23.96875 65.921875 18.8125 64.3125 
Q 13.671875 62.703125 7.8125 59.421875 
L 7.8125 69.390625 
Q 13.765625 71.78125 18.9375 73 
Q 24.125 74.21875 28.421875 74.21875 
Q 39.75 74.21875 46.484375 68.546875 
Q 53.21875 62.890625 53.21875 53.421875 
Q 53.21875 48.921875 51.53125 44.890625 
Q 49.859375 40.875 45.40625 35.40625 
Q 44.1875 33.984375 37.640625 27.21875 
Q 31.109375 20.453125 19.1875 8.296875 
z
" id="DejaVuSans-50"/>
      </defs>
      <g transform="translate(338.968639 188.118438)scale(0.1 -0.1)">
       <use xlink:href="#DejaVuSans-50"/>
       <use x="63.623047" xlink:href="#DejaVuSans-48"/>
      </g>
     </g>
    </g>
    <g id="xtick_6">
     <g id="line2d_6">
      <g>
       <use style="stroke:#000000;stroke-width:0.8;" x="422.524815" xlink:href="#m61898d8205" y="173.52"/>
      </g>
     </g>
     <g id="text_6">
      <!-- 25 -->
      <g transform="translate(416.162315 188.118438)scale(0.1 -0.1)">
       <use xlink:href="#DejaVuSans-50"/>
       <use x="63.623047" xlink:href="#DejaVuSans-53"/>
      </g>
     </g>
    </g>
    <g id="text_7">
     <!-- hour -->
     <defs>
      <path d="M 54.890625 33.015625 
L 54.890625 0 
L 45.90625 0 
L 45.90625 32.71875 
Q 45.90625 40.484375 42.875 44.328125 
Q 39.84375 48.1875 33.796875 48.1875 
Q 26.515625 48.1875 22.3125 43.546875 
Q 18.109375 38.921875 18.109375 30.90625 
L 18.109375 0 
L 9.078125 0 
L 9.078125 75.984375 
L 18.109375 75.984375 
L 18.109375 46.1875 
Q 21.34375 51.125 25.703125 53.5625 
Q 30.078125 56 35.796875 56 
Q 45.21875 56 50.046875 50.171875 
Q 54.890625 44.34375 54.890625 33.015625 
z
" id="DejaVuSans-104"/>
      <path d="M 30.609375 48.390625 
Q 23.390625 48.390625 19.1875 42.75 
Q 14.984375 37.109375 14.984375 27.296875 
Q 14.984375 17.484375 19.15625 11.84375 
Q 23.34375 6.203125 30.609375 6.203125 
Q 37.796875 6.203125 41.984375 11.859375 
Q 46.1875 17.53125 46.1875 27.296875 
Q 46.1875 37.015625 41.984375 42.703125 
Q 37.796875 48.390625 30.609375 48.390625 
z
M 30.609375 56 
Q 42.328125 56 49.015625 48.375 
Q 55.71875 40.765625 55.71875 27.296875 
Q 55.71875 13.875 49.015625 6.21875 
Q 42.328125 -1.421875 30.609375 -1.421875 
Q 18.84375 -1.421875 12.171875 6.21875 
Q 5.515625 13.875 5.515625 27.296875 
Q 5.515625 40.765625 12.171875 48.375 
Q 18.84375 56 30.609375 56 
z
" id="DejaVuSans-111"/>
      <path d="M 8.5 21.578125 
L 8.5 54.6875 
L 17.484375 54.6875 
L 17.484375 21.921875 
Q 17.484375 14.15625 20.5 10.265625 
Q 23.53125 6.390625 29.59375 6.390625 
Q 36.859375 6.390625 41.078125 11.03125 
Q 45.3125 15.671875 45.3125 23.6875 
L 45.3125 54.6875 
L 54.296875 54.6875 
L 54.296875 0 
L 45.3125 0 
L 45.3125 8.40625 
Q 42.046875 3.421875 37.71875 1 
Q 33.40625 -1.421875 27.6875 -1.421875 
Q 18.265625 -1.421875 13.375 4.4375 
Q 8.5 10.296875 8.5 21.578125 
z
M 31.109375 56 
z
" id="DejaVuSans-117"/>
      <path d="M 41.109375 46.296875 
Q 39.59375 47.171875 37.8125 47.578125 
Q 36.03125 48 33.890625 48 
Q 26.265625 48 22.1875 43.046875 
Q 18.109375 38.09375 18.109375 28.8125 
L 18.109375 0 
L 9.078125 0 
L 9.078125 54.6875 
L 18.109375 54.6875 
L 18.109375 46.1875 
Q 20.953125 51.171875 25.484375 53.578125 
Q 30.03125 56 36.53125 56 
Q 37.453125 56 38.578125 55.875 
Q 39.703125 55.765625 41.0625 55.515625 
z
" id="DejaVuSans-114"/>
     </defs>
     <g transform="translate(218.088281 201.796563)scale(0.1 -0.1)">
      <use xlink:href="#DejaVuSans-104"/>
      <use x="63.378906" xlink:href="#DejaVuSans-111"/>
      <use x="124.560547" xlink:href="#DejaVuSans-117"/>
      <use x="187.939453" xlink:href="#DejaVuSans-114"/>
     </g>
    </g>
   </g>
   <g id="matplotlib.axis_2">
    <g id="ytick_1">
     <g id="line2d_7">
      <defs>
       <path d="M 0 0 
L -3.5 0 
" id="mb852e253e8" style="stroke:#000000;stroke-width:0.8;"/>
      </defs>
      <g>
       <use style="stroke:#000000;stroke-width:0.8;" x="34.240625" xlink:href="#mb852e253e8" y="165.964976"/>
      </g>
     </g>
     <g id="text_8">
      <!-- 0 -->
      <g transform="translate(20.878125 169.764194)scale(0.1 -0.1)">
       <use xlink:href="#DejaVuSans-48"/>
      </g>
     </g>
    </g>
    <g id="ytick_2">
     <g id="line2d_8">
      <g>
       <use style="stroke:#000000;stroke-width:0.8;" x="34.240625" xlink:href="#mb852e253e8" y="131.932769"/>
      </g>
     </g>
     <g id="text_9">
      <!-- 2 -->
      <g transform="translate(20.878125 135.731988)scale(0.1 -0.1)">
       <use xlink:href="#DejaVuSans-50"/>
      </g>
     </g>
    </g>
    <g id="ytick_3">
     <g id="line2d_9">
      <g>
       <use style="stroke:#000000;stroke-width:0.8;" x="34.240625" xlink:href="#mb852e253e8" y="97.900562"/>
      </g>
     </g>
     <g id="text_10">
      <!-- 4 -->
      <defs>
       <path d="M 37.796875 64.3125 
L 12.890625 25.390625 
L 37.796875 25.390625 
z
M 35.203125 72.90625 
L 47.609375 72.90625 
L 47.609375 25.390625 
L 58.015625 25.390625 
L 58.015625 17.1875 
L 47.609375 17.1875 
L 47.609375 0 
L 37.796875 0 
L 37.796875 17.1875 
L 4.890625 17.1875 
L 4.890625 26.703125 
z
" id="DejaVuSans-52"/>
      </defs>
      <g transform="translate(20.878125 101.699781)scale(0.1 -0.1)">
       <use xlink:href="#DejaVuSans-52"/>
      </g>
     </g>
    </g>
    <g id="ytick_4">
     <g id="line2d_10">
      <g>
       <use style="stroke:#000000;stroke-width:0.8;" x="34.240625" xlink:href="#mb852e253e8" y="63.868355"/>
      </g>
     </g>
     <g id="text_11">
      <!-- 6 -->
      <defs>
       <path d="M 33.015625 40.375 
Q 26.375 40.375 22.484375 35.828125 
Q 18.609375 31.296875 18.609375 23.390625 
Q 18.609375 15.53125 22.484375 10.953125 
Q 26.375 6.390625 33.015625 6.390625 
Q 39.65625 6.390625 43.53125 10.953125 
Q 47.40625 15.53125 47.40625 23.390625 
Q 47.40625 31.296875 43.53125 35.828125 
Q 39.65625 40.375 33.015625 40.375 
z
M 52.59375 71.296875 
L 52.59375 62.3125 
Q 48.875 64.0625 45.09375 64.984375 
Q 41.3125 65.921875 37.59375 65.921875 
Q 27.828125 65.921875 22.671875 59.328125 
Q 17.53125 52.734375 16.796875 39.40625 
Q 19.671875 43.65625 24.015625 45.921875 
Q 28.375 48.1875 33.59375 48.1875 
Q 44.578125 48.1875 50.953125 41.515625 
Q 57.328125 34.859375 57.328125 23.390625 
Q 57.328125 12.15625 50.6875 5.359375 
Q 44.046875 -1.421875 33.015625 -1.421875 
Q 20.359375 -1.421875 13.671875 8.265625 
Q 6.984375 17.96875 6.984375 36.375 
Q 6.984375 53.65625 15.1875 63.9375 
Q 23.390625 74.21875 37.203125 74.21875 
Q 40.921875 74.21875 44.703125 73.484375 
Q 48.484375 72.75 52.59375 71.296875 
z
" id="DejaVuSans-54"/>
      </defs>
      <g transform="translate(20.878125 67.667574)scale(0.1 -0.1)">
       <use xlink:href="#DejaVuSans-54"/>
      </g>
     </g>
    </g>
    <g id="ytick_5">
     <g id="line2d_11">
      <g>
       <use style="stroke:#000000;stroke-width:0.8;" x="34.240625" xlink:href="#mb852e253e8" y="29.836149"/>
      </g>
     </g>
     <g id="text_12">
      <!-- 8 -->
      <defs>
       <path d="M 31.78125 34.625 
Q 24.75 34.625 20.71875 30.859375 
Q 16.703125 27.09375 16.703125 20.515625 
Q 16.703125 13.921875 20.71875 10.15625 
Q 24.75 6.390625 31.78125 6.390625 
Q 38.8125 6.390625 42.859375 10.171875 
Q 46.921875 13.96875 46.921875 20.515625 
Q 46.921875 27.09375 42.890625 30.859375 
Q 38.875 34.625 31.78125 34.625 
z
M 21.921875 38.8125 
Q 15.578125 40.375 12.03125 44.71875 
Q 8.5 49.078125 8.5 55.328125 
Q 8.5 64.0625 14.71875 69.140625 
Q 20.953125 74.21875 31.78125 74.21875 
Q 42.671875 74.21875 48.875 69.140625 
Q 55.078125 64.0625 55.078125 55.328125 
Q 55.078125 49.078125 51.53125 44.71875 
Q 48 40.375 41.703125 38.8125 
Q 48.828125 37.15625 52.796875 32.3125 
Q 56.78125 27.484375 56.78125 20.515625 
Q 56.78125 9.90625 50.3125 4.234375 
Q 43.84375 -1.421875 31.78125 -1.421875 
Q 19.734375 -1.421875 13.25 4.234375 
Q 6.78125 9.90625 6.78125 20.515625 
Q 6.78125 27.484375 10.78125 32.3125 
Q 14.796875 37.15625 21.921875 38.8125 
z
M 18.3125 54.390625 
Q 18.3125 48.734375 21.84375 45.5625 
Q 25.390625 42.390625 31.78125 42.390625 
Q 38.140625 42.390625 41.71875 45.5625 
Q 45.3125 48.734375 45.3125 54.390625 
Q 45.3125 60.0625 41.71875 63.234375 
Q 38.140625 66.40625 31.78125 66.40625 
Q 25.390625 66.40625 21.84375 63.234375 
Q 18.3125 60.0625 18.3125 54.390625 
z
" id="DejaVuSans-56"/>
      </defs>
      <g transform="translate(20.878125 33.635367)scale(0.1 -0.1)">
       <use xlink:href="#DejaVuSans-56"/>
      </g>
     </g>
    </g>
    <g id="text_13">
     <!-- precipitation [mm/hour] -->
     <defs>
      <path d="M 18.109375 8.203125 
L 18.109375 -20.796875 
L 9.078125 -20.796875 
L 9.078125 54.6875 
L 18.109375 54.6875 
L 18.109375 46.390625 
Q 20.953125 51.265625 25.265625 53.625 
Q 29.59375 56 35.59375 56 
Q 45.5625 56 51.78125 48.09375 
Q 58.015625 40.1875 58.015625 27.296875 
Q 58.015625 14.40625 51.78125 6.484375 
Q 45.5625 -1.421875 35.59375 -1.421875 
Q 29.59375 -1.421875 25.265625 0.953125 
Q 20.953125 3.328125 18.109375 8.203125 
z
M 48.6875 27.296875 
Q 48.6875 37.203125 44.609375 42.84375 
Q 40.53125 48.484375 33.40625 48.484375 
Q 26.265625 48.484375 22.1875 42.84375 
Q 18.109375 37.203125 18.109375 27.296875 
Q 18.109375 17.390625 22.1875 11.75 
Q 26.265625 6.109375 33.40625 6.109375 
Q 40.53125 6.109375 44.609375 11.75 
Q 48.6875 17.390625 48.6875 27.296875 
z
" id="DejaVuSans-112"/>
      <path d="M 56.203125 29.59375 
L 56.203125 25.203125 
L 14.890625 25.203125 
Q 15.484375 15.921875 20.484375 11.0625 
Q 25.484375 6.203125 34.421875 6.203125 
Q 39.59375 6.203125 44.453125 7.46875 
Q 49.3125 8.734375 54.109375 11.28125 
L 54.109375 2.78125 
Q 49.265625 0.734375 44.1875 -0.34375 
Q 39.109375 -1.421875 33.890625 -1.421875 
Q 20.796875 -1.421875 13.15625 6.1875 
Q 5.515625 13.8125 5.515625 26.8125 
Q 5.515625 40.234375 12.765625 48.109375 
Q 20.015625 56 32.328125 56 
Q 43.359375 56 49.78125 48.890625 
Q 56.203125 41.796875 56.203125 29.59375 
z
M 47.21875 32.234375 
Q 47.125 39.59375 43.09375 43.984375 
Q 39.0625 48.390625 32.421875 48.390625 
Q 24.90625 48.390625 20.390625 44.140625 
Q 15.875 39.890625 15.1875 32.171875 
z
" id="DejaVuSans-101"/>
      <path d="M 48.78125 52.59375 
L 48.78125 44.1875 
Q 44.96875 46.296875 41.140625 47.34375 
Q 37.3125 48.390625 33.40625 48.390625 
Q 24.65625 48.390625 19.8125 42.84375 
Q 14.984375 37.3125 14.984375 27.296875 
Q 14.984375 17.28125 19.8125 11.734375 
Q 24.65625 6.203125 33.40625 6.203125 
Q 37.3125 6.203125 41.140625 7.25 
Q 44.96875 8.296875 48.78125 10.40625 
L 48.78125 2.09375 
Q 45.015625 0.34375 40.984375 -0.53125 
Q 36.96875 -1.421875 32.421875 -1.421875 
Q 20.0625 -1.421875 12.78125 6.34375 
Q 5.515625 14.109375 5.515625 27.296875 
Q 5.515625 40.671875 12.859375 48.328125 
Q 20.21875 56 33.015625 56 
Q 37.15625 56 41.109375 55.140625 
Q 45.0625 54.296875 48.78125 52.59375 
z
" id="DejaVuSans-99"/>
      <path d="M 9.421875 54.6875 
L 18.40625 54.6875 
L 18.40625 0 
L 9.421875 0 
z
M 9.421875 75.984375 
L 18.40625 75.984375 
L 18.40625 64.59375 
L 9.421875 64.59375 
z
" id="DejaVuSans-105"/>
      <path d="M 18.3125 70.21875 
L 18.3125 54.6875 
L 36.8125 54.6875 
L 36.8125 47.703125 
L 18.3125 47.703125 
L 18.3125 18.015625 
Q 18.3125 11.328125 20.140625 9.421875 
Q 21.96875 7.515625 27.59375 7.515625 
L 36.8125 7.515625 
L 36.8125 0 
L 27.59375 0 
Q 17.1875 0 13.234375 3.875 
Q 9.28125 7.765625 9.28125 18.015625 
L 9.28125 47.703125 
L 2.6875 47.703125 
L 2.6875 54.6875 
L 9.28125 54.6875 
L 9.28125 70.21875 
z
" id="DejaVuSans-116"/>
      <path d="M 34.28125 27.484375 
Q 23.390625 27.484375 19.1875 25 
Q 14.984375 22.515625 14.984375 16.5 
Q 14.984375 11.71875 18.140625 8.90625 
Q 21.296875 6.109375 26.703125 6.109375 
Q 34.1875 6.109375 38.703125 11.40625 
Q 43.21875 16.703125 43.21875 25.484375 
L 43.21875 27.484375 
z
M 52.203125 31.203125 
L 52.203125 0 
L 43.21875 0 
L 43.21875 8.296875 
Q 40.140625 3.328125 35.546875 0.953125 
Q 30.953125 -1.421875 24.3125 -1.421875 
Q 15.921875 -1.421875 10.953125 3.296875 
Q 6 8.015625 6 15.921875 
Q 6 25.140625 12.171875 29.828125 
Q 18.359375 34.515625 30.609375 34.515625 
L 43.21875 34.515625 
L 43.21875 35.40625 
Q 43.21875 41.609375 39.140625 45 
Q 35.0625 48.390625 27.6875 48.390625 
Q 23 48.390625 18.546875 47.265625 
Q 14.109375 46.140625 10.015625 43.890625 
L 10.015625 52.203125 
Q 14.9375 54.109375 19.578125 55.046875 
Q 24.21875 56 28.609375 56 
Q 40.484375 56 46.34375 49.84375 
Q 52.203125 43.703125 52.203125 31.203125 
z
" id="DejaVuSans-97"/>
      <path d="M 54.890625 33.015625 
L 54.890625 0 
L 45.90625 0 
L 45.90625 32.71875 
Q 45.90625 40.484375 42.875 44.328125 
Q 39.84375 48.1875 33.796875 48.1875 
Q 26.515625 48.1875 22.3125 43.546875 
Q 18.109375 38.921875 18.109375 30.90625 
L 18.109375 0 
L 9.078125 0 
L 9.078125 54.6875 
L 18.109375 54.6875 
L 18.109375 46.1875 
Q 21.34375 51.125 25.703125 53.5625 
Q 30.078125 56 35.796875 56 
Q 45.21875 56 50.046875 50.171875 
Q 54.890625 44.34375 54.890625 33.015625 
z
" id="DejaVuSans-110"/>
      <path id="DejaVuSans-32"/>
      <path d="M 8.59375 75.984375 
L 29.296875 75.984375 
L 29.296875 69 
L 17.578125 69 
L 17.578125 -6.203125 
L 29.296875 -6.203125 
L 29.296875 -13.1875 
L 8.59375 -13.1875 
z
" id="DejaVuSans-91"/>
      <path d="M 52 44.1875 
Q 55.375 50.25 60.0625 53.125 
Q 64.75 56 71.09375 56 
Q 79.640625 56 84.28125 50.015625 
Q 88.921875 44.046875 88.921875 33.015625 
L 88.921875 0 
L 79.890625 0 
L 79.890625 32.71875 
Q 79.890625 40.578125 77.09375 44.375 
Q 74.3125 48.1875 68.609375 48.1875 
Q 61.625 48.1875 57.5625 43.546875 
Q 53.515625 38.921875 53.515625 30.90625 
L 53.515625 0 
L 44.484375 0 
L 44.484375 32.71875 
Q 44.484375 40.625 41.703125 44.40625 
Q 38.921875 48.1875 33.109375 48.1875 
Q 26.21875 48.1875 22.15625 43.53125 
Q 18.109375 38.875 18.109375 30.90625 
L 18.109375 0 
L 9.078125 0 
L 9.078125 54.6875 
L 18.109375 54.6875 
L 18.109375 46.1875 
Q 21.1875 51.21875 25.484375 53.609375 
Q 29.78125 56 35.6875 56 
Q 41.65625 56 45.828125 52.96875 
Q 50 49.953125 52 44.1875 
z
" id="DejaVuSans-109"/>
      <path d="M 25.390625 72.90625 
L 33.6875 72.90625 
L 8.296875 -9.28125 
L 0 -9.28125 
z
" id="DejaVuSans-47"/>
      <path d="M 30.421875 75.984375 
L 30.421875 -13.1875 
L 9.71875 -13.1875 
L 9.71875 -6.203125 
L 21.390625 -6.203125 
L 21.390625 69 
L 9.71875 69 
L 9.71875 75.984375 
z
" id="DejaVuSans-93"/>
     </defs>
     <g transform="translate(14.798438 150.335781)rotate(-90)scale(0.1 -0.1)">
      <use xlink:href="#DejaVuSans-112"/>
      <use x="63.476562" xlink:href="#DejaVuSans-114"/>
      <use x="104.558594" xlink:href="#DejaVuSans-101"/>
      <use x="166.082031" xlink:href="#DejaVuSans-99"/>
      <use x="221.0625" xlink:href="#DejaVuSans-105"/>
      <use x="248.845703" xlink:href="#DejaVuSans-112"/>
      <use x="312.322266" xlink:href="#DejaVuSans-105"/>
      <use x="340.105469" xlink:href="#DejaVuSans-116"/>
      <use x="379.314453" xlink:href="#DejaVuSans-97"/>
      <use x="440.59375" xlink:href="#DejaVuSans-116"/>
      <use x="479.802734" xlink:href="#DejaVuSans-105"/>
      <use x="507.585938" xlink:href="#DejaVuSans-111"/>
      <use x="568.767578" xlink:href="#DejaVuSans-110"/>
      <use x="632.146484" xlink:href="#DejaVuSans-32"/>
      <use x="663.933594" xlink:href="#DejaVuSans-91"/>
      <use x="702.947266" xlink:href="#DejaVuSans-109"/>
      <use x="800.359375" xlink:href="#DejaVuSans-109"/>
      <use x="897.771484" xlink:href="#DejaVuSans-47"/>
      <use x="931.462891" xlink:href="#DejaVuSans-104"/>
      <use x="994.841797" xlink:href="#DejaVuSans-111"/>
      <use x="1056.023438" xlink:href="#DejaVuSans-117"/>
      <use x="1119.402344" xlink:href="#DejaVuSans-114"/>
      <use x="1160.515625" xlink:href="#DejaVuSans-93"/>
     </g>
    </g>
   </g>
   <g id="line2d_12">
    <path clip-path="url(#p42bf270bec)" d="M 51.99517 165.883603 
L 67.433906 165.775799 
L 82.872641 165.613322 
L 98.311376 164.988974 
L 113.750111 162.312512 
L 129.188846 148.640998 
L 144.627582 143.571701 
L 160.066317 141.024608 
L 175.505052 132.57565 
L 190.943787 127.509909 
L 206.382522 126.108762 
L 221.821257 148.397366 
L 237.259993 163.285519 
L 252.698728 163.763909 
L 268.137463 163.369572 
L 283.576198 160.92047 
L 299.014933 163.694643 
L 314.453668 165.73262 
L 329.892404 165.905402 
L 345.331139 165.709264 
L 360.769874 163.724929 
L 376.208609 165.250363 
L 391.647344 165.272391 
L 407.08608 159.78943 
" style="fill:none;stroke:#1b9e77;stroke-linecap:square;stroke-opacity:0.5;stroke-width:1.5;"/>
   </g>
   <g id="line2d_13">
    <path clip-path="url(#p42bf270bec)" d="M 51.99517 147.978128 
L 67.433906 151.998997 
L 82.872641 163.085245 
L 98.311376 164.584841 
L 113.750111 165.42946 
L 129.188846 165.709605 
L 144.627582 165.844145 
L 160.066317 165.913217 
L 175.505052 165.919829 
L 190.943787 165.942289 
L 206.382522 165.945261 
L 221.821257 165.946341 
L 237.259993 165.890933 
L 252.698728 165.659992 
L 268.137463 163.157883 
L 283.576198 153.802055 
L 299.014933 148.274858 
L 314.453668 136.35027 
L 329.892404 115.081252 
L 345.331139 99.190114 
L 360.769874 164.562558 
L 376.208609 163.846273 
L 391.647344 165.077808 
L 407.08608 163.630363 
" style="fill:none;stroke:#1b9e77;stroke-linecap:square;stroke-opacity:0.5;stroke-width:1.5;"/>
   </g>
   <g id="line2d_14">
    <path clip-path="url(#p42bf270bec)" d="M 51.99517 165.611685 
L 67.433906 165.770446 
L 82.872641 165.751747 
L 98.311376 165.911987 
L 113.750111 165.743622 
L 129.188846 165.383935 
L 144.627582 164.881279 
L 160.066317 163.470099 
L 175.505052 165.16606 
L 190.943787 165.494708 
L 206.382522 165.089837 
L 221.821257 163.167423 
L 237.259993 165.141586 
L 252.698728 165.534419 
L 268.137463 164.721494 
L 283.576198 161.852853 
L 299.014933 122.688647 
L 314.453668 19.948489 
L 329.892404 151.584234 
L 345.331139 164.857237 
L 360.769874 164.563636 
L 376.208609 165.160949 
L 391.647344 165.544926 
L 407.08608 165.780398 
" style="fill:none;stroke:#1b9e77;stroke-linecap:square;stroke-opacity:0.5;stroke-width:1.5;"/>
   </g>
   <g id="line2d_15">
    <path clip-path="url(#p42bf270bec)" d="M 51.99517 136.85331 
L 67.433906 131.094139 
L 82.872641 138.520171 
L 98.311376 160.250541 
L 113.750111 164.185584 
L 129.188846 165.206179 
L 144.627582 165.16321 
L 160.066317 165.031642 
L 175.505052 164.963082 
L 190.943787 164.898034 
L 206.382522 164.615112 
L 221.821257 164.02761 
L 237.259993 162.720627 
L 252.698728 163.203851 
L 268.137463 163.024208 
L 283.576198 159.661357 
L 299.014933 161.693495 
L 314.453668 162.781587 
L 329.892404 159.343935 
L 345.331139 126.870382 
L 360.769874 152.494273 
L 376.208609 162.592538 
L 391.647344 162.620375 
L 407.08608 137.006474 
" style="fill:none;stroke:#1b9e77;stroke-linecap:square;stroke-opacity:0.5;stroke-width:1.5;"/>
   </g>
   <g id="line2d_16">
    <path clip-path="url(#p42bf270bec)" d="M 51.99517 157.331087 
L 67.433906 162.929307 
L 82.872641 164.460374 
L 98.311376 165.014762 
L 113.750111 165.542844 
L 129.188846 165.785442 
L 144.627582 165.836956 
L 160.066317 165.882498 
L 175.505052 165.706209 
L 190.943787 164.328302 
L 206.382522 162.734353 
L 221.821257 161.157679 
L 237.259993 148.87477 
L 252.698728 146.110089 
L 268.137463 151.816276 
L 283.576198 148.348033 
L 299.014933 140.836191 
L 314.453668 141.853894 
L 329.892404 155.368157 
L 345.331139 152.215208 
L 360.769874 141.593649 
L 376.208609 150.374198 
L 391.647344 153.329399 
L 407.08608 161.392041 
" style="fill:none;stroke:#1b9e77;stroke-linecap:square;stroke-opacity:0.5;stroke-width:1.5;"/>
   </g>
   <g id="line2d_17">
    <path clip-path="url(#p42bf270bec)" d="M 51.99517 162.999505 
L 67.433906 165.520876 
L 82.872641 165.464649 
L 98.311376 165.678052 
L 113.750111 165.724052 
L 129.188846 165.86318 
L 144.627582 165.922716 
L 160.066317 165.922711 
L 175.505052 165.905632 
L 190.943787 165.91891 
L 206.382522 165.930814 
L 221.821257 165.927182 
L 237.259993 165.913038 
L 252.698728 165.92399 
L 268.137463 165.794472 
L 283.576198 155.856294 
L 299.014933 147.239908 
L 314.453668 149.620875 
L 329.892404 113.256146 
L 345.331139 121.023373 
L 360.769874 141.202696 
L 376.208609 142.352216 
L 391.647344 142.093052 
L 407.08608 161.767378 
" style="fill:none;stroke:#1b9e77;stroke-linecap:square;stroke-opacity:0.5;stroke-width:1.5;"/>
   </g>
   <g id="line2d_18">
    <path clip-path="url(#p42bf270bec)" d="M 51.99517 150.618343 
L 67.433906 151.473027 
L 82.872641 154.499154 
L 98.311376 161.365379 
L 113.750111 162.770775 
L 129.188846 164.575364 
L 144.627582 165.24021 
L 160.066317 165.493245 
L 175.505052 165.518147 
L 190.943787 165.640599 
L 206.382522 165.602693 
L 221.821257 165.331915 
L 237.259993 163.90359 
L 252.698728 162.078577 
L 268.137463 153.316754 
L 283.576198 119.803227 
L 299.014933 140.682424 
L 314.453668 148.909923 
L 329.892404 157.498371 
L 345.331139 157.887524 
L 360.769874 154.344677 
L 376.208609 155.644393 
L 391.647344 159.773431 
L 407.08608 146.849972 
" style="fill:none;stroke:#1b9e77;stroke-linecap:square;stroke-opacity:0.5;stroke-width:1.5;"/>
   </g>
   <g id="line2d_19">
    <path clip-path="url(#p42bf270bec)" d="M 51.99517 165.827372 
L 67.433906 164.047177 
L 82.872641 164.127933 
L 98.311376 163.718415 
L 113.750111 164.799229 
L 129.188846 165.696901 
L 144.627582 165.799521 
L 160.066317 163.510303 
L 175.505052 154.563189 
L 190.943787 155.31063 
L 206.382522 150.346575 
L 221.821257 148.118716 
L 237.259993 139.584184 
L 252.698728 158.195579 
L 268.137463 161.4171 
L 283.576198 153.214809 
L 299.014933 90.417313 
L 314.453668 158.27917 
L 329.892404 164.686522 
L 345.331139 164.313224 
L 360.769874 159.663516 
L 376.208609 160.547546 
L 391.647344 159.300559 
L 407.08608 163.336231 
" style="fill:none;stroke:#1b9e77;stroke-linecap:square;stroke-opacity:0.5;stroke-width:1.5;"/>
   </g>
   <g id="line2d_20">
    <path clip-path="url(#p42bf270bec)" d="M 51.99517 165.430532 
L 67.433906 164.988697 
L 82.872641 155.333424 
L 98.311376 158.278282 
L 113.750111 117.829081 
L 129.188846 129.066497 
L 144.627582 139.899606 
L 160.066317 137.116592 
L 175.505052 152.236997 
L 190.943787 161.349144 
L 206.382522 157.385017 
L 221.821257 157.293596 
L 237.259993 163.321525 
L 252.698728 141.590604 
L 268.137463 165.014909 
L 283.576198 165.781679 
L 299.014933 165.62459 
L 314.453668 165.780369 
L 329.892404 165.890302 
L 345.331139 165.935853 
L 360.769874 165.946887 
L 376.208609 165.954813 
L 391.647344 165.951884 
L 407.08608 165.820835 
" style="fill:none;stroke:#1b9e77;stroke-linecap:square;stroke-opacity:0.5;stroke-width:1.5;"/>
   </g>
   <g id="line2d_21">
    <path clip-path="url(#p42bf270bec)" d="M 51.99517 162.307466 
L 67.433906 155.663149 
L 82.872641 119.051011 
L 98.311376 122.055004 
L 113.750111 117.148177 
L 129.188846 153.119339 
L 144.627582 165.033131 
L 160.066317 165.045841 
L 175.505052 160.878504 
L 190.943787 152.637953 
L 206.382522 165.540868 
L 221.821257 165.714803 
L 237.259993 165.529244 
L 252.698728 153.074015 
L 268.137463 153.315923 
L 283.576198 156.07408 
L 299.014933 165.742383 
L 314.453668 165.681585 
L 329.892404 165.803311 
L 345.331139 165.740117 
L 360.769874 165.919452 
L 376.208609 165.922066 
L 391.647344 165.895941 
L 407.08608 165.928357 
" style="fill:none;stroke:#1b9e77;stroke-linecap:square;stroke-opacity:0.5;stroke-width:1.5;"/>
   </g>
   <g id="line2d_22">
    <path clip-path="url(#p42bf270bec)" d="M 51.99517 165.790605 
L 67.433906 165.54104 
L 82.872641 165.645349 
L 98.311376 165.804358 
L 113.750111 165.842358 
L 129.188846 165.910389 
L 144.627582 165.908233 
L 160.066317 165.471411 
L 175.505052 163.969747 
L 190.943787 164.000314 
L 206.382522 159.272587 
L 221.821257 151.953922 
L 237.259993 147.655271 
L 252.698728 141.466508 
L 268.137463 133.622766 
L 283.576198 132.190337 
L 299.014933 140.124928 
L 314.453668 144.363265 
L 329.892404 147.300306 
L 345.331139 152.27963 
L 360.769874 161.969753 
L 376.208609 164.053428 
L 391.647344 165.234069 
L 407.08608 163.451141 
" style="fill:none;stroke:#1b9e77;stroke-linecap:square;stroke-opacity:0.5;stroke-width:1.5;"/>
   </g>
   <g id="line2d_23">
    <path clip-path="url(#p42bf270bec)" d="M 51.99517 164.545099 
L 67.433906 160.628291 
L 82.872641 150.877845 
L 98.311376 160.92461 
L 113.750111 165.281562 
L 129.188846 163.792256 
L 144.627582 162.068985 
L 160.066317 161.222023 
L 175.505052 163.727569 
L 190.943787 165.696977 
L 206.382522 162.569865 
L 221.821257 150.249898 
L 237.259993 161.708225 
L 252.698728 159.746707 
L 268.137463 155.543905 
L 283.576198 161.315854 
L 299.014933 164.725101 
L 314.453668 165.557426 
L 329.892404 165.06414 
L 345.331139 163.464806 
L 360.769874 72.99863 
L 376.208609 135.387242 
L 391.647344 159.337231 
L 407.08608 162.387468 
" style="fill:none;stroke:#1b9e77;stroke-linecap:square;stroke-opacity:0.5;stroke-width:1.5;"/>
   </g>
   <g id="line2d_24">
    <path clip-path="url(#p42bf270bec)" d="M 51.99517 165.552059 
L 67.433906 165.761394 
L 82.872641 165.639039 
L 98.311376 165.70899 
L 113.750111 155.660103 
L 129.188846 116.578025 
L 144.627582 164.062076 
L 160.066317 164.628669 
L 175.505052 163.583217 
L 190.943787 164.322088 
L 206.382522 164.953103 
L 221.821257 165.255742 
L 237.259993 165.017639 
L 252.698728 164.533125 
L 268.137463 156.356442 
L 283.576198 137.007468 
L 299.014933 112.01718 
L 314.453668 155.215937 
L 329.892404 160.29241 
L 345.331139 143.938549 
L 360.769874 151.599306 
L 376.208609 162.113432 
L 391.647344 164.81597 
L 407.08608 164.20975 
" style="fill:none;stroke:#1b9e77;stroke-linecap:square;stroke-opacity:0.5;stroke-width:1.5;"/>
   </g>
   <g id="line2d_25">
    <path clip-path="url(#p42bf270bec)" d="M 51.99517 165.54623 
L 67.433906 165.809898 
L 82.872641 165.76902 
L 98.311376 165.895311 
L 113.750111 165.514215 
L 129.188846 165.519762 
L 144.627582 165.782572 
L 160.066317 165.806601 
L 175.505052 165.654204 
L 190.943787 165.229119 
L 206.382522 161.918233 
L 221.821257 161.570622 
L 237.259993 158.499461 
L 252.698728 164.995407 
L 268.137463 164.385643 
L 283.576198 159.694907 
L 299.014933 95.97148 
L 314.453668 98.818351 
L 329.892404 129.239721 
L 345.331139 155.682645 
L 360.769874 160.200612 
L 376.208609 162.65438 
L 391.647344 163.784574 
L 407.08608 164.878748 
" style="fill:none;stroke:#1b9e77;stroke-linecap:square;stroke-opacity:0.5;stroke-width:1.5;"/>
   </g>
   <g id="line2d_26">
    <path clip-path="url(#p42bf270bec)" d="M 51.99517 155.21249 
L 67.433906 151.756691 
L 82.872641 159.218619 
L 98.311376 149.931114 
L 113.750111 153.286248 
L 129.188846 142.862409 
L 144.627582 146.511234 
L 160.066317 147.032943 
L 175.505052 138.450253 
L 190.943787 142.736339 
L 206.382522 151.662923 
L 221.821257 157.061795 
L 237.259993 162.143651 
L 252.698728 162.450594 
L 268.137463 164.523368 
L 283.576198 165.392937 
L 299.014933 163.066635 
L 314.453668 157.693126 
L 329.892404 159.809215 
L 345.331139 165.753751 
L 360.769874 165.580772 
L 376.208609 165.682496 
L 391.647344 165.788973 
L 407.08608 165.213136 
" style="fill:none;stroke:#1b9e77;stroke-linecap:square;stroke-opacity:0.5;stroke-width:1.5;"/>
   </g>
   <g id="line2d_27">
    <path clip-path="url(#p42bf270bec)" d="M 51.99517 165.878764 
L 67.433906 165.821832 
L 82.872641 165.871918 
L 98.311376 165.754287 
L 113.750111 165.387817 
L 129.188846 165.715353 
L 144.627582 154.19993 
L 160.066317 128.466255 
L 175.505052 150.289235 
L 190.943787 145.869203 
L 206.382522 141.717216 
L 221.821257 145.794139 
L 237.259993 120.620716 
L 252.698728 120.40947 
L 268.137463 165.288322 
L 283.576198 165.609095 
L 299.014933 165.436446 
L 314.453668 165.703759 
L 329.892404 165.881093 
L 345.331139 165.897336 
L 360.769874 165.89002 
L 376.208609 165.924552 
L 391.647344 165.942267 
L 407.08608 165.452679 
" style="fill:none;stroke:#1b9e77;stroke-linecap:square;stroke-opacity:0.5;stroke-width:1.5;"/>
   </g>
   <g id="line2d_28">
    <path clip-path="url(#p42bf270bec)" d="M 51.99517 165.387235 
L 67.433906 164.988025 
L 82.872641 158.448912 
L 98.311376 156.792405 
L 113.750111 71.332812 
L 129.188846 148.301522 
L 144.627582 164.352621 
L 160.066317 164.961189 
L 175.505052 165.514812 
L 190.943787 165.023187 
L 206.382522 165.021921 
L 221.821257 165.528087 
L 237.259993 165.636792 
L 252.698728 165.558376 
L 268.137463 163.210558 
L 283.576198 165.071661 
L 299.014933 160.031005 
L 314.453668 138.438382 
L 329.892404 156.114847 
L 345.331139 146.04034 
L 360.769874 151.306697 
L 376.208609 163.34693 
L 391.647344 163.853024 
L 407.08608 164.560369 
" style="fill:none;stroke:#1b9e77;stroke-linecap:square;stroke-opacity:0.5;stroke-width:1.5;"/>
   </g>
   <g id="line2d_29">
    <path clip-path="url(#p42bf270bec)" d="M 51.99517 165.782023 
L 67.433906 165.429927 
L 82.872641 165.527891 
L 98.311376 165.725718 
L 113.750111 165.817211 
L 129.188846 165.847666 
L 144.627582 165.859512 
L 160.066317 165.900101 
L 175.505052 165.915143 
L 190.943787 165.927232 
L 206.382522 165.927785 
L 221.821257 165.931088 
L 237.259993 165.925493 
L 252.698728 165.922481 
L 268.137463 163.307733 
L 283.576198 146.492568 
L 299.014933 142.169609 
L 314.453668 128.37559 
L 329.892404 129.281066 
L 345.331139 148.021842 
L 360.769874 120.341492 
L 376.208609 148.210624 
L 391.647344 147.594541 
L 407.08608 163.58738 
" style="fill:none;stroke:#1b9e77;stroke-linecap:square;stroke-opacity:0.5;stroke-width:1.5;"/>
   </g>
   <g id="line2d_30">
    <path clip-path="url(#p42bf270bec)" d="M 51.99517 165.92116 
L 67.433906 165.860538 
L 82.872641 165.86507 
L 98.311376 165.919199 
L 113.750111 165.9346 
L 129.188846 165.951084 
L 144.627582 165.950977 
L 160.066317 165.942829 
L 175.505052 165.921342 
L 190.943787 165.759519 
L 206.382522 156.893709 
L 221.821257 151.423712 
L 237.259993 148.590708 
L 252.698728 157.254853 
L 268.137463 139.451619 
L 283.576198 145.587036 
L 299.014933 163.669068 
L 314.453668 162.787708 
L 329.892404 144.008541 
L 345.331139 161.7397 
L 360.769874 131.0939 
L 376.208609 117.059975 
L 391.647344 157.082399 
L 407.08608 163.152461 
" style="fill:none;stroke:#1b9e77;stroke-linecap:square;stroke-opacity:0.5;stroke-width:1.5;"/>
   </g>
   <g id="line2d_31">
    <path clip-path="url(#p42bf270bec)" d="M 51.99517 165.887233 
L 67.433906 165.765436 
L 82.872641 165.781915 
L 98.311376 165.877259 
L 113.750111 165.895674 
L 129.188846 165.920954 
L 144.627582 165.916539 
L 160.066317 165.928504 
L 175.505052 165.880274 
L 190.943787 165.61279 
L 206.382522 155.859956 
L 221.821257 142.963314 
L 237.259993 143.6902 
L 252.698728 141.245556 
L 268.137463 133.262935 
L 283.576198 161.414047 
L 299.014933 165.581835 
L 314.453668 165.743565 
L 329.892404 165.473633 
L 345.331139 162.134654 
L 360.769874 128.283448 
L 376.208609 124.085064 
L 391.647344 145.239211 
L 407.08608 165.377722 
" style="fill:none;stroke:#1b9e77;stroke-linecap:square;stroke-opacity:0.5;stroke-width:1.5;"/>
   </g>
   <g id="line2d_32">
    <path clip-path="url(#p42bf270bec)" d="M 51.99517 162.385881 
L 67.433906 159.04396 
L 82.872641 141.382204 
L 98.311376 141.95417 
L 113.750111 139.296666 
L 129.188846 148.429349 
L 144.627582 155.270606 
L 160.066317 153.99883 
L 175.505052 153.863435 
L 190.943787 152.396897 
L 206.382522 147.114396 
L 221.821257 134.467433 
L 237.259993 151.981149 
L 252.698728 163.304496 
L 268.137463 165.224358 
L 283.576198 165.536066 
L 299.014933 165.708555 
L 314.453668 165.747184 
L 329.892404 165.9097 
L 345.331139 165.942487 
L 360.769874 165.897712 
L 376.208609 165.679256 
L 391.647344 162.610393 
L 407.08608 165.676528 
" style="fill:none;stroke:#1b9e77;stroke-linecap:square;stroke-opacity:0.5;stroke-width:1.5;"/>
   </g>
   <g id="line2d_33">
    <path clip-path="url(#p42bf270bec)" d="M 51.99517 164.628726 
L 67.433906 163.973421 
L 82.872641 157.590784 
L 98.311376 153.396753 
L 113.750111 156.306773 
L 129.188846 160.350575 
L 144.627582 162.240503 
L 160.066317 163.21975 
L 175.505052 160.963739 
L 190.943787 157.61154 
L 206.382522 159.035042 
L 221.821257 164.756527 
L 237.259993 140.486465 
L 252.698728 145.071224 
L 268.137463 160.623519 
L 283.576198 148.104054 
L 299.014933 151.926198 
L 314.453668 146.608987 
L 329.892404 144.306218 
L 345.331139 138.981392 
L 360.769874 162.152568 
L 376.208609 165.389414 
L 391.647344 165.660716 
L 407.08608 165.436824 
" style="fill:none;stroke:#1b9e77;stroke-linecap:square;stroke-opacity:0.5;stroke-width:1.5;"/>
   </g>
   <g id="line2d_34">
    <path clip-path="url(#p42bf270bec)" d="M 51.99517 165.583094 
L 67.433906 165.588845 
L 82.872641 165.435337 
L 98.311376 163.073965 
L 113.750111 153.922879 
L 129.188846 144.472237 
L 144.627582 146.468024 
L 160.066317 146.980062 
L 175.505052 149.022329 
L 190.943787 140.439242 
L 206.382522 150.809978 
L 221.821257 156.027687 
L 237.259993 160.324978 
L 252.698728 162.852796 
L 268.137463 161.356924 
L 283.576198 158.327269 
L 299.014933 158.700784 
L 314.453668 160.337373 
L 329.892404 157.24781 
L 345.331139 152.606186 
L 360.769874 156.211061 
L 376.208609 159.067238 
L 391.647344 160.168467 
L 407.08608 163.79715 
" style="fill:none;stroke:#1b9e77;stroke-linecap:square;stroke-opacity:0.5;stroke-width:1.5;"/>
   </g>
   <g id="line2d_35">
    <path clip-path="url(#p42bf270bec)" d="M 51.99517 107.689881 
L 67.433906 132.820694 
L 82.872641 132.334217 
L 98.311376 155.157728 
L 113.750111 160.154416 
L 129.188846 164.337991 
L 144.627582 165.24304 
L 160.066317 165.328865 
L 175.505052 165.111095 
L 190.943787 165.413432 
L 206.382522 165.342801 
L 221.821257 165.215207 
L 237.259993 164.941445 
L 252.698728 164.697032 
L 268.137463 164.566912 
L 283.576198 163.42889 
L 299.014933 163.896595 
L 314.453668 163.898648 
L 329.892404 163.762042 
L 345.331139 163.755548 
L 360.769874 163.452751 
L 376.208609 164.017047 
L 391.647344 163.91583 
L 407.08608 110.3396 
" style="fill:none;stroke:#1b9e77;stroke-linecap:square;stroke-opacity:0.5;stroke-width:1.5;"/>
   </g>
   <g id="line2d_36">
    <path clip-path="url(#p42bf270bec)" d="M 51.99517 152.244671 
L 67.433906 145.896385 
L 82.872641 132.627816 
L 98.311376 80.413844 
L 113.750111 133.605644 
L 129.188846 156.592189 
L 144.627582 161.548556 
L 160.066317 162.912848 
L 175.505052 162.723975 
L 190.943787 163.245324 
L 206.382522 163.984462 
L 221.821257 164.243678 
L 237.259993 164.326413 
L 252.698728 165.074554 
L 268.137463 165.428941 
L 283.576198 165.226066 
L 299.014933 165.041964 
L 314.453668 165.299305 
L 329.892404 165.256325 
L 345.331139 165.308065 
L 360.769874 165.219134 
L 376.208609 165.338523 
L 391.647344 165.238213 
L 407.08608 162.024827 
" style="fill:none;stroke:#1b9e77;stroke-linecap:square;stroke-opacity:0.5;stroke-width:1.5;"/>
   </g>
   <g id="line2d_37">
    <path clip-path="url(#p42bf270bec)" d="M 51.99517 165.940726 
L 67.433906 165.912428 
L 82.872641 165.91218 
L 98.311376 165.943474 
L 113.750111 165.89129 
L 129.188846 164.895433 
L 144.627582 159.030925 
L 160.066317 152.383018 
L 175.505052 149.574395 
L 190.943787 154.345692 
L 206.382522 162.361266 
L 221.821257 163.13542 
L 237.259993 136.663266 
L 252.698728 125.597927 
L 268.137463 151.8732 
L 283.576198 144.703252 
L 299.014933 136.970254 
L 314.453668 147.922389 
L 329.892404 159.848622 
L 345.331139 161.532971 
L 360.769874 163.149363 
L 376.208609 163.944145 
L 391.647344 165.659453 
L 407.08608 165.630624 
" style="fill:none;stroke:#1b9e77;stroke-linecap:square;stroke-opacity:0.5;stroke-width:1.5;"/>
   </g>
   <g id="line2d_38">
    <path clip-path="url(#p42bf270bec)" d="M 51.99517 163.100803 
L 67.433906 158.236431 
L 82.872641 161.190995 
L 98.311376 150.547616 
L 113.750111 154.823648 
L 129.188846 156.565299 
L 144.627582 155.846137 
L 160.066317 158.183383 
L 175.505052 160.989897 
L 190.943787 160.539987 
L 206.382522 162.254383 
L 221.821257 163.755974 
L 237.259993 161.904268 
L 252.698728 156.641916 
L 268.137463 154.991006 
L 283.576198 160.114669 
L 299.014933 155.341291 
L 314.453668 140.793991 
L 329.892404 150.397385 
L 345.331139 128.279124 
L 360.769874 151.596023 
L 376.208609 164.363999 
L 391.647344 165.494064 
L 407.08608 162.869426 
" style="fill:none;stroke:#1b9e77;stroke-linecap:square;stroke-opacity:0.5;stroke-width:1.5;"/>
   </g>
   <g id="line2d_39">
    <path clip-path="url(#p42bf270bec)" d="M 51.99517 165.875059 
L 67.433906 164.556646 
L 82.872641 153.422724 
L 98.311376 151.085624 
L 113.750111 161.161377 
L 129.188846 161.606699 
L 144.627582 162.650026 
L 160.066317 165.265733 
L 175.505052 165.86579 
L 190.943787 165.904111 
L 206.382522 165.87939 
L 221.821257 165.456044 
L 237.259993 153.841488 
L 252.698728 160.909128 
L 268.137463 165.541912 
L 283.576198 160.962677 
L 299.014933 114.524382 
L 314.453668 144.175382 
L 329.892404 108.519569 
L 345.331139 154.93267 
L 360.769874 157.689193 
L 376.208609 160.052658 
L 391.647344 163.226553 
L 407.08608 165.716877 
" style="fill:none;stroke:#1b9e77;stroke-linecap:square;stroke-opacity:0.5;stroke-width:1.5;"/>
   </g>
   <g id="line2d_40">
    <path clip-path="url(#p42bf270bec)" d="M 51.99517 165.880215 
L 67.433906 165.818981 
L 82.872641 165.836964 
L 98.311376 165.915673 
L 113.750111 165.929581 
L 129.188846 165.928904 
L 144.627582 165.678556 
L 160.066317 164.601993 
L 175.505052 154.15632 
L 190.943787 106.655009 
L 206.382522 143.518029 
L 221.821257 156.997778 
L 237.259993 162.279969 
L 252.698728 136.752746 
L 268.137463 109.316493 
L 283.576198 162.143858 
L 299.014933 160.864266 
L 314.453668 154.622642 
L 329.892404 163.980904 
L 345.331139 164.902802 
L 360.769874 165.237636 
L 376.208609 165.320941 
L 391.647344 162.996925 
L 407.08608 163.484528 
" style="fill:none;stroke:#1b9e77;stroke-linecap:square;stroke-opacity:0.5;stroke-width:1.5;"/>
   </g>
   <g id="line2d_41">
    <path clip-path="url(#p42bf270bec)" d="M 51.99517 164.671621 
L 67.433906 164.920597 
L 82.872641 153.009385 
L 98.311376 146.325438 
L 113.750111 14.76 
L 129.188846 159.117341 
L 144.627582 165.227091 
L 160.066317 165.400086 
L 175.505052 164.507627 
L 190.943787 164.40773 
L 206.382522 165.356099 
L 221.821257 154.576025 
L 237.259993 163.14914 
L 252.698728 157.546709 
L 268.137463 164.846924 
L 283.576198 165.170906 
L 299.014933 165.15003 
L 314.453668 165.528779 
L 329.892404 165.754849 
L 345.331139 165.882409 
L 360.769874 165.921541 
L 376.208609 165.947591 
L 391.647344 165.949991 
L 407.08608 165.693796 
" style="fill:none;stroke:#1b9e77;stroke-linecap:square;stroke-opacity:0.5;stroke-width:1.5;"/>
   </g>
   <g id="line2d_42">
    <path clip-path="url(#p42bf270bec)" d="M 51.99517 165.798406 
L 67.433906 165.778765 
L 82.872641 165.574213 
L 98.311376 165.233187 
L 113.750111 165.305252 
L 129.188846 160.141622 
L 144.627582 154.466309 
L 160.066317 156.932321 
L 175.505052 157.469121 
L 190.943787 154.291873 
L 206.382522 140.92144 
L 221.821257 141.974402 
L 237.259993 140.304093 
L 252.698728 147.294515 
L 268.137463 141.8064 
L 283.576198 146.55163 
L 299.014933 140.95792 
L 314.453668 155.447754 
L 329.892404 164.854386 
L 345.331139 165.24787 
L 360.769874 165.557604 
L 376.208609 165.638344 
L 391.647344 165.699697 
L 407.08608 165.574593 
" style="fill:none;stroke:#1b9e77;stroke-linecap:square;stroke-opacity:0.5;stroke-width:1.5;"/>
   </g>
   <g id="line2d_43">
    <path clip-path="url(#p42bf270bec)" d="M 51.99517 164.879347 
L 67.433906 165.504766 
L 82.872641 165.597268 
L 98.311376 165.58853 
L 113.750111 165.36822 
L 129.188846 165.349024 
L 144.627582 165.305085 
L 160.066317 165.251701 
L 175.505052 163.144097 
L 190.943787 158.412291 
L 206.382522 152.031949 
L 221.821257 143.476184 
L 237.259993 148.047628 
L 252.698728 145.198562 
L 268.137463 142.592116 
L 283.576198 145.666183 
L 299.014933 146.053614 
L 314.453668 137.987417 
L 329.892404 133.550893 
L 345.331139 161.80387 
L 360.769874 164.53541 
L 376.208609 164.262949 
L 391.647344 164.908832 
L 407.08608 164.30578 
" style="fill:none;stroke:#1b9e77;stroke-linecap:square;stroke-opacity:0.5;stroke-width:1.5;"/>
   </g>
   <g id="line2d_44">
    <path clip-path="url(#p42bf270bec)" d="M 51.99517 162.555939 
L 67.433906 159.377427 
L 82.872641 145.935319 
L 98.311376 164.639779 
L 113.750111 165.65077 
L 129.188846 165.603939 
L 144.627582 165.594455 
L 160.066317 165.63759 
L 175.505052 165.264759 
L 190.943787 165.66698 
L 206.382522 164.181298 
L 221.821257 163.624642 
L 237.259993 139.574979 
L 252.698728 117.480247 
L 268.137463 153.437233 
L 283.576198 146.988803 
L 299.014933 155.687321 
L 314.453668 156.900054 
L 329.892404 154.108307 
L 345.331139 152.486006 
L 360.769874 143.767301 
L 376.208609 157.591677 
L 391.647344 162.221957 
L 407.08608 164.844936 
" style="fill:none;stroke:#1b9e77;stroke-linecap:square;stroke-opacity:0.5;stroke-width:1.5;"/>
   </g>
   <g id="line2d_45">
    <path clip-path="url(#p42bf270bec)" d="M 51.99517 165.093313 
L 67.433906 165.153573 
L 82.872641 164.88983 
L 98.311376 164.143069 
L 113.750111 154.838155 
L 129.188846 164.608324 
L 144.627582 165.577691 
L 160.066317 165.615627 
L 175.505052 165.570809 
L 190.943787 165.75869 
L 206.382522 165.834673 
L 221.821257 165.877708 
L 237.259993 164.608031 
L 252.698728 155.34551 
L 268.137463 149.041086 
L 283.576198 145.14145 
L 299.014933 155.228447 
L 314.453668 158.647543 
L 329.892404 163.444225 
L 345.331139 140.902847 
L 360.769874 89.285455 
L 376.208609 141.114823 
L 391.647344 161.884674 
L 407.08608 161.216162 
" style="fill:none;stroke:#1b9e77;stroke-linecap:square;stroke-opacity:0.5;stroke-width:1.5;"/>
   </g>
   <g id="line2d_46">
    <path clip-path="url(#p42bf270bec)" d="M 51.99517 165.935232 
L 67.433906 165.914663 
L 82.872641 165.908523 
L 98.311376 165.686872 
L 113.750111 163.558984 
L 129.188846 161.235591 
L 144.627582 151.250438 
L 160.066317 146.640014 
L 175.505052 145.460684 
L 190.943787 152.407921 
L 206.382522 161.138439 
L 221.821257 156.676607 
L 237.259993 100.186685 
L 252.698728 158.625174 
L 268.137463 164.93308 
L 283.576198 165.175306 
L 299.014933 151.110771 
L 314.453668 141.388521 
L 329.892404 150.912581 
L 345.331139 163.893613 
L 360.769874 164.839476 
L 376.208609 164.951688 
L 391.647344 165.143228 
L 407.08608 165.847622 
" style="fill:none;stroke:#1b9e77;stroke-linecap:square;stroke-opacity:0.5;stroke-width:1.5;"/>
   </g>
   <g id="line2d_47">
    <path clip-path="url(#p42bf270bec)" d="M 51.99517 165.899239 
L 67.433906 165.818341 
L 82.872641 165.875793 
L 98.311376 165.930766 
L 113.750111 165.942725 
L 129.188846 165.949619 
L 144.627582 165.949308 
L 160.066317 165.950432 
L 175.505052 165.947812 
L 190.943787 165.946865 
L 206.382522 165.922318 
L 221.821257 165.755573 
L 237.259993 164.776888 
L 252.698728 162.924736 
L 268.137463 147.77969 
L 283.576198 152.210163 
L 299.014933 159.504212 
L 314.453668 154.74218 
L 329.892404 131.592893 
L 345.331139 130.066837 
L 360.769874 114.523287 
L 376.208609 132.191603 
L 391.647344 153.876863 
L 407.08608 163.743575 
" style="fill:none;stroke:#1b9e77;stroke-linecap:square;stroke-opacity:0.5;stroke-width:1.5;"/>
   </g>
   <g id="line2d_48">
    <path clip-path="url(#p42bf270bec)" d="M 51.99517 165.865956 
L 67.433906 165.666982 
L 82.872641 165.675498 
L 98.311376 165.827303 
L 113.750111 165.826248 
L 129.188846 165.855654 
L 144.627582 165.78848 
L 160.066317 165.790318 
L 175.505052 165.719134 
L 190.943787 165.48299 
L 206.382522 159.445553 
L 221.821257 147.127064 
L 237.259993 150.336436 
L 252.698728 152.67763 
L 268.137463 139.67123 
L 283.576198 149.607602 
L 299.014933 159.997962 
L 314.453668 160.350136 
L 329.892404 149.319785 
L 345.331139 157.65068 
L 360.769874 128.168815 
L 376.208609 140.600127 
L 391.647344 161.254032 
L 407.08608 145.116098 
" style="fill:none;stroke:#1b9e77;stroke-linecap:square;stroke-opacity:0.5;stroke-width:1.5;"/>
   </g>
   <g id="line2d_49">
    <path clip-path="url(#p42bf270bec)" d="M 51.99517 165.924005 
L 67.433906 165.867739 
L 82.872641 165.895637 
L 98.311376 165.931503 
L 113.750111 165.936955 
L 129.188846 165.945832 
L 144.627582 165.941977 
L 160.066317 165.930699 
L 175.505052 165.901592 
L 190.943787 165.050222 
L 206.382522 161.539972 
L 221.821257 158.201704 
L 237.259993 155.17029 
L 252.698728 160.189045 
L 268.137463 151.883631 
L 283.576198 155.459823 
L 299.014933 164.353176 
L 314.453668 164.035516 
L 329.892404 153.490276 
L 345.331139 152.095119 
L 360.769874 45.438752 
L 376.208609 151.378118 
L 391.647344 162.504381 
L 407.08608 164.755754 
" style="fill:none;stroke:#1b9e77;stroke-linecap:square;stroke-opacity:0.5;stroke-width:1.5;"/>
   </g>
   <g id="line2d_50">
    <path clip-path="url(#p42bf270bec)" d="M 51.99517 165.787981 
L 67.433906 165.520399 
L 82.872641 165.126763 
L 98.311376 164.016238 
L 113.750111 162.128307 
L 129.188846 144.123185 
L 144.627582 119.772954 
L 160.066317 128.281176 
L 175.505052 156.3298 
L 190.943787 165.41259 
L 206.382522 165.688198 
L 221.821257 165.785041 
L 237.259993 165.87154 
L 252.698728 165.896983 
L 268.137463 165.905797 
L 283.576198 165.912742 
L 299.014933 165.892549 
L 314.453668 165.885267 
L 329.892404 165.070796 
L 345.331139 150.186176 
L 360.769874 144.624227 
L 376.208609 136.832029 
L 391.647344 138.742867 
L 407.08608 160.028109 
" style="fill:none;stroke:#1b9e77;stroke-linecap:square;stroke-opacity:0.5;stroke-width:1.5;"/>
   </g>
   <g id="line2d_51">
    <path clip-path="url(#p42bf270bec)" d="M 51.99517 162.520585 
L 67.433906 163.41854 
L 82.872641 165.152857 
L 98.311376 165.488892 
L 113.750111 165.54804 
L 129.188846 165.793514 
L 144.627582 165.892588 
L 160.066317 165.915712 
L 175.505052 165.907895 
L 190.943787 165.926771 
L 206.382522 165.932561 
L 221.821257 165.876261 
L 237.259993 165.70478 
L 252.698728 165.843622 
L 268.137463 165.122257 
L 283.576198 152.822862 
L 299.014933 155.602373 
L 314.453668 150.88605 
L 329.892404 140.954545 
L 345.331139 133.901917 
L 360.769874 134.140166 
L 376.208609 93.920251 
L 391.647344 152.672917 
L 407.08608 163.875761 
" style="fill:none;stroke:#1b9e77;stroke-linecap:square;stroke-opacity:0.5;stroke-width:1.5;"/>
   </g>
   <g id="line2d_52">
    <path clip-path="url(#p42bf270bec)" d="M 51.99517 164.850981 
L 67.433906 162.119787 
L 82.872641 156.823694 
L 98.311376 154.5356 
L 113.750111 150.011498 
L 129.188846 98.767509 
L 144.627582 144.124258 
L 160.066317 155.913587 
L 175.505052 161.692854 
L 190.943787 164.670751 
L 206.382522 164.539197 
L 221.821257 162.287275 
L 237.259993 164.725043 
L 252.698728 165.616853 
L 268.137463 165.610083 
L 283.576198 161.127143 
L 299.014933 156.95006 
L 314.453668 160.859578 
L 329.892404 156.881199 
L 345.331139 153.0093 
L 360.769874 155.529726 
L 376.208609 155.887339 
L 391.647344 158.03778 
L 407.08608 164.250616 
" style="fill:none;stroke:#1b9e77;stroke-linecap:square;stroke-opacity:0.5;stroke-width:1.5;"/>
   </g>
   <g id="line2d_53">
    <path clip-path="url(#p42bf270bec)" d="M 51.99517 165.897913 
L 67.433906 165.781793 
L 82.872641 165.748742 
L 98.311376 165.677552 
L 113.750111 165.617339 
L 129.188846 165.617413 
L 144.627582 165.687791 
L 160.066317 165.810848 
L 175.505052 165.801838 
L 190.943787 165.588154 
L 206.382522 164.332183 
L 221.821257 161.814913 
L 237.259993 146.205612 
L 252.698728 135.573807 
L 268.137463 101.100871 
L 283.576198 127.931167 
L 299.014933 161.863467 
L 314.453668 164.437487 
L 329.892404 165.669785 
L 345.331139 164.729977 
L 360.769874 145.149785 
L 376.208609 162.541141 
L 391.647344 157.77591 
L 407.08608 142.466231 
" style="fill:none;stroke:#1b9e77;stroke-linecap:square;stroke-opacity:0.5;stroke-width:1.5;"/>
   </g>
   <g id="line2d_54">
    <path clip-path="url(#p42bf270bec)" d="M 51.99517 163.558856 
L 67.433906 160.295407 
L 82.872641 161.603079 
L 98.311376 163.495998 
L 113.750111 163.432572 
L 129.188846 164.26502 
L 144.627582 164.454613 
L 160.066317 163.683314 
L 175.505052 163.1593 
L 190.943787 164.828518 
L 206.382522 164.905359 
L 221.821257 164.309811 
L 237.259993 162.319449 
L 252.698728 159.943638 
L 268.137463 143.200696 
L 283.576198 129.157487 
L 299.014933 148.556066 
L 314.453668 149.293759 
L 329.892404 137.307123 
L 345.331139 117.244283 
L 360.769874 160.850922 
L 376.208609 163.014912 
L 391.647344 162.595135 
L 407.08608 163.346397 
" style="fill:none;stroke:#1b9e77;stroke-linecap:square;stroke-opacity:0.5;stroke-width:1.5;"/>
   </g>
   <g id="line2d_55">
    <path clip-path="url(#p42bf270bec)" d="M 51.99517 149.805129 
L 67.433906 135.860997 
L 82.872641 129.178064 
L 98.311376 155.345595 
L 113.750111 138.802001 
L 129.188846 155.449533 
L 144.627582 164.848595 
L 160.066317 165.081043 
L 175.505052 164.969369 
L 190.943787 164.315217 
L 206.382522 165.861235 
L 221.821257 165.868822 
L 237.259993 165.857412 
L 252.698728 165.457405 
L 268.137463 159.53036 
L 283.576198 158.192154 
L 299.014933 161.115055 
L 314.453668 163.370607 
L 329.892404 143.900787 
L 345.331139 133.143121 
L 360.769874 158.270306 
L 376.208609 163.583383 
L 391.647344 165.266306 
L 407.08608 165.749216 
" style="fill:none;stroke:#1b9e77;stroke-linecap:square;stroke-opacity:0.5;stroke-width:1.5;"/>
   </g>
   <g id="line2d_56">
    <path clip-path="url(#p42bf270bec)" d="M 51.99517 160.227354 
L 67.433906 162.794598 
L 82.872641 164.569399 
L 98.311376 165.459499 
L 113.750111 165.318187 
L 129.188846 165.26851 
L 144.627582 164.880336 
L 160.066317 164.83234 
L 175.505052 164.037023 
L 190.943787 155.060639 
L 206.382522 137.724149 
L 221.821257 156.795787 
L 237.259993 161.760216 
L 252.698728 159.196389 
L 268.137463 158.156322 
L 283.576198 115.480416 
L 299.014933 132.231531 
L 314.453668 161.692187 
L 329.892404 159.154059 
L 345.331139 144.631943 
L 360.769874 158.344268 
L 376.208609 163.115496 
L 391.647344 162.268725 
L 407.08608 155.82234 
" style="fill:none;stroke:#1b9e77;stroke-linecap:square;stroke-opacity:0.5;stroke-width:1.5;"/>
   </g>
   <g id="line2d_57">
    <path clip-path="url(#p42bf270bec)" d="M 51.99517 164.652142 
L 67.433906 163.345608 
L 82.872641 163.927701 
L 98.311376 165.381498 
L 113.750111 165.704339 
L 129.188846 165.711616 
L 144.627582 165.626887 
L 160.066317 165.59231 
L 175.505052 165.602425 
L 190.943787 165.763892 
L 206.382522 165.852921 
L 221.821257 165.854507 
L 237.259993 165.833436 
L 252.698728 165.884425 
L 268.137463 165.854368 
L 283.576198 161.78679 
L 299.014933 125.969361 
L 314.453668 162.349213 
L 329.892404 164.694133 
L 345.331139 157.585362 
L 360.769874 130.730677 
L 376.208609 110.538732 
L 391.647344 114.086588 
L 407.08608 150.492776 
" style="fill:none;stroke:#1b9e77;stroke-linecap:square;stroke-opacity:0.5;stroke-width:1.5;"/>
   </g>
   <g id="line2d_58">
    <path clip-path="url(#p42bf270bec)" d="M 51.99517 155.809336 
L 67.433906 165.128912 
L 82.872641 164.55786 
L 98.311376 164.161706 
L 113.750111 159.519163 
L 129.188846 146.694051 
L 144.627582 149.872421 
L 160.066317 162.043593 
L 175.505052 149.35967 
L 190.943787 139.082775 
L 206.382522 155.36833 
L 221.821257 146.912767 
L 237.259993 143.901537 
L 252.698728 144.978221 
L 268.137463 149.380906 
L 283.576198 145.518788 
L 299.014933 156.145906 
L 314.453668 165.272657 
L 329.892404 165.741152 
L 345.331139 165.859882 
L 360.769874 165.888671 
L 376.208609 165.911389 
L 391.647344 165.913766 
L 407.08608 165.79826 
" style="fill:none;stroke:#1b9e77;stroke-linecap:square;stroke-opacity:0.5;stroke-width:1.5;"/>
   </g>
   <g id="line2d_59">
    <path clip-path="url(#p42bf270bec)" d="M 51.99517 165.908347 
L 67.433906 165.865356 
L 82.872641 165.891994 
L 98.311376 165.935857 
L 113.750111 165.927629 
L 129.188846 165.896975 
L 144.627582 164.77383 
L 160.066317 147.336665 
L 175.505052 106.497051 
L 190.943787 115.453969 
L 206.382522 149.43645 
L 221.821257 155.11877 
L 237.259993 157.659858 
L 252.698728 157.953282 
L 268.137463 159.748825 
L 283.576198 165.090881 
L 299.014933 165.851516 
L 314.453668 164.184736 
L 329.892404 154.622581 
L 345.331139 162.893119 
L 360.769874 155.405792 
L 376.208609 153.970183 
L 391.647344 162.561432 
L 407.08608 164.836619 
" style="fill:none;stroke:#1b9e77;stroke-linecap:square;stroke-opacity:0.5;stroke-width:1.5;"/>
   </g>
   <g id="line2d_60">
    <path clip-path="url(#p42bf270bec)" d="M 51.99517 165.924621 
L 67.433906 165.835991 
L 82.872641 165.874034 
L 98.311376 165.898605 
L 113.750111 165.896976 
L 129.188846 165.897462 
L 144.627582 165.910083 
L 160.066317 165.927814 
L 175.505052 165.916341 
L 190.943787 165.905688 
L 206.382522 165.123822 
L 221.821257 161.246606 
L 237.259993 156.62653 
L 252.698728 156.953169 
L 268.137463 139.409453 
L 283.576198 156.570917 
L 299.014933 164.890857 
L 314.453668 165.36542 
L 329.892404 165.773741 
L 345.331139 163.587328 
L 360.769874 47.070622 
L 376.208609 141.361575 
L 391.647344 150.588148 
L 407.08608 165.265909 
" style="fill:none;stroke:#1b9e77;stroke-linecap:square;stroke-opacity:0.5;stroke-width:1.5;"/>
   </g>
   <g id="line2d_61">
    <path clip-path="url(#p42bf270bec)" d="M 51.99517 165.814272 
L 67.433906 165.670061 
L 82.872641 165.791549 
L 98.311376 165.890543 
L 113.750111 165.91313 
L 129.188846 165.933025 
L 144.627582 165.938952 
L 160.066317 165.94427 
L 175.505052 165.920184 
L 190.943787 165.855408 
L 206.382522 164.626497 
L 221.821257 162.774067 
L 237.259993 159.177065 
L 252.698728 148.322239 
L 268.137463 146.022702 
L 283.576198 133.747295 
L 299.014933 122.405423 
L 314.453668 149.18984 
L 329.892404 144.576442 
L 345.331139 127.372913 
L 360.769874 158.933462 
L 376.208609 159.953591 
L 391.647344 161.383207 
L 407.08608 161.665579 
" style="fill:none;stroke:#1b9e77;stroke-linecap:square;stroke-opacity:0.5;stroke-width:1.5;"/>
   </g>
   <g id="line2d_62">
    <path clip-path="url(#p42bf270bec)" d="M 51.99517 156.959736 
L 67.433906 162.657595 
L 82.872641 165.538803 
L 98.311376 165.315027 
L 113.750111 162.336866 
L 129.188846 139.471721 
L 144.627582 125.875678 
L 160.066317 157.668946 
L 175.505052 163.969629 
L 190.943787 160.315909 
L 206.382522 147.566702 
L 221.821257 151.021886 
L 237.259993 165.621436 
L 252.698728 165.785047 
L 268.137463 165.806585 
L 283.576198 165.889052 
L 299.014933 165.703048 
L 314.453668 162.686138 
L 329.892404 163.851747 
L 345.331139 165.311089 
L 360.769874 159.45103 
L 376.208609 124.263773 
L 391.647344 138.266749 
L 407.08608 157.48752 
" style="fill:none;stroke:#1b9e77;stroke-linecap:square;stroke-opacity:0.5;stroke-width:1.5;"/>
   </g>
   <g id="line2d_63">
    <path clip-path="url(#p42bf270bec)" d="M 51.99517 157.313258 
L 67.433906 156.865742 
L 82.872641 154.675026 
L 98.311376 122.704405 
L 113.750111 125.299558 
L 129.188846 141.246582 
L 144.627582 138.637918 
L 160.066317 146.581225 
L 175.505052 161.233194 
L 190.943787 163.106314 
L 206.382522 164.627912 
L 221.821257 165.130672 
L 237.259993 165.191676 
L 252.698728 165.516766 
L 268.137463 161.70359 
L 283.576198 163.792725 
L 299.014933 161.388084 
L 314.453668 152.240781 
L 329.892404 163.846756 
L 345.331139 165.51005 
L 360.769874 165.590287 
L 376.208609 165.808686 
L 391.647344 165.88381 
L 407.08608 164.926692 
" style="fill:none;stroke:#1b9e77;stroke-linecap:square;stroke-opacity:0.5;stroke-width:1.5;"/>
   </g>
   <g id="line2d_64">
    <path clip-path="url(#p42bf270bec)" d="M 51.99517 165.792926 
L 67.433906 165.921859 
L 82.872641 165.797304 
L 98.311376 164.898548 
L 113.750111 98.900358 
L 129.188846 89.067321 
L 144.627582 153.642921 
L 160.066317 160.870727 
L 175.505052 164.806719 
L 190.943787 164.299011 
L 206.382522 165.281945 
L 221.821257 163.2017 
L 237.259993 161.970866 
L 252.698728 163.701528 
L 268.137463 164.188303 
L 283.576198 164.111315 
L 299.014933 163.375061 
L 314.453668 154.090134 
L 329.892404 151.210279 
L 345.331139 153.745977 
L 360.769874 164.450406 
L 376.208609 164.954043 
L 391.647344 165.519932 
L 407.08608 165.022534 
" style="fill:none;stroke:#1b9e77;stroke-linecap:square;stroke-opacity:0.5;stroke-width:1.5;"/>
   </g>
   <g id="line2d_65">
    <path clip-path="url(#p42bf270bec)" d="M 51.99517 161.13413 
L 67.433906 156.733047 
L 82.872641 137.249697 
L 98.311376 135.663772 
L 113.750111 163.135408 
L 129.188846 165.786159 
L 144.627582 165.84175 
L 160.066317 165.869549 
L 175.505052 165.847207 
L 190.943787 165.892449 
L 206.382522 165.924642 
L 221.821257 165.93381 
L 237.259993 165.926878 
L 252.698728 165.936528 
L 268.137463 165.607757 
L 283.576198 157.417518 
L 299.014933 156.72954 
L 314.453668 154.7588 
L 329.892404 137.916364 
L 345.331139 131.663281 
L 360.769874 141.541332 
L 376.208609 145.96256 
L 391.647344 157.213151 
L 407.08608 163.136386 
" style="fill:none;stroke:#1b9e77;stroke-linecap:square;stroke-opacity:0.5;stroke-width:1.5;"/>
   </g>
   <g id="line2d_66">
    <path clip-path="url(#p42bf270bec)" d="M 51.99517 165.908155 
L 67.433906 165.816681 
L 82.872641 165.818564 
L 98.311376 165.878906 
L 113.750111 165.612026 
L 129.188846 164.569377 
L 144.627582 161.331763 
L 160.066317 159.863817 
L 175.505052 156.588724 
L 190.943787 149.133259 
L 206.382522 136.648427 
L 221.821257 123.973936 
L 237.259993 126.004235 
L 252.698728 159.161745 
L 268.137463 154.629855 
L 283.576198 135.991221 
L 299.014933 145.001228 
L 314.453668 165.299406 
L 329.892404 165.817419 
L 345.331139 165.883672 
L 360.769874 165.878442 
L 376.208609 165.660365 
L 391.647344 164.224385 
L 407.08608 164.126108 
" style="fill:none;stroke:#1b9e77;stroke-linecap:square;stroke-opacity:0.5;stroke-width:1.5;"/>
   </g>
   <g id="line2d_67">
    <path clip-path="url(#p42bf270bec)" d="M 51.99517 162.149548 
L 67.433906 160.563912 
L 82.872641 163.293684 
L 98.311376 164.693489 
L 113.750111 164.939795 
L 129.188846 165.10573 
L 144.627582 165.289904 
L 160.066317 165.64622 
L 175.505052 165.747685 
L 190.943787 165.795378 
L 206.382522 165.741533 
L 221.821257 165.722338 
L 237.259993 165.18235 
L 252.698728 161.298666 
L 268.137463 136.268082 
L 283.576198 73.160065 
L 299.014933 130.077949 
L 314.453668 153.254427 
L 329.892404 146.036859 
L 345.331139 160.785404 
L 360.769874 164.759452 
L 376.208609 164.268366 
L 391.647344 164.030939 
L 407.08608 165.009941 
" style="fill:none;stroke:#1b9e77;stroke-linecap:square;stroke-opacity:0.5;stroke-width:1.5;"/>
   </g>
   <g id="line2d_68">
    <path clip-path="url(#p42bf270bec)" d="M 51.99517 165.9364 
L 67.433906 165.899675 
L 82.872641 165.904045 
L 98.311376 165.934257 
L 113.750111 165.927682 
L 129.188846 165.756541 
L 144.627582 164.277107 
L 160.066317 163.586079 
L 175.505052 159.6122 
L 190.943787 127.078297 
L 206.382522 152.532752 
L 221.821257 157.353196 
L 237.259993 158.258107 
L 252.698728 152.532356 
L 268.137463 94.941735 
L 283.576198 164.686479 
L 299.014933 165.817909 
L 314.453668 165.812366 
L 329.892404 165.496407 
L 345.331139 164.842809 
L 360.769874 121.217953 
L 376.208609 163.230515 
L 391.647344 157.922648 
L 407.08608 164.264195 
" style="fill:none;stroke:#1b9e77;stroke-linecap:square;stroke-opacity:0.5;stroke-width:1.5;"/>
   </g>
   <g id="line2d_69">
    <path clip-path="url(#p42bf270bec)" d="M 51.99517 164.022975 
L 67.433906 163.812893 
L 82.872641 162.318285 
L 98.311376 154.3376 
L 113.750111 162.046135 
L 129.188846 161.218648 
L 144.627582 159.310891 
L 160.066317 158.023082 
L 175.505052 153.419372 
L 190.943787 164.57273 
L 206.382522 165.684893 
L 221.821257 159.945831 
L 237.259993 58.713945 
L 252.698728 122.754537 
L 268.137463 161.141382 
L 283.576198 161.637955 
L 299.014933 164.816267 
L 314.453668 165.63555 
L 329.892404 165.762349 
L 345.331139 165.884596 
L 360.769874 165.917017 
L 376.208609 165.941863 
L 391.647344 165.948395 
L 407.08608 165.954529 
" style="fill:none;stroke:#1b9e77;stroke-linecap:square;stroke-opacity:0.5;stroke-width:1.5;"/>
   </g>
   <g id="line2d_70">
    <path clip-path="url(#p42bf270bec)" d="M 51.99517 160.594524 
L 67.433906 160.17115 
L 82.872641 163.576378 
L 98.311376 161.698501 
L 113.750111 163.423485 
L 129.188846 151.915292 
L 144.627582 146.506549 
L 160.066317 150.722393 
L 175.505052 163.20116 
L 190.943787 163.46517 
L 206.382522 163.457479 
L 221.821257 156.374676 
L 237.259993 148.066357 
L 252.698728 143.447661 
L 268.137463 125.328533 
L 283.576198 135.461076 
L 299.014933 159.422311 
L 314.453668 160.879012 
L 329.892404 163.56355 
L 345.331139 161.879355 
L 360.769874 159.227586 
L 376.208609 165.460378 
L 391.647344 165.51526 
L 407.08608 165.463878 
" style="fill:none;stroke:#1b9e77;stroke-linecap:square;stroke-opacity:0.5;stroke-width:1.5;"/>
   </g>
   <g id="line2d_71">
    <path clip-path="url(#p42bf270bec)" d="M 51.99517 165.490097 
L 67.433906 165.659232 
L 82.872641 163.772014 
L 98.311376 162.164396 
L 113.750111 87.373656 
L 129.188846 45.243093 
L 144.627582 159.108727 
L 160.066317 164.952103 
L 175.505052 165.079563 
L 190.943787 165.195434 
L 206.382522 165.726659 
L 221.821257 164.734517 
L 237.259993 162.609865 
L 252.698728 164.233637 
L 268.137463 165.494981 
L 283.576198 165.832371 
L 299.014933 165.883389 
L 314.453668 165.811592 
L 329.892404 165.899475 
L 345.331139 165.910266 
L 360.769874 165.881386 
L 376.208609 165.912443 
L 391.647344 165.872675 
L 407.08608 164.98014 
" style="fill:none;stroke:#1b9e77;stroke-linecap:square;stroke-opacity:0.5;stroke-width:1.5;"/>
   </g>
   <g id="line2d_72">
    <path clip-path="url(#p42bf270bec)" d="M 51.99517 164.118661 
L 67.433906 163.296521 
L 82.872641 160.180531 
L 98.311376 162.322553 
L 113.750111 134.470968 
L 129.188846 121.179006 
L 144.627582 155.669134 
L 160.066317 154.890784 
L 175.505052 149.984355 
L 190.943787 150.296473 
L 206.382522 159.312752 
L 221.821257 165.4566 
L 237.259993 165.509073 
L 252.698728 155.966648 
L 268.137463 159.972945 
L 283.576198 162.373651 
L 299.014933 160.769337 
L 314.453668 160.256569 
L 329.892404 155.109155 
L 345.331139 155.665795 
L 360.769874 158.634791 
L 376.208609 158.546618 
L 391.647344 160.078422 
L 407.08608 164.760375 
" style="fill:none;stroke:#1b9e77;stroke-linecap:square;stroke-opacity:0.5;stroke-width:1.5;"/>
   </g>
   <g id="line2d_73">
    <path clip-path="url(#p42bf270bec)" d="M 51.99517 163.111604 
L 67.433906 160.911555 
L 82.872641 151.622728 
L 98.311376 154.46465 
L 113.750111 154.930512 
L 129.188846 155.577964 
L 144.627582 153.106502 
L 160.066317 162.243777 
L 175.505052 164.230234 
L 190.943787 155.160085 
L 206.382522 155.424225 
L 221.821257 157.414764 
L 237.259993 145.028521 
L 252.698728 136.296432 
L 268.137463 159.184735 
L 283.576198 162.591882 
L 299.014933 162.748357 
L 314.453668 149.66698 
L 329.892404 147.026297 
L 345.331139 154.016371 
L 360.769874 160.551198 
L 376.208609 162.457834 
L 391.647344 165.211176 
L 407.08608 165.843335 
" style="fill:none;stroke:#1b9e77;stroke-linecap:square;stroke-opacity:0.5;stroke-width:1.5;"/>
   </g>
   <g id="line2d_74">
    <path clip-path="url(#p42bf270bec)" d="M 51.99517 161.674571 
L 67.433906 156.548018 
L 82.872641 155.203684 
L 98.311376 156.027877 
L 113.750111 160.049131 
L 129.188846 137.936985 
L 144.627582 149.973458 
L 160.066317 146.918068 
L 175.505052 144.640339 
L 190.943787 149.033703 
L 206.382522 142.798666 
L 221.821257 150.77481 
L 237.259993 157.838816 
L 252.698728 160.449564 
L 268.137463 156.321843 
L 283.576198 160.834522 
L 299.014933 164.775716 
L 314.453668 165.323625 
L 329.892404 165.306086 
L 345.331139 165.693131 
L 360.769874 165.042053 
L 376.208609 164.459244 
L 391.647344 155.559682 
L 407.08608 165.638127 
" style="fill:none;stroke:#1b9e77;stroke-linecap:square;stroke-opacity:0.5;stroke-width:1.5;"/>
   </g>
   <g id="line2d_75">
    <path clip-path="url(#p42bf270bec)" d="M 51.99517 165.726312 
L 67.433906 165.481846 
L 82.872641 165.709611 
L 98.311376 165.898234 
L 113.750111 165.934737 
L 129.188846 165.941289 
L 144.627582 165.925037 
L 160.066317 165.937551 
L 175.505052 165.943277 
L 190.943787 165.811928 
L 206.382522 165.626355 
L 221.821257 165.842475 
L 237.259993 165.421932 
L 252.698728 147.667852 
L 268.137463 112.014413 
L 283.576198 106.054166 
L 299.014933 89.755681 
L 314.453668 159.422985 
L 329.892404 164.075382 
L 345.331139 161.934834 
L 360.769874 165.273038 
L 376.208609 165.771707 
L 391.647344 165.831408 
L 407.08608 165.819663 
" style="fill:none;stroke:#1b9e77;stroke-linecap:square;stroke-opacity:0.5;stroke-width:1.5;"/>
   </g>
   <g id="line2d_76">
    <path clip-path="url(#p42bf270bec)" d="M 51.99517 61.287629 
L 67.433906 111.441968 
L 82.872641 145.405576 
L 98.311376 154.044043 
L 113.750111 155.929886 
L 129.188846 161.89196 
L 144.627582 164.593917 
L 160.066317 165.286733 
L 175.505052 165.306256 
L 190.943787 165.557974 
L 206.382522 165.716184 
L 221.821257 165.815324 
L 237.259993 165.845813 
L 252.698728 165.867224 
L 268.137463 165.85663 
L 283.576198 165.848127 
L 299.014933 165.832412 
L 314.453668 165.840491 
L 329.892404 165.843992 
L 345.331139 165.826826 
L 360.769874 165.768699 
L 376.208609 165.828269 
L 391.647344 165.62662 
L 407.08608 152.559162 
" style="fill:none;stroke:#1b9e77;stroke-linecap:square;stroke-opacity:0.5;stroke-width:1.5;"/>
   </g>
   <g id="line2d_77">
    <path clip-path="url(#p42bf270bec)" d="M 51.99517 165.724754 
L 67.433906 163.871984 
L 82.872641 164.163038 
L 98.311376 165.540211 
L 113.750111 165.460132 
L 129.188846 163.311428 
L 144.627582 163.80004 
L 160.066317 165.491786 
L 175.505052 165.358714 
L 190.943787 163.328815 
L 206.382522 154.924233 
L 221.821257 150.091619 
L 237.259993 150.955876 
L 252.698728 152.297417 
L 268.137463 146.948343 
L 283.576198 150.117722 
L 299.014933 151.18396 
L 314.453668 148.519746 
L 329.892404 142.067647 
L 345.331139 144.252058 
L 360.769874 144.429339 
L 376.208609 151.566404 
L 391.647344 161.577525 
L 407.08608 163.838923 
" style="fill:none;stroke:#1b9e77;stroke-linecap:square;stroke-opacity:0.5;stroke-width:1.5;"/>
   </g>
   <g id="line2d_78">
    <path clip-path="url(#p42bf270bec)" d="M 51.99517 165.803999 
L 67.433906 165.888726 
L 82.872641 165.814847 
L 98.311376 165.777011 
L 113.750111 156.568436 
L 129.188846 153.272604 
L 144.627582 163.807767 
L 160.066317 165.546707 
L 175.505052 164.537162 
L 190.943787 162.52882 
L 206.382522 154.487933 
L 221.821257 131.077076 
L 237.259993 121.439268 
L 252.698728 133.816164 
L 268.137463 143.622135 
L 283.576198 160.806372 
L 299.014933 165.371537 
L 314.453668 163.764379 
L 329.892404 162.43789 
L 345.331139 164.231063 
L 360.769874 145.80947 
L 376.208609 159.740643 
L 391.647344 159.154549 
L 407.08608 163.517154 
" style="fill:none;stroke:#1b9e77;stroke-linecap:square;stroke-opacity:0.5;stroke-width:1.5;"/>
   </g>
   <g id="line2d_79">
    <path clip-path="url(#p42bf270bec)" d="M 51.99517 165.583699 
L 67.433906 165.423719 
L 82.872641 165.599761 
L 98.311376 165.82707 
L 113.750111 165.861179 
L 129.188846 165.90659 
L 144.627582 165.883183 
L 160.066317 165.698574 
L 175.505052 163.949011 
L 190.943787 153.573655 
L 206.382522 137.013764 
L 221.821257 132.714826 
L 237.259993 119.285994 
L 252.698728 83.973424 
L 268.137463 153.823712 
L 283.576198 163.925666 
L 299.014933 165.13984 
L 314.453668 165.270615 
L 329.892404 165.593417 
L 345.331139 165.762029 
L 360.769874 165.809892 
L 376.208609 165.859466 
L 391.647344 165.850382 
L 407.08608 165.492242 
" style="fill:none;stroke:#1b9e77;stroke-linecap:square;stroke-opacity:0.5;stroke-width:1.5;"/>
   </g>
   <g id="line2d_80">
    <path clip-path="url(#p42bf270bec)" d="M 51.99517 155.637018 
L 67.433906 165.023961 
L 82.872641 165.121175 
L 98.311376 165.513058 
L 113.750111 165.570895 
L 129.188846 165.786013 
L 144.627582 165.885343 
L 160.066317 165.902823 
L 175.505052 165.877529 
L 190.943787 165.90661 
L 206.382522 165.92317 
L 221.821257 165.900307 
L 237.259993 165.902922 
L 252.698728 165.923084 
L 268.137463 165.453569 
L 283.576198 150.6207 
L 299.014933 151.010359 
L 314.453668 146.932975 
L 329.892404 115.344151 
L 345.331139 111.743753 
L 360.769874 134.09898 
L 376.208609 153.021495 
L 391.647344 161.028134 
L 407.08608 159.693688 
" style="fill:none;stroke:#1b9e77;stroke-linecap:square;stroke-opacity:0.5;stroke-width:1.5;"/>
   </g>
   <g id="line2d_81">
    <path clip-path="url(#p42bf270bec)" d="M 51.99517 149.274839 
L 67.433906 140.847676 
L 82.872641 145.952594 
L 98.311376 158.627061 
L 113.750111 147.311546 
L 129.188846 127.247878 
L 144.627582 136.64606 
L 160.066317 154.006967 
L 175.505052 155.532041 
L 190.943787 155.935693 
L 206.382522 162.498901 
L 221.821257 165.040067 
L 237.259993 163.727457 
L 252.698728 155.815527 
L 268.137463 158.522378 
L 283.576198 162.525226 
L 299.014933 164.754239 
L 314.453668 163.894201 
L 329.892404 163.267471 
L 345.331139 164.524385 
L 360.769874 165.800912 
L 376.208609 165.881568 
L 391.647344 165.881268 
L 407.08608 165.305757 
" style="fill:none;stroke:#1b9e77;stroke-linecap:square;stroke-opacity:0.5;stroke-width:1.5;"/>
   </g>
   <g id="line2d_82">
    <path clip-path="url(#p42bf270bec)" d="M 51.99517 165.907037 
L 67.433906 165.84934 
L 82.872641 165.891009 
L 98.311376 165.92736 
L 113.750111 165.933878 
L 129.188846 165.947422 
L 144.627582 165.949189 
L 160.066317 165.929581 
L 175.505052 165.761412 
L 190.943787 165.715851 
L 206.382522 165.016745 
L 221.821257 161.606779 
L 237.259993 156.339875 
L 252.698728 152.450075 
L 268.137463 147.318968 
L 283.576198 151.380988 
L 299.014933 153.630853 
L 314.453668 133.521345 
L 329.892404 138.187245 
L 345.331139 135.383274 
L 360.769874 132.981066 
L 376.208609 152.021107 
L 391.647344 157.835879 
L 407.08608 162.335438 
" style="fill:none;stroke:#1b9e77;stroke-linecap:square;stroke-opacity:0.5;stroke-width:1.5;"/>
   </g>
   <g id="line2d_83">
    <path clip-path="url(#p42bf270bec)" d="M 51.99517 158.322317 
L 67.433906 158.535496 
L 82.872641 154.025768 
L 98.311376 143.095668 
L 113.750111 151.204608 
L 129.188846 148.126864 
L 144.627582 148.197912 
L 160.066317 156.690305 
L 175.505052 148.794978 
L 190.943787 147.901364 
L 206.382522 155.564011 
L 221.821257 153.004204 
L 237.259993 151.63753 
L 252.698728 140.588841 
L 268.137463 152.846473 
L 283.576198 164.395525 
L 299.014933 165.553369 
L 314.453668 165.55994 
L 329.892404 165.806782 
L 345.331139 165.859486 
L 360.769874 165.863987 
L 376.208609 165.926994 
L 391.647344 165.930373 
L 407.08608 165.388918 
" style="fill:none;stroke:#1b9e77;stroke-linecap:square;stroke-opacity:0.5;stroke-width:1.5;"/>
   </g>
   <g id="line2d_84">
    <path clip-path="url(#p42bf270bec)" d="M 51.99517 165.921982 
L 67.433906 165.885342 
L 82.872641 165.923317 
L 98.311376 165.947526 
L 113.750111 165.952084 
L 129.188846 165.956524 
L 144.627582 165.95536 
L 160.066317 165.955669 
L 175.505052 165.935783 
L 190.943787 165.26965 
L 206.382522 159.973682 
L 221.821257 161.258131 
L 237.259993 145.095523 
L 252.698728 96.451807 
L 268.137463 145.855817 
L 283.576198 133.474314 
L 299.014933 121.911765 
L 314.453668 162.836198 
L 329.892404 161.726119 
L 345.331139 154.282003 
L 360.769874 162.232923 
L 376.208609 163.892975 
L 391.647344 165.270925 
L 407.08608 165.856296 
" style="fill:none;stroke:#1b9e77;stroke-linecap:square;stroke-opacity:0.5;stroke-width:1.5;"/>
   </g>
   <g id="line2d_85">
    <path clip-path="url(#p42bf270bec)" d="M 51.99517 165.890045 
L 67.433906 165.832471 
L 82.872641 165.887659 
L 98.311376 165.931229 
L 113.750111 165.940044 
L 129.188846 165.951306 
L 144.627582 165.952515 
L 160.066317 165.943732 
L 175.505052 165.929854 
L 190.943787 165.934073 
L 206.382522 165.8458 
L 221.821257 164.799079 
L 237.259993 156.265883 
L 252.698728 146.997481 
L 268.137463 136.814414 
L 283.576198 144.710737 
L 299.014933 149.908107 
L 314.453668 141.885622 
L 329.892404 126.134877 
L 345.331139 118.905691 
L 360.769874 155.912848 
L 376.208609 161.893014 
L 391.647344 163.852583 
L 407.08608 165.70265 
" style="fill:none;stroke:#1b9e77;stroke-linecap:square;stroke-opacity:0.5;stroke-width:1.5;"/>
   </g>
   <g id="line2d_86">
    <path clip-path="url(#p42bf270bec)" d="M 51.99517 163.624114 
L 67.433906 160.680423 
L 82.872641 155.935942 
L 98.311376 153.874754 
L 113.750111 141.757181 
L 129.188846 146.962891 
L 144.627582 163.204289 
L 160.066317 157.795299 
L 175.505052 157.880527 
L 190.943787 164.178889 
L 206.382522 164.158488 
L 221.821257 152.000754 
L 237.259993 153.013473 
L 252.698728 153.415551 
L 268.137463 152.051696 
L 283.576198 148.456666 
L 299.014933 147.31271 
L 314.453668 151.65881 
L 329.892404 146.250362 
L 345.331139 161.918942 
L 360.769874 165.650614 
L 376.208609 165.505758 
L 391.647344 165.625571 
L 407.08608 165.908008 
" style="fill:none;stroke:#1b9e77;stroke-linecap:square;stroke-opacity:0.5;stroke-width:1.5;"/>
   </g>
   <g id="line2d_87">
    <path clip-path="url(#p42bf270bec)" d="M 51.99517 165.864553 
L 67.433906 165.81379 
L 82.872641 165.816241 
L 98.311376 165.887009 
L 113.750111 165.903611 
L 129.188846 165.925549 
L 144.627582 165.933444 
L 160.066317 165.930072 
L 175.505052 165.918725 
L 190.943787 165.920383 
L 206.382522 165.901753 
L 221.821257 165.848366 
L 237.259993 165.831188 
L 252.698728 165.80563 
L 268.137463 164.266903 
L 283.576198 125.419567 
L 299.014933 112.440977 
L 314.453668 157.065698 
L 329.892404 163.091193 
L 345.331139 144.400833 
L 360.769874 133.755492 
L 376.208609 125.790599 
L 391.647344 148.868179 
L 407.08608 161.421962 
" style="fill:none;stroke:#1b9e77;stroke-linecap:square;stroke-opacity:0.5;stroke-width:1.5;"/>
   </g>
   <g id="line2d_88">
    <path clip-path="url(#p42bf270bec)" d="M 51.99517 163.599011 
L 67.433906 161.353394 
L 82.872641 161.872962 
L 98.311376 164.044242 
L 113.750111 164.08697 
L 129.188846 164.512576 
L 144.627582 163.030604 
L 160.066317 163.256478 
L 175.505052 161.993068 
L 190.943787 157.490526 
L 206.382522 141.081617 
L 221.821257 129.094819 
L 237.259993 164.254417 
L 252.698728 165.207373 
L 268.137463 164.958607 
L 283.576198 165.269057 
L 299.014933 165.48879 
L 314.453668 165.525301 
L 329.892404 165.424137 
L 345.331139 165.554525 
L 360.769874 165.696579 
L 376.208609 165.851343 
L 391.647344 163.428577 
L 407.08608 46.746739 
" style="fill:none;stroke:#1b9e77;stroke-linecap:square;stroke-opacity:0.5;stroke-width:1.5;"/>
   </g>
   <g id="line2d_89">
    <path clip-path="url(#p42bf270bec)" d="M 51.99517 152.919237 
L 67.433906 165.01817 
L 82.872641 165.499606 
L 98.311376 165.622312 
L 113.750111 165.610386 
L 129.188846 165.749223 
L 144.627582 165.814124 
L 160.066317 165.843724 
L 175.505052 165.753245 
L 190.943787 165.805042 
L 206.382522 165.87453 
L 221.821257 165.86942 
L 237.259993 165.810613 
L 252.698728 165.881134 
L 268.137463 164.804292 
L 283.576198 136.071346 
L 299.014933 152.072141 
L 314.453668 148.471227 
L 329.892404 134.906775 
L 345.331139 147.337247 
L 360.769874 108.820802 
L 376.208609 135.348914 
L 391.647344 159.262386 
L 407.08608 164.655817 
" style="fill:none;stroke:#1b9e77;stroke-linecap:square;stroke-opacity:0.5;stroke-width:1.5;"/>
   </g>
   <g id="line2d_90">
    <path clip-path="url(#p42bf270bec)" d="M 51.99517 163.625296 
L 67.433906 162.41294 
L 82.872641 131.106055 
L 98.311376 154.062034 
L 113.750111 134.973875 
L 129.188846 160.16844 
L 144.627582 165.127923 
L 160.066317 164.824643 
L 175.505052 160.799337 
L 190.943787 163.204335 
L 206.382522 164.603908 
L 221.821257 162.51985 
L 237.259993 145.532543 
L 252.698728 74.626118 
L 268.137463 162.753199 
L 283.576198 164.652527 
L 299.014933 164.840108 
L 314.453668 165.263104 
L 329.892404 165.709923 
L 345.331139 165.832296 
L 360.769874 165.848283 
L 376.208609 165.924721 
L 391.647344 165.924777 
L 407.08608 164.485485 
" style="fill:none;stroke:#1b9e77;stroke-linecap:square;stroke-opacity:0.5;stroke-width:1.5;"/>
   </g>
   <g id="line2d_91">
    <path clip-path="url(#p42bf270bec)" d="M 51.99517 164.905336 
L 67.433906 165.396137 
L 82.872641 164.259434 
L 98.311376 163.464564 
L 113.750111 141.322224 
L 129.188846 164.045994 
L 144.627582 165.418409 
L 160.066317 165.083197 
L 175.505052 157.095796 
L 190.943787 153.285535 
L 206.382522 162.639745 
L 221.821257 164.035985 
L 237.259993 157.886723 
L 252.698728 160.266186 
L 268.137463 163.081688 
L 283.576198 164.205355 
L 299.014933 161.872179 
L 314.453668 152.271076 
L 329.892404 139.214671 
L 345.331139 158.566395 
L 360.769874 113.294297 
L 376.208609 142.934824 
L 391.647344 155.895475 
L 407.08608 158.380489 
" style="fill:none;stroke:#1b9e77;stroke-linecap:square;stroke-opacity:0.5;stroke-width:1.5;"/>
   </g>
   <g id="line2d_92">
    <path clip-path="url(#p42bf270bec)" d="M 51.99517 164.344568 
L 67.433906 161.010765 
L 82.872641 142.706533 
L 98.311376 154.086975 
L 113.750111 122.255044 
L 129.188846 117.402216 
L 144.627582 153.731848 
L 160.066317 165.704156 
L 175.505052 164.965323 
L 190.943787 164.755698 
L 206.382522 165.279366 
L 221.821257 165.836602 
L 237.259993 165.843653 
L 252.698728 165.857988 
L 268.137463 165.805234 
L 283.576198 164.402896 
L 299.014933 157.988956 
L 314.453668 164.626793 
L 329.892404 162.458399 
L 345.331139 145.905129 
L 360.769874 152.269198 
L 376.208609 152.482176 
L 391.647344 155.438273 
L 407.08608 163.663923 
" style="fill:none;stroke:#1b9e77;stroke-linecap:square;stroke-opacity:0.5;stroke-width:1.5;"/>
   </g>
   <g id="line2d_93">
    <path clip-path="url(#p42bf270bec)" d="M 51.99517 148.378858 
L 67.433906 137.358139 
L 82.872641 138.551466 
L 98.311376 115.640621 
L 113.750111 158.056953 
L 129.188846 165.101545 
L 144.627582 165.745408 
L 160.066317 165.863102 
L 175.505052 165.875146 
L 190.943787 165.911298 
L 206.382522 165.918241 
L 221.821257 165.920347 
L 237.259993 165.861122 
L 252.698728 165.482336 
L 268.137463 161.221621 
L 283.576198 160.134607 
L 299.014933 160.784565 
L 314.453668 152.168767 
L 329.892404 142.054667 
L 345.331139 147.122975 
L 360.769874 156.290352 
L 376.208609 163.298589 
L 391.647344 163.928657 
L 407.08608 162.152332 
" style="fill:none;stroke:#1b9e77;stroke-linecap:square;stroke-opacity:0.5;stroke-width:1.5;"/>
   </g>
   <g id="line2d_94">
    <path clip-path="url(#p42bf270bec)" d="M 51.99517 165.92688 
L 67.433906 165.902967 
L 82.872641 165.931471 
L 98.311376 165.940596 
L 113.750111 165.893395 
L 129.188846 165.890985 
L 144.627582 164.870935 
L 160.066317 159.845623 
L 175.505052 163.138932 
L 190.943787 161.180808 
L 206.382522 157.047135 
L 221.821257 163.710464 
L 237.259993 100.887974 
L 252.698728 102.794329 
L 268.137463 145.821852 
L 283.576198 157.1331 
L 299.014933 162.923777 
L 314.453668 160.360763 
L 329.892404 148.85979 
L 345.331139 152.079119 
L 360.769874 165.460324 
L 376.208609 165.776567 
L 391.647344 165.840943 
L 407.08608 165.602987 
" style="fill:none;stroke:#1b9e77;stroke-linecap:square;stroke-opacity:0.5;stroke-width:1.5;"/>
   </g>
   <g id="line2d_95">
    <path clip-path="url(#p42bf270bec)" d="M 51.99517 165.777404 
L 67.433906 165.716236 
L 82.872641 165.806501 
L 98.311376 165.92344 
L 113.750111 165.913308 
L 129.188846 165.382151 
L 144.627582 94.26321 
L 160.066317 84.772198 
L 175.505052 142.858975 
L 190.943787 153.362136 
L 206.382522 164.266251 
L 221.821257 165.560387 
L 237.259993 165.464149 
L 252.698728 164.722742 
L 268.137463 156.873798 
L 283.576198 161.760378 
L 299.014933 159.215374 
L 314.453668 160.058669 
L 329.892404 163.763956 
L 345.331139 164.956503 
L 360.769874 165.386876 
L 376.208609 165.826177 
L 391.647344 165.87974 
L 407.08608 165.311155 
" style="fill:none;stroke:#1b9e77;stroke-linecap:square;stroke-opacity:0.5;stroke-width:1.5;"/>
   </g>
   <g id="line2d_96">
    <path clip-path="url(#p42bf270bec)" d="M 51.99517 165.918062 
L 67.433906 165.881625 
L 82.872641 165.9025 
L 98.311376 165.940642 
L 113.750111 165.949015 
L 129.188846 165.955456 
L 144.627582 165.949776 
L 160.066317 165.930638 
L 175.505052 165.745808 
L 190.943787 162.661714 
L 206.382522 147.69589 
L 221.821257 144.485706 
L 237.259993 137.583385 
L 252.698728 164.148978 
L 268.137463 163.089876 
L 283.576198 144.56843 
L 299.014933 150.608431 
L 314.453668 153.608638 
L 329.892404 156.901378 
L 345.331139 151.576586 
L 360.769874 140.978069 
L 376.208609 136.018646 
L 391.647344 148.862609 
L 407.08608 162.859853 
" style="fill:none;stroke:#1b9e77;stroke-linecap:square;stroke-opacity:0.5;stroke-width:1.5;"/>
   </g>
   <g id="line2d_97">
    <path clip-path="url(#p42bf270bec)" d="M 51.99517 165.795818 
L 67.433906 165.933376 
L 82.872641 165.818059 
L 98.311376 165.446233 
L 113.750111 133.161126 
L 129.188846 111.692911 
L 144.627582 158.939284 
L 160.066317 163.19778 
L 175.505052 161.872033 
L 190.943787 160.944591 
L 206.382522 162.366665 
L 221.821257 122.739915 
L 237.259993 154.099789 
L 252.698728 162.754955 
L 268.137463 162.280489 
L 283.576198 163.646371 
L 299.014933 156.158514 
L 314.453668 155.983407 
L 329.892404 159.961813 
L 345.331139 165.428706 
L 360.769874 164.56648 
L 376.208609 151.781692 
L 391.647344 160.758812 
L 407.08608 163.4929 
" style="fill:none;stroke:#1b9e77;stroke-linecap:square;stroke-opacity:0.5;stroke-width:1.5;"/>
   </g>
   <g id="line2d_98">
    <path clip-path="url(#p42bf270bec)" d="M 51.99517 165.905612 
L 67.433906 165.828232 
L 82.872641 165.862796 
L 98.311376 165.925886 
L 113.750111 165.937583 
L 129.188846 165.920502 
L 144.627582 165.584228 
L 160.066317 164.541073 
L 175.505052 159.202501 
L 190.943787 143.875057 
L 206.382522 148.242289 
L 221.821257 143.861795 
L 237.259993 105.937682 
L 252.698728 158.221212 
L 268.137463 154.459023 
L 283.576198 123.895381 
L 299.014933 141.825447 
L 314.453668 164.527153 
L 329.892404 165.605714 
L 345.331139 165.705673 
L 360.769874 165.843554 
L 376.208609 165.493771 
L 391.647344 162.467041 
L 407.08608 164.152506 
" style="fill:none;stroke:#1b9e77;stroke-linecap:square;stroke-opacity:0.5;stroke-width:1.5;"/>
   </g>
   <g id="line2d_99">
    <path clip-path="url(#p42bf270bec)" d="M 51.99517 165.818358 
L 67.433906 165.770653 
L 82.872641 165.84264 
L 98.311376 165.909215 
L 113.750111 165.88357 
L 129.188846 165.802793 
L 144.627582 164.338195 
L 160.066317 156.252567 
L 175.505052 131.75419 
L 190.943787 105.542811 
L 206.382522 110.46036 
L 221.821257 112.807065 
L 237.259993 163.867637 
L 252.698728 165.39147 
L 268.137463 165.724333 
L 283.576198 165.826152 
L 299.014933 165.836378 
L 314.453668 165.857109 
L 329.892404 165.860417 
L 345.331139 165.894562 
L 360.769874 165.904649 
L 376.208609 165.921156 
L 391.647344 165.680599 
L 407.08608 160.874835 
" style="fill:none;stroke:#1b9e77;stroke-linecap:square;stroke-opacity:0.5;stroke-width:1.5;"/>
   </g>
   <g id="line2d_100">
    <path clip-path="url(#p42bf270bec)" d="M 51.99517 165.570817 
L 67.433906 161.442337 
L 82.872641 145.094355 
L 98.311376 151.29452 
L 113.750111 149.328047 
L 129.188846 142.263763 
L 144.627582 159.006988 
L 160.066317 165.324041 
L 175.505052 164.628174 
L 190.943787 154.219782 
L 206.382522 147.018177 
L 221.821257 150.676073 
L 237.259993 136.487598 
L 252.698728 131.827012 
L 268.137463 146.787673 
L 283.576198 161.681067 
L 299.014933 165.720093 
L 314.453668 165.714368 
L 329.892404 165.809805 
L 345.331139 165.897891 
L 360.769874 165.873883 
L 376.208609 165.948379 
L 391.647344 165.865291 
L 407.08608 165.341577 
" style="fill:none;stroke:#1b9e77;stroke-linecap:square;stroke-opacity:0.5;stroke-width:1.5;"/>
   </g>
   <g id="line2d_101">
    <path clip-path="url(#p42bf270bec)" d="M 51.99517 156.791508 
L 67.433906 144.405046 
L 82.872641 154.522204 
L 98.311376 158.97673 
L 113.750111 161.330561 
L 129.188846 162.064428 
L 144.627582 157.775384 
L 160.066317 150.600302 
L 175.505052 148.676192 
L 190.943787 154.481279 
L 206.382522 146.175523 
L 221.821257 141.502731 
L 237.259993 141.514007 
L 252.698728 135.724393 
L 268.137463 154.777737 
L 283.576198 164.293944 
L 299.014933 165.178592 
L 314.453668 165.438583 
L 329.892404 165.859008 
L 345.331139 165.857444 
L 360.769874 165.855499 
L 376.208609 165.930241 
L 391.647344 165.939898 
L 407.08608 165.150481 
" style="fill:none;stroke:#1b9e77;stroke-linecap:square;stroke-opacity:0.5;stroke-width:1.5;"/>
   </g>
   <g id="line2d_102">
    <path clip-path="url(#p42bf270bec)" d="M 51.99517 163.406636 
L 67.433906 162.976659 
L 82.872641 159.962406 
L 98.311376 156.7287 
L 113.750111 152.964471 
L 129.188846 148.641318 
L 144.627582 152.505724 
L 160.066317 149.193229 
L 175.505052 119.845278 
L 190.943787 129.309091 
L 206.382522 156.782108 
L 221.821257 159.787009 
L 237.259993 158.344773 
L 252.698728 164.771378 
L 268.137463 165.259312 
L 283.576198 164.655403 
L 299.014933 162.057668 
L 314.453668 164.546759 
L 329.892404 151.050238 
L 345.331139 164.724005 
L 360.769874 163.143583 
L 376.208609 162.114626 
L 391.647344 163.544947 
L 407.08608 162.506398 
" style="fill:none;stroke:#1b9e77;stroke-linecap:square;stroke-opacity:0.5;stroke-width:1.5;"/>
   </g>
   <g id="line2d_103">
    <path clip-path="url(#p42bf270bec)" d="M 51.99517 165.944577 
L 67.433906 165.921047 
L 82.872641 165.492019 
L 98.311376 162.455111 
L 113.750111 159.117842 
L 129.188846 155.856877 
L 144.627582 127.074046 
L 160.066317 140.799893 
L 175.505052 152.617523 
L 190.943787 151.180825 
L 206.382522 150.432757 
L 221.821257 154.735283 
L 237.259993 156.367368 
L 252.698728 163.297678 
L 268.137463 164.729322 
L 283.576198 165.443638 
L 299.014933 165.626163 
L 314.453668 162.826825 
L 329.892404 156.125854 
L 345.331139 162.948208 
L 360.769874 163.687946 
L 376.208609 122.302206 
L 391.647344 158.643688 
L 407.08608 165.195017 
" style="fill:none;stroke:#1b9e77;stroke-linecap:square;stroke-opacity:0.5;stroke-width:1.5;"/>
   </g>
   <g id="line2d_104">
    <path clip-path="url(#p42bf270bec)" d="M 51.99517 165.929799 
L 67.433906 161.366001 
L 82.872641 147.117187 
L 98.311376 139.92805 
L 113.750111 138.449198 
L 129.188846 156.211236 
L 144.627582 153.404835 
L 160.066317 153.843467 
L 175.505052 157.803815 
L 190.943787 159.414388 
L 206.382522 162.248461 
L 221.821257 164.105802 
L 237.259993 158.83032 
L 252.698728 156.655693 
L 268.137463 159.215969 
L 283.576198 159.008849 
L 299.014933 163.368063 
L 314.453668 145.806821 
L 329.892404 144.381029 
L 345.331139 148.784604 
L 360.769874 165.763741 
L 376.208609 165.7129 
L 391.647344 165.835177 
L 407.08608 165.636313 
" style="fill:none;stroke:#1b9e77;stroke-linecap:square;stroke-opacity:0.5;stroke-width:1.5;"/>
   </g>
   <g id="line2d_105">
    <path clip-path="url(#p42bf270bec)" d="M 51.99517 165.738222 
L 67.433906 165.213874 
L 82.872641 165.433783 
L 98.311376 165.773138 
L 113.750111 165.85665 
L 129.188846 165.911923 
L 144.627582 165.921861 
L 160.066317 165.932054 
L 175.505052 165.865171 
L 190.943787 165.160193 
L 206.382522 154.182401 
L 221.821257 142.136549 
L 237.259993 137.43331 
L 252.698728 129.821919 
L 268.137463 126.750544 
L 283.576198 117.428472 
L 299.014933 136.971933 
L 314.453668 162.733768 
L 329.892404 165.731835 
L 345.331139 165.802267 
L 360.769874 165.848111 
L 376.208609 165.903066 
L 391.647344 165.87703 
L 407.08608 165.393642 
" style="fill:none;stroke:#1b9e77;stroke-linecap:square;stroke-opacity:0.5;stroke-width:1.5;"/>
   </g>
   <g id="line2d_106">
    <path clip-path="url(#p42bf270bec)" d="M 51.99517 152.285862 
L 67.433906 114.335507 
L 82.872641 121.607201 
L 98.311376 144.471552 
L 113.750111 153.339524 
L 129.188846 158.985108 
L 144.627582 160.674627 
L 160.066317 163.612181 
L 175.505052 164.517141 
L 190.943787 164.291798 
L 206.382522 162.249534 
L 221.821257 159.773143 
L 237.259993 161.481008 
L 252.698728 160.839217 
L 268.137463 162.385817 
L 283.576198 158.329468 
L 299.014933 160.552494 
L 314.453668 161.422912 
L 329.892404 162.148726 
L 345.331139 164.093934 
L 360.769874 164.532922 
L 376.208609 165.090353 
L 391.647344 164.853619 
L 407.08608 152.948066 
" style="fill:none;stroke:#1b9e77;stroke-linecap:square;stroke-opacity:0.5;stroke-width:1.5;"/>
   </g>
   <g id="line2d_107">
    <path clip-path="url(#p42bf270bec)" d="M 51.99517 165.550641 
L 67.433906 165.263668 
L 82.872641 158.126816 
L 98.311376 153.497577 
L 113.750111 120.80349 
L 129.188846 156.701659 
L 144.627582 159.518348 
L 160.066317 153.57953 
L 175.505052 133.338492 
L 190.943787 141.794675 
L 206.382522 160.266431 
L 221.821257 160.737621 
L 237.259993 159.082889 
L 252.698728 159.019268 
L 268.137463 163.061999 
L 283.576198 164.927467 
L 299.014933 165.433135 
L 314.453668 164.008042 
L 329.892404 158.518937 
L 345.331139 159.184768 
L 360.769874 155.365051 
L 376.208609 155.758511 
L 391.647344 159.717634 
L 407.08608 165.56507 
" style="fill:none;stroke:#1b9e77;stroke-linecap:square;stroke-opacity:0.5;stroke-width:1.5;"/>
   </g>
   <g id="line2d_108">
    <path clip-path="url(#p42bf270bec)" d="M 51.99517 151.949627 
L 67.433906 120.597478 
L 82.872641 110.342059 
L 98.311376 157.973757 
L 113.750111 162.790028 
L 129.188846 163.296141 
L 144.627582 165.503709 
L 160.066317 165.795161 
L 175.505052 165.782345 
L 190.943787 165.862636 
L 206.382522 165.877291 
L 221.821257 162.000967 
L 237.259993 151.66454 
L 252.698728 150.093631 
L 268.137463 129.617306 
L 283.576198 152.619222 
L 299.014933 163.784156 
L 314.453668 165.673348 
L 329.892404 165.916798 
L 345.331139 165.750897 
L 360.769874 165.329822 
L 376.208609 165.186957 
L 391.647344 163.642444 
L 407.08608 161.771397 
" style="fill:none;stroke:#1b9e77;stroke-linecap:square;stroke-opacity:0.5;stroke-width:1.5;"/>
   </g>
   <g id="line2d_109">
    <path clip-path="url(#p42bf270bec)" d="M 51.99517 165.924279 
L 67.433906 165.89419 
L 82.872641 165.922484 
L 98.311376 165.951742 
L 113.750111 165.94946 
L 129.188846 165.931421 
L 144.627582 165.629736 
L 160.066317 163.597864 
L 175.505052 162.473066 
L 190.943787 160.760588 
L 206.382522 159.265945 
L 221.821257 159.459867 
L 237.259993 157.628425 
L 252.698728 157.083361 
L 268.137463 149.728466 
L 283.576198 149.386353 
L 299.014933 154.322113 
L 314.453668 164.186566 
L 329.892404 158.18288 
L 345.331139 145.913014 
L 360.769874 74.860075 
L 376.208609 150.976729 
L 391.647344 165.004885 
L 407.08608 164.788216 
" style="fill:none;stroke:#1b9e77;stroke-linecap:square;stroke-opacity:0.5;stroke-width:1.5;"/>
   </g>
   <g id="line2d_110">
    <path clip-path="url(#p42bf270bec)" d="M 51.99517 154.338038 
L 67.433906 155.29218 
L 82.872641 163.891587 
L 98.311376 164.787889 
L 113.750111 165.734794 
L 129.188846 165.890679 
L 144.627582 165.927738 
L 160.066317 165.94513 
L 175.505052 165.939938 
L 190.943787 165.910726 
L 206.382522 165.10712 
L 221.821257 162.661822 
L 237.259993 155.124895 
L 252.698728 139.805092 
L 268.137463 144.824186 
L 283.576198 155.287475 
L 299.014933 160.373594 
L 314.453668 146.777953 
L 329.892404 130.2346 
L 345.331139 137.692663 
L 360.769874 145.426689 
L 376.208609 152.243408 
L 391.647344 163.91234 
L 407.08608 165.69118 
" style="fill:none;stroke:#1b9e77;stroke-linecap:square;stroke-opacity:0.5;stroke-width:1.5;"/>
   </g>
   <g id="line2d_111">
    <path clip-path="url(#p42bf270bec)" d="M 51.99517 165.861389 
L 67.433906 165.768531 
L 82.872641 165.827303 
L 98.311376 165.913289 
L 113.750111 165.926066 
L 129.188846 165.9155 
L 144.627582 165.897993 
L 160.066317 165.879045 
L 175.505052 165.689487 
L 190.943787 164.930694 
L 206.382522 163.33155 
L 221.821257 160.537636 
L 237.259993 160.994784 
L 252.698728 163.98116 
L 268.137463 119.001232 
L 283.576198 107.882157 
L 299.014933 145.534326 
L 314.453668 147.397852 
L 329.892404 158.666244 
L 345.331139 164.181735 
L 360.769874 156.594059 
L 376.208609 154.067063 
L 391.647344 134.205217 
L 407.08608 164.837398 
" style="fill:none;stroke:#1b9e77;stroke-linecap:square;stroke-opacity:0.5;stroke-width:1.5;"/>
   </g>
   <g id="line2d_112">
    <path clip-path="url(#p42bf270bec)" d="M 51.99517 165.96 
L 67.433906 165.96 
L 82.872641 165.96 
L 98.311376 165.96 
L 113.750111 165.96 
L 129.188846 165.96 
L 144.627582 165.96 
L 160.066317 165.96 
L 175.505052 165.96 
L 190.943787 165.96 
L 206.382522 165.96 
L 221.821257 165.96 
L 237.259993 165.96 
L 252.698728 165.96 
L 268.137463 165.868066 
L 283.576198 165.870293 
L 299.014933 163.98346 
L 314.453668 149.572516 
L 329.892404 122.622503 
L 345.331139 91.965204 
L 360.769874 116.711341 
L 376.208609 149.22638 
L 391.647344 144.325026 
L 407.08608 165.236927 
" style="fill:none;stroke:#d95f02;stroke-linecap:square;stroke-width:1.5;"/>
   </g>
   <g id="patch_3">
    <path d="M 34.240625 173.52 
L 34.240625 7.2 
" style="fill:none;stroke:#000000;stroke-linecap:square;stroke-linejoin:miter;stroke-width:0.8;"/>
   </g>
   <g id="patch_4">
    <path d="M 34.240625 173.52 
L 424.840625 173.52 
" style="fill:none;stroke:#000000;stroke-linecap:square;stroke-linejoin:miter;stroke-width:0.8;"/>
   </g>
   <g id="legend_1">
    <g id="patch_5">
     <path d="M 366.673438 29.878125 
L 417.840625 29.878125 
Q 419.840625 29.878125 419.840625 27.878125 
L 419.840625 14.2 
Q 419.840625 12.2 417.840625 12.2 
L 366.673438 12.2 
Q 364.673438 12.2 364.673438 14.2 
L 364.673438 27.878125 
Q 364.673438 29.878125 366.673438 29.878125 
z
" style="fill:#ffffff;opacity:0.8;stroke:#cccccc;stroke-linejoin:miter;"/>
    </g>
    <g id="line2d_113">
     <path d="M 368.673438 20.298438 
L 388.673438 20.298438 
" style="fill:none;stroke:#d95f02;stroke-linecap:square;stroke-width:1.5;"/>
    </g>
    <g id="line2d_114"/>
    <g id="text_14">
     <!-- real -->
     <defs>
      <path d="M 9.421875 75.984375 
L 18.40625 75.984375 
L 18.40625 0 
L 9.421875 0 
z
" id="DejaVuSans-108"/>
     </defs>
     <g transform="translate(396.673438 23.798438)scale(0.1 -0.1)">
      <use xlink:href="#DejaVuSans-114"/>
      <use x="41.082031" xlink:href="#DejaVuSans-101"/>
      <use x="102.605469" xlink:href="#DejaVuSans-97"/>
      <use x="163.884766" xlink:href="#DejaVuSans-108"/>
     </g>
    </g>
   </g>
  </g>
 </g>
 <defs>
  <clipPath id="p42bf270bec">
   <rect height="166.32" width="390.6" x="34.240625" y="7.2"/>
  </clipPath>
 </defs>
</svg>
