<?xml version="1.0" encoding="utf-8" standalone="no"?>
<!DOCTYPE svg PUBLIC "-//W3C//DTD SVG 1.1//EN"
  "http://www.w3.org/Graphics/SVG/1.1/DTD/svg11.dtd">
<!-- Created with matplotlib (https://matplotlib.org/) -->
<svg height="211.07625pt" version="1.1" viewBox="0 0 436.087315 211.07625" width="436.087315pt" xmlns="http://www.w3.org/2000/svg" xmlns:xlink="http://www.w3.org/1999/xlink">
 <defs>
  <style type="text/css">
*{stroke-linecap:butt;stroke-linejoin:round;}
  </style>
 </defs>
 <g id="figure_1">
  <g id="patch_1">
   <path d="M 0 211.07625 
L 436.087315 211.07625 
L 436.087315 0 
L 0 0 
z
" style="fill:#ffffff;"/>
  </g>
  <g id="axes_1">
   <g id="patch_2">
    <path d="M 34.240625 173.52 
L 424.840625 173.52 
L 424.840625 7.2 
L 34.240625 7.2 
z
" style="fill:#ffffff;"/>
   </g>
   <g id="matplotlib.axis_1">
    <g id="xtick_1">
     <g id="line2d_1">
      <defs>
       <path d="M 0 0 
L 0 3.5 
" id="m0b0b0f1ec1" style="stroke:#000000;stroke-width:0.8;"/>
      </defs>
      <g>
       <use style="stroke:#000000;stroke-width:0.8;" x="36.556435" xlink:href="#m0b0b0f1ec1" y="173.52"/>
      </g>
     </g>
     <g id="text_1">
      <!-- 0 -->
      <defs>
       <path d="M 31.78125 66.40625 
Q 24.171875 66.40625 20.328125 58.90625 
Q 16.5 51.421875 16.5 36.375 
Q 16.5 21.390625 20.328125 13.890625 
Q 24.171875 6.390625 31.78125 6.390625 
Q 39.453125 6.390625 43.28125 13.890625 
Q 47.125 21.390625 47.125 36.375 
Q 47.125 51.421875 43.28125 58.90625 
Q 39.453125 66.40625 31.78125 66.40625 
z
M 31.78125 74.21875 
Q 44.046875 74.21875 50.515625 64.515625 
Q 56.984375 54.828125 56.984375 36.375 
Q 56.984375 17.96875 50.515625 8.265625 
Q 44.046875 -1.421875 31.78125 -1.421875 
Q 19.53125 -1.421875 13.0625 8.265625 
Q 6.59375 17.96875 6.59375 36.375 
Q 6.59375 54.828125 13.0625 64.515625 
Q 19.53125 74.21875 31.78125 74.21875 
z
" id="DejaVuSans-48"/>
      </defs>
      <g transform="translate(33.375185 188.118438)scale(0.1 -0.1)">
       <use xlink:href="#DejaVuSans-48"/>
      </g>
     </g>
    </g>
    <g id="xtick_2">
     <g id="line2d_2">
      <g>
       <use style="stroke:#000000;stroke-width:0.8;" x="113.750111" xlink:href="#m0b0b0f1ec1" y="173.52"/>
      </g>
     </g>
     <g id="text_2">
      <!-- 5 -->
      <defs>
       <path d="M 10.796875 72.90625 
L 49.515625 72.90625 
L 49.515625 64.59375 
L 19.828125 64.59375 
L 19.828125 46.734375 
Q 21.96875 47.46875 24.109375 47.828125 
Q 26.265625 48.1875 28.421875 48.1875 
Q 40.625 48.1875 47.75 41.5 
Q 54.890625 34.8125 54.890625 23.390625 
Q 54.890625 11.625 47.5625 5.09375 
Q 40.234375 -1.421875 26.90625 -1.421875 
Q 22.3125 -1.421875 17.546875 -0.640625 
Q 12.796875 0.140625 7.71875 1.703125 
L 7.71875 11.625 
Q 12.109375 9.234375 16.796875 8.0625 
Q 21.484375 6.890625 26.703125 6.890625 
Q 35.15625 6.890625 40.078125 11.328125 
Q 45.015625 15.765625 45.015625 23.390625 
Q 45.015625 31 40.078125 35.4375 
Q 35.15625 39.890625 26.703125 39.890625 
Q 22.75 39.890625 18.8125 39.015625 
Q 14.890625 38.140625 10.796875 36.28125 
z
" id="DejaVuSans-53"/>
      </defs>
      <g transform="translate(110.568861 188.118438)scale(0.1 -0.1)">
       <use xlink:href="#DejaVuSans-53"/>
      </g>
     </g>
    </g>
    <g id="xtick_3">
     <g id="line2d_3">
      <g>
       <use style="stroke:#000000;stroke-width:0.8;" x="190.943787" xlink:href="#m0b0b0f1ec1" y="173.52"/>
      </g>
     </g>
     <g id="text_3">
      <!-- 10 -->
      <defs>
       <path d="M 12.40625 8.296875 
L 28.515625 8.296875 
L 28.515625 63.921875 
L 10.984375 60.40625 
L 10.984375 69.390625 
L 28.421875 72.90625 
L 38.28125 72.90625 
L 38.28125 8.296875 
L 54.390625 8.296875 
L 54.390625 0 
L 12.40625 0 
z
" id="DejaVuSans-49"/>
      </defs>
      <g transform="translate(184.581287 188.118438)scale(0.1 -0.1)">
       <use xlink:href="#DejaVuSans-49"/>
       <use x="63.623047" xlink:href="#DejaVuSans-48"/>
      </g>
     </g>
    </g>
    <g id="xtick_4">
     <g id="line2d_4">
      <g>
       <use style="stroke:#000000;stroke-width:0.8;" x="268.137463" xlink:href="#m0b0b0f1ec1" y="173.52"/>
      </g>
     </g>
     <g id="text_4">
      <!-- 15 -->
      <g transform="translate(261.774963 188.118438)scale(0.1 -0.1)">
       <use xlink:href="#DejaVuSans-49"/>
       <use x="63.623047" xlink:href="#DejaVuSans-53"/>
      </g>
     </g>
    </g>
    <g id="xtick_5">
     <g id="line2d_5">
      <g>
       <use style="stroke:#000000;stroke-width:0.8;" x="345.331139" xlink:href="#m0b0b0f1ec1" y="173.52"/>
      </g>
     </g>
     <g id="text_5">
      <!-- 20 -->
      <defs>
       <path d="M 19.1875 8.296875 
L 53.609375 8.296875 
L 53.609375 0 
L 7.328125 0 
L 7.328125 8.296875 
Q 12.9375 14.109375 22.625 23.890625 
Q 32.328125 33.6875 34.8125 36.53125 
Q 39.546875 41.84375 41.421875 45.53125 
Q 43.3125 49.21875 43.3125 52.78125 
Q 43.3125 58.59375 39.234375 62.25 
Q 35.15625 65.921875 28.609375 65.921875 
Q 23.96875 65.921875 18.8125 64.3125 
Q 13.671875 62.703125 7.8125 59.421875 
L 7.8125 69.390625 
Q 13.765625 71.78125 18.9375 73 
Q 24.125 74.21875 28.421875 74.21875 
Q 39.75 74.21875 46.484375 68.546875 
Q 53.21875 62.890625 53.21875 53.421875 
Q 53.21875 48.921875 51.53125 44.890625 
Q 49.859375 40.875 45.40625 35.40625 
Q 44.1875 33.984375 37.640625 27.21875 
Q 31.109375 20.453125 19.1875 8.296875 
z
" id="DejaVuSans-50"/>
      </defs>
      <g transform="translate(338.968639 188.118438)scale(0.1 -0.1)">
       <use xlink:href="#DejaVuSans-50"/>
       <use x="63.623047" xlink:href="#DejaVuSans-48"/>
      </g>
     </g>
    </g>
    <g id="xtick_6">
     <g id="line2d_6">
      <g>
       <use style="stroke:#000000;stroke-width:0.8;" x="422.524815" xlink:href="#m0b0b0f1ec1" y="173.52"/>
      </g>
     </g>
     <g id="text_6">
      <!-- 25 -->
      <g transform="translate(416.162315 188.118438)scale(0.1 -0.1)">
       <use xlink:href="#DejaVuSans-50"/>
       <use x="63.623047" xlink:href="#DejaVuSans-53"/>
      </g>
     </g>
    </g>
    <g id="text_7">
     <!-- hour -->
     <defs>
      <path d="M 54.890625 33.015625 
L 54.890625 0 
L 45.90625 0 
L 45.90625 32.71875 
Q 45.90625 40.484375 42.875 44.328125 
Q 39.84375 48.1875 33.796875 48.1875 
Q 26.515625 48.1875 22.3125 43.546875 
Q 18.109375 38.921875 18.109375 30.90625 
L 18.109375 0 
L 9.078125 0 
L 9.078125 75.984375 
L 18.109375 75.984375 
L 18.109375 46.1875 
Q 21.34375 51.125 25.703125 53.5625 
Q 30.078125 56 35.796875 56 
Q 45.21875 56 50.046875 50.171875 
Q 54.890625 44.34375 54.890625 33.015625 
z
" id="DejaVuSans-104"/>
      <path d="M 30.609375 48.390625 
Q 23.390625 48.390625 19.1875 42.75 
Q 14.984375 37.109375 14.984375 27.296875 
Q 14.984375 17.484375 19.15625 11.84375 
Q 23.34375 6.203125 30.609375 6.203125 
Q 37.796875 6.203125 41.984375 11.859375 
Q 46.1875 17.53125 46.1875 27.296875 
Q 46.1875 37.015625 41.984375 42.703125 
Q 37.796875 48.390625 30.609375 48.390625 
z
M 30.609375 56 
Q 42.328125 56 49.015625 48.375 
Q 55.71875 40.765625 55.71875 27.296875 
Q 55.71875 13.875 49.015625 6.21875 
Q 42.328125 -1.421875 30.609375 -1.421875 
Q 18.84375 -1.421875 12.171875 6.21875 
Q 5.515625 13.875 5.515625 27.296875 
Q 5.515625 40.765625 12.171875 48.375 
Q 18.84375 56 30.609375 56 
z
" id="DejaVuSans-111"/>
      <path d="M 8.5 21.578125 
L 8.5 54.6875 
L 17.484375 54.6875 
L 17.484375 21.921875 
Q 17.484375 14.15625 20.5 10.265625 
Q 23.53125 6.390625 29.59375 6.390625 
Q 36.859375 6.390625 41.078125 11.03125 
Q 45.3125 15.671875 45.3125 23.6875 
L 45.3125 54.6875 
L 54.296875 54.6875 
L 54.296875 0 
L 45.3125 0 
L 45.3125 8.40625 
Q 42.046875 3.421875 37.71875 1 
Q 33.40625 -1.421875 27.6875 -1.421875 
Q 18.265625 -1.421875 13.375 4.4375 
Q 8.5 10.296875 8.5 21.578125 
z
M 31.109375 56 
z
" id="DejaVuSans-117"/>
      <path d="M 41.109375 46.296875 
Q 39.59375 47.171875 37.8125 47.578125 
Q 36.03125 48 33.890625 48 
Q 26.265625 48 22.1875 43.046875 
Q 18.109375 38.09375 18.109375 28.8125 
L 18.109375 0 
L 9.078125 0 
L 9.078125 54.6875 
L 18.109375 54.6875 
L 18.109375 46.1875 
Q 20.953125 51.171875 25.484375 53.578125 
Q 30.03125 56 36.53125 56 
Q 37.453125 56 38.578125 55.875 
Q 39.703125 55.765625 41.0625 55.515625 
z
" id="DejaVuSans-114"/>
     </defs>
     <g transform="translate(218.088281 201.796563)scale(0.1 -0.1)">
      <use xlink:href="#DejaVuSans-104"/>
      <use x="63.378906" xlink:href="#DejaVuSans-111"/>
      <use x="124.560547" xlink:href="#DejaVuSans-117"/>
      <use x="187.939453" xlink:href="#DejaVuSans-114"/>
     </g>
    </g>
   </g>
   <g id="matplotlib.axis_2">
    <g id="ytick_1">
     <g id="line2d_7">
      <defs>
       <path d="M 0 0 
L -3.5 0 
" id="m445ccc746c" style="stroke:#000000;stroke-width:0.8;"/>
      </defs>
      <g>
       <use style="stroke:#000000;stroke-width:0.8;" x="34.240625" xlink:href="#m445ccc746c" y="165.961054"/>
      </g>
     </g>
     <g id="text_8">
      <!-- 0 -->
      <g transform="translate(20.878125 169.760273)scale(0.1 -0.1)">
       <use xlink:href="#DejaVuSans-48"/>
      </g>
     </g>
    </g>
    <g id="ytick_2">
     <g id="line2d_8">
      <g>
       <use style="stroke:#000000;stroke-width:0.8;" x="34.240625" xlink:href="#m445ccc746c" y="129.487895"/>
      </g>
     </g>
     <g id="text_9">
      <!-- 1 -->
      <g transform="translate(20.878125 133.287114)scale(0.1 -0.1)">
       <use xlink:href="#DejaVuSans-49"/>
      </g>
     </g>
    </g>
    <g id="ytick_3">
     <g id="line2d_9">
      <g>
       <use style="stroke:#000000;stroke-width:0.8;" x="34.240625" xlink:href="#m445ccc746c" y="93.014736"/>
      </g>
     </g>
     <g id="text_10">
      <!-- 2 -->
      <g transform="translate(20.878125 96.813954)scale(0.1 -0.1)">
       <use xlink:href="#DejaVuSans-50"/>
      </g>
     </g>
    </g>
    <g id="ytick_4">
     <g id="line2d_10">
      <g>
       <use style="stroke:#000000;stroke-width:0.8;" x="34.240625" xlink:href="#m445ccc746c" y="56.541576"/>
      </g>
     </g>
     <g id="text_11">
      <!-- 3 -->
      <defs>
       <path d="M 40.578125 39.3125 
Q 47.65625 37.796875 51.625 33 
Q 55.609375 28.21875 55.609375 21.1875 
Q 55.609375 10.40625 48.1875 4.484375 
Q 40.765625 -1.421875 27.09375 -1.421875 
Q 22.515625 -1.421875 17.65625 -0.515625 
Q 12.796875 0.390625 7.625 2.203125 
L 7.625 11.71875 
Q 11.71875 9.328125 16.59375 8.109375 
Q 21.484375 6.890625 26.8125 6.890625 
Q 36.078125 6.890625 40.9375 10.546875 
Q 45.796875 14.203125 45.796875 21.1875 
Q 45.796875 27.640625 41.28125 31.265625 
Q 36.765625 34.90625 28.71875 34.90625 
L 20.21875 34.90625 
L 20.21875 43.015625 
L 29.109375 43.015625 
Q 36.375 43.015625 40.234375 45.921875 
Q 44.09375 48.828125 44.09375 54.296875 
Q 44.09375 59.90625 40.109375 62.90625 
Q 36.140625 65.921875 28.71875 65.921875 
Q 24.65625 65.921875 20.015625 65.03125 
Q 15.375 64.15625 9.8125 62.3125 
L 9.8125 71.09375 
Q 15.4375 72.65625 20.34375 73.4375 
Q 25.25 74.21875 29.59375 74.21875 
Q 40.828125 74.21875 47.359375 69.109375 
Q 53.90625 64.015625 53.90625 55.328125 
Q 53.90625 49.265625 50.4375 45.09375 
Q 46.96875 40.921875 40.578125 39.3125 
z
" id="DejaVuSans-51"/>
      </defs>
      <g transform="translate(20.878125 60.340795)scale(0.1 -0.1)">
       <use xlink:href="#DejaVuSans-51"/>
      </g>
     </g>
    </g>
    <g id="ytick_5">
     <g id="line2d_11">
      <g>
       <use style="stroke:#000000;stroke-width:0.8;" x="34.240625" xlink:href="#m445ccc746c" y="20.068417"/>
      </g>
     </g>
     <g id="text_12">
      <!-- 4 -->
      <defs>
       <path d="M 37.796875 64.3125 
L 12.890625 25.390625 
L 37.796875 25.390625 
z
M 35.203125 72.90625 
L 47.609375 72.90625 
L 47.609375 25.390625 
L 58.015625 25.390625 
L 58.015625 17.1875 
L 47.609375 17.1875 
L 47.609375 0 
L 37.796875 0 
L 37.796875 17.1875 
L 4.890625 17.1875 
L 4.890625 26.703125 
z
" id="DejaVuSans-52"/>
      </defs>
      <g transform="translate(20.878125 23.867635)scale(0.1 -0.1)">
       <use xlink:href="#DejaVuSans-52"/>
      </g>
     </g>
    </g>
    <g id="text_13">
     <!-- precipitation [mm/hour] -->
     <defs>
      <path d="M 18.109375 8.203125 
L 18.109375 -20.796875 
L 9.078125 -20.796875 
L 9.078125 54.6875 
L 18.109375 54.6875 
L 18.109375 46.390625 
Q 20.953125 51.265625 25.265625 53.625 
Q 29.59375 56 35.59375 56 
Q 45.5625 56 51.78125 48.09375 
Q 58.015625 40.1875 58.015625 27.296875 
Q 58.015625 14.40625 51.78125 6.484375 
Q 45.5625 -1.421875 35.59375 -1.421875 
Q 29.59375 -1.421875 25.265625 0.953125 
Q 20.953125 3.328125 18.109375 8.203125 
z
M 48.6875 27.296875 
Q 48.6875 37.203125 44.609375 42.84375 
Q 40.53125 48.484375 33.40625 48.484375 
Q 26.265625 48.484375 22.1875 42.84375 
Q 18.109375 37.203125 18.109375 27.296875 
Q 18.109375 17.390625 22.1875 11.75 
Q 26.265625 6.109375 33.40625 6.109375 
Q 40.53125 6.109375 44.609375 11.75 
Q 48.6875 17.390625 48.6875 27.296875 
z
" id="DejaVuSans-112"/>
      <path d="M 56.203125 29.59375 
L 56.203125 25.203125 
L 14.890625 25.203125 
Q 15.484375 15.921875 20.484375 11.0625 
Q 25.484375 6.203125 34.421875 6.203125 
Q 39.59375 6.203125 44.453125 7.46875 
Q 49.3125 8.734375 54.109375 11.28125 
L 54.109375 2.78125 
Q 49.265625 0.734375 44.1875 -0.34375 
Q 39.109375 -1.421875 33.890625 -1.421875 
Q 20.796875 -1.421875 13.15625 6.1875 
Q 5.515625 13.8125 5.515625 26.8125 
Q 5.515625 40.234375 12.765625 48.109375 
Q 20.015625 56 32.328125 56 
Q 43.359375 56 49.78125 48.890625 
Q 56.203125 41.796875 56.203125 29.59375 
z
M 47.21875 32.234375 
Q 47.125 39.59375 43.09375 43.984375 
Q 39.0625 48.390625 32.421875 48.390625 
Q 24.90625 48.390625 20.390625 44.140625 
Q 15.875 39.890625 15.1875 32.171875 
z
" id="DejaVuSans-101"/>
      <path d="M 48.78125 52.59375 
L 48.78125 44.1875 
Q 44.96875 46.296875 41.140625 47.34375 
Q 37.3125 48.390625 33.40625 48.390625 
Q 24.65625 48.390625 19.8125 42.84375 
Q 14.984375 37.3125 14.984375 27.296875 
Q 14.984375 17.28125 19.8125 11.734375 
Q 24.65625 6.203125 33.40625 6.203125 
Q 37.3125 6.203125 41.140625 7.25 
Q 44.96875 8.296875 48.78125 10.40625 
L 48.78125 2.09375 
Q 45.015625 0.34375 40.984375 -0.53125 
Q 36.96875 -1.421875 32.421875 -1.421875 
Q 20.0625 -1.421875 12.78125 6.34375 
Q 5.515625 14.109375 5.515625 27.296875 
Q 5.515625 40.671875 12.859375 48.328125 
Q 20.21875 56 33.015625 56 
Q 37.15625 56 41.109375 55.140625 
Q 45.0625 54.296875 48.78125 52.59375 
z
" id="DejaVuSans-99"/>
      <path d="M 9.421875 54.6875 
L 18.40625 54.6875 
L 18.40625 0 
L 9.421875 0 
z
M 9.421875 75.984375 
L 18.40625 75.984375 
L 18.40625 64.59375 
L 9.421875 64.59375 
z
" id="DejaVuSans-105"/>
      <path d="M 18.3125 70.21875 
L 18.3125 54.6875 
L 36.8125 54.6875 
L 36.8125 47.703125 
L 18.3125 47.703125 
L 18.3125 18.015625 
Q 18.3125 11.328125 20.140625 9.421875 
Q 21.96875 7.515625 27.59375 7.515625 
L 36.8125 7.515625 
L 36.8125 0 
L 27.59375 0 
Q 17.1875 0 13.234375 3.875 
Q 9.28125 7.765625 9.28125 18.015625 
L 9.28125 47.703125 
L 2.6875 47.703125 
L 2.6875 54.6875 
L 9.28125 54.6875 
L 9.28125 70.21875 
z
" id="DejaVuSans-116"/>
      <path d="M 34.28125 27.484375 
Q 23.390625 27.484375 19.1875 25 
Q 14.984375 22.515625 14.984375 16.5 
Q 14.984375 11.71875 18.140625 8.90625 
Q 21.296875 6.109375 26.703125 6.109375 
Q 34.1875 6.109375 38.703125 11.40625 
Q 43.21875 16.703125 43.21875 25.484375 
L 43.21875 27.484375 
z
M 52.203125 31.203125 
L 52.203125 0 
L 43.21875 0 
L 43.21875 8.296875 
Q 40.140625 3.328125 35.546875 0.953125 
Q 30.953125 -1.421875 24.3125 -1.421875 
Q 15.921875 -1.421875 10.953125 3.296875 
Q 6 8.015625 6 15.921875 
Q 6 25.140625 12.171875 29.828125 
Q 18.359375 34.515625 30.609375 34.515625 
L 43.21875 34.515625 
L 43.21875 35.40625 
Q 43.21875 41.609375 39.140625 45 
Q 35.0625 48.390625 27.6875 48.390625 
Q 23 48.390625 18.546875 47.265625 
Q 14.109375 46.140625 10.015625 43.890625 
L 10.015625 52.203125 
Q 14.9375 54.109375 19.578125 55.046875 
Q 24.21875 56 28.609375 56 
Q 40.484375 56 46.34375 49.84375 
Q 52.203125 43.703125 52.203125 31.203125 
z
" id="DejaVuSans-97"/>
      <path d="M 54.890625 33.015625 
L 54.890625 0 
L 45.90625 0 
L 45.90625 32.71875 
Q 45.90625 40.484375 42.875 44.328125 
Q 39.84375 48.1875 33.796875 48.1875 
Q 26.515625 48.1875 22.3125 43.546875 
Q 18.109375 38.921875 18.109375 30.90625 
L 18.109375 0 
L 9.078125 0 
L 9.078125 54.6875 
L 18.109375 54.6875 
L 18.109375 46.1875 
Q 21.34375 51.125 25.703125 53.5625 
Q 30.078125 56 35.796875 56 
Q 45.21875 56 50.046875 50.171875 
Q 54.890625 44.34375 54.890625 33.015625 
z
" id="DejaVuSans-110"/>
      <path id="DejaVuSans-32"/>
      <path d="M 8.59375 75.984375 
L 29.296875 75.984375 
L 29.296875 69 
L 17.578125 69 
L 17.578125 -6.203125 
L 29.296875 -6.203125 
L 29.296875 -13.1875 
L 8.59375 -13.1875 
z
" id="DejaVuSans-91"/>
      <path d="M 52 44.1875 
Q 55.375 50.25 60.0625 53.125 
Q 64.75 56 71.09375 56 
Q 79.640625 56 84.28125 50.015625 
Q 88.921875 44.046875 88.921875 33.015625 
L 88.921875 0 
L 79.890625 0 
L 79.890625 32.71875 
Q 79.890625 40.578125 77.09375 44.375 
Q 74.3125 48.1875 68.609375 48.1875 
Q 61.625 48.1875 57.5625 43.546875 
Q 53.515625 38.921875 53.515625 30.90625 
L 53.515625 0 
L 44.484375 0 
L 44.484375 32.71875 
Q 44.484375 40.625 41.703125 44.40625 
Q 38.921875 48.1875 33.109375 48.1875 
Q 26.21875 48.1875 22.15625 43.53125 
Q 18.109375 38.875 18.109375 30.90625 
L 18.109375 0 
L 9.078125 0 
L 9.078125 54.6875 
L 18.109375 54.6875 
L 18.109375 46.1875 
Q 21.1875 51.21875 25.484375 53.609375 
Q 29.78125 56 35.6875 56 
Q 41.65625 56 45.828125 52.96875 
Q 50 49.953125 52 44.1875 
z
" id="DejaVuSans-109"/>
      <path d="M 25.390625 72.90625 
L 33.6875 72.90625 
L 8.296875 -9.28125 
L 0 -9.28125 
z
" id="DejaVuSans-47"/>
      <path d="M 30.421875 75.984375 
L 30.421875 -13.1875 
L 9.71875 -13.1875 
L 9.71875 -6.203125 
L 21.390625 -6.203125 
L 21.390625 69 
L 9.71875 69 
L 9.71875 75.984375 
z
" id="DejaVuSans-93"/>
     </defs>
     <g transform="translate(14.798438 150.335781)rotate(-90)scale(0.1 -0.1)">
      <use xlink:href="#DejaVuSans-112"/>
      <use x="63.476562" xlink:href="#DejaVuSans-114"/>
      <use x="104.558594" xlink:href="#DejaVuSans-101"/>
      <use x="166.082031" xlink:href="#DejaVuSans-99"/>
      <use x="221.0625" xlink:href="#DejaVuSans-105"/>
      <use x="248.845703" xlink:href="#DejaVuSans-112"/>
      <use x="312.322266" xlink:href="#DejaVuSans-105"/>
      <use x="340.105469" xlink:href="#DejaVuSans-116"/>
      <use x="379.314453" xlink:href="#DejaVuSans-97"/>
      <use x="440.59375" xlink:href="#DejaVuSans-116"/>
      <use x="479.802734" xlink:href="#DejaVuSans-105"/>
      <use x="507.585938" xlink:href="#DejaVuSans-111"/>
      <use x="568.767578" xlink:href="#DejaVuSans-110"/>
      <use x="632.146484" xlink:href="#DejaVuSans-32"/>
      <use x="663.933594" xlink:href="#DejaVuSans-91"/>
      <use x="702.947266" xlink:href="#DejaVuSans-109"/>
      <use x="800.359375" xlink:href="#DejaVuSans-109"/>
      <use x="897.771484" xlink:href="#DejaVuSans-47"/>
      <use x="931.462891" xlink:href="#DejaVuSans-104"/>
      <use x="994.841797" xlink:href="#DejaVuSans-111"/>
      <use x="1056.023438" xlink:href="#DejaVuSans-117"/>
      <use x="1119.402344" xlink:href="#DejaVuSans-114"/>
      <use x="1160.515625" xlink:href="#DejaVuSans-93"/>
     </g>
    </g>
   </g>
   <g id="line2d_12">
    <path clip-path="url(#padb7eb967c)" d="M 51.99517 165.00584 
L 67.433906 164.180834 
L 82.872641 162.316634 
L 98.311376 159.479278 
L 113.750111 161.389459 
L 129.188846 164.328698 
L 144.627582 164.935131 
L 160.066317 165.767471 
L 175.505052 164.370876 
L 190.943787 158.338556 
L 206.382522 161.044502 
L 221.821257 162.00021 
L 237.259993 148.538979 
L 252.698728 124.176183 
L 268.137463 160.710137 
L 283.576198 142.671034 
L 299.014933 162.337022 
L 314.453668 165.105421 
L 329.892404 165.242148 
L 345.331139 156.601552 
L 360.769874 151.998681 
L 376.208609 161.57107 
L 391.647344 164.735723 
L 407.08608 165.516581 
" style="fill:none;stroke:#1b9e77;stroke-linecap:square;stroke-opacity:0.5;stroke-width:1.5;"/>
   </g>
   <g id="line2d_13">
    <path clip-path="url(#padb7eb967c)" d="M 51.99517 165.621352 
L 67.433906 165.594848 
L 82.872641 165.46822 
L 98.311376 165.480451 
L 113.750111 165.428992 
L 129.188846 165.70096 
L 144.627582 165.861359 
L 160.066317 165.891153 
L 175.505052 165.862058 
L 190.943787 165.872359 
L 206.382522 165.906823 
L 221.821257 165.932293 
L 237.259993 165.938257 
L 252.698728 165.943414 
L 268.137463 165.937484 
L 283.576198 165.919654 
L 299.014933 162.774887 
L 314.453668 145.819523 
L 329.892404 110.09665 
L 345.331139 123.947638 
L 360.769874 151.432479 
L 376.208609 160.003875 
L 391.647344 163.271294 
L 407.08608 152.655996 
" style="fill:none;stroke:#1b9e77;stroke-linecap:square;stroke-opacity:0.5;stroke-width:1.5;"/>
   </g>
   <g id="line2d_14">
    <path clip-path="url(#padb7eb967c)" d="M 51.99517 165.835083 
L 67.433906 164.795777 
L 82.872641 160.71289 
L 98.311376 145.076558 
L 113.750111 157.452912 
L 129.188846 158.958067 
L 144.627582 158.997263 
L 160.066317 155.010356 
L 175.505052 155.975864 
L 190.943787 159.011503 
L 206.382522 159.349566 
L 221.821257 153.864478 
L 237.259993 132.201744 
L 252.698728 150.147867 
L 268.137463 156.536229 
L 283.576198 161.684901 
L 299.014933 165.675562 
L 314.453668 165.659137 
L 329.892404 165.808903 
L 345.331139 165.878752 
L 360.769874 165.899694 
L 376.208609 165.931093 
L 391.647344 165.940709 
L 407.08608 165.957121 
" style="fill:none;stroke:#1b9e77;stroke-linecap:square;stroke-opacity:0.5;stroke-width:1.5;"/>
   </g>
   <g id="line2d_15">
    <path clip-path="url(#padb7eb967c)" d="M 51.99517 159.055166 
L 67.433906 161.391236 
L 82.872641 163.539522 
L 98.311376 165.589042 
L 113.750111 165.839107 
L 129.188846 165.87998 
L 144.627582 165.839025 
L 160.066317 165.720591 
L 175.505052 165.349918 
L 190.943787 165.285958 
L 206.382522 165.06337 
L 221.821257 164.978081 
L 237.259993 164.758309 
L 252.698728 163.63477 
L 268.137463 164.266846 
L 283.576198 164.894558 
L 299.014933 165.123934 
L 314.453668 164.892999 
L 329.892404 164.64568 
L 345.331139 165.237761 
L 360.769874 165.500767 
L 376.208609 165.794962 
L 391.647344 163.786553 
L 407.08608 36.293883 
" style="fill:none;stroke:#1b9e77;stroke-linecap:square;stroke-opacity:0.5;stroke-width:1.5;"/>
   </g>
   <g id="line2d_16">
    <path clip-path="url(#padb7eb967c)" d="M 51.99517 130.397275 
L 67.433906 119.941981 
L 82.872641 134.765193 
L 98.311376 155.758353 
L 113.750111 161.692726 
L 129.188846 162.59375 
L 144.627582 162.155886 
L 160.066317 164.1654 
L 175.505052 165.364961 
L 190.943787 165.720078 
L 206.382522 165.72285 
L 221.821257 165.459438 
L 237.259993 164.922661 
L 252.698728 165.153909 
L 268.137463 165.443662 
L 283.576198 165.202855 
L 299.014933 164.811814 
L 314.453668 162.152107 
L 329.892404 160.760597 
L 345.331139 163.306389 
L 360.769874 164.730026 
L 376.208609 165.702109 
L 391.647344 165.789302 
L 407.08608 160.648703 
" style="fill:none;stroke:#1b9e77;stroke-linecap:square;stroke-opacity:0.5;stroke-width:1.5;"/>
   </g>
   <g id="line2d_17">
    <path clip-path="url(#padb7eb967c)" d="M 51.99517 165.941512 
L 67.433906 165.923618 
L 82.872641 165.931655 
L 98.311376 165.94388 
L 113.750111 165.944357 
L 129.188846 165.955303 
L 144.627582 165.951195 
L 160.066317 165.593176 
L 175.505052 164.443927 
L 190.943787 164.971925 
L 206.382522 153.662089 
L 221.821257 156.6903 
L 237.259993 161.200295 
L 252.698728 155.306595 
L 268.137463 138.11817 
L 283.576198 129.415363 
L 299.014933 140.931346 
L 314.453668 162.919042 
L 329.892404 163.914276 
L 345.331139 160.80291 
L 360.769874 147.901158 
L 376.208609 164.318457 
L 391.647344 165.643194 
L 407.08608 164.93828 
" style="fill:none;stroke:#1b9e77;stroke-linecap:square;stroke-opacity:0.5;stroke-width:1.5;"/>
   </g>
   <g id="line2d_18">
    <path clip-path="url(#padb7eb967c)" d="M 51.99517 165.705557 
L 67.433906 165.586442 
L 82.872641 165.157424 
L 98.311376 165.116458 
L 113.750111 156.644321 
L 129.188846 164.692752 
L 144.627582 165.563501 
L 160.066317 162.132499 
L 175.505052 55.992684 
L 190.943787 153.930058 
L 206.382522 165.476527 
L 221.821257 165.623742 
L 237.259993 163.762188 
L 252.698728 152.126479 
L 268.137463 162.954208 
L 283.576198 164.748426 
L 299.014933 165.660952 
L 314.453668 165.858815 
L 329.892404 165.904764 
L 345.331139 165.930659 
L 360.769874 165.940987 
L 376.208609 165.956593 
L 391.647344 165.958217 
L 407.08608 165.937776 
" style="fill:none;stroke:#1b9e77;stroke-linecap:square;stroke-opacity:0.5;stroke-width:1.5;"/>
   </g>
   <g id="line2d_19">
    <path clip-path="url(#padb7eb967c)" d="M 51.99517 163.055862 
L 67.433906 165.038297 
L 82.872641 165.648364 
L 98.311376 164.490321 
L 113.750111 163.823821 
L 129.188846 164.817626 
L 144.627582 158.654616 
L 160.066317 71.411233 
L 175.505052 144.931998 
L 190.943787 159.421715 
L 206.382522 158.720697 
L 221.821257 162.582728 
L 237.259993 164.727876 
L 252.698728 165.363195 
L 268.137463 165.497521 
L 283.576198 165.219219 
L 299.014933 165.064274 
L 314.453668 165.441818 
L 329.892404 165.658811 
L 345.331139 165.369936 
L 360.769874 164.291986 
L 376.208609 164.407508 
L 391.647344 165.166588 
L 407.08608 163.556006 
" style="fill:none;stroke:#1b9e77;stroke-linecap:square;stroke-opacity:0.5;stroke-width:1.5;"/>
   </g>
   <g id="line2d_20">
    <path clip-path="url(#padb7eb967c)" d="M 51.99517 156.696831 
L 67.433906 129.830406 
L 82.872641 147.723079 
L 98.311376 155.493238 
L 113.750111 157.412696 
L 129.188846 160.84323 
L 144.627582 162.515298 
L 160.066317 164.178486 
L 175.505052 160.506147 
L 190.943787 152.838252 
L 206.382522 142.807138 
L 221.821257 142.684961 
L 237.259993 165.128469 
L 252.698728 165.393186 
L 268.137463 165.614058 
L 283.576198 165.74011 
L 299.014933 165.754475 
L 314.453668 165.793318 
L 329.892404 165.82787 
L 345.331139 165.889071 
L 360.769874 165.919203 
L 376.208609 165.950722 
L 391.647344 165.955336 
L 407.08608 165.86644 
" style="fill:none;stroke:#1b9e77;stroke-linecap:square;stroke-opacity:0.5;stroke-width:1.5;"/>
   </g>
   <g id="line2d_21">
    <path clip-path="url(#padb7eb967c)" d="M 51.99517 132.997273 
L 67.433906 150.713061 
L 82.872641 141.067634 
L 98.311376 162.519544 
L 113.750111 158.009052 
L 129.188846 163.13021 
L 144.627582 165.26746 
L 160.066317 165.46265 
L 175.505052 165.681414 
L 190.943787 165.834379 
L 206.382522 165.924747 
L 221.821257 165.807952 
L 237.259993 159.863675 
L 252.698728 129.66128 
L 268.137463 163.150629 
L 283.576198 158.327786 
L 299.014933 157.284062 
L 314.453668 160.090994 
L 329.892404 163.693025 
L 345.331139 165.133765 
L 360.769874 165.443254 
L 376.208609 165.879279 
L 391.647344 165.944763 
L 407.08608 165.474134 
" style="fill:none;stroke:#1b9e77;stroke-linecap:square;stroke-opacity:0.5;stroke-width:1.5;"/>
   </g>
   <g id="line2d_22">
    <path clip-path="url(#padb7eb967c)" d="M 51.99517 165.759671 
L 67.433906 165.556867 
L 82.872641 165.673237 
L 98.311376 165.839088 
L 113.750111 165.894849 
L 129.188846 165.933726 
L 144.627582 165.945772 
L 160.066317 165.954675 
L 175.505052 165.953347 
L 190.943787 165.949985 
L 206.382522 165.92216 
L 221.821257 165.066123 
L 237.259993 134.210509 
L 252.698728 123.223227 
L 268.137463 125.122933 
L 283.576198 141.515856 
L 299.014933 158.256215 
L 314.453668 163.556484 
L 329.892404 165.739235 
L 345.331139 165.906491 
L 360.769874 165.719449 
L 376.208609 165.05701 
L 391.647344 159.5892 
L 407.08608 165.015911 
" style="fill:none;stroke:#1b9e77;stroke-linecap:square;stroke-opacity:0.5;stroke-width:1.5;"/>
   </g>
   <g id="line2d_23">
    <path clip-path="url(#padb7eb967c)" d="M 51.99517 165.600072 
L 67.433906 164.67021 
L 82.872641 164.980024 
L 98.311376 165.401254 
L 113.750111 160.967741 
L 129.188846 133.616042 
L 144.627582 152.673792 
L 160.066317 135.816906 
L 175.505052 129.393971 
L 190.943787 141.538283 
L 206.382522 156.180494 
L 221.821257 164.171434 
L 237.259993 165.192701 
L 252.698728 165.333861 
L 268.137463 165.312712 
L 283.576198 164.112149 
L 299.014933 165.863324 
L 314.453668 165.885314 
L 329.892404 165.926421 
L 345.331139 165.930353 
L 360.769874 165.948505 
L 376.208609 165.951773 
L 391.647344 165.940845 
L 407.08608 165.953843 
" style="fill:none;stroke:#1b9e77;stroke-linecap:square;stroke-opacity:0.5;stroke-width:1.5;"/>
   </g>
   <g id="line2d_24">
    <path clip-path="url(#padb7eb967c)" d="M 51.99517 165.537554 
L 67.433906 162.773249 
L 82.872641 162.385621 
L 98.311376 159.964114 
L 113.750111 159.345834 
L 129.188846 164.87372 
L 144.627582 165.320774 
L 160.066317 165.190437 
L 175.505052 162.847258 
L 190.943787 154.76355 
L 206.382522 148.933719 
L 221.821257 164.268079 
L 237.259993 164.535656 
L 252.698728 125.543866 
L 268.137463 145.033274 
L 283.576198 134.526013 
L 299.014933 155.774557 
L 314.453668 165.570927 
L 329.892404 165.762098 
L 345.331139 165.824542 
L 360.769874 165.900971 
L 376.208609 165.944324 
L 391.647344 165.942966 
L 407.08608 165.798915 
" style="fill:none;stroke:#1b9e77;stroke-linecap:square;stroke-opacity:0.5;stroke-width:1.5;"/>
   </g>
   <g id="line2d_25">
    <path clip-path="url(#padb7eb967c)" d="M 51.99517 154.850907 
L 67.433906 164.467773 
L 82.872641 165.516156 
L 98.311376 165.626889 
L 113.750111 128.989886 
L 129.188846 131.242228 
L 144.627582 109.670257 
L 160.066317 165.735464 
L 175.505052 165.932537 
L 190.943787 165.787942 
L 206.382522 164.532691 
L 221.821257 165.237137 
L 237.259993 162.424642 
L 252.698728 164.466467 
L 268.137463 161.422336 
L 283.576198 165.246893 
L 299.014933 165.35589 
L 314.453668 161.72487 
L 329.892404 165.39988 
L 345.331139 165.767503 
L 360.769874 165.804526 
L 376.208609 165.920737 
L 391.647344 165.885095 
L 407.08608 165.353323 
" style="fill:none;stroke:#1b9e77;stroke-linecap:square;stroke-opacity:0.5;stroke-width:1.5;"/>
   </g>
   <g id="line2d_26">
    <path clip-path="url(#padb7eb967c)" d="M 51.99517 163.186251 
L 67.433906 157.824329 
L 82.872641 152.651393 
L 98.311376 148.298126 
L 113.750111 149.936388 
L 129.188846 142.585417 
L 144.627582 153.206723 
L 160.066317 164.807146 
L 175.505052 164.822196 
L 190.943787 152.192311 
L 206.382522 138.778529 
L 221.821257 146.323582 
L 237.259993 165.213803 
L 252.698728 165.718072 
L 268.137463 165.719158 
L 283.576198 163.86755 
L 299.014933 165.679929 
L 314.453668 165.91408 
L 329.892404 165.919606 
L 345.331139 165.942801 
L 360.769874 165.950623 
L 376.208609 165.956359 
L 391.647344 165.953458 
L 407.08608 165.914189 
" style="fill:none;stroke:#1b9e77;stroke-linecap:square;stroke-opacity:0.5;stroke-width:1.5;"/>
   </g>
   <g id="line2d_27">
    <path clip-path="url(#padb7eb967c)" d="M 51.99517 122.324295 
L 67.433906 77.42326 
L 82.872641 149.526067 
L 98.311376 162.340142 
L 113.750111 164.370656 
L 129.188846 164.147535 
L 144.627582 165.090554 
L 160.066317 165.50376 
L 175.505052 165.560667 
L 190.943787 165.742435 
L 206.382522 165.846295 
L 221.821257 165.903406 
L 237.259993 165.849461 
L 252.698728 165.477952 
L 268.137463 165.769179 
L 283.576198 165.599034 
L 299.014933 165.793067 
L 314.453668 165.895016 
L 329.892404 165.899502 
L 345.331139 165.883797 
L 360.769874 165.835651 
L 376.208609 165.806526 
L 391.647344 165.595589 
L 407.08608 165.178174 
" style="fill:none;stroke:#1b9e77;stroke-linecap:square;stroke-opacity:0.5;stroke-width:1.5;"/>
   </g>
   <g id="line2d_28">
    <path clip-path="url(#padb7eb967c)" d="M 51.99517 165.683576 
L 67.433906 165.639096 
L 82.872641 165.632428 
L 98.311376 165.830475 
L 113.750111 165.90293 
L 129.188846 165.906827 
L 144.627582 165.903821 
L 160.066317 165.885501 
L 175.505052 165.850754 
L 190.943787 165.873219 
L 206.382522 165.908248 
L 221.821257 165.830874 
L 237.259993 165.851544 
L 252.698728 165.810234 
L 268.137463 165.408302 
L 283.576198 114.257211 
L 299.014933 148.596355 
L 314.453668 139.331306 
L 329.892404 129.973969 
L 345.331139 151.324743 
L 360.769874 161.760303 
L 376.208609 164.909804 
L 391.647344 165.923451 
L 407.08608 159.367051 
" style="fill:none;stroke:#1b9e77;stroke-linecap:square;stroke-opacity:0.5;stroke-width:1.5;"/>
   </g>
   <g id="line2d_29">
    <path clip-path="url(#padb7eb967c)" d="M 51.99517 165.873057 
L 67.433906 165.766551 
L 82.872641 165.776974 
L 98.311376 165.855469 
L 113.750111 165.610476 
L 129.188846 165.091744 
L 144.627582 161.301773 
L 160.066317 152.883089 
L 175.505052 144.126287 
L 190.943787 150.784697 
L 206.382522 154.925945 
L 221.821257 151.394315 
L 237.259993 153.947691 
L 252.698728 163.404431 
L 268.137463 165.355232 
L 283.576198 165.652965 
L 299.014933 165.295175 
L 314.453668 163.775315 
L 329.892404 164.403455 
L 345.331139 165.019291 
L 360.769874 162.235976 
L 376.208609 149.690029 
L 391.647344 135.542853 
L 407.08608 158.649233 
" style="fill:none;stroke:#1b9e77;stroke-linecap:square;stroke-opacity:0.5;stroke-width:1.5;"/>
   </g>
   <g id="line2d_30">
    <path clip-path="url(#padb7eb967c)" d="M 51.99517 165.872487 
L 67.433906 165.567797 
L 82.872641 163.166363 
L 98.311376 79.186036 
L 113.750111 139.263278 
L 129.188846 165.712431 
L 144.627582 165.817448 
L 160.066317 165.846651 
L 175.505052 165.848466 
L 190.943787 165.860465 
L 206.382522 165.866916 
L 221.821257 165.901405 
L 237.259993 165.903739 
L 252.698728 165.942178 
L 268.137463 165.077251 
L 283.576198 157.517956 
L 299.014933 161.568441 
L 314.453668 158.003972 
L 329.892404 160.488585 
L 345.331139 163.591344 
L 360.769874 162.569785 
L 376.208609 162.163315 
L 391.647344 160.670937 
L 407.08608 164.954785 
" style="fill:none;stroke:#1b9e77;stroke-linecap:square;stroke-opacity:0.5;stroke-width:1.5;"/>
   </g>
   <g id="line2d_31">
    <path clip-path="url(#padb7eb967c)" d="M 51.99517 163.688496 
L 67.433906 162.704054 
L 82.872641 163.407432 
L 98.311376 164.791938 
L 113.750111 165.234632 
L 129.188846 165.621502 
L 144.627582 165.796257 
L 160.066317 165.881952 
L 175.505052 165.907976 
L 190.943787 165.922633 
L 206.382522 165.922344 
L 221.821257 165.944391 
L 237.259993 165.940963 
L 252.698728 165.826044 
L 268.137463 165.508343 
L 283.576198 165.33887 
L 299.014933 163.914213 
L 314.453668 144.051518 
L 329.892404 89.840531 
L 345.331139 123.87801 
L 360.769874 163.763253 
L 376.208609 163.478003 
L 391.647344 164.28047 
L 407.08608 165.718186 
" style="fill:none;stroke:#1b9e77;stroke-linecap:square;stroke-opacity:0.5;stroke-width:1.5;"/>
   </g>
   <g id="line2d_32">
    <path clip-path="url(#padb7eb967c)" d="M 51.99517 165.227158 
L 67.433906 165.422813 
L 82.872641 132.319343 
L 98.311376 157.62848 
L 113.750111 157.122441 
L 129.188846 139.851409 
L 144.627582 158.855764 
L 160.066317 162.754615 
L 175.505052 163.514832 
L 190.943787 164.671802 
L 206.382522 165.366053 
L 221.821257 165.69397 
L 237.259993 165.758883 
L 252.698728 165.914252 
L 268.137463 165.946165 
L 283.576198 165.922128 
L 299.014933 165.832183 
L 314.453668 165.939902 
L 329.892404 165.927762 
L 345.331139 165.338181 
L 360.769874 157.482376 
L 376.208609 141.747971 
L 391.647344 140.198831 
L 407.08608 157.924709 
" style="fill:none;stroke:#1b9e77;stroke-linecap:square;stroke-opacity:0.5;stroke-width:1.5;"/>
   </g>
   <g id="line2d_33">
    <path clip-path="url(#padb7eb967c)" d="M 51.99517 165.864588 
L 67.433906 165.736399 
L 82.872641 165.783643 
L 98.311376 165.838143 
L 113.750111 165.858043 
L 129.188846 165.885851 
L 144.627582 165.902287 
L 160.066317 165.928175 
L 175.505052 165.936871 
L 190.943787 165.944809 
L 206.382522 165.945645 
L 221.821257 165.947217 
L 237.259993 165.940119 
L 252.698728 165.900143 
L 268.137463 162.251071 
L 283.576198 148.71642 
L 299.014933 147.503512 
L 314.453668 146.925193 
L 329.892404 132.484523 
L 345.331139 144.074054 
L 360.769874 148.677746 
L 376.208609 144.029407 
L 391.647344 160.238424 
L 407.08608 165.049739 
" style="fill:none;stroke:#1b9e77;stroke-linecap:square;stroke-opacity:0.5;stroke-width:1.5;"/>
   </g>
   <g id="line2d_34">
    <path clip-path="url(#padb7eb967c)" d="M 51.99517 165.891836 
L 67.433906 165.815091 
L 82.872641 165.855071 
L 98.311376 165.905795 
L 113.750111 165.925013 
L 129.188846 165.940924 
L 144.627582 165.946087 
L 160.066317 165.955012 
L 175.505052 165.954905 
L 190.943787 165.937625 
L 206.382522 165.935932 
L 221.821257 165.938588 
L 237.259993 164.493903 
L 252.698728 153.920338 
L 268.137463 154.855627 
L 283.576198 150.064005 
L 299.014933 146.829064 
L 314.453668 146.83206 
L 329.892404 134.162532 
L 345.331139 121.991178 
L 360.769874 162.550038 
L 376.208609 164.776498 
L 391.647344 165.052002 
L 407.08608 165.832897 
" style="fill:none;stroke:#1b9e77;stroke-linecap:square;stroke-opacity:0.5;stroke-width:1.5;"/>
   </g>
   <g id="line2d_35">
    <path clip-path="url(#padb7eb967c)" d="M 51.99517 165.937605 
L 67.433906 165.923791 
L 82.872641 165.931494 
L 98.311376 165.941458 
L 113.750111 165.935935 
L 129.188846 165.931389 
L 144.627582 164.593893 
L 160.066317 148.261241 
L 175.505052 150.181261 
L 190.943787 146.277646 
L 206.382522 147.173989 
L 221.821257 146.974801 
L 237.259993 118.784046 
L 252.698728 148.854575 
L 268.137463 165.005592 
L 283.576198 165.020838 
L 299.014933 165.180545 
L 314.453668 165.372357 
L 329.892404 165.657322 
L 345.331139 165.789699 
L 360.769874 165.829798 
L 376.208609 165.909883 
L 391.647344 165.939541 
L 407.08608 165.953324 
" style="fill:none;stroke:#1b9e77;stroke-linecap:square;stroke-opacity:0.5;stroke-width:1.5;"/>
   </g>
   <g id="line2d_36">
    <path clip-path="url(#padb7eb967c)" d="M 51.99517 165.908606 
L 67.433906 165.812591 
L 82.872641 165.855431 
L 98.311376 165.933869 
L 113.750111 165.944058 
L 129.188846 165.950854 
L 144.627582 165.934111 
L 160.066317 165.899877 
L 175.505052 164.812784 
L 190.943787 145.1901 
L 206.382522 148.742276 
L 221.821257 149.426296 
L 237.259993 138.877548 
L 252.698728 127.293077 
L 268.137463 153.522451 
L 283.576198 164.77482 
L 299.014933 165.576383 
L 314.453668 164.384464 
L 329.892404 165.379553 
L 345.331139 165.538922 
L 360.769874 165.238341 
L 376.208609 154.246023 
L 391.647344 157.780433 
L 407.08608 164.33915 
" style="fill:none;stroke:#1b9e77;stroke-linecap:square;stroke-opacity:0.5;stroke-width:1.5;"/>
   </g>
   <g id="line2d_37">
    <path clip-path="url(#padb7eb967c)" d="M 51.99517 165.769384 
L 67.433906 162.03899 
L 82.872641 163.821143 
L 98.311376 156.254447 
L 113.750111 163.895112 
L 129.188846 165.256678 
L 144.627582 165.750101 
L 160.066317 160.888431 
L 175.505052 164.224163 
L 190.943787 165.876378 
L 206.382522 165.761645 
L 221.821257 165.352553 
L 237.259993 163.097687 
L 252.698728 164.690399 
L 268.137463 161.493546 
L 283.576198 135.851374 
L 299.014933 75.692641 
L 314.453668 165.373162 
L 329.892404 165.913547 
L 345.331139 165.649709 
L 360.769874 162.896431 
L 376.208609 165.621257 
L 391.647344 165.482373 
L 407.08608 165.710871 
" style="fill:none;stroke:#1b9e77;stroke-linecap:square;stroke-opacity:0.5;stroke-width:1.5;"/>
   </g>
   <g id="line2d_38">
    <path clip-path="url(#padb7eb967c)" d="M 51.99517 122.152713 
L 67.433906 120.786586 
L 82.872641 133.137949 
L 98.311376 154.079077 
L 113.750111 159.614568 
L 129.188846 163.307213 
L 144.627582 164.471385 
L 160.066317 165.100999 
L 175.505052 165.299095 
L 190.943787 165.451518 
L 206.382522 165.440181 
L 221.821257 165.392402 
L 237.259993 165.32554 
L 252.698728 165.504038 
L 268.137463 165.614824 
L 283.576198 165.498993 
L 299.014933 165.199427 
L 314.453668 165.21865 
L 329.892404 165.357913 
L 345.331139 165.148855 
L 360.769874 164.810486 
L 376.208609 163.813625 
L 391.647344 162.610458 
L 407.08608 164.025525 
" style="fill:none;stroke:#1b9e77;stroke-linecap:square;stroke-opacity:0.5;stroke-width:1.5;"/>
   </g>
   <g id="line2d_39">
    <path clip-path="url(#padb7eb967c)" d="M 51.99517 165.46434 
L 67.433906 165.30188 
L 82.872641 163.20593 
L 98.311376 160.893498 
L 113.750111 145.715627 
L 129.188846 154.049302 
L 144.627582 162.685803 
L 160.066317 158.791748 
L 175.505052 129.006378 
L 190.943787 111.776268 
L 206.382522 157.818295 
L 221.821257 164.023137 
L 237.259993 160.27142 
L 252.698728 164.986721 
L 268.137463 164.902814 
L 283.576198 165.865924 
L 299.014933 165.955323 
L 314.453668 165.956923 
L 329.892404 165.954782 
L 345.331139 165.955196 
L 360.769874 165.939513 
L 376.208609 165.955992 
L 391.647344 165.939656 
L 407.08608 165.94555 
" style="fill:none;stroke:#1b9e77;stroke-linecap:square;stroke-opacity:0.5;stroke-width:1.5;"/>
   </g>
   <g id="line2d_40">
    <path clip-path="url(#padb7eb967c)" d="M 51.99517 165.162119 
L 67.433906 165.212703 
L 82.872641 157.363539 
L 98.311376 162.878406 
L 113.750111 154.846652 
L 129.188846 146.170847 
L 144.627582 160.05527 
L 160.066317 158.463324 
L 175.505052 140.811208 
L 190.943787 164.089466 
L 206.382522 150.289705 
L 221.821257 156.391017 
L 237.259993 160.529937 
L 252.698728 153.634779 
L 268.137463 159.399723 
L 283.576198 162.943537 
L 299.014933 151.167696 
L 314.453668 161.913767 
L 329.892404 165.017124 
L 345.331139 165.854855 
L 360.769874 165.870369 
L 376.208609 165.203433 
L 391.647344 163.868356 
L 407.08608 165.224191 
" style="fill:none;stroke:#1b9e77;stroke-linecap:square;stroke-opacity:0.5;stroke-width:1.5;"/>
   </g>
   <g id="line2d_41">
    <path clip-path="url(#padb7eb967c)" d="M 51.99517 163.293837 
L 67.433906 160.839984 
L 82.872641 154.283804 
L 98.311376 163.578699 
L 113.750111 163.679022 
L 129.188846 160.654911 
L 144.627582 164.019714 
L 160.066317 165.312521 
L 175.505052 165.301999 
L 190.943787 165.536414 
L 206.382522 165.757607 
L 221.821257 165.901242 
L 237.259993 165.928923 
L 252.698728 165.950874 
L 268.137463 165.631995 
L 283.576198 150.474379 
L 299.014933 138.966168 
L 314.453668 139.320599 
L 329.892404 153.603319 
L 345.331139 158.667403 
L 360.769874 159.684013 
L 376.208609 159.207208 
L 391.647344 156.213247 
L 407.08608 150.554142 
" style="fill:none;stroke:#1b9e77;stroke-linecap:square;stroke-opacity:0.5;stroke-width:1.5;"/>
   </g>
   <g id="line2d_42">
    <path clip-path="url(#padb7eb967c)" d="M 51.99517 165.891215 
L 67.433906 165.797806 
L 82.872641 165.82135 
L 98.311376 165.884501 
L 113.750111 165.386515 
L 129.188846 164.770757 
L 144.627582 150.300064 
L 160.066317 141.985416 
L 175.505052 155.598766 
L 190.943787 162.204348 
L 206.382522 162.710648 
L 221.821257 149.941121 
L 237.259993 137.534287 
L 252.698728 164.360183 
L 268.137463 165.133423 
L 283.576198 165.306556 
L 299.014933 165.139275 
L 314.453668 151.779665 
L 329.892404 155.387972 
L 345.331139 164.935955 
L 360.769874 159.746236 
L 376.208609 153.977949 
L 391.647344 157.739855 
L 407.08608 165.028159 
" style="fill:none;stroke:#1b9e77;stroke-linecap:square;stroke-opacity:0.5;stroke-width:1.5;"/>
   </g>
   <g id="line2d_43">
    <path clip-path="url(#padb7eb967c)" d="M 51.99517 165.897703 
L 67.433906 165.572481 
L 82.872641 161.747795 
L 98.311376 14.76 
L 113.750111 161.950244 
L 129.188846 165.813439 
L 144.627582 165.827228 
L 160.066317 165.87936 
L 175.505052 165.894255 
L 190.943787 165.875972 
L 206.382522 165.889315 
L 221.821257 165.922559 
L 237.259993 165.943284 
L 252.698728 165.941118 
L 268.137463 165.92717 
L 283.576198 165.946403 
L 299.014933 165.94514 
L 314.453668 165.94077 
L 329.892404 165.949406 
L 345.331139 165.948893 
L 360.769874 165.941966 
L 376.208609 165.943798 
L 391.647344 165.95001 
L 407.08608 165.953714 
" style="fill:none;stroke:#1b9e77;stroke-linecap:square;stroke-opacity:0.5;stroke-width:1.5;"/>
   </g>
   <g id="line2d_44">
    <path clip-path="url(#padb7eb967c)" d="M 51.99517 120.070558 
L 67.433906 132.78372 
L 82.872641 144.335908 
L 98.311376 160.793047 
L 113.750111 164.033595 
L 129.188846 165.356701 
L 144.627582 165.543497 
L 160.066317 165.612275 
L 175.505052 165.589505 
L 190.943787 165.528828 
L 206.382522 165.34774 
L 221.821257 165.066478 
L 237.259993 165.052139 
L 252.698728 164.673037 
L 268.137463 164.635028 
L 283.576198 164.04547 
L 299.014933 162.900526 
L 314.453668 162.041628 
L 329.892404 162.475679 
L 345.331139 162.776423 
L 360.769874 162.027322 
L 376.208609 164.217736 
L 391.647344 165.168674 
L 407.08608 142.286513 
" style="fill:none;stroke:#1b9e77;stroke-linecap:square;stroke-opacity:0.5;stroke-width:1.5;"/>
   </g>
   <g id="line2d_45">
    <path clip-path="url(#padb7eb967c)" d="M 51.99517 155.663182 
L 67.433906 160.32519 
L 82.872641 164.76505 
L 98.311376 165.308364 
L 113.750111 154.205161 
L 129.188846 131.266754 
L 144.627582 102.431285 
L 160.066317 165.354119 
L 175.505052 165.939077 
L 190.943787 165.615698 
L 206.382522 160.268202 
L 221.821257 163.711168 
L 237.259993 148.633734 
L 252.698728 160.195885 
L 268.137463 165.467431 
L 283.576198 165.876591 
L 299.014933 165.829635 
L 314.453668 165.884764 
L 329.892404 165.933822 
L 345.331139 165.942768 
L 360.769874 165.938972 
L 376.208609 165.950558 
L 391.647344 165.957006 
L 407.08608 165.897608 
" style="fill:none;stroke:#1b9e77;stroke-linecap:square;stroke-opacity:0.5;stroke-width:1.5;"/>
   </g>
   <g id="line2d_46">
    <path clip-path="url(#padb7eb967c)" d="M 51.99517 149.908749 
L 67.433906 140.459138 
L 82.872641 145.731342 
L 98.311376 156.436113 
L 113.750111 159.570722 
L 129.188846 162.563143 
L 144.627582 163.234406 
L 160.066317 164.494898 
L 175.505052 160.688919 
L 190.943787 155.996627 
L 206.382522 164.623992 
L 221.821257 164.747474 
L 237.259993 164.051878 
L 252.698728 161.703451 
L 268.137463 147.448298 
L 283.576198 156.533526 
L 299.014933 158.883188 
L 314.453668 159.678135 
L 329.892404 163.083142 
L 345.331139 164.439827 
L 360.769874 164.893823 
L 376.208609 164.958951 
L 391.647344 164.50323 
L 407.08608 163.729047 
" style="fill:none;stroke:#1b9e77;stroke-linecap:square;stroke-opacity:0.5;stroke-width:1.5;"/>
   </g>
   <g id="line2d_47">
    <path clip-path="url(#padb7eb967c)" d="M 51.99517 165.828025 
L 67.433906 165.788087 
L 82.872641 165.553275 
L 98.311376 165.255136 
L 113.750111 162.456414 
L 129.188846 159.773626 
L 144.627582 156.913761 
L 160.066317 159.888248 
L 175.505052 163.710015 
L 190.943787 153.586936 
L 206.382522 126.424741 
L 221.821257 104.227828 
L 237.259993 151.942987 
L 252.698728 165.830278 
L 268.137463 165.683298 
L 283.576198 165.791981 
L 299.014933 165.596519 
L 314.453668 165.903444 
L 329.892404 165.924442 
L 345.331139 165.9199 
L 360.769874 165.921747 
L 376.208609 165.75737 
L 391.647344 163.921728 
L 407.08608 164.762232 
" style="fill:none;stroke:#1b9e77;stroke-linecap:square;stroke-opacity:0.5;stroke-width:1.5;"/>
   </g>
   <g id="line2d_48">
    <path clip-path="url(#padb7eb967c)" d="M 51.99517 165.890958 
L 67.433906 165.865972 
L 82.872641 165.926952 
L 98.311376 165.945174 
L 113.750111 165.950391 
L 129.188846 165.949503 
L 144.627582 165.945957 
L 160.066317 165.947317 
L 175.505052 165.948166 
L 190.943787 165.946109 
L 206.382522 165.943236 
L 221.821257 165.946961 
L 237.259993 165.951134 
L 252.698728 165.953369 
L 268.137463 165.947522 
L 283.576198 165.886626 
L 299.014933 163.107701 
L 314.453668 145.321649 
L 329.892404 143.401558 
L 345.331139 140.154482 
L 360.769874 127.295316 
L 376.208609 136.641216 
L 391.647344 149.69957 
L 407.08608 161.795178 
" style="fill:none;stroke:#1b9e77;stroke-linecap:square;stroke-opacity:0.5;stroke-width:1.5;"/>
   </g>
   <g id="line2d_49">
    <path clip-path="url(#padb7eb967c)" d="M 51.99517 165.86798 
L 67.433906 165.495065 
L 82.872641 165.522952 
L 98.311376 165.671787 
L 113.750111 165.815319 
L 129.188846 165.884964 
L 144.627582 165.916359 
L 160.066317 165.93732 
L 175.505052 165.941304 
L 190.943787 165.944773 
L 206.382522 165.946947 
L 221.821257 165.95425 
L 237.259993 165.957408 
L 252.698728 165.958811 
L 268.137463 165.955969 
L 283.576198 165.897009 
L 299.014933 164.435881 
L 314.453668 163.07221 
L 329.892404 162.651726 
L 345.331139 150.927337 
L 360.769874 116.593811 
L 376.208609 120.993282 
L 391.647344 136.037753 
L 407.08608 153.981803 
" style="fill:none;stroke:#1b9e77;stroke-linecap:square;stroke-opacity:0.5;stroke-width:1.5;"/>
   </g>
   <g id="line2d_50">
    <path clip-path="url(#padb7eb967c)" d="M 51.99517 165.894104 
L 67.433906 162.532998 
L 82.872641 148.904634 
L 98.311376 132.098933 
L 113.750111 140.254332 
L 129.188846 156.20433 
L 144.627582 161.501978 
L 160.066317 163.129758 
L 175.505052 165.765013 
L 190.943787 165.83804 
L 206.382522 165.894077 
L 221.821257 165.946673 
L 237.259993 165.956461 
L 252.698728 165.947054 
L 268.137463 165.951818 
L 283.576198 165.939424 
L 299.014933 164.348725 
L 314.453668 154.829306 
L 329.892404 147.684943 
L 345.331139 160.756968 
L 360.769874 162.389366 
L 376.208609 162.37186 
L 391.647344 149.19829 
L 407.08608 163.022936 
" style="fill:none;stroke:#1b9e77;stroke-linecap:square;stroke-opacity:0.5;stroke-width:1.5;"/>
   </g>
   <g id="line2d_51">
    <path clip-path="url(#padb7eb967c)" d="M 51.99517 137.513896 
L 67.433906 121.244115 
L 82.872641 127.153439 
L 98.311376 149.1234 
L 113.750111 155.781105 
L 129.188846 160.948536 
L 144.627582 162.877689 
L 160.066317 164.269581 
L 175.505052 164.78922 
L 190.943787 165.129737 
L 206.382522 165.31147 
L 221.821257 165.551559 
L 237.259993 165.709652 
L 252.698728 165.764252 
L 268.137463 165.758044 
L 283.576198 165.658861 
L 299.014933 165.520011 
L 314.453668 165.523643 
L 329.892404 165.578745 
L 345.331139 165.556515 
L 360.769874 165.441081 
L 376.208609 165.763672 
L 391.647344 165.857979 
L 407.08608 160.53582 
" style="fill:none;stroke:#1b9e77;stroke-linecap:square;stroke-opacity:0.5;stroke-width:1.5;"/>
   </g>
   <g id="line2d_52">
    <path clip-path="url(#padb7eb967c)" d="M 51.99517 165.949365 
L 67.433906 165.932718 
L 82.872641 165.941996 
L 98.311376 165.956369 
L 113.750111 165.959501 
L 129.188846 165.96 
L 144.627582 165.959661 
L 160.066317 165.958481 
L 175.505052 165.565976 
L 190.943787 163.087518 
L 206.382522 164.382351 
L 221.821257 160.77007 
L 237.259993 55.228168 
L 252.698728 136.249323 
L 268.137463 165.046525 
L 283.576198 165.75919 
L 299.014933 163.987916 
L 314.453668 162.012667 
L 329.892404 165.730512 
L 345.331139 164.643093 
L 360.769874 164.928305 
L 376.208609 165.679066 
L 391.647344 165.755575 
L 407.08608 165.917666 
" style="fill:none;stroke:#1b9e77;stroke-linecap:square;stroke-opacity:0.5;stroke-width:1.5;"/>
   </g>
   <g id="line2d_53">
    <path clip-path="url(#padb7eb967c)" d="M 51.99517 165.697192 
L 67.433906 165.124948 
L 82.872641 165.056299 
L 98.311376 165.267981 
L 113.750111 165.412596 
L 129.188846 165.592876 
L 144.627582 165.679137 
L 160.066317 165.764669 
L 175.505052 165.766909 
L 190.943787 165.848701 
L 206.382522 165.858873 
L 221.821257 165.495728 
L 237.259993 155.30997 
L 252.698728 140.35158 
L 268.137463 96.721567 
L 283.576198 135.426119 
L 299.014933 160.152678 
L 314.453668 162.218556 
L 329.892404 164.665141 
L 345.331139 165.240684 
L 360.769874 164.438514 
L 376.208609 165.834924 
L 391.647344 165.6752 
L 407.08608 159.761183 
" style="fill:none;stroke:#1b9e77;stroke-linecap:square;stroke-opacity:0.5;stroke-width:1.5;"/>
   </g>
   <g id="line2d_54">
    <path clip-path="url(#padb7eb967c)" d="M 51.99517 165.867428 
L 67.433906 165.757117 
L 82.872641 165.784848 
L 98.311376 165.823625 
L 113.750111 165.830834 
L 129.188846 165.860068 
L 144.627582 165.885045 
L 160.066317 165.898188 
L 175.505052 165.890399 
L 190.943787 165.892353 
L 206.382522 165.903073 
L 221.821257 165.924931 
L 237.259993 165.935613 
L 252.698728 165.94611 
L 268.137463 165.948112 
L 283.576198 165.950108 
L 299.014933 165.932599 
L 314.453668 165.862149 
L 329.892404 158.676496 
L 345.331139 142.321556 
L 360.769874 129.757543 
L 376.208609 119.424015 
L 391.647344 129.860166 
L 407.08608 156.429641 
" style="fill:none;stroke:#1b9e77;stroke-linecap:square;stroke-opacity:0.5;stroke-width:1.5;"/>
   </g>
   <g id="line2d_55">
    <path clip-path="url(#padb7eb967c)" d="M 51.99517 159.546023 
L 67.433906 161.936561 
L 82.872641 161.532009 
L 98.311376 150.49506 
L 113.750111 146.214505 
L 129.188846 160.126153 
L 144.627582 141.076838 
L 160.066317 152.342199 
L 175.505052 164.190871 
L 190.943787 164.289601 
L 206.382522 160.631137 
L 221.821257 131.717775 
L 237.259993 146.161486 
L 252.698728 165.805066 
L 268.137463 165.920806 
L 283.576198 165.792009 
L 299.014933 164.491558 
L 314.453668 164.985792 
L 329.892404 165.913246 
L 345.331139 165.951172 
L 360.769874 165.916203 
L 376.208609 165.761254 
L 391.647344 165.695008 
L 407.08608 165.86969 
" style="fill:none;stroke:#1b9e77;stroke-linecap:square;stroke-opacity:0.5;stroke-width:1.5;"/>
   </g>
   <g id="line2d_56">
    <path clip-path="url(#padb7eb967c)" d="M 51.99517 161.453537 
L 67.433906 159.017594 
L 82.872641 146.719122 
L 98.311376 152.424247 
L 113.750111 152.319118 
L 129.188846 121.302977 
L 144.627582 155.811584 
L 160.066317 161.322778 
L 175.505052 161.852397 
L 190.943787 163.808147 
L 206.382522 164.747423 
L 221.821257 165.512814 
L 237.259993 157.926512 
L 252.698728 157.643049 
L 268.137463 161.716346 
L 283.576198 164.530214 
L 299.014933 165.611312 
L 314.453668 164.543873 
L 329.892404 159.225313 
L 345.331139 165.222199 
L 360.769874 165.657425 
L 376.208609 165.685129 
L 391.647344 165.82666 
L 407.08608 162.48225 
" style="fill:none;stroke:#1b9e77;stroke-linecap:square;stroke-opacity:0.5;stroke-width:1.5;"/>
   </g>
   <g id="line2d_57">
    <path clip-path="url(#padb7eb967c)" d="M 51.99517 165.923415 
L 67.433906 165.886207 
L 82.872641 165.918458 
L 98.311376 165.944706 
L 113.750111 165.951093 
L 129.188846 165.95689 
L 144.627582 165.955839 
L 160.066317 165.866659 
L 175.505052 164.312003 
L 190.943787 162.974445 
L 206.382522 158.447951 
L 221.821257 157.070555 
L 237.259993 153.078357 
L 252.698728 154.88059 
L 268.137463 153.349616 
L 283.576198 146.048803 
L 299.014933 125.540727 
L 314.453668 144.011574 
L 329.892404 155.939956 
L 345.331139 159.958787 
L 360.769874 163.794398 
L 376.208609 165.355493 
L 391.647344 165.936895 
L 407.08608 164.258609 
" style="fill:none;stroke:#1b9e77;stroke-linecap:square;stroke-opacity:0.5;stroke-width:1.5;"/>
   </g>
   <g id="line2d_58">
    <path clip-path="url(#padb7eb967c)" d="M 51.99517 165.922312 
L 67.433906 165.858127 
L 82.872641 165.886593 
L 98.311376 165.92247 
L 113.750111 165.933247 
L 129.188846 165.946674 
L 144.627582 165.952603 
L 160.066317 165.955483 
L 175.505052 165.955555 
L 190.943787 165.957416 
L 206.382522 165.954758 
L 221.821257 165.90106 
L 237.259993 165.821369 
L 252.698728 165.9193 
L 268.137463 165.350579 
L 283.576198 162.5098 
L 299.014933 162.762245 
L 314.453668 161.150379 
L 329.892404 153.297292 
L 345.331139 145.426721 
L 360.769874 58.414164 
L 376.208609 161.379586 
L 391.647344 164.191199 
L 407.08608 164.993094 
" style="fill:none;stroke:#1b9e77;stroke-linecap:square;stroke-opacity:0.5;stroke-width:1.5;"/>
   </g>
   <g id="line2d_59">
    <path clip-path="url(#padb7eb967c)" d="M 51.99517 165.935661 
L 67.433906 165.88394 
L 82.872641 165.895628 
L 98.311376 165.926166 
L 113.750111 165.933295 
L 129.188846 165.953112 
L 144.627582 165.948953 
L 160.066317 164.207092 
L 175.505052 163.625597 
L 190.943787 163.439851 
L 206.382522 164.287804 
L 221.821257 164.545339 
L 237.259993 164.867404 
L 252.698728 165.554848 
L 268.137463 165.855403 
L 283.576198 164.772828 
L 299.014933 138.097583 
L 314.453668 103.954338 
L 329.892404 142.725336 
L 345.331139 147.339952 
L 360.769874 154.230493 
L 376.208609 162.818177 
L 391.647344 164.897125 
L 407.08608 165.666095 
" style="fill:none;stroke:#1b9e77;stroke-linecap:square;stroke-opacity:0.5;stroke-width:1.5;"/>
   </g>
   <g id="line2d_60">
    <path clip-path="url(#padb7eb967c)" d="M 51.99517 145.825382 
L 67.433906 137.034487 
L 82.872641 153.643683 
L 98.311376 152.002848 
L 113.750111 154.550435 
L 129.188846 162.71301 
L 144.627582 164.734919 
L 160.066317 164.789081 
L 175.505052 155.509446 
L 190.943787 149.071248 
L 206.382522 152.365323 
L 221.821257 155.019898 
L 237.259993 155.617165 
L 252.698728 162.028767 
L 268.137463 165.320528 
L 283.576198 165.453612 
L 299.014933 165.576424 
L 314.453668 165.692337 
L 329.892404 165.812124 
L 345.331139 165.886794 
L 360.769874 165.90439 
L 376.208609 165.949436 
L 391.647344 165.957301 
L 407.08608 165.903382 
" style="fill:none;stroke:#1b9e77;stroke-linecap:square;stroke-opacity:0.5;stroke-width:1.5;"/>
   </g>
   <g id="line2d_61">
    <path clip-path="url(#padb7eb967c)" d="M 51.99517 165.654157 
L 67.433906 165.535674 
L 82.872641 165.595871 
L 98.311376 165.579925 
L 113.750111 164.224548 
L 129.188846 164.361418 
L 144.627582 165.600039 
L 160.066317 165.673128 
L 175.505052 165.621044 
L 190.943787 164.195874 
L 206.382522 158.69877 
L 221.821257 155.574722 
L 237.259993 161.422132 
L 252.698728 164.510467 
L 268.137463 142.48913 
L 283.576198 101.614395 
L 299.014933 140.668621 
L 314.453668 161.506873 
L 329.892404 164.785549 
L 345.331139 164.85275 
L 360.769874 159.033528 
L 376.208609 163.763799 
L 391.647344 165.534469 
L 407.08608 165.865146 
" style="fill:none;stroke:#1b9e77;stroke-linecap:square;stroke-opacity:0.5;stroke-width:1.5;"/>
   </g>
   <g id="line2d_62">
    <path clip-path="url(#padb7eb967c)" d="M 51.99517 161.455892 
L 67.433906 159.127467 
L 82.872641 157.792569 
L 98.311376 160.533885 
L 113.750111 161.201082 
L 129.188846 164.430005 
L 144.627582 165.484053 
L 160.066317 165.444719 
L 175.505052 164.895133 
L 190.943787 165.004041 
L 206.382522 165.418315 
L 221.821257 165.610845 
L 237.259993 165.594432 
L 252.698728 165.700642 
L 268.137463 165.711412 
L 283.576198 165.738815 
L 299.014933 165.45243 
L 314.453668 163.651742 
L 329.892404 150.498976 
L 345.331139 143.665321 
L 360.769874 156.999612 
L 376.208609 159.078081 
L 391.647344 160.60939 
L 407.08608 103.263164 
" style="fill:none;stroke:#1b9e77;stroke-linecap:square;stroke-opacity:0.5;stroke-width:1.5;"/>
   </g>
   <g id="line2d_63">
    <path clip-path="url(#padb7eb967c)" d="M 51.99517 164.006204 
L 67.433906 162.365765 
L 82.872641 163.484574 
L 98.311376 165.331326 
L 113.750111 165.331337 
L 129.188846 164.971646 
L 144.627582 165.463854 
L 160.066317 165.75226 
L 175.505052 165.748459 
L 190.943787 165.803756 
L 206.382522 165.775679 
L 221.821257 165.324897 
L 237.259993 156.402687 
L 252.698728 155.065012 
L 268.137463 157.21982 
L 283.576198 147.243262 
L 299.014933 149.807118 
L 314.453668 164.941187 
L 329.892404 161.736862 
L 345.331139 146.433859 
L 360.769874 153.033413 
L 376.208609 154.876609 
L 391.647344 132.689111 
L 407.08608 163.553328 
" style="fill:none;stroke:#1b9e77;stroke-linecap:square;stroke-opacity:0.5;stroke-width:1.5;"/>
   </g>
   <g id="line2d_64">
    <path clip-path="url(#padb7eb967c)" d="M 51.99517 132.282257 
L 67.433906 120.474025 
L 82.872641 164.697171 
L 98.311376 164.004764 
L 113.750111 164.10327 
L 129.188846 155.154234 
L 144.627582 111.817939 
L 160.066317 165.096959 
L 175.505052 165.140037 
L 190.943787 165.347926 
L 206.382522 165.751637 
L 221.821257 165.806538 
L 237.259993 165.872653 
L 252.698728 165.793461 
L 268.137463 165.760754 
L 283.576198 165.858124 
L 299.014933 165.907147 
L 314.453668 165.912856 
L 329.892404 165.897258 
L 345.331139 165.937074 
L 360.769874 165.9446 
L 376.208609 165.8744 
L 391.647344 163.918538 
L 407.08608 160.0084 
" style="fill:none;stroke:#1b9e77;stroke-linecap:square;stroke-opacity:0.5;stroke-width:1.5;"/>
   </g>
   <g id="line2d_65">
    <path clip-path="url(#padb7eb967c)" d="M 51.99517 160.4586 
L 67.433906 161.031548 
L 82.872641 162.409591 
L 98.311376 164.475229 
L 113.750111 165.0193 
L 129.188846 165.568477 
L 144.627582 165.758092 
L 160.066317 165.824657 
L 175.505052 165.813984 
L 190.943787 165.883889 
L 206.382522 165.895782 
L 221.821257 165.770086 
L 237.259993 165.700332 
L 252.698728 165.627027 
L 268.137463 165.42872 
L 283.576198 156.7982 
L 299.014933 117.348305 
L 314.453668 152.738895 
L 329.892404 151.990964 
L 345.331139 149.008666 
L 360.769874 152.407399 
L 376.208609 155.605792 
L 391.647344 151.516241 
L 407.08608 164.282247 
" style="fill:none;stroke:#1b9e77;stroke-linecap:square;stroke-opacity:0.5;stroke-width:1.5;"/>
   </g>
   <g id="line2d_66">
    <path clip-path="url(#padb7eb967c)" d="M 51.99517 165.607155 
L 67.433906 165.338625 
L 82.872641 165.188241 
L 98.311376 165.591173 
L 113.750111 164.157871 
L 129.188846 159.944969 
L 144.627582 151.965848 
L 160.066317 154.128038 
L 175.505052 155.850565 
L 190.943787 102.153326 
L 206.382522 139.061823 
L 221.821257 154.837306 
L 237.259993 159.76428 
L 252.698728 162.233224 
L 268.137463 164.943384 
L 283.576198 165.593622 
L 299.014933 165.653228 
L 314.453668 165.452885 
L 329.892404 165.499235 
L 345.331139 165.766402 
L 360.769874 165.865113 
L 376.208609 165.916357 
L 391.647344 165.90904 
L 407.08608 165.940315 
" style="fill:none;stroke:#1b9e77;stroke-linecap:square;stroke-opacity:0.5;stroke-width:1.5;"/>
   </g>
   <g id="line2d_67">
    <path clip-path="url(#padb7eb967c)" d="M 51.99517 165.81316 
L 67.433906 165.674878 
L 82.872641 165.795931 
L 98.311376 165.881782 
L 113.750111 165.903319 
L 129.188846 165.924444 
L 144.627582 165.938292 
L 160.066317 165.950669 
L 175.505052 165.954335 
L 190.943787 165.954856 
L 206.382522 165.951827 
L 221.821257 165.952376 
L 237.259993 165.928741 
L 252.698728 161.272973 
L 268.137463 154.577716 
L 283.576198 148.911081 
L 299.014933 164.54509 
L 314.453668 164.061463 
L 329.892404 146.499332 
L 345.331139 65.98817 
L 360.769874 164.092788 
L 376.208609 165.619369 
L 391.647344 165.654107 
L 407.08608 164.51533 
" style="fill:none;stroke:#1b9e77;stroke-linecap:square;stroke-opacity:0.5;stroke-width:1.5;"/>
   </g>
   <g id="line2d_68">
    <path clip-path="url(#padb7eb967c)" d="M 51.99517 164.38676 
L 67.433906 164.414344 
L 82.872641 157.568 
L 98.311376 150.110074 
L 113.750111 128.875592 
L 129.188846 160.959824 
L 144.627582 164.607251 
L 160.066317 163.693381 
L 175.505052 156.992947 
L 190.943787 144.476553 
L 206.382522 158.177531 
L 221.821257 161.324209 
L 237.259993 164.341862 
L 252.698728 164.333188 
L 268.137463 154.419462 
L 283.576198 150.48156 
L 299.014933 159.338364 
L 314.453668 161.856294 
L 329.892404 164.804885 
L 345.331139 165.366438 
L 360.769874 165.793388 
L 376.208609 165.406582 
L 391.647344 164.882386 
L 407.08608 165.751143 
" style="fill:none;stroke:#1b9e77;stroke-linecap:square;stroke-opacity:0.5;stroke-width:1.5;"/>
   </g>
   <g id="line2d_69">
    <path clip-path="url(#padb7eb967c)" d="M 51.99517 165.92597 
L 67.433906 165.905732 
L 82.872641 165.922476 
L 98.311376 165.932851 
L 113.750111 165.517984 
L 129.188846 158.729356 
L 144.627582 142.667065 
L 160.066317 135.204777 
L 175.505052 123.876088 
L 190.943787 131.216979 
L 206.382522 147.31251 
L 221.821257 164.732791 
L 237.259993 165.760893 
L 252.698728 165.435655 
L 268.137463 165.658298 
L 283.576198 165.774602 
L 299.014933 165.808913 
L 314.453668 165.86172 
L 329.892404 165.894241 
L 345.331139 165.922385 
L 360.769874 165.935419 
L 376.208609 165.954291 
L 391.647344 165.953436 
L 407.08608 165.457592 
" style="fill:none;stroke:#1b9e77;stroke-linecap:square;stroke-opacity:0.5;stroke-width:1.5;"/>
   </g>
   <g id="line2d_70">
    <path clip-path="url(#padb7eb967c)" d="M 51.99517 165.828036 
L 67.433906 165.568008 
L 82.872641 165.549334 
L 98.311376 165.709934 
L 113.750111 165.768537 
L 129.188846 165.910372 
L 144.627582 165.947184 
L 160.066317 165.949482 
L 175.505052 165.947934 
L 190.943787 165.951689 
L 206.382522 165.941819 
L 221.821257 165.73068 
L 237.259993 165.24035 
L 252.698728 165.649278 
L 268.137463 157.656535 
L 283.576198 117.324943 
L 299.014933 133.402062 
L 314.453668 130.57588 
L 329.892404 150.492252 
L 345.331139 160.39065 
L 360.769874 164.520684 
L 376.208609 165.699077 
L 391.647344 156.256583 
L 407.08608 165.350723 
" style="fill:none;stroke:#1b9e77;stroke-linecap:square;stroke-opacity:0.5;stroke-width:1.5;"/>
   </g>
   <g id="line2d_71">
    <path clip-path="url(#padb7eb967c)" d="M 51.99517 165.942968 
L 67.433906 165.941188 
L 82.872641 165.951867 
L 98.311376 165.953242 
L 113.750111 165.911384 
L 129.188846 165.82893 
L 144.627582 163.058559 
L 160.066317 164.007926 
L 175.505052 165.081938 
L 190.943787 164.808781 
L 206.382522 163.197088 
L 221.821257 158.666955 
L 237.259993 32.442913 
L 252.698728 162.049887 
L 268.137463 165.871611 
L 283.576198 165.63441 
L 299.014933 164.9677 
L 314.453668 165.312979 
L 329.892404 165.883973 
L 345.331139 165.90931 
L 360.769874 163.562173 
L 376.208609 165.472888 
L 391.647344 165.299975 
L 407.08608 165.603378 
" style="fill:none;stroke:#1b9e77;stroke-linecap:square;stroke-opacity:0.5;stroke-width:1.5;"/>
   </g>
   <g id="line2d_72">
    <path clip-path="url(#padb7eb967c)" d="M 51.99517 141.668047 
L 67.433906 132.827745 
L 82.872641 143.405134 
L 98.311376 157.303321 
L 113.750111 160.371647 
L 129.188846 163.040087 
L 144.627582 163.815369 
L 160.066317 164.18004 
L 175.505052 164.079057 
L 190.943787 164.264795 
L 206.382522 164.232143 
L 221.821257 164.67963 
L 237.259993 164.98444 
L 252.698728 165.3572 
L 268.137463 165.392806 
L 283.576198 165.168243 
L 299.014933 164.463823 
L 314.453668 164.092525 
L 329.892404 163.164459 
L 345.331139 160.147987 
L 360.769874 156.480116 
L 376.208609 152.412508 
L 391.647344 152.998959 
L 407.08608 163.831945 
" style="fill:none;stroke:#1b9e77;stroke-linecap:square;stroke-opacity:0.5;stroke-width:1.5;"/>
   </g>
   <g id="line2d_73">
    <path clip-path="url(#padb7eb967c)" d="M 51.99517 157.015866 
L 67.433906 162.66264 
L 82.872641 133.315108 
L 98.311376 149.775467 
L 113.750111 157.955787 
L 129.188846 163.215308 
L 144.627582 159.697319 
L 160.066317 149.99128 
L 175.505052 134.347472 
L 190.943787 163.995205 
L 206.382522 162.987912 
L 221.821257 165.386353 
L 237.259993 161.835354 
L 252.698728 161.850807 
L 268.137463 159.4775 
L 283.576198 161.464802 
L 299.014933 163.219353 
L 314.453668 164.6074 
L 329.892404 165.107127 
L 345.331139 163.532572 
L 360.769874 163.465557 
L 376.208609 165.634562 
L 391.647344 165.891322 
L 407.08608 165.929948 
" style="fill:none;stroke:#1b9e77;stroke-linecap:square;stroke-opacity:0.5;stroke-width:1.5;"/>
   </g>
   <g id="line2d_74">
    <path clip-path="url(#padb7eb967c)" d="M 51.99517 165.884515 
L 67.433906 165.8175 
L 82.872641 165.868654 
L 98.311376 165.942724 
L 113.750111 165.951487 
L 129.188846 165.953583 
L 144.627582 165.930657 
L 160.066317 165.397162 
L 175.505052 155.616682 
L 190.943787 149.55283 
L 206.382522 151.734038 
L 221.821257 153.583001 
L 237.259993 140.018096 
L 252.698728 137.051568 
L 268.137463 130.811386 
L 283.576198 162.51392 
L 299.014933 165.790179 
L 314.453668 165.905044 
L 329.892404 165.633508 
L 345.331139 164.814944 
L 360.769874 158.070368 
L 376.208609 165.625912 
L 391.647344 164.869198 
L 407.08608 164.025062 
" style="fill:none;stroke:#1b9e77;stroke-linecap:square;stroke-opacity:0.5;stroke-width:1.5;"/>
   </g>
   <g id="line2d_75">
    <path clip-path="url(#padb7eb967c)" d="M 51.99517 165.411076 
L 67.433906 162.622647 
L 82.872641 87.228993 
L 98.311376 124.40178 
L 113.750111 161.306057 
L 129.188846 164.030591 
L 144.627582 164.989938 
L 160.066317 165.304612 
L 175.505052 165.458577 
L 190.943787 165.895316 
L 206.382522 165.928181 
L 221.821257 165.449658 
L 237.259993 165.025809 
L 252.698728 151.07637 
L 268.137463 160.447701 
L 283.576198 163.596535 
L 299.014933 164.345515 
L 314.453668 164.886076 
L 329.892404 165.504132 
L 345.331139 165.81138 
L 360.769874 165.887157 
L 376.208609 165.951456 
L 391.647344 165.955988 
L 407.08608 165.84648 
" style="fill:none;stroke:#1b9e77;stroke-linecap:square;stroke-opacity:0.5;stroke-width:1.5;"/>
   </g>
   <g id="line2d_76">
    <path clip-path="url(#padb7eb967c)" d="M 51.99517 150.097724 
L 67.433906 157.102537 
L 82.872641 157.809849 
L 98.311376 134.34418 
L 113.750111 140.98089 
L 129.188846 147.796383 
L 144.627582 153.549837 
L 160.066317 159.568738 
L 175.505052 162.265924 
L 190.943787 153.0441 
L 206.382522 164.37391 
L 221.821257 165.718614 
L 237.259993 165.668051 
L 252.698728 163.815123 
L 268.137463 158.781565 
L 283.576198 162.641017 
L 299.014933 165.173109 
L 314.453668 165.671721 
L 329.892404 165.781731 
L 345.331139 165.82261 
L 360.769874 165.862176 
L 376.208609 165.922412 
L 391.647344 165.79388 
L 407.08608 164.77594 
" style="fill:none;stroke:#1b9e77;stroke-linecap:square;stroke-opacity:0.5;stroke-width:1.5;"/>
   </g>
   <g id="line2d_77">
    <path clip-path="url(#padb7eb967c)" d="M 51.99517 165.727723 
L 67.433906 165.617192 
L 82.872641 165.268761 
L 98.311376 164.843581 
L 113.750111 162.975882 
L 129.188846 163.406944 
L 144.627582 162.744334 
L 160.066317 162.685875 
L 175.505052 162.335753 
L 190.943787 154.776276 
L 206.382522 149.470097 
L 221.821257 139.224638 
L 237.259993 147.772067 
L 252.698728 143.680087 
L 268.137463 152.385035 
L 283.576198 149.148749 
L 299.014933 156.571023 
L 314.453668 163.150224 
L 329.892404 165.065849 
L 345.331139 164.566841 
L 360.769874 164.539664 
L 376.208609 165.192126 
L 391.647344 165.370486 
L 407.08608 165.84281 
" style="fill:none;stroke:#1b9e77;stroke-linecap:square;stroke-opacity:0.5;stroke-width:1.5;"/>
   </g>
   <g id="line2d_78">
    <path clip-path="url(#padb7eb967c)" d="M 51.99517 165.950477 
L 67.433906 165.717732 
L 82.872641 162.282737 
L 98.311376 162.012203 
L 113.750111 162.99501 
L 129.188846 162.438354 
L 144.627582 161.679041 
L 160.066317 164.169506 
L 175.505052 165.413412 
L 190.943787 165.707152 
L 206.382522 165.533927 
L 221.821257 161.591304 
L 237.259993 126.140321 
L 252.698728 163.540624 
L 268.137463 163.416262 
L 283.576198 138.021491 
L 299.014933 150.098345 
L 314.453668 134.857511 
L 329.892404 154.00381 
L 345.331139 163.642759 
L 360.769874 165.616581 
L 376.208609 165.800889 
L 391.647344 165.792136 
L 407.08608 165.940438 
" style="fill:none;stroke:#1b9e77;stroke-linecap:square;stroke-opacity:0.5;stroke-width:1.5;"/>
   </g>
   <g id="line2d_79">
    <path clip-path="url(#padb7eb967c)" d="M 51.99517 156.718744 
L 67.433906 160.385685 
L 82.872641 164.35485 
L 98.311376 165.737443 
L 113.750111 146.075693 
L 129.188846 130.420337 
L 144.627582 163.548979 
L 160.066317 154.605656 
L 175.505052 154.53887 
L 190.943787 154.3819 
L 206.382522 157.27162 
L 221.821257 160.596312 
L 237.259993 151.445723 
L 252.698728 146.644384 
L 268.137463 163.219116 
L 283.576198 165.746 
L 299.014933 165.589474 
L 314.453668 165.696926 
L 329.892404 165.837949 
L 345.331139 165.881578 
L 360.769874 165.874356 
L 376.208609 165.926059 
L 391.647344 165.949691 
L 407.08608 165.914674 
" style="fill:none;stroke:#1b9e77;stroke-linecap:square;stroke-opacity:0.5;stroke-width:1.5;"/>
   </g>
   <g id="line2d_80">
    <path clip-path="url(#padb7eb967c)" d="M 51.99517 165.881231 
L 67.433906 165.783851 
L 82.872641 165.816254 
L 98.311376 165.875123 
L 113.750111 165.884906 
L 129.188846 165.93281 
L 144.627582 165.520082 
L 160.066317 152.603295 
L 175.505052 156.538878 
L 190.943787 148.464296 
L 206.382522 139.585545 
L 221.821257 139.590084 
L 237.259993 128.183357 
L 252.698728 145.797303 
L 268.137463 159.030301 
L 283.576198 165.733306 
L 299.014933 165.373919 
L 314.453668 165.499104 
L 329.892404 165.813979 
L 345.331139 165.864526 
L 360.769874 165.85434 
L 376.208609 165.905818 
L 391.647344 165.93376 
L 407.08608 165.895954 
" style="fill:none;stroke:#1b9e77;stroke-linecap:square;stroke-opacity:0.5;stroke-width:1.5;"/>
   </g>
   <g id="line2d_81">
    <path clip-path="url(#padb7eb967c)" d="M 51.99517 165.895291 
L 67.433906 165.798163 
L 82.872641 165.860923 
L 98.311376 165.926678 
L 113.750111 165.940158 
L 129.188846 165.951446 
L 144.627582 165.948688 
L 160.066317 165.591928 
L 175.505052 157.546539 
L 190.943787 154.458885 
L 206.382522 149.784401 
L 221.821257 147.696409 
L 237.259993 139.560366 
L 252.698728 135.932141 
L 268.137463 139.387153 
L 283.576198 151.010856 
L 299.014933 163.340328 
L 314.453668 164.561519 
L 329.892404 165.512908 
L 345.331139 165.785824 
L 360.769874 165.626179 
L 376.208609 165.74396 
L 391.647344 165.188833 
L 407.08608 164.312446 
" style="fill:none;stroke:#1b9e77;stroke-linecap:square;stroke-opacity:0.5;stroke-width:1.5;"/>
   </g>
   <g id="line2d_82">
    <path clip-path="url(#padb7eb967c)" d="M 51.99517 165.575905 
L 67.433906 164.787065 
L 82.872641 164.943738 
L 98.311376 165.357201 
L 113.750111 165.526857 
L 129.188846 165.724843 
L 144.627582 165.819941 
L 160.066317 165.881576 
L 175.505052 165.896905 
L 190.943787 165.919782 
L 206.382522 165.933934 
L 221.821257 165.94824 
L 237.259993 165.952186 
L 252.698728 165.955208 
L 268.137463 165.942376 
L 283.576198 159.231868 
L 299.014933 143.650721 
L 314.453668 148.712332 
L 329.892404 157.165849 
L 345.331139 156.009945 
L 360.769874 92.410068 
L 376.208609 163.601976 
L 391.647344 165.845621 
L 407.08608 150.567886 
" style="fill:none;stroke:#1b9e77;stroke-linecap:square;stroke-opacity:0.5;stroke-width:1.5;"/>
   </g>
   <g id="line2d_83">
    <path clip-path="url(#padb7eb967c)" d="M 51.99517 165.875766 
L 67.433906 165.777461 
L 82.872641 165.823943 
L 98.311376 165.906904 
L 113.750111 165.933444 
L 129.188846 165.949434 
L 144.627582 165.952366 
L 160.066317 165.956718 
L 175.505052 165.943998 
L 190.943787 165.394506 
L 206.382522 159.002426 
L 221.821257 153.205129 
L 237.259993 138.011165 
L 252.698728 138.297107 
L 268.137463 151.209093 
L 283.576198 160.008974 
L 299.014933 163.401647 
L 314.453668 160.281639 
L 329.892404 164.344488 
L 345.331139 164.916249 
L 360.769874 144.830886 
L 376.208609 145.234845 
L 391.647344 156.95407 
L 407.08608 164.149762 
" style="fill:none;stroke:#1b9e77;stroke-linecap:square;stroke-opacity:0.5;stroke-width:1.5;"/>
   </g>
   <g id="line2d_84">
    <path clip-path="url(#padb7eb967c)" d="M 51.99517 161.854597 
L 67.433906 158.465868 
L 82.872641 147.496291 
L 98.311376 133.268894 
L 113.750111 145.356983 
L 129.188846 154.040609 
L 144.627582 149.556843 
L 160.066317 152.0312 
L 175.505052 155.294269 
L 190.943787 145.532378 
L 206.382522 164.263838 
L 221.821257 165.388256 
L 237.259993 165.447988 
L 252.698728 165.575195 
L 268.137463 165.781436 
L 283.576198 165.796667 
L 299.014933 165.81098 
L 314.453668 165.860443 
L 329.892404 165.902805 
L 345.331139 165.866882 
L 360.769874 165.937921 
L 376.208609 165.94615 
L 391.647344 165.937344 
L 407.08608 165.948186 
" style="fill:none;stroke:#1b9e77;stroke-linecap:square;stroke-opacity:0.5;stroke-width:1.5;"/>
   </g>
   <g id="line2d_85">
    <path clip-path="url(#padb7eb967c)" d="M 51.99517 159.939622 
L 67.433906 162.599151 
L 82.872641 165.403105 
L 98.311376 165.340821 
L 113.750111 164.183521 
L 129.188846 146.867335 
L 144.627582 160.159884 
L 160.066317 165.243615 
L 175.505052 165.785471 
L 190.943787 165.826332 
L 206.382522 165.908159 
L 221.821257 165.901282 
L 237.259993 165.944615 
L 252.698728 165.952938 
L 268.137463 165.934827 
L 283.576198 163.777849 
L 299.014933 161.490274 
L 314.453668 162.823249 
L 329.892404 161.057919 
L 345.331139 158.568549 
L 360.769874 78.100677 
L 376.208609 158.850217 
L 391.647344 162.462486 
L 407.08608 164.240127 
" style="fill:none;stroke:#1b9e77;stroke-linecap:square;stroke-opacity:0.5;stroke-width:1.5;"/>
   </g>
   <g id="line2d_86">
    <path clip-path="url(#padb7eb967c)" d="M 51.99517 165.949988 
L 67.433906 165.945822 
L 82.872641 165.947272 
L 98.311376 165.884287 
L 113.750111 165.030256 
L 129.188846 162.496634 
L 144.627582 158.756256 
L 160.066317 156.521274 
L 175.505052 157.18465 
L 190.943787 156.522911 
L 206.382522 156.859005 
L 221.821257 151.028153 
L 237.259993 143.777565 
L 252.698728 124.54007 
L 268.137463 149.011996 
L 283.576198 155.215296 
L 299.014933 161.378412 
L 314.453668 165.340741 
L 329.892404 165.786238 
L 345.331139 165.851973 
L 360.769874 165.867147 
L 376.208609 165.894995 
L 391.647344 165.895239 
L 407.08608 165.67584 
" style="fill:none;stroke:#1b9e77;stroke-linecap:square;stroke-opacity:0.5;stroke-width:1.5;"/>
   </g>
   <g id="line2d_87">
    <path clip-path="url(#padb7eb967c)" d="M 51.99517 165.840009 
L 67.433906 165.184734 
L 82.872641 164.248324 
L 98.311376 163.755074 
L 113.750111 147.262267 
L 129.188846 134.189874 
L 144.627582 153.218505 
L 160.066317 165.06574 
L 175.505052 164.016888 
L 190.943787 155.833851 
L 206.382522 127.623525 
L 221.821257 137.196631 
L 237.259993 160.856273 
L 252.698728 165.456147 
L 268.137463 165.577892 
L 283.576198 163.947554 
L 299.014933 164.627952 
L 314.453668 164.241416 
L 329.892404 165.277022 
L 345.331139 165.795867 
L 360.769874 165.87059 
L 376.208609 165.931973 
L 391.647344 165.799132 
L 407.08608 165.54478 
" style="fill:none;stroke:#1b9e77;stroke-linecap:square;stroke-opacity:0.5;stroke-width:1.5;"/>
   </g>
   <g id="line2d_88">
    <path clip-path="url(#padb7eb967c)" d="M 51.99517 165.945027 
L 67.433906 164.821875 
L 82.872641 162.122687 
L 98.311376 164.249181 
L 113.750111 165.597346 
L 129.188846 165.781213 
L 144.627582 164.52727 
L 160.066317 141.952185 
L 175.505052 163.398266 
L 190.943787 165.678706 
L 206.382522 165.669095 
L 221.821257 165.620291 
L 237.259993 164.824613 
L 252.698728 150.798231 
L 268.137463 161.746317 
L 283.576198 164.601783 
L 299.014933 163.193382 
L 314.453668 159.489462 
L 329.892404 156.424647 
L 345.331139 134.548031 
L 360.769874 151.524742 
L 376.208609 158.914893 
L 391.647344 142.563888 
L 407.08608 158.368885 
" style="fill:none;stroke:#1b9e77;stroke-linecap:square;stroke-opacity:0.5;stroke-width:1.5;"/>
   </g>
   <g id="line2d_89">
    <path clip-path="url(#padb7eb967c)" d="M 51.99517 165.902871 
L 67.433906 165.890814 
L 82.872641 165.913256 
L 98.311376 163.726357 
L 113.750111 162.599219 
L 129.188846 161.650654 
L 144.627582 132.383614 
L 160.066317 127.911471 
L 175.505052 151.52225 
L 190.943787 104.757824 
L 206.382522 165.574597 
L 221.821257 164.884569 
L 237.259993 164.981899 
L 252.698728 165.505738 
L 268.137463 165.830484 
L 283.576198 165.882394 
L 299.014933 165.89587 
L 314.453668 165.935058 
L 329.892404 165.947447 
L 345.331139 165.94795 
L 360.769874 165.946187 
L 376.208609 165.948446 
L 391.647344 165.946402 
L 407.08608 165.876653 
" style="fill:none;stroke:#1b9e77;stroke-linecap:square;stroke-opacity:0.5;stroke-width:1.5;"/>
   </g>
   <g id="line2d_90">
    <path clip-path="url(#padb7eb967c)" d="M 51.99517 154.03299 
L 67.433906 154.594058 
L 82.872641 165.591234 
L 98.311376 163.655692 
L 113.750111 139.886388 
L 129.188846 163.307076 
L 144.627582 144.901325 
L 160.066317 96.500422 
L 175.505052 165.38813 
L 190.943787 162.809943 
L 206.382522 158.658315 
L 221.821257 163.306898 
L 237.259993 165.010776 
L 252.698728 165.544325 
L 268.137463 165.872694 
L 283.576198 165.874084 
L 299.014933 165.860721 
L 314.453668 165.890541 
L 329.892404 165.921405 
L 345.331139 165.943592 
L 360.769874 165.950772 
L 376.208609 165.958677 
L 391.647344 165.959942 
L 407.08608 165.942016 
" style="fill:none;stroke:#1b9e77;stroke-linecap:square;stroke-opacity:0.5;stroke-width:1.5;"/>
   </g>
   <g id="line2d_91">
    <path clip-path="url(#padb7eb967c)" d="M 51.99517 165.789589 
L 67.433906 165.363895 
L 82.872641 165.46057 
L 98.311376 165.695038 
L 113.750111 165.77702 
L 129.188846 165.910614 
L 144.627582 165.940305 
L 160.066317 165.908204 
L 175.505052 165.340918 
L 190.943787 165.498476 
L 206.382522 160.381514 
L 221.821257 140.084189 
L 237.259993 143.420958 
L 252.698728 136.336265 
L 268.137463 122.085041 
L 283.576198 162.30567 
L 299.014933 164.535756 
L 314.453668 158.116222 
L 329.892404 151.090044 
L 345.331139 164.323297 
L 360.769874 165.72022 
L 376.208609 165.67442 
L 391.647344 165.689452 
L 407.08608 165.914344 
" style="fill:none;stroke:#1b9e77;stroke-linecap:square;stroke-opacity:0.5;stroke-width:1.5;"/>
   </g>
   <g id="line2d_92">
    <path clip-path="url(#padb7eb967c)" d="M 51.99517 163.406823 
L 67.433906 162.904232 
L 82.872641 162.952389 
L 98.311376 164.912238 
L 113.750111 164.66088 
L 129.188846 163.403664 
L 144.627582 162.164769 
L 160.066317 164.599941 
L 175.505052 162.015273 
L 190.943787 96.643317 
L 206.382522 125.405084 
L 221.821257 150.305132 
L 237.259993 164.372482 
L 252.698728 163.597316 
L 268.137463 165.058985 
L 283.576198 165.082218 
L 299.014933 165.552178 
L 314.453668 165.607198 
L 329.892404 165.585945 
L 345.331139 165.778983 
L 360.769874 165.884663 
L 376.208609 165.94598 
L 391.647344 165.922274 
L 407.08608 160.600051 
" style="fill:none;stroke:#1b9e77;stroke-linecap:square;stroke-opacity:0.5;stroke-width:1.5;"/>
   </g>
   <g id="line2d_93">
    <path clip-path="url(#padb7eb967c)" d="M 51.99517 120.26005 
L 67.433906 69.873906 
L 82.872641 159.981012 
L 98.311376 161.816393 
L 113.750111 163.293753 
L 129.188846 164.188278 
L 144.627582 165.100166 
L 160.066317 165.441923 
L 175.505052 165.472379 
L 190.943787 165.523831 
L 206.382522 165.590341 
L 221.821257 165.776009 
L 237.259993 165.872232 
L 252.698728 165.894102 
L 268.137463 165.868709 
L 283.576198 165.823652 
L 299.014933 165.775255 
L 314.453668 165.817263 
L 329.892404 165.863022 
L 345.331139 165.845655 
L 360.769874 165.796702 
L 376.208609 165.871281 
L 391.647344 165.931687 
L 407.08608 165.684421 
" style="fill:none;stroke:#1b9e77;stroke-linecap:square;stroke-opacity:0.5;stroke-width:1.5;"/>
   </g>
   <g id="line2d_94">
    <path clip-path="url(#padb7eb967c)" d="M 51.99517 165.238108 
L 67.433906 165.029045 
L 82.872641 165.135197 
L 98.311376 165.220953 
L 113.750111 165.351002 
L 129.188846 165.538576 
L 144.627582 165.679137 
L 160.066317 165.058402 
L 175.505052 160.744461 
L 190.943787 159.972764 
L 206.382522 152.006377 
L 221.821257 145.678006 
L 237.259993 142.912232 
L 252.698728 125.098407 
L 268.137463 141.762463 
L 283.576198 160.793472 
L 299.014933 164.219731 
L 314.453668 164.310208 
L 329.892404 165.036095 
L 345.331139 165.508001 
L 360.769874 162.950631 
L 376.208609 161.959415 
L 391.647344 162.698291 
L 407.08608 164.461053 
" style="fill:none;stroke:#1b9e77;stroke-linecap:square;stroke-opacity:0.5;stroke-width:1.5;"/>
   </g>
   <g id="line2d_95">
    <path clip-path="url(#padb7eb967c)" d="M 51.99517 165.507487 
L 67.433906 165.659847 
L 82.872641 165.455384 
L 98.311376 164.046498 
L 113.750111 164.746515 
L 129.188846 164.699867 
L 144.627582 161.987334 
L 160.066317 159.652105 
L 175.505052 162.683 
L 190.943787 163.464864 
L 206.382522 162.874468 
L 221.821257 154.74896 
L 237.259993 143.746058 
L 252.698728 162.55723 
L 268.137463 165.169443 
L 283.576198 156.197558 
L 299.014933 119.311882 
L 314.453668 149.913826 
L 329.892404 160.35235 
L 345.331139 157.802095 
L 360.769874 160.484973 
L 376.208609 160.170095 
L 391.647344 165.397152 
L 407.08608 165.733035 
" style="fill:none;stroke:#1b9e77;stroke-linecap:square;stroke-opacity:0.5;stroke-width:1.5;"/>
   </g>
   <g id="line2d_96">
    <path clip-path="url(#padb7eb967c)" d="M 51.99517 165.907326 
L 67.433906 165.854657 
L 82.872641 165.896471 
L 98.311376 165.931009 
L 113.750111 165.939184 
L 129.188846 165.946704 
L 144.627582 165.950985 
L 160.066317 165.955557 
L 175.505052 165.956892 
L 190.943787 165.957484 
L 206.382522 165.956261 
L 221.821257 165.952938 
L 237.259993 165.914523 
L 252.698728 165.638038 
L 268.137463 163.269825 
L 283.576198 151.306353 
L 299.014933 141.158562 
L 314.453668 150.928244 
L 329.892404 143.13294 
L 345.331139 133.245919 
L 360.769874 144.648819 
L 376.208609 152.130782 
L 391.647344 156.469203 
L 407.08608 163.313347 
" style="fill:none;stroke:#1b9e77;stroke-linecap:square;stroke-opacity:0.5;stroke-width:1.5;"/>
   </g>
   <g id="line2d_97">
    <path clip-path="url(#padb7eb967c)" d="M 51.99517 164.43243 
L 67.433906 162.789171 
L 82.872641 160.238551 
L 98.311376 156.903925 
L 113.750111 156.266268 
L 129.188846 152.523012 
L 144.627582 155.719647 
L 160.066317 158.320214 
L 175.505052 158.061589 
L 190.943787 150.732453 
L 206.382522 153.336124 
L 221.821257 159.690951 
L 237.259993 163.907737 
L 252.698728 161.726053 
L 268.137463 155.083888 
L 283.576198 160.951385 
L 299.014933 164.528652 
L 314.453668 165.692832 
L 329.892404 165.581784 
L 345.331139 163.797942 
L 360.769874 135.515861 
L 376.208609 165.473789 
L 391.647344 165.878744 
L 407.08608 165.209017 
" style="fill:none;stroke:#1b9e77;stroke-linecap:square;stroke-opacity:0.5;stroke-width:1.5;"/>
   </g>
   <g id="line2d_98">
    <path clip-path="url(#padb7eb967c)" d="M 51.99517 165.923209 
L 67.433906 165.956853 
L 82.872641 165.956355 
L 98.311376 165.949405 
L 113.750111 165.852934 
L 129.188846 161.309232 
L 144.627582 164.609645 
L 160.066317 161.950177 
L 175.505052 165.140656 
L 190.943787 164.757586 
L 206.382522 163.736945 
L 221.821257 155.139394 
L 237.259993 149.577115 
L 252.698728 150.835582 
L 268.137463 126.192727 
L 283.576198 123.763015 
L 299.014933 147.52533 
L 314.453668 164.853337 
L 329.892404 165.525822 
L 345.331139 165.559179 
L 360.769874 164.964576 
L 376.208609 165.688441 
L 391.647344 165.765315 
L 407.08608 165.829187 
" style="fill:none;stroke:#1b9e77;stroke-linecap:square;stroke-opacity:0.5;stroke-width:1.5;"/>
   </g>
   <g id="line2d_99">
    <path clip-path="url(#padb7eb967c)" d="M 51.99517 165.906019 
L 67.433906 165.863192 
L 82.872641 165.876887 
L 98.311376 165.923796 
L 113.750111 165.928367 
L 129.188846 165.919558 
L 144.627582 165.918961 
L 160.066317 165.926842 
L 175.505052 165.923834 
L 190.943787 165.924066 
L 206.382522 165.94198 
L 221.821257 165.950611 
L 237.259993 165.950403 
L 252.698728 165.953708 
L 268.137463 165.942261 
L 283.576198 164.91203 
L 299.014933 158.666143 
L 314.453668 158.911764 
L 329.892404 149.188049 
L 345.331139 144.08473 
L 360.769874 117.024031 
L 376.208609 118.689544 
L 391.647344 158.529492 
L 407.08608 163.505756 
" style="fill:none;stroke:#1b9e77;stroke-linecap:square;stroke-opacity:0.5;stroke-width:1.5;"/>
   </g>
   <g id="line2d_100">
    <path clip-path="url(#padb7eb967c)" d="M 51.99517 138.3447 
L 67.433906 127.448229 
L 82.872641 158.912608 
L 98.311376 153.277326 
L 113.750111 143.791272 
L 129.188846 162.260927 
L 144.627582 165.416141 
L 160.066317 165.732937 
L 175.505052 165.755008 
L 190.943787 165.567159 
L 206.382522 165.236391 
L 221.821257 165.76987 
L 237.259993 164.115655 
L 252.698728 162.913164 
L 268.137463 160.894462 
L 283.576198 157.606549 
L 299.014933 160.131525 
L 314.453668 154.479273 
L 329.892404 157.928559 
L 345.331139 164.928566 
L 360.769874 165.705918 
L 376.208609 165.751792 
L 391.647344 164.745071 
L 407.08608 165.648923 
" style="fill:none;stroke:#1b9e77;stroke-linecap:square;stroke-opacity:0.5;stroke-width:1.5;"/>
   </g>
   <g id="line2d_101">
    <path clip-path="url(#padb7eb967c)" d="M 51.99517 165.921274 
L 67.433906 165.892466 
L 82.872641 165.909612 
L 98.311376 165.926479 
L 113.750111 165.920115 
L 129.188846 165.713552 
L 144.627582 164.410008 
L 160.066317 160.859824 
L 175.505052 156.659877 
L 190.943787 161.562464 
L 206.382522 146.736827 
L 221.821257 133.447142 
L 237.259993 143.999491 
L 252.698728 151.925935 
L 268.137463 131.101715 
L 283.576198 161.846961 
L 299.014933 165.205316 
L 314.453668 165.385124 
L 329.892404 165.47851 
L 345.331139 165.214033 
L 360.769874 163.125691 
L 376.208609 164.334171 
L 391.647344 161.459661 
L 407.08608 164.325774 
" style="fill:none;stroke:#1b9e77;stroke-linecap:square;stroke-opacity:0.5;stroke-width:1.5;"/>
   </g>
   <g id="line2d_102">
    <path clip-path="url(#padb7eb967c)" d="M 51.99517 165.082071 
L 67.433906 165.817307 
L 82.872641 165.867139 
L 98.311376 165.484244 
L 113.750111 151.424586 
L 129.188846 160.861172 
L 144.627582 164.993097 
L 160.066317 150.319357 
L 175.505052 130.897288 
L 190.943787 149.314779 
L 206.382522 163.313245 
L 221.821257 164.158733 
L 237.259993 164.759734 
L 252.698728 165.257482 
L 268.137463 165.594234 
L 283.576198 165.73829 
L 299.014933 165.741056 
L 314.453668 165.822549 
L 329.892404 165.804347 
L 345.331139 165.62694 
L 360.769874 152.043246 
L 376.208609 130.485395 
L 391.647344 155.030833 
L 407.08608 162.924903 
" style="fill:none;stroke:#1b9e77;stroke-linecap:square;stroke-opacity:0.5;stroke-width:1.5;"/>
   </g>
   <g id="line2d_103">
    <path clip-path="url(#padb7eb967c)" d="M 51.99517 165.822604 
L 67.433906 165.708321 
L 82.872641 165.827366 
L 98.311376 165.900319 
L 113.750111 165.91563 
L 129.188846 165.9175 
L 144.627582 165.914852 
L 160.066317 165.924877 
L 175.505052 165.930306 
L 190.943787 165.932917 
L 206.382522 165.930947 
L 221.821257 165.941508 
L 237.259993 165.946873 
L 252.698728 165.951107 
L 268.137463 165.937708 
L 283.576198 165.790001 
L 299.014933 163.198379 
L 314.453668 148.196528 
L 329.892404 115.739619 
L 345.331139 108.499874 
L 360.769874 143.844361 
L 376.208609 159.213383 
L 391.647344 163.74494 
L 407.08608 165.632102 
" style="fill:none;stroke:#1b9e77;stroke-linecap:square;stroke-opacity:0.5;stroke-width:1.5;"/>
   </g>
   <g id="line2d_104">
    <path clip-path="url(#padb7eb967c)" d="M 51.99517 139.460564 
L 67.433906 111.285655 
L 82.872641 147.886078 
L 98.311376 155.945353 
L 113.750111 159.813618 
L 129.188846 158.753301 
L 144.627582 156.618688 
L 160.066317 150.218231 
L 175.505052 158.089688 
L 190.943787 162.85574 
L 206.382522 165.393235 
L 221.821257 165.671517 
L 237.259993 165.697429 
L 252.698728 165.815204 
L 268.137463 165.891024 
L 283.576198 165.898737 
L 299.014933 165.838949 
L 314.453668 165.870103 
L 329.892404 165.906531 
L 345.331139 165.827371 
L 360.769874 165.92689 
L 376.208609 165.917625 
L 391.647344 165.910474 
L 407.08608 165.870018 
" style="fill:none;stroke:#1b9e77;stroke-linecap:square;stroke-opacity:0.5;stroke-width:1.5;"/>
   </g>
   <g id="line2d_105">
    <path clip-path="url(#padb7eb967c)" d="M 51.99517 165.748968 
L 67.433906 160.496236 
L 82.872641 164.660126 
L 98.311376 165.148751 
L 113.750111 164.746921 
L 129.188846 165.347319 
L 144.627582 137.914363 
L 160.066317 144.463429 
L 175.505052 140.080823 
L 190.943787 121.044836 
L 206.382522 153.077848 
L 221.821257 154.734054 
L 237.259993 163.387208 
L 252.698728 163.024498 
L 268.137463 165.843542 
L 283.576198 165.755161 
L 299.014933 165.746481 
L 314.453668 165.817387 
L 329.892404 165.889227 
L 345.331139 165.913267 
L 360.769874 165.90726 
L 376.208609 165.94534 
L 391.647344 165.95476 
L 407.08608 165.714216 
" style="fill:none;stroke:#1b9e77;stroke-linecap:square;stroke-opacity:0.5;stroke-width:1.5;"/>
   </g>
   <g id="line2d_106">
    <path clip-path="url(#padb7eb967c)" d="M 51.99517 165.934079 
L 67.433906 165.909262 
L 82.872641 165.926928 
L 98.311376 165.946324 
L 113.750111 165.950197 
L 129.188846 165.95644 
L 144.627582 165.956951 
L 160.066317 165.950287 
L 175.505052 165.907713 
L 190.943787 165.576708 
L 206.382522 157.669023 
L 221.821257 154.891546 
L 237.259993 159.059724 
L 252.698728 144.198683 
L 268.137463 122.090007 
L 283.576198 146.240734 
L 299.014933 157.035661 
L 314.453668 151.987509 
L 329.892404 152.949689 
L 345.331139 162.183113 
L 360.769874 162.072259 
L 376.208609 164.357198 
L 391.647344 164.096187 
L 407.08608 164.5158 
" style="fill:none;stroke:#1b9e77;stroke-linecap:square;stroke-opacity:0.5;stroke-width:1.5;"/>
   </g>
   <g id="line2d_107">
    <path clip-path="url(#padb7eb967c)" d="M 51.99517 165.937548 
L 67.433906 165.901876 
L 82.872641 162.848771 
L 98.311376 150.248448 
L 113.750111 165.797747 
L 129.188846 165.914271 
L 144.627582 165.912218 
L 160.066317 165.803274 
L 175.505052 164.318274 
L 190.943787 162.633916 
L 206.382522 164.759635 
L 221.821257 165.393837 
L 237.259993 145.447959 
L 252.698728 161.848935 
L 268.137463 163.168039 
L 283.576198 155.285366 
L 299.014933 97.580028 
L 314.453668 150.309441 
L 329.892404 158.498853 
L 345.331139 161.739127 
L 360.769874 165.636401 
L 376.208609 165.679898 
L 391.647344 165.769 
L 407.08608 165.929157 
" style="fill:none;stroke:#1b9e77;stroke-linecap:square;stroke-opacity:0.5;stroke-width:1.5;"/>
   </g>
   <g id="line2d_108">
    <path clip-path="url(#padb7eb967c)" d="M 51.99517 165.916776 
L 67.433906 165.907306 
L 82.872641 165.930855 
L 98.311376 165.950679 
L 113.750111 165.955237 
L 129.188846 165.958022 
L 144.627582 165.958281 
L 160.066317 165.955917 
L 175.505052 165.945314 
L 190.943787 165.932174 
L 206.382522 165.76608 
L 221.821257 165.311622 
L 237.259993 165.572794 
L 252.698728 150.315587 
L 268.137463 150.138011 
L 283.576198 153.781307 
L 299.014933 151.672367 
L 314.453668 140.120016 
L 329.892404 137.851839 
L 345.331139 131.362585 
L 360.769874 156.433963 
L 376.208609 164.100536 
L 391.647344 165.026492 
L 407.08608 165.498262 
" style="fill:none;stroke:#1b9e77;stroke-linecap:square;stroke-opacity:0.5;stroke-width:1.5;"/>
   </g>
   <g id="line2d_109">
    <path clip-path="url(#padb7eb967c)" d="M 51.99517 123.24928 
L 67.433906 136.207492 
L 82.872641 148.952285 
L 98.311376 163.237441 
L 113.750111 165.242062 
L 129.188846 165.55671 
L 144.627582 165.386622 
L 160.066317 165.103303 
L 175.505052 165.023774 
L 190.943787 165.161674 
L 206.382522 165.192884 
L 221.821257 164.084324 
L 237.259993 161.006814 
L 252.698728 159.493846 
L 268.137463 161.861675 
L 283.576198 162.410443 
L 299.014933 161.42075 
L 314.453668 160.270373 
L 329.892404 160.145102 
L 345.331139 162.159184 
L 360.769874 163.375599 
L 376.208609 163.211021 
L 391.647344 159.178145 
L 407.08608 155.431221 
" style="fill:none;stroke:#1b9e77;stroke-linecap:square;stroke-opacity:0.5;stroke-width:1.5;"/>
   </g>
   <g id="line2d_110">
    <path clip-path="url(#padb7eb967c)" d="M 51.99517 161.956951 
L 67.433906 162.61631 
L 82.872641 157.876975 
L 98.311376 155.774538 
L 113.750111 156.973269 
L 129.188846 128.592776 
L 144.627582 127.98323 
L 160.066317 128.200348 
L 175.505052 162.179666 
L 190.943787 165.051995 
L 206.382522 165.385635 
L 221.821257 165.671411 
L 237.259993 165.816214 
L 252.698728 165.87974 
L 268.137463 165.874393 
L 283.576198 165.895296 
L 299.014933 165.91207 
L 314.453668 165.799584 
L 329.892404 165.420768 
L 345.331139 165.851964 
L 360.769874 165.803647 
L 376.208609 165.834234 
L 391.647344 163.663498 
L 407.08608 162.347512 
" style="fill:none;stroke:#1b9e77;stroke-linecap:square;stroke-opacity:0.5;stroke-width:1.5;"/>
   </g>
   <g id="line2d_111">
    <path clip-path="url(#padb7eb967c)" d="M 51.99517 165.519203 
L 67.433906 163.591439 
L 82.872641 162.171791 
L 98.311376 162.661505 
L 113.750111 164.248624 
L 129.188846 164.96674 
L 144.627582 165.380717 
L 160.066317 165.574016 
L 175.505052 165.6384 
L 190.943787 165.731794 
L 206.382522 165.798933 
L 221.821257 165.859486 
L 237.259993 165.884794 
L 252.698728 165.940144 
L 268.137463 165.950851 
L 283.576198 165.70989 
L 299.014933 163.43995 
L 314.453668 165.245222 
L 329.892404 159.126426 
L 345.331139 133.284248 
L 360.769874 134.703803 
L 376.208609 124.791073 
L 391.647344 138.764389 
L 407.08608 162.378585 
" style="fill:none;stroke:#1b9e77;stroke-linecap:square;stroke-opacity:0.5;stroke-width:1.5;"/>
   </g>
   <g id="line2d_112">
    <path clip-path="url(#padb7eb967c)" d="M 51.99517 83.400433 
L 67.433906 158.12898 
L 82.872641 165.899825 
L 98.311376 165.95039 
L 113.750111 165.95039 
L 129.188846 165.95039 
L 144.627582 165.95039 
L 160.066317 165.95039 
L 175.505052 165.95039 
L 190.943787 165.95039 
L 206.382522 165.95039 
L 221.821257 165.95039 
L 237.259993 165.95039 
L 252.698728 165.95039 
L 268.137463 165.95039 
L 283.576198 165.95039 
L 299.014933 165.95039 
L 314.453668 165.95039 
L 329.892404 165.95039 
L 345.331139 160.85919 
L 360.769874 143.290972 
L 376.208609 146.867148 
L 391.647344 155.519413 
L 407.08608 153.189825 
" style="fill:none;stroke:#d95f02;stroke-linecap:square;stroke-width:1.5;"/>
   </g>
   <g id="patch_3">
    <path d="M 34.240625 173.52 
L 34.240625 7.2 
" style="fill:none;stroke:#000000;stroke-linecap:square;stroke-linejoin:miter;stroke-width:0.8;"/>
   </g>
   <g id="patch_4">
    <path d="M 34.240625 173.52 
L 424.840625 173.52 
" style="fill:none;stroke:#000000;stroke-linecap:square;stroke-linejoin:miter;stroke-width:0.8;"/>
   </g>
   <g id="legend_1">
    <g id="patch_5">
     <path d="M 366.673438 29.878125 
L 417.840625 29.878125 
Q 419.840625 29.878125 419.840625 27.878125 
L 419.840625 14.2 
Q 419.840625 12.2 417.840625 12.2 
L 366.673438 12.2 
Q 364.673438 12.2 364.673438 14.2 
L 364.673438 27.878125 
Q 364.673438 29.878125 366.673438 29.878125 
z
" style="fill:#ffffff;opacity:0.8;stroke:#cccccc;stroke-linejoin:miter;"/>
    </g>
    <g id="line2d_113">
     <path d="M 368.673438 20.298438 
L 388.673438 20.298438 
" style="fill:none;stroke:#d95f02;stroke-linecap:square;stroke-width:1.5;"/>
    </g>
    <g id="line2d_114"/>
    <g id="text_14">
     <!-- real -->
     <defs>
      <path d="M 9.421875 75.984375 
L 18.40625 75.984375 
L 18.40625 0 
L 9.421875 0 
z
" id="DejaVuSans-108"/>
     </defs>
     <g transform="translate(396.673438 23.798438)scale(0.1 -0.1)">
      <use xlink:href="#DejaVuSans-114"/>
      <use x="41.082031" xlink:href="#DejaVuSans-101"/>
      <use x="102.605469" xlink:href="#DejaVuSans-97"/>
      <use x="163.884766" xlink:href="#DejaVuSans-108"/>
     </g>
    </g>
   </g>
  </g>
 </g>
 <defs>
  <clipPath id="padb7eb967c">
   <rect height="166.32" width="390.6" x="34.240625" y="7.2"/>
  </clipPath>
 </defs>
</svg>
