<?xml version="1.0" encoding="utf-8" standalone="no"?>
<!DOCTYPE svg PUBLIC "-//W3C//DTD SVG 1.1//EN"
  "http://www.w3.org/Graphics/SVG/1.1/DTD/svg11.dtd">
<!-- Created with matplotlib (https://matplotlib.org/) -->
<svg height="211.683922pt" version="1.1" viewBox="0 0 436.087315 211.683922" width="436.087315pt" xmlns="http://www.w3.org/2000/svg" xmlns:xlink="http://www.w3.org/1999/xlink">
 <defs>
  <style type="text/css">
*{stroke-linecap:butt;stroke-linejoin:round;}
  </style>
 </defs>
 <g id="figure_1">
  <g id="patch_1">
   <path d="M 0 211.683922 
L 436.087315 211.683922 
L 436.087315 0 
L 0 0 
z
" style="fill:#ffffff;"/>
  </g>
  <g id="axes_1">
   <g id="patch_2">
    <path d="M 34.240625 174.127672 
L 424.840625 174.127672 
L 424.840625 7.807672 
L 34.240625 7.807672 
z
" style="fill:#ffffff;"/>
   </g>
   <g id="matplotlib.axis_1">
    <g id="xtick_1">
     <g id="line2d_1">
      <defs>
       <path d="M 0 0 
L 0 3.5 
" id="m8838d82f29" style="stroke:#000000;stroke-width:0.8;"/>
      </defs>
      <g>
       <use style="stroke:#000000;stroke-width:0.8;" x="36.556435" xlink:href="#m8838d82f29" y="174.127672"/>
      </g>
     </g>
     <g id="text_1">
      <!-- 0 -->
      <defs>
       <path d="M 31.78125 66.40625 
Q 24.171875 66.40625 20.328125 58.90625 
Q 16.5 51.421875 16.5 36.375 
Q 16.5 21.390625 20.328125 13.890625 
Q 24.171875 6.390625 31.78125 6.390625 
Q 39.453125 6.390625 43.28125 13.890625 
Q 47.125 21.390625 47.125 36.375 
Q 47.125 51.421875 43.28125 58.90625 
Q 39.453125 66.40625 31.78125 66.40625 
z
M 31.78125 74.21875 
Q 44.046875 74.21875 50.515625 64.515625 
Q 56.984375 54.828125 56.984375 36.375 
Q 56.984375 17.96875 50.515625 8.265625 
Q 44.046875 -1.421875 31.78125 -1.421875 
Q 19.53125 -1.421875 13.0625 8.265625 
Q 6.59375 17.96875 6.59375 36.375 
Q 6.59375 54.828125 13.0625 64.515625 
Q 19.53125 74.21875 31.78125 74.21875 
z
" id="DejaVuSans-48"/>
      </defs>
      <g transform="translate(33.375185 188.726109)scale(0.1 -0.1)">
       <use xlink:href="#DejaVuSans-48"/>
      </g>
     </g>
    </g>
    <g id="xtick_2">
     <g id="line2d_2">
      <g>
       <use style="stroke:#000000;stroke-width:0.8;" x="113.750111" xlink:href="#m8838d82f29" y="174.127672"/>
      </g>
     </g>
     <g id="text_2">
      <!-- 5 -->
      <defs>
       <path d="M 10.796875 72.90625 
L 49.515625 72.90625 
L 49.515625 64.59375 
L 19.828125 64.59375 
L 19.828125 46.734375 
Q 21.96875 47.46875 24.109375 47.828125 
Q 26.265625 48.1875 28.421875 48.1875 
Q 40.625 48.1875 47.75 41.5 
Q 54.890625 34.8125 54.890625 23.390625 
Q 54.890625 11.625 47.5625 5.09375 
Q 40.234375 -1.421875 26.90625 -1.421875 
Q 22.3125 -1.421875 17.546875 -0.640625 
Q 12.796875 0.140625 7.71875 1.703125 
L 7.71875 11.625 
Q 12.109375 9.234375 16.796875 8.0625 
Q 21.484375 6.890625 26.703125 6.890625 
Q 35.15625 6.890625 40.078125 11.328125 
Q 45.015625 15.765625 45.015625 23.390625 
Q 45.015625 31 40.078125 35.4375 
Q 35.15625 39.890625 26.703125 39.890625 
Q 22.75 39.890625 18.8125 39.015625 
Q 14.890625 38.140625 10.796875 36.28125 
z
" id="DejaVuSans-53"/>
      </defs>
      <g transform="translate(110.568861 188.726109)scale(0.1 -0.1)">
       <use xlink:href="#DejaVuSans-53"/>
      </g>
     </g>
    </g>
    <g id="xtick_3">
     <g id="line2d_3">
      <g>
       <use style="stroke:#000000;stroke-width:0.8;" x="190.943787" xlink:href="#m8838d82f29" y="174.127672"/>
      </g>
     </g>
     <g id="text_3">
      <!-- 10 -->
      <defs>
       <path d="M 12.40625 8.296875 
L 28.515625 8.296875 
L 28.515625 63.921875 
L 10.984375 60.40625 
L 10.984375 69.390625 
L 28.421875 72.90625 
L 38.28125 72.90625 
L 38.28125 8.296875 
L 54.390625 8.296875 
L 54.390625 0 
L 12.40625 0 
z
" id="DejaVuSans-49"/>
      </defs>
      <g transform="translate(184.581287 188.726109)scale(0.1 -0.1)">
       <use xlink:href="#DejaVuSans-49"/>
       <use x="63.623047" xlink:href="#DejaVuSans-48"/>
      </g>
     </g>
    </g>
    <g id="xtick_4">
     <g id="line2d_4">
      <g>
       <use style="stroke:#000000;stroke-width:0.8;" x="268.137463" xlink:href="#m8838d82f29" y="174.127672"/>
      </g>
     </g>
     <g id="text_4">
      <!-- 15 -->
      <g transform="translate(261.774963 188.726109)scale(0.1 -0.1)">
       <use xlink:href="#DejaVuSans-49"/>
       <use x="63.623047" xlink:href="#DejaVuSans-53"/>
      </g>
     </g>
    </g>
    <g id="xtick_5">
     <g id="line2d_5">
      <g>
       <use style="stroke:#000000;stroke-width:0.8;" x="345.331139" xlink:href="#m8838d82f29" y="174.127672"/>
      </g>
     </g>
     <g id="text_5">
      <!-- 20 -->
      <defs>
       <path d="M 19.1875 8.296875 
L 53.609375 8.296875 
L 53.609375 0 
L 7.328125 0 
L 7.328125 8.296875 
Q 12.9375 14.109375 22.625 23.890625 
Q 32.328125 33.6875 34.8125 36.53125 
Q 39.546875 41.84375 41.421875 45.53125 
Q 43.3125 49.21875 43.3125 52.78125 
Q 43.3125 58.59375 39.234375 62.25 
Q 35.15625 65.921875 28.609375 65.921875 
Q 23.96875 65.921875 18.8125 64.3125 
Q 13.671875 62.703125 7.8125 59.421875 
L 7.8125 69.390625 
Q 13.765625 71.78125 18.9375 73 
Q 24.125 74.21875 28.421875 74.21875 
Q 39.75 74.21875 46.484375 68.546875 
Q 53.21875 62.890625 53.21875 53.421875 
Q 53.21875 48.921875 51.53125 44.890625 
Q 49.859375 40.875 45.40625 35.40625 
Q 44.1875 33.984375 37.640625 27.21875 
Q 31.109375 20.453125 19.1875 8.296875 
z
" id="DejaVuSans-50"/>
      </defs>
      <g transform="translate(338.968639 188.726109)scale(0.1 -0.1)">
       <use xlink:href="#DejaVuSans-50"/>
       <use x="63.623047" xlink:href="#DejaVuSans-48"/>
      </g>
     </g>
    </g>
    <g id="xtick_6">
     <g id="line2d_6">
      <g>
       <use style="stroke:#000000;stroke-width:0.8;" x="422.524815" xlink:href="#m8838d82f29" y="174.127672"/>
      </g>
     </g>
     <g id="text_6">
      <!-- 25 -->
      <g transform="translate(416.162315 188.726109)scale(0.1 -0.1)">
       <use xlink:href="#DejaVuSans-50"/>
       <use x="63.623047" xlink:href="#DejaVuSans-53"/>
      </g>
     </g>
    </g>
    <g id="text_7">
     <!-- hour -->
     <defs>
      <path d="M 54.890625 33.015625 
L 54.890625 0 
L 45.90625 0 
L 45.90625 32.71875 
Q 45.90625 40.484375 42.875 44.328125 
Q 39.84375 48.1875 33.796875 48.1875 
Q 26.515625 48.1875 22.3125 43.546875 
Q 18.109375 38.921875 18.109375 30.90625 
L 18.109375 0 
L 9.078125 0 
L 9.078125 75.984375 
L 18.109375 75.984375 
L 18.109375 46.1875 
Q 21.34375 51.125 25.703125 53.5625 
Q 30.078125 56 35.796875 56 
Q 45.21875 56 50.046875 50.171875 
Q 54.890625 44.34375 54.890625 33.015625 
z
" id="DejaVuSans-104"/>
      <path d="M 30.609375 48.390625 
Q 23.390625 48.390625 19.1875 42.75 
Q 14.984375 37.109375 14.984375 27.296875 
Q 14.984375 17.484375 19.15625 11.84375 
Q 23.34375 6.203125 30.609375 6.203125 
Q 37.796875 6.203125 41.984375 11.859375 
Q 46.1875 17.53125 46.1875 27.296875 
Q 46.1875 37.015625 41.984375 42.703125 
Q 37.796875 48.390625 30.609375 48.390625 
z
M 30.609375 56 
Q 42.328125 56 49.015625 48.375 
Q 55.71875 40.765625 55.71875 27.296875 
Q 55.71875 13.875 49.015625 6.21875 
Q 42.328125 -1.421875 30.609375 -1.421875 
Q 18.84375 -1.421875 12.171875 6.21875 
Q 5.515625 13.875 5.515625 27.296875 
Q 5.515625 40.765625 12.171875 48.375 
Q 18.84375 56 30.609375 56 
z
" id="DejaVuSans-111"/>
      <path d="M 8.5 21.578125 
L 8.5 54.6875 
L 17.484375 54.6875 
L 17.484375 21.921875 
Q 17.484375 14.15625 20.5 10.265625 
Q 23.53125 6.390625 29.59375 6.390625 
Q 36.859375 6.390625 41.078125 11.03125 
Q 45.3125 15.671875 45.3125 23.6875 
L 45.3125 54.6875 
L 54.296875 54.6875 
L 54.296875 0 
L 45.3125 0 
L 45.3125 8.40625 
Q 42.046875 3.421875 37.71875 1 
Q 33.40625 -1.421875 27.6875 -1.421875 
Q 18.265625 -1.421875 13.375 4.4375 
Q 8.5 10.296875 8.5 21.578125 
z
M 31.109375 56 
z
" id="DejaVuSans-117"/>
      <path d="M 41.109375 46.296875 
Q 39.59375 47.171875 37.8125 47.578125 
Q 36.03125 48 33.890625 48 
Q 26.265625 48 22.1875 43.046875 
Q 18.109375 38.09375 18.109375 28.8125 
L 18.109375 0 
L 9.078125 0 
L 9.078125 54.6875 
L 18.109375 54.6875 
L 18.109375 46.1875 
Q 20.953125 51.171875 25.484375 53.578125 
Q 30.03125 56 36.53125 56 
Q 37.453125 56 38.578125 55.875 
Q 39.703125 55.765625 41.0625 55.515625 
z
" id="DejaVuSans-114"/>
     </defs>
     <g transform="translate(218.088281 202.404234)scale(0.1 -0.1)">
      <use xlink:href="#DejaVuSans-104"/>
      <use x="63.378906" xlink:href="#DejaVuSans-111"/>
      <use x="124.560547" xlink:href="#DejaVuSans-117"/>
      <use x="187.939453" xlink:href="#DejaVuSans-114"/>
     </g>
    </g>
   </g>
   <g id="matplotlib.axis_2">
    <g id="ytick_1">
     <g id="line2d_7">
      <defs>
       <path d="M 0 0 
L -3.5 0 
" id="m28d1f7ff71" style="stroke:#000000;stroke-width:0.8;"/>
      </defs>
      <g>
       <use style="stroke:#000000;stroke-width:0.8;" x="34.240625" xlink:href="#m28d1f7ff71" y="166.571308"/>
      </g>
     </g>
     <g id="text_8">
      <!-- 0 -->
      <g transform="translate(20.878125 170.370527)scale(0.1 -0.1)">
       <use xlink:href="#DejaVuSans-48"/>
      </g>
     </g>
    </g>
    <g id="ytick_2">
     <g id="line2d_8">
      <g>
       <use style="stroke:#000000;stroke-width:0.8;" x="34.240625" xlink:href="#m28d1f7ff71" y="127.678286"/>
      </g>
     </g>
     <g id="text_9">
      <!-- 1 -->
      <g transform="translate(20.878125 131.477504)scale(0.1 -0.1)">
       <use xlink:href="#DejaVuSans-49"/>
      </g>
     </g>
    </g>
    <g id="ytick_3">
     <g id="line2d_9">
      <g>
       <use style="stroke:#000000;stroke-width:0.8;" x="34.240625" xlink:href="#m28d1f7ff71" y="88.785263"/>
      </g>
     </g>
     <g id="text_10">
      <!-- 2 -->
      <g transform="translate(20.878125 92.584482)scale(0.1 -0.1)">
       <use xlink:href="#DejaVuSans-50"/>
      </g>
     </g>
    </g>
    <g id="ytick_4">
     <g id="line2d_10">
      <g>
       <use style="stroke:#000000;stroke-width:0.8;" x="34.240625" xlink:href="#m28d1f7ff71" y="49.892241"/>
      </g>
     </g>
     <g id="text_11">
      <!-- 3 -->
      <defs>
       <path d="M 40.578125 39.3125 
Q 47.65625 37.796875 51.625 33 
Q 55.609375 28.21875 55.609375 21.1875 
Q 55.609375 10.40625 48.1875 4.484375 
Q 40.765625 -1.421875 27.09375 -1.421875 
Q 22.515625 -1.421875 17.65625 -0.515625 
Q 12.796875 0.390625 7.625 2.203125 
L 7.625 11.71875 
Q 11.71875 9.328125 16.59375 8.109375 
Q 21.484375 6.890625 26.8125 6.890625 
Q 36.078125 6.890625 40.9375 10.546875 
Q 45.796875 14.203125 45.796875 21.1875 
Q 45.796875 27.640625 41.28125 31.265625 
Q 36.765625 34.90625 28.71875 34.90625 
L 20.21875 34.90625 
L 20.21875 43.015625 
L 29.109375 43.015625 
Q 36.375 43.015625 40.234375 45.921875 
Q 44.09375 48.828125 44.09375 54.296875 
Q 44.09375 59.90625 40.109375 62.90625 
Q 36.140625 65.921875 28.71875 65.921875 
Q 24.65625 65.921875 20.015625 65.03125 
Q 15.375 64.15625 9.8125 62.3125 
L 9.8125 71.09375 
Q 15.4375 72.65625 20.34375 73.4375 
Q 25.25 74.21875 29.59375 74.21875 
Q 40.828125 74.21875 47.359375 69.109375 
Q 53.90625 64.015625 53.90625 55.328125 
Q 53.90625 49.265625 50.4375 45.09375 
Q 46.96875 40.921875 40.578125 39.3125 
z
" id="DejaVuSans-51"/>
      </defs>
      <g transform="translate(20.878125 53.69146)scale(0.1 -0.1)">
       <use xlink:href="#DejaVuSans-51"/>
      </g>
     </g>
    </g>
    <g id="ytick_5">
     <g id="line2d_11">
      <g>
       <use style="stroke:#000000;stroke-width:0.8;" x="34.240625" xlink:href="#m28d1f7ff71" y="10.999219"/>
      </g>
     </g>
     <g id="text_12">
      <!-- 4 -->
      <defs>
       <path d="M 37.796875 64.3125 
L 12.890625 25.390625 
L 37.796875 25.390625 
z
M 35.203125 72.90625 
L 47.609375 72.90625 
L 47.609375 25.390625 
L 58.015625 25.390625 
L 58.015625 17.1875 
L 47.609375 17.1875 
L 47.609375 0 
L 37.796875 0 
L 37.796875 17.1875 
L 4.890625 17.1875 
L 4.890625 26.703125 
z
" id="DejaVuSans-52"/>
      </defs>
      <g transform="translate(20.878125 14.798437)scale(0.1 -0.1)">
       <use xlink:href="#DejaVuSans-52"/>
      </g>
     </g>
    </g>
    <g id="text_13">
     <!-- precipitation [mm/hour] -->
     <defs>
      <path d="M 18.109375 8.203125 
L 18.109375 -20.796875 
L 9.078125 -20.796875 
L 9.078125 54.6875 
L 18.109375 54.6875 
L 18.109375 46.390625 
Q 20.953125 51.265625 25.265625 53.625 
Q 29.59375 56 35.59375 56 
Q 45.5625 56 51.78125 48.09375 
Q 58.015625 40.1875 58.015625 27.296875 
Q 58.015625 14.40625 51.78125 6.484375 
Q 45.5625 -1.421875 35.59375 -1.421875 
Q 29.59375 -1.421875 25.265625 0.953125 
Q 20.953125 3.328125 18.109375 8.203125 
z
M 48.6875 27.296875 
Q 48.6875 37.203125 44.609375 42.84375 
Q 40.53125 48.484375 33.40625 48.484375 
Q 26.265625 48.484375 22.1875 42.84375 
Q 18.109375 37.203125 18.109375 27.296875 
Q 18.109375 17.390625 22.1875 11.75 
Q 26.265625 6.109375 33.40625 6.109375 
Q 40.53125 6.109375 44.609375 11.75 
Q 48.6875 17.390625 48.6875 27.296875 
z
" id="DejaVuSans-112"/>
      <path d="M 56.203125 29.59375 
L 56.203125 25.203125 
L 14.890625 25.203125 
Q 15.484375 15.921875 20.484375 11.0625 
Q 25.484375 6.203125 34.421875 6.203125 
Q 39.59375 6.203125 44.453125 7.46875 
Q 49.3125 8.734375 54.109375 11.28125 
L 54.109375 2.78125 
Q 49.265625 0.734375 44.1875 -0.34375 
Q 39.109375 -1.421875 33.890625 -1.421875 
Q 20.796875 -1.421875 13.15625 6.1875 
Q 5.515625 13.8125 5.515625 26.8125 
Q 5.515625 40.234375 12.765625 48.109375 
Q 20.015625 56 32.328125 56 
Q 43.359375 56 49.78125 48.890625 
Q 56.203125 41.796875 56.203125 29.59375 
z
M 47.21875 32.234375 
Q 47.125 39.59375 43.09375 43.984375 
Q 39.0625 48.390625 32.421875 48.390625 
Q 24.90625 48.390625 20.390625 44.140625 
Q 15.875 39.890625 15.1875 32.171875 
z
" id="DejaVuSans-101"/>
      <path d="M 48.78125 52.59375 
L 48.78125 44.1875 
Q 44.96875 46.296875 41.140625 47.34375 
Q 37.3125 48.390625 33.40625 48.390625 
Q 24.65625 48.390625 19.8125 42.84375 
Q 14.984375 37.3125 14.984375 27.296875 
Q 14.984375 17.28125 19.8125 11.734375 
Q 24.65625 6.203125 33.40625 6.203125 
Q 37.3125 6.203125 41.140625 7.25 
Q 44.96875 8.296875 48.78125 10.40625 
L 48.78125 2.09375 
Q 45.015625 0.34375 40.984375 -0.53125 
Q 36.96875 -1.421875 32.421875 -1.421875 
Q 20.0625 -1.421875 12.78125 6.34375 
Q 5.515625 14.109375 5.515625 27.296875 
Q 5.515625 40.671875 12.859375 48.328125 
Q 20.21875 56 33.015625 56 
Q 37.15625 56 41.109375 55.140625 
Q 45.0625 54.296875 48.78125 52.59375 
z
" id="DejaVuSans-99"/>
      <path d="M 9.421875 54.6875 
L 18.40625 54.6875 
L 18.40625 0 
L 9.421875 0 
z
M 9.421875 75.984375 
L 18.40625 75.984375 
L 18.40625 64.59375 
L 9.421875 64.59375 
z
" id="DejaVuSans-105"/>
      <path d="M 18.3125 70.21875 
L 18.3125 54.6875 
L 36.8125 54.6875 
L 36.8125 47.703125 
L 18.3125 47.703125 
L 18.3125 18.015625 
Q 18.3125 11.328125 20.140625 9.421875 
Q 21.96875 7.515625 27.59375 7.515625 
L 36.8125 7.515625 
L 36.8125 0 
L 27.59375 0 
Q 17.1875 0 13.234375 3.875 
Q 9.28125 7.765625 9.28125 18.015625 
L 9.28125 47.703125 
L 2.6875 47.703125 
L 2.6875 54.6875 
L 9.28125 54.6875 
L 9.28125 70.21875 
z
" id="DejaVuSans-116"/>
      <path d="M 34.28125 27.484375 
Q 23.390625 27.484375 19.1875 25 
Q 14.984375 22.515625 14.984375 16.5 
Q 14.984375 11.71875 18.140625 8.90625 
Q 21.296875 6.109375 26.703125 6.109375 
Q 34.1875 6.109375 38.703125 11.40625 
Q 43.21875 16.703125 43.21875 25.484375 
L 43.21875 27.484375 
z
M 52.203125 31.203125 
L 52.203125 0 
L 43.21875 0 
L 43.21875 8.296875 
Q 40.140625 3.328125 35.546875 0.953125 
Q 30.953125 -1.421875 24.3125 -1.421875 
Q 15.921875 -1.421875 10.953125 3.296875 
Q 6 8.015625 6 15.921875 
Q 6 25.140625 12.171875 29.828125 
Q 18.359375 34.515625 30.609375 34.515625 
L 43.21875 34.515625 
L 43.21875 35.40625 
Q 43.21875 41.609375 39.140625 45 
Q 35.0625 48.390625 27.6875 48.390625 
Q 23 48.390625 18.546875 47.265625 
Q 14.109375 46.140625 10.015625 43.890625 
L 10.015625 52.203125 
Q 14.9375 54.109375 19.578125 55.046875 
Q 24.21875 56 28.609375 56 
Q 40.484375 56 46.34375 49.84375 
Q 52.203125 43.703125 52.203125 31.203125 
z
" id="DejaVuSans-97"/>
      <path d="M 54.890625 33.015625 
L 54.890625 0 
L 45.90625 0 
L 45.90625 32.71875 
Q 45.90625 40.484375 42.875 44.328125 
Q 39.84375 48.1875 33.796875 48.1875 
Q 26.515625 48.1875 22.3125 43.546875 
Q 18.109375 38.921875 18.109375 30.90625 
L 18.109375 0 
L 9.078125 0 
L 9.078125 54.6875 
L 18.109375 54.6875 
L 18.109375 46.1875 
Q 21.34375 51.125 25.703125 53.5625 
Q 30.078125 56 35.796875 56 
Q 45.21875 56 50.046875 50.171875 
Q 54.890625 44.34375 54.890625 33.015625 
z
" id="DejaVuSans-110"/>
      <path id="DejaVuSans-32"/>
      <path d="M 8.59375 75.984375 
L 29.296875 75.984375 
L 29.296875 69 
L 17.578125 69 
L 17.578125 -6.203125 
L 29.296875 -6.203125 
L 29.296875 -13.1875 
L 8.59375 -13.1875 
z
" id="DejaVuSans-91"/>
      <path d="M 52 44.1875 
Q 55.375 50.25 60.0625 53.125 
Q 64.75 56 71.09375 56 
Q 79.640625 56 84.28125 50.015625 
Q 88.921875 44.046875 88.921875 33.015625 
L 88.921875 0 
L 79.890625 0 
L 79.890625 32.71875 
Q 79.890625 40.578125 77.09375 44.375 
Q 74.3125 48.1875 68.609375 48.1875 
Q 61.625 48.1875 57.5625 43.546875 
Q 53.515625 38.921875 53.515625 30.90625 
L 53.515625 0 
L 44.484375 0 
L 44.484375 32.71875 
Q 44.484375 40.625 41.703125 44.40625 
Q 38.921875 48.1875 33.109375 48.1875 
Q 26.21875 48.1875 22.15625 43.53125 
Q 18.109375 38.875 18.109375 30.90625 
L 18.109375 0 
L 9.078125 0 
L 9.078125 54.6875 
L 18.109375 54.6875 
L 18.109375 46.1875 
Q 21.1875 51.21875 25.484375 53.609375 
Q 29.78125 56 35.6875 56 
Q 41.65625 56 45.828125 52.96875 
Q 50 49.953125 52 44.1875 
z
" id="DejaVuSans-109"/>
      <path d="M 25.390625 72.90625 
L 33.6875 72.90625 
L 8.296875 -9.28125 
L 0 -9.28125 
z
" id="DejaVuSans-47"/>
      <path d="M 30.421875 75.984375 
L 30.421875 -13.1875 
L 9.71875 -13.1875 
L 9.71875 -6.203125 
L 21.390625 -6.203125 
L 21.390625 69 
L 9.71875 69 
L 9.71875 75.984375 
z
" id="DejaVuSans-93"/>
     </defs>
     <g transform="translate(14.798438 150.943453)rotate(-90)scale(0.1 -0.1)">
      <use xlink:href="#DejaVuSans-112"/>
      <use x="63.476562" xlink:href="#DejaVuSans-114"/>
      <use x="104.558594" xlink:href="#DejaVuSans-101"/>
      <use x="166.082031" xlink:href="#DejaVuSans-99"/>
      <use x="221.0625" xlink:href="#DejaVuSans-105"/>
      <use x="248.845703" xlink:href="#DejaVuSans-112"/>
      <use x="312.322266" xlink:href="#DejaVuSans-105"/>
      <use x="340.105469" xlink:href="#DejaVuSans-116"/>
      <use x="379.314453" xlink:href="#DejaVuSans-97"/>
      <use x="440.59375" xlink:href="#DejaVuSans-116"/>
      <use x="479.802734" xlink:href="#DejaVuSans-105"/>
      <use x="507.585938" xlink:href="#DejaVuSans-111"/>
      <use x="568.767578" xlink:href="#DejaVuSans-110"/>
      <use x="632.146484" xlink:href="#DejaVuSans-32"/>
      <use x="663.933594" xlink:href="#DejaVuSans-91"/>
      <use x="702.947266" xlink:href="#DejaVuSans-109"/>
      <use x="800.359375" xlink:href="#DejaVuSans-109"/>
      <use x="897.771484" xlink:href="#DejaVuSans-47"/>
      <use x="931.462891" xlink:href="#DejaVuSans-104"/>
      <use x="994.841797" xlink:href="#DejaVuSans-111"/>
      <use x="1056.023438" xlink:href="#DejaVuSans-117"/>
      <use x="1119.402344" xlink:href="#DejaVuSans-114"/>
      <use x="1160.515625" xlink:href="#DejaVuSans-93"/>
     </g>
    </g>
   </g>
   <g id="line2d_12">
    <path clip-path="url(#pf04a911127)" d="M 51.99517 166.422202 
L 67.433906 166.27453 
L 82.872641 166.345827 
L 98.311376 166.447271 
L 113.750111 166.473544 
L 129.188846 166.527124 
L 144.627582 166.543587 
L 160.066317 166.548198 
L 175.505052 166.533175 
L 190.943787 166.524958 
L 206.382522 163.360037 
L 221.821257 141.740933 
L 237.259993 142.581913 
L 252.698728 134.662517 
L 268.137463 90.240002 
L 283.576198 146.725266 
L 299.014933 165.776502 
L 314.453668 166.248577 
L 329.892404 162.856855 
L 345.331139 164.335174 
L 360.769874 136.229795 
L 376.208609 165.18058 
L 391.647344 166.185494 
L 407.08608 161.490525 
" style="fill:none;stroke:#1b9e77;stroke-linecap:square;stroke-opacity:0.5;stroke-width:1.5;"/>
   </g>
   <g id="line2d_13">
    <path clip-path="url(#pf04a911127)" d="M 51.99517 166.413042 
L 67.433906 166.350262 
L 82.872641 166.461627 
L 98.311376 166.527046 
L 113.750111 166.408406 
L 129.188846 166.145929 
L 144.627582 98.777143 
L 160.066317 128.476861 
L 175.505052 161.218948 
L 190.943787 163.783186 
L 206.382522 165.835718 
L 221.821257 165.310558 
L 237.259993 124.502674 
L 252.698728 111.299654 
L 268.137463 159.825118 
L 283.576198 165.911198 
L 299.014933 165.253506 
L 314.453668 165.436663 
L 329.892404 166.08123 
L 345.331139 166.394449 
L 360.769874 166.467959 
L 376.208609 166.540553 
L 391.647344 166.551456 
L 407.08608 166.281401 
" style="fill:none;stroke:#1b9e77;stroke-linecap:square;stroke-opacity:0.5;stroke-width:1.5;"/>
   </g>
   <g id="line2d_14">
    <path clip-path="url(#pf04a911127)" d="M 51.99517 166.535578 
L 67.433906 166.264708 
L 82.872641 161.621812 
L 98.311376 139.382475 
L 113.750111 142.228721 
L 129.188846 147.26926 
L 144.627582 146.853991 
L 160.066317 141.327899 
L 175.505052 134.980455 
L 190.943787 149.627098 
L 206.382522 156.872454 
L 221.821257 147.934483 
L 237.259993 151.553444 
L 252.698728 156.644472 
L 268.137463 164.758115 
L 283.576198 166.353612 
L 299.014933 166.425369 
L 314.453668 166.433835 
L 329.892404 166.465886 
L 345.331139 166.520747 
L 360.769874 166.539307 
L 376.208609 166.563135 
L 391.647344 166.566732 
L 407.08608 166.531002 
" style="fill:none;stroke:#1b9e77;stroke-linecap:square;stroke-opacity:0.5;stroke-width:1.5;"/>
   </g>
   <g id="line2d_15">
    <path clip-path="url(#pf04a911127)" d="M 51.99517 166.500711 
L 67.433906 165.964525 
L 82.872641 162.163189 
L 98.311376 162.712177 
L 113.750111 165.440311 
L 129.188846 165.986323 
L 144.627582 165.859642 
L 160.066317 154.482782 
L 175.505052 163.51053 
L 190.943787 166.404806 
L 206.382522 166.195465 
L 221.821257 153.930502 
L 237.259993 153.095806 
L 252.698728 140.231694 
L 268.137463 82.747276 
L 283.576198 118.020825 
L 299.014933 161.496986 
L 314.453668 165.465217 
L 329.892404 165.964636 
L 345.331139 165.025347 
L 360.769874 164.371188 
L 376.208609 164.951179 
L 391.647344 165.376966 
L 407.08608 166.356508 
" style="fill:none;stroke:#1b9e77;stroke-linecap:square;stroke-opacity:0.5;stroke-width:1.5;"/>
   </g>
   <g id="line2d_16">
    <path clip-path="url(#pf04a911127)" d="M 51.99517 165.121952 
L 67.433906 166.010287 
L 82.872641 165.987917 
L 98.311376 165.50655 
L 113.750111 156.702889 
L 129.188846 153.055049 
L 144.627582 163.555427 
L 160.066317 166.408082 
L 175.505052 166.231306 
L 190.943787 158.39481 
L 206.382522 141.000079 
L 221.821257 134.947735 
L 237.259993 158.322237 
L 252.698728 163.803632 
L 268.137463 148.612603 
L 283.576198 153.532018 
L 299.014933 158.579101 
L 314.453668 150.424148 
L 329.892404 162.876259 
L 345.331139 142.213476 
L 360.769874 151.809613 
L 376.208609 155.92667 
L 391.647344 157.7715 
L 407.08608 165.461241 
" style="fill:none;stroke:#1b9e77;stroke-linecap:square;stroke-opacity:0.5;stroke-width:1.5;"/>
   </g>
   <g id="line2d_17">
    <path clip-path="url(#pf04a911127)" d="M 51.99517 166.431574 
L 67.433906 165.531846 
L 82.872641 161.554267 
L 98.311376 142.745548 
L 113.750111 146.882704 
L 129.188846 137.068065 
L 144.627582 147.639392 
L 160.066317 165.586659 
L 175.505052 166.07888 
L 190.943787 163.990287 
L 206.382522 164.226247 
L 221.821257 164.458413 
L 237.259993 156.286402 
L 252.698728 102.241455 
L 268.137463 148.337658 
L 283.576198 154.594952 
L 299.014933 163.512757 
L 314.453668 161.612536 
L 329.892404 164.99433 
L 345.331139 166.461969 
L 360.769874 166.494659 
L 376.208609 165.748029 
L 391.647344 163.400909 
L 407.08608 166.375047 
" style="fill:none;stroke:#1b9e77;stroke-linecap:square;stroke-opacity:0.5;stroke-width:1.5;"/>
   </g>
   <g id="line2d_18">
    <path clip-path="url(#pf04a911127)" d="M 51.99517 166.381985 
L 67.433906 165.537587 
L 82.872641 165.953392 
L 98.311376 166.330195 
L 113.750111 166.448472 
L 129.188846 166.507882 
L 144.627582 166.50881 
L 160.066317 166.538829 
L 175.505052 166.549444 
L 190.943787 166.55429 
L 206.382522 166.546825 
L 221.821257 166.53642 
L 237.259993 166.465284 
L 252.698728 165.777307 
L 268.137463 148.754422 
L 283.576198 145.954644 
L 299.014933 147.455236 
L 314.453668 139.540048 
L 329.892404 118.487114 
L 345.331139 138.324344 
L 360.769874 147.297603 
L 376.208609 145.031481 
L 391.647344 148.206809 
L 407.08608 164.566159 
" style="fill:none;stroke:#1b9e77;stroke-linecap:square;stroke-opacity:0.5;stroke-width:1.5;"/>
   </g>
   <g id="line2d_19">
    <path clip-path="url(#pf04a911127)" d="M 51.99517 150.345174 
L 67.433906 162.52664 
L 82.872641 161.490849 
L 98.311376 163.02589 
L 113.750111 159.086792 
L 129.188846 143.778009 
L 144.627582 164.715429 
L 160.066317 166.414775 
L 175.505052 166.394744 
L 190.943787 166.439102 
L 206.382522 166.137981 
L 221.821257 165.953345 
L 237.259993 166.171973 
L 252.698728 166.311704 
L 268.137463 162.914425 
L 283.576198 143.117949 
L 299.014933 148.637954 
L 314.453668 148.024745 
L 329.892404 145.87611 
L 345.331139 145.488499 
L 360.769874 142.402132 
L 376.208609 141.844121 
L 391.647344 160.212373 
L 407.08608 164.943871 
" style="fill:none;stroke:#1b9e77;stroke-linecap:square;stroke-opacity:0.5;stroke-width:1.5;"/>
   </g>
   <g id="line2d_20">
    <path clip-path="url(#pf04a911127)" d="M 51.99517 164.632383 
L 67.433906 165.707047 
L 82.872641 165.929379 
L 98.311376 166.354909 
L 113.750111 165.97635 
L 129.188846 161.827898 
L 144.627582 163.634466 
L 160.066317 166.43095 
L 175.505052 166.532124 
L 190.943787 166.508329 
L 206.382522 166.199338 
L 221.821257 165.489712 
L 237.259993 165.306641 
L 252.698728 165.843369 
L 268.137463 165.60821 
L 283.576198 155.31651 
L 299.014933 140.815098 
L 314.453668 78.403971 
L 329.892404 109.837113 
L 345.331139 149.157036 
L 360.769874 161.868978 
L 376.208609 163.756801 
L 391.647344 164.814749 
L 407.08608 166.303225 
" style="fill:none;stroke:#1b9e77;stroke-linecap:square;stroke-opacity:0.5;stroke-width:1.5;"/>
   </g>
   <g id="line2d_21">
    <path clip-path="url(#pf04a911127)" d="M 51.99517 165.969645 
L 67.433906 165.381331 
L 82.872641 165.426992 
L 98.311376 166.052694 
L 113.750111 166.215176 
L 129.188846 166.395187 
L 144.627582 166.454059 
L 160.066317 166.47105 
L 175.505052 166.437862 
L 190.943787 166.467723 
L 206.382522 166.499634 
L 221.821257 166.523978 
L 237.259993 166.518565 
L 252.698728 166.530828 
L 268.137463 165.958328 
L 283.576198 110.930888 
L 299.014933 131.2462 
L 314.453668 142.879515 
L 329.892404 156.631249 
L 345.331139 159.098865 
L 360.769874 134.06812 
L 376.208609 147.380952 
L 391.647344 149.008201 
L 407.08608 147.707552 
" style="fill:none;stroke:#1b9e77;stroke-linecap:square;stroke-opacity:0.5;stroke-width:1.5;"/>
   </g>
   <g id="line2d_22">
    <path clip-path="url(#pf04a911127)" d="M 51.99517 158.711718 
L 67.433906 158.886987 
L 82.872641 160.698718 
L 98.311376 164.483686 
L 113.750111 165.563343 
L 129.188846 166.209026 
L 144.627582 166.346662 
L 160.066317 166.40462 
L 175.505052 166.414185 
L 190.943787 166.4196 
L 206.382522 166.393436 
L 221.821257 166.301454 
L 237.259993 166.1442 
L 252.698728 166.221405 
L 268.137463 166.253909 
L 283.576198 166.035123 
L 299.014933 165.970634 
L 314.453668 166.203595 
L 329.892404 165.818295 
L 345.331139 161.984883 
L 360.769874 150.636133 
L 376.208609 141.796955 
L 391.647344 117.669056 
L 407.08608 64.686968 
" style="fill:none;stroke:#1b9e77;stroke-linecap:square;stroke-opacity:0.5;stroke-width:1.5;"/>
   </g>
   <g id="line2d_23">
    <path clip-path="url(#pf04a911127)" d="M 51.99517 149.941729 
L 67.433906 108.258211 
L 82.872641 143.387382 
L 98.311376 100.8816 
L 113.750111 117.594262 
L 129.188846 156.870085 
L 144.627582 165.866318 
L 160.066317 166.222645 
L 175.505052 166.215689 
L 190.943787 166.28489 
L 206.382522 166.378671 
L 221.821257 166.466635 
L 237.259993 166.495124 
L 252.698728 166.536492 
L 268.137463 166.546315 
L 283.576198 166.555484 
L 299.014933 166.555616 
L 314.453668 166.49664 
L 329.892404 166.309999 
L 345.331139 166.521547 
L 360.769874 166.473197 
L 376.208609 166.468931 
L 391.647344 166.473608 
L 407.08608 166.45352 
" style="fill:none;stroke:#1b9e77;stroke-linecap:square;stroke-opacity:0.5;stroke-width:1.5;"/>
   </g>
   <g id="line2d_24">
    <path clip-path="url(#pf04a911127)" d="M 51.99517 166.508273 
L 67.433906 166.446596 
L 82.872641 166.474245 
L 98.311376 166.531643 
L 113.750111 166.544546 
L 129.188846 166.55884 
L 144.627582 166.493105 
L 160.066317 163.584051 
L 175.505052 151.79043 
L 190.943787 150.97668 
L 206.382522 158.982729 
L 221.821257 159.287373 
L 237.259993 139.333549 
L 252.698728 126.847562 
L 268.137463 130.897111 
L 283.576198 150.975061 
L 299.014933 160.031919 
L 314.453668 163.782128 
L 329.892404 160.791647 
L 345.331139 160.593397 
L 360.769874 148.552821 
L 376.208609 154.99405 
L 391.647344 160.291676 
L 407.08608 164.985156 
" style="fill:none;stroke:#1b9e77;stroke-linecap:square;stroke-opacity:0.5;stroke-width:1.5;"/>
   </g>
   <g id="line2d_25">
    <path clip-path="url(#pf04a911127)" d="M 51.99517 166.500653 
L 67.433906 166.461331 
L 82.872641 166.309353 
L 98.311376 138.208402 
L 113.750111 147.125247 
L 129.188846 145.001996 
L 144.627582 149.738516 
L 160.066317 157.797479 
L 175.505052 165.389893 
L 190.943787 166.458802 
L 206.382522 166.45009 
L 221.821257 166.359819 
L 237.259993 164.27079 
L 252.698728 107.251707 
L 268.137463 156.895491 
L 283.576198 163.83543 
L 299.014933 164.0494 
L 314.453668 162.738294 
L 329.892404 161.385333 
L 345.331139 160.223705 
L 360.769874 145.892557 
L 376.208609 162.410037 
L 391.647344 160.705951 
L 407.08608 160.794312 
" style="fill:none;stroke:#1b9e77;stroke-linecap:square;stroke-opacity:0.5;stroke-width:1.5;"/>
   </g>
   <g id="line2d_26">
    <path clip-path="url(#pf04a911127)" d="M 51.99517 166.502604 
L 67.433906 166.414741 
L 82.872641 166.444906 
L 98.311376 166.523528 
L 113.750111 166.544931 
L 129.188846 166.557233 
L 144.627582 166.558232 
L 160.066317 166.558065 
L 175.505052 166.555202 
L 190.943787 166.501865 
L 206.382522 166.3444 
L 221.821257 166.468556 
L 237.259993 166.421583 
L 252.698728 164.062378 
L 268.137463 155.118536 
L 283.576198 152.71438 
L 299.014933 153.760626 
L 314.453668 156.754108 
L 329.892404 145.237769 
L 345.331139 111.198205 
L 360.769874 126.993015 
L 376.208609 136.864156 
L 391.647344 141.572993 
L 407.08608 163.582574 
" style="fill:none;stroke:#1b9e77;stroke-linecap:square;stroke-opacity:0.5;stroke-width:1.5;"/>
   </g>
   <g id="line2d_27">
    <path clip-path="url(#pf04a911127)" d="M 51.99517 166.430433 
L 67.433906 166.216973 
L 82.872641 166.324297 
L 98.311376 166.441294 
L 113.750111 166.47876 
L 129.188846 166.52394 
L 144.627582 166.538702 
L 160.066317 166.539893 
L 175.505052 166.49201 
L 190.943787 166.461773 
L 206.382522 162.527541 
L 221.821257 153.731031 
L 237.259993 142.898714 
L 252.698728 127.624615 
L 268.137463 104.960491 
L 283.576198 116.060287 
L 299.014933 159.273321 
L 314.453668 144.050401 
L 329.892404 165.239938 
L 345.331139 166.237184 
L 360.769874 166.189331 
L 376.208609 166.334743 
L 391.647344 166.368481 
L 407.08608 166.310436 
" style="fill:none;stroke:#1b9e77;stroke-linecap:square;stroke-opacity:0.5;stroke-width:1.5;"/>
   </g>
   <g id="line2d_28">
    <path clip-path="url(#pf04a911127)" d="M 51.99517 166.386563 
L 67.433906 166.205802 
L 82.872641 166.310197 
L 98.311376 166.472088 
L 113.750111 166.514785 
L 129.188846 166.531616 
L 144.627582 166.52345 
L 160.066317 166.523834 
L 175.505052 166.526139 
L 190.943787 166.544609 
L 206.382522 166.54945 
L 221.821257 166.535394 
L 237.259993 166.473933 
L 252.698728 166.446683 
L 268.137463 150.227545 
L 283.576198 112.009238 
L 299.014933 152.095264 
L 314.453668 137.535209 
L 329.892404 96.583162 
L 345.331139 144.914755 
L 360.769874 162.105451 
L 376.208609 163.002363 
L 391.647344 158.635845 
L 407.08608 164.601214 
" style="fill:none;stroke:#1b9e77;stroke-linecap:square;stroke-opacity:0.5;stroke-width:1.5;"/>
   </g>
   <g id="line2d_29">
    <path clip-path="url(#pf04a911127)" d="M 51.99517 165.639029 
L 67.433906 164.116533 
L 82.872641 164.356678 
L 98.311376 165.446975 
L 113.750111 165.740009 
L 129.188846 166.136281 
L 144.627582 166.299641 
L 160.066317 166.389481 
L 175.505052 166.402536 
L 190.943787 166.437672 
L 206.382522 166.469396 
L 221.821257 166.505757 
L 237.259993 166.497081 
L 252.698728 165.811135 
L 268.137463 141.282295 
L 283.576198 74.689809 
L 299.014933 124.186916 
L 314.453668 137.245466 
L 329.892404 153.763565 
L 345.331139 163.482946 
L 360.769874 165.714411 
L 376.208609 166.156188 
L 391.647344 164.623874 
L 407.08608 158.86092 
" style="fill:none;stroke:#1b9e77;stroke-linecap:square;stroke-opacity:0.5;stroke-width:1.5;"/>
   </g>
   <g id="line2d_30">
    <path clip-path="url(#pf04a911127)" d="M 51.99517 166.479519 
L 67.433906 166.357215 
L 82.872641 166.427025 
L 98.311376 166.514051 
L 113.750111 166.530075 
L 129.188846 166.550821 
L 144.627582 166.539772 
L 160.066317 163.499281 
L 175.505052 156.822163 
L 190.943787 153.025757 
L 206.382522 149.745721 
L 221.821257 156.030811 
L 237.259993 162.874845 
L 252.698728 165.38001 
L 268.137463 164.909019 
L 283.576198 162.563936 
L 299.014933 109.24611 
L 314.453668 122.029229 
L 329.892404 155.734526 
L 345.331139 142.910069 
L 360.769874 157.94316 
L 376.208609 157.834636 
L 391.647344 162.22891 
L 407.08608 164.077932 
" style="fill:none;stroke:#1b9e77;stroke-linecap:square;stroke-opacity:0.5;stroke-width:1.5;"/>
   </g>
   <g id="line2d_31">
    <path clip-path="url(#pf04a911127)" d="M 51.99517 166.521398 
L 67.433906 166.462319 
L 82.872641 166.455675 
L 98.311376 166.496851 
L 113.750111 166.438668 
L 129.188846 165.992843 
L 144.627582 159.981535 
L 160.066317 150.76085 
L 175.505052 153.32712 
L 190.943787 154.362602 
L 206.382522 158.658276 
L 221.821257 160.642664 
L 237.259993 160.841743 
L 252.698728 154.826168 
L 268.137463 155.49854 
L 283.576198 150.92423 
L 299.014933 128.69473 
L 314.453668 132.312224 
L 329.892404 148.485959 
L 345.331139 155.636248 
L 360.769874 160.502526 
L 376.208609 161.972243 
L 391.647344 162.960946 
L 407.08608 163.498224 
" style="fill:none;stroke:#1b9e77;stroke-linecap:square;stroke-opacity:0.5;stroke-width:1.5;"/>
   </g>
   <g id="line2d_32">
    <path clip-path="url(#pf04a911127)" d="M 51.99517 163.548969 
L 67.433906 154.356607 
L 82.872641 131.741475 
L 98.311376 155.877477 
L 113.750111 159.527826 
L 129.188846 102.144424 
L 144.627582 104.877944 
L 160.066317 163.594928 
L 175.505052 163.980409 
L 190.943787 163.888834 
L 206.382522 154.926164 
L 221.821257 155.737625 
L 237.259993 166.396502 
L 252.698728 166.443216 
L 268.137463 166.501446 
L 283.576198 166.528475 
L 299.014933 166.524658 
L 314.453668 166.51997 
L 329.892404 166.521834 
L 345.331139 166.537265 
L 360.769874 166.547281 
L 376.208609 166.5589 
L 391.647344 166.556348 
L 407.08608 166.416006 
" style="fill:none;stroke:#1b9e77;stroke-linecap:square;stroke-opacity:0.5;stroke-width:1.5;"/>
   </g>
   <g id="line2d_33">
    <path clip-path="url(#pf04a911127)" d="M 51.99517 161.83616 
L 67.433906 161.307489 
L 82.872641 161.909206 
L 98.311376 162.752888 
L 113.750111 161.934564 
L 129.188846 150.627029 
L 144.627582 150.403127 
L 160.066317 152.014621 
L 175.505052 133.941414 
L 190.943787 142.673352 
L 206.382522 144.694405 
L 221.821257 147.928357 
L 237.259993 139.525865 
L 252.698728 138.082108 
L 268.137463 164.975549 
L 283.576198 166.314667 
L 299.014933 166.177111 
L 314.453668 166.345954 
L 329.892404 166.4875 
L 345.331139 166.542243 
L 360.769874 166.544254 
L 376.208609 166.552425 
L 391.647344 166.466727 
L 407.08608 166.217572 
" style="fill:none;stroke:#1b9e77;stroke-linecap:square;stroke-opacity:0.5;stroke-width:1.5;"/>
   </g>
   <g id="line2d_34">
    <path clip-path="url(#pf04a911127)" d="M 51.99517 166.530631 
L 67.433906 166.47439 
L 82.872641 166.503326 
L 98.311376 166.532511 
L 113.750111 166.539065 
L 129.188846 166.553145 
L 144.627582 166.55588 
L 160.066317 166.549699 
L 175.505052 166.488028 
L 190.943787 166.312284 
L 206.382522 155.336585 
L 221.821257 145.050875 
L 237.259993 143.991551 
L 252.698728 144.826807 
L 268.137463 138.348417 
L 283.576198 148.988411 
L 299.014933 154.225063 
L 314.453668 142.898014 
L 329.892404 156.782239 
L 345.331139 160.113892 
L 360.769874 155.238905 
L 376.208609 143.529892 
L 391.647344 153.500348 
L 407.08608 164.384633 
" style="fill:none;stroke:#1b9e77;stroke-linecap:square;stroke-opacity:0.5;stroke-width:1.5;"/>
   </g>
   <g id="line2d_35">
    <path clip-path="url(#pf04a911127)" d="M 51.99517 166.482237 
L 67.433906 166.396467 
L 82.872641 166.375902 
L 98.311376 166.493028 
L 113.750111 166.512681 
L 129.188846 166.524129 
L 144.627582 161.63357 
L 160.066317 124.012791 
L 175.505052 119.39184 
L 190.943787 111.027446 
L 206.382522 151.975589 
L 221.821257 161.038769 
L 237.259993 157.794173 
L 252.698728 154.865698 
L 268.137463 155.215603 
L 283.576198 165.01795 
L 299.014933 163.518501 
L 314.453668 158.80502 
L 329.892404 161.813961 
L 345.331139 164.161708 
L 360.769874 165.052627 
L 376.208609 165.824389 
L 391.647344 165.945807 
L 407.08608 166.374701 
" style="fill:none;stroke:#1b9e77;stroke-linecap:square;stroke-opacity:0.5;stroke-width:1.5;"/>
   </g>
   <g id="line2d_36">
    <path clip-path="url(#pf04a911127)" d="M 51.99517 166.406161 
L 67.433906 166.038352 
L 82.872641 166.079704 
L 98.311376 166.400627 
L 113.750111 166.512877 
L 129.188846 166.533808 
L 144.627582 166.518228 
L 160.066317 166.511495 
L 175.505052 166.499862 
L 190.943787 166.494891 
L 206.382522 165.224899 
L 221.821257 164.279188 
L 237.259993 165.427527 
L 252.698728 165.206586 
L 268.137463 151.793474 
L 283.576198 138.186736 
L 299.014933 146.02808 
L 314.453668 140.141397 
L 329.892404 141.886354 
L 345.331139 137.130019 
L 360.769874 143.428855 
L 376.208609 136.319591 
L 391.647344 146.931593 
L 407.08608 166.274288 
" style="fill:none;stroke:#1b9e77;stroke-linecap:square;stroke-opacity:0.5;stroke-width:1.5;"/>
   </g>
   <g id="line2d_37">
    <path clip-path="url(#pf04a911127)" d="M 51.99517 166.530084 
L 67.433906 166.519201 
L 82.872641 166.524195 
L 98.311376 166.521301 
L 113.750111 166.321225 
L 129.188846 165.348384 
L 144.627582 162.650066 
L 160.066317 155.868454 
L 175.505052 142.323621 
L 190.943787 149.392613 
L 206.382522 155.944609 
L 221.821257 153.743093 
L 237.259993 137.462964 
L 252.698728 134.630056 
L 268.137463 158.972389 
L 283.576198 164.03634 
L 299.014933 160.098694 
L 314.453668 154.992248 
L 329.892404 159.30316 
L 345.331139 153.896309 
L 360.769874 153.784246 
L 376.208609 150.360848 
L 391.647344 160.816274 
L 407.08608 166.214212 
" style="fill:none;stroke:#1b9e77;stroke-linecap:square;stroke-opacity:0.5;stroke-width:1.5;"/>
   </g>
   <g id="line2d_38">
    <path clip-path="url(#pf04a911127)" d="M 51.99517 166.409103 
L 67.433906 166.205881 
L 82.872641 164.588839 
L 98.311376 145.368043 
L 113.750111 140.546756 
L 129.188846 160.668998 
L 144.627582 119.448316 
L 160.066317 123.371896 
L 175.505052 123.049531 
L 190.943787 136.600402 
L 206.382522 165.718477 
L 221.821257 165.992311 
L 237.259993 166.128623 
L 252.698728 164.935676 
L 268.137463 166.397999 
L 283.576198 166.316947 
L 299.014933 166.271927 
L 314.453668 166.305903 
L 329.892404 166.332125 
L 345.331139 166.399424 
L 360.769874 166.4353 
L 376.208609 166.474226 
L 391.647344 166.514387 
L 407.08608 165.773508 
" style="fill:none;stroke:#1b9e77;stroke-linecap:square;stroke-opacity:0.5;stroke-width:1.5;"/>
   </g>
   <g id="line2d_39">
    <path clip-path="url(#pf04a911127)" d="M 51.99517 166.495432 
L 67.433906 166.341992 
L 82.872641 166.335889 
L 98.311376 166.377377 
L 113.750111 165.583464 
L 129.188846 163.249129 
L 144.627582 159.57671 
L 160.066317 161.99931 
L 175.505052 163.130365 
L 190.943787 158.629945 
L 206.382522 151.680099 
L 221.821257 150.442381 
L 237.259993 89.825233 
L 252.698728 96.712147 
L 268.137463 156.995609 
L 283.576198 162.95597 
L 299.014933 166.204535 
L 314.453668 166.087175 
L 329.892404 166.402586 
L 345.331139 166.537115 
L 360.769874 166.256187 
L 376.208609 164.620997 
L 391.647344 163.774962 
L 407.08608 166.039979 
" style="fill:none;stroke:#1b9e77;stroke-linecap:square;stroke-opacity:0.5;stroke-width:1.5;"/>
   </g>
   <g id="line2d_40">
    <path clip-path="url(#pf04a911127)" d="M 51.99517 166.334461 
L 67.433906 166.184275 
L 82.872641 166.382883 
L 98.311376 166.507733 
L 113.750111 166.533206 
L 129.188846 166.541235 
L 144.627582 166.532213 
L 160.066317 166.547416 
L 175.505052 166.531179 
L 190.943787 166.253871 
L 206.382522 165.58606 
L 221.821257 161.9281 
L 237.259993 135.975168 
L 252.698728 115.331736 
L 268.137463 128.590374 
L 283.576198 130.297458 
L 299.014933 131.286337 
L 314.453668 144.153735 
L 329.892404 165.927676 
L 345.331139 166.252507 
L 360.769874 166.171261 
L 376.208609 166.422636 
L 391.647344 166.233577 
L 407.08608 163.749487 
" style="fill:none;stroke:#1b9e77;stroke-linecap:square;stroke-opacity:0.5;stroke-width:1.5;"/>
   </g>
   <g id="line2d_41">
    <path clip-path="url(#pf04a911127)" d="M 51.99517 166.561639 
L 67.433906 166.547456 
L 82.872641 166.036281 
L 98.311376 149.047572 
L 113.750111 152.673918 
L 129.188846 152.256178 
L 144.627582 153.276236 
L 160.066317 159.558851 
L 175.505052 164.877521 
L 190.943787 166.146285 
L 206.382522 166.510196 
L 221.821257 166.54032 
L 237.259993 166.401378 
L 252.698728 160.159366 
L 268.137463 162.342721 
L 283.576198 165.554972 
L 299.014933 164.942309 
L 314.453668 156.987718 
L 329.892404 155.254032 
L 345.331139 149.560316 
L 360.769874 126.619154 
L 376.208609 132.909421 
L 391.647344 138.355399 
L 407.08608 163.135351 
" style="fill:none;stroke:#1b9e77;stroke-linecap:square;stroke-opacity:0.5;stroke-width:1.5;"/>
   </g>
   <g id="line2d_42">
    <path clip-path="url(#pf04a911127)" d="M 51.99517 163.493961 
L 67.433906 157.795558 
L 82.872641 134.461513 
L 98.311376 158.859271 
L 113.750111 162.21345 
L 129.188846 158.014247 
L 144.627582 162.273881 
L 160.066317 164.417 
L 175.505052 165.177192 
L 190.943787 161.252478 
L 206.382522 146.013528 
L 221.821257 119.170363 
L 237.259993 133.58177 
L 252.698728 141.114536 
L 268.137463 151.115943 
L 283.576198 165.060073 
L 299.014933 166.334199 
L 314.453668 166.201051 
L 329.892404 166.205771 
L 345.331139 166.036782 
L 360.769874 165.214358 
L 376.208609 166.085011 
L 391.647344 165.633028 
L 407.08608 166.52963 
" style="fill:none;stroke:#1b9e77;stroke-linecap:square;stroke-opacity:0.5;stroke-width:1.5;"/>
   </g>
   <g id="line2d_43">
    <path clip-path="url(#pf04a911127)" d="M 51.99517 166.183388 
L 67.433906 165.983346 
L 82.872641 166.235774 
L 98.311376 166.391412 
L 113.750111 166.410159 
L 129.188846 166.443315 
L 144.627582 166.470061 
L 160.066317 166.48159 
L 175.505052 166.4748 
L 190.943787 166.489779 
L 206.382522 166.507069 
L 221.821257 166.522665 
L 237.259993 166.506661 
L 252.698728 166.528449 
L 268.137463 166.116664 
L 283.576198 106.311902 
L 299.014933 134.454394 
L 314.453668 140.440963 
L 329.892404 162.557037 
L 345.331139 163.05098 
L 360.769874 96.701279 
L 376.208609 160.722183 
L 391.647344 149.507021 
L 407.08608 162.763696 
" style="fill:none;stroke:#1b9e77;stroke-linecap:square;stroke-opacity:0.5;stroke-width:1.5;"/>
   </g>
   <g id="line2d_44">
    <path clip-path="url(#pf04a911127)" d="M 51.99517 166.50745 
L 67.433906 166.465321 
L 82.872641 166.521721 
L 98.311376 166.554577 
L 113.750111 166.55731 
L 129.188846 166.558467 
L 144.627582 166.557596 
L 160.066317 166.557269 
L 175.505052 166.549667 
L 190.943787 166.50338 
L 206.382522 165.508289 
L 221.821257 162.771649 
L 237.259993 164.606545 
L 252.698728 161.209256 
L 268.137463 149.805902 
L 283.576198 141.58254 
L 299.014933 156.833156 
L 314.453668 147.183268 
L 329.892404 147.514856 
L 345.331139 153.243629 
L 360.769874 109.421361 
L 376.208609 134.622426 
L 391.647344 148.84851 
L 407.08608 163.770445 
" style="fill:none;stroke:#1b9e77;stroke-linecap:square;stroke-opacity:0.5;stroke-width:1.5;"/>
   </g>
   <g id="line2d_45">
    <path clip-path="url(#pf04a911127)" d="M 51.99517 166.422291 
L 67.433906 166.480397 
L 82.872641 165.62167 
L 98.311376 165.485477 
L 113.750111 164.211281 
L 129.188846 126.630805 
L 144.627582 159.364551 
L 160.066317 163.490574 
L 175.505052 157.090393 
L 190.943787 147.259948 
L 206.382522 92.93173 
L 221.821257 117.157039 
L 237.259993 159.493988 
L 252.698728 161.464182 
L 268.137463 162.902888 
L 283.576198 165.653536 
L 299.014933 166.395132 
L 314.453668 166.498201 
L 329.892404 166.539267 
L 345.331139 166.536085 
L 360.769874 166.485074 
L 376.208609 166.483236 
L 391.647344 165.743033 
L 407.08608 165.913811 
" style="fill:none;stroke:#1b9e77;stroke-linecap:square;stroke-opacity:0.5;stroke-width:1.5;"/>
   </g>
   <g id="line2d_46">
    <path clip-path="url(#pf04a911127)" d="M 51.99517 166.528487 
L 67.433906 166.503651 
L 82.872641 166.528093 
L 98.311376 166.553811 
L 113.750111 166.554876 
L 129.188846 166.560358 
L 144.627582 166.278994 
L 160.066317 152.60976 
L 175.505052 149.50573 
L 190.943787 137.334133 
L 206.382522 148.718711 
L 221.821257 160.812252 
L 237.259993 164.976145 
L 252.698728 140.293822 
L 268.137463 160.8318 
L 283.576198 158.416572 
L 299.014933 151.558297 
L 314.453668 145.311898 
L 329.892404 151.443965 
L 345.331139 164.159854 
L 360.769874 149.852544 
L 376.208609 154.353657 
L 391.647344 156.125329 
L 407.08608 160.441852 
" style="fill:none;stroke:#1b9e77;stroke-linecap:square;stroke-opacity:0.5;stroke-width:1.5;"/>
   </g>
   <g id="line2d_47">
    <path clip-path="url(#pf04a911127)" d="M 51.99517 166.42143 
L 67.433906 166.457814 
L 82.872641 166.414921 
L 98.311376 166.527396 
L 113.750111 166.22595 
L 129.188846 163.270556 
L 144.627582 160.007441 
L 160.066317 158.104948 
L 175.505052 85.914473 
L 190.943787 160.812329 
L 206.382522 165.950376 
L 221.821257 164.423101 
L 237.259993 130.507931 
L 252.698728 105.185644 
L 268.137463 165.648885 
L 283.576198 166.342296 
L 299.014933 166.500201 
L 314.453668 163.804704 
L 329.892404 159.846525 
L 345.331139 166.116004 
L 360.769874 164.700675 
L 376.208609 161.559375 
L 391.647344 165.223115 
L 407.08608 166.288487 
" style="fill:none;stroke:#1b9e77;stroke-linecap:square;stroke-opacity:0.5;stroke-width:1.5;"/>
   </g>
   <g id="line2d_48">
    <path clip-path="url(#pf04a911127)" d="M 51.99517 165.200932 
L 67.433906 165.669909 
L 82.872641 160.811131 
L 98.311376 162.727073 
L 113.750111 160.994868 
L 129.188846 132.443214 
L 144.627582 158.626084 
L 160.066317 165.433664 
L 175.505052 163.063034 
L 190.943787 154.660142 
L 206.382522 45.199184 
L 221.821257 144.581225 
L 237.259993 165.246483 
L 252.698728 165.290188 
L 268.137463 165.817208 
L 283.576198 166.072869 
L 299.014933 166.190364 
L 314.453668 166.277905 
L 329.892404 166.343227 
L 345.331139 166.47899 
L 360.769874 166.524795 
L 376.208609 166.546729 
L 391.647344 166.429103 
L 407.08608 165.626263 
" style="fill:none;stroke:#1b9e77;stroke-linecap:square;stroke-opacity:0.5;stroke-width:1.5;"/>
   </g>
   <g id="line2d_49">
    <path clip-path="url(#pf04a911127)" d="M 51.99517 166.399092 
L 67.433906 166.122727 
L 82.872641 165.062928 
L 98.311376 159.700046 
L 113.750111 161.790593 
L 129.188846 160.300621 
L 144.627582 161.597805 
L 160.066317 162.438734 
L 175.505052 161.765563 
L 190.943787 158.207266 
L 206.382522 155.600112 
L 221.821257 143.617984 
L 237.259993 115.324262 
L 252.698728 138.29182 
L 268.137463 119.461752 
L 283.576198 151.161854 
L 299.014933 161.412701 
L 314.453668 165.933487 
L 329.892404 166.457139 
L 345.331139 166.50996 
L 360.769874 166.15842 
L 376.208609 166.35644 
L 391.647344 166.141457 
L 407.08608 166.441831 
" style="fill:none;stroke:#1b9e77;stroke-linecap:square;stroke-opacity:0.5;stroke-width:1.5;"/>
   </g>
   <g id="line2d_50">
    <path clip-path="url(#pf04a911127)" d="M 51.99517 166.086958 
L 67.433906 165.115108 
L 82.872641 163.627336 
L 98.311376 160.98545 
L 113.750111 147.887843 
L 129.188846 156.582094 
L 144.627582 162.622982 
L 160.066317 160.700147 
L 175.505052 152.817611 
L 190.943787 155.148377 
L 206.382522 150.958134 
L 221.821257 152.999917 
L 237.259993 165.171884 
L 252.698728 165.378662 
L 268.137463 159.289031 
L 283.576198 151.989781 
L 299.014933 141.141522 
L 314.453668 110.451131 
L 329.892404 152.141758 
L 345.331139 165.584016 
L 360.769874 166.308403 
L 376.208609 166.349094 
L 391.647344 166.385371 
L 407.08608 166.531967 
" style="fill:none;stroke:#1b9e77;stroke-linecap:square;stroke-opacity:0.5;stroke-width:1.5;"/>
   </g>
   <g id="line2d_51">
    <path clip-path="url(#pf04a911127)" d="M 51.99517 166.343918 
L 67.433906 165.853195 
L 82.872641 165.871096 
L 98.311376 166.282408 
L 113.750111 166.434626 
L 129.188846 166.531286 
L 144.627582 166.548024 
L 160.066317 166.546948 
L 175.505052 166.535559 
L 190.943787 166.532308 
L 206.382522 166.525747 
L 221.821257 166.51301 
L 237.259993 166.492033 
L 252.698728 166.481783 
L 268.137463 166.482453 
L 283.576198 166.346159 
L 299.014933 165.165345 
L 314.453668 165.807167 
L 329.892404 158.690965 
L 345.331139 67.60901 
L 360.769874 94.253672 
L 376.208609 138.727439 
L 391.647344 156.286051 
L 407.08608 163.394392 
" style="fill:none;stroke:#1b9e77;stroke-linecap:square;stroke-opacity:0.5;stroke-width:1.5;"/>
   </g>
   <g id="line2d_52">
    <path clip-path="url(#pf04a911127)" d="M 51.99517 96.978216 
L 67.433906 68.052436 
L 82.872641 138.607272 
L 98.311376 150.482965 
L 113.750111 161.486524 
L 129.188846 163.922643 
L 144.627582 165.656497 
L 160.066317 166.166481 
L 175.505052 166.302968 
L 190.943787 166.392221 
L 206.382522 166.452636 
L 221.821257 166.530837 
L 237.259993 166.550668 
L 252.698728 166.55082 
L 268.137463 166.544672 
L 283.576198 166.513228 
L 299.014933 166.504822 
L 314.453668 166.534188 
L 329.892404 166.545624 
L 345.331139 166.523632 
L 360.769874 166.473552 
L 376.208609 166.524456 
L 391.647344 166.470848 
L 407.08608 163.486385 
" style="fill:none;stroke:#1b9e77;stroke-linecap:square;stroke-opacity:0.5;stroke-width:1.5;"/>
   </g>
   <g id="line2d_53">
    <path clip-path="url(#pf04a911127)" d="M 51.99517 129.791197 
L 67.433906 128.999301 
L 82.872641 142.203598 
L 98.311376 157.879779 
L 113.750111 161.480904 
L 129.188846 164.708149 
L 144.627582 165.872787 
L 160.066317 166.307485 
L 175.505052 166.354528 
L 190.943787 166.330399 
L 206.382522 166.161371 
L 221.821257 166.114883 
L 237.259993 165.247888 
L 252.698728 152.365586 
L 268.137463 141.691773 
L 283.576198 151.584425 
L 299.014933 159.679578 
L 314.453668 158.272931 
L 329.892404 154.196745 
L 345.331139 157.660564 
L 360.769874 161.770905 
L 376.208609 160.869365 
L 391.647344 162.211046 
L 407.08608 164.499401 
" style="fill:none;stroke:#1b9e77;stroke-linecap:square;stroke-opacity:0.5;stroke-width:1.5;"/>
   </g>
   <g id="line2d_54">
    <path clip-path="url(#pf04a911127)" d="M 51.99517 166.439768 
L 67.433906 166.486476 
L 82.872641 165.972722 
L 98.311376 165.583332 
L 113.750111 158.206511 
L 129.188846 160.135599 
L 144.627582 158.348226 
L 160.066317 153.906737 
L 175.505052 98.339879 
L 190.943787 73.590117 
L 206.382522 161.123981 
L 221.821257 156.126015 
L 237.259993 163.332597 
L 252.698728 161.242586 
L 268.137463 165.752257 
L 283.576198 166.169007 
L 299.014933 166.293694 
L 314.453668 166.383017 
L 329.892404 166.43828 
L 345.331139 166.535226 
L 360.769874 166.543812 
L 376.208609 166.497628 
L 391.647344 166.397199 
L 407.08608 166.409924 
" style="fill:none;stroke:#1b9e77;stroke-linecap:square;stroke-opacity:0.5;stroke-width:1.5;"/>
   </g>
   <g id="line2d_55">
    <path clip-path="url(#pf04a911127)" d="M 51.99517 166.511009 
L 67.433906 166.322665 
L 82.872641 166.229019 
L 98.311376 165.172798 
L 113.750111 165.192262 
L 129.188846 166.340374 
L 144.627582 165.107167 
L 160.066317 159.990833 
L 175.505052 159.217539 
L 190.943787 158.691068 
L 206.382522 157.910678 
L 221.821257 157.883533 
L 237.259993 157.402601 
L 252.698728 161.614863 
L 268.137463 158.362033 
L 283.576198 129.582872 
L 299.014933 130.328448 
L 314.453668 131.497811 
L 329.892404 150.662742 
L 345.331139 162.681468 
L 360.769874 161.231523 
L 376.208609 152.907489 
L 391.647344 156.16185 
L 407.08608 165.251942 
" style="fill:none;stroke:#1b9e77;stroke-linecap:square;stroke-opacity:0.5;stroke-width:1.5;"/>
   </g>
   <g id="line2d_56">
    <path clip-path="url(#pf04a911127)" d="M 51.99517 157.599657 
L 67.433906 155.064195 
L 82.872641 142.786979 
L 98.311376 137.896367 
L 113.750111 134.401103 
L 129.188846 125.149087 
L 144.627582 145.9493 
L 160.066317 165.864884 
L 175.505052 165.588827 
L 190.943787 158.906312 
L 206.382522 138.836097 
L 221.821257 162.538012 
L 237.259993 165.084624 
L 252.698728 162.37119 
L 268.137463 158.529879 
L 283.576198 163.676585 
L 299.014933 166.488833 
L 314.453668 166.404406 
L 329.892404 166.483753 
L 345.331139 166.521033 
L 360.769874 166.51428 
L 376.208609 166.522251 
L 391.647344 166.518303 
L 407.08608 166.558634 
" style="fill:none;stroke:#1b9e77;stroke-linecap:square;stroke-opacity:0.5;stroke-width:1.5;"/>
   </g>
   <g id="line2d_57">
    <path clip-path="url(#pf04a911127)" d="M 51.99517 166.071481 
L 67.433906 166.218552 
L 82.872641 166.311047 
L 98.311376 166.462744 
L 113.750111 166.499242 
L 129.188846 166.548433 
L 144.627582 166.554315 
L 160.066317 166.533456 
L 175.505052 166.521667 
L 190.943787 166.51364 
L 206.382522 166.421003 
L 221.821257 165.887913 
L 237.259993 166.067368 
L 252.698728 166.254492 
L 268.137463 165.993876 
L 283.576198 165.651471 
L 299.014933 164.033165 
L 314.453668 161.589301 
L 329.892404 156.607353 
L 345.331139 148.614895 
L 360.769874 136.49268 
L 376.208609 75.066053 
L 391.647344 122.505142 
L 407.08608 146.835302 
" style="fill:none;stroke:#1b9e77;stroke-linecap:square;stroke-opacity:0.5;stroke-width:1.5;"/>
   </g>
   <g id="line2d_58">
    <path clip-path="url(#pf04a911127)" d="M 51.99517 129.391427 
L 67.433906 124.888744 
L 82.872641 134.422695 
L 98.311376 136.067892 
L 113.750111 153.634089 
L 129.188846 159.37554 
L 144.627582 159.935326 
L 160.066317 161.312405 
L 175.505052 162.334178 
L 190.943787 161.800399 
L 206.382522 161.3596 
L 221.821257 161.107062 
L 237.259993 161.180613 
L 252.698728 163.772756 
L 268.137463 165.078225 
L 283.576198 164.789806 
L 299.014933 163.451453 
L 314.453668 162.418999 
L 329.892404 163.03947 
L 345.331139 163.895263 
L 360.769874 163.982499 
L 376.208609 165.098736 
L 391.647344 165.858874 
L 407.08608 164.058539 
" style="fill:none;stroke:#1b9e77;stroke-linecap:square;stroke-opacity:0.5;stroke-width:1.5;"/>
   </g>
   <g id="line2d_59">
    <path clip-path="url(#pf04a911127)" d="M 51.99517 166.337711 
L 67.433906 166.163803 
L 82.872641 166.245709 
L 98.311376 166.475182 
L 113.750111 166.534782 
L 129.188846 166.555578 
L 144.627582 166.555626 
L 160.066317 166.553983 
L 175.505052 166.543669 
L 190.943787 166.48629 
L 206.382522 165.53864 
L 221.821257 157.153764 
L 237.259993 148.002361 
L 252.698728 134.990849 
L 268.137463 32.910065 
L 283.576198 142.451252 
L 299.014933 165.453869 
L 314.453668 165.987496 
L 329.892404 166.321204 
L 345.331139 166.477327 
L 360.769874 166.479058 
L 376.208609 166.469221 
L 391.647344 163.756587 
L 407.08608 165.810562 
" style="fill:none;stroke:#1b9e77;stroke-linecap:square;stroke-opacity:0.5;stroke-width:1.5;"/>
   </g>
   <g id="line2d_60">
    <path clip-path="url(#pf04a911127)" d="M 51.99517 160.436265 
L 67.433906 154.793855 
L 82.872641 118.884955 
L 98.311376 109.992641 
L 113.750111 148.414676 
L 129.188846 150.45236 
L 144.627582 152.222344 
L 160.066317 161.414566 
L 175.505052 166.196892 
L 190.943787 166.521764 
L 206.382522 166.51911 
L 221.821257 166.504596 
L 237.259993 165.966569 
L 252.698728 157.800545 
L 268.137463 164.310986 
L 283.576198 166.145212 
L 299.014933 165.44896 
L 314.453668 164.841403 
L 329.892404 163.826056 
L 345.331139 139.329027 
L 360.769874 163.425363 
L 376.208609 166.44854 
L 391.647344 166.52311 
L 407.08608 165.834793 
" style="fill:none;stroke:#1b9e77;stroke-linecap:square;stroke-opacity:0.5;stroke-width:1.5;"/>
   </g>
   <g id="line2d_61">
    <path clip-path="url(#pf04a911127)" d="M 51.99517 165.799855 
L 67.433906 165.060448 
L 82.872641 159.703233 
L 98.311376 163.832213 
L 113.750111 160.401114 
L 129.188846 99.698778 
L 144.627582 137.822481 
L 160.066317 128.480232 
L 175.505052 156.981951 
L 190.943787 162.703554 
L 206.382522 164.626523 
L 221.821257 157.495637 
L 237.259993 163.715 
L 252.698728 166.319107 
L 268.137463 166.263414 
L 283.576198 156.549402 
L 299.014933 155.355939 
L 314.453668 158.878124 
L 329.892404 157.545636 
L 345.331139 161.968894 
L 360.769874 165.803975 
L 376.208609 166.446562 
L 391.647344 166.561222 
L 407.08608 164.241292 
" style="fill:none;stroke:#1b9e77;stroke-linecap:square;stroke-opacity:0.5;stroke-width:1.5;"/>
   </g>
   <g id="line2d_62">
    <path clip-path="url(#pf04a911127)" d="M 51.99517 165.956756 
L 67.433906 166.225365 
L 82.872641 159.768856 
L 98.311376 155.45356 
L 113.750111 64.71054 
L 129.188846 66.986665 
L 144.627582 165.011075 
L 160.066317 165.636154 
L 175.505052 165.680335 
L 190.943787 165.903268 
L 206.382522 166.219771 
L 221.821257 166.377267 
L 237.259993 166.39193 
L 252.698728 166.472158 
L 268.137463 166.519386 
L 283.576198 166.53946 
L 299.014933 166.539841 
L 314.453668 166.538941 
L 329.892404 166.541038 
L 345.331139 166.551938 
L 360.769874 166.558436 
L 376.208609 166.566069 
L 391.647344 166.567672 
L 407.08608 166.538119 
" style="fill:none;stroke:#1b9e77;stroke-linecap:square;stroke-opacity:0.5;stroke-width:1.5;"/>
   </g>
   <g id="line2d_63">
    <path clip-path="url(#pf04a911127)" d="M 51.99517 163.101216 
L 67.433906 156.449034 
L 82.872641 156.418417 
L 98.311376 163.902047 
L 113.750111 165.597541 
L 129.188846 166.156428 
L 144.627582 166.113187 
L 160.066317 161.779225 
L 175.505052 162.512625 
L 190.943787 161.673679 
L 206.382522 148.964405 
L 221.821257 149.559329 
L 237.259993 142.429549 
L 252.698728 166.129564 
L 268.137463 166.431602 
L 283.576198 161.375286 
L 299.014933 59.708447 
L 314.453668 158.22989 
L 329.892404 166.389926 
L 345.331139 164.434661 
L 360.769874 165.925096 
L 376.208609 166.231767 
L 391.647344 166.243859 
L 407.08608 166.497808 
" style="fill:none;stroke:#1b9e77;stroke-linecap:square;stroke-opacity:0.5;stroke-width:1.5;"/>
   </g>
   <g id="line2d_64">
    <path clip-path="url(#pf04a911127)" d="M 51.99517 166.499478 
L 67.433906 166.373791 
L 82.872641 166.362708 
L 98.311376 166.494017 
L 113.750111 166.487012 
L 129.188846 166.34839 
L 144.627582 165.727716 
L 160.066317 166.199158 
L 175.505052 164.337163 
L 190.943787 147.661727 
L 206.382522 149.088231 
L 221.821257 132.943077 
L 237.259993 118.728949 
L 252.698728 142.221319 
L 268.137463 138.449428 
L 283.576198 127.430293 
L 299.014933 157.674399 
L 314.453668 165.400868 
L 329.892404 165.959495 
L 345.331139 166.174557 
L 360.769874 166.214825 
L 376.208609 166.425316 
L 391.647344 166.498631 
L 407.08608 166.554041 
" style="fill:none;stroke:#1b9e77;stroke-linecap:square;stroke-opacity:0.5;stroke-width:1.5;"/>
   </g>
   <g id="line2d_65">
    <path clip-path="url(#pf04a911127)" d="M 51.99517 166.485873 
L 67.433906 166.278315 
L 82.872641 166.029133 
L 98.311376 165.708223 
L 113.750111 164.026924 
L 129.188846 165.477175 
L 144.627582 15.367672 
L 160.066317 146.070672 
L 175.505052 161.174 
L 190.943787 148.292237 
L 206.382522 152.084079 
L 221.821257 165.34496 
L 237.259993 166.333292 
L 252.698728 166.277288 
L 268.137463 162.740961 
L 283.576198 166.269492 
L 299.014933 165.984888 
L 314.453668 164.513059 
L 329.892404 165.899648 
L 345.331139 166.177212 
L 360.769874 166.233412 
L 376.208609 166.460964 
L 391.647344 166.548358 
L 407.08608 166.476754 
" style="fill:none;stroke:#1b9e77;stroke-linecap:square;stroke-opacity:0.5;stroke-width:1.5;"/>
   </g>
   <g id="line2d_66">
    <path clip-path="url(#pf04a911127)" d="M 51.99517 166.439456 
L 67.433906 166.270275 
L 82.872641 166.164855 
L 98.311376 166.339583 
L 113.750111 166.306679 
L 129.188846 166.087527 
L 144.627582 159.685434 
L 160.066317 133.043613 
L 175.505052 140.146143 
L 190.943787 113.214802 
L 206.382522 120.307767 
L 221.821257 134.973899 
L 237.259993 153.048466 
L 252.698728 160.420659 
L 268.137463 164.088724 
L 283.576198 165.405683 
L 299.014933 166.442925 
L 314.453668 166.448692 
L 329.892404 166.505935 
L 345.331139 166.545562 
L 360.769874 166.513261 
L 376.208609 166.353155 
L 391.647344 165.360325 
L 407.08608 166.141175 
" style="fill:none;stroke:#1b9e77;stroke-linecap:square;stroke-opacity:0.5;stroke-width:1.5;"/>
   </g>
   <g id="line2d_67">
    <path clip-path="url(#pf04a911127)" d="M 51.99517 153.401576 
L 67.433906 159.193572 
L 82.872641 162.446846 
L 98.311376 165.910633 
L 113.750111 166.37459 
L 129.188846 166.483559 
L 144.627582 166.46869 
L 160.066317 166.472675 
L 175.505052 166.415929 
L 190.943787 165.901429 
L 206.382522 165.203495 
L 221.821257 165.605803 
L 237.259993 164.875171 
L 252.698728 164.435623 
L 268.137463 159.516206 
L 283.576198 67.453625 
L 299.014933 124.307264 
L 314.453668 156.525632 
L 329.892404 162.49631 
L 345.331139 162.190835 
L 360.769874 162.732407 
L 376.208609 160.575263 
L 391.647344 153.388971 
L 407.08608 163.878485 
" style="fill:none;stroke:#1b9e77;stroke-linecap:square;stroke-opacity:0.5;stroke-width:1.5;"/>
   </g>
   <g id="line2d_68">
    <path clip-path="url(#pf04a911127)" d="M 51.99517 166.317192 
L 67.433906 166.532098 
L 82.872641 166.518486 
L 98.311376 166.485064 
L 113.750111 165.904775 
L 129.188846 166.337521 
L 144.627582 166.547771 
L 160.066317 166.258447 
L 175.505052 159.087869 
L 190.943787 108.215691 
L 206.382522 156.689758 
L 221.821257 163.841287 
L 237.259993 165.800816 
L 252.698728 165.788424 
L 268.137463 166.094706 
L 283.576198 166.404382 
L 299.014933 165.890367 
L 314.453668 165.239091 
L 329.892404 159.115205 
L 345.331139 152.054334 
L 360.769874 104.05079 
L 376.208609 124.367287 
L 391.647344 158.003512 
L 407.08608 160.709717 
" style="fill:none;stroke:#1b9e77;stroke-linecap:square;stroke-opacity:0.5;stroke-width:1.5;"/>
   </g>
   <g id="line2d_69">
    <path clip-path="url(#pf04a911127)" d="M 51.99517 156.226976 
L 67.433906 139.541346 
L 82.872641 126.220483 
L 98.311376 116.368785 
L 113.750111 143.677223 
L 129.188846 160.523368 
L 144.627582 164.197451 
L 160.066317 143.914366 
L 175.505052 159.857761 
L 190.943787 159.396873 
L 206.382522 163.671242 
L 221.821257 164.997465 
L 237.259993 165.306541 
L 252.698728 144.848591 
L 268.137463 166.008233 
L 283.576198 166.080722 
L 299.014933 166.137844 
L 314.453668 166.25494 
L 329.892404 166.4059 
L 345.331139 166.478164 
L 360.769874 166.495866 
L 376.208609 166.531459 
L 391.647344 166.547951 
L 407.08608 166.565035 
" style="fill:none;stroke:#1b9e77;stroke-linecap:square;stroke-opacity:0.5;stroke-width:1.5;"/>
   </g>
   <g id="line2d_70">
    <path clip-path="url(#pf04a911127)" d="M 51.99517 155.103294 
L 67.433906 162.637149 
L 82.872641 166.056901 
L 98.311376 165.732828 
L 113.750111 165.826526 
L 129.188846 156.2046 
L 144.627582 162.67435 
L 160.066317 166.313379 
L 175.505052 166.0827 
L 190.943787 166.221386 
L 206.382522 165.110299 
L 221.821257 165.326623 
L 237.259993 166.30441 
L 252.698728 166.289758 
L 268.137463 166.404408 
L 283.576198 159.742948 
L 299.014933 157.620481 
L 314.453668 153.869307 
L 329.892404 102.444195 
L 345.331139 92.211315 
L 360.769874 154.542556 
L 376.208609 161.99166 
L 391.647344 164.598492 
L 407.08608 162.945017 
" style="fill:none;stroke:#1b9e77;stroke-linecap:square;stroke-opacity:0.5;stroke-width:1.5;"/>
   </g>
   <g id="line2d_71">
    <path clip-path="url(#pf04a911127)" d="M 51.99517 166.54686 
L 67.433906 166.468306 
L 82.872641 166.412306 
L 98.311376 166.355266 
L 113.750111 166.334367 
L 129.188846 166.373965 
L 144.627582 166.182627 
L 160.066317 166.199914 
L 175.505052 166.433537 
L 190.943787 166.477589 
L 206.382522 166.41358 
L 221.821257 166.088178 
L 237.259993 166.091128 
L 252.698728 166.341179 
L 268.137463 155.798661 
L 283.576198 122.007215 
L 299.014933 131.220336 
L 314.453668 127.736366 
L 329.892404 131.246123 
L 345.331139 148.085323 
L 360.769874 158.909463 
L 376.208609 161.248892 
L 391.647344 146.954675 
L 407.08608 160.328728 
" style="fill:none;stroke:#1b9e77;stroke-linecap:square;stroke-opacity:0.5;stroke-width:1.5;"/>
   </g>
   <g id="line2d_72">
    <path clip-path="url(#pf04a911127)" d="M 51.99517 144.158603 
L 67.433906 151.668068 
L 82.872641 160.969834 
L 98.311376 163.211214 
L 113.750111 162.425137 
L 129.188846 159.812583 
L 144.627582 158.458677 
L 160.066317 161.081069 
L 175.505052 162.683571 
L 190.943787 163.13897 
L 206.382522 162.691406 
L 221.821257 164.97482 
L 237.259993 166.01556 
L 252.698728 166.365631 
L 268.137463 166.179832 
L 283.576198 163.730747 
L 299.014933 158.499725 
L 314.453668 161.75762 
L 329.892404 155.612814 
L 345.331139 143.008233 
L 360.769874 161.43059 
L 376.208609 161.924636 
L 391.647344 157.524775 
L 407.08608 94.930472 
" style="fill:none;stroke:#1b9e77;stroke-linecap:square;stroke-opacity:0.5;stroke-width:1.5;"/>
   </g>
   <g id="line2d_73">
    <path clip-path="url(#pf04a911127)" d="M 51.99517 166.379052 
L 67.433906 166.188791 
L 82.872641 166.357397 
L 98.311376 166.484742 
L 113.750111 166.515383 
L 129.188846 166.522533 
L 144.627582 166.51423 
L 160.066317 166.53604 
L 175.505052 166.548636 
L 190.943787 166.554034 
L 206.382522 166.548233 
L 221.821257 166.512902 
L 237.259993 166.104063 
L 252.698728 164.869196 
L 268.137463 149.538723 
L 283.576198 136.7896 
L 299.014933 145.645824 
L 314.453668 135.065412 
L 329.892404 113.611354 
L 345.331139 143.580586 
L 360.769874 148.799832 
L 376.208609 153.004307 
L 391.647344 154.490758 
L 407.08608 163.092962 
" style="fill:none;stroke:#1b9e77;stroke-linecap:square;stroke-opacity:0.5;stroke-width:1.5;"/>
   </g>
   <g id="line2d_74">
    <path clip-path="url(#pf04a911127)" d="M 51.99517 166.413989 
L 67.433906 166.533287 
L 82.872641 166.493495 
L 98.311376 166.517504 
L 113.750111 166.48088 
L 129.188846 166.365114 
L 144.627582 163.487798 
L 160.066317 163.561591 
L 175.505052 118.839323 
L 190.943787 153.403609 
L 206.382522 165.957434 
L 221.821257 160.620323 
L 237.259993 120.672383 
L 252.698728 123.086075 
L 268.137463 159.067782 
L 283.576198 164.767213 
L 299.014933 159.31332 
L 314.453668 162.524745 
L 329.892404 164.656524 
L 345.331139 147.454891 
L 360.769874 160.896212 
L 376.208609 157.50857 
L 391.647344 161.51741 
L 407.08608 166.115122 
" style="fill:none;stroke:#1b9e77;stroke-linecap:square;stroke-opacity:0.5;stroke-width:1.5;"/>
   </g>
   <g id="line2d_75">
    <path clip-path="url(#pf04a911127)" d="M 51.99517 126.267556 
L 67.433906 124.962138 
L 82.872641 147.964099 
L 98.311376 163.275466 
L 113.750111 165.236502 
L 129.188846 163.960339 
L 144.627582 158.599587 
L 160.066317 155.5478 
L 175.505052 156.564745 
L 190.943787 161.068314 
L 206.382522 163.089783 
L 221.821257 163.814388 
L 237.259993 164.247554 
L 252.698728 165.84849 
L 268.137463 166.132916 
L 283.576198 165.039578 
L 299.014933 161.925891 
L 314.453668 164.372785 
L 329.892404 161.837348 
L 345.331139 150.419689 
L 360.769874 147.33889 
L 376.208609 157.191188 
L 391.647344 160.880699 
L 407.08608 156.668839 
" style="fill:none;stroke:#1b9e77;stroke-linecap:square;stroke-opacity:0.5;stroke-width:1.5;"/>
   </g>
   <g id="line2d_76">
    <path clip-path="url(#pf04a911127)" d="M 51.99517 165.865619 
L 67.433906 165.870501 
L 82.872641 151.584462 
L 98.311376 156.183444 
L 113.750111 147.548325 
L 129.188846 89.972421 
L 144.627582 158.381878 
L 160.066317 166.169548 
L 175.505052 166.101218 
L 190.943787 166.233464 
L 206.382522 165.159558 
L 221.821257 149.779816 
L 237.259993 159.269673 
L 252.698728 153.916978 
L 268.137463 155.271407 
L 283.576198 155.570404 
L 299.014933 155.507379 
L 314.453668 146.757194 
L 329.892404 164.932366 
L 345.331139 166.396417 
L 360.769874 166.37241 
L 376.208609 166.430383 
L 391.647344 166.426673 
L 407.08608 166.553052 
" style="fill:none;stroke:#1b9e77;stroke-linecap:square;stroke-opacity:0.5;stroke-width:1.5;"/>
   </g>
   <g id="line2d_77">
    <path clip-path="url(#pf04a911127)" d="M 51.99517 166.408922 
L 67.433906 166.321735 
L 82.872641 166.379243 
L 98.311376 166.525344 
L 113.750111 166.382575 
L 129.188846 165.829937 
L 144.627582 108.834628 
L 160.066317 89.622715 
L 175.505052 134.739394 
L 190.943787 153.884024 
L 206.382522 163.535039 
L 221.821257 153.461728 
L 237.259993 152.618406 
L 252.698728 156.195598 
L 268.137463 165.611398 
L 283.576198 165.559877 
L 299.014933 165.582519 
L 314.453668 165.963769 
L 329.892404 166.217352 
L 345.331139 166.434159 
L 360.769874 166.498362 
L 376.208609 166.553893 
L 391.647344 166.56277 
L 407.08608 166.531199 
" style="fill:none;stroke:#1b9e77;stroke-linecap:square;stroke-opacity:0.5;stroke-width:1.5;"/>
   </g>
   <g id="line2d_78">
    <path clip-path="url(#pf04a911127)" d="M 51.99517 161.062407 
L 67.433906 154.066986 
L 82.872641 163.281824 
L 98.311376 164.260636 
L 113.750111 164.706599 
L 129.188846 165.764812 
L 144.627582 166.297035 
L 160.066317 166.454422 
L 175.505052 166.44686 
L 190.943787 166.505935 
L 206.382522 166.522464 
L 221.821257 164.851922 
L 237.259993 154.885223 
L 252.698728 147.613857 
L 268.137463 93.853712 
L 283.576198 93.935865 
L 299.014933 153.572365 
L 314.453668 165.82654 
L 329.892404 166.521429 
L 345.331139 166.413016 
L 360.769874 165.886893 
L 376.208609 165.655659 
L 391.647344 165.356191 
L 407.08608 162.511942 
" style="fill:none;stroke:#1b9e77;stroke-linecap:square;stroke-opacity:0.5;stroke-width:1.5;"/>
   </g>
   <g id="line2d_79">
    <path clip-path="url(#pf04a911127)" d="M 51.99517 157.398064 
L 67.433906 57.892152 
L 82.872641 115.890428 
L 98.311376 137.529991 
L 113.750111 152.98692 
L 129.188846 160.754086 
L 144.627582 163.663722 
L 160.066317 165.316305 
L 175.505052 165.623076 
L 190.943787 166.042745 
L 206.382522 166.196366 
L 221.821257 166.397092 
L 237.259993 166.459897 
L 252.698728 166.500409 
L 268.137463 166.499982 
L 283.576198 166.485109 
L 299.014933 166.449552 
L 314.453668 166.43447 
L 329.892404 166.433205 
L 345.331139 166.395935 
L 360.769874 166.253827 
L 376.208609 166.197992 
L 391.647344 166.355713 
L 407.08608 166.097552 
" style="fill:none;stroke:#1b9e77;stroke-linecap:square;stroke-opacity:0.5;stroke-width:1.5;"/>
   </g>
   <g id="line2d_80">
    <path clip-path="url(#pf04a911127)" d="M 51.99517 166.463113 
L 67.433906 166.201798 
L 82.872641 166.298805 
L 98.311376 166.438376 
L 113.750111 166.486854 
L 129.188846 166.52512 
L 144.627582 166.533956 
L 160.066317 166.550273 
L 175.505052 166.323102 
L 190.943787 164.439241 
L 206.382522 159.352136 
L 221.821257 154.935559 
L 237.259993 152.366779 
L 252.698728 151.757075 
L 268.137463 150.634473 
L 283.576198 151.579274 
L 299.014933 147.628211 
L 314.453668 149.706965 
L 329.892404 149.0043 
L 345.331139 143.346151 
L 360.769874 128.999591 
L 376.208609 148.084844 
L 391.647344 158.27391 
L 407.08608 164.324682 
" style="fill:none;stroke:#1b9e77;stroke-linecap:square;stroke-opacity:0.5;stroke-width:1.5;"/>
   </g>
   <g id="line2d_81">
    <path clip-path="url(#pf04a911127)" d="M 51.99517 166.554656 
L 67.433906 166.358877 
L 82.872641 166.027846 
L 98.311376 161.283537 
L 113.750111 131.152438 
L 129.188846 144.674385 
L 144.627582 122.472711 
L 160.066317 136.932976 
L 175.505052 150.534651 
L 190.943787 162.004409 
L 206.382522 165.904743 
L 221.821257 166.117214 
L 237.259993 161.917051 
L 252.698728 145.373908 
L 268.137463 154.816046 
L 283.576198 149.23354 
L 299.014933 161.745767 
L 314.453668 163.945983 
L 329.892404 165.633678 
L 345.331139 166.182236 
L 360.769874 166.268669 
L 376.208609 166.379849 
L 391.647344 165.193997 
L 407.08608 165.545425 
" style="fill:none;stroke:#1b9e77;stroke-linecap:square;stroke-opacity:0.5;stroke-width:1.5;"/>
   </g>
   <g id="line2d_82">
    <path clip-path="url(#pf04a911127)" d="M 51.99517 138.389458 
L 67.433906 87.233809 
L 82.872641 148.382796 
L 98.311376 157.746388 
L 113.750111 162.34885 
L 129.188846 164.880402 
L 144.627582 165.867853 
L 160.066317 166.273643 
L 175.505052 166.254605 
L 190.943787 166.388544 
L 206.382522 165.577332 
L 221.821257 151.799525 
L 237.259993 135.234224 
L 252.698728 140.381865 
L 268.137463 160.661782 
L 283.576198 164.274357 
L 299.014933 165.842552 
L 314.453668 166.16593 
L 329.892404 166.356108 
L 345.331139 166.417182 
L 360.769874 166.449599 
L 376.208609 166.530583 
L 391.647344 166.539997 
L 407.08608 166.25721 
" style="fill:none;stroke:#1b9e77;stroke-linecap:square;stroke-opacity:0.5;stroke-width:1.5;"/>
   </g>
   <g id="line2d_83">
    <path clip-path="url(#pf04a911127)" d="M 51.99517 166.137344 
L 67.433906 163.431849 
L 82.872641 159.301024 
L 98.311376 161.456101 
L 113.750111 158.603513 
L 129.188846 122.614181 
L 144.627582 132.733345 
L 160.066317 132.604612 
L 175.505052 148.034158 
L 190.943787 155.815387 
L 206.382522 130.330912 
L 221.821257 144.730583 
L 237.259993 165.752194 
L 252.698728 165.919568 
L 268.137463 166.273566 
L 283.576198 166.414356 
L 299.014933 166.431008 
L 314.453668 166.468312 
L 329.892404 166.500674 
L 345.331139 166.534487 
L 360.769874 166.550232 
L 376.208609 166.5631 
L 391.647344 166.565519 
L 407.08608 166.488567 
" style="fill:none;stroke:#1b9e77;stroke-linecap:square;stroke-opacity:0.5;stroke-width:1.5;"/>
   </g>
   <g id="line2d_84">
    <path clip-path="url(#pf04a911127)" d="M 51.99517 143.381381 
L 67.433906 112.284952 
L 82.872641 114.819579 
L 98.311376 138.394428 
L 113.750111 149.218069 
L 129.188846 159.026228 
L 144.627582 162.49746 
L 160.066317 164.553002 
L 175.505052 165.103129 
L 190.943787 166.002646 
L 206.382522 166.159137 
L 221.821257 166.048225 
L 237.259993 165.531182 
L 252.698728 165.367924 
L 268.137463 164.186513 
L 283.576198 152.130591 
L 299.014933 164.276792 
L 314.453668 164.333114 
L 329.892404 163.860552 
L 345.331139 163.960265 
L 360.769874 163.764736 
L 376.208609 165.263369 
L 391.647344 165.918486 
L 407.08608 166.172828 
" style="fill:none;stroke:#1b9e77;stroke-linecap:square;stroke-opacity:0.5;stroke-width:1.5;"/>
   </g>
   <g id="line2d_85">
    <path clip-path="url(#pf04a911127)" d="M 51.99517 163.062635 
L 67.433906 161.814409 
L 82.872641 163.503449 
L 98.311376 165.30368 
L 113.750111 165.792473 
L 129.188846 166.00673 
L 144.627582 166.03572 
L 160.066317 166.239784 
L 175.505052 166.356041 
L 190.943787 166.394877 
L 206.382522 166.332025 
L 221.821257 166.320496 
L 237.259993 166.175687 
L 252.698728 164.969411 
L 268.137463 113.646461 
L 283.576198 23.002985 
L 299.014933 163.879156 
L 314.453668 162.73067 
L 329.892404 164.731581 
L 345.331139 165.717758 
L 360.769874 165.926499 
L 376.208609 166.000943 
L 391.647344 165.948445 
L 407.08608 166.362681 
" style="fill:none;stroke:#1b9e77;stroke-linecap:square;stroke-opacity:0.5;stroke-width:1.5;"/>
   </g>
   <g id="line2d_86">
    <path clip-path="url(#pf04a911127)" d="M 51.99517 166.451799 
L 67.433906 166.389043 
L 82.872641 166.452002 
L 98.311376 166.545891 
L 113.750111 166.560911 
L 129.188846 166.560998 
L 144.627582 166.558646 
L 160.066317 166.555236 
L 175.505052 166.532102 
L 190.943787 165.406583 
L 206.382522 156.888102 
L 221.821257 147.302282 
L 237.259993 161.205352 
L 252.698728 163.938709 
L 268.137463 129.480706 
L 283.576198 78.872286 
L 299.014933 106.944049 
L 314.453668 166.378973 
L 329.892404 166.116477 
L 345.331139 166.307993 
L 360.769874 165.921442 
L 376.208609 166.111898 
L 391.647344 166.313334 
L 407.08608 166.45978 
" style="fill:none;stroke:#1b9e77;stroke-linecap:square;stroke-opacity:0.5;stroke-width:1.5;"/>
   </g>
   <g id="line2d_87">
    <path clip-path="url(#pf04a911127)" d="M 51.99517 166.553086 
L 67.433906 166.542462 
L 82.872641 166.527837 
L 98.311376 165.824352 
L 113.750111 163.28556 
L 129.188846 160.435544 
L 144.627582 143.040653 
L 160.066317 140.303071 
L 175.505052 140.033153 
L 190.943787 159.382767 
L 206.382522 158.723546 
L 221.821257 126.884087 
L 237.259993 164.21882 
L 252.698728 143.754656 
L 268.137463 146.221552 
L 283.576198 133.005982 
L 299.014933 162.109128 
L 314.453668 166.358453 
L 329.892404 166.419611 
L 345.331139 166.515277 
L 360.769874 166.533173 
L 376.208609 166.55394 
L 391.647344 166.549817 
L 407.08608 166.478061 
" style="fill:none;stroke:#1b9e77;stroke-linecap:square;stroke-opacity:0.5;stroke-width:1.5;"/>
   </g>
   <g id="line2d_88">
    <path clip-path="url(#pf04a911127)" d="M 51.99517 159.511111 
L 67.433906 153.328535 
L 82.872641 136.103184 
L 98.311376 133.371046 
L 113.750111 110.86341 
L 129.188846 98.435871 
L 144.627582 155.069679 
L 160.066317 166.268208 
L 175.505052 165.426413 
L 190.943787 165.592775 
L 206.382522 166.032413 
L 221.821257 165.905576 
L 237.259993 166.121342 
L 252.698728 166.209158 
L 268.137463 166.23077 
L 283.576198 166.280451 
L 299.014933 166.337487 
L 314.453668 166.395176 
L 329.892404 166.428808 
L 345.331139 166.470883 
L 360.769874 166.492593 
L 376.208609 166.549661 
L 391.647344 166.557341 
L 407.08608 166.272699 
" style="fill:none;stroke:#1b9e77;stroke-linecap:square;stroke-opacity:0.5;stroke-width:1.5;"/>
   </g>
   <g id="line2d_89">
    <path clip-path="url(#pf04a911127)" d="M 51.99517 166.452254 
L 67.433906 165.939702 
L 82.872641 166.265951 
L 98.311376 166.089321 
L 113.750111 165.862803 
L 129.188846 166.030383 
L 144.627582 166.305131 
L 160.066317 166.378705 
L 175.505052 166.279847 
L 190.943787 166.313071 
L 206.382522 166.310623 
L 221.821257 165.340074 
L 237.259993 130.14117 
L 252.698728 116.650975 
L 268.137463 54.814773 
L 283.576198 158.518569 
L 299.014933 165.529809 
L 314.453668 166.208404 
L 329.892404 166.526667 
L 345.331139 166.403826 
L 360.769874 164.868151 
L 376.208609 163.648723 
L 391.647344 159.389598 
L 407.08608 165.98605 
" style="fill:none;stroke:#1b9e77;stroke-linecap:square;stroke-opacity:0.5;stroke-width:1.5;"/>
   </g>
   <g id="line2d_90">
    <path clip-path="url(#pf04a911127)" d="M 51.99517 166.457517 
L 67.433906 166.31051 
L 82.872641 166.387628 
L 98.311376 166.498187 
L 113.750111 166.533067 
L 129.188846 166.545884 
L 144.627582 166.54396 
L 160.066317 166.552288 
L 175.505052 166.560138 
L 190.943787 166.562827 
L 206.382522 166.560845 
L 221.821257 166.551378 
L 237.259993 166.478483 
L 252.698728 162.806138 
L 268.137463 149.819521 
L 283.576198 148.646123 
L 299.014933 142.994651 
L 314.453668 130.262085 
L 329.892404 116.893107 
L 345.331139 146.571437 
L 360.769874 135.745731 
L 376.208609 144.461453 
L 391.647344 163.565706 
L 407.08608 165.945922 
" style="fill:none;stroke:#1b9e77;stroke-linecap:square;stroke-opacity:0.5;stroke-width:1.5;"/>
   </g>
   <g id="line2d_91">
    <path clip-path="url(#pf04a911127)" d="M 51.99517 165.776704 
L 67.433906 165.583706 
L 82.872641 165.022257 
L 98.311376 164.687388 
L 113.750111 162.022366 
L 129.188846 149.437082 
L 144.627582 158.285785 
L 160.066317 166.371681 
L 175.505052 166.315416 
L 190.943787 160.840881 
L 206.382522 164.565863 
L 221.821257 161.53766 
L 237.259993 162.3285 
L 252.698728 161.117274 
L 268.137463 164.13628 
L 283.576198 163.223334 
L 299.014933 153.764959 
L 314.453668 125.00547 
L 329.892404 132.436522 
L 345.331139 146.952944 
L 360.769874 128.636796 
L 376.208609 155.234702 
L 391.647344 163.253785 
L 407.08608 165.717229 
" style="fill:none;stroke:#1b9e77;stroke-linecap:square;stroke-opacity:0.5;stroke-width:1.5;"/>
   </g>
   <g id="line2d_92">
    <path clip-path="url(#pf04a911127)" d="M 51.99517 162.379997 
L 67.433906 165.759429 
L 82.872641 165.729652 
L 98.311376 166.100716 
L 113.750111 165.140487 
L 129.188846 162.283216 
L 144.627582 139.224958 
L 160.066317 138.738575 
L 175.505052 139.643625 
L 190.943787 160.841142 
L 206.382522 165.714681 
L 221.821257 163.461202 
L 237.259993 154.388829 
L 252.698728 162.935854 
L 268.137463 163.836315 
L 283.576198 137.289716 
L 299.014933 125.986437 
L 314.453668 147.375147 
L 329.892404 162.791336 
L 345.331139 164.599053 
L 360.769874 162.568881 
L 376.208609 165.592001 
L 391.647344 165.080909 
L 407.08608 164.792428 
" style="fill:none;stroke:#1b9e77;stroke-linecap:square;stroke-opacity:0.5;stroke-width:1.5;"/>
   </g>
   <g id="line2d_93">
    <path clip-path="url(#pf04a911127)" d="M 51.99517 164.273992 
L 67.433906 166.13133 
L 82.872641 165.896853 
L 98.311376 164.992454 
L 113.750111 98.543533 
L 129.188846 73.702513 
L 144.627582 154.395995 
L 160.066317 155.717394 
L 175.505052 153.33438 
L 190.943787 154.275028 
L 206.382522 162.088216 
L 221.821257 165.015847 
L 237.259993 165.515248 
L 252.698728 165.900574 
L 268.137463 166.092446 
L 283.576198 166.195669 
L 299.014933 166.148594 
L 314.453668 166.111229 
L 329.892404 166.137421 
L 345.331139 166.201307 
L 360.769874 166.225052 
L 376.208609 166.45474 
L 391.647344 166.529624 
L 407.08608 166.375144 
" style="fill:none;stroke:#1b9e77;stroke-linecap:square;stroke-opacity:0.5;stroke-width:1.5;"/>
   </g>
   <g id="line2d_94">
    <path clip-path="url(#pf04a911127)" d="M 51.99517 161.712488 
L 67.433906 156.316829 
L 82.872641 139.599093 
L 98.311376 137.178957 
L 113.750111 134.314752 
L 129.188846 112.284252 
L 144.627582 135.418758 
L 160.066317 156.505775 
L 175.505052 157.885964 
L 190.943787 159.438448 
L 206.382522 160.73783 
L 221.821257 163.688676 
L 237.259993 166.293953 
L 252.698728 166.029064 
L 268.137463 166.309853 
L 283.576198 166.424338 
L 299.014933 166.433265 
L 314.453668 166.468035 
L 329.892404 166.499704 
L 345.331139 166.535523 
L 360.769874 166.5529 
L 376.208609 166.566212 
L 391.647344 166.56735 
L 407.08608 166.492574 
" style="fill:none;stroke:#1b9e77;stroke-linecap:square;stroke-opacity:0.5;stroke-width:1.5;"/>
   </g>
   <g id="line2d_95">
    <path clip-path="url(#pf04a911127)" d="M 51.99517 166.046548 
L 67.433906 166.417278 
L 82.872641 165.863561 
L 98.311376 165.476964 
L 113.750111 153.871644 
L 129.188846 163.445202 
L 144.627582 165.983812 
L 160.066317 166.009776 
L 175.505052 163.976973 
L 190.943787 163.923123 
L 206.382522 165.37369 
L 221.821257 163.576312 
L 237.259993 139.151427 
L 252.698728 120.22917 
L 268.137463 142.227341 
L 283.576198 151.427271 
L 299.014933 154.177729 
L 314.453668 141.115906 
L 329.892404 146.078505 
L 345.331139 157.259795 
L 360.769874 155.591815 
L 376.208609 164.383082 
L 391.647344 165.565305 
L 407.08608 165.082355 
" style="fill:none;stroke:#1b9e77;stroke-linecap:square;stroke-opacity:0.5;stroke-width:1.5;"/>
   </g>
   <g id="line2d_96">
    <path clip-path="url(#pf04a911127)" d="M 51.99517 165.097682 
L 67.433906 166.149824 
L 82.872641 165.596628 
L 98.311376 165.582032 
L 113.750111 158.043087 
L 129.188846 154.609297 
L 144.627582 151.486418 
L 160.066317 140.428259 
L 175.505052 150.870902 
L 190.943787 159.115651 
L 206.382522 164.291532 
L 221.821257 164.450154 
L 237.259993 164.214669 
L 252.698728 164.6957 
L 268.137463 163.284756 
L 283.576198 145.270562 
L 299.014933 159.673202 
L 314.453668 103.315558 
L 329.892404 154.444195 
L 345.331139 158.950263 
L 360.769874 160.161529 
L 376.208609 165.776789 
L 391.647344 166.478523 
L 407.08608 160.267377 
" style="fill:none;stroke:#1b9e77;stroke-linecap:square;stroke-opacity:0.5;stroke-width:1.5;"/>
   </g>
   <g id="line2d_97">
    <path clip-path="url(#pf04a911127)" d="M 51.99517 163.43344 
L 67.433906 162.064331 
L 82.872641 161.150285 
L 98.311376 150.734225 
L 113.750111 153.994906 
L 129.188846 160.824354 
L 144.627582 159.001632 
L 160.066317 141.483942 
L 175.505052 158.381495 
L 190.943787 160.012411 
L 206.382522 157.081127 
L 221.821257 143.493971 
L 237.259993 94.433486 
L 252.698728 154.876163 
L 268.137463 158.070557 
L 283.576198 165.939052 
L 299.014933 165.432889 
L 314.453668 164.878597 
L 329.892404 165.495586 
L 345.331139 166.024435 
L 360.769874 166.27235 
L 376.208609 166.360893 
L 391.647344 166.287861 
L 407.08608 166.526611 
" style="fill:none;stroke:#1b9e77;stroke-linecap:square;stroke-opacity:0.5;stroke-width:1.5;"/>
   </g>
   <g id="line2d_98">
    <path clip-path="url(#pf04a911127)" d="M 51.99517 166.454739 
L 67.433906 166.338757 
L 82.872641 166.434091 
L 98.311376 166.519532 
L 113.750111 166.539931 
L 129.188846 166.557236 
L 144.627582 166.554982 
L 160.066317 166.509628 
L 175.505052 165.799975 
L 190.943787 164.558385 
L 206.382522 161.442966 
L 221.821257 158.363505 
L 237.259993 144.94733 
L 252.698728 109.111589 
L 268.137463 116.879902 
L 283.576198 163.202449 
L 299.014933 160.41024 
L 314.453668 161.529436 
L 329.892404 148.985378 
L 345.331139 124.425993 
L 360.769874 163.045474 
L 376.208609 165.936916 
L 391.647344 165.812436 
L 407.08608 165.89372 
" style="fill:none;stroke:#1b9e77;stroke-linecap:square;stroke-opacity:0.5;stroke-width:1.5;"/>
   </g>
   <g id="line2d_99">
    <path clip-path="url(#pf04a911127)" d="M 51.99517 157.186397 
L 67.433906 142.276624 
L 82.872641 139.821423 
L 98.311376 123.841759 
L 113.750111 153.353144 
L 129.188846 149.292164 
L 144.627582 144.072403 
L 160.066317 130.87344 
L 175.505052 148.547659 
L 190.943787 159.661733 
L 206.382522 164.868583 
L 221.821257 166.132468 
L 237.259993 166.081029 
L 252.698728 164.13171 
L 268.137463 166.336346 
L 283.576198 166.189176 
L 299.014933 166.060186 
L 314.453668 166.199923 
L 329.892404 166.347365 
L 345.331139 166.396854 
L 360.769874 166.398304 
L 376.208609 166.500551 
L 391.647344 166.545434 
L 407.08608 165.139915 
" style="fill:none;stroke:#1b9e77;stroke-linecap:square;stroke-opacity:0.5;stroke-width:1.5;"/>
   </g>
   <g id="line2d_100">
    <path clip-path="url(#pf04a911127)" d="M 51.99517 166.527241 
L 67.433906 166.466528 
L 82.872641 166.466366 
L 98.311376 166.505209 
L 113.750111 166.516568 
L 129.188846 166.553852 
L 144.627582 166.564254 
L 160.066317 166.561659 
L 175.505052 166.522432 
L 190.943787 166.511666 
L 206.382522 164.904701 
L 221.821257 158.782943 
L 237.259993 161.451748 
L 252.698728 160.06862 
L 268.137463 152.2099 
L 283.576198 120.867261 
L 299.014933 86.817219 
L 314.453668 146.526749 
L 329.892404 160.572902 
L 345.331139 157.980644 
L 360.769874 161.326269 
L 376.208609 159.204563 
L 391.647344 154.987698 
L 407.08608 161.357588 
" style="fill:none;stroke:#1b9e77;stroke-linecap:square;stroke-opacity:0.5;stroke-width:1.5;"/>
   </g>
   <g id="line2d_101">
    <path clip-path="url(#pf04a911127)" d="M 51.99517 130.171503 
L 67.433906 63.364803 
L 82.872641 126.350418 
L 98.311376 148.782748 
L 113.750111 160.32182 
L 129.188846 152.999849 
L 144.627582 163.544205 
L 160.066317 166.164003 
L 175.505052 166.015193 
L 190.943787 166.245495 
L 206.382522 166.382953 
L 221.821257 166.399895 
L 237.259993 166.434312 
L 252.698728 166.472986 
L 268.137463 166.438394 
L 283.576198 166.368239 
L 299.014933 166.331389 
L 314.453668 166.356385 
L 329.892404 166.354949 
L 345.331139 166.223242 
L 360.769874 166.116682 
L 376.208609 166.382109 
L 391.647344 166.509537 
L 407.08608 165.523481 
" style="fill:none;stroke:#1b9e77;stroke-linecap:square;stroke-opacity:0.5;stroke-width:1.5;"/>
   </g>
   <g id="line2d_102">
    <path clip-path="url(#pf04a911127)" d="M 51.99517 166.527546 
L 67.433906 166.48846 
L 82.872641 166.458457 
L 98.311376 166.475315 
L 113.750111 166.395607 
L 129.188846 166.490086 
L 144.627582 161.145248 
L 160.066317 106.025646 
L 175.505052 121.743074 
L 190.943787 113.065426 
L 206.382522 141.251843 
L 221.821257 158.722533 
L 237.259993 164.696509 
L 252.698728 165.319224 
L 268.137463 165.415163 
L 283.576198 159.232 
L 299.014933 162.485533 
L 314.453668 160.760138 
L 329.892404 164.481439 
L 345.331139 165.167678 
L 360.769874 165.408568 
L 376.208609 165.97313 
L 391.647344 166.109795 
L 407.08608 166.416174 
" style="fill:none;stroke:#1b9e77;stroke-linecap:square;stroke-opacity:0.5;stroke-width:1.5;"/>
   </g>
   <g id="line2d_103">
    <path clip-path="url(#pf04a911127)" d="M 51.99517 165.860914 
L 67.433906 164.572948 
L 82.872641 160.635773 
L 98.311376 156.936169 
L 113.750111 139.997815 
L 129.188846 118.607123 
L 144.627582 156.928725 
L 160.066317 158.8293 
L 175.505052 150.867389 
L 190.943787 146.078072 
L 206.382522 153.931918 
L 221.821257 159.274018 
L 237.259993 163.873745 
L 252.698728 163.209568 
L 268.137463 157.452243 
L 283.576198 154.13709 
L 299.014933 148.079292 
L 314.453668 158.447594 
L 329.892404 164.091904 
L 345.331139 166.404236 
L 360.769874 166.227318 
L 376.208609 166.34871 
L 391.647344 166.428021 
L 407.08608 165.034706 
" style="fill:none;stroke:#1b9e77;stroke-linecap:square;stroke-opacity:0.5;stroke-width:1.5;"/>
   </g>
   <g id="line2d_104">
    <path clip-path="url(#pf04a911127)" d="M 51.99517 166.435724 
L 67.433906 166.323623 
L 82.872641 166.395137 
L 98.311376 166.501479 
L 113.750111 166.532548 
L 129.188846 166.555275 
L 144.627582 166.559971 
L 160.066317 166.562458 
L 175.505052 166.557561 
L 190.943787 166.530788 
L 206.382522 165.477055 
L 221.821257 159.337046 
L 237.259993 151.759162 
L 252.698728 132.924193 
L 268.137463 86.447048 
L 283.576198 124.520668 
L 299.014933 156.921921 
L 314.453668 155.637491 
L 329.892404 154.661126 
L 345.331139 160.789739 
L 360.769874 163.072064 
L 376.208609 164.950924 
L 391.647344 164.444508 
L 407.08608 166.357088 
" style="fill:none;stroke:#1b9e77;stroke-linecap:square;stroke-opacity:0.5;stroke-width:1.5;"/>
   </g>
   <g id="line2d_105">
    <path clip-path="url(#pf04a911127)" d="M 51.99517 166.331932 
L 67.433906 165.732065 
L 82.872641 159.999487 
L 98.311376 135.049665 
L 113.750111 149.574523 
L 129.188846 143.192783 
L 144.627582 102.038394 
L 160.066317 140.35499 
L 175.505052 132.154412 
L 190.943787 154.587616 
L 206.382522 162.810877 
L 221.821257 165.974404 
L 237.259993 165.751865 
L 252.698728 165.126444 
L 268.137463 166.100583 
L 283.576198 166.223105 
L 299.014933 166.12301 
L 314.453668 166.209768 
L 329.892404 166.34591 
L 345.331139 166.491117 
L 360.769874 166.535414 
L 376.208609 166.560506 
L 391.647344 166.561418 
L 407.08608 166.424296 
" style="fill:none;stroke:#1b9e77;stroke-linecap:square;stroke-opacity:0.5;stroke-width:1.5;"/>
   </g>
   <g id="line2d_106">
    <path clip-path="url(#pf04a911127)" d="M 51.99517 166.529048 
L 67.433906 166.496631 
L 82.872641 166.530764 
L 98.311376 166.544488 
L 113.750111 166.510698 
L 129.188846 166.456318 
L 144.627582 164.46481 
L 160.066317 159.362351 
L 175.505052 166.061314 
L 190.943787 165.590839 
L 206.382522 165.335833 
L 221.821257 165.710101 
L 237.259993 157.317976 
L 252.698728 136.568367 
L 268.137463 118.125149 
L 283.576198 145.12073 
L 299.014933 163.459018 
L 314.453668 162.541119 
L 329.892404 162.61766 
L 345.331139 162.007431 
L 360.769874 119.798569 
L 376.208609 143.655953 
L 391.647344 150.509522 
L 407.08608 164.939903 
" style="fill:none;stroke:#1b9e77;stroke-linecap:square;stroke-opacity:0.5;stroke-width:1.5;"/>
   </g>
   <g id="line2d_107">
    <path clip-path="url(#pf04a911127)" d="M 51.99517 150.730608 
L 67.433906 112.507787 
L 82.872641 126.139114 
L 98.311376 133.462902 
L 113.750111 141.030125 
L 129.188846 153.309197 
L 144.627582 161.311745 
L 160.066317 164.636132 
L 175.505052 165.040073 
L 190.943787 165.088812 
L 206.382522 165.231739 
L 221.821257 165.94564 
L 237.259993 166.320141 
L 252.698728 166.404818 
L 268.137463 166.325789 
L 283.576198 166.205497 
L 299.014933 166.148774 
L 314.453668 166.308141 
L 329.892404 166.360733 
L 345.331139 166.277244 
L 360.769874 166.11025 
L 376.208609 166.405604 
L 391.647344 165.329229 
L 407.08608 139.624496 
" style="fill:none;stroke:#1b9e77;stroke-linecap:square;stroke-opacity:0.5;stroke-width:1.5;"/>
   </g>
   <g id="line2d_108">
    <path clip-path="url(#pf04a911127)" d="M 51.99517 165.944579 
L 67.433906 148.280147 
L 82.872641 156.535542 
L 98.311376 157.105257 
L 113.750111 143.717752 
L 129.188846 105.175008 
L 144.627582 146.09645 
L 160.066317 162.024136 
L 175.505052 164.977501 
L 190.943787 165.328962 
L 206.382522 165.843749 
L 221.821257 166.176744 
L 237.259993 166.21117 
L 252.698728 164.674225 
L 268.137463 149.167067 
L 283.576198 125.668439 
L 299.014933 161.455347 
L 314.453668 163.284338 
L 329.892404 165.899877 
L 345.331139 166.460959 
L 360.769874 166.398409 
L 376.208609 164.690643 
L 391.647344 164.741758 
L 407.08608 166.396535 
" style="fill:none;stroke:#1b9e77;stroke-linecap:square;stroke-opacity:0.5;stroke-width:1.5;"/>
   </g>
   <g id="line2d_109">
    <path clip-path="url(#pf04a911127)" d="M 51.99517 162.877102 
L 67.433906 159.337398 
L 82.872641 148.696263 
L 98.311376 156.664106 
L 113.750111 122.174019 
L 129.188846 96.2452 
L 144.627582 145.138165 
L 160.066317 150.675606 
L 175.505052 146.549532 
L 190.943787 153.55598 
L 206.382522 165.754436 
L 221.821257 166.343342 
L 237.259993 166.422847 
L 252.698728 166.45921 
L 268.137463 166.520789 
L 283.576198 166.524831 
L 299.014933 166.49513 
L 314.453668 166.512468 
L 329.892404 166.538899 
L 345.331139 166.551306 
L 360.769874 166.553576 
L 376.208609 166.562766 
L 391.647344 166.56613 
L 407.08608 166.535496 
" style="fill:none;stroke:#1b9e77;stroke-linecap:square;stroke-opacity:0.5;stroke-width:1.5;"/>
   </g>
   <g id="line2d_110">
    <path clip-path="url(#pf04a911127)" d="M 51.99517 166.50592 
L 67.433906 166.451394 
L 82.872641 166.490463 
L 98.311376 166.538258 
L 113.750111 166.547393 
L 129.188846 166.544713 
L 144.627582 166.467424 
L 160.066317 166.475189 
L 175.505052 166.318803 
L 190.943787 152.967976 
L 206.382522 136.293233 
L 221.821257 124.932646 
L 237.259993 126.888956 
L 252.698728 152.682906 
L 268.137463 130.154513 
L 283.576198 145.101894 
L 299.014933 151.476509 
L 314.453668 161.587116 
L 329.892404 165.334083 
L 345.331139 165.826893 
L 360.769874 165.333768 
L 376.208609 164.006381 
L 391.647344 164.821345 
L 407.08608 166.506803 
" style="fill:none;stroke:#1b9e77;stroke-linecap:square;stroke-opacity:0.5;stroke-width:1.5;"/>
   </g>
   <g id="line2d_111">
    <path clip-path="url(#pf04a911127)" d="M 51.99517 166.527586 
L 67.433906 166.37345 
L 82.872641 161.376067 
L 98.311376 163.547563 
L 113.750111 165.767095 
L 129.188846 164.327332 
L 144.627582 138.571159 
L 160.066317 155.042163 
L 175.505052 160.524836 
L 190.943787 165.817952 
L 206.382522 162.462892 
L 221.821257 165.626056 
L 237.259993 163.869731 
L 252.698728 126.702414 
L 268.137463 166.297099 
L 283.576198 162.442006 
L 299.014933 84.578974 
L 314.453668 147.623293 
L 329.892404 158.476237 
L 345.331139 160.517026 
L 360.769874 166.466884 
L 376.208609 166.38074 
L 391.647344 166.391651 
L 407.08608 166.544379 
" style="fill:none;stroke:#1b9e77;stroke-linecap:square;stroke-opacity:0.5;stroke-width:1.5;"/>
   </g>
   <g id="line2d_112">
    <path clip-path="url(#pf04a911127)" d="M 51.99517 150.622458 
L 67.433906 132.045635 
L 82.872641 134.956584 
L 98.311376 30.151021 
L 113.750111 160.936386 
L 129.188846 166.559936 
L 144.627582 166.498246 
L 160.066317 166.511591 
L 175.505052 166.545252 
L 190.943787 165.651124 
L 206.382522 166.559936 
L 221.821257 166.559936 
L 237.259993 166.559936 
L 252.698728 166.559936 
L 268.137463 166.559936 
L 283.576198 166.553448 
L 299.014933 166.508082 
L 314.453668 166.555475 
L 329.892404 166.559936 
L 345.331139 166.559936 
L 360.769874 166.559936 
L 376.208609 166.559936 
L 391.647344 166.559936 
L 407.08608 166.559936 
" style="fill:none;stroke:#d95f02;stroke-linecap:square;stroke-width:1.5;"/>
   </g>
   <g id="patch_3">
    <path d="M 34.240625 174.127672 
L 34.240625 7.807672 
" style="fill:none;stroke:#000000;stroke-linecap:square;stroke-linejoin:miter;stroke-width:0.8;"/>
   </g>
   <g id="patch_4">
    <path d="M 34.240625 174.127672 
L 424.840625 174.127672 
" style="fill:none;stroke:#000000;stroke-linecap:square;stroke-linejoin:miter;stroke-width:0.8;"/>
   </g>
   <g id="legend_1">
    <g id="patch_5">
     <path d="M 366.673438 30.485797 
L 417.840625 30.485797 
Q 419.840625 30.485797 419.840625 28.485797 
L 419.840625 14.807672 
Q 419.840625 12.807672 417.840625 12.807672 
L 366.673438 12.807672 
Q 364.673438 12.807672 364.673438 14.807672 
L 364.673438 28.485797 
Q 364.673438 30.485797 366.673438 30.485797 
z
" style="fill:#ffffff;opacity:0.8;stroke:#cccccc;stroke-linejoin:miter;"/>
    </g>
    <g id="line2d_113">
     <path d="M 368.673438 20.906109 
L 388.673438 20.906109 
" style="fill:none;stroke:#d95f02;stroke-linecap:square;stroke-width:1.5;"/>
    </g>
    <g id="line2d_114"/>
    <g id="text_14">
     <!-- real -->
     <defs>
      <path d="M 9.421875 75.984375 
L 18.40625 75.984375 
L 18.40625 0 
L 9.421875 0 
z
" id="DejaVuSans-108"/>
     </defs>
     <g transform="translate(396.673438 24.406109)scale(0.1 -0.1)">
      <use xlink:href="#DejaVuSans-114"/>
      <use x="41.082031" xlink:href="#DejaVuSans-101"/>
      <use x="102.605469" xlink:href="#DejaVuSans-97"/>
      <use x="163.884766" xlink:href="#DejaVuSans-108"/>
     </g>
    </g>
   </g>
  </g>
 </g>
 <defs>
  <clipPath id="pf04a911127">
   <rect height="166.32" width="390.6" x="34.240625" y="7.807672"/>
  </clipPath>
 </defs>
</svg>
