<?xml version="1.0" encoding="utf-8" standalone="no"?>
<!DOCTYPE svg PUBLIC "-//W3C//DTD SVG 1.1//EN"
  "http://www.w3.org/Graphics/SVG/1.1/DTD/svg11.dtd">
<!-- Created with matplotlib (https://matplotlib.org/) -->
<svg height="211.07625pt" version="1.1" viewBox="0 0 436.087315 211.07625" width="436.087315pt" xmlns="http://www.w3.org/2000/svg" xmlns:xlink="http://www.w3.org/1999/xlink">
 <defs>
  <style type="text/css">
*{stroke-linecap:butt;stroke-linejoin:round;}
  </style>
 </defs>
 <g id="figure_1">
  <g id="patch_1">
   <path d="M 0 211.07625 
L 436.087315 211.07625 
L 436.087315 0 
L 0 0 
z
" style="fill:#ffffff;"/>
  </g>
  <g id="axes_1">
   <g id="patch_2">
    <path d="M 34.240625 173.52 
L 424.840625 173.52 
L 424.840625 7.2 
L 34.240625 7.2 
z
" style="fill:#ffffff;"/>
   </g>
   <g id="matplotlib.axis_1">
    <g id="xtick_1">
     <g id="line2d_1">
      <defs>
       <path d="M 0 0 
L 0 3.5 
" id="mae728c5505" style="stroke:#000000;stroke-width:0.8;"/>
      </defs>
      <g>
       <use style="stroke:#000000;stroke-width:0.8;" x="36.556435" xlink:href="#mae728c5505" y="173.52"/>
      </g>
     </g>
     <g id="text_1">
      <!-- 0 -->
      <defs>
       <path d="M 31.78125 66.40625 
Q 24.171875 66.40625 20.328125 58.90625 
Q 16.5 51.421875 16.5 36.375 
Q 16.5 21.390625 20.328125 13.890625 
Q 24.171875 6.390625 31.78125 6.390625 
Q 39.453125 6.390625 43.28125 13.890625 
Q 47.125 21.390625 47.125 36.375 
Q 47.125 51.421875 43.28125 58.90625 
Q 39.453125 66.40625 31.78125 66.40625 
z
M 31.78125 74.21875 
Q 44.046875 74.21875 50.515625 64.515625 
Q 56.984375 54.828125 56.984375 36.375 
Q 56.984375 17.96875 50.515625 8.265625 
Q 44.046875 -1.421875 31.78125 -1.421875 
Q 19.53125 -1.421875 13.0625 8.265625 
Q 6.59375 17.96875 6.59375 36.375 
Q 6.59375 54.828125 13.0625 64.515625 
Q 19.53125 74.21875 31.78125 74.21875 
z
" id="DejaVuSans-48"/>
      </defs>
      <g transform="translate(33.375185 188.118438)scale(0.1 -0.1)">
       <use xlink:href="#DejaVuSans-48"/>
      </g>
     </g>
    </g>
    <g id="xtick_2">
     <g id="line2d_2">
      <g>
       <use style="stroke:#000000;stroke-width:0.8;" x="113.750111" xlink:href="#mae728c5505" y="173.52"/>
      </g>
     </g>
     <g id="text_2">
      <!-- 5 -->
      <defs>
       <path d="M 10.796875 72.90625 
L 49.515625 72.90625 
L 49.515625 64.59375 
L 19.828125 64.59375 
L 19.828125 46.734375 
Q 21.96875 47.46875 24.109375 47.828125 
Q 26.265625 48.1875 28.421875 48.1875 
Q 40.625 48.1875 47.75 41.5 
Q 54.890625 34.8125 54.890625 23.390625 
Q 54.890625 11.625 47.5625 5.09375 
Q 40.234375 -1.421875 26.90625 -1.421875 
Q 22.3125 -1.421875 17.546875 -0.640625 
Q 12.796875 0.140625 7.71875 1.703125 
L 7.71875 11.625 
Q 12.109375 9.234375 16.796875 8.0625 
Q 21.484375 6.890625 26.703125 6.890625 
Q 35.15625 6.890625 40.078125 11.328125 
Q 45.015625 15.765625 45.015625 23.390625 
Q 45.015625 31 40.078125 35.4375 
Q 35.15625 39.890625 26.703125 39.890625 
Q 22.75 39.890625 18.8125 39.015625 
Q 14.890625 38.140625 10.796875 36.28125 
z
" id="DejaVuSans-53"/>
      </defs>
      <g transform="translate(110.568861 188.118438)scale(0.1 -0.1)">
       <use xlink:href="#DejaVuSans-53"/>
      </g>
     </g>
    </g>
    <g id="xtick_3">
     <g id="line2d_3">
      <g>
       <use style="stroke:#000000;stroke-width:0.8;" x="190.943787" xlink:href="#mae728c5505" y="173.52"/>
      </g>
     </g>
     <g id="text_3">
      <!-- 10 -->
      <defs>
       <path d="M 12.40625 8.296875 
L 28.515625 8.296875 
L 28.515625 63.921875 
L 10.984375 60.40625 
L 10.984375 69.390625 
L 28.421875 72.90625 
L 38.28125 72.90625 
L 38.28125 8.296875 
L 54.390625 8.296875 
L 54.390625 0 
L 12.40625 0 
z
" id="DejaVuSans-49"/>
      </defs>
      <g transform="translate(184.581287 188.118438)scale(0.1 -0.1)">
       <use xlink:href="#DejaVuSans-49"/>
       <use x="63.623047" xlink:href="#DejaVuSans-48"/>
      </g>
     </g>
    </g>
    <g id="xtick_4">
     <g id="line2d_4">
      <g>
       <use style="stroke:#000000;stroke-width:0.8;" x="268.137463" xlink:href="#mae728c5505" y="173.52"/>
      </g>
     </g>
     <g id="text_4">
      <!-- 15 -->
      <g transform="translate(261.774963 188.118438)scale(0.1 -0.1)">
       <use xlink:href="#DejaVuSans-49"/>
       <use x="63.623047" xlink:href="#DejaVuSans-53"/>
      </g>
     </g>
    </g>
    <g id="xtick_5">
     <g id="line2d_5">
      <g>
       <use style="stroke:#000000;stroke-width:0.8;" x="345.331139" xlink:href="#mae728c5505" y="173.52"/>
      </g>
     </g>
     <g id="text_5">
      <!-- 20 -->
      <defs>
       <path d="M 19.1875 8.296875 
L 53.609375 8.296875 
L 53.609375 0 
L 7.328125 0 
L 7.328125 8.296875 
Q 12.9375 14.109375 22.625 23.890625 
Q 32.328125 33.6875 34.8125 36.53125 
Q 39.546875 41.84375 41.421875 45.53125 
Q 43.3125 49.21875 43.3125 52.78125 
Q 43.3125 58.59375 39.234375 62.25 
Q 35.15625 65.921875 28.609375 65.921875 
Q 23.96875 65.921875 18.8125 64.3125 
Q 13.671875 62.703125 7.8125 59.421875 
L 7.8125 69.390625 
Q 13.765625 71.78125 18.9375 73 
Q 24.125 74.21875 28.421875 74.21875 
Q 39.75 74.21875 46.484375 68.546875 
Q 53.21875 62.890625 53.21875 53.421875 
Q 53.21875 48.921875 51.53125 44.890625 
Q 49.859375 40.875 45.40625 35.40625 
Q 44.1875 33.984375 37.640625 27.21875 
Q 31.109375 20.453125 19.1875 8.296875 
z
" id="DejaVuSans-50"/>
      </defs>
      <g transform="translate(338.968639 188.118438)scale(0.1 -0.1)">
       <use xlink:href="#DejaVuSans-50"/>
       <use x="63.623047" xlink:href="#DejaVuSans-48"/>
      </g>
     </g>
    </g>
    <g id="xtick_6">
     <g id="line2d_6">
      <g>
       <use style="stroke:#000000;stroke-width:0.8;" x="422.524815" xlink:href="#mae728c5505" y="173.52"/>
      </g>
     </g>
     <g id="text_6">
      <!-- 25 -->
      <g transform="translate(416.162315 188.118438)scale(0.1 -0.1)">
       <use xlink:href="#DejaVuSans-50"/>
       <use x="63.623047" xlink:href="#DejaVuSans-53"/>
      </g>
     </g>
    </g>
    <g id="text_7">
     <!-- hour -->
     <defs>
      <path d="M 54.890625 33.015625 
L 54.890625 0 
L 45.90625 0 
L 45.90625 32.71875 
Q 45.90625 40.484375 42.875 44.328125 
Q 39.84375 48.1875 33.796875 48.1875 
Q 26.515625 48.1875 22.3125 43.546875 
Q 18.109375 38.921875 18.109375 30.90625 
L 18.109375 0 
L 9.078125 0 
L 9.078125 75.984375 
L 18.109375 75.984375 
L 18.109375 46.1875 
Q 21.34375 51.125 25.703125 53.5625 
Q 30.078125 56 35.796875 56 
Q 45.21875 56 50.046875 50.171875 
Q 54.890625 44.34375 54.890625 33.015625 
z
" id="DejaVuSans-104"/>
      <path d="M 30.609375 48.390625 
Q 23.390625 48.390625 19.1875 42.75 
Q 14.984375 37.109375 14.984375 27.296875 
Q 14.984375 17.484375 19.15625 11.84375 
Q 23.34375 6.203125 30.609375 6.203125 
Q 37.796875 6.203125 41.984375 11.859375 
Q 46.1875 17.53125 46.1875 27.296875 
Q 46.1875 37.015625 41.984375 42.703125 
Q 37.796875 48.390625 30.609375 48.390625 
z
M 30.609375 56 
Q 42.328125 56 49.015625 48.375 
Q 55.71875 40.765625 55.71875 27.296875 
Q 55.71875 13.875 49.015625 6.21875 
Q 42.328125 -1.421875 30.609375 -1.421875 
Q 18.84375 -1.421875 12.171875 6.21875 
Q 5.515625 13.875 5.515625 27.296875 
Q 5.515625 40.765625 12.171875 48.375 
Q 18.84375 56 30.609375 56 
z
" id="DejaVuSans-111"/>
      <path d="M 8.5 21.578125 
L 8.5 54.6875 
L 17.484375 54.6875 
L 17.484375 21.921875 
Q 17.484375 14.15625 20.5 10.265625 
Q 23.53125 6.390625 29.59375 6.390625 
Q 36.859375 6.390625 41.078125 11.03125 
Q 45.3125 15.671875 45.3125 23.6875 
L 45.3125 54.6875 
L 54.296875 54.6875 
L 54.296875 0 
L 45.3125 0 
L 45.3125 8.40625 
Q 42.046875 3.421875 37.71875 1 
Q 33.40625 -1.421875 27.6875 -1.421875 
Q 18.265625 -1.421875 13.375 4.4375 
Q 8.5 10.296875 8.5 21.578125 
z
M 31.109375 56 
z
" id="DejaVuSans-117"/>
      <path d="M 41.109375 46.296875 
Q 39.59375 47.171875 37.8125 47.578125 
Q 36.03125 48 33.890625 48 
Q 26.265625 48 22.1875 43.046875 
Q 18.109375 38.09375 18.109375 28.8125 
L 18.109375 0 
L 9.078125 0 
L 9.078125 54.6875 
L 18.109375 54.6875 
L 18.109375 46.1875 
Q 20.953125 51.171875 25.484375 53.578125 
Q 30.03125 56 36.53125 56 
Q 37.453125 56 38.578125 55.875 
Q 39.703125 55.765625 41.0625 55.515625 
z
" id="DejaVuSans-114"/>
     </defs>
     <g transform="translate(218.088281 201.796563)scale(0.1 -0.1)">
      <use xlink:href="#DejaVuSans-104"/>
      <use x="63.378906" xlink:href="#DejaVuSans-111"/>
      <use x="124.560547" xlink:href="#DejaVuSans-117"/>
      <use x="187.939453" xlink:href="#DejaVuSans-114"/>
     </g>
    </g>
   </g>
   <g id="matplotlib.axis_2">
    <g id="ytick_1">
     <g id="line2d_7">
      <defs>
       <path d="M 0 0 
L -3.5 0 
" id="m278306f0f8" style="stroke:#000000;stroke-width:0.8;"/>
      </defs>
      <g>
       <use style="stroke:#000000;stroke-width:0.8;" x="34.240625" xlink:href="#m278306f0f8" y="165.966713"/>
      </g>
     </g>
     <g id="text_8">
      <!-- 0 -->
      <g transform="translate(20.878125 169.765931)scale(0.1 -0.1)">
       <use xlink:href="#DejaVuSans-48"/>
      </g>
     </g>
    </g>
    <g id="ytick_2">
     <g id="line2d_8">
      <g>
       <use style="stroke:#000000;stroke-width:0.8;" x="34.240625" xlink:href="#m278306f0f8" y="142.709645"/>
      </g>
     </g>
     <g id="text_9">
      <!-- 1 -->
      <g transform="translate(20.878125 146.508864)scale(0.1 -0.1)">
       <use xlink:href="#DejaVuSans-49"/>
      </g>
     </g>
    </g>
    <g id="ytick_3">
     <g id="line2d_9">
      <g>
       <use style="stroke:#000000;stroke-width:0.8;" x="34.240625" xlink:href="#m278306f0f8" y="119.452578"/>
      </g>
     </g>
     <g id="text_10">
      <!-- 2 -->
      <g transform="translate(20.878125 123.251797)scale(0.1 -0.1)">
       <use xlink:href="#DejaVuSans-50"/>
      </g>
     </g>
    </g>
    <g id="ytick_4">
     <g id="line2d_10">
      <g>
       <use style="stroke:#000000;stroke-width:0.8;" x="34.240625" xlink:href="#m278306f0f8" y="96.195511"/>
      </g>
     </g>
     <g id="text_11">
      <!-- 3 -->
      <defs>
       <path d="M 40.578125 39.3125 
Q 47.65625 37.796875 51.625 33 
Q 55.609375 28.21875 55.609375 21.1875 
Q 55.609375 10.40625 48.1875 4.484375 
Q 40.765625 -1.421875 27.09375 -1.421875 
Q 22.515625 -1.421875 17.65625 -0.515625 
Q 12.796875 0.390625 7.625 2.203125 
L 7.625 11.71875 
Q 11.71875 9.328125 16.59375 8.109375 
Q 21.484375 6.890625 26.8125 6.890625 
Q 36.078125 6.890625 40.9375 10.546875 
Q 45.796875 14.203125 45.796875 21.1875 
Q 45.796875 27.640625 41.28125 31.265625 
Q 36.765625 34.90625 28.71875 34.90625 
L 20.21875 34.90625 
L 20.21875 43.015625 
L 29.109375 43.015625 
Q 36.375 43.015625 40.234375 45.921875 
Q 44.09375 48.828125 44.09375 54.296875 
Q 44.09375 59.90625 40.109375 62.90625 
Q 36.140625 65.921875 28.71875 65.921875 
Q 24.65625 65.921875 20.015625 65.03125 
Q 15.375 64.15625 9.8125 62.3125 
L 9.8125 71.09375 
Q 15.4375 72.65625 20.34375 73.4375 
Q 25.25 74.21875 29.59375 74.21875 
Q 40.828125 74.21875 47.359375 69.109375 
Q 53.90625 64.015625 53.90625 55.328125 
Q 53.90625 49.265625 50.4375 45.09375 
Q 46.96875 40.921875 40.578125 39.3125 
z
" id="DejaVuSans-51"/>
      </defs>
      <g transform="translate(20.878125 99.99473)scale(0.1 -0.1)">
       <use xlink:href="#DejaVuSans-51"/>
      </g>
     </g>
    </g>
    <g id="ytick_5">
     <g id="line2d_11">
      <g>
       <use style="stroke:#000000;stroke-width:0.8;" x="34.240625" xlink:href="#m278306f0f8" y="72.938444"/>
      </g>
     </g>
     <g id="text_12">
      <!-- 4 -->
      <defs>
       <path d="M 37.796875 64.3125 
L 12.890625 25.390625 
L 37.796875 25.390625 
z
M 35.203125 72.90625 
L 47.609375 72.90625 
L 47.609375 25.390625 
L 58.015625 25.390625 
L 58.015625 17.1875 
L 47.609375 17.1875 
L 47.609375 0 
L 37.796875 0 
L 37.796875 17.1875 
L 4.890625 17.1875 
L 4.890625 26.703125 
z
" id="DejaVuSans-52"/>
      </defs>
      <g transform="translate(20.878125 76.737663)scale(0.1 -0.1)">
       <use xlink:href="#DejaVuSans-52"/>
      </g>
     </g>
    </g>
    <g id="ytick_6">
     <g id="line2d_12">
      <g>
       <use style="stroke:#000000;stroke-width:0.8;" x="34.240625" xlink:href="#m278306f0f8" y="49.681377"/>
      </g>
     </g>
     <g id="text_13">
      <!-- 5 -->
      <g transform="translate(20.878125 53.480595)scale(0.1 -0.1)">
       <use xlink:href="#DejaVuSans-53"/>
      </g>
     </g>
    </g>
    <g id="ytick_7">
     <g id="line2d_13">
      <g>
       <use style="stroke:#000000;stroke-width:0.8;" x="34.240625" xlink:href="#m278306f0f8" y="26.424309"/>
      </g>
     </g>
     <g id="text_14">
      <!-- 6 -->
      <defs>
       <path d="M 33.015625 40.375 
Q 26.375 40.375 22.484375 35.828125 
Q 18.609375 31.296875 18.609375 23.390625 
Q 18.609375 15.53125 22.484375 10.953125 
Q 26.375 6.390625 33.015625 6.390625 
Q 39.65625 6.390625 43.53125 10.953125 
Q 47.40625 15.53125 47.40625 23.390625 
Q 47.40625 31.296875 43.53125 35.828125 
Q 39.65625 40.375 33.015625 40.375 
z
M 52.59375 71.296875 
L 52.59375 62.3125 
Q 48.875 64.0625 45.09375 64.984375 
Q 41.3125 65.921875 37.59375 65.921875 
Q 27.828125 65.921875 22.671875 59.328125 
Q 17.53125 52.734375 16.796875 39.40625 
Q 19.671875 43.65625 24.015625 45.921875 
Q 28.375 48.1875 33.59375 48.1875 
Q 44.578125 48.1875 50.953125 41.515625 
Q 57.328125 34.859375 57.328125 23.390625 
Q 57.328125 12.15625 50.6875 5.359375 
Q 44.046875 -1.421875 33.015625 -1.421875 
Q 20.359375 -1.421875 13.671875 8.265625 
Q 6.984375 17.96875 6.984375 36.375 
Q 6.984375 53.65625 15.1875 63.9375 
Q 23.390625 74.21875 37.203125 74.21875 
Q 40.921875 74.21875 44.703125 73.484375 
Q 48.484375 72.75 52.59375 71.296875 
z
" id="DejaVuSans-54"/>
      </defs>
      <g transform="translate(20.878125 30.223528)scale(0.1 -0.1)">
       <use xlink:href="#DejaVuSans-54"/>
      </g>
     </g>
    </g>
    <g id="text_15">
     <!-- precipitation [mm/hour] -->
     <defs>
      <path d="M 18.109375 8.203125 
L 18.109375 -20.796875 
L 9.078125 -20.796875 
L 9.078125 54.6875 
L 18.109375 54.6875 
L 18.109375 46.390625 
Q 20.953125 51.265625 25.265625 53.625 
Q 29.59375 56 35.59375 56 
Q 45.5625 56 51.78125 48.09375 
Q 58.015625 40.1875 58.015625 27.296875 
Q 58.015625 14.40625 51.78125 6.484375 
Q 45.5625 -1.421875 35.59375 -1.421875 
Q 29.59375 -1.421875 25.265625 0.953125 
Q 20.953125 3.328125 18.109375 8.203125 
z
M 48.6875 27.296875 
Q 48.6875 37.203125 44.609375 42.84375 
Q 40.53125 48.484375 33.40625 48.484375 
Q 26.265625 48.484375 22.1875 42.84375 
Q 18.109375 37.203125 18.109375 27.296875 
Q 18.109375 17.390625 22.1875 11.75 
Q 26.265625 6.109375 33.40625 6.109375 
Q 40.53125 6.109375 44.609375 11.75 
Q 48.6875 17.390625 48.6875 27.296875 
z
" id="DejaVuSans-112"/>
      <path d="M 56.203125 29.59375 
L 56.203125 25.203125 
L 14.890625 25.203125 
Q 15.484375 15.921875 20.484375 11.0625 
Q 25.484375 6.203125 34.421875 6.203125 
Q 39.59375 6.203125 44.453125 7.46875 
Q 49.3125 8.734375 54.109375 11.28125 
L 54.109375 2.78125 
Q 49.265625 0.734375 44.1875 -0.34375 
Q 39.109375 -1.421875 33.890625 -1.421875 
Q 20.796875 -1.421875 13.15625 6.1875 
Q 5.515625 13.8125 5.515625 26.8125 
Q 5.515625 40.234375 12.765625 48.109375 
Q 20.015625 56 32.328125 56 
Q 43.359375 56 49.78125 48.890625 
Q 56.203125 41.796875 56.203125 29.59375 
z
M 47.21875 32.234375 
Q 47.125 39.59375 43.09375 43.984375 
Q 39.0625 48.390625 32.421875 48.390625 
Q 24.90625 48.390625 20.390625 44.140625 
Q 15.875 39.890625 15.1875 32.171875 
z
" id="DejaVuSans-101"/>
      <path d="M 48.78125 52.59375 
L 48.78125 44.1875 
Q 44.96875 46.296875 41.140625 47.34375 
Q 37.3125 48.390625 33.40625 48.390625 
Q 24.65625 48.390625 19.8125 42.84375 
Q 14.984375 37.3125 14.984375 27.296875 
Q 14.984375 17.28125 19.8125 11.734375 
Q 24.65625 6.203125 33.40625 6.203125 
Q 37.3125 6.203125 41.140625 7.25 
Q 44.96875 8.296875 48.78125 10.40625 
L 48.78125 2.09375 
Q 45.015625 0.34375 40.984375 -0.53125 
Q 36.96875 -1.421875 32.421875 -1.421875 
Q 20.0625 -1.421875 12.78125 6.34375 
Q 5.515625 14.109375 5.515625 27.296875 
Q 5.515625 40.671875 12.859375 48.328125 
Q 20.21875 56 33.015625 56 
Q 37.15625 56 41.109375 55.140625 
Q 45.0625 54.296875 48.78125 52.59375 
z
" id="DejaVuSans-99"/>
      <path d="M 9.421875 54.6875 
L 18.40625 54.6875 
L 18.40625 0 
L 9.421875 0 
z
M 9.421875 75.984375 
L 18.40625 75.984375 
L 18.40625 64.59375 
L 9.421875 64.59375 
z
" id="DejaVuSans-105"/>
      <path d="M 18.3125 70.21875 
L 18.3125 54.6875 
L 36.8125 54.6875 
L 36.8125 47.703125 
L 18.3125 47.703125 
L 18.3125 18.015625 
Q 18.3125 11.328125 20.140625 9.421875 
Q 21.96875 7.515625 27.59375 7.515625 
L 36.8125 7.515625 
L 36.8125 0 
L 27.59375 0 
Q 17.1875 0 13.234375 3.875 
Q 9.28125 7.765625 9.28125 18.015625 
L 9.28125 47.703125 
L 2.6875 47.703125 
L 2.6875 54.6875 
L 9.28125 54.6875 
L 9.28125 70.21875 
z
" id="DejaVuSans-116"/>
      <path d="M 34.28125 27.484375 
Q 23.390625 27.484375 19.1875 25 
Q 14.984375 22.515625 14.984375 16.5 
Q 14.984375 11.71875 18.140625 8.90625 
Q 21.296875 6.109375 26.703125 6.109375 
Q 34.1875 6.109375 38.703125 11.40625 
Q 43.21875 16.703125 43.21875 25.484375 
L 43.21875 27.484375 
z
M 52.203125 31.203125 
L 52.203125 0 
L 43.21875 0 
L 43.21875 8.296875 
Q 40.140625 3.328125 35.546875 0.953125 
Q 30.953125 -1.421875 24.3125 -1.421875 
Q 15.921875 -1.421875 10.953125 3.296875 
Q 6 8.015625 6 15.921875 
Q 6 25.140625 12.171875 29.828125 
Q 18.359375 34.515625 30.609375 34.515625 
L 43.21875 34.515625 
L 43.21875 35.40625 
Q 43.21875 41.609375 39.140625 45 
Q 35.0625 48.390625 27.6875 48.390625 
Q 23 48.390625 18.546875 47.265625 
Q 14.109375 46.140625 10.015625 43.890625 
L 10.015625 52.203125 
Q 14.9375 54.109375 19.578125 55.046875 
Q 24.21875 56 28.609375 56 
Q 40.484375 56 46.34375 49.84375 
Q 52.203125 43.703125 52.203125 31.203125 
z
" id="DejaVuSans-97"/>
      <path d="M 54.890625 33.015625 
L 54.890625 0 
L 45.90625 0 
L 45.90625 32.71875 
Q 45.90625 40.484375 42.875 44.328125 
Q 39.84375 48.1875 33.796875 48.1875 
Q 26.515625 48.1875 22.3125 43.546875 
Q 18.109375 38.921875 18.109375 30.90625 
L 18.109375 0 
L 9.078125 0 
L 9.078125 54.6875 
L 18.109375 54.6875 
L 18.109375 46.1875 
Q 21.34375 51.125 25.703125 53.5625 
Q 30.078125 56 35.796875 56 
Q 45.21875 56 50.046875 50.171875 
Q 54.890625 44.34375 54.890625 33.015625 
z
" id="DejaVuSans-110"/>
      <path id="DejaVuSans-32"/>
      <path d="M 8.59375 75.984375 
L 29.296875 75.984375 
L 29.296875 69 
L 17.578125 69 
L 17.578125 -6.203125 
L 29.296875 -6.203125 
L 29.296875 -13.1875 
L 8.59375 -13.1875 
z
" id="DejaVuSans-91"/>
      <path d="M 52 44.1875 
Q 55.375 50.25 60.0625 53.125 
Q 64.75 56 71.09375 56 
Q 79.640625 56 84.28125 50.015625 
Q 88.921875 44.046875 88.921875 33.015625 
L 88.921875 0 
L 79.890625 0 
L 79.890625 32.71875 
Q 79.890625 40.578125 77.09375 44.375 
Q 74.3125 48.1875 68.609375 48.1875 
Q 61.625 48.1875 57.5625 43.546875 
Q 53.515625 38.921875 53.515625 30.90625 
L 53.515625 0 
L 44.484375 0 
L 44.484375 32.71875 
Q 44.484375 40.625 41.703125 44.40625 
Q 38.921875 48.1875 33.109375 48.1875 
Q 26.21875 48.1875 22.15625 43.53125 
Q 18.109375 38.875 18.109375 30.90625 
L 18.109375 0 
L 9.078125 0 
L 9.078125 54.6875 
L 18.109375 54.6875 
L 18.109375 46.1875 
Q 21.1875 51.21875 25.484375 53.609375 
Q 29.78125 56 35.6875 56 
Q 41.65625 56 45.828125 52.96875 
Q 50 49.953125 52 44.1875 
z
" id="DejaVuSans-109"/>
      <path d="M 25.390625 72.90625 
L 33.6875 72.90625 
L 8.296875 -9.28125 
L 0 -9.28125 
z
" id="DejaVuSans-47"/>
      <path d="M 30.421875 75.984375 
L 30.421875 -13.1875 
L 9.71875 -13.1875 
L 9.71875 -6.203125 
L 21.390625 -6.203125 
L 21.390625 69 
L 9.71875 69 
L 9.71875 75.984375 
z
" id="DejaVuSans-93"/>
     </defs>
     <g transform="translate(14.798438 150.335781)rotate(-90)scale(0.1 -0.1)">
      <use xlink:href="#DejaVuSans-112"/>
      <use x="63.476562" xlink:href="#DejaVuSans-114"/>
      <use x="104.558594" xlink:href="#DejaVuSans-101"/>
      <use x="166.082031" xlink:href="#DejaVuSans-99"/>
      <use x="221.0625" xlink:href="#DejaVuSans-105"/>
      <use x="248.845703" xlink:href="#DejaVuSans-112"/>
      <use x="312.322266" xlink:href="#DejaVuSans-105"/>
      <use x="340.105469" xlink:href="#DejaVuSans-116"/>
      <use x="379.314453" xlink:href="#DejaVuSans-97"/>
      <use x="440.59375" xlink:href="#DejaVuSans-116"/>
      <use x="479.802734" xlink:href="#DejaVuSans-105"/>
      <use x="507.585938" xlink:href="#DejaVuSans-111"/>
      <use x="568.767578" xlink:href="#DejaVuSans-110"/>
      <use x="632.146484" xlink:href="#DejaVuSans-32"/>
      <use x="663.933594" xlink:href="#DejaVuSans-91"/>
      <use x="702.947266" xlink:href="#DejaVuSans-109"/>
      <use x="800.359375" xlink:href="#DejaVuSans-109"/>
      <use x="897.771484" xlink:href="#DejaVuSans-47"/>
      <use x="931.462891" xlink:href="#DejaVuSans-104"/>
      <use x="994.841797" xlink:href="#DejaVuSans-111"/>
      <use x="1056.023438" xlink:href="#DejaVuSans-117"/>
      <use x="1119.402344" xlink:href="#DejaVuSans-114"/>
      <use x="1160.515625" xlink:href="#DejaVuSans-93"/>
     </g>
    </g>
   </g>
   <g id="line2d_14">
    <path clip-path="url(#p92073cca39)" d="M 51.99517 165.848717 
L 67.433906 165.725204 
L 82.872641 165.8167 
L 98.311376 165.919868 
L 113.750111 165.943871 
L 129.188846 165.955055 
L 144.627582 165.947455 
L 160.066317 165.853382 
L 175.505052 156.10715 
L 190.943787 138.201803 
L 206.382522 151.598452 
L 221.821257 156.692839 
L 237.259993 148.343345 
L 252.698728 152.94235 
L 268.137463 163.895229 
L 283.576198 165.785607 
L 299.014933 165.945318 
L 314.453668 165.702205 
L 329.892404 162.716489 
L 345.331139 164.033655 
L 360.769874 152.202848 
L 376.208609 110.045227 
L 391.647344 153.804134 
L 407.08608 165.388037 
" style="fill:none;stroke:#1b9e77;stroke-linecap:square;stroke-opacity:0.5;stroke-width:1.5;"/>
   </g>
   <g id="line2d_15">
    <path clip-path="url(#p92073cca39)" d="M 51.99517 165.94092 
L 67.433906 165.892937 
L 82.872641 165.907786 
L 98.311376 165.934644 
L 113.750111 165.779476 
L 129.188846 165.185595 
L 144.627582 160.682692 
L 160.066317 157.278617 
L 175.505052 152.742441 
L 190.943787 150.666098 
L 206.382522 151.115812 
L 221.821257 148.963275 
L 237.259993 130.529825 
L 252.698728 142.414207 
L 268.137463 157.670504 
L 283.576198 161.906117 
L 299.014933 164.484382 
L 314.453668 159.985787 
L 329.892404 160.138894 
L 345.331139 165.190033 
L 360.769874 164.19049 
L 376.208609 150.784503 
L 391.647344 162.513352 
L 407.08608 164.516556 
" style="fill:none;stroke:#1b9e77;stroke-linecap:square;stroke-opacity:0.5;stroke-width:1.5;"/>
   </g>
   <g id="line2d_16">
    <path clip-path="url(#p92073cca39)" d="M 51.99517 165.212531 
L 67.433906 165.092692 
L 82.872641 165.431515 
L 98.311376 165.665493 
L 113.750111 165.714755 
L 129.188846 165.813271 
L 144.627582 165.868819 
L 160.066317 165.905896 
L 175.505052 165.908871 
L 190.943787 165.92784 
L 206.382522 165.937427 
L 221.821257 165.950094 
L 237.259993 165.949867 
L 252.698728 165.946603 
L 268.137463 165.694981 
L 283.576198 158.167931 
L 299.014933 152.190817 
L 314.453668 148.722033 
L 329.892404 158.633107 
L 345.331139 160.634458 
L 360.769874 132.45331 
L 376.208609 127.639229 
L 391.647344 134.173351 
L 407.08608 141.780043 
" style="fill:none;stroke:#1b9e77;stroke-linecap:square;stroke-opacity:0.5;stroke-width:1.5;"/>
   </g>
   <g id="line2d_17">
    <path clip-path="url(#p92073cca39)" d="M 51.99517 165.843842 
L 67.433906 165.683113 
L 82.872641 165.779359 
L 98.311376 165.882297 
L 113.750111 165.914119 
L 129.188846 165.939331 
L 144.627582 165.946876 
L 160.066317 165.950986 
L 175.505052 165.775043 
L 190.943787 164.871837 
L 206.382522 155.968128 
L 221.821257 139.036387 
L 237.259993 122.1122 
L 252.698728 131.441121 
L 268.137463 145.170865 
L 283.576198 156.227447 
L 299.014933 162.41495 
L 314.453668 158.828697 
L 329.892404 156.619918 
L 345.331139 163.381933 
L 360.769874 160.967691 
L 376.208609 160.647962 
L 391.647344 164.357815 
L 407.08608 165.65302 
" style="fill:none;stroke:#1b9e77;stroke-linecap:square;stroke-opacity:0.5;stroke-width:1.5;"/>
   </g>
   <g id="line2d_18">
    <path clip-path="url(#p92073cca39)" d="M 51.99517 165.752621 
L 67.433906 165.446027 
L 82.872641 165.694429 
L 98.311376 165.817579 
L 113.750111 165.827722 
L 129.188846 165.834585 
L 144.627582 165.851277 
L 160.066317 165.887411 
L 175.505052 165.904018 
L 190.943787 165.912207 
L 206.382522 165.911223 
L 221.821257 165.932864 
L 237.259993 165.944251 
L 252.698728 165.951325 
L 268.137463 165.946431 
L 283.576198 165.935743 
L 299.014933 165.807071 
L 314.453668 164.218369 
L 329.892404 146.220832 
L 345.331139 136.265756 
L 360.769874 127.453386 
L 376.208609 115.910718 
L 391.647344 133.696677 
L 407.08608 157.292418 
" style="fill:none;stroke:#1b9e77;stroke-linecap:square;stroke-opacity:0.5;stroke-width:1.5;"/>
   </g>
   <g id="line2d_19">
    <path clip-path="url(#p92073cca39)" d="M 51.99517 165.892427 
L 67.433906 165.695531 
L 82.872641 165.649007 
L 98.311376 165.755826 
L 113.750111 165.77505 
L 129.188846 165.873699 
L 144.627582 165.920785 
L 160.066317 165.928962 
L 175.505052 165.915847 
L 190.943787 165.925962 
L 206.382522 165.934427 
L 221.821257 165.918091 
L 237.259993 165.883849 
L 252.698728 165.933693 
L 268.137463 165.822937 
L 283.576198 161.368471 
L 299.014933 156.884384 
L 314.453668 153.433603 
L 329.892404 144.490621 
L 345.331139 135.49756 
L 360.769874 87.09109 
L 376.208609 149.986402 
L 391.647344 161.282209 
L 407.08608 162.554501 
" style="fill:none;stroke:#1b9e77;stroke-linecap:square;stroke-opacity:0.5;stroke-width:1.5;"/>
   </g>
   <g id="line2d_20">
    <path clip-path="url(#p92073cca39)" d="M 51.99517 165.905042 
L 67.433906 165.800857 
L 82.872641 165.859742 
L 98.311376 165.913869 
L 113.750111 165.927335 
L 129.188846 165.944488 
L 144.627582 165.950067 
L 160.066317 165.953438 
L 175.505052 165.9538 
L 190.943787 165.955575 
L 206.382522 165.949102 
L 221.821257 165.869501 
L 237.259993 165.539506 
L 252.698728 164.851524 
L 268.137463 157.176693 
L 283.576198 154.81312 
L 299.014933 161.651916 
L 314.453668 161.543392 
L 329.892404 158.242671 
L 345.331139 145.010944 
L 360.769874 78.974125 
L 376.208609 139.84854 
L 391.647344 157.777584 
L 407.08608 164.002105 
" style="fill:none;stroke:#1b9e77;stroke-linecap:square;stroke-opacity:0.5;stroke-width:1.5;"/>
   </g>
   <g id="line2d_21">
    <path clip-path="url(#p92073cca39)" d="M 51.99517 142.593934 
L 67.433906 159.032539 
L 82.872641 156.592221 
L 98.311376 161.485833 
L 113.750111 109.985453 
L 129.188846 144.34892 
L 144.627582 163.996921 
L 160.066317 165.236635 
L 175.505052 165.075311 
L 190.943787 164.249209 
L 206.382522 165.300303 
L 221.821257 164.865512 
L 237.259993 145.362099 
L 252.698728 154.384812 
L 268.137463 164.276901 
L 283.576198 161.174105 
L 299.014933 160.390079 
L 314.453668 162.876221 
L 329.892404 164.911171 
L 345.331139 165.555183 
L 360.769874 165.650075 
L 376.208609 165.894561 
L 391.647344 165.915054 
L 407.08608 161.261891 
" style="fill:none;stroke:#1b9e77;stroke-linecap:square;stroke-opacity:0.5;stroke-width:1.5;"/>
   </g>
   <g id="line2d_22">
    <path clip-path="url(#p92073cca39)" d="M 51.99517 163.305991 
L 67.433906 160.94579 
L 82.872641 158.377182 
L 98.311376 156.062462 
L 113.750111 157.558247 
L 129.188846 159.115327 
L 144.627582 158.032403 
L 160.066317 158.067348 
L 175.505052 161.807322 
L 190.943787 159.357627 
L 206.382522 162.601293 
L 221.821257 164.793146 
L 237.259993 163.916135 
L 252.698728 149.10118 
L 268.137463 148.480121 
L 283.576198 153.616279 
L 299.014933 155.645973 
L 314.453668 145.254614 
L 329.892404 147.361739 
L 345.331139 154.98897 
L 360.769874 164.741114 
L 376.208609 165.71308 
L 391.647344 165.75673 
L 407.08608 165.814867 
" style="fill:none;stroke:#1b9e77;stroke-linecap:square;stroke-opacity:0.5;stroke-width:1.5;"/>
   </g>
   <g id="line2d_23">
    <path clip-path="url(#p92073cca39)" d="M 51.99517 165.421197 
L 67.433906 165.21362 
L 82.872641 165.525255 
L 98.311376 165.81792 
L 113.750111 165.879086 
L 129.188846 165.918634 
L 144.627582 165.920841 
L 160.066317 165.912743 
L 175.505052 165.845319 
L 190.943787 165.315731 
L 206.382522 153.703005 
L 221.821257 101.17697 
L 237.259993 115.035786 
L 252.698728 152.373758 
L 268.137463 156.986401 
L 283.576198 154.844935 
L 299.014933 155.194271 
L 314.453668 163.916966 
L 329.892404 164.470998 
L 345.331139 164.815111 
L 360.769874 165.240558 
L 376.208609 165.800389 
L 391.647344 165.880333 
L 407.08608 164.205108 
" style="fill:none;stroke:#1b9e77;stroke-linecap:square;stroke-opacity:0.5;stroke-width:1.5;"/>
   </g>
   <g id="line2d_24">
    <path clip-path="url(#p92073cca39)" d="M 51.99517 161.844025 
L 67.433906 163.786508 
L 82.872641 164.126149 
L 98.311376 163.12128 
L 113.750111 114.992857 
L 129.188846 137.718172 
L 144.627582 164.177785 
L 160.066317 165.773392 
L 175.505052 165.939403 
L 190.943787 165.938402 
L 206.382522 165.868714 
L 221.821257 165.839711 
L 237.259993 165.570892 
L 252.698728 165.87141 
L 268.137463 165.410367 
L 283.576198 164.951249 
L 299.014933 159.916605 
L 314.453668 143.775193 
L 329.892404 143.594079 
L 345.331139 135.697044 
L 360.769874 160.562015 
L 376.208609 165.280807 
L 391.647344 165.543413 
L 407.08608 165.115457 
" style="fill:none;stroke:#1b9e77;stroke-linecap:square;stroke-opacity:0.5;stroke-width:1.5;"/>
   </g>
   <g id="line2d_25">
    <path clip-path="url(#p92073cca39)" d="M 51.99517 141.63895 
L 67.433906 111.150274 
L 82.872641 146.339093 
L 98.311376 160.117534 
L 113.750111 164.164867 
L 129.188846 165.172189 
L 144.627582 165.675326 
L 160.066317 165.83264 
L 175.505052 165.574946 
L 190.943787 165.816394 
L 206.382522 162.59575 
L 221.821257 145.330686 
L 237.259993 154.610256 
L 252.698728 155.866463 
L 268.137463 161.169434 
L 283.576198 163.567726 
L 299.014933 165.009689 
L 314.453668 165.190407 
L 329.892404 164.5349 
L 345.331139 161.999707 
L 360.769874 159.212555 
L 376.208609 159.254544 
L 391.647344 164.819934 
L 407.08608 165.770677 
" style="fill:none;stroke:#1b9e77;stroke-linecap:square;stroke-opacity:0.5;stroke-width:1.5;"/>
   </g>
   <g id="line2d_26">
    <path clip-path="url(#p92073cca39)" d="M 51.99517 159.66381 
L 67.433906 158.907744 
L 82.872641 158.331621 
L 98.311376 151.205811 
L 113.750111 121.105584 
L 129.188846 138.378458 
L 144.627582 160.728224 
L 160.066317 162.164867 
L 175.505052 163.005838 
L 190.943787 163.661416 
L 206.382522 164.726606 
L 221.821257 165.609158 
L 237.259993 165.855573 
L 252.698728 165.920988 
L 268.137463 165.895778 
L 283.576198 165.890776 
L 299.014933 165.858008 
L 314.453668 165.806485 
L 329.892404 163.219778 
L 345.331139 141.784182 
L 360.769874 155.284822 
L 376.208609 164.408959 
L 391.647344 162.145399 
L 407.08608 150.855053 
" style="fill:none;stroke:#1b9e77;stroke-linecap:square;stroke-opacity:0.5;stroke-width:1.5;"/>
   </g>
   <g id="line2d_27">
    <path clip-path="url(#p92073cca39)" d="M 51.99517 165.747311 
L 67.433906 163.541203 
L 82.872641 161.980063 
L 98.311376 156.072218 
L 113.750111 160.104674 
L 129.188846 165.585747 
L 144.627582 165.338674 
L 160.066317 156.213273 
L 175.505052 157.679439 
L 190.943787 156.996591 
L 206.382522 150.883104 
L 221.821257 154.914689 
L 237.259993 152.164881 
L 252.698728 101.524431 
L 268.137463 148.65684 
L 283.576198 162.686686 
L 299.014933 164.036773 
L 314.453668 164.636701 
L 329.892404 165.106216 
L 345.331139 163.828316 
L 360.769874 165.434557 
L 376.208609 165.876776 
L 391.647344 165.906917 
L 407.08608 165.498866 
" style="fill:none;stroke:#1b9e77;stroke-linecap:square;stroke-opacity:0.5;stroke-width:1.5;"/>
   </g>
   <g id="line2d_28">
    <path clip-path="url(#p92073cca39)" d="M 51.99517 165.901944 
L 67.433906 165.843427 
L 82.872641 165.906837 
L 98.311376 165.906673 
L 113.750111 165.913058 
L 129.188846 165.935353 
L 144.627582 165.888578 
L 160.066317 165.673404 
L 175.505052 165.368677 
L 190.943787 165.34645 
L 206.382522 161.985455 
L 221.821257 151.021756 
L 237.259993 135.236456 
L 252.698728 125.557634 
L 268.137463 138.092426 
L 283.576198 149.126503 
L 299.014933 150.354109 
L 314.453668 137.788121 
L 329.892404 165.522206 
L 345.331139 165.280858 
L 360.769874 165.386274 
L 376.208609 165.654182 
L 391.647344 165.79363 
L 407.08608 165.930927 
" style="fill:none;stroke:#1b9e77;stroke-linecap:square;stroke-opacity:0.5;stroke-width:1.5;"/>
   </g>
   <g id="line2d_29">
    <path clip-path="url(#p92073cca39)" d="M 51.99517 165.830059 
L 67.433906 165.159909 
L 82.872641 165.376294 
L 98.311376 165.615673 
L 113.750111 165.716241 
L 129.188846 165.837335 
L 144.627582 165.892381 
L 160.066317 165.942579 
L 175.505052 165.950815 
L 190.943787 165.949579 
L 206.382522 165.920481 
L 221.821257 164.08465 
L 237.259993 153.403556 
L 252.698728 151.098845 
L 268.137463 153.691653 
L 283.576198 151.686199 
L 299.014933 143.454846 
L 314.453668 144.774439 
L 329.892404 144.709575 
L 345.331139 138.205182 
L 360.769874 146.818788 
L 376.208609 156.63737 
L 391.647344 163.216282 
L 407.08608 165.44221 
" style="fill:none;stroke:#1b9e77;stroke-linecap:square;stroke-opacity:0.5;stroke-width:1.5;"/>
   </g>
   <g id="line2d_30">
    <path clip-path="url(#p92073cca39)" d="M 51.99517 162.805357 
L 67.433906 140.770915 
L 82.872641 140.215813 
L 98.311376 156.063937 
L 113.750111 164.071987 
L 129.188846 164.401223 
L 144.627582 165.059706 
L 160.066317 161.504998 
L 175.505052 165.648696 
L 190.943787 165.872626 
L 206.382522 165.876757 
L 221.821257 165.855047 
L 237.259993 163.936737 
L 252.698728 158.910616 
L 268.137463 141.912835 
L 283.576198 127.442266 
L 299.014933 144.627155 
L 314.453668 164.076376 
L 329.892404 165.701871 
L 345.331139 165.601053 
L 360.769874 164.462216 
L 376.208609 165.137448 
L 391.647344 164.608045 
L 407.08608 155.851266 
" style="fill:none;stroke:#1b9e77;stroke-linecap:square;stroke-opacity:0.5;stroke-width:1.5;"/>
   </g>
   <g id="line2d_31">
    <path clip-path="url(#p92073cca39)" d="M 51.99517 165.926247 
L 67.433906 165.90736 
L 82.872641 165.928257 
L 98.311376 165.944303 
L 113.750111 165.935006 
L 129.188846 165.890667 
L 144.627582 165.340273 
L 160.066317 163.212447 
L 175.505052 164.774352 
L 190.943787 165.641678 
L 206.382522 164.24374 
L 221.821257 157.918267 
L 237.259993 153.526962 
L 252.698728 147.586447 
L 268.137463 118.422022 
L 283.576198 110.662815 
L 299.014933 142.060402 
L 314.453668 162.079451 
L 329.892404 165.727352 
L 345.331139 165.847924 
L 360.769874 165.65896 
L 376.208609 164.943569 
L 391.647344 161.714488 
L 407.08608 165.521954 
" style="fill:none;stroke:#1b9e77;stroke-linecap:square;stroke-opacity:0.5;stroke-width:1.5;"/>
   </g>
   <g id="line2d_32">
    <path clip-path="url(#p92073cca39)" d="M 51.99517 165.946304 
L 67.433906 165.913085 
L 82.872641 165.926235 
L 98.311376 165.941516 
L 113.750111 165.906316 
L 129.188846 165.86464 
L 144.627582 165.58698 
L 160.066317 164.420624 
L 175.505052 159.956723 
L 190.943787 158.437488 
L 206.382522 156.749734 
L 221.821257 149.994568 
L 237.259993 107.803052 
L 252.698728 141.539518 
L 268.137463 163.086963 
L 283.576198 164.324438 
L 299.014933 162.841432 
L 314.453668 152.994661 
L 329.892404 151.996866 
L 345.331139 155.845064 
L 360.769874 153.828127 
L 376.208609 164.275319 
L 391.647344 165.479815 
L 407.08608 165.755476 
" style="fill:none;stroke:#1b9e77;stroke-linecap:square;stroke-opacity:0.5;stroke-width:1.5;"/>
   </g>
   <g id="line2d_33">
    <path clip-path="url(#p92073cca39)" d="M 51.99517 165.862627 
L 67.433906 165.656642 
L 82.872641 165.801388 
L 98.311376 165.860758 
L 113.750111 165.867212 
L 129.188846 165.865963 
L 144.627582 165.883514 
L 160.066317 165.925878 
L 175.505052 165.942067 
L 190.943787 165.945356 
L 206.382522 165.937433 
L 221.821257 165.9503 
L 237.259993 165.921839 
L 252.698728 165.196366 
L 268.137463 158.712543 
L 283.576198 149.474501 
L 299.014933 129.704922 
L 314.453668 139.139334 
L 329.892404 150.271282 
L 345.331139 115.448993 
L 360.769874 143.130968 
L 376.208609 163.714916 
L 391.647344 164.227018 
L 407.08608 164.973126 
" style="fill:none;stroke:#1b9e77;stroke-linecap:square;stroke-opacity:0.5;stroke-width:1.5;"/>
   </g>
   <g id="line2d_34">
    <path clip-path="url(#p92073cca39)" d="M 51.99517 165.874837 
L 67.433906 165.832988 
L 82.872641 165.894587 
L 98.311376 165.9426 
L 113.750111 165.891506 
L 129.188846 165.714572 
L 144.627582 144.147725 
L 160.066317 130.57282 
L 175.505052 142.791348 
L 190.943787 146.600056 
L 206.382522 157.676191 
L 221.821257 160.197947 
L 237.259993 125.142445 
L 252.698728 161.194158 
L 268.137463 165.483357 
L 283.576198 165.730599 
L 299.014933 165.795283 
L 314.453668 165.866117 
L 329.892404 164.895021 
L 345.331139 164.179528 
L 360.769874 164.360495 
L 376.208609 159.232616 
L 391.647344 159.470424 
L 407.08608 161.927722 
" style="fill:none;stroke:#1b9e77;stroke-linecap:square;stroke-opacity:0.5;stroke-width:1.5;"/>
   </g>
   <g id="line2d_35">
    <path clip-path="url(#p92073cca39)" d="M 51.99517 165.812544 
L 67.433906 165.915867 
L 82.872641 165.81858 
L 98.311376 164.806875 
L 113.750111 53.650029 
L 129.188846 162.555908 
L 144.627582 165.551749 
L 160.066317 165.234118 
L 175.505052 163.393391 
L 190.943787 160.300642 
L 206.382522 156.098659 
L 221.821257 162.108789 
L 237.259993 165.156594 
L 252.698728 164.029711 
L 268.137463 156.212279 
L 283.576198 163.157128 
L 299.014933 154.878969 
L 314.453668 157.975872 
L 329.892404 164.004554 
L 345.331139 162.722279 
L 360.769874 165.479137 
L 376.208609 165.37937 
L 391.647344 165.487735 
L 407.08608 164.684158 
" style="fill:none;stroke:#1b9e77;stroke-linecap:square;stroke-opacity:0.5;stroke-width:1.5;"/>
   </g>
   <g id="line2d_36">
    <path clip-path="url(#p92073cca39)" d="M 51.99517 141.246017 
L 67.433906 98.87324 
L 82.872641 121.002967 
L 98.311376 145.470121 
L 113.750111 163.907281 
L 129.188846 165.2072 
L 144.627582 165.646687 
L 160.066317 165.783635 
L 175.505052 165.824647 
L 190.943787 165.863678 
L 206.382522 165.877639 
L 221.821257 165.930776 
L 237.259993 165.940065 
L 252.698728 164.85828 
L 268.137463 161.422028 
L 283.576198 160.315786 
L 299.014933 162.262709 
L 314.453668 162.256575 
L 329.892404 164.448258 
L 345.331139 165.535261 
L 360.769874 165.816001 
L 376.208609 165.856317 
L 391.647344 165.410136 
L 407.08608 165.659637 
" style="fill:none;stroke:#1b9e77;stroke-linecap:square;stroke-opacity:0.5;stroke-width:1.5;"/>
   </g>
   <g id="line2d_37">
    <path clip-path="url(#p92073cca39)" d="M 51.99517 154.237736 
L 67.433906 119.40167 
L 82.872641 120.573386 
L 98.311376 140.145923 
L 113.750111 151.507201 
L 129.188846 157.792314 
L 144.627582 160.164408 
L 160.066317 161.865956 
L 175.505052 162.051049 
L 190.943787 163.447116 
L 206.382522 164.603137 
L 221.821257 165.148442 
L 237.259993 165.384047 
L 252.698728 165.611905 
L 268.137463 165.725097 
L 283.576198 165.773183 
L 299.014933 165.788126 
L 314.453668 165.795934 
L 329.892404 165.773976 
L 345.331139 165.772733 
L 360.769874 165.75739 
L 376.208609 165.818721 
L 391.647344 165.664845 
L 407.08608 156.610644 
" style="fill:none;stroke:#1b9e77;stroke-linecap:square;stroke-opacity:0.5;stroke-width:1.5;"/>
   </g>
   <g id="line2d_38">
    <path clip-path="url(#p92073cca39)" d="M 51.99517 165.867095 
L 67.433906 165.75122 
L 82.872641 165.811218 
L 98.311376 165.897335 
L 113.750111 165.91595 
L 129.188846 165.935696 
L 144.627582 165.941083 
L 160.066317 165.93877 
L 175.505052 165.929397 
L 190.943787 165.931486 
L 206.382522 165.937386 
L 221.821257 165.942718 
L 237.259993 165.931766 
L 252.698728 165.917055 
L 268.137463 164.055024 
L 283.576198 104.731179 
L 299.014933 132.350925 
L 314.453668 128.79738 
L 329.892404 148.153953 
L 345.331139 157.34149 
L 360.769874 161.285437 
L 376.208609 165.029761 
L 391.647344 158.962184 
L 407.08608 157.059432 
" style="fill:none;stroke:#1b9e77;stroke-linecap:square;stroke-opacity:0.5;stroke-width:1.5;"/>
   </g>
   <g id="line2d_39">
    <path clip-path="url(#p92073cca39)" d="M 51.99517 165.905979 
L 67.433906 165.854864 
L 82.872641 165.868611 
L 98.311376 165.905362 
L 113.750111 165.90072 
L 129.188846 165.783939 
L 144.627582 163.136461 
L 160.066317 157.262303 
L 175.505052 151.170493 
L 190.943787 135.790643 
L 206.382522 119.283103 
L 221.821257 114.678183 
L 237.259993 140.352263 
L 252.698728 165.841765 
L 268.137463 165.361544 
L 283.576198 165.68426 
L 299.014933 165.754181 
L 314.453668 165.782778 
L 329.892404 165.786962 
L 345.331139 165.845746 
L 360.769874 165.900266 
L 376.208609 165.949356 
L 391.647344 165.951402 
L 407.08608 165.663765 
" style="fill:none;stroke:#1b9e77;stroke-linecap:square;stroke-opacity:0.5;stroke-width:1.5;"/>
   </g>
   <g id="line2d_40">
    <path clip-path="url(#p92073cca39)" d="M 51.99517 165.854338 
L 67.433906 165.724646 
L 82.872641 165.832367 
L 98.311376 165.905099 
L 113.750111 165.924921 
L 129.188846 165.943357 
L 144.627582 165.95078 
L 160.066317 165.955016 
L 175.505052 165.957609 
L 190.943787 165.958302 
L 206.382522 165.954291 
L 221.821257 165.954829 
L 237.259993 165.940296 
L 252.698728 165.871687 
L 268.137463 165.149142 
L 283.576198 160.45133 
L 299.014933 137.527219 
L 314.453668 138.562882 
L 329.892404 139.85159 
L 345.331139 92.944704 
L 360.769874 159.088754 
L 376.208609 158.969346 
L 391.647344 162.688742 
L 407.08608 162.453695 
" style="fill:none;stroke:#1b9e77;stroke-linecap:square;stroke-opacity:0.5;stroke-width:1.5;"/>
   </g>
   <g id="line2d_41">
    <path clip-path="url(#p92073cca39)" d="M 51.99517 165.948796 
L 67.433906 165.916729 
L 82.872641 165.894776 
L 98.311376 165.716911 
L 113.750111 164.998212 
L 129.188846 160.067564 
L 144.627582 152.091875 
L 160.066317 159.497172 
L 175.505052 165.5814 
L 190.943787 165.481621 
L 206.382522 163.69298 
L 221.821257 134.36927 
L 237.259993 145.274436 
L 252.698728 147.911917 
L 268.137463 123.104538 
L 283.576198 149.037877 
L 299.014933 163.531344 
L 314.453668 164.766561 
L 329.892404 165.630696 
L 345.331139 165.411837 
L 360.769874 157.070218 
L 376.208609 165.637538 
L 391.647344 162.307086 
L 407.08608 161.473588 
" style="fill:none;stroke:#1b9e77;stroke-linecap:square;stroke-opacity:0.5;stroke-width:1.5;"/>
   </g>
   <g id="line2d_42">
    <path clip-path="url(#p92073cca39)" d="M 51.99517 165.105749 
L 67.433906 165.261105 
L 82.872641 165.525319 
L 98.311376 165.811303 
L 113.750111 165.853858 
L 129.188846 165.877084 
L 144.627582 165.324802 
L 160.066317 159.957743 
L 175.505052 156.460862 
L 190.943787 158.189616 
L 206.382522 139.613821 
L 221.821257 102.622513 
L 237.259993 115.088618 
L 252.698728 155.383013 
L 268.137463 164.474302 
L 283.576198 165.453378 
L 299.014933 165.502338 
L 314.453668 165.464301 
L 329.892404 165.536855 
L 345.331139 165.465809 
L 360.769874 165.40611 
L 376.208609 165.739814 
L 391.647344 165.854691 
L 407.08608 165.441935 
" style="fill:none;stroke:#1b9e77;stroke-linecap:square;stroke-opacity:0.5;stroke-width:1.5;"/>
   </g>
   <g id="line2d_43">
    <path clip-path="url(#p92073cca39)" d="M 51.99517 165.833446 
L 67.433906 165.742228 
L 82.872641 165.829006 
L 98.311376 165.900344 
L 113.750111 165.912666 
L 129.188846 165.931938 
L 144.627582 165.938795 
L 160.066317 165.944552 
L 175.505052 165.942754 
L 190.943787 165.943246 
L 206.382522 165.920426 
L 221.821257 165.743673 
L 237.259993 163.380789 
L 252.698728 153.758875 
L 268.137463 137.109659 
L 283.576198 130.481166 
L 299.014933 134.845564 
L 314.453668 113.553995 
L 329.892404 151.558214 
L 345.331139 164.007216 
L 360.769874 165.146229 
L 376.208609 165.072302 
L 391.647344 165.083398 
L 407.08608 165.834461 
" style="fill:none;stroke:#1b9e77;stroke-linecap:square;stroke-opacity:0.5;stroke-width:1.5;"/>
   </g>
   <g id="line2d_44">
    <path clip-path="url(#p92073cca39)" d="M 51.99517 165.637925 
L 67.433906 165.478268 
L 82.872641 165.613829 
L 98.311376 165.882594 
L 113.750111 165.91111 
L 129.188846 165.937748 
L 144.627582 165.658503 
L 160.066317 126.685845 
L 175.505052 139.374844 
L 190.943787 147.163689 
L 206.382522 162.114752 
L 221.821257 162.714135 
L 237.259993 112.962597 
L 252.698728 142.308268 
L 268.137463 159.484398 
L 283.576198 165.39107 
L 299.014933 164.782437 
L 314.453668 163.457916 
L 329.892404 164.881412 
L 345.331139 165.540379 
L 360.769874 165.693633 
L 376.208609 165.899399 
L 391.647344 165.941654 
L 407.08608 165.898545 
" style="fill:none;stroke:#1b9e77;stroke-linecap:square;stroke-opacity:0.5;stroke-width:1.5;"/>
   </g>
   <g id="line2d_45">
    <path clip-path="url(#p92073cca39)" d="M 51.99517 165.80676 
L 67.433906 165.440985 
L 82.872641 165.503979 
L 98.311376 165.809846 
L 113.750111 165.907485 
L 129.188846 165.945073 
L 144.627582 165.951765 
L 160.066317 165.951339 
L 175.505052 165.935532 
L 190.943787 165.651914 
L 206.382522 155.274867 
L 221.821257 117.921438 
L 237.259993 159.58119 
L 252.698728 162.68039 
L 268.137463 134.613557 
L 283.576198 106.422467 
L 299.014933 145.474161 
L 314.453668 165.293508 
L 329.892404 165.754854 
L 345.331139 165.86701 
L 360.769874 165.907801 
L 376.208609 165.934181 
L 391.647344 165.927549 
L 407.08608 165.857281 
" style="fill:none;stroke:#1b9e77;stroke-linecap:square;stroke-opacity:0.5;stroke-width:1.5;"/>
   </g>
   <g id="line2d_46">
    <path clip-path="url(#p92073cca39)" d="M 51.99517 165.764242 
L 67.433906 165.681461 
L 82.872641 165.718337 
L 98.311376 165.890557 
L 113.750111 165.912929 
L 129.188846 165.816 
L 144.627582 163.460163 
L 160.066317 150.136945 
L 175.505052 150.737408 
L 190.943787 156.749285 
L 206.382522 145.02908 
L 221.821257 142.701569 
L 237.259993 164.79158 
L 252.698728 165.456049 
L 268.137463 165.522924 
L 283.576198 165.045835 
L 299.014933 162.102005 
L 314.453668 164.058134 
L 329.892404 153.41179 
L 345.331139 134.683819 
L 360.769874 143.258289 
L 376.208609 154.526726 
L 391.647344 160.125941 
L 407.08608 163.833875 
" style="fill:none;stroke:#1b9e77;stroke-linecap:square;stroke-opacity:0.5;stroke-width:1.5;"/>
   </g>
   <g id="line2d_47">
    <path clip-path="url(#p92073cca39)" d="M 51.99517 165.895852 
L 67.433906 165.828532 
L 82.872641 165.869455 
L 98.311376 165.898681 
L 113.750111 165.387172 
L 129.188846 160.858525 
L 144.627582 148.111562 
L 160.066317 138.274768 
L 175.505052 129.037946 
L 190.943787 124.137135 
L 206.382522 134.385721 
L 221.821257 147.562397 
L 237.259993 165.204802 
L 252.698728 165.748047 
L 268.137463 165.816298 
L 283.576198 165.890299 
L 299.014933 165.910729 
L 314.453668 165.921247 
L 329.892404 165.918389 
L 345.331139 165.92654 
L 360.769874 165.932547 
L 376.208609 165.946912 
L 391.647344 165.904523 
L 407.08608 165.046867 
" style="fill:none;stroke:#1b9e77;stroke-linecap:square;stroke-opacity:0.5;stroke-width:1.5;"/>
   </g>
   <g id="line2d_48">
    <path clip-path="url(#p92073cca39)" d="M 51.99517 165.861412 
L 67.433906 165.663159 
L 82.872641 165.772739 
L 98.311376 165.904283 
L 113.750111 165.940126 
L 129.188846 165.954157 
L 144.627582 165.948393 
L 160.066317 165.774238 
L 175.505052 160.966261 
L 190.943787 158.609471 
L 206.382522 155.091109 
L 221.821257 145.11887 
L 237.259993 78.928407 
L 252.698728 141.033728 
L 268.137463 152.575431 
L 283.576198 155.365353 
L 299.014933 165.220292 
L 314.453668 165.398227 
L 329.892404 165.706912 
L 345.331139 165.871753 
L 360.769874 165.896534 
L 376.208609 165.928968 
L 391.647344 165.939006 
L 407.08608 165.946111 
" style="fill:none;stroke:#1b9e77;stroke-linecap:square;stroke-opacity:0.5;stroke-width:1.5;"/>
   </g>
   <g id="line2d_49">
    <path clip-path="url(#p92073cca39)" d="M 51.99517 128.018152 
L 67.433906 133.433005 
L 82.872641 154.144896 
L 98.311376 159.136225 
L 113.750111 160.499236 
L 129.188846 163.119225 
L 144.627582 164.494337 
L 160.066317 164.809721 
L 175.505052 164.476876 
L 190.943787 165.074009 
L 206.382522 165.503 
L 221.821257 165.626085 
L 237.259993 165.583355 
L 252.698728 165.715534 
L 268.137463 165.788034 
L 283.576198 165.594444 
L 299.014933 163.856317 
L 314.453668 164.556009 
L 329.892404 162.545504 
L 345.331139 156.485419 
L 360.769874 151.062749 
L 376.208609 145.302751 
L 391.647344 156.629745 
L 407.08608 148.960312 
" style="fill:none;stroke:#1b9e77;stroke-linecap:square;stroke-opacity:0.5;stroke-width:1.5;"/>
   </g>
   <g id="line2d_50">
    <path clip-path="url(#p92073cca39)" d="M 51.99517 165.89087 
L 67.433906 165.822131 
L 82.872641 165.886129 
L 98.311376 165.936139 
L 113.750111 165.931005 
L 129.188846 165.949068 
L 144.627582 165.93515 
L 160.066317 165.762505 
L 175.505052 164.169397 
L 190.943787 156.862145 
L 206.382522 150.562347 
L 221.821257 150.795805 
L 237.259993 152.519058 
L 252.698728 141.091137 
L 268.137463 134.672796 
L 283.576198 129.135786 
L 299.014933 137.130638 
L 314.453668 163.791774 
L 329.892404 164.721906 
L 345.331139 164.584423 
L 360.769874 165.70893 
L 376.208609 165.842896 
L 391.647344 165.850364 
L 407.08608 165.86254 
" style="fill:none;stroke:#1b9e77;stroke-linecap:square;stroke-opacity:0.5;stroke-width:1.5;"/>
   </g>
   <g id="line2d_51">
    <path clip-path="url(#p92073cca39)" d="M 51.99517 165.811363 
L 67.433906 165.366439 
L 82.872641 163.447312 
L 98.311376 159.536473 
L 113.750111 163.610218 
L 129.188846 165.277117 
L 144.627582 162.415352 
L 160.066317 163.291472 
L 175.505052 163.934788 
L 190.943787 163.175901 
L 206.382522 161.072438 
L 221.821257 159.809646 
L 237.259993 164.228882 
L 252.698728 165.131727 
L 268.137463 163.361055 
L 283.576198 160.890078 
L 299.014933 72.827279 
L 314.453668 158.272638 
L 329.892404 165.171775 
L 345.331139 155.892271 
L 360.769874 156.393974 
L 376.208609 158.536366 
L 391.647344 158.602402 
L 407.08608 164.357975 
" style="fill:none;stroke:#1b9e77;stroke-linecap:square;stroke-opacity:0.5;stroke-width:1.5;"/>
   </g>
   <g id="line2d_52">
    <path clip-path="url(#p92073cca39)" d="M 51.99517 162.774021 
L 67.433906 162.51733 
L 82.872641 165.792407 
L 98.311376 165.671441 
L 113.750111 165.724464 
L 129.188846 165.839073 
L 144.627582 165.909741 
L 160.066317 165.908204 
L 175.505052 165.859887 
L 190.943787 165.90301 
L 206.382522 165.928163 
L 221.821257 165.86802 
L 237.259993 165.797937 
L 252.698728 165.902329 
L 268.137463 164.444978 
L 283.576198 147.985065 
L 299.014933 159.841401 
L 314.453668 149.469284 
L 329.892404 146.634271 
L 345.331139 142.518179 
L 360.769874 118.028045 
L 376.208609 146.993113 
L 391.647344 144.637167 
L 407.08608 164.467415 
" style="fill:none;stroke:#1b9e77;stroke-linecap:square;stroke-opacity:0.5;stroke-width:1.5;"/>
   </g>
   <g id="line2d_53">
    <path clip-path="url(#p92073cca39)" d="M 51.99517 165.805362 
L 67.433906 165.34134 
L 82.872641 165.506053 
L 98.311376 165.704212 
L 113.750111 165.779848 
L 129.188846 165.863385 
L 144.627582 165.907437 
L 160.066317 165.947126 
L 175.505052 165.912071 
L 190.943787 165.837599 
L 206.382522 165.605556 
L 221.821257 163.945771 
L 237.259993 151.732326 
L 252.698728 148.470413 
L 268.137463 149.676168 
L 283.576198 143.487284 
L 299.014933 138.940128 
L 314.453668 136.833276 
L 329.892404 134.341373 
L 345.331139 151.487487 
L 360.769874 164.929808 
L 376.208609 163.652054 
L 391.647344 164.686561 
L 407.08608 165.022304 
" style="fill:none;stroke:#1b9e77;stroke-linecap:square;stroke-opacity:0.5;stroke-width:1.5;"/>
   </g>
   <g id="line2d_54">
    <path clip-path="url(#p92073cca39)" d="M 51.99517 161.405759 
L 67.433906 156.371775 
L 82.872641 143.343105 
L 98.311376 141.082002 
L 113.750111 141.888194 
L 129.188846 148.746771 
L 144.627582 160.444772 
L 160.066317 162.896913 
L 175.505052 165.496227 
L 190.943787 165.771612 
L 206.382522 165.86295 
L 221.821257 165.91276 
L 237.259993 165.902459 
L 252.698728 165.908614 
L 268.137463 165.678593 
L 283.576198 164.401261 
L 299.014933 162.338533 
L 314.453668 155.470439 
L 329.892404 153.554309 
L 345.331139 154.455713 
L 360.769874 147.398813 
L 376.208609 157.424648 
L 391.647344 163.323683 
L 407.08608 165.335036 
" style="fill:none;stroke:#1b9e77;stroke-linecap:square;stroke-opacity:0.5;stroke-width:1.5;"/>
   </g>
   <g id="line2d_55">
    <path clip-path="url(#p92073cca39)" d="M 51.99517 165.900099 
L 67.433906 165.82275 
L 82.872641 165.891857 
L 98.311376 165.934918 
L 113.750111 165.924722 
L 129.188846 165.920235 
L 144.627582 165.645454 
L 160.066317 163.455628 
L 175.505052 156.882815 
L 190.943787 155.342934 
L 206.382522 150.70484 
L 221.821257 142.200034 
L 237.259993 139.597245 
L 252.698728 118.679073 
L 268.137463 144.162447 
L 283.576198 142.21617 
L 299.014933 165.240494 
L 314.453668 165.669133 
L 329.892404 165.709744 
L 345.331139 165.834444 
L 360.769874 165.867613 
L 376.208609 165.925252 
L 391.647344 165.941731 
L 407.08608 165.945308 
" style="fill:none;stroke:#1b9e77;stroke-linecap:square;stroke-opacity:0.5;stroke-width:1.5;"/>
   </g>
   <g id="line2d_56">
    <path clip-path="url(#p92073cca39)" d="M 51.99517 164.35713 
L 67.433906 165.707054 
L 82.872641 165.706309 
L 98.311376 165.633194 
L 113.750111 163.5691 
L 129.188846 163.422101 
L 144.627582 164.939947 
L 160.066317 165.514001 
L 175.505052 164.786065 
L 190.943787 161.038148 
L 206.382522 161.496157 
L 221.821257 165.460915 
L 237.259993 165.740164 
L 252.698728 165.71715 
L 268.137463 165.687153 
L 283.576198 165.71508 
L 299.014933 165.83169 
L 314.453668 165.87995 
L 329.892404 165.425544 
L 345.331139 164.648189 
L 360.769874 109.46585 
L 376.208609 142.146956 
L 391.647344 102.913544 
L 407.08608 149.61356 
" style="fill:none;stroke:#1b9e77;stroke-linecap:square;stroke-opacity:0.5;stroke-width:1.5;"/>
   </g>
   <g id="line2d_57">
    <path clip-path="url(#p92073cca39)" d="M 51.99517 165.885204 
L 67.433906 165.683721 
L 82.872641 165.652885 
L 98.311376 165.818725 
L 113.750111 164.366588 
L 129.188846 160.00006 
L 144.627582 79.74102 
L 160.066317 103.922253 
L 175.505052 155.457694 
L 190.943787 163.300794 
L 206.382522 165.711481 
L 221.821257 165.786978 
L 237.259993 164.638375 
L 252.698728 165.074734 
L 268.137463 165.717731 
L 283.576198 163.767108 
L 299.014933 164.352166 
L 314.453668 162.966657 
L 329.892404 164.514297 
L 345.331139 165.175078 
L 360.769874 165.448507 
L 376.208609 165.761687 
L 391.647344 165.806415 
L 407.08608 165.864785 
" style="fill:none;stroke:#1b9e77;stroke-linecap:square;stroke-opacity:0.5;stroke-width:1.5;"/>
   </g>
   <g id="line2d_58">
    <path clip-path="url(#p92073cca39)" d="M 51.99517 153.313893 
L 67.433906 114.441005 
L 82.872641 134.722237 
L 98.311376 145.44242 
L 113.750111 150.386469 
L 129.188846 159.603038 
L 144.627582 163.330803 
L 160.066317 164.832372 
L 175.505052 165.012686 
L 190.943787 165.492922 
L 206.382522 165.645121 
L 221.821257 165.743267 
L 237.259993 164.953015 
L 252.698728 163.693243 
L 268.137463 162.038413 
L 283.576198 161.850117 
L 299.014933 164.187507 
L 314.453668 161.424567 
L 329.892404 163.875845 
L 345.331139 161.618968 
L 360.769874 159.099962 
L 376.208609 161.248768 
L 391.647344 163.041028 
L 407.08608 165.417272 
" style="fill:none;stroke:#1b9e77;stroke-linecap:square;stroke-opacity:0.5;stroke-width:1.5;"/>
   </g>
   <g id="line2d_59">
    <path clip-path="url(#p92073cca39)" d="M 51.99517 165.188416 
L 67.433906 161.165498 
L 82.872641 154.135548 
L 98.311376 149.355896 
L 113.750111 160.469958 
L 129.188846 160.165308 
L 144.627582 165.279084 
L 160.066317 165.854021 
L 175.505052 165.84958 
L 190.943787 165.861026 
L 206.382522 165.733724 
L 221.821257 158.082141 
L 237.259993 140.2056 
L 252.698728 138.604377 
L 268.137463 142.992622 
L 283.576198 153.142529 
L 299.014933 153.92044 
L 314.453668 159.293184 
L 329.892404 165.424787 
L 345.331139 159.387418 
L 360.769874 159.555929 
L 376.208609 161.871686 
L 391.647344 163.460904 
L 407.08608 165.415269 
" style="fill:none;stroke:#1b9e77;stroke-linecap:square;stroke-opacity:0.5;stroke-width:1.5;"/>
   </g>
   <g id="line2d_60">
    <path clip-path="url(#p92073cca39)" d="M 51.99517 165.920621 
L 67.433906 165.88655 
L 82.872641 165.915511 
L 98.311376 165.942613 
L 113.750111 165.94248 
L 129.188846 165.938414 
L 144.627582 165.695995 
L 160.066317 158.692744 
L 175.505052 146.073476 
L 190.943787 141.439837 
L 206.382522 145.705862 
L 221.821257 149.782122 
L 237.259993 124.42832 
L 252.698728 137.283082 
L 268.137463 155.642473 
L 283.576198 157.272214 
L 299.014933 163.328754 
L 314.453668 164.836896 
L 329.892404 165.445754 
L 345.331139 165.707836 
L 360.769874 165.812374 
L 376.208609 165.925678 
L 391.647344 165.949932 
L 407.08608 165.8454 
" style="fill:none;stroke:#1b9e77;stroke-linecap:square;stroke-opacity:0.5;stroke-width:1.5;"/>
   </g>
   <g id="line2d_61">
    <path clip-path="url(#p92073cca39)" d="M 51.99517 160.701288 
L 67.433906 161.912918 
L 82.872641 163.74436 
L 98.311376 165.487649 
L 113.750111 165.77641 
L 129.188846 165.848786 
L 144.627582 165.848012 
L 160.066317 165.820403 
L 175.505052 165.757021 
L 190.943787 165.754731 
L 206.382522 165.653018 
L 221.821257 165.446906 
L 237.259993 165.646366 
L 252.698728 165.384156 
L 268.137463 165.446225 
L 283.576198 165.370439 
L 299.014933 163.941699 
L 314.453668 163.936671 
L 329.892404 163.686421 
L 345.331139 163.488572 
L 360.769874 164.602678 
L 376.208609 162.452695 
L 391.647344 139.043222 
L 407.08608 39.664296 
" style="fill:none;stroke:#1b9e77;stroke-linecap:square;stroke-opacity:0.5;stroke-width:1.5;"/>
   </g>
   <g id="line2d_62">
    <path clip-path="url(#p92073cca39)" d="M 51.99517 165.907461 
L 67.433906 165.845714 
L 82.872641 165.904903 
L 98.311376 165.940318 
L 113.750111 165.947367 
L 129.188846 165.952231 
L 144.627582 165.946236 
L 160.066317 165.932244 
L 175.505052 165.823941 
L 190.943787 165.726075 
L 206.382522 163.164174 
L 221.821257 151.349865 
L 237.259993 154.457452 
L 252.698728 152.716874 
L 268.137463 144.874698 
L 283.576198 142.364591 
L 299.014933 155.771856 
L 314.453668 162.841086 
L 329.892404 153.363365 
L 345.331139 161.894431 
L 360.769874 157.31182 
L 376.208609 128.643805 
L 391.647344 151.246771 
L 407.08608 161.487664 
" style="fill:none;stroke:#1b9e77;stroke-linecap:square;stroke-opacity:0.5;stroke-width:1.5;"/>
   </g>
   <g id="line2d_63">
    <path clip-path="url(#p92073cca39)" d="M 51.99517 165.856834 
L 67.433906 165.60726 
L 82.872641 165.728644 
L 98.311376 165.867643 
L 113.750111 165.907323 
L 129.188846 165.934889 
L 144.627582 165.940632 
L 160.066317 165.940084 
L 175.505052 165.933357 
L 190.943787 165.931528 
L 206.382522 165.859304 
L 221.821257 165.163393 
L 237.259993 160.294183 
L 252.698728 157.993106 
L 268.137463 145.523308 
L 283.576198 141.386897 
L 299.014933 141.569419 
L 314.453668 132.959605 
L 329.892404 131.964256 
L 345.331139 140.979232 
L 360.769874 162.459767 
L 376.208609 164.669261 
L 391.647344 165.163134 
L 407.08608 165.781881 
" style="fill:none;stroke:#1b9e77;stroke-linecap:square;stroke-opacity:0.5;stroke-width:1.5;"/>
   </g>
   <g id="line2d_64">
    <path clip-path="url(#p92073cca39)" d="M 51.99517 164.772487 
L 67.433906 164.794086 
L 82.872641 164.585729 
L 98.311376 161.249232 
L 113.750111 150.67636 
L 129.188846 159.155405 
L 144.627582 159.855441 
L 160.066317 155.757736 
L 175.505052 137.992379 
L 190.943787 155.418857 
L 206.382522 160.693839 
L 221.821257 152.150453 
L 237.259993 156.117076 
L 252.698728 159.079442 
L 268.137463 156.785249 
L 283.576198 131.066459 
L 299.014933 155.156042 
L 314.453668 164.879133 
L 329.892404 165.159477 
L 345.331139 165.525993 
L 360.769874 164.97584 
L 376.208609 164.827491 
L 391.647344 164.474762 
L 407.08608 165.265965 
" style="fill:none;stroke:#1b9e77;stroke-linecap:square;stroke-opacity:0.5;stroke-width:1.5;"/>
   </g>
   <g id="line2d_65">
    <path clip-path="url(#p92073cca39)" d="M 51.99517 165.643195 
L 67.433906 165.539701 
L 82.872641 165.697278 
L 98.311376 165.802424 
L 113.750111 165.725455 
L 129.188846 165.587742 
L 144.627582 158.848534 
L 160.066317 76.903509 
L 175.505052 105.662569 
L 190.943787 162.803485 
L 206.382522 165.4805 
L 221.821257 165.791669 
L 237.259993 165.817259 
L 252.698728 165.786862 
L 268.137463 165.736451 
L 283.576198 165.669268 
L 299.014933 165.621705 
L 314.453668 165.75264 
L 329.892404 165.661024 
L 345.331139 165.593466 
L 360.769874 165.19839 
L 376.208609 165.103848 
L 391.647344 165.618697 
L 407.08608 149.369271 
" style="fill:none;stroke:#1b9e77;stroke-linecap:square;stroke-opacity:0.5;stroke-width:1.5;"/>
   </g>
   <g id="line2d_66">
    <path clip-path="url(#p92073cca39)" d="M 51.99517 165.082942 
L 67.433906 165.509799 
L 82.872641 165.674307 
L 98.311376 165.881269 
L 113.750111 165.713513 
L 129.188846 163.24989 
L 144.627582 165.063122 
L 160.066317 165.474255 
L 175.505052 164.983829 
L 190.943787 163.068266 
L 206.382522 163.026266 
L 221.821257 163.588449 
L 237.259993 161.489315 
L 252.698728 150.433701 
L 268.137463 126.411399 
L 283.576198 142.797742 
L 299.014933 157.976068 
L 314.453668 111.731686 
L 329.892404 157.909131 
L 345.331139 160.974745 
L 360.769874 163.229251 
L 376.208609 162.421301 
L 391.647344 164.144591 
L 407.08608 164.580107 
" style="fill:none;stroke:#1b9e77;stroke-linecap:square;stroke-opacity:0.5;stroke-width:1.5;"/>
   </g>
   <g id="line2d_67">
    <path clip-path="url(#p92073cca39)" d="M 51.99517 164.812971 
L 67.433906 164.081833 
L 82.872641 159.630811 
L 98.311376 156.044245 
L 113.750111 159.096558 
L 129.188846 148.974326 
L 144.627582 164.990273 
L 160.066317 165.242501 
L 175.505052 165.157329 
L 190.943787 165.5275 
L 206.382522 165.795498 
L 221.821257 165.887149 
L 237.259993 165.907638 
L 252.698728 165.940452 
L 268.137463 165.940971 
L 283.576198 165.869727 
L 299.014933 165.438828 
L 314.453668 165.546987 
L 329.892404 161.28092 
L 345.331139 134.260445 
L 360.769874 133.754466 
L 376.208609 130.228883 
L 391.647344 140.235004 
L 407.08608 160.769623 
" style="fill:none;stroke:#1b9e77;stroke-linecap:square;stroke-opacity:0.5;stroke-width:1.5;"/>
   </g>
   <g id="line2d_68">
    <path clip-path="url(#p92073cca39)" d="M 51.99517 162.609 
L 67.433906 164.670289 
L 82.872641 163.828398 
L 98.311376 149.337403 
L 113.750111 158.107986 
L 129.188846 158.940272 
L 144.627582 153.932248 
L 160.066317 150.246815 
L 175.505052 157.075193 
L 190.943787 164.111983 
L 206.382522 165.333137 
L 221.821257 159.852214 
L 237.259993 142.670049 
L 252.698728 113.130403 
L 268.137463 157.047789 
L 283.576198 160.696097 
L 299.014933 164.320752 
L 314.453668 164.861286 
L 329.892404 165.153015 
L 345.331139 164.304029 
L 360.769874 163.076876 
L 376.208609 165.430953 
L 391.647344 165.802308 
L 407.08608 165.876443 
" style="fill:none;stroke:#1b9e77;stroke-linecap:square;stroke-opacity:0.5;stroke-width:1.5;"/>
   </g>
   <g id="line2d_69">
    <path clip-path="url(#p92073cca39)" d="M 51.99517 165.456392 
L 67.433906 165.088941 
L 82.872641 165.331286 
L 98.311376 165.610583 
L 113.750111 165.662129 
L 129.188846 165.791252 
L 144.627582 165.868743 
L 160.066317 165.927041 
L 175.505052 165.930566 
L 190.943787 165.938699 
L 206.382522 165.91339 
L 221.821257 165.606361 
L 237.259993 152.917702 
L 252.698728 118.313741 
L 268.137463 141.158582 
L 283.576198 158.397701 
L 299.014933 164.262303 
L 314.453668 162.53664 
L 329.892404 154.961421 
L 345.331139 149.531019 
L 360.769874 160.578909 
L 376.208609 164.187654 
L 391.647344 150.436288 
L 407.08608 135.007601 
" style="fill:none;stroke:#1b9e77;stroke-linecap:square;stroke-opacity:0.5;stroke-width:1.5;"/>
   </g>
   <g id="line2d_70">
    <path clip-path="url(#p92073cca39)" d="M 51.99517 165.849272 
L 67.433906 165.724198 
L 82.872641 165.812924 
L 98.311376 165.906411 
L 113.750111 165.925974 
L 129.188846 165.945531 
L 144.627582 165.930013 
L 160.066317 165.618881 
L 175.505052 161.081904 
L 190.943787 153.189695 
L 206.382522 120.241043 
L 221.821257 130.078948 
L 237.259993 116.303642 
L 252.698728 136.147203 
L 268.137463 165.574909 
L 283.576198 165.275899 
L 299.014933 165.412778 
L 314.453668 165.494003 
L 329.892404 165.648094 
L 345.331139 165.732833 
L 360.769874 165.782934 
L 376.208609 165.905252 
L 391.647344 165.939005 
L 407.08608 165.893591 
" style="fill:none;stroke:#1b9e77;stroke-linecap:square;stroke-opacity:0.5;stroke-width:1.5;"/>
   </g>
   <g id="line2d_71">
    <path clip-path="url(#p92073cca39)" d="M 51.99517 164.468459 
L 67.433906 164.096274 
L 82.872641 164.899853 
L 98.311376 164.367741 
L 113.750111 162.061631 
L 129.188846 153.999867 
L 144.627582 158.617913 
L 160.066317 162.475074 
L 175.505052 163.801707 
L 190.943787 149.434403 
L 206.382522 157.916759 
L 221.821257 147.431131 
L 237.259993 144.31164 
L 252.698728 149.576537 
L 268.137463 159.781589 
L 283.576198 162.12239 
L 299.014933 149.518867 
L 314.453668 151.421076 
L 329.892404 153.484911 
L 345.331139 158.15781 
L 360.769874 161.353328 
L 376.208609 165.726647 
L 391.647344 165.529994 
L 407.08608 165.859339 
" style="fill:none;stroke:#1b9e77;stroke-linecap:square;stroke-opacity:0.5;stroke-width:1.5;"/>
   </g>
   <g id="line2d_72">
    <path clip-path="url(#p92073cca39)" d="M 51.99517 165.71405 
L 67.433906 165.946238 
L 82.872641 165.879833 
L 98.311376 165.87818 
L 113.750111 165.877939 
L 129.188846 165.933403 
L 144.627582 165.87892 
L 160.066317 165.839764 
L 175.505052 165.733488 
L 190.943787 163.290548 
L 206.382522 147.822217 
L 221.821257 150.756031 
L 237.259993 135.40595 
L 252.698728 154.625005 
L 268.137463 133.070739 
L 283.576198 152.342522 
L 299.014933 160.961981 
L 314.453668 157.462456 
L 329.892404 153.82283 
L 345.331139 155.343996 
L 360.769874 155.522211 
L 376.208609 158.250896 
L 391.647344 163.526492 
L 407.08608 165.52925 
" style="fill:none;stroke:#1b9e77;stroke-linecap:square;stroke-opacity:0.5;stroke-width:1.5;"/>
   </g>
   <g id="line2d_73">
    <path clip-path="url(#p92073cca39)" d="M 51.99517 154.173227 
L 67.433906 142.813766 
L 82.872641 154.16228 
L 98.311376 162.270023 
L 113.750111 164.191578 
L 129.188846 164.475407 
L 144.627582 165.546067 
L 160.066317 165.77572 
L 175.505052 165.705263 
L 190.943787 165.816218 
L 206.382522 165.889806 
L 221.821257 165.928207 
L 237.259993 165.839705 
L 252.698728 165.897847 
L 268.137463 163.048652 
L 283.576198 143.53822 
L 299.014933 157.238758 
L 314.453668 160.26999 
L 329.892404 164.293358 
L 345.331139 162.429394 
L 360.769874 99.903774 
L 376.208609 160.55751 
L 391.647344 164.811097 
L 407.08608 155.839075 
" style="fill:none;stroke:#1b9e77;stroke-linecap:square;stroke-opacity:0.5;stroke-width:1.5;"/>
   </g>
   <g id="line2d_74">
    <path clip-path="url(#p92073cca39)" d="M 51.99517 162.267607 
L 67.433906 159.243161 
L 82.872641 152.311066 
L 98.311376 158.049212 
L 113.750111 160.409007 
L 129.188846 160.770537 
L 144.627582 155.058193 
L 160.066317 160.07769 
L 175.505052 147.19186 
L 190.943787 156.589302 
L 206.382522 163.780172 
L 221.821257 160.595826 
L 237.259993 156.139305 
L 252.698728 160.419841 
L 268.137463 158.619454 
L 283.576198 155.655023 
L 299.014933 162.290982 
L 314.453668 158.584834 
L 329.892404 144.605509 
L 345.331139 152.464521 
L 360.769874 161.997244 
L 376.208609 163.482029 
L 391.647344 164.351633 
L 407.08608 165.460936 
" style="fill:none;stroke:#1b9e77;stroke-linecap:square;stroke-opacity:0.5;stroke-width:1.5;"/>
   </g>
   <g id="line2d_75">
    <path clip-path="url(#p92073cca39)" d="M 51.99517 164.400017 
L 67.433906 163.131959 
L 82.872641 145.300778 
L 98.311376 162.273327 
L 113.750111 144.149261 
L 129.188846 158.364493 
L 144.627582 163.197711 
L 160.066317 156.797551 
L 175.505052 79.906558 
L 190.943787 155.158384 
L 206.382522 162.113874 
L 221.821257 160.789026 
L 237.259993 162.959017 
L 252.698728 164.281822 
L 268.137463 165.668568 
L 283.576198 165.587892 
L 299.014933 165.467171 
L 314.453668 165.626126 
L 329.892404 165.781877 
L 345.331139 165.86384 
L 360.769874 165.882019 
L 376.208609 165.943269 
L 391.647344 165.956557 
L 407.08608 165.813837 
" style="fill:none;stroke:#1b9e77;stroke-linecap:square;stroke-opacity:0.5;stroke-width:1.5;"/>
   </g>
   <g id="line2d_76">
    <path clip-path="url(#p92073cca39)" d="M 51.99517 164.808247 
L 67.433906 162.01488 
L 82.872641 156.383331 
L 98.311376 152.143031 
L 113.750111 152.24913 
L 129.188846 145.402929 
L 144.627582 149.198013 
L 160.066317 159.48626 
L 175.505052 165.676371 
L 190.943787 165.676862 
L 206.382522 165.722276 
L 221.821257 164.848567 
L 237.259993 164.542273 
L 252.698728 165.880815 
L 268.137463 165.493606 
L 283.576198 149.649303 
L 299.014933 160.309749 
L 314.453668 158.419794 
L 329.892404 151.58056 
L 345.331139 157.937742 
L 360.769874 155.678251 
L 376.208609 145.52157 
L 391.647344 157.209163 
L 407.08608 164.582219 
" style="fill:none;stroke:#1b9e77;stroke-linecap:square;stroke-opacity:0.5;stroke-width:1.5;"/>
   </g>
   <g id="line2d_77">
    <path clip-path="url(#p92073cca39)" d="M 51.99517 165.691709 
L 67.433906 165.43412 
L 82.872641 153.18662 
L 98.311376 151.544177 
L 113.750111 86.113338 
L 129.188846 123.533096 
L 144.627582 163.674711 
L 160.066317 162.915949 
L 175.505052 158.440544 
L 190.943787 160.396566 
L 206.382522 163.970217 
L 221.821257 162.524592 
L 237.259993 161.299812 
L 252.698728 164.056113 
L 268.137463 165.577532 
L 283.576198 165.604159 
L 299.014933 165.602971 
L 314.453668 165.688438 
L 329.892404 165.674575 
L 345.331139 165.897807 
L 360.769874 165.926594 
L 376.208609 165.952805 
L 391.647344 165.954161 
L 407.08608 165.754331 
" style="fill:none;stroke:#1b9e77;stroke-linecap:square;stroke-opacity:0.5;stroke-width:1.5;"/>
   </g>
   <g id="line2d_78">
    <path clip-path="url(#p92073cca39)" d="M 51.99517 164.729988 
L 67.433906 162.817206 
L 82.872641 165.323814 
L 98.311376 165.249966 
L 113.750111 165.201248 
L 129.188846 164.000677 
L 144.627582 156.097736 
L 160.066317 165.63492 
L 175.505052 165.104777 
L 190.943787 165.496486 
L 206.382522 161.459524 
L 221.821257 139.930522 
L 237.259993 162.1093 
L 252.698728 165.898796 
L 268.137463 165.76535 
L 283.576198 155.275152 
L 299.014933 156.09865 
L 314.453668 152.735483 
L 329.892404 135.81417 
L 345.331139 135.058398 
L 360.769874 143.787935 
L 376.208609 159.261245 
L 391.647344 164.801409 
L 407.08608 162.762191 
" style="fill:none;stroke:#1b9e77;stroke-linecap:square;stroke-opacity:0.5;stroke-width:1.5;"/>
   </g>
   <g id="line2d_79">
    <path clip-path="url(#p92073cca39)" d="M 51.99517 165.907755 
L 67.433906 165.775749 
L 82.872641 165.80052 
L 98.311376 165.910337 
L 113.750111 165.939786 
L 129.188846 165.949911 
L 144.627582 165.942463 
L 160.066317 165.922452 
L 175.505052 165.722914 
L 190.943787 164.087751 
L 206.382522 162.026362 
L 221.821257 161.409918 
L 237.259993 162.997601 
L 252.698728 157.00806 
L 268.137463 146.681511 
L 283.576198 146.739466 
L 299.014933 142.591106 
L 314.453668 142.275356 
L 329.892404 135.063951 
L 345.331139 152.758801 
L 360.769874 151.951256 
L 376.208609 152.045428 
L 391.647344 164.96654 
L 407.08608 164.93995 
" style="fill:none;stroke:#1b9e77;stroke-linecap:square;stroke-opacity:0.5;stroke-width:1.5;"/>
   </g>
   <g id="line2d_80">
    <path clip-path="url(#p92073cca39)" d="M 51.99517 161.492434 
L 67.433906 163.19391 
L 82.872641 163.793293 
L 98.311376 144.76138 
L 113.750111 110.775704 
L 129.188846 134.697218 
L 144.627582 161.511826 
L 160.066317 157.889544 
L 175.505052 162.853077 
L 190.943787 163.97077 
L 206.382522 164.777409 
L 221.821257 165.21623 
L 237.259993 155.627017 
L 252.698728 145.808483 
L 268.137463 158.807353 
L 283.576198 164.867162 
L 299.014933 165.417697 
L 314.453668 163.189033 
L 329.892404 164.642646 
L 345.331139 165.81421 
L 360.769874 165.74033 
L 376.208609 165.783518 
L 391.647344 165.822031 
L 407.08608 163.962673 
" style="fill:none;stroke:#1b9e77;stroke-linecap:square;stroke-opacity:0.5;stroke-width:1.5;"/>
   </g>
   <g id="line2d_81">
    <path clip-path="url(#p92073cca39)" d="M 51.99517 165.869586 
L 67.433906 165.723006 
L 82.872641 165.320414 
L 98.311376 159.950934 
L 113.750111 151.736582 
L 129.188846 157.314481 
L 144.627582 86.55544 
L 160.066317 143.65848 
L 175.505052 162.524472 
L 190.943787 163.213998 
L 206.382522 165.286567 
L 221.821257 165.332075 
L 237.259993 139.911009 
L 252.698728 160.475925 
L 268.137463 159.553751 
L 283.576198 165.180209 
L 299.014933 164.677407 
L 314.453668 163.90612 
L 329.892404 165.237255 
L 345.331139 165.699097 
L 360.769874 165.791753 
L 376.208609 165.907081 
L 391.647344 165.935064 
L 407.08608 165.654236 
" style="fill:none;stroke:#1b9e77;stroke-linecap:square;stroke-opacity:0.5;stroke-width:1.5;"/>
   </g>
   <g id="line2d_82">
    <path clip-path="url(#p92073cca39)" d="M 51.99517 164.084504 
L 67.433906 161.020111 
L 82.872641 164.517827 
L 98.311376 165.098769 
L 113.750111 164.237823 
L 129.188846 164.206523 
L 144.627582 149.168381 
L 160.066317 146.752076 
L 175.505052 152.282304 
L 190.943787 164.715455 
L 206.382522 156.426167 
L 221.821257 146.201684 
L 237.259993 158.490704 
L 252.698728 156.086214 
L 268.137463 154.800211 
L 283.576198 148.363338 
L 299.014933 149.973437 
L 314.453668 161.752998 
L 329.892404 161.016633 
L 345.331139 165.32293 
L 360.769874 164.461099 
L 376.208609 160.043499 
L 391.647344 160.224042 
L 407.08608 161.168215 
" style="fill:none;stroke:#1b9e77;stroke-linecap:square;stroke-opacity:0.5;stroke-width:1.5;"/>
   </g>
   <g id="line2d_83">
    <path clip-path="url(#p92073cca39)" d="M 51.99517 165.898262 
L 67.433906 165.701567 
L 82.872641 165.786737 
L 98.311376 165.745327 
L 113.750111 165.859171 
L 129.188846 165.948608 
L 144.627582 165.932455 
L 160.066317 165.92273 
L 175.505052 165.445023 
L 190.943787 161.232496 
L 206.382522 156.861956 
L 221.821257 163.414471 
L 237.259993 159.613575 
L 252.698728 102.414573 
L 268.137463 159.002845 
L 283.576198 150.337725 
L 299.014933 136.779961 
L 314.453668 156.105065 
L 329.892404 148.730189 
L 345.331139 155.338907 
L 360.769874 161.004327 
L 376.208609 165.682017 
L 391.647344 165.78584 
L 407.08608 165.871113 
" style="fill:none;stroke:#1b9e77;stroke-linecap:square;stroke-opacity:0.5;stroke-width:1.5;"/>
   </g>
   <g id="line2d_84">
    <path clip-path="url(#p92073cca39)" d="M 51.99517 165.69753 
L 67.433906 165.702983 
L 82.872641 161.983827 
L 98.311376 157.407104 
L 113.750111 107.102063 
L 129.188846 162.43676 
L 144.627582 164.952817 
L 160.066317 162.384817 
L 175.505052 111.440595 
L 190.943787 144.748034 
L 206.382522 165.153195 
L 221.821257 165.564907 
L 237.259993 165.473977 
L 252.698728 164.916849 
L 268.137463 164.165949 
L 283.576198 160.674071 
L 299.014933 165.013284 
L 314.453668 164.988696 
L 329.892404 163.878302 
L 345.331139 164.897485 
L 360.769874 158.542883 
L 376.208609 162.635088 
L 391.647344 164.964582 
L 407.08608 165.68914 
" style="fill:none;stroke:#1b9e77;stroke-linecap:square;stroke-opacity:0.5;stroke-width:1.5;"/>
   </g>
   <g id="line2d_85">
    <path clip-path="url(#p92073cca39)" d="M 51.99517 152.151968 
L 67.433906 105.77207 
L 82.872641 157.172156 
L 98.311376 163.689404 
L 113.750111 164.546907 
L 129.188846 165.13818 
L 144.627582 165.682463 
L 160.066317 165.858492 
L 175.505052 165.866472 
L 190.943787 165.902846 
L 206.382522 165.922233 
L 221.821257 165.944282 
L 237.259993 165.483896 
L 252.698728 164.575891 
L 268.137463 163.485389 
L 283.576198 163.840176 
L 299.014933 155.474498 
L 314.453668 148.940876 
L 329.892404 134.444747 
L 345.331139 163.512913 
L 360.769874 162.811588 
L 376.208609 163.240104 
L 391.647344 149.904283 
L 407.08608 161.053112 
" style="fill:none;stroke:#1b9e77;stroke-linecap:square;stroke-opacity:0.5;stroke-width:1.5;"/>
   </g>
   <g id="line2d_86">
    <path clip-path="url(#p92073cca39)" d="M 51.99517 153.664652 
L 67.433906 154.957107 
L 82.872641 159.94996 
L 98.311376 164.657359 
L 113.750111 165.480989 
L 129.188846 165.736559 
L 144.627582 165.751081 
L 160.066317 165.824309 
L 175.505052 165.848498 
L 190.943787 165.834718 
L 206.382522 165.761248 
L 221.821257 165.586947 
L 237.259993 165.302473 
L 252.698728 165.020001 
L 268.137463 165.185352 
L 283.576198 163.417026 
L 299.014933 162.094642 
L 314.453668 164.694297 
L 329.892404 164.187003 
L 345.331139 164.53922 
L 360.769874 164.461751 
L 376.208609 164.135169 
L 391.647344 151.566253 
L 407.08608 46.758329 
" style="fill:none;stroke:#1b9e77;stroke-linecap:square;stroke-opacity:0.5;stroke-width:1.5;"/>
   </g>
   <g id="line2d_87">
    <path clip-path="url(#p92073cca39)" d="M 51.99517 165.796614 
L 67.433906 164.521209 
L 82.872641 163.542154 
L 98.311376 161.295872 
L 113.750111 156.272866 
L 129.188846 163.105172 
L 144.627582 162.481132 
L 160.066317 152.897438 
L 175.505052 156.95537 
L 190.943787 155.358283 
L 206.382522 158.149164 
L 221.821257 165.73771 
L 237.259993 165.698546 
L 252.698728 151.409444 
L 268.137463 155.387033 
L 283.576198 151.691068 
L 299.014933 152.064744 
L 314.453668 156.915973 
L 329.892404 141.377718 
L 345.331139 155.333289 
L 360.769874 160.841442 
L 376.208609 156.467959 
L 391.647344 161.923662 
L 407.08608 165.191076 
" style="fill:none;stroke:#1b9e77;stroke-linecap:square;stroke-opacity:0.5;stroke-width:1.5;"/>
   </g>
   <g id="line2d_88">
    <path clip-path="url(#p92073cca39)" d="M 51.99517 165.827908 
L 67.433906 165.693789 
L 82.872641 165.828123 
L 98.311376 165.862135 
L 113.750111 165.902115 
L 129.188846 165.882188 
L 144.627582 165.856752 
L 160.066317 165.885304 
L 175.505052 165.891811 
L 190.943787 165.910672 
L 206.382522 165.916708 
L 221.821257 165.93476 
L 237.259993 165.929678 
L 252.698728 165.917327 
L 268.137463 163.872776 
L 283.576198 135.547664 
L 299.014933 141.48876 
L 314.453668 131.225657 
L 329.892404 133.475834 
L 345.331139 131.05998 
L 360.769874 153.255373 
L 376.208609 160.145884 
L 391.647344 162.598419 
L 407.08608 165.505328 
" style="fill:none;stroke:#1b9e77;stroke-linecap:square;stroke-opacity:0.5;stroke-width:1.5;"/>
   </g>
   <g id="line2d_89">
    <path clip-path="url(#p92073cca39)" d="M 51.99517 165.869963 
L 67.433906 165.586414 
L 82.872641 165.599498 
L 98.311376 165.779071 
L 113.750111 165.856416 
L 129.188846 165.921054 
L 144.627582 165.940403 
L 160.066317 165.94439 
L 175.505052 165.93473 
L 190.943787 165.93881 
L 206.382522 165.724995 
L 221.821257 160.866726 
L 237.259993 155.963689 
L 252.698728 160.859456 
L 268.137463 113.606284 
L 283.576198 148.933734 
L 299.014933 163.273677 
L 314.453668 162.684431 
L 329.892404 161.18521 
L 345.331139 158.181855 
L 360.769874 121.414841 
L 376.208609 149.948192 
L 391.647344 156.735581 
L 407.08608 162.665522 
" style="fill:none;stroke:#1b9e77;stroke-linecap:square;stroke-opacity:0.5;stroke-width:1.5;"/>
   </g>
   <g id="line2d_90">
    <path clip-path="url(#p92073cca39)" d="M 51.99517 165.809795 
L 67.433906 165.563939 
L 82.872641 165.696734 
L 98.311376 165.876534 
L 113.750111 165.922303 
L 129.188846 165.921575 
L 144.627582 165.881533 
L 160.066317 165.87793 
L 175.505052 165.899411 
L 190.943787 165.922926 
L 206.382522 165.93279 
L 221.821257 165.929816 
L 237.259993 165.922478 
L 252.698728 165.938734 
L 268.137463 165.845395 
L 283.576198 163.336866 
L 299.014933 160.588994 
L 314.453668 163.588596 
L 329.892404 129.034849 
L 345.331139 117.593406 
L 360.769874 126.39907 
L 376.208609 134.299933 
L 391.647344 156.643137 
L 407.08608 160.988194 
" style="fill:none;stroke:#1b9e77;stroke-linecap:square;stroke-opacity:0.5;stroke-width:1.5;"/>
   </g>
   <g id="line2d_91">
    <path clip-path="url(#p92073cca39)" d="M 51.99517 165.777629 
L 67.433906 165.537339 
L 82.872641 165.704185 
L 98.311376 165.89179 
L 113.750111 165.936101 
L 129.188846 165.946681 
L 144.627582 165.94152 
L 160.066317 165.938196 
L 175.505052 165.940873 
L 190.943787 165.947189 
L 206.382522 165.949322 
L 221.821257 165.930988 
L 237.259993 165.853458 
L 252.698728 165.83836 
L 268.137463 164.628271 
L 283.576198 149.758283 
L 299.014933 134.72405 
L 314.453668 142.528837 
L 329.892404 87.335732 
L 345.331139 149.943502 
L 360.769874 164.436303 
L 376.208609 163.713604 
L 391.647344 156.551018 
L 407.08608 164.661704 
" style="fill:none;stroke:#1b9e77;stroke-linecap:square;stroke-opacity:0.5;stroke-width:1.5;"/>
   </g>
   <g id="line2d_92">
    <path clip-path="url(#p92073cca39)" d="M 51.99517 165.946732 
L 67.433906 165.922672 
L 82.872641 165.855036 
L 98.311376 165.911696 
L 113.750111 165.574814 
L 129.188846 160.406282 
L 144.627582 151.019169 
L 160.066317 143.533102 
L 175.505052 149.17349 
L 190.943787 134.644176 
L 206.382522 124.259439 
L 221.821257 127.855373 
L 237.259993 160.670541 
L 252.698728 164.830694 
L 268.137463 165.50827 
L 283.576198 165.737775 
L 299.014933 165.792661 
L 314.453668 165.812661 
L 329.892404 165.815773 
L 345.331139 165.841271 
L 360.769874 165.706302 
L 376.208609 165.316756 
L 391.647344 164.472056 
L 407.08608 164.808201 
" style="fill:none;stroke:#1b9e77;stroke-linecap:square;stroke-opacity:0.5;stroke-width:1.5;"/>
   </g>
   <g id="line2d_93">
    <path clip-path="url(#p92073cca39)" d="M 51.99517 165.923979 
L 67.433906 165.878626 
L 82.872641 165.901355 
L 98.311376 165.946453 
L 113.750111 165.954701 
L 129.188846 165.955844 
L 144.627582 165.956226 
L 160.066317 165.954491 
L 175.505052 165.939143 
L 190.943787 165.793807 
L 206.382522 163.96338 
L 221.821257 159.999372 
L 237.259993 163.910296 
L 252.698728 164.893644 
L 268.137463 143.89572 
L 283.576198 135.176274 
L 299.014933 147.58363 
L 314.453668 132.086186 
L 329.892404 152.976799 
L 345.331139 154.241028 
L 360.769874 159.7472 
L 376.208609 139.333201 
L 391.647344 158.659079 
L 407.08608 164.744505 
" style="fill:none;stroke:#1b9e77;stroke-linecap:square;stroke-opacity:0.5;stroke-width:1.5;"/>
   </g>
   <g id="line2d_94">
    <path clip-path="url(#p92073cca39)" d="M 51.99517 165.856328 
L 67.433906 165.358474 
L 82.872641 165.453226 
L 98.311376 165.681357 
L 113.750111 165.744767 
L 129.188846 165.874711 
L 144.627582 165.873536 
L 160.066317 162.895881 
L 175.505052 142.781006 
L 190.943787 142.137898 
L 206.382522 140.126757 
L 221.821257 144.678859 
L 237.259993 144.245958 
L 252.698728 150.883252 
L 268.137463 149.811445 
L 283.576198 148.6738 
L 299.014933 162.985637 
L 314.453668 158.770894 
L 329.892404 164.523511 
L 345.331139 165.244705 
L 360.769874 165.488214 
L 376.208609 165.704625 
L 391.647344 165.703745 
L 407.08608 165.916355 
" style="fill:none;stroke:#1b9e77;stroke-linecap:square;stroke-opacity:0.5;stroke-width:1.5;"/>
   </g>
   <g id="line2d_95">
    <path clip-path="url(#p92073cca39)" d="M 51.99517 165.86975 
L 67.433906 165.66541 
L 82.872641 165.749887 
L 98.311376 165.870078 
L 113.750111 165.901217 
L 129.188846 165.935402 
L 144.627582 165.940191 
L 160.066317 165.935684 
L 175.505052 165.897936 
L 190.943787 165.79579 
L 206.382522 155.302055 
L 221.821257 127.264848 
L 237.259993 139.947789 
L 252.698728 137.592352 
L 268.137463 101.611265 
L 283.576198 155.380763 
L 299.014933 165.509272 
L 314.453668 165.838383 
L 329.892404 165.92272 
L 345.331139 165.913334 
L 360.769874 165.738701 
L 376.208609 165.708524 
L 391.647344 164.295849 
L 407.08608 165.827742 
" style="fill:none;stroke:#1b9e77;stroke-linecap:square;stroke-opacity:0.5;stroke-width:1.5;"/>
   </g>
   <g id="line2d_96">
    <path clip-path="url(#p92073cca39)" d="M 51.99517 165.792867 
L 67.433906 165.284281 
L 82.872641 165.402495 
L 98.311376 165.686368 
L 113.750111 165.767388 
L 129.188846 165.858126 
L 144.627582 165.9014 
L 160.066317 165.915489 
L 175.505052 165.909258 
L 190.943787 165.924819 
L 206.382522 165.935709 
L 221.821257 165.934935 
L 237.259993 165.918597 
L 252.698728 165.924006 
L 268.137463 165.456603 
L 283.576198 156.525225 
L 299.014933 154.553774 
L 314.453668 149.074941 
L 329.892404 119.89944 
L 345.331139 135.891144 
L 360.769874 145.887828 
L 376.208609 136.264045 
L 391.647344 152.146273 
L 407.08608 163.559927 
" style="fill:none;stroke:#1b9e77;stroke-linecap:square;stroke-opacity:0.5;stroke-width:1.5;"/>
   </g>
   <g id="line2d_97">
    <path clip-path="url(#p92073cca39)" d="M 51.99517 154.414601 
L 67.433906 151.153068 
L 82.872641 158.025287 
L 98.311376 161.922207 
L 113.750111 164.087525 
L 129.188846 158.770794 
L 144.627582 163.177682 
L 160.066317 165.343459 
L 175.505052 164.962239 
L 190.943787 161.30924 
L 206.382522 146.081411 
L 221.821257 136.548306 
L 237.259993 129.579121 
L 252.698728 135.08437 
L 268.137463 161.529113 
L 283.576198 162.586215 
L 299.014933 165.156259 
L 314.453668 165.503933 
L 329.892404 165.733933 
L 345.331139 165.83682 
L 360.769874 165.836598 
L 376.208609 165.900471 
L 391.647344 165.926849 
L 407.08608 165.945436 
" style="fill:none;stroke:#1b9e77;stroke-linecap:square;stroke-opacity:0.5;stroke-width:1.5;"/>
   </g>
   <g id="line2d_98">
    <path clip-path="url(#p92073cca39)" d="M 51.99517 164.26541 
L 67.433906 158.938437 
L 82.872641 158.768139 
L 98.311376 163.414126 
L 113.750111 164.598731 
L 129.188846 165.515159 
L 144.627582 165.651779 
L 160.066317 165.6611 
L 175.505052 165.484187 
L 190.943787 165.677713 
L 206.382522 165.374239 
L 221.821257 159.291193 
L 237.259993 165.069007 
L 252.698728 165.635251 
L 268.137463 165.393501 
L 283.576198 153.272341 
L 299.014933 105.634235 
L 314.453668 164.061418 
L 329.892404 165.123604 
L 345.331139 164.872639 
L 360.769874 165.218068 
L 376.208609 165.606828 
L 391.647344 154.150364 
L 407.08608 103.737474 
" style="fill:none;stroke:#1b9e77;stroke-linecap:square;stroke-opacity:0.5;stroke-width:1.5;"/>
   </g>
   <g id="line2d_99">
    <path clip-path="url(#p92073cca39)" d="M 51.99517 163.930395 
L 67.433906 163.298609 
L 82.872641 155.792853 
L 98.311376 149.677334 
L 113.750111 118.081714 
L 129.188846 144.863233 
L 144.627582 141.166653 
L 160.066317 160.545022 
L 175.505052 163.822784 
L 190.943787 162.372032 
L 206.382522 158.662504 
L 221.821257 159.251921 
L 237.259993 162.587418 
L 252.698728 164.268916 
L 268.137463 161.866489 
L 283.576198 164.082206 
L 299.014933 161.35669 
L 314.453668 155.120891 
L 329.892404 160.598074 
L 345.331139 165.635295 
L 360.769874 165.824299 
L 376.208609 165.889976 
L 391.647344 165.929671 
L 407.08608 165.78996 
" style="fill:none;stroke:#1b9e77;stroke-linecap:square;stroke-opacity:0.5;stroke-width:1.5;"/>
   </g>
   <g id="line2d_100">
    <path clip-path="url(#p92073cca39)" d="M 51.99517 165.193892 
L 67.433906 117.14729 
L 82.872641 105.031514 
L 98.311376 160.029481 
L 113.750111 165.025538 
L 129.188846 165.536516 
L 144.627582 165.772248 
L 160.066317 165.82617 
L 175.505052 165.659913 
L 190.943787 165.594794 
L 206.382522 158.75147 
L 221.821257 154.458641 
L 237.259993 154.191142 
L 252.698728 153.749176 
L 268.137463 157.04775 
L 283.576198 160.931324 
L 299.014933 162.208739 
L 314.453668 163.822209 
L 329.892404 165.387601 
L 345.331139 165.755112 
L 360.769874 165.782084 
L 376.208609 165.882169 
L 391.647344 165.874765 
L 407.08608 165.755405 
" style="fill:none;stroke:#1b9e77;stroke-linecap:square;stroke-opacity:0.5;stroke-width:1.5;"/>
   </g>
   <g id="line2d_101">
    <path clip-path="url(#p92073cca39)" d="M 51.99517 164.949684 
L 67.433906 160.809802 
L 82.872641 154.594766 
L 98.311376 154.160683 
L 113.750111 154.343926 
L 129.188846 153.18092 
L 144.627582 153.613364 
L 160.066317 156.997805 
L 175.505052 158.188395 
L 190.943787 155.887185 
L 206.382522 155.407044 
L 221.821257 153.491698 
L 237.259993 148.120739 
L 252.698728 153.623402 
L 268.137463 158.365971 
L 283.576198 159.264483 
L 299.014933 156.088621 
L 314.453668 154.75093 
L 329.892404 165.132376 
L 345.331139 165.890969 
L 360.769874 165.826395 
L 376.208609 165.881105 
L 391.647344 165.896624 
L 407.08608 165.948055 
" style="fill:none;stroke:#1b9e77;stroke-linecap:square;stroke-opacity:0.5;stroke-width:1.5;"/>
   </g>
   <g id="line2d_102">
    <path clip-path="url(#p92073cca39)" d="M 51.99517 156.141974 
L 67.433906 156.924392 
L 82.872641 143.628356 
L 98.311376 160.374348 
L 113.750111 161.500783 
L 129.188846 161.305051 
L 144.627582 165.032346 
L 160.066317 165.488419 
L 175.505052 165.358945 
L 190.943787 165.573999 
L 206.382522 165.719877 
L 221.821257 165.914758 
L 237.259993 165.918681 
L 252.698728 165.898852 
L 268.137463 165.578385 
L 283.576198 150.756951 
L 299.014933 112.746406 
L 314.453668 142.411939 
L 329.892404 156.020901 
L 345.331139 153.253509 
L 360.769874 163.898635 
L 376.208609 161.957442 
L 391.647344 163.439758 
L 407.08608 165.570234 
" style="fill:none;stroke:#1b9e77;stroke-linecap:square;stroke-opacity:0.5;stroke-width:1.5;"/>
   </g>
   <g id="line2d_103">
    <path clip-path="url(#p92073cca39)" d="M 51.99517 164.986349 
L 67.433906 165.067715 
L 82.872641 165.520878 
L 98.311376 165.784561 
L 113.750111 165.819981 
L 129.188846 165.879622 
L 144.627582 165.899416 
L 160.066317 165.901303 
L 175.505052 165.887885 
L 190.943787 165.885808 
L 206.382522 165.790628 
L 221.821257 165.481776 
L 237.259993 163.329476 
L 252.698728 154.559022 
L 268.137463 141.689322 
L 283.576198 144.310843 
L 299.014933 147.766206 
L 314.453668 126.902668 
L 329.892404 123.307305 
L 345.331139 150.854107 
L 360.769874 164.629898 
L 376.208609 164.875725 
L 391.647344 165.291556 
L 407.08608 164.992892 
" style="fill:none;stroke:#1b9e77;stroke-linecap:square;stroke-opacity:0.5;stroke-width:1.5;"/>
   </g>
   <g id="line2d_104">
    <path clip-path="url(#p92073cca39)" d="M 51.99517 165.793916 
L 67.433906 165.624645 
L 82.872641 165.760634 
L 98.311376 165.888954 
L 113.750111 165.921474 
L 129.188846 165.940626 
L 144.627582 165.943192 
L 160.066317 165.945242 
L 175.505052 165.944051 
L 190.943787 165.948541 
L 206.382522 165.946509 
L 221.821257 165.914765 
L 237.259993 165.839776 
L 252.698728 165.866193 
L 268.137463 158.907692 
L 283.576198 132.175179 
L 299.014933 162.130949 
L 314.453668 164.4726 
L 329.892404 165.735975 
L 345.331139 164.898858 
L 360.769874 41.307864 
L 376.208609 165.271575 
L 391.647344 165.745255 
L 407.08608 157.49048 
" style="fill:none;stroke:#1b9e77;stroke-linecap:square;stroke-opacity:0.5;stroke-width:1.5;"/>
   </g>
   <g id="line2d_105">
    <path clip-path="url(#p92073cca39)" d="M 51.99517 165.890841 
L 67.433906 165.729222 
L 82.872641 165.794532 
L 98.311376 165.866999 
L 113.750111 165.884063 
L 129.188846 165.924958 
L 144.627582 165.933313 
L 160.066317 165.919352 
L 175.505052 164.129816 
L 190.943787 159.166869 
L 206.382522 145.660207 
L 221.821257 146.016448 
L 237.259993 152.669212 
L 252.698728 159.893042 
L 268.137463 162.784556 
L 283.576198 160.105285 
L 299.014933 153.56672 
L 314.453668 138.429238 
L 329.892404 134.942489 
L 345.331139 161.2784 
L 360.769874 157.596785 
L 376.208609 156.441347 
L 391.647344 158.367368 
L 407.08608 162.423882 
" style="fill:none;stroke:#1b9e77;stroke-linecap:square;stroke-opacity:0.5;stroke-width:1.5;"/>
   </g>
   <g id="line2d_106">
    <path clip-path="url(#p92073cca39)" d="M 51.99517 163.435524 
L 67.433906 161.16776 
L 82.872641 152.068766 
L 98.311376 153.597352 
L 113.750111 149.956089 
L 129.188846 159.674437 
L 144.627582 160.661599 
L 160.066317 153.595052 
L 175.505052 99.108345 
L 190.943787 130.952353 
L 206.382522 161.429324 
L 221.821257 164.747656 
L 237.259993 165.870428 
L 252.698728 165.764435 
L 268.137463 165.883512 
L 283.576198 165.936584 
L 299.014933 165.946725 
L 314.453668 165.952298 
L 329.892404 165.951127 
L 345.331139 165.955015 
L 360.769874 165.949071 
L 376.208609 165.921518 
L 391.647344 165.494576 
L 407.08608 165.395396 
" style="fill:none;stroke:#1b9e77;stroke-linecap:square;stroke-opacity:0.5;stroke-width:1.5;"/>
   </g>
   <g id="line2d_107">
    <path clip-path="url(#p92073cca39)" d="M 51.99517 165.611195 
L 67.433906 164.402849 
L 82.872641 157.797207 
L 98.311376 157.065459 
L 113.750111 144.627707 
L 129.188846 159.427698 
L 144.627582 161.105602 
L 160.066317 159.689759 
L 175.505052 157.134248 
L 190.943787 156.867606 
L 206.382522 152.164274 
L 221.821257 149.781703 
L 237.259993 162.285672 
L 252.698728 161.270598 
L 268.137463 158.839667 
L 283.576198 155.534787 
L 299.014933 146.494303 
L 314.453668 159.259707 
L 329.892404 161.545956 
L 345.331139 161.931302 
L 360.769874 159.602738 
L 376.208609 160.975085 
L 391.647344 162.368462 
L 407.08608 164.631353 
" style="fill:none;stroke:#1b9e77;stroke-linecap:square;stroke-opacity:0.5;stroke-width:1.5;"/>
   </g>
   <g id="line2d_108">
    <path clip-path="url(#p92073cca39)" d="M 51.99517 165.912166 
L 67.433906 165.814462 
L 82.872641 165.864927 
L 98.311376 165.935033 
L 113.750111 165.95308 
L 129.188846 165.96 
L 144.627582 165.951148 
L 160.066317 164.904776 
L 175.505052 162.165338 
L 190.943787 161.935722 
L 206.382522 164.451283 
L 221.821257 162.495113 
L 237.259993 91.338885 
L 252.698728 119.7382 
L 268.137463 158.217917 
L 283.576198 152.588659 
L 299.014933 161.932129 
L 314.453668 164.703119 
L 329.892404 165.131325 
L 345.331139 165.049468 
L 360.769874 158.374476 
L 376.208609 159.042239 
L 391.647344 161.623743 
L 407.08608 165.33173 
" style="fill:none;stroke:#1b9e77;stroke-linecap:square;stroke-opacity:0.5;stroke-width:1.5;"/>
   </g>
   <g id="line2d_109">
    <path clip-path="url(#p92073cca39)" d="M 51.99517 165.8939 
L 67.433906 165.77715 
L 82.872641 165.866994 
L 98.311376 165.930668 
L 113.750111 165.944313 
L 129.188846 165.951212 
L 144.627582 165.947377 
L 160.066317 165.926474 
L 175.505052 165.621225 
L 190.943787 164.493785 
L 206.382522 164.110235 
L 221.821257 165.890586 
L 237.259993 165.57173 
L 252.698728 165.588368 
L 268.137463 160.702201 
L 283.576198 135.734273 
L 299.014933 139.355287 
L 314.453668 149.605925 
L 329.892404 100.474191 
L 345.331139 148.44168 
L 360.769874 161.7351 
L 376.208609 159.36698 
L 391.647344 160.829362 
L 407.08608 165.655923 
" style="fill:none;stroke:#1b9e77;stroke-linecap:square;stroke-opacity:0.5;stroke-width:1.5;"/>
   </g>
   <g id="line2d_110">
    <path clip-path="url(#p92073cca39)" d="M 51.99517 165.924735 
L 67.433906 165.880504 
L 82.872641 165.880415 
L 98.311376 165.845508 
L 113.750111 165.777764 
L 129.188846 165.847961 
L 144.627582 165.903984 
L 160.066317 165.904684 
L 175.505052 165.885183 
L 190.943787 165.871422 
L 206.382522 165.893251 
L 221.821257 165.918038 
L 237.259993 165.92753 
L 252.698728 165.936363 
L 268.137463 165.928287 
L 283.576198 165.901112 
L 299.014933 165.61653 
L 314.453668 165.529978 
L 329.892404 162.753777 
L 345.331139 144.263833 
L 360.769874 128.089895 
L 376.208609 112.970593 
L 391.647344 112.679911 
L 407.08608 154.283675 
" style="fill:none;stroke:#1b9e77;stroke-linecap:square;stroke-opacity:0.5;stroke-width:1.5;"/>
   </g>
   <g id="line2d_111">
    <path clip-path="url(#p92073cca39)" d="M 51.99517 165.515292 
L 67.433906 165.705784 
L 82.872641 165.778918 
L 98.311376 165.804221 
L 113.750111 165.727273 
L 129.188846 165.551729 
L 144.627582 164.40678 
L 160.066317 161.637714 
L 175.505052 163.362973 
L 190.943787 164.667717 
L 206.382522 163.425269 
L 221.821257 160.061545 
L 237.259993 164.452423 
L 252.698728 165.429739 
L 268.137463 164.987376 
L 283.576198 165.344002 
L 299.014933 165.686465 
L 314.453668 165.707643 
L 329.892404 165.514761 
L 345.331139 165.118276 
L 360.769874 164.913045 
L 376.208609 165.673594 
L 391.647344 161.182402 
L 407.08608 14.76 
" style="fill:none;stroke:#1b9e77;stroke-linecap:square;stroke-opacity:0.5;stroke-width:1.5;"/>
   </g>
   <g id="line2d_112">
    <path clip-path="url(#p92073cca39)" d="M 51.99517 161.314564 
L 67.433906 159.82658 
L 82.872641 149.156169 
L 98.311376 140.870333 
L 113.750111 152.149627 
L 129.188846 159.454303 
L 144.627582 159.493258 
L 160.066317 154.685287 
L 175.505052 129.951582 
L 190.943787 162.427599 
L 206.382522 165.722124 
L 221.821257 165.4241 
L 237.259993 138.071907 
L 252.698728 146.081794 
L 268.137463 164.465847 
L 283.576198 165.037551 
L 299.014933 165.389509 
L 314.453668 165.563781 
L 329.892404 165.729544 
L 345.331139 165.848551 
L 360.769874 165.89649 
L 376.208609 165.946232 
L 391.647344 165.957975 
L 407.08608 165.950235 
" style="fill:none;stroke:#1b9e77;stroke-linecap:square;stroke-opacity:0.5;stroke-width:1.5;"/>
   </g>
   <g id="line2d_113">
    <path clip-path="url(#p92073cca39)" d="M 51.99517 165.792654 
L 67.433906 165.928626 
L 82.872641 165.724664 
L 98.311376 165.795632 
L 113.750111 164.109398 
L 129.188846 155.216924 
L 144.627582 165.738151 
L 160.066317 165.649922 
L 175.505052 165.473539 
L 190.943787 165.705707 
L 206.382522 165.86199 
L 221.821257 165.871859 
L 237.259993 165.797217 
L 252.698728 165.854498 
L 268.137463 165.73408 
L 283.576198 149.092835 
L 299.014933 139.978594 
L 314.453668 164.430716 
L 329.892404 149.883333 
L 345.331139 120.617543 
L 360.769874 147.739415 
L 376.208609 134.585582 
L 391.647344 155.314373 
L 407.08608 164.517688 
" style="fill:none;stroke:#1b9e77;stroke-linecap:square;stroke-opacity:0.5;stroke-width:1.5;"/>
   </g>
   <g id="line2d_114">
    <path clip-path="url(#p92073cca39)" d="M 51.99517 165.922603 
L 67.433906 165.889093 
L 82.872641 165.95904 
L 98.311376 165.959912 
L 113.750111 165.959912 
L 129.188846 165.959912 
L 144.627582 165.959912 
L 160.066317 165.958734 
L 175.505052 165.327131 
L 190.943787 161.447758 
L 206.382522 156.358219 
L 221.821257 150.924864 
L 237.259993 151.860888 
L 252.698728 156.021598 
L 268.137463 144.954674 
L 283.576198 147.352938 
L 299.014933 153.008233 
L 314.453668 155.207644 
L 329.892404 152.46404 
L 345.331139 150.455151 
L 360.769874 153.243708 
L 376.208609 158.329242 
L 391.647344 158.146182 
L 407.08608 157.743554 
" style="fill:none;stroke:#d95f02;stroke-linecap:square;stroke-width:1.5;"/>
   </g>
   <g id="patch_3">
    <path d="M 34.240625 173.52 
L 34.240625 7.2 
" style="fill:none;stroke:#000000;stroke-linecap:square;stroke-linejoin:miter;stroke-width:0.8;"/>
   </g>
   <g id="patch_4">
    <path d="M 34.240625 173.52 
L 424.840625 173.52 
" style="fill:none;stroke:#000000;stroke-linecap:square;stroke-linejoin:miter;stroke-width:0.8;"/>
   </g>
   <g id="legend_1">
    <g id="patch_5">
     <path d="M 41.240625 29.878125 
L 92.407813 29.878125 
Q 94.407813 29.878125 94.407813 27.878125 
L 94.407813 14.2 
Q 94.407813 12.2 92.407813 12.2 
L 41.240625 12.2 
Q 39.240625 12.2 39.240625 14.2 
L 39.240625 27.878125 
Q 39.240625 29.878125 41.240625 29.878125 
z
" style="fill:#ffffff;opacity:0.8;stroke:#cccccc;stroke-linejoin:miter;"/>
    </g>
    <g id="line2d_115">
     <path d="M 43.240625 20.298438 
L 63.240625 20.298438 
" style="fill:none;stroke:#d95f02;stroke-linecap:square;stroke-width:1.5;"/>
    </g>
    <g id="line2d_116"/>
    <g id="text_16">
     <!-- real -->
     <defs>
      <path d="M 9.421875 75.984375 
L 18.40625 75.984375 
L 18.40625 0 
L 9.421875 0 
z
" id="DejaVuSans-108"/>
     </defs>
     <g transform="translate(71.240625 23.798438)scale(0.1 -0.1)">
      <use xlink:href="#DejaVuSans-114"/>
      <use x="41.082031" xlink:href="#DejaVuSans-101"/>
      <use x="102.605469" xlink:href="#DejaVuSans-97"/>
      <use x="163.884766" xlink:href="#DejaVuSans-108"/>
     </g>
    </g>
   </g>
  </g>
 </g>
 <defs>
  <clipPath id="p92073cca39">
   <rect height="166.32" width="390.6" x="34.240625" y="7.2"/>
  </clipPath>
 </defs>
</svg>
