<?xml version="1.0" encoding="utf-8" standalone="no"?>
<!DOCTYPE svg PUBLIC "-//W3C//DTD SVG 1.1//EN"
  "http://www.w3.org/Graphics/SVG/1.1/DTD/svg11.dtd">
<!-- Created with matplotlib (https://matplotlib.org/) -->
<svg height="211.07625pt" version="1.1" viewBox="0 0 436.087315 211.07625" width="436.087315pt" xmlns="http://www.w3.org/2000/svg" xmlns:xlink="http://www.w3.org/1999/xlink">
 <defs>
  <style type="text/css">
*{stroke-linecap:butt;stroke-linejoin:round;}
  </style>
 </defs>
 <g id="figure_1">
  <g id="patch_1">
   <path d="M 0 211.07625 
L 436.087315 211.07625 
L 436.087315 0 
L 0 0 
z
" style="fill:#ffffff;"/>
  </g>
  <g id="axes_1">
   <g id="patch_2">
    <path d="M 34.240625 173.52 
L 424.840625 173.52 
L 424.840625 7.2 
L 34.240625 7.2 
z
" style="fill:#ffffff;"/>
   </g>
   <g id="matplotlib.axis_1">
    <g id="xtick_1">
     <g id="line2d_1">
      <defs>
       <path d="M 0 0 
L 0 3.5 
" id="ma43b3cdcf1" style="stroke:#000000;stroke-width:0.8;"/>
      </defs>
      <g>
       <use style="stroke:#000000;stroke-width:0.8;" x="36.556435" xlink:href="#ma43b3cdcf1" y="173.52"/>
      </g>
     </g>
     <g id="text_1">
      <!-- 0 -->
      <defs>
       <path d="M 31.78125 66.40625 
Q 24.171875 66.40625 20.328125 58.90625 
Q 16.5 51.421875 16.5 36.375 
Q 16.5 21.390625 20.328125 13.890625 
Q 24.171875 6.390625 31.78125 6.390625 
Q 39.453125 6.390625 43.28125 13.890625 
Q 47.125 21.390625 47.125 36.375 
Q 47.125 51.421875 43.28125 58.90625 
Q 39.453125 66.40625 31.78125 66.40625 
z
M 31.78125 74.21875 
Q 44.046875 74.21875 50.515625 64.515625 
Q 56.984375 54.828125 56.984375 36.375 
Q 56.984375 17.96875 50.515625 8.265625 
Q 44.046875 -1.421875 31.78125 -1.421875 
Q 19.53125 -1.421875 13.0625 8.265625 
Q 6.59375 17.96875 6.59375 36.375 
Q 6.59375 54.828125 13.0625 64.515625 
Q 19.53125 74.21875 31.78125 74.21875 
z
" id="DejaVuSans-48"/>
      </defs>
      <g transform="translate(33.375185 188.118438)scale(0.1 -0.1)">
       <use xlink:href="#DejaVuSans-48"/>
      </g>
     </g>
    </g>
    <g id="xtick_2">
     <g id="line2d_2">
      <g>
       <use style="stroke:#000000;stroke-width:0.8;" x="113.750111" xlink:href="#ma43b3cdcf1" y="173.52"/>
      </g>
     </g>
     <g id="text_2">
      <!-- 5 -->
      <defs>
       <path d="M 10.796875 72.90625 
L 49.515625 72.90625 
L 49.515625 64.59375 
L 19.828125 64.59375 
L 19.828125 46.734375 
Q 21.96875 47.46875 24.109375 47.828125 
Q 26.265625 48.1875 28.421875 48.1875 
Q 40.625 48.1875 47.75 41.5 
Q 54.890625 34.8125 54.890625 23.390625 
Q 54.890625 11.625 47.5625 5.09375 
Q 40.234375 -1.421875 26.90625 -1.421875 
Q 22.3125 -1.421875 17.546875 -0.640625 
Q 12.796875 0.140625 7.71875 1.703125 
L 7.71875 11.625 
Q 12.109375 9.234375 16.796875 8.0625 
Q 21.484375 6.890625 26.703125 6.890625 
Q 35.15625 6.890625 40.078125 11.328125 
Q 45.015625 15.765625 45.015625 23.390625 
Q 45.015625 31 40.078125 35.4375 
Q 35.15625 39.890625 26.703125 39.890625 
Q 22.75 39.890625 18.8125 39.015625 
Q 14.890625 38.140625 10.796875 36.28125 
z
" id="DejaVuSans-53"/>
      </defs>
      <g transform="translate(110.568861 188.118438)scale(0.1 -0.1)">
       <use xlink:href="#DejaVuSans-53"/>
      </g>
     </g>
    </g>
    <g id="xtick_3">
     <g id="line2d_3">
      <g>
       <use style="stroke:#000000;stroke-width:0.8;" x="190.943787" xlink:href="#ma43b3cdcf1" y="173.52"/>
      </g>
     </g>
     <g id="text_3">
      <!-- 10 -->
      <defs>
       <path d="M 12.40625 8.296875 
L 28.515625 8.296875 
L 28.515625 63.921875 
L 10.984375 60.40625 
L 10.984375 69.390625 
L 28.421875 72.90625 
L 38.28125 72.90625 
L 38.28125 8.296875 
L 54.390625 8.296875 
L 54.390625 0 
L 12.40625 0 
z
" id="DejaVuSans-49"/>
      </defs>
      <g transform="translate(184.581287 188.118438)scale(0.1 -0.1)">
       <use xlink:href="#DejaVuSans-49"/>
       <use x="63.623047" xlink:href="#DejaVuSans-48"/>
      </g>
     </g>
    </g>
    <g id="xtick_4">
     <g id="line2d_4">
      <g>
       <use style="stroke:#000000;stroke-width:0.8;" x="268.137463" xlink:href="#ma43b3cdcf1" y="173.52"/>
      </g>
     </g>
     <g id="text_4">
      <!-- 15 -->
      <g transform="translate(261.774963 188.118438)scale(0.1 -0.1)">
       <use xlink:href="#DejaVuSans-49"/>
       <use x="63.623047" xlink:href="#DejaVuSans-53"/>
      </g>
     </g>
    </g>
    <g id="xtick_5">
     <g id="line2d_5">
      <g>
       <use style="stroke:#000000;stroke-width:0.8;" x="345.331139" xlink:href="#ma43b3cdcf1" y="173.52"/>
      </g>
     </g>
     <g id="text_5">
      <!-- 20 -->
      <defs>
       <path d="M 19.1875 8.296875 
L 53.609375 8.296875 
L 53.609375 0 
L 7.328125 0 
L 7.328125 8.296875 
Q 12.9375 14.109375 22.625 23.890625 
Q 32.328125 33.6875 34.8125 36.53125 
Q 39.546875 41.84375 41.421875 45.53125 
Q 43.3125 49.21875 43.3125 52.78125 
Q 43.3125 58.59375 39.234375 62.25 
Q 35.15625 65.921875 28.609375 65.921875 
Q 23.96875 65.921875 18.8125 64.3125 
Q 13.671875 62.703125 7.8125 59.421875 
L 7.8125 69.390625 
Q 13.765625 71.78125 18.9375 73 
Q 24.125 74.21875 28.421875 74.21875 
Q 39.75 74.21875 46.484375 68.546875 
Q 53.21875 62.890625 53.21875 53.421875 
Q 53.21875 48.921875 51.53125 44.890625 
Q 49.859375 40.875 45.40625 35.40625 
Q 44.1875 33.984375 37.640625 27.21875 
Q 31.109375 20.453125 19.1875 8.296875 
z
" id="DejaVuSans-50"/>
      </defs>
      <g transform="translate(338.968639 188.118438)scale(0.1 -0.1)">
       <use xlink:href="#DejaVuSans-50"/>
       <use x="63.623047" xlink:href="#DejaVuSans-48"/>
      </g>
     </g>
    </g>
    <g id="xtick_6">
     <g id="line2d_6">
      <g>
       <use style="stroke:#000000;stroke-width:0.8;" x="422.524815" xlink:href="#ma43b3cdcf1" y="173.52"/>
      </g>
     </g>
     <g id="text_6">
      <!-- 25 -->
      <g transform="translate(416.162315 188.118438)scale(0.1 -0.1)">
       <use xlink:href="#DejaVuSans-50"/>
       <use x="63.623047" xlink:href="#DejaVuSans-53"/>
      </g>
     </g>
    </g>
    <g id="text_7">
     <!-- hour -->
     <defs>
      <path d="M 54.890625 33.015625 
L 54.890625 0 
L 45.90625 0 
L 45.90625 32.71875 
Q 45.90625 40.484375 42.875 44.328125 
Q 39.84375 48.1875 33.796875 48.1875 
Q 26.515625 48.1875 22.3125 43.546875 
Q 18.109375 38.921875 18.109375 30.90625 
L 18.109375 0 
L 9.078125 0 
L 9.078125 75.984375 
L 18.109375 75.984375 
L 18.109375 46.1875 
Q 21.34375 51.125 25.703125 53.5625 
Q 30.078125 56 35.796875 56 
Q 45.21875 56 50.046875 50.171875 
Q 54.890625 44.34375 54.890625 33.015625 
z
" id="DejaVuSans-104"/>
      <path d="M 30.609375 48.390625 
Q 23.390625 48.390625 19.1875 42.75 
Q 14.984375 37.109375 14.984375 27.296875 
Q 14.984375 17.484375 19.15625 11.84375 
Q 23.34375 6.203125 30.609375 6.203125 
Q 37.796875 6.203125 41.984375 11.859375 
Q 46.1875 17.53125 46.1875 27.296875 
Q 46.1875 37.015625 41.984375 42.703125 
Q 37.796875 48.390625 30.609375 48.390625 
z
M 30.609375 56 
Q 42.328125 56 49.015625 48.375 
Q 55.71875 40.765625 55.71875 27.296875 
Q 55.71875 13.875 49.015625 6.21875 
Q 42.328125 -1.421875 30.609375 -1.421875 
Q 18.84375 -1.421875 12.171875 6.21875 
Q 5.515625 13.875 5.515625 27.296875 
Q 5.515625 40.765625 12.171875 48.375 
Q 18.84375 56 30.609375 56 
z
" id="DejaVuSans-111"/>
      <path d="M 8.5 21.578125 
L 8.5 54.6875 
L 17.484375 54.6875 
L 17.484375 21.921875 
Q 17.484375 14.15625 20.5 10.265625 
Q 23.53125 6.390625 29.59375 6.390625 
Q 36.859375 6.390625 41.078125 11.03125 
Q 45.3125 15.671875 45.3125 23.6875 
L 45.3125 54.6875 
L 54.296875 54.6875 
L 54.296875 0 
L 45.3125 0 
L 45.3125 8.40625 
Q 42.046875 3.421875 37.71875 1 
Q 33.40625 -1.421875 27.6875 -1.421875 
Q 18.265625 -1.421875 13.375 4.4375 
Q 8.5 10.296875 8.5 21.578125 
z
M 31.109375 56 
z
" id="DejaVuSans-117"/>
      <path d="M 41.109375 46.296875 
Q 39.59375 47.171875 37.8125 47.578125 
Q 36.03125 48 33.890625 48 
Q 26.265625 48 22.1875 43.046875 
Q 18.109375 38.09375 18.109375 28.8125 
L 18.109375 0 
L 9.078125 0 
L 9.078125 54.6875 
L 18.109375 54.6875 
L 18.109375 46.1875 
Q 20.953125 51.171875 25.484375 53.578125 
Q 30.03125 56 36.53125 56 
Q 37.453125 56 38.578125 55.875 
Q 39.703125 55.765625 41.0625 55.515625 
z
" id="DejaVuSans-114"/>
     </defs>
     <g transform="translate(218.088281 201.796563)scale(0.1 -0.1)">
      <use xlink:href="#DejaVuSans-104"/>
      <use x="63.378906" xlink:href="#DejaVuSans-111"/>
      <use x="124.560547" xlink:href="#DejaVuSans-117"/>
      <use x="187.939453" xlink:href="#DejaVuSans-114"/>
     </g>
    </g>
   </g>
   <g id="matplotlib.axis_2">
    <g id="ytick_1">
     <g id="line2d_7">
      <defs>
       <path d="M 0 0 
L -3.5 0 
" id="m8da0030a55" style="stroke:#000000;stroke-width:0.8;"/>
      </defs>
      <g>
       <use style="stroke:#000000;stroke-width:0.8;" x="34.240625" xlink:href="#m8da0030a55" y="165.961804"/>
      </g>
     </g>
     <g id="text_8">
      <!-- 0 -->
      <g transform="translate(20.878125 169.761023)scale(0.1 -0.1)">
       <use xlink:href="#DejaVuSans-48"/>
      </g>
     </g>
    </g>
    <g id="ytick_2">
     <g id="line2d_8">
      <g>
       <use style="stroke:#000000;stroke-width:0.8;" x="34.240625" xlink:href="#m8da0030a55" y="129.613007"/>
      </g>
     </g>
     <g id="text_9">
      <!-- 1 -->
      <g transform="translate(20.878125 133.412226)scale(0.1 -0.1)">
       <use xlink:href="#DejaVuSans-49"/>
      </g>
     </g>
    </g>
    <g id="ytick_3">
     <g id="line2d_9">
      <g>
       <use style="stroke:#000000;stroke-width:0.8;" x="34.240625" xlink:href="#m8da0030a55" y="93.26421"/>
      </g>
     </g>
     <g id="text_10">
      <!-- 2 -->
      <g transform="translate(20.878125 97.063429)scale(0.1 -0.1)">
       <use xlink:href="#DejaVuSans-50"/>
      </g>
     </g>
    </g>
    <g id="ytick_4">
     <g id="line2d_10">
      <g>
       <use style="stroke:#000000;stroke-width:0.8;" x="34.240625" xlink:href="#m8da0030a55" y="56.915413"/>
      </g>
     </g>
     <g id="text_11">
      <!-- 3 -->
      <defs>
       <path d="M 40.578125 39.3125 
Q 47.65625 37.796875 51.625 33 
Q 55.609375 28.21875 55.609375 21.1875 
Q 55.609375 10.40625 48.1875 4.484375 
Q 40.765625 -1.421875 27.09375 -1.421875 
Q 22.515625 -1.421875 17.65625 -0.515625 
Q 12.796875 0.390625 7.625 2.203125 
L 7.625 11.71875 
Q 11.71875 9.328125 16.59375 8.109375 
Q 21.484375 6.890625 26.8125 6.890625 
Q 36.078125 6.890625 40.9375 10.546875 
Q 45.796875 14.203125 45.796875 21.1875 
Q 45.796875 27.640625 41.28125 31.265625 
Q 36.765625 34.90625 28.71875 34.90625 
L 20.21875 34.90625 
L 20.21875 43.015625 
L 29.109375 43.015625 
Q 36.375 43.015625 40.234375 45.921875 
Q 44.09375 48.828125 44.09375 54.296875 
Q 44.09375 59.90625 40.109375 62.90625 
Q 36.140625 65.921875 28.71875 65.921875 
Q 24.65625 65.921875 20.015625 65.03125 
Q 15.375 64.15625 9.8125 62.3125 
L 9.8125 71.09375 
Q 15.4375 72.65625 20.34375 73.4375 
Q 25.25 74.21875 29.59375 74.21875 
Q 40.828125 74.21875 47.359375 69.109375 
Q 53.90625 64.015625 53.90625 55.328125 
Q 53.90625 49.265625 50.4375 45.09375 
Q 46.96875 40.921875 40.578125 39.3125 
z
" id="DejaVuSans-51"/>
      </defs>
      <g transform="translate(20.878125 60.714632)scale(0.1 -0.1)">
       <use xlink:href="#DejaVuSans-51"/>
      </g>
     </g>
    </g>
    <g id="ytick_5">
     <g id="line2d_11">
      <g>
       <use style="stroke:#000000;stroke-width:0.8;" x="34.240625" xlink:href="#m8da0030a55" y="20.566616"/>
      </g>
     </g>
     <g id="text_12">
      <!-- 4 -->
      <defs>
       <path d="M 37.796875 64.3125 
L 12.890625 25.390625 
L 37.796875 25.390625 
z
M 35.203125 72.90625 
L 47.609375 72.90625 
L 47.609375 25.390625 
L 58.015625 25.390625 
L 58.015625 17.1875 
L 47.609375 17.1875 
L 47.609375 0 
L 37.796875 0 
L 37.796875 17.1875 
L 4.890625 17.1875 
L 4.890625 26.703125 
z
" id="DejaVuSans-52"/>
      </defs>
      <g transform="translate(20.878125 24.365835)scale(0.1 -0.1)">
       <use xlink:href="#DejaVuSans-52"/>
      </g>
     </g>
    </g>
    <g id="text_13">
     <!-- precipitation [mm/hour] -->
     <defs>
      <path d="M 18.109375 8.203125 
L 18.109375 -20.796875 
L 9.078125 -20.796875 
L 9.078125 54.6875 
L 18.109375 54.6875 
L 18.109375 46.390625 
Q 20.953125 51.265625 25.265625 53.625 
Q 29.59375 56 35.59375 56 
Q 45.5625 56 51.78125 48.09375 
Q 58.015625 40.1875 58.015625 27.296875 
Q 58.015625 14.40625 51.78125 6.484375 
Q 45.5625 -1.421875 35.59375 -1.421875 
Q 29.59375 -1.421875 25.265625 0.953125 
Q 20.953125 3.328125 18.109375 8.203125 
z
M 48.6875 27.296875 
Q 48.6875 37.203125 44.609375 42.84375 
Q 40.53125 48.484375 33.40625 48.484375 
Q 26.265625 48.484375 22.1875 42.84375 
Q 18.109375 37.203125 18.109375 27.296875 
Q 18.109375 17.390625 22.1875 11.75 
Q 26.265625 6.109375 33.40625 6.109375 
Q 40.53125 6.109375 44.609375 11.75 
Q 48.6875 17.390625 48.6875 27.296875 
z
" id="DejaVuSans-112"/>
      <path d="M 56.203125 29.59375 
L 56.203125 25.203125 
L 14.890625 25.203125 
Q 15.484375 15.921875 20.484375 11.0625 
Q 25.484375 6.203125 34.421875 6.203125 
Q 39.59375 6.203125 44.453125 7.46875 
Q 49.3125 8.734375 54.109375 11.28125 
L 54.109375 2.78125 
Q 49.265625 0.734375 44.1875 -0.34375 
Q 39.109375 -1.421875 33.890625 -1.421875 
Q 20.796875 -1.421875 13.15625 6.1875 
Q 5.515625 13.8125 5.515625 26.8125 
Q 5.515625 40.234375 12.765625 48.109375 
Q 20.015625 56 32.328125 56 
Q 43.359375 56 49.78125 48.890625 
Q 56.203125 41.796875 56.203125 29.59375 
z
M 47.21875 32.234375 
Q 47.125 39.59375 43.09375 43.984375 
Q 39.0625 48.390625 32.421875 48.390625 
Q 24.90625 48.390625 20.390625 44.140625 
Q 15.875 39.890625 15.1875 32.171875 
z
" id="DejaVuSans-101"/>
      <path d="M 48.78125 52.59375 
L 48.78125 44.1875 
Q 44.96875 46.296875 41.140625 47.34375 
Q 37.3125 48.390625 33.40625 48.390625 
Q 24.65625 48.390625 19.8125 42.84375 
Q 14.984375 37.3125 14.984375 27.296875 
Q 14.984375 17.28125 19.8125 11.734375 
Q 24.65625 6.203125 33.40625 6.203125 
Q 37.3125 6.203125 41.140625 7.25 
Q 44.96875 8.296875 48.78125 10.40625 
L 48.78125 2.09375 
Q 45.015625 0.34375 40.984375 -0.53125 
Q 36.96875 -1.421875 32.421875 -1.421875 
Q 20.0625 -1.421875 12.78125 6.34375 
Q 5.515625 14.109375 5.515625 27.296875 
Q 5.515625 40.671875 12.859375 48.328125 
Q 20.21875 56 33.015625 56 
Q 37.15625 56 41.109375 55.140625 
Q 45.0625 54.296875 48.78125 52.59375 
z
" id="DejaVuSans-99"/>
      <path d="M 9.421875 54.6875 
L 18.40625 54.6875 
L 18.40625 0 
L 9.421875 0 
z
M 9.421875 75.984375 
L 18.40625 75.984375 
L 18.40625 64.59375 
L 9.421875 64.59375 
z
" id="DejaVuSans-105"/>
      <path d="M 18.3125 70.21875 
L 18.3125 54.6875 
L 36.8125 54.6875 
L 36.8125 47.703125 
L 18.3125 47.703125 
L 18.3125 18.015625 
Q 18.3125 11.328125 20.140625 9.421875 
Q 21.96875 7.515625 27.59375 7.515625 
L 36.8125 7.515625 
L 36.8125 0 
L 27.59375 0 
Q 17.1875 0 13.234375 3.875 
Q 9.28125 7.765625 9.28125 18.015625 
L 9.28125 47.703125 
L 2.6875 47.703125 
L 2.6875 54.6875 
L 9.28125 54.6875 
L 9.28125 70.21875 
z
" id="DejaVuSans-116"/>
      <path d="M 34.28125 27.484375 
Q 23.390625 27.484375 19.1875 25 
Q 14.984375 22.515625 14.984375 16.5 
Q 14.984375 11.71875 18.140625 8.90625 
Q 21.296875 6.109375 26.703125 6.109375 
Q 34.1875 6.109375 38.703125 11.40625 
Q 43.21875 16.703125 43.21875 25.484375 
L 43.21875 27.484375 
z
M 52.203125 31.203125 
L 52.203125 0 
L 43.21875 0 
L 43.21875 8.296875 
Q 40.140625 3.328125 35.546875 0.953125 
Q 30.953125 -1.421875 24.3125 -1.421875 
Q 15.921875 -1.421875 10.953125 3.296875 
Q 6 8.015625 6 15.921875 
Q 6 25.140625 12.171875 29.828125 
Q 18.359375 34.515625 30.609375 34.515625 
L 43.21875 34.515625 
L 43.21875 35.40625 
Q 43.21875 41.609375 39.140625 45 
Q 35.0625 48.390625 27.6875 48.390625 
Q 23 48.390625 18.546875 47.265625 
Q 14.109375 46.140625 10.015625 43.890625 
L 10.015625 52.203125 
Q 14.9375 54.109375 19.578125 55.046875 
Q 24.21875 56 28.609375 56 
Q 40.484375 56 46.34375 49.84375 
Q 52.203125 43.703125 52.203125 31.203125 
z
" id="DejaVuSans-97"/>
      <path d="M 54.890625 33.015625 
L 54.890625 0 
L 45.90625 0 
L 45.90625 32.71875 
Q 45.90625 40.484375 42.875 44.328125 
Q 39.84375 48.1875 33.796875 48.1875 
Q 26.515625 48.1875 22.3125 43.546875 
Q 18.109375 38.921875 18.109375 30.90625 
L 18.109375 0 
L 9.078125 0 
L 9.078125 54.6875 
L 18.109375 54.6875 
L 18.109375 46.1875 
Q 21.34375 51.125 25.703125 53.5625 
Q 30.078125 56 35.796875 56 
Q 45.21875 56 50.046875 50.171875 
Q 54.890625 44.34375 54.890625 33.015625 
z
" id="DejaVuSans-110"/>
      <path id="DejaVuSans-32"/>
      <path d="M 8.59375 75.984375 
L 29.296875 75.984375 
L 29.296875 69 
L 17.578125 69 
L 17.578125 -6.203125 
L 29.296875 -6.203125 
L 29.296875 -13.1875 
L 8.59375 -13.1875 
z
" id="DejaVuSans-91"/>
      <path d="M 52 44.1875 
Q 55.375 50.25 60.0625 53.125 
Q 64.75 56 71.09375 56 
Q 79.640625 56 84.28125 50.015625 
Q 88.921875 44.046875 88.921875 33.015625 
L 88.921875 0 
L 79.890625 0 
L 79.890625 32.71875 
Q 79.890625 40.578125 77.09375 44.375 
Q 74.3125 48.1875 68.609375 48.1875 
Q 61.625 48.1875 57.5625 43.546875 
Q 53.515625 38.921875 53.515625 30.90625 
L 53.515625 0 
L 44.484375 0 
L 44.484375 32.71875 
Q 44.484375 40.625 41.703125 44.40625 
Q 38.921875 48.1875 33.109375 48.1875 
Q 26.21875 48.1875 22.15625 43.53125 
Q 18.109375 38.875 18.109375 30.90625 
L 18.109375 0 
L 9.078125 0 
L 9.078125 54.6875 
L 18.109375 54.6875 
L 18.109375 46.1875 
Q 21.1875 51.21875 25.484375 53.609375 
Q 29.78125 56 35.6875 56 
Q 41.65625 56 45.828125 52.96875 
Q 50 49.953125 52 44.1875 
z
" id="DejaVuSans-109"/>
      <path d="M 25.390625 72.90625 
L 33.6875 72.90625 
L 8.296875 -9.28125 
L 0 -9.28125 
z
" id="DejaVuSans-47"/>
      <path d="M 30.421875 75.984375 
L 30.421875 -13.1875 
L 9.71875 -13.1875 
L 9.71875 -6.203125 
L 21.390625 -6.203125 
L 21.390625 69 
L 9.71875 69 
L 9.71875 75.984375 
z
" id="DejaVuSans-93"/>
     </defs>
     <g transform="translate(14.798438 150.335781)rotate(-90)scale(0.1 -0.1)">
      <use xlink:href="#DejaVuSans-112"/>
      <use x="63.476562" xlink:href="#DejaVuSans-114"/>
      <use x="104.558594" xlink:href="#DejaVuSans-101"/>
      <use x="166.082031" xlink:href="#DejaVuSans-99"/>
      <use x="221.0625" xlink:href="#DejaVuSans-105"/>
      <use x="248.845703" xlink:href="#DejaVuSans-112"/>
      <use x="312.322266" xlink:href="#DejaVuSans-105"/>
      <use x="340.105469" xlink:href="#DejaVuSans-116"/>
      <use x="379.314453" xlink:href="#DejaVuSans-97"/>
      <use x="440.59375" xlink:href="#DejaVuSans-116"/>
      <use x="479.802734" xlink:href="#DejaVuSans-105"/>
      <use x="507.585938" xlink:href="#DejaVuSans-111"/>
      <use x="568.767578" xlink:href="#DejaVuSans-110"/>
      <use x="632.146484" xlink:href="#DejaVuSans-32"/>
      <use x="663.933594" xlink:href="#DejaVuSans-91"/>
      <use x="702.947266" xlink:href="#DejaVuSans-109"/>
      <use x="800.359375" xlink:href="#DejaVuSans-109"/>
      <use x="897.771484" xlink:href="#DejaVuSans-47"/>
      <use x="931.462891" xlink:href="#DejaVuSans-104"/>
      <use x="994.841797" xlink:href="#DejaVuSans-111"/>
      <use x="1056.023438" xlink:href="#DejaVuSans-117"/>
      <use x="1119.402344" xlink:href="#DejaVuSans-114"/>
      <use x="1160.515625" xlink:href="#DejaVuSans-93"/>
     </g>
    </g>
   </g>
   <g id="line2d_12">
    <path clip-path="url(#p7a5b3729e4)" d="M 51.99517 165.886248 
L 67.433906 165.749256 
L 82.872641 165.804361 
L 98.311376 165.859515 
L 113.750111 165.851381 
L 129.188846 165.900493 
L 144.627582 165.925145 
L 160.066317 165.820293 
L 175.505052 163.105516 
L 190.943787 164.09883 
L 206.382522 155.933334 
L 221.821257 144.067097 
L 237.259993 157.634253 
L 252.698728 156.234326 
L 268.137463 150.612477 
L 283.576198 143.776785 
L 299.014933 143.702332 
L 314.453668 158.782232 
L 329.892404 161.356981 
L 345.331139 160.370317 
L 360.769874 147.788171 
L 376.208609 150.866077 
L 391.647344 158.457918 
L 407.08608 164.123331 
" style="fill:none;stroke:#1b9e77;stroke-linecap:square;stroke-opacity:0.5;stroke-width:1.5;"/>
   </g>
   <g id="line2d_13">
    <path clip-path="url(#p7a5b3729e4)" d="M 51.99517 95.669829 
L 67.433906 102.763688 
L 82.872641 151.3222 
L 98.311376 158.870727 
L 113.750111 160.504119 
L 129.188846 162.776197 
L 144.627582 164.197018 
L 160.066317 164.647624 
L 175.505052 163.969452 
L 190.943787 164.947196 
L 206.382522 165.548901 
L 221.821257 165.53694 
L 237.259993 165.514971 
L 252.698728 165.434207 
L 268.137463 165.646194 
L 283.576198 165.814809 
L 299.014933 165.852106 
L 314.453668 165.808768 
L 329.892404 165.691001 
L 345.331139 165.75852 
L 360.769874 165.833667 
L 376.208609 165.919131 
L 391.647344 165.898011 
L 407.08608 163.781392 
" style="fill:none;stroke:#1b9e77;stroke-linecap:square;stroke-opacity:0.5;stroke-width:1.5;"/>
   </g>
   <g id="line2d_14">
    <path clip-path="url(#p7a5b3729e4)" d="M 51.99517 165.957291 
L 67.433906 165.952794 
L 82.872641 165.806121 
L 98.311376 164.948746 
L 113.750111 164.109374 
L 129.188846 165.008923 
L 144.627582 162.89735 
L 160.066317 165.738176 
L 175.505052 165.927454 
L 190.943787 165.940126 
L 206.382522 165.950916 
L 221.821257 165.902289 
L 237.259993 165.858407 
L 252.698728 149.339839 
L 268.137463 159.176975 
L 283.576198 164.746554 
L 299.014933 165.126975 
L 314.453668 165.014124 
L 329.892404 164.337524 
L 345.331139 160.471501 
L 360.769874 114.845935 
L 376.208609 141.327499 
L 391.647344 114.539784 
L 407.08608 158.78199 
" style="fill:none;stroke:#1b9e77;stroke-linecap:square;stroke-opacity:0.5;stroke-width:1.5;"/>
   </g>
   <g id="line2d_15">
    <path clip-path="url(#p7a5b3729e4)" d="M 51.99517 165.860302 
L 67.433906 165.74592 
L 82.872641 165.819045 
L 98.311376 165.879809 
L 113.750111 165.898507 
L 129.188846 165.928456 
L 144.627582 165.938032 
L 160.066317 165.927967 
L 175.505052 165.886008 
L 190.943787 165.888448 
L 206.382522 165.888668 
L 221.821257 165.827695 
L 237.259993 165.61252 
L 252.698728 164.336169 
L 268.137463 152.318142 
L 283.576198 142.902252 
L 299.014933 123.384519 
L 314.453668 145.027855 
L 329.892404 146.282354 
L 345.331139 153.313649 
L 360.769874 149.516869 
L 376.208609 154.464479 
L 391.647344 162.443719 
L 407.08608 157.61528 
" style="fill:none;stroke:#1b9e77;stroke-linecap:square;stroke-opacity:0.5;stroke-width:1.5;"/>
   </g>
   <g id="line2d_16">
    <path clip-path="url(#p7a5b3729e4)" d="M 51.99517 165.877475 
L 67.433906 165.697862 
L 82.872641 165.78223 
L 98.311376 165.871034 
L 113.750111 165.890087 
L 129.188846 165.908299 
L 144.627582 165.913256 
L 160.066317 165.928607 
L 175.505052 165.93363 
L 190.943787 165.941371 
L 206.382522 165.933979 
L 221.821257 165.75768 
L 237.259993 165.128601 
L 252.698728 165.486755 
L 268.137463 155.208072 
L 283.576198 153.44803 
L 299.014933 156.397984 
L 314.453668 146.791918 
L 329.892404 147.586004 
L 345.331139 158.035718 
L 360.769874 135.524594 
L 376.208609 112.825898 
L 391.647344 156.068922 
L 407.08608 164.768655 
" style="fill:none;stroke:#1b9e77;stroke-linecap:square;stroke-opacity:0.5;stroke-width:1.5;"/>
   </g>
   <g id="line2d_17">
    <path clip-path="url(#p7a5b3729e4)" d="M 51.99517 164.825437 
L 67.433906 164.773465 
L 82.872641 161.309531 
L 98.311376 156.262553 
L 113.750111 135.002387 
L 129.188846 147.280281 
L 144.627582 164.1962 
L 160.066317 165.769209 
L 175.505052 165.699879 
L 190.943787 165.740422 
L 206.382522 165.645828 
L 221.821257 164.97867 
L 237.259993 156.707405 
L 252.698728 150.738354 
L 268.137463 127.087993 
L 283.576198 161.704996 
L 299.014933 162.521275 
L 314.453668 164.854723 
L 329.892404 165.811865 
L 345.331139 165.743085 
L 360.769874 136.753201 
L 376.208609 163.792155 
L 391.647344 164.89357 
L 407.08608 165.614178 
" style="fill:none;stroke:#1b9e77;stroke-linecap:square;stroke-opacity:0.5;stroke-width:1.5;"/>
   </g>
   <g id="line2d_18">
    <path clip-path="url(#p7a5b3729e4)" d="M 51.99517 165.902272 
L 67.433906 164.286298 
L 82.872641 160.974076 
L 98.311376 164.119363 
L 113.750111 159.700324 
L 129.188846 119.231255 
L 144.627582 150.860445 
L 160.066317 164.960662 
L 175.505052 164.215324 
L 190.943787 154.229131 
L 206.382522 130.775373 
L 221.821257 163.343295 
L 237.259993 164.941735 
L 252.698728 165.061285 
L 268.137463 165.319119 
L 283.576198 135.912085 
L 299.014933 158.407338 
L 314.453668 165.881367 
L 329.892404 165.792759 
L 345.331139 165.681002 
L 360.769874 163.424845 
L 376.208609 163.696093 
L 391.647344 165.175207 
L 407.08608 165.816015 
" style="fill:none;stroke:#1b9e77;stroke-linecap:square;stroke-opacity:0.5;stroke-width:1.5;"/>
   </g>
   <g id="line2d_19">
    <path clip-path="url(#p7a5b3729e4)" d="M 51.99517 155.441501 
L 67.433906 160.189534 
L 82.872641 163.802778 
L 98.311376 165.320149 
L 113.750111 165.242746 
L 129.188846 165.218802 
L 144.627582 163.962652 
L 160.066317 160.2849 
L 175.505052 158.444791 
L 190.943787 157.317088 
L 206.382522 156.722354 
L 221.821257 157.849327 
L 237.259993 155.92406 
L 252.698728 145.948165 
L 268.137463 146.600418 
L 283.576198 149.771079 
L 299.014933 154.550575 
L 314.453668 156.266823 
L 329.892404 156.283397 
L 345.331139 161.59414 
L 360.769874 164.674492 
L 376.208609 165.823777 
L 391.647344 165.862987 
L 407.08608 154.61013 
" style="fill:none;stroke:#1b9e77;stroke-linecap:square;stroke-opacity:0.5;stroke-width:1.5;"/>
   </g>
   <g id="line2d_20">
    <path clip-path="url(#p7a5b3729e4)" d="M 51.99517 165.94815 
L 67.433906 165.935526 
L 82.872641 165.894608 
L 98.311376 165.425948 
L 113.750111 165.541673 
L 129.188846 165.767901 
L 144.627582 165.881926 
L 160.066317 165.898581 
L 175.505052 165.882084 
L 190.943787 165.858413 
L 206.382522 165.809252 
L 221.821257 165.811859 
L 237.259993 165.767825 
L 252.698728 154.652876 
L 268.137463 151.761543 
L 283.576198 122.829846 
L 299.014933 70.999161 
L 314.453668 159.143456 
L 329.892404 165.760368 
L 345.331139 165.856734 
L 360.769874 165.461722 
L 376.208609 165.223366 
L 391.647344 164.861433 
L 407.08608 165.732417 
" style="fill:none;stroke:#1b9e77;stroke-linecap:square;stroke-opacity:0.5;stroke-width:1.5;"/>
   </g>
   <g id="line2d_21">
    <path clip-path="url(#p7a5b3729e4)" d="M 51.99517 144.486409 
L 67.433906 137.593717 
L 82.872641 142.217778 
L 98.311376 156.376086 
L 113.750111 161.213894 
L 129.188846 163.420178 
L 144.627582 163.614061 
L 160.066317 165.268917 
L 175.505052 165.617379 
L 190.943787 165.40379 
L 206.382522 165.283546 
L 221.821257 164.47312 
L 237.259993 162.495842 
L 252.698728 162.296775 
L 268.137463 164.031805 
L 283.576198 164.230762 
L 299.014933 163.747016 
L 314.453668 163.922332 
L 329.892404 164.505772 
L 345.331139 165.436885 
L 360.769874 165.632199 
L 376.208609 165.589176 
L 391.647344 160.452151 
L 407.08608 110.397079 
" style="fill:none;stroke:#1b9e77;stroke-linecap:square;stroke-opacity:0.5;stroke-width:1.5;"/>
   </g>
   <g id="line2d_22">
    <path clip-path="url(#p7a5b3729e4)" d="M 51.99517 165.767274 
L 67.433906 165.676525 
L 82.872641 165.771201 
L 98.311376 165.856892 
L 113.750111 165.436204 
L 129.188846 164.416196 
L 144.627582 160.00014 
L 160.066317 155.252031 
L 175.505052 141.117321 
L 190.943787 104.69448 
L 206.382522 120.696025 
L 221.821257 147.742776 
L 237.259993 165.271274 
L 252.698728 164.385927 
L 268.137463 164.983359 
L 283.576198 165.195371 
L 299.014933 165.256702 
L 314.453668 165.405922 
L 329.892404 165.578973 
L 345.331139 165.738198 
L 360.769874 165.81262 
L 376.208609 165.916753 
L 391.647344 165.940908 
L 407.08608 165.793591 
" style="fill:none;stroke:#1b9e77;stroke-linecap:square;stroke-opacity:0.5;stroke-width:1.5;"/>
   </g>
   <g id="line2d_23">
    <path clip-path="url(#p7a5b3729e4)" d="M 51.99517 165.26234 
L 67.433906 163.070809 
L 82.872641 162.629474 
L 98.311376 163.124034 
L 113.750111 163.421627 
L 129.188846 164.895391 
L 144.627582 163.517204 
L 160.066317 106.74107 
L 175.505052 162.114171 
L 190.943787 162.320699 
L 206.382522 164.582481 
L 221.821257 163.87369 
L 237.259993 93.092229 
L 252.698728 156.200371 
L 268.137463 164.425388 
L 283.576198 165.277506 
L 299.014933 165.086897 
L 314.453668 164.047432 
L 329.892404 165.087283 
L 345.331139 165.577461 
L 360.769874 165.682215 
L 376.208609 165.835779 
L 391.647344 165.892736 
L 407.08608 165.948383 
" style="fill:none;stroke:#1b9e77;stroke-linecap:square;stroke-opacity:0.5;stroke-width:1.5;"/>
   </g>
   <g id="line2d_24">
    <path clip-path="url(#p7a5b3729e4)" d="M 51.99517 156.228789 
L 67.433906 161.366264 
L 82.872641 162.956822 
L 98.311376 163.176424 
L 113.750111 163.029598 
L 129.188846 162.870111 
L 144.627582 142.122589 
L 160.066317 108.628441 
L 175.505052 149.799669 
L 190.943787 151.605987 
L 206.382522 145.828339 
L 221.821257 160.846668 
L 237.259993 165.6032 
L 252.698728 165.318537 
L 268.137463 163.586917 
L 283.576198 162.956963 
L 299.014933 161.050541 
L 314.453668 165.647609 
L 329.892404 165.879411 
L 345.331139 165.899905 
L 360.769874 165.803394 
L 376.208609 165.93653 
L 391.647344 165.954717 
L 407.08608 165.609241 
" style="fill:none;stroke:#1b9e77;stroke-linecap:square;stroke-opacity:0.5;stroke-width:1.5;"/>
   </g>
   <g id="line2d_25">
    <path clip-path="url(#p7a5b3729e4)" d="M 51.99517 147.856834 
L 67.433906 157.946587 
L 82.872641 131.868926 
L 98.311376 88.608409 
L 113.750111 161.197245 
L 129.188846 163.762046 
L 144.627582 165.341547 
L 160.066317 165.717106 
L 175.505052 165.886423 
L 190.943787 165.937136 
L 206.382522 165.950797 
L 221.821257 165.93002 
L 237.259993 165.741183 
L 252.698728 165.102024 
L 268.137463 164.466782 
L 283.576198 164.07095 
L 299.014933 161.843114 
L 314.453668 157.542684 
L 329.892404 155.203277 
L 345.331139 164.872025 
L 360.769874 165.795155 
L 376.208609 165.721834 
L 391.647344 165.586015 
L 407.08608 165.758547 
" style="fill:none;stroke:#1b9e77;stroke-linecap:square;stroke-opacity:0.5;stroke-width:1.5;"/>
   </g>
   <g id="line2d_26">
    <path clip-path="url(#p7a5b3729e4)" d="M 51.99517 165.836691 
L 67.433906 165.543058 
L 82.872641 165.600869 
L 98.311376 165.818049 
L 113.750111 165.883163 
L 129.188846 165.92403 
L 144.627582 165.910516 
L 160.066317 165.903096 
L 175.505052 164.880486 
L 190.943787 152.709726 
L 206.382522 144.439663 
L 221.821257 135.174141 
L 237.259993 123.157889 
L 252.698728 144.334225 
L 268.137463 155.047034 
L 283.576198 158.925468 
L 299.014933 162.705054 
L 314.453668 159.561884 
L 329.892404 163.254766 
L 345.331139 165.156294 
L 360.769874 163.941036 
L 376.208609 161.435032 
L 391.647344 161.988302 
L 407.08608 164.576195 
" style="fill:none;stroke:#1b9e77;stroke-linecap:square;stroke-opacity:0.5;stroke-width:1.5;"/>
   </g>
   <g id="line2d_27">
    <path clip-path="url(#p7a5b3729e4)" d="M 51.99517 160.503336 
L 67.433906 157.172104 
L 82.872641 138.936196 
L 98.311376 132.108125 
L 113.750111 155.002067 
L 129.188846 147.217204 
L 144.627582 136.059225 
L 160.066317 142.994948 
L 175.505052 156.938222 
L 190.943787 163.921038 
L 206.382522 165.640017 
L 221.821257 165.593643 
L 237.259993 165.578301 
L 252.698728 165.485288 
L 268.137463 163.775608 
L 283.576198 165.712453 
L 299.014933 165.374905 
L 314.453668 164.973436 
L 329.892404 165.463708 
L 345.331139 165.711075 
L 360.769874 165.759324 
L 376.208609 165.903506 
L 391.647344 165.946337 
L 407.08608 165.936602 
" style="fill:none;stroke:#1b9e77;stroke-linecap:square;stroke-opacity:0.5;stroke-width:1.5;"/>
   </g>
   <g id="line2d_28">
    <path clip-path="url(#p7a5b3729e4)" d="M 51.99517 165.540468 
L 67.433906 165.236174 
L 82.872641 164.673942 
L 98.311376 162.507928 
L 113.750111 163.009064 
L 129.188846 164.292637 
L 144.627582 164.13868 
L 160.066317 159.287052 
L 175.505052 86.649139 
L 190.943787 150.346653 
L 206.382522 165.414093 
L 221.821257 160.861657 
L 237.259993 128.94764 
L 252.698728 151.137529 
L 268.137463 162.459228 
L 283.576198 165.892247 
L 299.014933 165.956528 
L 314.453668 165.954378 
L 329.892404 165.949649 
L 345.331139 165.95309 
L 360.769874 165.891851 
L 376.208609 165.924403 
L 391.647344 165.742634 
L 407.08608 165.94001 
" style="fill:none;stroke:#1b9e77;stroke-linecap:square;stroke-opacity:0.5;stroke-width:1.5;"/>
   </g>
   <g id="line2d_29">
    <path clip-path="url(#p7a5b3729e4)" d="M 51.99517 165.876546 
L 67.433906 165.71143 
L 82.872641 165.744616 
L 98.311376 165.824148 
L 113.750111 165.826216 
L 129.188846 165.90972 
L 144.627582 165.937077 
L 160.066317 165.913732 
L 175.505052 165.921224 
L 190.943787 165.925823 
L 206.382522 165.905524 
L 221.821257 164.545849 
L 237.259993 164.282704 
L 252.698728 165.463696 
L 268.137463 160.294998 
L 283.576198 119.69583 
L 299.014933 144.369768 
L 314.453668 159.993634 
L 329.892404 161.899175 
L 345.331139 154.439276 
L 360.769874 99.624706 
L 376.208609 163.075173 
L 391.647344 165.502113 
L 407.08608 160.02368 
" style="fill:none;stroke:#1b9e77;stroke-linecap:square;stroke-opacity:0.5;stroke-width:1.5;"/>
   </g>
   <g id="line2d_30">
    <path clip-path="url(#p7a5b3729e4)" d="M 51.99517 165.818267 
L 67.433906 165.5377 
L 82.872641 165.635778 
L 98.311376 165.827107 
L 113.750111 165.895337 
L 129.188846 165.917695 
L 144.627582 165.911145 
L 160.066317 165.918401 
L 175.505052 165.931503 
L 190.943787 165.94454 
L 206.382522 165.943615 
L 221.821257 165.922611 
L 237.259993 165.796273 
L 252.698728 165.184623 
L 268.137463 139.247483 
L 283.576198 152.02806 
L 299.014933 150.710536 
L 314.453668 122.109084 
L 329.892404 128.696133 
L 345.331139 157.068715 
L 360.769874 148.482059 
L 376.208609 157.578777 
L 391.647344 164.976547 
L 407.08608 165.624679 
" style="fill:none;stroke:#1b9e77;stroke-linecap:square;stroke-opacity:0.5;stroke-width:1.5;"/>
   </g>
   <g id="line2d_31">
    <path clip-path="url(#p7a5b3729e4)" d="M 51.99517 148.757919 
L 67.433906 150.559059 
L 82.872641 158.206405 
L 98.311376 164.03382 
L 113.750111 164.831404 
L 129.188846 165.307851 
L 144.627582 164.986453 
L 160.066317 160.777235 
L 175.505052 153.360965 
L 190.943787 146.123097 
L 206.382522 156.693712 
L 221.821257 160.359196 
L 237.259993 159.821128 
L 252.698728 136.982321 
L 268.137463 157.410805 
L 283.576198 161.512657 
L 299.014933 160.058006 
L 314.453668 158.545347 
L 329.892404 158.891967 
L 345.331139 164.469754 
L 360.769874 163.807151 
L 376.208609 163.517624 
L 391.647344 163.695585 
L 407.08608 164.997206 
" style="fill:none;stroke:#1b9e77;stroke-linecap:square;stroke-opacity:0.5;stroke-width:1.5;"/>
   </g>
   <g id="line2d_32">
    <path clip-path="url(#p7a5b3729e4)" d="M 51.99517 165.604471 
L 67.433906 164.808661 
L 82.872641 143.825093 
L 98.311376 154.74247 
L 113.750111 112.578278 
L 129.188846 94.346362 
L 144.627582 154.452842 
L 160.066317 165.606473 
L 175.505052 164.866755 
L 190.943787 165.272632 
L 206.382522 165.280858 
L 221.821257 165.756828 
L 237.259993 165.708447 
L 252.698728 165.740304 
L 268.137463 165.822944 
L 283.576198 165.891134 
L 299.014933 165.902203 
L 314.453668 165.901102 
L 329.892404 165.901235 
L 345.331139 165.92354 
L 360.769874 165.939936 
L 376.208609 165.952519 
L 391.647344 165.954686 
L 407.08608 165.926898 
" style="fill:none;stroke:#1b9e77;stroke-linecap:square;stroke-opacity:0.5;stroke-width:1.5;"/>
   </g>
   <g id="line2d_33">
    <path clip-path="url(#p7a5b3729e4)" d="M 51.99517 160.695654 
L 67.433906 160.855275 
L 82.872641 143.255839 
L 98.311376 156.688565 
L 113.750111 135.357698 
L 129.188846 159.500834 
L 144.627582 164.025042 
L 160.066317 163.489149 
L 175.505052 161.528671 
L 190.943787 164.400282 
L 206.382522 165.348331 
L 221.821257 165.504361 
L 237.259993 165.362113 
L 252.698728 164.294433 
L 268.137463 164.782839 
L 283.576198 162.852312 
L 299.014933 144.91498 
L 314.453668 134.208396 
L 329.892404 159.329588 
L 345.331139 163.465047 
L 360.769874 163.305477 
L 376.208609 162.966312 
L 391.647344 162.485281 
L 407.08608 159.090187 
" style="fill:none;stroke:#1b9e77;stroke-linecap:square;stroke-opacity:0.5;stroke-width:1.5;"/>
   </g>
   <g id="line2d_34">
    <path clip-path="url(#p7a5b3729e4)" d="M 51.99517 148.396018 
L 67.433906 161.715399 
L 82.872641 164.77334 
L 98.311376 132.806529 
L 113.750111 157.123854 
L 129.188846 107.149103 
L 144.627582 152.005045 
L 160.066317 157.024631 
L 175.505052 157.912462 
L 190.943787 161.066209 
L 206.382522 163.483875 
L 221.821257 165.027482 
L 237.259993 165.526141 
L 252.698728 165.790421 
L 268.137463 165.849076 
L 283.576198 165.922497 
L 299.014933 165.919107 
L 314.453668 165.75046 
L 329.892404 165.807466 
L 345.331139 165.791832 
L 360.769874 165.530878 
L 376.208609 165.765343 
L 391.647344 165.827385 
L 407.08608 155.742115 
" style="fill:none;stroke:#1b9e77;stroke-linecap:square;stroke-opacity:0.5;stroke-width:1.5;"/>
   </g>
   <g id="line2d_35">
    <path clip-path="url(#p7a5b3729e4)" d="M 51.99517 164.267941 
L 67.433906 150.575045 
L 82.872641 121.918133 
L 98.311376 93.552492 
L 113.750111 145.076037 
L 129.188846 159.339208 
L 144.627582 161.805728 
L 160.066317 163.136455 
L 175.505052 164.185293 
L 190.943787 164.979215 
L 206.382522 165.340053 
L 221.821257 165.602557 
L 237.259993 165.695179 
L 252.698728 165.830288 
L 268.137463 165.888012 
L 283.576198 165.912489 
L 299.014933 165.918496 
L 314.453668 165.929405 
L 329.892404 165.932235 
L 345.331139 165.924137 
L 360.769874 165.903853 
L 376.208609 165.913671 
L 391.647344 165.714596 
L 407.08608 163.366151 
" style="fill:none;stroke:#1b9e77;stroke-linecap:square;stroke-opacity:0.5;stroke-width:1.5;"/>
   </g>
   <g id="line2d_36">
    <path clip-path="url(#p7a5b3729e4)" d="M 51.99517 137.726289 
L 67.433906 141.491767 
L 82.872641 149.996111 
L 98.311376 159.256609 
L 113.750111 160.951023 
L 129.188846 162.762855 
L 144.627582 163.549648 
L 160.066317 164.0277 
L 175.505052 163.985641 
L 190.943787 164.200312 
L 206.382522 164.427441 
L 221.821257 163.450253 
L 237.259993 162.097306 
L 252.698728 160.399198 
L 268.137463 161.63564 
L 283.576198 162.854322 
L 299.014933 163.17546 
L 314.453668 163.07281 
L 329.892404 163.115827 
L 345.331139 164.85294 
L 360.769874 165.543475 
L 376.208609 165.812618 
L 391.647344 165.472422 
L 407.08608 113.848998 
" style="fill:none;stroke:#1b9e77;stroke-linecap:square;stroke-opacity:0.5;stroke-width:1.5;"/>
   </g>
   <g id="line2d_37">
    <path clip-path="url(#p7a5b3729e4)" d="M 51.99517 165.861521 
L 67.433906 165.303397 
L 82.872641 161.497276 
L 98.311376 137.931044 
L 113.750111 161.860071 
L 129.188846 165.714494 
L 144.627582 165.791548 
L 160.066317 165.860792 
L 175.505052 165.848163 
L 190.943787 165.877166 
L 206.382522 165.885365 
L 221.821257 165.90199 
L 237.259993 165.596068 
L 252.698728 159.494836 
L 268.137463 155.398408 
L 283.576198 153.943363 
L 299.014933 148.047262 
L 314.453668 125.100796 
L 329.892404 157.831039 
L 345.331139 154.426614 
L 360.769874 158.403492 
L 376.208609 149.616916 
L 391.647344 160.789793 
L 407.08608 165.725251 
" style="fill:none;stroke:#1b9e77;stroke-linecap:square;stroke-opacity:0.5;stroke-width:1.5;"/>
   </g>
   <g id="line2d_38">
    <path clip-path="url(#p7a5b3729e4)" d="M 51.99517 165.642115 
L 67.433906 165.489973 
L 82.872641 165.098455 
L 98.311376 155.994358 
L 113.750111 163.455232 
L 129.188846 156.435116 
L 144.627582 152.992427 
L 160.066317 165.529734 
L 175.505052 165.514229 
L 190.943787 153.168529 
L 206.382522 141.66091 
L 221.821257 139.308902 
L 237.259993 135.649559 
L 252.698728 134.989297 
L 268.137463 161.108384 
L 283.576198 164.153578 
L 299.014933 165.270779 
L 314.453668 163.924363 
L 329.892404 165.097972 
L 345.331139 165.817206 
L 360.769874 165.871587 
L 376.208609 165.615694 
L 391.647344 164.046574 
L 407.08608 165.871691 
" style="fill:none;stroke:#1b9e77;stroke-linecap:square;stroke-opacity:0.5;stroke-width:1.5;"/>
   </g>
   <g id="line2d_39">
    <path clip-path="url(#p7a5b3729e4)" d="M 51.99517 165.766984 
L 67.433906 164.991977 
L 82.872641 163.953401 
L 98.311376 130.233775 
L 113.750111 165.552051 
L 129.188846 162.175584 
L 144.627582 119.214512 
L 160.066317 154.917245 
L 175.505052 144.465092 
L 190.943787 161.836179 
L 206.382522 161.301434 
L 221.821257 163.429816 
L 237.259993 161.859632 
L 252.698728 146.303602 
L 268.137463 161.259645 
L 283.576198 156.775637 
L 299.014933 162.736102 
L 314.453668 165.361998 
L 329.892404 165.890298 
L 345.331139 165.924247 
L 360.769874 165.93251 
L 376.208609 165.952202 
L 391.647344 165.953219 
L 407.08608 165.919521 
" style="fill:none;stroke:#1b9e77;stroke-linecap:square;stroke-opacity:0.5;stroke-width:1.5;"/>
   </g>
   <g id="line2d_40">
    <path clip-path="url(#p7a5b3729e4)" d="M 51.99517 153.784536 
L 67.433906 104.171581 
L 82.872641 134.009801 
L 98.311376 143.506154 
L 113.750111 151.556957 
L 129.188846 158.146614 
L 144.627582 161.557634 
L 160.066317 163.682038 
L 175.505052 164.043169 
L 190.943787 164.595608 
L 206.382522 165.040926 
L 221.821257 165.495477 
L 237.259993 165.718605 
L 252.698728 165.873741 
L 268.137463 165.914272 
L 283.576198 165.922377 
L 299.014933 165.918357 
L 314.453668 165.927343 
L 329.892404 165.924048 
L 345.331139 165.899864 
L 360.769874 165.860506 
L 376.208609 165.831992 
L 391.647344 165.705367 
L 407.08608 153.619701 
" style="fill:none;stroke:#1b9e77;stroke-linecap:square;stroke-opacity:0.5;stroke-width:1.5;"/>
   </g>
   <g id="line2d_41">
    <path clip-path="url(#p7a5b3729e4)" d="M 51.99517 118.606879 
L 67.433906 130.094173 
L 82.872641 148.956612 
L 98.311376 162.830639 
L 113.750111 164.658513 
L 129.188846 164.753383 
L 144.627582 163.847153 
L 160.066317 163.643869 
L 175.505052 164.041661 
L 190.943787 164.895631 
L 206.382522 165.045889 
L 221.821257 164.491325 
L 237.259993 162.799924 
L 252.698728 160.989191 
L 268.137463 163.60521 
L 283.576198 163.945853 
L 299.014933 164.290361 
L 314.453668 160.774881 
L 329.892404 154.142873 
L 345.331139 155.305898 
L 360.769874 159.256628 
L 376.208609 164.550297 
L 391.647344 165.338965 
L 407.08608 156.840855 
" style="fill:none;stroke:#1b9e77;stroke-linecap:square;stroke-opacity:0.5;stroke-width:1.5;"/>
   </g>
   <g id="line2d_42">
    <path clip-path="url(#p7a5b3729e4)" d="M 51.99517 145.197973 
L 67.433906 147.126543 
L 82.872641 152.23892 
L 98.311376 161.205564 
L 113.750111 163.318068 
L 129.188846 165.163721 
L 144.627582 165.553838 
L 160.066317 165.686983 
L 175.505052 162.506563 
L 190.943787 160.679278 
L 206.382522 163.367967 
L 221.821257 161.913498 
L 237.259993 147.467977 
L 252.698728 109.130766 
L 268.137463 156.196917 
L 283.576198 164.768576 
L 299.014933 164.021102 
L 314.453668 164.503463 
L 329.892404 165.251608 
L 345.331139 165.098644 
L 360.769874 164.203449 
L 376.208609 164.329927 
L 391.647344 165.132753 
L 407.08608 163.642569 
" style="fill:none;stroke:#1b9e77;stroke-linecap:square;stroke-opacity:0.5;stroke-width:1.5;"/>
   </g>
   <g id="line2d_43">
    <path clip-path="url(#p7a5b3729e4)" d="M 51.99517 164.393492 
L 67.433906 163.26916 
L 82.872641 164.157466 
L 98.311376 163.922347 
L 113.750111 163.902037 
L 129.188846 157.014466 
L 144.627582 153.512711 
L 160.066317 148.669319 
L 175.505052 144.102794 
L 190.943787 145.330417 
L 206.382522 149.145133 
L 221.821257 144.170377 
L 237.259993 148.561204 
L 252.698728 146.766794 
L 268.137463 159.728254 
L 283.576198 164.772473 
L 299.014933 165.617408 
L 314.453668 165.581283 
L 329.892404 165.772526 
L 345.331139 165.846941 
L 360.769874 165.870039 
L 376.208609 165.942397 
L 391.647344 165.913401 
L 407.08608 165.744222 
" style="fill:none;stroke:#1b9e77;stroke-linecap:square;stroke-opacity:0.5;stroke-width:1.5;"/>
   </g>
   <g id="line2d_44">
    <path clip-path="url(#p7a5b3729e4)" d="M 51.99517 165.825823 
L 67.433906 149.652278 
L 82.872641 152.49844 
L 98.311376 83.0122 
L 113.750111 148.854656 
L 129.188846 165.063178 
L 144.627582 165.199149 
L 160.066317 163.496201 
L 175.505052 154.95216 
L 190.943787 165.288376 
L 206.382522 165.422054 
L 221.821257 165.236045 
L 237.259993 156.789019 
L 252.698728 150.893042 
L 268.137463 163.170248 
L 283.576198 165.72611 
L 299.014933 165.768517 
L 314.453668 165.569107 
L 329.892404 165.883663 
L 345.331139 165.912847 
L 360.769874 165.904123 
L 376.208609 165.942284 
L 391.647344 165.94691 
L 407.08608 165.700231 
" style="fill:none;stroke:#1b9e77;stroke-linecap:square;stroke-opacity:0.5;stroke-width:1.5;"/>
   </g>
   <g id="line2d_45">
    <path clip-path="url(#p7a5b3729e4)" d="M 51.99517 165.708611 
L 67.433906 165.397117 
L 82.872641 165.530164 
L 98.311376 165.802632 
L 113.750111 165.873754 
L 129.188846 165.902707 
L 144.627582 165.89926 
L 160.066317 165.888505 
L 175.505052 165.87972 
L 190.943787 165.89943 
L 206.382522 165.907759 
L 221.821257 165.878924 
L 237.259993 165.799604 
L 252.698728 165.830428 
L 268.137463 165.806137 
L 283.576198 158.031752 
L 299.014933 149.752425 
L 314.453668 159.033191 
L 329.892404 154.859425 
L 345.331139 140.142351 
L 360.769874 144.117914 
L 376.208609 132.843885 
L 391.647344 122.424405 
L 407.08608 159.49657 
" style="fill:none;stroke:#1b9e77;stroke-linecap:square;stroke-opacity:0.5;stroke-width:1.5;"/>
   </g>
   <g id="line2d_46">
    <path clip-path="url(#p7a5b3729e4)" d="M 51.99517 159.805175 
L 67.433906 153.023333 
L 82.872641 146.125695 
L 98.311376 149.006401 
L 113.750111 147.293066 
L 129.188846 161.228469 
L 144.627582 165.068087 
L 160.066317 165.221297 
L 175.505052 164.897958 
L 190.943787 165.236537 
L 206.382522 164.287271 
L 221.821257 109.312488 
L 237.259993 143.553147 
L 252.698728 165.094056 
L 268.137463 164.67697 
L 283.576198 164.570789 
L 299.014933 164.514436 
L 314.453668 164.660917 
L 329.892404 164.73186 
L 345.331139 165.120381 
L 360.769874 165.350424 
L 376.208609 165.348333 
L 391.647344 164.922975 
L 407.08608 164.656602 
" style="fill:none;stroke:#1b9e77;stroke-linecap:square;stroke-opacity:0.5;stroke-width:1.5;"/>
   </g>
   <g id="line2d_47">
    <path clip-path="url(#p7a5b3729e4)" d="M 51.99517 154.89846 
L 67.433906 138.090801 
L 82.872641 157.67723 
L 98.311376 163.853172 
L 113.750111 163.758171 
L 129.188846 164.532707 
L 144.627582 165.506116 
L 160.066317 165.764982 
L 175.505052 165.737899 
L 190.943787 165.773481 
L 206.382522 165.823937 
L 221.821257 165.918059 
L 237.259993 165.947012 
L 252.698728 165.950858 
L 268.137463 165.941877 
L 283.576198 165.936256 
L 299.014933 165.929752 
L 314.453668 163.988025 
L 329.892404 121.519235 
L 345.331139 126.441912 
L 360.769874 163.118897 
L 376.208609 158.279436 
L 391.647344 157.901031 
L 407.08608 149.417367 
" style="fill:none;stroke:#1b9e77;stroke-linecap:square;stroke-opacity:0.5;stroke-width:1.5;"/>
   </g>
   <g id="line2d_48">
    <path clip-path="url(#p7a5b3729e4)" d="M 51.99517 157.43491 
L 67.433906 157.266549 
L 82.872641 155.981361 
L 98.311376 163.315964 
L 113.750111 157.495442 
L 129.188846 159.083463 
L 144.627582 156.389023 
L 160.066317 159.080958 
L 175.505052 147.225777 
L 190.943787 120.724126 
L 206.382522 134.328947 
L 221.821257 151.296769 
L 237.259993 163.049607 
L 252.698728 165.743354 
L 268.137463 165.8738 
L 283.576198 165.899038 
L 299.014933 165.898001 
L 314.453668 165.918435 
L 329.892404 165.93234 
L 345.331139 165.945097 
L 360.769874 165.948753 
L 376.208609 165.957091 
L 391.647344 165.96 
L 407.08608 165.95786 
" style="fill:none;stroke:#1b9e77;stroke-linecap:square;stroke-opacity:0.5;stroke-width:1.5;"/>
   </g>
   <g id="line2d_49">
    <path clip-path="url(#p7a5b3729e4)" d="M 51.99517 157.770358 
L 67.433906 156.639583 
L 82.872641 155.896372 
L 98.311376 139.955906 
L 113.750111 155.876792 
L 129.188846 160.32808 
L 144.627582 164.909543 
L 160.066317 165.423142 
L 175.505052 163.802461 
L 190.943787 141.24832 
L 206.382522 157.252089 
L 221.821257 144.9743 
L 237.259993 147.725921 
L 252.698728 159.775287 
L 268.137463 161.948517 
L 283.576198 156.409225 
L 299.014933 157.899525 
L 314.453668 164.982797 
L 329.892404 165.653376 
L 345.331139 165.752709 
L 360.769874 165.769173 
L 376.208609 165.885362 
L 391.647344 165.918563 
L 407.08608 165.909269 
" style="fill:none;stroke:#1b9e77;stroke-linecap:square;stroke-opacity:0.5;stroke-width:1.5;"/>
   </g>
   <g id="line2d_50">
    <path clip-path="url(#p7a5b3729e4)" d="M 51.99517 165.606237 
L 67.433906 162.948821 
L 82.872641 162.596884 
L 98.311376 163.053224 
L 113.750111 164.88901 
L 129.188846 165.196829 
L 144.627582 165.425432 
L 160.066317 165.667848 
L 175.505052 165.744565 
L 190.943787 165.781654 
L 206.382522 165.789734 
L 221.821257 165.876046 
L 237.259993 165.927289 
L 252.698728 165.946323 
L 268.137463 165.947323 
L 283.576198 165.944084 
L 299.014933 165.916915 
L 314.453668 165.580956 
L 329.892404 156.589376 
L 345.331139 140.456006 
L 360.769874 136.722157 
L 376.208609 134.177882 
L 391.647344 112.875499 
L 407.08608 153.046572 
" style="fill:none;stroke:#1b9e77;stroke-linecap:square;stroke-opacity:0.5;stroke-width:1.5;"/>
   </g>
   <g id="line2d_51">
    <path clip-path="url(#p7a5b3729e4)" d="M 51.99517 165.895026 
L 67.433906 165.660275 
L 82.872641 165.560109 
L 98.311376 165.503939 
L 113.750111 165.548378 
L 129.188846 165.767313 
L 144.627582 165.841827 
L 160.066317 165.87487 
L 175.505052 165.868707 
L 190.943787 165.8869 
L 206.382522 165.876353 
L 221.821257 165.864244 
L 237.259993 165.062265 
L 252.698728 157.948901 
L 268.137463 126.263267 
L 283.576198 117.720125 
L 299.014933 135.517651 
L 314.453668 130.021212 
L 329.892404 158.476567 
L 345.331139 165.554784 
L 360.769874 165.353754 
L 376.208609 165.588787 
L 391.647344 165.603222 
L 407.08608 165.448193 
" style="fill:none;stroke:#1b9e77;stroke-linecap:square;stroke-opacity:0.5;stroke-width:1.5;"/>
   </g>
   <g id="line2d_52">
    <path clip-path="url(#p7a5b3729e4)" d="M 51.99517 165.296343 
L 67.433906 164.074842 
L 82.872641 164.004701 
L 98.311376 164.768617 
L 113.750111 164.9509 
L 129.188846 165.309214 
L 144.627582 165.469675 
L 160.066317 165.45273 
L 175.505052 165.163493 
L 190.943787 165.319073 
L 206.382522 165.577286 
L 221.821257 165.674477 
L 237.259993 165.684885 
L 252.698728 165.770188 
L 268.137463 165.858213 
L 283.576198 165.905836 
L 299.014933 165.907722 
L 314.453668 165.917772 
L 329.892404 165.872475 
L 345.331139 165.444818 
L 360.769874 149.570188 
L 376.208609 115.503854 
L 391.647344 92.552903 
L 407.08608 142.656454 
" style="fill:none;stroke:#1b9e77;stroke-linecap:square;stroke-opacity:0.5;stroke-width:1.5;"/>
   </g>
   <g id="line2d_53">
    <path clip-path="url(#p7a5b3729e4)" d="M 51.99517 164.918691 
L 67.433906 162.542126 
L 82.872641 163.317303 
L 98.311376 163.951892 
L 113.750111 164.526497 
L 129.188846 165.255771 
L 144.627582 165.535732 
L 160.066317 165.762501 
L 175.505052 165.803313 
L 190.943787 165.833435 
L 206.382522 165.717108 
L 221.821257 163.885843 
L 237.259993 147.760313 
L 252.698728 92.067976 
L 268.137463 153.732406 
L 283.576198 157.497242 
L 299.014933 161.592934 
L 314.453668 133.915343 
L 329.892404 159.890902 
L 345.331139 165.691974 
L 360.769874 165.811743 
L 376.208609 163.127774 
L 391.647344 163.893767 
L 407.08608 165.67408 
" style="fill:none;stroke:#1b9e77;stroke-linecap:square;stroke-opacity:0.5;stroke-width:1.5;"/>
   </g>
   <g id="line2d_54">
    <path clip-path="url(#p7a5b3729e4)" d="M 51.99517 165.80324 
L 67.433906 164.899802 
L 82.872641 164.979963 
L 98.311376 165.114077 
L 113.750111 165.377291 
L 129.188846 165.592133 
L 144.627582 165.701426 
L 160.066317 165.79366 
L 175.505052 165.783174 
L 190.943787 165.822984 
L 206.382522 165.86128 
L 221.821257 165.922758 
L 237.259993 165.945905 
L 252.698728 165.95429 
L 268.137463 165.947211 
L 283.576198 164.901609 
L 299.014933 159.123938 
L 314.453668 154.670093 
L 329.892404 149.637616 
L 345.331139 143.905754 
L 360.769874 104.25765 
L 376.208609 133.484044 
L 391.647344 150.299936 
L 407.08608 162.926829 
" style="fill:none;stroke:#1b9e77;stroke-linecap:square;stroke-opacity:0.5;stroke-width:1.5;"/>
   </g>
   <g id="line2d_55">
    <path clip-path="url(#p7a5b3729e4)" d="M 51.99517 165.884439 
L 67.433906 165.638166 
L 82.872641 165.693903 
L 98.311376 165.788513 
L 113.750111 165.806609 
L 129.188846 165.850055 
L 144.627582 165.875071 
L 160.066317 165.901267 
L 175.505052 165.906748 
L 190.943787 165.924796 
L 206.382522 165.936111 
L 221.821257 165.944299 
L 237.259993 165.942252 
L 252.698728 165.936056 
L 268.137463 165.29504 
L 283.576198 154.611372 
L 299.014933 160.748815 
L 314.453668 155.757343 
L 329.892404 137.999979 
L 345.331139 140.892318 
L 360.769874 127.016557 
L 376.208609 127.270192 
L 391.647344 151.371892 
L 407.08608 164.714874 
" style="fill:none;stroke:#1b9e77;stroke-linecap:square;stroke-opacity:0.5;stroke-width:1.5;"/>
   </g>
   <g id="line2d_56">
    <path clip-path="url(#p7a5b3729e4)" d="M 51.99517 165.855658 
L 67.433906 165.642262 
L 82.872641 165.661342 
L 98.311376 165.797225 
L 113.750111 165.842871 
L 129.188846 165.92049 
L 144.627582 165.934457 
L 160.066317 165.913382 
L 175.505052 165.743056 
L 190.943787 164.437425 
L 206.382522 134.89766 
L 221.821257 141.568897 
L 237.259993 142.787329 
L 252.698728 122.021724 
L 268.137463 137.429899 
L 283.576198 152.139559 
L 299.014933 163.017313 
L 314.453668 163.836658 
L 329.892404 164.909037 
L 345.331139 165.401678 
L 360.769874 165.527145 
L 376.208609 165.738522 
L 391.647344 165.773216 
L 407.08608 165.90986 
" style="fill:none;stroke:#1b9e77;stroke-linecap:square;stroke-opacity:0.5;stroke-width:1.5;"/>
   </g>
   <g id="line2d_57">
    <path clip-path="url(#p7a5b3729e4)" d="M 51.99517 161.559854 
L 67.433906 154.99663 
L 82.872641 154.887536 
L 98.311376 152.613214 
L 113.750111 151.392601 
L 129.188846 161.178949 
L 144.627582 164.744094 
L 160.066317 165.301661 
L 175.505052 165.329574 
L 190.943787 164.929843 
L 206.382522 165.145889 
L 221.821257 165.491219 
L 237.259993 163.933259 
L 252.698728 147.163142 
L 268.137463 149.115118 
L 283.576198 137.72081 
L 299.014933 146.793805 
L 314.453668 154.322965 
L 329.892404 161.390256 
L 345.331139 163.934587 
L 360.769874 161.085566 
L 376.208609 163.393331 
L 391.647344 165.605751 
L 407.08608 165.677014 
" style="fill:none;stroke:#1b9e77;stroke-linecap:square;stroke-opacity:0.5;stroke-width:1.5;"/>
   </g>
   <g id="line2d_58">
    <path clip-path="url(#p7a5b3729e4)" d="M 51.99517 156.130277 
L 67.433906 153.936933 
L 82.872641 157.85744 
L 98.311376 162.682405 
L 113.750111 163.981565 
L 129.188846 164.748409 
L 144.627582 165.139365 
L 160.066317 165.633866 
L 175.505052 165.801068 
L 190.943787 165.857446 
L 206.382522 165.852161 
L 221.821257 165.831095 
L 237.259993 165.805216 
L 252.698728 165.823254 
L 268.137463 165.74375 
L 283.576198 165.154976 
L 299.014933 164.656621 
L 314.453668 165.236886 
L 329.892404 164.752019 
L 345.331139 159.610203 
L 360.769874 151.503363 
L 376.208609 150.823556 
L 391.647344 139.081431 
L 407.08608 96.063363 
" style="fill:none;stroke:#1b9e77;stroke-linecap:square;stroke-opacity:0.5;stroke-width:1.5;"/>
   </g>
   <g id="line2d_59">
    <path clip-path="url(#p7a5b3729e4)" d="M 51.99517 164.879657 
L 67.433906 165.156242 
L 82.872641 160.478319 
L 98.311376 154.535429 
L 113.750111 14.76 
L 129.188846 164.474383 
L 144.627582 165.825246 
L 160.066317 165.828468 
L 175.505052 165.72569 
L 190.943787 165.410234 
L 206.382522 165.89903 
L 221.821257 165.357565 
L 237.259993 165.751618 
L 252.698728 165.323822 
L 268.137463 165.595133 
L 283.576198 165.70649 
L 299.014933 165.73591 
L 314.453668 165.788627 
L 329.892404 165.835056 
L 345.331139 165.89384 
L 360.769874 165.926673 
L 376.208609 165.954015 
L 391.647344 165.957326 
L 407.08608 165.907892 
" style="fill:none;stroke:#1b9e77;stroke-linecap:square;stroke-opacity:0.5;stroke-width:1.5;"/>
   </g>
   <g id="line2d_60">
    <path clip-path="url(#p7a5b3729e4)" d="M 51.99517 164.916166 
L 67.433906 160.485027 
L 82.872641 162.636801 
L 98.311376 164.306486 
L 113.750111 164.853396 
L 129.188846 165.44006 
L 144.627582 165.674234 
L 160.066317 165.793998 
L 175.505052 165.796684 
L 190.943787 165.846398 
L 206.382522 165.888706 
L 221.821257 165.902429 
L 237.259993 165.910734 
L 252.698728 165.918488 
L 268.137463 165.922609 
L 283.576198 165.923235 
L 299.014933 165.823297 
L 314.453668 165.675811 
L 329.892404 162.894203 
L 345.331139 158.771379 
L 360.769874 127.241082 
L 376.208609 108.656025 
L 391.647344 122.237622 
L 407.08608 155.1918 
" style="fill:none;stroke:#1b9e77;stroke-linecap:square;stroke-opacity:0.5;stroke-width:1.5;"/>
   </g>
   <g id="line2d_61">
    <path clip-path="url(#p7a5b3729e4)" d="M 51.99517 165.904046 
L 67.433906 165.791025 
L 82.872641 165.814337 
L 98.311376 165.866925 
L 113.750111 165.878179 
L 129.188846 165.922387 
L 144.627582 165.941773 
L 160.066317 165.951577 
L 175.505052 165.939904 
L 190.943787 165.824524 
L 206.382522 153.783294 
L 221.821257 154.707402 
L 237.259993 161.392674 
L 252.698728 158.924847 
L 268.137463 156.143336 
L 283.576198 155.826712 
L 299.014933 152.450405 
L 314.453668 143.119608 
L 329.892404 150.824226 
L 345.331139 156.758887 
L 360.769874 157.693345 
L 376.208609 133.568486 
L 391.647344 149.67917 
L 407.08608 163.999597 
" style="fill:none;stroke:#1b9e77;stroke-linecap:square;stroke-opacity:0.5;stroke-width:1.5;"/>
   </g>
   <g id="line2d_62">
    <path clip-path="url(#p7a5b3729e4)" d="M 51.99517 148.967631 
L 67.433906 158.99172 
L 82.872641 154.729842 
L 98.311376 139.025961 
L 113.750111 154.544466 
L 129.188846 104.078233 
L 144.627582 149.324817 
L 160.066317 158.903347 
L 175.505052 159.933202 
L 190.943787 162.30231 
L 206.382522 164.105699 
L 221.821257 164.97682 
L 237.259993 165.301293 
L 252.698728 165.362456 
L 268.137463 165.339345 
L 283.576198 165.464548 
L 299.014933 165.538842 
L 314.453668 165.672357 
L 329.892404 165.762011 
L 345.331139 165.83919 
L 360.769874 165.879871 
L 376.208609 165.945091 
L 391.647344 165.954038 
L 407.08608 165.763575 
" style="fill:none;stroke:#1b9e77;stroke-linecap:square;stroke-opacity:0.5;stroke-width:1.5;"/>
   </g>
   <g id="line2d_63">
    <path clip-path="url(#p7a5b3729e4)" d="M 51.99517 165.926373 
L 67.433906 165.912799 
L 82.872641 165.935744 
L 98.311376 165.947265 
L 113.750111 165.936422 
L 129.188846 165.938576 
L 144.627582 163.737558 
L 160.066317 158.406893 
L 175.505052 160.843244 
L 190.943787 156.211053 
L 206.382522 150.023062 
L 221.821257 151.482282 
L 237.259993 157.00929 
L 252.698728 145.02181 
L 268.137463 164.122113 
L 283.576198 164.279003 
L 299.014933 163.937867 
L 314.453668 145.665585 
L 329.892404 124.847335 
L 345.331139 149.256655 
L 360.769874 163.637579 
L 376.208609 164.449983 
L 391.647344 164.5465 
L 407.08608 164.631679 
" style="fill:none;stroke:#1b9e77;stroke-linecap:square;stroke-opacity:0.5;stroke-width:1.5;"/>
   </g>
   <g id="line2d_64">
    <path clip-path="url(#p7a5b3729e4)" d="M 51.99517 165.907402 
L 67.433906 165.729469 
L 82.872641 165.800386 
L 98.311376 165.872692 
L 113.750111 165.885553 
L 129.188846 165.910426 
L 144.627582 165.926335 
L 160.066317 165.940805 
L 175.505052 165.942764 
L 190.943787 165.945107 
L 206.382522 165.941366 
L 221.821257 165.879978 
L 237.259993 165.662487 
L 252.698728 164.206071 
L 268.137463 151.308048 
L 283.576198 126.01293 
L 299.014933 144.309243 
L 314.453668 156.262071 
L 329.892404 154.381624 
L 345.331139 146.828975 
L 360.769874 114.504681 
L 376.208609 163.635303 
L 391.647344 164.439011 
L 407.08608 165.47394 
" style="fill:none;stroke:#1b9e77;stroke-linecap:square;stroke-opacity:0.5;stroke-width:1.5;"/>
   </g>
   <g id="line2d_65">
    <path clip-path="url(#p7a5b3729e4)" d="M 51.99517 165.896746 
L 67.433906 165.817429 
L 82.872641 165.796717 
L 98.311376 165.807048 
L 113.750111 165.741359 
L 129.188846 165.851027 
L 144.627582 165.707511 
L 160.066317 161.973058 
L 175.505052 158.518043 
L 190.943787 164.09325 
L 206.382522 128.61506 
L 221.821257 96.351008 
L 237.259993 157.136271 
L 252.698728 162.057552 
L 268.137463 158.476442 
L 283.576198 142.541696 
L 299.014933 164.875041 
L 314.453668 165.840597 
L 329.892404 165.90372 
L 345.331139 165.791097 
L 360.769874 165.501673 
L 376.208609 165.691316 
L 391.647344 165.90391 
L 407.08608 157.819098 
" style="fill:none;stroke:#1b9e77;stroke-linecap:square;stroke-opacity:0.5;stroke-width:1.5;"/>
   </g>
   <g id="line2d_66">
    <path clip-path="url(#p7a5b3729e4)" d="M 51.99517 165.793993 
L 67.433906 165.505496 
L 82.872641 165.669127 
L 98.311376 165.711332 
L 113.750111 165.349678 
L 129.188846 165.698032 
L 144.627582 161.855315 
L 160.066317 144.391052 
L 175.505052 143.388822 
L 190.943787 134.67944 
L 206.382522 139.405145 
L 221.821257 155.566927 
L 237.259993 160.50383 
L 252.698728 124.593913 
L 268.137463 162.032546 
L 283.576198 164.800225 
L 299.014933 165.036295 
L 314.453668 165.109746 
L 329.892404 165.391327 
L 345.331139 165.476186 
L 360.769874 165.56571 
L 376.208609 165.673196 
L 391.647344 165.573977 
L 407.08608 164.93536 
" style="fill:none;stroke:#1b9e77;stroke-linecap:square;stroke-opacity:0.5;stroke-width:1.5;"/>
   </g>
   <g id="line2d_67">
    <path clip-path="url(#p7a5b3729e4)" d="M 51.99517 162.92359 
L 67.433906 158.624169 
L 82.872641 157.208741 
L 98.311376 161.531444 
L 113.750111 163.065651 
L 129.188846 164.940084 
L 144.627582 165.535631 
L 160.066317 165.570453 
L 175.505052 165.375319 
L 190.943787 165.525281 
L 206.382522 165.712683 
L 221.821257 165.713925 
L 237.259993 165.652584 
L 252.698728 165.61443 
L 268.137463 165.706573 
L 283.576198 165.81595 
L 299.014933 165.842413 
L 314.453668 165.854829 
L 329.892404 165.814203 
L 345.331139 165.107903 
L 360.769874 156.43 
L 376.208609 154.284557 
L 391.647344 121.140754 
L 407.08608 88.715497 
" style="fill:none;stroke:#1b9e77;stroke-linecap:square;stroke-opacity:0.5;stroke-width:1.5;"/>
   </g>
   <g id="line2d_68">
    <path clip-path="url(#p7a5b3729e4)" d="M 51.99517 164.146886 
L 67.433906 162.740992 
L 82.872641 158.009045 
L 98.311376 158.874363 
L 113.750111 147.246685 
L 129.188846 154.388089 
L 144.627582 164.254637 
L 160.066317 165.860837 
L 175.505052 165.715487 
L 190.943787 165.698819 
L 206.382522 165.334327 
L 221.821257 161.424374 
L 237.259993 165.533053 
L 252.698728 165.618729 
L 268.137463 163.803615 
L 283.576198 121.717327 
L 299.014933 160.204112 
L 314.453668 138.546524 
L 329.892404 148.650865 
L 345.331139 160.745232 
L 360.769874 159.431407 
L 376.208609 160.3782 
L 391.647344 163.77161 
L 407.08608 165.611453 
" style="fill:none;stroke:#1b9e77;stroke-linecap:square;stroke-opacity:0.5;stroke-width:1.5;"/>
   </g>
   <g id="line2d_69">
    <path clip-path="url(#p7a5b3729e4)" d="M 51.99517 165.741834 
L 67.433906 165.4229 
L 82.872641 165.539811 
L 98.311376 165.808173 
L 113.750111 165.890654 
L 129.188846 165.935674 
L 144.627582 165.943471 
L 160.066317 165.944381 
L 175.505052 165.933357 
L 190.943787 165.925893 
L 206.382522 165.844014 
L 221.821257 165.257644 
L 237.259993 165.118842 
L 252.698728 165.449035 
L 268.137463 162.958805 
L 283.576198 152.215553 
L 299.014933 146.311308 
L 314.453668 160.429293 
L 329.892404 164.789725 
L 345.331139 158.033263 
L 360.769874 117.518956 
L 376.208609 149.177256 
L 391.647344 157.625148 
L 407.08608 118.891678 
" style="fill:none;stroke:#1b9e77;stroke-linecap:square;stroke-opacity:0.5;stroke-width:1.5;"/>
   </g>
   <g id="line2d_70">
    <path clip-path="url(#p7a5b3729e4)" d="M 51.99517 149.337921 
L 67.433906 163.147914 
L 82.872641 164.485865 
L 98.311376 164.744816 
L 113.750111 163.786255 
L 129.188846 164.763179 
L 144.627582 154.92432 
L 160.066317 123.990791 
L 175.505052 150.0287 
L 190.943787 159.8407 
L 206.382522 159.325141 
L 221.821257 157.791337 
L 237.259993 147.9383 
L 252.698728 146.940225 
L 268.137463 150.20613 
L 283.576198 160.805077 
L 299.014933 165.567488 
L 314.453668 165.28424 
L 329.892404 165.614724 
L 345.331139 165.764113 
L 360.769874 165.796128 
L 376.208609 165.901542 
L 391.647344 165.929809 
L 407.08608 165.791945 
" style="fill:none;stroke:#1b9e77;stroke-linecap:square;stroke-opacity:0.5;stroke-width:1.5;"/>
   </g>
   <g id="line2d_71">
    <path clip-path="url(#p7a5b3729e4)" d="M 51.99517 157.651162 
L 67.433906 139.876098 
L 82.872641 145.402282 
L 98.311376 151.709925 
L 113.750111 156.407657 
L 129.188846 159.090763 
L 144.627582 159.953404 
L 160.066317 162.366414 
L 175.505052 163.926769 
L 190.943787 164.611339 
L 206.382522 164.749601 
L 221.821257 161.91435 
L 237.259993 163.981596 
L 252.698728 162.221718 
L 268.137463 163.557161 
L 283.576198 165.726508 
L 299.014933 162.035847 
L 314.453668 159.951443 
L 329.892404 159.033298 
L 345.331139 151.608742 
L 360.769874 153.209676 
L 376.208609 156.090619 
L 391.647344 158.251114 
L 407.08608 164.379182 
" style="fill:none;stroke:#1b9e77;stroke-linecap:square;stroke-opacity:0.5;stroke-width:1.5;"/>
   </g>
   <g id="line2d_72">
    <path clip-path="url(#p7a5b3729e4)" d="M 51.99517 164.106799 
L 67.433906 164.059865 
L 82.872641 139.494873 
L 98.311376 153.616774 
L 113.750111 151.222396 
L 129.188846 164.444688 
L 144.627582 165.799006 
L 160.066317 165.325301 
L 175.505052 82.080338 
L 190.943787 157.314302 
L 206.382522 164.702562 
L 221.821257 158.504112 
L 237.259993 164.294962 
L 252.698728 158.412512 
L 268.137463 164.521618 
L 283.576198 164.634185 
L 299.014933 164.80072 
L 314.453668 165.349632 
L 329.892404 165.638827 
L 345.331139 165.81289 
L 360.769874 165.837737 
L 376.208609 165.903014 
L 391.647344 165.914226 
L 407.08608 165.915329 
" style="fill:none;stroke:#1b9e77;stroke-linecap:square;stroke-opacity:0.5;stroke-width:1.5;"/>
   </g>
   <g id="line2d_73">
    <path clip-path="url(#p7a5b3729e4)" d="M 51.99517 165.837076 
L 67.433906 165.717923 
L 82.872641 165.824678 
L 98.311376 165.908147 
L 113.750111 165.923059 
L 129.188846 165.941808 
L 144.627582 163.391743 
L 160.066317 154.573857 
L 175.505052 157.355224 
L 190.943787 150.151271 
L 206.382522 151.075814 
L 221.821257 150.262595 
L 237.259993 119.724515 
L 252.698728 124.82076 
L 268.137463 155.136079 
L 283.576198 164.300802 
L 299.014933 164.693779 
L 314.453668 164.478043 
L 329.892404 165.431856 
L 345.331139 165.724933 
L 360.769874 165.732297 
L 376.208609 165.866126 
L 391.647344 165.407488 
L 407.08608 164.426794 
" style="fill:none;stroke:#1b9e77;stroke-linecap:square;stroke-opacity:0.5;stroke-width:1.5;"/>
   </g>
   <g id="line2d_74">
    <path clip-path="url(#p7a5b3729e4)" d="M 51.99517 152.352766 
L 67.433906 132.705122 
L 82.872641 126.839952 
L 98.311376 154.728103 
L 113.750111 162.44122 
L 129.188846 163.60667 
L 144.627582 155.637468 
L 160.066317 142.505824 
L 175.505052 161.557503 
L 190.943787 156.8655 
L 206.382522 155.464884 
L 221.821257 158.571539 
L 237.259993 163.087289 
L 252.698728 163.008125 
L 268.137463 165.843741 
L 283.576198 165.735511 
L 299.014933 165.679636 
L 314.453668 165.713889 
L 329.892404 165.817984 
L 345.331139 165.867305 
L 360.769874 165.876851 
L 376.208609 165.923405 
L 391.647344 165.945752 
L 407.08608 165.930627 
" style="fill:none;stroke:#1b9e77;stroke-linecap:square;stroke-opacity:0.5;stroke-width:1.5;"/>
   </g>
   <g id="line2d_75">
    <path clip-path="url(#p7a5b3729e4)" d="M 51.99517 158.268625 
L 67.433906 153.54106 
L 82.872641 134.592973 
L 98.311376 124.968489 
L 113.750111 158.141471 
L 129.188846 155.419003 
L 144.627582 160.9709 
L 160.066317 159.341782 
L 175.505052 158.048154 
L 190.943787 161.870443 
L 206.382522 164.070413 
L 221.821257 164.224612 
L 237.259993 163.682726 
L 252.698728 164.057611 
L 268.137463 165.109832 
L 283.576198 165.317171 
L 299.014933 165.24801 
L 314.453668 164.693075 
L 329.892404 164.12598 
L 345.331139 164.751508 
L 360.769874 165.126471 
L 376.208609 165.254779 
L 391.647344 164.06482 
L 407.08608 142.816758 
" style="fill:none;stroke:#1b9e77;stroke-linecap:square;stroke-opacity:0.5;stroke-width:1.5;"/>
   </g>
   <g id="line2d_76">
    <path clip-path="url(#p7a5b3729e4)" d="M 51.99517 165.925112 
L 67.433906 165.943886 
L 82.872641 165.772606 
L 98.311376 165.598327 
L 113.750111 161.127102 
L 129.188846 146.421148 
L 144.627582 155.06301 
L 160.066317 165.0704 
L 175.505052 164.714592 
L 190.943787 129.024293 
L 206.382522 151.970106 
L 221.821257 154.473871 
L 237.259993 158.806757 
L 252.698728 160.001335 
L 268.137463 164.206883 
L 283.576198 165.800621 
L 299.014933 165.929617 
L 314.453668 165.64739 
L 329.892404 163.339799 
L 345.331139 164.537958 
L 360.769874 152.452875 
L 376.208609 140.276879 
L 391.647344 150.448362 
L 407.08608 165.153737 
" style="fill:none;stroke:#1b9e77;stroke-linecap:square;stroke-opacity:0.5;stroke-width:1.5;"/>
   </g>
   <g id="line2d_77">
    <path clip-path="url(#p7a5b3729e4)" d="M 51.99517 165.782427 
L 67.433906 165.626518 
L 82.872641 165.693228 
L 98.311376 165.854378 
L 113.750111 165.874443 
L 129.188846 165.892026 
L 144.627582 161.508368 
L 160.066317 136.561481 
L 175.505052 144.786247 
L 190.943787 136.753048 
L 206.382522 147.253483 
L 221.821257 109.934758 
L 237.259993 158.028481 
L 252.698728 163.377907 
L 268.137463 165.01939 
L 283.576198 165.250769 
L 299.014933 165.17614 
L 314.453668 165.47942 
L 329.892404 165.710328 
L 345.331139 165.847087 
L 360.769874 165.836895 
L 376.208609 165.921258 
L 391.647344 165.682659 
L 407.08608 164.855923 
" style="fill:none;stroke:#1b9e77;stroke-linecap:square;stroke-opacity:0.5;stroke-width:1.5;"/>
   </g>
   <g id="line2d_78">
    <path clip-path="url(#p7a5b3729e4)" d="M 51.99517 154.099437 
L 67.433906 157.272721 
L 82.872641 161.205091 
L 98.311376 165.033522 
L 113.750111 165.502627 
L 129.188846 165.643132 
L 144.627582 165.590973 
L 160.066317 165.383594 
L 175.505052 164.772803 
L 190.943787 164.322062 
L 206.382522 163.705474 
L 221.821257 161.618151 
L 237.259993 160.363078 
L 252.698728 155.385632 
L 268.137463 150.08203 
L 283.576198 153.04537 
L 299.014933 157.882441 
L 314.453668 154.092381 
L 329.892404 145.957312 
L 345.331139 142.500928 
L 360.769874 145.694849 
L 376.208609 160.076312 
L 391.647344 164.656531 
L 407.08608 163.820212 
" style="fill:none;stroke:#1b9e77;stroke-linecap:square;stroke-opacity:0.5;stroke-width:1.5;"/>
   </g>
   <g id="line2d_79">
    <path clip-path="url(#p7a5b3729e4)" d="M 51.99517 165.90723 
L 67.433906 165.900227 
L 82.872641 165.922915 
L 98.311376 165.828419 
L 113.750111 165.628319 
L 129.188846 164.407725 
L 144.627582 153.432192 
L 160.066317 138.067309 
L 175.505052 157.200019 
L 190.943787 164.827096 
L 206.382522 136.453515 
L 221.821257 146.595565 
L 237.259993 157.244711 
L 252.698728 153.580363 
L 268.137463 151.834768 
L 283.576198 137.565996 
L 299.014933 165.013008 
L 314.453668 165.809599 
L 329.892404 165.762125 
L 345.331139 165.557223 
L 360.769874 159.805468 
L 376.208609 165.917591 
L 391.647344 165.956404 
L 407.08608 163.488875 
" style="fill:none;stroke:#1b9e77;stroke-linecap:square;stroke-opacity:0.5;stroke-width:1.5;"/>
   </g>
   <g id="line2d_80">
    <path clip-path="url(#p7a5b3729e4)" d="M 51.99517 165.507841 
L 67.433906 164.851972 
L 82.872641 165.157629 
L 98.311376 165.542056 
L 113.750111 165.673847 
L 129.188846 165.803227 
L 144.627582 165.850389 
L 160.066317 165.89886 
L 175.505052 165.915953 
L 190.943787 165.924555 
L 206.382522 165.92433 
L 221.821257 165.934312 
L 237.259993 165.939214 
L 252.698728 165.942406 
L 268.137463 165.933078 
L 283.576198 165.884587 
L 299.014933 165.717033 
L 314.453668 163.87208 
L 329.892404 144.072925 
L 345.331139 97.75485 
L 360.769874 127.454544 
L 376.208609 154.505721 
L 391.647344 148.323411 
L 407.08608 154.321846 
" style="fill:none;stroke:#1b9e77;stroke-linecap:square;stroke-opacity:0.5;stroke-width:1.5;"/>
   </g>
   <g id="line2d_81">
    <path clip-path="url(#p7a5b3729e4)" d="M 51.99517 165.893778 
L 67.433906 165.840398 
L 82.872641 165.876218 
L 98.311376 165.93207 
L 113.750111 165.942386 
L 129.188846 165.947708 
L 144.627582 165.767663 
L 160.066317 163.579608 
L 175.505052 160.124773 
L 190.943787 152.963445 
L 206.382522 150.812864 
L 221.821257 156.417273 
L 237.259993 161.215085 
L 252.698728 155.626711 
L 268.137463 96.430876 
L 283.576198 159.3241 
L 299.014933 165.543561 
L 314.453668 165.857928 
L 329.892404 164.6051 
L 345.331139 165.131027 
L 360.769874 153.03233 
L 376.208609 156.03796 
L 391.647344 155.705907 
L 407.08608 164.0979 
" style="fill:none;stroke:#1b9e77;stroke-linecap:square;stroke-opacity:0.5;stroke-width:1.5;"/>
   </g>
   <g id="line2d_82">
    <path clip-path="url(#p7a5b3729e4)" d="M 51.99517 165.626287 
L 67.433906 164.798487 
L 82.872641 162.778842 
L 98.311376 165.56146 
L 113.750111 164.318287 
L 129.188846 159.332538 
L 144.627582 144.547462 
L 160.066317 141.456136 
L 175.505052 136.511563 
L 190.943787 134.98063 
L 206.382522 140.261124 
L 221.821257 158.536833 
L 237.259993 161.816604 
L 252.698728 160.336884 
L 268.137463 159.217877 
L 283.576198 163.261493 
L 299.014933 165.660621 
L 314.453668 165.661188 
L 329.892404 164.798392 
L 345.331139 165.623462 
L 360.769874 165.826136 
L 376.208609 165.826545 
L 391.647344 165.430979 
L 407.08608 165.536834 
" style="fill:none;stroke:#1b9e77;stroke-linecap:square;stroke-opacity:0.5;stroke-width:1.5;"/>
   </g>
   <g id="line2d_83">
    <path clip-path="url(#p7a5b3729e4)" d="M 51.99517 157.145799 
L 67.433906 157.469587 
L 82.872641 161.094992 
L 98.311376 162.977299 
L 113.750111 163.50763 
L 129.188846 163.813365 
L 144.627582 165.449845 
L 160.066317 165.699274 
L 175.505052 165.566922 
L 190.943787 165.732859 
L 206.382522 165.829858 
L 221.821257 165.400349 
L 237.259993 164.452172 
L 252.698728 165.730727 
L 268.137463 141.905749 
L 283.576198 110.704041 
L 299.014933 154.651178 
L 314.453668 144.184696 
L 329.892404 147.367427 
L 345.331139 161.948745 
L 360.769874 164.985148 
L 376.208609 163.171401 
L 391.647344 163.256703 
L 407.08608 165.660904 
" style="fill:none;stroke:#1b9e77;stroke-linecap:square;stroke-opacity:0.5;stroke-width:1.5;"/>
   </g>
   <g id="line2d_84">
    <path clip-path="url(#p7a5b3729e4)" d="M 51.99517 162.559691 
L 67.433906 163.2215 
L 82.872641 164.12569 
L 98.311376 164.69378 
L 113.750111 164.843737 
L 129.188846 165.370927 
L 144.627582 165.672573 
L 160.066317 165.821365 
L 175.505052 165.821078 
L 190.943787 165.872647 
L 206.382522 165.894533 
L 221.821257 165.924165 
L 237.259993 165.771431 
L 252.698728 164.197801 
L 268.137463 139.398282 
L 283.576198 124.843981 
L 299.014933 146.218989 
L 314.453668 150.985178 
L 329.892404 162.022576 
L 345.331139 161.707432 
L 360.769874 137.548222 
L 376.208609 149.651807 
L 391.647344 160.37901 
L 407.08608 165.160269 
" style="fill:none;stroke:#1b9e77;stroke-linecap:square;stroke-opacity:0.5;stroke-width:1.5;"/>
   </g>
   <g id="line2d_85">
    <path clip-path="url(#p7a5b3729e4)" d="M 51.99517 153.325637 
L 67.433906 149.832239 
L 82.872641 155.511447 
L 98.311376 162.27198 
L 113.750111 163.927845 
L 129.188846 164.097812 
L 144.627582 163.655195 
L 160.066317 164.154572 
L 175.505052 164.680586 
L 190.943787 165.061876 
L 206.382522 165.195932 
L 221.821257 165.295998 
L 237.259993 165.4046 
L 252.698728 165.637386 
L 268.137463 165.751227 
L 283.576198 165.810374 
L 299.014933 165.805963 
L 314.453668 165.835409 
L 329.892404 165.75206 
L 345.331139 165.111193 
L 360.769874 164.269902 
L 376.208609 163.956599 
L 391.647344 153.248687 
L 407.08608 64.112144 
" style="fill:none;stroke:#1b9e77;stroke-linecap:square;stroke-opacity:0.5;stroke-width:1.5;"/>
   </g>
   <g id="line2d_86">
    <path clip-path="url(#p7a5b3729e4)" d="M 51.99517 144.75454 
L 67.433906 149.799913 
L 82.872641 158.216418 
L 98.311376 164.118905 
L 113.750111 164.987217 
L 129.188846 165.501252 
L 144.627582 165.654429 
L 160.066317 165.824939 
L 175.505052 165.212941 
L 190.943787 148.108656 
L 206.382522 156.641848 
L 221.821257 164.487223 
L 237.259993 162.329126 
L 252.698728 144.143332 
L 268.137463 127.260303 
L 283.576198 146.20685 
L 299.014933 162.494742 
L 314.453668 163.257984 
L 329.892404 164.783042 
L 345.331139 165.16644 
L 360.769874 165.315403 
L 376.208609 165.411953 
L 391.647344 165.332213 
L 407.08608 162.696999 
" style="fill:none;stroke:#1b9e77;stroke-linecap:square;stroke-opacity:0.5;stroke-width:1.5;"/>
   </g>
   <g id="line2d_87">
    <path clip-path="url(#p7a5b3729e4)" d="M 51.99517 165.879512 
L 67.433906 165.773172 
L 82.872641 165.823103 
L 98.311376 165.922386 
L 113.750111 165.946513 
L 129.188846 165.953181 
L 144.627582 165.949713 
L 160.066317 165.935355 
L 175.505052 165.847157 
L 190.943787 162.189594 
L 206.382522 147.690474 
L 221.821257 119.846492 
L 237.259993 124.393571 
L 252.698728 161.309249 
L 268.137463 162.22252 
L 283.576198 152.560279 
L 299.014933 149.738127 
L 314.453668 149.779517 
L 329.892404 165.186378 
L 345.331139 165.40243 
L 360.769874 165.527602 
L 376.208609 160.847729 
L 391.647344 163.501292 
L 407.08608 164.481319 
" style="fill:none;stroke:#1b9e77;stroke-linecap:square;stroke-opacity:0.5;stroke-width:1.5;"/>
   </g>
   <g id="line2d_88">
    <path clip-path="url(#p7a5b3729e4)" d="M 51.99517 162.886713 
L 67.433906 164.352813 
L 82.872641 134.562175 
L 98.311376 157.22447 
L 113.750111 145.921909 
L 129.188846 164.89161 
L 144.627582 165.888517 
L 160.066317 165.858961 
L 175.505052 165.816221 
L 190.943787 165.805979 
L 206.382522 165.945511 
L 221.821257 165.696032 
L 237.259993 162.416157 
L 252.698728 151.844414 
L 268.137463 161.289568 
L 283.576198 158.999602 
L 299.014933 158.823025 
L 314.453668 155.634783 
L 329.892404 156.285023 
L 345.331139 156.526793 
L 360.769874 153.114222 
L 376.208609 160.947574 
L 391.647344 152.038506 
L 407.08608 154.936093 
" style="fill:none;stroke:#1b9e77;stroke-linecap:square;stroke-opacity:0.5;stroke-width:1.5;"/>
   </g>
   <g id="line2d_89">
    <path clip-path="url(#p7a5b3729e4)" d="M 51.99517 165.863198 
L 67.433906 165.724215 
L 82.872641 165.790096 
L 98.311376 165.843986 
L 113.750111 165.84505 
L 129.188846 165.887922 
L 144.627582 165.92243 
L 160.066317 165.936352 
L 175.505052 165.938239 
L 190.943787 165.941177 
L 206.382522 165.942333 
L 221.821257 165.945054 
L 237.259993 165.941152 
L 252.698728 165.94421 
L 268.137463 165.89097 
L 283.576198 163.356807 
L 299.014933 158.145485 
L 314.453668 151.09523 
L 329.892404 134.375485 
L 345.331139 136.866876 
L 360.769874 135.208266 
L 376.208609 136.522812 
L 391.647344 141.042458 
L 407.08608 162.736865 
" style="fill:none;stroke:#1b9e77;stroke-linecap:square;stroke-opacity:0.5;stroke-width:1.5;"/>
   </g>
   <g id="line2d_90">
    <path clip-path="url(#p7a5b3729e4)" d="M 51.99517 141.986059 
L 67.433906 115.707961 
L 82.872641 121.473226 
L 98.311376 147.161366 
L 113.750111 153.998369 
L 129.188846 161.554352 
L 144.627582 164.233621 
L 160.066317 165.008283 
L 175.505052 165.023154 
L 190.943787 165.419767 
L 206.382522 165.381508 
L 221.821257 164.535206 
L 237.259993 165.036483 
L 252.698728 165.225467 
L 268.137463 165.148837 
L 283.576198 163.392872 
L 299.014933 161.736699 
L 314.453668 165.232597 
L 329.892404 165.327432 
L 345.331139 165.469358 
L 360.769874 165.576507 
L 376.208609 165.779021 
L 391.647344 165.784018 
L 407.08608 162.514503 
" style="fill:none;stroke:#1b9e77;stroke-linecap:square;stroke-opacity:0.5;stroke-width:1.5;"/>
   </g>
   <g id="line2d_91">
    <path clip-path="url(#p7a5b3729e4)" d="M 51.99517 162.118356 
L 67.433906 158.893335 
L 82.872641 153.498949 
L 98.311376 151.670999 
L 113.750111 136.894038 
L 129.188846 136.824085 
L 144.627582 153.632792 
L 160.066317 155.221748 
L 175.505052 154.797402 
L 190.943787 154.882305 
L 206.382522 157.110207 
L 221.821257 156.656181 
L 237.259993 158.358925 
L 252.698728 158.936362 
L 268.137463 165.568036 
L 283.576198 165.762976 
L 299.014933 165.72053 
L 314.453668 165.749941 
L 329.892404 165.82043 
L 345.331139 165.879264 
L 360.769874 165.901079 
L 376.208609 165.940966 
L 391.647344 165.951446 
L 407.08608 165.916317 
" style="fill:none;stroke:#1b9e77;stroke-linecap:square;stroke-opacity:0.5;stroke-width:1.5;"/>
   </g>
   <g id="line2d_92">
    <path clip-path="url(#p7a5b3729e4)" d="M 51.99517 164.420598 
L 67.433906 162.556998 
L 82.872641 162.717339 
L 98.311376 165.050863 
L 113.750111 164.92995 
L 129.188846 161.501543 
L 144.627582 162.637548 
L 160.066317 165.000063 
L 175.505052 164.84841 
L 190.943787 164.806973 
L 206.382522 156.240387 
L 221.821257 93.461419 
L 237.259993 147.642398 
L 252.698728 158.448868 
L 268.137463 152.168171 
L 283.576198 161.170369 
L 299.014933 164.840466 
L 314.453668 165.368884 
L 329.892404 165.820431 
L 345.331139 165.847122 
L 360.769874 165.657937 
L 376.208609 164.202492 
L 391.647344 143.960719 
L 407.08608 164.406718 
" style="fill:none;stroke:#1b9e77;stroke-linecap:square;stroke-opacity:0.5;stroke-width:1.5;"/>
   </g>
   <g id="line2d_93">
    <path clip-path="url(#p7a5b3729e4)" d="M 51.99517 158.435451 
L 67.433906 119.805965 
L 82.872641 123.778581 
L 98.311376 135.075036 
L 113.750111 153.400785 
L 129.188846 163.127001 
L 144.627582 163.296096 
L 160.066317 158.054296 
L 175.505052 158.91658 
L 190.943787 161.726589 
L 206.382522 163.25076 
L 221.821257 162.812176 
L 237.259993 163.969476 
L 252.698728 163.952489 
L 268.137463 165.628653 
L 283.576198 165.699163 
L 299.014933 165.661711 
L 314.453668 165.706238 
L 329.892404 165.824442 
L 345.331139 165.891693 
L 360.769874 165.917619 
L 376.208609 165.946818 
L 391.647344 165.954024 
L 407.08608 165.875024 
" style="fill:none;stroke:#1b9e77;stroke-linecap:square;stroke-opacity:0.5;stroke-width:1.5;"/>
   </g>
   <g id="line2d_94">
    <path clip-path="url(#p7a5b3729e4)" d="M 51.99517 164.197599 
L 67.433906 162.971271 
L 82.872641 162.336956 
L 98.311376 162.529844 
L 113.750111 159.277983 
L 129.188846 154.879624 
L 144.627582 159.01458 
L 160.066317 160.592203 
L 175.505052 155.815822 
L 190.943787 141.308162 
L 206.382522 143.220719 
L 221.821257 139.645419 
L 237.259993 148.825323 
L 252.698728 159.031919 
L 268.137463 161.151421 
L 283.576198 160.755511 
L 299.014933 161.531316 
L 314.453668 164.734878 
L 329.892404 165.696503 
L 345.331139 165.770125 
L 360.769874 164.167948 
L 376.208609 162.062562 
L 391.647344 162.882769 
L 407.08608 165.306211 
" style="fill:none;stroke:#1b9e77;stroke-linecap:square;stroke-opacity:0.5;stroke-width:1.5;"/>
   </g>
   <g id="line2d_95">
    <path clip-path="url(#p7a5b3729e4)" d="M 51.99517 163.413624 
L 67.433906 148.478422 
L 82.872641 130.762632 
L 98.311376 108.933418 
L 113.750111 116.677291 
L 129.188846 160.725482 
L 144.627582 164.951106 
L 160.066317 165.37797 
L 175.505052 165.683669 
L 190.943787 165.70828 
L 206.382522 165.738528 
L 221.821257 165.436166 
L 237.259993 164.79508 
L 252.698728 165.161692 
L 268.137463 165.567968 
L 283.576198 165.111857 
L 299.014933 165.445513 
L 314.453668 165.276629 
L 329.892404 165.515061 
L 345.331139 165.737982 
L 360.769874 165.801399 
L 376.208609 165.827943 
L 391.647344 165.687897 
L 407.08608 165.891057 
" style="fill:none;stroke:#1b9e77;stroke-linecap:square;stroke-opacity:0.5;stroke-width:1.5;"/>
   </g>
   <g id="line2d_96">
    <path clip-path="url(#p7a5b3729e4)" d="M 51.99517 136.610159 
L 67.433906 149.548957 
L 82.872641 136.63936 
L 98.311376 133.662818 
L 113.750111 158.581965 
L 129.188846 142.337697 
L 144.627582 150.542031 
L 160.066317 154.881067 
L 175.505052 160.956925 
L 190.943787 164.308356 
L 206.382522 165.132374 
L 221.821257 165.779189 
L 237.259993 165.807048 
L 252.698728 165.931325 
L 268.137463 165.866074 
L 283.576198 165.873652 
L 299.014933 165.926884 
L 314.453668 165.87796 
L 329.892404 165.904475 
L 345.331139 165.831071 
L 360.769874 165.746851 
L 376.208609 165.926925 
L 391.647344 165.94828 
L 407.08608 164.085223 
" style="fill:none;stroke:#1b9e77;stroke-linecap:square;stroke-opacity:0.5;stroke-width:1.5;"/>
   </g>
   <g id="line2d_97">
    <path clip-path="url(#p7a5b3729e4)" d="M 51.99517 165.468561 
L 67.433906 165.181498 
L 82.872641 164.741453 
L 98.311376 164.71616 
L 113.750111 164.641807 
L 129.188846 164.834707 
L 144.627582 161.433406 
L 160.066317 161.928374 
L 175.505052 165.026779 
L 190.943787 165.472201 
L 206.382522 165.346895 
L 221.821257 160.248362 
L 237.259993 150.507281 
L 252.698728 162.974966 
L 268.137463 161.840356 
L 283.576198 147.913071 
L 299.014933 158.311022 
L 314.453668 154.588617 
L 329.892404 146.552895 
L 345.331139 151.01144 
L 360.769874 133.216117 
L 376.208609 148.929785 
L 391.647344 158.675838 
L 407.08608 164.145073 
" style="fill:none;stroke:#1b9e77;stroke-linecap:square;stroke-opacity:0.5;stroke-width:1.5;"/>
   </g>
   <g id="line2d_98">
    <path clip-path="url(#p7a5b3729e4)" d="M 51.99517 165.808553 
L 67.433906 165.935113 
L 82.872641 165.926916 
L 98.311376 165.922466 
L 113.750111 164.633601 
L 129.188846 165.771948 
L 144.627582 165.929442 
L 160.066317 165.238674 
L 175.505052 149.20863 
L 190.943787 110.747386 
L 206.382522 151.614289 
L 221.821257 158.770037 
L 237.259993 158.789095 
L 252.698728 150.243698 
L 268.137463 146.804516 
L 283.576198 153.540345 
L 299.014933 158.741724 
L 314.453668 159.957937 
L 329.892404 163.10052 
L 345.331139 165.04793 
L 360.769874 165.023401 
L 376.208609 164.299333 
L 391.647344 161.941587 
L 407.08608 164.709525 
" style="fill:none;stroke:#1b9e77;stroke-linecap:square;stroke-opacity:0.5;stroke-width:1.5;"/>
   </g>
   <g id="line2d_99">
    <path clip-path="url(#p7a5b3729e4)" d="M 51.99517 165.950268 
L 67.433906 165.927465 
L 82.872641 165.902615 
L 98.311376 165.774066 
L 113.750111 164.96438 
L 129.188846 162.355929 
L 144.627582 161.917169 
L 160.066317 163.22534 
L 175.505052 162.532859 
L 190.943787 151.666392 
L 206.382522 161.406242 
L 221.821257 165.720883 
L 237.259993 165.627564 
L 252.698728 165.304058 
L 268.137463 164.79305 
L 283.576198 129.296187 
L 299.014933 152.365604 
L 314.453668 164.988691 
L 329.892404 159.821573 
L 345.331139 133.856326 
L 360.769874 150.58218 
L 376.208609 140.441962 
L 391.647344 157.669245 
L 407.08608 165.616623 
" style="fill:none;stroke:#1b9e77;stroke-linecap:square;stroke-opacity:0.5;stroke-width:1.5;"/>
   </g>
   <g id="line2d_100">
    <path clip-path="url(#p7a5b3729e4)" d="M 51.99517 126.214207 
L 67.433906 92.255807 
L 82.872641 144.076617 
L 98.311376 150.530539 
L 113.750111 158.077033 
L 129.188846 165.095886 
L 144.627582 165.272295 
L 160.066317 165.343811 
L 175.505052 165.470385 
L 190.943787 165.478263 
L 206.382522 165.587377 
L 221.821257 165.718614 
L 237.259993 165.774385 
L 252.698728 165.90745 
L 268.137463 165.92119 
L 283.576198 165.744616 
L 299.014933 165.599707 
L 314.453668 165.855523 
L 329.892404 165.78087 
L 345.331139 164.124642 
L 360.769874 163.288109 
L 376.208609 163.069913 
L 391.647344 162.701363 
L 407.08608 164.818067 
" style="fill:none;stroke:#1b9e77;stroke-linecap:square;stroke-opacity:0.5;stroke-width:1.5;"/>
   </g>
   <g id="line2d_101">
    <path clip-path="url(#p7a5b3729e4)" d="M 51.99517 164.826638 
L 67.433906 165.840284 
L 82.872641 165.505635 
L 98.311376 164.365495 
L 113.750111 90.365304 
L 129.188846 82.216068 
L 144.627582 161.408671 
L 160.066317 164.894896 
L 175.505052 163.983407 
L 190.943787 163.494213 
L 206.382522 165.023617 
L 221.821257 165.575435 
L 237.259993 165.631743 
L 252.698728 165.785006 
L 268.137463 165.870892 
L 283.576198 165.917494 
L 299.014933 165.926154 
L 314.453668 165.931605 
L 329.892404 165.933574 
L 345.331139 165.939344 
L 360.769874 165.939707 
L 376.208609 165.944119 
L 391.647344 165.925777 
L 407.08608 165.46159 
" style="fill:none;stroke:#1b9e77;stroke-linecap:square;stroke-opacity:0.5;stroke-width:1.5;"/>
   </g>
   <g id="line2d_102">
    <path clip-path="url(#p7a5b3729e4)" d="M 51.99517 150.847479 
L 67.433906 130.364932 
L 82.872641 103.096908 
L 98.311376 124.786641 
L 113.750111 154.483552 
L 129.188846 160.521828 
L 144.627582 164.923529 
L 160.066317 165.445047 
L 175.505052 165.415772 
L 190.943787 165.630938 
L 206.382522 165.80662 
L 221.821257 165.834582 
L 237.259993 165.822507 
L 252.698728 165.817873 
L 268.137463 165.836323 
L 283.576198 165.857004 
L 299.014933 165.867621 
L 314.453668 165.874142 
L 329.892404 165.879528 
L 345.331139 165.911708 
L 360.769874 165.933582 
L 376.208609 165.9542 
L 391.647344 165.955397 
L 407.08608 165.83895 
" style="fill:none;stroke:#1b9e77;stroke-linecap:square;stroke-opacity:0.5;stroke-width:1.5;"/>
   </g>
   <g id="line2d_103">
    <path clip-path="url(#p7a5b3729e4)" d="M 51.99517 165.814543 
L 67.433906 165.53362 
L 82.872641 165.594495 
L 98.311376 165.769115 
L 113.750111 165.833022 
L 129.188846 165.874391 
L 144.627582 165.880595 
L 160.066317 165.889471 
L 175.505052 165.885011 
L 190.943787 165.908945 
L 206.382522 165.921731 
L 221.821257 165.911518 
L 237.259993 165.867521 
L 252.698728 165.902633 
L 268.137463 165.450923 
L 283.576198 148.278173 
L 299.014933 146.713246 
L 314.453668 147.850107 
L 329.892404 125.895004 
L 345.331139 143.417013 
L 360.769874 141.943863 
L 376.208609 141.956786 
L 391.647344 159.114883 
L 407.08608 165.500059 
" style="fill:none;stroke:#1b9e77;stroke-linecap:square;stroke-opacity:0.5;stroke-width:1.5;"/>
   </g>
   <g id="line2d_104">
    <path clip-path="url(#p7a5b3729e4)" d="M 51.99517 165.846402 
L 67.433906 165.618476 
L 82.872641 165.65883 
L 98.311376 165.792722 
L 113.750111 165.821921 
L 129.188846 165.912626 
L 144.627582 165.89978 
L 160.066317 161.192066 
L 175.505052 156.907886 
L 190.943787 153.052622 
L 206.382522 144.026085 
L 221.821257 145.306622 
L 237.259993 131.575752 
L 252.698728 137.597099 
L 268.137463 158.952264 
L 283.576198 164.107724 
L 299.014933 163.673359 
L 314.453668 161.398327 
L 329.892404 159.846961 
L 345.331139 161.3458 
L 360.769874 161.484954 
L 376.208609 164.522345 
L 391.647344 162.25873 
L 407.08608 159.90731 
" style="fill:none;stroke:#1b9e77;stroke-linecap:square;stroke-opacity:0.5;stroke-width:1.5;"/>
   </g>
   <g id="line2d_105">
    <path clip-path="url(#p7a5b3729e4)" d="M 51.99517 163.667146 
L 67.433906 162.324124 
L 82.872641 160.906229 
L 98.311376 164.004318 
L 113.750111 146.599482 
L 129.188846 134.865075 
L 144.627582 152.928649 
L 160.066317 156.57289 
L 175.505052 147.61576 
L 190.943787 134.089749 
L 206.382522 152.987362 
L 221.821257 163.021205 
L 237.259993 155.624022 
L 252.698728 154.914131 
L 268.137463 164.622489 
L 283.576198 165.873984 
L 299.014933 165.762957 
L 314.453668 165.874093 
L 329.892404 165.932063 
L 345.331139 165.943922 
L 360.769874 165.945816 
L 376.208609 165.952092 
L 391.647344 165.951394 
L 407.08608 165.727715 
" style="fill:none;stroke:#1b9e77;stroke-linecap:square;stroke-opacity:0.5;stroke-width:1.5;"/>
   </g>
   <g id="line2d_106">
    <path clip-path="url(#p7a5b3729e4)" d="M 51.99517 165.894121 
L 67.433906 165.744359 
L 82.872641 165.718964 
L 98.311376 165.789009 
L 113.750111 165.796195 
L 129.188846 165.916499 
L 144.627582 165.866353 
L 160.066317 164.659516 
L 175.505052 160.667787 
L 190.943787 162.22601 
L 206.382522 153.548129 
L 221.821257 153.005946 
L 237.259993 163.277507 
L 252.698728 165.599908 
L 268.137463 165.789546 
L 283.576198 165.408113 
L 299.014933 156.041223 
L 314.453668 148.514256 
L 329.892404 135.769056 
L 345.331139 129.510789 
L 360.769874 141.753204 
L 376.208609 154.428676 
L 391.647344 164.460701 
L 407.08608 162.320801 
" style="fill:none;stroke:#1b9e77;stroke-linecap:square;stroke-opacity:0.5;stroke-width:1.5;"/>
   </g>
   <g id="line2d_107">
    <path clip-path="url(#p7a5b3729e4)" d="M 51.99517 163.064493 
L 67.433906 150.09913 
L 82.872641 77.701345 
L 98.311376 119.8364 
L 113.750111 164.402944 
L 129.188846 163.306985 
L 144.627582 163.080289 
L 160.066317 163.325723 
L 175.505052 162.686149 
L 190.943787 163.72208 
L 206.382522 164.60382 
L 221.821257 164.96951 
L 237.259993 165.045043 
L 252.698728 165.363169 
L 268.137463 165.59517 
L 283.576198 165.783724 
L 299.014933 165.842084 
L 314.453668 165.784309 
L 329.892404 165.648732 
L 345.331139 165.66473 
L 360.769874 165.77796 
L 376.208609 165.920337 
L 391.647344 165.935431 
L 407.08608 164.54711 
" style="fill:none;stroke:#1b9e77;stroke-linecap:square;stroke-opacity:0.5;stroke-width:1.5;"/>
   </g>
   <g id="line2d_108">
    <path clip-path="url(#p7a5b3729e4)" d="M 51.99517 165.860974 
L 67.433906 165.759573 
L 82.872641 165.810328 
L 98.311376 165.901686 
L 113.750111 165.93149 
L 129.188846 165.94991 
L 144.627582 165.952584 
L 160.066317 165.950468 
L 175.505052 165.937397 
L 190.943787 165.868465 
L 206.382522 160.200094 
L 221.821257 145.930295 
L 237.259993 139.147176 
L 252.698728 151.425399 
L 268.137463 93.579444 
L 283.576198 145.077428 
L 299.014933 164.787471 
L 314.453668 165.222864 
L 329.892404 165.492567 
L 345.331139 164.929357 
L 360.769874 159.965547 
L 376.208609 164.263598 
L 391.647344 164.23907 
L 407.08608 164.523481 
" style="fill:none;stroke:#1b9e77;stroke-linecap:square;stroke-opacity:0.5;stroke-width:1.5;"/>
   </g>
   <g id="line2d_109">
    <path clip-path="url(#p7a5b3729e4)" d="M 51.99517 165.875351 
L 67.433906 165.693845 
L 82.872641 165.736219 
L 98.311376 164.575983 
L 113.750111 162.81168 
L 129.188846 162.910044 
L 144.627582 161.837 
L 160.066317 162.665618 
L 175.505052 165.059181 
L 190.943787 165.436476 
L 206.382522 165.896897 
L 221.821257 165.921495 
L 237.259993 165.917305 
L 252.698728 165.783418 
L 268.137463 165.22368 
L 283.576198 163.84349 
L 299.014933 159.212892 
L 314.453668 141.933127 
L 329.892404 129.557331 
L 345.331139 105.912735 
L 360.769874 143.412626 
L 376.208609 163.841745 
L 391.647344 164.204181 
L 407.08608 164.444345 
" style="fill:none;stroke:#1b9e77;stroke-linecap:square;stroke-opacity:0.5;stroke-width:1.5;"/>
   </g>
   <g id="line2d_110">
    <path clip-path="url(#p7a5b3729e4)" d="M 51.99517 165.672833 
L 67.433906 164.269409 
L 82.872641 162.317347 
L 98.311376 163.02763 
L 113.750111 136.978967 
L 129.188846 138.949315 
L 144.627582 140.123019 
L 160.066317 144.078962 
L 175.505052 150.419987 
L 190.943787 152.602254 
L 206.382522 159.821608 
L 221.821257 161.706308 
L 237.259993 160.508221 
L 252.698728 155.337755 
L 268.137463 162.109016 
L 283.576198 165.158175 
L 299.014933 165.34415 
L 314.453668 164.868947 
L 329.892404 165.409748 
L 345.331139 165.630171 
L 360.769874 165.708312 
L 376.208609 165.839008 
L 391.647344 165.874967 
L 407.08608 165.950556 
" style="fill:none;stroke:#1b9e77;stroke-linecap:square;stroke-opacity:0.5;stroke-width:1.5;"/>
   </g>
   <g id="line2d_111">
    <path clip-path="url(#p7a5b3729e4)" d="M 51.99517 165.670159 
L 67.433906 164.763511 
L 82.872641 164.782148 
L 98.311376 164.869754 
L 113.750111 165.239173 
L 129.188846 165.501671 
L 144.627582 165.628415 
L 160.066317 165.755838 
L 175.505052 165.791067 
L 190.943787 165.827469 
L 206.382522 165.858366 
L 221.821257 165.911002 
L 237.259993 165.936569 
L 252.698728 165.949146 
L 268.137463 165.949729 
L 283.576198 165.948039 
L 299.014933 165.883711 
L 314.453668 163.752199 
L 329.892404 150.917648 
L 345.331139 130.784594 
L 360.769874 99.316916 
L 376.208609 132.642876 
L 391.647344 152.199539 
L 407.08608 162.827126 
" style="fill:none;stroke:#1b9e77;stroke-linecap:square;stroke-opacity:0.5;stroke-width:1.5;"/>
   </g>
   <g id="line2d_112">
    <path clip-path="url(#p7a5b3729e4)" d="M 51.99517 165.951175 
L 67.433906 164.871067 
L 82.872641 165.904741 
L 98.311376 165.829069 
L 113.750111 165.946845 
L 129.188846 165.792147 
L 144.627582 155.807547 
L 160.066317 163.39734 
L 175.505052 151.920921 
L 190.943787 159.597421 
L 206.382522 165.951175 
L 221.821257 165.951175 
L 237.259993 165.951175 
L 252.698728 165.951175 
L 268.137463 165.895622 
L 283.576198 165.9436 
L 299.014933 164.024284 
L 314.453668 138.969091 
L 329.892404 120.527329 
L 345.331139 148.905039 
L 360.769874 149.311134 
L 376.208609 154.954851 
L 391.647344 146.20748 
L 407.08608 164.145267 
" style="fill:none;stroke:#d95f02;stroke-linecap:square;stroke-width:1.5;"/>
   </g>
   <g id="patch_3">
    <path d="M 34.240625 173.52 
L 34.240625 7.2 
" style="fill:none;stroke:#000000;stroke-linecap:square;stroke-linejoin:miter;stroke-width:0.8;"/>
   </g>
   <g id="patch_4">
    <path d="M 34.240625 173.52 
L 424.840625 173.52 
" style="fill:none;stroke:#000000;stroke-linecap:square;stroke-linejoin:miter;stroke-width:0.8;"/>
   </g>
   <g id="legend_1">
    <g id="patch_5">
     <path d="M 366.673438 29.878125 
L 417.840625 29.878125 
Q 419.840625 29.878125 419.840625 27.878125 
L 419.840625 14.2 
Q 419.840625 12.2 417.840625 12.2 
L 366.673438 12.2 
Q 364.673438 12.2 364.673438 14.2 
L 364.673438 27.878125 
Q 364.673438 29.878125 366.673438 29.878125 
z
" style="fill:#ffffff;opacity:0.8;stroke:#cccccc;stroke-linejoin:miter;"/>
    </g>
    <g id="line2d_113">
     <path d="M 368.673438 20.298438 
L 388.673438 20.298438 
" style="fill:none;stroke:#d95f02;stroke-linecap:square;stroke-width:1.5;"/>
    </g>
    <g id="line2d_114"/>
    <g id="text_14">
     <!-- real -->
     <defs>
      <path d="M 9.421875 75.984375 
L 18.40625 75.984375 
L 18.40625 0 
L 9.421875 0 
z
" id="DejaVuSans-108"/>
     </defs>
     <g transform="translate(396.673438 23.798438)scale(0.1 -0.1)">
      <use xlink:href="#DejaVuSans-114"/>
      <use x="41.082031" xlink:href="#DejaVuSans-101"/>
      <use x="102.605469" xlink:href="#DejaVuSans-97"/>
      <use x="163.884766" xlink:href="#DejaVuSans-108"/>
     </g>
    </g>
   </g>
  </g>
 </g>
 <defs>
  <clipPath id="p7a5b3729e4">
   <rect height="166.32" width="390.6" x="34.240625" y="7.2"/>
  </clipPath>
 </defs>
</svg>
