<?xml version="1.0" encoding="utf-8" standalone="no"?>
<!DOCTYPE svg PUBLIC "-//W3C//DTD SVG 1.1//EN"
  "http://www.w3.org/Graphics/SVG/1.1/DTD/svg11.dtd">
<!-- Created with matplotlib (https://matplotlib.org/) -->
<svg height="211.07625pt" version="1.1" viewBox="0 0 436.087315 211.07625" width="436.087315pt" xmlns="http://www.w3.org/2000/svg" xmlns:xlink="http://www.w3.org/1999/xlink">
 <defs>
  <style type="text/css">
*{stroke-linecap:butt;stroke-linejoin:round;}
  </style>
 </defs>
 <g id="figure_1">
  <g id="patch_1">
   <path d="M 0 211.07625 
L 436.087315 211.07625 
L 436.087315 0 
L 0 0 
z
" style="fill:#ffffff;"/>
  </g>
  <g id="axes_1">
   <g id="patch_2">
    <path d="M 34.240625 173.52 
L 424.840625 173.52 
L 424.840625 7.2 
L 34.240625 7.2 
z
" style="fill:#ffffff;"/>
   </g>
   <g id="matplotlib.axis_1">
    <g id="xtick_1">
     <g id="line2d_1">
      <defs>
       <path d="M 0 0 
L 0 3.5 
" id="m56d39fa7cf" style="stroke:#000000;stroke-width:0.8;"/>
      </defs>
      <g>
       <use style="stroke:#000000;stroke-width:0.8;" x="36.556435" xlink:href="#m56d39fa7cf" y="173.52"/>
      </g>
     </g>
     <g id="text_1">
      <!-- 0 -->
      <defs>
       <path d="M 31.78125 66.40625 
Q 24.171875 66.40625 20.328125 58.90625 
Q 16.5 51.421875 16.5 36.375 
Q 16.5 21.390625 20.328125 13.890625 
Q 24.171875 6.390625 31.78125 6.390625 
Q 39.453125 6.390625 43.28125 13.890625 
Q 47.125 21.390625 47.125 36.375 
Q 47.125 51.421875 43.28125 58.90625 
Q 39.453125 66.40625 31.78125 66.40625 
z
M 31.78125 74.21875 
Q 44.046875 74.21875 50.515625 64.515625 
Q 56.984375 54.828125 56.984375 36.375 
Q 56.984375 17.96875 50.515625 8.265625 
Q 44.046875 -1.421875 31.78125 -1.421875 
Q 19.53125 -1.421875 13.0625 8.265625 
Q 6.59375 17.96875 6.59375 36.375 
Q 6.59375 54.828125 13.0625 64.515625 
Q 19.53125 74.21875 31.78125 74.21875 
z
" id="DejaVuSans-48"/>
      </defs>
      <g transform="translate(33.375185 188.118438)scale(0.1 -0.1)">
       <use xlink:href="#DejaVuSans-48"/>
      </g>
     </g>
    </g>
    <g id="xtick_2">
     <g id="line2d_2">
      <g>
       <use style="stroke:#000000;stroke-width:0.8;" x="113.750111" xlink:href="#m56d39fa7cf" y="173.52"/>
      </g>
     </g>
     <g id="text_2">
      <!-- 5 -->
      <defs>
       <path d="M 10.796875 72.90625 
L 49.515625 72.90625 
L 49.515625 64.59375 
L 19.828125 64.59375 
L 19.828125 46.734375 
Q 21.96875 47.46875 24.109375 47.828125 
Q 26.265625 48.1875 28.421875 48.1875 
Q 40.625 48.1875 47.75 41.5 
Q 54.890625 34.8125 54.890625 23.390625 
Q 54.890625 11.625 47.5625 5.09375 
Q 40.234375 -1.421875 26.90625 -1.421875 
Q 22.3125 -1.421875 17.546875 -0.640625 
Q 12.796875 0.140625 7.71875 1.703125 
L 7.71875 11.625 
Q 12.109375 9.234375 16.796875 8.0625 
Q 21.484375 6.890625 26.703125 6.890625 
Q 35.15625 6.890625 40.078125 11.328125 
Q 45.015625 15.765625 45.015625 23.390625 
Q 45.015625 31 40.078125 35.4375 
Q 35.15625 39.890625 26.703125 39.890625 
Q 22.75 39.890625 18.8125 39.015625 
Q 14.890625 38.140625 10.796875 36.28125 
z
" id="DejaVuSans-53"/>
      </defs>
      <g transform="translate(110.568861 188.118438)scale(0.1 -0.1)">
       <use xlink:href="#DejaVuSans-53"/>
      </g>
     </g>
    </g>
    <g id="xtick_3">
     <g id="line2d_3">
      <g>
       <use style="stroke:#000000;stroke-width:0.8;" x="190.943787" xlink:href="#m56d39fa7cf" y="173.52"/>
      </g>
     </g>
     <g id="text_3">
      <!-- 10 -->
      <defs>
       <path d="M 12.40625 8.296875 
L 28.515625 8.296875 
L 28.515625 63.921875 
L 10.984375 60.40625 
L 10.984375 69.390625 
L 28.421875 72.90625 
L 38.28125 72.90625 
L 38.28125 8.296875 
L 54.390625 8.296875 
L 54.390625 0 
L 12.40625 0 
z
" id="DejaVuSans-49"/>
      </defs>
      <g transform="translate(184.581287 188.118438)scale(0.1 -0.1)">
       <use xlink:href="#DejaVuSans-49"/>
       <use x="63.623047" xlink:href="#DejaVuSans-48"/>
      </g>
     </g>
    </g>
    <g id="xtick_4">
     <g id="line2d_4">
      <g>
       <use style="stroke:#000000;stroke-width:0.8;" x="268.137463" xlink:href="#m56d39fa7cf" y="173.52"/>
      </g>
     </g>
     <g id="text_4">
      <!-- 15 -->
      <g transform="translate(261.774963 188.118438)scale(0.1 -0.1)">
       <use xlink:href="#DejaVuSans-49"/>
       <use x="63.623047" xlink:href="#DejaVuSans-53"/>
      </g>
     </g>
    </g>
    <g id="xtick_5">
     <g id="line2d_5">
      <g>
       <use style="stroke:#000000;stroke-width:0.8;" x="345.331139" xlink:href="#m56d39fa7cf" y="173.52"/>
      </g>
     </g>
     <g id="text_5">
      <!-- 20 -->
      <defs>
       <path d="M 19.1875 8.296875 
L 53.609375 8.296875 
L 53.609375 0 
L 7.328125 0 
L 7.328125 8.296875 
Q 12.9375 14.109375 22.625 23.890625 
Q 32.328125 33.6875 34.8125 36.53125 
Q 39.546875 41.84375 41.421875 45.53125 
Q 43.3125 49.21875 43.3125 52.78125 
Q 43.3125 58.59375 39.234375 62.25 
Q 35.15625 65.921875 28.609375 65.921875 
Q 23.96875 65.921875 18.8125 64.3125 
Q 13.671875 62.703125 7.8125 59.421875 
L 7.8125 69.390625 
Q 13.765625 71.78125 18.9375 73 
Q 24.125 74.21875 28.421875 74.21875 
Q 39.75 74.21875 46.484375 68.546875 
Q 53.21875 62.890625 53.21875 53.421875 
Q 53.21875 48.921875 51.53125 44.890625 
Q 49.859375 40.875 45.40625 35.40625 
Q 44.1875 33.984375 37.640625 27.21875 
Q 31.109375 20.453125 19.1875 8.296875 
z
" id="DejaVuSans-50"/>
      </defs>
      <g transform="translate(338.968639 188.118438)scale(0.1 -0.1)">
       <use xlink:href="#DejaVuSans-50"/>
       <use x="63.623047" xlink:href="#DejaVuSans-48"/>
      </g>
     </g>
    </g>
    <g id="xtick_6">
     <g id="line2d_6">
      <g>
       <use style="stroke:#000000;stroke-width:0.8;" x="422.524815" xlink:href="#m56d39fa7cf" y="173.52"/>
      </g>
     </g>
     <g id="text_6">
      <!-- 25 -->
      <g transform="translate(416.162315 188.118438)scale(0.1 -0.1)">
       <use xlink:href="#DejaVuSans-50"/>
       <use x="63.623047" xlink:href="#DejaVuSans-53"/>
      </g>
     </g>
    </g>
    <g id="text_7">
     <!-- hour -->
     <defs>
      <path d="M 54.890625 33.015625 
L 54.890625 0 
L 45.90625 0 
L 45.90625 32.71875 
Q 45.90625 40.484375 42.875 44.328125 
Q 39.84375 48.1875 33.796875 48.1875 
Q 26.515625 48.1875 22.3125 43.546875 
Q 18.109375 38.921875 18.109375 30.90625 
L 18.109375 0 
L 9.078125 0 
L 9.078125 75.984375 
L 18.109375 75.984375 
L 18.109375 46.1875 
Q 21.34375 51.125 25.703125 53.5625 
Q 30.078125 56 35.796875 56 
Q 45.21875 56 50.046875 50.171875 
Q 54.890625 44.34375 54.890625 33.015625 
z
" id="DejaVuSans-104"/>
      <path d="M 30.609375 48.390625 
Q 23.390625 48.390625 19.1875 42.75 
Q 14.984375 37.109375 14.984375 27.296875 
Q 14.984375 17.484375 19.15625 11.84375 
Q 23.34375 6.203125 30.609375 6.203125 
Q 37.796875 6.203125 41.984375 11.859375 
Q 46.1875 17.53125 46.1875 27.296875 
Q 46.1875 37.015625 41.984375 42.703125 
Q 37.796875 48.390625 30.609375 48.390625 
z
M 30.609375 56 
Q 42.328125 56 49.015625 48.375 
Q 55.71875 40.765625 55.71875 27.296875 
Q 55.71875 13.875 49.015625 6.21875 
Q 42.328125 -1.421875 30.609375 -1.421875 
Q 18.84375 -1.421875 12.171875 6.21875 
Q 5.515625 13.875 5.515625 27.296875 
Q 5.515625 40.765625 12.171875 48.375 
Q 18.84375 56 30.609375 56 
z
" id="DejaVuSans-111"/>
      <path d="M 8.5 21.578125 
L 8.5 54.6875 
L 17.484375 54.6875 
L 17.484375 21.921875 
Q 17.484375 14.15625 20.5 10.265625 
Q 23.53125 6.390625 29.59375 6.390625 
Q 36.859375 6.390625 41.078125 11.03125 
Q 45.3125 15.671875 45.3125 23.6875 
L 45.3125 54.6875 
L 54.296875 54.6875 
L 54.296875 0 
L 45.3125 0 
L 45.3125 8.40625 
Q 42.046875 3.421875 37.71875 1 
Q 33.40625 -1.421875 27.6875 -1.421875 
Q 18.265625 -1.421875 13.375 4.4375 
Q 8.5 10.296875 8.5 21.578125 
z
M 31.109375 56 
z
" id="DejaVuSans-117"/>
      <path d="M 41.109375 46.296875 
Q 39.59375 47.171875 37.8125 47.578125 
Q 36.03125 48 33.890625 48 
Q 26.265625 48 22.1875 43.046875 
Q 18.109375 38.09375 18.109375 28.8125 
L 18.109375 0 
L 9.078125 0 
L 9.078125 54.6875 
L 18.109375 54.6875 
L 18.109375 46.1875 
Q 20.953125 51.171875 25.484375 53.578125 
Q 30.03125 56 36.53125 56 
Q 37.453125 56 38.578125 55.875 
Q 39.703125 55.765625 41.0625 55.515625 
z
" id="DejaVuSans-114"/>
     </defs>
     <g transform="translate(218.088281 201.796563)scale(0.1 -0.1)">
      <use xlink:href="#DejaVuSans-104"/>
      <use x="63.378906" xlink:href="#DejaVuSans-111"/>
      <use x="124.560547" xlink:href="#DejaVuSans-117"/>
      <use x="187.939453" xlink:href="#DejaVuSans-114"/>
     </g>
    </g>
   </g>
   <g id="matplotlib.axis_2">
    <g id="ytick_1">
     <g id="line2d_7">
      <defs>
       <path d="M 0 0 
L -3.5 0 
" id="mb820fec161" style="stroke:#000000;stroke-width:0.8;"/>
      </defs>
      <g>
       <use style="stroke:#000000;stroke-width:0.8;" x="34.240625" xlink:href="#mb820fec161" y="165.961335"/>
      </g>
     </g>
     <g id="text_8">
      <!-- 0 -->
      <g transform="translate(20.878125 169.760554)scale(0.1 -0.1)">
       <use xlink:href="#DejaVuSans-48"/>
      </g>
     </g>
    </g>
    <g id="ytick_2">
     <g id="line2d_8">
      <g>
       <use style="stroke:#000000;stroke-width:0.8;" x="34.240625" xlink:href="#mb820fec161" y="137.691627"/>
      </g>
     </g>
     <g id="text_9">
      <!-- 1 -->
      <g transform="translate(20.878125 141.490846)scale(0.1 -0.1)">
       <use xlink:href="#DejaVuSans-49"/>
      </g>
     </g>
    </g>
    <g id="ytick_3">
     <g id="line2d_9">
      <g>
       <use style="stroke:#000000;stroke-width:0.8;" x="34.240625" xlink:href="#mb820fec161" y="109.42192"/>
      </g>
     </g>
     <g id="text_10">
      <!-- 2 -->
      <g transform="translate(20.878125 113.221138)scale(0.1 -0.1)">
       <use xlink:href="#DejaVuSans-50"/>
      </g>
     </g>
    </g>
    <g id="ytick_4">
     <g id="line2d_10">
      <g>
       <use style="stroke:#000000;stroke-width:0.8;" x="34.240625" xlink:href="#mb820fec161" y="81.152212"/>
      </g>
     </g>
     <g id="text_11">
      <!-- 3 -->
      <defs>
       <path d="M 40.578125 39.3125 
Q 47.65625 37.796875 51.625 33 
Q 55.609375 28.21875 55.609375 21.1875 
Q 55.609375 10.40625 48.1875 4.484375 
Q 40.765625 -1.421875 27.09375 -1.421875 
Q 22.515625 -1.421875 17.65625 -0.515625 
Q 12.796875 0.390625 7.625 2.203125 
L 7.625 11.71875 
Q 11.71875 9.328125 16.59375 8.109375 
Q 21.484375 6.890625 26.8125 6.890625 
Q 36.078125 6.890625 40.9375 10.546875 
Q 45.796875 14.203125 45.796875 21.1875 
Q 45.796875 27.640625 41.28125 31.265625 
Q 36.765625 34.90625 28.71875 34.90625 
L 20.21875 34.90625 
L 20.21875 43.015625 
L 29.109375 43.015625 
Q 36.375 43.015625 40.234375 45.921875 
Q 44.09375 48.828125 44.09375 54.296875 
Q 44.09375 59.90625 40.109375 62.90625 
Q 36.140625 65.921875 28.71875 65.921875 
Q 24.65625 65.921875 20.015625 65.03125 
Q 15.375 64.15625 9.8125 62.3125 
L 9.8125 71.09375 
Q 15.4375 72.65625 20.34375 73.4375 
Q 25.25 74.21875 29.59375 74.21875 
Q 40.828125 74.21875 47.359375 69.109375 
Q 53.90625 64.015625 53.90625 55.328125 
Q 53.90625 49.265625 50.4375 45.09375 
Q 46.96875 40.921875 40.578125 39.3125 
z
" id="DejaVuSans-51"/>
      </defs>
      <g transform="translate(20.878125 84.95143)scale(0.1 -0.1)">
       <use xlink:href="#DejaVuSans-51"/>
      </g>
     </g>
    </g>
    <g id="ytick_5">
     <g id="line2d_11">
      <g>
       <use style="stroke:#000000;stroke-width:0.8;" x="34.240625" xlink:href="#mb820fec161" y="52.882504"/>
      </g>
     </g>
     <g id="text_12">
      <!-- 4 -->
      <defs>
       <path d="M 37.796875 64.3125 
L 12.890625 25.390625 
L 37.796875 25.390625 
z
M 35.203125 72.90625 
L 47.609375 72.90625 
L 47.609375 25.390625 
L 58.015625 25.390625 
L 58.015625 17.1875 
L 47.609375 17.1875 
L 47.609375 0 
L 37.796875 0 
L 37.796875 17.1875 
L 4.890625 17.1875 
L 4.890625 26.703125 
z
" id="DejaVuSans-52"/>
      </defs>
      <g transform="translate(20.878125 56.681722)scale(0.1 -0.1)">
       <use xlink:href="#DejaVuSans-52"/>
      </g>
     </g>
    </g>
    <g id="ytick_6">
     <g id="line2d_12">
      <g>
       <use style="stroke:#000000;stroke-width:0.8;" x="34.240625" xlink:href="#mb820fec161" y="24.612796"/>
      </g>
     </g>
     <g id="text_13">
      <!-- 5 -->
      <g transform="translate(20.878125 28.412014)scale(0.1 -0.1)">
       <use xlink:href="#DejaVuSans-53"/>
      </g>
     </g>
    </g>
    <g id="text_14">
     <!-- precipitation [mm/hour] -->
     <defs>
      <path d="M 18.109375 8.203125 
L 18.109375 -20.796875 
L 9.078125 -20.796875 
L 9.078125 54.6875 
L 18.109375 54.6875 
L 18.109375 46.390625 
Q 20.953125 51.265625 25.265625 53.625 
Q 29.59375 56 35.59375 56 
Q 45.5625 56 51.78125 48.09375 
Q 58.015625 40.1875 58.015625 27.296875 
Q 58.015625 14.40625 51.78125 6.484375 
Q 45.5625 -1.421875 35.59375 -1.421875 
Q 29.59375 -1.421875 25.265625 0.953125 
Q 20.953125 3.328125 18.109375 8.203125 
z
M 48.6875 27.296875 
Q 48.6875 37.203125 44.609375 42.84375 
Q 40.53125 48.484375 33.40625 48.484375 
Q 26.265625 48.484375 22.1875 42.84375 
Q 18.109375 37.203125 18.109375 27.296875 
Q 18.109375 17.390625 22.1875 11.75 
Q 26.265625 6.109375 33.40625 6.109375 
Q 40.53125 6.109375 44.609375 11.75 
Q 48.6875 17.390625 48.6875 27.296875 
z
" id="DejaVuSans-112"/>
      <path d="M 56.203125 29.59375 
L 56.203125 25.203125 
L 14.890625 25.203125 
Q 15.484375 15.921875 20.484375 11.0625 
Q 25.484375 6.203125 34.421875 6.203125 
Q 39.59375 6.203125 44.453125 7.46875 
Q 49.3125 8.734375 54.109375 11.28125 
L 54.109375 2.78125 
Q 49.265625 0.734375 44.1875 -0.34375 
Q 39.109375 -1.421875 33.890625 -1.421875 
Q 20.796875 -1.421875 13.15625 6.1875 
Q 5.515625 13.8125 5.515625 26.8125 
Q 5.515625 40.234375 12.765625 48.109375 
Q 20.015625 56 32.328125 56 
Q 43.359375 56 49.78125 48.890625 
Q 56.203125 41.796875 56.203125 29.59375 
z
M 47.21875 32.234375 
Q 47.125 39.59375 43.09375 43.984375 
Q 39.0625 48.390625 32.421875 48.390625 
Q 24.90625 48.390625 20.390625 44.140625 
Q 15.875 39.890625 15.1875 32.171875 
z
" id="DejaVuSans-101"/>
      <path d="M 48.78125 52.59375 
L 48.78125 44.1875 
Q 44.96875 46.296875 41.140625 47.34375 
Q 37.3125 48.390625 33.40625 48.390625 
Q 24.65625 48.390625 19.8125 42.84375 
Q 14.984375 37.3125 14.984375 27.296875 
Q 14.984375 17.28125 19.8125 11.734375 
Q 24.65625 6.203125 33.40625 6.203125 
Q 37.3125 6.203125 41.140625 7.25 
Q 44.96875 8.296875 48.78125 10.40625 
L 48.78125 2.09375 
Q 45.015625 0.34375 40.984375 -0.53125 
Q 36.96875 -1.421875 32.421875 -1.421875 
Q 20.0625 -1.421875 12.78125 6.34375 
Q 5.515625 14.109375 5.515625 27.296875 
Q 5.515625 40.671875 12.859375 48.328125 
Q 20.21875 56 33.015625 56 
Q 37.15625 56 41.109375 55.140625 
Q 45.0625 54.296875 48.78125 52.59375 
z
" id="DejaVuSans-99"/>
      <path d="M 9.421875 54.6875 
L 18.40625 54.6875 
L 18.40625 0 
L 9.421875 0 
z
M 9.421875 75.984375 
L 18.40625 75.984375 
L 18.40625 64.59375 
L 9.421875 64.59375 
z
" id="DejaVuSans-105"/>
      <path d="M 18.3125 70.21875 
L 18.3125 54.6875 
L 36.8125 54.6875 
L 36.8125 47.703125 
L 18.3125 47.703125 
L 18.3125 18.015625 
Q 18.3125 11.328125 20.140625 9.421875 
Q 21.96875 7.515625 27.59375 7.515625 
L 36.8125 7.515625 
L 36.8125 0 
L 27.59375 0 
Q 17.1875 0 13.234375 3.875 
Q 9.28125 7.765625 9.28125 18.015625 
L 9.28125 47.703125 
L 2.6875 47.703125 
L 2.6875 54.6875 
L 9.28125 54.6875 
L 9.28125 70.21875 
z
" id="DejaVuSans-116"/>
      <path d="M 34.28125 27.484375 
Q 23.390625 27.484375 19.1875 25 
Q 14.984375 22.515625 14.984375 16.5 
Q 14.984375 11.71875 18.140625 8.90625 
Q 21.296875 6.109375 26.703125 6.109375 
Q 34.1875 6.109375 38.703125 11.40625 
Q 43.21875 16.703125 43.21875 25.484375 
L 43.21875 27.484375 
z
M 52.203125 31.203125 
L 52.203125 0 
L 43.21875 0 
L 43.21875 8.296875 
Q 40.140625 3.328125 35.546875 0.953125 
Q 30.953125 -1.421875 24.3125 -1.421875 
Q 15.921875 -1.421875 10.953125 3.296875 
Q 6 8.015625 6 15.921875 
Q 6 25.140625 12.171875 29.828125 
Q 18.359375 34.515625 30.609375 34.515625 
L 43.21875 34.515625 
L 43.21875 35.40625 
Q 43.21875 41.609375 39.140625 45 
Q 35.0625 48.390625 27.6875 48.390625 
Q 23 48.390625 18.546875 47.265625 
Q 14.109375 46.140625 10.015625 43.890625 
L 10.015625 52.203125 
Q 14.9375 54.109375 19.578125 55.046875 
Q 24.21875 56 28.609375 56 
Q 40.484375 56 46.34375 49.84375 
Q 52.203125 43.703125 52.203125 31.203125 
z
" id="DejaVuSans-97"/>
      <path d="M 54.890625 33.015625 
L 54.890625 0 
L 45.90625 0 
L 45.90625 32.71875 
Q 45.90625 40.484375 42.875 44.328125 
Q 39.84375 48.1875 33.796875 48.1875 
Q 26.515625 48.1875 22.3125 43.546875 
Q 18.109375 38.921875 18.109375 30.90625 
L 18.109375 0 
L 9.078125 0 
L 9.078125 54.6875 
L 18.109375 54.6875 
L 18.109375 46.1875 
Q 21.34375 51.125 25.703125 53.5625 
Q 30.078125 56 35.796875 56 
Q 45.21875 56 50.046875 50.171875 
Q 54.890625 44.34375 54.890625 33.015625 
z
" id="DejaVuSans-110"/>
      <path id="DejaVuSans-32"/>
      <path d="M 8.59375 75.984375 
L 29.296875 75.984375 
L 29.296875 69 
L 17.578125 69 
L 17.578125 -6.203125 
L 29.296875 -6.203125 
L 29.296875 -13.1875 
L 8.59375 -13.1875 
z
" id="DejaVuSans-91"/>
      <path d="M 52 44.1875 
Q 55.375 50.25 60.0625 53.125 
Q 64.75 56 71.09375 56 
Q 79.640625 56 84.28125 50.015625 
Q 88.921875 44.046875 88.921875 33.015625 
L 88.921875 0 
L 79.890625 0 
L 79.890625 32.71875 
Q 79.890625 40.578125 77.09375 44.375 
Q 74.3125 48.1875 68.609375 48.1875 
Q 61.625 48.1875 57.5625 43.546875 
Q 53.515625 38.921875 53.515625 30.90625 
L 53.515625 0 
L 44.484375 0 
L 44.484375 32.71875 
Q 44.484375 40.625 41.703125 44.40625 
Q 38.921875 48.1875 33.109375 48.1875 
Q 26.21875 48.1875 22.15625 43.53125 
Q 18.109375 38.875 18.109375 30.90625 
L 18.109375 0 
L 9.078125 0 
L 9.078125 54.6875 
L 18.109375 54.6875 
L 18.109375 46.1875 
Q 21.1875 51.21875 25.484375 53.609375 
Q 29.78125 56 35.6875 56 
Q 41.65625 56 45.828125 52.96875 
Q 50 49.953125 52 44.1875 
z
" id="DejaVuSans-109"/>
      <path d="M 25.390625 72.90625 
L 33.6875 72.90625 
L 8.296875 -9.28125 
L 0 -9.28125 
z
" id="DejaVuSans-47"/>
      <path d="M 30.421875 75.984375 
L 30.421875 -13.1875 
L 9.71875 -13.1875 
L 9.71875 -6.203125 
L 21.390625 -6.203125 
L 21.390625 69 
L 9.71875 69 
L 9.71875 75.984375 
z
" id="DejaVuSans-93"/>
     </defs>
     <g transform="translate(14.798438 150.335781)rotate(-90)scale(0.1 -0.1)">
      <use xlink:href="#DejaVuSans-112"/>
      <use x="63.476562" xlink:href="#DejaVuSans-114"/>
      <use x="104.558594" xlink:href="#DejaVuSans-101"/>
      <use x="166.082031" xlink:href="#DejaVuSans-99"/>
      <use x="221.0625" xlink:href="#DejaVuSans-105"/>
      <use x="248.845703" xlink:href="#DejaVuSans-112"/>
      <use x="312.322266" xlink:href="#DejaVuSans-105"/>
      <use x="340.105469" xlink:href="#DejaVuSans-116"/>
      <use x="379.314453" xlink:href="#DejaVuSans-97"/>
      <use x="440.59375" xlink:href="#DejaVuSans-116"/>
      <use x="479.802734" xlink:href="#DejaVuSans-105"/>
      <use x="507.585938" xlink:href="#DejaVuSans-111"/>
      <use x="568.767578" xlink:href="#DejaVuSans-110"/>
      <use x="632.146484" xlink:href="#DejaVuSans-32"/>
      <use x="663.933594" xlink:href="#DejaVuSans-91"/>
      <use x="702.947266" xlink:href="#DejaVuSans-109"/>
      <use x="800.359375" xlink:href="#DejaVuSans-109"/>
      <use x="897.771484" xlink:href="#DejaVuSans-47"/>
      <use x="931.462891" xlink:href="#DejaVuSans-104"/>
      <use x="994.841797" xlink:href="#DejaVuSans-111"/>
      <use x="1056.023438" xlink:href="#DejaVuSans-117"/>
      <use x="1119.402344" xlink:href="#DejaVuSans-114"/>
      <use x="1160.515625" xlink:href="#DejaVuSans-93"/>
     </g>
    </g>
   </g>
   <g id="line2d_13">
    <path clip-path="url(#p65c6fce586)" d="M 51.99517 165.933894 
L 67.433906 165.91135 
L 82.872641 165.922765 
L 98.311376 165.948674 
L 113.750111 165.949862 
L 129.188846 165.955774 
L 144.627582 165.861799 
L 160.066317 163.086008 
L 175.505052 163.421601 
L 190.943787 162.917649 
L 206.382522 160.639415 
L 221.821257 162.313189 
L 237.259993 163.96134 
L 252.698728 162.453722 
L 268.137463 157.002912 
L 283.576198 135.991908 
L 299.014933 72.897657 
L 314.453668 147.416861 
L 329.892404 161.671299 
L 345.331139 161.851291 
L 360.769874 159.268974 
L 376.208609 156.950054 
L 391.647344 156.617672 
L 407.08608 164.100411 
" style="fill:none;stroke:#1b9e77;stroke-linecap:square;stroke-opacity:0.5;stroke-width:1.5;"/>
   </g>
   <g id="line2d_14">
    <path clip-path="url(#p65c6fce586)" d="M 51.99517 165.601299 
L 67.433906 163.835534 
L 82.872641 161.554803 
L 98.311376 160.412561 
L 113.750111 121.774951 
L 129.188846 124.621448 
L 144.627582 149.698358 
L 160.066317 162.012182 
L 175.505052 162.490926 
L 190.943787 158.914053 
L 206.382522 151.678422 
L 221.821257 159.497022 
L 237.259993 163.645782 
L 252.698728 160.487026 
L 268.137463 158.045575 
L 283.576198 161.703727 
L 299.014933 162.328697 
L 314.453668 160.242763 
L 329.892404 159.43165 
L 345.331139 163.149585 
L 360.769874 164.573481 
L 376.208609 151.27768 
L 391.647344 161.716655 
L 407.08608 165.35191 
" style="fill:none;stroke:#1b9e77;stroke-linecap:square;stroke-opacity:0.5;stroke-width:1.5;"/>
   </g>
   <g id="line2d_15">
    <path clip-path="url(#p65c6fce586)" d="M 51.99517 165.89523 
L 67.433906 165.921535 
L 82.872641 165.862563 
L 98.311376 165.899294 
L 113.750111 165.808652 
L 129.188846 165.330744 
L 144.627582 162.886812 
L 160.066317 155.583121 
L 175.505052 89.365476 
L 190.943787 146.892348 
L 206.382522 160.396812 
L 221.821257 159.447352 
L 237.259993 159.663606 
L 252.698728 160.724576 
L 268.137463 164.003222 
L 283.576198 164.960274 
L 299.014933 165.06816 
L 314.453668 163.335418 
L 329.892404 162.131087 
L 345.331139 160.009248 
L 360.769874 133.823905 
L 376.208609 148.402118 
L 391.647344 158.102425 
L 407.08608 164.532118 
" style="fill:none;stroke:#1b9e77;stroke-linecap:square;stroke-opacity:0.5;stroke-width:1.5;"/>
   </g>
   <g id="line2d_16">
    <path clip-path="url(#p65c6fce586)" d="M 51.99517 165.78354 
L 67.433906 165.400251 
L 82.872641 163.589279 
L 98.311376 163.869103 
L 113.750111 152.446434 
L 129.188846 137.877042 
L 144.627582 162.981705 
L 160.066317 165.189979 
L 175.505052 165.440801 
L 190.943787 165.156349 
L 206.382522 165.587154 
L 221.821257 164.397045 
L 237.259993 159.834751 
L 252.698728 162.28867 
L 268.137463 158.069253 
L 283.576198 157.159913 
L 299.014933 162.737199 
L 314.453668 163.894329 
L 329.892404 163.483314 
L 345.331139 158.553149 
L 360.769874 64.671984 
L 376.208609 155.576401 
L 391.647344 165.213286 
L 407.08608 164.84516 
" style="fill:none;stroke:#1b9e77;stroke-linecap:square;stroke-opacity:0.5;stroke-width:1.5;"/>
   </g>
   <g id="line2d_17">
    <path clip-path="url(#p65c6fce586)" d="M 51.99517 165.935629 
L 67.433906 164.390213 
L 82.872641 120.258995 
L 98.311376 125.998323 
L 113.750111 155.776601 
L 129.188846 164.81643 
L 144.627582 164.6404 
L 160.066317 161.318162 
L 175.505052 159.074785 
L 190.943787 162.449055 
L 206.382522 163.339028 
L 221.821257 161.665754 
L 237.259993 160.913523 
L 252.698728 160.655434 
L 268.137463 156.150541 
L 283.576198 159.833719 
L 299.014933 160.054492 
L 314.453668 149.796258 
L 329.892404 154.518341 
L 345.331139 156.674536 
L 360.769874 158.759327 
L 376.208609 159.890793 
L 391.647344 162.038232 
L 407.08608 165.097517 
" style="fill:none;stroke:#1b9e77;stroke-linecap:square;stroke-opacity:0.5;stroke-width:1.5;"/>
   </g>
   <g id="line2d_18">
    <path clip-path="url(#p65c6fce586)" d="M 51.99517 159.653163 
L 67.433906 158.343724 
L 82.872641 158.606429 
L 98.311376 146.975279 
L 113.750111 160.433899 
L 129.188846 156.647292 
L 144.627582 165.255127 
L 160.066317 165.743552 
L 175.505052 165.722731 
L 190.943787 165.60043 
L 206.382522 164.788487 
L 221.821257 159.423898 
L 237.259993 154.943394 
L 252.698728 154.966717 
L 268.137463 147.326732 
L 283.576198 140.95604 
L 299.014933 146.812952 
L 314.453668 145.745937 
L 329.892404 156.305121 
L 345.331139 161.104805 
L 360.769874 161.102545 
L 376.208609 160.101068 
L 391.647344 153.536092 
L 407.08608 163.95068 
" style="fill:none;stroke:#1b9e77;stroke-linecap:square;stroke-opacity:0.5;stroke-width:1.5;"/>
   </g>
   <g id="line2d_19">
    <path clip-path="url(#p65c6fce586)" d="M 51.99517 155.510227 
L 67.433906 164.216622 
L 82.872641 165.155651 
L 98.311376 165.244066 
L 113.750111 165.450429 
L 129.188846 165.644944 
L 144.627582 165.790442 
L 160.066317 165.857168 
L 175.505052 165.84684 
L 190.943787 165.889295 
L 206.382522 165.917158 
L 221.821257 165.927329 
L 237.259993 165.883707 
L 252.698728 165.613946 
L 268.137463 65.908624 
L 283.576198 115.739387 
L 299.014933 159.072267 
L 314.453668 157.964762 
L 329.892404 158.308756 
L 345.331139 164.484278 
L 360.769874 164.679996 
L 376.208609 164.428427 
L 391.647344 150.727585 
L 407.08608 164.784189 
" style="fill:none;stroke:#1b9e77;stroke-linecap:square;stroke-opacity:0.5;stroke-width:1.5;"/>
   </g>
   <g id="line2d_20">
    <path clip-path="url(#p65c6fce586)" d="M 51.99517 165.231292 
L 67.433906 165.136383 
L 82.872641 163.490008 
L 98.311376 150.404367 
L 113.750111 139.405396 
L 129.188846 150.399349 
L 144.627582 162.193443 
L 160.066317 161.920155 
L 175.505052 86.79928 
L 190.943787 160.346826 
L 206.382522 165.616895 
L 221.821257 163.768219 
L 237.259993 161.917808 
L 252.698728 161.316665 
L 268.137463 165.008781 
L 283.576198 158.608996 
L 299.014933 160.856763 
L 314.453668 165.137191 
L 329.892404 165.412638 
L 345.331139 165.383008 
L 360.769874 159.339038 
L 376.208609 157.152254 
L 391.647344 156.360793 
L 407.08608 162.840546 
" style="fill:none;stroke:#1b9e77;stroke-linecap:square;stroke-opacity:0.5;stroke-width:1.5;"/>
   </g>
   <g id="line2d_21">
    <path clip-path="url(#p65c6fce586)" d="M 51.99517 165.923668 
L 67.433906 165.897287 
L 82.872641 165.889292 
L 98.311376 165.934237 
L 113.750111 165.941008 
L 129.188846 165.652855 
L 144.627582 163.859413 
L 160.066317 153.780325 
L 175.505052 139.364024 
L 190.943787 85.806494 
L 206.382522 150.674854 
L 221.821257 100.854743 
L 237.259993 163.470977 
L 252.698728 165.420504 
L 268.137463 165.689603 
L 283.576198 165.818349 
L 299.014933 165.863791 
L 314.453668 165.880008 
L 329.892404 165.856082 
L 345.331139 165.915802 
L 360.769874 165.943983 
L 376.208609 165.391877 
L 391.647344 164.123265 
L 407.08608 165.093655 
" style="fill:none;stroke:#1b9e77;stroke-linecap:square;stroke-opacity:0.5;stroke-width:1.5;"/>
   </g>
   <g id="line2d_22">
    <path clip-path="url(#p65c6fce586)" d="M 51.99517 165.920011 
L 67.433906 165.949053 
L 82.872641 165.828745 
L 98.311376 165.257485 
L 113.750111 133.861184 
L 129.188846 155.826232 
L 144.627582 163.369084 
L 160.066317 161.676681 
L 175.505052 149.216522 
L 190.943787 97.772645 
L 206.382522 126.655779 
L 221.821257 135.922509 
L 237.259993 162.078271 
L 252.698728 165.6547 
L 268.137463 165.84746 
L 283.576198 165.885242 
L 299.014933 165.875896 
L 314.453668 165.906847 
L 329.892404 165.929376 
L 345.331139 165.942289 
L 360.769874 165.94658 
L 376.208609 165.957531 
L 391.647344 165.958131 
L 407.08608 165.807835 
" style="fill:none;stroke:#1b9e77;stroke-linecap:square;stroke-opacity:0.5;stroke-width:1.5;"/>
   </g>
   <g id="line2d_23">
    <path clip-path="url(#p65c6fce586)" d="M 51.99517 163.116696 
L 67.433906 164.007655 
L 82.872641 165.077567 
L 98.311376 165.110924 
L 113.750111 162.333752 
L 129.188846 136.936843 
L 144.627582 155.756402 
L 160.066317 145.253518 
L 175.505052 153.147531 
L 190.943787 152.878463 
L 206.382522 158.268687 
L 221.821257 156.244695 
L 237.259993 146.826939 
L 252.698728 143.964203 
L 268.137463 146.042279 
L 283.576198 154.786474 
L 299.014933 162.046851 
L 314.453668 156.360187 
L 329.892404 162.053998 
L 345.331139 163.090234 
L 360.769874 164.511416 
L 376.208609 165.245989 
L 391.647344 165.060312 
L 407.08608 165.924474 
" style="fill:none;stroke:#1b9e77;stroke-linecap:square;stroke-opacity:0.5;stroke-width:1.5;"/>
   </g>
   <g id="line2d_24">
    <path clip-path="url(#p65c6fce586)" d="M 51.99517 165.904685 
L 67.433906 165.865411 
L 82.872641 165.872934 
L 98.311376 165.047961 
L 113.750111 162.796438 
L 129.188846 161.177872 
L 144.627582 150.539599 
L 160.066317 143.493837 
L 175.505052 138.182719 
L 190.943787 147.332694 
L 206.382522 149.063166 
L 221.821257 148.828768 
L 237.259993 133.893877 
L 252.698728 149.564103 
L 268.137463 156.281296 
L 283.576198 158.855146 
L 299.014933 155.445045 
L 314.453668 161.158103 
L 329.892404 165.467477 
L 345.331139 165.730376 
L 360.769874 165.805723 
L 376.208609 165.891654 
L 391.647344 165.91429 
L 407.08608 165.932917 
" style="fill:none;stroke:#1b9e77;stroke-linecap:square;stroke-opacity:0.5;stroke-width:1.5;"/>
   </g>
   <g id="line2d_25">
    <path clip-path="url(#p65c6fce586)" d="M 51.99517 165.808718 
L 67.433906 165.910638 
L 82.872641 165.775872 
L 98.311376 165.223114 
L 113.750111 139.893489 
L 129.188846 164.834475 
L 144.627582 165.822367 
L 160.066317 163.423401 
L 175.505052 72.034132 
L 190.943787 95.73405 
L 206.382522 164.897455 
L 221.821257 165.663494 
L 237.259993 164.259143 
L 252.698728 165.17035 
L 268.137463 161.206635 
L 283.576198 164.380759 
L 299.014933 165.90265 
L 314.453668 165.875113 
L 329.892404 165.138363 
L 345.331139 165.912226 
L 360.769874 165.853123 
L 376.208609 164.172032 
L 391.647344 165.42226 
L 407.08608 165.732232 
" style="fill:none;stroke:#1b9e77;stroke-linecap:square;stroke-opacity:0.5;stroke-width:1.5;"/>
   </g>
   <g id="line2d_26">
    <path clip-path="url(#p65c6fce586)" d="M 51.99517 165.7457 
L 67.433906 165.64947 
L 82.872641 165.70817 
L 98.311376 165.882506 
L 113.750111 165.930686 
L 129.188846 165.942314 
L 144.627582 165.939409 
L 160.066317 165.942681 
L 175.505052 165.94945 
L 190.943787 165.95348 
L 206.382522 165.947869 
L 221.821257 165.941092 
L 237.259993 165.914626 
L 252.698728 165.91297 
L 268.137463 161.89061 
L 283.576198 132.258579 
L 299.014933 149.134144 
L 314.453668 134.873523 
L 329.892404 94.489438 
L 345.331139 139.664109 
L 360.769874 156.260056 
L 376.208609 160.388312 
L 391.647344 162.318097 
L 407.08608 160.4088 
" style="fill:none;stroke:#1b9e77;stroke-linecap:square;stroke-opacity:0.5;stroke-width:1.5;"/>
   </g>
   <g id="line2d_27">
    <path clip-path="url(#p65c6fce586)" d="M 51.99517 163.460932 
L 67.433906 160.977527 
L 82.872641 157.857028 
L 98.311376 154.371672 
L 113.750111 157.734934 
L 129.188846 155.585261 
L 144.627582 155.581397 
L 160.066317 164.896122 
L 175.505052 165.642899 
L 190.943787 163.365544 
L 206.382522 161.344675 
L 221.821257 165.492585 
L 237.259993 165.684775 
L 252.698728 165.741066 
L 268.137463 165.605633 
L 283.576198 162.399051 
L 299.014933 147.641783 
L 314.453668 164.784811 
L 329.892404 165.259561 
L 345.331139 144.562766 
L 360.769874 155.972273 
L 376.208609 126.368991 
L 391.647344 119.760593 
L 407.08608 163.954213 
" style="fill:none;stroke:#1b9e77;stroke-linecap:square;stroke-opacity:0.5;stroke-width:1.5;"/>
   </g>
   <g id="line2d_28">
    <path clip-path="url(#p65c6fce586)" d="M 51.99517 161.603189 
L 67.433906 164.123861 
L 82.872641 164.886556 
L 98.311376 165.331747 
L 113.750111 165.504102 
L 129.188846 165.8127 
L 144.627582 165.916524 
L 160.066317 165.934219 
L 175.505052 165.93066 
L 190.943787 165.937083 
L 206.382522 165.940847 
L 221.821257 165.940918 
L 237.259993 165.936237 
L 252.698728 165.942102 
L 268.137463 165.929805 
L 283.576198 165.781844 
L 299.014933 164.570484 
L 314.453668 161.503868 
L 329.892404 149.207812 
L 345.331139 135.901797 
L 360.769874 118.851341 
L 376.208609 107.675478 
L 391.647344 130.232895 
L 407.08608 159.650019 
" style="fill:none;stroke:#1b9e77;stroke-linecap:square;stroke-opacity:0.5;stroke-width:1.5;"/>
   </g>
   <g id="line2d_29">
    <path clip-path="url(#p65c6fce586)" d="M 51.99517 165.870149 
L 67.433906 165.850873 
L 82.872641 165.89355 
L 98.311376 165.938671 
L 113.750111 165.948018 
L 129.188846 165.954266 
L 144.627582 165.95593 
L 160.066317 165.957879 
L 175.505052 165.95668 
L 190.943787 165.952201 
L 206.382522 165.939677 
L 221.821257 165.859413 
L 237.259993 156.035054 
L 252.698728 143.855767 
L 268.137463 148.600533 
L 283.576198 144.481076 
L 299.014933 127.415464 
L 314.453668 114.933432 
L 329.892404 128.976373 
L 345.331139 155.834123 
L 360.769874 165.670768 
L 376.208609 165.565933 
L 391.647344 165.702879 
L 407.08608 165.897381 
" style="fill:none;stroke:#1b9e77;stroke-linecap:square;stroke-opacity:0.5;stroke-width:1.5;"/>
   </g>
   <g id="line2d_30">
    <path clip-path="url(#p65c6fce586)" d="M 51.99517 129.297154 
L 67.433906 138.093977 
L 82.872641 153.246005 
L 98.311376 161.788161 
L 113.750111 162.591992 
L 129.188846 163.780345 
L 144.627582 164.394057 
L 160.066317 165.058949 
L 175.505052 161.899398 
L 190.943787 143.873803 
L 206.382522 160.862227 
L 221.821257 163.034567 
L 237.259993 161.9212 
L 252.698728 161.006727 
L 268.137463 161.879431 
L 283.576198 157.065316 
L 299.014933 144.983782 
L 314.453668 149.622811 
L 329.892404 159.554053 
L 345.331139 163.243127 
L 360.769874 163.982357 
L 376.208609 164.857229 
L 391.647344 165.080487 
L 407.08608 152.928939 
" style="fill:none;stroke:#1b9e77;stroke-linecap:square;stroke-opacity:0.5;stroke-width:1.5;"/>
   </g>
   <g id="line2d_31">
    <path clip-path="url(#p65c6fce586)" d="M 51.99517 165.065283 
L 67.433906 164.863322 
L 82.872641 163.771494 
L 98.311376 159.585454 
L 113.750111 117.747426 
L 129.188846 63.037144 
L 144.627582 150.52652 
L 160.066317 153.051514 
L 175.505052 164.593156 
L 190.943787 164.894526 
L 206.382522 165.178436 
L 221.821257 153.285168 
L 237.259993 164.067272 
L 252.698728 165.859143 
L 268.137463 165.891134 
L 283.576198 165.90432 
L 299.014933 165.910869 
L 314.453668 165.865046 
L 329.892404 165.916484 
L 345.331139 165.917172 
L 360.769874 165.928206 
L 376.208609 165.945335 
L 391.647344 165.81956 
L 407.08608 165.422105 
" style="fill:none;stroke:#1b9e77;stroke-linecap:square;stroke-opacity:0.5;stroke-width:1.5;"/>
   </g>
   <g id="line2d_32">
    <path clip-path="url(#p65c6fce586)" d="M 51.99517 165.907753 
L 67.433906 165.876805 
L 82.872641 165.834674 
L 98.311376 165.845377 
L 113.750111 165.786895 
L 129.188846 165.2198 
L 144.627582 149.634698 
L 160.066317 133.399301 
L 175.505052 143.849948 
L 190.943787 161.473937 
L 206.382522 161.384293 
L 221.821257 160.910856 
L 237.259993 165.733303 
L 252.698728 165.877055 
L 268.137463 165.888789 
L 283.576198 165.909772 
L 299.014933 165.576344 
L 314.453668 162.639406 
L 329.892404 149.803015 
L 345.331139 120.666139 
L 360.769874 138.276474 
L 376.208609 149.019 
L 391.647344 161.446539 
L 407.08608 158.085917 
" style="fill:none;stroke:#1b9e77;stroke-linecap:square;stroke-opacity:0.5;stroke-width:1.5;"/>
   </g>
   <g id="line2d_33">
    <path clip-path="url(#p65c6fce586)" d="M 51.99517 165.895961 
L 67.433906 165.944399 
L 82.872641 165.62258 
L 98.311376 164.181657 
L 113.750111 161.509634 
L 129.188846 135.031077 
L 144.627582 135.987996 
L 160.066317 149.989559 
L 175.505052 142.4465 
L 190.943787 129.31548 
L 206.382522 120.290561 
L 221.821257 157.784859 
L 237.259993 165.668248 
L 252.698728 165.734304 
L 268.137463 165.713929 
L 283.576198 165.330178 
L 299.014933 161.982906 
L 314.453668 165.6822 
L 329.892404 165.892304 
L 345.331139 165.846469 
L 360.769874 164.484133 
L 376.208609 164.078157 
L 391.647344 164.203442 
L 407.08608 165.429559 
" style="fill:none;stroke:#1b9e77;stroke-linecap:square;stroke-opacity:0.5;stroke-width:1.5;"/>
   </g>
   <g id="line2d_34">
    <path clip-path="url(#p65c6fce586)" d="M 51.99517 165.825147 
L 67.433906 165.731832 
L 82.872641 165.825597 
L 98.311376 165.935625 
L 113.750111 165.938786 
L 129.188846 165.859206 
L 144.627582 164.664683 
L 160.066317 157.988509 
L 175.505052 136.587443 
L 190.943787 120.217018 
L 206.382522 133.989747 
L 221.821257 141.785525 
L 237.259993 135.506754 
L 252.698728 137.882812 
L 268.137463 159.640397 
L 283.576198 165.421237 
L 299.014933 165.919315 
L 314.453668 165.9257 
L 329.892404 165.921769 
L 345.331139 165.917436 
L 360.769874 165.617334 
L 376.208609 165.834251 
L 391.647344 164.22569 
L 407.08608 165.884283 
" style="fill:none;stroke:#1b9e77;stroke-linecap:square;stroke-opacity:0.5;stroke-width:1.5;"/>
   </g>
   <g id="line2d_35">
    <path clip-path="url(#p65c6fce586)" d="M 51.99517 165.924505 
L 67.433906 165.826099 
L 82.872641 161.789149 
L 98.311376 153.7823 
L 113.750111 163.788788 
L 129.188846 164.844017 
L 144.627582 162.708699 
L 160.066317 157.010748 
L 175.505052 154.183942 
L 190.943787 156.819048 
L 206.382522 150.820118 
L 221.821257 137.541285 
L 237.259993 144.413756 
L 252.698728 140.403249 
L 268.137463 127.358932 
L 283.576198 162.245891 
L 299.014933 164.507978 
L 314.453668 148.438696 
L 329.892404 165.676333 
L 345.331139 165.809604 
L 360.769874 165.688927 
L 376.208609 165.881691 
L 391.647344 165.725121 
L 407.08608 162.857216 
" style="fill:none;stroke:#1b9e77;stroke-linecap:square;stroke-opacity:0.5;stroke-width:1.5;"/>
   </g>
   <g id="line2d_36">
    <path clip-path="url(#p65c6fce586)" d="M 51.99517 130.350387 
L 67.433906 131.87552 
L 82.872641 137.375284 
L 98.311376 153.83803 
L 113.750111 157.925322 
L 129.188846 163.469166 
L 144.627582 164.943653 
L 160.066317 165.226046 
L 175.505052 165.100752 
L 190.943787 165.409634 
L 206.382522 165.623057 
L 221.821257 165.574528 
L 237.259993 165.602781 
L 252.698728 165.25844 
L 268.137463 164.287307 
L 283.576198 164.243411 
L 299.014933 164.715997 
L 314.453668 164.853708 
L 329.892404 164.669807 
L 345.331139 164.384931 
L 360.769874 164.334673 
L 376.208609 165.619499 
L 391.647344 165.654115 
L 407.08608 93.710035 
" style="fill:none;stroke:#1b9e77;stroke-linecap:square;stroke-opacity:0.5;stroke-width:1.5;"/>
   </g>
   <g id="line2d_37">
    <path clip-path="url(#p65c6fce586)" d="M 51.99517 165.812951 
L 67.433906 165.764288 
L 82.872641 165.783241 
L 98.311376 165.919723 
L 113.750111 165.939897 
L 129.188846 165.942836 
L 144.627582 165.27587 
L 160.066317 138.266161 
L 175.505052 135.073229 
L 190.943787 127.842869 
L 206.382522 146.626523 
L 221.821257 151.29496 
L 237.259993 142.178744 
L 252.698728 156.593173 
L 268.137463 163.346226 
L 283.576198 165.014051 
L 299.014933 165.542484 
L 314.453668 164.527565 
L 329.892404 160.749734 
L 345.331139 153.950858 
L 360.769874 153.221292 
L 376.208609 160.820029 
L 391.647344 163.261914 
L 407.08608 165.29747 
" style="fill:none;stroke:#1b9e77;stroke-linecap:square;stroke-opacity:0.5;stroke-width:1.5;"/>
   </g>
   <g id="line2d_38">
    <path clip-path="url(#p65c6fce586)" d="M 51.99517 165.852322 
L 67.433906 165.323558 
L 82.872641 163.616292 
L 98.311376 148.277977 
L 113.750111 151.017389 
L 129.188846 161.882132 
L 144.627582 163.152584 
L 160.066317 151.415928 
L 175.505052 154.196559 
L 190.943787 159.473799 
L 206.382522 161.315363 
L 221.821257 151.793283 
L 237.259993 109.906153 
L 252.698728 139.464783 
L 268.137463 156.485071 
L 283.576198 146.740412 
L 299.014933 162.891133 
L 314.453668 165.702532 
L 329.892404 165.859628 
L 345.331139 165.935714 
L 360.769874 165.943291 
L 376.208609 165.952569 
L 391.647344 165.951145 
L 407.08608 165.896468 
" style="fill:none;stroke:#1b9e77;stroke-linecap:square;stroke-opacity:0.5;stroke-width:1.5;"/>
   </g>
   <g id="line2d_39">
    <path clip-path="url(#p65c6fce586)" d="M 51.99517 165.936418 
L 67.433906 165.904939 
L 82.872641 165.90693 
L 98.311376 165.942358 
L 113.750111 165.947498 
L 129.188846 165.950972 
L 144.627582 165.923194 
L 160.066317 165.632538 
L 175.505052 163.891932 
L 190.943787 160.174724 
L 206.382522 142.473735 
L 221.821257 141.020097 
L 237.259993 141.638956 
L 252.698728 146.768849 
L 268.137463 153.785168 
L 283.576198 156.957283 
L 299.014933 157.297333 
L 314.453668 150.47787 
L 329.892404 152.024564 
L 345.331139 164.454525 
L 360.769874 160.753464 
L 376.208609 136.695914 
L 391.647344 155.876243 
L 407.08608 162.610585 
" style="fill:none;stroke:#1b9e77;stroke-linecap:square;stroke-opacity:0.5;stroke-width:1.5;"/>
   </g>
   <g id="line2d_40">
    <path clip-path="url(#p65c6fce586)" d="M 51.99517 165.346593 
L 67.433906 164.834715 
L 82.872641 164.727401 
L 98.311376 165.066234 
L 113.750111 164.863741 
L 129.188846 165.525663 
L 144.627582 165.769325 
L 160.066317 165.744095 
L 175.505052 165.739838 
L 190.943787 165.722645 
L 206.382522 165.788181 
L 221.821257 165.882353 
L 237.259993 165.912698 
L 252.698728 165.91416 
L 268.137463 165.90705 
L 283.576198 165.922719 
L 299.014933 165.930675 
L 314.453668 165.917934 
L 329.892404 165.881786 
L 345.331139 165.837849 
L 360.769874 162.950304 
L 376.208609 132.875362 
L 391.647344 49.79165 
L 407.08608 116.193126 
" style="fill:none;stroke:#1b9e77;stroke-linecap:square;stroke-opacity:0.5;stroke-width:1.5;"/>
   </g>
   <g id="line2d_41">
    <path clip-path="url(#p65c6fce586)" d="M 51.99517 165.744798 
L 67.433906 165.717076 
L 82.872641 165.771191 
L 98.311376 165.862698 
L 113.750111 165.867797 
L 129.188846 165.906949 
L 144.627582 165.916849 
L 160.066317 165.913554 
L 175.505052 165.893197 
L 190.943787 165.904665 
L 206.382522 165.884418 
L 221.821257 164.990846 
L 237.259993 152.815177 
L 252.698728 157.536613 
L 268.137463 139.266473 
L 283.576198 108.187147 
L 299.014933 155.357518 
L 314.453668 159.71029 
L 329.892404 155.779122 
L 345.331139 142.984002 
L 360.769874 127.234144 
L 376.208609 159.30265 
L 391.647344 162.904191 
L 407.08608 163.594726 
" style="fill:none;stroke:#1b9e77;stroke-linecap:square;stroke-opacity:0.5;stroke-width:1.5;"/>
   </g>
   <g id="line2d_42">
    <path clip-path="url(#p65c6fce586)" d="M 51.99517 165.443498 
L 67.433906 163.603004 
L 82.872641 160.805602 
L 98.311376 158.975299 
L 113.750111 156.006625 
L 129.188846 115.824639 
L 144.627582 134.231259 
L 160.066317 164.519794 
L 175.505052 164.815333 
L 190.943787 164.911691 
L 206.382522 165.508095 
L 221.821257 155.652706 
L 237.259993 150.213365 
L 252.698728 165.262341 
L 268.137463 160.250937 
L 283.576198 104.51498 
L 299.014933 164.806655 
L 314.453668 165.666754 
L 329.892404 165.864409 
L 345.331139 165.729426 
L 360.769874 165.241559 
L 376.208609 165.938412 
L 391.647344 165.953434 
L 407.08608 164.306271 
" style="fill:none;stroke:#1b9e77;stroke-linecap:square;stroke-opacity:0.5;stroke-width:1.5;"/>
   </g>
   <g id="line2d_43">
    <path clip-path="url(#p65c6fce586)" d="M 51.99517 165.929724 
L 67.433906 164.804865 
L 82.872641 154.080008 
L 98.311376 150.69727 
L 113.750111 149.737495 
L 129.188846 156.264991 
L 144.627582 154.478423 
L 160.066317 157.418215 
L 175.505052 159.421203 
L 190.943787 151.100867 
L 206.382522 147.995032 
L 221.821257 153.839991 
L 237.259993 160.84163 
L 252.698728 162.503145 
L 268.137463 161.676076 
L 283.576198 156.707653 
L 299.014933 153.808844 
L 314.453668 165.144644 
L 329.892404 165.735046 
L 345.331139 165.260863 
L 360.769874 160.501304 
L 376.208609 142.893706 
L 391.647344 153.821613 
L 407.08608 159.383484 
" style="fill:none;stroke:#1b9e77;stroke-linecap:square;stroke-opacity:0.5;stroke-width:1.5;"/>
   </g>
   <g id="line2d_44">
    <path clip-path="url(#p65c6fce586)" d="M 51.99517 163.795904 
L 67.433906 162.917436 
L 82.872641 157.695457 
L 98.311376 147.328419 
L 113.750111 145.143832 
L 129.188846 160.236541 
L 144.627582 163.775054 
L 160.066317 160.118269 
L 175.505052 98.362161 
L 190.943787 164.556781 
L 206.382522 165.910652 
L 221.821257 165.926888 
L 237.259993 164.020911 
L 252.698728 144.772529 
L 268.137463 157.704791 
L 283.576198 165.725367 
L 299.014933 165.509387 
L 314.453668 161.666019 
L 329.892404 157.710365 
L 345.331139 142.778301 
L 360.769874 164.808149 
L 376.208609 164.561322 
L 391.647344 163.849217 
L 407.08608 165.172331 
" style="fill:none;stroke:#1b9e77;stroke-linecap:square;stroke-opacity:0.5;stroke-width:1.5;"/>
   </g>
   <g id="line2d_45">
    <path clip-path="url(#p65c6fce586)" d="M 51.99517 158.656629 
L 67.433906 157.523965 
L 82.872641 164.526382 
L 98.311376 165.018318 
L 113.750111 165.286686 
L 129.188846 165.544748 
L 144.627582 165.82775 
L 160.066317 165.89684 
L 175.505052 165.874082 
L 190.943787 165.920475 
L 206.382522 165.942536 
L 221.821257 165.361058 
L 237.259993 154.696936 
L 252.698728 150.620654 
L 268.137463 109.628272 
L 283.576198 149.27626 
L 299.014933 163.947984 
L 314.453668 164.947435 
L 329.892404 161.707712 
L 345.331139 163.230226 
L 360.769874 160.551296 
L 376.208609 113.437538 
L 391.647344 150.386866 
L 407.08608 160.235446 
" style="fill:none;stroke:#1b9e77;stroke-linecap:square;stroke-opacity:0.5;stroke-width:1.5;"/>
   </g>
   <g id="line2d_46">
    <path clip-path="url(#p65c6fce586)" d="M 51.99517 165.80458 
L 67.433906 165.929484 
L 82.872641 165.80912 
L 98.311376 165.582314 
L 113.750111 154.974884 
L 129.188846 39.530719 
L 144.627582 161.809931 
L 160.066317 165.377333 
L 175.505052 165.566966 
L 190.943787 165.705521 
L 206.382522 165.879566 
L 221.821257 165.926505 
L 237.259993 165.706463 
L 252.698728 165.884593 
L 268.137463 165.255339 
L 283.576198 162.433833 
L 299.014933 164.357095 
L 314.453668 164.054309 
L 329.892404 163.775025 
L 345.331139 160.910936 
L 360.769874 129.10631 
L 376.208609 156.906939 
L 391.647344 162.998492 
L 407.08608 164.759838 
" style="fill:none;stroke:#1b9e77;stroke-linecap:square;stroke-opacity:0.5;stroke-width:1.5;"/>
   </g>
   <g id="line2d_47">
    <path clip-path="url(#p65c6fce586)" d="M 51.99517 165.794936 
L 67.433906 165.755538 
L 82.872641 165.808351 
L 98.311376 165.903601 
L 113.750111 165.926263 
L 129.188846 165.948782 
L 144.627582 165.946452 
L 160.066317 165.609581 
L 175.505052 157.002069 
L 190.943787 137.881679 
L 206.382522 91.112443 
L 221.821257 127.79182 
L 237.259993 151.363839 
L 252.698728 157.443238 
L 268.137463 155.151469 
L 283.576198 162.067409 
L 299.014933 165.644753 
L 314.453668 165.799562 
L 329.892404 165.577034 
L 345.331139 165.248046 
L 360.769874 156.17182 
L 376.208609 165.307317 
L 391.647344 165.386008 
L 407.08608 158.404084 
" style="fill:none;stroke:#1b9e77;stroke-linecap:square;stroke-opacity:0.5;stroke-width:1.5;"/>
   </g>
   <g id="line2d_48">
    <path clip-path="url(#p65c6fce586)" d="M 51.99517 162.758719 
L 67.433906 158.944318 
L 82.872641 139.164326 
L 98.311376 150.877808 
L 113.750111 157.674016 
L 129.188846 151.569793 
L 144.627582 148.85585 
L 160.066317 150.782213 
L 175.505052 139.024354 
L 190.943787 155.06458 
L 206.382522 160.534551 
L 221.821257 156.195697 
L 237.259993 142.220288 
L 252.698728 144.881492 
L 268.137463 162.739292 
L 283.576198 165.691076 
L 299.014933 165.945476 
L 314.453668 165.942721 
L 329.892404 165.925054 
L 345.331139 165.942454 
L 360.769874 165.919531 
L 376.208609 165.951211 
L 391.647344 165.498241 
L 407.08608 165.943036 
" style="fill:none;stroke:#1b9e77;stroke-linecap:square;stroke-opacity:0.5;stroke-width:1.5;"/>
   </g>
   <g id="line2d_49">
    <path clip-path="url(#p65c6fce586)" d="M 51.99517 165.902568 
L 67.433906 165.893002 
L 82.872641 165.917559 
L 98.311376 165.955076 
L 113.750111 165.94869 
L 129.188846 165.872846 
L 144.627582 165.189338 
L 160.066317 163.415947 
L 175.505052 153.082732 
L 190.943787 159.590423 
L 206.382522 159.702286 
L 221.821257 157.766828 
L 237.259993 136.826775 
L 252.698728 107.713162 
L 268.137463 149.574137 
L 283.576198 154.769631 
L 299.014933 150.958478 
L 314.453668 161.725228 
L 329.892404 152.900405 
L 345.331139 154.235699 
L 360.769874 159.801928 
L 376.208609 162.652801 
L 391.647344 163.381809 
L 407.08608 165.268746 
" style="fill:none;stroke:#1b9e77;stroke-linecap:square;stroke-opacity:0.5;stroke-width:1.5;"/>
   </g>
   <g id="line2d_50">
    <path clip-path="url(#p65c6fce586)" d="M 51.99517 163.894294 
L 67.433906 161.584431 
L 82.872641 158.163083 
L 98.311376 144.378905 
L 113.750111 139.985483 
L 129.188846 138.441499 
L 144.627582 133.540248 
L 160.066317 136.773549 
L 175.505052 144.209893 
L 190.943787 153.580989 
L 206.382522 162.826083 
L 221.821257 156.37897 
L 237.259993 164.341153 
L 252.698728 160.137519 
L 268.137463 164.779215 
L 283.576198 165.012569 
L 299.014933 165.242664 
L 314.453668 165.479546 
L 329.892404 165.698269 
L 345.331139 165.879695 
L 360.769874 165.933971 
L 376.208609 165.955108 
L 391.647344 165.953255 
L 407.08608 165.875698 
" style="fill:none;stroke:#1b9e77;stroke-linecap:square;stroke-opacity:0.5;stroke-width:1.5;"/>
   </g>
   <g id="line2d_51">
    <path clip-path="url(#p65c6fce586)" d="M 51.99517 164.220278 
L 67.433906 164.156537 
L 82.872641 155.902998 
L 98.311376 159.689607 
L 113.750111 160.528823 
L 129.188846 160.06852 
L 144.627582 157.273706 
L 160.066317 161.027223 
L 175.505052 143.527079 
L 190.943787 142.569994 
L 206.382522 150.469105 
L 221.821257 151.420767 
L 237.259993 151.26803 
L 252.698728 133.938722 
L 268.137463 156.046196 
L 283.576198 158.21933 
L 299.014933 147.267924 
L 314.453668 164.232473 
L 329.892404 165.44096 
L 345.331139 163.432567 
L 360.769874 165.56711 
L 376.208609 165.906385 
L 391.647344 165.919717 
L 407.08608 165.952038 
" style="fill:none;stroke:#1b9e77;stroke-linecap:square;stroke-opacity:0.5;stroke-width:1.5;"/>
   </g>
   <g id="line2d_52">
    <path clip-path="url(#p65c6fce586)" d="M 51.99517 165.848739 
L 67.433906 165.819474 
L 82.872641 165.84889 
L 98.311376 165.917481 
L 113.750111 165.937404 
L 129.188846 165.950716 
L 144.627582 165.953876 
L 160.066317 165.954388 
L 175.505052 165.953148 
L 190.943787 165.953431 
L 206.382522 165.945105 
L 221.821257 165.905572 
L 237.259993 165.853317 
L 252.698728 165.729296 
L 268.137463 162.212695 
L 283.576198 144.296733 
L 299.014933 149.928961 
L 314.453668 139.406 
L 329.892404 94.766857 
L 345.331139 131.771413 
L 360.769874 153.826049 
L 376.208609 156.344738 
L 391.647344 155.821644 
L 407.08608 163.100162 
" style="fill:none;stroke:#1b9e77;stroke-linecap:square;stroke-opacity:0.5;stroke-width:1.5;"/>
   </g>
   <g id="line2d_53">
    <path clip-path="url(#p65c6fce586)" d="M 51.99517 159.594269 
L 67.433906 148.430239 
L 82.872641 147.310858 
L 98.311376 151.936301 
L 113.750111 163.357924 
L 129.188846 165.652828 
L 144.627582 165.920161 
L 160.066317 165.934951 
L 175.505052 165.915946 
L 190.943787 165.93426 
L 206.382522 165.945068 
L 221.821257 165.947783 
L 237.259993 165.920542 
L 252.698728 165.638021 
L 268.137463 147.537875 
L 283.576198 151.975839 
L 299.014933 160.524516 
L 314.453668 149.882359 
L 329.892404 146.243484 
L 345.331139 153.17619 
L 360.769874 129.076637 
L 376.208609 149.814734 
L 391.647344 157.300284 
L 407.08608 165.075023 
" style="fill:none;stroke:#1b9e77;stroke-linecap:square;stroke-opacity:0.5;stroke-width:1.5;"/>
   </g>
   <g id="line2d_54">
    <path clip-path="url(#p65c6fce586)" d="M 51.99517 165.851181 
L 67.433906 165.837763 
L 82.872641 165.838017 
L 98.311376 165.907752 
L 113.750111 165.930048 
L 129.188846 165.943679 
L 144.627582 165.941375 
L 160.066317 165.934194 
L 175.505052 165.916125 
L 190.943787 165.922711 
L 206.382522 165.64362 
L 221.821257 162.047501 
L 237.259993 156.967578 
L 252.698728 162.958338 
L 268.137463 57.928261 
L 283.576198 98.186583 
L 299.014933 161.829683 
L 314.453668 163.061329 
L 329.892404 163.400999 
L 345.331139 164.380965 
L 360.769874 164.142864 
L 376.208609 165.656894 
L 391.647344 165.58221 
L 407.08608 163.23642 
" style="fill:none;stroke:#1b9e77;stroke-linecap:square;stroke-opacity:0.5;stroke-width:1.5;"/>
   </g>
   <g id="line2d_55">
    <path clip-path="url(#p65c6fce586)" d="M 51.99517 156.433197 
L 67.433906 150.650415 
L 82.872641 160.787448 
L 98.311376 163.698458 
L 113.750111 164.587703 
L 129.188846 165.178063 
L 144.627582 165.762737 
L 160.066317 165.890146 
L 175.505052 165.859171 
L 190.943787 165.8949 
L 206.382522 165.916911 
L 221.821257 164.665931 
L 237.259993 147.622928 
L 252.698728 154.234934 
L 268.137463 122.557767 
L 283.576198 129.396573 
L 299.014933 155.344599 
L 314.453668 156.581413 
L 329.892404 152.475165 
L 345.331139 159.652766 
L 360.769874 158.72756 
L 376.208609 159.045888 
L 391.647344 159.204905 
L 407.08608 163.876517 
" style="fill:none;stroke:#1b9e77;stroke-linecap:square;stroke-opacity:0.5;stroke-width:1.5;"/>
   </g>
   <g id="line2d_56">
    <path clip-path="url(#p65c6fce586)" d="M 51.99517 155.398849 
L 67.433906 158.159601 
L 82.872641 155.947611 
L 98.311376 149.587082 
L 113.750111 142.851109 
L 129.188846 149.220306 
L 144.627582 146.91817 
L 160.066317 152.911529 
L 175.505052 139.781092 
L 190.943787 141.591752 
L 206.382522 147.964416 
L 221.821257 150.235605 
L 237.259993 164.665939 
L 252.698728 161.895346 
L 268.137463 163.887445 
L 283.576198 165.516783 
L 299.014933 165.912848 
L 314.453668 165.917443 
L 329.892404 165.925098 
L 345.331139 165.941477 
L 360.769874 165.946589 
L 376.208609 165.953988 
L 391.647344 165.957301 
L 407.08608 165.958713 
" style="fill:none;stroke:#1b9e77;stroke-linecap:square;stroke-opacity:0.5;stroke-width:1.5;"/>
   </g>
   <g id="line2d_57">
    <path clip-path="url(#p65c6fce586)" d="M 51.99517 165.760744 
L 67.433906 165.504798 
L 82.872641 160.274025 
L 98.311376 155.055254 
L 113.750111 89.771441 
L 129.188846 160.40285 
L 144.627582 162.661964 
L 160.066317 155.973614 
L 175.505052 112.351828 
L 190.943787 147.466394 
L 206.382522 162.923986 
L 221.821257 164.506924 
L 237.259993 164.070123 
L 252.698728 157.461309 
L 268.137463 159.897543 
L 283.576198 164.323689 
L 299.014933 165.045371 
L 314.453668 165.026831 
L 329.892404 165.905121 
L 345.331139 165.929475 
L 360.769874 165.94427 
L 376.208609 165.956783 
L 391.647344 165.938066 
L 407.08608 165.893689 
" style="fill:none;stroke:#1b9e77;stroke-linecap:square;stroke-opacity:0.5;stroke-width:1.5;"/>
   </g>
   <g id="line2d_58">
    <path clip-path="url(#p65c6fce586)" d="M 51.99517 165.466834 
L 67.433906 164.75643 
L 82.872641 165.067567 
L 98.311376 164.311837 
L 113.750111 159.811069 
L 129.188846 135.62184 
L 144.627582 151.105046 
L 160.066317 135.887 
L 175.505052 121.026987 
L 190.943787 127.058937 
L 206.382522 156.735933 
L 221.821257 137.671734 
L 237.259993 165.659867 
L 252.698728 165.061835 
L 268.137463 165.736505 
L 283.576198 165.821564 
L 299.014933 165.821693 
L 314.453668 165.859634 
L 329.892404 165.89237 
L 345.331139 165.931153 
L 360.769874 165.948769 
L 376.208609 165.958382 
L 391.647344 165.958805 
L 407.08608 165.874302 
" style="fill:none;stroke:#1b9e77;stroke-linecap:square;stroke-opacity:0.5;stroke-width:1.5;"/>
   </g>
   <g id="line2d_59">
    <path clip-path="url(#p65c6fce586)" d="M 51.99517 165.955917 
L 67.433906 165.939573 
L 82.872641 165.884115 
L 98.311376 165.781756 
L 113.750111 165.791885 
L 129.188846 164.824196 
L 144.627582 156.352297 
L 160.066317 150.631248 
L 175.505052 161.829942 
L 190.943787 165.529081 
L 206.382522 160.667182 
L 221.821257 117.330667 
L 237.259993 158.036146 
L 252.698728 156.48614 
L 268.137463 87.947274 
L 283.576198 142.986765 
L 299.014933 164.986691 
L 314.453668 165.852066 
L 329.892404 165.936531 
L 345.331139 165.885793 
L 360.769874 164.979559 
L 376.208609 165.692901 
L 391.647344 165.767579 
L 407.08608 162.970788 
" style="fill:none;stroke:#1b9e77;stroke-linecap:square;stroke-opacity:0.5;stroke-width:1.5;"/>
   </g>
   <g id="line2d_60">
    <path clip-path="url(#p65c6fce586)" d="M 51.99517 148.576681 
L 67.433906 127.103118 
L 82.872641 123.786848 
L 98.311376 136.417878 
L 113.750111 130.578934 
L 129.188846 144.163912 
L 144.627582 161.290123 
L 160.066317 162.81259 
L 175.505052 163.647862 
L 190.943787 164.686997 
L 206.382522 165.324624 
L 221.821257 165.69825 
L 237.259993 165.809347 
L 252.698728 165.920388 
L 268.137463 165.850026 
L 283.576198 165.008379 
L 299.014933 165.494272 
L 314.453668 165.817441 
L 329.892404 165.677047 
L 345.331139 164.653945 
L 360.769874 164.644148 
L 376.208609 165.488496 
L 391.647344 165.40987 
L 407.08608 160.18492 
" style="fill:none;stroke:#1b9e77;stroke-linecap:square;stroke-opacity:0.5;stroke-width:1.5;"/>
   </g>
   <g id="line2d_61">
    <path clip-path="url(#p65c6fce586)" d="M 51.99517 165.887476 
L 67.433906 165.888883 
L 82.872641 165.919648 
L 98.311376 165.943548 
L 113.750111 165.94212 
L 129.188846 165.951106 
L 144.627582 165.760567 
L 160.066317 148.61917 
L 175.505052 149.829419 
L 190.943787 136.068805 
L 206.382522 123.845664 
L 221.821257 142.353269 
L 237.259993 147.290365 
L 252.698728 130.835881 
L 268.137463 165.691745 
L 283.576198 165.606551 
L 299.014933 165.610927 
L 314.453668 161.847945 
L 329.892404 156.927648 
L 345.331139 165.408803 
L 360.769874 164.95869 
L 376.208609 165.355097 
L 391.647344 162.807406 
L 407.08608 159.69536 
" style="fill:none;stroke:#1b9e77;stroke-linecap:square;stroke-opacity:0.5;stroke-width:1.5;"/>
   </g>
   <g id="line2d_62">
    <path clip-path="url(#p65c6fce586)" d="M 51.99517 165.740186 
L 67.433906 165.90639 
L 82.872641 165.862496 
L 98.311376 165.837777 
L 113.750111 165.178255 
L 129.188846 165.710909 
L 144.627582 165.861983 
L 160.066317 165.132019 
L 175.505052 155.614998 
L 190.943787 65.443629 
L 206.382522 148.250759 
L 221.821257 162.281886 
L 237.259993 164.208079 
L 252.698728 164.427911 
L 268.137463 165.290126 
L 283.576198 165.593419 
L 299.014933 165.621482 
L 314.453668 165.767478 
L 329.892404 165.742557 
L 345.331139 165.700865 
L 360.769874 157.259459 
L 376.208609 148.679814 
L 391.647344 134.251671 
L 407.08608 154.68194 
" style="fill:none;stroke:#1b9e77;stroke-linecap:square;stroke-opacity:0.5;stroke-width:1.5;"/>
   </g>
   <g id="line2d_63">
    <path clip-path="url(#p65c6fce586)" d="M 51.99517 165.959007 
L 67.433906 165.944015 
L 82.872641 165.945034 
L 98.311376 165.908093 
L 113.750111 165.843335 
L 129.188846 152.937295 
L 144.627582 154.923595 
L 160.066317 147.024804 
L 175.505052 111.543854 
L 190.943787 90.528609 
L 206.382522 157.243882 
L 221.821257 160.318347 
L 237.259993 147.888589 
L 252.698728 165.045971 
L 268.137463 165.616793 
L 283.576198 165.106302 
L 299.014933 165.136606 
L 314.453668 165.694419 
L 329.892404 165.788172 
L 345.331139 165.894329 
L 360.769874 165.932884 
L 376.208609 165.956351 
L 391.647344 165.954968 
L 407.08608 165.910838 
" style="fill:none;stroke:#1b9e77;stroke-linecap:square;stroke-opacity:0.5;stroke-width:1.5;"/>
   </g>
   <g id="line2d_64">
    <path clip-path="url(#p65c6fce586)" d="M 51.99517 165.423536 
L 67.433906 165.117645 
L 82.872641 163.987814 
L 98.311376 165.151068 
L 113.750111 159.610385 
L 129.188846 156.564383 
L 144.627582 161.199698 
L 160.066317 150.784775 
L 175.505052 20.620558 
L 190.943787 148.127297 
L 206.382522 165.154559 
L 221.821257 164.073081 
L 237.259993 164.465263 
L 252.698728 164.849533 
L 268.137463 165.774464 
L 283.576198 165.843465 
L 299.014933 165.826929 
L 314.453668 165.841407 
L 329.892404 165.891127 
L 345.331139 165.930384 
L 360.769874 165.943321 
L 376.208609 165.95737 
L 391.647344 165.96 
L 407.08608 165.948032 
" style="fill:none;stroke:#1b9e77;stroke-linecap:square;stroke-opacity:0.5;stroke-width:1.5;"/>
   </g>
   <g id="line2d_65">
    <path clip-path="url(#p65c6fce586)" d="M 51.99517 165.922722 
L 67.433906 165.867385 
L 82.872641 165.896512 
L 98.311376 165.88694 
L 113.750111 165.540125 
L 129.188846 155.334146 
L 144.627582 150.941048 
L 160.066317 143.067305 
L 175.505052 134.718532 
L 190.943787 138.274343 
L 206.382522 147.574755 
L 221.821257 157.689548 
L 237.259993 160.162971 
L 252.698728 146.865858 
L 268.137463 150.076551 
L 283.576198 163.97624 
L 299.014933 164.849141 
L 314.453668 163.358894 
L 329.892404 162.409768 
L 345.331139 154.838019 
L 360.769874 164.557252 
L 376.208609 155.660127 
L 391.647344 164.728795 
L 407.08608 165.849116 
" style="fill:none;stroke:#1b9e77;stroke-linecap:square;stroke-opacity:0.5;stroke-width:1.5;"/>
   </g>
   <g id="line2d_66">
    <path clip-path="url(#p65c6fce586)" d="M 51.99517 165.029383 
L 67.433906 162.860202 
L 82.872641 158.127768 
L 98.311376 141.009148 
L 113.750111 161.91575 
L 129.188846 165.730551 
L 144.627582 165.820281 
L 160.066317 165.875403 
L 175.505052 165.879673 
L 190.943787 165.86409 
L 206.382522 165.893584 
L 221.821257 165.771757 
L 237.259993 159.88938 
L 252.698728 150.262304 
L 268.137463 143.453478 
L 283.576198 148.425629 
L 299.014933 153.454239 
L 314.453668 126.945408 
L 329.892404 130.835227 
L 345.331139 148.722332 
L 360.769874 165.375376 
L 376.208609 165.450553 
L 391.647344 165.672728 
L 407.08608 165.781844 
" style="fill:none;stroke:#1b9e77;stroke-linecap:square;stroke-opacity:0.5;stroke-width:1.5;"/>
   </g>
   <g id="line2d_67">
    <path clip-path="url(#p65c6fce586)" d="M 51.99517 165.840004 
L 67.433906 165.853632 
L 82.872641 165.891041 
L 98.311376 165.942276 
L 113.750111 165.943546 
L 129.188846 165.924561 
L 144.627582 148.692952 
L 160.066317 106.695782 
L 175.505052 134.464545 
L 190.943787 140.24981 
L 206.382522 155.866861 
L 221.821257 164.449638 
L 237.259993 165.850334 
L 252.698728 165.863118 
L 268.137463 165.542582 
L 283.576198 165.255965 
L 299.014933 164.499224 
L 314.453668 165.799768 
L 329.892404 165.525312 
L 345.331139 164.160338 
L 360.769874 157.765002 
L 376.208609 143.327172 
L 391.647344 147.432428 
L 407.08608 157.210204 
" style="fill:none;stroke:#1b9e77;stroke-linecap:square;stroke-opacity:0.5;stroke-width:1.5;"/>
   </g>
   <g id="line2d_68">
    <path clip-path="url(#p65c6fce586)" d="M 51.99517 165.924374 
L 67.433906 165.82928 
L 82.872641 165.182582 
L 98.311376 158.256728 
L 113.750111 159.129359 
L 129.188846 158.626943 
L 144.627582 153.516697 
L 160.066317 153.906941 
L 175.505052 157.095418 
L 190.943787 158.262532 
L 206.382522 162.351631 
L 221.821257 148.555508 
L 237.259993 91.535528 
L 252.698728 126.811477 
L 268.137463 164.082649 
L 283.576198 163.751238 
L 299.014933 165.680738 
L 314.453668 165.502627 
L 329.892404 165.506326 
L 345.331139 165.872552 
L 360.769874 163.495074 
L 376.208609 164.554017 
L 391.647344 164.96918 
L 407.08608 165.646696 
" style="fill:none;stroke:#1b9e77;stroke-linecap:square;stroke-opacity:0.5;stroke-width:1.5;"/>
   </g>
   <g id="line2d_69">
    <path clip-path="url(#p65c6fce586)" d="M 51.99517 165.820895 
L 67.433906 165.748813 
L 82.872641 165.693495 
L 98.311376 165.687827 
L 113.750111 165.35077 
L 129.188846 165.837485 
L 144.627582 165.751292 
L 160.066317 164.368394 
L 175.505052 162.333127 
L 190.943787 162.878015 
L 206.382522 165.677157 
L 221.821257 165.932784 
L 237.259993 165.904262 
L 252.698728 164.359263 
L 268.137463 159.610675 
L 283.576198 157.14115 
L 299.014933 155.591545 
L 314.453668 152.121293 
L 329.892404 123.598892 
L 345.331139 121.201829 
L 360.769874 111.459044 
L 376.208609 157.793343 
L 391.647344 162.421218 
L 407.08608 161.763517 
" style="fill:none;stroke:#1b9e77;stroke-linecap:square;stroke-opacity:0.5;stroke-width:1.5;"/>
   </g>
   <g id="line2d_70">
    <path clip-path="url(#p65c6fce586)" d="M 51.99517 165.256301 
L 67.433906 164.270475 
L 82.872641 164.619464 
L 98.311376 165.56463 
L 113.750111 165.670536 
L 129.188846 165.808181 
L 144.627582 165.793928 
L 160.066317 165.885271 
L 175.505052 165.889286 
L 190.943787 153.642192 
L 206.382522 152.625093 
L 221.821257 165.130727 
L 237.259993 165.329599 
L 252.698728 137.74698 
L 268.137463 79.912802 
L 283.576198 104.542223 
L 299.014933 165.357691 
L 314.453668 165.685109 
L 329.892404 165.820254 
L 345.331139 165.91587 
L 360.769874 165.925757 
L 376.208609 165.941408 
L 391.647344 165.941364 
L 407.08608 165.770957 
" style="fill:none;stroke:#1b9e77;stroke-linecap:square;stroke-opacity:0.5;stroke-width:1.5;"/>
   </g>
   <g id="line2d_71">
    <path clip-path="url(#p65c6fce586)" d="M 51.99517 164.009023 
L 67.433906 164.195914 
L 82.872641 164.641388 
L 98.311376 165.6142 
L 113.750111 165.829381 
L 129.188846 165.918869 
L 144.627582 165.873162 
L 160.066317 165.576448 
L 175.505052 164.941755 
L 190.943787 161.035237 
L 206.382522 98.052565 
L 221.821257 43.78207 
L 237.259993 163.695489 
L 252.698728 164.894444 
L 268.137463 165.391454 
L 283.576198 165.563761 
L 299.014933 165.617161 
L 314.453668 165.551941 
L 329.892404 165.559854 
L 345.331139 165.669878 
L 360.769874 165.693508 
L 376.208609 165.809702 
L 391.647344 165.845549 
L 407.08608 165.283335 
" style="fill:none;stroke:#1b9e77;stroke-linecap:square;stroke-opacity:0.5;stroke-width:1.5;"/>
   </g>
   <g id="line2d_72">
    <path clip-path="url(#p65c6fce586)" d="M 51.99517 165.507286 
L 67.433906 165.251367 
L 82.872641 163.309595 
L 98.311376 162.604678 
L 113.750111 159.60372 
L 129.188846 162.805839 
L 144.627582 164.31661 
L 160.066317 162.489281 
L 175.505052 131.933848 
L 190.943787 125.340905 
L 206.382522 161.261428 
L 221.821257 164.657718 
L 237.259993 165.54801 
L 252.698728 165.051129 
L 268.137463 158.55185 
L 283.576198 138.58167 
L 299.014933 165.203852 
L 314.453668 165.822858 
L 329.892404 165.231045 
L 345.331139 164.523788 
L 360.769874 103.369331 
L 376.208609 162.506136 
L 391.647344 165.067757 
L 407.08608 165.506389 
" style="fill:none;stroke:#1b9e77;stroke-linecap:square;stroke-opacity:0.5;stroke-width:1.5;"/>
   </g>
   <g id="line2d_73">
    <path clip-path="url(#p65c6fce586)" d="M 51.99517 129.943879 
L 67.433906 131.547162 
L 82.872641 142.422121 
L 98.311376 159.350634 
L 113.750111 163.264285 
L 129.188846 164.475864 
L 144.627582 164.456183 
L 160.066317 165.099457 
L 175.505052 165.525722 
L 190.943787 165.741666 
L 206.382522 165.728674 
L 221.821257 165.549645 
L 237.259993 165.084474 
L 252.698728 165.109075 
L 268.137463 162.568896 
L 283.576198 105.901733 
L 299.014933 145.565665 
L 314.453668 164.083632 
L 329.892404 163.329994 
L 345.331139 163.720182 
L 360.769874 163.769161 
L 376.208609 164.734265 
L 391.647344 165.232118 
L 407.08608 161.841606 
" style="fill:none;stroke:#1b9e77;stroke-linecap:square;stroke-opacity:0.5;stroke-width:1.5;"/>
   </g>
   <g id="line2d_74">
    <path clip-path="url(#p65c6fce586)" d="M 51.99517 163.131078 
L 67.433906 164.45493 
L 82.872641 165.07356 
L 98.311376 165.226926 
L 113.750111 165.548425 
L 129.188846 165.492914 
L 144.627582 165.858713 
L 160.066317 165.906632 
L 175.505052 165.855819 
L 190.943787 165.879079 
L 206.382522 163.676905 
L 221.821257 133.632519 
L 237.259993 157.91174 
L 252.698728 163.036128 
L 268.137463 124.992803 
L 283.576198 163.605453 
L 299.014933 165.691214 
L 314.453668 159.219845 
L 329.892404 111.991695 
L 345.331139 133.63662 
L 360.769874 155.422954 
L 376.208609 161.770631 
L 391.647344 161.497889 
L 407.08608 165.531614 
" style="fill:none;stroke:#1b9e77;stroke-linecap:square;stroke-opacity:0.5;stroke-width:1.5;"/>
   </g>
   <g id="line2d_75">
    <path clip-path="url(#p65c6fce586)" d="M 51.99517 150.145356 
L 67.433906 141.868978 
L 82.872641 152.298978 
L 98.311376 161.554096 
L 113.750111 164.61684 
L 129.188846 165.300745 
L 144.627582 165.563448 
L 160.066317 165.726569 
L 175.505052 165.736578 
L 190.943787 165.823739 
L 206.382522 165.890751 
L 221.821257 165.91135 
L 237.259993 165.917947 
L 252.698728 165.928867 
L 268.137463 165.936241 
L 283.576198 165.937425 
L 299.014933 165.722977 
L 314.453668 165.441026 
L 329.892404 163.541169 
L 345.331139 156.668408 
L 360.769874 124.081056 
L 376.208609 119.468302 
L 391.647344 129.562101 
L 407.08608 155.403146 
" style="fill:none;stroke:#1b9e77;stroke-linecap:square;stroke-opacity:0.5;stroke-width:1.5;"/>
   </g>
   <g id="line2d_76">
    <path clip-path="url(#p65c6fce586)" d="M 51.99517 165.706438 
L 67.433906 165.229039 
L 82.872641 149.954708 
L 98.311376 112.935399 
L 113.750111 130.373526 
L 129.188846 138.560211 
L 144.627582 147.324082 
L 160.066317 157.545801 
L 175.505052 163.580832 
L 190.943787 165.243707 
L 206.382522 165.568579 
L 221.821257 164.776168 
L 237.259993 137.48789 
L 252.698728 164.796474 
L 268.137463 165.70001 
L 283.576198 165.744623 
L 299.014933 165.859467 
L 314.453668 165.719109 
L 329.892404 165.852611 
L 345.331139 165.929381 
L 360.769874 161.695096 
L 376.208609 161.642137 
L 391.647344 161.389936 
L 407.08608 165.43086 
" style="fill:none;stroke:#1b9e77;stroke-linecap:square;stroke-opacity:0.5;stroke-width:1.5;"/>
   </g>
   <g id="line2d_77">
    <path clip-path="url(#p65c6fce586)" d="M 51.99517 161.50181 
L 67.433906 160.843511 
L 82.872641 162.245329 
L 98.311376 165.021055 
L 113.750111 165.631302 
L 129.188846 165.850308 
L 144.627582 165.859077 
L 160.066317 165.880153 
L 175.505052 165.840979 
L 190.943787 165.559526 
L 206.382522 159.514421 
L 221.821257 124.510096 
L 237.259993 164.21555 
L 252.698728 164.01534 
L 268.137463 164.615036 
L 283.576198 162.075652 
L 299.014933 156.768071 
L 314.453668 159.995955 
L 329.892404 157.565935 
L 345.331139 160.03341 
L 360.769874 163.218066 
L 376.208609 164.472096 
L 391.647344 158.284685 
L 407.08608 70.528728 
" style="fill:none;stroke:#1b9e77;stroke-linecap:square;stroke-opacity:0.5;stroke-width:1.5;"/>
   </g>
   <g id="line2d_78">
    <path clip-path="url(#p65c6fce586)" d="M 51.99517 165.308617 
L 67.433906 165.340644 
L 82.872641 164.309052 
L 98.311376 156.278588 
L 113.750111 151.662278 
L 129.188846 160.834731 
L 144.627582 161.260384 
L 160.066317 160.952341 
L 175.505052 158.456665 
L 190.943787 161.418734 
L 206.382522 161.362035 
L 221.821257 157.451647 
L 237.259993 152.137098 
L 252.698728 158.773241 
L 268.137463 160.61553 
L 283.576198 139.880261 
L 299.014933 139.973095 
L 314.453668 127.593414 
L 329.892404 154.805247 
L 345.331139 153.556976 
L 360.769874 164.394727 
L 376.208609 165.855961 
L 391.647344 165.872813 
L 407.08608 165.952011 
" style="fill:none;stroke:#1b9e77;stroke-linecap:square;stroke-opacity:0.5;stroke-width:1.5;"/>
   </g>
   <g id="line2d_79">
    <path clip-path="url(#p65c6fce586)" d="M 51.99517 165.917695 
L 67.433906 165.901969 
L 82.872641 165.880446 
L 98.311376 162.568955 
L 113.750111 158.978417 
L 129.188846 157.896131 
L 144.627582 135.6965 
L 160.066317 146.049172 
L 175.505052 161.370352 
L 190.943787 162.952631 
L 206.382522 154.710973 
L 221.821257 165.263616 
L 237.259993 163.424864 
L 252.698728 77.426252 
L 268.137463 137.723127 
L 283.576198 165.477134 
L 299.014933 165.507053 
L 314.453668 165.724233 
L 329.892404 165.888705 
L 345.331139 165.923892 
L 360.769874 165.932173 
L 376.208609 165.938334 
L 391.647344 165.943459 
L 407.08608 165.950002 
" style="fill:none;stroke:#1b9e77;stroke-linecap:square;stroke-opacity:0.5;stroke-width:1.5;"/>
   </g>
   <g id="line2d_80">
    <path clip-path="url(#p65c6fce586)" d="M 51.99517 165.894422 
L 67.433906 165.911162 
L 82.872641 164.999005 
L 98.311376 164.243399 
L 113.750111 137.905414 
L 129.188846 146.643499 
L 144.627582 163.021867 
L 160.066317 165.754158 
L 175.505052 165.529614 
L 190.943787 165.301078 
L 206.382522 165.431155 
L 221.821257 157.865661 
L 237.259993 164.795703 
L 252.698728 165.877519 
L 268.137463 165.901449 
L 283.576198 162.216379 
L 299.014933 165.659891 
L 314.453668 165.779894 
L 329.892404 163.901938 
L 345.331139 157.89126 
L 360.769874 37.245945 
L 376.208609 165.213141 
L 391.647344 165.845778 
L 407.08608 165.216756 
" style="fill:none;stroke:#1b9e77;stroke-linecap:square;stroke-opacity:0.5;stroke-width:1.5;"/>
   </g>
   <g id="line2d_81">
    <path clip-path="url(#p65c6fce586)" d="M 51.99517 163.914475 
L 67.433906 164.341467 
L 82.872641 164.894289 
L 98.311376 165.671453 
L 113.750111 165.824531 
L 129.188846 165.905465 
L 144.627582 165.91433 
L 160.066317 165.907187 
L 175.505052 165.841536 
L 190.943787 165.510131 
L 206.382522 163.703486 
L 221.821257 162.416926 
L 237.259993 164.87472 
L 252.698728 164.641818 
L 268.137463 164.540417 
L 283.576198 163.579453 
L 299.014933 165.103706 
L 314.453668 165.656295 
L 329.892404 165.653967 
L 345.331139 165.379114 
L 360.769874 159.738138 
L 376.208609 150.222844 
L 391.647344 90.985016 
L 407.08608 73.825321 
" style="fill:none;stroke:#1b9e77;stroke-linecap:square;stroke-opacity:0.5;stroke-width:1.5;"/>
   </g>
   <g id="line2d_82">
    <path clip-path="url(#p65c6fce586)" d="M 51.99517 165.743348 
L 67.433906 156.197237 
L 82.872641 152.762695 
L 98.311376 156.686728 
L 113.750111 153.557555 
L 129.188846 138.40558 
L 144.627582 164.818845 
L 160.066317 165.579243 
L 175.505052 165.516022 
L 190.943787 165.775606 
L 206.382522 165.893744 
L 221.821257 165.695478 
L 237.259993 165.771624 
L 252.698728 165.770308 
L 268.137463 165.697627 
L 283.576198 143.188838 
L 299.014933 121.256936 
L 314.453668 140.623848 
L 329.892404 160.793372 
L 345.331139 164.504865 
L 360.769874 161.936781 
L 376.208609 148.176228 
L 391.647344 156.194746 
L 407.08608 163.498841 
" style="fill:none;stroke:#1b9e77;stroke-linecap:square;stroke-opacity:0.5;stroke-width:1.5;"/>
   </g>
   <g id="line2d_83">
    <path clip-path="url(#p65c6fce586)" d="M 51.99517 165.908241 
L 67.433906 165.786972 
L 82.872641 165.797847 
L 98.311376 165.846548 
L 113.750111 165.855696 
L 129.188846 165.830277 
L 144.627582 165.417858 
L 160.066317 165.506408 
L 175.505052 165.674019 
L 190.943787 164.527442 
L 206.382522 141.737333 
L 221.821257 115.400556 
L 237.259993 154.975475 
L 252.698728 163.967735 
L 268.137463 161.090083 
L 283.576198 135.621729 
L 299.014933 116.454231 
L 314.453668 154.24957 
L 329.892404 164.126316 
L 345.331139 164.996406 
L 360.769874 164.996187 
L 376.208609 164.047746 
L 391.647344 161.698234 
L 407.08608 154.533181 
" style="fill:none;stroke:#1b9e77;stroke-linecap:square;stroke-opacity:0.5;stroke-width:1.5;"/>
   </g>
   <g id="line2d_84">
    <path clip-path="url(#p65c6fce586)" d="M 51.99517 164.366561 
L 67.433906 165.119715 
L 82.872641 163.736214 
L 98.311376 164.163064 
L 113.750111 157.463229 
L 129.188846 144.702679 
L 144.627582 150.956472 
L 160.066317 145.896765 
L 175.505052 126.316045 
L 190.943787 87.923657 
L 206.382522 156.36794 
L 221.821257 161.874449 
L 237.259993 165.436724 
L 252.698728 164.607908 
L 268.137463 162.859667 
L 283.576198 165.830048 
L 299.014933 165.946797 
L 314.453668 165.950169 
L 329.892404 165.941729 
L 345.331139 165.941829 
L 360.769874 165.899141 
L 376.208609 165.931659 
L 391.647344 165.557815 
L 407.08608 165.255812 
" style="fill:none;stroke:#1b9e77;stroke-linecap:square;stroke-opacity:0.5;stroke-width:1.5;"/>
   </g>
   <g id="line2d_85">
    <path clip-path="url(#p65c6fce586)" d="M 51.99517 165.880944 
L 67.433906 165.76947 
L 82.872641 165.41217 
L 98.311376 165.490177 
L 113.750111 160.87965 
L 129.188846 104.983223 
L 144.627582 162.843841 
L 160.066317 165.238185 
L 175.505052 165.072587 
L 190.943787 165.124743 
L 206.382522 165.088959 
L 221.821257 164.949727 
L 237.259993 160.465735 
L 252.698728 161.683289 
L 268.137463 127.077381 
L 283.576198 93.077915 
L 299.014933 164.613557 
L 314.453668 165.669696 
L 329.892404 165.938693 
L 345.331139 165.766783 
L 360.769874 165.07082 
L 376.208609 164.481703 
L 391.647344 165.247325 
L 407.08608 158.219523 
" style="fill:none;stroke:#1b9e77;stroke-linecap:square;stroke-opacity:0.5;stroke-width:1.5;"/>
   </g>
   <g id="line2d_86">
    <path clip-path="url(#p65c6fce586)" d="M 51.99517 162.421518 
L 67.433906 155.486246 
L 82.872641 116.918686 
L 98.311376 152.313471 
L 113.750111 163.092425 
L 129.188846 164.193386 
L 144.627582 165.69687 
L 160.066317 165.851217 
L 175.505052 165.799623 
L 190.943787 165.856559 
L 206.382522 165.867927 
L 221.821257 165.904502 
L 237.259993 160.468248 
L 252.698728 105.94398 
L 268.137463 140.152766 
L 283.576198 153.988716 
L 299.014933 162.972665 
L 314.453668 161.620323 
L 329.892404 165.20875 
L 345.331139 162.316285 
L 360.769874 157.884445 
L 376.208609 163.857734 
L 391.647344 164.576991 
L 407.08608 165.652754 
" style="fill:none;stroke:#1b9e77;stroke-linecap:square;stroke-opacity:0.5;stroke-width:1.5;"/>
   </g>
   <g id="line2d_87">
    <path clip-path="url(#p65c6fce586)" d="M 51.99517 165.921254 
L 67.433906 165.832566 
L 82.872641 164.627472 
L 98.311376 165.600835 
L 113.750111 164.732194 
L 129.188846 155.459843 
L 144.627582 139.508485 
L 160.066317 146.661268 
L 175.505052 141.321107 
L 190.943787 139.511203 
L 206.382522 135.410965 
L 221.821257 158.020735 
L 237.259993 163.918123 
L 252.698728 153.241051 
L 268.137463 142.537534 
L 283.576198 154.851953 
L 299.014933 159.777272 
L 314.453668 163.025133 
L 329.892404 165.605178 
L 345.331139 165.846589 
L 360.769874 165.888176 
L 376.208609 165.949276 
L 391.647344 165.791558 
L 407.08608 165.006315 
" style="fill:none;stroke:#1b9e77;stroke-linecap:square;stroke-opacity:0.5;stroke-width:1.5;"/>
   </g>
   <g id="line2d_88">
    <path clip-path="url(#p65c6fce586)" d="M 51.99517 165.816527 
L 67.433906 165.346837 
L 82.872641 165.397366 
L 98.311376 165.572611 
L 113.750111 165.620423 
L 129.188846 165.837904 
L 144.627582 165.908598 
L 160.066317 165.872715 
L 175.505052 165.796835 
L 190.943787 165.902207 
L 206.382522 165.888773 
L 221.821257 164.744041 
L 237.259993 156.809431 
L 252.698728 148.142802 
L 268.137463 143.740644 
L 283.576198 145.859812 
L 299.014933 142.377417 
L 314.453668 116.172026 
L 329.892404 120.761315 
L 345.331139 150.449388 
L 360.769874 165.594025 
L 376.208609 165.747093 
L 391.647344 165.854995 
L 407.08608 164.832306 
" style="fill:none;stroke:#1b9e77;stroke-linecap:square;stroke-opacity:0.5;stroke-width:1.5;"/>
   </g>
   <g id="line2d_89">
    <path clip-path="url(#p65c6fce586)" d="M 51.99517 150.971108 
L 67.433906 162.592702 
L 82.872641 163.873935 
L 98.311376 164.580479 
L 113.750111 165.545444 
L 129.188846 165.740041 
L 144.627582 165.861835 
L 160.066317 165.884319 
L 175.505052 165.717434 
L 190.943787 165.347296 
L 206.382522 154.135406 
L 221.821257 99.25059 
L 237.259993 145.893397 
L 252.698728 148.897923 
L 268.137463 156.776835 
L 283.576198 162.027035 
L 299.014933 164.680735 
L 314.453668 164.923443 
L 329.892404 165.618758 
L 345.331139 164.277569 
L 360.769874 138.362071 
L 376.208609 150.584868 
L 391.647344 158.751222 
L 407.08608 163.75165 
" style="fill:none;stroke:#1b9e77;stroke-linecap:square;stroke-opacity:0.5;stroke-width:1.5;"/>
   </g>
   <g id="line2d_90">
    <path clip-path="url(#p65c6fce586)" d="M 51.99517 165.274277 
L 67.433906 161.605968 
L 82.872641 163.516157 
L 98.311376 161.187678 
L 113.750111 160.377267 
L 129.188846 163.626216 
L 144.627582 165.278956 
L 160.066317 165.475106 
L 175.505052 165.324652 
L 190.943787 165.369204 
L 206.382522 165.658438 
L 221.821257 165.859441 
L 237.259993 165.896424 
L 252.698728 165.89222 
L 268.137463 165.858269 
L 283.576198 165.912937 
L 299.014933 165.916967 
L 314.453668 165.772059 
L 329.892404 165.827409 
L 345.331139 165.73316 
L 360.769874 165.38949 
L 376.208609 161.524249 
L 391.647344 90.436567 
L 407.08608 61.332983 
" style="fill:none;stroke:#1b9e77;stroke-linecap:square;stroke-opacity:0.5;stroke-width:1.5;"/>
   </g>
   <g id="line2d_91">
    <path clip-path="url(#p65c6fce586)" d="M 51.99517 156.715688 
L 67.433906 156.854694 
L 82.872641 137.338245 
L 98.311376 158.34659 
L 113.750111 162.557479 
L 129.188846 157.999046 
L 144.627582 161.541746 
L 160.066317 164.686306 
L 175.505052 164.251921 
L 190.943787 164.271646 
L 206.382522 149.18693 
L 221.821257 157.479258 
L 237.259993 152.205702 
L 252.698728 85.693377 
L 268.137463 152.88098 
L 283.576198 165.27304 
L 299.014933 165.517294 
L 314.453668 165.714991 
L 329.892404 165.868237 
L 345.331139 165.920954 
L 360.769874 165.929975 
L 376.208609 165.945062 
L 391.647344 165.951941 
L 407.08608 165.914988 
" style="fill:none;stroke:#1b9e77;stroke-linecap:square;stroke-opacity:0.5;stroke-width:1.5;"/>
   </g>
   <g id="line2d_92">
    <path clip-path="url(#p65c6fce586)" d="M 51.99517 165.574473 
L 67.433906 164.751331 
L 82.872641 152.703942 
L 98.311376 154.983229 
L 113.750111 47.769913 
L 129.188846 150.821015 
L 144.627582 160.060828 
L 160.066317 161.583601 
L 175.505052 163.69776 
L 190.943787 157.392643 
L 206.382522 157.57615 
L 221.821257 151.50015 
L 237.259993 162.060894 
L 252.698728 165.871823 
L 268.137463 165.89756 
L 283.576198 165.864331 
L 299.014933 165.835406 
L 314.453668 165.91132 
L 329.892404 165.943404 
L 345.331139 165.944137 
L 360.769874 165.92852 
L 376.208609 165.867917 
L 391.647344 165.062633 
L 407.08608 165.443109 
" style="fill:none;stroke:#1b9e77;stroke-linecap:square;stroke-opacity:0.5;stroke-width:1.5;"/>
   </g>
   <g id="line2d_93">
    <path clip-path="url(#p65c6fce586)" d="M 51.99517 165.874596 
L 67.433906 165.807124 
L 82.872641 165.82868 
L 98.311376 165.556655 
L 113.750111 161.527345 
L 129.188846 158.328123 
L 144.627582 63.276038 
L 160.066317 134.814338 
L 175.505052 160.544815 
L 190.943787 162.552976 
L 206.382522 165.158092 
L 221.821257 163.686339 
L 237.259993 133.56735 
L 252.698728 150.16505 
L 268.137463 165.397236 
L 283.576198 165.552882 
L 299.014933 165.451933 
L 314.453668 165.582423 
L 329.892404 165.774875 
L 345.331139 165.869344 
L 360.769874 165.895002 
L 376.208609 165.931939 
L 391.647344 165.949416 
L 407.08608 165.953514 
" style="fill:none;stroke:#1b9e77;stroke-linecap:square;stroke-opacity:0.5;stroke-width:1.5;"/>
   </g>
   <g id="line2d_94">
    <path clip-path="url(#p65c6fce586)" d="M 51.99517 165.874785 
L 67.433906 165.8677 
L 82.872641 165.893974 
L 98.311376 165.931552 
L 113.750111 165.941392 
L 129.188846 165.953931 
L 144.627582 165.952572 
L 160.066317 165.846638 
L 175.505052 164.784639 
L 190.943787 164.178077 
L 206.382522 126.349799 
L 221.821257 142.635937 
L 237.259993 158.109246 
L 252.698728 155.999573 
L 268.137463 139.979439 
L 283.576198 151.437066 
L 299.014933 164.526181 
L 314.453668 165.634878 
L 329.892404 159.123815 
L 345.331139 164.621023 
L 360.769874 155.532362 
L 376.208609 118.664521 
L 391.647344 154.367204 
L 407.08608 160.839795 
" style="fill:none;stroke:#1b9e77;stroke-linecap:square;stroke-opacity:0.5;stroke-width:1.5;"/>
   </g>
   <g id="line2d_95">
    <path clip-path="url(#p65c6fce586)" d="M 51.99517 165.641587 
L 67.433906 165.873414 
L 82.872641 165.764794 
L 98.311376 165.15162 
L 113.750111 148.315723 
L 129.188846 89.40014 
L 144.627582 141.982733 
L 160.066317 155.051829 
L 175.505052 159.378718 
L 190.943787 126.550133 
L 206.382522 153.434228 
L 221.821257 159.179429 
L 237.259993 159.689857 
L 252.698728 162.730715 
L 268.137463 165.902455 
L 283.576198 165.897199 
L 299.014933 165.894634 
L 314.453668 165.921311 
L 329.892404 165.933607 
L 345.331139 165.943107 
L 360.769874 165.928043 
L 376.208609 165.790513 
L 391.647344 163.606019 
L 407.08608 165.084279 
" style="fill:none;stroke:#1b9e77;stroke-linecap:square;stroke-opacity:0.5;stroke-width:1.5;"/>
   </g>
   <g id="line2d_96">
    <path clip-path="url(#p65c6fce586)" d="M 51.99517 165.479895 
L 67.433906 160.258651 
L 82.872641 145.840158 
L 98.311376 82.006402 
L 113.750111 163.494816 
L 129.188846 165.760116 
L 144.627582 165.849943 
L 160.066317 165.913384 
L 175.505052 165.930614 
L 190.943787 165.940916 
L 206.382522 165.941328 
L 221.821257 165.949454 
L 237.259993 165.955459 
L 252.698728 165.957944 
L 268.137463 165.883952 
L 283.576198 164.974058 
L 299.014933 163.870364 
L 314.453668 155.623688 
L 329.892404 151.185027 
L 345.331139 151.153261 
L 360.769874 143.815192 
L 376.208609 149.223346 
L 391.647344 154.172587 
L 407.08608 163.865541 
" style="fill:none;stroke:#1b9e77;stroke-linecap:square;stroke-opacity:0.5;stroke-width:1.5;"/>
   </g>
   <g id="line2d_97">
    <path clip-path="url(#p65c6fce586)" d="M 51.99517 165.620838 
L 67.433906 164.962374 
L 82.872641 163.317577 
L 98.311376 158.511684 
L 113.750111 165.445845 
L 129.188846 165.684181 
L 144.627582 165.781393 
L 160.066317 165.867676 
L 175.505052 165.875809 
L 190.943787 165.899356 
L 206.382522 165.914055 
L 221.821257 165.916634 
L 237.259993 165.887001 
L 252.698728 165.812871 
L 268.137463 115.633856 
L 283.576198 60.234494 
L 299.014933 152.35236 
L 314.453668 158.457333 
L 329.892404 163.941496 
L 345.331139 165.16979 
L 360.769874 165.145255 
L 376.208609 165.556869 
L 391.647344 151.988175 
L 407.08608 165.069165 
" style="fill:none;stroke:#1b9e77;stroke-linecap:square;stroke-opacity:0.5;stroke-width:1.5;"/>
   </g>
   <g id="line2d_98">
    <path clip-path="url(#p65c6fce586)" d="M 51.99517 165.866346 
L 67.433906 165.746851 
L 82.872641 165.774828 
L 98.311376 165.910726 
L 113.750111 165.947021 
L 129.188846 165.954329 
L 144.627582 165.950614 
L 160.066317 165.944754 
L 175.505052 165.591275 
L 190.943787 154.933476 
L 206.382522 145.51026 
L 221.821257 132.39466 
L 237.259993 111.745974 
L 252.698728 109.14636 
L 268.137463 160.161775 
L 283.576198 164.372544 
L 299.014933 163.730064 
L 314.453668 153.916568 
L 329.892404 159.149685 
L 345.331139 163.886848 
L 360.769874 165.740586 
L 376.208609 165.329455 
L 391.647344 165.445798 
L 407.08608 165.895293 
" style="fill:none;stroke:#1b9e77;stroke-linecap:square;stroke-opacity:0.5;stroke-width:1.5;"/>
   </g>
   <g id="line2d_99">
    <path clip-path="url(#p65c6fce586)" d="M 51.99517 158.033788 
L 67.433906 156.908404 
L 82.872641 154.035411 
L 98.311376 160.746565 
L 113.750111 162.471965 
L 129.188846 164.800603 
L 144.627582 149.361871 
L 160.066317 121.399086 
L 175.505052 154.772723 
L 190.943787 155.317306 
L 206.382522 157.964538 
L 221.821257 124.550735 
L 237.259993 160.169712 
L 252.698728 161.22159 
L 268.137463 160.08305 
L 283.576198 162.256348 
L 299.014933 163.831923 
L 314.453668 164.389276 
L 329.892404 164.198885 
L 345.331139 164.288013 
L 360.769874 164.757714 
L 376.208609 165.789653 
L 391.647344 165.89152 
L 407.08608 156.805411 
" style="fill:none;stroke:#1b9e77;stroke-linecap:square;stroke-opacity:0.5;stroke-width:1.5;"/>
   </g>
   <g id="line2d_100">
    <path clip-path="url(#p65c6fce586)" d="M 51.99517 165.826981 
L 67.433906 165.708524 
L 82.872641 165.717521 
L 98.311376 165.883194 
L 113.750111 165.92611 
L 129.188846 165.947224 
L 144.627582 165.949452 
L 160.066317 165.945898 
L 175.505052 165.931862 
L 190.943787 165.941994 
L 206.382522 165.891262 
L 221.821257 165.21836 
L 237.259993 165.906681 
L 252.698728 165.875402 
L 268.137463 165.89228 
L 283.576198 163.490204 
L 299.014933 151.531039 
L 314.453668 151.810278 
L 329.892404 162.123355 
L 345.331139 163.369729 
L 360.769874 149.841416 
L 376.208609 63.381135 
L 391.647344 120.383604 
L 407.08608 160.552579 
" style="fill:none;stroke:#1b9e77;stroke-linecap:square;stroke-opacity:0.5;stroke-width:1.5;"/>
   </g>
   <g id="line2d_101">
    <path clip-path="url(#p65c6fce586)" d="M 51.99517 165.732091 
L 67.433906 165.926898 
L 82.872641 165.924369 
L 98.311376 165.748582 
L 113.750111 157.15162 
L 129.188846 165.165123 
L 144.627582 165.945438 
L 160.066317 165.643081 
L 175.505052 159.944745 
L 190.943787 146.183457 
L 206.382522 158.514147 
L 221.821257 156.380268 
L 237.259993 154.477382 
L 252.698728 150.524504 
L 268.137463 156.749559 
L 283.576198 141.929791 
L 299.014933 143.051446 
L 314.453668 150.210488 
L 329.892404 157.9527 
L 345.331139 152.9945 
L 360.769874 143.521787 
L 376.208609 156.56164 
L 391.647344 162.280787 
L 407.08608 165.531691 
" style="fill:none;stroke:#1b9e77;stroke-linecap:square;stroke-opacity:0.5;stroke-width:1.5;"/>
   </g>
   <g id="line2d_102">
    <path clip-path="url(#p65c6fce586)" d="M 51.99517 165.744708 
L 67.433906 165.516134 
L 82.872641 162.351093 
L 98.311376 162.513789 
L 113.750111 164.426957 
L 129.188846 165.155794 
L 144.627582 164.727482 
L 160.066317 164.813093 
L 175.505052 165.862692 
L 190.943787 165.899943 
L 206.382522 165.924804 
L 221.821257 165.95094 
L 237.259993 165.667324 
L 252.698728 165.284071 
L 268.137463 163.333862 
L 283.576198 157.471805 
L 299.014933 149.775374 
L 314.453668 160.332014 
L 329.892404 158.553817 
L 345.331139 149.100651 
L 360.769874 110.321517 
L 376.208609 93.601089 
L 391.647344 158.191324 
L 407.08608 163.525811 
" style="fill:none;stroke:#1b9e77;stroke-linecap:square;stroke-opacity:0.5;stroke-width:1.5;"/>
   </g>
   <g id="line2d_103">
    <path clip-path="url(#p65c6fce586)" d="M 51.99517 165.636314 
L 67.433906 165.293997 
L 82.872641 165.377408 
L 98.311376 161.590166 
L 113.750111 159.03476 
L 129.188846 159.333241 
L 144.627582 152.729007 
L 160.066317 146.223422 
L 175.505052 131.115147 
L 190.943787 162.374227 
L 206.382522 165.743351 
L 221.821257 165.29724 
L 237.259993 121.626737 
L 252.698728 151.662359 
L 268.137463 145.490243 
L 283.576198 160.52316 
L 299.014933 164.165476 
L 314.453668 163.960769 
L 329.892404 163.439258 
L 345.331139 153.485041 
L 360.769874 160.134577 
L 376.208609 161.956487 
L 391.647344 162.298425 
L 407.08608 165.555276 
" style="fill:none;stroke:#1b9e77;stroke-linecap:square;stroke-opacity:0.5;stroke-width:1.5;"/>
   </g>
   <g id="line2d_104">
    <path clip-path="url(#p65c6fce586)" d="M 51.99517 161.337179 
L 67.433906 159.511574 
L 82.872641 146.453448 
L 98.311376 145.343239 
L 113.750111 140.585393 
L 129.188846 150.597361 
L 144.627582 142.336633 
L 160.066317 141.126753 
L 175.505052 132.643956 
L 190.943787 140.983878 
L 206.382522 157.833483 
L 221.821257 165.695781 
L 237.259993 165.579373 
L 252.698728 165.343538 
L 268.137463 165.735472 
L 283.576198 165.784571 
L 299.014933 165.786949 
L 314.453668 165.868312 
L 329.892404 165.914103 
L 345.331139 165.950562 
L 360.769874 165.954934 
L 376.208609 165.955033 
L 391.647344 165.94175 
L 407.08608 165.78282 
" style="fill:none;stroke:#1b9e77;stroke-linecap:square;stroke-opacity:0.5;stroke-width:1.5;"/>
   </g>
   <g id="line2d_105">
    <path clip-path="url(#p65c6fce586)" d="M 51.99517 165.346052 
L 67.433906 165.553968 
L 82.872641 165.013723 
L 98.311376 161.871235 
L 113.750111 14.76 
L 129.188846 116.318716 
L 144.627582 165.507644 
L 160.066317 165.873971 
L 175.505052 165.94197 
L 190.943787 165.862864 
L 206.382522 165.705334 
L 221.821257 165.931791 
L 237.259993 165.934475 
L 252.698728 165.478812 
L 268.137463 165.766418 
L 283.576198 165.89928 
L 299.014933 165.821559 
L 314.453668 165.848869 
L 329.892404 165.920768 
L 345.331139 165.924639 
L 360.769874 165.921494 
L 376.208609 165.936153 
L 391.647344 165.953132 
L 407.08608 165.953229 
" style="fill:none;stroke:#1b9e77;stroke-linecap:square;stroke-opacity:0.5;stroke-width:1.5;"/>
   </g>
   <g id="line2d_106">
    <path clip-path="url(#p65c6fce586)" d="M 51.99517 165.799308 
L 67.433906 165.852921 
L 82.872641 165.829498 
L 98.311376 165.899205 
L 113.750111 163.08186 
L 129.188846 144.611613 
L 144.627582 158.390704 
L 160.066317 158.775588 
L 175.505052 156.630845 
L 190.943787 161.807645 
L 206.382522 164.965564 
L 221.821257 165.094662 
L 237.259993 164.723763 
L 252.698728 162.817109 
L 268.137463 146.966065 
L 283.576198 143.467339 
L 299.014933 132.870785 
L 314.453668 148.32868 
L 329.892404 136.874747 
L 345.331139 155.463382 
L 360.769874 149.197909 
L 376.208609 165.509654 
L 391.647344 165.221466 
L 407.08608 165.865779 
" style="fill:none;stroke:#1b9e77;stroke-linecap:square;stroke-opacity:0.5;stroke-width:1.5;"/>
   </g>
   <g id="line2d_107">
    <path clip-path="url(#p65c6fce586)" d="M 51.99517 163.695053 
L 67.433906 161.366507 
L 82.872641 165.354093 
L 98.311376 164.710147 
L 113.750111 165.221569 
L 129.188846 148.110161 
L 144.627582 154.529341 
L 160.066317 151.692406 
L 175.505052 155.867134 
L 190.943787 148.212267 
L 206.382522 145.320606 
L 221.821257 144.4591 
L 237.259993 142.801093 
L 252.698728 154.47139 
L 268.137463 161.314354 
L 283.576198 156.679998 
L 299.014933 151.487347 
L 314.453668 158.537473 
L 329.892404 164.374391 
L 345.331139 165.554794 
L 360.769874 164.681123 
L 376.208609 160.044658 
L 391.647344 160.564354 
L 407.08608 164.996732 
" style="fill:none;stroke:#1b9e77;stroke-linecap:square;stroke-opacity:0.5;stroke-width:1.5;"/>
   </g>
   <g id="line2d_108">
    <path clip-path="url(#p65c6fce586)" d="M 51.99517 165.261388 
L 67.433906 165.648475 
L 82.872641 162.5538 
L 98.311376 162.068894 
L 113.750111 157.471903 
L 129.188846 33.387552 
L 144.627582 147.513453 
L 160.066317 160.552025 
L 175.505052 161.418325 
L 190.943787 160.866721 
L 206.382522 161.831781 
L 221.821257 162.865676 
L 237.259993 164.643908 
L 252.698728 165.351349 
L 268.137463 165.548102 
L 283.576198 165.737498 
L 299.014933 165.786124 
L 314.453668 165.78547 
L 329.892404 165.741745 
L 345.331139 165.754713 
L 360.769874 165.756161 
L 376.208609 165.747163 
L 391.647344 162.219898 
L 407.08608 154.533964 
" style="fill:none;stroke:#1b9e77;stroke-linecap:square;stroke-opacity:0.5;stroke-width:1.5;"/>
   </g>
   <g id="line2d_109">
    <path clip-path="url(#p65c6fce586)" d="M 51.99517 165.719709 
L 67.433906 165.339585 
L 82.872641 165.29012 
L 98.311376 165.619292 
L 113.750111 165.6162 
L 129.188846 165.873047 
L 144.627582 165.667588 
L 160.066317 157.260041 
L 175.505052 151.115672 
L 190.943787 156.3177 
L 206.382522 78.336634 
L 221.821257 95.724015 
L 237.259993 152.786515 
L 252.698728 165.360245 
L 268.137463 165.83011 
L 283.576198 165.875249 
L 299.014933 165.886136 
L 314.453668 165.907964 
L 329.892404 165.914242 
L 345.331139 165.919048 
L 360.769874 165.927735 
L 376.208609 165.953175 
L 391.647344 165.952128 
L 407.08608 164.853934 
" style="fill:none;stroke:#1b9e77;stroke-linecap:square;stroke-opacity:0.5;stroke-width:1.5;"/>
   </g>
   <g id="line2d_110">
    <path clip-path="url(#p65c6fce586)" d="M 51.99517 137.709384 
L 67.433906 134.343447 
L 82.872641 135.936175 
L 98.311376 146.79454 
L 113.750111 138.325478 
L 129.188846 143.5549 
L 144.627582 165.723795 
L 160.066317 165.771078 
L 175.505052 165.62777 
L 190.943787 165.754547 
L 206.382522 165.879882 
L 221.821257 165.918828 
L 237.259993 165.923197 
L 252.698728 165.935564 
L 268.137463 165.944323 
L 283.576198 165.95086 
L 299.014933 165.948216 
L 314.453668 165.947138 
L 329.892404 165.920597 
L 345.331139 165.728657 
L 360.769874 163.487272 
L 376.208609 153.592573 
L 391.647344 142.137502 
L 407.08608 156.190373 
" style="fill:none;stroke:#1b9e77;stroke-linecap:square;stroke-opacity:0.5;stroke-width:1.5;"/>
   </g>
   <g id="line2d_111">
    <path clip-path="url(#p65c6fce586)" d="M 51.99517 165.154043 
L 67.433906 164.428243 
L 82.872641 165.548856 
L 98.311376 165.64342 
L 113.750111 165.462054 
L 129.188846 159.811518 
L 144.627582 157.404036 
L 160.066317 148.579057 
L 175.505052 116.803448 
L 190.943787 144.34705 
L 206.382522 163.799299 
L 221.821257 164.663844 
L 237.259993 154.934102 
L 252.698728 100.806808 
L 268.137463 148.963887 
L 283.576198 161.7001 
L 299.014933 165.169201 
L 314.453668 165.445289 
L 329.892404 165.754722 
L 345.331139 165.870313 
L 360.769874 165.905689 
L 376.208609 165.941915 
L 391.647344 165.950795 
L 407.08608 165.958396 
" style="fill:none;stroke:#1b9e77;stroke-linecap:square;stroke-opacity:0.5;stroke-width:1.5;"/>
   </g>
   <g id="line2d_112">
    <path clip-path="url(#p65c6fce586)" d="M 51.99517 142.206154 
L 67.433906 136.61226 
L 82.872641 140.600377 
L 98.311376 153.828231 
L 113.750111 156.995216 
L 129.188846 160.761631 
L 144.627582 162.593352 
L 160.066317 164.295996 
L 175.505052 164.882369 
L 190.943787 165.319486 
L 206.382522 165.480683 
L 221.821257 165.565505 
L 237.259993 165.619211 
L 252.698728 165.719657 
L 268.137463 165.700182 
L 283.576198 164.76005 
L 299.014933 163.855564 
L 314.453668 165.138417 
L 329.892404 164.763545 
L 345.331139 164.769203 
L 360.769874 164.625324 
L 376.208609 164.050111 
L 391.647344 159.749758 
L 407.08608 86.153808 
" style="fill:none;stroke:#1b9e77;stroke-linecap:square;stroke-opacity:0.5;stroke-width:1.5;"/>
   </g>
   <g id="line2d_113">
    <path clip-path="url(#p65c6fce586)" d="M 51.99517 165.938545 
L 67.433906 165.938643 
L 82.872641 165.923313 
L 98.311376 165.347453 
L 113.750111 165.780826 
L 129.188846 165.757945 
L 144.627582 165.750751 
L 160.066317 165.686258 
L 175.505052 163.124434 
L 190.943787 163.530439 
L 206.382522 139.347513 
L 221.821257 112.222369 
L 237.259993 59.812764 
L 252.698728 151.69529 
L 268.137463 165.834648 
L 283.576198 165.771548 
L 299.014933 165.812607 
L 314.453668 165.84758 
L 329.892404 165.293875 
L 345.331139 165.90917 
L 360.769874 165.917031 
L 376.208609 165.920848 
L 391.647344 165.937829 
L 407.08608 165.94442 
" style="fill:none;stroke:#d95f02;stroke-linecap:square;stroke-width:1.5;"/>
   </g>
   <g id="patch_3">
    <path d="M 34.240625 173.52 
L 34.240625 7.2 
" style="fill:none;stroke:#000000;stroke-linecap:square;stroke-linejoin:miter;stroke-width:0.8;"/>
   </g>
   <g id="patch_4">
    <path d="M 34.240625 173.52 
L 424.840625 173.52 
" style="fill:none;stroke:#000000;stroke-linecap:square;stroke-linejoin:miter;stroke-width:0.8;"/>
   </g>
   <g id="legend_1">
    <g id="patch_5">
     <path d="M 366.673438 29.878125 
L 417.840625 29.878125 
Q 419.840625 29.878125 419.840625 27.878125 
L 419.840625 14.2 
Q 419.840625 12.2 417.840625 12.2 
L 366.673438 12.2 
Q 364.673438 12.2 364.673438 14.2 
L 364.673438 27.878125 
Q 364.673438 29.878125 366.673438 29.878125 
z
" style="fill:#ffffff;opacity:0.8;stroke:#cccccc;stroke-linejoin:miter;"/>
    </g>
    <g id="line2d_114">
     <path d="M 368.673438 20.298438 
L 388.673438 20.298438 
" style="fill:none;stroke:#d95f02;stroke-linecap:square;stroke-width:1.5;"/>
    </g>
    <g id="line2d_115"/>
    <g id="text_15">
     <!-- real -->
     <defs>
      <path d="M 9.421875 75.984375 
L 18.40625 75.984375 
L 18.40625 0 
L 9.421875 0 
z
" id="DejaVuSans-108"/>
     </defs>
     <g transform="translate(396.673438 23.798438)scale(0.1 -0.1)">
      <use xlink:href="#DejaVuSans-114"/>
      <use x="41.082031" xlink:href="#DejaVuSans-101"/>
      <use x="102.605469" xlink:href="#DejaVuSans-97"/>
      <use x="163.884766" xlink:href="#DejaVuSans-108"/>
     </g>
    </g>
   </g>
  </g>
 </g>
 <defs>
  <clipPath id="p65c6fce586">
   <rect height="166.32" width="390.6" x="34.240625" y="7.2"/>
  </clipPath>
 </defs>
</svg>
