<?xml version="1.0" encoding="utf-8" standalone="no"?>
<!DOCTYPE svg PUBLIC "-//W3C//DTD SVG 1.1//EN"
  "http://www.w3.org/Graphics/SVG/1.1/DTD/svg11.dtd">
<!-- Created with matplotlib (https://matplotlib.org/) -->
<svg height="211.07625pt" version="1.1" viewBox="0 0 445.62794 211.07625" width="445.62794pt" xmlns="http://www.w3.org/2000/svg" xmlns:xlink="http://www.w3.org/1999/xlink">
 <defs>
  <style type="text/css">
*{stroke-linecap:butt;stroke-linejoin:round;}
  </style>
 </defs>
 <g id="figure_1">
  <g id="patch_1">
   <path d="M 0 211.07625 
L 445.62794 211.07625 
L 445.62794 0 
L 0 0 
z
" style="fill:#ffffff;"/>
  </g>
  <g id="axes_1">
   <g id="patch_2">
    <path d="M 43.78125 173.52 
L 434.38125 173.52 
L 434.38125 7.2 
L 43.78125 7.2 
z
" style="fill:#ffffff;"/>
   </g>
   <g id="matplotlib.axis_1">
    <g id="xtick_1">
     <g id="line2d_1">
      <defs>
       <path d="M 0 0 
L 0 3.5 
" id="mddfc76938e" style="stroke:#000000;stroke-width:0.8;"/>
      </defs>
      <g>
       <use style="stroke:#000000;stroke-width:0.8;" x="46.09706" xlink:href="#mddfc76938e" y="173.52"/>
      </g>
     </g>
     <g id="text_1">
      <!-- 0 -->
      <defs>
       <path d="M 31.78125 66.40625 
Q 24.171875 66.40625 20.328125 58.90625 
Q 16.5 51.421875 16.5 36.375 
Q 16.5 21.390625 20.328125 13.890625 
Q 24.171875 6.390625 31.78125 6.390625 
Q 39.453125 6.390625 43.28125 13.890625 
Q 47.125 21.390625 47.125 36.375 
Q 47.125 51.421875 43.28125 58.90625 
Q 39.453125 66.40625 31.78125 66.40625 
z
M 31.78125 74.21875 
Q 44.046875 74.21875 50.515625 64.515625 
Q 56.984375 54.828125 56.984375 36.375 
Q 56.984375 17.96875 50.515625 8.265625 
Q 44.046875 -1.421875 31.78125 -1.421875 
Q 19.53125 -1.421875 13.0625 8.265625 
Q 6.59375 17.96875 6.59375 36.375 
Q 6.59375 54.828125 13.0625 64.515625 
Q 19.53125 74.21875 31.78125 74.21875 
z
" id="DejaVuSans-48"/>
      </defs>
      <g transform="translate(42.91581 188.118438)scale(0.1 -0.1)">
       <use xlink:href="#DejaVuSans-48"/>
      </g>
     </g>
    </g>
    <g id="xtick_2">
     <g id="line2d_2">
      <g>
       <use style="stroke:#000000;stroke-width:0.8;" x="123.290736" xlink:href="#mddfc76938e" y="173.52"/>
      </g>
     </g>
     <g id="text_2">
      <!-- 5 -->
      <defs>
       <path d="M 10.796875 72.90625 
L 49.515625 72.90625 
L 49.515625 64.59375 
L 19.828125 64.59375 
L 19.828125 46.734375 
Q 21.96875 47.46875 24.109375 47.828125 
Q 26.265625 48.1875 28.421875 48.1875 
Q 40.625 48.1875 47.75 41.5 
Q 54.890625 34.8125 54.890625 23.390625 
Q 54.890625 11.625 47.5625 5.09375 
Q 40.234375 -1.421875 26.90625 -1.421875 
Q 22.3125 -1.421875 17.546875 -0.640625 
Q 12.796875 0.140625 7.71875 1.703125 
L 7.71875 11.625 
Q 12.109375 9.234375 16.796875 8.0625 
Q 21.484375 6.890625 26.703125 6.890625 
Q 35.15625 6.890625 40.078125 11.328125 
Q 45.015625 15.765625 45.015625 23.390625 
Q 45.015625 31 40.078125 35.4375 
Q 35.15625 39.890625 26.703125 39.890625 
Q 22.75 39.890625 18.8125 39.015625 
Q 14.890625 38.140625 10.796875 36.28125 
z
" id="DejaVuSans-53"/>
      </defs>
      <g transform="translate(120.109486 188.118438)scale(0.1 -0.1)">
       <use xlink:href="#DejaVuSans-53"/>
      </g>
     </g>
    </g>
    <g id="xtick_3">
     <g id="line2d_3">
      <g>
       <use style="stroke:#000000;stroke-width:0.8;" x="200.484412" xlink:href="#mddfc76938e" y="173.52"/>
      </g>
     </g>
     <g id="text_3">
      <!-- 10 -->
      <defs>
       <path d="M 12.40625 8.296875 
L 28.515625 8.296875 
L 28.515625 63.921875 
L 10.984375 60.40625 
L 10.984375 69.390625 
L 28.421875 72.90625 
L 38.28125 72.90625 
L 38.28125 8.296875 
L 54.390625 8.296875 
L 54.390625 0 
L 12.40625 0 
z
" id="DejaVuSans-49"/>
      </defs>
      <g transform="translate(194.121912 188.118438)scale(0.1 -0.1)">
       <use xlink:href="#DejaVuSans-49"/>
       <use x="63.623047" xlink:href="#DejaVuSans-48"/>
      </g>
     </g>
    </g>
    <g id="xtick_4">
     <g id="line2d_4">
      <g>
       <use style="stroke:#000000;stroke-width:0.8;" x="277.678088" xlink:href="#mddfc76938e" y="173.52"/>
      </g>
     </g>
     <g id="text_4">
      <!-- 15 -->
      <g transform="translate(271.315588 188.118438)scale(0.1 -0.1)">
       <use xlink:href="#DejaVuSans-49"/>
       <use x="63.623047" xlink:href="#DejaVuSans-53"/>
      </g>
     </g>
    </g>
    <g id="xtick_5">
     <g id="line2d_5">
      <g>
       <use style="stroke:#000000;stroke-width:0.8;" x="354.871764" xlink:href="#mddfc76938e" y="173.52"/>
      </g>
     </g>
     <g id="text_5">
      <!-- 20 -->
      <defs>
       <path d="M 19.1875 8.296875 
L 53.609375 8.296875 
L 53.609375 0 
L 7.328125 0 
L 7.328125 8.296875 
Q 12.9375 14.109375 22.625 23.890625 
Q 32.328125 33.6875 34.8125 36.53125 
Q 39.546875 41.84375 41.421875 45.53125 
Q 43.3125 49.21875 43.3125 52.78125 
Q 43.3125 58.59375 39.234375 62.25 
Q 35.15625 65.921875 28.609375 65.921875 
Q 23.96875 65.921875 18.8125 64.3125 
Q 13.671875 62.703125 7.8125 59.421875 
L 7.8125 69.390625 
Q 13.765625 71.78125 18.9375 73 
Q 24.125 74.21875 28.421875 74.21875 
Q 39.75 74.21875 46.484375 68.546875 
Q 53.21875 62.890625 53.21875 53.421875 
Q 53.21875 48.921875 51.53125 44.890625 
Q 49.859375 40.875 45.40625 35.40625 
Q 44.1875 33.984375 37.640625 27.21875 
Q 31.109375 20.453125 19.1875 8.296875 
z
" id="DejaVuSans-50"/>
      </defs>
      <g transform="translate(348.509264 188.118438)scale(0.1 -0.1)">
       <use xlink:href="#DejaVuSans-50"/>
       <use x="63.623047" xlink:href="#DejaVuSans-48"/>
      </g>
     </g>
    </g>
    <g id="xtick_6">
     <g id="line2d_6">
      <g>
       <use style="stroke:#000000;stroke-width:0.8;" x="432.06544" xlink:href="#mddfc76938e" y="173.52"/>
      </g>
     </g>
     <g id="text_6">
      <!-- 25 -->
      <g transform="translate(425.70294 188.118438)scale(0.1 -0.1)">
       <use xlink:href="#DejaVuSans-50"/>
       <use x="63.623047" xlink:href="#DejaVuSans-53"/>
      </g>
     </g>
    </g>
    <g id="text_7">
     <!-- hour -->
     <defs>
      <path d="M 54.890625 33.015625 
L 54.890625 0 
L 45.90625 0 
L 45.90625 32.71875 
Q 45.90625 40.484375 42.875 44.328125 
Q 39.84375 48.1875 33.796875 48.1875 
Q 26.515625 48.1875 22.3125 43.546875 
Q 18.109375 38.921875 18.109375 30.90625 
L 18.109375 0 
L 9.078125 0 
L 9.078125 75.984375 
L 18.109375 75.984375 
L 18.109375 46.1875 
Q 21.34375 51.125 25.703125 53.5625 
Q 30.078125 56 35.796875 56 
Q 45.21875 56 50.046875 50.171875 
Q 54.890625 44.34375 54.890625 33.015625 
z
" id="DejaVuSans-104"/>
      <path d="M 30.609375 48.390625 
Q 23.390625 48.390625 19.1875 42.75 
Q 14.984375 37.109375 14.984375 27.296875 
Q 14.984375 17.484375 19.15625 11.84375 
Q 23.34375 6.203125 30.609375 6.203125 
Q 37.796875 6.203125 41.984375 11.859375 
Q 46.1875 17.53125 46.1875 27.296875 
Q 46.1875 37.015625 41.984375 42.703125 
Q 37.796875 48.390625 30.609375 48.390625 
z
M 30.609375 56 
Q 42.328125 56 49.015625 48.375 
Q 55.71875 40.765625 55.71875 27.296875 
Q 55.71875 13.875 49.015625 6.21875 
Q 42.328125 -1.421875 30.609375 -1.421875 
Q 18.84375 -1.421875 12.171875 6.21875 
Q 5.515625 13.875 5.515625 27.296875 
Q 5.515625 40.765625 12.171875 48.375 
Q 18.84375 56 30.609375 56 
z
" id="DejaVuSans-111"/>
      <path d="M 8.5 21.578125 
L 8.5 54.6875 
L 17.484375 54.6875 
L 17.484375 21.921875 
Q 17.484375 14.15625 20.5 10.265625 
Q 23.53125 6.390625 29.59375 6.390625 
Q 36.859375 6.390625 41.078125 11.03125 
Q 45.3125 15.671875 45.3125 23.6875 
L 45.3125 54.6875 
L 54.296875 54.6875 
L 54.296875 0 
L 45.3125 0 
L 45.3125 8.40625 
Q 42.046875 3.421875 37.71875 1 
Q 33.40625 -1.421875 27.6875 -1.421875 
Q 18.265625 -1.421875 13.375 4.4375 
Q 8.5 10.296875 8.5 21.578125 
z
M 31.109375 56 
z
" id="DejaVuSans-117"/>
      <path d="M 41.109375 46.296875 
Q 39.59375 47.171875 37.8125 47.578125 
Q 36.03125 48 33.890625 48 
Q 26.265625 48 22.1875 43.046875 
Q 18.109375 38.09375 18.109375 28.8125 
L 18.109375 0 
L 9.078125 0 
L 9.078125 54.6875 
L 18.109375 54.6875 
L 18.109375 46.1875 
Q 20.953125 51.171875 25.484375 53.578125 
Q 30.03125 56 36.53125 56 
Q 37.453125 56 38.578125 55.875 
Q 39.703125 55.765625 41.0625 55.515625 
z
" id="DejaVuSans-114"/>
     </defs>
     <g transform="translate(227.628906 201.796563)scale(0.1 -0.1)">
      <use xlink:href="#DejaVuSans-104"/>
      <use x="63.378906" xlink:href="#DejaVuSans-111"/>
      <use x="124.560547" xlink:href="#DejaVuSans-117"/>
      <use x="187.939453" xlink:href="#DejaVuSans-114"/>
     </g>
    </g>
   </g>
   <g id="matplotlib.axis_2">
    <g id="ytick_1">
     <g id="line2d_7">
      <defs>
       <path d="M 0 0 
L -3.5 0 
" id="m323817d550" style="stroke:#000000;stroke-width:0.8;"/>
      </defs>
      <g>
       <use style="stroke:#000000;stroke-width:0.8;" x="43.78125" xlink:href="#m323817d550" y="165.96108"/>
      </g>
     </g>
     <g id="text_8">
      <!-- 0.0 -->
      <defs>
       <path d="M 10.6875 12.40625 
L 21 12.40625 
L 21 0 
L 10.6875 0 
z
" id="DejaVuSans-46"/>
      </defs>
      <g transform="translate(20.878125 169.760298)scale(0.1 -0.1)">
       <use xlink:href="#DejaVuSans-48"/>
       <use x="63.623047" xlink:href="#DejaVuSans-46"/>
       <use x="95.410156" xlink:href="#DejaVuSans-48"/>
      </g>
     </g>
    </g>
    <g id="ytick_2">
     <g id="line2d_8">
      <g>
       <use style="stroke:#000000;stroke-width:0.8;" x="43.78125" xlink:href="#m323817d550" y="135.486653"/>
      </g>
     </g>
     <g id="text_9">
      <!-- 0.5 -->
      <g transform="translate(20.878125 139.285872)scale(0.1 -0.1)">
       <use xlink:href="#DejaVuSans-48"/>
       <use x="63.623047" xlink:href="#DejaVuSans-46"/>
       <use x="95.410156" xlink:href="#DejaVuSans-53"/>
      </g>
     </g>
    </g>
    <g id="ytick_3">
     <g id="line2d_9">
      <g>
       <use style="stroke:#000000;stroke-width:0.8;" x="43.78125" xlink:href="#m323817d550" y="105.012227"/>
      </g>
     </g>
     <g id="text_10">
      <!-- 1.0 -->
      <g transform="translate(20.878125 108.811446)scale(0.1 -0.1)">
       <use xlink:href="#DejaVuSans-49"/>
       <use x="63.623047" xlink:href="#DejaVuSans-46"/>
       <use x="95.410156" xlink:href="#DejaVuSans-48"/>
      </g>
     </g>
    </g>
    <g id="ytick_4">
     <g id="line2d_10">
      <g>
       <use style="stroke:#000000;stroke-width:0.8;" x="43.78125" xlink:href="#m323817d550" y="74.537801"/>
      </g>
     </g>
     <g id="text_11">
      <!-- 1.5 -->
      <g transform="translate(20.878125 78.33702)scale(0.1 -0.1)">
       <use xlink:href="#DejaVuSans-49"/>
       <use x="63.623047" xlink:href="#DejaVuSans-46"/>
       <use x="95.410156" xlink:href="#DejaVuSans-53"/>
      </g>
     </g>
    </g>
    <g id="ytick_5">
     <g id="line2d_11">
      <g>
       <use style="stroke:#000000;stroke-width:0.8;" x="43.78125" xlink:href="#m323817d550" y="44.063375"/>
      </g>
     </g>
     <g id="text_12">
      <!-- 2.0 -->
      <g transform="translate(20.878125 47.862593)scale(0.1 -0.1)">
       <use xlink:href="#DejaVuSans-50"/>
       <use x="63.623047" xlink:href="#DejaVuSans-46"/>
       <use x="95.410156" xlink:href="#DejaVuSans-48"/>
      </g>
     </g>
    </g>
    <g id="ytick_6">
     <g id="line2d_12">
      <g>
       <use style="stroke:#000000;stroke-width:0.8;" x="43.78125" xlink:href="#m323817d550" y="13.588948"/>
      </g>
     </g>
     <g id="text_13">
      <!-- 2.5 -->
      <g transform="translate(20.878125 17.388167)scale(0.1 -0.1)">
       <use xlink:href="#DejaVuSans-50"/>
       <use x="63.623047" xlink:href="#DejaVuSans-46"/>
       <use x="95.410156" xlink:href="#DejaVuSans-53"/>
      </g>
     </g>
    </g>
    <g id="text_14">
     <!-- precipitation [mm/hour] -->
     <defs>
      <path d="M 18.109375 8.203125 
L 18.109375 -20.796875 
L 9.078125 -20.796875 
L 9.078125 54.6875 
L 18.109375 54.6875 
L 18.109375 46.390625 
Q 20.953125 51.265625 25.265625 53.625 
Q 29.59375 56 35.59375 56 
Q 45.5625 56 51.78125 48.09375 
Q 58.015625 40.1875 58.015625 27.296875 
Q 58.015625 14.40625 51.78125 6.484375 
Q 45.5625 -1.421875 35.59375 -1.421875 
Q 29.59375 -1.421875 25.265625 0.953125 
Q 20.953125 3.328125 18.109375 8.203125 
z
M 48.6875 27.296875 
Q 48.6875 37.203125 44.609375 42.84375 
Q 40.53125 48.484375 33.40625 48.484375 
Q 26.265625 48.484375 22.1875 42.84375 
Q 18.109375 37.203125 18.109375 27.296875 
Q 18.109375 17.390625 22.1875 11.75 
Q 26.265625 6.109375 33.40625 6.109375 
Q 40.53125 6.109375 44.609375 11.75 
Q 48.6875 17.390625 48.6875 27.296875 
z
" id="DejaVuSans-112"/>
      <path d="M 56.203125 29.59375 
L 56.203125 25.203125 
L 14.890625 25.203125 
Q 15.484375 15.921875 20.484375 11.0625 
Q 25.484375 6.203125 34.421875 6.203125 
Q 39.59375 6.203125 44.453125 7.46875 
Q 49.3125 8.734375 54.109375 11.28125 
L 54.109375 2.78125 
Q 49.265625 0.734375 44.1875 -0.34375 
Q 39.109375 -1.421875 33.890625 -1.421875 
Q 20.796875 -1.421875 13.15625 6.1875 
Q 5.515625 13.8125 5.515625 26.8125 
Q 5.515625 40.234375 12.765625 48.109375 
Q 20.015625 56 32.328125 56 
Q 43.359375 56 49.78125 48.890625 
Q 56.203125 41.796875 56.203125 29.59375 
z
M 47.21875 32.234375 
Q 47.125 39.59375 43.09375 43.984375 
Q 39.0625 48.390625 32.421875 48.390625 
Q 24.90625 48.390625 20.390625 44.140625 
Q 15.875 39.890625 15.1875 32.171875 
z
" id="DejaVuSans-101"/>
      <path d="M 48.78125 52.59375 
L 48.78125 44.1875 
Q 44.96875 46.296875 41.140625 47.34375 
Q 37.3125 48.390625 33.40625 48.390625 
Q 24.65625 48.390625 19.8125 42.84375 
Q 14.984375 37.3125 14.984375 27.296875 
Q 14.984375 17.28125 19.8125 11.734375 
Q 24.65625 6.203125 33.40625 6.203125 
Q 37.3125 6.203125 41.140625 7.25 
Q 44.96875 8.296875 48.78125 10.40625 
L 48.78125 2.09375 
Q 45.015625 0.34375 40.984375 -0.53125 
Q 36.96875 -1.421875 32.421875 -1.421875 
Q 20.0625 -1.421875 12.78125 6.34375 
Q 5.515625 14.109375 5.515625 27.296875 
Q 5.515625 40.671875 12.859375 48.328125 
Q 20.21875 56 33.015625 56 
Q 37.15625 56 41.109375 55.140625 
Q 45.0625 54.296875 48.78125 52.59375 
z
" id="DejaVuSans-99"/>
      <path d="M 9.421875 54.6875 
L 18.40625 54.6875 
L 18.40625 0 
L 9.421875 0 
z
M 9.421875 75.984375 
L 18.40625 75.984375 
L 18.40625 64.59375 
L 9.421875 64.59375 
z
" id="DejaVuSans-105"/>
      <path d="M 18.3125 70.21875 
L 18.3125 54.6875 
L 36.8125 54.6875 
L 36.8125 47.703125 
L 18.3125 47.703125 
L 18.3125 18.015625 
Q 18.3125 11.328125 20.140625 9.421875 
Q 21.96875 7.515625 27.59375 7.515625 
L 36.8125 7.515625 
L 36.8125 0 
L 27.59375 0 
Q 17.1875 0 13.234375 3.875 
Q 9.28125 7.765625 9.28125 18.015625 
L 9.28125 47.703125 
L 2.6875 47.703125 
L 2.6875 54.6875 
L 9.28125 54.6875 
L 9.28125 70.21875 
z
" id="DejaVuSans-116"/>
      <path d="M 34.28125 27.484375 
Q 23.390625 27.484375 19.1875 25 
Q 14.984375 22.515625 14.984375 16.5 
Q 14.984375 11.71875 18.140625 8.90625 
Q 21.296875 6.109375 26.703125 6.109375 
Q 34.1875 6.109375 38.703125 11.40625 
Q 43.21875 16.703125 43.21875 25.484375 
L 43.21875 27.484375 
z
M 52.203125 31.203125 
L 52.203125 0 
L 43.21875 0 
L 43.21875 8.296875 
Q 40.140625 3.328125 35.546875 0.953125 
Q 30.953125 -1.421875 24.3125 -1.421875 
Q 15.921875 -1.421875 10.953125 3.296875 
Q 6 8.015625 6 15.921875 
Q 6 25.140625 12.171875 29.828125 
Q 18.359375 34.515625 30.609375 34.515625 
L 43.21875 34.515625 
L 43.21875 35.40625 
Q 43.21875 41.609375 39.140625 45 
Q 35.0625 48.390625 27.6875 48.390625 
Q 23 48.390625 18.546875 47.265625 
Q 14.109375 46.140625 10.015625 43.890625 
L 10.015625 52.203125 
Q 14.9375 54.109375 19.578125 55.046875 
Q 24.21875 56 28.609375 56 
Q 40.484375 56 46.34375 49.84375 
Q 52.203125 43.703125 52.203125 31.203125 
z
" id="DejaVuSans-97"/>
      <path d="M 54.890625 33.015625 
L 54.890625 0 
L 45.90625 0 
L 45.90625 32.71875 
Q 45.90625 40.484375 42.875 44.328125 
Q 39.84375 48.1875 33.796875 48.1875 
Q 26.515625 48.1875 22.3125 43.546875 
Q 18.109375 38.921875 18.109375 30.90625 
L 18.109375 0 
L 9.078125 0 
L 9.078125 54.6875 
L 18.109375 54.6875 
L 18.109375 46.1875 
Q 21.34375 51.125 25.703125 53.5625 
Q 30.078125 56 35.796875 56 
Q 45.21875 56 50.046875 50.171875 
Q 54.890625 44.34375 54.890625 33.015625 
z
" id="DejaVuSans-110"/>
      <path id="DejaVuSans-32"/>
      <path d="M 8.59375 75.984375 
L 29.296875 75.984375 
L 29.296875 69 
L 17.578125 69 
L 17.578125 -6.203125 
L 29.296875 -6.203125 
L 29.296875 -13.1875 
L 8.59375 -13.1875 
z
" id="DejaVuSans-91"/>
      <path d="M 52 44.1875 
Q 55.375 50.25 60.0625 53.125 
Q 64.75 56 71.09375 56 
Q 79.640625 56 84.28125 50.015625 
Q 88.921875 44.046875 88.921875 33.015625 
L 88.921875 0 
L 79.890625 0 
L 79.890625 32.71875 
Q 79.890625 40.578125 77.09375 44.375 
Q 74.3125 48.1875 68.609375 48.1875 
Q 61.625 48.1875 57.5625 43.546875 
Q 53.515625 38.921875 53.515625 30.90625 
L 53.515625 0 
L 44.484375 0 
L 44.484375 32.71875 
Q 44.484375 40.625 41.703125 44.40625 
Q 38.921875 48.1875 33.109375 48.1875 
Q 26.21875 48.1875 22.15625 43.53125 
Q 18.109375 38.875 18.109375 30.90625 
L 18.109375 0 
L 9.078125 0 
L 9.078125 54.6875 
L 18.109375 54.6875 
L 18.109375 46.1875 
Q 21.1875 51.21875 25.484375 53.609375 
Q 29.78125 56 35.6875 56 
Q 41.65625 56 45.828125 52.96875 
Q 50 49.953125 52 44.1875 
z
" id="DejaVuSans-109"/>
      <path d="M 25.390625 72.90625 
L 33.6875 72.90625 
L 8.296875 -9.28125 
L 0 -9.28125 
z
" id="DejaVuSans-47"/>
      <path d="M 30.421875 75.984375 
L 30.421875 -13.1875 
L 9.71875 -13.1875 
L 9.71875 -6.203125 
L 21.390625 -6.203125 
L 21.390625 69 
L 9.71875 69 
L 9.71875 75.984375 
z
" id="DejaVuSans-93"/>
     </defs>
     <g transform="translate(14.798438 150.335781)rotate(-90)scale(0.1 -0.1)">
      <use xlink:href="#DejaVuSans-112"/>
      <use x="63.476562" xlink:href="#DejaVuSans-114"/>
      <use x="104.558594" xlink:href="#DejaVuSans-101"/>
      <use x="166.082031" xlink:href="#DejaVuSans-99"/>
      <use x="221.0625" xlink:href="#DejaVuSans-105"/>
      <use x="248.845703" xlink:href="#DejaVuSans-112"/>
      <use x="312.322266" xlink:href="#DejaVuSans-105"/>
      <use x="340.105469" xlink:href="#DejaVuSans-116"/>
      <use x="379.314453" xlink:href="#DejaVuSans-97"/>
      <use x="440.59375" xlink:href="#DejaVuSans-116"/>
      <use x="479.802734" xlink:href="#DejaVuSans-105"/>
      <use x="507.585938" xlink:href="#DejaVuSans-111"/>
      <use x="568.767578" xlink:href="#DejaVuSans-110"/>
      <use x="632.146484" xlink:href="#DejaVuSans-32"/>
      <use x="663.933594" xlink:href="#DejaVuSans-91"/>
      <use x="702.947266" xlink:href="#DejaVuSans-109"/>
      <use x="800.359375" xlink:href="#DejaVuSans-109"/>
      <use x="897.771484" xlink:href="#DejaVuSans-47"/>
      <use x="931.462891" xlink:href="#DejaVuSans-104"/>
      <use x="994.841797" xlink:href="#DejaVuSans-111"/>
      <use x="1056.023438" xlink:href="#DejaVuSans-117"/>
      <use x="1119.402344" xlink:href="#DejaVuSans-114"/>
      <use x="1160.515625" xlink:href="#DejaVuSans-93"/>
     </g>
    </g>
   </g>
   <g id="line2d_13">
    <path clip-path="url(#pc1e609df3f)" d="M 61.535795 164.779237 
L 76.974531 160.762893 
L 92.413266 158.446477 
L 107.852001 149.347878 
L 123.290736 122.859777 
L 138.729471 93.728984 
L 154.168207 122.690603 
L 169.606942 137.218758 
L 185.045677 157.305571 
L 200.484412 163.463215 
L 215.923147 165.396851 
L 231.361882 165.304358 
L 246.800618 165.477349 
L 262.239353 165.602353 
L 277.678088 165.694914 
L 293.116823 165.462006 
L 308.555558 165.101025 
L 323.994293 165.587272 
L 339.433029 165.775897 
L 354.871764 165.748938 
L 370.310499 165.696346 
L 385.749234 165.762881 
L 401.187969 165.865285 
L 416.626705 165.95372 
" style="fill:none;stroke:#1b9e77;stroke-linecap:square;stroke-opacity:0.5;stroke-width:1.5;"/>
   </g>
   <g id="line2d_14">
    <path clip-path="url(#pc1e609df3f)" d="M 61.535795 142.01865 
L 76.974531 150.923711 
L 92.413266 159.995951 
L 107.852001 157.461005 
L 123.290736 161.193907 
L 138.729471 163.27976 
L 154.168207 164.472855 
L 169.606942 164.81513 
L 185.045677 165.096423 
L 200.484412 165.236662 
L 215.923147 165.381094 
L 231.361882 165.490937 
L 246.800618 165.036303 
L 262.239353 161.386633 
L 277.678088 151.103489 
L 293.116823 163.700732 
L 308.555558 162.702305 
L 323.994293 157.409661 
L 339.433029 153.197364 
L 354.871764 152.453443 
L 370.310499 143.010599 
L 385.749234 135.353503 
L 401.187969 128.007424 
L 416.626705 150.305042 
" style="fill:none;stroke:#1b9e77;stroke-linecap:square;stroke-opacity:0.5;stroke-width:1.5;"/>
   </g>
   <g id="line2d_15">
    <path clip-path="url(#pc1e609df3f)" d="M 61.535795 165.562369 
L 76.974531 164.84358 
L 92.413266 161.2155 
L 107.852001 150.520046 
L 123.290736 154.941453 
L 138.729471 160.952118 
L 154.168207 164.086281 
L 169.606942 148.983717 
L 185.045677 114.881825 
L 200.484412 158.831376 
L 215.923147 146.464611 
L 231.361882 142.564433 
L 246.800618 149.421433 
L 262.239353 160.996567 
L 277.678088 154.626881 
L 293.116823 160.068631 
L 308.555558 159.573516 
L 323.994293 164.862906 
L 339.433029 165.478933 
L 354.871764 159.559864 
L 370.310499 147.455901 
L 385.749234 161.476475 
L 401.187969 165.886799 
L 416.626705 165.777363 
" style="fill:none;stroke:#1b9e77;stroke-linecap:square;stroke-opacity:0.5;stroke-width:1.5;"/>
   </g>
   <g id="line2d_16">
    <path clip-path="url(#pc1e609df3f)" d="M 61.535795 162.646428 
L 76.974531 165.154378 
L 92.413266 165.740363 
L 107.852001 165.723231 
L 123.290736 165.801561 
L 138.729471 165.816115 
L 154.168207 165.862417 
L 169.606942 165.92741 
L 185.045677 165.94308 
L 200.484412 165.713559 
L 215.923147 161.030189 
L 231.361882 156.724976 
L 246.800618 128.111113 
L 262.239353 159.262636 
L 277.678088 146.946756 
L 293.116823 151.595813 
L 308.555558 157.35817 
L 323.994293 154.372018 
L 339.433029 138.793641 
L 354.871764 137.615999 
L 370.310499 150.827551 
L 385.749234 150.625355 
L 401.187969 145.796685 
L 416.626705 155.643132 
" style="fill:none;stroke:#1b9e77;stroke-linecap:square;stroke-opacity:0.5;stroke-width:1.5;"/>
   </g>
   <g id="line2d_17">
    <path clip-path="url(#pc1e609df3f)" d="M 61.535795 161.504796 
L 76.974531 164.54309 
L 92.413266 165.307347 
L 107.852001 165.117591 
L 123.290736 165.316511 
L 138.729471 165.637452 
L 154.168207 165.77858 
L 169.606942 165.763519 
L 185.045677 165.677057 
L 200.484412 165.252849 
L 215.923147 164.791973 
L 231.361882 165.556949 
L 246.800618 165.447468 
L 262.239353 156.705169 
L 277.678088 84.963891 
L 293.116823 103.718008 
L 308.555558 155.453477 
L 323.994293 165.500621 
L 339.433029 162.437223 
L 354.871764 126.929715 
L 370.310499 150.607816 
L 385.749234 165.12837 
L 401.187969 165.936977 
L 416.626705 165.95613 
" style="fill:none;stroke:#1b9e77;stroke-linecap:square;stroke-opacity:0.5;stroke-width:1.5;"/>
   </g>
   <g id="line2d_18">
    <path clip-path="url(#pc1e609df3f)" d="M 61.535795 159.807162 
L 76.974531 141.897771 
L 92.413266 132.332165 
L 107.852001 129.392246 
L 123.290736 144.202928 
L 138.729471 148.207249 
L 154.168207 141.349467 
L 169.606942 146.854276 
L 185.045677 160.441974 
L 200.484412 158.018445 
L 215.923147 148.179464 
L 231.361882 160.573498 
L 246.800618 165.716548 
L 262.239353 165.465387 
L 277.678088 164.8636 
L 293.116823 164.415412 
L 308.555558 164.833985 
L 323.994293 165.015392 
L 339.433029 164.831107 
L 354.871764 164.021379 
L 370.310499 163.200227 
L 385.749234 164.857464 
L 401.187969 165.128676 
L 416.626705 165.42675 
" style="fill:none;stroke:#1b9e77;stroke-linecap:square;stroke-opacity:0.5;stroke-width:1.5;"/>
   </g>
   <g id="line2d_19">
    <path clip-path="url(#pc1e609df3f)" d="M 61.535795 158.618676 
L 76.974531 165.377686 
L 92.413266 164.300816 
L 107.852001 160.01978 
L 123.290736 163.516122 
L 138.729471 151.994924 
L 154.168207 94.001018 
L 169.606942 135.812094 
L 185.045677 148.653541 
L 200.484412 147.057644 
L 215.923147 161.595167 
L 231.361882 164.666354 
L 246.800618 165.264808 
L 262.239353 165.147204 
L 277.678088 164.053072 
L 293.116823 162.567652 
L 308.555558 162.676599 
L 323.994293 165.87254 
L 339.433029 164.695297 
L 354.871764 151.541854 
L 370.310499 156.699198 
L 385.749234 160.672449 
L 401.187969 153.381838 
L 416.626705 160.846244 
" style="fill:none;stroke:#1b9e77;stroke-linecap:square;stroke-opacity:0.5;stroke-width:1.5;"/>
   </g>
   <g id="line2d_20">
    <path clip-path="url(#pc1e609df3f)" d="M 61.535795 160.01429 
L 76.974531 154.327634 
L 92.413266 159.844769 
L 107.852001 164.598293 
L 123.290736 164.87532 
L 138.729471 161.977407 
L 154.168207 159.718225 
L 169.606942 160.061587 
L 185.045677 162.928511 
L 200.484412 165.376062 
L 215.923147 159.073121 
L 231.361882 158.969772 
L 246.800618 148.527749 
L 262.239353 147.406562 
L 277.678088 121.267891 
L 293.116823 151.261893 
L 308.555558 152.96033 
L 323.994293 145.627277 
L 339.433029 150.313843 
L 354.871764 158.609491 
L 370.310499 159.232883 
L 385.749234 150.537079 
L 401.187969 165.619738 
L 416.626705 165.902855 
" style="fill:none;stroke:#1b9e77;stroke-linecap:square;stroke-opacity:0.5;stroke-width:1.5;"/>
   </g>
   <g id="line2d_21">
    <path clip-path="url(#pc1e609df3f)" d="M 61.535795 165.827591 
L 76.974531 165.822379 
L 92.413266 165.921813 
L 107.852001 165.948584 
L 123.290736 165.923168 
L 138.729471 164.096236 
L 154.168207 164.252346 
L 169.606942 164.366265 
L 185.045677 164.242054 
L 200.484412 163.451361 
L 215.923147 163.960692 
L 231.361882 148.662173 
L 246.800618 95.309856 
L 262.239353 124.050512 
L 277.678088 138.513337 
L 293.116823 121.055221 
L 308.555558 146.572528 
L 323.994293 165.704232 
L 339.433029 165.926546 
L 354.871764 165.786954 
L 370.310499 165.798164 
L 385.749234 165.931116 
L 401.187969 165.949896 
L 416.626705 165.959546 
" style="fill:none;stroke:#1b9e77;stroke-linecap:square;stroke-opacity:0.5;stroke-width:1.5;"/>
   </g>
   <g id="line2d_22">
    <path clip-path="url(#pc1e609df3f)" d="M 61.535795 163.193336 
L 76.974531 158.809869 
L 92.413266 165.451097 
L 107.852001 165.782941 
L 123.290736 165.816641 
L 138.729471 165.488612 
L 154.168207 154.914277 
L 169.606942 149.681167 
L 185.045677 155.103748 
L 200.484412 164.407958 
L 215.923147 145.69231 
L 231.361882 136.95642 
L 246.800618 131.909016 
L 262.239353 131.184774 
L 277.678088 149.539116 
L 293.116823 150.509197 
L 308.555558 140.64649 
L 323.994293 164.173333 
L 339.433029 164.7948 
L 354.871764 162.936879 
L 370.310499 165.497672 
L 385.749234 165.623515 
L 401.187969 165.378771 
L 416.626705 165.540643 
" style="fill:none;stroke:#1b9e77;stroke-linecap:square;stroke-opacity:0.5;stroke-width:1.5;"/>
   </g>
   <g id="line2d_23">
    <path clip-path="url(#pc1e609df3f)" d="M 61.535795 164.30783 
L 76.974531 158.080945 
L 92.413266 150.374104 
L 107.852001 133.658371 
L 123.290736 141.699396 
L 138.729471 162.006654 
L 154.168207 165.287176 
L 169.606942 165.340561 
L 185.045677 165.722879 
L 200.484412 165.82837 
L 215.923147 165.880093 
L 231.361882 165.880987 
L 246.800618 165.883523 
L 262.239353 165.875687 
L 277.678088 164.560412 
L 293.116823 161.48483 
L 308.555558 161.648152 
L 323.994293 159.431522 
L 339.433029 145.072901 
L 354.871764 142.501643 
L 370.310499 151.408285 
L 385.749234 148.49247 
L 401.187969 139.668515 
L 416.626705 138.937269 
" style="fill:none;stroke:#1b9e77;stroke-linecap:square;stroke-opacity:0.5;stroke-width:1.5;"/>
   </g>
   <g id="line2d_24">
    <path clip-path="url(#pc1e609df3f)" d="M 61.535795 158.31839 
L 76.974531 161.048026 
L 92.413266 164.469264 
L 107.852001 164.199524 
L 123.290736 164.195325 
L 138.729471 164.09315 
L 154.168207 164.542991 
L 169.606942 165.087121 
L 185.045677 165.292241 
L 200.484412 165.140033 
L 215.923147 164.954292 
L 231.361882 165.254469 
L 246.800618 165.477881 
L 262.239353 165.822058 
L 277.678088 165.689329 
L 293.116823 145.558818 
L 308.555558 154.107787 
L 323.994293 156.292008 
L 339.433029 149.950772 
L 354.871764 149.049845 
L 370.310499 154.390756 
L 385.749234 151.999284 
L 401.187969 94.959447 
L 416.626705 129.139771 
" style="fill:none;stroke:#1b9e77;stroke-linecap:square;stroke-opacity:0.5;stroke-width:1.5;"/>
   </g>
   <g id="line2d_25">
    <path clip-path="url(#pc1e609df3f)" d="M 61.535795 164.904947 
L 76.974531 165.322052 
L 92.413266 165.734916 
L 107.852001 165.635456 
L 123.290736 165.713719 
L 138.729471 165.847806 
L 154.168207 165.906044 
L 169.606942 165.93529 
L 185.045677 165.934857 
L 200.484412 165.597789 
L 215.923147 164.698173 
L 231.361882 164.972242 
L 246.800618 164.508186 
L 262.239353 163.710563 
L 277.678088 162.425031 
L 293.116823 160.560797 
L 308.555558 158.904727 
L 323.994293 151.804693 
L 339.433029 101.113018 
L 354.871764 94.164466 
L 370.310499 130.060942 
L 385.749234 147.39364 
L 401.187969 162.401682 
L 416.626705 165.781548 
" style="fill:none;stroke:#1b9e77;stroke-linecap:square;stroke-opacity:0.5;stroke-width:1.5;"/>
   </g>
   <g id="line2d_26">
    <path clip-path="url(#pc1e609df3f)" d="M 61.535795 160.27169 
L 76.974531 159.384207 
L 92.413266 164.391492 
L 107.852001 164.314545 
L 123.290736 164.978684 
L 138.729471 165.244751 
L 154.168207 165.583941 
L 169.606942 165.680644 
L 185.045677 165.778501 
L 200.484412 165.810711 
L 215.923147 165.736122 
L 231.361882 165.636496 
L 246.800618 162.620989 
L 262.239353 158.098751 
L 277.678088 90.411799 
L 293.116823 148.923303 
L 308.555558 154.236471 
L 323.994293 88.473638 
L 339.433029 147.968915 
L 354.871764 163.170786 
L 370.310499 165.265529 
L 385.749234 165.385716 
L 401.187969 165.732452 
L 416.626705 165.932454 
" style="fill:none;stroke:#1b9e77;stroke-linecap:square;stroke-opacity:0.5;stroke-width:1.5;"/>
   </g>
   <g id="line2d_27">
    <path clip-path="url(#pc1e609df3f)" d="M 61.535795 165.789743 
L 76.974531 165.599434 
L 92.413266 165.799812 
L 107.852001 165.836747 
L 123.290736 165.866816 
L 138.729471 165.914747 
L 154.168207 165.754148 
L 169.606942 165.923761 
L 185.045677 165.262352 
L 200.484412 146.228094 
L 215.923147 133.473264 
L 231.361882 91.93206 
L 246.800618 121.683291 
L 262.239353 114.399399 
L 277.678088 157.587943 
L 293.116823 164.973294 
L 308.555558 165.800037 
L 323.994293 165.786856 
L 339.433029 165.820537 
L 354.871764 165.871704 
L 370.310499 165.891392 
L 385.749234 165.940389 
L 401.187969 165.955689 
L 416.626705 165.941084 
" style="fill:none;stroke:#1b9e77;stroke-linecap:square;stroke-opacity:0.5;stroke-width:1.5;"/>
   </g>
   <g id="line2d_28">
    <path clip-path="url(#pc1e609df3f)" d="M 61.535795 165.42431 
L 76.974531 165.540641 
L 92.413266 165.848345 
L 107.852001 165.880621 
L 123.290736 165.885202 
L 138.729471 165.596634 
L 154.168207 163.71867 
L 169.606942 165.760682 
L 185.045677 165.897139 
L 200.484412 165.708688 
L 215.923147 163.903014 
L 231.361882 128.656241 
L 246.800618 130.900468 
L 262.239353 164.890936 
L 277.678088 153.382318 
L 293.116823 105.242723 
L 308.555558 88.040793 
L 323.994293 163.53262 
L 339.433029 165.696649 
L 354.871764 165.817589 
L 370.310499 165.903366 
L 385.749234 165.910778 
L 401.187969 165.936797 
L 416.626705 165.957355 
" style="fill:none;stroke:#1b9e77;stroke-linecap:square;stroke-opacity:0.5;stroke-width:1.5;"/>
   </g>
   <g id="line2d_29">
    <path clip-path="url(#pc1e609df3f)" d="M 61.535795 161.60656 
L 76.974531 153.371429 
L 92.413266 162.452238 
L 107.852001 164.482842 
L 123.290736 164.991436 
L 138.729471 163.452821 
L 154.168207 158.584111 
L 169.606942 160.0952 
L 185.045677 163.210502 
L 200.484412 164.411984 
L 215.923147 164.561329 
L 231.361882 164.02145 
L 246.800618 158.570441 
L 262.239353 141.089302 
L 277.678088 137.89008 
L 293.116823 160.098386 
L 308.555558 161.856684 
L 323.994293 160.90381 
L 339.433029 155.295111 
L 354.871764 160.589365 
L 370.310499 129.386579 
L 385.749234 147.095867 
L 401.187969 145.332776 
L 416.626705 145.682273 
" style="fill:none;stroke:#1b9e77;stroke-linecap:square;stroke-opacity:0.5;stroke-width:1.5;"/>
   </g>
   <g id="line2d_30">
    <path clip-path="url(#pc1e609df3f)" d="M 61.535795 163.379699 
L 76.974531 161.958782 
L 92.413266 164.593235 
L 107.852001 164.121664 
L 123.290736 163.961453 
L 138.729471 164.349624 
L 154.168207 165.164578 
L 169.606942 165.682337 
L 185.045677 164.905684 
L 200.484412 165.505541 
L 215.923147 164.754567 
L 231.361882 164.349381 
L 246.800618 157.580094 
L 262.239353 162.479468 
L 277.678088 160.036995 
L 293.116823 156.839062 
L 308.555558 155.091097 
L 323.994293 145.429148 
L 339.433029 120.190886 
L 354.871764 132.947425 
L 370.310499 140.617066 
L 385.749234 133.46978 
L 401.187969 151.034527 
L 416.626705 160.590487 
" style="fill:none;stroke:#1b9e77;stroke-linecap:square;stroke-opacity:0.5;stroke-width:1.5;"/>
   </g>
   <g id="line2d_31">
    <path clip-path="url(#pc1e609df3f)" d="M 61.535795 146.56523 
L 76.974531 153.261822 
L 92.413266 162.592452 
L 107.852001 163.461603 
L 123.290736 164.222619 
L 138.729471 163.707853 
L 154.168207 161.979691 
L 169.606942 163.047055 
L 185.045677 163.141327 
L 200.484412 164.646276 
L 215.923147 163.284219 
L 231.361882 155.331211 
L 246.800618 150.62786 
L 262.239353 163.689669 
L 277.678088 160.234242 
L 293.116823 142.218129 
L 308.555558 153.704633 
L 323.994293 151.081059 
L 339.433029 128.686583 
L 354.871764 155.930914 
L 370.310499 162.771294 
L 385.749234 143.94952 
L 401.187969 148.453357 
L 416.626705 162.443965 
" style="fill:none;stroke:#1b9e77;stroke-linecap:square;stroke-opacity:0.5;stroke-width:1.5;"/>
   </g>
   <g id="line2d_32">
    <path clip-path="url(#pc1e609df3f)" d="M 61.535795 157.551229 
L 76.974531 115.100558 
L 92.413266 117.122696 
L 107.852001 154.884686 
L 123.290736 164.589709 
L 138.729471 165.344638 
L 154.168207 161.699434 
L 169.606942 137.797125 
L 185.045677 150.217404 
L 200.484412 150.18 
L 215.923147 148.145032 
L 231.361882 148.691642 
L 246.800618 158.589679 
L 262.239353 164.178353 
L 277.678088 165.497297 
L 293.116823 165.240493 
L 308.555558 165.585737 
L 323.994293 165.834963 
L 339.433029 165.901842 
L 354.871764 165.914123 
L 370.310499 165.78854 
L 385.749234 164.975091 
L 401.187969 164.813159 
L 416.626705 165.389146 
" style="fill:none;stroke:#1b9e77;stroke-linecap:square;stroke-opacity:0.5;stroke-width:1.5;"/>
   </g>
   <g id="line2d_33">
    <path clip-path="url(#pc1e609df3f)" d="M 61.535795 163.781576 
L 76.974531 155.180119 
L 92.413266 158.498944 
L 107.852001 153.161015 
L 123.290736 95.063549 
L 138.729471 129.798019 
L 154.168207 149.797366 
L 169.606942 148.733738 
L 185.045677 157.21651 
L 200.484412 164.314708 
L 215.923147 165.769454 
L 231.361882 165.74829 
L 246.800618 165.195239 
L 262.239353 160.159923 
L 277.678088 161.860769 
L 293.116823 164.356503 
L 308.555558 163.465564 
L 323.994293 162.497093 
L 339.433029 159.585235 
L 354.871764 164.414311 
L 370.310499 159.103993 
L 385.749234 159.936441 
L 401.187969 165.311019 
L 416.626705 156.083205 
" style="fill:none;stroke:#1b9e77;stroke-linecap:square;stroke-opacity:0.5;stroke-width:1.5;"/>
   </g>
   <g id="line2d_34">
    <path clip-path="url(#pc1e609df3f)" d="M 61.535795 164.260698 
L 76.974531 165.21577 
L 92.413266 165.717903 
L 107.852001 165.718181 
L 123.290736 165.715533 
L 138.729471 165.572342 
L 154.168207 165.200859 
L 169.606942 165.846449 
L 185.045677 165.287519 
L 200.484412 164.789258 
L 215.923147 163.80064 
L 231.361882 162.283377 
L 246.800618 156.914504 
L 262.239353 150.865556 
L 277.678088 155.682968 
L 293.116823 140.934708 
L 308.555558 151.36749 
L 323.994293 98.872533 
L 339.433029 152.256179 
L 354.871764 164.444757 
L 370.310499 163.248119 
L 385.749234 146.592184 
L 401.187969 124.33578 
L 416.626705 164.109277 
" style="fill:none;stroke:#1b9e77;stroke-linecap:square;stroke-opacity:0.5;stroke-width:1.5;"/>
   </g>
   <g id="line2d_35">
    <path clip-path="url(#pc1e609df3f)" d="M 61.535795 154.623416 
L 76.974531 163.566958 
L 92.413266 163.301787 
L 107.852001 161.094405 
L 123.290736 158.969242 
L 138.729471 155.865484 
L 154.168207 154.132906 
L 169.606942 138.385924 
L 185.045677 108.085936 
L 200.484412 158.099452 
L 215.923147 165.254953 
L 231.361882 163.473453 
L 246.800618 165.007821 
L 262.239353 165.795277 
L 277.678088 165.873288 
L 293.116823 165.802258 
L 308.555558 165.499239 
L 323.994293 165.075469 
L 339.433029 143.942198 
L 354.871764 161.413049 
L 370.310499 129.710751 
L 385.749234 157.54799 
L 401.187969 154.618461 
L 416.626705 163.892864 
" style="fill:none;stroke:#1b9e77;stroke-linecap:square;stroke-opacity:0.5;stroke-width:1.5;"/>
   </g>
   <g id="line2d_36">
    <path clip-path="url(#pc1e609df3f)" d="M 61.535795 165.926252 
L 76.974531 165.610161 
L 92.413266 163.930051 
L 107.852001 165.666949 
L 123.290736 164.9431 
L 138.729471 164.936126 
L 154.168207 158.977668 
L 169.606942 158.506263 
L 185.045677 151.112941 
L 200.484412 138.112979 
L 215.923147 123.437238 
L 231.361882 138.769915 
L 246.800618 160.210845 
L 262.239353 153.887381 
L 277.678088 87.690552 
L 293.116823 161.945853 
L 308.555558 165.538147 
L 323.994293 165.385981 
L 339.433029 165.591035 
L 354.871764 165.695011 
L 370.310499 165.747698 
L 385.749234 165.744401 
L 401.187969 165.743775 
L 416.626705 165.92226 
" style="fill:none;stroke:#1b9e77;stroke-linecap:square;stroke-opacity:0.5;stroke-width:1.5;"/>
   </g>
   <g id="line2d_37">
    <path clip-path="url(#pc1e609df3f)" d="M 61.535795 84.705074 
L 76.974531 158.581399 
L 92.413266 161.362676 
L 107.852001 158.768154 
L 123.290736 163.788279 
L 138.729471 151.020094 
L 154.168207 68.665309 
L 169.606942 164.085567 
L 185.045677 165.604952 
L 200.484412 165.541053 
L 215.923147 165.656478 
L 231.361882 165.713519 
L 246.800618 165.795639 
L 262.239353 165.812031 
L 277.678088 165.846242 
L 293.116823 165.846666 
L 308.555558 165.857599 
L 323.994293 165.886242 
L 339.433029 165.897909 
L 354.871764 165.926521 
L 370.310499 165.921912 
L 385.749234 159.958402 
L 401.187969 160.652409 
L 416.626705 162.138457 
" style="fill:none;stroke:#1b9e77;stroke-linecap:square;stroke-opacity:0.5;stroke-width:1.5;"/>
   </g>
   <g id="line2d_38">
    <path clip-path="url(#pc1e609df3f)" d="M 61.535795 160.026557 
L 76.974531 161.88177 
L 92.413266 165.896381 
L 107.852001 165.922282 
L 123.290736 165.900894 
L 138.729471 165.807301 
L 154.168207 164.423668 
L 169.606942 165.504369 
L 185.045677 165.606756 
L 200.484412 165.697151 
L 215.923147 164.86314 
L 231.361882 163.9932 
L 246.800618 159.579017 
L 262.239353 158.189719 
L 277.678088 136.74251 
L 293.116823 148.825954 
L 308.555558 160.686947 
L 323.994293 108.286592 
L 339.433029 113.340733 
L 354.871764 150.885343 
L 370.310499 156.134762 
L 385.749234 154.201286 
L 401.187969 160.96849 
L 416.626705 165.667756 
" style="fill:none;stroke:#1b9e77;stroke-linecap:square;stroke-opacity:0.5;stroke-width:1.5;"/>
   </g>
   <g id="line2d_39">
    <path clip-path="url(#pc1e609df3f)" d="M 61.535795 165.955922 
L 76.974531 165.946252 
L 92.413266 165.920681 
L 107.852001 165.93398 
L 123.290736 165.9011 
L 138.729471 165.957724 
L 154.168207 163.703064 
L 169.606942 162.128977 
L 185.045677 161.041977 
L 200.484412 31.809053 
L 215.923147 124.266404 
L 231.361882 137.628271 
L 246.800618 157.15096 
L 262.239353 158.858683 
L 277.678088 165.019858 
L 293.116823 165.725328 
L 308.555558 165.818507 
L 323.994293 165.828704 
L 339.433029 165.740894 
L 354.871764 165.486665 
L 370.310499 165.770465 
L 385.749234 165.838037 
L 401.187969 165.819466 
L 416.626705 165.781608 
" style="fill:none;stroke:#1b9e77;stroke-linecap:square;stroke-opacity:0.5;stroke-width:1.5;"/>
   </g>
   <g id="line2d_40">
    <path clip-path="url(#pc1e609df3f)" d="M 61.535795 165.136848 
L 76.974531 164.150732 
L 92.413266 162.060799 
L 107.852001 155.606085 
L 123.290736 148.572582 
L 138.729471 157.74645 
L 154.168207 153.112414 
L 169.606942 150.193609 
L 185.045677 140.58723 
L 200.484412 105.009466 
L 215.923147 126.377931 
L 231.361882 157.042866 
L 246.800618 159.186524 
L 262.239353 159.197542 
L 277.678088 161.353925 
L 293.116823 161.014052 
L 308.555558 163.869886 
L 323.994293 165.799268 
L 339.433029 165.881863 
L 354.871764 164.642306 
L 370.310499 164.692073 
L 385.749234 165.901007 
L 401.187969 165.939407 
L 416.626705 165.957715 
" style="fill:none;stroke:#1b9e77;stroke-linecap:square;stroke-opacity:0.5;stroke-width:1.5;"/>
   </g>
   <g id="line2d_41">
    <path clip-path="url(#pc1e609df3f)" d="M 61.535795 161.895924 
L 76.974531 154.512065 
L 92.413266 144.933182 
L 107.852001 127.343633 
L 123.290736 117.678679 
L 138.729471 102.045509 
L 154.168207 143.88966 
L 169.606942 160.843465 
L 185.045677 164.533432 
L 200.484412 165.195435 
L 215.923147 165.629985 
L 231.361882 165.653964 
L 246.800618 165.790589 
L 262.239353 165.846969 
L 277.678088 165.893341 
L 293.116823 165.899305 
L 308.555558 165.894183 
L 323.994293 165.947217 
L 339.433029 165.617914 
L 354.871764 163.971095 
L 370.310499 163.671995 
L 385.749234 162.399778 
L 401.187969 160.061683 
L 416.626705 163.883575 
" style="fill:none;stroke:#1b9e77;stroke-linecap:square;stroke-opacity:0.5;stroke-width:1.5;"/>
   </g>
   <g id="line2d_42">
    <path clip-path="url(#pc1e609df3f)" d="M 61.535795 165.13665 
L 76.974531 159.903808 
L 92.413266 150.681012 
L 107.852001 110.870289 
L 123.290736 119.056831 
L 138.729471 151.689422 
L 154.168207 155.261048 
L 169.606942 148.257938 
L 185.045677 160.603914 
L 200.484412 165.124586 
L 215.923147 165.657827 
L 231.361882 165.536963 
L 246.800618 165.585108 
L 262.239353 165.680236 
L 277.678088 165.798827 
L 293.116823 165.829985 
L 308.555558 165.849421 
L 323.994293 165.883969 
L 339.433029 165.891528 
L 354.871764 165.888647 
L 370.310499 165.568451 
L 385.749234 165.228671 
L 401.187969 130.822697 
L 416.626705 143.224751 
" style="fill:none;stroke:#1b9e77;stroke-linecap:square;stroke-opacity:0.5;stroke-width:1.5;"/>
   </g>
   <g id="line2d_43">
    <path clip-path="url(#pc1e609df3f)" d="M 61.535795 165.884108 
L 76.974531 165.708512 
L 92.413266 165.83823 
L 107.852001 165.852025 
L 123.290736 165.873564 
L 138.729471 165.92002 
L 154.168207 165.926122 
L 169.606942 165.95701 
L 185.045677 165.569638 
L 200.484412 149.558021 
L 215.923147 161.022493 
L 231.361882 157.738496 
L 246.800618 103.84119 
L 262.239353 121.830283 
L 277.678088 147.541082 
L 293.116823 130.608316 
L 308.555558 160.059496 
L 323.994293 165.665334 
L 339.433029 165.838006 
L 354.871764 160.280766 
L 370.310499 154.991843 
L 385.749234 157.773623 
L 401.187969 156.711 
L 416.626705 163.043401 
" style="fill:none;stroke:#1b9e77;stroke-linecap:square;stroke-opacity:0.5;stroke-width:1.5;"/>
   </g>
   <g id="line2d_44">
    <path clip-path="url(#pc1e609df3f)" d="M 61.535795 165.721789 
L 76.974531 165.809694 
L 92.413266 165.787167 
L 107.852001 156.453957 
L 123.290736 121.355722 
L 138.729471 156.168128 
L 154.168207 135.625726 
L 169.606942 143.852625 
L 185.045677 150.357284 
L 200.484412 107.279232 
L 215.923147 150.42168 
L 231.361882 162.766367 
L 246.800618 163.644044 
L 262.239353 159.835756 
L 277.678088 158.864987 
L 293.116823 162.3864 
L 308.555558 164.246641 
L 323.994293 165.049783 
L 339.433029 165.50721 
L 354.871764 165.559725 
L 370.310499 165.759264 
L 385.749234 165.862881 
L 401.187969 165.901576 
L 416.626705 164.814946 
" style="fill:none;stroke:#1b9e77;stroke-linecap:square;stroke-opacity:0.5;stroke-width:1.5;"/>
   </g>
   <g id="line2d_45">
    <path clip-path="url(#pc1e609df3f)" d="M 61.535795 165.694284 
L 76.974531 165.552941 
L 92.413266 165.647253 
L 107.852001 165.493832 
L 123.290736 165.46022 
L 138.729471 165.879565 
L 154.168207 165.914146 
L 169.606942 164.760672 
L 185.045677 142.908945 
L 200.484412 153.52243 
L 215.923147 141.690743 
L 231.361882 138.888282 
L 246.800618 155.098363 
L 262.239353 152.242568 
L 277.678088 130.201304 
L 293.116823 120.857766 
L 308.555558 130.807715 
L 323.994293 163.714188 
L 339.433029 165.57794 
L 354.871764 165.594019 
L 370.310499 165.818815 
L 385.749234 165.858871 
L 401.187969 165.895706 
L 416.626705 165.95201 
" style="fill:none;stroke:#1b9e77;stroke-linecap:square;stroke-opacity:0.5;stroke-width:1.5;"/>
   </g>
   <g id="line2d_46">
    <path clip-path="url(#pc1e609df3f)" d="M 61.535795 165.42486 
L 76.974531 165.305427 
L 92.413266 165.717638 
L 107.852001 165.739217 
L 123.290736 165.788459 
L 138.729471 165.833305 
L 154.168207 165.809422 
L 169.606942 165.887383 
L 185.045677 165.818648 
L 200.484412 152.154087 
L 215.923147 155.420155 
L 231.361882 153.690274 
L 246.800618 30.067327 
L 262.239353 133.721027 
L 277.678088 154.595314 
L 293.116823 151.974895 
L 308.555558 164.825229 
L 323.994293 165.714327 
L 339.433029 165.888749 
L 354.871764 165.898596 
L 370.310499 165.922911 
L 385.749234 165.93881 
L 401.187969 165.937198 
L 416.626705 165.959314 
" style="fill:none;stroke:#1b9e77;stroke-linecap:square;stroke-opacity:0.5;stroke-width:1.5;"/>
   </g>
   <g id="line2d_47">
    <path clip-path="url(#pc1e609df3f)" d="M 61.535795 153.597878 
L 76.974531 134.704312 
L 92.413266 127.808461 
L 107.852001 130.670005 
L 123.290736 141.558421 
L 138.729471 133.603519 
L 154.168207 146.025449 
L 169.606942 152.731696 
L 185.045677 160.839566 
L 200.484412 164.677391 
L 215.923147 165.441066 
L 231.361882 164.795682 
L 246.800618 162.688681 
L 262.239353 156.899292 
L 277.678088 165.232384 
L 293.116823 165.64774 
L 308.555558 165.691619 
L 323.994293 165.234207 
L 339.433029 164.495213 
L 354.871764 165.532639 
L 370.310499 165.808328 
L 385.749234 165.837166 
L 401.187969 165.812733 
L 416.626705 163.699131 
" style="fill:none;stroke:#1b9e77;stroke-linecap:square;stroke-opacity:0.5;stroke-width:1.5;"/>
   </g>
   <g id="line2d_48">
    <path clip-path="url(#pc1e609df3f)" d="M 61.535795 165.45233 
L 76.974531 165.121256 
L 92.413266 165.061295 
L 107.852001 164.79251 
L 123.290736 163.300176 
L 138.729471 162.452266 
L 154.168207 163.841875 
L 169.606942 165.101812 
L 185.045677 156.510045 
L 200.484412 154.597823 
L 215.923147 132.163754 
L 231.361882 141.460358 
L 246.800618 156.209371 
L 262.239353 158.788042 
L 277.678088 159.351665 
L 293.116823 159.728344 
L 308.555558 155.607869 
L 323.994293 127.039459 
L 339.433029 121.29056 
L 354.871764 151.301566 
L 370.310499 163.085815 
L 385.749234 165.2075 
L 401.187969 165.672958 
L 416.626705 165.893931 
" style="fill:none;stroke:#1b9e77;stroke-linecap:square;stroke-opacity:0.5;stroke-width:1.5;"/>
   </g>
   <g id="line2d_49">
    <path clip-path="url(#pc1e609df3f)" d="M 61.535795 161.523423 
L 76.974531 164.94284 
L 92.413266 165.713206 
L 107.852001 165.826271 
L 123.290736 165.844923 
L 138.729471 165.731503 
L 154.168207 162.132685 
L 169.606942 165.682038 
L 185.045677 163.181096 
L 200.484412 161.026249 
L 215.923147 163.922083 
L 231.361882 161.131921 
L 246.800618 63.506953 
L 262.239353 164.202937 
L 277.678088 162.129016 
L 293.116823 137.87908 
L 308.555558 147.430943 
L 323.994293 164.853456 
L 339.433029 164.099453 
L 354.871764 156.013928 
L 370.310499 157.442226 
L 385.749234 157.703001 
L 401.187969 147.941199 
L 416.626705 159.172149 
" style="fill:none;stroke:#1b9e77;stroke-linecap:square;stroke-opacity:0.5;stroke-width:1.5;"/>
   </g>
   <g id="line2d_50">
    <path clip-path="url(#pc1e609df3f)" d="M 61.535795 164.395132 
L 76.974531 165.17028 
L 92.413266 165.661358 
L 107.852001 165.603495 
L 123.290736 165.428704 
L 138.729471 164.548431 
L 154.168207 164.682398 
L 169.606942 165.820263 
L 185.045677 165.707084 
L 200.484412 152.026307 
L 215.923147 148.601027 
L 231.361882 109.239481 
L 246.800618 149.968864 
L 262.239353 165.334109 
L 277.678088 165.132557 
L 293.116823 145.408653 
L 308.555558 147.246343 
L 323.994293 163.469517 
L 339.433029 165.561678 
L 354.871764 165.52678 
L 370.310499 159.469322 
L 385.749234 128.625398 
L 401.187969 134.696806 
L 416.626705 161.708593 
" style="fill:none;stroke:#1b9e77;stroke-linecap:square;stroke-opacity:0.5;stroke-width:1.5;"/>
   </g>
   <g id="line2d_51">
    <path clip-path="url(#pc1e609df3f)" d="M 61.535795 129.464721 
L 76.974531 147.008675 
L 92.413266 157.609694 
L 107.852001 146.094558 
L 123.290736 115.341851 
L 138.729471 128.81581 
L 154.168207 150.760916 
L 169.606942 157.127495 
L 185.045677 156.202638 
L 200.484412 155.564234 
L 215.923147 157.607367 
L 231.361882 160.686849 
L 246.800618 163.549759 
L 262.239353 165.039563 
L 277.678088 165.496559 
L 293.116823 165.602069 
L 308.555558 165.746421 
L 323.994293 165.827664 
L 339.433029 165.862104 
L 354.871764 165.887192 
L 370.310499 165.897909 
L 385.749234 165.932198 
L 401.187969 165.946329 
L 416.626705 165.96 
" style="fill:none;stroke:#1b9e77;stroke-linecap:square;stroke-opacity:0.5;stroke-width:1.5;"/>
   </g>
   <g id="line2d_52">
    <path clip-path="url(#pc1e609df3f)" d="M 61.535795 163.275641 
L 76.974531 164.185989 
L 92.413266 165.305265 
L 107.852001 165.293066 
L 123.290736 165.169066 
L 138.729471 163.463513 
L 154.168207 159.995034 
L 169.606942 165.73696 
L 185.045677 165.8471 
L 200.484412 165.917548 
L 215.923147 162.980552 
L 231.361882 147.536661 
L 246.800618 90.126643 
L 262.239353 165.932836 
L 277.678088 165.95103 
L 293.116823 158.165192 
L 308.555558 142.196517 
L 323.994293 132.104753 
L 339.433029 159.255203 
L 354.871764 164.358091 
L 370.310499 164.117547 
L 385.749234 158.637862 
L 401.187969 141.019141 
L 416.626705 152.461373 
" style="fill:none;stroke:#1b9e77;stroke-linecap:square;stroke-opacity:0.5;stroke-width:1.5;"/>
   </g>
   <g id="line2d_53">
    <path clip-path="url(#pc1e609df3f)" d="M 61.535795 154.662905 
L 76.974531 165.251393 
L 92.413266 165.584967 
L 107.852001 155.583454 
L 123.290736 165.835846 
L 138.729471 165.78005 
L 154.168207 165.721529 
L 169.606942 165.452203 
L 185.045677 165.311029 
L 200.484412 165.296005 
L 215.923147 164.237119 
L 231.361882 163.104581 
L 246.800618 163.857542 
L 262.239353 163.395267 
L 277.678088 160.331526 
L 293.116823 156.707871 
L 308.555558 155.050742 
L 323.994293 152.914099 
L 339.433029 149.910202 
L 354.871764 120.173278 
L 370.310499 101.717057 
L 385.749234 139.089372 
L 401.187969 159.562205 
L 416.626705 164.502337 
" style="fill:none;stroke:#1b9e77;stroke-linecap:square;stroke-opacity:0.5;stroke-width:1.5;"/>
   </g>
   <g id="line2d_54">
    <path clip-path="url(#pc1e609df3f)" d="M 61.535795 165.638846 
L 76.974531 165.221825 
L 92.413266 164.634027 
L 107.852001 162.320881 
L 123.290736 159.848187 
L 138.729471 158.77347 
L 154.168207 155.803272 
L 169.606942 154.054446 
L 185.045677 150.801582 
L 200.484412 143.402161 
L 215.923147 134.388204 
L 231.361882 140.166978 
L 246.800618 145.247982 
L 262.239353 137.331696 
L 277.678088 147.966545 
L 293.116823 147.736612 
L 308.555558 159.134482 
L 323.994293 163.132074 
L 339.433029 165.407587 
L 354.871764 164.340829 
L 370.310499 165.86821 
L 385.749234 165.919798 
L 401.187969 165.93607 
L 416.626705 165.956819 
" style="fill:none;stroke:#1b9e77;stroke-linecap:square;stroke-opacity:0.5;stroke-width:1.5;"/>
   </g>
   <g id="line2d_55">
    <path clip-path="url(#pc1e609df3f)" d="M 61.535795 165.448546 
L 76.974531 165.228392 
L 92.413266 165.57651 
L 107.852001 165.633049 
L 123.290736 165.71581 
L 138.729471 165.737466 
L 154.168207 165.68335 
L 169.606942 165.722358 
L 185.045677 165.611057 
L 200.484412 165.800849 
L 215.923147 163.122688 
L 231.361882 154.62048 
L 246.800618 159.160058 
L 262.239353 159.943702 
L 277.678088 156.327279 
L 293.116823 155.768025 
L 308.555558 151.239248 
L 323.994293 119.133542 
L 339.433029 101.756902 
L 354.871764 117.432693 
L 370.310499 157.193865 
L 385.749234 165.43478 
L 401.187969 165.811646 
L 416.626705 165.930294 
" style="fill:none;stroke:#1b9e77;stroke-linecap:square;stroke-opacity:0.5;stroke-width:1.5;"/>
   </g>
   <g id="line2d_56">
    <path clip-path="url(#pc1e609df3f)" d="M 61.535795 164.223397 
L 76.974531 164.584511 
L 92.413266 165.27237 
L 107.852001 165.068256 
L 123.290736 165.171232 
L 138.729471 165.596908 
L 154.168207 165.766151 
L 169.606942 165.794588 
L 185.045677 165.837556 
L 200.484412 165.875049 
L 215.923147 165.88218 
L 231.361882 165.889892 
L 246.800618 165.882018 
L 262.239353 165.910776 
L 277.678088 165.905652 
L 293.116823 165.879086 
L 308.555558 159.218814 
L 323.994293 146.098856 
L 339.433029 143.933138 
L 354.871764 148.943952 
L 370.310499 99.123925 
L 385.749234 120.839086 
L 401.187969 128.4307 
L 416.626705 153.904486 
" style="fill:none;stroke:#1b9e77;stroke-linecap:square;stroke-opacity:0.5;stroke-width:1.5;"/>
   </g>
   <g id="line2d_57">
    <path clip-path="url(#pc1e609df3f)" d="M 61.535795 153.787314 
L 76.974531 148.726127 
L 92.413266 157.223598 
L 107.852001 155.274551 
L 123.290736 153.388207 
L 138.729471 157.629497 
L 154.168207 157.792787 
L 169.606942 149.328724 
L 185.045677 142.684906 
L 200.484412 155.986643 
L 215.923147 163.687847 
L 231.361882 164.571708 
L 246.800618 164.872085 
L 262.239353 162.905563 
L 277.678088 159.093954 
L 293.116823 165.26083 
L 308.555558 165.585841 
L 323.994293 165.326071 
L 339.433029 164.436962 
L 354.871764 129.202133 
L 370.310499 114.834588 
L 385.749234 165.547604 
L 401.187969 165.936622 
L 416.626705 165.948416 
" style="fill:none;stroke:#1b9e77;stroke-linecap:square;stroke-opacity:0.5;stroke-width:1.5;"/>
   </g>
   <g id="line2d_58">
    <path clip-path="url(#pc1e609df3f)" d="M 61.535795 126.966232 
L 76.974531 162.027053 
L 92.413266 164.734197 
L 107.852001 164.152384 
L 123.290736 162.534501 
L 138.729471 139.099202 
L 154.168207 162.465098 
L 169.606942 165.527552 
L 185.045677 165.506553 
L 200.484412 164.452186 
L 215.923147 163.029652 
L 231.361882 164.641946 
L 246.800618 165.017268 
L 262.239353 164.437087 
L 277.678088 154.564948 
L 293.116823 137.963542 
L 308.555558 157.043281 
L 323.994293 165.436341 
L 339.433029 165.288106 
L 354.871764 116.584161 
L 370.310499 121.82689 
L 385.749234 163.833974 
L 401.187969 165.942477 
L 416.626705 165.957953 
" style="fill:none;stroke:#1b9e77;stroke-linecap:square;stroke-opacity:0.5;stroke-width:1.5;"/>
   </g>
   <g id="line2d_59">
    <path clip-path="url(#pc1e609df3f)" d="M 61.535795 159.892835 
L 76.974531 165.393135 
L 92.413266 165.856512 
L 107.852001 165.952773 
L 123.290736 165.958575 
L 138.729471 161.367353 
L 154.168207 163.577529 
L 169.606942 162.659675 
L 185.045677 162.162371 
L 200.484412 161.893813 
L 215.923147 162.046173 
L 231.361882 161.963375 
L 246.800618 157.972837 
L 262.239353 130.670267 
L 277.678088 113.176122 
L 293.116823 158.335469 
L 308.555558 154.772176 
L 323.994293 86.53502 
L 339.433029 164.381389 
L 354.871764 165.594187 
L 370.310499 165.68568 
L 385.749234 165.4732 
L 401.187969 165.501584 
L 416.626705 162.21053 
" style="fill:none;stroke:#1b9e77;stroke-linecap:square;stroke-opacity:0.5;stroke-width:1.5;"/>
   </g>
   <g id="line2d_60">
    <path clip-path="url(#pc1e609df3f)" d="M 61.535795 122.953766 
L 76.974531 62.366584 
L 92.413266 150.799103 
L 107.852001 154.348634 
L 123.290736 164.790104 
L 138.729471 165.761577 
L 154.168207 165.820582 
L 169.606942 165.75734 
L 185.045677 165.784948 
L 200.484412 165.832774 
L 215.923147 165.163381 
L 231.361882 160.943179 
L 246.800618 161.624903 
L 262.239353 147.759005 
L 277.678088 152.483149 
L 293.116823 160.322907 
L 308.555558 164.897343 
L 323.994293 165.54077 
L 339.433029 165.713576 
L 354.871764 165.81494 
L 370.310499 165.834452 
L 385.749234 165.890984 
L 401.187969 164.605754 
L 416.626705 158.222826 
" style="fill:none;stroke:#1b9e77;stroke-linecap:square;stroke-opacity:0.5;stroke-width:1.5;"/>
   </g>
   <g id="line2d_61">
    <path clip-path="url(#pc1e609df3f)" d="M 61.535795 165.953334 
L 76.974531 165.940592 
L 92.413266 165.779267 
L 107.852001 165.143056 
L 123.290736 150.338646 
L 138.729471 162.824951 
L 154.168207 159.784226 
L 169.606942 154.662378 
L 185.045677 161.259011 
L 200.484412 157.546314 
L 215.923147 126.684778 
L 231.361882 135.661751 
L 246.800618 158.073247 
L 262.239353 148.185554 
L 277.678088 80.774593 
L 293.116823 163.054242 
L 308.555558 165.903107 
L 323.994293 165.88971 
L 339.433029 165.911302 
L 354.871764 165.913452 
L 370.310499 165.922599 
L 385.749234 165.928903 
L 401.187969 165.939375 
L 416.626705 165.958192 
" style="fill:none;stroke:#1b9e77;stroke-linecap:square;stroke-opacity:0.5;stroke-width:1.5;"/>
   </g>
   <g id="line2d_62">
    <path clip-path="url(#pc1e609df3f)" d="M 61.535795 106.734049 
L 76.974531 148.339252 
L 92.413266 158.662722 
L 107.852001 135.138381 
L 123.290736 116.684198 
L 138.729471 148.220803 
L 154.168207 161.808202 
L 169.606942 163.244072 
L 185.045677 163.922326 
L 200.484412 162.939179 
L 215.923147 162.911388 
L 231.361882 164.351263 
L 246.800618 164.783531 
L 262.239353 163.344337 
L 277.678088 160.896969 
L 293.116823 163.087143 
L 308.555558 163.900545 
L 323.994293 163.485798 
L 339.433029 162.311548 
L 354.871764 160.716878 
L 370.310499 162.064854 
L 385.749234 164.905495 
L 401.187969 165.248575 
L 416.626705 161.331076 
" style="fill:none;stroke:#1b9e77;stroke-linecap:square;stroke-opacity:0.5;stroke-width:1.5;"/>
   </g>
   <g id="line2d_63">
    <path clip-path="url(#pc1e609df3f)" d="M 61.535795 142.355337 
L 76.974531 164.368958 
L 92.413266 164.491674 
L 107.852001 163.847332 
L 123.290736 163.194441 
L 138.729471 156.694923 
L 154.168207 147.419825 
L 169.606942 154.262655 
L 185.045677 161.00949 
L 200.484412 146.393388 
L 215.923147 165.702409 
L 231.361882 164.076724 
L 246.800618 165.735573 
L 262.239353 165.933923 
L 277.678088 165.953414 
L 293.116823 165.882047 
L 308.555558 161.609464 
L 323.994293 160.486643 
L 339.433029 145.990779 
L 354.871764 158.211315 
L 370.310499 160.644402 
L 385.749234 149.020665 
L 401.187969 143.01073 
L 416.626705 112.736469 
" style="fill:none;stroke:#1b9e77;stroke-linecap:square;stroke-opacity:0.5;stroke-width:1.5;"/>
   </g>
   <g id="line2d_64">
    <path clip-path="url(#pc1e609df3f)" d="M 61.535795 164.074604 
L 76.974531 164.95431 
L 92.413266 165.678416 
L 107.852001 165.667233 
L 123.290736 165.747208 
L 138.729471 165.74454 
L 154.168207 165.760286 
L 169.606942 165.811588 
L 185.045677 165.843051 
L 200.484412 165.837923 
L 215.923147 165.261089 
L 231.361882 162.826748 
L 246.800618 152.935306 
L 262.239353 152.437444 
L 277.678088 144.177753 
L 293.116823 145.55506 
L 308.555558 111.463306 
L 323.994293 73.762801 
L 339.433029 159.044988 
L 354.871764 163.980013 
L 370.310499 165.273799 
L 385.749234 165.503266 
L 401.187969 165.760717 
L 416.626705 165.931136 
" style="fill:none;stroke:#1b9e77;stroke-linecap:square;stroke-opacity:0.5;stroke-width:1.5;"/>
   </g>
   <g id="line2d_65">
    <path clip-path="url(#pc1e609df3f)" d="M 61.535795 165.847742 
L 76.974531 165.331324 
L 92.413266 156.08383 
L 107.852001 154.500435 
L 123.290736 164.300146 
L 138.729471 165.838146 
L 154.168207 165.374943 
L 169.606942 92.600458 
L 185.045677 126.164818 
L 200.484412 123.636448 
L 215.923147 164.100107 
L 231.361882 151.523577 
L 246.800618 160.841767 
L 262.239353 161.222209 
L 277.678088 165.842976 
L 293.116823 165.892901 
L 308.555558 165.901037 
L 323.994293 165.834072 
L 339.433029 165.705063 
L 354.871764 165.915656 
L 370.310499 165.905428 
L 385.749234 153.862686 
L 401.187969 158.09382 
L 416.626705 158.712982 
" style="fill:none;stroke:#1b9e77;stroke-linecap:square;stroke-opacity:0.5;stroke-width:1.5;"/>
   </g>
   <g id="line2d_66">
    <path clip-path="url(#pc1e609df3f)" d="M 61.535795 165.059091 
L 76.974531 162.166779 
L 92.413266 160.940081 
L 107.852001 161.166381 
L 123.290736 144.831158 
L 138.729471 127.385508 
L 154.168207 140.756917 
L 169.606942 142.971326 
L 185.045677 163.974508 
L 200.484412 164.245718 
L 215.923147 165.249725 
L 231.361882 165.5995 
L 246.800618 165.607199 
L 262.239353 163.606057 
L 277.678088 149.955415 
L 293.116823 147.851479 
L 308.555558 131.971668 
L 323.994293 161.869629 
L 339.433029 159.777099 
L 354.871764 155.337412 
L 370.310499 161.831852 
L 385.749234 162.173091 
L 401.187969 160.553225 
L 416.626705 164.151766 
" style="fill:none;stroke:#1b9e77;stroke-linecap:square;stroke-opacity:0.5;stroke-width:1.5;"/>
   </g>
   <g id="line2d_67">
    <path clip-path="url(#pc1e609df3f)" d="M 61.535795 165.828062 
L 76.974531 165.703739 
L 92.413266 165.814922 
L 107.852001 165.849704 
L 123.290736 165.797553 
L 138.729471 161.030439 
L 154.168207 152.502381 
L 169.606942 164.246707 
L 185.045677 164.923672 
L 200.484412 165.529275 
L 215.923147 164.477503 
L 231.361882 162.492158 
L 246.800618 160.669202 
L 262.239353 162.640765 
L 277.678088 149.325329 
L 293.116823 127.568262 
L 308.555558 128.69064 
L 323.994293 107.916039 
L 339.433029 150.733973 
L 354.871764 155.796178 
L 370.310499 150.715745 
L 385.749234 159.823 
L 401.187969 165.082815 
L 416.626705 165.874524 
" style="fill:none;stroke:#1b9e77;stroke-linecap:square;stroke-opacity:0.5;stroke-width:1.5;"/>
   </g>
   <g id="line2d_68">
    <path clip-path="url(#pc1e609df3f)" d="M 61.535795 164.898277 
L 76.974531 150.790671 
L 92.413266 77.425846 
L 107.852001 97.652053 
L 123.290736 144.706623 
L 138.729471 146.301933 
L 154.168207 156.348445 
L 169.606942 160.993075 
L 185.045677 164.456579 
L 200.484412 165.065064 
L 215.923147 165.481906 
L 231.361882 165.473497 
L 246.800618 165.604386 
L 262.239353 165.662964 
L 277.678088 165.749427 
L 293.116823 165.802655 
L 308.555558 165.852725 
L 323.994293 165.890599 
L 339.433029 165.876456 
L 354.871764 165.634715 
L 370.310499 165.527974 
L 385.749234 165.933489 
L 401.187969 165.952433 
L 416.626705 165.950792 
" style="fill:none;stroke:#1b9e77;stroke-linecap:square;stroke-opacity:0.5;stroke-width:1.5;"/>
   </g>
   <g id="line2d_69">
    <path clip-path="url(#pc1e609df3f)" d="M 61.535795 163.502337 
L 76.974531 163.055074 
L 92.413266 163.128673 
L 107.852001 161.435651 
L 123.290736 159.556564 
L 138.729471 153.670217 
L 154.168207 127.858634 
L 169.606942 121.886617 
L 185.045677 136.549327 
L 200.484412 148.511129 
L 215.923147 164.074715 
L 231.361882 165.13276 
L 246.800618 164.971509 
L 262.239353 159.051159 
L 277.678088 156.448052 
L 293.116823 164.136364 
L 308.555558 163.79976 
L 323.994293 157.902114 
L 339.433029 150.351116 
L 354.871764 151.335754 
L 370.310499 157.587348 
L 385.749234 163.743046 
L 401.187969 165.457068 
L 416.626705 165.887593 
" style="fill:none;stroke:#1b9e77;stroke-linecap:square;stroke-opacity:0.5;stroke-width:1.5;"/>
   </g>
   <g id="line2d_70">
    <path clip-path="url(#pc1e609df3f)" d="M 61.535795 165.938332 
L 76.974531 165.948781 
L 92.413266 164.964263 
L 107.852001 164.755905 
L 123.290736 159.773113 
L 138.729471 165.928883 
L 154.168207 165.950235 
L 169.606942 157.753434 
L 185.045677 52.762212 
L 200.484412 135.668795 
L 215.923147 165.761464 
L 231.361882 165.803915 
L 246.800618 165.85388 
L 262.239353 165.834475 
L 277.678088 165.822557 
L 293.116823 165.895061 
L 308.555558 165.915157 
L 323.994293 164.965889 
L 339.433029 156.687481 
L 354.871764 158.595696 
L 370.310499 152.645489 
L 385.749234 148.53644 
L 401.187969 148.78346 
L 416.626705 158.487666 
" style="fill:none;stroke:#1b9e77;stroke-linecap:square;stroke-opacity:0.5;stroke-width:1.5;"/>
   </g>
   <g id="line2d_71">
    <path clip-path="url(#pc1e609df3f)" d="M 61.535795 161.211512 
L 76.974531 157.273462 
L 92.413266 164.63189 
L 107.852001 165.212938 
L 123.290736 165.524181 
L 138.729471 165.307886 
L 154.168207 165.340243 
L 169.606942 165.696449 
L 185.045677 165.819334 
L 200.484412 165.832573 
L 215.923147 165.791802 
L 231.361882 165.824833 
L 246.800618 165.675568 
L 262.239353 165.77392 
L 277.678088 155.916103 
L 293.116823 156.053251 
L 308.555558 157.714036 
L 323.994293 149.638038 
L 339.433029 129.39726 
L 354.871764 132.646518 
L 370.310499 104.814833 
L 385.749234 128.635643 
L 401.187969 163.470819 
L 416.626705 165.829494 
" style="fill:none;stroke:#1b9e77;stroke-linecap:square;stroke-opacity:0.5;stroke-width:1.5;"/>
   </g>
   <g id="line2d_72">
    <path clip-path="url(#pc1e609df3f)" d="M 61.535795 142.655646 
L 76.974531 157.899383 
L 92.413266 91.539446 
L 107.852001 138.412308 
L 123.290736 161.370398 
L 138.729471 164.918826 
L 154.168207 163.10931 
L 169.606942 162.189753 
L 185.045677 155.172241 
L 200.484412 164.217273 
L 215.923147 160.974729 
L 231.361882 156.519709 
L 246.800618 162.836055 
L 262.239353 163.346253 
L 277.678088 157.945148 
L 293.116823 161.53704 
L 308.555558 163.747483 
L 323.994293 162.336029 
L 339.433029 155.737641 
L 354.871764 164.026751 
L 370.310499 165.521975 
L 385.749234 165.607477 
L 401.187969 165.741384 
L 416.626705 141.670325 
" style="fill:none;stroke:#1b9e77;stroke-linecap:square;stroke-opacity:0.5;stroke-width:1.5;"/>
   </g>
   <g id="line2d_73">
    <path clip-path="url(#pc1e609df3f)" d="M 61.535795 165.243522 
L 76.974531 165.056127 
L 92.413266 165.553092 
L 107.852001 165.522918 
L 123.290736 165.634936 
L 138.729471 165.79938 
L 154.168207 165.846891 
L 169.606942 165.839511 
L 185.045677 165.717007 
L 200.484412 165.000503 
L 215.923147 160.429544 
L 231.361882 157.010215 
L 246.800618 158.451812 
L 262.239353 157.12895 
L 277.678088 149.843774 
L 293.116823 155.320627 
L 308.555558 119.536602 
L 323.994293 50.159794 
L 339.433029 159.691225 
L 354.871764 163.269671 
L 370.310499 165.557701 
L 385.749234 165.66436 
L 401.187969 165.81171 
L 416.626705 165.942703 
" style="fill:none;stroke:#1b9e77;stroke-linecap:square;stroke-opacity:0.5;stroke-width:1.5;"/>
   </g>
   <g id="line2d_74">
    <path clip-path="url(#pc1e609df3f)" d="M 61.535795 163.822011 
L 76.974531 163.619498 
L 92.413266 163.8853 
L 107.852001 159.813299 
L 123.290736 163.141909 
L 138.729471 165.46557 
L 154.168207 165.843193 
L 169.606942 165.854334 
L 185.045677 165.901727 
L 200.484412 165.915464 
L 215.923147 165.921718 
L 231.361882 165.945798 
L 246.800618 165.752873 
L 262.239353 163.796436 
L 277.678088 162.55101 
L 293.116823 160.976823 
L 308.555558 160.438545 
L 323.994293 149.435173 
L 339.433029 63.871987 
L 354.871764 93.059642 
L 370.310499 158.010912 
L 385.749234 164.466565 
L 401.187969 165.629564 
L 416.626705 165.913229 
" style="fill:none;stroke:#1b9e77;stroke-linecap:square;stroke-opacity:0.5;stroke-width:1.5;"/>
   </g>
   <g id="line2d_75">
    <path clip-path="url(#pc1e609df3f)" d="M 61.535795 165.781973 
L 76.974531 165.697864 
L 92.413266 165.763141 
L 107.852001 165.750575 
L 123.290736 162.661345 
L 138.729471 163.546628 
L 154.168207 159.378364 
L 169.606942 159.460265 
L 185.045677 159.816376 
L 200.484412 159.329439 
L 215.923147 146.034184 
L 231.361882 139.088202 
L 246.800618 128.393827 
L 262.239353 145.64694 
L 277.678088 158.516782 
L 293.116823 159.438643 
L 308.555558 132.830626 
L 323.994293 152.061673 
L 339.433029 160.358245 
L 354.871764 161.614744 
L 370.310499 161.702243 
L 385.749234 158.139419 
L 401.187969 158.451861 
L 416.626705 159.569218 
" style="fill:none;stroke:#1b9e77;stroke-linecap:square;stroke-opacity:0.5;stroke-width:1.5;"/>
   </g>
   <g id="line2d_76">
    <path clip-path="url(#pc1e609df3f)" d="M 61.535795 164.91976 
L 76.974531 163.222816 
L 92.413266 161.503664 
L 107.852001 159.939354 
L 123.290736 162.054466 
L 138.729471 162.56661 
L 154.168207 143.074472 
L 169.606942 106.516399 
L 185.045677 160.419898 
L 200.484412 163.149145 
L 215.923147 164.959511 
L 231.361882 165.354912 
L 246.800618 165.572476 
L 262.239353 165.66887 
L 277.678088 159.850759 
L 293.116823 131.514832 
L 308.555558 107.278033 
L 323.994293 163.716228 
L 339.433029 164.790774 
L 354.871764 164.227371 
L 370.310499 165.861951 
L 385.749234 150.97255 
L 401.187969 165.941322 
L 416.626705 165.956415 
" style="fill:none;stroke:#1b9e77;stroke-linecap:square;stroke-opacity:0.5;stroke-width:1.5;"/>
   </g>
   <g id="line2d_77">
    <path clip-path="url(#pc1e609df3f)" d="M 61.535795 160.917138 
L 76.974531 152.570606 
L 92.413266 164.674671 
L 107.852001 165.448391 
L 123.290736 165.64686 
L 138.729471 165.455336 
L 154.168207 164.710872 
L 169.606942 165.029061 
L 185.045677 164.9916 
L 200.484412 165.116562 
L 215.923147 164.386059 
L 231.361882 164.147836 
L 246.800618 161.67122 
L 262.239353 144.343911 
L 277.678088 114.529695 
L 293.116823 75.254893 
L 308.555558 139.490466 
L 323.994293 161.013351 
L 339.433029 164.097733 
L 354.871764 163.003669 
L 370.310499 165.064769 
L 385.749234 165.652108 
L 401.187969 165.869829 
L 416.626705 165.945942 
" style="fill:none;stroke:#1b9e77;stroke-linecap:square;stroke-opacity:0.5;stroke-width:1.5;"/>
   </g>
   <g id="line2d_78">
    <path clip-path="url(#pc1e609df3f)" d="M 61.535795 160.725439 
L 76.974531 164.394824 
L 92.413266 165.542234 
L 107.852001 165.565079 
L 123.290736 165.711211 
L 138.729471 165.770941 
L 154.168207 165.802781 
L 169.606942 165.809916 
L 185.045677 165.823401 
L 200.484412 165.809953 
L 215.923147 165.652442 
L 231.361882 161.13295 
L 246.800618 164.593426 
L 262.239353 165.329801 
L 277.678088 165.430287 
L 293.116823 165.42437 
L 308.555558 164.035242 
L 323.994293 151.969533 
L 339.433029 133.062942 
L 354.871764 164.185447 
L 370.310499 128.817194 
L 385.749234 100.957126 
L 401.187969 116.220703 
L 416.626705 151.265333 
" style="fill:none;stroke:#1b9e77;stroke-linecap:square;stroke-opacity:0.5;stroke-width:1.5;"/>
   </g>
   <g id="line2d_79">
    <path clip-path="url(#pc1e609df3f)" d="M 61.535795 160.284941 
L 76.974531 132.854577 
L 92.413266 101.925146 
L 107.852001 127.812563 
L 123.290736 150.323575 
L 138.729471 156.954952 
L 154.168207 148.528025 
L 169.606942 137.527998 
L 185.045677 150.975258 
L 200.484412 163.281748 
L 215.923147 165.349317 
L 231.361882 164.489498 
L 246.800618 165.033894 
L 262.239353 165.790056 
L 277.678088 165.913103 
L 293.116823 165.922988 
L 308.555558 165.938091 
L 323.994293 165.945771 
L 339.433029 165.948051 
L 354.871764 165.953584 
L 370.310499 165.953241 
L 385.749234 165.922493 
L 401.187969 165.143021 
L 416.626705 165.260693 
" style="fill:none;stroke:#1b9e77;stroke-linecap:square;stroke-opacity:0.5;stroke-width:1.5;"/>
   </g>
   <g id="line2d_80">
    <path clip-path="url(#pc1e609df3f)" d="M 61.535795 159.355625 
L 76.974531 143.128806 
L 92.413266 161.472941 
L 107.852001 164.229973 
L 123.290736 163.779803 
L 138.729471 146.257467 
L 154.168207 113.51014 
L 169.606942 128.192132 
L 185.045677 146.532245 
L 200.484412 156.443457 
L 215.923147 157.297724 
L 231.361882 145.589131 
L 246.800618 161.464366 
L 262.239353 165.28948 
L 277.678088 165.360628 
L 293.116823 162.186787 
L 308.555558 152.365145 
L 323.994293 165.257088 
L 339.433029 165.702691 
L 354.871764 165.271985 
L 370.310499 164.963291 
L 385.749234 165.093239 
L 401.187969 164.682147 
L 416.626705 165.606292 
" style="fill:none;stroke:#1b9e77;stroke-linecap:square;stroke-opacity:0.5;stroke-width:1.5;"/>
   </g>
   <g id="line2d_81">
    <path clip-path="url(#pc1e609df3f)" d="M 61.535795 148.241494 
L 76.974531 163.035224 
L 92.413266 165.502692 
L 107.852001 163.676221 
L 123.290736 158.778747 
L 138.729471 164.521324 
L 154.168207 165.010891 
L 169.606942 163.073652 
L 185.045677 159.263294 
L 200.484412 148.125787 
L 215.923147 124.013424 
L 231.361882 116.163021 
L 246.800618 141.756732 
L 262.239353 121.84666 
L 277.678088 155.639744 
L 293.116823 164.694795 
L 308.555558 165.464389 
L 323.994293 165.454171 
L 339.433029 165.664753 
L 354.871764 165.751299 
L 370.310499 165.854806 
L 385.749234 165.914858 
L 401.187969 165.930016 
L 416.626705 165.65458 
" style="fill:none;stroke:#1b9e77;stroke-linecap:square;stroke-opacity:0.5;stroke-width:1.5;"/>
   </g>
   <g id="line2d_82">
    <path clip-path="url(#pc1e609df3f)" d="M 61.535795 165.871646 
L 76.974531 165.681535 
L 92.413266 164.708303 
L 107.852001 160.47173 
L 123.290736 161.195829 
L 138.729471 162.203499 
L 154.168207 161.503843 
L 169.606942 150.064725 
L 185.045677 139.524124 
L 200.484412 117.973753 
L 215.923147 126.353424 
L 231.361882 107.281238 
L 246.800618 150.088391 
L 262.239353 165.41894 
L 277.678088 165.86339 
L 293.116823 165.850276 
L 308.555558 165.873503 
L 323.994293 165.882724 
L 339.433029 165.890535 
L 354.871764 165.930719 
L 370.310499 165.931074 
L 385.749234 163.451559 
L 401.187969 161.7114 
L 416.626705 164.306421 
" style="fill:none;stroke:#1b9e77;stroke-linecap:square;stroke-opacity:0.5;stroke-width:1.5;"/>
   </g>
   <g id="line2d_83">
    <path clip-path="url(#pc1e609df3f)" d="M 61.535795 163.631118 
L 76.974531 160.973624 
L 92.413266 163.357527 
L 107.852001 164.926508 
L 123.290736 165.731482 
L 138.729471 165.787454 
L 154.168207 165.83807 
L 169.606942 165.804724 
L 185.045677 165.815569 
L 200.484412 165.809348 
L 215.923147 165.818533 
L 231.361882 165.877769 
L 246.800618 165.866184 
L 262.239353 164.503139 
L 277.678088 160.74469 
L 293.116823 156.971458 
L 308.555558 104.208593 
L 323.994293 129.432905 
L 339.433029 132.608511 
L 354.871764 156.167419 
L 370.310499 151.388021 
L 385.749234 158.479188 
L 401.187969 159.847692 
L 416.626705 129.443059 
" style="fill:none;stroke:#1b9e77;stroke-linecap:square;stroke-opacity:0.5;stroke-width:1.5;"/>
   </g>
   <g id="line2d_84">
    <path clip-path="url(#pc1e609df3f)" d="M 61.535795 68.463062 
L 76.974531 124.856147 
L 92.413266 159.773475 
L 107.852001 156.809593 
L 123.290736 154.193945 
L 138.729471 152.85682 
L 154.168207 151.965729 
L 169.606942 164.85415 
L 185.045677 165.443054 
L 200.484412 165.127055 
L 215.923147 163.719431 
L 231.361882 158.747825 
L 246.800618 164.539318 
L 262.239353 165.423051 
L 277.678088 165.471946 
L 293.116823 164.286775 
L 308.555558 159.115651 
L 323.994293 163.03423 
L 339.433029 164.816445 
L 354.871764 165.225082 
L 370.310499 165.164712 
L 385.749234 164.376801 
L 401.187969 159.053076 
L 416.626705 161.715206 
" style="fill:none;stroke:#1b9e77;stroke-linecap:square;stroke-opacity:0.5;stroke-width:1.5;"/>
   </g>
   <g id="line2d_85">
    <path clip-path="url(#pc1e609df3f)" d="M 61.535795 149.798798 
L 76.974531 148.479697 
L 92.413266 165.04445 
L 107.852001 165.059 
L 123.290736 165.601424 
L 138.729471 165.610802 
L 154.168207 165.555817 
L 169.606942 165.8471 
L 185.045677 165.874485 
L 200.484412 165.824075 
L 215.923147 165.688019 
L 231.361882 164.172581 
L 246.800618 160.953912 
L 262.239353 157.200251 
L 277.678088 151.566722 
L 293.116823 153.068849 
L 308.555558 102.031225 
L 323.994293 155.76875 
L 339.433029 152.113337 
L 354.871764 143.919031 
L 370.310499 158.747807 
L 385.749234 150.687258 
L 401.187969 158.697163 
L 416.626705 151.72203 
" style="fill:none;stroke:#1b9e77;stroke-linecap:square;stroke-opacity:0.5;stroke-width:1.5;"/>
   </g>
   <g id="line2d_86">
    <path clip-path="url(#pc1e609df3f)" d="M 61.535795 164.649603 
L 76.974531 163.804142 
L 92.413266 165.723012 
L 107.852001 165.873792 
L 123.290736 165.911622 
L 138.729471 165.922796 
L 154.168207 165.230537 
L 169.606942 165.230062 
L 185.045677 164.315952 
L 200.484412 163.987978 
L 215.923147 163.542099 
L 231.361882 162.459291 
L 246.800618 161.775607 
L 262.239353 156.669715 
L 277.678088 131.049168 
L 293.116823 132.374655 
L 308.555558 143.582422 
L 323.994293 74.743042 
L 339.433029 161.532051 
L 354.871764 165.114548 
L 370.310499 164.962018 
L 385.749234 162.673327 
L 401.187969 156.214101 
L 416.626705 161.691048 
" style="fill:none;stroke:#1b9e77;stroke-linecap:square;stroke-opacity:0.5;stroke-width:1.5;"/>
   </g>
   <g id="line2d_87">
    <path clip-path="url(#pc1e609df3f)" d="M 61.535795 161.60592 
L 76.974531 164.675049 
L 92.413266 160.377851 
L 107.852001 148.568131 
L 123.290736 160.748385 
L 138.729471 164.920331 
L 154.168207 160.43212 
L 169.606942 124.868252 
L 185.045677 156.08362 
L 200.484412 164.511066 
L 215.923147 165.374658 
L 231.361882 165.486488 
L 246.800618 165.594194 
L 262.239353 165.588586 
L 277.678088 165.642001 
L 293.116823 165.748926 
L 308.555558 165.784596 
L 323.994293 165.754032 
L 339.433029 163.901286 
L 354.871764 165.781926 
L 370.310499 165.67081 
L 385.749234 157.248604 
L 401.187969 101.562901 
L 416.626705 103.102846 
" style="fill:none;stroke:#1b9e77;stroke-linecap:square;stroke-opacity:0.5;stroke-width:1.5;"/>
   </g>
   <g id="line2d_88">
    <path clip-path="url(#pc1e609df3f)" d="M 61.535795 147.54011 
L 76.974531 156.962415 
L 92.413266 163.086984 
L 107.852001 160.029802 
L 123.290736 140.152554 
L 138.729471 68.408555 
L 154.168207 132.567525 
L 169.606942 165.037498 
L 185.045677 165.643996 
L 200.484412 165.641189 
L 215.923147 164.408533 
L 231.361882 158.372254 
L 246.800618 155.661628 
L 262.239353 164.880722 
L 277.678088 165.042767 
L 293.116823 163.501509 
L 308.555558 162.823151 
L 323.994293 156.361859 
L 339.433029 163.321361 
L 354.871764 165.896296 
L 370.310499 165.915674 
L 385.749234 165.912217 
L 401.187969 165.909463 
L 416.626705 165.954526 
" style="fill:none;stroke:#1b9e77;stroke-linecap:square;stroke-opacity:0.5;stroke-width:1.5;"/>
   </g>
   <g id="line2d_89">
    <path clip-path="url(#pc1e609df3f)" d="M 61.535795 162.806539 
L 76.974531 131.95504 
L 92.413266 129.457034 
L 107.852001 148.740014 
L 123.290736 157.451918 
L 138.729471 155.234372 
L 154.168207 160.721171 
L 169.606942 163.157946 
L 185.045677 164.519989 
L 200.484412 164.644687 
L 215.923147 164.827249 
L 231.361882 164.897301 
L 246.800618 165.353638 
L 262.239353 165.568176 
L 277.678088 165.58667 
L 293.116823 165.285408 
L 308.555558 165.350326 
L 323.994293 165.838696 
L 339.433029 165.609531 
L 354.871764 145.264555 
L 370.310499 149.819759 
L 385.749234 164.247659 
L 401.187969 122.213107 
L 416.626705 140.481794 
" style="fill:none;stroke:#1b9e77;stroke-linecap:square;stroke-opacity:0.5;stroke-width:1.5;"/>
   </g>
   <g id="line2d_90">
    <path clip-path="url(#pc1e609df3f)" d="M 61.535795 162.080773 
L 76.974531 163.787557 
L 92.413266 164.841272 
L 107.852001 163.810451 
L 123.290736 163.793799 
L 138.729471 159.225205 
L 154.168207 165.8023 
L 169.606942 165.925877 
L 185.045677 165.933193 
L 200.484412 165.919828 
L 215.923147 162.873947 
L 231.361882 164.18957 
L 246.800618 156.793903 
L 262.239353 164.518924 
L 277.678088 164.214899 
L 293.116823 164.331406 
L 308.555558 162.298321 
L 323.994293 66.041625 
L 339.433029 98.070854 
L 354.871764 150.099931 
L 370.310499 161.82939 
L 385.749234 163.653791 
L 401.187969 165.020985 
L 416.626705 163.974785 
" style="fill:none;stroke:#1b9e77;stroke-linecap:square;stroke-opacity:0.5;stroke-width:1.5;"/>
   </g>
   <g id="line2d_91">
    <path clip-path="url(#pc1e609df3f)" d="M 61.535795 165.189346 
L 76.974531 164.043729 
L 92.413266 162.490121 
L 107.852001 156.185011 
L 123.290736 142.799268 
L 138.729471 122.76112 
L 154.168207 133.790824 
L 169.606942 83.507284 
L 185.045677 150.855751 
L 200.484412 163.190005 
L 215.923147 165.045368 
L 231.361882 165.06373 
L 246.800618 165.420761 
L 262.239353 165.571241 
L 277.678088 165.704208 
L 293.116823 165.723927 
L 308.555558 165.750619 
L 323.994293 165.921292 
L 339.433029 165.88652 
L 354.871764 159.40372 
L 370.310499 164.242633 
L 385.749234 164.673049 
L 401.187969 161.671506 
L 416.626705 164.141551 
" style="fill:none;stroke:#1b9e77;stroke-linecap:square;stroke-opacity:0.5;stroke-width:1.5;"/>
   </g>
   <g id="line2d_92">
    <path clip-path="url(#pc1e609df3f)" d="M 61.535795 165.771703 
L 76.974531 165.450179 
L 92.413266 165.532384 
L 107.852001 165.697045 
L 123.290736 164.96951 
L 138.729471 162.33493 
L 154.168207 153.482388 
L 169.606942 156.908139 
L 185.045677 153.118768 
L 200.484412 144.995397 
L 215.923147 131.58945 
L 231.361882 158.065218 
L 246.800618 120.071577 
L 262.239353 86.286563 
L 277.678088 163.081804 
L 293.116823 164.992309 
L 308.555558 165.620707 
L 323.994293 165.697082 
L 339.433029 165.808028 
L 354.871764 165.834456 
L 370.310499 165.890096 
L 385.749234 165.928753 
L 401.187969 165.946853 
L 416.626705 165.959245 
" style="fill:none;stroke:#1b9e77;stroke-linecap:square;stroke-opacity:0.5;stroke-width:1.5;"/>
   </g>
   <g id="line2d_93">
    <path clip-path="url(#pc1e609df3f)" d="M 61.535795 165.924435 
L 76.974531 165.878721 
L 92.413266 165.867872 
L 107.852001 162.126933 
L 123.290736 129.40078 
L 138.729471 163.545568 
L 154.168207 162.359269 
L 169.606942 153.569634 
L 185.045677 144.958643 
L 200.484412 130.183329 
L 215.923147 156.973603 
L 231.361882 160.089831 
L 246.800618 159.771934 
L 262.239353 163.866921 
L 277.678088 163.245456 
L 293.116823 163.478906 
L 308.555558 156.258149 
L 323.994293 158.520942 
L 339.433029 131.008298 
L 354.871764 163.242592 
L 370.310499 162.918577 
L 385.749234 154.547776 
L 401.187969 153.805457 
L 416.626705 157.488953 
" style="fill:none;stroke:#1b9e77;stroke-linecap:square;stroke-opacity:0.5;stroke-width:1.5;"/>
   </g>
   <g id="line2d_94">
    <path clip-path="url(#pc1e609df3f)" d="M 61.535795 135.938745 
L 76.974531 165.155505 
L 92.413266 165.469316 
L 107.852001 164.870301 
L 123.290736 160.563644 
L 138.729471 149.293667 
L 154.168207 133.33563 
L 169.606942 159.837777 
L 185.045677 160.494853 
L 200.484412 153.050434 
L 215.923147 150.192181 
L 231.361882 147.648983 
L 246.800618 156.329494 
L 262.239353 138.809217 
L 277.678088 147.523839 
L 293.116823 148.137517 
L 308.555558 156.987919 
L 323.994293 163.240055 
L 339.433029 165.038693 
L 354.871764 165.003946 
L 370.310499 165.230656 
L 385.749234 165.437709 
L 401.187969 165.559702 
L 416.626705 165.882801 
" style="fill:none;stroke:#1b9e77;stroke-linecap:square;stroke-opacity:0.5;stroke-width:1.5;"/>
   </g>
   <g id="line2d_95">
    <path clip-path="url(#pc1e609df3f)" d="M 61.535795 165.914694 
L 76.974531 165.853283 
L 92.413266 165.84083 
L 107.852001 165.710188 
L 123.290736 146.29498 
L 138.729471 161.170001 
L 154.168207 156.123316 
L 169.606942 158.940396 
L 185.045677 158.307509 
L 200.484412 157.499476 
L 215.923147 156.399832 
L 231.361882 159.1284 
L 246.800618 159.430053 
L 262.239353 144.241309 
L 277.678088 155.239743 
L 293.116823 156.909837 
L 308.555558 159.253197 
L 323.994293 160.193819 
L 339.433029 154.892963 
L 354.871764 157.176851 
L 370.310499 157.803695 
L 385.749234 143.645895 
L 401.187969 136.882054 
L 416.626705 146.180266 
" style="fill:none;stroke:#1b9e77;stroke-linecap:square;stroke-opacity:0.5;stroke-width:1.5;"/>
   </g>
   <g id="line2d_96">
    <path clip-path="url(#pc1e609df3f)" d="M 61.535795 164.53256 
L 76.974531 161.435224 
L 92.413266 162.327342 
L 107.852001 14.76 
L 123.290736 132.010503 
L 138.729471 158.914576 
L 154.168207 163.509685 
L 169.606942 161.65663 
L 185.045677 163.240131 
L 200.484412 164.605646 
L 215.923147 165.185892 
L 231.361882 164.843373 
L 246.800618 164.976408 
L 262.239353 165.46754 
L 277.678088 165.686627 
L 293.116823 165.702342 
L 308.555558 165.745199 
L 323.994293 165.792493 
L 339.433029 165.194016 
L 354.871764 163.930732 
L 370.310499 162.003479 
L 385.749234 161.512261 
L 401.187969 161.602523 
L 416.626705 164.3974 
" style="fill:none;stroke:#1b9e77;stroke-linecap:square;stroke-opacity:0.5;stroke-width:1.5;"/>
   </g>
   <g id="line2d_97">
    <path clip-path="url(#pc1e609df3f)" d="M 61.535795 158.907585 
L 76.974531 160.308467 
L 92.413266 163.708997 
L 107.852001 163.675337 
L 123.290736 164.310761 
L 138.729471 164.493412 
L 154.168207 164.585822 
L 169.606942 164.797457 
L 185.045677 165.221858 
L 200.484412 165.544712 
L 215.923147 165.556565 
L 231.361882 165.44264 
L 246.800618 158.903434 
L 262.239353 164.116076 
L 277.678088 164.944533 
L 293.116823 163.415067 
L 308.555558 162.184741 
L 323.994293 160.055402 
L 339.433029 154.53206 
L 354.871764 148.101101 
L 370.310499 142.047665 
L 385.749234 124.229814 
L 401.187969 89.624353 
L 416.626705 150.324721 
" style="fill:none;stroke:#1b9e77;stroke-linecap:square;stroke-opacity:0.5;stroke-width:1.5;"/>
   </g>
   <g id="line2d_98">
    <path clip-path="url(#pc1e609df3f)" d="M 61.535795 165.958819 
L 76.974531 165.926279 
L 92.413266 165.898077 
L 107.852001 165.004969 
L 123.290736 164.573032 
L 138.729471 164.187491 
L 154.168207 157.761934 
L 169.606942 156.532241 
L 185.045677 158.072156 
L 200.484412 152.540068 
L 215.923147 141.041655 
L 231.361882 157.330367 
L 246.800618 159.043874 
L 262.239353 146.658448 
L 277.678088 145.924044 
L 293.116823 148.137957 
L 308.555558 144.272116 
L 323.994293 150.412945 
L 339.433029 156.116968 
L 354.871764 158.874479 
L 370.310499 160.112173 
L 385.749234 159.598051 
L 401.187969 148.785337 
L 416.626705 156.269105 
" style="fill:none;stroke:#1b9e77;stroke-linecap:square;stroke-opacity:0.5;stroke-width:1.5;"/>
   </g>
   <g id="line2d_99">
    <path clip-path="url(#pc1e609df3f)" d="M 61.535795 165.571559 
L 76.974531 165.893079 
L 92.413266 165.932419 
L 107.852001 165.816841 
L 123.290736 165.858095 
L 138.729471 165.926546 
L 154.168207 165.93069 
L 169.606942 165.955673 
L 185.045677 165.945201 
L 200.484412 164.805066 
L 215.923147 165.034965 
L 231.361882 147.506316 
L 246.800618 94.8671 
L 262.239353 124.4895 
L 277.678088 159.177729 
L 293.116823 154.102698 
L 308.555558 120.415704 
L 323.994293 164.981922 
L 339.433029 165.06115 
L 354.871764 142.867673 
L 370.310499 155.925274 
L 385.749234 165.658647 
L 401.187969 165.923956 
L 416.626705 165.384781 
" style="fill:none;stroke:#1b9e77;stroke-linecap:square;stroke-opacity:0.5;stroke-width:1.5;"/>
   </g>
   <g id="line2d_100">
    <path clip-path="url(#pc1e609df3f)" d="M 61.535795 156.685517 
L 76.974531 159.085437 
L 92.413266 163.180386 
L 107.852001 163.422934 
L 123.290736 164.026837 
L 138.729471 164.599875 
L 154.168207 163.516712 
L 169.606942 156.671841 
L 185.045677 146.225941 
L 200.484412 158.434631 
L 215.923147 162.184631 
L 231.361882 159.479462 
L 246.800618 137.667281 
L 262.239353 135.187889 
L 277.678088 163.32973 
L 293.116823 165.595635 
L 308.555558 165.818658 
L 323.994293 165.878052 
L 339.433029 163.265046 
L 354.871764 78.018158 
L 370.310499 164.427994 
L 385.749234 165.945538 
L 401.187969 165.955784 
L 416.626705 160.428618 
" style="fill:none;stroke:#1b9e77;stroke-linecap:square;stroke-opacity:0.5;stroke-width:1.5;"/>
   </g>
   <g id="line2d_101">
    <path clip-path="url(#pc1e609df3f)" d="M 61.535795 164.982732 
L 76.974531 158.30245 
L 92.413266 159.919093 
L 107.852001 165.233062 
L 123.290736 165.170006 
L 138.729471 160.862508 
L 154.168207 164.178237 
L 169.606942 161.766171 
L 185.045677 158.753386 
L 200.484412 156.77483 
L 215.923147 155.03312 
L 231.361882 157.708641 
L 246.800618 156.381116 
L 262.239353 44.627859 
L 277.678088 145.304142 
L 293.116823 158.618318 
L 308.555558 164.498101 
L 323.994293 165.544569 
L 339.433029 165.78972 
L 354.871764 165.79254 
L 370.310499 165.550305 
L 385.749234 163.589143 
L 401.187969 161.366488 
L 416.626705 163.286053 
" style="fill:none;stroke:#1b9e77;stroke-linecap:square;stroke-opacity:0.5;stroke-width:1.5;"/>
   </g>
   <g id="line2d_102">
    <path clip-path="url(#pc1e609df3f)" d="M 61.535795 164.803032 
L 76.974531 158.016274 
L 92.413266 137.586159 
L 107.852001 106.399923 
L 123.290736 115.491517 
L 138.729471 143.187364 
L 154.168207 151.096942 
L 169.606942 150.179223 
L 185.045677 165.418394 
L 200.484412 165.876372 
L 215.923147 165.835801 
L 231.361882 159.100877 
L 246.800618 163.278881 
L 262.239353 165.741472 
L 277.678088 165.891209 
L 293.116823 165.854414 
L 308.555558 165.70068 
L 323.994293 165.644575 
L 339.433029 165.77998 
L 354.871764 165.874507 
L 370.310499 165.852126 
L 385.749234 165.65734 
L 401.187969 150.786217 
L 416.626705 159.979305 
" style="fill:none;stroke:#1b9e77;stroke-linecap:square;stroke-opacity:0.5;stroke-width:1.5;"/>
   </g>
   <g id="line2d_103">
    <path clip-path="url(#pc1e609df3f)" d="M 61.535795 164.647766 
L 76.974531 133.322123 
L 92.413266 71.655263 
L 107.852001 102.826903 
L 123.290736 155.438345 
L 138.729471 157.291667 
L 154.168207 163.892352 
L 169.606942 164.855431 
L 185.045677 165.423803 
L 200.484412 165.52166 
L 215.923147 165.592952 
L 231.361882 165.412875 
L 246.800618 165.370151 
L 262.239353 165.873623 
L 277.678088 165.901515 
L 293.116823 164.344298 
L 308.555558 164.505669 
L 323.994293 164.860075 
L 339.433029 164.440392 
L 354.871764 163.991986 
L 370.310499 163.871043 
L 385.749234 163.025568 
L 401.187969 162.36801 
L 416.626705 164.5991 
" style="fill:none;stroke:#1b9e77;stroke-linecap:square;stroke-opacity:0.5;stroke-width:1.5;"/>
   </g>
   <g id="line2d_104">
    <path clip-path="url(#pc1e609df3f)" d="M 61.535795 162.377545 
L 76.974531 163.984113 
L 92.413266 165.468777 
L 107.852001 165.479588 
L 123.290736 165.625107 
L 138.729471 165.666219 
L 154.168207 165.710909 
L 169.606942 165.790244 
L 185.045677 165.813122 
L 200.484412 165.711482 
L 215.923147 165.078892 
L 231.361882 165.43935 
L 246.800618 164.424357 
L 262.239353 160.008051 
L 277.678088 146.067579 
L 293.116823 140.813348 
L 308.555558 134.135184 
L 323.994293 140.227412 
L 339.433029 135.200938 
L 354.871764 129.613915 
L 370.310499 129.92765 
L 385.749234 155.883138 
L 401.187969 164.692102 
L 416.626705 165.893558 
" style="fill:none;stroke:#1b9e77;stroke-linecap:square;stroke-opacity:0.5;stroke-width:1.5;"/>
   </g>
   <g id="line2d_105">
    <path clip-path="url(#pc1e609df3f)" d="M 61.535795 165.828725 
L 76.974531 165.641059 
L 92.413266 165.582634 
L 107.852001 164.736312 
L 123.290736 156.675232 
L 138.729471 162.853087 
L 154.168207 157.737572 
L 169.606942 159.138774 
L 185.045677 163.567311 
L 200.484412 163.840073 
L 215.923147 161.722167 
L 231.361882 151.166282 
L 246.800618 144.042368 
L 262.239353 87.22876 
L 277.678088 106.509863 
L 293.116823 150.724704 
L 308.555558 163.416622 
L 323.994293 165.215928 
L 339.433029 165.745803 
L 354.871764 165.753754 
L 370.310499 165.771223 
L 385.749234 165.363753 
L 401.187969 165.01046 
L 416.626705 165.760112 
" style="fill:none;stroke:#1b9e77;stroke-linecap:square;stroke-opacity:0.5;stroke-width:1.5;"/>
   </g>
   <g id="line2d_106">
    <path clip-path="url(#pc1e609df3f)" d="M 61.535795 156.735817 
L 76.974531 158.182702 
L 92.413266 163.751559 
L 107.852001 161.86063 
L 123.290736 165.008295 
L 138.729471 165.400251 
L 154.168207 165.71992 
L 169.606942 165.765799 
L 185.045677 165.780891 
L 200.484412 165.684399 
L 215.923147 165.666166 
L 231.361882 165.817511 
L 246.800618 165.809625 
L 262.239353 165.594032 
L 277.678088 155.257839 
L 293.116823 144.921387 
L 308.555558 139.681148 
L 323.994293 151.414754 
L 339.433029 114.728309 
L 354.871764 128.19939 
L 370.310499 125.482633 
L 385.749234 160.836738 
L 401.187969 165.809029 
L 416.626705 165.923759 
" style="fill:none;stroke:#1b9e77;stroke-linecap:square;stroke-opacity:0.5;stroke-width:1.5;"/>
   </g>
   <g id="line2d_107">
    <path clip-path="url(#pc1e609df3f)" d="M 61.535795 165.076212 
L 76.974531 165.063123 
L 92.413266 165.520344 
L 107.852001 165.488406 
L 123.290736 165.543501 
L 138.729471 165.505572 
L 154.168207 165.504782 
L 169.606942 165.78572 
L 185.045677 165.828742 
L 200.484412 165.888754 
L 215.923147 165.636866 
L 231.361882 163.564647 
L 246.800618 131.342955 
L 262.239353 163.217607 
L 277.678088 134.184816 
L 293.116823 92.544375 
L 308.555558 161.596596 
L 323.994293 160.432299 
L 339.433029 154.012219 
L 354.871764 150.749458 
L 370.310499 156.19437 
L 385.749234 153.497412 
L 401.187969 150.414298 
L 416.626705 156.439503 
" style="fill:none;stroke:#1b9e77;stroke-linecap:square;stroke-opacity:0.5;stroke-width:1.5;"/>
   </g>
   <g id="line2d_108">
    <path clip-path="url(#pc1e609df3f)" d="M 61.535795 165.836701 
L 76.974531 165.643306 
L 92.413266 165.801904 
L 107.852001 165.852 
L 123.290736 165.865944 
L 138.729471 165.872004 
L 154.168207 164.030022 
L 169.606942 157.048544 
L 185.045677 161.179724 
L 200.484412 160.472055 
L 215.923147 158.958138 
L 231.361882 154.192386 
L 246.800618 148.070177 
L 262.239353 142.979825 
L 277.678088 144.055152 
L 293.116823 159.407454 
L 308.555558 105.698441 
L 323.994293 137.05918 
L 339.433029 150.41644 
L 354.871764 150.505668 
L 370.310499 162.843287 
L 385.749234 165.475191 
L 401.187969 165.828559 
L 416.626705 165.940478 
" style="fill:none;stroke:#1b9e77;stroke-linecap:square;stroke-opacity:0.5;stroke-width:1.5;"/>
   </g>
   <g id="line2d_109">
    <path clip-path="url(#pc1e609df3f)" d="M 61.535795 159.093023 
L 76.974531 100.575904 
L 92.413266 91.712041 
L 107.852001 128.123951 
L 123.290736 150.540347 
L 138.729471 160.006144 
L 154.168207 160.800539 
L 169.606942 155.022284 
L 185.045677 162.607242 
L 200.484412 165.381785 
L 215.923147 165.670417 
L 231.361882 165.158955 
L 246.800618 165.578765 
L 262.239353 165.830821 
L 277.678088 165.902759 
L 293.116823 165.898045 
L 308.555558 165.906052 
L 323.994293 165.911251 
L 339.433029 165.912442 
L 354.871764 165.941902 
L 370.310499 165.943275 
L 385.749234 165.050937 
L 401.187969 162.295026 
L 416.626705 164.168681 
" style="fill:none;stroke:#1b9e77;stroke-linecap:square;stroke-opacity:0.5;stroke-width:1.5;"/>
   </g>
   <g id="line2d_110">
    <path clip-path="url(#pc1e609df3f)" d="M 61.535795 165.763188 
L 76.974531 165.810746 
L 92.413266 163.839525 
L 107.852001 152.166743 
L 123.290736 160.091202 
L 138.729471 165.229892 
L 154.168207 165.713169 
L 169.606942 164.616828 
L 185.045677 162.339335 
L 200.484412 163.778918 
L 215.923147 165.195457 
L 231.361882 165.36297 
L 246.800618 164.44138 
L 262.239353 161.477268 
L 277.678088 154.207896 
L 293.116823 155.300305 
L 308.555558 149.442744 
L 323.994293 154.029214 
L 339.433029 153.36818 
L 354.871764 155.345224 
L 370.310499 159.192542 
L 385.749234 120.103437 
L 401.187969 115.570669 
L 416.626705 146.64575 
" style="fill:none;stroke:#1b9e77;stroke-linecap:square;stroke-opacity:0.5;stroke-width:1.5;"/>
   </g>
   <g id="line2d_111">
    <path clip-path="url(#pc1e609df3f)" d="M 61.535795 161.814044 
L 76.974531 147.469995 
L 92.413266 145.521476 
L 107.852001 158.188693 
L 123.290736 132.529348 
L 138.729471 158.311664 
L 154.168207 165.24702 
L 169.606942 164.925782 
L 185.045677 164.850824 
L 200.484412 164.709598 
L 215.923147 165.303815 
L 231.361882 165.543011 
L 246.800618 165.519331 
L 262.239353 164.919105 
L 277.678088 163.398989 
L 293.116823 162.757137 
L 308.555558 163.897392 
L 323.994293 165.384776 
L 339.433029 165.049561 
L 354.871764 156.376577 
L 370.310499 128.842794 
L 385.749234 157.250303 
L 401.187969 109.62321 
L 416.626705 151.598142 
" style="fill:none;stroke:#1b9e77;stroke-linecap:square;stroke-opacity:0.5;stroke-width:1.5;"/>
   </g>
   <g id="line2d_112">
    <path clip-path="url(#pc1e609df3f)" d="M 61.535795 161.516466 
L 76.974531 163.784405 
L 92.413266 164.984409 
L 107.852001 165.1486 
L 123.290736 165.433829 
L 138.729471 165.623706 
L 154.168207 165.400649 
L 169.606942 165.281728 
L 185.045677 163.794288 
L 200.484412 165.117499 
L 215.923147 163.674882 
L 231.361882 142.343751 
L 246.800618 149.194042 
L 262.239353 154.734254 
L 277.678088 146.060694 
L 293.116823 144.514823 
L 308.555558 127.936973 
L 323.994293 121.42605 
L 339.433029 135.42528 
L 354.871764 154.274569 
L 370.310499 165.889115 
L 385.749234 165.899213 
L 401.187969 165.933185 
L 416.626705 165.640162 
" style="fill:none;stroke:#1b9e77;stroke-linecap:square;stroke-opacity:0.5;stroke-width:1.5;"/>
   </g>
   <g id="line2d_113">
    <path clip-path="url(#pc1e609df3f)" d="M 61.535795 162.098267 
L 76.974531 163.243082 
L 92.413266 163.132621 
L 107.852001 148.841026 
L 123.290736 86.806203 
L 138.729471 95.866035 
L 154.168207 162.070588 
L 169.606942 165.118771 
L 185.045677 164.729344 
L 200.484412 164.879744 
L 215.923147 164.009746 
L 231.361882 165.275082 
L 246.800618 163.691066 
L 262.239353 157.824164 
L 277.678088 164.279228 
L 293.116823 165.878564 
L 308.555558 165.38857 
L 323.994293 157.102192 
L 339.433029 150.301884 
L 354.871764 155.874921 
L 370.310499 164.992466 
L 385.749234 165.924902 
L 401.187969 165.76082 
L 416.626705 165.943258 
" style="fill:none;stroke:#d95f02;stroke-linecap:square;stroke-width:1.5;"/>
   </g>
   <g id="patch_3">
    <path d="M 43.78125 173.52 
L 43.78125 7.2 
" style="fill:none;stroke:#000000;stroke-linecap:square;stroke-linejoin:miter;stroke-width:0.8;"/>
   </g>
   <g id="patch_4">
    <path d="M 43.78125 173.52 
L 434.38125 173.52 
" style="fill:none;stroke:#000000;stroke-linecap:square;stroke-linejoin:miter;stroke-width:0.8;"/>
   </g>
   <g id="legend_1">
    <g id="patch_5">
     <path d="M 376.214063 29.878125 
L 427.38125 29.878125 
Q 429.38125 29.878125 429.38125 27.878125 
L 429.38125 14.2 
Q 429.38125 12.2 427.38125 12.2 
L 376.214063 12.2 
Q 374.214063 12.2 374.214063 14.2 
L 374.214063 27.878125 
Q 374.214063 29.878125 376.214063 29.878125 
z
" style="fill:#ffffff;opacity:0.8;stroke:#cccccc;stroke-linejoin:miter;"/>
    </g>
    <g id="line2d_114">
     <path d="M 378.214063 20.298438 
L 398.214063 20.298438 
" style="fill:none;stroke:#d95f02;stroke-linecap:square;stroke-width:1.5;"/>
    </g>
    <g id="line2d_115"/>
    <g id="text_15">
     <!-- real -->
     <defs>
      <path d="M 9.421875 75.984375 
L 18.40625 75.984375 
L 18.40625 0 
L 9.421875 0 
z
" id="DejaVuSans-108"/>
     </defs>
     <g transform="translate(406.214063 23.798438)scale(0.1 -0.1)">
      <use xlink:href="#DejaVuSans-114"/>
      <use x="41.082031" xlink:href="#DejaVuSans-101"/>
      <use x="102.605469" xlink:href="#DejaVuSans-97"/>
      <use x="163.884766" xlink:href="#DejaVuSans-108"/>
     </g>
    </g>
   </g>
  </g>
 </g>
 <defs>
  <clipPath id="pc1e609df3f">
   <rect height="166.32" width="390.6" x="43.78125" y="7.2"/>
  </clipPath>
 </defs>
</svg>
