<?xml version="1.0" encoding="utf-8" standalone="no"?>
<!DOCTYPE svg PUBLIC "-//W3C//DTD SVG 1.1//EN"
  "http://www.w3.org/Graphics/SVG/1.1/DTD/svg11.dtd">
<!-- Created with matplotlib (https://matplotlib.org/) -->
<svg height="211.07625pt" version="1.1" viewBox="0 0 445.62794 211.07625" width="445.62794pt" xmlns="http://www.w3.org/2000/svg" xmlns:xlink="http://www.w3.org/1999/xlink">
 <defs>
  <style type="text/css">
*{stroke-linecap:butt;stroke-linejoin:round;}
  </style>
 </defs>
 <g id="figure_1">
  <g id="patch_1">
   <path d="M 0 211.07625 
L 445.62794 211.07625 
L 445.62794 0 
L 0 0 
z
" style="fill:#ffffff;"/>
  </g>
  <g id="axes_1">
   <g id="patch_2">
    <path d="M 43.78125 173.52 
L 434.38125 173.52 
L 434.38125 7.2 
L 43.78125 7.2 
z
" style="fill:#ffffff;"/>
   </g>
   <g id="matplotlib.axis_1">
    <g id="xtick_1">
     <g id="line2d_1">
      <defs>
       <path d="M 0 0 
L 0 3.5 
" id="mc7cb205906" style="stroke:#000000;stroke-width:0.8;"/>
      </defs>
      <g>
       <use style="stroke:#000000;stroke-width:0.8;" x="46.09706" xlink:href="#mc7cb205906" y="173.52"/>
      </g>
     </g>
     <g id="text_1">
      <!-- 0 -->
      <defs>
       <path d="M 31.78125 66.40625 
Q 24.171875 66.40625 20.328125 58.90625 
Q 16.5 51.421875 16.5 36.375 
Q 16.5 21.390625 20.328125 13.890625 
Q 24.171875 6.390625 31.78125 6.390625 
Q 39.453125 6.390625 43.28125 13.890625 
Q 47.125 21.390625 47.125 36.375 
Q 47.125 51.421875 43.28125 58.90625 
Q 39.453125 66.40625 31.78125 66.40625 
z
M 31.78125 74.21875 
Q 44.046875 74.21875 50.515625 64.515625 
Q 56.984375 54.828125 56.984375 36.375 
Q 56.984375 17.96875 50.515625 8.265625 
Q 44.046875 -1.421875 31.78125 -1.421875 
Q 19.53125 -1.421875 13.0625 8.265625 
Q 6.59375 17.96875 6.59375 36.375 
Q 6.59375 54.828125 13.0625 64.515625 
Q 19.53125 74.21875 31.78125 74.21875 
z
" id="DejaVuSans-48"/>
      </defs>
      <g transform="translate(42.91581 188.118438)scale(0.1 -0.1)">
       <use xlink:href="#DejaVuSans-48"/>
      </g>
     </g>
    </g>
    <g id="xtick_2">
     <g id="line2d_2">
      <g>
       <use style="stroke:#000000;stroke-width:0.8;" x="123.290736" xlink:href="#mc7cb205906" y="173.52"/>
      </g>
     </g>
     <g id="text_2">
      <!-- 5 -->
      <defs>
       <path d="M 10.796875 72.90625 
L 49.515625 72.90625 
L 49.515625 64.59375 
L 19.828125 64.59375 
L 19.828125 46.734375 
Q 21.96875 47.46875 24.109375 47.828125 
Q 26.265625 48.1875 28.421875 48.1875 
Q 40.625 48.1875 47.75 41.5 
Q 54.890625 34.8125 54.890625 23.390625 
Q 54.890625 11.625 47.5625 5.09375 
Q 40.234375 -1.421875 26.90625 -1.421875 
Q 22.3125 -1.421875 17.546875 -0.640625 
Q 12.796875 0.140625 7.71875 1.703125 
L 7.71875 11.625 
Q 12.109375 9.234375 16.796875 8.0625 
Q 21.484375 6.890625 26.703125 6.890625 
Q 35.15625 6.890625 40.078125 11.328125 
Q 45.015625 15.765625 45.015625 23.390625 
Q 45.015625 31 40.078125 35.4375 
Q 35.15625 39.890625 26.703125 39.890625 
Q 22.75 39.890625 18.8125 39.015625 
Q 14.890625 38.140625 10.796875 36.28125 
z
" id="DejaVuSans-53"/>
      </defs>
      <g transform="translate(120.109486 188.118438)scale(0.1 -0.1)">
       <use xlink:href="#DejaVuSans-53"/>
      </g>
     </g>
    </g>
    <g id="xtick_3">
     <g id="line2d_3">
      <g>
       <use style="stroke:#000000;stroke-width:0.8;" x="200.484412" xlink:href="#mc7cb205906" y="173.52"/>
      </g>
     </g>
     <g id="text_3">
      <!-- 10 -->
      <defs>
       <path d="M 12.40625 8.296875 
L 28.515625 8.296875 
L 28.515625 63.921875 
L 10.984375 60.40625 
L 10.984375 69.390625 
L 28.421875 72.90625 
L 38.28125 72.90625 
L 38.28125 8.296875 
L 54.390625 8.296875 
L 54.390625 0 
L 12.40625 0 
z
" id="DejaVuSans-49"/>
      </defs>
      <g transform="translate(194.121912 188.118438)scale(0.1 -0.1)">
       <use xlink:href="#DejaVuSans-49"/>
       <use x="63.623047" xlink:href="#DejaVuSans-48"/>
      </g>
     </g>
    </g>
    <g id="xtick_4">
     <g id="line2d_4">
      <g>
       <use style="stroke:#000000;stroke-width:0.8;" x="277.678088" xlink:href="#mc7cb205906" y="173.52"/>
      </g>
     </g>
     <g id="text_4">
      <!-- 15 -->
      <g transform="translate(271.315588 188.118438)scale(0.1 -0.1)">
       <use xlink:href="#DejaVuSans-49"/>
       <use x="63.623047" xlink:href="#DejaVuSans-53"/>
      </g>
     </g>
    </g>
    <g id="xtick_5">
     <g id="line2d_5">
      <g>
       <use style="stroke:#000000;stroke-width:0.8;" x="354.871764" xlink:href="#mc7cb205906" y="173.52"/>
      </g>
     </g>
     <g id="text_5">
      <!-- 20 -->
      <defs>
       <path d="M 19.1875 8.296875 
L 53.609375 8.296875 
L 53.609375 0 
L 7.328125 0 
L 7.328125 8.296875 
Q 12.9375 14.109375 22.625 23.890625 
Q 32.328125 33.6875 34.8125 36.53125 
Q 39.546875 41.84375 41.421875 45.53125 
Q 43.3125 49.21875 43.3125 52.78125 
Q 43.3125 58.59375 39.234375 62.25 
Q 35.15625 65.921875 28.609375 65.921875 
Q 23.96875 65.921875 18.8125 64.3125 
Q 13.671875 62.703125 7.8125 59.421875 
L 7.8125 69.390625 
Q 13.765625 71.78125 18.9375 73 
Q 24.125 74.21875 28.421875 74.21875 
Q 39.75 74.21875 46.484375 68.546875 
Q 53.21875 62.890625 53.21875 53.421875 
Q 53.21875 48.921875 51.53125 44.890625 
Q 49.859375 40.875 45.40625 35.40625 
Q 44.1875 33.984375 37.640625 27.21875 
Q 31.109375 20.453125 19.1875 8.296875 
z
" id="DejaVuSans-50"/>
      </defs>
      <g transform="translate(348.509264 188.118438)scale(0.1 -0.1)">
       <use xlink:href="#DejaVuSans-50"/>
       <use x="63.623047" xlink:href="#DejaVuSans-48"/>
      </g>
     </g>
    </g>
    <g id="xtick_6">
     <g id="line2d_6">
      <g>
       <use style="stroke:#000000;stroke-width:0.8;" x="432.06544" xlink:href="#mc7cb205906" y="173.52"/>
      </g>
     </g>
     <g id="text_6">
      <!-- 25 -->
      <g transform="translate(425.70294 188.118438)scale(0.1 -0.1)">
       <use xlink:href="#DejaVuSans-50"/>
       <use x="63.623047" xlink:href="#DejaVuSans-53"/>
      </g>
     </g>
    </g>
    <g id="text_7">
     <!-- hour -->
     <defs>
      <path d="M 54.890625 33.015625 
L 54.890625 0 
L 45.90625 0 
L 45.90625 32.71875 
Q 45.90625 40.484375 42.875 44.328125 
Q 39.84375 48.1875 33.796875 48.1875 
Q 26.515625 48.1875 22.3125 43.546875 
Q 18.109375 38.921875 18.109375 30.90625 
L 18.109375 0 
L 9.078125 0 
L 9.078125 75.984375 
L 18.109375 75.984375 
L 18.109375 46.1875 
Q 21.34375 51.125 25.703125 53.5625 
Q 30.078125 56 35.796875 56 
Q 45.21875 56 50.046875 50.171875 
Q 54.890625 44.34375 54.890625 33.015625 
z
" id="DejaVuSans-104"/>
      <path d="M 30.609375 48.390625 
Q 23.390625 48.390625 19.1875 42.75 
Q 14.984375 37.109375 14.984375 27.296875 
Q 14.984375 17.484375 19.15625 11.84375 
Q 23.34375 6.203125 30.609375 6.203125 
Q 37.796875 6.203125 41.984375 11.859375 
Q 46.1875 17.53125 46.1875 27.296875 
Q 46.1875 37.015625 41.984375 42.703125 
Q 37.796875 48.390625 30.609375 48.390625 
z
M 30.609375 56 
Q 42.328125 56 49.015625 48.375 
Q 55.71875 40.765625 55.71875 27.296875 
Q 55.71875 13.875 49.015625 6.21875 
Q 42.328125 -1.421875 30.609375 -1.421875 
Q 18.84375 -1.421875 12.171875 6.21875 
Q 5.515625 13.875 5.515625 27.296875 
Q 5.515625 40.765625 12.171875 48.375 
Q 18.84375 56 30.609375 56 
z
" id="DejaVuSans-111"/>
      <path d="M 8.5 21.578125 
L 8.5 54.6875 
L 17.484375 54.6875 
L 17.484375 21.921875 
Q 17.484375 14.15625 20.5 10.265625 
Q 23.53125 6.390625 29.59375 6.390625 
Q 36.859375 6.390625 41.078125 11.03125 
Q 45.3125 15.671875 45.3125 23.6875 
L 45.3125 54.6875 
L 54.296875 54.6875 
L 54.296875 0 
L 45.3125 0 
L 45.3125 8.40625 
Q 42.046875 3.421875 37.71875 1 
Q 33.40625 -1.421875 27.6875 -1.421875 
Q 18.265625 -1.421875 13.375 4.4375 
Q 8.5 10.296875 8.5 21.578125 
z
M 31.109375 56 
z
" id="DejaVuSans-117"/>
      <path d="M 41.109375 46.296875 
Q 39.59375 47.171875 37.8125 47.578125 
Q 36.03125 48 33.890625 48 
Q 26.265625 48 22.1875 43.046875 
Q 18.109375 38.09375 18.109375 28.8125 
L 18.109375 0 
L 9.078125 0 
L 9.078125 54.6875 
L 18.109375 54.6875 
L 18.109375 46.1875 
Q 20.953125 51.171875 25.484375 53.578125 
Q 30.03125 56 36.53125 56 
Q 37.453125 56 38.578125 55.875 
Q 39.703125 55.765625 41.0625 55.515625 
z
" id="DejaVuSans-114"/>
     </defs>
     <g transform="translate(227.628906 201.796563)scale(0.1 -0.1)">
      <use xlink:href="#DejaVuSans-104"/>
      <use x="63.378906" xlink:href="#DejaVuSans-111"/>
      <use x="124.560547" xlink:href="#DejaVuSans-117"/>
      <use x="187.939453" xlink:href="#DejaVuSans-114"/>
     </g>
    </g>
   </g>
   <g id="matplotlib.axis_2">
    <g id="ytick_1">
     <g id="line2d_7">
      <defs>
       <path d="M 0 0 
L -3.5 0 
" id="m354020faa8" style="stroke:#000000;stroke-width:0.8;"/>
      </defs>
      <g>
       <use style="stroke:#000000;stroke-width:0.8;" x="43.78125" xlink:href="#m354020faa8" y="165.960633"/>
      </g>
     </g>
     <g id="text_8">
      <!-- 0.0 -->
      <defs>
       <path d="M 10.6875 12.40625 
L 21 12.40625 
L 21 0 
L 10.6875 0 
z
" id="DejaVuSans-46"/>
      </defs>
      <g transform="translate(20.878125 169.759851)scale(0.1 -0.1)">
       <use xlink:href="#DejaVuSans-48"/>
       <use x="63.623047" xlink:href="#DejaVuSans-46"/>
       <use x="95.410156" xlink:href="#DejaVuSans-48"/>
      </g>
     </g>
    </g>
    <g id="ytick_2">
     <g id="line2d_8">
      <g>
       <use style="stroke:#000000;stroke-width:0.8;" x="43.78125" xlink:href="#m354020faa8" y="136.389441"/>
      </g>
     </g>
     <g id="text_9">
      <!-- 0.5 -->
      <g transform="translate(20.878125 140.188659)scale(0.1 -0.1)">
       <use xlink:href="#DejaVuSans-48"/>
       <use x="63.623047" xlink:href="#DejaVuSans-46"/>
       <use x="95.410156" xlink:href="#DejaVuSans-53"/>
      </g>
     </g>
    </g>
    <g id="ytick_3">
     <g id="line2d_9">
      <g>
       <use style="stroke:#000000;stroke-width:0.8;" x="43.78125" xlink:href="#m354020faa8" y="106.818249"/>
      </g>
     </g>
     <g id="text_10">
      <!-- 1.0 -->
      <g transform="translate(20.878125 110.617467)scale(0.1 -0.1)">
       <use xlink:href="#DejaVuSans-49"/>
       <use x="63.623047" xlink:href="#DejaVuSans-46"/>
       <use x="95.410156" xlink:href="#DejaVuSans-48"/>
      </g>
     </g>
    </g>
    <g id="ytick_4">
     <g id="line2d_10">
      <g>
       <use style="stroke:#000000;stroke-width:0.8;" x="43.78125" xlink:href="#m354020faa8" y="77.247057"/>
      </g>
     </g>
     <g id="text_11">
      <!-- 1.5 -->
      <g transform="translate(20.878125 81.046275)scale(0.1 -0.1)">
       <use xlink:href="#DejaVuSans-49"/>
       <use x="63.623047" xlink:href="#DejaVuSans-46"/>
       <use x="95.410156" xlink:href="#DejaVuSans-53"/>
      </g>
     </g>
    </g>
    <g id="ytick_5">
     <g id="line2d_11">
      <g>
       <use style="stroke:#000000;stroke-width:0.8;" x="43.78125" xlink:href="#m354020faa8" y="47.675865"/>
      </g>
     </g>
     <g id="text_12">
      <!-- 2.0 -->
      <g transform="translate(20.878125 51.475083)scale(0.1 -0.1)">
       <use xlink:href="#DejaVuSans-50"/>
       <use x="63.623047" xlink:href="#DejaVuSans-46"/>
       <use x="95.410156" xlink:href="#DejaVuSans-48"/>
      </g>
     </g>
    </g>
    <g id="ytick_6">
     <g id="line2d_12">
      <g>
       <use style="stroke:#000000;stroke-width:0.8;" x="43.78125" xlink:href="#m354020faa8" y="18.104673"/>
      </g>
     </g>
     <g id="text_13">
      <!-- 2.5 -->
      <g transform="translate(20.878125 21.903891)scale(0.1 -0.1)">
       <use xlink:href="#DejaVuSans-50"/>
       <use x="63.623047" xlink:href="#DejaVuSans-46"/>
       <use x="95.410156" xlink:href="#DejaVuSans-53"/>
      </g>
     </g>
    </g>
    <g id="text_14">
     <!-- precipitation [mm/hour] -->
     <defs>
      <path d="M 18.109375 8.203125 
L 18.109375 -20.796875 
L 9.078125 -20.796875 
L 9.078125 54.6875 
L 18.109375 54.6875 
L 18.109375 46.390625 
Q 20.953125 51.265625 25.265625 53.625 
Q 29.59375 56 35.59375 56 
Q 45.5625 56 51.78125 48.09375 
Q 58.015625 40.1875 58.015625 27.296875 
Q 58.015625 14.40625 51.78125 6.484375 
Q 45.5625 -1.421875 35.59375 -1.421875 
Q 29.59375 -1.421875 25.265625 0.953125 
Q 20.953125 3.328125 18.109375 8.203125 
z
M 48.6875 27.296875 
Q 48.6875 37.203125 44.609375 42.84375 
Q 40.53125 48.484375 33.40625 48.484375 
Q 26.265625 48.484375 22.1875 42.84375 
Q 18.109375 37.203125 18.109375 27.296875 
Q 18.109375 17.390625 22.1875 11.75 
Q 26.265625 6.109375 33.40625 6.109375 
Q 40.53125 6.109375 44.609375 11.75 
Q 48.6875 17.390625 48.6875 27.296875 
z
" id="DejaVuSans-112"/>
      <path d="M 56.203125 29.59375 
L 56.203125 25.203125 
L 14.890625 25.203125 
Q 15.484375 15.921875 20.484375 11.0625 
Q 25.484375 6.203125 34.421875 6.203125 
Q 39.59375 6.203125 44.453125 7.46875 
Q 49.3125 8.734375 54.109375 11.28125 
L 54.109375 2.78125 
Q 49.265625 0.734375 44.1875 -0.34375 
Q 39.109375 -1.421875 33.890625 -1.421875 
Q 20.796875 -1.421875 13.15625 6.1875 
Q 5.515625 13.8125 5.515625 26.8125 
Q 5.515625 40.234375 12.765625 48.109375 
Q 20.015625 56 32.328125 56 
Q 43.359375 56 49.78125 48.890625 
Q 56.203125 41.796875 56.203125 29.59375 
z
M 47.21875 32.234375 
Q 47.125 39.59375 43.09375 43.984375 
Q 39.0625 48.390625 32.421875 48.390625 
Q 24.90625 48.390625 20.390625 44.140625 
Q 15.875 39.890625 15.1875 32.171875 
z
" id="DejaVuSans-101"/>
      <path d="M 48.78125 52.59375 
L 48.78125 44.1875 
Q 44.96875 46.296875 41.140625 47.34375 
Q 37.3125 48.390625 33.40625 48.390625 
Q 24.65625 48.390625 19.8125 42.84375 
Q 14.984375 37.3125 14.984375 27.296875 
Q 14.984375 17.28125 19.8125 11.734375 
Q 24.65625 6.203125 33.40625 6.203125 
Q 37.3125 6.203125 41.140625 7.25 
Q 44.96875 8.296875 48.78125 10.40625 
L 48.78125 2.09375 
Q 45.015625 0.34375 40.984375 -0.53125 
Q 36.96875 -1.421875 32.421875 -1.421875 
Q 20.0625 -1.421875 12.78125 6.34375 
Q 5.515625 14.109375 5.515625 27.296875 
Q 5.515625 40.671875 12.859375 48.328125 
Q 20.21875 56 33.015625 56 
Q 37.15625 56 41.109375 55.140625 
Q 45.0625 54.296875 48.78125 52.59375 
z
" id="DejaVuSans-99"/>
      <path d="M 9.421875 54.6875 
L 18.40625 54.6875 
L 18.40625 0 
L 9.421875 0 
z
M 9.421875 75.984375 
L 18.40625 75.984375 
L 18.40625 64.59375 
L 9.421875 64.59375 
z
" id="DejaVuSans-105"/>
      <path d="M 18.3125 70.21875 
L 18.3125 54.6875 
L 36.8125 54.6875 
L 36.8125 47.703125 
L 18.3125 47.703125 
L 18.3125 18.015625 
Q 18.3125 11.328125 20.140625 9.421875 
Q 21.96875 7.515625 27.59375 7.515625 
L 36.8125 7.515625 
L 36.8125 0 
L 27.59375 0 
Q 17.1875 0 13.234375 3.875 
Q 9.28125 7.765625 9.28125 18.015625 
L 9.28125 47.703125 
L 2.6875 47.703125 
L 2.6875 54.6875 
L 9.28125 54.6875 
L 9.28125 70.21875 
z
" id="DejaVuSans-116"/>
      <path d="M 34.28125 27.484375 
Q 23.390625 27.484375 19.1875 25 
Q 14.984375 22.515625 14.984375 16.5 
Q 14.984375 11.71875 18.140625 8.90625 
Q 21.296875 6.109375 26.703125 6.109375 
Q 34.1875 6.109375 38.703125 11.40625 
Q 43.21875 16.703125 43.21875 25.484375 
L 43.21875 27.484375 
z
M 52.203125 31.203125 
L 52.203125 0 
L 43.21875 0 
L 43.21875 8.296875 
Q 40.140625 3.328125 35.546875 0.953125 
Q 30.953125 -1.421875 24.3125 -1.421875 
Q 15.921875 -1.421875 10.953125 3.296875 
Q 6 8.015625 6 15.921875 
Q 6 25.140625 12.171875 29.828125 
Q 18.359375 34.515625 30.609375 34.515625 
L 43.21875 34.515625 
L 43.21875 35.40625 
Q 43.21875 41.609375 39.140625 45 
Q 35.0625 48.390625 27.6875 48.390625 
Q 23 48.390625 18.546875 47.265625 
Q 14.109375 46.140625 10.015625 43.890625 
L 10.015625 52.203125 
Q 14.9375 54.109375 19.578125 55.046875 
Q 24.21875 56 28.609375 56 
Q 40.484375 56 46.34375 49.84375 
Q 52.203125 43.703125 52.203125 31.203125 
z
" id="DejaVuSans-97"/>
      <path d="M 54.890625 33.015625 
L 54.890625 0 
L 45.90625 0 
L 45.90625 32.71875 
Q 45.90625 40.484375 42.875 44.328125 
Q 39.84375 48.1875 33.796875 48.1875 
Q 26.515625 48.1875 22.3125 43.546875 
Q 18.109375 38.921875 18.109375 30.90625 
L 18.109375 0 
L 9.078125 0 
L 9.078125 54.6875 
L 18.109375 54.6875 
L 18.109375 46.1875 
Q 21.34375 51.125 25.703125 53.5625 
Q 30.078125 56 35.796875 56 
Q 45.21875 56 50.046875 50.171875 
Q 54.890625 44.34375 54.890625 33.015625 
z
" id="DejaVuSans-110"/>
      <path id="DejaVuSans-32"/>
      <path d="M 8.59375 75.984375 
L 29.296875 75.984375 
L 29.296875 69 
L 17.578125 69 
L 17.578125 -6.203125 
L 29.296875 -6.203125 
L 29.296875 -13.1875 
L 8.59375 -13.1875 
z
" id="DejaVuSans-91"/>
      <path d="M 52 44.1875 
Q 55.375 50.25 60.0625 53.125 
Q 64.75 56 71.09375 56 
Q 79.640625 56 84.28125 50.015625 
Q 88.921875 44.046875 88.921875 33.015625 
L 88.921875 0 
L 79.890625 0 
L 79.890625 32.71875 
Q 79.890625 40.578125 77.09375 44.375 
Q 74.3125 48.1875 68.609375 48.1875 
Q 61.625 48.1875 57.5625 43.546875 
Q 53.515625 38.921875 53.515625 30.90625 
L 53.515625 0 
L 44.484375 0 
L 44.484375 32.71875 
Q 44.484375 40.625 41.703125 44.40625 
Q 38.921875 48.1875 33.109375 48.1875 
Q 26.21875 48.1875 22.15625 43.53125 
Q 18.109375 38.875 18.109375 30.90625 
L 18.109375 0 
L 9.078125 0 
L 9.078125 54.6875 
L 18.109375 54.6875 
L 18.109375 46.1875 
Q 21.1875 51.21875 25.484375 53.609375 
Q 29.78125 56 35.6875 56 
Q 41.65625 56 45.828125 52.96875 
Q 50 49.953125 52 44.1875 
z
" id="DejaVuSans-109"/>
      <path d="M 25.390625 72.90625 
L 33.6875 72.90625 
L 8.296875 -9.28125 
L 0 -9.28125 
z
" id="DejaVuSans-47"/>
      <path d="M 30.421875 75.984375 
L 30.421875 -13.1875 
L 9.71875 -13.1875 
L 9.71875 -6.203125 
L 21.390625 -6.203125 
L 21.390625 69 
L 9.71875 69 
L 9.71875 75.984375 
z
" id="DejaVuSans-93"/>
     </defs>
     <g transform="translate(14.798438 150.335781)rotate(-90)scale(0.1 -0.1)">
      <use xlink:href="#DejaVuSans-112"/>
      <use x="63.476562" xlink:href="#DejaVuSans-114"/>
      <use x="104.558594" xlink:href="#DejaVuSans-101"/>
      <use x="166.082031" xlink:href="#DejaVuSans-99"/>
      <use x="221.0625" xlink:href="#DejaVuSans-105"/>
      <use x="248.845703" xlink:href="#DejaVuSans-112"/>
      <use x="312.322266" xlink:href="#DejaVuSans-105"/>
      <use x="340.105469" xlink:href="#DejaVuSans-116"/>
      <use x="379.314453" xlink:href="#DejaVuSans-97"/>
      <use x="440.59375" xlink:href="#DejaVuSans-116"/>
      <use x="479.802734" xlink:href="#DejaVuSans-105"/>
      <use x="507.585938" xlink:href="#DejaVuSans-111"/>
      <use x="568.767578" xlink:href="#DejaVuSans-110"/>
      <use x="632.146484" xlink:href="#DejaVuSans-32"/>
      <use x="663.933594" xlink:href="#DejaVuSans-91"/>
      <use x="702.947266" xlink:href="#DejaVuSans-109"/>
      <use x="800.359375" xlink:href="#DejaVuSans-109"/>
      <use x="897.771484" xlink:href="#DejaVuSans-47"/>
      <use x="931.462891" xlink:href="#DejaVuSans-104"/>
      <use x="994.841797" xlink:href="#DejaVuSans-111"/>
      <use x="1056.023438" xlink:href="#DejaVuSans-117"/>
      <use x="1119.402344" xlink:href="#DejaVuSans-114"/>
      <use x="1160.515625" xlink:href="#DejaVuSans-93"/>
     </g>
    </g>
   </g>
   <g id="line2d_13">
    <path clip-path="url(#pef78466d0f)" d="M 61.535795 162.273158 
L 76.974531 163.939826 
L 92.413266 164.989294 
L 107.852001 165.23791 
L 123.290736 165.653223 
L 138.729471 165.777726 
L 154.168207 165.789746 
L 169.606942 165.418723 
L 185.045677 165.314146 
L 200.484412 165.208977 
L 215.923147 164.623913 
L 231.361882 161.705584 
L 246.800618 157.837767 
L 262.239353 160.422167 
L 277.678088 156.343571 
L 293.116823 156.955236 
L 308.555558 144.099482 
L 323.994293 68.09968 
L 339.433029 113.150386 
L 354.871764 146.133181 
L 370.310499 164.632454 
L 385.749234 165.179012 
L 401.187969 165.595664 
L 416.626705 165.890894 
" style="fill:none;stroke:#1b9e77;stroke-linecap:square;stroke-opacity:0.5;stroke-width:1.5;"/>
   </g>
   <g id="line2d_14">
    <path clip-path="url(#pef78466d0f)" d="M 61.535795 151.295234 
L 76.974531 158.491124 
L 92.413266 159.718229 
L 107.852001 125.710068 
L 123.290736 126.700272 
L 138.729471 162.025446 
L 154.168207 165.444125 
L 169.606942 165.603878 
L 185.045677 164.937797 
L 200.484412 164.163643 
L 215.923147 163.045267 
L 231.361882 163.577879 
L 246.800618 162.857653 
L 262.239353 158.844712 
L 277.678088 151.307264 
L 293.116823 156.938392 
L 308.555558 158.942926 
L 323.994293 147.112352 
L 339.433029 106.981971 
L 354.871764 165.832042 
L 370.310499 165.684332 
L 385.749234 165.322873 
L 401.187969 165.187436 
L 416.626705 164.546806 
" style="fill:none;stroke:#1b9e77;stroke-linecap:square;stroke-opacity:0.5;stroke-width:1.5;"/>
   </g>
   <g id="line2d_15">
    <path clip-path="url(#pef78466d0f)" d="M 61.535795 156.280673 
L 76.974531 165.382527 
L 92.413266 164.682064 
L 107.852001 161.237172 
L 123.290736 163.243509 
L 138.729471 95.704432 
L 154.168207 124.935016 
L 169.606942 153.82627 
L 185.045677 160.472262 
L 200.484412 151.157929 
L 215.923147 164.386816 
L 231.361882 165.480007 
L 246.800618 165.69968 
L 262.239353 165.702456 
L 277.678088 165.747437 
L 293.116823 165.721995 
L 308.555558 157.271213 
L 323.994293 160.721545 
L 339.433029 158.427362 
L 354.871764 156.425256 
L 370.310499 157.978881 
L 385.749234 154.03237 
L 401.187969 146.45123 
L 416.626705 159.303612 
" style="fill:none;stroke:#1b9e77;stroke-linecap:square;stroke-opacity:0.5;stroke-width:1.5;"/>
   </g>
   <g id="line2d_16">
    <path clip-path="url(#pef78466d0f)" d="M 61.535795 165.767775 
L 76.974531 165.575201 
L 92.413266 165.514954 
L 107.852001 164.663889 
L 123.290736 164.943997 
L 138.729471 165.834084 
L 154.168207 165.88224 
L 169.606942 165.693235 
L 185.045677 163.742161 
L 200.484412 164.169686 
L 215.923147 158.044098 
L 231.361882 157.835261 
L 246.800618 151.760721 
L 262.239353 149.502792 
L 277.678088 156.615976 
L 293.116823 126.62704 
L 308.555558 68.562132 
L 323.994293 156.134517 
L 339.433029 153.398589 
L 354.871764 154.201486 
L 370.310499 163.840345 
L 385.749234 162.946855 
L 401.187969 163.879674 
L 416.626705 165.135023 
" style="fill:none;stroke:#1b9e77;stroke-linecap:square;stroke-opacity:0.5;stroke-width:1.5;"/>
   </g>
   <g id="line2d_17">
    <path clip-path="url(#pef78466d0f)" d="M 61.535795 158.97902 
L 76.974531 165.297295 
L 92.413266 165.551521 
L 107.852001 85.800887 
L 123.290736 134.772115 
L 138.729471 127.91481 
L 154.168207 160.863667 
L 169.606942 165.632685 
L 185.045677 165.784551 
L 200.484412 165.68132 
L 215.923147 165.632816 
L 231.361882 165.732799 
L 246.800618 165.851804 
L 262.239353 165.933415 
L 277.678088 165.95341 
L 293.116823 165.277668 
L 308.555558 158.668638 
L 323.994293 157.710501 
L 339.433029 139.495967 
L 354.871764 159.341841 
L 370.310499 158.393158 
L 385.749234 158.077895 
L 401.187969 156.515864 
L 416.626705 161.408073 
" style="fill:none;stroke:#1b9e77;stroke-linecap:square;stroke-opacity:0.5;stroke-width:1.5;"/>
   </g>
   <g id="line2d_18">
    <path clip-path="url(#pef78466d0f)" d="M 61.535795 164.991463 
L 76.974531 164.401896 
L 92.413266 165.08009 
L 107.852001 165.146293 
L 123.290736 165.36119 
L 138.729471 165.708408 
L 154.168207 165.697867 
L 169.606942 162.893168 
L 185.045677 157.829033 
L 200.484412 164.379908 
L 215.923147 164.016154 
L 231.361882 163.283307 
L 246.800618 163.621236 
L 262.239353 162.697774 
L 277.678088 159.899639 
L 293.116823 161.164874 
L 308.555558 163.049742 
L 323.994293 161.474891 
L 339.433029 132.967433 
L 354.871764 127.874654 
L 370.310499 116.638289 
L 385.749234 122.72321 
L 401.187969 146.362188 
L 416.626705 153.009009 
" style="fill:none;stroke:#1b9e77;stroke-linecap:square;stroke-opacity:0.5;stroke-width:1.5;"/>
   </g>
   <g id="line2d_19">
    <path clip-path="url(#pef78466d0f)" d="M 61.535795 165.920743 
L 76.974531 165.432919 
L 92.413266 165.19565 
L 107.852001 165.31588 
L 123.290736 164.126521 
L 138.729471 165.245716 
L 154.168207 164.424464 
L 169.606942 162.537346 
L 185.045677 161.02773 
L 200.484412 158.883705 
L 215.923147 151.636305 
L 231.361882 159.166766 
L 246.800618 159.486594 
L 262.239353 158.401834 
L 277.678088 156.362397 
L 293.116823 156.65722 
L 308.555558 149.562145 
L 323.994293 123.968692 
L 339.433029 134.373362 
L 354.871764 147.474221 
L 370.310499 120.144037 
L 385.749234 158.063857 
L 401.187969 165.029233 
L 416.626705 161.834386 
" style="fill:none;stroke:#1b9e77;stroke-linecap:square;stroke-opacity:0.5;stroke-width:1.5;"/>
   </g>
   <g id="line2d_20">
    <path clip-path="url(#pef78466d0f)" d="M 61.535795 159.378155 
L 76.974531 153.419974 
L 92.413266 158.243388 
L 107.852001 162.302284 
L 123.290736 165.108098 
L 138.729471 165.498872 
L 154.168207 165.699862 
L 169.606942 165.611809 
L 185.045677 165.657377 
L 200.484412 165.691109 
L 215.923147 165.74654 
L 231.361882 165.81761 
L 246.800618 165.7796 
L 262.239353 165.290006 
L 277.678088 150.779387 
L 293.116823 150.851064 
L 308.555558 109.033019 
L 323.994293 140.336392 
L 339.433029 116.895231 
L 354.871764 132.935051 
L 370.310499 152.820349 
L 385.749234 165.561011 
L 401.187969 165.879167 
L 416.626705 165.936365 
" style="fill:none;stroke:#1b9e77;stroke-linecap:square;stroke-opacity:0.5;stroke-width:1.5;"/>
   </g>
   <g id="line2d_21">
    <path clip-path="url(#pef78466d0f)" d="M 61.535795 154.748976 
L 76.974531 161.568548 
L 92.413266 164.421776 
L 107.852001 163.905933 
L 123.290736 164.233851 
L 138.729471 164.714953 
L 154.168207 165.278464 
L 169.606942 165.610871 
L 185.045677 165.737184 
L 200.484412 165.716535 
L 215.923147 163.058926 
L 231.361882 161.350718 
L 246.800618 164.9554 
L 262.239353 165.336766 
L 277.678088 144.309606 
L 293.116823 106.897353 
L 308.555558 103.434193 
L 323.994293 130.848195 
L 339.433029 148.485924 
L 354.871764 158.049468 
L 370.310499 164.443526 
L 385.749234 161.288206 
L 401.187969 165.925673 
L 416.626705 165.950674 
" style="fill:none;stroke:#1b9e77;stroke-linecap:square;stroke-opacity:0.5;stroke-width:1.5;"/>
   </g>
   <g id="line2d_22">
    <path clip-path="url(#pef78466d0f)" d="M 61.535795 165.595776 
L 76.974531 164.814585 
L 92.413266 165.283326 
L 107.852001 165.55452 
L 123.290736 165.344206 
L 138.729471 165.278852 
L 154.168207 158.698839 
L 169.606942 154.606708 
L 185.045677 151.051901 
L 200.484412 150.362928 
L 215.923147 139.231261 
L 231.361882 134.367112 
L 246.800618 135.30348 
L 262.239353 124.6649 
L 277.678088 137.063963 
L 293.116823 146.248469 
L 308.555558 158.923833 
L 323.994293 164.462156 
L 339.433029 165.437132 
L 354.871764 165.048903 
L 370.310499 165.420274 
L 385.749234 165.723981 
L 401.187969 165.851868 
L 416.626705 165.932744 
" style="fill:none;stroke:#1b9e77;stroke-linecap:square;stroke-opacity:0.5;stroke-width:1.5;"/>
   </g>
   <g id="line2d_23">
    <path clip-path="url(#pef78466d0f)" d="M 61.535795 165.837986 
L 76.974531 165.686342 
L 92.413266 165.687572 
L 107.852001 165.347187 
L 123.290736 161.8584 
L 138.729471 160.491258 
L 154.168207 159.101738 
L 169.606942 163.893263 
L 185.045677 162.862997 
L 200.484412 162.31733 
L 215.923147 163.709695 
L 231.361882 156.489756 
L 246.800618 53.269562 
L 262.239353 160.073122 
L 277.678088 161.805199 
L 293.116823 125.140469 
L 308.555558 148.792532 
L 323.994293 164.938869 
L 339.433029 165.748541 
L 354.871764 165.650231 
L 370.310499 165.151902 
L 385.749234 159.557281 
L 401.187969 155.362693 
L 416.626705 161.497792 
" style="fill:none;stroke:#1b9e77;stroke-linecap:square;stroke-opacity:0.5;stroke-width:1.5;"/>
   </g>
   <g id="line2d_24">
    <path clip-path="url(#pef78466d0f)" d="M 61.535795 157.525809 
L 76.974531 162.399602 
L 92.413266 164.662782 
L 107.852001 164.61383 
L 123.290736 164.160343 
L 138.729471 163.641234 
L 154.168207 161.174562 
L 169.606942 164.015928 
L 185.045677 162.924987 
L 200.484412 162.229747 
L 215.923147 157.538919 
L 231.361882 140.111915 
L 246.800618 111.900332 
L 262.239353 55.647783 
L 277.678088 164.822834 
L 293.116823 162.15935 
L 308.555558 163.938856 
L 323.994293 164.34063 
L 339.433029 165.106332 
L 354.871764 165.529641 
L 370.310499 165.619955 
L 385.749234 165.515358 
L 401.187969 164.991752 
L 416.626705 165.699233 
" style="fill:none;stroke:#1b9e77;stroke-linecap:square;stroke-opacity:0.5;stroke-width:1.5;"/>
   </g>
   <g id="line2d_25">
    <path clip-path="url(#pef78466d0f)" d="M 61.535795 164.732883 
L 76.974531 163.621954 
L 92.413266 148.808261 
L 107.852001 148.221068 
L 123.290736 155.21439 
L 138.729471 145.928163 
L 154.168207 161.967984 
L 169.606942 165.434767 
L 185.045677 165.716444 
L 200.484412 165.394159 
L 215.923147 160.569684 
L 231.361882 160.596448 
L 246.800618 157.506552 
L 262.239353 161.485488 
L 277.678088 161.43483 
L 293.116823 162.506034 
L 308.555558 158.70565 
L 323.994293 128.678638 
L 339.433029 140.200663 
L 354.871764 121.63291 
L 370.310499 147.291993 
L 385.749234 163.009635 
L 401.187969 165.68689 
L 416.626705 165.926231 
" style="fill:none;stroke:#1b9e77;stroke-linecap:square;stroke-opacity:0.5;stroke-width:1.5;"/>
   </g>
   <g id="line2d_26">
    <path clip-path="url(#pef78466d0f)" d="M 61.535795 165.659738 
L 76.974531 165.196152 
L 92.413266 165.364655 
L 107.852001 165.059677 
L 123.290736 164.649627 
L 138.729471 165.656072 
L 154.168207 165.772823 
L 169.606942 165.867887 
L 185.045677 161.799901 
L 200.484412 162.050923 
L 215.923147 156.103113 
L 231.361882 162.406741 
L 246.800618 153.561659 
L 262.239353 157.625062 
L 277.678088 159.107232 
L 293.116823 156.152202 
L 308.555558 150.431445 
L 323.994293 147.026471 
L 339.433029 156.716175 
L 354.871764 151.71308 
L 370.310499 92.158987 
L 385.749234 123.732168 
L 401.187969 165.567287 
L 416.626705 160.892654 
" style="fill:none;stroke:#1b9e77;stroke-linecap:square;stroke-opacity:0.5;stroke-width:1.5;"/>
   </g>
   <g id="line2d_27">
    <path clip-path="url(#pef78466d0f)" d="M 61.535795 158.642205 
L 76.974531 149.627308 
L 92.413266 151.44031 
L 107.852001 163.814735 
L 123.290736 165.110205 
L 138.729471 163.801278 
L 154.168207 146.266971 
L 169.606942 133.798377 
L 185.045677 149.435123 
L 200.484412 160.923211 
L 215.923147 163.994734 
L 231.361882 163.185474 
L 246.800618 164.109004 
L 262.239353 165.127448 
L 277.678088 165.528199 
L 293.116823 165.475375 
L 308.555558 165.452891 
L 323.994293 165.703025 
L 339.433029 164.366082 
L 354.871764 162.531219 
L 370.310499 153.012621 
L 385.749234 134.596812 
L 401.187969 114.507766 
L 416.626705 149.821341 
" style="fill:none;stroke:#1b9e77;stroke-linecap:square;stroke-opacity:0.5;stroke-width:1.5;"/>
   </g>
   <g id="line2d_28">
    <path clip-path="url(#pef78466d0f)" d="M 61.535795 165.953439 
L 76.974531 165.930688 
L 92.413266 165.930014 
L 107.852001 165.906398 
L 123.290736 165.897953 
L 138.729471 165.927626 
L 154.168207 165.938503 
L 169.606942 162.322453 
L 185.045677 158.727882 
L 200.484412 158.68448 
L 215.923147 158.891648 
L 231.361882 160.82017 
L 246.800618 161.801 
L 262.239353 159.654276 
L 277.678088 154.652031 
L 293.116823 154.367254 
L 308.555558 158.785381 
L 323.994293 141.835566 
L 339.433029 106.507576 
L 354.871764 146.970338 
L 370.310499 155.205623 
L 385.749234 150.492654 
L 401.187969 146.869025 
L 416.626705 142.199739 
" style="fill:none;stroke:#1b9e77;stroke-linecap:square;stroke-opacity:0.5;stroke-width:1.5;"/>
   </g>
   <g id="line2d_29">
    <path clip-path="url(#pef78466d0f)" d="M 61.535795 164.279559 
L 76.974531 160.231763 
L 92.413266 162.098482 
L 107.852001 163.638652 
L 123.290736 155.189895 
L 138.729471 165.122322 
L 154.168207 164.788034 
L 169.606942 162.859029 
L 185.045677 158.167524 
L 200.484412 161.101251 
L 215.923147 150.403538 
L 231.361882 141.168899 
L 246.800618 161.402718 
L 262.239353 157.201492 
L 277.678088 151.094409 
L 293.116823 141.892971 
L 308.555558 148.987447 
L 323.994293 142.19378 
L 339.433029 146.730139 
L 354.871764 153.187044 
L 370.310499 153.126027 
L 385.749234 154.264199 
L 401.187969 159.084993 
L 416.626705 162.057555 
" style="fill:none;stroke:#1b9e77;stroke-linecap:square;stroke-opacity:0.5;stroke-width:1.5;"/>
   </g>
   <g id="line2d_30">
    <path clip-path="url(#pef78466d0f)" d="M 61.535795 165.260839 
L 76.974531 165.883199 
L 92.413266 165.88179 
L 107.852001 131.235532 
L 123.290736 97.437415 
L 138.729471 164.875139 
L 154.168207 165.878522 
L 169.606942 165.851308 
L 185.045677 165.648444 
L 200.484412 153.294656 
L 215.923147 162.735943 
L 231.361882 165.543408 
L 246.800618 165.728726 
L 262.239353 165.528612 
L 277.678088 163.620669 
L 293.116823 157.970838 
L 308.555558 134.331744 
L 323.994293 165.188028 
L 339.433029 164.591606 
L 354.871764 139.925366 
L 370.310499 147.142066 
L 385.749234 151.73026 
L 401.187969 149.221821 
L 416.626705 165.765788 
" style="fill:none;stroke:#1b9e77;stroke-linecap:square;stroke-opacity:0.5;stroke-width:1.5;"/>
   </g>
   <g id="line2d_31">
    <path clip-path="url(#pef78466d0f)" d="M 61.535795 161.521337 
L 76.974531 161.549285 
L 92.413266 164.807125 
L 107.852001 165.007265 
L 123.290736 165.142006 
L 138.729471 164.835531 
L 154.168207 164.329125 
L 169.606942 165.051087 
L 185.045677 165.349815 
L 200.484412 165.684728 
L 215.923147 165.384351 
L 231.361882 159.271641 
L 246.800618 122.34899 
L 262.239353 159.217907 
L 277.678088 161.760044 
L 293.116823 161.327372 
L 308.555558 162.329102 
L 323.994293 161.559272 
L 339.433029 159.668538 
L 354.871764 159.982326 
L 370.310499 162.80919 
L 385.749234 112.631831 
L 401.187969 113.85724 
L 416.626705 134.846612 
" style="fill:none;stroke:#1b9e77;stroke-linecap:square;stroke-opacity:0.5;stroke-width:1.5;"/>
   </g>
   <g id="line2d_32">
    <path clip-path="url(#pef78466d0f)" d="M 61.535795 161.791872 
L 76.974531 161.056748 
L 92.413266 162.801999 
L 107.852001 164.179287 
L 123.290736 164.430857 
L 138.729471 163.857237 
L 154.168207 157.03114 
L 169.606942 131.70288 
L 185.045677 102.679132 
L 200.484412 123.424393 
L 215.923147 150.756512 
L 231.361882 149.864199 
L 246.800618 145.221773 
L 262.239353 151.208141 
L 277.678088 159.664456 
L 293.116823 163.877422 
L 308.555558 165.510579 
L 323.994293 165.753731 
L 339.433029 165.855193 
L 354.871764 165.86232 
L 370.310499 165.896558 
L 385.749234 165.936374 
L 401.187969 165.949594 
L 416.626705 165.959318 
" style="fill:none;stroke:#1b9e77;stroke-linecap:square;stroke-opacity:0.5;stroke-width:1.5;"/>
   </g>
   <g id="line2d_33">
    <path clip-path="url(#pef78466d0f)" d="M 61.535795 165.902748 
L 76.974531 165.850602 
L 92.413266 165.898117 
L 107.852001 165.829367 
L 123.290736 165.806467 
L 138.729471 165.832116 
L 154.168207 165.827391 
L 169.606942 165.641879 
L 185.045677 164.190582 
L 200.484412 160.008492 
L 215.923147 112.860878 
L 231.361882 161.089866 
L 246.800618 145.345686 
L 262.239353 121.934945 
L 277.678088 156.138872 
L 293.116823 87.98777 
L 308.555558 150.198312 
L 323.994293 164.088759 
L 339.433029 165.18127 
L 354.871764 163.411605 
L 370.310499 164.065493 
L 385.749234 165.47645 
L 401.187969 165.78197 
L 416.626705 165.922086 
" style="fill:none;stroke:#1b9e77;stroke-linecap:square;stroke-opacity:0.5;stroke-width:1.5;"/>
   </g>
   <g id="line2d_34">
    <path clip-path="url(#pef78466d0f)" d="M 61.535795 45.424119 
L 76.974531 157.698249 
L 92.413266 137.4683 
L 107.852001 149.047449 
L 123.290736 165.031619 
L 138.729471 163.973531 
L 154.168207 135.939397 
L 169.606942 164.815225 
L 185.045677 165.83269 
L 200.484412 165.620876 
L 215.923147 164.61751 
L 231.361882 164.660597 
L 246.800618 165.777592 
L 262.239353 165.870056 
L 277.678088 165.861647 
L 293.116823 165.592334 
L 308.555558 159.482068 
L 323.994293 163.7441 
L 339.433029 165.818516 
L 354.871764 165.87849 
L 370.310499 165.379885 
L 385.749234 162.947141 
L 401.187969 150.223724 
L 416.626705 163.566606 
" style="fill:none;stroke:#1b9e77;stroke-linecap:square;stroke-opacity:0.5;stroke-width:1.5;"/>
   </g>
   <g id="line2d_35">
    <path clip-path="url(#pef78466d0f)" d="M 61.535795 146.955491 
L 76.974531 75.275829 
L 92.413266 108.254893 
L 107.852001 135.932982 
L 123.290736 154.324436 
L 138.729471 160.247533 
L 154.168207 162.902968 
L 169.606942 162.998392 
L 185.045677 163.887776 
L 200.484412 164.168374 
L 215.923147 164.653832 
L 231.361882 164.644805 
L 246.800618 165.020677 
L 262.239353 165.37347 
L 277.678088 165.493073 
L 293.116823 165.363653 
L 308.555558 165.590749 
L 323.994293 165.847039 
L 339.433029 165.626524 
L 354.871764 163.730699 
L 370.310499 163.615831 
L 385.749234 163.597559 
L 401.187969 162.624994 
L 416.626705 164.140142 
" style="fill:none;stroke:#1b9e77;stroke-linecap:square;stroke-opacity:0.5;stroke-width:1.5;"/>
   </g>
   <g id="line2d_36">
    <path clip-path="url(#pef78466d0f)" d="M 61.535795 131.945048 
L 76.974531 156.162869 
L 92.413266 165.103684 
L 107.852001 165.780689 
L 123.290736 165.14869 
L 138.729471 155.97315 
L 154.168207 158.19111 
L 169.606942 155.523983 
L 185.045677 160.613442 
L 200.484412 159.5853 
L 215.923147 164.30615 
L 231.361882 154.364835 
L 246.800618 27.452017 
L 262.239353 164.253585 
L 277.678088 165.511284 
L 293.116823 165.008742 
L 308.555558 164.92573 
L 323.994293 165.411977 
L 339.433029 165.713656 
L 354.871764 165.750751 
L 370.310499 165.806197 
L 385.749234 165.874363 
L 401.187969 165.911106 
L 416.626705 165.953359 
" style="fill:none;stroke:#1b9e77;stroke-linecap:square;stroke-opacity:0.5;stroke-width:1.5;"/>
   </g>
   <g id="line2d_37">
    <path clip-path="url(#pef78466d0f)" d="M 61.535795 161.538608 
L 76.974531 162.765773 
L 92.413266 164.902776 
L 107.852001 164.877321 
L 123.290736 165.072078 
L 138.729471 165.1739 
L 154.168207 165.365844 
L 169.606942 165.435121 
L 185.045677 165.517738 
L 200.484412 165.486536 
L 215.923147 165.454026 
L 231.361882 165.553812 
L 246.800618 165.640474 
L 262.239353 165.71478 
L 277.678088 165.615157 
L 293.116823 165.634312 
L 308.555558 165.108639 
L 323.994293 160.336218 
L 339.433029 129.061019 
L 354.871764 137.262664 
L 370.310499 103.040306 
L 385.749234 125.45179 
L 401.187969 124.404959 
L 416.626705 155.857867 
" style="fill:none;stroke:#1b9e77;stroke-linecap:square;stroke-opacity:0.5;stroke-width:1.5;"/>
   </g>
   <g id="line2d_38">
    <path clip-path="url(#pef78466d0f)" d="M 61.535795 165.948047 
L 76.974531 165.957328 
L 92.413266 165.956541 
L 107.852001 165.782497 
L 123.290736 165.709331 
L 138.729471 165.600101 
L 154.168207 165.386736 
L 169.606942 165.431723 
L 185.045677 165.208179 
L 200.484412 164.740894 
L 215.923147 163.489835 
L 231.361882 159.751237 
L 246.800618 145.955536 
L 262.239353 144.981174 
L 277.678088 158.484213 
L 293.116823 158.886685 
L 308.555558 76.120817 
L 323.994293 112.531494 
L 339.433029 145.240883 
L 354.871764 163.137665 
L 370.310499 165.667358 
L 385.749234 163.619735 
L 401.187969 165.913759 
L 416.626705 160.769945 
" style="fill:none;stroke:#1b9e77;stroke-linecap:square;stroke-opacity:0.5;stroke-width:1.5;"/>
   </g>
   <g id="line2d_39">
    <path clip-path="url(#pef78466d0f)" d="M 61.535795 153.835298 
L 76.974531 163.907402 
L 92.413266 162.761616 
L 107.852001 151.647715 
L 123.290736 152.958346 
L 138.729471 138.656574 
L 154.168207 123.422785 
L 169.606942 143.55249 
L 185.045677 148.835906 
L 200.484412 135.348038 
L 215.923147 150.299898 
L 231.361882 153.420384 
L 246.800618 157.491187 
L 262.239353 158.402006 
L 277.678088 163.267354 
L 293.116823 155.787762 
L 308.555558 165.118624 
L 323.994293 165.915074 
L 339.433029 165.937968 
L 354.871764 165.929526 
L 370.310499 165.934125 
L 385.749234 165.936261 
L 401.187969 165.946514 
L 416.626705 165.958875 
" style="fill:none;stroke:#1b9e77;stroke-linecap:square;stroke-opacity:0.5;stroke-width:1.5;"/>
   </g>
   <g id="line2d_40">
    <path clip-path="url(#pef78466d0f)" d="M 61.535795 161.254148 
L 76.974531 162.385761 
L 92.413266 160.931821 
L 107.852001 156.733861 
L 123.290736 157.683174 
L 138.729471 157.49895 
L 154.168207 162.950498 
L 169.606942 158.609751 
L 185.045677 156.860553 
L 200.484412 159.762577 
L 215.923147 157.058842 
L 231.361882 146.977578 
L 246.800618 153.351345 
L 262.239353 150.689259 
L 277.678088 157.77484 
L 293.116823 157.34776 
L 308.555558 157.61887 
L 323.994293 163.517141 
L 339.433029 165.292289 
L 354.871764 165.570963 
L 370.310499 164.926073 
L 385.749234 150.719891 
L 401.187969 101.169418 
L 416.626705 153.586352 
" style="fill:none;stroke:#1b9e77;stroke-linecap:square;stroke-opacity:0.5;stroke-width:1.5;"/>
   </g>
   <g id="line2d_41">
    <path clip-path="url(#pef78466d0f)" d="M 61.535795 155.750082 
L 76.974531 159.071311 
L 92.413266 165.116463 
L 107.852001 165.022154 
L 123.290736 165.437749 
L 138.729471 165.626965 
L 154.168207 165.666187 
L 169.606942 164.732839 
L 185.045677 163.076886 
L 200.484412 165.459104 
L 215.923147 165.493485 
L 231.361882 165.731689 
L 246.800618 165.799666 
L 262.239353 165.744125 
L 277.678088 164.240026 
L 293.116823 160.028886 
L 308.555558 156.934881 
L 323.994293 164.741987 
L 339.433029 158.561528 
L 354.871764 141.074037 
L 370.310499 145.057533 
L 385.749234 149.844371 
L 401.187969 129.377438 
L 416.626705 72.682326 
" style="fill:none;stroke:#1b9e77;stroke-linecap:square;stroke-opacity:0.5;stroke-width:1.5;"/>
   </g>
   <g id="line2d_42">
    <path clip-path="url(#pef78466d0f)" d="M 61.535795 165.411529 
L 76.974531 164.968922 
L 92.413266 165.335905 
L 107.852001 165.155979 
L 123.290736 164.741473 
L 138.729471 165.115297 
L 154.168207 159.688945 
L 169.606942 162.173251 
L 185.045677 156.229693 
L 200.484412 120.34845 
L 215.923147 108.033118 
L 231.361882 114.289799 
L 246.800618 135.631989 
L 262.239353 163.537732 
L 277.678088 164.903691 
L 293.116823 163.579829 
L 308.555558 164.059893 
L 323.994293 165.235666 
L 339.433029 165.580828 
L 354.871764 165.719458 
L 370.310499 165.582826 
L 385.749234 161.803644 
L 401.187969 149.837607 
L 416.626705 163.306197 
" style="fill:none;stroke:#1b9e77;stroke-linecap:square;stroke-opacity:0.5;stroke-width:1.5;"/>
   </g>
   <g id="line2d_43">
    <path clip-path="url(#pef78466d0f)" d="M 61.535795 165.179681 
L 76.974531 163.423168 
L 92.413266 161.958551 
L 107.852001 158.695534 
L 123.290736 145.987639 
L 138.729471 124.628475 
L 154.168207 131.958141 
L 169.606942 129.851685 
L 185.045677 129.70233 
L 200.484412 147.254043 
L 215.923147 163.220801 
L 231.361882 164.392108 
L 246.800618 165.178159 
L 262.239353 164.924522 
L 277.678088 164.941228 
L 293.116823 165.042659 
L 308.555558 165.272383 
L 323.994293 165.620278 
L 339.433029 165.614582 
L 354.871764 162.068954 
L 370.310499 139.596223 
L 385.749234 164.213959 
L 401.187969 165.690248 
L 416.626705 165.856368 
" style="fill:none;stroke:#1b9e77;stroke-linecap:square;stroke-opacity:0.5;stroke-width:1.5;"/>
   </g>
   <g id="line2d_44">
    <path clip-path="url(#pef78466d0f)" d="M 61.535795 160.611077 
L 76.974531 163.951179 
L 92.413266 165.109598 
L 107.852001 160.492144 
L 123.290736 158.873556 
L 138.729471 164.915198 
L 154.168207 165.610116 
L 169.606942 165.242287 
L 185.045677 165.060654 
L 200.484412 165.469324 
L 215.923147 165.646029 
L 231.361882 165.813696 
L 246.800618 165.301754 
L 262.239353 161.742176 
L 277.678088 156.956581 
L 293.116823 156.644835 
L 308.555558 139.795888 
L 323.994293 150.174866 
L 339.433029 160.386471 
L 354.871764 159.097739 
L 370.310499 120.160094 
L 385.749234 144.797259 
L 401.187969 154.291828 
L 416.626705 104.127374 
" style="fill:none;stroke:#1b9e77;stroke-linecap:square;stroke-opacity:0.5;stroke-width:1.5;"/>
   </g>
   <g id="line2d_45">
    <path clip-path="url(#pef78466d0f)" d="M 61.535795 158.702964 
L 76.974531 159.682965 
L 92.413266 165.677276 
L 107.852001 165.90447 
L 123.290736 165.940587 
L 138.729471 162.753269 
L 154.168207 164.100427 
L 169.606942 162.238296 
L 185.045677 155.094669 
L 200.484412 155.02773 
L 215.923147 160.13062 
L 231.361882 165.296632 
L 246.800618 128.316139 
L 262.239353 164.32753 
L 277.678088 165.729291 
L 293.116823 165.639956 
L 308.555558 164.394371 
L 323.994293 156.725834 
L 339.433029 163.736155 
L 354.871764 165.551392 
L 370.310499 164.688707 
L 385.749234 133.344357 
L 401.187969 86.012919 
L 416.626705 141.255167 
" style="fill:none;stroke:#1b9e77;stroke-linecap:square;stroke-opacity:0.5;stroke-width:1.5;"/>
   </g>
   <g id="line2d_46">
    <path clip-path="url(#pef78466d0f)" d="M 61.535795 165.897292 
L 76.974531 165.900843 
L 92.413266 165.830453 
L 107.852001 164.735524 
L 123.290736 163.159403 
L 138.729471 163.316588 
L 154.168207 160.12665 
L 169.606942 157.258128 
L 185.045677 159.30603 
L 200.484412 152.731953 
L 215.923147 145.007934 
L 231.361882 87.076396 
L 246.800618 129.645872 
L 262.239353 138.427659 
L 277.678088 163.219164 
L 293.116823 164.613578 
L 308.555558 165.261872 
L 323.994293 165.41382 
L 339.433029 165.60439 
L 354.871764 165.59101 
L 370.310499 165.655426 
L 385.749234 165.875411 
L 401.187969 165.815268 
L 416.626705 134.801056 
" style="fill:none;stroke:#1b9e77;stroke-linecap:square;stroke-opacity:0.5;stroke-width:1.5;"/>
   </g>
   <g id="line2d_47">
    <path clip-path="url(#pef78466d0f)" d="M 61.535795 160.282208 
L 76.974531 128.771226 
L 92.413266 117.109335 
L 107.852001 146.254839 
L 123.290736 162.230281 
L 138.729471 89.293969 
L 154.168207 132.642364 
L 169.606942 161.601095 
L 185.045677 165.135447 
L 200.484412 165.224011 
L 215.923147 165.470848 
L 231.361882 165.549662 
L 246.800618 165.642741 
L 262.239353 165.559514 
L 277.678088 165.213909 
L 293.116823 164.88189 
L 308.555558 163.615234 
L 323.994293 164.467639 
L 339.433029 164.778043 
L 354.871764 164.641861 
L 370.310499 164.956484 
L 385.749234 165.394058 
L 401.187969 165.648515 
L 416.626705 165.906549 
" style="fill:none;stroke:#1b9e77;stroke-linecap:square;stroke-opacity:0.5;stroke-width:1.5;"/>
   </g>
   <g id="line2d_48">
    <path clip-path="url(#pef78466d0f)" d="M 61.535795 145.138839 
L 76.974531 158.970816 
L 92.413266 156.991326 
L 107.852001 142.066079 
L 123.290736 163.06603 
L 138.729471 165.350897 
L 154.168207 165.686696 
L 169.606942 165.757813 
L 185.045677 165.753303 
L 200.484412 165.654885 
L 215.923147 164.456396 
L 231.361882 165.5939 
L 246.800618 157.569417 
L 262.239353 155.12109 
L 277.678088 156.059009 
L 293.116823 151.791492 
L 308.555558 128.676516 
L 323.994293 129.617011 
L 339.433029 143.813271 
L 354.871764 157.291746 
L 370.310499 149.598509 
L 385.749234 160.397038 
L 401.187969 162.265814 
L 416.626705 163.583822 
" style="fill:none;stroke:#1b9e77;stroke-linecap:square;stroke-opacity:0.5;stroke-width:1.5;"/>
   </g>
   <g id="line2d_49">
    <path clip-path="url(#pef78466d0f)" d="M 61.535795 164.667252 
L 76.974531 165.354937 
L 92.413266 165.746062 
L 107.852001 165.723776 
L 123.290736 165.805415 
L 138.729471 165.876403 
L 154.168207 165.900854 
L 169.606942 165.897167 
L 185.045677 165.866648 
L 200.484412 165.580842 
L 215.923147 157.130625 
L 231.361882 165.300279 
L 246.800618 164.440789 
L 262.239353 143.196873 
L 277.678088 138.433385 
L 293.116823 76.681226 
L 308.555558 135.088078 
L 323.994293 158.498352 
L 339.433029 157.371964 
L 354.871764 143.959325 
L 370.310499 148.379875 
L 385.749234 163.956775 
L 401.187969 165.525449 
L 416.626705 165.889362 
" style="fill:none;stroke:#1b9e77;stroke-linecap:square;stroke-opacity:0.5;stroke-width:1.5;"/>
   </g>
   <g id="line2d_50">
    <path clip-path="url(#pef78466d0f)" d="M 61.535795 165.90896 
L 76.974531 165.828413 
L 92.413266 165.885156 
L 107.852001 165.861241 
L 123.290736 165.809329 
L 138.729471 165.924652 
L 154.168207 165.802023 
L 169.606942 164.644912 
L 185.045677 160.679378 
L 200.484412 164.653232 
L 215.923147 162.216019 
L 231.361882 161.184599 
L 246.800618 159.929491 
L 262.239353 160.079429 
L 277.678088 161.442231 
L 293.116823 160.541029 
L 308.555558 153.642061 
L 323.994293 103.878483 
L 339.433029 90.96443 
L 354.871764 147.341678 
L 370.310499 149.606668 
L 385.749234 148.137374 
L 401.187969 164.485407 
L 416.626705 165.825526 
" style="fill:none;stroke:#1b9e77;stroke-linecap:square;stroke-opacity:0.5;stroke-width:1.5;"/>
   </g>
   <g id="line2d_51">
    <path clip-path="url(#pef78466d0f)" d="M 61.535795 165.936449 
L 76.974531 165.763746 
L 92.413266 165.453726 
L 107.852001 164.519531 
L 123.290736 165.29881 
L 138.729471 165.836018 
L 154.168207 165.832967 
L 169.606942 158.309069 
L 185.045677 158.720851 
L 200.484412 158.435532 
L 215.923147 150.426035 
L 231.361882 152.593471 
L 246.800618 160.482466 
L 262.239353 161.9336 
L 277.678088 156.782143 
L 293.116823 154.185656 
L 308.555558 152.778911 
L 323.994293 149.769842 
L 339.433029 141.135384 
L 354.871764 141.706469 
L 370.310499 124.329827 
L 385.749234 155.187898 
L 401.187969 158.947404 
L 416.626705 145.905915 
" style="fill:none;stroke:#1b9e77;stroke-linecap:square;stroke-opacity:0.5;stroke-width:1.5;"/>
   </g>
   <g id="line2d_52">
    <path clip-path="url(#pef78466d0f)" d="M 61.535795 72.773656 
L 76.974531 164.107722 
L 92.413266 156.031462 
L 107.852001 135.67194 
L 123.290736 162.024757 
L 138.729471 165.817478 
L 154.168207 165.660012 
L 169.606942 165.767063 
L 185.045677 165.284172 
L 200.484412 165.681979 
L 215.923147 165.734071 
L 231.361882 165.687093 
L 246.800618 161.358986 
L 262.239353 163.801375 
L 277.678088 152.96633 
L 293.116823 160.688157 
L 308.555558 159.865228 
L 323.994293 157.053336 
L 339.433029 163.527008 
L 354.871764 161.14421 
L 370.310499 150.022496 
L 385.749234 161.110816 
L 401.187969 161.272651 
L 416.626705 137.219722 
" style="fill:none;stroke:#1b9e77;stroke-linecap:square;stroke-opacity:0.5;stroke-width:1.5;"/>
   </g>
   <g id="line2d_53">
    <path clip-path="url(#pef78466d0f)" d="M 61.535795 120.882484 
L 76.974531 140.439253 
L 92.413266 156.913188 
L 107.852001 156.357294 
L 123.290736 158.10063 
L 138.729471 160.245289 
L 154.168207 161.866185 
L 169.606942 162.580586 
L 185.045677 162.919992 
L 200.484412 161.82589 
L 215.923147 160.678467 
L 231.361882 161.954647 
L 246.800618 162.553237 
L 262.239353 162.55346 
L 277.678088 155.975262 
L 293.116823 130.961913 
L 308.555558 140.572562 
L 323.994293 160.720125 
L 339.433029 160.333683 
L 354.871764 148.327391 
L 370.310499 157.548066 
L 385.749234 164.120074 
L 401.187969 165.895023 
L 416.626705 165.947021 
" style="fill:none;stroke:#1b9e77;stroke-linecap:square;stroke-opacity:0.5;stroke-width:1.5;"/>
   </g>
   <g id="line2d_54">
    <path clip-path="url(#pef78466d0f)" d="M 61.535795 164.913313 
L 76.974531 163.414454 
L 92.413266 161.496423 
L 107.852001 156.713258 
L 123.290736 157.101417 
L 138.729471 128.471369 
L 154.168207 68.757934 
L 169.606942 125.479688 
L 185.045677 161.934105 
L 200.484412 164.40406 
L 215.923147 165.307841 
L 231.361882 165.378552 
L 246.800618 165.571743 
L 262.239353 165.716623 
L 277.678088 165.45893 
L 293.116823 163.89934 
L 308.555558 160.526721 
L 323.994293 164.551777 
L 339.433029 164.329108 
L 354.871764 163.11735 
L 370.310499 162.871608 
L 385.749234 161.15249 
L 401.187969 156.12331 
L 416.626705 163.580307 
" style="fill:none;stroke:#1b9e77;stroke-linecap:square;stroke-opacity:0.5;stroke-width:1.5;"/>
   </g>
   <g id="line2d_55">
    <path clip-path="url(#pef78466d0f)" d="M 61.535795 163.823357 
L 76.974531 164.774535 
L 92.413266 163.510364 
L 107.852001 154.729102 
L 123.290736 159.295813 
L 138.729471 160.132157 
L 154.168207 157.801898 
L 169.606942 159.386677 
L 185.045677 141.258749 
L 200.484412 69.512924 
L 215.923147 163.264641 
L 231.361882 165.759907 
L 246.800618 160.686381 
L 262.239353 162.485538 
L 277.678088 162.344599 
L 293.116823 161.017763 
L 308.555558 160.030817 
L 323.994293 160.953263 
L 339.433029 161.474881 
L 354.871764 160.542552 
L 370.310499 158.685488 
L 385.749234 154.966943 
L 401.187969 153.011384 
L 416.626705 160.82199 
" style="fill:none;stroke:#1b9e77;stroke-linecap:square;stroke-opacity:0.5;stroke-width:1.5;"/>
   </g>
   <g id="line2d_56">
    <path clip-path="url(#pef78466d0f)" d="M 61.535795 140.68293 
L 76.974531 164.267428 
L 92.413266 163.145475 
L 107.852001 163.743998 
L 123.290736 162.745334 
L 138.729471 163.422953 
L 154.168207 160.966534 
L 169.606942 159.872552 
L 185.045677 161.964098 
L 200.484412 163.999364 
L 215.923147 163.696686 
L 231.361882 156.181511 
L 246.800618 146.355937 
L 262.239353 164.830571 
L 277.678088 164.240884 
L 293.116823 149.839411 
L 308.555558 111.799107 
L 323.994293 98.064005 
L 339.433029 165.021279 
L 354.871764 164.47396 
L 370.310499 162.983332 
L 385.749234 158.540883 
L 401.187969 163.505253 
L 416.626705 165.928237 
" style="fill:none;stroke:#1b9e77;stroke-linecap:square;stroke-opacity:0.5;stroke-width:1.5;"/>
   </g>
   <g id="line2d_57">
    <path clip-path="url(#pef78466d0f)" d="M 61.535795 164.857691 
L 76.974531 136.231855 
L 92.413266 108.046711 
L 107.852001 163.660083 
L 123.290736 163.901184 
L 138.729471 138.707468 
L 154.168207 132.960697 
L 169.606942 143.873935 
L 185.045677 153.382449 
L 200.484412 164.232195 
L 215.923147 156.026634 
L 231.361882 144.026321 
L 246.800618 147.548291 
L 262.239353 165.535593 
L 277.678088 165.805374 
L 293.116823 165.391395 
L 308.555558 164.561334 
L 323.994293 165.833392 
L 339.433029 165.933764 
L 354.871764 165.942076 
L 370.310499 165.946752 
L 385.749234 165.952486 
L 401.187969 165.954035 
L 416.626705 165.96 
" style="fill:none;stroke:#1b9e77;stroke-linecap:square;stroke-opacity:0.5;stroke-width:1.5;"/>
   </g>
   <g id="line2d_58">
    <path clip-path="url(#pef78466d0f)" d="M 61.535795 165.855512 
L 76.974531 165.904767 
L 92.413266 165.881664 
L 107.852001 165.626682 
L 123.290736 164.518698 
L 138.729471 164.345673 
L 154.168207 164.223718 
L 169.606942 163.859795 
L 185.045677 163.742446 
L 200.484412 163.316902 
L 215.923147 162.733592 
L 231.361882 162.703945 
L 246.800618 160.923721 
L 262.239353 157.899108 
L 277.678088 158.052586 
L 293.116823 159.717476 
L 308.555558 160.634614 
L 323.994293 157.828103 
L 339.433029 133.655548 
L 354.871764 108.485597 
L 370.310499 139.181888 
L 385.749234 144.132952 
L 401.187969 143.185796 
L 416.626705 143.860934 
" style="fill:none;stroke:#1b9e77;stroke-linecap:square;stroke-opacity:0.5;stroke-width:1.5;"/>
   </g>
   <g id="line2d_59">
    <path clip-path="url(#pef78466d0f)" d="M 61.535795 164.949817 
L 76.974531 165.263623 
L 92.413266 165.690277 
L 107.852001 165.633898 
L 123.290736 165.656519 
L 138.729471 165.733217 
L 154.168207 165.817877 
L 169.606942 165.883281 
L 185.045677 165.917345 
L 200.484412 165.933175 
L 215.923147 165.407808 
L 231.361882 163.609002 
L 246.800618 160.524441 
L 262.239353 156.385478 
L 277.678088 108.138647 
L 293.116823 131.067223 
L 308.555558 162.549647 
L 323.994293 100.32706 
L 339.433029 126.471253 
L 354.871764 157.494258 
L 370.310499 163.58527 
L 385.749234 160.107739 
L 401.187969 162.350176 
L 416.626705 165.774693 
" style="fill:none;stroke:#1b9e77;stroke-linecap:square;stroke-opacity:0.5;stroke-width:1.5;"/>
   </g>
   <g id="line2d_60">
    <path clip-path="url(#pef78466d0f)" d="M 61.535795 164.976827 
L 76.974531 165.769419 
L 92.413266 165.90765 
L 107.852001 165.903849 
L 123.290736 165.858154 
L 138.729471 165.847251 
L 154.168207 165.895652 
L 169.606942 165.939095 
L 185.045677 165.941619 
L 200.484412 153.445995 
L 215.923147 116.640908 
L 231.361882 159.284047 
L 246.800618 165.585523 
L 262.239353 165.013954 
L 277.678088 153.252466 
L 293.116823 91.012013 
L 308.555558 122.594855 
L 323.994293 161.120594 
L 339.433029 164.198543 
L 354.871764 157.883237 
L 370.310499 150.551265 
L 385.749234 157.255791 
L 401.187969 164.491319 
L 416.626705 165.901688 
" style="fill:none;stroke:#1b9e77;stroke-linecap:square;stroke-opacity:0.5;stroke-width:1.5;"/>
   </g>
   <g id="line2d_61">
    <path clip-path="url(#pef78466d0f)" d="M 61.535795 164.512907 
L 76.974531 163.071733 
L 92.413266 152.877233 
L 107.852001 105.577216 
L 123.290736 151.582959 
L 138.729471 165.190643 
L 154.168207 165.327989 
L 169.606942 158.888325 
L 185.045677 164.595874 
L 200.484412 165.84548 
L 215.923147 165.847816 
L 231.361882 151.438065 
L 246.800618 156.485512 
L 262.239353 162.130062 
L 277.678088 161.319142 
L 293.116823 161.389564 
L 308.555558 160.35549 
L 323.994293 141.422344 
L 339.433029 122.624273 
L 354.871764 147.432053 
L 370.310499 158.327715 
L 385.749234 163.859052 
L 401.187969 165.301998 
L 416.626705 164.868264 
" style="fill:none;stroke:#1b9e77;stroke-linecap:square;stroke-opacity:0.5;stroke-width:1.5;"/>
   </g>
   <g id="line2d_62">
    <path clip-path="url(#pef78466d0f)" d="M 61.535795 165.42352 
L 76.974531 165.655093 
L 92.413266 165.813045 
L 107.852001 165.741268 
L 123.290736 165.669213 
L 138.729471 165.776713 
L 154.168207 165.869036 
L 169.606942 165.896979 
L 185.045677 165.895026 
L 200.484412 165.242053 
L 215.923147 151.918236 
L 231.361882 161.175434 
L 246.800618 163.946705 
L 262.239353 162.477931 
L 277.678088 153.56707 
L 293.116823 119.194045 
L 308.555558 107.092802 
L 323.994293 164.117587 
L 339.433029 165.701192 
L 354.871764 152.018805 
L 370.310499 103.793788 
L 385.749234 148.337243 
L 401.187969 164.840995 
L 416.626705 165.107933 
" style="fill:none;stroke:#1b9e77;stroke-linecap:square;stroke-opacity:0.5;stroke-width:1.5;"/>
   </g>
   <g id="line2d_63">
    <path clip-path="url(#pef78466d0f)" d="M 61.535795 165.95076 
L 76.974531 165.915583 
L 92.413266 165.902978 
L 107.852001 165.923282 
L 123.290736 165.909204 
L 138.729471 165.495392 
L 154.168207 151.024791 
L 169.606942 162.712819 
L 185.045677 148.738421 
L 200.484412 155.230519 
L 215.923147 157.425875 
L 231.361882 157.033771 
L 246.800618 125.202664 
L 262.239353 104.825849 
L 277.678088 133.889672 
L 293.116823 146.74331 
L 308.555558 141.956073 
L 323.994293 165.153516 
L 339.433029 165.725435 
L 354.871764 165.824929 
L 370.310499 165.875748 
L 385.749234 165.914078 
L 401.187969 165.93908 
L 416.626705 165.95797 
" style="fill:none;stroke:#1b9e77;stroke-linecap:square;stroke-opacity:0.5;stroke-width:1.5;"/>
   </g>
   <g id="line2d_64">
    <path clip-path="url(#pef78466d0f)" d="M 61.535795 165.224685 
L 76.974531 165.196993 
L 92.413266 165.651191 
L 107.852001 165.675332 
L 123.290736 165.725533 
L 138.729471 165.734782 
L 154.168207 165.722919 
L 169.606942 165.899626 
L 185.045677 165.943566 
L 200.484412 165.397478 
L 215.923147 165.577105 
L 231.361882 165.475703 
L 246.800618 128.186406 
L 262.239353 164.512922 
L 277.678088 154.319254 
L 293.116823 161.991525 
L 308.555558 162.972462 
L 323.994293 156.647638 
L 339.433029 129.230118 
L 354.871764 113.005766 
L 370.310499 156.662075 
L 385.749234 157.600859 
L 401.187969 112.84186 
L 416.626705 155.075917 
" style="fill:none;stroke:#1b9e77;stroke-linecap:square;stroke-opacity:0.5;stroke-width:1.5;"/>
   </g>
   <g id="line2d_65">
    <path clip-path="url(#pef78466d0f)" d="M 61.535795 164.844468 
L 76.974531 164.99995 
L 92.413266 165.043092 
L 107.852001 162.884843 
L 123.290736 162.879422 
L 138.729471 164.691067 
L 154.168207 161.325779 
L 169.606942 163.281914 
L 185.045677 156.107255 
L 200.484412 157.835788 
L 215.923147 158.908502 
L 231.361882 156.600035 
L 246.800618 153.161561 
L 262.239353 151.458578 
L 277.678088 148.837763 
L 293.116823 150.45773 
L 308.555558 154.21832 
L 323.994293 152.298155 
L 339.433029 146.938869 
L 354.871764 146.583023 
L 370.310499 149.852918 
L 385.749234 145.612583 
L 401.187969 141.521777 
L 416.626705 159.928323 
" style="fill:none;stroke:#1b9e77;stroke-linecap:square;stroke-opacity:0.5;stroke-width:1.5;"/>
   </g>
   <g id="line2d_66">
    <path clip-path="url(#pef78466d0f)" d="M 61.535795 161.517258 
L 76.974531 153.628684 
L 92.413266 139.974607 
L 107.852001 161.221323 
L 123.290736 164.689073 
L 138.729471 165.194677 
L 154.168207 162.325598 
L 169.606942 142.833833 
L 185.045677 135.454505 
L 200.484412 145.027549 
L 215.923147 156.347086 
L 231.361882 158.052213 
L 246.800618 154.185572 
L 262.239353 143.706686 
L 277.678088 147.562804 
L 293.116823 155.140434 
L 308.555558 157.810018 
L 323.994293 159.929311 
L 339.433029 161.265518 
L 354.871764 159.044028 
L 370.310499 160.513033 
L 385.749234 163.964566 
L 401.187969 165.053477 
L 416.626705 165.829867 
" style="fill:none;stroke:#1b9e77;stroke-linecap:square;stroke-opacity:0.5;stroke-width:1.5;"/>
   </g>
   <g id="line2d_67">
    <path clip-path="url(#pef78466d0f)" d="M 61.535795 165.592886 
L 76.974531 165.633672 
L 92.413266 165.262167 
L 107.852001 164.353178 
L 123.290736 161.353171 
L 138.729471 159.861504 
L 154.168207 158.386783 
L 169.606942 156.529155 
L 185.045677 152.950411 
L 200.484412 149.919508 
L 215.923147 150.564371 
L 231.361882 160.107305 
L 246.800618 159.190357 
L 262.239353 88.544788 
L 277.678088 141.884934 
L 293.116823 148.815678 
L 308.555558 160.454964 
L 323.994293 153.505642 
L 339.433029 154.723122 
L 354.871764 162.718059 
L 370.310499 164.41097 
L 385.749234 164.285493 
L 401.187969 165.338667 
L 416.626705 165.884939 
" style="fill:none;stroke:#1b9e77;stroke-linecap:square;stroke-opacity:0.5;stroke-width:1.5;"/>
   </g>
   <g id="line2d_68">
    <path clip-path="url(#pef78466d0f)" d="M 61.535795 165.748848 
L 76.974531 165.394083 
L 92.413266 165.691055 
L 107.852001 165.733888 
L 123.290736 165.776837 
L 138.729471 165.818629 
L 154.168207 165.815808 
L 169.606942 165.859735 
L 185.045677 165.806122 
L 200.484412 165.866003 
L 215.923147 142.55212 
L 231.361882 147.941995 
L 246.800618 139.255615 
L 262.239353 144.289093 
L 277.678088 151.160051 
L 293.116823 153.666111 
L 308.555558 137.769525 
L 323.994293 132.458344 
L 339.433029 136.567151 
L 354.871764 154.374561 
L 370.310499 161.394213 
L 385.749234 158.410746 
L 401.187969 161.589564 
L 416.626705 161.331622 
" style="fill:none;stroke:#1b9e77;stroke-linecap:square;stroke-opacity:0.5;stroke-width:1.5;"/>
   </g>
   <g id="line2d_69">
    <path clip-path="url(#pef78466d0f)" d="M 61.535795 163.442813 
L 76.974531 163.778698 
L 92.413266 165.05406 
L 107.852001 164.961838 
L 123.290736 165.034064 
L 138.729471 164.966309 
L 154.168207 165.031501 
L 169.606942 165.502717 
L 185.045677 165.682603 
L 200.484412 165.756304 
L 215.923147 165.207863 
L 231.361882 161.590219 
L 246.800618 157.182877 
L 262.239353 162.355869 
L 277.678088 161.574335 
L 293.116823 161.482696 
L 308.555558 153.615588 
L 323.994293 151.522559 
L 339.433029 150.184639 
L 354.871764 102.421978 
L 370.310499 98.202008 
L 385.749234 154.945975 
L 401.187969 164.398416 
L 416.626705 146.375782 
" style="fill:none;stroke:#1b9e77;stroke-linecap:square;stroke-opacity:0.5;stroke-width:1.5;"/>
   </g>
   <g id="line2d_70">
    <path clip-path="url(#pef78466d0f)" d="M 61.535795 165.443686 
L 76.974531 165.103576 
L 92.413266 165.351639 
L 107.852001 163.157729 
L 123.290736 157.216126 
L 138.729471 164.625869 
L 154.168207 165.130248 
L 169.606942 164.785096 
L 185.045677 164.270886 
L 200.484412 164.057709 
L 215.923147 163.293066 
L 231.361882 161.780459 
L 246.800618 161.45138 
L 262.239353 156.277333 
L 277.678088 138.957859 
L 293.116823 110.949793 
L 308.555558 131.095798 
L 323.994293 130.137117 
L 339.433029 161.423667 
L 354.871764 164.287374 
L 370.310499 163.282524 
L 385.749234 159.595877 
L 401.187969 147.244863 
L 416.626705 151.35204 
" style="fill:none;stroke:#1b9e77;stroke-linecap:square;stroke-opacity:0.5;stroke-width:1.5;"/>
   </g>
   <g id="line2d_71">
    <path clip-path="url(#pef78466d0f)" d="M 61.535795 164.876292 
L 76.974531 161.413285 
L 92.413266 157.837353 
L 107.852001 156.669446 
L 123.290736 155.666749 
L 138.729471 141.718985 
L 154.168207 114.57509 
L 169.606942 67.556333 
L 185.045677 162.234004 
L 200.484412 164.729241 
L 215.923147 165.323905 
L 231.361882 164.988821 
L 246.800618 165.250265 
L 262.239353 165.530386 
L 277.678088 165.685241 
L 293.116823 165.620901 
L 308.555558 165.516852 
L 323.994293 165.659384 
L 339.433029 165.265018 
L 354.871764 165.300234 
L 370.310499 163.313839 
L 385.749234 157.244907 
L 401.187969 157.498258 
L 416.626705 160.796926 
" style="fill:none;stroke:#1b9e77;stroke-linecap:square;stroke-opacity:0.5;stroke-width:1.5;"/>
   </g>
   <g id="line2d_72">
    <path clip-path="url(#pef78466d0f)" d="M 61.535795 165.095446 
L 76.974531 165.386473 
L 92.413266 165.61359 
L 107.852001 165.173743 
L 123.290736 151.871677 
L 138.729471 155.664498 
L 154.168207 159.998439 
L 169.606942 161.457416 
L 185.045677 161.065324 
L 200.484412 159.731217 
L 215.923147 160.643738 
L 231.361882 150.325612 
L 246.800618 88.822091 
L 262.239353 118.533888 
L 277.678088 153.476512 
L 293.116823 136.275158 
L 308.555558 162.141469 
L 323.994293 165.723084 
L 339.433029 165.8613 
L 354.871764 165.867739 
L 370.310499 165.892932 
L 385.749234 165.496291 
L 401.187969 164.242245 
L 416.626705 165.911833 
" style="fill:none;stroke:#1b9e77;stroke-linecap:square;stroke-opacity:0.5;stroke-width:1.5;"/>
   </g>
   <g id="line2d_73">
    <path clip-path="url(#pef78466d0f)" d="M 61.535795 165.709943 
L 76.974531 165.374731 
L 92.413266 165.124697 
L 107.852001 164.715309 
L 123.290736 164.485843 
L 138.729471 163.871719 
L 154.168207 162.683032 
L 169.606942 160.887634 
L 185.045677 150.790442 
L 200.484412 124.489922 
L 215.923147 115.30881 
L 231.361882 122.025884 
L 246.800618 157.444828 
L 262.239353 163.244457 
L 277.678088 162.194409 
L 293.116823 156.709685 
L 308.555558 158.324384 
L 323.994293 163.673227 
L 339.433029 163.488668 
L 354.871764 150.418324 
L 370.310499 153.808027 
L 385.749234 155.710583 
L 401.187969 163.973212 
L 416.626705 165.813941 
" style="fill:none;stroke:#1b9e77;stroke-linecap:square;stroke-opacity:0.5;stroke-width:1.5;"/>
   </g>
   <g id="line2d_74">
    <path clip-path="url(#pef78466d0f)" d="M 61.535795 159.209195 
L 76.974531 118.093405 
L 92.413266 131.31035 
L 107.852001 150.527789 
L 123.290736 162.904929 
L 138.729471 164.725775 
L 154.168207 165.436833 
L 169.606942 165.476922 
L 185.045677 165.680526 
L 200.484412 165.705394 
L 215.923147 165.738475 
L 231.361882 165.772316 
L 246.800618 165.789045 
L 262.239353 165.83745 
L 277.678088 165.485669 
L 293.116823 164.656739 
L 308.555558 160.075257 
L 323.994293 158.738757 
L 339.433029 151.851591 
L 354.871764 148.421525 
L 370.310499 136.955525 
L 385.749234 149.787766 
L 401.187969 151.999484 
L 416.626705 140.091 
" style="fill:none;stroke:#1b9e77;stroke-linecap:square;stroke-opacity:0.5;stroke-width:1.5;"/>
   </g>
   <g id="line2d_75">
    <path clip-path="url(#pef78466d0f)" d="M 61.535795 163.932841 
L 76.974531 160.853757 
L 92.413266 159.275045 
L 107.852001 156.959748 
L 123.290736 158.539036 
L 138.729471 157.853464 
L 154.168207 152.684498 
L 169.606942 46.857054 
L 185.045677 141.62089 
L 200.484412 160.486802 
L 215.923147 164.209343 
L 231.361882 161.98282 
L 246.800618 161.341286 
L 262.239353 165.272274 
L 277.678088 165.477391 
L 293.116823 159.585487 
L 308.555558 161.868978 
L 323.994293 164.61317 
L 339.433029 164.525324 
L 354.871764 163.95189 
L 370.310499 161.903479 
L 385.749234 162.202961 
L 401.187969 163.612925 
L 416.626705 160.661253 
" style="fill:none;stroke:#1b9e77;stroke-linecap:square;stroke-opacity:0.5;stroke-width:1.5;"/>
   </g>
   <g id="line2d_76">
    <path clip-path="url(#pef78466d0f)" d="M 61.535795 163.718051 
L 76.974531 164.29586 
L 92.413266 165.281509 
L 107.852001 165.421193 
L 123.290736 161.609781 
L 138.729471 158.90213 
L 154.168207 151.256062 
L 169.606942 147.088517 
L 185.045677 145.331906 
L 200.484412 138.39867 
L 215.923147 129.499373 
L 231.361882 144.87953 
L 246.800618 151.348568 
L 262.239353 112.580099 
L 277.678088 165.330552 
L 293.116823 165.448535 
L 308.555558 165.454396 
L 323.994293 165.489417 
L 339.433029 165.575045 
L 354.871764 165.84489 
L 370.310499 165.845602 
L 385.749234 158.77286 
L 401.187969 162.31435 
L 416.626705 160.584817 
" style="fill:none;stroke:#1b9e77;stroke-linecap:square;stroke-opacity:0.5;stroke-width:1.5;"/>
   </g>
   <g id="line2d_77">
    <path clip-path="url(#pef78466d0f)" d="M 61.535795 162.103843 
L 76.974531 161.513212 
L 92.413266 162.562186 
L 107.852001 153.716205 
L 123.290736 155.541954 
L 138.729471 164.502575 
L 154.168207 165.464652 
L 169.606942 165.459576 
L 185.045677 165.215195 
L 200.484412 165.854698 
L 215.923147 165.927987 
L 231.361882 153.915711 
L 246.800618 160.539492 
L 262.239353 146.842473 
L 277.678088 165.81103 
L 293.116823 165.949718 
L 308.555558 165.724266 
L 323.994293 146.352768 
L 339.433029 78.351814 
L 354.871764 158.945668 
L 370.310499 152.194318 
L 385.749234 149.636385 
L 401.187969 148.893082 
L 416.626705 159.252908 
" style="fill:none;stroke:#1b9e77;stroke-linecap:square;stroke-opacity:0.5;stroke-width:1.5;"/>
   </g>
   <g id="line2d_78">
    <path clip-path="url(#pef78466d0f)" d="M 61.535795 163.092799 
L 76.974531 163.380499 
L 92.413266 164.695906 
L 107.852001 164.53109 
L 123.290736 164.881342 
L 138.729471 165.198941 
L 154.168207 165.50079 
L 169.606942 165.586618 
L 185.045677 165.694986 
L 200.484412 165.681263 
L 215.923147 165.613181 
L 231.361882 165.687448 
L 246.800618 165.535172 
L 262.239353 165.829724 
L 277.678088 161.190071 
L 293.116823 158.51161 
L 308.555558 157.23653 
L 323.994293 150.104347 
L 339.433029 128.842096 
L 354.871764 134.89423 
L 370.310499 155.294696 
L 385.749234 91.332154 
L 401.187969 126.347202 
L 416.626705 165.609029 
" style="fill:none;stroke:#1b9e77;stroke-linecap:square;stroke-opacity:0.5;stroke-width:1.5;"/>
   </g>
   <g id="line2d_79">
    <path clip-path="url(#pef78466d0f)" d="M 61.535795 163.877727 
L 76.974531 165.080387 
L 92.413266 165.13655 
L 107.852001 162.990168 
L 123.290736 161.40504 
L 138.729471 147.118742 
L 154.168207 160.020638 
L 169.606942 165.57247 
L 185.045677 165.743337 
L 200.484412 165.598625 
L 215.923147 164.244628 
L 231.361882 164.264425 
L 246.800618 160.932969 
L 262.239353 157.041643 
L 277.678088 156.224158 
L 293.116823 160.443347 
L 308.555558 159.16964 
L 323.994293 140.119054 
L 339.433029 109.113174 
L 354.871764 124.924391 
L 370.310499 136.3716 
L 385.749234 153.830029 
L 401.187969 165.16136 
L 416.626705 165.887621 
" style="fill:none;stroke:#1b9e77;stroke-linecap:square;stroke-opacity:0.5;stroke-width:1.5;"/>
   </g>
   <g id="line2d_80">
    <path clip-path="url(#pef78466d0f)" d="M 61.535795 156.912807 
L 76.974531 145.519924 
L 92.413266 162.729824 
L 107.852001 164.248248 
L 123.290736 164.735079 
L 138.729471 164.424235 
L 154.168207 163.732718 
L 169.606942 164.432631 
L 185.045677 165.075403 
L 200.484412 165.322587 
L 215.923147 165.409105 
L 231.361882 165.089857 
L 246.800618 156.165609 
L 262.239353 164.900247 
L 277.678088 161.664915 
L 293.116823 155.89558 
L 308.555558 146.967345 
L 323.994293 126.101481 
L 339.433029 154.719515 
L 354.871764 156.478803 
L 370.310499 159.971566 
L 385.749234 142.694882 
L 401.187969 145.947734 
L 416.626705 121.131614 
" style="fill:none;stroke:#1b9e77;stroke-linecap:square;stroke-opacity:0.5;stroke-width:1.5;"/>
   </g>
   <g id="line2d_81">
    <path clip-path="url(#pef78466d0f)" d="M 61.535795 163.247351 
L 76.974531 164.510496 
L 92.413266 164.618179 
L 107.852001 164.121571 
L 123.290736 162.237472 
L 138.729471 162.832862 
L 154.168207 163.532343 
L 169.606942 163.196599 
L 185.045677 162.783446 
L 200.484412 160.823623 
L 215.923147 153.878672 
L 231.361882 150.119396 
L 246.800618 148.142158 
L 262.239353 103.252732 
L 277.678088 102.697357 
L 293.116823 135.703057 
L 308.555558 160.016178 
L 323.994293 163.666355 
L 339.433029 164.875824 
L 354.871764 164.572185 
L 370.310499 164.776754 
L 385.749234 165.243654 
L 401.187969 165.537628 
L 416.626705 165.885827 
" style="fill:none;stroke:#1b9e77;stroke-linecap:square;stroke-opacity:0.5;stroke-width:1.5;"/>
   </g>
   <g id="line2d_82">
    <path clip-path="url(#pef78466d0f)" d="M 61.535795 165.206669 
L 76.974531 158.077199 
L 92.413266 159.046088 
L 107.852001 165.867868 
L 123.290736 165.862374 
L 138.729471 163.073129 
L 154.168207 163.181452 
L 169.606942 157.807784 
L 185.045677 113.937959 
L 200.484412 122.317182 
L 215.923147 155.64841 
L 231.361882 163.29618 
L 246.800618 135.761105 
L 262.239353 147.189582 
L 277.678088 150.372328 
L 293.116823 149.558317 
L 308.555558 157.120036 
L 323.994293 160.13239 
L 339.433029 163.898653 
L 354.871764 162.881858 
L 370.310499 163.480529 
L 385.749234 164.934661 
L 401.187969 165.691827 
L 416.626705 165.928147 
" style="fill:none;stroke:#1b9e77;stroke-linecap:square;stroke-opacity:0.5;stroke-width:1.5;"/>
   </g>
   <g id="line2d_83">
    <path clip-path="url(#pef78466d0f)" d="M 61.535795 114.500476 
L 76.974531 159.718478 
L 92.413266 142.189398 
L 107.852001 159.489113 
L 123.290736 159.398145 
L 138.729471 159.114737 
L 154.168207 161.647666 
L 169.606942 162.506516 
L 185.045677 111.355342 
L 200.484412 156.677534 
L 215.923147 162.081832 
L 231.361882 139.904387 
L 246.800618 156.208563 
L 262.239353 165.488405 
L 277.678088 165.685305 
L 293.116823 165.722742 
L 308.555558 165.617812 
L 323.994293 163.855783 
L 339.433029 163.096141 
L 354.871764 163.468116 
L 370.310499 162.290552 
L 385.749234 159.004402 
L 401.187969 157.941426 
L 416.626705 163.308843 
" style="fill:none;stroke:#1b9e77;stroke-linecap:square;stroke-opacity:0.5;stroke-width:1.5;"/>
   </g>
   <g id="line2d_84">
    <path clip-path="url(#pef78466d0f)" d="M 61.535795 164.974384 
L 76.974531 159.602971 
L 92.413266 141.248138 
L 107.852001 115.471218 
L 123.290736 137.835014 
L 138.729471 145.695137 
L 154.168207 149.193988 
L 169.606942 145.797374 
L 185.045677 160.477583 
L 200.484412 164.400458 
L 215.923147 164.810636 
L 231.361882 164.735685 
L 246.800618 155.27271 
L 262.239353 156.518861 
L 277.678088 161.945699 
L 293.116823 162.010579 
L 308.555558 162.333124 
L 323.994293 164.16324 
L 339.433029 164.666286 
L 354.871764 164.60249 
L 370.310499 164.643537 
L 385.749234 163.229246 
L 401.187969 153.567167 
L 416.626705 153.076196 
" style="fill:none;stroke:#1b9e77;stroke-linecap:square;stroke-opacity:0.5;stroke-width:1.5;"/>
   </g>
   <g id="line2d_85">
    <path clip-path="url(#pef78466d0f)" d="M 61.535795 165.222082 
L 76.974531 164.864194 
L 92.413266 165.406264 
L 107.852001 165.460166 
L 123.290736 165.512052 
L 138.729471 165.340641 
L 154.168207 165.44546 
L 169.606942 165.813865 
L 185.045677 165.860717 
L 200.484412 165.539604 
L 215.923147 163.298411 
L 231.361882 163.737413 
L 246.800618 160.888665 
L 262.239353 161.228692 
L 277.678088 161.807019 
L 293.116823 162.54124 
L 308.555558 163.129384 
L 323.994293 162.630213 
L 339.433029 161.491232 
L 354.871764 160.635409 
L 370.310499 160.806159 
L 385.749234 155.009388 
L 401.187969 133.843446 
L 416.626705 14.76 
" style="fill:none;stroke:#1b9e77;stroke-linecap:square;stroke-opacity:0.5;stroke-width:1.5;"/>
   </g>
   <g id="line2d_86">
    <path clip-path="url(#pef78466d0f)" d="M 61.535795 161.07364 
L 76.974531 164.973238 
L 92.413266 165.502098 
L 107.852001 165.177723 
L 123.290736 165.596627 
L 138.729471 164.329122 
L 154.168207 163.364868 
L 169.606942 164.781081 
L 185.045677 163.31518 
L 200.484412 160.87849 
L 215.923147 157.223707 
L 231.361882 153.507902 
L 246.800618 127.961518 
L 262.239353 114.743582 
L 277.678088 149.803835 
L 293.116823 131.198846 
L 308.555558 134.349261 
L 323.994293 162.841058 
L 339.433029 165.640877 
L 354.871764 165.894596 
L 370.310499 165.908016 
L 385.749234 154.73439 
L 401.187969 160.100255 
L 416.626705 157.371806 
" style="fill:none;stroke:#1b9e77;stroke-linecap:square;stroke-opacity:0.5;stroke-width:1.5;"/>
   </g>
   <g id="line2d_87">
    <path clip-path="url(#pef78466d0f)" d="M 61.535795 164.29415 
L 76.974531 159.195785 
L 92.413266 158.436417 
L 107.852001 159.151114 
L 123.290736 160.0149 
L 138.729471 162.852787 
L 154.168207 163.688768 
L 169.606942 163.306098 
L 185.045677 162.04537 
L 200.484412 163.68791 
L 215.923147 163.602375 
L 231.361882 158.044576 
L 246.800618 120.19611 
L 262.239353 129.437982 
L 277.678088 153.066939 
L 293.116823 152.060155 
L 308.555558 147.03708 
L 323.994293 140.72884 
L 339.433029 146.148126 
L 354.871764 157.80312 
L 370.310499 162.213609 
L 385.749234 164.576561 
L 401.187969 163.381638 
L 416.626705 165.30131 
" style="fill:none;stroke:#1b9e77;stroke-linecap:square;stroke-opacity:0.5;stroke-width:1.5;"/>
   </g>
   <g id="line2d_88">
    <path clip-path="url(#pef78466d0f)" d="M 61.535795 148.78205 
L 76.974531 147.866056 
L 92.413266 162.406266 
L 107.852001 163.395029 
L 123.290736 162.911776 
L 138.729471 159.074264 
L 154.168207 148.983543 
L 169.606942 155.531617 
L 185.045677 155.197409 
L 200.484412 143.358715 
L 215.923147 136.95758 
L 231.361882 155.113255 
L 246.800618 162.518628 
L 262.239353 163.618608 
L 277.678088 164.078832 
L 293.116823 163.765578 
L 308.555558 164.917319 
L 323.994293 165.673959 
L 339.433029 165.710685 
L 354.871764 155.751014 
L 370.310499 139.879607 
L 385.749234 149.033849 
L 401.187969 144.743413 
L 416.626705 161.002667 
" style="fill:none;stroke:#1b9e77;stroke-linecap:square;stroke-opacity:0.5;stroke-width:1.5;"/>
   </g>
   <g id="line2d_89">
    <path clip-path="url(#pef78466d0f)" d="M 61.535795 165.90897 
L 76.974531 165.824667 
L 92.413266 165.866494 
L 107.852001 165.694013 
L 123.290736 165.102021 
L 138.729471 165.271235 
L 154.168207 163.977578 
L 169.606942 163.273754 
L 185.045677 161.243572 
L 200.484412 160.86278 
L 215.923147 157.186786 
L 231.361882 157.682272 
L 246.800618 156.315169 
L 262.239353 111.676312 
L 277.678088 85.288202 
L 293.116823 126.905877 
L 308.555558 159.377396 
L 323.994293 160.448084 
L 339.433029 161.005523 
L 354.871764 162.333377 
L 370.310499 163.744478 
L 385.749234 164.564226 
L 401.187969 164.980575 
L 416.626705 165.738362 
" style="fill:none;stroke:#1b9e77;stroke-linecap:square;stroke-opacity:0.5;stroke-width:1.5;"/>
   </g>
   <g id="line2d_90">
    <path clip-path="url(#pef78466d0f)" d="M 61.535795 165.316198 
L 76.974531 161.980554 
L 92.413266 131.797305 
L 107.852001 144.763428 
L 123.290736 159.095567 
L 138.729471 161.340564 
L 154.168207 163.537864 
L 169.606942 156.19692 
L 185.045677 144.930135 
L 200.484412 126.203838 
L 215.923147 129.97847 
L 231.361882 153.060606 
L 246.800618 156.422582 
L 262.239353 155.003541 
L 277.678088 164.018498 
L 293.116823 165.526899 
L 308.555558 164.585016 
L 323.994293 163.241262 
L 339.433029 161.422731 
L 354.871764 156.589354 
L 370.310499 163.723019 
L 385.749234 164.102606 
L 401.187969 164.087181 
L 416.626705 163.347583 
" style="fill:none;stroke:#1b9e77;stroke-linecap:square;stroke-opacity:0.5;stroke-width:1.5;"/>
   </g>
   <g id="line2d_91">
    <path clip-path="url(#pef78466d0f)" d="M 61.535795 162.897896 
L 76.974531 160.18236 
L 92.413266 162.075097 
L 107.852001 147.756863 
L 123.290736 155.175323 
L 138.729471 165.566164 
L 154.168207 165.848144 
L 169.606942 165.602909 
L 185.045677 165.631777 
L 200.484412 165.720942 
L 215.923147 165.816424 
L 231.361882 165.913795 
L 246.800618 165.904747 
L 262.239353 164.393742 
L 277.678088 162.701291 
L 293.116823 158.675209 
L 308.555558 126.634827 
L 323.994293 132.468024 
L 339.433029 129.897392 
L 354.871764 122.427551 
L 370.310499 140.361826 
L 385.749234 157.999291 
L 401.187969 164.828856 
L 416.626705 165.79127 
" style="fill:none;stroke:#1b9e77;stroke-linecap:square;stroke-opacity:0.5;stroke-width:1.5;"/>
   </g>
   <g id="line2d_92">
    <path clip-path="url(#pef78466d0f)" d="M 61.535795 165.635183 
L 76.974531 165.485317 
L 92.413266 165.750652 
L 107.852001 165.722795 
L 123.290736 165.771179 
L 138.729471 165.858924 
L 154.168207 165.886817 
L 169.606942 165.933057 
L 185.045677 165.951007 
L 200.484412 165.342555 
L 215.923147 163.301645 
L 231.361882 159.917194 
L 246.800618 140.753808 
L 262.239353 115.663247 
L 277.678088 121.439332 
L 293.116823 121.474838 
L 308.555558 113.667442 
L 323.994293 157.123005 
L 339.433029 164.718137 
L 354.871764 164.608268 
L 370.310499 164.611341 
L 385.749234 164.721952 
L 401.187969 165.077753 
L 416.626705 165.856267 
" style="fill:none;stroke:#1b9e77;stroke-linecap:square;stroke-opacity:0.5;stroke-width:1.5;"/>
   </g>
   <g id="line2d_93">
    <path clip-path="url(#pef78466d0f)" d="M 61.535795 164.567892 
L 76.974531 157.980434 
L 92.413266 121.980004 
L 107.852001 132.864308 
L 123.290736 152.474347 
L 138.729471 160.019434 
L 154.168207 161.167748 
L 169.606942 157.968428 
L 185.045677 150.178008 
L 200.484412 148.19614 
L 215.923147 155.044823 
L 231.361882 157.654034 
L 246.800618 156.492599 
L 262.239353 152.418529 
L 277.678088 145.882193 
L 293.116823 147.650861 
L 308.555558 160.252032 
L 323.994293 164.446713 
L 339.433029 165.314569 
L 354.871764 164.858368 
L 370.310499 165.142302 
L 385.749234 165.845317 
L 401.187969 165.91918 
L 416.626705 165.953458 
" style="fill:none;stroke:#1b9e77;stroke-linecap:square;stroke-opacity:0.5;stroke-width:1.5;"/>
   </g>
   <g id="line2d_94">
    <path clip-path="url(#pef78466d0f)" d="M 61.535795 162.453172 
L 76.974531 163.053326 
L 92.413266 162.294421 
L 107.852001 160.619709 
L 123.290736 153.097125 
L 138.729471 152.001793 
L 154.168207 158.759283 
L 169.606942 149.58097 
L 185.045677 102.843919 
L 200.484412 100.081836 
L 215.923147 144.043985 
L 231.361882 157.943802 
L 246.800618 164.137876 
L 262.239353 164.038353 
L 277.678088 164.94099 
L 293.116823 165.192977 
L 308.555558 165.327394 
L 323.994293 165.449376 
L 339.433029 165.49924 
L 354.871764 165.54812 
L 370.310499 163.765487 
L 385.749234 164.550623 
L 401.187969 161.663458 
L 416.626705 163.384484 
" style="fill:none;stroke:#1b9e77;stroke-linecap:square;stroke-opacity:0.5;stroke-width:1.5;"/>
   </g>
   <g id="line2d_95">
    <path clip-path="url(#pef78466d0f)" d="M 61.535795 165.393866 
L 76.974531 164.968684 
L 92.413266 164.693779 
L 107.852001 164.191188 
L 123.290736 163.952753 
L 138.729471 163.324147 
L 154.168207 161.889442 
L 169.606942 159.465871 
L 185.045677 148.355153 
L 200.484412 137.153371 
L 215.923147 151.708159 
L 231.361882 159.557646 
L 246.800618 112.807751 
L 262.239353 144.872834 
L 277.678088 140.071198 
L 293.116823 131.515779 
L 308.555558 162.796835 
L 323.994293 162.044421 
L 339.433029 162.38161 
L 354.871764 163.266452 
L 370.310499 164.365999 
L 385.749234 164.251238 
L 401.187969 163.185516 
L 416.626705 164.058036 
" style="fill:none;stroke:#1b9e77;stroke-linecap:square;stroke-opacity:0.5;stroke-width:1.5;"/>
   </g>
   <g id="line2d_96">
    <path clip-path="url(#pef78466d0f)" d="M 61.535795 164.867131 
L 76.974531 165.63953 
L 92.413266 165.846117 
L 107.852001 165.698905 
L 123.290736 161.4229 
L 138.729471 164.705989 
L 154.168207 165.811853 
L 169.606942 165.868352 
L 185.045677 165.792249 
L 200.484412 143.753976 
L 215.923147 155.242361 
L 231.361882 165.634855 
L 246.800618 165.711488 
L 262.239353 165.139434 
L 277.678088 163.457878 
L 293.116823 165.184022 
L 308.555558 165.37305 
L 323.994293 165.592792 
L 339.433029 164.271093 
L 354.871764 118.550421 
L 370.310499 97.867753 
L 385.749234 132.089048 
L 401.187969 130.899242 
L 416.626705 155.851282 
" style="fill:none;stroke:#1b9e77;stroke-linecap:square;stroke-opacity:0.5;stroke-width:1.5;"/>
   </g>
   <g id="line2d_97">
    <path clip-path="url(#pef78466d0f)" d="M 61.535795 165.812111 
L 76.974531 165.433779 
L 92.413266 165.5599 
L 107.852001 165.596059 
L 123.290736 142.651364 
L 138.729471 157.224269 
L 154.168207 90.487631 
L 169.606942 161.395719 
L 185.045677 164.700979 
L 200.484412 130.880841 
L 215.923147 95.094156 
L 231.361882 154.578735 
L 246.800618 165.07351 
L 262.239353 163.548573 
L 277.678088 165.08388 
L 293.116823 165.536445 
L 308.555558 165.736628 
L 323.994293 165.811716 
L 339.433029 165.858293 
L 354.871764 165.864009 
L 370.310499 165.786908 
L 385.749234 165.951901 
L 401.187969 165.11864 
L 416.626705 161.48567 
" style="fill:none;stroke:#1b9e77;stroke-linecap:square;stroke-opacity:0.5;stroke-width:1.5;"/>
   </g>
   <g id="line2d_98">
    <path clip-path="url(#pef78466d0f)" d="M 61.535795 165.957187 
L 76.974531 165.893548 
L 92.413266 165.668041 
L 107.852001 165.31579 
L 123.290736 164.879899 
L 138.729471 164.570114 
L 154.168207 164.047254 
L 169.606942 163.398577 
L 185.045677 163.502368 
L 200.484412 160.36224 
L 215.923147 143.303104 
L 231.361882 136.178625 
L 246.800618 149.12821 
L 262.239353 153.679059 
L 277.678088 136.068373 
L 293.116823 120.292978 
L 308.555558 148.249497 
L 323.994293 157.064935 
L 339.433029 145.729985 
L 354.871764 147.072698 
L 370.310499 162.377365 
L 385.749234 165.69417 
L 401.187969 165.89145 
L 416.626705 165.946254 
" style="fill:none;stroke:#1b9e77;stroke-linecap:square;stroke-opacity:0.5;stroke-width:1.5;"/>
   </g>
   <g id="line2d_99">
    <path clip-path="url(#pef78466d0f)" d="M 61.535795 155.602572 
L 76.974531 161.697406 
L 92.413266 161.459364 
L 107.852001 141.847239 
L 123.290736 129.230893 
L 138.729471 153.595208 
L 154.168207 164.737476 
L 169.606942 165.306883 
L 185.045677 165.338743 
L 200.484412 164.528433 
L 215.923147 163.339069 
L 231.361882 164.955765 
L 246.800618 165.265631 
L 262.239353 165.22023 
L 277.678088 159.558585 
L 293.116823 135.56064 
L 308.555558 152.015768 
L 323.994293 149.464646 
L 339.433029 149.855128 
L 354.871764 131.683993 
L 370.310499 147.060568 
L 385.749234 162.087688 
L 401.187969 165.443324 
L 416.626705 165.416466 
" style="fill:none;stroke:#1b9e77;stroke-linecap:square;stroke-opacity:0.5;stroke-width:1.5;"/>
   </g>
   <g id="line2d_100">
    <path clip-path="url(#pef78466d0f)" d="M 61.535795 118.323707 
L 76.974531 164.141237 
L 92.413266 163.656015 
L 107.852001 161.808552 
L 123.290736 160.541724 
L 138.729471 161.84059 
L 154.168207 120.279921 
L 169.606942 143.907941 
L 185.045677 157.883863 
L 200.484412 154.509102 
L 215.923147 160.100927 
L 231.361882 144.985521 
L 246.800618 139.925522 
L 262.239353 163.433604 
L 277.678088 165.651116 
L 293.116823 165.737238 
L 308.555558 165.611289 
L 323.994293 162.679982 
L 339.433029 148.235343 
L 354.871764 163.409862 
L 370.310499 163.625457 
L 385.749234 163.674829 
L 401.187969 163.980789 
L 416.626705 162.327587 
" style="fill:none;stroke:#1b9e77;stroke-linecap:square;stroke-opacity:0.5;stroke-width:1.5;"/>
   </g>
   <g id="line2d_101">
    <path clip-path="url(#pef78466d0f)" d="M 61.535795 154.121744 
L 76.974531 162.278355 
L 92.413266 164.752174 
L 107.852001 164.553031 
L 123.290736 158.442191 
L 138.729471 66.507358 
L 154.168207 89.135824 
L 169.606942 152.893599 
L 185.045677 159.497071 
L 200.484412 160.79961 
L 215.923147 162.837898 
L 231.361882 162.778407 
L 246.800618 164.089711 
L 262.239353 164.973937 
L 277.678088 165.506577 
L 293.116823 165.618047 
L 308.555558 165.794696 
L 323.994293 165.865794 
L 339.433029 165.784939 
L 354.871764 165.407941 
L 370.310499 165.076057 
L 385.749234 164.823145 
L 401.187969 164.58695 
L 416.626705 164.146661 
" style="fill:none;stroke:#1b9e77;stroke-linecap:square;stroke-opacity:0.5;stroke-width:1.5;"/>
   </g>
   <g id="line2d_102">
    <path clip-path="url(#pef78466d0f)" d="M 61.535795 164.876919 
L 76.974531 162.879775 
L 92.413266 162.718929 
L 107.852001 164.715053 
L 123.290736 114.592793 
L 138.729471 101.039382 
L 154.168207 152.302843 
L 169.606942 139.78049 
L 185.045677 164.728685 
L 200.484412 165.687098 
L 215.923147 165.837337 
L 231.361882 165.809673 
L 246.800618 165.831949 
L 262.239353 165.817966 
L 277.678088 165.327693 
L 293.116823 163.663086 
L 308.555558 160.730577 
L 323.994293 154.586932 
L 339.433029 159.987939 
L 354.871764 164.07347 
L 370.310499 162.526546 
L 385.749234 158.601675 
L 401.187969 158.186301 
L 416.626705 135.968603 
" style="fill:none;stroke:#1b9e77;stroke-linecap:square;stroke-opacity:0.5;stroke-width:1.5;"/>
   </g>
   <g id="line2d_103">
    <path clip-path="url(#pef78466d0f)" d="M 61.535795 164.660598 
L 76.974531 161.524474 
L 92.413266 159.901109 
L 107.852001 154.936329 
L 123.290736 144.849421 
L 138.729471 136.575213 
L 154.168207 141.248068 
L 169.606942 155.113272 
L 185.045677 126.626247 
L 200.484412 107.934004 
L 215.923147 157.022922 
L 231.361882 150.4497 
L 246.800618 159.501455 
L 262.239353 164.93435 
L 277.678088 165.676959 
L 293.116823 165.771788 
L 308.555558 165.860205 
L 323.994293 165.882491 
L 339.433029 165.771415 
L 354.871764 165.805508 
L 370.310499 165.557599 
L 385.749234 165.046826 
L 401.187969 164.443947 
L 416.626705 165.177822 
" style="fill:none;stroke:#1b9e77;stroke-linecap:square;stroke-opacity:0.5;stroke-width:1.5;"/>
   </g>
   <g id="line2d_104">
    <path clip-path="url(#pef78466d0f)" d="M 61.535795 148.206883 
L 76.974531 163.177908 
L 92.413266 155.98365 
L 107.852001 147.620346 
L 123.290736 135.187946 
L 138.729471 96.511066 
L 154.168207 89.880119 
L 169.606942 155.643673 
L 185.045677 163.871879 
L 200.484412 164.420655 
L 215.923147 165.196987 
L 231.361882 165.27218 
L 246.800618 165.489634 
L 262.239353 165.596527 
L 277.678088 165.704467 
L 293.116823 165.715075 
L 308.555558 165.756241 
L 323.994293 165.843039 
L 339.433029 165.874341 
L 354.871764 165.885734 
L 370.310499 165.830718 
L 385.749234 165.860233 
L 401.187969 165.799205 
L 416.626705 165.943211 
" style="fill:none;stroke:#1b9e77;stroke-linecap:square;stroke-opacity:0.5;stroke-width:1.5;"/>
   </g>
   <g id="line2d_105">
    <path clip-path="url(#pef78466d0f)" d="M 61.535795 164.100456 
L 76.974531 164.204482 
L 92.413266 165.05182 
L 107.852001 165.181912 
L 123.290736 165.340383 
L 138.729471 165.417244 
L 154.168207 164.910288 
L 169.606942 164.547268 
L 185.045677 159.71974 
L 200.484412 162.952016 
L 215.923147 163.578215 
L 231.361882 157.710088 
L 246.800618 159.882064 
L 262.239353 160.39971 
L 277.678088 156.122142 
L 293.116823 156.399827 
L 308.555558 158.966655 
L 323.994293 157.461801 
L 339.433029 150.850267 
L 354.871764 143.28263 
L 370.310499 138.53675 
L 385.749234 127.777966 
L 401.187969 123.257699 
L 416.626705 144.620291 
" style="fill:none;stroke:#1b9e77;stroke-linecap:square;stroke-opacity:0.5;stroke-width:1.5;"/>
   </g>
   <g id="line2d_106">
    <path clip-path="url(#pef78466d0f)" d="M 61.535795 148.927722 
L 76.974531 126.519685 
L 92.413266 162.628857 
L 107.852001 163.939589 
L 123.290736 164.217227 
L 138.729471 161.81845 
L 154.168207 154.956285 
L 169.606942 160.226566 
L 185.045677 162.837896 
L 200.484412 162.365785 
L 215.923147 160.533055 
L 231.361882 160.703265 
L 246.800618 162.967795 
L 262.239353 164.144998 
L 277.678088 164.299288 
L 293.116823 163.321513 
L 308.555558 162.872412 
L 323.994293 164.234613 
L 339.433029 164.893201 
L 354.871764 165.015046 
L 370.310499 163.436282 
L 385.749234 139.034545 
L 401.187969 98.250994 
L 416.626705 138.126649 
" style="fill:none;stroke:#1b9e77;stroke-linecap:square;stroke-opacity:0.5;stroke-width:1.5;"/>
   </g>
   <g id="line2d_107">
    <path clip-path="url(#pef78466d0f)" d="M 61.535795 157.482036 
L 76.974531 145.394404 
L 92.413266 106.858555 
L 107.852001 121.901721 
L 123.290736 143.754191 
L 138.729471 157.040981 
L 154.168207 150.642431 
L 169.606942 124.404754 
L 185.045677 159.726214 
L 200.484412 161.514509 
L 215.923147 164.510349 
L 231.361882 165.365179 
L 246.800618 165.575783 
L 262.239353 165.541996 
L 277.678088 165.38729 
L 293.116823 164.712758 
L 308.555558 163.617701 
L 323.994293 164.508267 
L 339.433029 165.22275 
L 354.871764 165.089081 
L 370.310499 165.046976 
L 385.749234 165.494356 
L 401.187969 165.605202 
L 416.626705 165.874234 
" style="fill:none;stroke:#1b9e77;stroke-linecap:square;stroke-opacity:0.5;stroke-width:1.5;"/>
   </g>
   <g id="line2d_108">
    <path clip-path="url(#pef78466d0f)" d="M 61.535795 165.536527 
L 76.974531 164.205919 
L 92.413266 164.098115 
L 107.852001 163.864857 
L 123.290736 162.017627 
L 138.729471 158.698619 
L 154.168207 156.190338 
L 169.606942 157.403035 
L 185.045677 153.973394 
L 200.484412 71.313027 
L 215.923147 96.638903 
L 231.361882 142.099447 
L 246.800618 162.059127 
L 262.239353 164.545051 
L 277.678088 165.441804 
L 293.116823 165.459669 
L 308.555558 165.676644 
L 323.994293 165.741504 
L 339.433029 165.811834 
L 354.871764 165.822559 
L 370.310499 165.875605 
L 385.749234 165.910785 
L 401.187969 165.930988 
L 416.626705 165.956344 
" style="fill:none;stroke:#1b9e77;stroke-linecap:square;stroke-opacity:0.5;stroke-width:1.5;"/>
   </g>
   <g id="line2d_109">
    <path clip-path="url(#pef78466d0f)" d="M 61.535795 141.924133 
L 76.974531 109.425606 
L 92.413266 127.002036 
L 107.852001 149.744125 
L 123.290736 159.291172 
L 138.729471 162.325775 
L 154.168207 164.725244 
L 169.606942 164.950439 
L 185.045677 165.296396 
L 200.484412 165.44571 
L 215.923147 165.58117 
L 231.361882 165.541535 
L 246.800618 165.680759 
L 262.239353 165.890905 
L 277.678088 165.93054 
L 293.116823 165.93806 
L 308.555558 151.891356 
L 323.994293 155.748838 
L 339.433029 158.118234 
L 354.871764 156.543576 
L 370.310499 156.947889 
L 385.749234 150.991415 
L 401.187969 146.12058 
L 416.626705 159.216222 
" style="fill:none;stroke:#1b9e77;stroke-linecap:square;stroke-opacity:0.5;stroke-width:1.5;"/>
   </g>
   <g id="line2d_110">
    <path clip-path="url(#pef78466d0f)" d="M 61.535795 148.130768 
L 76.974531 159.048061 
L 92.413266 164.204202 
L 107.852001 163.631098 
L 123.290736 163.839724 
L 138.729471 164.077008 
L 154.168207 164.390422 
L 169.606942 164.681547 
L 185.045677 164.537442 
L 200.484412 163.086793 
L 215.923147 158.729367 
L 231.361882 162.830486 
L 246.800618 162.855054 
L 262.239353 159.579711 
L 277.678088 145.967673 
L 293.116823 148.522697 
L 308.555558 152.705334 
L 323.994293 158.943116 
L 339.433029 157.877011 
L 354.871764 151.885771 
L 370.310499 134.946945 
L 385.749234 137.916144 
L 401.187969 131.856281 
L 416.626705 156.029064 
" style="fill:none;stroke:#1b9e77;stroke-linecap:square;stroke-opacity:0.5;stroke-width:1.5;"/>
   </g>
   <g id="line2d_111">
    <path clip-path="url(#pef78466d0f)" d="M 61.535795 162.623197 
L 76.974531 160.587672 
L 92.413266 160.87323 
L 107.852001 161.338528 
L 123.290736 164.324518 
L 138.729471 165.296829 
L 154.168207 165.494617 
L 169.606942 165.330195 
L 185.045677 165.228057 
L 200.484412 165.065748 
L 215.923147 165.113031 
L 231.361882 165.510479 
L 246.800618 165.376476 
L 262.239353 163.359041 
L 277.678088 156.043342 
L 293.116823 163.812164 
L 308.555558 164.303341 
L 323.994293 165.286425 
L 339.433029 152.827437 
L 354.871764 123.404701 
L 370.310499 124.120626 
L 385.749234 144.099216 
L 401.187969 118.77637 
L 416.626705 132.076484 
" style="fill:none;stroke:#1b9e77;stroke-linecap:square;stroke-opacity:0.5;stroke-width:1.5;"/>
   </g>
   <g id="line2d_112">
    <path clip-path="url(#pef78466d0f)" d="M 61.535795 165.087217 
L 76.974531 165.237514 
L 92.413266 165.61497 
L 107.852001 165.600078 
L 123.290736 165.642964 
L 138.729471 165.737332 
L 154.168207 165.556043 
L 169.606942 165.219827 
L 185.045677 165.329793 
L 200.484412 165.38297 
L 215.923147 164.569437 
L 231.361882 164.423949 
L 246.800618 163.684872 
L 262.239353 162.473068 
L 277.678088 160.168909 
L 293.116823 158.82242 
L 308.555558 160.012045 
L 323.994293 156.859722 
L 339.433029 109.877496 
L 354.871764 83.832508 
L 370.310499 129.806347 
L 385.749234 143.371469 
L 401.187969 162.215744 
L 416.626705 165.745025 
" style="fill:none;stroke:#1b9e77;stroke-linecap:square;stroke-opacity:0.5;stroke-width:1.5;"/>
   </g>
   <g id="line2d_113">
    <path clip-path="url(#pef78466d0f)" d="M 61.535795 165.943339 
L 76.974531 165.943339 
L 92.413266 165.943339 
L 107.852001 165.941423 
L 123.290736 165.93087 
L 138.729471 165.939843 
L 154.168207 165.943339 
L 169.606942 165.883729 
L 185.045677 162.817962 
L 200.484412 162.945458 
L 215.923147 165.772961 
L 231.361882 165.780808 
L 246.800618 159.531105 
L 262.239353 149.502344 
L 277.678088 147.713077 
L 293.116823 162.504207 
L 308.555558 165.728936 
L 323.994293 165.616782 
L 339.433029 165.903963 
L 354.871764 160.052259 
L 370.310499 131.411367 
L 385.749234 131.655975 
L 401.187969 113.205953 
L 416.626705 102.659341 
" style="fill:none;stroke:#d95f02;stroke-linecap:square;stroke-width:1.5;"/>
   </g>
   <g id="patch_3">
    <path d="M 43.78125 173.52 
L 43.78125 7.2 
" style="fill:none;stroke:#000000;stroke-linecap:square;stroke-linejoin:miter;stroke-width:0.8;"/>
   </g>
   <g id="patch_4">
    <path d="M 43.78125 173.52 
L 434.38125 173.52 
" style="fill:none;stroke:#000000;stroke-linecap:square;stroke-linejoin:miter;stroke-width:0.8;"/>
   </g>
   <g id="legend_1">
    <g id="patch_5">
     <path d="M 50.78125 29.878125 
L 101.948438 29.878125 
Q 103.948438 29.878125 103.948438 27.878125 
L 103.948438 14.2 
Q 103.948438 12.2 101.948438 12.2 
L 50.78125 12.2 
Q 48.78125 12.2 48.78125 14.2 
L 48.78125 27.878125 
Q 48.78125 29.878125 50.78125 29.878125 
z
" style="fill:#ffffff;opacity:0.8;stroke:#cccccc;stroke-linejoin:miter;"/>
    </g>
    <g id="line2d_114">
     <path d="M 52.78125 20.298438 
L 72.78125 20.298438 
" style="fill:none;stroke:#d95f02;stroke-linecap:square;stroke-width:1.5;"/>
    </g>
    <g id="line2d_115"/>
    <g id="text_15">
     <!-- real -->
     <defs>
      <path d="M 9.421875 75.984375 
L 18.40625 75.984375 
L 18.40625 0 
L 9.421875 0 
z
" id="DejaVuSans-108"/>
     </defs>
     <g transform="translate(80.78125 23.798438)scale(0.1 -0.1)">
      <use xlink:href="#DejaVuSans-114"/>
      <use x="41.082031" xlink:href="#DejaVuSans-101"/>
      <use x="102.605469" xlink:href="#DejaVuSans-97"/>
      <use x="163.884766" xlink:href="#DejaVuSans-108"/>
     </g>
    </g>
   </g>
  </g>
 </g>
 <defs>
  <clipPath id="pef78466d0f">
   <rect height="166.32" width="390.6" x="43.78125" y="7.2"/>
  </clipPath>
 </defs>
</svg>
