<?xml version="1.0" encoding="utf-8" standalone="no"?>
<!DOCTYPE svg PUBLIC "-//W3C//DTD SVG 1.1//EN"
  "http://www.w3.org/Graphics/SVG/1.1/DTD/svg11.dtd">
<!-- Created with matplotlib (https://matplotlib.org/) -->
<svg height="211.07625pt" version="1.1" viewBox="0 0 436.087315 211.07625" width="436.087315pt" xmlns="http://www.w3.org/2000/svg" xmlns:xlink="http://www.w3.org/1999/xlink">
 <defs>
  <style type="text/css">
*{stroke-linecap:butt;stroke-linejoin:round;}
  </style>
 </defs>
 <g id="figure_1">
  <g id="patch_1">
   <path d="M 0 211.07625 
L 436.087315 211.07625 
L 436.087315 0 
L 0 0 
z
" style="fill:#ffffff;"/>
  </g>
  <g id="axes_1">
   <g id="patch_2">
    <path d="M 34.240625 173.52 
L 424.840625 173.52 
L 424.840625 7.2 
L 34.240625 7.2 
z
" style="fill:#ffffff;"/>
   </g>
   <g id="matplotlib.axis_1">
    <g id="xtick_1">
     <g id="line2d_1">
      <defs>
       <path d="M 0 0 
L 0 3.5 
" id="m2474a57431" style="stroke:#000000;stroke-width:0.8;"/>
      </defs>
      <g>
       <use style="stroke:#000000;stroke-width:0.8;" x="36.556435" xlink:href="#m2474a57431" y="173.52"/>
      </g>
     </g>
     <g id="text_1">
      <!-- 0 -->
      <defs>
       <path d="M 31.78125 66.40625 
Q 24.171875 66.40625 20.328125 58.90625 
Q 16.5 51.421875 16.5 36.375 
Q 16.5 21.390625 20.328125 13.890625 
Q 24.171875 6.390625 31.78125 6.390625 
Q 39.453125 6.390625 43.28125 13.890625 
Q 47.125 21.390625 47.125 36.375 
Q 47.125 51.421875 43.28125 58.90625 
Q 39.453125 66.40625 31.78125 66.40625 
z
M 31.78125 74.21875 
Q 44.046875 74.21875 50.515625 64.515625 
Q 56.984375 54.828125 56.984375 36.375 
Q 56.984375 17.96875 50.515625 8.265625 
Q 44.046875 -1.421875 31.78125 -1.421875 
Q 19.53125 -1.421875 13.0625 8.265625 
Q 6.59375 17.96875 6.59375 36.375 
Q 6.59375 54.828125 13.0625 64.515625 
Q 19.53125 74.21875 31.78125 74.21875 
z
" id="DejaVuSans-48"/>
      </defs>
      <g transform="translate(33.375185 188.118438)scale(0.1 -0.1)">
       <use xlink:href="#DejaVuSans-48"/>
      </g>
     </g>
    </g>
    <g id="xtick_2">
     <g id="line2d_2">
      <g>
       <use style="stroke:#000000;stroke-width:0.8;" x="113.750111" xlink:href="#m2474a57431" y="173.52"/>
      </g>
     </g>
     <g id="text_2">
      <!-- 5 -->
      <defs>
       <path d="M 10.796875 72.90625 
L 49.515625 72.90625 
L 49.515625 64.59375 
L 19.828125 64.59375 
L 19.828125 46.734375 
Q 21.96875 47.46875 24.109375 47.828125 
Q 26.265625 48.1875 28.421875 48.1875 
Q 40.625 48.1875 47.75 41.5 
Q 54.890625 34.8125 54.890625 23.390625 
Q 54.890625 11.625 47.5625 5.09375 
Q 40.234375 -1.421875 26.90625 -1.421875 
Q 22.3125 -1.421875 17.546875 -0.640625 
Q 12.796875 0.140625 7.71875 1.703125 
L 7.71875 11.625 
Q 12.109375 9.234375 16.796875 8.0625 
Q 21.484375 6.890625 26.703125 6.890625 
Q 35.15625 6.890625 40.078125 11.328125 
Q 45.015625 15.765625 45.015625 23.390625 
Q 45.015625 31 40.078125 35.4375 
Q 35.15625 39.890625 26.703125 39.890625 
Q 22.75 39.890625 18.8125 39.015625 
Q 14.890625 38.140625 10.796875 36.28125 
z
" id="DejaVuSans-53"/>
      </defs>
      <g transform="translate(110.568861 188.118438)scale(0.1 -0.1)">
       <use xlink:href="#DejaVuSans-53"/>
      </g>
     </g>
    </g>
    <g id="xtick_3">
     <g id="line2d_3">
      <g>
       <use style="stroke:#000000;stroke-width:0.8;" x="190.943787" xlink:href="#m2474a57431" y="173.52"/>
      </g>
     </g>
     <g id="text_3">
      <!-- 10 -->
      <defs>
       <path d="M 12.40625 8.296875 
L 28.515625 8.296875 
L 28.515625 63.921875 
L 10.984375 60.40625 
L 10.984375 69.390625 
L 28.421875 72.90625 
L 38.28125 72.90625 
L 38.28125 8.296875 
L 54.390625 8.296875 
L 54.390625 0 
L 12.40625 0 
z
" id="DejaVuSans-49"/>
      </defs>
      <g transform="translate(184.581287 188.118438)scale(0.1 -0.1)">
       <use xlink:href="#DejaVuSans-49"/>
       <use x="63.623047" xlink:href="#DejaVuSans-48"/>
      </g>
     </g>
    </g>
    <g id="xtick_4">
     <g id="line2d_4">
      <g>
       <use style="stroke:#000000;stroke-width:0.8;" x="268.137463" xlink:href="#m2474a57431" y="173.52"/>
      </g>
     </g>
     <g id="text_4">
      <!-- 15 -->
      <g transform="translate(261.774963 188.118438)scale(0.1 -0.1)">
       <use xlink:href="#DejaVuSans-49"/>
       <use x="63.623047" xlink:href="#DejaVuSans-53"/>
      </g>
     </g>
    </g>
    <g id="xtick_5">
     <g id="line2d_5">
      <g>
       <use style="stroke:#000000;stroke-width:0.8;" x="345.331139" xlink:href="#m2474a57431" y="173.52"/>
      </g>
     </g>
     <g id="text_5">
      <!-- 20 -->
      <defs>
       <path d="M 19.1875 8.296875 
L 53.609375 8.296875 
L 53.609375 0 
L 7.328125 0 
L 7.328125 8.296875 
Q 12.9375 14.109375 22.625 23.890625 
Q 32.328125 33.6875 34.8125 36.53125 
Q 39.546875 41.84375 41.421875 45.53125 
Q 43.3125 49.21875 43.3125 52.78125 
Q 43.3125 58.59375 39.234375 62.25 
Q 35.15625 65.921875 28.609375 65.921875 
Q 23.96875 65.921875 18.8125 64.3125 
Q 13.671875 62.703125 7.8125 59.421875 
L 7.8125 69.390625 
Q 13.765625 71.78125 18.9375 73 
Q 24.125 74.21875 28.421875 74.21875 
Q 39.75 74.21875 46.484375 68.546875 
Q 53.21875 62.890625 53.21875 53.421875 
Q 53.21875 48.921875 51.53125 44.890625 
Q 49.859375 40.875 45.40625 35.40625 
Q 44.1875 33.984375 37.640625 27.21875 
Q 31.109375 20.453125 19.1875 8.296875 
z
" id="DejaVuSans-50"/>
      </defs>
      <g transform="translate(338.968639 188.118438)scale(0.1 -0.1)">
       <use xlink:href="#DejaVuSans-50"/>
       <use x="63.623047" xlink:href="#DejaVuSans-48"/>
      </g>
     </g>
    </g>
    <g id="xtick_6">
     <g id="line2d_6">
      <g>
       <use style="stroke:#000000;stroke-width:0.8;" x="422.524815" xlink:href="#m2474a57431" y="173.52"/>
      </g>
     </g>
     <g id="text_6">
      <!-- 25 -->
      <g transform="translate(416.162315 188.118438)scale(0.1 -0.1)">
       <use xlink:href="#DejaVuSans-50"/>
       <use x="63.623047" xlink:href="#DejaVuSans-53"/>
      </g>
     </g>
    </g>
    <g id="text_7">
     <!-- hour -->
     <defs>
      <path d="M 54.890625 33.015625 
L 54.890625 0 
L 45.90625 0 
L 45.90625 32.71875 
Q 45.90625 40.484375 42.875 44.328125 
Q 39.84375 48.1875 33.796875 48.1875 
Q 26.515625 48.1875 22.3125 43.546875 
Q 18.109375 38.921875 18.109375 30.90625 
L 18.109375 0 
L 9.078125 0 
L 9.078125 75.984375 
L 18.109375 75.984375 
L 18.109375 46.1875 
Q 21.34375 51.125 25.703125 53.5625 
Q 30.078125 56 35.796875 56 
Q 45.21875 56 50.046875 50.171875 
Q 54.890625 44.34375 54.890625 33.015625 
z
" id="DejaVuSans-104"/>
      <path d="M 30.609375 48.390625 
Q 23.390625 48.390625 19.1875 42.75 
Q 14.984375 37.109375 14.984375 27.296875 
Q 14.984375 17.484375 19.15625 11.84375 
Q 23.34375 6.203125 30.609375 6.203125 
Q 37.796875 6.203125 41.984375 11.859375 
Q 46.1875 17.53125 46.1875 27.296875 
Q 46.1875 37.015625 41.984375 42.703125 
Q 37.796875 48.390625 30.609375 48.390625 
z
M 30.609375 56 
Q 42.328125 56 49.015625 48.375 
Q 55.71875 40.765625 55.71875 27.296875 
Q 55.71875 13.875 49.015625 6.21875 
Q 42.328125 -1.421875 30.609375 -1.421875 
Q 18.84375 -1.421875 12.171875 6.21875 
Q 5.515625 13.875 5.515625 27.296875 
Q 5.515625 40.765625 12.171875 48.375 
Q 18.84375 56 30.609375 56 
z
" id="DejaVuSans-111"/>
      <path d="M 8.5 21.578125 
L 8.5 54.6875 
L 17.484375 54.6875 
L 17.484375 21.921875 
Q 17.484375 14.15625 20.5 10.265625 
Q 23.53125 6.390625 29.59375 6.390625 
Q 36.859375 6.390625 41.078125 11.03125 
Q 45.3125 15.671875 45.3125 23.6875 
L 45.3125 54.6875 
L 54.296875 54.6875 
L 54.296875 0 
L 45.3125 0 
L 45.3125 8.40625 
Q 42.046875 3.421875 37.71875 1 
Q 33.40625 -1.421875 27.6875 -1.421875 
Q 18.265625 -1.421875 13.375 4.4375 
Q 8.5 10.296875 8.5 21.578125 
z
M 31.109375 56 
z
" id="DejaVuSans-117"/>
      <path d="M 41.109375 46.296875 
Q 39.59375 47.171875 37.8125 47.578125 
Q 36.03125 48 33.890625 48 
Q 26.265625 48 22.1875 43.046875 
Q 18.109375 38.09375 18.109375 28.8125 
L 18.109375 0 
L 9.078125 0 
L 9.078125 54.6875 
L 18.109375 54.6875 
L 18.109375 46.1875 
Q 20.953125 51.171875 25.484375 53.578125 
Q 30.03125 56 36.53125 56 
Q 37.453125 56 38.578125 55.875 
Q 39.703125 55.765625 41.0625 55.515625 
z
" id="DejaVuSans-114"/>
     </defs>
     <g transform="translate(218.088281 201.796563)scale(0.1 -0.1)">
      <use xlink:href="#DejaVuSans-104"/>
      <use x="63.378906" xlink:href="#DejaVuSans-111"/>
      <use x="124.560547" xlink:href="#DejaVuSans-117"/>
      <use x="187.939453" xlink:href="#DejaVuSans-114"/>
     </g>
    </g>
   </g>
   <g id="matplotlib.axis_2">
    <g id="ytick_1">
     <g id="line2d_7">
      <defs>
       <path d="M 0 0 
L -3.5 0 
" id="m8cdec0bbb7" style="stroke:#000000;stroke-width:0.8;"/>
      </defs>
      <g>
       <use style="stroke:#000000;stroke-width:0.8;" x="34.240625" xlink:href="#m8cdec0bbb7" y="165.964132"/>
      </g>
     </g>
     <g id="text_8">
      <!-- 0 -->
      <g transform="translate(20.878125 169.763351)scale(0.1 -0.1)">
       <use xlink:href="#DejaVuSans-48"/>
      </g>
     </g>
    </g>
    <g id="ytick_2">
     <g id="line2d_8">
      <g>
       <use style="stroke:#000000;stroke-width:0.8;" x="34.240625" xlink:href="#m8cdec0bbb7" y="139.155326"/>
      </g>
     </g>
     <g id="text_9">
      <!-- 1 -->
      <g transform="translate(20.878125 142.954544)scale(0.1 -0.1)">
       <use xlink:href="#DejaVuSans-49"/>
      </g>
     </g>
    </g>
    <g id="ytick_3">
     <g id="line2d_9">
      <g>
       <use style="stroke:#000000;stroke-width:0.8;" x="34.240625" xlink:href="#m8cdec0bbb7" y="112.346519"/>
      </g>
     </g>
     <g id="text_10">
      <!-- 2 -->
      <g transform="translate(20.878125 116.145738)scale(0.1 -0.1)">
       <use xlink:href="#DejaVuSans-50"/>
      </g>
     </g>
    </g>
    <g id="ytick_4">
     <g id="line2d_10">
      <g>
       <use style="stroke:#000000;stroke-width:0.8;" x="34.240625" xlink:href="#m8cdec0bbb7" y="85.537713"/>
      </g>
     </g>
     <g id="text_11">
      <!-- 3 -->
      <defs>
       <path d="M 40.578125 39.3125 
Q 47.65625 37.796875 51.625 33 
Q 55.609375 28.21875 55.609375 21.1875 
Q 55.609375 10.40625 48.1875 4.484375 
Q 40.765625 -1.421875 27.09375 -1.421875 
Q 22.515625 -1.421875 17.65625 -0.515625 
Q 12.796875 0.390625 7.625 2.203125 
L 7.625 11.71875 
Q 11.71875 9.328125 16.59375 8.109375 
Q 21.484375 6.890625 26.8125 6.890625 
Q 36.078125 6.890625 40.9375 10.546875 
Q 45.796875 14.203125 45.796875 21.1875 
Q 45.796875 27.640625 41.28125 31.265625 
Q 36.765625 34.90625 28.71875 34.90625 
L 20.21875 34.90625 
L 20.21875 43.015625 
L 29.109375 43.015625 
Q 36.375 43.015625 40.234375 45.921875 
Q 44.09375 48.828125 44.09375 54.296875 
Q 44.09375 59.90625 40.109375 62.90625 
Q 36.140625 65.921875 28.71875 65.921875 
Q 24.65625 65.921875 20.015625 65.03125 
Q 15.375 64.15625 9.8125 62.3125 
L 9.8125 71.09375 
Q 15.4375 72.65625 20.34375 73.4375 
Q 25.25 74.21875 29.59375 74.21875 
Q 40.828125 74.21875 47.359375 69.109375 
Q 53.90625 64.015625 53.90625 55.328125 
Q 53.90625 49.265625 50.4375 45.09375 
Q 46.96875 40.921875 40.578125 39.3125 
z
" id="DejaVuSans-51"/>
      </defs>
      <g transform="translate(20.878125 89.336931)scale(0.1 -0.1)">
       <use xlink:href="#DejaVuSans-51"/>
      </g>
     </g>
    </g>
    <g id="ytick_5">
     <g id="line2d_11">
      <g>
       <use style="stroke:#000000;stroke-width:0.8;" x="34.240625" xlink:href="#m8cdec0bbb7" y="58.728906"/>
      </g>
     </g>
     <g id="text_12">
      <!-- 4 -->
      <defs>
       <path d="M 37.796875 64.3125 
L 12.890625 25.390625 
L 37.796875 25.390625 
z
M 35.203125 72.90625 
L 47.609375 72.90625 
L 47.609375 25.390625 
L 58.015625 25.390625 
L 58.015625 17.1875 
L 47.609375 17.1875 
L 47.609375 0 
L 37.796875 0 
L 37.796875 17.1875 
L 4.890625 17.1875 
L 4.890625 26.703125 
z
" id="DejaVuSans-52"/>
      </defs>
      <g transform="translate(20.878125 62.528125)scale(0.1 -0.1)">
       <use xlink:href="#DejaVuSans-52"/>
      </g>
     </g>
    </g>
    <g id="ytick_6">
     <g id="line2d_12">
      <g>
       <use style="stroke:#000000;stroke-width:0.8;" x="34.240625" xlink:href="#m8cdec0bbb7" y="31.9201"/>
      </g>
     </g>
     <g id="text_13">
      <!-- 5 -->
      <g transform="translate(20.878125 35.719319)scale(0.1 -0.1)">
       <use xlink:href="#DejaVuSans-53"/>
      </g>
     </g>
    </g>
    <g id="text_14">
     <!-- precipitation [mm/hour] -->
     <defs>
      <path d="M 18.109375 8.203125 
L 18.109375 -20.796875 
L 9.078125 -20.796875 
L 9.078125 54.6875 
L 18.109375 54.6875 
L 18.109375 46.390625 
Q 20.953125 51.265625 25.265625 53.625 
Q 29.59375 56 35.59375 56 
Q 45.5625 56 51.78125 48.09375 
Q 58.015625 40.1875 58.015625 27.296875 
Q 58.015625 14.40625 51.78125 6.484375 
Q 45.5625 -1.421875 35.59375 -1.421875 
Q 29.59375 -1.421875 25.265625 0.953125 
Q 20.953125 3.328125 18.109375 8.203125 
z
M 48.6875 27.296875 
Q 48.6875 37.203125 44.609375 42.84375 
Q 40.53125 48.484375 33.40625 48.484375 
Q 26.265625 48.484375 22.1875 42.84375 
Q 18.109375 37.203125 18.109375 27.296875 
Q 18.109375 17.390625 22.1875 11.75 
Q 26.265625 6.109375 33.40625 6.109375 
Q 40.53125 6.109375 44.609375 11.75 
Q 48.6875 17.390625 48.6875 27.296875 
z
" id="DejaVuSans-112"/>
      <path d="M 56.203125 29.59375 
L 56.203125 25.203125 
L 14.890625 25.203125 
Q 15.484375 15.921875 20.484375 11.0625 
Q 25.484375 6.203125 34.421875 6.203125 
Q 39.59375 6.203125 44.453125 7.46875 
Q 49.3125 8.734375 54.109375 11.28125 
L 54.109375 2.78125 
Q 49.265625 0.734375 44.1875 -0.34375 
Q 39.109375 -1.421875 33.890625 -1.421875 
Q 20.796875 -1.421875 13.15625 6.1875 
Q 5.515625 13.8125 5.515625 26.8125 
Q 5.515625 40.234375 12.765625 48.109375 
Q 20.015625 56 32.328125 56 
Q 43.359375 56 49.78125 48.890625 
Q 56.203125 41.796875 56.203125 29.59375 
z
M 47.21875 32.234375 
Q 47.125 39.59375 43.09375 43.984375 
Q 39.0625 48.390625 32.421875 48.390625 
Q 24.90625 48.390625 20.390625 44.140625 
Q 15.875 39.890625 15.1875 32.171875 
z
" id="DejaVuSans-101"/>
      <path d="M 48.78125 52.59375 
L 48.78125 44.1875 
Q 44.96875 46.296875 41.140625 47.34375 
Q 37.3125 48.390625 33.40625 48.390625 
Q 24.65625 48.390625 19.8125 42.84375 
Q 14.984375 37.3125 14.984375 27.296875 
Q 14.984375 17.28125 19.8125 11.734375 
Q 24.65625 6.203125 33.40625 6.203125 
Q 37.3125 6.203125 41.140625 7.25 
Q 44.96875 8.296875 48.78125 10.40625 
L 48.78125 2.09375 
Q 45.015625 0.34375 40.984375 -0.53125 
Q 36.96875 -1.421875 32.421875 -1.421875 
Q 20.0625 -1.421875 12.78125 6.34375 
Q 5.515625 14.109375 5.515625 27.296875 
Q 5.515625 40.671875 12.859375 48.328125 
Q 20.21875 56 33.015625 56 
Q 37.15625 56 41.109375 55.140625 
Q 45.0625 54.296875 48.78125 52.59375 
z
" id="DejaVuSans-99"/>
      <path d="M 9.421875 54.6875 
L 18.40625 54.6875 
L 18.40625 0 
L 9.421875 0 
z
M 9.421875 75.984375 
L 18.40625 75.984375 
L 18.40625 64.59375 
L 9.421875 64.59375 
z
" id="DejaVuSans-105"/>
      <path d="M 18.3125 70.21875 
L 18.3125 54.6875 
L 36.8125 54.6875 
L 36.8125 47.703125 
L 18.3125 47.703125 
L 18.3125 18.015625 
Q 18.3125 11.328125 20.140625 9.421875 
Q 21.96875 7.515625 27.59375 7.515625 
L 36.8125 7.515625 
L 36.8125 0 
L 27.59375 0 
Q 17.1875 0 13.234375 3.875 
Q 9.28125 7.765625 9.28125 18.015625 
L 9.28125 47.703125 
L 2.6875 47.703125 
L 2.6875 54.6875 
L 9.28125 54.6875 
L 9.28125 70.21875 
z
" id="DejaVuSans-116"/>
      <path d="M 34.28125 27.484375 
Q 23.390625 27.484375 19.1875 25 
Q 14.984375 22.515625 14.984375 16.5 
Q 14.984375 11.71875 18.140625 8.90625 
Q 21.296875 6.109375 26.703125 6.109375 
Q 34.1875 6.109375 38.703125 11.40625 
Q 43.21875 16.703125 43.21875 25.484375 
L 43.21875 27.484375 
z
M 52.203125 31.203125 
L 52.203125 0 
L 43.21875 0 
L 43.21875 8.296875 
Q 40.140625 3.328125 35.546875 0.953125 
Q 30.953125 -1.421875 24.3125 -1.421875 
Q 15.921875 -1.421875 10.953125 3.296875 
Q 6 8.015625 6 15.921875 
Q 6 25.140625 12.171875 29.828125 
Q 18.359375 34.515625 30.609375 34.515625 
L 43.21875 34.515625 
L 43.21875 35.40625 
Q 43.21875 41.609375 39.140625 45 
Q 35.0625 48.390625 27.6875 48.390625 
Q 23 48.390625 18.546875 47.265625 
Q 14.109375 46.140625 10.015625 43.890625 
L 10.015625 52.203125 
Q 14.9375 54.109375 19.578125 55.046875 
Q 24.21875 56 28.609375 56 
Q 40.484375 56 46.34375 49.84375 
Q 52.203125 43.703125 52.203125 31.203125 
z
" id="DejaVuSans-97"/>
      <path d="M 54.890625 33.015625 
L 54.890625 0 
L 45.90625 0 
L 45.90625 32.71875 
Q 45.90625 40.484375 42.875 44.328125 
Q 39.84375 48.1875 33.796875 48.1875 
Q 26.515625 48.1875 22.3125 43.546875 
Q 18.109375 38.921875 18.109375 30.90625 
L 18.109375 0 
L 9.078125 0 
L 9.078125 54.6875 
L 18.109375 54.6875 
L 18.109375 46.1875 
Q 21.34375 51.125 25.703125 53.5625 
Q 30.078125 56 35.796875 56 
Q 45.21875 56 50.046875 50.171875 
Q 54.890625 44.34375 54.890625 33.015625 
z
" id="DejaVuSans-110"/>
      <path id="DejaVuSans-32"/>
      <path d="M 8.59375 75.984375 
L 29.296875 75.984375 
L 29.296875 69 
L 17.578125 69 
L 17.578125 -6.203125 
L 29.296875 -6.203125 
L 29.296875 -13.1875 
L 8.59375 -13.1875 
z
" id="DejaVuSans-91"/>
      <path d="M 52 44.1875 
Q 55.375 50.25 60.0625 53.125 
Q 64.75 56 71.09375 56 
Q 79.640625 56 84.28125 50.015625 
Q 88.921875 44.046875 88.921875 33.015625 
L 88.921875 0 
L 79.890625 0 
L 79.890625 32.71875 
Q 79.890625 40.578125 77.09375 44.375 
Q 74.3125 48.1875 68.609375 48.1875 
Q 61.625 48.1875 57.5625 43.546875 
Q 53.515625 38.921875 53.515625 30.90625 
L 53.515625 0 
L 44.484375 0 
L 44.484375 32.71875 
Q 44.484375 40.625 41.703125 44.40625 
Q 38.921875 48.1875 33.109375 48.1875 
Q 26.21875 48.1875 22.15625 43.53125 
Q 18.109375 38.875 18.109375 30.90625 
L 18.109375 0 
L 9.078125 0 
L 9.078125 54.6875 
L 18.109375 54.6875 
L 18.109375 46.1875 
Q 21.1875 51.21875 25.484375 53.609375 
Q 29.78125 56 35.6875 56 
Q 41.65625 56 45.828125 52.96875 
Q 50 49.953125 52 44.1875 
z
" id="DejaVuSans-109"/>
      <path d="M 25.390625 72.90625 
L 33.6875 72.90625 
L 8.296875 -9.28125 
L 0 -9.28125 
z
" id="DejaVuSans-47"/>
      <path d="M 30.421875 75.984375 
L 30.421875 -13.1875 
L 9.71875 -13.1875 
L 9.71875 -6.203125 
L 21.390625 -6.203125 
L 21.390625 69 
L 9.71875 69 
L 9.71875 75.984375 
z
" id="DejaVuSans-93"/>
     </defs>
     <g transform="translate(14.798438 150.335781)rotate(-90)scale(0.1 -0.1)">
      <use xlink:href="#DejaVuSans-112"/>
      <use x="63.476562" xlink:href="#DejaVuSans-114"/>
      <use x="104.558594" xlink:href="#DejaVuSans-101"/>
      <use x="166.082031" xlink:href="#DejaVuSans-99"/>
      <use x="221.0625" xlink:href="#DejaVuSans-105"/>
      <use x="248.845703" xlink:href="#DejaVuSans-112"/>
      <use x="312.322266" xlink:href="#DejaVuSans-105"/>
      <use x="340.105469" xlink:href="#DejaVuSans-116"/>
      <use x="379.314453" xlink:href="#DejaVuSans-97"/>
      <use x="440.59375" xlink:href="#DejaVuSans-116"/>
      <use x="479.802734" xlink:href="#DejaVuSans-105"/>
      <use x="507.585938" xlink:href="#DejaVuSans-111"/>
      <use x="568.767578" xlink:href="#DejaVuSans-110"/>
      <use x="632.146484" xlink:href="#DejaVuSans-32"/>
      <use x="663.933594" xlink:href="#DejaVuSans-91"/>
      <use x="702.947266" xlink:href="#DejaVuSans-109"/>
      <use x="800.359375" xlink:href="#DejaVuSans-109"/>
      <use x="897.771484" xlink:href="#DejaVuSans-47"/>
      <use x="931.462891" xlink:href="#DejaVuSans-104"/>
      <use x="994.841797" xlink:href="#DejaVuSans-111"/>
      <use x="1056.023438" xlink:href="#DejaVuSans-117"/>
      <use x="1119.402344" xlink:href="#DejaVuSans-114"/>
      <use x="1160.515625" xlink:href="#DejaVuSans-93"/>
     </g>
    </g>
   </g>
   <g id="line2d_13">
    <path clip-path="url(#p89f6a89311)" d="M 51.99517 165.795244 
L 67.433906 165.413043 
L 82.872641 165.5432 
L 98.311376 165.770677 
L 113.750111 165.832741 
L 129.188846 165.903052 
L 144.627582 165.922878 
L 160.066317 165.892659 
L 175.505052 164.431406 
L 190.943787 162.034781 
L 206.382522 150.28568 
L 221.821257 142.165267 
L 237.259993 153.298872 
L 252.698728 154.063404 
L 268.137463 159.879999 
L 283.576198 161.263293 
L 299.014933 163.196003 
L 314.453668 165.629954 
L 329.892404 164.151339 
L 345.331139 159.58379 
L 360.769874 96.958427 
L 376.208609 145.129351 
L 391.647344 161.473852 
L 407.08608 162.187955 
" style="fill:none;stroke:#1b9e77;stroke-linecap:square;stroke-opacity:0.5;stroke-width:1.5;"/>
   </g>
   <g id="line2d_14">
    <path clip-path="url(#p89f6a89311)" d="M 51.99517 131.560198 
L 67.433906 99.332548 
L 82.872641 120.777537 
L 98.311376 152.692093 
L 113.750111 160.126166 
L 129.188846 162.981477 
L 144.627582 164.607521 
L 160.066317 165.347704 
L 175.505052 165.512133 
L 190.943787 165.738482 
L 206.382522 165.827475 
L 221.821257 165.883261 
L 237.259993 165.898029 
L 252.698728 165.923302 
L 268.137463 165.898986 
L 283.576198 164.703837 
L 299.014933 157.487948 
L 314.453668 161.979922 
L 329.892404 163.173059 
L 345.331139 164.543691 
L 360.769874 165.527616 
L 376.208609 165.473083 
L 391.647344 165.586872 
L 407.08608 165.22393 
" style="fill:none;stroke:#1b9e77;stroke-linecap:square;stroke-opacity:0.5;stroke-width:1.5;"/>
   </g>
   <g id="line2d_15">
    <path clip-path="url(#p89f6a89311)" d="M 51.99517 144.600861 
L 67.433906 117.287611 
L 82.872641 140.481915 
L 98.311376 148.248416 
L 113.750111 157.500338 
L 129.188846 156.620401 
L 144.627582 156.758167 
L 160.066317 159.167165 
L 175.505052 159.658613 
L 190.943787 161.403689 
L 206.382522 162.547725 
L 221.821257 163.595247 
L 237.259993 164.330859 
L 252.698728 165.317046 
L 268.137463 165.46996 
L 283.576198 165.245823 
L 299.014933 164.998596 
L 314.453668 164.782973 
L 329.892404 164.571746 
L 345.331139 164.110428 
L 360.769874 164.026634 
L 376.208609 164.114859 
L 391.647344 164.334563 
L 407.08608 152.633228 
" style="fill:none;stroke:#1b9e77;stroke-linecap:square;stroke-opacity:0.5;stroke-width:1.5;"/>
   </g>
   <g id="line2d_16">
    <path clip-path="url(#p89f6a89311)" d="M 51.99517 164.827693 
L 67.433906 164.451933 
L 82.872641 163.326476 
L 98.311376 164.809075 
L 113.750111 162.080602 
L 129.188846 161.009651 
L 144.627582 164.583849 
L 160.066317 164.833735 
L 175.505052 145.866898 
L 190.943787 128.868374 
L 206.382522 135.09028 
L 221.821257 114.590747 
L 237.259993 148.772256 
L 252.698728 159.003456 
L 268.137463 162.100689 
L 283.576198 163.127064 
L 299.014933 164.119449 
L 314.453668 165.628152 
L 329.892404 165.912148 
L 345.331139 165.937811 
L 360.769874 165.890957 
L 376.208609 165.809667 
L 391.647344 165.378967 
L 407.08608 165.78693 
" style="fill:none;stroke:#1b9e77;stroke-linecap:square;stroke-opacity:0.5;stroke-width:1.5;"/>
   </g>
   <g id="line2d_17">
    <path clip-path="url(#p89f6a89311)" d="M 51.99517 165.946939 
L 67.433906 165.917009 
L 82.872641 165.889415 
L 98.311376 165.88908 
L 113.750111 165.822772 
L 129.188846 164.255581 
L 144.627582 144.360245 
L 160.066317 135.976584 
L 175.505052 124.196089 
L 190.943787 121.868155 
L 206.382522 146.201477 
L 221.821257 149.204419 
L 237.259993 152.419883 
L 252.698728 165.733906 
L 268.137463 165.604725 
L 283.576198 165.710353 
L 299.014933 165.701336 
L 314.453668 165.771947 
L 329.892404 165.841103 
L 345.331139 165.886904 
L 360.769874 165.910312 
L 376.208609 165.946879 
L 391.647344 165.952555 
L 407.08608 165.799194 
" style="fill:none;stroke:#1b9e77;stroke-linecap:square;stroke-opacity:0.5;stroke-width:1.5;"/>
   </g>
   <g id="line2d_18">
    <path clip-path="url(#p89f6a89311)" d="M 51.99517 165.852877 
L 67.433906 165.866828 
L 82.872641 165.873676 
L 98.311376 165.105613 
L 113.750111 164.679216 
L 129.188846 164.402607 
L 144.627582 164.501871 
L 160.066317 164.36216 
L 175.505052 164.124779 
L 190.943787 161.419659 
L 206.382522 165.612998 
L 221.821257 165.398984 
L 237.259993 164.978724 
L 252.698728 164.769663 
L 268.137463 157.22129 
L 283.576198 69.83185 
L 299.014933 142.687127 
L 314.453668 154.57032 
L 329.892404 150.929125 
L 345.331139 154.296301 
L 360.769874 160.853439 
L 376.208609 164.233013 
L 391.647344 164.546846 
L 407.08608 165.6879 
" style="fill:none;stroke:#1b9e77;stroke-linecap:square;stroke-opacity:0.5;stroke-width:1.5;"/>
   </g>
   <g id="line2d_19">
    <path clip-path="url(#p89f6a89311)" d="M 51.99517 165.784743 
L 67.433906 165.600651 
L 82.872641 165.695281 
L 98.311376 165.894523 
L 113.750111 165.940525 
L 129.188846 165.951837 
L 144.627582 165.949433 
L 160.066317 165.945395 
L 175.505052 165.9355 
L 190.943787 165.870271 
L 206.382522 165.070402 
L 221.821257 162.427916 
L 237.259993 160.228951 
L 252.698728 149.523225 
L 268.137463 76.492097 
L 283.576198 143.123039 
L 299.014933 162.86404 
L 314.453668 159.998843 
L 329.892404 158.144422 
L 345.331139 161.902596 
L 360.769874 154.735932 
L 376.208609 157.254312 
L 391.647344 156.134001 
L 407.08608 165.338925 
" style="fill:none;stroke:#1b9e77;stroke-linecap:square;stroke-opacity:0.5;stroke-width:1.5;"/>
   </g>
   <g id="line2d_20">
    <path clip-path="url(#p89f6a89311)" d="M 51.99517 164.747197 
L 67.433906 162.13836 
L 82.872641 159.309396 
L 98.311376 124.967285 
L 113.750111 161.438144 
L 129.188846 164.883271 
L 144.627582 164.488817 
L 160.066317 165.511819 
L 175.505052 159.100917 
L 190.943787 67.706802 
L 206.382522 149.546841 
L 221.821257 165.376712 
L 237.259993 164.305094 
L 252.698728 163.134536 
L 268.137463 165.216128 
L 283.576198 165.543441 
L 299.014933 165.414967 
L 314.453668 165.418085 
L 329.892404 165.655003 
L 345.331139 165.863112 
L 360.769874 165.906379 
L 376.208609 165.930233 
L 391.647344 165.913983 
L 407.08608 164.290347 
" style="fill:none;stroke:#1b9e77;stroke-linecap:square;stroke-opacity:0.5;stroke-width:1.5;"/>
   </g>
   <g id="line2d_21">
    <path clip-path="url(#p89f6a89311)" d="M 51.99517 158.721194 
L 67.433906 158.415785 
L 82.872641 156.075032 
L 98.311376 164.930607 
L 113.750111 165.564143 
L 129.188846 165.07111 
L 144.627582 165.532531 
L 160.066317 165.595131 
L 175.505052 165.481102 
L 190.943787 165.745644 
L 206.382522 165.847494 
L 221.821257 165.798695 
L 237.259993 165.570311 
L 252.698728 165.488882 
L 268.137463 165.091437 
L 283.576198 140.677921 
L 299.014933 147.734097 
L 314.453668 149.885618 
L 329.892404 147.368069 
L 345.331139 147.640423 
L 360.769874 138.918295 
L 376.208609 144.878863 
L 391.647344 154.023899 
L 407.08608 161.750574 
" style="fill:none;stroke:#1b9e77;stroke-linecap:square;stroke-opacity:0.5;stroke-width:1.5;"/>
   </g>
   <g id="line2d_22">
    <path clip-path="url(#p89f6a89311)" d="M 51.99517 165.096405 
L 67.433906 164.574538 
L 82.872641 160.529767 
L 98.311376 156.942584 
L 113.750111 130.876901 
L 129.188846 118.107413 
L 144.627582 156.992175 
L 160.066317 157.73715 
L 175.505052 148.766869 
L 190.943787 146.405916 
L 206.382522 139.121296 
L 221.821257 158.855997 
L 237.259993 165.421131 
L 252.698728 165.536773 
L 268.137463 165.486761 
L 283.576198 165.213908 
L 299.014933 165.609855 
L 314.453668 165.929052 
L 329.892404 165.947651 
L 345.331139 165.928644 
L 360.769874 165.694588 
L 376.208609 165.913017 
L 391.647344 165.956683 
L 407.08608 165.161788 
" style="fill:none;stroke:#1b9e77;stroke-linecap:square;stroke-opacity:0.5;stroke-width:1.5;"/>
   </g>
   <g id="line2d_23">
    <path clip-path="url(#p89f6a89311)" d="M 51.99517 161.1706 
L 67.433906 157.217457 
L 82.872641 161.821562 
L 98.311376 161.834913 
L 113.750111 131.807404 
L 129.188846 125.939842 
L 144.627582 151.922959 
L 160.066317 150.968412 
L 175.505052 162.880587 
L 190.943787 159.248267 
L 206.382522 141.687846 
L 221.821257 145.663142 
L 237.259993 155.845196 
L 252.698728 165.850722 
L 268.137463 165.907581 
L 283.576198 165.918039 
L 299.014933 165.939624 
L 314.453668 165.936445 
L 329.892404 165.951934 
L 345.331139 165.943463 
L 360.769874 165.698761 
L 376.208609 165.779119 
L 391.647344 165.017367 
L 407.08608 165.855623 
" style="fill:none;stroke:#1b9e77;stroke-linecap:square;stroke-opacity:0.5;stroke-width:1.5;"/>
   </g>
   <g id="line2d_24">
    <path clip-path="url(#p89f6a89311)" d="M 51.99517 144.755828 
L 67.433906 137.07688 
L 82.872641 144.777556 
L 98.311376 159.704645 
L 113.750111 163.145405 
L 129.188846 163.947949 
L 144.627582 163.378234 
L 160.066317 164.372134 
L 175.505052 165.200132 
L 190.943787 165.567669 
L 206.382522 165.650948 
L 221.821257 165.317957 
L 237.259993 164.772414 
L 252.698728 164.339512 
L 268.137463 164.855936 
L 283.576198 165.158874 
L 299.014933 165.208192 
L 314.453668 165.004985 
L 329.892404 164.657425 
L 345.331139 165.464875 
L 360.769874 165.724672 
L 376.208609 165.493549 
L 391.647344 158.408822 
L 407.08608 79.822271 
" style="fill:none;stroke:#1b9e77;stroke-linecap:square;stroke-opacity:0.5;stroke-width:1.5;"/>
   </g>
   <g id="line2d_25">
    <path clip-path="url(#p89f6a89311)" d="M 51.99517 131.335392 
L 67.433906 128.249167 
L 82.872641 135.962739 
L 98.311376 158.43982 
L 113.750111 163.454919 
L 129.188846 165.053307 
L 144.627582 165.154775 
L 160.066317 164.887413 
L 175.505052 164.521579 
L 190.943787 165.175365 
L 206.382522 165.390177 
L 221.821257 165.079376 
L 237.259993 164.607357 
L 252.698728 164.757241 
L 268.137463 164.786568 
L 283.576198 158.976515 
L 299.014933 145.973732 
L 314.453668 163.456145 
L 329.892404 163.922761 
L 345.331139 163.797637 
L 360.769874 163.867573 
L 376.208609 164.890618 
L 391.647344 164.685025 
L 407.08608 135.381662 
" style="fill:none;stroke:#1b9e77;stroke-linecap:square;stroke-opacity:0.5;stroke-width:1.5;"/>
   </g>
   <g id="line2d_26">
    <path clip-path="url(#p89f6a89311)" d="M 51.99517 162.16346 
L 67.433906 161.054415 
L 82.872641 138.01071 
L 98.311376 149.723839 
L 113.750111 144.779666 
L 129.188846 162.155723 
L 144.627582 165.606599 
L 160.066317 165.759541 
L 175.505052 164.744033 
L 190.943787 164.027481 
L 206.382522 165.827788 
L 221.821257 164.252673 
L 237.259993 156.430176 
L 252.698728 156.47969 
L 268.137463 158.613545 
L 283.576198 137.170899 
L 299.014933 149.268534 
L 314.453668 156.769018 
L 329.892404 159.916631 
L 345.331139 161.873581 
L 360.769874 162.0271 
L 376.208609 158.717662 
L 391.647344 162.160853 
L 407.08608 164.273242 
" style="fill:none;stroke:#1b9e77;stroke-linecap:square;stroke-opacity:0.5;stroke-width:1.5;"/>
   </g>
   <g id="line2d_27">
    <path clip-path="url(#p89f6a89311)" d="M 51.99517 161.392505 
L 67.433906 160.309046 
L 82.872641 163.506569 
L 98.311376 164.535046 
L 113.750111 164.024123 
L 129.188846 164.056314 
L 144.627582 164.648737 
L 160.066317 165.412239 
L 175.505052 163.090382 
L 190.943787 159.370574 
L 206.382522 154.881796 
L 221.821257 158.21668 
L 237.259993 150.073907 
L 252.698728 87.275416 
L 268.137463 135.00372 
L 283.576198 164.132765 
L 299.014933 163.629515 
L 314.453668 163.437298 
L 329.892404 164.66505 
L 345.331139 165.078726 
L 360.769874 164.94561 
L 376.208609 165.693043 
L 391.647344 165.842488 
L 407.08608 158.585318 
" style="fill:none;stroke:#1b9e77;stroke-linecap:square;stroke-opacity:0.5;stroke-width:1.5;"/>
   </g>
   <g id="line2d_28">
    <path clip-path="url(#p89f6a89311)" d="M 51.99517 163.963369 
L 67.433906 161.733885 
L 82.872641 154.649702 
L 98.311376 143.318667 
L 113.750111 145.514848 
L 129.188846 141.252662 
L 144.627582 144.112259 
L 160.066317 130.717511 
L 175.505052 155.774446 
L 190.943787 159.238226 
L 206.382522 163.789256 
L 221.821257 164.99489 
L 237.259993 165.747247 
L 252.698728 165.905094 
L 268.137463 165.902521 
L 283.576198 165.607204 
L 299.014933 164.344216 
L 314.453668 155.28355 
L 329.892404 162.815982 
L 345.331139 164.413037 
L 360.769874 163.853491 
L 376.208609 163.988106 
L 391.647344 163.817548 
L 407.08608 161.069144 
" style="fill:none;stroke:#1b9e77;stroke-linecap:square;stroke-opacity:0.5;stroke-width:1.5;"/>
   </g>
   <g id="line2d_29">
    <path clip-path="url(#p89f6a89311)" d="M 51.99517 159.243097 
L 67.433906 159.656234 
L 82.872641 161.811802 
L 98.311376 164.344814 
L 113.750111 164.940631 
L 129.188846 165.5076 
L 144.627582 165.74179 
L 160.066317 165.853688 
L 175.505052 165.879423 
L 190.943787 165.903386 
L 206.382522 165.899204 
L 221.821257 165.860126 
L 237.259993 165.754377 
L 252.698728 165.718107 
L 268.137463 165.592392 
L 283.576198 165.130449 
L 299.014933 162.990607 
L 314.453668 146.180474 
L 329.892404 158.741334 
L 345.331139 161.806353 
L 360.769874 158.906703 
L 376.208609 163.549758 
L 391.647344 165.226792 
L 407.08608 41.56772 
" style="fill:none;stroke:#1b9e77;stroke-linecap:square;stroke-opacity:0.5;stroke-width:1.5;"/>
   </g>
   <g id="line2d_30">
    <path clip-path="url(#p89f6a89311)" d="M 51.99517 163.490948 
L 67.433906 155.832723 
L 82.872641 152.848457 
L 98.311376 148.621012 
L 113.750111 156.97894 
L 129.188846 162.853123 
L 144.627582 163.877051 
L 160.066317 141.759649 
L 175.505052 154.950552 
L 190.943787 155.454563 
L 206.382522 151.840389 
L 221.821257 147.417966 
L 237.259993 146.491257 
L 252.698728 159.097281 
L 268.137463 147.720214 
L 283.576198 160.725425 
L 299.014933 164.925899 
L 314.453668 163.056037 
L 329.892404 164.9796 
L 345.331139 165.747821 
L 360.769874 165.862525 
L 376.208609 165.912491 
L 391.647344 165.902852 
L 407.08608 165.460084 
" style="fill:none;stroke:#1b9e77;stroke-linecap:square;stroke-opacity:0.5;stroke-width:1.5;"/>
   </g>
   <g id="line2d_31">
    <path clip-path="url(#p89f6a89311)" d="M 51.99517 162.415499 
L 67.433906 160.971906 
L 82.872641 151.038088 
L 98.311376 154.651072 
L 113.750111 159.587672 
L 129.188846 157.969353 
L 144.627582 153.959353 
L 160.066317 162.827767 
L 175.505052 161.73001 
L 190.943787 122.539049 
L 206.382522 151.533806 
L 221.821257 161.659476 
L 237.259993 160.284988 
L 252.698728 150.724379 
L 268.137463 154.333316 
L 283.576198 158.194316 
L 299.014933 151.08613 
L 314.453668 162.09121 
L 329.892404 165.387963 
L 345.331139 165.499838 
L 360.769874 165.712327 
L 376.208609 165.799639 
L 391.647344 165.86941 
L 407.08608 165.940294 
" style="fill:none;stroke:#1b9e77;stroke-linecap:square;stroke-opacity:0.5;stroke-width:1.5;"/>
   </g>
   <g id="line2d_32">
    <path clip-path="url(#p89f6a89311)" d="M 51.99517 163.323035 
L 67.433906 162.480168 
L 82.872641 153.228812 
L 98.311376 143.17571 
L 113.750111 149.287997 
L 129.188846 154.076336 
L 144.627582 125.791037 
L 160.066317 159.633194 
L 175.505052 165.602726 
L 190.943787 165.87167 
L 206.382522 165.38915 
L 221.821257 165.808897 
L 237.259993 146.057192 
L 252.698728 155.057657 
L 268.137463 161.504502 
L 283.576198 165.773148 
L 299.014933 164.823713 
L 314.453668 165.153762 
L 329.892404 160.055161 
L 345.331139 150.324908 
L 360.769874 157.252319 
L 376.208609 163.261187 
L 391.647344 163.620222 
L 407.08608 165.254362 
" style="fill:none;stroke:#1b9e77;stroke-linecap:square;stroke-opacity:0.5;stroke-width:1.5;"/>
   </g>
   <g id="line2d_33">
    <path clip-path="url(#p89f6a89311)" d="M 51.99517 164.76144 
L 67.433906 145.912181 
L 82.872641 140.060482 
L 98.311376 151.066854 
L 113.750111 150.333152 
L 129.188846 160.966168 
L 144.627582 162.92385 
L 160.066317 160.260898 
L 175.505052 165.289564 
L 190.943787 165.415776 
L 206.382522 165.765838 
L 221.821257 165.82454 
L 237.259993 165.814048 
L 252.698728 165.896075 
L 268.137463 165.702905 
L 283.576198 165.806437 
L 299.014933 165.920026 
L 314.453668 165.789764 
L 329.892404 165.843362 
L 345.331139 165.471938 
L 360.769874 165.054368 
L 376.208609 165.76224 
L 391.647344 147.256671 
L 407.08608 88.908289 
" style="fill:none;stroke:#1b9e77;stroke-linecap:square;stroke-opacity:0.5;stroke-width:1.5;"/>
   </g>
   <g id="line2d_34">
    <path clip-path="url(#p89f6a89311)" d="M 51.99517 160.580821 
L 67.433906 161.282003 
L 82.872641 156.170412 
L 98.311376 164.074184 
L 113.750111 165.121965 
L 129.188846 165.409325 
L 144.627582 165.863681 
L 160.066317 165.910692 
L 175.505052 165.923115 
L 190.943787 165.917508 
L 206.382522 165.929799 
L 221.821257 165.874842 
L 237.259993 164.053849 
L 252.698728 161.113621 
L 268.137463 162.435333 
L 283.576198 160.640829 
L 299.014933 155.731485 
L 314.453668 157.772151 
L 329.892404 154.508866 
L 345.331139 97.2588 
L 360.769874 140.094226 
L 376.208609 148.917054 
L 391.647344 157.91076 
L 407.08608 163.311544 
" style="fill:none;stroke:#1b9e77;stroke-linecap:square;stroke-opacity:0.5;stroke-width:1.5;"/>
   </g>
   <g id="line2d_35">
    <path clip-path="url(#p89f6a89311)" d="M 51.99517 165.810238 
L 67.433906 165.47105 
L 82.872641 165.569385 
L 98.311376 165.7434 
L 113.750111 165.805453 
L 129.188846 165.861298 
L 144.627582 165.884374 
L 160.066317 165.913234 
L 175.505052 165.926208 
L 190.943787 165.940563 
L 206.382522 165.943099 
L 221.821257 165.94275 
L 237.259993 165.931694 
L 252.698728 165.831542 
L 268.137463 159.685635 
L 283.576198 145.088529 
L 299.014933 143.561006 
L 314.453668 130.58284 
L 329.892404 125.471908 
L 345.331139 133.821373 
L 360.769874 137.392519 
L 376.208609 164.338781 
L 391.647344 164.633026 
L 407.08608 165.656958 
" style="fill:none;stroke:#1b9e77;stroke-linecap:square;stroke-opacity:0.5;stroke-width:1.5;"/>
   </g>
   <g id="line2d_36">
    <path clip-path="url(#p89f6a89311)" d="M 51.99517 165.943442 
L 67.433906 165.88028 
L 82.872641 165.833984 
L 98.311376 165.365107 
L 113.750111 161.442653 
L 129.188846 161.993363 
L 144.627582 160.160554 
L 160.066317 157.533441 
L 175.505052 152.196611 
L 190.943787 161.884912 
L 206.382522 164.272248 
L 221.821257 156.203289 
L 237.259993 62.313912 
L 252.698728 141.288112 
L 268.137463 163.853117 
L 283.576198 165.552979 
L 299.014933 165.866608 
L 314.453668 164.398066 
L 329.892404 165.28845 
L 345.331139 164.993768 
L 360.769874 164.150196 
L 376.208609 164.035317 
L 391.647344 165.463411 
L 407.08608 165.893041 
" style="fill:none;stroke:#1b9e77;stroke-linecap:square;stroke-opacity:0.5;stroke-width:1.5;"/>
   </g>
   <g id="line2d_37">
    <path clip-path="url(#p89f6a89311)" d="M 51.99517 164.778311 
L 67.433906 151.468842 
L 82.872641 155.1803 
L 98.311376 162.353581 
L 113.750111 157.849796 
L 129.188846 84.382627 
L 144.627582 104.29463 
L 160.066317 161.794204 
L 175.505052 163.575932 
L 190.943787 164.454969 
L 206.382522 165.542738 
L 221.821257 165.744123 
L 237.259993 165.760302 
L 252.698728 165.757664 
L 268.137463 165.785968 
L 283.576198 165.877974 
L 299.014933 165.912627 
L 314.453668 165.91482 
L 329.892404 165.899875 
L 345.331139 165.910433 
L 360.769874 165.928621 
L 376.208609 165.948904 
L 391.647344 165.946337 
L 407.08608 165.743291 
" style="fill:none;stroke:#1b9e77;stroke-linecap:square;stroke-opacity:0.5;stroke-width:1.5;"/>
   </g>
   <g id="line2d_38">
    <path clip-path="url(#p89f6a89311)" d="M 51.99517 136.982238 
L 67.433906 138.322587 
L 82.872641 148.779164 
L 98.311376 157.197837 
L 113.750111 157.217783 
L 129.188846 162.571194 
L 144.627582 164.786092 
L 160.066317 165.0801 
L 175.505052 153.019306 
L 190.943787 147.189632 
L 206.382522 158.804959 
L 221.821257 164.839484 
L 237.259993 165.193919 
L 252.698728 164.577127 
L 268.137463 163.468108 
L 283.576198 158.938933 
L 299.014933 153.89116 
L 314.453668 156.271444 
L 329.892404 160.790631 
L 345.331139 162.211515 
L 360.769874 162.110546 
L 376.208609 164.46261 
L 391.647344 165.50103 
L 407.08608 159.599464 
" style="fill:none;stroke:#1b9e77;stroke-linecap:square;stroke-opacity:0.5;stroke-width:1.5;"/>
   </g>
   <g id="line2d_39">
    <path clip-path="url(#p89f6a89311)" d="M 51.99517 165.756239 
L 67.433906 165.927809 
L 82.872641 165.59865 
L 98.311376 164.630834 
L 113.750111 123.402778 
L 129.188846 138.701392 
L 144.627582 164.22599 
L 160.066317 162.430386 
L 175.505052 145.547879 
L 190.943787 141.139479 
L 206.382522 157.409793 
L 221.821257 164.119897 
L 237.259993 158.931454 
L 252.698728 150.407623 
L 268.137463 164.70796 
L 283.576198 165.69203 
L 299.014933 165.127509 
L 314.453668 154.31466 
L 329.892404 160.759814 
L 345.331139 163.04104 
L 360.769874 159.395053 
L 376.208609 160.256416 
L 391.647344 164.535387 
L 407.08608 165.746792 
" style="fill:none;stroke:#1b9e77;stroke-linecap:square;stroke-opacity:0.5;stroke-width:1.5;"/>
   </g>
   <g id="line2d_40">
    <path clip-path="url(#p89f6a89311)" d="M 51.99517 150.05391 
L 67.433906 156.212615 
L 82.872641 157.327704 
L 98.311376 155.184722 
L 113.750111 157.598788 
L 129.188846 161.91425 
L 144.627582 162.141573 
L 160.066317 146.654517 
L 175.505052 141.258607 
L 190.943787 125.783194 
L 206.382522 148.686249 
L 221.821257 151.054195 
L 237.259993 157.001319 
L 252.698728 162.120049 
L 268.137463 165.804097 
L 283.576198 165.878717 
L 299.014933 165.830443 
L 314.453668 165.870924 
L 329.892404 165.909287 
L 345.331139 165.930288 
L 360.769874 165.935236 
L 376.208609 165.952634 
L 391.647344 165.953695 
L 407.08608 165.749844 
" style="fill:none;stroke:#1b9e77;stroke-linecap:square;stroke-opacity:0.5;stroke-width:1.5;"/>
   </g>
   <g id="line2d_41">
    <path clip-path="url(#p89f6a89311)" d="M 51.99517 165.809055 
L 67.433906 159.028271 
L 82.872641 160.486508 
L 98.311376 162.221096 
L 113.750111 164.72658 
L 129.188846 165.575522 
L 144.627582 165.773963 
L 160.066317 165.492951 
L 175.505052 164.011846 
L 190.943787 164.618998 
L 206.382522 111.962748 
L 221.821257 92.254603 
L 237.259993 147.766963 
L 252.698728 159.457554 
L 268.137463 163.729379 
L 283.576198 164.478719 
L 299.014933 165.316783 
L 314.453668 165.852036 
L 329.892404 165.76555 
L 345.331139 165.158573 
L 360.769874 164.558284 
L 376.208609 162.007148 
L 391.647344 161.06425 
L 407.08608 164.689485 
" style="fill:none;stroke:#1b9e77;stroke-linecap:square;stroke-opacity:0.5;stroke-width:1.5;"/>
   </g>
   <g id="line2d_42">
    <path clip-path="url(#p89f6a89311)" d="M 51.99517 129.887463 
L 67.433906 80.299138 
L 82.872641 128.354365 
L 98.311376 154.102026 
L 113.750111 160.671845 
L 129.188846 161.49425 
L 144.627582 162.86422 
L 160.066317 163.791474 
L 175.505052 164.274205 
L 190.943787 165.204672 
L 206.382522 165.597442 
L 221.821257 165.609413 
L 237.259993 165.574218 
L 252.698728 165.78425 
L 268.137463 165.874646 
L 283.576198 165.709861 
L 299.014933 165.724534 
L 314.453668 165.908028 
L 329.892404 165.885052 
L 345.331139 165.894132 
L 360.769874 165.890998 
L 376.208609 165.900077 
L 391.647344 165.880619 
L 407.08608 165.629933 
" style="fill:none;stroke:#1b9e77;stroke-linecap:square;stroke-opacity:0.5;stroke-width:1.5;"/>
   </g>
   <g id="line2d_43">
    <path clip-path="url(#p89f6a89311)" d="M 51.99517 162.911059 
L 67.433906 159.753639 
L 82.872641 146.058337 
L 98.311376 124.807876 
L 113.750111 140.696091 
L 129.188846 163.553941 
L 144.627582 138.256458 
L 160.066317 157.611015 
L 175.505052 165.789097 
L 190.943787 165.893554 
L 206.382522 165.884534 
L 221.821257 165.78712 
L 237.259993 160.724386 
L 252.698728 165.860326 
L 268.137463 164.928646 
L 283.576198 165.639565 
L 299.014933 164.503765 
L 314.453668 158.301539 
L 329.892404 155.398858 
L 345.331139 147.15534 
L 360.769874 158.329453 
L 376.208609 164.943309 
L 391.647344 164.287093 
L 407.08608 164.731865 
" style="fill:none;stroke:#1b9e77;stroke-linecap:square;stroke-opacity:0.5;stroke-width:1.5;"/>
   </g>
   <g id="line2d_44">
    <path clip-path="url(#p89f6a89311)" d="M 51.99517 152.756471 
L 67.433906 157.955182 
L 82.872641 154.312313 
L 98.311376 133.429341 
L 113.750111 151.756808 
L 129.188846 160.168429 
L 144.627582 164.740254 
L 160.066317 162.320783 
L 175.505052 143.556576 
L 190.943787 143.960505 
L 206.382522 155.149951 
L 221.821257 151.671595 
L 237.259993 155.086448 
L 252.698728 161.574868 
L 268.137463 165.336008 
L 283.576198 165.752353 
L 299.014933 165.874472 
L 314.453668 165.604702 
L 329.892404 165.63677 
L 345.331139 164.135797 
L 360.769874 160.581343 
L 376.208609 160.25775 
L 391.647344 164.457315 
L 407.08608 165.730828 
" style="fill:none;stroke:#1b9e77;stroke-linecap:square;stroke-opacity:0.5;stroke-width:1.5;"/>
   </g>
   <g id="line2d_45">
    <path clip-path="url(#p89f6a89311)" d="M 51.99517 165.540824 
L 67.433906 164.911934 
L 82.872641 165.204262 
L 98.311376 165.632096 
L 113.750111 165.760056 
L 129.188846 165.774647 
L 144.627582 165.723615 
L 160.066317 165.797725 
L 175.505052 165.859918 
L 190.943787 165.904822 
L 206.382522 165.916646 
L 221.821257 165.921791 
L 237.259993 165.916107 
L 252.698728 165.927497 
L 268.137463 164.494384 
L 283.576198 140.778803 
L 299.014933 152.032671 
L 314.453668 144.083465 
L 329.892404 126.325154 
L 345.331139 138.827862 
L 360.769874 143.522946 
L 376.208609 149.430402 
L 391.647344 153.203767 
L 407.08608 159.315467 
" style="fill:none;stroke:#1b9e77;stroke-linecap:square;stroke-opacity:0.5;stroke-width:1.5;"/>
   </g>
   <g id="line2d_46">
    <path clip-path="url(#p89f6a89311)" d="M 51.99517 165.883842 
L 67.433906 165.831096 
L 82.872641 165.864387 
L 98.311376 165.936988 
L 113.750111 165.93728 
L 129.188846 165.850127 
L 144.627582 157.886526 
L 160.066317 123.527647 
L 175.505052 104.75438 
L 190.943787 139.582941 
L 206.382522 163.337396 
L 221.821257 165.066525 
L 237.259993 151.274642 
L 252.698728 143.167046 
L 268.137463 162.28847 
L 283.576198 163.185161 
L 299.014933 163.356203 
L 314.453668 164.539042 
L 329.892404 165.360089 
L 345.331139 165.72664 
L 360.769874 165.852863 
L 376.208609 165.928562 
L 391.647344 165.935941 
L 407.08608 165.733068 
" style="fill:none;stroke:#1b9e77;stroke-linecap:square;stroke-opacity:0.5;stroke-width:1.5;"/>
   </g>
   <g id="line2d_47">
    <path clip-path="url(#p89f6a89311)" d="M 51.99517 165.842205 
L 67.433906 165.937599 
L 82.872641 165.931269 
L 98.311376 165.942679 
L 113.750111 165.913446 
L 129.188846 165.902511 
L 144.627582 165.923606 
L 160.066317 165.866316 
L 175.505052 164.021891 
L 190.943787 163.847759 
L 206.382522 159.948554 
L 221.821257 157.096667 
L 237.259993 124.82645 
L 252.698728 58.661256 
L 268.137463 148.663501 
L 283.576198 163.143884 
L 299.014933 165.149413 
L 314.453668 164.537283 
L 329.892404 165.432175 
L 345.331139 165.760137 
L 360.769874 165.806596 
L 376.208609 165.861478 
L 391.647344 165.852723 
L 407.08608 165.937473 
" style="fill:none;stroke:#1b9e77;stroke-linecap:square;stroke-opacity:0.5;stroke-width:1.5;"/>
   </g>
   <g id="line2d_48">
    <path clip-path="url(#p89f6a89311)" d="M 51.99517 153.17578 
L 67.433906 154.826282 
L 82.872641 161.330806 
L 98.311376 164.834458 
L 113.750111 165.657669 
L 129.188846 165.635829 
L 144.627582 165.714884 
L 160.066317 165.808276 
L 175.505052 165.852073 
L 190.943787 165.890135 
L 206.382522 165.909209 
L 221.821257 165.93032 
L 237.259993 165.922918 
L 252.698728 165.878629 
L 268.137463 157.178486 
L 283.576198 132.54969 
L 299.014933 134.791457 
L 314.453668 129.249608 
L 329.892404 154.318834 
L 345.331139 163.081823 
L 360.769874 164.89063 
L 376.208609 157.988319 
L 391.647344 140.798435 
L 407.08608 164.592312 
" style="fill:none;stroke:#1b9e77;stroke-linecap:square;stroke-opacity:0.5;stroke-width:1.5;"/>
   </g>
   <g id="line2d_49">
    <path clip-path="url(#p89f6a89311)" d="M 51.99517 164.309594 
L 67.433906 164.403254 
L 82.872641 142.276534 
L 98.311376 149.798079 
L 113.750111 122.141456 
L 129.188846 145.835009 
L 144.627582 162.071125 
L 160.066317 165.626144 
L 175.505052 165.883741 
L 190.943787 165.774216 
L 206.382522 165.872354 
L 221.821257 165.915772 
L 237.259993 165.540165 
L 252.698728 165.812863 
L 268.137463 163.650756 
L 283.576198 165.367476 
L 299.014933 164.03407 
L 314.453668 144.172377 
L 329.892404 143.922189 
L 345.331139 154.917576 
L 360.769874 155.502304 
L 376.208609 163.931894 
L 391.647344 163.063771 
L 407.08608 161.984141 
" style="fill:none;stroke:#1b9e77;stroke-linecap:square;stroke-opacity:0.5;stroke-width:1.5;"/>
   </g>
   <g id="line2d_50">
    <path clip-path="url(#p89f6a89311)" d="M 51.99517 164.277298 
L 67.433906 162.94343 
L 82.872641 157.322917 
L 98.311376 158.112311 
L 113.750111 138.056963 
L 129.188846 122.430029 
L 144.627582 153.480945 
L 160.066317 154.145566 
L 175.505052 152.100928 
L 190.943787 154.579007 
L 206.382522 142.063075 
L 221.821257 155.384375 
L 237.259993 162.826119 
L 252.698728 165.653694 
L 268.137463 164.559071 
L 283.576198 164.935022 
L 299.014933 161.681204 
L 314.453668 162.561762 
L 329.892404 165.637967 
L 345.331139 165.759202 
L 360.769874 165.70384 
L 376.208609 165.83342 
L 391.647344 165.926628 
L 407.08608 165.83209 
" style="fill:none;stroke:#1b9e77;stroke-linecap:square;stroke-opacity:0.5;stroke-width:1.5;"/>
   </g>
   <g id="line2d_51">
    <path clip-path="url(#p89f6a89311)" d="M 51.99517 145.313173 
L 67.433906 110.984118 
L 82.872641 126.421206 
L 98.311376 155.021171 
L 113.750111 162.598899 
L 129.188846 163.320807 
L 144.627582 162.792687 
L 160.066317 164.071458 
L 175.505052 165.115119 
L 190.943787 165.670746 
L 206.382522 165.768658 
L 221.821257 165.555871 
L 237.259993 164.941237 
L 252.698728 165.300829 
L 268.137463 164.071006 
L 283.576198 127.255539 
L 299.014933 160.037649 
L 314.453668 164.903494 
L 329.892404 164.90853 
L 345.331139 165.579133 
L 360.769874 165.695424 
L 376.208609 165.67421 
L 391.647344 165.693019 
L 407.08608 165.112882 
" style="fill:none;stroke:#1b9e77;stroke-linecap:square;stroke-opacity:0.5;stroke-width:1.5;"/>
   </g>
   <g id="line2d_52">
    <path clip-path="url(#p89f6a89311)" d="M 51.99517 162.556584 
L 67.433906 161.067061 
L 82.872641 162.128325 
L 98.311376 164.846132 
L 113.750111 165.525735 
L 129.188846 165.816204 
L 144.627582 165.853449 
L 160.066317 165.85739 
L 175.505052 165.825462 
L 190.943787 165.781892 
L 206.382522 165.591917 
L 221.821257 165.443367 
L 237.259993 165.421557 
L 252.698728 165.159135 
L 268.137463 165.366163 
L 283.576198 165.550783 
L 299.014933 165.543393 
L 314.453668 165.679332 
L 329.892404 165.591772 
L 345.331139 164.323264 
L 360.769874 152.27114 
L 376.208609 140.994216 
L 391.647344 130.613815 
L 407.08608 68.998773 
" style="fill:none;stroke:#1b9e77;stroke-linecap:square;stroke-opacity:0.5;stroke-width:1.5;"/>
   </g>
   <g id="line2d_53">
    <path clip-path="url(#p89f6a89311)" d="M 51.99517 165.928824 
L 67.433906 165.896254 
L 82.872641 165.927143 
L 98.311376 165.941864 
L 113.750111 165.718563 
L 129.188846 165.224328 
L 144.627582 163.264919 
L 160.066317 161.37079 
L 175.505052 159.16139 
L 190.943787 162.482805 
L 206.382522 164.601261 
L 221.821257 157.056611 
L 237.259993 105.746349 
L 252.698728 86.925623 
L 268.137463 159.315057 
L 283.576198 151.835328 
L 299.014933 164.414447 
L 314.453668 165.715329 
L 329.892404 165.684137 
L 345.331139 165.838301 
L 360.769874 165.900254 
L 376.208609 165.945995 
L 391.647344 165.954084 
L 407.08608 165.95721 
" style="fill:none;stroke:#1b9e77;stroke-linecap:square;stroke-opacity:0.5;stroke-width:1.5;"/>
   </g>
   <g id="line2d_54">
    <path clip-path="url(#p89f6a89311)" d="M 51.99517 165.934847 
L 67.433906 165.881683 
L 82.872641 165.867352 
L 98.311376 165.729855 
L 113.750111 165.688219 
L 129.188846 165.722954 
L 144.627582 162.983658 
L 160.066317 156.556078 
L 175.505052 158.113307 
L 190.943787 157.174819 
L 206.382522 153.260432 
L 221.821257 151.541842 
L 237.259993 152.001098 
L 252.698728 154.250283 
L 268.137463 155.493735 
L 283.576198 151.643702 
L 299.014933 137.332916 
L 314.453668 151.782482 
L 329.892404 158.910459 
L 345.331139 148.777053 
L 360.769874 156.537785 
L 376.208609 160.875021 
L 391.647344 163.987905 
L 407.08608 165.759378 
" style="fill:none;stroke:#1b9e77;stroke-linecap:square;stroke-opacity:0.5;stroke-width:1.5;"/>
   </g>
   <g id="line2d_55">
    <path clip-path="url(#p89f6a89311)" d="M 51.99517 165.889765 
L 67.433906 165.796619 
L 82.872641 165.771391 
L 98.311376 164.217858 
L 113.750111 164.083437 
L 129.188846 163.659925 
L 144.627582 163.125528 
L 160.066317 164.183616 
L 175.505052 165.33857 
L 190.943787 165.471911 
L 206.382522 165.518011 
L 221.821257 165.650639 
L 237.259993 165.807247 
L 252.698728 165.851115 
L 268.137463 165.859147 
L 283.576198 165.821813 
L 299.014933 165.20618 
L 314.453668 165.565225 
L 329.892404 163.233102 
L 345.331139 147.883997 
L 360.769874 110.221842 
L 376.208609 107.735023 
L 391.647344 131.94706 
L 407.08608 157.967844 
" style="fill:none;stroke:#1b9e77;stroke-linecap:square;stroke-opacity:0.5;stroke-width:1.5;"/>
   </g>
   <g id="line2d_56">
    <path clip-path="url(#p89f6a89311)" d="M 51.99517 165.934593 
L 67.433906 165.95847 
L 82.872641 165.913859 
L 98.311376 165.929953 
L 113.750111 165.691131 
L 129.188846 129.334372 
L 144.627582 162.454225 
L 160.066317 164.789578 
L 175.505052 165.398386 
L 190.943787 163.712497 
L 206.382522 149.321493 
L 221.821257 115.775631 
L 237.259993 157.400288 
L 252.698728 149.081836 
L 268.137463 145.314303 
L 283.576198 152.814672 
L 299.014933 165.760129 
L 314.453668 165.763558 
L 329.892404 164.115304 
L 345.331139 160.004745 
L 360.769874 154.044459 
L 376.208609 165.752301 
L 391.647344 165.884004 
L 407.08608 165.657077 
" style="fill:none;stroke:#1b9e77;stroke-linecap:square;stroke-opacity:0.5;stroke-width:1.5;"/>
   </g>
   <g id="line2d_57">
    <path clip-path="url(#p89f6a89311)" d="M 51.99517 154.595982 
L 67.433906 158.274388 
L 82.872641 148.143739 
L 98.311376 134.793432 
L 113.750111 149.829569 
L 129.188846 154.825006 
L 144.627582 151.991486 
L 160.066317 143.577209 
L 175.505052 134.325779 
L 190.943787 147.704267 
L 206.382522 158.269163 
L 221.821257 165.763566 
L 237.259993 165.260319 
L 252.698728 165.407835 
L 268.137463 165.785879 
L 283.576198 165.870591 
L 299.014933 165.856289 
L 314.453668 165.872284 
L 329.892404 165.916788 
L 345.331139 165.945402 
L 360.769874 165.952211 
L 376.208609 165.954887 
L 391.647344 165.950029 
L 407.08608 165.940759 
" style="fill:none;stroke:#1b9e77;stroke-linecap:square;stroke-opacity:0.5;stroke-width:1.5;"/>
   </g>
   <g id="line2d_58">
    <path clip-path="url(#p89f6a89311)" d="M 51.99517 161.753687 
L 67.433906 155.00407 
L 82.872641 159.600997 
L 98.311376 163.372131 
L 113.750111 164.118827 
L 129.188846 164.1152 
L 144.627582 164.281014 
L 160.066317 165.286495 
L 175.505052 162.419489 
L 190.943787 152.236907 
L 206.382522 150.041188 
L 221.821257 150.450513 
L 237.259993 151.486166 
L 252.698728 101.239133 
L 268.137463 151.562004 
L 283.576198 161.007177 
L 299.014933 159.070781 
L 314.453668 162.009117 
L 329.892404 164.455834 
L 345.331139 165.463456 
L 360.769874 165.609978 
L 376.208609 165.811613 
L 391.647344 165.87447 
L 407.08608 165.536618 
" style="fill:none;stroke:#1b9e77;stroke-linecap:square;stroke-opacity:0.5;stroke-width:1.5;"/>
   </g>
   <g id="line2d_59">
    <path clip-path="url(#p89f6a89311)" d="M 51.99517 165.846194 
L 67.433906 165.921229 
L 82.872641 165.910199 
L 98.311376 165.936051 
L 113.750111 165.916296 
L 129.188846 165.903249 
L 144.627582 165.716857 
L 160.066317 165.709578 
L 175.505052 162.715906 
L 190.943787 140.006022 
L 206.382522 157.637897 
L 221.821257 156.475528 
L 237.259993 154.102158 
L 252.698728 144.206146 
L 268.137463 133.484041 
L 283.576198 150.421325 
L 299.014933 160.248932 
L 314.453668 162.048679 
L 329.892404 159.363599 
L 345.331139 157.913165 
L 360.769874 138.88006 
L 376.208609 157.45504 
L 391.647344 164.799181 
L 407.08608 165.189536 
" style="fill:none;stroke:#1b9e77;stroke-linecap:square;stroke-opacity:0.5;stroke-width:1.5;"/>
   </g>
   <g id="line2d_60">
    <path clip-path="url(#p89f6a89311)" d="M 51.99517 134.759646 
L 67.433906 140.171419 
L 82.872641 156.874272 
L 98.311376 131.138393 
L 113.750111 158.974996 
L 129.188846 163.002313 
L 144.627582 163.063572 
L 160.066317 164.040348 
L 175.505052 162.641386 
L 190.943787 164.367368 
L 206.382522 164.198988 
L 221.821257 163.648376 
L 237.259993 163.681549 
L 252.698728 158.827546 
L 268.137463 155.618337 
L 283.576198 161.630767 
L 299.014933 161.567363 
L 314.453668 158.219299 
L 329.892404 160.426644 
L 345.331139 162.793691 
L 360.769874 162.559164 
L 376.208609 164.277002 
L 391.647344 165.125022 
L 407.08608 150.199402 
" style="fill:none;stroke:#1b9e77;stroke-linecap:square;stroke-opacity:0.5;stroke-width:1.5;"/>
   </g>
   <g id="line2d_61">
    <path clip-path="url(#p89f6a89311)" d="M 51.99517 165.91211 
L 67.433906 165.884096 
L 82.872641 164.045898 
L 98.311376 165.443366 
L 113.750111 163.161597 
L 129.188846 28.563208 
L 144.627582 148.955077 
L 160.066317 162.386624 
L 175.505052 163.529706 
L 190.943787 160.421069 
L 206.382522 155.328464 
L 221.821257 158.268226 
L 237.259993 165.274958 
L 252.698728 165.611523 
L 268.137463 165.762713 
L 283.576198 165.835977 
L 299.014933 165.852943 
L 314.453668 165.888185 
L 329.892404 165.910895 
L 345.331139 165.940326 
L 360.769874 165.952775 
L 376.208609 165.959517 
L 391.647344 165.96 
L 407.08608 165.957604 
" style="fill:none;stroke:#1b9e77;stroke-linecap:square;stroke-opacity:0.5;stroke-width:1.5;"/>
   </g>
   <g id="line2d_62">
    <path clip-path="url(#p89f6a89311)" d="M 51.99517 165.869381 
L 67.433906 165.953935 
L 82.872641 165.864713 
L 98.311376 165.489862 
L 113.750111 161.303623 
L 129.188846 122.544616 
L 144.627582 165.533616 
L 160.066317 162.663883 
L 175.505052 114.738319 
L 190.943787 120.213512 
L 206.382522 131.493184 
L 221.821257 164.973189 
L 237.259993 165.652695 
L 252.698728 164.963847 
L 268.137463 165.405545 
L 283.576198 165.697443 
L 299.014933 165.740848 
L 314.453668 164.005997 
L 329.892404 165.629771 
L 345.331139 165.808902 
L 360.769874 165.783847 
L 376.208609 165.92314 
L 391.647344 165.226422 
L 407.08608 165.326577 
" style="fill:none;stroke:#1b9e77;stroke-linecap:square;stroke-opacity:0.5;stroke-width:1.5;"/>
   </g>
   <g id="line2d_63">
    <path clip-path="url(#p89f6a89311)" d="M 51.99517 158.115677 
L 67.433906 154.225347 
L 82.872641 159.6714 
L 98.311376 158.04961 
L 113.750111 129.519517 
L 129.188846 144.215872 
L 144.627582 160.454502 
L 160.066317 143.376374 
L 175.505052 158.388066 
L 190.943787 153.64154 
L 206.382522 148.228076 
L 221.821257 150.981841 
L 237.259993 160.426826 
L 252.698728 156.821204 
L 268.137463 163.441352 
L 283.576198 165.587983 
L 299.014933 165.765191 
L 314.453668 165.714301 
L 329.892404 165.814977 
L 345.331139 165.885463 
L 360.769874 165.919325 
L 376.208609 165.954073 
L 391.647344 165.929803 
L 407.08608 165.678538 
" style="fill:none;stroke:#1b9e77;stroke-linecap:square;stroke-opacity:0.5;stroke-width:1.5;"/>
   </g>
   <g id="line2d_64">
    <path clip-path="url(#p89f6a89311)" d="M 51.99517 165.936287 
L 67.433906 165.888956 
L 82.872641 165.894272 
L 98.311376 165.930121 
L 113.750111 165.93951 
L 129.188846 165.953077 
L 144.627582 165.943353 
L 160.066317 165.600442 
L 175.505052 159.000501 
L 190.943787 147.620823 
L 206.382522 153.830519 
L 221.821257 158.082775 
L 237.259993 141.687715 
L 252.698728 158.790163 
L 268.137463 163.380034 
L 283.576198 154.082914 
L 299.014933 155.591511 
L 314.453668 159.559705 
L 329.892404 160.117361 
L 345.331139 163.34377 
L 360.769874 111.510981 
L 376.208609 150.860895 
L 391.647344 162.699837 
L 407.08608 164.56134 
" style="fill:none;stroke:#1b9e77;stroke-linecap:square;stroke-opacity:0.5;stroke-width:1.5;"/>
   </g>
   <g id="line2d_65">
    <path clip-path="url(#p89f6a89311)" d="M 51.99517 165.804062 
L 67.433906 165.638657 
L 82.872641 165.797978 
L 98.311376 165.878242 
L 113.750111 165.880408 
L 129.188846 165.902289 
L 144.627582 165.88517 
L 160.066317 165.797447 
L 175.505052 165.387534 
L 190.943787 164.891501 
L 206.382522 159.596751 
L 221.821257 142.981691 
L 237.259993 131.380044 
L 252.698728 121.808358 
L 268.137463 138.916301 
L 283.576198 136.492856 
L 299.014933 143.573677 
L 314.453668 165.221264 
L 329.892404 165.734394 
L 345.331139 165.791716 
L 360.769874 165.777584 
L 376.208609 165.85994 
L 391.647344 165.902509 
L 407.08608 165.906493 
" style="fill:none;stroke:#1b9e77;stroke-linecap:square;stroke-opacity:0.5;stroke-width:1.5;"/>
   </g>
   <g id="line2d_66">
    <path clip-path="url(#p89f6a89311)" d="M 51.99517 160.629097 
L 67.433906 151.585807 
L 82.872641 153.987595 
L 98.311376 158.557117 
L 113.750111 138.719072 
L 129.188846 150.319552 
L 144.627582 127.851362 
L 160.066317 155.58463 
L 175.505052 165.062333 
L 190.943787 165.370871 
L 206.382522 160.550644 
L 221.821257 143.028855 
L 237.259993 156.197607 
L 252.698728 165.685336 
L 268.137463 165.894346 
L 283.576198 165.487503 
L 299.014933 154.14038 
L 314.453668 164.703416 
L 329.892404 164.821319 
L 345.331139 163.520716 
L 360.769874 164.5162 
L 376.208609 165.123135 
L 391.647344 165.682496 
L 407.08608 164.787474 
" style="fill:none;stroke:#1b9e77;stroke-linecap:square;stroke-opacity:0.5;stroke-width:1.5;"/>
   </g>
   <g id="line2d_67">
    <path clip-path="url(#p89f6a89311)" d="M 51.99517 165.930911 
L 67.433906 165.865467 
L 82.872641 165.9043 
L 98.311376 165.774716 
L 113.750111 165.338458 
L 129.188846 165.378106 
L 144.627582 164.454748 
L 160.066317 161.885977 
L 175.505052 157.700444 
L 190.943787 159.275222 
L 206.382522 158.453615 
L 221.821257 151.618772 
L 237.259993 104.119337 
L 252.698728 159.961956 
L 268.137463 165.394603 
L 283.576198 155.264308 
L 299.014933 108.119434 
L 314.453668 157.828486 
L 329.892404 165.134454 
L 345.331139 165.443707 
L 360.769874 165.547092 
L 376.208609 165.726412 
L 391.647344 165.752747 
L 407.08608 165.933588 
" style="fill:none;stroke:#1b9e77;stroke-linecap:square;stroke-opacity:0.5;stroke-width:1.5;"/>
   </g>
   <g id="line2d_68">
    <path clip-path="url(#p89f6a89311)" d="M 51.99517 128.752131 
L 67.433906 112.817816 
L 82.872641 126.879786 
L 98.311376 161.240315 
L 113.750111 164.845714 
L 129.188846 162.572932 
L 144.627582 145.204022 
L 160.066317 160.848456 
L 175.505052 161.407779 
L 190.943787 149.526121 
L 206.382522 163.648304 
L 221.821257 164.804248 
L 237.259993 165.078535 
L 252.698728 165.506181 
L 268.137463 165.791932 
L 283.576198 165.858945 
L 299.014933 165.851322 
L 314.453668 165.885387 
L 329.892404 165.908966 
L 345.331139 165.922701 
L 360.769874 165.926876 
L 376.208609 165.940409 
L 391.647344 165.939394 
L 407.08608 165.648592 
" style="fill:none;stroke:#1b9e77;stroke-linecap:square;stroke-opacity:0.5;stroke-width:1.5;"/>
   </g>
   <g id="line2d_69">
    <path clip-path="url(#p89f6a89311)" d="M 51.99517 159.449618 
L 67.433906 157.733906 
L 82.872641 160.982705 
L 98.311376 164.857107 
L 113.750111 165.54857 
L 129.188846 165.676403 
L 144.627582 165.592496 
L 160.066317 165.721763 
L 175.505052 165.83259 
L 190.943787 165.857787 
L 206.382522 165.819536 
L 221.821257 165.683312 
L 237.259993 165.529451 
L 252.698728 165.761758 
L 268.137463 165.811321 
L 283.576198 165.530285 
L 299.014933 165.204315 
L 314.453668 165.089367 
L 329.892404 162.375087 
L 345.331139 76.427949 
L 360.769874 110.353467 
L 376.208609 163.227642 
L 391.647344 164.056267 
L 407.08608 153.684159 
" style="fill:none;stroke:#1b9e77;stroke-linecap:square;stroke-opacity:0.5;stroke-width:1.5;"/>
   </g>
   <g id="line2d_70">
    <path clip-path="url(#p89f6a89311)" d="M 51.99517 165.878998 
L 67.433906 165.529866 
L 82.872641 163.531013 
L 98.311376 155.282331 
L 113.750111 159.564945 
L 129.188846 155.018912 
L 144.627582 156.318084 
L 160.066317 159.724646 
L 175.505052 154.029752 
L 190.943787 153.067334 
L 206.382522 158.376573 
L 221.821257 165.490133 
L 237.259993 162.447854 
L 252.698728 146.705596 
L 268.137463 155.363069 
L 283.576198 154.931901 
L 299.014933 155.85791 
L 314.453668 155.060953 
L 329.892404 157.904635 
L 345.331139 158.828038 
L 360.769874 155.164793 
L 376.208609 154.212347 
L 391.647344 158.691062 
L 407.08608 164.826117 
" style="fill:none;stroke:#1b9e77;stroke-linecap:square;stroke-opacity:0.5;stroke-width:1.5;"/>
   </g>
   <g id="line2d_71">
    <path clip-path="url(#p89f6a89311)" d="M 51.99517 165.921586 
L 67.433906 165.862144 
L 82.872641 165.854005 
L 98.311376 165.897827 
L 113.750111 165.590138 
L 129.188846 142.496593 
L 144.627582 120.090465 
L 160.066317 133.514204 
L 175.505052 147.488553 
L 190.943787 148.460923 
L 206.382522 160.942996 
L 221.821257 160.60995 
L 237.259993 139.227322 
L 252.698728 157.775462 
L 268.137463 165.180889 
L 283.576198 165.094488 
L 299.014933 165.194855 
L 314.453668 165.405529 
L 329.892404 165.652705 
L 345.331139 165.836031 
L 360.769874 165.902571 
L 376.208609 165.938509 
L 391.647344 164.523604 
L 407.08608 163.345516 
" style="fill:none;stroke:#1b9e77;stroke-linecap:square;stroke-opacity:0.5;stroke-width:1.5;"/>
   </g>
   <g id="line2d_72">
    <path clip-path="url(#p89f6a89311)" d="M 51.99517 158.966768 
L 67.433906 163.017228 
L 82.872641 149.71692 
L 98.311376 139.895356 
L 113.750111 106.042285 
L 129.188846 155.844564 
L 144.627582 159.634382 
L 160.066317 144.294182 
L 175.505052 142.700433 
L 190.943787 159.825658 
L 206.382522 165.022939 
L 221.821257 161.813045 
L 237.259993 165.504158 
L 252.698728 163.108143 
L 268.137463 165.195583 
L 283.576198 165.25223 
L 299.014933 165.210269 
L 314.453668 165.475156 
L 329.892404 165.690148 
L 345.331139 165.881601 
L 360.769874 165.931547 
L 376.208609 165.953253 
L 391.647344 165.953086 
L 407.08608 165.877932 
" style="fill:none;stroke:#1b9e77;stroke-linecap:square;stroke-opacity:0.5;stroke-width:1.5;"/>
   </g>
   <g id="line2d_73">
    <path clip-path="url(#p89f6a89311)" d="M 51.99517 165.883512 
L 67.433906 165.933408 
L 82.872641 165.866705 
L 98.311376 165.844189 
L 113.750111 165.393484 
L 129.188846 165.87634 
L 144.627582 164.245072 
L 160.066317 162.41493 
L 175.505052 107.67861 
L 190.943787 155.955179 
L 206.382522 165.710424 
L 221.821257 165.039773 
L 237.259993 149.478343 
L 252.698728 127.986033 
L 268.137463 160.210455 
L 283.576198 154.962638 
L 299.014933 151.700094 
L 314.453668 164.784837 
L 329.892404 164.877778 
L 345.331139 157.076793 
L 360.769874 158.319974 
L 376.208609 159.237712 
L 391.647344 161.861878 
L 407.08608 165.468704 
" style="fill:none;stroke:#1b9e77;stroke-linecap:square;stroke-opacity:0.5;stroke-width:1.5;"/>
   </g>
   <g id="line2d_74">
    <path clip-path="url(#p89f6a89311)" d="M 51.99517 165.743864 
L 67.433906 164.586904 
L 82.872641 159.01469 
L 98.311376 137.095521 
L 113.750111 135.014167 
L 129.188846 143.082279 
L 144.627582 148.591853 
L 160.066317 159.699015 
L 175.505052 164.734757 
L 190.943787 163.632473 
L 206.382522 164.794865 
L 221.821257 165.677442 
L 237.259993 165.405399 
L 252.698728 163.573172 
L 268.137463 160.255374 
L 283.576198 153.835997 
L 299.014933 152.349978 
L 314.453668 158.354952 
L 329.892404 160.896119 
L 345.331139 164.85103 
L 360.769874 165.208127 
L 376.208609 156.537629 
L 391.647344 154.929978 
L 407.08608 163.941279 
" style="fill:none;stroke:#1b9e77;stroke-linecap:square;stroke-opacity:0.5;stroke-width:1.5;"/>
   </g>
   <g id="line2d_75">
    <path clip-path="url(#p89f6a89311)" d="M 51.99517 165.374169 
L 67.433906 162.80969 
L 82.872641 149.487662 
L 98.311376 153.274763 
L 113.750111 156.717172 
L 129.188846 158.776646 
L 144.627582 163.482763 
L 160.066317 164.965177 
L 175.505052 165.705706 
L 190.943787 165.765894 
L 206.382522 162.454495 
L 221.821257 146.041508 
L 237.259993 144.474481 
L 252.698728 158.796022 
L 268.137463 157.146398 
L 283.576198 154.917934 
L 299.014933 157.293536 
L 314.453668 161.010091 
L 329.892404 162.864335 
L 345.331139 159.985374 
L 360.769874 144.652203 
L 376.208609 152.390297 
L 391.647344 158.856191 
L 407.08608 164.564354 
" style="fill:none;stroke:#1b9e77;stroke-linecap:square;stroke-opacity:0.5;stroke-width:1.5;"/>
   </g>
   <g id="line2d_76">
    <path clip-path="url(#p89f6a89311)" d="M 51.99517 164.812173 
L 67.433906 164.28389 
L 82.872641 164.64391 
L 98.311376 164.789565 
L 113.750111 164.670266 
L 129.188846 164.774429 
L 144.627582 165.128306 
L 160.066317 165.414444 
L 175.505052 165.385006 
L 190.943787 165.4946 
L 206.382522 165.612723 
L 221.821257 165.771169 
L 237.259993 165.830943 
L 252.698728 165.890829 
L 268.137463 165.893365 
L 283.576198 165.823084 
L 299.014933 165.584961 
L 314.453668 165.451289 
L 329.892404 164.078025 
L 345.331139 160.475965 
L 360.769874 155.72113 
L 376.208609 136.696068 
L 391.647344 88.991465 
L 407.08608 110.589257 
" style="fill:none;stroke:#1b9e77;stroke-linecap:square;stroke-opacity:0.5;stroke-width:1.5;"/>
   </g>
   <g id="line2d_77">
    <path clip-path="url(#p89f6a89311)" d="M 51.99517 154.771241 
L 67.433906 156.761872 
L 82.872641 160.809085 
L 98.311376 152.171236 
L 113.750111 157.011084 
L 129.188846 162.22601 
L 144.627582 161.443163 
L 160.066317 150.467274 
L 175.505052 143.25032 
L 190.943787 139.658712 
L 206.382522 157.880965 
L 221.821257 162.181274 
L 237.259993 156.416654 
L 252.698728 154.284728 
L 268.137463 159.292728 
L 283.576198 161.878097 
L 299.014933 160.243427 
L 314.453668 158.497877 
L 329.892404 161.128159 
L 345.331139 163.139303 
L 360.769874 163.621556 
L 376.208609 164.831574 
L 391.647344 165.430267 
L 407.08608 164.410252 
" style="fill:none;stroke:#1b9e77;stroke-linecap:square;stroke-opacity:0.5;stroke-width:1.5;"/>
   </g>
   <g id="line2d_78">
    <path clip-path="url(#p89f6a89311)" d="M 51.99517 162.940513 
L 67.433906 162.014421 
L 82.872641 154.270336 
L 98.311376 150.767239 
L 113.750111 129.518811 
L 129.188846 138.74616 
L 144.627582 157.523961 
L 160.066317 155.103009 
L 175.505052 162.934295 
L 190.943787 164.67282 
L 206.382522 165.749342 
L 221.821257 165.933495 
L 237.259993 165.901222 
L 252.698728 165.462296 
L 268.137463 165.913062 
L 283.576198 165.899771 
L 299.014933 165.701595 
L 314.453668 158.257575 
L 329.892404 145.980087 
L 345.331139 128.398004 
L 360.769874 165.237408 
L 376.208609 164.809832 
L 391.647344 165.455665 
L 407.08608 164.615944 
" style="fill:none;stroke:#1b9e77;stroke-linecap:square;stroke-opacity:0.5;stroke-width:1.5;"/>
   </g>
   <g id="line2d_79">
    <path clip-path="url(#p89f6a89311)" d="M 51.99517 165.744235 
L 67.433906 165.567162 
L 82.872641 165.675547 
L 98.311376 165.853495 
L 113.750111 165.903895 
L 129.188846 165.939118 
L 144.627582 165.946432 
L 160.066317 165.948182 
L 175.505052 165.943516 
L 190.943787 165.942769 
L 206.382522 165.91157 
L 221.821257 165.735331 
L 237.259993 164.951414 
L 252.698728 162.521331 
L 268.137463 74.650802 
L 283.576198 94.989331 
L 299.014933 159.290556 
L 314.453668 163.94653 
L 329.892404 165.817276 
L 345.331139 165.790264 
L 360.769874 164.422038 
L 376.208609 164.287159 
L 391.647344 159.958566 
L 407.08608 161.070342 
" style="fill:none;stroke:#1b9e77;stroke-linecap:square;stroke-opacity:0.5;stroke-width:1.5;"/>
   </g>
   <g id="line2d_80">
    <path clip-path="url(#p89f6a89311)" d="M 51.99517 162.966753 
L 67.433906 160.402808 
L 82.872641 151.432788 
L 98.311376 161.478885 
L 113.750111 160.64152 
L 129.188846 163.023523 
L 144.627582 164.102301 
L 160.066317 165.127916 
L 175.505052 157.68998 
L 190.943787 159.094678 
L 206.382522 157.544915 
L 221.821257 156.746985 
L 237.259993 124.089696 
L 252.698728 134.544478 
L 268.137463 165.608788 
L 283.576198 162.926407 
L 299.014933 147.191976 
L 314.453668 150.319879 
L 329.892404 163.817954 
L 345.331139 163.500258 
L 360.769874 164.321335 
L 376.208609 164.000826 
L 391.647344 165.325613 
L 407.08608 165.906599 
" style="fill:none;stroke:#1b9e77;stroke-linecap:square;stroke-opacity:0.5;stroke-width:1.5;"/>
   </g>
   <g id="line2d_81">
    <path clip-path="url(#p89f6a89311)" d="M 51.99517 135.013761 
L 67.433906 139.127461 
L 82.872641 151.202023 
L 98.311376 162.315677 
L 113.750111 163.992951 
L 129.188846 161.196703 
L 144.627582 164.27627 
L 160.066317 161.870725 
L 175.505052 158.549898 
L 190.943787 162.605635 
L 206.382522 162.686849 
L 221.821257 162.007362 
L 237.259993 153.856819 
L 252.698728 153.400799 
L 268.137463 160.857917 
L 283.576198 163.312526 
L 299.014933 163.054682 
L 314.453668 155.704788 
L 329.892404 148.721598 
L 345.331139 157.57812 
L 360.769874 163.164415 
L 376.208609 165.30141 
L 391.647344 165.456807 
L 407.08608 156.551664 
" style="fill:none;stroke:#1b9e77;stroke-linecap:square;stroke-opacity:0.5;stroke-width:1.5;"/>
   </g>
   <g id="line2d_82">
    <path clip-path="url(#p89f6a89311)" d="M 51.99517 165.88813 
L 67.433906 165.833964 
L 82.872641 165.883854 
L 98.311376 165.938922 
L 113.750111 165.950551 
L 129.188846 165.957223 
L 144.627582 165.954194 
L 160.066317 165.94169 
L 175.505052 165.918469 
L 190.943787 165.899702 
L 206.382522 165.4083 
L 221.821257 162.276174 
L 237.259993 148.83928 
L 252.698728 144.91577 
L 268.137463 138.384989 
L 283.576198 141.757733 
L 299.014933 158.429889 
L 314.453668 162.847015 
L 329.892404 165.333458 
L 345.331139 162.966145 
L 360.769874 119.99335 
L 376.208609 142.896877 
L 391.647344 153.947965 
L 407.08608 164.643219 
" style="fill:none;stroke:#1b9e77;stroke-linecap:square;stroke-opacity:0.5;stroke-width:1.5;"/>
   </g>
   <g id="line2d_83">
    <path clip-path="url(#p89f6a89311)" d="M 51.99517 165.209707 
L 67.433906 165.540796 
L 82.872641 165.391496 
L 98.311376 163.57232 
L 113.750111 14.76 
L 129.188846 139.828568 
L 144.627582 165.609587 
L 160.066317 165.336992 
L 175.505052 162.903121 
L 190.943787 162.667312 
L 206.382522 165.216342 
L 221.821257 165.288215 
L 237.259993 165.714659 
L 252.698728 165.783788 
L 268.137463 165.82507 
L 283.576198 165.877586 
L 299.014933 165.901292 
L 314.453668 165.923682 
L 329.892404 165.932217 
L 345.331139 165.939893 
L 360.769874 165.945838 
L 376.208609 165.959121 
L 391.647344 165.950315 
L 407.08608 165.728936 
" style="fill:none;stroke:#1b9e77;stroke-linecap:square;stroke-opacity:0.5;stroke-width:1.5;"/>
   </g>
   <g id="line2d_84">
    <path clip-path="url(#p89f6a89311)" d="M 51.99517 165.861212 
L 67.433906 165.748877 
L 82.872641 165.830476 
L 98.311376 165.908532 
L 113.750111 165.928191 
L 129.188846 165.941872 
L 144.627582 165.946114 
L 160.066317 165.95111 
L 175.505052 165.951252 
L 190.943787 165.9472 
L 206.382522 165.924728 
L 221.821257 165.761021 
L 237.259993 165.218109 
L 252.698728 164.824939 
L 268.137463 158.630526 
L 283.576198 152.349614 
L 299.014933 151.500385 
L 314.453668 156.596194 
L 329.892404 144.437615 
L 345.331139 123.493182 
L 360.769874 140.213932 
L 376.208609 138.367495 
L 391.647344 143.286453 
L 407.08608 162.187838 
" style="fill:none;stroke:#1b9e77;stroke-linecap:square;stroke-opacity:0.5;stroke-width:1.5;"/>
   </g>
   <g id="line2d_85">
    <path clip-path="url(#p89f6a89311)" d="M 51.99517 165.768074 
L 67.433906 165.40496 
L 82.872641 165.518638 
L 98.311376 165.686604 
L 113.750111 165.741979 
L 129.188846 165.82552 
L 144.627582 165.86831 
L 160.066317 165.903979 
L 175.505052 165.913844 
L 190.943787 165.93062 
L 206.382522 165.93763 
L 221.821257 165.943553 
L 237.259993 165.929891 
L 252.698728 165.91737 
L 268.137463 158.14573 
L 283.576198 149.63489 
L 299.014933 162.36826 
L 314.453668 163.316373 
L 329.892404 163.806663 
L 345.331139 162.15513 
L 360.769874 32.56101 
L 376.208609 155.22743 
L 391.647344 160.965011 
L 407.08608 162.335383 
" style="fill:none;stroke:#1b9e77;stroke-linecap:square;stroke-opacity:0.5;stroke-width:1.5;"/>
   </g>
   <g id="line2d_86">
    <path clip-path="url(#p89f6a89311)" d="M 51.99517 165.514855 
L 67.433906 165.139364 
L 82.872641 159.421892 
L 98.311376 149.457124 
L 113.750111 138.012292 
L 129.188846 131.277748 
L 144.627582 116.481462 
L 160.066317 147.585723 
L 175.505052 164.442709 
L 190.943787 160.827824 
L 206.382522 160.609587 
L 221.821257 160.773194 
L 237.259993 162.894345 
L 252.698728 163.925344 
L 268.137463 163.477724 
L 283.576198 161.486831 
L 299.014933 162.58357 
L 314.453668 163.492425 
L 329.892404 165.548968 
L 345.331139 165.656172 
L 360.769874 165.651359 
L 376.208609 165.790286 
L 391.647344 165.820919 
L 407.08608 165.935145 
" style="fill:none;stroke:#1b9e77;stroke-linecap:square;stroke-opacity:0.5;stroke-width:1.5;"/>
   </g>
   <g id="line2d_87">
    <path clip-path="url(#p89f6a89311)" d="M 51.99517 161.772377 
L 67.433906 162.825507 
L 82.872641 161.374247 
L 98.311376 149.542218 
L 113.750111 147.776829 
L 129.188846 160.355511 
L 144.627582 165.136668 
L 160.066317 165.360771 
L 175.505052 165.17716 
L 190.943787 165.396352 
L 206.382522 164.855568 
L 221.821257 158.70417 
L 237.259993 148.967775 
L 252.698728 140.640473 
L 268.137463 127.810164 
L 283.576198 146.152163 
L 299.014933 159.133894 
L 314.453668 160.791771 
L 329.892404 163.718751 
L 345.331139 165.379482 
L 360.769874 165.191039 
L 376.208609 164.752463 
L 391.647344 160.472488 
L 407.08608 160.519017 
" style="fill:none;stroke:#1b9e77;stroke-linecap:square;stroke-opacity:0.5;stroke-width:1.5;"/>
   </g>
   <g id="line2d_88">
    <path clip-path="url(#p89f6a89311)" d="M 51.99517 165.873908 
L 67.433906 165.627912 
L 82.872641 165.564939 
L 98.311376 165.41638 
L 113.750111 157.76143 
L 129.188846 141.762526 
L 144.627582 146.856313 
L 160.066317 138.919075 
L 175.505052 110.241081 
L 190.943787 143.796734 
L 206.382522 164.491228 
L 221.821257 165.086625 
L 237.259993 156.733338 
L 252.698728 165.297658 
L 268.137463 165.31468 
L 283.576198 164.165178 
L 299.014933 164.083185 
L 314.453668 164.649825 
L 329.892404 164.86585 
L 345.331139 165.524727 
L 360.769874 165.545761 
L 376.208609 162.104387 
L 391.647344 158.520322 
L 407.08608 163.6038 
" style="fill:none;stroke:#1b9e77;stroke-linecap:square;stroke-opacity:0.5;stroke-width:1.5;"/>
   </g>
   <g id="line2d_89">
    <path clip-path="url(#p89f6a89311)" d="M 51.99517 165.850744 
L 67.433906 165.761512 
L 82.872641 165.822971 
L 98.311376 165.905183 
L 113.750111 165.928364 
L 129.188846 165.939799 
L 144.627582 165.938753 
L 160.066317 165.932562 
L 175.505052 165.920145 
L 190.943787 165.926602 
L 206.382522 165.933148 
L 221.821257 165.927758 
L 237.259993 165.904329 
L 252.698728 165.9166 
L 268.137463 165.720983 
L 283.576198 158.109647 
L 299.014933 153.667965 
L 314.453668 151.16295 
L 329.892404 131.628129 
L 345.331139 121.435168 
L 360.769874 137.991458 
L 376.208609 143.104488 
L 391.647344 147.313346 
L 407.08608 159.064252 
" style="fill:none;stroke:#1b9e77;stroke-linecap:square;stroke-opacity:0.5;stroke-width:1.5;"/>
   </g>
   <g id="line2d_90">
    <path clip-path="url(#p89f6a89311)" d="M 51.99517 147.713068 
L 67.433906 116.361234 
L 82.872641 75.962818 
L 98.311376 141.860406 
L 113.750111 163.120911 
L 129.188846 161.885501 
L 144.627582 165.234314 
L 160.066317 165.563282 
L 175.505052 165.564802 
L 190.943787 165.715811 
L 206.382522 165.827394 
L 221.821257 165.900381 
L 237.259993 165.926639 
L 252.698728 165.936445 
L 268.137463 165.934497 
L 283.576198 165.928029 
L 299.014933 165.921535 
L 314.453668 165.9227 
L 329.892404 165.926415 
L 345.331139 165.91787 
L 360.769874 165.903902 
L 376.208609 165.926017 
L 391.647344 165.941745 
L 407.08608 165.911138 
" style="fill:none;stroke:#1b9e77;stroke-linecap:square;stroke-opacity:0.5;stroke-width:1.5;"/>
   </g>
   <g id="line2d_91">
    <path clip-path="url(#p89f6a89311)" d="M 51.99517 164.79829 
L 67.433906 160.037914 
L 82.872641 159.45417 
L 98.311376 145.070298 
L 113.750111 140.70631 
L 129.188846 162.41187 
L 144.627582 165.151422 
L 160.066317 165.487762 
L 175.505052 165.223118 
L 190.943787 155.263485 
L 206.382522 142.030817 
L 221.821257 151.963589 
L 237.259993 162.768328 
L 252.698728 160.362798 
L 268.137463 152.455546 
L 283.576198 119.725767 
L 299.014933 160.054306 
L 314.453668 164.86704 
L 329.892404 165.083706 
L 345.331139 165.606777 
L 360.769874 165.762978 
L 376.208609 165.830908 
L 391.647344 165.823964 
L 407.08608 165.8657 
" style="fill:none;stroke:#1b9e77;stroke-linecap:square;stroke-opacity:0.5;stroke-width:1.5;"/>
   </g>
   <g id="line2d_92">
    <path clip-path="url(#p89f6a89311)" d="M 51.99517 162.497686 
L 67.433906 163.89219 
L 82.872641 165.804396 
L 98.311376 165.526269 
L 113.750111 165.58493 
L 129.188846 165.768842 
L 144.627582 165.895469 
L 160.066317 165.918314 
L 175.505052 165.872413 
L 190.943787 165.901478 
L 206.382522 165.930002 
L 221.821257 165.77321 
L 237.259993 164.560767 
L 252.698728 165.379428 
L 268.137463 140.994689 
L 283.576198 146.38057 
L 299.014933 164.495076 
L 314.453668 164.67863 
L 329.892404 159.091225 
L 345.331139 157.686984 
L 360.769874 132.296936 
L 376.208609 98.114158 
L 391.647344 149.445684 
L 407.08608 164.317518 
" style="fill:none;stroke:#1b9e77;stroke-linecap:square;stroke-opacity:0.5;stroke-width:1.5;"/>
   </g>
   <g id="line2d_93">
    <path clip-path="url(#p89f6a89311)" d="M 51.99517 160.232554 
L 67.433906 156.236252 
L 82.872641 156.195605 
L 98.311376 163.668066 
L 113.750111 163.589723 
L 129.188846 150.521234 
L 144.627582 160.606795 
L 160.066317 163.905784 
L 175.505052 164.366428 
L 190.943787 164.812121 
L 206.382522 165.309599 
L 221.821257 165.464509 
L 237.259993 165.528585 
L 252.698728 165.415693 
L 268.137463 165.38856 
L 283.576198 165.558003 
L 299.014933 165.661377 
L 314.453668 165.715753 
L 329.892404 165.70232 
L 345.331139 165.695998 
L 360.769874 165.6278 
L 376.208609 165.634445 
L 391.647344 159.94053 
L 407.08608 41.029128 
" style="fill:none;stroke:#1b9e77;stroke-linecap:square;stroke-opacity:0.5;stroke-width:1.5;"/>
   </g>
   <g id="line2d_94">
    <path clip-path="url(#p89f6a89311)" d="M 51.99517 151.183282 
L 67.433906 140.845208 
L 82.872641 137.872764 
L 98.311376 142.75564 
L 113.750111 140.780148 
L 129.188846 151.979268 
L 144.627582 158.691303 
L 160.066317 158.188048 
L 175.505052 159.43217 
L 190.943787 163.610064 
L 206.382522 163.624906 
L 221.821257 162.775971 
L 237.259993 163.012469 
L 252.698728 161.313009 
L 268.137463 156.600141 
L 283.576198 160.132284 
L 299.014933 164.512709 
L 314.453668 163.716732 
L 329.892404 162.241361 
L 345.331139 164.868759 
L 360.769874 165.92021 
L 376.208609 165.925867 
L 391.647344 165.922921 
L 407.08608 165.901632 
" style="fill:none;stroke:#1b9e77;stroke-linecap:square;stroke-opacity:0.5;stroke-width:1.5;"/>
   </g>
   <g id="line2d_95">
    <path clip-path="url(#p89f6a89311)" d="M 51.99517 165.659648 
L 67.433906 163.247388 
L 82.872641 163.836047 
L 98.311376 164.318066 
L 113.750111 165.035271 
L 129.188846 165.557674 
L 144.627582 165.757857 
L 160.066317 165.904926 
L 175.505052 165.929376 
L 190.943787 165.94132 
L 206.382522 165.93068 
L 221.821257 165.798157 
L 237.259993 163.374867 
L 252.698728 157.948379 
L 268.137463 153.648686 
L 283.576198 153.772936 
L 299.014933 136.292149 
L 314.453668 114.547836 
L 329.892404 134.213106 
L 345.331139 133.460865 
L 360.769874 165.37167 
L 376.208609 165.311809 
L 391.647344 165.634763 
L 407.08608 165.313383 
" style="fill:none;stroke:#1b9e77;stroke-linecap:square;stroke-opacity:0.5;stroke-width:1.5;"/>
   </g>
   <g id="line2d_96">
    <path clip-path="url(#p89f6a89311)" d="M 51.99517 158.196828 
L 67.433906 144.771677 
L 82.872641 156.248445 
L 98.311376 162.28096 
L 113.750111 163.709944 
L 129.188846 162.837528 
L 144.627582 165.336359 
L 160.066317 165.643658 
L 175.505052 165.569517 
L 190.943787 165.623173 
L 206.382522 165.76548 
L 221.821257 165.866442 
L 237.259993 165.886982 
L 252.698728 165.939981 
L 268.137463 165.948075 
L 283.576198 165.766352 
L 299.014933 156.003821 
L 314.453668 136.826376 
L 329.892404 132.197216 
L 345.331139 149.397507 
L 360.769874 161.41057 
L 376.208609 164.759287 
L 391.647344 145.936152 
L 407.08608 139.884539 
" style="fill:none;stroke:#1b9e77;stroke-linecap:square;stroke-opacity:0.5;stroke-width:1.5;"/>
   </g>
   <g id="line2d_97">
    <path clip-path="url(#p89f6a89311)" d="M 51.99517 162.955553 
L 67.433906 165.12307 
L 82.872641 165.682511 
L 98.311376 165.735749 
L 113.750111 165.774409 
L 129.188846 165.862774 
L 144.627582 165.903559 
L 160.066317 165.907611 
L 175.505052 165.849686 
L 190.943787 165.885052 
L 206.382522 165.914145 
L 221.821257 165.867837 
L 237.259993 165.850828 
L 252.698728 165.91426 
L 268.137463 165.537239 
L 283.576198 152.478298 
L 299.014933 153.901259 
L 314.453668 151.699544 
L 329.892404 142.689011 
L 345.331139 117.702433 
L 360.769874 118.134229 
L 376.208609 148.556355 
L 391.647344 160.773139 
L 407.08608 162.108314 
" style="fill:none;stroke:#1b9e77;stroke-linecap:square;stroke-opacity:0.5;stroke-width:1.5;"/>
   </g>
   <g id="line2d_98">
    <path clip-path="url(#p89f6a89311)" d="M 51.99517 165.936452 
L 67.433906 165.923458 
L 82.872641 165.941167 
L 98.311376 165.93799 
L 113.750111 165.856986 
L 129.188846 165.717806 
L 144.627582 163.408393 
L 160.066317 161.092442 
L 175.505052 160.545507 
L 190.943787 158.889718 
L 206.382522 153.280537 
L 221.821257 148.481318 
L 237.259993 151.208386 
L 252.698728 124.449153 
L 268.137463 154.538335 
L 283.576198 151.843395 
L 299.014933 147.040583 
L 314.453668 152.472445 
L 329.892404 155.923329 
L 345.331139 153.803698 
L 360.769874 162.723935 
L 376.208609 165.299318 
L 391.647344 165.589897 
L 407.08608 165.902614 
" style="fill:none;stroke:#1b9e77;stroke-linecap:square;stroke-opacity:0.5;stroke-width:1.5;"/>
   </g>
   <g id="line2d_99">
    <path clip-path="url(#p89f6a89311)" d="M 51.99517 165.81391 
L 67.433906 165.903313 
L 82.872641 165.829708 
L 98.311376 165.764912 
L 113.750111 165.687923 
L 129.188846 165.831931 
L 144.627582 165.910055 
L 160.066317 165.916619 
L 175.505052 165.885371 
L 190.943787 165.886819 
L 206.382522 165.917053 
L 221.821257 165.936137 
L 237.259993 165.940728 
L 252.698728 165.94523 
L 268.137463 165.923937 
L 283.576198 165.663316 
L 299.014933 162.391792 
L 314.453668 157.743349 
L 329.892404 150.742449 
L 345.331139 132.009235 
L 360.769874 76.231525 
L 376.208609 136.964283 
L 391.647344 161.127104 
L 407.08608 160.840162 
" style="fill:none;stroke:#1b9e77;stroke-linecap:square;stroke-opacity:0.5;stroke-width:1.5;"/>
   </g>
   <g id="line2d_100">
    <path clip-path="url(#p89f6a89311)" d="M 51.99517 143.0545 
L 67.433906 131.031529 
L 82.872641 141.473827 
L 98.311376 157.530298 
L 113.750111 160.816226 
L 129.188846 161.863034 
L 144.627582 161.892293 
L 160.066317 163.462452 
L 175.505052 164.563206 
L 190.943787 164.952531 
L 206.382522 164.904424 
L 221.821257 165.222454 
L 237.259993 165.53008 
L 252.698728 165.592319 
L 268.137463 165.646763 
L 283.576198 165.523967 
L 299.014933 164.940343 
L 314.453668 164.872339 
L 329.892404 156.504077 
L 345.331139 140.407358 
L 360.769874 160.70921 
L 376.208609 156.563069 
L 391.647344 161.306907 
L 407.08608 143.443657 
" style="fill:none;stroke:#1b9e77;stroke-linecap:square;stroke-opacity:0.5;stroke-width:1.5;"/>
   </g>
   <g id="line2d_101">
    <path clip-path="url(#p89f6a89311)" d="M 51.99517 164.655291 
L 67.433906 162.348983 
L 82.872641 163.357296 
L 98.311376 164.011852 
L 113.750111 160.642915 
L 129.188846 155.764717 
L 144.627582 150.039114 
L 160.066317 148.28011 
L 175.505052 131.243236 
L 190.943787 147.28319 
L 206.382522 131.598801 
L 221.821257 154.236531 
L 237.259993 156.533202 
L 252.698728 150.464409 
L 268.137463 158.345374 
L 283.576198 165.705564 
L 299.014933 165.850513 
L 314.453668 165.856531 
L 329.892404 165.913035 
L 345.331139 165.939643 
L 360.769874 165.940176 
L 376.208609 165.950532 
L 391.647344 165.95128 
L 407.08608 165.89457 
" style="fill:none;stroke:#1b9e77;stroke-linecap:square;stroke-opacity:0.5;stroke-width:1.5;"/>
   </g>
   <g id="line2d_102">
    <path clip-path="url(#p89f6a89311)" d="M 51.99517 165.914168 
L 67.433906 165.881133 
L 82.872641 165.912828 
L 98.311376 165.946143 
L 113.750111 165.949891 
L 129.188846 165.953167 
L 144.627582 165.913927 
L 160.066317 165.467665 
L 175.505052 161.349473 
L 190.943787 142.779284 
L 206.382522 130.959968 
L 221.821257 119.892571 
L 237.259993 136.317889 
L 252.698728 154.40156 
L 268.137463 160.465144 
L 283.576198 158.443727 
L 299.014933 161.831717 
L 314.453668 162.405651 
L 329.892404 160.961726 
L 345.331139 158.443216 
L 360.769874 161.971817 
L 376.208609 164.510546 
L 391.647344 164.921438 
L 407.08608 165.212212 
" style="fill:none;stroke:#1b9e77;stroke-linecap:square;stroke-opacity:0.5;stroke-width:1.5;"/>
   </g>
   <g id="line2d_103">
    <path clip-path="url(#p89f6a89311)" d="M 51.99517 165.831421 
L 67.433906 165.696219 
L 82.872641 165.765185 
L 98.311376 165.893065 
L 113.750111 165.929236 
L 129.188846 165.949451 
L 144.627582 165.948929 
L 160.066317 165.924484 
L 175.505052 165.633686 
L 190.943787 163.057384 
L 206.382522 146.243236 
L 221.821257 141.330887 
L 237.259993 141.915822 
L 252.698728 134.094392 
L 268.137463 124.090677 
L 283.576198 129.868496 
L 299.014933 162.14185 
L 314.453668 162.078879 
L 329.892404 165.417881 
L 345.331139 165.639954 
L 360.769874 165.719972 
L 376.208609 165.900347 
L 391.647344 165.939861 
L 407.08608 165.795548 
" style="fill:none;stroke:#1b9e77;stroke-linecap:square;stroke-opacity:0.5;stroke-width:1.5;"/>
   </g>
   <g id="line2d_104">
    <path clip-path="url(#p89f6a89311)" d="M 51.99517 160.289414 
L 67.433906 156.981386 
L 82.872641 110.555419 
L 98.311376 154.582922 
L 113.750111 153.732778 
L 129.188846 150.548589 
L 144.627582 156.881124 
L 160.066317 163.389378 
L 175.505052 164.810097 
L 190.943787 165.460597 
L 206.382522 165.674915 
L 221.821257 164.445118 
L 237.259993 127.399845 
L 252.698728 164.751735 
L 268.137463 165.612417 
L 283.576198 163.519221 
L 299.014933 163.536631 
L 314.453668 151.591115 
L 329.892404 160.290548 
L 345.331139 164.815331 
L 360.769874 165.467155 
L 376.208609 165.74366 
L 391.647344 165.799416 
L 407.08608 165.928048 
" style="fill:none;stroke:#1b9e77;stroke-linecap:square;stroke-opacity:0.5;stroke-width:1.5;"/>
   </g>
   <g id="line2d_105">
    <path clip-path="url(#p89f6a89311)" d="M 51.99517 158.017316 
L 67.433906 160.52709 
L 82.872641 163.270237 
L 98.311376 164.901176 
L 113.750111 165.299971 
L 129.188846 165.620216 
L 144.627582 165.75282 
L 160.066317 165.759278 
L 175.505052 165.666015 
L 190.943787 165.843318 
L 206.382522 165.061889 
L 221.821257 148.292347 
L 237.259993 165.675982 
L 252.698728 165.305669 
L 268.137463 161.085118 
L 283.576198 85.633691 
L 299.014933 161.147388 
L 314.453668 160.264626 
L 329.892404 137.147579 
L 345.331139 152.737413 
L 360.769874 158.761724 
L 376.208609 165.455674 
L 391.647344 165.521345 
L 407.08608 159.058979 
" style="fill:none;stroke:#1b9e77;stroke-linecap:square;stroke-opacity:0.5;stroke-width:1.5;"/>
   </g>
   <g id="line2d_106">
    <path clip-path="url(#p89f6a89311)" d="M 51.99517 165.799203 
L 67.433906 165.869359 
L 82.872641 162.260707 
L 98.311376 161.413608 
L 113.750111 119.308365 
L 129.188846 124.354703 
L 144.627582 139.49052 
L 160.066317 163.177527 
L 175.505052 162.159425 
L 190.943787 145.835653 
L 206.382522 159.016111 
L 221.821257 156.205684 
L 237.259993 153.595589 
L 252.698728 160.024323 
L 268.137463 162.359704 
L 283.576198 163.959977 
L 299.014933 165.875222 
L 314.453668 165.71005 
L 329.892404 165.791543 
L 345.331139 165.868286 
L 360.769874 165.888904 
L 376.208609 165.934448 
L 391.647344 165.951296 
L 407.08608 165.956649 
" style="fill:none;stroke:#1b9e77;stroke-linecap:square;stroke-opacity:0.5;stroke-width:1.5;"/>
   </g>
   <g id="line2d_107">
    <path clip-path="url(#p89f6a89311)" d="M 51.99517 163.701489 
L 67.433906 110.553553 
L 82.872641 89.477619 
L 98.311376 131.509956 
L 113.750111 159.279321 
L 129.188846 164.055884 
L 144.627582 165.051163 
L 160.066317 165.632245 
L 175.505052 165.776822 
L 190.943787 165.869874 
L 206.382522 165.849872 
L 221.821257 165.893645 
L 237.259993 165.277337 
L 252.698728 156.915353 
L 268.137463 163.95038 
L 283.576198 165.910831 
L 299.014933 165.785696 
L 314.453668 165.804814 
L 329.892404 165.889123 
L 345.331139 165.918599 
L 360.769874 165.918493 
L 376.208609 165.929986 
L 391.647344 165.94268 
L 407.08608 165.912133 
" style="fill:none;stroke:#1b9e77;stroke-linecap:square;stroke-opacity:0.5;stroke-width:1.5;"/>
   </g>
   <g id="line2d_108">
    <path clip-path="url(#p89f6a89311)" d="M 51.99517 129.819174 
L 67.433906 129.650963 
L 82.872641 141.07481 
L 98.311376 158.267638 
L 113.750111 162.290168 
L 129.188846 164.512803 
L 144.627582 165.119187 
L 160.066317 165.626673 
L 175.505052 165.730421 
L 190.943787 165.731132 
L 206.382522 165.474174 
L 221.821257 164.598641 
L 237.259993 161.007634 
L 252.698728 146.687866 
L 268.137463 149.782646 
L 283.576198 155.390811 
L 299.014933 162.295587 
L 314.453668 161.282944 
L 329.892404 162.531542 
L 345.331139 164.104855 
L 360.769874 164.758408 
L 376.208609 165.405467 
L 391.647344 165.543408 
L 407.08608 155.119907 
" style="fill:none;stroke:#1b9e77;stroke-linecap:square;stroke-opacity:0.5;stroke-width:1.5;"/>
   </g>
   <g id="line2d_109">
    <path clip-path="url(#p89f6a89311)" d="M 51.99517 156.537481 
L 67.433906 135.87958 
L 82.872641 139.870799 
L 98.311376 150.119504 
L 113.750111 154.448791 
L 129.188846 159.75252 
L 144.627582 162.385406 
L 160.066317 164.303832 
L 175.505052 164.80542 
L 190.943787 165.508624 
L 206.382522 165.723897 
L 221.821257 165.812381 
L 237.259993 165.792083 
L 252.698728 165.751257 
L 268.137463 165.06373 
L 283.576198 155.240058 
L 299.014933 142.609356 
L 314.453668 157.82246 
L 329.892404 164.146016 
L 345.331139 165.185541 
L 360.769874 165.232742 
L 376.208609 165.604936 
L 391.647344 165.267268 
L 407.08608 128.943176 
" style="fill:none;stroke:#1b9e77;stroke-linecap:square;stroke-opacity:0.5;stroke-width:1.5;"/>
   </g>
   <g id="line2d_110">
    <path clip-path="url(#p89f6a89311)" d="M 51.99517 165.895762 
L 67.433906 165.834833 
L 82.872641 165.875126 
L 98.311376 165.891699 
L 113.750111 162.686041 
L 129.188846 152.969484 
L 144.627582 137.613484 
L 160.066317 135.821246 
L 175.505052 134.627232 
L 190.943787 141.01888 
L 206.382522 149.254984 
L 221.821257 132.114849 
L 237.259993 162.20524 
L 252.698728 163.483746 
L 268.137463 165.354946 
L 283.576198 165.574058 
L 299.014933 165.676715 
L 314.453668 165.789192 
L 329.892404 165.834643 
L 345.331139 165.895279 
L 360.769874 165.918079 
L 376.208609 165.94545 
L 391.647344 165.907607 
L 407.08608 164.618288 
" style="fill:none;stroke:#1b9e77;stroke-linecap:square;stroke-opacity:0.5;stroke-width:1.5;"/>
   </g>
   <g id="line2d_111">
    <path clip-path="url(#p89f6a89311)" d="M 51.99517 165.620663 
L 67.433906 162.430295 
L 82.872641 163.481322 
L 98.311376 161.543139 
L 113.750111 164.914667 
L 129.188846 165.593718 
L 144.627582 165.699381 
L 160.066317 165.804809 
L 175.505052 165.810247 
L 190.943787 165.864663 
L 206.382522 165.892865 
L 221.821257 165.926413 
L 237.259993 165.92484 
L 252.698728 165.900691 
L 268.137463 164.116153 
L 283.576198 154.065789 
L 299.014933 150.985639 
L 314.453668 142.697004 
L 329.892404 118.022182 
L 345.331139 97.250893 
L 360.769874 158.266826 
L 376.208609 165.115821 
L 391.647344 165.125906 
L 407.08608 165.752938 
" style="fill:none;stroke:#1b9e77;stroke-linecap:square;stroke-opacity:0.5;stroke-width:1.5;"/>
   </g>
   <g id="line2d_112">
    <path clip-path="url(#p89f6a89311)" d="M 51.99517 128.270461 
L 67.433906 124.222203 
L 82.872641 140.457827 
L 98.311376 155.356256 
L 113.750111 158.723066 
L 129.188846 159.877494 
L 144.627582 160.949233 
L 160.066317 163.318629 
L 175.505052 164.317097 
L 190.943787 164.840565 
L 206.382522 164.978006 
L 221.821257 165.306601 
L 237.259993 165.51896 
L 252.698728 165.701869 
L 268.137463 165.710221 
L 283.576198 165.486197 
L 299.014933 165.315689 
L 314.453668 164.989652 
L 329.892404 164.620128 
L 345.331139 164.441988 
L 360.769874 164.258456 
L 376.208609 165.459799 
L 391.647344 165.615627 
L 407.08608 124.070834 
" style="fill:none;stroke:#1b9e77;stroke-linecap:square;stroke-opacity:0.5;stroke-width:1.5;"/>
   </g>
   <g id="line2d_113">
    <path clip-path="url(#p89f6a89311)" d="M 51.99517 165.669447 
L 67.433906 165.724953 
L 82.872641 165.452806 
L 98.311376 164.871803 
L 113.750111 165.502512 
L 129.188846 151.384968 
L 144.627582 144.685778 
L 160.066317 165.057268 
L 175.505052 165.948826 
L 190.943787 164.495266 
L 206.382522 163.894704 
L 221.821257 163.395654 
L 237.259993 161.377086 
L 252.698728 159.240343 
L 268.137463 153.024964 
L 283.576198 145.190933 
L 299.014933 163.469526 
L 314.453668 156.629228 
L 329.892404 83.715703 
L 345.331139 159.781453 
L 360.769874 165.483904 
L 376.208609 165.897156 
L 391.647344 165.956293 
L 407.08608 165.956293 
" style="fill:none;stroke:#d95f02;stroke-linecap:square;stroke-width:1.5;"/>
   </g>
   <g id="patch_3">
    <path d="M 34.240625 173.52 
L 34.240625 7.2 
" style="fill:none;stroke:#000000;stroke-linecap:square;stroke-linejoin:miter;stroke-width:0.8;"/>
   </g>
   <g id="patch_4">
    <path d="M 34.240625 173.52 
L 424.840625 173.52 
" style="fill:none;stroke:#000000;stroke-linecap:square;stroke-linejoin:miter;stroke-width:0.8;"/>
   </g>
   <g id="legend_1">
    <g id="patch_5">
     <path d="M 366.673438 29.878125 
L 417.840625 29.878125 
Q 419.840625 29.878125 419.840625 27.878125 
L 419.840625 14.2 
Q 419.840625 12.2 417.840625 12.2 
L 366.673438 12.2 
Q 364.673438 12.2 364.673438 14.2 
L 364.673438 27.878125 
Q 364.673438 29.878125 366.673438 29.878125 
z
" style="fill:#ffffff;opacity:0.8;stroke:#cccccc;stroke-linejoin:miter;"/>
    </g>
    <g id="line2d_114">
     <path d="M 368.673438 20.298438 
L 388.673438 20.298438 
" style="fill:none;stroke:#d95f02;stroke-linecap:square;stroke-width:1.5;"/>
    </g>
    <g id="line2d_115"/>
    <g id="text_15">
     <!-- real -->
     <defs>
      <path d="M 9.421875 75.984375 
L 18.40625 75.984375 
L 18.40625 0 
L 9.421875 0 
z
" id="DejaVuSans-108"/>
     </defs>
     <g transform="translate(396.673438 23.798438)scale(0.1 -0.1)">
      <use xlink:href="#DejaVuSans-114"/>
      <use x="41.082031" xlink:href="#DejaVuSans-101"/>
      <use x="102.605469" xlink:href="#DejaVuSans-97"/>
      <use x="163.884766" xlink:href="#DejaVuSans-108"/>
     </g>
    </g>
   </g>
  </g>
 </g>
 <defs>
  <clipPath id="p89f6a89311">
   <rect height="166.32" width="390.6" x="34.240625" y="7.2"/>
  </clipPath>
 </defs>
</svg>
