<?xml version="1.0" encoding="utf-8" standalone="no"?>
<!DOCTYPE svg PUBLIC "-//W3C//DTD SVG 1.1//EN"
  "http://www.w3.org/Graphics/SVG/1.1/DTD/svg11.dtd">
<!-- Created with matplotlib (https://matplotlib.org/) -->
<svg height="211.07625pt" version="1.1" viewBox="0 0 436.087315 211.07625" width="436.087315pt" xmlns="http://www.w3.org/2000/svg" xmlns:xlink="http://www.w3.org/1999/xlink">
 <defs>
  <style type="text/css">
*{stroke-linecap:butt;stroke-linejoin:round;}
  </style>
 </defs>
 <g id="figure_1">
  <g id="patch_1">
   <path d="M 0 211.07625 
L 436.087315 211.07625 
L 436.087315 0 
L 0 0 
z
" style="fill:#ffffff;"/>
  </g>
  <g id="axes_1">
   <g id="patch_2">
    <path d="M 34.240625 173.52 
L 424.840625 173.52 
L 424.840625 7.2 
L 34.240625 7.2 
z
" style="fill:#ffffff;"/>
   </g>
   <g id="matplotlib.axis_1">
    <g id="xtick_1">
     <g id="line2d_1">
      <defs>
       <path d="M 0 0 
L 0 3.5 
" id="m5c4f99aee0" style="stroke:#000000;stroke-width:0.8;"/>
      </defs>
      <g>
       <use style="stroke:#000000;stroke-width:0.8;" x="36.556435" xlink:href="#m5c4f99aee0" y="173.52"/>
      </g>
     </g>
     <g id="text_1">
      <!-- 0 -->
      <defs>
       <path d="M 31.78125 66.40625 
Q 24.171875 66.40625 20.328125 58.90625 
Q 16.5 51.421875 16.5 36.375 
Q 16.5 21.390625 20.328125 13.890625 
Q 24.171875 6.390625 31.78125 6.390625 
Q 39.453125 6.390625 43.28125 13.890625 
Q 47.125 21.390625 47.125 36.375 
Q 47.125 51.421875 43.28125 58.90625 
Q 39.453125 66.40625 31.78125 66.40625 
z
M 31.78125 74.21875 
Q 44.046875 74.21875 50.515625 64.515625 
Q 56.984375 54.828125 56.984375 36.375 
Q 56.984375 17.96875 50.515625 8.265625 
Q 44.046875 -1.421875 31.78125 -1.421875 
Q 19.53125 -1.421875 13.0625 8.265625 
Q 6.59375 17.96875 6.59375 36.375 
Q 6.59375 54.828125 13.0625 64.515625 
Q 19.53125 74.21875 31.78125 74.21875 
z
" id="DejaVuSans-48"/>
      </defs>
      <g transform="translate(33.375185 188.118438)scale(0.1 -0.1)">
       <use xlink:href="#DejaVuSans-48"/>
      </g>
     </g>
    </g>
    <g id="xtick_2">
     <g id="line2d_2">
      <g>
       <use style="stroke:#000000;stroke-width:0.8;" x="113.750111" xlink:href="#m5c4f99aee0" y="173.52"/>
      </g>
     </g>
     <g id="text_2">
      <!-- 5 -->
      <defs>
       <path d="M 10.796875 72.90625 
L 49.515625 72.90625 
L 49.515625 64.59375 
L 19.828125 64.59375 
L 19.828125 46.734375 
Q 21.96875 47.46875 24.109375 47.828125 
Q 26.265625 48.1875 28.421875 48.1875 
Q 40.625 48.1875 47.75 41.5 
Q 54.890625 34.8125 54.890625 23.390625 
Q 54.890625 11.625 47.5625 5.09375 
Q 40.234375 -1.421875 26.90625 -1.421875 
Q 22.3125 -1.421875 17.546875 -0.640625 
Q 12.796875 0.140625 7.71875 1.703125 
L 7.71875 11.625 
Q 12.109375 9.234375 16.796875 8.0625 
Q 21.484375 6.890625 26.703125 6.890625 
Q 35.15625 6.890625 40.078125 11.328125 
Q 45.015625 15.765625 45.015625 23.390625 
Q 45.015625 31 40.078125 35.4375 
Q 35.15625 39.890625 26.703125 39.890625 
Q 22.75 39.890625 18.8125 39.015625 
Q 14.890625 38.140625 10.796875 36.28125 
z
" id="DejaVuSans-53"/>
      </defs>
      <g transform="translate(110.568861 188.118438)scale(0.1 -0.1)">
       <use xlink:href="#DejaVuSans-53"/>
      </g>
     </g>
    </g>
    <g id="xtick_3">
     <g id="line2d_3">
      <g>
       <use style="stroke:#000000;stroke-width:0.8;" x="190.943787" xlink:href="#m5c4f99aee0" y="173.52"/>
      </g>
     </g>
     <g id="text_3">
      <!-- 10 -->
      <defs>
       <path d="M 12.40625 8.296875 
L 28.515625 8.296875 
L 28.515625 63.921875 
L 10.984375 60.40625 
L 10.984375 69.390625 
L 28.421875 72.90625 
L 38.28125 72.90625 
L 38.28125 8.296875 
L 54.390625 8.296875 
L 54.390625 0 
L 12.40625 0 
z
" id="DejaVuSans-49"/>
      </defs>
      <g transform="translate(184.581287 188.118438)scale(0.1 -0.1)">
       <use xlink:href="#DejaVuSans-49"/>
       <use x="63.623047" xlink:href="#DejaVuSans-48"/>
      </g>
     </g>
    </g>
    <g id="xtick_4">
     <g id="line2d_4">
      <g>
       <use style="stroke:#000000;stroke-width:0.8;" x="268.137463" xlink:href="#m5c4f99aee0" y="173.52"/>
      </g>
     </g>
     <g id="text_4">
      <!-- 15 -->
      <g transform="translate(261.774963 188.118438)scale(0.1 -0.1)">
       <use xlink:href="#DejaVuSans-49"/>
       <use x="63.623047" xlink:href="#DejaVuSans-53"/>
      </g>
     </g>
    </g>
    <g id="xtick_5">
     <g id="line2d_5">
      <g>
       <use style="stroke:#000000;stroke-width:0.8;" x="345.331139" xlink:href="#m5c4f99aee0" y="173.52"/>
      </g>
     </g>
     <g id="text_5">
      <!-- 20 -->
      <defs>
       <path d="M 19.1875 8.296875 
L 53.609375 8.296875 
L 53.609375 0 
L 7.328125 0 
L 7.328125 8.296875 
Q 12.9375 14.109375 22.625 23.890625 
Q 32.328125 33.6875 34.8125 36.53125 
Q 39.546875 41.84375 41.421875 45.53125 
Q 43.3125 49.21875 43.3125 52.78125 
Q 43.3125 58.59375 39.234375 62.25 
Q 35.15625 65.921875 28.609375 65.921875 
Q 23.96875 65.921875 18.8125 64.3125 
Q 13.671875 62.703125 7.8125 59.421875 
L 7.8125 69.390625 
Q 13.765625 71.78125 18.9375 73 
Q 24.125 74.21875 28.421875 74.21875 
Q 39.75 74.21875 46.484375 68.546875 
Q 53.21875 62.890625 53.21875 53.421875 
Q 53.21875 48.921875 51.53125 44.890625 
Q 49.859375 40.875 45.40625 35.40625 
Q 44.1875 33.984375 37.640625 27.21875 
Q 31.109375 20.453125 19.1875 8.296875 
z
" id="DejaVuSans-50"/>
      </defs>
      <g transform="translate(338.968639 188.118438)scale(0.1 -0.1)">
       <use xlink:href="#DejaVuSans-50"/>
       <use x="63.623047" xlink:href="#DejaVuSans-48"/>
      </g>
     </g>
    </g>
    <g id="xtick_6">
     <g id="line2d_6">
      <g>
       <use style="stroke:#000000;stroke-width:0.8;" x="422.524815" xlink:href="#m5c4f99aee0" y="173.52"/>
      </g>
     </g>
     <g id="text_6">
      <!-- 25 -->
      <g transform="translate(416.162315 188.118438)scale(0.1 -0.1)">
       <use xlink:href="#DejaVuSans-50"/>
       <use x="63.623047" xlink:href="#DejaVuSans-53"/>
      </g>
     </g>
    </g>
    <g id="text_7">
     <!-- hour -->
     <defs>
      <path d="M 54.890625 33.015625 
L 54.890625 0 
L 45.90625 0 
L 45.90625 32.71875 
Q 45.90625 40.484375 42.875 44.328125 
Q 39.84375 48.1875 33.796875 48.1875 
Q 26.515625 48.1875 22.3125 43.546875 
Q 18.109375 38.921875 18.109375 30.90625 
L 18.109375 0 
L 9.078125 0 
L 9.078125 75.984375 
L 18.109375 75.984375 
L 18.109375 46.1875 
Q 21.34375 51.125 25.703125 53.5625 
Q 30.078125 56 35.796875 56 
Q 45.21875 56 50.046875 50.171875 
Q 54.890625 44.34375 54.890625 33.015625 
z
" id="DejaVuSans-104"/>
      <path d="M 30.609375 48.390625 
Q 23.390625 48.390625 19.1875 42.75 
Q 14.984375 37.109375 14.984375 27.296875 
Q 14.984375 17.484375 19.15625 11.84375 
Q 23.34375 6.203125 30.609375 6.203125 
Q 37.796875 6.203125 41.984375 11.859375 
Q 46.1875 17.53125 46.1875 27.296875 
Q 46.1875 37.015625 41.984375 42.703125 
Q 37.796875 48.390625 30.609375 48.390625 
z
M 30.609375 56 
Q 42.328125 56 49.015625 48.375 
Q 55.71875 40.765625 55.71875 27.296875 
Q 55.71875 13.875 49.015625 6.21875 
Q 42.328125 -1.421875 30.609375 -1.421875 
Q 18.84375 -1.421875 12.171875 6.21875 
Q 5.515625 13.875 5.515625 27.296875 
Q 5.515625 40.765625 12.171875 48.375 
Q 18.84375 56 30.609375 56 
z
" id="DejaVuSans-111"/>
      <path d="M 8.5 21.578125 
L 8.5 54.6875 
L 17.484375 54.6875 
L 17.484375 21.921875 
Q 17.484375 14.15625 20.5 10.265625 
Q 23.53125 6.390625 29.59375 6.390625 
Q 36.859375 6.390625 41.078125 11.03125 
Q 45.3125 15.671875 45.3125 23.6875 
L 45.3125 54.6875 
L 54.296875 54.6875 
L 54.296875 0 
L 45.3125 0 
L 45.3125 8.40625 
Q 42.046875 3.421875 37.71875 1 
Q 33.40625 -1.421875 27.6875 -1.421875 
Q 18.265625 -1.421875 13.375 4.4375 
Q 8.5 10.296875 8.5 21.578125 
z
M 31.109375 56 
z
" id="DejaVuSans-117"/>
      <path d="M 41.109375 46.296875 
Q 39.59375 47.171875 37.8125 47.578125 
Q 36.03125 48 33.890625 48 
Q 26.265625 48 22.1875 43.046875 
Q 18.109375 38.09375 18.109375 28.8125 
L 18.109375 0 
L 9.078125 0 
L 9.078125 54.6875 
L 18.109375 54.6875 
L 18.109375 46.1875 
Q 20.953125 51.171875 25.484375 53.578125 
Q 30.03125 56 36.53125 56 
Q 37.453125 56 38.578125 55.875 
Q 39.703125 55.765625 41.0625 55.515625 
z
" id="DejaVuSans-114"/>
     </defs>
     <g transform="translate(218.088281 201.796563)scale(0.1 -0.1)">
      <use xlink:href="#DejaVuSans-104"/>
      <use x="63.378906" xlink:href="#DejaVuSans-111"/>
      <use x="124.560547" xlink:href="#DejaVuSans-117"/>
      <use x="187.939453" xlink:href="#DejaVuSans-114"/>
     </g>
    </g>
   </g>
   <g id="matplotlib.axis_2">
    <g id="ytick_1">
     <g id="line2d_7">
      <defs>
       <path d="M 0 0 
L -3.5 0 
" id="m4258a0a768" style="stroke:#000000;stroke-width:0.8;"/>
      </defs>
      <g>
       <use style="stroke:#000000;stroke-width:0.8;" x="34.240625" xlink:href="#m4258a0a768" y="165.961208"/>
      </g>
     </g>
     <g id="text_8">
      <!-- 0 -->
      <g transform="translate(20.878125 169.760427)scale(0.1 -0.1)">
       <use xlink:href="#DejaVuSans-48"/>
      </g>
     </g>
    </g>
    <g id="ytick_2">
     <g id="line2d_8">
      <g>
       <use style="stroke:#000000;stroke-width:0.8;" x="34.240625" xlink:href="#m4258a0a768" y="128.947306"/>
      </g>
     </g>
     <g id="text_9">
      <!-- 1 -->
      <g transform="translate(20.878125 132.746525)scale(0.1 -0.1)">
       <use xlink:href="#DejaVuSans-49"/>
      </g>
     </g>
    </g>
    <g id="ytick_3">
     <g id="line2d_9">
      <g>
       <use style="stroke:#000000;stroke-width:0.8;" x="34.240625" xlink:href="#m4258a0a768" y="91.933404"/>
      </g>
     </g>
     <g id="text_10">
      <!-- 2 -->
      <g transform="translate(20.878125 95.732623)scale(0.1 -0.1)">
       <use xlink:href="#DejaVuSans-50"/>
      </g>
     </g>
    </g>
    <g id="ytick_4">
     <g id="line2d_10">
      <g>
       <use style="stroke:#000000;stroke-width:0.8;" x="34.240625" xlink:href="#m4258a0a768" y="54.919503"/>
      </g>
     </g>
     <g id="text_11">
      <!-- 3 -->
      <defs>
       <path d="M 40.578125 39.3125 
Q 47.65625 37.796875 51.625 33 
Q 55.609375 28.21875 55.609375 21.1875 
Q 55.609375 10.40625 48.1875 4.484375 
Q 40.765625 -1.421875 27.09375 -1.421875 
Q 22.515625 -1.421875 17.65625 -0.515625 
Q 12.796875 0.390625 7.625 2.203125 
L 7.625 11.71875 
Q 11.71875 9.328125 16.59375 8.109375 
Q 21.484375 6.890625 26.8125 6.890625 
Q 36.078125 6.890625 40.9375 10.546875 
Q 45.796875 14.203125 45.796875 21.1875 
Q 45.796875 27.640625 41.28125 31.265625 
Q 36.765625 34.90625 28.71875 34.90625 
L 20.21875 34.90625 
L 20.21875 43.015625 
L 29.109375 43.015625 
Q 36.375 43.015625 40.234375 45.921875 
Q 44.09375 48.828125 44.09375 54.296875 
Q 44.09375 59.90625 40.109375 62.90625 
Q 36.140625 65.921875 28.71875 65.921875 
Q 24.65625 65.921875 20.015625 65.03125 
Q 15.375 64.15625 9.8125 62.3125 
L 9.8125 71.09375 
Q 15.4375 72.65625 20.34375 73.4375 
Q 25.25 74.21875 29.59375 74.21875 
Q 40.828125 74.21875 47.359375 69.109375 
Q 53.90625 64.015625 53.90625 55.328125 
Q 53.90625 49.265625 50.4375 45.09375 
Q 46.96875 40.921875 40.578125 39.3125 
z
" id="DejaVuSans-51"/>
      </defs>
      <g transform="translate(20.878125 58.718721)scale(0.1 -0.1)">
       <use xlink:href="#DejaVuSans-51"/>
      </g>
     </g>
    </g>
    <g id="ytick_5">
     <g id="line2d_11">
      <g>
       <use style="stroke:#000000;stroke-width:0.8;" x="34.240625" xlink:href="#m4258a0a768" y="17.905601"/>
      </g>
     </g>
     <g id="text_12">
      <!-- 4 -->
      <defs>
       <path d="M 37.796875 64.3125 
L 12.890625 25.390625 
L 37.796875 25.390625 
z
M 35.203125 72.90625 
L 47.609375 72.90625 
L 47.609375 25.390625 
L 58.015625 25.390625 
L 58.015625 17.1875 
L 47.609375 17.1875 
L 47.609375 0 
L 37.796875 0 
L 37.796875 17.1875 
L 4.890625 17.1875 
L 4.890625 26.703125 
z
" id="DejaVuSans-52"/>
      </defs>
      <g transform="translate(20.878125 21.704819)scale(0.1 -0.1)">
       <use xlink:href="#DejaVuSans-52"/>
      </g>
     </g>
    </g>
    <g id="text_13">
     <!-- precipitation [mm/hour] -->
     <defs>
      <path d="M 18.109375 8.203125 
L 18.109375 -20.796875 
L 9.078125 -20.796875 
L 9.078125 54.6875 
L 18.109375 54.6875 
L 18.109375 46.390625 
Q 20.953125 51.265625 25.265625 53.625 
Q 29.59375 56 35.59375 56 
Q 45.5625 56 51.78125 48.09375 
Q 58.015625 40.1875 58.015625 27.296875 
Q 58.015625 14.40625 51.78125 6.484375 
Q 45.5625 -1.421875 35.59375 -1.421875 
Q 29.59375 -1.421875 25.265625 0.953125 
Q 20.953125 3.328125 18.109375 8.203125 
z
M 48.6875 27.296875 
Q 48.6875 37.203125 44.609375 42.84375 
Q 40.53125 48.484375 33.40625 48.484375 
Q 26.265625 48.484375 22.1875 42.84375 
Q 18.109375 37.203125 18.109375 27.296875 
Q 18.109375 17.390625 22.1875 11.75 
Q 26.265625 6.109375 33.40625 6.109375 
Q 40.53125 6.109375 44.609375 11.75 
Q 48.6875 17.390625 48.6875 27.296875 
z
" id="DejaVuSans-112"/>
      <path d="M 56.203125 29.59375 
L 56.203125 25.203125 
L 14.890625 25.203125 
Q 15.484375 15.921875 20.484375 11.0625 
Q 25.484375 6.203125 34.421875 6.203125 
Q 39.59375 6.203125 44.453125 7.46875 
Q 49.3125 8.734375 54.109375 11.28125 
L 54.109375 2.78125 
Q 49.265625 0.734375 44.1875 -0.34375 
Q 39.109375 -1.421875 33.890625 -1.421875 
Q 20.796875 -1.421875 13.15625 6.1875 
Q 5.515625 13.8125 5.515625 26.8125 
Q 5.515625 40.234375 12.765625 48.109375 
Q 20.015625 56 32.328125 56 
Q 43.359375 56 49.78125 48.890625 
Q 56.203125 41.796875 56.203125 29.59375 
z
M 47.21875 32.234375 
Q 47.125 39.59375 43.09375 43.984375 
Q 39.0625 48.390625 32.421875 48.390625 
Q 24.90625 48.390625 20.390625 44.140625 
Q 15.875 39.890625 15.1875 32.171875 
z
" id="DejaVuSans-101"/>
      <path d="M 48.78125 52.59375 
L 48.78125 44.1875 
Q 44.96875 46.296875 41.140625 47.34375 
Q 37.3125 48.390625 33.40625 48.390625 
Q 24.65625 48.390625 19.8125 42.84375 
Q 14.984375 37.3125 14.984375 27.296875 
Q 14.984375 17.28125 19.8125 11.734375 
Q 24.65625 6.203125 33.40625 6.203125 
Q 37.3125 6.203125 41.140625 7.25 
Q 44.96875 8.296875 48.78125 10.40625 
L 48.78125 2.09375 
Q 45.015625 0.34375 40.984375 -0.53125 
Q 36.96875 -1.421875 32.421875 -1.421875 
Q 20.0625 -1.421875 12.78125 6.34375 
Q 5.515625 14.109375 5.515625 27.296875 
Q 5.515625 40.671875 12.859375 48.328125 
Q 20.21875 56 33.015625 56 
Q 37.15625 56 41.109375 55.140625 
Q 45.0625 54.296875 48.78125 52.59375 
z
" id="DejaVuSans-99"/>
      <path d="M 9.421875 54.6875 
L 18.40625 54.6875 
L 18.40625 0 
L 9.421875 0 
z
M 9.421875 75.984375 
L 18.40625 75.984375 
L 18.40625 64.59375 
L 9.421875 64.59375 
z
" id="DejaVuSans-105"/>
      <path d="M 18.3125 70.21875 
L 18.3125 54.6875 
L 36.8125 54.6875 
L 36.8125 47.703125 
L 18.3125 47.703125 
L 18.3125 18.015625 
Q 18.3125 11.328125 20.140625 9.421875 
Q 21.96875 7.515625 27.59375 7.515625 
L 36.8125 7.515625 
L 36.8125 0 
L 27.59375 0 
Q 17.1875 0 13.234375 3.875 
Q 9.28125 7.765625 9.28125 18.015625 
L 9.28125 47.703125 
L 2.6875 47.703125 
L 2.6875 54.6875 
L 9.28125 54.6875 
L 9.28125 70.21875 
z
" id="DejaVuSans-116"/>
      <path d="M 34.28125 27.484375 
Q 23.390625 27.484375 19.1875 25 
Q 14.984375 22.515625 14.984375 16.5 
Q 14.984375 11.71875 18.140625 8.90625 
Q 21.296875 6.109375 26.703125 6.109375 
Q 34.1875 6.109375 38.703125 11.40625 
Q 43.21875 16.703125 43.21875 25.484375 
L 43.21875 27.484375 
z
M 52.203125 31.203125 
L 52.203125 0 
L 43.21875 0 
L 43.21875 8.296875 
Q 40.140625 3.328125 35.546875 0.953125 
Q 30.953125 -1.421875 24.3125 -1.421875 
Q 15.921875 -1.421875 10.953125 3.296875 
Q 6 8.015625 6 15.921875 
Q 6 25.140625 12.171875 29.828125 
Q 18.359375 34.515625 30.609375 34.515625 
L 43.21875 34.515625 
L 43.21875 35.40625 
Q 43.21875 41.609375 39.140625 45 
Q 35.0625 48.390625 27.6875 48.390625 
Q 23 48.390625 18.546875 47.265625 
Q 14.109375 46.140625 10.015625 43.890625 
L 10.015625 52.203125 
Q 14.9375 54.109375 19.578125 55.046875 
Q 24.21875 56 28.609375 56 
Q 40.484375 56 46.34375 49.84375 
Q 52.203125 43.703125 52.203125 31.203125 
z
" id="DejaVuSans-97"/>
      <path d="M 54.890625 33.015625 
L 54.890625 0 
L 45.90625 0 
L 45.90625 32.71875 
Q 45.90625 40.484375 42.875 44.328125 
Q 39.84375 48.1875 33.796875 48.1875 
Q 26.515625 48.1875 22.3125 43.546875 
Q 18.109375 38.921875 18.109375 30.90625 
L 18.109375 0 
L 9.078125 0 
L 9.078125 54.6875 
L 18.109375 54.6875 
L 18.109375 46.1875 
Q 21.34375 51.125 25.703125 53.5625 
Q 30.078125 56 35.796875 56 
Q 45.21875 56 50.046875 50.171875 
Q 54.890625 44.34375 54.890625 33.015625 
z
" id="DejaVuSans-110"/>
      <path id="DejaVuSans-32"/>
      <path d="M 8.59375 75.984375 
L 29.296875 75.984375 
L 29.296875 69 
L 17.578125 69 
L 17.578125 -6.203125 
L 29.296875 -6.203125 
L 29.296875 -13.1875 
L 8.59375 -13.1875 
z
" id="DejaVuSans-91"/>
      <path d="M 52 44.1875 
Q 55.375 50.25 60.0625 53.125 
Q 64.75 56 71.09375 56 
Q 79.640625 56 84.28125 50.015625 
Q 88.921875 44.046875 88.921875 33.015625 
L 88.921875 0 
L 79.890625 0 
L 79.890625 32.71875 
Q 79.890625 40.578125 77.09375 44.375 
Q 74.3125 48.1875 68.609375 48.1875 
Q 61.625 48.1875 57.5625 43.546875 
Q 53.515625 38.921875 53.515625 30.90625 
L 53.515625 0 
L 44.484375 0 
L 44.484375 32.71875 
Q 44.484375 40.625 41.703125 44.40625 
Q 38.921875 48.1875 33.109375 48.1875 
Q 26.21875 48.1875 22.15625 43.53125 
Q 18.109375 38.875 18.109375 30.90625 
L 18.109375 0 
L 9.078125 0 
L 9.078125 54.6875 
L 18.109375 54.6875 
L 18.109375 46.1875 
Q 21.1875 51.21875 25.484375 53.609375 
Q 29.78125 56 35.6875 56 
Q 41.65625 56 45.828125 52.96875 
Q 50 49.953125 52 44.1875 
z
" id="DejaVuSans-109"/>
      <path d="M 25.390625 72.90625 
L 33.6875 72.90625 
L 8.296875 -9.28125 
L 0 -9.28125 
z
" id="DejaVuSans-47"/>
      <path d="M 30.421875 75.984375 
L 30.421875 -13.1875 
L 9.71875 -13.1875 
L 9.71875 -6.203125 
L 21.390625 -6.203125 
L 21.390625 69 
L 9.71875 69 
L 9.71875 75.984375 
z
" id="DejaVuSans-93"/>
     </defs>
     <g transform="translate(14.798438 150.335781)rotate(-90)scale(0.1 -0.1)">
      <use xlink:href="#DejaVuSans-112"/>
      <use x="63.476562" xlink:href="#DejaVuSans-114"/>
      <use x="104.558594" xlink:href="#DejaVuSans-101"/>
      <use x="166.082031" xlink:href="#DejaVuSans-99"/>
      <use x="221.0625" xlink:href="#DejaVuSans-105"/>
      <use x="248.845703" xlink:href="#DejaVuSans-112"/>
      <use x="312.322266" xlink:href="#DejaVuSans-105"/>
      <use x="340.105469" xlink:href="#DejaVuSans-116"/>
      <use x="379.314453" xlink:href="#DejaVuSans-97"/>
      <use x="440.59375" xlink:href="#DejaVuSans-116"/>
      <use x="479.802734" xlink:href="#DejaVuSans-105"/>
      <use x="507.585938" xlink:href="#DejaVuSans-111"/>
      <use x="568.767578" xlink:href="#DejaVuSans-110"/>
      <use x="632.146484" xlink:href="#DejaVuSans-32"/>
      <use x="663.933594" xlink:href="#DejaVuSans-91"/>
      <use x="702.947266" xlink:href="#DejaVuSans-109"/>
      <use x="800.359375" xlink:href="#DejaVuSans-109"/>
      <use x="897.771484" xlink:href="#DejaVuSans-47"/>
      <use x="931.462891" xlink:href="#DejaVuSans-104"/>
      <use x="994.841797" xlink:href="#DejaVuSans-111"/>
      <use x="1056.023438" xlink:href="#DejaVuSans-117"/>
      <use x="1119.402344" xlink:href="#DejaVuSans-114"/>
      <use x="1160.515625" xlink:href="#DejaVuSans-93"/>
     </g>
    </g>
   </g>
   <g id="line2d_12">
    <path clip-path="url(#p08718a7b4b)" d="M 51.99517 161.653027 
L 67.433906 163.913025 
L 82.872641 165.050834 
L 98.311376 164.474283 
L 113.750111 164.626443 
L 129.188846 165.253593 
L 144.627582 165.594791 
L 160.066317 165.656432 
L 175.505052 165.690494 
L 190.943787 165.528741 
L 206.382522 165.341349 
L 221.821257 165.704812 
L 237.259993 165.70095 
L 252.698728 165.004742 
L 268.137463 139.422104 
L 283.576198 138.814013 
L 299.014933 131.419621 
L 314.453668 150.855755 
L 329.892404 135.475326 
L 345.331139 136.623421 
L 360.769874 130.44897 
L 376.208609 163.419315 
L 391.647344 165.813366 
L 407.08608 165.886185 
" style="fill:none;stroke:#1b9e77;stroke-linecap:square;stroke-opacity:0.5;stroke-width:1.5;"/>
   </g>
   <g id="line2d_13">
    <path clip-path="url(#p08718a7b4b)" d="M 51.99517 139.531447 
L 67.433906 133.999177 
L 82.872641 159.741314 
L 98.311376 161.011981 
L 113.750111 161.910182 
L 129.188846 160.385261 
L 144.627582 159.772866 
L 160.066317 160.544113 
L 175.505052 161.544364 
L 190.943787 163.638005 
L 206.382522 164.482486 
L 221.821257 161.82391 
L 237.259993 156.087092 
L 252.698728 164.967154 
L 268.137463 165.631168 
L 283.576198 165.825131 
L 299.014933 165.890036 
L 314.453668 162.138081 
L 329.892404 154.653489 
L 345.331139 151.351766 
L 360.769874 147.531651 
L 376.208609 140.762609 
L 391.647344 146.95542 
L 407.08608 157.192887 
" style="fill:none;stroke:#1b9e77;stroke-linecap:square;stroke-opacity:0.5;stroke-width:1.5;"/>
   </g>
   <g id="line2d_14">
    <path clip-path="url(#p08718a7b4b)" d="M 51.99517 163.316833 
L 67.433906 160.393431 
L 82.872641 160.848414 
L 98.311376 160.616057 
L 113.750111 162.258628 
L 129.188846 161.025295 
L 144.627582 159.760775 
L 160.066317 117.01981 
L 175.505052 150.190743 
L 190.943787 162.000757 
L 206.382522 164.888726 
L 221.821257 164.917022 
L 237.259993 165.55613 
L 252.698728 165.6718 
L 268.137463 165.693191 
L 283.576198 165.694798 
L 299.014933 165.281115 
L 314.453668 163.0284 
L 329.892404 148.514663 
L 345.331139 140.972709 
L 360.769874 140.524348 
L 376.208609 147.65732 
L 391.647344 149.61462 
L 407.08608 161.926012 
" style="fill:none;stroke:#1b9e77;stroke-linecap:square;stroke-opacity:0.5;stroke-width:1.5;"/>
   </g>
   <g id="line2d_15">
    <path clip-path="url(#p08718a7b4b)" d="M 51.99517 163.30003 
L 67.433906 160.65365 
L 82.872641 160.058144 
L 98.311376 158.564573 
L 113.750111 157.754665 
L 129.188846 158.071426 
L 144.627582 158.659926 
L 160.066317 157.360959 
L 175.505052 147.309531 
L 190.943787 142.832739 
L 206.382522 148.033289 
L 221.821257 161.071731 
L 237.259993 164.836886 
L 252.698728 75.631869 
L 268.137463 161.540805 
L 283.576198 165.16252 
L 299.014933 165.68105 
L 314.453668 165.669684 
L 329.892404 165.745838 
L 345.331139 165.800286 
L 360.769874 165.853595 
L 376.208609 165.901238 
L 391.647344 165.928307 
L 407.08608 165.94886 
" style="fill:none;stroke:#1b9e77;stroke-linecap:square;stroke-opacity:0.5;stroke-width:1.5;"/>
   </g>
   <g id="line2d_16">
    <path clip-path="url(#p08718a7b4b)" d="M 51.99517 165.617843 
L 67.433906 164.413697 
L 82.872641 163.05139 
L 98.311376 158.880335 
L 113.750111 156.307115 
L 129.188846 154.89092 
L 144.627582 156.019363 
L 160.066317 153.238264 
L 175.505052 121.59074 
L 190.943787 111.713329 
L 206.382522 136.64725 
L 221.821257 146.846114 
L 237.259993 161.864031 
L 252.698728 165.486598 
L 268.137463 165.700213 
L 283.576198 165.179797 
L 299.014933 163.876058 
L 314.453668 165.929548 
L 329.892404 165.931349 
L 345.331139 165.152478 
L 360.769874 165.371872 
L 376.208609 165.531882 
L 391.647344 162.501907 
L 407.08608 165.6295 
" style="fill:none;stroke:#1b9e77;stroke-linecap:square;stroke-opacity:0.5;stroke-width:1.5;"/>
   </g>
   <g id="line2d_17">
    <path clip-path="url(#p08718a7b4b)" d="M 51.99517 165.943066 
L 67.433906 165.8841 
L 82.872641 165.882487 
L 98.311376 165.859781 
L 113.750111 165.825118 
L 129.188846 165.892766 
L 144.627582 165.906845 
L 160.066317 163.525587 
L 175.505052 161.303863 
L 190.943787 160.836322 
L 206.382522 161.544495 
L 221.821257 163.76574 
L 237.259993 158.647882 
L 252.698728 158.022204 
L 268.137463 156.480799 
L 283.576198 104.741515 
L 299.014933 78.222857 
L 314.453668 150.020718 
L 329.892404 162.821555 
L 345.331139 163.844731 
L 360.769874 165.186782 
L 376.208609 165.514069 
L 391.647344 165.771264 
L 407.08608 165.927047 
" style="fill:none;stroke:#1b9e77;stroke-linecap:square;stroke-opacity:0.5;stroke-width:1.5;"/>
   </g>
   <g id="line2d_18">
    <path clip-path="url(#p08718a7b4b)" d="M 51.99517 165.957749 
L 67.433906 165.899885 
L 82.872641 165.823927 
L 98.311376 165.544276 
L 113.750111 161.812968 
L 129.188846 165.297788 
L 144.627582 161.826233 
L 160.066317 161.711218 
L 175.505052 162.334128 
L 190.943787 159.362059 
L 206.382522 140.604508 
L 221.821257 129.984351 
L 237.259993 146.737271 
L 252.698728 149.154792 
L 268.137463 131.810127 
L 283.576198 114.988058 
L 299.014933 159.781089 
L 314.453668 164.714797 
L 329.892404 165.493009 
L 345.331139 165.319489 
L 360.769874 165.585127 
L 376.208609 165.792094 
L 391.647344 165.889058 
L 407.08608 165.947594 
" style="fill:none;stroke:#1b9e77;stroke-linecap:square;stroke-opacity:0.5;stroke-width:1.5;"/>
   </g>
   <g id="line2d_19">
    <path clip-path="url(#p08718a7b4b)" d="M 51.99517 135.423047 
L 67.433906 126.074057 
L 82.872641 156.271499 
L 98.311376 149.303468 
L 113.750111 165.469276 
L 129.188846 165.701394 
L 144.627582 165.822401 
L 160.066317 165.7995 
L 175.505052 165.725939 
L 190.943787 164.925677 
L 206.382522 162.007783 
L 221.821257 164.715552 
L 237.259993 161.690391 
L 252.698728 151.699221 
L 268.137463 151.400435 
L 283.576198 108.727819 
L 299.014933 146.667231 
L 314.453668 164.939986 
L 329.892404 165.749978 
L 345.331139 165.67954 
L 360.769874 165.807871 
L 376.208609 165.891065 
L 391.647344 165.922159 
L 407.08608 165.956304 
" style="fill:none;stroke:#1b9e77;stroke-linecap:square;stroke-opacity:0.5;stroke-width:1.5;"/>
   </g>
   <g id="line2d_20">
    <path clip-path="url(#p08718a7b4b)" d="M 51.99517 161.484033 
L 67.433906 152.536728 
L 82.872641 129.553881 
L 98.311376 143.55319 
L 113.750111 163.217489 
L 129.188846 164.965207 
L 144.627582 165.492745 
L 160.066317 165.410812 
L 175.505052 165.574717 
L 190.943787 165.582814 
L 206.382522 165.587221 
L 221.821257 165.61713 
L 237.259993 165.564219 
L 252.698728 165.609096 
L 268.137463 163.067891 
L 283.576198 152.773237 
L 299.014933 136.962618 
L 314.453668 149.055879 
L 329.892404 145.238418 
L 345.331139 153.285459 
L 360.769874 157.69124 
L 376.208609 156.855032 
L 391.647344 149.937755 
L 407.08608 162.754784 
" style="fill:none;stroke:#1b9e77;stroke-linecap:square;stroke-opacity:0.5;stroke-width:1.5;"/>
   </g>
   <g id="line2d_21">
    <path clip-path="url(#p08718a7b4b)" d="M 51.99517 164.920149 
L 67.433906 164.657122 
L 82.872641 164.53252 
L 98.311376 163.099859 
L 113.750111 162.323781 
L 129.188846 160.272378 
L 144.627582 156.533309 
L 160.066317 153.406463 
L 175.505052 144.233167 
L 190.943787 90.675447 
L 206.382522 138.646743 
L 221.821257 151.476042 
L 237.259993 159.899039 
L 252.698728 162.401748 
L 268.137463 160.594138 
L 283.576198 156.634662 
L 299.014933 152.579318 
L 314.453668 165.869669 
L 329.892404 165.954991 
L 345.331139 165.346824 
L 360.769874 165.450739 
L 376.208609 165.950177 
L 391.647344 165.953425 
L 407.08608 165.959878 
" style="fill:none;stroke:#1b9e77;stroke-linecap:square;stroke-opacity:0.5;stroke-width:1.5;"/>
   </g>
   <g id="line2d_22">
    <path clip-path="url(#p08718a7b4b)" d="M 51.99517 165.444746 
L 67.433906 164.907444 
L 82.872641 165.048088 
L 98.311376 165.289611 
L 113.750111 165.526592 
L 129.188846 165.57477 
L 144.627582 165.622045 
L 160.066317 165.092539 
L 175.505052 162.804011 
L 190.943787 164.370702 
L 206.382522 162.488638 
L 221.821257 161.384274 
L 237.259993 155.498468 
L 252.698728 157.407663 
L 268.137463 154.726327 
L 283.576198 151.879807 
L 299.014933 148.559366 
L 314.453668 148.579267 
L 329.892404 145.821353 
L 345.331139 147.657746 
L 360.769874 149.094094 
L 376.208609 143.999522 
L 391.647344 133.871418 
L 407.08608 156.723106 
" style="fill:none;stroke:#1b9e77;stroke-linecap:square;stroke-opacity:0.5;stroke-width:1.5;"/>
   </g>
   <g id="line2d_23">
    <path clip-path="url(#p08718a7b4b)" d="M 51.99517 119.798171 
L 67.433906 138.205572 
L 82.872641 154.551915 
L 98.311376 151.392015 
L 113.750111 151.188577 
L 129.188846 150.081922 
L 144.627582 144.207577 
L 160.066317 150.889157 
L 175.505052 157.742419 
L 190.943787 159.115927 
L 206.382522 161.033506 
L 221.821257 159.819919 
L 237.259993 155.397335 
L 252.698728 158.151631 
L 268.137463 163.835246 
L 283.576198 165.15992 
L 299.014933 165.680926 
L 314.453668 165.796606 
L 329.892404 165.843316 
L 345.331139 165.846741 
L 360.769874 165.864945 
L 376.208609 165.892524 
L 391.647344 165.918698 
L 407.08608 165.957028 
" style="fill:none;stroke:#1b9e77;stroke-linecap:square;stroke-opacity:0.5;stroke-width:1.5;"/>
   </g>
   <g id="line2d_24">
    <path clip-path="url(#p08718a7b4b)" d="M 51.99517 162.479774 
L 67.433906 151.197476 
L 82.872641 120.158907 
L 98.311376 92.243808 
L 113.750111 163.140209 
L 129.188846 165.071974 
L 144.627582 165.574 
L 160.066317 165.387118 
L 175.505052 165.359033 
L 190.943787 165.334952 
L 206.382522 165.463623 
L 221.821257 165.684276 
L 237.259993 165.699831 
L 252.698728 165.574584 
L 268.137463 156.167762 
L 283.576198 151.70222 
L 299.014933 138.57064 
L 314.453668 164.684609 
L 329.892404 160.067158 
L 345.331139 163.991525 
L 360.769874 165.454945 
L 376.208609 156.711756 
L 391.647344 165.872874 
L 407.08608 165.778545 
" style="fill:none;stroke:#1b9e77;stroke-linecap:square;stroke-opacity:0.5;stroke-width:1.5;"/>
   </g>
   <g id="line2d_25">
    <path clip-path="url(#p08718a7b4b)" d="M 51.99517 164.984285 
L 67.433906 155.588852 
L 82.872641 127.977258 
L 98.311376 130.134061 
L 113.750111 149.750861 
L 129.188846 157.223556 
L 144.627582 147.544466 
L 160.066317 125.170159 
L 175.505052 149.412106 
L 190.943787 156.848065 
L 206.382522 160.71303 
L 221.821257 157.078867 
L 237.259993 163.448041 
L 252.698728 165.633019 
L 268.137463 165.849987 
L 283.576198 165.806235 
L 299.014933 165.848179 
L 314.453668 165.882157 
L 329.892404 165.871161 
L 345.331139 165.860023 
L 360.769874 165.514436 
L 376.208609 165.164966 
L 391.647344 164.449955 
L 407.08608 165.617875 
" style="fill:none;stroke:#1b9e77;stroke-linecap:square;stroke-opacity:0.5;stroke-width:1.5;"/>
   </g>
   <g id="line2d_26">
    <path clip-path="url(#p08718a7b4b)" d="M 51.99517 165.006615 
L 67.433906 163.720737 
L 82.872641 162.72686 
L 98.311376 160.180506 
L 113.750111 154.590486 
L 129.188846 148.979753 
L 144.627582 154.499104 
L 160.066317 134.93863 
L 175.505052 115.052215 
L 190.943787 133.300158 
L 206.382522 157.7615 
L 221.821257 159.531099 
L 237.259993 161.574024 
L 252.698728 162.92541 
L 268.137463 164.58502 
L 283.576198 165.387401 
L 299.014933 165.687131 
L 314.453668 165.886423 
L 329.892404 165.837686 
L 345.331139 147.789106 
L 360.769874 161.63173 
L 376.208609 164.07967 
L 391.647344 165.823476 
L 407.08608 165.876857 
" style="fill:none;stroke:#1b9e77;stroke-linecap:square;stroke-opacity:0.5;stroke-width:1.5;"/>
   </g>
   <g id="line2d_27">
    <path clip-path="url(#p08718a7b4b)" d="M 51.99517 124.056451 
L 67.433906 162.250711 
L 82.872641 163.152628 
L 98.311376 163.807193 
L 113.750111 162.938793 
L 129.188846 148.131765 
L 144.627582 137.939954 
L 160.066317 150.16623 
L 175.505052 160.734531 
L 190.943787 144.005598 
L 206.382522 142.216539 
L 221.821257 160.920876 
L 237.259993 162.603336 
L 252.698728 152.053382 
L 268.137463 150.497549 
L 283.576198 158.13703 
L 299.014933 164.679373 
L 314.453668 165.378518 
L 329.892404 165.615753 
L 345.331139 165.250315 
L 360.769874 165.255222 
L 376.208609 165.762422 
L 391.647344 165.873798 
L 407.08608 165.943629 
" style="fill:none;stroke:#1b9e77;stroke-linecap:square;stroke-opacity:0.5;stroke-width:1.5;"/>
   </g>
   <g id="line2d_28">
    <path clip-path="url(#p08718a7b4b)" d="M 51.99517 163.512091 
L 67.433906 82.023099 
L 82.872641 95.456517 
L 98.311376 149.185811 
L 113.750111 162.215287 
L 129.188846 159.782231 
L 144.627582 154.285781 
L 160.066317 165.503044 
L 175.505052 165.769306 
L 190.943787 165.75626 
L 206.382522 165.764632 
L 221.821257 165.747453 
L 237.259993 165.810357 
L 252.698728 165.875413 
L 268.137463 165.883031 
L 283.576198 165.788058 
L 299.014933 164.696317 
L 314.453668 165.382853 
L 329.892404 165.290704 
L 345.331139 164.108921 
L 360.769874 162.900404 
L 376.208609 162.837156 
L 391.647344 159.817674 
L 407.08608 163.979202 
" style="fill:none;stroke:#1b9e77;stroke-linecap:square;stroke-opacity:0.5;stroke-width:1.5;"/>
   </g>
   <g id="line2d_29">
    <path clip-path="url(#p08718a7b4b)" d="M 51.99517 162.234896 
L 67.433906 163.817374 
L 82.872641 165.161363 
L 98.311376 159.367346 
L 113.750111 160.383011 
L 129.188846 164.046876 
L 144.627582 165.579043 
L 160.066317 165.759676 
L 175.505052 165.805074 
L 190.943787 165.089166 
L 206.382522 161.206912 
L 221.821257 165.805237 
L 237.259993 165.591167 
L 252.698728 162.966952 
L 268.137463 163.040306 
L 283.576198 161.426782 
L 299.014933 152.557189 
L 314.453668 121.840508 
L 329.892404 108.248932 
L 345.331139 147.469785 
L 360.769874 146.393082 
L 376.208609 142.698748 
L 391.647344 165.012894 
L 407.08608 165.869273 
" style="fill:none;stroke:#1b9e77;stroke-linecap:square;stroke-opacity:0.5;stroke-width:1.5;"/>
   </g>
   <g id="line2d_30">
    <path clip-path="url(#p08718a7b4b)" d="M 51.99517 165.865755 
L 67.433906 165.631165 
L 82.872641 165.20363 
L 98.311376 164.768971 
L 113.750111 165.348479 
L 129.188846 165.532918 
L 144.627582 160.543285 
L 160.066317 152.401567 
L 175.505052 146.79373 
L 190.943787 121.935684 
L 206.382522 123.829768 
L 221.821257 138.835954 
L 237.259993 135.649642 
L 252.698728 149.272943 
L 268.137463 163.500543 
L 283.576198 164.925561 
L 299.014933 165.473868 
L 314.453668 165.694745 
L 329.892404 165.829672 
L 345.331139 165.809507 
L 360.769874 164.743649 
L 376.208609 164.568106 
L 391.647344 162.702246 
L 407.08608 162.510208 
" style="fill:none;stroke:#1b9e77;stroke-linecap:square;stroke-opacity:0.5;stroke-width:1.5;"/>
   </g>
   <g id="line2d_31">
    <path clip-path="url(#p08718a7b4b)" d="M 51.99517 165.939482 
L 67.433906 165.862051 
L 82.872641 165.907528 
L 98.311376 165.904878 
L 113.750111 165.893118 
L 129.188846 165.928893 
L 144.627582 165.253701 
L 160.066317 163.1743 
L 175.505052 162.154796 
L 190.943787 162.737302 
L 206.382522 159.591416 
L 221.821257 159.480221 
L 237.259993 160.807464 
L 252.698728 160.167668 
L 268.137463 146.031051 
L 283.576198 153.208126 
L 299.014933 157.4397 
L 314.453668 118.610066 
L 329.892404 109.915492 
L 345.331139 164.855229 
L 360.769874 161.049862 
L 376.208609 147.25753 
L 391.647344 160.977324 
L 407.08608 159.224397 
" style="fill:none;stroke:#1b9e77;stroke-linecap:square;stroke-opacity:0.5;stroke-width:1.5;"/>
   </g>
   <g id="line2d_32">
    <path clip-path="url(#p08718a7b4b)" d="M 51.99517 122.292735 
L 67.433906 151.066083 
L 82.872641 163.466943 
L 98.311376 159.200372 
L 113.750111 151.241621 
L 129.188846 160.419582 
L 144.627582 159.224749 
L 160.066317 161.471108 
L 175.505052 163.352291 
L 190.943787 163.186893 
L 206.382522 163.822368 
L 221.821257 163.851036 
L 237.259993 160.472003 
L 252.698728 138.857422 
L 268.137463 129.963988 
L 283.576198 146.844503 
L 299.014933 160.537525 
L 314.453668 162.729726 
L 329.892404 164.409441 
L 345.331139 165.449079 
L 360.769874 165.781114 
L 376.208609 165.89271 
L 391.647344 165.919596 
L 407.08608 157.918705 
" style="fill:none;stroke:#1b9e77;stroke-linecap:square;stroke-opacity:0.5;stroke-width:1.5;"/>
   </g>
   <g id="line2d_33">
    <path clip-path="url(#p08718a7b4b)" d="M 51.99517 151.426969 
L 67.433906 165.588496 
L 82.872641 164.894872 
L 98.311376 164.445281 
L 113.750111 164.403292 
L 129.188846 164.708499 
L 144.627582 164.986765 
L 160.066317 164.753964 
L 175.505052 164.702788 
L 190.943787 163.797139 
L 206.382522 160.531239 
L 221.821257 151.655108 
L 237.259993 146.952931 
L 252.698728 146.579062 
L 268.137463 131.894623 
L 283.576198 88.031412 
L 299.014933 155.962472 
L 314.453668 163.588787 
L 329.892404 164.681333 
L 345.331139 163.929934 
L 360.769874 164.877702 
L 376.208609 165.483526 
L 391.647344 165.690821 
L 407.08608 163.804582 
" style="fill:none;stroke:#1b9e77;stroke-linecap:square;stroke-opacity:0.5;stroke-width:1.5;"/>
   </g>
   <g id="line2d_34">
    <path clip-path="url(#p08718a7b4b)" d="M 51.99517 165.951514 
L 67.433906 165.926179 
L 82.872641 165.922323 
L 98.311376 165.911873 
L 113.750111 165.585713 
L 129.188846 165.14785 
L 144.627582 161.366321 
L 160.066317 157.462719 
L 175.505052 130.808219 
L 190.943787 118.838919 
L 206.382522 121.085409 
L 221.821257 156.836924 
L 237.259993 165.210458 
L 252.698728 162.632906 
L 268.137463 154.822853 
L 283.576198 160.160662 
L 299.014933 159.858713 
L 314.453668 161.248705 
L 329.892404 162.016738 
L 345.331139 161.204537 
L 360.769874 160.940396 
L 376.208609 160.176264 
L 391.647344 159.552793 
L 407.08608 158.702609 
" style="fill:none;stroke:#1b9e77;stroke-linecap:square;stroke-opacity:0.5;stroke-width:1.5;"/>
   </g>
   <g id="line2d_35">
    <path clip-path="url(#p08718a7b4b)" d="M 51.99517 162.864807 
L 67.433906 161.409032 
L 82.872641 160.293015 
L 98.311376 157.435728 
L 113.750111 156.620524 
L 129.188846 156.92143 
L 144.627582 134.448586 
L 160.066317 44.647415 
L 175.505052 155.961981 
L 190.943787 165.208764 
L 206.382522 165.694963 
L 221.821257 164.778197 
L 237.259993 165.598973 
L 252.698728 165.794419 
L 268.137463 165.848875 
L 283.576198 165.870187 
L 299.014933 165.809441 
L 314.453668 165.335418 
L 329.892404 164.347479 
L 345.331139 165.030515 
L 360.769874 164.864916 
L 376.208609 164.372578 
L 391.647344 164.047332 
L 407.08608 164.167019 
" style="fill:none;stroke:#1b9e77;stroke-linecap:square;stroke-opacity:0.5;stroke-width:1.5;"/>
   </g>
   <g id="line2d_36">
    <path clip-path="url(#p08718a7b4b)" d="M 51.99517 165.503791 
L 67.433906 163.61004 
L 82.872641 150.505152 
L 98.311376 154.867188 
L 113.750111 163.675496 
L 129.188846 165.186014 
L 144.627582 159.017388 
L 160.066317 155.715621 
L 175.505052 145.341236 
L 190.943787 158.027996 
L 206.382522 158.996892 
L 221.821257 158.476604 
L 237.259993 162.033955 
L 252.698728 162.092259 
L 268.137463 158.57992 
L 283.576198 158.385607 
L 299.014933 161.305893 
L 314.453668 158.904401 
L 329.892404 148.465328 
L 345.331139 146.908183 
L 360.769874 156.752044 
L 376.208609 153.252618 
L 391.647344 148.803684 
L 407.08608 152.964289 
" style="fill:none;stroke:#1b9e77;stroke-linecap:square;stroke-opacity:0.5;stroke-width:1.5;"/>
   </g>
   <g id="line2d_37">
    <path clip-path="url(#p08718a7b4b)" d="M 51.99517 165.927224 
L 67.433906 165.836722 
L 82.872641 165.836236 
L 98.311376 165.888844 
L 113.750111 165.035816 
L 129.188846 162.335585 
L 144.627582 160.320705 
L 160.066317 160.374672 
L 175.505052 161.714401 
L 190.943787 152.574677 
L 206.382522 47.486584 
L 221.821257 120.915431 
L 237.259993 156.59821 
L 252.698728 163.30404 
L 268.137463 165.240048 
L 283.576198 165.327219 
L 299.014933 165.53757 
L 314.453668 165.671999 
L 329.892404 165.802959 
L 345.331139 165.77869 
L 360.769874 165.738852 
L 376.208609 165.872459 
L 391.647344 165.166657 
L 407.08608 163.085988 
" style="fill:none;stroke:#1b9e77;stroke-linecap:square;stroke-opacity:0.5;stroke-width:1.5;"/>
   </g>
   <g id="line2d_38">
    <path clip-path="url(#p08718a7b4b)" d="M 51.99517 165.437996 
L 67.433906 165.158142 
L 82.872641 165.129446 
L 98.311376 155.275569 
L 113.750111 141.962967 
L 129.188846 149.037004 
L 144.627582 156.143037 
L 160.066317 153.821041 
L 175.505052 146.391014 
L 190.943787 130.569649 
L 206.382522 129.781835 
L 221.821257 141.519441 
L 237.259993 161.025899 
L 252.698728 165.331058 
L 268.137463 165.671454 
L 283.576198 165.548138 
L 299.014933 165.26844 
L 314.453668 164.332596 
L 329.892404 165.084799 
L 345.331139 165.897208 
L 360.769874 165.447456 
L 376.208609 159.98366 
L 391.647344 160.274088 
L 407.08608 163.279658 
" style="fill:none;stroke:#1b9e77;stroke-linecap:square;stroke-opacity:0.5;stroke-width:1.5;"/>
   </g>
   <g id="line2d_39">
    <path clip-path="url(#p08718a7b4b)" d="M 51.99517 165.951926 
L 67.433906 165.924844 
L 82.872641 165.937782 
L 98.311376 165.933306 
L 113.750111 165.920177 
L 129.188846 165.926862 
L 144.627582 165.933249 
L 160.066317 165.954814 
L 175.505052 165.949655 
L 190.943787 163.900383 
L 206.382522 147.319183 
L 221.821257 159.205538 
L 237.259993 159.253898 
L 252.698728 159.902782 
L 268.137463 161.61787 
L 283.576198 137.758686 
L 299.014933 107.660185 
L 314.453668 140.358631 
L 329.892404 143.512117 
L 345.331139 139.538009 
L 360.769874 157.115557 
L 376.208609 165.209326 
L 391.647344 165.697597 
L 407.08608 165.889221 
" style="fill:none;stroke:#1b9e77;stroke-linecap:square;stroke-opacity:0.5;stroke-width:1.5;"/>
   </g>
   <g id="line2d_40">
    <path clip-path="url(#p08718a7b4b)" d="M 51.99517 126.391798 
L 67.433906 165.654121 
L 82.872641 165.459228 
L 98.311376 165.675543 
L 113.750111 161.013223 
L 129.188846 165.815544 
L 144.627582 165.934367 
L 160.066317 165.944792 
L 175.505052 164.210847 
L 190.943787 148.453521 
L 206.382522 157.30919 
L 221.821257 165.677678 
L 237.259993 164.553616 
L 252.698728 161.267958 
L 268.137463 160.050035 
L 283.576198 128.862041 
L 299.014933 107.824914 
L 314.453668 151.579332 
L 329.892404 161.680043 
L 345.331139 154.4326 
L 360.769874 162.502017 
L 376.208609 165.385306 
L 391.647344 165.76935 
L 407.08608 165.924531 
" style="fill:none;stroke:#1b9e77;stroke-linecap:square;stroke-opacity:0.5;stroke-width:1.5;"/>
   </g>
   <g id="line2d_41">
    <path clip-path="url(#p08718a7b4b)" d="M 51.99517 161.157742 
L 67.433906 149.297183 
L 82.872641 148.890908 
L 98.311376 151.603527 
L 113.750111 164.564822 
L 129.188846 165.60473 
L 144.627582 165.812578 
L 160.066317 165.783921 
L 175.505052 165.82464 
L 190.943787 165.900839 
L 206.382522 165.884643 
L 221.821257 165.907068 
L 237.259993 165.58263 
L 252.698728 164.068994 
L 268.137463 164.342521 
L 283.576198 162.998434 
L 299.014933 163.015421 
L 314.453668 161.290098 
L 329.892404 146.28243 
L 345.331139 132.205309 
L 360.769874 121.407625 
L 376.208609 136.163751 
L 391.647344 150.581692 
L 407.08608 163.200087 
" style="fill:none;stroke:#1b9e77;stroke-linecap:square;stroke-opacity:0.5;stroke-width:1.5;"/>
   </g>
   <g id="line2d_42">
    <path clip-path="url(#p08718a7b4b)" d="M 51.99517 156.854148 
L 67.433906 156.043426 
L 82.872641 153.40959 
L 98.311376 155.256351 
L 113.750111 158.223742 
L 129.188846 147.203287 
L 144.627582 158.944873 
L 160.066317 163.570322 
L 175.505052 165.710249 
L 190.943787 165.729699 
L 206.382522 165.820477 
L 221.821257 165.839284 
L 237.259993 165.880579 
L 252.698728 165.908515 
L 268.137463 165.903113 
L 283.576198 165.630685 
L 299.014933 154.86846 
L 314.453668 154.241636 
L 329.892404 158.888763 
L 345.331139 155.697837 
L 360.769874 153.748666 
L 376.208609 145.807258 
L 391.647344 117.229748 
L 407.08608 150.960884 
" style="fill:none;stroke:#1b9e77;stroke-linecap:square;stroke-opacity:0.5;stroke-width:1.5;"/>
   </g>
   <g id="line2d_43">
    <path clip-path="url(#p08718a7b4b)" d="M 51.99517 162.197183 
L 67.433906 162.447006 
L 82.872641 164.727198 
L 98.311376 164.678838 
L 113.750111 164.981143 
L 129.188846 165.097053 
L 144.627582 165.335592 
L 160.066317 165.426856 
L 175.505052 165.53685 
L 190.943787 165.577688 
L 206.382522 165.604037 
L 221.821257 165.62907 
L 237.259993 165.418177 
L 252.698728 165.873522 
L 268.137463 163.661986 
L 283.576198 150.034434 
L 299.014933 159.870583 
L 314.453668 159.102613 
L 329.892404 152.599571 
L 345.331139 151.562196 
L 360.769874 154.919318 
L 376.208609 156.037914 
L 391.647344 144.175146 
L 407.08608 66.877621 
" style="fill:none;stroke:#1b9e77;stroke-linecap:square;stroke-opacity:0.5;stroke-width:1.5;"/>
   </g>
   <g id="line2d_44">
    <path clip-path="url(#p08718a7b4b)" d="M 51.99517 165.957396 
L 67.433906 165.948007 
L 82.872641 165.948739 
L 98.311376 165.949085 
L 113.750111 165.944847 
L 129.188846 165.928974 
L 144.627582 165.876277 
L 160.066317 165.803842 
L 175.505052 164.547598 
L 190.943787 163.359497 
L 206.382522 163.867155 
L 221.821257 164.302759 
L 237.259993 164.411289 
L 252.698728 164.200251 
L 268.137463 163.362371 
L 283.576198 162.150299 
L 299.014933 162.413101 
L 314.453668 157.583641 
L 329.892404 126.645948 
L 345.331139 109.650033 
L 360.769874 133.14999 
L 376.208609 130.714455 
L 391.647344 145.493272 
L 407.08608 164.162764 
" style="fill:none;stroke:#1b9e77;stroke-linecap:square;stroke-opacity:0.5;stroke-width:1.5;"/>
   </g>
   <g id="line2d_45">
    <path clip-path="url(#p08718a7b4b)" d="M 51.99517 165.507796 
L 67.433906 165.365289 
L 82.872641 165.671999 
L 98.311376 165.772082 
L 113.750111 165.659584 
L 129.188846 160.044631 
L 144.627582 151.809866 
L 160.066317 164.628453 
L 175.505052 164.94815 
L 190.943787 162.725841 
L 206.382522 138.72772 
L 221.821257 141.653102 
L 237.259993 143.803274 
L 252.698728 163.417621 
L 268.137463 155.970807 
L 283.576198 121.312917 
L 299.014933 133.496798 
L 314.453668 150.728963 
L 329.892404 163.619044 
L 345.331139 163.036902 
L 360.769874 163.257974 
L 376.208609 164.705301 
L 391.647344 165.582975 
L 407.08608 165.924505 
" style="fill:none;stroke:#1b9e77;stroke-linecap:square;stroke-opacity:0.5;stroke-width:1.5;"/>
   </g>
   <g id="line2d_46">
    <path clip-path="url(#p08718a7b4b)" d="M 51.99517 162.625923 
L 67.433906 162.146378 
L 82.872641 164.595443 
L 98.311376 164.499043 
L 113.750111 164.937422 
L 129.188846 165.18742 
L 144.627582 165.43015 
L 160.066317 165.487258 
L 175.505052 165.567276 
L 190.943787 165.623636 
L 206.382522 165.643482 
L 221.821257 165.820908 
L 237.259993 165.818388 
L 252.698728 162.567884 
L 268.137463 163.616488 
L 283.576198 161.857267 
L 299.014933 159.965954 
L 314.453668 158.136955 
L 329.892404 156.038661 
L 345.331139 158.506361 
L 360.769874 147.483929 
L 376.208609 96.043216 
L 391.647344 110.162198 
L 407.08608 149.609963 
" style="fill:none;stroke:#1b9e77;stroke-linecap:square;stroke-opacity:0.5;stroke-width:1.5;"/>
   </g>
   <g id="line2d_47">
    <path clip-path="url(#p08718a7b4b)" d="M 51.99517 161.244199 
L 67.433906 165.658358 
L 82.872641 165.794501 
L 98.311376 163.3075 
L 113.750111 165.467051 
L 129.188846 165.597589 
L 144.627582 165.626733 
L 160.066317 165.672664 
L 175.505052 165.615343 
L 190.943787 165.022202 
L 206.382522 164.938091 
L 221.821257 164.277068 
L 237.259993 163.569627 
L 252.698728 162.386969 
L 268.137463 160.602044 
L 283.576198 158.971645 
L 299.014933 158.348332 
L 314.453668 141.756186 
L 329.892404 116.919874 
L 345.331139 109.263634 
L 360.769874 135.338032 
L 376.208609 152.241051 
L 391.647344 163.968095 
L 407.08608 165.784804 
" style="fill:none;stroke:#1b9e77;stroke-linecap:square;stroke-opacity:0.5;stroke-width:1.5;"/>
   </g>
   <g id="line2d_48">
    <path clip-path="url(#p08718a7b4b)" d="M 51.99517 165.955272 
L 67.433906 165.947069 
L 82.872641 165.949227 
L 98.311376 165.929223 
L 113.750111 165.866354 
L 129.188846 165.343483 
L 144.627582 165.886316 
L 160.066317 165.910626 
L 175.505052 165.854573 
L 190.943787 165.519402 
L 206.382522 157.879155 
L 221.821257 164.876527 
L 237.259993 164.886851 
L 252.698728 164.098897 
L 268.137463 163.701849 
L 283.576198 161.610616 
L 299.014933 120.731813 
L 314.453668 113.189855 
L 329.892404 112.12009 
L 345.331139 132.127165 
L 360.769874 157.008985 
L 376.208609 165.274885 
L 391.647344 165.785456 
L 407.08608 165.917904 
" style="fill:none;stroke:#1b9e77;stroke-linecap:square;stroke-opacity:0.5;stroke-width:1.5;"/>
   </g>
   <g id="line2d_49">
    <path clip-path="url(#p08718a7b4b)" d="M 51.99517 163.804623 
L 67.433906 160.043083 
L 82.872641 163.178001 
L 98.311376 153.188844 
L 113.750111 150.617093 
L 129.188846 142.950136 
L 144.627582 135.862929 
L 160.066317 141.262333 
L 175.505052 162.379338 
L 190.943787 164.610339 
L 206.382522 165.53207 
L 221.821257 165.850591 
L 237.259993 165.806038 
L 252.698728 156.611681 
L 268.137463 147.940012 
L 283.576198 149.577186 
L 299.014933 154.443725 
L 314.453668 159.585372 
L 329.892404 158.170786 
L 345.331139 151.265168 
L 360.769874 158.08827 
L 376.208609 164.943966 
L 391.647344 165.749166 
L 407.08608 165.910845 
" style="fill:none;stroke:#1b9e77;stroke-linecap:square;stroke-opacity:0.5;stroke-width:1.5;"/>
   </g>
   <g id="line2d_50">
    <path clip-path="url(#p08718a7b4b)" d="M 51.99517 163.449831 
L 67.433906 160.206094 
L 82.872641 157.835359 
L 98.311376 157.314963 
L 113.750111 123.012486 
L 129.188846 150.246941 
L 144.627582 152.467673 
L 160.066317 160.754727 
L 175.505052 156.200627 
L 190.943787 153.601628 
L 206.382522 161.796372 
L 221.821257 158.747376 
L 237.259993 164.383821 
L 252.698728 164.054449 
L 268.137463 164.595361 
L 283.576198 164.798124 
L 299.014933 165.438356 
L 314.453668 165.360785 
L 329.892404 165.375231 
L 345.331139 157.840022 
L 360.769874 156.43263 
L 376.208609 151.757857 
L 391.647344 162.609092 
L 407.08608 129.091788 
" style="fill:none;stroke:#1b9e77;stroke-linecap:square;stroke-opacity:0.5;stroke-width:1.5;"/>
   </g>
   <g id="line2d_51">
    <path clip-path="url(#p08718a7b4b)" d="M 51.99517 160.055932 
L 67.433906 161.869218 
L 82.872641 162.953507 
L 98.311376 161.691855 
L 113.750111 151.558048 
L 129.188846 124.246846 
L 144.627582 145.917398 
L 160.066317 142.838182 
L 175.505052 147.513821 
L 190.943787 120.361136 
L 206.382522 157.423199 
L 221.821257 164.455085 
L 237.259993 164.638364 
L 252.698728 161.76073 
L 268.137463 160.475638 
L 283.576198 163.886162 
L 299.014933 165.268083 
L 314.453668 165.648562 
L 329.892404 165.789476 
L 345.331139 165.725412 
L 360.769874 165.401564 
L 376.208609 164.765205 
L 391.647344 163.062782 
L 407.08608 160.065397 
" style="fill:none;stroke:#1b9e77;stroke-linecap:square;stroke-opacity:0.5;stroke-width:1.5;"/>
   </g>
   <g id="line2d_52">
    <path clip-path="url(#p08718a7b4b)" d="M 51.99517 165.898976 
L 67.433906 165.701806 
L 82.872641 165.806287 
L 98.311376 165.839039 
L 113.750111 165.851676 
L 129.188846 165.878753 
L 144.627582 165.810944 
L 160.066317 165.886669 
L 175.505052 165.051658 
L 190.943787 162.312947 
L 206.382522 159.537741 
L 221.821257 79.304831 
L 237.259993 95.310383 
L 252.698728 157.245569 
L 268.137463 158.429279 
L 283.576198 145.943482 
L 299.014933 158.052051 
L 314.453668 164.410114 
L 329.892404 165.647193 
L 345.331139 165.793893 
L 360.769874 165.856584 
L 376.208609 165.907747 
L 391.647344 165.935654 
L 407.08608 165.958326 
" style="fill:none;stroke:#1b9e77;stroke-linecap:square;stroke-opacity:0.5;stroke-width:1.5;"/>
   </g>
   <g id="line2d_53">
    <path clip-path="url(#p08718a7b4b)" d="M 51.99517 61.426709 
L 67.433906 161.309688 
L 82.872641 163.597808 
L 98.311376 163.693066 
L 113.750111 162.169265 
L 129.188846 158.013139 
L 144.627582 155.658027 
L 160.066317 164.035371 
L 175.505052 163.80226 
L 190.943787 157.615779 
L 206.382522 132.692916 
L 221.821257 150.336568 
L 237.259993 164.646298 
L 252.698728 164.389926 
L 268.137463 164.964403 
L 283.576198 164.494543 
L 299.014933 164.75127 
L 314.453668 165.365841 
L 329.892404 165.638666 
L 345.331139 165.753108 
L 360.769874 165.764924 
L 376.208609 164.79277 
L 391.647344 159.276927 
L 407.08608 163.182321 
" style="fill:none;stroke:#1b9e77;stroke-linecap:square;stroke-opacity:0.5;stroke-width:1.5;"/>
   </g>
   <g id="line2d_54">
    <path clip-path="url(#p08718a7b4b)" d="M 51.99517 162.734313 
L 67.433906 165.81791 
L 82.872641 165.776053 
L 98.311376 155.489334 
L 113.750111 163.450376 
L 129.188846 165.196332 
L 144.627582 165.709536 
L 160.066317 165.72438 
L 175.505052 165.667558 
L 190.943787 165.567134 
L 206.382522 165.421086 
L 221.821257 165.683981 
L 237.259993 165.565846 
L 252.698728 165.514624 
L 268.137463 159.034075 
L 283.576198 157.506094 
L 299.014933 151.254239 
L 314.453668 140.312345 
L 329.892404 127.056548 
L 345.331139 150.972 
L 360.769874 163.280451 
L 376.208609 84.694525 
L 391.647344 164.155992 
L 407.08608 165.786859 
" style="fill:none;stroke:#1b9e77;stroke-linecap:square;stroke-opacity:0.5;stroke-width:1.5;"/>
   </g>
   <g id="line2d_55">
    <path clip-path="url(#p08718a7b4b)" d="M 51.99517 165.029629 
L 67.433906 165.288473 
L 82.872641 165.687354 
L 98.311376 165.720048 
L 113.750111 165.754553 
L 129.188846 165.675544 
L 144.627582 165.301853 
L 160.066317 165.768312 
L 175.505052 165.785869 
L 190.943787 165.4794 
L 206.382522 161.7208 
L 221.821257 163.164935 
L 237.259993 154.705824 
L 252.698728 135.300065 
L 268.137463 145.938962 
L 283.576198 155.218405 
L 299.014933 147.793209 
L 314.453668 153.886136 
L 329.892404 150.617221 
L 345.331139 148.369988 
L 360.769874 147.80869 
L 376.208609 161.517495 
L 391.647344 164.41833 
L 407.08608 121.4205 
" style="fill:none;stroke:#1b9e77;stroke-linecap:square;stroke-opacity:0.5;stroke-width:1.5;"/>
   </g>
   <g id="line2d_56">
    <path clip-path="url(#p08718a7b4b)" d="M 51.99517 164.937792 
L 67.433906 158.521795 
L 82.872641 123.365557 
L 98.311376 132.125857 
L 113.750111 146.433356 
L 129.188846 149.255132 
L 144.627582 141.97477 
L 160.066317 144.887981 
L 175.505052 149.974533 
L 190.943787 165.847054 
L 206.382522 165.929709 
L 221.821257 161.437267 
L 237.259993 164.181003 
L 252.698728 163.052848 
L 268.137463 165.942114 
L 283.576198 165.946896 
L 299.014933 165.950622 
L 314.453668 165.895031 
L 329.892404 162.411109 
L 345.331139 165.937841 
L 360.769874 164.358209 
L 376.208609 159.301256 
L 391.647344 161.92438 
L 407.08608 157.779481 
" style="fill:none;stroke:#1b9e77;stroke-linecap:square;stroke-opacity:0.5;stroke-width:1.5;"/>
   </g>
   <g id="line2d_57">
    <path clip-path="url(#p08718a7b4b)" d="M 51.99517 138.10635 
L 67.433906 151.63985 
L 82.872641 160.443765 
L 98.311376 150.739098 
L 113.750111 162.168626 
L 129.188846 165.855043 
L 144.627582 164.979315 
L 160.066317 162.812725 
L 175.505052 163.587912 
L 190.943787 163.564214 
L 206.382522 164.836442 
L 221.821257 165.351543 
L 237.259993 164.929161 
L 252.698728 162.074935 
L 268.137463 161.237719 
L 283.576198 161.177379 
L 299.014933 158.751018 
L 314.453668 159.355569 
L 329.892404 148.886578 
L 345.331139 138.49043 
L 360.769874 143.966903 
L 376.208609 155.207565 
L 391.647344 147.919046 
L 407.08608 151.290409 
" style="fill:none;stroke:#1b9e77;stroke-linecap:square;stroke-opacity:0.5;stroke-width:1.5;"/>
   </g>
   <g id="line2d_58">
    <path clip-path="url(#p08718a7b4b)" d="M 51.99517 163.117918 
L 67.433906 163.077361 
L 82.872641 164.497516 
L 98.311376 164.559817 
L 113.750111 163.784612 
L 129.188846 155.736425 
L 144.627582 137.45892 
L 160.066317 157.527245 
L 175.505052 150.75799 
L 190.943787 153.528311 
L 206.382522 147.067722 
L 221.821257 143.076593 
L 237.259993 144.367306 
L 252.698728 113.770271 
L 268.137463 158.648441 
L 283.576198 160.454942 
L 299.014933 165.105672 
L 314.453668 165.561159 
L 329.892404 165.777451 
L 345.331139 165.824108 
L 360.769874 165.88508 
L 376.208609 165.907022 
L 391.647344 165.924639 
L 407.08608 165.955074 
" style="fill:none;stroke:#1b9e77;stroke-linecap:square;stroke-opacity:0.5;stroke-width:1.5;"/>
   </g>
   <g id="line2d_59">
    <path clip-path="url(#p08718a7b4b)" d="M 51.99517 145.284534 
L 67.433906 165.6064 
L 82.872641 165.618219 
L 98.311376 165.240866 
L 113.750111 165.403362 
L 129.188846 164.759693 
L 144.627582 165.552166 
L 160.066317 165.619249 
L 175.505052 165.579043 
L 190.943787 165.249832 
L 206.382522 160.682545 
L 221.821257 160.369791 
L 237.259993 157.91099 
L 252.698728 154.959312 
L 268.137463 161.027098 
L 283.576198 140.737511 
L 299.014933 129.407268 
L 314.453668 161.98722 
L 329.892404 161.052072 
L 345.331139 144.315776 
L 360.769874 130.675106 
L 376.208609 159.583969 
L 391.647344 153.42263 
L 407.08608 157.326949 
" style="fill:none;stroke:#1b9e77;stroke-linecap:square;stroke-opacity:0.5;stroke-width:1.5;"/>
   </g>
   <g id="line2d_60">
    <path clip-path="url(#p08718a7b4b)" d="M 51.99517 162.50808 
L 67.433906 164.884318 
L 82.872641 165.682067 
L 98.311376 165.691192 
L 113.750111 165.763537 
L 129.188846 165.800301 
L 144.627582 165.70478 
L 160.066317 165.883842 
L 175.505052 165.858108 
L 190.943787 163.383563 
L 206.382522 162.164528 
L 221.821257 155.310959 
L 237.259993 147.103668 
L 252.698728 165.942655 
L 268.137463 165.853121 
L 283.576198 147.635294 
L 299.014933 123.162746 
L 314.453668 119.287312 
L 329.892404 164.369992 
L 345.331139 165.439064 
L 360.769874 164.955455 
L 376.208609 145.427992 
L 391.647344 127.867098 
L 407.08608 161.691921 
" style="fill:none;stroke:#1b9e77;stroke-linecap:square;stroke-opacity:0.5;stroke-width:1.5;"/>
   </g>
   <g id="line2d_61">
    <path clip-path="url(#p08718a7b4b)" d="M 51.99517 164.663607 
L 67.433906 159.757929 
L 82.872641 99.556326 
L 98.311376 107.605185 
L 113.750111 150.844267 
L 129.188846 146.449207 
L 144.627582 145.603008 
L 160.066317 152.289834 
L 175.505052 163.797784 
L 190.943787 165.010489 
L 206.382522 165.24672 
L 221.821257 163.454915 
L 237.259993 163.655523 
L 252.698728 165.503366 
L 268.137463 165.656629 
L 283.576198 165.534436 
L 299.014933 165.14715 
L 314.453668 164.845054 
L 329.892404 165.620481 
L 345.331139 165.71662 
L 360.769874 165.746335 
L 376.208609 165.7429 
L 391.647344 164.029512 
L 407.08608 165.894318 
" style="fill:none;stroke:#1b9e77;stroke-linecap:square;stroke-opacity:0.5;stroke-width:1.5;"/>
   </g>
   <g id="line2d_62">
    <path clip-path="url(#p08718a7b4b)" d="M 51.99517 160.145355 
L 67.433906 161.121996 
L 82.872641 158.884172 
L 98.311376 155.704929 
L 113.750111 152.065772 
L 129.188846 144.791417 
L 144.627582 154.662218 
L 160.066317 154.426084 
L 175.505052 160.043159 
L 190.943787 164.193061 
L 206.382522 165.295115 
L 221.821257 165.318259 
L 237.259993 164.458977 
L 252.698728 160.394866 
L 268.137463 152.734966 
L 283.576198 155.730632 
L 299.014933 153.169545 
L 314.453668 145.114306 
L 329.892404 143.328431 
L 345.331139 146.584037 
L 360.769874 155.421004 
L 376.208609 162.476531 
L 391.647344 165.407496 
L 407.08608 165.899266 
" style="fill:none;stroke:#1b9e77;stroke-linecap:square;stroke-opacity:0.5;stroke-width:1.5;"/>
   </g>
   <g id="line2d_63">
    <path clip-path="url(#p08718a7b4b)" d="M 51.99517 151.410844 
L 67.433906 155.178598 
L 82.872641 162.806277 
L 98.311376 163.760242 
L 113.750111 163.803735 
L 129.188846 160.66504 
L 144.627582 138.595237 
L 160.066317 140.272647 
L 175.505052 161.689026 
L 190.943787 163.947578 
L 206.382522 164.599877 
L 221.821257 161.536341 
L 237.259993 161.23957 
L 252.698728 164.899319 
L 268.137463 165.513636 
L 283.576198 165.781732 
L 299.014933 164.86934 
L 314.453668 163.005518 
L 329.892404 163.187577 
L 345.331139 160.280603 
L 360.769874 158.744649 
L 376.208609 155.495714 
L 391.647344 146.857092 
L 407.08608 109.231402 
" style="fill:none;stroke:#1b9e77;stroke-linecap:square;stroke-opacity:0.5;stroke-width:1.5;"/>
   </g>
   <g id="line2d_64">
    <path clip-path="url(#p08718a7b4b)" d="M 51.99517 164.214007 
L 67.433906 164.376569 
L 82.872641 165.326152 
L 98.311376 165.377312 
L 113.750111 165.481106 
L 129.188846 165.513906 
L 144.627582 165.481498 
L 160.066317 165.681655 
L 175.505052 165.595821 
L 190.943787 165.447176 
L 206.382522 162.320065 
L 221.821257 159.487825 
L 237.259993 153.847759 
L 252.698728 153.541072 
L 268.137463 154.102736 
L 283.576198 156.466004 
L 299.014933 154.601717 
L 314.453668 139.168726 
L 329.892404 116.439473 
L 345.331139 153.082072 
L 360.769874 161.505016 
L 376.208609 129.111902 
L 391.647344 155.261926 
L 407.08608 165.940103 
" style="fill:none;stroke:#1b9e77;stroke-linecap:square;stroke-opacity:0.5;stroke-width:1.5;"/>
   </g>
   <g id="line2d_65">
    <path clip-path="url(#p08718a7b4b)" d="M 51.99517 165.255379 
L 67.433906 163.15393 
L 82.872641 162.14925 
L 98.311376 161.056434 
L 113.750111 160.186177 
L 129.188846 157.464513 
L 144.627582 151.619184 
L 160.066317 151.902908 
L 175.505052 146.486752 
L 190.943787 113.869294 
L 206.382522 149.850672 
L 221.821257 160.437662 
L 237.259993 161.796446 
L 252.698728 152.622164 
L 268.137463 149.638999 
L 283.576198 156.889759 
L 299.014933 165.004151 
L 314.453668 165.853667 
L 329.892404 165.877716 
L 345.331139 150.582914 
L 360.769874 158.02319 
L 376.208609 165.736772 
L 391.647344 165.953668 
L 407.08608 165.96 
" style="fill:none;stroke:#1b9e77;stroke-linecap:square;stroke-opacity:0.5;stroke-width:1.5;"/>
   </g>
   <g id="line2d_66">
    <path clip-path="url(#p08718a7b4b)" d="M 51.99517 164.8699 
L 67.433906 164.576722 
L 82.872641 165.703136 
L 98.311376 165.830399 
L 113.750111 165.857336 
L 129.188846 165.783293 
L 144.627582 164.424989 
L 160.066317 161.182255 
L 175.505052 162.292474 
L 190.943787 164.27898 
L 206.382522 161.708824 
L 221.821257 156.415501 
L 237.259993 157.251106 
L 252.698728 155.803076 
L 268.137463 141.954861 
L 283.576198 113.744044 
L 299.014933 136.155552 
L 314.453668 139.644586 
L 329.892404 148.059641 
L 345.331139 153.73437 
L 360.769874 161.62852 
L 376.208609 164.947176 
L 391.647344 165.616605 
L 407.08608 165.908249 
" style="fill:none;stroke:#1b9e77;stroke-linecap:square;stroke-opacity:0.5;stroke-width:1.5;"/>
   </g>
   <g id="line2d_67">
    <path clip-path="url(#p08718a7b4b)" d="M 51.99517 162.390914 
L 67.433906 160.296277 
L 82.872641 161.146585 
L 98.311376 160.786841 
L 113.750111 158.662986 
L 129.188846 154.154197 
L 144.627582 155.146859 
L 160.066317 161.820589 
L 175.505052 164.256725 
L 190.943787 137.133252 
L 206.382522 162.746898 
L 221.821257 158.940022 
L 237.259993 162.576296 
L 252.698728 163.335561 
L 268.137463 161.681521 
L 283.576198 161.675056 
L 299.014933 162.168468 
L 314.453668 161.926712 
L 329.892404 162.218598 
L 345.331139 163.325667 
L 360.769874 125.1228 
L 376.208609 150.51358 
L 391.647344 164.415077 
L 407.08608 130.930116 
" style="fill:none;stroke:#1b9e77;stroke-linecap:square;stroke-opacity:0.5;stroke-width:1.5;"/>
   </g>
   <g id="line2d_68">
    <path clip-path="url(#p08718a7b4b)" d="M 51.99517 165.666179 
L 67.433906 165.248753 
L 82.872641 165.531094 
L 98.311376 165.66413 
L 113.750111 165.619409 
L 129.188846 165.256097 
L 144.627582 158.342508 
L 160.066317 151.74702 
L 175.505052 138.60956 
L 190.943787 133.544814 
L 206.382522 124.864538 
L 221.821257 141.886972 
L 237.259993 156.027133 
L 252.698728 137.389813 
L 268.137463 157.889373 
L 283.576198 162.758449 
L 299.014933 161.506199 
L 314.453668 161.02728 
L 329.892404 163.726371 
L 345.331139 164.504403 
L 360.769874 164.678192 
L 376.208609 164.794055 
L 391.647344 165.210783 
L 407.08608 165.878461 
" style="fill:none;stroke:#1b9e77;stroke-linecap:square;stroke-opacity:0.5;stroke-width:1.5;"/>
   </g>
   <g id="line2d_69">
    <path clip-path="url(#p08718a7b4b)" d="M 51.99517 165.433784 
L 67.433906 165.430253 
L 82.872641 165.162391 
L 98.311376 163.80617 
L 113.750111 162.471518 
L 129.188846 161.091262 
L 144.627582 159.838253 
L 160.066317 160.284475 
L 175.505052 143.502482 
L 190.943787 95.723339 
L 206.382522 133.891088 
L 221.821257 118.031468 
L 237.259993 149.056071 
L 252.698728 164.380158 
L 268.137463 165.862776 
L 283.576198 165.874492 
L 299.014933 165.916548 
L 314.453668 165.932671 
L 329.892404 165.937422 
L 345.331139 165.940495 
L 360.769874 165.943135 
L 376.208609 165.948626 
L 391.647344 165.952935 
L 407.08608 165.959779 
" style="fill:none;stroke:#1b9e77;stroke-linecap:square;stroke-opacity:0.5;stroke-width:1.5;"/>
   </g>
   <g id="line2d_70">
    <path clip-path="url(#p08718a7b4b)" d="M 51.99517 161.573614 
L 67.433906 138.566625 
L 82.872641 129.929273 
L 98.311376 135.293029 
L 113.750111 146.447652 
L 129.188846 139.280624 
L 144.627582 150.74434 
L 160.066317 158.559059 
L 175.505052 163.648942 
L 190.943787 164.728103 
L 206.382522 165.152567 
L 221.821257 165.016708 
L 237.259993 165.299739 
L 252.698728 165.652274 
L 268.137463 165.731161 
L 283.576198 165.700214 
L 299.014933 163.80079 
L 314.453668 164.933649 
L 329.892404 165.783864 
L 345.331139 157.808506 
L 360.769874 160.535907 
L 376.208609 161.445817 
L 391.647344 152.184867 
L 407.08608 159.554266 
" style="fill:none;stroke:#1b9e77;stroke-linecap:square;stroke-opacity:0.5;stroke-width:1.5;"/>
   </g>
   <g id="line2d_71">
    <path clip-path="url(#p08718a7b4b)" d="M 51.99517 162.685153 
L 67.433906 163.077441 
L 82.872641 147.394677 
L 98.311376 124.6602 
L 113.750111 146.433433 
L 129.188846 155.94294 
L 144.627582 162.224895 
L 160.066317 162.09803 
L 175.505052 160.103551 
L 190.943787 159.50721 
L 206.382522 160.871381 
L 221.821257 163.167641 
L 237.259993 164.425261 
L 252.698728 164.143013 
L 268.137463 163.284637 
L 283.576198 161.195469 
L 299.014933 164.570624 
L 314.453668 165.442716 
L 329.892404 165.058136 
L 345.331139 150.134082 
L 360.769874 146.059731 
L 376.208609 157.956619 
L 391.647344 157.863386 
L 407.08608 139.071368 
" style="fill:none;stroke:#1b9e77;stroke-linecap:square;stroke-opacity:0.5;stroke-width:1.5;"/>
   </g>
   <g id="line2d_72">
    <path clip-path="url(#p08718a7b4b)" d="M 51.99517 162.477484 
L 67.433906 161.810633 
L 82.872641 161.01677 
L 98.311376 158.99476 
L 113.750111 160.376834 
L 129.188846 161.743839 
L 144.627582 164.205954 
L 160.066317 164.561209 
L 175.505052 164.276266 
L 190.943787 163.425663 
L 206.382522 163.334789 
L 221.821257 164.47783 
L 237.259993 163.964285 
L 252.698728 160.6183 
L 268.137463 136.817622 
L 283.576198 124.492123 
L 299.014933 129.367367 
L 314.453668 150.575155 
L 329.892404 154.388204 
L 345.331139 144.237926 
L 360.769874 155.611133 
L 376.208609 164.91805 
L 391.647344 165.75328 
L 407.08608 165.926116 
" style="fill:none;stroke:#1b9e77;stroke-linecap:square;stroke-opacity:0.5;stroke-width:1.5;"/>
   </g>
   <g id="line2d_73">
    <path clip-path="url(#p08718a7b4b)" d="M 51.99517 165.953454 
L 67.433906 165.934292 
L 82.872641 165.21118 
L 98.311376 164.276189 
L 113.750111 159.950004 
L 129.188846 156.505616 
L 144.627582 160.211668 
L 160.066317 159.241363 
L 175.505052 159.154322 
L 190.943787 157.83279 
L 206.382522 157.148771 
L 221.821257 157.88937 
L 237.259993 108.239688 
L 252.698728 124.109868 
L 268.137463 148.063148 
L 283.576198 156.284045 
L 299.014933 159.349479 
L 314.453668 160.927061 
L 329.892404 165.680925 
L 345.331139 165.814193 
L 360.769874 164.205367 
L 376.208609 163.014506 
L 391.647344 161.636343 
L 407.08608 160.737955 
" style="fill:none;stroke:#1b9e77;stroke-linecap:square;stroke-opacity:0.5;stroke-width:1.5;"/>
   </g>
   <g id="line2d_74">
    <path clip-path="url(#p08718a7b4b)" d="M 51.99517 165.616273 
L 67.433906 163.97278 
L 82.872641 163.587527 
L 98.311376 165.560003 
L 113.750111 163.939959 
L 129.188846 150.30015 
L 144.627582 162.520499 
L 160.066317 162.150945 
L 175.505052 131.18626 
L 190.943787 153.264308 
L 206.382522 140.980861 
L 221.821257 160.039329 
L 237.259993 165.319735 
L 252.698728 128.032152 
L 268.137463 165.940069 
L 283.576198 165.949701 
L 299.014933 165.952864 
L 314.453668 165.864462 
L 329.892404 165.668995 
L 345.331139 165.939566 
L 360.769874 165.929174 
L 376.208609 149.984819 
L 391.647344 160.97381 
L 407.08608 118.697352 
" style="fill:none;stroke:#1b9e77;stroke-linecap:square;stroke-opacity:0.5;stroke-width:1.5;"/>
   </g>
   <g id="line2d_75">
    <path clip-path="url(#p08718a7b4b)" d="M 51.99517 159.179306 
L 67.433906 162.939626 
L 82.872641 162.177033 
L 98.311376 158.340755 
L 113.750111 155.217172 
L 129.188846 158.935197 
L 144.627582 159.403992 
L 160.066317 160.587606 
L 175.505052 154.657403 
L 190.943787 123.680837 
L 206.382522 135.884633 
L 221.821257 123.437303 
L 237.259993 156.023316 
L 252.698728 148.680834 
L 268.137463 165.54211 
L 283.576198 165.727795 
L 299.014933 165.808626 
L 314.453668 165.80927 
L 329.892404 165.706914 
L 345.331139 165.776143 
L 360.769874 165.820624 
L 376.208609 165.906423 
L 391.647344 165.930832 
L 407.08608 156.197845 
" style="fill:none;stroke:#1b9e77;stroke-linecap:square;stroke-opacity:0.5;stroke-width:1.5;"/>
   </g>
   <g id="line2d_76">
    <path clip-path="url(#p08718a7b4b)" d="M 51.99517 165.495561 
L 67.433906 165.18647 
L 82.872641 164.893967 
L 98.311376 163.640365 
L 113.750111 162.331453 
L 129.188846 161.427664 
L 144.627582 161.987627 
L 160.066317 162.909639 
L 175.505052 93.035763 
L 190.943787 119.495057 
L 206.382522 134.487336 
L 221.821257 147.690033 
L 237.259993 141.706401 
L 252.698728 164.69553 
L 268.137463 165.884192 
L 283.576198 165.89848 
L 299.014933 165.934969 
L 314.453668 165.116629 
L 329.892404 165.903068 
L 345.331139 165.935231 
L 360.769874 165.935136 
L 376.208609 165.919891 
L 391.647344 165.935764 
L 407.08608 165.925365 
" style="fill:none;stroke:#1b9e77;stroke-linecap:square;stroke-opacity:0.5;stroke-width:1.5;"/>
   </g>
   <g id="line2d_77">
    <path clip-path="url(#p08718a7b4b)" d="M 51.99517 164.947135 
L 67.433906 159.784092 
L 82.872641 144.058293 
L 98.311376 121.9288 
L 113.750111 143.033089 
L 129.188846 150.290985 
L 144.627582 151.321718 
L 160.066317 144.902387 
L 175.505052 157.406752 
L 190.943787 164.669587 
L 206.382522 165.424863 
L 221.821257 164.608509 
L 237.259993 162.992215 
L 252.698728 163.996274 
L 268.137463 165.437885 
L 283.576198 165.770908 
L 299.014933 165.761359 
L 314.453668 164.331226 
L 329.892404 151.492301 
L 345.331139 162.468453 
L 360.769874 162.151423 
L 376.208609 163.870398 
L 391.647344 148.758487 
L 407.08608 157.964453 
" style="fill:none;stroke:#1b9e77;stroke-linecap:square;stroke-opacity:0.5;stroke-width:1.5;"/>
   </g>
   <g id="line2d_78">
    <path clip-path="url(#p08718a7b4b)" d="M 51.99517 158.320218 
L 67.433906 152.836222 
L 82.872641 154.681381 
L 98.311376 151.999574 
L 113.750111 157.995301 
L 129.188846 164.528971 
L 144.627582 165.1502 
L 160.066317 164.017797 
L 175.505052 160.150239 
L 190.943787 164.82789 
L 206.382522 165.039419 
L 221.821257 163.711428 
L 237.259993 164.828477 
L 252.698728 164.340787 
L 268.137463 163.515427 
L 283.576198 163.59466 
L 299.014933 163.346633 
L 314.453668 162.832604 
L 329.892404 160.530485 
L 345.331139 155.052247 
L 360.769874 146.841635 
L 376.208609 124.800373 
L 391.647344 125.980708 
L 407.08608 148.448918 
" style="fill:none;stroke:#1b9e77;stroke-linecap:square;stroke-opacity:0.5;stroke-width:1.5;"/>
   </g>
   <g id="line2d_79">
    <path clip-path="url(#p08718a7b4b)" d="M 51.99517 162.696007 
L 67.433906 163.180594 
L 82.872641 164.793397 
L 98.311376 164.802786 
L 113.750111 165.02811 
L 129.188846 165.520917 
L 144.627582 165.49582 
L 160.066317 165.015594 
L 175.505052 152.536417 
L 190.943787 157.976947 
L 206.382522 151.225681 
L 221.821257 155.572504 
L 237.259993 156.227008 
L 252.698728 158.105951 
L 268.137463 157.730341 
L 283.576198 157.640575 
L 299.014933 152.19826 
L 314.453668 155.366914 
L 329.892404 150.374583 
L 345.331139 151.022824 
L 360.769874 158.167908 
L 376.208609 155.414492 
L 391.647344 163.539515 
L 407.08608 117.73844 
" style="fill:none;stroke:#1b9e77;stroke-linecap:square;stroke-opacity:0.5;stroke-width:1.5;"/>
   </g>
   <g id="line2d_80">
    <path clip-path="url(#p08718a7b4b)" d="M 51.99517 164.644066 
L 67.433906 162.38536 
L 82.872641 162.547822 
L 98.311376 156.714095 
L 113.750111 103.428415 
L 129.188846 134.62613 
L 144.627582 158.766444 
L 160.066317 162.074453 
L 175.505052 165.487685 
L 190.943787 165.597603 
L 206.382522 165.734952 
L 221.821257 165.78201 
L 237.259993 165.768291 
L 252.698728 165.80391 
L 268.137463 165.629198 
L 283.576198 160.76001 
L 299.014933 153.958328 
L 314.453668 161.51053 
L 329.892404 161.891997 
L 345.331139 161.216278 
L 360.769874 159.32782 
L 376.208609 153.704891 
L 391.647344 150.371388 
L 407.08608 139.63992 
" style="fill:none;stroke:#1b9e77;stroke-linecap:square;stroke-opacity:0.5;stroke-width:1.5;"/>
   </g>
   <g id="line2d_81">
    <path clip-path="url(#p08718a7b4b)" d="M 51.99517 165.945136 
L 67.433906 164.971539 
L 82.872641 162.329671 
L 98.311376 163.93013 
L 113.750111 159.158569 
L 129.188846 156.717816 
L 144.627582 161.249867 
L 160.066317 157.092489 
L 175.505052 128.518064 
L 190.943787 137.372398 
L 206.382522 154.180592 
L 221.821257 160.709402 
L 237.259993 165.086326 
L 252.698728 165.56969 
L 268.137463 154.243038 
L 283.576198 155.421997 
L 299.014933 159.864032 
L 314.453668 159.347089 
L 329.892404 157.267746 
L 345.331139 156.506626 
L 360.769874 158.064105 
L 376.208609 154.972255 
L 391.647344 147.539559 
L 407.08608 161.313454 
" style="fill:none;stroke:#1b9e77;stroke-linecap:square;stroke-opacity:0.5;stroke-width:1.5;"/>
   </g>
   <g id="line2d_82">
    <path clip-path="url(#p08718a7b4b)" d="M 51.99517 152.18501 
L 67.433906 104.089803 
L 82.872641 129.713762 
L 98.311376 151.121364 
L 113.750111 159.974415 
L 129.188846 161.947923 
L 144.627582 162.877064 
L 160.066317 162.929539 
L 175.505052 164.041064 
L 190.943787 164.688127 
L 206.382522 165.033741 
L 221.821257 164.861272 
L 237.259993 165.071375 
L 252.698728 165.407064 
L 268.137463 165.605673 
L 283.576198 165.612265 
L 299.014933 165.44194 
L 314.453668 165.376388 
L 329.892404 164.862742 
L 345.331139 162.159712 
L 360.769874 156.755418 
L 376.208609 144.865261 
L 391.647344 143.38271 
L 407.08608 159.367967 
" style="fill:none;stroke:#1b9e77;stroke-linecap:square;stroke-opacity:0.5;stroke-width:1.5;"/>
   </g>
   <g id="line2d_83">
    <path clip-path="url(#p08718a7b4b)" d="M 51.99517 162.18199 
L 67.433906 163.80538 
L 82.872641 164.9255 
L 98.311376 163.728653 
L 113.750111 118.032491 
L 129.188846 150.468748 
L 144.627582 146.324021 
L 160.066317 116.16421 
L 175.505052 139.632275 
L 190.943787 155.428651 
L 206.382522 164.946705 
L 221.821257 165.331664 
L 237.259993 164.891311 
L 252.698728 151.93982 
L 268.137463 152.723988 
L 283.576198 164.739322 
L 299.014933 165.426719 
L 314.453668 165.536036 
L 329.892404 165.617825 
L 345.331139 165.049116 
L 360.769874 165.356674 
L 376.208609 165.89105 
L 391.647344 165.934002 
L 407.08608 163.295447 
" style="fill:none;stroke:#1b9e77;stroke-linecap:square;stroke-opacity:0.5;stroke-width:1.5;"/>
   </g>
   <g id="line2d_84">
    <path clip-path="url(#p08718a7b4b)" d="M 51.99517 164.391437 
L 67.433906 164.701939 
L 82.872641 165.126196 
L 98.311376 164.325997 
L 113.750111 130.142996 
L 129.188846 109.920791 
L 144.627582 95.374954 
L 160.066317 148.619044 
L 175.505052 153.972083 
L 190.943787 153.303486 
L 206.382522 165.290526 
L 221.821257 165.206289 
L 237.259993 165.11021 
L 252.698728 163.976384 
L 268.137463 165.61482 
L 283.576198 165.760617 
L 299.014933 165.853308 
L 314.453668 165.882038 
L 329.892404 165.893708 
L 345.331139 165.895981 
L 360.769874 165.91074 
L 376.208609 165.9163 
L 391.647344 165.491727 
L 407.08608 165.690023 
" style="fill:none;stroke:#1b9e77;stroke-linecap:square;stroke-opacity:0.5;stroke-width:1.5;"/>
   </g>
   <g id="line2d_85">
    <path clip-path="url(#p08718a7b4b)" d="M 51.99517 163.746937 
L 67.433906 157.002565 
L 82.872641 158.898225 
L 98.311376 155.336999 
L 113.750111 154.784431 
L 129.188846 151.611278 
L 144.627582 138.24198 
L 160.066317 148.953086 
L 175.505052 126.330792 
L 190.943787 155.554809 
L 206.382522 161.314649 
L 221.821257 161.447621 
L 237.259993 160.569548 
L 252.698728 162.933954 
L 268.137463 162.179951 
L 283.576198 158.07756 
L 299.014933 158.065045 
L 314.453668 156.609425 
L 329.892404 163.803947 
L 345.331139 164.384301 
L 360.769874 162.691584 
L 376.208609 158.317603 
L 391.647344 160.698959 
L 407.08608 165.816352 
" style="fill:none;stroke:#1b9e77;stroke-linecap:square;stroke-opacity:0.5;stroke-width:1.5;"/>
   </g>
   <g id="line2d_86">
    <path clip-path="url(#p08718a7b4b)" d="M 51.99517 131.556293 
L 67.433906 56.323723 
L 82.872641 132.488688 
L 98.311376 159.920286 
L 113.750111 163.952021 
L 129.188846 163.087747 
L 144.627582 163.869638 
L 160.066317 164.619074 
L 175.505052 164.994922 
L 190.943787 164.587208 
L 206.382522 164.430088 
L 221.821257 164.721045 
L 237.259993 165.030564 
L 252.698728 164.907942 
L 268.137463 164.220539 
L 283.576198 163.912973 
L 299.014933 165.001064 
L 314.453668 165.627203 
L 329.892404 165.517648 
L 345.331139 158.951469 
L 360.769874 161.994132 
L 376.208609 165.779725 
L 391.647344 165.956837 
L 407.08608 165.920767 
" style="fill:none;stroke:#1b9e77;stroke-linecap:square;stroke-opacity:0.5;stroke-width:1.5;"/>
   </g>
   <g id="line2d_87">
    <path clip-path="url(#p08718a7b4b)" d="M 51.99517 157.504368 
L 67.433906 161.277282 
L 82.872641 164.648839 
L 98.311376 164.750623 
L 113.750111 164.843151 
L 129.188846 163.63988 
L 144.627582 161.695998 
L 160.066317 164.174674 
L 175.505052 164.760219 
L 190.943787 164.899064 
L 206.382522 164.504501 
L 221.821257 163.292914 
L 237.259993 160.919422 
L 252.698728 163.031655 
L 268.137463 164.513104 
L 283.576198 165.22357 
L 299.014933 165.31111 
L 314.453668 164.412262 
L 329.892404 164.234509 
L 345.331139 165.584259 
L 360.769874 165.553898 
L 376.208609 163.784395 
L 391.647344 150.051895 
L 407.08608 14.76 
" style="fill:none;stroke:#1b9e77;stroke-linecap:square;stroke-opacity:0.5;stroke-width:1.5;"/>
   </g>
   <g id="line2d_88">
    <path clip-path="url(#p08718a7b4b)" d="M 51.99517 164.622053 
L 67.433906 165.817595 
L 82.872641 165.940463 
L 98.311376 165.921202 
L 113.750111 165.815139 
L 129.188846 165.540568 
L 144.627582 165.929023 
L 160.066317 165.954798 
L 175.505052 165.959831 
L 190.943787 163.098507 
L 206.382522 163.589392 
L 221.821257 160.804752 
L 237.259993 158.817136 
L 252.698728 153.846927 
L 268.137463 154.526987 
L 283.576198 133.47471 
L 299.014933 97.021551 
L 314.453668 126.937272 
L 329.892404 146.233357 
L 345.331139 158.019924 
L 360.769874 163.879204 
L 376.208609 164.613736 
L 391.647344 165.200468 
L 407.08608 165.807005 
" style="fill:none;stroke:#1b9e77;stroke-linecap:square;stroke-opacity:0.5;stroke-width:1.5;"/>
   </g>
   <g id="line2d_89">
    <path clip-path="url(#p08718a7b4b)" d="M 51.99517 165.267094 
L 67.433906 165.336327 
L 82.872641 165.655116 
L 98.311376 165.597651 
L 113.750111 165.362116 
L 129.188846 165.365188 
L 144.627582 162.257667 
L 160.066317 150.571473 
L 175.505052 158.025502 
L 190.943787 161.88583 
L 206.382522 152.271785 
L 221.821257 151.245938 
L 237.259993 149.288735 
L 252.698728 157.068332 
L 268.137463 118.434708 
L 283.576198 86.970053 
L 299.014933 165.679412 
L 314.453668 165.756096 
L 329.892404 165.854515 
L 345.331139 165.842854 
L 360.769874 165.873915 
L 376.208609 165.890871 
L 391.647344 165.916304 
L 407.08608 165.954114 
" style="fill:none;stroke:#1b9e77;stroke-linecap:square;stroke-opacity:0.5;stroke-width:1.5;"/>
   </g>
   <g id="line2d_90">
    <path clip-path="url(#p08718a7b4b)" d="M 51.99517 165.411359 
L 67.433906 164.15172 
L 82.872641 161.334901 
L 98.311376 159.814419 
L 113.750111 146.606231 
L 129.188846 149.014906 
L 144.627582 156.444419 
L 160.066317 154.724759 
L 175.505052 159.698393 
L 190.943787 159.901988 
L 206.382522 159.072129 
L 221.821257 155.954476 
L 237.259993 149.987597 
L 252.698728 144.662187 
L 268.137463 144.146289 
L 283.576198 144.858572 
L 299.014933 154.094625 
L 314.453668 158.318909 
L 329.892404 156.843675 
L 345.331139 162.695301 
L 360.769874 163.625899 
L 376.208609 165.083312 
L 391.647344 165.475218 
L 407.08608 165.450311 
" style="fill:none;stroke:#1b9e77;stroke-linecap:square;stroke-opacity:0.5;stroke-width:1.5;"/>
   </g>
   <g id="line2d_91">
    <path clip-path="url(#p08718a7b4b)" d="M 51.99517 165.221098 
L 67.433906 163.776 
L 82.872641 159.554932 
L 98.311376 158.940476 
L 113.750111 163.711423 
L 129.188846 165.319039 
L 144.627582 165.513861 
L 160.066317 164.618236 
L 175.505052 161.035222 
L 190.943787 164.867613 
L 206.382522 165.460118 
L 221.821257 162.046579 
L 237.259993 159.221778 
L 252.698728 158.543796 
L 268.137463 158.433126 
L 283.576198 157.212755 
L 299.014933 157.718529 
L 314.453668 156.14096 
L 329.892404 152.198939 
L 345.331139 147.665331 
L 360.769874 142.287016 
L 376.208609 133.620112 
L 391.647344 128.780279 
L 407.08608 155.48438 
" style="fill:none;stroke:#1b9e77;stroke-linecap:square;stroke-opacity:0.5;stroke-width:1.5;"/>
   </g>
   <g id="line2d_92">
    <path clip-path="url(#p08718a7b4b)" d="M 51.99517 165.936911 
L 67.433906 165.488886 
L 82.872641 165.617491 
L 98.311376 157.289262 
L 113.750111 137.092621 
L 129.188846 156.416257 
L 144.627582 138.350115 
L 160.066317 156.324617 
L 175.505052 155.886241 
L 190.943787 144.81229 
L 206.382522 144.903669 
L 221.821257 162.881422 
L 237.259993 159.20673 
L 252.698728 161.608815 
L 268.137463 164.226356 
L 283.576198 163.272858 
L 299.014933 163.062034 
L 314.453668 162.347848 
L 329.892404 160.575871 
L 345.331139 158.853876 
L 360.769874 158.83943 
L 376.208609 156.905063 
L 391.647344 152.927342 
L 407.08608 154.54559 
" style="fill:none;stroke:#1b9e77;stroke-linecap:square;stroke-opacity:0.5;stroke-width:1.5;"/>
   </g>
   <g id="line2d_93">
    <path clip-path="url(#p08718a7b4b)" d="M 51.99517 163.527658 
L 67.433906 150.650729 
L 82.872641 124.041449 
L 98.311376 144.933625 
L 113.750111 160.747954 
L 129.188846 156.713024 
L 144.627582 142.703897 
L 160.066317 165.104184 
L 175.505052 165.653097 
L 190.943787 165.190417 
L 206.382522 164.315221 
L 221.821257 163.154781 
L 237.259993 165.637222 
L 252.698728 165.699396 
L 268.137463 165.536044 
L 283.576198 163.691246 
L 299.014933 158.082091 
L 314.453668 160.698337 
L 329.892404 163.562443 
L 345.331139 164.309253 
L 360.769874 154.887928 
L 376.208609 142.213141 
L 391.647344 135.390585 
L 407.08608 160.927867 
" style="fill:none;stroke:#1b9e77;stroke-linecap:square;stroke-opacity:0.5;stroke-width:1.5;"/>
   </g>
   <g id="line2d_94">
    <path clip-path="url(#p08718a7b4b)" d="M 51.99517 158.544195 
L 67.433906 160.135966 
L 82.872641 162.627235 
L 98.311376 160.99659 
L 113.750111 160.931786 
L 129.188846 163.031664 
L 144.627582 163.958386 
L 160.066317 164.005966 
L 175.505052 163.804989 
L 190.943787 164.230152 
L 206.382522 163.971968 
L 221.821257 161.465729 
L 237.259993 163.274474 
L 252.698728 165.058599 
L 268.137463 164.968332 
L 283.576198 164.974062 
L 299.014933 164.623242 
L 314.453668 160.429444 
L 329.892404 152.964807 
L 345.331139 144.482124 
L 360.769874 135.451662 
L 376.208609 126.238057 
L 391.647344 121.28752 
L 407.08608 155.914646 
" style="fill:none;stroke:#1b9e77;stroke-linecap:square;stroke-opacity:0.5;stroke-width:1.5;"/>
   </g>
   <g id="line2d_95">
    <path clip-path="url(#p08718a7b4b)" d="M 51.99517 151.245675 
L 67.433906 163.41882 
L 82.872641 165.732444 
L 98.311376 165.70388 
L 113.750111 164.670275 
L 129.188846 156.447433 
L 144.627582 141.848196 
L 160.066317 165.710065 
L 175.505052 165.751896 
L 190.943787 164.952358 
L 206.382522 160.115266 
L 221.821257 165.086457 
L 237.259993 164.554539 
L 252.698728 153.460425 
L 268.137463 120.535143 
L 283.576198 108.282263 
L 299.014933 145.246574 
L 314.453668 160.840553 
L 329.892404 162.963601 
L 345.331139 160.914484 
L 360.769874 162.878715 
L 376.208609 165.318067 
L 391.647344 165.782112 
L 407.08608 165.912356 
" style="fill:none;stroke:#1b9e77;stroke-linecap:square;stroke-opacity:0.5;stroke-width:1.5;"/>
   </g>
   <g id="line2d_96">
    <path clip-path="url(#p08718a7b4b)" d="M 51.99517 165.470934 
L 67.433906 165.200501 
L 82.872641 165.236049 
L 98.311376 164.082324 
L 113.750111 161.615236 
L 129.188846 160.610607 
L 144.627582 160.868397 
L 160.066317 160.47194 
L 175.505052 159.038701 
L 190.943787 158.849875 
L 206.382522 157.953152 
L 221.821257 156.362507 
L 237.259993 156.663732 
L 252.698728 157.702103 
L 268.137463 153.934017 
L 283.576198 88.999661 
L 299.014933 117.399193 
L 314.453668 163.185953 
L 329.892404 164.973643 
L 345.331139 165.14026 
L 360.769874 165.859156 
L 376.208609 165.885023 
L 391.647344 165.91564 
L 407.08608 165.952987 
" style="fill:none;stroke:#1b9e77;stroke-linecap:square;stroke-opacity:0.5;stroke-width:1.5;"/>
   </g>
   <g id="line2d_97">
    <path clip-path="url(#p08718a7b4b)" d="M 51.99517 159.419672 
L 67.433906 164.151484 
L 82.872641 165.494755 
L 98.311376 165.468385 
L 113.750111 165.595285 
L 129.188846 165.649709 
L 144.627582 165.746814 
L 160.066317 165.798878 
L 175.505052 165.843893 
L 190.943787 165.82383 
L 206.382522 165.732258 
L 221.821257 165.810966 
L 237.259993 165.7716 
L 252.698728 165.876495 
L 268.137463 154.389524 
L 283.576198 113.24242 
L 299.014933 119.739146 
L 314.453668 131.662605 
L 329.892404 135.164644 
L 345.331139 147.891963 
L 360.769874 156.756726 
L 376.208609 164.613266 
L 391.647344 165.79906 
L 407.08608 165.928222 
" style="fill:none;stroke:#1b9e77;stroke-linecap:square;stroke-opacity:0.5;stroke-width:1.5;"/>
   </g>
   <g id="line2d_98">
    <path clip-path="url(#p08718a7b4b)" d="M 51.99517 163.079436 
L 67.433906 159.982182 
L 82.872641 158.578771 
L 98.311376 157.750243 
L 113.750111 161.315009 
L 129.188846 162.847541 
L 144.627582 162.474752 
L 160.066317 161.673313 
L 175.505052 160.844587 
L 190.943787 159.528755 
L 206.382522 156.557412 
L 221.821257 158.255071 
L 237.259993 159.302084 
L 252.698728 105.675302 
L 268.137463 116.248831 
L 283.576198 143.302541 
L 299.014933 162.049584 
L 314.453668 164.517184 
L 329.892404 165.404735 
L 345.331139 165.358911 
L 360.769874 165.4989 
L 376.208609 165.575907 
L 391.647344 165.6489 
L 407.08608 165.901646 
" style="fill:none;stroke:#1b9e77;stroke-linecap:square;stroke-opacity:0.5;stroke-width:1.5;"/>
   </g>
   <g id="line2d_99">
    <path clip-path="url(#p08718a7b4b)" d="M 51.99517 165.956822 
L 67.433906 165.945911 
L 82.872641 165.948224 
L 98.311376 165.940255 
L 113.750111 165.88305 
L 129.188846 165.832033 
L 144.627582 165.399159 
L 160.066317 164.522592 
L 175.505052 150.113265 
L 190.943787 129.300402 
L 206.382522 133.128096 
L 221.821257 155.742124 
L 237.259993 160.21889 
L 252.698728 156.138625 
L 268.137463 153.257659 
L 283.576198 155.360695 
L 299.014933 162.137505 
L 314.453668 165.529828 
L 329.892404 165.463762 
L 345.331139 160.958158 
L 360.769874 136.770824 
L 376.208609 161.807222 
L 391.647344 161.029059 
L 407.08608 134.987433 
" style="fill:none;stroke:#1b9e77;stroke-linecap:square;stroke-opacity:0.5;stroke-width:1.5;"/>
   </g>
   <g id="line2d_100">
    <path clip-path="url(#p08718a7b4b)" d="M 51.99517 113.497329 
L 67.433906 154.931046 
L 82.872641 159.930982 
L 98.311376 161.301767 
L 113.750111 162.584499 
L 129.188846 159.716407 
L 144.627582 162.429213 
L 160.066317 159.724577 
L 175.505052 163.103345 
L 190.943787 165.022365 
L 206.382522 165.708686 
L 221.821257 165.652152 
L 237.259993 163.860914 
L 252.698728 156.314419 
L 268.137463 145.744253 
L 283.576198 155.351536 
L 299.014933 156.130586 
L 314.453668 149.611115 
L 329.892404 152.306135 
L 345.331139 160.371475 
L 360.769874 152.106957 
L 376.208609 150.379968 
L 391.647344 165.681543 
L 407.08608 165.910331 
" style="fill:none;stroke:#1b9e77;stroke-linecap:square;stroke-opacity:0.5;stroke-width:1.5;"/>
   </g>
   <g id="line2d_101">
    <path clip-path="url(#p08718a7b4b)" d="M 51.99517 165.552735 
L 67.433906 165.550729 
L 82.872641 163.876254 
L 98.311376 158.107525 
L 113.750111 161.829372 
L 129.188846 165.247575 
L 144.627582 165.66989 
L 160.066317 165.666364 
L 175.505052 165.621713 
L 190.943787 165.547887 
L 206.382522 165.489783 
L 221.821257 165.620257 
L 237.259993 165.677224 
L 252.698728 165.853659 
L 268.137463 165.646131 
L 283.576198 130.338704 
L 299.014933 151.786215 
L 314.453668 143.792201 
L 329.892404 117.056936 
L 345.331139 134.852436 
L 360.769874 156.854178 
L 376.208609 158.677019 
L 391.647344 142.400876 
L 407.08608 160.655936 
" style="fill:none;stroke:#1b9e77;stroke-linecap:square;stroke-opacity:0.5;stroke-width:1.5;"/>
   </g>
   <g id="line2d_102">
    <path clip-path="url(#p08718a7b4b)" d="M 51.99517 165.482884 
L 67.433906 165.145353 
L 82.872641 164.892021 
L 98.311376 164.374689 
L 113.750111 130.819545 
L 129.188846 153.650618 
L 144.627582 150.025822 
L 160.066317 144.37995 
L 175.505052 153.755241 
L 190.943787 143.368215 
L 206.382522 136.090006 
L 221.821257 116.623012 
L 237.259993 165.543552 
L 252.698728 165.771894 
L 268.137463 165.876988 
L 283.576198 165.889514 
L 299.014933 165.896844 
L 314.453668 165.924628 
L 329.892404 165.912013 
L 345.331139 165.900202 
L 360.769874 164.614326 
L 376.208609 161.304087 
L 391.647344 161.480393 
L 407.08608 164.649802 
" style="fill:none;stroke:#1b9e77;stroke-linecap:square;stroke-opacity:0.5;stroke-width:1.5;"/>
   </g>
   <g id="line2d_103">
    <path clip-path="url(#p08718a7b4b)" d="M 51.99517 165.957045 
L 67.433906 165.946068 
L 82.872641 165.91155 
L 98.311376 165.746121 
L 113.750111 165.245906 
L 129.188846 161.551306 
L 144.627582 151.716851 
L 160.066317 159.087753 
L 175.505052 155.91027 
L 190.943787 162.671582 
L 206.382522 157.929276 
L 221.821257 163.27058 
L 237.259993 158.854365 
L 252.698728 165.522556 
L 268.137463 165.175952 
L 283.576198 156.58813 
L 299.014933 158.990081 
L 314.453668 153.634169 
L 329.892404 129.116222 
L 345.331139 150.907806 
L 360.769874 157.778027 
L 376.208609 137.144594 
L 391.647344 128.558556 
L 407.08608 164.156829 
" style="fill:none;stroke:#1b9e77;stroke-linecap:square;stroke-opacity:0.5;stroke-width:1.5;"/>
   </g>
   <g id="line2d_104">
    <path clip-path="url(#p08718a7b4b)" d="M 51.99517 165.873549 
L 67.433906 165.858065 
L 82.872641 165.859913 
L 98.311376 165.679323 
L 113.750111 165.758044 
L 129.188846 165.81843 
L 144.627582 165.875822 
L 160.066317 165.875811 
L 175.505052 165.863369 
L 190.943787 165.764047 
L 206.382522 165.034436 
L 221.821257 165.585057 
L 237.259993 164.732499 
L 252.698728 164.51119 
L 268.137463 159.320638 
L 283.576198 163.593923 
L 299.014933 143.388203 
L 314.453668 104.360283 
L 329.892404 128.159909 
L 345.331139 148.328027 
L 360.769874 144.046154 
L 376.208609 147.640436 
L 391.647344 151.191194 
L 407.08608 159.25327 
" style="fill:none;stroke:#1b9e77;stroke-linecap:square;stroke-opacity:0.5;stroke-width:1.5;"/>
   </g>
   <g id="line2d_105">
    <path clip-path="url(#p08718a7b4b)" d="M 51.99517 165.463001 
L 67.433906 165.3371 
L 82.872641 165.645199 
L 98.311376 165.463481 
L 113.750111 165.533852 
L 129.188846 165.813791 
L 144.627582 165.858397 
L 160.066317 165.825344 
L 175.505052 164.115776 
L 190.943787 146.637206 
L 206.382522 143.873003 
L 221.821257 165.049785 
L 237.259993 160.120751 
L 252.698728 161.041511 
L 268.137463 158.878476 
L 283.576198 157.050892 
L 299.014933 155.862992 
L 314.453668 155.701962 
L 329.892404 154.690706 
L 345.331139 153.196504 
L 360.769874 150.995412 
L 376.208609 144.50971 
L 391.647344 143.936113 
L 407.08608 126.770629 
" style="fill:none;stroke:#1b9e77;stroke-linecap:square;stroke-opacity:0.5;stroke-width:1.5;"/>
   </g>
   <g id="line2d_106">
    <path clip-path="url(#p08718a7b4b)" d="M 51.99517 165.937689 
L 67.433906 165.892162 
L 82.872641 165.924495 
L 98.311376 165.923086 
L 113.750111 165.922738 
L 129.188846 165.924572 
L 144.627582 165.914387 
L 160.066317 165.932147 
L 175.505052 164.368113 
L 190.943787 152.289694 
L 206.382522 126.800236 
L 221.821257 132.651058 
L 237.259993 149.135399 
L 252.698728 163.869256 
L 268.137463 162.55408 
L 283.576198 152.689377 
L 299.014933 122.696496 
L 314.453668 155.16508 
L 329.892404 158.364861 
L 345.331139 153.660866 
L 360.769874 161.420414 
L 376.208609 161.557142 
L 391.647344 159.326207 
L 407.08608 163.452043 
" style="fill:none;stroke:#1b9e77;stroke-linecap:square;stroke-opacity:0.5;stroke-width:1.5;"/>
   </g>
   <g id="line2d_107">
    <path clip-path="url(#p08718a7b4b)" d="M 51.99517 136.528219 
L 67.433906 95.540167 
L 82.872641 154.014937 
L 98.311376 159.053599 
L 113.750111 162.187303 
L 129.188846 162.623443 
L 144.627582 161.926265 
L 160.066317 160.103424 
L 175.505052 161.652441 
L 190.943787 163.226394 
L 206.382522 163.408543 
L 221.821257 159.900164 
L 237.259993 149.778285 
L 252.698728 150.051585 
L 268.137463 150.929886 
L 283.576198 165.114599 
L 299.014933 165.421527 
L 314.453668 165.05277 
L 329.892404 164.9806 
L 345.331139 165.39361 
L 360.769874 165.772313 
L 376.208609 165.917643 
L 391.647344 165.943012 
L 407.08608 152.850861 
" style="fill:none;stroke:#1b9e77;stroke-linecap:square;stroke-opacity:0.5;stroke-width:1.5;"/>
   </g>
   <g id="line2d_108">
    <path clip-path="url(#p08718a7b4b)" d="M 51.99517 165.653383 
L 67.433906 165.463693 
L 82.872641 165.327966 
L 98.311376 164.561313 
L 113.750111 162.857653 
L 129.188846 161.39145 
L 144.627582 160.771278 
L 160.066317 160.8863 
L 175.505052 158.1569 
L 190.943787 137.305991 
L 206.382522 116.704782 
L 221.821257 112.987595 
L 237.259993 144.060605 
L 252.698728 151.807953 
L 268.137463 157.935014 
L 283.576198 160.501471 
L 299.014933 164.838575 
L 314.453668 165.892077 
L 329.892404 165.94414 
L 345.331139 161.867189 
L 360.769874 165.05492 
L 376.208609 165.773017 
L 391.647344 165.782752 
L 407.08608 165.845579 
" style="fill:none;stroke:#1b9e77;stroke-linecap:square;stroke-opacity:0.5;stroke-width:1.5;"/>
   </g>
   <g id="line2d_109">
    <path clip-path="url(#p08718a7b4b)" d="M 51.99517 155.517802 
L 67.433906 161.661771 
L 82.872641 165.107092 
L 98.311376 164.081541 
L 113.750111 163.14603 
L 129.188846 151.484323 
L 144.627582 162.642287 
L 160.066317 165.394154 
L 175.505052 165.525781 
L 190.943787 164.356785 
L 206.382522 140.767067 
L 221.821257 160.407929 
L 237.259993 162.904537 
L 252.698728 162.243788 
L 268.137463 154.912578 
L 283.576198 138.376885 
L 299.014933 141.472619 
L 314.453668 157.68236 
L 329.892404 161.653719 
L 345.331139 158.291109 
L 360.769874 153.93098 
L 376.208609 159.491424 
L 391.647344 158.76922 
L 407.08608 137.549812 
" style="fill:none;stroke:#1b9e77;stroke-linecap:square;stroke-opacity:0.5;stroke-width:1.5;"/>
   </g>
   <g id="line2d_110">
    <path clip-path="url(#p08718a7b4b)" d="M 51.99517 165.346392 
L 67.433906 164.527606 
L 82.872641 163.842256 
L 98.311376 162.275108 
L 113.750111 161.226103 
L 129.188846 159.165124 
L 144.627582 154.97924 
L 160.066317 150.235642 
L 175.505052 129.549019 
L 190.943787 98.736012 
L 206.382522 136.45239 
L 221.821257 145.069035 
L 237.259993 157.593046 
L 252.698728 163.260224 
L 268.137463 164.674731 
L 283.576198 164.330233 
L 299.014933 165.258836 
L 314.453668 165.6592 
L 329.892404 165.818542 
L 345.331139 165.768134 
L 360.769874 165.834371 
L 376.208609 165.892742 
L 391.647344 165.922798 
L 407.08608 165.954813 
" style="fill:none;stroke:#1b9e77;stroke-linecap:square;stroke-opacity:0.5;stroke-width:1.5;"/>
   </g>
   <g id="line2d_111">
    <path clip-path="url(#p08718a7b4b)" d="M 51.99517 140.044645 
L 67.433906 165.699384 
L 82.872641 165.570349 
L 98.311376 164.160249 
L 113.750111 156.163624 
L 129.188846 152.027069 
L 144.627582 150.265559 
L 160.066317 149.976634 
L 175.505052 147.691889 
L 190.943787 143.502787 
L 206.382522 145.541729 
L 221.821257 151.856465 
L 237.259993 162.985238 
L 252.698728 161.822373 
L 268.137463 156.986791 
L 283.576198 156.620924 
L 299.014933 164.151706 
L 314.453668 165.665622 
L 329.892404 165.521555 
L 345.331139 164.059692 
L 360.769874 156.310012 
L 376.208609 157.98083 
L 391.647344 158.211237 
L 407.08608 164.555235 
" style="fill:none;stroke:#1b9e77;stroke-linecap:square;stroke-opacity:0.5;stroke-width:1.5;"/>
   </g>
   <g id="line2d_112">
    <path clip-path="url(#p08718a7b4b)" d="M 51.99517 148.265885 
L 67.433906 151.33694 
L 82.872641 156.820069 
L 98.311376 157.88385 
L 113.750111 157.279012 
L 129.188846 159.178135 
L 144.627582 160.550287 
L 160.066317 155.283661 
L 175.505052 153.467189 
L 190.943787 157.454885 
L 206.382522 161.129746 
L 221.821257 160.246184 
L 237.259993 156.97435 
L 252.698728 151.220193 
L 268.137463 150.553929 
L 283.576198 146.808802 
L 299.014933 158.762517 
L 314.453668 160.929986 
L 329.892404 159.505567 
L 345.331139 157.677695 
L 360.769874 159.676059 
L 376.208609 163.208214 
L 391.647344 161.556161 
L 407.08608 161.602273 
" style="fill:none;stroke:#d95f02;stroke-linecap:square;stroke-width:1.5;"/>
   </g>
   <g id="patch_3">
    <path d="M 34.240625 173.52 
L 34.240625 7.2 
" style="fill:none;stroke:#000000;stroke-linecap:square;stroke-linejoin:miter;stroke-width:0.8;"/>
   </g>
   <g id="patch_4">
    <path d="M 34.240625 173.52 
L 424.840625 173.52 
" style="fill:none;stroke:#000000;stroke-linecap:square;stroke-linejoin:miter;stroke-width:0.8;"/>
   </g>
   <g id="legend_1">
    <g id="patch_5">
     <path d="M 41.240625 29.878125 
L 92.407813 29.878125 
Q 94.407813 29.878125 94.407813 27.878125 
L 94.407813 14.2 
Q 94.407813 12.2 92.407813 12.2 
L 41.240625 12.2 
Q 39.240625 12.2 39.240625 14.2 
L 39.240625 27.878125 
Q 39.240625 29.878125 41.240625 29.878125 
z
" style="fill:#ffffff;opacity:0.8;stroke:#cccccc;stroke-linejoin:miter;"/>
    </g>
    <g id="line2d_113">
     <path d="M 43.240625 20.298438 
L 63.240625 20.298438 
" style="fill:none;stroke:#d95f02;stroke-linecap:square;stroke-width:1.5;"/>
    </g>
    <g id="line2d_114"/>
    <g id="text_14">
     <!-- real -->
     <defs>
      <path d="M 9.421875 75.984375 
L 18.40625 75.984375 
L 18.40625 0 
L 9.421875 0 
z
" id="DejaVuSans-108"/>
     </defs>
     <g transform="translate(71.240625 23.798438)scale(0.1 -0.1)">
      <use xlink:href="#DejaVuSans-114"/>
      <use x="41.082031" xlink:href="#DejaVuSans-101"/>
      <use x="102.605469" xlink:href="#DejaVuSans-97"/>
      <use x="163.884766" xlink:href="#DejaVuSans-108"/>
     </g>
    </g>
   </g>
  </g>
 </g>
 <defs>
  <clipPath id="p08718a7b4b">
   <rect height="166.32" width="390.6" x="34.240625" y="7.2"/>
  </clipPath>
 </defs>
</svg>
