<?xml version="1.0" encoding="utf-8" standalone="no"?>
<!DOCTYPE svg PUBLIC "-//W3C//DTD SVG 1.1//EN"
  "http://www.w3.org/Graphics/SVG/1.1/DTD/svg11.dtd">
<!-- Created with matplotlib (https://matplotlib.org/) -->
<svg height="211.07625pt" version="1.1" viewBox="0 0 445.62794 211.07625" width="445.62794pt" xmlns="http://www.w3.org/2000/svg" xmlns:xlink="http://www.w3.org/1999/xlink">
 <defs>
  <style type="text/css">
*{stroke-linecap:butt;stroke-linejoin:round;}
  </style>
 </defs>
 <g id="figure_1">
  <g id="patch_1">
   <path d="M 0 211.07625 
L 445.62794 211.07625 
L 445.62794 0 
L 0 0 
z
" style="fill:#ffffff;"/>
  </g>
  <g id="axes_1">
   <g id="patch_2">
    <path d="M 43.78125 173.52 
L 434.38125 173.52 
L 434.38125 7.2 
L 43.78125 7.2 
z
" style="fill:#ffffff;"/>
   </g>
   <g id="matplotlib.axis_1">
    <g id="xtick_1">
     <g id="line2d_1">
      <defs>
       <path d="M 0 0 
L 0 3.5 
" id="m69f7634bda" style="stroke:#000000;stroke-width:0.8;"/>
      </defs>
      <g>
       <use style="stroke:#000000;stroke-width:0.8;" x="46.09706" xlink:href="#m69f7634bda" y="173.52"/>
      </g>
     </g>
     <g id="text_1">
      <!-- 0 -->
      <defs>
       <path d="M 31.78125 66.40625 
Q 24.171875 66.40625 20.328125 58.90625 
Q 16.5 51.421875 16.5 36.375 
Q 16.5 21.390625 20.328125 13.890625 
Q 24.171875 6.390625 31.78125 6.390625 
Q 39.453125 6.390625 43.28125 13.890625 
Q 47.125 21.390625 47.125 36.375 
Q 47.125 51.421875 43.28125 58.90625 
Q 39.453125 66.40625 31.78125 66.40625 
z
M 31.78125 74.21875 
Q 44.046875 74.21875 50.515625 64.515625 
Q 56.984375 54.828125 56.984375 36.375 
Q 56.984375 17.96875 50.515625 8.265625 
Q 44.046875 -1.421875 31.78125 -1.421875 
Q 19.53125 -1.421875 13.0625 8.265625 
Q 6.59375 17.96875 6.59375 36.375 
Q 6.59375 54.828125 13.0625 64.515625 
Q 19.53125 74.21875 31.78125 74.21875 
z
" id="DejaVuSans-48"/>
      </defs>
      <g transform="translate(42.91581 188.118438)scale(0.1 -0.1)">
       <use xlink:href="#DejaVuSans-48"/>
      </g>
     </g>
    </g>
    <g id="xtick_2">
     <g id="line2d_2">
      <g>
       <use style="stroke:#000000;stroke-width:0.8;" x="123.290736" xlink:href="#m69f7634bda" y="173.52"/>
      </g>
     </g>
     <g id="text_2">
      <!-- 5 -->
      <defs>
       <path d="M 10.796875 72.90625 
L 49.515625 72.90625 
L 49.515625 64.59375 
L 19.828125 64.59375 
L 19.828125 46.734375 
Q 21.96875 47.46875 24.109375 47.828125 
Q 26.265625 48.1875 28.421875 48.1875 
Q 40.625 48.1875 47.75 41.5 
Q 54.890625 34.8125 54.890625 23.390625 
Q 54.890625 11.625 47.5625 5.09375 
Q 40.234375 -1.421875 26.90625 -1.421875 
Q 22.3125 -1.421875 17.546875 -0.640625 
Q 12.796875 0.140625 7.71875 1.703125 
L 7.71875 11.625 
Q 12.109375 9.234375 16.796875 8.0625 
Q 21.484375 6.890625 26.703125 6.890625 
Q 35.15625 6.890625 40.078125 11.328125 
Q 45.015625 15.765625 45.015625 23.390625 
Q 45.015625 31 40.078125 35.4375 
Q 35.15625 39.890625 26.703125 39.890625 
Q 22.75 39.890625 18.8125 39.015625 
Q 14.890625 38.140625 10.796875 36.28125 
z
" id="DejaVuSans-53"/>
      </defs>
      <g transform="translate(120.109486 188.118438)scale(0.1 -0.1)">
       <use xlink:href="#DejaVuSans-53"/>
      </g>
     </g>
    </g>
    <g id="xtick_3">
     <g id="line2d_3">
      <g>
       <use style="stroke:#000000;stroke-width:0.8;" x="200.484412" xlink:href="#m69f7634bda" y="173.52"/>
      </g>
     </g>
     <g id="text_3">
      <!-- 10 -->
      <defs>
       <path d="M 12.40625 8.296875 
L 28.515625 8.296875 
L 28.515625 63.921875 
L 10.984375 60.40625 
L 10.984375 69.390625 
L 28.421875 72.90625 
L 38.28125 72.90625 
L 38.28125 8.296875 
L 54.390625 8.296875 
L 54.390625 0 
L 12.40625 0 
z
" id="DejaVuSans-49"/>
      </defs>
      <g transform="translate(194.121912 188.118438)scale(0.1 -0.1)">
       <use xlink:href="#DejaVuSans-49"/>
       <use x="63.623047" xlink:href="#DejaVuSans-48"/>
      </g>
     </g>
    </g>
    <g id="xtick_4">
     <g id="line2d_4">
      <g>
       <use style="stroke:#000000;stroke-width:0.8;" x="277.678088" xlink:href="#m69f7634bda" y="173.52"/>
      </g>
     </g>
     <g id="text_4">
      <!-- 15 -->
      <g transform="translate(271.315588 188.118438)scale(0.1 -0.1)">
       <use xlink:href="#DejaVuSans-49"/>
       <use x="63.623047" xlink:href="#DejaVuSans-53"/>
      </g>
     </g>
    </g>
    <g id="xtick_5">
     <g id="line2d_5">
      <g>
       <use style="stroke:#000000;stroke-width:0.8;" x="354.871764" xlink:href="#m69f7634bda" y="173.52"/>
      </g>
     </g>
     <g id="text_5">
      <!-- 20 -->
      <defs>
       <path d="M 19.1875 8.296875 
L 53.609375 8.296875 
L 53.609375 0 
L 7.328125 0 
L 7.328125 8.296875 
Q 12.9375 14.109375 22.625 23.890625 
Q 32.328125 33.6875 34.8125 36.53125 
Q 39.546875 41.84375 41.421875 45.53125 
Q 43.3125 49.21875 43.3125 52.78125 
Q 43.3125 58.59375 39.234375 62.25 
Q 35.15625 65.921875 28.609375 65.921875 
Q 23.96875 65.921875 18.8125 64.3125 
Q 13.671875 62.703125 7.8125 59.421875 
L 7.8125 69.390625 
Q 13.765625 71.78125 18.9375 73 
Q 24.125 74.21875 28.421875 74.21875 
Q 39.75 74.21875 46.484375 68.546875 
Q 53.21875 62.890625 53.21875 53.421875 
Q 53.21875 48.921875 51.53125 44.890625 
Q 49.859375 40.875 45.40625 35.40625 
Q 44.1875 33.984375 37.640625 27.21875 
Q 31.109375 20.453125 19.1875 8.296875 
z
" id="DejaVuSans-50"/>
      </defs>
      <g transform="translate(348.509264 188.118438)scale(0.1 -0.1)">
       <use xlink:href="#DejaVuSans-50"/>
       <use x="63.623047" xlink:href="#DejaVuSans-48"/>
      </g>
     </g>
    </g>
    <g id="xtick_6">
     <g id="line2d_6">
      <g>
       <use style="stroke:#000000;stroke-width:0.8;" x="432.06544" xlink:href="#m69f7634bda" y="173.52"/>
      </g>
     </g>
     <g id="text_6">
      <!-- 25 -->
      <g transform="translate(425.70294 188.118438)scale(0.1 -0.1)">
       <use xlink:href="#DejaVuSans-50"/>
       <use x="63.623047" xlink:href="#DejaVuSans-53"/>
      </g>
     </g>
    </g>
    <g id="text_7">
     <!-- hour -->
     <defs>
      <path d="M 54.890625 33.015625 
L 54.890625 0 
L 45.90625 0 
L 45.90625 32.71875 
Q 45.90625 40.484375 42.875 44.328125 
Q 39.84375 48.1875 33.796875 48.1875 
Q 26.515625 48.1875 22.3125 43.546875 
Q 18.109375 38.921875 18.109375 30.90625 
L 18.109375 0 
L 9.078125 0 
L 9.078125 75.984375 
L 18.109375 75.984375 
L 18.109375 46.1875 
Q 21.34375 51.125 25.703125 53.5625 
Q 30.078125 56 35.796875 56 
Q 45.21875 56 50.046875 50.171875 
Q 54.890625 44.34375 54.890625 33.015625 
z
" id="DejaVuSans-104"/>
      <path d="M 30.609375 48.390625 
Q 23.390625 48.390625 19.1875 42.75 
Q 14.984375 37.109375 14.984375 27.296875 
Q 14.984375 17.484375 19.15625 11.84375 
Q 23.34375 6.203125 30.609375 6.203125 
Q 37.796875 6.203125 41.984375 11.859375 
Q 46.1875 17.53125 46.1875 27.296875 
Q 46.1875 37.015625 41.984375 42.703125 
Q 37.796875 48.390625 30.609375 48.390625 
z
M 30.609375 56 
Q 42.328125 56 49.015625 48.375 
Q 55.71875 40.765625 55.71875 27.296875 
Q 55.71875 13.875 49.015625 6.21875 
Q 42.328125 -1.421875 30.609375 -1.421875 
Q 18.84375 -1.421875 12.171875 6.21875 
Q 5.515625 13.875 5.515625 27.296875 
Q 5.515625 40.765625 12.171875 48.375 
Q 18.84375 56 30.609375 56 
z
" id="DejaVuSans-111"/>
      <path d="M 8.5 21.578125 
L 8.5 54.6875 
L 17.484375 54.6875 
L 17.484375 21.921875 
Q 17.484375 14.15625 20.5 10.265625 
Q 23.53125 6.390625 29.59375 6.390625 
Q 36.859375 6.390625 41.078125 11.03125 
Q 45.3125 15.671875 45.3125 23.6875 
L 45.3125 54.6875 
L 54.296875 54.6875 
L 54.296875 0 
L 45.3125 0 
L 45.3125 8.40625 
Q 42.046875 3.421875 37.71875 1 
Q 33.40625 -1.421875 27.6875 -1.421875 
Q 18.265625 -1.421875 13.375 4.4375 
Q 8.5 10.296875 8.5 21.578125 
z
M 31.109375 56 
z
" id="DejaVuSans-117"/>
      <path d="M 41.109375 46.296875 
Q 39.59375 47.171875 37.8125 47.578125 
Q 36.03125 48 33.890625 48 
Q 26.265625 48 22.1875 43.046875 
Q 18.109375 38.09375 18.109375 28.8125 
L 18.109375 0 
L 9.078125 0 
L 9.078125 54.6875 
L 18.109375 54.6875 
L 18.109375 46.1875 
Q 20.953125 51.171875 25.484375 53.578125 
Q 30.03125 56 36.53125 56 
Q 37.453125 56 38.578125 55.875 
Q 39.703125 55.765625 41.0625 55.515625 
z
" id="DejaVuSans-114"/>
     </defs>
     <g transform="translate(227.628906 201.796563)scale(0.1 -0.1)">
      <use xlink:href="#DejaVuSans-104"/>
      <use x="63.378906" xlink:href="#DejaVuSans-111"/>
      <use x="124.560547" xlink:href="#DejaVuSans-117"/>
      <use x="187.939453" xlink:href="#DejaVuSans-114"/>
     </g>
    </g>
   </g>
   <g id="matplotlib.axis_2">
    <g id="ytick_1">
     <g id="line2d_7">
      <defs>
       <path d="M 0 0 
L -3.5 0 
" id="m33c71f2880" style="stroke:#000000;stroke-width:0.8;"/>
      </defs>
      <g>
       <use style="stroke:#000000;stroke-width:0.8;" x="43.78125" xlink:href="#m33c71f2880" y="165.960144"/>
      </g>
     </g>
     <g id="text_8">
      <!-- 0.0 -->
      <defs>
       <path d="M 10.6875 12.40625 
L 21 12.40625 
L 21 0 
L 10.6875 0 
z
" id="DejaVuSans-46"/>
      </defs>
      <g transform="translate(20.878125 169.759363)scale(0.1 -0.1)">
       <use xlink:href="#DejaVuSans-48"/>
       <use x="63.623047" xlink:href="#DejaVuSans-46"/>
       <use x="95.410156" xlink:href="#DejaVuSans-48"/>
      </g>
     </g>
    </g>
    <g id="ytick_2">
     <g id="line2d_8">
      <g>
       <use style="stroke:#000000;stroke-width:0.8;" x="43.78125" xlink:href="#m33c71f2880" y="142.707604"/>
      </g>
     </g>
     <g id="text_9">
      <!-- 0.5 -->
      <g transform="translate(20.878125 146.506822)scale(0.1 -0.1)">
       <use xlink:href="#DejaVuSans-48"/>
       <use x="63.623047" xlink:href="#DejaVuSans-46"/>
       <use x="95.410156" xlink:href="#DejaVuSans-53"/>
      </g>
     </g>
    </g>
    <g id="ytick_3">
     <g id="line2d_9">
      <g>
       <use style="stroke:#000000;stroke-width:0.8;" x="43.78125" xlink:href="#m33c71f2880" y="119.455063"/>
      </g>
     </g>
     <g id="text_10">
      <!-- 1.0 -->
      <g transform="translate(20.878125 123.254282)scale(0.1 -0.1)">
       <use xlink:href="#DejaVuSans-49"/>
       <use x="63.623047" xlink:href="#DejaVuSans-46"/>
       <use x="95.410156" xlink:href="#DejaVuSans-48"/>
      </g>
     </g>
    </g>
    <g id="ytick_4">
     <g id="line2d_10">
      <g>
       <use style="stroke:#000000;stroke-width:0.8;" x="43.78125" xlink:href="#m33c71f2880" y="96.202523"/>
      </g>
     </g>
     <g id="text_11">
      <!-- 1.5 -->
      <g transform="translate(20.878125 100.001742)scale(0.1 -0.1)">
       <use xlink:href="#DejaVuSans-49"/>
       <use x="63.623047" xlink:href="#DejaVuSans-46"/>
       <use x="95.410156" xlink:href="#DejaVuSans-53"/>
      </g>
     </g>
    </g>
    <g id="ytick_5">
     <g id="line2d_11">
      <g>
       <use style="stroke:#000000;stroke-width:0.8;" x="43.78125" xlink:href="#m33c71f2880" y="72.949983"/>
      </g>
     </g>
     <g id="text_12">
      <!-- 2.0 -->
      <g transform="translate(20.878125 76.749201)scale(0.1 -0.1)">
       <use xlink:href="#DejaVuSans-50"/>
       <use x="63.623047" xlink:href="#DejaVuSans-46"/>
       <use x="95.410156" xlink:href="#DejaVuSans-48"/>
      </g>
     </g>
    </g>
    <g id="ytick_6">
     <g id="line2d_12">
      <g>
       <use style="stroke:#000000;stroke-width:0.8;" x="43.78125" xlink:href="#m33c71f2880" y="49.697442"/>
      </g>
     </g>
     <g id="text_13">
      <!-- 2.5 -->
      <g transform="translate(20.878125 53.496661)scale(0.1 -0.1)">
       <use xlink:href="#DejaVuSans-50"/>
       <use x="63.623047" xlink:href="#DejaVuSans-46"/>
       <use x="95.410156" xlink:href="#DejaVuSans-53"/>
      </g>
     </g>
    </g>
    <g id="ytick_7">
     <g id="line2d_13">
      <g>
       <use style="stroke:#000000;stroke-width:0.8;" x="43.78125" xlink:href="#m33c71f2880" y="26.444902"/>
      </g>
     </g>
     <g id="text_14">
      <!-- 3.0 -->
      <defs>
       <path d="M 40.578125 39.3125 
Q 47.65625 37.796875 51.625 33 
Q 55.609375 28.21875 55.609375 21.1875 
Q 55.609375 10.40625 48.1875 4.484375 
Q 40.765625 -1.421875 27.09375 -1.421875 
Q 22.515625 -1.421875 17.65625 -0.515625 
Q 12.796875 0.390625 7.625 2.203125 
L 7.625 11.71875 
Q 11.71875 9.328125 16.59375 8.109375 
Q 21.484375 6.890625 26.8125 6.890625 
Q 36.078125 6.890625 40.9375 10.546875 
Q 45.796875 14.203125 45.796875 21.1875 
Q 45.796875 27.640625 41.28125 31.265625 
Q 36.765625 34.90625 28.71875 34.90625 
L 20.21875 34.90625 
L 20.21875 43.015625 
L 29.109375 43.015625 
Q 36.375 43.015625 40.234375 45.921875 
Q 44.09375 48.828125 44.09375 54.296875 
Q 44.09375 59.90625 40.109375 62.90625 
Q 36.140625 65.921875 28.71875 65.921875 
Q 24.65625 65.921875 20.015625 65.03125 
Q 15.375 64.15625 9.8125 62.3125 
L 9.8125 71.09375 
Q 15.4375 72.65625 20.34375 73.4375 
Q 25.25 74.21875 29.59375 74.21875 
Q 40.828125 74.21875 47.359375 69.109375 
Q 53.90625 64.015625 53.90625 55.328125 
Q 53.90625 49.265625 50.4375 45.09375 
Q 46.96875 40.921875 40.578125 39.3125 
z
" id="DejaVuSans-51"/>
      </defs>
      <g transform="translate(20.878125 30.244121)scale(0.1 -0.1)">
       <use xlink:href="#DejaVuSans-51"/>
       <use x="63.623047" xlink:href="#DejaVuSans-46"/>
       <use x="95.410156" xlink:href="#DejaVuSans-48"/>
      </g>
     </g>
    </g>
    <g id="text_15">
     <!-- precipitation [mm/hour] -->
     <defs>
      <path d="M 18.109375 8.203125 
L 18.109375 -20.796875 
L 9.078125 -20.796875 
L 9.078125 54.6875 
L 18.109375 54.6875 
L 18.109375 46.390625 
Q 20.953125 51.265625 25.265625 53.625 
Q 29.59375 56 35.59375 56 
Q 45.5625 56 51.78125 48.09375 
Q 58.015625 40.1875 58.015625 27.296875 
Q 58.015625 14.40625 51.78125 6.484375 
Q 45.5625 -1.421875 35.59375 -1.421875 
Q 29.59375 -1.421875 25.265625 0.953125 
Q 20.953125 3.328125 18.109375 8.203125 
z
M 48.6875 27.296875 
Q 48.6875 37.203125 44.609375 42.84375 
Q 40.53125 48.484375 33.40625 48.484375 
Q 26.265625 48.484375 22.1875 42.84375 
Q 18.109375 37.203125 18.109375 27.296875 
Q 18.109375 17.390625 22.1875 11.75 
Q 26.265625 6.109375 33.40625 6.109375 
Q 40.53125 6.109375 44.609375 11.75 
Q 48.6875 17.390625 48.6875 27.296875 
z
" id="DejaVuSans-112"/>
      <path d="M 56.203125 29.59375 
L 56.203125 25.203125 
L 14.890625 25.203125 
Q 15.484375 15.921875 20.484375 11.0625 
Q 25.484375 6.203125 34.421875 6.203125 
Q 39.59375 6.203125 44.453125 7.46875 
Q 49.3125 8.734375 54.109375 11.28125 
L 54.109375 2.78125 
Q 49.265625 0.734375 44.1875 -0.34375 
Q 39.109375 -1.421875 33.890625 -1.421875 
Q 20.796875 -1.421875 13.15625 6.1875 
Q 5.515625 13.8125 5.515625 26.8125 
Q 5.515625 40.234375 12.765625 48.109375 
Q 20.015625 56 32.328125 56 
Q 43.359375 56 49.78125 48.890625 
Q 56.203125 41.796875 56.203125 29.59375 
z
M 47.21875 32.234375 
Q 47.125 39.59375 43.09375 43.984375 
Q 39.0625 48.390625 32.421875 48.390625 
Q 24.90625 48.390625 20.390625 44.140625 
Q 15.875 39.890625 15.1875 32.171875 
z
" id="DejaVuSans-101"/>
      <path d="M 48.78125 52.59375 
L 48.78125 44.1875 
Q 44.96875 46.296875 41.140625 47.34375 
Q 37.3125 48.390625 33.40625 48.390625 
Q 24.65625 48.390625 19.8125 42.84375 
Q 14.984375 37.3125 14.984375 27.296875 
Q 14.984375 17.28125 19.8125 11.734375 
Q 24.65625 6.203125 33.40625 6.203125 
Q 37.3125 6.203125 41.140625 7.25 
Q 44.96875 8.296875 48.78125 10.40625 
L 48.78125 2.09375 
Q 45.015625 0.34375 40.984375 -0.53125 
Q 36.96875 -1.421875 32.421875 -1.421875 
Q 20.0625 -1.421875 12.78125 6.34375 
Q 5.515625 14.109375 5.515625 27.296875 
Q 5.515625 40.671875 12.859375 48.328125 
Q 20.21875 56 33.015625 56 
Q 37.15625 56 41.109375 55.140625 
Q 45.0625 54.296875 48.78125 52.59375 
z
" id="DejaVuSans-99"/>
      <path d="M 9.421875 54.6875 
L 18.40625 54.6875 
L 18.40625 0 
L 9.421875 0 
z
M 9.421875 75.984375 
L 18.40625 75.984375 
L 18.40625 64.59375 
L 9.421875 64.59375 
z
" id="DejaVuSans-105"/>
      <path d="M 18.3125 70.21875 
L 18.3125 54.6875 
L 36.8125 54.6875 
L 36.8125 47.703125 
L 18.3125 47.703125 
L 18.3125 18.015625 
Q 18.3125 11.328125 20.140625 9.421875 
Q 21.96875 7.515625 27.59375 7.515625 
L 36.8125 7.515625 
L 36.8125 0 
L 27.59375 0 
Q 17.1875 0 13.234375 3.875 
Q 9.28125 7.765625 9.28125 18.015625 
L 9.28125 47.703125 
L 2.6875 47.703125 
L 2.6875 54.6875 
L 9.28125 54.6875 
L 9.28125 70.21875 
z
" id="DejaVuSans-116"/>
      <path d="M 34.28125 27.484375 
Q 23.390625 27.484375 19.1875 25 
Q 14.984375 22.515625 14.984375 16.5 
Q 14.984375 11.71875 18.140625 8.90625 
Q 21.296875 6.109375 26.703125 6.109375 
Q 34.1875 6.109375 38.703125 11.40625 
Q 43.21875 16.703125 43.21875 25.484375 
L 43.21875 27.484375 
z
M 52.203125 31.203125 
L 52.203125 0 
L 43.21875 0 
L 43.21875 8.296875 
Q 40.140625 3.328125 35.546875 0.953125 
Q 30.953125 -1.421875 24.3125 -1.421875 
Q 15.921875 -1.421875 10.953125 3.296875 
Q 6 8.015625 6 15.921875 
Q 6 25.140625 12.171875 29.828125 
Q 18.359375 34.515625 30.609375 34.515625 
L 43.21875 34.515625 
L 43.21875 35.40625 
Q 43.21875 41.609375 39.140625 45 
Q 35.0625 48.390625 27.6875 48.390625 
Q 23 48.390625 18.546875 47.265625 
Q 14.109375 46.140625 10.015625 43.890625 
L 10.015625 52.203125 
Q 14.9375 54.109375 19.578125 55.046875 
Q 24.21875 56 28.609375 56 
Q 40.484375 56 46.34375 49.84375 
Q 52.203125 43.703125 52.203125 31.203125 
z
" id="DejaVuSans-97"/>
      <path d="M 54.890625 33.015625 
L 54.890625 0 
L 45.90625 0 
L 45.90625 32.71875 
Q 45.90625 40.484375 42.875 44.328125 
Q 39.84375 48.1875 33.796875 48.1875 
Q 26.515625 48.1875 22.3125 43.546875 
Q 18.109375 38.921875 18.109375 30.90625 
L 18.109375 0 
L 9.078125 0 
L 9.078125 54.6875 
L 18.109375 54.6875 
L 18.109375 46.1875 
Q 21.34375 51.125 25.703125 53.5625 
Q 30.078125 56 35.796875 56 
Q 45.21875 56 50.046875 50.171875 
Q 54.890625 44.34375 54.890625 33.015625 
z
" id="DejaVuSans-110"/>
      <path id="DejaVuSans-32"/>
      <path d="M 8.59375 75.984375 
L 29.296875 75.984375 
L 29.296875 69 
L 17.578125 69 
L 17.578125 -6.203125 
L 29.296875 -6.203125 
L 29.296875 -13.1875 
L 8.59375 -13.1875 
z
" id="DejaVuSans-91"/>
      <path d="M 52 44.1875 
Q 55.375 50.25 60.0625 53.125 
Q 64.75 56 71.09375 56 
Q 79.640625 56 84.28125 50.015625 
Q 88.921875 44.046875 88.921875 33.015625 
L 88.921875 0 
L 79.890625 0 
L 79.890625 32.71875 
Q 79.890625 40.578125 77.09375 44.375 
Q 74.3125 48.1875 68.609375 48.1875 
Q 61.625 48.1875 57.5625 43.546875 
Q 53.515625 38.921875 53.515625 30.90625 
L 53.515625 0 
L 44.484375 0 
L 44.484375 32.71875 
Q 44.484375 40.625 41.703125 44.40625 
Q 38.921875 48.1875 33.109375 48.1875 
Q 26.21875 48.1875 22.15625 43.53125 
Q 18.109375 38.875 18.109375 30.90625 
L 18.109375 0 
L 9.078125 0 
L 9.078125 54.6875 
L 18.109375 54.6875 
L 18.109375 46.1875 
Q 21.1875 51.21875 25.484375 53.609375 
Q 29.78125 56 35.6875 56 
Q 41.65625 56 45.828125 52.96875 
Q 50 49.953125 52 44.1875 
z
" id="DejaVuSans-109"/>
      <path d="M 25.390625 72.90625 
L 33.6875 72.90625 
L 8.296875 -9.28125 
L 0 -9.28125 
z
" id="DejaVuSans-47"/>
      <path d="M 30.421875 75.984375 
L 30.421875 -13.1875 
L 9.71875 -13.1875 
L 9.71875 -6.203125 
L 21.390625 -6.203125 
L 21.390625 69 
L 9.71875 69 
L 9.71875 75.984375 
z
" id="DejaVuSans-93"/>
     </defs>
     <g transform="translate(14.798438 150.335781)rotate(-90)scale(0.1 -0.1)">
      <use xlink:href="#DejaVuSans-112"/>
      <use x="63.476562" xlink:href="#DejaVuSans-114"/>
      <use x="104.558594" xlink:href="#DejaVuSans-101"/>
      <use x="166.082031" xlink:href="#DejaVuSans-99"/>
      <use x="221.0625" xlink:href="#DejaVuSans-105"/>
      <use x="248.845703" xlink:href="#DejaVuSans-112"/>
      <use x="312.322266" xlink:href="#DejaVuSans-105"/>
      <use x="340.105469" xlink:href="#DejaVuSans-116"/>
      <use x="379.314453" xlink:href="#DejaVuSans-97"/>
      <use x="440.59375" xlink:href="#DejaVuSans-116"/>
      <use x="479.802734" xlink:href="#DejaVuSans-105"/>
      <use x="507.585938" xlink:href="#DejaVuSans-111"/>
      <use x="568.767578" xlink:href="#DejaVuSans-110"/>
      <use x="632.146484" xlink:href="#DejaVuSans-32"/>
      <use x="663.933594" xlink:href="#DejaVuSans-91"/>
      <use x="702.947266" xlink:href="#DejaVuSans-109"/>
      <use x="800.359375" xlink:href="#DejaVuSans-109"/>
      <use x="897.771484" xlink:href="#DejaVuSans-47"/>
      <use x="931.462891" xlink:href="#DejaVuSans-104"/>
      <use x="994.841797" xlink:href="#DejaVuSans-111"/>
      <use x="1056.023438" xlink:href="#DejaVuSans-117"/>
      <use x="1119.402344" xlink:href="#DejaVuSans-114"/>
      <use x="1160.515625" xlink:href="#DejaVuSans-93"/>
     </g>
    </g>
   </g>
   <g id="line2d_14">
    <path clip-path="url(#pecf831830b)" d="M 61.535795 165.463259 
L 76.974531 165.660767 
L 92.413266 165.856435 
L 107.852001 165.87841 
L 123.290736 165.882947 
L 138.729471 165.911696 
L 154.168207 164.867102 
L 169.606942 162.59848 
L 185.045677 157.578732 
L 200.484412 153.995283 
L 215.923147 145.916468 
L 231.361882 146.454043 
L 246.800618 147.163219 
L 262.239353 138.027526 
L 277.678088 143.725688 
L 293.116823 147.172541 
L 308.555558 156.597647 
L 323.994293 165.581498 
L 339.433029 165.332198 
L 354.871764 152.922881 
L 370.310499 146.641211 
L 385.749234 157.46562 
L 401.187969 160.123102 
L 416.626705 157.53283 
" style="fill:none;stroke:#1b9e77;stroke-linecap:square;stroke-opacity:0.5;stroke-width:1.5;"/>
   </g>
   <g id="line2d_15">
    <path clip-path="url(#pecf831830b)" d="M 61.535795 161.872717 
L 76.974531 163.483885 
L 92.413266 165.583791 
L 107.852001 165.716921 
L 123.290736 165.741125 
L 138.729471 164.670773 
L 154.168207 157.604017 
L 169.606942 164.191557 
L 185.045677 165.29331 
L 200.484412 165.544331 
L 215.923147 163.896959 
L 231.361882 139.805754 
L 246.800618 123.331872 
L 262.239353 152.71066 
L 277.678088 157.401709 
L 293.116823 143.105806 
L 308.555558 129.150728 
L 323.994293 126.704964 
L 339.433029 161.825875 
L 354.871764 164.736847 
L 370.310499 165.108668 
L 385.749234 165.272515 
L 401.187969 165.669012 
L 416.626705 165.925786 
" style="fill:none;stroke:#1b9e77;stroke-linecap:square;stroke-opacity:0.5;stroke-width:1.5;"/>
   </g>
   <g id="line2d_16">
    <path clip-path="url(#pecf831830b)" d="M 61.535795 165.040246 
L 76.974531 159.393694 
L 92.413266 124.335899 
L 107.852001 86.757941 
L 123.290736 149.171264 
L 138.729471 151.632969 
L 154.168207 162.751732 
L 169.606942 164.400444 
L 185.045677 165.349228 
L 200.484412 165.570246 
L 215.923147 165.744236 
L 231.361882 165.734134 
L 246.800618 165.793797 
L 262.239353 165.87383 
L 277.678088 165.837186 
L 293.116823 165.671431 
L 308.555558 165.386005 
L 323.994293 165.33098 
L 339.433029 165.210193 
L 354.871764 165.243904 
L 370.310499 165.078245 
L 385.749234 164.121386 
L 401.187969 164.303471 
L 416.626705 120.617121 
" style="fill:none;stroke:#1b9e77;stroke-linecap:square;stroke-opacity:0.5;stroke-width:1.5;"/>
   </g>
   <g id="line2d_17">
    <path clip-path="url(#pecf831830b)" d="M 61.535795 140.885153 
L 76.974531 137.050899 
L 92.413266 164.039153 
L 107.852001 164.631578 
L 123.290736 165.076156 
L 138.729471 164.480053 
L 154.168207 164.539188 
L 169.606942 165.190365 
L 185.045677 165.389535 
L 200.484412 164.808777 
L 215.923147 164.094506 
L 231.361882 164.780988 
L 246.800618 164.628916 
L 262.239353 162.404934 
L 277.678088 141.768824 
L 293.116823 128.722763 
L 308.555558 129.847031 
L 323.994293 154.293186 
L 339.433029 159.223998 
L 354.871764 148.931551 
L 370.310499 153.269116 
L 385.749234 164.661922 
L 401.187969 165.711008 
L 416.626705 165.919983 
" style="fill:none;stroke:#1b9e77;stroke-linecap:square;stroke-opacity:0.5;stroke-width:1.5;"/>
   </g>
   <g id="line2d_18">
    <path clip-path="url(#pecf831830b)" d="M 61.535795 164.024167 
L 76.974531 164.882463 
L 92.413266 165.583534 
L 107.852001 165.629631 
L 123.290736 165.650479 
L 138.729471 165.780209 
L 154.168207 165.151807 
L 169.606942 144.996761 
L 185.045677 126.395987 
L 200.484412 153.539011 
L 215.923147 146.554642 
L 231.361882 95.467621 
L 246.800618 155.581655 
L 262.239353 139.752658 
L 277.678088 154.109795 
L 293.116823 165.813719 
L 308.555558 165.858229 
L 323.994293 165.50995 
L 339.433029 165.113233 
L 354.871764 165.744169 
L 370.310499 165.802208 
L 385.749234 165.743303 
L 401.187969 165.734164 
L 416.626705 165.930178 
" style="fill:none;stroke:#1b9e77;stroke-linecap:square;stroke-opacity:0.5;stroke-width:1.5;"/>
   </g>
   <g id="line2d_19">
    <path clip-path="url(#pecf831830b)" d="M 61.535795 141.256371 
L 76.974531 155.776917 
L 92.413266 162.078566 
L 107.852001 158.640092 
L 123.290736 155.812275 
L 138.729471 152.382801 
L 154.168207 160.666993 
L 169.606942 164.645588 
L 185.045677 165.177862 
L 200.484412 164.649149 
L 215.923147 163.827732 
L 231.361882 164.215875 
L 246.800618 163.677561 
L 262.239353 161.551526 
L 277.678088 146.438224 
L 293.116823 132.557109 
L 308.555558 130.376814 
L 323.994293 151.509498 
L 339.433029 152.505012 
L 354.871764 155.621319 
L 370.310499 163.709167 
L 385.749234 165.431672 
L 401.187969 165.894527 
L 416.626705 165.946942 
" style="fill:none;stroke:#1b9e77;stroke-linecap:square;stroke-opacity:0.5;stroke-width:1.5;"/>
   </g>
   <g id="line2d_20">
    <path clip-path="url(#pecf831830b)" d="M 61.535795 165.783763 
L 76.974531 165.814773 
L 92.413266 165.895781 
L 107.852001 165.869401 
L 123.290736 165.866447 
L 138.729471 165.89053 
L 154.168207 165.910003 
L 169.606942 165.946075 
L 185.045677 165.955252 
L 200.484412 165.604996 
L 215.923147 164.839767 
L 231.361882 163.731954 
L 246.800618 161.141679 
L 262.239353 159.243275 
L 277.678088 157.773209 
L 293.116823 158.314107 
L 308.555558 156.90255 
L 323.994293 73.225844 
L 339.433029 108.01929 
L 354.871764 144.401662 
L 370.310499 161.145494 
L 385.749234 165.261669 
L 401.187969 165.86554 
L 416.626705 165.946528 
" style="fill:none;stroke:#1b9e77;stroke-linecap:square;stroke-opacity:0.5;stroke-width:1.5;"/>
   </g>
   <g id="line2d_21">
    <path clip-path="url(#pecf831830b)" d="M 61.535795 163.259024 
L 76.974531 154.515037 
L 92.413266 149.705561 
L 107.852001 155.602356 
L 123.290736 159.155536 
L 138.729471 138.015632 
L 154.168207 132.284729 
L 169.606942 143.228273 
L 185.045677 156.380275 
L 200.484412 152.525141 
L 215.923147 163.056421 
L 231.361882 165.153719 
L 246.800618 164.575729 
L 262.239353 158.830248 
L 277.678088 159.692847 
L 293.116823 162.843578 
L 308.555558 164.731221 
L 323.994293 165.465561 
L 339.433029 165.524282 
L 354.871764 163.512547 
L 370.310499 164.434632 
L 385.749234 165.900584 
L 401.187969 165.855913 
L 416.626705 130.100739 
" style="fill:none;stroke:#1b9e77;stroke-linecap:square;stroke-opacity:0.5;stroke-width:1.5;"/>
   </g>
   <g id="line2d_22">
    <path clip-path="url(#pecf831830b)" d="M 61.535795 165.243168 
L 76.974531 165.33029 
L 92.413266 165.479236 
L 107.852001 165.186012 
L 123.290736 164.741231 
L 138.729471 165.702811 
L 154.168207 164.722929 
L 169.606942 157.991362 
L 185.045677 159.716745 
L 200.484412 159.171271 
L 215.923147 154.657207 
L 231.361882 157.470631 
L 246.800618 163.259375 
L 262.239353 14.76 
L 277.678088 149.036809 
L 293.116823 165.834791 
L 308.555558 165.915822 
L 323.994293 165.794334 
L 339.433029 165.333066 
L 354.871764 165.623935 
L 370.310499 165.787207 
L 385.749234 165.809855 
L 401.187969 165.8485 
L 416.626705 165.932996 
" style="fill:none;stroke:#1b9e77;stroke-linecap:square;stroke-opacity:0.5;stroke-width:1.5;"/>
   </g>
   <g id="line2d_23">
    <path clip-path="url(#pecf831830b)" d="M 61.535795 163.610151 
L 76.974531 161.709863 
L 92.413266 164.762212 
L 107.852001 164.918706 
L 123.290736 165.388751 
L 138.729471 165.458124 
L 154.168207 165.672696 
L 169.606942 165.800132 
L 185.045677 165.823467 
L 200.484412 165.874655 
L 215.923147 164.433593 
L 231.361882 157.533386 
L 246.800618 149.705469 
L 262.239353 158.267155 
L 277.678088 150.485677 
L 293.116823 118.78498 
L 308.555558 159.765079 
L 323.994293 143.801652 
L 339.433029 124.83485 
L 354.871764 140.290252 
L 370.310499 154.08951 
L 385.749234 161.498934 
L 401.187969 165.888467 
L 416.626705 165.951831 
" style="fill:none;stroke:#1b9e77;stroke-linecap:square;stroke-opacity:0.5;stroke-width:1.5;"/>
   </g>
   <g id="line2d_24">
    <path clip-path="url(#pecf831830b)" d="M 61.535795 164.355075 
L 76.974531 156.911614 
L 92.413266 143.586343 
L 107.852001 139.553116 
L 123.290736 144.075353 
L 138.729471 154.130964 
L 154.168207 155.923102 
L 169.606942 147.332104 
L 185.045677 144.845366 
L 200.484412 143.785933 
L 215.923147 143.766284 
L 231.361882 143.457401 
L 246.800618 163.883568 
L 262.239353 165.672094 
L 277.678088 165.856043 
L 293.116823 165.705391 
L 308.555558 165.701508 
L 323.994293 165.857857 
L 339.433029 165.899014 
L 354.871764 165.934181 
L 370.310499 165.865997 
L 385.749234 164.489477 
L 401.187969 163.027642 
L 416.626705 164.734161 
" style="fill:none;stroke:#1b9e77;stroke-linecap:square;stroke-opacity:0.5;stroke-width:1.5;"/>
   </g>
   <g id="line2d_25">
    <path clip-path="url(#pecf831830b)" d="M 61.535795 165.242041 
L 76.974531 162.116994 
L 92.413266 159.034478 
L 107.852001 155.596717 
L 123.290736 156.836044 
L 138.729471 147.112765 
L 154.168207 90.372069 
L 169.606942 112.413669 
L 185.045677 161.852286 
L 200.484412 164.589575 
L 215.923147 165.454001 
L 231.361882 165.657436 
L 246.800618 165.717851 
L 262.239353 165.800541 
L 277.678088 158.761321 
L 293.116823 157.37794 
L 308.555558 156.371179 
L 323.994293 165.082483 
L 339.433029 165.449381 
L 354.871764 164.535909 
L 370.310499 165.189521 
L 385.749234 161.90277 
L 401.187969 165.95719 
L 416.626705 165.925427 
" style="fill:none;stroke:#1b9e77;stroke-linecap:square;stroke-opacity:0.5;stroke-width:1.5;"/>
   </g>
   <g id="line2d_26">
    <path clip-path="url(#pecf831830b)" d="M 61.535795 121.017816 
L 76.974531 61.667275 
L 92.413266 159.303907 
L 107.852001 161.525857 
L 123.290736 163.069752 
L 138.729471 163.284681 
L 154.168207 164.127933 
L 169.606942 164.573899 
L 185.045677 165.22449 
L 200.484412 165.457734 
L 215.923147 165.630607 
L 231.361882 165.663891 
L 246.800618 165.80162 
L 262.239353 165.893063 
L 277.678088 165.87761 
L 293.116823 165.814635 
L 308.555558 155.812929 
L 323.994293 140.186463 
L 339.433029 162.178162 
L 354.871764 165.034265 
L 370.310499 163.903506 
L 385.749234 162.08621 
L 401.187969 165.295577 
L 416.626705 165.917707 
" style="fill:none;stroke:#1b9e77;stroke-linecap:square;stroke-opacity:0.5;stroke-width:1.5;"/>
   </g>
   <g id="line2d_27">
    <path clip-path="url(#pecf831830b)" d="M 61.535795 165.896376 
L 76.974531 165.806515 
L 92.413266 165.891032 
L 107.852001 165.893316 
L 123.290736 165.908458 
L 138.729471 165.932006 
L 154.168207 165.937741 
L 169.606942 165.393786 
L 185.045677 163.347982 
L 200.484412 162.077302 
L 215.923147 159.202009 
L 231.361882 160.432155 
L 246.800618 158.309637 
L 262.239353 157.524168 
L 277.678088 158.53462 
L 293.116823 160.116051 
L 308.555558 138.086604 
L 323.994293 75.580356 
L 339.433029 139.588289 
L 354.871764 142.332286 
L 370.310499 165.629302 
L 385.749234 165.035195 
L 401.187969 165.94171 
L 416.626705 165.952685 
" style="fill:none;stroke:#1b9e77;stroke-linecap:square;stroke-opacity:0.5;stroke-width:1.5;"/>
   </g>
   <g id="line2d_28">
    <path clip-path="url(#pecf831830b)" d="M 61.535795 163.668035 
L 76.974531 164.966702 
L 92.413266 165.625372 
L 107.852001 165.557615 
L 123.290736 165.578809 
L 138.729471 165.580034 
L 154.168207 165.452135 
L 169.606942 165.733076 
L 185.045677 165.727765 
L 200.484412 165.912868 
L 215.923147 165.36346 
L 231.361882 164.008639 
L 246.800618 163.073237 
L 262.239353 158.005621 
L 277.678088 145.878149 
L 293.116823 144.602892 
L 308.555558 154.83043 
L 323.994293 117.852805 
L 339.433029 98.197739 
L 354.871764 148.078238 
L 370.310499 161.320392 
L 385.749234 162.045188 
L 401.187969 162.224615 
L 416.626705 165.06577 
" style="fill:none;stroke:#1b9e77;stroke-linecap:square;stroke-opacity:0.5;stroke-width:1.5;"/>
   </g>
   <g id="line2d_29">
    <path clip-path="url(#pecf831830b)" d="M 61.535795 165.696769 
L 76.974531 165.792186 
L 92.413266 165.902989 
L 107.852001 165.929314 
L 123.290736 165.848962 
L 138.729471 165.362837 
L 154.168207 164.439668 
L 169.606942 164.117968 
L 185.045677 163.103799 
L 200.484412 161.521385 
L 215.923147 158.808485 
L 231.361882 161.026237 
L 246.800618 142.818109 
L 262.239353 82.721517 
L 277.678088 115.451215 
L 293.116823 149.714872 
L 308.555558 160.649074 
L 323.994293 162.958968 
L 339.433029 165.2928 
L 354.871764 165.487179 
L 370.310499 165.597126 
L 385.749234 165.651081 
L 401.187969 165.531587 
L 416.626705 154.925463 
" style="fill:none;stroke:#1b9e77;stroke-linecap:square;stroke-opacity:0.5;stroke-width:1.5;"/>
   </g>
   <g id="line2d_30">
    <path clip-path="url(#pecf831830b)" d="M 61.535795 144.072325 
L 76.974531 160.527241 
L 92.413266 162.340416 
L 107.852001 130.774903 
L 123.290736 123.204832 
L 138.729471 160.290447 
L 154.168207 164.803431 
L 169.606942 164.765739 
L 185.045677 164.355247 
L 200.484412 163.512108 
L 215.923147 163.799615 
L 231.361882 165.097885 
L 246.800618 165.295678 
L 262.239353 163.928485 
L 277.678088 108.838647 
L 293.116823 148.834018 
L 308.555558 161.80131 
L 323.994293 164.491489 
L 339.433029 164.756402 
L 354.871764 162.076957 
L 370.310499 160.235394 
L 385.749234 164.964454 
L 401.187969 165.674946 
L 416.626705 165.907621 
" style="fill:none;stroke:#1b9e77;stroke-linecap:square;stroke-opacity:0.5;stroke-width:1.5;"/>
   </g>
   <g id="line2d_31">
    <path clip-path="url(#pecf831830b)" d="M 61.535795 165.926726 
L 76.974531 165.916427 
L 92.413266 165.938935 
L 107.852001 165.947063 
L 123.290736 165.947825 
L 138.729471 165.958278 
L 154.168207 165.545053 
L 169.606942 165.020505 
L 185.045677 161.851822 
L 200.484412 157.960995 
L 215.923147 145.999861 
L 231.361882 138.278926 
L 246.800618 145.675745 
L 262.239353 160.498514 
L 277.678088 163.027959 
L 293.116823 150.112458 
L 308.555558 146.748657 
L 323.994293 160.043779 
L 339.433029 165.313133 
L 354.871764 165.648702 
L 370.310499 165.058388 
L 385.749234 145.503203 
L 401.187969 104.658489 
L 416.626705 161.768151 
" style="fill:none;stroke:#1b9e77;stroke-linecap:square;stroke-opacity:0.5;stroke-width:1.5;"/>
   </g>
   <g id="line2d_32">
    <path clip-path="url(#pecf831830b)" d="M 61.535795 162.188252 
L 76.974531 163.135461 
L 92.413266 164.86576 
L 107.852001 164.959254 
L 123.290736 165.337489 
L 138.729471 165.571814 
L 154.168207 165.662123 
L 169.606942 165.594676 
L 185.045677 165.519756 
L 200.484412 165.417011 
L 215.923147 165.335525 
L 231.361882 165.61328 
L 246.800618 165.619419 
L 262.239353 165.490626 
L 277.678088 156.201375 
L 293.116823 144.863344 
L 308.555558 84.702098 
L 323.994293 132.902157 
L 339.433029 144.354755 
L 354.871764 153.81164 
L 370.310499 159.728074 
L 385.749234 159.37486 
L 401.187969 155.269525 
L 416.626705 162.831316 
" style="fill:none;stroke:#1b9e77;stroke-linecap:square;stroke-opacity:0.5;stroke-width:1.5;"/>
   </g>
   <g id="line2d_33">
    <path clip-path="url(#pecf831830b)" d="M 61.535795 153.111003 
L 76.974531 157.859292 
L 92.413266 164.573953 
L 107.852001 164.168977 
L 123.290736 164.557467 
L 138.729471 164.717737 
L 154.168207 158.275933 
L 169.606942 152.799868 
L 185.045677 148.41203 
L 200.484412 158.932749 
L 215.923147 160.266174 
L 231.361882 149.963489 
L 246.800618 162.845298 
L 262.239353 165.308692 
L 277.678088 165.674093 
L 293.116823 165.719332 
L 308.555558 165.642676 
L 323.994293 165.496181 
L 339.433029 165.528104 
L 354.871764 165.810891 
L 370.310499 165.761494 
L 385.749234 164.830977 
L 401.187969 91.945138 
L 416.626705 122.148038 
" style="fill:none;stroke:#1b9e77;stroke-linecap:square;stroke-opacity:0.5;stroke-width:1.5;"/>
   </g>
   <g id="line2d_34">
    <path clip-path="url(#pecf831830b)" d="M 61.535795 165.272892 
L 76.974531 163.583059 
L 92.413266 160.955295 
L 107.852001 127.432216 
L 123.290736 134.358825 
L 138.729471 153.148212 
L 154.168207 158.590619 
L 169.606942 158.832573 
L 185.045677 163.661677 
L 200.484412 165.510893 
L 215.923147 164.834805 
L 231.361882 161.014922 
L 246.800618 158.016012 
L 262.239353 155.542411 
L 277.678088 147.978809 
L 293.116823 157.998145 
L 308.555558 151.397526 
L 323.994293 124.50125 
L 339.433029 164.659549 
L 354.871764 164.868039 
L 370.310499 164.893256 
L 385.749234 165.536597 
L 401.187969 165.82324 
L 416.626705 165.938764 
" style="fill:none;stroke:#1b9e77;stroke-linecap:square;stroke-opacity:0.5;stroke-width:1.5;"/>
   </g>
   <g id="line2d_35">
    <path clip-path="url(#pecf831830b)" d="M 61.535795 163.294867 
L 76.974531 143.358974 
L 92.413266 124.653279 
L 107.852001 138.020694 
L 123.290736 151.915883 
L 138.729471 151.579713 
L 154.168207 157.875651 
L 169.606942 154.096641 
L 185.045677 158.911365 
L 200.484412 160.055179 
L 215.923147 162.021901 
L 231.361882 161.336546 
L 246.800618 160.193305 
L 262.239353 146.586757 
L 277.678088 149.39242 
L 293.116823 160.86894 
L 308.555558 164.226549 
L 323.994293 164.492752 
L 339.433029 164.369478 
L 354.871764 164.361877 
L 370.310499 165.270479 
L 385.749234 165.753475 
L 401.187969 165.808127 
L 416.626705 165.904735 
" style="fill:none;stroke:#1b9e77;stroke-linecap:square;stroke-opacity:0.5;stroke-width:1.5;"/>
   </g>
   <g id="line2d_36">
    <path clip-path="url(#pecf831830b)" d="M 61.535795 160.637255 
L 76.974531 156.95814 
L 92.413266 149.61023 
L 107.852001 133.618798 
L 123.290736 154.56309 
L 138.729471 165.17157 
L 154.168207 164.790228 
L 169.606942 160.961981 
L 185.045677 148.904838 
L 200.484412 152.473915 
L 215.923147 164.275061 
L 231.361882 164.228871 
L 246.800618 164.774591 
L 262.239353 165.717543 
L 277.678088 165.309474 
L 293.116823 164.971467 
L 308.555558 158.814811 
L 323.994293 160.340216 
L 339.433029 158.70724 
L 354.871764 154.508315 
L 370.310499 152.938875 
L 385.749234 147.61179 
L 401.187969 136.299468 
L 416.626705 158.161819 
" style="fill:none;stroke:#1b9e77;stroke-linecap:square;stroke-opacity:0.5;stroke-width:1.5;"/>
   </g>
   <g id="line2d_37">
    <path clip-path="url(#pecf831830b)" d="M 61.535795 160.864755 
L 76.974531 150.896506 
L 92.413266 164.817722 
L 107.852001 163.144538 
L 123.290736 163.078232 
L 138.729471 159.446185 
L 154.168207 150.759813 
L 169.606942 165.215409 
L 185.045677 165.91273 
L 200.484412 165.896856 
L 215.923147 161.880802 
L 231.361882 135.141499 
L 246.800618 108.023365 
L 262.239353 163.018248 
L 277.678088 149.390493 
L 293.116823 159.705502 
L 308.555558 164.698467 
L 323.994293 162.074844 
L 339.433029 136.56443 
L 354.871764 160.082456 
L 370.310499 164.3673 
L 385.749234 157.827635 
L 401.187969 165.607105 
L 416.626705 165.9347 
" style="fill:none;stroke:#1b9e77;stroke-linecap:square;stroke-opacity:0.5;stroke-width:1.5;"/>
   </g>
   <g id="line2d_38">
    <path clip-path="url(#pecf831830b)" d="M 61.535795 162.452262 
L 76.974531 164.635481 
L 92.413266 165.477545 
L 107.852001 165.36491 
L 123.290736 165.575437 
L 138.729471 165.828183 
L 154.168207 165.905317 
L 169.606942 165.90531 
L 185.045677 165.898007 
L 200.484412 165.907002 
L 215.923147 165.630353 
L 231.361882 165.728481 
L 246.800618 165.816374 
L 262.239353 165.918278 
L 277.678088 165.269014 
L 293.116823 164.15828 
L 308.555558 115.07164 
L 323.994293 158.327674 
L 339.433029 91.746691 
L 354.871764 148.716677 
L 370.310499 160.922943 
L 385.749234 159.971634 
L 401.187969 139.911877 
L 416.626705 144.210208 
" style="fill:none;stroke:#1b9e77;stroke-linecap:square;stroke-opacity:0.5;stroke-width:1.5;"/>
   </g>
   <g id="line2d_39">
    <path clip-path="url(#pecf831830b)" d="M 61.535795 165.764009 
L 76.974531 165.028874 
L 92.413266 164.624307 
L 107.852001 161.911097 
L 123.290736 113.982575 
L 138.729471 100.548049 
L 154.168207 148.171446 
L 169.606942 150.919319 
L 185.045677 148.314428 
L 200.484412 164.615944 
L 215.923147 165.610501 
L 231.361882 163.211839 
L 246.800618 160.895841 
L 262.239353 162.487535 
L 277.678088 164.147645 
L 293.116823 165.228788 
L 308.555558 162.259857 
L 323.994293 156.8303 
L 339.433029 156.109515 
L 354.871764 163.324153 
L 370.310499 164.432385 
L 385.749234 164.624424 
L 401.187969 165.380513 
L 416.626705 165.92624 
" style="fill:none;stroke:#1b9e77;stroke-linecap:square;stroke-opacity:0.5;stroke-width:1.5;"/>
   </g>
   <g id="line2d_40">
    <path clip-path="url(#pecf831830b)" d="M 61.535795 165.928666 
L 76.974531 165.873332 
L 92.413266 165.590608 
L 107.852001 163.133347 
L 123.290736 158.344655 
L 138.729471 163.299942 
L 154.168207 160.814729 
L 169.606942 160.265314 
L 185.045677 162.001331 
L 200.484412 159.525869 
L 215.923147 139.643552 
L 231.361882 133.886887 
L 246.800618 150.25238 
L 262.239353 145.605722 
L 277.678088 134.296768 
L 293.116823 116.633921 
L 308.555558 160.209792 
L 323.994293 164.540062 
L 339.433029 165.414514 
L 354.871764 165.466157 
L 370.310499 165.827428 
L 385.749234 165.900617 
L 401.187969 165.937217 
L 416.626705 165.956774 
" style="fill:none;stroke:#1b9e77;stroke-linecap:square;stroke-opacity:0.5;stroke-width:1.5;"/>
   </g>
   <g id="line2d_41">
    <path clip-path="url(#pecf831830b)" d="M 61.535795 164.548811 
L 76.974531 165.375864 
L 92.413266 165.779846 
L 107.852001 165.842881 
L 123.290736 165.019909 
L 138.729471 155.096207 
L 154.168207 122.694211 
L 169.606942 149.470182 
L 185.045677 143.813835 
L 200.484412 139.044901 
L 215.923147 139.256448 
L 231.361882 134.078038 
L 246.800618 142.91947 
L 262.239353 155.194122 
L 277.678088 163.679596 
L 293.116823 165.343279 
L 308.555558 165.777862 
L 323.994293 165.840088 
L 339.433029 165.893826 
L 354.871764 165.903844 
L 370.310499 165.928769 
L 385.749234 165.940826 
L 401.187969 165.947998 
L 416.626705 165.958778 
" style="fill:none;stroke:#1b9e77;stroke-linecap:square;stroke-opacity:0.5;stroke-width:1.5;"/>
   </g>
   <g id="line2d_42">
    <path clip-path="url(#pecf831830b)" d="M 61.535795 163.471335 
L 76.974531 145.866502 
L 92.413266 163.718793 
L 107.852001 165.702663 
L 123.290736 165.735061 
L 138.729471 165.079971 
L 154.168207 136.844494 
L 169.606942 105.388107 
L 185.045677 128.44194 
L 200.484412 158.295248 
L 215.923147 159.895823 
L 231.361882 151.272759 
L 246.800618 156.306002 
L 262.239353 162.092644 
L 277.678088 163.655217 
L 293.116823 161.677954 
L 308.555558 161.46422 
L 323.994293 162.979033 
L 339.433029 164.231828 
L 354.871764 163.194738 
L 370.310499 162.949395 
L 385.749234 164.696507 
L 401.187969 165.481443 
L 416.626705 165.907907 
" style="fill:none;stroke:#1b9e77;stroke-linecap:square;stroke-opacity:0.5;stroke-width:1.5;"/>
   </g>
   <g id="line2d_43">
    <path clip-path="url(#pecf831830b)" d="M 61.535795 163.292025 
L 76.974531 165.495976 
L 92.413266 165.838173 
L 107.852001 165.9119 
L 123.290736 165.905346 
L 138.729471 160.506776 
L 154.168207 129.735193 
L 169.606942 163.261573 
L 185.045677 157.953503 
L 200.484412 143.563744 
L 215.923147 149.674251 
L 231.361882 114.979235 
L 246.800618 106.343338 
L 262.239353 158.177807 
L 277.678088 165.002415 
L 293.116823 164.790873 
L 308.555558 165.111282 
L 323.994293 165.26693 
L 339.433029 165.454529 
L 354.871764 165.414672 
L 370.310499 165.4339 
L 385.749234 165.578511 
L 401.187969 165.729336 
L 416.626705 165.928288 
" style="fill:none;stroke:#1b9e77;stroke-linecap:square;stroke-opacity:0.5;stroke-width:1.5;"/>
   </g>
   <g id="line2d_44">
    <path clip-path="url(#pecf831830b)" d="M 61.535795 162.155377 
L 76.974531 164.477805 
L 92.413266 165.60884 
L 107.852001 165.695253 
L 123.290736 165.724798 
L 138.729471 165.490554 
L 154.168207 164.239538 
L 169.606942 163.265181 
L 185.045677 164.219002 
L 200.484412 165.476628 
L 215.923147 165.620669 
L 231.361882 163.179125 
L 246.800618 164.149689 
L 262.239353 165.865944 
L 277.678088 165.926542 
L 293.116823 165.930186 
L 308.555558 165.80556 
L 323.994293 156.525369 
L 339.433029 148.411309 
L 354.871764 152.759833 
L 370.310499 152.873111 
L 385.749234 152.969961 
L 401.187969 87.230659 
L 416.626705 110.748649 
" style="fill:none;stroke:#1b9e77;stroke-linecap:square;stroke-opacity:0.5;stroke-width:1.5;"/>
   </g>
   <g id="line2d_45">
    <path clip-path="url(#pecf831830b)" d="M 61.535795 165.939837 
L 76.974531 165.895843 
L 92.413266 165.913889 
L 107.852001 165.928074 
L 123.290736 165.917903 
L 138.729471 165.949694 
L 154.168207 165.892311 
L 169.606942 165.013542 
L 185.045677 165.271593 
L 200.484412 163.43615 
L 215.923147 163.507458 
L 231.361882 161.594918 
L 246.800618 154.341262 
L 262.239353 141.439135 
L 277.678088 139.806303 
L 293.116823 144.211311 
L 308.555558 140.937966 
L 323.994293 138.777588 
L 339.433029 140.007938 
L 354.871764 150.10405 
L 370.310499 156.807157 
L 385.749234 158.2658 
L 401.187969 156.616503 
L 416.626705 162.773364 
" style="fill:none;stroke:#1b9e77;stroke-linecap:square;stroke-opacity:0.5;stroke-width:1.5;"/>
   </g>
   <g id="line2d_46">
    <path clip-path="url(#pecf831830b)" d="M 61.535795 165.337818 
L 76.974531 162.354573 
L 92.413266 156.322871 
L 107.852001 122.756959 
L 123.290736 118.823154 
L 138.729471 136.203518 
L 154.168207 157.388253 
L 169.606942 149.599794 
L 185.045677 144.164955 
L 200.484412 163.609345 
L 215.923147 164.695497 
L 231.361882 153.799955 
L 246.800618 152.130941 
L 262.239353 162.389984 
L 277.678088 165.389576 
L 293.116823 165.863551 
L 308.555558 165.01227 
L 323.994293 165.39982 
L 339.433029 165.285807 
L 354.871764 164.655497 
L 370.310499 165.545834 
L 385.749234 165.744713 
L 401.187969 165.915195 
L 416.626705 165.9597 
" style="fill:none;stroke:#1b9e77;stroke-linecap:square;stroke-opacity:0.5;stroke-width:1.5;"/>
   </g>
   <g id="line2d_47">
    <path clip-path="url(#pecf831830b)" d="M 61.535795 165.949201 
L 76.974531 165.917729 
L 92.413266 165.933817 
L 107.852001 165.938472 
L 123.290736 165.939286 
L 138.729471 165.949257 
L 154.168207 165.945878 
L 169.606942 165.517114 
L 185.045677 163.378952 
L 200.484412 162.492395 
L 215.923147 162.526507 
L 231.361882 160.172888 
L 246.800618 156.84475 
L 262.239353 154.568614 
L 277.678088 152.747071 
L 293.116823 151.394973 
L 308.555558 145.765339 
L 323.994293 139.503568 
L 339.433029 111.896711 
L 354.871764 143.282178 
L 370.310499 155.328652 
L 385.749234 157.482753 
L 401.187969 157.380657 
L 416.626705 162.492823 
" style="fill:none;stroke:#1b9e77;stroke-linecap:square;stroke-opacity:0.5;stroke-width:1.5;"/>
   </g>
   <g id="line2d_48">
    <path clip-path="url(#pecf831830b)" d="M 61.535795 159.989533 
L 76.974531 163.479696 
L 92.413266 164.569045 
L 107.852001 159.936412 
L 123.290736 158.604821 
L 138.729471 129.495089 
L 154.168207 151.240092 
L 169.606942 165.184784 
L 185.045677 165.373944 
L 200.484412 163.779026 
L 215.923147 163.710167 
L 231.361882 165.440047 
L 246.800618 165.50935 
L 262.239353 164.16759 
L 277.678088 149.164217 
L 293.116823 147.879838 
L 308.555558 155.767008 
L 323.994293 165.291688 
L 339.433029 145.610213 
L 354.871764 150.563524 
L 370.310499 139.529194 
L 385.749234 143.48738 
L 401.187969 164.279173 
L 416.626705 162.297755 
" style="fill:none;stroke:#1b9e77;stroke-linecap:square;stroke-opacity:0.5;stroke-width:1.5;"/>
   </g>
   <g id="line2d_49">
    <path clip-path="url(#pecf831830b)" d="M 61.535795 143.57717 
L 76.974531 93.930869 
L 92.413266 113.433147 
L 107.852001 140.38417 
L 123.290736 153.850886 
L 138.729471 157.353968 
L 154.168207 161.923448 
L 169.606942 163.503861 
L 185.045677 164.803763 
L 200.484412 165.523126 
L 215.923147 165.79102 
L 231.361882 165.725734 
L 246.800618 165.804949 
L 262.239353 165.916703 
L 277.678088 165.935613 
L 293.116823 165.944951 
L 308.555558 165.944956 
L 323.994293 165.653633 
L 339.433029 163.799182 
L 354.871764 163.768076 
L 370.310499 163.08084 
L 385.749234 162.69052 
L 401.187969 162.387663 
L 416.626705 163.62134 
" style="fill:none;stroke:#1b9e77;stroke-linecap:square;stroke-opacity:0.5;stroke-width:1.5;"/>
   </g>
   <g id="line2d_50">
    <path clip-path="url(#pecf831830b)" d="M 61.535795 165.81291 
L 76.974531 165.844319 
L 92.413266 165.906822 
L 107.852001 165.87592 
L 123.290736 165.797153 
L 138.729471 165.88945 
L 154.168207 165.924201 
L 169.606942 165.940475 
L 185.045677 165.938001 
L 200.484412 164.157978 
L 215.923147 153.194676 
L 231.361882 165.821148 
L 246.800618 165.684962 
L 262.239353 136.122877 
L 277.678088 102.142301 
L 293.116823 64.857909 
L 308.555558 164.695753 
L 323.994293 165.021917 
L 339.433029 164.939514 
L 354.871764 163.343053 
L 370.310499 164.948947 
L 385.749234 165.445015 
L 401.187969 165.473183 
L 416.626705 165.571108 
" style="fill:none;stroke:#1b9e77;stroke-linecap:square;stroke-opacity:0.5;stroke-width:1.5;"/>
   </g>
   <g id="line2d_51">
    <path clip-path="url(#pecf831830b)" d="M 61.535795 157.718604 
L 76.974531 161.283952 
L 92.413266 164.752847 
L 107.852001 164.805506 
L 123.290736 165.03122 
L 138.729471 165.120731 
L 154.168207 165.15581 
L 169.606942 165.205152 
L 185.045677 164.840544 
L 200.484412 164.364386 
L 215.923147 157.241845 
L 231.361882 144.642508 
L 246.800618 145.577937 
L 262.239353 154.271751 
L 277.678088 146.380871 
L 293.116823 157.86878 
L 308.555558 162.86247 
L 323.994293 162.745134 
L 339.433029 161.813005 
L 354.871764 160.732317 
L 370.310499 156.460238 
L 385.749234 143.181151 
L 401.187969 114.75359 
L 416.626705 157.539239 
" style="fill:none;stroke:#1b9e77;stroke-linecap:square;stroke-opacity:0.5;stroke-width:1.5;"/>
   </g>
   <g id="line2d_52">
    <path clip-path="url(#pecf831830b)" d="M 61.535795 165.251393 
L 76.974531 162.457737 
L 92.413266 160.39137 
L 107.852001 154.870514 
L 123.290736 144.299816 
L 138.729471 112.564505 
L 154.168207 104.615685 
L 169.606942 132.627693 
L 185.045677 152.389991 
L 200.484412 162.331067 
L 215.923147 164.830458 
L 231.361882 164.831988 
L 246.800618 165.428025 
L 262.239353 165.648668 
L 277.678088 165.761194 
L 293.116823 165.748154 
L 308.555558 165.811971 
L 323.994293 165.903733 
L 339.433029 165.903207 
L 354.871764 165.53166 
L 370.310499 161.050091 
L 385.749234 164.291698 
L 401.187969 165.883655 
L 416.626705 165.925318 
" style="fill:none;stroke:#1b9e77;stroke-linecap:square;stroke-opacity:0.5;stroke-width:1.5;"/>
   </g>
   <g id="line2d_53">
    <path clip-path="url(#pecf831830b)" d="M 61.535795 163.401958 
L 76.974531 130.418207 
L 92.413266 109.799638 
L 107.852001 152.389564 
L 123.290736 161.525413 
L 138.729471 155.782606 
L 154.168207 144.346455 
L 169.606942 144.355306 
L 185.045677 163.010813 
L 200.484412 165.812908 
L 215.923147 165.87904 
L 231.361882 146.514357 
L 246.800618 149.172381 
L 262.239353 164.869205 
L 277.678088 165.951899 
L 293.116823 165.956182 
L 308.555558 165.957869 
L 323.994293 165.938331 
L 339.433029 161.235889 
L 354.871764 165.957111 
L 370.310499 165.953981 
L 385.749234 163.138713 
L 401.187969 162.963557 
L 416.626705 164.018195 
" style="fill:none;stroke:#1b9e77;stroke-linecap:square;stroke-opacity:0.5;stroke-width:1.5;"/>
   </g>
   <g id="line2d_54">
    <path clip-path="url(#pecf831830b)" d="M 61.535795 165.851331 
L 76.974531 165.852505 
L 92.413266 165.761874 
L 107.852001 165.324609 
L 123.290736 163.5335 
L 138.729471 165.059833 
L 154.168207 153.222149 
L 169.606942 133.38306 
L 185.045677 27.446485 
L 200.484412 144.621298 
L 215.923147 164.566977 
L 231.361882 162.580983 
L 246.800618 165.113737 
L 262.239353 165.243892 
L 277.678088 165.559459 
L 293.116823 165.60725 
L 308.555558 165.615517 
L 323.994293 165.507284 
L 339.433029 165.427995 
L 354.871764 165.692386 
L 370.310499 165.781308 
L 385.749234 165.914033 
L 401.187969 165.95137 
L 416.626705 165.730749 
" style="fill:none;stroke:#1b9e77;stroke-linecap:square;stroke-opacity:0.5;stroke-width:1.5;"/>
   </g>
   <g id="line2d_55">
    <path clip-path="url(#pecf831830b)" d="M 61.535795 142.294679 
L 76.974531 165.467353 
L 92.413266 165.904025 
L 107.852001 165.002919 
L 123.290736 153.068534 
L 138.729471 139.980163 
L 154.168207 165.522753 
L 169.606942 165.789198 
L 185.045677 163.710766 
L 200.484412 151.662419 
L 215.923147 146.022945 
L 231.361882 142.33401 
L 246.800618 157.34202 
L 262.239353 135.999128 
L 277.678088 136.557057 
L 293.116823 157.957802 
L 308.555558 165.383074 
L 323.994293 165.370378 
L 339.433029 165.443497 
L 354.871764 165.650105 
L 370.310499 165.756463 
L 385.749234 165.916383 
L 401.187969 165.917295 
L 416.626705 150.296616 
" style="fill:none;stroke:#1b9e77;stroke-linecap:square;stroke-opacity:0.5;stroke-width:1.5;"/>
   </g>
   <g id="line2d_56">
    <path clip-path="url(#pecf831830b)" d="M 61.535795 111.712135 
L 76.974531 134.952085 
L 92.413266 153.365868 
L 107.852001 153.520557 
L 123.290736 155.382374 
L 138.729471 161.861807 
L 154.168207 164.032014 
L 169.606942 163.777791 
L 185.045677 163.891029 
L 200.484412 164.087278 
L 215.923147 164.28324 
L 231.361882 164.93746 
L 246.800618 165.23257 
L 262.239353 164.368982 
L 277.678088 160.812283 
L 293.116823 161.633593 
L 308.555558 158.195512 
L 323.994293 154.425059 
L 339.433029 152.663807 
L 354.871764 154.922857 
L 370.310499 154.748346 
L 385.749234 156.343378 
L 401.187969 160.007385 
L 416.626705 165.192173 
" style="fill:none;stroke:#1b9e77;stroke-linecap:square;stroke-opacity:0.5;stroke-width:1.5;"/>
   </g>
   <g id="line2d_57">
    <path clip-path="url(#pecf831830b)" d="M 61.535795 156.261731 
L 76.974531 162.652411 
L 92.413266 163.549177 
L 107.852001 162.162868 
L 123.290736 159.041742 
L 138.729471 144.629392 
L 154.168207 119.687749 
L 169.606942 128.218559 
L 185.045677 138.987142 
L 200.484412 142.769573 
L 215.923147 163.743062 
L 231.361882 165.379087 
L 246.800618 165.3118 
L 262.239353 161.55374 
L 277.678088 160.722948 
L 293.116823 163.595864 
L 308.555558 164.813518 
L 323.994293 165.260074 
L 339.433029 163.139408 
L 354.871764 158.882505 
L 370.310499 159.064665 
L 385.749234 163.246097 
L 401.187969 165.777586 
L 416.626705 165.898895 
" style="fill:none;stroke:#1b9e77;stroke-linecap:square;stroke-opacity:0.5;stroke-width:1.5;"/>
   </g>
   <g id="line2d_58">
    <path clip-path="url(#pecf831830b)" d="M 61.535795 160.382321 
L 76.974531 128.145406 
L 92.413266 131.976333 
L 107.852001 158.135149 
L 123.290736 165.121749 
L 138.729471 165.076804 
L 154.168207 148.145238 
L 169.606942 115.567924 
L 185.045677 153.517405 
L 200.484412 165.746539 
L 215.923147 165.884048 
L 231.361882 165.785058 
L 246.800618 165.651751 
L 262.239353 165.895969 
L 277.678088 165.924002 
L 293.116823 165.937109 
L 308.555558 165.92134 
L 323.994293 165.678877 
L 339.433029 157.88352 
L 354.871764 165.949012 
L 370.310499 164.484962 
L 385.749234 145.022429 
L 401.187969 152.066267 
L 416.626705 160.45037 
" style="fill:none;stroke:#1b9e77;stroke-linecap:square;stroke-opacity:0.5;stroke-width:1.5;"/>
   </g>
   <g id="line2d_59">
    <path clip-path="url(#pecf831830b)" d="M 61.535795 165.929182 
L 76.974531 165.888913 
L 92.413266 165.359231 
L 107.852001 162.347122 
L 123.290736 165.123927 
L 138.729471 165.927193 
L 154.168207 165.864201 
L 169.606942 134.544197 
L 185.045677 158.237792 
L 200.484412 159.194964 
L 215.923147 131.255792 
L 231.361882 150.357492 
L 246.800618 154.22247 
L 262.239353 155.500206 
L 277.678088 157.297394 
L 293.116823 132.874563 
L 308.555558 140.575272 
L 323.994293 157.36414 
L 339.433029 159.696297 
L 354.871764 157.884961 
L 370.310499 162.10213 
L 385.749234 165.151198 
L 401.187969 165.724304 
L 416.626705 165.92664 
" style="fill:none;stroke:#1b9e77;stroke-linecap:square;stroke-opacity:0.5;stroke-width:1.5;"/>
   </g>
   <g id="line2d_60">
    <path clip-path="url(#pecf831830b)" d="M 61.535795 164.861663 
L 76.974531 158.095948 
L 92.413266 145.866601 
L 107.852001 135.054943 
L 123.290736 114.724612 
L 138.729471 153.891993 
L 154.168207 160.704459 
L 169.606942 162.255955 
L 185.045677 162.959556 
L 200.484412 162.304922 
L 215.923147 160.857408 
L 231.361882 160.185636 
L 246.800618 161.493492 
L 262.239353 155.229953 
L 277.678088 138.910712 
L 293.116823 147.707982 
L 308.555558 163.977605 
L 323.994293 165.672966 
L 339.433029 165.88581 
L 354.871764 165.91735 
L 370.310499 165.913515 
L 385.749234 165.902433 
L 401.187969 162.805902 
L 416.626705 163.168171 
" style="fill:none;stroke:#1b9e77;stroke-linecap:square;stroke-opacity:0.5;stroke-width:1.5;"/>
   </g>
   <g id="line2d_61">
    <path clip-path="url(#pecf831830b)" d="M 61.535795 160.594003 
L 76.974531 165.311726 
L 92.413266 165.86299 
L 107.852001 165.873698 
L 123.290736 165.912607 
L 138.729471 165.923648 
L 154.168207 165.928703 
L 169.606942 165.942192 
L 185.045677 165.893565 
L 200.484412 165.564222 
L 215.923147 162.578617 
L 231.361882 162.240374 
L 246.800618 137.419811 
L 262.239353 151.154008 
L 277.678088 158.410233 
L 293.116823 143.719013 
L 308.555558 115.424599 
L 323.994293 136.939584 
L 339.433029 164.814011 
L 354.871764 165.700141 
L 370.310499 165.479154 
L 385.749234 146.270593 
L 401.187969 151.65936 
L 416.626705 149.732731 
" style="fill:none;stroke:#1b9e77;stroke-linecap:square;stroke-opacity:0.5;stroke-width:1.5;"/>
   </g>
   <g id="line2d_62">
    <path clip-path="url(#pecf831830b)" d="M 61.535795 162.218931 
L 76.974531 165.797968 
L 92.413266 165.581574 
L 107.852001 165.079018 
L 123.290736 164.426492 
L 138.729471 164.641935 
L 154.168207 164.409192 
L 169.606942 163.762761 
L 185.045677 156.588545 
L 200.484412 162.93596 
L 215.923147 164.943554 
L 231.361882 164.68219 
L 246.800618 162.387796 
L 262.239353 158.325527 
L 277.678088 159.863638 
L 293.116823 152.799391 
L 308.555558 158.834639 
L 323.994293 144.51064 
L 339.433029 96.613809 
L 354.871764 154.946206 
L 370.310499 158.888816 
L 385.749234 149.378788 
L 401.187969 147.535607 
L 416.626705 155.196607 
" style="fill:none;stroke:#1b9e77;stroke-linecap:square;stroke-opacity:0.5;stroke-width:1.5;"/>
   </g>
   <g id="line2d_63">
    <path clip-path="url(#pecf831830b)" d="M 61.535795 165.95339 
L 76.974531 165.858127 
L 92.413266 165.70161 
L 107.852001 163.319199 
L 123.290736 86.512022 
L 138.729471 156.361334 
L 154.168207 164.023663 
L 169.606942 164.060936 
L 185.045677 164.309491 
L 200.484412 163.921276 
L 215.923147 162.589243 
L 231.361882 161.97819 
L 246.800618 163.139584 
L 262.239353 161.896233 
L 277.678088 159.598673 
L 293.116823 162.729803 
L 308.555558 153.882453 
L 323.994293 99.637679 
L 339.433029 152.257666 
L 354.871764 163.751205 
L 370.310499 165.508436 
L 385.749234 165.611717 
L 401.187969 165.806313 
L 416.626705 165.941341 
" style="fill:none;stroke:#1b9e77;stroke-linecap:square;stroke-opacity:0.5;stroke-width:1.5;"/>
   </g>
   <g id="line2d_64">
    <path clip-path="url(#pecf831830b)" d="M 61.535795 162.340118 
L 76.974531 164.595827 
L 92.413266 165.557358 
L 107.852001 165.536724 
L 123.290736 165.685232 
L 138.729471 165.777949 
L 154.168207 165.847275 
L 169.606942 165.873535 
L 185.045677 165.909352 
L 200.484412 165.931007 
L 215.923147 165.934424 
L 231.361882 165.935746 
L 246.800618 165.930039 
L 262.239353 165.953593 
L 277.678088 165.952006 
L 293.116823 160.397566 
L 308.555558 158.876038 
L 323.994293 155.713905 
L 339.433029 145.795442 
L 354.871764 137.93528 
L 370.310499 137.940413 
L 385.749234 127.975232 
L 401.187969 103.325417 
L 416.626705 153.630107 
" style="fill:none;stroke:#1b9e77;stroke-linecap:square;stroke-opacity:0.5;stroke-width:1.5;"/>
   </g>
   <g id="line2d_65">
    <path clip-path="url(#pecf831830b)" d="M 61.535795 152.513867 
L 76.974531 151.29258 
L 92.413266 164.432879 
L 107.852001 164.766702 
L 123.290736 165.162688 
L 138.729471 164.908598 
L 154.168207 164.490257 
L 169.606942 164.646805 
L 185.045677 164.880752 
L 200.484412 165.238613 
L 215.923147 165.31128 
L 231.361882 165.343278 
L 246.800618 163.249319 
L 262.239353 144.878814 
L 277.678088 143.066889 
L 293.116823 161.187142 
L 308.555558 156.061149 
L 323.994293 135.041979 
L 339.433029 132.705974 
L 354.871764 138.333374 
L 370.310499 145.773189 
L 385.749234 160.501471 
L 401.187969 164.741047 
L 416.626705 165.820939 
" style="fill:none;stroke:#1b9e77;stroke-linecap:square;stroke-opacity:0.5;stroke-width:1.5;"/>
   </g>
   <g id="line2d_66">
    <path clip-path="url(#pecf831830b)" d="M 61.535795 86.084032 
L 76.974531 139.083894 
L 92.413266 158.51531 
L 107.852001 133.779758 
L 123.290736 133.821045 
L 138.729471 157.59013 
L 154.168207 164.290452 
L 169.606942 164.793114 
L 185.045677 165.144566 
L 200.484412 165.310977 
L 215.923147 165.619201 
L 231.361882 165.736911 
L 246.800618 165.839635 
L 262.239353 165.863271 
L 277.678088 165.873038 
L 293.116823 165.879574 
L 308.555558 165.865708 
L 323.994293 165.672565 
L 339.433029 153.224653 
L 354.871764 165.059716 
L 370.310499 164.569344 
L 385.749234 161.598319 
L 401.187969 159.922424 
L 416.626705 165.21195 
" style="fill:none;stroke:#1b9e77;stroke-linecap:square;stroke-opacity:0.5;stroke-width:1.5;"/>
   </g>
   <g id="line2d_67">
    <path clip-path="url(#pecf831830b)" d="M 61.535795 165.460829 
L 76.974531 165.544252 
L 92.413266 165.781876 
L 107.852001 165.844885 
L 123.290736 165.853872 
L 138.729471 165.714514 
L 154.168207 163.506533 
L 169.606942 162.654059 
L 185.045677 161.9679 
L 200.484412 162.282992 
L 215.923147 162.048181 
L 231.361882 159.39528 
L 246.800618 156.627393 
L 262.239353 153.354039 
L 277.678088 145.185128 
L 293.116823 154.863929 
L 308.555558 158.175013 
L 323.994293 88.231438 
L 339.433029 136.910171 
L 354.871764 149.710215 
L 370.310499 158.231728 
L 385.749234 165.190862 
L 401.187969 165.870299 
L 416.626705 165.9442 
" style="fill:none;stroke:#1b9e77;stroke-linecap:square;stroke-opacity:0.5;stroke-width:1.5;"/>
   </g>
   <g id="line2d_68">
    <path clip-path="url(#pecf831830b)" d="M 61.535795 164.25488 
L 76.974531 158.712084 
L 92.413266 153.15659 
L 107.852001 151.391086 
L 123.290736 155.30949 
L 138.729471 157.031074 
L 154.168207 158.115143 
L 169.606942 123.208313 
L 185.045677 121.950231 
L 200.484412 140.845345 
L 215.923147 149.247069 
L 231.361882 152.141122 
L 246.800618 158.929619 
L 262.239353 165.585711 
L 277.678088 165.941853 
L 293.116823 165.833536 
L 308.555558 165.795832 
L 323.994293 165.613613 
L 339.433029 165.481835 
L 354.871764 165.320929 
L 370.310499 165.230812 
L 385.749234 164.911542 
L 401.187969 164.917693 
L 416.626705 165.424181 
" style="fill:none;stroke:#1b9e77;stroke-linecap:square;stroke-opacity:0.5;stroke-width:1.5;"/>
   </g>
   <g id="line2d_69">
    <path clip-path="url(#pecf831830b)" d="M 61.535795 162.961858 
L 76.974531 164.442758 
L 92.413266 165.682314 
L 107.852001 165.634591 
L 123.290736 165.724571 
L 138.729471 165.73787 
L 154.168207 165.801138 
L 169.606942 165.867227 
L 185.045677 165.88812 
L 200.484412 165.833949 
L 215.923147 164.653506 
L 231.361882 165.109872 
L 246.800618 165.473857 
L 262.239353 165.399331 
L 277.678088 155.364906 
L 293.116823 157.34585 
L 308.555558 153.099588 
L 323.994293 132.852426 
L 339.433029 112.383532 
L 354.871764 128.050052 
L 370.310499 156.167847 
L 385.749234 144.930369 
L 401.187969 146.61385 
L 416.626705 163.3302 
" style="fill:none;stroke:#1b9e77;stroke-linecap:square;stroke-opacity:0.5;stroke-width:1.5;"/>
   </g>
   <g id="line2d_70">
    <path clip-path="url(#pecf831830b)" d="M 61.535795 149.591622 
L 76.974531 155.077986 
L 92.413266 164.082985 
L 107.852001 163.776005 
L 123.290736 156.385872 
L 138.729471 96.602877 
L 154.168207 116.918137 
L 169.606942 163.651537 
L 185.045677 165.042867 
L 200.484412 163.68879 
L 215.923147 147.449788 
L 231.361882 160.271547 
L 246.800618 165.337012 
L 262.239353 165.630994 
L 277.678088 165.775539 
L 293.116823 165.495113 
L 308.555558 165.207735 
L 323.994293 165.546161 
L 339.433029 165.760398 
L 354.871764 165.812586 
L 370.310499 165.749297 
L 385.749234 164.687967 
L 401.187969 141.555048 
L 416.626705 165.251715 
" style="fill:none;stroke:#1b9e77;stroke-linecap:square;stroke-opacity:0.5;stroke-width:1.5;"/>
   </g>
   <g id="line2d_71">
    <path clip-path="url(#pecf831830b)" d="M 61.535795 153.135246 
L 76.974531 161.096909 
L 92.413266 164.741599 
L 107.852001 164.641197 
L 123.290736 164.880165 
L 138.729471 165.047233 
L 154.168207 165.185771 
L 169.606942 165.352374 
L 185.045677 165.298791 
L 200.484412 165.048894 
L 215.923147 162.992319 
L 231.361882 159.436052 
L 246.800618 162.259553 
L 262.239353 164.890333 
L 277.678088 165.393962 
L 293.116823 165.282833 
L 308.555558 165.378202 
L 323.994293 165.515436 
L 339.433029 165.613222 
L 354.871764 165.887587 
L 370.310499 165.854981 
L 385.749234 136.884739 
L 401.187969 73.725044 
L 416.626705 110.807148 
" style="fill:none;stroke:#1b9e77;stroke-linecap:square;stroke-opacity:0.5;stroke-width:1.5;"/>
   </g>
   <g id="line2d_72">
    <path clip-path="url(#pecf831830b)" d="M 61.535795 165.641996 
L 76.974531 165.574233 
L 92.413266 165.744162 
L 107.852001 165.733965 
L 123.290736 165.806554 
L 138.729471 165.87401 
L 154.168207 165.863889 
L 169.606942 165.774525 
L 185.045677 165.68084 
L 200.484412 165.660904 
L 215.923147 165.575299 
L 231.361882 165.269369 
L 246.800618 162.019669 
L 262.239353 154.570299 
L 277.678088 153.912918 
L 293.116823 154.016104 
L 308.555558 116.020074 
L 323.994293 91.137274 
L 339.433029 159.179625 
L 354.871764 130.02773 
L 370.310499 157.565095 
L 385.749234 165.806522 
L 401.187969 165.938977 
L 416.626705 165.955547 
" style="fill:none;stroke:#1b9e77;stroke-linecap:square;stroke-opacity:0.5;stroke-width:1.5;"/>
   </g>
   <g id="line2d_73">
    <path clip-path="url(#pecf831830b)" d="M 61.535795 165.900349 
L 76.974531 165.821623 
L 92.413266 165.873437 
L 107.852001 165.892139 
L 123.290736 165.899484 
L 138.729471 165.946787 
L 154.168207 165.951912 
L 169.606942 165.622503 
L 185.045677 162.342229 
L 200.484412 162.514456 
L 215.923147 155.588337 
L 231.361882 158.092054 
L 246.800618 158.699615 
L 262.239353 157.016659 
L 277.678088 151.449344 
L 293.116823 149.621734 
L 308.555558 147.516703 
L 323.994293 143.815193 
L 339.433029 140.979556 
L 354.871764 128.114629 
L 370.310499 136.248462 
L 385.749234 155.450409 
L 401.187969 165.029858 
L 416.626705 164.962118 
" style="fill:none;stroke:#1b9e77;stroke-linecap:square;stroke-opacity:0.5;stroke-width:1.5;"/>
   </g>
   <g id="line2d_74">
    <path clip-path="url(#pecf831830b)" d="M 61.535795 165.724463 
L 76.974531 163.805081 
L 92.413266 160.38439 
L 107.852001 158.181741 
L 123.290736 131.629647 
L 138.729471 146.366039 
L 154.168207 139.52946 
L 169.606942 132.214644 
L 185.045677 127.145525 
L 200.484412 127.794506 
L 215.923147 159.618371 
L 231.361882 163.206644 
L 246.800618 164.314482 
L 262.239353 165.440695 
L 277.678088 165.81385 
L 293.116823 165.857089 
L 308.555558 165.893612 
L 323.994293 165.887193 
L 339.433029 165.894943 
L 354.871764 165.906526 
L 370.310499 165.919135 
L 385.749234 165.929335 
L 401.187969 165.937327 
L 416.626705 165.954886 
" style="fill:none;stroke:#1b9e77;stroke-linecap:square;stroke-opacity:0.5;stroke-width:1.5;"/>
   </g>
   <g id="line2d_75">
    <path clip-path="url(#pecf831830b)" d="M 61.535795 165.93769 
L 76.974531 165.868658 
L 92.413266 165.893507 
L 107.852001 165.895792 
L 123.290736 165.898636 
L 138.729471 165.914619 
L 154.168207 165.921017 
L 169.606942 165.917655 
L 185.045677 165.892415 
L 200.484412 165.913173 
L 215.923147 165.588599 
L 231.361882 165.872042 
L 246.800618 165.52534 
L 262.239353 163.279084 
L 277.678088 162.736271 
L 293.116823 159.281882 
L 308.555558 140.465839 
L 323.994293 106.237041 
L 339.433029 114.430262 
L 354.871764 145.53735 
L 370.310499 131.917364 
L 385.749234 153.060178 
L 401.187969 165.629624 
L 416.626705 165.735547 
" style="fill:none;stroke:#1b9e77;stroke-linecap:square;stroke-opacity:0.5;stroke-width:1.5;"/>
   </g>
   <g id="line2d_76">
    <path clip-path="url(#pecf831830b)" d="M 61.535795 163.760375 
L 76.974531 165.444302 
L 92.413266 165.805817 
L 107.852001 165.860888 
L 123.290736 165.860666 
L 138.729471 165.686992 
L 154.168207 158.709343 
L 169.606942 162.423399 
L 185.045677 165.344251 
L 200.484412 165.031368 
L 215.923147 164.634999 
L 231.361882 163.231462 
L 246.800618 160.649808 
L 262.239353 157.606716 
L 277.678088 153.089288 
L 293.116823 155.90339 
L 308.555558 159.548956 
L 323.994293 114.144405 
L 339.433029 81.014564 
L 354.871764 162.219573 
L 370.310499 165.416032 
L 385.749234 161.276893 
L 401.187969 162.736015 
L 416.626705 158.950078 
" style="fill:none;stroke:#1b9e77;stroke-linecap:square;stroke-opacity:0.5;stroke-width:1.5;"/>
   </g>
   <g id="line2d_77">
    <path clip-path="url(#pecf831830b)" d="M 61.535795 158.016213 
L 76.974531 161.57899 
L 92.413266 164.275585 
L 107.852001 164.478251 
L 123.290736 163.924823 
L 138.729471 159.623695 
L 154.168207 144.640684 
L 169.606942 149.633352 
L 185.045677 142.191087 
L 200.484412 152.496877 
L 215.923147 133.041027 
L 231.361882 100.492577 
L 246.800618 145.081889 
L 262.239353 165.484668 
L 277.678088 165.90189 
L 293.116823 165.892248 
L 308.555558 165.932557 
L 323.994293 165.942815 
L 339.433029 165.945364 
L 354.871764 165.949497 
L 370.310499 165.952663 
L 385.749234 165.955309 
L 401.187969 165.957519 
L 416.626705 165.96 
" style="fill:none;stroke:#1b9e77;stroke-linecap:square;stroke-opacity:0.5;stroke-width:1.5;"/>
   </g>
   <g id="line2d_78">
    <path clip-path="url(#pecf831830b)" d="M 61.535795 165.530883 
L 76.974531 165.622434 
L 92.413266 165.800834 
L 107.852001 165.808384 
L 123.290736 165.823183 
L 138.729471 165.792974 
L 154.168207 165.622343 
L 169.606942 165.779733 
L 185.045677 162.524758 
L 200.484412 154.137216 
L 215.923147 160.289527 
L 231.361882 153.804356 
L 246.800618 98.50183 
L 262.239353 151.59668 
L 277.678088 160.304071 
L 293.116823 131.46209 
L 308.555558 137.655163 
L 323.994293 164.183145 
L 339.433029 165.778316 
L 354.871764 165.789604 
L 370.310499 163.077536 
L 385.749234 156.078426 
L 401.187969 147.871029 
L 416.626705 165.515069 
" style="fill:none;stroke:#1b9e77;stroke-linecap:square;stroke-opacity:0.5;stroke-width:1.5;"/>
   </g>
   <g id="line2d_79">
    <path clip-path="url(#pecf831830b)" d="M 61.535795 164.545642 
L 76.974531 156.508652 
L 92.413266 165.368345 
L 107.852001 165.858974 
L 123.290736 165.858405 
L 138.729471 160.662687 
L 154.168207 151.705665 
L 169.606942 153.943047 
L 185.045677 155.779367 
L 200.484412 163.234221 
L 215.923147 161.970212 
L 231.361882 161.624986 
L 246.800618 154.275701 
L 262.239353 164.396293 
L 277.678088 161.016014 
L 293.116823 161.588063 
L 308.555558 164.294079 
L 323.994293 163.698963 
L 339.433029 160.640124 
L 354.871764 158.00196 
L 370.310499 161.260939 
L 385.749234 161.411362 
L 401.187969 132.238682 
L 416.626705 94.467207 
" style="fill:none;stroke:#1b9e77;stroke-linecap:square;stroke-opacity:0.5;stroke-width:1.5;"/>
   </g>
   <g id="line2d_80">
    <path clip-path="url(#pecf831830b)" d="M 61.535795 165.822573 
L 76.974531 165.756607 
L 92.413266 165.72342 
L 107.852001 165.837027 
L 123.290736 165.859967 
L 138.729471 165.882143 
L 154.168207 164.343672 
L 169.606942 148.593413 
L 185.045677 138.029774 
L 200.484412 138.69529 
L 215.923147 155.126942 
L 231.361882 158.043024 
L 246.800618 156.748907 
L 262.239353 155.433664 
L 277.678088 155.662324 
L 293.116823 162.49645 
L 308.555558 152.557063 
L 323.994293 147.890058 
L 339.433029 161.955387 
L 354.871764 161.317415 
L 370.310499 162.287159 
L 385.749234 162.158481 
L 401.187969 142.014857 
L 416.626705 146.11397 
" style="fill:none;stroke:#1b9e77;stroke-linecap:square;stroke-opacity:0.5;stroke-width:1.5;"/>
   </g>
   <g id="line2d_81">
    <path clip-path="url(#pecf831830b)" d="M 61.535795 163.228788 
L 76.974531 147.270686 
L 92.413266 142.795537 
L 107.852001 152.628573 
L 123.290736 144.09198 
L 138.729471 155.376983 
L 154.168207 140.766834 
L 169.606942 155.718462 
L 185.045677 150.876443 
L 200.484412 160.712179 
L 215.923147 161.523403 
L 231.361882 161.990917 
L 246.800618 165.201908 
L 262.239353 157.019359 
L 277.678088 143.801469 
L 293.116823 165.329366 
L 308.555558 165.639819 
L 323.994293 156.225028 
L 339.433029 145.160358 
L 354.871764 165.471531 
L 370.310499 165.916886 
L 385.749234 165.922138 
L 401.187969 165.923457 
L 416.626705 165.75748 
" style="fill:none;stroke:#1b9e77;stroke-linecap:square;stroke-opacity:0.5;stroke-width:1.5;"/>
   </g>
   <g id="line2d_82">
    <path clip-path="url(#pecf831830b)" d="M 61.535795 148.956346 
L 76.974531 106.717126 
L 92.413266 158.955728 
L 107.852001 164.091312 
L 123.290736 164.138404 
L 138.729471 149.100616 
L 154.168207 118.399966 
L 169.606942 131.385297 
L 185.045677 154.95926 
L 200.484412 164.427548 
L 215.923147 165.397647 
L 231.361882 163.889282 
L 246.800618 165.115142 
L 262.239353 165.851373 
L 277.678088 165.934795 
L 293.116823 165.934735 
L 308.555558 165.943495 
L 323.994293 165.948586 
L 339.433029 165.948258 
L 354.871764 165.899946 
L 370.310499 165.113231 
L 385.749234 161.076433 
L 401.187969 157.974046 
L 416.626705 163.191013 
" style="fill:none;stroke:#1b9e77;stroke-linecap:square;stroke-opacity:0.5;stroke-width:1.5;"/>
   </g>
   <g id="line2d_83">
    <path clip-path="url(#pecf831830b)" d="M 61.535795 165.911964 
L 76.974531 165.918855 
L 92.413266 164.664232 
L 107.852001 158.45373 
L 123.290736 162.9481 
L 138.729471 165.779512 
L 154.168207 163.7958 
L 169.606942 126.110407 
L 185.045677 128.59016 
L 200.484412 65.21389 
L 215.923147 156.777362 
L 231.361882 163.391429 
L 246.800618 162.971131 
L 262.239353 158.469472 
L 277.678088 163.665552 
L 293.116823 165.159202 
L 308.555558 165.552356 
L 323.994293 165.674667 
L 339.433029 165.81839 
L 354.871764 165.818986 
L 370.310499 165.870582 
L 385.749234 165.908422 
L 401.187969 165.928729 
L 416.626705 165.956654 
" style="fill:none;stroke:#1b9e77;stroke-linecap:square;stroke-opacity:0.5;stroke-width:1.5;"/>
   </g>
   <g id="line2d_84">
    <path clip-path="url(#pecf831830b)" d="M 61.535795 153.053141 
L 76.974531 161.732544 
L 92.413266 165.108418 
L 107.852001 164.694863 
L 123.290736 165.061833 
L 138.729471 165.395958 
L 154.168207 165.621887 
L 169.606942 165.687483 
L 185.045677 165.72131 
L 200.484412 165.650674 
L 215.923147 165.553439 
L 231.361882 165.681061 
L 246.800618 165.680655 
L 262.239353 165.816645 
L 277.678088 165.511452 
L 293.116823 162.858742 
L 308.555558 152.513017 
L 323.994293 154.681643 
L 339.433029 158.511395 
L 354.871764 119.023387 
L 370.310499 125.75561 
L 385.749234 144.154484 
L 401.187969 132.786399 
L 416.626705 148.093535 
" style="fill:none;stroke:#1b9e77;stroke-linecap:square;stroke-opacity:0.5;stroke-width:1.5;"/>
   </g>
   <g id="line2d_85">
    <path clip-path="url(#pecf831830b)" d="M 61.535795 162.579261 
L 76.974531 131.414928 
L 92.413266 136.986349 
L 107.852001 159.065875 
L 123.290736 161.506902 
L 138.729471 139.058062 
L 154.168207 135.914903 
L 169.606942 148.016381 
L 185.045677 160.421937 
L 200.484412 163.68698 
L 215.923147 164.790707 
L 231.361882 164.746783 
L 246.800618 165.310192 
L 262.239353 165.661553 
L 277.678088 165.806942 
L 293.116823 165.76462 
L 308.555558 165.797168 
L 323.994293 165.900354 
L 339.433029 165.933029 
L 354.871764 165.91932 
L 370.310499 163.907586 
L 385.749234 146.269569 
L 401.187969 136.970835 
L 416.626705 162.919347 
" style="fill:none;stroke:#1b9e77;stroke-linecap:square;stroke-opacity:0.5;stroke-width:1.5;"/>
   </g>
   <g id="line2d_86">
    <path clip-path="url(#pecf831830b)" d="M 61.535795 162.713164 
L 76.974531 144.038396 
L 92.413266 117.29728 
L 107.852001 126.396502 
L 123.290736 139.792349 
L 138.729471 146.907149 
L 154.168207 163.665864 
L 169.606942 165.204959 
L 185.045677 165.575171 
L 200.484412 165.645025 
L 215.923147 165.719138 
L 231.361882 165.874602 
L 246.800618 164.032337 
L 262.239353 164.039143 
L 277.678088 164.536832 
L 293.116823 162.422381 
L 308.555558 161.003832 
L 323.994293 159.154619 
L 339.433029 162.104884 
L 354.871764 157.42907 
L 370.310499 145.065183 
L 385.749234 165.740793 
L 401.187969 165.941481 
L 416.626705 164.04944 
" style="fill:none;stroke:#1b9e77;stroke-linecap:square;stroke-opacity:0.5;stroke-width:1.5;"/>
   </g>
   <g id="line2d_87">
    <path clip-path="url(#pecf831830b)" d="M 61.535795 157.355806 
L 76.974531 160.637403 
L 92.413266 165.126323 
L 107.852001 165.033401 
L 123.290736 165.492276 
L 138.729471 165.746825 
L 154.168207 165.847711 
L 169.606942 165.871329 
L 185.045677 165.888328 
L 200.484412 165.797428 
L 215.923147 164.921085 
L 231.361882 165.777599 
L 246.800618 165.181604 
L 262.239353 138.999608 
L 277.678088 97.263547 
L 293.116823 124.062175 
L 308.555558 146.845496 
L 323.994293 160.846972 
L 339.433029 161.332293 
L 354.871764 152.823166 
L 370.310499 153.701729 
L 385.749234 160.886458 
L 401.187969 163.707819 
L 416.626705 165.203202 
" style="fill:none;stroke:#1b9e77;stroke-linecap:square;stroke-opacity:0.5;stroke-width:1.5;"/>
   </g>
   <g id="line2d_88">
    <path clip-path="url(#pecf831830b)" d="M 61.535795 162.696416 
L 76.974531 142.847713 
L 92.413266 160.454465 
L 107.852001 165.634853 
L 123.290736 165.578931 
L 138.729471 147.525348 
L 154.168207 139.969031 
L 169.606942 160.433019 
L 185.045677 162.47659 
L 200.484412 161.156954 
L 215.923147 151.300849 
L 231.361882 126.219039 
L 246.800618 144.724339 
L 262.239353 165.649721 
L 277.678088 165.827412 
L 293.116823 152.866218 
L 308.555558 143.144088 
L 323.994293 163.088176 
L 339.433029 165.87212 
L 354.871764 165.930135 
L 370.310499 164.200705 
L 385.749234 163.872286 
L 401.187969 157.508518 
L 416.626705 165.372661 
" style="fill:none;stroke:#1b9e77;stroke-linecap:square;stroke-opacity:0.5;stroke-width:1.5;"/>
   </g>
   <g id="line2d_89">
    <path clip-path="url(#pecf831830b)" d="M 61.535795 159.730633 
L 76.974531 164.33362 
L 92.413266 165.605646 
L 107.852001 165.561796 
L 123.290736 165.595616 
L 138.729471 165.570737 
L 154.168207 165.675162 
L 169.606942 165.825174 
L 185.045677 165.876521 
L 200.484412 165.790715 
L 215.923147 165.131179 
L 231.361882 165.605595 
L 246.800618 165.786918 
L 262.239353 165.822165 
L 277.678088 165.699459 
L 293.116823 160.119904 
L 308.555558 134.167862 
L 323.994293 165.33663 
L 339.433029 165.511051 
L 354.871764 111.504579 
L 370.310499 141.226983 
L 385.749234 151.026613 
L 401.187969 107.704328 
L 416.626705 150.140698 
" style="fill:none;stroke:#1b9e77;stroke-linecap:square;stroke-opacity:0.5;stroke-width:1.5;"/>
   </g>
   <g id="line2d_90">
    <path clip-path="url(#pecf831830b)" d="M 61.535795 161.683945 
L 76.974531 165.015686 
L 92.413266 165.750959 
L 107.852001 165.784482 
L 123.290736 165.8348 
L 138.729471 165.839808 
L 154.168207 165.738875 
L 169.606942 165.889807 
L 185.045677 165.399406 
L 200.484412 136.318081 
L 215.923147 104.153262 
L 231.361882 84.291499 
L 246.800618 153.748339 
L 262.239353 165.391163 
L 277.678088 165.717428 
L 293.116823 165.39553 
L 308.555558 165.492756 
L 323.994293 165.670896 
L 339.433029 165.27966 
L 354.871764 163.617594 
L 370.310499 159.709764 
L 385.749234 160.833215 
L 401.187969 159.073322 
L 416.626705 162.719305 
" style="fill:none;stroke:#1b9e77;stroke-linecap:square;stroke-opacity:0.5;stroke-width:1.5;"/>
   </g>
   <g id="line2d_91">
    <path clip-path="url(#pecf831830b)" d="M 61.535795 155.604135 
L 76.974531 116.993233 
L 92.413266 128.354988 
L 107.852001 147.664496 
L 123.290736 162.972207 
L 138.729471 164.532158 
L 154.168207 164.860633 
L 169.606942 160.938551 
L 185.045677 162.157531 
L 200.484412 164.938492 
L 215.923147 165.592964 
L 231.361882 165.536901 
L 246.800618 165.561496 
L 262.239353 165.685466 
L 277.678088 165.761108 
L 293.116823 165.843059 
L 308.555558 165.808021 
L 323.994293 165.84779 
L 339.433029 153.660266 
L 354.871764 151.329148 
L 370.310499 128.630938 
L 385.749234 156.318033 
L 401.187969 158.490236 
L 416.626705 161.267739 
" style="fill:none;stroke:#1b9e77;stroke-linecap:square;stroke-opacity:0.5;stroke-width:1.5;"/>
   </g>
   <g id="line2d_92">
    <path clip-path="url(#pecf831830b)" d="M 61.535795 165.898697 
L 76.974531 165.79967 
L 92.413266 165.792139 
L 107.852001 165.625446 
L 123.290736 160.222521 
L 138.729471 165.789513 
L 154.168207 164.726489 
L 169.606942 134.790862 
L 185.045677 153.011624 
L 200.484412 144.875438 
L 215.923147 98.8785 
L 231.361882 137.415112 
L 246.800618 132.429606 
L 262.239353 165.176279 
L 277.678088 165.919425 
L 293.116823 165.914431 
L 308.555558 165.906305 
L 323.994293 165.890308 
L 339.433029 165.876711 
L 354.871764 165.932674 
L 370.310499 165.933687 
L 385.749234 165.754875 
L 401.187969 156.57025 
L 416.626705 160.219018 
" style="fill:none;stroke:#1b9e77;stroke-linecap:square;stroke-opacity:0.5;stroke-width:1.5;"/>
   </g>
   <g id="line2d_93">
    <path clip-path="url(#pecf831830b)" d="M 61.535795 153.989633 
L 76.974531 153.623215 
L 92.413266 160.387264 
L 107.852001 160.602884 
L 123.290736 158.828835 
L 138.729471 153.085135 
L 154.168207 150.408555 
L 169.606942 152.358947 
L 185.045677 147.666322 
L 200.484412 92.136512 
L 215.923147 153.421056 
L 231.361882 152.024974 
L 246.800618 165.439069 
L 262.239353 165.771409 
L 277.678088 165.883788 
L 293.116823 165.8937 
L 308.555558 165.904475 
L 323.994293 165.911805 
L 339.433029 165.915012 
L 354.871764 165.940303 
L 370.310499 165.907464 
L 385.749234 163.146478 
L 401.187969 157.035205 
L 416.626705 163.067543 
" style="fill:none;stroke:#1b9e77;stroke-linecap:square;stroke-opacity:0.5;stroke-width:1.5;"/>
   </g>
   <g id="line2d_94">
    <path clip-path="url(#pecf831830b)" d="M 61.535795 134.667925 
L 76.974531 123.892024 
L 92.413266 145.927654 
L 107.852001 154.076751 
L 123.290736 162.032939 
L 138.729471 164.311478 
L 154.168207 164.976886 
L 169.606942 163.660442 
L 185.045677 161.509278 
L 200.484412 161.395505 
L 215.923147 163.208498 
L 231.361882 164.372466 
L 246.800618 164.402925 
L 262.239353 160.419064 
L 277.678088 153.292372 
L 293.116823 162.435205 
L 308.555558 164.698932 
L 323.994293 165.257021 
L 339.433029 165.220937 
L 354.871764 155.360218 
L 370.310499 124.960457 
L 385.749234 165.691654 
L 401.187969 165.585258 
L 416.626705 152.993701 
" style="fill:none;stroke:#1b9e77;stroke-linecap:square;stroke-opacity:0.5;stroke-width:1.5;"/>
   </g>
   <g id="line2d_95">
    <path clip-path="url(#pecf831830b)" d="M 61.535795 79.41815 
L 76.974531 106.863777 
L 92.413266 157.009407 
L 107.852001 154.977334 
L 123.290736 155.717932 
L 138.729471 157.214988 
L 154.168207 160.628789 
L 169.606942 161.824523 
L 185.045677 161.588301 
L 200.484412 160.414806 
L 215.923147 161.391285 
L 231.361882 162.433216 
L 246.800618 163.237457 
L 262.239353 163.859685 
L 277.678088 164.927376 
L 293.116823 165.487986 
L 308.555558 165.814955 
L 323.994293 165.887751 
L 339.433029 165.919562 
L 354.871764 165.926078 
L 370.310499 165.936537 
L 385.749234 165.952868 
L 401.187969 165.956846 
L 416.626705 165.959974 
" style="fill:none;stroke:#1b9e77;stroke-linecap:square;stroke-opacity:0.5;stroke-width:1.5;"/>
   </g>
   <g id="line2d_96">
    <path clip-path="url(#pecf831830b)" d="M 61.535795 158.495387 
L 76.974531 156.613659 
L 92.413266 165.349546 
L 107.852001 165.677022 
L 123.290736 165.774065 
L 138.729471 165.365789 
L 154.168207 162.234707 
L 169.606942 163.107314 
L 185.045677 163.124973 
L 200.484412 162.389756 
L 215.923147 157.086928 
L 231.361882 152.087997 
L 246.800618 149.268105 
L 262.239353 143.118809 
L 277.678088 146.459713 
L 293.116823 157.503128 
L 308.555558 162.870127 
L 323.994293 164.347501 
L 339.433029 155.263046 
L 354.871764 125.638505 
L 370.310499 130.718148 
L 385.749234 164.802608 
L 401.187969 165.883999 
L 416.626705 161.168751 
" style="fill:none;stroke:#1b9e77;stroke-linecap:square;stroke-opacity:0.5;stroke-width:1.5;"/>
   </g>
   <g id="line2d_97">
    <path clip-path="url(#pecf831830b)" d="M 61.535795 163.745164 
L 76.974531 165.303745 
L 92.413266 165.861194 
L 107.852001 165.794496 
L 123.290736 165.771072 
L 138.729471 165.448873 
L 154.168207 165.773463 
L 169.606942 165.913994 
L 185.045677 165.91429 
L 200.484412 165.648037 
L 215.923147 158.528822 
L 231.361882 165.524091 
L 246.800618 165.699267 
L 262.239353 164.63768 
L 277.678088 160.726437 
L 293.116823 151.331419 
L 308.555558 137.15652 
L 323.994293 143.961377 
L 339.433029 153.022415 
L 354.871764 113.148438 
L 370.310499 133.690469 
L 385.749234 148.946389 
L 401.187969 149.737621 
L 416.626705 163.064313 
" style="fill:none;stroke:#1b9e77;stroke-linecap:square;stroke-opacity:0.5;stroke-width:1.5;"/>
   </g>
   <g id="line2d_98">
    <path clip-path="url(#pecf831830b)" d="M 61.535795 126.015402 
L 76.974531 156.402594 
L 92.413266 157.755808 
L 107.852001 160.72748 
L 123.290736 150.617388 
L 138.729471 159.083717 
L 154.168207 162.939617 
L 169.606942 109.148897 
L 185.045677 155.783349 
L 200.484412 140.351245 
L 215.923147 150.631466 
L 231.361882 153.380039 
L 246.800618 165.389844 
L 262.239353 164.964613 
L 277.678088 165.683417 
L 293.116823 165.842873 
L 308.555558 165.896372 
L 323.994293 165.905633 
L 339.433029 165.914619 
L 354.871764 165.925159 
L 370.310499 165.917364 
L 385.749234 165.956887 
L 401.187969 163.747775 
L 416.626705 160.368029 
" style="fill:none;stroke:#1b9e77;stroke-linecap:square;stroke-opacity:0.5;stroke-width:1.5;"/>
   </g>
   <g id="line2d_99">
    <path clip-path="url(#pecf831830b)" d="M 61.535795 165.552701 
L 76.974531 162.835373 
L 92.413266 159.362885 
L 107.852001 115.888025 
L 123.290736 112.845118 
L 138.729471 125.571563 
L 154.168207 137.610621 
L 169.606942 146.624271 
L 185.045677 161.534472 
L 200.484412 164.911234 
L 215.923147 165.368023 
L 231.361882 165.08717 
L 246.800618 165.46256 
L 262.239353 165.744035 
L 277.678088 165.777301 
L 293.116823 165.626706 
L 308.555558 165.546521 
L 323.994293 165.868286 
L 339.433029 165.912493 
L 354.871764 165.443162 
L 370.310499 159.019421 
L 385.749234 164.88326 
L 401.187969 165.919998 
L 416.626705 165.95438 
" style="fill:none;stroke:#1b9e77;stroke-linecap:square;stroke-opacity:0.5;stroke-width:1.5;"/>
   </g>
   <g id="line2d_100">
    <path clip-path="url(#pecf831830b)" d="M 61.535795 150.321 
L 76.974531 165.253546 
L 92.413266 165.597098 
L 107.852001 163.813922 
L 123.290736 165.544523 
L 138.729471 165.715526 
L 154.168207 165.757232 
L 169.606942 165.887434 
L 185.045677 165.897862 
L 200.484412 165.779751 
L 215.923147 165.178013 
L 231.361882 164.351659 
L 246.800618 163.518073 
L 262.239353 161.117013 
L 277.678088 159.257384 
L 293.116823 140.817429 
L 308.555558 100.595687 
L 323.994293 120.505576 
L 339.433029 140.962071 
L 354.871764 149.098401 
L 370.310499 162.45371 
L 385.749234 165.275329 
L 401.187969 165.727877 
L 416.626705 165.923476 
" style="fill:none;stroke:#1b9e77;stroke-linecap:square;stroke-opacity:0.5;stroke-width:1.5;"/>
   </g>
   <g id="line2d_101">
    <path clip-path="url(#pecf831830b)" d="M 61.535795 162.916504 
L 76.974531 164.718697 
L 92.413266 165.601475 
L 107.852001 165.457733 
L 123.290736 165.609753 
L 138.729471 165.772727 
L 154.168207 165.878514 
L 169.606942 165.900784 
L 185.045677 165.914856 
L 200.484412 165.919258 
L 215.923147 165.814196 
L 231.361882 165.949752 
L 246.800618 165.753196 
L 262.239353 160.37784 
L 277.678088 161.557008 
L 293.116823 156.885057 
L 308.555558 149.788124 
L 323.994293 136.697427 
L 339.433029 125.409076 
L 354.871764 151.933251 
L 370.310499 122.033599 
L 385.749234 119.055142 
L 401.187969 163.548362 
L 416.626705 165.857261 
" style="fill:none;stroke:#1b9e77;stroke-linecap:square;stroke-opacity:0.5;stroke-width:1.5;"/>
   </g>
   <g id="line2d_102">
    <path clip-path="url(#pecf831830b)" d="M 61.535795 165.687872 
L 76.974531 164.360325 
L 92.413266 164.631324 
L 107.852001 162.805342 
L 123.290736 158.598235 
L 138.729471 158.061896 
L 154.168207 159.686934 
L 169.606942 158.831744 
L 185.045677 153.34195 
L 200.484412 139.687881 
L 215.923147 118.67825 
L 231.361882 146.9822 
L 246.800618 163.798528 
L 262.239353 123.587889 
L 277.678088 133.756191 
L 293.116823 164.715658 
L 308.555558 165.828285 
L 323.994293 165.870274 
L 339.433029 165.897056 
L 354.871764 165.870346 
L 370.310499 165.921591 
L 385.749234 165.950558 
L 401.187969 165.950392 
L 416.626705 165.84887 
" style="fill:none;stroke:#1b9e77;stroke-linecap:square;stroke-opacity:0.5;stroke-width:1.5;"/>
   </g>
   <g id="line2d_103">
    <path clip-path="url(#pecf831830b)" d="M 61.535795 161.533164 
L 76.974531 161.67929 
L 92.413266 164.715061 
L 107.852001 164.107097 
L 123.290736 165.029264 
L 138.729471 165.743704 
L 154.168207 165.892124 
L 169.606942 165.892126 
L 185.045677 165.92541 
L 200.484412 165.941168 
L 215.923147 165.947688 
L 231.361882 165.954731 
L 246.800618 165.956397 
L 262.239353 165.836531 
L 277.678088 160.776266 
L 293.116823 165.725928 
L 308.555558 157.172139 
L 323.994293 154.789473 
L 339.433029 108.665524 
L 354.871764 55.587603 
L 370.310499 159.319274 
L 385.749234 161.944015 
L 401.187969 164.496852 
L 416.626705 165.718759 
" style="fill:none;stroke:#1b9e77;stroke-linecap:square;stroke-opacity:0.5;stroke-width:1.5;"/>
   </g>
   <g id="line2d_104">
    <path clip-path="url(#pecf831830b)" d="M 61.535795 161.957758 
L 76.974531 130.200423 
L 92.413266 148.089463 
L 107.852001 162.744918 
L 123.290736 164.623809 
L 138.729471 161.645758 
L 154.168207 160.006428 
L 169.606942 163.309178 
L 185.045677 165.06134 
L 200.484412 165.572689 
L 215.923147 165.40864 
L 231.361882 162.304536 
L 246.800618 131.440552 
L 262.239353 134.809259 
L 277.678088 149.729737 
L 293.116823 150.555938 
L 308.555558 137.454321 
L 323.994293 163.082107 
L 339.433029 164.602692 
L 354.871764 162.02934 
L 370.310499 161.857368 
L 385.749234 165.947784 
L 401.187969 165.955792 
L 416.626705 165.959758 
" style="fill:none;stroke:#1b9e77;stroke-linecap:square;stroke-opacity:0.5;stroke-width:1.5;"/>
   </g>
   <g id="line2d_105">
    <path clip-path="url(#pecf831830b)" d="M 61.535795 137.979969 
L 76.974531 141.838898 
L 92.413266 160.744464 
L 107.852001 133.144891 
L 123.290736 136.249252 
L 138.729471 154.811961 
L 154.168207 164.753579 
L 169.606942 165.691155 
L 185.045677 165.565719 
L 200.484412 156.910641 
L 215.923147 152.197613 
L 231.361882 150.735959 
L 246.800618 147.128501 
L 262.239353 148.540454 
L 277.678088 163.32653 
L 293.116823 162.942376 
L 308.555558 165.686963 
L 323.994293 165.846833 
L 339.433029 165.92039 
L 354.871764 165.934454 
L 370.310499 165.945625 
L 385.749234 165.953842 
L 401.187969 165.656197 
L 416.626705 160.843316 
" style="fill:none;stroke:#1b9e77;stroke-linecap:square;stroke-opacity:0.5;stroke-width:1.5;"/>
   </g>
   <g id="line2d_106">
    <path clip-path="url(#pecf831830b)" d="M 61.535795 164.40567 
L 76.974531 165.540464 
L 92.413266 165.855305 
L 107.852001 165.853124 
L 123.290736 165.865117 
L 138.729471 163.989239 
L 154.168207 160.856772 
L 169.606942 163.033074 
L 185.045677 163.150926 
L 200.484412 160.914932 
L 215.923147 159.234143 
L 231.361882 157.334002 
L 246.800618 105.42391 
L 262.239353 127.684239 
L 277.678088 129.932672 
L 293.116823 143.639557 
L 308.555558 142.58585 
L 323.994293 164.195536 
L 339.433029 165.884035 
L 354.871764 165.294613 
L 370.310499 165.839902 
L 385.749234 165.930203 
L 401.187969 165.947391 
L 416.626705 165.958904 
" style="fill:none;stroke:#1b9e77;stroke-linecap:square;stroke-opacity:0.5;stroke-width:1.5;"/>
   </g>
   <g id="line2d_107">
    <path clip-path="url(#pecf831830b)" d="M 61.535795 157.002482 
L 76.974531 165.229475 
L 92.413266 165.470347 
L 107.852001 165.265227 
L 123.290736 164.983414 
L 138.729471 164.726472 
L 154.168207 164.147478 
L 169.606942 163.187447 
L 185.045677 161.845136 
L 200.484412 159.893211 
L 215.923147 155.989131 
L 231.361882 152.607392 
L 246.800618 150.209324 
L 262.239353 120.087194 
L 277.678088 103.330634 
L 293.116823 127.92717 
L 308.555558 161.317725 
L 323.994293 165.562114 
L 339.433029 165.888747 
L 354.871764 165.894112 
L 370.310499 165.932787 
L 385.749234 165.944343 
L 401.187969 165.949412 
L 416.626705 165.958813 
" style="fill:none;stroke:#1b9e77;stroke-linecap:square;stroke-opacity:0.5;stroke-width:1.5;"/>
   </g>
   <g id="line2d_108">
    <path clip-path="url(#pecf831830b)" d="M 61.535795 164.626636 
L 76.974531 163.721082 
L 92.413266 163.30048 
L 107.852001 161.408016 
L 123.290736 158.690774 
L 138.729471 163.330488 
L 154.168207 162.211982 
L 169.606942 152.67778 
L 185.045677 100.528906 
L 200.484412 116.373122 
L 215.923147 133.153054 
L 231.361882 139.858573 
L 246.800618 162.391849 
L 262.239353 165.59125 
L 277.678088 165.88687 
L 293.116823 165.893041 
L 308.555558 165.932729 
L 323.994293 165.943543 
L 339.433029 165.94894 
L 354.871764 165.952669 
L 370.310499 165.95479 
L 385.749234 165.956723 
L 401.187969 164.131859 
L 416.626705 164.884428 
" style="fill:none;stroke:#1b9e77;stroke-linecap:square;stroke-opacity:0.5;stroke-width:1.5;"/>
   </g>
   <g id="line2d_109">
    <path clip-path="url(#pecf831830b)" d="M 61.535795 160.492785 
L 76.974531 161.06137 
L 92.413266 165.02361 
L 107.852001 165.262633 
L 123.290736 165.334616 
L 138.729471 165.011892 
L 154.168207 164.566473 
L 169.606942 165.278334 
L 185.045677 165.533772 
L 200.484412 165.767209 
L 215.923147 165.184274 
L 231.361882 154.725319 
L 246.800618 141.191971 
L 262.239353 154.154302 
L 277.678088 161.454208 
L 293.116823 158.37078 
L 308.555558 160.036128 
L 323.994293 152.419594 
L 339.433029 161.133679 
L 354.871764 165.629261 
L 370.310499 165.423157 
L 385.749234 150.941243 
L 401.187969 110.931291 
L 416.626705 119.421684 
" style="fill:none;stroke:#1b9e77;stroke-linecap:square;stroke-opacity:0.5;stroke-width:1.5;"/>
   </g>
   <g id="line2d_110">
    <path clip-path="url(#pecf831830b)" d="M 61.535795 165.25237 
L 76.974531 165.436798 
L 92.413266 165.739979 
L 107.852001 165.771215 
L 123.290736 165.823076 
L 138.729471 165.836868 
L 154.168207 165.841122 
L 169.606942 165.883463 
L 185.045677 165.875688 
L 200.484412 165.884829 
L 215.923147 165.477111 
L 231.361882 164.660059 
L 246.800618 162.872445 
L 262.239353 159.201142 
L 277.678088 149.798471 
L 293.116823 150.645893 
L 308.555558 159.520272 
L 323.994293 119.22088 
L 339.433029 80.903283 
L 354.871764 152.951785 
L 370.310499 158.711996 
L 385.749234 154.164457 
L 401.187969 163.017765 
L 416.626705 165.858611 
" style="fill:none;stroke:#1b9e77;stroke-linecap:square;stroke-opacity:0.5;stroke-width:1.5;"/>
   </g>
   <g id="line2d_111">
    <path clip-path="url(#pecf831830b)" d="M 61.535795 162.167797 
L 76.974531 111.559009 
L 92.413266 112.25491 
L 107.852001 135.575651 
L 123.290736 151.320636 
L 138.729471 150.251555 
L 154.168207 157.284726 
L 169.606942 159.901727 
L 185.045677 163.257661 
L 200.484412 162.931433 
L 215.923147 163.242362 
L 231.361882 164.385241 
L 246.800618 165.005406 
L 262.239353 165.123825 
L 277.678088 164.83755 
L 293.116823 163.790926 
L 308.555558 164.894192 
L 323.994293 165.858996 
L 339.433029 165.922457 
L 354.871764 161.839741 
L 370.310499 161.542338 
L 385.749234 164.301605 
L 401.187969 162.227052 
L 416.626705 164.872789 
" style="fill:none;stroke:#1b9e77;stroke-linecap:square;stroke-opacity:0.5;stroke-width:1.5;"/>
   </g>
   <g id="line2d_112">
    <path clip-path="url(#pecf831830b)" d="M 61.535795 165.676349 
L 76.974531 164.810994 
L 92.413266 164.193146 
L 107.852001 162.861683 
L 123.290736 158.022059 
L 138.729471 141.167149 
L 154.168207 139.606192 
L 169.606942 139.465817 
L 185.045677 137.679337 
L 200.484412 152.403213 
L 215.923147 160.482629 
L 231.361882 162.577223 
L 246.800618 158.375085 
L 262.239353 149.047945 
L 277.678088 146.112825 
L 293.116823 144.555858 
L 308.555558 157.899968 
L 323.994293 164.699481 
L 339.433029 165.725175 
L 354.871764 165.480029 
L 370.310499 165.701541 
L 385.749234 165.903048 
L 401.187969 165.944309 
L 416.626705 165.95853 
" style="fill:none;stroke:#1b9e77;stroke-linecap:square;stroke-opacity:0.5;stroke-width:1.5;"/>
   </g>
   <g id="line2d_113">
    <path clip-path="url(#pecf831830b)" d="M 61.535795 161.592987 
L 76.974531 139.106657 
L 92.413266 117.511172 
L 107.852001 133.167022 
L 123.290736 153.050151 
L 138.729471 156.78807 
L 154.168207 163.897749 
L 169.606942 164.728331 
L 185.045677 165.107994 
L 200.484412 165.001738 
L 215.923147 165.132418 
L 231.361882 165.174298 
L 246.800618 165.568915 
L 262.239353 165.835375 
L 277.678088 165.82727 
L 293.116823 163.941041 
L 308.555558 146.251767 
L 323.994293 158.112997 
L 339.433029 154.474276 
L 354.871764 161.742948 
L 370.310499 147.545761 
L 385.749234 161.907944 
L 401.187969 158.770705 
L 416.626705 164.111994 
" style="fill:none;stroke:#1b9e77;stroke-linecap:square;stroke-opacity:0.5;stroke-width:1.5;"/>
   </g>
   <g id="line2d_114">
    <path clip-path="url(#pecf831830b)" d="M 61.535795 141.689788 
L 76.974531 165.946546 
L 92.413266 165.946546 
L 107.852001 165.946546 
L 123.290736 165.946546 
L 138.729471 165.946546 
L 154.168207 165.946546 
L 169.606942 135.070962 
L 185.045677 123.031529 
L 200.484412 163.156036 
L 215.923147 161.264226 
L 231.361882 121.456264 
L 246.800618 107.681515 
L 262.239353 155.878178 
L 277.678088 165.922898 
L 293.116823 165.946546 
L 308.555558 165.946546 
L 323.994293 165.946546 
L 339.433029 165.946546 
L 354.871764 165.946546 
L 370.310499 165.946546 
L 385.749234 165.946546 
L 401.187969 165.946546 
L 416.626705 165.946546 
" style="fill:none;stroke:#d95f02;stroke-linecap:square;stroke-width:1.5;"/>
   </g>
   <g id="patch_3">
    <path d="M 43.78125 173.52 
L 43.78125 7.2 
" style="fill:none;stroke:#000000;stroke-linecap:square;stroke-linejoin:miter;stroke-width:0.8;"/>
   </g>
   <g id="patch_4">
    <path d="M 43.78125 173.52 
L 434.38125 173.52 
" style="fill:none;stroke:#000000;stroke-linecap:square;stroke-linejoin:miter;stroke-width:0.8;"/>
   </g>
   <g id="legend_1">
    <g id="patch_5">
     <path d="M 376.214063 29.878125 
L 427.38125 29.878125 
Q 429.38125 29.878125 429.38125 27.878125 
L 429.38125 14.2 
Q 429.38125 12.2 427.38125 12.2 
L 376.214063 12.2 
Q 374.214063 12.2 374.214063 14.2 
L 374.214063 27.878125 
Q 374.214063 29.878125 376.214063 29.878125 
z
" style="fill:#ffffff;opacity:0.8;stroke:#cccccc;stroke-linejoin:miter;"/>
    </g>
    <g id="line2d_115">
     <path d="M 378.214063 20.298438 
L 398.214063 20.298438 
" style="fill:none;stroke:#d95f02;stroke-linecap:square;stroke-width:1.5;"/>
    </g>
    <g id="line2d_116"/>
    <g id="text_16">
     <!-- real -->
     <defs>
      <path d="M 9.421875 75.984375 
L 18.40625 75.984375 
L 18.40625 0 
L 9.421875 0 
z
" id="DejaVuSans-108"/>
     </defs>
     <g transform="translate(406.214063 23.798438)scale(0.1 -0.1)">
      <use xlink:href="#DejaVuSans-114"/>
      <use x="41.082031" xlink:href="#DejaVuSans-101"/>
      <use x="102.605469" xlink:href="#DejaVuSans-97"/>
      <use x="163.884766" xlink:href="#DejaVuSans-108"/>
     </g>
    </g>
   </g>
  </g>
 </g>
 <defs>
  <clipPath id="pecf831830b">
   <rect height="166.32" width="390.6" x="43.78125" y="7.2"/>
  </clipPath>
 </defs>
</svg>
