<?xml version="1.0" encoding="utf-8" standalone="no"?>
<!DOCTYPE svg PUBLIC "-//W3C//DTD SVG 1.1//EN"
  "http://www.w3.org/Graphics/SVG/1.1/DTD/svg11.dtd">
<!-- Created with matplotlib (https://matplotlib.org/) -->
<svg height="211.07625pt" version="1.1" viewBox="0 0 445.62794 211.07625" width="445.62794pt" xmlns="http://www.w3.org/2000/svg" xmlns:xlink="http://www.w3.org/1999/xlink">
 <defs>
  <style type="text/css">
*{stroke-linecap:butt;stroke-linejoin:round;}
  </style>
 </defs>
 <g id="figure_1">
  <g id="patch_1">
   <path d="M 0 211.07625 
L 445.62794 211.07625 
L 445.62794 0 
L 0 0 
z
" style="fill:#ffffff;"/>
  </g>
  <g id="axes_1">
   <g id="patch_2">
    <path d="M 43.78125 173.52 
L 434.38125 173.52 
L 434.38125 7.2 
L 43.78125 7.2 
z
" style="fill:#ffffff;"/>
   </g>
   <g id="matplotlib.axis_1">
    <g id="xtick_1">
     <g id="line2d_1">
      <defs>
       <path d="M 0 0 
L 0 3.5 
" id="m1b2d082559" style="stroke:#000000;stroke-width:0.8;"/>
      </defs>
      <g>
       <use style="stroke:#000000;stroke-width:0.8;" x="46.09706" xlink:href="#m1b2d082559" y="173.52"/>
      </g>
     </g>
     <g id="text_1">
      <!-- 0 -->
      <defs>
       <path d="M 31.78125 66.40625 
Q 24.171875 66.40625 20.328125 58.90625 
Q 16.5 51.421875 16.5 36.375 
Q 16.5 21.390625 20.328125 13.890625 
Q 24.171875 6.390625 31.78125 6.390625 
Q 39.453125 6.390625 43.28125 13.890625 
Q 47.125 21.390625 47.125 36.375 
Q 47.125 51.421875 43.28125 58.90625 
Q 39.453125 66.40625 31.78125 66.40625 
z
M 31.78125 74.21875 
Q 44.046875 74.21875 50.515625 64.515625 
Q 56.984375 54.828125 56.984375 36.375 
Q 56.984375 17.96875 50.515625 8.265625 
Q 44.046875 -1.421875 31.78125 -1.421875 
Q 19.53125 -1.421875 13.0625 8.265625 
Q 6.59375 17.96875 6.59375 36.375 
Q 6.59375 54.828125 13.0625 64.515625 
Q 19.53125 74.21875 31.78125 74.21875 
z
" id="DejaVuSans-48"/>
      </defs>
      <g transform="translate(42.91581 188.118438)scale(0.1 -0.1)">
       <use xlink:href="#DejaVuSans-48"/>
      </g>
     </g>
    </g>
    <g id="xtick_2">
     <g id="line2d_2">
      <g>
       <use style="stroke:#000000;stroke-width:0.8;" x="123.290736" xlink:href="#m1b2d082559" y="173.52"/>
      </g>
     </g>
     <g id="text_2">
      <!-- 5 -->
      <defs>
       <path d="M 10.796875 72.90625 
L 49.515625 72.90625 
L 49.515625 64.59375 
L 19.828125 64.59375 
L 19.828125 46.734375 
Q 21.96875 47.46875 24.109375 47.828125 
Q 26.265625 48.1875 28.421875 48.1875 
Q 40.625 48.1875 47.75 41.5 
Q 54.890625 34.8125 54.890625 23.390625 
Q 54.890625 11.625 47.5625 5.09375 
Q 40.234375 -1.421875 26.90625 -1.421875 
Q 22.3125 -1.421875 17.546875 -0.640625 
Q 12.796875 0.140625 7.71875 1.703125 
L 7.71875 11.625 
Q 12.109375 9.234375 16.796875 8.0625 
Q 21.484375 6.890625 26.703125 6.890625 
Q 35.15625 6.890625 40.078125 11.328125 
Q 45.015625 15.765625 45.015625 23.390625 
Q 45.015625 31 40.078125 35.4375 
Q 35.15625 39.890625 26.703125 39.890625 
Q 22.75 39.890625 18.8125 39.015625 
Q 14.890625 38.140625 10.796875 36.28125 
z
" id="DejaVuSans-53"/>
      </defs>
      <g transform="translate(120.109486 188.118438)scale(0.1 -0.1)">
       <use xlink:href="#DejaVuSans-53"/>
      </g>
     </g>
    </g>
    <g id="xtick_3">
     <g id="line2d_3">
      <g>
       <use style="stroke:#000000;stroke-width:0.8;" x="200.484412" xlink:href="#m1b2d082559" y="173.52"/>
      </g>
     </g>
     <g id="text_3">
      <!-- 10 -->
      <defs>
       <path d="M 12.40625 8.296875 
L 28.515625 8.296875 
L 28.515625 63.921875 
L 10.984375 60.40625 
L 10.984375 69.390625 
L 28.421875 72.90625 
L 38.28125 72.90625 
L 38.28125 8.296875 
L 54.390625 8.296875 
L 54.390625 0 
L 12.40625 0 
z
" id="DejaVuSans-49"/>
      </defs>
      <g transform="translate(194.121912 188.118438)scale(0.1 -0.1)">
       <use xlink:href="#DejaVuSans-49"/>
       <use x="63.623047" xlink:href="#DejaVuSans-48"/>
      </g>
     </g>
    </g>
    <g id="xtick_4">
     <g id="line2d_4">
      <g>
       <use style="stroke:#000000;stroke-width:0.8;" x="277.678088" xlink:href="#m1b2d082559" y="173.52"/>
      </g>
     </g>
     <g id="text_4">
      <!-- 15 -->
      <g transform="translate(271.315588 188.118438)scale(0.1 -0.1)">
       <use xlink:href="#DejaVuSans-49"/>
       <use x="63.623047" xlink:href="#DejaVuSans-53"/>
      </g>
     </g>
    </g>
    <g id="xtick_5">
     <g id="line2d_5">
      <g>
       <use style="stroke:#000000;stroke-width:0.8;" x="354.871764" xlink:href="#m1b2d082559" y="173.52"/>
      </g>
     </g>
     <g id="text_5">
      <!-- 20 -->
      <defs>
       <path d="M 19.1875 8.296875 
L 53.609375 8.296875 
L 53.609375 0 
L 7.328125 0 
L 7.328125 8.296875 
Q 12.9375 14.109375 22.625 23.890625 
Q 32.328125 33.6875 34.8125 36.53125 
Q 39.546875 41.84375 41.421875 45.53125 
Q 43.3125 49.21875 43.3125 52.78125 
Q 43.3125 58.59375 39.234375 62.25 
Q 35.15625 65.921875 28.609375 65.921875 
Q 23.96875 65.921875 18.8125 64.3125 
Q 13.671875 62.703125 7.8125 59.421875 
L 7.8125 69.390625 
Q 13.765625 71.78125 18.9375 73 
Q 24.125 74.21875 28.421875 74.21875 
Q 39.75 74.21875 46.484375 68.546875 
Q 53.21875 62.890625 53.21875 53.421875 
Q 53.21875 48.921875 51.53125 44.890625 
Q 49.859375 40.875 45.40625 35.40625 
Q 44.1875 33.984375 37.640625 27.21875 
Q 31.109375 20.453125 19.1875 8.296875 
z
" id="DejaVuSans-50"/>
      </defs>
      <g transform="translate(348.509264 188.118438)scale(0.1 -0.1)">
       <use xlink:href="#DejaVuSans-50"/>
       <use x="63.623047" xlink:href="#DejaVuSans-48"/>
      </g>
     </g>
    </g>
    <g id="xtick_6">
     <g id="line2d_6">
      <g>
       <use style="stroke:#000000;stroke-width:0.8;" x="432.06544" xlink:href="#m1b2d082559" y="173.52"/>
      </g>
     </g>
     <g id="text_6">
      <!-- 25 -->
      <g transform="translate(425.70294 188.118438)scale(0.1 -0.1)">
       <use xlink:href="#DejaVuSans-50"/>
       <use x="63.623047" xlink:href="#DejaVuSans-53"/>
      </g>
     </g>
    </g>
    <g id="text_7">
     <!-- hour -->
     <defs>
      <path d="M 54.890625 33.015625 
L 54.890625 0 
L 45.90625 0 
L 45.90625 32.71875 
Q 45.90625 40.484375 42.875 44.328125 
Q 39.84375 48.1875 33.796875 48.1875 
Q 26.515625 48.1875 22.3125 43.546875 
Q 18.109375 38.921875 18.109375 30.90625 
L 18.109375 0 
L 9.078125 0 
L 9.078125 75.984375 
L 18.109375 75.984375 
L 18.109375 46.1875 
Q 21.34375 51.125 25.703125 53.5625 
Q 30.078125 56 35.796875 56 
Q 45.21875 56 50.046875 50.171875 
Q 54.890625 44.34375 54.890625 33.015625 
z
" id="DejaVuSans-104"/>
      <path d="M 30.609375 48.390625 
Q 23.390625 48.390625 19.1875 42.75 
Q 14.984375 37.109375 14.984375 27.296875 
Q 14.984375 17.484375 19.15625 11.84375 
Q 23.34375 6.203125 30.609375 6.203125 
Q 37.796875 6.203125 41.984375 11.859375 
Q 46.1875 17.53125 46.1875 27.296875 
Q 46.1875 37.015625 41.984375 42.703125 
Q 37.796875 48.390625 30.609375 48.390625 
z
M 30.609375 56 
Q 42.328125 56 49.015625 48.375 
Q 55.71875 40.765625 55.71875 27.296875 
Q 55.71875 13.875 49.015625 6.21875 
Q 42.328125 -1.421875 30.609375 -1.421875 
Q 18.84375 -1.421875 12.171875 6.21875 
Q 5.515625 13.875 5.515625 27.296875 
Q 5.515625 40.765625 12.171875 48.375 
Q 18.84375 56 30.609375 56 
z
" id="DejaVuSans-111"/>
      <path d="M 8.5 21.578125 
L 8.5 54.6875 
L 17.484375 54.6875 
L 17.484375 21.921875 
Q 17.484375 14.15625 20.5 10.265625 
Q 23.53125 6.390625 29.59375 6.390625 
Q 36.859375 6.390625 41.078125 11.03125 
Q 45.3125 15.671875 45.3125 23.6875 
L 45.3125 54.6875 
L 54.296875 54.6875 
L 54.296875 0 
L 45.3125 0 
L 45.3125 8.40625 
Q 42.046875 3.421875 37.71875 1 
Q 33.40625 -1.421875 27.6875 -1.421875 
Q 18.265625 -1.421875 13.375 4.4375 
Q 8.5 10.296875 8.5 21.578125 
z
M 31.109375 56 
z
" id="DejaVuSans-117"/>
      <path d="M 41.109375 46.296875 
Q 39.59375 47.171875 37.8125 47.578125 
Q 36.03125 48 33.890625 48 
Q 26.265625 48 22.1875 43.046875 
Q 18.109375 38.09375 18.109375 28.8125 
L 18.109375 0 
L 9.078125 0 
L 9.078125 54.6875 
L 18.109375 54.6875 
L 18.109375 46.1875 
Q 20.953125 51.171875 25.484375 53.578125 
Q 30.03125 56 36.53125 56 
Q 37.453125 56 38.578125 55.875 
Q 39.703125 55.765625 41.0625 55.515625 
z
" id="DejaVuSans-114"/>
     </defs>
     <g transform="translate(227.628906 201.796563)scale(0.1 -0.1)">
      <use xlink:href="#DejaVuSans-104"/>
      <use x="63.378906" xlink:href="#DejaVuSans-111"/>
      <use x="124.560547" xlink:href="#DejaVuSans-117"/>
      <use x="187.939453" xlink:href="#DejaVuSans-114"/>
     </g>
    </g>
   </g>
   <g id="matplotlib.axis_2">
    <g id="ytick_1">
     <g id="line2d_7">
      <defs>
       <path d="M 0 0 
L -3.5 0 
" id="mf2c519321d" style="stroke:#000000;stroke-width:0.8;"/>
      </defs>
      <g>
       <use style="stroke:#000000;stroke-width:0.8;" x="43.78125" xlink:href="#mf2c519321d" y="165.964813"/>
      </g>
     </g>
     <g id="text_8">
      <!-- 0.0 -->
      <defs>
       <path d="M 10.6875 12.40625 
L 21 12.40625 
L 21 0 
L 10.6875 0 
z
" id="DejaVuSans-46"/>
      </defs>
      <g transform="translate(20.878125 169.764032)scale(0.1 -0.1)">
       <use xlink:href="#DejaVuSans-48"/>
       <use x="63.623047" xlink:href="#DejaVuSans-46"/>
       <use x="95.410156" xlink:href="#DejaVuSans-48"/>
      </g>
     </g>
    </g>
    <g id="ytick_2">
     <g id="line2d_8">
      <g>
       <use style="stroke:#000000;stroke-width:0.8;" x="43.78125" xlink:href="#mf2c519321d" y="137.717395"/>
      </g>
     </g>
     <g id="text_9">
      <!-- 0.5 -->
      <g transform="translate(20.878125 141.516614)scale(0.1 -0.1)">
       <use xlink:href="#DejaVuSans-48"/>
       <use x="63.623047" xlink:href="#DejaVuSans-46"/>
       <use x="95.410156" xlink:href="#DejaVuSans-53"/>
      </g>
     </g>
    </g>
    <g id="ytick_3">
     <g id="line2d_9">
      <g>
       <use style="stroke:#000000;stroke-width:0.8;" x="43.78125" xlink:href="#mf2c519321d" y="109.469976"/>
      </g>
     </g>
     <g id="text_10">
      <!-- 1.0 -->
      <g transform="translate(20.878125 113.269195)scale(0.1 -0.1)">
       <use xlink:href="#DejaVuSans-49"/>
       <use x="63.623047" xlink:href="#DejaVuSans-46"/>
       <use x="95.410156" xlink:href="#DejaVuSans-48"/>
      </g>
     </g>
    </g>
    <g id="ytick_4">
     <g id="line2d_10">
      <g>
       <use style="stroke:#000000;stroke-width:0.8;" x="43.78125" xlink:href="#mf2c519321d" y="81.222557"/>
      </g>
     </g>
     <g id="text_11">
      <!-- 1.5 -->
      <g transform="translate(20.878125 85.021776)scale(0.1 -0.1)">
       <use xlink:href="#DejaVuSans-49"/>
       <use x="63.623047" xlink:href="#DejaVuSans-46"/>
       <use x="95.410156" xlink:href="#DejaVuSans-53"/>
      </g>
     </g>
    </g>
    <g id="ytick_5">
     <g id="line2d_11">
      <g>
       <use style="stroke:#000000;stroke-width:0.8;" x="43.78125" xlink:href="#mf2c519321d" y="52.975139"/>
      </g>
     </g>
     <g id="text_12">
      <!-- 2.0 -->
      <g transform="translate(20.878125 56.774358)scale(0.1 -0.1)">
       <use xlink:href="#DejaVuSans-50"/>
       <use x="63.623047" xlink:href="#DejaVuSans-46"/>
       <use x="95.410156" xlink:href="#DejaVuSans-48"/>
      </g>
     </g>
    </g>
    <g id="ytick_6">
     <g id="line2d_12">
      <g>
       <use style="stroke:#000000;stroke-width:0.8;" x="43.78125" xlink:href="#mf2c519321d" y="24.72772"/>
      </g>
     </g>
     <g id="text_13">
      <!-- 2.5 -->
      <g transform="translate(20.878125 28.526939)scale(0.1 -0.1)">
       <use xlink:href="#DejaVuSans-50"/>
       <use x="63.623047" xlink:href="#DejaVuSans-46"/>
       <use x="95.410156" xlink:href="#DejaVuSans-53"/>
      </g>
     </g>
    </g>
    <g id="text_14">
     <!-- precipitation [mm/hour] -->
     <defs>
      <path d="M 18.109375 8.203125 
L 18.109375 -20.796875 
L 9.078125 -20.796875 
L 9.078125 54.6875 
L 18.109375 54.6875 
L 18.109375 46.390625 
Q 20.953125 51.265625 25.265625 53.625 
Q 29.59375 56 35.59375 56 
Q 45.5625 56 51.78125 48.09375 
Q 58.015625 40.1875 58.015625 27.296875 
Q 58.015625 14.40625 51.78125 6.484375 
Q 45.5625 -1.421875 35.59375 -1.421875 
Q 29.59375 -1.421875 25.265625 0.953125 
Q 20.953125 3.328125 18.109375 8.203125 
z
M 48.6875 27.296875 
Q 48.6875 37.203125 44.609375 42.84375 
Q 40.53125 48.484375 33.40625 48.484375 
Q 26.265625 48.484375 22.1875 42.84375 
Q 18.109375 37.203125 18.109375 27.296875 
Q 18.109375 17.390625 22.1875 11.75 
Q 26.265625 6.109375 33.40625 6.109375 
Q 40.53125 6.109375 44.609375 11.75 
Q 48.6875 17.390625 48.6875 27.296875 
z
" id="DejaVuSans-112"/>
      <path d="M 56.203125 29.59375 
L 56.203125 25.203125 
L 14.890625 25.203125 
Q 15.484375 15.921875 20.484375 11.0625 
Q 25.484375 6.203125 34.421875 6.203125 
Q 39.59375 6.203125 44.453125 7.46875 
Q 49.3125 8.734375 54.109375 11.28125 
L 54.109375 2.78125 
Q 49.265625 0.734375 44.1875 -0.34375 
Q 39.109375 -1.421875 33.890625 -1.421875 
Q 20.796875 -1.421875 13.15625 6.1875 
Q 5.515625 13.8125 5.515625 26.8125 
Q 5.515625 40.234375 12.765625 48.109375 
Q 20.015625 56 32.328125 56 
Q 43.359375 56 49.78125 48.890625 
Q 56.203125 41.796875 56.203125 29.59375 
z
M 47.21875 32.234375 
Q 47.125 39.59375 43.09375 43.984375 
Q 39.0625 48.390625 32.421875 48.390625 
Q 24.90625 48.390625 20.390625 44.140625 
Q 15.875 39.890625 15.1875 32.171875 
z
" id="DejaVuSans-101"/>
      <path d="M 48.78125 52.59375 
L 48.78125 44.1875 
Q 44.96875 46.296875 41.140625 47.34375 
Q 37.3125 48.390625 33.40625 48.390625 
Q 24.65625 48.390625 19.8125 42.84375 
Q 14.984375 37.3125 14.984375 27.296875 
Q 14.984375 17.28125 19.8125 11.734375 
Q 24.65625 6.203125 33.40625 6.203125 
Q 37.3125 6.203125 41.140625 7.25 
Q 44.96875 8.296875 48.78125 10.40625 
L 48.78125 2.09375 
Q 45.015625 0.34375 40.984375 -0.53125 
Q 36.96875 -1.421875 32.421875 -1.421875 
Q 20.0625 -1.421875 12.78125 6.34375 
Q 5.515625 14.109375 5.515625 27.296875 
Q 5.515625 40.671875 12.859375 48.328125 
Q 20.21875 56 33.015625 56 
Q 37.15625 56 41.109375 55.140625 
Q 45.0625 54.296875 48.78125 52.59375 
z
" id="DejaVuSans-99"/>
      <path d="M 9.421875 54.6875 
L 18.40625 54.6875 
L 18.40625 0 
L 9.421875 0 
z
M 9.421875 75.984375 
L 18.40625 75.984375 
L 18.40625 64.59375 
L 9.421875 64.59375 
z
" id="DejaVuSans-105"/>
      <path d="M 18.3125 70.21875 
L 18.3125 54.6875 
L 36.8125 54.6875 
L 36.8125 47.703125 
L 18.3125 47.703125 
L 18.3125 18.015625 
Q 18.3125 11.328125 20.140625 9.421875 
Q 21.96875 7.515625 27.59375 7.515625 
L 36.8125 7.515625 
L 36.8125 0 
L 27.59375 0 
Q 17.1875 0 13.234375 3.875 
Q 9.28125 7.765625 9.28125 18.015625 
L 9.28125 47.703125 
L 2.6875 47.703125 
L 2.6875 54.6875 
L 9.28125 54.6875 
L 9.28125 70.21875 
z
" id="DejaVuSans-116"/>
      <path d="M 34.28125 27.484375 
Q 23.390625 27.484375 19.1875 25 
Q 14.984375 22.515625 14.984375 16.5 
Q 14.984375 11.71875 18.140625 8.90625 
Q 21.296875 6.109375 26.703125 6.109375 
Q 34.1875 6.109375 38.703125 11.40625 
Q 43.21875 16.703125 43.21875 25.484375 
L 43.21875 27.484375 
z
M 52.203125 31.203125 
L 52.203125 0 
L 43.21875 0 
L 43.21875 8.296875 
Q 40.140625 3.328125 35.546875 0.953125 
Q 30.953125 -1.421875 24.3125 -1.421875 
Q 15.921875 -1.421875 10.953125 3.296875 
Q 6 8.015625 6 15.921875 
Q 6 25.140625 12.171875 29.828125 
Q 18.359375 34.515625 30.609375 34.515625 
L 43.21875 34.515625 
L 43.21875 35.40625 
Q 43.21875 41.609375 39.140625 45 
Q 35.0625 48.390625 27.6875 48.390625 
Q 23 48.390625 18.546875 47.265625 
Q 14.109375 46.140625 10.015625 43.890625 
L 10.015625 52.203125 
Q 14.9375 54.109375 19.578125 55.046875 
Q 24.21875 56 28.609375 56 
Q 40.484375 56 46.34375 49.84375 
Q 52.203125 43.703125 52.203125 31.203125 
z
" id="DejaVuSans-97"/>
      <path d="M 54.890625 33.015625 
L 54.890625 0 
L 45.90625 0 
L 45.90625 32.71875 
Q 45.90625 40.484375 42.875 44.328125 
Q 39.84375 48.1875 33.796875 48.1875 
Q 26.515625 48.1875 22.3125 43.546875 
Q 18.109375 38.921875 18.109375 30.90625 
L 18.109375 0 
L 9.078125 0 
L 9.078125 54.6875 
L 18.109375 54.6875 
L 18.109375 46.1875 
Q 21.34375 51.125 25.703125 53.5625 
Q 30.078125 56 35.796875 56 
Q 45.21875 56 50.046875 50.171875 
Q 54.890625 44.34375 54.890625 33.015625 
z
" id="DejaVuSans-110"/>
      <path id="DejaVuSans-32"/>
      <path d="M 8.59375 75.984375 
L 29.296875 75.984375 
L 29.296875 69 
L 17.578125 69 
L 17.578125 -6.203125 
L 29.296875 -6.203125 
L 29.296875 -13.1875 
L 8.59375 -13.1875 
z
" id="DejaVuSans-91"/>
      <path d="M 52 44.1875 
Q 55.375 50.25 60.0625 53.125 
Q 64.75 56 71.09375 56 
Q 79.640625 56 84.28125 50.015625 
Q 88.921875 44.046875 88.921875 33.015625 
L 88.921875 0 
L 79.890625 0 
L 79.890625 32.71875 
Q 79.890625 40.578125 77.09375 44.375 
Q 74.3125 48.1875 68.609375 48.1875 
Q 61.625 48.1875 57.5625 43.546875 
Q 53.515625 38.921875 53.515625 30.90625 
L 53.515625 0 
L 44.484375 0 
L 44.484375 32.71875 
Q 44.484375 40.625 41.703125 44.40625 
Q 38.921875 48.1875 33.109375 48.1875 
Q 26.21875 48.1875 22.15625 43.53125 
Q 18.109375 38.875 18.109375 30.90625 
L 18.109375 0 
L 9.078125 0 
L 9.078125 54.6875 
L 18.109375 54.6875 
L 18.109375 46.1875 
Q 21.1875 51.21875 25.484375 53.609375 
Q 29.78125 56 35.6875 56 
Q 41.65625 56 45.828125 52.96875 
Q 50 49.953125 52 44.1875 
z
" id="DejaVuSans-109"/>
      <path d="M 25.390625 72.90625 
L 33.6875 72.90625 
L 8.296875 -9.28125 
L 0 -9.28125 
z
" id="DejaVuSans-47"/>
      <path d="M 30.421875 75.984375 
L 30.421875 -13.1875 
L 9.71875 -13.1875 
L 9.71875 -6.203125 
L 21.390625 -6.203125 
L 21.390625 69 
L 9.71875 69 
L 9.71875 75.984375 
z
" id="DejaVuSans-93"/>
     </defs>
     <g transform="translate(14.798438 150.335781)rotate(-90)scale(0.1 -0.1)">
      <use xlink:href="#DejaVuSans-112"/>
      <use x="63.476562" xlink:href="#DejaVuSans-114"/>
      <use x="104.558594" xlink:href="#DejaVuSans-101"/>
      <use x="166.082031" xlink:href="#DejaVuSans-99"/>
      <use x="221.0625" xlink:href="#DejaVuSans-105"/>
      <use x="248.845703" xlink:href="#DejaVuSans-112"/>
      <use x="312.322266" xlink:href="#DejaVuSans-105"/>
      <use x="340.105469" xlink:href="#DejaVuSans-116"/>
      <use x="379.314453" xlink:href="#DejaVuSans-97"/>
      <use x="440.59375" xlink:href="#DejaVuSans-116"/>
      <use x="479.802734" xlink:href="#DejaVuSans-105"/>
      <use x="507.585938" xlink:href="#DejaVuSans-111"/>
      <use x="568.767578" xlink:href="#DejaVuSans-110"/>
      <use x="632.146484" xlink:href="#DejaVuSans-32"/>
      <use x="663.933594" xlink:href="#DejaVuSans-91"/>
      <use x="702.947266" xlink:href="#DejaVuSans-109"/>
      <use x="800.359375" xlink:href="#DejaVuSans-109"/>
      <use x="897.771484" xlink:href="#DejaVuSans-47"/>
      <use x="931.462891" xlink:href="#DejaVuSans-104"/>
      <use x="994.841797" xlink:href="#DejaVuSans-111"/>
      <use x="1056.023438" xlink:href="#DejaVuSans-117"/>
      <use x="1119.402344" xlink:href="#DejaVuSans-114"/>
      <use x="1160.515625" xlink:href="#DejaVuSans-93"/>
     </g>
    </g>
   </g>
   <g id="line2d_13">
    <path clip-path="url(#p7ebf4f29dd)" d="M 61.535795 165.864872 
L 76.974531 165.64939 
L 92.413266 165.722132 
L 107.852001 165.855884 
L 123.290736 165.888467 
L 138.729471 165.929144 
L 154.168207 165.939095 
L 169.606942 165.937804 
L 185.045677 165.919062 
L 200.484412 165.908804 
L 215.923147 165.667593 
L 231.361882 157.182933 
L 246.800618 155.331478 
L 262.239353 146.687587 
L 277.678088 94.957135 
L 293.116823 138.230566 
L 308.555558 163.462493 
L 323.994293 165.131797 
L 339.433029 165.792651 
L 354.871764 164.362941 
L 370.310499 140.803959 
L 385.749234 152.109909 
L 401.187969 145.508822 
L 416.626705 152.719205 
" style="fill:none;stroke:#1b9e77;stroke-linecap:square;stroke-opacity:0.5;stroke-width:1.5;"/>
   </g>
   <g id="line2d_14">
    <path clip-path="url(#p7ebf4f29dd)" d="M 61.535795 165.899392 
L 76.974531 165.769911 
L 92.413266 165.805887 
L 107.852001 165.916712 
L 123.290736 165.934193 
L 138.729471 165.858311 
L 154.168207 165.363886 
L 169.606942 165.488654 
L 185.045677 163.557169 
L 200.484412 148.88986 
L 215.923147 150.736713 
L 231.361882 120.955983 
L 246.800618 152.878588 
L 262.239353 164.481234 
L 277.678088 161.364104 
L 293.116823 133.705636 
L 308.555558 160.47293 
L 323.994293 147.799972 
L 339.433029 157.240197 
L 354.871764 142.755527 
L 370.310499 156.492674 
L 385.749234 157.69675 
L 401.187969 156.799711 
L 416.626705 164.699731 
" style="fill:none;stroke:#1b9e77;stroke-linecap:square;stroke-opacity:0.5;stroke-width:1.5;"/>
   </g>
   <g id="line2d_15">
    <path clip-path="url(#p7ebf4f29dd)" d="M 61.535795 165.76305 
L 76.974531 165.839704 
L 92.413266 165.863949 
L 107.852001 165.935866 
L 123.290736 165.897229 
L 138.729471 165.342348 
L 154.168207 164.111265 
L 169.606942 164.996716 
L 185.045677 163.877638 
L 200.484412 158.204095 
L 215.923147 156.912827 
L 231.361882 163.630031 
L 246.800618 160.115775 
L 262.239353 115.943753 
L 277.678088 162.206785 
L 293.116823 161.895342 
L 308.555558 130.706913 
L 323.994293 147.657006 
L 339.433029 131.785931 
L 354.871764 152.973844 
L 370.310499 157.958025 
L 385.749234 152.724749 
L 401.187969 160.665181 
L 416.626705 165.555704 
" style="fill:none;stroke:#1b9e77;stroke-linecap:square;stroke-opacity:0.5;stroke-width:1.5;"/>
   </g>
   <g id="line2d_16">
    <path clip-path="url(#p7ebf4f29dd)" d="M 61.535795 165.403415 
L 76.974531 163.900324 
L 92.413266 163.258457 
L 107.852001 162.942906 
L 123.290736 154.533557 
L 138.729471 149.948043 
L 154.168207 137.185481 
L 169.606942 133.650826 
L 185.045677 142.228177 
L 200.484412 165.42554 
L 215.923147 165.618742 
L 231.361882 163.820768 
L 246.800618 119.911375 
L 262.239353 129.980025 
L 277.678088 162.639026 
L 293.116823 163.860665 
L 308.555558 164.982227 
L 323.994293 163.659334 
L 339.433029 164.924659 
L 354.871764 165.510213 
L 370.310499 165.627614 
L 385.749234 165.790422 
L 401.187969 165.818796 
L 416.626705 165.943135 
" style="fill:none;stroke:#1b9e77;stroke-linecap:square;stroke-opacity:0.5;stroke-width:1.5;"/>
   </g>
   <g id="line2d_17">
    <path clip-path="url(#p7ebf4f29dd)" d="M 61.535795 165.882579 
L 76.974531 165.745012 
L 92.413266 165.683043 
L 107.852001 165.787519 
L 123.290736 165.763007 
L 138.729471 165.288493 
L 154.168207 148.496253 
L 169.606942 129.400076 
L 185.045677 90.033201 
L 200.484412 118.142356 
L 215.923147 159.134307 
L 231.361882 149.496033 
L 246.800618 160.444832 
L 262.239353 163.952293 
L 277.678088 164.680486 
L 293.116823 164.775011 
L 308.555558 164.666413 
L 323.994293 164.901888 
L 339.433029 165.24624 
L 354.871764 165.598121 
L 370.310499 165.747878 
L 385.749234 165.881671 
L 401.187969 165.918569 
L 416.626705 165.898438 
" style="fill:none;stroke:#1b9e77;stroke-linecap:square;stroke-opacity:0.5;stroke-width:1.5;"/>
   </g>
   <g id="line2d_18">
    <path clip-path="url(#p7ebf4f29dd)" d="M 61.535795 165.172234 
L 76.974531 164.314566 
L 92.413266 164.399862 
L 107.852001 165.251914 
L 123.290736 165.584853 
L 138.729471 165.828834 
L 154.168207 165.803405 
L 169.606942 165.701128 
L 185.045677 164.930356 
L 200.484412 152.920419 
L 215.923147 116.554978 
L 231.361882 156.079627 
L 246.800618 165.353678 
L 262.239353 164.748648 
L 277.678088 165.402115 
L 293.116823 165.701317 
L 308.555558 165.751391 
L 323.994293 165.807137 
L 339.433029 165.764506 
L 354.871764 165.659603 
L 370.310499 161.679928 
L 385.749234 127.561844 
L 401.187969 96.701311 
L 416.626705 143.890076 
" style="fill:none;stroke:#1b9e77;stroke-linecap:square;stroke-opacity:0.5;stroke-width:1.5;"/>
   </g>
   <g id="line2d_19">
    <path clip-path="url(#p7ebf4f29dd)" d="M 61.535795 165.741914 
L 76.974531 165.314722 
L 92.413266 165.467895 
L 107.852001 165.737397 
L 123.290736 165.837058 
L 138.729471 165.922381 
L 154.168207 165.940903 
L 169.606942 165.940373 
L 185.045677 165.909307 
L 200.484412 165.866913 
L 215.923147 164.221459 
L 231.361882 150.370729 
L 246.800618 148.984245 
L 262.239353 138.054026 
L 277.678088 110.619369 
L 293.116823 112.384435 
L 308.555558 147.192686 
L 323.994293 159.695872 
L 339.433029 165.0515 
L 354.871764 164.850806 
L 370.310499 156.125316 
L 385.749234 163.733164 
L 401.187969 162.446507 
L 416.626705 165.154742 
" style="fill:none;stroke:#1b9e77;stroke-linecap:square;stroke-opacity:0.5;stroke-width:1.5;"/>
   </g>
   <g id="line2d_20">
    <path clip-path="url(#p7ebf4f29dd)" d="M 61.535795 165.896529 
L 76.974531 165.717646 
L 92.413266 165.65766 
L 107.852001 165.847192 
L 123.290736 165.807468 
L 138.729471 164.835909 
L 154.168207 161.03188 
L 169.606942 155.510265 
L 185.045677 147.263014 
L 200.484412 154.258534 
L 215.923147 161.855996 
L 231.361882 159.607233 
L 246.800618 132.107826 
L 262.239353 67.025824 
L 277.678088 149.733369 
L 293.116823 163.624253 
L 308.555558 163.981177 
L 323.994293 164.251026 
L 339.433029 164.809791 
L 354.871764 165.286192 
L 370.310499 165.416115 
L 385.749234 165.753606 
L 401.187969 165.811096 
L 416.626705 165.474128 
" style="fill:none;stroke:#1b9e77;stroke-linecap:square;stroke-opacity:0.5;stroke-width:1.5;"/>
   </g>
   <g id="line2d_21">
    <path clip-path="url(#p7ebf4f29dd)" d="M 61.535795 165.934765 
L 76.974531 165.749143 
L 92.413266 164.914303 
L 107.852001 157.859823 
L 123.290736 155.624299 
L 138.729471 156.052117 
L 154.168207 158.593593 
L 169.606942 159.231563 
L 185.045677 146.291537 
L 200.484412 141.626313 
L 215.923147 145.647145 
L 231.361882 115.446926 
L 246.800618 147.693042 
L 262.239353 156.285623 
L 277.678088 160.074125 
L 293.116823 159.012451 
L 308.555558 162.813068 
L 323.994293 159.515965 
L 339.433029 162.509676 
L 354.871764 165.625693 
L 370.310499 165.215392 
L 385.749234 165.578696 
L 401.187969 164.883964 
L 416.626705 164.384505 
" style="fill:none;stroke:#1b9e77;stroke-linecap:square;stroke-opacity:0.5;stroke-width:1.5;"/>
   </g>
   <g id="line2d_22">
    <path clip-path="url(#p7ebf4f29dd)" d="M 61.535795 165.308976 
L 76.974531 163.162264 
L 92.413266 163.854001 
L 107.852001 164.659906 
L 123.290736 165.157969 
L 138.729471 165.458042 
L 154.168207 165.529529 
L 169.606942 165.718242 
L 185.045677 165.818693 
L 200.484412 165.853383 
L 215.923147 165.838323 
L 231.361882 165.843791 
L 246.800618 165.86082 
L 262.239353 165.917063 
L 277.678088 165.924839 
L 293.116823 165.895401 
L 308.555558 165.7892 
L 323.994293 165.42073 
L 339.433029 125.492749 
L 354.871764 109.001072 
L 370.310499 119.356651 
L 385.749234 126.129041 
L 401.187969 149.351871 
L 416.626705 160.221175 
" style="fill:none;stroke:#1b9e77;stroke-linecap:square;stroke-opacity:0.5;stroke-width:1.5;"/>
   </g>
   <g id="line2d_23">
    <path clip-path="url(#p7ebf4f29dd)" d="M 61.535795 163.65182 
L 76.974531 158.298832 
L 92.413266 151.994047 
L 107.852001 155.013191 
L 123.290736 157.442584 
L 138.729471 161.608288 
L 154.168207 163.731167 
L 169.606942 163.739285 
L 185.045677 162.001247 
L 200.484412 162.24086 
L 215.923147 162.220446 
L 231.361882 140.268868 
L 246.800618 155.694874 
L 262.239353 155.361902 
L 277.678088 154.332233 
L 293.116823 153.016697 
L 308.555558 154.792931 
L 323.994293 160.734884 
L 339.433029 162.272458 
L 354.871764 164.339074 
L 370.310499 165.197235 
L 385.749234 162.942986 
L 401.187969 140.043925 
L 416.626705 135.623897 
" style="fill:none;stroke:#1b9e77;stroke-linecap:square;stroke-opacity:0.5;stroke-width:1.5;"/>
   </g>
   <g id="line2d_24">
    <path clip-path="url(#p7ebf4f29dd)" d="M 61.535795 164.98238 
L 76.974531 165.4993 
L 92.413266 165.703751 
L 107.852001 165.918449 
L 123.290736 165.903049 
L 138.729471 165.89812 
L 154.168207 165.926278 
L 169.606942 165.923936 
L 185.045677 165.903418 
L 200.484412 165.822343 
L 215.923147 165.364483 
L 231.361882 165.603196 
L 246.800618 163.473843 
L 262.239353 155.034371 
L 277.678088 149.780485 
L 293.116823 161.022887 
L 308.555558 133.200762 
L 323.994293 119.52322 
L 339.433029 158.544858 
L 354.871764 152.238707 
L 370.310499 117.346279 
L 385.749234 157.400183 
L 401.187969 148.88224 
L 416.626705 161.667186 
" style="fill:none;stroke:#1b9e77;stroke-linecap:square;stroke-opacity:0.5;stroke-width:1.5;"/>
   </g>
   <g id="line2d_25">
    <path clip-path="url(#p7ebf4f29dd)" d="M 61.535795 153.629858 
L 76.974531 133.570137 
L 92.413266 149.132613 
L 107.852001 148.500427 
L 123.290736 149.206905 
L 138.729471 162.767049 
L 154.168207 164.807026 
L 169.606942 130.163051 
L 185.045677 158.553699 
L 200.484412 164.164055 
L 215.923147 162.252025 
L 231.361882 139.535558 
L 246.800618 154.447608 
L 262.239353 163.389254 
L 277.678088 163.610396 
L 293.116823 160.880222 
L 308.555558 160.018333 
L 323.994293 161.200501 
L 339.433029 162.832726 
L 354.871764 163.546357 
L 370.310499 163.755382 
L 385.749234 165.150601 
L 401.187969 165.695061 
L 416.626705 165.754889 
" style="fill:none;stroke:#1b9e77;stroke-linecap:square;stroke-opacity:0.5;stroke-width:1.5;"/>
   </g>
   <g id="line2d_26">
    <path clip-path="url(#p7ebf4f29dd)" d="M 61.535795 165.919571 
L 76.974531 165.948517 
L 92.413266 165.950856 
L 107.852001 165.925239 
L 123.290736 165.494252 
L 138.729471 163.368159 
L 154.168207 163.553646 
L 169.606942 157.440092 
L 185.045677 149.207127 
L 200.484412 149.610602 
L 215.923147 115.199301 
L 231.361882 100.89855 
L 246.800618 164.064436 
L 262.239353 165.63754 
L 277.678088 163.539808 
L 293.116823 163.311708 
L 308.555558 164.177134 
L 323.994293 152.705475 
L 339.433029 162.397256 
L 354.871764 164.485013 
L 370.310499 165.123222 
L 385.749234 163.269125 
L 401.187969 148.621253 
L 416.626705 160.715842 
" style="fill:none;stroke:#1b9e77;stroke-linecap:square;stroke-opacity:0.5;stroke-width:1.5;"/>
   </g>
   <g id="line2d_27">
    <path clip-path="url(#p7ebf4f29dd)" d="M 61.535795 164.690512 
L 76.974531 123.80128 
L 92.413266 117.876806 
L 107.852001 91.449456 
L 123.290736 148.659388 
L 138.729471 165.167652 
L 154.168207 164.830224 
L 169.606942 164.679719 
L 185.045677 162.007896 
L 200.484412 161.911297 
L 215.923147 163.915232 
L 231.361882 163.382655 
L 246.800618 158.826774 
L 262.239353 158.487432 
L 277.678088 163.880196 
L 293.116823 165.905322 
L 308.555558 165.762452 
L 323.994293 165.770054 
L 339.433029 165.861684 
L 354.871764 165.916602 
L 370.310499 165.926136 
L 385.749234 165.946412 
L 401.187969 165.95379 
L 416.626705 165.954758 
" style="fill:none;stroke:#1b9e77;stroke-linecap:square;stroke-opacity:0.5;stroke-width:1.5;"/>
   </g>
   <g id="line2d_28">
    <path clip-path="url(#p7ebf4f29dd)" d="M 61.535795 105.875729 
L 76.974531 126.198752 
L 92.413266 140.455401 
L 107.852001 158.307286 
L 123.290736 161.935418 
L 138.729471 164.574967 
L 154.168207 164.941218 
L 169.606942 164.353567 
L 185.045677 162.873598 
L 200.484412 162.293095 
L 215.923147 162.97741 
L 231.361882 162.927873 
L 246.800618 162.618967 
L 262.239353 160.255695 
L 277.678088 158.327981 
L 293.116823 158.940773 
L 308.555558 159.545058 
L 323.994293 159.773282 
L 339.433029 160.21107 
L 354.871764 159.932749 
L 370.310499 159.429883 
L 385.749234 162.089142 
L 401.187969 164.222902 
L 416.626705 163.501913 
" style="fill:none;stroke:#1b9e77;stroke-linecap:square;stroke-opacity:0.5;stroke-width:1.5;"/>
   </g>
   <g id="line2d_29">
    <path clip-path="url(#p7ebf4f29dd)" d="M 61.535795 165.868396 
L 76.974531 165.678017 
L 92.413266 165.659225 
L 107.852001 165.604818 
L 123.290736 164.488372 
L 138.729471 160.249948 
L 154.168207 127.702707 
L 169.606942 132.745395 
L 185.045677 137.843292 
L 200.484412 131.264644 
L 215.923147 139.583958 
L 231.361882 156.828501 
L 246.800618 164.216808 
L 262.239353 164.458321 
L 277.678088 158.780999 
L 293.116823 164.428818 
L 308.555558 164.148203 
L 323.994293 165.533487 
L 339.433029 165.505976 
L 354.871764 165.120471 
L 370.310499 163.837812 
L 385.749234 163.692898 
L 401.187969 159.892674 
L 416.626705 153.429985 
" style="fill:none;stroke:#1b9e77;stroke-linecap:square;stroke-opacity:0.5;stroke-width:1.5;"/>
   </g>
   <g id="line2d_30">
    <path clip-path="url(#p7ebf4f29dd)" d="M 61.535795 165.568287 
L 76.974531 165.931022 
L 92.413266 165.88606 
L 107.852001 165.176037 
L 123.290736 155.065098 
L 138.729471 139.858339 
L 154.168207 165.078689 
L 169.606942 165.438444 
L 185.045677 148.902077 
L 200.484412 138.985455 
L 215.923147 97.784434 
L 231.361882 164.847247 
L 246.800618 165.236687 
L 262.239353 153.299724 
L 277.678088 152.172523 
L 293.116823 163.676286 
L 308.555558 165.13375 
L 323.994293 165.433656 
L 339.433029 163.747024 
L 354.871764 161.265956 
L 370.310499 147.156487 
L 385.749234 161.264911 
L 401.187969 164.326592 
L 416.626705 165.328945 
" style="fill:none;stroke:#1b9e77;stroke-linecap:square;stroke-opacity:0.5;stroke-width:1.5;"/>
   </g>
   <g id="line2d_31">
    <path clip-path="url(#p7ebf4f29dd)" d="M 61.535795 163.401732 
L 76.974531 160.248053 
L 92.413266 160.576216 
L 107.852001 162.227964 
L 123.290736 163.173641 
L 138.729471 164.166088 
L 154.168207 164.59212 
L 169.606942 165.087525 
L 185.045677 165.277526 
L 200.484412 165.429361 
L 215.923147 165.482141 
L 231.361882 165.679352 
L 246.800618 165.802051 
L 262.239353 165.89467 
L 277.678088 165.876287 
L 293.116823 165.491683 
L 308.555558 160.715446 
L 323.994293 152.182189 
L 339.433029 127.39162 
L 354.871764 124.478269 
L 370.310499 134.459264 
L 385.749234 137.380636 
L 401.187969 143.720924 
L 416.626705 157.828965 
" style="fill:none;stroke:#1b9e77;stroke-linecap:square;stroke-opacity:0.5;stroke-width:1.5;"/>
   </g>
   <g id="line2d_32">
    <path clip-path="url(#p7ebf4f29dd)" d="M 61.535795 144.487128 
L 76.974531 153.969628 
L 92.413266 159.789064 
L 107.852001 162.263666 
L 123.290736 163.114098 
L 138.729471 163.931203 
L 154.168207 164.708707 
L 169.606942 165.138125 
L 185.045677 165.123529 
L 200.484412 165.40115 
L 215.923147 165.586308 
L 231.361882 165.643711 
L 246.800618 165.617873 
L 262.239353 165.753917 
L 277.678088 165.828186 
L 293.116823 165.822882 
L 308.555558 165.46373 
L 323.994293 165.82935 
L 339.433029 164.815115 
L 354.871764 139.871458 
L 370.310499 141.580353 
L 385.749234 132.990198 
L 401.187969 102.766738 
L 416.626705 151.067611 
" style="fill:none;stroke:#1b9e77;stroke-linecap:square;stroke-opacity:0.5;stroke-width:1.5;"/>
   </g>
   <g id="line2d_33">
    <path clip-path="url(#p7ebf4f29dd)" d="M 61.535795 165.666361 
L 76.974531 164.793054 
L 92.413266 164.940123 
L 107.852001 165.28043 
L 123.290736 165.401639 
L 138.729471 165.580989 
L 154.168207 165.682725 
L 169.606942 165.748498 
L 185.045677 165.752381 
L 200.484412 165.793775 
L 215.923147 165.834196 
L 231.361882 165.873667 
L 246.800618 165.89636 
L 262.239353 165.915537 
L 277.678088 165.912698 
L 293.116823 165.929999 
L 308.555558 165.841701 
L 323.994293 162.979608 
L 339.433029 145.591796 
L 354.871764 122.124438 
L 370.310499 83.690472 
L 385.749234 128.148013 
L 401.187969 147.434958 
L 416.626705 160.750306 
" style="fill:none;stroke:#1b9e77;stroke-linecap:square;stroke-opacity:0.5;stroke-width:1.5;"/>
   </g>
   <g id="line2d_34">
    <path clip-path="url(#p7ebf4f29dd)" d="M 61.535795 165.022708 
L 76.974531 154.539795 
L 92.413266 156.580488 
L 107.852001 163.780839 
L 123.290736 162.591776 
L 138.729471 160.667448 
L 154.168207 163.177961 
L 169.606942 164.163113 
L 185.045677 164.045139 
L 200.484412 164.547423 
L 215.923147 164.985757 
L 231.361882 165.359087 
L 246.800618 165.329146 
L 262.239353 165.731905 
L 277.678088 153.627048 
L 293.116823 42.324789 
L 308.555558 153.444964 
L 323.994293 153.874668 
L 339.433029 161.026935 
L 354.871764 164.364166 
L 370.310499 164.750269 
L 385.749234 165.824871 
L 401.187969 164.03544 
L 416.626705 162.768 
" style="fill:none;stroke:#1b9e77;stroke-linecap:square;stroke-opacity:0.5;stroke-width:1.5;"/>
   </g>
   <g id="line2d_35">
    <path clip-path="url(#p7ebf4f29dd)" d="M 61.535795 165.528575 
L 76.974531 165.889414 
L 92.413266 165.88826 
L 107.852001 165.903502 
L 123.290736 165.536278 
L 138.729471 151.281236 
L 154.168207 134.680519 
L 169.606942 164.671598 
L 185.045677 163.495406 
L 200.484412 161.252158 
L 215.923147 162.232713 
L 231.361882 163.390819 
L 246.800618 163.153008 
L 262.239353 164.878108 
L 277.678088 162.499872 
L 293.116823 140.148473 
L 308.555558 149.551118 
L 323.994293 148.269785 
L 339.433029 146.881785 
L 354.871764 145.623939 
L 370.310499 147.356818 
L 385.749234 148.723185 
L 401.187969 154.826179 
L 416.626705 164.900985 
" style="fill:none;stroke:#1b9e77;stroke-linecap:square;stroke-opacity:0.5;stroke-width:1.5;"/>
   </g>
   <g id="line2d_36">
    <path clip-path="url(#p7ebf4f29dd)" d="M 61.535795 165.153265 
L 76.974531 163.702567 
L 92.413266 164.350917 
L 107.852001 165.456657 
L 123.290736 165.77624 
L 138.729471 165.838784 
L 154.168207 165.811757 
L 169.606942 165.738764 
L 185.045677 165.67878 
L 200.484412 165.807254 
L 215.923147 165.853425 
L 231.361882 165.692125 
L 246.800618 165.112553 
L 262.239353 165.026829 
L 277.678088 130.236304 
L 293.116823 114.138611 
L 308.555558 163.042075 
L 323.994293 160.346088 
L 339.433029 130.598558 
L 354.871764 154.214742 
L 370.310499 158.570305 
L 385.749234 155.601056 
L 401.187969 124.668272 
L 416.626705 160.147794 
" style="fill:none;stroke:#1b9e77;stroke-linecap:square;stroke-opacity:0.5;stroke-width:1.5;"/>
   </g>
   <g id="line2d_37">
    <path clip-path="url(#p7ebf4f29dd)" d="M 61.535795 165.831285 
L 76.974531 165.412733 
L 92.413266 165.51688 
L 107.852001 165.720418 
L 123.290736 165.803444 
L 138.729471 165.878945 
L 154.168207 165.903851 
L 169.606942 165.937513 
L 185.045677 165.937536 
L 200.484412 165.900643 
L 215.923147 164.184752 
L 231.361882 161.266018 
L 246.800618 158.341671 
L 262.239353 158.976317 
L 277.678088 136.743633 
L 293.116823 158.260702 
L 308.555558 164.574341 
L 323.994293 164.059409 
L 339.433029 162.781204 
L 354.871764 159.571373 
L 370.310499 40.661679 
L 385.749234 153.483496 
L 401.187969 160.893473 
L 416.626705 164.922406 
" style="fill:none;stroke:#1b9e77;stroke-linecap:square;stroke-opacity:0.5;stroke-width:1.5;"/>
   </g>
   <g id="line2d_38">
    <path clip-path="url(#p7ebf4f29dd)" d="M 61.535795 165.790564 
L 76.974531 164.779776 
L 92.413266 164.901411 
L 107.852001 165.223768 
L 123.290736 165.449037 
L 138.729471 165.597594 
L 154.168207 165.603639 
L 169.606942 165.667381 
L 185.045677 165.585333 
L 200.484412 165.413217 
L 215.923147 157.680862 
L 231.361882 130.849251 
L 246.800618 141.256043 
L 262.239353 156.853018 
L 277.678088 92.735664 
L 293.116823 130.249811 
L 308.555558 155.830317 
L 323.994293 153.428676 
L 339.433029 165.583145 
L 354.871764 165.539529 
L 370.310499 165.472649 
L 385.749234 165.506363 
L 401.187969 165.717428 
L 416.626705 165.849254 
" style="fill:none;stroke:#1b9e77;stroke-linecap:square;stroke-opacity:0.5;stroke-width:1.5;"/>
   </g>
   <g id="line2d_39">
    <path clip-path="url(#p7ebf4f29dd)" d="M 61.535795 161.378429 
L 76.974531 159.590319 
L 92.413266 160.025363 
L 107.852001 161.67396 
L 123.290736 162.68497 
L 138.729471 163.204705 
L 154.168207 154.578466 
L 169.606942 150.140509 
L 185.045677 145.673834 
L 200.484412 139.624863 
L 215.923147 155.142135 
L 231.361882 157.631347 
L 246.800618 157.517004 
L 262.239353 116.079087 
L 277.678088 135.580546 
L 293.116823 162.43608 
L 308.555558 165.09233 
L 323.994293 164.603625 
L 339.433029 165.11618 
L 354.871764 165.479761 
L 370.310499 165.620663 
L 385.749234 165.863009 
L 401.187969 165.922172 
L 416.626705 165.904368 
" style="fill:none;stroke:#1b9e77;stroke-linecap:square;stroke-opacity:0.5;stroke-width:1.5;"/>
   </g>
   <g id="line2d_40">
    <path clip-path="url(#p7ebf4f29dd)" d="M 61.535795 165.7971 
L 76.974531 165.599983 
L 92.413266 165.771224 
L 107.852001 165.843448 
L 123.290736 165.815137 
L 138.729471 164.95803 
L 154.168207 154.627306 
L 169.606942 147.221063 
L 185.045677 155.682464 
L 200.484412 145.972946 
L 215.923147 118.004234 
L 231.361882 138.487521 
L 246.800618 161.731315 
L 262.239353 130.697342 
L 277.678088 150.478327 
L 293.116823 164.965355 
L 308.555558 164.414098 
L 323.994293 163.186506 
L 339.433029 162.839398 
L 354.871764 164.713678 
L 370.310499 163.751158 
L 385.749234 165.400963 
L 401.187969 161.511303 
L 416.626705 159.093832 
" style="fill:none;stroke:#1b9e77;stroke-linecap:square;stroke-opacity:0.5;stroke-width:1.5;"/>
   </g>
   <g id="line2d_41">
    <path clip-path="url(#p7ebf4f29dd)" d="M 61.535795 165.909315 
L 76.974531 165.688207 
L 92.413266 165.055113 
L 107.852001 151.414538 
L 123.290736 162.239729 
L 138.729471 162.931585 
L 154.168207 162.507726 
L 169.606942 163.057328 
L 185.045677 163.516972 
L 200.484412 163.127622 
L 215.923147 163.066242 
L 231.361882 165.2061 
L 246.800618 160.163723 
L 262.239353 154.137022 
L 277.678088 157.435707 
L 293.116823 132.893168 
L 308.555558 132.813176 
L 323.994293 98.1539 
L 339.433029 160.560343 
L 354.871764 155.787907 
L 370.310499 164.776927 
L 385.749234 165.155906 
L 401.187969 165.172876 
L 416.626705 165.792588 
" style="fill:none;stroke:#1b9e77;stroke-linecap:square;stroke-opacity:0.5;stroke-width:1.5;"/>
   </g>
   <g id="line2d_42">
    <path clip-path="url(#p7ebf4f29dd)" d="M 61.535795 160.201852 
L 76.974531 153.138202 
L 92.413266 163.067376 
L 107.852001 164.734952 
L 123.290736 164.127016 
L 138.729471 161.961449 
L 154.168207 156.985162 
L 169.606942 156.573515 
L 185.045677 161.715802 
L 200.484412 163.111102 
L 215.923147 152.732325 
L 231.361882 76.099471 
L 246.800618 142.062971 
L 262.239353 148.046338 
L 277.678088 161.780589 
L 293.116823 162.196882 
L 308.555558 162.895545 
L 323.994293 163.629161 
L 339.433029 164.571233 
L 354.871764 164.97945 
L 370.310499 165.174265 
L 385.749234 165.473622 
L 401.187969 165.421491 
L 416.626705 165.883953 
" style="fill:none;stroke:#1b9e77;stroke-linecap:square;stroke-opacity:0.5;stroke-width:1.5;"/>
   </g>
   <g id="line2d_43">
    <path clip-path="url(#p7ebf4f29dd)" d="M 61.535795 160.039376 
L 76.974531 154.199505 
L 92.413266 130.84784 
L 107.852001 95.509718 
L 123.290736 148.30733 
L 138.729471 159.438069 
L 154.168207 164.570909 
L 169.606942 165.03601 
L 185.045677 164.589068 
L 200.484412 160.698136 
L 215.923147 162.310604 
L 231.361882 164.270639 
L 246.800618 164.552543 
L 262.239353 160.286747 
L 277.678088 161.530239 
L 293.116823 160.058974 
L 308.555558 157.476611 
L 323.994293 149.789215 
L 339.433029 157.090994 
L 354.871764 164.980836 
L 370.310499 165.81106 
L 385.749234 165.706283 
L 401.187969 163.610246 
L 416.626705 165.852782 
" style="fill:none;stroke:#1b9e77;stroke-linecap:square;stroke-opacity:0.5;stroke-width:1.5;"/>
   </g>
   <g id="line2d_44">
    <path clip-path="url(#p7ebf4f29dd)" d="M 61.535795 156.179408 
L 76.974531 152.496712 
L 92.413266 159.465063 
L 107.852001 163.489082 
L 123.290736 163.04156 
L 138.729471 159.738741 
L 154.168207 163.839033 
L 169.606942 164.308468 
L 185.045677 164.203937 
L 200.484412 164.547201 
L 215.923147 164.893132 
L 231.361882 165.091959 
L 246.800618 165.05157 
L 262.239353 165.491817 
L 277.678088 165.709825 
L 293.116823 164.310822 
L 308.555558 161.65407 
L 323.994293 157.393784 
L 339.433029 150.469634 
L 354.871764 135.70532 
L 370.310499 142.553273 
L 385.749234 129.466116 
L 401.187969 127.822059 
L 416.626705 159.641144 
" style="fill:none;stroke:#1b9e77;stroke-linecap:square;stroke-opacity:0.5;stroke-width:1.5;"/>
   </g>
   <g id="line2d_45">
    <path clip-path="url(#p7ebf4f29dd)" d="M 61.535795 163.875846 
L 76.974531 162.867909 
L 92.413266 157.616631 
L 107.852001 155.82657 
L 123.290736 133.360772 
L 138.729471 149.746103 
L 154.168207 162.962893 
L 169.606942 158.774796 
L 185.045677 132.113837 
L 200.484412 103.928253 
L 215.923147 144.06601 
L 231.361882 162.803318 
L 246.800618 162.509216 
L 262.239353 162.648794 
L 277.678088 164.403703 
L 293.116823 165.105549 
L 308.555558 164.771293 
L 323.994293 164.895155 
L 339.433029 165.629152 
L 354.871764 165.719958 
L 370.310499 165.760867 
L 385.749234 165.921502 
L 401.187969 165.917153 
L 416.626705 165.338447 
" style="fill:none;stroke:#1b9e77;stroke-linecap:square;stroke-opacity:0.5;stroke-width:1.5;"/>
   </g>
   <g id="line2d_46">
    <path clip-path="url(#p7ebf4f29dd)" d="M 61.535795 165.941524 
L 76.974531 165.912833 
L 92.413266 165.927139 
L 107.852001 165.933768 
L 123.290736 165.850055 
L 138.729471 165.332971 
L 154.168207 164.274626 
L 169.606942 163.112949 
L 185.045677 161.704544 
L 200.484412 160.200503 
L 215.923147 159.571109 
L 231.361882 155.92816 
L 246.800618 162.796812 
L 262.239353 155.146021 
L 277.678088 157.75361 
L 293.116823 149.796251 
L 308.555558 157.719093 
L 323.994293 153.344187 
L 339.433029 135.673451 
L 354.871764 115.597289 
L 370.310499 136.172244 
L 385.749234 154.513013 
L 401.187969 163.656456 
L 416.626705 164.705121 
" style="fill:none;stroke:#1b9e77;stroke-linecap:square;stroke-opacity:0.5;stroke-width:1.5;"/>
   </g>
   <g id="line2d_47">
    <path clip-path="url(#p7ebf4f29dd)" d="M 61.535795 165.814523 
L 76.974531 165.185609 
L 92.413266 165.242699 
L 107.852001 165.485422 
L 123.290736 165.548083 
L 138.729471 165.718714 
L 154.168207 165.820755 
L 169.606942 165.886058 
L 185.045677 165.902266 
L 200.484412 165.93007 
L 215.923147 165.931256 
L 231.361882 165.562058 
L 246.800618 164.228023 
L 262.239353 165.885396 
L 277.678088 165.627858 
L 293.116823 151.371596 
L 308.555558 162.241677 
L 323.994293 155.973658 
L 339.433029 132.798094 
L 354.871764 136.834464 
L 370.310499 63.75689 
L 385.749234 163.480317 
L 401.187969 163.202882 
L 416.626705 153.135368 
" style="fill:none;stroke:#1b9e77;stroke-linecap:square;stroke-opacity:0.5;stroke-width:1.5;"/>
   </g>
   <g id="line2d_48">
    <path clip-path="url(#p7ebf4f29dd)" d="M 61.535795 150.530161 
L 76.974531 110.666939 
L 92.413266 113.793188 
L 107.852001 136.351959 
L 123.290736 141.743775 
L 138.729471 155.6908 
L 154.168207 162.233273 
L 169.606942 163.139184 
L 185.045677 162.06271 
L 200.484412 163.995611 
L 215.923147 165.283162 
L 231.361882 165.354422 
L 246.800618 165.070698 
L 262.239353 164.083484 
L 277.678088 163.714562 
L 293.116823 164.239858 
L 308.555558 164.4045 
L 323.994293 164.753395 
L 339.433029 165.05118 
L 354.871764 165.510987 
L 370.310499 165.734711 
L 385.749234 165.90271 
L 401.187969 165.87672 
L 416.626705 161.375737 
" style="fill:none;stroke:#1b9e77;stroke-linecap:square;stroke-opacity:0.5;stroke-width:1.5;"/>
   </g>
   <g id="line2d_49">
    <path clip-path="url(#p7ebf4f29dd)" d="M 61.535795 165.707708 
L 76.974531 165.117984 
L 92.413266 165.394127 
L 107.852001 165.664323 
L 123.290736 165.766684 
L 138.729471 165.848842 
L 154.168207 165.87823 
L 169.606942 165.925869 
L 185.045677 165.935295 
L 200.484412 165.933996 
L 215.923147 165.909331 
L 231.361882 165.778719 
L 246.800618 162.490655 
L 262.239353 158.493475 
L 277.678088 155.156836 
L 293.116823 143.841344 
L 308.555558 122.630413 
L 323.994293 100.754656 
L 339.433029 126.460867 
L 354.871764 145.687014 
L 370.310499 165.533058 
L 385.749234 165.38768 
L 401.187969 165.482001 
L 416.626705 165.784613 
" style="fill:none;stroke:#1b9e77;stroke-linecap:square;stroke-opacity:0.5;stroke-width:1.5;"/>
   </g>
   <g id="line2d_50">
    <path clip-path="url(#p7ebf4f29dd)" d="M 61.535795 165.390311 
L 76.974531 165.803572 
L 92.413266 165.56537 
L 107.852001 159.118576 
L 123.290736 76.176752 
L 138.729471 125.181215 
L 154.168207 165.534646 
L 169.606942 165.719114 
L 185.045677 164.851043 
L 200.484412 160.45433 
L 215.923147 159.155636 
L 231.361882 162.780015 
L 246.800618 164.823854 
L 262.239353 154.950466 
L 277.678088 153.134945 
L 293.116823 157.10732 
L 308.555558 155.244849 
L 323.994293 151.559895 
L 339.433029 165.224364 
L 354.871764 165.583649 
L 370.310499 165.675227 
L 385.749234 165.794645 
L 401.187969 165.790532 
L 416.626705 165.943398 
" style="fill:none;stroke:#1b9e77;stroke-linecap:square;stroke-opacity:0.5;stroke-width:1.5;"/>
   </g>
   <g id="line2d_51">
    <path clip-path="url(#p7ebf4f29dd)" d="M 61.535795 163.429106 
L 76.974531 165.052138 
L 92.413266 162.71487 
L 107.852001 162.519274 
L 123.290736 146.096215 
L 138.729471 162.008565 
L 154.168207 165.739311 
L 169.606942 162.755643 
L 185.045677 150.622852 
L 200.484412 132.223428 
L 215.923147 144.490202 
L 231.361882 140.872771 
L 246.800618 140.093535 
L 262.239353 135.172543 
L 277.678088 159.335659 
L 293.116823 162.25052 
L 308.555558 162.752994 
L 323.994293 162.35721 
L 339.433029 162.858376 
L 354.871764 164.143043 
L 370.310499 164.490268 
L 385.749234 165.497264 
L 401.187969 165.284184 
L 416.626705 163.803758 
" style="fill:none;stroke:#1b9e77;stroke-linecap:square;stroke-opacity:0.5;stroke-width:1.5;"/>
   </g>
   <g id="line2d_52">
    <path clip-path="url(#p7ebf4f29dd)" d="M 61.535795 165.441702 
L 76.974531 165.613353 
L 92.413266 153.349257 
L 107.852001 164.071131 
L 123.290736 156.707678 
L 138.729471 15.911581 
L 154.168207 158.390146 
L 169.606942 163.762923 
L 185.045677 162.973833 
L 200.484412 163.719078 
L 215.923147 158.641382 
L 231.361882 149.36769 
L 246.800618 164.840401 
L 262.239353 165.446425 
L 277.678088 165.69368 
L 293.116823 165.771849 
L 308.555558 165.812821 
L 323.994293 165.893502 
L 339.433029 165.780624 
L 354.871764 165.831038 
L 370.310499 165.903905 
L 385.749234 165.942549 
L 401.187969 165.93254 
L 416.626705 165.764632 
" style="fill:none;stroke:#1b9e77;stroke-linecap:square;stroke-opacity:0.5;stroke-width:1.5;"/>
   </g>
   <g id="line2d_53">
    <path clip-path="url(#p7ebf4f29dd)" d="M 61.535795 164.856887 
L 76.974531 151.328333 
L 92.413266 143.780977 
L 107.852001 130.519469 
L 123.290736 89.854017 
L 138.729471 141.11682 
L 154.168207 164.083883 
L 169.606942 165.440772 
L 185.045677 165.781533 
L 200.484412 163.350036 
L 215.923147 144.446119 
L 231.361882 164.021841 
L 246.800618 163.136871 
L 262.239353 161.241423 
L 277.678088 164.024319 
L 293.116823 164.805529 
L 308.555558 164.912478 
L 323.994293 165.216611 
L 339.433029 165.516338 
L 354.871764 165.686752 
L 370.310499 165.733037 
L 385.749234 165.861403 
L 401.187969 165.915775 
L 416.626705 165.932501 
" style="fill:none;stroke:#1b9e77;stroke-linecap:square;stroke-opacity:0.5;stroke-width:1.5;"/>
   </g>
   <g id="line2d_54">
    <path clip-path="url(#p7ebf4f29dd)" d="M 61.535795 165.885191 
L 76.974531 165.657341 
L 92.413266 165.56951 
L 107.852001 165.650742 
L 123.290736 165.339586 
L 138.729471 164.174625 
L 154.168207 139.942891 
L 169.606942 121.971415 
L 185.045677 109.984508 
L 200.484412 127.400887 
L 215.923147 155.740479 
L 231.361882 131.651317 
L 246.800618 165.681738 
L 262.239353 164.998585 
L 277.678088 165.230586 
L 293.116823 165.4925 
L 308.555558 165.6043 
L 323.994293 165.684636 
L 339.433029 165.714748 
L 354.871764 165.837154 
L 370.310499 165.912141 
L 385.749234 165.949303 
L 401.187969 165.923395 
L 416.626705 165.566144 
" style="fill:none;stroke:#1b9e77;stroke-linecap:square;stroke-opacity:0.5;stroke-width:1.5;"/>
   </g>
   <g id="line2d_55">
    <path clip-path="url(#p7ebf4f29dd)" d="M 61.535795 165.138972 
L 76.974531 116.159125 
L 92.413266 162.020615 
L 107.852001 112.407222 
L 123.290736 103.901233 
L 138.729471 164.042356 
L 154.168207 163.795654 
L 169.606942 147.095557 
L 185.045677 147.78326 
L 200.484412 165.340994 
L 215.923147 165.519785 
L 231.361882 165.674443 
L 246.800618 165.796585 
L 262.239353 163.680919 
L 277.678088 165.849255 
L 293.116823 165.904375 
L 308.555558 165.903498 
L 323.994293 165.924224 
L 339.433029 165.927813 
L 354.871764 165.931679 
L 370.310499 165.919119 
L 385.749234 165.818455 
L 401.187969 165.453635 
L 416.626705 165.57495 
" style="fill:none;stroke:#1b9e77;stroke-linecap:square;stroke-opacity:0.5;stroke-width:1.5;"/>
   </g>
   <g id="line2d_56">
    <path clip-path="url(#p7ebf4f29dd)" d="M 61.535795 165.593869 
L 76.974531 164.192782 
L 92.413266 164.07187 
L 107.852001 164.798946 
L 123.290736 164.826258 
L 138.729471 165.230156 
L 154.168207 165.379424 
L 169.606942 164.995679 
L 185.045677 164.213229 
L 200.484412 164.560795 
L 215.923147 165.183466 
L 231.361882 165.404 
L 246.800618 165.491536 
L 262.239353 165.535838 
L 277.678088 165.651994 
L 293.116823 165.611125 
L 308.555558 165.065214 
L 323.994293 165.223605 
L 339.433029 164.21354 
L 354.871764 159.223197 
L 370.310499 145.728625 
L 385.749234 102.474243 
L 401.187969 74.566065 
L 416.626705 149.328261 
" style="fill:none;stroke:#1b9e77;stroke-linecap:square;stroke-opacity:0.5;stroke-width:1.5;"/>
   </g>
   <g id="line2d_57">
    <path clip-path="url(#p7ebf4f29dd)" d="M 61.535795 165.797178 
L 76.974531 165.183067 
L 92.413266 165.311185 
L 107.852001 165.532607 
L 123.290736 165.518473 
L 138.729471 165.62436 
L 154.168207 165.666689 
L 169.606942 165.720484 
L 185.045677 165.59271 
L 200.484412 165.380034 
L 215.923147 164.084604 
L 231.361882 113.557965 
L 246.800618 137.876989 
L 262.239353 74.80939 
L 277.678088 145.302939 
L 293.116823 159.838792 
L 308.555558 160.114721 
L 323.994293 162.38064 
L 339.433029 165.200645 
L 354.871764 165.477839 
L 370.310499 165.515904 
L 385.749234 165.864752 
L 401.187969 165.826841 
L 416.626705 165.384923 
" style="fill:none;stroke:#1b9e77;stroke-linecap:square;stroke-opacity:0.5;stroke-width:1.5;"/>
   </g>
   <g id="line2d_58">
    <path clip-path="url(#p7ebf4f29dd)" d="M 61.535795 163.358259 
L 76.974531 162.023611 
L 92.413266 158.886447 
L 107.852001 164.271617 
L 123.290736 164.590781 
L 138.729471 164.815054 
L 154.168207 165.412844 
L 169.606942 165.652177 
L 185.045677 165.642265 
L 200.484412 165.66323 
L 215.923147 165.689489 
L 231.361882 165.876148 
L 246.800618 165.908326 
L 262.239353 165.628482 
L 277.678088 163.83203 
L 293.116823 147.690794 
L 308.555558 144.572783 
L 323.994293 159.67893 
L 339.433029 164.105664 
L 354.871764 164.014336 
L 370.310499 124.728686 
L 385.749234 114.13519 
L 401.187969 122.885389 
L 416.626705 157.501186 
" style="fill:none;stroke:#1b9e77;stroke-linecap:square;stroke-opacity:0.5;stroke-width:1.5;"/>
   </g>
   <g id="line2d_59">
    <path clip-path="url(#p7ebf4f29dd)" d="M 61.535795 165.889564 
L 76.974531 165.749801 
L 92.413266 165.814888 
L 107.852001 165.87709 
L 123.290736 165.869219 
L 138.729471 165.91909 
L 154.168207 165.867466 
L 169.606942 164.774949 
L 185.045677 162.811729 
L 200.484412 164.593014 
L 215.923147 152.975029 
L 231.361882 84.605968 
L 246.800618 147.378399 
L 262.239353 162.27458 
L 277.678088 163.441848 
L 293.116823 150.03761 
L 308.555558 102.38389 
L 323.994293 164.994437 
L 339.433029 165.921356 
L 354.871764 165.661166 
L 370.310499 162.316135 
L 385.749234 163.785989 
L 401.187969 162.784699 
L 416.626705 164.835802 
" style="fill:none;stroke:#1b9e77;stroke-linecap:square;stroke-opacity:0.5;stroke-width:1.5;"/>
   </g>
   <g id="line2d_60">
    <path clip-path="url(#p7ebf4f29dd)" d="M 61.535795 155.624043 
L 76.974531 160.395017 
L 92.413266 163.569811 
L 107.852001 164.14724 
L 123.290736 159.491041 
L 138.729471 141.281531 
L 154.168207 164.038002 
L 169.606942 165.582512 
L 185.045677 165.23085 
L 200.484412 154.049043 
L 215.923147 126.65811 
L 231.361882 132.600743 
L 246.800618 163.665119 
L 262.239353 163.430004 
L 277.678088 118.432325 
L 293.116823 152.780024 
L 308.555558 165.21047 
L 323.994293 163.079265 
L 339.433029 160.418424 
L 354.871764 165.554217 
L 370.310499 165.854771 
L 385.749234 165.916573 
L 401.187969 164.424652 
L 416.626705 165.129938 
" style="fill:none;stroke:#1b9e77;stroke-linecap:square;stroke-opacity:0.5;stroke-width:1.5;"/>
   </g>
   <g id="line2d_61">
    <path clip-path="url(#p7ebf4f29dd)" d="M 61.535795 160.249936 
L 76.974531 160.44453 
L 92.413266 162.972008 
L 107.852001 165.128164 
L 123.290736 165.577447 
L 138.729471 165.823805 
L 154.168207 165.826075 
L 169.606942 165.625133 
L 185.045677 156.85128 
L 200.484412 131.763046 
L 215.923147 137.996421 
L 231.361882 156.053076 
L 246.800618 163.28641 
L 262.239353 76.647791 
L 277.678088 158.002429 
L 293.116823 164.019394 
L 308.555558 160.458142 
L 323.994293 161.75428 
L 339.433029 164.260607 
L 354.871764 164.706613 
L 370.310499 164.079716 
L 385.749234 164.57728 
L 401.187969 165.300003 
L 416.626705 165.160137 
" style="fill:none;stroke:#1b9e77;stroke-linecap:square;stroke-opacity:0.5;stroke-width:1.5;"/>
   </g>
   <g id="line2d_62">
    <path clip-path="url(#p7ebf4f29dd)" d="M 61.535795 165.931174 
L 76.974531 165.894219 
L 92.413266 165.913268 
L 107.852001 165.951394 
L 123.290736 165.944132 
L 138.729471 165.882625 
L 154.168207 165.401314 
L 169.606942 163.88473 
L 185.045677 161.72326 
L 200.484412 158.025051 
L 215.923147 155.29695 
L 231.361882 134.922672 
L 246.800618 151.66538 
L 262.239353 117.425991 
L 277.678088 160.088581 
L 293.116823 164.730467 
L 308.555558 163.998242 
L 323.994293 163.003237 
L 339.433029 152.463342 
L 354.871764 127.101021 
L 370.310499 150.824092 
L 385.749234 164.412493 
L 401.187969 163.740365 
L 416.626705 152.339724 
" style="fill:none;stroke:#1b9e77;stroke-linecap:square;stroke-opacity:0.5;stroke-width:1.5;"/>
   </g>
   <g id="line2d_63">
    <path clip-path="url(#p7ebf4f29dd)" d="M 61.535795 163.820037 
L 76.974531 161.967007 
L 92.413266 163.359077 
L 107.852001 164.786278 
L 123.290736 165.150965 
L 138.729471 165.408395 
L 154.168207 165.48697 
L 169.606942 165.734132 
L 185.045677 165.828414 
L 200.484412 165.735526 
L 215.923147 165.452473 
L 231.361882 165.194548 
L 246.800618 165.366634 
L 262.239353 165.716935 
L 277.678088 165.814623 
L 293.116823 165.747493 
L 308.555558 165.467113 
L 323.994293 165.575277 
L 339.433029 159.3538 
L 354.871764 57.603783 
L 370.310499 111.913804 
L 385.749234 149.533552 
L 401.187969 158.788109 
L 416.626705 157.758789 
" style="fill:none;stroke:#1b9e77;stroke-linecap:square;stroke-opacity:0.5;stroke-width:1.5;"/>
   </g>
   <g id="line2d_64">
    <path clip-path="url(#p7ebf4f29dd)" d="M 61.535795 165.841526 
L 76.974531 165.548346 
L 92.413266 165.67454 
L 107.852001 165.8285 
L 123.290736 165.87253 
L 138.729471 165.918935 
L 154.168207 165.9246 
L 169.606942 165.785673 
L 185.045677 164.270915 
L 200.484412 162.576028 
L 215.923147 158.250823 
L 231.361882 151.470402 
L 246.800618 150.685462 
L 262.239353 155.113413 
L 277.678088 157.212764 
L 293.116823 146.953069 
L 308.555558 127.641077 
L 323.994293 119.163183 
L 339.433029 129.12043 
L 354.871764 157.529832 
L 370.310499 164.613295 
L 385.749234 164.797872 
L 401.187969 164.949358 
L 416.626705 165.821156 
" style="fill:none;stroke:#1b9e77;stroke-linecap:square;stroke-opacity:0.5;stroke-width:1.5;"/>
   </g>
   <g id="line2d_65">
    <path clip-path="url(#p7ebf4f29dd)" d="M 61.535795 165.910575 
L 76.974531 165.778332 
L 92.413266 165.255914 
L 107.852001 165.014056 
L 123.290736 163.512509 
L 138.729471 164.441436 
L 154.168207 81.163077 
L 169.606942 112.502569 
L 185.045677 152.757513 
L 200.484412 143.287478 
L 215.923147 157.940602 
L 231.361882 164.493091 
L 246.800618 165.274499 
L 262.239353 161.69591 
L 277.678088 160.123161 
L 293.116823 161.354356 
L 308.555558 164.007906 
L 323.994293 160.156182 
L 339.433029 164.100113 
L 354.871764 165.004055 
L 370.310499 165.320769 
L 385.749234 165.755175 
L 401.187969 165.869772 
L 416.626705 165.844669 
" style="fill:none;stroke:#1b9e77;stroke-linecap:square;stroke-opacity:0.5;stroke-width:1.5;"/>
   </g>
   <g id="line2d_66">
    <path clip-path="url(#p7ebf4f29dd)" d="M 61.535795 151.161558 
L 76.974531 147.146439 
L 92.413266 113.735593 
L 107.852001 150.533234 
L 123.290736 149.766122 
L 138.729471 162.351613 
L 154.168207 165.773452 
L 169.606942 165.887125 
L 185.045677 165.908744 
L 200.484412 165.892628 
L 215.923147 165.920508 
L 231.361882 165.914313 
L 246.800618 165.738938 
L 262.239353 165.217961 
L 277.678088 158.208625 
L 293.116823 120.585217 
L 308.555558 155.847325 
L 323.994293 162.714914 
L 339.433029 159.597218 
L 354.871764 159.364318 
L 370.310499 159.46315 
L 385.749234 164.776324 
L 401.187969 165.73864 
L 416.626705 159.31976 
" style="fill:none;stroke:#1b9e77;stroke-linecap:square;stroke-opacity:0.5;stroke-width:1.5;"/>
   </g>
   <g id="line2d_67">
    <path clip-path="url(#p7ebf4f29dd)" d="M 61.535795 165.789648 
L 76.974531 165.818583 
L 92.413266 164.311765 
L 107.852001 165.597783 
L 123.290736 164.752963 
L 138.729471 104.309909 
L 154.168207 152.797403 
L 169.606942 163.464576 
L 185.045677 154.514543 
L 200.484412 158.539337 
L 215.923147 146.99967 
L 231.361882 72.763938 
L 246.800618 163.01426 
L 262.239353 165.412307 
L 277.678088 165.559456 
L 293.116823 165.75061 
L 308.555558 165.805407 
L 323.994293 165.840768 
L 339.433029 165.857258 
L 354.871764 165.899873 
L 370.310499 165.927419 
L 385.749234 165.946063 
L 401.187969 165.945776 
L 416.626705 165.94442 
" style="fill:none;stroke:#1b9e77;stroke-linecap:square;stroke-opacity:0.5;stroke-width:1.5;"/>
   </g>
   <g id="line2d_68">
    <path clip-path="url(#p7ebf4f29dd)" d="M 61.535795 141.804387 
L 76.974531 127.400079 
L 92.413266 144.40155 
L 107.852001 154.96631 
L 123.290736 164.136997 
L 138.729471 165.033215 
L 154.168207 164.964311 
L 169.606942 164.565226 
L 185.045677 163.226118 
L 200.484412 163.670277 
L 215.923147 164.836226 
L 231.361882 165.542145 
L 246.800618 161.399915 
L 262.239353 155.595074 
L 277.678088 163.488117 
L 293.116823 163.78524 
L 308.555558 149.930666 
L 323.994293 136.728409 
L 339.433029 144.554938 
L 354.871764 159.214288 
L 370.310499 159.153986 
L 385.749234 160.337412 
L 401.187969 161.935615 
L 416.626705 165.893228 
" style="fill:none;stroke:#1b9e77;stroke-linecap:square;stroke-opacity:0.5;stroke-width:1.5;"/>
   </g>
   <g id="line2d_69">
    <path clip-path="url(#p7ebf4f29dd)" d="M 61.535795 165.664237 
L 76.974531 165.184523 
L 92.413266 165.332117 
L 107.852001 165.668444 
L 123.290736 165.777785 
L 138.729471 165.879809 
L 154.168207 165.904128 
L 169.606942 165.880356 
L 185.045677 165.817819 
L 200.484412 165.820557 
L 215.923147 165.870917 
L 231.361882 165.887653 
L 246.800618 165.887449 
L 262.239353 165.90628 
L 277.678088 165.864891 
L 293.116823 163.772693 
L 308.555558 159.185054 
L 323.994293 152.392724 
L 339.433029 130.160394 
L 354.871764 122.494015 
L 370.310499 96.293403 
L 385.749234 143.555922 
L 401.187969 147.345968 
L 416.626705 165.016597 
" style="fill:none;stroke:#1b9e77;stroke-linecap:square;stroke-opacity:0.5;stroke-width:1.5;"/>
   </g>
   <g id="line2d_70">
    <path clip-path="url(#p7ebf4f29dd)" d="M 61.535795 163.58656 
L 76.974531 152.781547 
L 92.413266 148.963679 
L 107.852001 146.785688 
L 123.290736 147.858955 
L 138.729471 156.200551 
L 154.168207 157.034404 
L 169.606942 158.411712 
L 185.045677 145.048744 
L 200.484412 76.208809 
L 215.923147 161.158072 
L 231.361882 164.504605 
L 246.800618 164.599575 
L 262.239353 165.202004 
L 277.678088 165.721399 
L 293.116823 165.78206 
L 308.555558 165.705864 
L 323.994293 165.78477 
L 339.433029 165.867072 
L 354.871764 165.911402 
L 370.310499 165.917166 
L 385.749234 165.942801 
L 401.187969 165.926632 
L 416.626705 165.659655 
" style="fill:none;stroke:#1b9e77;stroke-linecap:square;stroke-opacity:0.5;stroke-width:1.5;"/>
   </g>
   <g id="line2d_71">
    <path clip-path="url(#p7ebf4f29dd)" d="M 61.535795 154.873301 
L 76.974531 111.814928 
L 92.413266 125.13749 
L 107.852001 133.12833 
L 123.290736 144.585495 
L 138.729471 160.171699 
L 154.168207 162.109431 
L 169.606942 162.80097 
L 185.045677 162.304248 
L 200.484412 158.761074 
L 215.923147 160.860727 
L 231.361882 153.453335 
L 246.800618 156.180014 
L 262.239353 162.717595 
L 277.678088 165.607667 
L 293.116823 165.753357 
L 308.555558 165.585211 
L 323.994293 165.642224 
L 339.433029 165.767899 
L 354.871764 165.826475 
L 370.310499 165.828729 
L 385.749234 165.909226 
L 401.187969 165.933096 
L 416.626705 165.811209 
" style="fill:none;stroke:#1b9e77;stroke-linecap:square;stroke-opacity:0.5;stroke-width:1.5;"/>
   </g>
   <g id="line2d_72">
    <path clip-path="url(#p7ebf4f29dd)" d="M 61.535795 164.995659 
L 76.974531 165.853931 
L 92.413266 165.649258 
L 107.852001 165.649425 
L 123.290736 164.929271 
L 138.729471 165.810661 
L 154.168207 165.920845 
L 169.606942 165.83631 
L 185.045677 165.694709 
L 200.484412 165.456783 
L 215.923147 162.470456 
L 231.361882 163.907388 
L 246.800618 162.523435 
L 262.239353 151.147055 
L 277.678088 152.244469 
L 293.116823 156.462765 
L 308.555558 159.900981 
L 323.994293 162.985476 
L 339.433029 162.291434 
L 354.871764 143.371859 
L 370.310499 101.618376 
L 385.749234 120.05405 
L 401.187969 152.13901 
L 416.626705 159.65012 
" style="fill:none;stroke:#1b9e77;stroke-linecap:square;stroke-opacity:0.5;stroke-width:1.5;"/>
   </g>
   <g id="line2d_73">
    <path clip-path="url(#p7ebf4f29dd)" d="M 61.535795 165.549651 
L 76.974531 164.825587 
L 92.413266 165.303824 
L 107.852001 165.684082 
L 123.290736 165.756357 
L 138.729471 165.833318 
L 154.168207 163.214772 
L 169.606942 161.240629 
L 185.045677 157.432065 
L 200.484412 146.632667 
L 215.923147 158.897427 
L 231.361882 165.782944 
L 246.800618 165.708216 
L 262.239353 164.341203 
L 277.678088 165.450042 
L 293.116823 165.048553 
L 308.555558 164.903258 
L 323.994293 165.119955 
L 339.433029 164.002136 
L 354.871764 146.483343 
L 370.310499 122.81781 
L 385.749234 121.136079 
L 401.187969 119.759723 
L 416.626705 155.64009 
" style="fill:none;stroke:#1b9e77;stroke-linecap:square;stroke-opacity:0.5;stroke-width:1.5;"/>
   </g>
   <g id="line2d_74">
    <path clip-path="url(#p7ebf4f29dd)" d="M 61.535795 126.53674 
L 76.974531 93.217937 
L 92.413266 107.303157 
L 107.852001 137.871748 
L 123.290736 160.139728 
L 138.729471 161.740196 
L 154.168207 164.144213 
L 169.606942 165.056084 
L 185.045677 165.158374 
L 200.484412 165.245062 
L 215.923147 165.302332 
L 231.361882 165.777199 
L 246.800618 165.927333 
L 262.239353 165.902919 
L 277.678088 165.946638 
L 293.116823 165.900235 
L 308.555558 165.706039 
L 323.994293 165.78519 
L 339.433029 165.796968 
L 354.871764 165.78767 
L 370.310499 165.581169 
L 385.749234 165.424057 
L 401.187969 165.426046 
L 416.626705 165.886694 
" style="fill:none;stroke:#1b9e77;stroke-linecap:square;stroke-opacity:0.5;stroke-width:1.5;"/>
   </g>
   <g id="line2d_75">
    <path clip-path="url(#p7ebf4f29dd)" d="M 61.535795 165.876334 
L 76.974531 165.700745 
L 92.413266 165.751046 
L 107.852001 165.761032 
L 123.290736 165.724603 
L 138.729471 165.763082 
L 154.168207 165.822143 
L 169.606942 165.851853 
L 185.045677 165.823828 
L 200.484412 165.839404 
L 215.923147 165.876449 
L 231.361882 165.902533 
L 246.800618 165.914192 
L 262.239353 165.888318 
L 277.678088 165.787754 
L 293.116823 165.862855 
L 308.555558 165.186091 
L 323.994293 157.487503 
L 339.433029 142.845445 
L 354.871764 160.681548 
L 370.310499 141.266149 
L 385.749234 23.433551 
L 401.187969 160.465387 
L 416.626705 162.051888 
" style="fill:none;stroke:#1b9e77;stroke-linecap:square;stroke-opacity:0.5;stroke-width:1.5;"/>
   </g>
   <g id="line2d_76">
    <path clip-path="url(#p7ebf4f29dd)" d="M 61.535795 164.43248 
L 76.974531 163.392633 
L 92.413266 164.162462 
L 107.852001 164.736927 
L 123.290736 165.002438 
L 138.729471 165.397141 
L 154.168207 165.624007 
L 169.606942 165.795958 
L 185.045677 165.839896 
L 200.484412 165.863754 
L 215.923147 165.774096 
L 231.361882 165.864579 
L 246.800618 165.767618 
L 262.239353 161.310965 
L 277.678088 152.021926 
L 293.116823 146.43087 
L 308.555558 117.641081 
L 323.994293 154.416265 
L 339.433029 116.837337 
L 354.871764 147.535062 
L 370.310499 154.839692 
L 385.749234 142.431254 
L 401.187969 160.216272 
L 416.626705 165.229012 
" style="fill:none;stroke:#1b9e77;stroke-linecap:square;stroke-opacity:0.5;stroke-width:1.5;"/>
   </g>
   <g id="line2d_77">
    <path clip-path="url(#p7ebf4f29dd)" d="M 61.535795 126.749877 
L 76.974531 134.824409 
L 92.413266 144.018832 
L 107.852001 71.385289 
L 123.290736 145.465353 
L 138.729471 163.790293 
L 154.168207 164.838221 
L 169.606942 165.294391 
L 185.045677 165.252581 
L 200.484412 164.799208 
L 215.923147 165.262645 
L 231.361882 165.76178 
L 246.800618 165.712575 
L 262.239353 165.739079 
L 277.678088 165.831849 
L 293.116823 165.762819 
L 308.555558 165.664243 
L 323.994293 165.567978 
L 339.433029 165.626988 
L 354.871764 165.739891 
L 370.310499 165.786984 
L 385.749234 165.884539 
L 401.187969 165.917187 
L 416.626705 165.886716 
" style="fill:none;stroke:#1b9e77;stroke-linecap:square;stroke-opacity:0.5;stroke-width:1.5;"/>
   </g>
   <g id="line2d_78">
    <path clip-path="url(#p7ebf4f29dd)" d="M 61.535795 165.815016 
L 76.974531 165.233404 
L 92.413266 165.448257 
L 107.852001 165.698849 
L 123.290736 165.770366 
L 138.729471 165.897048 
L 154.168207 165.928584 
L 169.606942 165.941493 
L 185.045677 165.904862 
L 200.484412 164.724581 
L 215.923147 155.44594 
L 231.361882 156.095295 
L 246.800618 145.594553 
L 262.239353 155.896531 
L 277.678088 148.282214 
L 293.116823 153.475533 
L 308.555558 158.238633 
L 323.994293 157.239392 
L 339.433029 156.161439 
L 354.871764 158.753889 
L 370.310499 148.860323 
L 385.749234 118.532784 
L 401.187969 132.270119 
L 416.626705 165.354622 
" style="fill:none;stroke:#1b9e77;stroke-linecap:square;stroke-opacity:0.5;stroke-width:1.5;"/>
   </g>
   <g id="line2d_79">
    <path clip-path="url(#p7ebf4f29dd)" d="M 61.535795 154.148864 
L 76.974531 104.137898 
L 92.413266 128.208531 
L 107.852001 160.917722 
L 123.290736 163.442709 
L 138.729471 164.217399 
L 154.168207 165.284121 
L 169.606942 165.432113 
L 185.045677 165.030062 
L 200.484412 165.294784 
L 215.923147 165.529036 
L 231.361882 164.96566 
L 246.800618 164.324304 
L 262.239353 165.02741 
L 277.678088 164.304576 
L 293.116823 131.744846 
L 308.555558 131.662622 
L 323.994293 153.444239 
L 339.433029 163.988018 
L 354.871764 164.817748 
L 370.310499 165.074736 
L 385.749234 164.451127 
L 401.187969 165.23577 
L 416.626705 165.879426 
" style="fill:none;stroke:#1b9e77;stroke-linecap:square;stroke-opacity:0.5;stroke-width:1.5;"/>
   </g>
   <g id="line2d_80">
    <path clip-path="url(#p7ebf4f29dd)" d="M 61.535795 165.36589 
L 76.974531 164.673594 
L 92.413266 164.609906 
L 107.852001 165.453643 
L 123.290736 165.630274 
L 138.729471 165.42048 
L 154.168207 162.358018 
L 169.606942 159.469811 
L 185.045677 163.212626 
L 200.484412 157.971603 
L 215.923147 87.380937 
L 231.361882 82.381291 
L 246.800618 152.909928 
L 262.239353 160.36073 
L 277.678088 162.871493 
L 293.116823 164.174617 
L 308.555558 164.795699 
L 323.994293 164.92852 
L 339.433029 164.895388 
L 354.871764 165.08355 
L 370.310499 165.300704 
L 385.749234 165.747314 
L 401.187969 165.865295 
L 416.626705 165.702411 
" style="fill:none;stroke:#1b9e77;stroke-linecap:square;stroke-opacity:0.5;stroke-width:1.5;"/>
   </g>
   <g id="line2d_81">
    <path clip-path="url(#p7ebf4f29dd)" d="M 61.535795 137.613034 
L 76.974531 75.625435 
L 92.413266 127.372565 
L 107.852001 152.706279 
L 123.290736 161.924458 
L 138.729471 156.465376 
L 154.168207 164.756111 
L 169.606942 165.760194 
L 185.045677 165.201396 
L 200.484412 154.105223 
L 215.923147 162.980376 
L 231.361882 163.41427 
L 246.800618 163.043153 
L 262.239353 161.906341 
L 277.678088 164.50223 
L 293.116823 165.158208 
L 308.555558 164.91731 
L 323.994293 165.43079 
L 339.433029 165.775922 
L 354.871764 165.797538 
L 370.310499 165.785689 
L 385.749234 165.794165 
L 401.187969 165.812046 
L 416.626705 164.715627 
" style="fill:none;stroke:#1b9e77;stroke-linecap:square;stroke-opacity:0.5;stroke-width:1.5;"/>
   </g>
   <g id="line2d_82">
    <path clip-path="url(#p7ebf4f29dd)" d="M 61.535795 164.527934 
L 76.974531 163.945031 
L 92.413266 161.494562 
L 107.852001 161.242373 
L 123.290736 156.439256 
L 138.729471 149.758885 
L 154.168207 149.989495 
L 169.606942 149.018766 
L 185.045677 140.404025 
L 200.484412 132.820419 
L 215.923147 146.709949 
L 231.361882 115.177945 
L 246.800618 163.415367 
L 262.239353 159.597843 
L 277.678088 162.302996 
L 293.116823 164.271079 
L 308.555558 165.078506 
L 323.994293 165.419884 
L 339.433029 165.601343 
L 354.871764 165.858403 
L 370.310499 165.869603 
L 385.749234 165.893268 
L 401.187969 165.892871 
L 416.626705 165.833927 
" style="fill:none;stroke:#1b9e77;stroke-linecap:square;stroke-opacity:0.5;stroke-width:1.5;"/>
   </g>
   <g id="line2d_83">
    <path clip-path="url(#p7ebf4f29dd)" d="M 61.535795 162.917747 
L 76.974531 143.185866 
L 92.413266 136.922844 
L 107.852001 110.911453 
L 123.290736 89.036066 
L 138.729471 156.32539 
L 154.168207 163.458511 
L 169.606942 164.336071 
L 185.045677 157.967425 
L 200.484412 160.888515 
L 215.923147 165.253339 
L 231.361882 165.692336 
L 246.800618 165.53164 
L 262.239353 165.6931 
L 277.678088 165.837864 
L 293.116823 165.847779 
L 308.555558 165.77015 
L 323.994293 165.710263 
L 339.433029 165.772163 
L 354.871764 165.855814 
L 370.310499 165.887417 
L 385.749234 165.922695 
L 401.187969 165.929908 
L 416.626705 165.909364 
" style="fill:none;stroke:#1b9e77;stroke-linecap:square;stroke-opacity:0.5;stroke-width:1.5;"/>
   </g>
   <g id="line2d_84">
    <path clip-path="url(#p7ebf4f29dd)" d="M 61.535795 163.729502 
L 76.974531 155.828539 
L 92.413266 143.708835 
L 107.852001 162.531812 
L 123.290736 163.926018 
L 138.729471 157.471801 
L 154.168207 160.462869 
L 169.606942 160.232647 
L 185.045677 148.1074 
L 200.484412 162.654045 
L 215.923147 96.292999 
L 231.361882 117.7086 
L 246.800618 157.748944 
L 262.239353 161.569082 
L 277.678088 162.789204 
L 293.116823 165.352765 
L 308.555558 165.850445 
L 323.994293 165.920919 
L 339.433029 165.938849 
L 354.871764 165.938955 
L 370.310499 165.908156 
L 385.749234 165.938636 
L 401.187969 165.851105 
L 416.626705 165.101601 
" style="fill:none;stroke:#1b9e77;stroke-linecap:square;stroke-opacity:0.5;stroke-width:1.5;"/>
   </g>
   <g id="line2d_85">
    <path clip-path="url(#p7ebf4f29dd)" d="M 61.535795 165.80584 
L 76.974531 165.928937 
L 92.413266 165.944316 
L 107.852001 165.945392 
L 123.290736 165.850402 
L 138.729471 165.265597 
L 154.168207 164.640347 
L 169.606942 165.146957 
L 185.045677 165.04943 
L 200.484412 162.127201 
L 215.923147 155.539392 
L 231.361882 109.225163 
L 246.800618 111.136837 
L 262.239353 142.433395 
L 277.678088 151.52145 
L 293.116823 159.476914 
L 308.555558 163.422655 
L 323.994293 157.23971 
L 339.433029 163.722985 
L 354.871764 162.271291 
L 370.310499 156.27061 
L 385.749234 151.871805 
L 401.187969 164.91119 
L 416.626705 165.815915 
" style="fill:none;stroke:#1b9e77;stroke-linecap:square;stroke-opacity:0.5;stroke-width:1.5;"/>
   </g>
   <g id="line2d_86">
    <path clip-path="url(#p7ebf4f29dd)" d="M 61.535795 162.225419 
L 76.974531 157.887407 
L 92.413266 142.319569 
L 107.852001 132.832026 
L 123.290736 128.731555 
L 138.729471 126.287398 
L 154.168207 161.179158 
L 169.606942 161.988727 
L 185.045677 144.162709 
L 200.484412 151.662543 
L 215.923147 160.560139 
L 231.361882 160.27801 
L 246.800618 163.017495 
L 262.239353 160.970084 
L 277.678088 163.975543 
L 293.116823 164.36846 
L 308.555558 164.892049 
L 323.994293 165.186429 
L 339.433029 165.301346 
L 354.871764 165.670727 
L 370.310499 165.864689 
L 385.749234 165.894534 
L 401.187969 165.717206 
L 416.626705 165.590503 
" style="fill:none;stroke:#1b9e77;stroke-linecap:square;stroke-opacity:0.5;stroke-width:1.5;"/>
   </g>
   <g id="line2d_87">
    <path clip-path="url(#p7ebf4f29dd)" d="M 61.535795 159.183526 
L 76.974531 139.077069 
L 92.413266 120.425964 
L 107.852001 120.690814 
L 123.290736 146.655802 
L 138.729471 157.058 
L 154.168207 159.974499 
L 169.606942 163.784153 
L 185.045677 164.977831 
L 200.484412 164.891777 
L 215.923147 164.378063 
L 231.361882 165.288542 
L 246.800618 165.666994 
L 262.239353 145.209773 
L 277.678088 145.512651 
L 293.116823 162.314021 
L 308.555558 164.755636 
L 323.994293 165.071843 
L 339.433029 165.487261 
L 354.871764 165.470256 
L 370.310499 165.118069 
L 385.749234 165.465703 
L 401.187969 165.769529 
L 416.626705 164.335956 
" style="fill:none;stroke:#1b9e77;stroke-linecap:square;stroke-opacity:0.5;stroke-width:1.5;"/>
   </g>
   <g id="line2d_88">
    <path clip-path="url(#p7ebf4f29dd)" d="M 61.535795 165.684898 
L 76.974531 165.273427 
L 92.413266 165.442983 
L 107.852001 165.765477 
L 123.290736 165.867088 
L 138.729471 165.912538 
L 154.168207 165.918117 
L 169.606942 165.924562 
L 185.045677 165.919931 
L 200.484412 165.903854 
L 215.923147 165.76331 
L 231.361882 165.344105 
L 246.800618 165.843668 
L 262.239353 165.715854 
L 277.678088 165.587253 
L 293.116823 161.314135 
L 308.555558 153.240711 
L 323.994293 161.587385 
L 339.433029 164.759424 
L 354.871764 158.785241 
L 370.310499 97.326359 
L 385.749234 105.569138 
L 401.187969 121.893299 
L 416.626705 156.220965 
" style="fill:none;stroke:#1b9e77;stroke-linecap:square;stroke-opacity:0.5;stroke-width:1.5;"/>
   </g>
   <g id="line2d_89">
    <path clip-path="url(#p7ebf4f29dd)" d="M 61.535795 165.878724 
L 76.974531 165.550405 
L 92.413266 165.531998 
L 107.852001 165.741217 
L 123.290736 165.810933 
L 138.729471 165.901806 
L 154.168207 165.797638 
L 169.606942 165.705667 
L 185.045677 165.683253 
L 200.484412 164.148547 
L 215.923147 159.217458 
L 231.361882 153.57805 
L 246.800618 151.840879 
L 262.239353 147.457765 
L 277.678088 130.457937 
L 293.116823 97.484517 
L 308.555558 148.7816 
L 323.994293 133.910392 
L 339.433029 162.418295 
L 354.871764 164.759279 
L 370.310499 164.863865 
L 385.749234 165.193649 
L 401.187969 165.114794 
L 416.626705 165.735058 
" style="fill:none;stroke:#1b9e77;stroke-linecap:square;stroke-opacity:0.5;stroke-width:1.5;"/>
   </g>
   <g id="line2d_90">
    <path clip-path="url(#p7ebf4f29dd)" d="M 61.535795 155.698818 
L 76.974531 150.485565 
L 92.413266 108.864876 
L 107.852001 140.645497 
L 123.290736 165.194492 
L 138.729471 163.416929 
L 154.168207 156.702755 
L 169.606942 163.502256 
L 185.045677 150.49381 
L 200.484412 113.089307 
L 215.923147 146.03796 
L 231.361882 165.004734 
L 246.800618 164.935342 
L 262.239353 164.997003 
L 277.678088 165.360207 
L 293.116823 165.543201 
L 308.555558 165.611923 
L 323.994293 165.675096 
L 339.433029 165.709761 
L 354.871764 165.833291 
L 370.310499 165.907073 
L 385.749234 165.94852 
L 401.187969 165.953761 
L 416.626705 165.951549 
" style="fill:none;stroke:#1b9e77;stroke-linecap:square;stroke-opacity:0.5;stroke-width:1.5;"/>
   </g>
   <g id="line2d_91">
    <path clip-path="url(#p7ebf4f29dd)" d="M 61.535795 163.811597 
L 76.974531 162.721821 
L 92.413266 160.059932 
L 107.852001 154.758516 
L 123.290736 143.715202 
L 138.729471 133.65949 
L 154.168207 150.409669 
L 169.606942 139.566248 
L 185.045677 146.299848 
L 200.484412 111.278808 
L 215.923147 151.346815 
L 231.361882 159.774824 
L 246.800618 165.672451 
L 262.239353 165.364829 
L 277.678088 165.572879 
L 293.116823 165.702861 
L 308.555558 165.739985 
L 323.994293 165.795892 
L 339.433029 165.821929 
L 354.871764 165.879027 
L 370.310499 165.903009 
L 385.749234 165.939747 
L 401.187969 165.939668 
L 416.626705 165.828677 
" style="fill:none;stroke:#1b9e77;stroke-linecap:square;stroke-opacity:0.5;stroke-width:1.5;"/>
   </g>
   <g id="line2d_92">
    <path clip-path="url(#p7ebf4f29dd)" d="M 61.535795 148.702059 
L 76.974531 114.097425 
L 92.413266 117.917302 
L 107.852001 136.089235 
L 123.290736 143.842536 
L 138.729471 154.821247 
L 154.168207 158.858198 
L 169.606942 162.879869 
L 185.045677 164.320133 
L 200.484412 165.170109 
L 215.923147 165.429176 
L 231.361882 165.394596 
L 246.800618 165.009181 
L 262.239353 165.083293 
L 277.678088 165.45005 
L 293.116823 165.397168 
L 308.555558 165.095683 
L 323.994293 164.763963 
L 339.433029 164.900941 
L 354.871764 165.525201 
L 370.310499 165.703903 
L 385.749234 165.84598 
L 401.187969 165.677844 
L 416.626705 150.588637 
" style="fill:none;stroke:#1b9e77;stroke-linecap:square;stroke-opacity:0.5;stroke-width:1.5;"/>
   </g>
   <g id="line2d_93">
    <path clip-path="url(#p7ebf4f29dd)" d="M 61.535795 165.875659 
L 76.974531 165.799664 
L 92.413266 165.855557 
L 107.852001 165.915988 
L 123.290736 165.899553 
L 138.729471 165.682651 
L 154.168207 156.655674 
L 169.606942 153.022749 
L 185.045677 159.264561 
L 200.484412 158.227782 
L 215.923147 161.956059 
L 231.361882 164.516465 
L 246.800618 165.726173 
L 262.239353 165.502044 
L 277.678088 161.448022 
L 293.116823 164.482248 
L 308.555558 165.653583 
L 323.994293 165.790951 
L 339.433029 162.224854 
L 354.871764 163.79101 
L 370.310499 14.76 
L 385.749234 161.036243 
L 401.187969 164.329722 
L 416.626705 163.146523 
" style="fill:none;stroke:#1b9e77;stroke-linecap:square;stroke-opacity:0.5;stroke-width:1.5;"/>
   </g>
   <g id="line2d_94">
    <path clip-path="url(#p7ebf4f29dd)" d="M 61.535795 160.976077 
L 76.974531 156.092721 
L 92.413266 160.031002 
L 107.852001 162.628882 
L 123.290736 162.472105 
L 138.729471 163.244807 
L 154.168207 163.508525 
L 169.606942 162.516814 
L 185.045677 163.422885 
L 200.484412 164.974541 
L 215.923147 164.563256 
L 231.361882 160.872122 
L 246.800618 160.326568 
L 262.239353 162.971772 
L 277.678088 154.051203 
L 293.116823 147.735203 
L 308.555558 132.554331 
L 323.994293 153.303837 
L 339.433029 154.438628 
L 354.871764 148.55399 
L 370.310499 145.132605 
L 385.749234 154.161581 
L 401.187969 144.543403 
L 416.626705 163.486869 
" style="fill:none;stroke:#1b9e77;stroke-linecap:square;stroke-opacity:0.5;stroke-width:1.5;"/>
   </g>
   <g id="line2d_95">
    <path clip-path="url(#p7ebf4f29dd)" d="M 61.535795 156.03355 
L 76.974531 142.572777 
L 92.413266 160.078302 
L 107.852001 164.01394 
L 123.290736 161.654294 
L 138.729471 156.328015 
L 154.168207 139.306884 
L 169.606942 148.504244 
L 185.045677 146.428415 
L 200.484412 137.324694 
L 215.923147 149.79647 
L 231.361882 161.508173 
L 246.800618 161.504362 
L 262.239353 155.945982 
L 277.678088 158.797714 
L 293.116823 162.349298 
L 308.555558 157.033919 
L 323.994293 160.152966 
L 339.433029 164.717142 
L 354.871764 164.341747 
L 370.310499 164.159894 
L 385.749234 162.700705 
L 401.187969 165.436568 
L 416.626705 165.873675 
" style="fill:none;stroke:#1b9e77;stroke-linecap:square;stroke-opacity:0.5;stroke-width:1.5;"/>
   </g>
   <g id="line2d_96">
    <path clip-path="url(#p7ebf4f29dd)" d="M 61.535795 165.650685 
L 76.974531 165.087939 
L 92.413266 165.348237 
L 107.852001 165.647372 
L 123.290736 165.734073 
L 138.729471 165.817512 
L 154.168207 165.801551 
L 169.606942 165.495889 
L 185.045677 152.697053 
L 200.484412 146.282307 
L 215.923147 133.938132 
L 231.361882 140.959612 
L 246.800618 116.543037 
L 262.239353 111.769425 
L 277.678088 149.94726 
L 293.116823 165.703812 
L 308.555558 164.710722 
L 323.994293 164.873402 
L 339.433029 165.419262 
L 354.871764 165.714846 
L 370.310499 165.779272 
L 385.749234 165.869564 
L 401.187969 165.899491 
L 416.626705 165.873273 
" style="fill:none;stroke:#1b9e77;stroke-linecap:square;stroke-opacity:0.5;stroke-width:1.5;"/>
   </g>
   <g id="line2d_97">
    <path clip-path="url(#p7ebf4f29dd)" d="M 61.535795 164.611786 
L 76.974531 141.994476 
L 92.413266 115.677105 
L 107.852001 63.7486 
L 123.290736 153.988496 
L 138.729471 165.420652 
L 154.168207 165.717004 
L 169.606942 165.834451 
L 185.045677 165.838922 
L 200.484412 165.682079 
L 215.923147 165.635531 
L 231.361882 165.659101 
L 246.800618 161.366973 
L 262.239353 158.190717 
L 277.678088 163.979827 
L 293.116823 163.542036 
L 308.555558 163.235283 
L 323.994293 162.376248 
L 339.433029 164.829046 
L 354.871764 165.714494 
L 370.310499 165.865549 
L 385.749234 165.882428 
L 401.187969 165.911972 
L 416.626705 165.86095 
" style="fill:none;stroke:#1b9e77;stroke-linecap:square;stroke-opacity:0.5;stroke-width:1.5;"/>
   </g>
   <g id="line2d_98">
    <path clip-path="url(#p7ebf4f29dd)" d="M 61.535795 165.62052 
L 76.974531 165.497446 
L 92.413266 165.383717 
L 107.852001 165.667953 
L 123.290736 165.28233 
L 138.729471 148.596436 
L 154.168207 153.319777 
L 169.606942 146.55327 
L 185.045677 113.599037 
L 200.484412 144.2654 
L 215.923147 165.703364 
L 231.361882 165.286404 
L 246.800618 153.915885 
L 262.239353 152.930573 
L 277.678088 157.249306 
L 293.116823 160.190866 
L 308.555558 164.820802 
L 323.994293 160.083486 
L 339.433029 164.904419 
L 354.871764 164.67036 
L 370.310499 147.204526 
L 385.749234 150.776067 
L 401.187969 159.528834 
L 416.626705 165.512952 
" style="fill:none;stroke:#1b9e77;stroke-linecap:square;stroke-opacity:0.5;stroke-width:1.5;"/>
   </g>
   <g id="line2d_99">
    <path clip-path="url(#p7ebf4f29dd)" d="M 61.535795 164.491016 
L 76.974531 152.327 
L 92.413266 73.958379 
L 107.852001 94.043249 
L 123.290736 150.879169 
L 138.729471 158.200073 
L 154.168207 162.145748 
L 169.606942 164.230535 
L 185.045677 164.528669 
L 200.484412 164.562581 
L 215.923147 164.704699 
L 231.361882 165.374752 
L 246.800618 165.756006 
L 262.239353 165.88576 
L 277.678088 165.902388 
L 293.116823 165.861006 
L 308.555558 165.797722 
L 323.994293 165.832477 
L 339.433029 165.827798 
L 354.871764 165.669752 
L 370.310499 165.689543 
L 385.749234 165.733055 
L 401.187969 165.671148 
L 416.626705 163.491201 
" style="fill:none;stroke:#1b9e77;stroke-linecap:square;stroke-opacity:0.5;stroke-width:1.5;"/>
   </g>
   <g id="line2d_100">
    <path clip-path="url(#p7ebf4f29dd)" d="M 61.535795 151.387079 
L 76.974531 131.36721 
L 92.413266 128.642104 
L 107.852001 131.428826 
L 123.290736 153.347646 
L 138.729471 141.998262 
L 154.168207 161.439269 
L 169.606942 163.978811 
L 185.045677 159.21614 
L 200.484412 139.375292 
L 215.923147 152.812152 
L 231.361882 164.291869 
L 246.800618 164.952345 
L 262.239353 164.971179 
L 277.678088 165.334044 
L 293.116823 165.504423 
L 308.555558 165.521265 
L 323.994293 165.677682 
L 339.433029 165.783092 
L 354.871764 165.875113 
L 370.310499 165.907222 
L 385.749234 165.947655 
L 401.187969 165.952597 
L 416.626705 165.852448 
" style="fill:none;stroke:#1b9e77;stroke-linecap:square;stroke-opacity:0.5;stroke-width:1.5;"/>
   </g>
   <g id="line2d_101">
    <path clip-path="url(#p7ebf4f29dd)" d="M 61.535795 165.888449 
L 76.974531 157.401609 
L 92.413266 153.817123 
L 107.852001 119.865458 
L 123.290736 145.969227 
L 138.729471 162.976972 
L 154.168207 157.799209 
L 169.606942 146.213362 
L 185.045677 165.5592 
L 200.484412 155.522885 
L 215.923147 144.000719 
L 231.361882 106.959088 
L 246.800618 164.416286 
L 262.239353 165.877726 
L 277.678088 165.565165 
L 293.116823 163.481055 
L 308.555558 164.805582 
L 323.994293 165.924649 
L 339.433029 165.931453 
L 354.871764 165.883599 
L 370.310499 165.658861 
L 385.749234 165.802593 
L 401.187969 165.956719 
L 416.626705 165.286737 
" style="fill:none;stroke:#1b9e77;stroke-linecap:square;stroke-opacity:0.5;stroke-width:1.5;"/>
   </g>
   <g id="line2d_102">
    <path clip-path="url(#p7ebf4f29dd)" d="M 61.535795 156.550346 
L 76.974531 150.037916 
L 92.413266 150.816216 
L 107.852001 159.227567 
L 123.290736 162.236997 
L 138.729471 164.64234 
L 154.168207 165.331553 
L 169.606942 165.539725 
L 185.045677 165.525825 
L 200.484412 165.714848 
L 215.923147 165.606994 
L 231.361882 164.193131 
L 246.800618 164.329828 
L 262.239353 164.619126 
L 277.678088 161.898471 
L 293.116823 98.660235 
L 308.555558 90.35349 
L 323.994293 162.020865 
L 339.433029 165.06169 
L 354.871764 165.38645 
L 370.310499 165.445679 
L 385.749234 165.495932 
L 401.187969 165.236781 
L 416.626705 162.63173 
" style="fill:none;stroke:#1b9e77;stroke-linecap:square;stroke-opacity:0.5;stroke-width:1.5;"/>
   </g>
   <g id="line2d_103">
    <path clip-path="url(#p7ebf4f29dd)" d="M 61.535795 165.678498 
L 76.974531 164.857769 
L 92.413266 164.979703 
L 107.852001 165.366527 
L 123.290736 165.489129 
L 138.729471 165.741097 
L 154.168207 165.846746 
L 169.606942 165.879146 
L 185.045677 165.870764 
L 200.484412 165.864889 
L 215.923147 165.875954 
L 231.361882 165.861551 
L 246.800618 165.854829 
L 262.239353 165.744066 
L 277.678088 165.106226 
L 293.116823 165.546565 
L 308.555558 163.961666 
L 323.994293 155.580316 
L 339.433029 110.901684 
L 354.871764 92.366212 
L 370.310499 116.129557 
L 385.749234 156.663612 
L 401.187969 164.405145 
L 416.626705 156.992065 
" style="fill:none;stroke:#1b9e77;stroke-linecap:square;stroke-opacity:0.5;stroke-width:1.5;"/>
   </g>
   <g id="line2d_104">
    <path clip-path="url(#p7ebf4f29dd)" d="M 61.535795 150.527661 
L 76.974531 131.671831 
L 92.413266 126.909378 
L 107.852001 138.883638 
L 123.290736 142.839933 
L 138.729471 156.304331 
L 154.168207 162.394412 
L 169.606942 164.354559 
L 185.045677 164.512949 
L 200.484412 165.368272 
L 215.923147 165.716152 
L 231.361882 165.294885 
L 246.800618 163.539452 
L 262.239353 165.509205 
L 277.678088 165.135245 
L 293.116823 164.823313 
L 308.555558 164.862544 
L 323.994293 164.705067 
L 339.433029 164.406616 
L 354.871764 164.589054 
L 370.310499 164.912898 
L 385.749234 165.613074 
L 401.187969 163.209543 
L 416.626705 120.479714 
" style="fill:none;stroke:#1b9e77;stroke-linecap:square;stroke-opacity:0.5;stroke-width:1.5;"/>
   </g>
   <g id="line2d_105">
    <path clip-path="url(#p7ebf4f29dd)" d="M 61.535795 165.802499 
L 76.974531 165.055199 
L 92.413266 163.6372 
L 107.852001 68.641447 
L 123.290736 147.310832 
L 138.729471 131.177302 
L 154.168207 154.869585 
L 169.606942 155.85723 
L 185.045677 146.949777 
L 200.484412 147.660392 
L 215.923147 165.230765 
L 231.361882 165.304863 
L 246.800618 165.242549 
L 262.239353 165.39744 
L 277.678088 165.648119 
L 293.116823 165.743222 
L 308.555558 165.738729 
L 323.994293 165.816238 
L 339.433029 165.873128 
L 354.871764 165.904219 
L 370.310499 165.927217 
L 385.749234 165.941981 
L 401.187969 165.945499 
L 416.626705 165.888297 
" style="fill:none;stroke:#1b9e77;stroke-linecap:square;stroke-opacity:0.5;stroke-width:1.5;"/>
   </g>
   <g id="line2d_106">
    <path clip-path="url(#p7ebf4f29dd)" d="M 61.535795 165.838104 
L 76.974531 165.449392 
L 92.413266 165.488443 
L 107.852001 165.707076 
L 123.290736 165.805043 
L 138.729471 165.876112 
L 154.168207 165.895988 
L 169.606942 165.91673 
L 185.045677 165.906564 
L 200.484412 165.89157 
L 215.923147 165.271979 
L 231.361882 154.932508 
L 246.800618 157.519143 
L 262.239353 158.41445 
L 277.678088 50.636834 
L 293.116823 155.19692 
L 308.555558 162.890997 
L 323.994293 149.285499 
L 339.433029 148.411174 
L 354.871764 159.633659 
L 370.310499 155.900687 
L 385.749234 161.200598 
L 401.187969 163.933269 
L 416.626705 165.561002 
" style="fill:none;stroke:#1b9e77;stroke-linecap:square;stroke-opacity:0.5;stroke-width:1.5;"/>
   </g>
   <g id="line2d_107">
    <path clip-path="url(#p7ebf4f29dd)" d="M 61.535795 165.740568 
L 76.974531 165.687571 
L 92.413266 161.427611 
L 107.852001 162.65224 
L 123.290736 117.319566 
L 138.729471 140.788695 
L 154.168207 163.469252 
L 169.606942 158.602318 
L 185.045677 80.196969 
L 200.484412 131.738357 
L 215.923147 165.42156 
L 231.361882 165.827374 
L 246.800618 165.025189 
L 262.239353 165.244332 
L 277.678088 165.671725 
L 293.116823 165.496677 
L 308.555558 165.496398 
L 323.994293 165.534646 
L 339.433029 165.696978 
L 354.871764 165.834266 
L 370.310499 165.887755 
L 385.749234 165.954377 
L 401.187969 165.96 
L 416.626705 165.889301 
" style="fill:none;stroke:#1b9e77;stroke-linecap:square;stroke-opacity:0.5;stroke-width:1.5;"/>
   </g>
   <g id="line2d_108">
    <path clip-path="url(#p7ebf4f29dd)" d="M 61.535795 165.259393 
L 76.974531 164.373518 
L 92.413266 164.727601 
L 107.852001 165.573437 
L 123.290736 165.767187 
L 138.729471 165.845904 
L 154.168207 165.700538 
L 169.606942 165.396987 
L 185.045677 164.787355 
L 200.484412 160.365629 
L 215.923147 140.13445 
L 231.361882 130.535703 
L 246.800618 153.800346 
L 262.239353 161.371714 
L 277.678088 161.132237 
L 293.116823 154.31917 
L 308.555558 155.722306 
L 323.994293 158.673851 
L 339.433029 162.459516 
L 354.871764 159.360874 
L 370.310499 153.449535 
L 385.749234 142.81195 
L 401.187969 134.549563 
L 416.626705 150.44496 
" style="fill:none;stroke:#1b9e77;stroke-linecap:square;stroke-opacity:0.5;stroke-width:1.5;"/>
   </g>
   <g id="line2d_109">
    <path clip-path="url(#p7ebf4f29dd)" d="M 61.535795 165.912809 
L 76.974531 165.86179 
L 92.413266 165.854592 
L 107.852001 164.695263 
L 123.290736 157.195448 
L 138.729471 153.045386 
L 154.168207 97.37592 
L 169.606942 157.659093 
L 185.045677 165.212916 
L 200.484412 165.630593 
L 215.923147 165.903173 
L 231.361882 165.920662 
L 246.800618 165.726697 
L 262.239353 165.015522 
L 277.678088 163.170103 
L 293.116823 164.605824 
L 308.555558 162.553068 
L 323.994293 155.353058 
L 339.433029 148.430634 
L 354.871764 132.638276 
L 370.310499 140.897493 
L 385.749234 157.785159 
L 401.187969 155.528997 
L 416.626705 164.591258 
" style="fill:none;stroke:#1b9e77;stroke-linecap:square;stroke-opacity:0.5;stroke-width:1.5;"/>
   </g>
   <g id="line2d_110">
    <path clip-path="url(#p7ebf4f29dd)" d="M 61.535795 165.912324 
L 76.974531 165.797858 
L 92.413266 165.715754 
L 107.852001 165.819303 
L 123.290736 164.815714 
L 138.729471 149.572418 
L 154.168207 147.824439 
L 169.606942 137.532173 
L 185.045677 122.253098 
L 200.484412 145.292155 
L 215.923147 163.592475 
L 231.361882 164.543894 
L 246.800618 157.957778 
L 262.239353 137.315946 
L 277.678088 162.333822 
L 293.116823 138.638083 
L 308.555558 152.988864 
L 323.994293 164.986868 
L 339.433029 165.193268 
L 354.871764 165.432693 
L 370.310499 165.529498 
L 385.749234 165.795617 
L 401.187969 165.83667 
L 416.626705 165.883016 
" style="fill:none;stroke:#1b9e77;stroke-linecap:square;stroke-opacity:0.5;stroke-width:1.5;"/>
   </g>
   <g id="line2d_111">
    <path clip-path="url(#p7ebf4f29dd)" d="M 61.535795 165.379798 
L 76.974531 152.656697 
L 92.413266 121.964297 
L 107.852001 135.179844 
L 123.290736 159.919487 
L 138.729471 162.120818 
L 154.168207 163.649225 
L 169.606942 164.503052 
L 185.045677 164.671495 
L 200.484412 165.104449 
L 215.923147 165.292057 
L 231.361882 165.613061 
L 246.800618 165.755064 
L 262.239353 165.866109 
L 277.678088 165.872495 
L 293.116823 163.433576 
L 308.555558 159.884275 
L 323.994293 154.570946 
L 339.433029 150.065296 
L 354.871764 150.691323 
L 370.310499 163.839117 
L 385.749234 152.899735 
L 401.187969 142.260802 
L 416.626705 145.370707 
" style="fill:none;stroke:#1b9e77;stroke-linecap:square;stroke-opacity:0.5;stroke-width:1.5;"/>
   </g>
   <g id="line2d_112">
    <path clip-path="url(#p7ebf4f29dd)" d="M 61.535795 165.695432 
L 76.974531 165.155339 
L 92.413266 165.386 
L 107.852001 165.660788 
L 123.290736 165.762543 
L 138.729471 165.801579 
L 154.168207 165.773529 
L 169.606942 165.878044 
L 185.045677 165.904239 
L 200.484412 165.641146 
L 215.923147 152.976165 
L 231.361882 143.448703 
L 246.800618 129.920797 
L 262.239353 126.422176 
L 277.678088 136.936081 
L 293.116823 144.690153 
L 308.555558 156.578013 
L 323.994293 140.782173 
L 339.433029 163.086434 
L 354.871764 164.92486 
L 370.310499 164.974978 
L 385.749234 161.013775 
L 401.187969 160.136499 
L 416.626705 164.014285 
" style="fill:none;stroke:#1b9e77;stroke-linecap:square;stroke-opacity:0.5;stroke-width:1.5;"/>
   </g>
   <g id="line2d_113">
    <path clip-path="url(#p7ebf4f29dd)" d="M 61.535795 165.882636 
L 76.974531 165.921681 
L 92.413266 165.948294 
L 107.852001 165.948294 
L 123.290736 165.948294 
L 138.729471 165.948294 
L 154.168207 165.851322 
L 169.606942 165.849984 
L 185.045677 165.838098 
L 200.484412 165.844444 
L 215.923147 164.122954 
L 231.361882 161.807062 
L 246.800618 140.19692 
L 262.239353 116.900172 
L 277.678088 132.874391 
L 293.116823 120.074786 
L 308.555558 130.962027 
L 323.994293 151.758846 
L 339.433029 161.054846 
L 354.871764 165.193213 
L 370.310499 165.546067 
L 385.749234 165.561769 
L 401.187969 165.694229 
L 416.626705 165.835081 
" style="fill:none;stroke:#d95f02;stroke-linecap:square;stroke-width:1.5;"/>
   </g>
   <g id="patch_3">
    <path d="M 43.78125 173.52 
L 43.78125 7.2 
" style="fill:none;stroke:#000000;stroke-linecap:square;stroke-linejoin:miter;stroke-width:0.8;"/>
   </g>
   <g id="patch_4">
    <path d="M 43.78125 173.52 
L 434.38125 173.52 
" style="fill:none;stroke:#000000;stroke-linecap:square;stroke-linejoin:miter;stroke-width:0.8;"/>
   </g>
   <g id="legend_1">
    <g id="patch_5">
     <path d="M 50.78125 29.878125 
L 101.948438 29.878125 
Q 103.948438 29.878125 103.948438 27.878125 
L 103.948438 14.2 
Q 103.948438 12.2 101.948438 12.2 
L 50.78125 12.2 
Q 48.78125 12.2 48.78125 14.2 
L 48.78125 27.878125 
Q 48.78125 29.878125 50.78125 29.878125 
z
" style="fill:#ffffff;opacity:0.8;stroke:#cccccc;stroke-linejoin:miter;"/>
    </g>
    <g id="line2d_114">
     <path d="M 52.78125 20.298438 
L 72.78125 20.298438 
" style="fill:none;stroke:#d95f02;stroke-linecap:square;stroke-width:1.5;"/>
    </g>
    <g id="line2d_115"/>
    <g id="text_15">
     <!-- real -->
     <defs>
      <path d="M 9.421875 75.984375 
L 18.40625 75.984375 
L 18.40625 0 
L 9.421875 0 
z
" id="DejaVuSans-108"/>
     </defs>
     <g transform="translate(80.78125 23.798438)scale(0.1 -0.1)">
      <use xlink:href="#DejaVuSans-114"/>
      <use x="41.082031" xlink:href="#DejaVuSans-101"/>
      <use x="102.605469" xlink:href="#DejaVuSans-97"/>
      <use x="163.884766" xlink:href="#DejaVuSans-108"/>
     </g>
    </g>
   </g>
  </g>
 </g>
 <defs>
  <clipPath id="p7ebf4f29dd">
   <rect height="166.32" width="390.6" x="43.78125" y="7.2"/>
  </clipPath>
 </defs>
</svg>
