<?xml version="1.0" encoding="utf-8" standalone="no"?>
<!DOCTYPE svg PUBLIC "-//W3C//DTD SVG 1.1//EN"
  "http://www.w3.org/Graphics/SVG/1.1/DTD/svg11.dtd">
<!-- Created with matplotlib (https://matplotlib.org/) -->
<svg height="211.07625pt" version="1.1" viewBox="0 0 436.087315 211.07625" width="436.087315pt" xmlns="http://www.w3.org/2000/svg" xmlns:xlink="http://www.w3.org/1999/xlink">
 <defs>
  <style type="text/css">
*{stroke-linecap:butt;stroke-linejoin:round;}
  </style>
 </defs>
 <g id="figure_1">
  <g id="patch_1">
   <path d="M 0 211.07625 
L 436.087315 211.07625 
L 436.087315 0 
L 0 0 
z
" style="fill:#ffffff;"/>
  </g>
  <g id="axes_1">
   <g id="patch_2">
    <path d="M 34.240625 173.52 
L 424.840625 173.52 
L 424.840625 7.2 
L 34.240625 7.2 
z
" style="fill:#ffffff;"/>
   </g>
   <g id="matplotlib.axis_1">
    <g id="xtick_1">
     <g id="line2d_1">
      <defs>
       <path d="M 0 0 
L 0 3.5 
" id="md78b8b1956" style="stroke:#000000;stroke-width:0.8;"/>
      </defs>
      <g>
       <use style="stroke:#000000;stroke-width:0.8;" x="36.556435" xlink:href="#md78b8b1956" y="173.52"/>
      </g>
     </g>
     <g id="text_1">
      <!-- 0 -->
      <defs>
       <path d="M 31.78125 66.40625 
Q 24.171875 66.40625 20.328125 58.90625 
Q 16.5 51.421875 16.5 36.375 
Q 16.5 21.390625 20.328125 13.890625 
Q 24.171875 6.390625 31.78125 6.390625 
Q 39.453125 6.390625 43.28125 13.890625 
Q 47.125 21.390625 47.125 36.375 
Q 47.125 51.421875 43.28125 58.90625 
Q 39.453125 66.40625 31.78125 66.40625 
z
M 31.78125 74.21875 
Q 44.046875 74.21875 50.515625 64.515625 
Q 56.984375 54.828125 56.984375 36.375 
Q 56.984375 17.96875 50.515625 8.265625 
Q 44.046875 -1.421875 31.78125 -1.421875 
Q 19.53125 -1.421875 13.0625 8.265625 
Q 6.59375 17.96875 6.59375 36.375 
Q 6.59375 54.828125 13.0625 64.515625 
Q 19.53125 74.21875 31.78125 74.21875 
z
" id="DejaVuSans-48"/>
      </defs>
      <g transform="translate(33.375185 188.118438)scale(0.1 -0.1)">
       <use xlink:href="#DejaVuSans-48"/>
      </g>
     </g>
    </g>
    <g id="xtick_2">
     <g id="line2d_2">
      <g>
       <use style="stroke:#000000;stroke-width:0.8;" x="113.750111" xlink:href="#md78b8b1956" y="173.52"/>
      </g>
     </g>
     <g id="text_2">
      <!-- 5 -->
      <defs>
       <path d="M 10.796875 72.90625 
L 49.515625 72.90625 
L 49.515625 64.59375 
L 19.828125 64.59375 
L 19.828125 46.734375 
Q 21.96875 47.46875 24.109375 47.828125 
Q 26.265625 48.1875 28.421875 48.1875 
Q 40.625 48.1875 47.75 41.5 
Q 54.890625 34.8125 54.890625 23.390625 
Q 54.890625 11.625 47.5625 5.09375 
Q 40.234375 -1.421875 26.90625 -1.421875 
Q 22.3125 -1.421875 17.546875 -0.640625 
Q 12.796875 0.140625 7.71875 1.703125 
L 7.71875 11.625 
Q 12.109375 9.234375 16.796875 8.0625 
Q 21.484375 6.890625 26.703125 6.890625 
Q 35.15625 6.890625 40.078125 11.328125 
Q 45.015625 15.765625 45.015625 23.390625 
Q 45.015625 31 40.078125 35.4375 
Q 35.15625 39.890625 26.703125 39.890625 
Q 22.75 39.890625 18.8125 39.015625 
Q 14.890625 38.140625 10.796875 36.28125 
z
" id="DejaVuSans-53"/>
      </defs>
      <g transform="translate(110.568861 188.118438)scale(0.1 -0.1)">
       <use xlink:href="#DejaVuSans-53"/>
      </g>
     </g>
    </g>
    <g id="xtick_3">
     <g id="line2d_3">
      <g>
       <use style="stroke:#000000;stroke-width:0.8;" x="190.943787" xlink:href="#md78b8b1956" y="173.52"/>
      </g>
     </g>
     <g id="text_3">
      <!-- 10 -->
      <defs>
       <path d="M 12.40625 8.296875 
L 28.515625 8.296875 
L 28.515625 63.921875 
L 10.984375 60.40625 
L 10.984375 69.390625 
L 28.421875 72.90625 
L 38.28125 72.90625 
L 38.28125 8.296875 
L 54.390625 8.296875 
L 54.390625 0 
L 12.40625 0 
z
" id="DejaVuSans-49"/>
      </defs>
      <g transform="translate(184.581287 188.118438)scale(0.1 -0.1)">
       <use xlink:href="#DejaVuSans-49"/>
       <use x="63.623047" xlink:href="#DejaVuSans-48"/>
      </g>
     </g>
    </g>
    <g id="xtick_4">
     <g id="line2d_4">
      <g>
       <use style="stroke:#000000;stroke-width:0.8;" x="268.137463" xlink:href="#md78b8b1956" y="173.52"/>
      </g>
     </g>
     <g id="text_4">
      <!-- 15 -->
      <g transform="translate(261.774963 188.118438)scale(0.1 -0.1)">
       <use xlink:href="#DejaVuSans-49"/>
       <use x="63.623047" xlink:href="#DejaVuSans-53"/>
      </g>
     </g>
    </g>
    <g id="xtick_5">
     <g id="line2d_5">
      <g>
       <use style="stroke:#000000;stroke-width:0.8;" x="345.331139" xlink:href="#md78b8b1956" y="173.52"/>
      </g>
     </g>
     <g id="text_5">
      <!-- 20 -->
      <defs>
       <path d="M 19.1875 8.296875 
L 53.609375 8.296875 
L 53.609375 0 
L 7.328125 0 
L 7.328125 8.296875 
Q 12.9375 14.109375 22.625 23.890625 
Q 32.328125 33.6875 34.8125 36.53125 
Q 39.546875 41.84375 41.421875 45.53125 
Q 43.3125 49.21875 43.3125 52.78125 
Q 43.3125 58.59375 39.234375 62.25 
Q 35.15625 65.921875 28.609375 65.921875 
Q 23.96875 65.921875 18.8125 64.3125 
Q 13.671875 62.703125 7.8125 59.421875 
L 7.8125 69.390625 
Q 13.765625 71.78125 18.9375 73 
Q 24.125 74.21875 28.421875 74.21875 
Q 39.75 74.21875 46.484375 68.546875 
Q 53.21875 62.890625 53.21875 53.421875 
Q 53.21875 48.921875 51.53125 44.890625 
Q 49.859375 40.875 45.40625 35.40625 
Q 44.1875 33.984375 37.640625 27.21875 
Q 31.109375 20.453125 19.1875 8.296875 
z
" id="DejaVuSans-50"/>
      </defs>
      <g transform="translate(338.968639 188.118438)scale(0.1 -0.1)">
       <use xlink:href="#DejaVuSans-50"/>
       <use x="63.623047" xlink:href="#DejaVuSans-48"/>
      </g>
     </g>
    </g>
    <g id="xtick_6">
     <g id="line2d_6">
      <g>
       <use style="stroke:#000000;stroke-width:0.8;" x="422.524815" xlink:href="#md78b8b1956" y="173.52"/>
      </g>
     </g>
     <g id="text_6">
      <!-- 25 -->
      <g transform="translate(416.162315 188.118438)scale(0.1 -0.1)">
       <use xlink:href="#DejaVuSans-50"/>
       <use x="63.623047" xlink:href="#DejaVuSans-53"/>
      </g>
     </g>
    </g>
    <g id="text_7">
     <!-- hour -->
     <defs>
      <path d="M 54.890625 33.015625 
L 54.890625 0 
L 45.90625 0 
L 45.90625 32.71875 
Q 45.90625 40.484375 42.875 44.328125 
Q 39.84375 48.1875 33.796875 48.1875 
Q 26.515625 48.1875 22.3125 43.546875 
Q 18.109375 38.921875 18.109375 30.90625 
L 18.109375 0 
L 9.078125 0 
L 9.078125 75.984375 
L 18.109375 75.984375 
L 18.109375 46.1875 
Q 21.34375 51.125 25.703125 53.5625 
Q 30.078125 56 35.796875 56 
Q 45.21875 56 50.046875 50.171875 
Q 54.890625 44.34375 54.890625 33.015625 
z
" id="DejaVuSans-104"/>
      <path d="M 30.609375 48.390625 
Q 23.390625 48.390625 19.1875 42.75 
Q 14.984375 37.109375 14.984375 27.296875 
Q 14.984375 17.484375 19.15625 11.84375 
Q 23.34375 6.203125 30.609375 6.203125 
Q 37.796875 6.203125 41.984375 11.859375 
Q 46.1875 17.53125 46.1875 27.296875 
Q 46.1875 37.015625 41.984375 42.703125 
Q 37.796875 48.390625 30.609375 48.390625 
z
M 30.609375 56 
Q 42.328125 56 49.015625 48.375 
Q 55.71875 40.765625 55.71875 27.296875 
Q 55.71875 13.875 49.015625 6.21875 
Q 42.328125 -1.421875 30.609375 -1.421875 
Q 18.84375 -1.421875 12.171875 6.21875 
Q 5.515625 13.875 5.515625 27.296875 
Q 5.515625 40.765625 12.171875 48.375 
Q 18.84375 56 30.609375 56 
z
" id="DejaVuSans-111"/>
      <path d="M 8.5 21.578125 
L 8.5 54.6875 
L 17.484375 54.6875 
L 17.484375 21.921875 
Q 17.484375 14.15625 20.5 10.265625 
Q 23.53125 6.390625 29.59375 6.390625 
Q 36.859375 6.390625 41.078125 11.03125 
Q 45.3125 15.671875 45.3125 23.6875 
L 45.3125 54.6875 
L 54.296875 54.6875 
L 54.296875 0 
L 45.3125 0 
L 45.3125 8.40625 
Q 42.046875 3.421875 37.71875 1 
Q 33.40625 -1.421875 27.6875 -1.421875 
Q 18.265625 -1.421875 13.375 4.4375 
Q 8.5 10.296875 8.5 21.578125 
z
M 31.109375 56 
z
" id="DejaVuSans-117"/>
      <path d="M 41.109375 46.296875 
Q 39.59375 47.171875 37.8125 47.578125 
Q 36.03125 48 33.890625 48 
Q 26.265625 48 22.1875 43.046875 
Q 18.109375 38.09375 18.109375 28.8125 
L 18.109375 0 
L 9.078125 0 
L 9.078125 54.6875 
L 18.109375 54.6875 
L 18.109375 46.1875 
Q 20.953125 51.171875 25.484375 53.578125 
Q 30.03125 56 36.53125 56 
Q 37.453125 56 38.578125 55.875 
Q 39.703125 55.765625 41.0625 55.515625 
z
" id="DejaVuSans-114"/>
     </defs>
     <g transform="translate(218.088281 201.796563)scale(0.1 -0.1)">
      <use xlink:href="#DejaVuSans-104"/>
      <use x="63.378906" xlink:href="#DejaVuSans-111"/>
      <use x="124.560547" xlink:href="#DejaVuSans-117"/>
      <use x="187.939453" xlink:href="#DejaVuSans-114"/>
     </g>
    </g>
   </g>
   <g id="matplotlib.axis_2">
    <g id="ytick_1">
     <g id="line2d_7">
      <defs>
       <path d="M 0 0 
L -3.5 0 
" id="mc7d95fa5da" style="stroke:#000000;stroke-width:0.8;"/>
      </defs>
      <g>
       <use style="stroke:#000000;stroke-width:0.8;" x="34.240625" xlink:href="#mc7d95fa5da" y="165.960533"/>
      </g>
     </g>
     <g id="text_8">
      <!-- 0 -->
      <g transform="translate(20.878125 169.759752)scale(0.1 -0.1)">
       <use xlink:href="#DejaVuSans-48"/>
      </g>
     </g>
    </g>
    <g id="ytick_2">
     <g id="line2d_8">
      <g>
       <use style="stroke:#000000;stroke-width:0.8;" x="34.240625" xlink:href="#mc7d95fa5da" y="130.752177"/>
      </g>
     </g>
     <g id="text_9">
      <!-- 1 -->
      <g transform="translate(20.878125 134.551396)scale(0.1 -0.1)">
       <use xlink:href="#DejaVuSans-49"/>
      </g>
     </g>
    </g>
    <g id="ytick_3">
     <g id="line2d_9">
      <g>
       <use style="stroke:#000000;stroke-width:0.8;" x="34.240625" xlink:href="#mc7d95fa5da" y="95.543822"/>
      </g>
     </g>
     <g id="text_10">
      <!-- 2 -->
      <g transform="translate(20.878125 99.34304)scale(0.1 -0.1)">
       <use xlink:href="#DejaVuSans-50"/>
      </g>
     </g>
    </g>
    <g id="ytick_4">
     <g id="line2d_10">
      <g>
       <use style="stroke:#000000;stroke-width:0.8;" x="34.240625" xlink:href="#mc7d95fa5da" y="60.335466"/>
      </g>
     </g>
     <g id="text_11">
      <!-- 3 -->
      <defs>
       <path d="M 40.578125 39.3125 
Q 47.65625 37.796875 51.625 33 
Q 55.609375 28.21875 55.609375 21.1875 
Q 55.609375 10.40625 48.1875 4.484375 
Q 40.765625 -1.421875 27.09375 -1.421875 
Q 22.515625 -1.421875 17.65625 -0.515625 
Q 12.796875 0.390625 7.625 2.203125 
L 7.625 11.71875 
Q 11.71875 9.328125 16.59375 8.109375 
Q 21.484375 6.890625 26.8125 6.890625 
Q 36.078125 6.890625 40.9375 10.546875 
Q 45.796875 14.203125 45.796875 21.1875 
Q 45.796875 27.640625 41.28125 31.265625 
Q 36.765625 34.90625 28.71875 34.90625 
L 20.21875 34.90625 
L 20.21875 43.015625 
L 29.109375 43.015625 
Q 36.375 43.015625 40.234375 45.921875 
Q 44.09375 48.828125 44.09375 54.296875 
Q 44.09375 59.90625 40.109375 62.90625 
Q 36.140625 65.921875 28.71875 65.921875 
Q 24.65625 65.921875 20.015625 65.03125 
Q 15.375 64.15625 9.8125 62.3125 
L 9.8125 71.09375 
Q 15.4375 72.65625 20.34375 73.4375 
Q 25.25 74.21875 29.59375 74.21875 
Q 40.828125 74.21875 47.359375 69.109375 
Q 53.90625 64.015625 53.90625 55.328125 
Q 53.90625 49.265625 50.4375 45.09375 
Q 46.96875 40.921875 40.578125 39.3125 
z
" id="DejaVuSans-51"/>
      </defs>
      <g transform="translate(20.878125 64.134685)scale(0.1 -0.1)">
       <use xlink:href="#DejaVuSans-51"/>
      </g>
     </g>
    </g>
    <g id="ytick_5">
     <g id="line2d_11">
      <g>
       <use style="stroke:#000000;stroke-width:0.8;" x="34.240625" xlink:href="#mc7d95fa5da" y="25.12711"/>
      </g>
     </g>
     <g id="text_12">
      <!-- 4 -->
      <defs>
       <path d="M 37.796875 64.3125 
L 12.890625 25.390625 
L 37.796875 25.390625 
z
M 35.203125 72.90625 
L 47.609375 72.90625 
L 47.609375 25.390625 
L 58.015625 25.390625 
L 58.015625 17.1875 
L 47.609375 17.1875 
L 47.609375 0 
L 37.796875 0 
L 37.796875 17.1875 
L 4.890625 17.1875 
L 4.890625 26.703125 
z
" id="DejaVuSans-52"/>
      </defs>
      <g transform="translate(20.878125 28.926329)scale(0.1 -0.1)">
       <use xlink:href="#DejaVuSans-52"/>
      </g>
     </g>
    </g>
    <g id="text_13">
     <!-- precipitation [mm/hour] -->
     <defs>
      <path d="M 18.109375 8.203125 
L 18.109375 -20.796875 
L 9.078125 -20.796875 
L 9.078125 54.6875 
L 18.109375 54.6875 
L 18.109375 46.390625 
Q 20.953125 51.265625 25.265625 53.625 
Q 29.59375 56 35.59375 56 
Q 45.5625 56 51.78125 48.09375 
Q 58.015625 40.1875 58.015625 27.296875 
Q 58.015625 14.40625 51.78125 6.484375 
Q 45.5625 -1.421875 35.59375 -1.421875 
Q 29.59375 -1.421875 25.265625 0.953125 
Q 20.953125 3.328125 18.109375 8.203125 
z
M 48.6875 27.296875 
Q 48.6875 37.203125 44.609375 42.84375 
Q 40.53125 48.484375 33.40625 48.484375 
Q 26.265625 48.484375 22.1875 42.84375 
Q 18.109375 37.203125 18.109375 27.296875 
Q 18.109375 17.390625 22.1875 11.75 
Q 26.265625 6.109375 33.40625 6.109375 
Q 40.53125 6.109375 44.609375 11.75 
Q 48.6875 17.390625 48.6875 27.296875 
z
" id="DejaVuSans-112"/>
      <path d="M 56.203125 29.59375 
L 56.203125 25.203125 
L 14.890625 25.203125 
Q 15.484375 15.921875 20.484375 11.0625 
Q 25.484375 6.203125 34.421875 6.203125 
Q 39.59375 6.203125 44.453125 7.46875 
Q 49.3125 8.734375 54.109375 11.28125 
L 54.109375 2.78125 
Q 49.265625 0.734375 44.1875 -0.34375 
Q 39.109375 -1.421875 33.890625 -1.421875 
Q 20.796875 -1.421875 13.15625 6.1875 
Q 5.515625 13.8125 5.515625 26.8125 
Q 5.515625 40.234375 12.765625 48.109375 
Q 20.015625 56 32.328125 56 
Q 43.359375 56 49.78125 48.890625 
Q 56.203125 41.796875 56.203125 29.59375 
z
M 47.21875 32.234375 
Q 47.125 39.59375 43.09375 43.984375 
Q 39.0625 48.390625 32.421875 48.390625 
Q 24.90625 48.390625 20.390625 44.140625 
Q 15.875 39.890625 15.1875 32.171875 
z
" id="DejaVuSans-101"/>
      <path d="M 48.78125 52.59375 
L 48.78125 44.1875 
Q 44.96875 46.296875 41.140625 47.34375 
Q 37.3125 48.390625 33.40625 48.390625 
Q 24.65625 48.390625 19.8125 42.84375 
Q 14.984375 37.3125 14.984375 27.296875 
Q 14.984375 17.28125 19.8125 11.734375 
Q 24.65625 6.203125 33.40625 6.203125 
Q 37.3125 6.203125 41.140625 7.25 
Q 44.96875 8.296875 48.78125 10.40625 
L 48.78125 2.09375 
Q 45.015625 0.34375 40.984375 -0.53125 
Q 36.96875 -1.421875 32.421875 -1.421875 
Q 20.0625 -1.421875 12.78125 6.34375 
Q 5.515625 14.109375 5.515625 27.296875 
Q 5.515625 40.671875 12.859375 48.328125 
Q 20.21875 56 33.015625 56 
Q 37.15625 56 41.109375 55.140625 
Q 45.0625 54.296875 48.78125 52.59375 
z
" id="DejaVuSans-99"/>
      <path d="M 9.421875 54.6875 
L 18.40625 54.6875 
L 18.40625 0 
L 9.421875 0 
z
M 9.421875 75.984375 
L 18.40625 75.984375 
L 18.40625 64.59375 
L 9.421875 64.59375 
z
" id="DejaVuSans-105"/>
      <path d="M 18.3125 70.21875 
L 18.3125 54.6875 
L 36.8125 54.6875 
L 36.8125 47.703125 
L 18.3125 47.703125 
L 18.3125 18.015625 
Q 18.3125 11.328125 20.140625 9.421875 
Q 21.96875 7.515625 27.59375 7.515625 
L 36.8125 7.515625 
L 36.8125 0 
L 27.59375 0 
Q 17.1875 0 13.234375 3.875 
Q 9.28125 7.765625 9.28125 18.015625 
L 9.28125 47.703125 
L 2.6875 47.703125 
L 2.6875 54.6875 
L 9.28125 54.6875 
L 9.28125 70.21875 
z
" id="DejaVuSans-116"/>
      <path d="M 34.28125 27.484375 
Q 23.390625 27.484375 19.1875 25 
Q 14.984375 22.515625 14.984375 16.5 
Q 14.984375 11.71875 18.140625 8.90625 
Q 21.296875 6.109375 26.703125 6.109375 
Q 34.1875 6.109375 38.703125 11.40625 
Q 43.21875 16.703125 43.21875 25.484375 
L 43.21875 27.484375 
z
M 52.203125 31.203125 
L 52.203125 0 
L 43.21875 0 
L 43.21875 8.296875 
Q 40.140625 3.328125 35.546875 0.953125 
Q 30.953125 -1.421875 24.3125 -1.421875 
Q 15.921875 -1.421875 10.953125 3.296875 
Q 6 8.015625 6 15.921875 
Q 6 25.140625 12.171875 29.828125 
Q 18.359375 34.515625 30.609375 34.515625 
L 43.21875 34.515625 
L 43.21875 35.40625 
Q 43.21875 41.609375 39.140625 45 
Q 35.0625 48.390625 27.6875 48.390625 
Q 23 48.390625 18.546875 47.265625 
Q 14.109375 46.140625 10.015625 43.890625 
L 10.015625 52.203125 
Q 14.9375 54.109375 19.578125 55.046875 
Q 24.21875 56 28.609375 56 
Q 40.484375 56 46.34375 49.84375 
Q 52.203125 43.703125 52.203125 31.203125 
z
" id="DejaVuSans-97"/>
      <path d="M 54.890625 33.015625 
L 54.890625 0 
L 45.90625 0 
L 45.90625 32.71875 
Q 45.90625 40.484375 42.875 44.328125 
Q 39.84375 48.1875 33.796875 48.1875 
Q 26.515625 48.1875 22.3125 43.546875 
Q 18.109375 38.921875 18.109375 30.90625 
L 18.109375 0 
L 9.078125 0 
L 9.078125 54.6875 
L 18.109375 54.6875 
L 18.109375 46.1875 
Q 21.34375 51.125 25.703125 53.5625 
Q 30.078125 56 35.796875 56 
Q 45.21875 56 50.046875 50.171875 
Q 54.890625 44.34375 54.890625 33.015625 
z
" id="DejaVuSans-110"/>
      <path id="DejaVuSans-32"/>
      <path d="M 8.59375 75.984375 
L 29.296875 75.984375 
L 29.296875 69 
L 17.578125 69 
L 17.578125 -6.203125 
L 29.296875 -6.203125 
L 29.296875 -13.1875 
L 8.59375 -13.1875 
z
" id="DejaVuSans-91"/>
      <path d="M 52 44.1875 
Q 55.375 50.25 60.0625 53.125 
Q 64.75 56 71.09375 56 
Q 79.640625 56 84.28125 50.015625 
Q 88.921875 44.046875 88.921875 33.015625 
L 88.921875 0 
L 79.890625 0 
L 79.890625 32.71875 
Q 79.890625 40.578125 77.09375 44.375 
Q 74.3125 48.1875 68.609375 48.1875 
Q 61.625 48.1875 57.5625 43.546875 
Q 53.515625 38.921875 53.515625 30.90625 
L 53.515625 0 
L 44.484375 0 
L 44.484375 32.71875 
Q 44.484375 40.625 41.703125 44.40625 
Q 38.921875 48.1875 33.109375 48.1875 
Q 26.21875 48.1875 22.15625 43.53125 
Q 18.109375 38.875 18.109375 30.90625 
L 18.109375 0 
L 9.078125 0 
L 9.078125 54.6875 
L 18.109375 54.6875 
L 18.109375 46.1875 
Q 21.1875 51.21875 25.484375 53.609375 
Q 29.78125 56 35.6875 56 
Q 41.65625 56 45.828125 52.96875 
Q 50 49.953125 52 44.1875 
z
" id="DejaVuSans-109"/>
      <path d="M 25.390625 72.90625 
L 33.6875 72.90625 
L 8.296875 -9.28125 
L 0 -9.28125 
z
" id="DejaVuSans-47"/>
      <path d="M 30.421875 75.984375 
L 30.421875 -13.1875 
L 9.71875 -13.1875 
L 9.71875 -6.203125 
L 21.390625 -6.203125 
L 21.390625 69 
L 9.71875 69 
L 9.71875 75.984375 
z
" id="DejaVuSans-93"/>
     </defs>
     <g transform="translate(14.798438 150.335781)rotate(-90)scale(0.1 -0.1)">
      <use xlink:href="#DejaVuSans-112"/>
      <use x="63.476562" xlink:href="#DejaVuSans-114"/>
      <use x="104.558594" xlink:href="#DejaVuSans-101"/>
      <use x="166.082031" xlink:href="#DejaVuSans-99"/>
      <use x="221.0625" xlink:href="#DejaVuSans-105"/>
      <use x="248.845703" xlink:href="#DejaVuSans-112"/>
      <use x="312.322266" xlink:href="#DejaVuSans-105"/>
      <use x="340.105469" xlink:href="#DejaVuSans-116"/>
      <use x="379.314453" xlink:href="#DejaVuSans-97"/>
      <use x="440.59375" xlink:href="#DejaVuSans-116"/>
      <use x="479.802734" xlink:href="#DejaVuSans-105"/>
      <use x="507.585938" xlink:href="#DejaVuSans-111"/>
      <use x="568.767578" xlink:href="#DejaVuSans-110"/>
      <use x="632.146484" xlink:href="#DejaVuSans-32"/>
      <use x="663.933594" xlink:href="#DejaVuSans-91"/>
      <use x="702.947266" xlink:href="#DejaVuSans-109"/>
      <use x="800.359375" xlink:href="#DejaVuSans-109"/>
      <use x="897.771484" xlink:href="#DejaVuSans-47"/>
      <use x="931.462891" xlink:href="#DejaVuSans-104"/>
      <use x="994.841797" xlink:href="#DejaVuSans-111"/>
      <use x="1056.023438" xlink:href="#DejaVuSans-117"/>
      <use x="1119.402344" xlink:href="#DejaVuSans-114"/>
      <use x="1160.515625" xlink:href="#DejaVuSans-93"/>
     </g>
    </g>
   </g>
   <g id="line2d_12">
    <path clip-path="url(#p531fea1ebc)" d="M 51.99517 165.27648 
L 67.433906 164.348393 
L 82.872641 164.176938 
L 98.311376 163.412483 
L 113.750111 160.062136 
L 129.188846 160.366751 
L 144.627582 162.741683 
L 160.066317 164.24435 
L 175.505052 157.62418 
L 190.943787 150.538985 
L 206.382522 151.31145 
L 221.821257 151.563561 
L 237.259993 160.725544 
L 252.698728 161.628986 
L 268.137463 158.47769 
L 283.576198 148.389714 
L 299.014933 147.872034 
L 314.453668 125.671713 
L 329.892404 109.974436 
L 345.331139 126.744369 
L 360.769874 139.626529 
L 376.208609 152.674172 
L 391.647344 163.735857 
L 407.08608 164.824075 
" style="fill:none;stroke:#1b9e77;stroke-linecap:square;stroke-opacity:0.5;stroke-width:1.5;"/>
   </g>
   <g id="line2d_13">
    <path clip-path="url(#p531fea1ebc)" d="M 51.99517 130.99035 
L 67.433906 142.334559 
L 82.872641 161.57893 
L 98.311376 161.625869 
L 113.750111 161.742615 
L 129.188846 156.91319 
L 144.627582 150.986277 
L 160.066317 162.398748 
L 175.505052 164.524223 
L 190.943787 164.774086 
L 206.382522 163.656482 
L 221.821257 133.638134 
L 237.259993 145.225209 
L 252.698728 144.605638 
L 268.137463 128.110311 
L 283.576198 149.640404 
L 299.014933 137.210398 
L 314.453668 142.129184 
L 329.892404 157.941078 
L 345.331139 161.433619 
L 360.769874 162.469631 
L 376.208609 162.552117 
L 391.647344 163.843435 
L 407.08608 165.688017 
" style="fill:none;stroke:#1b9e77;stroke-linecap:square;stroke-opacity:0.5;stroke-width:1.5;"/>
   </g>
   <g id="line2d_14">
    <path clip-path="url(#p531fea1ebc)" d="M 51.99517 165.408939 
L 67.433906 164.686439 
L 82.872641 164.376288 
L 98.311376 162.718083 
L 113.750111 127.307415 
L 129.188846 131.268651 
L 144.627582 152.135104 
L 160.066317 159.061402 
L 175.505052 155.055807 
L 190.943787 136.42201 
L 206.382522 91.896772 
L 221.821257 134.472631 
L 237.259993 160.331494 
L 252.698728 135.986178 
L 268.137463 155.23941 
L 283.576198 164.424334 
L 299.014933 164.810931 
L 314.453668 161.603361 
L 329.892404 163.498374 
L 345.331139 165.128332 
L 360.769874 165.258616 
L 376.208609 165.128722 
L 391.647344 164.47117 
L 407.08608 165.322044 
" style="fill:none;stroke:#1b9e77;stroke-linecap:square;stroke-opacity:0.5;stroke-width:1.5;"/>
   </g>
   <g id="line2d_15">
    <path clip-path="url(#p531fea1ebc)" d="M 51.99517 163.941523 
L 67.433906 163.537841 
L 82.872641 165.141521 
L 98.311376 165.112061 
L 113.750111 165.374485 
L 129.188846 165.623852 
L 144.627582 165.728007 
L 160.066317 165.714696 
L 175.505052 165.611878 
L 190.943787 164.695009 
L 206.382522 159.366471 
L 221.821257 165.430503 
L 237.259993 164.225378 
L 252.698728 141.478871 
L 268.137463 160.666581 
L 283.576198 157.382645 
L 299.014933 82.753899 
L 314.453668 117.661041 
L 329.892404 107.151685 
L 345.331139 129.880595 
L 360.769874 148.661766 
L 376.208609 159.257062 
L 391.647344 165.694503 
L 407.08608 165.920623 
" style="fill:none;stroke:#1b9e77;stroke-linecap:square;stroke-opacity:0.5;stroke-width:1.5;"/>
   </g>
   <g id="line2d_16">
    <path clip-path="url(#p531fea1ebc)" d="M 51.99517 159.309774 
L 67.433906 76.632127 
L 82.872641 110.220948 
L 98.311376 148.884708 
L 113.750111 159.652074 
L 129.188846 153.35575 
L 144.627582 143.489931 
L 160.066317 143.804016 
L 175.505052 157.358993 
L 190.943787 160.786806 
L 206.382522 162.329899 
L 221.821257 162.470668 
L 237.259993 163.471021 
L 252.698728 163.734434 
L 268.137463 163.91505 
L 283.576198 163.612083 
L 299.014933 163.860945 
L 314.453668 164.87581 
L 329.892404 164.922441 
L 345.331139 160.637616 
L 360.769874 144.937428 
L 376.208609 155.211145 
L 391.647344 162.754312 
L 407.08608 165.784531 
" style="fill:none;stroke:#1b9e77;stroke-linecap:square;stroke-opacity:0.5;stroke-width:1.5;"/>
   </g>
   <g id="line2d_17">
    <path clip-path="url(#p531fea1ebc)" d="M 51.99517 129.880825 
L 67.433906 151.121022 
L 82.872641 160.112708 
L 98.311376 159.117962 
L 113.750111 159.96131 
L 129.188846 161.804162 
L 144.627582 163.660069 
L 160.066317 164.007666 
L 175.505052 164.483626 
L 190.943787 164.755256 
L 206.382522 165.117593 
L 221.821257 165.130515 
L 237.259993 165.388163 
L 252.698728 165.660113 
L 268.137463 165.723552 
L 283.576198 163.059939 
L 299.014933 157.872285 
L 314.453668 154.412885 
L 329.892404 149.529538 
L 345.331139 146.246038 
L 360.769874 141.75005 
L 376.208609 119.745743 
L 391.647344 91.593124 
L 407.08608 145.878359 
" style="fill:none;stroke:#1b9e77;stroke-linecap:square;stroke-opacity:0.5;stroke-width:1.5;"/>
   </g>
   <g id="line2d_18">
    <path clip-path="url(#p531fea1ebc)" d="M 51.99517 161.689178 
L 67.433906 161.024221 
L 82.872641 156.874736 
L 98.311376 143.681916 
L 113.750111 131.151945 
L 129.188846 119.213807 
L 144.627582 144.703699 
L 160.066317 159.684941 
L 175.505052 159.094964 
L 190.943787 149.549579 
L 206.382522 154.430749 
L 221.821257 162.393252 
L 237.259993 161.894104 
L 252.698728 154.489275 
L 268.137463 127.137946 
L 283.576198 123.583289 
L 299.014933 153.636877 
L 314.453668 163.639556 
L 329.892404 164.528769 
L 345.331139 162.978193 
L 360.769874 163.431224 
L 376.208609 165.442898 
L 391.647344 165.823898 
L 407.08608 165.933492 
" style="fill:none;stroke:#1b9e77;stroke-linecap:square;stroke-opacity:0.5;stroke-width:1.5;"/>
   </g>
   <g id="line2d_19">
    <path clip-path="url(#p531fea1ebc)" d="M 51.99517 164.522662 
L 67.433906 165.458906 
L 82.872641 165.148604 
L 98.311376 160.483425 
L 113.750111 160.685387 
L 129.188846 163.909208 
L 144.627582 162.310057 
L 160.066317 160.982367 
L 175.505052 150.255008 
L 190.943787 140.351694 
L 206.382522 98.508756 
L 221.821257 112.216431 
L 237.259993 146.15964 
L 252.698728 132.493547 
L 268.137463 119.634774 
L 283.576198 160.585843 
L 299.014933 164.248018 
L 314.453668 164.513577 
L 329.892404 165.284793 
L 345.331139 165.333718 
L 360.769874 165.339003 
L 376.208609 165.450167 
L 391.647344 162.644055 
L 407.08608 159.492872 
" style="fill:none;stroke:#1b9e77;stroke-linecap:square;stroke-opacity:0.5;stroke-width:1.5;"/>
   </g>
   <g id="line2d_20">
    <path clip-path="url(#p531fea1ebc)" d="M 51.99517 164.061855 
L 67.433906 152.040439 
L 82.872641 131.703322 
L 98.311376 133.225568 
L 113.750111 142.405313 
L 129.188846 143.866822 
L 144.627582 150.228666 
L 160.066317 128.523375 
L 175.505052 100.503752 
L 190.943787 158.73761 
L 206.382522 154.912452 
L 221.821257 154.945119 
L 237.259993 156.617942 
L 252.698728 165.754202 
L 268.137463 165.924077 
L 283.576198 165.882993 
L 299.014933 165.723315 
L 314.453668 165.091171 
L 329.892404 165.785769 
L 345.331139 165.914995 
L 360.769874 165.181596 
L 376.208609 162.358106 
L 391.647344 154.234345 
L 407.08608 162.389697 
" style="fill:none;stroke:#1b9e77;stroke-linecap:square;stroke-opacity:0.5;stroke-width:1.5;"/>
   </g>
   <g id="line2d_21">
    <path clip-path="url(#p531fea1ebc)" d="M 51.99517 165.603914 
L 67.433906 165.656073 
L 82.872641 165.444012 
L 98.311376 164.253844 
L 113.750111 163.880644 
L 129.188846 162.429899 
L 144.627582 161.030394 
L 160.066317 160.567855 
L 175.505052 162.511944 
L 190.943787 162.637914 
L 206.382522 140.23854 
L 221.821257 88.723583 
L 237.259993 143.574127 
L 252.698728 125.767471 
L 268.137463 133.522622 
L 283.576198 110.85221 
L 299.014933 148.064518 
L 314.453668 163.888406 
L 329.892404 164.685479 
L 345.331139 162.649235 
L 360.769874 163.070639 
L 376.208609 165.283271 
L 391.647344 165.746375 
L 407.08608 165.929532 
" style="fill:none;stroke:#1b9e77;stroke-linecap:square;stroke-opacity:0.5;stroke-width:1.5;"/>
   </g>
   <g id="line2d_22">
    <path clip-path="url(#p531fea1ebc)" d="M 51.99517 161.644194 
L 67.433906 162.519878 
L 82.872641 160.725604 
L 98.311376 160.052894 
L 113.750111 160.052359 
L 129.188846 162.896409 
L 144.627582 164.497706 
L 160.066317 164.778185 
L 175.505052 164.721593 
L 190.943787 152.235256 
L 206.382522 140.219964 
L 221.821257 163.678166 
L 237.259993 154.435449 
L 252.698728 159.965817 
L 268.137463 160.148805 
L 283.576198 158.594304 
L 299.014933 156.750395 
L 314.453668 155.471827 
L 329.892404 152.85401 
L 345.331139 155.180821 
L 360.769874 131.680418 
L 376.208609 116.159258 
L 391.647344 129.52013 
L 407.08608 127.229062 
" style="fill:none;stroke:#1b9e77;stroke-linecap:square;stroke-opacity:0.5;stroke-width:1.5;"/>
   </g>
   <g id="line2d_23">
    <path clip-path="url(#p531fea1ebc)" d="M 51.99517 161.630096 
L 67.433906 135.104787 
L 82.872641 94.204994 
L 98.311376 63.134839 
L 113.750111 130.20449 
L 129.188846 139.057662 
L 144.627582 159.150077 
L 160.066317 161.864875 
L 175.505052 164.370402 
L 190.943787 164.749442 
L 206.382522 165.212305 
L 221.821257 165.148349 
L 237.259993 165.366144 
L 252.698728 165.614636 
L 268.137463 165.631381 
L 283.576198 165.121802 
L 299.014933 164.170723 
L 314.453668 164.826033 
L 329.892404 164.114153 
L 345.331139 163.7367 
L 360.769874 163.920448 
L 376.208609 162.74375 
L 391.647344 164.789824 
L 407.08608 162.1446 
" style="fill:none;stroke:#1b9e77;stroke-linecap:square;stroke-opacity:0.5;stroke-width:1.5;"/>
   </g>
   <g id="line2d_24">
    <path clip-path="url(#p531fea1ebc)" d="M 51.99517 164.656075 
L 67.433906 163.840293 
L 82.872641 161.93902 
L 98.311376 160.152742 
L 113.750111 159.03249 
L 129.188846 158.06786 
L 144.627582 158.76822 
L 160.066317 154.283426 
L 175.505052 70.235701 
L 190.943787 90.142467 
L 206.382522 131.93686 
L 221.821257 128.641323 
L 237.259993 161.724872 
L 252.698728 165.415104 
L 268.137463 165.749949 
L 283.576198 165.734355 
L 299.014933 165.78181 
L 314.453668 165.88326 
L 329.892404 165.801798 
L 345.331139 165.327387 
L 360.769874 162.829276 
L 376.208609 163.226348 
L 391.647344 162.238226 
L 407.08608 164.603654 
" style="fill:none;stroke:#1b9e77;stroke-linecap:square;stroke-opacity:0.5;stroke-width:1.5;"/>
   </g>
   <g id="line2d_25">
    <path clip-path="url(#p531fea1ebc)" d="M 51.99517 161.154134 
L 67.433906 154.260323 
L 82.872641 156.488825 
L 98.311376 163.817837 
L 113.750111 159.399706 
L 129.188846 154.501206 
L 144.627582 143.301244 
L 160.066317 139.63966 
L 175.505052 136.434964 
L 190.943787 134.527446 
L 206.382522 137.363251 
L 221.821257 140.12418 
L 237.259993 145.942067 
L 252.698728 155.34835 
L 268.137463 159.510059 
L 283.576198 158.281164 
L 299.014933 154.572877 
L 314.453668 159.257389 
L 329.892404 163.160745 
L 345.331139 147.768318 
L 360.769874 163.015596 
L 376.208609 164.711823 
L 391.647344 164.520891 
L 407.08608 158.910454 
" style="fill:none;stroke:#1b9e77;stroke-linecap:square;stroke-opacity:0.5;stroke-width:1.5;"/>
   </g>
   <g id="line2d_26">
    <path clip-path="url(#p531fea1ebc)" d="M 51.99517 143.776789 
L 67.433906 94.206505 
L 82.872641 99.043307 
L 98.311376 112.322821 
L 113.750111 124.130641 
L 129.188846 143.81063 
L 144.627582 157.467263 
L 160.066317 160.946033 
L 175.505052 162.801573 
L 190.943787 163.29457 
L 206.382522 163.983792 
L 221.821257 164.248494 
L 237.259993 164.911733 
L 252.698728 165.315167 
L 268.137463 165.290691 
L 283.576198 164.823388 
L 299.014933 165.202722 
L 314.453668 165.809387 
L 329.892404 165.907395 
L 345.331139 165.863547 
L 360.769874 165.681233 
L 376.208609 165.890955 
L 391.647344 165.936772 
L 407.08608 165.347092 
" style="fill:none;stroke:#1b9e77;stroke-linecap:square;stroke-opacity:0.5;stroke-width:1.5;"/>
   </g>
   <g id="line2d_27">
    <path clip-path="url(#p531fea1ebc)" d="M 51.99517 165.860355 
L 67.433906 165.820765 
L 82.872641 165.647072 
L 98.311376 163.361703 
L 113.750111 160.763784 
L 129.188846 163.208028 
L 144.627582 158.088227 
L 160.066317 153.856006 
L 175.505052 154.221768 
L 190.943787 142.359829 
L 206.382522 85.626782 
L 221.821257 124.578138 
L 237.259993 139.950665 
L 252.698728 128.426911 
L 268.137463 136.988417 
L 283.576198 150.301423 
L 299.014933 161.766338 
L 314.453668 164.194979 
L 329.892404 164.857517 
L 345.331139 164.277763 
L 360.769874 164.759537 
L 376.208609 165.456037 
L 391.647344 165.72074 
L 407.08608 165.919723 
" style="fill:none;stroke:#1b9e77;stroke-linecap:square;stroke-opacity:0.5;stroke-width:1.5;"/>
   </g>
   <g id="line2d_28">
    <path clip-path="url(#p531fea1ebc)" d="M 51.99517 162.190342 
L 67.433906 145.724526 
L 82.872641 126.677479 
L 98.311376 137.869256 
L 113.750111 145.111734 
L 129.188846 148.273222 
L 144.627582 161.465139 
L 160.066317 160.390296 
L 175.505052 130.658337 
L 190.943787 160.981685 
L 206.382522 160.12608 
L 221.821257 157.642978 
L 237.259993 160.140776 
L 252.698728 151.390238 
L 268.137463 159.791032 
L 283.576198 159.359003 
L 299.014933 158.525209 
L 314.453668 147.879725 
L 329.892404 146.760246 
L 345.331139 153.625283 
L 360.769874 155.116965 
L 376.208609 157.325229 
L 391.647344 163.213722 
L 407.08608 165.774011 
" style="fill:none;stroke:#1b9e77;stroke-linecap:square;stroke-opacity:0.5;stroke-width:1.5;"/>
   </g>
   <g id="line2d_29">
    <path clip-path="url(#p531fea1ebc)" d="M 51.99517 86.121526 
L 67.433906 157.657279 
L 82.872641 163.377202 
L 98.311376 163.370214 
L 113.750111 130.064632 
L 129.188846 136.161215 
L 144.627582 131.378491 
L 160.066317 139.80525 
L 175.505052 143.140994 
L 190.943787 152.268094 
L 206.382522 162.818559 
L 221.821257 164.234678 
L 237.259993 163.209775 
L 252.698728 152.828159 
L 268.137463 158.220833 
L 283.576198 163.409102 
L 299.014933 164.335755 
L 314.453668 160.879037 
L 329.892404 157.856745 
L 345.331139 163.974973 
L 360.769874 165.445476 
L 376.208609 165.737213 
L 391.647344 165.671996 
L 407.08608 164.045304 
" style="fill:none;stroke:#1b9e77;stroke-linecap:square;stroke-opacity:0.5;stroke-width:1.5;"/>
   </g>
   <g id="line2d_30">
    <path clip-path="url(#p531fea1ebc)" d="M 51.99517 159.613446 
L 67.433906 119.159596 
L 82.872641 125.923152 
L 98.311376 148.219515 
L 113.750111 156.18014 
L 129.188846 156.650173 
L 144.627582 135.761542 
L 160.066317 104.345063 
L 175.505052 124.679109 
L 190.943787 147.378175 
L 206.382522 160.165507 
L 221.821257 158.721586 
L 237.259993 160.605668 
L 252.698728 162.97732 
L 268.137463 164.707983 
L 283.576198 165.089085 
L 299.014933 165.463783 
L 314.453668 165.554017 
L 329.892404 165.683421 
L 345.331139 165.690325 
L 360.769874 165.760433 
L 376.208609 165.843148 
L 391.647344 165.889901 
L 407.08608 165.950414 
" style="fill:none;stroke:#1b9e77;stroke-linecap:square;stroke-opacity:0.5;stroke-width:1.5;"/>
   </g>
   <g id="line2d_31">
    <path clip-path="url(#p531fea1ebc)" d="M 51.99517 164.103559 
L 67.433906 163.307761 
L 82.872641 164.877328 
L 98.311376 165.43164 
L 113.750111 165.415178 
L 129.188846 162.529251 
L 144.627582 148.110334 
L 160.066317 150.819836 
L 175.505052 159.258911 
L 190.943787 163.812702 
L 206.382522 158.733393 
L 221.821257 147.425972 
L 237.259993 147.343292 
L 252.698728 158.361381 
L 268.137463 164.195557 
L 283.576198 164.906777 
L 299.014933 160.574298 
L 314.453668 146.666687 
L 329.892404 147.957715 
L 345.331139 144.051655 
L 360.769874 131.519759 
L 376.208609 127.408348 
L 391.647344 116.214065 
L 407.08608 152.987104 
" style="fill:none;stroke:#1b9e77;stroke-linecap:square;stroke-opacity:0.5;stroke-width:1.5;"/>
   </g>
   <g id="line2d_32">
    <path clip-path="url(#p531fea1ebc)" d="M 51.99517 157.678235 
L 67.433906 156.983762 
L 82.872641 159.431242 
L 98.311376 152.415901 
L 113.750111 78.806795 
L 129.188846 103.610039 
L 144.627582 127.335313 
L 160.066317 127.341823 
L 175.505052 153.736394 
L 190.943787 162.045955 
L 206.382522 164.391951 
L 221.821257 164.687646 
L 237.259993 164.680642 
L 252.698728 163.657844 
L 268.137463 162.938584 
L 283.576198 164.19344 
L 299.014933 164.828875 
L 314.453668 165.251587 
L 329.892404 165.474179 
L 345.331139 163.709743 
L 360.769874 155.436307 
L 376.208609 165.717173 
L 391.647344 165.857441 
L 407.08608 165.801636 
" style="fill:none;stroke:#1b9e77;stroke-linecap:square;stroke-opacity:0.5;stroke-width:1.5;"/>
   </g>
   <g id="line2d_33">
    <path clip-path="url(#p531fea1ebc)" d="M 51.99517 157.991905 
L 67.433906 138.944286 
L 82.872641 153.490898 
L 98.311376 155.921231 
L 113.750111 161.732452 
L 129.188846 164.7309 
L 144.627582 152.300685 
L 160.066317 141.251729 
L 175.505052 142.438783 
L 190.943787 134.139082 
L 206.382522 150.255045 
L 221.821257 155.185701 
L 237.259993 148.101766 
L 252.698728 119.372073 
L 268.137463 137.575549 
L 283.576198 156.954064 
L 299.014933 158.3581 
L 314.453668 158.346156 
L 329.892404 162.875898 
L 345.331139 164.237906 
L 360.769874 164.98016 
L 376.208609 165.339917 
L 391.647344 165.571889 
L 407.08608 165.916328 
" style="fill:none;stroke:#1b9e77;stroke-linecap:square;stroke-opacity:0.5;stroke-width:1.5;"/>
   </g>
   <g id="line2d_34">
    <path clip-path="url(#p531fea1ebc)" d="M 51.99517 164.708368 
L 67.433906 165.38216 
L 82.872641 165.698905 
L 98.311376 165.651605 
L 113.750111 165.767653 
L 129.188846 165.768669 
L 144.627582 165.810007 
L 160.066317 165.797596 
L 175.505052 165.750322 
L 190.943787 165.773143 
L 206.382522 165.649894 
L 221.821257 165.802367 
L 237.259993 165.024581 
L 252.698728 163.652192 
L 268.137463 163.135237 
L 283.576198 161.125121 
L 299.014933 158.509188 
L 314.453668 158.529172 
L 329.892404 159.681242 
L 345.331139 161.18416 
L 360.769874 148.547705 
L 376.208609 117.214606 
L 391.647344 38.648456 
L 407.08608 93.200159 
" style="fill:none;stroke:#1b9e77;stroke-linecap:square;stroke-opacity:0.5;stroke-width:1.5;"/>
   </g>
   <g id="line2d_35">
    <path clip-path="url(#p531fea1ebc)" d="M 51.99517 101.508142 
L 67.433906 161.474764 
L 82.872641 164.435991 
L 98.311376 163.775671 
L 113.750111 163.654673 
L 129.188846 162.980181 
L 144.627582 161.818744 
L 160.066317 162.443204 
L 175.505052 162.527 
L 190.943787 161.93865 
L 206.382522 157.741675 
L 221.821257 154.559147 
L 237.259993 152.298944 
L 252.698728 135.258195 
L 268.137463 91.163965 
L 283.576198 145.689228 
L 299.014933 163.045638 
L 314.453668 160.49818 
L 329.892404 162.702217 
L 345.331139 164.78106 
L 360.769874 164.538652 
L 376.208609 163.298735 
L 391.647344 147.190132 
L 407.08608 146.689718 
" style="fill:none;stroke:#1b9e77;stroke-linecap:square;stroke-opacity:0.5;stroke-width:1.5;"/>
   </g>
   <g id="line2d_36">
    <path clip-path="url(#p531fea1ebc)" d="M 51.99517 165.339421 
L 67.433906 164.803411 
L 82.872641 164.642974 
L 98.311376 163.118327 
L 113.750111 159.831554 
L 129.188846 158.386462 
L 144.627582 157.992218 
L 160.066317 156.617655 
L 175.505052 149.289383 
L 190.943787 126.211409 
L 206.382522 93.150683 
L 221.821257 128.423214 
L 237.259993 144.896493 
L 252.698728 108.475453 
L 268.137463 144.62914 
L 283.576198 164.113625 
L 299.014933 165.387844 
L 314.453668 165.500461 
L 329.892404 165.733961 
L 345.331139 165.811601 
L 360.769874 165.875992 
L 376.208609 165.904716 
L 391.647344 165.92028 
L 407.08608 165.956223 
" style="fill:none;stroke:#1b9e77;stroke-linecap:square;stroke-opacity:0.5;stroke-width:1.5;"/>
   </g>
   <g id="line2d_37">
    <path clip-path="url(#p531fea1ebc)" d="M 51.99517 153.713788 
L 67.433906 118.154283 
L 82.872641 150.676906 
L 98.311376 122.925719 
L 113.750111 159.171632 
L 129.188846 163.630575 
L 144.627582 165.559528 
L 160.066317 165.78886 
L 175.505052 165.82608 
L 190.943787 165.666863 
L 206.382522 162.30397 
L 221.821257 164.617233 
L 237.259993 165.69365 
L 252.698728 165.669407 
L 268.137463 159.988066 
L 283.576198 158.069082 
L 299.014933 153.522921 
L 314.453668 149.874854 
L 329.892404 143.735277 
L 345.331139 147.660646 
L 360.769874 153.027569 
L 376.208609 147.236785 
L 391.647344 118.484818 
L 407.08608 155.013994 
" style="fill:none;stroke:#1b9e77;stroke-linecap:square;stroke-opacity:0.5;stroke-width:1.5;"/>
   </g>
   <g id="line2d_38">
    <path clip-path="url(#p531fea1ebc)" d="M 51.99517 124.248556 
L 67.433906 131.808851 
L 82.872641 131.42638 
L 98.311376 96.055603 
L 113.750111 123.518539 
L 129.188846 152.614212 
L 144.627582 148.673396 
L 160.066317 136.731813 
L 175.505052 156.220546 
L 190.943787 162.121281 
L 206.382522 164.505046 
L 221.821257 163.964386 
L 237.259993 162.929711 
L 252.698728 163.831714 
L 268.137463 164.884915 
L 283.576198 165.421014 
L 299.014933 165.787551 
L 314.453668 165.820941 
L 329.892404 165.861711 
L 345.331139 165.885031 
L 360.769874 165.903205 
L 376.208609 165.912427 
L 391.647344 165.928485 
L 407.08608 165.957189 
" style="fill:none;stroke:#1b9e77;stroke-linecap:square;stroke-opacity:0.5;stroke-width:1.5;"/>
   </g>
   <g id="line2d_39">
    <path clip-path="url(#p531fea1ebc)" d="M 51.99517 164.817249 
L 67.433906 164.950839 
L 82.872641 165.070548 
L 98.311376 164.025781 
L 113.750111 164.234716 
L 129.188846 164.593003 
L 144.627582 163.55507 
L 160.066317 161.825545 
L 175.505052 161.207548 
L 190.943787 161.17372 
L 206.382522 151.358185 
L 221.821257 146.077289 
L 237.259993 156.233651 
L 252.698728 156.848216 
L 268.137463 134.593774 
L 283.576198 116.623561 
L 299.014933 106.781508 
L 314.453668 108.417218 
L 329.892404 147.237692 
L 345.331139 155.426899 
L 360.769874 163.836275 
L 376.208609 165.425339 
L 391.647344 165.77231 
L 407.08608 165.926569 
" style="fill:none;stroke:#1b9e77;stroke-linecap:square;stroke-opacity:0.5;stroke-width:1.5;"/>
   </g>
   <g id="line2d_40">
    <path clip-path="url(#p531fea1ebc)" d="M 51.99517 165.540803 
L 67.433906 165.280907 
L 82.872641 165.40832 
L 98.311376 165.358199 
L 113.750111 165.604361 
L 129.188846 165.798253 
L 144.627582 165.849374 
L 160.066317 165.755835 
L 175.505052 165.716082 
L 190.943787 165.692259 
L 206.382522 165.709949 
L 221.821257 165.775142 
L 237.259993 165.729261 
L 252.698728 161.466787 
L 268.137463 143.5171 
L 283.576198 157.37535 
L 299.014933 150.072483 
L 314.453668 135.835559 
L 329.892404 132.697777 
L 345.331139 61.454791 
L 360.769874 110.450231 
L 376.208609 152.458347 
L 391.647344 159.015487 
L 407.08608 158.449844 
" style="fill:none;stroke:#1b9e77;stroke-linecap:square;stroke-opacity:0.5;stroke-width:1.5;"/>
   </g>
   <g id="line2d_41">
    <path clip-path="url(#p531fea1ebc)" d="M 51.99517 156.368679 
L 67.433906 65.129499 
L 82.872641 64.748716 
L 98.311376 119.928156 
L 113.750111 151.120562 
L 129.188846 157.844655 
L 144.627582 161.34643 
L 160.066317 163.048506 
L 175.505052 164.746937 
L 190.943787 164.844955 
L 206.382522 165.186644 
L 221.821257 165.260429 
L 237.259993 165.288619 
L 252.698728 164.903481 
L 268.137463 164.672807 
L 283.576198 164.848694 
L 299.014933 164.805233 
L 314.453668 164.735971 
L 329.892404 164.664764 
L 345.331139 164.556074 
L 360.769874 164.180661 
L 376.208609 164.687231 
L 391.647344 163.92244 
L 407.08608 165.172351 
" style="fill:none;stroke:#1b9e77;stroke-linecap:square;stroke-opacity:0.5;stroke-width:1.5;"/>
   </g>
   <g id="line2d_42">
    <path clip-path="url(#p531fea1ebc)" d="M 51.99517 158.983816 
L 67.433906 117.881132 
L 82.872641 91.385407 
L 98.311376 114.831805 
L 113.750111 155.26378 
L 129.188846 163.996164 
L 144.627582 164.15806 
L 160.066317 158.532504 
L 175.505052 161.733087 
L 190.943787 164.936878 
L 206.382522 165.485397 
L 221.821257 165.485369 
L 237.259993 164.739627 
L 252.698728 159.572432 
L 268.137463 157.464925 
L 283.576198 165.285088 
L 299.014933 165.038689 
L 314.453668 159.619756 
L 329.892404 158.242697 
L 345.331139 156.28254 
L 360.769874 153.784456 
L 376.208609 151.891234 
L 391.647344 152.929286 
L 407.08608 148.488377 
" style="fill:none;stroke:#1b9e77;stroke-linecap:square;stroke-opacity:0.5;stroke-width:1.5;"/>
   </g>
   <g id="line2d_43">
    <path clip-path="url(#p531fea1ebc)" d="M 51.99517 153.3176 
L 67.433906 158.925696 
L 82.872641 164.218329 
L 98.311376 164.725604 
L 113.750111 164.80972 
L 129.188846 160.643698 
L 144.627582 149.504747 
L 160.066317 164.527749 
L 175.505052 165.025096 
L 190.943787 165.795638 
L 206.382522 159.894572 
L 221.821257 144.025229 
L 237.259993 139.354141 
L 252.698728 156.724953 
L 268.137463 146.100305 
L 283.576198 130.419741 
L 299.014933 157.696864 
L 314.453668 146.55134 
L 329.892404 136.170461 
L 345.331139 147.809429 
L 360.769874 158.423484 
L 376.208609 124.312978 
L 391.647344 165.37617 
L 407.08608 151.658958 
" style="fill:none;stroke:#1b9e77;stroke-linecap:square;stroke-opacity:0.5;stroke-width:1.5;"/>
   </g>
   <g id="line2d_44">
    <path clip-path="url(#p531fea1ebc)" d="M 51.99517 165.776852 
L 67.433906 165.586059 
L 82.872641 165.799496 
L 98.311376 165.826934 
L 113.750111 165.430569 
L 129.188846 163.089752 
L 144.627582 141.345937 
L 160.066317 164.961062 
L 175.505052 160.750601 
L 190.943787 161.174963 
L 206.382522 161.89673 
L 221.821257 162.275737 
L 237.259993 94.652025 
L 252.698728 155.652858 
L 268.137463 149.111704 
L 283.576198 145.59544 
L 299.014933 157.314877 
L 314.453668 92.518439 
L 329.892404 165.363268 
L 345.331139 164.774609 
L 360.769874 163.321605 
L 376.208609 149.615087 
L 391.647344 140.488807 
L 407.08608 153.689103 
" style="fill:none;stroke:#1b9e77;stroke-linecap:square;stroke-opacity:0.5;stroke-width:1.5;"/>
   </g>
   <g id="line2d_45">
    <path clip-path="url(#p531fea1ebc)" d="M 51.99517 165.886478 
L 67.433906 165.430367 
L 82.872641 165.497311 
L 98.311376 165.56255 
L 113.750111 165.562913 
L 129.188846 165.677195 
L 144.627582 165.027417 
L 160.066317 151.678334 
L 175.505052 160.900225 
L 190.943787 165.53832 
L 206.382522 165.510243 
L 221.821257 163.441372 
L 237.259993 164.64533 
L 252.698728 164.860624 
L 268.137463 165.922065 
L 283.576198 165.853518 
L 299.014933 141.065556 
L 314.453668 149.342917 
L 329.892404 124.567154 
L 345.331139 118.584828 
L 360.769874 125.938963 
L 376.208609 119.55734 
L 391.647344 116.663657 
L 407.08608 153.297833 
" style="fill:none;stroke:#1b9e77;stroke-linecap:square;stroke-opacity:0.5;stroke-width:1.5;"/>
   </g>
   <g id="line2d_46">
    <path clip-path="url(#p531fea1ebc)" d="M 51.99517 165.912522 
L 67.433906 165.763282 
L 82.872641 163.154336 
L 98.311376 162.221486 
L 113.750111 160.254321 
L 129.188846 160.221528 
L 144.627582 158.890592 
L 160.066317 156.390205 
L 175.505052 152.578936 
L 190.943787 144.294626 
L 206.382522 129.261954 
L 221.821257 144.574577 
L 237.259993 145.821092 
L 252.698728 60.809838 
L 268.137463 130.419292 
L 283.576198 159.553714 
L 299.014933 162.786854 
L 314.453668 163.43234 
L 329.892404 164.864134 
L 345.331139 164.976554 
L 360.769874 164.88014 
L 376.208609 164.747641 
L 391.647344 164.430886 
L 407.08608 165.771654 
" style="fill:none;stroke:#1b9e77;stroke-linecap:square;stroke-opacity:0.5;stroke-width:1.5;"/>
   </g>
   <g id="line2d_47">
    <path clip-path="url(#p531fea1ebc)" d="M 51.99517 162.995856 
L 67.433906 164.143941 
L 82.872641 165.294004 
L 98.311376 165.284958 
L 113.750111 165.415439 
L 129.188846 165.592613 
L 144.627582 165.603114 
L 160.066317 165.88592 
L 175.505052 165.576568 
L 190.943787 162.253457 
L 206.382522 162.51087 
L 221.821257 159.347048 
L 237.259993 137.098674 
L 252.698728 126.885155 
L 268.137463 139.462829 
L 283.576198 149.360978 
L 299.014933 150.612878 
L 314.453668 136.700951 
L 329.892404 123.284644 
L 345.331139 133.87433 
L 360.769874 150.119705 
L 376.208609 139.83955 
L 391.647344 156.607155 
L 407.08608 162.261868 
" style="fill:none;stroke:#1b9e77;stroke-linecap:square;stroke-opacity:0.5;stroke-width:1.5;"/>
   </g>
   <g id="line2d_48">
    <path clip-path="url(#p531fea1ebc)" d="M 51.99517 115.438114 
L 67.433906 91.977811 
L 82.872641 100.914067 
L 98.311376 147.767552 
L 113.750111 156.648664 
L 129.188846 119.818106 
L 144.627582 139.224411 
L 160.066317 162.385865 
L 175.505052 164.349365 
L 190.943787 163.800217 
L 206.382522 163.001274 
L 221.821257 163.372387 
L 237.259993 164.184801 
L 252.698728 165.261385 
L 268.137463 165.086917 
L 283.576198 165.570778 
L 299.014933 165.777629 
L 314.453668 165.858652 
L 329.892404 165.892674 
L 345.331139 165.910817 
L 360.769874 165.925452 
L 376.208609 165.93966 
L 391.647344 165.946417 
L 407.08608 165.959495 
" style="fill:none;stroke:#1b9e77;stroke-linecap:square;stroke-opacity:0.5;stroke-width:1.5;"/>
   </g>
   <g id="line2d_49">
    <path clip-path="url(#p531fea1ebc)" d="M 51.99517 163.664169 
L 67.433906 164.851021 
L 82.872641 164.709859 
L 98.311376 163.634314 
L 113.750111 160.006482 
L 129.188846 156.015108 
L 144.627582 151.107684 
L 160.066317 154.378766 
L 175.505052 161.04405 
L 190.943787 87.256624 
L 206.382522 85.705781 
L 221.821257 144.304983 
L 237.259993 152.112373 
L 252.698728 134.324106 
L 268.137463 152.231559 
L 283.576198 160.396324 
L 299.014933 164.394933 
L 314.453668 165.206932 
L 329.892404 165.507448 
L 345.331139 165.133627 
L 360.769874 165.181734 
L 376.208609 165.888834 
L 391.647344 165.939738 
L 407.08608 163.016066 
" style="fill:none;stroke:#1b9e77;stroke-linecap:square;stroke-opacity:0.5;stroke-width:1.5;"/>
   </g>
   <g id="line2d_50">
    <path clip-path="url(#p531fea1ebc)" d="M 51.99517 163.608612 
L 67.433906 152.360109 
L 82.872641 139.507099 
L 98.311376 159.826491 
L 113.750111 163.34063 
L 129.188846 157.442755 
L 144.627582 153.6394 
L 160.066317 157.028706 
L 175.505052 123.489679 
L 190.943787 126.22615 
L 206.382522 114.100453 
L 221.821257 127.716848 
L 237.259993 135.980661 
L 252.698728 147.077026 
L 268.137463 165.094958 
L 283.576198 165.409952 
L 299.014933 165.623633 
L 314.453668 165.644778 
L 329.892404 165.769609 
L 345.331139 165.808616 
L 360.769874 165.857679 
L 376.208609 165.901953 
L 391.647344 165.879758 
L 407.08608 163.676956 
" style="fill:none;stroke:#1b9e77;stroke-linecap:square;stroke-opacity:0.5;stroke-width:1.5;"/>
   </g>
   <g id="line2d_51">
    <path clip-path="url(#p531fea1ebc)" d="M 51.99517 164.671213 
L 67.433906 150.149748 
L 82.872641 97.286089 
L 98.311376 92.569779 
L 113.750111 141.206614 
L 129.188846 141.650451 
L 144.627582 131.281975 
L 160.066317 154.512687 
L 175.505052 161.688403 
L 190.943787 161.270352 
L 206.382522 162.610201 
L 221.821257 164.38138 
L 237.259993 165.409445 
L 252.698728 165.431239 
L 268.137463 164.60332 
L 283.576198 161.93202 
L 299.014933 162.540711 
L 314.453668 163.866233 
L 329.892404 161.621004 
L 345.331139 156.180742 
L 360.769874 156.04007 
L 376.208609 163.590105 
L 391.647344 165.601477 
L 407.08608 165.917251 
" style="fill:none;stroke:#1b9e77;stroke-linecap:square;stroke-opacity:0.5;stroke-width:1.5;"/>
   </g>
   <g id="line2d_52">
    <path clip-path="url(#p531fea1ebc)" d="M 51.99517 163.727784 
L 67.433906 157.142638 
L 82.872641 152.355557 
L 98.311376 135.858543 
L 113.750111 123.351261 
L 129.188846 99.30035 
L 144.627582 137.562293 
L 160.066317 136.742024 
L 175.505052 140.308606 
L 190.943787 158.264764 
L 206.382522 164.15941 
L 221.821257 161.372898 
L 237.259993 157.394693 
L 252.698728 155.319954 
L 268.137463 162.099856 
L 283.576198 165.686141 
L 299.014933 165.809843 
L 314.453668 165.607484 
L 329.892404 164.901127 
L 345.331139 164.516587 
L 360.769874 153.869592 
L 376.208609 164.492961 
L 391.647344 162.313115 
L 407.08608 163.855028 
" style="fill:none;stroke:#1b9e77;stroke-linecap:square;stroke-opacity:0.5;stroke-width:1.5;"/>
   </g>
   <g id="line2d_53">
    <path clip-path="url(#p531fea1ebc)" d="M 51.99517 165.560378 
L 67.433906 165.458101 
L 82.872641 165.789615 
L 98.311376 165.817697 
L 113.750111 165.856292 
L 129.188846 165.882631 
L 144.627582 165.819248 
L 160.066317 165.805639 
L 175.505052 165.526428 
L 190.943787 164.403726 
L 206.382522 162.754102 
L 221.821257 161.993433 
L 237.259993 159.910841 
L 252.698728 156.906211 
L 268.137463 151.801408 
L 283.576198 137.226115 
L 299.014933 128.503959 
L 314.453668 112.563028 
L 329.892404 109.339636 
L 345.331139 121.342579 
L 360.769874 131.904777 
L 376.208609 155.301919 
L 391.647344 164.72321 
L 407.08608 165.821524 
" style="fill:none;stroke:#1b9e77;stroke-linecap:square;stroke-opacity:0.5;stroke-width:1.5;"/>
   </g>
   <g id="line2d_54">
    <path clip-path="url(#p531fea1ebc)" d="M 51.99517 155.955898 
L 67.433906 164.813914 
L 82.872641 165.331967 
L 98.311376 164.060361 
L 113.750111 165.508841 
L 129.188846 165.165315 
L 144.627582 160.938955 
L 160.066317 164.366975 
L 175.505052 163.939494 
L 190.943787 157.808463 
L 206.382522 154.944674 
L 221.821257 149.021159 
L 237.259993 134.725183 
L 252.698728 130.671793 
L 268.137463 126.962538 
L 283.576198 145.112706 
L 299.014933 119.079573 
L 314.453668 130.413126 
L 329.892404 144.264027 
L 345.331139 155.329284 
L 360.769874 160.382197 
L 376.208609 165.345453 
L 391.647344 165.916053 
L 407.08608 165.954557 
" style="fill:none;stroke:#1b9e77;stroke-linecap:square;stroke-opacity:0.5;stroke-width:1.5;"/>
   </g>
   <g id="line2d_55">
    <path clip-path="url(#p531fea1ebc)" d="M 51.99517 164.184671 
L 67.433906 161.653082 
L 82.872641 161.390873 
L 98.311376 154.273168 
L 113.750111 45.368139 
L 129.188846 158.595433 
L 144.627582 109.319096 
L 160.066317 155.870165 
L 175.505052 162.407728 
L 190.943787 140.808759 
L 206.382522 139.488961 
L 221.821257 153.142911 
L 237.259993 159.896324 
L 252.698728 157.480989 
L 268.137463 164.275485 
L 283.576198 165.01136 
L 299.014933 165.101138 
L 314.453668 165.136665 
L 329.892404 165.310272 
L 345.331139 165.342681 
L 360.769874 165.31372 
L 376.208609 165.404438 
L 391.647344 165.371644 
L 407.08608 165.864803 
" style="fill:none;stroke:#1b9e77;stroke-linecap:square;stroke-opacity:0.5;stroke-width:1.5;"/>
   </g>
   <g id="line2d_56">
    <path clip-path="url(#p531fea1ebc)" d="M 51.99517 165.627701 
L 67.433906 165.466534 
L 82.872641 165.730032 
L 98.311376 165.66158 
L 113.750111 165.623638 
L 129.188846 165.83013 
L 144.627582 165.858683 
L 160.066317 165.950589 
L 175.505052 165.456692 
L 190.943787 161.290867 
L 206.382522 161.215952 
L 221.821257 150.780366 
L 237.259993 102.548811 
L 252.698728 83.454515 
L 268.137463 121.387564 
L 283.576198 77.377938 
L 299.014933 165.479417 
L 314.453668 165.75708 
L 329.892404 165.888791 
L 345.331139 165.888857 
L 360.769874 165.904969 
L 376.208609 165.930484 
L 391.647344 165.942651 
L 407.08608 165.958653 
" style="fill:none;stroke:#1b9e77;stroke-linecap:square;stroke-opacity:0.5;stroke-width:1.5;"/>
   </g>
   <g id="line2d_57">
    <path clip-path="url(#p531fea1ebc)" d="M 51.99517 165.222364 
L 67.433906 155.154332 
L 82.872641 148.469572 
L 98.311376 154.511917 
L 113.750111 152.783637 
L 129.188846 150.723285 
L 144.627582 159.928287 
L 160.066317 159.734268 
L 175.505052 67.697861 
L 190.943787 130.340175 
L 206.382522 134.631368 
L 221.821257 149.184381 
L 237.259993 159.744459 
L 252.698728 156.53611 
L 268.137463 165.182764 
L 283.576198 165.569021 
L 299.014933 163.959188 
L 314.453668 148.752587 
L 329.892404 159.317465 
L 345.331139 165.313488 
L 360.769874 165.92474 
L 376.208609 165.932504 
L 391.647344 165.878958 
L 407.08608 165.519783 
" style="fill:none;stroke:#1b9e77;stroke-linecap:square;stroke-opacity:0.5;stroke-width:1.5;"/>
   </g>
   <g id="line2d_58">
    <path clip-path="url(#p531fea1ebc)" d="M 51.99517 147.929674 
L 67.433906 88.403356 
L 82.872641 89.140017 
L 98.311376 114.206528 
L 113.750111 139.294825 
L 129.188846 145.508563 
L 144.627582 159.415054 
L 160.066317 163.886126 
L 175.505052 164.913141 
L 190.943787 164.255444 
L 206.382522 164.496551 
L 221.821257 165.312905 
L 237.259993 165.543672 
L 252.698728 165.482646 
L 268.137463 165.392689 
L 283.576198 165.416097 
L 299.014933 165.52219 
L 314.453668 165.714693 
L 329.892404 165.75853 
L 345.331139 165.552678 
L 360.769874 162.459652 
L 376.208609 164.064943 
L 391.647344 160.46495 
L 407.08608 157.877572 
" style="fill:none;stroke:#1b9e77;stroke-linecap:square;stroke-opacity:0.5;stroke-width:1.5;"/>
   </g>
   <g id="line2d_59">
    <path clip-path="url(#p531fea1ebc)" d="M 51.99517 163.371199 
L 67.433906 158.867822 
L 82.872641 161.367453 
L 98.311376 140.670282 
L 113.750111 34.589463 
L 129.188846 137.990586 
L 144.627582 159.747476 
L 160.066317 146.62227 
L 175.505052 156.689597 
L 190.943787 162.906901 
L 206.382522 164.944506 
L 221.821257 165.28983 
L 237.259993 165.32414 
L 252.698728 164.1171 
L 268.137463 149.521144 
L 283.576198 157.060013 
L 299.014933 163.253983 
L 314.453668 165.780638 
L 329.892404 164.191653 
L 345.331139 156.557337 
L 360.769874 165.362431 
L 376.208609 139.904259 
L 391.647344 165.928063 
L 407.08608 165.954364 
" style="fill:none;stroke:#1b9e77;stroke-linecap:square;stroke-opacity:0.5;stroke-width:1.5;"/>
   </g>
   <g id="line2d_60">
    <path clip-path="url(#p531fea1ebc)" d="M 51.99517 159.366585 
L 67.433906 157.628811 
L 82.872641 164.0688 
L 98.311376 164.230092 
L 113.750111 164.37769 
L 129.188846 163.633966 
L 144.627582 164.138391 
L 160.066317 164.970452 
L 175.505052 165.129091 
L 190.943787 164.651083 
L 206.382522 161.229015 
L 221.821257 160.26746 
L 237.259993 146.714224 
L 252.698728 143.665732 
L 268.137463 151.841589 
L 283.576198 153.032014 
L 299.014933 150.222857 
L 314.453668 140.741856 
L 329.892404 122.588796 
L 345.331139 139.980524 
L 360.769874 160.713782 
L 376.208609 125.278027 
L 391.647344 121.828295 
L 407.08608 165.713376 
" style="fill:none;stroke:#1b9e77;stroke-linecap:square;stroke-opacity:0.5;stroke-width:1.5;"/>
   </g>
   <g id="line2d_61">
    <path clip-path="url(#p531fea1ebc)" d="M 51.99517 163.818582 
L 67.433906 164.580362 
L 82.872641 165.513959 
L 98.311376 165.585089 
L 113.750111 165.60091 
L 129.188846 165.796585 
L 144.627582 162.834304 
L 160.066317 158.061913 
L 175.505052 158.740506 
L 190.943787 161.345962 
L 206.382522 159.828766 
L 221.821257 158.105367 
L 237.259993 158.177156 
L 252.698728 129.081522 
L 268.137463 121.006247 
L 283.576198 125.850344 
L 299.014933 152.495559 
L 314.453668 143.652853 
L 329.892404 161.649693 
L 345.331139 165.391982 
L 360.769874 165.262034 
L 376.208609 163.467919 
L 391.647344 119.984708 
L 407.08608 120.180187 
" style="fill:none;stroke:#1b9e77;stroke-linecap:square;stroke-opacity:0.5;stroke-width:1.5;"/>
   </g>
   <g id="line2d_62">
    <path clip-path="url(#p531fea1ebc)" d="M 51.99517 157.097203 
L 67.433906 127.408503 
L 82.872641 142.681749 
L 98.311376 160.505221 
L 113.750111 164.75807 
L 129.188846 164.896097 
L 144.627582 165.280478 
L 160.066317 165.285991 
L 175.505052 165.435599 
L 190.943787 165.474305 
L 206.382522 165.392942 
L 221.821257 165.646635 
L 237.259993 164.339162 
L 252.698728 152.555186 
L 268.137463 160.855519 
L 283.576198 153.359404 
L 299.014933 142.153125 
L 314.453668 129.591569 
L 329.892404 132.550733 
L 345.331139 158.175086 
L 360.769874 105.446755 
L 376.208609 137.368522 
L 391.647344 164.829194 
L 407.08608 164.925457 
" style="fill:none;stroke:#1b9e77;stroke-linecap:square;stroke-opacity:0.5;stroke-width:1.5;"/>
   </g>
   <g id="line2d_63">
    <path clip-path="url(#p531fea1ebc)" d="M 51.99517 114.023045 
L 67.433906 157.896397 
L 82.872641 162.931155 
L 98.311376 138.093536 
L 113.750111 140.261465 
L 129.188846 94.607317 
L 144.627582 69.498528 
L 160.066317 160.128822 
L 175.505052 163.853799 
L 190.943787 163.834474 
L 206.382522 164.358131 
L 221.821257 162.821602 
L 237.259993 164.625469 
L 252.698728 165.11121 
L 268.137463 165.348052 
L 283.576198 165.082022 
L 299.014933 164.114639 
L 314.453668 165.369095 
L 329.892404 165.274906 
L 345.331139 165.518143 
L 360.769874 165.645769 
L 376.208609 165.788667 
L 391.647344 165.880484 
L 407.08608 165.945782 
" style="fill:none;stroke:#1b9e77;stroke-linecap:square;stroke-opacity:0.5;stroke-width:1.5;"/>
   </g>
   <g id="line2d_64">
    <path clip-path="url(#p531fea1ebc)" d="M 51.99517 164.757778 
L 67.433906 164.453405 
L 82.872641 164.199334 
L 98.311376 161.814032 
L 113.750111 155.520764 
L 129.188846 144.976565 
L 144.627582 140.752078 
L 160.066317 161.106858 
L 175.505052 133.926471 
L 190.943787 93.640425 
L 206.382522 164.223555 
L 221.821257 165.183333 
L 237.259993 165.034781 
L 252.698728 157.910697 
L 268.137463 148.310898 
L 283.576198 161.268575 
L 299.014933 160.226542 
L 314.453668 161.053514 
L 329.892404 147.462427 
L 345.331139 159.226123 
L 360.769874 158.975701 
L 376.208609 144.401377 
L 391.647344 140.719134 
L 407.08608 156.868139 
" style="fill:none;stroke:#1b9e77;stroke-linecap:square;stroke-opacity:0.5;stroke-width:1.5;"/>
   </g>
   <g id="line2d_65">
    <path clip-path="url(#p531fea1ebc)" d="M 51.99517 163.765204 
L 67.433906 164.499589 
L 82.872641 164.940715 
L 98.311376 163.765794 
L 113.750111 164.520238 
L 129.188846 162.49243 
L 144.627582 158.256978 
L 160.066317 148.404362 
L 175.505052 151.442303 
L 190.943787 143.035284 
L 206.382522 130.501909 
L 221.821257 141.099662 
L 237.259993 141.581998 
L 252.698728 147.866645 
L 268.137463 143.930929 
L 283.576198 152.565428 
L 299.014933 150.437072 
L 314.453668 155.522322 
L 329.892404 156.955958 
L 345.331139 162.321724 
L 360.769874 164.823729 
L 376.208609 164.412789 
L 391.647344 148.618765 
L 407.08608 130.250675 
" style="fill:none;stroke:#1b9e77;stroke-linecap:square;stroke-opacity:0.5;stroke-width:1.5;"/>
   </g>
   <g id="line2d_66">
    <path clip-path="url(#p531fea1ebc)" d="M 51.99517 159.069787 
L 67.433906 143.043616 
L 82.872641 135.700226 
L 98.311376 145.820299 
L 113.750111 133.545786 
L 129.188846 153.025756 
L 144.627582 159.518321 
L 160.066317 161.331715 
L 175.505052 161.52391 
L 190.943787 161.422017 
L 206.382522 160.235654 
L 221.821257 160.377893 
L 237.259993 163.92409 
L 252.698728 152.776952 
L 268.137463 106.147341 
L 283.576198 115.735353 
L 299.014933 162.485066 
L 314.453668 152.723389 
L 329.892404 165.669818 
L 345.331139 165.90666 
L 360.769874 165.926775 
L 376.208609 164.724811 
L 391.647344 164.409477 
L 407.08608 160.967788 
" style="fill:none;stroke:#1b9e77;stroke-linecap:square;stroke-opacity:0.5;stroke-width:1.5;"/>
   </g>
   <g id="line2d_67">
    <path clip-path="url(#p531fea1ebc)" d="M 51.99517 165.299881 
L 67.433906 165.634205 
L 82.872641 165.74277 
L 98.311376 165.047461 
L 113.750111 163.981644 
L 129.188846 164.598052 
L 144.627582 165.274999 
L 160.066317 165.402113 
L 175.505052 165.36462 
L 190.943787 165.195806 
L 206.382522 165.037143 
L 221.821257 165.23769 
L 237.259993 165.408367 
L 252.698728 165.498079 
L 268.137463 163.983283 
L 283.576198 158.768769 
L 299.014933 135.518484 
L 314.453668 99.772669 
L 329.892404 147.258822 
L 345.331139 162.267454 
L 360.769874 98.178415 
L 376.208609 130.652394 
L 391.647344 121.357986 
L 407.08608 145.5314 
" style="fill:none;stroke:#1b9e77;stroke-linecap:square;stroke-opacity:0.5;stroke-width:1.5;"/>
   </g>
   <g id="line2d_68">
    <path clip-path="url(#p531fea1ebc)" d="M 51.99517 156.669203 
L 67.433906 100.748447 
L 82.872641 102.33863 
L 98.311376 135.030545 
L 113.750111 156.174444 
L 129.188846 158.418562 
L 144.627582 159.746915 
L 160.066317 159.662036 
L 175.505052 163.105177 
L 190.943787 164.463794 
L 206.382522 165.043193 
L 221.821257 164.766609 
L 237.259993 164.629468 
L 252.698728 164.782561 
L 268.137463 164.534414 
L 283.576198 164.959318 
L 299.014933 163.323784 
L 314.453668 155.04324 
L 329.892404 144.53287 
L 345.331139 141.403694 
L 360.769874 140.978116 
L 376.208609 159.815631 
L 391.647344 162.941673 
L 407.08608 162.900186 
" style="fill:none;stroke:#1b9e77;stroke-linecap:square;stroke-opacity:0.5;stroke-width:1.5;"/>
   </g>
   <g id="line2d_69">
    <path clip-path="url(#p531fea1ebc)" d="M 51.99517 162.390207 
L 67.433906 158.107536 
L 82.872641 156.533464 
L 98.311376 155.137349 
L 113.750111 137.245094 
L 129.188846 123.753752 
L 144.627582 127.442844 
L 160.066317 145.203621 
L 175.505052 156.191304 
L 190.943787 141.103515 
L 206.382522 142.765021 
L 221.821257 145.658029 
L 237.259993 160.541223 
L 252.698728 156.357628 
L 268.137463 159.122501 
L 283.576198 162.301045 
L 299.014933 162.444402 
L 314.453668 162.164566 
L 329.892404 158.14197 
L 345.331139 161.465245 
L 360.769874 160.232896 
L 376.208609 158.436139 
L 391.647344 160.094553 
L 407.08608 163.178604 
" style="fill:none;stroke:#1b9e77;stroke-linecap:square;stroke-opacity:0.5;stroke-width:1.5;"/>
   </g>
   <g id="line2d_70">
    <path clip-path="url(#p531fea1ebc)" d="M 51.99517 165.545455 
L 67.433906 165.319826 
L 82.872641 165.045598 
L 98.311376 164.566151 
L 113.750111 162.347016 
L 129.188846 142.406828 
L 144.627582 141.006338 
L 160.066317 142.711853 
L 175.505052 80.876416 
L 190.943787 155.174224 
L 206.382522 159.067319 
L 221.821257 155.946417 
L 237.259993 161.697496 
L 252.698728 163.416171 
L 268.137463 162.573488 
L 283.576198 161.525449 
L 299.014933 150.259291 
L 314.453668 144.189063 
L 329.892404 158.577539 
L 345.331139 157.14045 
L 360.769874 151.240463 
L 376.208609 151.66965 
L 391.647344 152.480076 
L 407.08608 161.229924 
" style="fill:none;stroke:#1b9e77;stroke-linecap:square;stroke-opacity:0.5;stroke-width:1.5;"/>
   </g>
   <g id="line2d_71">
    <path clip-path="url(#p531fea1ebc)" d="M 51.99517 165.412373 
L 67.433906 165.295324 
L 82.872641 165.68848 
L 98.311376 165.705015 
L 113.750111 165.337034 
L 129.188846 154.714538 
L 144.627582 120.293338 
L 160.066317 128.755507 
L 175.505052 143.546285 
L 190.943787 132.930423 
L 206.382522 151.480459 
L 221.821257 160.750478 
L 237.259993 161.63538 
L 252.698728 152.267545 
L 268.137463 123.04831 
L 283.576198 138.231698 
L 299.014933 156.387297 
L 314.453668 163.503291 
L 329.892404 164.641465 
L 345.331139 151.823455 
L 360.769874 147.331366 
L 376.208609 165.433988 
L 391.647344 165.863706 
L 407.08608 165.935752 
" style="fill:none;stroke:#1b9e77;stroke-linecap:square;stroke-opacity:0.5;stroke-width:1.5;"/>
   </g>
   <g id="line2d_72">
    <path clip-path="url(#p531fea1ebc)" d="M 51.99517 164.979099 
L 67.433906 165.680667 
L 82.872641 165.325667 
L 98.311376 163.500242 
L 113.750111 126.927903 
L 129.188846 143.360818 
L 144.627582 119.296466 
L 160.066317 113.629763 
L 175.505052 129.303384 
L 190.943787 108.336896 
L 206.382522 142.707526 
L 221.821257 158.454327 
L 237.259993 162.552995 
L 252.698728 162.295337 
L 268.137463 162.452418 
L 283.576198 163.949341 
L 299.014933 165.074768 
L 314.453668 165.580013 
L 329.892404 165.701826 
L 345.331139 165.613678 
L 360.769874 165.385777 
L 376.208609 165.30152 
L 391.647344 165.1823 
L 407.08608 165.419777 
" style="fill:none;stroke:#1b9e77;stroke-linecap:square;stroke-opacity:0.5;stroke-width:1.5;"/>
   </g>
   <g id="line2d_73">
    <path clip-path="url(#p531fea1ebc)" d="M 51.99517 162.839095 
L 67.433906 159.696429 
L 82.872641 160.751968 
L 98.311376 155.970347 
L 113.750111 155.849364 
L 129.188846 157.152295 
L 144.627582 159.013707 
L 160.066317 160.427923 
L 175.505052 161.296336 
L 190.943787 162.25447 
L 206.382522 163.756521 
L 221.821257 164.962883 
L 237.259993 164.834417 
L 252.698728 163.587434 
L 268.137463 151.891308 
L 283.576198 146.451733 
L 299.014933 136.856397 
L 314.453668 131.538936 
L 329.892404 132.136142 
L 345.331139 127.810931 
L 360.769874 127.008518 
L 376.208609 142.151177 
L 391.647344 162.014454 
L 407.08608 165.759722 
" style="fill:none;stroke:#1b9e77;stroke-linecap:square;stroke-opacity:0.5;stroke-width:1.5;"/>
   </g>
   <g id="line2d_74">
    <path clip-path="url(#p531fea1ebc)" d="M 51.99517 164.904735 
L 67.433906 165.159528 
L 82.872641 165.510455 
L 98.311376 165.766856 
L 113.750111 165.779232 
L 129.188846 163.837613 
L 144.627582 163.752982 
L 160.066317 162.812645 
L 175.505052 162.174258 
L 190.943787 161.924541 
L 206.382522 161.165998 
L 221.821257 159.30449 
L 237.259993 158.029117 
L 252.698728 156.045371 
L 268.137463 153.081946 
L 283.576198 153.003488 
L 299.014933 151.205438 
L 314.453668 143.449469 
L 329.892404 130.004041 
L 345.331139 140.181419 
L 360.769874 149.354389 
L 376.208609 89.851864 
L 391.647344 134.356751 
L 407.08608 155.355874 
" style="fill:none;stroke:#1b9e77;stroke-linecap:square;stroke-opacity:0.5;stroke-width:1.5;"/>
   </g>
   <g id="line2d_75">
    <path clip-path="url(#p531fea1ebc)" d="M 51.99517 153.134849 
L 67.433906 61.54675 
L 82.872641 105.699769 
L 98.311376 129.061443 
L 113.750111 157.080083 
L 129.188846 159.960776 
L 144.627582 162.685547 
L 160.066317 163.981419 
L 175.505052 164.689093 
L 190.943787 164.305867 
L 206.382522 164.507425 
L 221.821257 165.061173 
L 237.259993 164.853066 
L 252.698728 162.944579 
L 268.137463 155.607454 
L 283.576198 157.019474 
L 299.014933 156.95253 
L 314.453668 156.174447 
L 329.892404 159.005339 
L 345.331139 161.66875 
L 360.769874 162.013373 
L 376.208609 161.763724 
L 391.647344 160.980268 
L 407.08608 165.315311 
" style="fill:none;stroke:#1b9e77;stroke-linecap:square;stroke-opacity:0.5;stroke-width:1.5;"/>
   </g>
   <g id="line2d_76">
    <path clip-path="url(#p531fea1ebc)" d="M 51.99517 165.96 
L 67.433906 164.306736 
L 82.872641 165.144852 
L 98.311376 164.717705 
L 113.750111 160.645521 
L 129.188846 163.887552 
L 144.627582 162.155401 
L 160.066317 162.22994 
L 175.505052 162.514548 
L 190.943787 160.448001 
L 206.382522 131.746078 
L 221.821257 105.645243 
L 237.259993 141.629415 
L 252.698728 142.349896 
L 268.137463 142.967643 
L 283.576198 134.4804 
L 299.014933 151.527239 
L 314.453668 160.783578 
L 329.892404 160.759204 
L 345.331139 147.467875 
L 360.769874 136.183915 
L 376.208609 161.125013 
L 391.647344 163.898091 
L 407.08608 163.438661 
" style="fill:none;stroke:#1b9e77;stroke-linecap:square;stroke-opacity:0.5;stroke-width:1.5;"/>
   </g>
   <g id="line2d_77">
    <path clip-path="url(#p531fea1ebc)" d="M 51.99517 162.44876 
L 67.433906 155.070062 
L 82.872641 153.680146 
L 98.311376 155.129084 
L 113.750111 159.279343 
L 129.188846 147.168621 
L 144.627582 125.889369 
L 160.066317 135.789344 
L 175.505052 140.841049 
L 190.943787 110.289169 
L 206.382522 159.142002 
L 221.821257 165.162755 
L 237.259993 165.017779 
L 252.698728 157.075709 
L 268.137463 159.638969 
L 283.576198 163.47079 
L 299.014933 132.806502 
L 314.453668 163.643742 
L 329.892404 159.56207 
L 345.331139 162.106065 
L 360.769874 162.362432 
L 376.208609 160.535542 
L 391.647344 158.138011 
L 407.08608 161.765184 
" style="fill:none;stroke:#1b9e77;stroke-linecap:square;stroke-opacity:0.5;stroke-width:1.5;"/>
   </g>
   <g id="line2d_78">
    <path clip-path="url(#p531fea1ebc)" d="M 51.99517 164.489491 
L 67.433906 165.049329 
L 82.872641 164.942859 
L 98.311376 163.965206 
L 113.750111 162.799376 
L 129.188846 161.660127 
L 144.627582 160.006128 
L 160.066317 158.739046 
L 175.505052 157.146115 
L 190.943787 150.088487 
L 206.382522 133.917157 
L 221.821257 141.851202 
L 237.259993 153.21493 
L 252.698728 84.091543 
L 268.137463 100.058051 
L 283.576198 135.400951 
L 299.014933 162.282807 
L 314.453668 164.059975 
L 329.892404 164.756309 
L 345.331139 164.686396 
L 360.769874 165.357451 
L 376.208609 165.673739 
L 391.647344 165.838132 
L 407.08608 165.937698 
" style="fill:none;stroke:#1b9e77;stroke-linecap:square;stroke-opacity:0.5;stroke-width:1.5;"/>
   </g>
   <g id="line2d_79">
    <path clip-path="url(#p531fea1ebc)" d="M 51.99517 163.002544 
L 67.433906 157.034171 
L 82.872641 152.331293 
L 98.311376 155.338592 
L 113.750111 161.351187 
L 129.188846 154.947085 
L 144.627582 116.296342 
L 160.066317 136.710441 
L 175.505052 150.373659 
L 190.943787 158.302639 
L 206.382522 165.225822 
L 221.821257 165.313205 
L 237.259993 164.251553 
L 252.698728 152.945611 
L 268.137463 141.694184 
L 283.576198 147.103221 
L 299.014933 146.984315 
L 314.453668 143.461319 
L 329.892404 142.788235 
L 345.331139 159.234276 
L 360.769874 161.466663 
L 376.208609 157.631904 
L 391.647344 158.448959 
L 407.08608 163.775286 
" style="fill:none;stroke:#1b9e77;stroke-linecap:square;stroke-opacity:0.5;stroke-width:1.5;"/>
   </g>
   <g id="line2d_80">
    <path clip-path="url(#p531fea1ebc)" d="M 51.99517 154.823751 
L 67.433906 162.075351 
L 82.872641 165.085821 
L 98.311376 165.041639 
L 113.750111 165.198008 
L 129.188846 165.310441 
L 144.627582 165.229018 
L 160.066317 165.390087 
L 175.505052 165.392843 
L 190.943787 165.127158 
L 206.382522 163.244672 
L 221.821257 162.841343 
L 237.259993 162.763376 
L 252.698728 157.06818 
L 268.137463 149.560058 
L 283.576198 158.557997 
L 299.014933 144.341888 
L 314.453668 134.53831 
L 329.892404 151.715683 
L 345.331139 157.723385 
L 360.769874 148.883441 
L 376.208609 81.065968 
L 391.647344 100.466888 
L 407.08608 164.567205 
" style="fill:none;stroke:#1b9e77;stroke-linecap:square;stroke-opacity:0.5;stroke-width:1.5;"/>
   </g>
   <g id="line2d_81">
    <path clip-path="url(#p531fea1ebc)" d="M 51.99517 158.893368 
L 67.433906 148.336146 
L 82.872641 151.233907 
L 98.311376 155.794386 
L 113.750111 162.202533 
L 129.188846 164.533272 
L 144.627582 165.243117 
L 160.066317 164.863243 
L 175.505052 165.222097 
L 190.943787 165.570268 
L 206.382522 165.653478 
L 221.821257 165.837552 
L 237.259993 165.209254 
L 252.698728 159.428849 
L 268.137463 157.008109 
L 283.576198 157.777607 
L 299.014933 149.595269 
L 314.453668 148.665319 
L 329.892404 127.626794 
L 345.331139 124.130238 
L 360.769874 117.813767 
L 376.208609 107.072585 
L 391.647344 163.602367 
L 407.08608 164.69897 
" style="fill:none;stroke:#1b9e77;stroke-linecap:square;stroke-opacity:0.5;stroke-width:1.5;"/>
   </g>
   <g id="line2d_82">
    <path clip-path="url(#p531fea1ebc)" d="M 51.99517 129.631678 
L 67.433906 140.537192 
L 82.872641 157.977597 
L 98.311376 153.318197 
L 113.750111 145.38005 
L 129.188846 118.126624 
L 144.627582 149.350502 
L 160.066317 163.678919 
L 175.505052 163.365779 
L 190.943787 151.160815 
L 206.382522 136.883383 
L 221.821257 152.899638 
L 237.259993 153.420478 
L 252.698728 142.6039 
L 268.137463 141.595074 
L 283.576198 154.410699 
L 299.014933 162.788706 
L 314.453668 164.706925 
L 329.892404 165.443881 
L 345.331139 165.335402 
L 360.769874 165.647049 
L 376.208609 165.86919 
L 391.647344 165.926394 
L 407.08608 165.954443 
" style="fill:none;stroke:#1b9e77;stroke-linecap:square;stroke-opacity:0.5;stroke-width:1.5;"/>
   </g>
   <g id="line2d_83">
    <path clip-path="url(#p531fea1ebc)" d="M 51.99517 165.886868 
L 67.433906 165.744662 
L 82.872641 165.82577 
L 98.311376 165.818611 
L 113.750111 165.823674 
L 129.188846 165.884222 
L 144.627582 165.841486 
L 160.066317 163.288226 
L 175.505052 145.380201 
L 190.943787 129.107645 
L 206.382522 150.794903 
L 221.821257 164.567664 
L 237.259993 164.557644 
L 252.698728 152.734735 
L 268.137463 145.766693 
L 283.576198 156.610458 
L 299.014933 155.19935 
L 314.453668 150.707694 
L 329.892404 151.182841 
L 345.331139 154.239432 
L 360.769874 139.918437 
L 376.208609 133.702189 
L 391.647344 113.081122 
L 407.08608 144.347976 
" style="fill:none;stroke:#1b9e77;stroke-linecap:square;stroke-opacity:0.5;stroke-width:1.5;"/>
   </g>
   <g id="line2d_84">
    <path clip-path="url(#p531fea1ebc)" d="M 51.99517 165.94701 
L 67.433906 165.930565 
L 82.872641 164.13786 
L 98.311376 154.764057 
L 113.750111 165.125282 
L 129.188846 165.882495 
L 144.627582 165.903911 
L 160.066317 165.924371 
L 175.505052 162.305586 
L 190.943787 154.206187 
L 206.382522 116.187484 
L 221.821257 165.511073 
L 237.259993 165.034955 
L 252.698728 136.219566 
L 268.137463 157.684843 
L 283.576198 147.002103 
L 299.014933 65.24425 
L 314.453668 164.830548 
L 329.892404 165.113815 
L 345.331139 122.818011 
L 360.769874 142.751829 
L 376.208609 165.62849 
L 391.647344 165.907293 
L 407.08608 165.950925 
" style="fill:none;stroke:#1b9e77;stroke-linecap:square;stroke-opacity:0.5;stroke-width:1.5;"/>
   </g>
   <g id="line2d_85">
    <path clip-path="url(#p531fea1ebc)" d="M 51.99517 165.716025 
L 67.433906 165.201491 
L 82.872641 165.213507 
L 98.311376 164.971768 
L 113.750111 165.118871 
L 129.188846 165.59849 
L 144.627582 165.746468 
L 160.066317 165.641909 
L 175.505052 165.589671 
L 190.943787 165.653608 
L 206.382522 165.71016 
L 221.821257 165.808774 
L 237.259993 165.472844 
L 252.698728 164.140078 
L 268.137463 161.540596 
L 283.576198 147.546152 
L 299.014933 147.116604 
L 314.453668 144.681603 
L 329.892404 123.455972 
L 345.331139 132.890185 
L 360.769874 143.028082 
L 376.208609 142.451841 
L 391.647344 119.904803 
L 407.08608 97.813001 
" style="fill:none;stroke:#1b9e77;stroke-linecap:square;stroke-opacity:0.5;stroke-width:1.5;"/>
   </g>
   <g id="line2d_86">
    <path clip-path="url(#p531fea1ebc)" d="M 51.99517 165.954486 
L 67.433906 165.92688 
L 82.872641 165.899537 
L 98.311376 165.880173 
L 113.750111 159.146121 
L 129.188846 157.892506 
L 144.627582 75.039857 
L 160.066317 156.150974 
L 175.505052 129.482976 
L 190.943787 87.545019 
L 206.382522 125.009929 
L 221.821257 155.476428 
L 237.259993 165.627461 
L 252.698728 165.329416 
L 268.137463 165.056863 
L 283.576198 165.076622 
L 299.014933 164.983761 
L 314.453668 165.268033 
L 329.892404 164.463045 
L 345.331139 164.810644 
L 360.769874 161.139526 
L 376.208609 162.147833 
L 391.647344 162.11996 
L 407.08608 160.584451 
" style="fill:none;stroke:#1b9e77;stroke-linecap:square;stroke-opacity:0.5;stroke-width:1.5;"/>
   </g>
   <g id="line2d_87">
    <path clip-path="url(#p531fea1ebc)" d="M 51.99517 139.901063 
L 67.433906 151.802791 
L 82.872641 162.741762 
L 98.311376 157.475824 
L 113.750111 164.13109 
L 129.188846 165.103868 
L 144.627582 165.589895 
L 160.066317 165.723464 
L 175.505052 165.772456 
L 190.943787 165.411394 
L 206.382522 156.674318 
L 221.821257 158.455946 
L 237.259993 156.176249 
L 252.698728 146.203162 
L 268.137463 143.642085 
L 283.576198 125.262746 
L 299.014933 131.495163 
L 314.453668 154.23197 
L 329.892404 163.892275 
L 345.331139 164.964537 
L 360.769874 162.866311 
L 376.208609 128.723172 
L 391.647344 132.290354 
L 407.08608 147.480605 
" style="fill:none;stroke:#1b9e77;stroke-linecap:square;stroke-opacity:0.5;stroke-width:1.5;"/>
   </g>
   <g id="line2d_88">
    <path clip-path="url(#p531fea1ebc)" d="M 51.99517 145.111948 
L 67.433906 110.221557 
L 82.872641 159.511678 
L 98.311376 162.72957 
L 113.750111 163.874969 
L 129.188846 162.847972 
L 144.627582 161.303971 
L 160.066317 155.687597 
L 175.505052 153.938295 
L 190.943787 160.51107 
L 206.382522 161.383329 
L 221.821257 160.149196 
L 237.259993 156.405906 
L 252.698728 157.878889 
L 268.137463 148.996501 
L 283.576198 162.227925 
L 299.014933 160.930834 
L 314.453668 158.722907 
L 329.892404 150.90432 
L 345.331139 135.96936 
L 360.769874 143.668015 
L 376.208609 143.3506 
L 391.647344 140.72815 
L 407.08608 158.957951 
" style="fill:none;stroke:#1b9e77;stroke-linecap:square;stroke-opacity:0.5;stroke-width:1.5;"/>
   </g>
   <g id="line2d_89">
    <path clip-path="url(#p531fea1ebc)" d="M 51.99517 165.773068 
L 67.433906 165.420834 
L 82.872641 165.716266 
L 98.311376 165.736253 
L 113.750111 165.766147 
L 129.188846 165.847318 
L 144.627582 165.857463 
L 160.066317 165.886171 
L 175.505052 165.867344 
L 190.943787 165.490842 
L 206.382522 164.02735 
L 221.821257 163.358757 
L 237.259993 157.793426 
L 252.698728 156.841864 
L 268.137463 155.844148 
L 283.576198 152.629002 
L 299.014933 150.992386 
L 314.453668 145.177115 
L 329.892404 128.681448 
L 345.331139 124.694622 
L 360.769874 124.223688 
L 376.208609 119.640637 
L 391.647344 121.405297 
L 407.08608 153.341059 
" style="fill:none;stroke:#1b9e77;stroke-linecap:square;stroke-opacity:0.5;stroke-width:1.5;"/>
   </g>
   <g id="line2d_90">
    <path clip-path="url(#p531fea1ebc)" d="M 51.99517 165.776224 
L 67.433906 165.777301 
L 82.872641 165.880804 
L 98.311376 165.834474 
L 113.750111 165.754933 
L 129.188846 165.847241 
L 144.627582 165.847228 
L 160.066317 165.841165 
L 175.505052 165.058438 
L 190.943787 113.327642 
L 206.382522 122.143687 
L 221.821257 164.911762 
L 237.259993 162.190597 
L 252.698728 131.490899 
L 268.137463 100.653649 
L 283.576198 115.5755 
L 299.014933 142.695828 
L 314.453668 154.55505 
L 329.892404 161.170948 
L 345.331139 159.908863 
L 360.769874 161.07985 
L 376.208609 163.697979 
L 391.647344 165.116104 
L 407.08608 165.876332 
" style="fill:none;stroke:#1b9e77;stroke-linecap:square;stroke-opacity:0.5;stroke-width:1.5;"/>
   </g>
   <g id="line2d_91">
    <path clip-path="url(#p531fea1ebc)" d="M 51.99517 157.709257 
L 67.433906 157.488679 
L 82.872641 162.195361 
L 98.311376 162.143373 
L 113.750111 164.016767 
L 129.188846 163.257014 
L 144.627582 162.950161 
L 160.066317 159.64243 
L 175.505052 158.410723 
L 190.943787 161.266152 
L 206.382522 163.633334 
L 221.821257 164.722069 
L 237.259993 163.264815 
L 252.698728 151.358611 
L 268.137463 135.950993 
L 283.576198 150.837483 
L 299.014933 124.383343 
L 314.453668 165.401178 
L 329.892404 159.697745 
L 345.331139 84.846848 
L 360.769874 136.300569 
L 376.208609 150.321114 
L 391.647344 163.163234 
L 407.08608 153.051249 
" style="fill:none;stroke:#1b9e77;stroke-linecap:square;stroke-opacity:0.5;stroke-width:1.5;"/>
   </g>
   <g id="line2d_92">
    <path clip-path="url(#p531fea1ebc)" d="M 51.99517 158.966292 
L 67.433906 160.319978 
L 82.872641 148.159981 
L 98.311376 98.876995 
L 113.750111 120.895816 
L 129.188846 160.280501 
L 144.627582 164.801562 
L 160.066317 164.711289 
L 175.505052 164.859425 
L 190.943787 165.021574 
L 206.382522 165.355514 
L 221.821257 165.52929 
L 237.259993 165.544152 
L 252.698728 165.08653 
L 268.137463 155.568901 
L 283.576198 149.907743 
L 299.014933 138.77615 
L 314.453668 112.258344 
L 329.892404 140.224908 
L 345.331139 154.357951 
L 360.769874 161.048298 
L 376.208609 164.364473 
L 391.647344 165.307875 
L 407.08608 165.788965 
" style="fill:none;stroke:#1b9e77;stroke-linecap:square;stroke-opacity:0.5;stroke-width:1.5;"/>
   </g>
   <g id="line2d_93">
    <path clip-path="url(#p531fea1ebc)" d="M 51.99517 125.39104 
L 67.433906 59.305961 
L 82.872641 136.389148 
L 98.311376 154.496905 
L 113.750111 159.865775 
L 129.188846 159.343306 
L 144.627582 160.82864 
L 160.066317 162.603365 
L 175.505052 164.132728 
L 190.943787 164.723805 
L 206.382522 165.012082 
L 221.821257 164.319855 
L 237.259993 165.094869 
L 252.698728 165.730922 
L 268.137463 165.867204 
L 283.576198 165.871285 
L 299.014933 165.883291 
L 314.453668 165.842902 
L 329.892404 164.6383 
L 345.331139 164.81844 
L 360.769874 152.485186 
L 376.208609 136.517229 
L 391.647344 132.087807 
L 407.08608 154.762456 
" style="fill:none;stroke:#1b9e77;stroke-linecap:square;stroke-opacity:0.5;stroke-width:1.5;"/>
   </g>
   <g id="line2d_94">
    <path clip-path="url(#p531fea1ebc)" d="M 51.99517 161.598092 
L 67.433906 164.237065 
L 82.872641 164.824465 
L 98.311376 163.355554 
L 113.750111 163.886534 
L 129.188846 165.526652 
L 144.627582 165.794144 
L 160.066317 165.620387 
L 175.505052 165.358927 
L 190.943787 165.461153 
L 206.382522 165.682072 
L 221.821257 165.822663 
L 237.259993 165.724646 
L 252.698728 141.501945 
L 268.137463 14.76 
L 283.576198 155.128372 
L 299.014933 160.319446 
L 314.453668 145.555811 
L 329.892404 108.775181 
L 345.331139 151.10277 
L 360.769874 161.461586 
L 376.208609 163.677027 
L 391.647344 165.028837 
L 407.08608 165.809169 
" style="fill:none;stroke:#1b9e77;stroke-linecap:square;stroke-opacity:0.5;stroke-width:1.5;"/>
   </g>
   <g id="line2d_95">
    <path clip-path="url(#p531fea1ebc)" d="M 51.99517 140.243541 
L 67.433906 161.403646 
L 82.872641 161.741695 
L 98.311376 159.474864 
L 113.750111 151.268955 
L 129.188846 133.727112 
L 144.627582 134.113501 
L 160.066317 130.355323 
L 175.505052 132.587133 
L 190.943787 99.767402 
L 206.382522 144.041361 
L 221.821257 154.055743 
L 237.259993 161.499269 
L 252.698728 162.162915 
L 268.137463 164.527025 
L 283.576198 164.939905 
L 299.014933 165.323907 
L 314.453668 165.495238 
L 329.892404 165.690568 
L 345.331139 165.737223 
L 360.769874 165.81259 
L 376.208609 165.918556 
L 391.647344 165.942733 
L 407.08608 160.182304 
" style="fill:none;stroke:#1b9e77;stroke-linecap:square;stroke-opacity:0.5;stroke-width:1.5;"/>
   </g>
   <g id="line2d_96">
    <path clip-path="url(#p531fea1ebc)" d="M 51.99517 159.370818 
L 67.433906 153.267011 
L 82.872641 157.69092 
L 98.311376 159.336025 
L 113.750111 160.111939 
L 129.188846 159.986423 
L 144.627582 162.660851 
L 160.066317 164.493421 
L 175.505052 163.862207 
L 190.943787 161.050998 
L 206.382522 154.161384 
L 221.821257 160.770024 
L 237.259993 162.997556 
L 252.698728 163.488823 
L 268.137463 153.31763 
L 283.576198 126.278917 
L 299.014933 129.153528 
L 314.453668 163.631006 
L 329.892404 161.699751 
L 345.331139 90.500527 
L 360.769874 151.58856 
L 376.208609 155.190558 
L 391.647344 142.088732 
L 407.08608 159.314892 
" style="fill:none;stroke:#1b9e77;stroke-linecap:square;stroke-opacity:0.5;stroke-width:1.5;"/>
   </g>
   <g id="line2d_97">
    <path clip-path="url(#p531fea1ebc)" d="M 51.99517 162.356452 
L 67.433906 150.504625 
L 82.872641 139.217985 
L 98.311376 138.754963 
L 113.750111 146.930145 
L 129.188846 157.372884 
L 144.627582 154.232224 
L 160.066317 143.492697 
L 175.505052 158.971359 
L 190.943787 165.540853 
L 206.382522 165.760644 
L 221.821257 163.95574 
L 237.259993 164.306275 
L 252.698728 165.374193 
L 268.137463 165.835401 
L 283.576198 165.915495 
L 299.014933 165.895133 
L 314.453668 150.23174 
L 329.892404 120.781859 
L 345.331139 165.40723 
L 360.769874 164.494651 
L 376.208609 111.924027 
L 391.647344 134.736817 
L 407.08608 154.019111 
" style="fill:none;stroke:#1b9e77;stroke-linecap:square;stroke-opacity:0.5;stroke-width:1.5;"/>
   </g>
   <g id="line2d_98">
    <path clip-path="url(#p531fea1ebc)" d="M 51.99517 165.265606 
L 67.433906 163.426029 
L 82.872641 161.157009 
L 98.311376 154.484083 
L 113.750111 133.815934 
L 129.188846 110.138491 
L 144.627582 121.746803 
L 160.066317 128.981361 
L 175.505052 121.697226 
L 190.943787 131.943721 
L 206.382522 157.606932 
L 221.821257 160.643456 
L 237.259993 164.541104 
L 252.698728 165.335295 
L 268.137463 165.534246 
L 283.576198 165.258043 
L 299.014933 165.227007 
L 314.453668 165.722602 
L 329.892404 165.797187 
L 345.331139 165.540935 
L 360.769874 155.844796 
L 376.208609 157.928053 
L 391.647344 162.439079 
L 407.08608 165.937506 
" style="fill:none;stroke:#1b9e77;stroke-linecap:square;stroke-opacity:0.5;stroke-width:1.5;"/>
   </g>
   <g id="line2d_99">
    <path clip-path="url(#p531fea1ebc)" d="M 51.99517 161.217816 
L 67.433906 162.788471 
L 82.872641 164.296861 
L 98.311376 163.355645 
L 113.750111 163.330386 
L 129.188846 164.450114 
L 144.627582 165.035617 
L 160.066317 165.121144 
L 175.505052 165.072414 
L 190.943787 164.681645 
L 206.382522 164.488856 
L 221.821257 165.112322 
L 237.259993 165.27852 
L 252.698728 165.287966 
L 268.137463 163.729608 
L 283.576198 158.662491 
L 299.014933 140.04013 
L 314.453668 154.23947 
L 329.892404 102.145942 
L 345.331139 122.557846 
L 360.769874 138.255097 
L 376.208609 132.624135 
L 391.647344 113.451287 
L 407.08608 150.788716 
" style="fill:none;stroke:#1b9e77;stroke-linecap:square;stroke-opacity:0.5;stroke-width:1.5;"/>
   </g>
   <g id="line2d_100">
    <path clip-path="url(#p531fea1ebc)" d="M 51.99517 164.256373 
L 67.433906 165.449055 
L 82.872641 165.734983 
L 98.311376 164.407076 
L 113.750111 162.079194 
L 129.188846 165.472933 
L 144.627582 165.872312 
L 160.066317 165.934793 
L 175.505052 165.952537 
L 190.943787 165.119945 
L 206.382522 165.149984 
L 221.821257 164.744623 
L 237.259993 162.516251 
L 252.698728 162.459425 
L 268.137463 158.382283 
L 283.576198 159.273632 
L 299.014933 155.696234 
L 314.453668 124.872968 
L 329.892404 54.445209 
L 345.331139 105.320777 
L 360.769874 131.050256 
L 376.208609 152.7701 
L 391.647344 163.530431 
L 407.08608 165.521133 
" style="fill:none;stroke:#1b9e77;stroke-linecap:square;stroke-opacity:0.5;stroke-width:1.5;"/>
   </g>
   <g id="line2d_101">
    <path clip-path="url(#p531fea1ebc)" d="M 51.99517 165.662344 
L 67.433906 165.378096 
L 82.872641 164.194315 
L 98.311376 158.064775 
L 113.750111 145.66096 
L 129.188846 163.780288 
L 144.627582 158.262125 
L 160.066317 147.630143 
L 175.505052 151.936642 
L 190.943787 148.553931 
L 206.382522 136.348918 
L 221.821257 143.269104 
L 237.259993 156.615569 
L 252.698728 124.959979 
L 268.137463 122.406459 
L 283.576198 149.626046 
L 299.014933 161.471952 
L 314.453668 147.736665 
L 329.892404 142.143223 
L 345.331139 160.816896 
L 360.769874 164.788063 
L 376.208609 165.385096 
L 391.647344 165.534725 
L 407.08608 165.78619 
" style="fill:none;stroke:#1b9e77;stroke-linecap:square;stroke-opacity:0.5;stroke-width:1.5;"/>
   </g>
   <g id="line2d_102">
    <path clip-path="url(#p531fea1ebc)" d="M 51.99517 141.993261 
L 67.433906 154.340349 
L 82.872641 140.88504 
L 98.311376 145.869612 
L 113.750111 163.017478 
L 129.188846 152.134261 
L 144.627582 77.749109 
L 160.066317 128.05989 
L 175.505052 143.47649 
L 190.943787 143.122073 
L 206.382522 160.654775 
L 221.821257 164.180738 
L 237.259993 165.328721 
L 252.698728 165.433854 
L 268.137463 165.571362 
L 283.576198 165.56838 
L 299.014933 165.730992 
L 314.453668 165.909923 
L 329.892404 165.887901 
L 345.331139 161.158429 
L 360.769874 157.682389 
L 376.208609 161.730608 
L 391.647344 156.605877 
L 407.08608 163.920992 
" style="fill:none;stroke:#1b9e77;stroke-linecap:square;stroke-opacity:0.5;stroke-width:1.5;"/>
   </g>
   <g id="line2d_103">
    <path clip-path="url(#p531fea1ebc)" d="M 51.99517 163.900903 
L 67.433906 144.406984 
L 82.872641 114.930107 
L 98.311376 148.539706 
L 113.750111 161.35393 
L 129.188846 142.093399 
L 144.627582 126.915593 
L 160.066317 123.8417 
L 175.505052 148.919305 
L 190.943787 164.01108 
L 206.382522 163.324752 
L 221.821257 138.46203 
L 237.259993 144.83602 
L 252.698728 165.286527 
L 268.137463 165.849792 
L 283.576198 165.827558 
L 299.014933 165.798853 
L 314.453668 165.234909 
L 329.892404 165.706512 
L 345.331139 165.918421 
L 360.769874 165.886992 
L 376.208609 154.954695 
L 391.647344 153.918562 
L 407.08608 156.094174 
" style="fill:none;stroke:#1b9e77;stroke-linecap:square;stroke-opacity:0.5;stroke-width:1.5;"/>
   </g>
   <g id="line2d_104">
    <path clip-path="url(#p531fea1ebc)" d="M 51.99517 142.026993 
L 67.433906 141.638804 
L 82.872641 154.800827 
L 98.311376 158.560372 
L 113.750111 161.754972 
L 129.188846 162.244203 
L 144.627582 161.261811 
L 160.066317 148.108001 
L 175.505052 153.625486 
L 190.943787 122.792614 
L 206.382522 136.742314 
L 221.821257 152.043735 
L 237.259993 156.80185 
L 252.698728 132.442686 
L 268.137463 146.182739 
L 283.576198 161.977805 
L 299.014933 163.982567 
L 314.453668 165.028363 
L 329.892404 165.358689 
L 345.331139 164.096151 
L 360.769874 157.070954 
L 376.208609 159.737761 
L 391.647344 155.187581 
L 407.08608 152.545229 
" style="fill:none;stroke:#1b9e77;stroke-linecap:square;stroke-opacity:0.5;stroke-width:1.5;"/>
   </g>
   <g id="line2d_105">
    <path clip-path="url(#p531fea1ebc)" d="M 51.99517 165.928519 
L 67.433906 165.939947 
L 82.872641 165.475603 
L 98.311376 164.653572 
L 113.750111 161.601095 
L 129.188846 160.215952 
L 144.627582 159.659401 
L 160.066317 157.501336 
L 175.505052 156.215251 
L 190.943787 147.307027 
L 206.382522 134.243642 
L 221.821257 115.767835 
L 237.259993 112.379197 
L 252.698728 80.909229 
L 268.137463 151.225291 
L 283.576198 163.291958 
L 299.014933 164.558892 
L 314.453668 164.626005 
L 329.892404 164.998936 
L 345.331139 165.175304 
L 360.769874 165.388274 
L 376.208609 165.578806 
L 391.647344 165.29193 
L 407.08608 158.079505 
" style="fill:none;stroke:#1b9e77;stroke-linecap:square;stroke-opacity:0.5;stroke-width:1.5;"/>
   </g>
   <g id="line2d_106">
    <path clip-path="url(#p531fea1ebc)" d="M 51.99517 164.4261 
L 67.433906 164.982616 
L 82.872641 165.167751 
L 98.311376 160.554637 
L 113.750111 158.455892 
L 129.188846 164.899828 
L 144.627582 165.667623 
L 160.066317 165.647588 
L 175.505052 164.839116 
L 190.943787 160.513543 
L 206.382522 163.3811 
L 221.821257 165.681039 
L 237.259993 165.516271 
L 252.698728 141.858024 
L 268.137463 71.247167 
L 283.576198 125.254532 
L 299.014933 151.084457 
L 314.453668 156.068663 
L 329.892404 141.979379 
L 345.331139 116.046275 
L 360.769874 146.952425 
L 376.208609 164.360816 
L 391.647344 165.555794 
L 407.08608 165.87187 
" style="fill:none;stroke:#1b9e77;stroke-linecap:square;stroke-opacity:0.5;stroke-width:1.5;"/>
   </g>
   <g id="line2d_107">
    <path clip-path="url(#p531fea1ebc)" d="M 51.99517 165.251121 
L 67.433906 162.389601 
L 82.872641 160.162492 
L 98.311376 153.275543 
L 113.750111 136.716457 
L 129.188846 128.284581 
L 144.627582 140.656918 
L 160.066317 130.454808 
L 175.505052 121.911987 
L 190.943787 152.642813 
L 206.382522 155.777925 
L 221.821257 142.244681 
L 237.259993 142.059041 
L 252.698728 155.01687 
L 268.137463 157.554141 
L 283.576198 159.241984 
L 299.014933 157.515652 
L 314.453668 164.375362 
L 329.892404 165.14202 
L 345.331139 162.19074 
L 360.769874 165.337142 
L 376.208609 165.909975 
L 391.647344 165.943061 
L 407.08608 165.95758 
" style="fill:none;stroke:#1b9e77;stroke-linecap:square;stroke-opacity:0.5;stroke-width:1.5;"/>
   </g>
   <g id="line2d_108">
    <path clip-path="url(#p531fea1ebc)" d="M 51.99517 162.72471 
L 67.433906 156.689288 
L 82.872641 155.75452 
L 98.311376 157.004488 
L 113.750111 158.874599 
L 129.188846 160.568768 
L 144.627582 160.61882 
L 160.066317 157.694149 
L 175.505052 153.955476 
L 190.943787 149.013935 
L 206.382522 141.195705 
L 221.821257 113.531839 
L 237.259993 96.941372 
L 252.698728 128.895138 
L 268.137463 157.630093 
L 283.576198 162.680167 
L 299.014933 164.465087 
L 314.453668 164.858829 
L 329.892404 165.263511 
L 345.331139 165.182816 
L 360.769874 165.094965 
L 376.208609 165.285455 
L 391.647344 160.830044 
L 407.08608 151.258731 
" style="fill:none;stroke:#1b9e77;stroke-linecap:square;stroke-opacity:0.5;stroke-width:1.5;"/>
   </g>
   <g id="line2d_109">
    <path clip-path="url(#p531fea1ebc)" d="M 51.99517 140.277148 
L 67.433906 157.006587 
L 82.872641 162.613092 
L 98.311376 160.984943 
L 113.750111 160.382891 
L 129.188846 152.033651 
L 144.627582 140.577188 
L 160.066317 161.208165 
L 175.505052 164.237192 
L 190.943787 163.526604 
L 206.382522 154.799011 
L 221.821257 147.012344 
L 237.259993 138.786139 
L 252.698728 63.289622 
L 268.137463 148.662365 
L 283.576198 147.65294 
L 299.014933 156.79928 
L 314.453668 162.373401 
L 329.892404 165.115581 
L 345.331139 165.501792 
L 360.769874 165.693729 
L 376.208609 165.778299 
L 391.647344 165.800985 
L 407.08608 165.899563 
" style="fill:none;stroke:#1b9e77;stroke-linecap:square;stroke-opacity:0.5;stroke-width:1.5;"/>
   </g>
   <g id="line2d_110">
    <path clip-path="url(#p531fea1ebc)" d="M 51.99517 153.605118 
L 67.433906 158.513944 
L 82.872641 161.767889 
L 98.311376 162.014865 
L 113.750111 164.094141 
L 129.188846 165.325407 
L 144.627582 165.494752 
L 160.066317 164.280531 
L 175.505052 152.243321 
L 190.943787 150.745348 
L 206.382522 162.997058 
L 221.821257 164.726505 
L 237.259993 163.819385 
L 252.698728 141.007612 
L 268.137463 147.697676 
L 283.576198 164.516021 
L 299.014933 165.276985 
L 314.453668 165.629812 
L 329.892404 159.273612 
L 345.331139 128.934147 
L 360.769874 84.632742 
L 376.208609 135.400695 
L 391.647344 138.132049 
L 407.08608 155.88289 
" style="fill:none;stroke:#1b9e77;stroke-linecap:square;stroke-opacity:0.5;stroke-width:1.5;"/>
   </g>
   <g id="line2d_111">
    <path clip-path="url(#p531fea1ebc)" d="M 51.99517 164.370389 
L 67.433906 165.045193 
L 82.872641 165.543 
L 98.311376 164.927133 
L 113.750111 162.510594 
L 129.188846 164.375058 
L 144.627582 165.625814 
L 160.066317 165.88955 
L 175.505052 165.908432 
L 190.943787 164.072825 
L 206.382522 156.44359 
L 221.821257 143.993341 
L 237.259993 22.640459 
L 252.698728 116.677381 
L 268.137463 155.283624 
L 283.576198 156.659706 
L 299.014933 130.43065 
L 314.453668 162.843388 
L 329.892404 163.838774 
L 345.331139 158.024602 
L 360.769874 163.511289 
L 376.208609 165.600594 
L 391.647344 165.850175 
L 407.08608 165.946933 
" style="fill:none;stroke:#1b9e77;stroke-linecap:square;stroke-opacity:0.5;stroke-width:1.5;"/>
   </g>
   <g id="line2d_112">
    <path clip-path="url(#p531fea1ebc)" d="M 51.99517 165.950238 
L 67.433906 165.950238 
L 82.872641 165.950238 
L 98.311376 165.950238 
L 113.750111 165.950238 
L 129.188846 165.950238 
L 144.627582 165.950238 
L 160.066317 160.134989 
L 175.505052 164.832735 
L 190.943787 165.950238 
L 206.382522 165.950238 
L 221.821257 165.457599 
L 237.259993 129.031865 
L 252.698728 106.090264 
L 268.137463 154.115973 
L 283.576198 127.41508 
L 299.014933 103.297266 
L 314.453668 129.197296 
L 329.892404 165.884583 
L 345.331139 165.950238 
L 360.769874 165.950238 
L 376.208609 165.950238 
L 391.647344 164.130415 
L 407.08608 115.02158 
" style="fill:none;stroke:#d95f02;stroke-linecap:square;stroke-width:1.5;"/>
   </g>
   <g id="patch_3">
    <path d="M 34.240625 173.52 
L 34.240625 7.2 
" style="fill:none;stroke:#000000;stroke-linecap:square;stroke-linejoin:miter;stroke-width:0.8;"/>
   </g>
   <g id="patch_4">
    <path d="M 34.240625 173.52 
L 424.840625 173.52 
" style="fill:none;stroke:#000000;stroke-linecap:square;stroke-linejoin:miter;stroke-width:0.8;"/>
   </g>
   <g id="legend_1">
    <g id="patch_5">
     <path d="M 366.673438 29.878125 
L 417.840625 29.878125 
Q 419.840625 29.878125 419.840625 27.878125 
L 419.840625 14.2 
Q 419.840625 12.2 417.840625 12.2 
L 366.673438 12.2 
Q 364.673438 12.2 364.673438 14.2 
L 364.673438 27.878125 
Q 364.673438 29.878125 366.673438 29.878125 
z
" style="fill:#ffffff;opacity:0.8;stroke:#cccccc;stroke-linejoin:miter;"/>
    </g>
    <g id="line2d_113">
     <path d="M 368.673438 20.298438 
L 388.673438 20.298438 
" style="fill:none;stroke:#d95f02;stroke-linecap:square;stroke-width:1.5;"/>
    </g>
    <g id="line2d_114"/>
    <g id="text_14">
     <!-- real -->
     <defs>
      <path d="M 9.421875 75.984375 
L 18.40625 75.984375 
L 18.40625 0 
L 9.421875 0 
z
" id="DejaVuSans-108"/>
     </defs>
     <g transform="translate(396.673438 23.798438)scale(0.1 -0.1)">
      <use xlink:href="#DejaVuSans-114"/>
      <use x="41.082031" xlink:href="#DejaVuSans-101"/>
      <use x="102.605469" xlink:href="#DejaVuSans-97"/>
      <use x="163.884766" xlink:href="#DejaVuSans-108"/>
     </g>
    </g>
   </g>
  </g>
 </g>
 <defs>
  <clipPath id="p531fea1ebc">
   <rect height="166.32" width="390.6" x="34.240625" y="7.2"/>
  </clipPath>
 </defs>
</svg>
