<?xml version="1.0" encoding="utf-8" standalone="no"?>
<!DOCTYPE svg PUBLIC "-//W3C//DTD SVG 1.1//EN"
  "http://www.w3.org/Graphics/SVG/1.1/DTD/svg11.dtd">
<!-- Created with matplotlib (https://matplotlib.org/) -->
<svg height="211.07625pt" version="1.1" viewBox="0 0 436.087315 211.07625" width="436.087315pt" xmlns="http://www.w3.org/2000/svg" xmlns:xlink="http://www.w3.org/1999/xlink">
 <defs>
  <style type="text/css">
*{stroke-linecap:butt;stroke-linejoin:round;}
  </style>
 </defs>
 <g id="figure_1">
  <g id="patch_1">
   <path d="M 0 211.07625 
L 436.087315 211.07625 
L 436.087315 0 
L 0 0 
z
" style="fill:#ffffff;"/>
  </g>
  <g id="axes_1">
   <g id="patch_2">
    <path d="M 34.240625 173.52 
L 424.840625 173.52 
L 424.840625 7.2 
L 34.240625 7.2 
z
" style="fill:#ffffff;"/>
   </g>
   <g id="matplotlib.axis_1">
    <g id="xtick_1">
     <g id="line2d_1">
      <defs>
       <path d="M 0 0 
L 0 3.5 
" id="m86032744e6" style="stroke:#000000;stroke-width:0.8;"/>
      </defs>
      <g>
       <use style="stroke:#000000;stroke-width:0.8;" x="36.556435" xlink:href="#m86032744e6" y="173.52"/>
      </g>
     </g>
     <g id="text_1">
      <!-- 0 -->
      <defs>
       <path d="M 31.78125 66.40625 
Q 24.171875 66.40625 20.328125 58.90625 
Q 16.5 51.421875 16.5 36.375 
Q 16.5 21.390625 20.328125 13.890625 
Q 24.171875 6.390625 31.78125 6.390625 
Q 39.453125 6.390625 43.28125 13.890625 
Q 47.125 21.390625 47.125 36.375 
Q 47.125 51.421875 43.28125 58.90625 
Q 39.453125 66.40625 31.78125 66.40625 
z
M 31.78125 74.21875 
Q 44.046875 74.21875 50.515625 64.515625 
Q 56.984375 54.828125 56.984375 36.375 
Q 56.984375 17.96875 50.515625 8.265625 
Q 44.046875 -1.421875 31.78125 -1.421875 
Q 19.53125 -1.421875 13.0625 8.265625 
Q 6.59375 17.96875 6.59375 36.375 
Q 6.59375 54.828125 13.0625 64.515625 
Q 19.53125 74.21875 31.78125 74.21875 
z
" id="DejaVuSans-48"/>
      </defs>
      <g transform="translate(33.375185 188.118438)scale(0.1 -0.1)">
       <use xlink:href="#DejaVuSans-48"/>
      </g>
     </g>
    </g>
    <g id="xtick_2">
     <g id="line2d_2">
      <g>
       <use style="stroke:#000000;stroke-width:0.8;" x="113.750111" xlink:href="#m86032744e6" y="173.52"/>
      </g>
     </g>
     <g id="text_2">
      <!-- 5 -->
      <defs>
       <path d="M 10.796875 72.90625 
L 49.515625 72.90625 
L 49.515625 64.59375 
L 19.828125 64.59375 
L 19.828125 46.734375 
Q 21.96875 47.46875 24.109375 47.828125 
Q 26.265625 48.1875 28.421875 48.1875 
Q 40.625 48.1875 47.75 41.5 
Q 54.890625 34.8125 54.890625 23.390625 
Q 54.890625 11.625 47.5625 5.09375 
Q 40.234375 -1.421875 26.90625 -1.421875 
Q 22.3125 -1.421875 17.546875 -0.640625 
Q 12.796875 0.140625 7.71875 1.703125 
L 7.71875 11.625 
Q 12.109375 9.234375 16.796875 8.0625 
Q 21.484375 6.890625 26.703125 6.890625 
Q 35.15625 6.890625 40.078125 11.328125 
Q 45.015625 15.765625 45.015625 23.390625 
Q 45.015625 31 40.078125 35.4375 
Q 35.15625 39.890625 26.703125 39.890625 
Q 22.75 39.890625 18.8125 39.015625 
Q 14.890625 38.140625 10.796875 36.28125 
z
" id="DejaVuSans-53"/>
      </defs>
      <g transform="translate(110.568861 188.118438)scale(0.1 -0.1)">
       <use xlink:href="#DejaVuSans-53"/>
      </g>
     </g>
    </g>
    <g id="xtick_3">
     <g id="line2d_3">
      <g>
       <use style="stroke:#000000;stroke-width:0.8;" x="190.943787" xlink:href="#m86032744e6" y="173.52"/>
      </g>
     </g>
     <g id="text_3">
      <!-- 10 -->
      <defs>
       <path d="M 12.40625 8.296875 
L 28.515625 8.296875 
L 28.515625 63.921875 
L 10.984375 60.40625 
L 10.984375 69.390625 
L 28.421875 72.90625 
L 38.28125 72.90625 
L 38.28125 8.296875 
L 54.390625 8.296875 
L 54.390625 0 
L 12.40625 0 
z
" id="DejaVuSans-49"/>
      </defs>
      <g transform="translate(184.581287 188.118438)scale(0.1 -0.1)">
       <use xlink:href="#DejaVuSans-49"/>
       <use x="63.623047" xlink:href="#DejaVuSans-48"/>
      </g>
     </g>
    </g>
    <g id="xtick_4">
     <g id="line2d_4">
      <g>
       <use style="stroke:#000000;stroke-width:0.8;" x="268.137463" xlink:href="#m86032744e6" y="173.52"/>
      </g>
     </g>
     <g id="text_4">
      <!-- 15 -->
      <g transform="translate(261.774963 188.118438)scale(0.1 -0.1)">
       <use xlink:href="#DejaVuSans-49"/>
       <use x="63.623047" xlink:href="#DejaVuSans-53"/>
      </g>
     </g>
    </g>
    <g id="xtick_5">
     <g id="line2d_5">
      <g>
       <use style="stroke:#000000;stroke-width:0.8;" x="345.331139" xlink:href="#m86032744e6" y="173.52"/>
      </g>
     </g>
     <g id="text_5">
      <!-- 20 -->
      <defs>
       <path d="M 19.1875 8.296875 
L 53.609375 8.296875 
L 53.609375 0 
L 7.328125 0 
L 7.328125 8.296875 
Q 12.9375 14.109375 22.625 23.890625 
Q 32.328125 33.6875 34.8125 36.53125 
Q 39.546875 41.84375 41.421875 45.53125 
Q 43.3125 49.21875 43.3125 52.78125 
Q 43.3125 58.59375 39.234375 62.25 
Q 35.15625 65.921875 28.609375 65.921875 
Q 23.96875 65.921875 18.8125 64.3125 
Q 13.671875 62.703125 7.8125 59.421875 
L 7.8125 69.390625 
Q 13.765625 71.78125 18.9375 73 
Q 24.125 74.21875 28.421875 74.21875 
Q 39.75 74.21875 46.484375 68.546875 
Q 53.21875 62.890625 53.21875 53.421875 
Q 53.21875 48.921875 51.53125 44.890625 
Q 49.859375 40.875 45.40625 35.40625 
Q 44.1875 33.984375 37.640625 27.21875 
Q 31.109375 20.453125 19.1875 8.296875 
z
" id="DejaVuSans-50"/>
      </defs>
      <g transform="translate(338.968639 188.118438)scale(0.1 -0.1)">
       <use xlink:href="#DejaVuSans-50"/>
       <use x="63.623047" xlink:href="#DejaVuSans-48"/>
      </g>
     </g>
    </g>
    <g id="xtick_6">
     <g id="line2d_6">
      <g>
       <use style="stroke:#000000;stroke-width:0.8;" x="422.524815" xlink:href="#m86032744e6" y="173.52"/>
      </g>
     </g>
     <g id="text_6">
      <!-- 25 -->
      <g transform="translate(416.162315 188.118438)scale(0.1 -0.1)">
       <use xlink:href="#DejaVuSans-50"/>
       <use x="63.623047" xlink:href="#DejaVuSans-53"/>
      </g>
     </g>
    </g>
    <g id="text_7">
     <!-- hour -->
     <defs>
      <path d="M 54.890625 33.015625 
L 54.890625 0 
L 45.90625 0 
L 45.90625 32.71875 
Q 45.90625 40.484375 42.875 44.328125 
Q 39.84375 48.1875 33.796875 48.1875 
Q 26.515625 48.1875 22.3125 43.546875 
Q 18.109375 38.921875 18.109375 30.90625 
L 18.109375 0 
L 9.078125 0 
L 9.078125 75.984375 
L 18.109375 75.984375 
L 18.109375 46.1875 
Q 21.34375 51.125 25.703125 53.5625 
Q 30.078125 56 35.796875 56 
Q 45.21875 56 50.046875 50.171875 
Q 54.890625 44.34375 54.890625 33.015625 
z
" id="DejaVuSans-104"/>
      <path d="M 30.609375 48.390625 
Q 23.390625 48.390625 19.1875 42.75 
Q 14.984375 37.109375 14.984375 27.296875 
Q 14.984375 17.484375 19.15625 11.84375 
Q 23.34375 6.203125 30.609375 6.203125 
Q 37.796875 6.203125 41.984375 11.859375 
Q 46.1875 17.53125 46.1875 27.296875 
Q 46.1875 37.015625 41.984375 42.703125 
Q 37.796875 48.390625 30.609375 48.390625 
z
M 30.609375 56 
Q 42.328125 56 49.015625 48.375 
Q 55.71875 40.765625 55.71875 27.296875 
Q 55.71875 13.875 49.015625 6.21875 
Q 42.328125 -1.421875 30.609375 -1.421875 
Q 18.84375 -1.421875 12.171875 6.21875 
Q 5.515625 13.875 5.515625 27.296875 
Q 5.515625 40.765625 12.171875 48.375 
Q 18.84375 56 30.609375 56 
z
" id="DejaVuSans-111"/>
      <path d="M 8.5 21.578125 
L 8.5 54.6875 
L 17.484375 54.6875 
L 17.484375 21.921875 
Q 17.484375 14.15625 20.5 10.265625 
Q 23.53125 6.390625 29.59375 6.390625 
Q 36.859375 6.390625 41.078125 11.03125 
Q 45.3125 15.671875 45.3125 23.6875 
L 45.3125 54.6875 
L 54.296875 54.6875 
L 54.296875 0 
L 45.3125 0 
L 45.3125 8.40625 
Q 42.046875 3.421875 37.71875 1 
Q 33.40625 -1.421875 27.6875 -1.421875 
Q 18.265625 -1.421875 13.375 4.4375 
Q 8.5 10.296875 8.5 21.578125 
z
M 31.109375 56 
z
" id="DejaVuSans-117"/>
      <path d="M 41.109375 46.296875 
Q 39.59375 47.171875 37.8125 47.578125 
Q 36.03125 48 33.890625 48 
Q 26.265625 48 22.1875 43.046875 
Q 18.109375 38.09375 18.109375 28.8125 
L 18.109375 0 
L 9.078125 0 
L 9.078125 54.6875 
L 18.109375 54.6875 
L 18.109375 46.1875 
Q 20.953125 51.171875 25.484375 53.578125 
Q 30.03125 56 36.53125 56 
Q 37.453125 56 38.578125 55.875 
Q 39.703125 55.765625 41.0625 55.515625 
z
" id="DejaVuSans-114"/>
     </defs>
     <g transform="translate(218.088281 201.796563)scale(0.1 -0.1)">
      <use xlink:href="#DejaVuSans-104"/>
      <use x="63.378906" xlink:href="#DejaVuSans-111"/>
      <use x="124.560547" xlink:href="#DejaVuSans-117"/>
      <use x="187.939453" xlink:href="#DejaVuSans-114"/>
     </g>
    </g>
   </g>
   <g id="matplotlib.axis_2">
    <g id="ytick_1">
     <g id="line2d_7">
      <defs>
       <path d="M 0 0 
L -3.5 0 
" id="mcdaa52b504" style="stroke:#000000;stroke-width:0.8;"/>
      </defs>
      <g>
       <use style="stroke:#000000;stroke-width:0.8;" x="34.240625" xlink:href="#mcdaa52b504" y="165.960966"/>
      </g>
     </g>
     <g id="text_8">
      <!-- 0 -->
      <g transform="translate(20.878125 169.760185)scale(0.1 -0.1)">
       <use xlink:href="#DejaVuSans-48"/>
      </g>
     </g>
    </g>
    <g id="ytick_2">
     <g id="line2d_8">
      <g>
       <use style="stroke:#000000;stroke-width:0.8;" x="34.240625" xlink:href="#mcdaa52b504" y="125.801671"/>
      </g>
     </g>
     <g id="text_9">
      <!-- 1 -->
      <g transform="translate(20.878125 129.60089)scale(0.1 -0.1)">
       <use xlink:href="#DejaVuSans-49"/>
      </g>
     </g>
    </g>
    <g id="ytick_3">
     <g id="line2d_9">
      <g>
       <use style="stroke:#000000;stroke-width:0.8;" x="34.240625" xlink:href="#mcdaa52b504" y="85.642376"/>
      </g>
     </g>
     <g id="text_10">
      <!-- 2 -->
      <g transform="translate(20.878125 89.441595)scale(0.1 -0.1)">
       <use xlink:href="#DejaVuSans-50"/>
      </g>
     </g>
    </g>
    <g id="ytick_4">
     <g id="line2d_10">
      <g>
       <use style="stroke:#000000;stroke-width:0.8;" x="34.240625" xlink:href="#mcdaa52b504" y="45.483081"/>
      </g>
     </g>
     <g id="text_11">
      <!-- 3 -->
      <defs>
       <path d="M 40.578125 39.3125 
Q 47.65625 37.796875 51.625 33 
Q 55.609375 28.21875 55.609375 21.1875 
Q 55.609375 10.40625 48.1875 4.484375 
Q 40.765625 -1.421875 27.09375 -1.421875 
Q 22.515625 -1.421875 17.65625 -0.515625 
Q 12.796875 0.390625 7.625 2.203125 
L 7.625 11.71875 
Q 11.71875 9.328125 16.59375 8.109375 
Q 21.484375 6.890625 26.8125 6.890625 
Q 36.078125 6.890625 40.9375 10.546875 
Q 45.796875 14.203125 45.796875 21.1875 
Q 45.796875 27.640625 41.28125 31.265625 
Q 36.765625 34.90625 28.71875 34.90625 
L 20.21875 34.90625 
L 20.21875 43.015625 
L 29.109375 43.015625 
Q 36.375 43.015625 40.234375 45.921875 
Q 44.09375 48.828125 44.09375 54.296875 
Q 44.09375 59.90625 40.109375 62.90625 
Q 36.140625 65.921875 28.71875 65.921875 
Q 24.65625 65.921875 20.015625 65.03125 
Q 15.375 64.15625 9.8125 62.3125 
L 9.8125 71.09375 
Q 15.4375 72.65625 20.34375 73.4375 
Q 25.25 74.21875 29.59375 74.21875 
Q 40.828125 74.21875 47.359375 69.109375 
Q 53.90625 64.015625 53.90625 55.328125 
Q 53.90625 49.265625 50.4375 45.09375 
Q 46.96875 40.921875 40.578125 39.3125 
z
" id="DejaVuSans-51"/>
      </defs>
      <g transform="translate(20.878125 49.2823)scale(0.1 -0.1)">
       <use xlink:href="#DejaVuSans-51"/>
      </g>
     </g>
    </g>
    <g id="text_12">
     <!-- precipitation [mm/hour] -->
     <defs>
      <path d="M 18.109375 8.203125 
L 18.109375 -20.796875 
L 9.078125 -20.796875 
L 9.078125 54.6875 
L 18.109375 54.6875 
L 18.109375 46.390625 
Q 20.953125 51.265625 25.265625 53.625 
Q 29.59375 56 35.59375 56 
Q 45.5625 56 51.78125 48.09375 
Q 58.015625 40.1875 58.015625 27.296875 
Q 58.015625 14.40625 51.78125 6.484375 
Q 45.5625 -1.421875 35.59375 -1.421875 
Q 29.59375 -1.421875 25.265625 0.953125 
Q 20.953125 3.328125 18.109375 8.203125 
z
M 48.6875 27.296875 
Q 48.6875 37.203125 44.609375 42.84375 
Q 40.53125 48.484375 33.40625 48.484375 
Q 26.265625 48.484375 22.1875 42.84375 
Q 18.109375 37.203125 18.109375 27.296875 
Q 18.109375 17.390625 22.1875 11.75 
Q 26.265625 6.109375 33.40625 6.109375 
Q 40.53125 6.109375 44.609375 11.75 
Q 48.6875 17.390625 48.6875 27.296875 
z
" id="DejaVuSans-112"/>
      <path d="M 56.203125 29.59375 
L 56.203125 25.203125 
L 14.890625 25.203125 
Q 15.484375 15.921875 20.484375 11.0625 
Q 25.484375 6.203125 34.421875 6.203125 
Q 39.59375 6.203125 44.453125 7.46875 
Q 49.3125 8.734375 54.109375 11.28125 
L 54.109375 2.78125 
Q 49.265625 0.734375 44.1875 -0.34375 
Q 39.109375 -1.421875 33.890625 -1.421875 
Q 20.796875 -1.421875 13.15625 6.1875 
Q 5.515625 13.8125 5.515625 26.8125 
Q 5.515625 40.234375 12.765625 48.109375 
Q 20.015625 56 32.328125 56 
Q 43.359375 56 49.78125 48.890625 
Q 56.203125 41.796875 56.203125 29.59375 
z
M 47.21875 32.234375 
Q 47.125 39.59375 43.09375 43.984375 
Q 39.0625 48.390625 32.421875 48.390625 
Q 24.90625 48.390625 20.390625 44.140625 
Q 15.875 39.890625 15.1875 32.171875 
z
" id="DejaVuSans-101"/>
      <path d="M 48.78125 52.59375 
L 48.78125 44.1875 
Q 44.96875 46.296875 41.140625 47.34375 
Q 37.3125 48.390625 33.40625 48.390625 
Q 24.65625 48.390625 19.8125 42.84375 
Q 14.984375 37.3125 14.984375 27.296875 
Q 14.984375 17.28125 19.8125 11.734375 
Q 24.65625 6.203125 33.40625 6.203125 
Q 37.3125 6.203125 41.140625 7.25 
Q 44.96875 8.296875 48.78125 10.40625 
L 48.78125 2.09375 
Q 45.015625 0.34375 40.984375 -0.53125 
Q 36.96875 -1.421875 32.421875 -1.421875 
Q 20.0625 -1.421875 12.78125 6.34375 
Q 5.515625 14.109375 5.515625 27.296875 
Q 5.515625 40.671875 12.859375 48.328125 
Q 20.21875 56 33.015625 56 
Q 37.15625 56 41.109375 55.140625 
Q 45.0625 54.296875 48.78125 52.59375 
z
" id="DejaVuSans-99"/>
      <path d="M 9.421875 54.6875 
L 18.40625 54.6875 
L 18.40625 0 
L 9.421875 0 
z
M 9.421875 75.984375 
L 18.40625 75.984375 
L 18.40625 64.59375 
L 9.421875 64.59375 
z
" id="DejaVuSans-105"/>
      <path d="M 18.3125 70.21875 
L 18.3125 54.6875 
L 36.8125 54.6875 
L 36.8125 47.703125 
L 18.3125 47.703125 
L 18.3125 18.015625 
Q 18.3125 11.328125 20.140625 9.421875 
Q 21.96875 7.515625 27.59375 7.515625 
L 36.8125 7.515625 
L 36.8125 0 
L 27.59375 0 
Q 17.1875 0 13.234375 3.875 
Q 9.28125 7.765625 9.28125 18.015625 
L 9.28125 47.703125 
L 2.6875 47.703125 
L 2.6875 54.6875 
L 9.28125 54.6875 
L 9.28125 70.21875 
z
" id="DejaVuSans-116"/>
      <path d="M 34.28125 27.484375 
Q 23.390625 27.484375 19.1875 25 
Q 14.984375 22.515625 14.984375 16.5 
Q 14.984375 11.71875 18.140625 8.90625 
Q 21.296875 6.109375 26.703125 6.109375 
Q 34.1875 6.109375 38.703125 11.40625 
Q 43.21875 16.703125 43.21875 25.484375 
L 43.21875 27.484375 
z
M 52.203125 31.203125 
L 52.203125 0 
L 43.21875 0 
L 43.21875 8.296875 
Q 40.140625 3.328125 35.546875 0.953125 
Q 30.953125 -1.421875 24.3125 -1.421875 
Q 15.921875 -1.421875 10.953125 3.296875 
Q 6 8.015625 6 15.921875 
Q 6 25.140625 12.171875 29.828125 
Q 18.359375 34.515625 30.609375 34.515625 
L 43.21875 34.515625 
L 43.21875 35.40625 
Q 43.21875 41.609375 39.140625 45 
Q 35.0625 48.390625 27.6875 48.390625 
Q 23 48.390625 18.546875 47.265625 
Q 14.109375 46.140625 10.015625 43.890625 
L 10.015625 52.203125 
Q 14.9375 54.109375 19.578125 55.046875 
Q 24.21875 56 28.609375 56 
Q 40.484375 56 46.34375 49.84375 
Q 52.203125 43.703125 52.203125 31.203125 
z
" id="DejaVuSans-97"/>
      <path d="M 54.890625 33.015625 
L 54.890625 0 
L 45.90625 0 
L 45.90625 32.71875 
Q 45.90625 40.484375 42.875 44.328125 
Q 39.84375 48.1875 33.796875 48.1875 
Q 26.515625 48.1875 22.3125 43.546875 
Q 18.109375 38.921875 18.109375 30.90625 
L 18.109375 0 
L 9.078125 0 
L 9.078125 54.6875 
L 18.109375 54.6875 
L 18.109375 46.1875 
Q 21.34375 51.125 25.703125 53.5625 
Q 30.078125 56 35.796875 56 
Q 45.21875 56 50.046875 50.171875 
Q 54.890625 44.34375 54.890625 33.015625 
z
" id="DejaVuSans-110"/>
      <path id="DejaVuSans-32"/>
      <path d="M 8.59375 75.984375 
L 29.296875 75.984375 
L 29.296875 69 
L 17.578125 69 
L 17.578125 -6.203125 
L 29.296875 -6.203125 
L 29.296875 -13.1875 
L 8.59375 -13.1875 
z
" id="DejaVuSans-91"/>
      <path d="M 52 44.1875 
Q 55.375 50.25 60.0625 53.125 
Q 64.75 56 71.09375 56 
Q 79.640625 56 84.28125 50.015625 
Q 88.921875 44.046875 88.921875 33.015625 
L 88.921875 0 
L 79.890625 0 
L 79.890625 32.71875 
Q 79.890625 40.578125 77.09375 44.375 
Q 74.3125 48.1875 68.609375 48.1875 
Q 61.625 48.1875 57.5625 43.546875 
Q 53.515625 38.921875 53.515625 30.90625 
L 53.515625 0 
L 44.484375 0 
L 44.484375 32.71875 
Q 44.484375 40.625 41.703125 44.40625 
Q 38.921875 48.1875 33.109375 48.1875 
Q 26.21875 48.1875 22.15625 43.53125 
Q 18.109375 38.875 18.109375 30.90625 
L 18.109375 0 
L 9.078125 0 
L 9.078125 54.6875 
L 18.109375 54.6875 
L 18.109375 46.1875 
Q 21.1875 51.21875 25.484375 53.609375 
Q 29.78125 56 35.6875 56 
Q 41.65625 56 45.828125 52.96875 
Q 50 49.953125 52 44.1875 
z
" id="DejaVuSans-109"/>
      <path d="M 25.390625 72.90625 
L 33.6875 72.90625 
L 8.296875 -9.28125 
L 0 -9.28125 
z
" id="DejaVuSans-47"/>
      <path d="M 30.421875 75.984375 
L 30.421875 -13.1875 
L 9.71875 -13.1875 
L 9.71875 -6.203125 
L 21.390625 -6.203125 
L 21.390625 69 
L 9.71875 69 
L 9.71875 75.984375 
z
" id="DejaVuSans-93"/>
     </defs>
     <g transform="translate(14.798438 150.335781)rotate(-90)scale(0.1 -0.1)">
      <use xlink:href="#DejaVuSans-112"/>
      <use x="63.476562" xlink:href="#DejaVuSans-114"/>
      <use x="104.558594" xlink:href="#DejaVuSans-101"/>
      <use x="166.082031" xlink:href="#DejaVuSans-99"/>
      <use x="221.0625" xlink:href="#DejaVuSans-105"/>
      <use x="248.845703" xlink:href="#DejaVuSans-112"/>
      <use x="312.322266" xlink:href="#DejaVuSans-105"/>
      <use x="340.105469" xlink:href="#DejaVuSans-116"/>
      <use x="379.314453" xlink:href="#DejaVuSans-97"/>
      <use x="440.59375" xlink:href="#DejaVuSans-116"/>
      <use x="479.802734" xlink:href="#DejaVuSans-105"/>
      <use x="507.585938" xlink:href="#DejaVuSans-111"/>
      <use x="568.767578" xlink:href="#DejaVuSans-110"/>
      <use x="632.146484" xlink:href="#DejaVuSans-32"/>
      <use x="663.933594" xlink:href="#DejaVuSans-91"/>
      <use x="702.947266" xlink:href="#DejaVuSans-109"/>
      <use x="800.359375" xlink:href="#DejaVuSans-109"/>
      <use x="897.771484" xlink:href="#DejaVuSans-47"/>
      <use x="931.462891" xlink:href="#DejaVuSans-104"/>
      <use x="994.841797" xlink:href="#DejaVuSans-111"/>
      <use x="1056.023438" xlink:href="#DejaVuSans-117"/>
      <use x="1119.402344" xlink:href="#DejaVuSans-114"/>
      <use x="1160.515625" xlink:href="#DejaVuSans-93"/>
     </g>
    </g>
   </g>
   <g id="line2d_11">
    <path clip-path="url(#p794b2c0811)" d="M 51.99517 165.881257 
L 67.433906 165.807487 
L 82.872641 165.781687 
L 98.311376 165.641071 
L 113.750111 165.854635 
L 129.188846 165.883919 
L 144.627582 165.907262 
L 160.066317 165.893481 
L 175.505052 165.858544 
L 190.943787 165.867237 
L 206.382522 165.837602 
L 221.821257 165.766076 
L 237.259993 164.835075 
L 252.698728 163.516089 
L 268.137463 163.680517 
L 283.576198 163.321773 
L 299.014933 163.349099 
L 314.453668 163.078774 
L 329.892404 162.454845 
L 345.331139 162.796934 
L 360.769874 81.824666 
L 376.208609 117.78928 
L 391.647344 146.117388 
L 407.08608 107.377474 
" style="fill:none;stroke:#1b9e77;stroke-linecap:square;stroke-opacity:0.5;stroke-width:1.5;"/>
   </g>
   <g id="line2d_12">
    <path clip-path="url(#p794b2c0811)" d="M 51.99517 165.150294 
L 67.433906 165.003201 
L 82.872641 165.314891 
L 98.311376 164.966399 
L 113.750111 165.296815 
L 129.188846 165.735862 
L 144.627582 165.768482 
L 160.066317 165.397727 
L 175.505052 164.351215 
L 190.943787 164.793149 
L 206.382522 165.362517 
L 221.821257 165.847914 
L 237.259993 165.613019 
L 252.698728 155.045018 
L 268.137463 144.622947 
L 283.576198 133.979453 
L 299.014933 137.89668 
L 314.453668 125.634678 
L 329.892404 138.01736 
L 345.331139 154.531531 
L 360.769874 129.121675 
L 376.208609 156.727811 
L 391.647344 165.833866 
L 407.08608 160.109678 
" style="fill:none;stroke:#1b9e77;stroke-linecap:square;stroke-opacity:0.5;stroke-width:1.5;"/>
   </g>
   <g id="line2d_13">
    <path clip-path="url(#p794b2c0811)" d="M 51.99517 165.655925 
L 67.433906 165.524333 
L 82.872641 165.809401 
L 98.311376 165.905215 
L 113.750111 165.923723 
L 129.188846 165.447415 
L 144.627582 164.579172 
L 160.066317 164.563918 
L 175.505052 137.434547 
L 190.943787 160.216398 
L 206.382522 140.779433 
L 221.821257 162.034873 
L 237.259993 165.029338 
L 252.698728 147.562293 
L 268.137463 158.301676 
L 283.576198 152.725627 
L 299.014933 159.504425 
L 314.453668 148.629967 
L 329.892404 101.884475 
L 345.331139 151.151023 
L 360.769874 156.279637 
L 376.208609 158.160624 
L 391.647344 163.424339 
L 407.08608 163.594407 
" style="fill:none;stroke:#1b9e77;stroke-linecap:square;stroke-opacity:0.5;stroke-width:1.5;"/>
   </g>
   <g id="line2d_14">
    <path clip-path="url(#p794b2c0811)" d="M 51.99517 157.880305 
L 67.433906 165.165091 
L 82.872641 159.182357 
L 98.311376 143.697729 
L 113.750111 158.479049 
L 129.188846 165.682863 
L 144.627582 165.893811 
L 160.066317 165.845562 
L 175.505052 165.543474 
L 190.943787 165.618346 
L 206.382522 165.731543 
L 221.821257 165.927582 
L 237.259993 165.023833 
L 252.698728 142.117249 
L 268.137463 156.503568 
L 283.576198 148.227774 
L 299.014933 115.907843 
L 314.453668 158.292751 
L 329.892404 155.136753 
L 345.331139 136.323343 
L 360.769874 150.989312 
L 376.208609 158.708756 
L 391.647344 155.618289 
L 407.08608 162.625001 
" style="fill:none;stroke:#1b9e77;stroke-linecap:square;stroke-opacity:0.5;stroke-width:1.5;"/>
   </g>
   <g id="line2d_15">
    <path clip-path="url(#p794b2c0811)" d="M 51.99517 165.282101 
L 67.433906 161.993318 
L 82.872641 155.578291 
L 98.311376 143.396027 
L 113.750111 116.209743 
L 129.188846 135.119958 
L 144.627582 151.894797 
L 160.066317 151.841914 
L 175.505052 163.922828 
L 190.943787 165.607052 
L 206.382522 165.723199 
L 221.821257 164.541234 
L 237.259993 154.307768 
L 252.698728 161.441522 
L 268.137463 157.943126 
L 283.576198 163.670404 
L 299.014933 164.188204 
L 314.453668 164.523743 
L 329.892404 163.556751 
L 345.331139 161.33307 
L 360.769874 159.158569 
L 376.208609 154.701792 
L 391.647344 144.41816 
L 407.08608 159.768607 
" style="fill:none;stroke:#1b9e77;stroke-linecap:square;stroke-opacity:0.5;stroke-width:1.5;"/>
   </g>
   <g id="line2d_16">
    <path clip-path="url(#p794b2c0811)" d="M 51.99517 161.45003 
L 67.433906 162.126993 
L 82.872641 160.180826 
L 98.311376 156.00897 
L 113.750111 157.727022 
L 129.188846 156.45248 
L 144.627582 160.794316 
L 160.066317 159.134891 
L 175.505052 127.198436 
L 190.943787 104.805416 
L 206.382522 142.134749 
L 221.821257 137.770179 
L 237.259993 154.751528 
L 252.698728 162.107151 
L 268.137463 165.314532 
L 283.576198 165.45031 
L 299.014933 165.564516 
L 314.453668 165.527461 
L 329.892404 165.589817 
L 345.331139 165.706829 
L 360.769874 165.74823 
L 376.208609 165.787783 
L 391.647344 164.470174 
L 407.08608 158.319536 
" style="fill:none;stroke:#1b9e77;stroke-linecap:square;stroke-opacity:0.5;stroke-width:1.5;"/>
   </g>
   <g id="line2d_17">
    <path clip-path="url(#p794b2c0811)" d="M 51.99517 165.124159 
L 67.433906 164.474219 
L 82.872641 164.214012 
L 98.311376 164.088252 
L 113.750111 163.885268 
L 129.188846 162.323942 
L 144.627582 162.802867 
L 160.066317 162.652733 
L 175.505052 134.686472 
L 190.943787 162.032883 
L 206.382522 161.473129 
L 221.821257 153.306082 
L 237.259993 158.322338 
L 252.698728 152.924913 
L 268.137463 165.738246 
L 283.576198 165.651199 
L 299.014933 160.203719 
L 314.453668 162.200996 
L 329.892404 154.588089 
L 345.331139 122.484231 
L 360.769874 140.901511 
L 376.208609 141.025508 
L 391.647344 147.099135 
L 407.08608 157.918275 
" style="fill:none;stroke:#1b9e77;stroke-linecap:square;stroke-opacity:0.5;stroke-width:1.5;"/>
   </g>
   <g id="line2d_18">
    <path clip-path="url(#p794b2c0811)" d="M 51.99517 163.750051 
L 67.433906 159.4584 
L 82.872641 161.161637 
L 98.311376 163.089269 
L 113.750111 164.090281 
L 129.188846 165.03078 
L 144.627582 165.35884 
L 160.066317 165.529624 
L 175.505052 165.6263 
L 190.943787 165.40662 
L 206.382522 164.230413 
L 221.821257 163.818114 
L 237.259993 163.872117 
L 252.698728 162.895341 
L 268.137463 161.510947 
L 283.576198 160.772308 
L 299.014933 154.563522 
L 314.453668 108.896279 
L 329.892404 92.429628 
L 345.331139 132.883634 
L 360.769874 150.623901 
L 376.208609 164.557833 
L 391.647344 165.688169 
L 407.08608 164.878171 
" style="fill:none;stroke:#1b9e77;stroke-linecap:square;stroke-opacity:0.5;stroke-width:1.5;"/>
   </g>
   <g id="line2d_19">
    <path clip-path="url(#p794b2c0811)" d="M 51.99517 165.79455 
L 67.433906 165.634958 
L 82.872641 165.767844 
L 98.311376 165.815009 
L 113.750111 165.809311 
L 129.188846 165.804456 
L 144.627582 159.032098 
L 160.066317 156.028069 
L 175.505052 149.959849 
L 190.943787 154.603102 
L 206.382522 154.329497 
L 221.821257 153.312062 
L 237.259993 137.74674 
L 252.698728 113.369263 
L 268.137463 126.864128 
L 283.576198 144.156047 
L 299.014933 158.636357 
L 314.453668 161.971575 
L 329.892404 165.098551 
L 345.331139 165.34358 
L 360.769874 165.559269 
L 376.208609 165.695008 
L 391.647344 165.731247 
L 407.08608 158.059615 
" style="fill:none;stroke:#1b9e77;stroke-linecap:square;stroke-opacity:0.5;stroke-width:1.5;"/>
   </g>
   <g id="line2d_20">
    <path clip-path="url(#p794b2c0811)" d="M 51.99517 165.598927 
L 67.433906 165.738462 
L 82.872641 165.845667 
L 98.311376 165.835903 
L 113.750111 165.770148 
L 129.188846 165.526546 
L 144.627582 165.363003 
L 160.066317 165.808341 
L 175.505052 164.242362 
L 190.943787 158.119344 
L 206.382522 155.617416 
L 221.821257 149.580355 
L 237.259993 152.376995 
L 252.698728 161.021933 
L 268.137463 149.606486 
L 283.576198 136.601898 
L 299.014933 138.261961 
L 314.453668 156.469219 
L 329.892404 156.521941 
L 345.331139 134.119278 
L 360.769874 148.677896 
L 376.208609 150.099792 
L 391.647344 152.128643 
L 407.08608 161.18967 
" style="fill:none;stroke:#1b9e77;stroke-linecap:square;stroke-opacity:0.5;stroke-width:1.5;"/>
   </g>
   <g id="line2d_21">
    <path clip-path="url(#p794b2c0811)" d="M 51.99517 162.45567 
L 67.433906 145.416322 
L 82.872641 145.063657 
L 98.311376 164.523636 
L 113.750111 165.472542 
L 129.188846 165.393361 
L 144.627582 165.382985 
L 160.066317 165.329819 
L 175.505052 165.547707 
L 190.943787 165.692015 
L 206.382522 165.68709 
L 221.821257 165.69004 
L 237.259993 164.757898 
L 252.698728 164.092022 
L 268.137463 164.034322 
L 283.576198 163.427521 
L 299.014933 163.668711 
L 314.453668 162.075039 
L 329.892404 157.588523 
L 345.331139 154.110376 
L 360.769874 144.10742 
L 376.208609 102.225953 
L 391.647344 113.770296 
L 407.08608 154.609252 
" style="fill:none;stroke:#1b9e77;stroke-linecap:square;stroke-opacity:0.5;stroke-width:1.5;"/>
   </g>
   <g id="line2d_22">
    <path clip-path="url(#p794b2c0811)" d="M 51.99517 160.39406 
L 67.433906 164.745063 
L 82.872641 164.457483 
L 98.311376 164.158696 
L 113.750111 159.758325 
L 129.188846 156.511844 
L 144.627582 148.350096 
L 160.066317 154.170293 
L 175.505052 164.047952 
L 190.943787 154.560931 
L 206.382522 79.696847 
L 221.821257 128.345802 
L 237.259993 155.547724 
L 252.698728 150.226572 
L 268.137463 153.301676 
L 283.576198 164.808134 
L 299.014933 165.730368 
L 314.453668 165.776595 
L 329.892404 165.863665 
L 345.331139 165.892932 
L 360.769874 165.923554 
L 376.208609 165.941676 
L 391.647344 165.951891 
L 407.08608 165.96 
" style="fill:none;stroke:#1b9e77;stroke-linecap:square;stroke-opacity:0.5;stroke-width:1.5;"/>
   </g>
   <g id="line2d_23">
    <path clip-path="url(#p794b2c0811)" d="M 51.99517 163.415693 
L 67.433906 162.499125 
L 82.872641 164.707735 
L 98.311376 165.164361 
L 113.750111 165.055857 
L 129.188846 164.095753 
L 144.627582 143.757641 
L 160.066317 135.338578 
L 175.505052 121.034216 
L 190.943787 163.426205 
L 206.382522 129.224002 
L 221.821257 128.283877 
L 237.259993 143.348364 
L 252.698728 160.841719 
L 268.137463 165.794187 
L 283.576198 165.801243 
L 299.014933 165.849966 
L 314.453668 165.834839 
L 329.892404 165.753513 
L 345.331139 165.848718 
L 360.769874 165.589379 
L 376.208609 161.844449 
L 391.647344 156.164264 
L 407.08608 161.448494 
" style="fill:none;stroke:#1b9e77;stroke-linecap:square;stroke-opacity:0.5;stroke-width:1.5;"/>
   </g>
   <g id="line2d_24">
    <path clip-path="url(#p794b2c0811)" d="M 51.99517 158.93214 
L 67.433906 118.493233 
L 82.872641 108.865405 
L 98.311376 130.546202 
L 113.750111 164.034031 
L 129.188846 165.282971 
L 144.627582 161.276092 
L 160.066317 138.707035 
L 175.505052 154.558353 
L 190.943787 164.370766 
L 206.382522 164.944305 
L 221.821257 162.764024 
L 237.259993 161.105587 
L 252.698728 152.904403 
L 268.137463 157.58843 
L 283.576198 164.128958 
L 299.014933 164.235996 
L 314.453668 164.595115 
L 329.892404 165.186272 
L 345.331139 165.219628 
L 360.769874 165.290115 
L 376.208609 165.507891 
L 391.647344 165.662853 
L 407.08608 165.92239 
" style="fill:none;stroke:#1b9e77;stroke-linecap:square;stroke-opacity:0.5;stroke-width:1.5;"/>
   </g>
   <g id="line2d_25">
    <path clip-path="url(#p794b2c0811)" d="M 51.99517 161.708412 
L 67.433906 164.382932 
L 82.872641 165.425332 
L 98.311376 165.2008 
L 113.750111 165.193807 
L 129.188846 165.427329 
L 144.627582 165.663497 
L 160.066317 165.773628 
L 175.505052 165.79549 
L 190.943787 165.20333 
L 206.382522 160.808723 
L 221.821257 160.67751 
L 237.259993 160.728279 
L 252.698728 164.319712 
L 268.137463 161.499992 
L 283.576198 122.369042 
L 299.014933 101.449227 
L 314.453668 163.808421 
L 329.892404 165.27046 
L 345.331139 150.460164 
L 360.769874 139.038586 
L 376.208609 152.220891 
L 391.647344 141.245638 
L 407.08608 156.450981 
" style="fill:none;stroke:#1b9e77;stroke-linecap:square;stroke-opacity:0.5;stroke-width:1.5;"/>
   </g>
   <g id="line2d_26">
    <path clip-path="url(#p794b2c0811)" d="M 51.99517 165.959991 
L 67.433906 165.734839 
L 82.872641 150.316733 
L 98.311376 157.285869 
L 113.750111 119.001488 
L 129.188846 150.334359 
L 144.627582 141.498856 
L 160.066317 146.380129 
L 175.505052 144.944583 
L 190.943787 134.887673 
L 206.382522 155.873488 
L 221.821257 156.795422 
L 237.259993 158.755606 
L 252.698728 165.238858 
L 268.137463 165.861142 
L 283.576198 165.894273 
L 299.014933 165.881434 
L 314.453668 163.303301 
L 329.892404 164.049439 
L 345.331139 163.583514 
L 360.769874 162.992765 
L 376.208609 161.436919 
L 391.647344 160.366836 
L 407.08608 163.744659 
" style="fill:none;stroke:#1b9e77;stroke-linecap:square;stroke-opacity:0.5;stroke-width:1.5;"/>
   </g>
   <g id="line2d_27">
    <path clip-path="url(#p794b2c0811)" d="M 51.99517 164.480245 
L 67.433906 157.156587 
L 82.872641 149.717548 
L 98.311376 154.322582 
L 113.750111 160.306157 
L 129.188846 160.27216 
L 144.627582 160.441672 
L 160.066317 163.540465 
L 175.505052 131.514707 
L 190.943787 163.94989 
L 206.382522 164.281059 
L 221.821257 164.796586 
L 237.259993 164.956005 
L 252.698728 164.437275 
L 268.137463 161.398831 
L 283.576198 162.860903 
L 299.014933 165.266073 
L 314.453668 148.095051 
L 329.892404 128.370732 
L 345.331139 146.609393 
L 360.769874 158.137812 
L 376.208609 150.460904 
L 391.647344 147.050258 
L 407.08608 157.699289 
" style="fill:none;stroke:#1b9e77;stroke-linecap:square;stroke-opacity:0.5;stroke-width:1.5;"/>
   </g>
   <g id="line2d_28">
    <path clip-path="url(#p794b2c0811)" d="M 51.99517 165.613201 
L 67.433906 165.155667 
L 82.872641 164.843389 
L 98.311376 163.318217 
L 113.750111 143.891478 
L 129.188846 111.214448 
L 144.627582 140.858242 
L 160.066317 152.107502 
L 175.505052 146.355676 
L 190.943787 151.425936 
L 206.382522 164.501467 
L 221.821257 163.417851 
L 237.259993 161.794594 
L 252.698728 159.970705 
L 268.137463 161.058297 
L 283.576198 162.750245 
L 299.014933 159.682197 
L 314.453668 158.751025 
L 329.892404 150.916399 
L 345.331139 151.881175 
L 360.769874 153.140362 
L 376.208609 165.610473 
L 391.647344 165.913195 
L 407.08608 165.950434 
" style="fill:none;stroke:#1b9e77;stroke-linecap:square;stroke-opacity:0.5;stroke-width:1.5;"/>
   </g>
   <g id="line2d_29">
    <path clip-path="url(#p794b2c0811)" d="M 51.99517 165.367975 
L 67.433906 164.542182 
L 82.872641 163.390185 
L 98.311376 159.74633 
L 113.750111 150.826093 
L 129.188846 131.751638 
L 144.627582 129.293084 
L 160.066317 108.509848 
L 175.505052 123.129816 
L 190.943787 155.408198 
L 206.382522 164.758557 
L 221.821257 164.922652 
L 237.259993 165.125054 
L 252.698728 165.082189 
L 268.137463 164.559688 
L 283.576198 165.493068 
L 299.014933 165.616514 
L 314.453668 165.830011 
L 329.892404 165.345552 
L 345.331139 155.371552 
L 360.769874 162.008666 
L 376.208609 165.139549 
L 391.647344 165.624698 
L 407.08608 163.279079 
" style="fill:none;stroke:#1b9e77;stroke-linecap:square;stroke-opacity:0.5;stroke-width:1.5;"/>
   </g>
   <g id="line2d_30">
    <path clip-path="url(#p794b2c0811)" d="M 51.99517 155.588026 
L 67.433906 153.770677 
L 82.872641 93.768969 
L 98.311376 155.584943 
L 113.750111 165.19827 
L 129.188846 154.691506 
L 144.627582 165.183001 
L 160.066317 165.484793 
L 175.505052 163.091937 
L 190.943787 142.584751 
L 206.382522 135.750497 
L 221.821257 159.43779 
L 237.259993 155.120662 
L 252.698728 149.170025 
L 268.137463 157.029812 
L 283.576198 151.335524 
L 299.014933 165.867822 
L 314.453668 165.879908 
L 329.892404 165.907374 
L 345.331139 165.908465 
L 360.769874 165.923163 
L 376.208609 165.938722 
L 391.647344 165.947184 
L 407.08608 165.958362 
" style="fill:none;stroke:#1b9e77;stroke-linecap:square;stroke-opacity:0.5;stroke-width:1.5;"/>
   </g>
   <g id="line2d_31">
    <path clip-path="url(#p794b2c0811)" d="M 51.99517 161.378348 
L 67.433906 164.244085 
L 82.872641 165.18322 
L 98.311376 165.094755 
L 113.750111 165.342091 
L 129.188846 165.627523 
L 144.627582 165.776359 
L 160.066317 165.78076 
L 175.505052 165.814311 
L 190.943787 165.882946 
L 206.382522 165.895279 
L 221.821257 165.709338 
L 237.259993 165.185107 
L 252.698728 163.824784 
L 268.137463 151.256922 
L 283.576198 156.966065 
L 299.014933 156.451571 
L 314.453668 152.82436 
L 329.892404 150.737773 
L 345.331139 153.387305 
L 360.769874 142.521094 
L 376.208609 120.951916 
L 391.647344 144.99007 
L 407.08608 109.296191 
" style="fill:none;stroke:#1b9e77;stroke-linecap:square;stroke-opacity:0.5;stroke-width:1.5;"/>
   </g>
   <g id="line2d_32">
    <path clip-path="url(#p794b2c0811)" d="M 51.99517 165.796765 
L 67.433906 165.918165 
L 82.872641 165.749651 
L 98.311376 165.533759 
L 113.750111 164.5799 
L 129.188846 163.977214 
L 144.627582 163.168187 
L 160.066317 162.510537 
L 175.505052 162.013781 
L 190.943787 160.924676 
L 206.382522 161.915595 
L 221.821257 100.210976 
L 237.259993 128.067074 
L 252.698728 148.154863 
L 268.137463 149.022055 
L 283.576198 138.792477 
L 299.014933 147.105527 
L 314.453668 161.49023 
L 329.892404 164.414515 
L 345.331139 160.384086 
L 360.769874 156.20737 
L 376.208609 162.616095 
L 391.647344 165.639342 
L 407.08608 165.929338 
" style="fill:none;stroke:#1b9e77;stroke-linecap:square;stroke-opacity:0.5;stroke-width:1.5;"/>
   </g>
   <g id="line2d_33">
    <path clip-path="url(#p794b2c0811)" d="M 51.99517 165.469307 
L 67.433906 164.562287 
L 82.872641 165.066269 
L 98.311376 165.190382 
L 113.750111 165.467277 
L 129.188846 165.77751 
L 144.627582 165.762878 
L 160.066317 164.26374 
L 175.505052 144.205709 
L 190.943787 157.245776 
L 206.382522 158.905807 
L 221.821257 159.936892 
L 237.259993 128.854286 
L 252.698728 105.329288 
L 268.137463 144.369779 
L 283.576198 163.983481 
L 299.014933 163.776653 
L 314.453668 161.786291 
L 329.892404 161.759128 
L 345.331139 159.218781 
L 360.769874 158.851706 
L 376.208609 156.990394 
L 391.647344 153.265731 
L 407.08608 150.08283 
" style="fill:none;stroke:#1b9e77;stroke-linecap:square;stroke-opacity:0.5;stroke-width:1.5;"/>
   </g>
   <g id="line2d_34">
    <path clip-path="url(#p794b2c0811)" d="M 51.99517 164.764915 
L 67.433906 162.621086 
L 82.872641 161.590762 
L 98.311376 156.698082 
L 113.750111 98.073099 
L 129.188846 154.197049 
L 144.627582 152.528335 
L 160.066317 153.080634 
L 175.505052 155.514339 
L 190.943787 160.534627 
L 206.382522 162.274298 
L 221.821257 162.450646 
L 237.259993 161.622658 
L 252.698728 149.768047 
L 268.137463 153.319509 
L 283.576198 155.138119 
L 299.014933 160.835115 
L 314.453668 158.33499 
L 329.892404 152.204964 
L 345.331139 163.85883 
L 360.769874 163.831311 
L 376.208609 161.627242 
L 391.647344 161.128054 
L 407.08608 164.125471 
" style="fill:none;stroke:#1b9e77;stroke-linecap:square;stroke-opacity:0.5;stroke-width:1.5;"/>
   </g>
   <g id="line2d_35">
    <path clip-path="url(#p794b2c0811)" d="M 51.99517 165.314693 
L 67.433906 165.640099 
L 82.872641 165.802585 
L 98.311376 165.661441 
L 113.750111 160.940282 
L 129.188846 165.504588 
L 144.627582 165.523676 
L 160.066317 165.381731 
L 175.505052 165.103279 
L 190.943787 164.341548 
L 206.382522 163.120614 
L 221.821257 161.771395 
L 237.259993 162.157153 
L 252.698728 159.389047 
L 268.137463 132.911271 
L 283.576198 73.362584 
L 299.014933 132.95665 
L 314.453668 141.879059 
L 329.892404 158.402115 
L 345.331139 160.186454 
L 360.769874 162.138931 
L 376.208609 162.933002 
L 391.647344 163.954478 
L 407.08608 165.745497 
" style="fill:none;stroke:#1b9e77;stroke-linecap:square;stroke-opacity:0.5;stroke-width:1.5;"/>
   </g>
   <g id="line2d_36">
    <path clip-path="url(#p794b2c0811)" d="M 51.99517 165.94187 
L 67.433906 165.643397 
L 82.872641 165.284413 
L 98.311376 160.582685 
L 113.750111 159.316508 
L 129.188846 165.663596 
L 144.627582 165.725849 
L 160.066317 165.688538 
L 175.505052 165.386777 
L 190.943787 165.207948 
L 206.382522 164.861126 
L 221.821257 165.296836 
L 237.259993 165.619053 
L 252.698728 165.775832 
L 268.137463 165.752659 
L 283.576198 157.829187 
L 299.014933 131.381546 
L 314.453668 139.167354 
L 329.892404 110.842738 
L 345.331139 143.222797 
L 360.769874 149.006716 
L 376.208609 150.53439 
L 391.647344 140.991309 
L 407.08608 155.399062 
" style="fill:none;stroke:#1b9e77;stroke-linecap:square;stroke-opacity:0.5;stroke-width:1.5;"/>
   </g>
   <g id="line2d_37">
    <path clip-path="url(#p794b2c0811)" d="M 51.99517 164.109608 
L 67.433906 157.958667 
L 82.872641 150.192927 
L 98.311376 142.86958 
L 113.750111 157.018072 
L 129.188846 159.670878 
L 144.627582 143.393289 
L 160.066317 93.613308 
L 175.505052 143.878191 
L 190.943787 156.641484 
L 206.382522 161.135216 
L 221.821257 156.931547 
L 237.259993 163.515129 
L 252.698728 165.827452 
L 268.137463 165.858691 
L 283.576198 160.844581 
L 299.014933 164.328736 
L 314.453668 164.585436 
L 329.892404 163.772541 
L 345.331139 163.317221 
L 360.769874 163.499557 
L 376.208609 162.316214 
L 391.647344 160.648875 
L 407.08608 164.194978 
" style="fill:none;stroke:#1b9e77;stroke-linecap:square;stroke-opacity:0.5;stroke-width:1.5;"/>
   </g>
   <g id="line2d_38">
    <path clip-path="url(#p794b2c0811)" d="M 51.99517 165.257757 
L 67.433906 165.893608 
L 82.872641 165.865441 
L 98.311376 146.059511 
L 113.750111 164.977531 
L 129.188846 165.773582 
L 144.627582 165.892064 
L 160.066317 165.882822 
L 175.505052 165.843106 
L 190.943787 165.789508 
L 206.382522 165.780949 
L 221.821257 165.901137 
L 237.259993 165.89327 
L 252.698728 160.426387 
L 268.137463 151.388112 
L 283.576198 138.055499 
L 299.014933 116.878035 
L 314.453668 137.84113 
L 329.892404 137.730118 
L 345.331139 132.103966 
L 360.769874 143.999867 
L 376.208609 165.218826 
L 391.647344 165.79571 
L 407.08608 165.874242 
" style="fill:none;stroke:#1b9e77;stroke-linecap:square;stroke-opacity:0.5;stroke-width:1.5;"/>
   </g>
   <g id="line2d_39">
    <path clip-path="url(#p794b2c0811)" d="M 51.99517 158.344613 
L 67.433906 99.475082 
L 82.872641 160.796551 
L 98.311376 162.765299 
L 113.750111 154.015673 
L 129.188846 155.9049 
L 144.627582 161.638392 
L 160.066317 164.719034 
L 175.505052 165.932651 
L 190.943787 165.9451 
L 206.382522 165.950513 
L 221.821257 164.954741 
L 237.259993 163.69215 
L 252.698728 165.937183 
L 268.137463 165.93977 
L 283.576198 165.936045 
L 299.014933 162.105042 
L 314.453668 164.330429 
L 329.892404 102.91482 
L 345.331139 163.087758 
L 360.769874 165.164767 
L 376.208609 158.834102 
L 391.647344 143.864401 
L 407.08608 147.873159 
" style="fill:none;stroke:#1b9e77;stroke-linecap:square;stroke-opacity:0.5;stroke-width:1.5;"/>
   </g>
   <g id="line2d_40">
    <path clip-path="url(#p794b2c0811)" d="M 51.99517 160.484365 
L 67.433906 159.249155 
L 82.872641 161.754174 
L 98.311376 164.611895 
L 113.750111 165.616484 
L 129.188846 165.683043 
L 144.627582 165.739675 
L 160.066317 165.521445 
L 175.505052 165.666534 
L 190.943787 165.704023 
L 206.382522 165.637371 
L 221.821257 165.55054 
L 237.259993 165.284433 
L 252.698728 162.236616 
L 268.137463 162.514034 
L 283.576198 159.538568 
L 299.014933 158.357051 
L 314.453668 154.205169 
L 329.892404 145.570526 
L 345.331139 141.623229 
L 360.769874 129.906034 
L 376.208609 130.009599 
L 391.647344 130.294291 
L 407.08608 139.363925 
" style="fill:none;stroke:#1b9e77;stroke-linecap:square;stroke-opacity:0.5;stroke-width:1.5;"/>
   </g>
   <g id="line2d_41">
    <path clip-path="url(#p794b2c0811)" d="M 51.99517 162.898712 
L 67.433906 160.740479 
L 82.872641 160.158038 
L 98.311376 158.468739 
L 113.750111 160.003377 
L 129.188846 159.051325 
L 144.627582 158.592851 
L 160.066317 152.171952 
L 175.505052 139.355329 
L 190.943787 137.294696 
L 206.382522 144.760519 
L 221.821257 143.161193 
L 237.259993 150.39467 
L 252.698728 156.729322 
L 268.137463 152.280566 
L 283.576198 149.614352 
L 299.014933 158.435022 
L 314.453668 161.807993 
L 329.892404 158.680394 
L 345.331139 162.832641 
L 360.769874 165.280793 
L 376.208609 165.62241 
L 391.647344 165.84759 
L 407.08608 165.939216 
" style="fill:none;stroke:#1b9e77;stroke-linecap:square;stroke-opacity:0.5;stroke-width:1.5;"/>
   </g>
   <g id="line2d_42">
    <path clip-path="url(#p794b2c0811)" d="M 51.99517 128.322262 
L 67.433906 78.88109 
L 82.872641 147.965496 
L 98.311376 157.677225 
L 113.750111 158.299528 
L 129.188846 146.818303 
L 144.627582 149.765152 
L 160.066317 159.133198 
L 175.505052 162.297366 
L 190.943787 162.15828 
L 206.382522 162.023437 
L 221.821257 160.091265 
L 237.259993 162.557982 
L 252.698728 164.749816 
L 268.137463 165.439328 
L 283.576198 165.416144 
L 299.014933 165.63324 
L 314.453668 165.768011 
L 329.892404 165.831285 
L 345.331139 165.866613 
L 360.769874 165.888867 
L 376.208609 165.941299 
L 391.647344 165.776839 
L 407.08608 157.82015 
" style="fill:none;stroke:#1b9e77;stroke-linecap:square;stroke-opacity:0.5;stroke-width:1.5;"/>
   </g>
   <g id="line2d_43">
    <path clip-path="url(#p794b2c0811)" d="M 51.99517 117.537015 
L 67.433906 161.725656 
L 82.872641 164.226362 
L 98.311376 146.943526 
L 113.750111 157.141306 
L 129.188846 152.823842 
L 144.627582 156.437796 
L 160.066317 154.745184 
L 175.505052 159.011675 
L 190.943787 142.786903 
L 206.382522 138.145441 
L 221.821257 146.138125 
L 237.259993 155.926605 
L 252.698728 156.095192 
L 268.137463 160.075659 
L 283.576198 161.602454 
L 299.014933 162.589122 
L 314.453668 164.106246 
L 329.892404 165.760076 
L 345.331139 165.651213 
L 360.769874 165.728514 
L 376.208609 165.464125 
L 391.647344 165.900431 
L 407.08608 163.559716 
" style="fill:none;stroke:#1b9e77;stroke-linecap:square;stroke-opacity:0.5;stroke-width:1.5;"/>
   </g>
   <g id="line2d_44">
    <path clip-path="url(#p794b2c0811)" d="M 51.99517 165.03018 
L 67.433906 165.180124 
L 82.872641 165.658649 
L 98.311376 165.776081 
L 113.750111 165.80009 
L 129.188846 165.793933 
L 144.627582 160.493456 
L 160.066317 136.069656 
L 175.505052 126.67934 
L 190.943787 124.255756 
L 206.382522 134.404497 
L 221.821257 137.840467 
L 237.259993 145.62485 
L 252.698728 147.37245 
L 268.137463 159.769752 
L 283.576198 164.927369 
L 299.014933 165.736999 
L 314.453668 165.785193 
L 329.892404 165.628021 
L 345.331139 163.205166 
L 360.769874 164.767218 
L 376.208609 164.753803 
L 391.647344 164.294333 
L 407.08608 165.274797 
" style="fill:none;stroke:#1b9e77;stroke-linecap:square;stroke-opacity:0.5;stroke-width:1.5;"/>
   </g>
   <g id="line2d_45">
    <path clip-path="url(#p794b2c0811)" d="M 51.99517 165.196296 
L 67.433906 165.588694 
L 82.872641 165.773102 
L 98.311376 165.653316 
L 113.750111 165.712716 
L 129.188846 165.858541 
L 144.627582 165.876492 
L 160.066317 165.921348 
L 175.505052 165.742164 
L 190.943787 164.264053 
L 206.382522 163.312971 
L 221.821257 156.821253 
L 237.259993 156.406267 
L 252.698728 145.965965 
L 268.137463 118.888229 
L 283.576198 107.202352 
L 299.014933 127.199111 
L 314.453668 135.837459 
L 329.892404 160.333994 
L 345.331139 162.545069 
L 360.769874 163.935732 
L 376.208609 164.811463 
L 391.647344 165.399122 
L 407.08608 165.876469 
" style="fill:none;stroke:#1b9e77;stroke-linecap:square;stroke-opacity:0.5;stroke-width:1.5;"/>
   </g>
   <g id="line2d_46">
    <path clip-path="url(#p794b2c0811)" d="M 51.99517 152.271787 
L 67.433906 105.561053 
L 82.872641 150.297378 
L 98.311376 159.940727 
L 113.750111 160.413437 
L 129.188846 142.838692 
L 144.627582 144.04938 
L 160.066317 158.172273 
L 175.505052 163.259455 
L 190.943787 163.261918 
L 206.382522 163.443413 
L 221.821257 163.587893 
L 237.259993 164.663157 
L 252.698728 165.162863 
L 268.137463 165.427151 
L 283.576198 165.449947 
L 299.014933 165.39547 
L 314.453668 165.545489 
L 329.892404 164.820745 
L 345.331139 165.139937 
L 360.769874 144.708032 
L 376.208609 148.820417 
L 391.647344 146.802658 
L 407.08608 161.088908 
" style="fill:none;stroke:#1b9e77;stroke-linecap:square;stroke-opacity:0.5;stroke-width:1.5;"/>
   </g>
   <g id="line2d_47">
    <path clip-path="url(#p794b2c0811)" d="M 51.99517 165.912328 
L 67.433906 165.759186 
L 82.872641 165.472443 
L 98.311376 165.781138 
L 113.750111 165.850579 
L 129.188846 165.806628 
L 144.627582 162.930966 
L 160.066317 157.082546 
L 175.505052 152.979534 
L 190.943787 140.407101 
L 206.382522 140.902573 
L 221.821257 142.154061 
L 237.259993 136.100288 
L 252.698728 155.588208 
L 268.137463 133.455141 
L 283.576198 131.05816 
L 299.014933 146.851094 
L 314.453668 164.537057 
L 329.892404 165.519323 
L 345.331139 163.90332 
L 360.769874 165.434789 
L 376.208609 165.317448 
L 391.647344 165.586264 
L 407.08608 165.732005 
" style="fill:none;stroke:#1b9e77;stroke-linecap:square;stroke-opacity:0.5;stroke-width:1.5;"/>
   </g>
   <g id="line2d_48">
    <path clip-path="url(#p794b2c0811)" d="M 51.99517 165.502046 
L 67.433906 165.61851 
L 82.872641 164.702978 
L 98.311376 164.871163 
L 113.750111 163.571154 
L 129.188846 161.755939 
L 144.627582 158.247373 
L 160.066317 160.208361 
L 175.505052 157.157003 
L 190.943787 78.559408 
L 206.382522 129.617552 
L 221.821257 151.243782 
L 237.259993 163.156707 
L 252.698728 163.678361 
L 268.137463 165.060302 
L 283.576198 165.587283 
L 299.014933 165.705455 
L 314.453668 165.842452 
L 329.892404 152.400846 
L 345.331139 159.8107 
L 360.769874 156.768509 
L 376.208609 156.420438 
L 391.647344 157.295204 
L 407.08608 157.340651 
" style="fill:none;stroke:#1b9e77;stroke-linecap:square;stroke-opacity:0.5;stroke-width:1.5;"/>
   </g>
   <g id="line2d_49">
    <path clip-path="url(#p794b2c0811)" d="M 51.99517 162.885102 
L 67.433906 161.112931 
L 82.872641 164.312276 
L 98.311376 164.653014 
L 113.750111 165.22515 
L 129.188846 165.384004 
L 144.627582 165.484278 
L 160.066317 165.677063 
L 175.505052 165.789948 
L 190.943787 165.878301 
L 206.382522 165.666251 
L 221.821257 157.172173 
L 237.259993 155.87375 
L 252.698728 160.944545 
L 268.137463 159.498379 
L 283.576198 159.727578 
L 299.014933 160.897836 
L 314.453668 156.75904 
L 329.892404 144.259662 
L 345.331139 147.743959 
L 360.769874 154.871155 
L 376.208609 113.258546 
L 391.647344 102.417739 
L 407.08608 164.629493 
" style="fill:none;stroke:#1b9e77;stroke-linecap:square;stroke-opacity:0.5;stroke-width:1.5;"/>
   </g>
   <g id="line2d_50">
    <path clip-path="url(#p794b2c0811)" d="M 51.99517 159.494484 
L 67.433906 156.596005 
L 82.872641 156.171523 
L 98.311376 149.485115 
L 113.750111 132.799213 
L 129.188846 124.150664 
L 144.627582 164.028118 
L 160.066317 163.647718 
L 175.505052 164.409918 
L 190.943787 164.641113 
L 206.382522 165.183927 
L 221.821257 165.417974 
L 237.259993 165.205102 
L 252.698728 162.774794 
L 268.137463 151.15279 
L 283.576198 161.032698 
L 299.014933 161.108592 
L 314.453668 150.886831 
L 329.892404 145.743689 
L 345.331139 133.624425 
L 360.769874 156.004966 
L 376.208609 164.869154 
L 391.647344 165.770444 
L 407.08608 165.922927 
" style="fill:none;stroke:#1b9e77;stroke-linecap:square;stroke-opacity:0.5;stroke-width:1.5;"/>
   </g>
   <g id="line2d_51">
    <path clip-path="url(#p794b2c0811)" d="M 51.99517 165.954193 
L 67.433906 165.446648 
L 82.872641 165.200519 
L 98.311376 164.761554 
L 113.750111 150.879765 
L 129.188846 162.686259 
L 144.627582 160.832977 
L 160.066317 161.557796 
L 175.505052 160.075289 
L 190.943787 157.473261 
L 206.382522 153.381692 
L 221.821257 152.294919 
L 237.259993 154.558839 
L 252.698728 153.414475 
L 268.137463 151.747842 
L 283.576198 151.325211 
L 299.014933 149.736438 
L 314.453668 146.382555 
L 329.892404 142.637898 
L 345.331139 160.467973 
L 360.769874 160.576021 
L 376.208609 127.345001 
L 391.647344 165.471633 
L 407.08608 165.91342 
" style="fill:none;stroke:#1b9e77;stroke-linecap:square;stroke-opacity:0.5;stroke-width:1.5;"/>
   </g>
   <g id="line2d_52">
    <path clip-path="url(#p794b2c0811)" d="M 51.99517 145.290094 
L 67.433906 162.838016 
L 82.872641 162.81807 
L 98.311376 129.538283 
L 113.750111 162.18035 
L 129.188846 165.635095 
L 144.627582 165.805329 
L 160.066317 165.783306 
L 175.505052 165.776613 
L 190.943787 165.775542 
L 206.382522 165.694204 
L 221.821257 165.866572 
L 237.259993 165.896494 
L 252.698728 165.167042 
L 268.137463 161.908446 
L 283.576198 157.81929 
L 299.014933 150.797077 
L 314.453668 147.368305 
L 329.892404 142.434328 
L 345.331139 144.495517 
L 360.769874 150.696151 
L 376.208609 146.903579 
L 391.647344 134.596896 
L 407.08608 159.037585 
" style="fill:none;stroke:#1b9e77;stroke-linecap:square;stroke-opacity:0.5;stroke-width:1.5;"/>
   </g>
   <g id="line2d_53">
    <path clip-path="url(#p794b2c0811)" d="M 51.99517 165.932958 
L 67.433906 165.82077 
L 82.872641 165.77643 
L 98.311376 165.817114 
L 113.750111 165.847442 
L 129.188846 165.913551 
L 144.627582 165.678861 
L 160.066317 156.523667 
L 175.505052 160.823794 
L 190.943787 157.892374 
L 206.382522 126.077607 
L 221.821257 131.310552 
L 237.259993 148.885223 
L 252.698728 149.879893 
L 268.137463 143.702756 
L 283.576198 129.308777 
L 299.014933 152.043566 
L 314.453668 162.350378 
L 329.892404 161.349538 
L 345.331139 154.362035 
L 360.769874 158.746071 
L 376.208609 164.988715 
L 391.647344 165.469276 
L 407.08608 165.620828 
" style="fill:none;stroke:#1b9e77;stroke-linecap:square;stroke-opacity:0.5;stroke-width:1.5;"/>
   </g>
   <g id="line2d_54">
    <path clip-path="url(#p794b2c0811)" d="M 51.99517 164.64399 
L 67.433906 162.886536 
L 82.872641 154.530615 
L 98.311376 152.957508 
L 113.750111 148.068963 
L 129.188846 144.881483 
L 144.627582 139.337121 
L 160.066317 140.980497 
L 175.505052 140.87879 
L 190.943787 109.521427 
L 206.382522 152.147017 
L 221.821257 155.250669 
L 237.259993 161.911349 
L 252.698728 164.806714 
L 268.137463 165.625381 
L 283.576198 165.774325 
L 299.014933 165.887802 
L 314.453668 165.915429 
L 329.892404 165.917244 
L 345.331139 165.609411 
L 360.769874 165.696005 
L 376.208609 165.592859 
L 391.647344 165.562309 
L 407.08608 165.73873 
" style="fill:none;stroke:#1b9e77;stroke-linecap:square;stroke-opacity:0.5;stroke-width:1.5;"/>
   </g>
   <g id="line2d_55">
    <path clip-path="url(#p794b2c0811)" d="M 51.99517 154.470123 
L 67.433906 165.419059 
L 82.872641 163.501771 
L 98.311376 102.952904 
L 113.750111 164.758547 
L 129.188846 159.546679 
L 144.627582 165.912537 
L 160.066317 165.951286 
L 175.505052 163.866914 
L 190.943787 159.491143 
L 206.382522 159.933581 
L 221.821257 160.093033 
L 237.259993 158.462578 
L 252.698728 158.789406 
L 268.137463 158.194191 
L 283.576198 157.737202 
L 299.014933 157.431624 
L 314.453668 157.638815 
L 329.892404 156.663672 
L 345.331139 154.489944 
L 360.769874 152.45843 
L 376.208609 148.159303 
L 391.647344 146.169913 
L 407.08608 158.029522 
" style="fill:none;stroke:#1b9e77;stroke-linecap:square;stroke-opacity:0.5;stroke-width:1.5;"/>
   </g>
   <g id="line2d_56">
    <path clip-path="url(#p794b2c0811)" d="M 51.99517 165.842677 
L 67.433906 165.63686 
L 82.872641 165.762755 
L 98.311376 165.777558 
L 113.750111 165.81166 
L 129.188846 165.876841 
L 144.627582 165.89402 
L 160.066317 165.894034 
L 175.505052 164.594035 
L 190.943787 138.966442 
L 206.382522 158.211068 
L 221.821257 157.172974 
L 237.259993 101.181676 
L 252.698728 151.170982 
L 268.137463 158.906163 
L 283.576198 157.725108 
L 299.014933 160.08947 
L 314.453668 158.47562 
L 329.892404 154.58871 
L 345.331139 153.587077 
L 360.769874 155.168641 
L 376.208609 151.034786 
L 391.647344 141.612127 
L 407.08608 161.140894 
" style="fill:none;stroke:#1b9e77;stroke-linecap:square;stroke-opacity:0.5;stroke-width:1.5;"/>
   </g>
   <g id="line2d_57">
    <path clip-path="url(#p794b2c0811)" d="M 51.99517 164.865694 
L 67.433906 164.060005 
L 82.872641 163.145504 
L 98.311376 161.368443 
L 113.750111 160.917007 
L 129.188846 123.424852 
L 144.627582 52.216514 
L 160.066317 127.482873 
L 175.505052 158.002506 
L 190.943787 163.333317 
L 206.382522 165.266307 
L 221.821257 165.271833 
L 237.259993 165.491567 
L 252.698728 165.400652 
L 268.137463 165.280613 
L 283.576198 165.298512 
L 299.014933 165.205877 
L 314.453668 165.166503 
L 329.892404 164.901263 
L 345.331139 164.277534 
L 360.769874 163.47649 
L 376.208609 165.056906 
L 391.647344 165.377094 
L 407.08608 165.834321 
" style="fill:none;stroke:#1b9e77;stroke-linecap:square;stroke-opacity:0.5;stroke-width:1.5;"/>
   </g>
   <g id="line2d_58">
    <path clip-path="url(#p794b2c0811)" d="M 51.99517 165.260983 
L 67.433906 164.505757 
L 82.872641 164.445589 
L 98.311376 163.464083 
L 113.750111 161.299312 
L 129.188846 161.626227 
L 144.627582 162.10697 
L 160.066317 161.993386 
L 175.505052 160.602982 
L 190.943787 161.022307 
L 206.382522 161.039534 
L 221.821257 161.242905 
L 237.259993 162.499367 
L 252.698728 161.889808 
L 268.137463 158.718521 
L 283.576198 158.973717 
L 299.014933 160.960323 
L 314.453668 159.762924 
L 329.892404 154.735109 
L 345.331139 144.79425 
L 360.769874 120.498204 
L 376.208609 118.569951 
L 391.647344 139.927153 
L 407.08608 160.18282 
" style="fill:none;stroke:#1b9e77;stroke-linecap:square;stroke-opacity:0.5;stroke-width:1.5;"/>
   </g>
   <g id="line2d_59">
    <path clip-path="url(#p794b2c0811)" d="M 51.99517 165.951977 
L 67.433906 165.911723 
L 82.872641 165.929624 
L 98.311376 165.927666 
L 113.750111 165.902477 
L 129.188846 165.931225 
L 144.627582 165.936107 
L 160.066317 165.906686 
L 175.505052 155.858998 
L 190.943787 162.166716 
L 206.382522 160.513862 
L 221.821257 159.726797 
L 237.259993 160.763903 
L 252.698728 159.865816 
L 268.137463 158.548707 
L 283.576198 155.580455 
L 299.014933 141.235479 
L 314.453668 125.339753 
L 329.892404 137.288401 
L 345.331139 152.292794 
L 360.769874 155.577637 
L 376.208609 154.771565 
L 391.647344 134.699001 
L 407.08608 148.494804 
" style="fill:none;stroke:#1b9e77;stroke-linecap:square;stroke-opacity:0.5;stroke-width:1.5;"/>
   </g>
   <g id="line2d_60">
    <path clip-path="url(#p794b2c0811)" d="M 51.99517 163.654063 
L 67.433906 159.802169 
L 82.872641 157.115809 
L 98.311376 156.125825 
L 113.750111 162.158677 
L 129.188846 165.408368 
L 144.627582 165.776929 
L 160.066317 165.656948 
L 175.505052 165.69822 
L 190.943787 165.802211 
L 206.382522 165.860853 
L 221.821257 165.92871 
L 237.259993 165.926979 
L 252.698728 163.66413 
L 268.137463 164.143965 
L 283.576198 162.485153 
L 299.014933 160.783516 
L 314.453668 158.684285 
L 329.892404 155.441748 
L 345.331139 156.617282 
L 360.769874 136.09208 
L 376.208609 88.561297 
L 391.647344 135.519425 
L 407.08608 143.213538 
" style="fill:none;stroke:#1b9e77;stroke-linecap:square;stroke-opacity:0.5;stroke-width:1.5;"/>
   </g>
   <g id="line2d_61">
    <path clip-path="url(#p794b2c0811)" d="M 51.99517 162.493899 
L 67.433906 157.912186 
L 82.872641 157.5416 
L 98.311376 153.871532 
L 113.750111 160.500721 
L 129.188846 160.884801 
L 144.627582 118.885031 
L 160.066317 79.326832 
L 175.505052 142.49305 
L 190.943787 149.191034 
L 206.382522 160.253144 
L 221.821257 162.372549 
L 237.259993 164.178477 
L 252.698728 164.26893 
L 268.137463 164.600302 
L 283.576198 164.916729 
L 299.014933 165.483579 
L 314.453668 165.714745 
L 329.892404 165.800352 
L 345.331139 165.751525 
L 360.769874 165.85043 
L 376.208609 165.92756 
L 391.647344 165.94556 
L 407.08608 165.957613 
" style="fill:none;stroke:#1b9e77;stroke-linecap:square;stroke-opacity:0.5;stroke-width:1.5;"/>
   </g>
   <g id="line2d_62">
    <path clip-path="url(#p794b2c0811)" d="M 51.99517 165.226474 
L 67.433906 165.334088 
L 82.872641 165.712811 
L 98.311376 165.64358 
L 113.750111 165.67137 
L 129.188846 165.804269 
L 144.627582 165.884567 
L 160.066317 165.921053 
L 175.505052 165.936227 
L 190.943787 165.946233 
L 206.382522 165.765978 
L 221.821257 165.878433 
L 237.259993 165.917289 
L 252.698728 165.950625 
L 268.137463 162.397595 
L 283.576198 161.194457 
L 299.014933 153.292137 
L 314.453668 91.226062 
L 329.892404 140.653219 
L 345.331139 136.83638 
L 360.769874 142.617593 
L 376.208609 139.949185 
L 391.647344 143.475272 
L 407.08608 157.887281 
" style="fill:none;stroke:#1b9e77;stroke-linecap:square;stroke-opacity:0.5;stroke-width:1.5;"/>
   </g>
   <g id="line2d_63">
    <path clip-path="url(#p794b2c0811)" d="M 51.99517 165.793079 
L 67.433906 165.426261 
L 82.872641 165.640521 
L 98.311376 165.772069 
L 113.750111 165.226867 
L 129.188846 164.27049 
L 144.627582 162.233087 
L 160.066317 162.469622 
L 175.505052 162.21799 
L 190.943787 161.838346 
L 206.382522 161.221085 
L 221.821257 160.144606 
L 237.259993 158.631601 
L 252.698728 153.004249 
L 268.137463 134.497462 
L 283.576198 151.46384 
L 299.014933 161.962553 
L 314.453668 108.716379 
L 329.892404 96.530156 
L 345.331139 161.932404 
L 360.769874 165.242214 
L 376.208609 164.884676 
L 391.647344 165.114711 
L 407.08608 165.887908 
" style="fill:none;stroke:#1b9e77;stroke-linecap:square;stroke-opacity:0.5;stroke-width:1.5;"/>
   </g>
   <g id="line2d_64">
    <path clip-path="url(#p794b2c0811)" d="M 51.99517 165.880832 
L 67.433906 165.865304 
L 82.872641 165.925952 
L 98.311376 165.950722 
L 113.750111 161.307998 
L 129.188846 153.771921 
L 144.627582 136.374333 
L 160.066317 158.42358 
L 175.505052 156.980459 
L 190.943787 120.891361 
L 206.382522 113.552351 
L 221.821257 156.144887 
L 237.259993 163.424885 
L 252.698728 162.200079 
L 268.137463 163.379099 
L 283.576198 162.513363 
L 299.014933 163.269406 
L 314.453668 163.37778 
L 329.892404 162.085737 
L 345.331139 161.655743 
L 360.769874 154.180403 
L 376.208609 156.152419 
L 391.647344 154.621925 
L 407.08608 162.191643 
" style="fill:none;stroke:#1b9e77;stroke-linecap:square;stroke-opacity:0.5;stroke-width:1.5;"/>
   </g>
   <g id="line2d_65">
    <path clip-path="url(#p794b2c0811)" d="M 51.99517 164.884895 
L 67.433906 165.718226 
L 82.872641 165.864064 
L 98.311376 165.49038 
L 113.750111 165.60957 
L 129.188846 165.222438 
L 144.627582 161.557365 
L 160.066317 164.993285 
L 175.505052 164.399886 
L 190.943787 160.253351 
L 206.382522 153.602329 
L 221.821257 149.80596 
L 237.259993 147.879429 
L 252.698728 148.108613 
L 268.137463 153.861956 
L 283.576198 142.74423 
L 299.014933 139.962719 
L 314.453668 149.219143 
L 329.892404 160.670542 
L 345.331139 161.449082 
L 360.769874 150.065982 
L 376.208609 136.440511 
L 391.647344 147.046084 
L 407.08608 165.272137 
" style="fill:none;stroke:#1b9e77;stroke-linecap:square;stroke-opacity:0.5;stroke-width:1.5;"/>
   </g>
   <g id="line2d_66">
    <path clip-path="url(#p794b2c0811)" d="M 51.99517 165.122514 
L 67.433906 162.69195 
L 82.872641 164.40865 
L 98.311376 165.241143 
L 113.750111 164.663779 
L 129.188846 158.457573 
L 144.627582 140.707026 
L 160.066317 128.144467 
L 175.505052 118.34786 
L 190.943787 139.655325 
L 206.382522 144.21789 
L 221.821257 132.210365 
L 237.259993 148.587834 
L 252.698728 164.624571 
L 268.137463 165.733471 
L 283.576198 165.783115 
L 299.014933 165.872306 
L 314.453668 165.930697 
L 329.892404 165.943846 
L 345.331139 165.863521 
L 360.769874 164.939662 
L 376.208609 162.517554 
L 391.647344 165.018233 
L 407.08608 165.438827 
" style="fill:none;stroke:#1b9e77;stroke-linecap:square;stroke-opacity:0.5;stroke-width:1.5;"/>
   </g>
   <g id="line2d_67">
    <path clip-path="url(#p794b2c0811)" d="M 51.99517 133.604198 
L 67.433906 152.919172 
L 82.872641 160.620511 
L 98.311376 131.089891 
L 113.750111 133.858934 
L 129.188846 163.502117 
L 144.627582 165.641099 
L 160.066317 165.757104 
L 175.505052 165.848611 
L 190.943787 165.724834 
L 206.382522 165.403069 
L 221.821257 165.72249 
L 237.259993 165.58474 
L 252.698728 163.585129 
L 268.137463 116.54405 
L 283.576198 147.589319 
L 299.014933 156.454377 
L 314.453668 157.909767 
L 329.892404 159.688136 
L 345.331139 158.210901 
L 360.769874 160.600401 
L 376.208609 163.676425 
L 391.647344 164.8621 
L 407.08608 165.724799 
" style="fill:none;stroke:#1b9e77;stroke-linecap:square;stroke-opacity:0.5;stroke-width:1.5;"/>
   </g>
   <g id="line2d_68">
    <path clip-path="url(#p794b2c0811)" d="M 51.99517 165.940921 
L 67.433906 165.871204 
L 82.872641 165.893731 
L 98.311376 165.880112 
L 113.750111 165.806018 
L 129.188846 164.172184 
L 144.627582 164.754712 
L 160.066317 165.62511 
L 175.505052 164.422883 
L 190.943787 157.361261 
L 206.382522 159.194673 
L 221.821257 155.277941 
L 237.259993 143.135355 
L 252.698728 106.160201 
L 268.137463 132.576917 
L 283.576198 151.15149 
L 299.014933 102.540612 
L 314.453668 164.175037 
L 329.892404 165.648019 
L 345.331139 165.852659 
L 360.769874 165.923988 
L 376.208609 164.183224 
L 391.647344 163.794381 
L 407.08608 164.779545 
" style="fill:none;stroke:#1b9e77;stroke-linecap:square;stroke-opacity:0.5;stroke-width:1.5;"/>
   </g>
   <g id="line2d_69">
    <path clip-path="url(#p794b2c0811)" d="M 51.99517 165.848597 
L 67.433906 161.793978 
L 82.872641 157.51154 
L 98.311376 150.405031 
L 113.750111 134.295541 
L 129.188846 165.827371 
L 144.627582 159.870954 
L 160.066317 160.828502 
L 175.505052 160.042378 
L 190.943787 154.436792 
L 206.382522 146.450647 
L 221.821257 143.873184 
L 237.259993 164.08029 
L 252.698728 161.053314 
L 268.137463 164.622321 
L 283.576198 165.7644 
L 299.014933 165.553189 
L 314.453668 141.587231 
L 329.892404 142.803034 
L 345.331139 163.282215 
L 360.769874 163.06079 
L 376.208609 155.665921 
L 391.647344 143.842489 
L 407.08608 157.622477 
" style="fill:none;stroke:#1b9e77;stroke-linecap:square;stroke-opacity:0.5;stroke-width:1.5;"/>
   </g>
   <g id="line2d_70">
    <path clip-path="url(#p794b2c0811)" d="M 51.99517 143.845297 
L 67.433906 152.956371 
L 82.872641 159.234425 
L 98.311376 157.244163 
L 113.750111 159.938697 
L 129.188846 162.686677 
L 144.627582 159.77697 
L 160.066317 160.629222 
L 175.505052 162.0042 
L 190.943787 160.831906 
L 206.382522 161.417357 
L 221.821257 110.787219 
L 237.259993 149.496523 
L 252.698728 165.87527 
L 268.137463 165.643264 
L 283.576198 161.415132 
L 299.014933 154.636072 
L 314.453668 161.061511 
L 329.892404 145.855395 
L 345.331139 155.830708 
L 360.769874 160.826691 
L 376.208609 159.375371 
L 391.647344 156.403465 
L 407.08608 162.350272 
" style="fill:none;stroke:#1b9e77;stroke-linecap:square;stroke-opacity:0.5;stroke-width:1.5;"/>
   </g>
   <g id="line2d_71">
    <path clip-path="url(#p794b2c0811)" d="M 51.99517 165.784742 
L 67.433906 165.612732 
L 82.872641 165.788651 
L 98.311376 165.804771 
L 113.750111 165.796329 
L 129.188846 165.930305 
L 144.627582 165.54076 
L 160.066317 158.196444 
L 175.505052 164.120124 
L 190.943787 164.048001 
L 206.382522 163.773424 
L 221.821257 162.506706 
L 237.259993 160.289807 
L 252.698728 157.348565 
L 268.137463 152.794716 
L 283.576198 158.115054 
L 299.014933 162.508625 
L 314.453668 73.50361 
L 329.892404 131.187036 
L 345.331139 149.907708 
L 360.769874 153.154025 
L 376.208609 150.481094 
L 391.647344 162.110354 
L 407.08608 165.818594 
" style="fill:none;stroke:#1b9e77;stroke-linecap:square;stroke-opacity:0.5;stroke-width:1.5;"/>
   </g>
   <g id="line2d_72">
    <path clip-path="url(#p794b2c0811)" d="M 51.99517 165.809795 
L 67.433906 165.83943 
L 82.872641 165.914313 
L 98.311376 153.141196 
L 113.750111 151.499949 
L 129.188846 158.173446 
L 144.627582 161.091955 
L 160.066317 163.156712 
L 175.505052 154.971854 
L 190.943787 155.133239 
L 206.382522 156.94543 
L 221.821257 104.382352 
L 237.259993 87.574938 
L 252.698728 153.289603 
L 268.137463 163.257122 
L 283.576198 163.363572 
L 299.014933 165.35095 
L 314.453668 165.754374 
L 329.892404 165.877102 
L 345.331139 165.875408 
L 360.769874 165.899414 
L 376.208609 165.923495 
L 391.647344 165.938225 
L 407.08608 165.958304 
" style="fill:none;stroke:#1b9e77;stroke-linecap:square;stroke-opacity:0.5;stroke-width:1.5;"/>
   </g>
   <g id="line2d_73">
    <path clip-path="url(#p794b2c0811)" d="M 51.99517 164.992718 
L 67.433906 162.255102 
L 82.872641 157.755437 
L 98.311376 72.453005 
L 113.750111 130.094105 
L 129.188846 137.635132 
L 144.627582 143.079152 
L 160.066317 143.544553 
L 175.505052 157.558422 
L 190.943787 162.977887 
L 206.382522 164.52017 
L 221.821257 164.396046 
L 237.259993 164.941337 
L 252.698728 165.34425 
L 268.137463 165.587413 
L 283.576198 165.639149 
L 299.014933 165.807645 
L 314.453668 165.891283 
L 329.892404 165.927976 
L 345.331139 165.925849 
L 360.769874 165.933974 
L 376.208609 165.94833 
L 391.647344 165.953381 
L 407.08608 165.959867 
" style="fill:none;stroke:#1b9e77;stroke-linecap:square;stroke-opacity:0.5;stroke-width:1.5;"/>
   </g>
   <g id="line2d_74">
    <path clip-path="url(#p794b2c0811)" d="M 51.99517 165.521682 
L 67.433906 165.027066 
L 82.872641 164.715093 
L 98.311376 164.029552 
L 113.750111 162.798199 
L 129.188846 143.798228 
L 144.627582 123.089334 
L 160.066317 125.761529 
L 175.505052 147.377438 
L 190.943787 151.104346 
L 206.382522 163.216642 
L 221.821257 165.092056 
L 237.259993 165.217169 
L 252.698728 163.397951 
L 268.137463 152.361105 
L 283.576198 150.516128 
L 299.014933 131.199212 
L 314.453668 165.159401 
L 329.892404 165.202333 
L 345.331139 157.961218 
L 360.769874 165.102728 
L 376.208609 164.754995 
L 391.647344 163.365357 
L 407.08608 164.353413 
" style="fill:none;stroke:#1b9e77;stroke-linecap:square;stroke-opacity:0.5;stroke-width:1.5;"/>
   </g>
   <g id="line2d_75">
    <path clip-path="url(#p794b2c0811)" d="M 51.99517 143.208056 
L 67.433906 121.88696 
L 82.872641 131.149498 
L 98.311376 155.282972 
L 113.750111 160.028471 
L 129.188846 119.712339 
L 144.627582 163.378557 
L 160.066317 165.125174 
L 175.505052 165.266514 
L 190.943787 164.709691 
L 206.382522 164.499182 
L 221.821257 165.16706 
L 237.259993 165.401971 
L 252.698728 165.282324 
L 268.137463 164.576483 
L 283.576198 161.523433 
L 299.014933 159.584204 
L 314.453668 165.092856 
L 329.892404 163.83284 
L 345.331139 144.180652 
L 360.769874 157.736433 
L 376.208609 160.817926 
L 391.647344 159.365321 
L 407.08608 163.31326 
" style="fill:none;stroke:#1b9e77;stroke-linecap:square;stroke-opacity:0.5;stroke-width:1.5;"/>
   </g>
   <g id="line2d_76">
    <path clip-path="url(#p794b2c0811)" d="M 51.99517 165.939652 
L 67.433906 165.750297 
L 82.872641 165.5031 
L 98.311376 165.748233 
L 113.750111 165.826225 
L 129.188846 165.870404 
L 144.627582 165.764306 
L 160.066317 164.78892 
L 175.505052 161.813712 
L 190.943787 165.171923 
L 206.382522 163.814178 
L 221.821257 138.021997 
L 237.259993 125.380307 
L 252.698728 147.193199 
L 268.137463 145.280471 
L 283.576198 123.063057 
L 299.014933 146.838818 
L 314.453668 155.511119 
L 329.892404 154.956846 
L 345.331139 157.633793 
L 360.769874 159.257895 
L 376.208609 159.590785 
L 391.647344 158.516341 
L 407.08608 162.886595 
" style="fill:none;stroke:#1b9e77;stroke-linecap:square;stroke-opacity:0.5;stroke-width:1.5;"/>
   </g>
   <g id="line2d_77">
    <path clip-path="url(#p794b2c0811)" d="M 51.99517 165.551597 
L 67.433906 165.737328 
L 82.872641 165.545561 
L 98.311376 165.52606 
L 113.750111 165.522643 
L 129.188846 157.764873 
L 144.627582 135.247601 
L 160.066317 160.362742 
L 175.505052 150.624058 
L 190.943787 148.650812 
L 206.382522 150.504895 
L 221.821257 141.733066 
L 237.259993 151.245839 
L 252.698728 153.747239 
L 268.137463 152.506557 
L 283.576198 138.475819 
L 299.014933 143.113927 
L 314.453668 159.349737 
L 329.892404 164.294935 
L 345.331139 162.496864 
L 360.769874 160.025243 
L 376.208609 161.466548 
L 391.647344 164.788574 
L 407.08608 165.839657 
" style="fill:none;stroke:#1b9e77;stroke-linecap:square;stroke-opacity:0.5;stroke-width:1.5;"/>
   </g>
   <g id="line2d_78">
    <path clip-path="url(#p794b2c0811)" d="M 51.99517 164.565599 
L 67.433906 163.760842 
L 82.872641 165.467209 
L 98.311376 165.691045 
L 113.750111 165.762119 
L 129.188846 165.832433 
L 144.627582 165.578178 
L 160.066317 165.830238 
L 175.505052 164.10535 
L 190.943787 164.827864 
L 206.382522 165.2471 
L 221.821257 164.686408 
L 237.259993 163.880267 
L 252.698728 163.316386 
L 268.137463 162.388158 
L 283.576198 161.765778 
L 299.014933 162.052588 
L 314.453668 158.523444 
L 329.892404 124.826266 
L 345.331139 110.558718 
L 360.769874 143.427408 
L 376.208609 136.628853 
L 391.647344 132.445995 
L 407.08608 148.953934 
" style="fill:none;stroke:#1b9e77;stroke-linecap:square;stroke-opacity:0.5;stroke-width:1.5;"/>
   </g>
   <g id="line2d_79">
    <path clip-path="url(#p794b2c0811)" d="M 51.99517 157.944211 
L 67.433906 156.919475 
L 82.872641 149.404505 
L 98.311376 107.903878 
L 113.750111 157.842229 
L 129.188846 163.745996 
L 144.627582 165.034349 
L 160.066317 164.359191 
L 175.505052 164.826275 
L 190.943787 165.414733 
L 206.382522 165.592554 
L 221.821257 165.758998 
L 237.259993 164.924446 
L 252.698728 163.560804 
L 268.137463 164.197815 
L 283.576198 163.688852 
L 299.014933 163.471911 
L 314.453668 162.810731 
L 329.892404 161.455738 
L 345.331139 161.607486 
L 360.769874 163.803507 
L 376.208609 162.711335 
L 391.647344 109.166841 
L 407.08608 123.976317 
" style="fill:none;stroke:#1b9e77;stroke-linecap:square;stroke-opacity:0.5;stroke-width:1.5;"/>
   </g>
   <g id="line2d_80">
    <path clip-path="url(#p794b2c0811)" d="M 51.99517 148.216951 
L 67.433906 122.843848 
L 82.872641 165.741798 
L 98.311376 165.751231 
L 113.750111 164.629893 
L 129.188846 163.306112 
L 144.627582 154.080467 
L 160.066317 164.648352 
L 175.505052 165.579585 
L 190.943787 161.57074 
L 206.382522 157.25691 
L 221.821257 104.789149 
L 237.259993 152.391392 
L 252.698728 165.394629 
L 268.137463 164.109344 
L 283.576198 134.943238 
L 299.014933 151.364633 
L 314.453668 157.036226 
L 329.892404 163.21929 
L 345.331139 164.181976 
L 360.769874 163.504398 
L 376.208609 164.137647 
L 391.647344 165.502684 
L 407.08608 165.921686 
" style="fill:none;stroke:#1b9e77;stroke-linecap:square;stroke-opacity:0.5;stroke-width:1.5;"/>
   </g>
   <g id="line2d_81">
    <path clip-path="url(#p794b2c0811)" d="M 51.99517 165.417208 
L 67.433906 164.178029 
L 82.872641 163.681726 
L 98.311376 163.779475 
L 113.750111 152.974638 
L 129.188846 157.777723 
L 144.627582 151.00362 
L 160.066317 156.593733 
L 175.505052 161.193264 
L 190.943787 158.136092 
L 206.382522 129.043842 
L 221.821257 130.968646 
L 237.259993 152.691365 
L 252.698728 146.866972 
L 268.137463 155.915842 
L 283.576198 157.179058 
L 299.014933 158.177748 
L 314.453668 161.161082 
L 329.892404 162.437515 
L 345.331139 161.704044 
L 360.769874 157.918103 
L 376.208609 158.429789 
L 391.647344 159.878255 
L 407.08608 163.014414 
" style="fill:none;stroke:#1b9e77;stroke-linecap:square;stroke-opacity:0.5;stroke-width:1.5;"/>
   </g>
   <g id="line2d_82">
    <path clip-path="url(#p794b2c0811)" d="M 51.99517 161.23752 
L 67.433906 137.966803 
L 82.872641 139.564027 
L 98.311376 147.898265 
L 113.750111 145.957433 
L 129.188846 136.80762 
L 144.627582 119.515182 
L 160.066317 125.157891 
L 175.505052 153.64016 
L 190.943787 164.921855 
L 206.382522 165.529889 
L 221.821257 162.985011 
L 237.259993 164.073945 
L 252.698728 165.798795 
L 268.137463 165.920236 
L 283.576198 165.92724 
L 299.014933 165.935359 
L 314.453668 165.939637 
L 329.892404 165.939505 
L 345.331139 165.946032 
L 360.769874 165.94893 
L 376.208609 165.95618 
L 391.647344 165.90572 
L 407.08608 165.648936 
" style="fill:none;stroke:#1b9e77;stroke-linecap:square;stroke-opacity:0.5;stroke-width:1.5;"/>
   </g>
   <g id="line2d_83">
    <path clip-path="url(#p794b2c0811)" d="M 51.99517 165.517805 
L 67.433906 165.2348 
L 82.872641 165.485685 
L 98.311376 165.484606 
L 113.750111 165.610734 
L 129.188846 165.794645 
L 144.627582 165.807319 
L 160.066317 165.702114 
L 175.505052 162.434096 
L 190.943787 161.368229 
L 206.382522 157.290168 
L 221.821257 164.474561 
L 237.259993 147.369606 
L 252.698728 127.714145 
L 268.137463 64.248253 
L 283.576198 127.733319 
L 299.014933 160.802202 
L 314.453668 164.059581 
L 329.892404 164.413699 
L 345.331139 161.288604 
L 360.769874 164.957904 
L 376.208609 165.604647 
L 391.647344 165.794093 
L 407.08608 165.931357 
" style="fill:none;stroke:#1b9e77;stroke-linecap:square;stroke-opacity:0.5;stroke-width:1.5;"/>
   </g>
   <g id="line2d_84">
    <path clip-path="url(#p794b2c0811)" d="M 51.99517 153.19802 
L 67.433906 157.828772 
L 82.872641 165.452603 
L 98.311376 165.733153 
L 113.750111 165.201034 
L 129.188846 149.395525 
L 144.627582 131.947015 
L 160.066317 164.277527 
L 175.505052 165.582645 
L 190.943787 165.56722 
L 206.382522 165.605163 
L 221.821257 165.522813 
L 237.259993 165.637107 
L 252.698728 165.863604 
L 268.137463 165.900054 
L 283.576198 163.835577 
L 299.014933 152.335913 
L 314.453668 155.33135 
L 329.892404 154.628912 
L 345.331139 153.051323 
L 360.769874 160.818776 
L 376.208609 160.276882 
L 391.647344 99.986593 
L 407.08608 137.1446 
" style="fill:none;stroke:#1b9e77;stroke-linecap:square;stroke-opacity:0.5;stroke-width:1.5;"/>
   </g>
   <g id="line2d_85">
    <path clip-path="url(#p794b2c0811)" d="M 51.99517 164.470822 
L 67.433906 164.9904 
L 82.872641 165.488533 
L 98.311376 165.486071 
L 113.750111 165.626069 
L 129.188846 165.750564 
L 144.627582 165.802099 
L 160.066317 165.810154 
L 175.505052 165.833226 
L 190.943787 165.895961 
L 206.382522 165.895947 
L 221.821257 165.887544 
L 237.259993 164.159784 
L 252.698728 164.502144 
L 268.137463 157.134012 
L 283.576198 114.045162 
L 299.014933 160.363772 
L 314.453668 155.530141 
L 329.892404 99.080431 
L 345.331139 125.33295 
L 360.769874 156.708704 
L 376.208609 154.238344 
L 391.647344 155.802083 
L 407.08608 156.287262 
" style="fill:none;stroke:#1b9e77;stroke-linecap:square;stroke-opacity:0.5;stroke-width:1.5;"/>
   </g>
   <g id="line2d_86">
    <path clip-path="url(#p794b2c0811)" d="M 51.99517 159.114629 
L 67.433906 160.421468 
L 82.872641 162.645502 
L 98.311376 158.455108 
L 113.750111 157.2212 
L 129.188846 163.041155 
L 144.627582 161.882006 
L 160.066317 144.433745 
L 175.505052 125.837969 
L 190.943787 123.96659 
L 206.382522 126.285424 
L 221.821257 150.903304 
L 237.259993 163.761673 
L 252.698728 140.554034 
L 268.137463 158.965193 
L 283.576198 165.616561 
L 299.014933 165.817805 
L 314.453668 165.849833 
L 329.892404 165.8497 
L 345.331139 165.838562 
L 360.769874 165.862502 
L 376.208609 165.90594 
L 391.647344 165.934711 
L 407.08608 165.957558 
" style="fill:none;stroke:#1b9e77;stroke-linecap:square;stroke-opacity:0.5;stroke-width:1.5;"/>
   </g>
   <g id="line2d_87">
    <path clip-path="url(#p794b2c0811)" d="M 51.99517 159.845393 
L 67.433906 158.283187 
L 82.872641 155.464251 
L 98.311376 148.308613 
L 113.750111 157.732044 
L 129.188846 163.167426 
L 144.627582 164.220533 
L 160.066317 162.32535 
L 175.505052 161.37003 
L 190.943787 162.833641 
L 206.382522 164.565929 
L 221.821257 165.00534 
L 237.259993 164.518652 
L 252.698728 164.661438 
L 268.137463 126.83565 
L 283.576198 149.459555 
L 299.014933 154.638388 
L 314.453668 159.626293 
L 329.892404 158.015708 
L 345.331139 155.870128 
L 360.769874 155.262701 
L 376.208609 151.682906 
L 391.647344 142.819588 
L 407.08608 143.609436 
" style="fill:none;stroke:#1b9e77;stroke-linecap:square;stroke-opacity:0.5;stroke-width:1.5;"/>
   </g>
   <g id="line2d_88">
    <path clip-path="url(#p794b2c0811)" d="M 51.99517 161.823097 
L 67.433906 155.647588 
L 82.872641 155.573081 
L 98.311376 151.19567 
L 113.750111 140.187619 
L 129.188846 128.763762 
L 144.627582 138.766766 
L 160.066317 135.372286 
L 175.505052 132.322852 
L 190.943787 164.941968 
L 206.382522 165.619798 
L 221.821257 164.908738 
L 237.259993 165.457087 
L 252.698728 165.752902 
L 268.137463 165.859887 
L 283.576198 165.922513 
L 299.014933 165.935381 
L 314.453668 162.996168 
L 329.892404 164.068852 
L 345.331139 165.946009 
L 360.769874 165.727117 
L 376.208609 145.738047 
L 391.647344 159.713302 
L 407.08608 161.881695 
" style="fill:none;stroke:#1b9e77;stroke-linecap:square;stroke-opacity:0.5;stroke-width:1.5;"/>
   </g>
   <g id="line2d_89">
    <path clip-path="url(#p794b2c0811)" d="M 51.99517 164.900841 
L 67.433906 165.448611 
L 82.872641 165.797702 
L 98.311376 165.814333 
L 113.750111 165.868878 
L 129.188846 165.909365 
L 144.627582 165.898706 
L 160.066317 165.892079 
L 175.505052 165.660089 
L 190.943787 163.808634 
L 206.382522 163.703146 
L 221.821257 163.653113 
L 237.259993 162.571253 
L 252.698728 162.709233 
L 268.137463 155.397609 
L 283.576198 154.871856 
L 299.014933 153.724986 
L 314.453668 159.992979 
L 329.892404 157.312149 
L 345.331139 146.081119 
L 360.769874 135.371632 
L 376.208609 119.08588 
L 391.647344 142.771492 
L 407.08608 117.876501 
" style="fill:none;stroke:#1b9e77;stroke-linecap:square;stroke-opacity:0.5;stroke-width:1.5;"/>
   </g>
   <g id="line2d_90">
    <path clip-path="url(#p794b2c0811)" d="M 51.99517 156.272228 
L 67.433906 162.038555 
L 82.872641 162.906781 
L 98.311376 165.055173 
L 113.750111 160.61319 
L 129.188846 159.557088 
L 144.627582 165.823101 
L 160.066317 164.513908 
L 175.505052 158.999603 
L 190.943787 162.701559 
L 206.382522 160.942514 
L 221.821257 154.622043 
L 237.259993 162.687154 
L 252.698728 162.999933 
L 268.137463 162.949234 
L 283.576198 162.757554 
L 299.014933 163.429002 
L 314.453668 162.875585 
L 329.892404 160.743 
L 345.331139 138.562834 
L 360.769874 136.710253 
L 376.208609 125.531698 
L 391.647344 144.840455 
L 407.08608 131.98974 
" style="fill:none;stroke:#1b9e77;stroke-linecap:square;stroke-opacity:0.5;stroke-width:1.5;"/>
   </g>
   <g id="line2d_91">
    <path clip-path="url(#p794b2c0811)" d="M 51.99517 159.415509 
L 67.433906 164.767373 
L 82.872641 164.535981 
L 98.311376 81.20253 
L 113.750111 145.66477 
L 129.188846 163.558778 
L 144.627582 165.928745 
L 160.066317 165.957753 
L 175.505052 165.830587 
L 190.943787 165.304121 
L 206.382522 162.655192 
L 221.821257 137.234342 
L 237.259993 162.986623 
L 252.698728 159.403749 
L 268.137463 163.655826 
L 283.576198 162.968146 
L 299.014933 129.081289 
L 314.453668 157.632823 
L 329.892404 162.523769 
L 345.331139 157.207693 
L 360.769874 164.689885 
L 376.208609 160.381748 
L 391.647344 162.726461 
L 407.08608 164.808489 
" style="fill:none;stroke:#1b9e77;stroke-linecap:square;stroke-opacity:0.5;stroke-width:1.5;"/>
   </g>
   <g id="line2d_92">
    <path clip-path="url(#p794b2c0811)" d="M 51.99517 144.973415 
L 67.433906 131.955481 
L 82.872641 147.79232 
L 98.311376 158.513791 
L 113.750111 161.910861 
L 129.188846 148.541227 
L 144.627582 135.616642 
L 160.066317 140.58397 
L 175.505052 157.932197 
L 190.943787 157.485502 
L 206.382522 165.320652 
L 221.821257 165.561054 
L 237.259993 165.654015 
L 252.698728 165.496909 
L 268.137463 165.390031 
L 283.576198 165.626206 
L 299.014933 165.756273 
L 314.453668 165.848778 
L 329.892404 165.049559 
L 345.331139 155.840271 
L 360.769874 140.562206 
L 376.208609 159.806943 
L 391.647344 160.096927 
L 407.08608 158.80695 
" style="fill:none;stroke:#1b9e77;stroke-linecap:square;stroke-opacity:0.5;stroke-width:1.5;"/>
   </g>
   <g id="line2d_93">
    <path clip-path="url(#p794b2c0811)" d="M 51.99517 165.909759 
L 67.433906 165.757939 
L 82.872641 165.813548 
L 98.311376 164.962869 
L 113.750111 163.550305 
L 129.188846 165.678244 
L 144.627582 165.437316 
L 160.066317 162.607105 
L 175.505052 163.52615 
L 190.943787 163.357828 
L 206.382522 160.674444 
L 221.821257 158.896696 
L 237.259993 158.464486 
L 252.698728 155.992254 
L 268.137463 156.349215 
L 283.576198 147.102308 
L 299.014933 140.115122 
L 314.453668 121.539374 
L 329.892404 119.160242 
L 345.331139 135.190069 
L 360.769874 156.237042 
L 376.208609 162.425361 
L 391.647344 165.476968 
L 407.08608 165.897533 
" style="fill:none;stroke:#1b9e77;stroke-linecap:square;stroke-opacity:0.5;stroke-width:1.5;"/>
   </g>
   <g id="line2d_94">
    <path clip-path="url(#p794b2c0811)" d="M 51.99517 164.856644 
L 67.433906 164.653132 
L 82.872641 165.357918 
L 98.311376 165.21385 
L 113.750111 165.245581 
L 129.188846 165.512183 
L 144.627582 165.690521 
L 160.066317 165.727364 
L 175.505052 165.781017 
L 190.943787 165.772729 
L 206.382522 165.731454 
L 221.821257 165.831087 
L 237.259993 165.840513 
L 252.698728 165.837489 
L 268.137463 164.784987 
L 283.576198 156.435784 
L 299.014933 159.235234 
L 314.453668 153.715489 
L 329.892404 141.303929 
L 345.331139 145.077126 
L 360.769874 154.19863 
L 376.208609 138.95192 
L 391.647344 90.939725 
L 407.08608 128.427874 
" style="fill:none;stroke:#1b9e77;stroke-linecap:square;stroke-opacity:0.5;stroke-width:1.5;"/>
   </g>
   <g id="line2d_95">
    <path clip-path="url(#p794b2c0811)" d="M 51.99517 165.886353 
L 67.433906 165.517313 
L 82.872641 165.541415 
L 98.311376 164.543573 
L 113.750111 165.640116 
L 129.188846 165.768476 
L 144.627582 161.633745 
L 160.066317 159.927588 
L 175.505052 156.105249 
L 190.943787 149.048644 
L 206.382522 124.420355 
L 221.821257 137.754539 
L 237.259993 160.194779 
L 252.698728 162.702259 
L 268.137463 147.962838 
L 283.576198 148.067942 
L 299.014933 141.037007 
L 314.453668 152.551794 
L 329.892404 158.153563 
L 345.331139 139.572716 
L 360.769874 165.635737 
L 376.208609 165.858185 
L 391.647344 165.858586 
L 407.08608 160.739408 
" style="fill:none;stroke:#1b9e77;stroke-linecap:square;stroke-opacity:0.5;stroke-width:1.5;"/>
   </g>
   <g id="line2d_96">
    <path clip-path="url(#p794b2c0811)" d="M 51.99517 141.367792 
L 67.433906 161.88682 
L 82.872641 162.443079 
L 98.311376 161.378228 
L 113.750111 161.234769 
L 129.188846 165.815928 
L 144.627582 164.037648 
L 160.066317 145.590341 
L 175.505052 159.660262 
L 190.943787 117.769571 
L 206.382522 138.263746 
L 221.821257 159.631552 
L 237.259993 153.824314 
L 252.698728 132.272503 
L 268.137463 147.704346 
L 283.576198 161.242605 
L 299.014933 163.511398 
L 314.453668 164.462067 
L 329.892404 165.163972 
L 345.331139 164.88965 
L 360.769874 164.872085 
L 376.208609 165.527762 
L 391.647344 165.675835 
L 407.08608 161.895905 
" style="fill:none;stroke:#1b9e77;stroke-linecap:square;stroke-opacity:0.5;stroke-width:1.5;"/>
   </g>
   <g id="line2d_97">
    <path clip-path="url(#p794b2c0811)" d="M 51.99517 159.967039 
L 67.433906 156.684003 
L 82.872641 162.17957 
L 98.311376 161.883143 
L 113.750111 163.600062 
L 129.188846 164.648655 
L 144.627582 165.347793 
L 160.066317 165.470476 
L 175.505052 165.614746 
L 190.943787 165.616237 
L 206.382522 165.676373 
L 221.821257 165.747373 
L 237.259993 165.791332 
L 252.698728 165.794616 
L 268.137463 165.39916 
L 283.576198 162.164582 
L 299.014933 155.455667 
L 314.453668 155.269005 
L 329.892404 135.632938 
L 345.331139 130.103709 
L 360.769874 122.026205 
L 376.208609 125.276287 
L 391.647344 147.298621 
L 407.08608 157.474591 
" style="fill:none;stroke:#1b9e77;stroke-linecap:square;stroke-opacity:0.5;stroke-width:1.5;"/>
   </g>
   <g id="line2d_98">
    <path clip-path="url(#p794b2c0811)" d="M 51.99517 165.936757 
L 67.433906 165.599654 
L 82.872641 165.254607 
L 98.311376 165.666496 
L 113.750111 165.486079 
L 129.188846 165.610181 
L 144.627582 165.151533 
L 160.066317 163.909259 
L 175.505052 162.605618 
L 190.943787 161.115111 
L 206.382522 158.990617 
L 221.821257 158.495413 
L 237.259993 159.792998 
L 252.698728 14.76 
L 268.137463 130.007425 
L 283.576198 159.559364 
L 299.014933 163.922931 
L 314.453668 164.675132 
L 329.892404 165.401291 
L 345.331139 165.427586 
L 360.769874 165.545612 
L 376.208609 165.607112 
L 391.647344 165.686274 
L 407.08608 165.915121 
" style="fill:none;stroke:#1b9e77;stroke-linecap:square;stroke-opacity:0.5;stroke-width:1.5;"/>
   </g>
   <g id="line2d_99">
    <path clip-path="url(#p794b2c0811)" d="M 51.99517 163.408195 
L 67.433906 148.266644 
L 82.872641 134.739358 
L 98.311376 101.31227 
L 113.750111 105.926798 
L 129.188846 127.679226 
L 144.627582 155.036772 
L 160.066317 161.756482 
L 175.505052 164.647903 
L 190.943787 165.293649 
L 206.382522 165.638524 
L 221.821257 165.589203 
L 237.259993 165.725271 
L 252.698728 165.852191 
L 268.137463 165.90251 
L 283.576198 165.916171 
L 299.014933 165.929623 
L 314.453668 165.940376 
L 329.892404 165.938183 
L 345.331139 165.940243 
L 360.769874 165.94221 
L 376.208609 165.95012 
L 391.647344 165.945817 
L 407.08608 165.844435 
" style="fill:none;stroke:#1b9e77;stroke-linecap:square;stroke-opacity:0.5;stroke-width:1.5;"/>
   </g>
   <g id="line2d_100">
    <path clip-path="url(#p794b2c0811)" d="M 51.99517 157.828723 
L 67.433906 161.745506 
L 82.872641 154.657675 
L 98.311376 151.417825 
L 113.750111 160.545123 
L 129.188846 155.55821 
L 144.627582 147.05315 
L 160.066317 125.096119 
L 175.505052 130.541721 
L 190.943787 151.519186 
L 206.382522 163.564902 
L 221.821257 164.487474 
L 237.259993 164.854802 
L 252.698728 164.724439 
L 268.137463 165.228228 
L 283.576198 165.524043 
L 299.014933 165.621727 
L 314.453668 165.574556 
L 329.892404 165.534594 
L 345.331139 165.541965 
L 360.769874 165.463495 
L 376.208609 165.709483 
L 391.647344 164.462441 
L 407.08608 107.86679 
" style="fill:none;stroke:#1b9e77;stroke-linecap:square;stroke-opacity:0.5;stroke-width:1.5;"/>
   </g>
   <g id="line2d_101">
    <path clip-path="url(#p794b2c0811)" d="M 51.99517 165.745742 
L 67.433906 165.65087 
L 82.872641 165.83036 
L 98.311376 165.828923 
L 113.750111 165.86516 
L 129.188846 165.904562 
L 144.627582 165.917516 
L 160.066317 165.938636 
L 175.505052 165.938572 
L 190.943787 165.31631 
L 206.382522 163.73176 
L 221.821257 162.372297 
L 237.259993 160.168421 
L 252.698728 159.30052 
L 268.137463 160.421519 
L 283.576198 156.881615 
L 299.014933 119.009962 
L 314.453668 107.54878 
L 329.892404 130.721163 
L 345.331139 133.274095 
L 360.769874 146.946595 
L 376.208609 160.971231 
L 391.647344 165.000071 
L 407.08608 165.83749 
" style="fill:none;stroke:#1b9e77;stroke-linecap:square;stroke-opacity:0.5;stroke-width:1.5;"/>
   </g>
   <g id="line2d_102">
    <path clip-path="url(#p794b2c0811)" d="M 51.99517 151.330968 
L 67.433906 108.07213 
L 82.872641 121.553941 
L 98.311376 150.066844 
L 113.750111 152.763485 
L 129.188846 140.161478 
L 144.627582 140.044638 
L 160.066317 151.641171 
L 175.505052 162.281108 
L 190.943787 164.38023 
L 206.382522 165.172659 
L 221.821257 165.082535 
L 237.259993 165.534114 
L 252.698728 165.742452 
L 268.137463 165.840269 
L 283.576198 165.8139 
L 299.014933 165.84947 
L 314.453668 165.84466 
L 329.892404 165.837126 
L 345.331139 165.629789 
L 360.769874 164.746355 
L 376.208609 161.156511 
L 391.647344 160.92098 
L 407.08608 164.655368 
" style="fill:none;stroke:#1b9e77;stroke-linecap:square;stroke-opacity:0.5;stroke-width:1.5;"/>
   </g>
   <g id="line2d_103">
    <path clip-path="url(#p794b2c0811)" d="M 51.99517 165.173247 
L 67.433906 164.12986 
L 82.872641 161.426029 
L 98.311376 146.616362 
L 113.750111 156.028025 
L 129.188846 144.179694 
L 144.627582 158.301361 
L 160.066317 159.323024 
L 175.505052 160.709884 
L 190.943787 150.390419 
L 206.382522 153.814574 
L 221.821257 151.140596 
L 237.259993 151.560086 
L 252.698728 158.305425 
L 268.137463 148.348731 
L 283.576198 155.369416 
L 299.014933 158.268855 
L 314.453668 157.949195 
L 329.892404 156.857262 
L 345.331139 158.07727 
L 360.769874 159.963891 
L 376.208609 158.14573 
L 391.647344 153.89368 
L 407.08608 162.149566 
" style="fill:none;stroke:#1b9e77;stroke-linecap:square;stroke-opacity:0.5;stroke-width:1.5;"/>
   </g>
   <g id="line2d_104">
    <path clip-path="url(#p794b2c0811)" d="M 51.99517 161.038693 
L 67.433906 160.710209 
L 82.872641 164.431305 
L 98.311376 164.613947 
L 113.750111 164.51182 
L 129.188846 163.518784 
L 144.627582 162.604904 
L 160.066317 163.874995 
L 175.505052 164.520474 
L 190.943787 164.92184 
L 206.382522 164.520611 
L 221.821257 157.223792 
L 237.259993 156.717442 
L 252.698728 162.964919 
L 268.137463 158.262081 
L 283.576198 156.307387 
L 299.014933 147.877517 
L 314.453668 150.58527 
L 329.892404 149.818502 
L 345.331139 142.982533 
L 360.769874 149.760115 
L 376.208609 146.076229 
L 391.647344 134.919964 
L 407.08608 137.358844 
" style="fill:none;stroke:#1b9e77;stroke-linecap:square;stroke-opacity:0.5;stroke-width:1.5;"/>
   </g>
   <g id="line2d_105">
    <path clip-path="url(#p794b2c0811)" d="M 51.99517 159.263937 
L 67.433906 158.23584 
L 82.872641 163.474059 
L 98.311376 162.156314 
L 113.750111 163.510497 
L 129.188846 157.425483 
L 144.627582 158.616442 
L 160.066317 165.566351 
L 175.505052 165.740697 
L 190.943787 165.806269 
L 206.382522 165.514591 
L 221.821257 164.042936 
L 237.259993 154.14648 
L 252.698728 162.934102 
L 268.137463 159.957839 
L 283.576198 157.70462 
L 299.014933 159.240029 
L 314.453668 159.889974 
L 329.892404 150.011799 
L 345.331139 143.000606 
L 360.769874 139.146363 
L 376.208609 134.101258 
L 391.647344 135.507509 
L 407.08608 145.12819 
" style="fill:none;stroke:#1b9e77;stroke-linecap:square;stroke-opacity:0.5;stroke-width:1.5;"/>
   </g>
   <g id="line2d_106">
    <path clip-path="url(#p794b2c0811)" d="M 51.99517 140.414717 
L 67.433906 93.520864 
L 82.872641 94.518277 
L 98.311376 127.701926 
L 113.750111 158.517394 
L 129.188846 163.923929 
L 144.627582 165.117575 
L 160.066317 164.680937 
L 175.505052 164.805323 
L 190.943787 165.022188 
L 206.382522 165.287768 
L 221.821257 165.347645 
L 237.259993 165.432662 
L 252.698728 165.373942 
L 268.137463 165.381804 
L 283.576198 165.480237 
L 299.014933 165.594871 
L 314.453668 165.685337 
L 329.892404 165.419261 
L 345.331139 164.334851 
L 360.769874 163.11224 
L 376.208609 163.636713 
L 391.647344 165.893696 
L 407.08608 165.918022 
" style="fill:none;stroke:#1b9e77;stroke-linecap:square;stroke-opacity:0.5;stroke-width:1.5;"/>
   </g>
   <g id="line2d_107">
    <path clip-path="url(#p794b2c0811)" d="M 51.99517 165.833548 
L 67.433906 165.512755 
L 82.872641 165.41326 
L 98.311376 165.077385 
L 113.750111 162.795401 
L 129.188846 143.840517 
L 144.627582 102.266305 
L 160.066317 138.505245 
L 175.505052 143.44123 
L 190.943787 146.393401 
L 206.382522 148.201244 
L 221.821257 150.552567 
L 237.259993 158.56758 
L 252.698728 162.490515 
L 268.137463 164.143806 
L 283.576198 161.047793 
L 299.014933 152.101888 
L 314.453668 162.632987 
L 329.892404 164.518298 
L 345.331139 164.960874 
L 360.769874 165.116033 
L 376.208609 165.294065 
L 391.647344 165.498532 
L 407.08608 165.916954 
" style="fill:none;stroke:#1b9e77;stroke-linecap:square;stroke-opacity:0.5;stroke-width:1.5;"/>
   </g>
   <g id="line2d_108">
    <path clip-path="url(#p794b2c0811)" d="M 51.99517 165.951149 
L 67.433906 165.939149 
L 82.872641 165.946691 
L 98.311376 165.903468 
L 113.750111 165.819942 
L 129.188846 162.337025 
L 144.627582 152.096094 
L 160.066317 160.384441 
L 175.505052 163.082685 
L 190.943787 145.999295 
L 206.382522 89.243127 
L 221.821257 152.23722 
L 237.259993 160.688486 
L 252.698728 149.73495 
L 268.137463 153.704886 
L 283.576198 160.840626 
L 299.014933 163.563618 
L 314.453668 165.314669 
L 329.892404 163.243428 
L 345.331139 131.682071 
L 360.769874 157.97406 
L 376.208609 162.384931 
L 391.647344 161.652266 
L 407.08608 164.3979 
" style="fill:none;stroke:#1b9e77;stroke-linecap:square;stroke-opacity:0.5;stroke-width:1.5;"/>
   </g>
   <g id="line2d_109">
    <path clip-path="url(#p794b2c0811)" d="M 51.99517 59.513486 
L 67.433906 135.398643 
L 82.872641 160.928936 
L 98.311376 160.222093 
L 113.750111 161.756376 
L 129.188846 163.236989 
L 144.627582 164.553451 
L 160.066317 165.348543 
L 175.505052 165.701105 
L 190.943787 165.796807 
L 206.382522 162.298149 
L 221.821257 151.560411 
L 237.259993 146.261514 
L 252.698728 165.508671 
L 268.137463 163.918152 
L 283.576198 156.259042 
L 299.014933 142.282664 
L 314.453668 165.114305 
L 329.892404 165.623998 
L 345.331139 165.718302 
L 360.769874 165.746963 
L 376.208609 165.694656 
L 391.647344 165.728511 
L 407.08608 165.950411 
" style="fill:none;stroke:#1b9e77;stroke-linecap:square;stroke-opacity:0.5;stroke-width:1.5;"/>
   </g>
   <g id="line2d_110">
    <path clip-path="url(#p794b2c0811)" d="M 51.99517 165.900973 
L 67.433906 165.573389 
L 82.872641 165.406904 
L 98.311376 164.780433 
L 113.750111 158.247357 
L 129.188846 153.787368 
L 144.627582 146.710947 
L 160.066317 159.468986 
L 175.505052 164.435965 
L 190.943787 144.864986 
L 206.382522 151.24706 
L 221.821257 79.287556 
L 237.259993 161.44923 
L 252.698728 163.380054 
L 268.137463 138.725523 
L 283.576198 165.426677 
L 299.014933 165.588891 
L 314.453668 161.183976 
L 329.892404 154.4415 
L 345.331139 165.241837 
L 360.769874 165.588931 
L 376.208609 165.711029 
L 391.647344 165.543008 
L 407.08608 158.129598 
" style="fill:none;stroke:#1b9e77;stroke-linecap:square;stroke-opacity:0.5;stroke-width:1.5;"/>
   </g>
   <g id="line2d_111">
    <path clip-path="url(#p794b2c0811)" d="M 51.99517 165.949224 
L 67.433906 164.269241 
L 82.872641 151.495671 
L 98.311376 64.019599 
L 113.750111 97.540807 
L 129.188846 165.934203 
L 144.627582 163.622397 
L 160.066317 164.103407 
L 175.505052 165.949224 
L 190.943787 165.637494 
L 206.382522 165.949224 
L 221.821257 165.949224 
L 237.259993 165.949224 
L 252.698728 165.949224 
L 268.137463 165.949224 
L 283.576198 165.949224 
L 299.014933 165.949224 
L 314.453668 165.949224 
L 329.892404 165.949224 
L 345.331139 165.761181 
L 360.769874 162.629155 
L 376.208609 151.115708 
L 391.647344 165.760807 
L 407.08608 142.791034 
" style="fill:none;stroke:#d95f02;stroke-linecap:square;stroke-width:1.5;"/>
   </g>
   <g id="patch_3">
    <path d="M 34.240625 173.52 
L 34.240625 7.2 
" style="fill:none;stroke:#000000;stroke-linecap:square;stroke-linejoin:miter;stroke-width:0.8;"/>
   </g>
   <g id="patch_4">
    <path d="M 34.240625 173.52 
L 424.840625 173.52 
" style="fill:none;stroke:#000000;stroke-linecap:square;stroke-linejoin:miter;stroke-width:0.8;"/>
   </g>
   <g id="legend_1">
    <g id="patch_5">
     <path d="M 366.673438 29.878125 
L 417.840625 29.878125 
Q 419.840625 29.878125 419.840625 27.878125 
L 419.840625 14.2 
Q 419.840625 12.2 417.840625 12.2 
L 366.673438 12.2 
Q 364.673438 12.2 364.673438 14.2 
L 364.673438 27.878125 
Q 364.673438 29.878125 366.673438 29.878125 
z
" style="fill:#ffffff;opacity:0.8;stroke:#cccccc;stroke-linejoin:miter;"/>
    </g>
    <g id="line2d_112">
     <path d="M 368.673438 20.298438 
L 388.673438 20.298438 
" style="fill:none;stroke:#d95f02;stroke-linecap:square;stroke-width:1.5;"/>
    </g>
    <g id="line2d_113"/>
    <g id="text_13">
     <!-- real -->
     <defs>
      <path d="M 9.421875 75.984375 
L 18.40625 75.984375 
L 18.40625 0 
L 9.421875 0 
z
" id="DejaVuSans-108"/>
     </defs>
     <g transform="translate(396.673438 23.798438)scale(0.1 -0.1)">
      <use xlink:href="#DejaVuSans-114"/>
      <use x="41.082031" xlink:href="#DejaVuSans-101"/>
      <use x="102.605469" xlink:href="#DejaVuSans-97"/>
      <use x="163.884766" xlink:href="#DejaVuSans-108"/>
     </g>
    </g>
   </g>
  </g>
 </g>
 <defs>
  <clipPath id="p794b2c0811">
   <rect height="166.32" width="390.6" x="34.240625" y="7.2"/>
  </clipPath>
 </defs>
</svg>
