<?xml version="1.0" encoding="utf-8" standalone="no"?>
<!DOCTYPE svg PUBLIC "-//W3C//DTD SVG 1.1//EN"
  "http://www.w3.org/Graphics/SVG/1.1/DTD/svg11.dtd">
<!-- Created with matplotlib (https://matplotlib.org/) -->
<svg height="211.07625pt" version="1.1" viewBox="0 0 436.087315 211.07625" width="436.087315pt" xmlns="http://www.w3.org/2000/svg" xmlns:xlink="http://www.w3.org/1999/xlink">
 <defs>
  <style type="text/css">
*{stroke-linecap:butt;stroke-linejoin:round;}
  </style>
 </defs>
 <g id="figure_1">
  <g id="patch_1">
   <path d="M 0 211.07625 
L 436.087315 211.07625 
L 436.087315 0 
L 0 0 
z
" style="fill:#ffffff;"/>
  </g>
  <g id="axes_1">
   <g id="patch_2">
    <path d="M 34.240625 173.52 
L 424.840625 173.52 
L 424.840625 7.2 
L 34.240625 7.2 
z
" style="fill:#ffffff;"/>
   </g>
   <g id="matplotlib.axis_1">
    <g id="xtick_1">
     <g id="line2d_1">
      <defs>
       <path d="M 0 0 
L 0 3.5 
" id="mb0a6e87f44" style="stroke:#000000;stroke-width:0.8;"/>
      </defs>
      <g>
       <use style="stroke:#000000;stroke-width:0.8;" x="36.556435" xlink:href="#mb0a6e87f44" y="173.52"/>
      </g>
     </g>
     <g id="text_1">
      <!-- 0 -->
      <defs>
       <path d="M 31.78125 66.40625 
Q 24.171875 66.40625 20.328125 58.90625 
Q 16.5 51.421875 16.5 36.375 
Q 16.5 21.390625 20.328125 13.890625 
Q 24.171875 6.390625 31.78125 6.390625 
Q 39.453125 6.390625 43.28125 13.890625 
Q 47.125 21.390625 47.125 36.375 
Q 47.125 51.421875 43.28125 58.90625 
Q 39.453125 66.40625 31.78125 66.40625 
z
M 31.78125 74.21875 
Q 44.046875 74.21875 50.515625 64.515625 
Q 56.984375 54.828125 56.984375 36.375 
Q 56.984375 17.96875 50.515625 8.265625 
Q 44.046875 -1.421875 31.78125 -1.421875 
Q 19.53125 -1.421875 13.0625 8.265625 
Q 6.59375 17.96875 6.59375 36.375 
Q 6.59375 54.828125 13.0625 64.515625 
Q 19.53125 74.21875 31.78125 74.21875 
z
" id="DejaVuSans-48"/>
      </defs>
      <g transform="translate(33.375185 188.118438)scale(0.1 -0.1)">
       <use xlink:href="#DejaVuSans-48"/>
      </g>
     </g>
    </g>
    <g id="xtick_2">
     <g id="line2d_2">
      <g>
       <use style="stroke:#000000;stroke-width:0.8;" x="113.750111" xlink:href="#mb0a6e87f44" y="173.52"/>
      </g>
     </g>
     <g id="text_2">
      <!-- 5 -->
      <defs>
       <path d="M 10.796875 72.90625 
L 49.515625 72.90625 
L 49.515625 64.59375 
L 19.828125 64.59375 
L 19.828125 46.734375 
Q 21.96875 47.46875 24.109375 47.828125 
Q 26.265625 48.1875 28.421875 48.1875 
Q 40.625 48.1875 47.75 41.5 
Q 54.890625 34.8125 54.890625 23.390625 
Q 54.890625 11.625 47.5625 5.09375 
Q 40.234375 -1.421875 26.90625 -1.421875 
Q 22.3125 -1.421875 17.546875 -0.640625 
Q 12.796875 0.140625 7.71875 1.703125 
L 7.71875 11.625 
Q 12.109375 9.234375 16.796875 8.0625 
Q 21.484375 6.890625 26.703125 6.890625 
Q 35.15625 6.890625 40.078125 11.328125 
Q 45.015625 15.765625 45.015625 23.390625 
Q 45.015625 31 40.078125 35.4375 
Q 35.15625 39.890625 26.703125 39.890625 
Q 22.75 39.890625 18.8125 39.015625 
Q 14.890625 38.140625 10.796875 36.28125 
z
" id="DejaVuSans-53"/>
      </defs>
      <g transform="translate(110.568861 188.118438)scale(0.1 -0.1)">
       <use xlink:href="#DejaVuSans-53"/>
      </g>
     </g>
    </g>
    <g id="xtick_3">
     <g id="line2d_3">
      <g>
       <use style="stroke:#000000;stroke-width:0.8;" x="190.943787" xlink:href="#mb0a6e87f44" y="173.52"/>
      </g>
     </g>
     <g id="text_3">
      <!-- 10 -->
      <defs>
       <path d="M 12.40625 8.296875 
L 28.515625 8.296875 
L 28.515625 63.921875 
L 10.984375 60.40625 
L 10.984375 69.390625 
L 28.421875 72.90625 
L 38.28125 72.90625 
L 38.28125 8.296875 
L 54.390625 8.296875 
L 54.390625 0 
L 12.40625 0 
z
" id="DejaVuSans-49"/>
      </defs>
      <g transform="translate(184.581287 188.118438)scale(0.1 -0.1)">
       <use xlink:href="#DejaVuSans-49"/>
       <use x="63.623047" xlink:href="#DejaVuSans-48"/>
      </g>
     </g>
    </g>
    <g id="xtick_4">
     <g id="line2d_4">
      <g>
       <use style="stroke:#000000;stroke-width:0.8;" x="268.137463" xlink:href="#mb0a6e87f44" y="173.52"/>
      </g>
     </g>
     <g id="text_4">
      <!-- 15 -->
      <g transform="translate(261.774963 188.118438)scale(0.1 -0.1)">
       <use xlink:href="#DejaVuSans-49"/>
       <use x="63.623047" xlink:href="#DejaVuSans-53"/>
      </g>
     </g>
    </g>
    <g id="xtick_5">
     <g id="line2d_5">
      <g>
       <use style="stroke:#000000;stroke-width:0.8;" x="345.331139" xlink:href="#mb0a6e87f44" y="173.52"/>
      </g>
     </g>
     <g id="text_5">
      <!-- 20 -->
      <defs>
       <path d="M 19.1875 8.296875 
L 53.609375 8.296875 
L 53.609375 0 
L 7.328125 0 
L 7.328125 8.296875 
Q 12.9375 14.109375 22.625 23.890625 
Q 32.328125 33.6875 34.8125 36.53125 
Q 39.546875 41.84375 41.421875 45.53125 
Q 43.3125 49.21875 43.3125 52.78125 
Q 43.3125 58.59375 39.234375 62.25 
Q 35.15625 65.921875 28.609375 65.921875 
Q 23.96875 65.921875 18.8125 64.3125 
Q 13.671875 62.703125 7.8125 59.421875 
L 7.8125 69.390625 
Q 13.765625 71.78125 18.9375 73 
Q 24.125 74.21875 28.421875 74.21875 
Q 39.75 74.21875 46.484375 68.546875 
Q 53.21875 62.890625 53.21875 53.421875 
Q 53.21875 48.921875 51.53125 44.890625 
Q 49.859375 40.875 45.40625 35.40625 
Q 44.1875 33.984375 37.640625 27.21875 
Q 31.109375 20.453125 19.1875 8.296875 
z
" id="DejaVuSans-50"/>
      </defs>
      <g transform="translate(338.968639 188.118438)scale(0.1 -0.1)">
       <use xlink:href="#DejaVuSans-50"/>
       <use x="63.623047" xlink:href="#DejaVuSans-48"/>
      </g>
     </g>
    </g>
    <g id="xtick_6">
     <g id="line2d_6">
      <g>
       <use style="stroke:#000000;stroke-width:0.8;" x="422.524815" xlink:href="#mb0a6e87f44" y="173.52"/>
      </g>
     </g>
     <g id="text_6">
      <!-- 25 -->
      <g transform="translate(416.162315 188.118438)scale(0.1 -0.1)">
       <use xlink:href="#DejaVuSans-50"/>
       <use x="63.623047" xlink:href="#DejaVuSans-53"/>
      </g>
     </g>
    </g>
    <g id="text_7">
     <!-- hour -->
     <defs>
      <path d="M 54.890625 33.015625 
L 54.890625 0 
L 45.90625 0 
L 45.90625 32.71875 
Q 45.90625 40.484375 42.875 44.328125 
Q 39.84375 48.1875 33.796875 48.1875 
Q 26.515625 48.1875 22.3125 43.546875 
Q 18.109375 38.921875 18.109375 30.90625 
L 18.109375 0 
L 9.078125 0 
L 9.078125 75.984375 
L 18.109375 75.984375 
L 18.109375 46.1875 
Q 21.34375 51.125 25.703125 53.5625 
Q 30.078125 56 35.796875 56 
Q 45.21875 56 50.046875 50.171875 
Q 54.890625 44.34375 54.890625 33.015625 
z
" id="DejaVuSans-104"/>
      <path d="M 30.609375 48.390625 
Q 23.390625 48.390625 19.1875 42.75 
Q 14.984375 37.109375 14.984375 27.296875 
Q 14.984375 17.484375 19.15625 11.84375 
Q 23.34375 6.203125 30.609375 6.203125 
Q 37.796875 6.203125 41.984375 11.859375 
Q 46.1875 17.53125 46.1875 27.296875 
Q 46.1875 37.015625 41.984375 42.703125 
Q 37.796875 48.390625 30.609375 48.390625 
z
M 30.609375 56 
Q 42.328125 56 49.015625 48.375 
Q 55.71875 40.765625 55.71875 27.296875 
Q 55.71875 13.875 49.015625 6.21875 
Q 42.328125 -1.421875 30.609375 -1.421875 
Q 18.84375 -1.421875 12.171875 6.21875 
Q 5.515625 13.875 5.515625 27.296875 
Q 5.515625 40.765625 12.171875 48.375 
Q 18.84375 56 30.609375 56 
z
" id="DejaVuSans-111"/>
      <path d="M 8.5 21.578125 
L 8.5 54.6875 
L 17.484375 54.6875 
L 17.484375 21.921875 
Q 17.484375 14.15625 20.5 10.265625 
Q 23.53125 6.390625 29.59375 6.390625 
Q 36.859375 6.390625 41.078125 11.03125 
Q 45.3125 15.671875 45.3125 23.6875 
L 45.3125 54.6875 
L 54.296875 54.6875 
L 54.296875 0 
L 45.3125 0 
L 45.3125 8.40625 
Q 42.046875 3.421875 37.71875 1 
Q 33.40625 -1.421875 27.6875 -1.421875 
Q 18.265625 -1.421875 13.375 4.4375 
Q 8.5 10.296875 8.5 21.578125 
z
M 31.109375 56 
z
" id="DejaVuSans-117"/>
      <path d="M 41.109375 46.296875 
Q 39.59375 47.171875 37.8125 47.578125 
Q 36.03125 48 33.890625 48 
Q 26.265625 48 22.1875 43.046875 
Q 18.109375 38.09375 18.109375 28.8125 
L 18.109375 0 
L 9.078125 0 
L 9.078125 54.6875 
L 18.109375 54.6875 
L 18.109375 46.1875 
Q 20.953125 51.171875 25.484375 53.578125 
Q 30.03125 56 36.53125 56 
Q 37.453125 56 38.578125 55.875 
Q 39.703125 55.765625 41.0625 55.515625 
z
" id="DejaVuSans-114"/>
     </defs>
     <g transform="translate(218.088281 201.796563)scale(0.1 -0.1)">
      <use xlink:href="#DejaVuSans-104"/>
      <use x="63.378906" xlink:href="#DejaVuSans-111"/>
      <use x="124.560547" xlink:href="#DejaVuSans-117"/>
      <use x="187.939453" xlink:href="#DejaVuSans-114"/>
     </g>
    </g>
   </g>
   <g id="matplotlib.axis_2">
    <g id="ytick_1">
     <g id="line2d_7">
      <defs>
       <path d="M 0 0 
L -3.5 0 
" id="me1b97875f5" style="stroke:#000000;stroke-width:0.8;"/>
      </defs>
      <g>
       <use style="stroke:#000000;stroke-width:0.8;" x="34.240625" xlink:href="#me1b97875f5" y="165.963932"/>
      </g>
     </g>
     <g id="text_8">
      <!-- 0 -->
      <g transform="translate(20.878125 169.763151)scale(0.1 -0.1)">
       <use xlink:href="#DejaVuSans-48"/>
      </g>
     </g>
    </g>
    <g id="ytick_2">
     <g id="line2d_8">
      <g>
       <use style="stroke:#000000;stroke-width:0.8;" x="34.240625" xlink:href="#me1b97875f5" y="125.102549"/>
      </g>
     </g>
     <g id="text_9">
      <!-- 1 -->
      <g transform="translate(20.878125 128.901768)scale(0.1 -0.1)">
       <use xlink:href="#DejaVuSans-49"/>
      </g>
     </g>
    </g>
    <g id="ytick_3">
     <g id="line2d_9">
      <g>
       <use style="stroke:#000000;stroke-width:0.8;" x="34.240625" xlink:href="#me1b97875f5" y="84.241167"/>
      </g>
     </g>
     <g id="text_10">
      <!-- 2 -->
      <g transform="translate(20.878125 88.040386)scale(0.1 -0.1)">
       <use xlink:href="#DejaVuSans-50"/>
      </g>
     </g>
    </g>
    <g id="ytick_4">
     <g id="line2d_10">
      <g>
       <use style="stroke:#000000;stroke-width:0.8;" x="34.240625" xlink:href="#me1b97875f5" y="43.379785"/>
      </g>
     </g>
     <g id="text_11">
      <!-- 3 -->
      <defs>
       <path d="M 40.578125 39.3125 
Q 47.65625 37.796875 51.625 33 
Q 55.609375 28.21875 55.609375 21.1875 
Q 55.609375 10.40625 48.1875 4.484375 
Q 40.765625 -1.421875 27.09375 -1.421875 
Q 22.515625 -1.421875 17.65625 -0.515625 
Q 12.796875 0.390625 7.625 2.203125 
L 7.625 11.71875 
Q 11.71875 9.328125 16.59375 8.109375 
Q 21.484375 6.890625 26.8125 6.890625 
Q 36.078125 6.890625 40.9375 10.546875 
Q 45.796875 14.203125 45.796875 21.1875 
Q 45.796875 27.640625 41.28125 31.265625 
Q 36.765625 34.90625 28.71875 34.90625 
L 20.21875 34.90625 
L 20.21875 43.015625 
L 29.109375 43.015625 
Q 36.375 43.015625 40.234375 45.921875 
Q 44.09375 48.828125 44.09375 54.296875 
Q 44.09375 59.90625 40.109375 62.90625 
Q 36.140625 65.921875 28.71875 65.921875 
Q 24.65625 65.921875 20.015625 65.03125 
Q 15.375 64.15625 9.8125 62.3125 
L 9.8125 71.09375 
Q 15.4375 72.65625 20.34375 73.4375 
Q 25.25 74.21875 29.59375 74.21875 
Q 40.828125 74.21875 47.359375 69.109375 
Q 53.90625 64.015625 53.90625 55.328125 
Q 53.90625 49.265625 50.4375 45.09375 
Q 46.96875 40.921875 40.578125 39.3125 
z
" id="DejaVuSans-51"/>
      </defs>
      <g transform="translate(20.878125 47.179003)scale(0.1 -0.1)">
       <use xlink:href="#DejaVuSans-51"/>
      </g>
     </g>
    </g>
    <g id="text_12">
     <!-- precipitation [mm/hour] -->
     <defs>
      <path d="M 18.109375 8.203125 
L 18.109375 -20.796875 
L 9.078125 -20.796875 
L 9.078125 54.6875 
L 18.109375 54.6875 
L 18.109375 46.390625 
Q 20.953125 51.265625 25.265625 53.625 
Q 29.59375 56 35.59375 56 
Q 45.5625 56 51.78125 48.09375 
Q 58.015625 40.1875 58.015625 27.296875 
Q 58.015625 14.40625 51.78125 6.484375 
Q 45.5625 -1.421875 35.59375 -1.421875 
Q 29.59375 -1.421875 25.265625 0.953125 
Q 20.953125 3.328125 18.109375 8.203125 
z
M 48.6875 27.296875 
Q 48.6875 37.203125 44.609375 42.84375 
Q 40.53125 48.484375 33.40625 48.484375 
Q 26.265625 48.484375 22.1875 42.84375 
Q 18.109375 37.203125 18.109375 27.296875 
Q 18.109375 17.390625 22.1875 11.75 
Q 26.265625 6.109375 33.40625 6.109375 
Q 40.53125 6.109375 44.609375 11.75 
Q 48.6875 17.390625 48.6875 27.296875 
z
" id="DejaVuSans-112"/>
      <path d="M 56.203125 29.59375 
L 56.203125 25.203125 
L 14.890625 25.203125 
Q 15.484375 15.921875 20.484375 11.0625 
Q 25.484375 6.203125 34.421875 6.203125 
Q 39.59375 6.203125 44.453125 7.46875 
Q 49.3125 8.734375 54.109375 11.28125 
L 54.109375 2.78125 
Q 49.265625 0.734375 44.1875 -0.34375 
Q 39.109375 -1.421875 33.890625 -1.421875 
Q 20.796875 -1.421875 13.15625 6.1875 
Q 5.515625 13.8125 5.515625 26.8125 
Q 5.515625 40.234375 12.765625 48.109375 
Q 20.015625 56 32.328125 56 
Q 43.359375 56 49.78125 48.890625 
Q 56.203125 41.796875 56.203125 29.59375 
z
M 47.21875 32.234375 
Q 47.125 39.59375 43.09375 43.984375 
Q 39.0625 48.390625 32.421875 48.390625 
Q 24.90625 48.390625 20.390625 44.140625 
Q 15.875 39.890625 15.1875 32.171875 
z
" id="DejaVuSans-101"/>
      <path d="M 48.78125 52.59375 
L 48.78125 44.1875 
Q 44.96875 46.296875 41.140625 47.34375 
Q 37.3125 48.390625 33.40625 48.390625 
Q 24.65625 48.390625 19.8125 42.84375 
Q 14.984375 37.3125 14.984375 27.296875 
Q 14.984375 17.28125 19.8125 11.734375 
Q 24.65625 6.203125 33.40625 6.203125 
Q 37.3125 6.203125 41.140625 7.25 
Q 44.96875 8.296875 48.78125 10.40625 
L 48.78125 2.09375 
Q 45.015625 0.34375 40.984375 -0.53125 
Q 36.96875 -1.421875 32.421875 -1.421875 
Q 20.0625 -1.421875 12.78125 6.34375 
Q 5.515625 14.109375 5.515625 27.296875 
Q 5.515625 40.671875 12.859375 48.328125 
Q 20.21875 56 33.015625 56 
Q 37.15625 56 41.109375 55.140625 
Q 45.0625 54.296875 48.78125 52.59375 
z
" id="DejaVuSans-99"/>
      <path d="M 9.421875 54.6875 
L 18.40625 54.6875 
L 18.40625 0 
L 9.421875 0 
z
M 9.421875 75.984375 
L 18.40625 75.984375 
L 18.40625 64.59375 
L 9.421875 64.59375 
z
" id="DejaVuSans-105"/>
      <path d="M 18.3125 70.21875 
L 18.3125 54.6875 
L 36.8125 54.6875 
L 36.8125 47.703125 
L 18.3125 47.703125 
L 18.3125 18.015625 
Q 18.3125 11.328125 20.140625 9.421875 
Q 21.96875 7.515625 27.59375 7.515625 
L 36.8125 7.515625 
L 36.8125 0 
L 27.59375 0 
Q 17.1875 0 13.234375 3.875 
Q 9.28125 7.765625 9.28125 18.015625 
L 9.28125 47.703125 
L 2.6875 47.703125 
L 2.6875 54.6875 
L 9.28125 54.6875 
L 9.28125 70.21875 
z
" id="DejaVuSans-116"/>
      <path d="M 34.28125 27.484375 
Q 23.390625 27.484375 19.1875 25 
Q 14.984375 22.515625 14.984375 16.5 
Q 14.984375 11.71875 18.140625 8.90625 
Q 21.296875 6.109375 26.703125 6.109375 
Q 34.1875 6.109375 38.703125 11.40625 
Q 43.21875 16.703125 43.21875 25.484375 
L 43.21875 27.484375 
z
M 52.203125 31.203125 
L 52.203125 0 
L 43.21875 0 
L 43.21875 8.296875 
Q 40.140625 3.328125 35.546875 0.953125 
Q 30.953125 -1.421875 24.3125 -1.421875 
Q 15.921875 -1.421875 10.953125 3.296875 
Q 6 8.015625 6 15.921875 
Q 6 25.140625 12.171875 29.828125 
Q 18.359375 34.515625 30.609375 34.515625 
L 43.21875 34.515625 
L 43.21875 35.40625 
Q 43.21875 41.609375 39.140625 45 
Q 35.0625 48.390625 27.6875 48.390625 
Q 23 48.390625 18.546875 47.265625 
Q 14.109375 46.140625 10.015625 43.890625 
L 10.015625 52.203125 
Q 14.9375 54.109375 19.578125 55.046875 
Q 24.21875 56 28.609375 56 
Q 40.484375 56 46.34375 49.84375 
Q 52.203125 43.703125 52.203125 31.203125 
z
" id="DejaVuSans-97"/>
      <path d="M 54.890625 33.015625 
L 54.890625 0 
L 45.90625 0 
L 45.90625 32.71875 
Q 45.90625 40.484375 42.875 44.328125 
Q 39.84375 48.1875 33.796875 48.1875 
Q 26.515625 48.1875 22.3125 43.546875 
Q 18.109375 38.921875 18.109375 30.90625 
L 18.109375 0 
L 9.078125 0 
L 9.078125 54.6875 
L 18.109375 54.6875 
L 18.109375 46.1875 
Q 21.34375 51.125 25.703125 53.5625 
Q 30.078125 56 35.796875 56 
Q 45.21875 56 50.046875 50.171875 
Q 54.890625 44.34375 54.890625 33.015625 
z
" id="DejaVuSans-110"/>
      <path id="DejaVuSans-32"/>
      <path d="M 8.59375 75.984375 
L 29.296875 75.984375 
L 29.296875 69 
L 17.578125 69 
L 17.578125 -6.203125 
L 29.296875 -6.203125 
L 29.296875 -13.1875 
L 8.59375 -13.1875 
z
" id="DejaVuSans-91"/>
      <path d="M 52 44.1875 
Q 55.375 50.25 60.0625 53.125 
Q 64.75 56 71.09375 56 
Q 79.640625 56 84.28125 50.015625 
Q 88.921875 44.046875 88.921875 33.015625 
L 88.921875 0 
L 79.890625 0 
L 79.890625 32.71875 
Q 79.890625 40.578125 77.09375 44.375 
Q 74.3125 48.1875 68.609375 48.1875 
Q 61.625 48.1875 57.5625 43.546875 
Q 53.515625 38.921875 53.515625 30.90625 
L 53.515625 0 
L 44.484375 0 
L 44.484375 32.71875 
Q 44.484375 40.625 41.703125 44.40625 
Q 38.921875 48.1875 33.109375 48.1875 
Q 26.21875 48.1875 22.15625 43.53125 
Q 18.109375 38.875 18.109375 30.90625 
L 18.109375 0 
L 9.078125 0 
L 9.078125 54.6875 
L 18.109375 54.6875 
L 18.109375 46.1875 
Q 21.1875 51.21875 25.484375 53.609375 
Q 29.78125 56 35.6875 56 
Q 41.65625 56 45.828125 52.96875 
Q 50 49.953125 52 44.1875 
z
" id="DejaVuSans-109"/>
      <path d="M 25.390625 72.90625 
L 33.6875 72.90625 
L 8.296875 -9.28125 
L 0 -9.28125 
z
" id="DejaVuSans-47"/>
      <path d="M 30.421875 75.984375 
L 30.421875 -13.1875 
L 9.71875 -13.1875 
L 9.71875 -6.203125 
L 21.390625 -6.203125 
L 21.390625 69 
L 9.71875 69 
L 9.71875 75.984375 
z
" id="DejaVuSans-93"/>
     </defs>
     <g transform="translate(14.798438 150.335781)rotate(-90)scale(0.1 -0.1)">
      <use xlink:href="#DejaVuSans-112"/>
      <use x="63.476562" xlink:href="#DejaVuSans-114"/>
      <use x="104.558594" xlink:href="#DejaVuSans-101"/>
      <use x="166.082031" xlink:href="#DejaVuSans-99"/>
      <use x="221.0625" xlink:href="#DejaVuSans-105"/>
      <use x="248.845703" xlink:href="#DejaVuSans-112"/>
      <use x="312.322266" xlink:href="#DejaVuSans-105"/>
      <use x="340.105469" xlink:href="#DejaVuSans-116"/>
      <use x="379.314453" xlink:href="#DejaVuSans-97"/>
      <use x="440.59375" xlink:href="#DejaVuSans-116"/>
      <use x="479.802734" xlink:href="#DejaVuSans-105"/>
      <use x="507.585938" xlink:href="#DejaVuSans-111"/>
      <use x="568.767578" xlink:href="#DejaVuSans-110"/>
      <use x="632.146484" xlink:href="#DejaVuSans-32"/>
      <use x="663.933594" xlink:href="#DejaVuSans-91"/>
      <use x="702.947266" xlink:href="#DejaVuSans-109"/>
      <use x="800.359375" xlink:href="#DejaVuSans-109"/>
      <use x="897.771484" xlink:href="#DejaVuSans-47"/>
      <use x="931.462891" xlink:href="#DejaVuSans-104"/>
      <use x="994.841797" xlink:href="#DejaVuSans-111"/>
      <use x="1056.023438" xlink:href="#DejaVuSans-117"/>
      <use x="1119.402344" xlink:href="#DejaVuSans-114"/>
      <use x="1160.515625" xlink:href="#DejaVuSans-93"/>
     </g>
    </g>
   </g>
   <g id="line2d_11">
    <path clip-path="url(#p05a88fabd1)" d="M 51.99517 165.82072 
L 67.433906 165.627034 
L 82.872641 165.511779 
L 98.311376 165.344233 
L 113.750111 139.375738 
L 129.188846 125.226201 
L 144.627582 121.204983 
L 160.066317 146.824623 
L 175.505052 161.948962 
L 190.943787 164.617455 
L 206.382522 165.705219 
L 221.821257 165.642425 
L 237.259993 163.044346 
L 252.698728 162.357985 
L 268.137463 160.328656 
L 283.576198 163.124902 
L 299.014933 163.005153 
L 314.453668 158.178373 
L 329.892404 161.84197 
L 345.331139 164.829693 
L 360.769874 165.216693 
L 376.208609 165.62925 
L 391.647344 165.72655 
L 407.08608 165.933156 
" style="fill:none;stroke:#1b9e77;stroke-linecap:square;stroke-opacity:0.5;stroke-width:1.5;"/>
   </g>
   <g id="line2d_12">
    <path clip-path="url(#p05a88fabd1)" d="M 51.99517 155.58178 
L 67.433906 123.50496 
L 82.872641 110.33301 
L 98.311376 124.799862 
L 113.750111 159.661675 
L 129.188846 162.842029 
L 144.627582 164.611939 
L 160.066317 165.304255 
L 175.505052 165.150361 
L 190.943787 164.803202 
L 206.382522 164.574959 
L 221.821257 164.810856 
L 237.259993 164.982594 
L 252.698728 164.735865 
L 268.137463 165.252135 
L 283.576198 165.327006 
L 299.014933 165.294253 
L 314.453668 165.424259 
L 329.892404 165.646554 
L 345.331139 165.81886 
L 360.769874 165.880361 
L 376.208609 165.945028 
L 391.647344 165.953093 
L 407.08608 165.827203 
" style="fill:none;stroke:#1b9e77;stroke-linecap:square;stroke-opacity:0.5;stroke-width:1.5;"/>
   </g>
   <g id="line2d_13">
    <path clip-path="url(#p05a88fabd1)" d="M 51.99517 156.349432 
L 67.433906 140.61032 
L 82.872641 161.331438 
L 98.311376 164.634626 
L 113.750111 164.818261 
L 129.188846 161.49147 
L 144.627582 161.021287 
L 160.066317 165.215676 
L 175.505052 164.762401 
L 190.943787 165.040481 
L 206.382522 165.506764 
L 221.821257 165.564254 
L 237.259993 165.520841 
L 252.698728 165.613043 
L 268.137463 165.746334 
L 283.576198 165.88889 
L 299.014933 165.906678 
L 314.453668 165.862782 
L 329.892404 165.850621 
L 345.331139 164.171181 
L 360.769874 142.769167 
L 376.208609 109.505641 
L 391.647344 139.228547 
L 407.08608 159.655964 
" style="fill:none;stroke:#1b9e77;stroke-linecap:square;stroke-opacity:0.5;stroke-width:1.5;"/>
   </g>
   <g id="line2d_14">
    <path clip-path="url(#p05a88fabd1)" d="M 51.99517 165.947453 
L 67.433906 165.927625 
L 82.872641 165.935689 
L 98.311376 165.95651 
L 113.750111 165.959619 
L 129.188846 165.920109 
L 144.627582 164.486693 
L 160.066317 162.888025 
L 175.505052 162.231497 
L 190.943787 163.61548 
L 206.382522 165.709169 
L 221.821257 165.608197 
L 237.259993 155.741114 
L 252.698728 156.646251 
L 268.137463 159.037385 
L 283.576198 119.894742 
L 299.014933 127.296054 
L 314.453668 158.197113 
L 329.892404 161.89979 
L 345.331139 151.835344 
L 360.769874 153.151671 
L 376.208609 163.08279 
L 391.647344 160.269522 
L 407.08608 164.828256 
" style="fill:none;stroke:#1b9e77;stroke-linecap:square;stroke-opacity:0.5;stroke-width:1.5;"/>
   </g>
   <g id="line2d_15">
    <path clip-path="url(#p05a88fabd1)" d="M 51.99517 164.910122 
L 67.433906 155.464856 
L 82.872641 136.154292 
L 98.311376 140.94991 
L 113.750111 162.784145 
L 129.188846 164.360945 
L 144.627582 165.091726 
L 160.066317 165.436031 
L 175.505052 165.371709 
L 190.943787 165.478127 
L 206.382522 165.598866 
L 221.821257 165.748339 
L 237.259993 165.789391 
L 252.698728 165.859985 
L 268.137463 165.215222 
L 283.576198 97.674435 
L 299.014933 158.068014 
L 314.453668 159.41588 
L 329.892404 164.739534 
L 345.331139 165.411391 
L 360.769874 165.054168 
L 376.208609 164.09952 
L 391.647344 161.130628 
L 407.08608 162.258866 
" style="fill:none;stroke:#1b9e77;stroke-linecap:square;stroke-opacity:0.5;stroke-width:1.5;"/>
   </g>
   <g id="line2d_16">
    <path clip-path="url(#p05a88fabd1)" d="M 51.99517 164.295611 
L 67.433906 165.233582 
L 82.872641 165.224569 
L 98.311376 164.834095 
L 113.750111 162.307659 
L 129.188846 155.038761 
L 144.627582 155.111736 
L 160.066317 161.923183 
L 175.505052 141.778906 
L 190.943787 127.335123 
L 206.382522 163.490716 
L 221.821257 163.846711 
L 237.259993 155.960419 
L 252.698728 154.811915 
L 268.137463 163.299052 
L 283.576198 163.152346 
L 299.014933 159.223118 
L 314.453668 147.485635 
L 329.892404 162.675593 
L 345.331139 164.074052 
L 360.769874 163.416111 
L 376.208609 164.130206 
L 391.647344 163.695816 
L 407.08608 159.721183 
" style="fill:none;stroke:#1b9e77;stroke-linecap:square;stroke-opacity:0.5;stroke-width:1.5;"/>
   </g>
   <g id="line2d_17">
    <path clip-path="url(#p05a88fabd1)" d="M 51.99517 165.854357 
L 67.433906 165.942837 
L 82.872641 165.552426 
L 98.311376 165.473542 
L 113.750111 161.009119 
L 129.188846 90.272285 
L 144.627582 154.646149 
L 160.066317 155.804307 
L 175.505052 158.948862 
L 190.943787 156.955329 
L 206.382522 151.177907 
L 221.821257 158.008676 
L 237.259993 156.507269 
L 252.698728 150.625744 
L 268.137463 163.841806 
L 283.576198 164.792507 
L 299.014933 165.650988 
L 314.453668 165.662468 
L 329.892404 165.783751 
L 345.331139 165.86821 
L 360.769874 165.893898 
L 376.208609 165.945279 
L 391.647344 165.954815 
L 407.08608 165.893569 
" style="fill:none;stroke:#1b9e77;stroke-linecap:square;stroke-opacity:0.5;stroke-width:1.5;"/>
   </g>
   <g id="line2d_18">
    <path clip-path="url(#p05a88fabd1)" d="M 51.99517 165.846843 
L 67.433906 165.948115 
L 82.872641 165.877406 
L 98.311376 165.846063 
L 113.750111 164.359518 
L 129.188846 164.875399 
L 144.627582 165.924247 
L 160.066317 165.91381 
L 175.505052 165.842831 
L 190.943787 165.401287 
L 206.382522 159.832441 
L 221.821257 160.813758 
L 237.259993 165.215531 
L 252.698728 164.493616 
L 268.137463 162.792196 
L 283.576198 162.19842 
L 299.014933 97.760969 
L 314.453668 133.051012 
L 329.892404 157.698978 
L 345.331139 147.477218 
L 360.769874 152.463014 
L 376.208609 161.703706 
L 391.647344 165.009032 
L 407.08608 165.720688 
" style="fill:none;stroke:#1b9e77;stroke-linecap:square;stroke-opacity:0.5;stroke-width:1.5;"/>
   </g>
   <g id="line2d_19">
    <path clip-path="url(#p05a88fabd1)" d="M 51.99517 165.765228 
L 67.433906 165.937748 
L 82.872641 165.943565 
L 98.311376 165.89966 
L 113.750111 165.504684 
L 129.188846 165.171645 
L 144.627582 165.874846 
L 160.066317 165.379975 
L 175.505052 160.821511 
L 190.943787 164.029759 
L 206.382522 129.093781 
L 221.821257 97.77606 
L 237.259993 162.395942 
L 252.698728 157.023964 
L 268.137463 135.041199 
L 283.576198 154.201327 
L 299.014933 165.749446 
L 314.453668 165.935273 
L 329.892404 165.912869 
L 345.331139 165.915322 
L 360.769874 165.57207 
L 376.208609 165.92792 
L 391.647344 165.946057 
L 407.08608 165.246243 
" style="fill:none;stroke:#1b9e77;stroke-linecap:square;stroke-opacity:0.5;stroke-width:1.5;"/>
   </g>
   <g id="line2d_20">
    <path clip-path="url(#p05a88fabd1)" d="M 51.99517 136.967717 
L 67.433906 76.906895 
L 82.872641 142.739349 
L 98.311376 157.348001 
L 113.750111 160.206024 
L 129.188846 160.041107 
L 144.627582 164.413298 
L 160.066317 165.193588 
L 175.505052 165.092866 
L 190.943787 165.538172 
L 206.382522 165.813533 
L 221.821257 165.916024 
L 237.259993 165.933037 
L 252.698728 165.936885 
L 268.137463 165.932235 
L 283.576198 165.944302 
L 299.014933 165.949298 
L 314.453668 165.942427 
L 329.892404 165.928028 
L 345.331139 165.896487 
L 360.769874 165.810039 
L 376.208609 165.402598 
L 391.647344 164.764067 
L 407.08608 162.450128 
" style="fill:none;stroke:#1b9e77;stroke-linecap:square;stroke-opacity:0.5;stroke-width:1.5;"/>
   </g>
   <g id="line2d_21">
    <path clip-path="url(#p05a88fabd1)" d="M 51.99517 165.832993 
L 67.433906 165.686866 
L 82.872641 165.769576 
L 98.311376 165.887513 
L 113.750111 165.917032 
L 129.188846 165.944738 
L 144.627582 165.938017 
L 160.066317 165.469222 
L 175.505052 153.722638 
L 190.943787 137.7715 
L 206.382522 117.35397 
L 221.821257 135.416222 
L 237.259993 153.813276 
L 252.698728 156.811192 
L 268.137463 157.528976 
L 283.576198 160.155159 
L 299.014933 163.344524 
L 314.453668 160.84427 
L 329.892404 163.685752 
L 345.331139 165.390231 
L 360.769874 164.917885 
L 376.208609 164.637302 
L 391.647344 164.786507 
L 407.08608 165.440741 
" style="fill:none;stroke:#1b9e77;stroke-linecap:square;stroke-opacity:0.5;stroke-width:1.5;"/>
   </g>
   <g id="line2d_22">
    <path clip-path="url(#p05a88fabd1)" d="M 51.99517 163.278359 
L 67.433906 162.382324 
L 82.872641 156.740557 
L 98.311376 156.585238 
L 113.750111 154.539315 
L 129.188846 159.535716 
L 144.627582 157.019098 
L 160.066317 157.799084 
L 175.505052 159.915273 
L 190.943787 161.992517 
L 206.382522 156.000664 
L 221.821257 155.614969 
L 237.259993 162.245377 
L 252.698728 164.459801 
L 268.137463 161.390689 
L 283.576198 151.933834 
L 299.014933 136.747682 
L 314.453668 144.64637 
L 329.892404 160.639066 
L 345.331139 165.370839 
L 360.769874 165.721258 
L 376.208609 165.77656 
L 391.647344 165.796571 
L 407.08608 165.934933 
" style="fill:none;stroke:#1b9e77;stroke-linecap:square;stroke-opacity:0.5;stroke-width:1.5;"/>
   </g>
   <g id="line2d_23">
    <path clip-path="url(#p05a88fabd1)" d="M 51.99517 165.182469 
L 67.433906 164.582157 
L 82.872641 164.797865 
L 98.311376 165.478139 
L 113.750111 165.664639 
L 129.188846 165.827918 
L 144.627582 165.880603 
L 160.066317 165.866936 
L 175.505052 165.809962 
L 190.943787 165.768368 
L 206.382522 165.773925 
L 221.821257 165.675411 
L 237.259993 165.544649 
L 252.698728 165.507094 
L 268.137463 165.563523 
L 283.576198 165.706074 
L 299.014933 165.73139 
L 314.453668 165.740407 
L 329.892404 164.857588 
L 345.331139 159.499306 
L 360.769874 154.87751 
L 376.208609 132.89187 
L 391.647344 97.625826 
L 407.08608 122.212464 
" style="fill:none;stroke:#1b9e77;stroke-linecap:square;stroke-opacity:0.5;stroke-width:1.5;"/>
   </g>
   <g id="line2d_24">
    <path clip-path="url(#p05a88fabd1)" d="M 51.99517 165.928833 
L 67.433906 165.873062 
L 82.872641 165.859061 
L 98.311376 165.731599 
L 113.750111 165.78463 
L 129.188846 165.784159 
L 144.627582 165.655105 
L 160.066317 165.616229 
L 175.505052 165.177121 
L 190.943787 127.192142 
L 206.382522 127.01665 
L 221.821257 160.584649 
L 237.259993 139.182411 
L 252.698728 135.344432 
L 268.137463 141.864341 
L 283.576198 163.554285 
L 299.014933 165.89663 
L 314.453668 165.861478 
L 329.892404 165.874974 
L 345.331139 165.941364 
L 360.769874 165.925296 
L 376.208609 165.898761 
L 391.647344 164.848182 
L 407.08608 165.670706 
" style="fill:none;stroke:#1b9e77;stroke-linecap:square;stroke-opacity:0.5;stroke-width:1.5;"/>
   </g>
   <g id="line2d_25">
    <path clip-path="url(#p05a88fabd1)" d="M 51.99517 159.310676 
L 67.433906 155.901405 
L 82.872641 156.578601 
L 98.311376 158.535158 
L 113.750111 159.139634 
L 129.188846 160.909344 
L 144.627582 162.604502 
L 160.066317 162.862073 
L 175.505052 160.974076 
L 190.943787 160.041723 
L 206.382522 159.49651 
L 221.821257 161.135627 
L 237.259993 161.930665 
L 252.698728 156.042785 
L 268.137463 150.566549 
L 283.576198 152.573655 
L 299.014933 158.311064 
L 314.453668 160.509543 
L 329.892404 161.98806 
L 345.331139 162.53902 
L 360.769874 163.023968 
L 376.208609 165.584414 
L 391.647344 165.845356 
L 407.08608 135.661692 
" style="fill:none;stroke:#1b9e77;stroke-linecap:square;stroke-opacity:0.5;stroke-width:1.5;"/>
   </g>
   <g id="line2d_26">
    <path clip-path="url(#p05a88fabd1)" d="M 51.99517 165.85871 
L 67.433906 165.94744 
L 82.872641 165.737287 
L 98.311376 165.632934 
L 113.750111 165.372776 
L 129.188846 155.959373 
L 144.627582 127.697797 
L 160.066317 164.920414 
L 175.505052 165.442913 
L 190.943787 165.389574 
L 206.382522 164.692628 
L 221.821257 128.165906 
L 237.259993 155.400289 
L 252.698728 155.480019 
L 268.137463 159.782952 
L 283.576198 160.463237 
L 299.014933 162.669514 
L 314.453668 164.366747 
L 329.892404 164.943332 
L 345.331139 163.901086 
L 360.769874 156.017376 
L 376.208609 151.820851 
L 391.647344 153.721063 
L 407.08608 162.68188 
" style="fill:none;stroke:#1b9e77;stroke-linecap:square;stroke-opacity:0.5;stroke-width:1.5;"/>
   </g>
   <g id="line2d_27">
    <path clip-path="url(#p05a88fabd1)" d="M 51.99517 164.702913 
L 67.433906 164.515792 
L 82.872641 163.714745 
L 98.311376 154.256097 
L 113.750111 151.488511 
L 129.188846 145.523891 
L 144.627582 145.311074 
L 160.066317 137.6645 
L 175.505052 161.321477 
L 190.943787 165.639905 
L 206.382522 165.546554 
L 221.821257 165.074913 
L 237.259993 164.361502 
L 252.698728 162.663231 
L 268.137463 160.611705 
L 283.576198 164.775554 
L 299.014933 139.409461 
L 314.453668 154.524007 
L 329.892404 164.984431 
L 345.331139 155.328624 
L 360.769874 165.336638 
L 376.208609 165.168634 
L 391.647344 165.486027 
L 407.08608 164.655914 
" style="fill:none;stroke:#1b9e77;stroke-linecap:square;stroke-opacity:0.5;stroke-width:1.5;"/>
   </g>
   <g id="line2d_28">
    <path clip-path="url(#p05a88fabd1)" d="M 51.99517 165.922752 
L 67.433906 165.855764 
L 82.872641 165.916855 
L 98.311376 165.944149 
L 113.750111 165.952642 
L 129.188846 165.953226 
L 144.627582 165.946713 
L 160.066317 165.950371 
L 175.505052 165.75852 
L 190.943787 165.177993 
L 206.382522 164.378601 
L 221.821257 161.47293 
L 237.259993 14.76 
L 252.698728 161.727544 
L 268.137463 165.784993 
L 283.576198 165.820281 
L 299.014933 165.203054 
L 314.453668 160.888933 
L 329.892404 165.311763 
L 345.331139 165.623343 
L 360.769874 165.767389 
L 376.208609 165.548644 
L 391.647344 165.515874 
L 407.08608 165.883771 
" style="fill:none;stroke:#1b9e77;stroke-linecap:square;stroke-opacity:0.5;stroke-width:1.5;"/>
   </g>
   <g id="line2d_29">
    <path clip-path="url(#p05a88fabd1)" d="M 51.99517 165.909908 
L 67.433906 165.805605 
L 82.872641 165.828143 
L 98.311376 165.903119 
L 113.750111 165.932271 
L 129.188846 165.953209 
L 144.627582 165.954807 
L 160.066317 165.953176 
L 175.505052 165.927178 
L 190.943787 165.206979 
L 206.382522 155.763625 
L 221.821257 144.032334 
L 237.259993 128.942491 
L 252.698728 157.087469 
L 268.137463 145.943532 
L 283.576198 159.175869 
L 299.014933 164.61905 
L 314.453668 162.307043 
L 329.892404 157.613832 
L 345.331139 154.059473 
L 360.769874 136.468363 
L 376.208609 161.20058 
L 391.647344 161.006128 
L 407.08608 165.471913 
" style="fill:none;stroke:#1b9e77;stroke-linecap:square;stroke-opacity:0.5;stroke-width:1.5;"/>
   </g>
   <g id="line2d_30">
    <path clip-path="url(#p05a88fabd1)" d="M 51.99517 165.845429 
L 67.433906 165.231157 
L 82.872641 165.306292 
L 98.311376 165.538558 
L 113.750111 165.57663 
L 129.188846 165.789242 
L 144.627582 165.893625 
L 160.066317 165.931831 
L 175.505052 165.920656 
L 190.943787 165.927519 
L 206.382522 165.195178 
L 221.821257 112.471735 
L 237.259993 144.180202 
L 252.698728 142.126718 
L 268.137463 145.755755 
L 283.576198 160.503171 
L 299.014933 164.431387 
L 314.453668 165.482316 
L 329.892404 165.894174 
L 345.331139 164.203138 
L 360.769874 158.678986 
L 376.208609 144.845221 
L 391.647344 157.031212 
L 407.08608 164.305966 
" style="fill:none;stroke:#1b9e77;stroke-linecap:square;stroke-opacity:0.5;stroke-width:1.5;"/>
   </g>
   <g id="line2d_31">
    <path clip-path="url(#p05a88fabd1)" d="M 51.99517 165.864192 
L 67.433906 162.437974 
L 82.872641 157.030333 
L 98.311376 63.289604 
L 113.750111 164.445327 
L 129.188846 165.466955 
L 144.627582 165.652933 
L 160.066317 165.813309 
L 175.505052 165.84882 
L 190.943787 165.846366 
L 206.382522 165.843318 
L 221.821257 165.900962 
L 237.259993 165.930363 
L 252.698728 165.859924 
L 268.137463 165.404227 
L 283.576198 162.727945 
L 299.014933 159.666406 
L 314.453668 158.935633 
L 329.892404 156.599723 
L 345.331139 144.391908 
L 360.769874 162.342937 
L 376.208609 165.440783 
L 391.647344 165.45468 
L 407.08608 165.87147 
" style="fill:none;stroke:#1b9e77;stroke-linecap:square;stroke-opacity:0.5;stroke-width:1.5;"/>
   </g>
   <g id="line2d_32">
    <path clip-path="url(#p05a88fabd1)" d="M 51.99517 165.369775 
L 67.433906 163.778177 
L 82.872641 164.161076 
L 98.311376 164.851065 
L 113.750111 164.630995 
L 129.188846 164.88043 
L 144.627582 162.445121 
L 160.066317 109.707381 
L 175.505052 122.920638 
L 190.943787 148.18037 
L 206.382522 145.605327 
L 221.821257 163.442732 
L 237.259993 162.676437 
L 252.698728 160.222117 
L 268.137463 163.418743 
L 283.576198 164.892092 
L 299.014933 164.015993 
L 314.453668 164.58724 
L 329.892404 165.170319 
L 345.331139 165.819136 
L 360.769874 165.770468 
L 376.208609 164.38307 
L 391.647344 165.316465 
L 407.08608 165.820928 
" style="fill:none;stroke:#1b9e77;stroke-linecap:square;stroke-opacity:0.5;stroke-width:1.5;"/>
   </g>
   <g id="line2d_33">
    <path clip-path="url(#p05a88fabd1)" d="M 51.99517 165.507372 
L 67.433906 164.548197 
L 82.872641 160.802508 
L 98.311376 159.543163 
L 113.750111 164.919528 
L 129.188846 165.088083 
L 144.627582 164.060437 
L 160.066317 155.143033 
L 175.505052 151.00601 
L 190.943787 154.328581 
L 206.382522 145.839976 
L 221.821257 146.125795 
L 237.259993 164.40114 
L 252.698728 164.508753 
L 268.137463 163.23564 
L 283.576198 159.894033 
L 299.014933 120.529163 
L 314.453668 153.828506 
L 329.892404 164.095286 
L 345.331139 165.619141 
L 360.769874 165.311983 
L 376.208609 165.338608 
L 391.647344 165.398475 
L 407.08608 162.992688 
" style="fill:none;stroke:#1b9e77;stroke-linecap:square;stroke-opacity:0.5;stroke-width:1.5;"/>
   </g>
   <g id="line2d_34">
    <path clip-path="url(#p05a88fabd1)" d="M 51.99517 153.658955 
L 67.433906 132.868134 
L 82.872641 137.456622 
L 98.311376 156.40125 
L 113.750111 162.041397 
L 129.188846 163.839683 
L 144.627582 163.914193 
L 160.066317 163.424635 
L 175.505052 162.443735 
L 190.943787 163.970272 
L 206.382522 164.990751 
L 221.821257 164.968061 
L 237.259993 164.412198 
L 252.698728 164.850625 
L 268.137463 165.49547 
L 283.576198 165.728382 
L 299.014933 165.756715 
L 314.453668 165.714756 
L 329.892404 165.629862 
L 345.331139 165.742356 
L 360.769874 165.607844 
L 376.208609 164.294946 
L 391.647344 155.577225 
L 407.08608 113.278031 
" style="fill:none;stroke:#1b9e77;stroke-linecap:square;stroke-opacity:0.5;stroke-width:1.5;"/>
   </g>
   <g id="line2d_35">
    <path clip-path="url(#p05a88fabd1)" d="M 51.99517 163.999172 
L 67.433906 142.367195 
L 82.872641 111.909503 
L 98.311376 123.117306 
L 113.750111 161.414563 
L 129.188846 165.286555 
L 144.627582 165.64229 
L 160.066317 165.797071 
L 175.505052 165.807742 
L 190.943787 165.799286 
L 206.382522 165.735494 
L 221.821257 165.843113 
L 237.259993 165.813504 
L 252.698728 157.430759 
L 268.137463 156.975983 
L 283.576198 156.700299 
L 299.014933 161.917885 
L 314.453668 162.256145 
L 329.892404 165.281338 
L 345.331139 165.806814 
L 360.769874 165.623229 
L 376.208609 164.120553 
L 391.647344 162.189086 
L 407.08608 165.231218 
" style="fill:none;stroke:#1b9e77;stroke-linecap:square;stroke-opacity:0.5;stroke-width:1.5;"/>
   </g>
   <g id="line2d_36">
    <path clip-path="url(#p05a88fabd1)" d="M 51.99517 164.192318 
L 67.433906 163.442875 
L 82.872641 164.294078 
L 98.311376 165.311185 
L 113.750111 165.561907 
L 129.188846 165.740428 
L 144.627582 165.751032 
L 160.066317 165.861199 
L 175.505052 159.954686 
L 190.943787 147.136457 
L 206.382522 164.355159 
L 221.821257 165.789374 
L 237.259993 165.38261 
L 252.698728 165.486099 
L 268.137463 165.699454 
L 283.576198 165.473328 
L 299.014933 163.946291 
L 314.453668 164.053574 
L 329.892404 164.789918 
L 345.331139 143.523681 
L 360.769874 102.344214 
L 376.208609 162.621134 
L 391.647344 159.49711 
L 407.08608 131.857984 
" style="fill:none;stroke:#1b9e77;stroke-linecap:square;stroke-opacity:0.5;stroke-width:1.5;"/>
   </g>
   <g id="line2d_37">
    <path clip-path="url(#p05a88fabd1)" d="M 51.99517 165.857063 
L 67.433906 165.670676 
L 82.872641 165.760792 
L 98.311376 165.814819 
L 113.750111 165.814315 
L 129.188846 165.848275 
L 144.627582 165.890181 
L 160.066317 165.937011 
L 175.505052 165.947565 
L 190.943787 165.950499 
L 206.382522 165.931175 
L 221.821257 165.850272 
L 237.259993 158.626839 
L 252.698728 149.761092 
L 268.137463 138.225292 
L 283.576198 133.376521 
L 299.014933 127.839888 
L 314.453668 150.31794 
L 329.892404 157.120254 
L 345.331139 148.232159 
L 360.769874 165.493767 
L 376.208609 163.543731 
L 391.647344 164.347881 
L 407.08608 164.908092 
" style="fill:none;stroke:#1b9e77;stroke-linecap:square;stroke-opacity:0.5;stroke-width:1.5;"/>
   </g>
   <g id="line2d_38">
    <path clip-path="url(#p05a88fabd1)" d="M 51.99517 165.661866 
L 67.433906 165.512457 
L 82.872641 165.598275 
L 98.311376 165.837787 
L 113.750111 165.909437 
L 129.188846 165.92743 
L 144.627582 165.920738 
L 160.066317 165.927631 
L 175.505052 165.927751 
L 190.943787 165.931741 
L 206.382522 164.630754 
L 221.821257 158.096513 
L 237.259993 163.191296 
L 252.698728 163.296285 
L 268.137463 113.236227 
L 283.576198 113.579627 
L 299.014933 164.199545 
L 314.453668 163.944552 
L 329.892404 159.525169 
L 345.331139 160.84592 
L 360.769874 140.540632 
L 376.208609 164.088906 
L 391.647344 159.517369 
L 407.08608 165.218188 
" style="fill:none;stroke:#1b9e77;stroke-linecap:square;stroke-opacity:0.5;stroke-width:1.5;"/>
   </g>
   <g id="line2d_39">
    <path clip-path="url(#p05a88fabd1)" d="M 51.99517 165.926176 
L 67.433906 165.846146 
L 82.872641 165.900927 
L 98.311376 165.94394 
L 113.750111 165.953174 
L 129.188846 165.958152 
L 144.627582 165.950491 
L 160.066317 165.825213 
L 175.505052 164.250628 
L 190.943787 163.676718 
L 206.382522 162.432207 
L 221.821257 159.770869 
L 237.259993 127.531178 
L 252.698728 164.038842 
L 268.137463 165.478666 
L 283.576198 165.451419 
L 299.014933 164.814359 
L 314.453668 153.145132 
L 329.892404 153.722509 
L 345.331139 147.322719 
L 360.769874 119.16367 
L 376.208609 145.19609 
L 391.647344 163.1415 
L 407.08608 165.625372 
" style="fill:none;stroke:#1b9e77;stroke-linecap:square;stroke-opacity:0.5;stroke-width:1.5;"/>
   </g>
   <g id="line2d_40">
    <path clip-path="url(#p05a88fabd1)" d="M 51.99517 165.881984 
L 67.433906 165.784845 
L 82.872641 165.832728 
L 98.311376 165.91425 
L 113.750111 165.937633 
L 129.188846 165.946344 
L 144.627582 165.943981 
L 160.066317 165.941894 
L 175.505052 165.940627 
L 190.943787 165.948103 
L 206.382522 165.951401 
L 221.821257 165.949542 
L 237.259993 165.944044 
L 252.698728 165.952833 
L 268.137463 165.9096 
L 283.576198 163.333957 
L 299.014933 159.580747 
L 314.453668 149.887014 
L 329.892404 141.348275 
L 345.331139 151.347486 
L 360.769874 137.865258 
L 376.208609 124.657588 
L 391.647344 130.549632 
L 407.08608 164.716327 
" style="fill:none;stroke:#1b9e77;stroke-linecap:square;stroke-opacity:0.5;stroke-width:1.5;"/>
   </g>
   <g id="line2d_41">
    <path clip-path="url(#p05a88fabd1)" d="M 51.99517 165.211796 
L 67.433906 165.830989 
L 82.872641 165.918117 
L 98.311376 165.88491 
L 113.750111 160.893932 
L 129.188846 46.937273 
L 144.627582 141.098602 
L 160.066317 159.967918 
L 175.505052 162.760364 
L 190.943787 161.972211 
L 206.382522 164.151789 
L 221.821257 164.696783 
L 237.259993 165.208651 
L 252.698728 165.517238 
L 268.137463 165.660344 
L 283.576198 165.776796 
L 299.014933 165.806525 
L 314.453668 165.877095 
L 329.892404 165.911663 
L 345.331139 165.934864 
L 360.769874 165.880738 
L 376.208609 165.664798 
L 391.647344 165.006495 
L 407.08608 164.496204 
" style="fill:none;stroke:#1b9e77;stroke-linecap:square;stroke-opacity:0.5;stroke-width:1.5;"/>
   </g>
   <g id="line2d_42">
    <path clip-path="url(#p05a88fabd1)" d="M 51.99517 134.389871 
L 67.433906 133.442175 
L 82.872641 145.235193 
L 98.311376 159.159883 
L 113.750111 162.297831 
L 129.188846 164.264227 
L 144.627582 164.895846 
L 160.066317 165.290515 
L 175.505052 165.411783 
L 190.943787 165.608292 
L 206.382522 165.485979 
L 221.821257 162.331883 
L 237.259993 162.196967 
L 252.698728 165.243755 
L 268.137463 164.35171 
L 283.576198 162.845206 
L 299.014933 162.697689 
L 314.453668 160.727421 
L 329.892404 158.724084 
L 345.331139 158.222833 
L 360.769874 159.220264 
L 376.208609 164.778381 
L 391.647344 165.569732 
L 407.08608 139.674582 
" style="fill:none;stroke:#1b9e77;stroke-linecap:square;stroke-opacity:0.5;stroke-width:1.5;"/>
   </g>
   <g id="line2d_43">
    <path clip-path="url(#p05a88fabd1)" d="M 51.99517 165.791424 
L 67.433906 165.478789 
L 82.872641 165.538937 
L 98.311376 165.791621 
L 113.750111 165.888284 
L 129.188846 165.932744 
L 144.627582 165.937343 
L 160.066317 165.944818 
L 175.505052 165.922565 
L 190.943787 164.140024 
L 206.382522 147.64269 
L 221.821257 148.660729 
L 237.259993 165.327247 
L 252.698728 164.410268 
L 268.137463 156.432492 
L 283.576198 117.279331 
L 299.014933 140.761919 
L 314.453668 165.451761 
L 329.892404 165.509459 
L 345.331139 165.276912 
L 360.769874 152.503374 
L 376.208609 149.236792 
L 391.647344 153.055712 
L 407.08608 164.150862 
" style="fill:none;stroke:#1b9e77;stroke-linecap:square;stroke-opacity:0.5;stroke-width:1.5;"/>
   </g>
   <g id="line2d_44">
    <path clip-path="url(#p05a88fabd1)" d="M 51.99517 165.731985 
L 67.433906 165.703643 
L 82.872641 161.016184 
L 98.311376 165.482147 
L 113.750111 165.014948 
L 129.188846 163.705391 
L 144.627582 164.794606 
L 160.066317 165.258663 
L 175.505052 165.211335 
L 190.943787 165.489866 
L 206.382522 165.320924 
L 221.821257 117.648143 
L 237.259993 158.162398 
L 252.698728 137.337518 
L 268.137463 97.108715 
L 283.576198 163.919231 
L 299.014933 165.75885 
L 314.453668 165.923002 
L 329.892404 165.943671 
L 345.331139 165.927514 
L 360.769874 165.846574 
L 376.208609 165.804339 
L 391.647344 165.2083 
L 407.08608 164.748145 
" style="fill:none;stroke:#1b9e77;stroke-linecap:square;stroke-opacity:0.5;stroke-width:1.5;"/>
   </g>
   <g id="line2d_45">
    <path clip-path="url(#p05a88fabd1)" d="M 51.99517 165.786654 
L 67.433906 165.911595 
L 82.872641 165.88489 
L 98.311376 164.068811 
L 113.750111 158.817591 
L 129.188846 129.310229 
L 144.627582 132.172844 
L 160.066317 134.608404 
L 175.505052 164.139467 
L 190.943787 165.55563 
L 206.382522 165.10652 
L 221.821257 143.173189 
L 237.259993 165.282917 
L 252.698728 162.006615 
L 268.137463 148.428448 
L 283.576198 162.899093 
L 299.014933 161.180289 
L 314.453668 163.720418 
L 329.892404 164.72192 
L 345.331139 165.914707 
L 360.769874 165.871855 
L 376.208609 165.924512 
L 391.647344 165.93077 
L 407.08608 165.648727 
" style="fill:none;stroke:#1b9e77;stroke-linecap:square;stroke-opacity:0.5;stroke-width:1.5;"/>
   </g>
   <g id="line2d_46">
    <path clip-path="url(#p05a88fabd1)" d="M 51.99517 162.153974 
L 67.433906 163.189465 
L 82.872641 157.872856 
L 98.311376 161.169912 
L 113.750111 106.217683 
L 129.188846 150.21123 
L 144.627582 161.101291 
L 160.066317 147.542901 
L 175.505052 159.9147 
L 190.943787 137.692856 
L 206.382522 158.435866 
L 221.821257 162.335649 
L 237.259993 163.551828 
L 252.698728 164.394945 
L 268.137463 165.07459 
L 283.576198 165.496005 
L 299.014933 165.649325 
L 314.453668 165.692197 
L 329.892404 165.706822 
L 345.331139 165.84054 
L 360.769874 165.921679 
L 376.208609 165.956158 
L 391.647344 165.944172 
L 407.08608 164.999459 
" style="fill:none;stroke:#1b9e77;stroke-linecap:square;stroke-opacity:0.5;stroke-width:1.5;"/>
   </g>
   <g id="line2d_47">
    <path clip-path="url(#p05a88fabd1)" d="M 51.99517 160.676152 
L 67.433906 164.462916 
L 82.872641 165.541546 
L 98.311376 165.645884 
L 113.750111 165.581121 
L 129.188846 165.595582 
L 144.627582 164.700022 
L 160.066317 140.005958 
L 175.505052 104.520855 
L 190.943787 119.271213 
L 206.382522 156.537974 
L 221.821257 164.516229 
L 237.259993 165.378446 
L 252.698728 153.87264 
L 268.137463 165.067972 
L 283.576198 164.945159 
L 299.014933 165.246566 
L 314.453668 165.375735 
L 329.892404 165.672543 
L 345.331139 165.824924 
L 360.769874 165.859282 
L 376.208609 165.941828 
L 391.647344 165.956298 
L 407.08608 165.869255 
" style="fill:none;stroke:#1b9e77;stroke-linecap:square;stroke-opacity:0.5;stroke-width:1.5;"/>
   </g>
   <g id="line2d_48">
    <path clip-path="url(#p05a88fabd1)" d="M 51.99517 165.543156 
L 67.433906 165.872474 
L 82.872641 165.874717 
L 98.311376 165.791274 
L 113.750111 165.707314 
L 129.188846 165.79787 
L 144.627582 165.88593 
L 160.066317 165.315669 
L 175.505052 165.814225 
L 190.943787 165.835352 
L 206.382522 160.457312 
L 221.821257 158.745644 
L 237.259993 164.966561 
L 252.698728 142.960694 
L 268.137463 120.969258 
L 283.576198 164.490597 
L 299.014933 162.306878 
L 314.453668 107.912494 
L 329.892404 160.436018 
L 345.331139 165.230099 
L 360.769874 164.648577 
L 376.208609 162.60879 
L 391.647344 156.19642 
L 407.08608 162.69878 
" style="fill:none;stroke:#1b9e77;stroke-linecap:square;stroke-opacity:0.5;stroke-width:1.5;"/>
   </g>
   <g id="line2d_49">
    <path clip-path="url(#p05a88fabd1)" d="M 51.99517 165.0107 
L 67.433906 162.914725 
L 82.872641 162.059027 
L 98.311376 162.793755 
L 113.750111 164.10614 
L 129.188846 164.834778 
L 144.627582 165.224285 
L 160.066317 165.448426 
L 175.505052 165.471083 
L 190.943787 165.568091 
L 206.382522 165.360074 
L 221.821257 165.610646 
L 237.259993 158.042755 
L 252.698728 149.1362 
L 268.137463 96.490373 
L 283.576198 119.211771 
L 299.014933 162.720335 
L 314.453668 165.675625 
L 329.892404 165.881943 
L 345.331139 165.800103 
L 360.769874 165.553295 
L 376.208609 165.457838 
L 391.647344 163.337724 
L 407.08608 160.356405 
" style="fill:none;stroke:#1b9e77;stroke-linecap:square;stroke-opacity:0.5;stroke-width:1.5;"/>
   </g>
   <g id="line2d_50">
    <path clip-path="url(#p05a88fabd1)" d="M 51.99517 135.386043 
L 67.433906 132.540438 
L 82.872641 140.058237 
L 98.311376 155.477502 
L 113.750111 159.930974 
L 129.188846 163.159983 
L 144.627582 164.289242 
L 160.066317 165.189676 
L 175.505052 165.508834 
L 190.943787 165.668981 
L 206.382522 165.645317 
L 221.821257 165.078707 
L 237.259993 163.769775 
L 252.698728 163.144517 
L 268.137463 164.366663 
L 283.576198 164.930545 
L 299.014933 164.928443 
L 314.453668 164.685361 
L 329.892404 164.589462 
L 345.331139 165.34245 
L 360.769874 165.651328 
L 376.208609 165.801161 
L 391.647344 165.339472 
L 407.08608 121.582987 
" style="fill:none;stroke:#1b9e77;stroke-linecap:square;stroke-opacity:0.5;stroke-width:1.5;"/>
   </g>
   <g id="line2d_51">
    <path clip-path="url(#p05a88fabd1)" d="M 51.99517 165.874088 
L 67.433906 165.63614 
L 82.872641 165.680266 
L 98.311376 165.814313 
L 113.750111 165.862834 
L 129.188846 165.907154 
L 144.627582 165.922429 
L 160.066317 165.941819 
L 175.505052 165.946235 
L 190.943787 165.948841 
L 206.382522 164.980929 
L 221.821257 138.366701 
L 237.259993 155.653858 
L 252.698728 164.919264 
L 268.137463 154.761362 
L 283.576198 134.113395 
L 299.014933 157.299063 
L 314.453668 153.573881 
L 329.892404 162.330653 
L 345.331139 155.260974 
L 360.769874 133.932535 
L 376.208609 154.943856 
L 391.647344 158.805327 
L 407.08608 164.590183 
" style="fill:none;stroke:#1b9e77;stroke-linecap:square;stroke-opacity:0.5;stroke-width:1.5;"/>
   </g>
   <g id="line2d_52">
    <path clip-path="url(#p05a88fabd1)" d="M 51.99517 165.893919 
L 67.433906 165.83335 
L 82.872641 165.875153 
L 98.311376 165.930515 
L 113.750111 165.941409 
L 129.188846 165.950286 
L 144.627582 165.9326 
L 160.066317 165.703206 
L 175.505052 163.639197 
L 190.943787 148.668245 
L 206.382522 120.016329 
L 221.821257 130.278371 
L 237.259993 124.25897 
L 252.698728 156.194916 
L 268.137463 164.29764 
L 283.576198 164.840207 
L 299.014933 164.93108 
L 314.453668 164.530758 
L 329.892404 165.412871 
L 345.331139 165.436477 
L 360.769874 165.336062 
L 376.208609 165.825692 
L 391.647344 159.877247 
L 407.08608 161.461596 
" style="fill:none;stroke:#1b9e77;stroke-linecap:square;stroke-opacity:0.5;stroke-width:1.5;"/>
   </g>
   <g id="line2d_53">
    <path clip-path="url(#p05a88fabd1)" d="M 51.99517 165.863926 
L 67.433906 165.432405 
L 82.872641 165.486747 
L 98.311376 165.613574 
L 113.750111 165.663125 
L 129.188846 165.838524 
L 144.627582 165.907833 
L 160.066317 165.894604 
L 175.505052 165.835828 
L 190.943787 165.943314 
L 206.382522 165.946052 
L 221.821257 165.885218 
L 237.259993 164.495701 
L 252.698728 163.047263 
L 268.137463 159.161083 
L 283.576198 157.958041 
L 299.014933 151.612525 
L 314.453668 138.045005 
L 329.892404 143.697347 
L 345.331139 139.571423 
L 360.769874 127.947668 
L 376.208609 149.061582 
L 391.647344 163.321263 
L 407.08608 164.836047 
" style="fill:none;stroke:#1b9e77;stroke-linecap:square;stroke-opacity:0.5;stroke-width:1.5;"/>
   </g>
   <g id="line2d_54">
    <path clip-path="url(#p05a88fabd1)" d="M 51.99517 165.040233 
L 67.433906 165.658365 
L 82.872641 165.442543 
L 98.311376 165.739778 
L 113.750111 163.874713 
L 129.188846 162.107622 
L 144.627582 159.818289 
L 160.066317 159.523293 
L 175.505052 154.830463 
L 190.943787 87.452499 
L 206.382522 160.882093 
L 221.821257 163.812706 
L 237.259993 162.422554 
L 252.698728 159.933565 
L 268.137463 132.004797 
L 283.576198 157.424261 
L 299.014933 165.232845 
L 314.453668 165.521256 
L 329.892404 165.828841 
L 345.331139 165.876046 
L 360.769874 165.934181 
L 376.208609 165.92804 
L 391.647344 165.839568 
L 407.08608 165.937552 
" style="fill:none;stroke:#1b9e77;stroke-linecap:square;stroke-opacity:0.5;stroke-width:1.5;"/>
   </g>
   <g id="line2d_55">
    <path clip-path="url(#p05a88fabd1)" d="M 51.99517 165.908482 
L 67.433906 165.807222 
L 82.872641 165.85968 
L 98.311376 165.906035 
L 113.750111 165.914361 
L 129.188846 165.925875 
L 144.627582 165.925391 
L 160.066317 165.792723 
L 175.505052 163.752241 
L 190.943787 161.412654 
L 206.382522 158.532922 
L 221.821257 157.149204 
L 237.259993 158.984243 
L 252.698728 159.238507 
L 268.137463 160.44627 
L 283.576198 162.530702 
L 299.014933 164.862753 
L 314.453668 162.399069 
L 329.892404 151.376135 
L 345.331139 152.989403 
L 360.769874 119.748835 
L 376.208609 141.500605 
L 391.647344 146.472143 
L 407.08608 163.630642 
" style="fill:none;stroke:#1b9e77;stroke-linecap:square;stroke-opacity:0.5;stroke-width:1.5;"/>
   </g>
   <g id="line2d_56">
    <path clip-path="url(#p05a88fabd1)" d="M 51.99517 163.736384 
L 67.433906 161.064101 
L 82.872641 161.103313 
L 98.311376 163.330859 
L 113.750111 164.141297 
L 129.188846 164.847578 
L 144.627582 165.24179 
L 160.066317 165.587451 
L 175.505052 165.64823 
L 190.943787 165.7314 
L 206.382522 163.726986 
L 221.821257 159.815329 
L 237.259993 163.580467 
L 252.698728 159.730367 
L 268.137463 145.952375 
L 283.576198 67.378154 
L 299.014933 158.369599 
L 314.453668 164.329254 
L 329.892404 164.869934 
L 345.331139 165.169398 
L 360.769874 162.965636 
L 376.208609 165.381754 
L 391.647344 165.230749 
L 407.08608 165.133702 
" style="fill:none;stroke:#1b9e77;stroke-linecap:square;stroke-opacity:0.5;stroke-width:1.5;"/>
   </g>
   <g id="line2d_57">
    <path clip-path="url(#p05a88fabd1)" d="M 51.99517 165.858916 
L 67.433906 165.708297 
L 82.872641 165.815537 
L 98.311376 165.898254 
L 113.750111 165.921772 
L 129.188846 165.937949 
L 144.627582 165.943407 
L 160.066317 165.947749 
L 175.505052 165.928085 
L 190.943787 165.852338 
L 206.382522 165.483754 
L 221.821257 165.363429 
L 237.259993 159.029195 
L 252.698728 102.973715 
L 268.137463 135.371272 
L 283.576198 103.108863 
L 299.014933 164.331468 
L 314.453668 164.080964 
L 329.892404 165.199547 
L 345.331139 165.499999 
L 360.769874 165.514793 
L 376.208609 165.685035 
L 391.647344 165.742368 
L 407.08608 165.869381 
" style="fill:none;stroke:#1b9e77;stroke-linecap:square;stroke-opacity:0.5;stroke-width:1.5;"/>
   </g>
   <g id="line2d_58">
    <path clip-path="url(#p05a88fabd1)" d="M 51.99517 165.864527 
L 67.433906 165.939869 
L 82.872641 165.949469 
L 98.311376 165.956304 
L 113.750111 165.930057 
L 129.188846 165.847236 
L 144.627582 165.532395 
L 160.066317 165.626204 
L 175.505052 165.563029 
L 190.943787 163.646422 
L 206.382522 163.122622 
L 221.821257 164.198285 
L 237.259993 163.160521 
L 252.698728 164.374022 
L 268.137463 139.874934 
L 283.576198 136.528338 
L 299.014933 164.817982 
L 314.453668 162.110865 
L 329.892404 159.354731 
L 345.331139 161.704057 
L 360.769874 151.773753 
L 376.208609 136.064058 
L 391.647344 125.246019 
L 407.08608 163.8804 
" style="fill:none;stroke:#1b9e77;stroke-linecap:square;stroke-opacity:0.5;stroke-width:1.5;"/>
   </g>
   <g id="line2d_59">
    <path clip-path="url(#p05a88fabd1)" d="M 51.99517 154.866301 
L 67.433906 159.79346 
L 82.872641 129.816022 
L 98.311376 149.759257 
L 113.750111 146.433363 
L 129.188846 151.902019 
L 144.627582 159.390853 
L 160.066317 159.712792 
L 175.505052 158.413394 
L 190.943787 163.523403 
L 206.382522 163.892543 
L 221.821257 162.06891 
L 237.259993 156.974637 
L 252.698728 162.36146 
L 268.137463 163.464547 
L 283.576198 159.918016 
L 299.014933 154.953208 
L 314.453668 159.914703 
L 329.892404 165.529222 
L 345.331139 165.813948 
L 360.769874 165.822057 
L 376.208609 165.899659 
L 391.647344 165.936252 
L 407.08608 165.90607 
" style="fill:none;stroke:#1b9e77;stroke-linecap:square;stroke-opacity:0.5;stroke-width:1.5;"/>
   </g>
   <g id="line2d_60">
    <path clip-path="url(#p05a88fabd1)" d="M 51.99517 165.870549 
L 67.433906 164.808845 
L 82.872641 162.739733 
L 98.311376 159.730988 
L 113.750111 152.510077 
L 129.188846 154.048831 
L 144.627582 146.966973 
L 160.066317 132.688387 
L 175.505052 146.402931 
L 190.943787 147.859954 
L 206.382522 157.814923 
L 221.821257 160.552126 
L 237.259993 163.144148 
L 252.698728 164.318338 
L 268.137463 164.511799 
L 283.576198 164.043478 
L 299.014933 163.652958 
L 314.453668 163.704394 
L 329.892404 162.072006 
L 345.331139 161.429397 
L 360.769874 160.144293 
L 376.208609 163.210251 
L 391.647344 164.455746 
L 407.08608 165.384976 
" style="fill:none;stroke:#1b9e77;stroke-linecap:square;stroke-opacity:0.5;stroke-width:1.5;"/>
   </g>
   <g id="line2d_61">
    <path clip-path="url(#p05a88fabd1)" d="M 51.99517 160.064942 
L 67.433906 161.626927 
L 82.872641 136.94813 
L 98.311376 128.401709 
L 113.750111 152.010281 
L 129.188846 142.58724 
L 144.627582 154.575797 
L 160.066317 157.39138 
L 175.505052 162.708251 
L 190.943787 163.593988 
L 206.382522 163.351901 
L 221.821257 164.478144 
L 237.259993 162.357858 
L 252.698728 165.920425 
L 268.137463 165.88911 
L 283.576198 165.836705 
L 299.014933 165.702387 
L 314.453668 164.910537 
L 329.892404 164.594907 
L 345.331139 165.530344 
L 360.769874 165.31141 
L 376.208609 160.722321 
L 391.647344 153.982235 
L 407.08608 163.56917 
" style="fill:none;stroke:#1b9e77;stroke-linecap:square;stroke-opacity:0.5;stroke-width:1.5;"/>
   </g>
   <g id="line2d_62">
    <path clip-path="url(#p05a88fabd1)" d="M 51.99517 165.884198 
L 67.433906 165.938417 
L 82.872641 165.597542 
L 98.311376 165.455637 
L 113.750111 155.202432 
L 129.188846 125.885922 
L 144.627582 158.240388 
L 160.066317 164.61882 
L 175.505052 164.888477 
L 190.943787 150.517298 
L 206.382522 156.200114 
L 221.821257 148.122231 
L 237.259993 149.37192 
L 252.698728 144.108771 
L 268.137463 151.125803 
L 283.576198 165.314094 
L 299.014933 165.820671 
L 314.453668 165.439963 
L 329.892404 165.125051 
L 345.331139 165.493698 
L 360.769874 159.762436 
L 376.208609 163.499064 
L 391.647344 164.636056 
L 407.08608 165.817097 
" style="fill:none;stroke:#1b9e77;stroke-linecap:square;stroke-opacity:0.5;stroke-width:1.5;"/>
   </g>
   <g id="line2d_63">
    <path clip-path="url(#p05a88fabd1)" d="M 51.99517 162.621954 
L 67.433906 160.583026 
L 82.872641 149.563498 
L 98.311376 153.512629 
L 113.750111 141.302606 
L 129.188846 76.86139 
L 144.627582 149.944873 
L 160.066317 165.186984 
L 175.505052 165.275661 
L 190.943787 165.093961 
L 206.382522 165.561885 
L 221.821257 165.692169 
L 237.259993 165.721848 
L 252.698728 165.839156 
L 268.137463 165.91044 
L 283.576198 165.923381 
L 299.014933 165.905537 
L 314.453668 165.903108 
L 329.892404 165.919756 
L 345.331139 165.937624 
L 360.769874 165.946059 
L 376.208609 165.951976 
L 391.647344 165.952686 
L 407.08608 165.953895 
" style="fill:none;stroke:#1b9e77;stroke-linecap:square;stroke-opacity:0.5;stroke-width:1.5;"/>
   </g>
   <g id="line2d_64">
    <path clip-path="url(#p05a88fabd1)" d="M 51.99517 165.583047 
L 67.433906 165.477939 
L 82.872641 165.354267 
L 98.311376 165.015814 
L 113.750111 163.81078 
L 129.188846 159.981987 
L 144.627582 163.301588 
L 160.066317 163.183267 
L 175.505052 163.218552 
L 190.943787 161.807641 
L 206.382522 155.546177 
L 221.821257 89.90095 
L 237.259993 144.4181 
L 252.698728 160.463235 
L 268.137463 163.335517 
L 283.576198 157.231168 
L 299.014933 153.121107 
L 314.453668 162.754678 
L 329.892404 164.819581 
L 345.331139 165.123827 
L 360.769874 165.089656 
L 376.208609 163.704871 
L 391.647344 163.972807 
L 407.08608 165.849545 
" style="fill:none;stroke:#1b9e77;stroke-linecap:square;stroke-opacity:0.5;stroke-width:1.5;"/>
   </g>
   <g id="line2d_65">
    <path clip-path="url(#p05a88fabd1)" d="M 51.99517 165.486002 
L 67.433906 164.047056 
L 82.872641 163.457436 
L 98.311376 163.980306 
L 113.750111 164.936955 
L 129.188846 165.578119 
L 144.627582 165.745999 
L 160.066317 165.870395 
L 175.505052 165.905254 
L 190.943787 165.937684 
L 206.382522 165.932798 
L 221.821257 165.862785 
L 237.259993 162.829817 
L 252.698728 134.763267 
L 268.137463 139.79253 
L 283.576198 147.506787 
L 299.014933 154.486139 
L 314.453668 152.615474 
L 329.892404 150.140785 
L 345.331139 147.817488 
L 360.769874 153.39792 
L 376.208609 156.823152 
L 391.647344 163.374471 
L 407.08608 165.777479 
" style="fill:none;stroke:#1b9e77;stroke-linecap:square;stroke-opacity:0.5;stroke-width:1.5;"/>
   </g>
   <g id="line2d_66">
    <path clip-path="url(#p05a88fabd1)" d="M 51.99517 165.870993 
L 67.433906 165.783235 
L 82.872641 165.835434 
L 98.311376 165.898976 
L 113.750111 165.914738 
L 129.188846 165.944136 
L 144.627582 165.949905 
L 160.066317 165.81758 
L 175.505052 164.643885 
L 190.943787 162.350288 
L 206.382522 145.074258 
L 221.821257 134.829386 
L 237.259993 143.16891 
L 252.698728 137.05401 
L 268.137463 134.831476 
L 283.576198 157.267214 
L 299.014933 159.885744 
L 314.453668 153.100452 
L 329.892404 164.809058 
L 345.331139 165.522894 
L 360.769874 165.415491 
L 376.208609 165.766288 
L 391.647344 165.82619 
L 407.08608 165.505554 
" style="fill:none;stroke:#1b9e77;stroke-linecap:square;stroke-opacity:0.5;stroke-width:1.5;"/>
   </g>
   <g id="line2d_67">
    <path clip-path="url(#p05a88fabd1)" d="M 51.99517 165.735719 
L 67.433906 165.286497 
L 82.872641 165.371986 
L 98.311376 165.642864 
L 113.750111 165.727687 
L 129.188846 165.869098 
L 144.627582 165.911556 
L 160.066317 165.923836 
L 175.505052 165.892365 
L 190.943787 165.692353 
L 206.382522 155.743229 
L 221.821257 133.789564 
L 237.259993 126.694113 
L 252.698728 161.951057 
L 268.137463 164.006223 
L 283.576198 154.944179 
L 299.014933 162.047236 
L 314.453668 162.879914 
L 329.892404 162.045882 
L 345.331139 164.124799 
L 360.769874 132.632864 
L 376.208609 152.69221 
L 391.647344 159.624363 
L 407.08608 161.836505 
" style="fill:none;stroke:#1b9e77;stroke-linecap:square;stroke-opacity:0.5;stroke-width:1.5;"/>
   </g>
   <g id="line2d_68">
    <path clip-path="url(#p05a88fabd1)" d="M 51.99517 165.383983 
L 67.433906 165.52071 
L 82.872641 162.734177 
L 98.311376 146.197391 
L 113.750111 92.249393 
L 129.188846 146.356948 
L 144.627582 160.088881 
L 160.066317 161.689529 
L 175.505052 154.336981 
L 190.943787 155.053718 
L 206.382522 163.143743 
L 221.821257 164.393256 
L 237.259993 165.489515 
L 252.698728 165.574618 
L 268.137463 165.83581 
L 283.576198 165.786498 
L 299.014933 165.516028 
L 314.453668 165.590874 
L 329.892404 165.200958 
L 345.331139 164.807095 
L 360.769874 161.934693 
L 376.208609 162.009167 
L 391.647344 162.747549 
L 407.08608 164.42458 
" style="fill:none;stroke:#1b9e77;stroke-linecap:square;stroke-opacity:0.5;stroke-width:1.5;"/>
   </g>
   <g id="line2d_69">
    <path clip-path="url(#p05a88fabd1)" d="M 51.99517 165.875106 
L 67.433906 165.949686 
L 82.872641 165.390896 
L 98.311376 165.668383 
L 113.750111 157.401068 
L 129.188846 112.624705 
L 144.627582 163.664313 
L 160.066317 165.748915 
L 175.505052 165.518444 
L 190.943787 165.650536 
L 206.382522 165.830672 
L 221.821257 165.875944 
L 237.259993 165.858669 
L 252.698728 165.896084 
L 268.137463 165.919471 
L 283.576198 159.102115 
L 299.014933 158.649201 
L 314.453668 150.66116 
L 329.892404 150.100431 
L 345.331139 150.735517 
L 360.769874 153.727434 
L 376.208609 152.017372 
L 391.647344 149.533652 
L 407.08608 164.666328 
" style="fill:none;stroke:#1b9e77;stroke-linecap:square;stroke-opacity:0.5;stroke-width:1.5;"/>
   </g>
   <g id="line2d_70">
    <path clip-path="url(#p05a88fabd1)" d="M 51.99517 165.910223 
L 67.433906 165.764374 
L 82.872641 165.690028 
L 98.311376 165.712964 
L 113.750111 165.534159 
L 129.188846 157.904372 
L 144.627582 143.312721 
L 160.066317 154.680226 
L 175.505052 150.900753 
L 190.943787 125.252836 
L 206.382522 150.737486 
L 221.821257 137.980412 
L 237.259993 148.862846 
L 252.698728 156.681409 
L 268.137463 165.238822 
L 283.576198 165.419891 
L 299.014933 165.497024 
L 314.453668 165.638307 
L 329.892404 165.763741 
L 345.331139 165.864062 
L 360.769874 165.892735 
L 376.208609 165.943645 
L 391.647344 165.95595 
L 407.08608 165.927116 
" style="fill:none;stroke:#1b9e77;stroke-linecap:square;stroke-opacity:0.5;stroke-width:1.5;"/>
   </g>
   <g id="line2d_71">
    <path clip-path="url(#p05a88fabd1)" d="M 51.99517 165.738767 
L 67.433906 165.029205 
L 82.872641 155.543712 
L 98.311376 143.035207 
L 113.750111 99.715685 
L 129.188846 151.128105 
L 144.627582 164.011094 
L 160.066317 165.163912 
L 175.505052 165.852904 
L 190.943787 165.365562 
L 206.382522 165.451274 
L 221.821257 165.86812 
L 237.259993 165.888995 
L 252.698728 165.649829 
L 268.137463 164.475827 
L 283.576198 165.161885 
L 299.014933 160.918861 
L 314.453668 155.834988 
L 329.892404 165.560238 
L 345.331139 164.65007 
L 360.769874 149.816636 
L 376.208609 157.644617 
L 391.647344 159.731787 
L 407.08608 164.828819 
" style="fill:none;stroke:#1b9e77;stroke-linecap:square;stroke-opacity:0.5;stroke-width:1.5;"/>
   </g>
   <g id="line2d_72">
    <path clip-path="url(#p05a88fabd1)" d="M 51.99517 165.947452 
L 67.433906 165.910395 
L 82.872641 165.921412 
L 98.311376 165.94582 
L 113.750111 165.953318 
L 129.188846 165.96 
L 144.627582 165.948095 
L 160.066317 164.622126 
L 175.505052 164.674054 
L 190.943787 161.309565 
L 206.382522 156.375973 
L 221.821257 161.894214 
L 237.259993 159.222693 
L 252.698728 163.005856 
L 268.137463 147.085087 
L 283.576198 147.114823 
L 299.014933 117.139346 
L 314.453668 144.129227 
L 329.892404 154.824996 
L 345.331139 146.72681 
L 360.769874 165.253788 
L 376.208609 165.671077 
L 391.647344 165.6131 
L 407.08608 165.816868 
" style="fill:none;stroke:#1b9e77;stroke-linecap:square;stroke-opacity:0.5;stroke-width:1.5;"/>
   </g>
   <g id="line2d_73">
    <path clip-path="url(#p05a88fabd1)" d="M 51.99517 140.620115 
L 67.433906 138.561361 
L 82.872641 143.927667 
L 98.311376 158.635561 
L 113.750111 162.388416 
L 129.188846 164.955549 
L 144.627582 165.503234 
L 160.066317 165.698288 
L 175.505052 165.594451 
L 190.943787 165.32151 
L 206.382522 159.883057 
L 221.821257 137.478374 
L 237.259993 164.789861 
L 252.698728 164.475712 
L 268.137463 161.101964 
L 283.576198 159.905508 
L 299.014933 160.514476 
L 314.453668 161.138203 
L 329.892404 161.267445 
L 345.331139 162.13774 
L 360.769874 163.263162 
L 376.208609 165.607614 
L 391.647344 165.845857 
L 407.08608 153.450973 
" style="fill:none;stroke:#1b9e77;stroke-linecap:square;stroke-opacity:0.5;stroke-width:1.5;"/>
   </g>
   <g id="line2d_74">
    <path clip-path="url(#p05a88fabd1)" d="M 51.99517 165.82863 
L 67.433906 165.332069 
L 82.872641 165.286486 
L 98.311376 165.454335 
L 113.750111 165.386591 
L 129.188846 165.687738 
L 144.627582 163.862795 
L 160.066317 141.298213 
L 175.505052 157.760662 
L 190.943787 145.635706 
L 206.382522 146.19331 
L 221.821257 150.397985 
L 237.259993 155.109048 
L 252.698728 156.362694 
L 268.137463 162.582508 
L 283.576198 165.636616 
L 299.014933 165.465758 
L 314.453668 152.077479 
L 329.892404 152.870234 
L 345.331139 153.673724 
L 360.769874 163.858075 
L 376.208609 163.840011 
L 391.647344 161.529886 
L 407.08608 160.935545 
" style="fill:none;stroke:#1b9e77;stroke-linecap:square;stroke-opacity:0.5;stroke-width:1.5;"/>
   </g>
   <g id="line2d_75">
    <path clip-path="url(#p05a88fabd1)" d="M 51.99517 150.149018 
L 67.433906 126.701043 
L 82.872641 132.673949 
L 98.311376 150.660044 
L 113.750111 156.841811 
L 129.188846 161.968948 
L 144.627582 163.884072 
L 160.066317 164.617409 
L 175.505052 164.725187 
L 190.943787 165.227322 
L 206.382522 165.482769 
L 221.821257 165.502803 
L 237.259993 165.336404 
L 252.698728 165.614139 
L 268.137463 165.676272 
L 283.576198 163.099796 
L 299.014933 148.213144 
L 314.453668 152.075453 
L 329.892404 160.627726 
L 345.331139 164.982551 
L 360.769874 165.229503 
L 376.208609 165.009496 
L 391.647344 164.87401 
L 407.08608 162.893235 
" style="fill:none;stroke:#1b9e77;stroke-linecap:square;stroke-opacity:0.5;stroke-width:1.5;"/>
   </g>
   <g id="line2d_76">
    <path clip-path="url(#p05a88fabd1)" d="M 51.99517 165.587367 
L 67.433906 165.843897 
L 82.872641 165.810533 
L 98.311376 165.742003 
L 113.750111 165.602768 
L 129.188846 165.718841 
L 144.627582 165.782706 
L 160.066317 149.018573 
L 175.505052 164.968811 
L 190.943787 165.623037 
L 206.382522 165.283365 
L 221.821257 129.984514 
L 237.259993 164.226278 
L 252.698728 163.652433 
L 268.137463 109.906636 
L 283.576198 123.952732 
L 299.014933 161.271734 
L 314.453668 165.910768 
L 329.892404 165.905427 
L 345.331139 165.526713 
L 360.769874 164.800131 
L 376.208609 164.122267 
L 391.647344 164.358564 
L 407.08608 163.466002 
" style="fill:none;stroke:#1b9e77;stroke-linecap:square;stroke-opacity:0.5;stroke-width:1.5;"/>
   </g>
   <g id="line2d_77">
    <path clip-path="url(#p05a88fabd1)" d="M 51.99517 150.937461 
L 67.433906 150.352276 
L 82.872641 153.310759 
L 98.311376 161.254976 
L 113.750111 163.189149 
L 129.188846 163.728853 
L 144.627582 163.16309 
L 160.066317 160.955582 
L 175.505052 157.577205 
L 190.943787 157.397645 
L 206.382522 159.803185 
L 221.821257 161.294853 
L 237.259993 161.72113 
L 252.698728 162.654141 
L 268.137463 163.541514 
L 283.576198 164.538703 
L 299.014933 165.073471 
L 314.453668 165.166557 
L 329.892404 165.058984 
L 345.331139 165.113947 
L 360.769874 165.250177 
L 376.208609 165.810152 
L 391.647344 162.251876 
L 407.08608 102.920411 
" style="fill:none;stroke:#1b9e77;stroke-linecap:square;stroke-opacity:0.5;stroke-width:1.5;"/>
   </g>
   <g id="line2d_78">
    <path clip-path="url(#p05a88fabd1)" d="M 51.99517 165.853561 
L 67.433906 165.568726 
L 82.872641 165.618762 
L 98.311376 165.74046 
L 113.750111 165.790481 
L 129.188846 165.866342 
L 144.627582 165.906369 
L 160.066317 165.948163 
L 175.505052 165.952807 
L 190.943787 165.947263 
L 206.382522 165.845304 
L 221.821257 161.869702 
L 237.259993 155.162057 
L 252.698728 155.313523 
L 268.137463 163.202829 
L 283.576198 164.164642 
L 299.014933 158.098952 
L 314.453668 123.939604 
L 329.892404 99.654758 
L 345.331139 159.847746 
L 360.769874 165.430818 
L 376.208609 159.009104 
L 391.647344 156.675263 
L 407.08608 165.658863 
" style="fill:none;stroke:#1b9e77;stroke-linecap:square;stroke-opacity:0.5;stroke-width:1.5;"/>
   </g>
   <g id="line2d_79">
    <path clip-path="url(#p05a88fabd1)" d="M 51.99517 148.971325 
L 67.433906 162.563923 
L 82.872641 163.293411 
L 98.311376 162.68712 
L 113.750111 155.23043 
L 129.188846 162.198127 
L 144.627582 161.991713 
L 160.066317 163.782856 
L 175.505052 163.227753 
L 190.943787 161.884499 
L 206.382522 162.258933 
L 221.821257 162.995611 
L 237.259993 157.142668 
L 252.698728 125.896712 
L 268.137463 153.378995 
L 283.576198 153.101357 
L 299.014933 144.035035 
L 314.453668 163.244023 
L 329.892404 163.998976 
L 345.331139 161.391824 
L 360.769874 163.83178 
L 376.208609 163.795629 
L 391.647344 165.265816 
L 407.08608 165.897588 
" style="fill:none;stroke:#1b9e77;stroke-linecap:square;stroke-opacity:0.5;stroke-width:1.5;"/>
   </g>
   <g id="line2d_80">
    <path clip-path="url(#p05a88fabd1)" d="M 51.99517 147.893275 
L 67.433906 146.225065 
L 82.872641 148.760033 
L 98.311376 158.881193 
L 113.750111 161.917091 
L 129.188846 165.058362 
L 144.627582 165.597594 
L 160.066317 165.403347 
L 175.505052 164.991545 
L 190.943787 165.426527 
L 206.382522 165.240353 
L 221.821257 164.249117 
L 237.259993 164.96091 
L 252.698728 164.997958 
L 268.137463 165.103684 
L 283.576198 165.084762 
L 299.014933 164.792592 
L 314.453668 164.872432 
L 329.892404 164.803894 
L 345.331139 164.84075 
L 360.769874 164.868491 
L 376.208609 165.089103 
L 391.647344 164.24177 
L 407.08608 78.766255 
" style="fill:none;stroke:#1b9e77;stroke-linecap:square;stroke-opacity:0.5;stroke-width:1.5;"/>
   </g>
   <g id="line2d_81">
    <path clip-path="url(#p05a88fabd1)" d="M 51.99517 165.862557 
L 67.433906 165.782284 
L 82.872641 165.790329 
L 98.311376 165.875711 
L 113.750111 165.131922 
L 129.188846 134.990594 
L 144.627582 128.656672 
L 160.066317 148.845198 
L 175.505052 162.600449 
L 190.943787 158.786926 
L 206.382522 154.214177 
L 221.821257 164.648639 
L 237.259993 165.5731 
L 252.698728 165.724886 
L 268.137463 165.113405 
L 283.576198 165.108382 
L 299.014933 163.904335 
L 314.453668 165.604258 
L 329.892404 165.647676 
L 345.331139 165.020699 
L 360.769874 162.005507 
L 376.208609 160.766406 
L 391.647344 153.666865 
L 407.08608 132.745125 
" style="fill:none;stroke:#1b9e77;stroke-linecap:square;stroke-opacity:0.5;stroke-width:1.5;"/>
   </g>
   <g id="line2d_82">
    <path clip-path="url(#p05a88fabd1)" d="M 51.99517 165.930143 
L 67.433906 165.895087 
L 82.872641 165.930694 
L 98.311376 165.943689 
L 113.750111 165.934679 
L 129.188846 165.907173 
L 144.627582 161.269737 
L 160.066317 163.112875 
L 175.505052 164.936421 
L 190.943787 164.877125 
L 206.382522 160.763919 
L 221.821257 143.740241 
L 237.259993 35.267342 
L 252.698728 165.402966 
L 268.137463 165.839511 
L 283.576198 165.630497 
L 299.014933 165.786767 
L 314.453668 165.865043 
L 329.892404 165.934539 
L 345.331139 165.944141 
L 360.769874 165.823703 
L 376.208609 165.657379 
L 391.647344 164.980701 
L 407.08608 165.691721 
" style="fill:none;stroke:#1b9e77;stroke-linecap:square;stroke-opacity:0.5;stroke-width:1.5;"/>
   </g>
   <g id="line2d_83">
    <path clip-path="url(#p05a88fabd1)" d="M 51.99517 165.444811 
L 67.433906 165.905986 
L 82.872641 165.646829 
L 98.311376 164.570149 
L 113.750111 122.705011 
L 129.188846 106.569023 
L 144.627582 161.598499 
L 160.066317 165.832538 
L 175.505052 165.854558 
L 190.943787 164.052538 
L 206.382522 162.247288 
L 221.821257 163.838535 
L 237.259993 155.191755 
L 252.698728 143.444478 
L 268.137463 165.569183 
L 283.576198 165.602404 
L 299.014933 165.386495 
L 314.453668 165.492419 
L 329.892404 159.012417 
L 345.331139 156.951099 
L 360.769874 165.654312 
L 376.208609 165.693633 
L 391.647344 165.763978 
L 407.08608 164.038161 
" style="fill:none;stroke:#1b9e77;stroke-linecap:square;stroke-opacity:0.5;stroke-width:1.5;"/>
   </g>
   <g id="line2d_84">
    <path clip-path="url(#p05a88fabd1)" d="M 51.99517 165.876502 
L 67.433906 165.188181 
L 82.872641 165.220117 
L 98.311376 165.284835 
L 113.750111 164.623595 
L 129.188846 165.240394 
L 144.627582 159.611148 
L 160.066317 135.556784 
L 175.505052 132.893707 
L 190.943787 144.168237 
L 206.382522 143.431891 
L 221.821257 142.188722 
L 237.259993 141.97016 
L 252.698728 162.417783 
L 268.137463 165.745221 
L 283.576198 165.760699 
L 299.014933 165.788387 
L 314.453668 165.852866 
L 329.892404 165.884965 
L 345.331139 165.912495 
L 360.769874 165.925876 
L 376.208609 165.951705 
L 391.647344 165.947336 
L 407.08608 165.624491 
" style="fill:none;stroke:#1b9e77;stroke-linecap:square;stroke-opacity:0.5;stroke-width:1.5;"/>
   </g>
   <g id="line2d_85">
    <path clip-path="url(#p05a88fabd1)" d="M 51.99517 141.082644 
L 67.433906 91.313999 
L 82.872641 140.760701 
L 98.311376 159.554004 
L 113.750111 164.670046 
L 129.188846 165.431504 
L 144.627582 165.703489 
L 160.066317 165.801085 
L 175.505052 165.814647 
L 190.943787 165.867706 
L 206.382522 165.892354 
L 221.821257 165.936472 
L 237.259993 165.949758 
L 252.698728 165.959173 
L 268.137463 165.92628 
L 283.576198 165.405474 
L 299.014933 161.641709 
L 314.453668 158.389029 
L 329.892404 157.090934 
L 345.331139 154.763657 
L 360.769874 162.429968 
L 376.208609 165.428319 
L 391.647344 165.386499 
L 407.08608 165.866645 
" style="fill:none;stroke:#1b9e77;stroke-linecap:square;stroke-opacity:0.5;stroke-width:1.5;"/>
   </g>
   <g id="line2d_86">
    <path clip-path="url(#p05a88fabd1)" d="M 51.99517 157.447567 
L 67.433906 157.005785 
L 82.872641 159.409174 
L 98.311376 158.209276 
L 113.750111 153.838121 
L 129.188846 159.572127 
L 144.627582 160.572312 
L 160.066317 158.112812 
L 175.505052 157.952982 
L 190.943787 150.061837 
L 206.382522 147.961182 
L 221.821257 156.55083 
L 237.259993 162.536131 
L 252.698728 163.478639 
L 268.137463 162.252681 
L 283.576198 159.366104 
L 299.014933 155.530206 
L 314.453668 163.889517 
L 329.892404 164.033029 
L 345.331139 161.010913 
L 360.769874 151.2172 
L 376.208609 161.955572 
L 391.647344 164.429899 
L 407.08608 165.672204 
" style="fill:none;stroke:#1b9e77;stroke-linecap:square;stroke-opacity:0.5;stroke-width:1.5;"/>
   </g>
   <g id="line2d_87">
    <path clip-path="url(#p05a88fabd1)" d="M 51.99517 165.490289 
L 67.433906 165.041013 
L 82.872641 165.118378 
L 98.311376 165.470842 
L 113.750111 165.585771 
L 129.188846 165.783464 
L 144.627582 165.87423 
L 160.066317 165.904162 
L 175.505052 165.903172 
L 190.943787 165.914853 
L 206.382522 165.928659 
L 221.821257 165.938242 
L 237.259993 165.940221 
L 252.698728 165.946577 
L 268.137463 165.931101 
L 283.576198 164.271761 
L 299.014933 137.398223 
L 314.453668 128.548227 
L 329.892404 139.329273 
L 345.331139 144.04638 
L 360.769874 142.717137 
L 376.208609 161.451296 
L 391.647344 162.005267 
L 407.08608 146.527562 
" style="fill:none;stroke:#1b9e77;stroke-linecap:square;stroke-opacity:0.5;stroke-width:1.5;"/>
   </g>
   <g id="line2d_88">
    <path clip-path="url(#p05a88fabd1)" d="M 51.99517 165.697372 
L 67.433906 163.229527 
L 82.872641 164.680281 
L 98.311376 165.02847 
L 113.750111 165.223661 
L 129.188846 165.491216 
L 144.627582 165.684296 
L 160.066317 165.817133 
L 175.505052 165.823624 
L 190.943787 165.877293 
L 206.382522 165.910693 
L 221.821257 165.935184 
L 237.259993 165.916408 
L 252.698728 165.767233 
L 268.137463 164.348961 
L 283.576198 152.451257 
L 299.014933 156.216026 
L 314.453668 148.883039 
L 329.892404 137.478121 
L 345.331139 143.033173 
L 360.769874 136.574062 
L 376.208609 139.304207 
L 391.647344 153.885749 
L 407.08608 163.809116 
" style="fill:none;stroke:#1b9e77;stroke-linecap:square;stroke-opacity:0.5;stroke-width:1.5;"/>
   </g>
   <g id="line2d_89">
    <path clip-path="url(#p05a88fabd1)" d="M 51.99517 165.102815 
L 67.433906 165.065677 
L 82.872641 165.181451 
L 98.311376 164.914261 
L 113.750111 160.830442 
L 129.188846 161.14057 
L 144.627582 161.933652 
L 160.066317 161.002913 
L 175.505052 158.496748 
L 190.943787 158.750014 
L 206.382522 158.29345 
L 221.821257 150.280112 
L 237.259993 129.61721 
L 252.698728 126.892234 
L 268.137463 162.128483 
L 283.576198 158.893739 
L 299.014933 155.853838 
L 314.453668 152.805059 
L 329.892404 165.648061 
L 345.331139 165.781753 
L 360.769874 165.821733 
L 376.208609 165.852473 
L 391.647344 165.836066 
L 407.08608 165.943339 
" style="fill:none;stroke:#1b9e77;stroke-linecap:square;stroke-opacity:0.5;stroke-width:1.5;"/>
   </g>
   <g id="line2d_90">
    <path clip-path="url(#p05a88fabd1)" d="M 51.99517 165.77278 
L 67.433906 165.595125 
L 82.872641 164.307923 
L 98.311376 157.680501 
L 113.750111 148.164193 
L 129.188846 151.947036 
L 144.627582 154.489669 
L 160.066317 145.824543 
L 175.505052 129.483341 
L 190.943787 114.708504 
L 206.382522 161.382445 
L 221.821257 165.093669 
L 237.259993 164.584001 
L 252.698728 164.939465 
L 268.137463 165.445394 
L 283.576198 165.693722 
L 299.014933 165.708311 
L 314.453668 165.780834 
L 329.892404 165.842264 
L 345.331139 165.896418 
L 360.769874 165.916892 
L 376.208609 165.934787 
L 391.647344 165.937103 
L 407.08608 165.937173 
" style="fill:none;stroke:#1b9e77;stroke-linecap:square;stroke-opacity:0.5;stroke-width:1.5;"/>
   </g>
   <g id="line2d_91">
    <path clip-path="url(#p05a88fabd1)" d="M 51.99517 165.043407 
L 67.433906 162.52994 
L 82.872641 151.691062 
L 98.311376 162.310605 
L 113.750111 163.971928 
L 129.188846 151.461981 
L 144.627582 150.13005 
L 160.066317 155.636168 
L 175.505052 152.141689 
L 190.943787 159.661357 
L 206.382522 85.803831 
L 221.821257 162.89744 
L 237.259993 165.752542 
L 252.698728 165.78556 
L 268.137463 165.846775 
L 283.576198 165.880819 
L 299.014933 165.936251 
L 314.453668 165.951251 
L 329.892404 165.951259 
L 345.331139 165.939479 
L 360.769874 165.848811 
L 376.208609 165.510985 
L 391.647344 164.778541 
L 407.08608 165.60436 
" style="fill:none;stroke:#1b9e77;stroke-linecap:square;stroke-opacity:0.5;stroke-width:1.5;"/>
   </g>
   <g id="line2d_92">
    <path clip-path="url(#p05a88fabd1)" d="M 51.99517 165.861931 
L 67.433906 165.653426 
L 82.872641 165.760645 
L 98.311376 165.866589 
L 113.750111 165.895656 
L 129.188846 165.920939 
L 144.627582 165.931368 
L 160.066317 165.937453 
L 175.505052 165.935282 
L 190.943787 165.940352 
L 206.382522 165.941068 
L 221.821257 165.936801 
L 237.259993 165.920678 
L 252.698728 165.923329 
L 268.137463 165.463024 
L 283.576198 156.845652 
L 299.014933 150.525328 
L 314.453668 147.463149 
L 329.892404 133.898774 
L 345.331139 135.504919 
L 360.769874 121.397366 
L 376.208609 148.348884 
L 391.647344 164.56317 
L 407.08608 165.630317 
" style="fill:none;stroke:#1b9e77;stroke-linecap:square;stroke-opacity:0.5;stroke-width:1.5;"/>
   </g>
   <g id="line2d_93">
    <path clip-path="url(#p05a88fabd1)" d="M 51.99517 164.816446 
L 67.433906 164.882247 
L 82.872641 165.044513 
L 98.311376 165.688121 
L 113.750111 165.863636 
L 129.188846 165.938985 
L 144.627582 165.948828 
L 160.066317 165.95003 
L 175.505052 165.925302 
L 190.943787 165.664635 
L 206.382522 159.701361 
L 221.821257 147.578139 
L 237.259993 151.05418 
L 252.698728 151.273578 
L 268.137463 143.890533 
L 283.576198 116.435669 
L 299.014933 130.523392 
L 314.453668 164.951341 
L 329.892404 165.254316 
L 345.331139 165.40321 
L 360.769874 165.299665 
L 376.208609 165.086 
L 391.647344 164.290188 
L 407.08608 165.601783 
" style="fill:none;stroke:#1b9e77;stroke-linecap:square;stroke-opacity:0.5;stroke-width:1.5;"/>
   </g>
   <g id="line2d_94">
    <path clip-path="url(#p05a88fabd1)" d="M 51.99517 160.874106 
L 67.433906 116.362632 
L 82.872641 113.883581 
L 98.311376 133.74629 
L 113.750111 155.439737 
L 129.188846 161.049509 
L 144.627582 163.511061 
L 160.066317 164.834044 
L 175.505052 165.146119 
L 190.943787 165.473432 
L 206.382522 165.648495 
L 221.821257 165.834463 
L 237.259993 165.905823 
L 252.698728 165.934312 
L 268.137463 165.93829 
L 283.576198 165.943106 
L 299.014933 165.941973 
L 314.453668 165.923782 
L 329.892404 165.933839 
L 345.331139 165.909012 
L 360.769874 165.866545 
L 376.208609 165.917457 
L 391.647344 165.535093 
L 407.08608 155.513396 
" style="fill:none;stroke:#1b9e77;stroke-linecap:square;stroke-opacity:0.5;stroke-width:1.5;"/>
   </g>
   <g id="line2d_95">
    <path clip-path="url(#p05a88fabd1)" d="M 51.99517 157.930949 
L 67.433906 157.719731 
L 82.872641 153.049424 
L 98.311376 156.009098 
L 113.750111 164.345904 
L 129.188846 162.514684 
L 144.627582 165.453257 
L 160.066317 165.669521 
L 175.505052 165.590338 
L 190.943787 165.639561 
L 206.382522 165.769871 
L 221.821257 165.884068 
L 237.259993 165.926619 
L 252.698728 165.946934 
L 268.137463 165.950522 
L 283.576198 165.955118 
L 299.014933 165.948396 
L 314.453668 165.723133 
L 329.892404 157.795982 
L 345.331139 142.019748 
L 360.769874 131.111594 
L 376.208609 138.609572 
L 391.647344 140.270882 
L 407.08608 161.231192 
" style="fill:none;stroke:#1b9e77;stroke-linecap:square;stroke-opacity:0.5;stroke-width:1.5;"/>
   </g>
   <g id="line2d_96">
    <path clip-path="url(#p05a88fabd1)" d="M 51.99517 165.783547 
L 67.433906 165.344249 
L 82.872641 165.291902 
L 98.311376 165.472922 
L 113.750111 165.517012 
L 129.188846 165.724675 
L 144.627582 165.829321 
L 160.066317 165.885803 
L 175.505052 165.865907 
L 190.943787 165.845951 
L 206.382522 159.492252 
L 221.821257 115.897695 
L 237.259993 127.18702 
L 252.698728 143.710995 
L 268.137463 157.744269 
L 283.576198 142.283418 
L 299.014933 153.781557 
L 314.453668 163.470448 
L 329.892404 164.603972 
L 345.331139 165.178216 
L 360.769874 165.441003 
L 376.208609 165.759852 
L 391.647344 165.657913 
L 407.08608 165.296203 
" style="fill:none;stroke:#1b9e77;stroke-linecap:square;stroke-opacity:0.5;stroke-width:1.5;"/>
   </g>
   <g id="line2d_97">
    <path clip-path="url(#p05a88fabd1)" d="M 51.99517 153.726668 
L 67.433906 156.433537 
L 82.872641 160.159096 
L 98.311376 163.600452 
L 113.750111 164.069115 
L 129.188846 165.260784 
L 144.627582 165.529067 
L 160.066317 165.115393 
L 175.505052 157.569108 
L 190.943787 156.740798 
L 206.382522 163.579912 
L 221.821257 155.997696 
L 237.259993 149.568829 
L 252.698728 163.951964 
L 268.137463 164.84221 
L 283.576198 164.383887 
L 299.014933 163.809709 
L 314.453668 164.098796 
L 329.892404 164.627124 
L 345.331139 165.140226 
L 360.769874 165.388651 
L 376.208609 165.811333 
L 391.647344 165.438068 
L 407.08608 87.223676 
" style="fill:none;stroke:#1b9e77;stroke-linecap:square;stroke-opacity:0.5;stroke-width:1.5;"/>
   </g>
   <g id="line2d_98">
    <path clip-path="url(#p05a88fabd1)" d="M 51.99517 165.343708 
L 67.433906 164.675424 
L 82.872641 164.337163 
L 98.311376 154.99075 
L 113.750111 139.048666 
L 129.188846 131.162058 
L 144.627582 138.405409 
L 160.066317 151.960122 
L 175.505052 155.150759 
L 190.943787 152.261639 
L 206.382522 162.64252 
L 221.821257 165.802637 
L 237.259993 165.879185 
L 252.698728 165.895463 
L 268.137463 165.921585 
L 283.576198 165.928795 
L 299.014933 165.920993 
L 314.453668 165.929335 
L 329.892404 165.828864 
L 345.331139 164.183164 
L 360.769874 163.443612 
L 376.208609 155.446846 
L 391.647344 157.551344 
L 407.08608 164.356055 
" style="fill:none;stroke:#1b9e77;stroke-linecap:square;stroke-opacity:0.5;stroke-width:1.5;"/>
   </g>
   <g id="line2d_99">
    <path clip-path="url(#p05a88fabd1)" d="M 51.99517 163.686086 
L 67.433906 161.605108 
L 82.872641 162.300769 
L 98.311376 162.294712 
L 113.750111 163.620139 
L 129.188846 164.538296 
L 144.627582 159.292057 
L 160.066317 156.488249 
L 175.505052 158.048451 
L 190.943787 157.348078 
L 206.382522 142.601171 
L 221.821257 146.735897 
L 237.259993 160.551901 
L 252.698728 146.368605 
L 268.137463 119.020081 
L 283.576198 164.646233 
L 299.014933 164.596433 
L 314.453668 163.823579 
L 329.892404 165.429483 
L 345.331139 165.651647 
L 360.769874 165.717692 
L 376.208609 165.863762 
L 391.647344 165.914612 
L 407.08608 165.92306 
" style="fill:none;stroke:#1b9e77;stroke-linecap:square;stroke-opacity:0.5;stroke-width:1.5;"/>
   </g>
   <g id="line2d_100">
    <path clip-path="url(#p05a88fabd1)" d="M 51.99517 111.181221 
L 67.433906 129.727941 
L 82.872641 146.947199 
L 98.311376 157.056691 
L 113.750111 161.006161 
L 129.188846 160.64055 
L 144.627582 164.790987 
L 160.066317 165.316995 
L 175.505052 165.277616 
L 190.943787 165.587631 
L 206.382522 165.801016 
L 221.821257 165.850327 
L 237.259993 165.826304 
L 252.698728 165.886633 
L 268.137463 165.912775 
L 283.576198 164.706974 
L 299.014933 160.507148 
L 314.453668 165.758333 
L 329.892404 165.886002 
L 345.331139 165.341769 
L 360.769874 159.701741 
L 376.208609 155.183313 
L 391.647344 155.812327 
L 407.08608 162.35844 
" style="fill:none;stroke:#1b9e77;stroke-linecap:square;stroke-opacity:0.5;stroke-width:1.5;"/>
   </g>
   <g id="line2d_101">
    <path clip-path="url(#p05a88fabd1)" d="M 51.99517 142.123165 
L 67.433906 141.190937 
L 82.872641 152.298044 
L 98.311376 161.359077 
L 113.750111 163.118769 
L 129.188846 162.881669 
L 144.627582 162.303096 
L 160.066317 164.653366 
L 175.505052 165.552349 
L 190.943787 165.670513 
L 206.382522 165.51582 
L 221.821257 165.126139 
L 237.259993 164.440841 
L 252.698728 164.998614 
L 268.137463 153.030035 
L 283.576198 113.14945 
L 299.014933 157.036134 
L 314.453668 161.51638 
L 329.892404 162.234158 
L 345.331139 164.138224 
L 360.769874 164.723747 
L 376.208609 165.410826 
L 391.647344 165.573367 
L 407.08608 164.021379 
" style="fill:none;stroke:#1b9e77;stroke-linecap:square;stroke-opacity:0.5;stroke-width:1.5;"/>
   </g>
   <g id="line2d_102">
    <path clip-path="url(#p05a88fabd1)" d="M 51.99517 165.798719 
L 67.433906 165.56533 
L 82.872641 165.675568 
L 98.311376 165.874422 
L 113.750111 165.925909 
L 129.188846 165.947321 
L 144.627582 165.944042 
L 160.066317 165.928163 
L 175.505052 164.753553 
L 190.943787 148.776614 
L 206.382522 141.681131 
L 221.821257 133.560644 
L 237.259993 123.227124 
L 252.698728 146.279699 
L 268.137463 153.551396 
L 283.576198 159.122036 
L 299.014933 163.376616 
L 314.453668 161.830427 
L 329.892404 163.802312 
L 345.331139 165.193898 
L 360.769874 165.359143 
L 376.208609 165.832988 
L 391.647344 164.45399 
L 407.08608 164.60505 
" style="fill:none;stroke:#1b9e77;stroke-linecap:square;stroke-opacity:0.5;stroke-width:1.5;"/>
   </g>
   <g id="line2d_103">
    <path clip-path="url(#p05a88fabd1)" d="M 51.99517 159.286998 
L 67.433906 159.170631 
L 82.872641 149.412301 
L 98.311376 151.270254 
L 113.750111 157.926993 
L 129.188846 137.587028 
L 144.627582 141.509668 
L 160.066317 165.619621 
L 175.505052 165.277484 
L 190.943787 136.5514 
L 206.382522 162.198509 
L 221.821257 165.489998 
L 237.259993 165.612923 
L 252.698728 165.778332 
L 268.137463 162.91191 
L 283.576198 156.438224 
L 299.014933 164.893115 
L 314.453668 161.787879 
L 329.892404 156.446298 
L 345.331139 165.475901 
L 360.769874 165.818473 
L 376.208609 165.643581 
L 391.647344 164.059428 
L 407.08608 165.89914 
" style="fill:none;stroke:#1b9e77;stroke-linecap:square;stroke-opacity:0.5;stroke-width:1.5;"/>
   </g>
   <g id="line2d_104">
    <path clip-path="url(#p05a88fabd1)" d="M 51.99517 165.834748 
L 67.433906 165.56995 
L 82.872641 165.696083 
L 98.311376 165.852151 
L 113.750111 165.886196 
L 129.188846 165.91926 
L 144.627582 165.931495 
L 160.066317 165.942583 
L 175.505052 165.947012 
L 190.943787 165.945097 
L 206.382522 165.932515 
L 221.821257 165.935145 
L 237.259993 165.940913 
L 252.698728 165.943428 
L 268.137463 165.920773 
L 283.576198 165.887993 
L 299.014933 165.602072 
L 314.453668 156.36448 
L 329.892404 130.106201 
L 345.331139 134.119508 
L 360.769874 118.757312 
L 376.208609 134.450355 
L 391.647344 160.228324 
L 407.08608 158.352502 
" style="fill:none;stroke:#1b9e77;stroke-linecap:square;stroke-opacity:0.5;stroke-width:1.5;"/>
   </g>
   <g id="line2d_105">
    <path clip-path="url(#p05a88fabd1)" d="M 51.99517 165.92822 
L 67.433906 165.766733 
L 82.872641 165.73841 
L 98.311376 165.761313 
L 113.750111 165.846816 
L 129.188846 165.878006 
L 144.627582 165.884992 
L 160.066317 165.899528 
L 175.505052 165.865371 
L 190.943787 165.904691 
L 206.382522 165.572592 
L 221.821257 160.582803 
L 237.259993 158.805067 
L 252.698728 163.50898 
L 268.137463 163.767232 
L 283.576198 148.17726 
L 299.014933 159.173869 
L 314.453668 146.424339 
L 329.892404 114.428701 
L 345.331139 155.654583 
L 360.769874 151.576968 
L 376.208609 147.110881 
L 391.647344 155.486296 
L 407.08608 163.322444 
" style="fill:none;stroke:#1b9e77;stroke-linecap:square;stroke-opacity:0.5;stroke-width:1.5;"/>
   </g>
   <g id="line2d_106">
    <path clip-path="url(#p05a88fabd1)" d="M 51.99517 165.769145 
L 67.433906 163.246115 
L 82.872641 140.039658 
L 98.311376 111.562859 
L 113.750111 145.383222 
L 129.188846 164.399996 
L 144.627582 163.813028 
L 160.066317 160.049233 
L 175.505052 148.533257 
L 190.943787 149.608087 
L 206.382522 161.358789 
L 221.821257 162.055232 
L 237.259993 162.096826 
L 252.698728 158.772457 
L 268.137463 164.130703 
L 283.576198 165.409586 
L 299.014933 165.690373 
L 314.453668 165.853833 
L 329.892404 165.879335 
L 345.331139 165.915669 
L 360.769874 165.936506 
L 376.208609 165.924831 
L 391.647344 165.457098 
L 407.08608 165.180258 
" style="fill:none;stroke:#1b9e77;stroke-linecap:square;stroke-opacity:0.5;stroke-width:1.5;"/>
   </g>
   <g id="line2d_107">
    <path clip-path="url(#p05a88fabd1)" d="M 51.99517 165.881279 
L 67.433906 165.277343 
L 82.872641 164.689904 
L 98.311376 164.270383 
L 113.750111 158.640028 
L 129.188846 165.380122 
L 144.627582 157.619116 
L 160.066317 149.195494 
L 175.505052 164.278879 
L 190.943787 165.336526 
L 206.382522 165.29674 
L 221.821257 160.779541 
L 237.259993 45.80596 
L 252.698728 165.290562 
L 268.137463 165.93408 
L 283.576198 165.890089 
L 299.014933 165.114891 
L 314.453668 164.163138 
L 329.892404 165.906863 
L 345.331139 165.940187 
L 360.769874 165.285242 
L 376.208609 165.270111 
L 391.647344 165.199879 
L 407.08608 165.619735 
" style="fill:none;stroke:#1b9e77;stroke-linecap:square;stroke-opacity:0.5;stroke-width:1.5;"/>
   </g>
   <g id="line2d_108">
    <path clip-path="url(#p05a88fabd1)" d="M 51.99517 165.761209 
L 67.433906 165.272372 
L 82.872641 165.15532 
L 98.311376 165.162436 
L 113.750111 165.367499 
L 129.188846 165.586008 
L 144.627582 165.319749 
L 160.066317 165.753986 
L 175.505052 162.730716 
L 190.943787 159.382691 
L 206.382522 126.154357 
L 221.821257 163.635305 
L 237.259993 151.237766 
L 252.698728 133.614482 
L 268.137463 155.31022 
L 283.576198 123.415035 
L 299.014933 158.054192 
L 314.453668 164.192706 
L 329.892404 165.073787 
L 345.331139 162.543971 
L 360.769874 165.672249 
L 376.208609 165.889511 
L 391.647344 165.840054 
L 407.08608 165.940473 
" style="fill:none;stroke:#1b9e77;stroke-linecap:square;stroke-opacity:0.5;stroke-width:1.5;"/>
   </g>
   <g id="line2d_109">
    <path clip-path="url(#p05a88fabd1)" d="M 51.99517 165.818569 
L 67.433906 165.495066 
L 82.872641 165.570028 
L 98.311376 165.773995 
L 113.750111 165.852589 
L 129.188846 165.900391 
L 144.627582 165.907763 
L 160.066317 165.93486 
L 175.505052 165.939281 
L 190.943787 165.794671 
L 206.382522 162.531159 
L 221.821257 151.53143 
L 237.259993 129.30138 
L 252.698728 116.163391 
L 268.137463 157.313439 
L 283.576198 163.472096 
L 299.014933 165.73778 
L 314.453668 165.568781 
L 329.892404 164.651534 
L 345.331139 165.237825 
L 360.769874 163.512 
L 376.208609 161.959037 
L 391.647344 123.805494 
L 407.08608 163.293537 
" style="fill:none;stroke:#1b9e77;stroke-linecap:square;stroke-opacity:0.5;stroke-width:1.5;"/>
   </g>
   <g id="line2d_110">
    <path clip-path="url(#p05a88fabd1)" d="M 51.99517 158.930845 
L 67.433906 144.864849 
L 82.872641 127.090588 
L 98.311376 118.081871 
L 113.750111 129.315299 
L 129.188846 155.117892 
L 144.627582 165.741738 
L 160.066317 165.717467 
L 175.505052 165.533664 
L 190.943787 165.617104 
L 206.382522 165.756083 
L 221.821257 165.860208 
L 237.259993 165.900226 
L 252.698728 165.913031 
L 268.137463 165.908502 
L 283.576198 165.918662 
L 299.014933 165.932974 
L 314.453668 165.937944 
L 329.892404 165.937856 
L 345.331139 165.918785 
L 360.769874 165.880034 
L 376.208609 165.908729 
L 391.647344 164.064146 
L 407.08608 161.217598 
" style="fill:none;stroke:#1b9e77;stroke-linecap:square;stroke-opacity:0.5;stroke-width:1.5;"/>
   </g>
   <g id="line2d_111">
    <path clip-path="url(#p05a88fabd1)" d="M 51.99517 117.349016 
L 67.433906 165.951984 
L 82.872641 165.951984 
L 98.311376 135.425287 
L 113.750111 146.544675 
L 129.188846 123.139104 
L 144.627582 157.368552 
L 160.066317 152.093423 
L 175.505052 160.704032 
L 190.943787 164.774129 
L 206.382522 165.388059 
L 221.821257 165.951984 
L 237.259993 165.951984 
L 252.698728 165.951984 
L 268.137463 165.951984 
L 283.576198 165.951984 
L 299.014933 165.951984 
L 314.453668 165.951984 
L 329.892404 165.951984 
L 345.331139 165.951984 
L 360.769874 165.951984 
L 376.208609 165.951984 
L 391.647344 165.951984 
L 407.08608 165.951984 
" style="fill:none;stroke:#d95f02;stroke-linecap:square;stroke-width:1.5;"/>
   </g>
   <g id="patch_3">
    <path d="M 34.240625 173.52 
L 34.240625 7.2 
" style="fill:none;stroke:#000000;stroke-linecap:square;stroke-linejoin:miter;stroke-width:0.8;"/>
   </g>
   <g id="patch_4">
    <path d="M 34.240625 173.52 
L 424.840625 173.52 
" style="fill:none;stroke:#000000;stroke-linecap:square;stroke-linejoin:miter;stroke-width:0.8;"/>
   </g>
   <g id="legend_1">
    <g id="patch_5">
     <path d="M 366.673438 29.878125 
L 417.840625 29.878125 
Q 419.840625 29.878125 419.840625 27.878125 
L 419.840625 14.2 
Q 419.840625 12.2 417.840625 12.2 
L 366.673438 12.2 
Q 364.673438 12.2 364.673438 14.2 
L 364.673438 27.878125 
Q 364.673438 29.878125 366.673438 29.878125 
z
" style="fill:#ffffff;opacity:0.8;stroke:#cccccc;stroke-linejoin:miter;"/>
    </g>
    <g id="line2d_112">
     <path d="M 368.673438 20.298438 
L 388.673438 20.298438 
" style="fill:none;stroke:#d95f02;stroke-linecap:square;stroke-width:1.5;"/>
    </g>
    <g id="line2d_113"/>
    <g id="text_13">
     <!-- real -->
     <defs>
      <path d="M 9.421875 75.984375 
L 18.40625 75.984375 
L 18.40625 0 
L 9.421875 0 
z
" id="DejaVuSans-108"/>
     </defs>
     <g transform="translate(396.673438 23.798438)scale(0.1 -0.1)">
      <use xlink:href="#DejaVuSans-114"/>
      <use x="41.082031" xlink:href="#DejaVuSans-101"/>
      <use x="102.605469" xlink:href="#DejaVuSans-97"/>
      <use x="163.884766" xlink:href="#DejaVuSans-108"/>
     </g>
    </g>
   </g>
  </g>
 </g>
 <defs>
  <clipPath id="p05a88fabd1">
   <rect height="166.32" width="390.6" x="34.240625" y="7.2"/>
  </clipPath>
 </defs>
</svg>
