<?xml version="1.0" encoding="utf-8" standalone="no"?>
<!DOCTYPE svg PUBLIC "-//W3C//DTD SVG 1.1//EN"
  "http://www.w3.org/Graphics/SVG/1.1/DTD/svg11.dtd">
<!-- Created with matplotlib (https://matplotlib.org/) -->
<svg height="211.07625pt" version="1.1" viewBox="0 0 445.62794 211.07625" width="445.62794pt" xmlns="http://www.w3.org/2000/svg" xmlns:xlink="http://www.w3.org/1999/xlink">
 <defs>
  <style type="text/css">
*{stroke-linecap:butt;stroke-linejoin:round;}
  </style>
 </defs>
 <g id="figure_1">
  <g id="patch_1">
   <path d="M 0 211.07625 
L 445.62794 211.07625 
L 445.62794 0 
L 0 0 
z
" style="fill:#ffffff;"/>
  </g>
  <g id="axes_1">
   <g id="patch_2">
    <path d="M 43.78125 173.52 
L 434.38125 173.52 
L 434.38125 7.2 
L 43.78125 7.2 
z
" style="fill:#ffffff;"/>
   </g>
   <g id="matplotlib.axis_1">
    <g id="xtick_1">
     <g id="line2d_1">
      <defs>
       <path d="M 0 0 
L 0 3.5 
" id="md867159ded" style="stroke:#000000;stroke-width:0.8;"/>
      </defs>
      <g>
       <use style="stroke:#000000;stroke-width:0.8;" x="46.09706" xlink:href="#md867159ded" y="173.52"/>
      </g>
     </g>
     <g id="text_1">
      <!-- 0 -->
      <defs>
       <path d="M 31.78125 66.40625 
Q 24.171875 66.40625 20.328125 58.90625 
Q 16.5 51.421875 16.5 36.375 
Q 16.5 21.390625 20.328125 13.890625 
Q 24.171875 6.390625 31.78125 6.390625 
Q 39.453125 6.390625 43.28125 13.890625 
Q 47.125 21.390625 47.125 36.375 
Q 47.125 51.421875 43.28125 58.90625 
Q 39.453125 66.40625 31.78125 66.40625 
z
M 31.78125 74.21875 
Q 44.046875 74.21875 50.515625 64.515625 
Q 56.984375 54.828125 56.984375 36.375 
Q 56.984375 17.96875 50.515625 8.265625 
Q 44.046875 -1.421875 31.78125 -1.421875 
Q 19.53125 -1.421875 13.0625 8.265625 
Q 6.59375 17.96875 6.59375 36.375 
Q 6.59375 54.828125 13.0625 64.515625 
Q 19.53125 74.21875 31.78125 74.21875 
z
" id="DejaVuSans-48"/>
      </defs>
      <g transform="translate(42.91581 188.118438)scale(0.1 -0.1)">
       <use xlink:href="#DejaVuSans-48"/>
      </g>
     </g>
    </g>
    <g id="xtick_2">
     <g id="line2d_2">
      <g>
       <use style="stroke:#000000;stroke-width:0.8;" x="123.290736" xlink:href="#md867159ded" y="173.52"/>
      </g>
     </g>
     <g id="text_2">
      <!-- 5 -->
      <defs>
       <path d="M 10.796875 72.90625 
L 49.515625 72.90625 
L 49.515625 64.59375 
L 19.828125 64.59375 
L 19.828125 46.734375 
Q 21.96875 47.46875 24.109375 47.828125 
Q 26.265625 48.1875 28.421875 48.1875 
Q 40.625 48.1875 47.75 41.5 
Q 54.890625 34.8125 54.890625 23.390625 
Q 54.890625 11.625 47.5625 5.09375 
Q 40.234375 -1.421875 26.90625 -1.421875 
Q 22.3125 -1.421875 17.546875 -0.640625 
Q 12.796875 0.140625 7.71875 1.703125 
L 7.71875 11.625 
Q 12.109375 9.234375 16.796875 8.0625 
Q 21.484375 6.890625 26.703125 6.890625 
Q 35.15625 6.890625 40.078125 11.328125 
Q 45.015625 15.765625 45.015625 23.390625 
Q 45.015625 31 40.078125 35.4375 
Q 35.15625 39.890625 26.703125 39.890625 
Q 22.75 39.890625 18.8125 39.015625 
Q 14.890625 38.140625 10.796875 36.28125 
z
" id="DejaVuSans-53"/>
      </defs>
      <g transform="translate(120.109486 188.118438)scale(0.1 -0.1)">
       <use xlink:href="#DejaVuSans-53"/>
      </g>
     </g>
    </g>
    <g id="xtick_3">
     <g id="line2d_3">
      <g>
       <use style="stroke:#000000;stroke-width:0.8;" x="200.484412" xlink:href="#md867159ded" y="173.52"/>
      </g>
     </g>
     <g id="text_3">
      <!-- 10 -->
      <defs>
       <path d="M 12.40625 8.296875 
L 28.515625 8.296875 
L 28.515625 63.921875 
L 10.984375 60.40625 
L 10.984375 69.390625 
L 28.421875 72.90625 
L 38.28125 72.90625 
L 38.28125 8.296875 
L 54.390625 8.296875 
L 54.390625 0 
L 12.40625 0 
z
" id="DejaVuSans-49"/>
      </defs>
      <g transform="translate(194.121912 188.118438)scale(0.1 -0.1)">
       <use xlink:href="#DejaVuSans-49"/>
       <use x="63.623047" xlink:href="#DejaVuSans-48"/>
      </g>
     </g>
    </g>
    <g id="xtick_4">
     <g id="line2d_4">
      <g>
       <use style="stroke:#000000;stroke-width:0.8;" x="277.678088" xlink:href="#md867159ded" y="173.52"/>
      </g>
     </g>
     <g id="text_4">
      <!-- 15 -->
      <g transform="translate(271.315588 188.118438)scale(0.1 -0.1)">
       <use xlink:href="#DejaVuSans-49"/>
       <use x="63.623047" xlink:href="#DejaVuSans-53"/>
      </g>
     </g>
    </g>
    <g id="xtick_5">
     <g id="line2d_5">
      <g>
       <use style="stroke:#000000;stroke-width:0.8;" x="354.871764" xlink:href="#md867159ded" y="173.52"/>
      </g>
     </g>
     <g id="text_5">
      <!-- 20 -->
      <defs>
       <path d="M 19.1875 8.296875 
L 53.609375 8.296875 
L 53.609375 0 
L 7.328125 0 
L 7.328125 8.296875 
Q 12.9375 14.109375 22.625 23.890625 
Q 32.328125 33.6875 34.8125 36.53125 
Q 39.546875 41.84375 41.421875 45.53125 
Q 43.3125 49.21875 43.3125 52.78125 
Q 43.3125 58.59375 39.234375 62.25 
Q 35.15625 65.921875 28.609375 65.921875 
Q 23.96875 65.921875 18.8125 64.3125 
Q 13.671875 62.703125 7.8125 59.421875 
L 7.8125 69.390625 
Q 13.765625 71.78125 18.9375 73 
Q 24.125 74.21875 28.421875 74.21875 
Q 39.75 74.21875 46.484375 68.546875 
Q 53.21875 62.890625 53.21875 53.421875 
Q 53.21875 48.921875 51.53125 44.890625 
Q 49.859375 40.875 45.40625 35.40625 
Q 44.1875 33.984375 37.640625 27.21875 
Q 31.109375 20.453125 19.1875 8.296875 
z
" id="DejaVuSans-50"/>
      </defs>
      <g transform="translate(348.509264 188.118438)scale(0.1 -0.1)">
       <use xlink:href="#DejaVuSans-50"/>
       <use x="63.623047" xlink:href="#DejaVuSans-48"/>
      </g>
     </g>
    </g>
    <g id="xtick_6">
     <g id="line2d_6">
      <g>
       <use style="stroke:#000000;stroke-width:0.8;" x="432.06544" xlink:href="#md867159ded" y="173.52"/>
      </g>
     </g>
     <g id="text_6">
      <!-- 25 -->
      <g transform="translate(425.70294 188.118438)scale(0.1 -0.1)">
       <use xlink:href="#DejaVuSans-50"/>
       <use x="63.623047" xlink:href="#DejaVuSans-53"/>
      </g>
     </g>
    </g>
    <g id="text_7">
     <!-- hour -->
     <defs>
      <path d="M 54.890625 33.015625 
L 54.890625 0 
L 45.90625 0 
L 45.90625 32.71875 
Q 45.90625 40.484375 42.875 44.328125 
Q 39.84375 48.1875 33.796875 48.1875 
Q 26.515625 48.1875 22.3125 43.546875 
Q 18.109375 38.921875 18.109375 30.90625 
L 18.109375 0 
L 9.078125 0 
L 9.078125 75.984375 
L 18.109375 75.984375 
L 18.109375 46.1875 
Q 21.34375 51.125 25.703125 53.5625 
Q 30.078125 56 35.796875 56 
Q 45.21875 56 50.046875 50.171875 
Q 54.890625 44.34375 54.890625 33.015625 
z
" id="DejaVuSans-104"/>
      <path d="M 30.609375 48.390625 
Q 23.390625 48.390625 19.1875 42.75 
Q 14.984375 37.109375 14.984375 27.296875 
Q 14.984375 17.484375 19.15625 11.84375 
Q 23.34375 6.203125 30.609375 6.203125 
Q 37.796875 6.203125 41.984375 11.859375 
Q 46.1875 17.53125 46.1875 27.296875 
Q 46.1875 37.015625 41.984375 42.703125 
Q 37.796875 48.390625 30.609375 48.390625 
z
M 30.609375 56 
Q 42.328125 56 49.015625 48.375 
Q 55.71875 40.765625 55.71875 27.296875 
Q 55.71875 13.875 49.015625 6.21875 
Q 42.328125 -1.421875 30.609375 -1.421875 
Q 18.84375 -1.421875 12.171875 6.21875 
Q 5.515625 13.875 5.515625 27.296875 
Q 5.515625 40.765625 12.171875 48.375 
Q 18.84375 56 30.609375 56 
z
" id="DejaVuSans-111"/>
      <path d="M 8.5 21.578125 
L 8.5 54.6875 
L 17.484375 54.6875 
L 17.484375 21.921875 
Q 17.484375 14.15625 20.5 10.265625 
Q 23.53125 6.390625 29.59375 6.390625 
Q 36.859375 6.390625 41.078125 11.03125 
Q 45.3125 15.671875 45.3125 23.6875 
L 45.3125 54.6875 
L 54.296875 54.6875 
L 54.296875 0 
L 45.3125 0 
L 45.3125 8.40625 
Q 42.046875 3.421875 37.71875 1 
Q 33.40625 -1.421875 27.6875 -1.421875 
Q 18.265625 -1.421875 13.375 4.4375 
Q 8.5 10.296875 8.5 21.578125 
z
M 31.109375 56 
z
" id="DejaVuSans-117"/>
      <path d="M 41.109375 46.296875 
Q 39.59375 47.171875 37.8125 47.578125 
Q 36.03125 48 33.890625 48 
Q 26.265625 48 22.1875 43.046875 
Q 18.109375 38.09375 18.109375 28.8125 
L 18.109375 0 
L 9.078125 0 
L 9.078125 54.6875 
L 18.109375 54.6875 
L 18.109375 46.1875 
Q 20.953125 51.171875 25.484375 53.578125 
Q 30.03125 56 36.53125 56 
Q 37.453125 56 38.578125 55.875 
Q 39.703125 55.765625 41.0625 55.515625 
z
" id="DejaVuSans-114"/>
     </defs>
     <g transform="translate(227.628906 201.796563)scale(0.1 -0.1)">
      <use xlink:href="#DejaVuSans-104"/>
      <use x="63.378906" xlink:href="#DejaVuSans-111"/>
      <use x="124.560547" xlink:href="#DejaVuSans-117"/>
      <use x="187.939453" xlink:href="#DejaVuSans-114"/>
     </g>
    </g>
   </g>
   <g id="matplotlib.axis_2">
    <g id="ytick_1">
     <g id="line2d_7">
      <defs>
       <path d="M 0 0 
L -3.5 0 
" id="md7e862419b" style="stroke:#000000;stroke-width:0.8;"/>
      </defs>
      <g>
       <use style="stroke:#000000;stroke-width:0.8;" x="43.78125" xlink:href="#md7e862419b" y="165.960144"/>
      </g>
     </g>
     <g id="text_8">
      <!-- 0.0 -->
      <defs>
       <path d="M 10.6875 12.40625 
L 21 12.40625 
L 21 0 
L 10.6875 0 
z
" id="DejaVuSans-46"/>
      </defs>
      <g transform="translate(20.878125 169.759363)scale(0.1 -0.1)">
       <use xlink:href="#DejaVuSans-48"/>
       <use x="63.623047" xlink:href="#DejaVuSans-46"/>
       <use x="95.410156" xlink:href="#DejaVuSans-48"/>
      </g>
     </g>
    </g>
    <g id="ytick_2">
     <g id="line2d_8">
      <g>
       <use style="stroke:#000000;stroke-width:0.8;" x="43.78125" xlink:href="#md7e862419b" y="132.884135"/>
      </g>
     </g>
     <g id="text_9">
      <!-- 0.5 -->
      <g transform="translate(20.878125 136.683353)scale(0.1 -0.1)">
       <use xlink:href="#DejaVuSans-48"/>
       <use x="63.623047" xlink:href="#DejaVuSans-46"/>
       <use x="95.410156" xlink:href="#DejaVuSans-53"/>
      </g>
     </g>
    </g>
    <g id="ytick_3">
     <g id="line2d_9">
      <g>
       <use style="stroke:#000000;stroke-width:0.8;" x="43.78125" xlink:href="#md7e862419b" y="99.808125"/>
      </g>
     </g>
     <g id="text_10">
      <!-- 1.0 -->
      <g transform="translate(20.878125 103.607343)scale(0.1 -0.1)">
       <use xlink:href="#DejaVuSans-49"/>
       <use x="63.623047" xlink:href="#DejaVuSans-46"/>
       <use x="95.410156" xlink:href="#DejaVuSans-48"/>
      </g>
     </g>
    </g>
    <g id="ytick_4">
     <g id="line2d_10">
      <g>
       <use style="stroke:#000000;stroke-width:0.8;" x="43.78125" xlink:href="#md7e862419b" y="66.732115"/>
      </g>
     </g>
     <g id="text_11">
      <!-- 1.5 -->
      <g transform="translate(20.878125 70.531333)scale(0.1 -0.1)">
       <use xlink:href="#DejaVuSans-49"/>
       <use x="63.623047" xlink:href="#DejaVuSans-46"/>
       <use x="95.410156" xlink:href="#DejaVuSans-53"/>
      </g>
     </g>
    </g>
    <g id="ytick_5">
     <g id="line2d_11">
      <g>
       <use style="stroke:#000000;stroke-width:0.8;" x="43.78125" xlink:href="#md7e862419b" y="33.656105"/>
      </g>
     </g>
     <g id="text_12">
      <!-- 2.0 -->
      <g transform="translate(20.878125 37.455323)scale(0.1 -0.1)">
       <use xlink:href="#DejaVuSans-50"/>
       <use x="63.623047" xlink:href="#DejaVuSans-46"/>
       <use x="95.410156" xlink:href="#DejaVuSans-48"/>
      </g>
     </g>
    </g>
    <g id="text_13">
     <!-- precipitation [mm/hour] -->
     <defs>
      <path d="M 18.109375 8.203125 
L 18.109375 -20.796875 
L 9.078125 -20.796875 
L 9.078125 54.6875 
L 18.109375 54.6875 
L 18.109375 46.390625 
Q 20.953125 51.265625 25.265625 53.625 
Q 29.59375 56 35.59375 56 
Q 45.5625 56 51.78125 48.09375 
Q 58.015625 40.1875 58.015625 27.296875 
Q 58.015625 14.40625 51.78125 6.484375 
Q 45.5625 -1.421875 35.59375 -1.421875 
Q 29.59375 -1.421875 25.265625 0.953125 
Q 20.953125 3.328125 18.109375 8.203125 
z
M 48.6875 27.296875 
Q 48.6875 37.203125 44.609375 42.84375 
Q 40.53125 48.484375 33.40625 48.484375 
Q 26.265625 48.484375 22.1875 42.84375 
Q 18.109375 37.203125 18.109375 27.296875 
Q 18.109375 17.390625 22.1875 11.75 
Q 26.265625 6.109375 33.40625 6.109375 
Q 40.53125 6.109375 44.609375 11.75 
Q 48.6875 17.390625 48.6875 27.296875 
z
" id="DejaVuSans-112"/>
      <path d="M 56.203125 29.59375 
L 56.203125 25.203125 
L 14.890625 25.203125 
Q 15.484375 15.921875 20.484375 11.0625 
Q 25.484375 6.203125 34.421875 6.203125 
Q 39.59375 6.203125 44.453125 7.46875 
Q 49.3125 8.734375 54.109375 11.28125 
L 54.109375 2.78125 
Q 49.265625 0.734375 44.1875 -0.34375 
Q 39.109375 -1.421875 33.890625 -1.421875 
Q 20.796875 -1.421875 13.15625 6.1875 
Q 5.515625 13.8125 5.515625 26.8125 
Q 5.515625 40.234375 12.765625 48.109375 
Q 20.015625 56 32.328125 56 
Q 43.359375 56 49.78125 48.890625 
Q 56.203125 41.796875 56.203125 29.59375 
z
M 47.21875 32.234375 
Q 47.125 39.59375 43.09375 43.984375 
Q 39.0625 48.390625 32.421875 48.390625 
Q 24.90625 48.390625 20.390625 44.140625 
Q 15.875 39.890625 15.1875 32.171875 
z
" id="DejaVuSans-101"/>
      <path d="M 48.78125 52.59375 
L 48.78125 44.1875 
Q 44.96875 46.296875 41.140625 47.34375 
Q 37.3125 48.390625 33.40625 48.390625 
Q 24.65625 48.390625 19.8125 42.84375 
Q 14.984375 37.3125 14.984375 27.296875 
Q 14.984375 17.28125 19.8125 11.734375 
Q 24.65625 6.203125 33.40625 6.203125 
Q 37.3125 6.203125 41.140625 7.25 
Q 44.96875 8.296875 48.78125 10.40625 
L 48.78125 2.09375 
Q 45.015625 0.34375 40.984375 -0.53125 
Q 36.96875 -1.421875 32.421875 -1.421875 
Q 20.0625 -1.421875 12.78125 6.34375 
Q 5.515625 14.109375 5.515625 27.296875 
Q 5.515625 40.671875 12.859375 48.328125 
Q 20.21875 56 33.015625 56 
Q 37.15625 56 41.109375 55.140625 
Q 45.0625 54.296875 48.78125 52.59375 
z
" id="DejaVuSans-99"/>
      <path d="M 9.421875 54.6875 
L 18.40625 54.6875 
L 18.40625 0 
L 9.421875 0 
z
M 9.421875 75.984375 
L 18.40625 75.984375 
L 18.40625 64.59375 
L 9.421875 64.59375 
z
" id="DejaVuSans-105"/>
      <path d="M 18.3125 70.21875 
L 18.3125 54.6875 
L 36.8125 54.6875 
L 36.8125 47.703125 
L 18.3125 47.703125 
L 18.3125 18.015625 
Q 18.3125 11.328125 20.140625 9.421875 
Q 21.96875 7.515625 27.59375 7.515625 
L 36.8125 7.515625 
L 36.8125 0 
L 27.59375 0 
Q 17.1875 0 13.234375 3.875 
Q 9.28125 7.765625 9.28125 18.015625 
L 9.28125 47.703125 
L 2.6875 47.703125 
L 2.6875 54.6875 
L 9.28125 54.6875 
L 9.28125 70.21875 
z
" id="DejaVuSans-116"/>
      <path d="M 34.28125 27.484375 
Q 23.390625 27.484375 19.1875 25 
Q 14.984375 22.515625 14.984375 16.5 
Q 14.984375 11.71875 18.140625 8.90625 
Q 21.296875 6.109375 26.703125 6.109375 
Q 34.1875 6.109375 38.703125 11.40625 
Q 43.21875 16.703125 43.21875 25.484375 
L 43.21875 27.484375 
z
M 52.203125 31.203125 
L 52.203125 0 
L 43.21875 0 
L 43.21875 8.296875 
Q 40.140625 3.328125 35.546875 0.953125 
Q 30.953125 -1.421875 24.3125 -1.421875 
Q 15.921875 -1.421875 10.953125 3.296875 
Q 6 8.015625 6 15.921875 
Q 6 25.140625 12.171875 29.828125 
Q 18.359375 34.515625 30.609375 34.515625 
L 43.21875 34.515625 
L 43.21875 35.40625 
Q 43.21875 41.609375 39.140625 45 
Q 35.0625 48.390625 27.6875 48.390625 
Q 23 48.390625 18.546875 47.265625 
Q 14.109375 46.140625 10.015625 43.890625 
L 10.015625 52.203125 
Q 14.9375 54.109375 19.578125 55.046875 
Q 24.21875 56 28.609375 56 
Q 40.484375 56 46.34375 49.84375 
Q 52.203125 43.703125 52.203125 31.203125 
z
" id="DejaVuSans-97"/>
      <path d="M 54.890625 33.015625 
L 54.890625 0 
L 45.90625 0 
L 45.90625 32.71875 
Q 45.90625 40.484375 42.875 44.328125 
Q 39.84375 48.1875 33.796875 48.1875 
Q 26.515625 48.1875 22.3125 43.546875 
Q 18.109375 38.921875 18.109375 30.90625 
L 18.109375 0 
L 9.078125 0 
L 9.078125 54.6875 
L 18.109375 54.6875 
L 18.109375 46.1875 
Q 21.34375 51.125 25.703125 53.5625 
Q 30.078125 56 35.796875 56 
Q 45.21875 56 50.046875 50.171875 
Q 54.890625 44.34375 54.890625 33.015625 
z
" id="DejaVuSans-110"/>
      <path id="DejaVuSans-32"/>
      <path d="M 8.59375 75.984375 
L 29.296875 75.984375 
L 29.296875 69 
L 17.578125 69 
L 17.578125 -6.203125 
L 29.296875 -6.203125 
L 29.296875 -13.1875 
L 8.59375 -13.1875 
z
" id="DejaVuSans-91"/>
      <path d="M 52 44.1875 
Q 55.375 50.25 60.0625 53.125 
Q 64.75 56 71.09375 56 
Q 79.640625 56 84.28125 50.015625 
Q 88.921875 44.046875 88.921875 33.015625 
L 88.921875 0 
L 79.890625 0 
L 79.890625 32.71875 
Q 79.890625 40.578125 77.09375 44.375 
Q 74.3125 48.1875 68.609375 48.1875 
Q 61.625 48.1875 57.5625 43.546875 
Q 53.515625 38.921875 53.515625 30.90625 
L 53.515625 0 
L 44.484375 0 
L 44.484375 32.71875 
Q 44.484375 40.625 41.703125 44.40625 
Q 38.921875 48.1875 33.109375 48.1875 
Q 26.21875 48.1875 22.15625 43.53125 
Q 18.109375 38.875 18.109375 30.90625 
L 18.109375 0 
L 9.078125 0 
L 9.078125 54.6875 
L 18.109375 54.6875 
L 18.109375 46.1875 
Q 21.1875 51.21875 25.484375 53.609375 
Q 29.78125 56 35.6875 56 
Q 41.65625 56 45.828125 52.96875 
Q 50 49.953125 52 44.1875 
z
" id="DejaVuSans-109"/>
      <path d="M 25.390625 72.90625 
L 33.6875 72.90625 
L 8.296875 -9.28125 
L 0 -9.28125 
z
" id="DejaVuSans-47"/>
      <path d="M 30.421875 75.984375 
L 30.421875 -13.1875 
L 9.71875 -13.1875 
L 9.71875 -6.203125 
L 21.390625 -6.203125 
L 21.390625 69 
L 9.71875 69 
L 9.71875 75.984375 
z
" id="DejaVuSans-93"/>
     </defs>
     <g transform="translate(14.798438 150.335781)rotate(-90)scale(0.1 -0.1)">
      <use xlink:href="#DejaVuSans-112"/>
      <use x="63.476562" xlink:href="#DejaVuSans-114"/>
      <use x="104.558594" xlink:href="#DejaVuSans-101"/>
      <use x="166.082031" xlink:href="#DejaVuSans-99"/>
      <use x="221.0625" xlink:href="#DejaVuSans-105"/>
      <use x="248.845703" xlink:href="#DejaVuSans-112"/>
      <use x="312.322266" xlink:href="#DejaVuSans-105"/>
      <use x="340.105469" xlink:href="#DejaVuSans-116"/>
      <use x="379.314453" xlink:href="#DejaVuSans-97"/>
      <use x="440.59375" xlink:href="#DejaVuSans-116"/>
      <use x="479.802734" xlink:href="#DejaVuSans-105"/>
      <use x="507.585938" xlink:href="#DejaVuSans-111"/>
      <use x="568.767578" xlink:href="#DejaVuSans-110"/>
      <use x="632.146484" xlink:href="#DejaVuSans-32"/>
      <use x="663.933594" xlink:href="#DejaVuSans-91"/>
      <use x="702.947266" xlink:href="#DejaVuSans-109"/>
      <use x="800.359375" xlink:href="#DejaVuSans-109"/>
      <use x="897.771484" xlink:href="#DejaVuSans-47"/>
      <use x="931.462891" xlink:href="#DejaVuSans-104"/>
      <use x="994.841797" xlink:href="#DejaVuSans-111"/>
      <use x="1056.023438" xlink:href="#DejaVuSans-117"/>
      <use x="1119.402344" xlink:href="#DejaVuSans-114"/>
      <use x="1160.515625" xlink:href="#DejaVuSans-93"/>
     </g>
    </g>
   </g>
   <g id="line2d_12">
    <path clip-path="url(#pf7f79ec230)" d="M 61.535795 165.137838 
L 76.974531 159.604658 
L 92.413266 118.039366 
L 107.852001 108.283258 
L 123.290736 158.397595 
L 138.729471 151.164071 
L 154.168207 156.316687 
L 169.606942 161.931127 
L 185.045677 164.605735 
L 200.484412 164.930433 
L 215.923147 165.042586 
L 231.361882 165.261063 
L 246.800618 164.924432 
L 262.239353 164.605168 
L 277.678088 146.973344 
L 293.116823 152.652184 
L 308.555558 155.369958 
L 323.994293 159.494908 
L 339.433029 160.200628 
L 354.871764 161.826945 
L 370.310499 165.380324 
L 385.749234 151.121194 
L 401.187969 160.847998 
L 416.626705 163.57924 
" style="fill:none;stroke:#1b9e77;stroke-linecap:square;stroke-opacity:0.5;stroke-width:1.5;"/>
   </g>
   <g id="line2d_13">
    <path clip-path="url(#pf7f79ec230)" d="M 61.535795 164.923759 
L 76.974531 165.401606 
L 92.413266 165.743741 
L 107.852001 165.719917 
L 123.290736 165.735005 
L 138.729471 165.74866 
L 154.168207 165.784508 
L 169.606942 165.861166 
L 185.045677 165.84504 
L 200.484412 164.928497 
L 215.923147 149.169624 
L 231.361882 156.798599 
L 246.800618 158.098874 
L 262.239353 153.076103 
L 277.678088 134.905771 
L 293.116823 122.04746 
L 308.555558 116.08201 
L 323.994293 155.158347 
L 339.433029 157.882428 
L 354.871764 144.798969 
L 370.310499 148.292463 
L 385.749234 162.085637 
L 401.187969 165.666029 
L 416.626705 165.93653 
" style="fill:none;stroke:#1b9e77;stroke-linecap:square;stroke-opacity:0.5;stroke-width:1.5;"/>
   </g>
   <g id="line2d_14">
    <path clip-path="url(#pf7f79ec230)" d="M 61.535795 164.336554 
L 76.974531 160.560488 
L 92.413266 158.859442 
L 107.852001 142.821326 
L 123.290736 135.341585 
L 138.729471 152.109832 
L 154.168207 156.04455 
L 169.606942 149.312758 
L 185.045677 155.119613 
L 200.484412 163.89729 
L 215.923147 165.653137 
L 231.361882 165.752077 
L 246.800618 165.682689 
L 262.239353 164.407491 
L 277.678088 157.750678 
L 293.116823 154.757818 
L 308.555558 160.455065 
L 323.994293 163.325515 
L 339.433029 164.641036 
L 354.871764 163.596102 
L 370.310499 161.379972 
L 385.749234 153.06815 
L 401.187969 112.580651 
L 416.626705 154.236921 
" style="fill:none;stroke:#1b9e77;stroke-linecap:square;stroke-opacity:0.5;stroke-width:1.5;"/>
   </g>
   <g id="line2d_15">
    <path clip-path="url(#pf7f79ec230)" d="M 61.535795 159.300224 
L 76.974531 131.937168 
L 92.413266 132.864132 
L 107.852001 147.152828 
L 123.290736 158.776958 
L 138.729471 151.267807 
L 154.168207 124.301351 
L 169.606942 113.862249 
L 185.045677 151.604024 
L 200.484412 156.245857 
L 215.923147 164.159989 
L 231.361882 164.974511 
L 246.800618 165.470405 
L 262.239353 165.505189 
L 277.678088 165.660947 
L 293.116823 165.684591 
L 308.555558 165.783231 
L 323.994293 165.837341 
L 339.433029 165.884098 
L 354.871764 165.889794 
L 370.310499 165.893013 
L 385.749234 165.944394 
L 401.187969 165.951889 
L 416.626705 165.738745 
" style="fill:none;stroke:#1b9e77;stroke-linecap:square;stroke-opacity:0.5;stroke-width:1.5;"/>
   </g>
   <g id="line2d_16">
    <path clip-path="url(#pf7f79ec230)" d="M 61.535795 162.683218 
L 76.974531 138.836403 
L 92.413266 120.416845 
L 107.852001 139.090261 
L 123.290736 133.487215 
L 138.729471 120.996706 
L 154.168207 132.010523 
L 169.606942 150.672736 
L 185.045677 165.618429 
L 200.484412 165.849708 
L 215.923147 165.917629 
L 231.361882 165.904203 
L 246.800618 165.926478 
L 262.239353 165.938867 
L 277.678088 165.945197 
L 293.116823 165.945305 
L 308.555558 165.936311 
L 323.994293 165.92383 
L 339.433029 165.889535 
L 354.871764 165.947519 
L 370.310499 165.952409 
L 385.749234 162.099812 
L 401.187969 163.918354 
L 416.626705 164.78325 
" style="fill:none;stroke:#1b9e77;stroke-linecap:square;stroke-opacity:0.5;stroke-width:1.5;"/>
   </g>
   <g id="line2d_17">
    <path clip-path="url(#pf7f79ec230)" d="M 61.535795 158.26225 
L 76.974531 144.25092 
L 92.413266 159.599761 
L 107.852001 164.527812 
L 123.290736 165.269245 
L 138.729471 164.97015 
L 154.168207 164.833136 
L 169.606942 164.907953 
L 185.045677 165.231462 
L 200.484412 165.398297 
L 215.923147 165.470412 
L 231.361882 165.356586 
L 246.800618 165.308466 
L 262.239353 165.745021 
L 277.678088 163.151285 
L 293.116823 158.447947 
L 308.555558 162.477433 
L 323.994293 161.372203 
L 339.433029 157.729345 
L 354.871764 153.401999 
L 370.310499 151.728381 
L 385.749234 142.148508 
L 401.187969 96.778648 
L 416.626705 119.323528 
" style="fill:none;stroke:#1b9e77;stroke-linecap:square;stroke-opacity:0.5;stroke-width:1.5;"/>
   </g>
   <g id="line2d_18">
    <path clip-path="url(#pf7f79ec230)" d="M 61.535795 160.463048 
L 76.974531 118.42069 
L 92.413266 72.985717 
L 107.852001 114.782136 
L 123.290736 154.751851 
L 138.729471 163.381293 
L 154.168207 165.494376 
L 169.606942 165.594954 
L 185.045677 165.721849 
L 200.484412 165.7624 
L 215.923147 165.775844 
L 231.361882 165.783885 
L 246.800618 165.499212 
L 262.239353 165.878363 
L 277.678088 164.164898 
L 293.116823 164.237744 
L 308.555558 163.769581 
L 323.994293 163.428861 
L 339.433029 162.966293 
L 354.871764 163.303832 
L 370.310499 163.718802 
L 385.749234 161.52069 
L 401.187969 163.461742 
L 416.626705 164.822692 
" style="fill:none;stroke:#1b9e77;stroke-linecap:square;stroke-opacity:0.5;stroke-width:1.5;"/>
   </g>
   <g id="line2d_19">
    <path clip-path="url(#pf7f79ec230)" d="M 61.535795 165.512343 
L 76.974531 165.628588 
L 92.413266 165.822708 
L 107.852001 165.781789 
L 123.290736 165.802081 
L 138.729471 165.865087 
L 154.168207 165.901354 
L 169.606942 165.936095 
L 185.045677 165.950229 
L 200.484412 165.956067 
L 215.923147 164.039958 
L 231.361882 164.097317 
L 246.800618 159.414906 
L 262.239353 163.441076 
L 277.678088 162.280672 
L 293.116823 161.983536 
L 308.555558 161.89295 
L 323.994293 129.909741 
L 339.433029 94.418246 
L 354.871764 124.468241 
L 370.310499 147.216163 
L 385.749234 144.982831 
L 401.187969 149.918874 
L 416.626705 159.469897 
" style="fill:none;stroke:#1b9e77;stroke-linecap:square;stroke-opacity:0.5;stroke-width:1.5;"/>
   </g>
   <g id="line2d_20">
    <path clip-path="url(#pf7f79ec230)" d="M 61.535795 163.899561 
L 76.974531 147.351151 
L 92.413266 140.869752 
L 107.852001 155.117636 
L 123.290736 87.839309 
L 138.729471 93.082818 
L 154.168207 154.767161 
L 169.606942 159.213516 
L 185.045677 164.804657 
L 200.484412 165.613134 
L 215.923147 165.836567 
L 231.361882 165.816941 
L 246.800618 165.868354 
L 262.239353 165.902082 
L 277.678088 165.921345 
L 293.116823 165.929875 
L 308.555558 165.935707 
L 323.994293 165.947187 
L 339.433029 165.947248 
L 354.871764 165.957269 
L 370.310499 165.857344 
L 385.749234 163.863507 
L 401.187969 159.926771 
L 416.626705 164.421858 
" style="fill:none;stroke:#1b9e77;stroke-linecap:square;stroke-opacity:0.5;stroke-width:1.5;"/>
   </g>
   <g id="line2d_21">
    <path clip-path="url(#pf7f79ec230)" d="M 61.535795 143.244775 
L 76.974531 165.850455 
L 92.413266 165.845339 
L 107.852001 161.364959 
L 123.290736 162.656912 
L 138.729471 161.507132 
L 154.168207 144.131881 
L 169.606942 129.147084 
L 185.045677 154.06761 
L 200.484412 104.71402 
L 215.923147 141.958591 
L 231.361882 163.481534 
L 246.800618 165.416275 
L 262.239353 165.399304 
L 277.678088 165.425937 
L 293.116823 165.20156 
L 308.555558 165.411844 
L 323.994293 165.762153 
L 339.433029 165.769254 
L 354.871764 165.460763 
L 370.310499 140.69194 
L 385.749234 162.485607 
L 401.187969 157.476562 
L 416.626705 163.219251 
" style="fill:none;stroke:#1b9e77;stroke-linecap:square;stroke-opacity:0.5;stroke-width:1.5;"/>
   </g>
   <g id="line2d_22">
    <path clip-path="url(#pf7f79ec230)" d="M 61.535795 162.48571 
L 76.974531 165.092829 
L 92.413266 165.736258 
L 107.852001 165.782065 
L 123.290736 165.728552 
L 138.729471 161.099074 
L 154.168207 144.556886 
L 169.606942 164.928764 
L 185.045677 163.276628 
L 200.484412 151.093099 
L 215.923147 131.209978 
L 231.361882 127.125852 
L 246.800618 148.241428 
L 262.239353 131.115662 
L 277.678088 117.675655 
L 293.116823 160.18727 
L 308.555558 164.912015 
L 323.994293 164.357667 
L 339.433029 164.309685 
L 354.871764 164.655533 
L 370.310499 165.119017 
L 385.749234 165.461538 
L 401.187969 165.641084 
L 416.626705 165.898492 
" style="fill:none;stroke:#1b9e77;stroke-linecap:square;stroke-opacity:0.5;stroke-width:1.5;"/>
   </g>
   <g id="line2d_23">
    <path clip-path="url(#pf7f79ec230)" d="M 61.535795 163.429292 
L 76.974531 164.632224 
L 92.413266 165.412402 
L 107.852001 165.418885 
L 123.290736 165.523022 
L 138.729471 165.550618 
L 154.168207 165.633332 
L 169.606942 165.664319 
L 185.045677 165.697587 
L 200.484412 165.712474 
L 215.923147 165.707624 
L 231.361882 165.732397 
L 246.800618 165.604042 
L 262.239353 164.659558 
L 277.678088 153.81553 
L 293.116823 147.752991 
L 308.555558 146.922945 
L 323.994293 150.890713 
L 339.433029 142.834935 
L 354.871764 135.258016 
L 370.310499 126.148737 
L 385.749234 142.471259 
L 401.187969 140.760745 
L 416.626705 144.457099 
" style="fill:none;stroke:#1b9e77;stroke-linecap:square;stroke-opacity:0.5;stroke-width:1.5;"/>
   </g>
   <g id="line2d_24">
    <path clip-path="url(#pf7f79ec230)" d="M 61.535795 165.950104 
L 76.974531 165.791584 
L 92.413266 165.671463 
L 107.852001 165.350973 
L 123.290736 165.099418 
L 138.729471 164.525987 
L 154.168207 163.442031 
L 169.606942 161.938509 
L 185.045677 157.426078 
L 200.484412 145.588088 
L 215.923147 128.652088 
L 231.361882 134.557859 
L 246.800618 99.797163 
L 262.239353 116.451773 
L 277.678088 161.522057 
L 293.116823 157.460982 
L 308.555558 165.03625 
L 323.994293 165.800177 
L 339.433029 165.918013 
L 354.871764 165.924716 
L 370.310499 165.939905 
L 385.749234 165.941328 
L 401.187969 165.945585 
L 416.626705 165.958603 
" style="fill:none;stroke:#1b9e77;stroke-linecap:square;stroke-opacity:0.5;stroke-width:1.5;"/>
   </g>
   <g id="line2d_25">
    <path clip-path="url(#pf7f79ec230)" d="M 61.535795 165.6296 
L 76.974531 165.165407 
L 92.413266 165.11215 
L 107.852001 164.819122 
L 123.290736 164.501442 
L 138.729471 162.938071 
L 154.168207 159.795982 
L 169.606942 157.641587 
L 185.045677 142.362853 
L 200.484412 121.533423 
L 215.923147 149.959842 
L 231.361882 99.017544 
L 246.800618 134.343786 
L 262.239353 150.939007 
L 277.678088 159.281622 
L 293.116823 159.185873 
L 308.555558 164.131799 
L 323.994293 165.705348 
L 339.433029 165.886569 
L 354.871764 164.766273 
L 370.310499 165.21802 
L 385.749234 165.851502 
L 401.187969 165.946131 
L 416.626705 165.957795 
" style="fill:none;stroke:#1b9e77;stroke-linecap:square;stroke-opacity:0.5;stroke-width:1.5;"/>
   </g>
   <g id="line2d_26">
    <path clip-path="url(#pf7f79ec230)" d="M 61.535795 165.957938 
L 76.974531 165.955965 
L 92.413266 165.954168 
L 107.852001 165.944025 
L 123.290736 165.903699 
L 138.729471 165.956953 
L 154.168207 165.95301 
L 169.606942 164.154332 
L 185.045677 157.429662 
L 200.484412 147.504842 
L 215.923147 133.309762 
L 231.361882 162.812037 
L 246.800618 165.545842 
L 262.239353 163.418043 
L 277.678088 163.907666 
L 293.116823 165.830471 
L 308.555558 164.081713 
L 323.994293 159.571235 
L 339.433029 158.283758 
L 354.871764 156.101191 
L 370.310499 133.706923 
L 385.749234 110.430286 
L 401.187969 133.365528 
L 416.626705 144.611689 
" style="fill:none;stroke:#1b9e77;stroke-linecap:square;stroke-opacity:0.5;stroke-width:1.5;"/>
   </g>
   <g id="line2d_27">
    <path clip-path="url(#pf7f79ec230)" d="M 61.535795 165.363555 
L 76.974531 165.319852 
L 92.413266 165.747368 
L 107.852001 165.778316 
L 123.290736 165.832863 
L 138.729471 165.854247 
L 154.168207 165.864229 
L 169.606942 165.887912 
L 185.045677 165.900711 
L 200.484412 165.932129 
L 215.923147 163.649825 
L 231.361882 162.747873 
L 246.800618 156.82783 
L 262.239353 164.81188 
L 277.678088 158.25711 
L 293.116823 124.554675 
L 308.555558 151.424885 
L 323.994293 136.450249 
L 339.433029 134.691618 
L 354.871764 130.677271 
L 370.310499 151.640645 
L 385.749234 152.480299 
L 401.187969 140.158062 
L 416.626705 159.837337 
" style="fill:none;stroke:#1b9e77;stroke-linecap:square;stroke-opacity:0.5;stroke-width:1.5;"/>
   </g>
   <g id="line2d_28">
    <path clip-path="url(#pf7f79ec230)" d="M 61.535795 159.92586 
L 76.974531 163.987652 
L 92.413266 165.72595 
L 107.852001 165.475826 
L 123.290736 165.49402 
L 138.729471 165.879493 
L 154.168207 165.899689 
L 169.606942 165.919012 
L 185.045677 165.905396 
L 200.484412 165.469694 
L 215.923147 163.906129 
L 231.361882 158.803176 
L 246.800618 149.771618 
L 262.239353 138.151007 
L 277.678088 146.608146 
L 293.116823 120.130866 
L 308.555558 91.452471 
L 323.994293 145.581642 
L 339.433029 161.750887 
L 354.871764 160.872464 
L 370.310499 162.404172 
L 385.749234 164.954584 
L 401.187969 165.694381 
L 416.626705 165.926605 
" style="fill:none;stroke:#1b9e77;stroke-linecap:square;stroke-opacity:0.5;stroke-width:1.5;"/>
   </g>
   <g id="line2d_29">
    <path clip-path="url(#pf7f79ec230)" d="M 61.535795 163.114831 
L 76.974531 135.982771 
L 92.413266 116.101468 
L 107.852001 153.369463 
L 123.290736 155.53552 
L 138.729471 158.475252 
L 154.168207 161.869194 
L 169.606942 165.430738 
L 185.045677 165.868423 
L 200.484412 165.861693 
L 215.923147 165.826032 
L 231.361882 165.914146 
L 246.800618 165.921213 
L 262.239353 165.951223 
L 277.678088 165.096273 
L 293.116823 162.665825 
L 308.555558 160.353469 
L 323.994293 153.412155 
L 339.433029 143.556021 
L 354.871764 147.00221 
L 370.310499 153.492737 
L 385.749234 140.472307 
L 401.187969 149.673089 
L 416.626705 164.74469 
" style="fill:none;stroke:#1b9e77;stroke-linecap:square;stroke-opacity:0.5;stroke-width:1.5;"/>
   </g>
   <g id="line2d_30">
    <path clip-path="url(#pf7f79ec230)" d="M 61.535795 161.904412 
L 76.974531 164.320635 
L 92.413266 164.359625 
L 107.852001 162.799687 
L 123.290736 163.487873 
L 138.729471 163.644312 
L 154.168207 163.907265 
L 169.606942 163.654853 
L 185.045677 161.127925 
L 200.484412 162.769798 
L 215.923147 163.487162 
L 231.361882 164.735956 
L 246.800618 164.722364 
L 262.239353 116.704715 
L 277.678088 159.412723 
L 293.116823 144.46287 
L 308.555558 137.490875 
L 323.994293 107.225217 
L 339.433029 156.198849 
L 354.871764 164.572924 
L 370.310499 164.262811 
L 385.749234 158.180961 
L 401.187969 149.138096 
L 416.626705 163.118838 
" style="fill:none;stroke:#1b9e77;stroke-linecap:square;stroke-opacity:0.5;stroke-width:1.5;"/>
   </g>
   <g id="line2d_31">
    <path clip-path="url(#pf7f79ec230)" d="M 61.535795 165.421389 
L 76.974531 165.49048 
L 92.413266 165.853292 
L 107.852001 165.920959 
L 123.290736 165.919886 
L 138.729471 160.765413 
L 154.168207 133.522079 
L 169.606942 161.908841 
L 185.045677 154.406329 
L 200.484412 154.890133 
L 215.923147 134.808977 
L 231.361882 137.911312 
L 246.800618 115.704889 
L 262.239353 155.974867 
L 277.678088 155.302735 
L 293.116823 151.148004 
L 308.555558 147.4288 
L 323.994293 163.752015 
L 339.433029 165.170309 
L 354.871764 165.175915 
L 370.310499 165.422964 
L 385.749234 162.22797 
L 401.187969 165.766779 
L 416.626705 165.796409 
" style="fill:none;stroke:#1b9e77;stroke-linecap:square;stroke-opacity:0.5;stroke-width:1.5;"/>
   </g>
   <g id="line2d_32">
    <path clip-path="url(#pf7f79ec230)" d="M 61.535795 136.969913 
L 76.974531 135.342259 
L 92.413266 155.477777 
L 107.852001 153.904317 
L 123.290736 160.318064 
L 138.729471 164.624914 
L 154.168207 164.92788 
L 169.606942 159.928463 
L 185.045677 158.384514 
L 200.484412 161.021223 
L 215.923147 162.861016 
L 231.361882 164.376311 
L 246.800618 163.268691 
L 262.239353 144.226879 
L 277.678088 113.323013 
L 293.116823 153.943105 
L 308.555558 159.035087 
L 323.994293 160.116527 
L 339.433029 160.308151 
L 354.871764 158.408112 
L 370.310499 160.107431 
L 385.749234 163.949942 
L 401.187969 165.080586 
L 416.626705 165.786562 
" style="fill:none;stroke:#1b9e77;stroke-linecap:square;stroke-opacity:0.5;stroke-width:1.5;"/>
   </g>
   <g id="line2d_33">
    <path clip-path="url(#pf7f79ec230)" d="M 61.535795 165.376618 
L 76.974531 164.370634 
L 92.413266 162.481093 
L 107.852001 129.02803 
L 123.290736 165.766814 
L 138.729471 165.898515 
L 154.168207 165.922831 
L 169.606942 165.890345 
L 185.045677 165.787949 
L 200.484412 165.793502 
L 215.923147 165.778871 
L 231.361882 165.912755 
L 246.800618 165.916581 
L 262.239353 162.261829 
L 277.678088 164.06467 
L 293.116823 159.178051 
L 308.555558 127.227167 
L 323.994293 118.060654 
L 339.433029 118.194711 
L 354.871764 130.073248 
L 370.310499 156.702932 
L 385.749234 164.556389 
L 401.187969 165.549198 
L 416.626705 165.897354 
" style="fill:none;stroke:#1b9e77;stroke-linecap:square;stroke-opacity:0.5;stroke-width:1.5;"/>
   </g>
   <g id="line2d_34">
    <path clip-path="url(#pf7f79ec230)" d="M 61.535795 161.613282 
L 76.974531 161.917614 
L 92.413266 158.455162 
L 107.852001 148.804012 
L 123.290736 141.666346 
L 138.729471 135.477996 
L 154.168207 145.996162 
L 169.606942 144.914464 
L 185.045677 114.126881 
L 200.484412 154.103772 
L 215.923147 159.874926 
L 231.361882 148.288162 
L 246.800618 151.826476 
L 262.239353 159.258719 
L 277.678088 165.889537 
L 293.116823 165.910696 
L 308.555558 165.931034 
L 323.994293 165.9393 
L 339.433029 165.941774 
L 354.871764 165.943688 
L 370.310499 165.945698 
L 385.749234 165.950671 
L 401.187969 165.954714 
L 416.626705 165.959655 
" style="fill:none;stroke:#1b9e77;stroke-linecap:square;stroke-opacity:0.5;stroke-width:1.5;"/>
   </g>
   <g id="line2d_35">
    <path clip-path="url(#pf7f79ec230)" d="M 61.535795 93.633485 
L 76.974531 143.117216 
L 92.413266 162.097434 
L 107.852001 162.891619 
L 123.290736 162.968249 
L 138.729471 159.213313 
L 154.168207 155.953452 
L 169.606942 162.573809 
L 185.045677 163.04893 
L 200.484412 160.089095 
L 215.923147 149.629731 
L 231.361882 151.762349 
L 246.800618 153.92132 
L 262.239353 159.126763 
L 277.678088 151.751468 
L 293.116823 137.954042 
L 308.555558 155.802881 
L 323.994293 165.107781 
L 339.433029 165.732968 
L 354.871764 165.716242 
L 370.310499 165.825222 
L 385.749234 165.910927 
L 401.187969 165.935481 
L 416.626705 165.92697 
" style="fill:none;stroke:#1b9e77;stroke-linecap:square;stroke-opacity:0.5;stroke-width:1.5;"/>
   </g>
   <g id="line2d_36">
    <path clip-path="url(#pf7f79ec230)" d="M 61.535795 163.969122 
L 76.974531 149.738699 
L 92.413266 129.108581 
L 107.852001 145.359927 
L 123.290736 160.424609 
L 138.729471 155.687674 
L 154.168207 134.735005 
L 169.606942 163.624123 
L 185.045677 165.373082 
L 200.484412 165.069167 
L 215.923147 165.244822 
L 231.361882 165.557072 
L 246.800618 165.724491 
L 262.239353 165.81146 
L 277.678088 165.461163 
L 293.116823 152.504868 
L 308.555558 115.236342 
L 323.994293 163.905645 
L 339.433029 164.777326 
L 354.871764 164.379266 
L 370.310499 165.046521 
L 385.749234 164.847758 
L 401.187969 131.964469 
L 416.626705 162.139549 
" style="fill:none;stroke:#1b9e77;stroke-linecap:square;stroke-opacity:0.5;stroke-width:1.5;"/>
   </g>
   <g id="line2d_37">
    <path clip-path="url(#pf7f79ec230)" d="M 61.535795 165.718419 
L 76.974531 163.777828 
L 92.413266 165.080632 
L 107.852001 165.713978 
L 123.290736 165.542248 
L 138.729471 164.537189 
L 154.168207 162.516327 
L 169.606942 160.25849 
L 185.045677 156.582311 
L 200.484412 152.272581 
L 215.923147 145.350891 
L 231.361882 150.168641 
L 246.800618 160.93715 
L 262.239353 131.703216 
L 277.678088 98.75036 
L 293.116823 141.725396 
L 308.555558 156.355611 
L 323.994293 151.301498 
L 339.433029 163.864889 
L 354.871764 165.308463 
L 370.310499 165.548154 
L 385.749234 165.501596 
L 401.187969 165.029916 
L 416.626705 162.144956 
" style="fill:none;stroke:#1b9e77;stroke-linecap:square;stroke-opacity:0.5;stroke-width:1.5;"/>
   </g>
   <g id="line2d_38">
    <path clip-path="url(#pf7f79ec230)" d="M 61.535795 164.993675 
L 76.974531 164.329413 
L 92.413266 164.23324 
L 107.852001 162.122797 
L 123.290736 152.698208 
L 138.729471 148.951501 
L 154.168207 155.167996 
L 169.606942 159.282555 
L 185.045677 157.416966 
L 200.484412 146.174205 
L 215.923147 115.521028 
L 231.361882 137.303823 
L 246.800618 159.54493 
L 262.239353 158.97892 
L 277.678088 152.214537 
L 293.116823 147.761145 
L 308.555558 155.641788 
L 323.994293 159.58897 
L 339.433029 160.035133 
L 354.871764 161.698962 
L 370.310499 164.48201 
L 385.749234 165.745258 
L 401.187969 165.870113 
L 416.626705 165.933567 
" style="fill:none;stroke:#1b9e77;stroke-linecap:square;stroke-opacity:0.5;stroke-width:1.5;"/>
   </g>
   <g id="line2d_39">
    <path clip-path="url(#pf7f79ec230)" d="M 61.535795 164.708223 
L 76.974531 165.171185 
L 92.413266 165.639128 
L 107.852001 165.482434 
L 123.290736 165.394817 
L 138.729471 165.606511 
L 154.168207 165.634235 
L 169.606942 165.589212 
L 185.045677 165.079113 
L 200.484412 160.190184 
L 215.923147 159.68056 
L 231.361882 165.132017 
L 246.800618 165.063232 
L 262.239353 156.281453 
L 277.678088 91.990261 
L 293.116823 129.019581 
L 308.555558 158.741229 
L 323.994293 165.653134 
L 339.433029 161.738922 
L 354.871764 130.677121 
L 370.310499 127.434823 
L 385.749234 153.926704 
L 401.187969 165.923114 
L 416.626705 165.933553 
" style="fill:none;stroke:#1b9e77;stroke-linecap:square;stroke-opacity:0.5;stroke-width:1.5;"/>
   </g>
   <g id="line2d_40">
    <path clip-path="url(#pf7f79ec230)" d="M 61.535795 156.629259 
L 76.974531 161.641001 
L 92.413266 162.784767 
L 107.852001 163.162215 
L 123.290736 164.722757 
L 138.729471 165.422404 
L 154.168207 142.052104 
L 169.606942 151.788993 
L 185.045677 163.483751 
L 200.484412 159.692782 
L 215.923147 146.62627 
L 231.361882 145.534894 
L 246.800618 164.085501 
L 262.239353 163.491628 
L 277.678088 158.434014 
L 293.116823 120.660343 
L 308.555558 119.700992 
L 323.994293 158.824183 
L 339.433029 163.644904 
L 354.871764 158.745726 
L 370.310499 162.020308 
L 385.749234 164.190649 
L 401.187969 163.611307 
L 416.626705 164.739991 
" style="fill:none;stroke:#1b9e77;stroke-linecap:square;stroke-opacity:0.5;stroke-width:1.5;"/>
   </g>
   <g id="line2d_41">
    <path clip-path="url(#pf7f79ec230)" d="M 61.535795 155.779307 
L 76.974531 152.693007 
L 92.413266 160.477903 
L 107.852001 159.12088 
L 123.290736 161.409847 
L 138.729471 163.204476 
L 154.168207 164.315553 
L 169.606942 164.48517 
L 185.045677 164.936436 
L 200.484412 165.381337 
L 215.923147 165.6184 
L 231.361882 165.817731 
L 246.800618 165.737204 
L 262.239353 160.868803 
L 277.678088 140.98687 
L 293.116823 154.61459 
L 308.555558 135.698735 
L 323.994293 127.784383 
L 339.433029 151.271518 
L 354.871764 154.73183 
L 370.310499 113.912246 
L 385.749234 165.216877 
L 401.187969 165.82628 
L 416.626705 165.801357 
" style="fill:none;stroke:#1b9e77;stroke-linecap:square;stroke-opacity:0.5;stroke-width:1.5;"/>
   </g>
   <g id="line2d_42">
    <path clip-path="url(#pf7f79ec230)" d="M 61.535795 120.452186 
L 76.974531 151.328742 
L 92.413266 164.573631 
L 107.852001 164.627351 
L 123.290736 164.928743 
L 138.729471 154.748207 
L 154.168207 137.311606 
L 169.606942 164.624346 
L 185.045677 165.48894 
L 200.484412 165.437533 
L 215.923147 165.107992 
L 231.361882 154.772354 
L 246.800618 165.089978 
L 262.239353 165.780776 
L 277.678088 165.71717 
L 293.116823 165.273464 
L 308.555558 162.338369 
L 323.994293 163.653808 
L 339.433029 152.655892 
L 354.871764 151.8938 
L 370.310499 143.270899 
L 385.749234 144.205911 
L 401.187969 145.075321 
L 416.626705 147.333721 
" style="fill:none;stroke:#1b9e77;stroke-linecap:square;stroke-opacity:0.5;stroke-width:1.5;"/>
   </g>
   <g id="line2d_43">
    <path clip-path="url(#pf7f79ec230)" d="M 61.535795 165.456086 
L 76.974531 164.737982 
L 92.413266 163.88938 
L 107.852001 162.811196 
L 123.290736 140.402843 
L 138.729471 135.37997 
L 154.168207 157.212801 
L 169.606942 155.857222 
L 185.045677 150.715279 
L 200.484412 149.234352 
L 215.923147 141.048526 
L 231.361882 145.083617 
L 246.800618 161.622162 
L 262.239353 121.55339 
L 277.678088 145.292599 
L 293.116823 164.647878 
L 308.555558 165.501745 
L 323.994293 164.703012 
L 339.433029 164.61655 
L 354.871764 165.528079 
L 370.310499 165.607497 
L 385.749234 165.241651 
L 401.187969 164.049453 
L 416.626705 165.497471 
" style="fill:none;stroke:#1b9e77;stroke-linecap:square;stroke-opacity:0.5;stroke-width:1.5;"/>
   </g>
   <g id="line2d_44">
    <path clip-path="url(#pf7f79ec230)" d="M 61.535795 165.899444 
L 76.974531 165.877936 
L 92.413266 165.889511 
L 107.852001 165.872364 
L 123.290736 165.860132 
L 138.729471 165.894552 
L 154.168207 165.903563 
L 169.606942 165.880779 
L 185.045677 165.062127 
L 200.484412 160.069131 
L 215.923147 144.737924 
L 231.361882 165.502848 
L 246.800618 165.577918 
L 262.239353 162.385478 
L 277.678088 161.07638 
L 293.116823 160.608011 
L 308.555558 157.287032 
L 323.994293 160.47183 
L 339.433029 158.589709 
L 354.871764 146.647925 
L 370.310499 132.441911 
L 385.749234 143.015002 
L 401.187969 98.524594 
L 416.626705 136.614641 
" style="fill:none;stroke:#1b9e77;stroke-linecap:square;stroke-opacity:0.5;stroke-width:1.5;"/>
   </g>
   <g id="line2d_45">
    <path clip-path="url(#pf7f79ec230)" d="M 61.535795 158.271474 
L 76.974531 138.447713 
L 92.413266 116.698394 
L 107.852001 141.70476 
L 123.290736 154.510259 
L 138.729471 148.0586 
L 154.168207 158.379976 
L 169.606942 164.393213 
L 185.045677 165.582306 
L 200.484412 164.926661 
L 215.923147 165.166502 
L 231.361882 161.870905 
L 246.800618 156.482001 
L 262.239353 149.215021 
L 277.678088 144.367783 
L 293.116823 135.437675 
L 308.555558 161.250272 
L 323.994293 165.494866 
L 339.433029 165.870572 
L 354.871764 165.846657 
L 370.310499 165.900896 
L 385.749234 165.919022 
L 401.187969 165.93732 
L 416.626705 165.957899 
" style="fill:none;stroke:#1b9e77;stroke-linecap:square;stroke-opacity:0.5;stroke-width:1.5;"/>
   </g>
   <g id="line2d_46">
    <path clip-path="url(#pf7f79ec230)" d="M 61.535795 154.891515 
L 76.974531 144.212141 
L 92.413266 108.554896 
L 107.852001 141.379619 
L 123.290736 164.772012 
L 138.729471 165.164503 
L 154.168207 164.692773 
L 169.606942 158.923032 
L 185.045677 159.906328 
L 200.484412 164.096613 
L 215.923147 165.16572 
L 231.361882 164.820488 
L 246.800618 162.539357 
L 262.239353 161.042065 
L 277.678088 155.356939 
L 293.116823 161.771728 
L 308.555558 162.50286 
L 323.994293 162.631731 
L 339.433029 156.719307 
L 354.871764 133.959819 
L 370.310499 135.335071 
L 385.749234 165.392982 
L 401.187969 165.91069 
L 416.626705 165.94855 
" style="fill:none;stroke:#1b9e77;stroke-linecap:square;stroke-opacity:0.5;stroke-width:1.5;"/>
   </g>
   <g id="line2d_47">
    <path clip-path="url(#pf7f79ec230)" d="M 61.535795 165.42759 
L 76.974531 165.125572 
L 92.413266 164.978334 
L 107.852001 163.331581 
L 123.290736 149.44352 
L 138.729471 125.154155 
L 154.168207 137.694537 
L 169.606942 156.754249 
L 185.045677 144.031791 
L 200.484412 76.052344 
L 215.923147 157.239365 
L 231.361882 163.600883 
L 246.800618 165.205514 
L 262.239353 165.057504 
L 277.678088 164.999228 
L 293.116823 165.027815 
L 308.555558 165.435008 
L 323.994293 165.847773 
L 339.433029 165.91198 
L 354.871764 161.574235 
L 370.310499 161.370447 
L 385.749234 164.602509 
L 401.187969 165.889155 
L 416.626705 165.935657 
" style="fill:none;stroke:#1b9e77;stroke-linecap:square;stroke-opacity:0.5;stroke-width:1.5;"/>
   </g>
   <g id="line2d_48">
    <path clip-path="url(#pf7f79ec230)" d="M 61.535795 165.208804 
L 76.974531 163.808449 
L 92.413266 104.579983 
L 107.852001 92.649635 
L 123.290736 149.936655 
L 138.729471 149.853173 
L 154.168207 153.173008 
L 169.606942 158.08535 
L 185.045677 165.590391 
L 200.484412 165.873718 
L 215.923147 165.918648 
L 231.361882 159.502756 
L 246.800618 159.609524 
L 262.239353 165.317531 
L 277.678088 165.100184 
L 293.116823 162.434154 
L 308.555558 164.52558 
L 323.994293 164.836039 
L 339.433029 161.86525 
L 354.871764 161.248437 
L 370.310499 161.588401 
L 385.749234 160.748915 
L 401.187969 160.110844 
L 416.626705 164.125318 
" style="fill:none;stroke:#1b9e77;stroke-linecap:square;stroke-opacity:0.5;stroke-width:1.5;"/>
   </g>
   <g id="line2d_49">
    <path clip-path="url(#pf7f79ec230)" d="M 61.535795 163.53858 
L 76.974531 164.891581 
L 92.413266 155.295787 
L 107.852001 161.138422 
L 123.290736 164.405999 
L 138.729471 164.258832 
L 154.168207 165.26562 
L 169.606942 165.255084 
L 185.045677 165.085044 
L 200.484412 163.25078 
L 215.923147 164.135165 
L 231.361882 165.61063 
L 246.800618 165.023946 
L 262.239353 147.039944 
L 277.678088 113.260142 
L 293.116823 94.439672 
L 308.555558 121.229708 
L 323.994293 165.346847 
L 339.433029 165.777028 
L 354.871764 152.363674 
L 370.310499 161.271168 
L 385.749234 165.904287 
L 401.187969 165.945066 
L 416.626705 165.957733 
" style="fill:none;stroke:#1b9e77;stroke-linecap:square;stroke-opacity:0.5;stroke-width:1.5;"/>
   </g>
   <g id="line2d_50">
    <path clip-path="url(#pf7f79ec230)" d="M 61.535795 146.557621 
L 76.974531 134.74863 
L 92.413266 117.239874 
L 107.852001 137.228484 
L 123.290736 155.478031 
L 138.729471 158.888764 
L 154.168207 164.976237 
L 169.606942 165.321135 
L 185.045677 165.590149 
L 200.484412 165.724393 
L 215.923147 165.838161 
L 231.361882 165.881583 
L 246.800618 165.886086 
L 262.239353 165.927867 
L 277.678088 163.266499 
L 293.116823 164.992281 
L 308.555558 164.794117 
L 323.994293 164.143629 
L 339.433029 163.699815 
L 354.871764 164.886221 
L 370.310499 140.79123 
L 385.749234 115.136179 
L 401.187969 163.560458 
L 416.626705 165.133302 
" style="fill:none;stroke:#1b9e77;stroke-linecap:square;stroke-opacity:0.5;stroke-width:1.5;"/>
   </g>
   <g id="line2d_51">
    <path clip-path="url(#pf7f79ec230)" d="M 61.535795 14.76 
L 76.974531 133.922127 
L 92.413266 159.069617 
L 107.852001 148.658243 
L 123.290736 144.498552 
L 138.729471 164.461246 
L 154.168207 165.45469 
L 169.606942 165.471583 
L 185.045677 165.595671 
L 200.484412 165.56405 
L 215.923147 165.550121 
L 231.361882 165.611064 
L 246.800618 165.677645 
L 262.239353 165.634099 
L 277.678088 165.594319 
L 293.116823 165.597204 
L 308.555558 165.544437 
L 323.994293 165.537568 
L 339.433029 165.535415 
L 354.871764 165.53277 
L 370.310499 165.387811 
L 385.749234 165.501586 
L 401.187969 165.634322 
L 416.626705 165.896608 
" style="fill:none;stroke:#1b9e77;stroke-linecap:square;stroke-opacity:0.5;stroke-width:1.5;"/>
   </g>
   <g id="line2d_52">
    <path clip-path="url(#pf7f79ec230)" d="M 61.535795 94.841831 
L 76.974531 152.683492 
L 92.413266 154.631792 
L 107.852001 152.997278 
L 123.290736 154.36925 
L 138.729471 160.475918 
L 154.168207 158.016357 
L 169.606942 160.647371 
L 185.045677 164.270017 
L 200.484412 165.702987 
L 215.923147 164.983106 
L 231.361882 131.832482 
L 246.800618 151.390532 
L 262.239353 161.349337 
L 277.678088 165.1877 
L 293.116823 164.535369 
L 308.555558 162.168815 
L 323.994293 153.699235 
L 339.433029 165.62228 
L 354.871764 165.930383 
L 370.310499 165.948206 
L 385.749234 154.903247 
L 401.187969 158.977299 
L 416.626705 160.526462 
" style="fill:none;stroke:#1b9e77;stroke-linecap:square;stroke-opacity:0.5;stroke-width:1.5;"/>
   </g>
   <g id="line2d_53">
    <path clip-path="url(#pf7f79ec230)" d="M 61.535795 163.41123 
L 76.974531 164.697177 
L 92.413266 165.237853 
L 107.852001 165.084943 
L 123.290736 165.350573 
L 138.729471 165.640356 
L 154.168207 165.786773 
L 169.606942 165.769527 
L 185.045677 165.759307 
L 200.484412 165.818042 
L 215.923147 165.835927 
L 231.361882 165.814336 
L 246.800618 165.691342 
L 262.239353 164.82904 
L 277.678088 163.014946 
L 293.116823 158.084607 
L 308.555558 152.131379 
L 323.994293 153.469186 
L 339.433029 136.265566 
L 354.871764 118.301033 
L 370.310499 133.374198 
L 385.749234 137.270266 
L 401.187969 130.267652 
L 416.626705 148.78548 
" style="fill:none;stroke:#1b9e77;stroke-linecap:square;stroke-opacity:0.5;stroke-width:1.5;"/>
   </g>
   <g id="line2d_54">
    <path clip-path="url(#pf7f79ec230)" d="M 61.535795 160.614939 
L 76.974531 150.062999 
L 92.413266 163.011773 
L 107.852001 164.101001 
L 123.290736 165.154982 
L 138.729471 165.157818 
L 154.168207 165.015547 
L 169.606942 165.022264 
L 185.045677 165.349018 
L 200.484412 165.573332 
L 215.923147 165.548813 
L 231.361882 165.540348 
L 246.800618 157.960352 
L 262.239353 137.159092 
L 277.678088 119.340466 
L 293.116823 152.196963 
L 308.555558 152.989429 
L 323.994293 130.478293 
L 339.433029 127.834423 
L 354.871764 146.843167 
L 370.310499 163.486232 
L 385.749234 165.494655 
L 401.187969 165.823839 
L 416.626705 165.930995 
" style="fill:none;stroke:#1b9e77;stroke-linecap:square;stroke-opacity:0.5;stroke-width:1.5;"/>
   </g>
   <g id="line2d_55">
    <path clip-path="url(#pf7f79ec230)" d="M 61.535795 143.768082 
L 76.974531 71.553528 
L 92.413266 132.289574 
L 107.852001 145.08648 
L 123.290736 156.215228 
L 138.729471 160.513581 
L 154.168207 164.402382 
L 169.606942 165.099417 
L 185.045677 165.573265 
L 200.484412 165.739982 
L 215.923147 165.839468 
L 231.361882 165.826876 
L 246.800618 165.888169 
L 262.239353 165.927595 
L 277.678088 165.939473 
L 293.116823 165.952759 
L 308.555558 165.956397 
L 323.994293 165.829733 
L 339.433029 161.649065 
L 354.871764 163.861339 
L 370.310499 159.244437 
L 385.749234 151.968762 
L 401.187969 150.793672 
L 416.626705 160.771476 
" style="fill:none;stroke:#1b9e77;stroke-linecap:square;stroke-opacity:0.5;stroke-width:1.5;"/>
   </g>
   <g id="line2d_56">
    <path clip-path="url(#pf7f79ec230)" d="M 61.535795 164.23968 
L 76.974531 144.01582 
L 92.413266 41.895661 
L 107.852001 115.525724 
L 123.290736 156.501026 
L 138.729471 148.430183 
L 154.168207 161.816475 
L 169.606942 165.387203 
L 185.045677 165.691806 
L 200.484412 165.679659 
L 215.923147 165.73534 
L 231.361882 165.75392 
L 246.800618 165.83317 
L 262.239353 165.867567 
L 277.678088 165.88146 
L 293.116823 165.872455 
L 308.555558 165.851471 
L 323.994293 165.929177 
L 339.433029 165.917678 
L 354.871764 164.874408 
L 370.310499 164.513418 
L 385.749234 164.905759 
L 401.187969 164.444495 
L 416.626705 165.127189 
" style="fill:none;stroke:#1b9e77;stroke-linecap:square;stroke-opacity:0.5;stroke-width:1.5;"/>
   </g>
   <g id="line2d_57">
    <path clip-path="url(#pf7f79ec230)" d="M 61.535795 164.917771 
L 76.974531 161.79961 
L 92.413266 163.434497 
L 107.852001 138.726465 
L 123.290736 110.158911 
L 138.729471 157.400494 
L 154.168207 148.326209 
L 169.606942 124.861879 
L 185.045677 124.583162 
L 200.484412 159.15926 
L 215.923147 164.938632 
L 231.361882 161.98038 
L 246.800618 157.426145 
L 262.239353 157.810986 
L 277.678088 163.853283 
L 293.116823 165.449253 
L 308.555558 165.471583 
L 323.994293 165.427849 
L 339.433029 165.648856 
L 354.871764 165.729612 
L 370.310499 165.718356 
L 385.749234 165.657473 
L 401.187969 165.098697 
L 416.626705 162.111371 
" style="fill:none;stroke:#1b9e77;stroke-linecap:square;stroke-opacity:0.5;stroke-width:1.5;"/>
   </g>
   <g id="line2d_58">
    <path clip-path="url(#pf7f79ec230)" d="M 61.535795 164.198914 
L 76.974531 163.032999 
L 92.413266 161.892752 
L 107.852001 161.040846 
L 123.290736 159.009027 
L 138.729471 165.661812 
L 154.168207 165.156979 
L 169.606942 162.037226 
L 185.045677 159.26792 
L 200.484412 157.678989 
L 215.923147 158.296951 
L 231.361882 157.035997 
L 246.800618 155.415668 
L 262.239353 161.824773 
L 277.678088 159.022756 
L 293.116823 160.083964 
L 308.555558 153.797418 
L 323.994293 160.708167 
L 339.433029 158.696792 
L 354.871764 149.834615 
L 370.310499 162.626907 
L 385.749234 156.744326 
L 401.187969 104.665151 
L 416.626705 127.95979 
" style="fill:none;stroke:#1b9e77;stroke-linecap:square;stroke-opacity:0.5;stroke-width:1.5;"/>
   </g>
   <g id="line2d_59">
    <path clip-path="url(#pf7f79ec230)" d="M 61.535795 164.03448 
L 76.974531 158.22099 
L 92.413266 143.882053 
L 107.852001 147.186534 
L 123.290736 160.679247 
L 138.729471 156.59237 
L 154.168207 146.233696 
L 169.606942 139.433006 
L 185.045677 92.539122 
L 200.484412 162.001065 
L 215.923147 163.171223 
L 231.361882 133.2416 
L 246.800618 161.884258 
L 262.239353 157.183754 
L 277.678088 165.913761 
L 293.116823 165.916705 
L 308.555558 165.937515 
L 323.994293 165.935239 
L 339.433029 165.934299 
L 354.871764 165.945497 
L 370.310499 165.951275 
L 385.749234 165.955629 
L 401.187969 165.957415 
L 416.626705 165.96 
" style="fill:none;stroke:#1b9e77;stroke-linecap:square;stroke-opacity:0.5;stroke-width:1.5;"/>
   </g>
   <g id="line2d_60">
    <path clip-path="url(#pf7f79ec230)" d="M 61.535795 154.350786 
L 76.974531 115.843586 
L 92.413266 137.786939 
L 107.852001 158.089628 
L 123.290736 162.50573 
L 138.729471 158.931702 
L 154.168207 155.332955 
L 169.606942 158.909776 
L 185.045677 164.429368 
L 200.484412 165.683873 
L 215.923147 165.844458 
L 231.361882 165.641978 
L 246.800618 163.846302 
L 262.239353 165.789346 
L 277.678088 165.357539 
L 293.116823 165.142243 
L 308.555558 164.483977 
L 323.994293 163.085192 
L 339.433029 162.241581 
L 354.871764 158.636062 
L 370.310499 150.909834 
L 385.749234 138.199436 
L 401.187969 129.178139 
L 416.626705 155.470304 
" style="fill:none;stroke:#1b9e77;stroke-linecap:square;stroke-opacity:0.5;stroke-width:1.5;"/>
   </g>
   <g id="line2d_61">
    <path clip-path="url(#pf7f79ec230)" d="M 61.535795 161.76843 
L 76.974531 164.489006 
L 92.413266 164.961188 
L 107.852001 164.585447 
L 123.290736 161.627517 
L 138.729471 157.166533 
L 154.168207 156.07606 
L 169.606942 157.091024 
L 185.045677 146.839551 
L 200.484412 133.386833 
L 215.923147 155.710033 
L 231.361882 163.090999 
L 246.800618 164.825664 
L 262.239353 164.931016 
L 277.678088 164.927677 
L 293.116823 165.159493 
L 308.555558 165.457384 
L 323.994293 165.898853 
L 339.433029 164.718458 
L 354.871764 130.75371 
L 370.310499 147.84343 
L 385.749234 150.651817 
L 401.187969 125.020268 
L 416.626705 148.710345 
" style="fill:none;stroke:#1b9e77;stroke-linecap:square;stroke-opacity:0.5;stroke-width:1.5;"/>
   </g>
   <g id="line2d_62">
    <path clip-path="url(#pf7f79ec230)" d="M 61.535795 164.354516 
L 76.974531 164.624141 
L 92.413266 164.980202 
L 107.852001 164.382733 
L 123.290736 158.115736 
L 138.729471 161.546895 
L 154.168207 162.712399 
L 169.606942 162.03578 
L 185.045677 161.756293 
L 200.484412 152.359886 
L 215.923147 137.921903 
L 231.361882 139.968082 
L 246.800618 144.797918 
L 262.239353 136.796241 
L 277.678088 120.962556 
L 293.116823 124.959369 
L 308.555558 163.086009 
L 323.994293 165.55984 
L 339.433029 165.840299 
L 354.871764 165.797472 
L 370.310499 165.871374 
L 385.749234 165.926837 
L 401.187969 165.941218 
L 416.626705 165.393048 
" style="fill:none;stroke:#1b9e77;stroke-linecap:square;stroke-opacity:0.5;stroke-width:1.5;"/>
   </g>
   <g id="line2d_63">
    <path clip-path="url(#pf7f79ec230)" d="M 61.535795 151.360829 
L 76.974531 102.097258 
L 92.413266 159.530831 
L 107.852001 163.919569 
L 123.290736 164.638519 
L 138.729471 161.509957 
L 154.168207 159.398424 
L 169.606942 164.126011 
L 185.045677 165.060678 
L 200.484412 164.962011 
L 215.923147 164.860229 
L 231.361882 164.880917 
L 246.800618 165.1537 
L 262.239353 165.315675 
L 277.678088 165.357611 
L 293.116823 165.330883 
L 308.555558 165.30222 
L 323.994293 165.447843 
L 339.433029 165.352645 
L 354.871764 163.088675 
L 370.310499 153.769107 
L 385.749234 136.415488 
L 401.187969 114.368723 
L 416.626705 134.442936 
" style="fill:none;stroke:#1b9e77;stroke-linecap:square;stroke-opacity:0.5;stroke-width:1.5;"/>
   </g>
   <g id="line2d_64">
    <path clip-path="url(#pf7f79ec230)" d="M 61.535795 165.910078 
L 76.974531 165.701796 
L 92.413266 163.360932 
L 107.852001 155.037917 
L 123.290736 144.869082 
L 138.729471 164.122431 
L 154.168207 162.474934 
L 169.606942 154.963035 
L 185.045677 159.300434 
L 200.484412 156.221756 
L 215.923147 140.797966 
L 231.361882 117.412974 
L 246.800618 153.894798 
L 262.239353 145.613075 
L 277.678088 105.456666 
L 293.116823 163.311228 
L 308.555558 165.846038 
L 323.994293 165.847741 
L 339.433029 165.89792 
L 354.871764 165.896888 
L 370.310499 165.922852 
L 385.749234 165.942782 
L 401.187969 165.951447 
L 416.626705 165.935969 
" style="fill:none;stroke:#1b9e77;stroke-linecap:square;stroke-opacity:0.5;stroke-width:1.5;"/>
   </g>
   <g id="line2d_65">
    <path clip-path="url(#pf7f79ec230)" d="M 61.535795 163.978899 
L 76.974531 165.002994 
L 92.413266 165.516021 
L 107.852001 165.27095 
L 123.290736 165.401517 
L 138.729471 165.647673 
L 154.168207 165.808024 
L 169.606942 165.847379 
L 185.045677 165.862125 
L 200.484412 165.857386 
L 215.923147 164.493603 
L 231.361882 164.063203 
L 246.800618 164.647946 
L 262.239353 160.820436 
L 277.678088 162.421853 
L 293.116823 158.246671 
L 308.555558 145.259712 
L 323.994293 110.186094 
L 339.433029 91.158531 
L 354.871764 141.999984 
L 370.310499 137.280652 
L 385.749234 159.403983 
L 401.187969 165.602383 
L 416.626705 165.912712 
" style="fill:none;stroke:#1b9e77;stroke-linecap:square;stroke-opacity:0.5;stroke-width:1.5;"/>
   </g>
   <g id="line2d_66">
    <path clip-path="url(#pf7f79ec230)" d="M 61.535795 164.522749 
L 76.974531 165.460966 
L 92.413266 165.764723 
L 107.852001 165.739351 
L 123.290736 165.681628 
L 138.729471 165.547739 
L 154.168207 163.99188 
L 169.606942 165.786597 
L 185.045677 163.143086 
L 200.484412 128.952795 
L 215.923147 109.434845 
L 231.361882 122.713423 
L 246.800618 147.074717 
L 262.239353 156.231357 
L 277.678088 148.405398 
L 293.116823 137.265901 
L 308.555558 155.469404 
L 323.994293 164.020123 
L 339.433029 165.262843 
L 354.871764 164.005711 
L 370.310499 163.977151 
L 385.749234 165.47874 
L 401.187969 165.817756 
L 416.626705 165.941856 
" style="fill:none;stroke:#1b9e77;stroke-linecap:square;stroke-opacity:0.5;stroke-width:1.5;"/>
   </g>
   <g id="line2d_67">
    <path clip-path="url(#pf7f79ec230)" d="M 61.535795 151.765278 
L 76.974531 115.299425 
L 92.413266 157.393976 
L 107.852001 162.029706 
L 123.290736 163.91658 
L 138.729471 163.583895 
L 154.168207 164.081497 
L 169.606942 164.726105 
L 185.045677 165.221238 
L 200.484412 165.303463 
L 215.923147 165.450384 
L 231.361882 165.564106 
L 246.800618 165.64319 
L 262.239353 165.766489 
L 277.678088 165.201049 
L 293.116823 164.844713 
L 308.555558 162.738033 
L 323.994293 162.744836 
L 339.433029 162.54391 
L 354.871764 161.780814 
L 370.310499 156.595076 
L 385.749234 144.440456 
L 401.187969 103.006431 
L 416.626705 126.050092 
" style="fill:none;stroke:#1b9e77;stroke-linecap:square;stroke-opacity:0.5;stroke-width:1.5;"/>
   </g>
   <g id="line2d_68">
    <path clip-path="url(#pf7f79ec230)" d="M 61.535795 161.964999 
L 76.974531 165.306016 
L 92.413266 165.718335 
L 107.852001 165.623233 
L 123.290736 165.717686 
L 138.729471 163.943483 
L 154.168207 150.229153 
L 169.606942 160.248874 
L 185.045677 154.09237 
L 200.484412 121.922164 
L 215.923147 149.306614 
L 231.361882 164.443894 
L 246.800618 164.949813 
L 262.239353 162.09137 
L 277.678088 139.165917 
L 293.116823 142.106949 
L 308.555558 157.467666 
L 323.994293 165.535939 
L 339.433029 165.801427 
L 354.871764 154.244164 
L 370.310499 121.814623 
L 385.749234 161.099983 
L 401.187969 163.60994 
L 416.626705 159.286136 
" style="fill:none;stroke:#1b9e77;stroke-linecap:square;stroke-opacity:0.5;stroke-width:1.5;"/>
   </g>
   <g id="line2d_69">
    <path clip-path="url(#pf7f79ec230)" d="M 61.535795 157.755031 
L 76.974531 152.777983 
L 92.413266 164.212122 
L 107.852001 164.746505 
L 123.290736 164.920564 
L 138.729471 164.021525 
L 154.168207 163.730949 
L 169.606942 164.900937 
L 185.045677 165.336562 
L 200.484412 165.361066 
L 215.923147 165.331101 
L 231.361882 165.248625 
L 246.800618 165.373024 
L 262.239353 165.797434 
L 277.678088 165.634802 
L 293.116823 153.291948 
L 308.555558 143.996829 
L 323.994293 152.883487 
L 339.433029 138.883137 
L 354.871764 140.289375 
L 370.310499 157.805215 
L 385.749234 140.302134 
L 401.187969 113.272527 
L 416.626705 149.817858 
" style="fill:none;stroke:#1b9e77;stroke-linecap:square;stroke-opacity:0.5;stroke-width:1.5;"/>
   </g>
   <g id="line2d_70">
    <path clip-path="url(#pf7f79ec230)" d="M 61.535795 154.488969 
L 76.974531 151.484378 
L 92.413266 163.856982 
L 107.852001 164.70294 
L 123.290736 162.729443 
L 138.729471 79.083366 
L 154.168207 97.632521 
L 169.606942 163.93716 
L 185.045677 165.493392 
L 200.484412 165.704548 
L 215.923147 164.562727 
L 231.361882 150.183278 
L 246.800618 149.00009 
L 262.239353 165.860472 
L 277.678088 165.923152 
L 293.116823 165.915526 
L 308.555558 165.751269 
L 323.994293 165.085264 
L 339.433029 165.88771 
L 354.871764 165.934074 
L 370.310499 165.930691 
L 385.749234 165.783128 
L 401.187969 159.943614 
L 416.626705 160.816043 
" style="fill:none;stroke:#1b9e77;stroke-linecap:square;stroke-opacity:0.5;stroke-width:1.5;"/>
   </g>
   <g id="line2d_71">
    <path clip-path="url(#pf7f79ec230)" d="M 61.535795 165.278856 
L 76.974531 165.303111 
L 92.413266 165.597105 
L 107.852001 165.746354 
L 123.290736 165.661894 
L 138.729471 164.410916 
L 154.168207 158.28774 
L 169.606942 155.745658 
L 185.045677 142.862441 
L 200.484412 160.838869 
L 215.923147 161.049293 
L 231.361882 162.947713 
L 246.800618 163.912449 
L 262.239353 160.073859 
L 277.678088 145.287173 
L 293.116823 153.35462 
L 308.555558 162.534895 
L 323.994293 161.703086 
L 339.433029 158.008035 
L 354.871764 140.496972 
L 370.310499 138.460445 
L 385.749234 135.736014 
L 401.187969 140.932668 
L 416.626705 151.460577 
" style="fill:none;stroke:#1b9e77;stroke-linecap:square;stroke-opacity:0.5;stroke-width:1.5;"/>
   </g>
   <g id="line2d_72">
    <path clip-path="url(#pf7f79ec230)" d="M 61.535795 165.87163 
L 76.974531 165.862696 
L 92.413266 165.902175 
L 107.852001 165.883979 
L 123.290736 165.870979 
L 138.729471 165.896053 
L 154.168207 165.917083 
L 169.606942 165.91824 
L 185.045677 165.903952 
L 200.484412 165.860349 
L 215.923147 165.677301 
L 231.361882 165.938671 
L 246.800618 165.871784 
L 262.239353 163.62079 
L 277.678088 161.140697 
L 293.116823 151.862038 
L 308.555558 104.809866 
L 323.994293 91.543239 
L 339.433029 132.530281 
L 354.871764 132.502684 
L 370.310499 154.917352 
L 385.749234 165.032127 
L 401.187969 165.560604 
L 416.626705 165.796181 
" style="fill:none;stroke:#1b9e77;stroke-linecap:square;stroke-opacity:0.5;stroke-width:1.5;"/>
   </g>
   <g id="line2d_73">
    <path clip-path="url(#pf7f79ec230)" d="M 61.535795 164.994636 
L 76.974531 163.370132 
L 92.413266 162.77743 
L 107.852001 160.115611 
L 123.290736 140.8294 
L 138.729471 115.070087 
L 154.168207 137.870163 
L 169.606942 110.823238 
L 185.045677 153.259455 
L 200.484412 163.765005 
L 215.923147 165.334178 
L 231.361882 165.370013 
L 246.800618 165.588369 
L 262.239353 165.625299 
L 277.678088 165.632022 
L 293.116823 165.668739 
L 308.555558 163.676746 
L 323.994293 165.125917 
L 339.433029 165.38492 
L 354.871764 158.180688 
L 370.310499 160.362439 
L 385.749234 162.31662 
L 401.187969 155.497985 
L 416.626705 149.051654 
" style="fill:none;stroke:#1b9e77;stroke-linecap:square;stroke-opacity:0.5;stroke-width:1.5;"/>
   </g>
   <g id="line2d_74">
    <path clip-path="url(#pf7f79ec230)" d="M 61.535795 165.431029 
L 76.974531 165.50303 
L 92.413266 165.734928 
L 107.852001 165.74522 
L 123.290736 165.812649 
L 138.729471 165.853826 
L 154.168207 165.824684 
L 169.606942 165.921083 
L 185.045677 165.849731 
L 200.484412 164.76999 
L 215.923147 164.579885 
L 231.361882 162.877206 
L 246.800618 159.851775 
L 262.239353 159.52254 
L 277.678088 156.818727 
L 293.116823 153.437756 
L 308.555558 133.760077 
L 323.994293 128.989216 
L 339.433029 148.918958 
L 354.871764 141.298814 
L 370.310499 140.638456 
L 385.749234 163.094422 
L 401.187969 163.472293 
L 416.626705 111.984446 
" style="fill:none;stroke:#1b9e77;stroke-linecap:square;stroke-opacity:0.5;stroke-width:1.5;"/>
   </g>
   <g id="line2d_75">
    <path clip-path="url(#pf7f79ec230)" d="M 61.535795 164.51171 
L 76.974531 164.940931 
L 92.413266 165.506423 
L 107.852001 165.343733 
L 123.290736 165.449702 
L 138.729471 165.730847 
L 154.168207 165.865011 
L 169.606942 165.857976 
L 185.045677 165.876304 
L 200.484412 165.899498 
L 215.923147 165.911077 
L 231.361882 165.936118 
L 246.800618 165.935506 
L 262.239353 164.894428 
L 277.678088 158.53362 
L 293.116823 159.746187 
L 308.555558 154.997293 
L 323.994293 124.331396 
L 339.433029 100.446061 
L 354.871764 81.691056 
L 370.310499 153.426958 
L 385.749234 163.447066 
L 401.187969 165.504723 
L 416.626705 165.907116 
" style="fill:none;stroke:#1b9e77;stroke-linecap:square;stroke-opacity:0.5;stroke-width:1.5;"/>
   </g>
   <g id="line2d_76">
    <path clip-path="url(#pf7f79ec230)" d="M 61.535795 159.479656 
L 76.974531 163.063724 
L 92.413266 164.520765 
L 107.852001 164.21894 
L 123.290736 164.6907 
L 138.729471 165.33966 
L 154.168207 165.670328 
L 169.606942 165.660363 
L 185.045677 165.700662 
L 200.484412 165.763864 
L 215.923147 165.507839 
L 231.361882 164.617818 
L 246.800618 162.48719 
L 262.239353 155.538485 
L 277.678088 155.075863 
L 293.116823 152.568716 
L 308.555558 149.381478 
L 323.994293 149.695149 
L 339.433029 155.358578 
L 354.871764 158.82283 
L 370.310499 111.76851 
L 385.749234 156.923471 
L 401.187969 159.037942 
L 416.626705 104.798214 
" style="fill:none;stroke:#1b9e77;stroke-linecap:square;stroke-opacity:0.5;stroke-width:1.5;"/>
   </g>
   <g id="line2d_77">
    <path clip-path="url(#pf7f79ec230)" d="M 61.535795 160.371305 
L 76.974531 150.34219 
L 92.413266 149.840622 
L 107.852001 150.917177 
L 123.290736 163.261017 
L 138.729471 165.479782 
L 154.168207 165.81775 
L 169.606942 165.77852 
L 185.045677 165.816877 
L 200.484412 165.866509 
L 215.923147 165.897278 
L 231.361882 165.902768 
L 246.800618 165.507139 
L 262.239353 161.593379 
L 277.678088 161.599545 
L 293.116823 159.497604 
L 308.555558 155.441099 
L 323.994293 150.40704 
L 339.433029 86.857692 
L 354.871764 161.236514 
L 370.310499 163.027213 
L 385.749234 150.336968 
L 401.187969 154.035672 
L 416.626705 140.859086 
" style="fill:none;stroke:#1b9e77;stroke-linecap:square;stroke-opacity:0.5;stroke-width:1.5;"/>
   </g>
   <g id="line2d_78">
    <path clip-path="url(#pf7f79ec230)" d="M 61.535795 165.670292 
L 76.974531 165.407144 
L 92.413266 165.272064 
L 107.852001 164.565041 
L 123.290736 163.490045 
L 138.729471 162.356259 
L 154.168207 161.630421 
L 169.606942 162.857357 
L 185.045677 162.74123 
L 200.484412 141.188249 
L 215.923147 142.150822 
L 231.361882 150.282994 
L 246.800618 157.38869 
L 262.239353 154.503763 
L 277.678088 153.383263 
L 293.116823 154.745384 
L 308.555558 154.441042 
L 323.994293 152.856956 
L 339.433029 155.915627 
L 354.871764 151.045975 
L 370.310499 149.437398 
L 385.749234 151.506008 
L 401.187969 142.984222 
L 416.626705 159.870494 
" style="fill:none;stroke:#1b9e77;stroke-linecap:square;stroke-opacity:0.5;stroke-width:1.5;"/>
   </g>
   <g id="line2d_79">
    <path clip-path="url(#pf7f79ec230)" d="M 61.535795 162.637486 
L 76.974531 136.590013 
L 92.413266 146.298783 
L 107.852001 153.366967 
L 123.290736 154.237944 
L 138.729471 134.087051 
L 154.168207 147.091079 
L 169.606942 160.114978 
L 185.045677 163.929375 
L 200.484412 162.908728 
L 215.923147 163.708112 
L 231.361882 165.064064 
L 246.800618 165.232772 
L 262.239353 163.545866 
L 277.678088 157.194822 
L 293.116823 160.975444 
L 308.555558 163.945964 
L 323.994293 164.990041 
L 339.433029 161.241613 
L 354.871764 138.201968 
L 370.310499 136.02448 
L 385.749234 163.337085 
L 401.187969 165.491043 
L 416.626705 155.475066 
" style="fill:none;stroke:#1b9e77;stroke-linecap:square;stroke-opacity:0.5;stroke-width:1.5;"/>
   </g>
   <g id="line2d_80">
    <path clip-path="url(#pf7f79ec230)" d="M 61.535795 160.407052 
L 76.974531 161.484089 
L 92.413266 164.186709 
L 107.852001 164.288114 
L 123.290736 164.543137 
L 138.729471 164.115542 
L 154.168207 163.036199 
L 169.606942 163.867205 
L 185.045677 164.073056 
L 200.484412 164.526918 
L 215.923147 164.167319 
L 231.361882 163.645537 
L 246.800618 164.074138 
L 262.239353 165.094507 
L 277.678088 165.265613 
L 293.116823 165.056752 
L 308.555558 165.177039 
L 323.994293 165.71795 
L 339.433029 164.825082 
L 354.871764 149.754109 
L 370.310499 120.800701 
L 385.749234 121.525951 
L 401.187969 92.899959 
L 416.626705 143.158073 
" style="fill:none;stroke:#1b9e77;stroke-linecap:square;stroke-opacity:0.5;stroke-width:1.5;"/>
   </g>
   <g id="line2d_81">
    <path clip-path="url(#pf7f79ec230)" d="M 61.535795 140.823162 
L 76.974531 156.304923 
L 92.413266 143.73502 
L 107.852001 156.127727 
L 123.290736 164.793091 
L 138.729471 165.446951 
L 154.168207 165.721839 
L 169.606942 165.592717 
L 185.045677 165.454386 
L 200.484412 165.57695 
L 215.923147 165.711179 
L 231.361882 165.816076 
L 246.800618 165.817894 
L 262.239353 164.935973 
L 277.678088 160.089828 
L 293.116823 156.542506 
L 308.555558 105.573595 
L 323.994293 124.997158 
L 339.433029 138.927107 
L 354.871764 158.866891 
L 370.310499 164.511166 
L 385.749234 159.526176 
L 401.187969 164.06664 
L 416.626705 160.731788 
" style="fill:none;stroke:#1b9e77;stroke-linecap:square;stroke-opacity:0.5;stroke-width:1.5;"/>
   </g>
   <g id="line2d_82">
    <path clip-path="url(#pf7f79ec230)" d="M 61.535795 165.850376 
L 76.974531 165.792738 
L 92.413266 165.87607 
L 107.852001 164.809103 
L 123.290736 153.04456 
L 138.729471 165.613272 
L 154.168207 165.913522 
L 169.606942 165.817791 
L 185.045677 164.003587 
L 200.484412 160.639516 
L 215.923147 137.938183 
L 231.361882 149.605469 
L 246.800618 153.989102 
L 262.239353 137.230633 
L 277.678088 146.837757 
L 293.116823 76.857585 
L 308.555558 159.785492 
L 323.994293 165.901325 
L 339.433029 161.714348 
L 354.871764 161.906459 
L 370.310499 164.078407 
L 385.749234 164.67818 
L 401.187969 165.099618 
L 416.626705 162.707655 
" style="fill:none;stroke:#1b9e77;stroke-linecap:square;stroke-opacity:0.5;stroke-width:1.5;"/>
   </g>
   <g id="line2d_83">
    <path clip-path="url(#pf7f79ec230)" d="M 61.535795 158.841432 
L 76.974531 164.445422 
L 92.413266 165.475449 
L 107.852001 165.514608 
L 123.290736 165.412075 
L 138.729471 160.476311 
L 154.168207 163.07384 
L 169.606942 165.148927 
L 185.045677 164.942436 
L 200.484412 164.885605 
L 215.923147 157.942246 
L 231.361882 146.508797 
L 246.800618 129.239263 
L 262.239353 152.164294 
L 277.678088 146.908153 
L 293.116823 154.5943 
L 308.555558 153.905934 
L 323.994293 154.731968 
L 339.433029 155.598876 
L 354.871764 155.517467 
L 370.310499 156.955636 
L 385.749234 153.135063 
L 401.187969 147.352677 
L 416.626705 142.919965 
" style="fill:none;stroke:#1b9e77;stroke-linecap:square;stroke-opacity:0.5;stroke-width:1.5;"/>
   </g>
   <g id="line2d_84">
    <path clip-path="url(#pf7f79ec230)" d="M 61.535795 156.677437 
L 76.974531 156.571213 
L 92.413266 159.041913 
L 107.852001 154.496211 
L 123.290736 150.849344 
L 138.729471 160.040408 
L 154.168207 163.37809 
L 169.606942 163.800019 
L 185.045677 162.123681 
L 200.484412 156.280459 
L 215.923147 146.067191 
L 231.361882 158.607468 
L 246.800618 162.311654 
L 262.239353 159.93798 
L 277.678088 146.315765 
L 293.116823 134.934959 
L 308.555558 154.974246 
L 323.994293 158.916983 
L 339.433029 158.664842 
L 354.871764 150.546307 
L 370.310499 145.772919 
L 385.749234 157.962181 
L 401.187969 162.741647 
L 416.626705 164.677828 
" style="fill:none;stroke:#1b9e77;stroke-linecap:square;stroke-opacity:0.5;stroke-width:1.5;"/>
   </g>
   <g id="line2d_85">
    <path clip-path="url(#pf7f79ec230)" d="M 61.535795 160.861841 
L 76.974531 163.394772 
L 92.413266 165.357784 
L 107.852001 165.215937 
L 123.290736 165.367441 
L 138.729471 165.396642 
L 154.168207 165.562647 
L 169.606942 165.697885 
L 185.045677 165.792241 
L 200.484412 165.786893 
L 215.923147 165.719303 
L 231.361882 165.595137 
L 246.800618 165.495661 
L 262.239353 165.49775 
L 277.678088 162.674148 
L 293.116823 156.514971 
L 308.555558 149.976044 
L 323.994293 114.31256 
L 339.433029 114.165712 
L 354.871764 152.410154 
L 370.310499 151.893449 
L 385.749234 142.550541 
L 401.187969 134.536088 
L 416.626705 155.915136 
" style="fill:none;stroke:#1b9e77;stroke-linecap:square;stroke-opacity:0.5;stroke-width:1.5;"/>
   </g>
   <g id="line2d_86">
    <path clip-path="url(#pf7f79ec230)" d="M 61.535795 165.341726 
L 76.974531 160.554959 
L 92.413266 162.590672 
L 107.852001 163.192815 
L 123.290736 164.254631 
L 138.729471 165.785746 
L 154.168207 161.945754 
L 169.606942 157.047822 
L 185.045677 143.225076 
L 200.484412 161.566475 
L 215.923147 162.138241 
L 231.361882 156.61726 
L 246.800618 161.812061 
L 262.239353 163.711164 
L 277.678088 163.224939 
L 293.116823 162.44807 
L 308.555558 162.468783 
L 323.994293 160.112285 
L 339.433029 158.631273 
L 354.871764 154.577146 
L 370.310499 106.459268 
L 385.749234 103.210661 
L 401.187969 159.289854 
L 416.626705 165.484065 
" style="fill:none;stroke:#1b9e77;stroke-linecap:square;stroke-opacity:0.5;stroke-width:1.5;"/>
   </g>
   <g id="line2d_87">
    <path clip-path="url(#pf7f79ec230)" d="M 61.535795 159.237469 
L 76.974531 163.075707 
L 92.413266 164.849931 
L 107.852001 164.722624 
L 123.290736 164.972416 
L 138.729471 165.36747 
L 154.168207 165.391442 
L 169.606942 165.133781 
L 185.045677 163.89497 
L 200.484412 158.134612 
L 215.923147 157.052322 
L 231.361882 163.732311 
L 246.800618 162.533321 
L 262.239353 104.634301 
L 277.678088 44.020763 
L 293.116823 159.237849 
L 308.555558 164.544998 
L 323.994293 165.152052 
L 339.433029 165.223643 
L 354.871764 163.438825 
L 370.310499 163.671559 
L 385.749234 165.796731 
L 401.187969 165.918705 
L 416.626705 165.952944 
" style="fill:none;stroke:#1b9e77;stroke-linecap:square;stroke-opacity:0.5;stroke-width:1.5;"/>
   </g>
   <g id="line2d_88">
    <path clip-path="url(#pf7f79ec230)" d="M 61.535795 165.404322 
L 76.974531 159.416513 
L 92.413266 136.431749 
L 107.852001 149.453334 
L 123.290736 157.471554 
L 138.729471 153.480721 
L 154.168207 151.501784 
L 169.606942 131.723033 
L 185.045677 137.790267 
L 200.484412 139.214007 
L 215.923147 139.795313 
L 231.361882 141.84399 
L 246.800618 159.454697 
L 262.239353 164.470739 
L 277.678088 165.599351 
L 293.116823 165.591757 
L 308.555558 165.730941 
L 323.994293 165.813801 
L 339.433029 165.88092 
L 354.871764 165.877084 
L 370.310499 165.903847 
L 385.749234 165.935477 
L 401.187969 165.947038 
L 416.626705 165.958501 
" style="fill:none;stroke:#1b9e77;stroke-linecap:square;stroke-opacity:0.5;stroke-width:1.5;"/>
   </g>
   <g id="line2d_89">
    <path clip-path="url(#pf7f79ec230)" d="M 61.535795 158.617361 
L 76.974531 164.24259 
L 92.413266 165.697176 
L 107.852001 165.350933 
L 123.290736 162.978841 
L 138.729471 164.384529 
L 154.168207 164.416773 
L 169.606942 165.618995 
L 185.045677 165.736884 
L 200.484412 165.683664 
L 215.923147 165.546352 
L 231.361882 165.202607 
L 246.800618 164.711487 
L 262.239353 164.350568 
L 277.678088 163.60352 
L 293.116823 162.9884 
L 308.555558 163.762502 
L 323.994293 161.607529 
L 339.433029 130.142195 
L 354.871764 113.893911 
L 370.310499 138.871365 
L 385.749234 122.723198 
L 401.187969 121.251031 
L 416.626705 164.30833 
" style="fill:none;stroke:#1b9e77;stroke-linecap:square;stroke-opacity:0.5;stroke-width:1.5;"/>
   </g>
   <g id="line2d_90">
    <path clip-path="url(#pf7f79ec230)" d="M 61.535795 163.923862 
L 76.974531 163.28723 
L 92.413266 154.730943 
L 107.852001 150.48217 
L 123.290736 160.398687 
L 138.729471 160.087255 
L 154.168207 159.038949 
L 169.606942 130.481109 
L 185.045677 129.067066 
L 200.484412 131.030719 
L 215.923147 134.321894 
L 231.361882 137.900569 
L 246.800618 148.901802 
L 262.239353 164.237823 
L 277.678088 165.429401 
L 293.116823 165.257476 
L 308.555558 165.646418 
L 323.994293 165.865641 
L 339.433029 165.920188 
L 354.871764 165.911693 
L 370.310499 165.921883 
L 385.749234 165.940529 
L 401.187969 165.948604 
L 416.626705 165.958825 
" style="fill:none;stroke:#1b9e77;stroke-linecap:square;stroke-opacity:0.5;stroke-width:1.5;"/>
   </g>
   <g id="line2d_91">
    <path clip-path="url(#pf7f79ec230)" d="M 61.535795 117.849646 
L 76.974531 114.898773 
L 92.413266 154.227273 
L 107.852001 156.66694 
L 123.290736 159.132158 
L 138.729471 158.71928 
L 154.168207 157.877556 
L 169.606942 156.505651 
L 185.045677 154.094535 
L 200.484412 151.829215 
L 215.923147 152.474529 
L 231.361882 152.007364 
L 246.800618 151.815215 
L 262.239353 156.042155 
L 277.678088 160.762962 
L 293.116823 164.408115 
L 308.555558 165.488299 
L 323.994293 165.73841 
L 339.433029 165.840161 
L 354.871764 165.848594 
L 370.310499 165.625013 
L 385.749234 165.933736 
L 401.187969 165.946049 
L 416.626705 165.959108 
" style="fill:none;stroke:#1b9e77;stroke-linecap:square;stroke-opacity:0.5;stroke-width:1.5;"/>
   </g>
   <g id="line2d_92">
    <path clip-path="url(#pf7f79ec230)" d="M 61.535795 161.779071 
L 76.974531 164.929889 
L 92.413266 165.675537 
L 107.852001 165.81029 
L 123.290736 165.785041 
L 138.729471 161.533342 
L 154.168207 150.346807 
L 169.606942 163.178039 
L 185.045677 163.11925 
L 200.484412 161.466373 
L 215.923147 163.509531 
L 231.361882 152.965893 
L 246.800618 62.472006 
L 262.239353 159.607739 
L 277.678088 165.459936 
L 293.116823 164.072308 
L 308.555558 164.363485 
L 323.994293 165.523217 
L 339.433029 165.75153 
L 354.871764 165.76643 
L 370.310499 162.395271 
L 385.749234 158.415657 
L 401.187969 139.147523 
L 416.626705 132.616581 
" style="fill:none;stroke:#1b9e77;stroke-linecap:square;stroke-opacity:0.5;stroke-width:1.5;"/>
   </g>
   <g id="line2d_93">
    <path clip-path="url(#pf7f79ec230)" d="M 61.535795 164.725852 
L 76.974531 163.796043 
L 92.413266 160.617174 
L 107.852001 157.518016 
L 123.290736 160.269363 
L 138.729471 164.772416 
L 154.168207 164.48496 
L 169.606942 157.540341 
L 185.045677 147.004954 
L 200.484412 154.002026 
L 215.923147 162.799984 
L 231.361882 164.633855 
L 246.800618 158.918732 
L 262.239353 119.446016 
L 277.678088 105.920927 
L 293.116823 131.529828 
L 308.555558 161.440159 
L 323.994293 165.589336 
L 339.433029 165.333468 
L 354.871764 160.42259 
L 370.310499 160.097888 
L 385.749234 165.846335 
L 401.187969 165.794534 
L 416.626705 163.185944 
" style="fill:none;stroke:#1b9e77;stroke-linecap:square;stroke-opacity:0.5;stroke-width:1.5;"/>
   </g>
   <g id="line2d_94">
    <path clip-path="url(#pf7f79ec230)" d="M 61.535795 162.092626 
L 76.974531 163.511918 
L 92.413266 165.605699 
L 107.852001 165.639867 
L 123.290736 165.618657 
L 138.729471 165.683592 
L 154.168207 162.45077 
L 169.606942 157.418291 
L 185.045677 144.254285 
L 200.484412 64.09632 
L 215.923147 118.36358 
L 231.361882 153.86424 
L 246.800618 159.688116 
L 262.239353 149.5135 
L 277.678088 159.384601 
L 293.116823 164.914336 
L 308.555558 165.579082 
L 323.994293 165.597724 
L 339.433029 165.578928 
L 354.871764 165.284143 
L 370.310499 165.372146 
L 385.749234 165.846667 
L 401.187969 165.865183 
L 416.626705 164.46647 
" style="fill:none;stroke:#1b9e77;stroke-linecap:square;stroke-opacity:0.5;stroke-width:1.5;"/>
   </g>
   <g id="line2d_95">
    <path clip-path="url(#pf7f79ec230)" d="M 61.535795 154.12198 
L 76.974531 162.595675 
L 92.413266 165.048235 
L 107.852001 165.033852 
L 123.290736 165.362497 
L 138.729471 165.795365 
L 154.168207 165.810434 
L 169.606942 165.917336 
L 185.045677 165.338208 
L 200.484412 162.368865 
L 215.923147 160.408581 
L 231.361882 136.962381 
L 246.800618 159.314171 
L 262.239353 165.435978 
L 277.678088 165.821435 
L 293.116823 165.779706 
L 308.555558 165.332064 
L 323.994293 165.01069 
L 339.433029 165.105207 
L 354.871764 165.698839 
L 370.310499 165.625461 
L 385.749234 163.869041 
L 401.187969 65.395985 
L 416.626705 98.538757 
" style="fill:none;stroke:#1b9e77;stroke-linecap:square;stroke-opacity:0.5;stroke-width:1.5;"/>
   </g>
   <g id="line2d_96">
    <path clip-path="url(#pf7f79ec230)" d="M 61.535795 153.299724 
L 76.974531 153.31324 
L 92.413266 160.416 
L 107.852001 162.264918 
L 123.290736 163.466534 
L 138.729471 162.85925 
L 154.168207 158.692726 
L 169.606942 152.143808 
L 185.045677 134.638239 
L 200.484412 115.268398 
L 215.923147 149.442598 
L 231.361882 153.623531 
L 246.800618 151.31841 
L 262.239353 165.53168 
L 277.678088 164.908504 
L 293.116823 137.221959 
L 308.555558 159.271238 
L 323.994293 162.788715 
L 339.433029 161.375006 
L 354.871764 163.114159 
L 370.310499 165.413603 
L 385.749234 165.441164 
L 401.187969 165.777392 
L 416.626705 164.09995 
" style="fill:none;stroke:#1b9e77;stroke-linecap:square;stroke-opacity:0.5;stroke-width:1.5;"/>
   </g>
   <g id="line2d_97">
    <path clip-path="url(#pf7f79ec230)" d="M 61.535795 165.389444 
L 76.974531 165.110379 
L 92.413266 165.388286 
L 107.852001 165.386476 
L 123.290736 165.542127 
L 138.729471 165.724477 
L 154.168207 165.820907 
L 169.606942 165.801226 
L 185.045677 165.810166 
L 200.484412 165.842691 
L 215.923147 165.808626 
L 231.361882 165.902326 
L 246.800618 164.404262 
L 262.239353 160.425623 
L 277.678088 161.607566 
L 293.116823 158.958405 
L 308.555558 154.604291 
L 323.994293 137.436856 
L 339.433029 105.748864 
L 354.871764 130.571517 
L 370.310499 105.501861 
L 385.749234 147.805736 
L 401.187969 165.208486 
L 416.626705 165.890153 
" style="fill:none;stroke:#1b9e77;stroke-linecap:square;stroke-opacity:0.5;stroke-width:1.5;"/>
   </g>
   <g id="line2d_98">
    <path clip-path="url(#pf7f79ec230)" d="M 61.535795 164.213594 
L 76.974531 158.613031 
L 92.413266 153.916553 
L 107.852001 113.664576 
L 123.290736 131.897746 
L 138.729471 163.621073 
L 154.168207 141.3801 
L 169.606942 139.670297 
L 185.045677 139.939925 
L 200.484412 145.390532 
L 215.923147 161.419796 
L 231.361882 160.455036 
L 246.800618 163.912563 
L 262.239353 165.401071 
L 277.678088 165.787294 
L 293.116823 165.833259 
L 308.555558 165.873053 
L 323.994293 165.887097 
L 339.433029 165.904339 
L 354.871764 165.925596 
L 370.310499 165.929645 
L 385.749234 165.952314 
L 401.187969 161.660619 
L 416.626705 153.441636 
" style="fill:none;stroke:#1b9e77;stroke-linecap:square;stroke-opacity:0.5;stroke-width:1.5;"/>
   </g>
   <g id="line2d_99">
    <path clip-path="url(#pf7f79ec230)" d="M 61.535795 164.102958 
L 76.974531 163.563537 
L 92.413266 165.431079 
L 107.852001 165.591191 
L 123.290736 165.71226 
L 138.729471 165.621718 
L 154.168207 165.546215 
L 169.606942 165.643389 
L 185.045677 165.711575 
L 200.484412 165.766762 
L 215.923147 165.710706 
L 231.361882 165.279605 
L 246.800618 162.836522 
L 262.239353 165.158063 
L 277.678088 162.37961 
L 293.116823 158.391162 
L 308.555558 159.868188 
L 323.994293 161.996887 
L 339.433029 154.585053 
L 354.871764 131.077546 
L 370.310499 139.008768 
L 385.749234 140.005773 
L 401.187969 120.944805 
L 416.626705 105.757369 
" style="fill:none;stroke:#1b9e77;stroke-linecap:square;stroke-opacity:0.5;stroke-width:1.5;"/>
   </g>
   <g id="line2d_100">
    <path clip-path="url(#pf7f79ec230)" d="M 61.535795 165.194817 
L 76.974531 165.141089 
L 92.413266 165.648952 
L 107.852001 165.756222 
L 123.290736 165.790243 
L 138.729471 165.667834 
L 154.168207 163.990434 
L 169.606942 164.703246 
L 185.045677 162.653218 
L 200.484412 163.177873 
L 215.923147 160.482762 
L 231.361882 149.157819 
L 246.800618 76.907156 
L 262.239353 163.96141 
L 277.678088 160.83923 
L 293.116823 111.24027 
L 308.555558 159.932997 
L 323.994293 159.703275 
L 339.433029 158.840536 
L 354.871764 159.262471 
L 370.310499 161.763128 
L 385.749234 161.525303 
L 401.187969 157.724807 
L 416.626705 156.625657 
" style="fill:none;stroke:#1b9e77;stroke-linecap:square;stroke-opacity:0.5;stroke-width:1.5;"/>
   </g>
   <g id="line2d_101">
    <path clip-path="url(#pf7f79ec230)" d="M 61.535795 165.900715 
L 76.974531 165.631727 
L 92.413266 165.707068 
L 107.852001 165.747738 
L 123.290736 165.764662 
L 138.729471 165.749403 
L 154.168207 165.694858 
L 169.606942 165.744293 
L 185.045677 165.766159 
L 200.484412 165.779242 
L 215.923147 165.274776 
L 231.361882 162.447454 
L 246.800618 162.033029 
L 262.239353 163.006226 
L 277.678088 161.70572 
L 293.116823 125.197039 
L 308.555558 95.544302 
L 323.994293 141.025671 
L 339.433029 153.206466 
L 354.871764 158.510549 
L 370.310499 159.760743 
L 385.749234 153.160563 
L 401.187969 146.423544 
L 416.626705 140.908799 
" style="fill:none;stroke:#1b9e77;stroke-linecap:square;stroke-opacity:0.5;stroke-width:1.5;"/>
   </g>
   <g id="line2d_102">
    <path clip-path="url(#pf7f79ec230)" d="M 61.535795 143.883421 
L 76.974531 104.243147 
L 92.413266 148.440327 
L 107.852001 156.368208 
L 123.290736 160.177 
L 138.729471 161.419914 
L 154.168207 164.070673 
L 169.606942 164.757847 
L 185.045677 165.26328 
L 200.484412 165.42746 
L 215.923147 165.653259 
L 231.361882 165.653592 
L 246.800618 165.776945 
L 262.239353 165.873749 
L 277.678088 165.907542 
L 293.116823 165.915234 
L 308.555558 165.677102 
L 323.994293 161.621664 
L 339.433029 159.122305 
L 354.871764 155.99176 
L 370.310499 147.980764 
L 385.749234 135.056796 
L 401.187969 133.359997 
L 416.626705 158.048756 
" style="fill:none;stroke:#1b9e77;stroke-linecap:square;stroke-opacity:0.5;stroke-width:1.5;"/>
   </g>
   <g id="line2d_103">
    <path clip-path="url(#pf7f79ec230)" d="M 61.535795 163.995973 
L 76.974531 161.743285 
L 92.413266 160.888043 
L 107.852001 161.462309 
L 123.290736 164.666601 
L 138.729471 144.016828 
L 154.168207 97.075609 
L 169.606942 153.856307 
L 185.045677 165.509323 
L 200.484412 165.583868 
L 215.923147 165.09955 
L 231.361882 165.047928 
L 246.800618 160.991239 
L 262.239353 148.953689 
L 277.678088 134.919518 
L 293.116823 151.000866 
L 308.555558 137.769767 
L 323.994293 157.034649 
L 339.433029 162.975258 
L 354.871764 161.919648 
L 370.310499 165.171719 
L 385.749234 164.721481 
L 401.187969 165.515168 
L 416.626705 165.772113 
" style="fill:none;stroke:#1b9e77;stroke-linecap:square;stroke-opacity:0.5;stroke-width:1.5;"/>
   </g>
   <g id="line2d_104">
    <path clip-path="url(#pf7f79ec230)" d="M 61.535795 163.426341 
L 76.974531 164.573741 
L 92.413266 163.727691 
L 107.852001 163.339608 
L 123.290736 161.375674 
L 138.729471 164.498118 
L 154.168207 165.357176 
L 169.606942 164.70808 
L 185.045677 165.170284 
L 200.484412 165.149215 
L 215.923147 164.008892 
L 231.361882 162.518519 
L 246.800618 162.377637 
L 262.239353 161.98591 
L 277.678088 161.638191 
L 293.116823 159.748345 
L 308.555558 155.625423 
L 323.994293 128.468306 
L 339.433029 106.581528 
L 354.871764 129.872543 
L 370.310499 141.809986 
L 385.749234 149.412103 
L 401.187969 156.496628 
L 416.626705 163.820801 
" style="fill:none;stroke:#1b9e77;stroke-linecap:square;stroke-opacity:0.5;stroke-width:1.5;"/>
   </g>
   <g id="line2d_105">
    <path clip-path="url(#pf7f79ec230)" d="M 61.535795 131.000784 
L 76.974531 160.360557 
L 92.413266 163.695631 
L 107.852001 165.556436 
L 123.290736 151.89064 
L 138.729471 160.738159 
L 154.168207 165.707923 
L 169.606942 165.699445 
L 185.045677 165.684183 
L 200.484412 164.785158 
L 215.923147 161.868488 
L 231.361882 165.604908 
L 246.800618 164.210132 
L 262.239353 154.582806 
L 277.678088 160.512798 
L 293.116823 158.800652 
L 308.555558 147.638077 
L 323.994293 128.79616 
L 339.433029 112.160378 
L 354.871764 150.45188 
L 370.310499 163.900881 
L 385.749234 150.546451 
L 401.187969 165.57888 
L 416.626705 165.919332 
" style="fill:none;stroke:#1b9e77;stroke-linecap:square;stroke-opacity:0.5;stroke-width:1.5;"/>
   </g>
   <g id="line2d_106">
    <path clip-path="url(#pf7f79ec230)" d="M 61.535795 165.097487 
L 76.974531 163.971432 
L 92.413266 163.228778 
L 107.852001 161.102535 
L 123.290736 159.890592 
L 138.729471 156.355344 
L 154.168207 145.598817 
L 169.606942 119.868296 
L 185.045677 111.187569 
L 200.484412 119.185271 
L 215.923147 155.755216 
L 231.361882 162.811015 
L 246.800618 163.282302 
L 262.239353 155.664179 
L 277.678088 156.119574 
L 293.116823 162.635665 
L 308.555558 164.8527 
L 323.994293 165.224341 
L 339.433029 165.420331 
L 354.871764 165.212895 
L 370.310499 165.559318 
L 385.749234 165.818999 
L 401.187969 165.898664 
L 416.626705 165.949414 
" style="fill:none;stroke:#1b9e77;stroke-linecap:square;stroke-opacity:0.5;stroke-width:1.5;"/>
   </g>
   <g id="line2d_107">
    <path clip-path="url(#pf7f79ec230)" d="M 61.535795 160.268382 
L 76.974531 154.664685 
L 92.413266 156.625641 
L 107.852001 159.598346 
L 123.290736 159.091056 
L 138.729471 157.270775 
L 154.168207 155.207721 
L 169.606942 158.952119 
L 185.045677 153.372528 
L 200.484412 103.991842 
L 215.923147 155.295369 
L 231.361882 155.625047 
L 246.800618 150.40551 
L 262.239353 143.583354 
L 277.678088 136.273168 
L 293.116823 162.496287 
L 308.555558 165.134757 
L 323.994293 164.921158 
L 339.433029 164.601583 
L 354.871764 165.098259 
L 370.310499 165.596901 
L 385.749234 165.796622 
L 401.187969 165.876745 
L 416.626705 165.942894 
" style="fill:none;stroke:#1b9e77;stroke-linecap:square;stroke-opacity:0.5;stroke-width:1.5;"/>
   </g>
   <g id="line2d_108">
    <path clip-path="url(#pf7f79ec230)" d="M 61.535795 160.787939 
L 76.974531 158.336299 
L 92.413266 159.315681 
L 107.852001 157.137054 
L 123.290736 159.104683 
L 138.729471 163.403663 
L 154.168207 164.364702 
L 169.606942 163.427858 
L 185.045677 162.780651 
L 200.484412 164.058241 
L 215.923147 164.895499 
L 231.361882 165.291921 
L 246.800618 165.37239 
L 262.239353 165.367256 
L 277.678088 155.642935 
L 293.116823 157.673613 
L 308.555558 147.460884 
L 323.994293 148.359088 
L 339.433029 153.024603 
L 354.871764 145.444141 
L 370.310499 142.766434 
L 385.749234 141.453774 
L 401.187969 129.603302 
L 416.626705 150.618126 
" style="fill:none;stroke:#1b9e77;stroke-linecap:square;stroke-opacity:0.5;stroke-width:1.5;"/>
   </g>
   <g id="line2d_109">
    <path clip-path="url(#pf7f79ec230)" d="M 61.535795 120.782366 
L 76.974531 135.506973 
L 92.413266 146.277108 
L 107.852001 153.49142 
L 123.290736 162.503415 
L 138.729471 139.135491 
L 154.168207 112.181871 
L 169.606942 165.056417 
L 185.045677 165.894909 
L 200.484412 165.858455 
L 215.923147 165.608974 
L 231.361882 164.6818 
L 246.800618 158.713864 
L 262.239353 165.771025 
L 277.678088 164.940949 
L 293.116823 160.595836 
L 308.555558 161.549605 
L 323.994293 162.005242 
L 339.433029 159.734006 
L 354.871764 162.130729 
L 370.310499 164.758976 
L 385.749234 162.149392 
L 401.187969 164.594083 
L 416.626705 161.767837 
" style="fill:none;stroke:#1b9e77;stroke-linecap:square;stroke-opacity:0.5;stroke-width:1.5;"/>
   </g>
   <g id="line2d_110">
    <path clip-path="url(#pf7f79ec230)" d="M 61.535795 164.261849 
L 76.974531 140.51537 
L 92.413266 86.479238 
L 107.852001 130.736187 
L 123.290736 153.569556 
L 138.729471 145.198716 
L 154.168207 127.027317 
L 169.606942 150.782924 
L 185.045677 163.182836 
L 200.484412 164.659284 
L 215.923147 165.281814 
L 231.361882 165.045682 
L 246.800618 165.186574 
L 262.239353 165.609762 
L 277.678088 165.775993 
L 293.116823 165.716312 
L 308.555558 165.767693 
L 323.994293 165.89294 
L 339.433029 165.931722 
L 354.871764 165.923809 
L 370.310499 165.941205 
L 385.749234 165.94791 
L 401.187969 165.483613 
L 416.626705 165.772433 
" style="fill:none;stroke:#1b9e77;stroke-linecap:square;stroke-opacity:0.5;stroke-width:1.5;"/>
   </g>
   <g id="line2d_111">
    <path clip-path="url(#pf7f79ec230)" d="M 61.535795 165.51594 
L 76.974531 164.542728 
L 92.413266 163.037393 
L 107.852001 162.344767 
L 123.290736 156.213407 
L 138.729471 165.286213 
L 154.168207 163.764388 
L 169.606942 151.92429 
L 185.045677 146.218265 
L 200.484412 157.076296 
L 215.923147 155.46372 
L 231.361882 155.232534 
L 246.800618 158.60734 
L 262.239353 147.186568 
L 277.678088 115.42521 
L 293.116823 139.797931 
L 308.555558 128.906768 
L 323.994293 154.275847 
L 339.433029 165.643629 
L 354.871764 165.703372 
L 370.310499 165.840509 
L 385.749234 165.855905 
L 401.187969 165.881527 
L 416.626705 165.946198 
" style="fill:none;stroke:#1b9e77;stroke-linecap:square;stroke-opacity:0.5;stroke-width:1.5;"/>
   </g>
   <g id="line2d_112">
    <path clip-path="url(#pf7f79ec230)" d="M 61.535795 165.82608 
L 76.974531 165.206044 
L 92.413266 164.482126 
L 107.852001 161.413634 
L 123.290736 165.608589 
L 138.729471 165.940802 
L 154.168207 165.940802 
L 169.606942 165.940802 
L 185.045677 165.940802 
L 200.484412 165.940802 
L 215.923147 165.804458 
L 231.361882 162.773009 
L 246.800618 160.766662 
L 262.239353 131.739779 
L 277.678088 132.627794 
L 293.116823 147.717553 
L 308.555558 120.036937 
L 323.994293 163.747503 
L 339.433029 141.942436 
L 354.871764 145.286858 
L 370.310499 128.40296 
L 385.749234 161.351617 
L 401.187969 165.314309 
L 416.626705 165.938377 
" style="fill:none;stroke:#d95f02;stroke-linecap:square;stroke-width:1.5;"/>
   </g>
   <g id="patch_3">
    <path d="M 43.78125 173.52 
L 43.78125 7.2 
" style="fill:none;stroke:#000000;stroke-linecap:square;stroke-linejoin:miter;stroke-width:0.8;"/>
   </g>
   <g id="patch_4">
    <path d="M 43.78125 173.52 
L 434.38125 173.52 
" style="fill:none;stroke:#000000;stroke-linecap:square;stroke-linejoin:miter;stroke-width:0.8;"/>
   </g>
   <g id="legend_1">
    <g id="patch_5">
     <path d="M 376.214063 29.878125 
L 427.38125 29.878125 
Q 429.38125 29.878125 429.38125 27.878125 
L 429.38125 14.2 
Q 429.38125 12.2 427.38125 12.2 
L 376.214063 12.2 
Q 374.214063 12.2 374.214063 14.2 
L 374.214063 27.878125 
Q 374.214063 29.878125 376.214063 29.878125 
z
" style="fill:#ffffff;opacity:0.8;stroke:#cccccc;stroke-linejoin:miter;"/>
    </g>
    <g id="line2d_113">
     <path d="M 378.214063 20.298438 
L 398.214063 20.298438 
" style="fill:none;stroke:#d95f02;stroke-linecap:square;stroke-width:1.5;"/>
    </g>
    <g id="line2d_114"/>
    <g id="text_14">
     <!-- real -->
     <defs>
      <path d="M 9.421875 75.984375 
L 18.40625 75.984375 
L 18.40625 0 
L 9.421875 0 
z
" id="DejaVuSans-108"/>
     </defs>
     <g transform="translate(406.214063 23.798438)scale(0.1 -0.1)">
      <use xlink:href="#DejaVuSans-114"/>
      <use x="41.082031" xlink:href="#DejaVuSans-101"/>
      <use x="102.605469" xlink:href="#DejaVuSans-97"/>
      <use x="163.884766" xlink:href="#DejaVuSans-108"/>
     </g>
    </g>
   </g>
  </g>
 </g>
 <defs>
  <clipPath id="pf7f79ec230">
   <rect height="166.32" width="390.6" x="43.78125" y="7.2"/>
  </clipPath>
 </defs>
</svg>
