<?xml version="1.0" encoding="utf-8" standalone="no"?>
<!DOCTYPE svg PUBLIC "-//W3C//DTD SVG 1.1//EN"
  "http://www.w3.org/Graphics/SVG/1.1/DTD/svg11.dtd">
<!-- Created with matplotlib (https://matplotlib.org/) -->
<svg height="211.07625pt" version="1.1" viewBox="0 0 445.62794 211.07625" width="445.62794pt" xmlns="http://www.w3.org/2000/svg" xmlns:xlink="http://www.w3.org/1999/xlink">
 <defs>
  <style type="text/css">
*{stroke-linecap:butt;stroke-linejoin:round;}
  </style>
 </defs>
 <g id="figure_1">
  <g id="patch_1">
   <path d="M 0 211.07625 
L 445.62794 211.07625 
L 445.62794 0 
L 0 0 
z
" style="fill:#ffffff;"/>
  </g>
  <g id="axes_1">
   <g id="patch_2">
    <path d="M 43.78125 173.52 
L 434.38125 173.52 
L 434.38125 7.2 
L 43.78125 7.2 
z
" style="fill:#ffffff;"/>
   </g>
   <g id="matplotlib.axis_1">
    <g id="xtick_1">
     <g id="line2d_1">
      <defs>
       <path d="M 0 0 
L 0 3.5 
" id="m6de99774b2" style="stroke:#000000;stroke-width:0.8;"/>
      </defs>
      <g>
       <use style="stroke:#000000;stroke-width:0.8;" x="46.09706" xlink:href="#m6de99774b2" y="173.52"/>
      </g>
     </g>
     <g id="text_1">
      <!-- 0 -->
      <defs>
       <path d="M 31.78125 66.40625 
Q 24.171875 66.40625 20.328125 58.90625 
Q 16.5 51.421875 16.5 36.375 
Q 16.5 21.390625 20.328125 13.890625 
Q 24.171875 6.390625 31.78125 6.390625 
Q 39.453125 6.390625 43.28125 13.890625 
Q 47.125 21.390625 47.125 36.375 
Q 47.125 51.421875 43.28125 58.90625 
Q 39.453125 66.40625 31.78125 66.40625 
z
M 31.78125 74.21875 
Q 44.046875 74.21875 50.515625 64.515625 
Q 56.984375 54.828125 56.984375 36.375 
Q 56.984375 17.96875 50.515625 8.265625 
Q 44.046875 -1.421875 31.78125 -1.421875 
Q 19.53125 -1.421875 13.0625 8.265625 
Q 6.59375 17.96875 6.59375 36.375 
Q 6.59375 54.828125 13.0625 64.515625 
Q 19.53125 74.21875 31.78125 74.21875 
z
" id="DejaVuSans-48"/>
      </defs>
      <g transform="translate(42.91581 188.118438)scale(0.1 -0.1)">
       <use xlink:href="#DejaVuSans-48"/>
      </g>
     </g>
    </g>
    <g id="xtick_2">
     <g id="line2d_2">
      <g>
       <use style="stroke:#000000;stroke-width:0.8;" x="123.290736" xlink:href="#m6de99774b2" y="173.52"/>
      </g>
     </g>
     <g id="text_2">
      <!-- 5 -->
      <defs>
       <path d="M 10.796875 72.90625 
L 49.515625 72.90625 
L 49.515625 64.59375 
L 19.828125 64.59375 
L 19.828125 46.734375 
Q 21.96875 47.46875 24.109375 47.828125 
Q 26.265625 48.1875 28.421875 48.1875 
Q 40.625 48.1875 47.75 41.5 
Q 54.890625 34.8125 54.890625 23.390625 
Q 54.890625 11.625 47.5625 5.09375 
Q 40.234375 -1.421875 26.90625 -1.421875 
Q 22.3125 -1.421875 17.546875 -0.640625 
Q 12.796875 0.140625 7.71875 1.703125 
L 7.71875 11.625 
Q 12.109375 9.234375 16.796875 8.0625 
Q 21.484375 6.890625 26.703125 6.890625 
Q 35.15625 6.890625 40.078125 11.328125 
Q 45.015625 15.765625 45.015625 23.390625 
Q 45.015625 31 40.078125 35.4375 
Q 35.15625 39.890625 26.703125 39.890625 
Q 22.75 39.890625 18.8125 39.015625 
Q 14.890625 38.140625 10.796875 36.28125 
z
" id="DejaVuSans-53"/>
      </defs>
      <g transform="translate(120.109486 188.118438)scale(0.1 -0.1)">
       <use xlink:href="#DejaVuSans-53"/>
      </g>
     </g>
    </g>
    <g id="xtick_3">
     <g id="line2d_3">
      <g>
       <use style="stroke:#000000;stroke-width:0.8;" x="200.484412" xlink:href="#m6de99774b2" y="173.52"/>
      </g>
     </g>
     <g id="text_3">
      <!-- 10 -->
      <defs>
       <path d="M 12.40625 8.296875 
L 28.515625 8.296875 
L 28.515625 63.921875 
L 10.984375 60.40625 
L 10.984375 69.390625 
L 28.421875 72.90625 
L 38.28125 72.90625 
L 38.28125 8.296875 
L 54.390625 8.296875 
L 54.390625 0 
L 12.40625 0 
z
" id="DejaVuSans-49"/>
      </defs>
      <g transform="translate(194.121912 188.118438)scale(0.1 -0.1)">
       <use xlink:href="#DejaVuSans-49"/>
       <use x="63.623047" xlink:href="#DejaVuSans-48"/>
      </g>
     </g>
    </g>
    <g id="xtick_4">
     <g id="line2d_4">
      <g>
       <use style="stroke:#000000;stroke-width:0.8;" x="277.678088" xlink:href="#m6de99774b2" y="173.52"/>
      </g>
     </g>
     <g id="text_4">
      <!-- 15 -->
      <g transform="translate(271.315588 188.118438)scale(0.1 -0.1)">
       <use xlink:href="#DejaVuSans-49"/>
       <use x="63.623047" xlink:href="#DejaVuSans-53"/>
      </g>
     </g>
    </g>
    <g id="xtick_5">
     <g id="line2d_5">
      <g>
       <use style="stroke:#000000;stroke-width:0.8;" x="354.871764" xlink:href="#m6de99774b2" y="173.52"/>
      </g>
     </g>
     <g id="text_5">
      <!-- 20 -->
      <defs>
       <path d="M 19.1875 8.296875 
L 53.609375 8.296875 
L 53.609375 0 
L 7.328125 0 
L 7.328125 8.296875 
Q 12.9375 14.109375 22.625 23.890625 
Q 32.328125 33.6875 34.8125 36.53125 
Q 39.546875 41.84375 41.421875 45.53125 
Q 43.3125 49.21875 43.3125 52.78125 
Q 43.3125 58.59375 39.234375 62.25 
Q 35.15625 65.921875 28.609375 65.921875 
Q 23.96875 65.921875 18.8125 64.3125 
Q 13.671875 62.703125 7.8125 59.421875 
L 7.8125 69.390625 
Q 13.765625 71.78125 18.9375 73 
Q 24.125 74.21875 28.421875 74.21875 
Q 39.75 74.21875 46.484375 68.546875 
Q 53.21875 62.890625 53.21875 53.421875 
Q 53.21875 48.921875 51.53125 44.890625 
Q 49.859375 40.875 45.40625 35.40625 
Q 44.1875 33.984375 37.640625 27.21875 
Q 31.109375 20.453125 19.1875 8.296875 
z
" id="DejaVuSans-50"/>
      </defs>
      <g transform="translate(348.509264 188.118438)scale(0.1 -0.1)">
       <use xlink:href="#DejaVuSans-50"/>
       <use x="63.623047" xlink:href="#DejaVuSans-48"/>
      </g>
     </g>
    </g>
    <g id="xtick_6">
     <g id="line2d_6">
      <g>
       <use style="stroke:#000000;stroke-width:0.8;" x="432.06544" xlink:href="#m6de99774b2" y="173.52"/>
      </g>
     </g>
     <g id="text_6">
      <!-- 25 -->
      <g transform="translate(425.70294 188.118438)scale(0.1 -0.1)">
       <use xlink:href="#DejaVuSans-50"/>
       <use x="63.623047" xlink:href="#DejaVuSans-53"/>
      </g>
     </g>
    </g>
    <g id="text_7">
     <!-- hour -->
     <defs>
      <path d="M 54.890625 33.015625 
L 54.890625 0 
L 45.90625 0 
L 45.90625 32.71875 
Q 45.90625 40.484375 42.875 44.328125 
Q 39.84375 48.1875 33.796875 48.1875 
Q 26.515625 48.1875 22.3125 43.546875 
Q 18.109375 38.921875 18.109375 30.90625 
L 18.109375 0 
L 9.078125 0 
L 9.078125 75.984375 
L 18.109375 75.984375 
L 18.109375 46.1875 
Q 21.34375 51.125 25.703125 53.5625 
Q 30.078125 56 35.796875 56 
Q 45.21875 56 50.046875 50.171875 
Q 54.890625 44.34375 54.890625 33.015625 
z
" id="DejaVuSans-104"/>
      <path d="M 30.609375 48.390625 
Q 23.390625 48.390625 19.1875 42.75 
Q 14.984375 37.109375 14.984375 27.296875 
Q 14.984375 17.484375 19.15625 11.84375 
Q 23.34375 6.203125 30.609375 6.203125 
Q 37.796875 6.203125 41.984375 11.859375 
Q 46.1875 17.53125 46.1875 27.296875 
Q 46.1875 37.015625 41.984375 42.703125 
Q 37.796875 48.390625 30.609375 48.390625 
z
M 30.609375 56 
Q 42.328125 56 49.015625 48.375 
Q 55.71875 40.765625 55.71875 27.296875 
Q 55.71875 13.875 49.015625 6.21875 
Q 42.328125 -1.421875 30.609375 -1.421875 
Q 18.84375 -1.421875 12.171875 6.21875 
Q 5.515625 13.875 5.515625 27.296875 
Q 5.515625 40.765625 12.171875 48.375 
Q 18.84375 56 30.609375 56 
z
" id="DejaVuSans-111"/>
      <path d="M 8.5 21.578125 
L 8.5 54.6875 
L 17.484375 54.6875 
L 17.484375 21.921875 
Q 17.484375 14.15625 20.5 10.265625 
Q 23.53125 6.390625 29.59375 6.390625 
Q 36.859375 6.390625 41.078125 11.03125 
Q 45.3125 15.671875 45.3125 23.6875 
L 45.3125 54.6875 
L 54.296875 54.6875 
L 54.296875 0 
L 45.3125 0 
L 45.3125 8.40625 
Q 42.046875 3.421875 37.71875 1 
Q 33.40625 -1.421875 27.6875 -1.421875 
Q 18.265625 -1.421875 13.375 4.4375 
Q 8.5 10.296875 8.5 21.578125 
z
M 31.109375 56 
z
" id="DejaVuSans-117"/>
      <path d="M 41.109375 46.296875 
Q 39.59375 47.171875 37.8125 47.578125 
Q 36.03125 48 33.890625 48 
Q 26.265625 48 22.1875 43.046875 
Q 18.109375 38.09375 18.109375 28.8125 
L 18.109375 0 
L 9.078125 0 
L 9.078125 54.6875 
L 18.109375 54.6875 
L 18.109375 46.1875 
Q 20.953125 51.171875 25.484375 53.578125 
Q 30.03125 56 36.53125 56 
Q 37.453125 56 38.578125 55.875 
Q 39.703125 55.765625 41.0625 55.515625 
z
" id="DejaVuSans-114"/>
     </defs>
     <g transform="translate(227.628906 201.796563)scale(0.1 -0.1)">
      <use xlink:href="#DejaVuSans-104"/>
      <use x="63.378906" xlink:href="#DejaVuSans-111"/>
      <use x="124.560547" xlink:href="#DejaVuSans-117"/>
      <use x="187.939453" xlink:href="#DejaVuSans-114"/>
     </g>
    </g>
   </g>
   <g id="matplotlib.axis_2">
    <g id="ytick_1">
     <g id="line2d_7">
      <defs>
       <path d="M 0 0 
L -3.5 0 
" id="m4d4aebe396" style="stroke:#000000;stroke-width:0.8;"/>
      </defs>
      <g>
       <use style="stroke:#000000;stroke-width:0.8;" x="43.78125" xlink:href="#m4d4aebe396" y="165.960551"/>
      </g>
     </g>
     <g id="text_8">
      <!-- 0.0 -->
      <defs>
       <path d="M 10.6875 12.40625 
L 21 12.40625 
L 21 0 
L 10.6875 0 
z
" id="DejaVuSans-46"/>
      </defs>
      <g transform="translate(20.878125 169.759769)scale(0.1 -0.1)">
       <use xlink:href="#DejaVuSans-48"/>
       <use x="63.623047" xlink:href="#DejaVuSans-46"/>
       <use x="95.410156" xlink:href="#DejaVuSans-48"/>
      </g>
     </g>
    </g>
    <g id="ytick_2">
     <g id="line2d_8">
      <g>
       <use style="stroke:#000000;stroke-width:0.8;" x="43.78125" xlink:href="#m4d4aebe396" y="145.159321"/>
      </g>
     </g>
     <g id="text_9">
      <!-- 0.5 -->
      <g transform="translate(20.878125 148.95854)scale(0.1 -0.1)">
       <use xlink:href="#DejaVuSans-48"/>
       <use x="63.623047" xlink:href="#DejaVuSans-46"/>
       <use x="95.410156" xlink:href="#DejaVuSans-53"/>
      </g>
     </g>
    </g>
    <g id="ytick_3">
     <g id="line2d_9">
      <g>
       <use style="stroke:#000000;stroke-width:0.8;" x="43.78125" xlink:href="#m4d4aebe396" y="124.358091"/>
      </g>
     </g>
     <g id="text_10">
      <!-- 1.0 -->
      <g transform="translate(20.878125 128.15731)scale(0.1 -0.1)">
       <use xlink:href="#DejaVuSans-49"/>
       <use x="63.623047" xlink:href="#DejaVuSans-46"/>
       <use x="95.410156" xlink:href="#DejaVuSans-48"/>
      </g>
     </g>
    </g>
    <g id="ytick_4">
     <g id="line2d_10">
      <g>
       <use style="stroke:#000000;stroke-width:0.8;" x="43.78125" xlink:href="#m4d4aebe396" y="103.556861"/>
      </g>
     </g>
     <g id="text_11">
      <!-- 1.5 -->
      <g transform="translate(20.878125 107.35608)scale(0.1 -0.1)">
       <use xlink:href="#DejaVuSans-49"/>
       <use x="63.623047" xlink:href="#DejaVuSans-46"/>
       <use x="95.410156" xlink:href="#DejaVuSans-53"/>
      </g>
     </g>
    </g>
    <g id="ytick_5">
     <g id="line2d_11">
      <g>
       <use style="stroke:#000000;stroke-width:0.8;" x="43.78125" xlink:href="#m4d4aebe396" y="82.755631"/>
      </g>
     </g>
     <g id="text_12">
      <!-- 2.0 -->
      <g transform="translate(20.878125 86.55485)scale(0.1 -0.1)">
       <use xlink:href="#DejaVuSans-50"/>
       <use x="63.623047" xlink:href="#DejaVuSans-46"/>
       <use x="95.410156" xlink:href="#DejaVuSans-48"/>
      </g>
     </g>
    </g>
    <g id="ytick_6">
     <g id="line2d_12">
      <g>
       <use style="stroke:#000000;stroke-width:0.8;" x="43.78125" xlink:href="#m4d4aebe396" y="61.954401"/>
      </g>
     </g>
     <g id="text_13">
      <!-- 2.5 -->
      <g transform="translate(20.878125 65.75362)scale(0.1 -0.1)">
       <use xlink:href="#DejaVuSans-50"/>
       <use x="63.623047" xlink:href="#DejaVuSans-46"/>
       <use x="95.410156" xlink:href="#DejaVuSans-53"/>
      </g>
     </g>
    </g>
    <g id="ytick_7">
     <g id="line2d_13">
      <g>
       <use style="stroke:#000000;stroke-width:0.8;" x="43.78125" xlink:href="#m4d4aebe396" y="41.153171"/>
      </g>
     </g>
     <g id="text_14">
      <!-- 3.0 -->
      <defs>
       <path d="M 40.578125 39.3125 
Q 47.65625 37.796875 51.625 33 
Q 55.609375 28.21875 55.609375 21.1875 
Q 55.609375 10.40625 48.1875 4.484375 
Q 40.765625 -1.421875 27.09375 -1.421875 
Q 22.515625 -1.421875 17.65625 -0.515625 
Q 12.796875 0.390625 7.625 2.203125 
L 7.625 11.71875 
Q 11.71875 9.328125 16.59375 8.109375 
Q 21.484375 6.890625 26.8125 6.890625 
Q 36.078125 6.890625 40.9375 10.546875 
Q 45.796875 14.203125 45.796875 21.1875 
Q 45.796875 27.640625 41.28125 31.265625 
Q 36.765625 34.90625 28.71875 34.90625 
L 20.21875 34.90625 
L 20.21875 43.015625 
L 29.109375 43.015625 
Q 36.375 43.015625 40.234375 45.921875 
Q 44.09375 48.828125 44.09375 54.296875 
Q 44.09375 59.90625 40.109375 62.90625 
Q 36.140625 65.921875 28.71875 65.921875 
Q 24.65625 65.921875 20.015625 65.03125 
Q 15.375 64.15625 9.8125 62.3125 
L 9.8125 71.09375 
Q 15.4375 72.65625 20.34375 73.4375 
Q 25.25 74.21875 29.59375 74.21875 
Q 40.828125 74.21875 47.359375 69.109375 
Q 53.90625 64.015625 53.90625 55.328125 
Q 53.90625 49.265625 50.4375 45.09375 
Q 46.96875 40.921875 40.578125 39.3125 
z
" id="DejaVuSans-51"/>
      </defs>
      <g transform="translate(20.878125 44.95239)scale(0.1 -0.1)">
       <use xlink:href="#DejaVuSans-51"/>
       <use x="63.623047" xlink:href="#DejaVuSans-46"/>
       <use x="95.410156" xlink:href="#DejaVuSans-48"/>
      </g>
     </g>
    </g>
    <g id="ytick_8">
     <g id="line2d_14">
      <g>
       <use style="stroke:#000000;stroke-width:0.8;" x="43.78125" xlink:href="#m4d4aebe396" y="20.351941"/>
      </g>
     </g>
     <g id="text_15">
      <!-- 3.5 -->
      <g transform="translate(20.878125 24.15116)scale(0.1 -0.1)">
       <use xlink:href="#DejaVuSans-51"/>
       <use x="63.623047" xlink:href="#DejaVuSans-46"/>
       <use x="95.410156" xlink:href="#DejaVuSans-53"/>
      </g>
     </g>
    </g>
    <g id="text_16">
     <!-- precipitation [mm/hour] -->
     <defs>
      <path d="M 18.109375 8.203125 
L 18.109375 -20.796875 
L 9.078125 -20.796875 
L 9.078125 54.6875 
L 18.109375 54.6875 
L 18.109375 46.390625 
Q 20.953125 51.265625 25.265625 53.625 
Q 29.59375 56 35.59375 56 
Q 45.5625 56 51.78125 48.09375 
Q 58.015625 40.1875 58.015625 27.296875 
Q 58.015625 14.40625 51.78125 6.484375 
Q 45.5625 -1.421875 35.59375 -1.421875 
Q 29.59375 -1.421875 25.265625 0.953125 
Q 20.953125 3.328125 18.109375 8.203125 
z
M 48.6875 27.296875 
Q 48.6875 37.203125 44.609375 42.84375 
Q 40.53125 48.484375 33.40625 48.484375 
Q 26.265625 48.484375 22.1875 42.84375 
Q 18.109375 37.203125 18.109375 27.296875 
Q 18.109375 17.390625 22.1875 11.75 
Q 26.265625 6.109375 33.40625 6.109375 
Q 40.53125 6.109375 44.609375 11.75 
Q 48.6875 17.390625 48.6875 27.296875 
z
" id="DejaVuSans-112"/>
      <path d="M 56.203125 29.59375 
L 56.203125 25.203125 
L 14.890625 25.203125 
Q 15.484375 15.921875 20.484375 11.0625 
Q 25.484375 6.203125 34.421875 6.203125 
Q 39.59375 6.203125 44.453125 7.46875 
Q 49.3125 8.734375 54.109375 11.28125 
L 54.109375 2.78125 
Q 49.265625 0.734375 44.1875 -0.34375 
Q 39.109375 -1.421875 33.890625 -1.421875 
Q 20.796875 -1.421875 13.15625 6.1875 
Q 5.515625 13.8125 5.515625 26.8125 
Q 5.515625 40.234375 12.765625 48.109375 
Q 20.015625 56 32.328125 56 
Q 43.359375 56 49.78125 48.890625 
Q 56.203125 41.796875 56.203125 29.59375 
z
M 47.21875 32.234375 
Q 47.125 39.59375 43.09375 43.984375 
Q 39.0625 48.390625 32.421875 48.390625 
Q 24.90625 48.390625 20.390625 44.140625 
Q 15.875 39.890625 15.1875 32.171875 
z
" id="DejaVuSans-101"/>
      <path d="M 48.78125 52.59375 
L 48.78125 44.1875 
Q 44.96875 46.296875 41.140625 47.34375 
Q 37.3125 48.390625 33.40625 48.390625 
Q 24.65625 48.390625 19.8125 42.84375 
Q 14.984375 37.3125 14.984375 27.296875 
Q 14.984375 17.28125 19.8125 11.734375 
Q 24.65625 6.203125 33.40625 6.203125 
Q 37.3125 6.203125 41.140625 7.25 
Q 44.96875 8.296875 48.78125 10.40625 
L 48.78125 2.09375 
Q 45.015625 0.34375 40.984375 -0.53125 
Q 36.96875 -1.421875 32.421875 -1.421875 
Q 20.0625 -1.421875 12.78125 6.34375 
Q 5.515625 14.109375 5.515625 27.296875 
Q 5.515625 40.671875 12.859375 48.328125 
Q 20.21875 56 33.015625 56 
Q 37.15625 56 41.109375 55.140625 
Q 45.0625 54.296875 48.78125 52.59375 
z
" id="DejaVuSans-99"/>
      <path d="M 9.421875 54.6875 
L 18.40625 54.6875 
L 18.40625 0 
L 9.421875 0 
z
M 9.421875 75.984375 
L 18.40625 75.984375 
L 18.40625 64.59375 
L 9.421875 64.59375 
z
" id="DejaVuSans-105"/>
      <path d="M 18.3125 70.21875 
L 18.3125 54.6875 
L 36.8125 54.6875 
L 36.8125 47.703125 
L 18.3125 47.703125 
L 18.3125 18.015625 
Q 18.3125 11.328125 20.140625 9.421875 
Q 21.96875 7.515625 27.59375 7.515625 
L 36.8125 7.515625 
L 36.8125 0 
L 27.59375 0 
Q 17.1875 0 13.234375 3.875 
Q 9.28125 7.765625 9.28125 18.015625 
L 9.28125 47.703125 
L 2.6875 47.703125 
L 2.6875 54.6875 
L 9.28125 54.6875 
L 9.28125 70.21875 
z
" id="DejaVuSans-116"/>
      <path d="M 34.28125 27.484375 
Q 23.390625 27.484375 19.1875 25 
Q 14.984375 22.515625 14.984375 16.5 
Q 14.984375 11.71875 18.140625 8.90625 
Q 21.296875 6.109375 26.703125 6.109375 
Q 34.1875 6.109375 38.703125 11.40625 
Q 43.21875 16.703125 43.21875 25.484375 
L 43.21875 27.484375 
z
M 52.203125 31.203125 
L 52.203125 0 
L 43.21875 0 
L 43.21875 8.296875 
Q 40.140625 3.328125 35.546875 0.953125 
Q 30.953125 -1.421875 24.3125 -1.421875 
Q 15.921875 -1.421875 10.953125 3.296875 
Q 6 8.015625 6 15.921875 
Q 6 25.140625 12.171875 29.828125 
Q 18.359375 34.515625 30.609375 34.515625 
L 43.21875 34.515625 
L 43.21875 35.40625 
Q 43.21875 41.609375 39.140625 45 
Q 35.0625 48.390625 27.6875 48.390625 
Q 23 48.390625 18.546875 47.265625 
Q 14.109375 46.140625 10.015625 43.890625 
L 10.015625 52.203125 
Q 14.9375 54.109375 19.578125 55.046875 
Q 24.21875 56 28.609375 56 
Q 40.484375 56 46.34375 49.84375 
Q 52.203125 43.703125 52.203125 31.203125 
z
" id="DejaVuSans-97"/>
      <path d="M 54.890625 33.015625 
L 54.890625 0 
L 45.90625 0 
L 45.90625 32.71875 
Q 45.90625 40.484375 42.875 44.328125 
Q 39.84375 48.1875 33.796875 48.1875 
Q 26.515625 48.1875 22.3125 43.546875 
Q 18.109375 38.921875 18.109375 30.90625 
L 18.109375 0 
L 9.078125 0 
L 9.078125 54.6875 
L 18.109375 54.6875 
L 18.109375 46.1875 
Q 21.34375 51.125 25.703125 53.5625 
Q 30.078125 56 35.796875 56 
Q 45.21875 56 50.046875 50.171875 
Q 54.890625 44.34375 54.890625 33.015625 
z
" id="DejaVuSans-110"/>
      <path id="DejaVuSans-32"/>
      <path d="M 8.59375 75.984375 
L 29.296875 75.984375 
L 29.296875 69 
L 17.578125 69 
L 17.578125 -6.203125 
L 29.296875 -6.203125 
L 29.296875 -13.1875 
L 8.59375 -13.1875 
z
" id="DejaVuSans-91"/>
      <path d="M 52 44.1875 
Q 55.375 50.25 60.0625 53.125 
Q 64.75 56 71.09375 56 
Q 79.640625 56 84.28125 50.015625 
Q 88.921875 44.046875 88.921875 33.015625 
L 88.921875 0 
L 79.890625 0 
L 79.890625 32.71875 
Q 79.890625 40.578125 77.09375 44.375 
Q 74.3125 48.1875 68.609375 48.1875 
Q 61.625 48.1875 57.5625 43.546875 
Q 53.515625 38.921875 53.515625 30.90625 
L 53.515625 0 
L 44.484375 0 
L 44.484375 32.71875 
Q 44.484375 40.625 41.703125 44.40625 
Q 38.921875 48.1875 33.109375 48.1875 
Q 26.21875 48.1875 22.15625 43.53125 
Q 18.109375 38.875 18.109375 30.90625 
L 18.109375 0 
L 9.078125 0 
L 9.078125 54.6875 
L 18.109375 54.6875 
L 18.109375 46.1875 
Q 21.1875 51.21875 25.484375 53.609375 
Q 29.78125 56 35.6875 56 
Q 41.65625 56 45.828125 52.96875 
Q 50 49.953125 52 44.1875 
z
" id="DejaVuSans-109"/>
      <path d="M 25.390625 72.90625 
L 33.6875 72.90625 
L 8.296875 -9.28125 
L 0 -9.28125 
z
" id="DejaVuSans-47"/>
      <path d="M 30.421875 75.984375 
L 30.421875 -13.1875 
L 9.71875 -13.1875 
L 9.71875 -6.203125 
L 21.390625 -6.203125 
L 21.390625 69 
L 9.71875 69 
L 9.71875 75.984375 
z
" id="DejaVuSans-93"/>
     </defs>
     <g transform="translate(14.798438 150.335781)rotate(-90)scale(0.1 -0.1)">
      <use xlink:href="#DejaVuSans-112"/>
      <use x="63.476562" xlink:href="#DejaVuSans-114"/>
      <use x="104.558594" xlink:href="#DejaVuSans-101"/>
      <use x="166.082031" xlink:href="#DejaVuSans-99"/>
      <use x="221.0625" xlink:href="#DejaVuSans-105"/>
      <use x="248.845703" xlink:href="#DejaVuSans-112"/>
      <use x="312.322266" xlink:href="#DejaVuSans-105"/>
      <use x="340.105469" xlink:href="#DejaVuSans-116"/>
      <use x="379.314453" xlink:href="#DejaVuSans-97"/>
      <use x="440.59375" xlink:href="#DejaVuSans-116"/>
      <use x="479.802734" xlink:href="#DejaVuSans-105"/>
      <use x="507.585938" xlink:href="#DejaVuSans-111"/>
      <use x="568.767578" xlink:href="#DejaVuSans-110"/>
      <use x="632.146484" xlink:href="#DejaVuSans-32"/>
      <use x="663.933594" xlink:href="#DejaVuSans-91"/>
      <use x="702.947266" xlink:href="#DejaVuSans-109"/>
      <use x="800.359375" xlink:href="#DejaVuSans-109"/>
      <use x="897.771484" xlink:href="#DejaVuSans-47"/>
      <use x="931.462891" xlink:href="#DejaVuSans-104"/>
      <use x="994.841797" xlink:href="#DejaVuSans-111"/>
      <use x="1056.023438" xlink:href="#DejaVuSans-117"/>
      <use x="1119.402344" xlink:href="#DejaVuSans-114"/>
      <use x="1160.515625" xlink:href="#DejaVuSans-93"/>
     </g>
    </g>
   </g>
   <g id="line2d_15">
    <path clip-path="url(#p29b184cf33)" d="M 61.535795 133.414037 
L 76.974531 93.755674 
L 92.413266 105.811915 
L 107.852001 134.818248 
L 123.290736 155.281148 
L 138.729471 160.440366 
L 154.168207 162.806882 
L 169.606942 162.827172 
L 185.045677 163.357485 
L 200.484412 163.557745 
L 215.923147 164.039841 
L 231.361882 164.452615 
L 246.800618 165.091641 
L 262.239353 165.327788 
L 277.678088 165.50053 
L 293.116823 165.56905 
L 308.555558 165.753207 
L 323.994293 165.889567 
L 339.433029 165.927524 
L 354.871764 165.94288 
L 370.310499 165.93986 
L 385.749234 165.948642 
L 401.187969 165.952433 
L 416.626705 165.96 
" style="fill:none;stroke:#1b9e77;stroke-linecap:square;stroke-opacity:0.5;stroke-width:1.5;"/>
   </g>
   <g id="line2d_16">
    <path clip-path="url(#p29b184cf33)" d="M 61.535795 165.652653 
L 76.974531 165.649593 
L 92.413266 165.287697 
L 107.852001 164.537711 
L 123.290736 162.160556 
L 138.729471 163.950647 
L 154.168207 163.6555 
L 169.606942 162.504944 
L 185.045677 164.034092 
L 200.484412 163.37696 
L 215.923147 160.843504 
L 231.361882 158.343954 
L 246.800618 155.251392 
L 262.239353 153.316636 
L 277.678088 162.019544 
L 293.116823 162.909557 
L 308.555558 14.76 
L 323.994293 164.658263 
L 339.433029 157.98426 
L 354.871764 160.225092 
L 370.310499 164.432164 
L 385.749234 165.916778 
L 401.187969 165.937545 
L 416.626705 165.957219 
" style="fill:none;stroke:#1b9e77;stroke-linecap:square;stroke-opacity:0.5;stroke-width:1.5;"/>
   </g>
   <g id="line2d_17">
    <path clip-path="url(#p29b184cf33)" d="M 61.535795 152.364632 
L 76.974531 125.408373 
L 92.413266 156.071373 
L 107.852001 157.357005 
L 123.290736 163.779735 
L 138.729471 163.595154 
L 154.168207 164.938503 
L 169.606942 165.364432 
L 185.045677 165.591227 
L 200.484412 165.702707 
L 215.923147 165.792756 
L 231.361882 165.7549 
L 246.800618 165.728194 
L 262.239353 165.870031 
L 277.678088 165.820415 
L 293.116823 165.95467 
L 308.555558 164.537286 
L 323.994293 142.362755 
L 339.433029 129.643105 
L 354.871764 144.166194 
L 370.310499 146.467994 
L 385.749234 147.509951 
L 401.187969 160.8794 
L 416.626705 142.705462 
" style="fill:none;stroke:#1b9e77;stroke-linecap:square;stroke-opacity:0.5;stroke-width:1.5;"/>
   </g>
   <g id="line2d_18">
    <path clip-path="url(#p29b184cf33)" d="M 61.535795 162.007115 
L 76.974531 152.873169 
L 92.413266 164.015336 
L 107.852001 165.406572 
L 123.290736 165.458352 
L 138.729471 162.6019 
L 154.168207 129.370298 
L 169.606942 123.946391 
L 185.045677 144.883777 
L 200.484412 160.693756 
L 215.923147 161.858383 
L 231.361882 150.966995 
L 246.800618 153.763799 
L 262.239353 164.125968 
L 277.678088 165.315037 
L 293.116823 164.714943 
L 308.555558 163.037256 
L 323.994293 165.190904 
L 339.433029 165.634605 
L 354.871764 155.581636 
L 370.310499 139.719712 
L 385.749234 152.510648 
L 401.187969 155.104337 
L 416.626705 164.585361 
" style="fill:none;stroke:#1b9e77;stroke-linecap:square;stroke-opacity:0.5;stroke-width:1.5;"/>
   </g>
   <g id="line2d_19">
    <path clip-path="url(#p29b184cf33)" d="M 61.535795 161.189109 
L 76.974531 134.728491 
L 92.413266 151.058547 
L 107.852001 164.085559 
L 123.290736 164.803669 
L 138.729471 163.316508 
L 154.168207 140.852675 
L 169.606942 123.132098 
L 185.045677 104.623023 
L 200.484412 164.479393 
L 215.923147 161.383647 
L 231.361882 148.454017 
L 246.800618 165.275103 
L 262.239353 161.692922 
L 277.678088 163.671157 
L 293.116823 165.948449 
L 308.555558 165.933204 
L 323.994293 164.975337 
L 339.433029 161.087322 
L 354.871764 161.106357 
L 370.310499 164.603451 
L 385.749234 165.954409 
L 401.187969 165.949285 
L 416.626705 165.062517 
" style="fill:none;stroke:#1b9e77;stroke-linecap:square;stroke-opacity:0.5;stroke-width:1.5;"/>
   </g>
   <g id="line2d_20">
    <path clip-path="url(#p29b184cf33)" d="M 61.535795 153.47026 
L 76.974531 152.462621 
L 92.413266 163.991427 
L 107.852001 164.376844 
L 123.290736 165.10551 
L 138.729471 164.869087 
L 154.168207 163.299762 
L 169.606942 164.835493 
L 185.045677 165.574015 
L 200.484412 165.654522 
L 215.923147 165.739137 
L 231.361882 165.712281 
L 246.800618 165.796174 
L 262.239353 165.858225 
L 277.678088 165.867231 
L 293.116823 165.879705 
L 308.555558 165.729992 
L 323.994293 163.096763 
L 339.433029 162.840247 
L 354.871764 165.685441 
L 370.310499 162.263731 
L 385.749234 84.61304 
L 401.187969 110.53545 
L 416.626705 120.109289 
" style="fill:none;stroke:#1b9e77;stroke-linecap:square;stroke-opacity:0.5;stroke-width:1.5;"/>
   </g>
   <g id="line2d_21">
    <path clip-path="url(#p29b184cf33)" d="M 61.535795 165.29659 
L 76.974531 165.612088 
L 92.413266 165.869618 
L 107.852001 165.888129 
L 123.290736 165.910544 
L 138.729471 165.936452 
L 154.168207 165.917541 
L 169.606942 165.954784 
L 185.045677 165.309124 
L 200.484412 161.439815 
L 215.923147 164.503566 
L 231.361882 160.076599 
L 246.800618 90.514086 
L 262.239353 154.07052 
L 277.678088 158.765193 
L 293.116823 148.116367 
L 308.555558 161.355218 
L 323.994293 164.940874 
L 339.433029 165.465113 
L 354.871764 165.628168 
L 370.310499 157.455706 
L 385.749234 134.910285 
L 401.187969 121.153436 
L 416.626705 153.276435 
" style="fill:none;stroke:#1b9e77;stroke-linecap:square;stroke-opacity:0.5;stroke-width:1.5;"/>
   </g>
   <g id="line2d_22">
    <path clip-path="url(#p29b184cf33)" d="M 61.535795 163.081665 
L 76.974531 155.677806 
L 92.413266 149.534895 
L 107.852001 153.402196 
L 123.290736 150.075229 
L 138.729471 112.69388 
L 154.168207 108.859074 
L 169.606942 131.848639 
L 185.045677 155.256247 
L 200.484412 163.660437 
L 215.923147 165.081934 
L 231.361882 164.825981 
L 246.800618 165.221912 
L 262.239353 165.771387 
L 277.678088 165.861389 
L 293.116823 165.897008 
L 308.555558 164.972723 
L 323.994293 165.329421 
L 339.433029 165.864133 
L 354.871764 164.643216 
L 370.310499 164.135184 
L 385.749234 163.845981 
L 401.187969 163.109006 
L 416.626705 164.716907 
" style="fill:none;stroke:#1b9e77;stroke-linecap:square;stroke-opacity:0.5;stroke-width:1.5;"/>
   </g>
   <g id="line2d_23">
    <path clip-path="url(#p29b184cf33)" d="M 61.535795 162.152878 
L 76.974531 158.344205 
L 92.413266 153.365357 
L 107.852001 148.437881 
L 123.290736 152.399933 
L 138.729471 125.440939 
L 154.168207 51.355172 
L 169.606942 158.892041 
L 185.045677 165.662925 
L 200.484412 165.775023 
L 215.923147 165.851672 
L 231.361882 165.822347 
L 246.800618 165.828376 
L 262.239353 165.864866 
L 277.678088 165.892722 
L 293.116823 165.901154 
L 308.555558 165.899257 
L 323.994293 165.895894 
L 339.433029 165.88824 
L 354.871764 165.92217 
L 370.310499 165.933457 
L 385.749234 165.683374 
L 401.187969 161.747262 
L 416.626705 159.409106 
" style="fill:none;stroke:#1b9e77;stroke-linecap:square;stroke-opacity:0.5;stroke-width:1.5;"/>
   </g>
   <g id="line2d_24">
    <path clip-path="url(#p29b184cf33)" d="M 61.535795 165.422671 
L 76.974531 165.359545 
L 92.413266 165.216459 
L 107.852001 164.192728 
L 123.290736 164.82716 
L 138.729471 165.038672 
L 154.168207 163.950636 
L 169.606942 164.457693 
L 185.045677 164.199082 
L 200.484412 163.940914 
L 215.923147 163.294586 
L 231.361882 161.852116 
L 246.800618 159.998252 
L 262.239353 157.785239 
L 277.678088 156.030306 
L 293.116823 156.788274 
L 308.555558 156.64177 
L 323.994293 127.688177 
L 339.433029 103.085718 
L 354.871764 133.296593 
L 370.310499 136.087136 
L 385.749234 162.614406 
L 401.187969 165.674981 
L 416.626705 165.923135 
" style="fill:none;stroke:#1b9e77;stroke-linecap:square;stroke-opacity:0.5;stroke-width:1.5;"/>
   </g>
   <g id="line2d_25">
    <path clip-path="url(#p29b184cf33)" d="M 61.535795 152.986478 
L 76.974531 144.430988 
L 92.413266 156.202662 
L 107.852001 148.230268 
L 123.290736 151.529489 
L 138.729471 159.83125 
L 154.168207 164.497285 
L 169.606942 165.097352 
L 185.045677 165.309308 
L 200.484412 165.079147 
L 215.923147 165.023798 
L 231.361882 165.362966 
L 246.800618 165.545344 
L 262.239353 165.652705 
L 277.678088 165.511386 
L 293.116823 161.660699 
L 308.555558 151.464545 
L 323.994293 160.209325 
L 339.433029 148.864744 
L 354.871764 120.645445 
L 370.310499 144.906176 
L 385.749234 153.952141 
L 401.187969 149.969397 
L 416.626705 161.403358 
" style="fill:none;stroke:#1b9e77;stroke-linecap:square;stroke-opacity:0.5;stroke-width:1.5;"/>
   </g>
   <g id="line2d_26">
    <path clip-path="url(#p29b184cf33)" d="M 61.535795 165.131133 
L 76.974531 165.482367 
L 92.413266 165.788598 
L 107.852001 165.765297 
L 123.290736 165.810987 
L 138.729471 165.871327 
L 154.168207 165.890761 
L 169.606942 165.92585 
L 185.045677 165.929071 
L 200.484412 165.332354 
L 215.923147 164.565143 
L 231.361882 163.080816 
L 246.800618 160.494827 
L 262.239353 157.947774 
L 277.678088 154.29364 
L 293.116823 155.890425 
L 308.555558 127.285567 
L 323.994293 66.410085 
L 339.433029 141.562526 
L 354.871764 151.22425 
L 370.310499 159.181827 
L 385.749234 163.536084 
L 401.187969 165.094975 
L 416.626705 165.870568 
" style="fill:none;stroke:#1b9e77;stroke-linecap:square;stroke-opacity:0.5;stroke-width:1.5;"/>
   </g>
   <g id="line2d_27">
    <path clip-path="url(#p29b184cf33)" d="M 61.535795 164.585212 
L 76.974531 148.439877 
L 92.413266 124.351535 
L 107.852001 162.97426 
L 123.290736 165.246731 
L 138.729471 162.292979 
L 154.168207 151.655693 
L 169.606942 146.631273 
L 185.045677 158.939364 
L 200.484412 165.854652 
L 215.923147 165.64376 
L 231.361882 159.776097 
L 246.800618 165.000273 
L 262.239353 164.90392 
L 277.678088 164.282953 
L 293.116823 164.618168 
L 308.555558 165.090093 
L 323.994293 164.590765 
L 339.433029 163.397534 
L 354.871764 161.498933 
L 370.310499 158.400791 
L 385.749234 150.277724 
L 401.187969 128.733472 
L 416.626705 126.180189 
" style="fill:none;stroke:#1b9e77;stroke-linecap:square;stroke-opacity:0.5;stroke-width:1.5;"/>
   </g>
   <g id="line2d_28">
    <path clip-path="url(#p29b184cf33)" d="M 61.535795 98.321079 
L 76.974531 130.829572 
L 92.413266 156.065303 
L 107.852001 162.250945 
L 123.290736 151.410974 
L 138.729471 150.231144 
L 154.168207 165.761517 
L 169.606942 165.884327 
L 185.045677 165.911169 
L 200.484412 165.870208 
L 215.923147 165.828258 
L 231.361882 165.895573 
L 246.800618 165.921632 
L 262.239353 165.915968 
L 277.678088 165.788265 
L 293.116823 164.843289 
L 308.555558 163.756612 
L 323.994293 163.374789 
L 339.433029 150.090339 
L 354.871764 156.262096 
L 370.310499 158.635006 
L 385.749234 158.195947 
L 401.187969 144.266183 
L 416.626705 152.056068 
" style="fill:none;stroke:#1b9e77;stroke-linecap:square;stroke-opacity:0.5;stroke-width:1.5;"/>
   </g>
   <g id="line2d_29">
    <path clip-path="url(#p29b184cf33)" d="M 61.535795 164.738672 
L 76.974531 163.782846 
L 92.413266 163.246383 
L 107.852001 160.833703 
L 123.290736 150.843405 
L 138.729471 159.241196 
L 154.168207 158.967971 
L 169.606942 158.749832 
L 185.045677 145.601784 
L 200.484412 162.812801 
L 215.923147 164.274038 
L 231.361882 163.582511 
L 246.800618 164.728313 
L 262.239353 164.712325 
L 277.678088 165.814613 
L 293.116823 164.5218 
L 308.555558 163.553436 
L 323.994293 140.362649 
L 339.433029 155.271976 
L 354.871764 165.428969 
L 370.310499 162.540004 
L 385.749234 128.392706 
L 401.187969 122.835079 
L 416.626705 138.529243 
" style="fill:none;stroke:#1b9e77;stroke-linecap:square;stroke-opacity:0.5;stroke-width:1.5;"/>
   </g>
   <g id="line2d_30">
    <path clip-path="url(#p29b184cf33)" d="M 61.535795 160.189954 
L 76.974531 159.879025 
L 92.413266 165.188294 
L 107.852001 165.598559 
L 123.290736 165.667714 
L 138.729471 164.458978 
L 154.168207 138.177359 
L 169.606942 158.988917 
L 185.045677 165.166978 
L 200.484412 165.909973 
L 215.923147 165.931808 
L 231.361882 158.027701 
L 246.800618 133.822128 
L 262.239353 165.67362 
L 277.678088 165.788535 
L 293.116823 165.733238 
L 308.555558 163.418236 
L 323.994293 159.309497 
L 339.433029 121.492366 
L 354.871764 149.222614 
L 370.310499 156.563799 
L 385.749234 149.270716 
L 401.187969 137.310067 
L 416.626705 152.576172 
" style="fill:none;stroke:#1b9e77;stroke-linecap:square;stroke-opacity:0.5;stroke-width:1.5;"/>
   </g>
   <g id="line2d_31">
    <path clip-path="url(#p29b184cf33)" d="M 61.535795 165.366232 
L 76.974531 164.91927 
L 92.413266 164.621497 
L 107.852001 163.400732 
L 123.290736 163.686625 
L 138.729471 163.600152 
L 154.168207 163.797297 
L 169.606942 162.164636 
L 185.045677 157.234958 
L 200.484412 153.384102 
L 215.923147 152.557411 
L 231.361882 156.711068 
L 246.800618 160.116672 
L 262.239353 158.116675 
L 277.678088 131.798391 
L 293.116823 133.84475 
L 308.555558 142.339481 
L 323.994293 105.787678 
L 339.433029 161.909103 
L 354.871764 164.908924 
L 370.310499 165.61021 
L 385.749234 165.70734 
L 401.187969 165.843937 
L 416.626705 165.93911 
" style="fill:none;stroke:#1b9e77;stroke-linecap:square;stroke-opacity:0.5;stroke-width:1.5;"/>
   </g>
   <g id="line2d_32">
    <path clip-path="url(#p29b184cf33)" d="M 61.535795 165.9303 
L 76.974531 165.865918 
L 92.413266 165.896326 
L 107.852001 165.928378 
L 123.290736 165.898413 
L 138.729471 165.740391 
L 154.168207 165.056451 
L 169.606942 165.097689 
L 185.045677 164.86803 
L 200.484412 164.716836 
L 215.923147 164.222384 
L 231.361882 162.884977 
L 246.800618 161.648123 
L 262.239353 159.241925 
L 277.678088 157.471184 
L 293.116823 156.438687 
L 308.555558 131.555087 
L 323.994293 93.132352 
L 339.433029 122.007539 
L 354.871764 137.945919 
L 370.310499 156.183936 
L 385.749234 164.159495 
L 401.187969 165.582581 
L 416.626705 165.893323 
" style="fill:none;stroke:#1b9e77;stroke-linecap:square;stroke-opacity:0.5;stroke-width:1.5;"/>
   </g>
   <g id="line2d_33">
    <path clip-path="url(#p29b184cf33)" d="M 61.535795 157.714337 
L 76.974531 132.960018 
L 92.413266 152.338839 
L 107.852001 164.153855 
L 123.290736 165.507703 
L 138.729471 165.384009 
L 154.168207 165.115667 
L 169.606942 164.957145 
L 185.045677 165.801039 
L 200.484412 165.903525 
L 215.923147 165.927557 
L 231.361882 162.940096 
L 246.800618 163.519705 
L 262.239353 152.05167 
L 277.678088 165.927884 
L 293.116823 165.936851 
L 308.555558 165.73326 
L 323.994293 146.060831 
L 339.433029 122.809657 
L 354.871764 152.938551 
L 370.310499 146.432804 
L 385.749234 141.44932 
L 401.187969 156.324765 
L 416.626705 145.477166 
" style="fill:none;stroke:#1b9e77;stroke-linecap:square;stroke-opacity:0.5;stroke-width:1.5;"/>
   </g>
   <g id="line2d_34">
    <path clip-path="url(#p29b184cf33)" d="M 61.535795 152.296283 
L 76.974531 141.822513 
L 92.413266 152.610659 
L 107.852001 160.213541 
L 123.290736 164.402913 
L 138.729471 165.097209 
L 154.168207 165.402488 
L 169.606942 165.159159 
L 185.045677 165.072363 
L 200.484412 165.337854 
L 215.923147 165.521637 
L 231.361882 165.530751 
L 246.800618 165.54528 
L 262.239353 165.74733 
L 277.678088 165.218152 
L 293.116823 152.768225 
L 308.555558 145.70813 
L 323.994293 147.270884 
L 339.433029 156.750224 
L 354.871764 153.1999 
L 370.310499 151.837554 
L 385.749234 148.153989 
L 401.187969 122.843872 
L 416.626705 149.855344 
" style="fill:none;stroke:#1b9e77;stroke-linecap:square;stroke-opacity:0.5;stroke-width:1.5;"/>
   </g>
   <g id="line2d_35">
    <path clip-path="url(#p29b184cf33)" d="M 61.535795 158.455782 
L 76.974531 154.737092 
L 92.413266 130.275758 
L 107.852001 90.744897 
L 123.290736 138.200752 
L 138.729471 161.172889 
L 154.168207 165.559185 
L 169.606942 165.597828 
L 185.045677 165.711637 
L 200.484412 165.77459 
L 215.923147 165.864659 
L 231.361882 165.882925 
L 246.800618 165.901546 
L 262.239353 165.926417 
L 277.678088 165.911195 
L 293.116823 165.946033 
L 308.555558 164.587248 
L 323.994293 163.335948 
L 339.433029 159.112551 
L 354.871764 165.158367 
L 370.310499 135.203078 
L 385.749234 156.306253 
L 401.187969 165.604182 
L 416.626705 152.395436 
" style="fill:none;stroke:#1b9e77;stroke-linecap:square;stroke-opacity:0.5;stroke-width:1.5;"/>
   </g>
   <g id="line2d_36">
    <path clip-path="url(#p29b184cf33)" d="M 61.535795 142.576934 
L 76.974531 160.014834 
L 92.413266 164.422289 
L 107.852001 164.643919 
L 123.290736 165.245804 
L 138.729471 165.580805 
L 154.168207 165.715989 
L 169.606942 165.779611 
L 185.045677 165.851393 
L 200.484412 165.883528 
L 215.923147 165.885 
L 231.361882 165.870972 
L 246.800618 165.875041 
L 262.239353 165.876502 
L 277.678088 165.881503 
L 293.116823 165.897443 
L 308.555558 165.874957 
L 323.994293 164.801584 
L 339.433029 155.979458 
L 354.871764 163.59541 
L 370.310499 155.005636 
L 385.749234 112.781503 
L 401.187969 74.944626 
L 416.626705 139.381516 
" style="fill:none;stroke:#1b9e77;stroke-linecap:square;stroke-opacity:0.5;stroke-width:1.5;"/>
   </g>
   <g id="line2d_37">
    <path clip-path="url(#p29b184cf33)" d="M 61.535795 165.507795 
L 76.974531 165.480322 
L 92.413266 165.8036 
L 107.852001 165.805485 
L 123.290736 165.836495 
L 138.729471 165.908079 
L 154.168207 165.920622 
L 169.606942 165.948008 
L 185.045677 165.79317 
L 200.484412 133.550948 
L 215.923147 83.968661 
L 231.361882 64.797347 
L 246.800618 164.952268 
L 262.239353 164.847927 
L 277.678088 165.115269 
L 293.116823 164.816592 
L 308.555558 165.179748 
L 323.994293 165.581383 
L 339.433029 165.747919 
L 354.871764 165.737682 
L 370.310499 165.592577 
L 385.749234 165.851808 
L 401.187969 165.441705 
L 416.626705 160.180843 
" style="fill:none;stroke:#1b9e77;stroke-linecap:square;stroke-opacity:0.5;stroke-width:1.5;"/>
   </g>
   <g id="line2d_38">
    <path clip-path="url(#p29b184cf33)" d="M 61.535795 159.963797 
L 76.974531 150.433836 
L 92.413266 148.185845 
L 107.852001 157.095852 
L 123.290736 122.997713 
L 138.729471 71.879747 
L 154.168207 157.317885 
L 169.606942 162.550149 
L 185.045677 164.775424 
L 200.484412 165.217023 
L 215.923147 165.600219 
L 231.361882 165.570468 
L 246.800618 165.670311 
L 262.239353 165.708729 
L 277.678088 165.723648 
L 293.116823 165.751923 
L 308.555558 165.715737 
L 323.994293 165.389369 
L 339.433029 164.737064 
L 354.871764 163.571854 
L 370.310499 162.118765 
L 385.749234 162.209246 
L 401.187969 154.87577 
L 416.626705 160.305861 
" style="fill:none;stroke:#1b9e77;stroke-linecap:square;stroke-opacity:0.5;stroke-width:1.5;"/>
   </g>
   <g id="line2d_39">
    <path clip-path="url(#p29b184cf33)" d="M 61.535795 165.780566 
L 76.974531 165.812203 
L 92.413266 165.883091 
L 107.852001 165.8689 
L 123.290736 165.662981 
L 138.729471 164.413094 
L 154.168207 162.120218 
L 169.606942 160.133221 
L 185.045677 156.246562 
L 200.484412 159.173734 
L 215.923147 161.229267 
L 231.361882 154.025289 
L 246.800618 117.559795 
L 262.239353 118.794671 
L 277.678088 141.148456 
L 293.116823 134.807903 
L 308.555558 153.387146 
L 323.994293 165.296245 
L 339.433029 165.77152 
L 354.871764 164.656031 
L 370.310499 158.780164 
L 385.749234 163.61433 
L 401.187969 160.510134 
L 416.626705 162.690723 
" style="fill:none;stroke:#1b9e77;stroke-linecap:square;stroke-opacity:0.5;stroke-width:1.5;"/>
   </g>
   <g id="line2d_40">
    <path clip-path="url(#p29b184cf33)" d="M 61.535795 165.917777 
L 76.974531 165.858659 
L 92.413266 165.877396 
L 107.852001 165.910752 
L 123.290736 165.248847 
L 138.729471 164.398564 
L 154.168207 164.052025 
L 169.606942 163.784653 
L 185.045677 155.892833 
L 200.484412 156.886007 
L 215.923147 156.127631 
L 231.361882 159.906749 
L 246.800618 162.933644 
L 262.239353 160.147534 
L 277.678088 156.409982 
L 293.116823 157.140727 
L 308.555558 163.015619 
L 323.994293 163.076218 
L 339.433029 143.434159 
L 354.871764 141.744258 
L 370.310499 143.131534 
L 385.749234 133.271927 
L 401.187969 133.195109 
L 416.626705 146.003644 
" style="fill:none;stroke:#1b9e77;stroke-linecap:square;stroke-opacity:0.5;stroke-width:1.5;"/>
   </g>
   <g id="line2d_41">
    <path clip-path="url(#p29b184cf33)" d="M 61.535795 161.854691 
L 76.974531 150.466474 
L 92.413266 165.600169 
L 107.852001 165.811777 
L 123.290736 165.687622 
L 138.729471 139.798039 
L 154.168207 129.961687 
L 169.606942 162.752205 
L 185.045677 163.856377 
L 200.484412 157.865301 
L 215.923147 149.052813 
L 231.361882 154.45563 
L 246.800618 160.892424 
L 262.239353 164.725036 
L 277.678088 164.370951 
L 293.116823 159.142393 
L 308.555558 154.806279 
L 323.994293 162.2746 
L 339.433029 162.125715 
L 354.871764 143.482084 
L 370.310499 141.291034 
L 385.749234 145.712153 
L 401.187969 161.537798 
L 416.626705 165.842998 
" style="fill:none;stroke:#1b9e77;stroke-linecap:square;stroke-opacity:0.5;stroke-width:1.5;"/>
   </g>
   <g id="line2d_42">
    <path clip-path="url(#p29b184cf33)" d="M 61.535795 164.727332 
L 76.974531 165.908491 
L 92.413266 165.953016 
L 107.852001 165.593914 
L 123.290736 164.892912 
L 138.729471 164.064382 
L 154.168207 155.581058 
L 169.606942 165.087987 
L 185.045677 164.302181 
L 200.484412 162.421494 
L 215.923147 160.538915 
L 231.361882 123.627026 
L 246.800618 151.308633 
L 262.239353 159.091031 
L 277.678088 144.821893 
L 293.116823 126.316032 
L 308.555558 132.201897 
L 323.994293 161.723103 
L 339.433029 163.366864 
L 354.871764 151.756359 
L 370.310499 145.494393 
L 385.749234 162.812902 
L 401.187969 165.832294 
L 416.626705 165.942138 
" style="fill:none;stroke:#1b9e77;stroke-linecap:square;stroke-opacity:0.5;stroke-width:1.5;"/>
   </g>
   <g id="line2d_43">
    <path clip-path="url(#p29b184cf33)" d="M 61.535795 165.133567 
L 76.974531 165.220585 
L 92.413266 165.53108 
L 107.852001 165.238783 
L 123.290736 165.073493 
L 138.729471 165.577979 
L 154.168207 165.766602 
L 169.606942 165.860284 
L 185.045677 165.837858 
L 200.484412 161.871296 
L 215.923147 150.485845 
L 231.361882 160.285092 
L 246.800618 154.69162 
L 262.239353 152.484021 
L 277.678088 155.925768 
L 293.116823 142.20759 
L 308.555558 113.419634 
L 323.994293 160.196035 
L 339.433029 157.451516 
L 354.871764 144.431395 
L 370.310499 153.137222 
L 385.749234 155.66274 
L 401.187969 144.259091 
L 416.626705 157.617155 
" style="fill:none;stroke:#1b9e77;stroke-linecap:square;stroke-opacity:0.5;stroke-width:1.5;"/>
   </g>
   <g id="line2d_44">
    <path clip-path="url(#p29b184cf33)" d="M 61.535795 165.88596 
L 76.974531 165.82125 
L 92.413266 165.891803 
L 107.852001 165.911263 
L 123.290736 165.92318 
L 138.729471 165.924619 
L 154.168207 165.91963 
L 169.606942 165.928814 
L 185.045677 165.932779 
L 200.484412 165.940925 
L 215.923147 164.930705 
L 231.361882 163.876788 
L 246.800618 159.69586 
L 262.239353 155.55175 
L 277.678088 146.60046 
L 293.116823 159.362826 
L 308.555558 162.327002 
L 323.994293 105.560344 
L 339.433029 103.750893 
L 354.871764 137.344222 
L 370.310499 160.3298 
L 385.749234 158.239916 
L 401.187969 157.235136 
L 416.626705 159.48033 
" style="fill:none;stroke:#1b9e77;stroke-linecap:square;stroke-opacity:0.5;stroke-width:1.5;"/>
   </g>
   <g id="line2d_45">
    <path clip-path="url(#p29b184cf33)" d="M 61.535795 165.708567 
L 76.974531 165.515603 
L 92.413266 158.378393 
L 107.852001 149.894618 
L 123.290736 137.935707 
L 138.729471 165.350391 
L 154.168207 161.095478 
L 169.606942 129.863377 
L 185.045677 154.635252 
L 200.484412 143.067039 
L 215.923147 163.981255 
L 231.361882 164.802962 
L 246.800618 157.74076 
L 262.239353 163.965165 
L 277.678088 162.864314 
L 293.116823 162.743332 
L 308.555558 162.829668 
L 323.994293 162.017995 
L 339.433029 164.356559 
L 354.871764 136.629801 
L 370.310499 132.689109 
L 385.749234 156.991225 
L 401.187969 164.754194 
L 416.626705 165.555488 
" style="fill:none;stroke:#1b9e77;stroke-linecap:square;stroke-opacity:0.5;stroke-width:1.5;"/>
   </g>
   <g id="line2d_46">
    <path clip-path="url(#p29b184cf33)" d="M 61.535795 160.926533 
L 76.974531 157.327696 
L 92.413266 164.86408 
L 107.852001 165.226205 
L 123.290736 165.280135 
L 138.729471 163.051779 
L 154.168207 163.365495 
L 169.606942 165.41499 
L 185.045677 165.617295 
L 200.484412 165.55279 
L 215.923147 165.150177 
L 231.361882 163.516278 
L 246.800618 164.431965 
L 262.239353 165.758386 
L 277.678088 165.712442 
L 293.116823 161.860731 
L 308.555558 134.50681 
L 323.994293 142.483859 
L 339.433029 93.771757 
L 354.871764 142.633791 
L 370.310499 143.164286 
L 385.749234 155.886438 
L 401.187969 156.133099 
L 416.626705 161.729237 
" style="fill:none;stroke:#1b9e77;stroke-linecap:square;stroke-opacity:0.5;stroke-width:1.5;"/>
   </g>
   <g id="line2d_47">
    <path clip-path="url(#p29b184cf33)" d="M 61.535795 165.837349 
L 76.974531 165.808108 
L 92.413266 165.892367 
L 107.852001 165.869141 
L 123.290736 165.852663 
L 138.729471 165.920749 
L 154.168207 165.93043 
L 169.606942 164.865339 
L 185.045677 164.274811 
L 200.484412 162.73285 
L 215.923147 152.387035 
L 231.361882 160.10569 
L 246.800618 157.23845 
L 262.239353 157.944087 
L 277.678088 159.874225 
L 293.116823 90.393806 
L 308.555558 110.768155 
L 323.994293 148.899343 
L 339.433029 152.274273 
L 354.871764 151.138666 
L 370.310499 162.419621 
L 385.749234 165.310847 
L 401.187969 165.713853 
L 416.626705 165.914399 
" style="fill:none;stroke:#1b9e77;stroke-linecap:square;stroke-opacity:0.5;stroke-width:1.5;"/>
   </g>
   <g id="line2d_48">
    <path clip-path="url(#p29b184cf33)" d="M 61.535795 159.462422 
L 76.974531 161.706329 
L 92.413266 164.203209 
L 107.852001 164.055281 
L 123.290736 163.374468 
L 138.729471 157.714711 
L 154.168207 156.532181 
L 169.606942 164.723874 
L 185.045677 165.302209 
L 200.484412 165.49553 
L 215.923147 162.72211 
L 231.361882 94.335765 
L 246.800618 109.417433 
L 262.239353 165.894262 
L 277.678088 165.937908 
L 293.116823 165.946823 
L 308.555558 165.947173 
L 323.994293 165.946862 
L 339.433029 165.948845 
L 354.871764 165.925384 
L 370.310499 155.651819 
L 385.749234 144.839472 
L 401.187969 143.002091 
L 416.626705 159.280086 
" style="fill:none;stroke:#1b9e77;stroke-linecap:square;stroke-opacity:0.5;stroke-width:1.5;"/>
   </g>
   <g id="line2d_49">
    <path clip-path="url(#p29b184cf33)" d="M 61.535795 161.320558 
L 76.974531 142.884471 
L 92.413266 141.938521 
L 107.852001 152.941683 
L 123.290736 159.671092 
L 138.729471 157.322506 
L 154.168207 159.790702 
L 169.606942 165.801057 
L 185.045677 165.918144 
L 200.484412 165.942041 
L 215.923147 165.943454 
L 231.361882 165.853016 
L 246.800618 165.911174 
L 262.239353 165.948019 
L 277.678088 165.929171 
L 293.116823 164.700523 
L 308.555558 162.088589 
L 323.994293 160.824255 
L 339.433029 138.098485 
L 354.871764 138.607319 
L 370.310499 153.152284 
L 385.749234 149.13847 
L 401.187969 137.215493 
L 416.626705 146.42522 
" style="fill:none;stroke:#1b9e77;stroke-linecap:square;stroke-opacity:0.5;stroke-width:1.5;"/>
   </g>
   <g id="line2d_50">
    <path clip-path="url(#p29b184cf33)" d="M 61.535795 135.691594 
L 76.974531 93.204402 
L 92.413266 158.909941 
L 107.852001 161.623734 
L 123.290736 163.338932 
L 138.729471 160.705306 
L 154.168207 150.949818 
L 169.606942 162.410629 
L 185.045677 164.38302 
L 200.484412 157.740969 
L 215.923147 137.129415 
L 231.361882 155.048087 
L 246.800618 163.971774 
L 262.239353 165.205206 
L 277.678088 165.203574 
L 293.116823 165.223165 
L 308.555558 165.394367 
L 323.994293 165.933631 
L 339.433029 165.952856 
L 354.871764 165.0005 
L 370.310499 163.409513 
L 385.749234 155.246777 
L 401.187969 145.732492 
L 416.626705 165.956547 
" style="fill:none;stroke:#1b9e77;stroke-linecap:square;stroke-opacity:0.5;stroke-width:1.5;"/>
   </g>
   <g id="line2d_51">
    <path clip-path="url(#p29b184cf33)" d="M 61.535795 164.10433 
L 76.974531 131.214694 
L 92.413266 138.770711 
L 107.852001 154.742032 
L 123.290736 148.801506 
L 138.729471 137.26017 
L 154.168207 133.232356 
L 169.606942 148.585782 
L 185.045677 155.529019 
L 200.484412 161.184477 
L 215.923147 156.103487 
L 231.361882 145.829503 
L 246.800618 160.056502 
L 262.239353 165.455448 
L 277.678088 165.877483 
L 293.116823 165.809104 
L 308.555558 165.779463 
L 323.994293 165.664107 
L 339.433029 165.760506 
L 354.871764 165.864712 
L 370.310499 165.831315 
L 385.749234 165.171751 
L 401.187969 161.12503 
L 416.626705 165.612767 
" style="fill:none;stroke:#1b9e77;stroke-linecap:square;stroke-opacity:0.5;stroke-width:1.5;"/>
   </g>
   <g id="line2d_52">
    <path clip-path="url(#p29b184cf33)" d="M 61.535795 164.5138 
L 76.974531 165.32546 
L 92.413266 165.737446 
L 107.852001 165.810786 
L 123.290736 165.761616 
L 138.729471 164.791675 
L 154.168207 156.677123 
L 169.606942 162.117052 
L 185.045677 155.132821 
L 200.484412 151.936579 
L 215.923147 151.316401 
L 231.361882 158.293333 
L 246.800618 156.795502 
L 262.239353 122.518064 
L 277.678088 122.064334 
L 293.116823 138.545212 
L 308.555558 153.18752 
L 323.994293 152.126278 
L 339.433029 159.487735 
L 354.871764 161.906379 
L 370.310499 163.730442 
L 385.749234 164.6333 
L 401.187969 165.107359 
L 416.626705 165.850032 
" style="fill:none;stroke:#1b9e77;stroke-linecap:square;stroke-opacity:0.5;stroke-width:1.5;"/>
   </g>
   <g id="line2d_53">
    <path clip-path="url(#p29b184cf33)" d="M 61.535795 165.157535 
L 76.974531 164.273594 
L 92.413266 163.390169 
L 107.852001 160.00191 
L 123.290736 146.863537 
L 138.729471 112.156589 
L 154.168207 113.218773 
L 169.606942 101.644268 
L 185.045677 150.088768 
L 200.484412 163.707591 
L 215.923147 165.571909 
L 231.361882 165.444409 
L 246.800618 165.611056 
L 262.239353 165.747175 
L 277.678088 165.839877 
L 293.116823 165.881311 
L 308.555558 165.864948 
L 323.994293 165.832586 
L 339.433029 165.748527 
L 354.871764 165.513346 
L 370.310499 165.238012 
L 385.749234 163.927833 
L 401.187969 162.062469 
L 416.626705 164.580057 
" style="fill:none;stroke:#1b9e77;stroke-linecap:square;stroke-opacity:0.5;stroke-width:1.5;"/>
   </g>
   <g id="line2d_54">
    <path clip-path="url(#p29b184cf33)" d="M 61.535795 101.07482 
L 76.974531 164.272576 
L 92.413266 164.025408 
L 107.852001 161.284685 
L 123.290736 160.219039 
L 138.729471 159.133498 
L 154.168207 155.133673 
L 169.606942 157.725175 
L 185.045677 158.773999 
L 200.484412 158.965966 
L 215.923147 155.571544 
L 231.361882 152.632059 
L 246.800618 140.478317 
L 262.239353 164.544964 
L 277.678088 159.857709 
L 293.116823 145.167049 
L 308.555558 145.203086 
L 323.994293 153.972676 
L 339.433029 165.671759 
L 354.871764 165.915554 
L 370.310499 165.931042 
L 385.749234 165.91783 
L 401.187969 165.936267 
L 416.626705 165.95755 
" style="fill:none;stroke:#1b9e77;stroke-linecap:square;stroke-opacity:0.5;stroke-width:1.5;"/>
   </g>
   <g id="line2d_55">
    <path clip-path="url(#p29b184cf33)" d="M 61.535795 158.533792 
L 76.974531 110.538525 
L 92.413266 111.308497 
L 107.852001 142.247332 
L 123.290736 163.275187 
L 138.729471 165.313513 
L 154.168207 165.736594 
L 169.606942 165.731031 
L 185.045677 165.770301 
L 200.484412 165.71743 
L 215.923147 165.677566 
L 231.361882 165.781661 
L 246.800618 165.779064 
L 262.239353 165.742324 
L 277.678088 165.004156 
L 293.116823 159.167867 
L 308.555558 147.018103 
L 323.994293 163.148065 
L 339.433029 161.315922 
L 354.871764 150.844048 
L 370.310499 148.442035 
L 385.749234 159.241659 
L 401.187969 158.379196 
L 416.626705 163.652377 
" style="fill:none;stroke:#1b9e77;stroke-linecap:square;stroke-opacity:0.5;stroke-width:1.5;"/>
   </g>
   <g id="line2d_56">
    <path clip-path="url(#p29b184cf33)" d="M 61.535795 164.839532 
L 76.974531 165.339747 
L 92.413266 165.758562 
L 107.852001 165.754951 
L 123.290736 165.658458 
L 138.729471 164.339036 
L 154.168207 161.790901 
L 169.606942 165.710476 
L 185.045677 165.238167 
L 200.484412 152.899596 
L 215.923147 163.60387 
L 231.361882 141.001236 
L 246.800618 144.293754 
L 262.239353 164.198323 
L 277.678088 160.746454 
L 293.116823 136.235456 
L 308.555558 135.447006 
L 323.994293 159.175285 
L 339.433029 164.633237 
L 354.871764 154.319793 
L 370.310499 142.981326 
L 385.749234 150.391497 
L 401.187969 137.424467 
L 416.626705 161.585125 
" style="fill:none;stroke:#1b9e77;stroke-linecap:square;stroke-opacity:0.5;stroke-width:1.5;"/>
   </g>
   <g id="line2d_57">
    <path clip-path="url(#p29b184cf33)" d="M 61.535795 161.478502 
L 76.974531 165.725709 
L 92.413266 165.701943 
L 107.852001 161.089625 
L 123.290736 165.451292 
L 138.729471 163.947403 
L 154.168207 160.298599 
L 169.606942 157.724943 
L 185.045677 162.181637 
L 200.484412 130.482 
L 215.923147 130.530272 
L 231.361882 145.199963 
L 246.800618 162.043229 
L 262.239353 165.514418 
L 277.678088 160.069385 
L 293.116823 149.99878 
L 308.555558 150.902334 
L 323.994293 158.560533 
L 339.433029 158.078117 
L 354.871764 156.72417 
L 370.310499 157.238762 
L 385.749234 154.446846 
L 401.187969 148.421928 
L 416.626705 161.555869 
" style="fill:none;stroke:#1b9e77;stroke-linecap:square;stroke-opacity:0.5;stroke-width:1.5;"/>
   </g>
   <g id="line2d_58">
    <path clip-path="url(#p29b184cf33)" d="M 61.535795 132.482088 
L 76.974531 129.342632 
L 92.413266 119.191587 
L 107.852001 132.075504 
L 123.290736 121.311725 
L 138.729471 161.640533 
L 154.168207 165.760181 
L 169.606942 165.815175 
L 185.045677 165.87009 
L 200.484412 165.443665 
L 215.923147 165.76163 
L 231.361882 165.869967 
L 246.800618 165.888399 
L 262.239353 165.615871 
L 277.678088 164.750142 
L 293.116823 164.187424 
L 308.555558 165.07954 
L 323.994293 165.185021 
L 339.433029 164.726724 
L 354.871764 162.346189 
L 370.310499 162.050815 
L 385.749234 161.075422 
L 401.187969 158.374803 
L 416.626705 163.521119 
" style="fill:none;stroke:#1b9e77;stroke-linecap:square;stroke-opacity:0.5;stroke-width:1.5;"/>
   </g>
   <g id="line2d_59">
    <path clip-path="url(#p29b184cf33)" d="M 61.535795 161.268789 
L 76.974531 164.226071 
L 92.413266 158.119351 
L 107.852001 165.949808 
L 123.290736 161.111346 
L 138.729471 102.394274 
L 154.168207 137.366919 
L 169.606942 162.548953 
L 185.045677 88.811266 
L 200.484412 161.620258 
L 215.923147 165.804421 
L 231.361882 155.181879 
L 246.800618 161.653774 
L 262.239353 165.553519 
L 277.678088 165.880609 
L 293.116823 165.909582 
L 308.555558 165.911185 
L 323.994293 165.545511 
L 339.433029 163.280059 
L 354.871764 165.507821 
L 370.310499 165.184085 
L 385.749234 163.252844 
L 401.187969 161.428574 
L 416.626705 159.855344 
" style="fill:none;stroke:#1b9e77;stroke-linecap:square;stroke-opacity:0.5;stroke-width:1.5;"/>
   </g>
   <g id="line2d_60">
    <path clip-path="url(#p29b184cf33)" d="M 61.535795 159.666715 
L 76.974531 161.430257 
L 92.413266 163.757848 
L 107.852001 163.134288 
L 123.290736 156.619821 
L 138.729471 157.332362 
L 154.168207 161.618005 
L 169.606942 163.423796 
L 185.045677 160.157684 
L 200.484412 120.348902 
L 215.923147 71.349895 
L 231.361882 127.784483 
L 246.800618 164.775616 
L 262.239353 165.664292 
L 277.678088 165.846576 
L 293.116823 165.821305 
L 308.555558 165.814717 
L 323.994293 165.849893 
L 339.433029 165.886227 
L 354.871764 165.91813 
L 370.310499 165.917562 
L 385.749234 165.941006 
L 401.187969 164.216597 
L 416.626705 165.090278 
" style="fill:none;stroke:#1b9e77;stroke-linecap:square;stroke-opacity:0.5;stroke-width:1.5;"/>
   </g>
   <g id="line2d_61">
    <path clip-path="url(#p29b184cf33)" d="M 61.535795 165.299634 
L 76.974531 164.4824 
L 92.413266 164.226674 
L 107.852001 160.665557 
L 123.290736 95.011091 
L 138.729471 94.442655 
L 154.168207 147.46029 
L 169.606942 163.612958 
L 185.045677 131.520887 
L 200.484412 150.637041 
L 215.923147 165.0017 
L 231.361882 163.408831 
L 246.800618 164.573723 
L 262.239353 165.456611 
L 277.678088 165.735153 
L 293.116823 165.817891 
L 308.555558 165.888109 
L 323.994293 165.916569 
L 339.433029 165.859642 
L 354.871764 165.717532 
L 370.310499 165.671805 
L 385.749234 165.652472 
L 401.187969 165.606494 
L 416.626705 165.700535 
" style="fill:none;stroke:#1b9e77;stroke-linecap:square;stroke-opacity:0.5;stroke-width:1.5;"/>
   </g>
   <g id="line2d_62">
    <path clip-path="url(#p29b184cf33)" d="M 61.535795 164.87976 
L 76.974531 158.537999 
L 92.413266 119.94182 
L 107.852001 78.503987 
L 123.290736 142.099919 
L 138.729471 144.057813 
L 154.168207 153.000729 
L 169.606942 160.437683 
L 185.045677 164.875759 
L 200.484412 165.496411 
L 215.923147 165.667922 
L 231.361882 165.571245 
L 246.800618 165.253667 
L 262.239353 165.829509 
L 277.678088 164.897431 
L 293.116823 165.01976 
L 308.555558 165.17375 
L 323.994293 164.937061 
L 339.433029 164.497149 
L 354.871764 163.86688 
L 370.310499 163.496644 
L 385.749234 162.198667 
L 401.187969 160.819784 
L 416.626705 164.304902 
" style="fill:none;stroke:#1b9e77;stroke-linecap:square;stroke-opacity:0.5;stroke-width:1.5;"/>
   </g>
   <g id="line2d_63">
    <path clip-path="url(#p29b184cf33)" d="M 61.535795 165.949882 
L 76.974531 165.924451 
L 92.413266 165.937964 
L 107.852001 165.936021 
L 123.290736 165.929313 
L 138.729471 165.935663 
L 154.168207 165.939645 
L 169.606942 165.949124 
L 185.045677 165.953157 
L 200.484412 165.931494 
L 215.923147 164.283783 
L 231.361882 165.621415 
L 246.800618 162.764986 
L 262.239353 162.793667 
L 277.678088 162.739444 
L 293.116823 160.751389 
L 308.555558 159.614466 
L 323.994293 142.520419 
L 339.433029 42.369375 
L 354.871764 127.841821 
L 370.310499 155.620144 
L 385.749234 158.548026 
L 401.187969 162.784344 
L 416.626705 165.726258 
" style="fill:none;stroke:#1b9e77;stroke-linecap:square;stroke-opacity:0.5;stroke-width:1.5;"/>
   </g>
   <g id="line2d_64">
    <path clip-path="url(#p29b184cf33)" d="M 61.535795 165.752089 
L 76.974531 165.590724 
L 92.413266 165.810029 
L 107.852001 165.823139 
L 123.290736 165.851802 
L 138.729471 165.869351 
L 154.168207 165.84745 
L 169.606942 165.919842 
L 185.045677 165.884437 
L 200.484412 161.233662 
L 215.923147 163.368925 
L 231.361882 160.826761 
L 246.800618 155.131744 
L 262.239353 146.842765 
L 277.678088 129.856741 
L 293.116823 141.930201 
L 308.555558 129.610269 
L 323.994293 83.374425 
L 339.433029 161.944906 
L 354.871764 164.653077 
L 370.310499 165.341588 
L 385.749234 165.36642 
L 401.187969 165.620486 
L 416.626705 165.915426 
" style="fill:none;stroke:#1b9e77;stroke-linecap:square;stroke-opacity:0.5;stroke-width:1.5;"/>
   </g>
   <g id="line2d_65">
    <path clip-path="url(#p29b184cf33)" d="M 61.535795 165.175824 
L 76.974531 165.484241 
L 92.413266 165.785426 
L 107.852001 165.791539 
L 123.290736 165.82306 
L 138.729471 165.840171 
L 154.168207 165.829938 
L 169.606942 165.926907 
L 185.045677 165.92853 
L 200.484412 165.116473 
L 215.923147 164.897869 
L 231.361882 164.110946 
L 246.800618 161.676356 
L 262.239353 159.66916 
L 277.678088 155.911108 
L 293.116823 155.736123 
L 308.555558 158.035482 
L 323.994293 153.873349 
L 339.433029 135.423355 
L 354.871764 126.093717 
L 370.310499 136.508732 
L 385.749234 137.02473 
L 401.187969 133.033688 
L 416.626705 154.669526 
" style="fill:none;stroke:#1b9e77;stroke-linecap:square;stroke-opacity:0.5;stroke-width:1.5;"/>
   </g>
   <g id="line2d_66">
    <path clip-path="url(#p29b184cf33)" d="M 61.535795 165.82645 
L 76.974531 165.638248 
L 92.413266 165.829418 
L 107.852001 165.861024 
L 123.290736 165.893277 
L 138.729471 165.918149 
L 154.168207 165.921822 
L 169.606942 165.941377 
L 185.045677 165.946559 
L 200.484412 164.716882 
L 215.923147 164.069704 
L 231.361882 163.882864 
L 246.800618 119.366901 
L 262.239353 152.91844 
L 277.678088 149.708858 
L 293.116823 156.352309 
L 308.555558 156.832231 
L 323.994293 142.580041 
L 339.433029 115.602142 
L 354.871764 141.506544 
L 370.310499 159.96295 
L 385.749234 161.58583 
L 401.187969 157.566062 
L 416.626705 153.938171 
" style="fill:none;stroke:#1b9e77;stroke-linecap:square;stroke-opacity:0.5;stroke-width:1.5;"/>
   </g>
   <g id="line2d_67">
    <path clip-path="url(#p29b184cf33)" d="M 61.535795 165.853309 
L 76.974531 165.801706 
L 92.413266 165.786548 
L 107.852001 164.505116 
L 123.290736 162.905955 
L 138.729471 165.345682 
L 154.168207 165.809537 
L 169.606942 165.909832 
L 185.045677 165.92015 
L 200.484412 163.275552 
L 215.923147 156.310359 
L 231.361882 162.59531 
L 246.800618 159.386155 
L 262.239353 155.822674 
L 277.678088 158.326973 
L 293.116823 160.312214 
L 308.555558 94.894724 
L 323.994293 93.422625 
L 339.433029 138.728418 
L 354.871764 159.295103 
L 370.310499 165.622882 
L 385.749234 165.78906 
L 401.187969 165.862303 
L 416.626705 165.884056 
" style="fill:none;stroke:#1b9e77;stroke-linecap:square;stroke-opacity:0.5;stroke-width:1.5;"/>
   </g>
   <g id="line2d_68">
    <path clip-path="url(#p29b184cf33)" d="M 61.535795 165.895233 
L 76.974531 165.777578 
L 92.413266 165.824961 
L 107.852001 165.818336 
L 123.290736 165.797003 
L 138.729471 165.81773 
L 154.168207 165.834742 
L 169.606942 165.87627 
L 185.045677 165.824205 
L 200.484412 164.50033 
L 215.923147 161.387303 
L 231.361882 163.984945 
L 246.800618 162.300233 
L 262.239353 161.361957 
L 277.678088 156.104392 
L 293.116823 156.092342 
L 308.555558 143.293061 
L 323.994293 126.458367 
L 339.433029 151.959239 
L 354.871764 152.938783 
L 370.310499 129.325979 
L 385.749234 157.452558 
L 401.187969 163.22578 
L 416.626705 110.514924 
" style="fill:none;stroke:#1b9e77;stroke-linecap:square;stroke-opacity:0.5;stroke-width:1.5;"/>
   </g>
   <g id="line2d_69">
    <path clip-path="url(#p29b184cf33)" d="M 61.535795 139.584837 
L 76.974531 132.706739 
L 92.413266 161.473378 
L 107.852001 162.4677 
L 123.290736 161.86042 
L 138.729471 147.858048 
L 154.168207 155.103832 
L 169.606942 163.039836 
L 185.045677 164.623019 
L 200.484412 165.154226 
L 215.923147 165.499255 
L 231.361882 165.170111 
L 246.800618 165.361404 
L 262.239353 165.753432 
L 277.678088 165.861828 
L 293.116823 165.861258 
L 308.555558 165.804426 
L 323.994293 165.285843 
L 339.433029 164.566577 
L 354.871764 165.834056 
L 370.310499 165.608293 
L 385.749234 138.161722 
L 401.187969 117.548964 
L 416.626705 123.17705 
" style="fill:none;stroke:#1b9e77;stroke-linecap:square;stroke-opacity:0.5;stroke-width:1.5;"/>
   </g>
   <g id="line2d_70">
    <path clip-path="url(#p29b184cf33)" d="M 61.535795 162.4756 
L 76.974531 123.865394 
L 92.413266 138.342963 
L 107.852001 162.231951 
L 123.290736 164.310514 
L 138.729471 155.104492 
L 154.168207 139.316473 
L 169.606942 141.995958 
L 185.045677 161.962583 
L 200.484412 165.091844 
L 215.923147 164.375291 
L 231.361882 154.635568 
L 246.800618 145.514616 
L 262.239353 160.65872 
L 277.678088 152.703302 
L 293.116823 160.871161 
L 308.555558 160.333305 
L 323.994293 162.558005 
L 339.433029 163.292316 
L 354.871764 156.744183 
L 370.310499 159.320639 
L 385.749234 165.751666 
L 401.187969 165.951268 
L 416.626705 165.95844 
" style="fill:none;stroke:#1b9e77;stroke-linecap:square;stroke-opacity:0.5;stroke-width:1.5;"/>
   </g>
   <g id="line2d_71">
    <path clip-path="url(#p29b184cf33)" d="M 61.535795 161.880624 
L 76.974531 107.121211 
L 92.413266 129.588864 
L 107.852001 153.284309 
L 123.290736 152.509359 
L 138.729471 126.312263 
L 154.168207 137.433499 
L 169.606942 158.647013 
L 185.045677 164.847521 
L 200.484412 165.320631 
L 215.923147 165.585474 
L 231.361882 165.417609 
L 246.800618 165.573696 
L 262.239353 165.800375 
L 277.678088 165.818299 
L 293.116823 165.810132 
L 308.555558 165.522806 
L 323.994293 162.577509 
L 339.433029 157.278901 
L 354.871764 159.933394 
L 370.310499 162.304072 
L 385.749234 163.731862 
L 401.187969 165.174003 
L 416.626705 165.892827 
" style="fill:none;stroke:#1b9e77;stroke-linecap:square;stroke-opacity:0.5;stroke-width:1.5;"/>
   </g>
   <g id="line2d_72">
    <path clip-path="url(#p29b184cf33)" d="M 61.535795 165.761652 
L 76.974531 165.118974 
L 92.413266 165.124587 
L 107.852001 165.45949 
L 123.290736 165.328866 
L 138.729471 165.57375 
L 154.168207 160.482476 
L 169.606942 148.908021 
L 185.045677 129.687789 
L 200.484412 159.373694 
L 215.923147 162.847759 
L 231.361882 41.958588 
L 246.800618 144.968128 
L 262.239353 153.968612 
L 277.678088 165.834285 
L 293.116823 165.906805 
L 308.555558 165.94509 
L 323.994293 165.922059 
L 339.433029 165.906546 
L 354.871764 165.898975 
L 370.310499 165.884063 
L 385.749234 165.856515 
L 401.187969 165.829704 
L 416.626705 165.819816 
" style="fill:none;stroke:#1b9e77;stroke-linecap:square;stroke-opacity:0.5;stroke-width:1.5;"/>
   </g>
   <g id="line2d_73">
    <path clip-path="url(#p29b184cf33)" d="M 61.535795 165.940109 
L 76.974531 165.848921 
L 92.413266 165.864472 
L 107.852001 165.865298 
L 123.290736 165.769809 
L 138.729471 165.921199 
L 154.168207 165.926998 
L 169.606942 160.326531 
L 185.045677 152.726277 
L 200.484412 156.57721 
L 215.923147 150.793059 
L 231.361882 153.78929 
L 246.800618 133.892289 
L 262.239353 65.561313 
L 277.678088 132.579208 
L 293.116823 158.811563 
L 308.555558 165.849441 
L 323.994293 165.856565 
L 339.433029 165.876999 
L 354.871764 165.8857 
L 370.310499 165.901478 
L 385.749234 165.915179 
L 401.187969 165.930295 
L 416.626705 165.957039 
" style="fill:none;stroke:#1b9e77;stroke-linecap:square;stroke-opacity:0.5;stroke-width:1.5;"/>
   </g>
   <g id="line2d_74">
    <path clip-path="url(#p29b184cf33)" d="M 61.535795 159.547353 
L 76.974531 156.885479 
L 92.413266 158.157017 
L 107.852001 154.746838 
L 123.290736 106.130665 
L 138.729471 165.264487 
L 154.168207 163.90484 
L 169.606942 112.313122 
L 185.045677 143.221783 
L 200.484412 144.656916 
L 215.923147 165.278436 
L 231.361882 165.210409 
L 246.800618 165.324761 
L 262.239353 165.216406 
L 277.678088 164.574973 
L 293.116823 165.403433 
L 308.555558 165.737824 
L 323.994293 165.892855 
L 339.433029 165.889022 
L 354.871764 154.684085 
L 370.310499 152.939825 
L 385.749234 165.495315 
L 401.187969 165.361238 
L 416.626705 161.529169 
" style="fill:none;stroke:#1b9e77;stroke-linecap:square;stroke-opacity:0.5;stroke-width:1.5;"/>
   </g>
   <g id="line2d_75">
    <path clip-path="url(#p29b184cf33)" d="M 61.535795 165.466284 
L 76.974531 165.461162 
L 92.413266 165.743218 
L 107.852001 165.59211 
L 123.290736 165.542749 
L 138.729471 165.848672 
L 154.168207 165.887953 
L 169.606942 165.924672 
L 185.045677 165.865902 
L 200.484412 151.976285 
L 215.923147 153.053318 
L 231.361882 150.797337 
L 246.800618 139.60706 
L 262.239353 127.501376 
L 277.678088 119.455218 
L 293.116823 126.279273 
L 308.555558 134.99702 
L 323.994293 164.334688 
L 339.433029 165.669338 
L 354.871764 165.733976 
L 370.310499 165.776821 
L 385.749234 165.70346 
L 401.187969 165.254171 
L 416.626705 165.894185 
" style="fill:none;stroke:#1b9e77;stroke-linecap:square;stroke-opacity:0.5;stroke-width:1.5;"/>
   </g>
   <g id="line2d_76">
    <path clip-path="url(#p29b184cf33)" d="M 61.535795 164.091244 
L 76.974531 164.76492 
L 92.413266 164.832646 
L 107.852001 163.577109 
L 123.290736 156.238344 
L 138.729471 148.885341 
L 154.168207 149.229043 
L 169.606942 159.654543 
L 185.045677 161.99939 
L 200.484412 39.867397 
L 215.923147 157.434458 
L 231.361882 152.991011 
L 246.800618 157.046303 
L 262.239353 163.611198 
L 277.678088 165.615309 
L 293.116823 165.813891 
L 308.555558 165.874333 
L 323.994293 165.879528 
L 339.433029 165.827824 
L 354.871764 165.892335 
L 370.310499 165.903573 
L 385.749234 165.939947 
L 401.187969 165.763282 
L 416.626705 156.633278 
" style="fill:none;stroke:#1b9e77;stroke-linecap:square;stroke-opacity:0.5;stroke-width:1.5;"/>
   </g>
   <g id="line2d_77">
    <path clip-path="url(#p29b184cf33)" d="M 61.535795 164.063619 
L 76.974531 163.60456 
L 92.413266 163.90517 
L 107.852001 163.503043 
L 123.290736 162.206338 
L 138.729471 162.520481 
L 154.168207 163.049422 
L 169.606942 163.552664 
L 185.045677 163.56387 
L 200.484412 163.371473 
L 215.923147 162.908779 
L 231.361882 163.21367 
L 246.800618 163.988694 
L 262.239353 163.680793 
L 277.678088 161.632306 
L 293.116823 158.492725 
L 308.555558 150.799459 
L 323.994293 149.221408 
L 339.433029 154.495445 
L 354.871764 142.970589 
L 370.310499 123.841431 
L 385.749234 135.934374 
L 401.187969 142.761258 
L 416.626705 146.08468 
" style="fill:none;stroke:#1b9e77;stroke-linecap:square;stroke-opacity:0.5;stroke-width:1.5;"/>
   </g>
   <g id="line2d_78">
    <path clip-path="url(#p29b184cf33)" d="M 61.535795 165.569439 
L 76.974531 165.619017 
L 92.413266 165.832954 
L 107.852001 165.876515 
L 123.290736 165.901756 
L 138.729471 165.924709 
L 154.168207 165.146329 
L 169.606942 165.525954 
L 185.045677 164.94516 
L 200.484412 164.546487 
L 215.923147 164.357622 
L 231.361882 162.593204 
L 246.800618 148.928125 
L 262.239353 133.5703 
L 277.678088 140.85967 
L 293.116823 154.650775 
L 308.555558 130.290946 
L 323.994293 133.206786 
L 339.433029 136.863569 
L 354.871764 143.829215 
L 370.310499 161.115537 
L 385.749234 162.243093 
L 401.187969 161.520909 
L 416.626705 164.448184 
" style="fill:none;stroke:#1b9e77;stroke-linecap:square;stroke-opacity:0.5;stroke-width:1.5;"/>
   </g>
   <g id="line2d_79">
    <path clip-path="url(#p29b184cf33)" d="M 61.535795 149.961443 
L 76.974531 119.829276 
L 92.413266 149.332028 
L 107.852001 145.658379 
L 123.290736 151.403981 
L 138.729471 157.124448 
L 154.168207 157.810584 
L 169.606942 157.532122 
L 185.045677 161.925586 
L 200.484412 163.187852 
L 215.923147 164.477695 
L 231.361882 164.868392 
L 246.800618 165.258631 
L 262.239353 165.223553 
L 277.678088 165.335556 
L 293.116823 165.350032 
L 308.555558 165.479009 
L 323.994293 165.751847 
L 339.433029 165.779561 
L 354.871764 165.519653 
L 370.310499 120.839481 
L 385.749234 158.489568 
L 401.187969 149.909638 
L 416.626705 157.317937 
" style="fill:none;stroke:#1b9e77;stroke-linecap:square;stroke-opacity:0.5;stroke-width:1.5;"/>
   </g>
   <g id="line2d_80">
    <path clip-path="url(#p29b184cf33)" d="M 61.535795 136.438554 
L 76.974531 102.193334 
L 92.413266 132.690036 
L 107.852001 150.968713 
L 123.290736 155.716847 
L 138.729471 118.751901 
L 154.168207 150.977509 
L 169.606942 160.168325 
L 185.045677 164.297208 
L 200.484412 164.081818 
L 215.923147 164.579345 
L 231.361882 165.007207 
L 246.800618 165.303794 
L 262.239353 165.414305 
L 277.678088 165.59275 
L 293.116823 165.646848 
L 308.555558 165.832327 
L 323.994293 165.916445 
L 339.433029 165.938973 
L 354.871764 165.939941 
L 370.310499 165.59605 
L 385.749234 165.43157 
L 401.187969 165.325096 
L 416.626705 165.557347 
" style="fill:none;stroke:#1b9e77;stroke-linecap:square;stroke-opacity:0.5;stroke-width:1.5;"/>
   </g>
   <g id="line2d_81">
    <path clip-path="url(#p29b184cf33)" d="M 61.535795 165.94856 
L 76.974531 165.932162 
L 92.413266 165.94583 
L 107.852001 165.950663 
L 123.290736 165.938814 
L 138.729471 165.940722 
L 154.168207 165.944304 
L 169.606942 165.956603 
L 185.045677 165.959282 
L 200.484412 162.585684 
L 215.923147 151.232403 
L 231.361882 161.839843 
L 246.800618 157.571991 
L 262.239353 160.102352 
L 277.678088 162.819467 
L 293.116823 162.026774 
L 308.555558 110.556488 
L 323.994293 96.427 
L 339.433029 139.137791 
L 354.871764 155.099381 
L 370.310499 161.142642 
L 385.749234 160.145731 
L 401.187969 156.965846 
L 416.626705 162.195914 
" style="fill:none;stroke:#1b9e77;stroke-linecap:square;stroke-opacity:0.5;stroke-width:1.5;"/>
   </g>
   <g id="line2d_82">
    <path clip-path="url(#p29b184cf33)" d="M 61.535795 144.069151 
L 76.974531 164.793171 
L 92.413266 165.360309 
L 107.852001 165.099733 
L 123.290736 163.634163 
L 138.729471 162.550364 
L 154.168207 159.929675 
L 169.606942 160.942644 
L 185.045677 161.099182 
L 200.484412 160.536261 
L 215.923147 160.884926 
L 231.361882 160.347009 
L 246.800618 131.826523 
L 262.239353 118.353081 
L 277.678088 127.796629 
L 293.116823 135.981917 
L 308.555558 153.378588 
L 323.994293 163.307424 
L 339.433029 165.524227 
L 354.871764 165.525114 
L 370.310499 165.521994 
L 385.749234 165.47138 
L 401.187969 165.520861 
L 416.626705 165.911926 
" style="fill:none;stroke:#1b9e77;stroke-linecap:square;stroke-opacity:0.5;stroke-width:1.5;"/>
   </g>
   <g id="line2d_83">
    <path clip-path="url(#p29b184cf33)" d="M 61.535795 162.774127 
L 76.974531 161.747163 
L 92.413266 165.169506 
L 107.852001 165.49603 
L 123.290736 165.731013 
L 138.729471 165.773692 
L 154.168207 165.856722 
L 169.606942 165.879722 
L 185.045677 165.900023 
L 200.484412 165.849358 
L 215.923147 165.485859 
L 231.361882 165.849759 
L 246.800618 165.809881 
L 262.239353 163.913385 
L 277.678088 152.867222 
L 293.116823 137.95548 
L 308.555558 124.148898 
L 323.994293 146.466504 
L 339.433029 139.404942 
L 354.871764 137.553206 
L 370.310499 142.385281 
L 385.749234 151.010128 
L 401.187969 145.723078 
L 416.626705 164.615267 
" style="fill:none;stroke:#1b9e77;stroke-linecap:square;stroke-opacity:0.5;stroke-width:1.5;"/>
   </g>
   <g id="line2d_84">
    <path clip-path="url(#p29b184cf33)" d="M 61.535795 153.084935 
L 76.974531 132.997759 
L 92.413266 162.552983 
L 107.852001 163.847917 
L 123.290736 164.820421 
L 138.729471 165.05378 
L 154.168207 165.451386 
L 169.606942 165.609007 
L 185.045677 165.768117 
L 200.484412 165.795114 
L 215.923147 165.825383 
L 231.361882 165.853343 
L 246.800618 165.872732 
L 262.239353 165.950504 
L 277.678088 165.679372 
L 293.116823 153.477848 
L 308.555558 162.690368 
L 323.994293 161.340691 
L 339.433029 158.534679 
L 354.871764 154.474427 
L 370.310499 151.372067 
L 385.749234 140.419642 
L 401.187969 100.26433 
L 416.626705 136.629441 
" style="fill:none;stroke:#1b9e77;stroke-linecap:square;stroke-opacity:0.5;stroke-width:1.5;"/>
   </g>
   <g id="line2d_85">
    <path clip-path="url(#p29b184cf33)" d="M 61.535795 165.428078 
L 76.974531 165.644524 
L 92.413266 165.846069 
L 107.852001 165.815897 
L 123.290736 165.781912 
L 138.729471 165.845653 
L 154.168207 165.860522 
L 169.606942 165.931493 
L 185.045677 165.862154 
L 200.484412 130.624312 
L 215.923147 55.483 
L 231.361882 106.062012 
L 246.800618 159.637043 
L 262.239353 158.613633 
L 277.678088 161.316397 
L 293.116823 163.506797 
L 308.555558 165.2704 
L 323.994293 165.610757 
L 339.433029 165.789552 
L 354.871764 165.785664 
L 370.310499 165.851829 
L 385.749234 165.908265 
L 401.187969 165.932704 
L 416.626705 165.957571 
" style="fill:none;stroke:#1b9e77;stroke-linecap:square;stroke-opacity:0.5;stroke-width:1.5;"/>
   </g>
   <g id="line2d_86">
    <path clip-path="url(#p29b184cf33)" d="M 61.535795 164.388078 
L 76.974531 164.835428 
L 92.413266 165.728459 
L 107.852001 165.85733 
L 123.290736 165.809622 
L 138.729471 161.202862 
L 154.168207 147.840798 
L 169.606942 154.561485 
L 185.045677 148.223545 
L 200.484412 138.731103 
L 215.923147 135.28892 
L 231.361882 123.458138 
L 246.800618 154.923293 
L 262.239353 164.640673 
L 277.678088 165.558668 
L 293.116823 165.303248 
L 308.555558 165.382815 
L 323.994293 165.545262 
L 339.433029 165.645451 
L 354.871764 165.709124 
L 370.310499 165.289699 
L 385.749234 162.143204 
L 401.187969 131.397515 
L 416.626705 145.901525 
" style="fill:none;stroke:#1b9e77;stroke-linecap:square;stroke-opacity:0.5;stroke-width:1.5;"/>
   </g>
   <g id="line2d_87">
    <path clip-path="url(#p29b184cf33)" d="M 61.535795 90.798478 
L 76.974531 163.81429 
L 92.413266 164.673243 
L 107.852001 162.696367 
L 123.290736 163.121412 
L 138.729471 150.609501 
L 154.168207 108.134208 
L 169.606942 147.784833 
L 185.045677 156.498929 
L 200.484412 143.115639 
L 215.923147 150.981621 
L 231.361882 163.733681 
L 246.800618 165.612101 
L 262.239353 165.438647 
L 277.678088 165.206517 
L 293.116823 164.680728 
L 308.555558 165.532767 
L 323.994293 165.796666 
L 339.433029 165.879903 
L 354.871764 165.861533 
L 370.310499 165.735806 
L 385.749234 165.929902 
L 401.187969 165.94602 
L 416.626705 165.783462 
" style="fill:none;stroke:#1b9e77;stroke-linecap:square;stroke-opacity:0.5;stroke-width:1.5;"/>
   </g>
   <g id="line2d_88">
    <path clip-path="url(#p29b184cf33)" d="M 61.535795 164.236898 
L 76.974531 146.651803 
L 92.413266 112.69637 
L 107.852001 131.649995 
L 123.290736 146.843529 
L 138.729471 120.390641 
L 154.168207 136.248356 
L 169.606942 155.051115 
L 185.045677 163.0876 
L 200.484412 164.528102 
L 215.923147 165.275821 
L 231.361882 165.444011 
L 246.800618 165.681019 
L 262.239353 165.727316 
L 277.678088 165.796582 
L 293.116823 165.813529 
L 308.555558 165.864403 
L 323.994293 165.908016 
L 339.433029 165.92006 
L 354.871764 165.938636 
L 370.310499 162.544251 
L 385.749234 163.074473 
L 401.187969 164.058825 
L 416.626705 164.934891 
" style="fill:none;stroke:#1b9e77;stroke-linecap:square;stroke-opacity:0.5;stroke-width:1.5;"/>
   </g>
   <g id="line2d_89">
    <path clip-path="url(#p29b184cf33)" d="M 61.535795 165.956699 
L 76.974531 165.951457 
L 92.413266 165.951791 
L 107.852001 165.953853 
L 123.290736 165.945721 
L 138.729471 165.95147 
L 154.168207 164.895596 
L 169.606942 164.202536 
L 185.045677 163.98491 
L 200.484412 163.027083 
L 215.923147 157.021483 
L 231.361882 144.689011 
L 246.800618 143.869785 
L 262.239353 145.265824 
L 277.678088 105.630088 
L 293.116823 91.457101 
L 308.555558 162.559279 
L 323.994293 165.235223 
L 339.433029 165.665379 
L 354.871764 165.391326 
L 370.310499 165.516571 
L 385.749234 165.855661 
L 401.187969 165.882332 
L 416.626705 157.506075 
" style="fill:none;stroke:#1b9e77;stroke-linecap:square;stroke-opacity:0.5;stroke-width:1.5;"/>
   </g>
   <g id="line2d_90">
    <path clip-path="url(#p29b184cf33)" d="M 61.535795 165.810913 
L 76.974531 165.655408 
L 92.413266 165.162926 
L 107.852001 164.481899 
L 123.290736 163.471348 
L 138.729471 164.318895 
L 154.168207 164.246611 
L 169.606942 163.863704 
L 185.045677 163.781718 
L 200.484412 163.200544 
L 215.923147 161.168564 
L 231.361882 160.217809 
L 246.800618 161.481392 
L 262.239353 159.361882 
L 277.678088 155.749949 
L 293.116823 155.024616 
L 308.555558 102.155136 
L 323.994293 88.554017 
L 339.433029 144.563749 
L 354.871764 159.194212 
L 370.310499 164.738978 
L 385.749234 165.47582 
L 401.187969 165.762893 
L 416.626705 165.923266 
" style="fill:none;stroke:#1b9e77;stroke-linecap:square;stroke-opacity:0.5;stroke-width:1.5;"/>
   </g>
   <g id="line2d_91">
    <path clip-path="url(#p29b184cf33)" d="M 61.535795 149.47827 
L 76.974531 144.075937 
L 92.413266 156.826365 
L 107.852001 146.112873 
L 123.290736 145.306157 
L 138.729471 111.937384 
L 154.168207 145.317439 
L 169.606942 164.26597 
L 185.045677 165.407091 
L 200.484412 165.32913 
L 215.923147 164.899192 
L 231.361882 165.178479 
L 246.800618 165.461429 
L 262.239353 165.450832 
L 277.678088 164.363348 
L 293.116823 156.081527 
L 308.555558 142.991609 
L 323.994293 161.979537 
L 339.433029 164.148799 
L 354.871764 163.678333 
L 370.310499 156.895 
L 385.749234 157.400441 
L 401.187969 164.878986 
L 416.626705 165.902119 
" style="fill:none;stroke:#1b9e77;stroke-linecap:square;stroke-opacity:0.5;stroke-width:1.5;"/>
   </g>
   <g id="line2d_92">
    <path clip-path="url(#p29b184cf33)" d="M 61.535795 162.647095 
L 76.974531 85.194694 
L 92.413266 113.431522 
L 107.852001 160.282858 
L 123.290736 165.130436 
L 138.729471 163.717529 
L 154.168207 164.035367 
L 169.606942 165.155623 
L 185.045677 165.630665 
L 200.484412 165.855189 
L 215.923147 165.880796 
L 231.361882 161.748892 
L 246.800618 144.117361 
L 262.239353 159.808077 
L 277.678088 156.405516 
L 293.116823 164.490762 
L 308.555558 164.21765 
L 323.994293 161.420275 
L 339.433029 160.442957 
L 354.871764 159.821142 
L 370.310499 153.107412 
L 385.749234 165.934239 
L 401.187969 165.501412 
L 416.626705 159.388777 
" style="fill:none;stroke:#1b9e77;stroke-linecap:square;stroke-opacity:0.5;stroke-width:1.5;"/>
   </g>
   <g id="line2d_93">
    <path clip-path="url(#p29b184cf33)" d="M 61.535795 130.925861 
L 76.974531 112.756304 
L 92.413266 124.985036 
L 107.852001 142.080426 
L 123.290736 161.215144 
L 138.729471 134.837387 
L 154.168207 164.75325 
L 169.606942 165.604247 
L 185.045677 165.557054 
L 200.484412 162.542851 
L 215.923147 158.960723 
L 231.361882 164.974291 
L 246.800618 165.606584 
L 262.239353 165.697972 
L 277.678088 165.759989 
L 293.116823 165.461132 
L 308.555558 164.240507 
L 323.994293 164.516778 
L 339.433029 164.906581 
L 354.871764 164.056079 
L 370.310499 162.109079 
L 385.749234 160.698439 
L 401.187969 158.476255 
L 416.626705 162.644278 
" style="fill:none;stroke:#1b9e77;stroke-linecap:square;stroke-opacity:0.5;stroke-width:1.5;"/>
   </g>
   <g id="line2d_94">
    <path clip-path="url(#p29b184cf33)" d="M 61.535795 165.430755 
L 76.974531 165.304808 
L 92.413266 165.719022 
L 107.852001 165.758988 
L 123.290736 165.79135 
L 138.729471 165.745631 
L 154.168207 165.402323 
L 169.606942 165.829658 
L 185.045677 165.814274 
L 200.484412 156.893396 
L 215.923147 144.623666 
L 231.361882 85.773872 
L 246.800618 117.193018 
L 262.239353 163.027063 
L 277.678088 164.605386 
L 293.116823 160.069539 
L 308.555558 153.693975 
L 323.994293 163.09852 
L 339.433029 165.344185 
L 354.871764 165.550071 
L 370.310499 165.540112 
L 385.749234 165.378643 
L 401.187969 157.843436 
L 416.626705 133.93456 
" style="fill:none;stroke:#1b9e77;stroke-linecap:square;stroke-opacity:0.5;stroke-width:1.5;"/>
   </g>
   <g id="line2d_95">
    <path clip-path="url(#p29b184cf33)" d="M 61.535795 165.954192 
L 76.974531 165.691044 
L 92.413266 153.428651 
L 107.852001 165.899342 
L 123.290736 165.885563 
L 138.729471 165.90665 
L 154.168207 164.215266 
L 169.606942 163.546581 
L 185.045677 163.46159 
L 200.484412 143.11607 
L 215.923147 137.373237 
L 231.361882 158.228306 
L 246.800618 158.079079 
L 262.239353 163.494428 
L 277.678088 162.09457 
L 293.116823 146.180435 
L 308.555558 146.546514 
L 323.994293 152.430343 
L 339.433029 157.684954 
L 354.871764 157.788957 
L 370.310499 145.524788 
L 385.749234 149.641479 
L 401.187969 151.920754 
L 416.626705 149.273458 
" style="fill:none;stroke:#1b9e77;stroke-linecap:square;stroke-opacity:0.5;stroke-width:1.5;"/>
   </g>
   <g id="line2d_96">
    <path clip-path="url(#p29b184cf33)" d="M 61.535795 165.018523 
L 76.974531 165.488544 
L 92.413266 165.782558 
L 107.852001 165.758759 
L 123.290736 165.812416 
L 138.729471 165.857959 
L 154.168207 165.884462 
L 169.606942 165.916298 
L 185.045677 165.921682 
L 200.484412 165.881089 
L 215.923147 163.916026 
L 231.361882 163.434039 
L 246.800618 162.875014 
L 262.239353 161.735564 
L 277.678088 160.841391 
L 293.116823 159.805367 
L 308.555558 156.206124 
L 323.994293 130.640172 
L 339.433029 81.61731 
L 354.871764 131.097905 
L 370.310499 153.578785 
L 385.749234 139.146805 
L 401.187969 165.378454 
L 416.626705 165.771004 
" style="fill:none;stroke:#1b9e77;stroke-linecap:square;stroke-opacity:0.5;stroke-width:1.5;"/>
   </g>
   <g id="line2d_97">
    <path clip-path="url(#p29b184cf33)" d="M 61.535795 155.803942 
L 76.974531 150.113889 
L 92.413266 163.624524 
L 107.852001 164.471129 
L 123.290736 163.536938 
L 138.729471 146.971333 
L 154.168207 121.340058 
L 169.606942 147.640963 
L 185.045677 162.713572 
L 200.484412 164.880453 
L 215.923147 165.517288 
L 231.361882 165.302582 
L 246.800618 165.740497 
L 262.239353 165.859423 
L 277.678088 165.909733 
L 293.116823 165.913838 
L 308.555558 165.922079 
L 323.994293 165.936486 
L 339.433029 164.988191 
L 354.871764 164.957455 
L 370.310499 157.483852 
L 385.749234 142.039417 
L 401.187969 124.816272 
L 416.626705 131.882331 
" style="fill:none;stroke:#1b9e77;stroke-linecap:square;stroke-opacity:0.5;stroke-width:1.5;"/>
   </g>
   <g id="line2d_98">
    <path clip-path="url(#p29b184cf33)" d="M 61.535795 138.091653 
L 76.974531 150.778633 
L 92.413266 163.801133 
L 107.852001 163.676935 
L 123.290736 164.546423 
L 138.729471 165.224286 
L 154.168207 165.155844 
L 169.606942 164.927176 
L 185.045677 164.234817 
L 200.484412 154.433783 
L 215.923147 141.035292 
L 231.361882 163.574071 
L 246.800618 164.320435 
L 262.239353 147.607707 
L 277.678088 122.516021 
L 293.116823 150.11166 
L 308.555558 159.639524 
L 323.994293 164.043155 
L 339.433029 165.124563 
L 354.871764 164.911237 
L 370.310499 163.993065 
L 385.749234 164.647895 
L 401.187969 162.259211 
L 416.626705 124.711731 
" style="fill:none;stroke:#1b9e77;stroke-linecap:square;stroke-opacity:0.5;stroke-width:1.5;"/>
   </g>
   <g id="line2d_99">
    <path clip-path="url(#p29b184cf33)" d="M 61.535795 165.673673 
L 76.974531 165.572838 
L 92.413266 165.785631 
L 107.852001 165.849394 
L 123.290736 165.865832 
L 138.729471 165.833394 
L 154.168207 164.802971 
L 169.606942 161.626352 
L 185.045677 161.65591 
L 200.484412 163.375068 
L 215.923147 163.079955 
L 231.361882 161.395381 
L 246.800618 159.611878 
L 262.239353 152.958117 
L 277.678088 132.540064 
L 293.116823 146.529077 
L 308.555558 157.270838 
L 323.994293 110.165479 
L 339.433029 135.646295 
L 354.871764 160.462935 
L 370.310499 158.727546 
L 385.749234 145.979018 
L 401.187969 157.138608 
L 416.626705 165.820006 
" style="fill:none;stroke:#1b9e77;stroke-linecap:square;stroke-opacity:0.5;stroke-width:1.5;"/>
   </g>
   <g id="line2d_100">
    <path clip-path="url(#p29b184cf33)" d="M 61.535795 164.14393 
L 76.974531 164.541977 
L 92.413266 165.500451 
L 107.852001 165.628971 
L 123.290736 165.690898 
L 138.729471 165.633114 
L 154.168207 164.665014 
L 169.606942 161.752469 
L 185.045677 162.846997 
L 200.484412 165.248013 
L 215.923147 165.100829 
L 231.361882 158.983371 
L 246.800618 147.062275 
L 262.239353 162.130978 
L 277.678088 165.532106 
L 293.116823 165.718358 
L 308.555558 165.208484 
L 323.994293 147.242763 
L 339.433029 152.141089 
L 354.871764 164.008587 
L 370.310499 162.253326 
L 385.749234 136.192146 
L 401.187969 87.46223 
L 416.626705 128.677879 
" style="fill:none;stroke:#1b9e77;stroke-linecap:square;stroke-opacity:0.5;stroke-width:1.5;"/>
   </g>
   <g id="line2d_101">
    <path clip-path="url(#p29b184cf33)" d="M 61.535795 163.835167 
L 76.974531 157.949737 
L 92.413266 155.684223 
L 107.852001 149.680026 
L 123.290736 154.242404 
L 138.729471 106.558071 
L 154.168207 96.458928 
L 169.606942 136.87145 
L 185.045677 156.368616 
L 200.484412 160.724555 
L 215.923147 163.988744 
L 231.361882 164.652943 
L 246.800618 165.240529 
L 262.239353 165.266423 
L 277.678088 165.192751 
L 293.116823 164.58028 
L 308.555558 165.170323 
L 323.994293 165.83659 
L 339.433029 165.882679 
L 354.871764 165.733563 
L 370.310499 165.591117 
L 385.749234 165.942957 
L 401.187969 165.954654 
L 416.626705 165.959516 
" style="fill:none;stroke:#1b9e77;stroke-linecap:square;stroke-opacity:0.5;stroke-width:1.5;"/>
   </g>
   <g id="line2d_102">
    <path clip-path="url(#p29b184cf33)" d="M 61.535795 165.957013 
L 76.974531 165.947048 
L 92.413266 165.950287 
L 107.852001 165.949716 
L 123.290736 165.946292 
L 138.729471 165.951854 
L 154.168207 165.952512 
L 169.606942 164.992448 
L 185.045677 160.079021 
L 200.484412 159.996779 
L 215.923147 155.853017 
L 231.361882 147.886498 
L 246.800618 149.74084 
L 262.239353 150.614765 
L 277.678088 152.028112 
L 293.116823 86.876793 
L 308.555558 140.024586 
L 323.994293 160.046093 
L 339.433029 163.202135 
L 354.871764 155.087943 
L 370.310499 153.666033 
L 385.749234 162.882539 
L 401.187969 164.312744 
L 416.626705 164.421181 
" style="fill:none;stroke:#1b9e77;stroke-linecap:square;stroke-opacity:0.5;stroke-width:1.5;"/>
   </g>
   <g id="line2d_103">
    <path clip-path="url(#p29b184cf33)" d="M 61.535795 145.124595 
L 76.974531 125.084397 
L 92.413266 149.926338 
L 107.852001 160.314792 
L 123.290736 162.054908 
L 138.729471 162.382015 
L 154.168207 164.783042 
L 169.606942 165.731687 
L 185.045677 165.831754 
L 200.484412 165.867154 
L 215.923147 165.448819 
L 231.361882 164.222597 
L 246.800618 157.345224 
L 262.239353 160.733139 
L 277.678088 158.138164 
L 293.116823 156.554196 
L 308.555558 155.795696 
L 323.994293 150.999191 
L 339.433029 141.258693 
L 354.871764 151.422735 
L 370.310499 157.576759 
L 385.749234 154.472067 
L 401.187969 154.581182 
L 416.626705 157.717108 
" style="fill:none;stroke:#1b9e77;stroke-linecap:square;stroke-opacity:0.5;stroke-width:1.5;"/>
   </g>
   <g id="line2d_104">
    <path clip-path="url(#p29b184cf33)" d="M 61.535795 162.869008 
L 76.974531 165.580052 
L 92.413266 165.82976 
L 107.852001 165.606722 
L 123.290736 160.218628 
L 138.729471 164.108756 
L 154.168207 159.525183 
L 169.606942 151.635548 
L 185.045677 152.208704 
L 200.484412 151.336732 
L 215.923147 144.139787 
L 231.361882 146.424076 
L 246.800618 107.22706 
L 262.239353 106.792577 
L 277.678088 161.616313 
L 293.116823 164.120764 
L 308.555558 164.842827 
L 323.994293 165.223729 
L 339.433029 165.546815 
L 354.871764 165.591331 
L 370.310499 165.641135 
L 385.749234 165.662998 
L 401.187969 165.687097 
L 416.626705 165.930645 
" style="fill:none;stroke:#1b9e77;stroke-linecap:square;stroke-opacity:0.5;stroke-width:1.5;"/>
   </g>
   <g id="line2d_105">
    <path clip-path="url(#p29b184cf33)" d="M 61.535795 165.178902 
L 76.974531 157.735274 
L 92.413266 141.318901 
L 107.852001 156.050539 
L 123.290736 159.94701 
L 138.729471 162.767944 
L 154.168207 163.820937 
L 169.606942 162.480978 
L 185.045677 156.580181 
L 200.484412 164.389678 
L 215.923147 165.17499 
L 231.361882 164.908852 
L 246.800618 164.67003 
L 262.239353 164.379087 
L 277.678088 163.748388 
L 293.116823 163.227118 
L 308.555558 163.463409 
L 323.994293 162.146185 
L 339.433029 158.546147 
L 354.871764 155.26597 
L 370.310499 154.369512 
L 385.749234 151.372791 
L 401.187969 138.662081 
L 416.626705 93.161349 
" style="fill:none;stroke:#1b9e77;stroke-linecap:square;stroke-opacity:0.5;stroke-width:1.5;"/>
   </g>
   <g id="line2d_106">
    <path clip-path="url(#p29b184cf33)" d="M 61.535795 103.857882 
L 76.974531 133.27348 
L 92.413266 138.047671 
L 107.852001 152.325314 
L 123.290736 138.805249 
L 138.729471 153.333376 
L 154.168207 152.426709 
L 169.606942 143.394251 
L 185.045677 153.658832 
L 200.484412 165.657498 
L 215.923147 165.917435 
L 231.361882 165.884425 
L 246.800618 165.892964 
L 262.239353 165.731563 
L 277.678088 165.836101 
L 293.116823 165.880022 
L 308.555558 165.885732 
L 323.994293 165.726827 
L 339.433029 163.519903 
L 354.871764 165.451524 
L 370.310499 165.641718 
L 385.749234 165.588583 
L 401.187969 165.699243 
L 416.626705 165.929952 
" style="fill:none;stroke:#1b9e77;stroke-linecap:square;stroke-opacity:0.5;stroke-width:1.5;"/>
   </g>
   <g id="line2d_107">
    <path clip-path="url(#p29b184cf33)" d="M 61.535795 160.868324 
L 76.974531 141.929549 
L 92.413266 136.997218 
L 107.852001 165.887651 
L 123.290736 165.663457 
L 138.729471 151.019186 
L 154.168207 144.828102 
L 169.606942 119.122254 
L 185.045677 164.80546 
L 200.484412 165.764705 
L 215.923147 165.82124 
L 231.361882 163.589455 
L 246.800618 161.865113 
L 262.239353 165.870081 
L 277.678088 165.924212 
L 293.116823 165.952604 
L 308.555558 165.836373 
L 323.994293 162.802587 
L 339.433029 141.944953 
L 354.871764 159.772017 
L 370.310499 158.196392 
L 385.749234 150.690306 
L 401.187969 153.19572 
L 416.626705 155.019286 
" style="fill:none;stroke:#1b9e77;stroke-linecap:square;stroke-opacity:0.5;stroke-width:1.5;"/>
   </g>
   <g id="line2d_108">
    <path clip-path="url(#p29b184cf33)" d="M 61.535795 165.302905 
L 76.974531 163.77261 
L 92.413266 162.559079 
L 107.852001 161.904474 
L 123.290736 163.597624 
L 138.729471 163.576643 
L 154.168207 163.347241 
L 169.606942 161.376228 
L 185.045677 150.075958 
L 200.484412 149.13411 
L 215.923147 155.274604 
L 231.361882 163.244345 
L 246.800618 162.56289 
L 262.239353 152.279123 
L 277.678088 165.776778 
L 293.116823 165.794146 
L 308.555558 164.891265 
L 323.994293 132.756046 
L 339.433029 155.815347 
L 354.871764 165.573803 
L 370.310499 165.093582 
L 385.749234 138.601378 
L 401.187969 112.197028 
L 416.626705 148.859047 
" style="fill:none;stroke:#1b9e77;stroke-linecap:square;stroke-opacity:0.5;stroke-width:1.5;"/>
   </g>
   <g id="line2d_109">
    <path clip-path="url(#p29b184cf33)" d="M 61.535795 163.962949 
L 76.974531 163.549158 
L 92.413266 144.340311 
L 107.852001 144.430894 
L 123.290736 151.300723 
L 138.729471 162.737231 
L 154.168207 160.947808 
L 169.606942 156.062875 
L 185.045677 145.742968 
L 200.484412 158.22893 
L 215.923147 158.062462 
L 231.361882 160.38561 
L 246.800618 163.180931 
L 262.239353 162.343971 
L 277.678088 152.319223 
L 293.116823 159.106355 
L 308.555558 160.111489 
L 323.994293 161.266718 
L 339.433029 158.448208 
L 354.871764 155.446993 
L 370.310499 153.607057 
L 385.749234 149.413672 
L 401.187969 147.999615 
L 416.626705 160.3701 
" style="fill:none;stroke:#1b9e77;stroke-linecap:square;stroke-opacity:0.5;stroke-width:1.5;"/>
   </g>
   <g id="line2d_110">
    <path clip-path="url(#p29b184cf33)" d="M 61.535795 155.033028 
L 76.974531 165.290885 
L 92.413266 165.877757 
L 107.852001 165.718841 
L 123.290736 162.248882 
L 138.729471 157.588138 
L 154.168207 141.498808 
L 169.606942 153.141885 
L 185.045677 149.002808 
L 200.484412 147.96098 
L 215.923147 146.652719 
L 231.361882 114.353514 
L 246.800618 155.345402 
L 262.239353 162.20877 
L 277.678088 162.953373 
L 293.116823 155.868489 
L 308.555558 143.766999 
L 323.994293 164.160567 
L 339.433029 165.779703 
L 354.871764 165.657316 
L 370.310499 163.407924 
L 385.749234 163.695601 
L 401.187969 162.262076 
L 416.626705 163.891785 
" style="fill:none;stroke:#1b9e77;stroke-linecap:square;stroke-opacity:0.5;stroke-width:1.5;"/>
   </g>
   <g id="line2d_111">
    <path clip-path="url(#p29b184cf33)" d="M 61.535795 157.462724 
L 76.974531 136.967613 
L 92.413266 139.715489 
L 107.852001 145.40448 
L 123.290736 155.163845 
L 138.729471 161.46218 
L 154.168207 165.548406 
L 169.606942 165.66435 
L 185.045677 165.795932 
L 200.484412 165.815165 
L 215.923147 165.837826 
L 231.361882 165.866935 
L 246.800618 165.800216 
L 262.239353 164.221454 
L 277.678088 161.494852 
L 293.116823 162.930636 
L 308.555558 159.520768 
L 323.994293 161.745932 
L 339.433029 160.496344 
L 354.871764 162.334303 
L 370.310499 160.138332 
L 385.749234 102.046258 
L 401.187969 161.076436 
L 416.626705 140.855784 
" style="fill:none;stroke:#1b9e77;stroke-linecap:square;stroke-opacity:0.5;stroke-width:1.5;"/>
   </g>
   <g id="line2d_112">
    <path clip-path="url(#p29b184cf33)" d="M 61.535795 162.449013 
L 76.974531 155.983808 
L 92.413266 160.478741 
L 107.852001 161.286689 
L 123.290736 156.425014 
L 138.729471 165.412255 
L 154.168207 165.865998 
L 169.606942 165.813447 
L 185.045677 165.816184 
L 200.484412 165.829832 
L 215.923147 165.847829 
L 231.361882 165.933573 
L 246.800618 165.922769 
L 262.239353 163.011335 
L 277.678088 162.235529 
L 293.116823 160.323247 
L 308.555558 148.743258 
L 323.994293 97.648252 
L 339.433029 106.085098 
L 354.871764 137.958739 
L 370.310499 157.793762 
L 385.749234 164.840424 
L 401.187969 165.73385 
L 416.626705 165.927607 
" style="fill:none;stroke:#1b9e77;stroke-linecap:square;stroke-opacity:0.5;stroke-width:1.5;"/>
   </g>
   <g id="line2d_113">
    <path clip-path="url(#p29b184cf33)" d="M 61.535795 159.661286 
L 76.974531 125.783876 
L 92.413266 128.236961 
L 107.852001 154.865648 
L 123.290736 161.972959 
L 138.729471 150.535481 
L 154.168207 139.350321 
L 169.606942 139.198122 
L 185.045677 156.725564 
L 200.484412 163.600045 
L 215.923147 164.822236 
L 231.361882 164.054448 
L 246.800618 165.05337 
L 262.239353 165.58638 
L 277.678088 165.747584 
L 293.116823 165.682965 
L 308.555558 165.65751 
L 323.994293 165.835791 
L 339.433029 165.114805 
L 354.871764 160.46794 
L 370.310499 157.506058 
L 385.749234 157.454135 
L 401.187969 148.907488 
L 416.626705 161.545275 
" style="fill:none;stroke:#1b9e77;stroke-linecap:square;stroke-opacity:0.5;stroke-width:1.5;"/>
   </g>
   <g id="line2d_114">
    <path clip-path="url(#p29b184cf33)" d="M 61.535795 163.979163 
L 76.974531 165.082424 
L 92.413266 165.6426 
L 107.852001 165.770006 
L 123.290736 165.772111 
L 138.729471 159.475963 
L 154.168207 144.192069 
L 169.606942 162.809849 
L 185.045677 164.280382 
L 200.484412 163.087841 
L 215.923147 156.159081 
L 231.361882 149.310719 
L 246.800618 89.053389 
L 262.239353 159.884958 
L 277.678088 154.450435 
L 293.116823 146.548552 
L 308.555558 162.678758 
L 323.994293 162.099368 
L 339.433029 154.747838 
L 354.871764 159.903838 
L 370.310499 161.951683 
L 385.749234 159.184675 
L 401.187969 153.603074 
L 416.626705 163.697471 
" style="fill:none;stroke:#1b9e77;stroke-linecap:square;stroke-opacity:0.5;stroke-width:1.5;"/>
   </g>
   <g id="line2d_115">
    <path clip-path="url(#p29b184cf33)" d="M 61.535795 165.948386 
L 76.974531 165.948386 
L 92.413266 165.948386 
L 107.852001 165.948386 
L 123.290736 165.948386 
L 138.729471 165.945973 
L 154.168207 162.221732 
L 169.606942 156.005584 
L 185.045677 148.243941 
L 200.484412 134.267457 
L 215.923147 141.97681 
L 231.361882 164.983435 
L 246.800618 165.737605 
L 262.239353 163.058455 
L 277.678088 154.398163 
L 293.116823 155.615639 
L 308.555558 155.342087 
L 323.994293 153.816397 
L 339.433029 162.245457 
L 354.871764 161.762677 
L 370.310499 146.392555 
L 385.749234 143.529429 
L 401.187969 146.957677 
L 416.626705 141.123247 
" style="fill:none;stroke:#d95f02;stroke-linecap:square;stroke-width:1.5;"/>
   </g>
   <g id="patch_3">
    <path d="M 43.78125 173.52 
L 43.78125 7.2 
" style="fill:none;stroke:#000000;stroke-linecap:square;stroke-linejoin:miter;stroke-width:0.8;"/>
   </g>
   <g id="patch_4">
    <path d="M 43.78125 173.52 
L 434.38125 173.52 
" style="fill:none;stroke:#000000;stroke-linecap:square;stroke-linejoin:miter;stroke-width:0.8;"/>
   </g>
   <g id="legend_1">
    <g id="patch_5">
     <path d="M 376.214063 29.878125 
L 427.38125 29.878125 
Q 429.38125 29.878125 429.38125 27.878125 
L 429.38125 14.2 
Q 429.38125 12.2 427.38125 12.2 
L 376.214063 12.2 
Q 374.214063 12.2 374.214063 14.2 
L 374.214063 27.878125 
Q 374.214063 29.878125 376.214063 29.878125 
z
" style="fill:#ffffff;opacity:0.8;stroke:#cccccc;stroke-linejoin:miter;"/>
    </g>
    <g id="line2d_116">
     <path d="M 378.214063 20.298438 
L 398.214063 20.298438 
" style="fill:none;stroke:#d95f02;stroke-linecap:square;stroke-width:1.5;"/>
    </g>
    <g id="line2d_117"/>
    <g id="text_17">
     <!-- real -->
     <defs>
      <path d="M 9.421875 75.984375 
L 18.40625 75.984375 
L 18.40625 0 
L 9.421875 0 
z
" id="DejaVuSans-108"/>
     </defs>
     <g transform="translate(406.214063 23.798438)scale(0.1 -0.1)">
      <use xlink:href="#DejaVuSans-114"/>
      <use x="41.082031" xlink:href="#DejaVuSans-101"/>
      <use x="102.605469" xlink:href="#DejaVuSans-97"/>
      <use x="163.884766" xlink:href="#DejaVuSans-108"/>
     </g>
    </g>
   </g>
  </g>
 </g>
 <defs>
  <clipPath id="p29b184cf33">
   <rect height="166.32" width="390.6" x="43.78125" y="7.2"/>
  </clipPath>
 </defs>
</svg>
