<?xml version="1.0" encoding="utf-8" standalone="no"?>
<!DOCTYPE svg PUBLIC "-//W3C//DTD SVG 1.1//EN"
  "http://www.w3.org/Graphics/SVG/1.1/DTD/svg11.dtd">
<!-- Created with matplotlib (https://matplotlib.org/) -->
<svg height="211.07625pt" version="1.1" viewBox="0 0 445.62794 211.07625" width="445.62794pt" xmlns="http://www.w3.org/2000/svg" xmlns:xlink="http://www.w3.org/1999/xlink">
 <defs>
  <style type="text/css">
*{stroke-linecap:butt;stroke-linejoin:round;}
  </style>
 </defs>
 <g id="figure_1">
  <g id="patch_1">
   <path d="M 0 211.07625 
L 445.62794 211.07625 
L 445.62794 0 
L 0 0 
z
" style="fill:#ffffff;"/>
  </g>
  <g id="axes_1">
   <g id="patch_2">
    <path d="M 43.78125 173.52 
L 434.38125 173.52 
L 434.38125 7.2 
L 43.78125 7.2 
z
" style="fill:#ffffff;"/>
   </g>
   <g id="matplotlib.axis_1">
    <g id="xtick_1">
     <g id="line2d_1">
      <defs>
       <path d="M 0 0 
L 0 3.5 
" id="me223660179" style="stroke:#000000;stroke-width:0.8;"/>
      </defs>
      <g>
       <use style="stroke:#000000;stroke-width:0.8;" x="46.09706" xlink:href="#me223660179" y="173.52"/>
      </g>
     </g>
     <g id="text_1">
      <!-- 0 -->
      <defs>
       <path d="M 31.78125 66.40625 
Q 24.171875 66.40625 20.328125 58.90625 
Q 16.5 51.421875 16.5 36.375 
Q 16.5 21.390625 20.328125 13.890625 
Q 24.171875 6.390625 31.78125 6.390625 
Q 39.453125 6.390625 43.28125 13.890625 
Q 47.125 21.390625 47.125 36.375 
Q 47.125 51.421875 43.28125 58.90625 
Q 39.453125 66.40625 31.78125 66.40625 
z
M 31.78125 74.21875 
Q 44.046875 74.21875 50.515625 64.515625 
Q 56.984375 54.828125 56.984375 36.375 
Q 56.984375 17.96875 50.515625 8.265625 
Q 44.046875 -1.421875 31.78125 -1.421875 
Q 19.53125 -1.421875 13.0625 8.265625 
Q 6.59375 17.96875 6.59375 36.375 
Q 6.59375 54.828125 13.0625 64.515625 
Q 19.53125 74.21875 31.78125 74.21875 
z
" id="DejaVuSans-48"/>
      </defs>
      <g transform="translate(42.91581 188.118438)scale(0.1 -0.1)">
       <use xlink:href="#DejaVuSans-48"/>
      </g>
     </g>
    </g>
    <g id="xtick_2">
     <g id="line2d_2">
      <g>
       <use style="stroke:#000000;stroke-width:0.8;" x="123.290736" xlink:href="#me223660179" y="173.52"/>
      </g>
     </g>
     <g id="text_2">
      <!-- 5 -->
      <defs>
       <path d="M 10.796875 72.90625 
L 49.515625 72.90625 
L 49.515625 64.59375 
L 19.828125 64.59375 
L 19.828125 46.734375 
Q 21.96875 47.46875 24.109375 47.828125 
Q 26.265625 48.1875 28.421875 48.1875 
Q 40.625 48.1875 47.75 41.5 
Q 54.890625 34.8125 54.890625 23.390625 
Q 54.890625 11.625 47.5625 5.09375 
Q 40.234375 -1.421875 26.90625 -1.421875 
Q 22.3125 -1.421875 17.546875 -0.640625 
Q 12.796875 0.140625 7.71875 1.703125 
L 7.71875 11.625 
Q 12.109375 9.234375 16.796875 8.0625 
Q 21.484375 6.890625 26.703125 6.890625 
Q 35.15625 6.890625 40.078125 11.328125 
Q 45.015625 15.765625 45.015625 23.390625 
Q 45.015625 31 40.078125 35.4375 
Q 35.15625 39.890625 26.703125 39.890625 
Q 22.75 39.890625 18.8125 39.015625 
Q 14.890625 38.140625 10.796875 36.28125 
z
" id="DejaVuSans-53"/>
      </defs>
      <g transform="translate(120.109486 188.118438)scale(0.1 -0.1)">
       <use xlink:href="#DejaVuSans-53"/>
      </g>
     </g>
    </g>
    <g id="xtick_3">
     <g id="line2d_3">
      <g>
       <use style="stroke:#000000;stroke-width:0.8;" x="200.484412" xlink:href="#me223660179" y="173.52"/>
      </g>
     </g>
     <g id="text_3">
      <!-- 10 -->
      <defs>
       <path d="M 12.40625 8.296875 
L 28.515625 8.296875 
L 28.515625 63.921875 
L 10.984375 60.40625 
L 10.984375 69.390625 
L 28.421875 72.90625 
L 38.28125 72.90625 
L 38.28125 8.296875 
L 54.390625 8.296875 
L 54.390625 0 
L 12.40625 0 
z
" id="DejaVuSans-49"/>
      </defs>
      <g transform="translate(194.121912 188.118438)scale(0.1 -0.1)">
       <use xlink:href="#DejaVuSans-49"/>
       <use x="63.623047" xlink:href="#DejaVuSans-48"/>
      </g>
     </g>
    </g>
    <g id="xtick_4">
     <g id="line2d_4">
      <g>
       <use style="stroke:#000000;stroke-width:0.8;" x="277.678088" xlink:href="#me223660179" y="173.52"/>
      </g>
     </g>
     <g id="text_4">
      <!-- 15 -->
      <g transform="translate(271.315588 188.118438)scale(0.1 -0.1)">
       <use xlink:href="#DejaVuSans-49"/>
       <use x="63.623047" xlink:href="#DejaVuSans-53"/>
      </g>
     </g>
    </g>
    <g id="xtick_5">
     <g id="line2d_5">
      <g>
       <use style="stroke:#000000;stroke-width:0.8;" x="354.871764" xlink:href="#me223660179" y="173.52"/>
      </g>
     </g>
     <g id="text_5">
      <!-- 20 -->
      <defs>
       <path d="M 19.1875 8.296875 
L 53.609375 8.296875 
L 53.609375 0 
L 7.328125 0 
L 7.328125 8.296875 
Q 12.9375 14.109375 22.625 23.890625 
Q 32.328125 33.6875 34.8125 36.53125 
Q 39.546875 41.84375 41.421875 45.53125 
Q 43.3125 49.21875 43.3125 52.78125 
Q 43.3125 58.59375 39.234375 62.25 
Q 35.15625 65.921875 28.609375 65.921875 
Q 23.96875 65.921875 18.8125 64.3125 
Q 13.671875 62.703125 7.8125 59.421875 
L 7.8125 69.390625 
Q 13.765625 71.78125 18.9375 73 
Q 24.125 74.21875 28.421875 74.21875 
Q 39.75 74.21875 46.484375 68.546875 
Q 53.21875 62.890625 53.21875 53.421875 
Q 53.21875 48.921875 51.53125 44.890625 
Q 49.859375 40.875 45.40625 35.40625 
Q 44.1875 33.984375 37.640625 27.21875 
Q 31.109375 20.453125 19.1875 8.296875 
z
" id="DejaVuSans-50"/>
      </defs>
      <g transform="translate(348.509264 188.118438)scale(0.1 -0.1)">
       <use xlink:href="#DejaVuSans-50"/>
       <use x="63.623047" xlink:href="#DejaVuSans-48"/>
      </g>
     </g>
    </g>
    <g id="xtick_6">
     <g id="line2d_6">
      <g>
       <use style="stroke:#000000;stroke-width:0.8;" x="432.06544" xlink:href="#me223660179" y="173.52"/>
      </g>
     </g>
     <g id="text_6">
      <!-- 25 -->
      <g transform="translate(425.70294 188.118438)scale(0.1 -0.1)">
       <use xlink:href="#DejaVuSans-50"/>
       <use x="63.623047" xlink:href="#DejaVuSans-53"/>
      </g>
     </g>
    </g>
    <g id="text_7">
     <!-- hour -->
     <defs>
      <path d="M 54.890625 33.015625 
L 54.890625 0 
L 45.90625 0 
L 45.90625 32.71875 
Q 45.90625 40.484375 42.875 44.328125 
Q 39.84375 48.1875 33.796875 48.1875 
Q 26.515625 48.1875 22.3125 43.546875 
Q 18.109375 38.921875 18.109375 30.90625 
L 18.109375 0 
L 9.078125 0 
L 9.078125 75.984375 
L 18.109375 75.984375 
L 18.109375 46.1875 
Q 21.34375 51.125 25.703125 53.5625 
Q 30.078125 56 35.796875 56 
Q 45.21875 56 50.046875 50.171875 
Q 54.890625 44.34375 54.890625 33.015625 
z
" id="DejaVuSans-104"/>
      <path d="M 30.609375 48.390625 
Q 23.390625 48.390625 19.1875 42.75 
Q 14.984375 37.109375 14.984375 27.296875 
Q 14.984375 17.484375 19.15625 11.84375 
Q 23.34375 6.203125 30.609375 6.203125 
Q 37.796875 6.203125 41.984375 11.859375 
Q 46.1875 17.53125 46.1875 27.296875 
Q 46.1875 37.015625 41.984375 42.703125 
Q 37.796875 48.390625 30.609375 48.390625 
z
M 30.609375 56 
Q 42.328125 56 49.015625 48.375 
Q 55.71875 40.765625 55.71875 27.296875 
Q 55.71875 13.875 49.015625 6.21875 
Q 42.328125 -1.421875 30.609375 -1.421875 
Q 18.84375 -1.421875 12.171875 6.21875 
Q 5.515625 13.875 5.515625 27.296875 
Q 5.515625 40.765625 12.171875 48.375 
Q 18.84375 56 30.609375 56 
z
" id="DejaVuSans-111"/>
      <path d="M 8.5 21.578125 
L 8.5 54.6875 
L 17.484375 54.6875 
L 17.484375 21.921875 
Q 17.484375 14.15625 20.5 10.265625 
Q 23.53125 6.390625 29.59375 6.390625 
Q 36.859375 6.390625 41.078125 11.03125 
Q 45.3125 15.671875 45.3125 23.6875 
L 45.3125 54.6875 
L 54.296875 54.6875 
L 54.296875 0 
L 45.3125 0 
L 45.3125 8.40625 
Q 42.046875 3.421875 37.71875 1 
Q 33.40625 -1.421875 27.6875 -1.421875 
Q 18.265625 -1.421875 13.375 4.4375 
Q 8.5 10.296875 8.5 21.578125 
z
M 31.109375 56 
z
" id="DejaVuSans-117"/>
      <path d="M 41.109375 46.296875 
Q 39.59375 47.171875 37.8125 47.578125 
Q 36.03125 48 33.890625 48 
Q 26.265625 48 22.1875 43.046875 
Q 18.109375 38.09375 18.109375 28.8125 
L 18.109375 0 
L 9.078125 0 
L 9.078125 54.6875 
L 18.109375 54.6875 
L 18.109375 46.1875 
Q 20.953125 51.171875 25.484375 53.578125 
Q 30.03125 56 36.53125 56 
Q 37.453125 56 38.578125 55.875 
Q 39.703125 55.765625 41.0625 55.515625 
z
" id="DejaVuSans-114"/>
     </defs>
     <g transform="translate(227.628906 201.796563)scale(0.1 -0.1)">
      <use xlink:href="#DejaVuSans-104"/>
      <use x="63.378906" xlink:href="#DejaVuSans-111"/>
      <use x="124.560547" xlink:href="#DejaVuSans-117"/>
      <use x="187.939453" xlink:href="#DejaVuSans-114"/>
     </g>
    </g>
   </g>
   <g id="matplotlib.axis_2">
    <g id="ytick_1">
     <g id="line2d_7">
      <defs>
       <path d="M 0 0 
L -3.5 0 
" id="m39221df967" style="stroke:#000000;stroke-width:0.8;"/>
      </defs>
      <g>
       <use style="stroke:#000000;stroke-width:0.8;" x="43.78125" xlink:href="#m39221df967" y="165.963591"/>
      </g>
     </g>
     <g id="text_8">
      <!-- 0.0 -->
      <defs>
       <path d="M 10.6875 12.40625 
L 21 12.40625 
L 21 0 
L 10.6875 0 
z
" id="DejaVuSans-46"/>
      </defs>
      <g transform="translate(20.878125 169.76281)scale(0.1 -0.1)">
       <use xlink:href="#DejaVuSans-48"/>
       <use x="63.623047" xlink:href="#DejaVuSans-46"/>
       <use x="95.410156" xlink:href="#DejaVuSans-48"/>
      </g>
     </g>
    </g>
    <g id="ytick_2">
     <g id="line2d_8">
      <g>
       <use style="stroke:#000000;stroke-width:0.8;" x="43.78125" xlink:href="#m39221df967" y="131.600364"/>
      </g>
     </g>
     <g id="text_9">
      <!-- 0.5 -->
      <g transform="translate(20.878125 135.399583)scale(0.1 -0.1)">
       <use xlink:href="#DejaVuSans-48"/>
       <use x="63.623047" xlink:href="#DejaVuSans-46"/>
       <use x="95.410156" xlink:href="#DejaVuSans-53"/>
      </g>
     </g>
    </g>
    <g id="ytick_3">
     <g id="line2d_9">
      <g>
       <use style="stroke:#000000;stroke-width:0.8;" x="43.78125" xlink:href="#m39221df967" y="97.237138"/>
      </g>
     </g>
     <g id="text_10">
      <!-- 1.0 -->
      <g transform="translate(20.878125 101.036357)scale(0.1 -0.1)">
       <use xlink:href="#DejaVuSans-49"/>
       <use x="63.623047" xlink:href="#DejaVuSans-46"/>
       <use x="95.410156" xlink:href="#DejaVuSans-48"/>
      </g>
     </g>
    </g>
    <g id="ytick_4">
     <g id="line2d_10">
      <g>
       <use style="stroke:#000000;stroke-width:0.8;" x="43.78125" xlink:href="#m39221df967" y="62.873911"/>
      </g>
     </g>
     <g id="text_11">
      <!-- 1.5 -->
      <g transform="translate(20.878125 66.67313)scale(0.1 -0.1)">
       <use xlink:href="#DejaVuSans-49"/>
       <use x="63.623047" xlink:href="#DejaVuSans-46"/>
       <use x="95.410156" xlink:href="#DejaVuSans-53"/>
      </g>
     </g>
    </g>
    <g id="ytick_5">
     <g id="line2d_11">
      <g>
       <use style="stroke:#000000;stroke-width:0.8;" x="43.78125" xlink:href="#m39221df967" y="28.510685"/>
      </g>
     </g>
     <g id="text_12">
      <!-- 2.0 -->
      <g transform="translate(20.878125 32.309904)scale(0.1 -0.1)">
       <use xlink:href="#DejaVuSans-50"/>
       <use x="63.623047" xlink:href="#DejaVuSans-46"/>
       <use x="95.410156" xlink:href="#DejaVuSans-48"/>
      </g>
     </g>
    </g>
    <g id="text_13">
     <!-- precipitation [mm/hour] -->
     <defs>
      <path d="M 18.109375 8.203125 
L 18.109375 -20.796875 
L 9.078125 -20.796875 
L 9.078125 54.6875 
L 18.109375 54.6875 
L 18.109375 46.390625 
Q 20.953125 51.265625 25.265625 53.625 
Q 29.59375 56 35.59375 56 
Q 45.5625 56 51.78125 48.09375 
Q 58.015625 40.1875 58.015625 27.296875 
Q 58.015625 14.40625 51.78125 6.484375 
Q 45.5625 -1.421875 35.59375 -1.421875 
Q 29.59375 -1.421875 25.265625 0.953125 
Q 20.953125 3.328125 18.109375 8.203125 
z
M 48.6875 27.296875 
Q 48.6875 37.203125 44.609375 42.84375 
Q 40.53125 48.484375 33.40625 48.484375 
Q 26.265625 48.484375 22.1875 42.84375 
Q 18.109375 37.203125 18.109375 27.296875 
Q 18.109375 17.390625 22.1875 11.75 
Q 26.265625 6.109375 33.40625 6.109375 
Q 40.53125 6.109375 44.609375 11.75 
Q 48.6875 17.390625 48.6875 27.296875 
z
" id="DejaVuSans-112"/>
      <path d="M 56.203125 29.59375 
L 56.203125 25.203125 
L 14.890625 25.203125 
Q 15.484375 15.921875 20.484375 11.0625 
Q 25.484375 6.203125 34.421875 6.203125 
Q 39.59375 6.203125 44.453125 7.46875 
Q 49.3125 8.734375 54.109375 11.28125 
L 54.109375 2.78125 
Q 49.265625 0.734375 44.1875 -0.34375 
Q 39.109375 -1.421875 33.890625 -1.421875 
Q 20.796875 -1.421875 13.15625 6.1875 
Q 5.515625 13.8125 5.515625 26.8125 
Q 5.515625 40.234375 12.765625 48.109375 
Q 20.015625 56 32.328125 56 
Q 43.359375 56 49.78125 48.890625 
Q 56.203125 41.796875 56.203125 29.59375 
z
M 47.21875 32.234375 
Q 47.125 39.59375 43.09375 43.984375 
Q 39.0625 48.390625 32.421875 48.390625 
Q 24.90625 48.390625 20.390625 44.140625 
Q 15.875 39.890625 15.1875 32.171875 
z
" id="DejaVuSans-101"/>
      <path d="M 48.78125 52.59375 
L 48.78125 44.1875 
Q 44.96875 46.296875 41.140625 47.34375 
Q 37.3125 48.390625 33.40625 48.390625 
Q 24.65625 48.390625 19.8125 42.84375 
Q 14.984375 37.3125 14.984375 27.296875 
Q 14.984375 17.28125 19.8125 11.734375 
Q 24.65625 6.203125 33.40625 6.203125 
Q 37.3125 6.203125 41.140625 7.25 
Q 44.96875 8.296875 48.78125 10.40625 
L 48.78125 2.09375 
Q 45.015625 0.34375 40.984375 -0.53125 
Q 36.96875 -1.421875 32.421875 -1.421875 
Q 20.0625 -1.421875 12.78125 6.34375 
Q 5.515625 14.109375 5.515625 27.296875 
Q 5.515625 40.671875 12.859375 48.328125 
Q 20.21875 56 33.015625 56 
Q 37.15625 56 41.109375 55.140625 
Q 45.0625 54.296875 48.78125 52.59375 
z
" id="DejaVuSans-99"/>
      <path d="M 9.421875 54.6875 
L 18.40625 54.6875 
L 18.40625 0 
L 9.421875 0 
z
M 9.421875 75.984375 
L 18.40625 75.984375 
L 18.40625 64.59375 
L 9.421875 64.59375 
z
" id="DejaVuSans-105"/>
      <path d="M 18.3125 70.21875 
L 18.3125 54.6875 
L 36.8125 54.6875 
L 36.8125 47.703125 
L 18.3125 47.703125 
L 18.3125 18.015625 
Q 18.3125 11.328125 20.140625 9.421875 
Q 21.96875 7.515625 27.59375 7.515625 
L 36.8125 7.515625 
L 36.8125 0 
L 27.59375 0 
Q 17.1875 0 13.234375 3.875 
Q 9.28125 7.765625 9.28125 18.015625 
L 9.28125 47.703125 
L 2.6875 47.703125 
L 2.6875 54.6875 
L 9.28125 54.6875 
L 9.28125 70.21875 
z
" id="DejaVuSans-116"/>
      <path d="M 34.28125 27.484375 
Q 23.390625 27.484375 19.1875 25 
Q 14.984375 22.515625 14.984375 16.5 
Q 14.984375 11.71875 18.140625 8.90625 
Q 21.296875 6.109375 26.703125 6.109375 
Q 34.1875 6.109375 38.703125 11.40625 
Q 43.21875 16.703125 43.21875 25.484375 
L 43.21875 27.484375 
z
M 52.203125 31.203125 
L 52.203125 0 
L 43.21875 0 
L 43.21875 8.296875 
Q 40.140625 3.328125 35.546875 0.953125 
Q 30.953125 -1.421875 24.3125 -1.421875 
Q 15.921875 -1.421875 10.953125 3.296875 
Q 6 8.015625 6 15.921875 
Q 6 25.140625 12.171875 29.828125 
Q 18.359375 34.515625 30.609375 34.515625 
L 43.21875 34.515625 
L 43.21875 35.40625 
Q 43.21875 41.609375 39.140625 45 
Q 35.0625 48.390625 27.6875 48.390625 
Q 23 48.390625 18.546875 47.265625 
Q 14.109375 46.140625 10.015625 43.890625 
L 10.015625 52.203125 
Q 14.9375 54.109375 19.578125 55.046875 
Q 24.21875 56 28.609375 56 
Q 40.484375 56 46.34375 49.84375 
Q 52.203125 43.703125 52.203125 31.203125 
z
" id="DejaVuSans-97"/>
      <path d="M 54.890625 33.015625 
L 54.890625 0 
L 45.90625 0 
L 45.90625 32.71875 
Q 45.90625 40.484375 42.875 44.328125 
Q 39.84375 48.1875 33.796875 48.1875 
Q 26.515625 48.1875 22.3125 43.546875 
Q 18.109375 38.921875 18.109375 30.90625 
L 18.109375 0 
L 9.078125 0 
L 9.078125 54.6875 
L 18.109375 54.6875 
L 18.109375 46.1875 
Q 21.34375 51.125 25.703125 53.5625 
Q 30.078125 56 35.796875 56 
Q 45.21875 56 50.046875 50.171875 
Q 54.890625 44.34375 54.890625 33.015625 
z
" id="DejaVuSans-110"/>
      <path id="DejaVuSans-32"/>
      <path d="M 8.59375 75.984375 
L 29.296875 75.984375 
L 29.296875 69 
L 17.578125 69 
L 17.578125 -6.203125 
L 29.296875 -6.203125 
L 29.296875 -13.1875 
L 8.59375 -13.1875 
z
" id="DejaVuSans-91"/>
      <path d="M 52 44.1875 
Q 55.375 50.25 60.0625 53.125 
Q 64.75 56 71.09375 56 
Q 79.640625 56 84.28125 50.015625 
Q 88.921875 44.046875 88.921875 33.015625 
L 88.921875 0 
L 79.890625 0 
L 79.890625 32.71875 
Q 79.890625 40.578125 77.09375 44.375 
Q 74.3125 48.1875 68.609375 48.1875 
Q 61.625 48.1875 57.5625 43.546875 
Q 53.515625 38.921875 53.515625 30.90625 
L 53.515625 0 
L 44.484375 0 
L 44.484375 32.71875 
Q 44.484375 40.625 41.703125 44.40625 
Q 38.921875 48.1875 33.109375 48.1875 
Q 26.21875 48.1875 22.15625 43.53125 
Q 18.109375 38.875 18.109375 30.90625 
L 18.109375 0 
L 9.078125 0 
L 9.078125 54.6875 
L 18.109375 54.6875 
L 18.109375 46.1875 
Q 21.1875 51.21875 25.484375 53.609375 
Q 29.78125 56 35.6875 56 
Q 41.65625 56 45.828125 52.96875 
Q 50 49.953125 52 44.1875 
z
" id="DejaVuSans-109"/>
      <path d="M 25.390625 72.90625 
L 33.6875 72.90625 
L 8.296875 -9.28125 
L 0 -9.28125 
z
" id="DejaVuSans-47"/>
      <path d="M 30.421875 75.984375 
L 30.421875 -13.1875 
L 9.71875 -13.1875 
L 9.71875 -6.203125 
L 21.390625 -6.203125 
L 21.390625 69 
L 9.71875 69 
L 9.71875 75.984375 
z
" id="DejaVuSans-93"/>
     </defs>
     <g transform="translate(14.798438 150.335781)rotate(-90)scale(0.1 -0.1)">
      <use xlink:href="#DejaVuSans-112"/>
      <use x="63.476562" xlink:href="#DejaVuSans-114"/>
      <use x="104.558594" xlink:href="#DejaVuSans-101"/>
      <use x="166.082031" xlink:href="#DejaVuSans-99"/>
      <use x="221.0625" xlink:href="#DejaVuSans-105"/>
      <use x="248.845703" xlink:href="#DejaVuSans-112"/>
      <use x="312.322266" xlink:href="#DejaVuSans-105"/>
      <use x="340.105469" xlink:href="#DejaVuSans-116"/>
      <use x="379.314453" xlink:href="#DejaVuSans-97"/>
      <use x="440.59375" xlink:href="#DejaVuSans-116"/>
      <use x="479.802734" xlink:href="#DejaVuSans-105"/>
      <use x="507.585938" xlink:href="#DejaVuSans-111"/>
      <use x="568.767578" xlink:href="#DejaVuSans-110"/>
      <use x="632.146484" xlink:href="#DejaVuSans-32"/>
      <use x="663.933594" xlink:href="#DejaVuSans-91"/>
      <use x="702.947266" xlink:href="#DejaVuSans-109"/>
      <use x="800.359375" xlink:href="#DejaVuSans-109"/>
      <use x="897.771484" xlink:href="#DejaVuSans-47"/>
      <use x="931.462891" xlink:href="#DejaVuSans-104"/>
      <use x="994.841797" xlink:href="#DejaVuSans-111"/>
      <use x="1056.023438" xlink:href="#DejaVuSans-117"/>
      <use x="1119.402344" xlink:href="#DejaVuSans-114"/>
      <use x="1160.515625" xlink:href="#DejaVuSans-93"/>
     </g>
    </g>
   </g>
   <g id="line2d_12">
    <path clip-path="url(#pb55d8f8499)" d="M 61.535795 165.668366 
L 76.974531 164.946821 
L 92.413266 165.089627 
L 107.852001 164.815113 
L 123.290736 162.670578 
L 138.729471 165.782279 
L 154.168207 158.355473 
L 169.606942 134.47597 
L 185.045677 158.152999 
L 200.484412 149.780575 
L 215.923147 119.991032 
L 231.361882 129.941955 
L 246.800618 153.688142 
L 262.239353 111.20277 
L 277.678088 162.195264 
L 293.116823 165.418064 
L 308.555558 165.761469 
L 323.994293 165.732867 
L 339.433029 165.704726 
L 354.871764 165.788548 
L 370.310499 165.836299 
L 385.749234 165.90974 
L 401.187969 165.944523 
L 416.626705 165.536123 
" style="fill:none;stroke:#1b9e77;stroke-linecap:square;stroke-opacity:0.5;stroke-width:1.5;"/>
   </g>
   <g id="line2d_13">
    <path clip-path="url(#pb55d8f8499)" d="M 61.535795 85.436544 
L 76.974531 117.410142 
L 92.413266 162.941164 
L 107.852001 143.159065 
L 123.290736 165.461585 
L 138.729471 165.796177 
L 154.168207 165.634699 
L 169.606942 165.345485 
L 185.045677 160.312398 
L 200.484412 162.337569 
L 215.923147 158.982791 
L 231.361882 152.621177 
L 246.800618 159.115157 
L 262.239353 161.898993 
L 277.678088 163.07228 
L 293.116823 164.275556 
L 308.555558 162.429242 
L 323.994293 162.68779 
L 339.433029 163.60826 
L 354.871764 164.825535 
L 370.310499 163.635835 
L 385.749234 155.651792 
L 401.187969 165.823403 
L 416.626705 165.926673 
" style="fill:none;stroke:#1b9e77;stroke-linecap:square;stroke-opacity:0.5;stroke-width:1.5;"/>
   </g>
   <g id="line2d_14">
    <path clip-path="url(#pb55d8f8499)" d="M 61.535795 159.83786 
L 76.974531 156.531746 
L 92.413266 164.518115 
L 107.852001 164.849964 
L 123.290736 165.245304 
L 138.729471 162.025773 
L 154.168207 154.617252 
L 169.606942 163.729978 
L 185.045677 165.507162 
L 200.484412 165.801655 
L 215.923147 165.697364 
L 231.361882 163.059675 
L 246.800618 163.588107 
L 262.239353 165.111631 
L 277.678088 165.711045 
L 293.116823 165.902544 
L 308.555558 163.715377 
L 323.994293 164.150775 
L 339.433029 161.244234 
L 354.871764 150.669816 
L 370.310499 148.050722 
L 385.749234 134.819682 
L 401.187969 102.254485 
L 416.626705 121.749054 
" style="fill:none;stroke:#1b9e77;stroke-linecap:square;stroke-opacity:0.5;stroke-width:1.5;"/>
   </g>
   <g id="line2d_15">
    <path clip-path="url(#pb55d8f8499)" d="M 61.535795 162.955895 
L 76.974531 163.399625 
L 92.413266 164.803816 
L 107.852001 165.033709 
L 123.290736 165.409329 
L 138.729471 165.751494 
L 154.168207 165.790722 
L 169.606942 165.435286 
L 185.045677 144.824729 
L 200.484412 159.029935 
L 215.923147 153.018082 
L 231.361882 142.593229 
L 246.800618 157.304408 
L 262.239353 144.025707 
L 277.678088 81.891645 
L 293.116823 151.312838 
L 308.555558 161.847489 
L 323.994293 159.316508 
L 339.433029 160.784192 
L 354.871764 164.288396 
L 370.310499 164.619156 
L 385.749234 164.555611 
L 401.187969 164.606224 
L 416.626705 165.791289 
" style="fill:none;stroke:#1b9e77;stroke-linecap:square;stroke-opacity:0.5;stroke-width:1.5;"/>
   </g>
   <g id="line2d_16">
    <path clip-path="url(#pb55d8f8499)" d="M 61.535795 165.668373 
L 76.974531 164.999942 
L 92.413266 163.583826 
L 107.852001 162.458206 
L 123.290736 157.446977 
L 138.729471 160.869884 
L 154.168207 163.618171 
L 169.606942 163.803087 
L 185.045677 162.300964 
L 200.484412 136.139992 
L 215.923147 120.349722 
L 231.361882 78.913821 
L 246.800618 133.989851 
L 262.239353 165.252147 
L 277.678088 165.895943 
L 293.116823 165.902919 
L 308.555558 165.915381 
L 323.994293 165.905966 
L 339.433029 165.895556 
L 354.871764 165.908543 
L 370.310499 165.917882 
L 385.749234 165.925756 
L 401.187969 165.886046 
L 416.626705 165.840348 
" style="fill:none;stroke:#1b9e77;stroke-linecap:square;stroke-opacity:0.5;stroke-width:1.5;"/>
   </g>
   <g id="line2d_17">
    <path clip-path="url(#pb55d8f8499)" d="M 61.535795 160.973314 
L 76.974531 165.60645 
L 92.413266 163.385631 
L 107.852001 159.101361 
L 123.290736 139.184766 
L 138.729471 165.654734 
L 154.168207 165.87721 
L 169.606942 151.912794 
L 185.045677 157.859028 
L 200.484412 14.76 
L 215.923147 163.413861 
L 231.361882 165.265478 
L 246.800618 165.581228 
L 262.239353 165.263772 
L 277.678088 165.36794 
L 293.116823 165.618027 
L 308.555558 165.736655 
L 323.994293 165.744166 
L 339.433029 165.745041 
L 354.871764 165.793795 
L 370.310499 165.805387 
L 385.749234 165.9331 
L 401.187969 165.946598 
L 416.626705 162.85899 
" style="fill:none;stroke:#1b9e77;stroke-linecap:square;stroke-opacity:0.5;stroke-width:1.5;"/>
   </g>
   <g id="line2d_18">
    <path clip-path="url(#pb55d8f8499)" d="M 61.535795 165.87423 
L 76.974531 165.648271 
L 92.413266 165.74569 
L 107.852001 165.654111 
L 123.290736 165.63461 
L 138.729471 165.721089 
L 154.168207 165.794639 
L 169.606942 165.798671 
L 185.045677 165.307085 
L 200.484412 165.22384 
L 215.923147 165.201252 
L 231.361882 165.262472 
L 246.800618 162.614002 
L 262.239353 149.960834 
L 277.678088 159.647871 
L 293.116823 160.713645 
L 308.555558 108.288907 
L 323.994293 102.838442 
L 339.433029 146.900361 
L 354.871764 119.914699 
L 370.310499 163.768277 
L 385.749234 165.332742 
L 401.187969 165.733133 
L 416.626705 165.810442 
" style="fill:none;stroke:#1b9e77;stroke-linecap:square;stroke-opacity:0.5;stroke-width:1.5;"/>
   </g>
   <g id="line2d_19">
    <path clip-path="url(#pb55d8f8499)" d="M 61.535795 128.777459 
L 76.974531 90.116633 
L 92.413266 126.585897 
L 107.852001 136.507567 
L 123.290736 157.926506 
L 138.729471 162.907473 
L 154.168207 164.966021 
L 169.606942 164.962151 
L 185.045677 165.295039 
L 200.484412 165.427052 
L 215.923147 165.624155 
L 231.361882 165.673329 
L 246.800618 165.753507 
L 262.239353 165.785667 
L 277.678088 165.681559 
L 293.116823 165.539723 
L 308.555558 165.573149 
L 323.994293 165.543499 
L 339.433029 163.903215 
L 354.871764 161.73196 
L 370.310499 158.558163 
L 385.749234 163.436639 
L 401.187969 161.47238 
L 416.626705 160.640581 
" style="fill:none;stroke:#1b9e77;stroke-linecap:square;stroke-opacity:0.5;stroke-width:1.5;"/>
   </g>
   <g id="line2d_20">
    <path clip-path="url(#pb55d8f8499)" d="M 61.535795 113.285179 
L 76.974531 122.426277 
L 92.413266 148.03108 
L 107.852001 143.818906 
L 123.290736 140.846151 
L 138.729471 126.572178 
L 154.168207 155.227964 
L 169.606942 163.446253 
L 185.045677 164.73028 
L 200.484412 164.727853 
L 215.923147 165.065801 
L 231.361882 164.741216 
L 246.800618 165.397704 
L 262.239353 165.586937 
L 277.678088 165.68942 
L 293.116823 165.667441 
L 308.555558 165.593388 
L 323.994293 165.693606 
L 339.433029 165.724115 
L 354.871764 165.857665 
L 370.310499 165.825676 
L 385.749234 165.9154 
L 401.187969 165.825425 
L 416.626705 162.693403 
" style="fill:none;stroke:#1b9e77;stroke-linecap:square;stroke-opacity:0.5;stroke-width:1.5;"/>
   </g>
   <g id="line2d_21">
    <path clip-path="url(#pb55d8f8499)" d="M 61.535795 164.408309 
L 76.974531 164.24386 
L 92.413266 163.804866 
L 107.852001 162.657222 
L 123.290736 160.888409 
L 138.729471 152.987218 
L 154.168207 143.567756 
L 169.606942 138.201013 
L 185.045677 147.521932 
L 200.484412 125.921225 
L 215.923147 153.239828 
L 231.361882 161.707412 
L 246.800618 164.948336 
L 262.239353 165.200749 
L 277.678088 165.472628 
L 293.116823 165.098637 
L 308.555558 165.127403 
L 323.994293 165.737644 
L 339.433029 165.817992 
L 354.871764 151.251342 
L 370.310499 147.265693 
L 385.749234 156.765293 
L 401.187969 145.337388 
L 416.626705 161.21716 
" style="fill:none;stroke:#1b9e77;stroke-linecap:square;stroke-opacity:0.5;stroke-width:1.5;"/>
   </g>
   <g id="line2d_22">
    <path clip-path="url(#pb55d8f8499)" d="M 61.535795 165.484782 
L 76.974531 165.326945 
L 92.413266 165.597766 
L 107.852001 165.806431 
L 123.290736 165.630838 
L 138.729471 165.202852 
L 154.168207 165.374673 
L 169.606942 164.672508 
L 185.045677 164.807645 
L 200.484412 164.14003 
L 215.923147 162.514295 
L 231.361882 161.816617 
L 246.800618 160.95736 
L 262.239353 126.461935 
L 277.678088 112.523626 
L 293.116823 104.673771 
L 308.555558 124.738794 
L 323.994293 163.608535 
L 339.433029 165.486636 
L 354.871764 165.891013 
L 370.310499 165.938092 
L 385.749234 162.530099 
L 401.187969 164.231312 
L 416.626705 164.972759 
" style="fill:none;stroke:#1b9e77;stroke-linecap:square;stroke-opacity:0.5;stroke-width:1.5;"/>
   </g>
   <g id="line2d_23">
    <path clip-path="url(#pb55d8f8499)" d="M 61.535795 161.742038 
L 76.974531 162.21425 
L 92.413266 159.844025 
L 107.852001 159.867835 
L 123.290736 158.271998 
L 138.729471 157.836104 
L 154.168207 157.551462 
L 169.606942 154.582194 
L 185.045677 153.701589 
L 200.484412 149.586979 
L 215.923147 144.77343 
L 231.361882 149.328189 
L 246.800618 151.383275 
L 262.239353 157.008858 
L 277.678088 157.640767 
L 293.116823 153.690464 
L 308.555558 157.948052 
L 323.994293 161.121775 
L 339.433029 162.198786 
L 354.871764 160.247762 
L 370.310499 158.170079 
L 385.749234 155.362583 
L 401.187969 152.726808 
L 416.626705 161.590011 
" style="fill:none;stroke:#1b9e77;stroke-linecap:square;stroke-opacity:0.5;stroke-width:1.5;"/>
   </g>
   <g id="line2d_24">
    <path clip-path="url(#pb55d8f8499)" d="M 61.535795 165.403333 
L 76.974531 164.466295 
L 92.413266 164.512447 
L 107.852001 164.335569 
L 123.290736 164.747627 
L 138.729471 165.380218 
L 154.168207 165.245066 
L 169.606942 163.131572 
L 185.045677 152.619289 
L 200.484412 164.882356 
L 215.923147 159.746894 
L 231.361882 150.192161 
L 246.800618 155.38799 
L 262.239353 158.349835 
L 277.678088 148.959406 
L 293.116823 149.602094 
L 308.555558 156.969453 
L 323.994293 154.547142 
L 339.433029 126.21914 
L 354.871764 151.477647 
L 370.310499 153.161845 
L 385.749234 150.380948 
L 401.187969 156.972564 
L 416.626705 151.698431 
" style="fill:none;stroke:#1b9e77;stroke-linecap:square;stroke-opacity:0.5;stroke-width:1.5;"/>
   </g>
   <g id="line2d_25">
    <path clip-path="url(#pb55d8f8499)" d="M 61.535795 165.96 
L 76.974531 165.886576 
L 92.413266 163.792681 
L 107.852001 163.349659 
L 123.290736 160.869657 
L 138.729471 160.513678 
L 154.168207 160.621706 
L 169.606942 157.898381 
L 185.045677 148.626125 
L 200.484412 129.830713 
L 215.923147 119.682191 
L 231.361882 161.873843 
L 246.800618 102.564056 
L 262.239353 143.444921 
L 277.678088 164.756455 
L 293.116823 164.162037 
L 308.555558 164.726416 
L 323.994293 165.335481 
L 339.433029 165.704753 
L 354.871764 165.735203 
L 370.310499 165.796758 
L 385.749234 165.688527 
L 401.187969 165.670856 
L 416.626705 165.898638 
" style="fill:none;stroke:#1b9e77;stroke-linecap:square;stroke-opacity:0.5;stroke-width:1.5;"/>
   </g>
   <g id="line2d_26">
    <path clip-path="url(#pb55d8f8499)" d="M 61.535795 150.671667 
L 76.974531 122.035147 
L 92.413266 146.247095 
L 107.852001 154.99671 
L 123.290736 159.384668 
L 138.729471 154.487488 
L 154.168207 150.366667 
L 169.606942 150.684363 
L 185.045677 154.760303 
L 200.484412 160.415663 
L 215.923147 162.385329 
L 231.361882 161.169965 
L 246.800618 158.941861 
L 262.239353 157.556279 
L 277.678088 158.347385 
L 293.116823 158.273989 
L 308.555558 158.697897 
L 323.994293 160.82259 
L 339.433029 161.54551 
L 354.871764 160.809107 
L 370.310499 160.968217 
L 385.749234 163.763249 
L 401.187969 165.178859 
L 416.626705 165.87931 
" style="fill:none;stroke:#1b9e77;stroke-linecap:square;stroke-opacity:0.5;stroke-width:1.5;"/>
   </g>
   <g id="line2d_27">
    <path clip-path="url(#pb55d8f8499)" d="M 61.535795 162.099519 
L 76.974531 149.484714 
L 92.413266 154.997977 
L 107.852001 151.260783 
L 123.290736 137.541298 
L 138.729471 154.898996 
L 154.168207 153.338177 
L 169.606942 142.210974 
L 185.045677 156.212806 
L 200.484412 156.283254 
L 215.923147 150.250356 
L 231.361882 145.621939 
L 246.800618 150.732772 
L 262.239353 150.851284 
L 277.678088 157.49947 
L 293.116823 160.156227 
L 308.555558 164.216616 
L 323.994293 165.538082 
L 339.433029 165.821636 
L 354.871764 165.806402 
L 370.310499 165.860324 
L 385.749234 165.863599 
L 401.187969 165.886465 
L 416.626705 165.955643 
" style="fill:none;stroke:#1b9e77;stroke-linecap:square;stroke-opacity:0.5;stroke-width:1.5;"/>
   </g>
   <g id="line2d_28">
    <path clip-path="url(#pb55d8f8499)" d="M 61.535795 69.135578 
L 76.974531 159.648303 
L 92.413266 165.58831 
L 107.852001 165.203677 
L 123.290736 165.162381 
L 138.729471 165.514616 
L 154.168207 165.928386 
L 169.606942 165.94583 
L 185.045677 165.952294 
L 200.484412 165.84067 
L 215.923147 159.485559 
L 231.361882 160.040841 
L 246.800618 165.585482 
L 262.239353 161.132009 
L 277.678088 161.967732 
L 293.116823 162.713386 
L 308.555558 152.016278 
L 323.994293 139.513507 
L 339.433029 150.288866 
L 354.871764 149.504911 
L 370.310499 153.860741 
L 385.749234 158.664579 
L 401.187969 163.860854 
L 416.626705 165.834536 
" style="fill:none;stroke:#1b9e77;stroke-linecap:square;stroke-opacity:0.5;stroke-width:1.5;"/>
   </g>
   <g id="line2d_29">
    <path clip-path="url(#pb55d8f8499)" d="M 61.535795 165.693948 
L 76.974531 164.867353 
L 92.413266 165.399118 
L 107.852001 165.524366 
L 123.290736 165.592815 
L 138.729471 165.822587 
L 154.168207 165.549978 
L 169.606942 158.798559 
L 185.045677 155.867662 
L 200.484412 158.965855 
L 215.923147 160.247536 
L 231.361882 161.445605 
L 246.800618 161.764142 
L 262.239353 119.389678 
L 277.678088 156.016016 
L 293.116823 161.578886 
L 308.555558 161.119761 
L 323.994293 157.392911 
L 339.433029 117.459316 
L 354.871764 157.052467 
L 370.310499 157.735283 
L 385.749234 148.552587 
L 401.187969 148.098618 
L 416.626705 158.454263 
" style="fill:none;stroke:#1b9e77;stroke-linecap:square;stroke-opacity:0.5;stroke-width:1.5;"/>
   </g>
   <g id="line2d_30">
    <path clip-path="url(#pb55d8f8499)" d="M 61.535795 100.536321 
L 76.974531 158.537777 
L 92.413266 154.201084 
L 107.852001 135.85093 
L 123.290736 163.92945 
L 138.729471 165.682911 
L 154.168207 165.818148 
L 169.606942 164.472931 
L 185.045677 162.122455 
L 200.484412 161.721472 
L 215.923147 160.786849 
L 231.361882 161.208904 
L 246.800618 160.76448 
L 262.239353 160.745614 
L 277.678088 161.392767 
L 293.116823 161.541417 
L 308.555558 154.318744 
L 323.994293 159.504595 
L 339.433029 162.184228 
L 354.871764 162.98358 
L 370.310499 164.712411 
L 385.749234 162.568744 
L 401.187969 156.629752 
L 416.626705 136.173752 
" style="fill:none;stroke:#1b9e77;stroke-linecap:square;stroke-opacity:0.5;stroke-width:1.5;"/>
   </g>
   <g id="line2d_31">
    <path clip-path="url(#pb55d8f8499)" d="M 61.535795 163.903116 
L 76.974531 157.013795 
L 92.413266 157.288769 
L 107.852001 162.65409 
L 123.290736 165.035156 
L 138.729471 165.3815 
L 154.168207 165.327142 
L 169.606942 164.743852 
L 185.045677 163.825968 
L 200.484412 165.020887 
L 215.923147 164.56466 
L 231.361882 163.659751 
L 246.800618 152.998179 
L 262.239353 161.091831 
L 277.678088 159.952214 
L 293.116823 158.278498 
L 308.555558 155.905745 
L 323.994293 142.696121 
L 339.433029 121.008196 
L 354.871764 108.024168 
L 370.310499 149.485392 
L 385.749234 159.478512 
L 401.187969 165.195051 
L 416.626705 165.856727 
" style="fill:none;stroke:#1b9e77;stroke-linecap:square;stroke-opacity:0.5;stroke-width:1.5;"/>
   </g>
   <g id="line2d_32">
    <path clip-path="url(#pb55d8f8499)" d="M 61.535795 164.670484 
L 76.974531 165.89039 
L 92.413266 165.191312 
L 107.852001 158.352379 
L 123.290736 164.478764 
L 138.729471 160.251689 
L 154.168207 161.048993 
L 169.606942 162.452348 
L 185.045677 162.818748 
L 200.484412 163.159879 
L 215.923147 161.184622 
L 231.361882 159.559963 
L 246.800618 159.057915 
L 262.239353 156.19998 
L 277.678088 154.428559 
L 293.116823 18.854908 
L 308.555558 162.641214 
L 323.994293 164.205476 
L 339.433029 165.325486 
L 354.871764 165.41493 
L 370.310499 165.636371 
L 385.749234 165.772077 
L 401.187969 165.84718 
L 416.626705 165.945657 
" style="fill:none;stroke:#1b9e77;stroke-linecap:square;stroke-opacity:0.5;stroke-width:1.5;"/>
   </g>
   <g id="line2d_33">
    <path clip-path="url(#pb55d8f8499)" d="M 61.535795 161.625539 
L 76.974531 164.588822 
L 92.413266 165.431667 
L 107.852001 164.924845 
L 123.290736 165.321842 
L 138.729471 165.723563 
L 154.168207 165.8171 
L 169.606942 165.856226 
L 185.045677 165.585388 
L 200.484412 164.374762 
L 215.923147 164.295083 
L 231.361882 164.951524 
L 246.800618 163.108217 
L 262.239353 163.056312 
L 277.678088 161.089662 
L 293.116823 158.125603 
L 308.555558 140.408152 
L 323.994293 122.382409 
L 339.433029 135.899114 
L 354.871764 115.505907 
L 370.310499 126.212062 
L 385.749234 162.702917 
L 401.187969 165.517822 
L 416.626705 165.884782 
" style="fill:none;stroke:#1b9e77;stroke-linecap:square;stroke-opacity:0.5;stroke-width:1.5;"/>
   </g>
   <g id="line2d_34">
    <path clip-path="url(#pb55d8f8499)" d="M 61.535795 162.57492 
L 76.974531 165.80938 
L 92.413266 165.835898 
L 107.852001 165.75643 
L 123.290736 165.813434 
L 138.729471 165.861761 
L 154.168207 165.862722 
L 169.606942 165.952983 
L 185.045677 165.469846 
L 200.484412 164.148728 
L 215.923147 163.830283 
L 231.361882 159.331323 
L 246.800618 157.629512 
L 262.239353 143.031589 
L 277.678088 122.689951 
L 293.116823 77.008053 
L 308.555558 135.104959 
L 323.994293 157.09386 
L 339.433029 163.800929 
L 354.871764 163.927014 
L 370.310499 164.964467 
L 385.749234 165.339792 
L 401.187969 165.643026 
L 416.626705 165.908458 
" style="fill:none;stroke:#1b9e77;stroke-linecap:square;stroke-opacity:0.5;stroke-width:1.5;"/>
   </g>
   <g id="line2d_35">
    <path clip-path="url(#pb55d8f8499)" d="M 61.535795 165.899341 
L 76.974531 165.628904 
L 92.413266 165.700263 
L 107.852001 165.677177 
L 123.290736 165.427702 
L 138.729471 161.524786 
L 154.168207 154.85357 
L 169.606942 158.979366 
L 185.045677 159.137702 
L 200.484412 157.34346 
L 215.923147 156.536831 
L 231.361882 158.131819 
L 246.800618 157.057616 
L 262.239353 34.018693 
L 277.678088 154.544705 
L 293.116823 159.819558 
L 308.555558 163.969239 
L 323.994293 164.112807 
L 339.433029 164.200881 
L 354.871764 164.97085 
L 370.310499 165.287877 
L 385.749234 165.053225 
L 401.187969 165.134712 
L 416.626705 165.378242 
" style="fill:none;stroke:#1b9e77;stroke-linecap:square;stroke-opacity:0.5;stroke-width:1.5;"/>
   </g>
   <g id="line2d_36">
    <path clip-path="url(#pb55d8f8499)" d="M 61.535795 164.136005 
L 76.974531 165.928184 
L 92.413266 165.593644 
L 107.852001 164.944272 
L 123.290736 164.75882 
L 138.729471 164.473662 
L 154.168207 162.810386 
L 169.606942 162.771051 
L 185.045677 162.924729 
L 200.484412 140.181602 
L 215.923147 37.092578 
L 231.361882 145.865239 
L 246.800618 164.05287 
L 262.239353 162.448549 
L 277.678088 162.844939 
L 293.116823 162.303852 
L 308.555558 162.774298 
L 323.994293 163.109117 
L 339.433029 163.261635 
L 354.871764 161.938241 
L 370.310499 161.544244 
L 385.749234 163.824618 
L 401.187969 163.857375 
L 416.626705 164.949406 
" style="fill:none;stroke:#1b9e77;stroke-linecap:square;stroke-opacity:0.5;stroke-width:1.5;"/>
   </g>
   <g id="line2d_37">
    <path clip-path="url(#pb55d8f8499)" d="M 61.535795 128.682864 
L 76.974531 95.126189 
L 92.413266 144.939769 
L 107.852001 149.813009 
L 123.290736 156.153464 
L 138.729471 160.761273 
L 154.168207 162.860106 
L 169.606942 162.273886 
L 185.045677 163.361045 
L 200.484412 164.70695 
L 215.923147 165.326003 
L 231.361882 165.239684 
L 246.800618 165.459695 
L 262.239353 165.60432 
L 277.678088 165.709075 
L 293.116823 165.718399 
L 308.555558 165.742472 
L 323.994293 165.732227 
L 339.433029 165.626093 
L 354.871764 165.817795 
L 370.310499 165.777763 
L 385.749234 163.980344 
L 401.187969 137.418188 
L 416.626705 146.558701 
" style="fill:none;stroke:#1b9e77;stroke-linecap:square;stroke-opacity:0.5;stroke-width:1.5;"/>
   </g>
   <g id="line2d_38">
    <path clip-path="url(#pb55d8f8499)" d="M 61.535795 164.834705 
L 76.974531 164.974079 
L 92.413266 165.497081 
L 107.852001 165.37832 
L 123.290736 165.42487 
L 138.729471 165.45472 
L 154.168207 165.317105 
L 169.606942 165.610213 
L 185.045677 165.332333 
L 200.484412 163.843806 
L 215.923147 163.504385 
L 231.361882 160.909641 
L 246.800618 155.417784 
L 262.239353 151.061037 
L 277.678088 152.369499 
L 293.116823 151.613841 
L 308.555558 145.662836 
L 323.994293 137.913961 
L 339.433029 138.714071 
L 354.871764 149.089816 
L 370.310499 156.33756 
L 385.749234 155.184521 
L 401.187969 146.994834 
L 416.626705 141.948292 
" style="fill:none;stroke:#1b9e77;stroke-linecap:square;stroke-opacity:0.5;stroke-width:1.5;"/>
   </g>
   <g id="line2d_39">
    <path clip-path="url(#pb55d8f8499)" d="M 61.535795 165.956562 
L 76.974531 165.717022 
L 92.413266 157.024882 
L 107.852001 164.045753 
L 123.290736 122.66092 
L 138.729471 143.653755 
L 154.168207 160.592748 
L 169.606942 155.076167 
L 185.045677 157.507796 
L 200.484412 124.884516 
L 215.923147 154.508634 
L 231.361882 105.557823 
L 246.800618 160.616003 
L 262.239353 162.858086 
L 277.678088 164.928931 
L 293.116823 165.74178 
L 308.555558 165.851753 
L 323.994293 165.85306 
L 339.433029 165.845257 
L 354.871764 165.853185 
L 370.310499 165.872365 
L 385.749234 165.900417 
L 401.187969 165.92357 
L 416.626705 165.958325 
" style="fill:none;stroke:#1b9e77;stroke-linecap:square;stroke-opacity:0.5;stroke-width:1.5;"/>
   </g>
   <g id="line2d_40">
    <path clip-path="url(#pb55d8f8499)" d="M 61.535795 162.962322 
L 76.974531 165.324881 
L 92.413266 165.866977 
L 107.852001 165.92539 
L 123.290736 165.935098 
L 138.729471 165.771849 
L 154.168207 165.008179 
L 169.606942 165.042499 
L 185.045677 164.673456 
L 200.484412 164.018351 
L 215.923147 162.674147 
L 231.361882 160.666312 
L 246.800618 160.30974 
L 262.239353 98.612542 
L 277.678088 96.802697 
L 293.116823 131.553841 
L 308.555558 152.533883 
L 323.994293 160.678755 
L 339.433029 164.683893 
L 354.871764 164.84666 
L 370.310499 164.723863 
L 385.749234 163.804127 
L 401.187969 160.732443 
L 416.626705 165.23741 
" style="fill:none;stroke:#1b9e77;stroke-linecap:square;stroke-opacity:0.5;stroke-width:1.5;"/>
   </g>
   <g id="line2d_41">
    <path clip-path="url(#pb55d8f8499)" d="M 61.535795 53.734111 
L 76.974531 158.233188 
L 92.413266 163.316154 
L 107.852001 133.356443 
L 123.290736 125.037013 
L 138.729471 165.692035 
L 154.168207 165.872284 
L 169.606942 165.775545 
L 185.045677 163.262846 
L 200.484412 160.256686 
L 215.923147 164.964522 
L 231.361882 165.746986 
L 246.800618 164.810462 
L 262.239353 162.736359 
L 277.678088 163.861304 
L 293.116823 160.26558 
L 308.555558 163.085406 
L 323.994293 164.143787 
L 339.433029 165.240314 
L 354.871764 165.433035 
L 370.310499 165.837473 
L 385.749234 165.871031 
L 401.187969 165.90174 
L 416.626705 165.955014 
" style="fill:none;stroke:#1b9e77;stroke-linecap:square;stroke-opacity:0.5;stroke-width:1.5;"/>
   </g>
   <g id="line2d_42">
    <path clip-path="url(#pb55d8f8499)" d="M 61.535795 157.243281 
L 76.974531 131.814902 
L 92.413266 120.024934 
L 107.852001 127.472816 
L 123.290736 141.102927 
L 138.729471 154.372363 
L 154.168207 157.127167 
L 169.606942 155.320529 
L 185.045677 162.84311 
L 200.484412 165.029676 
L 215.923147 165.591138 
L 231.361882 165.413858 
L 246.800618 165.56822 
L 262.239353 165.730072 
L 277.678088 165.840809 
L 293.116823 165.867995 
L 308.555558 165.888787 
L 323.994293 165.90302 
L 339.433029 165.81608 
L 354.871764 165.937696 
L 370.310499 165.951577 
L 385.749234 141.504134 
L 401.187969 158.574064 
L 416.626705 162.450164 
" style="fill:none;stroke:#1b9e77;stroke-linecap:square;stroke-opacity:0.5;stroke-width:1.5;"/>
   </g>
   <g id="line2d_43">
    <path clip-path="url(#pb55d8f8499)" d="M 61.535795 148.751824 
L 76.974531 163.887048 
L 92.413266 160.444165 
L 107.852001 155.142406 
L 123.290736 147.205411 
L 138.729471 142.885949 
L 154.168207 143.375045 
L 169.606942 83.500168 
L 185.045677 131.338132 
L 200.484412 162.618932 
L 215.923147 165.332816 
L 231.361882 164.651255 
L 246.800618 164.850403 
L 262.239353 165.552662 
L 277.678088 165.804584 
L 293.116823 165.828498 
L 308.555558 165.86749 
L 323.994293 165.886627 
L 339.433029 165.885474 
L 354.871764 165.880422 
L 370.310499 165.893849 
L 385.749234 165.913638 
L 401.187969 165.932646 
L 416.626705 165.959877 
" style="fill:none;stroke:#1b9e77;stroke-linecap:square;stroke-opacity:0.5;stroke-width:1.5;"/>
   </g>
   <g id="line2d_44">
    <path clip-path="url(#pb55d8f8499)" d="M 61.535795 165.080199 
L 76.974531 165.019358 
L 92.413266 165.484765 
L 107.852001 165.467083 
L 123.290736 165.532709 
L 138.729471 165.501426 
L 154.168207 165.535706 
L 169.606942 165.760744 
L 185.045677 165.76901 
L 200.484412 165.715587 
L 215.923147 160.114917 
L 231.361882 155.292671 
L 246.800618 138.75803 
L 262.239353 145.339854 
L 277.678088 151.695963 
L 293.116823 153.650623 
L 308.555558 147.376702 
L 323.994293 138.69756 
L 339.433029 136.537033 
L 354.871764 148.099861 
L 370.310499 143.701713 
L 385.749234 153.920599 
L 401.187969 164.73708 
L 416.626705 165.600117 
" style="fill:none;stroke:#1b9e77;stroke-linecap:square;stroke-opacity:0.5;stroke-width:1.5;"/>
   </g>
   <g id="line2d_45">
    <path clip-path="url(#pb55d8f8499)" d="M 61.535795 162.028404 
L 76.974531 158.828531 
L 92.413266 162.821627 
L 107.852001 164.24985 
L 123.290736 134.690668 
L 138.729471 150.723349 
L 154.168207 154.899689 
L 169.606942 138.369694 
L 185.045677 153.302832 
L 200.484412 164.065948 
L 215.923147 165.498246 
L 231.361882 165.788898 
L 246.800618 165.314248 
L 262.239353 160.517121 
L 277.678088 156.443465 
L 293.116823 154.461944 
L 308.555558 148.340175 
L 323.994293 154.225334 
L 339.433029 160.257851 
L 354.871764 140.4338 
L 370.310499 145.52009 
L 385.749234 165.74068 
L 401.187969 165.913835 
L 416.626705 165.953035 
" style="fill:none;stroke:#1b9e77;stroke-linecap:square;stroke-opacity:0.5;stroke-width:1.5;"/>
   </g>
   <g id="line2d_46">
    <path clip-path="url(#pb55d8f8499)" d="M 61.535795 165.107007 
L 76.974531 164.633837 
L 92.413266 164.883547 
L 107.852001 164.176553 
L 123.290736 163.379414 
L 138.729471 164.598543 
L 154.168207 165.292538 
L 169.606942 165.466566 
L 185.045677 165.512741 
L 200.484412 165.613413 
L 215.923147 164.62289 
L 231.361882 164.886114 
L 246.800618 160.958974 
L 262.239353 131.538603 
L 277.678088 154.396758 
L 293.116823 158.617425 
L 308.555558 152.222931 
L 323.994293 138.368542 
L 339.433029 124.749535 
L 354.871764 162.112236 
L 370.310499 134.970977 
L 385.749234 131.560424 
L 401.187969 164.961914 
L 416.626705 165.757827 
" style="fill:none;stroke:#1b9e77;stroke-linecap:square;stroke-opacity:0.5;stroke-width:1.5;"/>
   </g>
   <g id="line2d_47">
    <path clip-path="url(#pb55d8f8499)" d="M 61.535795 151.445389 
L 76.974531 122.259381 
L 92.413266 141.397504 
L 107.852001 144.265577 
L 123.290736 145.544904 
L 138.729471 158.95683 
L 154.168207 161.74673 
L 169.606942 162.979395 
L 185.045677 162.969949 
L 200.484412 162.993204 
L 215.923147 161.589615 
L 231.361882 159.310143 
L 246.800618 157.955122 
L 262.239353 155.984479 
L 277.678088 157.911386 
L 293.116823 157.990186 
L 308.555558 160.054536 
L 323.994293 157.923991 
L 339.433029 156.041225 
L 354.871764 160.191255 
L 370.310499 162.524856 
L 385.749234 164.795241 
L 401.187969 165.62785 
L 416.626705 165.930569 
" style="fill:none;stroke:#1b9e77;stroke-linecap:square;stroke-opacity:0.5;stroke-width:1.5;"/>
   </g>
   <g id="line2d_48">
    <path clip-path="url(#pb55d8f8499)" d="M 61.535795 152.119984 
L 76.974531 150.781623 
L 92.413266 156.595065 
L 107.852001 43.924269 
L 123.290736 145.234649 
L 138.729471 164.756262 
L 154.168207 165.312237 
L 169.606942 158.72075 
L 185.045677 154.267277 
L 200.484412 163.625557 
L 215.923147 165.133248 
L 231.361882 165.201697 
L 246.800618 164.399264 
L 262.239353 157.609524 
L 277.678088 160.478135 
L 293.116823 164.987318 
L 308.555558 165.403118 
L 323.994293 165.358097 
L 339.433029 165.531172 
L 354.871764 165.574087 
L 370.310499 165.732355 
L 385.749234 165.825091 
L 401.187969 165.87337 
L 416.626705 165.945165 
" style="fill:none;stroke:#1b9e77;stroke-linecap:square;stroke-opacity:0.5;stroke-width:1.5;"/>
   </g>
   <g id="line2d_49">
    <path clip-path="url(#pb55d8f8499)" d="M 61.535795 146.50632 
L 76.974531 144.243612 
L 92.413266 156.700902 
L 107.852001 156.509667 
L 123.290736 155.810678 
L 138.729471 155.906367 
L 154.168207 161.432802 
L 169.606942 163.656306 
L 185.045677 163.296167 
L 200.484412 159.487118 
L 215.923147 151.994947 
L 231.361882 160.218227 
L 246.800618 162.663252 
L 262.239353 161.504089 
L 277.678088 155.975694 
L 293.116823 151.263496 
L 308.555558 159.899747 
L 323.994293 164.716954 
L 339.433029 165.424619 
L 354.871764 156.497304 
L 370.310499 108.339047 
L 385.749234 164.56147 
L 401.187969 165.840546 
L 416.626705 165.939983 
" style="fill:none;stroke:#1b9e77;stroke-linecap:square;stroke-opacity:0.5;stroke-width:1.5;"/>
   </g>
   <g id="line2d_50">
    <path clip-path="url(#pb55d8f8499)" d="M 61.535795 162.140335 
L 76.974531 157.302098 
L 92.413266 153.464959 
L 107.852001 154.098224 
L 123.290736 162.19755 
L 138.729471 165.573377 
L 154.168207 165.715361 
L 169.606942 165.153088 
L 185.045677 161.564982 
L 200.484412 161.317648 
L 215.923147 159.142537 
L 231.361882 164.298378 
L 246.800618 162.536265 
L 262.239353 164.058989 
L 277.678088 164.393363 
L 293.116823 161.132355 
L 308.555558 77.161775 
L 323.994293 153.460493 
L 339.433029 155.993059 
L 354.871764 132.868119 
L 370.310499 157.649543 
L 385.749234 165.550252 
L 401.187969 165.908605 
L 416.626705 165.70796 
" style="fill:none;stroke:#1b9e77;stroke-linecap:square;stroke-opacity:0.5;stroke-width:1.5;"/>
   </g>
   <g id="line2d_51">
    <path clip-path="url(#pb55d8f8499)" d="M 61.535795 165.333777 
L 76.974531 165.431652 
L 92.413266 165.428374 
L 107.852001 156.728804 
L 123.290736 154.840076 
L 138.729471 162.410512 
L 154.168207 165.878721 
L 169.606942 165.677438 
L 185.045677 164.678022 
L 200.484412 163.999641 
L 215.923147 164.923906 
L 231.361882 163.272922 
L 246.800618 160.473754 
L 262.239353 152.289634 
L 277.678088 158.720878 
L 293.116823 162.454849 
L 308.555558 158.978227 
L 323.994293 149.44758 
L 339.433029 46.594919 
L 354.871764 163.957899 
L 370.310499 164.322367 
L 385.749234 159.549333 
L 401.187969 160.622575 
L 416.626705 162.373461 
" style="fill:none;stroke:#1b9e77;stroke-linecap:square;stroke-opacity:0.5;stroke-width:1.5;"/>
   </g>
   <g id="line2d_52">
    <path clip-path="url(#pb55d8f8499)" d="M 61.535795 163.468456 
L 76.974531 160.346411 
L 92.413266 158.529758 
L 107.852001 153.916551 
L 123.290736 138.392275 
L 138.729471 129.867843 
L 154.168207 157.269424 
L 169.606942 114.898433 
L 185.045677 105.37083 
L 200.484412 165.387725 
L 215.923147 165.205427 
L 231.361882 160.061369 
L 246.800618 162.293164 
L 262.239353 165.407345 
L 277.678088 165.669849 
L 293.116823 165.727314 
L 308.555558 165.769239 
L 323.994293 165.762331 
L 339.433029 165.751555 
L 354.871764 165.783679 
L 370.310499 165.818724 
L 385.749234 165.852944 
L 401.187969 165.886149 
L 416.626705 165.952513 
" style="fill:none;stroke:#1b9e77;stroke-linecap:square;stroke-opacity:0.5;stroke-width:1.5;"/>
   </g>
   <g id="line2d_53">
    <path clip-path="url(#pb55d8f8499)" d="M 61.535795 165.915141 
L 76.974531 165.691935 
L 92.413266 165.63639 
L 107.852001 165.673746 
L 123.290736 165.760795 
L 138.729471 165.882265 
L 154.168207 165.622734 
L 169.606942 121.653738 
L 185.045677 121.490009 
L 200.484412 149.483778 
L 215.923147 105.392069 
L 231.361882 149.537769 
L 246.800618 160.14271 
L 262.239353 163.361109 
L 277.678088 165.040036 
L 293.116823 164.860041 
L 308.555558 164.839273 
L 323.994293 165.20104 
L 339.433029 165.532072 
L 354.871764 165.675728 
L 370.310499 165.602405 
L 385.749234 165.445087 
L 401.187969 153.131479 
L 416.626705 151.817961 
" style="fill:none;stroke:#1b9e77;stroke-linecap:square;stroke-opacity:0.5;stroke-width:1.5;"/>
   </g>
   <g id="line2d_54">
    <path clip-path="url(#pb55d8f8499)" d="M 61.535795 165.521623 
L 76.974531 165.815366 
L 92.413266 165.86007 
L 107.852001 165.840002 
L 123.290736 165.748667 
L 138.729471 165.13988 
L 154.168207 162.684921 
L 169.606942 163.813947 
L 185.045677 164.923001 
L 200.484412 164.115241 
L 215.923147 154.446692 
L 231.361882 153.734116 
L 246.800618 113.122055 
L 262.239353 117.908373 
L 277.678088 156.230329 
L 293.116823 152.029388 
L 308.555558 111.105758 
L 323.994293 160.247463 
L 339.433029 165.444437 
L 354.871764 161.266396 
L 370.310499 165.646013 
L 385.749234 165.859719 
L 401.187969 165.928028 
L 416.626705 165.957834 
" style="fill:none;stroke:#1b9e77;stroke-linecap:square;stroke-opacity:0.5;stroke-width:1.5;"/>
   </g>
   <g id="line2d_55">
    <path clip-path="url(#pb55d8f8499)" d="M 61.535795 154.221738 
L 76.974531 138.850099 
L 92.413266 133.234998 
L 107.852001 91.520876 
L 123.290736 161.905641 
L 138.729471 162.910092 
L 154.168207 164.639441 
L 169.606942 165.093298 
L 185.045677 165.48762 
L 200.484412 165.402113 
L 215.923147 165.317162 
L 231.361882 165.320962 
L 246.800618 165.454162 
L 262.239353 165.694256 
L 277.678088 165.414363 
L 293.116823 159.553538 
L 308.555558 134.128009 
L 323.994293 161.008276 
L 339.433029 161.94549 
L 354.871764 161.904055 
L 370.310499 163.0976 
L 385.749234 162.410622 
L 401.187969 160.394291 
L 416.626705 163.480612 
" style="fill:none;stroke:#1b9e77;stroke-linecap:square;stroke-opacity:0.5;stroke-width:1.5;"/>
   </g>
   <g id="line2d_56">
    <path clip-path="url(#pb55d8f8499)" d="M 61.535795 106.782372 
L 76.974531 158.057009 
L 92.413266 151.168666 
L 107.852001 99.42845 
L 123.290736 113.061756 
L 138.729471 162.796392 
L 154.168207 165.200924 
L 169.606942 165.261236 
L 185.045677 165.438031 
L 200.484412 165.326633 
L 215.923147 165.250727 
L 231.361882 165.37744 
L 246.800618 165.517458 
L 262.239353 165.437559 
L 277.678088 165.429231 
L 293.116823 165.506507 
L 308.555558 165.555354 
L 323.994293 165.599123 
L 339.433029 165.616362 
L 354.871764 165.640518 
L 370.310499 165.632359 
L 385.749234 165.781845 
L 401.187969 165.375654 
L 416.626705 154.147713 
" style="fill:none;stroke:#1b9e77;stroke-linecap:square;stroke-opacity:0.5;stroke-width:1.5;"/>
   </g>
   <g id="line2d_57">
    <path clip-path="url(#pb55d8f8499)" d="M 61.535795 163.371811 
L 76.974531 158.71555 
L 92.413266 164.228015 
L 107.852001 165.226662 
L 123.290736 165.509496 
L 138.729471 165.257871 
L 154.168207 164.790891 
L 169.606942 164.872776 
L 185.045677 165.133365 
L 200.484412 165.205803 
L 215.923147 164.918976 
L 231.361882 163.886279 
L 246.800618 162.878621 
L 262.239353 163.726807 
L 277.678088 162.303959 
L 293.116823 162.981879 
L 308.555558 157.893695 
L 323.994293 146.212984 
L 339.433029 132.611524 
L 354.871764 119.164912 
L 370.310499 125.41843 
L 385.749234 141.969196 
L 401.187969 152.052207 
L 416.626705 160.057607 
" style="fill:none;stroke:#1b9e77;stroke-linecap:square;stroke-opacity:0.5;stroke-width:1.5;"/>
   </g>
   <g id="line2d_58">
    <path clip-path="url(#pb55d8f8499)" d="M 61.535795 129.206083 
L 76.974531 147.819068 
L 92.413266 160.35682 
L 107.852001 158.411656 
L 123.290736 159.348466 
L 138.729471 165.092543 
L 154.168207 165.812822 
L 169.606942 165.919159 
L 185.045677 165.888607 
L 200.484412 162.963055 
L 215.923147 150.036066 
L 231.361882 150.258907 
L 246.800618 151.433182 
L 262.239353 139.007036 
L 277.678088 113.560118 
L 293.116823 152.562109 
L 308.555558 163.163923 
L 323.994293 164.569649 
L 339.433029 165.304221 
L 354.871764 165.140729 
L 370.310499 165.363759 
L 385.749234 165.568727 
L 401.187969 165.701131 
L 416.626705 165.901479 
" style="fill:none;stroke:#1b9e77;stroke-linecap:square;stroke-opacity:0.5;stroke-width:1.5;"/>
   </g>
   <g id="line2d_59">
    <path clip-path="url(#pb55d8f8499)" d="M 61.535795 164.368505 
L 76.974531 164.799138 
L 92.413266 165.232374 
L 107.852001 165.314538 
L 123.290736 157.838922 
L 138.729471 162.182213 
L 154.168207 153.76243 
L 169.606942 165.822225 
L 185.045677 165.8821 
L 200.484412 162.438015 
L 215.923147 148.195068 
L 231.361882 84.74851 
L 246.800618 108.116895 
L 262.239353 132.237859 
L 277.678088 165.331451 
L 293.116823 165.466522 
L 308.555558 165.745265 
L 323.994293 165.780208 
L 339.433029 165.78851 
L 354.871764 165.78598 
L 370.310499 165.82349 
L 385.749234 165.867073 
L 401.187969 165.905674 
L 416.626705 165.95634 
" style="fill:none;stroke:#1b9e77;stroke-linecap:square;stroke-opacity:0.5;stroke-width:1.5;"/>
   </g>
   <g id="line2d_60">
    <path clip-path="url(#pb55d8f8499)" d="M 61.535795 165.941878 
L 76.974531 165.844434 
L 92.413266 165.859163 
L 107.852001 165.844826 
L 123.290736 165.518789 
L 138.729471 165.906603 
L 154.168207 165.901716 
L 169.606942 162.231495 
L 185.045677 153.42838 
L 200.484412 163.001101 
L 215.923147 30.673388 
L 231.361882 141.234039 
L 246.800618 161.253431 
L 262.239353 143.220683 
L 277.678088 154.486487 
L 293.116823 163.281831 
L 308.555558 165.140579 
L 323.994293 165.429578 
L 339.433029 165.657659 
L 354.871764 165.495301 
L 370.310499 165.494394 
L 385.749234 165.880852 
L 401.187969 165.921205 
L 416.626705 165.741504 
" style="fill:none;stroke:#1b9e77;stroke-linecap:square;stroke-opacity:0.5;stroke-width:1.5;"/>
   </g>
   <g id="line2d_61">
    <path clip-path="url(#pb55d8f8499)" d="M 61.535795 165.878148 
L 76.974531 165.526844 
L 92.413266 165.42272 
L 107.852001 165.396369 
L 123.290736 164.132187 
L 138.729471 165.434342 
L 154.168207 164.117418 
L 169.606942 164.448899 
L 185.045677 163.925713 
L 200.484412 163.806951 
L 215.923147 159.456255 
L 231.361882 162.499669 
L 246.800618 155.304405 
L 262.239353 155.313923 
L 277.678088 158.81947 
L 293.116823 159.593579 
L 308.555558 159.303629 
L 323.994293 157.099631 
L 339.433029 153.48447 
L 354.871764 157.897162 
L 370.310499 152.457612 
L 385.749234 133.720856 
L 401.187969 153.75204 
L 416.626705 91.59702 
" style="fill:none;stroke:#1b9e77;stroke-linecap:square;stroke-opacity:0.5;stroke-width:1.5;"/>
   </g>
   <g id="line2d_62">
    <path clip-path="url(#pb55d8f8499)" d="M 61.535795 158.219616 
L 76.974531 154.770503 
L 92.413266 156.060379 
L 107.852001 154.303014 
L 123.290736 155.375945 
L 138.729471 155.672944 
L 154.168207 155.778411 
L 169.606942 157.667901 
L 185.045677 138.200456 
L 200.484412 130.291224 
L 215.923147 136.180731 
L 231.361882 151.515631 
L 246.800618 141.309132 
L 262.239353 160.063225 
L 277.678088 165.474295 
L 293.116823 165.25568 
L 308.555558 165.297478 
L 323.994293 165.31249 
L 339.433029 165.51642 
L 354.871764 165.672679 
L 370.310499 165.764431 
L 385.749234 165.744833 
L 401.187969 164.623546 
L 416.626705 164.318359 
" style="fill:none;stroke:#1b9e77;stroke-linecap:square;stroke-opacity:0.5;stroke-width:1.5;"/>
   </g>
   <g id="line2d_63">
    <path clip-path="url(#pb55d8f8499)" d="M 61.535795 164.733304 
L 76.974531 161.318079 
L 92.413266 165.370945 
L 107.852001 165.718223 
L 123.290736 165.805706 
L 138.729471 165.954244 
L 154.168207 163.736202 
L 169.606942 163.845469 
L 185.045677 163.122877 
L 200.484412 162.928051 
L 215.923147 162.155762 
L 231.361882 160.425735 
L 246.800618 161.585858 
L 262.239353 162.96006 
L 277.678088 96.195026 
L 293.116823 62.98907 
L 308.555558 158.405947 
L 323.994293 161.117343 
L 339.433029 164.139073 
L 354.871764 163.685185 
L 370.310499 165.239997 
L 385.749234 165.546362 
L 401.187969 165.678574 
L 416.626705 165.732228 
" style="fill:none;stroke:#1b9e77;stroke-linecap:square;stroke-opacity:0.5;stroke-width:1.5;"/>
   </g>
   <g id="line2d_64">
    <path clip-path="url(#pb55d8f8499)" d="M 61.535795 160.434555 
L 76.974531 160.205297 
L 92.413266 142.660779 
L 107.852001 140.381363 
L 123.290736 165.305119 
L 138.729471 165.92189 
L 154.168207 134.733066 
L 169.606942 158.207599 
L 185.045677 147.15832 
L 200.484412 145.377557 
L 215.923147 138.410588 
L 231.361882 141.783565 
L 246.800618 155.562159 
L 262.239353 153.880301 
L 277.678088 160.937449 
L 293.116823 163.508735 
L 308.555558 164.777953 
L 323.994293 165.238008 
L 339.433029 165.579254 
L 354.871764 165.436699 
L 370.310499 165.434599 
L 385.749234 165.700766 
L 401.187969 165.823694 
L 416.626705 165.930003 
" style="fill:none;stroke:#1b9e77;stroke-linecap:square;stroke-opacity:0.5;stroke-width:1.5;"/>
   </g>
   <g id="line2d_65">
    <path clip-path="url(#pb55d8f8499)" d="M 61.535795 165.400093 
L 76.974531 165.119485 
L 92.413266 165.597996 
L 107.852001 165.689043 
L 123.290736 165.631553 
L 138.729471 165.602997 
L 154.168207 159.494854 
L 169.606942 160.858995 
L 185.045677 156.511261 
L 200.484412 153.713517 
L 215.923147 143.05884 
L 231.361882 28.20347 
L 246.800618 151.776478 
L 262.239353 159.957378 
L 277.678088 163.138683 
L 293.116823 163.442623 
L 308.555558 164.974654 
L 323.994293 165.44791 
L 339.433029 165.695619 
L 354.871764 165.65292 
L 370.310499 165.697019 
L 385.749234 165.855125 
L 401.187969 165.911055 
L 416.626705 165.957744 
" style="fill:none;stroke:#1b9e77;stroke-linecap:square;stroke-opacity:0.5;stroke-width:1.5;"/>
   </g>
   <g id="line2d_66">
    <path clip-path="url(#pb55d8f8499)" d="M 61.535795 147.971721 
L 76.974531 163.276121 
L 92.413266 164.951372 
L 107.852001 164.602209 
L 123.290736 165.046961 
L 138.729471 165.218296 
L 154.168207 165.480378 
L 169.606942 165.462355 
L 185.045677 165.436947 
L 200.484412 165.506296 
L 215.923147 165.580644 
L 231.361882 165.667309 
L 246.800618 165.733799 
L 262.239353 165.660774 
L 277.678088 165.544875 
L 293.116823 165.785787 
L 308.555558 165.808987 
L 323.994293 165.79979 
L 339.433029 147.044323 
L 354.871764 154.97712 
L 370.310499 155.232991 
L 385.749234 158.469962 
L 401.187969 87.97619 
L 416.626705 96.154111 
" style="fill:none;stroke:#1b9e77;stroke-linecap:square;stroke-opacity:0.5;stroke-width:1.5;"/>
   </g>
   <g id="line2d_67">
    <path clip-path="url(#pb55d8f8499)" d="M 61.535795 162.661461 
L 76.974531 149.385302 
L 92.413266 161.426513 
L 107.852001 164.659515 
L 123.290736 164.669068 
L 138.729471 151.634533 
L 154.168207 144.558335 
L 169.606942 158.837663 
L 185.045677 163.529871 
L 200.484412 164.813532 
L 215.923147 158.205309 
L 231.361882 148.052009 
L 246.800618 125.192476 
L 262.239353 165.68292 
L 277.678088 165.853122 
L 293.116823 155.805737 
L 308.555558 157.957616 
L 323.994293 158.447673 
L 339.433029 140.963001 
L 354.871764 163.84744 
L 370.310499 153.776021 
L 385.749234 160.62051 
L 401.187969 157.816663 
L 416.626705 159.993026 
" style="fill:none;stroke:#1b9e77;stroke-linecap:square;stroke-opacity:0.5;stroke-width:1.5;"/>
   </g>
   <g id="line2d_68">
    <path clip-path="url(#pb55d8f8499)" d="M 61.535795 158.934561 
L 76.974531 152.104021 
L 92.413266 161.266563 
L 107.852001 154.920856 
L 123.290736 156.934888 
L 138.729471 164.2048 
L 154.168207 164.814386 
L 169.606942 164.13715 
L 185.045677 164.986594 
L 200.484412 165.549904 
L 215.923147 165.138257 
L 231.361882 164.834454 
L 246.800618 164.652097 
L 262.239353 164.111486 
L 277.678088 163.022954 
L 293.116823 162.661894 
L 308.555558 163.605534 
L 323.994293 155.718474 
L 339.433029 104.889472 
L 354.871764 157.908516 
L 370.310499 164.89431 
L 385.749234 159.404904 
L 401.187969 134.085394 
L 416.626705 125.607849 
" style="fill:none;stroke:#1b9e77;stroke-linecap:square;stroke-opacity:0.5;stroke-width:1.5;"/>
   </g>
   <g id="line2d_69">
    <path clip-path="url(#pb55d8f8499)" d="M 61.535795 160.594235 
L 76.974531 145.571883 
L 92.413266 127.285102 
L 107.852001 112.264274 
L 123.290736 113.058798 
L 138.729471 161.102788 
L 154.168207 163.991874 
L 169.606942 158.903428 
L 185.045677 163.123647 
L 200.484412 165.146733 
L 215.923147 165.638516 
L 231.361882 165.73059 
L 246.800618 165.746287 
L 262.239353 165.714655 
L 277.678088 162.798609 
L 293.116823 165.886821 
L 308.555558 165.226953 
L 323.994293 162.490459 
L 339.433029 163.5368 
L 354.871764 161.989519 
L 370.310499 161.161721 
L 385.749234 160.015281 
L 401.187969 157.665243 
L 416.626705 163.745099 
" style="fill:none;stroke:#1b9e77;stroke-linecap:square;stroke-opacity:0.5;stroke-width:1.5;"/>
   </g>
   <g id="line2d_70">
    <path clip-path="url(#pb55d8f8499)" d="M 61.535795 165.931317 
L 76.974531 165.746855 
L 92.413266 165.738421 
L 107.852001 165.706486 
L 123.290736 165.746509 
L 138.729471 165.797688 
L 154.168207 165.838943 
L 169.606942 165.826289 
L 185.045677 165.704983 
L 200.484412 165.798111 
L 215.923147 165.600486 
L 231.361882 165.866433 
L 246.800618 138.3018 
L 262.239353 141.470781 
L 277.678088 151.759476 
L 293.116823 152.46042 
L 308.555558 143.236967 
L 323.994293 116.82678 
L 339.433029 140.059209 
L 354.871764 165.101421 
L 370.310499 159.599041 
L 385.749234 153.313394 
L 401.187969 148.319693 
L 416.626705 158.637818 
" style="fill:none;stroke:#1b9e77;stroke-linecap:square;stroke-opacity:0.5;stroke-width:1.5;"/>
   </g>
   <g id="line2d_71">
    <path clip-path="url(#pb55d8f8499)" d="M 61.535795 162.248016 
L 76.974531 153.567609 
L 92.413266 159.455212 
L 107.852001 160.569064 
L 123.290736 44.755038 
L 138.729471 139.965979 
L 154.168207 163.629105 
L 169.606942 163.622339 
L 185.045677 164.469576 
L 200.484412 164.652078 
L 215.923147 165.182367 
L 231.361882 165.306793 
L 246.800618 165.303997 
L 262.239353 165.26895 
L 277.678088 162.002373 
L 293.116823 146.103401 
L 308.555558 162.452683 
L 323.994293 165.227681 
L 339.433029 164.849089 
L 354.871764 156.949708 
L 370.310499 165.060969 
L 385.749234 165.873418 
L 401.187969 165.91655 
L 416.626705 165.957318 
" style="fill:none;stroke:#1b9e77;stroke-linecap:square;stroke-opacity:0.5;stroke-width:1.5;"/>
   </g>
   <g id="line2d_72">
    <path clip-path="url(#pb55d8f8499)" d="M 61.535795 46.639643 
L 76.974531 163.830747 
L 92.413266 163.990713 
L 107.852001 164.992957 
L 123.290736 165.07818 
L 138.729471 94.677583 
L 154.168207 154.16075 
L 169.606942 162.558911 
L 185.045677 163.873999 
L 200.484412 163.340865 
L 215.923147 164.217529 
L 231.361882 164.523549 
L 246.800618 164.95769 
L 262.239353 165.035306 
L 277.678088 165.316179 
L 293.116823 165.323597 
L 308.555558 165.549354 
L 323.994293 165.696331 
L 339.433029 165.794559 
L 354.871764 165.817475 
L 370.310499 165.843902 
L 385.749234 165.559404 
L 401.187969 165.802415 
L 416.626705 165.807686 
" style="fill:none;stroke:#1b9e77;stroke-linecap:square;stroke-opacity:0.5;stroke-width:1.5;"/>
   </g>
   <g id="line2d_73">
    <path clip-path="url(#pb55d8f8499)" d="M 61.535795 164.612692 
L 76.974531 164.5033 
L 92.413266 165.334732 
L 107.852001 165.320951 
L 123.290736 165.486172 
L 138.729471 165.767198 
L 154.168207 165.852716 
L 169.606942 165.862232 
L 185.045677 165.717048 
L 200.484412 165.895081 
L 215.923147 165.749286 
L 231.361882 164.177343 
L 246.800618 156.599144 
L 262.239353 158.760503 
L 277.678088 123.004007 
L 293.116823 158.871733 
L 308.555558 163.216004 
L 323.994293 134.23794 
L 339.433029 104.49103 
L 354.871764 137.976358 
L 370.310499 156.256058 
L 385.749234 153.285828 
L 401.187969 161.741776 
L 416.626705 165.670189 
" style="fill:none;stroke:#1b9e77;stroke-linecap:square;stroke-opacity:0.5;stroke-width:1.5;"/>
   </g>
   <g id="line2d_74">
    <path clip-path="url(#pb55d8f8499)" d="M 61.535795 165.611053 
L 76.974531 163.817127 
L 92.413266 161.209658 
L 107.852001 162.312378 
L 123.290736 164.686251 
L 138.729471 165.781647 
L 154.168207 164.581724 
L 169.606942 155.832468 
L 185.045677 160.179602 
L 200.484412 158.530345 
L 215.923147 131.094121 
L 231.361882 102.057423 
L 246.800618 159.073267 
L 262.239353 161.182237 
L 277.678088 127.198372 
L 293.116823 146.214832 
L 308.555558 161.37353 
L 323.994293 159.472371 
L 339.433029 162.058055 
L 354.871764 164.152642 
L 370.310499 165.008288 
L 385.749234 165.409739 
L 401.187969 165.647198 
L 416.626705 165.90498 
" style="fill:none;stroke:#1b9e77;stroke-linecap:square;stroke-opacity:0.5;stroke-width:1.5;"/>
   </g>
   <g id="line2d_75">
    <path clip-path="url(#pb55d8f8499)" d="M 61.535795 165.924442 
L 76.974531 164.969595 
L 92.413266 164.899434 
L 107.852001 164.192533 
L 123.290736 159.259718 
L 138.729471 162.224881 
L 154.168207 163.459457 
L 169.606942 163.83316 
L 185.045677 152.673409 
L 200.484412 121.344733 
L 215.923147 136.936323 
L 231.361882 153.213948 
L 246.800618 164.831838 
L 262.239353 163.259991 
L 277.678088 151.306987 
L 293.116823 165.514473 
L 308.555558 159.374267 
L 323.994293 162.536603 
L 339.433029 158.66601 
L 354.871764 154.649481 
L 370.310499 141.802353 
L 385.749234 144.96157 
L 401.187969 155.133057 
L 416.626705 163.421049 
" style="fill:none;stroke:#1b9e77;stroke-linecap:square;stroke-opacity:0.5;stroke-width:1.5;"/>
   </g>
   <g id="line2d_76">
    <path clip-path="url(#pb55d8f8499)" d="M 61.535795 164.329519 
L 76.974531 140.008168 
L 92.413266 122.604004 
L 107.852001 144.144855 
L 123.290736 152.235236 
L 138.729471 147.929526 
L 154.168207 156.198829 
L 169.606942 163.396261 
L 185.045677 164.742119 
L 200.484412 165.121669 
L 215.923147 162.368333 
L 231.361882 154.733059 
L 246.800618 121.880782 
L 262.239353 161.766788 
L 277.678088 160.894375 
L 293.116823 163.854773 
L 308.555558 165.087939 
L 323.994293 164.863668 
L 339.433029 164.154655 
L 354.871764 163.714897 
L 370.310499 163.71402 
L 385.749234 163.162016 
L 401.187969 162.451423 
L 416.626705 165.032403 
" style="fill:none;stroke:#1b9e77;stroke-linecap:square;stroke-opacity:0.5;stroke-width:1.5;"/>
   </g>
   <g id="line2d_77">
    <path clip-path="url(#pb55d8f8499)" d="M 61.535795 165.942623 
L 76.974531 165.832999 
L 92.413266 165.810553 
L 107.852001 165.765065 
L 123.290736 165.712899 
L 138.729471 165.902161 
L 154.168207 165.937393 
L 169.606942 163.831212 
L 185.045677 139.848704 
L 200.484412 157.586704 
L 215.923147 160.852797 
L 231.361882 161.616659 
L 246.800618 162.661079 
L 262.239353 162.435059 
L 277.678088 161.494288 
L 293.116823 160.942026 
L 308.555558 158.428615 
L 323.994293 158.871329 
L 339.433029 160.166649 
L 354.871764 162.274826 
L 370.310499 164.329909 
L 385.749234 100.063591 
L 401.187969 128.683839 
L 416.626705 133.398343 
" style="fill:none;stroke:#1b9e77;stroke-linecap:square;stroke-opacity:0.5;stroke-width:1.5;"/>
   </g>
   <g id="line2d_78">
    <path clip-path="url(#pb55d8f8499)" d="M 61.535795 34.974616 
L 76.974531 149.237833 
L 92.413266 161.732557 
L 107.852001 162.816436 
L 123.290736 117.124114 
L 138.729471 159.913245 
L 154.168207 163.896217 
L 169.606942 164.478778 
L 185.045677 165.172093 
L 200.484412 164.345965 
L 215.923147 164.558773 
L 231.361882 164.96071 
L 246.800618 165.163495 
L 262.239353 164.999806 
L 277.678088 164.533198 
L 293.116823 164.65913 
L 308.555558 165.200204 
L 323.994293 165.744535 
L 339.433029 165.830819 
L 354.871764 165.684331 
L 370.310499 165.731489 
L 385.749234 165.812533 
L 401.187969 165.880158 
L 416.626705 165.938276 
" style="fill:none;stroke:#1b9e77;stroke-linecap:square;stroke-opacity:0.5;stroke-width:1.5;"/>
   </g>
   <g id="line2d_79">
    <path clip-path="url(#pb55d8f8499)" d="M 61.535795 164.193178 
L 76.974531 164.283107 
L 92.413266 163.492857 
L 107.852001 163.375872 
L 123.290736 161.692225 
L 138.729471 160.559838 
L 154.168207 162.804536 
L 169.606942 161.155458 
L 185.045677 129.647087 
L 200.484412 142.655607 
L 215.923147 155.353048 
L 231.361882 150.695823 
L 246.800618 162.509901 
L 262.239353 164.981741 
L 277.678088 165.32689 
L 293.116823 164.77972 
L 308.555558 158.967744 
L 323.994293 161.433792 
L 339.433029 155.532907 
L 354.871764 152.346716 
L 370.310499 160.347517 
L 385.749234 159.692132 
L 401.187969 132.08835 
L 416.626705 140.473277 
" style="fill:none;stroke:#1b9e77;stroke-linecap:square;stroke-opacity:0.5;stroke-width:1.5;"/>
   </g>
   <g id="line2d_80">
    <path clip-path="url(#pb55d8f8499)" d="M 61.535795 165.49376 
L 76.974531 165.0068 
L 92.413266 165.474663 
L 107.852001 165.486739 
L 123.290736 165.519156 
L 138.729471 165.522751 
L 154.168207 165.414935 
L 169.606942 165.66974 
L 185.045677 165.570656 
L 200.484412 165.751104 
L 215.923147 159.909351 
L 231.361882 161.911058 
L 246.800618 158.843326 
L 262.239353 151.512265 
L 277.678088 121.314629 
L 293.116823 139.362597 
L 308.555558 153.684733 
L 323.994293 128.06637 
L 339.433029 125.400836 
L 354.871764 151.588141 
L 370.310499 160.804206 
L 385.749234 161.951493 
L 401.187969 164.04586 
L 416.626705 165.084148 
" style="fill:none;stroke:#1b9e77;stroke-linecap:square;stroke-opacity:0.5;stroke-width:1.5;"/>
   </g>
   <g id="line2d_81">
    <path clip-path="url(#pb55d8f8499)" d="M 61.535795 165.830362 
L 76.974531 165.329537 
L 92.413266 165.461498 
L 107.852001 165.130197 
L 123.290736 164.988197 
L 138.729471 165.408398 
L 154.168207 165.506766 
L 169.606942 165.172897 
L 185.045677 160.932596 
L 200.484412 157.680889 
L 215.923147 162.630211 
L 231.361882 165.499489 
L 246.800618 165.511101 
L 262.239353 144.222814 
L 277.678088 160.190306 
L 293.116823 145.724249 
L 308.555558 117.709164 
L 323.994293 144.309056 
L 339.433029 158.534949 
L 354.871764 158.183612 
L 370.310499 130.944037 
L 385.749234 139.856316 
L 401.187969 161.154458 
L 416.626705 162.478216 
" style="fill:none;stroke:#1b9e77;stroke-linecap:square;stroke-opacity:0.5;stroke-width:1.5;"/>
   </g>
   <g id="line2d_82">
    <path clip-path="url(#pb55d8f8499)" d="M 61.535795 131.918058 
L 76.974531 125.278481 
L 92.413266 137.895081 
L 107.852001 93.485575 
L 123.290736 152.19246 
L 138.729471 164.147449 
L 154.168207 165.534585 
L 169.606942 165.539897 
L 185.045677 165.670366 
L 200.484412 165.595877 
L 215.923147 165.466819 
L 231.361882 165.585879 
L 246.800618 165.649943 
L 262.239353 165.749389 
L 277.678088 165.69429 
L 293.116823 165.773853 
L 308.555558 161.492537 
L 323.994293 163.964141 
L 339.433029 163.144801 
L 354.871764 162.828041 
L 370.310499 162.768771 
L 385.749234 161.143064 
L 401.187969 158.567124 
L 416.626705 163.302844 
" style="fill:none;stroke:#1b9e77;stroke-linecap:square;stroke-opacity:0.5;stroke-width:1.5;"/>
   </g>
   <g id="line2d_83">
    <path clip-path="url(#pb55d8f8499)" d="M 61.535795 165.744613 
L 76.974531 165.089527 
L 92.413266 165.349583 
L 107.852001 165.363355 
L 123.290736 165.330923 
L 138.729471 165.782496 
L 154.168207 165.851117 
L 169.606942 164.351682 
L 185.045677 157.32382 
L 200.484412 154.913876 
L 215.923147 141.084882 
L 231.361882 126.675117 
L 246.800618 87.431859 
L 262.239353 118.837514 
L 277.678088 164.845047 
L 293.116823 165.22463 
L 308.555558 165.374966 
L 323.994293 165.177463 
L 339.433029 164.647221 
L 354.871764 165.510021 
L 370.310499 165.562355 
L 385.749234 164.724155 
L 401.187969 163.655263 
L 416.626705 164.53783 
" style="fill:none;stroke:#1b9e77;stroke-linecap:square;stroke-opacity:0.5;stroke-width:1.5;"/>
   </g>
   <g id="line2d_84">
    <path clip-path="url(#pb55d8f8499)" d="M 61.535795 165.637775 
L 76.974531 165.328779 
L 92.413266 159.682388 
L 107.852001 145.959133 
L 123.290736 124.241616 
L 138.729471 128.118591 
L 154.168207 155.323431 
L 169.606942 161.3596 
L 185.045677 152.96203 
L 200.484412 131.294755 
L 215.923147 137.311821 
L 231.361882 151.23646 
L 246.800618 161.135752 
L 262.239353 163.673201 
L 277.678088 165.47121 
L 293.116823 165.447224 
L 308.555558 165.605281 
L 323.994293 165.66159 
L 339.433029 165.756822 
L 354.871764 165.764544 
L 370.310499 165.804813 
L 385.749234 165.796783 
L 401.187969 163.981911 
L 416.626705 165.833803 
" style="fill:none;stroke:#1b9e77;stroke-linecap:square;stroke-opacity:0.5;stroke-width:1.5;"/>
   </g>
   <g id="line2d_85">
    <path clip-path="url(#pb55d8f8499)" d="M 61.535795 160.060033 
L 76.974531 153.639874 
L 92.413266 154.242749 
L 107.852001 153.42353 
L 123.290736 119.427308 
L 138.729471 110.631111 
L 154.168207 140.261082 
L 169.606942 150.087564 
L 185.045677 151.255996 
L 200.484412 160.660886 
L 215.923147 164.066792 
L 231.361882 164.237186 
L 246.800618 165.177252 
L 262.239353 165.216208 
L 277.678088 165.37862 
L 293.116823 165.498936 
L 308.555558 165.456463 
L 323.994293 165.341314 
L 339.433029 165.349902 
L 354.871764 165.531602 
L 370.310499 165.390671 
L 385.749234 165.123646 
L 401.187969 162.668888 
L 416.626705 160.261703 
" style="fill:none;stroke:#1b9e77;stroke-linecap:square;stroke-opacity:0.5;stroke-width:1.5;"/>
   </g>
   <g id="line2d_86">
    <path clip-path="url(#pb55d8f8499)" d="M 61.535795 149.479988 
L 76.974531 121.10565 
L 92.413266 124.967812 
L 107.852001 150.800845 
L 123.290736 148.186211 
L 138.729471 120.714229 
L 154.168207 164.746162 
L 169.606942 165.106433 
L 185.045677 165.338525 
L 200.484412 165.202705 
L 215.923147 165.26273 
L 231.361882 165.50817 
L 246.800618 165.533849 
L 262.239353 165.84513 
L 277.678088 153.439066 
L 293.116823 163.540305 
L 308.555558 163.228771 
L 323.994293 164.025768 
L 339.433029 164.261707 
L 354.871764 163.939404 
L 370.310499 164.480676 
L 385.749234 162.369031 
L 401.187969 161.768611 
L 416.626705 159.537535 
" style="fill:none;stroke:#1b9e77;stroke-linecap:square;stroke-opacity:0.5;stroke-width:1.5;"/>
   </g>
   <g id="line2d_87">
    <path clip-path="url(#pb55d8f8499)" d="M 61.535795 164.655114 
L 76.974531 164.471201 
L 92.413266 164.943024 
L 107.852001 164.858339 
L 123.290736 119.009662 
L 138.729471 155.07186 
L 154.168207 160.24673 
L 169.606942 164.518069 
L 185.045677 162.499295 
L 200.484412 131.234534 
L 215.923147 146.942531 
L 231.361882 144.627829 
L 246.800618 148.400001 
L 262.239353 123.65521 
L 277.678088 154.94098 
L 293.116823 164.571377 
L 308.555558 165.162561 
L 323.994293 165.051012 
L 339.433029 165.258532 
L 354.871764 165.376266 
L 370.310499 165.599353 
L 385.749234 165.675049 
L 401.187969 165.710082 
L 416.626705 165.9107 
" style="fill:none;stroke:#1b9e77;stroke-linecap:square;stroke-opacity:0.5;stroke-width:1.5;"/>
   </g>
   <g id="line2d_88">
    <path clip-path="url(#pb55d8f8499)" d="M 61.535795 149.083204 
L 76.974531 127.28556 
L 92.413266 91.362279 
L 107.852001 106.580239 
L 123.290736 150.855152 
L 138.729471 160.117322 
L 154.168207 163.950438 
L 169.606942 163.276419 
L 185.045677 163.986661 
L 200.484412 164.622754 
L 215.923147 165.099559 
L 231.361882 164.867024 
L 246.800618 165.072888 
L 262.239353 165.325956 
L 277.678088 165.370898 
L 293.116823 165.391434 
L 308.555558 165.641349 
L 323.994293 165.831136 
L 339.433029 165.814551 
L 354.871764 165.775433 
L 370.310499 165.726981 
L 385.749234 165.938562 
L 401.187969 165.957977 
L 416.626705 165.455541 
" style="fill:none;stroke:#1b9e77;stroke-linecap:square;stroke-opacity:0.5;stroke-width:1.5;"/>
   </g>
   <g id="line2d_89">
    <path clip-path="url(#pb55d8f8499)" d="M 61.535795 164.904313 
L 76.974531 160.518526 
L 92.413266 156.52296 
L 107.852001 155.618352 
L 123.290736 161.663941 
L 138.729471 159.376702 
L 154.168207 100.299655 
L 169.606942 124.961705 
L 185.045677 164.70412 
L 200.484412 165.787879 
L 215.923147 162.96161 
L 231.361882 154.823607 
L 246.800618 131.934206 
L 262.239353 163.97218 
L 277.678088 165.784886 
L 293.116823 160.270134 
L 308.555558 160.038143 
L 323.994293 162.011943 
L 339.433029 160.645194 
L 354.871764 165.715476 
L 370.310499 165.73352 
L 385.749234 164.486758 
L 401.187969 163.976541 
L 416.626705 161.676963 
" style="fill:none;stroke:#1b9e77;stroke-linecap:square;stroke-opacity:0.5;stroke-width:1.5;"/>
   </g>
   <g id="line2d_90">
    <path clip-path="url(#pb55d8f8499)" d="M 61.535795 165.8034 
L 76.974531 165.802201 
L 92.413266 165.622729 
L 107.852001 161.475692 
L 123.290736 163.325565 
L 138.729471 163.934549 
L 154.168207 162.318321 
L 169.606942 162.338667 
L 185.045677 163.725088 
L 200.484412 163.218088 
L 215.923147 160.866378 
L 231.361882 160.709046 
L 246.800618 161.185489 
L 262.239353 155.438772 
L 277.678088 154.541426 
L 293.116823 150.406778 
L 308.555558 138.359946 
L 323.994293 110.487871 
L 339.433029 130.562173 
L 354.871764 141.170538 
L 370.310499 161.421729 
L 385.749234 164.358822 
L 401.187969 165.431054 
L 416.626705 165.884995 
" style="fill:none;stroke:#1b9e77;stroke-linecap:square;stroke-opacity:0.5;stroke-width:1.5;"/>
   </g>
   <g id="line2d_91">
    <path clip-path="url(#pb55d8f8499)" d="M 61.535795 165.781966 
L 76.974531 164.978318 
L 92.413266 165.294282 
L 107.852001 162.473238 
L 123.290736 83.688578 
L 138.729471 129.940869 
L 154.168207 151.121405 
L 169.606942 162.588046 
L 185.045677 160.289179 
L 200.484412 139.549855 
L 215.923147 138.682576 
L 231.361882 156.215486 
L 246.800618 163.337839 
L 262.239353 162.488943 
L 277.678088 165.818248 
L 293.116823 165.877554 
L 308.555558 165.915107 
L 323.994293 165.916155 
L 339.433029 165.593397 
L 354.871764 165.340848 
L 370.310499 162.685279 
L 385.749234 164.348452 
L 401.187969 164.890745 
L 416.626705 165.572955 
" style="fill:none;stroke:#1b9e77;stroke-linecap:square;stroke-opacity:0.5;stroke-width:1.5;"/>
   </g>
   <g id="line2d_92">
    <path clip-path="url(#pb55d8f8499)" d="M 61.535795 80.923309 
L 76.974531 157.05027 
L 92.413266 164.650466 
L 107.852001 149.848631 
L 123.290736 148.213489 
L 138.729471 164.379071 
L 154.168207 165.432593 
L 169.606942 164.947932 
L 185.045677 164.536076 
L 200.484412 165.17691 
L 215.923147 165.634711 
L 231.361882 165.771355 
L 246.800618 165.831873 
L 262.239353 165.802606 
L 277.678088 144.760579 
L 293.116823 165.952029 
L 308.555558 165.350913 
L 323.994293 162.677386 
L 339.433029 164.873271 
L 354.871764 165.465204 
L 370.310499 119.699367 
L 385.749234 162.632106 
L 401.187969 165.543303 
L 416.626705 153.235862 
" style="fill:none;stroke:#1b9e77;stroke-linecap:square;stroke-opacity:0.5;stroke-width:1.5;"/>
   </g>
   <g id="line2d_93">
    <path clip-path="url(#pb55d8f8499)" d="M 61.535795 165.891481 
L 76.974531 165.813417 
L 92.413266 165.878611 
L 107.852001 165.746706 
L 123.290736 165.668127 
L 138.729471 165.874907 
L 154.168207 165.927812 
L 169.606942 165.895367 
L 185.045677 157.780823 
L 200.484412 160.636159 
L 215.923147 159.621018 
L 231.361882 157.644608 
L 246.800618 157.241481 
L 262.239353 151.994314 
L 277.678088 152.92171 
L 293.116823 157.610685 
L 308.555558 50.114715 
L 323.994293 143.942779 
L 339.433029 162.464399 
L 354.871764 160.174634 
L 370.310499 163.361715 
L 385.749234 164.709042 
L 401.187969 165.570491 
L 416.626705 165.90431 
" style="fill:none;stroke:#1b9e77;stroke-linecap:square;stroke-opacity:0.5;stroke-width:1.5;"/>
   </g>
   <g id="line2d_94">
    <path clip-path="url(#pb55d8f8499)" d="M 61.535795 165.942072 
L 76.974531 165.901525 
L 92.413266 165.910143 
L 107.852001 165.911275 
L 123.290736 165.820096 
L 138.729471 165.405971 
L 154.168207 164.820581 
L 169.606942 165.232721 
L 185.045677 165.108559 
L 200.484412 164.42544 
L 215.923147 164.121707 
L 231.361882 164.033989 
L 246.800618 160.13389 
L 262.239353 155.875036 
L 277.678088 159.497695 
L 293.116823 163.446583 
L 308.555558 164.464669 
L 323.994293 117.001074 
L 339.433029 95.507123 
L 354.871764 119.871281 
L 370.310499 157.456232 
L 385.749234 152.525694 
L 401.187969 164.290661 
L 416.626705 165.685295 
" style="fill:none;stroke:#1b9e77;stroke-linecap:square;stroke-opacity:0.5;stroke-width:1.5;"/>
   </g>
   <g id="line2d_95">
    <path clip-path="url(#pb55d8f8499)" d="M 61.535795 118.165505 
L 76.974531 164.216283 
L 92.413266 164.555708 
L 107.852001 157.974075 
L 123.290736 161.1422 
L 138.729471 158.937305 
L 154.168207 164.916673 
L 169.606942 165.228021 
L 185.045677 165.37979 
L 200.484412 165.221518 
L 215.923147 165.211343 
L 231.361882 165.451113 
L 246.800618 152.772624 
L 262.239353 126.466875 
L 277.678088 135.570457 
L 293.116823 129.270102 
L 308.555558 149.513647 
L 323.994293 159.378742 
L 339.433029 162.721464 
L 354.871764 163.201396 
L 370.310499 165.508258 
L 385.749234 165.75588 
L 401.187969 165.881202 
L 416.626705 165.949132 
" style="fill:none;stroke:#1b9e77;stroke-linecap:square;stroke-opacity:0.5;stroke-width:1.5;"/>
   </g>
   <g id="line2d_96">
    <path clip-path="url(#pb55d8f8499)" d="M 61.535795 164.15068 
L 76.974531 162.936803 
L 92.413266 162.406382 
L 107.852001 163.358798 
L 123.290736 163.07436 
L 138.729471 73.07592 
L 154.168207 97.598913 
L 169.606942 129.531044 
L 185.045677 160.573668 
L 200.484412 163.851675 
L 215.923147 165.14734 
L 231.361882 165.002254 
L 246.800618 165.187032 
L 262.239353 165.325399 
L 277.678088 165.538264 
L 293.116823 165.618428 
L 308.555558 165.689592 
L 323.994293 165.721527 
L 339.433029 165.747403 
L 354.871764 165.771387 
L 370.310499 165.812779 
L 385.749234 165.886913 
L 401.187969 165.89964 
L 416.626705 165.483114 
" style="fill:none;stroke:#1b9e77;stroke-linecap:square;stroke-opacity:0.5;stroke-width:1.5;"/>
   </g>
   <g id="line2d_97">
    <path clip-path="url(#pb55d8f8499)" d="M 61.535795 157.95236 
L 76.974531 164.872142 
L 92.413266 164.673546 
L 107.852001 164.202984 
L 123.290736 164.500212 
L 138.729471 162.268746 
L 154.168207 128.437341 
L 169.606942 159.340911 
L 185.045677 165.402271 
L 200.484412 165.873187 
L 215.923147 163.539591 
L 231.361882 163.588337 
L 246.800618 159.357809 
L 262.239353 161.811211 
L 277.678088 162.410568 
L 293.116823 162.380596 
L 308.555558 162.884649 
L 323.994293 161.866375 
L 339.433029 159.709454 
L 354.871764 161.492229 
L 370.310499 162.283642 
L 385.749234 103.577902 
L 401.187969 154.157565 
L 416.626705 121.805691 
" style="fill:none;stroke:#1b9e77;stroke-linecap:square;stroke-opacity:0.5;stroke-width:1.5;"/>
   </g>
   <g id="line2d_98">
    <path clip-path="url(#pb55d8f8499)" d="M 61.535795 159.07353 
L 76.974531 163.75448 
L 92.413266 165.359076 
L 107.852001 165.357374 
L 123.290736 165.620349 
L 138.729471 165.677475 
L 154.168207 165.708621 
L 169.606942 165.769649 
L 185.045677 165.711051 
L 200.484412 165.744781 
L 215.923147 159.148032 
L 231.361882 154.644926 
L 246.800618 153.287306 
L 262.239353 150.717282 
L 277.678088 150.825152 
L 293.116823 148.491267 
L 308.555558 145.969227 
L 323.994293 147.888076 
L 339.433029 149.365095 
L 354.871764 149.771621 
L 370.310499 150.963876 
L 385.749234 147.640911 
L 401.187969 142.465671 
L 416.626705 159.434484 
" style="fill:none;stroke:#1b9e77;stroke-linecap:square;stroke-opacity:0.5;stroke-width:1.5;"/>
   </g>
   <g id="line2d_99">
    <path clip-path="url(#pb55d8f8499)" d="M 61.535795 165.896672 
L 76.974531 165.773505 
L 92.413266 164.783178 
L 107.852001 164.38085 
L 123.290736 165.805362 
L 138.729471 165.903995 
L 154.168207 165.820798 
L 169.606942 164.411176 
L 185.045677 163.969801 
L 200.484412 163.638895 
L 215.923147 162.631919 
L 231.361882 164.141554 
L 246.800618 163.521575 
L 262.239353 162.295376 
L 277.678088 161.991577 
L 293.116823 161.273866 
L 308.555558 161.711333 
L 323.994293 141.21225 
L 339.433029 146.596695 
L 354.871764 149.641525 
L 370.310499 149.61067 
L 385.749234 134.661804 
L 401.187969 119.893152 
L 416.626705 128.82179 
" style="fill:none;stroke:#1b9e77;stroke-linecap:square;stroke-opacity:0.5;stroke-width:1.5;"/>
   </g>
   <g id="line2d_100">
    <path clip-path="url(#pb55d8f8499)" d="M 61.535795 165.382985 
L 76.974531 165.894613 
L 92.413266 165.95187 
L 107.852001 162.626176 
L 123.290736 162.695129 
L 138.729471 164.384619 
L 154.168207 164.2146 
L 169.606942 165.38342 
L 185.045677 164.961116 
L 200.484412 164.690491 
L 215.923147 164.399649 
L 231.361882 163.147573 
L 246.800618 116.666377 
L 262.239353 94.312444 
L 277.678088 140.381316 
L 293.116823 163.940812 
L 308.555558 135.233689 
L 323.994293 163.82544 
L 339.433029 165.598535 
L 354.871764 165.600834 
L 370.310499 162.773899 
L 385.749234 156.483341 
L 401.187969 153.930023 
L 416.626705 165.910364 
" style="fill:none;stroke:#1b9e77;stroke-linecap:square;stroke-opacity:0.5;stroke-width:1.5;"/>
   </g>
   <g id="line2d_101">
    <path clip-path="url(#pb55d8f8499)" d="M 61.535795 156.886929 
L 76.974531 142.034595 
L 92.413266 155.321805 
L 107.852001 163.95478 
L 123.290736 163.632086 
L 138.729471 146.203267 
L 154.168207 135.647158 
L 169.606942 144.173682 
L 185.045677 144.958565 
L 200.484412 151.150837 
L 215.923147 160.462332 
L 231.361882 152.647528 
L 246.800618 141.147727 
L 262.239353 165.368087 
L 277.678088 165.777669 
L 293.116823 165.645681 
L 308.555558 165.460446 
L 323.994293 165.58946 
L 339.433029 165.692506 
L 354.871764 165.829338 
L 370.310499 165.698054 
L 385.749234 161.914022 
L 401.187969 151.47337 
L 416.626705 161.719396 
" style="fill:none;stroke:#1b9e77;stroke-linecap:square;stroke-opacity:0.5;stroke-width:1.5;"/>
   </g>
   <g id="line2d_102">
    <path clip-path="url(#pb55d8f8499)" d="M 61.535795 165.938344 
L 76.974531 165.816302 
L 92.413266 165.84589 
L 107.852001 165.869445 
L 123.290736 165.859609 
L 138.729471 165.882569 
L 154.168207 165.713181 
L 169.606942 165.445873 
L 185.045677 165.112162 
L 200.484412 110.340826 
L 215.923147 108.238497 
L 231.361882 109.439435 
L 246.800618 134.612574 
L 262.239353 164.290397 
L 277.678088 165.331535 
L 293.116823 164.50605 
L 308.555558 163.005889 
L 323.994293 164.589104 
L 339.433029 165.258512 
L 354.871764 165.443978 
L 370.310499 164.984484 
L 385.749234 161.928033 
L 401.187969 160.187639 
L 416.626705 164.74899 
" style="fill:none;stroke:#1b9e77;stroke-linecap:square;stroke-opacity:0.5;stroke-width:1.5;"/>
   </g>
   <g id="line2d_103">
    <path clip-path="url(#pb55d8f8499)" d="M 61.535795 157.067486 
L 76.974531 160.321957 
L 92.413266 164.518416 
L 107.852001 165.081362 
L 123.290736 165.242806 
L 138.729471 164.070457 
L 154.168207 129.079332 
L 169.606942 162.339478 
L 185.045677 163.423861 
L 200.484412 165.638805 
L 215.923147 156.307698 
L 231.361882 160.254151 
L 246.800618 151.554036 
L 262.239353 159.116868 
L 277.678088 163.60459 
L 293.116823 139.393656 
L 308.555558 151.992522 
L 323.994293 160.025021 
L 339.433029 157.158852 
L 354.871764 155.661092 
L 370.310499 156.383311 
L 385.749234 150.106873 
L 401.187969 141.439048 
L 416.626705 158.607639 
" style="fill:none;stroke:#1b9e77;stroke-linecap:square;stroke-opacity:0.5;stroke-width:1.5;"/>
   </g>
   <g id="line2d_104">
    <path clip-path="url(#pb55d8f8499)" d="M 61.535795 120.530292 
L 76.974531 88.474896 
L 92.413266 156.591296 
L 107.852001 161.727088 
L 123.290736 163.72068 
L 138.729471 163.647619 
L 154.168207 163.51933 
L 169.606942 163.334462 
L 185.045677 163.110015 
L 200.484412 162.869167 
L 215.923147 161.842841 
L 231.361882 162.293769 
L 246.800618 162.69992 
L 262.239353 162.156563 
L 277.678088 159.864445 
L 293.116823 159.475371 
L 308.555558 161.150982 
L 323.994293 163.493435 
L 339.433029 164.103233 
L 354.871764 158.574404 
L 370.310499 150.435346 
L 385.749234 163.211657 
L 401.187969 163.873656 
L 416.626705 157.688846 
" style="fill:none;stroke:#1b9e77;stroke-linecap:square;stroke-opacity:0.5;stroke-width:1.5;"/>
   </g>
   <g id="line2d_105">
    <path clip-path="url(#pb55d8f8499)" d="M 61.535795 164.868753 
L 76.974531 164.350338 
L 92.413266 165.307914 
L 107.852001 165.507094 
L 123.290736 165.548093 
L 138.729471 164.704371 
L 154.168207 155.665801 
L 169.606942 165.549138 
L 185.045677 164.858182 
L 200.484412 162.06041 
L 215.923147 162.625151 
L 231.361882 160.170937 
L 246.800618 151.265878 
L 262.239353 152.67362 
L 277.678088 155.064005 
L 293.116823 157.735531 
L 308.555558 158.575069 
L 323.994293 152.267649 
L 339.433029 129.421464 
L 354.871764 159.250119 
L 370.310499 161.840995 
L 385.749234 88.450416 
L 401.187969 164.803939 
L 416.626705 165.824454 
" style="fill:none;stroke:#1b9e77;stroke-linecap:square;stroke-opacity:0.5;stroke-width:1.5;"/>
   </g>
   <g id="line2d_106">
    <path clip-path="url(#pb55d8f8499)" d="M 61.535795 165.55835 
L 76.974531 165.374819 
L 92.413266 165.754405 
L 107.852001 165.727281 
L 123.290736 165.753449 
L 138.729471 165.751212 
L 154.168207 165.768466 
L 169.606942 165.879866 
L 185.045677 165.91001 
L 200.484412 165.869939 
L 215.923147 165.478411 
L 231.361882 162.307195 
L 246.800618 143.703741 
L 262.239353 158.05595 
L 277.678088 39.310918 
L 293.116823 136.414378 
L 308.555558 154.466578 
L 323.994293 153.38339 
L 339.433029 164.034353 
L 354.871764 164.631111 
L 370.310499 164.656688 
L 385.749234 164.271051 
L 401.187969 164.511783 
L 416.626705 165.815966 
" style="fill:none;stroke:#1b9e77;stroke-linecap:square;stroke-opacity:0.5;stroke-width:1.5;"/>
   </g>
   <g id="line2d_107">
    <path clip-path="url(#pb55d8f8499)" d="M 61.535795 162.883553 
L 76.974531 120.508278 
L 92.413266 90.176351 
L 107.852001 125.987689 
L 123.290736 150.403057 
L 138.729471 161.176768 
L 154.168207 160.807205 
L 169.606942 151.279771 
L 185.045677 158.471534 
L 200.484412 164.772811 
L 215.923147 165.394945 
L 231.361882 163.180775 
L 246.800618 164.1899 
L 262.239353 165.373034 
L 277.678088 165.643003 
L 293.116823 165.710529 
L 308.555558 165.740723 
L 323.994293 165.621322 
L 339.433029 165.472487 
L 354.871764 165.858327 
L 370.310499 165.873427 
L 385.749234 164.752704 
L 401.187969 164.285088 
L 416.626705 164.826033 
" style="fill:none;stroke:#1b9e77;stroke-linecap:square;stroke-opacity:0.5;stroke-width:1.5;"/>
   </g>
   <g id="line2d_108">
    <path clip-path="url(#pb55d8f8499)" d="M 61.535795 165.165084 
L 76.974531 164.581607 
L 92.413266 165.213767 
L 107.852001 165.562724 
L 123.290736 165.586407 
L 138.729471 164.354348 
L 154.168207 125.199948 
L 169.606942 150.402034 
L 185.045677 138.625152 
L 200.484412 158.458191 
L 215.923147 160.286025 
L 231.361882 160.169854 
L 246.800618 158.48814 
L 262.239353 154.092005 
L 277.678088 156.677826 
L 293.116823 156.367356 
L 308.555558 159.343961 
L 323.994293 160.24029 
L 339.433029 153.110523 
L 354.871764 156.431184 
L 370.310499 157.969166 
L 385.749234 153.835621 
L 401.187969 149.764416 
L 416.626705 158.463689 
" style="fill:none;stroke:#1b9e77;stroke-linecap:square;stroke-opacity:0.5;stroke-width:1.5;"/>
   </g>
   <g id="line2d_109">
    <path clip-path="url(#pb55d8f8499)" d="M 61.535795 164.991074 
L 76.974531 163.374187 
L 92.413266 163.729281 
L 107.852001 165.360428 
L 123.290736 164.890241 
L 138.729471 160.332208 
L 154.168207 158.896272 
L 169.606942 159.869586 
L 185.045677 139.325285 
L 200.484412 120.918448 
L 215.923147 99.067265 
L 231.361882 131.455646 
L 246.800618 151.960361 
L 262.239353 159.48188 
L 277.678088 165.602097 
L 293.116823 165.621625 
L 308.555558 165.661809 
L 323.994293 165.544592 
L 339.433029 165.376258 
L 354.871764 165.499203 
L 370.310499 165.380187 
L 385.749234 165.250118 
L 401.187969 165.104829 
L 416.626705 165.696437 
" style="fill:none;stroke:#1b9e77;stroke-linecap:square;stroke-opacity:0.5;stroke-width:1.5;"/>
   </g>
   <g id="line2d_110">
    <path clip-path="url(#pb55d8f8499)" d="M 61.535795 163.450071 
L 76.974531 164.38865 
L 92.413266 164.483069 
L 107.852001 163.763778 
L 123.290736 163.667921 
L 138.729471 162.606526 
L 154.168207 160.222414 
L 169.606942 156.022612 
L 185.045677 141.959993 
L 200.484412 119.305841 
L 215.923147 145.097737 
L 231.361882 141.809116 
L 246.800618 106.926779 
L 262.239353 160.149163 
L 277.678088 164.566008 
L 293.116823 163.958428 
L 308.555558 164.517061 
L 323.994293 165.318814 
L 339.433029 165.608449 
L 354.871764 165.85888 
L 370.310499 165.413461 
L 385.749234 164.850415 
L 401.187969 164.180363 
L 416.626705 160.263769 
" style="fill:none;stroke:#1b9e77;stroke-linecap:square;stroke-opacity:0.5;stroke-width:1.5;"/>
   </g>
   <g id="line2d_111">
    <path clip-path="url(#pb55d8f8499)" d="M 61.535795 164.095513 
L 76.974531 163.907173 
L 92.413266 164.950427 
L 107.852001 164.710834 
L 123.290736 165.102913 
L 138.729471 165.522619 
L 154.168207 165.678113 
L 169.606942 165.58843 
L 185.045677 165.599815 
L 200.484412 165.661171 
L 215.923147 165.569457 
L 231.361882 165.741556 
L 246.800618 165.6397 
L 262.239353 164.360669 
L 277.678088 153.772283 
L 293.116823 153.230908 
L 308.555558 127.090546 
L 323.994293 101.333398 
L 339.433029 133.634079 
L 354.871764 143.620895 
L 370.310499 146.774922 
L 385.749234 157.126708 
L 401.187969 163.906102 
L 416.626705 165.771088 
" style="fill:none;stroke:#1b9e77;stroke-linecap:square;stroke-opacity:0.5;stroke-width:1.5;"/>
   </g>
   <g id="line2d_112">
    <path clip-path="url(#pb55d8f8499)" d="M 61.535795 165.943495 
L 76.974531 165.943495 
L 92.413266 165.943495 
L 107.852001 165.943495 
L 123.290736 165.943495 
L 138.729471 165.943495 
L 154.168207 165.943495 
L 169.606942 165.943495 
L 185.045677 165.933749 
L 200.484412 165.900928 
L 215.923147 165.259941 
L 231.361882 165.430752 
L 246.800618 165.898258 
L 262.239353 165.916144 
L 277.678088 164.477818 
L 293.116823 158.657506 
L 308.555558 149.81839 
L 323.994293 97.177158 
L 339.433029 97.037708 
L 354.871764 135.026283 
L 370.310499 158.234207 
L 385.749234 151.596598 
L 401.187969 159.639672 
L 416.626705 164.836239 
" style="fill:none;stroke:#d95f02;stroke-linecap:square;stroke-width:1.5;"/>
   </g>
   <g id="patch_3">
    <path d="M 43.78125 173.52 
L 43.78125 7.2 
" style="fill:none;stroke:#000000;stroke-linecap:square;stroke-linejoin:miter;stroke-width:0.8;"/>
   </g>
   <g id="patch_4">
    <path d="M 43.78125 173.52 
L 434.38125 173.52 
" style="fill:none;stroke:#000000;stroke-linecap:square;stroke-linejoin:miter;stroke-width:0.8;"/>
   </g>
   <g id="legend_1">
    <g id="patch_5">
     <path d="M 376.214063 29.878125 
L 427.38125 29.878125 
Q 429.38125 29.878125 429.38125 27.878125 
L 429.38125 14.2 
Q 429.38125 12.2 427.38125 12.2 
L 376.214063 12.2 
Q 374.214063 12.2 374.214063 14.2 
L 374.214063 27.878125 
Q 374.214063 29.878125 376.214063 29.878125 
z
" style="fill:#ffffff;opacity:0.8;stroke:#cccccc;stroke-linejoin:miter;"/>
    </g>
    <g id="line2d_113">
     <path d="M 378.214063 20.298438 
L 398.214063 20.298438 
" style="fill:none;stroke:#d95f02;stroke-linecap:square;stroke-width:1.5;"/>
    </g>
    <g id="line2d_114"/>
    <g id="text_14">
     <!-- real -->
     <defs>
      <path d="M 9.421875 75.984375 
L 18.40625 75.984375 
L 18.40625 0 
L 9.421875 0 
z
" id="DejaVuSans-108"/>
     </defs>
     <g transform="translate(406.214063 23.798438)scale(0.1 -0.1)">
      <use xlink:href="#DejaVuSans-114"/>
      <use x="41.082031" xlink:href="#DejaVuSans-101"/>
      <use x="102.605469" xlink:href="#DejaVuSans-97"/>
      <use x="163.884766" xlink:href="#DejaVuSans-108"/>
     </g>
    </g>
   </g>
  </g>
 </g>
 <defs>
  <clipPath id="pb55d8f8499">
   <rect height="166.32" width="390.6" x="43.78125" y="7.2"/>
  </clipPath>
 </defs>
</svg>
