<?xml version="1.0" encoding="utf-8" standalone="no"?>
<!DOCTYPE svg PUBLIC "-//W3C//DTD SVG 1.1//EN"
  "http://www.w3.org/Graphics/SVG/1.1/DTD/svg11.dtd">
<!-- Created with matplotlib (https://matplotlib.org/) -->
<svg height="211.07625pt" version="1.1" viewBox="0 0 445.62794 211.07625" width="445.62794pt" xmlns="http://www.w3.org/2000/svg" xmlns:xlink="http://www.w3.org/1999/xlink">
 <defs>
  <style type="text/css">
*{stroke-linecap:butt;stroke-linejoin:round;}
  </style>
 </defs>
 <g id="figure_1">
  <g id="patch_1">
   <path d="M 0 211.07625 
L 445.62794 211.07625 
L 445.62794 0 
L 0 0 
z
" style="fill:#ffffff;"/>
  </g>
  <g id="axes_1">
   <g id="patch_2">
    <path d="M 43.78125 173.52 
L 434.38125 173.52 
L 434.38125 7.2 
L 43.78125 7.2 
z
" style="fill:#ffffff;"/>
   </g>
   <g id="matplotlib.axis_1">
    <g id="xtick_1">
     <g id="line2d_1">
      <defs>
       <path d="M 0 0 
L 0 3.5 
" id="m9b18dc8dfb" style="stroke:#000000;stroke-width:0.8;"/>
      </defs>
      <g>
       <use style="stroke:#000000;stroke-width:0.8;" x="46.09706" xlink:href="#m9b18dc8dfb" y="173.52"/>
      </g>
     </g>
     <g id="text_1">
      <!-- 0 -->
      <defs>
       <path d="M 31.78125 66.40625 
Q 24.171875 66.40625 20.328125 58.90625 
Q 16.5 51.421875 16.5 36.375 
Q 16.5 21.390625 20.328125 13.890625 
Q 24.171875 6.390625 31.78125 6.390625 
Q 39.453125 6.390625 43.28125 13.890625 
Q 47.125 21.390625 47.125 36.375 
Q 47.125 51.421875 43.28125 58.90625 
Q 39.453125 66.40625 31.78125 66.40625 
z
M 31.78125 74.21875 
Q 44.046875 74.21875 50.515625 64.515625 
Q 56.984375 54.828125 56.984375 36.375 
Q 56.984375 17.96875 50.515625 8.265625 
Q 44.046875 -1.421875 31.78125 -1.421875 
Q 19.53125 -1.421875 13.0625 8.265625 
Q 6.59375 17.96875 6.59375 36.375 
Q 6.59375 54.828125 13.0625 64.515625 
Q 19.53125 74.21875 31.78125 74.21875 
z
" id="DejaVuSans-48"/>
      </defs>
      <g transform="translate(42.91581 188.118438)scale(0.1 -0.1)">
       <use xlink:href="#DejaVuSans-48"/>
      </g>
     </g>
    </g>
    <g id="xtick_2">
     <g id="line2d_2">
      <g>
       <use style="stroke:#000000;stroke-width:0.8;" x="123.290736" xlink:href="#m9b18dc8dfb" y="173.52"/>
      </g>
     </g>
     <g id="text_2">
      <!-- 5 -->
      <defs>
       <path d="M 10.796875 72.90625 
L 49.515625 72.90625 
L 49.515625 64.59375 
L 19.828125 64.59375 
L 19.828125 46.734375 
Q 21.96875 47.46875 24.109375 47.828125 
Q 26.265625 48.1875 28.421875 48.1875 
Q 40.625 48.1875 47.75 41.5 
Q 54.890625 34.8125 54.890625 23.390625 
Q 54.890625 11.625 47.5625 5.09375 
Q 40.234375 -1.421875 26.90625 -1.421875 
Q 22.3125 -1.421875 17.546875 -0.640625 
Q 12.796875 0.140625 7.71875 1.703125 
L 7.71875 11.625 
Q 12.109375 9.234375 16.796875 8.0625 
Q 21.484375 6.890625 26.703125 6.890625 
Q 35.15625 6.890625 40.078125 11.328125 
Q 45.015625 15.765625 45.015625 23.390625 
Q 45.015625 31 40.078125 35.4375 
Q 35.15625 39.890625 26.703125 39.890625 
Q 22.75 39.890625 18.8125 39.015625 
Q 14.890625 38.140625 10.796875 36.28125 
z
" id="DejaVuSans-53"/>
      </defs>
      <g transform="translate(120.109486 188.118438)scale(0.1 -0.1)">
       <use xlink:href="#DejaVuSans-53"/>
      </g>
     </g>
    </g>
    <g id="xtick_3">
     <g id="line2d_3">
      <g>
       <use style="stroke:#000000;stroke-width:0.8;" x="200.484412" xlink:href="#m9b18dc8dfb" y="173.52"/>
      </g>
     </g>
     <g id="text_3">
      <!-- 10 -->
      <defs>
       <path d="M 12.40625 8.296875 
L 28.515625 8.296875 
L 28.515625 63.921875 
L 10.984375 60.40625 
L 10.984375 69.390625 
L 28.421875 72.90625 
L 38.28125 72.90625 
L 38.28125 8.296875 
L 54.390625 8.296875 
L 54.390625 0 
L 12.40625 0 
z
" id="DejaVuSans-49"/>
      </defs>
      <g transform="translate(194.121912 188.118438)scale(0.1 -0.1)">
       <use xlink:href="#DejaVuSans-49"/>
       <use x="63.623047" xlink:href="#DejaVuSans-48"/>
      </g>
     </g>
    </g>
    <g id="xtick_4">
     <g id="line2d_4">
      <g>
       <use style="stroke:#000000;stroke-width:0.8;" x="277.678088" xlink:href="#m9b18dc8dfb" y="173.52"/>
      </g>
     </g>
     <g id="text_4">
      <!-- 15 -->
      <g transform="translate(271.315588 188.118438)scale(0.1 -0.1)">
       <use xlink:href="#DejaVuSans-49"/>
       <use x="63.623047" xlink:href="#DejaVuSans-53"/>
      </g>
     </g>
    </g>
    <g id="xtick_5">
     <g id="line2d_5">
      <g>
       <use style="stroke:#000000;stroke-width:0.8;" x="354.871764" xlink:href="#m9b18dc8dfb" y="173.52"/>
      </g>
     </g>
     <g id="text_5">
      <!-- 20 -->
      <defs>
       <path d="M 19.1875 8.296875 
L 53.609375 8.296875 
L 53.609375 0 
L 7.328125 0 
L 7.328125 8.296875 
Q 12.9375 14.109375 22.625 23.890625 
Q 32.328125 33.6875 34.8125 36.53125 
Q 39.546875 41.84375 41.421875 45.53125 
Q 43.3125 49.21875 43.3125 52.78125 
Q 43.3125 58.59375 39.234375 62.25 
Q 35.15625 65.921875 28.609375 65.921875 
Q 23.96875 65.921875 18.8125 64.3125 
Q 13.671875 62.703125 7.8125 59.421875 
L 7.8125 69.390625 
Q 13.765625 71.78125 18.9375 73 
Q 24.125 74.21875 28.421875 74.21875 
Q 39.75 74.21875 46.484375 68.546875 
Q 53.21875 62.890625 53.21875 53.421875 
Q 53.21875 48.921875 51.53125 44.890625 
Q 49.859375 40.875 45.40625 35.40625 
Q 44.1875 33.984375 37.640625 27.21875 
Q 31.109375 20.453125 19.1875 8.296875 
z
" id="DejaVuSans-50"/>
      </defs>
      <g transform="translate(348.509264 188.118438)scale(0.1 -0.1)">
       <use xlink:href="#DejaVuSans-50"/>
       <use x="63.623047" xlink:href="#DejaVuSans-48"/>
      </g>
     </g>
    </g>
    <g id="xtick_6">
     <g id="line2d_6">
      <g>
       <use style="stroke:#000000;stroke-width:0.8;" x="432.06544" xlink:href="#m9b18dc8dfb" y="173.52"/>
      </g>
     </g>
     <g id="text_6">
      <!-- 25 -->
      <g transform="translate(425.70294 188.118438)scale(0.1 -0.1)">
       <use xlink:href="#DejaVuSans-50"/>
       <use x="63.623047" xlink:href="#DejaVuSans-53"/>
      </g>
     </g>
    </g>
    <g id="text_7">
     <!-- hour -->
     <defs>
      <path d="M 54.890625 33.015625 
L 54.890625 0 
L 45.90625 0 
L 45.90625 32.71875 
Q 45.90625 40.484375 42.875 44.328125 
Q 39.84375 48.1875 33.796875 48.1875 
Q 26.515625 48.1875 22.3125 43.546875 
Q 18.109375 38.921875 18.109375 30.90625 
L 18.109375 0 
L 9.078125 0 
L 9.078125 75.984375 
L 18.109375 75.984375 
L 18.109375 46.1875 
Q 21.34375 51.125 25.703125 53.5625 
Q 30.078125 56 35.796875 56 
Q 45.21875 56 50.046875 50.171875 
Q 54.890625 44.34375 54.890625 33.015625 
z
" id="DejaVuSans-104"/>
      <path d="M 30.609375 48.390625 
Q 23.390625 48.390625 19.1875 42.75 
Q 14.984375 37.109375 14.984375 27.296875 
Q 14.984375 17.484375 19.15625 11.84375 
Q 23.34375 6.203125 30.609375 6.203125 
Q 37.796875 6.203125 41.984375 11.859375 
Q 46.1875 17.53125 46.1875 27.296875 
Q 46.1875 37.015625 41.984375 42.703125 
Q 37.796875 48.390625 30.609375 48.390625 
z
M 30.609375 56 
Q 42.328125 56 49.015625 48.375 
Q 55.71875 40.765625 55.71875 27.296875 
Q 55.71875 13.875 49.015625 6.21875 
Q 42.328125 -1.421875 30.609375 -1.421875 
Q 18.84375 -1.421875 12.171875 6.21875 
Q 5.515625 13.875 5.515625 27.296875 
Q 5.515625 40.765625 12.171875 48.375 
Q 18.84375 56 30.609375 56 
z
" id="DejaVuSans-111"/>
      <path d="M 8.5 21.578125 
L 8.5 54.6875 
L 17.484375 54.6875 
L 17.484375 21.921875 
Q 17.484375 14.15625 20.5 10.265625 
Q 23.53125 6.390625 29.59375 6.390625 
Q 36.859375 6.390625 41.078125 11.03125 
Q 45.3125 15.671875 45.3125 23.6875 
L 45.3125 54.6875 
L 54.296875 54.6875 
L 54.296875 0 
L 45.3125 0 
L 45.3125 8.40625 
Q 42.046875 3.421875 37.71875 1 
Q 33.40625 -1.421875 27.6875 -1.421875 
Q 18.265625 -1.421875 13.375 4.4375 
Q 8.5 10.296875 8.5 21.578125 
z
M 31.109375 56 
z
" id="DejaVuSans-117"/>
      <path d="M 41.109375 46.296875 
Q 39.59375 47.171875 37.8125 47.578125 
Q 36.03125 48 33.890625 48 
Q 26.265625 48 22.1875 43.046875 
Q 18.109375 38.09375 18.109375 28.8125 
L 18.109375 0 
L 9.078125 0 
L 9.078125 54.6875 
L 18.109375 54.6875 
L 18.109375 46.1875 
Q 20.953125 51.171875 25.484375 53.578125 
Q 30.03125 56 36.53125 56 
Q 37.453125 56 38.578125 55.875 
Q 39.703125 55.765625 41.0625 55.515625 
z
" id="DejaVuSans-114"/>
     </defs>
     <g transform="translate(227.628906 201.796563)scale(0.1 -0.1)">
      <use xlink:href="#DejaVuSans-104"/>
      <use x="63.378906" xlink:href="#DejaVuSans-111"/>
      <use x="124.560547" xlink:href="#DejaVuSans-117"/>
      <use x="187.939453" xlink:href="#DejaVuSans-114"/>
     </g>
    </g>
   </g>
   <g id="matplotlib.axis_2">
    <g id="ytick_1">
     <g id="line2d_7">
      <defs>
       <path d="M 0 0 
L -3.5 0 
" id="mc0743778b2" style="stroke:#000000;stroke-width:0.8;"/>
      </defs>
      <g>
       <use style="stroke:#000000;stroke-width:0.8;" x="43.78125" xlink:href="#mc0743778b2" y="165.960485"/>
      </g>
     </g>
     <g id="text_8">
      <!-- 0.0 -->
      <defs>
       <path d="M 10.6875 12.40625 
L 21 12.40625 
L 21 0 
L 10.6875 0 
z
" id="DejaVuSans-46"/>
      </defs>
      <g transform="translate(20.878125 169.759703)scale(0.1 -0.1)">
       <use xlink:href="#DejaVuSans-48"/>
       <use x="63.623047" xlink:href="#DejaVuSans-46"/>
       <use x="95.410156" xlink:href="#DejaVuSans-48"/>
      </g>
     </g>
    </g>
    <g id="ytick_2">
     <g id="line2d_8">
      <g>
       <use style="stroke:#000000;stroke-width:0.8;" x="43.78125" xlink:href="#mc0743778b2" y="140.510771"/>
      </g>
     </g>
     <g id="text_9">
      <!-- 0.5 -->
      <g transform="translate(20.878125 144.30999)scale(0.1 -0.1)">
       <use xlink:href="#DejaVuSans-48"/>
       <use x="63.623047" xlink:href="#DejaVuSans-46"/>
       <use x="95.410156" xlink:href="#DejaVuSans-53"/>
      </g>
     </g>
    </g>
    <g id="ytick_3">
     <g id="line2d_9">
      <g>
       <use style="stroke:#000000;stroke-width:0.8;" x="43.78125" xlink:href="#mc0743778b2" y="115.061058"/>
      </g>
     </g>
     <g id="text_10">
      <!-- 1.0 -->
      <g transform="translate(20.878125 118.860277)scale(0.1 -0.1)">
       <use xlink:href="#DejaVuSans-49"/>
       <use x="63.623047" xlink:href="#DejaVuSans-46"/>
       <use x="95.410156" xlink:href="#DejaVuSans-48"/>
      </g>
     </g>
    </g>
    <g id="ytick_4">
     <g id="line2d_10">
      <g>
       <use style="stroke:#000000;stroke-width:0.8;" x="43.78125" xlink:href="#mc0743778b2" y="89.611344"/>
      </g>
     </g>
     <g id="text_11">
      <!-- 1.5 -->
      <g transform="translate(20.878125 93.410563)scale(0.1 -0.1)">
       <use xlink:href="#DejaVuSans-49"/>
       <use x="63.623047" xlink:href="#DejaVuSans-46"/>
       <use x="95.410156" xlink:href="#DejaVuSans-53"/>
      </g>
     </g>
    </g>
    <g id="ytick_5">
     <g id="line2d_11">
      <g>
       <use style="stroke:#000000;stroke-width:0.8;" x="43.78125" xlink:href="#mc0743778b2" y="64.161631"/>
      </g>
     </g>
     <g id="text_12">
      <!-- 2.0 -->
      <g transform="translate(20.878125 67.96085)scale(0.1 -0.1)">
       <use xlink:href="#DejaVuSans-50"/>
       <use x="63.623047" xlink:href="#DejaVuSans-46"/>
       <use x="95.410156" xlink:href="#DejaVuSans-48"/>
      </g>
     </g>
    </g>
    <g id="ytick_6">
     <g id="line2d_12">
      <g>
       <use style="stroke:#000000;stroke-width:0.8;" x="43.78125" xlink:href="#mc0743778b2" y="38.711918"/>
      </g>
     </g>
     <g id="text_13">
      <!-- 2.5 -->
      <g transform="translate(20.878125 42.511136)scale(0.1 -0.1)">
       <use xlink:href="#DejaVuSans-50"/>
       <use x="63.623047" xlink:href="#DejaVuSans-46"/>
       <use x="95.410156" xlink:href="#DejaVuSans-53"/>
      </g>
     </g>
    </g>
    <g id="ytick_7">
     <g id="line2d_13">
      <g>
       <use style="stroke:#000000;stroke-width:0.8;" x="43.78125" xlink:href="#mc0743778b2" y="13.262204"/>
      </g>
     </g>
     <g id="text_14">
      <!-- 3.0 -->
      <defs>
       <path d="M 40.578125 39.3125 
Q 47.65625 37.796875 51.625 33 
Q 55.609375 28.21875 55.609375 21.1875 
Q 55.609375 10.40625 48.1875 4.484375 
Q 40.765625 -1.421875 27.09375 -1.421875 
Q 22.515625 -1.421875 17.65625 -0.515625 
Q 12.796875 0.390625 7.625 2.203125 
L 7.625 11.71875 
Q 11.71875 9.328125 16.59375 8.109375 
Q 21.484375 6.890625 26.8125 6.890625 
Q 36.078125 6.890625 40.9375 10.546875 
Q 45.796875 14.203125 45.796875 21.1875 
Q 45.796875 27.640625 41.28125 31.265625 
Q 36.765625 34.90625 28.71875 34.90625 
L 20.21875 34.90625 
L 20.21875 43.015625 
L 29.109375 43.015625 
Q 36.375 43.015625 40.234375 45.921875 
Q 44.09375 48.828125 44.09375 54.296875 
Q 44.09375 59.90625 40.109375 62.90625 
Q 36.140625 65.921875 28.71875 65.921875 
Q 24.65625 65.921875 20.015625 65.03125 
Q 15.375 64.15625 9.8125 62.3125 
L 9.8125 71.09375 
Q 15.4375 72.65625 20.34375 73.4375 
Q 25.25 74.21875 29.59375 74.21875 
Q 40.828125 74.21875 47.359375 69.109375 
Q 53.90625 64.015625 53.90625 55.328125 
Q 53.90625 49.265625 50.4375 45.09375 
Q 46.96875 40.921875 40.578125 39.3125 
z
" id="DejaVuSans-51"/>
      </defs>
      <g transform="translate(20.878125 17.061423)scale(0.1 -0.1)">
       <use xlink:href="#DejaVuSans-51"/>
       <use x="63.623047" xlink:href="#DejaVuSans-46"/>
       <use x="95.410156" xlink:href="#DejaVuSans-48"/>
      </g>
     </g>
    </g>
    <g id="text_15">
     <!-- precipitation [mm/hour] -->
     <defs>
      <path d="M 18.109375 8.203125 
L 18.109375 -20.796875 
L 9.078125 -20.796875 
L 9.078125 54.6875 
L 18.109375 54.6875 
L 18.109375 46.390625 
Q 20.953125 51.265625 25.265625 53.625 
Q 29.59375 56 35.59375 56 
Q 45.5625 56 51.78125 48.09375 
Q 58.015625 40.1875 58.015625 27.296875 
Q 58.015625 14.40625 51.78125 6.484375 
Q 45.5625 -1.421875 35.59375 -1.421875 
Q 29.59375 -1.421875 25.265625 0.953125 
Q 20.953125 3.328125 18.109375 8.203125 
z
M 48.6875 27.296875 
Q 48.6875 37.203125 44.609375 42.84375 
Q 40.53125 48.484375 33.40625 48.484375 
Q 26.265625 48.484375 22.1875 42.84375 
Q 18.109375 37.203125 18.109375 27.296875 
Q 18.109375 17.390625 22.1875 11.75 
Q 26.265625 6.109375 33.40625 6.109375 
Q 40.53125 6.109375 44.609375 11.75 
Q 48.6875 17.390625 48.6875 27.296875 
z
" id="DejaVuSans-112"/>
      <path d="M 56.203125 29.59375 
L 56.203125 25.203125 
L 14.890625 25.203125 
Q 15.484375 15.921875 20.484375 11.0625 
Q 25.484375 6.203125 34.421875 6.203125 
Q 39.59375 6.203125 44.453125 7.46875 
Q 49.3125 8.734375 54.109375 11.28125 
L 54.109375 2.78125 
Q 49.265625 0.734375 44.1875 -0.34375 
Q 39.109375 -1.421875 33.890625 -1.421875 
Q 20.796875 -1.421875 13.15625 6.1875 
Q 5.515625 13.8125 5.515625 26.8125 
Q 5.515625 40.234375 12.765625 48.109375 
Q 20.015625 56 32.328125 56 
Q 43.359375 56 49.78125 48.890625 
Q 56.203125 41.796875 56.203125 29.59375 
z
M 47.21875 32.234375 
Q 47.125 39.59375 43.09375 43.984375 
Q 39.0625 48.390625 32.421875 48.390625 
Q 24.90625 48.390625 20.390625 44.140625 
Q 15.875 39.890625 15.1875 32.171875 
z
" id="DejaVuSans-101"/>
      <path d="M 48.78125 52.59375 
L 48.78125 44.1875 
Q 44.96875 46.296875 41.140625 47.34375 
Q 37.3125 48.390625 33.40625 48.390625 
Q 24.65625 48.390625 19.8125 42.84375 
Q 14.984375 37.3125 14.984375 27.296875 
Q 14.984375 17.28125 19.8125 11.734375 
Q 24.65625 6.203125 33.40625 6.203125 
Q 37.3125 6.203125 41.140625 7.25 
Q 44.96875 8.296875 48.78125 10.40625 
L 48.78125 2.09375 
Q 45.015625 0.34375 40.984375 -0.53125 
Q 36.96875 -1.421875 32.421875 -1.421875 
Q 20.0625 -1.421875 12.78125 6.34375 
Q 5.515625 14.109375 5.515625 27.296875 
Q 5.515625 40.671875 12.859375 48.328125 
Q 20.21875 56 33.015625 56 
Q 37.15625 56 41.109375 55.140625 
Q 45.0625 54.296875 48.78125 52.59375 
z
" id="DejaVuSans-99"/>
      <path d="M 9.421875 54.6875 
L 18.40625 54.6875 
L 18.40625 0 
L 9.421875 0 
z
M 9.421875 75.984375 
L 18.40625 75.984375 
L 18.40625 64.59375 
L 9.421875 64.59375 
z
" id="DejaVuSans-105"/>
      <path d="M 18.3125 70.21875 
L 18.3125 54.6875 
L 36.8125 54.6875 
L 36.8125 47.703125 
L 18.3125 47.703125 
L 18.3125 18.015625 
Q 18.3125 11.328125 20.140625 9.421875 
Q 21.96875 7.515625 27.59375 7.515625 
L 36.8125 7.515625 
L 36.8125 0 
L 27.59375 0 
Q 17.1875 0 13.234375 3.875 
Q 9.28125 7.765625 9.28125 18.015625 
L 9.28125 47.703125 
L 2.6875 47.703125 
L 2.6875 54.6875 
L 9.28125 54.6875 
L 9.28125 70.21875 
z
" id="DejaVuSans-116"/>
      <path d="M 34.28125 27.484375 
Q 23.390625 27.484375 19.1875 25 
Q 14.984375 22.515625 14.984375 16.5 
Q 14.984375 11.71875 18.140625 8.90625 
Q 21.296875 6.109375 26.703125 6.109375 
Q 34.1875 6.109375 38.703125 11.40625 
Q 43.21875 16.703125 43.21875 25.484375 
L 43.21875 27.484375 
z
M 52.203125 31.203125 
L 52.203125 0 
L 43.21875 0 
L 43.21875 8.296875 
Q 40.140625 3.328125 35.546875 0.953125 
Q 30.953125 -1.421875 24.3125 -1.421875 
Q 15.921875 -1.421875 10.953125 3.296875 
Q 6 8.015625 6 15.921875 
Q 6 25.140625 12.171875 29.828125 
Q 18.359375 34.515625 30.609375 34.515625 
L 43.21875 34.515625 
L 43.21875 35.40625 
Q 43.21875 41.609375 39.140625 45 
Q 35.0625 48.390625 27.6875 48.390625 
Q 23 48.390625 18.546875 47.265625 
Q 14.109375 46.140625 10.015625 43.890625 
L 10.015625 52.203125 
Q 14.9375 54.109375 19.578125 55.046875 
Q 24.21875 56 28.609375 56 
Q 40.484375 56 46.34375 49.84375 
Q 52.203125 43.703125 52.203125 31.203125 
z
" id="DejaVuSans-97"/>
      <path d="M 54.890625 33.015625 
L 54.890625 0 
L 45.90625 0 
L 45.90625 32.71875 
Q 45.90625 40.484375 42.875 44.328125 
Q 39.84375 48.1875 33.796875 48.1875 
Q 26.515625 48.1875 22.3125 43.546875 
Q 18.109375 38.921875 18.109375 30.90625 
L 18.109375 0 
L 9.078125 0 
L 9.078125 54.6875 
L 18.109375 54.6875 
L 18.109375 46.1875 
Q 21.34375 51.125 25.703125 53.5625 
Q 30.078125 56 35.796875 56 
Q 45.21875 56 50.046875 50.171875 
Q 54.890625 44.34375 54.890625 33.015625 
z
" id="DejaVuSans-110"/>
      <path id="DejaVuSans-32"/>
      <path d="M 8.59375 75.984375 
L 29.296875 75.984375 
L 29.296875 69 
L 17.578125 69 
L 17.578125 -6.203125 
L 29.296875 -6.203125 
L 29.296875 -13.1875 
L 8.59375 -13.1875 
z
" id="DejaVuSans-91"/>
      <path d="M 52 44.1875 
Q 55.375 50.25 60.0625 53.125 
Q 64.75 56 71.09375 56 
Q 79.640625 56 84.28125 50.015625 
Q 88.921875 44.046875 88.921875 33.015625 
L 88.921875 0 
L 79.890625 0 
L 79.890625 32.71875 
Q 79.890625 40.578125 77.09375 44.375 
Q 74.3125 48.1875 68.609375 48.1875 
Q 61.625 48.1875 57.5625 43.546875 
Q 53.515625 38.921875 53.515625 30.90625 
L 53.515625 0 
L 44.484375 0 
L 44.484375 32.71875 
Q 44.484375 40.625 41.703125 44.40625 
Q 38.921875 48.1875 33.109375 48.1875 
Q 26.21875 48.1875 22.15625 43.53125 
Q 18.109375 38.875 18.109375 30.90625 
L 18.109375 0 
L 9.078125 0 
L 9.078125 54.6875 
L 18.109375 54.6875 
L 18.109375 46.1875 
Q 21.1875 51.21875 25.484375 53.609375 
Q 29.78125 56 35.6875 56 
Q 41.65625 56 45.828125 52.96875 
Q 50 49.953125 52 44.1875 
z
" id="DejaVuSans-109"/>
      <path d="M 25.390625 72.90625 
L 33.6875 72.90625 
L 8.296875 -9.28125 
L 0 -9.28125 
z
" id="DejaVuSans-47"/>
      <path d="M 30.421875 75.984375 
L 30.421875 -13.1875 
L 9.71875 -13.1875 
L 9.71875 -6.203125 
L 21.390625 -6.203125 
L 21.390625 69 
L 9.71875 69 
L 9.71875 75.984375 
z
" id="DejaVuSans-93"/>
     </defs>
     <g transform="translate(14.798438 150.335781)rotate(-90)scale(0.1 -0.1)">
      <use xlink:href="#DejaVuSans-112"/>
      <use x="63.476562" xlink:href="#DejaVuSans-114"/>
      <use x="104.558594" xlink:href="#DejaVuSans-101"/>
      <use x="166.082031" xlink:href="#DejaVuSans-99"/>
      <use x="221.0625" xlink:href="#DejaVuSans-105"/>
      <use x="248.845703" xlink:href="#DejaVuSans-112"/>
      <use x="312.322266" xlink:href="#DejaVuSans-105"/>
      <use x="340.105469" xlink:href="#DejaVuSans-116"/>
      <use x="379.314453" xlink:href="#DejaVuSans-97"/>
      <use x="440.59375" xlink:href="#DejaVuSans-116"/>
      <use x="479.802734" xlink:href="#DejaVuSans-105"/>
      <use x="507.585938" xlink:href="#DejaVuSans-111"/>
      <use x="568.767578" xlink:href="#DejaVuSans-110"/>
      <use x="632.146484" xlink:href="#DejaVuSans-32"/>
      <use x="663.933594" xlink:href="#DejaVuSans-91"/>
      <use x="702.947266" xlink:href="#DejaVuSans-109"/>
      <use x="800.359375" xlink:href="#DejaVuSans-109"/>
      <use x="897.771484" xlink:href="#DejaVuSans-47"/>
      <use x="931.462891" xlink:href="#DejaVuSans-104"/>
      <use x="994.841797" xlink:href="#DejaVuSans-111"/>
      <use x="1056.023438" xlink:href="#DejaVuSans-117"/>
      <use x="1119.402344" xlink:href="#DejaVuSans-114"/>
      <use x="1160.515625" xlink:href="#DejaVuSans-93"/>
     </g>
    </g>
   </g>
   <g id="line2d_14">
    <path clip-path="url(#pe3db2f5cfc)" d="M 61.535795 165.830143 
L 76.974531 165.693574 
L 92.413266 165.846117 
L 107.852001 165.88118 
L 123.290736 165.85131 
L 138.729471 161.778945 
L 154.168207 162.394596 
L 169.606942 163.438948 
L 185.045677 162.31016 
L 200.484412 161.619905 
L 215.923147 161.191913 
L 231.361882 162.124458 
L 246.800618 141.942271 
L 262.239353 121.663779 
L 277.678088 140.603425 
L 293.116823 130.180884 
L 308.555558 125.8227 
L 323.994293 164.888769 
L 339.433029 165.866846 
L 354.871764 165.920998 
L 370.310499 163.970899 
L 385.749234 162.393304 
L 401.187969 161.453871 
L 416.626705 163.037127 
" style="fill:none;stroke:#1b9e77;stroke-linecap:square;stroke-opacity:0.5;stroke-width:1.5;"/>
   </g>
   <g id="line2d_15">
    <path clip-path="url(#pe3db2f5cfc)" d="M 61.535795 138.397345 
L 76.974531 76.393391 
L 92.413266 114.967725 
L 107.852001 143.921741 
L 123.290736 158.581408 
L 138.729471 162.608412 
L 154.168207 164.155573 
L 169.606942 163.817449 
L 185.045677 164.652008 
L 200.484412 165.428284 
L 215.923147 165.740432 
L 231.361882 165.710852 
L 246.800618 165.762883 
L 262.239353 165.828686 
L 277.678088 165.832127 
L 293.116823 165.900083 
L 308.555558 165.924763 
L 323.994293 165.927758 
L 339.433029 165.792807 
L 354.871764 164.8725 
L 370.310499 163.651488 
L 385.749234 165.930024 
L 401.187969 165.949412 
L 416.626705 165.958975 
" style="fill:none;stroke:#1b9e77;stroke-linecap:square;stroke-opacity:0.5;stroke-width:1.5;"/>
   </g>
   <g id="line2d_16">
    <path clip-path="url(#pe3db2f5cfc)" d="M 61.535795 69.239549 
L 76.974531 161.213212 
L 92.413266 150.888974 
L 107.852001 157.473658 
L 123.290736 160.535243 
L 138.729471 164.387338 
L 154.168207 163.59549 
L 169.606942 157.134551 
L 185.045677 163.463783 
L 200.484412 163.21715 
L 215.923147 162.534249 
L 231.361882 162.560778 
L 246.800618 163.133541 
L 262.239353 153.861091 
L 277.678088 156.563888 
L 293.116823 160.471286 
L 308.555558 160.591064 
L 323.994293 146.506717 
L 339.433029 165.624386 
L 354.871764 165.742331 
L 370.310499 165.811944 
L 385.749234 165.73516 
L 401.187969 165.685995 
L 416.626705 165.734748 
" style="fill:none;stroke:#1b9e77;stroke-linecap:square;stroke-opacity:0.5;stroke-width:1.5;"/>
   </g>
   <g id="line2d_17">
    <path clip-path="url(#pe3db2f5cfc)" d="M 61.535795 162.491538 
L 76.974531 163.749303 
L 92.413266 165.586635 
L 107.852001 165.736654 
L 123.290736 165.769098 
L 138.729471 165.131573 
L 154.168207 161.879027 
L 169.606942 164.999607 
L 185.045677 165.441156 
L 200.484412 165.473329 
L 215.923147 165.377623 
L 231.361882 165.009105 
L 246.800618 164.826847 
L 262.239353 165.417995 
L 277.678088 159.870259 
L 293.116823 149.795918 
L 308.555558 123.995675 
L 323.994293 133.683288 
L 339.433029 137.900796 
L 354.871764 146.552339 
L 370.310499 143.301148 
L 385.749234 138.469769 
L 401.187969 165.374502 
L 416.626705 165.872939 
" style="fill:none;stroke:#1b9e77;stroke-linecap:square;stroke-opacity:0.5;stroke-width:1.5;"/>
   </g>
   <g id="line2d_18">
    <path clip-path="url(#pe3db2f5cfc)" d="M 61.535795 164.058046 
L 76.974531 158.525151 
L 92.413266 163.104603 
L 107.852001 164.547962 
L 123.290736 164.83877 
L 138.729471 160.268944 
L 154.168207 157.641434 
L 169.606942 162.509871 
L 185.045677 164.894398 
L 200.484412 159.856948 
L 215.923147 161.40296 
L 231.361882 155.031713 
L 246.800618 145.011719 
L 262.239353 141.631717 
L 277.678088 138.897908 
L 293.116823 154.412583 
L 308.555558 152.377697 
L 323.994293 126.89415 
L 339.433029 154.194349 
L 354.871764 160.604142 
L 370.310499 163.990233 
L 385.749234 165.285638 
L 401.187969 165.785861 
L 416.626705 165.939328 
" style="fill:none;stroke:#1b9e77;stroke-linecap:square;stroke-opacity:0.5;stroke-width:1.5;"/>
   </g>
   <g id="line2d_19">
    <path clip-path="url(#pe3db2f5cfc)" d="M 61.535795 165.038633 
L 76.974531 163.924523 
L 92.413266 163.668383 
L 107.852001 162.81337 
L 123.290736 143.855215 
L 138.729471 93.485603 
L 154.168207 123.727331 
L 169.606942 153.397357 
L 185.045677 129.769762 
L 200.484412 157.593345 
L 215.923147 165.350439 
L 231.361882 163.828861 
L 246.800618 163.444727 
L 262.239353 163.710408 
L 277.678088 165.154689 
L 293.116823 165.756742 
L 308.555558 165.865401 
L 323.994293 165.871413 
L 339.433029 165.868126 
L 354.871764 165.813556 
L 370.310499 165.901896 
L 385.749234 165.948642 
L 401.187969 165.957699 
L 416.626705 165.96 
" style="fill:none;stroke:#1b9e77;stroke-linecap:square;stroke-opacity:0.5;stroke-width:1.5;"/>
   </g>
   <g id="line2d_20">
    <path clip-path="url(#pe3db2f5cfc)" d="M 61.535795 164.940701 
L 76.974531 164.750001 
L 92.413266 165.050706 
L 107.852001 162.028884 
L 123.290736 147.979005 
L 138.729471 126.199142 
L 154.168207 128.51147 
L 169.606942 133.963012 
L 185.045677 136.561898 
L 200.484412 138.264341 
L 215.923147 156.824948 
L 231.361882 161.130761 
L 246.800618 163.981895 
L 262.239353 164.936523 
L 277.678088 165.485061 
L 293.116823 165.392367 
L 308.555558 165.506533 
L 323.994293 165.66271 
L 339.433029 165.796697 
L 354.871764 165.772295 
L 370.310499 165.759013 
L 385.749234 165.794458 
L 401.187969 165.826507 
L 416.626705 165.587196 
" style="fill:none;stroke:#1b9e77;stroke-linecap:square;stroke-opacity:0.5;stroke-width:1.5;"/>
   </g>
   <g id="line2d_21">
    <path clip-path="url(#pe3db2f5cfc)" d="M 61.535795 165.929863 
L 76.974531 165.885239 
L 92.413266 165.846451 
L 107.852001 164.231163 
L 123.290736 142.87568 
L 138.729471 165.931695 
L 154.168207 164.395315 
L 169.606942 159.800406 
L 185.045677 162.007353 
L 200.484412 159.381165 
L 215.923147 122.400966 
L 231.361882 136.291971 
L 246.800618 157.007978 
L 262.239353 117.518855 
L 277.678088 136.396572 
L 293.116823 163.903652 
L 308.555558 164.94784 
L 323.994293 164.612948 
L 339.433029 164.86043 
L 354.871764 165.109123 
L 370.310499 165.334086 
L 385.749234 165.496628 
L 401.187969 165.619291 
L 416.626705 165.921453 
" style="fill:none;stroke:#1b9e77;stroke-linecap:square;stroke-opacity:0.5;stroke-width:1.5;"/>
   </g>
   <g id="line2d_22">
    <path clip-path="url(#pe3db2f5cfc)" d="M 61.535795 165.330337 
L 76.974531 163.876487 
L 92.413266 162.720936 
L 107.852001 161.567222 
L 123.290736 160.512335 
L 138.729471 159.598675 
L 154.168207 161.166473 
L 169.606942 149.25266 
L 185.045677 136.195252 
L 200.484412 144.961052 
L 215.923147 148.97387 
L 231.361882 141.566064 
L 246.800618 156.613174 
L 262.239353 164.154236 
L 277.678088 164.898727 
L 293.116823 162.955574 
L 308.555558 159.091356 
L 323.994293 161.149227 
L 339.433029 165.113596 
L 354.871764 165.61946 
L 370.310499 165.250911 
L 385.749234 156.787649 
L 401.187969 137.924554 
L 416.626705 156.426293 
" style="fill:none;stroke:#1b9e77;stroke-linecap:square;stroke-opacity:0.5;stroke-width:1.5;"/>
   </g>
   <g id="line2d_23">
    <path clip-path="url(#pe3db2f5cfc)" d="M 61.535795 160.120311 
L 76.974531 163.408881 
L 92.413266 165.405508 
L 107.852001 165.308136 
L 123.290736 165.33341 
L 138.729471 165.198764 
L 154.168207 165.369653 
L 169.606942 165.786047 
L 185.045677 165.842188 
L 200.484412 165.116944 
L 215.923147 150.601258 
L 231.361882 30.633718 
L 246.800618 129.302875 
L 262.239353 160.808187 
L 277.678088 163.844988 
L 293.116823 162.41364 
L 308.555558 165.817689 
L 323.994293 165.854282 
L 339.433029 165.883169 
L 354.871764 165.899823 
L 370.310499 165.918832 
L 385.749234 165.934124 
L 401.187969 165.945105 
L 416.626705 165.958599 
" style="fill:none;stroke:#1b9e77;stroke-linecap:square;stroke-opacity:0.5;stroke-width:1.5;"/>
   </g>
   <g id="line2d_24">
    <path clip-path="url(#pe3db2f5cfc)" d="M 61.535795 139.398489 
L 76.974531 153.108146 
L 92.413266 163.863931 
L 107.852001 162.611134 
L 123.290736 165.180413 
L 138.729471 165.6816 
L 154.168207 165.865085 
L 169.606942 165.881208 
L 185.045677 165.90206 
L 200.484412 165.919189 
L 215.923147 165.920617 
L 231.361882 165.93379 
L 246.800618 165.928071 
L 262.239353 165.956386 
L 277.678088 165.647606 
L 293.116823 148.572494 
L 308.555558 156.487426 
L 323.994293 152.858496 
L 339.433029 142.137396 
L 354.871764 143.056089 
L 370.310499 148.75018 
L 385.749234 143.413163 
L 401.187969 137.741632 
L 416.626705 155.891527 
" style="fill:none;stroke:#1b9e77;stroke-linecap:square;stroke-opacity:0.5;stroke-width:1.5;"/>
   </g>
   <g id="line2d_25">
    <path clip-path="url(#pe3db2f5cfc)" d="M 61.535795 164.748944 
L 76.974531 163.83367 
L 92.413266 163.015683 
L 107.852001 162.001345 
L 123.290736 160.014484 
L 138.729471 149.869674 
L 154.168207 150.833174 
L 169.606942 86.42527 
L 185.045677 165.707558 
L 200.484412 165.755627 
L 215.923147 165.823403 
L 231.361882 165.828606 
L 246.800618 165.857444 
L 262.239353 165.903319 
L 277.678088 165.808413 
L 293.116823 165.199909 
L 308.555558 161.72569 
L 323.994293 154.887452 
L 339.433029 162.021879 
L 354.871764 160.539108 
L 370.310499 159.429648 
L 385.749234 155.932944 
L 401.187969 140.799783 
L 416.626705 149.743104 
" style="fill:none;stroke:#1b9e77;stroke-linecap:square;stroke-opacity:0.5;stroke-width:1.5;"/>
   </g>
   <g id="line2d_26">
    <path clip-path="url(#pe3db2f5cfc)" d="M 61.535795 160.753157 
L 76.974531 162.828295 
L 92.413266 165.264887 
L 107.852001 165.305117 
L 123.290736 165.334132 
L 138.729471 165.004265 
L 154.168207 159.759322 
L 169.606942 162.789292 
L 185.045677 144.394679 
L 200.484412 144.295341 
L 215.923147 154.361496 
L 231.361882 122.638801 
L 246.800618 121.206275 
L 262.239353 158.361311 
L 277.678088 165.650483 
L 293.116823 162.276689 
L 308.555558 156.988177 
L 323.994293 162.505632 
L 339.433029 165.62219 
L 354.871764 165.901425 
L 370.310499 165.891541 
L 385.749234 153.644265 
L 401.187969 159.691633 
L 416.626705 161.237714 
" style="fill:none;stroke:#1b9e77;stroke-linecap:square;stroke-opacity:0.5;stroke-width:1.5;"/>
   </g>
   <g id="line2d_27">
    <path clip-path="url(#pe3db2f5cfc)" d="M 61.535795 165.695272 
L 76.974531 163.916447 
L 92.413266 158.07181 
L 107.852001 121.978315 
L 123.290736 112.958866 
L 138.729471 143.309573 
L 154.168207 148.943985 
L 169.606942 157.530218 
L 185.045677 142.973588 
L 200.484412 159.215319 
L 215.923147 159.244694 
L 231.361882 161.55239 
L 246.800618 162.967113 
L 262.239353 164.227281 
L 277.678088 165.36488 
L 293.116823 165.772398 
L 308.555558 165.412773 
L 323.994293 163.499997 
L 339.433029 164.390608 
L 354.871764 165.74042 
L 370.310499 165.758919 
L 385.749234 165.015834 
L 401.187969 162.335815 
L 416.626705 165.829613 
" style="fill:none;stroke:#1b9e77;stroke-linecap:square;stroke-opacity:0.5;stroke-width:1.5;"/>
   </g>
   <g id="line2d_28">
    <path clip-path="url(#pe3db2f5cfc)" d="M 61.535795 165.645154 
L 76.974531 165.736819 
L 92.413266 165.887034 
L 107.852001 165.893524 
L 123.290736 165.91638 
L 138.729471 165.926584 
L 154.168207 165.929678 
L 169.606942 165.937137 
L 185.045677 165.933844 
L 200.484412 165.925447 
L 215.923147 165.280111 
L 231.361882 165.135316 
L 246.800618 164.07455 
L 262.239353 163.678731 
L 277.678088 161.621926 
L 293.116823 158.696568 
L 308.555558 155.532994 
L 323.994293 152.171021 
L 339.433029 146.441036 
L 354.871764 142.470354 
L 370.310499 138.70748 
L 385.749234 130.863914 
L 401.187969 115.887762 
L 416.626705 152.412762 
" style="fill:none;stroke:#1b9e77;stroke-linecap:square;stroke-opacity:0.5;stroke-width:1.5;"/>
   </g>
   <g id="line2d_29">
    <path clip-path="url(#pe3db2f5cfc)" d="M 61.535795 163.311398 
L 76.974531 138.373748 
L 92.413266 161.345395 
L 107.852001 161.460452 
L 123.290736 162.428469 
L 138.729471 158.931787 
L 154.168207 164.73391 
L 169.606942 165.696957 
L 185.045677 165.822594 
L 200.484412 165.853587 
L 215.923147 165.791558 
L 231.361882 163.757918 
L 246.800618 154.412779 
L 262.239353 165.655443 
L 277.678088 161.254408 
L 293.116823 141.236971 
L 308.555558 155.742305 
L 323.994293 144.04213 
L 339.433029 111.348569 
L 354.871764 150.919779 
L 370.310499 161.922386 
L 385.749234 164.420227 
L 401.187969 163.178771 
L 416.626705 160.064577 
" style="fill:none;stroke:#1b9e77;stroke-linecap:square;stroke-opacity:0.5;stroke-width:1.5;"/>
   </g>
   <g id="line2d_30">
    <path clip-path="url(#pe3db2f5cfc)" d="M 61.535795 164.742207 
L 76.974531 165.447103 
L 92.413266 165.771742 
L 107.852001 165.749549 
L 123.290736 165.788276 
L 138.729471 165.7914 
L 154.168207 165.816092 
L 169.606942 165.854858 
L 185.045677 165.859555 
L 200.484412 165.796143 
L 215.923147 165.47314 
L 231.361882 165.768905 
L 246.800618 165.385825 
L 262.239353 156.058699 
L 277.678088 153.458847 
L 293.116823 155.482807 
L 308.555558 144.53698 
L 323.994293 125.145792 
L 339.433029 127.230503 
L 354.871764 135.399305 
L 370.310499 144.917169 
L 385.749234 147.593044 
L 401.187969 162.818104 
L 416.626705 165.820082 
" style="fill:none;stroke:#1b9e77;stroke-linecap:square;stroke-opacity:0.5;stroke-width:1.5;"/>
   </g>
   <g id="line2d_31">
    <path clip-path="url(#pe3db2f5cfc)" d="M 61.535795 165.253743 
L 76.974531 165.664305 
L 92.413266 165.852587 
L 107.852001 165.906003 
L 123.290736 165.438795 
L 138.729471 164.697556 
L 154.168207 160.434118 
L 169.606942 163.249903 
L 185.045677 165.231108 
L 200.484412 164.10635 
L 215.923147 160.835868 
L 231.361882 161.311447 
L 246.800618 161.18036 
L 262.239353 107.508447 
L 277.678088 144.436694 
L 293.116823 161.079563 
L 308.555558 162.530005 
L 323.994293 160.508827 
L 339.433029 164.506675 
L 354.871764 165.648307 
L 370.310499 165.527782 
L 385.749234 160.347525 
L 401.187969 118.24334 
L 416.626705 132.206814 
" style="fill:none;stroke:#1b9e77;stroke-linecap:square;stroke-opacity:0.5;stroke-width:1.5;"/>
   </g>
   <g id="line2d_32">
    <path clip-path="url(#pe3db2f5cfc)" d="M 61.535795 165.577053 
L 76.974531 164.881075 
L 92.413266 163.766212 
L 107.852001 161.307403 
L 123.290736 157.342328 
L 138.729471 161.139478 
L 154.168207 163.467541 
L 169.606942 163.207214 
L 185.045677 130.531712 
L 200.484412 116.598181 
L 215.923147 139.033466 
L 231.361882 144.270864 
L 246.800618 156.224195 
L 262.239353 159.272552 
L 277.678088 156.488551 
L 293.116823 160.339478 
L 308.555558 163.726791 
L 323.994293 163.88102 
L 339.433029 163.588764 
L 354.871764 163.596684 
L 370.310499 163.771945 
L 385.749234 163.128466 
L 401.187969 162.159193 
L 416.626705 164.405957 
" style="fill:none;stroke:#1b9e77;stroke-linecap:square;stroke-opacity:0.5;stroke-width:1.5;"/>
   </g>
   <g id="line2d_33">
    <path clip-path="url(#pe3db2f5cfc)" d="M 61.535795 104.639676 
L 76.974531 151.17633 
L 92.413266 161.748219 
L 107.852001 159.981805 
L 123.290736 163.345983 
L 138.729471 117.509887 
L 154.168207 137.761297 
L 169.606942 161.938288 
L 185.045677 163.287427 
L 200.484412 159.04166 
L 215.923147 156.327749 
L 231.361882 155.710036 
L 246.800618 165.088371 
L 262.239353 165.682188 
L 277.678088 165.830369 
L 293.116823 165.759824 
L 308.555558 165.630828 
L 323.994293 165.889365 
L 339.433029 165.938038 
L 354.871764 165.953048 
L 370.310499 164.220076 
L 385.749234 161.996701 
L 401.187969 162.498752 
L 416.626705 164.750202 
" style="fill:none;stroke:#1b9e77;stroke-linecap:square;stroke-opacity:0.5;stroke-width:1.5;"/>
   </g>
   <g id="line2d_34">
    <path clip-path="url(#pe3db2f5cfc)" d="M 61.535795 165.583676 
L 76.974531 164.904667 
L 92.413266 164.762511 
L 107.852001 165.295616 
L 123.290736 140.208497 
L 138.729471 121.492069 
L 154.168207 152.466387 
L 169.606942 155.732418 
L 185.045677 164.532383 
L 200.484412 165.668303 
L 215.923147 165.864086 
L 231.361882 165.893606 
L 246.800618 165.915229 
L 262.239353 165.845973 
L 277.678088 163.024702 
L 293.116823 164.219312 
L 308.555558 159.453398 
L 323.994293 162.670572 
L 339.433029 164.873996 
L 354.871764 164.963374 
L 370.310499 163.526682 
L 385.749234 154.376098 
L 401.187969 127.422075 
L 416.626705 123.010501 
" style="fill:none;stroke:#1b9e77;stroke-linecap:square;stroke-opacity:0.5;stroke-width:1.5;"/>
   </g>
   <g id="line2d_35">
    <path clip-path="url(#pe3db2f5cfc)" d="M 61.535795 150.678521 
L 76.974531 137.348154 
L 92.413266 144.543379 
L 107.852001 121.610884 
L 123.290736 135.905268 
L 138.729471 133.420406 
L 154.168207 154.02143 
L 169.606942 163.788613 
L 185.045677 164.531435 
L 200.484412 163.06291 
L 215.923147 162.075115 
L 231.361882 162.150226 
L 246.800618 164.786616 
L 262.239353 165.314711 
L 277.678088 165.572962 
L 293.116823 165.52581 
L 308.555558 165.667981 
L 323.994293 165.822302 
L 339.433029 165.882785 
L 354.871764 165.915067 
L 370.310499 165.877476 
L 385.749234 162.95712 
L 401.187969 161.456391 
L 416.626705 163.790561 
" style="fill:none;stroke:#1b9e77;stroke-linecap:square;stroke-opacity:0.5;stroke-width:1.5;"/>
   </g>
   <g id="line2d_36">
    <path clip-path="url(#pe3db2f5cfc)" d="M 61.535795 162.124042 
L 76.974531 139.532509 
L 92.413266 152.501295 
L 107.852001 164.32007 
L 123.290736 165.251315 
L 138.729471 157.308857 
L 154.168207 131.692557 
L 169.606942 142.887529 
L 185.045677 158.589251 
L 200.484412 164.712983 
L 215.923147 163.87379 
L 231.361882 138.658353 
L 246.800618 120.919425 
L 262.239353 156.309198 
L 277.678088 164.94075 
L 293.116823 164.599812 
L 308.555558 163.944503 
L 323.994293 164.68886 
L 339.433029 165.532428 
L 354.871764 165.758672 
L 370.310499 165.852321 
L 385.749234 165.86049 
L 401.187969 165.896704 
L 416.626705 165.950412 
" style="fill:none;stroke:#1b9e77;stroke-linecap:square;stroke-opacity:0.5;stroke-width:1.5;"/>
   </g>
   <g id="line2d_37">
    <path clip-path="url(#pe3db2f5cfc)" d="M 61.535795 154.333933 
L 76.974531 156.578951 
L 92.413266 134.08985 
L 107.852001 103.245189 
L 123.290736 161.032343 
L 138.729471 165.646461 
L 154.168207 165.863628 
L 169.606942 165.511503 
L 185.045677 121.192204 
L 200.484412 165.493216 
L 215.923147 165.865544 
L 231.361882 165.858581 
L 246.800618 165.308877 
L 262.239353 160.879706 
L 277.678088 165.841372 
L 293.116823 165.902174 
L 308.555558 165.916604 
L 323.994293 165.896497 
L 339.433029 165.744898 
L 354.871764 165.895999 
L 370.310499 165.8961 
L 385.749234 165.950335 
L 401.187969 160.451597 
L 416.626705 133.310556 
" style="fill:none;stroke:#1b9e77;stroke-linecap:square;stroke-opacity:0.5;stroke-width:1.5;"/>
   </g>
   <g id="line2d_38">
    <path clip-path="url(#pe3db2f5cfc)" d="M 61.535795 165.718616 
L 76.974531 165.273342 
L 92.413266 163.375769 
L 107.852001 164.632668 
L 123.290736 164.072818 
L 138.729471 160.243326 
L 154.168207 156.552467 
L 169.606942 154.463749 
L 185.045677 140.32828 
L 200.484412 78.448637 
L 215.923147 138.307246 
L 231.361882 155.756865 
L 246.800618 164.036113 
L 262.239353 165.173665 
L 277.678088 165.587433 
L 293.116823 165.534634 
L 308.555558 165.646422 
L 323.994293 165.829234 
L 339.433029 165.822577 
L 354.871764 165.686621 
L 370.310499 159.439103 
L 385.749234 160.596923 
L 401.187969 156.960799 
L 416.626705 164.218815 
" style="fill:none;stroke:#1b9e77;stroke-linecap:square;stroke-opacity:0.5;stroke-width:1.5;"/>
   </g>
   <g id="line2d_39">
    <path clip-path="url(#pe3db2f5cfc)" d="M 61.535795 160.082077 
L 76.974531 159.490375 
L 92.413266 163.100762 
L 107.852001 106.650307 
L 123.290736 82.001133 
L 138.729471 161.138483 
L 154.168207 165.213734 
L 169.606942 163.901542 
L 185.045677 163.482773 
L 200.484412 164.700453 
L 215.923147 165.464139 
L 231.361882 165.612245 
L 246.800618 165.536745 
L 262.239353 164.763747 
L 277.678088 149.332735 
L 293.116823 164.248762 
L 308.555558 163.974642 
L 323.994293 164.200051 
L 339.433029 164.27841 
L 354.871764 163.213864 
L 370.310499 162.083554 
L 385.749234 162.51227 
L 401.187969 162.125916 
L 416.626705 164.5974 
" style="fill:none;stroke:#1b9e77;stroke-linecap:square;stroke-opacity:0.5;stroke-width:1.5;"/>
   </g>
   <g id="line2d_40">
    <path clip-path="url(#pe3db2f5cfc)" d="M 61.535795 165.486296 
L 76.974531 165.294015 
L 92.413266 165.494986 
L 107.852001 165.209537 
L 123.290736 165.284856 
L 138.729471 165.75177 
L 154.168207 165.862687 
L 169.606942 165.916805 
L 185.045677 165.940575 
L 200.484412 165.510909 
L 215.923147 163.506876 
L 231.361882 163.691699 
L 246.800618 159.327814 
L 262.239353 158.888304 
L 277.678088 157.437287 
L 293.116823 156.249157 
L 308.555558 155.542256 
L 323.994293 151.479651 
L 339.433029 128.843579 
L 354.871764 121.713864 
L 370.310499 136.596563 
L 385.749234 147.802869 
L 401.187969 153.319522 
L 416.626705 161.55425 
" style="fill:none;stroke:#1b9e77;stroke-linecap:square;stroke-opacity:0.5;stroke-width:1.5;"/>
   </g>
   <g id="line2d_41">
    <path clip-path="url(#pe3db2f5cfc)" d="M 61.535795 164.734722 
L 76.974531 161.534983 
L 92.413266 115.685781 
L 107.852001 149.579857 
L 123.290736 157.662997 
L 138.729471 147.717943 
L 154.168207 159.421164 
L 169.606942 116.624351 
L 185.045677 136.407445 
L 200.484412 156.004182 
L 215.923147 164.017397 
L 231.361882 156.419776 
L 246.800618 164.478058 
L 262.239353 165.69162 
L 277.678088 165.863533 
L 293.116823 165.883604 
L 308.555558 165.691862 
L 323.994293 165.858354 
L 339.433029 165.895995 
L 354.871764 165.756205 
L 370.310499 165.593769 
L 385.749234 165.159358 
L 401.187969 164.815239 
L 416.626705 165.207933 
" style="fill:none;stroke:#1b9e77;stroke-linecap:square;stroke-opacity:0.5;stroke-width:1.5;"/>
   </g>
   <g id="line2d_42">
    <path clip-path="url(#pe3db2f5cfc)" d="M 61.535795 152.538158 
L 76.974531 136.766051 
L 92.413266 129.565572 
L 107.852001 155.84145 
L 123.290736 163.161105 
L 138.729471 158.301162 
L 154.168207 164.648392 
L 169.606942 165.827637 
L 185.045677 165.417275 
L 200.484412 159.264035 
L 215.923147 156.025839 
L 231.361882 147.131792 
L 246.800618 165.165129 
L 262.239353 165.565248 
L 277.678088 164.380065 
L 293.116823 148.462954 
L 308.555558 151.025207 
L 323.994293 163.325801 
L 339.433029 165.312715 
L 354.871764 165.335645 
L 370.310499 160.147796 
L 385.749234 154.091504 
L 401.187969 152.7168 
L 416.626705 161.688793 
" style="fill:none;stroke:#1b9e77;stroke-linecap:square;stroke-opacity:0.5;stroke-width:1.5;"/>
   </g>
   <g id="line2d_43">
    <path clip-path="url(#pe3db2f5cfc)" d="M 61.535795 162.680508 
L 76.974531 164.708682 
L 92.413266 165.741002 
L 107.852001 165.688787 
L 123.290736 165.65224 
L 138.729471 165.510261 
L 154.168207 165.489686 
L 169.606942 165.88962 
L 185.045677 165.925604 
L 200.484412 165.896855 
L 215.923147 165.754156 
L 231.361882 165.430015 
L 246.800618 164.90663 
L 262.239353 163.474826 
L 277.678088 153.655332 
L 293.116823 143.404307 
L 308.555558 153.821203 
L 323.994293 111.996422 
L 339.433029 99.457273 
L 354.871764 146.603763 
L 370.310499 159.782137 
L 385.749234 161.201315 
L 401.187969 163.330883 
L 416.626705 165.704617 
" style="fill:none;stroke:#1b9e77;stroke-linecap:square;stroke-opacity:0.5;stroke-width:1.5;"/>
   </g>
   <g id="line2d_44">
    <path clip-path="url(#pe3db2f5cfc)" d="M 61.535795 121.501165 
L 76.974531 158.710611 
L 92.413266 165.459459 
L 107.852001 165.456245 
L 123.290736 165.221018 
L 138.729471 147.56926 
L 154.168207 123.748168 
L 169.606942 151.921625 
L 185.045677 156.783365 
L 200.484412 147.65766 
L 215.923147 135.972623 
L 231.361882 153.745476 
L 246.800618 161.419191 
L 262.239353 162.635116 
L 277.678088 164.327045 
L 293.116823 164.565977 
L 308.555558 164.8381 
L 323.994293 165.267454 
L 339.433029 165.638009 
L 354.871764 165.724603 
L 370.310499 165.828705 
L 385.749234 165.869971 
L 401.187969 165.898657 
L 416.626705 165.946624 
" style="fill:none;stroke:#1b9e77;stroke-linecap:square;stroke-opacity:0.5;stroke-width:1.5;"/>
   </g>
   <g id="line2d_45">
    <path clip-path="url(#pe3db2f5cfc)" d="M 61.535795 165.642979 
L 76.974531 161.455065 
L 92.413266 159.952213 
L 107.852001 103.580877 
L 123.290736 159.652094 
L 138.729471 165.709609 
L 154.168207 165.620162 
L 169.606942 128.236971 
L 185.045677 124.811372 
L 200.484412 152.022071 
L 215.923147 165.139588 
L 231.361882 165.51696 
L 246.800618 165.450989 
L 262.239353 164.717709 
L 277.678088 165.063623 
L 293.116823 165.792679 
L 308.555558 165.800739 
L 323.994293 165.640649 
L 339.433029 164.112217 
L 354.871764 161.800449 
L 370.310499 160.184032 
L 385.749234 157.785392 
L 401.187969 155.355917 
L 416.626705 162.66176 
" style="fill:none;stroke:#1b9e77;stroke-linecap:square;stroke-opacity:0.5;stroke-width:1.5;"/>
   </g>
   <g id="line2d_46">
    <path clip-path="url(#pe3db2f5cfc)" d="M 61.535795 162.152185 
L 76.974531 162.653791 
L 92.413266 161.655066 
L 107.852001 155.798438 
L 123.290736 149.725063 
L 138.729471 150.428673 
L 154.168207 159.891956 
L 169.606942 165.063524 
L 185.045677 165.631074 
L 200.484412 165.858714 
L 215.923147 165.088425 
L 231.361882 157.865782 
L 246.800618 154.906999 
L 262.239353 160.991064 
L 277.678088 161.392235 
L 293.116823 157.447679 
L 308.555558 158.528114 
L 323.994293 156.898245 
L 339.433029 152.801305 
L 354.871764 150.388658 
L 370.310499 150.108381 
L 385.749234 146.217806 
L 401.187969 140.704051 
L 416.626705 159.508895 
" style="fill:none;stroke:#1b9e77;stroke-linecap:square;stroke-opacity:0.5;stroke-width:1.5;"/>
   </g>
   <g id="line2d_47">
    <path clip-path="url(#pe3db2f5cfc)" d="M 61.535795 163.687197 
L 76.974531 163.61112 
L 92.413266 164.411602 
L 107.852001 163.856161 
L 123.290736 163.429353 
L 138.729471 164.164747 
L 154.168207 164.923278 
L 169.606942 165.177592 
L 185.045677 165.264289 
L 200.484412 165.262223 
L 215.923147 165.400262 
L 231.361882 165.560045 
L 246.800618 165.558252 
L 262.239353 165.843358 
L 277.678088 150.784814 
L 293.116823 148.596725 
L 308.555558 152.33324 
L 323.994293 148.612471 
L 339.433029 127.452526 
L 354.871764 127.532091 
L 370.310499 140.054066 
L 385.749234 147.928115 
L 401.187969 161.494307 
L 416.626705 160.768293 
" style="fill:none;stroke:#1b9e77;stroke-linecap:square;stroke-opacity:0.5;stroke-width:1.5;"/>
   </g>
   <g id="line2d_48">
    <path clip-path="url(#pe3db2f5cfc)" d="M 61.535795 163.951714 
L 76.974531 132.837671 
L 92.413266 80.575616 
L 107.852001 125.078077 
L 123.290736 154.073893 
L 138.729471 157.372032 
L 154.168207 159.098144 
L 169.606942 163.233482 
L 185.045677 165.403433 
L 200.484412 165.645183 
L 215.923147 165.599066 
L 231.361882 165.273877 
L 246.800618 165.733174 
L 262.239353 165.806911 
L 277.678088 165.85727 
L 293.116823 165.84528 
L 308.555558 165.851792 
L 323.994293 165.851791 
L 339.433029 165.84141 
L 354.871764 165.847302 
L 370.310499 165.798736 
L 385.749234 165.901508 
L 401.187969 165.40201 
L 416.626705 149.82675 
" style="fill:none;stroke:#1b9e77;stroke-linecap:square;stroke-opacity:0.5;stroke-width:1.5;"/>
   </g>
   <g id="line2d_49">
    <path clip-path="url(#pe3db2f5cfc)" d="M 61.535795 163.236741 
L 76.974531 160.822185 
L 92.413266 165.38561 
L 107.852001 165.621775 
L 123.290736 165.744725 
L 138.729471 165.65618 
L 154.168207 165.618683 
L 169.606942 165.74216 
L 185.045677 165.810739 
L 200.484412 165.86008 
L 215.923147 165.813091 
L 231.361882 165.260725 
L 246.800618 159.512478 
L 262.239353 163.612342 
L 277.678088 156.851448 
L 293.116823 158.861644 
L 308.555558 161.541553 
L 323.994293 158.40661 
L 339.433029 142.724621 
L 354.871764 138.539739 
L 370.310499 138.818685 
L 385.749234 109.174524 
L 401.187969 138.491415 
L 416.626705 164.59837 
" style="fill:none;stroke:#1b9e77;stroke-linecap:square;stroke-opacity:0.5;stroke-width:1.5;"/>
   </g>
   <g id="line2d_50">
    <path clip-path="url(#pe3db2f5cfc)" d="M 61.535795 165.781226 
L 76.974531 165.792487 
L 92.413266 165.888022 
L 107.852001 165.863613 
L 123.290736 165.87773 
L 138.729471 165.9306 
L 154.168207 165.942372 
L 169.606942 165.952027 
L 185.045677 165.844929 
L 200.484412 164.994872 
L 215.923147 159.985232 
L 231.361882 157.420991 
L 246.800618 154.24361 
L 262.239353 153.110326 
L 277.678088 149.927663 
L 293.116823 98.091589 
L 308.555558 118.504408 
L 323.994293 140.621526 
L 339.433029 159.054302 
L 354.871764 162.085178 
L 370.310499 164.291602 
L 385.749234 165.076641 
L 401.187969 165.522286 
L 416.626705 165.90289 
" style="fill:none;stroke:#1b9e77;stroke-linecap:square;stroke-opacity:0.5;stroke-width:1.5;"/>
   </g>
   <g id="line2d_51">
    <path clip-path="url(#pe3db2f5cfc)" d="M 61.535795 165.844547 
L 76.974531 165.718028 
L 92.413266 165.848662 
L 107.852001 165.856839 
L 123.290736 165.837107 
L 138.729471 165.850502 
L 154.168207 165.854249 
L 169.606942 165.950466 
L 185.045677 160.050047 
L 200.484412 157.920734 
L 215.923147 162.180987 
L 231.361882 161.578688 
L 246.800618 161.303357 
L 262.239353 160.977563 
L 277.678088 159.693055 
L 293.116823 159.313865 
L 308.555558 159.74549 
L 323.994293 157.955073 
L 339.433029 148.208553 
L 354.871764 135.478106 
L 370.310499 140.623307 
L 385.749234 134.727576 
L 401.187969 150.354218 
L 416.626705 134.835108 
" style="fill:none;stroke:#1b9e77;stroke-linecap:square;stroke-opacity:0.5;stroke-width:1.5;"/>
   </g>
   <g id="line2d_52">
    <path clip-path="url(#pe3db2f5cfc)" d="M 61.535795 160.894894 
L 76.974531 131.68891 
L 92.413266 104.373857 
L 107.852001 120.584972 
L 123.290736 141.424916 
L 138.729471 154.307164 
L 154.168207 164.471609 
L 169.606942 164.798575 
L 185.045677 165.34706 
L 200.484412 165.723199 
L 215.923147 165.849525 
L 231.361882 165.785604 
L 246.800618 165.780277 
L 262.239353 165.901898 
L 277.678088 165.92339 
L 293.116823 165.405137 
L 308.555558 162.594025 
L 323.994293 160.165395 
L 339.433029 155.792758 
L 354.871764 164.827334 
L 370.310499 165.147013 
L 385.749234 164.791486 
L 401.187969 164.875515 
L 416.626705 165.251615 
" style="fill:none;stroke:#1b9e77;stroke-linecap:square;stroke-opacity:0.5;stroke-width:1.5;"/>
   </g>
   <g id="line2d_53">
    <path clip-path="url(#pe3db2f5cfc)" d="M 61.535795 165.077493 
L 76.974531 158.285342 
L 92.413266 147.030337 
L 107.852001 124.299802 
L 123.290736 138.451332 
L 138.729471 144.481723 
L 154.168207 137.853951 
L 169.606942 132.282997 
L 185.045677 150.139525 
L 200.484412 161.874403 
L 215.923147 165.071198 
L 231.361882 164.66466 
L 246.800618 165.084639 
L 262.239353 165.643798 
L 277.678088 165.829665 
L 293.116823 165.845596 
L 308.555558 165.844742 
L 323.994293 165.727 
L 339.433029 165.351331 
L 354.871764 165.640297 
L 370.310499 165.476757 
L 385.749234 165.05 
L 401.187969 163.846091 
L 416.626705 162.853441 
" style="fill:none;stroke:#1b9e77;stroke-linecap:square;stroke-opacity:0.5;stroke-width:1.5;"/>
   </g>
   <g id="line2d_54">
    <path clip-path="url(#pe3db2f5cfc)" d="M 61.535795 153.225677 
L 76.974531 157.949033 
L 92.413266 159.403315 
L 107.852001 157.264783 
L 123.290736 135.714082 
L 138.729471 120.126998 
L 154.168207 146.792106 
L 169.606942 155.591889 
L 185.045677 111.98348 
L 200.484412 154.162043 
L 215.923147 164.769018 
L 231.361882 165.083931 
L 246.800618 165.603575 
L 262.239353 165.599317 
L 277.678088 165.407805 
L 293.116823 165.851019 
L 308.555558 165.881361 
L 323.994293 165.86831 
L 339.433029 165.863071 
L 354.871764 165.870625 
L 370.310499 165.883396 
L 385.749234 165.918298 
L 401.187969 165.936663 
L 416.626705 165.956327 
" style="fill:none;stroke:#1b9e77;stroke-linecap:square;stroke-opacity:0.5;stroke-width:1.5;"/>
   </g>
   <g id="line2d_55">
    <path clip-path="url(#pe3db2f5cfc)" d="M 61.535795 164.415181 
L 76.974531 158.951335 
L 92.413266 158.474536 
L 107.852001 154.123985 
L 123.290736 135.547105 
L 138.729471 136.02164 
L 154.168207 152.639451 
L 169.606942 148.693168 
L 185.045677 145.819364 
L 200.484412 149.063197 
L 215.923147 158.553723 
L 231.361882 157.700623 
L 246.800618 161.154605 
L 262.239353 149.651503 
L 277.678088 158.968678 
L 293.116823 161.93645 
L 308.555558 164.774664 
L 323.994293 164.979761 
L 339.433029 164.97961 
L 354.871764 165.315617 
L 370.310499 165.386152 
L 385.749234 165.225863 
L 401.187969 165.115777 
L 416.626705 164.214138 
" style="fill:none;stroke:#1b9e77;stroke-linecap:square;stroke-opacity:0.5;stroke-width:1.5;"/>
   </g>
   <g id="line2d_56">
    <path clip-path="url(#pe3db2f5cfc)" d="M 61.535795 161.979423 
L 76.974531 162.132457 
L 92.413266 165.125377 
L 107.852001 165.218704 
L 123.290736 165.438049 
L 138.729471 165.603113 
L 154.168207 165.555201 
L 169.606942 164.467176 
L 185.045677 163.929223 
L 200.484412 164.149336 
L 215.923147 165.106238 
L 231.361882 165.259656 
L 246.800618 165.234108 
L 262.239353 162.958109 
L 277.678088 161.591173 
L 293.116823 165.583439 
L 308.555558 165.738661 
L 323.994293 165.525208 
L 339.433029 130.166109 
L 354.871764 139.973538 
L 370.310499 138.002211 
L 385.749234 151.484653 
L 401.187969 127.079448 
L 416.626705 124.405516 
" style="fill:none;stroke:#1b9e77;stroke-linecap:square;stroke-opacity:0.5;stroke-width:1.5;"/>
   </g>
   <g id="line2d_57">
    <path clip-path="url(#pe3db2f5cfc)" d="M 61.535795 158.536117 
L 76.974531 133.031206 
L 92.413266 149.501402 
L 107.852001 162.856448 
L 123.290736 165.053221 
L 138.729471 165.258445 
L 154.168207 165.475524 
L 169.606942 165.459388 
L 185.045677 165.625681 
L 200.484412 165.69143 
L 215.923147 165.711044 
L 231.361882 165.65371 
L 246.800618 165.718968 
L 262.239353 165.897547 
L 277.678088 165.90037 
L 293.116823 162.278283 
L 308.555558 151.17371 
L 323.994293 153.790386 
L 339.433029 149.964403 
L 354.871764 116.901829 
L 370.310499 155.457398 
L 385.749234 162.815178 
L 401.187969 134.274921 
L 416.626705 159.679516 
" style="fill:none;stroke:#1b9e77;stroke-linecap:square;stroke-opacity:0.5;stroke-width:1.5;"/>
   </g>
   <g id="line2d_58">
    <path clip-path="url(#pe3db2f5cfc)" d="M 61.535795 165.667555 
L 76.974531 165.555787 
L 92.413266 165.343446 
L 107.852001 164.449358 
L 123.290736 163.179709 
L 138.729471 162.635952 
L 154.168207 161.538483 
L 169.606942 160.903302 
L 185.045677 159.439028 
L 200.484412 145.204124 
L 215.923147 81.052966 
L 231.361882 143.019258 
L 246.800618 164.755902 
L 262.239353 157.126514 
L 277.678088 154.688732 
L 293.116823 165.721403 
L 308.555558 165.428203 
L 323.994293 159.596508 
L 339.433029 156.757756 
L 354.871764 161.570735 
L 370.310499 164.044248 
L 385.749234 164.03469 
L 401.187969 155.464718 
L 416.626705 164.527744 
" style="fill:none;stroke:#1b9e77;stroke-linecap:square;stroke-opacity:0.5;stroke-width:1.5;"/>
   </g>
   <g id="line2d_59">
    <path clip-path="url(#pe3db2f5cfc)" d="M 61.535795 162.959983 
L 76.974531 142.846822 
L 92.413266 119.44178 
L 107.852001 140.631071 
L 123.290736 161.232544 
L 138.729471 164.905147 
L 154.168207 165.188085 
L 169.606942 163.629587 
L 185.045677 164.561215 
L 200.484412 165.706812 
L 215.923147 165.849202 
L 231.361882 165.822594 
L 246.800618 143.519637 
L 262.239353 162.450595 
L 277.678088 159.959944 
L 293.116823 160.375925 
L 308.555558 161.791637 
L 323.994293 161.619845 
L 339.433029 160.406827 
L 354.871764 158.65136 
L 370.310499 154.697509 
L 385.749234 150.705385 
L 401.187969 155.055323 
L 416.626705 159.697296 
" style="fill:none;stroke:#1b9e77;stroke-linecap:square;stroke-opacity:0.5;stroke-width:1.5;"/>
   </g>
   <g id="line2d_60">
    <path clip-path="url(#pe3db2f5cfc)" d="M 61.535795 158.340561 
L 76.974531 152.148542 
L 92.413266 156.505401 
L 107.852001 147.253431 
L 123.290736 148.547606 
L 138.729471 159.24105 
L 154.168207 159.844545 
L 169.606942 154.901167 
L 185.045677 159.213295 
L 200.484412 155.919002 
L 215.923147 145.989475 
L 231.361882 159.839692 
L 246.800618 161.121249 
L 262.239353 152.913358 
L 277.678088 133.839925 
L 293.116823 145.790905 
L 308.555558 164.715733 
L 323.994293 164.962174 
L 339.433029 165.237869 
L 354.871764 165.552428 
L 370.310499 165.761521 
L 385.749234 165.881525 
L 401.187969 165.790772 
L 416.626705 162.394901 
" style="fill:none;stroke:#1b9e77;stroke-linecap:square;stroke-opacity:0.5;stroke-width:1.5;"/>
   </g>
   <g id="line2d_61">
    <path clip-path="url(#pe3db2f5cfc)" d="M 61.535795 164.552475 
L 76.974531 163.256831 
L 92.413266 158.14944 
L 107.852001 158.522583 
L 123.290736 156.771333 
L 138.729471 159.440873 
L 154.168207 156.818659 
L 169.606942 154.324083 
L 185.045677 147.542433 
L 200.484412 123.019952 
L 215.923147 132.699805 
L 231.361882 125.835118 
L 246.800618 147.685424 
L 262.239353 164.445065 
L 277.678088 165.674213 
L 293.116823 165.684232 
L 308.555558 165.83072 
L 323.994293 165.871806 
L 339.433029 165.904651 
L 354.871764 165.910059 
L 370.310499 165.923693 
L 385.749234 165.937991 
L 401.187969 165.946218 
L 416.626705 165.95847 
" style="fill:none;stroke:#1b9e77;stroke-linecap:square;stroke-opacity:0.5;stroke-width:1.5;"/>
   </g>
   <g id="line2d_62">
    <path clip-path="url(#pe3db2f5cfc)" d="M 61.535795 165.957269 
L 76.974531 165.949056 
L 92.413266 165.935391 
L 107.852001 165.940748 
L 123.290736 165.931251 
L 138.729471 165.944466 
L 154.168207 160.227553 
L 169.606942 158.681524 
L 185.045677 136.30863 
L 200.484412 140.157577 
L 215.923147 95.240032 
L 231.361882 134.174677 
L 246.800618 160.79004 
L 262.239353 152.902215 
L 277.678088 156.818483 
L 293.116823 161.080984 
L 308.555558 165.732399 
L 323.994293 165.856228 
L 339.433029 164.684112 
L 354.871764 161.410895 
L 370.310499 164.139425 
L 385.749234 165.939113 
L 401.187969 165.951276 
L 416.626705 165.952776 
" style="fill:none;stroke:#1b9e77;stroke-linecap:square;stroke-opacity:0.5;stroke-width:1.5;"/>
   </g>
   <g id="line2d_63">
    <path clip-path="url(#pe3db2f5cfc)" d="M 61.535795 147.451162 
L 76.974531 128.848184 
L 92.413266 109.68373 
L 107.852001 138.850732 
L 123.290736 164.042831 
L 138.729471 156.825181 
L 154.168207 157.409605 
L 169.606942 165.866811 
L 185.045677 165.448373 
L 200.484412 165.46886 
L 215.923147 165.554806 
L 231.361882 164.887438 
L 246.800618 164.898814 
L 262.239353 165.135705 
L 277.678088 165.22197 
L 293.116823 164.79155 
L 308.555558 164.390411 
L 323.994293 163.77753 
L 339.433029 161.944131 
L 354.871764 160.408789 
L 370.310499 159.613396 
L 385.749234 155.817337 
L 401.187969 153.474516 
L 416.626705 161.894259 
" style="fill:none;stroke:#1b9e77;stroke-linecap:square;stroke-opacity:0.5;stroke-width:1.5;"/>
   </g>
   <g id="line2d_64">
    <path clip-path="url(#pe3db2f5cfc)" d="M 61.535795 165.956458 
L 76.974531 165.945023 
L 92.413266 165.947148 
L 107.852001 165.950473 
L 123.290736 165.950951 
L 138.729471 165.959764 
L 154.168207 165.279301 
L 169.606942 162.111975 
L 185.045677 164.284315 
L 200.484412 162.684408 
L 215.923147 157.479996 
L 231.361882 157.240215 
L 246.800618 149.836321 
L 262.239353 109.555344 
L 277.678088 131.344709 
L 293.116823 157.394096 
L 308.555558 164.209951 
L 323.994293 164.493311 
L 339.433029 163.291082 
L 354.871764 159.890865 
L 370.310499 158.771539 
L 385.749234 161.969362 
L 401.187969 153.011997 
L 416.626705 133.147515 
" style="fill:none;stroke:#1b9e77;stroke-linecap:square;stroke-opacity:0.5;stroke-width:1.5;"/>
   </g>
   <g id="line2d_65">
    <path clip-path="url(#pe3db2f5cfc)" d="M 61.535795 165.731864 
L 76.974531 165.370097 
L 92.413266 165.620316 
L 107.852001 165.620741 
L 123.290736 165.661403 
L 138.729471 165.779443 
L 154.168207 165.82571 
L 169.606942 165.737051 
L 185.045677 163.880521 
L 200.484412 164.785617 
L 215.923147 165.017808 
L 231.361882 164.163016 
L 246.800618 158.888127 
L 262.239353 154.168556 
L 277.678088 153.967614 
L 293.116823 156.941028 
L 308.555558 153.77869 
L 323.994293 151.178904 
L 339.433029 154.081103 
L 354.871764 159.23488 
L 370.310499 159.175494 
L 385.749234 154.208112 
L 401.187969 88.192174 
L 416.626705 144.697859 
" style="fill:none;stroke:#1b9e77;stroke-linecap:square;stroke-opacity:0.5;stroke-width:1.5;"/>
   </g>
   <g id="line2d_66">
    <path clip-path="url(#pe3db2f5cfc)" d="M 61.535795 160.296978 
L 76.974531 153.440038 
L 92.413266 143.54158 
L 107.852001 142.308079 
L 123.290736 161.710486 
L 138.729471 165.591254 
L 154.168207 165.840276 
L 169.606942 165.731845 
L 185.045677 165.673406 
L 200.484412 165.725843 
L 215.923147 165.786569 
L 231.361882 165.844469 
L 246.800618 165.821872 
L 262.239353 165.623263 
L 277.678088 163.082552 
L 293.116823 162.939991 
L 308.555558 161.794992 
L 323.994293 161.798904 
L 339.433029 152.45935 
L 354.871764 136.848487 
L 370.310499 126.71961 
L 385.749234 153.631669 
L 401.187969 155.526112 
L 416.626705 143.968508 
" style="fill:none;stroke:#1b9e77;stroke-linecap:square;stroke-opacity:0.5;stroke-width:1.5;"/>
   </g>
   <g id="line2d_67">
    <path clip-path="url(#pe3db2f5cfc)" d="M 61.535795 162.262769 
L 76.974531 157.647197 
L 92.413266 160.004943 
L 107.852001 162.726175 
L 123.290736 164.557008 
L 138.729471 164.967634 
L 154.168207 160.317899 
L 169.606942 152.73183 
L 185.045677 154.823537 
L 200.484412 157.318272 
L 215.923147 157.046185 
L 231.361882 159.9389 
L 246.800618 155.646133 
L 262.239353 150.885832 
L 277.678088 147.180494 
L 293.116823 157.649517 
L 308.555558 163.330653 
L 323.994293 163.768374 
L 339.433029 155.571022 
L 354.871764 153.434817 
L 370.310499 157.434818 
L 385.749234 159.642772 
L 401.187969 156.422654 
L 416.626705 136.396687 
" style="fill:none;stroke:#1b9e77;stroke-linecap:square;stroke-opacity:0.5;stroke-width:1.5;"/>
   </g>
   <g id="line2d_68">
    <path clip-path="url(#pe3db2f5cfc)" d="M 61.535795 165.818702 
L 76.974531 165.807239 
L 92.413266 165.876053 
L 107.852001 165.840845 
L 123.290736 165.83567 
L 138.729471 165.896284 
L 154.168207 165.915174 
L 169.606942 165.937813 
L 185.045677 165.932893 
L 200.484412 164.824696 
L 215.923147 156.654927 
L 231.361882 159.468984 
L 246.800618 161.87522 
L 262.239353 161.627193 
L 277.678088 162.255626 
L 293.116823 159.600252 
L 308.555558 144.397663 
L 323.994293 111.128543 
L 339.433029 110.277763 
L 354.871764 158.30155 
L 370.310499 159.01153 
L 385.749234 139.479498 
L 401.187969 164.100053 
L 416.626705 165.841952 
" style="fill:none;stroke:#1b9e77;stroke-linecap:square;stroke-opacity:0.5;stroke-width:1.5;"/>
   </g>
   <g id="line2d_69">
    <path clip-path="url(#pe3db2f5cfc)" d="M 61.535795 165.623601 
L 76.974531 165.560686 
L 92.413266 165.579791 
L 107.852001 165.306336 
L 123.290736 163.907927 
L 138.729471 163.349571 
L 154.168207 164.185745 
L 169.606942 164.610481 
L 185.045677 163.877638 
L 200.484412 153.849945 
L 215.923147 123.733569 
L 231.361882 121.948711 
L 246.800618 155.902454 
L 262.239353 157.057571 
L 277.678088 145.571123 
L 293.116823 141.409183 
L 308.555558 149.677165 
L 323.994293 155.0204 
L 339.433029 161.119139 
L 354.871764 163.224562 
L 370.310499 164.643727 
L 385.749234 165.491241 
L 401.187969 165.807139 
L 416.626705 165.248421 
" style="fill:none;stroke:#1b9e77;stroke-linecap:square;stroke-opacity:0.5;stroke-width:1.5;"/>
   </g>
   <g id="line2d_70">
    <path clip-path="url(#pe3db2f5cfc)" d="M 61.535795 161.732351 
L 76.974531 164.370855 
L 92.413266 165.012544 
L 107.852001 165.05395 
L 123.290736 164.198617 
L 138.729471 160.163953 
L 154.168207 159.907893 
L 169.606942 159.104521 
L 185.045677 160.305595 
L 200.484412 162.031423 
L 215.923147 160.79252 
L 231.361882 158.188765 
L 246.800618 163.124263 
L 262.239353 162.712331 
L 277.678088 160.193139 
L 293.116823 159.875914 
L 308.555558 120.391513 
L 323.994293 97.203535 
L 339.433029 139.625815 
L 354.871764 164.22865 
L 370.310499 165.770282 
L 385.749234 165.854103 
L 401.187969 165.913931 
L 416.626705 165.949665 
" style="fill:none;stroke:#1b9e77;stroke-linecap:square;stroke-opacity:0.5;stroke-width:1.5;"/>
   </g>
   <g id="line2d_71">
    <path clip-path="url(#pe3db2f5cfc)" d="M 61.535795 165.958162 
L 76.974531 165.947827 
L 92.413266 165.943998 
L 107.852001 165.942821 
L 123.290736 165.943218 
L 138.729471 165.953983 
L 154.168207 165.954898 
L 169.606942 165.709587 
L 185.045677 164.380567 
L 200.484412 165.210469 
L 215.923147 164.083275 
L 231.361882 164.976239 
L 246.800618 165.105161 
L 262.239353 164.622916 
L 277.678088 163.371977 
L 293.116823 159.833239 
L 308.555558 149.809868 
L 323.994293 136.039652 
L 339.433029 134.000401 
L 354.871764 129.489896 
L 370.310499 137.950354 
L 385.749234 144.060694 
L 401.187969 143.180554 
L 416.626705 158.236369 
" style="fill:none;stroke:#1b9e77;stroke-linecap:square;stroke-opacity:0.5;stroke-width:1.5;"/>
   </g>
   <g id="line2d_72">
    <path clip-path="url(#pe3db2f5cfc)" d="M 61.535795 164.29753 
L 76.974531 163.532609 
L 92.413266 165.324009 
L 107.852001 165.589177 
L 123.290736 165.640854 
L 138.729471 165.387711 
L 154.168207 163.430625 
L 169.606942 164.012452 
L 185.045677 162.849862 
L 200.484412 162.147217 
L 215.923147 151.852296 
L 231.361882 147.729835 
L 246.800618 141.433784 
L 262.239353 150.356861 
L 277.678088 139.955645 
L 293.116823 132.113603 
L 308.555558 137.811255 
L 323.994293 165.532864 
L 339.433029 165.810216 
L 354.871764 137.965775 
L 370.310499 161.316543 
L 385.749234 165.708139 
L 401.187969 165.948518 
L 416.626705 165.958747 
" style="fill:none;stroke:#1b9e77;stroke-linecap:square;stroke-opacity:0.5;stroke-width:1.5;"/>
   </g>
   <g id="line2d_73">
    <path clip-path="url(#pe3db2f5cfc)" d="M 61.535795 165.670187 
L 76.974531 165.288886 
L 92.413266 165.201867 
L 107.852001 164.521431 
L 123.290736 158.677086 
L 138.729471 160.636616 
L 154.168207 165.229495 
L 169.606942 165.073336 
L 185.045677 110.778887 
L 200.484412 139.41671 
L 215.923147 142.960766 
L 231.361882 142.335633 
L 246.800618 135.583296 
L 262.239353 165.642724 
L 277.678088 165.85071 
L 293.116823 153.996586 
L 308.555558 161.59881 
L 323.994293 163.596986 
L 339.433029 161.972807 
L 354.871764 162.173371 
L 370.310499 164.013277 
L 385.749234 163.783442 
L 401.187969 162.751672 
L 416.626705 164.951541 
" style="fill:none;stroke:#1b9e77;stroke-linecap:square;stroke-opacity:0.5;stroke-width:1.5;"/>
   </g>
   <g id="line2d_74">
    <path clip-path="url(#pe3db2f5cfc)" d="M 61.535795 146.628129 
L 76.974531 148.939553 
L 92.413266 162.112652 
L 107.852001 163.189256 
L 123.290736 163.681597 
L 138.729471 162.36422 
L 154.168207 154.207055 
L 169.606942 153.19358 
L 185.045677 154.553261 
L 200.484412 162.483971 
L 215.923147 163.27563 
L 231.361882 150.746506 
L 246.800618 137.537381 
L 262.239353 163.983137 
L 277.678088 165.737041 
L 293.116823 165.827483 
L 308.555558 165.894188 
L 323.994293 165.924536 
L 339.433029 161.97789 
L 354.871764 155.658421 
L 370.310499 152.148942 
L 385.749234 152.702778 
L 401.187969 153.090365 
L 416.626705 145.848556 
" style="fill:none;stroke:#1b9e77;stroke-linecap:square;stroke-opacity:0.5;stroke-width:1.5;"/>
   </g>
   <g id="line2d_75">
    <path clip-path="url(#pe3db2f5cfc)" d="M 61.535795 160.781099 
L 76.974531 108.671974 
L 92.413266 125.728411 
L 107.852001 143.947001 
L 123.290736 146.739444 
L 138.729471 134.963749 
L 154.168207 149.07285 
L 169.606942 161.995988 
L 185.045677 165.281753 
L 200.484412 165.703331 
L 215.923147 165.787303 
L 231.361882 164.448621 
L 246.800618 164.470377 
L 262.239353 165.824234 
L 277.678088 165.910082 
L 293.116823 165.890501 
L 308.555558 165.870619 
L 323.994293 165.853468 
L 339.433029 165.850657 
L 354.871764 165.915929 
L 370.310499 165.908074 
L 385.749234 165.053116 
L 401.187969 162.090532 
L 416.626705 159.947008 
" style="fill:none;stroke:#1b9e77;stroke-linecap:square;stroke-opacity:0.5;stroke-width:1.5;"/>
   </g>
   <g id="line2d_76">
    <path clip-path="url(#pe3db2f5cfc)" d="M 61.535795 165.944786 
L 76.974531 165.937506 
L 92.413266 165.944621 
L 107.852001 165.800217 
L 123.290736 164.246649 
L 138.729471 164.802135 
L 154.168207 165.775428 
L 169.606942 165.844567 
L 185.045677 165.223177 
L 200.484412 156.296089 
L 215.923147 154.064666 
L 231.361882 164.041362 
L 246.800618 164.546075 
L 262.239353 160.517472 
L 277.678088 103.160168 
L 293.116823 84.290762 
L 308.555558 153.928546 
L 323.994293 164.291628 
L 339.433029 165.050708 
L 354.871764 157.079912 
L 370.310499 157.341365 
L 385.749234 165.711897 
L 401.187969 165.915245 
L 416.626705 165.951142 
" style="fill:none;stroke:#1b9e77;stroke-linecap:square;stroke-opacity:0.5;stroke-width:1.5;"/>
   </g>
   <g id="line2d_77">
    <path clip-path="url(#pe3db2f5cfc)" d="M 61.535795 165.886299 
L 76.974531 165.749675 
L 92.413266 165.846669 
L 107.852001 165.853416 
L 123.290736 165.863637 
L 138.729471 165.854349 
L 154.168207 165.832715 
L 169.606942 165.858864 
L 185.045677 165.881942 
L 200.484412 165.803215 
L 215.923147 164.495066 
L 231.361882 165.151311 
L 246.800618 165.398584 
L 262.239353 165.403954 
L 277.678088 165.317641 
L 293.116823 160.861099 
L 308.555558 121.157154 
L 323.994293 161.523105 
L 339.433029 164.987133 
L 354.871764 165.501826 
L 370.310499 165.397344 
L 385.749234 146.362539 
L 401.187969 70.020763 
L 416.626705 131.697827 
" style="fill:none;stroke:#1b9e77;stroke-linecap:square;stroke-opacity:0.5;stroke-width:1.5;"/>
   </g>
   <g id="line2d_78">
    <path clip-path="url(#pe3db2f5cfc)" d="M 61.535795 77.299897 
L 76.974531 159.190179 
L 92.413266 161.626172 
L 107.852001 162.498587 
L 123.290736 163.793849 
L 138.729471 163.485597 
L 154.168207 146.792501 
L 169.606942 107.742114 
L 185.045677 156.95701 
L 200.484412 158.681147 
L 215.923147 164.170838 
L 231.361882 165.120938 
L 246.800618 165.459698 
L 262.239353 165.235289 
L 277.678088 165.126428 
L 293.116823 165.161847 
L 308.555558 165.277006 
L 323.994293 165.413416 
L 339.433029 165.453223 
L 354.871764 165.174507 
L 370.310499 164.952902 
L 385.749234 165.53975 
L 401.187969 165.652718 
L 416.626705 165.900516 
" style="fill:none;stroke:#1b9e77;stroke-linecap:square;stroke-opacity:0.5;stroke-width:1.5;"/>
   </g>
   <g id="line2d_79">
    <path clip-path="url(#pe3db2f5cfc)" d="M 61.535795 129.331433 
L 76.974531 148.973653 
L 92.413266 161.111429 
L 107.852001 161.247133 
L 123.290736 162.745761 
L 138.729471 163.697922 
L 154.168207 164.595862 
L 169.606942 165.167936 
L 185.045677 165.577565 
L 200.484412 165.817191 
L 215.923147 162.687244 
L 231.361882 162.536951 
L 246.800618 144.767476 
L 262.239353 157.182806 
L 277.678088 165.878782 
L 293.116823 124.673966 
L 308.555558 152.445206 
L 323.994293 154.526598 
L 339.433029 162.457925 
L 354.871764 163.187187 
L 370.310499 161.064655 
L 385.749234 156.478838 
L 401.187969 154.365061 
L 416.626705 161.18755 
" style="fill:none;stroke:#1b9e77;stroke-linecap:square;stroke-opacity:0.5;stroke-width:1.5;"/>
   </g>
   <g id="line2d_80">
    <path clip-path="url(#pe3db2f5cfc)" d="M 61.535795 139.922655 
L 76.974531 146.589594 
L 92.413266 150.650455 
L 107.852001 148.978663 
L 123.290736 149.680898 
L 138.729471 153.212565 
L 154.168207 154.756081 
L 169.606942 155.535323 
L 185.045677 159.215084 
L 200.484412 163.712773 
L 215.923147 165.230807 
L 231.361882 165.207142 
L 246.800618 165.469491 
L 262.239353 165.809687 
L 277.678088 165.83883 
L 293.116823 165.899424 
L 308.555558 165.932332 
L 323.994293 163.221697 
L 339.433029 160.277657 
L 354.871764 157.103995 
L 370.310499 154.186426 
L 385.749234 152.923288 
L 401.187969 145.85449 
L 416.626705 156.496765 
" style="fill:none;stroke:#1b9e77;stroke-linecap:square;stroke-opacity:0.5;stroke-width:1.5;"/>
   </g>
   <g id="line2d_81">
    <path clip-path="url(#pe3db2f5cfc)" d="M 61.535795 158.139978 
L 76.974531 160.84706 
L 92.413266 149.069183 
L 107.852001 14.76 
L 123.290736 151.640651 
L 138.729471 151.253936 
L 154.168207 165.101431 
L 169.606942 165.868664 
L 185.045677 165.942192 
L 200.484412 165.897092 
L 215.923147 165.91713 
L 231.361882 165.931637 
L 246.800618 165.943121 
L 262.239353 165.942102 
L 277.678088 165.940583 
L 293.116823 165.939953 
L 308.555558 165.941362 
L 323.994293 165.942515 
L 339.433029 165.943128 
L 354.871764 165.943601 
L 370.310499 165.944153 
L 385.749234 165.946265 
L 401.187969 165.950853 
L 416.626705 165.959538 
" style="fill:none;stroke:#1b9e77;stroke-linecap:square;stroke-opacity:0.5;stroke-width:1.5;"/>
   </g>
   <g id="line2d_82">
    <path clip-path="url(#pe3db2f5cfc)" d="M 61.535795 165.934001 
L 76.974531 165.916167 
L 92.413266 165.185895 
L 107.852001 163.591444 
L 123.290736 164.009979 
L 138.729471 163.132121 
L 154.168207 160.478511 
L 169.606942 156.120369 
L 185.045677 155.793639 
L 200.484412 153.191429 
L 215.923147 90.904744 
L 231.361882 85.7212 
L 246.800618 159.689368 
L 262.239353 164.544811 
L 277.678088 165.494059 
L 293.116823 165.466566 
L 308.555558 165.696024 
L 323.994293 165.779787 
L 339.433029 165.849481 
L 354.871764 165.843544 
L 370.310499 165.869491 
L 385.749234 165.928757 
L 401.187969 165.943797 
L 416.626705 165.620939 
" style="fill:none;stroke:#1b9e77;stroke-linecap:square;stroke-opacity:0.5;stroke-width:1.5;"/>
   </g>
   <g id="line2d_83">
    <path clip-path="url(#pe3db2f5cfc)" d="M 61.535795 164.475313 
L 76.974531 163.881616 
L 92.413266 163.904451 
L 107.852001 162.04658 
L 123.290736 158.867088 
L 138.729471 157.508185 
L 154.168207 156.326633 
L 169.606942 153.449249 
L 185.045677 147.072204 
L 200.484412 131.924257 
L 215.923147 121.119853 
L 231.361882 153.563774 
L 246.800618 131.546119 
L 262.239353 163.096744 
L 277.678088 165.690924 
L 293.116823 165.648128 
L 308.555558 165.717216 
L 323.994293 165.74069 
L 339.433029 165.78373 
L 354.871764 165.936358 
L 370.310499 164.27525 
L 385.749234 161.163325 
L 401.187969 159.810086 
L 416.626705 163.158358 
" style="fill:none;stroke:#1b9e77;stroke-linecap:square;stroke-opacity:0.5;stroke-width:1.5;"/>
   </g>
   <g id="line2d_84">
    <path clip-path="url(#pe3db2f5cfc)" d="M 61.535795 165.912928 
L 76.974531 165.883158 
L 92.413266 165.913252 
L 107.852001 165.918254 
L 123.290736 165.926864 
L 138.729471 165.937208 
L 154.168207 165.916977 
L 169.606942 165.946169 
L 185.045677 165.93853 
L 200.484412 165.006191 
L 215.923147 163.706186 
L 231.361882 164.062698 
L 246.800618 164.567832 
L 262.239353 163.944281 
L 277.678088 162.285288 
L 293.116823 160.427559 
L 308.555558 157.056751 
L 323.994293 106.439491 
L 339.433029 89.94315 
L 354.871764 130.880588 
L 370.310499 155.642531 
L 385.749234 163.476147 
L 401.187969 165.209503 
L 416.626705 165.764589 
" style="fill:none;stroke:#1b9e77;stroke-linecap:square;stroke-opacity:0.5;stroke-width:1.5;"/>
   </g>
   <g id="line2d_85">
    <path clip-path="url(#pe3db2f5cfc)" d="M 61.535795 165.884762 
L 76.974531 165.804309 
L 92.413266 165.889285 
L 107.852001 165.93388 
L 123.290736 165.932033 
L 138.729471 164.190522 
L 154.168207 144.650212 
L 169.606942 161.19323 
L 185.045677 159.095021 
L 200.484412 154.831345 
L 215.923147 161.731597 
L 231.361882 118.245115 
L 246.800618 120.232928 
L 262.239353 165.328367 
L 277.678088 165.005384 
L 293.116823 139.69954 
L 308.555558 131.022499 
L 323.994293 165.726004 
L 339.433029 165.94428 
L 354.871764 165.640129 
L 370.310499 163.309198 
L 385.749234 165.135651 
L 401.187969 165.504346 
L 416.626705 165.776479 
" style="fill:none;stroke:#1b9e77;stroke-linecap:square;stroke-opacity:0.5;stroke-width:1.5;"/>
   </g>
   <g id="line2d_86">
    <path clip-path="url(#pe3db2f5cfc)" d="M 61.535795 161.592559 
L 76.974531 163.235894 
L 92.413266 164.627125 
L 107.852001 164.418108 
L 123.290736 164.96375 
L 138.729471 165.52087 
L 154.168207 165.682622 
L 169.606942 165.599317 
L 185.045677 165.461586 
L 200.484412 165.311488 
L 215.923147 165.24058 
L 231.361882 165.561652 
L 246.800618 165.485692 
L 262.239353 163.821306 
L 277.678088 156.871994 
L 293.116823 161.639851 
L 308.555558 155.959889 
L 323.994293 159.924728 
L 339.433029 157.471211 
L 354.871764 132.928996 
L 370.310499 155.018976 
L 385.749234 149.07772 
L 401.187969 111.660096 
L 416.626705 124.630115 
" style="fill:none;stroke:#1b9e77;stroke-linecap:square;stroke-opacity:0.5;stroke-width:1.5;"/>
   </g>
   <g id="line2d_87">
    <path clip-path="url(#pe3db2f5cfc)" d="M 61.535795 148.849036 
L 76.974531 142.822765 
L 92.413266 153.45588 
L 107.852001 152.053663 
L 123.290736 157.530732 
L 138.729471 162.144323 
L 154.168207 163.647961 
L 169.606942 163.92649 
L 185.045677 164.829678 
L 200.484412 165.296176 
L 215.923147 165.307531 
L 231.361882 164.283625 
L 246.800618 163.525888 
L 262.239353 165.030976 
L 277.678088 164.469187 
L 293.116823 164.361672 
L 308.555558 164.684269 
L 323.994293 123.412355 
L 339.433029 106.659232 
L 354.871764 160.070539 
L 370.310499 164.207035 
L 385.749234 163.064711 
L 401.187969 162.967639 
L 416.626705 165.104756 
" style="fill:none;stroke:#1b9e77;stroke-linecap:square;stroke-opacity:0.5;stroke-width:1.5;"/>
   </g>
   <g id="line2d_88">
    <path clip-path="url(#pe3db2f5cfc)" d="M 61.535795 165.060036 
L 76.974531 165.678934 
L 92.413266 165.883791 
L 107.852001 165.866004 
L 123.290736 165.867998 
L 138.729471 165.919872 
L 154.168207 165.177055 
L 169.606942 165.058781 
L 185.045677 163.994531 
L 200.484412 163.654733 
L 215.923147 160.031245 
L 231.361882 158.129843 
L 246.800618 160.094177 
L 262.239353 156.803087 
L 277.678088 138.334966 
L 293.116823 90.079976 
L 308.555558 128.285455 
L 323.994293 142.073968 
L 339.433029 162.330621 
L 354.871764 164.048239 
L 370.310499 164.653526 
L 385.749234 164.532486 
L 401.187969 164.370265 
L 416.626705 165.776536 
" style="fill:none;stroke:#1b9e77;stroke-linecap:square;stroke-opacity:0.5;stroke-width:1.5;"/>
   </g>
   <g id="line2d_89">
    <path clip-path="url(#pe3db2f5cfc)" d="M 61.535795 162.183575 
L 76.974531 139.842228 
L 92.413266 109.347423 
L 107.852001 120.420565 
L 123.290736 133.378581 
L 138.729471 133.230436 
L 154.168207 157.381573 
L 169.606942 164.00074 
L 185.045677 165.134715 
L 200.484412 165.23004 
L 215.923147 165.543896 
L 231.361882 165.551783 
L 246.800618 165.65315 
L 262.239353 165.709207 
L 277.678088 165.777379 
L 293.116823 165.807989 
L 308.555558 165.897473 
L 323.994293 165.92853 
L 339.433029 165.939087 
L 354.871764 165.939818 
L 370.310499 165.94247 
L 385.749234 165.950631 
L 401.187969 165.955021 
L 416.626705 165.959817 
" style="fill:none;stroke:#1b9e77;stroke-linecap:square;stroke-opacity:0.5;stroke-width:1.5;"/>
   </g>
   <g id="line2d_90">
    <path clip-path="url(#pe3db2f5cfc)" d="M 61.535795 165.829981 
L 76.974531 165.787969 
L 92.413266 165.901666 
L 107.852001 165.910661 
L 123.290736 165.921055 
L 138.729471 165.931161 
L 154.168207 165.927888 
L 169.606942 165.945675 
L 185.045677 165.918156 
L 200.484412 162.617545 
L 215.923147 154.5014 
L 231.361882 133.03937 
L 246.800618 140.876783 
L 262.239353 164.472448 
L 277.678088 161.435679 
L 293.116823 134.476908 
L 308.555558 110.721171 
L 323.994293 164.917184 
L 339.433029 165.720372 
L 354.871764 164.10384 
L 370.310499 161.144697 
L 385.749234 160.563285 
L 401.187969 137.428406 
L 416.626705 162.612819 
" style="fill:none;stroke:#1b9e77;stroke-linecap:square;stroke-opacity:0.5;stroke-width:1.5;"/>
   </g>
   <g id="line2d_91">
    <path clip-path="url(#pe3db2f5cfc)" d="M 61.535795 148.499873 
L 76.974531 137.488776 
L 92.413266 131.086453 
L 107.852001 145.138283 
L 123.290736 136.627872 
L 138.729471 157.531489 
L 154.168207 145.25608 
L 169.606942 139.10751 
L 185.045677 151.343681 
L 200.484412 160.795251 
L 215.923147 165.463194 
L 231.361882 165.056452 
L 246.800618 165.338249 
L 262.239353 165.68724 
L 277.678088 165.827337 
L 293.116823 165.858759 
L 308.555558 165.823927 
L 323.994293 165.752148 
L 339.433029 164.418102 
L 354.871764 165.84326 
L 370.310499 165.925269 
L 385.749234 165.93409 
L 401.187969 165.944802 
L 416.626705 165.958023 
" style="fill:none;stroke:#1b9e77;stroke-linecap:square;stroke-opacity:0.5;stroke-width:1.5;"/>
   </g>
   <g id="line2d_92">
    <path clip-path="url(#pe3db2f5cfc)" d="M 61.535795 161.344929 
L 76.974531 115.147516 
L 92.413266 89.477418 
L 107.852001 127.507936 
L 123.290736 151.048977 
L 138.729471 156.634447 
L 154.168207 162.736147 
L 169.606942 164.307297 
L 185.045677 165.448958 
L 200.484412 165.70931 
L 215.923147 165.821383 
L 231.361882 165.729984 
L 246.800618 165.762275 
L 262.239353 165.86529 
L 277.678088 165.90833 
L 293.116823 165.904202 
L 308.555558 165.902386 
L 323.994293 165.905437 
L 339.433029 165.910982 
L 354.871764 165.929056 
L 370.310499 165.929488 
L 385.749234 165.532151 
L 401.187969 164.616836 
L 416.626705 157.625387 
" style="fill:none;stroke:#1b9e77;stroke-linecap:square;stroke-opacity:0.5;stroke-width:1.5;"/>
   </g>
   <g id="line2d_93">
    <path clip-path="url(#pe3db2f5cfc)" d="M 61.535795 158.377916 
L 76.974531 159.771383 
L 92.413266 158.635336 
L 107.852001 160.236657 
L 123.290736 162.915301 
L 138.729471 162.545269 
L 154.168207 161.347924 
L 169.606942 154.144264 
L 185.045677 117.402875 
L 200.484412 127.69985 
L 215.923147 138.795925 
L 231.361882 155.47508 
L 246.800618 149.284767 
L 262.239353 165.555219 
L 277.678088 165.822054 
L 293.116823 158.275441 
L 308.555558 157.391104 
L 323.994293 162.959994 
L 339.433029 165.74906 
L 354.871764 165.837106 
L 370.310499 165.876483 
L 385.749234 165.809332 
L 401.187969 165.845843 
L 416.626705 165.95194 
" style="fill:none;stroke:#1b9e77;stroke-linecap:square;stroke-opacity:0.5;stroke-width:1.5;"/>
   </g>
   <g id="line2d_94">
    <path clip-path="url(#pe3db2f5cfc)" d="M 61.535795 165.717081 
L 76.974531 165.408158 
L 92.413266 165.628433 
L 107.852001 165.792091 
L 123.290736 165.761343 
L 138.729471 160.017803 
L 154.168207 83.384165 
L 169.606942 157.22969 
L 185.045677 153.140484 
L 200.484412 158.108994 
L 215.923147 159.285253 
L 231.361882 162.202427 
L 246.800618 134.397679 
L 262.239353 153.633764 
L 277.678088 159.390102 
L 293.116823 149.132437 
L 308.555558 163.272281 
L 323.994293 164.199583 
L 339.433029 162.886124 
L 354.871764 164.883094 
L 370.310499 165.843005 
L 385.749234 165.698124 
L 401.187969 165.19245 
L 416.626705 161.501557 
" style="fill:none;stroke:#1b9e77;stroke-linecap:square;stroke-opacity:0.5;stroke-width:1.5;"/>
   </g>
   <g id="line2d_95">
    <path clip-path="url(#pe3db2f5cfc)" d="M 61.535795 163.366952 
L 76.974531 163.255837 
L 92.413266 160.544412 
L 107.852001 143.571818 
L 123.290736 146.851087 
L 138.729471 138.796408 
L 154.168207 145.551706 
L 169.606942 142.597046 
L 185.045677 135.364034 
L 200.484412 146.55538 
L 215.923147 163.862278 
L 231.361882 165.222635 
L 246.800618 165.57141 
L 262.239353 165.104816 
L 277.678088 161.870092 
L 293.116823 162.384226 
L 308.555558 163.646146 
L 323.994293 165.52638 
L 339.433029 161.281002 
L 354.871764 163.215978 
L 370.310499 163.030749 
L 385.749234 162.059483 
L 401.187969 158.737662 
L 416.626705 163.738583 
" style="fill:none;stroke:#1b9e77;stroke-linecap:square;stroke-opacity:0.5;stroke-width:1.5;"/>
   </g>
   <g id="line2d_96">
    <path clip-path="url(#pe3db2f5cfc)" d="M 61.535795 165.687419 
L 76.974531 165.412699 
L 92.413266 165.325476 
L 107.852001 164.253435 
L 123.290736 160.851037 
L 138.729471 156.550832 
L 154.168207 157.147113 
L 169.606942 159.753626 
L 185.045677 149.568618 
L 200.484412 102.641527 
L 215.923147 147.4397 
L 231.361882 156.26017 
L 246.800618 162.149933 
L 262.239353 164.728654 
L 277.678088 165.529489 
L 293.116823 165.600438 
L 308.555558 165.690479 
L 323.994293 165.856361 
L 339.433029 164.586748 
L 354.871764 155.36209 
L 370.310499 155.392603 
L 385.749234 163.684208 
L 401.187969 150.685444 
L 416.626705 141.548024 
" style="fill:none;stroke:#1b9e77;stroke-linecap:square;stroke-opacity:0.5;stroke-width:1.5;"/>
   </g>
   <g id="line2d_97">
    <path clip-path="url(#pe3db2f5cfc)" d="M 61.535795 141.339286 
L 76.974531 159.084616 
L 92.413266 163.587643 
L 107.852001 163.202356 
L 123.290736 163.642663 
L 138.729471 164.589057 
L 154.168207 164.014632 
L 169.606942 150.564965 
L 185.045677 146.274899 
L 200.484412 160.363253 
L 215.923147 157.711288 
L 231.361882 128.286589 
L 246.800618 135.356055 
L 262.239353 118.022585 
L 277.678088 165.876175 
L 293.116823 165.875724 
L 308.555558 165.925064 
L 323.994293 165.894363 
L 339.433029 165.86672 
L 354.871764 165.906289 
L 370.310499 165.929021 
L 385.749234 165.941955 
L 401.187969 165.950589 
L 416.626705 162.500335 
" style="fill:none;stroke:#1b9e77;stroke-linecap:square;stroke-opacity:0.5;stroke-width:1.5;"/>
   </g>
   <g id="line2d_98">
    <path clip-path="url(#pe3db2f5cfc)" d="M 61.535795 164.12122 
L 76.974531 163.475707 
L 92.413266 163.707799 
L 107.852001 161.662983 
L 123.290736 154.6632 
L 138.729471 155.934951 
L 154.168207 158.693892 
L 169.606942 156.231373 
L 185.045677 138.876425 
L 200.484412 131.251321 
L 215.923147 122.682391 
L 231.361882 148.817007 
L 246.800618 163.426443 
L 262.239353 163.108338 
L 277.678088 156.835785 
L 293.116823 165.385288 
L 308.555558 165.797881 
L 323.994293 160.363528 
L 339.433029 149.841779 
L 354.871764 165.825004 
L 370.310499 165.886114 
L 385.749234 165.904146 
L 401.187969 165.821252 
L 416.626705 163.392293 
" style="fill:none;stroke:#1b9e77;stroke-linecap:square;stroke-opacity:0.5;stroke-width:1.5;"/>
   </g>
   <g id="line2d_99">
    <path clip-path="url(#pe3db2f5cfc)" d="M 61.535795 164.405277 
L 76.974531 149.129652 
L 92.413266 127.166258 
L 107.852001 112.789147 
L 123.290736 117.5597 
L 138.729471 140.399314 
L 154.168207 161.082579 
L 169.606942 164.754615 
L 185.045677 165.49316 
L 200.484412 165.6126 
L 215.923147 165.730251 
L 231.361882 165.707817 
L 246.800618 165.617519 
L 262.239353 165.902106 
L 277.678088 161.761016 
L 293.116823 165.015227 
L 308.555558 164.766701 
L 323.994293 164.720817 
L 339.433029 164.598085 
L 354.871764 164.300678 
L 370.310499 163.974432 
L 385.749234 163.440413 
L 401.187969 163.032791 
L 416.626705 164.74597 
" style="fill:none;stroke:#1b9e77;stroke-linecap:square;stroke-opacity:0.5;stroke-width:1.5;"/>
   </g>
   <g id="line2d_100">
    <path clip-path="url(#pe3db2f5cfc)" d="M 61.535795 154.563591 
L 76.974531 165.114095 
L 92.413266 162.749535 
L 107.852001 152.065665 
L 123.290736 159.156283 
L 138.729471 160.610204 
L 154.168207 165.322301 
L 169.606942 165.673458 
L 185.045677 165.72219 
L 200.484412 165.536685 
L 215.923147 165.378427 
L 231.361882 165.67211 
L 246.800618 165.713684 
L 262.239353 165.795351 
L 277.678088 141.622055 
L 293.116823 145.990949 
L 308.555558 111.575537 
L 323.994293 151.262525 
L 339.433029 157.899396 
L 354.871764 162.74069 
L 370.310499 164.018314 
L 385.749234 125.65832 
L 401.187969 165.925507 
L 416.626705 165.93926 
" style="fill:none;stroke:#1b9e77;stroke-linecap:square;stroke-opacity:0.5;stroke-width:1.5;"/>
   </g>
   <g id="line2d_101">
    <path clip-path="url(#pe3db2f5cfc)" d="M 61.535795 163.157966 
L 76.974531 162.500588 
L 92.413266 165.379475 
L 107.852001 165.838272 
L 123.290736 165.75775 
L 138.729471 159.75042 
L 154.168207 157.090697 
L 169.606942 151.840679 
L 185.045677 133.232572 
L 200.484412 163.916291 
L 215.923147 160.732543 
L 231.361882 158.412824 
L 246.800618 159.775572 
L 262.239353 160.132125 
L 277.678088 163.143913 
L 293.116823 162.415142 
L 308.555558 160.999726 
L 323.994293 159.484449 
L 339.433029 151.985122 
L 354.871764 156.213111 
L 370.310499 158.360757 
L 385.749234 152.50404 
L 401.187969 148.415924 
L 416.626705 130.666169 
" style="fill:none;stroke:#1b9e77;stroke-linecap:square;stroke-opacity:0.5;stroke-width:1.5;"/>
   </g>
   <g id="line2d_102">
    <path clip-path="url(#pe3db2f5cfc)" d="M 61.535795 154.532803 
L 76.974531 119.640813 
L 92.413266 152.985559 
L 107.852001 160.528 
L 123.290736 162.20401 
L 138.729471 161.208887 
L 154.168207 159.519124 
L 169.606942 159.880096 
L 185.045677 162.293079 
L 200.484412 163.629227 
L 215.923147 164.498701 
L 231.361882 164.751938 
L 246.800618 165.276384 
L 262.239353 165.45749 
L 277.678088 165.574491 
L 293.116823 165.605032 
L 308.555558 165.663482 
L 323.994293 165.826137 
L 339.433029 165.477003 
L 354.871764 164.045682 
L 370.310499 126.343735 
L 385.749234 149.11466 
L 401.187969 129.580623 
L 416.626705 158.069168 
" style="fill:none;stroke:#1b9e77;stroke-linecap:square;stroke-opacity:0.5;stroke-width:1.5;"/>
   </g>
   <g id="line2d_103">
    <path clip-path="url(#pe3db2f5cfc)" d="M 61.535795 163.102849 
L 76.974531 164.337245 
L 92.413266 165.729337 
L 107.852001 165.921684 
L 123.290736 164.846432 
L 138.729471 164.25612 
L 154.168207 164.094369 
L 169.606942 157.739767 
L 185.045677 123.519604 
L 200.484412 147.835748 
L 215.923147 160.917796 
L 231.361882 55.350042 
L 246.800618 165.728776 
L 262.239353 165.900171 
L 277.678088 165.937309 
L 293.116823 165.93728 
L 308.555558 165.929109 
L 323.994293 165.93079 
L 339.433029 165.931327 
L 354.871764 165.95353 
L 370.310499 165.958347 
L 385.749234 161.216987 
L 401.187969 154.994227 
L 416.626705 164.637283 
" style="fill:none;stroke:#1b9e77;stroke-linecap:square;stroke-opacity:0.5;stroke-width:1.5;"/>
   </g>
   <g id="line2d_104">
    <path clip-path="url(#pe3db2f5cfc)" d="M 61.535795 135.08324 
L 76.974531 142.345504 
L 92.413266 136.180526 
L 107.852001 134.597928 
L 123.290736 146.163123 
L 138.729471 150.357372 
L 154.168207 161.031127 
L 169.606942 160.403151 
L 185.045677 161.935146 
L 200.484412 162.487251 
L 215.923147 164.960447 
L 231.361882 165.193768 
L 246.800618 165.448845 
L 262.239353 165.595035 
L 277.678088 165.677517 
L 293.116823 165.685168 
L 308.555558 165.590745 
L 323.994293 165.83786 
L 339.433029 164.925427 
L 354.871764 158.647518 
L 370.310499 159.002405 
L 385.749234 158.482396 
L 401.187969 153.678608 
L 416.626705 162.396022 
" style="fill:none;stroke:#1b9e77;stroke-linecap:square;stroke-opacity:0.5;stroke-width:1.5;"/>
   </g>
   <g id="line2d_105">
    <path clip-path="url(#pe3db2f5cfc)" d="M 61.535795 163.251174 
L 76.974531 136.668889 
L 92.413266 143.740933 
L 107.852001 163.770983 
L 123.290736 165.114975 
L 138.729471 160.55663 
L 154.168207 158.343265 
L 169.606942 156.052462 
L 185.045677 140.264487 
L 200.484412 157.716253 
L 215.923147 157.065324 
L 231.361882 160.986371 
L 246.800618 164.296642 
L 262.239353 135.283309 
L 277.678088 151.114305 
L 293.116823 155.665481 
L 308.555558 160.034657 
L 323.994293 151.482578 
L 339.433029 162.627907 
L 354.871764 165.443986 
L 370.310499 165.646773 
L 385.749234 165.532397 
L 401.187969 165.236242 
L 416.626705 165.810104 
" style="fill:none;stroke:#1b9e77;stroke-linecap:square;stroke-opacity:0.5;stroke-width:1.5;"/>
   </g>
   <g id="line2d_106">
    <path clip-path="url(#pe3db2f5cfc)" d="M 61.535795 160.150031 
L 76.974531 156.206829 
L 92.413266 149.346329 
L 107.852001 139.908538 
L 123.290736 164.028346 
L 138.729471 165.631407 
L 154.168207 165.818022 
L 169.606942 165.650454 
L 185.045677 165.510465 
L 200.484412 165.722763 
L 215.923147 165.819102 
L 231.361882 165.940293 
L 246.800618 165.048157 
L 262.239353 163.580602 
L 277.678088 162.599129 
L 293.116823 161.413842 
L 308.555558 137.97153 
L 323.994293 132.708603 
L 339.433029 148.216846 
L 354.871764 107.217095 
L 370.310499 165.426158 
L 385.749234 165.898218 
L 401.187969 165.936956 
L 416.626705 165.95641 
" style="fill:none;stroke:#1b9e77;stroke-linecap:square;stroke-opacity:0.5;stroke-width:1.5;"/>
   </g>
   <g id="line2d_107">
    <path clip-path="url(#pe3db2f5cfc)" d="M 61.535795 164.695256 
L 76.974531 145.784099 
L 92.413266 164.87617 
L 107.852001 165.695935 
L 123.290736 165.676798 
L 138.729471 162.166898 
L 154.168207 163.067106 
L 169.606942 158.536143 
L 185.045677 145.595348 
L 200.484412 131.135446 
L 215.923147 132.384173 
L 231.361882 139.359926 
L 246.800618 141.343194 
L 262.239353 155.973476 
L 277.678088 164.621484 
L 293.116823 165.084175 
L 308.555558 165.526932 
L 323.994293 165.603489 
L 339.433029 164.421253 
L 354.871764 162.574704 
L 370.310499 160.781994 
L 385.749234 162.948386 
L 401.187969 162.629202 
L 416.626705 161.224543 
" style="fill:none;stroke:#1b9e77;stroke-linecap:square;stroke-opacity:0.5;stroke-width:1.5;"/>
   </g>
   <g id="line2d_108">
    <path clip-path="url(#pe3db2f5cfc)" d="M 61.535795 164.717161 
L 76.974531 149.632173 
L 92.413266 133.470822 
L 107.852001 141.497841 
L 123.290736 118.541912 
L 138.729471 110.717658 
L 154.168207 152.154379 
L 169.606942 160.452671 
L 185.045677 164.37467 
L 200.484412 164.646012 
L 215.923147 165.09504 
L 231.361882 165.266199 
L 246.800618 165.434186 
L 262.239353 165.334948 
L 277.678088 165.02976 
L 293.116823 165.236015 
L 308.555558 165.506944 
L 323.994293 165.749224 
L 339.433029 165.828961 
L 354.871764 165.732519 
L 370.310499 165.641814 
L 385.749234 165.841592 
L 401.187969 164.306999 
L 416.626705 161.496623 
" style="fill:none;stroke:#1b9e77;stroke-linecap:square;stroke-opacity:0.5;stroke-width:1.5;"/>
   </g>
   <g id="line2d_109">
    <path clip-path="url(#pe3db2f5cfc)" d="M 61.535795 163.343939 
L 76.974531 159.503839 
L 92.413266 163.389458 
L 107.852001 163.520103 
L 123.290736 164.676931 
L 138.729471 165.235082 
L 154.168207 165.302889 
L 169.606942 165.123288 
L 185.045677 164.957824 
L 200.484412 164.581556 
L 215.923147 163.952149 
L 231.361882 163.179772 
L 246.800618 162.988998 
L 262.239353 161.715679 
L 277.678088 159.111994 
L 293.116823 157.414276 
L 308.555558 152.516266 
L 323.994293 149.397326 
L 339.433029 147.288837 
L 354.871764 148.80495 
L 370.310499 100.304825 
L 385.749234 149.912635 
L 401.187969 154.859767 
L 416.626705 160.623738 
" style="fill:none;stroke:#1b9e77;stroke-linecap:square;stroke-opacity:0.5;stroke-width:1.5;"/>
   </g>
   <g id="line2d_110">
    <path clip-path="url(#pe3db2f5cfc)" d="M 61.535795 165.956862 
L 76.974531 165.936813 
L 92.413266 165.93137 
L 107.852001 165.93814 
L 123.290736 165.930288 
L 138.729471 165.956834 
L 154.168207 161.744205 
L 169.606942 161.405293 
L 185.045677 157.808819 
L 200.484412 137.730215 
L 215.923147 102.208276 
L 231.361882 129.413759 
L 246.800618 162.613028 
L 262.239353 104.376157 
L 277.678088 165.717059 
L 293.116823 165.785407 
L 308.555558 165.859277 
L 323.994293 165.848529 
L 339.433029 165.870413 
L 354.871764 165.906854 
L 370.310499 165.924549 
L 385.749234 165.947432 
L 401.187969 165.956697 
L 416.626705 165.939859 
" style="fill:none;stroke:#1b9e77;stroke-linecap:square;stroke-opacity:0.5;stroke-width:1.5;"/>
   </g>
   <g id="line2d_111">
    <path clip-path="url(#pe3db2f5cfc)" d="M 61.535795 165.777828 
L 76.974531 165.942708 
L 92.413266 165.577116 
L 107.852001 164.930991 
L 123.290736 155.722079 
L 138.729471 154.995276 
L 154.168207 145.936067 
L 169.606942 148.577216 
L 185.045677 151.05344 
L 200.484412 117.884297 
L 215.923147 127.183612 
L 231.361882 158.256273 
L 246.800618 160.057418 
L 262.239353 149.849547 
L 277.678088 152.392651 
L 293.116823 161.689611 
L 308.555558 165.443212 
L 323.994293 165.697959 
L 339.433029 165.808226 
L 354.871764 165.273585 
L 370.310499 165.839913 
L 385.749234 165.919966 
L 401.187969 165.939992 
L 416.626705 165.957143 
" style="fill:none;stroke:#1b9e77;stroke-linecap:square;stroke-opacity:0.5;stroke-width:1.5;"/>
   </g>
   <g id="line2d_112">
    <path clip-path="url(#pe3db2f5cfc)" d="M 61.535795 144.391855 
L 76.974531 162.132213 
L 92.413266 165.280643 
L 107.852001 165.20434 
L 123.290736 165.456303 
L 138.729471 165.663602 
L 154.168207 165.724731 
L 169.606942 165.817297 
L 185.045677 165.865324 
L 200.484412 160.623682 
L 215.923147 160.211788 
L 231.361882 147.541649 
L 246.800618 90.039268 
L 262.239353 161.388291 
L 277.678088 164.382618 
L 293.116823 159.307134 
L 308.555558 144.513488 
L 323.994293 151.795958 
L 339.433029 164.342834 
L 354.871764 165.18853 
L 370.310499 165.252221 
L 385.749234 156.221555 
L 401.187969 149.474798 
L 416.626705 165.886005 
" style="fill:none;stroke:#1b9e77;stroke-linecap:square;stroke-opacity:0.5;stroke-width:1.5;"/>
   </g>
   <g id="line2d_113">
    <path clip-path="url(#pe3db2f5cfc)" d="M 61.535795 163.276874 
L 76.974531 164.688222 
L 92.413266 165.007843 
L 107.852001 164.867119 
L 123.290736 160.66106 
L 138.729471 156.89817 
L 154.168207 155.359085 
L 169.606942 146.600873 
L 185.045677 154.429405 
L 200.484412 160.699256 
L 215.923147 161.290447 
L 231.361882 150.729544 
L 246.800618 150.224987 
L 262.239353 150.67667 
L 277.678088 148.97625 
L 293.116823 146.026319 
L 308.555558 129.841743 
L 323.994293 152.322681 
L 339.433029 162.926427 
L 354.871764 162.619432 
L 370.310499 165.747634 
L 385.749234 165.931443 
L 401.187969 165.946317 
L 416.626705 165.958325 
" style="fill:none;stroke:#1b9e77;stroke-linecap:square;stroke-opacity:0.5;stroke-width:1.5;"/>
   </g>
   <g id="line2d_114">
    <path clip-path="url(#pe3db2f5cfc)" d="M 61.535795 165.806366 
L 76.974531 161.65693 
L 92.413266 133.44207 
L 107.852001 125.777878 
L 123.290736 162.867832 
L 138.729471 165.945602 
L 154.168207 165.945602 
L 169.606942 165.945602 
L 185.045677 164.32235 
L 200.484412 165.883045 
L 215.923147 165.945602 
L 231.361882 165.885185 
L 246.800618 164.851486 
L 262.239353 165.945602 
L 277.678088 165.945602 
L 293.116823 164.794016 
L 308.555558 165.55197 
L 323.994293 165.945602 
L 339.433029 165.945602 
L 354.871764 165.945602 
L 370.310499 144.194693 
L 385.749234 61.270671 
L 401.187969 165.945602 
L 416.626705 165.945602 
" style="fill:none;stroke:#d95f02;stroke-linecap:square;stroke-width:1.5;"/>
   </g>
   <g id="patch_3">
    <path d="M 43.78125 173.52 
L 43.78125 7.2 
" style="fill:none;stroke:#000000;stroke-linecap:square;stroke-linejoin:miter;stroke-width:0.8;"/>
   </g>
   <g id="patch_4">
    <path d="M 43.78125 173.52 
L 434.38125 173.52 
" style="fill:none;stroke:#000000;stroke-linecap:square;stroke-linejoin:miter;stroke-width:0.8;"/>
   </g>
   <g id="legend_1">
    <g id="patch_5">
     <path d="M 376.214063 29.878125 
L 427.38125 29.878125 
Q 429.38125 29.878125 429.38125 27.878125 
L 429.38125 14.2 
Q 429.38125 12.2 427.38125 12.2 
L 376.214063 12.2 
Q 374.214063 12.2 374.214063 14.2 
L 374.214063 27.878125 
Q 374.214063 29.878125 376.214063 29.878125 
z
" style="fill:#ffffff;opacity:0.8;stroke:#cccccc;stroke-linejoin:miter;"/>
    </g>
    <g id="line2d_115">
     <path d="M 378.214063 20.298438 
L 398.214063 20.298438 
" style="fill:none;stroke:#d95f02;stroke-linecap:square;stroke-width:1.5;"/>
    </g>
    <g id="line2d_116"/>
    <g id="text_16">
     <!-- real -->
     <defs>
      <path d="M 9.421875 75.984375 
L 18.40625 75.984375 
L 18.40625 0 
L 9.421875 0 
z
" id="DejaVuSans-108"/>
     </defs>
     <g transform="translate(406.214063 23.798438)scale(0.1 -0.1)">
      <use xlink:href="#DejaVuSans-114"/>
      <use x="41.082031" xlink:href="#DejaVuSans-101"/>
      <use x="102.605469" xlink:href="#DejaVuSans-97"/>
      <use x="163.884766" xlink:href="#DejaVuSans-108"/>
     </g>
    </g>
   </g>
  </g>
 </g>
 <defs>
  <clipPath id="pe3db2f5cfc">
   <rect height="166.32" width="390.6" x="43.78125" y="7.2"/>
  </clipPath>
 </defs>
</svg>
